<?xml version="1.0" standalone="no"?>
<!DOCTYPE svg PUBLIC "-//W3C//DTD SVG 1.1//EN"
  "http://www.w3.org/Graphics/SVG/1.1/DTD/svg11.dtd">
<!-- Created with matplotlib (http://matplotlib.sourceforge.net/) -->
<svg width="576pt" height="432pt" viewBox="0 0 576 432"
   xmlns="http://www.w3.org/2000/svg"
   xmlns:xlink="http://www.w3.org/1999/xlink"
   version="1.1"
   id="svg1">
<g id="figure1">
<g id="patch1">
<path style="fill: #ffffff; stroke: #ffffff; stroke-width: 1.000000; stroke-linejoin: round; stroke-linecap: square;  opacity: 1.000000"  d="M0.000000 432.000000L576.000000 432.000000L576.000000 0.000000
L0.000000 0.000000L0.000000 432.000000"/>
</g>
<g id="axes1">
<g id="patch2">
<path style="fill: #ffffff; opacity: 1.000000"  d="M72.000000 388.800000L518.400000 388.800000L518.400000 43.200000
L72.000000 43.200000L72.000000 388.800000"/>
</g>
<g id="line2d1">
<defs>
  <clipPath id="p50431ccdcb28178602d99d9270004dde">
<rect x="72.000000" y="43.200000" width="446.400000" height="345.600000"/>
  </clipPath>
</defs><path style="fill: none; stroke: #ff0000; stroke-width: 1.000000; stroke-linejoin: round; stroke-linecap: square;  opacity: 1.000000" clip-path="url(#p50431ccdcb28178602d99d9270004dde)" d="M72.000000 363.711715L72.446400 284.640918L72.892800 323.508108
L73.339200 319.617228L73.785600 310.761590L75.124800 343.412294
L75.571200 331.762504L76.017600 377.865504L76.464000 365.906678
L76.910400 326.454774L77.356800 382.601324L77.803200 328.763871
L78.696000 342.959708L79.142400 339.953737L79.588800 381.056636
L80.035200 324.300182L80.481600 379.428958L81.374400 349.696800
L81.820800 357.449939L82.267200 373.023660L82.713600 361.185051
L83.160000 367.442346L84.499200 324.614719L84.945600 382.605587
L85.392000 365.717002L85.838400 327.100285L86.284800 331.321144
L86.731200 373.452578L87.177600 330.929891L87.624000 384.725468
L88.070400 365.315184L88.516800 361.672209L88.963200 364.554870
L89.409600 363.307398L89.856000 365.197277L90.748800 363.474962
L91.195200 325.214876L92.088000 344.320860L92.534400 377.350312
L93.427200 355.665796L93.873600 309.824070L94.320000 380.826029
L94.766400 363.868595L95.659200 361.450915L96.105600 352.274636
L96.552000 376.483300L96.998400 363.020579L97.444800 367.389032
L97.891200 359.548577L98.337600 367.683299L99.230400 359.095346
L99.676800 362.988484L100.123200 345.579420L100.569600 369.204330
L101.016000 329.137315L101.462400 379.210810L101.908800 326.590284
L102.355200 379.351382L102.801600 365.775627L103.248000 363.121540
L103.694400 371.300596L104.587200 361.295078L105.033600 365.815256
L105.926400 362.301834L106.372800 344.193713L106.819200 366.400644
L107.265600 368.708999L107.712000 367.303444L108.158400 376.980077
L108.604800 357.407361L109.051200 377.429017L109.497600 368.860746
L109.944000 367.778143L110.390400 359.388634L110.836800 375.668709
L111.729600 364.333657L112.176000 367.150113L113.068800 368.294671
L113.515200 365.838324L113.961600 360.148389L114.408000 376.492689
L114.854400 363.598525L115.300800 367.070527L116.640000 372.415922
L117.086400 362.202313L117.532800 372.792108L117.979200 367.424634
L118.425600 369.304151L119.318400 361.369043L119.764800 366.839055
L120.211200 362.841206L120.657600 373.134015L121.104000 361.638789
L121.996800 371.486154L122.443200 361.386023L122.889600 369.405412
L123.336000 365.635670L123.782400 349.531027L124.228800 378.909884
L125.121600 360.607991L126.014400 370.513475L126.460800 360.691350
L127.353600 368.797749L128.246400 348.170786L129.139200 367.213081
L130.032000 303.656083L130.478400 366.395242L130.924800 350.719482
L131.371200 363.745924L132.264000 359.955222L132.710400 367.674860
L133.156800 363.802159L134.496000 342.063844L134.942400 363.456564
L136.281600 369.478800L136.728000 361.552332L137.620800 357.296365
L138.067200 367.221254L139.406400 360.749059L139.852800 367.751595
L140.299200 361.365276L140.745600 367.193624L141.192000 361.563500
L141.638400 373.699832L142.084800 360.693890L142.531200 367.362202
L142.977600 361.527978L143.424000 350.042913L143.870400 355.512741
L144.316800 372.743205L144.763200 360.975197L145.209600 369.534223
L146.102400 361.509817L146.548800 367.110029L147.441600 339.735842
L147.888000 371.718196L148.334400 361.425283L148.780800 372.996138
L149.227200 361.476242L149.673600 372.740774L150.566400 357.508650
L151.012800 384.964088L151.459200 365.413893L152.798400 369.340088
L153.244800 367.526074L153.691200 356.056520L154.137600 361.769892
L154.584000 378.049703L155.030400 366.143126L155.476800 370.215930
L156.816000 364.297473L157.262400 367.439501L158.155200 368.779242
L158.601600 373.450107L159.048000 367.008589L159.494400 369.133730
L159.940800 353.881233L160.387200 372.932784L160.833600 361.597306
L161.726400 368.775890L162.172800 361.482445L162.619200 372.320122
L163.065600 360.574358L163.512000 368.754745L163.958400 367.402579
L164.404800 361.514097L165.297600 372.921811L165.744000 356.588905
L166.190400 366.434796L166.636800 361.638207L167.083200 367.144779
L167.529600 361.357275L167.976000 367.265676L168.422400 361.560159
L169.315200 363.005211L169.761600 368.722708L170.208000 363.350834
L171.100800 361.277015L171.547200 367.113185L172.440000 361.262719
L172.886400 367.203197L173.332800 361.221166L173.779200 367.271441
L174.672000 370.181802L176.011200 357.065130L176.457600 369.702541
L176.904000 364.620730L177.350400 367.125621L178.243200 358.387171
L178.689600 381.846954L179.582400 362.129795L180.028800 366.294378
L180.921600 371.108189L181.368000 369.543663L181.814400 365.831355
L182.707200 362.103477L183.153600 368.421045L183.600000 337.303043
L184.046400 368.157185L184.492800 361.944069L184.939200 367.215990
L185.385600 361.707592L186.278400 368.037124L186.724800 338.959480
L187.171200 359.601460L187.617600 361.799983L188.064000 367.465859
L188.510400 368.579186L189.403200 363.842266L189.849600 348.076443
L190.742400 367.293110L191.635200 368.324306L192.081600 360.536855
L192.974400 369.937670L193.420800 361.214283L193.867200 367.775965
L194.313600 361.524257L195.206400 375.107950L196.099200 346.068956
L196.545600 365.533102L196.992000 367.109580L197.438400 361.996957
L197.884800 377.763909L198.331200 362.926633L198.777600 372.442055
L199.670400 361.254983L200.116800 373.177308L200.563200 370.847889
L201.009600 363.717936L201.902400 373.515708L202.348800 367.731216
L202.795200 366.388404L203.241600 357.176638L203.688000 365.820422
L204.134400 367.116123L205.473600 355.901985L205.920000 379.168335
L206.366400 367.374073L207.259200 374.287208L207.705600 359.153119
L208.152000 373.036383L209.044800 363.543972L209.491200 369.736618
L209.937600 358.260716L210.384000 375.346495L210.830400 359.764744
L211.276800 371.184180L211.723200 365.035248L212.616000 360.875866
L213.062400 367.233350L213.955200 360.596604L214.401600 367.744262
L214.848000 360.422323L215.294400 368.639942L215.740800 355.538068
L216.187200 367.329882L216.633600 368.916636L217.080000 359.830771
L217.526400 367.328794L217.972800 363.790829L218.865600 362.379819
L219.312000 355.898292L219.758400 373.142488L220.651200 347.073846
L221.097600 355.427027L221.544000 376.562915L221.990400 358.057210
L222.883200 371.471944L223.329600 357.428292L223.776000 372.560187
L224.222400 362.064845L224.668800 368.616816L225.115200 367.365692
L225.561600 361.527252L226.454400 355.977268L226.900800 375.470323
L227.793600 360.377758L228.240000 365.894582L229.132800 369.530329
L229.579200 355.979676L230.025600 367.436615L230.918400 365.956088
L231.364800 367.449132L231.811200 361.531469L232.257600 344.651674
L232.704000 353.256820L233.150400 379.488804L233.596800 363.816334
L234.043200 361.644981L234.936000 367.525872L235.382400 360.760884
L235.828800 366.664418L236.721600 363.595069L237.614400 344.391293
L238.060800 366.133248L238.953600 359.699426L239.400000 370.521976
L239.846400 366.080325L240.292800 367.302194L240.739200 363.580687
L241.632000 367.474141L242.524800 366.291331L243.417600 350.275162
L243.864000 355.354272L244.310400 380.265051L244.756800 367.483530
L245.203200 369.148389L245.649600 365.925266L246.096000 373.698956
L246.542400 360.922378L246.988800 373.310300L247.435200 367.356171
L248.774400 372.497800L249.220800 362.284629L250.113600 369.372712
L250.560000 365.756285L252.345600 372.067494L253.238400 361.103219
L254.131200 370.650326L255.024000 367.289510L256.363200 355.804007
L256.809600 373.369939L257.256000 361.828552L258.148800 373.187382
L258.595200 361.668096L259.041600 367.382039L260.380800 350.054387
L260.827200 379.430196L261.273600 361.269089L261.720000 321.359772
L262.612800 373.320605L263.505600 358.765713L263.952000 367.285766
L264.398400 365.612561L264.844800 66.120255L265.291200 317.576511
L266.184000 355.496106L266.630400 358.644113L267.076800 342.372217
L267.969600 368.777065L268.862400 350.244858L269.308800 372.369738
L269.755200 361.219202L270.201600 367.542708L271.094400 361.758476
L271.540800 365.908867L271.987200 357.514923L272.880000 367.744136
L273.326400 361.388788L274.219200 367.616206L275.112000 361.580302
L275.558400 367.383456L276.451200 369.212394L277.344000 361.437172
L277.790400 365.014771L279.129600 367.486848L279.576000 373.294794
L280.022400 367.534990L281.361600 366.010353L281.808000 373.216908
L282.254400 367.337290L283.593600 367.309993L284.932800 363.018614
L285.379200 366.088205L285.825600 355.791410L286.272000 378.947134
L286.718400 367.342589L288.057600 367.579930L288.950400 373.270003
L289.396800 367.502158L289.843200 370.204485L290.736000 361.548006
L291.628800 370.789068L292.521600 356.222390L292.968000 371.399674
L293.414400 362.196467L294.307200 375.658260L294.753600 359.672077
L295.200000 370.764818L295.646400 365.749834L296.985600 371.689834
L297.878400 360.882420L298.324800 366.169352L298.771200 367.466244
L300.556800 350.168832L301.449600 367.346822L301.896000 359.852187
L302.342400 363.432551L302.788800 362.018085L303.235200 367.472477
L304.128000 361.619309L305.020800 368.864392L305.467200 359.751738
L305.913600 362.622102L306.360000 367.729194L306.806400 344.440863
L307.252800 361.881734L307.699200 360.094199L308.145600 373.061364
L308.592000 361.779489L309.038400 373.044684L309.484800 362.030504
L309.931200 367.475126L310.824000 361.222773L311.270400 363.111345
L311.716800 367.877566L312.163200 365.980925L312.609600 367.671542
L313.056000 332.941766L313.502400 379.127716L314.395200 367.475731
L315.288000 361.672116L315.734400 370.381098L316.627200 373.205987
L317.073600 367.454241L318.412800 362.163352L318.859200 377.443325
L319.305600 361.506920L319.752000 367.488000L320.198400 356.022956
L320.644800 373.251341L321.091200 367.419992L321.984000 344.083617
L322.430400 368.902166L322.876800 373.745543L323.323200 366.752258
L324.662400 371.451398L325.108800 363.700022L326.001600 369.687738
L326.448000 359.699247L326.894400 361.900668L327.340800 374.951232
L328.233600 361.946707L329.126400 367.609018L329.572800 361.816520
L330.019200 367.700383L331.358400 361.964195L332.251200 367.774658
L332.697600 359.878418L333.590400 367.633653L334.036800 361.741697
L334.929600 367.447697L335.376000 361.923846L335.822400 369.427357
L336.268800 360.160986L336.715200 361.583366L337.161600 370.899095
L338.054400 361.941316L338.500800 367.386618L338.947200 361.713646
L339.393600 373.208342L339.840000 361.668885L341.179200 373.442498
L341.625600 366.723320L342.072000 369.748748L342.518400 360.507980
L342.964800 370.750170L343.411200 347.070015L343.857600 375.589342
L344.304000 363.984330L344.750400 361.651772L345.196800 372.990747
L345.643200 363.961371L346.089600 367.633624L346.982400 362.709187
L347.428800 367.533965L347.875200 361.924877L348.321600 365.531725
L348.768000 363.200371L349.214400 350.409364L349.660800 355.999582
L350.107200 367.580051L350.553600 366.274310L351.000000 356.359242
L351.446400 373.369357L352.339200 353.861297L352.785600 374.253195
L353.232000 359.359678L353.678400 367.857418L354.124800 364.989537
L354.571200 335.744709L355.017600 367.731619L355.910400 361.892431
L356.356800 373.272722L356.803200 361.829082L357.696000 368.900490
L358.142400 362.838108L358.588800 369.947802L359.035200 356.510822
L359.481600 374.802751L360.374400 348.951986L361.267200 373.328312
L361.713600 361.856039L362.160000 367.472102L363.052800 373.137725
L363.499200 361.983802L363.945600 373.248766L364.392000 367.543002
L365.284800 373.258115L365.731200 360.764974L366.177600 373.276506
L366.624000 356.132529L367.070400 361.838016L367.516800 373.529825
L367.963200 356.403347L368.409600 378.897598L369.748800 361.936328
L370.195200 373.218054L370.641600 367.573260L371.980800 367.431132
L372.873600 366.329002L373.320000 367.619720L373.766400 361.820563
L374.212800 367.570080L374.659200 361.837872L375.552000 373.447129
L375.998400 361.766736L376.444800 372.522315L376.891200 361.362574
L377.337600 369.507830L377.784000 360.131086L378.230400 367.489722
L379.123200 345.503088L379.569600 366.117748L380.016000 362.047933
L380.462400 369.061500L380.908800 360.299768L381.355200 362.134011
L382.694400 373.707279L383.140800 354.502950L383.587200 373.408335
L384.033600 333.061235L384.480000 373.299160L384.926400 362.105891
L385.372800 367.580667L386.265600 361.964557L386.712000 344.563154
L387.158400 367.434973L387.604800 361.902459L388.051200 367.777774
L389.390400 361.894620L389.836800 357.467501L390.729600 371.939109
L391.622400 362.169602L392.068800 371.101116L392.515200 358.453768
L392.961600 367.650386L394.300800 359.616367L394.747200 369.501368
L395.640000 338.825030L396.086400 361.603388L396.532800 344.654548
L397.425600 367.600257L397.872000 361.810673L398.318400 367.672856
L398.764800 286.522226L399.211200 304.439685L400.104000 355.995982
L400.550400 350.561670L400.996800 356.175567L401.443200 379.033430
L402.336000 344.573326L402.782400 362.227248L403.675200 367.508131
L404.568000 366.374955L405.014400 344.508411L405.907200 384.750449
L406.353600 356.255827L406.800000 367.521972L407.692800 344.638932
L408.585600 370.190258L409.032000 363.713628L409.478400 362.132646
L409.924800 367.525457L410.817600 361.839588L411.264000 367.819707
L412.156800 361.870681L412.603200 367.697140L413.049600 377.928697
L413.496000 362.002447L414.388800 367.677527L414.835200 360.165957
L415.281600 368.950827L415.728000 362.155139L416.620800 367.529829
L417.067200 361.911963L417.513600 338.708868L417.960000 367.527744
L419.299200 361.877282L419.745600 370.965421L420.638400 361.976815
L421.084800 356.289679L421.531200 379.436648L421.977600 362.052749
L422.870400 371.640349L423.316800 356.780845L424.209600 369.897575
L424.656000 360.896273L425.102400 362.104652L425.548800 367.420159
L426.441600 361.934421L427.334400 378.262702L428.227200 338.877688
L428.673600 372.579638L429.120000 373.629364L429.566400 362.713150
L430.012800 372.093564L430.459200 367.771162L430.905600 370.035475
L431.352000 364.965252L432.691200 372.855151L433.584000 362.786031
L434.476800 371.741835L434.923200 367.689514L435.369600 356.220490
L435.816000 367.832235L436.708800 371.387474L437.155200 363.690253
L437.601600 369.742297L438.048000 365.867332L438.494400 367.909759
L438.940800 373.332050L439.387200 367.767360L440.726400 367.222349
L441.172800 362.125590L441.619200 373.500518L442.065600 361.768009
L442.958400 369.581028L443.404800 367.777158L443.851200 362.088755
L444.297600 367.503068L444.744000 361.805996L445.190400 367.839406
L445.636800 361.790266L446.083200 373.422701L446.529600 361.955071
L447.422400 368.011158L448.761600 348.718971L449.208000 379.645379
L449.654400 362.061544L450.100800 367.614772L450.547200 362.145594
L450.993600 366.426282L451.440000 361.886625L451.886400 367.410632
L452.332800 361.877397L453.225600 367.748266L454.564800 367.716643
L455.011200 361.725454L455.904000 367.937620L457.243200 367.623942
L457.689600 362.019946L458.136000 367.600003L458.582400 356.028572
L459.028800 367.803729L459.921600 362.175276L460.368000 370.871798
L460.814400 364.517914L461.260800 367.562817L461.707200 362.134800
L462.600000 367.765730L463.492800 356.334296L463.939200 373.405738
L464.385600 344.600853L464.832000 362.107342L465.724800 367.859007
L467.510400 359.540484L467.956800 360.730149L468.403200 367.757499
L469.296000 361.596159L469.742400 342.129272L470.188800 364.678105
L470.635200 362.263092L471.081600 367.696495L471.974400 372.443576
L472.420800 361.859881L472.867200 367.656543L473.760000 361.836455
L474.206400 367.672038L474.652800 361.841852L475.099200 367.774934
L475.545600 344.567238L475.992000 356.244348L476.438400 385.005151
L476.884800 362.108771L477.777600 373.497252L478.224000 367.939521
L479.563200 367.853420L480.009600 372.243404L480.456000 362.005805
L480.902400 373.408266L481.348800 369.650488L481.795200 354.337413
L482.688000 373.672443L483.134400 367.219549L484.473600 373.418012
L484.920000 367.444742L485.812800 370.517351L486.259200 363.734329
L486.705600 368.920034L487.152000 367.733831L488.044800 369.286669
L488.491200 360.614701L489.384000 367.734119L490.276800 371.509102
L490.723200 365.814058L491.616000 361.565119L492.062400 367.779606
L493.401600 362.155329L494.294400 363.545148L494.740800 366.580708
L495.187200 361.692755L496.080000 367.775240L496.972800 362.124225
L497.865600 369.243049L498.312000 360.926231L498.758400 362.055358
L499.204800 368.039301L499.651200 362.227478L500.097600 366.413818
L500.544000 362.126022L500.990400 373.567248L501.436800 362.034495
L501.883200 367.812374L502.329600 362.020625L502.776000 367.794881
L503.668800 350.576364L504.115200 385.330596L504.561600 362.133072
L505.008000 360.475212L505.454400 362.247016L505.900800 367.726988
L506.793600 362.052305L507.686400 369.329201L508.132800 360.508026
L508.579200 367.872313L509.472000 369.865325L509.918400 360.171521
L510.364800 371.234229L511.704000 344.833402L512.150400 368.003952
L512.596800 347.964111L513.489600 362.737555L514.382400 367.794708
L514.828800 362.176819L515.275200 367.118283L515.721600 354.931258
L516.168000 373.873288L516.614400 362.884078L517.953600 344.741391
L517.953600 344.741391"/>
</g>
<g id="matplotlib.axis1">
<g id="xtick1">
<g id="line2d2">
<path style="fill: none; stroke: #000000; stroke-width: 0.500000; stroke-linejoin: round; stroke-linecap: butt; stroke-dasharray: 1.000000,3.000000; stroke-dashoffset: 0.000000; opacity: 1.000000" clip-path="url(#p50431ccdcb28178602d99d9270004dde)" d="M72.000000 388.800000L72.000000 43.200000"/>
</g>
<g id="line2d3">
<defs><path id="m30e32995789d870ad79a2e54c91cf9c6" d="M0.000000 0.000000L0.000000 -4.000000"/></defs>
<g ><use style="fill: none; stroke: #000000; stroke-width: 0.500000; stroke-linejoin: round; stroke-linecap: butt;  opacity: 1.000000" xlink:href="#m30e32995789d870ad79a2e54c91cf9c6" x="72.000000" y="388.800000"/>
</g></g>
<g id="line2d4">
<defs><path id="m9281cae24120827b11d5ea8a7ad3e96b" d="M0.000000 0.000000L0.000000 4.000000"/></defs>
<g ><use style="fill: none; stroke: #000000; stroke-width: 0.500000; stroke-linejoin: round; stroke-linecap: butt;  opacity: 1.000000" xlink:href="#m9281cae24120827b11d5ea8a7ad3e96b" x="72.000000" y="43.200000"/>
</g></g>
<g id="text1">
<defs>
<path id="c_7a2040fe3b94fcd41d0a72c84e93b115" d="M31.781250 -66.406250q-7.609375 0.000000 -11.453125 7.500000q-3.828125 7.484375 -3.828125 22.531250q0.000000 14.984375 3.828125 22.484375q3.843750 7.500000 11.453125 7.500000q7.671875 0.000000 11.500000 -7.500000q3.843750 -7.500000 3.843750 -22.484375q0.000000 -15.046875 -3.843750 -22.531250q-3.828125 -7.500000 -11.500000 -7.500000M31.781250 -74.218750q12.265625 0.000000 18.734375 9.703125q6.468750 9.687500 6.468750 28.140625q0.000000 18.406250 -6.468750 28.109375q-6.468750 9.687500 -18.734375 9.687500q-12.250000 0.000000 -18.718750 -9.687500q-6.468750 -9.703125 -6.468750 -28.109375q0.000000 -18.453125 6.468750 -28.140625q6.468750 -9.703125 18.718750 -9.703125"/>
</defs>
<g style="fill: #000000; opacity: 1.000000" transform="translate(68.976562,401.706250)scale(0.120000)">
<use xlink:href="#c_7a2040fe3b94fcd41d0a72c84e93b115"/>
</g>
</g>
</g>
<g id="xtick2">
<g id="line2d5">
<path style="fill: none; stroke: #000000; stroke-width: 0.500000; stroke-linejoin: round; stroke-linecap: butt; stroke-dasharray: 1.000000,3.000000; stroke-dashoffset: 0.000000; opacity: 1.000000" clip-path="url(#p50431ccdcb28178602d99d9270004dde)" d="M161.280000 388.800000L161.280000 43.200000"/>
</g>
<g id="line2d6">
<g ><use style="fill: none; stroke: #000000; stroke-width: 0.500000; stroke-linejoin: round; stroke-linecap: butt;  opacity: 1.000000" xlink:href="#m30e32995789d870ad79a2e54c91cf9c6" x="161.280000" y="388.800000"/>
</g></g>
<g id="line2d7">
<g ><use style="fill: none; stroke: #000000; stroke-width: 0.500000; stroke-linejoin: round; stroke-linecap: butt;  opacity: 1.000000" xlink:href="#m9281cae24120827b11d5ea8a7ad3e96b" x="161.280000" y="43.200000"/>
</g></g>
<g id="text2">
<defs>
<path id="c_ed3f3ed3ebfbd18bcb9c012009a68ad1" d="M19.187500 -8.296875l34.421875 0.000000l0.000000 8.296875l-46.281250 0.000000l0.000000 -8.296875q5.609375 -5.812500 15.296875 -15.593750q9.703125 -9.796875 12.187500 -12.640625q4.734375 -5.312500 6.609375 -9.000000q1.890625 -3.687500 1.890625 -7.250000q0.000000 -5.812500 -4.078125 -9.468750q-4.078125 -3.671875 -10.625000 -3.671875q-4.640625 0.000000 -9.796875 1.609375q-5.140625 1.609375 -11.000000 4.890625l0.000000 -9.968750q5.953125 -2.390625 11.125000 -3.609375q5.187500 -1.218750 9.484375 -1.218750q11.328125 0.000000 18.062500 5.671875q6.734375 5.656250 6.734375 15.125000q0.000000 4.500000 -1.687500 8.531250q-1.671875 4.015625 -6.125000 9.484375q-1.218750 1.421875 -7.765625 8.187500q-6.531250 6.765625 -18.453125 18.921875"/>
</defs>
<g style="fill: #000000; opacity: 1.000000" transform="translate(150.655000,401.706250)scale(0.120000)">
<use xlink:href="#c_ed3f3ed3ebfbd18bcb9c012009a68ad1"/>
<use xlink:href="#c_7a2040fe3b94fcd41d0a72c84e93b115" x="63.623047"/>
<use xlink:href="#c_7a2040fe3b94fcd41d0a72c84e93b115" x="127.246094"/>
</g>
</g>
</g>
<g id="xtick3">
<g id="line2d8">
<path style="fill: none; stroke: #000000; stroke-width: 0.500000; stroke-linejoin: round; stroke-linecap: butt; stroke-dasharray: 1.000000,3.000000; stroke-dashoffset: 0.000000; opacity: 1.000000" clip-path="url(#p50431ccdcb28178602d99d9270004dde)" d="M250.560000 388.800000L250.560000 43.200000"/>
</g>
<g id="line2d9">
<g ><use style="fill: none; stroke: #000000; stroke-width: 0.500000; stroke-linejoin: round; stroke-linecap: butt;  opacity: 1.000000" xlink:href="#m30e32995789d870ad79a2e54c91cf9c6" x="250.560000" y="388.800000"/>
</g></g>
<g id="line2d10">
<g ><use style="fill: none; stroke: #000000; stroke-width: 0.500000; stroke-linejoin: round; stroke-linecap: butt;  opacity: 1.000000" xlink:href="#m9281cae24120827b11d5ea8a7ad3e96b" x="250.560000" y="43.200000"/>
</g></g>
<g id="text3">
<defs>
<path id="c_a0416418d96557a09b8c1332d34883ba" d="M37.796875 -64.312500l-24.906250 38.921875l24.906250 0.000000zM35.203125 -72.906250l12.406250 0.000000l0.000000 47.515625l10.406250 0.000000l0.000000 8.203125l-10.406250 0.000000l0.000000 17.187500l-9.812500 0.000000l0.000000 -17.187500l-32.906250 0.000000l0.000000 -9.515625z"/>
</defs>
<g style="fill: #000000; opacity: 1.000000" transform="translate(239.794375,401.706250)scale(0.120000)">
<use xlink:href="#c_a0416418d96557a09b8c1332d34883ba"/>
<use xlink:href="#c_7a2040fe3b94fcd41d0a72c84e93b115" x="63.623047"/>
<use xlink:href="#c_7a2040fe3b94fcd41d0a72c84e93b115" x="127.246094"/>
</g>
</g>
</g>
<g id="xtick4">
<g id="line2d11">
<path style="fill: none; stroke: #000000; stroke-width: 0.500000; stroke-linejoin: round; stroke-linecap: butt; stroke-dasharray: 1.000000,3.000000; stroke-dashoffset: 0.000000; opacity: 1.000000" clip-path="url(#p50431ccdcb28178602d99d9270004dde)" d="M339.840000 388.800000L339.840000 43.200000"/>
</g>
<g id="line2d12">
<g ><use style="fill: none; stroke: #000000; stroke-width: 0.500000; stroke-linejoin: round; stroke-linecap: butt;  opacity: 1.000000" xlink:href="#m30e32995789d870ad79a2e54c91cf9c6" x="339.840000" y="388.800000"/>
</g></g>
<g id="line2d13">
<g ><use style="fill: none; stroke: #000000; stroke-width: 0.500000; stroke-linejoin: round; stroke-linecap: butt;  opacity: 1.000000" xlink:href="#m9281cae24120827b11d5ea8a7ad3e96b" x="339.840000" y="43.200000"/>
</g></g>
<g id="text4">
<defs>
<path id="c_cc8d6d580d1b10c8632f7a42cd53db8a" d="M33.015625 -40.375000q-6.640625 0.000000 -10.531250 4.546875q-3.875000 4.531250 -3.875000 12.437500q0.000000 7.859375 3.875000 12.437500q3.890625 4.562500 10.531250 4.562500q6.640625 0.000000 10.515625 -4.562500q3.875000 -4.578125 3.875000 -12.437500q0.000000 -7.906250 -3.875000 -12.437500q-3.875000 -4.546875 -10.515625 -4.546875M52.593750 -71.296875l0.000000 8.984375q-3.718750 -1.750000 -7.500000 -2.671875q-3.781250 -0.937500 -7.500000 -0.937500q-9.765625 0.000000 -14.921875 6.593750q-5.140625 6.593750 -5.875000 19.921875q2.875000 -4.250000 7.218750 -6.515625q4.359375 -2.265625 9.578125 -2.265625q10.984375 0.000000 17.359375 6.671875q6.375000 6.656250 6.375000 18.125000q0.000000 11.234375 -6.640625 18.031250q-6.640625 6.781250 -17.671875 6.781250q-12.656250 0.000000 -19.343750 -9.687500q-6.687500 -9.703125 -6.687500 -28.109375q0.000000 -17.281250 8.203125 -27.562500q8.203125 -10.281250 22.015625 -10.281250q3.718750 0.000000 7.500000 0.734375q3.781250 0.734375 7.890625 2.187500"/>
</defs>
<g style="fill: #000000; opacity: 1.000000" transform="translate(329.199375,401.706250)scale(0.120000)">
<use xlink:href="#c_cc8d6d580d1b10c8632f7a42cd53db8a"/>
<use xlink:href="#c_7a2040fe3b94fcd41d0a72c84e93b115" x="63.623047"/>
<use xlink:href="#c_7a2040fe3b94fcd41d0a72c84e93b115" x="127.246094"/>
</g>
</g>
</g>
<g id="xtick5">
<g id="line2d14">
<path style="fill: none; stroke: #000000; stroke-width: 0.500000; stroke-linejoin: round; stroke-linecap: butt; stroke-dasharray: 1.000000,3.000000; stroke-dashoffset: 0.000000; opacity: 1.000000" clip-path="url(#p50431ccdcb28178602d99d9270004dde)" d="M429.120000 388.800000L429.120000 43.200000"/>
</g>
<g id="line2d15">
<g ><use style="fill: none; stroke: #000000; stroke-width: 0.500000; stroke-linejoin: round; stroke-linecap: butt;  opacity: 1.000000" xlink:href="#m30e32995789d870ad79a2e54c91cf9c6" x="429.120000" y="388.800000"/>
</g></g>
<g id="line2d16">
<g ><use style="fill: none; stroke: #000000; stroke-width: 0.500000; stroke-linejoin: round; stroke-linecap: butt;  opacity: 1.000000" xlink:href="#m9281cae24120827b11d5ea8a7ad3e96b" x="429.120000" y="43.200000"/>
</g></g>
<g id="text5">
<defs>
<path id="c_bef35738d52871942e50b9de9b122bab" d="M31.781250 -34.625000q-7.031250 0.000000 -11.062500 3.765625q-4.015625 3.765625 -4.015625 10.343750q0.000000 6.593750 4.015625 10.359375q4.031250 3.765625 11.062500 3.765625q7.031250 0.000000 11.078125 -3.781250q4.062500 -3.796875 4.062500 -10.343750q0.000000 -6.578125 -4.031250 -10.343750q-4.015625 -3.765625 -11.109375 -3.765625M21.921875 -38.812500q-6.343750 -1.562500 -9.890625 -5.906250q-3.531250 -4.359375 -3.531250 -10.609375q0.000000 -8.734375 6.218750 -13.812500q6.234375 -5.078125 17.062500 -5.078125q10.890625 0.000000 17.093750 5.078125q6.203125 5.078125 6.203125 13.812500q0.000000 6.250000 -3.546875 10.609375q-3.531250 4.343750 -9.828125 5.906250q7.125000 1.656250 11.093750 6.500000q3.984375 4.828125 3.984375 11.796875q0.000000 10.609375 -6.468750 16.281250q-6.468750 5.656250 -18.531250 5.656250q-12.046875 0.000000 -18.531250 -5.656250q-6.468750 -5.671875 -6.468750 -16.281250q0.000000 -6.968750 4.000000 -11.796875q4.015625 -4.843750 11.140625 -6.500000M18.312500 -54.390625q0.000000 5.656250 3.531250 8.828125q3.546875 3.171875 9.937500 3.171875q6.359375 0.000000 9.937500 -3.171875q3.593750 -3.171875 3.593750 -8.828125q0.000000 -5.671875 -3.593750 -8.843750q-3.578125 -3.171875 -9.937500 -3.171875q-6.390625 0.000000 -9.937500 3.171875q-3.531250 3.171875 -3.531250 8.843750"/>
</defs>
<g style="fill: #000000; opacity: 1.000000" transform="translate(418.463750,401.706250)scale(0.120000)">
<use xlink:href="#c_bef35738d52871942e50b9de9b122bab"/>
<use xlink:href="#c_7a2040fe3b94fcd41d0a72c84e93b115" x="63.623047"/>
<use xlink:href="#c_7a2040fe3b94fcd41d0a72c84e93b115" x="127.246094"/>
</g>
</g>
</g>
<g id="xtick6">
<g id="line2d17">
<path style="fill: none; stroke: #000000; stroke-width: 0.500000; stroke-linejoin: round; stroke-linecap: butt; stroke-dasharray: 1.000000,3.000000; stroke-dashoffset: 0.000000; opacity: 1.000000" clip-path="url(#p50431ccdcb28178602d99d9270004dde)" d="M518.400000 388.800000L518.400000 43.200000"/>
</g>
<g id="line2d18">
<g ><use style="fill: none; stroke: #000000; stroke-width: 0.500000; stroke-linejoin: round; stroke-linecap: butt;  opacity: 1.000000" xlink:href="#m30e32995789d870ad79a2e54c91cf9c6" x="518.400000" y="388.800000"/>
</g></g>
<g id="line2d19">
<g ><use style="fill: none; stroke: #000000; stroke-width: 0.500000; stroke-linejoin: round; stroke-linecap: butt;  opacity: 1.000000" xlink:href="#m9281cae24120827b11d5ea8a7ad3e96b" x="518.400000" y="43.200000"/>
</g></g>
<g id="text6">
<defs>
<path id="c_42baa63129a918535c52adb20d687ea7" d="M12.406250 -8.296875l16.109375 0.000000l0.000000 -55.625000l-17.531250 3.515625l0.000000 -8.984375l17.437500 -3.515625l9.859375 0.000000l0.000000 64.609375l16.109375 0.000000l0.000000 8.296875l-41.984375 0.000000z"/>
</defs>
<g style="fill: #000000; opacity: 1.000000" transform="translate(504.173437,401.706250)scale(0.120000)">
<use xlink:href="#c_42baa63129a918535c52adb20d687ea7"/>
<use xlink:href="#c_7a2040fe3b94fcd41d0a72c84e93b115" x="63.623047"/>
<use xlink:href="#c_7a2040fe3b94fcd41d0a72c84e93b115" x="127.246094"/>
<use xlink:href="#c_7a2040fe3b94fcd41d0a72c84e93b115" x="190.869141"/>
</g>
</g>
</g>
</g>
<g id="matplotlib.axis2">
<g id="ytick1">
<g id="line2d20">
<path style="fill: none; stroke: #000000; stroke-width: 0.500000; stroke-linejoin: round; stroke-linecap: butt; stroke-dasharray: 1.000000,3.000000; stroke-dashoffset: 0.000000; opacity: 1.000000" clip-path="url(#p50431ccdcb28178602d99d9270004dde)" d="M72.000000 388.800000L518.400000 388.800000"/>
</g>
<g id="line2d21">
<defs><path id="m3400efa6b1638b3fea9e19e898273957" d="M0.000000 0.000000L4.000000 0.000000"/></defs>
<g ><use style="fill: none; stroke: #000000; stroke-width: 0.500000; stroke-linejoin: round; stroke-linecap: butt;  opacity: 1.000000" xlink:href="#m3400efa6b1638b3fea9e19e898273957" x="72.000000" y="388.800000"/>
</g></g>
<g id="line2d22">
<defs><path id="m20b58b2501143cb5e0a5e8f1ef6f1643" d="M0.000000 0.000000L-4.000000 0.000000"/></defs>
<g ><use style="fill: none; stroke: #000000; stroke-width: 0.500000; stroke-linejoin: round; stroke-linecap: butt;  opacity: 1.000000" xlink:href="#m20b58b2501143cb5e0a5e8f1ef6f1643" x="518.400000" y="388.800000"/>
</g></g>
<g id="text7">
<defs>
<path id="c_ed3e21196fb739f392806f09ca0594ef" d="M10.687500 -12.406250l10.312500 0.000000l0.000000 12.406250l-10.312500 0.000000z"/>
</defs>
<g style="fill: #000000; opacity: 1.000000" transform="translate(43.171875,393.167188)scale(0.120000)">
<use xlink:href="#c_7a2040fe3b94fcd41d0a72c84e93b115"/>
<use xlink:href="#c_ed3e21196fb739f392806f09ca0594ef" x="63.623047"/>
<use xlink:href="#c_7a2040fe3b94fcd41d0a72c84e93b115" x="95.410156"/>
<use xlink:href="#c_42baa63129a918535c52adb20d687ea7" x="159.033203"/>
</g>
</g>
</g>
<g id="ytick2">
<g id="line2d23">
<path style="fill: none; stroke: #000000; stroke-width: 0.500000; stroke-linejoin: round; stroke-linecap: butt; stroke-dasharray: 1.000000,3.000000; stroke-dashoffset: 0.000000; opacity: 1.000000" clip-path="url(#p50431ccdcb28178602d99d9270004dde)" d="M72.000000 331.200000L518.400000 331.200000"/>
</g>
<g id="line2d24">
<g ><use style="fill: none; stroke: #000000; stroke-width: 0.500000; stroke-linejoin: round; stroke-linecap: butt;  opacity: 1.000000" xlink:href="#m3400efa6b1638b3fea9e19e898273957" x="72.000000" y="331.200000"/>
</g></g>
<g id="line2d25">
<g ><use style="fill: none; stroke: #000000; stroke-width: 0.500000; stroke-linejoin: round; stroke-linecap: butt;  opacity: 1.000000" xlink:href="#m20b58b2501143cb5e0a5e8f1ef6f1643" x="518.400000" y="331.200000"/>
</g></g>
<g id="text8">
<g style="fill: #000000; opacity: 1.000000" transform="translate(43.265625,335.567187)scale(0.120000)">
<use xlink:href="#c_7a2040fe3b94fcd41d0a72c84e93b115"/>
<use xlink:href="#c_ed3e21196fb739f392806f09ca0594ef" x="63.623047"/>
<use xlink:href="#c_7a2040fe3b94fcd41d0a72c84e93b115" x="95.410156"/>
<use xlink:href="#c_ed3f3ed3ebfbd18bcb9c012009a68ad1" x="159.033203"/>
</g>
</g>
</g>
<g id="ytick3">
<g id="line2d26">
<path style="fill: none; stroke: #000000; stroke-width: 0.500000; stroke-linejoin: round; stroke-linecap: butt; stroke-dasharray: 1.000000,3.000000; stroke-dashoffset: 0.000000; opacity: 1.000000" clip-path="url(#p50431ccdcb28178602d99d9270004dde)" d="M72.000000 273.600000L518.400000 273.600000"/>
</g>
<g id="line2d27">
<g ><use style="fill: none; stroke: #000000; stroke-width: 0.500000; stroke-linejoin: round; stroke-linecap: butt;  opacity: 1.000000" xlink:href="#m3400efa6b1638b3fea9e19e898273957" x="72.000000" y="273.600000"/>
</g></g>
<g id="line2d28">
<g ><use style="fill: none; stroke: #000000; stroke-width: 0.500000; stroke-linejoin: round; stroke-linecap: butt;  opacity: 1.000000" xlink:href="#m20b58b2501143cb5e0a5e8f1ef6f1643" x="518.400000" y="273.600000"/>
</g></g>
<g id="text9">
<defs>
<path id="c_3dcfa38a02242cb63ec6726c6e70be7a" d="M40.578125 -39.312500q7.078125 1.515625 11.046875 6.312500q3.984375 4.781250 3.984375 11.812500q0.000000 10.781250 -7.421875 16.703125q-7.421875 5.906250 -21.093750 5.906250q-4.578125 0.000000 -9.437500 -0.906250q-4.859375 -0.906250 -10.031250 -2.718750l0.000000 -9.515625q4.093750 2.390625 8.968750 3.609375q4.890625 1.218750 10.218750 1.218750q9.265625 0.000000 14.125000 -3.656250q4.859375 -3.656250 4.859375 -10.640625q0.000000 -6.453125 -4.515625 -10.078125q-4.515625 -3.640625 -12.562500 -3.640625l-8.500000 0.000000l0.000000 -8.109375l8.890625 0.000000q7.265625 0.000000 11.125000 -2.906250q3.859375 -2.906250 3.859375 -8.375000q0.000000 -5.609375 -3.984375 -8.609375q-3.968750 -3.015625 -11.390625 -3.015625q-4.062500 0.000000 -8.703125 0.890625q-4.640625 0.875000 -10.203125 2.718750l0.000000 -8.781250q5.625000 -1.562500 10.531250 -2.343750q4.906250 -0.781250 9.250000 -0.781250q11.234375 0.000000 17.765625 5.109375q6.546875 5.093750 6.546875 13.781250q0.000000 6.062500 -3.468750 10.234375q-3.468750 4.171875 -9.859375 5.781250"/>
</defs>
<g style="fill: #000000; opacity: 1.000000" transform="translate(43.031250,277.967188)scale(0.120000)">
<use xlink:href="#c_7a2040fe3b94fcd41d0a72c84e93b115"/>
<use xlink:href="#c_ed3e21196fb739f392806f09ca0594ef" x="63.623047"/>
<use xlink:href="#c_7a2040fe3b94fcd41d0a72c84e93b115" x="95.410156"/>
<use xlink:href="#c_3dcfa38a02242cb63ec6726c6e70be7a" x="159.033203"/>
</g>
</g>
</g>
<g id="ytick4">
<g id="line2d29">
<path style="fill: none; stroke: #000000; stroke-width: 0.500000; stroke-linejoin: round; stroke-linecap: butt; stroke-dasharray: 1.000000,3.000000; stroke-dashoffset: 0.000000; opacity: 1.000000" clip-path="url(#p50431ccdcb28178602d99d9270004dde)" d="M72.000000 216.000000L518.400000 216.000000"/>
</g>
<g id="line2d30">
<g ><use style="fill: none; stroke: #000000; stroke-width: 0.500000; stroke-linejoin: round; stroke-linecap: butt;  opacity: 1.000000" xlink:href="#m3400efa6b1638b3fea9e19e898273957" x="72.000000" y="216.000000"/>
</g></g>
<g id="line2d31">
<g ><use style="fill: none; stroke: #000000; stroke-width: 0.500000; stroke-linejoin: round; stroke-linecap: butt;  opacity: 1.000000" xlink:href="#m20b58b2501143cb5e0a5e8f1ef6f1643" x="518.400000" y="216.000000"/>
</g></g>
<g id="text10">
<g style="fill: #000000; opacity: 1.000000" transform="translate(42.734375,220.367188)scale(0.120000)">
<use xlink:href="#c_7a2040fe3b94fcd41d0a72c84e93b115"/>
<use xlink:href="#c_ed3e21196fb739f392806f09ca0594ef" x="63.623047"/>
<use xlink:href="#c_7a2040fe3b94fcd41d0a72c84e93b115" x="95.410156"/>
<use xlink:href="#c_a0416418d96557a09b8c1332d34883ba" x="159.033203"/>
</g>
</g>
</g>
<g id="ytick5">
<g id="line2d32">
<path style="fill: none; stroke: #000000; stroke-width: 0.500000; stroke-linejoin: round; stroke-linecap: butt; stroke-dasharray: 1.000000,3.000000; stroke-dashoffset: 0.000000; opacity: 1.000000" clip-path="url(#p50431ccdcb28178602d99d9270004dde)" d="M72.000000 158.400000L518.400000 158.400000"/>
</g>
<g id="line2d33">
<g ><use style="fill: none; stroke: #000000; stroke-width: 0.500000; stroke-linejoin: round; stroke-linecap: butt;  opacity: 1.000000" xlink:href="#m3400efa6b1638b3fea9e19e898273957" x="72.000000" y="158.400000"/>
</g></g>
<g id="line2d34">
<g ><use style="fill: none; stroke: #000000; stroke-width: 0.500000; stroke-linejoin: round; stroke-linecap: butt;  opacity: 1.000000" xlink:href="#m20b58b2501143cb5e0a5e8f1ef6f1643" x="518.400000" y="158.400000"/>
</g></g>
<g id="text11">
<defs>
<path id="c_1260a2df50f305f3db244e29828f968e" d="M10.796875 -72.906250l38.718750 0.000000l0.000000 8.312500l-29.687500 0.000000l0.000000 17.859375q2.140625 -0.734375 4.281250 -1.093750q2.156250 -0.359375 4.312500 -0.359375q12.203125 0.000000 19.328125 6.687500q7.140625 6.687500 7.140625 18.109375q0.000000 11.765625 -7.328125 18.296875q-7.328125 6.515625 -20.656250 6.515625q-4.593750 0.000000 -9.359375 -0.781250q-4.750000 -0.781250 -9.828125 -2.343750l0.000000 -9.921875q4.390625 2.390625 9.078125 3.562500q4.687500 1.171875 9.906250 1.171875q8.453125 0.000000 13.375000 -4.437500q4.937500 -4.437500 4.937500 -12.062500q0.000000 -7.609375 -4.937500 -12.046875q-4.921875 -4.453125 -13.375000 -4.453125q-3.953125 0.000000 -7.890625 0.875000q-3.921875 0.875000 -8.015625 2.734375z"/>
</defs>
<g style="fill: #000000; opacity: 1.000000" transform="translate(43.109375,162.767187)scale(0.120000)">
<use xlink:href="#c_7a2040fe3b94fcd41d0a72c84e93b115"/>
<use xlink:href="#c_ed3e21196fb739f392806f09ca0594ef" x="63.623047"/>
<use xlink:href="#c_7a2040fe3b94fcd41d0a72c84e93b115" x="95.410156"/>
<use xlink:href="#c_1260a2df50f305f3db244e29828f968e" x="159.033203"/>
</g>
</g>
</g>
<g id="ytick6">
<g id="line2d35">
<path style="fill: none; stroke: #000000; stroke-width: 0.500000; stroke-linejoin: round; stroke-linecap: butt; stroke-dasharray: 1.000000,3.000000; stroke-dashoffset: 0.000000; opacity: 1.000000" clip-path="url(#p50431ccdcb28178602d99d9270004dde)" d="M72.000000 100.800000L518.400000 100.800000"/>
</g>
<g id="line2d36">
<g ><use style="fill: none; stroke: #000000; stroke-width: 0.500000; stroke-linejoin: round; stroke-linecap: butt;  opacity: 1.000000" xlink:href="#m3400efa6b1638b3fea9e19e898273957" x="72.000000" y="100.800000"/>
</g></g>
<g id="line2d37">
<g ><use style="fill: none; stroke: #000000; stroke-width: 0.500000; stroke-linejoin: round; stroke-linecap: butt;  opacity: 1.000000" xlink:href="#m20b58b2501143cb5e0a5e8f1ef6f1643" x="518.400000" y="100.800000"/>
</g></g>
<g id="text12">
<g style="fill: #000000; opacity: 1.000000" transform="translate(42.828125,105.167187)scale(0.120000)">
<use xlink:href="#c_7a2040fe3b94fcd41d0a72c84e93b115"/>
<use xlink:href="#c_ed3e21196fb739f392806f09ca0594ef" x="63.623047"/>
<use xlink:href="#c_7a2040fe3b94fcd41d0a72c84e93b115" x="95.410156"/>
<use xlink:href="#c_cc8d6d580d1b10c8632f7a42cd53db8a" x="159.033203"/>
</g>
</g>
</g>
<g id="ytick7">
<g id="line2d38">
<path style="fill: none; stroke: #000000; stroke-width: 0.500000; stroke-linejoin: round; stroke-linecap: butt; stroke-dasharray: 1.000000,3.000000; stroke-dashoffset: 0.000000; opacity: 1.000000" clip-path="url(#p50431ccdcb28178602d99d9270004dde)" d="M72.000000 43.200000L518.400000 43.200000"/>
</g>
<g id="line2d39">
<g ><use style="fill: none; stroke: #000000; stroke-width: 0.500000; stroke-linejoin: round; stroke-linecap: butt;  opacity: 1.000000" xlink:href="#m3400efa6b1638b3fea9e19e898273957" x="72.000000" y="43.200000"/>
</g></g>
<g id="line2d40">
<g ><use style="fill: none; stroke: #000000; stroke-width: 0.500000; stroke-linejoin: round; stroke-linecap: butt;  opacity: 1.000000" xlink:href="#m20b58b2501143cb5e0a5e8f1ef6f1643" x="518.400000" y="43.200000"/>
</g></g>
<g id="text13">
<defs>
<path id="c_956f18cfdaf972f35a6c2b4aaac2532b" d="M8.203125 -72.906250l46.875000 0.000000l0.000000 4.203125l-26.468750 68.703125l-10.296875 0.000000l24.906250 -64.593750l-35.015625 0.000000z"/>
</defs>
<g style="fill: #000000; opacity: 1.000000" transform="translate(43.093750,47.567187)scale(0.120000)">
<use xlink:href="#c_7a2040fe3b94fcd41d0a72c84e93b115"/>
<use xlink:href="#c_ed3e21196fb739f392806f09ca0594ef" x="63.623047"/>
<use xlink:href="#c_7a2040fe3b94fcd41d0a72c84e93b115" x="95.410156"/>
<use xlink:href="#c_956f18cfdaf972f35a6c2b4aaac2532b" x="159.033203"/>
</g>
</g>
</g>
</g>
<g id="patch3">
<path style="fill: none; stroke: #000000; stroke-width: 1.000000; stroke-linejoin: round; stroke-linecap: square;  opacity: 1.000000"  d="M72.000000 43.200000L518.400000 43.200000"/>
</g>
<g id="patch4">
<path style="fill: none; stroke: #000000; stroke-width: 1.000000; stroke-linejoin: round; stroke-linecap: square;  opacity: 1.000000"  d="M518.400000 388.800000L518.400000 43.200000"/>
</g>
<g id="patch5">
<path style="fill: none; stroke: #000000; stroke-width: 1.000000; stroke-linejoin: round; stroke-linecap: square;  opacity: 1.000000"  d="M72.000000 388.800000L518.400000 388.800000"/>
</g>
<g id="patch6">
<path style="fill: none; stroke: #000000; stroke-width: 1.000000; stroke-linejoin: round; stroke-linecap: square;  opacity: 1.000000"  d="M72.000000 388.800000L72.000000 43.200000"/>
</g>
</g>
</g>
</svg>
