<?xml version="1.0" standalone="no"?>
<!DOCTYPE svg PUBLIC "-//W3C//DTD SVG 1.1//EN"
  "http://www.w3.org/Graphics/SVG/1.1/DTD/svg11.dtd">
<!-- Created with matplotlib (http://matplotlib.sourceforge.net/) -->
<svg width="576pt" height="432pt" viewBox="0 0 576 432"
   xmlns="http://www.w3.org/2000/svg"
   xmlns:xlink="http://www.w3.org/1999/xlink"
   version="1.1"
   id="svg1">
<g id="figure1">
<g id="patch1">
<path style="fill: #ffffff; stroke: #ffffff; stroke-width: 1.000000; stroke-linejoin: round; stroke-linecap: square;  opacity: 1.000000"  d="M0.000000 432.000000L576.000000 432.000000L576.000000 0.000000
L0.000000 0.000000L0.000000 432.000000"/>
</g>
<g id="axes1">
<g id="patch2">
<path style="fill: #ffffff; opacity: 1.000000"  d="M72.000000 388.800000L518.400000 388.800000L518.400000 43.200000
L72.000000 43.200000L72.000000 388.800000"/>
</g>
<g id="line2d1">
<defs>
  <clipPath id="p50431ccdcb28178602d99d9270004dde">
<rect x="72.000000" y="43.200000" width="446.400000" height="345.600000"/>
  </clipPath>
</defs><path style="fill: none; stroke: #ff0000; stroke-width: 1.000000; stroke-linejoin: round; stroke-linecap: square;  opacity: 1.000000" clip-path="url(#p50431ccdcb28178602d99d9270004dde)" d="M72.000000 309.003110L72.446400 181.057728L72.892800 296.416320
L73.339200 286.812154L74.232000 348.673805L74.678400 307.872173
L75.124800 306.129542L75.571200 291.736819L76.464000 299.369645
L76.910400 297.178426L77.356800 333.636710L77.803200 303.817210
L78.249600 308.415610L78.696000 305.103936L79.142400 286.317043
L79.588800 341.654899L80.035200 353.626694L80.481600 297.466522
L80.928000 308.713958L81.374400 353.733466L82.713600 283.811539
L83.160000 345.835949L83.606400 354.781901L84.499200 351.423187
L84.945600 329.601062L86.284800 354.522144L87.624000 334.125427
L88.070400 337.707898L88.516800 345.224851L88.963200 305.480602
L89.409600 356.508998L89.856000 308.280000L90.302400 351.462125
L91.195200 352.751846L91.641600 289.894810L92.534400 356.088403
L93.427200 351.616166L93.873600 323.407814L94.320000 352.967059
L94.766400 333.637632L95.212800 353.305920L96.552000 346.672301
L96.998400 353.196058L98.337600 354.239693L99.230400 306.626362
L99.676800 338.454739L100.569600 353.733734L101.462400 308.868230
L102.355200 343.622861L102.801600 353.710118L103.694400 334.599917
L104.587200 353.113901L105.033600 276.822048L105.480000 353.793562
L105.926400 349.265933L106.372800 315.097171L106.819200 352.492397
L107.265600 330.221798L107.712000 355.790515L108.158400 352.842144
L109.051200 318.603859L109.944000 355.886707L111.283200 344.225549
L111.729600 339.667814L112.176000 351.919987L112.622400 342.132442
L113.068800 353.795923L113.515200 336.902150L113.961600 352.012800
L114.408000 334.482010L114.854400 353.162534L115.300800 347.879251
L115.747200 334.418630L116.640000 352.654522L117.086400 333.897946
L118.425600 340.796429L118.872000 355.524845L119.318400 352.917331
L120.211200 350.785805L120.657600 352.724122L121.104000 338.229562
L121.996800 353.144602L122.443200 302.356550L123.782400 352.151059
L124.228800 333.412550L124.675200 356.282054L125.121600 352.760506
L125.568000 319.795738L126.014400 352.736986L126.907200 324.724474
L127.353600 352.633133L127.800000 332.539200L128.246400 353.773632
L128.692800 347.353805L129.139200 352.291987L130.032000 357.094810
L130.478400 352.786214L131.371200 354.021504L131.817600 348.393446
L132.264000 356.562778L133.603200 345.554458L134.049600 355.430995
L135.388800 347.142298L135.835200 341.874720L136.281600 311.981030
L136.728000 353.028883L137.174400 347.406125L137.620800 356.729338
L138.067200 352.528570L138.513600 338.667091L139.406400 356.989478
L139.852800 349.839130L140.299200 351.865997L140.745600 346.619347
L141.192000 355.377370L142.531200 345.940205L142.977600 356.415283
L144.316800 344.075443L145.209600 353.662579L145.656000 337.164845
L146.102400 354.050208L146.548800 334.724966L147.441600 353.730720
L148.334400 332.975558L148.780800 353.112077L150.120000 342.578650
L150.566400 352.865338L151.905600 348.909082L152.352000 334.682131
L152.798400 351.864634L153.244800 348.259411L153.691200 356.279558
L155.030400 343.943866L155.476800 354.377011L156.816000 345.941971
L157.262400 357.276384L157.708800 337.824998L158.155200 336.035174
L158.601600 351.512928L159.048000 338.381894L159.494400 344.463552
L159.940800 339.175814L160.387200 337.987430L161.280000 353.297664
L161.726400 333.906624L162.172800 354.089606L163.065600 342.636230
L163.512000 353.737805L164.404800 334.310957L165.297600 352.471066
L165.744000 114.123533L166.190400 353.932243L166.636800 351.388819
L167.083200 335.334259L167.976000 353.365939L168.422400 338.091859
L168.868800 352.701715L169.761600 332.869498L170.208000 353.544019
L171.547200 345.979565L171.993600 353.692435L172.886400 331.476518
L173.332800 354.995002L173.779200 351.964627L174.672000 348.893165
L175.118400 340.390214L175.564800 351.763565L176.011200 339.619008
L176.457600 356.250394L176.904000 351.916224L177.350400 326.593018
L177.796800 353.541139L178.689600 319.245600L179.136000 315.118502
L180.028800 352.318042L180.475200 318.176467L180.921600 351.118042
L181.814400 332.998733L183.153600 342.430771L183.600000 352.327661
L184.046400 307.876243L184.492800 352.130688L185.385600 338.809190
L185.832000 353.398752L186.278400 270.482323L186.724800 353.194349
L187.617600 337.292582L188.064000 353.314003L189.403200 333.285293
L189.849600 353.239814L191.635200 332.120390L192.081600 356.298739
L192.528000 333.907834L192.974400 329.474842L193.420800 351.528634
L193.867200 313.995130L194.313600 352.603123L194.760000 330.556781
L195.206400 355.791130L196.099200 327.269357L196.545600 352.398643
L196.992000 329.186976L197.438400 356.810093L197.884800 319.596230
L198.331200 351.851654L199.224000 350.287814L199.670400 339.183091
L200.116800 356.739840L200.563200 338.893421L201.456000 355.931635
L201.902400 353.185421L202.348800 334.166438L202.795200 355.174368
L203.241600 352.403040L203.688000 338.687482L204.134400 355.590086
L204.580800 352.557562L205.473600 337.845946L205.920000 356.525933
L206.366400 350.245421L206.812800 327.532858L207.259200 355.885574
L207.705600 350.730835L208.152000 335.268019L208.598400 355.724698
L209.044800 352.237382L209.491200 332.458522L209.937600 351.876941
L210.384000 352.918003L211.276800 348.762221L211.723200 354.210528
L213.062400 347.515680L213.508800 354.159245L213.955200 338.706336
L214.401600 354.153581L215.294400 351.446362L215.740800 346.137485
L216.187200 353.339059L217.526400 353.547110L218.865600 341.547744
L219.312000 353.591213L220.204800 331.133933L220.651200 354.132595
L221.097600 352.060762L221.544000 329.277965L221.990400 353.640173
L222.883200 335.554944L223.776000 353.356723L224.222400 347.534227
L224.668800 352.768186L225.561600 331.507430L226.008000 353.891213
L226.454400 352.322765L226.900800 335.783539L227.347200 353.770176
L228.686400 347.449613L229.132800 338.683200L229.579200 340.103174
L230.025600 351.387494L230.472000 352.424218L231.364800 317.712595
L231.811200 351.315821L232.257600 334.291334L232.704000 340.280909
L233.150400 352.954445L233.596800 343.030752L234.043200 355.623821
L236.275200 336.967200L236.721600 355.402694L237.614400 350.925677
L238.060800 251.869056L238.507200 351.218150L238.953600 335.561952
L239.400000 354.790733L239.846400 337.713082L240.739200 352.439117
L241.632000 341.604749L242.078400 352.362566L242.524800 350.324544
L243.417600 353.919994L243.864000 338.363597L244.310400 353.376768
L245.203200 333.852557L245.649600 353.929920L246.542400 331.957344
L246.988800 353.515642L247.881600 330.675130L248.328000 353.311450
L248.774400 315.401030L249.220800 353.692397L250.113600 336.187622
L250.560000 353.432429L251.899200 338.782579L252.345600 340.097261
L252.792000 353.202317L254.131200 303.825965L255.024000 356.267117
L256.363200 345.889286L256.809600 355.375853L257.256000 352.790227
L257.702400 330.648230L258.148800 356.722522L258.595200 352.680115
L259.041600 334.940563L259.488000 356.186131L259.934400 351.879821
L260.380800 331.640390L260.827200 352.373645L261.273600 338.474016
L262.166400 353.794464L263.059200 323.332435L263.505600 352.838515
L264.398400 350.492621L264.844800 353.420582L265.737600 333.672922
L266.184000 352.931731L266.630400 331.733453L267.076800 352.881811
L268.416000 320.698061L268.862400 349.753267L269.308800 335.457024
L269.755200 353.926406L270.201600 350.040403L270.648000 353.617632
L271.094400 333.550829L271.540800 334.892179L271.987200 337.786925
L272.880000 354.709171L273.326400 352.834349L273.772800 319.220640
L274.219200 353.102189L274.665600 317.586086L275.558400 353.039213
L276.897600 329.715110L277.344000 353.437594L277.790400 338.832672
L278.236800 353.025542L279.576000 340.689427L280.022400 353.143181
L280.915200 342.276000L281.361600 353.052499L282.254400 332.729990
L282.700800 352.522752L283.593600 333.541805L284.040000 354.235123
L284.932800 331.377677L285.379200 337.889491L285.825600 333.694829
L286.272000 354.857184L286.718400 339.769248L287.611200 353.419085
L288.504000 340.707494L288.950400 353.855635L289.843200 332.993126
L290.289600 353.940288L291.182400 332.134464L291.628800 353.379590
L292.075200 335.143718L292.521600 352.664525L292.968000 334.233773
L293.414400 352.687469L293.860800 337.991328L294.307200 351.018739
L294.753600 353.066304L295.200000 335.027232L295.646400 353.711942
L296.985600 334.680134L297.432000 350.613907L298.324800 351.614458
L298.771200 333.664723L299.217600 352.766880L300.556800 336.902592
L301.003200 352.361050L301.449600 322.205894L301.896000 352.798003
L302.342400 331.961069L302.788800 355.729862L303.235200 333.153024
L304.128000 356.318918L304.574400 352.405325L305.020800 333.482400
L305.467200 353.247398L305.913600 333.000480L306.360000 351.496205
L307.252800 336.349709L307.699200 356.077824L308.592000 352.071667
L309.038400 341.512186L309.484800 356.140550L309.931200 337.429229
L310.824000 353.351789L311.270400 351.211008L311.716800 339.405600
L312.163200 353.154048L312.609600 337.911802L313.502400 353.969645
L313.948800 351.484397L314.395200 340.336493L314.841600 355.559347
L315.288000 352.927315L315.734400 337.553280L316.180800 355.598362
L316.627200 352.289683L317.073600 329.896320L317.520000 351.510758
L317.966400 353.459174L318.412800 340.098029L318.859200 314.827123
L319.305600 352.465805L319.752000 333.951302L320.198400 352.214669
L321.537600 336.130541L321.984000 355.484198L322.430400 351.615917
L322.876800 318.599693L323.323200 353.415667L323.769600 352.405248
L324.216000 340.627181L324.662400 351.952800L325.555200 342.369504
L326.001600 354.092275L326.894400 332.463590L327.340800 353.582189
L328.233600 331.943251L328.680000 353.989248L330.019200 337.795469
L330.465600 352.504397L331.358400 353.615789L331.804800 341.131488
L332.251200 353.870035L333.144000 339.378451L333.590400 353.321741
L334.483200 319.597709L334.929600 353.463245L335.822400 338.140762
L336.715200 352.807699L337.608000 327.359654L338.947200 352.617293
L339.393600 353.748000L339.840000 334.111066L340.286400 352.521235
L340.732800 353.569843L341.179200 341.245517L341.625600 353.389766
L342.964800 341.787802L343.411200 352.574035L343.857600 354.232243
L344.304000 314.005133L344.750400 352.913395L345.196800 318.635808
L345.643200 353.475840L346.089600 333.256397L346.536000 352.747181
L346.982400 319.022765L347.428800 353.186477L347.875200 338.890714
L348.321600 337.483296L348.768000 352.797101L349.660800 332.714650
L350.107200 352.491533L350.553600 337.780474L351.000000 347.818541
L351.446400 339.623597L351.892800 318.311424L352.339200 353.413747
L352.785600 310.796352L353.232000 353.375654L353.678400 330.473798
L354.124800 353.898586L355.017600 331.154765L355.464000 353.505869
L356.356800 336.619699L356.803200 353.282861L357.696000 331.945133
L358.142400 353.589581L358.588800 333.904147L359.481600 353.344877
L359.928000 350.659699L360.374400 239.811437L360.820800 339.319872
L361.713600 354.299290L362.160000 352.955693L362.606400 354.703949
L363.052800 338.891712L363.499200 337.593754L363.945600 344.802067
L364.838400 333.063341L365.284800 353.430720L365.731200 338.389114
L366.624000 353.984909L367.516800 335.939808L367.963200 353.024621
L368.409600 350.782982L368.856000 352.537843L370.195200 352.854259
L370.641600 337.774464L371.088000 353.451130L371.980800 350.205638
L372.427200 353.212109L373.320000 329.876813L373.766400 352.059667
L374.212800 353.315405L374.659200 340.594464L375.105600 354.382541
L375.998400 338.288851L376.444800 354.480710L376.891200 332.262586
L377.337600 338.224877L377.784000 352.660512L378.676800 338.923066
L379.123200 352.881581L380.016000 338.820672L380.462400 353.458483
L380.908800 351.155789L381.355200 333.318106L381.801600 353.699347
L382.694400 332.779565L383.140800 339.471686L383.587200 332.677190
L384.033600 354.046118L384.480000 351.862598L384.926400 332.616288
L385.372800 354.314112L386.712000 77.745888L387.158400 336.259334
L387.604800 353.865235L388.051200 339.472397L388.497600 353.562298
L389.390400 340.618176L389.836800 320.907648L390.283200 352.149235
L390.729600 342.703930L391.176000 354.110093L392.068800 308.981472
L392.515200 353.593958L392.961600 348.648730L393.408000 353.570611
L394.300800 336.875251L395.193600 313.588742L396.086400 354.138125
L396.979200 332.646202L397.425600 353.093914L398.318400 332.260205
L398.764800 337.365350L399.211200 352.163482L399.657600 353.516198
L400.550400 332.257229L400.996800 354.482861L401.443200 353.283898
L401.889600 336.303130L402.336000 338.445600L402.782400 354.099475
L403.675200 338.327693L404.121600 353.216813L405.460800 340.170989
L405.907200 353.056051L406.353600 338.337677L407.246400 353.856845
L408.139200 339.631910L408.585600 352.609901L409.032000 334.264474
L409.478400 351.322118L409.924800 353.519635L410.817600 331.446317
L411.264000 352.682707L411.710400 353.774227L412.603200 334.957306
L413.049600 353.967802L413.496000 348.640358L413.942400 353.485997
L414.835200 333.146918L415.281600 353.239373L416.174400 331.870598
L416.620800 354.254266L417.067200 338.536646L418.406400 353.609875
L418.852800 338.814336L419.299200 351.786547L419.745600 353.149555
L420.638400 341.370758L421.084800 353.538835L421.977600 329.282227
L422.424000 353.628806L423.316800 334.798790L423.763200 352.745280
L424.656000 315.559296L425.102400 339.259411L425.548800 301.555718
L425.995200 353.410061L427.334400 353.943590L428.227200 348.864614
L428.673600 354.138010L429.566400 351.621062L430.459200 353.780602
L431.798400 348.862291L432.244800 352.441306L433.137600 332.251066
L433.584000 354.063917L434.476800 331.260864L434.923200 353.650445
L435.816000 350.574259L436.262400 334.836365L437.155200 353.656742
L437.601600 352.505606L438.048000 325.321574L438.494400 353.514336
L439.387200 336.821626L439.833600 352.852608L440.280000 334.050643
L440.726400 352.751136L441.619200 333.964109L442.065600 353.860474
L443.404800 353.557229L443.851200 337.088083L444.297600 353.202336
L445.636800 323.132966L446.083200 338.385082L446.976000 333.459706
L447.422400 351.212582L447.868800 347.309587L448.315200 352.925875
L449.208000 332.288659L449.654400 352.637587L450.547200 332.960333
L451.440000 335.900390L451.886400 352.762426L452.332800 354.305894
L452.779200 332.469677L453.225600 354.340973L453.672000 338.282918
L454.564800 354.290419L455.457600 336.563770L455.904000 339.751546
L456.350400 301.469894L457.243200 353.501011L457.689600 352.050451
L458.582400 322.807584L459.028800 339.523104L459.921600 354.128717
L460.368000 351.303072L460.814400 337.182874L461.260800 353.397389
L462.153600 331.938278L462.600000 353.316346L463.492800 345.782285
L463.939200 354.152141L464.832000 314.599238L465.278400 319.087315
L465.724800 353.404723L466.617600 334.942963L467.064000 338.512589
L467.510400 352.690829L467.956800 341.240621L468.403200 354.114355
L468.849600 352.930829L469.296000 331.189670L469.742400 353.155296
L470.635200 333.661267L471.081600 353.662829L471.974400 334.110893
L472.420800 354.064742L472.867200 319.138560L473.313600 354.201331
L474.652800 350.469408L475.099200 352.966925L475.992000 338.940192
L476.438400 354.237101L477.331200 338.551987L477.777600 353.939136
L478.224000 334.783680L479.116800 354.191366L480.009600 346.960186
L480.456000 353.943821L481.348800 330.938554L481.795200 353.736480
L482.688000 339.860698L483.134400 353.900371L484.027200 331.534080
L484.473600 353.990880L484.920000 332.256787L485.366400 352.377446
L486.705600 335.847725L487.152000 353.607571L488.044800 340.683878
L488.491200 354.773491L488.937600 351.719846L489.384000 332.539507
L489.830400 354.402374L490.276800 352.148218L490.723200 339.657754
L491.169600 338.270880L491.616000 334.032326L492.062400 353.557517
L492.508800 339.209376L493.401600 351.865997L493.848000 337.578010
L494.294400 350.797190L495.187200 354.121786L495.633600 337.658554
L496.080000 352.824269L496.526400 338.508115L496.972800 336.231053
L497.419200 354.388147L497.865600 324.187334L498.312000 353.437901
L499.204800 340.308922L499.651200 353.362925L500.097600 351.325766
L500.544000 320.804064L501.436800 352.859827L502.776000 352.264646
L503.222400 353.927059L503.668800 326.992934L505.008000 353.382202
L505.900800 331.782854L506.347200 352.839206L507.240000 339.407981
L507.686400 352.443686L508.579200 332.344320L509.025600 353.217408
L509.918400 102.342086L510.364800 353.659469L511.257600 330.116141
L511.704000 353.515219L512.150400 338.022086L512.596800 351.798912
L513.043200 353.638291L513.936000 329.548877L514.382400 338.696179
L514.828800 327.634426L515.275200 338.691571L515.721600 332.673638
L516.168000 352.451558L517.507200 334.974413L517.953600 332.510035
L517.953600 332.510035"/>
</g>
<g id="matplotlib.axis1">
<g id="xtick1">
<g id="line2d2">
<path style="fill: none; stroke: #000000; stroke-width: 0.500000; stroke-linejoin: round; stroke-linecap: butt; stroke-dasharray: 1.000000,3.000000; stroke-dashoffset: 0.000000; opacity: 1.000000" clip-path="url(#p50431ccdcb28178602d99d9270004dde)" d="M72.000000 388.800000L72.000000 43.200000"/>
</g>
<g id="line2d3">
<defs><path id="m30e32995789d870ad79a2e54c91cf9c6" d="M0.000000 0.000000L0.000000 -4.000000"/></defs>
<g ><use style="fill: none; stroke: #000000; stroke-width: 0.500000; stroke-linejoin: round; stroke-linecap: butt;  opacity: 1.000000" xlink:href="#m30e32995789d870ad79a2e54c91cf9c6" x="72.000000" y="388.800000"/>
</g></g>
<g id="line2d4">
<defs><path id="m9281cae24120827b11d5ea8a7ad3e96b" d="M0.000000 0.000000L0.000000 4.000000"/></defs>
<g ><use style="fill: none; stroke: #000000; stroke-width: 0.500000; stroke-linejoin: round; stroke-linecap: butt;  opacity: 1.000000" xlink:href="#m9281cae24120827b11d5ea8a7ad3e96b" x="72.000000" y="43.200000"/>
</g></g>
<g id="text1">
<defs>
<path id="c_7a2040fe3b94fcd41d0a72c84e93b115" d="M31.781250 -66.406250q-7.609375 0.000000 -11.453125 7.500000q-3.828125 7.484375 -3.828125 22.531250q0.000000 14.984375 3.828125 22.484375q3.843750 7.500000 11.453125 7.500000q7.671875 0.000000 11.500000 -7.500000q3.843750 -7.500000 3.843750 -22.484375q0.000000 -15.046875 -3.843750 -22.531250q-3.828125 -7.500000 -11.500000 -7.500000M31.781250 -74.218750q12.265625 0.000000 18.734375 9.703125q6.468750 9.687500 6.468750 28.140625q0.000000 18.406250 -6.468750 28.109375q-6.468750 9.687500 -18.734375 9.687500q-12.250000 0.000000 -18.718750 -9.687500q-6.468750 -9.703125 -6.468750 -28.109375q0.000000 -18.453125 6.468750 -28.140625q6.468750 -9.703125 18.718750 -9.703125"/>
</defs>
<g style="fill: #000000; opacity: 1.000000" transform="translate(68.976562,401.706250)scale(0.120000)">
<use xlink:href="#c_7a2040fe3b94fcd41d0a72c84e93b115"/>
</g>
</g>
</g>
<g id="xtick2">
<g id="line2d5">
<path style="fill: none; stroke: #000000; stroke-width: 0.500000; stroke-linejoin: round; stroke-linecap: butt; stroke-dasharray: 1.000000,3.000000; stroke-dashoffset: 0.000000; opacity: 1.000000" clip-path="url(#p50431ccdcb28178602d99d9270004dde)" d="M161.280000 388.800000L161.280000 43.200000"/>
</g>
<g id="line2d6">
<g ><use style="fill: none; stroke: #000000; stroke-width: 0.500000; stroke-linejoin: round; stroke-linecap: butt;  opacity: 1.000000" xlink:href="#m30e32995789d870ad79a2e54c91cf9c6" x="161.280000" y="388.800000"/>
</g></g>
<g id="line2d7">
<g ><use style="fill: none; stroke: #000000; stroke-width: 0.500000; stroke-linejoin: round; stroke-linecap: butt;  opacity: 1.000000" xlink:href="#m9281cae24120827b11d5ea8a7ad3e96b" x="161.280000" y="43.200000"/>
</g></g>
<g id="text2">
<defs>
<path id="c_ed3f3ed3ebfbd18bcb9c012009a68ad1" d="M19.187500 -8.296875l34.421875 0.000000l0.000000 8.296875l-46.281250 0.000000l0.000000 -8.296875q5.609375 -5.812500 15.296875 -15.593750q9.703125 -9.796875 12.187500 -12.640625q4.734375 -5.312500 6.609375 -9.000000q1.890625 -3.687500 1.890625 -7.250000q0.000000 -5.812500 -4.078125 -9.468750q-4.078125 -3.671875 -10.625000 -3.671875q-4.640625 0.000000 -9.796875 1.609375q-5.140625 1.609375 -11.000000 4.890625l0.000000 -9.968750q5.953125 -2.390625 11.125000 -3.609375q5.187500 -1.218750 9.484375 -1.218750q11.328125 0.000000 18.062500 5.671875q6.734375 5.656250 6.734375 15.125000q0.000000 4.500000 -1.687500 8.531250q-1.671875 4.015625 -6.125000 9.484375q-1.218750 1.421875 -7.765625 8.187500q-6.531250 6.765625 -18.453125 18.921875"/>
</defs>
<g style="fill: #000000; opacity: 1.000000" transform="translate(150.655000,401.706250)scale(0.120000)">
<use xlink:href="#c_ed3f3ed3ebfbd18bcb9c012009a68ad1"/>
<use xlink:href="#c_7a2040fe3b94fcd41d0a72c84e93b115" x="63.623047"/>
<use xlink:href="#c_7a2040fe3b94fcd41d0a72c84e93b115" x="127.246094"/>
</g>
</g>
</g>
<g id="xtick3">
<g id="line2d8">
<path style="fill: none; stroke: #000000; stroke-width: 0.500000; stroke-linejoin: round; stroke-linecap: butt; stroke-dasharray: 1.000000,3.000000; stroke-dashoffset: 0.000000; opacity: 1.000000" clip-path="url(#p50431ccdcb28178602d99d9270004dde)" d="M250.560000 388.800000L250.560000 43.200000"/>
</g>
<g id="line2d9">
<g ><use style="fill: none; stroke: #000000; stroke-width: 0.500000; stroke-linejoin: round; stroke-linecap: butt;  opacity: 1.000000" xlink:href="#m30e32995789d870ad79a2e54c91cf9c6" x="250.560000" y="388.800000"/>
</g></g>
<g id="line2d10">
<g ><use style="fill: none; stroke: #000000; stroke-width: 0.500000; stroke-linejoin: round; stroke-linecap: butt;  opacity: 1.000000" xlink:href="#m9281cae24120827b11d5ea8a7ad3e96b" x="250.560000" y="43.200000"/>
</g></g>
<g id="text3">
<defs>
<path id="c_a0416418d96557a09b8c1332d34883ba" d="M37.796875 -64.312500l-24.906250 38.921875l24.906250 0.000000zM35.203125 -72.906250l12.406250 0.000000l0.000000 47.515625l10.406250 0.000000l0.000000 8.203125l-10.406250 0.000000l0.000000 17.187500l-9.812500 0.000000l0.000000 -17.187500l-32.906250 0.000000l0.000000 -9.515625z"/>
</defs>
<g style="fill: #000000; opacity: 1.000000" transform="translate(239.794375,401.706250)scale(0.120000)">
<use xlink:href="#c_a0416418d96557a09b8c1332d34883ba"/>
<use xlink:href="#c_7a2040fe3b94fcd41d0a72c84e93b115" x="63.623047"/>
<use xlink:href="#c_7a2040fe3b94fcd41d0a72c84e93b115" x="127.246094"/>
</g>
</g>
</g>
<g id="xtick4">
<g id="line2d11">
<path style="fill: none; stroke: #000000; stroke-width: 0.500000; stroke-linejoin: round; stroke-linecap: butt; stroke-dasharray: 1.000000,3.000000; stroke-dashoffset: 0.000000; opacity: 1.000000" clip-path="url(#p50431ccdcb28178602d99d9270004dde)" d="M339.840000 388.800000L339.840000 43.200000"/>
</g>
<g id="line2d12">
<g ><use style="fill: none; stroke: #000000; stroke-width: 0.500000; stroke-linejoin: round; stroke-linecap: butt;  opacity: 1.000000" xlink:href="#m30e32995789d870ad79a2e54c91cf9c6" x="339.840000" y="388.800000"/>
</g></g>
<g id="line2d13">
<g ><use style="fill: none; stroke: #000000; stroke-width: 0.500000; stroke-linejoin: round; stroke-linecap: butt;  opacity: 1.000000" xlink:href="#m9281cae24120827b11d5ea8a7ad3e96b" x="339.840000" y="43.200000"/>
</g></g>
<g id="text4">
<defs>
<path id="c_cc8d6d580d1b10c8632f7a42cd53db8a" d="M33.015625 -40.375000q-6.640625 0.000000 -10.531250 4.546875q-3.875000 4.531250 -3.875000 12.437500q0.000000 7.859375 3.875000 12.437500q3.890625 4.562500 10.531250 4.562500q6.640625 0.000000 10.515625 -4.562500q3.875000 -4.578125 3.875000 -12.437500q0.000000 -7.906250 -3.875000 -12.437500q-3.875000 -4.546875 -10.515625 -4.546875M52.593750 -71.296875l0.000000 8.984375q-3.718750 -1.750000 -7.500000 -2.671875q-3.781250 -0.937500 -7.500000 -0.937500q-9.765625 0.000000 -14.921875 6.593750q-5.140625 6.593750 -5.875000 19.921875q2.875000 -4.250000 7.218750 -6.515625q4.359375 -2.265625 9.578125 -2.265625q10.984375 0.000000 17.359375 6.671875q6.375000 6.656250 6.375000 18.125000q0.000000 11.234375 -6.640625 18.031250q-6.640625 6.781250 -17.671875 6.781250q-12.656250 0.000000 -19.343750 -9.687500q-6.687500 -9.703125 -6.687500 -28.109375q0.000000 -17.281250 8.203125 -27.562500q8.203125 -10.281250 22.015625 -10.281250q3.718750 0.000000 7.500000 0.734375q3.781250 0.734375 7.890625 2.187500"/>
</defs>
<g style="fill: #000000; opacity: 1.000000" transform="translate(329.199375,401.706250)scale(0.120000)">
<use xlink:href="#c_cc8d6d580d1b10c8632f7a42cd53db8a"/>
<use xlink:href="#c_7a2040fe3b94fcd41d0a72c84e93b115" x="63.623047"/>
<use xlink:href="#c_7a2040fe3b94fcd41d0a72c84e93b115" x="127.246094"/>
</g>
</g>
</g>
<g id="xtick5">
<g id="line2d14">
<path style="fill: none; stroke: #000000; stroke-width: 0.500000; stroke-linejoin: round; stroke-linecap: butt; stroke-dasharray: 1.000000,3.000000; stroke-dashoffset: 0.000000; opacity: 1.000000" clip-path="url(#p50431ccdcb28178602d99d9270004dde)" d="M429.120000 388.800000L429.120000 43.200000"/>
</g>
<g id="line2d15">
<g ><use style="fill: none; stroke: #000000; stroke-width: 0.500000; stroke-linejoin: round; stroke-linecap: butt;  opacity: 1.000000" xlink:href="#m30e32995789d870ad79a2e54c91cf9c6" x="429.120000" y="388.800000"/>
</g></g>
<g id="line2d16">
<g ><use style="fill: none; stroke: #000000; stroke-width: 0.500000; stroke-linejoin: round; stroke-linecap: butt;  opacity: 1.000000" xlink:href="#m9281cae24120827b11d5ea8a7ad3e96b" x="429.120000" y="43.200000"/>
</g></g>
<g id="text5">
<defs>
<path id="c_bef35738d52871942e50b9de9b122bab" d="M31.781250 -34.625000q-7.031250 0.000000 -11.062500 3.765625q-4.015625 3.765625 -4.015625 10.343750q0.000000 6.593750 4.015625 10.359375q4.031250 3.765625 11.062500 3.765625q7.031250 0.000000 11.078125 -3.781250q4.062500 -3.796875 4.062500 -10.343750q0.000000 -6.578125 -4.031250 -10.343750q-4.015625 -3.765625 -11.109375 -3.765625M21.921875 -38.812500q-6.343750 -1.562500 -9.890625 -5.906250q-3.531250 -4.359375 -3.531250 -10.609375q0.000000 -8.734375 6.218750 -13.812500q6.234375 -5.078125 17.062500 -5.078125q10.890625 0.000000 17.093750 5.078125q6.203125 5.078125 6.203125 13.812500q0.000000 6.250000 -3.546875 10.609375q-3.531250 4.343750 -9.828125 5.906250q7.125000 1.656250 11.093750 6.500000q3.984375 4.828125 3.984375 11.796875q0.000000 10.609375 -6.468750 16.281250q-6.468750 5.656250 -18.531250 5.656250q-12.046875 0.000000 -18.531250 -5.656250q-6.468750 -5.671875 -6.468750 -16.281250q0.000000 -6.968750 4.000000 -11.796875q4.015625 -4.843750 11.140625 -6.500000M18.312500 -54.390625q0.000000 5.656250 3.531250 8.828125q3.546875 3.171875 9.937500 3.171875q6.359375 0.000000 9.937500 -3.171875q3.593750 -3.171875 3.593750 -8.828125q0.000000 -5.671875 -3.593750 -8.843750q-3.578125 -3.171875 -9.937500 -3.171875q-6.390625 0.000000 -9.937500 3.171875q-3.531250 3.171875 -3.531250 8.843750"/>
</defs>
<g style="fill: #000000; opacity: 1.000000" transform="translate(418.463750,401.706250)scale(0.120000)">
<use xlink:href="#c_bef35738d52871942e50b9de9b122bab"/>
<use xlink:href="#c_7a2040fe3b94fcd41d0a72c84e93b115" x="63.623047"/>
<use xlink:href="#c_7a2040fe3b94fcd41d0a72c84e93b115" x="127.246094"/>
</g>
</g>
</g>
<g id="xtick6">
<g id="line2d17">
<path style="fill: none; stroke: #000000; stroke-width: 0.500000; stroke-linejoin: round; stroke-linecap: butt; stroke-dasharray: 1.000000,3.000000; stroke-dashoffset: 0.000000; opacity: 1.000000" clip-path="url(#p50431ccdcb28178602d99d9270004dde)" d="M518.400000 388.800000L518.400000 43.200000"/>
</g>
<g id="line2d18">
<g ><use style="fill: none; stroke: #000000; stroke-width: 0.500000; stroke-linejoin: round; stroke-linecap: butt;  opacity: 1.000000" xlink:href="#m30e32995789d870ad79a2e54c91cf9c6" x="518.400000" y="388.800000"/>
</g></g>
<g id="line2d19">
<g ><use style="fill: none; stroke: #000000; stroke-width: 0.500000; stroke-linejoin: round; stroke-linecap: butt;  opacity: 1.000000" xlink:href="#m9281cae24120827b11d5ea8a7ad3e96b" x="518.400000" y="43.200000"/>
</g></g>
<g id="text6">
<defs>
<path id="c_42baa63129a918535c52adb20d687ea7" d="M12.406250 -8.296875l16.109375 0.000000l0.000000 -55.625000l-17.531250 3.515625l0.000000 -8.984375l17.437500 -3.515625l9.859375 0.000000l0.000000 64.609375l16.109375 0.000000l0.000000 8.296875l-41.984375 0.000000z"/>
</defs>
<g style="fill: #000000; opacity: 1.000000" transform="translate(504.173437,401.706250)scale(0.120000)">
<use xlink:href="#c_42baa63129a918535c52adb20d687ea7"/>
<use xlink:href="#c_7a2040fe3b94fcd41d0a72c84e93b115" x="63.623047"/>
<use xlink:href="#c_7a2040fe3b94fcd41d0a72c84e93b115" x="127.246094"/>
<use xlink:href="#c_7a2040fe3b94fcd41d0a72c84e93b115" x="190.869141"/>
</g>
</g>
</g>
</g>
<g id="matplotlib.axis2">
<g id="ytick1">
<g id="line2d20">
<path style="fill: none; stroke: #000000; stroke-width: 0.500000; stroke-linejoin: round; stroke-linecap: butt; stroke-dasharray: 1.000000,3.000000; stroke-dashoffset: 0.000000; opacity: 1.000000" clip-path="url(#p50431ccdcb28178602d99d9270004dde)" d="M72.000000 388.800000L518.400000 388.800000"/>
</g>
<g id="line2d21">
<defs><path id="m3400efa6b1638b3fea9e19e898273957" d="M0.000000 0.000000L4.000000 0.000000"/></defs>
<g ><use style="fill: none; stroke: #000000; stroke-width: 0.500000; stroke-linejoin: round; stroke-linecap: butt;  opacity: 1.000000" xlink:href="#m3400efa6b1638b3fea9e19e898273957" x="72.000000" y="388.800000"/>
</g></g>
<g id="line2d22">
<defs><path id="m20b58b2501143cb5e0a5e8f1ef6f1643" d="M0.000000 0.000000L-4.000000 0.000000"/></defs>
<g ><use style="fill: none; stroke: #000000; stroke-width: 0.500000; stroke-linejoin: round; stroke-linecap: butt;  opacity: 1.000000" xlink:href="#m20b58b2501143cb5e0a5e8f1ef6f1643" x="518.400000" y="388.800000"/>
</g></g>
<g id="text7">
<defs>
<path id="c_ed3e21196fb739f392806f09ca0594ef" d="M10.687500 -12.406250l10.312500 0.000000l0.000000 12.406250l-10.312500 0.000000z"/>
</defs>
<g style="fill: #000000; opacity: 1.000000" transform="translate(35.625000,393.167188)scale(0.120000)">
<use xlink:href="#c_7a2040fe3b94fcd41d0a72c84e93b115"/>
<use xlink:href="#c_ed3e21196fb739f392806f09ca0594ef" x="63.623047"/>
<use xlink:href="#c_7a2040fe3b94fcd41d0a72c84e93b115" x="95.410156"/>
<use xlink:href="#c_7a2040fe3b94fcd41d0a72c84e93b115" x="159.033203"/>
<use xlink:href="#c_ed3f3ed3ebfbd18bcb9c012009a68ad1" x="222.656250"/>
</g>
</g>
</g>
<g id="ytick2">
<g id="line2d23">
<path style="fill: none; stroke: #000000; stroke-width: 0.500000; stroke-linejoin: round; stroke-linecap: butt; stroke-dasharray: 1.000000,3.000000; stroke-dashoffset: 0.000000; opacity: 1.000000" clip-path="url(#p50431ccdcb28178602d99d9270004dde)" d="M72.000000 350.400000L518.400000 350.400000"/>
</g>
<g id="line2d24">
<g ><use style="fill: none; stroke: #000000; stroke-width: 0.500000; stroke-linejoin: round; stroke-linecap: butt;  opacity: 1.000000" xlink:href="#m3400efa6b1638b3fea9e19e898273957" x="72.000000" y="350.400000"/>
</g></g>
<g id="line2d25">
<g ><use style="fill: none; stroke: #000000; stroke-width: 0.500000; stroke-linejoin: round; stroke-linecap: butt;  opacity: 1.000000" xlink:href="#m20b58b2501143cb5e0a5e8f1ef6f1643" x="518.400000" y="350.400000"/>
</g></g>
<g id="text8">
<g style="fill: #000000; opacity: 1.000000" transform="translate(35.093750,354.767188)scale(0.120000)">
<use xlink:href="#c_7a2040fe3b94fcd41d0a72c84e93b115"/>
<use xlink:href="#c_ed3e21196fb739f392806f09ca0594ef" x="63.623047"/>
<use xlink:href="#c_7a2040fe3b94fcd41d0a72c84e93b115" x="95.410156"/>
<use xlink:href="#c_7a2040fe3b94fcd41d0a72c84e93b115" x="159.033203"/>
<use xlink:href="#c_a0416418d96557a09b8c1332d34883ba" x="222.656250"/>
</g>
</g>
</g>
<g id="ytick3">
<g id="line2d26">
<path style="fill: none; stroke: #000000; stroke-width: 0.500000; stroke-linejoin: round; stroke-linecap: butt; stroke-dasharray: 1.000000,3.000000; stroke-dashoffset: 0.000000; opacity: 1.000000" clip-path="url(#p50431ccdcb28178602d99d9270004dde)" d="M72.000000 312.000000L518.400000 312.000000"/>
</g>
<g id="line2d27">
<g ><use style="fill: none; stroke: #000000; stroke-width: 0.500000; stroke-linejoin: round; stroke-linecap: butt;  opacity: 1.000000" xlink:href="#m3400efa6b1638b3fea9e19e898273957" x="72.000000" y="312.000000"/>
</g></g>
<g id="line2d28">
<g ><use style="fill: none; stroke: #000000; stroke-width: 0.500000; stroke-linejoin: round; stroke-linecap: butt;  opacity: 1.000000" xlink:href="#m20b58b2501143cb5e0a5e8f1ef6f1643" x="518.400000" y="312.000000"/>
</g></g>
<g id="text9">
<g style="fill: #000000; opacity: 1.000000" transform="translate(35.187500,316.367188)scale(0.120000)">
<use xlink:href="#c_7a2040fe3b94fcd41d0a72c84e93b115"/>
<use xlink:href="#c_ed3e21196fb739f392806f09ca0594ef" x="63.623047"/>
<use xlink:href="#c_7a2040fe3b94fcd41d0a72c84e93b115" x="95.410156"/>
<use xlink:href="#c_7a2040fe3b94fcd41d0a72c84e93b115" x="159.033203"/>
<use xlink:href="#c_cc8d6d580d1b10c8632f7a42cd53db8a" x="222.656250"/>
</g>
</g>
</g>
<g id="ytick4">
<g id="line2d29">
<path style="fill: none; stroke: #000000; stroke-width: 0.500000; stroke-linejoin: round; stroke-linecap: butt; stroke-dasharray: 1.000000,3.000000; stroke-dashoffset: 0.000000; opacity: 1.000000" clip-path="url(#p50431ccdcb28178602d99d9270004dde)" d="M72.000000 273.600000L518.400000 273.600000"/>
</g>
<g id="line2d30">
<g ><use style="fill: none; stroke: #000000; stroke-width: 0.500000; stroke-linejoin: round; stroke-linecap: butt;  opacity: 1.000000" xlink:href="#m3400efa6b1638b3fea9e19e898273957" x="72.000000" y="273.600000"/>
</g></g>
<g id="line2d31">
<g ><use style="fill: none; stroke: #000000; stroke-width: 0.500000; stroke-linejoin: round; stroke-linecap: butt;  opacity: 1.000000" xlink:href="#m20b58b2501143cb5e0a5e8f1ef6f1643" x="518.400000" y="273.600000"/>
</g></g>
<g id="text10">
<g style="fill: #000000; opacity: 1.000000" transform="translate(35.250000,277.967188)scale(0.120000)">
<use xlink:href="#c_7a2040fe3b94fcd41d0a72c84e93b115"/>
<use xlink:href="#c_ed3e21196fb739f392806f09ca0594ef" x="63.623047"/>
<use xlink:href="#c_7a2040fe3b94fcd41d0a72c84e93b115" x="95.410156"/>
<use xlink:href="#c_7a2040fe3b94fcd41d0a72c84e93b115" x="159.033203"/>
<use xlink:href="#c_bef35738d52871942e50b9de9b122bab" x="222.656250"/>
</g>
</g>
</g>
<g id="ytick5">
<g id="line2d32">
<path style="fill: none; stroke: #000000; stroke-width: 0.500000; stroke-linejoin: round; stroke-linecap: butt; stroke-dasharray: 1.000000,3.000000; stroke-dashoffset: 0.000000; opacity: 1.000000" clip-path="url(#p50431ccdcb28178602d99d9270004dde)" d="M72.000000 235.200000L518.400000 235.200000"/>
</g>
<g id="line2d33">
<g ><use style="fill: none; stroke: #000000; stroke-width: 0.500000; stroke-linejoin: round; stroke-linecap: butt;  opacity: 1.000000" xlink:href="#m3400efa6b1638b3fea9e19e898273957" x="72.000000" y="235.200000"/>
</g></g>
<g id="line2d34">
<g ><use style="fill: none; stroke: #000000; stroke-width: 0.500000; stroke-linejoin: round; stroke-linecap: butt;  opacity: 1.000000" xlink:href="#m20b58b2501143cb5e0a5e8f1ef6f1643" x="518.400000" y="235.200000"/>
</g></g>
<g id="text11">
<g style="fill: #000000; opacity: 1.000000" transform="translate(35.218750,239.567188)scale(0.120000)">
<use xlink:href="#c_7a2040fe3b94fcd41d0a72c84e93b115"/>
<use xlink:href="#c_ed3e21196fb739f392806f09ca0594ef" x="63.623047"/>
<use xlink:href="#c_7a2040fe3b94fcd41d0a72c84e93b115" x="95.410156"/>
<use xlink:href="#c_42baa63129a918535c52adb20d687ea7" x="159.033203"/>
<use xlink:href="#c_7a2040fe3b94fcd41d0a72c84e93b115" x="222.656250"/>
</g>
</g>
</g>
<g id="ytick6">
<g id="line2d35">
<path style="fill: none; stroke: #000000; stroke-width: 0.500000; stroke-linejoin: round; stroke-linecap: butt; stroke-dasharray: 1.000000,3.000000; stroke-dashoffset: 0.000000; opacity: 1.000000" clip-path="url(#p50431ccdcb28178602d99d9270004dde)" d="M72.000000 196.800000L518.400000 196.800000"/>
</g>
<g id="line2d36">
<g ><use style="fill: none; stroke: #000000; stroke-width: 0.500000; stroke-linejoin: round; stroke-linecap: butt;  opacity: 1.000000" xlink:href="#m3400efa6b1638b3fea9e19e898273957" x="72.000000" y="196.800000"/>
</g></g>
<g id="line2d37">
<g ><use style="fill: none; stroke: #000000; stroke-width: 0.500000; stroke-linejoin: round; stroke-linecap: butt;  opacity: 1.000000" xlink:href="#m20b58b2501143cb5e0a5e8f1ef6f1643" x="518.400000" y="196.800000"/>
</g></g>
<g id="text12">
<g style="fill: #000000; opacity: 1.000000" transform="translate(35.625000,201.167188)scale(0.120000)">
<use xlink:href="#c_7a2040fe3b94fcd41d0a72c84e93b115"/>
<use xlink:href="#c_ed3e21196fb739f392806f09ca0594ef" x="63.623047"/>
<use xlink:href="#c_7a2040fe3b94fcd41d0a72c84e93b115" x="95.410156"/>
<use xlink:href="#c_42baa63129a918535c52adb20d687ea7" x="159.033203"/>
<use xlink:href="#c_ed3f3ed3ebfbd18bcb9c012009a68ad1" x="222.656250"/>
</g>
</g>
</g>
<g id="ytick7">
<g id="line2d38">
<path style="fill: none; stroke: #000000; stroke-width: 0.500000; stroke-linejoin: round; stroke-linecap: butt; stroke-dasharray: 1.000000,3.000000; stroke-dashoffset: 0.000000; opacity: 1.000000" clip-path="url(#p50431ccdcb28178602d99d9270004dde)" d="M72.000000 158.400000L518.400000 158.400000"/>
</g>
<g id="line2d39">
<g ><use style="fill: none; stroke: #000000; stroke-width: 0.500000; stroke-linejoin: round; stroke-linecap: butt;  opacity: 1.000000" xlink:href="#m3400efa6b1638b3fea9e19e898273957" x="72.000000" y="158.400000"/>
</g></g>
<g id="line2d40">
<g ><use style="fill: none; stroke: #000000; stroke-width: 0.500000; stroke-linejoin: round; stroke-linecap: butt;  opacity: 1.000000" xlink:href="#m20b58b2501143cb5e0a5e8f1ef6f1643" x="518.400000" y="158.400000"/>
</g></g>
<g id="text13">
<g style="fill: #000000; opacity: 1.000000" transform="translate(35.093750,162.767187)scale(0.120000)">
<use xlink:href="#c_7a2040fe3b94fcd41d0a72c84e93b115"/>
<use xlink:href="#c_ed3e21196fb739f392806f09ca0594ef" x="63.623047"/>
<use xlink:href="#c_7a2040fe3b94fcd41d0a72c84e93b115" x="95.410156"/>
<use xlink:href="#c_42baa63129a918535c52adb20d687ea7" x="159.033203"/>
<use xlink:href="#c_a0416418d96557a09b8c1332d34883ba" x="222.656250"/>
</g>
</g>
</g>
<g id="ytick8">
<g id="line2d41">
<path style="fill: none; stroke: #000000; stroke-width: 0.500000; stroke-linejoin: round; stroke-linecap: butt; stroke-dasharray: 1.000000,3.000000; stroke-dashoffset: 0.000000; opacity: 1.000000" clip-path="url(#p50431ccdcb28178602d99d9270004dde)" d="M72.000000 120.000000L518.400000 120.000000"/>
</g>
<g id="line2d42">
<g ><use style="fill: none; stroke: #000000; stroke-width: 0.500000; stroke-linejoin: round; stroke-linecap: butt;  opacity: 1.000000" xlink:href="#m3400efa6b1638b3fea9e19e898273957" x="72.000000" y="120.000000"/>
</g></g>
<g id="line2d43">
<g ><use style="fill: none; stroke: #000000; stroke-width: 0.500000; stroke-linejoin: round; stroke-linecap: butt;  opacity: 1.000000" xlink:href="#m20b58b2501143cb5e0a5e8f1ef6f1643" x="518.400000" y="120.000000"/>
</g></g>
<g id="text14">
<g style="fill: #000000; opacity: 1.000000" transform="translate(35.187500,124.367188)scale(0.120000)">
<use xlink:href="#c_7a2040fe3b94fcd41d0a72c84e93b115"/>
<use xlink:href="#c_ed3e21196fb739f392806f09ca0594ef" x="63.623047"/>
<use xlink:href="#c_7a2040fe3b94fcd41d0a72c84e93b115" x="95.410156"/>
<use xlink:href="#c_42baa63129a918535c52adb20d687ea7" x="159.033203"/>
<use xlink:href="#c_cc8d6d580d1b10c8632f7a42cd53db8a" x="222.656250"/>
</g>
</g>
</g>
<g id="ytick9">
<g id="line2d44">
<path style="fill: none; stroke: #000000; stroke-width: 0.500000; stroke-linejoin: round; stroke-linecap: butt; stroke-dasharray: 1.000000,3.000000; stroke-dashoffset: 0.000000; opacity: 1.000000" clip-path="url(#p50431ccdcb28178602d99d9270004dde)" d="M72.000000 81.600000L518.400000 81.600000"/>
</g>
<g id="line2d45">
<g ><use style="fill: none; stroke: #000000; stroke-width: 0.500000; stroke-linejoin: round; stroke-linecap: butt;  opacity: 1.000000" xlink:href="#m3400efa6b1638b3fea9e19e898273957" x="72.000000" y="81.600000"/>
</g></g>
<g id="line2d46">
<g ><use style="fill: none; stroke: #000000; stroke-width: 0.500000; stroke-linejoin: round; stroke-linecap: butt;  opacity: 1.000000" xlink:href="#m20b58b2501143cb5e0a5e8f1ef6f1643" x="518.400000" y="81.600000"/>
</g></g>
<g id="text15">
<g style="fill: #000000; opacity: 1.000000" transform="translate(35.250000,85.967187)scale(0.120000)">
<use xlink:href="#c_7a2040fe3b94fcd41d0a72c84e93b115"/>
<use xlink:href="#c_ed3e21196fb739f392806f09ca0594ef" x="63.623047"/>
<use xlink:href="#c_7a2040fe3b94fcd41d0a72c84e93b115" x="95.410156"/>
<use xlink:href="#c_42baa63129a918535c52adb20d687ea7" x="159.033203"/>
<use xlink:href="#c_bef35738d52871942e50b9de9b122bab" x="222.656250"/>
</g>
</g>
</g>
<g id="ytick10">
<g id="line2d47">
<path style="fill: none; stroke: #000000; stroke-width: 0.500000; stroke-linejoin: round; stroke-linecap: butt; stroke-dasharray: 1.000000,3.000000; stroke-dashoffset: 0.000000; opacity: 1.000000" clip-path="url(#p50431ccdcb28178602d99d9270004dde)" d="M72.000000 43.200000L518.400000 43.200000"/>
</g>
<g id="line2d48">
<g ><use style="fill: none; stroke: #000000; stroke-width: 0.500000; stroke-linejoin: round; stroke-linecap: butt;  opacity: 1.000000" xlink:href="#m3400efa6b1638b3fea9e19e898273957" x="72.000000" y="43.200000"/>
</g></g>
<g id="line2d49">
<g ><use style="fill: none; stroke: #000000; stroke-width: 0.500000; stroke-linejoin: round; stroke-linecap: butt;  opacity: 1.000000" xlink:href="#m20b58b2501143cb5e0a5e8f1ef6f1643" x="518.400000" y="43.200000"/>
</g></g>
<g id="text16">
<g style="fill: #000000; opacity: 1.000000" transform="translate(35.218750,47.567187)scale(0.120000)">
<use xlink:href="#c_7a2040fe3b94fcd41d0a72c84e93b115"/>
<use xlink:href="#c_ed3e21196fb739f392806f09ca0594ef" x="63.623047"/>
<use xlink:href="#c_7a2040fe3b94fcd41d0a72c84e93b115" x="95.410156"/>
<use xlink:href="#c_ed3f3ed3ebfbd18bcb9c012009a68ad1" x="159.033203"/>
<use xlink:href="#c_7a2040fe3b94fcd41d0a72c84e93b115" x="222.656250"/>
</g>
</g>
</g>
</g>
<g id="patch3">
<path style="fill: none; stroke: #000000; stroke-width: 1.000000; stroke-linejoin: round; stroke-linecap: square;  opacity: 1.000000"  d="M72.000000 43.200000L518.400000 43.200000"/>
</g>
<g id="patch4">
<path style="fill: none; stroke: #000000; stroke-width: 1.000000; stroke-linejoin: round; stroke-linecap: square;  opacity: 1.000000"  d="M518.400000 388.800000L518.400000 43.200000"/>
</g>
<g id="patch5">
<path style="fill: none; stroke: #000000; stroke-width: 1.000000; stroke-linejoin: round; stroke-linecap: square;  opacity: 1.000000"  d="M72.000000 388.800000L518.400000 388.800000"/>
</g>
<g id="patch6">
<path style="fill: none; stroke: #000000; stroke-width: 1.000000; stroke-linejoin: round; stroke-linecap: square;  opacity: 1.000000"  d="M72.000000 388.800000L72.000000 43.200000"/>
</g>
</g>
</g>
</svg>
