<?xml version="1.0" standalone="no"?>
<!DOCTYPE svg PUBLIC "-//W3C//DTD SVG 1.1//EN"
  "http://www.w3.org/Graphics/SVG/1.1/DTD/svg11.dtd">
<!-- Created with matplotlib (http://matplotlib.sourceforge.net/) -->
<svg width="576pt" height="432pt" viewBox="0 0 576 432"
   xmlns="http://www.w3.org/2000/svg"
   xmlns:xlink="http://www.w3.org/1999/xlink"
   version="1.1"
   id="svg1">
<g id="figure1">
<g id="patch1">
<path style="fill: #ffffff; stroke: #ffffff; stroke-width: 1.000000; stroke-linejoin: round; stroke-linecap: square;  opacity: 1.000000"  d="M0.000000 432.000000L576.000000 432.000000L576.000000 0.000000
L0.000000 0.000000L0.000000 432.000000"/>
</g>
<g id="axes1">
<g id="patch2">
<path style="fill: #ffffff; opacity: 1.000000"  d="M72.000000 388.800000L518.400000 388.800000L518.400000 43.200000
L72.000000 43.200000L72.000000 388.800000"/>
</g>
<g id="line2d1">
<defs>
  <clipPath id="p50431ccdcb28178602d99d9270004dde">
<rect x="72.000000" y="43.200000" width="446.400000" height="345.600000"/>
  </clipPath>
</defs><path style="fill: none; stroke: #ff0000; stroke-width: 1.000000; stroke-linejoin: round; stroke-linecap: square;  opacity: 1.000000" clip-path="url(#p50431ccdcb28178602d99d9270004dde)" d="M72.000000 218.699402L72.446400 99.725170L72.892800 110.503097
L73.339200 70.238818L73.785600 112.503508L74.232000 217.366176
L74.678400 113.151829L75.124800 116.902690L75.571200 217.292891
L76.017600 114.973774L76.464000 113.217870L76.910400 115.512550
L77.356800 97.452769L77.803200 216.889127L78.249600 223.271087
L78.696000 95.592324L79.142400 220.528241L79.588800 106.476689
L80.035200 201.702059L80.481600 115.945087L80.928000 217.840518
L81.374400 99.273542L81.820800 220.263447L82.267200 116.376365
L82.713600 335.327186L83.160000 219.108387L84.052800 220.717831
L84.499200 218.821320L84.945600 115.899771L85.392000 203.257228
L85.838400 222.014986L86.284800 219.288549L86.731200 220.788038
L87.177600 109.953617L87.624000 224.526756L88.070400 66.734976
L88.516800 223.955328L88.963200 220.516835L89.856000 112.527213
L90.302400 217.934392L90.748800 90.912049L91.195200 224.137862
L92.088000 217.379403L92.980800 223.792433L93.427200 198.038474
L93.873600 220.350370L94.320000 218.868907L94.766400 114.842292
L95.212800 221.113711L95.659200 214.395529L96.105600 95.808190
L96.552000 218.603521L96.998400 113.054146L97.444800 218.311919
L97.891200 223.543973L98.337600 113.263671L98.784000 218.719850
L99.230400 220.501801L100.569600 219.739444L101.016000 221.681595
L101.462400 219.634308L101.908800 221.104593L102.801600 219.417708
L103.248000 196.856979L103.694400 220.201298L104.140800 224.496144
L104.587200 220.419246L105.033600 224.411230L105.480000 219.792787
L105.926400 223.186766L106.372800 198.556989L106.819200 335.562260
L107.265600 215.395831L107.712000 220.714911L108.604800 222.453944
L109.051200 219.222583L109.497600 222.821419L109.944000 202.116988
L110.390400 200.179114L110.836800 220.139539L111.283200 221.654995
L111.729600 217.175640L112.176000 221.172717L112.622400 218.890085
L113.068800 223.076659L113.515200 203.909456L113.961600 218.770122
L114.408000 215.584655L114.854400 222.265153L115.300800 219.398192
L115.747200 222.794296L116.193600 218.525448L117.532800 219.860704
L117.979200 216.225829L119.318400 219.655291L120.211200 213.625179
L120.657600 219.397447L121.104000 207.558071L121.550400 219.361771
L121.996800 218.008472L122.443200 336.665091L122.889600 218.242109
L123.336000 219.913160L123.782400 214.471247L124.228800 218.882080
L124.675200 216.482489L125.121600 201.972744L125.568000 216.551762
L126.014400 217.663392L126.460800 221.996982L126.907200 214.690834
L127.353600 221.959624L127.800000 218.013961L128.246400 221.354187
L128.692800 217.614106L129.139200 220.711799L129.585600 215.182532
L130.032000 216.729639L130.478400 221.893348L130.924800 217.501085
L131.371200 220.771868L131.817600 217.265201L132.264000 220.630023
L134.049600 209.862828L134.496000 218.811590L135.388800 217.355007
L135.835200 219.914777L136.728000 217.178582L137.174400 219.424652
L137.620800 217.903799L138.067200 338.928939L138.513600 221.578163
L138.960000 218.642662L139.406400 221.131299L139.852800 215.930027
L140.299200 219.245357L140.745600 201.433954L141.192000 218.212294
L141.638400 195.981705L142.084800 219.081249L142.531200 218.031497
L143.424000 219.281602L144.316800 199.095988L144.763200 218.832932
L145.656000 214.774631L146.102400 220.221965L146.548800 215.519537
L146.995200 222.654449L147.441600 216.892004L147.888000 220.307248
L148.334400 217.093257L149.673600 216.453333L150.120000 214.269052
L150.566400 220.805623L151.012800 216.488023L151.459200 220.254538
L151.905600 216.691953L152.352000 220.933566L152.798400 219.659243
L153.691200 215.224939L154.137600 218.849158L154.584000 216.184269
L155.030400 220.855483L155.476800 217.097857L155.923200 220.202957
L156.369600 217.182095L156.816000 219.751542L157.262400 216.090777
L158.155200 220.131243L158.601600 215.703646L159.048000 218.387422
L159.494400 192.306435L159.940800 223.232520L160.387200 221.077109
L161.280000 212.768392L161.726400 220.228453L162.172800 216.086438
L162.619200 204.234996L163.065600 219.429797L163.512000 218.288630
L164.851200 219.755804L165.297600 212.868977L165.744000 220.030727
L166.190400 216.184859L166.636800 219.974610L167.083200 217.069462
L167.529600 219.086004L167.976000 217.930304L168.422400 219.974644
L169.315200 215.189939L169.761600 218.731925L170.654400 216.934959
L171.993600 219.129695L172.886400 217.793295L173.332800 213.635390
L173.779200 219.242085L174.225600 217.177970L174.672000 219.933432
L175.118400 215.725640L175.564800 219.597600L176.011200 216.582157
L176.457600 220.519516L176.904000 217.120717L177.350400 230.742256
L177.796800 206.038684L178.243200 220.745641L178.689600 217.900110
L179.136000 220.242319L179.582400 216.188877L180.028800 198.802658
L180.475200 221.629670L180.921600 217.183024L181.368000 336.750818
L181.814400 218.167533L182.260800 216.361422L182.707200 220.666436
L183.153600 218.378590L183.600000 199.677941L184.046400 219.993380
L184.939200 215.654981L185.385600 219.309873L185.832000 217.640188
L186.278400 219.624155L186.724800 217.930062L187.171200 220.172145
L187.617600 218.043349L188.064000 219.178060L188.956800 214.865357
L189.403200 218.928290L190.296000 215.698284L190.742400 219.910962
L191.188800 216.529497L191.635200 219.389590L192.081600 217.079893
L192.974400 223.978150L193.420800 205.816988L193.867200 220.029329
L194.313600 217.867349L194.760000 219.607861L195.206400 216.522077
L195.652800 198.942589L196.099200 220.397830L196.545600 217.307202
L196.992000 336.363441L197.438400 215.259240L197.884800 218.865763
L199.224000 197.516366L199.670400 219.949341L200.116800 215.560769
L201.009600 218.251511L201.902400 216.522453L202.348800 220.038011
L202.795200 215.340394L203.241600 221.640632L203.688000 215.492141
L204.134400 220.801912L204.580800 215.583919L205.473600 218.553691
L206.812800 215.025356L207.259200 219.466283L207.705600 215.183913
L208.152000 220.810595L208.598400 195.420474L209.044800 217.743984
L209.491200 216.384568L209.937600 220.252308L210.384000 215.802171
L210.830400 220.631836L211.276800 199.040179L211.723200 219.301030
L212.616000 212.953024L213.062400 214.968435L213.508800 219.615596
L213.955200 216.796931L214.401600 218.464226L214.848000 216.569728
L215.294400 218.803227L215.740800 216.798901L216.187200 218.113271
L216.633600 338.292421L217.080000 218.737947L217.526400 216.481516
L217.972800 218.756602L218.419200 197.835185L218.865600 237.888787
L219.312000 197.597041L219.758400 216.295540L220.651200 219.952292
L221.097600 215.531484L221.544000 219.514110L221.990400 214.245661
L222.436800 218.915243L222.883200 199.074645L223.329600 219.023014
L224.222400 215.743996L225.115200 218.835641L225.561600 217.026007
L226.008000 219.983422L226.454400 212.201408L226.900800 219.446339
L227.347200 216.909785L227.793600 219.497387L228.240000 337.259008
L228.686400 216.221476L229.579200 219.720836L230.025600 197.254356
L230.472000 220.329452L230.918400 217.972023L231.811200 216.691947
L232.257600 215.000603L232.704000 220.259989L233.150400 216.482194
L233.596800 220.017344L234.043200 217.913293L235.382400 217.604465
L235.828800 191.787994L236.275200 219.652416L236.721600 216.135406
L237.168000 220.040067L237.614400 215.627856L238.060800 219.007400
L238.507200 216.421845L238.953600 199.993689L239.400000 215.818414
L239.846400 190.174988L240.292800 217.626193L241.185600 218.797660
L241.632000 216.385518L242.078400 218.471781L242.524800 197.009093
L242.971200 219.216383L243.417600 207.964127L243.864000 213.054760
L244.756800 215.107033L245.203200 212.974958L245.649600 214.652460
L246.096000 212.869134L246.542400 220.627154L246.988800 208.791670
L247.435200 335.818172L247.881600 212.403971L248.328000 188.775893
L248.774400 235.714628L249.667200 191.434002L250.113600 216.152956
L250.560000 212.251322L251.452800 214.784994L251.899200 211.044097
L252.345600 214.068008L252.792000 211.170137L253.238400 215.768354
L253.684800 213.103789L254.131200 216.051890L254.577600 337.642438
L255.024000 216.608461L255.470400 212.050816L255.916800 214.627916
L256.363200 212.481164L256.809600 217.357342L257.256000 194.859722
L257.702400 214.795075L258.148800 336.891220L258.595200 214.683320
L259.041600 212.992413L259.488000 181.797892L259.934400 244.424793
L260.827200 194.439676L261.273600 216.652364L261.720000 337.207862
L262.166400 213.329982L262.612800 214.409652L263.059200 211.592717
L263.505600 215.334524L263.952000 213.229973L264.398400 198.702606
L264.844800 213.642781L265.291200 337.227672L265.737600 213.195394
L266.184000 215.479511L266.630400 212.862369L267.076800 215.134314
L267.523200 213.974212L267.969600 195.300253L268.416000 217.082917
L268.862400 337.333064L269.308800 216.060234L269.755200 212.570817
L270.201600 182.125630L270.648000 241.542438L271.540800 194.159048
L271.987200 217.549338L272.433600 336.376725L272.880000 215.436611
L273.326400 213.004542L273.772800 216.000473L274.219200 210.628748
L274.665600 216.790657L275.112000 195.231285L275.558400 212.909354
L276.004800 337.164623L276.451200 214.172501L277.344000 215.597892
L277.790400 214.067529L278.683200 196.146177L279.129600 213.053903
L279.576000 336.183151L280.022400 212.171451L280.468800 216.729799
L280.915200 179.876479L281.361600 242.900840L282.254400 197.846731
L282.700800 210.733379L283.147200 335.923532L283.593600 210.945855
L284.040000 215.703294L284.486400 213.129056L284.932800 215.393869
L285.825600 193.915980L286.272000 215.983547L286.718400 336.241616
L287.164800 214.784803L287.611200 211.965943L288.057600 216.118658
L288.504000 212.646209L288.950400 195.064197L289.396800 214.495736
L290.289600 336.824838L290.736000 215.376307L291.182400 212.093577
L291.628800 184.356632L292.075200 221.311488L292.521600 214.644556
L292.968000 213.192475L293.414400 215.005524L293.860800 336.934025
L294.307200 215.518332L294.753600 212.349559L295.200000 214.586409
L296.539200 197.252944L296.985600 210.712209L297.432000 335.888028
L297.878400 211.798227L298.324800 216.750271L298.771200 210.633865
L299.217600 215.138701L299.664000 213.716492L300.110400 196.776831
L300.556800 213.591736L301.003200 337.021563L301.449600 211.241312
L301.896000 214.263442L302.342400 184.356441L302.788800 242.799908
L303.681600 197.169098L304.128000 216.236146L304.574400 338.028373
L305.020800 215.064364L305.467200 212.621501L306.360000 211.108857
L306.806400 217.471191L307.252800 191.222866L307.699200 215.848712
L308.145600 335.554433L308.592000 213.475451L309.038400 211.599843
L309.931200 213.324286L310.377600 215.057944L310.824000 195.138102
L311.270400 213.869789L311.716800 336.848192L312.163200 211.279480
L312.609600 214.136245L313.056000 182.525989L313.502400 245.047532
L314.395200 196.698606L314.841600 211.059008L315.288000 337.227437
L315.734400 210.525944L316.180800 215.732793L316.627200 212.851436
L317.073600 215.156887L317.520000 194.937191L317.966400 214.984372
L318.859200 337.352603L319.305600 213.506766L320.644800 214.627103
L321.537600 194.479415L321.984000 216.203031L322.430400 337.438435
L322.876800 216.083441L323.323200 211.425904L323.769600 215.524964
L324.216000 209.154315L324.662400 192.177390L325.108800 217.841033
L325.555200 215.465525L326.001600 336.335585L326.448000 213.633643
L327.340800 215.983984L327.787200 211.633341L328.233600 216.357100
L328.680000 192.693653L329.126400 211.530683L329.572800 335.777891
L330.019200 214.272360L330.465600 215.384433L330.912000 212.761681
L331.358400 215.665555L331.804800 211.621622L332.251200 199.289444
L332.697600 211.590203L333.144000 337.235487L333.590400 211.482730
L334.036800 216.308658L334.483200 212.912930L334.929600 215.292208
L335.376000 194.603030L335.822400 216.393439L336.268800 212.915188
L336.715200 336.883189L337.161600 212.657557L337.608000 214.831512
L338.054400 213.132815L338.500800 214.361745L338.947200 194.890827
L339.393600 212.523953L339.840000 213.859782L340.286400 335.967997
L340.732800 215.613375L341.179200 211.659170L341.625600 214.621629
L342.072000 212.682118L342.964800 218.624401L343.411200 215.302436
L343.857600 207.834910L344.304000 216.771809L344.750400 213.126550
L345.643200 210.061040L346.089600 214.539736L346.536000 190.404142
L346.982400 211.545275L347.428800 210.216410L347.875200 212.908382
L348.321600 208.825703L348.768000 214.224447L349.214400 209.385384
L349.660800 213.048784L350.107200 208.829836L350.553600 211.503998
L351.000000 203.669700L351.446400 214.780237L351.892800 211.306971
L353.232000 207.292488L353.678400 213.190881L354.124800 208.802203
L354.571200 210.896623L355.017600 338.856377L355.464000 212.354101
L355.910400 209.357010L356.356800 212.278791L356.803200 208.859412
L357.249600 191.833863L357.696000 211.010528L358.588800 209.420627
L359.481600 213.950813L359.928000 205.466056L360.374400 213.781988
L360.820800 210.743354L362.160000 211.286481L363.945600 208.634279
L364.392000 218.398441L364.838400 206.194169L365.284800 212.958277
L365.731200 211.271179L366.177600 208.119644L366.624000 212.903811
L367.070400 209.548628L367.516800 211.295308L367.963200 207.640865
L368.409600 214.499063L368.856000 200.837190L369.302400 217.552263
L369.748800 208.655088L370.195200 212.777593L370.641600 208.954023
L371.088000 213.721062L371.534400 207.917241L371.980800 214.145310
L372.427200 211.202468L372.873600 337.283176L373.320000 210.800447
L373.766400 209.127931L374.212800 210.280254L375.105600 191.892915
L375.552000 210.890373L375.998400 215.299543L376.891200 209.273933
L377.337600 211.807413L377.784000 208.656304L378.230400 213.718022
L378.676800 207.084545L379.123200 213.056417L379.569600 208.808938
L380.016000 210.956968L380.908800 208.706058L381.801600 210.589715
L383.140800 212.052482L383.587200 210.834255L384.033600 212.128649
L384.480000 208.956466L384.926400 212.074953L385.372800 207.940616
L385.819200 214.325048L386.712000 204.058730L387.158400 213.539086
L387.604800 209.926307L388.051200 213.514661L388.497600 208.092940
L388.944000 211.685668L389.836800 213.550701L390.283200 206.334206
L390.729600 337.211358L391.176000 209.753836L392.068800 213.464737
L392.515200 209.277727L392.961600 191.077518L393.408000 212.313915
L393.854400 213.967392L394.300800 207.132220L394.747200 213.933309
L395.193600 210.098496L395.640000 211.659020L396.086400 208.790160
L396.532800 212.091131L397.425600 209.054721L397.872000 212.459410
L398.318400 207.324416L398.764800 212.741602L399.211200 208.237558
L399.657600 214.751821L400.104000 211.513640L400.996800 201.775048
L401.443200 217.250874L401.889600 210.131376L402.782400 211.585178
L403.228800 208.180276L403.675200 211.352314L404.121600 208.162772
L404.568000 211.922343L405.014400 336.309773L405.460800 212.827635
L405.907200 208.240402L406.353600 212.640950L406.800000 189.998476
L407.246400 211.224669L408.139200 209.908634L408.585600 213.270141
L409.032000 207.699003L409.478400 211.458528L409.924800 207.553784
L410.371200 214.494498L410.817600 208.715771L412.156800 208.621767
L412.603200 213.032636L413.049600 210.203738L413.942400 211.295196
L415.281600 208.710506L415.728000 212.470008L416.174400 209.587000
L416.620800 212.477061L417.067200 208.793542L417.513600 212.193241
L417.960000 207.208293L418.406400 210.464786L418.852800 207.132577
L419.299200 210.914971L419.745600 207.837354L420.192000 210.771077
L420.638400 206.709525L421.531200 212.110680L421.977600 208.100859
L422.424000 213.118411L423.316800 207.850380L423.763200 210.448096
L424.209600 206.196078L424.656000 212.813087L425.102400 204.899886
L425.548800 210.684672L425.995200 209.639324L426.888000 210.768185
L428.227200 207.262246L428.673600 212.227089L429.120000 208.265489
L429.566400 210.374601L430.012800 207.758873L430.459200 211.262162
L430.905600 209.559852L431.798400 211.422471L432.244800 209.008488
L432.691200 210.887190L433.137600 208.213172L434.476800 212.092448
L434.923200 209.325083L435.369600 211.594049L435.816000 209.804520
L436.262400 206.226964L436.708800 210.164492L437.155200 207.712224
L438.048000 210.831527L438.494400 207.180576L438.940800 211.616844
L439.387200 205.401241L439.833600 212.714472L440.280000 208.049145
L441.172800 210.377693L441.619200 208.926100L442.065600 210.681708
L442.512000 207.105748L442.958400 212.463162L443.404800 207.799897
L443.851200 212.268242L444.297600 205.936002L444.744000 212.655175
L445.190400 207.718363L445.636800 211.882014L446.529600 210.801682
L447.422400 207.135597L447.868800 211.772248L448.315200 208.993262
L448.761600 211.014209L449.208000 208.843297L449.654400 210.314980
L450.547200 211.601220L451.440000 206.907724L451.886400 212.000498
L452.332800 207.246373L452.779200 210.660709L453.225600 208.144479
L453.672000 211.103892L454.564800 209.030707L455.011200 211.310849
L455.457600 207.277733L455.904000 212.647432L456.350400 206.799911
L457.689600 213.224382L458.136000 205.186169L459.028800 211.858939
L459.475200 207.068516L459.921600 211.240803L460.368000 208.965004
L460.814400 213.192457L461.260800 208.094356L462.153600 211.018638
L462.600000 206.298527L463.046400 213.479556L463.492800 208.751720
L463.939200 209.848483L464.385600 208.555578L464.832000 212.086205
L465.278400 209.360152L466.171200 210.638826L466.617600 206.639366
L467.064000 209.514540L467.510400 206.185631L467.956800 212.169185
L468.403200 207.533993L468.849600 210.764845L470.635200 207.347317
L471.081600 213.055399L471.528000 208.444323L472.867200 210.655249
L473.760000 209.002436L474.206400 211.986968L474.652800 207.349847
L475.099200 211.866209L475.545600 208.923103L475.992000 212.126743
L476.438400 207.774408L476.884800 210.296126L477.777600 206.836726
L478.224000 212.018644L478.670400 208.701775L479.116800 211.010541
L480.456000 210.141106L481.795200 205.926716L482.241600 181.679991
L482.688000 223.682478L483.580800 183.218998L484.027200 235.552250
L484.473600 202.408148L485.812800 206.903191L486.259200 213.260285
L486.705600 204.505937L487.152000 214.940969L487.598400 202.954011
L488.044800 224.275140L488.491200 196.103856L489.384000 211.568936
L489.830400 207.558266L490.276800 208.773628L490.723200 183.081895
L491.169600 220.966105L492.062400 197.103754L492.508800 223.533505
L493.401600 190.793405L494.294400 216.114948L494.740800 202.295352
L495.187200 200.983175L495.633600 218.149080L496.526400 201.501590
L496.972800 216.246194L497.419200 206.869668L497.865600 208.439025
L498.312000 211.478360L498.758400 219.861638L499.204800 197.034165
L499.651200 210.215588L500.544000 211.997150L500.990400 206.420887
L501.436800 216.786207L501.883200 201.841163L502.329600 211.337496
L502.776000 209.356018L503.222400 211.563723L503.668800 201.743787
L504.115200 212.737097L504.561600 205.576262L505.008000 210.361203
L505.454400 200.805436L505.900800 217.577905L506.347200 200.515719
L507.240000 204.853019L507.686400 208.859111L508.132800 204.212657
L508.579200 163.714914L509.025600 228.846680L509.472000 191.096736
L509.918400 223.800460L510.364800 208.628590L510.811200 206.369459
L511.257600 182.418452L511.704000 207.539135L512.150400 210.833748
L512.596800 199.156684L513.043200 218.124078L513.489600 193.037276
L513.936000 207.517567L514.382400 204.509006L514.828800 208.679665
L515.275200 202.454226L515.721600 206.948785L516.614400 204.103045
L517.060800 179.503497L517.507200 216.741181L517.953600 171.265736
L517.953600 171.265736"/>
</g>
<g id="matplotlib.axis1">
<g id="xtick1">
<g id="line2d2">
<path style="fill: none; stroke: #000000; stroke-width: 0.500000; stroke-linejoin: round; stroke-linecap: butt; stroke-dasharray: 1.000000,3.000000; stroke-dashoffset: 0.000000; opacity: 1.000000" clip-path="url(#p50431ccdcb28178602d99d9270004dde)" d="M72.000000 388.800000L72.000000 43.200000"/>
</g>
<g id="line2d3">
<defs><path id="m30e32995789d870ad79a2e54c91cf9c6" d="M0.000000 0.000000L0.000000 -4.000000"/></defs>
<g ><use style="fill: none; stroke: #000000; stroke-width: 0.500000; stroke-linejoin: round; stroke-linecap: butt;  opacity: 1.000000" xlink:href="#m30e32995789d870ad79a2e54c91cf9c6" x="72.000000" y="388.800000"/>
</g></g>
<g id="line2d4">
<defs><path id="m9281cae24120827b11d5ea8a7ad3e96b" d="M0.000000 0.000000L0.000000 4.000000"/></defs>
<g ><use style="fill: none; stroke: #000000; stroke-width: 0.500000; stroke-linejoin: round; stroke-linecap: butt;  opacity: 1.000000" xlink:href="#m9281cae24120827b11d5ea8a7ad3e96b" x="72.000000" y="43.200000"/>
</g></g>
<g id="text1">
<defs>
<path id="c_7a2040fe3b94fcd41d0a72c84e93b115" d="M31.781250 -66.406250q-7.609375 0.000000 -11.453125 7.500000q-3.828125 7.484375 -3.828125 22.531250q0.000000 14.984375 3.828125 22.484375q3.843750 7.500000 11.453125 7.500000q7.671875 0.000000 11.500000 -7.500000q3.843750 -7.500000 3.843750 -22.484375q0.000000 -15.046875 -3.843750 -22.531250q-3.828125 -7.500000 -11.500000 -7.500000M31.781250 -74.218750q12.265625 0.000000 18.734375 9.703125q6.468750 9.687500 6.468750 28.140625q0.000000 18.406250 -6.468750 28.109375q-6.468750 9.687500 -18.734375 9.687500q-12.250000 0.000000 -18.718750 -9.687500q-6.468750 -9.703125 -6.468750 -28.109375q0.000000 -18.453125 6.468750 -28.140625q6.468750 -9.703125 18.718750 -9.703125"/>
</defs>
<g style="fill: #000000; opacity: 1.000000" transform="translate(68.976562,401.706250)scale(0.120000)">
<use xlink:href="#c_7a2040fe3b94fcd41d0a72c84e93b115"/>
</g>
</g>
</g>
<g id="xtick2">
<g id="line2d5">
<path style="fill: none; stroke: #000000; stroke-width: 0.500000; stroke-linejoin: round; stroke-linecap: butt; stroke-dasharray: 1.000000,3.000000; stroke-dashoffset: 0.000000; opacity: 1.000000" clip-path="url(#p50431ccdcb28178602d99d9270004dde)" d="M161.280000 388.800000L161.280000 43.200000"/>
</g>
<g id="line2d6">
<g ><use style="fill: none; stroke: #000000; stroke-width: 0.500000; stroke-linejoin: round; stroke-linecap: butt;  opacity: 1.000000" xlink:href="#m30e32995789d870ad79a2e54c91cf9c6" x="161.280000" y="388.800000"/>
</g></g>
<g id="line2d7">
<g ><use style="fill: none; stroke: #000000; stroke-width: 0.500000; stroke-linejoin: round; stroke-linecap: butt;  opacity: 1.000000" xlink:href="#m9281cae24120827b11d5ea8a7ad3e96b" x="161.280000" y="43.200000"/>
</g></g>
<g id="text2">
<defs>
<path id="c_ed3f3ed3ebfbd18bcb9c012009a68ad1" d="M19.187500 -8.296875l34.421875 0.000000l0.000000 8.296875l-46.281250 0.000000l0.000000 -8.296875q5.609375 -5.812500 15.296875 -15.593750q9.703125 -9.796875 12.187500 -12.640625q4.734375 -5.312500 6.609375 -9.000000q1.890625 -3.687500 1.890625 -7.250000q0.000000 -5.812500 -4.078125 -9.468750q-4.078125 -3.671875 -10.625000 -3.671875q-4.640625 0.000000 -9.796875 1.609375q-5.140625 1.609375 -11.000000 4.890625l0.000000 -9.968750q5.953125 -2.390625 11.125000 -3.609375q5.187500 -1.218750 9.484375 -1.218750q11.328125 0.000000 18.062500 5.671875q6.734375 5.656250 6.734375 15.125000q0.000000 4.500000 -1.687500 8.531250q-1.671875 4.015625 -6.125000 9.484375q-1.218750 1.421875 -7.765625 8.187500q-6.531250 6.765625 -18.453125 18.921875"/>
</defs>
<g style="fill: #000000; opacity: 1.000000" transform="translate(150.655000,401.706250)scale(0.120000)">
<use xlink:href="#c_ed3f3ed3ebfbd18bcb9c012009a68ad1"/>
<use xlink:href="#c_7a2040fe3b94fcd41d0a72c84e93b115" x="63.623047"/>
<use xlink:href="#c_7a2040fe3b94fcd41d0a72c84e93b115" x="127.246094"/>
</g>
</g>
</g>
<g id="xtick3">
<g id="line2d8">
<path style="fill: none; stroke: #000000; stroke-width: 0.500000; stroke-linejoin: round; stroke-linecap: butt; stroke-dasharray: 1.000000,3.000000; stroke-dashoffset: 0.000000; opacity: 1.000000" clip-path="url(#p50431ccdcb28178602d99d9270004dde)" d="M250.560000 388.800000L250.560000 43.200000"/>
</g>
<g id="line2d9">
<g ><use style="fill: none; stroke: #000000; stroke-width: 0.500000; stroke-linejoin: round; stroke-linecap: butt;  opacity: 1.000000" xlink:href="#m30e32995789d870ad79a2e54c91cf9c6" x="250.560000" y="388.800000"/>
</g></g>
<g id="line2d10">
<g ><use style="fill: none; stroke: #000000; stroke-width: 0.500000; stroke-linejoin: round; stroke-linecap: butt;  opacity: 1.000000" xlink:href="#m9281cae24120827b11d5ea8a7ad3e96b" x="250.560000" y="43.200000"/>
</g></g>
<g id="text3">
<defs>
<path id="c_a0416418d96557a09b8c1332d34883ba" d="M37.796875 -64.312500l-24.906250 38.921875l24.906250 0.000000zM35.203125 -72.906250l12.406250 0.000000l0.000000 47.515625l10.406250 0.000000l0.000000 8.203125l-10.406250 0.000000l0.000000 17.187500l-9.812500 0.000000l0.000000 -17.187500l-32.906250 0.000000l0.000000 -9.515625z"/>
</defs>
<g style="fill: #000000; opacity: 1.000000" transform="translate(239.794375,401.706250)scale(0.120000)">
<use xlink:href="#c_a0416418d96557a09b8c1332d34883ba"/>
<use xlink:href="#c_7a2040fe3b94fcd41d0a72c84e93b115" x="63.623047"/>
<use xlink:href="#c_7a2040fe3b94fcd41d0a72c84e93b115" x="127.246094"/>
</g>
</g>
</g>
<g id="xtick4">
<g id="line2d11">
<path style="fill: none; stroke: #000000; stroke-width: 0.500000; stroke-linejoin: round; stroke-linecap: butt; stroke-dasharray: 1.000000,3.000000; stroke-dashoffset: 0.000000; opacity: 1.000000" clip-path="url(#p50431ccdcb28178602d99d9270004dde)" d="M339.840000 388.800000L339.840000 43.200000"/>
</g>
<g id="line2d12">
<g ><use style="fill: none; stroke: #000000; stroke-width: 0.500000; stroke-linejoin: round; stroke-linecap: butt;  opacity: 1.000000" xlink:href="#m30e32995789d870ad79a2e54c91cf9c6" x="339.840000" y="388.800000"/>
</g></g>
<g id="line2d13">
<g ><use style="fill: none; stroke: #000000; stroke-width: 0.500000; stroke-linejoin: round; stroke-linecap: butt;  opacity: 1.000000" xlink:href="#m9281cae24120827b11d5ea8a7ad3e96b" x="339.840000" y="43.200000"/>
</g></g>
<g id="text4">
<defs>
<path id="c_cc8d6d580d1b10c8632f7a42cd53db8a" d="M33.015625 -40.375000q-6.640625 0.000000 -10.531250 4.546875q-3.875000 4.531250 -3.875000 12.437500q0.000000 7.859375 3.875000 12.437500q3.890625 4.562500 10.531250 4.562500q6.640625 0.000000 10.515625 -4.562500q3.875000 -4.578125 3.875000 -12.437500q0.000000 -7.906250 -3.875000 -12.437500q-3.875000 -4.546875 -10.515625 -4.546875M52.593750 -71.296875l0.000000 8.984375q-3.718750 -1.750000 -7.500000 -2.671875q-3.781250 -0.937500 -7.500000 -0.937500q-9.765625 0.000000 -14.921875 6.593750q-5.140625 6.593750 -5.875000 19.921875q2.875000 -4.250000 7.218750 -6.515625q4.359375 -2.265625 9.578125 -2.265625q10.984375 0.000000 17.359375 6.671875q6.375000 6.656250 6.375000 18.125000q0.000000 11.234375 -6.640625 18.031250q-6.640625 6.781250 -17.671875 6.781250q-12.656250 0.000000 -19.343750 -9.687500q-6.687500 -9.703125 -6.687500 -28.109375q0.000000 -17.281250 8.203125 -27.562500q8.203125 -10.281250 22.015625 -10.281250q3.718750 0.000000 7.500000 0.734375q3.781250 0.734375 7.890625 2.187500"/>
</defs>
<g style="fill: #000000; opacity: 1.000000" transform="translate(329.199375,401.706250)scale(0.120000)">
<use xlink:href="#c_cc8d6d580d1b10c8632f7a42cd53db8a"/>
<use xlink:href="#c_7a2040fe3b94fcd41d0a72c84e93b115" x="63.623047"/>
<use xlink:href="#c_7a2040fe3b94fcd41d0a72c84e93b115" x="127.246094"/>
</g>
</g>
</g>
<g id="xtick5">
<g id="line2d14">
<path style="fill: none; stroke: #000000; stroke-width: 0.500000; stroke-linejoin: round; stroke-linecap: butt; stroke-dasharray: 1.000000,3.000000; stroke-dashoffset: 0.000000; opacity: 1.000000" clip-path="url(#p50431ccdcb28178602d99d9270004dde)" d="M429.120000 388.800000L429.120000 43.200000"/>
</g>
<g id="line2d15">
<g ><use style="fill: none; stroke: #000000; stroke-width: 0.500000; stroke-linejoin: round; stroke-linecap: butt;  opacity: 1.000000" xlink:href="#m30e32995789d870ad79a2e54c91cf9c6" x="429.120000" y="388.800000"/>
</g></g>
<g id="line2d16">
<g ><use style="fill: none; stroke: #000000; stroke-width: 0.500000; stroke-linejoin: round; stroke-linecap: butt;  opacity: 1.000000" xlink:href="#m9281cae24120827b11d5ea8a7ad3e96b" x="429.120000" y="43.200000"/>
</g></g>
<g id="text5">
<defs>
<path id="c_bef35738d52871942e50b9de9b122bab" d="M31.781250 -34.625000q-7.031250 0.000000 -11.062500 3.765625q-4.015625 3.765625 -4.015625 10.343750q0.000000 6.593750 4.015625 10.359375q4.031250 3.765625 11.062500 3.765625q7.031250 0.000000 11.078125 -3.781250q4.062500 -3.796875 4.062500 -10.343750q0.000000 -6.578125 -4.031250 -10.343750q-4.015625 -3.765625 -11.109375 -3.765625M21.921875 -38.812500q-6.343750 -1.562500 -9.890625 -5.906250q-3.531250 -4.359375 -3.531250 -10.609375q0.000000 -8.734375 6.218750 -13.812500q6.234375 -5.078125 17.062500 -5.078125q10.890625 0.000000 17.093750 5.078125q6.203125 5.078125 6.203125 13.812500q0.000000 6.250000 -3.546875 10.609375q-3.531250 4.343750 -9.828125 5.906250q7.125000 1.656250 11.093750 6.500000q3.984375 4.828125 3.984375 11.796875q0.000000 10.609375 -6.468750 16.281250q-6.468750 5.656250 -18.531250 5.656250q-12.046875 0.000000 -18.531250 -5.656250q-6.468750 -5.671875 -6.468750 -16.281250q0.000000 -6.968750 4.000000 -11.796875q4.015625 -4.843750 11.140625 -6.500000M18.312500 -54.390625q0.000000 5.656250 3.531250 8.828125q3.546875 3.171875 9.937500 3.171875q6.359375 0.000000 9.937500 -3.171875q3.593750 -3.171875 3.593750 -8.828125q0.000000 -5.671875 -3.593750 -8.843750q-3.578125 -3.171875 -9.937500 -3.171875q-6.390625 0.000000 -9.937500 3.171875q-3.531250 3.171875 -3.531250 8.843750"/>
</defs>
<g style="fill: #000000; opacity: 1.000000" transform="translate(418.463750,401.706250)scale(0.120000)">
<use xlink:href="#c_bef35738d52871942e50b9de9b122bab"/>
<use xlink:href="#c_7a2040fe3b94fcd41d0a72c84e93b115" x="63.623047"/>
<use xlink:href="#c_7a2040fe3b94fcd41d0a72c84e93b115" x="127.246094"/>
</g>
</g>
</g>
<g id="xtick6">
<g id="line2d17">
<path style="fill: none; stroke: #000000; stroke-width: 0.500000; stroke-linejoin: round; stroke-linecap: butt; stroke-dasharray: 1.000000,3.000000; stroke-dashoffset: 0.000000; opacity: 1.000000" clip-path="url(#p50431ccdcb28178602d99d9270004dde)" d="M518.400000 388.800000L518.400000 43.200000"/>
</g>
<g id="line2d18">
<g ><use style="fill: none; stroke: #000000; stroke-width: 0.500000; stroke-linejoin: round; stroke-linecap: butt;  opacity: 1.000000" xlink:href="#m30e32995789d870ad79a2e54c91cf9c6" x="518.400000" y="388.800000"/>
</g></g>
<g id="line2d19">
<g ><use style="fill: none; stroke: #000000; stroke-width: 0.500000; stroke-linejoin: round; stroke-linecap: butt;  opacity: 1.000000" xlink:href="#m9281cae24120827b11d5ea8a7ad3e96b" x="518.400000" y="43.200000"/>
</g></g>
<g id="text6">
<defs>
<path id="c_42baa63129a918535c52adb20d687ea7" d="M12.406250 -8.296875l16.109375 0.000000l0.000000 -55.625000l-17.531250 3.515625l0.000000 -8.984375l17.437500 -3.515625l9.859375 0.000000l0.000000 64.609375l16.109375 0.000000l0.000000 8.296875l-41.984375 0.000000z"/>
</defs>
<g style="fill: #000000; opacity: 1.000000" transform="translate(504.173437,401.706250)scale(0.120000)">
<use xlink:href="#c_42baa63129a918535c52adb20d687ea7"/>
<use xlink:href="#c_7a2040fe3b94fcd41d0a72c84e93b115" x="63.623047"/>
<use xlink:href="#c_7a2040fe3b94fcd41d0a72c84e93b115" x="127.246094"/>
<use xlink:href="#c_7a2040fe3b94fcd41d0a72c84e93b115" x="190.869141"/>
</g>
</g>
</g>
</g>
<g id="matplotlib.axis2">
<g id="ytick1">
<g id="line2d20">
<path style="fill: none; stroke: #000000; stroke-width: 0.500000; stroke-linejoin: round; stroke-linecap: butt; stroke-dasharray: 1.000000,3.000000; stroke-dashoffset: 0.000000; opacity: 1.000000" clip-path="url(#p50431ccdcb28178602d99d9270004dde)" d="M72.000000 388.800000L518.400000 388.800000"/>
</g>
<g id="line2d21">
<defs><path id="m3400efa6b1638b3fea9e19e898273957" d="M0.000000 0.000000L4.000000 0.000000"/></defs>
<g ><use style="fill: none; stroke: #000000; stroke-width: 0.500000; stroke-linejoin: round; stroke-linecap: butt;  opacity: 1.000000" xlink:href="#m3400efa6b1638b3fea9e19e898273957" x="72.000000" y="388.800000"/>
</g></g>
<g id="line2d22">
<defs><path id="m20b58b2501143cb5e0a5e8f1ef6f1643" d="M0.000000 0.000000L-4.000000 0.000000"/></defs>
<g ><use style="fill: none; stroke: #000000; stroke-width: 0.500000; stroke-linejoin: round; stroke-linecap: butt;  opacity: 1.000000" xlink:href="#m20b58b2501143cb5e0a5e8f1ef6f1643" x="518.400000" y="388.800000"/>
</g></g>
<g id="text7">
<defs>
<path id="c_ed3e21196fb739f392806f09ca0594ef" d="M10.687500 -12.406250l10.312500 0.000000l0.000000 12.406250l-10.312500 0.000000z"/>
</defs>
<g style="fill: #000000; opacity: 1.000000" transform="translate(50.500000,393.167188)scale(0.120000)">
<use xlink:href="#c_7a2040fe3b94fcd41d0a72c84e93b115"/>
<use xlink:href="#c_ed3e21196fb739f392806f09ca0594ef" x="63.623047"/>
<use xlink:href="#c_7a2040fe3b94fcd41d0a72c84e93b115" x="95.410156"/>
</g>
</g>
</g>
<g id="ytick2">
<g id="line2d23">
<path style="fill: none; stroke: #000000; stroke-width: 0.500000; stroke-linejoin: round; stroke-linecap: butt; stroke-dasharray: 1.000000,3.000000; stroke-dashoffset: 0.000000; opacity: 1.000000" clip-path="url(#p50431ccdcb28178602d99d9270004dde)" d="M72.000000 331.200000L518.400000 331.200000"/>
</g>
<g id="line2d24">
<g ><use style="fill: none; stroke: #000000; stroke-width: 0.500000; stroke-linejoin: round; stroke-linecap: butt;  opacity: 1.000000" xlink:href="#m3400efa6b1638b3fea9e19e898273957" x="72.000000" y="331.200000"/>
</g></g>
<g id="line2d25">
<g ><use style="fill: none; stroke: #000000; stroke-width: 0.500000; stroke-linejoin: round; stroke-linecap: butt;  opacity: 1.000000" xlink:href="#m20b58b2501143cb5e0a5e8f1ef6f1643" x="518.400000" y="331.200000"/>
</g></g>
<g id="text8">
<g style="fill: #000000; opacity: 1.000000" transform="translate(50.906250,335.567188)scale(0.120000)">
<use xlink:href="#c_7a2040fe3b94fcd41d0a72c84e93b115"/>
<use xlink:href="#c_ed3e21196fb739f392806f09ca0594ef" x="63.623047"/>
<use xlink:href="#c_ed3f3ed3ebfbd18bcb9c012009a68ad1" x="95.410156"/>
</g>
</g>
</g>
<g id="ytick3">
<g id="line2d26">
<path style="fill: none; stroke: #000000; stroke-width: 0.500000; stroke-linejoin: round; stroke-linecap: butt; stroke-dasharray: 1.000000,3.000000; stroke-dashoffset: 0.000000; opacity: 1.000000" clip-path="url(#p50431ccdcb28178602d99d9270004dde)" d="M72.000000 273.600000L518.400000 273.600000"/>
</g>
<g id="line2d27">
<g ><use style="fill: none; stroke: #000000; stroke-width: 0.500000; stroke-linejoin: round; stroke-linecap: butt;  opacity: 1.000000" xlink:href="#m3400efa6b1638b3fea9e19e898273957" x="72.000000" y="273.600000"/>
</g></g>
<g id="line2d28">
<g ><use style="fill: none; stroke: #000000; stroke-width: 0.500000; stroke-linejoin: round; stroke-linecap: butt;  opacity: 1.000000" xlink:href="#m20b58b2501143cb5e0a5e8f1ef6f1643" x="518.400000" y="273.600000"/>
</g></g>
<g id="text9">
<g style="fill: #000000; opacity: 1.000000" transform="translate(50.375000,277.967188)scale(0.120000)">
<use xlink:href="#c_7a2040fe3b94fcd41d0a72c84e93b115"/>
<use xlink:href="#c_ed3e21196fb739f392806f09ca0594ef" x="63.623047"/>
<use xlink:href="#c_a0416418d96557a09b8c1332d34883ba" x="95.410156"/>
</g>
</g>
</g>
<g id="ytick4">
<g id="line2d29">
<path style="fill: none; stroke: #000000; stroke-width: 0.500000; stroke-linejoin: round; stroke-linecap: butt; stroke-dasharray: 1.000000,3.000000; stroke-dashoffset: 0.000000; opacity: 1.000000" clip-path="url(#p50431ccdcb28178602d99d9270004dde)" d="M72.000000 216.000000L518.400000 216.000000"/>
</g>
<g id="line2d30">
<g ><use style="fill: none; stroke: #000000; stroke-width: 0.500000; stroke-linejoin: round; stroke-linecap: butt;  opacity: 1.000000" xlink:href="#m3400efa6b1638b3fea9e19e898273957" x="72.000000" y="216.000000"/>
</g></g>
<g id="line2d31">
<g ><use style="fill: none; stroke: #000000; stroke-width: 0.500000; stroke-linejoin: round; stroke-linecap: butt;  opacity: 1.000000" xlink:href="#m20b58b2501143cb5e0a5e8f1ef6f1643" x="518.400000" y="216.000000"/>
</g></g>
<g id="text10">
<g style="fill: #000000; opacity: 1.000000" transform="translate(50.468750,220.367188)scale(0.120000)">
<use xlink:href="#c_7a2040fe3b94fcd41d0a72c84e93b115"/>
<use xlink:href="#c_ed3e21196fb739f392806f09ca0594ef" x="63.623047"/>
<use xlink:href="#c_cc8d6d580d1b10c8632f7a42cd53db8a" x="95.410156"/>
</g>
</g>
</g>
<g id="ytick5">
<g id="line2d32">
<path style="fill: none; stroke: #000000; stroke-width: 0.500000; stroke-linejoin: round; stroke-linecap: butt; stroke-dasharray: 1.000000,3.000000; stroke-dashoffset: 0.000000; opacity: 1.000000" clip-path="url(#p50431ccdcb28178602d99d9270004dde)" d="M72.000000 158.400000L518.400000 158.400000"/>
</g>
<g id="line2d33">
<g ><use style="fill: none; stroke: #000000; stroke-width: 0.500000; stroke-linejoin: round; stroke-linecap: butt;  opacity: 1.000000" xlink:href="#m3400efa6b1638b3fea9e19e898273957" x="72.000000" y="158.400000"/>
</g></g>
<g id="line2d34">
<g ><use style="fill: none; stroke: #000000; stroke-width: 0.500000; stroke-linejoin: round; stroke-linecap: butt;  opacity: 1.000000" xlink:href="#m20b58b2501143cb5e0a5e8f1ef6f1643" x="518.400000" y="158.400000"/>
</g></g>
<g id="text11">
<g style="fill: #000000; opacity: 1.000000" transform="translate(50.531250,162.767187)scale(0.120000)">
<use xlink:href="#c_7a2040fe3b94fcd41d0a72c84e93b115"/>
<use xlink:href="#c_ed3e21196fb739f392806f09ca0594ef" x="63.623047"/>
<use xlink:href="#c_bef35738d52871942e50b9de9b122bab" x="95.410156"/>
</g>
</g>
</g>
<g id="ytick6">
<g id="line2d35">
<path style="fill: none; stroke: #000000; stroke-width: 0.500000; stroke-linejoin: round; stroke-linecap: butt; stroke-dasharray: 1.000000,3.000000; stroke-dashoffset: 0.000000; opacity: 1.000000" clip-path="url(#p50431ccdcb28178602d99d9270004dde)" d="M72.000000 100.800000L518.400000 100.800000"/>
</g>
<g id="line2d36">
<g ><use style="fill: none; stroke: #000000; stroke-width: 0.500000; stroke-linejoin: round; stroke-linecap: butt;  opacity: 1.000000" xlink:href="#m3400efa6b1638b3fea9e19e898273957" x="72.000000" y="100.800000"/>
</g></g>
<g id="line2d37">
<g ><use style="fill: none; stroke: #000000; stroke-width: 0.500000; stroke-linejoin: round; stroke-linecap: butt;  opacity: 1.000000" xlink:href="#m20b58b2501143cb5e0a5e8f1ef6f1643" x="518.400000" y="100.800000"/>
</g></g>
<g id="text12">
<g style="fill: #000000; opacity: 1.000000" transform="translate(51.015625,105.167188)scale(0.120000)">
<use xlink:href="#c_42baa63129a918535c52adb20d687ea7"/>
<use xlink:href="#c_ed3e21196fb739f392806f09ca0594ef" x="63.623047"/>
<use xlink:href="#c_7a2040fe3b94fcd41d0a72c84e93b115" x="95.410156"/>
</g>
</g>
</g>
<g id="ytick7">
<g id="line2d38">
<path style="fill: none; stroke: #000000; stroke-width: 0.500000; stroke-linejoin: round; stroke-linecap: butt; stroke-dasharray: 1.000000,3.000000; stroke-dashoffset: 0.000000; opacity: 1.000000" clip-path="url(#p50431ccdcb28178602d99d9270004dde)" d="M72.000000 43.200000L518.400000 43.200000"/>
</g>
<g id="line2d39">
<g ><use style="fill: none; stroke: #000000; stroke-width: 0.500000; stroke-linejoin: round; stroke-linecap: butt;  opacity: 1.000000" xlink:href="#m3400efa6b1638b3fea9e19e898273957" x="72.000000" y="43.200000"/>
</g></g>
<g id="line2d40">
<g ><use style="fill: none; stroke: #000000; stroke-width: 0.500000; stroke-linejoin: round; stroke-linecap: butt;  opacity: 1.000000" xlink:href="#m20b58b2501143cb5e0a5e8f1ef6f1643" x="518.400000" y="43.200000"/>
</g></g>
<g id="text13">
<g style="fill: #000000; opacity: 1.000000" transform="translate(51.421875,47.653125)scale(0.120000)">
<use xlink:href="#c_42baa63129a918535c52adb20d687ea7"/>
<use xlink:href="#c_ed3e21196fb739f392806f09ca0594ef" x="63.623047"/>
<use xlink:href="#c_ed3f3ed3ebfbd18bcb9c012009a68ad1" x="95.410156"/>
</g>
</g>
</g>
</g>
<g id="patch3">
<path style="fill: none; stroke: #000000; stroke-width: 1.000000; stroke-linejoin: round; stroke-linecap: square;  opacity: 1.000000"  d="M72.000000 43.200000L518.400000 43.200000"/>
</g>
<g id="patch4">
<path style="fill: none; stroke: #000000; stroke-width: 1.000000; stroke-linejoin: round; stroke-linecap: square;  opacity: 1.000000"  d="M518.400000 388.800000L518.400000 43.200000"/>
</g>
<g id="patch5">
<path style="fill: none; stroke: #000000; stroke-width: 1.000000; stroke-linejoin: round; stroke-linecap: square;  opacity: 1.000000"  d="M72.000000 388.800000L518.400000 388.800000"/>
</g>
<g id="patch6">
<path style="fill: none; stroke: #000000; stroke-width: 1.000000; stroke-linejoin: round; stroke-linecap: square;  opacity: 1.000000"  d="M72.000000 388.800000L72.000000 43.200000"/>
</g>
</g>
</g>
</svg>
