<?xml version="1.0" standalone="no"?>
<!DOCTYPE svg PUBLIC "-//W3C//DTD SVG 1.1//EN"
  "http://www.w3.org/Graphics/SVG/1.1/DTD/svg11.dtd">
<!-- Created with matplotlib (http://matplotlib.sourceforge.net/) -->
<svg width="576pt" height="432pt" viewBox="0 0 576 432"
   xmlns="http://www.w3.org/2000/svg"
   xmlns:xlink="http://www.w3.org/1999/xlink"
   version="1.1"
   id="svg1">
<g id="figure1">
<g id="patch1">
<path style="fill: #ffffff; stroke: #ffffff; stroke-width: 1.000000; stroke-linejoin: round; stroke-linecap: square;  opacity: 1.000000"  d="M0.000000 432.000000L576.000000 432.000000L576.000000 0.000000
L0.000000 0.000000L0.000000 432.000000"/>
</g>
<g id="axes1">
<g id="patch2">
<path style="fill: #ffffff; opacity: 1.000000"  d="M72.000000 388.800000L518.400000 388.800000L518.400000 43.200000
L72.000000 43.200000L72.000000 388.800000"/>
</g>
<g id="line2d1">
<defs>
  <clipPath id="p50431ccdcb28178602d99d9270004dde">
<rect x="72.000000" y="43.200000" width="446.400000" height="345.600000"/>
  </clipPath>
</defs><path style="fill: none; stroke: #ff0000; stroke-width: 1.000000; stroke-linejoin: round; stroke-linecap: square;  opacity: 1.000000" clip-path="url(#p50431ccdcb28178602d99d9270004dde)" d="M72.000000 120.130418L72.892800 279.073217L73.339200 179.004018
L73.785600 177.289330L74.232000 186.594894L74.678400 115.788407
L75.124800 288.895508L75.571200 250.463947L76.017600 295.324004
L76.464000 176.912314L76.910400 285.762442L77.356800 288.838727
L77.803200 156.485582L78.249600 189.962901L78.696000 102.647400
L79.142400 272.011959L79.588800 294.771801L80.035200 87.181198
L80.481600 89.642376L80.928000 102.329578L81.374400 93.262298
L81.820800 166.387275L82.267200 86.363840L82.713600 97.243329
L83.160000 270.976037L83.606400 185.849068L84.052800 279.147632
L84.499200 151.773047L84.945600 179.545526L85.392000 262.787085
L85.838400 145.633798L86.284800 266.384376L86.731200 261.719171
L87.177600 126.193919L87.624000 270.124417L88.070400 260.064313
L88.516800 130.469933L88.963200 336.682626L89.409600 179.663538
L90.302400 355.667326L90.748800 178.449173L91.195200 174.809372
L91.641600 354.167193L92.088000 356.713399L92.534400 333.805458
L92.980800 169.363559L93.873600 354.512409L94.320000 353.001881
L94.766400 342.098757L95.659200 161.813534L96.105600 350.058027
L96.552000 197.012177L96.998400 345.840485L97.444800 195.336845
L97.891200 354.661003L98.337600 187.790049L98.784000 351.018923
L99.230400 377.382020L100.123200 345.970326L100.569600 351.013533
L101.016000 152.087177L101.462400 350.906696L101.908800 190.162309
L102.355200 346.257538L102.801600 201.619432L103.248000 344.739414
L103.694400 337.470614L104.140800 351.549209L104.587200 336.131740
L105.480000 340.373966L105.926400 348.540367L106.819200 170.913342
L107.265600 335.594082L108.158400 350.416586L108.604800 148.930511
L109.051200 342.617357L109.944000 339.498361L110.390400 346.023159
L110.836800 347.362419L111.283200 344.990202L111.729600 333.869680
L112.176000 346.220676L112.622400 334.809413L113.068800 267.165013
L113.515200 342.043776L113.961600 345.633961L114.408000 343.785699
L115.300800 346.217013L115.747200 343.127821L116.193600 330.865528
L116.640000 237.974465L117.086400 339.950473L117.532800 345.494405
L117.979200 334.379276L118.425600 343.484009L118.872000 210.296542
L119.318400 337.960020L119.764800 342.601441L120.211200 340.299362
L120.657600 185.661331L121.104000 339.555108L121.550400 330.821303
L121.996800 340.907411L122.443200 331.556009L122.889600 250.505018
L123.336000 340.931533L123.782400 338.591656L124.228800 347.192030
L125.121600 329.282956L125.568000 341.323291L126.014400 328.819278
L126.460800 344.797554L126.907200 262.561947L127.353600 332.990239
L128.246400 339.477677L128.692800 327.921559L129.139200 152.019959
L129.585600 326.544845L130.032000 155.391193L130.478400 336.460775
L131.371200 338.599810L131.817600 148.461253L132.264000 300.284134
L133.156800 337.590434L133.603200 330.802194L134.049600 333.310776
L134.496000 322.207523L135.388800 335.802095L135.835200 319.941995
L136.281600 147.356890L137.174400 323.060510L138.067200 152.570895
L138.513600 332.934063L138.960000 335.359785L139.406400 324.320735
L139.852800 333.021743L140.299200 320.860907L140.745600 330.997229
L141.192000 147.949498L141.638400 336.831735L142.084800 321.659290
L142.531200 334.760147L142.977600 252.566942L143.870400 320.336272
L144.763200 325.369118L145.209600 160.341950L145.656000 136.408269
L146.102400 325.526621L146.548800 282.977922L146.995200 323.411800
L147.441600 325.618239L147.888000 138.508696L148.334400 317.439862
L148.780800 256.876968L149.227200 319.970733L149.673600 318.808177
L150.566400 327.817731L151.012800 263.744190L151.459200 276.198822
L151.905600 319.344076L152.352000 321.375159L152.798400 256.743829
L153.691200 335.886284L154.137600 327.850963L154.584000 311.838500
L155.476800 327.069722L155.923200 314.743682L156.816000 323.619182
L157.262400 308.327997L158.155200 321.474875L158.601600 311.147290
L159.048000 318.053133L159.940800 129.994656L160.387200 187.686729
L160.833600 302.184963L161.726400 320.188900L162.172800 304.658643
L162.619200 316.848846L163.065600 318.940280L163.512000 307.648666
L164.404800 319.185449L164.851200 304.583761L165.744000 316.558817
L166.190400 302.505263L167.083200 315.772148L167.529600 300.082542
L168.422400 326.844768L169.315200 127.482068L170.208000 295.910711
L170.654400 305.479431L171.100800 303.217641L171.547200 146.268646
L171.993600 303.887084L172.440000 306.435917L172.886400 299.480918
L173.332800 307.850970L173.779200 299.732104L174.225600 322.457637
L174.672000 294.180168L175.118400 303.482455L175.564800 291.626740
L176.011200 294.392017L176.457600 110.362744L177.350400 304.426524
L178.689600 290.102505L179.136000 299.346450L179.582400 276.089178
L180.028800 281.544303L180.475200 278.239803L180.921600 287.464358
L181.368000 164.471325L181.814400 289.785158L183.153600 279.130844
L183.600000 125.044001L184.046400 267.233210L184.492800 274.425266
L184.939200 262.594129L185.385600 270.762502L185.832000 268.343346
L186.278400 162.435847L186.724800 263.815815L187.171200 277.628755
L188.064000 169.721116L188.510400 280.791820L188.956800 265.558993
L189.403200 261.951458L189.849600 114.837935L190.296000 267.150049
L190.742400 142.308635L191.188800 269.310457L192.081600 262.332328
L192.974400 345.212655L193.867200 356.481231L194.313600 324.840939
L194.760000 355.178097L195.206400 343.969212L195.652800 354.468570
L196.099200 344.263171L196.545600 354.166715L196.992000 228.667918
L197.438400 354.559172L197.884800 353.288339L198.331200 343.555881
L198.777600 353.897541L199.670400 332.343438L200.116800 354.525731
L200.563200 338.751106L201.009600 354.150382L201.456000 341.546820
L201.902400 190.369924L202.348800 342.710547L202.795200 164.482042
L203.241600 351.181160L203.688000 348.195249L204.134400 167.915198
L204.580800 340.764302L205.027200 338.405392L205.473600 224.782956
L205.920000 345.006706L206.366400 303.720557L206.812800 346.822481
L207.259200 348.290834L207.705600 181.773459L208.152000 340.345042
L208.598400 349.678174L209.044800 338.628574L209.491200 347.285921
L209.937600 338.298361L210.384000 347.352037L210.830400 340.008165
L211.276800 170.173020L211.723200 345.831328L212.169600 347.928525
L212.616000 345.386536L213.062400 335.045669L213.508800 346.691611
L213.955200 338.173839L214.401600 341.696579L214.848000 335.377067
L215.294400 346.691632L215.740800 336.817277L216.187200 316.206416
L216.633600 277.962297L217.080000 346.711544L217.526400 340.501458
L218.865600 156.127443L219.312000 338.549668L219.758400 330.403053
L220.204800 235.491768L220.651200 337.531840L221.097600 343.999406
L221.544000 342.871015L221.990400 339.466696L222.436800 180.814800
L222.883200 154.578920L223.776000 337.008051L224.222400 338.714496
L224.668800 345.091889L225.115200 329.826735L225.561600 343.776193
L226.008000 330.730877L226.454400 343.902520L226.900800 330.753766
L227.347200 343.426713L227.793600 327.621434L228.240000 339.991369
L228.686400 327.506246L229.132800 339.121645L229.579200 328.700187
L230.472000 254.834515L230.918400 334.215323L231.364800 329.961214
L231.811200 345.380671L232.257600 334.673904L232.704000 217.852066
L233.150400 337.095375L234.043200 129.754001L234.489600 293.216445
L234.936000 330.615854L235.382400 337.882672L236.275200 327.276662
L236.721600 337.909652L237.168000 329.770628L237.614400 340.919640
L238.060800 323.253714L238.507200 333.571096L238.953600 322.906304
L239.846400 334.401915L240.739200 140.144664L241.185600 330.865925
L241.632000 254.536407L242.078400 333.067277L242.524800 143.967901
L242.971200 331.778934L243.864000 258.374306L244.756800 351.782892
L245.203200 343.353064L245.649600 323.143800L246.096000 334.559230
L246.542400 320.812798L246.988800 333.376821L247.881600 231.955729
L248.774400 323.730911L249.220800 321.127244L249.667200 144.598033
L250.113600 195.368734L250.560000 315.985427L251.006400 323.270972
L251.452800 215.435883L251.899200 199.028300L252.345600 313.125688
L252.792000 151.096774L253.238400 319.852182L253.684800 321.185433
L254.131200 323.878314L254.577600 314.642694L255.470400 324.587529
L255.916800 314.176101L256.363200 319.668991L256.809600 139.832778
L257.256000 326.340904L257.702400 311.928892L258.148800 149.046380
L258.595200 321.511625L259.041600 326.136317L259.488000 310.711919
L260.380800 323.732639L260.827200 296.619983L261.720000 326.799950
L262.166400 302.541141L263.059200 322.833786L263.505600 307.599197
L263.952000 161.153431L264.398400 318.954606L264.844800 317.649076
L265.291200 300.925414L266.184000 321.151826L266.630400 122.444652
L267.076800 313.358225L267.523200 230.936083L267.969600 254.719858
L268.416000 309.525521L268.862400 313.699321L269.308800 288.944584
L269.755200 309.057331L270.201600 243.173533L270.648000 255.507094
L271.094400 313.523485L271.540800 165.823985L271.987200 308.990328
L273.326400 317.564668L273.772800 214.388915L274.219200 303.361301
L274.665600 310.936368L275.112000 286.169622L275.558400 313.123516
L276.004800 304.914449L276.451200 289.880780L276.897600 300.327728
L277.344000 297.343655L277.790400 303.245417L278.683200 208.318757
L279.129600 291.636798L280.022400 296.967648L280.915200 295.034687
L281.361600 326.179568L281.808000 300.521630L282.254400 183.441092
L282.700800 287.378086L283.147200 288.859204L283.593600 109.972173
L284.040000 278.914178L284.486400 290.354914L284.932800 83.089339
L285.379200 294.931243L285.825600 286.928459L286.272000 100.211518
L286.718400 277.068698L287.164800 279.888222L287.611200 277.343115
L288.057600 105.154693L288.950400 278.897309L289.396800 237.015568
L289.843200 158.045627L290.289600 275.579100L290.736000 224.878602
L291.182400 271.865276L291.628800 283.001637L292.075200 267.394182
L292.521600 271.658847L292.968000 87.164769L293.414400 82.308455
L294.307200 271.455963L294.753600 186.611337L295.200000 263.437614
L295.646400 261.547184L296.092800 162.992291L296.539200 342.532709
L296.985600 233.012396L297.432000 323.707123L297.878400 183.442128
L298.324800 341.017271L298.771200 213.969533L299.217600 355.647296
L300.110400 270.972576L300.556800 273.495609L301.003200 374.116468
L301.449600 375.320380L301.896000 306.060255L302.342400 164.098048
L302.788800 348.863246L303.681600 352.376850L304.128000 351.043401
L304.574400 352.899535L305.467200 349.790679L305.913600 269.901877
L306.360000 339.912573L307.252800 349.539331L307.699200 289.854288
L308.145600 349.151609L308.592000 353.190762L309.038400 247.412454
L309.931200 347.723251L310.377600 216.569061L310.824000 343.683036
L311.270400 335.339453L311.716800 347.299819L312.609600 325.176476
L313.502400 348.462810L313.948800 241.395279L314.395200 360.592651
L314.841600 341.520870L315.734400 348.954889L316.180800 238.266951
L316.627200 344.300800L317.073600 341.707309L317.520000 343.842698
L318.412800 321.656105L319.305600 345.016647L319.752000 346.857142
L320.644800 343.849563L321.091200 157.569060L321.537600 342.374368
L321.984000 187.664042L322.430400 214.418554L322.876800 342.550089
L323.769600 148.787583L324.216000 340.818108L324.662400 316.726041
L325.108800 335.214496L325.555200 236.765787L326.001600 338.736199
L326.894400 343.835609L327.340800 330.853485L327.787200 341.567961
L328.233600 332.761728L328.680000 342.288221L329.126400 330.469346
L329.572800 344.347263L330.019200 337.145438L330.912000 340.092612
L331.358400 157.118814L331.804800 336.861996L332.251200 339.074862
L332.697600 327.855490L333.144000 339.183144L334.036800 229.344333
L334.483200 281.155229L334.929600 161.864806L335.376000 340.415600
L336.268800 324.046019L336.715200 334.808798L337.161600 317.148172
L337.608000 213.170361L338.054400 228.146081L339.393600 335.211626
L340.286400 326.120941L340.732800 338.390896L341.179200 327.925155
L341.625600 337.006096L342.072000 321.468556L342.518400 336.006773
L342.964800 321.133577L343.411200 334.229208L343.857600 323.857624
L344.304000 332.546311L344.750400 334.516677L345.196800 140.799753
L345.643200 325.446802L346.089600 327.093794L346.536000 185.279777
L347.428800 326.346082L347.875200 139.221318L348.321600 323.808154
L348.768000 266.716146L349.214400 328.248690L349.660800 329.939949
L350.107200 345.993939L350.553600 190.892344L351.000000 319.361557
L351.446400 171.319909L352.339200 316.958381L352.785600 326.590511
L353.232000 288.982721L353.678400 320.790336L354.124800 324.727969
L354.571200 311.850675L355.017600 322.390871L355.464000 262.795711
L355.910400 311.346846L356.356800 313.100609L356.803200 323.175673
L357.249600 321.864473L357.696000 128.109948L358.142400 162.184082
L358.588800 323.939300L359.035200 310.008525L359.481600 320.757097
L360.374400 129.480630L361.267200 317.972402L361.713600 316.900443
L362.160000 322.862377L362.606400 137.551252L363.052800 326.590176
L363.499200 310.830756L363.945600 134.980448L364.838400 308.380535
L365.284800 237.975706L365.731200 312.284393L366.624000 317.935706
L367.070400 323.699043L367.516800 210.697384L367.963200 313.394550
L368.409600 129.449383L368.856000 312.010123L369.302400 301.330541
L369.748800 316.148384L370.195200 128.387698L370.641600 309.736025
L371.088000 244.586030L371.534400 313.165736L371.980800 309.170472
L372.427200 185.995030L372.873600 310.904449L373.320000 301.288787
L373.766400 144.764855L374.212800 308.278810L374.659200 306.116445
L375.552000 317.008771L375.998400 299.983671L376.444800 306.876631
L376.891200 131.035898L377.337600 132.869394L377.784000 306.002868
L378.230400 292.772068L378.676800 308.379422L379.123200 264.915267
L379.569600 306.576929L380.016000 247.949145L380.462400 304.689610
L380.908800 303.472815L381.801600 299.969163L382.248000 284.446945
L382.694400 299.161713L383.140800 296.933314L384.033600 115.289010
L384.926400 276.807630L385.819200 290.201431L386.265600 292.422951
L386.712000 289.603884L387.158400 190.809896L387.604800 284.018895
L388.051200 108.963338L388.497600 294.788156L388.944000 283.083043
L389.390400 109.379434L389.836800 287.072552L390.283200 146.533479
L390.729600 275.365531L391.176000 237.086056L392.068800 95.475559
L393.408000 274.139225L394.300800 275.832735L395.193600 94.607158
L395.640000 280.441416L396.086400 285.836804L396.532800 274.825271
L396.979200 75.506970L397.425600 268.029936L397.872000 256.118873
L398.764800 268.369053L399.211200 241.593393L399.657600 264.205996
L400.104000 136.996017L400.550400 210.225631L400.996800 384.696044
L401.443200 352.253756L401.889600 345.995937L402.336000 171.493050
L402.782400 354.241445L403.228800 352.462808L404.121600 355.356736
L404.568000 231.477966L405.014400 354.993768L406.353600 294.128524
L406.800000 166.126205L407.246400 347.464724L408.139200 354.981090
L408.585600 159.997661L409.032000 341.922425L409.478400 353.924104
L409.924800 341.429939L410.371200 349.506810L410.817600 335.963702
L411.264000 349.010355L411.710400 339.100893L412.156800 160.332536
L412.603200 326.803913L413.496000 346.200308L414.835200 350.039204
L415.281600 338.406514L415.728000 345.104639L416.174400 342.443943
L416.620800 348.154727L417.067200 339.466221L417.513600 349.358809
L417.960000 336.215203L418.406400 350.860815L418.852800 336.084740
L419.299200 347.440092L419.745600 333.467676L420.192000 348.508356
L420.638400 333.237429L421.084800 168.147346L421.531200 336.565339
L421.977600 345.562481L422.424000 346.990549L422.870400 336.263909
L423.316800 300.817897L423.763200 335.155791L424.209600 343.301129
L424.656000 345.130670L425.102400 335.358446L425.548800 345.009149
L425.995200 335.046961L426.441600 345.221837L426.888000 333.024791
L427.334400 340.273470L427.780800 329.874389L428.227200 338.506854
L428.673600 336.860595L429.120000 345.802376L429.566400 329.374973
L430.012800 227.309329L430.459200 364.513935L430.905600 341.080632
L432.244800 330.098630L432.691200 341.271694L433.137600 329.199843
L433.584000 161.324546L434.030400 336.506967L434.476800 344.745129
L434.923200 213.961912L435.369600 339.753551L435.816000 343.269829
L436.262400 340.488839L436.708800 142.949761L437.155200 337.476127
L438.048000 334.791996L438.494400 325.634239L438.940800 339.408203
L439.387200 308.174220L439.833600 336.389236L440.280000 156.320471
L440.726400 335.017433L441.172800 337.967722L442.065600 326.605918
L442.512000 339.671866L442.958400 338.544180L443.404800 325.981775
L443.851200 243.987525L444.297600 365.057995L444.744000 336.557197
L445.190400 340.122085L446.083200 334.415917L446.529600 163.108294
L446.976000 331.854755L447.422400 327.364305L447.868800 334.272742
L448.315200 137.636311L448.761600 334.883425L449.208000 321.849248
L449.654400 332.918732L450.100800 320.708671L450.547200 330.298473
L450.993600 214.986711L451.440000 336.763896L451.886400 332.565234
L452.779200 308.092941L453.225600 333.467910L453.672000 319.847614
L454.118400 323.845856L454.564800 333.989571L455.011200 320.814383
L455.904000 326.760755L456.350400 286.353171L456.796800 318.866254
L457.243200 313.488993L458.136000 325.990098L458.582400 311.864812
L459.028800 322.039570L459.475200 298.555224L460.368000 322.288489
L460.814400 325.332853L461.260800 304.579896L461.707200 300.974669
L462.153600 141.237645L462.600000 320.929598L463.046400 220.518548
L463.492800 342.340715L463.939200 316.821420L464.832000 322.657391
L465.278400 320.178720L466.171200 301.556472L466.617600 322.944232
L467.064000 299.696057L467.510400 328.349056L467.956800 318.954183
L468.403200 322.305901L468.849600 304.456895L469.742400 322.536646
L470.188800 309.818238L471.081600 319.313897L471.528000 307.971530
L472.420800 319.585114L472.867200 303.708514L473.313600 313.872798
L474.206400 307.075429L474.652800 313.083274L475.099200 323.711287
L475.545600 303.652585L475.992000 313.820521L476.438400 145.963110
L476.884800 294.426144L477.331200 308.480831L478.224000 311.364037
L478.670400 316.086774L479.116800 301.142408L479.563200 314.151826
L480.456000 294.708196L480.902400 316.521060L481.348800 304.689105
L481.795200 309.012396L482.241600 294.157170L482.688000 321.445667
L483.134400 299.302332L483.580800 311.167031L484.027200 297.846221
L484.473600 303.445394L484.920000 321.033564L485.812800 286.698137
L486.259200 296.231681L487.152000 293.735844L488.044800 321.498275
L488.937600 288.180428L489.384000 286.945940L489.830400 290.278833
L490.723200 263.234430L491.169600 288.496614L491.616000 285.798428
L492.062400 290.511094L492.508800 287.300654L492.955200 291.743500
L493.401600 285.429048L493.848000 288.221205L494.294400 269.860736
L494.740800 278.237839L495.187200 273.734188L496.080000 282.818192
L496.526400 266.560563L496.972800 265.384391L497.419200 273.907139
L497.865600 266.551792L498.312000 272.009203L498.758400 270.517305
L499.204800 113.086535L499.651200 104.583821L500.097600 277.635403
L500.990400 70.527516L501.436800 264.853937L501.883200 145.795968
L502.329600 266.407605L502.776000 259.648432L503.222400 262.218271
L503.668800 211.603270L504.115200 351.788089L504.561600 354.772735
L505.008000 342.990177L505.454400 352.797913L505.900800 342.863270
L506.347200 355.041529L506.793600 168.819781L507.240000 350.822072
L507.686400 354.402380L509.025600 353.135869L509.472000 354.521083
L509.918400 348.467715L510.364800 295.877761L511.257600 352.902045
L511.704000 354.462921L512.596800 224.623557L513.043200 353.391103
L513.489600 351.689305L513.936000 345.735363L514.828800 349.144840
L515.721600 291.770996L516.168000 235.725010L516.614400 352.736559
L517.060800 349.801832L517.953600 348.579285L517.953600 348.579285"/>
</g>
<g id="matplotlib.axis1">
<g id="xtick1">
<g id="line2d2">
<path style="fill: none; stroke: #000000; stroke-width: 0.500000; stroke-linejoin: round; stroke-linecap: butt; stroke-dasharray: 1.000000,3.000000; stroke-dashoffset: 0.000000; opacity: 1.000000" clip-path="url(#p50431ccdcb28178602d99d9270004dde)" d="M72.000000 388.800000L72.000000 43.200000"/>
</g>
<g id="line2d3">
<defs><path id="m30e32995789d870ad79a2e54c91cf9c6" d="M0.000000 0.000000L0.000000 -4.000000"/></defs>
<g ><use style="fill: none; stroke: #000000; stroke-width: 0.500000; stroke-linejoin: round; stroke-linecap: butt;  opacity: 1.000000" xlink:href="#m30e32995789d870ad79a2e54c91cf9c6" x="72.000000" y="388.800000"/>
</g></g>
<g id="line2d4">
<defs><path id="m9281cae24120827b11d5ea8a7ad3e96b" d="M0.000000 0.000000L0.000000 4.000000"/></defs>
<g ><use style="fill: none; stroke: #000000; stroke-width: 0.500000; stroke-linejoin: round; stroke-linecap: butt;  opacity: 1.000000" xlink:href="#m9281cae24120827b11d5ea8a7ad3e96b" x="72.000000" y="43.200000"/>
</g></g>
<g id="text1">
<defs>
<path id="c_7a2040fe3b94fcd41d0a72c84e93b115" d="M31.781250 -66.406250q-7.609375 0.000000 -11.453125 7.500000q-3.828125 7.484375 -3.828125 22.531250q0.000000 14.984375 3.828125 22.484375q3.843750 7.500000 11.453125 7.500000q7.671875 0.000000 11.500000 -7.500000q3.843750 -7.500000 3.843750 -22.484375q0.000000 -15.046875 -3.843750 -22.531250q-3.828125 -7.500000 -11.500000 -7.500000M31.781250 -74.218750q12.265625 0.000000 18.734375 9.703125q6.468750 9.687500 6.468750 28.140625q0.000000 18.406250 -6.468750 28.109375q-6.468750 9.687500 -18.734375 9.687500q-12.250000 0.000000 -18.718750 -9.687500q-6.468750 -9.703125 -6.468750 -28.109375q0.000000 -18.453125 6.468750 -28.140625q6.468750 -9.703125 18.718750 -9.703125"/>
</defs>
<g style="fill: #000000; opacity: 1.000000" transform="translate(68.976562,401.706250)scale(0.120000)">
<use xlink:href="#c_7a2040fe3b94fcd41d0a72c84e93b115"/>
</g>
</g>
</g>
<g id="xtick2">
<g id="line2d5">
<path style="fill: none; stroke: #000000; stroke-width: 0.500000; stroke-linejoin: round; stroke-linecap: butt; stroke-dasharray: 1.000000,3.000000; stroke-dashoffset: 0.000000; opacity: 1.000000" clip-path="url(#p50431ccdcb28178602d99d9270004dde)" d="M161.280000 388.800000L161.280000 43.200000"/>
</g>
<g id="line2d6">
<g ><use style="fill: none; stroke: #000000; stroke-width: 0.500000; stroke-linejoin: round; stroke-linecap: butt;  opacity: 1.000000" xlink:href="#m30e32995789d870ad79a2e54c91cf9c6" x="161.280000" y="388.800000"/>
</g></g>
<g id="line2d7">
<g ><use style="fill: none; stroke: #000000; stroke-width: 0.500000; stroke-linejoin: round; stroke-linecap: butt;  opacity: 1.000000" xlink:href="#m9281cae24120827b11d5ea8a7ad3e96b" x="161.280000" y="43.200000"/>
</g></g>
<g id="text2">
<defs>
<path id="c_ed3f3ed3ebfbd18bcb9c012009a68ad1" d="M19.187500 -8.296875l34.421875 0.000000l0.000000 8.296875l-46.281250 0.000000l0.000000 -8.296875q5.609375 -5.812500 15.296875 -15.593750q9.703125 -9.796875 12.187500 -12.640625q4.734375 -5.312500 6.609375 -9.000000q1.890625 -3.687500 1.890625 -7.250000q0.000000 -5.812500 -4.078125 -9.468750q-4.078125 -3.671875 -10.625000 -3.671875q-4.640625 0.000000 -9.796875 1.609375q-5.140625 1.609375 -11.000000 4.890625l0.000000 -9.968750q5.953125 -2.390625 11.125000 -3.609375q5.187500 -1.218750 9.484375 -1.218750q11.328125 0.000000 18.062500 5.671875q6.734375 5.656250 6.734375 15.125000q0.000000 4.500000 -1.687500 8.531250q-1.671875 4.015625 -6.125000 9.484375q-1.218750 1.421875 -7.765625 8.187500q-6.531250 6.765625 -18.453125 18.921875"/>
</defs>
<g style="fill: #000000; opacity: 1.000000" transform="translate(150.655000,401.706250)scale(0.120000)">
<use xlink:href="#c_ed3f3ed3ebfbd18bcb9c012009a68ad1"/>
<use xlink:href="#c_7a2040fe3b94fcd41d0a72c84e93b115" x="63.623047"/>
<use xlink:href="#c_7a2040fe3b94fcd41d0a72c84e93b115" x="127.246094"/>
</g>
</g>
</g>
<g id="xtick3">
<g id="line2d8">
<path style="fill: none; stroke: #000000; stroke-width: 0.500000; stroke-linejoin: round; stroke-linecap: butt; stroke-dasharray: 1.000000,3.000000; stroke-dashoffset: 0.000000; opacity: 1.000000" clip-path="url(#p50431ccdcb28178602d99d9270004dde)" d="M250.560000 388.800000L250.560000 43.200000"/>
</g>
<g id="line2d9">
<g ><use style="fill: none; stroke: #000000; stroke-width: 0.500000; stroke-linejoin: round; stroke-linecap: butt;  opacity: 1.000000" xlink:href="#m30e32995789d870ad79a2e54c91cf9c6" x="250.560000" y="388.800000"/>
</g></g>
<g id="line2d10">
<g ><use style="fill: none; stroke: #000000; stroke-width: 0.500000; stroke-linejoin: round; stroke-linecap: butt;  opacity: 1.000000" xlink:href="#m9281cae24120827b11d5ea8a7ad3e96b" x="250.560000" y="43.200000"/>
</g></g>
<g id="text3">
<defs>
<path id="c_a0416418d96557a09b8c1332d34883ba" d="M37.796875 -64.312500l-24.906250 38.921875l24.906250 0.000000zM35.203125 -72.906250l12.406250 0.000000l0.000000 47.515625l10.406250 0.000000l0.000000 8.203125l-10.406250 0.000000l0.000000 17.187500l-9.812500 0.000000l0.000000 -17.187500l-32.906250 0.000000l0.000000 -9.515625z"/>
</defs>
<g style="fill: #000000; opacity: 1.000000" transform="translate(239.794375,401.706250)scale(0.120000)">
<use xlink:href="#c_a0416418d96557a09b8c1332d34883ba"/>
<use xlink:href="#c_7a2040fe3b94fcd41d0a72c84e93b115" x="63.623047"/>
<use xlink:href="#c_7a2040fe3b94fcd41d0a72c84e93b115" x="127.246094"/>
</g>
</g>
</g>
<g id="xtick4">
<g id="line2d11">
<path style="fill: none; stroke: #000000; stroke-width: 0.500000; stroke-linejoin: round; stroke-linecap: butt; stroke-dasharray: 1.000000,3.000000; stroke-dashoffset: 0.000000; opacity: 1.000000" clip-path="url(#p50431ccdcb28178602d99d9270004dde)" d="M339.840000 388.800000L339.840000 43.200000"/>
</g>
<g id="line2d12">
<g ><use style="fill: none; stroke: #000000; stroke-width: 0.500000; stroke-linejoin: round; stroke-linecap: butt;  opacity: 1.000000" xlink:href="#m30e32995789d870ad79a2e54c91cf9c6" x="339.840000" y="388.800000"/>
</g></g>
<g id="line2d13">
<g ><use style="fill: none; stroke: #000000; stroke-width: 0.500000; stroke-linejoin: round; stroke-linecap: butt;  opacity: 1.000000" xlink:href="#m9281cae24120827b11d5ea8a7ad3e96b" x="339.840000" y="43.200000"/>
</g></g>
<g id="text4">
<defs>
<path id="c_cc8d6d580d1b10c8632f7a42cd53db8a" d="M33.015625 -40.375000q-6.640625 0.000000 -10.531250 4.546875q-3.875000 4.531250 -3.875000 12.437500q0.000000 7.859375 3.875000 12.437500q3.890625 4.562500 10.531250 4.562500q6.640625 0.000000 10.515625 -4.562500q3.875000 -4.578125 3.875000 -12.437500q0.000000 -7.906250 -3.875000 -12.437500q-3.875000 -4.546875 -10.515625 -4.546875M52.593750 -71.296875l0.000000 8.984375q-3.718750 -1.750000 -7.500000 -2.671875q-3.781250 -0.937500 -7.500000 -0.937500q-9.765625 0.000000 -14.921875 6.593750q-5.140625 6.593750 -5.875000 19.921875q2.875000 -4.250000 7.218750 -6.515625q4.359375 -2.265625 9.578125 -2.265625q10.984375 0.000000 17.359375 6.671875q6.375000 6.656250 6.375000 18.125000q0.000000 11.234375 -6.640625 18.031250q-6.640625 6.781250 -17.671875 6.781250q-12.656250 0.000000 -19.343750 -9.687500q-6.687500 -9.703125 -6.687500 -28.109375q0.000000 -17.281250 8.203125 -27.562500q8.203125 -10.281250 22.015625 -10.281250q3.718750 0.000000 7.500000 0.734375q3.781250 0.734375 7.890625 2.187500"/>
</defs>
<g style="fill: #000000; opacity: 1.000000" transform="translate(329.199375,401.706250)scale(0.120000)">
<use xlink:href="#c_cc8d6d580d1b10c8632f7a42cd53db8a"/>
<use xlink:href="#c_7a2040fe3b94fcd41d0a72c84e93b115" x="63.623047"/>
<use xlink:href="#c_7a2040fe3b94fcd41d0a72c84e93b115" x="127.246094"/>
</g>
</g>
</g>
<g id="xtick5">
<g id="line2d14">
<path style="fill: none; stroke: #000000; stroke-width: 0.500000; stroke-linejoin: round; stroke-linecap: butt; stroke-dasharray: 1.000000,3.000000; stroke-dashoffset: 0.000000; opacity: 1.000000" clip-path="url(#p50431ccdcb28178602d99d9270004dde)" d="M429.120000 388.800000L429.120000 43.200000"/>
</g>
<g id="line2d15">
<g ><use style="fill: none; stroke: #000000; stroke-width: 0.500000; stroke-linejoin: round; stroke-linecap: butt;  opacity: 1.000000" xlink:href="#m30e32995789d870ad79a2e54c91cf9c6" x="429.120000" y="388.800000"/>
</g></g>
<g id="line2d16">
<g ><use style="fill: none; stroke: #000000; stroke-width: 0.500000; stroke-linejoin: round; stroke-linecap: butt;  opacity: 1.000000" xlink:href="#m9281cae24120827b11d5ea8a7ad3e96b" x="429.120000" y="43.200000"/>
</g></g>
<g id="text5">
<defs>
<path id="c_bef35738d52871942e50b9de9b122bab" d="M31.781250 -34.625000q-7.031250 0.000000 -11.062500 3.765625q-4.015625 3.765625 -4.015625 10.343750q0.000000 6.593750 4.015625 10.359375q4.031250 3.765625 11.062500 3.765625q7.031250 0.000000 11.078125 -3.781250q4.062500 -3.796875 4.062500 -10.343750q0.000000 -6.578125 -4.031250 -10.343750q-4.015625 -3.765625 -11.109375 -3.765625M21.921875 -38.812500q-6.343750 -1.562500 -9.890625 -5.906250q-3.531250 -4.359375 -3.531250 -10.609375q0.000000 -8.734375 6.218750 -13.812500q6.234375 -5.078125 17.062500 -5.078125q10.890625 0.000000 17.093750 5.078125q6.203125 5.078125 6.203125 13.812500q0.000000 6.250000 -3.546875 10.609375q-3.531250 4.343750 -9.828125 5.906250q7.125000 1.656250 11.093750 6.500000q3.984375 4.828125 3.984375 11.796875q0.000000 10.609375 -6.468750 16.281250q-6.468750 5.656250 -18.531250 5.656250q-12.046875 0.000000 -18.531250 -5.656250q-6.468750 -5.671875 -6.468750 -16.281250q0.000000 -6.968750 4.000000 -11.796875q4.015625 -4.843750 11.140625 -6.500000M18.312500 -54.390625q0.000000 5.656250 3.531250 8.828125q3.546875 3.171875 9.937500 3.171875q6.359375 0.000000 9.937500 -3.171875q3.593750 -3.171875 3.593750 -8.828125q0.000000 -5.671875 -3.593750 -8.843750q-3.578125 -3.171875 -9.937500 -3.171875q-6.390625 0.000000 -9.937500 3.171875q-3.531250 3.171875 -3.531250 8.843750"/>
</defs>
<g style="fill: #000000; opacity: 1.000000" transform="translate(418.463750,401.706250)scale(0.120000)">
<use xlink:href="#c_bef35738d52871942e50b9de9b122bab"/>
<use xlink:href="#c_7a2040fe3b94fcd41d0a72c84e93b115" x="63.623047"/>
<use xlink:href="#c_7a2040fe3b94fcd41d0a72c84e93b115" x="127.246094"/>
</g>
</g>
</g>
<g id="xtick6">
<g id="line2d17">
<path style="fill: none; stroke: #000000; stroke-width: 0.500000; stroke-linejoin: round; stroke-linecap: butt; stroke-dasharray: 1.000000,3.000000; stroke-dashoffset: 0.000000; opacity: 1.000000" clip-path="url(#p50431ccdcb28178602d99d9270004dde)" d="M518.400000 388.800000L518.400000 43.200000"/>
</g>
<g id="line2d18">
<g ><use style="fill: none; stroke: #000000; stroke-width: 0.500000; stroke-linejoin: round; stroke-linecap: butt;  opacity: 1.000000" xlink:href="#m30e32995789d870ad79a2e54c91cf9c6" x="518.400000" y="388.800000"/>
</g></g>
<g id="line2d19">
<g ><use style="fill: none; stroke: #000000; stroke-width: 0.500000; stroke-linejoin: round; stroke-linecap: butt;  opacity: 1.000000" xlink:href="#m9281cae24120827b11d5ea8a7ad3e96b" x="518.400000" y="43.200000"/>
</g></g>
<g id="text6">
<defs>
<path id="c_42baa63129a918535c52adb20d687ea7" d="M12.406250 -8.296875l16.109375 0.000000l0.000000 -55.625000l-17.531250 3.515625l0.000000 -8.984375l17.437500 -3.515625l9.859375 0.000000l0.000000 64.609375l16.109375 0.000000l0.000000 8.296875l-41.984375 0.000000z"/>
</defs>
<g style="fill: #000000; opacity: 1.000000" transform="translate(504.173437,401.706250)scale(0.120000)">
<use xlink:href="#c_42baa63129a918535c52adb20d687ea7"/>
<use xlink:href="#c_7a2040fe3b94fcd41d0a72c84e93b115" x="63.623047"/>
<use xlink:href="#c_7a2040fe3b94fcd41d0a72c84e93b115" x="127.246094"/>
<use xlink:href="#c_7a2040fe3b94fcd41d0a72c84e93b115" x="190.869141"/>
</g>
</g>
</g>
</g>
<g id="matplotlib.axis2">
<g id="ytick1">
<g id="line2d20">
<path style="fill: none; stroke: #000000; stroke-width: 0.500000; stroke-linejoin: round; stroke-linecap: butt; stroke-dasharray: 1.000000,3.000000; stroke-dashoffset: 0.000000; opacity: 1.000000" clip-path="url(#p50431ccdcb28178602d99d9270004dde)" d="M72.000000 388.800000L518.400000 388.800000"/>
</g>
<g id="line2d21">
<defs><path id="m3400efa6b1638b3fea9e19e898273957" d="M0.000000 0.000000L4.000000 0.000000"/></defs>
<g ><use style="fill: none; stroke: #000000; stroke-width: 0.500000; stroke-linejoin: round; stroke-linecap: butt;  opacity: 1.000000" xlink:href="#m3400efa6b1638b3fea9e19e898273957" x="72.000000" y="388.800000"/>
</g></g>
<g id="line2d22">
<defs><path id="m20b58b2501143cb5e0a5e8f1ef6f1643" d="M0.000000 0.000000L-4.000000 0.000000"/></defs>
<g ><use style="fill: none; stroke: #000000; stroke-width: 0.500000; stroke-linejoin: round; stroke-linecap: butt;  opacity: 1.000000" xlink:href="#m20b58b2501143cb5e0a5e8f1ef6f1643" x="518.400000" y="388.800000"/>
</g></g>
<g id="text7">
<g style="fill: #000000; opacity: 1.000000" transform="translate(61.968750,393.167188)scale(0.120000)">
<use xlink:href="#c_cc8d6d580d1b10c8632f7a42cd53db8a"/>
</g>
</g>
</g>
<g id="ytick2">
<g id="line2d23">
<path style="fill: none; stroke: #000000; stroke-width: 0.500000; stroke-linejoin: round; stroke-linecap: butt; stroke-dasharray: 1.000000,3.000000; stroke-dashoffset: 0.000000; opacity: 1.000000" clip-path="url(#p50431ccdcb28178602d99d9270004dde)" d="M72.000000 339.428571L518.400000 339.428571"/>
</g>
<g id="line2d24">
<g ><use style="fill: none; stroke: #000000; stroke-width: 0.500000; stroke-linejoin: round; stroke-linecap: butt;  opacity: 1.000000" xlink:href="#m3400efa6b1638b3fea9e19e898273957" x="72.000000" y="339.428571"/>
</g></g>
<g id="line2d25">
<g ><use style="fill: none; stroke: #000000; stroke-width: 0.500000; stroke-linejoin: round; stroke-linecap: butt;  opacity: 1.000000" xlink:href="#m20b58b2501143cb5e0a5e8f1ef6f1643" x="518.400000" y="339.428571"/>
</g></g>
<g id="text8">
<g style="fill: #000000; opacity: 1.000000" transform="translate(62.000000,343.795759)scale(0.120000)">
<use xlink:href="#c_bef35738d52871942e50b9de9b122bab"/>
</g>
</g>
</g>
<g id="ytick3">
<g id="line2d26">
<path style="fill: none; stroke: #000000; stroke-width: 0.500000; stroke-linejoin: round; stroke-linecap: butt; stroke-dasharray: 1.000000,3.000000; stroke-dashoffset: 0.000000; opacity: 1.000000" clip-path="url(#p50431ccdcb28178602d99d9270004dde)" d="M72.000000 290.057143L518.400000 290.057143"/>
</g>
<g id="line2d27">
<g ><use style="fill: none; stroke: #000000; stroke-width: 0.500000; stroke-linejoin: round; stroke-linecap: butt;  opacity: 1.000000" xlink:href="#m3400efa6b1638b3fea9e19e898273957" x="72.000000" y="290.057143"/>
</g></g>
<g id="line2d28">
<g ><use style="fill: none; stroke: #000000; stroke-width: 0.500000; stroke-linejoin: round; stroke-linecap: butt;  opacity: 1.000000" xlink:href="#m20b58b2501143cb5e0a5e8f1ef6f1643" x="518.400000" y="290.057143"/>
</g></g>
<g id="text9">
<g style="fill: #000000; opacity: 1.000000" transform="translate(54.828125,294.424330)scale(0.120000)">
<use xlink:href="#c_42baa63129a918535c52adb20d687ea7"/>
<use xlink:href="#c_7a2040fe3b94fcd41d0a72c84e93b115" x="63.623047"/>
</g>
</g>
</g>
<g id="ytick4">
<g id="line2d29">
<path style="fill: none; stroke: #000000; stroke-width: 0.500000; stroke-linejoin: round; stroke-linecap: butt; stroke-dasharray: 1.000000,3.000000; stroke-dashoffset: 0.000000; opacity: 1.000000" clip-path="url(#p50431ccdcb28178602d99d9270004dde)" d="M72.000000 240.685714L518.400000 240.685714"/>
</g>
<g id="line2d30">
<g ><use style="fill: none; stroke: #000000; stroke-width: 0.500000; stroke-linejoin: round; stroke-linecap: butt;  opacity: 1.000000" xlink:href="#m3400efa6b1638b3fea9e19e898273957" x="72.000000" y="240.685714"/>
</g></g>
<g id="line2d31">
<g ><use style="fill: none; stroke: #000000; stroke-width: 0.500000; stroke-linejoin: round; stroke-linecap: butt;  opacity: 1.000000" xlink:href="#m20b58b2501143cb5e0a5e8f1ef6f1643" x="518.400000" y="240.685714"/>
</g></g>
<g id="text10">
<g style="fill: #000000; opacity: 1.000000" transform="translate(55.234375,245.138839)scale(0.120000)">
<use xlink:href="#c_42baa63129a918535c52adb20d687ea7"/>
<use xlink:href="#c_ed3f3ed3ebfbd18bcb9c012009a68ad1" x="63.623047"/>
</g>
</g>
</g>
<g id="ytick5">
<g id="line2d32">
<path style="fill: none; stroke: #000000; stroke-width: 0.500000; stroke-linejoin: round; stroke-linecap: butt; stroke-dasharray: 1.000000,3.000000; stroke-dashoffset: 0.000000; opacity: 1.000000" clip-path="url(#p50431ccdcb28178602d99d9270004dde)" d="M72.000000 191.314286L518.400000 191.314286"/>
</g>
<g id="line2d33">
<g ><use style="fill: none; stroke: #000000; stroke-width: 0.500000; stroke-linejoin: round; stroke-linecap: butt;  opacity: 1.000000" xlink:href="#m3400efa6b1638b3fea9e19e898273957" x="72.000000" y="191.314286"/>
</g></g>
<g id="line2d34">
<g ><use style="fill: none; stroke: #000000; stroke-width: 0.500000; stroke-linejoin: round; stroke-linecap: butt;  opacity: 1.000000" xlink:href="#m20b58b2501143cb5e0a5e8f1ef6f1643" x="518.400000" y="191.314286"/>
</g></g>
<g id="text11">
<g style="fill: #000000; opacity: 1.000000" transform="translate(54.703125,195.689286)scale(0.120000)">
<use xlink:href="#c_42baa63129a918535c52adb20d687ea7"/>
<use xlink:href="#c_a0416418d96557a09b8c1332d34883ba" x="63.623047"/>
</g>
</g>
</g>
<g id="ytick6">
<g id="line2d35">
<path style="fill: none; stroke: #000000; stroke-width: 0.500000; stroke-linejoin: round; stroke-linecap: butt; stroke-dasharray: 1.000000,3.000000; stroke-dashoffset: 0.000000; opacity: 1.000000" clip-path="url(#p50431ccdcb28178602d99d9270004dde)" d="M72.000000 141.942857L518.400000 141.942857"/>
</g>
<g id="line2d36">
<g ><use style="fill: none; stroke: #000000; stroke-width: 0.500000; stroke-linejoin: round; stroke-linecap: butt;  opacity: 1.000000" xlink:href="#m3400efa6b1638b3fea9e19e898273957" x="72.000000" y="141.942857"/>
</g></g>
<g id="line2d37">
<g ><use style="fill: none; stroke: #000000; stroke-width: 0.500000; stroke-linejoin: round; stroke-linecap: butt;  opacity: 1.000000" xlink:href="#m20b58b2501143cb5e0a5e8f1ef6f1643" x="518.400000" y="141.942857"/>
</g></g>
<g id="text12">
<g style="fill: #000000; opacity: 1.000000" transform="translate(54.796875,146.310045)scale(0.120000)">
<use xlink:href="#c_42baa63129a918535c52adb20d687ea7"/>
<use xlink:href="#c_cc8d6d580d1b10c8632f7a42cd53db8a" x="63.623047"/>
</g>
</g>
</g>
<g id="ytick7">
<g id="line2d38">
<path style="fill: none; stroke: #000000; stroke-width: 0.500000; stroke-linejoin: round; stroke-linecap: butt; stroke-dasharray: 1.000000,3.000000; stroke-dashoffset: 0.000000; opacity: 1.000000" clip-path="url(#p50431ccdcb28178602d99d9270004dde)" d="M72.000000 92.571429L518.400000 92.571429"/>
</g>
<g id="line2d39">
<g ><use style="fill: none; stroke: #000000; stroke-width: 0.500000; stroke-linejoin: round; stroke-linecap: butt;  opacity: 1.000000" xlink:href="#m3400efa6b1638b3fea9e19e898273957" x="72.000000" y="92.571429"/>
</g></g>
<g id="line2d40">
<g ><use style="fill: none; stroke: #000000; stroke-width: 0.500000; stroke-linejoin: round; stroke-linecap: butt;  opacity: 1.000000" xlink:href="#m20b58b2501143cb5e0a5e8f1ef6f1643" x="518.400000" y="92.571429"/>
</g></g>
<g id="text13">
<g style="fill: #000000; opacity: 1.000000" transform="translate(54.859375,96.938616)scale(0.120000)">
<use xlink:href="#c_42baa63129a918535c52adb20d687ea7"/>
<use xlink:href="#c_bef35738d52871942e50b9de9b122bab" x="63.623047"/>
</g>
</g>
</g>
<g id="ytick8">
<g id="line2d41">
<path style="fill: none; stroke: #000000; stroke-width: 0.500000; stroke-linejoin: round; stroke-linecap: butt; stroke-dasharray: 1.000000,3.000000; stroke-dashoffset: 0.000000; opacity: 1.000000" clip-path="url(#p50431ccdcb28178602d99d9270004dde)" d="M72.000000 43.200000L518.400000 43.200000"/>
</g>
<g id="line2d42">
<g ><use style="fill: none; stroke: #000000; stroke-width: 0.500000; stroke-linejoin: round; stroke-linecap: butt;  opacity: 1.000000" xlink:href="#m3400efa6b1638b3fea9e19e898273957" x="72.000000" y="43.200000"/>
</g></g>
<g id="line2d43">
<g ><use style="fill: none; stroke: #000000; stroke-width: 0.500000; stroke-linejoin: round; stroke-linecap: butt;  opacity: 1.000000" xlink:href="#m20b58b2501143cb5e0a5e8f1ef6f1643" x="518.400000" y="43.200000"/>
</g></g>
<g id="text14">
<g style="fill: #000000; opacity: 1.000000" transform="translate(54.390625,47.567187)scale(0.120000)">
<use xlink:href="#c_ed3f3ed3ebfbd18bcb9c012009a68ad1"/>
<use xlink:href="#c_7a2040fe3b94fcd41d0a72c84e93b115" x="63.623047"/>
</g>
</g>
</g>
</g>
<g id="patch3">
<path style="fill: none; stroke: #000000; stroke-width: 1.000000; stroke-linejoin: round; stroke-linecap: square;  opacity: 1.000000"  d="M72.000000 43.200000L518.400000 43.200000"/>
</g>
<g id="patch4">
<path style="fill: none; stroke: #000000; stroke-width: 1.000000; stroke-linejoin: round; stroke-linecap: square;  opacity: 1.000000"  d="M518.400000 388.800000L518.400000 43.200000"/>
</g>
<g id="patch5">
<path style="fill: none; stroke: #000000; stroke-width: 1.000000; stroke-linejoin: round; stroke-linecap: square;  opacity: 1.000000"  d="M72.000000 388.800000L518.400000 388.800000"/>
</g>
<g id="patch6">
<path style="fill: none; stroke: #000000; stroke-width: 1.000000; stroke-linejoin: round; stroke-linecap: square;  opacity: 1.000000"  d="M72.000000 388.800000L72.000000 43.200000"/>
</g>
</g>
</g>
</svg>
