<?xml version="1.0" standalone="no"?>
<!DOCTYPE svg PUBLIC "-//W3C//DTD SVG 1.1//EN"
  "http://www.w3.org/Graphics/SVG/1.1/DTD/svg11.dtd">
<!-- Created with matplotlib (http://matplotlib.sourceforge.net/) -->
<svg width="576pt" height="432pt" viewBox="0 0 576 432"
   xmlns="http://www.w3.org/2000/svg"
   xmlns:xlink="http://www.w3.org/1999/xlink"
   version="1.1"
   id="svg1">
<g id="figure1">
<g id="patch1">
<path style="fill: #ffffff; stroke: #ffffff; stroke-width: 1.000000; stroke-linejoin: round; stroke-linecap: square;  opacity: 1.000000"  d="M0.000000 432.000000L576.000000 432.000000L576.000000 0.000000
L0.000000 0.000000L0.000000 432.000000"/>
</g>
<g id="axes1">
<g id="patch2">
<path style="fill: #ffffff; opacity: 1.000000"  d="M72.000000 388.800000L518.400000 388.800000L518.400000 43.200000
L72.000000 43.200000L72.000000 388.800000"/>
</g>
<g id="line2d1">
<defs>
  <clipPath id="p50431ccdcb28178602d99d9270004dde">
<rect x="72.000000" y="43.200000" width="446.400000" height="345.600000"/>
  </clipPath>
</defs><path style="fill: none; stroke: #ff0000; stroke-width: 1.000000; stroke-linejoin: round; stroke-linecap: square;  opacity: 1.000000" clip-path="url(#p50431ccdcb28178602d99d9270004dde)" d="M72.000000 272.399933L72.446400 296.016739L72.892800 302.100998
L73.785600 300.913546L74.232000 284.188781L74.678400 297.524938
L75.124800 293.639904L75.571200 299.979706L76.017600 343.967616
L76.464000 332.174995L76.910400 300.369946L77.356800 303.925795
L77.803200 314.936323L78.249600 342.397238L78.696000 299.680042
L79.142400 342.244829L79.588800 334.595606L80.035200 299.987683
L80.481600 298.242144L80.928000 281.497910L81.374400 298.717920
L81.820800 343.493222L82.267200 289.480896L82.713600 342.268819
L83.160000 268.130851L84.499200 342.718099L84.945600 321.960038
L85.392000 343.405440L86.731200 344.235485L88.070400 343.398643
L88.516800 292.948675L88.963200 344.446243L89.856000 326.029997
L90.302400 299.568240L90.748800 343.780790L91.195200 300.350362
L91.641600 315.238608L92.088000 305.041334L92.534400 342.819619
L92.980800 333.754387L93.427200 343.208045L94.320000 344.322230
L94.766400 342.894845L95.212800 291.620304L95.659200 342.759053
L96.105600 287.782358L96.552000 344.342448L97.891200 344.996726
L98.337600 343.290442L98.784000 344.883830L99.230400 263.729779
L99.676800 344.915165L101.016000 334.853539L101.462400 343.930234
L102.801600 298.999642L103.248000 342.020016L103.694400 343.631203
L104.140800 340.169789L104.587200 344.033021L105.926400 315.272304
L106.372800 321.650726L106.819200 343.576915L107.265600 336.454963
L107.712000 344.190298L109.051200 341.833565L109.944000 331.430515
L110.390400 319.485773L110.836800 337.348627L111.283200 314.708458
L111.729600 342.079920L112.622400 340.994333L113.068800 345.379795
L113.515200 342.686938L113.961600 327.765485L114.408000 340.568208
L114.854400 341.742269L115.300800 347.013302L116.193600 330.010301
L116.640000 342.343987L117.086400 340.309325L117.532800 323.762429
L117.979200 321.594595L118.425600 346.813546L118.872000 293.117904
L119.318400 342.427882L119.764800 321.800371L120.211200 343.368403
L121.104000 339.444605L121.550400 313.892208L121.996800 341.829274
L122.443200 343.110672L122.889600 327.908131L123.336000 343.695514
L123.782400 314.849203L124.228800 340.046870L124.675200 337.398307
L125.121600 342.362966L125.568000 317.947075L126.014400 342.323395
L126.460800 344.938406L126.907200 341.481082L127.353600 316.801526
L127.800000 311.711213L128.246400 347.843952L128.692800 313.879162
L129.139200 348.363418L129.585600 342.471427L130.032000 326.017267
L130.478400 342.423994L131.371200 345.133987L131.817600 342.176746
L132.264000 331.693747L132.710400 342.008266L134.049600 348.352358
L134.496000 313.303853L134.942400 342.432720L135.835200 335.903645
L136.728000 319.073990L137.174400 341.378496L137.620800 306.132768
L138.067200 340.877434L138.513600 335.830493L138.960000 342.084643
L139.852800 346.429498L140.299200 342.702259L140.745600 326.933539
L141.192000 341.951386L142.084800 326.127917L142.531200 342.338227
L142.977600 320.614128L143.424000 342.011606L143.870400 343.263456
L144.316800 338.368003L145.209600 346.830451L145.656000 320.985821
L146.102400 341.244634L146.548800 322.447190L146.995200 341.654314
L147.441600 319.690714L148.334400 88.814074L148.780800 343.683043
L149.227200 336.519533L149.673600 323.023421L150.566400 344.723789
L151.459200 343.552608L152.352000 320.590195L152.798400 343.311581
L154.137600 344.417098L155.030400 343.088381L155.476800 329.700269
L155.923200 287.453261L156.369600 341.617507L156.816000 297.421085
L157.262400 341.956282L157.708800 336.725827L158.155200 342.464688
L159.048000 347.306256L159.494400 342.742925L160.387200 320.922374
L160.833600 336.846874L161.280000 287.359517L161.726400 346.546570
L162.172800 321.898320L162.619200 345.596630L163.065600 343.055606
L163.512000 329.728723L163.958400 343.179763L164.404800 332.806378
L164.851200 341.127187L165.297600 342.441792L165.744000 346.658861
L166.190400 342.909994L166.636800 328.042339L167.083200 342.006307
L167.529600 343.365178L167.976000 347.803286L168.422400 346.084157
L168.868800 342.081677L169.315200 344.245824L169.761600 341.483789
L170.208000 334.699891L170.654400 342.185674L171.547200 284.103590
L171.993600 346.857091L172.440000 341.137267L173.332800 311.825981
L173.779200 341.364211L174.225600 305.838058L174.672000 344.382854
L175.564800 315.138816L176.011200 342.762854L176.457600 340.516339
L176.904000 342.396374L177.350400 340.605187L178.243200 320.103821
L178.689600 339.012950L179.582400 343.722816L180.475200 314.940816
L180.921600 319.155062L181.368000 347.298998L181.814400 341.966333
L182.260800 288.776851L182.707200 343.042906L183.153600 341.023133
L183.600000 342.227923L184.046400 344.527891L185.385600 343.892794
L185.832000 331.918186L186.278400 343.893139L187.171200 341.812253
L187.617600 320.793869L188.064000 343.170634L188.510400 322.455974
L188.956800 344.425306L189.849600 341.588477L190.296000 292.221734
L190.742400 343.605139L191.188800 345.030797L191.635200 334.865722
L192.081600 344.049638L192.528000 340.982582L192.974400 344.490307
L193.420800 286.747344L193.867200 341.465616L194.313600 322.671427
L194.760000 320.710694L195.206400 288.173347L195.652800 343.188230
L196.992000 343.002614L198.331200 341.425354L198.777600 343.922227
L199.224000 308.124058L199.670400 342.563414L200.116800 337.816483
L200.563200 343.540656L201.902400 319.076294L202.348800 341.909280
L202.795200 315.001094L203.241600 340.470432L203.688000 318.898973
L204.134400 339.359962L204.580800 340.797370L205.473600 325.469174
L205.920000 341.797910L206.366400 342.848448L206.812800 319.258310
L207.259200 342.443059L207.705600 319.981306L208.152000 343.092816
L209.491200 341.986118L210.384000 316.835482L210.830400 342.243475
L212.169600 342.332150L212.616000 330.176131L213.062400 342.009965
L213.955200 348.197386L214.401600 318.155098L214.848000 341.926646
L215.294400 313.141018L215.740800 341.995104L216.633600 345.763267
L217.080000 343.194682L217.526400 330.974467L217.972800 342.102643
L218.419200 343.157069L218.865600 346.809542L219.312000 342.242381
L219.758400 299.041574L220.204800 342.334685L220.651200 321.898176
L221.097600 339.967066L221.544000 314.907062L221.990400 322.421213
L222.436800 323.706384L222.883200 343.624752L224.222400 343.748160
L225.115200 321.408259L225.561600 343.489507L226.454400 341.823514
L226.900800 343.966723L227.793600 320.666688L228.240000 342.139910
L229.132800 328.664419L229.579200 286.198474L230.025600 338.387213
L230.472000 339.899645L230.918400 319.354128L231.364800 340.432387
L231.811200 312.831158L232.257600 342.400435L232.704000 345.563424
L233.150400 319.969181L233.596800 327.173357L234.489600 346.813546
L235.382400 339.086592L235.828800 341.619293L236.721600 313.594790
L237.168000 342.071453L237.614400 303.658531L238.060800 343.721894
L238.953600 315.301507L239.400000 320.462410L239.846400 342.870566
L240.292800 346.794883L240.739200 342.937814L241.185600 323.447040
L241.632000 341.342698L242.078400 321.134400L242.524800 342.830390
L242.971200 341.302579L243.417600 346.843325L244.310400 331.323235
L244.756800 347.141030L245.203200 342.194918L245.649600 312.615158
L246.542400 130.097030L246.988800 330.882077L247.435200 343.365062
L248.774400 343.428509L249.220800 331.728394L250.113600 343.026230
L250.560000 325.980202L251.006400 342.343498L251.452800 316.136736
L251.899200 341.678362L252.792000 347.135414L253.684800 331.736774
L254.131200 342.071395L255.024000 325.262506L255.470400 342.856397
L255.916800 341.638877L257.256000 320.245574L257.702400 346.446922
L258.148800 341.962186L259.041600 324.026438L259.488000 341.460922
L260.380800 346.731523L260.827200 342.540720L261.273600 331.032758
L261.720000 339.761290L262.166400 318.683462L262.612800 341.078314
L263.952000 320.685869L264.398400 295.463203L264.844800 344.189750
L265.291200 336.731731L265.737600 343.968336L266.630400 321.933830
L267.076800 287.116272L267.523200 341.816746L268.416000 343.969114
L269.755200 339.528730L270.201600 318.355114L270.648000 321.153350
L271.094400 345.028896L271.540800 341.877226L272.433600 292.660704
L272.880000 347.986656L273.326400 342.663898L273.772800 326.673907
L274.219200 341.502250L275.112000 317.225981L275.558400 341.015242
L276.004800 342.826762L277.344000 340.261747L277.790400 321.092813
L278.236800 341.721706L279.129600 346.021978L279.576000 342.287568
L280.468800 319.287830L281.361600 342.113069L281.808000 336.582317
L282.254400 341.831318L283.147200 344.145629L283.593600 341.121629
L284.040000 311.762131L284.486400 313.419859L284.932800 341.666957
L285.379200 343.590307L286.718400 340.580304L287.164800 336.791203
L287.611200 341.270813L288.057600 286.452288L288.504000 340.682832
L289.396800 327.269347L289.843200 341.497469L290.289600 343.381421
L290.736000 348.631517L291.182400 343.363162L291.628800 303.789744
L292.521600 347.195462L293.414400 333.825926L293.860800 342.552874
L294.753600 346.791830L295.200000 342.763546L295.646400 331.101850
L296.092800 341.444707L296.985600 312.610464L297.432000 342.839750
L298.324800 338.395939L298.771200 346.989744L299.217600 320.783933
L299.664000 347.218762L300.110400 340.743600L300.556800 324.552298
L301.003200 341.386358L301.896000 347.055552L302.342400 341.208230
L303.681600 343.868054L304.128000 342.046310L305.020800 331.996003
L305.467200 343.823789L306.360000 320.768611L306.806400 344.438122
L307.252800 292.544813L307.699200 342.628301L308.145600 344.006266
L309.484800 343.153181L309.931200 335.013206L310.377600 343.939536
L311.716800 344.245910L312.163200 302.955322L312.609600 337.748659
L313.056000 242.467661L313.502400 343.902413L313.948800 309.863088
L314.395200 342.444326L315.288000 314.434339L315.734400 339.886886
L316.180800 322.258032L316.627200 320.261674L317.073600 338.409245
L317.520000 340.622525L318.412800 325.665216L319.305600 346.251773
L319.752000 321.132269L320.198400 347.817485L320.644800 342.385747
L321.537600 326.476109L321.984000 198.245693L322.876800 347.593594
L323.323200 312.956410L323.769600 342.837590L324.662400 347.366102
L325.555200 336.454387L326.001600 321.494774L326.448000 337.365706
L327.340800 340.517664L328.233600 342.301162L328.680000 344.174515
L329.126400 340.038317L329.572800 343.639123L330.019200 287.219750
L330.465600 342.026381L330.912000 317.676442L331.358400 342.300528
L331.804800 343.784822L332.251200 320.890781L332.697600 340.110691
L333.144000 338.898067L333.590400 329.885251L334.036800 342.965347
L334.483200 341.430106L334.929600 346.214736L335.376000 342.295085
L335.822400 320.268528L336.268800 319.021776L336.715200 341.073936
L337.161600 331.648704L338.054400 342.173146L338.500800 346.785005
L338.947200 341.991936L339.393600 346.908154L339.840000 339.909494
L341.179200 342.432778L341.625600 347.657990L342.072000 320.775322
L342.964800 341.339443L343.411200 340.098451L344.304000 330.399792
L345.643200 346.089110L346.089600 340.060522L346.536000 319.536979
L346.982400 341.373312L348.321600 347.677373L348.768000 321.029366
L349.214400 342.554803L349.660800 339.792624L350.107200 317.786544
L350.553600 341.730605L351.446400 344.619101L352.339200 335.619389
L352.785600 342.410371L353.232000 343.991347L354.124800 287.315798
L354.571200 341.952998L355.910400 342.965434L356.803200 340.762435
L357.249600 342.591466L358.142400 341.486669L359.035200 332.493235
L359.481600 341.820461L359.928000 319.009162L360.374400 323.043091
L360.820800 321.287213L361.267200 343.764518L362.606400 343.128470
L363.052800 322.037395L363.499200 341.780400L363.945600 343.297642
L364.838400 332.985139L365.284800 321.387149L365.731200 342.987350
L366.624000 340.659763L367.070400 344.158646L367.516800 342.833702
L367.963200 343.900166L368.856000 300.343882L369.302400 341.995853
L369.748800 344.079446L370.641600 314.299958L371.088000 340.578893
L371.534400 315.958810L372.427200 337.658717L373.766400 346.421578
L374.659200 335.849933L375.105600 317.537770L375.552000 341.637062
L375.998400 320.503507L376.444800 340.431667L376.891200 341.652701
L377.337600 346.889693L378.230400 312.992093L378.676800 295.457069
L379.123200 343.833437L379.569600 318.560602L380.016000 342.065059
L380.462400 287.583494L380.908800 341.938742L381.355200 311.476579
L381.801600 346.848883L382.248000 342.093686L382.694400 330.635837
L383.140800 342.023558L384.033600 311.622106L384.480000 342.312998
L385.819200 345.722400L386.712000 336.128515L387.158400 342.027533
L387.604800 343.053158L388.051200 341.556653L389.390400 340.251149
L389.836800 341.479094L390.283200 347.297328L390.729600 341.176234
L392.068800 341.882957L392.515200 348.555398L392.961600 314.395459
L393.854400 341.777722L395.193600 329.761987L395.640000 342.237082
L396.532800 347.860397L396.979200 337.723344L397.425600 341.995824
L398.318400 287.516246L399.211200 342.067334L400.104000 346.272163
L400.550400 342.189907L400.996800 347.411347L401.889600 337.995331
L402.782400 344.369347L403.228800 317.420266L403.675200 333.719827
L404.121600 321.604992L404.568000 338.916182L405.907200 346.092912
L406.353600 320.809392L406.800000 348.038784L407.692800 332.680205
L408.139200 340.808314L409.032000 347.042534L409.478400 341.150429
L409.924800 310.083322L410.371200 341.851709L410.817600 343.289837
L412.156800 321.016982L412.603200 342.013162L413.049600 344.448691
L413.496000 336.807763L413.942400 316.210003L414.388800 343.959898
L414.835200 319.599389L415.281600 342.437213L416.620800 342.850694
L417.067200 334.009498L417.513600 343.048637L418.852800 286.123680
L419.299200 339.317482L420.638400 342.827510L421.977600 320.366275
L422.424000 340.301347L423.763200 320.820451L424.656000 341.558438
L425.102400 313.454102L425.548800 343.759939L426.888000 343.878797
L427.334400 313.461072L427.780800 342.044726L428.227200 340.159507
L428.673600 342.853459L429.120000 330.249283L429.566400 342.971309
L430.905600 343.473926L431.352000 337.221101L431.798400 343.640218
L433.137600 314.322106L433.584000 340.882589L434.030400 320.498698
L434.476800 348.316214L434.923200 341.475869L435.369600 342.826301
L435.816000 340.687584L436.708800 311.303405L437.155200 324.430589
L437.601600 319.108522L438.048000 321.193325L438.494400 339.636211
L438.940800 342.938909L439.387200 341.658288L439.833600 347.436259
L440.726400 337.997030L441.172800 342.605894L442.065600 347.783962
L442.512000 338.207443L442.958400 307.520266L443.404800 340.136582
L444.744000 340.066973L445.190400 347.231693L445.636800 341.578570
L446.976000 341.667677L447.422400 348.918653L447.868800 320.098781
L448.315200 342.181958L449.208000 320.027731L449.654400 340.978061
L450.547200 342.695203L450.993600 321.999034L451.886400 342.969869
L452.332800 344.452406L452.779200 342.269770L453.225600 343.299197
L453.672000 341.085744L454.564800 339.507936L455.011200 342.626602
L455.904000 316.067184L456.350400 343.596413L457.243200 287.303472
L457.689600 341.090554L458.136000 315.748310L458.582400 343.774512
L459.028800 340.326461L459.475200 342.898589L459.921600 340.036157
L460.368000 342.296496L461.260800 344.097014L461.707200 321.377069
L462.153600 342.874598L463.046400 318.037594L463.492800 343.440490
L464.385600 344.473430L464.832000 342.041126L465.724800 343.686931
L467.064000 340.148966L467.956800 342.607478L468.403200 347.405616
L468.849600 341.633347L469.296000 316.530230L469.742400 317.748931
L470.188800 346.813142L470.635200 340.640035L471.974400 340.706650
L472.420800 343.552320L473.760000 305.109936L474.206400 256.647283
L474.652800 342.092102L475.545600 287.350906L475.992000 341.322134
L476.438400 321.397546L477.777600 341.069875L478.224000 343.487578
L479.116800 342.331517L480.009600 311.036141L480.456000 344.861222
L480.902400 341.434771L481.348800 335.067062L481.795200 341.923882
L482.688000 347.428051L483.580800 338.704704L484.027200 319.576781
L484.920000 342.082656L485.812800 346.788547L486.705600 339.757258
L487.152000 341.104550L487.598400 320.116896L488.491200 341.286595
L488.937600 342.514022L489.384000 314.339587L489.830400 342.315130
L490.723200 340.153229L491.169600 342.874973L491.616000 340.832160
L492.062400 342.448186L492.508800 341.136000L492.955200 343.221091
L493.848000 293.749430L494.294400 343.382170L495.633600 341.739274
L496.080000 327.074947L496.526400 342.920102L497.865600 343.037376
L499.204800 344.230474L499.651200 343.177200L500.544000 337.598525
L500.990400 344.136470L502.329600 319.826131L502.776000 342.794650
L503.668800 338.666890L504.115200 342.695491L504.561600 286.549920
L505.008000 340.726982L505.454400 329.526691L505.900800 342.232589
L506.347200 313.260970L506.793600 342.967219L507.240000 325.169798
L507.686400 342.550973L508.132800 327.860352L508.579200 341.381059
L509.025600 342.688205L509.918400 340.603862L511.257600 339.678835
L512.150400 295.914211L512.596800 342.727430L513.043200 334.191053
L513.489600 342.668074L513.936000 321.356794L514.382400 341.003088
L514.828800 319.241693L515.275200 339.942067L515.721600 317.511331
L516.168000 316.082736L516.614400 313.315488L517.060800 307.467418
L517.953600 341.227267L517.953600 341.227267"/>
</g>
<g id="matplotlib.axis1">
<g id="xtick1">
<g id="line2d2">
<path style="fill: none; stroke: #000000; stroke-width: 0.500000; stroke-linejoin: round; stroke-linecap: butt; stroke-dasharray: 1.000000,3.000000; stroke-dashoffset: 0.000000; opacity: 1.000000" clip-path="url(#p50431ccdcb28178602d99d9270004dde)" d="M72.000000 388.800000L72.000000 43.200000"/>
</g>
<g id="line2d3">
<defs><path id="m30e32995789d870ad79a2e54c91cf9c6" d="M0.000000 0.000000L0.000000 -4.000000"/></defs>
<g ><use style="fill: none; stroke: #000000; stroke-width: 0.500000; stroke-linejoin: round; stroke-linecap: butt;  opacity: 1.000000" xlink:href="#m30e32995789d870ad79a2e54c91cf9c6" x="72.000000" y="388.800000"/>
</g></g>
<g id="line2d4">
<defs><path id="m9281cae24120827b11d5ea8a7ad3e96b" d="M0.000000 0.000000L0.000000 4.000000"/></defs>
<g ><use style="fill: none; stroke: #000000; stroke-width: 0.500000; stroke-linejoin: round; stroke-linecap: butt;  opacity: 1.000000" xlink:href="#m9281cae24120827b11d5ea8a7ad3e96b" x="72.000000" y="43.200000"/>
</g></g>
<g id="text1">
<defs>
<path id="c_7a2040fe3b94fcd41d0a72c84e93b115" d="M31.781250 -66.406250q-7.609375 0.000000 -11.453125 7.500000q-3.828125 7.484375 -3.828125 22.531250q0.000000 14.984375 3.828125 22.484375q3.843750 7.500000 11.453125 7.500000q7.671875 0.000000 11.500000 -7.500000q3.843750 -7.500000 3.843750 -22.484375q0.000000 -15.046875 -3.843750 -22.531250q-3.828125 -7.500000 -11.500000 -7.500000M31.781250 -74.218750q12.265625 0.000000 18.734375 9.703125q6.468750 9.687500 6.468750 28.140625q0.000000 18.406250 -6.468750 28.109375q-6.468750 9.687500 -18.734375 9.687500q-12.250000 0.000000 -18.718750 -9.687500q-6.468750 -9.703125 -6.468750 -28.109375q0.000000 -18.453125 6.468750 -28.140625q6.468750 -9.703125 18.718750 -9.703125"/>
</defs>
<g style="fill: #000000; opacity: 1.000000" transform="translate(68.976562,401.706250)scale(0.120000)">
<use xlink:href="#c_7a2040fe3b94fcd41d0a72c84e93b115"/>
</g>
</g>
</g>
<g id="xtick2">
<g id="line2d5">
<path style="fill: none; stroke: #000000; stroke-width: 0.500000; stroke-linejoin: round; stroke-linecap: butt; stroke-dasharray: 1.000000,3.000000; stroke-dashoffset: 0.000000; opacity: 1.000000" clip-path="url(#p50431ccdcb28178602d99d9270004dde)" d="M161.280000 388.800000L161.280000 43.200000"/>
</g>
<g id="line2d6">
<g ><use style="fill: none; stroke: #000000; stroke-width: 0.500000; stroke-linejoin: round; stroke-linecap: butt;  opacity: 1.000000" xlink:href="#m30e32995789d870ad79a2e54c91cf9c6" x="161.280000" y="388.800000"/>
</g></g>
<g id="line2d7">
<g ><use style="fill: none; stroke: #000000; stroke-width: 0.500000; stroke-linejoin: round; stroke-linecap: butt;  opacity: 1.000000" xlink:href="#m9281cae24120827b11d5ea8a7ad3e96b" x="161.280000" y="43.200000"/>
</g></g>
<g id="text2">
<defs>
<path id="c_ed3f3ed3ebfbd18bcb9c012009a68ad1" d="M19.187500 -8.296875l34.421875 0.000000l0.000000 8.296875l-46.281250 0.000000l0.000000 -8.296875q5.609375 -5.812500 15.296875 -15.593750q9.703125 -9.796875 12.187500 -12.640625q4.734375 -5.312500 6.609375 -9.000000q1.890625 -3.687500 1.890625 -7.250000q0.000000 -5.812500 -4.078125 -9.468750q-4.078125 -3.671875 -10.625000 -3.671875q-4.640625 0.000000 -9.796875 1.609375q-5.140625 1.609375 -11.000000 4.890625l0.000000 -9.968750q5.953125 -2.390625 11.125000 -3.609375q5.187500 -1.218750 9.484375 -1.218750q11.328125 0.000000 18.062500 5.671875q6.734375 5.656250 6.734375 15.125000q0.000000 4.500000 -1.687500 8.531250q-1.671875 4.015625 -6.125000 9.484375q-1.218750 1.421875 -7.765625 8.187500q-6.531250 6.765625 -18.453125 18.921875"/>
</defs>
<g style="fill: #000000; opacity: 1.000000" transform="translate(150.655000,401.706250)scale(0.120000)">
<use xlink:href="#c_ed3f3ed3ebfbd18bcb9c012009a68ad1"/>
<use xlink:href="#c_7a2040fe3b94fcd41d0a72c84e93b115" x="63.623047"/>
<use xlink:href="#c_7a2040fe3b94fcd41d0a72c84e93b115" x="127.246094"/>
</g>
</g>
</g>
<g id="xtick3">
<g id="line2d8">
<path style="fill: none; stroke: #000000; stroke-width: 0.500000; stroke-linejoin: round; stroke-linecap: butt; stroke-dasharray: 1.000000,3.000000; stroke-dashoffset: 0.000000; opacity: 1.000000" clip-path="url(#p50431ccdcb28178602d99d9270004dde)" d="M250.560000 388.800000L250.560000 43.200000"/>
</g>
<g id="line2d9">
<g ><use style="fill: none; stroke: #000000; stroke-width: 0.500000; stroke-linejoin: round; stroke-linecap: butt;  opacity: 1.000000" xlink:href="#m30e32995789d870ad79a2e54c91cf9c6" x="250.560000" y="388.800000"/>
</g></g>
<g id="line2d10">
<g ><use style="fill: none; stroke: #000000; stroke-width: 0.500000; stroke-linejoin: round; stroke-linecap: butt;  opacity: 1.000000" xlink:href="#m9281cae24120827b11d5ea8a7ad3e96b" x="250.560000" y="43.200000"/>
</g></g>
<g id="text3">
<defs>
<path id="c_a0416418d96557a09b8c1332d34883ba" d="M37.796875 -64.312500l-24.906250 38.921875l24.906250 0.000000zM35.203125 -72.906250l12.406250 0.000000l0.000000 47.515625l10.406250 0.000000l0.000000 8.203125l-10.406250 0.000000l0.000000 17.187500l-9.812500 0.000000l0.000000 -17.187500l-32.906250 0.000000l0.000000 -9.515625z"/>
</defs>
<g style="fill: #000000; opacity: 1.000000" transform="translate(239.794375,401.706250)scale(0.120000)">
<use xlink:href="#c_a0416418d96557a09b8c1332d34883ba"/>
<use xlink:href="#c_7a2040fe3b94fcd41d0a72c84e93b115" x="63.623047"/>
<use xlink:href="#c_7a2040fe3b94fcd41d0a72c84e93b115" x="127.246094"/>
</g>
</g>
</g>
<g id="xtick4">
<g id="line2d11">
<path style="fill: none; stroke: #000000; stroke-width: 0.500000; stroke-linejoin: round; stroke-linecap: butt; stroke-dasharray: 1.000000,3.000000; stroke-dashoffset: 0.000000; opacity: 1.000000" clip-path="url(#p50431ccdcb28178602d99d9270004dde)" d="M339.840000 388.800000L339.840000 43.200000"/>
</g>
<g id="line2d12">
<g ><use style="fill: none; stroke: #000000; stroke-width: 0.500000; stroke-linejoin: round; stroke-linecap: butt;  opacity: 1.000000" xlink:href="#m30e32995789d870ad79a2e54c91cf9c6" x="339.840000" y="388.800000"/>
</g></g>
<g id="line2d13">
<g ><use style="fill: none; stroke: #000000; stroke-width: 0.500000; stroke-linejoin: round; stroke-linecap: butt;  opacity: 1.000000" xlink:href="#m9281cae24120827b11d5ea8a7ad3e96b" x="339.840000" y="43.200000"/>
</g></g>
<g id="text4">
<defs>
<path id="c_cc8d6d580d1b10c8632f7a42cd53db8a" d="M33.015625 -40.375000q-6.640625 0.000000 -10.531250 4.546875q-3.875000 4.531250 -3.875000 12.437500q0.000000 7.859375 3.875000 12.437500q3.890625 4.562500 10.531250 4.562500q6.640625 0.000000 10.515625 -4.562500q3.875000 -4.578125 3.875000 -12.437500q0.000000 -7.906250 -3.875000 -12.437500q-3.875000 -4.546875 -10.515625 -4.546875M52.593750 -71.296875l0.000000 8.984375q-3.718750 -1.750000 -7.500000 -2.671875q-3.781250 -0.937500 -7.500000 -0.937500q-9.765625 0.000000 -14.921875 6.593750q-5.140625 6.593750 -5.875000 19.921875q2.875000 -4.250000 7.218750 -6.515625q4.359375 -2.265625 9.578125 -2.265625q10.984375 0.000000 17.359375 6.671875q6.375000 6.656250 6.375000 18.125000q0.000000 11.234375 -6.640625 18.031250q-6.640625 6.781250 -17.671875 6.781250q-12.656250 0.000000 -19.343750 -9.687500q-6.687500 -9.703125 -6.687500 -28.109375q0.000000 -17.281250 8.203125 -27.562500q8.203125 -10.281250 22.015625 -10.281250q3.718750 0.000000 7.500000 0.734375q3.781250 0.734375 7.890625 2.187500"/>
</defs>
<g style="fill: #000000; opacity: 1.000000" transform="translate(329.199375,401.706250)scale(0.120000)">
<use xlink:href="#c_cc8d6d580d1b10c8632f7a42cd53db8a"/>
<use xlink:href="#c_7a2040fe3b94fcd41d0a72c84e93b115" x="63.623047"/>
<use xlink:href="#c_7a2040fe3b94fcd41d0a72c84e93b115" x="127.246094"/>
</g>
</g>
</g>
<g id="xtick5">
<g id="line2d14">
<path style="fill: none; stroke: #000000; stroke-width: 0.500000; stroke-linejoin: round; stroke-linecap: butt; stroke-dasharray: 1.000000,3.000000; stroke-dashoffset: 0.000000; opacity: 1.000000" clip-path="url(#p50431ccdcb28178602d99d9270004dde)" d="M429.120000 388.800000L429.120000 43.200000"/>
</g>
<g id="line2d15">
<g ><use style="fill: none; stroke: #000000; stroke-width: 0.500000; stroke-linejoin: round; stroke-linecap: butt;  opacity: 1.000000" xlink:href="#m30e32995789d870ad79a2e54c91cf9c6" x="429.120000" y="388.800000"/>
</g></g>
<g id="line2d16">
<g ><use style="fill: none; stroke: #000000; stroke-width: 0.500000; stroke-linejoin: round; stroke-linecap: butt;  opacity: 1.000000" xlink:href="#m9281cae24120827b11d5ea8a7ad3e96b" x="429.120000" y="43.200000"/>
</g></g>
<g id="text5">
<defs>
<path id="c_bef35738d52871942e50b9de9b122bab" d="M31.781250 -34.625000q-7.031250 0.000000 -11.062500 3.765625q-4.015625 3.765625 -4.015625 10.343750q0.000000 6.593750 4.015625 10.359375q4.031250 3.765625 11.062500 3.765625q7.031250 0.000000 11.078125 -3.781250q4.062500 -3.796875 4.062500 -10.343750q0.000000 -6.578125 -4.031250 -10.343750q-4.015625 -3.765625 -11.109375 -3.765625M21.921875 -38.812500q-6.343750 -1.562500 -9.890625 -5.906250q-3.531250 -4.359375 -3.531250 -10.609375q0.000000 -8.734375 6.218750 -13.812500q6.234375 -5.078125 17.062500 -5.078125q10.890625 0.000000 17.093750 5.078125q6.203125 5.078125 6.203125 13.812500q0.000000 6.250000 -3.546875 10.609375q-3.531250 4.343750 -9.828125 5.906250q7.125000 1.656250 11.093750 6.500000q3.984375 4.828125 3.984375 11.796875q0.000000 10.609375 -6.468750 16.281250q-6.468750 5.656250 -18.531250 5.656250q-12.046875 0.000000 -18.531250 -5.656250q-6.468750 -5.671875 -6.468750 -16.281250q0.000000 -6.968750 4.000000 -11.796875q4.015625 -4.843750 11.140625 -6.500000M18.312500 -54.390625q0.000000 5.656250 3.531250 8.828125q3.546875 3.171875 9.937500 3.171875q6.359375 0.000000 9.937500 -3.171875q3.593750 -3.171875 3.593750 -8.828125q0.000000 -5.671875 -3.593750 -8.843750q-3.578125 -3.171875 -9.937500 -3.171875q-6.390625 0.000000 -9.937500 3.171875q-3.531250 3.171875 -3.531250 8.843750"/>
</defs>
<g style="fill: #000000; opacity: 1.000000" transform="translate(418.463750,401.706250)scale(0.120000)">
<use xlink:href="#c_bef35738d52871942e50b9de9b122bab"/>
<use xlink:href="#c_7a2040fe3b94fcd41d0a72c84e93b115" x="63.623047"/>
<use xlink:href="#c_7a2040fe3b94fcd41d0a72c84e93b115" x="127.246094"/>
</g>
</g>
</g>
<g id="xtick6">
<g id="line2d17">
<path style="fill: none; stroke: #000000; stroke-width: 0.500000; stroke-linejoin: round; stroke-linecap: butt; stroke-dasharray: 1.000000,3.000000; stroke-dashoffset: 0.000000; opacity: 1.000000" clip-path="url(#p50431ccdcb28178602d99d9270004dde)" d="M518.400000 388.800000L518.400000 43.200000"/>
</g>
<g id="line2d18">
<g ><use style="fill: none; stroke: #000000; stroke-width: 0.500000; stroke-linejoin: round; stroke-linecap: butt;  opacity: 1.000000" xlink:href="#m30e32995789d870ad79a2e54c91cf9c6" x="518.400000" y="388.800000"/>
</g></g>
<g id="line2d19">
<g ><use style="fill: none; stroke: #000000; stroke-width: 0.500000; stroke-linejoin: round; stroke-linecap: butt;  opacity: 1.000000" xlink:href="#m9281cae24120827b11d5ea8a7ad3e96b" x="518.400000" y="43.200000"/>
</g></g>
<g id="text6">
<defs>
<path id="c_42baa63129a918535c52adb20d687ea7" d="M12.406250 -8.296875l16.109375 0.000000l0.000000 -55.625000l-17.531250 3.515625l0.000000 -8.984375l17.437500 -3.515625l9.859375 0.000000l0.000000 64.609375l16.109375 0.000000l0.000000 8.296875l-41.984375 0.000000z"/>
</defs>
<g style="fill: #000000; opacity: 1.000000" transform="translate(504.173437,401.706250)scale(0.120000)">
<use xlink:href="#c_42baa63129a918535c52adb20d687ea7"/>
<use xlink:href="#c_7a2040fe3b94fcd41d0a72c84e93b115" x="63.623047"/>
<use xlink:href="#c_7a2040fe3b94fcd41d0a72c84e93b115" x="127.246094"/>
<use xlink:href="#c_7a2040fe3b94fcd41d0a72c84e93b115" x="190.869141"/>
</g>
</g>
</g>
</g>
<g id="matplotlib.axis2">
<g id="ytick1">
<g id="line2d20">
<path style="fill: none; stroke: #000000; stroke-width: 0.500000; stroke-linejoin: round; stroke-linecap: butt; stroke-dasharray: 1.000000,3.000000; stroke-dashoffset: 0.000000; opacity: 1.000000" clip-path="url(#p50431ccdcb28178602d99d9270004dde)" d="M72.000000 388.800000L518.400000 388.800000"/>
</g>
<g id="line2d21">
<defs><path id="m3400efa6b1638b3fea9e19e898273957" d="M0.000000 0.000000L4.000000 0.000000"/></defs>
<g ><use style="fill: none; stroke: #000000; stroke-width: 0.500000; stroke-linejoin: round; stroke-linecap: butt;  opacity: 1.000000" xlink:href="#m3400efa6b1638b3fea9e19e898273957" x="72.000000" y="388.800000"/>
</g></g>
<g id="line2d22">
<defs><path id="m20b58b2501143cb5e0a5e8f1ef6f1643" d="M0.000000 0.000000L-4.000000 0.000000"/></defs>
<g ><use style="fill: none; stroke: #000000; stroke-width: 0.500000; stroke-linejoin: round; stroke-linecap: butt;  opacity: 1.000000" xlink:href="#m20b58b2501143cb5e0a5e8f1ef6f1643" x="518.400000" y="388.800000"/>
</g></g>
<g id="text7">
<defs>
<path id="c_ed3e21196fb739f392806f09ca0594ef" d="M10.687500 -12.406250l10.312500 0.000000l0.000000 12.406250l-10.312500 0.000000z"/>
</defs>
<g style="fill: #000000; opacity: 1.000000" transform="translate(35.625000,393.167188)scale(0.120000)">
<use xlink:href="#c_7a2040fe3b94fcd41d0a72c84e93b115"/>
<use xlink:href="#c_ed3e21196fb739f392806f09ca0594ef" x="63.623047"/>
<use xlink:href="#c_7a2040fe3b94fcd41d0a72c84e93b115" x="95.410156"/>
<use xlink:href="#c_7a2040fe3b94fcd41d0a72c84e93b115" x="159.033203"/>
<use xlink:href="#c_ed3f3ed3ebfbd18bcb9c012009a68ad1" x="222.656250"/>
</g>
</g>
</g>
<g id="ytick2">
<g id="line2d23">
<path style="fill: none; stroke: #000000; stroke-width: 0.500000; stroke-linejoin: round; stroke-linecap: butt; stroke-dasharray: 1.000000,3.000000; stroke-dashoffset: 0.000000; opacity: 1.000000" clip-path="url(#p50431ccdcb28178602d99d9270004dde)" d="M72.000000 331.200000L518.400000 331.200000"/>
</g>
<g id="line2d24">
<g ><use style="fill: none; stroke: #000000; stroke-width: 0.500000; stroke-linejoin: round; stroke-linecap: butt;  opacity: 1.000000" xlink:href="#m3400efa6b1638b3fea9e19e898273957" x="72.000000" y="331.200000"/>
</g></g>
<g id="line2d25">
<g ><use style="fill: none; stroke: #000000; stroke-width: 0.500000; stroke-linejoin: round; stroke-linecap: butt;  opacity: 1.000000" xlink:href="#m20b58b2501143cb5e0a5e8f1ef6f1643" x="518.400000" y="331.200000"/>
</g></g>
<g id="text8">
<g style="fill: #000000; opacity: 1.000000" transform="translate(35.093750,335.567188)scale(0.120000)">
<use xlink:href="#c_7a2040fe3b94fcd41d0a72c84e93b115"/>
<use xlink:href="#c_ed3e21196fb739f392806f09ca0594ef" x="63.623047"/>
<use xlink:href="#c_7a2040fe3b94fcd41d0a72c84e93b115" x="95.410156"/>
<use xlink:href="#c_7a2040fe3b94fcd41d0a72c84e93b115" x="159.033203"/>
<use xlink:href="#c_a0416418d96557a09b8c1332d34883ba" x="222.656250"/>
</g>
</g>
</g>
<g id="ytick3">
<g id="line2d26">
<path style="fill: none; stroke: #000000; stroke-width: 0.500000; stroke-linejoin: round; stroke-linecap: butt; stroke-dasharray: 1.000000,3.000000; stroke-dashoffset: 0.000000; opacity: 1.000000" clip-path="url(#p50431ccdcb28178602d99d9270004dde)" d="M72.000000 273.600000L518.400000 273.600000"/>
</g>
<g id="line2d27">
<g ><use style="fill: none; stroke: #000000; stroke-width: 0.500000; stroke-linejoin: round; stroke-linecap: butt;  opacity: 1.000000" xlink:href="#m3400efa6b1638b3fea9e19e898273957" x="72.000000" y="273.600000"/>
</g></g>
<g id="line2d28">
<g ><use style="fill: none; stroke: #000000; stroke-width: 0.500000; stroke-linejoin: round; stroke-linecap: butt;  opacity: 1.000000" xlink:href="#m20b58b2501143cb5e0a5e8f1ef6f1643" x="518.400000" y="273.600000"/>
</g></g>
<g id="text9">
<g style="fill: #000000; opacity: 1.000000" transform="translate(35.187500,277.967188)scale(0.120000)">
<use xlink:href="#c_7a2040fe3b94fcd41d0a72c84e93b115"/>
<use xlink:href="#c_ed3e21196fb739f392806f09ca0594ef" x="63.623047"/>
<use xlink:href="#c_7a2040fe3b94fcd41d0a72c84e93b115" x="95.410156"/>
<use xlink:href="#c_7a2040fe3b94fcd41d0a72c84e93b115" x="159.033203"/>
<use xlink:href="#c_cc8d6d580d1b10c8632f7a42cd53db8a" x="222.656250"/>
</g>
</g>
</g>
<g id="ytick4">
<g id="line2d29">
<path style="fill: none; stroke: #000000; stroke-width: 0.500000; stroke-linejoin: round; stroke-linecap: butt; stroke-dasharray: 1.000000,3.000000; stroke-dashoffset: 0.000000; opacity: 1.000000" clip-path="url(#p50431ccdcb28178602d99d9270004dde)" d="M72.000000 216.000000L518.400000 216.000000"/>
</g>
<g id="line2d30">
<g ><use style="fill: none; stroke: #000000; stroke-width: 0.500000; stroke-linejoin: round; stroke-linecap: butt;  opacity: 1.000000" xlink:href="#m3400efa6b1638b3fea9e19e898273957" x="72.000000" y="216.000000"/>
</g></g>
<g id="line2d31">
<g ><use style="fill: none; stroke: #000000; stroke-width: 0.500000; stroke-linejoin: round; stroke-linecap: butt;  opacity: 1.000000" xlink:href="#m20b58b2501143cb5e0a5e8f1ef6f1643" x="518.400000" y="216.000000"/>
</g></g>
<g id="text10">
<g style="fill: #000000; opacity: 1.000000" transform="translate(35.250000,220.367188)scale(0.120000)">
<use xlink:href="#c_7a2040fe3b94fcd41d0a72c84e93b115"/>
<use xlink:href="#c_ed3e21196fb739f392806f09ca0594ef" x="63.623047"/>
<use xlink:href="#c_7a2040fe3b94fcd41d0a72c84e93b115" x="95.410156"/>
<use xlink:href="#c_7a2040fe3b94fcd41d0a72c84e93b115" x="159.033203"/>
<use xlink:href="#c_bef35738d52871942e50b9de9b122bab" x="222.656250"/>
</g>
</g>
</g>
<g id="ytick5">
<g id="line2d32">
<path style="fill: none; stroke: #000000; stroke-width: 0.500000; stroke-linejoin: round; stroke-linecap: butt; stroke-dasharray: 1.000000,3.000000; stroke-dashoffset: 0.000000; opacity: 1.000000" clip-path="url(#p50431ccdcb28178602d99d9270004dde)" d="M72.000000 158.400000L518.400000 158.400000"/>
</g>
<g id="line2d33">
<g ><use style="fill: none; stroke: #000000; stroke-width: 0.500000; stroke-linejoin: round; stroke-linecap: butt;  opacity: 1.000000" xlink:href="#m3400efa6b1638b3fea9e19e898273957" x="72.000000" y="158.400000"/>
</g></g>
<g id="line2d34">
<g ><use style="fill: none; stroke: #000000; stroke-width: 0.500000; stroke-linejoin: round; stroke-linecap: butt;  opacity: 1.000000" xlink:href="#m20b58b2501143cb5e0a5e8f1ef6f1643" x="518.400000" y="158.400000"/>
</g></g>
<g id="text11">
<g style="fill: #000000; opacity: 1.000000" transform="translate(35.218750,162.767188)scale(0.120000)">
<use xlink:href="#c_7a2040fe3b94fcd41d0a72c84e93b115"/>
<use xlink:href="#c_ed3e21196fb739f392806f09ca0594ef" x="63.623047"/>
<use xlink:href="#c_7a2040fe3b94fcd41d0a72c84e93b115" x="95.410156"/>
<use xlink:href="#c_42baa63129a918535c52adb20d687ea7" x="159.033203"/>
<use xlink:href="#c_7a2040fe3b94fcd41d0a72c84e93b115" x="222.656250"/>
</g>
</g>
</g>
<g id="ytick6">
<g id="line2d35">
<path style="fill: none; stroke: #000000; stroke-width: 0.500000; stroke-linejoin: round; stroke-linecap: butt; stroke-dasharray: 1.000000,3.000000; stroke-dashoffset: 0.000000; opacity: 1.000000" clip-path="url(#p50431ccdcb28178602d99d9270004dde)" d="M72.000000 100.800000L518.400000 100.800000"/>
</g>
<g id="line2d36">
<g ><use style="fill: none; stroke: #000000; stroke-width: 0.500000; stroke-linejoin: round; stroke-linecap: butt;  opacity: 1.000000" xlink:href="#m3400efa6b1638b3fea9e19e898273957" x="72.000000" y="100.800000"/>
</g></g>
<g id="line2d37">
<g ><use style="fill: none; stroke: #000000; stroke-width: 0.500000; stroke-linejoin: round; stroke-linecap: butt;  opacity: 1.000000" xlink:href="#m20b58b2501143cb5e0a5e8f1ef6f1643" x="518.400000" y="100.800000"/>
</g></g>
<g id="text12">
<g style="fill: #000000; opacity: 1.000000" transform="translate(35.625000,105.167188)scale(0.120000)">
<use xlink:href="#c_7a2040fe3b94fcd41d0a72c84e93b115"/>
<use xlink:href="#c_ed3e21196fb739f392806f09ca0594ef" x="63.623047"/>
<use xlink:href="#c_7a2040fe3b94fcd41d0a72c84e93b115" x="95.410156"/>
<use xlink:href="#c_42baa63129a918535c52adb20d687ea7" x="159.033203"/>
<use xlink:href="#c_ed3f3ed3ebfbd18bcb9c012009a68ad1" x="222.656250"/>
</g>
</g>
</g>
<g id="ytick7">
<g id="line2d38">
<path style="fill: none; stroke: #000000; stroke-width: 0.500000; stroke-linejoin: round; stroke-linecap: butt; stroke-dasharray: 1.000000,3.000000; stroke-dashoffset: 0.000000; opacity: 1.000000" clip-path="url(#p50431ccdcb28178602d99d9270004dde)" d="M72.000000 43.200000L518.400000 43.200000"/>
</g>
<g id="line2d39">
<g ><use style="fill: none; stroke: #000000; stroke-width: 0.500000; stroke-linejoin: round; stroke-linecap: butt;  opacity: 1.000000" xlink:href="#m3400efa6b1638b3fea9e19e898273957" x="72.000000" y="43.200000"/>
</g></g>
<g id="line2d40">
<g ><use style="fill: none; stroke: #000000; stroke-width: 0.500000; stroke-linejoin: round; stroke-linecap: butt;  opacity: 1.000000" xlink:href="#m20b58b2501143cb5e0a5e8f1ef6f1643" x="518.400000" y="43.200000"/>
</g></g>
<g id="text13">
<g style="fill: #000000; opacity: 1.000000" transform="translate(35.093750,47.567188)scale(0.120000)">
<use xlink:href="#c_7a2040fe3b94fcd41d0a72c84e93b115"/>
<use xlink:href="#c_ed3e21196fb739f392806f09ca0594ef" x="63.623047"/>
<use xlink:href="#c_7a2040fe3b94fcd41d0a72c84e93b115" x="95.410156"/>
<use xlink:href="#c_42baa63129a918535c52adb20d687ea7" x="159.033203"/>
<use xlink:href="#c_a0416418d96557a09b8c1332d34883ba" x="222.656250"/>
</g>
</g>
</g>
</g>
<g id="patch3">
<path style="fill: none; stroke: #000000; stroke-width: 1.000000; stroke-linejoin: round; stroke-linecap: square;  opacity: 1.000000"  d="M72.000000 43.200000L518.400000 43.200000"/>
</g>
<g id="patch4">
<path style="fill: none; stroke: #000000; stroke-width: 1.000000; stroke-linejoin: round; stroke-linecap: square;  opacity: 1.000000"  d="M518.400000 388.800000L518.400000 43.200000"/>
</g>
<g id="patch5">
<path style="fill: none; stroke: #000000; stroke-width: 1.000000; stroke-linejoin: round; stroke-linecap: square;  opacity: 1.000000"  d="M72.000000 388.800000L518.400000 388.800000"/>
</g>
<g id="patch6">
<path style="fill: none; stroke: #000000; stroke-width: 1.000000; stroke-linejoin: round; stroke-linecap: square;  opacity: 1.000000"  d="M72.000000 388.800000L72.000000 43.200000"/>
</g>
</g>
</g>
</svg>
