<?xml version="1.0" standalone="no"?>
<!DOCTYPE svg PUBLIC "-//W3C//DTD SVG 1.1//EN"
  "http://www.w3.org/Graphics/SVG/1.1/DTD/svg11.dtd">
<!-- Created with matplotlib (http://matplotlib.sourceforge.net/) -->
<svg width="576pt" height="432pt" viewBox="0 0 576 432"
   xmlns="http://www.w3.org/2000/svg"
   xmlns:xlink="http://www.w3.org/1999/xlink"
   version="1.1"
   id="svg1">
<g id="figure1">
<g id="patch1">
<path style="fill: #ffffff; stroke: #ffffff; stroke-width: 1.000000; stroke-linejoin: round; stroke-linecap: square;  opacity: 1.000000"  d="M0.000000 432.000000L576.000000 432.000000L576.000000 0.000000
L0.000000 0.000000L0.000000 432.000000"/>
</g>
<g id="axes1">
<g id="patch2">
<path style="fill: #ffffff; opacity: 1.000000"  d="M72.000000 388.800000L518.400000 388.800000L518.400000 43.200000
L72.000000 43.200000L72.000000 388.800000"/>
</g>
<g id="line2d1">
<defs>
  <clipPath id="p50431ccdcb28178602d99d9270004dde">
<rect x="72.000000" y="43.200000" width="446.400000" height="345.600000"/>
  </clipPath>
</defs><path style="fill: none; stroke: #ff0000; stroke-width: 1.000000; stroke-linejoin: round; stroke-linecap: square;  opacity: 1.000000" clip-path="url(#p50431ccdcb28178602d99d9270004dde)" d="M72.000000 272.860453L72.446400 77.728017L72.892800 152.400184
L73.785600 108.626550L74.232000 121.768645L74.678400 111.971083
L75.571200 122.354039L76.464000 198.812215L76.910400 207.317087
L77.356800 123.524825L77.803200 203.033844L78.249600 127.257660
L78.696000 185.671541L79.588800 124.981802L80.481600 213.976661
L80.928000 203.018700L81.374400 201.375791L81.820800 110.512230
L82.267200 111.981666L82.713600 208.429716L83.160000 191.467522
L83.606400 132.121890L84.052800 211.484380L84.499200 165.235241
L84.945600 247.956485L85.392000 120.704816L85.838400 207.956093
L86.284800 94.029128L86.731200 202.376157L87.177600 211.468634
L87.624000 117.768547L88.070400 113.440242L88.516800 217.099137
L88.963200 202.381407L89.409600 167.054880L89.856000 241.756292
L90.302400 204.635773L90.748800 206.972454L91.195200 170.008217
L91.641600 228.762788L92.088000 201.975036L92.534400 196.775350
L92.980800 219.116210L93.427200 120.892679L94.320000 241.744260
L94.766400 126.097474L95.212800 206.844632L96.105600 200.202148
L96.552000 212.403136L97.444800 193.415014L97.891200 220.484312
L98.337600 204.990021L98.784000 172.133430L99.230400 242.520972
L99.676800 205.150887L100.123200 200.679821L101.016000 211.055143
L101.462400 201.942442L101.908800 210.330480L102.355200 208.466795
L102.801600 188.917967L103.248000 143.811345L103.694400 204.242366
L104.140800 164.766457L104.587200 163.759300L105.480000 209.745254
L105.926400 197.080080L106.819200 210.476228L107.265600 188.107073
L107.712000 222.341607L108.158400 206.934270L108.604800 165.890144
L109.051200 248.779141L109.944000 165.132471L110.390400 242.873392
L110.836800 202.060333L111.283200 207.165332L111.729600 200.373639
L112.622400 210.401703L113.068800 189.967488L113.515200 220.667811
L113.961600 209.159708L114.408000 115.603994L114.854400 253.371817
L115.300800 202.255952L115.747200 205.225236L116.193600 202.259124
L116.640000 208.280691L117.086400 171.852499L117.532800 228.145708
L118.425600 190.785320L118.872000 220.882734L119.318400 205.987926
L119.764800 164.777993L120.211200 248.761906L120.657600 200.889550
L121.550400 205.198860L121.996800 203.631776L122.443200 207.335247
L123.782400 189.998886L124.228800 220.129366L124.675200 114.629732
L125.121600 260.013688L125.568000 209.750820L126.014400 289.572118
L126.460800 237.422558L126.907200 321.547174L127.800000 231.309664
L128.246400 297.879757L129.139200 244.286359L129.585600 284.540371
L130.478400 236.454685L130.924800 288.919149L131.817600 234.822855
L132.264000 293.307862L132.710400 262.871170L133.156800 265.681164
L134.049600 244.869871L134.496000 264.046189L134.942400 261.978660
L135.388800 268.924594L135.835200 260.839176L136.281600 267.874477
L136.728000 262.668045L137.174400 268.494899L138.067200 255.901346
L138.513600 270.896849L138.960000 267.136430L139.406400 238.993409
L139.852800 291.034956L140.745600 241.335786L141.192000 291.088023
L142.084800 255.976575L142.977600 263.689307L143.870400 269.499279
L144.316800 265.708035L144.763200 221.554959L145.209600 296.061208
L145.656000 266.877827L146.995200 258.549480L147.441600 229.214519
L147.888000 295.392145L148.780800 234.748481L149.227200 295.031120
L149.673600 268.329551L150.120000 267.103500L151.012800 260.807697
L151.459200 267.738608L152.352000 263.202877L152.798400 269.119879
L153.244800 262.038567L153.691200 269.687479L154.137600 266.537293
L155.030400 239.976255L155.476800 288.288111L155.923200 265.817435
L156.369600 260.848522L156.816000 263.102757L157.708800 260.074733
L158.155200 266.819280L159.048000 262.827143L159.494400 266.834808
L160.387200 258.158111L160.833600 271.139619L161.280000 262.919392
L161.726400 239.651892L162.172800 294.563428L163.065600 220.579712
L163.512000 306.962505L163.958400 267.260840L164.404800 263.211263
L165.297600 258.746683L165.744000 348.632683L166.190400 258.921681
L166.636800 264.504877L167.529600 214.460378L167.976000 313.929993
L168.868800 231.022279L169.315200 294.420668L169.761600 268.072814
L171.100800 258.524034L171.547200 264.625952L171.993600 261.366352
L172.440000 267.723129L172.886400 255.971055L173.779200 276.985880
L174.225600 267.217449L174.672000 247.106737L175.118400 283.500283
L175.564800 266.250364L176.011200 226.459735L176.457600 299.535242
L176.904000 263.352616L177.350400 266.320716L178.243200 260.983066
L178.689600 266.919089L179.136000 265.003546L180.028800 263.224560
L180.475200 227.304582L180.921600 346.928865L181.368000 234.341376
L181.814400 262.956137L182.260800 266.287872L183.153600 263.367353
L184.492800 266.671065L184.939200 263.429777L185.385600 257.254570
L185.832000 265.487947L186.278400 260.128549L186.724800 267.145879
L187.171200 263.824502L187.617600 265.134784L188.064000 268.490926
L188.510400 258.196910L188.956800 264.158508L189.849600 241.395200
L190.296000 276.399334L190.742400 267.925663L191.635200 265.924142
L192.081600 263.062696L192.528000 237.187248L192.974400 297.680805
L193.420800 265.852320L194.313600 262.117270L194.760000 267.944253
L196.099200 254.571445L196.545600 264.478873L196.992000 255.704523
L197.438400 273.347184L197.884800 262.640414L198.331200 241.745887
L198.777600 291.345655L199.670400 240.435240L200.116800 290.550802
L200.563200 269.006906L201.456000 262.469260L201.902400 266.451699
L202.795200 263.761293L203.241600 261.755230L203.688000 266.830734
L204.134400 263.465561L205.027200 266.174313L205.473600 246.738758
L205.920000 277.186593L206.366400 263.446793L206.812800 260.290085
L207.259200 267.891869L208.152000 233.641863L208.598400 295.262174
L209.044800 266.633832L209.937600 259.856403L210.830400 269.030509
L211.723200 259.904827L212.616000 266.208238L213.062400 241.638028
L213.508800 280.293104L214.401600 252.755482L214.848000 275.084625
L215.740800 262.267702L216.633600 265.632693L217.080000 269.931282
L217.526400 260.692012L218.865600 269.069368L219.758400 261.236885
L220.204800 263.647936L221.097600 264.777869L221.544000 266.561670
L221.990400 264.121033L222.436800 225.943499L222.883200 295.114334
L223.776000 236.130906L224.222400 291.521973L225.115200 232.001147
L225.561600 297.920093L226.008000 265.045244L226.454400 263.303202
L226.900800 268.418473L227.347200 266.417266L227.793600 346.596768
L228.240000 220.922784L228.686400 299.045132L229.579200 235.682949
L230.025600 290.135236L230.472000 266.777328L230.918400 268.410958
L231.364800 265.821391L231.811200 260.593866L232.257600 265.742259
L232.704000 264.374686L233.150400 265.578979L233.596800 263.943703
L234.043200 266.493846L234.936000 264.168294L235.382400 256.546473
L235.828800 265.639840L236.275200 262.911992L236.721600 241.249646
L237.168000 274.976148L238.060800 256.483407L238.507200 277.000906
L239.400000 257.220176L239.846400 277.095478L240.739200 258.988330
L241.185600 268.029528L242.078400 226.580650L242.524800 299.580919
L242.971200 266.922394L243.417600 261.737226L243.864000 263.277554
L244.756800 264.832963L246.096000 269.080362L246.542400 264.773488
L247.435200 269.238844L247.881600 262.427663L248.328000 264.676045
L248.774400 263.349271L249.220800 269.771072L249.667200 264.885391
L250.560000 263.138077L251.006400 268.134020L251.452800 260.714059
L251.899200 269.876918L252.345600 265.410101L252.792000 266.859617
L253.238400 260.968837L254.131200 265.888267L255.024000 262.104933
L255.470400 268.414008L256.809600 262.769522L257.702400 268.908634
L258.148800 263.124475L259.041600 346.061171L259.488000 264.611200
L259.934400 262.358481L260.827200 266.679352L261.273600 262.906428
L262.166400 267.450360L262.612800 264.134210L263.505600 265.841955
L263.952000 267.675432L264.844800 263.901392L265.737600 267.952044
L266.184000 258.890490L266.630400 263.510175L267.523200 264.818989
L267.969600 268.233933L268.416000 266.033643L268.862400 224.693167
L269.308800 295.683457L270.201600 233.730387L270.648000 292.664872
L271.540800 227.196234L271.987200 307.246495L272.433600 261.011625
L272.880000 264.115834L273.326400 270.599352L273.772800 260.920015
L274.219200 264.584766L276.004800 266.879402L276.451200 265.333764
L276.897600 225.881276L277.344000 293.055222L278.236800 251.109785
L278.683200 280.592079L279.129600 262.128307L279.576000 228.344926
L280.022400 303.889091L280.468800 264.434248L280.915200 262.226286
L281.361600 265.983099L281.808000 258.024408L282.254400 261.510370
L282.700800 222.422598L283.147200 297.510090L283.593600 262.357549
L284.040000 266.851532L284.932800 265.174887L285.379200 261.605632
L285.825600 268.118341L286.272000 269.393169L286.718400 261.656251
L287.611200 266.493952L288.057600 268.581244L288.504000 262.819550
L288.950400 265.036136L289.843200 263.073061L290.289600 260.598797
L290.736000 269.637523L291.628800 263.054981L292.521600 269.224391
L292.968000 265.273081L293.860800 261.803293L294.307200 265.444384
L294.753600 262.448181L295.200000 195.342647L295.646400 294.820665
L296.092800 266.444058L296.985600 263.433105L297.432000 252.305445
L298.324800 266.152703L298.771200 263.857733L299.664000 261.471513
L300.110400 226.544889L300.556800 295.014632L301.003200 261.737643
L301.896000 266.888178L302.788800 263.393113L303.235200 260.382066
L303.681600 265.997568L304.574400 262.221410L305.020800 263.829733
L305.913600 265.760476L306.360000 242.175775L306.806400 275.643540
L307.252800 263.600828L307.699200 225.563340L308.145600 294.742595
L308.592000 265.064884L309.484800 258.123389L309.931200 265.309455
L310.377600 263.929044L311.716800 263.731352L312.163200 262.597625
L312.609600 258.944700L313.056000 264.306133L313.502400 259.463789
L313.948800 265.424577L315.288000 262.501717L315.734400 265.531876
L317.073600 258.906578L317.520000 266.610432L318.859200 260.155986
L319.305600 266.726997L320.198400 262.015680L321.091200 260.004814
L321.537600 264.794763L321.984000 265.945436L322.430400 262.468947
L323.769600 266.591959L324.216000 200.803573L324.662400 263.824152
L325.108800 265.411131L326.448000 262.632222L326.894400 266.860722
L327.340800 265.452248L327.787200 259.960927L328.233600 264.192532
L328.680000 261.307551L329.126400 242.857550L329.572800 279.101321
L330.465600 249.492987L330.912000 270.342672L331.358400 265.725105
L331.804800 241.629197L332.251200 289.626678L332.697600 261.701141
L333.590400 266.528462L334.483200 261.066356L334.929600 264.946224
L335.376000 263.189300L335.822400 265.314661L336.715200 262.487570
L337.161600 265.142239L337.608000 263.035099L338.947200 264.646878
L339.393600 206.778652L339.840000 262.859891L341.179200 266.211253
L341.625600 261.492580L342.518400 264.575204L342.964800 258.591346
L343.857600 265.075272L344.304000 261.892172L344.750400 264.252838
L346.089600 263.227662L346.982400 265.723354L347.428800 260.479921
L348.321600 265.113624L348.768000 263.500180L350.107200 265.842650
L352.339200 260.597452L352.785600 265.168322L354.124800 261.954637
L355.017600 266.738788L355.910400 261.277169L356.803200 265.479295
L357.249600 264.269898L357.696000 261.242943L359.035200 264.987830
L359.481600 263.416615L360.820800 261.357129L361.267200 259.979417
L362.160000 268.064406L362.606400 261.701280L363.499200 263.216447
L363.945600 267.629016L364.838400 260.658016L365.731200 267.994362
L366.177600 211.744455L366.624000 261.274012L367.516800 263.996738
L367.963200 259.062636L368.409600 265.194370L368.856000 261.178706
L369.302400 264.661462L369.748800 263.156213L370.641600 261.901782
L371.088000 263.981293L371.980800 265.556081L372.427200 262.356297
L372.873600 265.061956L373.766400 248.347902L374.212800 261.876291
L374.659200 260.566175L375.105600 265.416039L375.552000 264.014950
L375.998400 265.468507L376.444800 262.815732L376.891200 264.866315
L377.784000 261.544584L378.230400 262.844362L378.676800 266.385885
L380.016000 262.189792L380.908800 264.723984L381.801600 262.719787
L382.248000 264.897106L382.694400 262.880170L383.140800 265.784883
L383.587200 261.924151L384.033600 264.632812L384.480000 261.946132
L384.926400 266.050467L385.372800 262.495001L386.712000 267.677430
L387.158400 263.112804L388.497600 265.854099L388.944000 260.891499
L389.390400 348.532081L389.836800 259.391556L390.283200 265.606789
L391.622400 260.472300L392.068800 265.942653L393.408000 261.603339
L393.854400 265.719855L394.300800 264.507407L395.193600 259.469056
L395.640000 245.690753L396.086400 279.418439L396.532800 254.663228
L396.979200 263.604586L398.318400 262.880681L398.764800 265.125898
L400.104000 263.974780L401.443200 264.289666L402.782400 261.501798
L403.228800 264.698258L403.675200 262.230069L404.121600 263.721664
L405.907200 260.379697L406.353600 263.703065L406.800000 258.634699
L407.246400 261.118466L408.585600 262.161903L409.032000 260.460566
L409.924800 262.609810L410.371200 265.098214L410.817600 260.358138
L411.710400 256.318149L412.156800 260.392682L413.049600 259.299487
L413.496000 263.326620L413.942400 260.956061L415.281600 262.503225
L416.174400 259.608985L416.620800 261.150444L417.067200 264.889786
L417.513600 259.959733L418.852800 262.377169L419.745600 257.705301
L420.638400 263.409966L421.084800 259.836303L421.531200 264.422607
L422.870400 260.145054L423.316800 263.122922L423.763200 260.743260
L425.102400 264.539609L425.548800 261.439193L426.441600 259.931985
L427.334400 263.301732L427.780800 262.149887L429.120000 262.528074
L430.012800 260.667416L430.459200 258.360014L430.905600 261.583885
L431.798400 258.884257L432.691200 262.849819L434.476800 260.254698
L434.923200 264.138497L435.369600 261.187001L436.262400 258.035424
L436.708800 264.527576L437.155200 261.058200L438.494400 263.542040
L438.940800 261.580990L439.833600 259.746985L440.280000 265.267322
L441.172800 258.538622L441.619200 260.995457L442.065600 256.573476
L442.958400 263.821222L443.851200 258.936264L444.297600 264.114877
L445.190400 261.756272L445.636800 256.660269L446.083200 263.037397
L446.976000 258.328159L447.868800 262.712602L448.761600 259.736673
L450.100800 262.563267L451.440000 259.136580L451.886400 266.024787
L452.332800 256.994168L452.779200 261.586510L453.225600 258.042561
L453.672000 264.301464L454.118400 260.838362L455.457600 263.910899
L455.904000 260.169258L457.243200 257.832030L457.689600 264.486919
L458.136000 261.856653L458.582400 255.961218L459.475200 264.775493
L459.921600 259.646428L460.368000 261.234430L460.814400 257.260357
L461.260800 264.616834L461.707200 260.410767L462.153600 264.340946
L462.600000 261.225034L463.046400 262.390142L464.385600 262.115352
L464.832000 253.616903L465.724800 264.751432L466.171200 257.311451
L466.617600 258.358457L467.064000 264.686427L467.956800 258.840836
L468.849600 261.823885L470.188800 259.004782L471.081600 264.267436
L471.974400 257.483712L472.867200 262.156216L473.760000 259.769693
L474.652800 262.405197L475.992000 258.384754L476.438400 262.112074
L476.884800 260.805245L478.224000 262.968803L480.009600 258.164424
L480.456000 262.199716L481.795200 259.754662L482.241600 264.156826
L482.688000 262.690316L483.134400 259.424112L484.027200 265.929537
L484.473600 258.794680L484.920000 261.244267L485.366400 259.845958
L485.812800 264.339223L486.259200 260.474475L486.705600 261.547263
L487.598400 257.857313L488.491200 262.894296L488.937600 260.910142
L489.830400 263.109764L490.276800 265.119887L490.723200 259.404084
L491.616000 263.163495L492.508800 260.766660L493.848000 265.151327
L494.740800 259.520568L496.080000 264.498804L496.972800 258.230131
L497.419200 263.109943L498.312000 260.990018L498.758400 259.017538
L499.651200 265.385821L500.544000 259.154353L500.990400 263.121582
L502.329600 256.968335L503.668800 263.687457L504.561600 258.956321
L505.008000 262.722888L505.454400 260.986771L506.793600 263.759016
L508.132800 259.961736L508.579200 262.155200L509.025600 261.005390
L509.472000 262.665758L510.364800 259.798258L510.811200 263.062550
L511.704000 261.603667L512.150400 259.812088L512.596800 264.310130
L513.043200 260.960819L513.489600 252.813624L514.382400 263.277848
L514.828800 259.058849L515.275200 261.966890L516.168000 264.973236
L517.060800 258.844518L517.953600 261.021235L517.953600 261.021235"/>
</g>
<g id="matplotlib.axis1">
<g id="xtick1">
<g id="line2d2">
<path style="fill: none; stroke: #000000; stroke-width: 0.500000; stroke-linejoin: round; stroke-linecap: butt; stroke-dasharray: 1.000000,3.000000; stroke-dashoffset: 0.000000; opacity: 1.000000" clip-path="url(#p50431ccdcb28178602d99d9270004dde)" d="M72.000000 388.800000L72.000000 43.200000"/>
</g>
<g id="line2d3">
<defs><path id="m30e32995789d870ad79a2e54c91cf9c6" d="M0.000000 0.000000L0.000000 -4.000000"/></defs>
<g ><use style="fill: none; stroke: #000000; stroke-width: 0.500000; stroke-linejoin: round; stroke-linecap: butt;  opacity: 1.000000" xlink:href="#m30e32995789d870ad79a2e54c91cf9c6" x="72.000000" y="388.800000"/>
</g></g>
<g id="line2d4">
<defs><path id="m9281cae24120827b11d5ea8a7ad3e96b" d="M0.000000 0.000000L0.000000 4.000000"/></defs>
<g ><use style="fill: none; stroke: #000000; stroke-width: 0.500000; stroke-linejoin: round; stroke-linecap: butt;  opacity: 1.000000" xlink:href="#m9281cae24120827b11d5ea8a7ad3e96b" x="72.000000" y="43.200000"/>
</g></g>
<g id="text1">
<defs>
<path id="c_7a2040fe3b94fcd41d0a72c84e93b115" d="M31.781250 -66.406250q-7.609375 0.000000 -11.453125 7.500000q-3.828125 7.484375 -3.828125 22.531250q0.000000 14.984375 3.828125 22.484375q3.843750 7.500000 11.453125 7.500000q7.671875 0.000000 11.500000 -7.500000q3.843750 -7.500000 3.843750 -22.484375q0.000000 -15.046875 -3.843750 -22.531250q-3.828125 -7.500000 -11.500000 -7.500000M31.781250 -74.218750q12.265625 0.000000 18.734375 9.703125q6.468750 9.687500 6.468750 28.140625q0.000000 18.406250 -6.468750 28.109375q-6.468750 9.687500 -18.734375 9.687500q-12.250000 0.000000 -18.718750 -9.687500q-6.468750 -9.703125 -6.468750 -28.109375q0.000000 -18.453125 6.468750 -28.140625q6.468750 -9.703125 18.718750 -9.703125"/>
</defs>
<g style="fill: #000000; opacity: 1.000000" transform="translate(68.976562,401.706250)scale(0.120000)">
<use xlink:href="#c_7a2040fe3b94fcd41d0a72c84e93b115"/>
</g>
</g>
</g>
<g id="xtick2">
<g id="line2d5">
<path style="fill: none; stroke: #000000; stroke-width: 0.500000; stroke-linejoin: round; stroke-linecap: butt; stroke-dasharray: 1.000000,3.000000; stroke-dashoffset: 0.000000; opacity: 1.000000" clip-path="url(#p50431ccdcb28178602d99d9270004dde)" d="M161.280000 388.800000L161.280000 43.200000"/>
</g>
<g id="line2d6">
<g ><use style="fill: none; stroke: #000000; stroke-width: 0.500000; stroke-linejoin: round; stroke-linecap: butt;  opacity: 1.000000" xlink:href="#m30e32995789d870ad79a2e54c91cf9c6" x="161.280000" y="388.800000"/>
</g></g>
<g id="line2d7">
<g ><use style="fill: none; stroke: #000000; stroke-width: 0.500000; stroke-linejoin: round; stroke-linecap: butt;  opacity: 1.000000" xlink:href="#m9281cae24120827b11d5ea8a7ad3e96b" x="161.280000" y="43.200000"/>
</g></g>
<g id="text2">
<defs>
<path id="c_ed3f3ed3ebfbd18bcb9c012009a68ad1" d="M19.187500 -8.296875l34.421875 0.000000l0.000000 8.296875l-46.281250 0.000000l0.000000 -8.296875q5.609375 -5.812500 15.296875 -15.593750q9.703125 -9.796875 12.187500 -12.640625q4.734375 -5.312500 6.609375 -9.000000q1.890625 -3.687500 1.890625 -7.250000q0.000000 -5.812500 -4.078125 -9.468750q-4.078125 -3.671875 -10.625000 -3.671875q-4.640625 0.000000 -9.796875 1.609375q-5.140625 1.609375 -11.000000 4.890625l0.000000 -9.968750q5.953125 -2.390625 11.125000 -3.609375q5.187500 -1.218750 9.484375 -1.218750q11.328125 0.000000 18.062500 5.671875q6.734375 5.656250 6.734375 15.125000q0.000000 4.500000 -1.687500 8.531250q-1.671875 4.015625 -6.125000 9.484375q-1.218750 1.421875 -7.765625 8.187500q-6.531250 6.765625 -18.453125 18.921875"/>
</defs>
<g style="fill: #000000; opacity: 1.000000" transform="translate(150.655000,401.706250)scale(0.120000)">
<use xlink:href="#c_ed3f3ed3ebfbd18bcb9c012009a68ad1"/>
<use xlink:href="#c_7a2040fe3b94fcd41d0a72c84e93b115" x="63.623047"/>
<use xlink:href="#c_7a2040fe3b94fcd41d0a72c84e93b115" x="127.246094"/>
</g>
</g>
</g>
<g id="xtick3">
<g id="line2d8">
<path style="fill: none; stroke: #000000; stroke-width: 0.500000; stroke-linejoin: round; stroke-linecap: butt; stroke-dasharray: 1.000000,3.000000; stroke-dashoffset: 0.000000; opacity: 1.000000" clip-path="url(#p50431ccdcb28178602d99d9270004dde)" d="M250.560000 388.800000L250.560000 43.200000"/>
</g>
<g id="line2d9">
<g ><use style="fill: none; stroke: #000000; stroke-width: 0.500000; stroke-linejoin: round; stroke-linecap: butt;  opacity: 1.000000" xlink:href="#m30e32995789d870ad79a2e54c91cf9c6" x="250.560000" y="388.800000"/>
</g></g>
<g id="line2d10">
<g ><use style="fill: none; stroke: #000000; stroke-width: 0.500000; stroke-linejoin: round; stroke-linecap: butt;  opacity: 1.000000" xlink:href="#m9281cae24120827b11d5ea8a7ad3e96b" x="250.560000" y="43.200000"/>
</g></g>
<g id="text3">
<defs>
<path id="c_a0416418d96557a09b8c1332d34883ba" d="M37.796875 -64.312500l-24.906250 38.921875l24.906250 0.000000zM35.203125 -72.906250l12.406250 0.000000l0.000000 47.515625l10.406250 0.000000l0.000000 8.203125l-10.406250 0.000000l0.000000 17.187500l-9.812500 0.000000l0.000000 -17.187500l-32.906250 0.000000l0.000000 -9.515625z"/>
</defs>
<g style="fill: #000000; opacity: 1.000000" transform="translate(239.794375,401.706250)scale(0.120000)">
<use xlink:href="#c_a0416418d96557a09b8c1332d34883ba"/>
<use xlink:href="#c_7a2040fe3b94fcd41d0a72c84e93b115" x="63.623047"/>
<use xlink:href="#c_7a2040fe3b94fcd41d0a72c84e93b115" x="127.246094"/>
</g>
</g>
</g>
<g id="xtick4">
<g id="line2d11">
<path style="fill: none; stroke: #000000; stroke-width: 0.500000; stroke-linejoin: round; stroke-linecap: butt; stroke-dasharray: 1.000000,3.000000; stroke-dashoffset: 0.000000; opacity: 1.000000" clip-path="url(#p50431ccdcb28178602d99d9270004dde)" d="M339.840000 388.800000L339.840000 43.200000"/>
</g>
<g id="line2d12">
<g ><use style="fill: none; stroke: #000000; stroke-width: 0.500000; stroke-linejoin: round; stroke-linecap: butt;  opacity: 1.000000" xlink:href="#m30e32995789d870ad79a2e54c91cf9c6" x="339.840000" y="388.800000"/>
</g></g>
<g id="line2d13">
<g ><use style="fill: none; stroke: #000000; stroke-width: 0.500000; stroke-linejoin: round; stroke-linecap: butt;  opacity: 1.000000" xlink:href="#m9281cae24120827b11d5ea8a7ad3e96b" x="339.840000" y="43.200000"/>
</g></g>
<g id="text4">
<defs>
<path id="c_cc8d6d580d1b10c8632f7a42cd53db8a" d="M33.015625 -40.375000q-6.640625 0.000000 -10.531250 4.546875q-3.875000 4.531250 -3.875000 12.437500q0.000000 7.859375 3.875000 12.437500q3.890625 4.562500 10.531250 4.562500q6.640625 0.000000 10.515625 -4.562500q3.875000 -4.578125 3.875000 -12.437500q0.000000 -7.906250 -3.875000 -12.437500q-3.875000 -4.546875 -10.515625 -4.546875M52.593750 -71.296875l0.000000 8.984375q-3.718750 -1.750000 -7.500000 -2.671875q-3.781250 -0.937500 -7.500000 -0.937500q-9.765625 0.000000 -14.921875 6.593750q-5.140625 6.593750 -5.875000 19.921875q2.875000 -4.250000 7.218750 -6.515625q4.359375 -2.265625 9.578125 -2.265625q10.984375 0.000000 17.359375 6.671875q6.375000 6.656250 6.375000 18.125000q0.000000 11.234375 -6.640625 18.031250q-6.640625 6.781250 -17.671875 6.781250q-12.656250 0.000000 -19.343750 -9.687500q-6.687500 -9.703125 -6.687500 -28.109375q0.000000 -17.281250 8.203125 -27.562500q8.203125 -10.281250 22.015625 -10.281250q3.718750 0.000000 7.500000 0.734375q3.781250 0.734375 7.890625 2.187500"/>
</defs>
<g style="fill: #000000; opacity: 1.000000" transform="translate(329.199375,401.706250)scale(0.120000)">
<use xlink:href="#c_cc8d6d580d1b10c8632f7a42cd53db8a"/>
<use xlink:href="#c_7a2040fe3b94fcd41d0a72c84e93b115" x="63.623047"/>
<use xlink:href="#c_7a2040fe3b94fcd41d0a72c84e93b115" x="127.246094"/>
</g>
</g>
</g>
<g id="xtick5">
<g id="line2d14">
<path style="fill: none; stroke: #000000; stroke-width: 0.500000; stroke-linejoin: round; stroke-linecap: butt; stroke-dasharray: 1.000000,3.000000; stroke-dashoffset: 0.000000; opacity: 1.000000" clip-path="url(#p50431ccdcb28178602d99d9270004dde)" d="M429.120000 388.800000L429.120000 43.200000"/>
</g>
<g id="line2d15">
<g ><use style="fill: none; stroke: #000000; stroke-width: 0.500000; stroke-linejoin: round; stroke-linecap: butt;  opacity: 1.000000" xlink:href="#m30e32995789d870ad79a2e54c91cf9c6" x="429.120000" y="388.800000"/>
</g></g>
<g id="line2d16">
<g ><use style="fill: none; stroke: #000000; stroke-width: 0.500000; stroke-linejoin: round; stroke-linecap: butt;  opacity: 1.000000" xlink:href="#m9281cae24120827b11d5ea8a7ad3e96b" x="429.120000" y="43.200000"/>
</g></g>
<g id="text5">
<defs>
<path id="c_bef35738d52871942e50b9de9b122bab" d="M31.781250 -34.625000q-7.031250 0.000000 -11.062500 3.765625q-4.015625 3.765625 -4.015625 10.343750q0.000000 6.593750 4.015625 10.359375q4.031250 3.765625 11.062500 3.765625q7.031250 0.000000 11.078125 -3.781250q4.062500 -3.796875 4.062500 -10.343750q0.000000 -6.578125 -4.031250 -10.343750q-4.015625 -3.765625 -11.109375 -3.765625M21.921875 -38.812500q-6.343750 -1.562500 -9.890625 -5.906250q-3.531250 -4.359375 -3.531250 -10.609375q0.000000 -8.734375 6.218750 -13.812500q6.234375 -5.078125 17.062500 -5.078125q10.890625 0.000000 17.093750 5.078125q6.203125 5.078125 6.203125 13.812500q0.000000 6.250000 -3.546875 10.609375q-3.531250 4.343750 -9.828125 5.906250q7.125000 1.656250 11.093750 6.500000q3.984375 4.828125 3.984375 11.796875q0.000000 10.609375 -6.468750 16.281250q-6.468750 5.656250 -18.531250 5.656250q-12.046875 0.000000 -18.531250 -5.656250q-6.468750 -5.671875 -6.468750 -16.281250q0.000000 -6.968750 4.000000 -11.796875q4.015625 -4.843750 11.140625 -6.500000M18.312500 -54.390625q0.000000 5.656250 3.531250 8.828125q3.546875 3.171875 9.937500 3.171875q6.359375 0.000000 9.937500 -3.171875q3.593750 -3.171875 3.593750 -8.828125q0.000000 -5.671875 -3.593750 -8.843750q-3.578125 -3.171875 -9.937500 -3.171875q-6.390625 0.000000 -9.937500 3.171875q-3.531250 3.171875 -3.531250 8.843750"/>
</defs>
<g style="fill: #000000; opacity: 1.000000" transform="translate(418.463750,401.706250)scale(0.120000)">
<use xlink:href="#c_bef35738d52871942e50b9de9b122bab"/>
<use xlink:href="#c_7a2040fe3b94fcd41d0a72c84e93b115" x="63.623047"/>
<use xlink:href="#c_7a2040fe3b94fcd41d0a72c84e93b115" x="127.246094"/>
</g>
</g>
</g>
<g id="xtick6">
<g id="line2d17">
<path style="fill: none; stroke: #000000; stroke-width: 0.500000; stroke-linejoin: round; stroke-linecap: butt; stroke-dasharray: 1.000000,3.000000; stroke-dashoffset: 0.000000; opacity: 1.000000" clip-path="url(#p50431ccdcb28178602d99d9270004dde)" d="M518.400000 388.800000L518.400000 43.200000"/>
</g>
<g id="line2d18">
<g ><use style="fill: none; stroke: #000000; stroke-width: 0.500000; stroke-linejoin: round; stroke-linecap: butt;  opacity: 1.000000" xlink:href="#m30e32995789d870ad79a2e54c91cf9c6" x="518.400000" y="388.800000"/>
</g></g>
<g id="line2d19">
<g ><use style="fill: none; stroke: #000000; stroke-width: 0.500000; stroke-linejoin: round; stroke-linecap: butt;  opacity: 1.000000" xlink:href="#m9281cae24120827b11d5ea8a7ad3e96b" x="518.400000" y="43.200000"/>
</g></g>
<g id="text6">
<defs>
<path id="c_42baa63129a918535c52adb20d687ea7" d="M12.406250 -8.296875l16.109375 0.000000l0.000000 -55.625000l-17.531250 3.515625l0.000000 -8.984375l17.437500 -3.515625l9.859375 0.000000l0.000000 64.609375l16.109375 0.000000l0.000000 8.296875l-41.984375 0.000000z"/>
</defs>
<g style="fill: #000000; opacity: 1.000000" transform="translate(504.173437,401.706250)scale(0.120000)">
<use xlink:href="#c_42baa63129a918535c52adb20d687ea7"/>
<use xlink:href="#c_7a2040fe3b94fcd41d0a72c84e93b115" x="63.623047"/>
<use xlink:href="#c_7a2040fe3b94fcd41d0a72c84e93b115" x="127.246094"/>
<use xlink:href="#c_7a2040fe3b94fcd41d0a72c84e93b115" x="190.869141"/>
</g>
</g>
</g>
</g>
<g id="matplotlib.axis2">
<g id="ytick1">
<g id="line2d20">
<path style="fill: none; stroke: #000000; stroke-width: 0.500000; stroke-linejoin: round; stroke-linecap: butt; stroke-dasharray: 1.000000,3.000000; stroke-dashoffset: 0.000000; opacity: 1.000000" clip-path="url(#p50431ccdcb28178602d99d9270004dde)" d="M72.000000 388.800000L518.400000 388.800000"/>
</g>
<g id="line2d21">
<defs><path id="m3400efa6b1638b3fea9e19e898273957" d="M0.000000 0.000000L4.000000 0.000000"/></defs>
<g ><use style="fill: none; stroke: #000000; stroke-width: 0.500000; stroke-linejoin: round; stroke-linecap: butt;  opacity: 1.000000" xlink:href="#m3400efa6b1638b3fea9e19e898273957" x="72.000000" y="388.800000"/>
</g></g>
<g id="line2d22">
<defs><path id="m20b58b2501143cb5e0a5e8f1ef6f1643" d="M0.000000 0.000000L-4.000000 0.000000"/></defs>
<g ><use style="fill: none; stroke: #000000; stroke-width: 0.500000; stroke-linejoin: round; stroke-linecap: butt;  opacity: 1.000000" xlink:href="#m20b58b2501143cb5e0a5e8f1ef6f1643" x="518.400000" y="388.800000"/>
</g></g>
<g id="text7">
<defs>
<path id="c_ed3e21196fb739f392806f09ca0594ef" d="M10.687500 -12.406250l10.312500 0.000000l0.000000 12.406250l-10.312500 0.000000z"/>
</defs>
<g style="fill: #000000; opacity: 1.000000" transform="translate(50.500000,393.167188)scale(0.120000)">
<use xlink:href="#c_7a2040fe3b94fcd41d0a72c84e93b115"/>
<use xlink:href="#c_ed3e21196fb739f392806f09ca0594ef" x="63.623047"/>
<use xlink:href="#c_7a2040fe3b94fcd41d0a72c84e93b115" x="95.410156"/>
</g>
</g>
</g>
<g id="ytick2">
<g id="line2d23">
<path style="fill: none; stroke: #000000; stroke-width: 0.500000; stroke-linejoin: round; stroke-linecap: butt; stroke-dasharray: 1.000000,3.000000; stroke-dashoffset: 0.000000; opacity: 1.000000" clip-path="url(#p50431ccdcb28178602d99d9270004dde)" d="M72.000000 345.600000L518.400000 345.600000"/>
</g>
<g id="line2d24">
<g ><use style="fill: none; stroke: #000000; stroke-width: 0.500000; stroke-linejoin: round; stroke-linecap: butt;  opacity: 1.000000" xlink:href="#m3400efa6b1638b3fea9e19e898273957" x="72.000000" y="345.600000"/>
</g></g>
<g id="line2d25">
<g ><use style="fill: none; stroke: #000000; stroke-width: 0.500000; stroke-linejoin: round; stroke-linecap: butt;  opacity: 1.000000" xlink:href="#m20b58b2501143cb5e0a5e8f1ef6f1643" x="518.400000" y="345.600000"/>
</g></g>
<g id="text8">
<g style="fill: #000000; opacity: 1.000000" transform="translate(50.812500,349.967188)scale(0.120000)">
<use xlink:href="#c_7a2040fe3b94fcd41d0a72c84e93b115"/>
<use xlink:href="#c_ed3e21196fb739f392806f09ca0594ef" x="63.623047"/>
<use xlink:href="#c_42baa63129a918535c52adb20d687ea7" x="95.410156"/>
</g>
</g>
</g>
<g id="ytick3">
<g id="line2d26">
<path style="fill: none; stroke: #000000; stroke-width: 0.500000; stroke-linejoin: round; stroke-linecap: butt; stroke-dasharray: 1.000000,3.000000; stroke-dashoffset: 0.000000; opacity: 1.000000" clip-path="url(#p50431ccdcb28178602d99d9270004dde)" d="M72.000000 302.400000L518.400000 302.400000"/>
</g>
<g id="line2d27">
<g ><use style="fill: none; stroke: #000000; stroke-width: 0.500000; stroke-linejoin: round; stroke-linecap: butt;  opacity: 1.000000" xlink:href="#m3400efa6b1638b3fea9e19e898273957" x="72.000000" y="302.400000"/>
</g></g>
<g id="line2d28">
<g ><use style="fill: none; stroke: #000000; stroke-width: 0.500000; stroke-linejoin: round; stroke-linecap: butt;  opacity: 1.000000" xlink:href="#m20b58b2501143cb5e0a5e8f1ef6f1643" x="518.400000" y="302.400000"/>
</g></g>
<g id="text9">
<g style="fill: #000000; opacity: 1.000000" transform="translate(50.906250,306.767187)scale(0.120000)">
<use xlink:href="#c_7a2040fe3b94fcd41d0a72c84e93b115"/>
<use xlink:href="#c_ed3e21196fb739f392806f09ca0594ef" x="63.623047"/>
<use xlink:href="#c_ed3f3ed3ebfbd18bcb9c012009a68ad1" x="95.410156"/>
</g>
</g>
</g>
<g id="ytick4">
<g id="line2d29">
<path style="fill: none; stroke: #000000; stroke-width: 0.500000; stroke-linejoin: round; stroke-linecap: butt; stroke-dasharray: 1.000000,3.000000; stroke-dashoffset: 0.000000; opacity: 1.000000" clip-path="url(#p50431ccdcb28178602d99d9270004dde)" d="M72.000000 259.200000L518.400000 259.200000"/>
</g>
<g id="line2d30">
<g ><use style="fill: none; stroke: #000000; stroke-width: 0.500000; stroke-linejoin: round; stroke-linecap: butt;  opacity: 1.000000" xlink:href="#m3400efa6b1638b3fea9e19e898273957" x="72.000000" y="259.200000"/>
</g></g>
<g id="line2d31">
<g ><use style="fill: none; stroke: #000000; stroke-width: 0.500000; stroke-linejoin: round; stroke-linecap: butt;  opacity: 1.000000" xlink:href="#m20b58b2501143cb5e0a5e8f1ef6f1643" x="518.400000" y="259.200000"/>
</g></g>
<g id="text10">
<defs>
<path id="c_3dcfa38a02242cb63ec6726c6e70be7a" d="M40.578125 -39.312500q7.078125 1.515625 11.046875 6.312500q3.984375 4.781250 3.984375 11.812500q0.000000 10.781250 -7.421875 16.703125q-7.421875 5.906250 -21.093750 5.906250q-4.578125 0.000000 -9.437500 -0.906250q-4.859375 -0.906250 -10.031250 -2.718750l0.000000 -9.515625q4.093750 2.390625 8.968750 3.609375q4.890625 1.218750 10.218750 1.218750q9.265625 0.000000 14.125000 -3.656250q4.859375 -3.656250 4.859375 -10.640625q0.000000 -6.453125 -4.515625 -10.078125q-4.515625 -3.640625 -12.562500 -3.640625l-8.500000 0.000000l0.000000 -8.109375l8.890625 0.000000q7.265625 0.000000 11.125000 -2.906250q3.859375 -2.906250 3.859375 -8.375000q0.000000 -5.609375 -3.984375 -8.609375q-3.968750 -3.015625 -11.390625 -3.015625q-4.062500 0.000000 -8.703125 0.890625q-4.640625 0.875000 -10.203125 2.718750l0.000000 -8.781250q5.625000 -1.562500 10.531250 -2.343750q4.906250 -0.781250 9.250000 -0.781250q11.234375 0.000000 17.765625 5.109375q6.546875 5.093750 6.546875 13.781250q0.000000 6.062500 -3.468750 10.234375q-3.468750 4.171875 -9.859375 5.781250"/>
</defs>
<g style="fill: #000000; opacity: 1.000000" transform="translate(50.671875,263.567187)scale(0.120000)">
<use xlink:href="#c_7a2040fe3b94fcd41d0a72c84e93b115"/>
<use xlink:href="#c_ed3e21196fb739f392806f09ca0594ef" x="63.623047"/>
<use xlink:href="#c_3dcfa38a02242cb63ec6726c6e70be7a" x="95.410156"/>
</g>
</g>
</g>
<g id="ytick5">
<g id="line2d32">
<path style="fill: none; stroke: #000000; stroke-width: 0.500000; stroke-linejoin: round; stroke-linecap: butt; stroke-dasharray: 1.000000,3.000000; stroke-dashoffset: 0.000000; opacity: 1.000000" clip-path="url(#p50431ccdcb28178602d99d9270004dde)" d="M72.000000 216.000000L518.400000 216.000000"/>
</g>
<g id="line2d33">
<g ><use style="fill: none; stroke: #000000; stroke-width: 0.500000; stroke-linejoin: round; stroke-linecap: butt;  opacity: 1.000000" xlink:href="#m3400efa6b1638b3fea9e19e898273957" x="72.000000" y="216.000000"/>
</g></g>
<g id="line2d34">
<g ><use style="fill: none; stroke: #000000; stroke-width: 0.500000; stroke-linejoin: round; stroke-linecap: butt;  opacity: 1.000000" xlink:href="#m20b58b2501143cb5e0a5e8f1ef6f1643" x="518.400000" y="216.000000"/>
</g></g>
<g id="text11">
<g style="fill: #000000; opacity: 1.000000" transform="translate(50.375000,220.367188)scale(0.120000)">
<use xlink:href="#c_7a2040fe3b94fcd41d0a72c84e93b115"/>
<use xlink:href="#c_ed3e21196fb739f392806f09ca0594ef" x="63.623047"/>
<use xlink:href="#c_a0416418d96557a09b8c1332d34883ba" x="95.410156"/>
</g>
</g>
</g>
<g id="ytick6">
<g id="line2d35">
<path style="fill: none; stroke: #000000; stroke-width: 0.500000; stroke-linejoin: round; stroke-linecap: butt; stroke-dasharray: 1.000000,3.000000; stroke-dashoffset: 0.000000; opacity: 1.000000" clip-path="url(#p50431ccdcb28178602d99d9270004dde)" d="M72.000000 172.800000L518.400000 172.800000"/>
</g>
<g id="line2d36">
<g ><use style="fill: none; stroke: #000000; stroke-width: 0.500000; stroke-linejoin: round; stroke-linecap: butt;  opacity: 1.000000" xlink:href="#m3400efa6b1638b3fea9e19e898273957" x="72.000000" y="172.800000"/>
</g></g>
<g id="line2d37">
<g ><use style="fill: none; stroke: #000000; stroke-width: 0.500000; stroke-linejoin: round; stroke-linecap: butt;  opacity: 1.000000" xlink:href="#m20b58b2501143cb5e0a5e8f1ef6f1643" x="518.400000" y="172.800000"/>
</g></g>
<g id="text12">
<defs>
<path id="c_1260a2df50f305f3db244e29828f968e" d="M10.796875 -72.906250l38.718750 0.000000l0.000000 8.312500l-29.687500 0.000000l0.000000 17.859375q2.140625 -0.734375 4.281250 -1.093750q2.156250 -0.359375 4.312500 -0.359375q12.203125 0.000000 19.328125 6.687500q7.140625 6.687500 7.140625 18.109375q0.000000 11.765625 -7.328125 18.296875q-7.328125 6.515625 -20.656250 6.515625q-4.593750 0.000000 -9.359375 -0.781250q-4.750000 -0.781250 -9.828125 -2.343750l0.000000 -9.921875q4.390625 2.390625 9.078125 3.562500q4.687500 1.171875 9.906250 1.171875q8.453125 0.000000 13.375000 -4.437500q4.937500 -4.437500 4.937500 -12.062500q0.000000 -7.609375 -4.937500 -12.046875q-4.921875 -4.453125 -13.375000 -4.453125q-3.953125 0.000000 -7.890625 0.875000q-3.921875 0.875000 -8.015625 2.734375z"/>
</defs>
<g style="fill: #000000; opacity: 1.000000" transform="translate(50.750000,177.167188)scale(0.120000)">
<use xlink:href="#c_7a2040fe3b94fcd41d0a72c84e93b115"/>
<use xlink:href="#c_ed3e21196fb739f392806f09ca0594ef" x="63.623047"/>
<use xlink:href="#c_1260a2df50f305f3db244e29828f968e" x="95.410156"/>
</g>
</g>
</g>
<g id="ytick7">
<g id="line2d38">
<path style="fill: none; stroke: #000000; stroke-width: 0.500000; stroke-linejoin: round; stroke-linecap: butt; stroke-dasharray: 1.000000,3.000000; stroke-dashoffset: 0.000000; opacity: 1.000000" clip-path="url(#p50431ccdcb28178602d99d9270004dde)" d="M72.000000 129.600000L518.400000 129.600000"/>
</g>
<g id="line2d39">
<g ><use style="fill: none; stroke: #000000; stroke-width: 0.500000; stroke-linejoin: round; stroke-linecap: butt;  opacity: 1.000000" xlink:href="#m3400efa6b1638b3fea9e19e898273957" x="72.000000" y="129.600000"/>
</g></g>
<g id="line2d40">
<g ><use style="fill: none; stroke: #000000; stroke-width: 0.500000; stroke-linejoin: round; stroke-linecap: butt;  opacity: 1.000000" xlink:href="#m20b58b2501143cb5e0a5e8f1ef6f1643" x="518.400000" y="129.600000"/>
</g></g>
<g id="text13">
<g style="fill: #000000; opacity: 1.000000" transform="translate(50.468750,133.967187)scale(0.120000)">
<use xlink:href="#c_7a2040fe3b94fcd41d0a72c84e93b115"/>
<use xlink:href="#c_ed3e21196fb739f392806f09ca0594ef" x="63.623047"/>
<use xlink:href="#c_cc8d6d580d1b10c8632f7a42cd53db8a" x="95.410156"/>
</g>
</g>
</g>
<g id="ytick8">
<g id="line2d41">
<path style="fill: none; stroke: #000000; stroke-width: 0.500000; stroke-linejoin: round; stroke-linecap: butt; stroke-dasharray: 1.000000,3.000000; stroke-dashoffset: 0.000000; opacity: 1.000000" clip-path="url(#p50431ccdcb28178602d99d9270004dde)" d="M72.000000 86.400000L518.400000 86.400000"/>
</g>
<g id="line2d42">
<g ><use style="fill: none; stroke: #000000; stroke-width: 0.500000; stroke-linejoin: round; stroke-linecap: butt;  opacity: 1.000000" xlink:href="#m3400efa6b1638b3fea9e19e898273957" x="72.000000" y="86.400000"/>
</g></g>
<g id="line2d43">
<g ><use style="fill: none; stroke: #000000; stroke-width: 0.500000; stroke-linejoin: round; stroke-linecap: butt;  opacity: 1.000000" xlink:href="#m20b58b2501143cb5e0a5e8f1ef6f1643" x="518.400000" y="86.400000"/>
</g></g>
<g id="text14">
<defs>
<path id="c_956f18cfdaf972f35a6c2b4aaac2532b" d="M8.203125 -72.906250l46.875000 0.000000l0.000000 4.203125l-26.468750 68.703125l-10.296875 0.000000l24.906250 -64.593750l-35.015625 0.000000z"/>
</defs>
<g style="fill: #000000; opacity: 1.000000" transform="translate(50.734375,90.767187)scale(0.120000)">
<use xlink:href="#c_7a2040fe3b94fcd41d0a72c84e93b115"/>
<use xlink:href="#c_ed3e21196fb739f392806f09ca0594ef" x="63.623047"/>
<use xlink:href="#c_956f18cfdaf972f35a6c2b4aaac2532b" x="95.410156"/>
</g>
</g>
</g>
<g id="ytick9">
<g id="line2d44">
<path style="fill: none; stroke: #000000; stroke-width: 0.500000; stroke-linejoin: round; stroke-linecap: butt; stroke-dasharray: 1.000000,3.000000; stroke-dashoffset: 0.000000; opacity: 1.000000" clip-path="url(#p50431ccdcb28178602d99d9270004dde)" d="M72.000000 43.200000L518.400000 43.200000"/>
</g>
<g id="line2d45">
<g ><use style="fill: none; stroke: #000000; stroke-width: 0.500000; stroke-linejoin: round; stroke-linecap: butt;  opacity: 1.000000" xlink:href="#m3400efa6b1638b3fea9e19e898273957" x="72.000000" y="43.200000"/>
</g></g>
<g id="line2d46">
<g ><use style="fill: none; stroke: #000000; stroke-width: 0.500000; stroke-linejoin: round; stroke-linecap: butt;  opacity: 1.000000" xlink:href="#m20b58b2501143cb5e0a5e8f1ef6f1643" x="518.400000" y="43.200000"/>
</g></g>
<g id="text15">
<g style="fill: #000000; opacity: 1.000000" transform="translate(50.531250,47.567187)scale(0.120000)">
<use xlink:href="#c_7a2040fe3b94fcd41d0a72c84e93b115"/>
<use xlink:href="#c_ed3e21196fb739f392806f09ca0594ef" x="63.623047"/>
<use xlink:href="#c_bef35738d52871942e50b9de9b122bab" x="95.410156"/>
</g>
</g>
</g>
</g>
<g id="patch3">
<path style="fill: none; stroke: #000000; stroke-width: 1.000000; stroke-linejoin: round; stroke-linecap: square;  opacity: 1.000000"  d="M72.000000 43.200000L518.400000 43.200000"/>
</g>
<g id="patch4">
<path style="fill: none; stroke: #000000; stroke-width: 1.000000; stroke-linejoin: round; stroke-linecap: square;  opacity: 1.000000"  d="M518.400000 388.800000L518.400000 43.200000"/>
</g>
<g id="patch5">
<path style="fill: none; stroke: #000000; stroke-width: 1.000000; stroke-linejoin: round; stroke-linecap: square;  opacity: 1.000000"  d="M72.000000 388.800000L518.400000 388.800000"/>
</g>
<g id="patch6">
<path style="fill: none; stroke: #000000; stroke-width: 1.000000; stroke-linejoin: round; stroke-linecap: square;  opacity: 1.000000"  d="M72.000000 388.800000L72.000000 43.200000"/>
</g>
</g>
</g>
</svg>
