<?xml version="1.0" standalone="no"?>
<!DOCTYPE svg PUBLIC "-//W3C//DTD SVG 1.1//EN"
  "http://www.w3.org/Graphics/SVG/1.1/DTD/svg11.dtd">
<!-- Created with matplotlib (http://matplotlib.sourceforge.net/) -->
<svg width="576pt" height="432pt" viewBox="0 0 576 432"
   xmlns="http://www.w3.org/2000/svg"
   xmlns:xlink="http://www.w3.org/1999/xlink"
   version="1.1"
   id="svg1">
<g id="figure1">
<g id="patch1">
<path style="fill: #ffffff; stroke: #ffffff; stroke-width: 1.000000; stroke-linejoin: round; stroke-linecap: square;  opacity: 1.000000"  d="M0.000000 432.000000L576.000000 432.000000L576.000000 0.000000
L0.000000 0.000000L0.000000 432.000000"/>
</g>
<g id="axes1">
<g id="patch2">
<path style="fill: #ffffff; opacity: 1.000000"  d="M72.000000 388.800000L518.400000 388.800000L518.400000 43.200000
L72.000000 43.200000L72.000000 388.800000"/>
</g>
<g id="line2d1">
<defs>
  <clipPath id="p50431ccdcb28178602d99d9270004dde">
<rect x="72.000000" y="43.200000" width="446.400000" height="345.600000"/>
  </clipPath>
</defs><path style="fill: none; stroke: #ff0000; stroke-width: 1.000000; stroke-linejoin: round; stroke-linecap: square;  opacity: 1.000000" clip-path="url(#p50431ccdcb28178602d99d9270004dde)" d="M72.000000 228.776067L72.446400 132.053734L72.892800 101.107181
L73.339200 78.504873L73.785600 121.695001L74.232000 129.447819
L74.678400 92.559869L75.124800 119.117761L75.571200 117.132885
L76.017600 131.396930L76.464000 250.967149L76.910400 238.568314
L77.356800 103.743743L77.803200 147.549907L78.249600 126.772531
L78.696000 249.535445L79.142400 232.808834L79.588800 95.476581
L80.035200 225.680647L80.481600 257.491158L80.928000 122.247302
L81.374400 243.921176L81.820800 117.967700L82.267200 233.662316
L82.713600 246.135335L83.160000 88.841104L83.606400 236.932685
L84.052800 124.305159L84.499200 125.942852L84.945600 248.424602
L85.392000 242.442697L85.838400 214.200867L86.284800 263.304450
L86.731200 241.966488L87.624000 250.635020L88.070400 241.847557
L88.516800 222.656754L88.963200 256.683210L89.409600 238.722799
L89.856000 358.088212L90.302400 220.520713L90.748800 257.479672
L91.195200 231.979533L91.641600 247.365831L92.088000 114.076906
L92.534400 86.907383L92.980800 249.968671L93.427200 239.036280
L93.873600 213.113365L94.766400 335.424606L95.212800 246.063383
L95.659200 253.528869L96.105600 234.745265L96.552000 244.714033
L96.998400 235.166698L97.444800 251.861912L98.337600 240.243156
L98.784000 218.037992L99.676800 242.609202L100.123200 235.459074
L100.569600 255.772421L101.462400 236.310620L101.908800 248.332930
L102.801600 233.618815L103.694400 234.765575L104.140800 242.475069
L104.587200 241.253950L105.033600 250.014453L105.480000 236.749369
L106.372800 250.463223L106.819200 241.351307L107.265600 214.590326
L107.712000 266.854546L108.604800 217.951833L109.051200 247.485799
L109.497600 245.952360L109.944000 234.731403L110.390400 236.971182
L110.836800 246.784350L111.283200 241.409031L111.729600 248.487282
L112.622400 236.272375L113.068800 242.946479L113.515200 111.563190
L113.961600 239.135711L114.408000 254.537392L115.300800 212.184239
L115.747200 269.394424L116.193600 240.349490L116.640000 238.029840
L117.086400 252.341224L117.532800 238.931198L117.979200 174.757747
L118.425600 290.206699L118.872000 241.753866L119.318400 341.605342
L119.764800 253.716896L120.211200 234.612855L120.657600 241.221571
L121.104000 237.187555L121.550400 244.832200L122.443200 228.685587
L122.889600 244.418981L123.336000 238.855592L123.782400 243.320040
L124.228800 252.491705L124.675200 237.804629L125.121600 342.441221
L125.568000 236.643248L126.014400 245.679285L126.460800 230.715386
L126.907200 233.805380L127.353600 244.020822L127.800000 336.314318
L128.692800 225.360245L129.585600 258.155971L130.032000 234.631564
L130.924800 243.559909L131.371200 206.299795L131.817600 246.816308
L132.264000 235.105063L132.710400 241.785833L133.603200 245.756626
L134.049600 249.806372L134.496000 243.884088L135.388800 262.479579
L135.835200 230.482232L136.281600 232.862727L136.728000 257.660241
L137.174400 225.933542L138.067200 258.293857L138.960000 217.654298
L139.406400 334.534123L139.852800 257.287761L140.745600 232.306603
L141.192000 242.473971L141.638400 243.708172L142.084800 335.015860
L142.531200 241.758818L142.977600 255.135114L143.424000 229.563828
L143.870400 250.667076L144.316800 229.770658L144.763200 349.057604
L145.209600 231.176660L145.656000 240.313748L146.995200 251.392633
L147.441600 225.363127L147.888000 231.309594L148.780800 258.980298
L149.227200 227.670066L149.673600 252.779593L150.120000 233.050911
L151.459200 258.175762L151.905600 192.275064L152.352000 250.601044
L152.798400 243.816369L153.244800 341.909100L153.691200 238.650231
L154.137600 255.183477L154.584000 234.780081L155.476800 246.450119
L156.816000 241.875731L157.262400 233.237362L157.708800 247.221601
L158.155200 210.102875L159.048000 244.284052L159.494400 239.669638
L159.940800 253.909549L160.387200 192.832824L160.833600 244.420675
L161.280000 232.414309L161.726400 238.127243L162.172800 231.309913
L162.619200 247.210893L163.065600 212.157789L163.512000 248.214752
L164.404800 228.721477L164.851200 247.819040L165.297600 229.820808
L165.744000 174.211654L166.190400 246.650659L166.636800 230.948806
L167.083200 243.661935L167.529600 195.086112L167.976000 242.857197
L168.422400 222.075909L168.868800 233.794998L169.315200 232.285315
L169.761600 240.645900L170.208000 238.933360L170.654400 209.601742
L171.547200 232.219856L172.886400 239.001077L173.332800 233.598917
L173.779200 209.435521L174.225600 254.889381L174.672000 232.657247
L175.564800 230.290587L176.011200 214.500499L176.904000 233.754672
L178.243200 241.633453L178.689600 232.813108L179.136000 205.171268
L179.582400 255.226055L180.028800 233.532976L180.475200 234.612761
L180.921600 215.382026L181.814400 224.780563L182.260800 233.132641
L183.153600 238.295800L184.046400 223.212798L184.492800 224.741293
L184.939200 234.904002L185.385600 233.580809L185.832000 230.064531
L186.278400 243.134173L186.724800 200.559342L187.617600 232.730148
L188.064000 231.217485L188.956800 241.104218L189.849600 229.174652
L190.296000 226.570691L191.188800 233.060191L191.635200 227.513202
L192.081600 204.652965L192.528000 227.039602L193.867200 241.005897
L195.206400 219.083099L195.652800 250.336179L196.099200 229.888105
L196.545600 227.855533L196.992000 243.245022L197.884800 202.315927
L198.331200 229.759537L198.777600 232.769673L199.224000 243.630025
L200.116800 193.084888L200.563200 240.618078L201.009600 241.867598
L201.456000 221.080539L201.902400 244.450439L202.795200 223.396251
L203.241600 227.715098L203.688000 238.007137L204.134400 232.812476
L204.580800 236.171118L205.027200 242.853742L205.920000 215.290636
L206.366400 246.882784L206.812800 230.553652L207.259200 231.876078
L207.705600 200.071204L208.152000 237.237889L208.598400 223.814400
L209.044800 239.001941L209.491200 227.601003L209.937600 234.800489
L210.384000 233.697966L210.830400 210.371404L211.723200 233.321017
L212.169600 231.859067L212.616000 235.734602L213.062400 243.111560
L213.508800 231.429064L213.955200 173.001414L214.401600 249.977989
L214.848000 232.335149L215.740800 236.677456L216.187200 245.202025
L216.633600 213.454680L217.080000 243.480032L217.972800 228.144134
L218.419200 250.589659L219.312000 190.527069L219.758400 236.014796
L220.651200 237.685494L221.097600 239.720081L221.544000 231.977467
L221.990400 214.929890L222.436800 246.682413L222.883200 228.027051
L223.329600 233.740292L223.776000 231.909187L224.222400 236.881768
L224.668800 215.310171L225.115200 246.047910L225.561600 233.271924
L226.008000 230.444082L226.454400 255.959826L227.347200 206.495751
L227.793600 256.313538L228.240000 231.089361L229.132800 225.833475
L229.579200 229.108993L230.025600 213.393316L230.918400 233.770036
L231.364800 245.374528L232.704000 213.618250L233.150400 246.452042
L234.043200 223.290799L234.489600 248.683591L234.936000 230.174720
L235.382400 173.321125L235.828800 249.802172L236.275200 228.826587
L237.168000 242.992448L238.060800 215.344408L238.507200 246.462668
L239.400000 227.700230L240.292800 220.630633L241.632000 236.270688
L242.078400 241.330136L242.971200 225.181048L243.864000 238.248411
L244.756800 226.348672L245.203200 233.919230L245.649600 210.207908
L246.542400 235.051823L246.988800 228.618270L247.435200 238.943400
L247.881600 241.138634L248.328000 228.903915L248.774400 149.581903
L249.220800 271.171426L249.667200 232.610484L250.113600 236.488268
L250.560000 245.029303L251.006400 235.471999L251.452800 213.362168
L251.899200 244.659583L252.792000 229.296835L253.238400 238.117010
L253.684800 233.253439L254.577600 230.499135L255.470400 235.517823
L255.916800 199.571752L256.363200 239.689403L256.809600 222.391232
L257.256000 234.477088L257.702400 232.793288L258.148800 239.137771
L259.041600 207.548750L259.488000 212.942436L259.934400 232.908163
L260.380800 230.062118L260.827200 241.390536L261.273600 239.044370
L261.720000 232.956368L262.166400 217.550625L262.612800 245.048578
L263.059200 229.379153L263.505600 230.913279L263.952000 229.714602
L264.398400 213.467342L265.291200 232.273068L266.184000 238.315043
L266.630400 244.805745L267.076800 230.683930L267.523200 202.964674
L267.969600 253.462604L268.416000 220.754661L268.862400 239.743544
L269.308800 217.848513L271.987200 241.353807L272.433600 230.729521
L272.880000 206.408527L273.326400 260.442829L273.772800 225.392539
L274.219200 233.581534L274.665600 199.088894L275.112000 237.487199
L275.558400 225.490456L276.004800 232.932660L276.451200 234.795524
L276.897600 228.025071L277.344000 235.101338L277.790400 223.379037
L278.236800 233.363435L278.683200 224.472387L279.129600 239.804996
L279.576000 232.264452L280.022400 244.300973L280.915200 213.991285
L281.361600 243.108893L281.808000 232.974183L282.254400 230.748930
L282.700800 245.083257L283.593600 216.819381L284.040000 248.192318
L284.486400 253.483280L284.932800 238.163408L285.379200 240.001287
L286.272000 228.429248L286.718400 233.846510L287.164800 232.425722
L288.504000 232.083140L288.950400 201.297374L289.396800 231.914286
L289.843200 230.583111L290.289600 239.562395L290.736000 241.723866
L291.182400 232.857008L291.628800 216.087230L292.075200 243.219847
L292.521600 230.790398L292.968000 232.920934L293.414400 231.081024
L293.860800 212.647687L294.753600 232.621075L295.200000 228.407407
L295.646400 244.470351L296.092800 234.551443L296.539200 214.705920
L296.985600 251.342318L297.432000 240.681864L297.878400 219.452577
L298.324800 230.862252L298.771200 199.453021L299.217600 224.451401
L299.664000 225.514496L300.110400 245.829570L300.556800 232.109805
L301.003200 238.123267L301.449600 219.199077L301.896000 253.238708
L302.342400 215.650050L302.788800 243.396850L303.235200 232.597139
L303.681600 230.441708L304.128000 232.910101L304.574400 214.927506
L305.467200 232.928329L305.913600 229.721332L306.806400 242.501687
L307.252800 232.652666L307.699200 161.419283L308.145600 255.788572
L308.592000 233.575799L309.038400 237.999660L309.484800 233.093957
L309.931200 237.175097L310.377600 232.502515L310.824000 238.650799
L311.270400 234.271698L312.163200 239.060411L313.056000 200.139129
L313.948800 239.820379L314.395200 238.650003L315.288000 230.467274
L315.734400 213.869842L316.180800 241.780690L316.627200 227.220927
L317.520000 237.979318L317.966400 206.397594L318.412800 208.009689
L318.859200 251.959951L319.305600 219.422368L319.752000 230.880557
L320.644800 220.316003L321.091200 229.343458L321.537600 247.264859
L321.984000 214.515022L322.430400 232.070994L323.769600 171.315251
L324.216000 244.332175L324.662400 229.462235L325.108800 233.867621
L325.555200 230.549464L326.001600 240.693788L326.448000 207.637011
L326.894400 244.345547L328.233600 196.541477L328.680000 237.711554
L329.126400 217.488912L329.572800 232.777422L330.019200 227.058133
L330.465600 235.524684L330.912000 227.171262L331.358400 234.060211
L331.804800 208.976116L332.251200 245.658398L333.590400 197.413395
L334.036800 231.393698L334.483200 214.607538L334.929600 236.735340
L335.376000 227.799449L335.822400 241.196654L336.268800 222.851283
L336.715200 159.681104L337.161600 256.412060L338.054400 221.290145
L338.500800 235.810538L338.947200 233.063644L339.840000 209.452938
L340.286400 244.202109L340.732800 226.817612L341.179200 224.881500
L341.625600 228.002292L342.072000 209.889387L343.857600 236.969400
L344.304000 240.160173L345.196800 212.727051L345.643200 239.631685
L346.536000 224.612983L346.982400 199.277263L347.875200 239.641784
L348.321600 232.694721L348.768000 212.701340L349.660800 240.251225
L350.553600 201.255331L351.000000 251.172161L351.446400 223.990035
L351.892800 241.189335L352.785600 211.815485L353.232000 242.883840
L353.678400 217.956574L354.124800 239.378884L354.571200 226.613293
L355.017600 224.985181L355.464000 187.260513L355.910400 229.209999
L356.803200 225.853427L357.249600 233.165541L358.142400 225.750495
L358.588800 210.077737L359.035200 239.648701L359.481600 224.516338
L359.928000 225.545979L360.374400 223.735159L360.820800 204.950793
L361.713600 227.148396L362.160000 223.778417L362.606400 229.051376
L363.499200 230.254289L363.945600 169.915807L364.392000 245.921975
L364.838400 219.800278L365.284800 231.882826L365.731200 203.305908
L367.070400 248.114238L367.516800 207.402279L367.963200 230.803945
L368.409600 211.775372L368.856000 244.333543L369.302400 166.629952
L369.748800 241.640655L370.195200 226.543603L370.641600 229.569221
L371.088000 238.203000L371.534400 228.664596L371.980800 207.201619
L372.427200 239.887437L373.320000 218.753057L373.766400 215.312314
L374.212800 247.735777L374.659200 147.818337L375.105600 271.337494
L375.552000 199.345600L376.444800 236.045524L377.337600 226.467562
L377.784000 206.987675L378.230400 240.990901L378.676800 223.982198
L379.123200 235.430114L380.016000 195.013867L380.462400 225.037918
L380.908800 222.507528L381.801600 236.642051L382.694400 209.465611
L383.140800 240.479243L384.480000 194.293084L384.926400 233.254119
L385.372800 229.499643L385.819200 215.424558L386.265600 213.295187
L386.712000 217.733749L387.158400 236.869249L387.604800 216.429342
L388.051200 229.630266L388.497600 220.693967L388.944000 232.726184
L389.390400 228.410947L389.836800 215.794905L390.283200 243.654390
L390.729600 199.532063L391.176000 246.498556L391.622400 226.645071
L392.068800 228.918274L392.515200 227.299173L392.961600 209.552395
L393.408000 207.080061L393.854400 223.299367L394.300800 226.465555
L394.747200 240.800825L395.193600 218.758699L395.640000 237.592830
L396.086400 207.273650L396.532800 238.056299L396.979200 221.436930
L397.872000 230.340949L398.318400 166.081655L398.764800 241.077182
L399.211200 242.733975L399.657600 217.280829L400.104000 238.435454
L401.443200 217.782545L401.889600 227.615109L402.782400 222.145130
L403.228800 192.606634L403.675200 225.669400L404.121600 200.535304
L404.568000 232.101152L405.014400 224.301164L405.460800 231.462115
L405.907200 232.747473L406.800000 209.063671L407.246400 233.167520
L407.692800 217.811826L408.139200 226.354205L408.585600 217.039693
L409.032000 189.356544L409.924800 240.620989L410.371200 210.033639
L410.817600 233.375127L412.156800 199.695538L412.603200 220.994159
L413.049600 224.094377L413.942400 234.267480L414.835200 206.468255
L415.281600 233.606640L415.728000 216.954420L416.174400 233.851390
L416.620800 216.001350L417.067200 161.956221L417.513600 240.737497
L417.960000 222.394501L418.852800 233.368646L419.745600 221.512810
L420.192000 207.076091L420.638400 234.910875L421.084800 222.159126
L421.531200 219.384656L421.977600 185.789624L422.424000 224.452467
L422.870400 226.614007L423.763200 186.214968L424.209600 234.819628
L425.102400 213.650350L425.995200 238.958419L426.441600 203.401213
L426.888000 227.186862L427.334400 225.362945L428.227200 215.190022
L428.673600 230.558857L429.120000 223.673660L429.566400 222.526570
L430.012800 207.018523L430.459200 217.200187L430.905600 208.813591
L431.352000 225.826240L431.798400 221.030709L432.244800 235.294524
L433.137600 206.656718L433.584000 233.748965L434.030400 212.040210
L434.476800 231.955649L434.923200 208.982155L435.369600 234.831540
L435.816000 209.599576L436.708800 225.682195L437.155200 345.290100
L437.601600 210.387442L438.048000 221.528764L438.494400 217.123764
L438.940800 234.090716L439.387200 216.205786L439.833600 224.456002
L440.280000 223.035425L440.726400 226.620974L441.172800 220.758683
L442.512000 220.734799L442.958400 211.007707L443.404800 240.041922
L443.851200 207.952067L444.297600 233.890564L444.744000 217.967816
L445.190400 219.434480L445.636800 236.200359L446.529600 206.906341
L446.976000 237.822247L447.422400 220.678064L448.315200 214.863627
L448.761600 202.895479L449.208000 233.251543L450.100800 204.908644
L450.547200 238.448172L451.440000 209.010631L451.886400 231.955032
L452.779200 222.461830L453.225600 224.825430L453.672000 229.782115
L454.118400 219.743741L454.564800 198.628117L455.011200 241.575980
L455.457600 219.308569L455.904000 222.902131L456.350400 205.752423
L456.796800 217.571593L457.243200 203.105309L457.689600 223.861156
L458.136000 201.269413L458.582400 221.347748L459.028800 212.652397
L459.475200 217.778334L459.921600 216.446226L460.814400 183.358518
L461.260800 221.842656L461.707200 229.349806L462.600000 204.636105
L463.046400 222.211557L463.939200 201.451194L464.385600 212.302077
L464.832000 232.016540L465.278400 222.503642L465.724800 202.840952
L466.171200 218.310251L467.064000 215.596138L467.510400 221.272844
L467.956800 197.592883L468.403200 231.968095L468.849600 211.882788
L469.742400 197.177132L470.635200 214.198034L471.081600 212.442523
L471.528000 326.360437L471.974400 230.505482L472.867200 204.459995
L473.313600 219.504672L473.760000 204.489832L474.206400 205.671363
L474.652800 229.991179L475.099200 228.033768L475.545600 192.790981
L475.992000 231.526473L476.438400 215.922329L476.884800 213.962946
L477.777600 221.675260L478.224000 215.160902L478.670400 219.486006
L479.116800 193.219478L479.563200 230.553511L480.456000 207.052083
L480.902400 217.170166L481.348800 236.926649L481.795200 184.935434
L483.134400 220.127886L483.580800 218.090205L484.027200 206.276476
L484.473600 345.019811L484.920000 168.473845L485.366400 216.305137
L485.812800 222.420855L486.259200 216.586431L487.152000 221.633902
L487.598400 215.445696L488.044800 225.292371L488.491200 201.710959
L488.937600 223.879387L489.384000 178.613182L489.830400 209.543600
L491.169600 223.581766L491.616000 231.731555L492.062400 203.176217
L492.508800 219.530050L492.955200 202.644482L493.401600 238.062347
L493.848000 200.498299L494.294400 227.295593L494.740800 190.346388
L495.187200 229.022352L496.080000 202.445610L496.526400 217.458319
L496.972800 210.681260L497.419200 229.747624L497.865600 216.993546
L498.312000 174.481565L498.758400 234.948922L499.204800 204.573785
L499.651200 216.445059L500.097600 336.353910L500.544000 217.165271
L500.990400 231.051468L501.436800 206.804173L501.883200 214.228792
L502.329600 209.384184L502.776000 185.414820L503.222400 210.884363
L503.668800 209.135917L504.115200 213.422945L504.561600 199.484925
L505.008000 325.106012L505.454400 211.091548L505.900800 207.114070
L506.347200 182.002395L506.793600 208.835298L507.240000 174.411386
L507.686400 220.371509L508.579200 196.563649L509.025600 210.179133
L509.472000 177.126222L509.918400 332.891883L510.364800 216.933823
L510.811200 213.682062L511.257600 198.402214L512.150400 214.412330
L512.596800 208.898541L513.043200 196.237982L513.489600 228.097617
L514.382400 198.322698L514.828800 342.786019L515.275200 195.144371
L515.721600 209.736989L516.168000 206.452772L516.614400 216.217189
L517.060800 182.054246L517.507200 210.869077L517.953600 196.086431
L517.953600 196.086431"/>
</g>
<g id="matplotlib.axis1">
<g id="xtick1">
<g id="line2d2">
<path style="fill: none; stroke: #000000; stroke-width: 0.500000; stroke-linejoin: round; stroke-linecap: butt; stroke-dasharray: 1.000000,3.000000; stroke-dashoffset: 0.000000; opacity: 1.000000" clip-path="url(#p50431ccdcb28178602d99d9270004dde)" d="M72.000000 388.800000L72.000000 43.200000"/>
</g>
<g id="line2d3">
<defs><path id="m30e32995789d870ad79a2e54c91cf9c6" d="M0.000000 0.000000L0.000000 -4.000000"/></defs>
<g ><use style="fill: none; stroke: #000000; stroke-width: 0.500000; stroke-linejoin: round; stroke-linecap: butt;  opacity: 1.000000" xlink:href="#m30e32995789d870ad79a2e54c91cf9c6" x="72.000000" y="388.800000"/>
</g></g>
<g id="line2d4">
<defs><path id="m9281cae24120827b11d5ea8a7ad3e96b" d="M0.000000 0.000000L0.000000 4.000000"/></defs>
<g ><use style="fill: none; stroke: #000000; stroke-width: 0.500000; stroke-linejoin: round; stroke-linecap: butt;  opacity: 1.000000" xlink:href="#m9281cae24120827b11d5ea8a7ad3e96b" x="72.000000" y="43.200000"/>
</g></g>
<g id="text1">
<defs>
<path id="c_7a2040fe3b94fcd41d0a72c84e93b115" d="M31.781250 -66.406250q-7.609375 0.000000 -11.453125 7.500000q-3.828125 7.484375 -3.828125 22.531250q0.000000 14.984375 3.828125 22.484375q3.843750 7.500000 11.453125 7.500000q7.671875 0.000000 11.500000 -7.500000q3.843750 -7.500000 3.843750 -22.484375q0.000000 -15.046875 -3.843750 -22.531250q-3.828125 -7.500000 -11.500000 -7.500000M31.781250 -74.218750q12.265625 0.000000 18.734375 9.703125q6.468750 9.687500 6.468750 28.140625q0.000000 18.406250 -6.468750 28.109375q-6.468750 9.687500 -18.734375 9.687500q-12.250000 0.000000 -18.718750 -9.687500q-6.468750 -9.703125 -6.468750 -28.109375q0.000000 -18.453125 6.468750 -28.140625q6.468750 -9.703125 18.718750 -9.703125"/>
</defs>
<g style="fill: #000000; opacity: 1.000000" transform="translate(68.976562,401.706250)scale(0.120000)">
<use xlink:href="#c_7a2040fe3b94fcd41d0a72c84e93b115"/>
</g>
</g>
</g>
<g id="xtick2">
<g id="line2d5">
<path style="fill: none; stroke: #000000; stroke-width: 0.500000; stroke-linejoin: round; stroke-linecap: butt; stroke-dasharray: 1.000000,3.000000; stroke-dashoffset: 0.000000; opacity: 1.000000" clip-path="url(#p50431ccdcb28178602d99d9270004dde)" d="M161.280000 388.800000L161.280000 43.200000"/>
</g>
<g id="line2d6">
<g ><use style="fill: none; stroke: #000000; stroke-width: 0.500000; stroke-linejoin: round; stroke-linecap: butt;  opacity: 1.000000" xlink:href="#m30e32995789d870ad79a2e54c91cf9c6" x="161.280000" y="388.800000"/>
</g></g>
<g id="line2d7">
<g ><use style="fill: none; stroke: #000000; stroke-width: 0.500000; stroke-linejoin: round; stroke-linecap: butt;  opacity: 1.000000" xlink:href="#m9281cae24120827b11d5ea8a7ad3e96b" x="161.280000" y="43.200000"/>
</g></g>
<g id="text2">
<defs>
<path id="c_ed3f3ed3ebfbd18bcb9c012009a68ad1" d="M19.187500 -8.296875l34.421875 0.000000l0.000000 8.296875l-46.281250 0.000000l0.000000 -8.296875q5.609375 -5.812500 15.296875 -15.593750q9.703125 -9.796875 12.187500 -12.640625q4.734375 -5.312500 6.609375 -9.000000q1.890625 -3.687500 1.890625 -7.250000q0.000000 -5.812500 -4.078125 -9.468750q-4.078125 -3.671875 -10.625000 -3.671875q-4.640625 0.000000 -9.796875 1.609375q-5.140625 1.609375 -11.000000 4.890625l0.000000 -9.968750q5.953125 -2.390625 11.125000 -3.609375q5.187500 -1.218750 9.484375 -1.218750q11.328125 0.000000 18.062500 5.671875q6.734375 5.656250 6.734375 15.125000q0.000000 4.500000 -1.687500 8.531250q-1.671875 4.015625 -6.125000 9.484375q-1.218750 1.421875 -7.765625 8.187500q-6.531250 6.765625 -18.453125 18.921875"/>
</defs>
<g style="fill: #000000; opacity: 1.000000" transform="translate(150.655000,401.706250)scale(0.120000)">
<use xlink:href="#c_ed3f3ed3ebfbd18bcb9c012009a68ad1"/>
<use xlink:href="#c_7a2040fe3b94fcd41d0a72c84e93b115" x="63.623047"/>
<use xlink:href="#c_7a2040fe3b94fcd41d0a72c84e93b115" x="127.246094"/>
</g>
</g>
</g>
<g id="xtick3">
<g id="line2d8">
<path style="fill: none; stroke: #000000; stroke-width: 0.500000; stroke-linejoin: round; stroke-linecap: butt; stroke-dasharray: 1.000000,3.000000; stroke-dashoffset: 0.000000; opacity: 1.000000" clip-path="url(#p50431ccdcb28178602d99d9270004dde)" d="M250.560000 388.800000L250.560000 43.200000"/>
</g>
<g id="line2d9">
<g ><use style="fill: none; stroke: #000000; stroke-width: 0.500000; stroke-linejoin: round; stroke-linecap: butt;  opacity: 1.000000" xlink:href="#m30e32995789d870ad79a2e54c91cf9c6" x="250.560000" y="388.800000"/>
</g></g>
<g id="line2d10">
<g ><use style="fill: none; stroke: #000000; stroke-width: 0.500000; stroke-linejoin: round; stroke-linecap: butt;  opacity: 1.000000" xlink:href="#m9281cae24120827b11d5ea8a7ad3e96b" x="250.560000" y="43.200000"/>
</g></g>
<g id="text3">
<defs>
<path id="c_a0416418d96557a09b8c1332d34883ba" d="M37.796875 -64.312500l-24.906250 38.921875l24.906250 0.000000zM35.203125 -72.906250l12.406250 0.000000l0.000000 47.515625l10.406250 0.000000l0.000000 8.203125l-10.406250 0.000000l0.000000 17.187500l-9.812500 0.000000l0.000000 -17.187500l-32.906250 0.000000l0.000000 -9.515625z"/>
</defs>
<g style="fill: #000000; opacity: 1.000000" transform="translate(239.794375,401.706250)scale(0.120000)">
<use xlink:href="#c_a0416418d96557a09b8c1332d34883ba"/>
<use xlink:href="#c_7a2040fe3b94fcd41d0a72c84e93b115" x="63.623047"/>
<use xlink:href="#c_7a2040fe3b94fcd41d0a72c84e93b115" x="127.246094"/>
</g>
</g>
</g>
<g id="xtick4">
<g id="line2d11">
<path style="fill: none; stroke: #000000; stroke-width: 0.500000; stroke-linejoin: round; stroke-linecap: butt; stroke-dasharray: 1.000000,3.000000; stroke-dashoffset: 0.000000; opacity: 1.000000" clip-path="url(#p50431ccdcb28178602d99d9270004dde)" d="M339.840000 388.800000L339.840000 43.200000"/>
</g>
<g id="line2d12">
<g ><use style="fill: none; stroke: #000000; stroke-width: 0.500000; stroke-linejoin: round; stroke-linecap: butt;  opacity: 1.000000" xlink:href="#m30e32995789d870ad79a2e54c91cf9c6" x="339.840000" y="388.800000"/>
</g></g>
<g id="line2d13">
<g ><use style="fill: none; stroke: #000000; stroke-width: 0.500000; stroke-linejoin: round; stroke-linecap: butt;  opacity: 1.000000" xlink:href="#m9281cae24120827b11d5ea8a7ad3e96b" x="339.840000" y="43.200000"/>
</g></g>
<g id="text4">
<defs>
<path id="c_cc8d6d580d1b10c8632f7a42cd53db8a" d="M33.015625 -40.375000q-6.640625 0.000000 -10.531250 4.546875q-3.875000 4.531250 -3.875000 12.437500q0.000000 7.859375 3.875000 12.437500q3.890625 4.562500 10.531250 4.562500q6.640625 0.000000 10.515625 -4.562500q3.875000 -4.578125 3.875000 -12.437500q0.000000 -7.906250 -3.875000 -12.437500q-3.875000 -4.546875 -10.515625 -4.546875M52.593750 -71.296875l0.000000 8.984375q-3.718750 -1.750000 -7.500000 -2.671875q-3.781250 -0.937500 -7.500000 -0.937500q-9.765625 0.000000 -14.921875 6.593750q-5.140625 6.593750 -5.875000 19.921875q2.875000 -4.250000 7.218750 -6.515625q4.359375 -2.265625 9.578125 -2.265625q10.984375 0.000000 17.359375 6.671875q6.375000 6.656250 6.375000 18.125000q0.000000 11.234375 -6.640625 18.031250q-6.640625 6.781250 -17.671875 6.781250q-12.656250 0.000000 -19.343750 -9.687500q-6.687500 -9.703125 -6.687500 -28.109375q0.000000 -17.281250 8.203125 -27.562500q8.203125 -10.281250 22.015625 -10.281250q3.718750 0.000000 7.500000 0.734375q3.781250 0.734375 7.890625 2.187500"/>
</defs>
<g style="fill: #000000; opacity: 1.000000" transform="translate(329.199375,401.706250)scale(0.120000)">
<use xlink:href="#c_cc8d6d580d1b10c8632f7a42cd53db8a"/>
<use xlink:href="#c_7a2040fe3b94fcd41d0a72c84e93b115" x="63.623047"/>
<use xlink:href="#c_7a2040fe3b94fcd41d0a72c84e93b115" x="127.246094"/>
</g>
</g>
</g>
<g id="xtick5">
<g id="line2d14">
<path style="fill: none; stroke: #000000; stroke-width: 0.500000; stroke-linejoin: round; stroke-linecap: butt; stroke-dasharray: 1.000000,3.000000; stroke-dashoffset: 0.000000; opacity: 1.000000" clip-path="url(#p50431ccdcb28178602d99d9270004dde)" d="M429.120000 388.800000L429.120000 43.200000"/>
</g>
<g id="line2d15">
<g ><use style="fill: none; stroke: #000000; stroke-width: 0.500000; stroke-linejoin: round; stroke-linecap: butt;  opacity: 1.000000" xlink:href="#m30e32995789d870ad79a2e54c91cf9c6" x="429.120000" y="388.800000"/>
</g></g>
<g id="line2d16">
<g ><use style="fill: none; stroke: #000000; stroke-width: 0.500000; stroke-linejoin: round; stroke-linecap: butt;  opacity: 1.000000" xlink:href="#m9281cae24120827b11d5ea8a7ad3e96b" x="429.120000" y="43.200000"/>
</g></g>
<g id="text5">
<defs>
<path id="c_bef35738d52871942e50b9de9b122bab" d="M31.781250 -34.625000q-7.031250 0.000000 -11.062500 3.765625q-4.015625 3.765625 -4.015625 10.343750q0.000000 6.593750 4.015625 10.359375q4.031250 3.765625 11.062500 3.765625q7.031250 0.000000 11.078125 -3.781250q4.062500 -3.796875 4.062500 -10.343750q0.000000 -6.578125 -4.031250 -10.343750q-4.015625 -3.765625 -11.109375 -3.765625M21.921875 -38.812500q-6.343750 -1.562500 -9.890625 -5.906250q-3.531250 -4.359375 -3.531250 -10.609375q0.000000 -8.734375 6.218750 -13.812500q6.234375 -5.078125 17.062500 -5.078125q10.890625 0.000000 17.093750 5.078125q6.203125 5.078125 6.203125 13.812500q0.000000 6.250000 -3.546875 10.609375q-3.531250 4.343750 -9.828125 5.906250q7.125000 1.656250 11.093750 6.500000q3.984375 4.828125 3.984375 11.796875q0.000000 10.609375 -6.468750 16.281250q-6.468750 5.656250 -18.531250 5.656250q-12.046875 0.000000 -18.531250 -5.656250q-6.468750 -5.671875 -6.468750 -16.281250q0.000000 -6.968750 4.000000 -11.796875q4.015625 -4.843750 11.140625 -6.500000M18.312500 -54.390625q0.000000 5.656250 3.531250 8.828125q3.546875 3.171875 9.937500 3.171875q6.359375 0.000000 9.937500 -3.171875q3.593750 -3.171875 3.593750 -8.828125q0.000000 -5.671875 -3.593750 -8.843750q-3.578125 -3.171875 -9.937500 -3.171875q-6.390625 0.000000 -9.937500 3.171875q-3.531250 3.171875 -3.531250 8.843750"/>
</defs>
<g style="fill: #000000; opacity: 1.000000" transform="translate(418.463750,401.706250)scale(0.120000)">
<use xlink:href="#c_bef35738d52871942e50b9de9b122bab"/>
<use xlink:href="#c_7a2040fe3b94fcd41d0a72c84e93b115" x="63.623047"/>
<use xlink:href="#c_7a2040fe3b94fcd41d0a72c84e93b115" x="127.246094"/>
</g>
</g>
</g>
<g id="xtick6">
<g id="line2d17">
<path style="fill: none; stroke: #000000; stroke-width: 0.500000; stroke-linejoin: round; stroke-linecap: butt; stroke-dasharray: 1.000000,3.000000; stroke-dashoffset: 0.000000; opacity: 1.000000" clip-path="url(#p50431ccdcb28178602d99d9270004dde)" d="M518.400000 388.800000L518.400000 43.200000"/>
</g>
<g id="line2d18">
<g ><use style="fill: none; stroke: #000000; stroke-width: 0.500000; stroke-linejoin: round; stroke-linecap: butt;  opacity: 1.000000" xlink:href="#m30e32995789d870ad79a2e54c91cf9c6" x="518.400000" y="388.800000"/>
</g></g>
<g id="line2d19">
<g ><use style="fill: none; stroke: #000000; stroke-width: 0.500000; stroke-linejoin: round; stroke-linecap: butt;  opacity: 1.000000" xlink:href="#m9281cae24120827b11d5ea8a7ad3e96b" x="518.400000" y="43.200000"/>
</g></g>
<g id="text6">
<defs>
<path id="c_42baa63129a918535c52adb20d687ea7" d="M12.406250 -8.296875l16.109375 0.000000l0.000000 -55.625000l-17.531250 3.515625l0.000000 -8.984375l17.437500 -3.515625l9.859375 0.000000l0.000000 64.609375l16.109375 0.000000l0.000000 8.296875l-41.984375 0.000000z"/>
</defs>
<g style="fill: #000000; opacity: 1.000000" transform="translate(504.173437,401.706250)scale(0.120000)">
<use xlink:href="#c_42baa63129a918535c52adb20d687ea7"/>
<use xlink:href="#c_7a2040fe3b94fcd41d0a72c84e93b115" x="63.623047"/>
<use xlink:href="#c_7a2040fe3b94fcd41d0a72c84e93b115" x="127.246094"/>
<use xlink:href="#c_7a2040fe3b94fcd41d0a72c84e93b115" x="190.869141"/>
</g>
</g>
</g>
</g>
<g id="matplotlib.axis2">
<g id="ytick1">
<g id="line2d20">
<path style="fill: none; stroke: #000000; stroke-width: 0.500000; stroke-linejoin: round; stroke-linecap: butt; stroke-dasharray: 1.000000,3.000000; stroke-dashoffset: 0.000000; opacity: 1.000000" clip-path="url(#p50431ccdcb28178602d99d9270004dde)" d="M72.000000 388.800000L518.400000 388.800000"/>
</g>
<g id="line2d21">
<defs><path id="m3400efa6b1638b3fea9e19e898273957" d="M0.000000 0.000000L4.000000 0.000000"/></defs>
<g ><use style="fill: none; stroke: #000000; stroke-width: 0.500000; stroke-linejoin: round; stroke-linecap: butt;  opacity: 1.000000" xlink:href="#m3400efa6b1638b3fea9e19e898273957" x="72.000000" y="388.800000"/>
</g></g>
<g id="line2d22">
<defs><path id="m20b58b2501143cb5e0a5e8f1ef6f1643" d="M0.000000 0.000000L-4.000000 0.000000"/></defs>
<g ><use style="fill: none; stroke: #000000; stroke-width: 0.500000; stroke-linejoin: round; stroke-linecap: butt;  opacity: 1.000000" xlink:href="#m20b58b2501143cb5e0a5e8f1ef6f1643" x="518.400000" y="388.800000"/>
</g></g>
<g id="text7">
<defs>
<path id="c_ed3e21196fb739f392806f09ca0594ef" d="M10.687500 -12.406250l10.312500 0.000000l0.000000 12.406250l-10.312500 0.000000z"/>
</defs>
<g style="fill: #000000; opacity: 1.000000" transform="translate(50.906250,393.167188)scale(0.120000)">
<use xlink:href="#c_7a2040fe3b94fcd41d0a72c84e93b115"/>
<use xlink:href="#c_ed3e21196fb739f392806f09ca0594ef" x="63.623047"/>
<use xlink:href="#c_ed3f3ed3ebfbd18bcb9c012009a68ad1" x="95.410156"/>
</g>
</g>
</g>
<g id="ytick2">
<g id="line2d23">
<path style="fill: none; stroke: #000000; stroke-width: 0.500000; stroke-linejoin: round; stroke-linecap: butt; stroke-dasharray: 1.000000,3.000000; stroke-dashoffset: 0.000000; opacity: 1.000000" clip-path="url(#p50431ccdcb28178602d99d9270004dde)" d="M72.000000 339.428571L518.400000 339.428571"/>
</g>
<g id="line2d24">
<g ><use style="fill: none; stroke: #000000; stroke-width: 0.500000; stroke-linejoin: round; stroke-linecap: butt;  opacity: 1.000000" xlink:href="#m3400efa6b1638b3fea9e19e898273957" x="72.000000" y="339.428571"/>
</g></g>
<g id="line2d25">
<g ><use style="fill: none; stroke: #000000; stroke-width: 0.500000; stroke-linejoin: round; stroke-linecap: butt;  opacity: 1.000000" xlink:href="#m20b58b2501143cb5e0a5e8f1ef6f1643" x="518.400000" y="339.428571"/>
</g></g>
<g id="text8">
<g style="fill: #000000; opacity: 1.000000" transform="translate(50.375000,343.795759)scale(0.120000)">
<use xlink:href="#c_7a2040fe3b94fcd41d0a72c84e93b115"/>
<use xlink:href="#c_ed3e21196fb739f392806f09ca0594ef" x="63.623047"/>
<use xlink:href="#c_a0416418d96557a09b8c1332d34883ba" x="95.410156"/>
</g>
</g>
</g>
<g id="ytick3">
<g id="line2d26">
<path style="fill: none; stroke: #000000; stroke-width: 0.500000; stroke-linejoin: round; stroke-linecap: butt; stroke-dasharray: 1.000000,3.000000; stroke-dashoffset: 0.000000; opacity: 1.000000" clip-path="url(#p50431ccdcb28178602d99d9270004dde)" d="M72.000000 290.057143L518.400000 290.057143"/>
</g>
<g id="line2d27">
<g ><use style="fill: none; stroke: #000000; stroke-width: 0.500000; stroke-linejoin: round; stroke-linecap: butt;  opacity: 1.000000" xlink:href="#m3400efa6b1638b3fea9e19e898273957" x="72.000000" y="290.057143"/>
</g></g>
<g id="line2d28">
<g ><use style="fill: none; stroke: #000000; stroke-width: 0.500000; stroke-linejoin: round; stroke-linecap: butt;  opacity: 1.000000" xlink:href="#m20b58b2501143cb5e0a5e8f1ef6f1643" x="518.400000" y="290.057143"/>
</g></g>
<g id="text9">
<g style="fill: #000000; opacity: 1.000000" transform="translate(50.468750,294.424330)scale(0.120000)">
<use xlink:href="#c_7a2040fe3b94fcd41d0a72c84e93b115"/>
<use xlink:href="#c_ed3e21196fb739f392806f09ca0594ef" x="63.623047"/>
<use xlink:href="#c_cc8d6d580d1b10c8632f7a42cd53db8a" x="95.410156"/>
</g>
</g>
</g>
<g id="ytick4">
<g id="line2d29">
<path style="fill: none; stroke: #000000; stroke-width: 0.500000; stroke-linejoin: round; stroke-linecap: butt; stroke-dasharray: 1.000000,3.000000; stroke-dashoffset: 0.000000; opacity: 1.000000" clip-path="url(#p50431ccdcb28178602d99d9270004dde)" d="M72.000000 240.685714L518.400000 240.685714"/>
</g>
<g id="line2d30">
<g ><use style="fill: none; stroke: #000000; stroke-width: 0.500000; stroke-linejoin: round; stroke-linecap: butt;  opacity: 1.000000" xlink:href="#m3400efa6b1638b3fea9e19e898273957" x="72.000000" y="240.685714"/>
</g></g>
<g id="line2d31">
<g ><use style="fill: none; stroke: #000000; stroke-width: 0.500000; stroke-linejoin: round; stroke-linecap: butt;  opacity: 1.000000" xlink:href="#m20b58b2501143cb5e0a5e8f1ef6f1643" x="518.400000" y="240.685714"/>
</g></g>
<g id="text10">
<g style="fill: #000000; opacity: 1.000000" transform="translate(50.531250,245.052902)scale(0.120000)">
<use xlink:href="#c_7a2040fe3b94fcd41d0a72c84e93b115"/>
<use xlink:href="#c_ed3e21196fb739f392806f09ca0594ef" x="63.623047"/>
<use xlink:href="#c_bef35738d52871942e50b9de9b122bab" x="95.410156"/>
</g>
</g>
</g>
<g id="ytick5">
<g id="line2d32">
<path style="fill: none; stroke: #000000; stroke-width: 0.500000; stroke-linejoin: round; stroke-linecap: butt; stroke-dasharray: 1.000000,3.000000; stroke-dashoffset: 0.000000; opacity: 1.000000" clip-path="url(#p50431ccdcb28178602d99d9270004dde)" d="M72.000000 191.314286L518.400000 191.314286"/>
</g>
<g id="line2d33">
<g ><use style="fill: none; stroke: #000000; stroke-width: 0.500000; stroke-linejoin: round; stroke-linecap: butt;  opacity: 1.000000" xlink:href="#m3400efa6b1638b3fea9e19e898273957" x="72.000000" y="191.314286"/>
</g></g>
<g id="line2d34">
<g ><use style="fill: none; stroke: #000000; stroke-width: 0.500000; stroke-linejoin: round; stroke-linecap: butt;  opacity: 1.000000" xlink:href="#m20b58b2501143cb5e0a5e8f1ef6f1643" x="518.400000" y="191.314286"/>
</g></g>
<g id="text11">
<g style="fill: #000000; opacity: 1.000000" transform="translate(51.015625,195.681473)scale(0.120000)">
<use xlink:href="#c_42baa63129a918535c52adb20d687ea7"/>
<use xlink:href="#c_ed3e21196fb739f392806f09ca0594ef" x="63.623047"/>
<use xlink:href="#c_7a2040fe3b94fcd41d0a72c84e93b115" x="95.410156"/>
</g>
</g>
</g>
<g id="ytick6">
<g id="line2d35">
<path style="fill: none; stroke: #000000; stroke-width: 0.500000; stroke-linejoin: round; stroke-linecap: butt; stroke-dasharray: 1.000000,3.000000; stroke-dashoffset: 0.000000; opacity: 1.000000" clip-path="url(#p50431ccdcb28178602d99d9270004dde)" d="M72.000000 141.942857L518.400000 141.942857"/>
</g>
<g id="line2d36">
<g ><use style="fill: none; stroke: #000000; stroke-width: 0.500000; stroke-linejoin: round; stroke-linecap: butt;  opacity: 1.000000" xlink:href="#m3400efa6b1638b3fea9e19e898273957" x="72.000000" y="141.942857"/>
</g></g>
<g id="line2d37">
<g ><use style="fill: none; stroke: #000000; stroke-width: 0.500000; stroke-linejoin: round; stroke-linecap: butt;  opacity: 1.000000" xlink:href="#m20b58b2501143cb5e0a5e8f1ef6f1643" x="518.400000" y="141.942857"/>
</g></g>
<g id="text12">
<g style="fill: #000000; opacity: 1.000000" transform="translate(51.421875,146.395982)scale(0.120000)">
<use xlink:href="#c_42baa63129a918535c52adb20d687ea7"/>
<use xlink:href="#c_ed3e21196fb739f392806f09ca0594ef" x="63.623047"/>
<use xlink:href="#c_ed3f3ed3ebfbd18bcb9c012009a68ad1" x="95.410156"/>
</g>
</g>
</g>
<g id="ytick7">
<g id="line2d38">
<path style="fill: none; stroke: #000000; stroke-width: 0.500000; stroke-linejoin: round; stroke-linecap: butt; stroke-dasharray: 1.000000,3.000000; stroke-dashoffset: 0.000000; opacity: 1.000000" clip-path="url(#p50431ccdcb28178602d99d9270004dde)" d="M72.000000 92.571429L518.400000 92.571429"/>
</g>
<g id="line2d39">
<g ><use style="fill: none; stroke: #000000; stroke-width: 0.500000; stroke-linejoin: round; stroke-linecap: butt;  opacity: 1.000000" xlink:href="#m3400efa6b1638b3fea9e19e898273957" x="72.000000" y="92.571429"/>
</g></g>
<g id="line2d40">
<g ><use style="fill: none; stroke: #000000; stroke-width: 0.500000; stroke-linejoin: round; stroke-linecap: butt;  opacity: 1.000000" xlink:href="#m20b58b2501143cb5e0a5e8f1ef6f1643" x="518.400000" y="92.571429"/>
</g></g>
<g id="text13">
<g style="fill: #000000; opacity: 1.000000" transform="translate(50.890625,96.946429)scale(0.120000)">
<use xlink:href="#c_42baa63129a918535c52adb20d687ea7"/>
<use xlink:href="#c_ed3e21196fb739f392806f09ca0594ef" x="63.623047"/>
<use xlink:href="#c_a0416418d96557a09b8c1332d34883ba" x="95.410156"/>
</g>
</g>
</g>
<g id="ytick8">
<g id="line2d41">
<path style="fill: none; stroke: #000000; stroke-width: 0.500000; stroke-linejoin: round; stroke-linecap: butt; stroke-dasharray: 1.000000,3.000000; stroke-dashoffset: 0.000000; opacity: 1.000000" clip-path="url(#p50431ccdcb28178602d99d9270004dde)" d="M72.000000 43.200000L518.400000 43.200000"/>
</g>
<g id="line2d42">
<g ><use style="fill: none; stroke: #000000; stroke-width: 0.500000; stroke-linejoin: round; stroke-linecap: butt;  opacity: 1.000000" xlink:href="#m3400efa6b1638b3fea9e19e898273957" x="72.000000" y="43.200000"/>
</g></g>
<g id="line2d43">
<g ><use style="fill: none; stroke: #000000; stroke-width: 0.500000; stroke-linejoin: round; stroke-linecap: butt;  opacity: 1.000000" xlink:href="#m20b58b2501143cb5e0a5e8f1ef6f1643" x="518.400000" y="43.200000"/>
</g></g>
<g id="text14">
<g style="fill: #000000; opacity: 1.000000" transform="translate(50.984375,47.567188)scale(0.120000)">
<use xlink:href="#c_42baa63129a918535c52adb20d687ea7"/>
<use xlink:href="#c_ed3e21196fb739f392806f09ca0594ef" x="63.623047"/>
<use xlink:href="#c_cc8d6d580d1b10c8632f7a42cd53db8a" x="95.410156"/>
</g>
</g>
</g>
</g>
<g id="patch3">
<path style="fill: none; stroke: #000000; stroke-width: 1.000000; stroke-linejoin: round; stroke-linecap: square;  opacity: 1.000000"  d="M72.000000 43.200000L518.400000 43.200000"/>
</g>
<g id="patch4">
<path style="fill: none; stroke: #000000; stroke-width: 1.000000; stroke-linejoin: round; stroke-linecap: square;  opacity: 1.000000"  d="M518.400000 388.800000L518.400000 43.200000"/>
</g>
<g id="patch5">
<path style="fill: none; stroke: #000000; stroke-width: 1.000000; stroke-linejoin: round; stroke-linecap: square;  opacity: 1.000000"  d="M72.000000 388.800000L518.400000 388.800000"/>
</g>
<g id="patch6">
<path style="fill: none; stroke: #000000; stroke-width: 1.000000; stroke-linejoin: round; stroke-linecap: square;  opacity: 1.000000"  d="M72.000000 388.800000L72.000000 43.200000"/>
</g>
</g>
</g>
</svg>
