<?xml version="1.0" encoding="utf-8" standalone="no"?>
<!DOCTYPE svg PUBLIC "-//W3C//DTD SVG 1.1//EN"
  "http://www.w3.org/Graphics/SVG/1.1/DTD/svg11.dtd">
<!-- Created with matplotlib (http://matplotlib.sourceforge.net/) -->
<svg height="432pt" version="1.1" viewBox="0 0 576 432" width="576pt" xmlns="http://www.w3.org/2000/svg" xmlns:xlink="http://www.w3.org/1999/xlink">
 <defs>
  <style type="text/css">
*{stroke-linecap:square;stroke-linejoin:round;}
  </style>
 </defs>
 <g id="figure_1">
  <g id="patch_1">
   <path d="
M0 432
L576 432
L576 0
L0 0
z
" style="fill:#ffffff;"/>
  </g>
  <g id="axes_1">
   <g id="patch_2">
    <path d="
M72 388.8
L518.4 388.8
L518.4 43.2
L72 43.2
z
" style="fill:#ffffff;"/>
   </g>
   <g id="line2d_1">
    <path clip-path="url(#p7ff5b81e1d)" d="
M72 266.637
L72.4464 170.285
L72.8928 115.606
L73.7856 252.046
L74.232 169.595
L74.6784 178.403
L75.1248 170.882
L75.5712 172.399
L76.0176 253.665
L76.464 176.31
L76.9104 266.41
L77.3568 236.5
L77.8032 191.503
L78.2496 257.63
L78.696 177.499
L79.1424 175.62
L79.5888 255.555
L80.0352 257.288
L80.4816 256.772
L80.928 175.352
L81.3744 172.627
L81.8208 179.9
L82.2672 254.764
L82.7136 252.525
L83.16 235.991
L83.6064 271.051
L84.4992 242.915
L84.9456 272.776
L85.392 254.329
L85.8384 256.416
L86.2848 253.935
L86.7312 178.287
L87.1776 256.311
L87.624 254.078
L88.0704 178.74
L88.5168 253.942
L88.9632 175.997
L89.4096 254.829
L89.856 253.107
L90.3024 177.238
L90.7488 257.666
L91.1952 175.022
L91.6416 253.158
L92.088 199.481
L92.5344 263.297
L92.9808 172.622
L93.4272 252.945
L93.8736 258.224
L94.32 255.46
L94.7664 347.89
L95.2128 255.292
L95.6592 253.775
L96.1056 257.355
L96.552 173.605
L96.9984 213.111
L97.4448 289.47
L97.8912 258.859
L98.3376 199.455
L98.784 256.215
L99.2304 174.931
L100.123 283.695
L100.57 162.364
L101.016 256.907
L101.462 254.413
L101.909 257.947
L102.355 259.969
L102.802 256.869
L103.248 245.607
L103.694 271.168
L104.141 257.696
L104.587 236.964
L105.034 276.963
L105.48 258.741
L105.926 234.436
L106.373 274.851
L106.819 259.273
L107.266 258.101
L107.712 252.907
L108.158 346.458
L108.605 259.076
L109.051 247.073
L109.498 268.054
L110.39 243.046
L110.837 268.556
L111.283 253.965
L111.73 244.568
L112.176 274.12
L113.069 238.99
L113.515 275.423
L113.962 255.766
L114.408 257.704
L114.854 254.847
L115.301 257.711
L115.747 258.938
L116.194 231.926
L116.64 275.506
L117.086 257.446
L117.533 245.646
L117.979 267.207
L118.426 260.305
L118.872 239.683
L119.318 276.726
L119.765 255.431
L120.211 240.869
L120.658 277.948
L121.104 255.887
L121.55 258.416
L121.997 259.165
L122.443 248.965
L122.89 256.831
L123.336 256.474
L123.782 252.917
L124.229 263.297
L125.122 244.825
L125.568 267.968
L126.014 259.506
L126.461 240.16
L126.907 273.25
L127.8 236.107
L128.246 279.101
L128.693 255.456
L129.139 259.174
L129.586 252.063
L130.032 347.082
L130.478 254.086
L130.925 237.15
L131.371 271.345
L131.818 255.317
L132.264 243.314
L132.71 274.386
L133.603 237.334
L134.05 272.807
L134.496 257.065
L134.942 236.87
L135.389 274.095
L135.835 259.414
L136.282 256.199
L136.728 247.922
L137.174 258.091
L137.621 258.632
L138.067 227.503
L138.514 272.178
L138.96 260.049
L139.406 252.226
L139.853 261.059
L140.299 257.749
L140.746 243.415
L141.192 275.501
L141.638 255.513
L142.085 254.67
L142.531 263.242
L142.978 256.59
L143.424 254.329
L143.87 253.926
L144.317 255.017
L144.763 258.127
L145.21 232.065
L145.656 273.087
L146.549 244.001
L146.995 264.056
L147.442 259
L147.888 238.399
L148.334 280.001
L149.227 223.715
L149.674 291.621
L150.12 256.131
L150.566 252.665
L151.013 260.829
L151.459 247.14
L151.906 255.227
L152.352 254.719
L152.798 253.38
L153.245 264.5
L153.691 255.957
L154.138 242.859
L154.584 269.637
L155.03 260.59
L155.477 236.979
L155.923 271.372
L156.37 259.913
L156.816 239.348
L157.262 276.034
L157.709 252.541
L158.155 260.756
L158.602 253.549
L159.048 347.796
L159.494 254.414
L159.941 250.735
L160.387 268.238
L161.28 239.949
L161.726 275.048
L162.619 239.149
L163.066 271.38
L163.958 248.205
L164.405 273.665
L164.851 260.549
L165.298 254.622
L165.744 256.001
L166.19 258.163
L166.637 257.244
L167.083 250.685
L167.53 259.728
L167.976 258.995
L168.422 214.019
L168.869 291.215
L169.315 253.826
L169.762 251.388
L170.208 264.095
L170.654 256.063
L171.101 234.821
L171.547 279.538
L171.994 255.32
L172.44 255.591
L172.886 254.248
L173.333 258.748
L173.779 254.819
L174.226 252.999
L174.672 260.314
L175.118 258.13
L175.565 245.552
L176.011 265.994
L176.458 258.68
L176.904 260.416
L177.35 254.84
L177.797 253.961
L178.243 236.009
L178.69 277.655
L179.136 256.471
L179.582 255.693
L180.029 259.943
L180.475 254.148
L180.922 255.281
L181.368 255.412
L181.814 259.018
L182.261 259.324
L182.707 257.599
L183.154 251.216
L183.6 262.743
L184.046 257.889
L184.493 254.72
L184.939 253.701
L185.386 262.377
L185.832 236.597
L186.278 277.218
L187.171 239.476
L187.618 279.711
L188.064 251.609
L188.51 254.276
L188.957 255.832
L189.403 255.811
L189.85 258.527
L190.296 254.479
L190.742 217.465
L191.189 292.604
L191.635 258.515
L192.082 253.23
L192.528 256.826
L192.974 257.493
L193.421 232.557
L193.867 278.257
L194.314 257.041
L194.76 260.543
L195.206 253.255
L195.653 250.065
L196.099 257.717
L196.546 256.28
L196.992 260.905
L197.438 254.054
L197.885 255.765
L198.331 254.176
L198.778 257.361
L199.224 237.438
L199.67 278.883
L200.117 243.844
L200.563 235.143
L201.01 278.631
L201.456 260.724
L201.902 255.299
L202.349 252.33
L202.795 347.925
L203.242 256.87
L203.688 246.542
L204.134 265.822
L204.581 260.661
L205.027 239.052
L205.474 272.662
L205.92 254.824
L206.366 245.454
L206.813 268.419
L207.259 254.425
L207.706 236.124
L208.152 278.316
L208.598 256.124
L209.045 255.601
L209.491 253.059
L209.938 255.619
L210.384 254.998
L210.83 252.472
L211.277 262.419
L211.723 254.873
L212.17 241.478
L212.616 270.591
L213.062 258.043
L213.509 186.757
L213.955 265.521
L214.402 257.026
L214.848 229.448
L215.294 285.357
L215.741 254.44
L216.187 258.635
L216.634 254.751
L217.08 253.903
L217.526 254.884
L217.973 238.622
L218.419 270.538
L218.866 253.892
L219.312 247.265
L219.758 269.165
L220.205 257.839
L220.651 234.972
L221.098 277.626
L221.99 235.287
L222.437 274.478
L222.883 258.778
L223.33 255.891
L223.776 255.714
L224.222 257.352
L225.115 253.378
L225.562 259.406
L226.008 261.724
L226.454 246.619
L226.901 265.419
L227.347 258.071
L227.794 238.294
L228.24 275.999
L229.133 235.77
L229.579 280.131
L230.026 254.332
L230.472 254.991
L230.918 258.314
L231.365 246.621
L231.811 255.34
L232.258 256.375
L232.704 250.027
L233.15 264.215
L233.597 255.749
L234.043 244.756
L234.49 270.954
L234.936 258.767
L235.382 234.108
L235.829 274.006
L236.722 241.697
L237.168 276.575
L237.614 254.879
L238.061 259.382
L238.507 256.455
L238.954 347.48
L239.4 254.556
L239.846 245.237
L240.293 269.417
L240.739 256.934
L241.186 239.804
L241.632 274.009
L242.078 258.499
L242.525 257.562
L242.971 253.293
L243.418 261.57
L243.864 234.724
L244.31 275.175
L244.757 256.431
L245.203 261.109
L245.65 255.707
L246.096 252.545
L246.542 261.324
L246.989 250.829
L247.435 259.981
L247.882 256.439
L248.328 248.357
L248.774 266.719
L249.221 256.651
L249.667 237.016
L250.114 278.734
L251.006 231.855
L251.453 281.093
L251.899 257.349
L252.346 256.366
L252.792 254.805
L253.238 249.497
L253.685 257.754
L254.131 256.876
L254.578 251.677
L255.024 259.084
L255.47 258.508
L255.917 256.726
L256.363 256.568
L256.81 257.155
L257.256 257.067
L257.702 260.555
L258.149 254.847
L258.595 236.525
L259.042 279.467
L259.488 256.019
L259.934 255.888
L260.381 258.802
L260.827 348.606
L261.274 254.947
L261.72 235.747
L262.166 273.163
L262.613 257.796
L263.059 236.139
L263.506 267.483
L263.952 256.463
L264.398 241.393
L264.845 269.407
L265.738 239.254
L266.184 271.652
L266.63 250.446
L267.077 255.462
L267.523 250.387
L267.97 251.024
L268.416 254.068
L268.862 253.092
L269.309 256.681
L269.755 252.7
L270.202 246.868
L270.648 263.741
L271.094 255.653
L271.541 232.614
L271.987 277.054
L272.88 231.165
L273.326 276.451
L273.773 259.565
L274.666 244.879
L275.112 257.538
L275.558 252.906
L276.005 255.027
L276.451 254.642
L276.898 255.162
L277.344 211.614
L277.79 289.037
L278.237 258.644
L278.683 237.097
L279.13 272.553
L279.576 250.338
L280.022 236.642
L280.469 275.314
L280.915 254.773
L281.362 254.764
L281.808 253.475
L282.254 253.259
L282.701 253.71
L283.147 254.479
L283.594 256.853
L284.04 252.44
L284.486 245.929
L284.933 265.673
L285.379 253.253
L285.826 232.906
L286.272 277.198
L286.718 254.815
L287.165 184.449
L287.611 275.52
L288.058 258.368
L288.504 224.021
L288.95 276.268
L289.397 248.955
L289.843 257.443
L290.29 253.96
L290.736 254.199
L291.182 254.218
L291.629 258.346
L292.075 252.961
L292.522 250.329
L292.968 201.632
L293.414 258.083
L293.861 256.785
L294.307 234.498
L294.754 277.085
L295.2 253.272
L295.646 255.653
L296.093 250.03
L296.539 254.922
L296.986 251.941
L297.432 248.113
L297.878 261.284
L298.325 253.936
L298.771 238.667
L299.218 266.205
L299.664 257.894
L300.11 198.215
L300.557 254.122
L301.003 259.199
L301.45 238.417
L301.896 271.87
L302.342 252.433
L302.789 260.409
L303.235 247.883
L303.682 250.295
L304.128 258.984
L304.574 250.537
L305.021 258.522
L305.467 254.523
L305.914 244.238
L306.36 264.196
L307.253 237.167
L307.699 276.167
L308.592 231.229
L309.038 277.397
L309.485 252.896
L309.931 254.366
L310.378 249.384
L310.824 254.868
L311.27 252.782
L311.717 249.792
L312.163 260.83
L312.61 252.106
L313.056 205.525
L313.502 288.823
L313.949 258.934
L314.395 250.376
L314.842 259.321
L315.288 252.873
L315.734 238.67
L316.181 273.203
L316.627 252.436
L317.074 256.086
L317.52 252.177
L317.966 252.815
L318.413 251.759
L318.859 255.391
L319.306 255.243
L319.752 251.13
L320.198 254.002
L320.645 259.058
L321.538 251.95
L321.984 257.93
L322.43 254.016
L322.877 234.906
L323.323 274.386
L323.77 258.742
L324.216 255.14
L324.662 242.571
L325.109 258.13
L325.555 252.066
L326.002 250.943
L326.448 255.453
L326.894 257.544
L327.341 240.928
L327.787 262.747
L328.234 258.007
L328.68 256.043
L329.126 254.675
L329.573 252.621
L330.019 237.98
L330.466 273.821
L330.912 253.584
L331.358 253.739
L331.805 254.264
L332.251 255.766
L332.698 249.385
L333.144 255.725
L333.59 254.968
L334.037 253.059
L334.483 243.012
L334.93 266.98
L335.376 253.369
L335.822 250.235
L336.269 258.078
L336.715 255.968
L337.162 233.414
L337.608 274.273
L338.054 259.793
L338.947 248.298
L339.394 254.176
L339.84 253.466
L340.286 230.143
L340.733 269.089
L341.179 256.615
L342.072 249.578
L342.518 252.227
L342.965 256.401
L343.411 253.922
L343.858 254.543
L344.304 252.998
L344.75 260.614
L345.197 250.873
L345.643 251.058
L346.09 248.709
L346.536 257.406
L347.429 251.838
L347.875 258.9
L348.322 258.05
L348.768 240.261
L349.214 260.724
L349.661 257.644
L350.107 238.931
L350.554 270.458
L351.446 236.796
L351.893 274.855
L352.339 252.617
L352.786 255.321
L353.232 249.512
L354.125 253.91
L354.571 258.353
L355.018 253.903
L355.464 252.215
L355.91 213.755
L356.357 291.49
L356.803 256.712
L357.25 233.845
L357.696 274.669
L358.589 231.983
L359.035 277.674
L359.482 258.622
L359.928 252.977
L360.374 244.842
L360.821 257.378
L361.267 252.371
L361.714 228.026
L362.16 271.649
L362.606 257.358
L363.053 208.114
L363.499 290.198
L363.946 257.074
L364.838 250.896
L365.731 256.037
L366.178 254.922
L366.624 233.82
L367.07 277.272
L367.517 247.604
L367.963 255.4
L368.41 252.342
L368.856 247.405
L369.302 261.539
L369.749 253.359
L370.195 250.905
L370.642 255.683
L371.088 258.492
L371.534 235.695
L371.981 270.765
L372.427 256.869
L372.874 234.276
L373.32 272.973
L373.766 251.362
L374.213 259.579
L374.659 248.384
L375.106 250.616
L375.552 256.765
L375.998 246.691
L376.445 257.03
L376.891 254.06
L377.338 253.351
L377.784 256.29
L378.23 252.85
L378.677 238.526
L379.123 277.678
L379.57 255.803
L380.016 224.5
L380.462 280.179
L380.909 253.246
L381.355 253.463
L381.802 247.975
L382.248 255.889
L382.694 254.668
L383.141 226.929
L383.587 275.125
L384.034 243.021
L384.48 249.448
L384.926 260.705
L385.373 259.069
L385.819 254.277
L386.266 245.982
L386.712 256.027
L387.158 258.583
L387.605 252.33
L388.051 252.053
L388.498 255.335
L388.944 249.977
L389.39 252.36
L389.837 255.603
L390.283 259.765
L390.73 253.076
L391.176 253.785
L391.622 211.534
L392.069 290.783
L392.515 255.01
L392.962 233.31
L393.408 278.259
L394.301 235.587
L394.747 273.58
L395.194 258.143
L396.086 245.186
L396.533 249.898
L396.979 233.426
L397.426 271.328
L397.872 259.626
L398.318 243.489
L398.765 262.924
L399.211 257.868
L399.658 236.981
L400.104 276.419
L400.55 250.888
L400.997 238.878
L401.443 272.918
L401.89 255.292
L402.336 254.608
L402.782 256.819
L403.229 244.214
L403.675 252.957
L404.122 250.181
L405.014 259.863
L405.461 254.086
L405.907 238.211
L406.354 269.018
L407.246 233.39
L407.693 274.564
L408.139 258.044
L408.586 233.797
L409.032 274.892
L409.478 256.081
L409.925 257.381
L410.371 250.554
L410.818 254.711
L411.264 256.27
L411.71 250.964
L412.157 254.954
L412.603 257.761
L413.05 210.647
L413.496 291.035
L413.942 251.012
L414.389 237.497
L414.835 275.363
L415.728 227.598
L416.174 281.136
L416.621 252.713
L417.067 254.718
L417.514 252.99
L417.96 253.558
L418.853 248.447
L419.299 260.485
L419.746 254.947
L420.192 247.778
L420.638 257.034
L421.085 258.859
L421.531 233.172
L421.978 270.578
L422.424 256.394
L422.87 234.844
L423.317 270.11
L423.763 252.416
L424.21 258.046
L424.656 251.58
L425.102 250.692
L425.549 256.173
L425.995 247.954
L426.442 256.723
L426.888 253.454
L427.334 241.857
L427.781 264.655
L428.674 237.478
L429.12 274.507
L429.566 255.309
L430.013 230.747
L430.459 279.093
L430.906 252.27
L431.352 254.45
L431.798 249.22
L432.245 255.038
L433.138 248.421
L433.584 260.099
L434.03 252.992
L434.477 239.533
L434.923 265.489
L435.37 256.459
L435.816 231.238
L436.262 272.121
L436.709 257.187
L437.155 233.223
L437.602 274.157
L438.048 251.529
L438.494 255.078
L438.941 247.264
L439.387 249.869
L439.834 255.564
L440.28 230.044
L440.726 269.906
L441.173 252.193
L441.619 251.208
L442.066 257.961
L442.512 254.416
L442.958 232.432
L443.405 276.986
L444.298 229.874
L444.744 274.521
L445.19 255.199
L445.637 253.404
L446.083 248.096
L446.53 251.966
L446.976 254.009
L447.422 253.881
L447.869 255.81
L448.315 206.702
L448.762 288.037
L449.654 233.957
L450.101 272.16
L450.994 238.254
L451.44 272.85
L451.886 250.605
L452.333 256.754
L452.779 256.539
L453.226 242.719
L453.672 253.641
L454.118 252.492
L454.565 252.502
L455.011 255.569
L455.458 251.745
L455.904 242.322
L456.35 267.058
L456.797 253.978
L457.243 252.521
L457.69 255.557
L458.136 253.387
L458.582 233.471
L459.029 274.066
L459.475 256.582
L459.922 252.231
L460.368 245.585
L460.814 255.666
L461.261 250.74
L461.707 249.696
L462.154 256.471
L462.6 254.307
L463.046 241.797
L463.493 261.67
L463.939 254.719
L464.386 185.522
L464.832 265.704
L465.278 251.513
L465.725 225.475
L466.171 283.501
L466.618 253.496
L467.064 238.832
L467.51 255.454
L467.957 252.866
L468.403 236.837
L468.85 269.747
L469.296 255.427
L469.742 253.602
L470.189 248.393
L470.635 252.769
L471.082 252.225
L471.528 253.999
L471.974 253.29
L472.421 257.345
L472.867 241.647
L473.314 261.714
L473.76 254.4
L474.206 255.338
L474.653 252.304
L475.099 257.944
L475.546 250.849
L475.992 256.307
L476.438 251.732
L476.885 257.862
L477.331 251.854
L477.778 252.464
L478.224 257.429
L478.67 253.571
L479.117 252.523
L479.563 253.266
L480.01 257.698
L480.456 250.254
L481.349 250.149
L481.795 250.667
L482.242 254.512
L482.688 252.705
L483.134 256.823
L483.581 252.292
L484.027 208.345
L484.474 290.079
L484.92 256.083
L485.366 251.409
L485.813 251.132
L486.259 257.059
L486.706 230.106
L487.152 274.491
L487.598 253.625
L488.045 257.075
L488.491 248.927
L488.938 251.421
L489.384 258.36
L489.83 227.266
L490.277 271.561
L490.723 249.63
L491.17 250.463
L491.616 261.405
L492.062 253.439
L492.509 253.581
L492.955 256.758
L493.402 252.922
L493.848 232.992
L494.294 276.099
L494.741 255.75
L495.187 244.637
L495.634 246.543
L496.08 255.612
L496.526 254.059
L496.973 226.002
L497.419 268.166
L498.312 241.377
L498.758 264.462
L499.205 256.253
L499.651 231.006
L500.098 273.421
L500.99 234.552
L501.437 277.702
L501.883 252.518
L502.33 257.066
L502.776 250.471
L503.222 249.548
L503.669 256.071
L504.115 249.401
L504.562 256.083
L505.454 247.029
L505.901 264.484
L506.347 254.145
L506.794 234.604
L507.24 277.376
L508.133 229.212
L508.579 278.76
L509.026 252.842
L509.472 254.623
L509.918 247.645
L510.365 253.552
L510.811 253.138
L511.258 243.484
L511.704 260.916
L512.597 242.527
L513.043 264.83
L513.49 256.166
L513.936 249.978
L514.382 251.211
L514.829 256.175
L515.275 253.747
L515.722 249.594
L516.168 250.318
L516.614 253.879
L517.061 254.605
L517.507 252.251
L517.954 254.665
L517.954 254.665" style="fill:none;stroke:#ff0000;"/>
   </g>
   <g id="line2d_2">
    <path clip-path="url(#p7ff5b81e1d)" d="
M72 272.86
L72.4464 77.728
L72.8928 152.4
L73.3392 122.964
L73.7856 108.627
L74.232 121.769
L74.6784 111.971
L75.1248 112.5
L75.5712 122.354
L76.0176 123.07
L76.464 198.812
L76.9104 207.317
L77.3568 123.525
L77.8032 203.034
L78.2496 127.258
L78.696 185.672
L79.1424 142.727
L79.5888 124.982
L80.0352 195.841
L80.4816 213.977
L80.928 203.019
L81.3744 201.376
L81.8208 110.512
L82.2672 111.982
L82.7136 208.43
L83.16 191.468
L83.6064 132.122
L84.0528 211.484
L84.4992 165.235
L84.9456 247.956
L85.392 120.705
L85.8384 207.956
L86.2848 94.0291
L86.7312 202.376
L87.1776 211.469
L87.624 117.769
L88.0704 113.44
L88.5168 217.099
L88.9632 202.381
L89.4096 167.055
L89.856 241.756
L90.3024 204.636
L90.7488 206.972
L91.1952 170.008
L91.6416 228.763
L92.088 201.975
L92.5344 196.775
L92.9808 219.116
L93.4272 120.893
L93.8736 166.021
L94.32 241.744
L94.7664 126.097
L95.2128 206.845
L95.6592 206.657
L96.1056 200.202
L96.552 212.403
L96.9984 204.575
L97.4448 193.415
L97.8912 220.484
L98.3376 204.99
L98.784 172.133
L99.2304 242.521
L99.6768 205.151
L100.123 200.68
L100.57 201.109
L101.016 211.055
L101.462 201.942
L101.909 210.33
L102.355 208.467
L102.802 188.918
L103.248 143.811
L103.694 204.242
L104.141 164.766
L104.587 163.759
L105.034 193.999
L105.48 209.745
L105.926 197.08
L106.373 205.944
L106.819 210.476
L107.266 188.107
L107.712 222.342
L108.158 206.934
L108.605 165.89
L109.051 248.779
L109.944 165.132
L110.39 242.873
L110.837 202.06
L111.283 207.165
L111.73 200.374
L112.176 207.789
L112.622 210.402
L113.069 189.967
L113.515 220.668
L113.962 209.16
L114.408 115.604
L114.854 253.372
L115.301 202.256
L115.747 205.225
L116.194 202.259
L116.64 208.281
L117.086 171.852
L117.533 228.146
L117.979 211.855
L118.426 190.785
L118.872 220.883
L119.318 205.988
L119.765 164.778
L120.211 248.762
L120.658 200.89
L121.55 205.199
L121.997 203.632
L122.443 207.335
L122.89 206.527
L123.336 208.139
L123.782 189.999
L124.229 220.129
L124.675 114.63
L125.122 260.014
L125.568 209.751
L126.014 289.572
L126.461 237.423
L126.907 321.547
L127.8 231.31
L128.246 297.88
L128.693 262.552
L129.139 244.286
L129.586 284.54
L130.478 236.455
L130.925 288.919
L131.371 267.558
L131.818 234.823
L132.264 293.308
L132.71 262.871
L133.157 265.681
L133.603 265.19
L134.05 244.87
L134.496 264.046
L134.942 261.979
L135.389 268.925
L135.835 260.839
L136.282 267.874
L136.728 262.668
L137.174 268.495
L137.621 262.986
L138.067 255.901
L138.514 270.897
L138.96 267.136
L139.406 238.993
L139.853 291.035
L140.299 262.389
L140.746 241.336
L141.192 291.088
L141.638 265.106
L142.085 255.977
L142.531 262.121
L142.978 263.689
L143.424 266.063
L143.87 269.499
L144.317 265.708
L144.763 221.555
L145.21 296.061
L145.656 266.878
L146.102 266.479
L146.549 261.889
L146.995 258.549
L147.442 229.215
L147.888 295.392
L148.781 234.748
L149.227 295.031
L149.674 268.33
L150.12 267.104
L151.013 260.808
L151.459 267.739
L151.906 268.444
L152.352 263.203
L152.798 269.12
L153.245 262.039
L153.691 269.687
L154.138 266.537
L154.584 265.997
L155.03 239.976
L155.477 288.288
L155.923 265.817
L156.37 260.849
L156.816 263.103
L157.262 262.862
L157.709 260.075
L158.155 266.819
L158.602 267.576
L159.048 262.827
L159.494 266.835
L159.941 266.43
L160.387 258.158
L160.834 271.14
L161.28 262.919
L161.726 239.652
L162.173 294.563
L162.619 263.217
L163.066 220.58
L163.512 306.963
L163.958 267.261
L164.405 263.211
L164.851 263.728
L165.298 258.747
L165.744 348.633
L166.19 258.922
L166.637 264.505
L167.083 264.31
L167.53 214.46
L167.976 313.93
L168.869 231.022
L169.315 294.421
L169.762 268.073
L170.208 264.445
L170.654 264.886
L171.101 258.524
L171.547 264.626
L171.994 261.366
L172.44 267.723
L172.886 255.971
L173.333 256.418
L173.779 276.986
L174.226 267.217
L174.672 247.107
L175.118 283.5
L175.565 266.25
L176.011 226.46
L176.458 299.535
L176.904 263.353
L177.35 266.321
L177.797 266.294
L178.243 260.983
L178.69 266.919
L179.136 265.004
L179.582 264.231
L180.029 263.225
L180.475 227.305
L180.922 346.929
L181.368 234.341
L181.814 262.956
L182.261 266.288
L183.154 263.367
L183.6 263.286
L184.046 265.366
L184.493 266.671
L184.939 263.43
L185.386 257.255
L185.832 265.488
L186.278 260.129
L186.725 267.146
L187.171 263.825
L187.618 265.135
L188.064 268.491
L188.51 258.197
L188.957 264.159
L189.403 264.927
L189.85 241.395
L190.296 276.399
L190.742 267.926
L191.189 268.706
L192.082 263.063
L192.528 237.187
L192.974 297.681
L193.421 265.852
L193.867 265.329
L194.314 262.117
L194.76 267.944
L195.206 264.207
L195.653 263.061
L196.099 254.571
L196.546 264.479
L196.992 255.705
L197.438 273.347
L197.885 262.64
L198.331 241.746
L198.778 291.346
L199.67 240.435
L200.117 290.551
L200.563 269.007
L201.01 264.171
L201.456 262.469
L201.902 266.452
L202.349 265.404
L203.242 261.755
L203.688 266.831
L204.134 263.466
L204.581 262.764
L205.027 266.174
L205.474 246.739
L205.92 277.187
L206.366 263.447
L206.813 260.29
L207.259 267.892
L207.706 267.355
L208.152 233.642
L208.598 295.262
L209.045 266.634
L209.491 266.334
L209.938 259.856
L210.83 269.031
L211.723 259.905
L212.17 264.152
L212.616 266.208
L213.062 241.638
L213.509 280.293
L213.955 263.026
L214.402 252.755
L214.848 275.085
L215.741 262.268
L216.187 263.612
L216.634 265.633
L217.08 269.931
L217.526 260.692
L217.973 260.746
L218.419 267.22
L218.866 269.069
L219.312 264.191
L219.758 261.237
L220.205 263.648
L220.651 264.386
L221.098 264.778
L221.544 266.562
L221.99 264.121
L222.437 225.943
L222.883 295.114
L223.776 236.131
L224.222 291.522
L225.115 232.001
L225.562 297.92
L226.008 265.045
L226.454 263.303
L226.901 268.418
L227.347 266.417
L227.794 346.597
L228.24 220.923
L228.686 299.045
L229.579 235.683
L230.026 290.135
L230.472 266.777
L230.918 268.411
L231.365 265.821
L231.811 260.594
L232.258 265.742
L232.704 264.375
L233.15 265.579
L233.597 263.944
L234.043 266.494
L234.49 266.184
L234.936 264.168
L235.382 256.546
L235.829 265.64
L236.275 262.912
L236.722 241.25
L237.168 274.976
L238.061 256.483
L238.507 277.001
L238.954 262.33
L239.4 257.22
L239.846 277.095
L240.293 264.741
L240.739 258.988
L241.186 268.03
L241.632 268.962
L242.078 226.581
L242.525 299.581
L242.971 266.922
L243.418 261.737
L243.864 263.278
L244.31 263.871
L244.757 264.833
L245.203 264.109
L245.65 264.229
L246.096 269.08
L246.542 264.773
L246.989 264.861
L247.435 269.239
L247.882 262.428
L248.328 264.676
L248.774 263.349
L249.221 269.771
L249.667 264.885
L250.114 264.241
L250.56 263.138
L251.006 268.134
L251.453 260.714
L251.899 269.877
L252.346 265.41
L252.792 266.86
L253.238 260.969
L253.685 264.668
L254.131 265.888
L255.024 262.105
L255.47 268.414
L255.917 265.953
L256.363 266.182
L256.81 262.77
L257.702 268.909
L258.149 263.124
L258.595 262.252
L259.042 346.061
L259.488 264.611
L259.934 262.358
L260.381 265.42
L260.827 266.679
L261.274 262.906
L261.72 266.198
L262.166 267.45
L262.613 264.134
L263.059 264
L263.952 267.675
L264.845 263.901
L265.291 263.196
L265.738 267.952
L266.184 258.89
L266.63 263.51
L267.077 262.959
L267.523 264.819
L267.97 268.234
L268.416 266.034
L268.862 224.693
L269.309 295.683
L269.755 268.657
L270.202 233.73
L270.648 292.665
L271.541 227.196
L271.987 307.246
L272.434 261.012
L272.88 264.116
L273.326 270.599
L273.773 260.92
L274.219 264.585
L274.666 265.339
L275.112 265.661
L275.558 264.728
L276.005 266.879
L276.451 265.334
L276.898 225.881
L277.344 293.055
L277.79 263.671
L278.237 251.11
L278.683 280.592
L279.13 262.128
L279.576 228.345
L280.022 303.889
L280.469 264.434
L280.915 262.226
L281.362 265.983
L281.808 258.024
L282.254 261.51
L282.701 222.423
L283.147 297.51
L283.594 262.358
L284.04 266.852
L284.486 266.485
L284.933 265.175
L285.379 261.606
L285.826 268.118
L286.272 269.393
L286.718 261.656
L287.165 263.413
L287.611 266.494
L288.058 268.581
L288.504 262.82
L288.95 265.036
L289.397 265.105
L290.29 260.599
L290.736 269.638
L291.629 263.055
L292.075 263.7
L292.522 269.224
L292.968 265.273
L293.414 264.301
L293.861 261.803
L294.307 265.444
L294.754 262.448
L295.2 195.343
L295.646 294.821
L296.093 266.444
L296.539 266.161
L296.986 263.433
L297.432 252.305
L297.878 261.955
L298.325 266.153
L298.771 263.858
L299.218 263.396
L299.664 261.472
L300.11 226.545
L300.557 295.015
L301.003 261.738
L301.45 263.614
L301.896 266.888
L302.789 263.393
L303.235 260.382
L303.682 265.998
L304.128 264.55
L304.574 262.221
L305.021 263.83
L305.467 263.788
L305.914 265.76
L306.36 242.176
L306.806 275.644
L307.253 263.601
L307.699 225.563
L308.146 294.743
L308.592 265.065
L309.038 265.517
L309.485 258.123
L309.931 265.309
L310.378 263.929
L310.824 262.952
L311.27 264.312
L311.717 263.731
L312.163 262.598
L312.61 258.945
L313.056 264.306
L313.502 259.464
L313.949 265.425
L314.395 265.719
L314.842 265.438
L315.288 262.502
L315.734 265.532
L316.181 263.471
L316.627 263.933
L317.074 258.907
L317.52 266.61
L317.966 264.866
L318.413 263.931
L318.859 260.156
L319.306 266.727
L319.752 265.945
L320.198 262.016
L320.645 261.146
L321.091 260.005
L321.538 264.795
L321.984 265.945
L322.43 262.469
L322.877 262.153
L323.323 262.036
L323.77 266.592
L324.216 200.804
L324.662 263.824
L325.109 265.411
L325.555 264.929
L326.002 265.962
L326.448 262.632
L326.894 266.861
L327.341 265.452
L327.787 259.961
L328.234 264.193
L328.68 261.308
L329.126 242.858
L329.573 279.101
L330.466 249.493
L330.912 270.343
L331.358 265.725
L331.805 241.629
L332.251 289.627
L332.698 261.701
L333.144 265.272
L333.59 266.528
L334.483 261.066
L334.93 264.946
L335.376 263.189
L335.822 265.315
L336.269 264.831
L336.715 262.488
L337.162 265.142
L337.608 263.035
L338.054 262.864
L338.501 262.225
L338.947 264.647
L339.394 206.779
L339.84 262.86
L340.286 262.795
L340.733 263.308
L341.179 266.211
L341.626 261.493
L342.072 261.642
L342.518 264.575
L342.965 258.591
L343.411 263.171
L343.858 265.075
L344.304 261.892
L344.75 264.253
L345.197 264.684
L346.09 263.228
L346.536 264.316
L346.982 265.723
L347.429 260.48
L347.875 260.946
L348.322 265.114
L348.768 263.5
L349.214 264.296
L349.661 263.018
L350.107 265.843
L350.554 264.899
L351 265.666
L351.446 262.823
L351.893 262.917
L352.339 260.597
L352.786 265.168
L353.232 265.575
L353.678 265.19
L354.125 261.955
L355.018 266.739
L355.91 261.277
L356.803 265.479
L357.25 264.27
L357.696 261.243
L358.142 262.898
L358.589 262.659
L359.035 264.988
L359.482 263.417
L359.928 262.493
L360.374 263.705
L360.821 261.357
L361.267 259.979
L361.714 264.845
L362.16 268.064
L362.606 261.701
L363.499 263.216
L363.946 267.629
L364.392 266.642
L364.838 260.658
L365.285 263.736
L365.731 267.994
L366.178 211.744
L366.624 261.274
L367.07 262.455
L367.517 263.997
L367.963 259.063
L368.41 265.194
L368.856 261.179
L369.302 264.661
L369.749 263.156
L370.642 261.902
L371.088 263.981
L371.534 263.898
L371.981 265.556
L372.427 262.356
L372.874 265.062
L373.32 265.742
L373.766 248.348
L374.213 261.876
L374.659 260.566
L375.106 265.416
L375.552 264.015
L375.998 265.469
L376.445 262.816
L376.891 264.866
L377.338 265.691
L377.784 261.545
L378.23 262.844
L378.677 266.386
L379.123 266.017
L379.57 263.527
L380.016 262.19
L380.462 263.223
L380.909 264.724
L381.355 264.898
L381.802 262.72
L382.248 264.897
L382.694 262.88
L383.141 265.785
L383.587 261.924
L384.034 264.633
L384.48 261.946
L384.926 266.05
L385.373 262.495
L385.819 263.441
L386.266 262.912
L386.712 267.677
L387.158 263.113
L387.605 262.475
L388.051 262.874
L388.498 265.854
L388.944 260.891
L389.39 348.532
L389.837 259.392
L390.283 265.607
L391.176 263.197
L391.622 260.472
L392.069 265.943
L392.515 264.652
L392.962 264.253
L393.408 261.603
L393.854 265.72
L394.301 264.507
L394.747 265.229
L395.194 259.469
L395.64 245.691
L396.086 279.418
L396.533 254.663
L396.979 263.605
L397.426 263.509
L397.872 263.291
L398.318 262.881
L398.765 265.126
L399.211 265.744
L399.658 264.406
L400.104 263.975
L400.55 264.377
L400.997 264.256
L401.443 264.29
L401.89 263.417
L402.336 264.555
L402.782 261.502
L403.229 264.698
L403.675 262.23
L404.122 263.722
L404.568 264.215
L405.014 263.628
L405.461 261.474
L405.907 260.38
L406.354 263.703
L406.8 258.635
L407.246 261.118
L407.693 260.245
L408.139 261.851
L408.586 262.162
L409.032 260.461
L409.478 260.011
L410.371 265.098
L410.818 260.358
L411.264 261.255
L411.71 256.318
L412.157 260.393
L412.603 261.052
L413.05 259.299
L413.496 263.327
L413.942 260.956
L414.389 261.13
L414.835 260.357
L415.282 262.503
L415.728 262.056
L416.174 259.609
L416.621 261.15
L417.067 264.89
L417.514 259.96
L417.96 259.63
L418.406 261.339
L418.853 262.377
L419.299 260.415
L419.746 257.705
L420.192 261.655
L420.638 263.41
L421.085 259.836
L421.531 264.423
L422.424 261.215
L422.87 260.145
L423.317 263.123
L423.763 260.743
L424.21 260.095
L424.656 261.295
L425.102 264.54
L425.549 261.439
L425.995 260.8
L426.442 259.932
L427.334 263.302
L427.781 262.15
L428.227 262.293
L428.674 261.489
L429.12 262.528
L430.013 260.667
L430.459 258.36
L430.906 261.584
L431.352 261.986
L431.798 258.884
L432.691 262.85
L433.138 262.29
L433.584 261.367
L434.03 261.628
L434.477 260.255
L434.923 264.138
L435.37 261.187
L435.816 260.288
L436.262 258.035
L436.709 264.528
L437.155 261.058
L437.602 261.273
L438.048 260.719
L438.494 263.542
L438.941 261.581
L439.387 261.093
L439.834 259.747
L440.28 265.267
L441.173 258.539
L441.619 260.995
L442.066 256.573
L442.512 261.451
L442.958 263.821
L443.851 258.936
L444.298 264.115
L444.744 263.261
L445.19 261.756
L445.637 256.66
L446.083 263.037
L446.53 262.442
L446.976 258.328
L447.869 262.713
L448.315 262.643
L448.762 259.737
L449.208 260.701
L449.654 258.79
L450.101 262.563
L450.547 263.205
L450.994 263.487
L451.44 259.137
L451.886 266.025
L452.333 256.994
L452.779 261.587
L453.226 258.043
L453.672 264.301
L454.118 260.838
L455.011 260.097
L455.458 263.911
L455.904 260.169
L456.35 259.172
L456.797 259.552
L457.243 257.832
L457.69 264.487
L458.136 261.857
L458.582 255.961
L459.475 264.775
L459.922 259.646
L460.368 261.234
L460.814 257.26
L461.261 264.617
L461.707 260.411
L462.154 264.341
L462.6 261.225
L463.046 262.39
L463.493 262.097
L463.939 262.716
L464.386 262.115
L464.832 253.617
L465.278 262.128
L465.725 264.751
L466.171 257.311
L466.618 258.358
L467.064 264.686
L467.51 260.439
L467.957 258.841
L468.403 258.074
L468.85 261.824
L469.296 261.637
L469.742 261.004
L470.189 259.005
L471.082 264.267
L471.528 263.315
L471.974 257.484
L472.421 258.339
L472.867 262.156
L473.314 261.631
L473.76 259.77
L474.206 259.867
L474.653 262.405
L475.099 263.065
L475.546 260.054
L475.992 258.385
L476.438 262.112
L476.885 260.805
L477.331 261.369
L477.778 260.676
L478.224 262.969
L478.67 263.526
L479.117 260.757
L479.563 260.638
L480.01 258.164
L480.456 262.2
L480.902 261.105
L481.349 260.862
L481.795 259.755
L482.242 264.157
L482.688 262.69
L483.134 259.424
L483.581 259.699
L484.027 265.93
L484.474 258.795
L484.92 261.244
L485.366 259.846
L485.813 264.339
L486.259 260.474
L486.706 261.547
L487.152 261.037
L487.598 257.857
L488.045 260.054
L488.491 262.894
L488.938 260.91
L489.384 260.532
L490.277 265.12
L490.723 259.404
L491.17 260.243
L491.616 263.163
L492.062 263.35
L492.509 260.767
L492.955 259.93
L493.402 261.344
L493.848 265.151
L494.741 259.521
L495.187 258.551
L495.634 262.304
L496.08 264.499
L496.973 258.23
L497.419 263.11
L497.866 263.049
L498.758 259.018
L499.205 264.046
L499.651 265.386
L500.098 261.504
L500.544 259.154
L500.99 263.122
L501.437 262.318
L501.883 259.032
L502.33 256.968
L503.669 263.687
L504.115 260.808
L504.562 258.956
L505.008 262.723
L505.454 260.987
L505.901 260.667
L506.347 260.757
L506.794 263.759
L507.24 263.378
L507.686 260.981
L508.133 259.962
L508.579 262.155
L509.026 261.005
L509.472 262.666
L509.918 262.39
L510.365 259.798
L510.811 263.063
L511.704 261.604
L512.15 259.812
L512.597 264.31
L513.043 260.961
L513.49 252.814
L513.936 259.886
L514.382 263.278
L514.829 259.059
L515.275 261.967
L515.722 261.348
L516.168 264.973
L517.061 258.845
L517.507 259.324
L517.954 261.021
L517.954 261.021" style="fill:none;opacity:0.7;stroke:#008000;"/>
   </g>
   <g id="line2d_3">
    <path clip-path="url(#p7ff5b81e1d)" d="
M72 266.469
L72.4464 152.742
L72.8928 105.852
L73.3392 208.981
L73.7856 161.202
L74.232 178.952
L74.6784 158.768
L75.1248 189.867
L75.5712 181.299
L76.0176 176.488
L76.464 266.281
L76.9104 259.456
L77.3568 156.157
L77.8032 285.807
L78.2496 258.397
L78.696 140.583
L79.1424 287.447
L79.5888 148.09
L80.0352 258.461
L80.4816 254.562
L80.928 256.619
L81.3744 184.21
L81.8208 175.925
L82.2672 179.31
L82.7136 258.851
L83.16 181.806
L83.6064 256.89
L84.0528 178.11
L84.4992 180.044
L84.9456 256.459
L85.392 257.31
L85.8384 235.643
L86.2848 275.22
L86.7312 256.965
L87.1776 253.162
L87.624 264.43
L88.0704 262.112
L88.5168 259.064
L88.9632 258.793
L89.4096 261.015
L89.856 221.336
L90.3024 300.278
L90.7488 178.836
L91.1952 260.446
L91.6416 259.967
L92.088 257.606
L92.5344 260.798
L92.9808 257.17
L93.4272 264.605
L93.8736 257.336
L94.32 255.123
L94.7664 265.307
L95.2128 258.933
L95.6592 257.085
L96.1056 261.623
L96.552 260.302
L96.9984 260.486
L97.4448 257.18
L97.8912 261.851
L98.3376 260.872
L98.784 258.988
L99.2304 179.133
L99.6768 256.36
L100.123 263.364
L100.57 183.84
L101.016 256.873
L101.462 258.513
L101.909 221.376
L102.355 291.499
L102.802 259.828
L103.248 259.453
L103.694 263.27
L104.141 259.769
L104.587 178.419
L105.034 257.295
L105.48 263.494
L105.926 257.985
L106.373 263.13
L106.819 262.241
L107.266 155.726
L107.712 272.371
L108.158 262.028
L108.605 256.096
L109.051 261.593
L109.498 255.81
L109.944 253.134
L110.39 271.377
L110.837 259.429
L111.283 229.487
L111.73 291.25
L112.176 181.102
L112.622 216.966
L113.069 349.618
L113.515 229.696
L113.962 257.786
L114.408 255.735
L114.854 255.251
L115.301 260.683
L115.747 256.071
L116.194 262.015
L116.64 259.149
L117.086 252.964
L117.533 267.717
L117.979 259.051
L118.426 241.719
L118.872 283.622
L119.318 260.349
L119.765 224.631
L120.211 286.828
L120.658 260.086
L121.104 258.474
L121.55 253.312
L121.997 263.899
L122.443 262.274
L122.89 249.495
L123.336 268.938
L124.229 253.952
L124.675 266.197
L125.122 257.45
L125.568 238.706
L126.014 283.674
L126.461 257.989
L126.907 256.14
L127.354 262.295
L127.8 248.309
L128.246 256.78
L128.693 260.128
L129.139 236.148
L129.586 275.831
L130.032 261.519
L130.478 253.304
L130.925 261.777
L131.371 259.823
L131.818 232.591
L132.264 288.653
L133.157 222.036
L133.603 297.72
L134.05 262.479
L134.496 257.255
L134.942 260.92
L135.389 257.244
L135.835 255.568
L136.282 251.259
L136.728 265.442
L137.174 257.295
L137.621 256.561
L138.514 261.793
L138.96 231.872
L139.406 287.883
L139.853 259.486
L140.299 222.245
L140.746 294.555
L141.192 258.648
L141.638 259.294
L142.085 263.09
L142.531 253.046
L142.978 249.531
L143.424 258.231
L144.317 256.956
L144.763 265.051
L145.21 262.093
L145.656 248.711
L146.102 270.308
L146.995 252.803
L147.442 263.749
L147.888 260.19
L148.334 218.148
L148.781 302.308
L149.227 258.408
L149.674 260.545
L150.12 259.253
L150.566 248.245
L151.013 257.736
L151.459 256.238
L151.906 241.689
L152.352 277.615
L152.798 259.352
L153.245 258.663
L153.691 261.215
L154.138 261.934
L154.584 229.373
L155.03 287.868
L155.477 259.762
L155.923 224.173
L156.37 296.473
L156.816 255.861
L157.262 262.342
L157.709 257.201
L158.155 248.481
L158.602 256.585
L159.048 258.341
L159.494 259.142
L159.941 260.445
L160.834 255.948
L161.28 265.937
L161.726 260.661
L162.173 228.018
L162.619 287.973
L163.066 262.476
L163.512 217.727
L163.958 297.278
L164.405 259.032
L164.851 270.788
L165.744 245.095
L166.19 257.042
L166.637 260.732
L167.083 257.586
L167.53 263.453
L167.976 257.36
L168.422 255.826
L168.869 266.457
L169.315 257.969
L169.762 225.997
L170.208 292.017
L170.654 260.961
L171.101 217.544
L171.547 297.934
L171.994 262.012
L172.44 258.62
L172.886 260.323
L173.333 249.559
L174.226 262.487
L174.672 236.346
L175.118 275.134
L175.565 258.003
L176.011 251.122
L176.458 271.193
L176.904 260.722
L177.35 229.532
L177.797 290.431
L178.243 259.175
L178.69 217.889
L179.136 299.498
L179.582 261.979
L180.029 260.449
L180.475 257.685
L180.922 241.964
L181.368 260.963
L181.814 254.353
L182.261 262.193
L182.707 259.324
L183.154 261.768
L183.6 257.516
L184.046 258.948
L184.493 259.216
L184.939 262.449
L185.386 257.928
L186.278 259.334
L186.725 264.274
L187.171 256.835
L187.618 257.685
L188.064 256.629
L188.51 254.797
L188.957 259.337
L189.403 260.755
L189.85 257.714
L190.296 256.485
L190.742 260.366
L191.189 249.949
L191.635 268.096
L192.082 256.438
L192.528 255.985
L192.974 260.311
L193.421 257.913
L193.867 258.406
L194.314 262.906
L194.76 258.663
L195.206 259.935
L195.653 256.536
L196.099 258.641
L196.546 259.264
L196.992 259.115
L197.438 235.197
L197.885 272.741
L198.331 262.376
L198.778 260.044
L199.224 262.171
L199.67 257.88
L200.117 233.92
L200.563 290.719
L201.01 260.344
L201.456 218.613
L201.902 298.871
L202.349 259.067
L203.242 256.399
L203.688 253.708
L204.134 261.251
L205.027 254.841
L205.474 261.017
L205.92 262.031
L206.366 246.815
L206.813 269.266
L207.259 258.138
L207.706 231.682
L208.152 288.224
L208.598 249.527
L209.045 221.82
L209.491 296.544
L209.938 259.936
L210.384 255.562
L210.83 259.947
L211.277 251.619
L211.723 260.272
L212.17 256.917
L212.616 255.63
L213.062 264.379
L213.509 259.342
L214.402 257.727
L214.848 262.047
L215.294 233.549
L215.741 287.579
L216.634 218.933
L217.08 300.935
L217.526 257.676
L217.973 258.306
L218.419 263.466
L218.866 250.285
L219.312 257.667
L219.758 259.888
L220.205 236.24
L220.651 277.94
L221.098 261.132
L221.544 254.354
L221.99 260.512
L222.437 263.169
L222.883 253.041
L223.33 264.259
L223.776 255.548
L224.222 262.518
L224.669 258.522
L225.115 258.906
L225.562 218.997
L226.008 303.741
L226.454 249.157
L226.901 258.065
L227.347 254.755
L227.794 265.637
L228.24 258.277
L228.686 254.425
L229.133 264.5
L229.579 261.294
L230.026 227.919
L230.472 286.673
L230.918 262.621
L231.365 219.718
L231.811 295.406
L232.258 251.784
L232.704 259.396
L233.15 258.013
L233.597 249.937
L234.043 250.562
L234.49 255.057
L234.936 253.166
L235.382 254.687
L235.829 259.592
L236.275 256.744
L236.722 246.192
L237.168 271.416
L237.614 255.749
L238.061 226.287
L238.507 286.566
L238.954 260.5
L239.4 211.482
L239.846 295.626
L240.293 258.958
L240.739 257.539
L241.186 243.954
L241.632 256.429
L242.078 260.019
L242.525 252.457
L242.971 258.5
L243.418 259.383
L243.864 217.577
L244.31 289.872
L245.203 227.405
L245.65 290.032
L246.542 213.289
L246.989 297.731
L247.435 259.207
L247.882 256.216
L248.328 254.601
L248.774 349.251
L249.221 256.426
L249.667 245.319
L250.114 266.793
L250.56 260.339
L251.006 233.857
L251.453 276.336
L251.899 257.341
L252.346 231.815
L252.792 280.956
L253.685 222.516
L254.131 292.715
L254.578 257.167
L255.024 254.33
L255.47 249.821
L255.917 257.094
L256.363 252.424
L256.81 256.515
L257.256 263.131
L257.702 256.321
L258.149 242.945
L258.595 270.307
L259.042 256.033
L259.488 250.287
L259.934 257.92
L260.381 260.772
L260.827 216.585
L261.274 291.143
L261.72 256.197
L262.166 259.42
L262.613 256.348
L263.059 242.333
L263.506 252.635
L263.952 256.551
L264.398 256.355
L264.845 259.181
L265.291 254.67
L265.738 247.652
L266.184 268.341
L266.63 259.102
L267.077 194.855
L267.523 265.627
L267.97 258.58
L268.416 255.092
L268.862 253.562
L269.309 258.464
L269.755 259.09
L270.202 252.45
L270.648 257.811
L271.094 258.966
L271.541 256.776
L271.987 252.931
L272.434 259.398
L272.88 254.984
L273.326 255.7
L273.773 252.778
L274.219 259.664
L274.666 256.393
L275.112 255.655
L275.558 184.087
L276.005 296.634
L276.451 255.88
L276.898 253.162
L277.344 251.948
L277.79 255.535
L278.237 257.892
L278.683 233.305
L279.13 275.003
L279.576 255.874
L280.022 255.515
L280.469 257.405
L280.915 257.24
L281.362 256.28
L281.808 254.582
L282.254 257.555
L282.701 258.244
L283.147 256.704
L283.594 253.042
L284.04 260.377
L284.486 245.264
L285.379 259.251
L285.826 256.087
L286.272 256.305
L286.718 255.819
L287.165 220.338
L287.611 289.693
L288.058 254.127
L288.95 259.814
L289.397 251.831
L290.29 257.784
L290.736 256.914
L291.182 254.418
L291.629 253.353
L292.075 256.341
L292.522 255.986
L292.968 229.377
L293.414 274.111
L293.861 258.923
L294.307 212.953
L294.754 289.833
L295.646 231.098
L296.093 285.816
L296.986 218.831
L297.432 298.409
L297.878 255.66
L298.325 253.983
L298.771 253.738
L299.218 348.943
L299.664 255.166
L300.11 242.4
L300.557 270.69
L301.45 237.91
L301.896 272.806
L302.342 257.851
L302.789 230.946
L303.235 280.142
L304.128 226.695
L304.574 289.657
L305.021 254.775
L305.467 258.661
L305.914 252.688
L306.36 253.141
L306.806 256.807
L307.253 236.762
L307.699 271.114
L308.146 254.081
L308.592 244.252
L309.038 269.452
L309.485 255.464
L309.931 246.214
L310.378 264.026
L310.824 253.846
L311.27 215.3
L311.717 297.645
L312.163 259.662
L312.61 255.873
L313.056 254.975
L313.502 257.551
L313.949 255.127
L314.395 253.859
L314.842 258.184
L315.288 259.422
L315.734 242.823
L316.181 266.801
L316.627 256.572
L317.074 251.282
L317.52 261.692
L317.966 251.957
L318.413 180.914
L318.859 299.112
L319.306 257.422
L319.752 254.276
L320.198 252.269
L320.645 252.634
L321.091 255.197
L321.538 234.375
L321.984 271.33
L322.877 245.57
L323.323 267.21
L323.77 260.085
L324.216 256.272
L324.662 256.163
L325.555 258.161
L326.002 257.629
L326.448 254.326
L326.894 259.631
L327.341 246.443
L328.234 259.586
L328.68 257.697
L329.126 256.455
L329.573 253.622
L330.019 220.708
L330.466 290.37
L331.358 226.248
L331.805 289.118
L332.251 256.954
L332.698 216.477
L333.144 295.006
L333.59 260.026
L334.037 255.809
L334.483 151.591
L334.93 312.192
L335.376 258.228
L335.822 255.055
L336.269 253.776
L336.715 258.197
L337.162 255.904
L337.608 255.856
L338.054 256.255
L338.501 258.863
L339.394 253.839
L339.84 183.38
L340.286 297.063
L340.733 256.297
L341.179 254.763
L341.626 250.17
L342.072 253.609
L342.518 256.012
L342.965 234.4
L343.411 273.815
L343.858 253.429
L344.304 214.063
L344.75 291.174
L345.643 232.393
L346.09 279.782
L346.982 227.395
L347.429 287.764
L347.875 255.141
L348.322 259.83
L348.768 259.408
L349.214 253.06
L349.661 257.419
L350.107 258.986
L350.554 252.781
L351 253.946
L351.446 218.815
L351.893 292.783
L352.786 224.443
L353.232 290.009
L354.125 218.899
L354.571 292.523
L355.018 261.24
L355.464 256.051
L355.91 252.909
L356.357 245.882
L356.803 259.839
L357.25 255.607
L357.696 254.116
L358.142 257.983
L358.589 258.89
L359.035 255.731
L359.482 255.67
L359.928 259.271
L360.374 258.017
L360.821 253.277
L361.267 254.618
L361.714 260.176
L362.16 255.972
L362.606 254.988
L363.053 255.461
L363.499 258.278
L363.946 259.553
L364.392 256.7
L364.838 255.292
L365.285 257.722
L365.731 258.995
L366.178 253.46
L366.624 253.954
L367.07 257.548
L367.517 191.286
L367.963 263.741
L368.41 253.92
L368.856 258.269
L369.302 260.136
L369.749 255.275
L370.195 253.624
L370.642 253.215
L371.088 248.043
L371.534 255.44
L371.981 254.535
L372.427 254.323
L372.874 255.298
L373.32 259.187
L373.766 257.792
L374.213 257.55
L374.659 253.786
L375.106 260.101
L375.552 254.996
L375.998 256.312
L376.445 255.116
L376.891 259.837
L377.338 254.621
L377.784 256.093
L378.23 255.908
L378.677 256.552
L379.123 235.298
L379.57 271.733
L380.016 251.907
L380.462 259.078
L380.909 252.595
L381.355 256.324
L381.802 255.095
L382.248 258.329
L382.694 255.096
L383.141 256.03
L383.587 256.13
L384.034 258.945
L384.926 249.405
L385.819 260.33
L386.266 253.353
L386.712 254.925
L387.158 259.232
L387.605 259.1
L388.051 257.186
L388.498 253.944
L388.944 258.324
L389.39 256.037
L389.837 255.821
L390.283 185.662
L390.73 287.678
L391.176 257.066
L391.622 258.778
L392.069 249.074
L392.515 258.066
L392.962 256.256
L393.408 231.992
L393.854 273.586
L394.301 260.304
L394.747 254.514
L395.194 254.688
L395.64 260.447
L396.533 251.735
L396.979 254.839
L397.426 187.815
L397.872 287.948
L398.318 255.878
L398.765 255.99
L399.211 254.863
L399.658 254.211
L400.104 256.185
L400.55 237.457
L400.997 270.452
L401.443 255.822
L401.89 246.074
L402.336 268.044
L402.782 255.805
L403.229 252.017
L403.675 256.251
L404.122 258.615
L404.568 256.646
L405.014 253.665
L405.461 258.71
L405.907 255.42
L406.354 253.679
L407.246 259.109
L407.693 255.153
L408.139 253.75
L408.586 258.029
L409.032 254.84
L409.478 254.501
L409.925 253.584
L410.371 259.137
L410.818 254.209
L411.264 256.438
L411.71 256.16
L412.157 258.286
L412.603 255.558
L413.05 251.028
L413.496 257.773
L413.942 255.13
L414.389 253.828
L414.835 253.984
L415.282 259.254
L415.728 254.195
L416.174 212.288
L416.621 287.553
L417.067 257.742
L417.514 259.276
L417.96 254.441
L418.406 254.903
L418.853 218.336
L419.299 299.345
L419.746 255.489
L420.192 252.937
L420.638 258.415
L421.085 346.603
L421.531 254.21
L421.978 255.54
L422.424 261.481
L422.87 255.387
L423.317 212.103
L423.763 291.377
L424.656 228.644
L425.102 279.369
L425.549 259.828
L425.995 259.681
L426.442 255.402
L426.888 254.027
L427.334 259.078
L427.781 248.855
L428.674 256.444
L429.12 258.46
L429.566 253.94
L430.013 254.309
L430.459 218.071
L430.906 290.983
L431.798 226.021
L432.245 285.872
L432.691 253.087
L433.138 254.604
L433.584 259.127
L434.03 258.302
L434.477 255.569
L435.37 256.619
L435.816 256.246
L436.262 231.832
L436.709 273.143
L437.155 257.595
L437.602 256.175
L438.048 254.196
L438.494 259.54
L438.941 257.036
L439.387 255.303
L439.834 254.263
L440.28 188.02
L440.726 291.812
L441.173 254.864
L441.619 255.713
L442.066 258.627
L442.512 252.408
L442.958 256.867
L443.405 256.591
L443.851 259.543
L444.744 252.796
L445.19 257.704
L445.637 258.546
L446.083 255.982
L446.53 250.181
L446.976 260.858
L447.422 256.204
L447.869 256.28
L448.315 255.615
L448.762 259.209
L449.208 253.864
L449.654 250.401
L450.101 256.021
L450.547 259.876
L450.994 256.191
L451.44 254.69
L451.886 258.966
L452.779 254.535
L453.226 255.043
L453.672 259.549
L454.118 256.344
L454.565 257.538
L455.011 256.198
L455.458 260.8
L455.904 255.293
L456.35 254.493
L456.797 251.629
L457.69 258.362
L458.136 256.922
L458.582 254.115
L459.029 258.328
L459.475 259.316
L459.922 255.754
L460.368 254.491
L460.814 258.724
L461.261 257.34
L461.707 256.825
L462.154 253.717
L462.6 261.903
L463.046 256.246
L463.493 255.548
L463.939 253.135
L464.386 347.376
L464.832 254.353
L465.278 251.965
L465.725 252.969
L466.171 258.588
L466.618 210.653
L467.064 286.564
L467.957 230.1
L468.403 280.691
L468.85 250.034
L469.296 257.837
L469.742 252.108
L470.189 254.852
L470.635 251.656
L471.082 253.419
L471.528 252.539
L471.974 250.829
L472.421 255.743
L472.867 253.595
L473.314 253.907
L473.76 208.51
L474.206 290.839
L474.653 253.487
L475.099 248.945
L475.546 255.88
L475.992 258.297
L476.438 253.165
L476.885 253.245
L477.331 258.374
L477.778 251.547
L478.224 248.026
L478.67 256.233
L479.117 254.56
L479.563 251.374
L480.01 252.53
L480.456 258.336
L480.902 210.748
L481.349 286.637
L482.242 227.734
L482.688 281.475
L483.581 217.145
L484.027 295.975
L484.474 254.196
L484.92 248.613
L485.366 252.294
L486.259 251.74
L486.706 253.828
L487.152 259.056
L487.598 253.962
L488.045 242.207
L488.491 271.347
L488.938 252.957
L489.384 189.947
L489.83 263.427
L490.277 258.321
L490.723 210.914
L491.17 286.893
L491.616 255.439
L492.062 256.072
L492.509 247.657
L492.955 250.397
L493.402 256.02
L493.848 257.738
L494.294 246.44
L495.187 256.951
L495.634 252.286
L496.08 254.583
L496.526 252.351
L496.973 258.481
L497.419 252.815
L497.866 252.114
L498.312 255.081
L498.758 254.891
L499.205 253.566
L499.651 245.601
L500.098 258.166
L500.544 251.466
L500.99 251.68
L501.437 257.982
L501.883 258.129
L502.33 209.458
L502.776 289.268
L503.669 222.674
L504.115 284.562
L505.008 217.823
L505.454 292.917
L505.901 251.515
L506.347 256.421
L506.794 252.239
L507.24 252.526
L507.686 254.555
L508.133 257.36
L508.579 251.18
L509.026 252.007
L509.918 256.481
L510.365 253.622
L510.811 251.825
L511.258 258.832
L511.704 253.577
L512.15 177.888
L512.597 287.875
L513.043 258.328
L513.49 253.459
L513.936 246.2
L514.382 243.751
L514.829 234.991
L515.275 271.096
L515.722 255.031
L516.168 209.621
L516.614 287.923
L517.061 253.78
L517.507 231.086
L517.954 276.541
L517.954 276.541" style="fill:none;opacity:0.5;stroke:#0000ff;"/>
   </g>
   <g id="matplotlib.axis_1">
    <g id="xtick_1">
     <g id="line2d_4">
      <path clip-path="url(#p7ff5b81e1d)" d="
M72 388.8
L72 43.2" style="fill:none;stroke:#000000;stroke-dasharray:1.000000,3.000000;stroke-dashoffset:0.0;stroke-linecap:butt;stroke-width:0.5;"/>
     </g>
     <g id="line2d_5">
      <defs>
       <path d="
M0 0
L0 -4" id="m0012dd4eef" style="stroke:#000000;stroke-linecap:butt;stroke-width:0.5;"/>
      </defs>
      <g>
       <use style="stroke:#000000;stroke-linecap:butt;stroke-width:0.5;" x="72.0" xlink:href="#m0012dd4eef" y="388.8"/>
      </g>
     </g>
     <g id="line2d_6">
      <defs>
       <path d="
M0 0
L0 4" id="m476344969c" style="stroke:#000000;stroke-linecap:butt;stroke-width:0.5;"/>
      </defs>
      <g>
       <use style="stroke:#000000;stroke-linecap:butt;stroke-width:0.5;" x="72.0" xlink:href="#m476344969c" y="43.2"/>
      </g>
     </g>
     <g id="text_1">
      <!-- 0 -->
      <defs>
       <path d="
M31.7812 66.4062
Q24.1719 66.4062 20.3281 58.9062
Q16.5 51.4219 16.5 36.375
Q16.5 21.3906 20.3281 13.8906
Q24.1719 6.39062 31.7812 6.39062
Q39.4531 6.39062 43.2812 13.8906
Q47.125 21.3906 47.125 36.375
Q47.125 51.4219 43.2812 58.9062
Q39.4531 66.4062 31.7812 66.4062
M31.7812 74.2188
Q44.0469 74.2188 50.5156 64.5156
Q56.9844 54.8281 56.9844 36.375
Q56.9844 17.9688 50.5156 8.26562
Q44.0469 -1.42188 31.7812 -1.42188
Q19.5312 -1.42188 13.0625 8.26562
Q6.59375 17.9688 6.59375 36.375
Q6.59375 54.8281 13.0625 64.5156
Q19.5312 74.2188 31.7812 74.2188" id="BitstreamVeraSans-Roman-30"/>
      </defs>
      <g transform="translate(68.9765625 401.70625)scale(0.12 -0.12)">
       <use xlink:href="#BitstreamVeraSans-Roman-30"/>
      </g>
     </g>
    </g>
    <g id="xtick_2">
     <g id="line2d_7">
      <path clip-path="url(#p7ff5b81e1d)" d="
M116.64 388.8
L116.64 43.2" style="fill:none;stroke:#000000;stroke-dasharray:1.000000,3.000000;stroke-dashoffset:0.0;stroke-linecap:butt;stroke-width:0.5;"/>
     </g>
     <g id="line2d_8">
      <g>
       <use style="stroke:#000000;stroke-linecap:butt;stroke-width:0.5;" x="116.64" xlink:href="#m0012dd4eef" y="388.8"/>
      </g>
     </g>
     <g id="line2d_9">
      <g>
       <use style="stroke:#000000;stroke-linecap:butt;stroke-width:0.5;" x="116.64" xlink:href="#m476344969c" y="43.2"/>
      </g>
     </g>
     <g id="text_2">
      <!-- 100 -->
      <defs>
       <path d="
M12.4062 8.29688
L28.5156 8.29688
L28.5156 63.9219
L10.9844 60.4062
L10.9844 69.3906
L28.4219 72.9062
L38.2812 72.9062
L38.2812 8.29688
L54.3906 8.29688
L54.3906 0
L12.4062 0
z
" id="BitstreamVeraSans-Roman-31"/>
      </defs>
      <g transform="translate(106.245 401.70625)scale(0.12 -0.12)">
       <use xlink:href="#BitstreamVeraSans-Roman-31"/>
       <use x="63.623046875" xlink:href="#BitstreamVeraSans-Roman-30"/>
       <use x="127.24609375" xlink:href="#BitstreamVeraSans-Roman-30"/>
      </g>
     </g>
    </g>
    <g id="xtick_3">
     <g id="line2d_10">
      <path clip-path="url(#p7ff5b81e1d)" d="
M161.28 388.8
L161.28 43.2" style="fill:none;stroke:#000000;stroke-dasharray:1.000000,3.000000;stroke-dashoffset:0.0;stroke-linecap:butt;stroke-width:0.5;"/>
     </g>
     <g id="line2d_11">
      <g>
       <use style="stroke:#000000;stroke-linecap:butt;stroke-width:0.5;" x="161.28" xlink:href="#m0012dd4eef" y="388.8"/>
      </g>
     </g>
     <g id="line2d_12">
      <g>
       <use style="stroke:#000000;stroke-linecap:butt;stroke-width:0.5;" x="161.28" xlink:href="#m476344969c" y="43.2"/>
      </g>
     </g>
     <g id="text_3">
      <!-- 200 -->
      <defs>
       <path d="
M19.1875 8.29688
L53.6094 8.29688
L53.6094 0
L7.32812 0
L7.32812 8.29688
Q12.9375 14.1094 22.625 23.8906
Q32.3281 33.6875 34.8125 36.5312
Q39.5469 41.8438 41.4219 45.5312
Q43.3125 49.2188 43.3125 52.7812
Q43.3125 58.5938 39.2344 62.25
Q35.1562 65.9219 28.6094 65.9219
Q23.9688 65.9219 18.8125 64.3125
Q13.6719 62.7031 7.8125 59.4219
L7.8125 69.3906
Q13.7656 71.7812 18.9375 73
Q24.125 74.2188 28.4219 74.2188
Q39.75 74.2188 46.4844 68.5469
Q53.2188 62.8906 53.2188 53.4219
Q53.2188 48.9219 51.5312 44.8906
Q49.8594 40.875 45.4062 35.4062
Q44.1875 33.9844 37.6406 27.2188
Q31.1094 20.4531 19.1875 8.29688" id="BitstreamVeraSans-Roman-32"/>
      </defs>
      <g transform="translate(150.665625 401.70625)scale(0.12 -0.12)">
       <use xlink:href="#BitstreamVeraSans-Roman-32"/>
       <use x="63.623046875" xlink:href="#BitstreamVeraSans-Roman-30"/>
       <use x="127.24609375" xlink:href="#BitstreamVeraSans-Roman-30"/>
      </g>
     </g>
    </g>
    <g id="xtick_4">
     <g id="line2d_13">
      <path clip-path="url(#p7ff5b81e1d)" d="
M205.92 388.8
L205.92 43.2" style="fill:none;stroke:#000000;stroke-dasharray:1.000000,3.000000;stroke-dashoffset:0.0;stroke-linecap:butt;stroke-width:0.5;"/>
     </g>
     <g id="line2d_14">
      <g>
       <use style="stroke:#000000;stroke-linecap:butt;stroke-width:0.5;" x="205.92" xlink:href="#m0012dd4eef" y="388.8"/>
      </g>
     </g>
     <g id="line2d_15">
      <g>
       <use style="stroke:#000000;stroke-linecap:butt;stroke-width:0.5;" x="205.92" xlink:href="#m476344969c" y="43.2"/>
      </g>
     </g>
     <g id="text_4">
      <!-- 300 -->
      <defs>
       <path d="
M40.5781 39.3125
Q47.6562 37.7969 51.625 33
Q55.6094 28.2188 55.6094 21.1875
Q55.6094 10.4062 48.1875 4.48438
Q40.7656 -1.42188 27.0938 -1.42188
Q22.5156 -1.42188 17.6562 -0.515625
Q12.7969 0.390625 7.625 2.20312
L7.625 11.7188
Q11.7188 9.32812 16.5938 8.10938
Q21.4844 6.89062 26.8125 6.89062
Q36.0781 6.89062 40.9375 10.5469
Q45.7969 14.2031 45.7969 21.1875
Q45.7969 27.6406 41.2812 31.2656
Q36.7656 34.9062 28.7188 34.9062
L20.2188 34.9062
L20.2188 43.0156
L29.1094 43.0156
Q36.375 43.0156 40.2344 45.9219
Q44.0938 48.8281 44.0938 54.2969
Q44.0938 59.9062 40.1094 62.9062
Q36.1406 65.9219 28.7188 65.9219
Q24.6562 65.9219 20.0156 65.0312
Q15.375 64.1562 9.8125 62.3125
L9.8125 71.0938
Q15.4375 72.6562 20.3438 73.4375
Q25.25 74.2188 29.5938 74.2188
Q40.8281 74.2188 47.3594 69.1094
Q53.9062 64.0156 53.9062 55.3281
Q53.9062 49.2656 50.4375 45.0938
Q46.9688 40.9219 40.5781 39.3125" id="BitstreamVeraSans-Roman-33"/>
      </defs>
      <g transform="translate(195.3234375 401.70625)scale(0.12 -0.12)">
       <use xlink:href="#BitstreamVeraSans-Roman-33"/>
       <use x="63.623046875" xlink:href="#BitstreamVeraSans-Roman-30"/>
       <use x="127.24609375" xlink:href="#BitstreamVeraSans-Roman-30"/>
      </g>
     </g>
    </g>
    <g id="xtick_5">
     <g id="line2d_16">
      <path clip-path="url(#p7ff5b81e1d)" d="
M250.56 388.8
L250.56 43.2" style="fill:none;stroke:#000000;stroke-dasharray:1.000000,3.000000;stroke-dashoffset:0.0;stroke-linecap:butt;stroke-width:0.5;"/>
     </g>
     <g id="line2d_17">
      <g>
       <use style="stroke:#000000;stroke-linecap:butt;stroke-width:0.5;" x="250.56" xlink:href="#m0012dd4eef" y="388.8"/>
      </g>
     </g>
     <g id="line2d_18">
      <g>
       <use style="stroke:#000000;stroke-linecap:butt;stroke-width:0.5;" x="250.56" xlink:href="#m476344969c" y="43.2"/>
      </g>
     </g>
     <g id="text_5">
      <!-- 400 -->
      <defs>
       <path d="
M37.7969 64.3125
L12.8906 25.3906
L37.7969 25.3906
z

M35.2031 72.9062
L47.6094 72.9062
L47.6094 25.3906
L58.0156 25.3906
L58.0156 17.1875
L47.6094 17.1875
L47.6094 0
L37.7969 0
L37.7969 17.1875
L4.89062 17.1875
L4.89062 26.7031
z
" id="BitstreamVeraSans-Roman-34"/>
      </defs>
      <g transform="translate(239.799375 401.70625)scale(0.12 -0.12)">
       <use xlink:href="#BitstreamVeraSans-Roman-34"/>
       <use x="63.623046875" xlink:href="#BitstreamVeraSans-Roman-30"/>
       <use x="127.24609375" xlink:href="#BitstreamVeraSans-Roman-30"/>
      </g>
     </g>
    </g>
    <g id="xtick_6">
     <g id="line2d_19">
      <path clip-path="url(#p7ff5b81e1d)" d="
M295.2 388.8
L295.2 43.2" style="fill:none;stroke:#000000;stroke-dasharray:1.000000,3.000000;stroke-dashoffset:0.0;stroke-linecap:butt;stroke-width:0.5;"/>
     </g>
     <g id="line2d_20">
      <g>
       <use style="stroke:#000000;stroke-linecap:butt;stroke-width:0.5;" x="295.2" xlink:href="#m0012dd4eef" y="388.8"/>
      </g>
     </g>
     <g id="line2d_21">
      <g>
       <use style="stroke:#000000;stroke-linecap:butt;stroke-width:0.5;" x="295.2" xlink:href="#m476344969c" y="43.2"/>
      </g>
     </g>
     <g id="text_6">
      <!-- 500 -->
      <defs>
       <path d="
M10.7969 72.9062
L49.5156 72.9062
L49.5156 64.5938
L19.8281 64.5938
L19.8281 46.7344
Q21.9688 47.4688 24.1094 47.8281
Q26.2656 48.1875 28.4219 48.1875
Q40.625 48.1875 47.75 41.5
Q54.8906 34.8125 54.8906 23.3906
Q54.8906 11.625 47.5625 5.09375
Q40.2344 -1.42188 26.9062 -1.42188
Q22.3125 -1.42188 17.5469 -0.640625
Q12.7969 0.140625 7.71875 1.70312
L7.71875 11.625
Q12.1094 9.23438 16.7969 8.0625
Q21.4844 6.89062 26.7031 6.89062
Q35.1562 6.89062 40.0781 11.3281
Q45.0156 15.7656 45.0156 23.3906
Q45.0156 31 40.0781 35.4375
Q35.1562 39.8906 26.7031 39.8906
Q22.75 39.8906 18.8125 39.0156
Q14.8906 38.1406 10.7969 36.2812
z
" id="BitstreamVeraSans-Roman-35"/>
      </defs>
      <g transform="translate(284.6090625 401.70625)scale(0.12 -0.12)">
       <use xlink:href="#BitstreamVeraSans-Roman-35"/>
       <use x="63.623046875" xlink:href="#BitstreamVeraSans-Roman-30"/>
       <use x="127.24609375" xlink:href="#BitstreamVeraSans-Roman-30"/>
      </g>
     </g>
    </g>
    <g id="xtick_7">
     <g id="line2d_22">
      <path clip-path="url(#p7ff5b81e1d)" d="
M339.84 388.8
L339.84 43.2" style="fill:none;stroke:#000000;stroke-dasharray:1.000000,3.000000;stroke-dashoffset:0.0;stroke-linecap:butt;stroke-width:0.5;"/>
     </g>
     <g id="line2d_23">
      <g>
       <use style="stroke:#000000;stroke-linecap:butt;stroke-width:0.5;" x="339.84" xlink:href="#m0012dd4eef" y="388.8"/>
      </g>
     </g>
     <g id="line2d_24">
      <g>
       <use style="stroke:#000000;stroke-linecap:butt;stroke-width:0.5;" x="339.84" xlink:href="#m476344969c" y="43.2"/>
      </g>
     </g>
     <g id="text_7">
      <!-- 600 -->
      <defs>
       <path d="
M33.0156 40.375
Q26.375 40.375 22.4844 35.8281
Q18.6094 31.2969 18.6094 23.3906
Q18.6094 15.5312 22.4844 10.9531
Q26.375 6.39062 33.0156 6.39062
Q39.6562 6.39062 43.5312 10.9531
Q47.4062 15.5312 47.4062 23.3906
Q47.4062 31.2969 43.5312 35.8281
Q39.6562 40.375 33.0156 40.375
M52.5938 71.2969
L52.5938 62.3125
Q48.875 64.0625 45.0938 64.9844
Q41.3125 65.9219 37.5938 65.9219
Q27.8281 65.9219 22.6719 59.3281
Q17.5312 52.7344 16.7969 39.4062
Q19.6719 43.6562 24.0156 45.9219
Q28.375 48.1875 33.5938 48.1875
Q44.5781 48.1875 50.9531 41.5156
Q57.3281 34.8594 57.3281 23.3906
Q57.3281 12.1562 50.6875 5.35938
Q44.0469 -1.42188 33.0156 -1.42188
Q20.3594 -1.42188 13.6719 8.26562
Q6.98438 17.9688 6.98438 36.375
Q6.98438 53.6562 15.1875 63.9375
Q23.3906 74.2188 37.2031 74.2188
Q40.9219 74.2188 44.7031 73.4844
Q48.4844 72.75 52.5938 71.2969" id="BitstreamVeraSans-Roman-36"/>
      </defs>
      <g transform="translate(329.205 401.70625)scale(0.12 -0.12)">
       <use xlink:href="#BitstreamVeraSans-Roman-36"/>
       <use x="63.623046875" xlink:href="#BitstreamVeraSans-Roman-30"/>
       <use x="127.24609375" xlink:href="#BitstreamVeraSans-Roman-30"/>
      </g>
     </g>
    </g>
    <g id="xtick_8">
     <g id="line2d_25">
      <path clip-path="url(#p7ff5b81e1d)" d="
M384.48 388.8
L384.48 43.2" style="fill:none;stroke:#000000;stroke-dasharray:1.000000,3.000000;stroke-dashoffset:0.0;stroke-linecap:butt;stroke-width:0.5;"/>
     </g>
     <g id="line2d_26">
      <g>
       <use style="stroke:#000000;stroke-linecap:butt;stroke-width:0.5;" x="384.48" xlink:href="#m0012dd4eef" y="388.8"/>
      </g>
     </g>
     <g id="line2d_27">
      <g>
       <use style="stroke:#000000;stroke-linecap:butt;stroke-width:0.5;" x="384.48" xlink:href="#m476344969c" y="43.2"/>
      </g>
     </g>
     <g id="text_8">
      <!-- 700 -->
      <defs>
       <path d="
M8.20312 72.9062
L55.0781 72.9062
L55.0781 68.7031
L28.6094 0
L18.3125 0
L43.2188 64.5938
L8.20312 64.5938
z
" id="BitstreamVeraSans-Roman-37"/>
      </defs>
      <g transform="translate(373.918125 401.70625)scale(0.12 -0.12)">
       <use xlink:href="#BitstreamVeraSans-Roman-37"/>
       <use x="63.623046875" xlink:href="#BitstreamVeraSans-Roman-30"/>
       <use x="127.24609375" xlink:href="#BitstreamVeraSans-Roman-30"/>
      </g>
     </g>
    </g>
    <g id="xtick_9">
     <g id="line2d_28">
      <path clip-path="url(#p7ff5b81e1d)" d="
M429.12 388.8
L429.12 43.2" style="fill:none;stroke:#000000;stroke-dasharray:1.000000,3.000000;stroke-dashoffset:0.0;stroke-linecap:butt;stroke-width:0.5;"/>
     </g>
     <g id="line2d_29">
      <g>
       <use style="stroke:#000000;stroke-linecap:butt;stroke-width:0.5;" x="429.12" xlink:href="#m0012dd4eef" y="388.8"/>
      </g>
     </g>
     <g id="line2d_30">
      <g>
       <use style="stroke:#000000;stroke-linecap:butt;stroke-width:0.5;" x="429.12" xlink:href="#m476344969c" y="43.2"/>
      </g>
     </g>
     <g id="text_9">
      <!-- 800 -->
      <defs>
       <path d="
M31.7812 34.625
Q24.75 34.625 20.7188 30.8594
Q16.7031 27.0938 16.7031 20.5156
Q16.7031 13.9219 20.7188 10.1562
Q24.75 6.39062 31.7812 6.39062
Q38.8125 6.39062 42.8594 10.1719
Q46.9219 13.9688 46.9219 20.5156
Q46.9219 27.0938 42.8906 30.8594
Q38.875 34.625 31.7812 34.625
M21.9219 38.8125
Q15.5781 40.375 12.0312 44.7188
Q8.5 49.0781 8.5 55.3281
Q8.5 64.0625 14.7188 69.1406
Q20.9531 74.2188 31.7812 74.2188
Q42.6719 74.2188 48.875 69.1406
Q55.0781 64.0625 55.0781 55.3281
Q55.0781 49.0781 51.5312 44.7188
Q48 40.375 41.7031 38.8125
Q48.8281 37.1562 52.7969 32.3125
Q56.7812 27.4844 56.7812 20.5156
Q56.7812 9.90625 50.3125 4.23438
Q43.8438 -1.42188 31.7812 -1.42188
Q19.7344 -1.42188 13.25 4.23438
Q6.78125 9.90625 6.78125 20.5156
Q6.78125 27.4844 10.7812 32.3125
Q14.7969 37.1562 21.9219 38.8125
M18.3125 54.3906
Q18.3125 48.7344 21.8438 45.5625
Q25.3906 42.3906 31.7812 42.3906
Q38.1406 42.3906 41.7188 45.5625
Q45.3125 48.7344 45.3125 54.3906
Q45.3125 60.0625 41.7188 63.2344
Q38.1406 66.4062 31.7812 66.4062
Q25.3906 66.4062 21.8438 63.2344
Q18.3125 60.0625 18.3125 54.3906" id="BitstreamVeraSans-Roman-38"/>
      </defs>
      <g transform="translate(418.4728125 401.70625)scale(0.12 -0.12)">
       <use xlink:href="#BitstreamVeraSans-Roman-38"/>
       <use x="63.623046875" xlink:href="#BitstreamVeraSans-Roman-30"/>
       <use x="127.24609375" xlink:href="#BitstreamVeraSans-Roman-30"/>
      </g>
     </g>
    </g>
    <g id="xtick_10">
     <g id="line2d_31">
      <path clip-path="url(#p7ff5b81e1d)" d="
M473.76 388.8
L473.76 43.2" style="fill:none;stroke:#000000;stroke-dasharray:1.000000,3.000000;stroke-dashoffset:0.0;stroke-linecap:butt;stroke-width:0.5;"/>
     </g>
     <g id="line2d_32">
      <g>
       <use style="stroke:#000000;stroke-linecap:butt;stroke-width:0.5;" x="473.76" xlink:href="#m0012dd4eef" y="388.8"/>
      </g>
     </g>
     <g id="line2d_33">
      <g>
       <use style="stroke:#000000;stroke-linecap:butt;stroke-width:0.5;" x="473.76" xlink:href="#m476344969c" y="43.2"/>
      </g>
     </g>
     <g id="text_10">
      <!-- 900 -->
      <defs>
       <path d="
M10.9844 1.51562
L10.9844 10.5
Q14.7031 8.73438 18.5 7.8125
Q22.3125 6.89062 25.9844 6.89062
Q35.75 6.89062 40.8906 13.4531
Q46.0469 20.0156 46.7812 33.4062
Q43.9531 29.2031 39.5938 26.9531
Q35.25 24.7031 29.9844 24.7031
Q19.0469 24.7031 12.6719 31.3125
Q6.29688 37.9375 6.29688 49.4219
Q6.29688 60.6406 12.9375 67.4219
Q19.5781 74.2188 30.6094 74.2188
Q43.2656 74.2188 49.9219 64.5156
Q56.5938 54.8281 56.5938 36.375
Q56.5938 19.1406 48.4062 8.85938
Q40.2344 -1.42188 26.4219 -1.42188
Q22.7031 -1.42188 18.8906 -0.6875
Q15.0938 0.046875 10.9844 1.51562
M30.6094 32.4219
Q37.25 32.4219 41.125 36.9531
Q45.0156 41.5 45.0156 49.4219
Q45.0156 57.2812 41.125 61.8438
Q37.25 66.4062 30.6094 66.4062
Q23.9688 66.4062 20.0938 61.8438
Q16.2188 57.2812 16.2188 49.4219
Q16.2188 41.5 20.0938 36.9531
Q23.9688 32.4219 30.6094 32.4219" id="BitstreamVeraSans-Roman-39"/>
      </defs>
      <g transform="translate(463.08375 401.70625)scale(0.12 -0.12)">
       <use xlink:href="#BitstreamVeraSans-Roman-39"/>
       <use x="63.623046875" xlink:href="#BitstreamVeraSans-Roman-30"/>
       <use x="127.24609375" xlink:href="#BitstreamVeraSans-Roman-30"/>
      </g>
     </g>
    </g>
   </g>
   <g id="matplotlib.axis_2">
    <g id="ytick_1">
     <g id="line2d_34">
      <path clip-path="url(#p7ff5b81e1d)" d="
M72 388.8
L518.4 388.8" style="fill:none;stroke:#000000;stroke-dasharray:1.000000,3.000000;stroke-dashoffset:0.0;stroke-linecap:butt;stroke-width:0.5;"/>
     </g>
     <g id="line2d_35">
      <defs>
       <path d="
M0 0
L4 0" id="me8a85f7bf6" style="stroke:#000000;stroke-linecap:butt;stroke-width:0.5;"/>
      </defs>
      <g>
       <use style="stroke:#000000;stroke-linecap:butt;stroke-width:0.5;" x="72.0" xlink:href="#me8a85f7bf6" y="388.8"/>
      </g>
     </g>
     <g id="line2d_36">
      <defs>
       <path d="
M0 0
L-4 0" id="m1a32005dea" style="stroke:#000000;stroke-linecap:butt;stroke-width:0.5;"/>
      </defs>
      <g>
       <use style="stroke:#000000;stroke-linecap:butt;stroke-width:0.5;" x="518.4" xlink:href="#m1a32005dea" y="388.8"/>
      </g>
     </g>
     <g id="text_11">
      <!-- 0.00 -->
      <defs>
       <path d="
M10.6875 12.4062
L21 12.4062
L21 0
L10.6875 0
z
" id="BitstreamVeraSans-Roman-2e"/>
      </defs>
      <g transform="translate(42.869375 393.1678125)scale(0.12 -0.12)">
       <use xlink:href="#BitstreamVeraSans-Roman-30"/>
       <use x="63.623046875" xlink:href="#BitstreamVeraSans-Roman-2e"/>
       <use x="95.41015625" xlink:href="#BitstreamVeraSans-Roman-30"/>
       <use x="159.033203125" xlink:href="#BitstreamVeraSans-Roman-30"/>
      </g>
     </g>
    </g>
    <g id="ytick_2">
     <g id="line2d_37">
      <path clip-path="url(#p7ff5b81e1d)" d="
M72 354.24
L518.4 354.24" style="fill:none;stroke:#000000;stroke-dasharray:1.000000,3.000000;stroke-dashoffset:0.0;stroke-linecap:butt;stroke-width:0.5;"/>
     </g>
     <g id="line2d_38">
      <g>
       <use style="stroke:#000000;stroke-linecap:butt;stroke-width:0.5;" x="72.0" xlink:href="#me8a85f7bf6" y="354.24"/>
      </g>
     </g>
     <g id="line2d_39">
      <g>
       <use style="stroke:#000000;stroke-linecap:butt;stroke-width:0.5;" x="518.4" xlink:href="#m1a32005dea" y="354.24"/>
      </g>
     </g>
     <g id="text_12">
      <!-- 0.08 -->
      <g transform="translate(42.89375 358.6078125)scale(0.12 -0.12)">
       <use xlink:href="#BitstreamVeraSans-Roman-30"/>
       <use x="63.623046875" xlink:href="#BitstreamVeraSans-Roman-2e"/>
       <use x="95.41015625" xlink:href="#BitstreamVeraSans-Roman-30"/>
       <use x="159.033203125" xlink:href="#BitstreamVeraSans-Roman-38"/>
      </g>
     </g>
    </g>
    <g id="ytick_3">
     <g id="line2d_40">
      <path clip-path="url(#p7ff5b81e1d)" d="
M72 319.68
L518.4 319.68" style="fill:none;stroke:#000000;stroke-dasharray:1.000000,3.000000;stroke-dashoffset:0.0;stroke-linecap:butt;stroke-width:0.5;"/>
     </g>
     <g id="line2d_41">
      <g>
       <use style="stroke:#000000;stroke-linecap:butt;stroke-width:0.5;" x="72.0" xlink:href="#me8a85f7bf6" y="319.68"/>
      </g>
     </g>
     <g id="line2d_42">
      <g>
       <use style="stroke:#000000;stroke-linecap:butt;stroke-width:0.5;" x="518.4" xlink:href="#m1a32005dea" y="319.68"/>
      </g>
     </g>
     <g id="text_13">
      <!-- 0.16 -->
      <g transform="translate(42.828125 324.0478125)scale(0.12 -0.12)">
       <use xlink:href="#BitstreamVeraSans-Roman-30"/>
       <use x="63.623046875" xlink:href="#BitstreamVeraSans-Roman-2e"/>
       <use x="95.41015625" xlink:href="#BitstreamVeraSans-Roman-31"/>
       <use x="159.033203125" xlink:href="#BitstreamVeraSans-Roman-36"/>
      </g>
     </g>
    </g>
    <g id="ytick_4">
     <g id="line2d_43">
      <path clip-path="url(#p7ff5b81e1d)" d="
M72 285.12
L518.4 285.12" style="fill:none;stroke:#000000;stroke-dasharray:1.000000,3.000000;stroke-dashoffset:0.0;stroke-linecap:butt;stroke-width:0.5;"/>
     </g>
     <g id="line2d_44">
      <g>
       <use style="stroke:#000000;stroke-linecap:butt;stroke-width:0.5;" x="72.0" xlink:href="#me8a85f7bf6" y="285.12"/>
      </g>
     </g>
     <g id="line2d_45">
      <g>
       <use style="stroke:#000000;stroke-linecap:butt;stroke-width:0.5;" x="518.4" xlink:href="#m1a32005dea" y="285.12"/>
      </g>
     </g>
     <g id="text_14">
      <!-- 0.24 -->
      <g transform="translate(42.745625 289.4878125)scale(0.12 -0.12)">
       <use xlink:href="#BitstreamVeraSans-Roman-30"/>
       <use x="63.623046875" xlink:href="#BitstreamVeraSans-Roman-2e"/>
       <use x="95.41015625" xlink:href="#BitstreamVeraSans-Roman-32"/>
       <use x="159.033203125" xlink:href="#BitstreamVeraSans-Roman-34"/>
      </g>
     </g>
    </g>
    <g id="ytick_5">
     <g id="line2d_46">
      <path clip-path="url(#p7ff5b81e1d)" d="
M72 250.56
L518.4 250.56" style="fill:none;stroke:#000000;stroke-dasharray:1.000000,3.000000;stroke-dashoffset:0.0;stroke-linecap:butt;stroke-width:0.5;"/>
     </g>
     <g id="line2d_47">
      <g>
       <use style="stroke:#000000;stroke-linecap:butt;stroke-width:0.5;" x="72.0" xlink:href="#me8a85f7bf6" y="250.56"/>
      </g>
     </g>
     <g id="line2d_48">
      <g>
       <use style="stroke:#000000;stroke-linecap:butt;stroke-width:0.5;" x="518.4" xlink:href="#m1a32005dea" y="250.56"/>
      </g>
     </g>
     <g id="text_15">
      <!-- 0.32 -->
      <g transform="translate(43.274375 254.9278125)scale(0.12 -0.12)">
       <use xlink:href="#BitstreamVeraSans-Roman-30"/>
       <use x="63.623046875" xlink:href="#BitstreamVeraSans-Roman-2e"/>
       <use x="95.41015625" xlink:href="#BitstreamVeraSans-Roman-33"/>
       <use x="159.033203125" xlink:href="#BitstreamVeraSans-Roman-32"/>
      </g>
     </g>
    </g>
    <g id="ytick_6">
     <g id="line2d_49">
      <path clip-path="url(#p7ff5b81e1d)" d="
M72 216
L518.4 216" style="fill:none;stroke:#000000;stroke-dasharray:1.000000,3.000000;stroke-dashoffset:0.0;stroke-linecap:butt;stroke-width:0.5;"/>
     </g>
     <g id="line2d_50">
      <g>
       <use style="stroke:#000000;stroke-linecap:butt;stroke-width:0.5;" x="72.0" xlink:href="#me8a85f7bf6" y="216.0"/>
      </g>
     </g>
     <g id="line2d_51">
      <g>
       <use style="stroke:#000000;stroke-linecap:butt;stroke-width:0.5;" x="518.4" xlink:href="#m1a32005dea" y="216.0"/>
      </g>
     </g>
     <g id="text_16">
      <!-- 0.40 -->
      <g transform="translate(42.869375 220.3678125)scale(0.12 -0.12)">
       <use xlink:href="#BitstreamVeraSans-Roman-30"/>
       <use x="63.623046875" xlink:href="#BitstreamVeraSans-Roman-2e"/>
       <use x="95.41015625" xlink:href="#BitstreamVeraSans-Roman-34"/>
       <use x="159.033203125" xlink:href="#BitstreamVeraSans-Roman-30"/>
      </g>
     </g>
    </g>
    <g id="ytick_7">
     <g id="line2d_52">
      <path clip-path="url(#p7ff5b81e1d)" d="
M72 181.44
L518.4 181.44" style="fill:none;stroke:#000000;stroke-dasharray:1.000000,3.000000;stroke-dashoffset:0.0;stroke-linecap:butt;stroke-width:0.5;"/>
     </g>
     <g id="line2d_53">
      <g>
       <use style="stroke:#000000;stroke-linecap:butt;stroke-width:0.5;" x="72.0" xlink:href="#me8a85f7bf6" y="181.44"/>
      </g>
     </g>
     <g id="line2d_54">
      <g>
       <use style="stroke:#000000;stroke-linecap:butt;stroke-width:0.5;" x="518.4" xlink:href="#m1a32005dea" y="181.44"/>
      </g>
     </g>
     <g id="text_17">
      <!-- 0.48 -->
      <g transform="translate(42.89375 185.8078125)scale(0.12 -0.12)">
       <use xlink:href="#BitstreamVeraSans-Roman-30"/>
       <use x="63.623046875" xlink:href="#BitstreamVeraSans-Roman-2e"/>
       <use x="95.41015625" xlink:href="#BitstreamVeraSans-Roman-34"/>
       <use x="159.033203125" xlink:href="#BitstreamVeraSans-Roman-38"/>
      </g>
     </g>
    </g>
    <g id="ytick_8">
     <g id="line2d_55">
      <path clip-path="url(#p7ff5b81e1d)" d="
M72 146.88
L518.4 146.88" style="fill:none;stroke:#000000;stroke-dasharray:1.000000,3.000000;stroke-dashoffset:0.0;stroke-linecap:butt;stroke-width:0.5;"/>
     </g>
     <g id="line2d_56">
      <g>
       <use style="stroke:#000000;stroke-linecap:butt;stroke-width:0.5;" x="72.0" xlink:href="#me8a85f7bf6" y="146.88"/>
      </g>
     </g>
     <g id="line2d_57">
      <g>
       <use style="stroke:#000000;stroke-linecap:butt;stroke-width:0.5;" x="518.4" xlink:href="#m1a32005dea" y="146.88"/>
      </g>
     </g>
     <g id="text_18">
      <!-- 0.56 -->
      <g transform="translate(42.828125 151.2478125)scale(0.12 -0.12)">
       <use xlink:href="#BitstreamVeraSans-Roman-30"/>
       <use x="63.623046875" xlink:href="#BitstreamVeraSans-Roman-2e"/>
       <use x="95.41015625" xlink:href="#BitstreamVeraSans-Roman-35"/>
       <use x="159.033203125" xlink:href="#BitstreamVeraSans-Roman-36"/>
      </g>
     </g>
    </g>
    <g id="ytick_9">
     <g id="line2d_58">
      <path clip-path="url(#p7ff5b81e1d)" d="
M72 112.32
L518.4 112.32" style="fill:none;stroke:#000000;stroke-dasharray:1.000000,3.000000;stroke-dashoffset:0.0;stroke-linecap:butt;stroke-width:0.5;"/>
     </g>
     <g id="line2d_59">
      <g>
       <use style="stroke:#000000;stroke-linecap:butt;stroke-width:0.5;" x="72.0" xlink:href="#me8a85f7bf6" y="112.32"/>
      </g>
     </g>
     <g id="line2d_60">
      <g>
       <use style="stroke:#000000;stroke-linecap:butt;stroke-width:0.5;" x="518.4" xlink:href="#m1a32005dea" y="112.32"/>
      </g>
     </g>
     <g id="text_19">
      <!-- 0.64 -->
      <g transform="translate(42.745625 116.6878125)scale(0.12 -0.12)">
       <use xlink:href="#BitstreamVeraSans-Roman-30"/>
       <use x="63.623046875" xlink:href="#BitstreamVeraSans-Roman-2e"/>
       <use x="95.41015625" xlink:href="#BitstreamVeraSans-Roman-36"/>
       <use x="159.033203125" xlink:href="#BitstreamVeraSans-Roman-34"/>
      </g>
     </g>
    </g>
    <g id="ytick_10">
     <g id="line2d_61">
      <path clip-path="url(#p7ff5b81e1d)" d="
M72 77.76
L518.4 77.76" style="fill:none;stroke:#000000;stroke-dasharray:1.000000,3.000000;stroke-dashoffset:0.0;stroke-linecap:butt;stroke-width:0.5;"/>
     </g>
     <g id="line2d_62">
      <g>
       <use style="stroke:#000000;stroke-linecap:butt;stroke-width:0.5;" x="72.0" xlink:href="#me8a85f7bf6" y="77.76"/>
      </g>
     </g>
     <g id="line2d_63">
      <g>
       <use style="stroke:#000000;stroke-linecap:butt;stroke-width:0.5;" x="518.4" xlink:href="#m1a32005dea" y="77.76"/>
      </g>
     </g>
     <g id="text_20">
      <!-- 0.72 -->
      <g transform="translate(43.274375 82.1278125)scale(0.12 -0.12)">
       <use xlink:href="#BitstreamVeraSans-Roman-30"/>
       <use x="63.623046875" xlink:href="#BitstreamVeraSans-Roman-2e"/>
       <use x="95.41015625" xlink:href="#BitstreamVeraSans-Roman-37"/>
       <use x="159.033203125" xlink:href="#BitstreamVeraSans-Roman-32"/>
      </g>
     </g>
    </g>
    <g id="text_21">
     <!-- Sec/file -->
     <defs>
      <path d="
M9.42188 75.9844
L18.4062 75.9844
L18.4062 0
L9.42188 0
z
" id="BitstreamVeraSans-Roman-6c"/>
      <path d="
M53.5156 70.5156
L53.5156 60.8906
Q47.9062 63.5781 42.9219 64.8906
Q37.9375 66.2188 33.2969 66.2188
Q25.25 66.2188 20.875 63.0938
Q16.5 59.9688 16.5 54.2031
Q16.5 49.3594 19.4062 46.8906
Q22.3125 44.4375 30.4219 42.9219
L36.375 41.7031
Q47.4062 39.5938 52.6562 34.2969
Q57.9062 29 57.9062 20.125
Q57.9062 9.51562 50.7969 4.04688
Q43.7031 -1.42188 29.9844 -1.42188
Q24.8125 -1.42188 18.9688 -0.25
Q13.1406 0.921875 6.89062 3.21875
L6.89062 13.375
Q12.8906 10.0156 18.6562 8.29688
Q24.4219 6.59375 29.9844 6.59375
Q38.4219 6.59375 43.0156 9.90625
Q47.6094 13.2344 47.6094 19.3906
Q47.6094 24.75 44.3125 27.7812
Q41.0156 30.8125 33.5 32.3281
L27.4844 33.5
Q16.4531 35.6875 11.5156 40.375
Q6.59375 45.0625 6.59375 53.4219
Q6.59375 63.0938 13.4062 68.6562
Q20.2188 74.2188 32.1719 74.2188
Q37.3125 74.2188 42.625 73.2812
Q47.9531 72.3594 53.5156 70.5156" id="BitstreamVeraSans-Roman-53"/>
      <path d="
M9.42188 54.6875
L18.4062 54.6875
L18.4062 0
L9.42188 0
z

M9.42188 75.9844
L18.4062 75.9844
L18.4062 64.5938
L9.42188 64.5938
z
" id="BitstreamVeraSans-Roman-69"/>
      <path d="
M25.3906 72.9062
L33.6875 72.9062
L8.29688 -9.28125
L0 -9.28125
z
" id="BitstreamVeraSans-Roman-2f"/>
      <path d="
M56.2031 29.5938
L56.2031 25.2031
L14.8906 25.2031
Q15.4844 15.9219 20.4844 11.0625
Q25.4844 6.20312 34.4219 6.20312
Q39.5938 6.20312 44.4531 7.46875
Q49.3125 8.73438 54.1094 11.2812
L54.1094 2.78125
Q49.2656 0.734375 44.1875 -0.34375
Q39.1094 -1.42188 33.8906 -1.42188
Q20.7969 -1.42188 13.1562 6.1875
Q5.51562 13.8125 5.51562 26.8125
Q5.51562 40.2344 12.7656 48.1094
Q20.0156 56 32.3281 56
Q43.3594 56 49.7812 48.8906
Q56.2031 41.7969 56.2031 29.5938
M47.2188 32.2344
Q47.125 39.5938 43.0938 43.9844
Q39.0625 48.3906 32.4219 48.3906
Q24.9062 48.3906 20.3906 44.1406
Q15.875 39.8906 15.1875 32.1719
z
" id="BitstreamVeraSans-Roman-65"/>
      <path d="
M37.1094 75.9844
L37.1094 68.5
L28.5156 68.5
Q23.6875 68.5 21.7969 66.5469
Q19.9219 64.5938 19.9219 59.5156
L19.9219 54.6875
L34.7188 54.6875
L34.7188 47.7031
L19.9219 47.7031
L19.9219 0
L10.8906 0
L10.8906 47.7031
L2.29688 47.7031
L2.29688 54.6875
L10.8906 54.6875
L10.8906 58.5
Q10.8906 67.625 15.1406 71.7969
Q19.3906 75.9844 28.6094 75.9844
z
" id="BitstreamVeraSans-Roman-66"/>
      <path d="
M48.7812 52.5938
L48.7812 44.1875
Q44.9688 46.2969 41.1406 47.3438
Q37.3125 48.3906 33.4062 48.3906
Q24.6562 48.3906 19.8125 42.8438
Q14.9844 37.3125 14.9844 27.2969
Q14.9844 17.2812 19.8125 11.7344
Q24.6562 6.20312 33.4062 6.20312
Q37.3125 6.20312 41.1406 7.25
Q44.9688 8.29688 48.7812 10.4062
L48.7812 2.09375
Q45.0156 0.34375 40.9844 -0.53125
Q36.9688 -1.42188 32.4219 -1.42188
Q20.0625 -1.42188 12.7812 6.34375
Q5.51562 14.1094 5.51562 27.2969
Q5.51562 40.6719 12.8594 48.3281
Q20.2188 56 33.0156 56
Q37.1562 56 41.1094 55.1406
Q45.0625 54.2969 48.7812 52.5938" id="BitstreamVeraSans-Roman-63"/>
     </defs>
     <g transform="translate(37.745625 236.13)rotate(-90.0)scale(0.12 -0.12)">
      <use xlink:href="#BitstreamVeraSans-Roman-53"/>
      <use x="63.4765625" xlink:href="#BitstreamVeraSans-Roman-65"/>
      <use x="125.0" xlink:href="#BitstreamVeraSans-Roman-63"/>
      <use x="179.98046875" xlink:href="#BitstreamVeraSans-Roman-2f"/>
      <use x="213.671875" xlink:href="#BitstreamVeraSans-Roman-66"/>
      <use x="248.876953125" xlink:href="#BitstreamVeraSans-Roman-69"/>
      <use x="276.66015625" xlink:href="#BitstreamVeraSans-Roman-6c"/>
      <use x="304.443359375" xlink:href="#BitstreamVeraSans-Roman-65"/>
     </g>
    </g>
   </g>
   <g id="patch_3">
    <path d="
M72 43.2
L518.4 43.2" style="fill:none;stroke:#000000;"/>
   </g>
   <g id="patch_4">
    <path d="
M518.4 388.8
L518.4 43.2" style="fill:none;stroke:#000000;"/>
   </g>
   <g id="patch_5">
    <path d="
M72 388.8
L518.4 388.8" style="fill:none;stroke:#000000;"/>
   </g>
   <g id="patch_6">
    <path d="
M72 388.8
L72 43.2" style="fill:none;stroke:#000000;"/>
   </g>
   <g id="legend_1">
    <g id="patch_7">
     <path d="
M429.055 115.339
L511.2 115.339
L511.2 50.4
L429.055 50.4
L429.055 115.339
z
" style="fill:#ffffff;stroke:#000000;"/>
    </g>
    <g id="line2d_64">
     <path d="
M439.135 62.0617
L459.295 62.0617" style="fill:none;stroke:#ff0000;"/>
    </g>
    <g id="line2d_65"/>
    <g id="text_22">
     <!-- LRU -->
     <defs>
      <path d="
M44.3906 34.1875
Q47.5625 33.1094 50.5625 29.5938
Q53.5625 26.0781 56.5938 19.9219
L66.6094 0
L56 0
L46.6875 18.7031
Q43.0625 26.0312 39.6719 28.4219
Q36.2812 30.8125 30.4219 30.8125
L19.6719 30.8125
L19.6719 0
L9.8125 0
L9.8125 72.9062
L32.0781 72.9062
Q44.5781 72.9062 50.7344 67.6719
Q56.8906 62.4531 56.8906 51.9062
Q56.8906 45.0156 53.6875 40.4688
Q50.4844 35.9375 44.3906 34.1875
M19.6719 64.7969
L19.6719 38.9219
L32.0781 38.9219
Q39.2031 38.9219 42.8438 42.2188
Q46.4844 45.5156 46.4844 51.9062
Q46.4844 58.2969 42.8438 61.5469
Q39.2031 64.7969 32.0781 64.7969
z
" id="BitstreamVeraSans-Roman-52"/>
      <path d="
M9.8125 72.9062
L19.6719 72.9062
L19.6719 8.29688
L55.1719 8.29688
L55.1719 0
L9.8125 0
z
" id="BitstreamVeraSans-Roman-4c"/>
      <path d="
M8.6875 72.9062
L18.6094 72.9062
L18.6094 28.6094
Q18.6094 16.8906 22.8438 11.7344
Q27.0938 6.59375 36.625 6.59375
Q46.0938 6.59375 50.3438 11.7344
Q54.5938 16.8906 54.5938 28.6094
L54.5938 72.9062
L64.5 72.9062
L64.5 27.3906
Q64.5 13.1406 57.4375 5.85938
Q50.3906 -1.42188 36.625 -1.42188
Q22.7969 -1.42188 15.7344 5.85938
Q8.6875 13.1406 8.6875 27.3906
z
" id="BitstreamVeraSans-Roman-55"/>
     </defs>
     <g transform="translate(475.13475 67.10175)scale(0.144 -0.144)">
      <use xlink:href="#BitstreamVeraSans-Roman-4c"/>
      <use x="55.712890625" xlink:href="#BitstreamVeraSans-Roman-52"/>
      <use x="125.1953125" xlink:href="#BitstreamVeraSans-Roman-55"/>
     </g>
    </g>
    <g id="line2d_66">
     <path d="
M439.135 83.1983
L459.295 83.1983" style="fill:none;opacity:0.7;stroke:#008000;"/>
    </g>
    <g id="line2d_67"/>
    <g id="text_23">
     <!-- MRU -->
     <defs>
      <path d="
M9.8125 72.9062
L24.5156 72.9062
L43.1094 23.2969
L61.8125 72.9062
L76.5156 72.9062
L76.5156 0
L66.8906 0
L66.8906 64.0156
L48.0938 14.0156
L38.1875 14.0156
L19.3906 64.0156
L19.3906 0
L9.8125 0
z
" id="BitstreamVeraSans-Roman-4d"/>
     </defs>
     <g transform="translate(475.13475 88.23825)scale(0.144 -0.144)">
      <use xlink:href="#BitstreamVeraSans-Roman-4d"/>
      <use x="86.279296875" xlink:href="#BitstreamVeraSans-Roman-52"/>
      <use x="155.76171875" xlink:href="#BitstreamVeraSans-Roman-55"/>
     </g>
    </g>
    <g id="line2d_68">
     <path d="
M439.135 104.335
L459.295 104.335" style="fill:none;opacity:0.5;stroke:#0000ff;"/>
    </g>
    <g id="line2d_69"/>
    <g id="text_24">
     <!-- FIFO -->
     <defs>
      <path d="
M9.8125 72.9062
L51.7031 72.9062
L51.7031 64.5938
L19.6719 64.5938
L19.6719 43.1094
L48.5781 43.1094
L48.5781 34.8125
L19.6719 34.8125
L19.6719 0
L9.8125 0
z
" id="BitstreamVeraSans-Roman-46"/>
      <path d="
M9.8125 72.9062
L19.6719 72.9062
L19.6719 0
L9.8125 0
z
" id="BitstreamVeraSans-Roman-49"/>
      <path d="
M39.4062 66.2188
Q28.6562 66.2188 22.3281 58.2031
Q16.0156 50.2031 16.0156 36.375
Q16.0156 22.6094 22.3281 14.5938
Q28.6562 6.59375 39.4062 6.59375
Q50.1406 6.59375 56.4219 14.5938
Q62.7031 22.6094 62.7031 36.375
Q62.7031 50.2031 56.4219 58.2031
Q50.1406 66.2188 39.4062 66.2188
M39.4062 74.2188
Q54.7344 74.2188 63.9062 63.9375
Q73.0938 53.6562 73.0938 36.375
Q73.0938 19.1406 63.9062 8.85938
Q54.7344 -1.42188 39.4062 -1.42188
Q24.0312 -1.42188 14.8125 8.82812
Q5.60938 19.0938 5.60938 36.375
Q5.60938 53.6562 14.8125 63.9375
Q24.0312 74.2188 39.4062 74.2188" id="BitstreamVeraSans-Roman-4f"/>
     </defs>
     <g transform="translate(475.13475 109.37475)scale(0.144 -0.144)">
      <use xlink:href="#BitstreamVeraSans-Roman-46"/>
      <use x="57.51953125" xlink:href="#BitstreamVeraSans-Roman-49"/>
      <use x="87.01171875" xlink:href="#BitstreamVeraSans-Roman-46"/>
      <use x="144.53125" xlink:href="#BitstreamVeraSans-Roman-4f"/>
     </g>
    </g>
   </g>
  </g>
 </g>
 <defs>
  <clipPath id="p7ff5b81e1d">
   <rect height="345.6" width="446.4" x="72.0" y="43.2"/>
  </clipPath>
 </defs>
</svg>
