<?xml version="1.0" encoding="utf-8" standalone="no"?>
<!DOCTYPE svg PUBLIC "-//W3C//DTD SVG 1.1//EN"
  "http://www.w3.org/Graphics/SVG/1.1/DTD/svg11.dtd">
<!-- Created with matplotlib (http://matplotlib.sourceforge.net/) -->
<svg height="432pt" version="1.1" viewBox="0 0 576 432" width="576pt" xmlns="http://www.w3.org/2000/svg" xmlns:xlink="http://www.w3.org/1999/xlink">
 <defs>
  <style type="text/css">
*{stroke-linecap:square;stroke-linejoin:round;}
  </style>
 </defs>
 <g id="figure_1">
  <g id="patch_1">
   <path d="
M0 432
L576 432
L576 0
L0 0
z
" style="fill:#ffffff;"/>
  </g>
  <g id="axes_1">
   <g id="patch_2">
    <path d="
M72 388.8
L518.4 388.8
L518.4 43.2
L72 43.2
z
" style="fill:#ffffff;"/>
   </g>
   <g id="line2d_1">
    <path clip-path="url(#p7ff5b81e1d)" d="
M72 126.823
L72.4464 144.757
L72.8928 135.067
L73.3392 139.855
L73.7856 107.78
L74.232 142.554
L74.6784 105.464
L75.1248 143.948
L75.5712 146.242
L76.0176 102.86
L76.464 147.438
L76.9104 242.569
L77.3568 241.926
L77.8032 100.258
L78.2496 238.288
L78.696 245.554
L79.1424 90.5023
L79.5888 150.781
L80.0352 154.784
L80.4816 104.962
L80.928 243.999
L81.3744 245.179
L81.8208 232.509
L82.2672 244.205
L82.7136 235.504
L83.16 154.352
L83.6064 239.603
L84.0528 243.307
L84.4992 93.4262
L84.9456 242.845
L85.392 101.041
L85.8384 232.465
L86.2848 135.634
L86.7312 130.979
L87.1776 238.107
L87.624 95.0423
L88.0704 238.386
L88.5168 234.714
L88.9632 98.5961
L89.4096 236.702
L89.856 237.249
L90.3024 124.243
L90.7488 234.321
L91.1952 142.854
L92.088 236.762
L92.5344 98.8455
L92.9808 239.177
L93.4272 145.911
L93.8736 93.8875
L94.32 235.978
L94.7664 235.454
L95.2128 228.249
L95.6592 100.614
L96.1056 228.874
L96.552 86.1633
L96.9984 96.4293
L97.4448 229.956
L97.8912 236.541
L98.3376 209.108
L98.784 114.225
L99.2304 226.48
L99.6768 93.6762
L100.123 226.713
L100.57 173.63
L101.016 226.553
L101.462 227.99
L101.909 246.138
L102.355 161.503
L102.802 233.564
L103.248 229.399
L103.694 246.767
L104.141 81.1535
L104.587 227.516
L105.034 230.793
L105.48 100.56
L105.926 227.084
L106.373 229.211
L106.819 85.8788
L107.266 91.0758
L107.712 229.94
L108.158 227.788
L108.605 232.095
L109.498 215.133
L109.944 79.4925
L110.39 230.597
L110.837 219.992
L111.283 227.658
L111.73 233.283
L112.176 131.404
L112.622 89.1088
L113.069 228.488
L113.515 229.589
L113.962 214.292
L114.408 221.903
L114.854 223.888
L115.301 213.26
L115.747 77.9041
L116.194 84.5116
L116.64 219.123
L117.086 217.321
L117.533 223.953
L117.979 223.732
L118.426 145.744
L118.872 224.423
L119.318 91.1221
L119.765 223.102
L120.211 82.0694
L121.104 216.857
L121.55 227.043
L121.997 221.065
L122.443 226.25
L122.89 210.122
L123.336 222.039
L123.782 159.494
L124.229 213.368
L124.675 216.083
L125.122 221.152
L125.568 78.7716
L126.014 224.555
L126.461 115.349
L126.907 139.363
L127.354 217.451
L127.8 126.604
L128.246 203.005
L128.693 221.359
L129.139 209.882
L129.586 216.711
L130.032 218.398
L130.478 228.574
L130.925 159.784
L131.371 214.809
L131.818 212.523
L132.264 220.742
L132.71 114.523
L133.157 72.3441
L133.603 219.887
L134.05 163.122
L134.496 211.969
L134.942 214.179
L135.389 211.974
L135.835 218.395
L136.282 85.4158
L136.728 211.637
L137.174 98.6822
L137.621 150.689
L138.067 162.383
L138.514 212.111
L138.96 212.755
L139.406 213.153
L139.853 195.027
L140.299 182.662
L140.746 200.048
L141.192 201.107
L141.638 208.184
L142.085 227.754
L142.531 227.412
L142.978 224.055
L143.424 207.888
L143.87 210.815
L144.317 195.348
L144.763 224.369
L145.21 203.803
L145.656 209.917
L146.102 192.368
L146.549 200.472
L146.995 202.338
L147.442 200.076
L147.888 123.313
L148.334 208.111
L148.781 133.215
L149.227 195.648
L149.674 203.085
L150.12 201.833
L150.566 196.602
L151.013 193.342
L151.459 197.15
L151.906 186.469
L152.352 193.902
L152.798 186.071
L153.245 188.05
L153.691 187.513
L154.138 187.223
L154.584 91.2426
L155.03 91.6067
L155.477 187.225
L155.923 186.659
L156.37 187.082
L156.816 181.953
L157.262 190.957
L157.709 183.57
L158.155 180.817
L158.602 180.848
L159.048 177.603
L159.494 172.039
L159.941 168.535
L160.387 172.918
L160.834 113.668
L161.28 171.049
L161.726 171.768
L162.173 198.313
L162.619 237.18
L163.066 246.23
L163.512 248.828
L163.958 244.136
L164.405 149.108
L164.851 250.215
L165.298 248.814
L165.744 242.272
L166.19 247.899
L166.637 240.449
L167.083 203.646
L167.53 240.13
L167.976 244.324
L168.422 200.913
L168.869 244.34
L169.315 96.3827
L169.762 237.796
L170.208 144.528
L171.101 242.257
L171.547 242.999
L171.994 236.293
L172.44 244.266
L172.886 234.863
L173.333 245.747
L173.779 233.571
L174.226 241.838
L174.672 232.656
L175.118 242.7
L175.565 231.347
L176.011 241.872
L176.458 235.581
L176.904 242.232
L177.35 235.504
L177.797 242.116
L178.243 236.514
L178.69 241.652
L179.136 233.71
L179.582 243.575
L180.029 235.277
L180.475 241.79
L180.922 231.52
L181.368 176.894
L181.814 232.728
L182.261 233.421
L182.707 239.933
L183.154 241.27
L183.6 241.594
L184.046 236.349
L184.493 244.194
L184.939 231.086
L185.386 240.137
L185.832 231.391
L186.278 238.917
L186.725 229.229
L187.171 239.737
L187.618 230.974
L188.064 240.3
L188.51 231.262
L188.957 241.572
L189.403 229.7
L189.85 240.862
L190.296 239.695
L190.742 237.916
L191.189 90.9286
L191.635 235.836
L192.082 237.085
L192.528 226.885
L192.974 194.104
L193.421 229.582
L193.867 186.943
L194.314 254.296
L194.76 232.363
L195.206 236.611
L195.653 141.285
L196.099 236.977
L196.546 261.193
L196.992 207.588
L197.438 229.181
L197.885 238.417
L198.331 237.374
L198.778 221.946
L199.224 90.1625
L199.67 234.792
L200.117 220.585
L200.563 237.015
L201.01 96.9181
L201.456 213.67
L201.902 102.621
L202.349 229.784
L202.795 233.949
L203.242 236.711
L203.688 227.25
L204.134 181.163
L204.581 223.86
L205.027 169.727
L205.474 211.424
L205.92 185.629
L206.366 229.549
L206.813 172.044
L207.259 222.595
L207.706 231.478
L208.152 173.784
L208.598 153.647
L209.045 230.192
L209.491 231.86
L209.938 219.637
L210.384 229.264
L210.83 232.337
L211.277 222.516
L211.723 232.913
L212.17 183.566
L212.616 225.585
L213.062 230.896
L213.509 231.545
L213.955 222.827
L214.402 146.181
L214.848 228.373
L215.294 233.971
L215.741 220.723
L216.187 234.444
L216.634 124.067
L217.08 219.826
L217.526 165.315
L217.973 218.43
L218.419 213.299
L218.866 78.0747
L219.312 218.255
L219.758 221.25
L220.205 84.0958
L220.651 95.5191
L221.544 210.381
L221.99 214.536
L222.437 221.429
L222.883 215.636
L223.776 150.09
L224.222 191.306
L224.669 212.417
L225.115 213.044
L225.562 223.337
L226.008 223.328
L226.454 223.568
L226.901 219.062
L227.347 224.726
L227.794 214.894
L228.24 223.186
L228.686 87.1991
L229.133 218.093
L229.579 213.214
L230.026 219.99
L230.472 171.158
L230.918 217.366
L231.365 220.986
L231.811 210.189
L232.258 218.34
L232.704 219.823
L233.15 213.277
L233.597 215.251
L234.043 218.679
L234.49 209.509
L234.936 217.034
L235.382 160.324
L235.829 208.443
L236.722 213.772
L237.168 220.211
L237.614 166.164
L238.061 219.085
L238.507 206.848
L238.954 215.006
L239.4 216.329
L239.846 207.168
L240.293 209.681
L240.739 219.319
L241.186 202.1
L242.078 221.716
L242.525 205.782
L243.418 212.373
L243.864 215.254
L244.31 205.648
L244.757 211.334
L245.203 201.65
L245.65 229.715
L246.096 227.648
L246.542 211.777
L246.989 203.551
L247.435 205.863
L247.882 201.614
L248.328 207.919
L248.774 194.596
L249.221 202.218
L249.667 200.567
L250.114 201.924
L251.006 207.835
L251.453 195.374
L251.899 198.614
L252.792 55.5822
L253.238 53.4062
L253.685 191.685
L254.131 197.806
L254.578 56.0611
L255.024 196.031
L255.47 193.279
L255.917 193.504
L256.363 111.859
L256.81 188.964
L257.256 185.853
L257.702 184.087
L258.149 190.289
L258.595 179.767
L259.042 178.147
L259.488 181.863
L259.934 63.0039
L260.381 181.939
L260.827 187.049
L261.274 183.226
L261.72 185.243
L262.166 190.747
L262.613 175.489
L263.059 181.921
L263.506 181.961
L263.952 68.1131
L264.398 36.8407
L264.845 174.976
L265.291 171.831
L265.738 217.34
L266.184 172.058
L266.63 215.184
L267.077 181.707
L267.523 241.195
L267.97 247.679
L268.416 245.713
L268.862 239.867
L269.309 105.462
L269.755 243.157
L270.202 246.916
L270.648 246.638
L271.094 246.847
L271.541 245.744
L271.987 237.124
L272.434 245.594
L272.88 236.501
L273.326 248.572
L273.773 153.278
L274.219 241.684
L274.666 240.914
L275.112 230.236
L275.558 243.631
L276.005 242.872
L276.451 239.278
L276.898 104.847
L277.344 238.079
L277.79 229.729
L278.237 143.34
L278.683 260.65
L279.13 241.26
L279.576 232.099
L280.022 211.437
L280.469 234.625
L280.915 242.926
L281.362 239.062
L281.808 241.732
L282.254 242.075
L282.701 96.1722
L283.147 233.876
L283.594 240.409
L284.04 231.874
L284.486 241.113
L284.933 233.214
L285.379 241.921
L285.826 232.409
L286.272 146.553
L286.718 240.615
L287.165 243.588
L287.611 235.188
L288.058 241.633
L288.504 232.879
L288.95 240.954
L289.843 219.559
L290.29 232.453
L290.736 237.461
L291.182 241.05
L291.629 186.004
L292.075 236.886
L292.522 236.278
L292.968 229.089
L293.414 237.09
L293.861 228.905
L294.307 211.499
L294.754 232.22
L295.646 238.322
L296.093 227.781
L296.539 158.993
L296.986 239.703
L297.432 236.908
L297.878 240.632
L298.325 238.158
L298.771 227.558
L299.218 238.426
L299.664 228.879
L300.11 237.406
L300.557 228.594
L301.003 236.985
L301.45 131.44
L301.896 260.518
L302.342 157.225
L302.789 229.318
L303.235 223.57
L303.682 163.538
L304.128 229.303
L304.574 133.691
L305.021 231.046
L305.467 232.855
L305.914 173.952
L306.36 226.644
L306.806 197.527
L307.253 231.99
L307.699 233.307
L308.146 228.87
L308.592 234.753
L309.038 201.716
L309.485 229.67
L309.931 234.244
L310.378 225.874
L310.824 160.663
L311.27 244.314
L311.717 230.092
L312.163 224.937
L312.61 187.116
L313.056 224.671
L313.502 225.524
L313.949 203.21
L314.395 81.8787
L314.842 218.39
L315.288 231.036
L315.734 227.38
L316.181 151.886
L316.627 195.145
L317.074 140.429
L317.52 221.75
L317.966 230.406
L318.413 227.02
L318.859 185.19
L319.306 223.072
L319.752 220.694
L320.198 231.263
L320.645 218.552
L321.091 226.338
L321.538 212.318
L321.984 223.249
L322.43 225.051
L322.877 214.831
L323.323 221.194
L323.77 222.604
L324.216 214.073
L324.662 221.438
L325.109 111.456
L325.555 220.92
L326.002 83.5113
L326.448 219.06
L326.894 76.1717
L327.341 163.805
L327.787 121.993
L328.234 218.214
L328.68 142.763
L329.126 220.585
L329.573 163.258
L330.019 81.9304
L330.466 219.694
L330.912 223.819
L331.358 223.699
L331.805 75.6667
L332.251 74.5729
L332.698 224.201
L333.144 204.684
L333.59 221.359
L334.037 220.119
L334.483 113.505
L334.93 220.142
L335.376 218.918
L335.822 212.041
L336.269 219.433
L336.715 219.741
L337.162 209.847
L337.608 217.233
L338.054 77.4881
L338.501 219.941
L338.947 215.231
L339.394 215.74
L339.84 87.4297
L340.286 149.094
L341.179 201.697
L341.626 217.217
L342.072 216.976
L342.518 66.2865
L342.965 212.237
L343.411 211.513
L343.858 206.253
L344.304 214.432
L344.75 217.28
L345.197 213.428
L345.643 196.137
L346.09 208.892
L346.536 106.12
L346.982 208.169
L347.429 110.677
L347.875 167.746
L348.322 81.394
L348.768 67.0042
L349.214 210.584
L349.661 207.718
L350.107 208.605
L350.554 62.3057
L351 207.615
L351.446 197.717
L351.893 203.467
L352.339 191.9
L352.786 65.201
L353.232 201.038
L353.678 72.6216
L354.125 204.45
L354.571 198.608
L355.018 199.547
L355.464 192.9
L355.91 193.222
L356.357 196.024
L356.803 195.709
L357.25 198.179
L357.696 194.601
L358.142 196.405
L358.589 97.9613
L359.035 191.05
L359.482 197.542
L359.928 184.637
L360.374 184.349
L360.821 58.2378
L361.267 44.1479
L361.714 83.1938
L362.16 190.072
L362.606 181.275
L363.053 187.034
L363.499 70.6625
L363.946 186.251
L364.392 186.891
L364.838 40.2959
L365.285 48.374
L365.731 127.615
L366.178 177.031
L366.624 176.36
L367.07 41.2412
L367.517 177.698
L367.963 39.3875
L368.41 177.979
L368.856 190.754
L369.302 172.456
L369.749 222.638
L370.195 116.053
L370.642 241.231
L371.088 243.336
L371.534 99.5069
L371.981 143.936
L372.427 128.356
L372.874 131.512
L373.32 245.324
L373.766 242.953
L374.213 157.564
L374.659 243.388
L375.106 246.737
L375.552 247.324
L375.998 239.923
L376.445 174.078
L376.891 218.663
L377.338 240.368
L377.784 245.426
L378.23 247.085
L378.677 138.145
L379.123 241.209
L379.57 126.827
L380.016 236.877
L380.462 241.817
L380.909 97.5618
L381.355 100.904
L381.802 234.719
L382.248 239.572
L382.694 234.522
L383.141 240.565
L383.587 235.095
L384.034 170.289
L384.48 238.105
L384.926 242.947
L385.373 171.968
L385.819 181.425
L386.266 228.523
L386.712 242.751
L387.158 242.622
L387.605 232.365
L388.051 74.1222
L388.498 148.23
L388.944 262.31
L389.39 97.5743
L389.837 241.081
L390.283 114.675
L390.73 186.943
L391.176 239.723
L391.622 241.569
L392.069 115.797
L392.515 124.037
L392.962 238.351
L393.854 183.456
L394.301 152.483
L394.747 231.513
L395.194 238.299
L395.64 126.195
L396.086 231.793
L396.533 238.526
L396.979 235.692
L397.426 236.194
L397.872 136.808
L398.318 112.271
L398.765 234.821
L399.211 236.009
L399.658 235.044
L400.104 238.481
L400.55 226.93
L400.997 147.575
L401.443 235.864
L401.89 61.7306
L402.336 210.076
L402.782 237.464
L403.229 230.262
L403.675 236.621
L404.122 227.854
L404.568 239.77
L405.014 223.061
L405.461 232.213
L405.907 80.0505
L406.354 227.496
L406.8 96.0894
L407.246 219.02
L407.693 167.876
L408.139 140.216
L408.586 231.034
L409.032 234.836
L409.478 231.951
L409.925 199.467
L410.371 230.254
L410.818 233.09
L411.264 79.9329
L411.71 233.371
L412.157 232.163
L412.603 107.654
L413.05 225.104
L413.496 231.788
L413.942 117.242
L414.389 230.089
L414.835 231.333
L415.282 234.503
L415.728 223.727
L416.174 180.437
L416.621 228.887
L417.067 229.946
L417.514 228.591
L417.96 136.22
L418.406 229.204
L418.853 230.071
L419.299 228.319
L419.746 229.091
L420.192 186.788
L420.638 221.801
L421.531 234.32
L421.978 124.561
L422.424 230.286
L422.87 182.437
L423.317 227.74
L423.763 230.248
L424.21 234.108
L424.656 116.282
L425.102 222.445
L425.549 89.5547
L425.995 222.761
L426.442 211.587
L426.888 148.827
L427.334 184.254
L427.781 90.2961
L428.227 135.753
L428.674 232.282
L429.12 223.72
L429.566 158.107
L430.013 221.033
L430.459 219.627
L430.906 114.248
L431.352 220.947
L431.798 206.653
L432.245 222.358
L432.691 224.191
L433.138 207.515
L433.584 122.386
L434.03 215.444
L434.477 223.959
L434.923 212.314
L435.37 221.481
L435.816 79.314
L436.262 76.2986
L437.155 221.016
L437.602 223.024
L438.048 117.294
L438.494 213.829
L438.941 77.2446
L439.387 80.8402
L439.834 217.792
L440.28 167.611
L440.726 216.51
L441.173 217.492
L441.619 217.365
L442.066 199.981
L442.512 232.101
L442.958 63.4364
L443.405 59.1105
L443.851 77.5359
L444.298 216.96
L444.744 212.159
L445.19 217.025
L446.083 207.688
L446.53 211.949
L446.976 211.857
L447.422 68.9931
L447.869 213.297
L448.315 138.554
L448.762 214.093
L449.208 211.683
L449.654 213.078
L450.101 110.316
L450.547 138.26
L450.994 209.415
L451.44 211.094
L451.886 54.5255
L452.333 211.611
L452.779 206.674
L453.226 205.811
L453.672 93.6027
L454.118 49.8058
L455.011 205.611
L455.458 64.8521
L455.904 180.636
L456.35 200.981
L456.797 90.1989
L457.243 62.2785
L457.69 200.302
L458.136 155.807
L458.582 199.384
L459.029 103.241
L459.475 198.803
L459.922 198.175
L460.814 194.611
L461.261 195.604
L461.707 85.1053
L462.154 194.39
L462.6 197.363
L463.046 150.242
L463.493 197.305
L463.939 192.28
L464.386 47.5523
L464.832 196.303
L465.278 41.9778
L465.725 66.6219
L466.171 191.299
L466.618 184.987
L467.064 186.426
L467.51 80.0907
L467.957 20.4183
L468.403 185.375
L468.85 185.24
L469.296 53.5543
L469.742 189.83
L470.189 180.49
L470.635 46.5109
L471.082 184.073
L471.528 169.314
L471.974 169.138
L472.421 30.2774
L472.867 175.776
L473.314 176.02
L473.76 81.6662
L474.206 211.645
L474.653 243.852
L475.099 181.214
L475.546 244.635
L475.992 209.422
L476.438 239.864
L476.885 246.423
L477.331 105.665
L477.778 247.251
L478.224 246.782
L478.67 247.712
L479.117 241.041
L479.563 201.556
L480.01 237.458
L480.456 236.818
L480.902 115.599
L481.349 241.336
L481.795 125.586
L482.242 240.454
L482.688 111.573
L483.134 175.999
L483.581 146.668
L484.027 263.744
L484.474 227.975
L484.92 103.077
L485.366 132.694
L485.813 244.772
L486.259 111.394
L486.706 125.143
L487.152 240.902
L487.598 241.93
L488.045 230.301
L488.491 241.297
L488.938 92.9247
L489.384 239.569
L489.83 190.916
L490.277 235.445
L490.723 152.864
L491.17 239.394
L491.616 240.027
L492.062 244.158
L492.509 224.836
L492.955 241.934
L493.402 231.383
L493.848 242.024
L494.294 233.986
L494.741 241.496
L495.187 147.224
L495.634 106.583
L496.08 101.868
L496.526 231.969
L496.973 240.45
L497.419 239.636
L497.866 232.558
L498.312 204.145
L498.758 232.371
L499.205 234.631
L499.651 240.145
L500.098 232.245
L500.544 239.784
L500.99 229.283
L501.437 121.564
L501.883 237.636
L502.33 235.809
L502.776 234.558
L503.669 238.935
L504.115 230.404
L504.562 70.4527
L505.008 236.652
L505.454 102.891
L505.901 239.567
L506.347 234.683
L506.794 237.593
L507.24 206.597
L507.686 140.425
L508.133 232.494
L508.579 128.241
L509.026 233.494
L509.472 227.99
L509.918 197.073
L510.365 229.816
L510.811 236.319
L511.258 101.204
L511.704 232.816
L512.15 237.444
L512.597 225.699
L513.043 235.584
L513.49 59.6684
L513.936 92.0859
L514.382 233.923
L514.829 230.674
L515.275 232.386
L515.722 224.154
L516.168 234.03
L516.614 188.602
L517.061 232.764
L517.507 229.859
L517.954 232.321
L517.954 232.321" style="fill:none;stroke:#ff0000;"/>
   </g>
   <g id="line2d_2">
    <path clip-path="url(#p7ff5b81e1d)" d="
M72 64.6348
L72.4464 117.928
L72.8928 188.257
L73.3392 110.425
L73.7856 109.092
L74.232 116.329
L74.6784 61.2576
L75.1248 195.897
L75.5712 166.005
L76.0176 200.896
L76.464 108.798
L76.9104 193.46
L77.3568 195.852
L77.8032 92.911
L78.2496 118.949
L78.696 51.0369
L79.1424 182.765
L79.5888 200.467
L80.0352 39.0076
L80.4816 40.9218
L80.928 50.7897
L81.3744 43.7373
L81.8208 100.612
L82.2672 38.3719
L82.7136 46.8337
L83.16 181.959
L83.6064 115.749
L84.0528 188.315
L84.4992 89.2457
L84.9456 110.847
L85.392 175.59
L85.8384 84.4707
L86.2848 178.388
L86.7312 174.759
L87.1776 69.3508
L87.624 181.297
L88.0704 173.472
L88.5168 72.6766
L88.9632 233.064
L89.4096 110.938
L89.856 198.849
L90.3024 247.83
L90.7488 109.994
L91.1952 107.163
L91.6416 246.663
L92.088 248.644
L92.5344 230.826
L92.9808 102.927
L93.4272 190.52
L93.8736 246.932
L94.32 245.757
L94.7664 237.277
L95.2128 148.817
L95.6592 97.055
L96.1056 243.467
L96.552 124.432
L96.9984 240.187
L97.4448 123.129
L97.8912 247.047
L98.3376 117.259
L98.784 244.215
L99.2304 264.719
L99.6768 255.564
L100.123 240.288
L100.57 244.211
L101.016 89.49
L101.462 244.127
L101.909 119.104
L102.355 240.511
L102.802 128.015
L103.248 239.331
L103.694 233.677
L104.141 244.627
L104.587 232.636
L105.034 234.956
L105.48 235.935
L105.926 242.287
L106.373 156.127
L106.819 104.133
L107.266 232.218
L107.712 240.109
L108.158 243.746
L108.605 87.0348
L109.051 237.68
L109.498 238.444
L109.944 235.254
L110.39 240.329
L110.837 241.371
L111.283 239.526
L111.73 230.876
L112.176 240.483
L112.622 231.607
L113.069 178.995
L113.515 237.234
L113.962 240.026
L114.408 238.589
L114.854 237.834
L115.301 240.48
L115.747 238.077
L116.194 228.54
L116.64 156.291
L117.086 235.606
L117.533 239.918
L117.979 231.273
L118.426 238.354
L118.872 134.764
L119.318 234.058
L119.765 237.668
L120.211 235.877
L120.658 115.603
L121.104 235.298
L121.55 228.505
L121.997 236.35
L122.443 229.077
L122.89 166.037
L123.336 236.369
L123.782 234.549
L124.229 241.238
L125.122 227.309
L125.568 236.674
L126.014 226.948
L126.461 239.376
L126.907 175.415
L127.354 230.192
L127.8 233.436
L128.246 235.238
L128.693 226.25
L129.139 89.4377
L129.586 225.179
L130.032 92.0598
L130.478 232.892
L130.925 232.769
L131.371 234.555
L131.818 86.6699
L132.264 204.754
L132.71 226.727
L133.157 233.77
L133.603 228.491
L134.05 230.442
L134.496 221.806
L134.942 228.226
L135.389 232.379
L135.835 220.044
L136.282 85.8109
L137.174 222.469
L137.621 222.694
L138.067 89.8663
L138.514 230.149
L138.96 232.035
L139.406 223.449
L139.853 230.217
L140.299 220.758
L140.746 228.642
L141.192 86.2718
L141.638 233.18
L142.085 221.379
L142.531 231.569
L142.978 167.641
L143.424 188.331
L143.87 220.35
L144.317 220.046
L144.763 224.265
L145.21 95.9104
L145.656 77.2953
L146.102 224.387
L146.549 191.294
L146.995 222.743
L147.442 224.459
L147.888 78.929
L148.334 218.098
L148.781 170.993
L149.227 220.066
L149.674 219.162
L150.566 226.169
L151.013 176.334
L151.459 186.021
L151.906 219.579
L152.352 221.158
L152.798 170.89
L153.245 218.88
L153.691 232.445
L154.138 226.195
L154.584 213.741
L155.03 222.117
L155.477 225.588
L155.923 216.001
L156.37 220.327
L156.816 222.904
L157.262 211.011
L157.709 218.772
L158.155 221.236
L158.602 213.203
L159.048 218.575
L159.494 119.583
L159.941 72.307
L160.387 117.179
L160.834 206.233
L161.28 214.427
L161.726 220.236
L162.173 208.157
L162.619 217.638
L163.066 219.265
L163.512 210.482
L163.958 216.019
L164.405 219.455
L164.851 208.098
L165.744 217.412
L166.19 206.482
L166.637 210.599
L167.083 216.801
L167.53 204.598
L167.976 212.329
L168.422 225.413
L168.869 131.503
L169.315 70.3527
L170.208 201.353
L170.654 208.795
L171.101 207.036
L171.547 84.9645
L171.994 207.557
L172.44 209.539
L172.886 204.13
L173.333 210.64
L173.779 204.325
L174.226 222
L174.672 200.007
L175.118 207.242
L175.565 198.021
L176.011 200.172
L176.458 57.0377
L176.904 165.065
L177.35 207.976
L177.797 203.307
L178.243 202.616
L178.69 196.835
L179.136 204.025
L179.582 185.936
L180.029 190.179
L180.475 187.609
L180.922 194.783
L181.368 99.1221
L181.814 196.588
L182.261 196.36
L183.154 188.302
L183.6 68.4564
L184.046 179.048
L184.493 184.642
L184.939 175.44
L185.386 181.793
L185.832 179.911
L186.278 97.539
L186.725 176.39
L187.171 187.133
L187.618 121.916
L188.064 103.205
L188.51 189.594
L188.957 177.746
L189.403 174.94
L189.85 60.5184
L190.296 178.983
L190.742 81.8845
L191.189 180.664
L191.635 177.096
L192.082 175.236
L192.974 239.699
L193.421 246.412
L193.867 248.463
L194.314 223.854
L194.76 247.45
L195.206 238.732
L195.653 246.898
L196.099 238.96
L196.546 246.663
L196.992 149.053
L197.438 246.968
L197.885 245.98
L198.331 238.41
L198.778 246.454
L199.224 245.822
L199.67 229.689
L200.117 246.942
L200.563 234.673
L201.01 246.65
L201.456 236.848
L201.902 119.265
L202.349 237.753
L202.795 99.1305
L203.242 244.341
L203.688 242.019
L204.134 101.801
L204.581 236.239
L205.027 234.404
L205.474 146.031
L205.92 239.539
L206.366 207.427
L206.813 240.951
L207.259 242.093
L207.706 112.579
L208.152 235.913
L208.598 243.172
L209.045 234.578
L209.491 241.311
L209.938 234.321
L210.384 241.363
L210.83 235.651
L211.277 103.557
L211.723 240.18
L212.17 241.811
L212.616 239.834
L213.062 231.791
L213.509 240.849
L213.955 234.224
L214.402 236.964
L214.848 232.049
L215.294 240.849
L215.741 233.169
L216.187 217.138
L216.634 187.393
L217.08 240.865
L217.526 236.034
L217.973 192.076
L218.419 170.662
L218.866 92.6325
L219.312 234.516
L219.758 228.18
L220.205 154.36
L220.651 233.725
L221.098 238.755
L221.544 237.877
L221.99 235.23
L222.437 111.834
L222.883 91.428
L223.33 177.825
L223.776 233.317
L224.222 234.645
L224.669 239.605
L225.115 227.732
L225.562 238.581
L226.008 228.435
L226.454 238.68
L226.901 228.453
L227.347 238.31
L227.794 226.017
L228.24 235.638
L228.686 225.927
L229.133 234.961
L229.579 226.856
L230.026 188.872
L230.472 169.405
L230.918 231.145
L231.365 227.836
L231.811 239.829
L232.258 231.502
L232.704 140.64
L233.15 233.385
L233.597 110.363
L234.043 72.1198
L234.49 199.257
L234.936 228.346
L235.382 233.998
L235.829 234.299
L236.275 225.749
L236.722 234.019
L237.168 227.688
L237.614 236.36
L238.061 222.62
L238.507 230.644
L238.954 222.349
L239.4 228.741
L239.846 231.29
L240.739 80.2014
L241.186 228.54
L241.632 169.173
L242.078 230.252
L242.525 83.175
L242.971 229.25
L243.418 229.102
L243.864 172.158
L244.31 219.988
L244.757 244.809
L245.203 238.252
L245.65 222.534
L246.096 231.413
L246.542 220.721
L246.989 230.493
L247.435 229.919
L247.882 151.61
L248.328 206.417
L248.774 222.991
L249.221 220.966
L249.667 83.6651
L250.114 123.153
L250.56 216.966
L251.006 222.633
L251.453 138.761
L251.899 126
L252.346 214.742
L252.792 88.7197
L253.238 219.974
L253.685 221.011
L254.131 223.105
L254.578 215.922
L255.024 215.54
L255.47 223.657
L255.917 215.559
L256.363 219.831
L256.81 79.9588
L257.256 225.021
L257.702 213.811
L258.149 87.125
L258.595 221.265
L259.042 224.862
L259.488 212.865
L259.934 220.655
L260.381 222.992
L260.827 201.904
L261.72 225.378
L262.166 206.51
L262.613 217.825
L263.059 222.293
L263.506 210.444
L263.952 96.5416
L264.398 219.276
L264.845 218.26
L265.291 205.253
L266.184 220.985
L266.63 66.4347
L267.077 214.923
L267.523 150.817
L267.97 169.315
L268.416 211.942
L268.862 215.188
L269.309 195.935
L269.755 211.578
L270.202 160.335
L270.648 169.928
L271.094 215.052
L271.541 100.174
L271.987 211.526
L272.434 211.904
L272.88 210.913
L273.326 218.195
L273.773 137.947
L274.219 207.148
L274.666 213.039
L275.112 193.776
L275.558 214.741
L276.005 208.356
L276.451 196.663
L276.898 204.788
L277.344 202.467
L277.79 207.058
L278.237 207.34
L278.683 133.226
L279.13 198.029
L280.022 202.175
L280.469 202.895
L280.915 200.671
L281.362 224.895
L281.808 204.939
L282.254 113.876
L282.701 194.716
L283.147 195.868
L283.594 56.7339
L284.04 188.133
L284.486 197.032
L284.933 35.825
L285.379 200.591
L285.826 194.367
L286.272 49.1423
L286.718 186.698
L287.165 188.891
L287.611 186.911
L288.058 52.987
L288.504 137.074
L288.95 188.12
L289.397 155.545
L289.843 94.1244
L290.29 185.539
L290.736 146.106
L291.182 182.651
L291.629 191.312
L292.075 179.173
L292.522 182.49
L292.968 38.9948
L293.414 35.2177
L293.861 90.773
L294.307 182.332
L294.754 116.342
L295.2 176.096
L295.646 174.626
L296.093 97.9718
L296.539 237.614
L296.986 152.432
L297.432 222.972
L297.878 113.877
L298.325 236.436
L298.771 137.621
L299.218 247.815
L299.664 247.11
L300.11 181.956
L300.557 183.919
L301.003 262.179
L301.45 263.116
L301.896 209.247
L302.342 98.8318
L302.789 242.538
L303.235 242.11
L303.682 245.271
L304.128 244.234
L304.574 245.677
L305.021 245.888
L305.467 243.259
L305.914 181.124
L306.36 235.576
L306.806 240.369
L307.253 243.064
L307.699 196.642
L308.146 242.762
L308.592 245.904
L309.038 163.632
L309.485 196.924
L309.931 241.651
L310.378 139.643
L310.824 238.509
L311.27 232.02
L311.717 241.322
L312.61 224.115
L313.056 231.682
L313.502 242.227
L313.949 158.952
L314.395 251.661
L314.842 236.827
L315.288 237.364
L315.734 242.609
L316.181 156.519
L316.627 238.99
L317.074 236.972
L317.52 238.633
L317.966 232.304
L318.413 221.377
L319.306 239.546
L319.752 240.978
L320.198 240.293
L320.645 238.639
L321.091 93.7537
L321.538 237.491
L321.984 117.161
L322.43 137.97
L322.877 237.628
L323.323 150.789
L323.77 86.9237
L324.216 236.281
L324.662 217.542
L325.109 231.922
L325.555 155.351
L326.002 234.661
L326.448 235.29
L326.894 238.628
L327.341 228.53
L327.787 236.864
L328.234 230.015
L328.68 237.424
L329.126 228.232
L329.573 239.026
L330.019 233.424
L330.466 234.817
L330.912 235.716
L331.358 93.4035
L331.805 233.204
L332.251 234.925
L332.698 226.199
L333.144 235.009
L333.59 234.651
L334.037 149.579
L334.483 189.876
L334.93 97.0948
L335.376 235.968
L335.822 228.387
L336.269 223.236
L336.715 231.607
L337.162 217.871
L337.608 136.999
L338.054 148.647
L338.947 227.12
L339.394 231.92
L339.84 232.464
L340.286 224.85
L340.733 234.393
L341.179 226.253
L341.626 233.316
L342.072 221.231
L342.518 232.539
L342.965 220.971
L343.411 231.156
L343.858 223.089
L344.304 229.847
L344.75 231.38
L345.197 80.7109
L345.643 224.325
L346.09 225.606
L346.536 115.306
L347.429 225.025
L347.875 79.4832
L348.322 223.051
L348.768 178.646
L349.214 226.505
L349.661 227.82
L350.107 240.306
L350.554 119.672
L351 219.592
L351.446 104.449
L351.893 187.204
L352.339 217.723
L352.786 225.215
L353.232 195.964
L353.678 220.704
L354.125 223.766
L354.571 213.751
L355.018 221.948
L355.464 175.597
L355.91 213.359
L356.357 214.723
L356.803 222.559
L357.25 221.539
L357.696 70.8411
L358.142 97.3432
L358.589 223.153
L359.035 212.318
L359.482 220.678
L359.928 221.177
L360.374 71.9072
L360.821 188.247
L361.267 218.512
L361.714 217.678
L362.16 222.315
L362.606 78.1843
L363.053 225.215
L363.499 212.957
L363.946 76.1848
L364.392 174.796
L364.838 211.052
L365.285 156.292
L365.731 214.088
L366.624 218.483
L367.07 222.966
L367.517 135.076
L367.963 214.951
L368.41 71.8829
L368.856 213.875
L369.302 205.568
L369.749 217.093
L370.195 71.0571
L370.642 212.106
L371.088 161.434
L371.534 214.773
L371.981 211.666
L372.427 115.863
L372.874 213.015
L373.32 205.536
L373.766 83.7949
L374.213 210.972
L374.659 209.291
L375.106 212.642
L375.552 217.762
L375.998 204.521
L376.445 209.882
L376.891 73.1168
L377.338 74.5429
L377.784 209.202
L378.23 198.912
L378.677 211.051
L379.123 177.245
L379.57 209.649
L380.016 164.049
L380.462 208.181
L380.909 207.234
L381.355 206.868
L381.802 204.509
L382.248 192.437
L382.694 203.881
L383.141 202.148
L383.587 139.798
L384.034 60.8692
L384.48 61.2774
L384.926 186.495
L385.373 192.645
L385.819 196.912
L386.266 198.64
L386.712 196.447
L387.158 119.608
L387.605 192.104
L388.051 55.9493
L388.498 200.48
L388.944 191.376
L389.39 56.2729
L389.837 194.479
L390.283 85.1705
L390.73 185.373
L391.176 155.6
L391.622 155.896
L392.069 45.4588
L392.515 44.9313
L392.962 150.299
L393.408 184.419
L393.854 183.87
L394.301 185.737
L394.747 184.974
L395.194 44.7833
L395.64 189.321
L396.086 193.518
L396.533 184.953
L396.979 29.9276
L397.426 179.668
L397.872 170.404
L398.318 174.05
L398.765 179.931
L399.211 159.106
L399.658 176.694
L400.104 77.7525
L400.55 134.709
L400.997 270.408
L401.443 245.175
L401.89 240.308
L402.336 104.583
L402.782 246.721
L403.229 245.338
L403.675 245.739
L404.122 247.589
L404.568 151.238
L405.014 247.306
L405.461 247.711
L405.907 220.15
L406.354 199.967
L406.8 100.409
L407.246 241.45
L408.139 247.296
L408.586 95.6426
L409.032 237.14
L409.478 246.474
L409.925 236.757
L410.371 243.039
L410.818 232.505
L411.264 242.652
L411.71 234.945
L412.157 95.9031
L412.603 225.381
L413.496 240.467
L413.942 241.183
L414.389 240.277
L414.835 243.453
L415.282 234.405
L415.728 239.615
L416.174 237.545
L416.621 241.987
L417.067 235.229
L417.514 242.924
L417.96 232.701
L418.406 244.092
L418.853 232.599
L419.299 241.431
L419.746 230.564
L420.192 242.262
L420.638 230.385
L421.085 101.981
L421.531 232.973
L421.978 239.971
L422.424 241.082
L422.87 232.739
L423.317 205.169
L423.763 231.877
L424.21 238.212
L424.656 239.635
L425.102 232.034
L425.549 239.54
L425.995 231.792
L426.442 239.706
L426.888 230.219
L427.334 235.857
L427.781 227.769
L428.227 234.483
L428.674 233.203
L429.12 240.157
L429.566 227.381
L430.013 147.996
L430.459 254.711
L430.906 236.485
L431.352 236.591
L431.798 237.066
L432.245 227.943
L432.691 236.634
L433.138 227.244
L433.584 96.6746
L434.03 232.928
L434.477 239.335
L434.923 137.615
L435.37 235.453
L435.816 238.188
L436.262 236.025
L436.709 82.3831
L437.155 233.681
L438.048 231.594
L438.494 224.471
L438.941 235.184
L439.387 210.891
L439.834 232.836
L440.28 92.7826
L440.726 231.769
L441.173 234.064
L441.619 228.027
L442.066 225.227
L442.512 235.389
L442.958 234.512
L443.405 224.741
L443.851 160.968
L444.298 255.134
L444.744 232.967
L445.19 235.739
L445.637 233.199
L446.083 231.301
L446.53 98.062
L446.976 229.309
L447.422 225.817
L447.869 231.19
L448.315 78.2505
L448.762 231.665
L449.208 221.527
L449.654 230.137
L450.101 220.64
L450.547 228.099
L450.994 138.412
L451.44 233.127
L451.886 229.862
L452.333 222.157
L452.779 210.828
L453.226 230.564
L453.672 219.97
L454.118 223.08
L454.565 230.97
L455.011 220.722
L455.458 220.524
L455.904 225.347
L456.35 193.919
L456.797 219.207
L457.243 215.025
L457.69 218.766
L458.136 224.748
L458.582 213.762
L459.029 221.675
L459.475 203.41
L459.922 217.941
L460.368 221.869
L460.814 224.237
L461.261 208.095
L461.707 205.291
L462.154 81.0515
L462.6 220.812
L463.046 142.714
L463.493 237.465
L463.939 217.617
L464.386 217.87
L464.832 222.156
L465.278 220.228
L466.171 205.744
L466.618 222.379
L467.064 204.297
L467.51 226.583
L467.957 219.275
L468.403 221.882
L468.85 208
L469.296 217.809
L469.742 222.062
L470.189 212.17
L470.635 216.393
L471.082 219.555
L471.528 210.733
L471.974 214.422
L472.421 219.766
L472.867 207.418
L473.314 215.323
L473.76 216.064
L474.206 210.036
L474.653 214.709
L475.099 222.975
L475.546 207.374
L475.992 215.283
L476.438 84.7269
L476.885 200.198
L477.331 211.13
L477.778 212.509
L478.224 213.372
L478.67 217.045
L479.117 205.422
L479.563 215.54
L480.01 215.349
L480.456 200.417
L480.902 217.383
L481.349 208.18
L481.795 211.543
L482.242 199.989
L482.688 221.213
L483.134 203.991
L483.581 213.219
L484.027 202.858
L484.474 207.213
L484.92 220.893
L485.366 210.709
L485.813 194.187
L486.259 201.602
L486.706 201.775
L487.152 199.661
L487.598 208.205
L488.045 221.254
L488.491 204.675
L488.938 195.34
L489.384 194.38
L489.83 196.972
L490.277 197.359
L490.723 175.938
L491.17 195.586
L491.616 193.488
L492.062 197.153
L492.509 194.656
L492.955 198.112
L493.402 193.2
L493.848 195.372
L494.294 181.092
L494.741 187.607
L495.187 184.104
L495.634 189.573
L496.08 191.17
L496.526 178.525
L496.973 177.61
L497.419 184.239
L497.866 178.518
L498.312 182.763
L498.758 181.602
L499.205 59.1562
L499.651 52.543
L500.098 187.139
L500.544 186.878
L500.99 26.0547
L501.437 177.198
L501.883 84.5969
L502.33 178.406
L502.776 173.149
L503.222 175.148
L503.669 135.78
L504.115 244.813
L504.562 247.134
L505.008 237.97
L505.454 245.598
L505.901 237.871
L506.347 247.343
L506.794 102.504
L507.24 244.062
L507.686 246.846
L508.133 246.165
L508.579 247.447
L509.026 245.861
L509.472 246.939
L509.918 242.23
L510.365 201.327
L510.811 234.923
L511.258 245.679
L511.704 246.893
L512.15 173.082
L512.597 145.907
L513.043 246.06
L513.49 244.736
L513.936 240.105
L514.382 239.462
L514.829 242.757
L515.275 242.716
L516.168 154.542
L516.614 245.551
L517.061 243.268
L517.507 243.035
L517.954 242.317
L517.954 242.317" style="fill:none;opacity:0.7;stroke:#008000;"/>
   </g>
   <g id="line2d_3">
    <path clip-path="url(#p7ff5b81e1d)" d="
M72 157.976
L72.4464 110.321
L73.3392 245.819
L73.7856 100.197
L74.232 151.117
L74.6784 160.651
L75.1248 136.236
L75.5712 184.431
L76.0176 245.876
L76.464 103.86
L76.9104 128.207
L77.3568 102.303
L77.8032 243.722
L78.2496 121.892
L78.696 242.865
L79.1424 242.989
L79.5888 246.623
L80.0352 143.144
L80.4816 238.749
L80.928 97.9157
L81.3744 216.211
L81.8208 132.693
L82.2672 131.773
L82.7136 241.388
L83.16 246.342
L83.6064 91.2242
L84.0528 239.707
L84.4992 92.3896
L84.9456 98.8971
L85.392 152.665
L85.8384 241.716
L86.2848 243.933
L86.7312 245.36
L87.1776 100.213
L87.624 139.853
L88.0704 155.23
L88.5168 240.467
L88.9632 241.811
L89.4096 244.399
L89.856 233.898
L90.3024 243.529
L90.7488 204.717
L91.1952 96.5204
L91.6416 239.234
L92.088 242.156
L92.5344 91.97
L92.9808 99.0532
L93.4272 231.486
L94.32 95.6624
L94.7664 95.2533
L95.2128 229.677
L95.6592 161.237
L96.1056 227.809
L96.552 238.253
L96.9984 88.7135
L97.4448 237.066
L97.8912 98.3683
L98.3376 136.436
L98.784 250.553
L99.6768 227.828
L100.123 93.6398
L100.57 234.507
L101.016 236.429
L101.462 90.4606
L101.909 232.622
L102.355 80.4715
L102.802 235.109
L103.248 233.714
L103.694 234.988
L104.141 227.416
L104.587 237.72
L105.034 227.147
L105.48 237.596
L105.926 226.159
L106.373 232.594
L106.819 217.018
L107.266 234.807
L107.712 93.1674
L108.158 233.001
L108.605 223.991
L109.051 234.633
L109.498 226.608
L109.944 235.033
L110.39 224.495
L111.283 97.1548
L111.73 228.26
L112.176 230.932
L112.622 223.291
L113.069 233.135
L113.515 80.9916
L113.962 229.351
L114.408 229.78
L114.854 229.631
L115.301 221.291
L116.194 231.39
L116.64 220.053
L117.086 140.871
L117.533 223.129
L117.979 223.434
L118.426 80.247
L118.872 236.874
L119.318 226.701
L119.765 230.466
L120.211 77.4385
L120.658 225.915
L121.104 228.761
L121.55 224.051
L121.997 73.9691
L122.443 83.078
L123.336 231.009
L123.782 221.664
L124.229 169.956
L124.675 81.3308
L125.122 210.482
L125.568 224.633
L126.014 221.495
L126.461 225.568
L126.907 213.732
L127.354 223.85
L127.8 93.3564
L128.246 217.963
L128.693 214.48
L129.139 172.612
L129.586 207.934
L130.032 219.441
L130.478 225.755
L130.925 211.898
L131.371 223.05
L131.818 224.177
L132.264 214.829
L132.71 220.208
L133.157 82.2604
L133.603 183.013
L134.05 215.675
L134.496 214.889
L134.942 218.675
L135.389 220.141
L135.835 209.87
L136.282 218.65
L136.728 220.667
L137.174 134.758
L137.621 217.663
L138.067 215.529
L138.514 217.327
L138.96 200.057
L139.406 150.392
L139.853 212.845
L140.299 86.688
L140.746 147.479
L141.192 173.647
L141.638 208.846
L142.085 163.873
L142.531 211.597
L142.978 214.3
L143.424 210.606
L143.87 202.707
L144.317 205.5
L144.763 127.197
L145.21 210.433
L145.656 217.81
L146.102 206.657
L146.549 230.032
L146.995 213.77
L147.442 98.153
L147.888 162.4
L148.334 207.918
L148.781 207.181
L149.227 205.388
L149.674 112.515
L150.12 211.546
L150.566 206.284
L151.013 206.308
L151.459 196.25
L151.906 198.513
L152.352 167.94
L152.798 163.211
L153.245 74.3835
L153.691 200.498
L154.138 203.422
L154.584 200.788
L155.03 138.029
L155.477 204.969
L155.923 193.174
L156.37 201.826
L156.816 147.395
L157.262 197.469
L157.709 194.797
L158.155 194.134
L158.602 85.2338
L159.048 197.531
L159.494 198.985
L159.941 194.826
L160.387 185.572
L161.28 182.808
L161.726 192.076
L162.173 182.093
L162.619 180.192
L163.066 184.057
L163.512 179.143
L163.958 48.5929
L164.405 185.611
L164.851 105.506
L165.298 184.814
L165.744 177.003
L166.19 186.718
L166.637 179.512
L167.083 123.932
L167.53 175.654
L167.976 176.262
L168.422 172.465
L168.869 115.162
L169.315 179.1
L169.762 223.293
L170.208 237.349
L170.654 246.677
L171.101 96.0798
L171.547 245.372
L171.994 237.16
L172.44 243.9
L172.886 248.357
L173.333 242.764
L173.779 243.969
L174.226 240.492
L174.672 247.062
L175.118 245.435
L175.565 249.539
L176.011 236.281
L176.458 246.151
L176.904 118.145
L177.35 171.827
L177.797 245.748
L178.243 244.094
L178.69 236.839
L179.136 157.23
L179.582 244.551
L180.029 243.74
L180.475 224.211
L180.922 241.559
L181.368 103.051
L181.814 103.861
L182.261 240.777
L182.707 242.147
L183.154 189.762
L183.6 187.486
L184.046 244.754
L184.493 242.536
L184.939 242.132
L185.386 162.976
L185.832 239.536
L186.278 239.024
L186.725 240.611
L187.171 100.997
L187.618 232.416
L188.064 243.976
L188.51 232.489
L188.957 240.741
L189.403 232.272
L189.85 240.329
L190.296 233.398
L190.742 241.105
L191.189 183.684
L191.635 241.584
L192.082 243.012
L192.528 240.725
L192.974 240.112
L193.421 234.579
L193.867 240.053
L194.314 231.665
L194.76 156.892
L195.206 243.599
L195.653 239.969
L196.099 240.244
L196.546 142.809
L196.992 261.633
L197.438 235.745
L197.885 237.489
L198.331 239.757
L198.778 230.013
L199.224 237.329
L199.67 229.181
L200.117 117.826
L200.563 133.489
L201.01 237.824
L201.456 240.065
L201.902 233.138
L202.349 236.922
L202.795 207.786
L203.242 235.828
L203.688 237.606
L204.134 229.978
L204.581 237.357
L205.027 228.787
L205.474 236.481
L205.92 224.711
L206.366 238.947
L206.813 226.275
L207.259 235.94
L207.706 228.414
L208.152 235.853
L208.598 227.826
L209.045 235.356
L209.491 152.729
L209.938 247.993
L210.384 217.677
L210.83 164.011
L211.277 229.989
L211.723 233
L212.17 157.632
L212.616 233.549
L213.062 227.642
L213.509 234.796
L213.955 226.672
L214.402 198.5
L214.848 239.024
L215.294 222.41
L215.741 233.012
L216.187 218.98
L216.634 230.319
L217.08 232.669
L217.526 224.743
L217.973 232.251
L218.419 221.856
L218.866 229.167
L219.312 229.899
L219.758 222.918
L220.205 229.871
L220.651 220.514
L221.098 229.448
L221.544 231.925
L221.99 100.404
L222.437 228.174
L222.883 225.2
L223.33 232.885
L223.776 153.883
L224.222 246.367
L224.669 227.685
L225.115 226.068
L225.562 214.378
L226.008 223.311
L226.454 228.227
L226.901 213.021
L227.347 222.173
L227.794 224.617
L228.24 219.35
L228.686 221.615
L229.133 118.499
L229.579 227.581
L230.026 220.941
L230.472 223.494
L230.918 218.623
L231.365 224.995
L231.811 185.39
L232.258 216.349
L232.704 218.443
L233.15 221.467
L233.597 219.568
L234.043 214.011
L234.49 223.717
L234.936 223.701
L235.382 145.126
L235.829 224.72
L236.275 217.135
L236.722 224.307
L237.168 225.827
L237.614 99.0982
L238.061 217.728
L238.507 119.363
L238.954 219.138
L239.4 217.558
L239.846 220.056
L240.293 221.426
L240.739 214.36
L241.186 177.47
L242.078 244.969
L242.525 183.194
L242.971 211.097
L243.418 217.752
L243.864 209.716
L244.31 80.5962
L244.757 216.654
L245.203 216.318
L245.65 217.281
L246.096 209.028
L246.542 213.921
L246.989 148.452
L247.435 211.113
L247.882 219.757
L248.328 183.654
L248.774 211.903
L249.221 136.458
L249.667 212.372
L250.114 212.948
L250.56 211.598
L251.006 213.34
L251.453 202.89
L251.899 208.074
L252.346 207.33
L252.792 228.05
L253.238 202.892
L254.131 214.109
L254.578 220.172
L255.024 204.28
L255.47 207.08
L255.917 197.519
L256.363 203.198
L256.81 203.195
L257.256 193.855
L257.702 203.081
L258.149 216.025
L258.595 210.909
L259.042 47.6488
L259.488 196.122
L259.934 198.404
L260.381 159.08
L260.827 196.631
L261.274 197.629
L261.72 135.669
L262.166 150.961
L262.613 146.175
L263.059 199.874
L263.506 195.274
L263.952 182.266
L264.398 176.676
L264.845 182.399
L265.291 107.065
L265.738 188.554
L266.184 188.004
L266.63 183.225
L267.077 190.232
L267.523 186.809
L267.97 192.862
L268.862 170.23
L269.309 69.0516
L269.755 196.316
L270.202 177.301
L270.648 149.785
L271.094 178.152
L271.541 85.5581
L271.987 180.038
L272.434 176.667
L272.88 175.551
L273.773 244.821
L274.666 248.808
L275.112 245.865
L275.558 246.519
L276.005 244.867
L276.451 181.098
L276.898 250.43
L277.344 243.512
L277.79 132.047
L278.237 134.829
L278.683 157.408
L279.13 244.535
L279.576 247.727
L280.022 238.444
L280.469 132.891
L280.915 269.799
L281.808 236.896
L282.254 245.117
L282.701 241.558
L283.147 157.732
L283.594 135.554
L284.04 242.421
L284.486 242.179
L284.933 255.544
L285.379 234.924
L285.826 232.086
L286.272 237.182
L286.718 176.855
L287.165 241.783
L287.611 242.77
L288.058 241.752
L288.504 172.798
L288.95 238.524
L289.397 242.557
L289.843 244.021
L290.29 239.648
L290.736 245.103
L291.182 234.019
L291.629 182.371
L292.075 235.921
L292.522 236.332
L292.968 241.57
L293.414 233.01
L293.861 241.345
L294.307 157.452
L294.754 238.836
L295.2 239.667
L295.646 129.535
L296.093 173.082
L296.539 239.33
L296.986 239.901
L297.432 227.541
L297.878 230.771
L298.325 242.244
L299.218 240.663
L299.664 237.883
L300.11 241.343
L301.003 232.984
L301.45 239.894
L301.896 233.982
L302.342 240.831
L302.789 227.953
L303.235 238.423
L303.682 226.275
L304.128 246.874
L304.574 92.2509
L305.021 235.337
L305.467 236.99
L305.914 237.546
L306.36 227.959
L306.806 238.151
L307.253 229.04
L307.699 240.378
L308.146 230.269
L308.592 211.257
L309.038 227.78
L309.485 230.636
L309.931 236.721
L310.378 162.494
L310.824 239.184
L311.27 226.531
L311.717 236.914
L312.163 136.479
L312.61 237.746
L313.056 201.562
L313.502 231.09
L313.949 232.56
L314.395 226.698
L314.842 232.397
L315.288 228.383
L315.734 237.498
L316.181 233.727
L316.627 236.017
L317.074 224.664
L317.52 235.024
L317.966 228.666
L318.413 235.545
L318.859 109.255
L319.306 227.071
L319.752 233.852
L320.198 223.236
L320.645 229.779
L321.091 224.147
L321.538 121.262
L321.984 225.036
L322.43 228.567
L322.877 126.361
L323.323 211.611
L323.77 149.675
L324.216 222.248
L324.662 228.708
L325.109 232.091
L325.555 234.581
L326.002 98.6306
L326.448 225.781
L326.894 181.893
L327.341 225.652
L327.787 220.448
L328.234 229.047
L328.68 216.892
L329.126 220.831
L329.573 81.9349
L330.466 224.806
L330.912 221.639
L331.358 221.94
L331.805 181.861
L332.698 220.773
L333.144 222.87
L333.59 226.472
L334.037 102.315
L334.483 220.93
L334.93 224.568
L335.376 216.713
L335.822 128.288
L336.269 227.296
L337.162 223.037
L337.608 200.781
L338.054 226.376
L338.501 215.396
L338.947 222.426
L339.394 224.116
L339.84 217.708
L340.286 151.3
L340.733 221.201
L341.179 221.865
L341.626 221.749
L342.072 207.71
L342.518 141.132
L342.965 218.938
L343.411 217.809
L343.858 219.588
L344.304 222.262
L344.75 211.408
L345.197 215.734
L345.643 222.13
L346.09 210.528
L346.536 103.059
L346.982 219.517
L347.429 166.036
L347.875 212.307
L348.322 80.7596
L348.768 215.232
L349.214 211.414
L349.661 213.095
L350.107 219.25
L350.554 204.108
L351 209.284
L351.446 211.229
L351.893 223.741
L352.339 187.872
L352.786 213.545
L353.232 212.939
L353.678 236.852
L354.125 207.166
L354.571 213.996
L355.018 131.486
L355.464 207.871
L355.91 208.266
L356.357 206.933
L356.803 214.53
L357.25 210.262
L357.696 208.639
L358.142 202.745
L358.589 128.731
L359.035 205.388
L359.482 202.565
L359.928 202.298
L360.374 223.378
L360.821 162.015
L361.267 54.1775
L361.714 223.613
L362.16 174.243
L362.606 173.643
L363.053 203.072
L363.499 204.099
L363.946 191.899
L364.392 194.231
L364.838 191.778
L365.285 195.248
L365.731 191.404
L366.178 197.332
L366.624 137.855
L367.07 190.945
L367.517 88.7136
L367.963 186.722
L368.41 182.754
L368.856 185.861
L369.302 152.735
L369.749 181.939
L370.195 180.195
L370.642 180.545
L371.088 134.353
L371.534 185.127
L371.981 182.89
L372.427 183.088
L372.874 173.482
L373.32 173.869
L373.766 169.533
L374.213 175.225
L374.659 173.149
L375.106 170.101
L375.552 169.455
L375.998 171.133
L376.445 168.032
L376.891 235.856
L377.338 238.915
L377.784 246.505
L378.23 237.261
L378.677 247.311
L379.123 241.307
L379.57 221.007
L380.016 236.281
L380.462 113.113
L380.909 244.447
L381.802 248.018
L382.248 247.233
L382.694 170.382
L383.141 236.202
L383.587 200.487
L384.034 247.368
L384.48 243.656
L384.926 247.991
L385.373 232.089
L385.819 243.573
L386.266 239.02
L386.712 247.309
L387.158 155.519
L387.605 241.966
L388.051 142.484
L388.498 243.525
L388.944 239.908
L389.39 242.526
L389.837 240.595
L390.283 241.381
L390.73 232.835
L391.176 245.45
L391.622 236.098
L392.069 245.169
L392.515 233.827
L392.962 242.115
L393.408 231.716
L393.854 166.793
L394.301 211.372
L394.747 241.243
L395.194 236.13
L395.64 244.645
L396.086 231.93
L396.533 239.139
L396.979 236.301
L397.426 244.621
L397.872 229.093
L398.318 243.332
L398.765 230.221
L399.211 241.128
L399.658 233.095
L400.104 243.046
L400.55 231.189
L400.997 240.432
L401.443 232.424
L401.89 240.498
L402.336 233.166
L402.782 238.102
L403.229 235.228
L403.675 238.724
L404.122 229.509
L404.568 133.252
L405.014 234.153
L405.461 232.98
L405.907 229.23
L406.354 236.971
L406.8 194.206
L407.246 233.204
L407.693 237.64
L408.139 237.323
L408.586 237.769
L409.032 237.021
L409.478 233.166
L409.925 239.389
L410.371 229.624
L410.818 237.457
L411.264 165.266
L411.71 232.442
L412.603 238.402
L413.05 226.491
L413.496 234.57
L413.942 226.275
L414.389 235.937
L414.835 226.546
L415.282 234.692
L415.728 153.026
L416.174 240.451
L416.621 221.332
L417.067 235.718
L417.514 227.932
L417.96 234.213
L418.406 224.468
L418.853 83.9972
L419.299 212.386
L419.746 224.822
L420.192 159.522
L420.638 231.657
L421.085 239.82
L421.531 189.888
L421.978 225.291
L422.424 222.838
L422.87 235.681
L423.317 223.16
L423.763 231.341
L424.21 223.399
L424.656 232.174
L425.102 223.165
L425.549 230.447
L425.995 224.626
L426.442 231.806
L426.888 222.842
L427.334 231.947
L427.781 225.861
L428.227 224.982
L428.674 231.016
L429.12 219.715
L429.566 125.28
L430.013 233.413
L430.459 187.45
L430.906 230.751
L431.352 225.155
L431.798 222.524
L432.245 213.453
L432.691 220.341
L433.138 212.861
L433.584 215.727
L434.03 212.992
L434.477 225.305
L434.923 215.503
L435.37 223.311
L435.816 221.74
L436.262 212.573
L436.709 222.133
L437.155 178.952
L437.602 171.246
L438.048 217.404
L438.494 214.221
L438.941 220.86
L439.387 224.605
L439.834 215.397
L440.28 221.389
L440.726 224.996
L441.173 213.243
L442.066 229.126
L442.512 209.937
L442.958 221.572
L443.405 224.189
L443.851 213.893
L444.298 221.598
L444.744 223.606
L445.19 208.708
L445.637 218.182
L446.083 224.187
L446.53 214.635
L446.976 215.553
L447.422 227.681
L447.869 210.162
L448.315 218.528
L448.762 219.195
L449.208 209.087
L450.101 223.487
L450.547 209.122
L450.994 215.349
L451.44 223.412
L451.886 210.05
L452.333 201.71
L452.779 218.257
L453.226 220.571
L453.672 207.5
L454.118 212.317
L454.565 221.746
L455.011 206.042
L455.458 212.212
L455.904 219.939
L456.35 210.18
L456.797 212.37
L457.243 208.785
L457.69 208.469
L458.136 214.426
L458.582 212.236
L459.029 200.107
L459.475 205.758
L459.922 220.296
L460.368 213.187
L460.814 198.979
L461.261 204.884
L461.707 222.422
L462.154 194.876
L462.6 209.517
L463.046 197.008
L463.493 205.788
L463.939 199.62
L464.386 202.611
L464.832 201.758
L465.278 224.67
L465.725 195.219
L466.171 197.209
L466.618 199.852
L467.064 196.032
L467.51 205.345
L467.957 187.205
L468.403 197.065
L468.85 195.085
L469.296 195.696
L469.742 197.141
L470.189 197.828
L471.082 185.948
L471.528 188.095
L471.974 187.452
L472.421 193.43
L472.867 187.75
L473.314 190.125
L473.76 189.035
L474.206 186.271
L474.653 189.864
L475.099 186.922
L475.546 189.799
L475.992 189.964
L476.438 189.017
L476.885 178.785
L477.331 176.08
L477.778 186.741
L478.224 171.526
L478.67 169.52
L479.117 173.65
L479.563 173.706
L480.01 192.814
L480.456 248.048
L480.902 246.349
L481.349 247.766
L481.795 247.951
L482.242 247.7
L482.688 245.659
L483.134 247.904
L483.581 248.383
L484.027 246.931
L484.474 247.977
L484.92 248.153
L485.366 247.188
L485.813 248.581
L486.259 245.557
L486.706 245.083
L487.152 245.337
L487.598 247.788
L488.491 244.594
L488.938 243.691
L489.384 248.201
L489.83 236.824
L490.277 246.357
L490.723 231.644
L491.17 243.518
L491.616 237.26
L492.062 244.828
L492.509 240.029
L492.955 245.997
L493.402 237.277
L493.848 247.126
L494.294 234.482
L494.741 244.984
L495.187 230.96
L495.634 243.552
L496.08 237.514
L496.526 243.77
L496.973 238.687
L497.419 245.296
L497.866 234.63
L498.312 242.693
L498.758 234.999
L499.205 242.654
L499.651 231.808
L500.098 242.778
L500.544 234.8
L500.99 243.053
L501.437 235.201
L501.883 245.238
L502.33 231.661
L502.776 243.727
L503.222 235.527
L503.669 245.639
L504.115 232.947
L504.562 245.084
L505.008 232.71
L505.454 241.426
L505.901 233.314
L506.347 244.933
L506.794 232.921
L507.24 239.958
L507.686 230.448
L508.133 240.229
L508.579 232.637
L509.026 237.324
L509.472 231.304
L509.918 236.664
L510.365 232.473
L510.811 239.624
L511.258 233.376
L511.704 240.074
L512.15 229.548
L512.597 239.469
L513.043 230.998
L513.49 241.479
L513.936 228.256
L514.382 239.303
L514.829 230.306
L515.275 236.052
L515.722 226.659
L516.168 239.483
L516.614 228.673
L517.061 236.539
L517.507 229.151
L517.954 237.481
L517.954 237.481" style="fill:none;opacity:0.5;stroke:#0000ff;"/>
   </g>
   <g id="matplotlib.axis_1">
    <g id="xtick_1">
     <g id="line2d_4">
      <path clip-path="url(#p7ff5b81e1d)" d="
M72 388.8
L72 43.2" style="fill:none;stroke:#000000;stroke-dasharray:1.000000,3.000000;stroke-dashoffset:0.0;stroke-linecap:butt;stroke-width:0.5;"/>
     </g>
     <g id="line2d_5">
      <defs>
       <path d="
M0 0
L0 -4" id="m0012dd4eef" style="stroke:#000000;stroke-linecap:butt;stroke-width:0.5;"/>
      </defs>
      <g>
       <use style="stroke:#000000;stroke-linecap:butt;stroke-width:0.5;" x="72.0" xlink:href="#m0012dd4eef" y="388.8"/>
      </g>
     </g>
     <g id="line2d_6">
      <defs>
       <path d="
M0 0
L0 4" id="m476344969c" style="stroke:#000000;stroke-linecap:butt;stroke-width:0.5;"/>
      </defs>
      <g>
       <use style="stroke:#000000;stroke-linecap:butt;stroke-width:0.5;" x="72.0" xlink:href="#m476344969c" y="43.2"/>
      </g>
     </g>
     <g id="text_1">
      <!-- 0 -->
      <defs>
       <path d="
M31.7812 66.4062
Q24.1719 66.4062 20.3281 58.9062
Q16.5 51.4219 16.5 36.375
Q16.5 21.3906 20.3281 13.8906
Q24.1719 6.39062 31.7812 6.39062
Q39.4531 6.39062 43.2812 13.8906
Q47.125 21.3906 47.125 36.375
Q47.125 51.4219 43.2812 58.9062
Q39.4531 66.4062 31.7812 66.4062
M31.7812 74.2188
Q44.0469 74.2188 50.5156 64.5156
Q56.9844 54.8281 56.9844 36.375
Q56.9844 17.9688 50.5156 8.26562
Q44.0469 -1.42188 31.7812 -1.42188
Q19.5312 -1.42188 13.0625 8.26562
Q6.59375 17.9688 6.59375 36.375
Q6.59375 54.8281 13.0625 64.5156
Q19.5312 74.2188 31.7812 74.2188" id="BitstreamVeraSans-Roman-30"/>
      </defs>
      <g transform="translate(68.9765625 401.70625)scale(0.12 -0.12)">
       <use xlink:href="#BitstreamVeraSans-Roman-30"/>
      </g>
     </g>
    </g>
    <g id="xtick_2">
     <g id="line2d_7">
      <path clip-path="url(#p7ff5b81e1d)" d="
M116.64 388.8
L116.64 43.2" style="fill:none;stroke:#000000;stroke-dasharray:1.000000,3.000000;stroke-dashoffset:0.0;stroke-linecap:butt;stroke-width:0.5;"/>
     </g>
     <g id="line2d_8">
      <g>
       <use style="stroke:#000000;stroke-linecap:butt;stroke-width:0.5;" x="116.64" xlink:href="#m0012dd4eef" y="388.8"/>
      </g>
     </g>
     <g id="line2d_9">
      <g>
       <use style="stroke:#000000;stroke-linecap:butt;stroke-width:0.5;" x="116.64" xlink:href="#m476344969c" y="43.2"/>
      </g>
     </g>
     <g id="text_2">
      <!-- 100 -->
      <defs>
       <path d="
M12.4062 8.29688
L28.5156 8.29688
L28.5156 63.9219
L10.9844 60.4062
L10.9844 69.3906
L28.4219 72.9062
L38.2812 72.9062
L38.2812 8.29688
L54.3906 8.29688
L54.3906 0
L12.4062 0
z
" id="BitstreamVeraSans-Roman-31"/>
      </defs>
      <g transform="translate(106.245 401.70625)scale(0.12 -0.12)">
       <use xlink:href="#BitstreamVeraSans-Roman-31"/>
       <use x="63.623046875" xlink:href="#BitstreamVeraSans-Roman-30"/>
       <use x="127.24609375" xlink:href="#BitstreamVeraSans-Roman-30"/>
      </g>
     </g>
    </g>
    <g id="xtick_3">
     <g id="line2d_10">
      <path clip-path="url(#p7ff5b81e1d)" d="
M161.28 388.8
L161.28 43.2" style="fill:none;stroke:#000000;stroke-dasharray:1.000000,3.000000;stroke-dashoffset:0.0;stroke-linecap:butt;stroke-width:0.5;"/>
     </g>
     <g id="line2d_11">
      <g>
       <use style="stroke:#000000;stroke-linecap:butt;stroke-width:0.5;" x="161.28" xlink:href="#m0012dd4eef" y="388.8"/>
      </g>
     </g>
     <g id="line2d_12">
      <g>
       <use style="stroke:#000000;stroke-linecap:butt;stroke-width:0.5;" x="161.28" xlink:href="#m476344969c" y="43.2"/>
      </g>
     </g>
     <g id="text_3">
      <!-- 200 -->
      <defs>
       <path d="
M19.1875 8.29688
L53.6094 8.29688
L53.6094 0
L7.32812 0
L7.32812 8.29688
Q12.9375 14.1094 22.625 23.8906
Q32.3281 33.6875 34.8125 36.5312
Q39.5469 41.8438 41.4219 45.5312
Q43.3125 49.2188 43.3125 52.7812
Q43.3125 58.5938 39.2344 62.25
Q35.1562 65.9219 28.6094 65.9219
Q23.9688 65.9219 18.8125 64.3125
Q13.6719 62.7031 7.8125 59.4219
L7.8125 69.3906
Q13.7656 71.7812 18.9375 73
Q24.125 74.2188 28.4219 74.2188
Q39.75 74.2188 46.4844 68.5469
Q53.2188 62.8906 53.2188 53.4219
Q53.2188 48.9219 51.5312 44.8906
Q49.8594 40.875 45.4062 35.4062
Q44.1875 33.9844 37.6406 27.2188
Q31.1094 20.4531 19.1875 8.29688" id="BitstreamVeraSans-Roman-32"/>
      </defs>
      <g transform="translate(150.665625 401.70625)scale(0.12 -0.12)">
       <use xlink:href="#BitstreamVeraSans-Roman-32"/>
       <use x="63.623046875" xlink:href="#BitstreamVeraSans-Roman-30"/>
       <use x="127.24609375" xlink:href="#BitstreamVeraSans-Roman-30"/>
      </g>
     </g>
    </g>
    <g id="xtick_4">
     <g id="line2d_13">
      <path clip-path="url(#p7ff5b81e1d)" d="
M205.92 388.8
L205.92 43.2" style="fill:none;stroke:#000000;stroke-dasharray:1.000000,3.000000;stroke-dashoffset:0.0;stroke-linecap:butt;stroke-width:0.5;"/>
     </g>
     <g id="line2d_14">
      <g>
       <use style="stroke:#000000;stroke-linecap:butt;stroke-width:0.5;" x="205.92" xlink:href="#m0012dd4eef" y="388.8"/>
      </g>
     </g>
     <g id="line2d_15">
      <g>
       <use style="stroke:#000000;stroke-linecap:butt;stroke-width:0.5;" x="205.92" xlink:href="#m476344969c" y="43.2"/>
      </g>
     </g>
     <g id="text_4">
      <!-- 300 -->
      <defs>
       <path d="
M40.5781 39.3125
Q47.6562 37.7969 51.625 33
Q55.6094 28.2188 55.6094 21.1875
Q55.6094 10.4062 48.1875 4.48438
Q40.7656 -1.42188 27.0938 -1.42188
Q22.5156 -1.42188 17.6562 -0.515625
Q12.7969 0.390625 7.625 2.20312
L7.625 11.7188
Q11.7188 9.32812 16.5938 8.10938
Q21.4844 6.89062 26.8125 6.89062
Q36.0781 6.89062 40.9375 10.5469
Q45.7969 14.2031 45.7969 21.1875
Q45.7969 27.6406 41.2812 31.2656
Q36.7656 34.9062 28.7188 34.9062
L20.2188 34.9062
L20.2188 43.0156
L29.1094 43.0156
Q36.375 43.0156 40.2344 45.9219
Q44.0938 48.8281 44.0938 54.2969
Q44.0938 59.9062 40.1094 62.9062
Q36.1406 65.9219 28.7188 65.9219
Q24.6562 65.9219 20.0156 65.0312
Q15.375 64.1562 9.8125 62.3125
L9.8125 71.0938
Q15.4375 72.6562 20.3438 73.4375
Q25.25 74.2188 29.5938 74.2188
Q40.8281 74.2188 47.3594 69.1094
Q53.9062 64.0156 53.9062 55.3281
Q53.9062 49.2656 50.4375 45.0938
Q46.9688 40.9219 40.5781 39.3125" id="BitstreamVeraSans-Roman-33"/>
      </defs>
      <g transform="translate(195.3234375 401.70625)scale(0.12 -0.12)">
       <use xlink:href="#BitstreamVeraSans-Roman-33"/>
       <use x="63.623046875" xlink:href="#BitstreamVeraSans-Roman-30"/>
       <use x="127.24609375" xlink:href="#BitstreamVeraSans-Roman-30"/>
      </g>
     </g>
    </g>
    <g id="xtick_5">
     <g id="line2d_16">
      <path clip-path="url(#p7ff5b81e1d)" d="
M250.56 388.8
L250.56 43.2" style="fill:none;stroke:#000000;stroke-dasharray:1.000000,3.000000;stroke-dashoffset:0.0;stroke-linecap:butt;stroke-width:0.5;"/>
     </g>
     <g id="line2d_17">
      <g>
       <use style="stroke:#000000;stroke-linecap:butt;stroke-width:0.5;" x="250.56" xlink:href="#m0012dd4eef" y="388.8"/>
      </g>
     </g>
     <g id="line2d_18">
      <g>
       <use style="stroke:#000000;stroke-linecap:butt;stroke-width:0.5;" x="250.56" xlink:href="#m476344969c" y="43.2"/>
      </g>
     </g>
     <g id="text_5">
      <!-- 400 -->
      <defs>
       <path d="
M37.7969 64.3125
L12.8906 25.3906
L37.7969 25.3906
z

M35.2031 72.9062
L47.6094 72.9062
L47.6094 25.3906
L58.0156 25.3906
L58.0156 17.1875
L47.6094 17.1875
L47.6094 0
L37.7969 0
L37.7969 17.1875
L4.89062 17.1875
L4.89062 26.7031
z
" id="BitstreamVeraSans-Roman-34"/>
      </defs>
      <g transform="translate(239.799375 401.70625)scale(0.12 -0.12)">
       <use xlink:href="#BitstreamVeraSans-Roman-34"/>
       <use x="63.623046875" xlink:href="#BitstreamVeraSans-Roman-30"/>
       <use x="127.24609375" xlink:href="#BitstreamVeraSans-Roman-30"/>
      </g>
     </g>
    </g>
    <g id="xtick_6">
     <g id="line2d_19">
      <path clip-path="url(#p7ff5b81e1d)" d="
M295.2 388.8
L295.2 43.2" style="fill:none;stroke:#000000;stroke-dasharray:1.000000,3.000000;stroke-dashoffset:0.0;stroke-linecap:butt;stroke-width:0.5;"/>
     </g>
     <g id="line2d_20">
      <g>
       <use style="stroke:#000000;stroke-linecap:butt;stroke-width:0.5;" x="295.2" xlink:href="#m0012dd4eef" y="388.8"/>
      </g>
     </g>
     <g id="line2d_21">
      <g>
       <use style="stroke:#000000;stroke-linecap:butt;stroke-width:0.5;" x="295.2" xlink:href="#m476344969c" y="43.2"/>
      </g>
     </g>
     <g id="text_6">
      <!-- 500 -->
      <defs>
       <path d="
M10.7969 72.9062
L49.5156 72.9062
L49.5156 64.5938
L19.8281 64.5938
L19.8281 46.7344
Q21.9688 47.4688 24.1094 47.8281
Q26.2656 48.1875 28.4219 48.1875
Q40.625 48.1875 47.75 41.5
Q54.8906 34.8125 54.8906 23.3906
Q54.8906 11.625 47.5625 5.09375
Q40.2344 -1.42188 26.9062 -1.42188
Q22.3125 -1.42188 17.5469 -0.640625
Q12.7969 0.140625 7.71875 1.70312
L7.71875 11.625
Q12.1094 9.23438 16.7969 8.0625
Q21.4844 6.89062 26.7031 6.89062
Q35.1562 6.89062 40.0781 11.3281
Q45.0156 15.7656 45.0156 23.3906
Q45.0156 31 40.0781 35.4375
Q35.1562 39.8906 26.7031 39.8906
Q22.75 39.8906 18.8125 39.0156
Q14.8906 38.1406 10.7969 36.2812
z
" id="BitstreamVeraSans-Roman-35"/>
      </defs>
      <g transform="translate(284.6090625 401.70625)scale(0.12 -0.12)">
       <use xlink:href="#BitstreamVeraSans-Roman-35"/>
       <use x="63.623046875" xlink:href="#BitstreamVeraSans-Roman-30"/>
       <use x="127.24609375" xlink:href="#BitstreamVeraSans-Roman-30"/>
      </g>
     </g>
    </g>
    <g id="xtick_7">
     <g id="line2d_22">
      <path clip-path="url(#p7ff5b81e1d)" d="
M339.84 388.8
L339.84 43.2" style="fill:none;stroke:#000000;stroke-dasharray:1.000000,3.000000;stroke-dashoffset:0.0;stroke-linecap:butt;stroke-width:0.5;"/>
     </g>
     <g id="line2d_23">
      <g>
       <use style="stroke:#000000;stroke-linecap:butt;stroke-width:0.5;" x="339.84" xlink:href="#m0012dd4eef" y="388.8"/>
      </g>
     </g>
     <g id="line2d_24">
      <g>
       <use style="stroke:#000000;stroke-linecap:butt;stroke-width:0.5;" x="339.84" xlink:href="#m476344969c" y="43.2"/>
      </g>
     </g>
     <g id="text_7">
      <!-- 600 -->
      <defs>
       <path d="
M33.0156 40.375
Q26.375 40.375 22.4844 35.8281
Q18.6094 31.2969 18.6094 23.3906
Q18.6094 15.5312 22.4844 10.9531
Q26.375 6.39062 33.0156 6.39062
Q39.6562 6.39062 43.5312 10.9531
Q47.4062 15.5312 47.4062 23.3906
Q47.4062 31.2969 43.5312 35.8281
Q39.6562 40.375 33.0156 40.375
M52.5938 71.2969
L52.5938 62.3125
Q48.875 64.0625 45.0938 64.9844
Q41.3125 65.9219 37.5938 65.9219
Q27.8281 65.9219 22.6719 59.3281
Q17.5312 52.7344 16.7969 39.4062
Q19.6719 43.6562 24.0156 45.9219
Q28.375 48.1875 33.5938 48.1875
Q44.5781 48.1875 50.9531 41.5156
Q57.3281 34.8594 57.3281 23.3906
Q57.3281 12.1562 50.6875 5.35938
Q44.0469 -1.42188 33.0156 -1.42188
Q20.3594 -1.42188 13.6719 8.26562
Q6.98438 17.9688 6.98438 36.375
Q6.98438 53.6562 15.1875 63.9375
Q23.3906 74.2188 37.2031 74.2188
Q40.9219 74.2188 44.7031 73.4844
Q48.4844 72.75 52.5938 71.2969" id="BitstreamVeraSans-Roman-36"/>
      </defs>
      <g transform="translate(329.205 401.70625)scale(0.12 -0.12)">
       <use xlink:href="#BitstreamVeraSans-Roman-36"/>
       <use x="63.623046875" xlink:href="#BitstreamVeraSans-Roman-30"/>
       <use x="127.24609375" xlink:href="#BitstreamVeraSans-Roman-30"/>
      </g>
     </g>
    </g>
    <g id="xtick_8">
     <g id="line2d_25">
      <path clip-path="url(#p7ff5b81e1d)" d="
M384.48 388.8
L384.48 43.2" style="fill:none;stroke:#000000;stroke-dasharray:1.000000,3.000000;stroke-dashoffset:0.0;stroke-linecap:butt;stroke-width:0.5;"/>
     </g>
     <g id="line2d_26">
      <g>
       <use style="stroke:#000000;stroke-linecap:butt;stroke-width:0.5;" x="384.48" xlink:href="#m0012dd4eef" y="388.8"/>
      </g>
     </g>
     <g id="line2d_27">
      <g>
       <use style="stroke:#000000;stroke-linecap:butt;stroke-width:0.5;" x="384.48" xlink:href="#m476344969c" y="43.2"/>
      </g>
     </g>
     <g id="text_8">
      <!-- 700 -->
      <defs>
       <path d="
M8.20312 72.9062
L55.0781 72.9062
L55.0781 68.7031
L28.6094 0
L18.3125 0
L43.2188 64.5938
L8.20312 64.5938
z
" id="BitstreamVeraSans-Roman-37"/>
      </defs>
      <g transform="translate(373.918125 401.70625)scale(0.12 -0.12)">
       <use xlink:href="#BitstreamVeraSans-Roman-37"/>
       <use x="63.623046875" xlink:href="#BitstreamVeraSans-Roman-30"/>
       <use x="127.24609375" xlink:href="#BitstreamVeraSans-Roman-30"/>
      </g>
     </g>
    </g>
    <g id="xtick_9">
     <g id="line2d_28">
      <path clip-path="url(#p7ff5b81e1d)" d="
M429.12 388.8
L429.12 43.2" style="fill:none;stroke:#000000;stroke-dasharray:1.000000,3.000000;stroke-dashoffset:0.0;stroke-linecap:butt;stroke-width:0.5;"/>
     </g>
     <g id="line2d_29">
      <g>
       <use style="stroke:#000000;stroke-linecap:butt;stroke-width:0.5;" x="429.12" xlink:href="#m0012dd4eef" y="388.8"/>
      </g>
     </g>
     <g id="line2d_30">
      <g>
       <use style="stroke:#000000;stroke-linecap:butt;stroke-width:0.5;" x="429.12" xlink:href="#m476344969c" y="43.2"/>
      </g>
     </g>
     <g id="text_9">
      <!-- 800 -->
      <defs>
       <path d="
M31.7812 34.625
Q24.75 34.625 20.7188 30.8594
Q16.7031 27.0938 16.7031 20.5156
Q16.7031 13.9219 20.7188 10.1562
Q24.75 6.39062 31.7812 6.39062
Q38.8125 6.39062 42.8594 10.1719
Q46.9219 13.9688 46.9219 20.5156
Q46.9219 27.0938 42.8906 30.8594
Q38.875 34.625 31.7812 34.625
M21.9219 38.8125
Q15.5781 40.375 12.0312 44.7188
Q8.5 49.0781 8.5 55.3281
Q8.5 64.0625 14.7188 69.1406
Q20.9531 74.2188 31.7812 74.2188
Q42.6719 74.2188 48.875 69.1406
Q55.0781 64.0625 55.0781 55.3281
Q55.0781 49.0781 51.5312 44.7188
Q48 40.375 41.7031 38.8125
Q48.8281 37.1562 52.7969 32.3125
Q56.7812 27.4844 56.7812 20.5156
Q56.7812 9.90625 50.3125 4.23438
Q43.8438 -1.42188 31.7812 -1.42188
Q19.7344 -1.42188 13.25 4.23438
Q6.78125 9.90625 6.78125 20.5156
Q6.78125 27.4844 10.7812 32.3125
Q14.7969 37.1562 21.9219 38.8125
M18.3125 54.3906
Q18.3125 48.7344 21.8438 45.5625
Q25.3906 42.3906 31.7812 42.3906
Q38.1406 42.3906 41.7188 45.5625
Q45.3125 48.7344 45.3125 54.3906
Q45.3125 60.0625 41.7188 63.2344
Q38.1406 66.4062 31.7812 66.4062
Q25.3906 66.4062 21.8438 63.2344
Q18.3125 60.0625 18.3125 54.3906" id="BitstreamVeraSans-Roman-38"/>
      </defs>
      <g transform="translate(418.4728125 401.70625)scale(0.12 -0.12)">
       <use xlink:href="#BitstreamVeraSans-Roman-38"/>
       <use x="63.623046875" xlink:href="#BitstreamVeraSans-Roman-30"/>
       <use x="127.24609375" xlink:href="#BitstreamVeraSans-Roman-30"/>
      </g>
     </g>
    </g>
    <g id="xtick_10">
     <g id="line2d_31">
      <path clip-path="url(#p7ff5b81e1d)" d="
M473.76 388.8
L473.76 43.2" style="fill:none;stroke:#000000;stroke-dasharray:1.000000,3.000000;stroke-dashoffset:0.0;stroke-linecap:butt;stroke-width:0.5;"/>
     </g>
     <g id="line2d_32">
      <g>
       <use style="stroke:#000000;stroke-linecap:butt;stroke-width:0.5;" x="473.76" xlink:href="#m0012dd4eef" y="388.8"/>
      </g>
     </g>
     <g id="line2d_33">
      <g>
       <use style="stroke:#000000;stroke-linecap:butt;stroke-width:0.5;" x="473.76" xlink:href="#m476344969c" y="43.2"/>
      </g>
     </g>
     <g id="text_10">
      <!-- 900 -->
      <defs>
       <path d="
M10.9844 1.51562
L10.9844 10.5
Q14.7031 8.73438 18.5 7.8125
Q22.3125 6.89062 25.9844 6.89062
Q35.75 6.89062 40.8906 13.4531
Q46.0469 20.0156 46.7812 33.4062
Q43.9531 29.2031 39.5938 26.9531
Q35.25 24.7031 29.9844 24.7031
Q19.0469 24.7031 12.6719 31.3125
Q6.29688 37.9375 6.29688 49.4219
Q6.29688 60.6406 12.9375 67.4219
Q19.5781 74.2188 30.6094 74.2188
Q43.2656 74.2188 49.9219 64.5156
Q56.5938 54.8281 56.5938 36.375
Q56.5938 19.1406 48.4062 8.85938
Q40.2344 -1.42188 26.4219 -1.42188
Q22.7031 -1.42188 18.8906 -0.6875
Q15.0938 0.046875 10.9844 1.51562
M30.6094 32.4219
Q37.25 32.4219 41.125 36.9531
Q45.0156 41.5 45.0156 49.4219
Q45.0156 57.2812 41.125 61.8438
Q37.25 66.4062 30.6094 66.4062
Q23.9688 66.4062 20.0938 61.8438
Q16.2188 57.2812 16.2188 49.4219
Q16.2188 41.5 20.0938 36.9531
Q23.9688 32.4219 30.6094 32.4219" id="BitstreamVeraSans-Roman-39"/>
      </defs>
      <g transform="translate(463.08375 401.70625)scale(0.12 -0.12)">
       <use xlink:href="#BitstreamVeraSans-Roman-39"/>
       <use x="63.623046875" xlink:href="#BitstreamVeraSans-Roman-30"/>
       <use x="127.24609375" xlink:href="#BitstreamVeraSans-Roman-30"/>
      </g>
     </g>
    </g>
   </g>
   <g id="matplotlib.axis_2">
    <g id="ytick_1">
     <g id="line2d_34">
      <path clip-path="url(#p7ff5b81e1d)" d="
M72 388.8
L518.4 388.8" style="fill:none;stroke:#000000;stroke-dasharray:1.000000,3.000000;stroke-dashoffset:0.0;stroke-linecap:butt;stroke-width:0.5;"/>
     </g>
     <g id="line2d_35">
      <defs>
       <path d="
M0 0
L4 0" id="me8a85f7bf6" style="stroke:#000000;stroke-linecap:butt;stroke-width:0.5;"/>
      </defs>
      <g>
       <use style="stroke:#000000;stroke-linecap:butt;stroke-width:0.5;" x="72.0" xlink:href="#me8a85f7bf6" y="388.8"/>
      </g>
     </g>
     <g id="line2d_36">
      <defs>
       <path d="
M0 0
L-4 0" id="m1a32005dea" style="stroke:#000000;stroke-linecap:butt;stroke-width:0.5;"/>
      </defs>
      <g>
       <use style="stroke:#000000;stroke-linecap:butt;stroke-width:0.5;" x="518.4" xlink:href="#m1a32005dea" y="388.8"/>
      </g>
     </g>
     <g id="text_11">
      <!-- 0 -->
      <g transform="translate(61.953125 393.1678125)scale(0.12 -0.12)">
       <use xlink:href="#BitstreamVeraSans-Roman-30"/>
      </g>
     </g>
    </g>
    <g id="ytick_2">
     <g id="line2d_37">
      <path clip-path="url(#p7ff5b81e1d)" d="
M72 369.6
L518.4 369.6" style="fill:none;stroke:#000000;stroke-dasharray:1.000000,3.000000;stroke-dashoffset:0.0;stroke-linecap:butt;stroke-width:0.5;"/>
     </g>
     <g id="line2d_38">
      <g>
       <use style="stroke:#000000;stroke-linecap:butt;stroke-width:0.5;" x="72.0" xlink:href="#me8a85f7bf6" y="369.6"/>
      </g>
     </g>
     <g id="line2d_39">
      <g>
       <use style="stroke:#000000;stroke-linecap:butt;stroke-width:0.5;" x="518.4" xlink:href="#m1a32005dea" y="369.6"/>
      </g>
     </g>
     <g id="text_12">
      <!-- 1 -->
      <g transform="translate(62.79125 373.974375)scale(0.12 -0.12)">
       <use xlink:href="#BitstreamVeraSans-Roman-31"/>
      </g>
     </g>
    </g>
    <g id="ytick_3">
     <g id="line2d_40">
      <path clip-path="url(#p7ff5b81e1d)" d="
M72 350.4
L518.4 350.4" style="fill:none;stroke:#000000;stroke-dasharray:1.000000,3.000000;stroke-dashoffset:0.0;stroke-linecap:butt;stroke-width:0.5;"/>
     </g>
     <g id="line2d_41">
      <g>
       <use style="stroke:#000000;stroke-linecap:butt;stroke-width:0.5;" x="72.0" xlink:href="#me8a85f7bf6" y="350.4"/>
      </g>
     </g>
     <g id="line2d_42">
      <g>
       <use style="stroke:#000000;stroke-linecap:butt;stroke-width:0.5;" x="518.4" xlink:href="#m1a32005dea" y="350.4"/>
      </g>
     </g>
     <g id="text_13">
      <!-- 2 -->
      <g transform="translate(62.44625 354.853125)scale(0.12 -0.12)">
       <use xlink:href="#BitstreamVeraSans-Roman-32"/>
      </g>
     </g>
    </g>
    <g id="ytick_4">
     <g id="line2d_43">
      <path clip-path="url(#p7ff5b81e1d)" d="
M72 331.2
L518.4 331.2" style="fill:none;stroke:#000000;stroke-dasharray:1.000000,3.000000;stroke-dashoffset:0.0;stroke-linecap:butt;stroke-width:0.5;"/>
     </g>
     <g id="line2d_44">
      <g>
       <use style="stroke:#000000;stroke-linecap:butt;stroke-width:0.5;" x="72.0" xlink:href="#me8a85f7bf6" y="331.2"/>
      </g>
     </g>
     <g id="line2d_45">
      <g>
       <use style="stroke:#000000;stroke-linecap:butt;stroke-width:0.5;" x="518.4" xlink:href="#m1a32005dea" y="331.2"/>
      </g>
     </g>
     <g id="text_14">
      <!-- 3 -->
      <g transform="translate(62.241875 335.5678125)scale(0.12 -0.12)">
       <use xlink:href="#BitstreamVeraSans-Roman-33"/>
      </g>
     </g>
    </g>
    <g id="ytick_5">
     <g id="line2d_46">
      <path clip-path="url(#p7ff5b81e1d)" d="
M72 312
L518.4 312" style="fill:none;stroke:#000000;stroke-dasharray:1.000000,3.000000;stroke-dashoffset:0.0;stroke-linecap:butt;stroke-width:0.5;"/>
     </g>
     <g id="line2d_47">
      <g>
       <use style="stroke:#000000;stroke-linecap:butt;stroke-width:0.5;" x="72.0" xlink:href="#me8a85f7bf6" y="312.0"/>
      </g>
     </g>
     <g id="line2d_48">
      <g>
       <use style="stroke:#000000;stroke-linecap:butt;stroke-width:0.5;" x="518.4" xlink:href="#m1a32005dea" y="312.0"/>
      </g>
     </g>
     <g id="text_15">
      <!-- 4 -->
      <g transform="translate(61.625 316.374375)scale(0.12 -0.12)">
       <use xlink:href="#BitstreamVeraSans-Roman-34"/>
      </g>
     </g>
    </g>
    <g id="ytick_6">
     <g id="line2d_49">
      <path clip-path="url(#p7ff5b81e1d)" d="
M72 292.8
L518.4 292.8" style="fill:none;stroke:#000000;stroke-dasharray:1.000000,3.000000;stroke-dashoffset:0.0;stroke-linecap:butt;stroke-width:0.5;"/>
     </g>
     <g id="line2d_50">
      <g>
       <use style="stroke:#000000;stroke-linecap:butt;stroke-width:0.5;" x="72.0" xlink:href="#me8a85f7bf6" y="292.8"/>
      </g>
     </g>
     <g id="line2d_51">
      <g>
       <use style="stroke:#000000;stroke-linecap:butt;stroke-width:0.5;" x="518.4" xlink:href="#m1a32005dea" y="292.8"/>
      </g>
     </g>
     <g id="text_16">
      <!-- 5 -->
      <g transform="translate(62.339375 297.0890625)scale(0.12 -0.12)">
       <use xlink:href="#BitstreamVeraSans-Roman-35"/>
      </g>
     </g>
    </g>
    <g id="ytick_7">
     <g id="line2d_52">
      <path clip-path="url(#p7ff5b81e1d)" d="
M72 273.6
L518.4 273.6" style="fill:none;stroke:#000000;stroke-dasharray:1.000000,3.000000;stroke-dashoffset:0.0;stroke-linecap:butt;stroke-width:0.5;"/>
     </g>
     <g id="line2d_53">
      <g>
       <use style="stroke:#000000;stroke-linecap:butt;stroke-width:0.5;" x="72.0" xlink:href="#me8a85f7bf6" y="273.6"/>
      </g>
     </g>
     <g id="line2d_54">
      <g>
       <use style="stroke:#000000;stroke-linecap:butt;stroke-width:0.5;" x="518.4" xlink:href="#m1a32005dea" y="273.6"/>
      </g>
     </g>
     <g id="text_17">
      <!-- 6 -->
      <g transform="translate(61.95875 277.9678125)scale(0.12 -0.12)">
       <use xlink:href="#BitstreamVeraSans-Roman-36"/>
      </g>
     </g>
    </g>
    <g id="ytick_8">
     <g id="line2d_55">
      <path clip-path="url(#p7ff5b81e1d)" d="
M72 254.4
L518.4 254.4" style="fill:none;stroke:#000000;stroke-dasharray:1.000000,3.000000;stroke-dashoffset:0.0;stroke-linecap:butt;stroke-width:0.5;"/>
     </g>
     <g id="line2d_56">
      <g>
       <use style="stroke:#000000;stroke-linecap:butt;stroke-width:0.5;" x="72.0" xlink:href="#me8a85f7bf6" y="254.4"/>
      </g>
     </g>
     <g id="line2d_57">
      <g>
       <use style="stroke:#000000;stroke-linecap:butt;stroke-width:0.5;" x="518.4" xlink:href="#m1a32005dea" y="254.4"/>
      </g>
     </g>
     <g id="text_18">
      <!-- 7 -->
      <g transform="translate(62.375 258.774375)scale(0.12 -0.12)">
       <use xlink:href="#BitstreamVeraSans-Roman-37"/>
      </g>
     </g>
    </g>
    <g id="ytick_9">
     <g id="line2d_58">
      <path clip-path="url(#p7ff5b81e1d)" d="
M72 235.2
L518.4 235.2" style="fill:none;stroke:#000000;stroke-dasharray:1.000000,3.000000;stroke-dashoffset:0.0;stroke-linecap:butt;stroke-width:0.5;"/>
     </g>
     <g id="line2d_59">
      <g>
       <use style="stroke:#000000;stroke-linecap:butt;stroke-width:0.5;" x="72.0" xlink:href="#me8a85f7bf6" y="235.2"/>
      </g>
     </g>
     <g id="line2d_60">
      <g>
       <use style="stroke:#000000;stroke-linecap:butt;stroke-width:0.5;" x="518.4" xlink:href="#m1a32005dea" y="235.2"/>
      </g>
     </g>
     <g id="text_19">
      <!-- 8 -->
      <g transform="translate(62.0 239.5678125)scale(0.12 -0.12)">
       <use xlink:href="#BitstreamVeraSans-Roman-38"/>
      </g>
     </g>
    </g>
    <g id="ytick_10">
     <g id="line2d_61">
      <path clip-path="url(#p7ff5b81e1d)" d="
M72 216
L518.4 216" style="fill:none;stroke:#000000;stroke-dasharray:1.000000,3.000000;stroke-dashoffset:0.0;stroke-linecap:butt;stroke-width:0.5;"/>
     </g>
     <g id="line2d_62">
      <g>
       <use style="stroke:#000000;stroke-linecap:butt;stroke-width:0.5;" x="72.0" xlink:href="#me8a85f7bf6" y="216.0"/>
      </g>
     </g>
     <g id="line2d_63">
      <g>
       <use style="stroke:#000000;stroke-linecap:butt;stroke-width:0.5;" x="518.4" xlink:href="#m1a32005dea" y="216.0"/>
      </g>
     </g>
     <g id="text_20">
      <!-- 9 -->
      <g transform="translate(61.964375 220.3678125)scale(0.12 -0.12)">
       <use xlink:href="#BitstreamVeraSans-Roman-39"/>
      </g>
     </g>
    </g>
    <g id="ytick_11">
     <g id="line2d_64">
      <path clip-path="url(#p7ff5b81e1d)" d="
M72 196.8
L518.4 196.8" style="fill:none;stroke:#000000;stroke-dasharray:1.000000,3.000000;stroke-dashoffset:0.0;stroke-linecap:butt;stroke-width:0.5;"/>
     </g>
     <g id="line2d_65">
      <g>
       <use style="stroke:#000000;stroke-linecap:butt;stroke-width:0.5;" x="72.0" xlink:href="#me8a85f7bf6" y="196.8"/>
      </g>
     </g>
     <g id="line2d_66">
      <g>
       <use style="stroke:#000000;stroke-linecap:butt;stroke-width:0.5;" x="518.4" xlink:href="#m1a32005dea" y="196.8"/>
      </g>
     </g>
     <g id="text_21">
      <!-- 10 -->
      <g transform="translate(54.845 201.1678125)scale(0.12 -0.12)">
       <use xlink:href="#BitstreamVeraSans-Roman-31"/>
       <use x="63.623046875" xlink:href="#BitstreamVeraSans-Roman-30"/>
      </g>
     </g>
    </g>
    <g id="ytick_12">
     <g id="line2d_67">
      <path clip-path="url(#p7ff5b81e1d)" d="
M72 177.6
L518.4 177.6" style="fill:none;stroke:#000000;stroke-dasharray:1.000000,3.000000;stroke-dashoffset:0.0;stroke-linecap:butt;stroke-width:0.5;"/>
     </g>
     <g id="line2d_68">
      <g>
       <use style="stroke:#000000;stroke-linecap:butt;stroke-width:0.5;" x="72.0" xlink:href="#me8a85f7bf6" y="177.6"/>
      </g>
     </g>
     <g id="line2d_69">
      <g>
       <use style="stroke:#000000;stroke-linecap:butt;stroke-width:0.5;" x="518.4" xlink:href="#m1a32005dea" y="177.6"/>
      </g>
     </g>
     <g id="text_22">
      <!-- 11 -->
      <g transform="translate(55.15625 181.974375)scale(0.12 -0.12)">
       <use xlink:href="#BitstreamVeraSans-Roman-31"/>
       <use x="63.623046875" xlink:href="#BitstreamVeraSans-Roman-31"/>
      </g>
     </g>
    </g>
    <g id="ytick_13">
     <g id="line2d_70">
      <path clip-path="url(#p7ff5b81e1d)" d="
M72 158.4
L518.4 158.4" style="fill:none;stroke:#000000;stroke-dasharray:1.000000,3.000000;stroke-dashoffset:0.0;stroke-linecap:butt;stroke-width:0.5;"/>
     </g>
     <g id="line2d_71">
      <g>
       <use style="stroke:#000000;stroke-linecap:butt;stroke-width:0.5;" x="72.0" xlink:href="#me8a85f7bf6" y="158.4"/>
      </g>
     </g>
     <g id="line2d_72">
      <g>
       <use style="stroke:#000000;stroke-linecap:butt;stroke-width:0.5;" x="518.4" xlink:href="#m1a32005dea" y="158.4"/>
      </g>
     </g>
     <g id="text_23">
      <!-- 12 -->
      <g transform="translate(55.25 162.853125)scale(0.12 -0.12)">
       <use xlink:href="#BitstreamVeraSans-Roman-31"/>
       <use x="63.623046875" xlink:href="#BitstreamVeraSans-Roman-32"/>
      </g>
     </g>
    </g>
    <g id="ytick_14">
     <g id="line2d_73">
      <path clip-path="url(#p7ff5b81e1d)" d="
M72 139.2
L518.4 139.2" style="fill:none;stroke:#000000;stroke-dasharray:1.000000,3.000000;stroke-dashoffset:0.0;stroke-linecap:butt;stroke-width:0.5;"/>
     </g>
     <g id="line2d_74">
      <g>
       <use style="stroke:#000000;stroke-linecap:butt;stroke-width:0.5;" x="72.0" xlink:href="#me8a85f7bf6" y="139.2"/>
      </g>
     </g>
     <g id="line2d_75">
      <g>
       <use style="stroke:#000000;stroke-linecap:butt;stroke-width:0.5;" x="518.4" xlink:href="#m1a32005dea" y="139.2"/>
      </g>
     </g>
     <g id="text_24">
      <!-- 13 -->
      <g transform="translate(55.01 143.5678125)scale(0.12 -0.12)">
       <use xlink:href="#BitstreamVeraSans-Roman-31"/>
       <use x="63.623046875" xlink:href="#BitstreamVeraSans-Roman-33"/>
      </g>
     </g>
    </g>
    <g id="ytick_15">
     <g id="line2d_76">
      <path clip-path="url(#p7ff5b81e1d)" d="
M72 120
L518.4 120" style="fill:none;stroke:#000000;stroke-dasharray:1.000000,3.000000;stroke-dashoffset:0.0;stroke-linecap:butt;stroke-width:0.5;"/>
     </g>
     <g id="line2d_77">
      <g>
       <use style="stroke:#000000;stroke-linecap:butt;stroke-width:0.5;" x="72.0" xlink:href="#me8a85f7bf6" y="120.0"/>
      </g>
     </g>
     <g id="line2d_78">
      <g>
       <use style="stroke:#000000;stroke-linecap:butt;stroke-width:0.5;" x="518.4" xlink:href="#m1a32005dea" y="120.0"/>
      </g>
     </g>
     <g id="text_25">
      <!-- 14 -->
      <g transform="translate(54.72125 124.374375)scale(0.12 -0.12)">
       <use xlink:href="#BitstreamVeraSans-Roman-31"/>
       <use x="63.623046875" xlink:href="#BitstreamVeraSans-Roman-34"/>
      </g>
     </g>
    </g>
    <g id="ytick_16">
     <g id="line2d_79">
      <path clip-path="url(#p7ff5b81e1d)" d="
M72 100.8
L518.4 100.8" style="fill:none;stroke:#000000;stroke-dasharray:1.000000,3.000000;stroke-dashoffset:0.0;stroke-linecap:butt;stroke-width:0.5;"/>
     </g>
     <g id="line2d_80">
      <g>
       <use style="stroke:#000000;stroke-linecap:butt;stroke-width:0.5;" x="72.0" xlink:href="#me8a85f7bf6" y="100.8"/>
      </g>
     </g>
     <g id="line2d_81">
      <g>
       <use style="stroke:#000000;stroke-linecap:butt;stroke-width:0.5;" x="518.4" xlink:href="#m1a32005dea" y="100.8"/>
      </g>
     </g>
     <g id="text_26">
      <!-- 15 -->
      <g transform="translate(55.09625 105.0890625)scale(0.12 -0.12)">
       <use xlink:href="#BitstreamVeraSans-Roman-31"/>
       <use x="63.623046875" xlink:href="#BitstreamVeraSans-Roman-35"/>
      </g>
     </g>
    </g>
    <g id="ytick_17">
     <g id="line2d_82">
      <path clip-path="url(#p7ff5b81e1d)" d="
M72 81.6
L518.4 81.6" style="fill:none;stroke:#000000;stroke-dasharray:1.000000,3.000000;stroke-dashoffset:0.0;stroke-linecap:butt;stroke-width:0.5;"/>
     </g>
     <g id="line2d_83">
      <g>
       <use style="stroke:#000000;stroke-linecap:butt;stroke-width:0.5;" x="72.0" xlink:href="#me8a85f7bf6" y="81.6"/>
      </g>
     </g>
     <g id="line2d_84">
      <g>
       <use style="stroke:#000000;stroke-linecap:butt;stroke-width:0.5;" x="518.4" xlink:href="#m1a32005dea" y="81.6"/>
      </g>
     </g>
     <g id="text_27">
      <!-- 16 -->
      <g transform="translate(54.80375 85.9678125)scale(0.12 -0.12)">
       <use xlink:href="#BitstreamVeraSans-Roman-31"/>
       <use x="63.623046875" xlink:href="#BitstreamVeraSans-Roman-36"/>
      </g>
     </g>
    </g>
    <g id="ytick_18">
     <g id="line2d_85">
      <path clip-path="url(#p7ff5b81e1d)" d="
M72 62.4
L518.4 62.4" style="fill:none;stroke:#000000;stroke-dasharray:1.000000,3.000000;stroke-dashoffset:0.0;stroke-linecap:butt;stroke-width:0.5;"/>
     </g>
     <g id="line2d_86">
      <g>
       <use style="stroke:#000000;stroke-linecap:butt;stroke-width:0.5;" x="72.0" xlink:href="#me8a85f7bf6" y="62.4"/>
      </g>
     </g>
     <g id="line2d_87">
      <g>
       <use style="stroke:#000000;stroke-linecap:butt;stroke-width:0.5;" x="518.4" xlink:href="#m1a32005dea" y="62.4"/>
      </g>
     </g>
     <g id="text_28">
      <!-- 17 -->
      <g transform="translate(55.07375 66.774375)scale(0.12 -0.12)">
       <use xlink:href="#BitstreamVeraSans-Roman-31"/>
       <use x="63.623046875" xlink:href="#BitstreamVeraSans-Roman-37"/>
      </g>
     </g>
    </g>
    <g id="text_29">
     <!-- Sec/file -->
     <defs>
      <path d="
M9.42188 75.9844
L18.4062 75.9844
L18.4062 0
L9.42188 0
z
" id="BitstreamVeraSans-Roman-6c"/>
      <path d="
M53.5156 70.5156
L53.5156 60.8906
Q47.9062 63.5781 42.9219 64.8906
Q37.9375 66.2188 33.2969 66.2188
Q25.25 66.2188 20.875 63.0938
Q16.5 59.9688 16.5 54.2031
Q16.5 49.3594 19.4062 46.8906
Q22.3125 44.4375 30.4219 42.9219
L36.375 41.7031
Q47.4062 39.5938 52.6562 34.2969
Q57.9062 29 57.9062 20.125
Q57.9062 9.51562 50.7969 4.04688
Q43.7031 -1.42188 29.9844 -1.42188
Q24.8125 -1.42188 18.9688 -0.25
Q13.1406 0.921875 6.89062 3.21875
L6.89062 13.375
Q12.8906 10.0156 18.6562 8.29688
Q24.4219 6.59375 29.9844 6.59375
Q38.4219 6.59375 43.0156 9.90625
Q47.6094 13.2344 47.6094 19.3906
Q47.6094 24.75 44.3125 27.7812
Q41.0156 30.8125 33.5 32.3281
L27.4844 33.5
Q16.4531 35.6875 11.5156 40.375
Q6.59375 45.0625 6.59375 53.4219
Q6.59375 63.0938 13.4062 68.6562
Q20.2188 74.2188 32.1719 74.2188
Q37.3125 74.2188 42.625 73.2812
Q47.9531 72.3594 53.5156 70.5156" id="BitstreamVeraSans-Roman-53"/>
      <path d="
M9.42188 54.6875
L18.4062 54.6875
L18.4062 0
L9.42188 0
z

M9.42188 75.9844
L18.4062 75.9844
L18.4062 64.5938
L9.42188 64.5938
z
" id="BitstreamVeraSans-Roman-69"/>
      <path d="
M25.3906 72.9062
L33.6875 72.9062
L8.29688 -9.28125
L0 -9.28125
z
" id="BitstreamVeraSans-Roman-2f"/>
      <path d="
M56.2031 29.5938
L56.2031 25.2031
L14.8906 25.2031
Q15.4844 15.9219 20.4844 11.0625
Q25.4844 6.20312 34.4219 6.20312
Q39.5938 6.20312 44.4531 7.46875
Q49.3125 8.73438 54.1094 11.2812
L54.1094 2.78125
Q49.2656 0.734375 44.1875 -0.34375
Q39.1094 -1.42188 33.8906 -1.42188
Q20.7969 -1.42188 13.1562 6.1875
Q5.51562 13.8125 5.51562 26.8125
Q5.51562 40.2344 12.7656 48.1094
Q20.0156 56 32.3281 56
Q43.3594 56 49.7812 48.8906
Q56.2031 41.7969 56.2031 29.5938
M47.2188 32.2344
Q47.125 39.5938 43.0938 43.9844
Q39.0625 48.3906 32.4219 48.3906
Q24.9062 48.3906 20.3906 44.1406
Q15.875 39.8906 15.1875 32.1719
z
" id="BitstreamVeraSans-Roman-65"/>
      <path d="
M37.1094 75.9844
L37.1094 68.5
L28.5156 68.5
Q23.6875 68.5 21.7969 66.5469
Q19.9219 64.5938 19.9219 59.5156
L19.9219 54.6875
L34.7188 54.6875
L34.7188 47.7031
L19.9219 47.7031
L19.9219 0
L10.8906 0
L10.8906 47.7031
L2.29688 47.7031
L2.29688 54.6875
L10.8906 54.6875
L10.8906 58.5
Q10.8906 67.625 15.1406 71.7969
Q19.3906 75.9844 28.6094 75.9844
z
" id="BitstreamVeraSans-Roman-66"/>
      <path d="
M48.7812 52.5938
L48.7812 44.1875
Q44.9688 46.2969 41.1406 47.3438
Q37.3125 48.3906 33.4062 48.3906
Q24.6562 48.3906 19.8125 42.8438
Q14.9844 37.3125 14.9844 27.2969
Q14.9844 17.2812 19.8125 11.7344
Q24.6562 6.20312 33.4062 6.20312
Q37.3125 6.20312 41.1406 7.25
Q44.9688 8.29688 48.7812 10.4062
L48.7812 2.09375
Q45.0156 0.34375 40.9844 -0.53125
Q36.9688 -1.42188 32.4219 -1.42188
Q20.0625 -1.42188 12.7812 6.34375
Q5.51562 14.1094 5.51562 27.2969
Q5.51562 40.6719 12.8594 48.3281
Q20.2188 56 33.0156 56
Q37.1562 56 41.1094 55.1406
Q45.0625 54.2969 48.7812 52.5938" id="BitstreamVeraSans-Roman-63"/>
     </defs>
     <g transform="translate(49.72125 236.13)rotate(-90.0)scale(0.12 -0.12)">
      <use xlink:href="#BitstreamVeraSans-Roman-53"/>
      <use x="63.4765625" xlink:href="#BitstreamVeraSans-Roman-65"/>
      <use x="125.0" xlink:href="#BitstreamVeraSans-Roman-63"/>
      <use x="179.98046875" xlink:href="#BitstreamVeraSans-Roman-2f"/>
      <use x="213.671875" xlink:href="#BitstreamVeraSans-Roman-66"/>
      <use x="248.876953125" xlink:href="#BitstreamVeraSans-Roman-69"/>
      <use x="276.66015625" xlink:href="#BitstreamVeraSans-Roman-6c"/>
      <use x="304.443359375" xlink:href="#BitstreamVeraSans-Roman-65"/>
     </g>
    </g>
   </g>
   <g id="patch_3">
    <path d="
M72 43.2
L518.4 43.2" style="fill:none;stroke:#000000;"/>
   </g>
   <g id="patch_4">
    <path d="
M518.4 388.8
L518.4 43.2" style="fill:none;stroke:#000000;"/>
   </g>
   <g id="patch_5">
    <path d="
M72 388.8
L518.4 388.8" style="fill:none;stroke:#000000;"/>
   </g>
   <g id="patch_6">
    <path d="
M72 388.8
L72 43.2" style="fill:none;stroke:#000000;"/>
   </g>
   <g id="legend_1">
    <g id="patch_7">
     <path d="
M429.055 115.339
L511.2 115.339
L511.2 50.4
L429.055 50.4
L429.055 115.339
z
" style="fill:#ffffff;stroke:#000000;"/>
    </g>
    <g id="line2d_88">
     <path d="
M439.135 62.0617
L459.295 62.0617" style="fill:none;stroke:#ff0000;"/>
    </g>
    <g id="line2d_89"/>
    <g id="text_30">
     <!-- LRU -->
     <defs>
      <path d="
M44.3906 34.1875
Q47.5625 33.1094 50.5625 29.5938
Q53.5625 26.0781 56.5938 19.9219
L66.6094 0
L56 0
L46.6875 18.7031
Q43.0625 26.0312 39.6719 28.4219
Q36.2812 30.8125 30.4219 30.8125
L19.6719 30.8125
L19.6719 0
L9.8125 0
L9.8125 72.9062
L32.0781 72.9062
Q44.5781 72.9062 50.7344 67.6719
Q56.8906 62.4531 56.8906 51.9062
Q56.8906 45.0156 53.6875 40.4688
Q50.4844 35.9375 44.3906 34.1875
M19.6719 64.7969
L19.6719 38.9219
L32.0781 38.9219
Q39.2031 38.9219 42.8438 42.2188
Q46.4844 45.5156 46.4844 51.9062
Q46.4844 58.2969 42.8438 61.5469
Q39.2031 64.7969 32.0781 64.7969
z
" id="BitstreamVeraSans-Roman-52"/>
      <path d="
M9.8125 72.9062
L19.6719 72.9062
L19.6719 8.29688
L55.1719 8.29688
L55.1719 0
L9.8125 0
z
" id="BitstreamVeraSans-Roman-4c"/>
      <path d="
M8.6875 72.9062
L18.6094 72.9062
L18.6094 28.6094
Q18.6094 16.8906 22.8438 11.7344
Q27.0938 6.59375 36.625 6.59375
Q46.0938 6.59375 50.3438 11.7344
Q54.5938 16.8906 54.5938 28.6094
L54.5938 72.9062
L64.5 72.9062
L64.5 27.3906
Q64.5 13.1406 57.4375 5.85938
Q50.3906 -1.42188 36.625 -1.42188
Q22.7969 -1.42188 15.7344 5.85938
Q8.6875 13.1406 8.6875 27.3906
z
" id="BitstreamVeraSans-Roman-55"/>
     </defs>
     <g transform="translate(475.13475 67.10175)scale(0.144 -0.144)">
      <use xlink:href="#BitstreamVeraSans-Roman-4c"/>
      <use x="55.712890625" xlink:href="#BitstreamVeraSans-Roman-52"/>
      <use x="125.1953125" xlink:href="#BitstreamVeraSans-Roman-55"/>
     </g>
    </g>
    <g id="line2d_90">
     <path d="
M439.135 83.1983
L459.295 83.1983" style="fill:none;opacity:0.7;stroke:#008000;"/>
    </g>
    <g id="line2d_91"/>
    <g id="text_31">
     <!-- MRU -->
     <defs>
      <path d="
M9.8125 72.9062
L24.5156 72.9062
L43.1094 23.2969
L61.8125 72.9062
L76.5156 72.9062
L76.5156 0
L66.8906 0
L66.8906 64.0156
L48.0938 14.0156
L38.1875 14.0156
L19.3906 64.0156
L19.3906 0
L9.8125 0
z
" id="BitstreamVeraSans-Roman-4d"/>
     </defs>
     <g transform="translate(475.13475 88.23825)scale(0.144 -0.144)">
      <use xlink:href="#BitstreamVeraSans-Roman-4d"/>
      <use x="86.279296875" xlink:href="#BitstreamVeraSans-Roman-52"/>
      <use x="155.76171875" xlink:href="#BitstreamVeraSans-Roman-55"/>
     </g>
    </g>
    <g id="line2d_92">
     <path d="
M439.135 104.335
L459.295 104.335" style="fill:none;opacity:0.5;stroke:#0000ff;"/>
    </g>
    <g id="line2d_93"/>
    <g id="text_32">
     <!-- FIFO -->
     <defs>
      <path d="
M9.8125 72.9062
L51.7031 72.9062
L51.7031 64.5938
L19.6719 64.5938
L19.6719 43.1094
L48.5781 43.1094
L48.5781 34.8125
L19.6719 34.8125
L19.6719 0
L9.8125 0
z
" id="BitstreamVeraSans-Roman-46"/>
      <path d="
M9.8125 72.9062
L19.6719 72.9062
L19.6719 0
L9.8125 0
z
" id="BitstreamVeraSans-Roman-49"/>
      <path d="
M39.4062 66.2188
Q28.6562 66.2188 22.3281 58.2031
Q16.0156 50.2031 16.0156 36.375
Q16.0156 22.6094 22.3281 14.5938
Q28.6562 6.59375 39.4062 6.59375
Q50.1406 6.59375 56.4219 14.5938
Q62.7031 22.6094 62.7031 36.375
Q62.7031 50.2031 56.4219 58.2031
Q50.1406 66.2188 39.4062 66.2188
M39.4062 74.2188
Q54.7344 74.2188 63.9062 63.9375
Q73.0938 53.6562 73.0938 36.375
Q73.0938 19.1406 63.9062 8.85938
Q54.7344 -1.42188 39.4062 -1.42188
Q24.0312 -1.42188 14.8125 8.82812
Q5.60938 19.0938 5.60938 36.375
Q5.60938 53.6562 14.8125 63.9375
Q24.0312 74.2188 39.4062 74.2188" id="BitstreamVeraSans-Roman-4f"/>
     </defs>
     <g transform="translate(475.13475 109.37475)scale(0.144 -0.144)">
      <use xlink:href="#BitstreamVeraSans-Roman-46"/>
      <use x="57.51953125" xlink:href="#BitstreamVeraSans-Roman-49"/>
      <use x="87.01171875" xlink:href="#BitstreamVeraSans-Roman-46"/>
      <use x="144.53125" xlink:href="#BitstreamVeraSans-Roman-4f"/>
     </g>
    </g>
   </g>
  </g>
 </g>
 <defs>
  <clipPath id="p7ff5b81e1d">
   <rect height="345.6" width="446.4" x="72.0" y="43.2"/>
  </clipPath>
 </defs>
</svg>
