<?xml version="1.0" encoding="utf-8" standalone="no"?>
<!DOCTYPE svg PUBLIC "-//W3C//DTD SVG 1.1//EN"
  "http://www.w3.org/Graphics/SVG/1.1/DTD/svg11.dtd">
<!-- Created with matplotlib (http://matplotlib.sourceforge.net/) -->
<svg height="432pt" version="1.1" viewBox="0 0 576 432" width="576pt" xmlns="http://www.w3.org/2000/svg" xmlns:xlink="http://www.w3.org/1999/xlink">
 <defs>
  <style type="text/css">
*{stroke-linecap:square;stroke-linejoin:round;}
  </style>
 </defs>
 <g id="figure_1">
  <g id="patch_1">
   <path d="
M0 432
L576 432
L576 0
L0 0
z
" style="fill:#ffffff;"/>
  </g>
  <g id="axes_1">
   <g id="patch_2">
    <path d="
M72 388.8
L518.4 388.8
L518.4 43.2
L72 43.2
z
" style="fill:#ffffff;"/>
   </g>
   <g id="line2d_1">
    <path clip-path="url(#p7ff5b81e1d)" d="
M72 284.506
L72.4464 215.358
L72.8928 314.184
L73.3392 284.586
L73.7856 306.499
L74.232 283.749
L74.6784 283.63
L75.1248 283.892
L75.5712 284.454
L76.0176 284.472
L76.464 321.7
L76.9104 323.861
L77.3568 284.374
L77.8032 284.643
L78.2496 284.734
L78.696 323.84
L79.1424 324.025
L79.5888 265.964
L80.0352 275.916
L80.4816 275.256
L80.928 267.575
L81.3744 316.315
L81.8208 323.61
L82.2672 323.398
L82.7136 279.672
L83.16 275.459
L83.6064 314.598
L84.0528 324.421
L84.4992 323.728
L84.9456 311.257
L85.392 323.721
L85.8384 321.915
L86.2848 279.631
L86.7312 309.857
L87.1776 284.051
L87.624 323.687
L88.0704 323.301
L88.5168 310.224
L88.9632 322.918
L89.4096 266.65
L89.856 323.108
L90.3024 321.265
L90.7488 322.713
L91.1952 323.035
L91.6416 320.37
L92.088 323.584
L92.5344 324.032
L92.9808 312.301
L93.4272 323.911
L93.8736 323.36
L94.32 318.958
L94.7664 306.831
L95.2128 322.978
L95.6592 321.717
L96.1056 323.35
L96.552 322.814
L96.9984 322.762
L97.4448 324.283
L97.8912 323.854
L98.3376 313.89
L98.784 323.779
L99.2304 323.909
L99.6768 276.7
L100.123 309.295
L100.57 283.853
L101.016 323.354
L101.462 323.772
L101.909 280.085
L102.355 306.637
L102.802 324.068
L103.248 307.101
L103.694 324.043
L104.141 323.861
L104.587 317.521
L105.034 323.997
L105.48 323.63
L105.926 311.221
L106.373 323.995
L106.819 284.146
L107.266 322.937
L107.712 309.342
L108.158 284.279
L108.605 322.975
L109.051 307.119
L109.498 323.238
L109.944 323.514
L110.39 323.29
L110.837 322.757
L111.283 322.98
L111.73 323.053
L112.176 322.022
L112.622 323.92
L113.069 323.618
L113.515 312.611
L113.962 323.132
L114.408 323.033
L114.854 317.889
L115.301 323.862
L115.747 323.62
L116.194 311.379
L116.64 323.051
L117.086 323.388
L117.533 283.446
L117.979 322.68
L118.872 323.594
L119.318 323.549
L119.765 322.981
L120.211 306.98
L120.658 323.968
L121.104 304.857
L121.55 305.67
L121.997 309.395
L122.443 323.499
L122.89 322.486
L123.336 319.924
L123.782 307.121
L124.229 323.134
L124.675 322.155
L125.122 323.321
L125.568 322.43
L126.014 323.66
L126.907 323.503
L127.354 313.434
L127.8 322.917
L128.246 322.899
L128.693 306.211
L129.139 323.534
L129.586 305.701
L130.032 321.683
L130.478 322.838
L130.925 320.101
L131.371 322.126
L131.818 322.764
L132.264 316.361
L132.71 323.125
L133.157 324.082
L133.603 322.055
L134.05 323.329
L134.496 323.87
L134.942 252.488
L135.389 324.1
L135.835 323.604
L136.282 318.667
L136.728 306.501
L137.174 323.952
L137.621 321.798
L138.067 322.386
L138.514 323.417
L139.406 323.135
L139.853 323.413
L140.299 317.72
L140.746 322.949
L141.192 323.559
L141.638 320.26
L142.085 323.82
L142.531 323.641
L142.978 318.377
L143.424 323.196
L143.87 323.778
L144.317 304.783
L144.763 323.09
L145.21 306.571
L145.656 315.074
L146.102 315.465
L146.549 314.642
L146.995 323.065
L148.334 323.557
L148.781 322.736
L149.227 323.506
L149.674 305.96
L150.566 323.197
L151.013 306.876
L151.459 323.097
L151.906 324.121
L152.352 315.004
L152.798 314.97
L153.245 316.338
L153.691 323.918
L154.138 323.098
L154.584 288.709
L155.03 322.99
L155.477 315.026
L155.923 323.762
L156.37 321.96
L157.262 323.537
L157.709 314.058
L158.155 315.374
L158.602 323.253
L159.048 314.871
L159.494 315.461
L159.941 313.887
L160.387 323.652
L160.834 323.073
L161.28 319.663
L161.726 323.833
L162.173 315.281
L162.619 321.455
L163.066 324.033
L163.512 323.633
L163.958 318.249
L164.405 315.075
L164.851 323.258
L165.298 321.288
L165.744 315.473
L166.19 324.13
L166.637 322.893
L167.083 323.248
L167.53 323.114
L167.976 318.761
L168.422 323.463
L168.869 323.816
L169.315 318.16
L169.762 323.532
L170.208 314.665
L170.654 323.757
L171.547 323.551
L171.994 319.903
L172.44 296.516
L172.886 305.702
L173.333 323.858
L173.779 285.746
L174.226 323.11
L174.672 322.968
L175.118 323.217
L175.565 315.109
L176.011 323.025
L176.458 323.672
L176.904 323.458
L177.35 322.885
L177.797 323.353
L178.243 322.626
L178.69 323.42
L179.136 314.928
L179.582 323.455
L180.029 315.506
L180.475 322.354
L180.922 307.224
L181.368 323.609
L181.814 308.115
L182.261 323.434
L182.707 324.417
L183.154 304.056
L183.6 323.071
L184.046 304.856
L184.493 323.977
L184.939 323.882
L185.386 314.64
L185.832 322.788
L186.278 323.568
L186.725 322.707
L187.171 323.524
L187.618 315.527
L188.064 323.356
L188.51 304.885
L188.957 322.097
L189.85 323.698
L190.296 303.932
L190.742 323.07
L191.189 314.217
L191.635 323.156
L192.082 323.277
L192.528 319.925
L192.974 323.127
L193.421 323.322
L193.867 314.133
L194.314 323.112
L194.76 323.896
L195.206 319.438
L195.653 323.97
L196.099 323.607
L196.546 313.096
L196.992 323.438
L197.438 316.749
L197.885 323.841
L198.331 323.098
L198.778 297.397
L199.224 324.54
L199.67 313.384
L200.117 323.413
L200.563 322.465
L201.01 321.812
L201.456 322.916
L201.902 305.988
L202.349 323.839
L202.795 323.854
L203.242 323.602
L203.688 322.178
L204.134 309.27
L204.581 321.015
L205.027 322.742
L205.474 323.729
L205.92 323.065
L206.366 316.011
L206.813 323.289
L207.259 323.733
L207.706 314.583
L208.152 322.843
L208.598 323.523
L209.045 320.083
L209.491 323.991
L209.938 322.781
L210.384 316.164
L210.83 306.345
L211.277 323.275
L211.723 323.704
L212.17 314.661
L212.616 315.782
L213.062 323.449
L213.509 323.085
L213.955 322.113
L214.402 323.945
L214.848 322.934
L215.294 315.158
L215.741 323.57
L216.187 323.655
L216.634 321.182
L217.08 323.625
L217.526 323.496
L217.973 315.28
L218.419 323.127
L218.866 323.72
L219.312 312.321
L219.758 323.581
L220.205 323.927
L220.651 322.885
L221.098 306.24
L221.544 323.083
L221.99 323.442
L222.437 315.123
L222.883 311.709
L223.33 323.597
L223.776 323.156
L224.222 323.891
L224.669 324.272
L225.115 315.563
L225.562 323.106
L226.008 323.97
L226.454 324.466
L226.901 317.508
L227.347 321.656
L227.794 323.171
L228.24 323.233
L228.686 322.346
L229.133 305.946
L229.579 323.962
L230.026 314.685
L230.472 317.079
L230.918 323.356
L231.365 315.653
L231.811 323.092
L232.258 322.779
L232.704 316.859
L233.15 323.514
L233.597 314.945
L234.043 314.26
L234.49 323.111
L234.936 290.873
L235.382 322.476
L235.829 315.726
L236.275 315.271
L236.722 314.546
L237.168 322.557
L237.614 323.452
L238.061 307.843
L238.954 322.961
L239.4 323.325
L239.846 323.439
L240.293 323.162
L240.739 323.971
L241.186 323.712
L241.632 295.594
L242.078 323.377
L242.525 313.884
L242.971 323.878
L243.418 323.683
L243.864 321.861
L244.31 323.327
L244.757 323.537
L245.203 320.113
L245.65 323.735
L246.096 314.776
L246.542 292.471
L246.989 309.277
L247.882 323.069
L248.328 321.949
L248.774 322.383
L249.221 314.983
L249.667 323.22
L250.114 323.493
L250.56 323.141
L251.006 315.271
L251.453 315.503
L251.899 322.456
L252.346 315.333
L252.792 315.356
L253.238 323.065
L253.685 323.014
L254.578 306.539
L255.47 323.627
L255.917 323.62
L256.363 321.081
L256.81 323.509
L257.256 323.111
L257.702 306.016
L258.149 315.631
L258.595 314.382
L259.042 324.041
L259.488 306.517
L259.934 323.105
L260.381 323.232
L260.827 298.513
L261.274 322.95
L261.72 307.836
L262.166 323.317
L262.613 323.779
L263.059 315.103
L263.506 323.237
L263.952 323.643
L264.845 315.259
L265.291 323.388
L265.738 306.481
L266.184 323.658
L266.63 317.14
L267.077 324.514
L267.523 306.673
L267.97 323.033
L268.416 323.251
L268.862 322.988
L269.309 323.054
L269.755 323.733
L270.202 323.772
L270.648 89.8649
L271.094 153.025
L271.541 323.973
L271.987 322.429
L272.434 298.346
L272.88 324.103
L273.326 322.816
L273.773 322.77
L274.219 322.558
L274.666 318.769
L275.112 323.8
L275.558 323.295
L276.005 323.597
L276.451 323.213
L276.898 308.469
L277.344 323.783
L277.79 312.684
L278.237 323.667
L278.683 323.386
L279.13 314.866
L279.576 323.604
L280.022 322.652
L280.469 322.326
L280.915 324.125
L281.362 323.47
L282.254 306.661
L282.701 306.749
L283.147 323.666
L283.594 323.014
L284.04 322.71
L284.486 323.159
L284.933 323.183
L285.379 322.634
L285.826 323.446
L286.272 289.578
L286.718 322.506
L287.165 322.654
L287.611 314.953
L288.058 314.798
L288.504 321.812
L288.95 323.638
L289.397 321.956
L289.843 321.448
L290.29 305.598
L290.736 306.09
L291.182 288.035
L291.629 322.997
L292.075 321.835
L292.522 323.588
L292.968 306.926
L293.861 323.532
L294.307 320.042
L294.754 323.341
L295.2 323.524
L295.646 316.052
L296.093 322.989
L296.539 323.192
L296.986 313.559
L297.432 323.639
L297.878 306.393
L298.325 306.962
L298.771 324.133
L299.218 323.277
L299.664 313.073
L300.11 322.935
L301.003 323.353
L301.45 321.858
L301.896 323.31
L302.342 323.543
L302.789 320.022
L303.235 323.451
L303.682 323.503
L304.128 320.865
L304.574 323.534
L305.021 323.913
L305.467 314.852
L305.914 323.555
L306.36 323.291
L306.806 320.677
L307.253 323.215
L307.699 314.506
L308.146 322.848
L308.592 315.75
L309.038 304.429
L309.485 323.801
L309.931 323.544
L310.378 322.946
L310.824 276.31
L311.27 313.131
L311.717 307.713
L312.163 323.269
L312.61 323.903
L313.056 322.772
L313.502 323.546
L313.949 323.626
L314.395 314.847
L314.842 323.556
L315.288 315.044
L315.734 322.698
L316.181 323.58
L316.627 323.062
L317.074 275.958
L317.52 305.091
L317.966 322.833
L318.413 307.211
L318.859 323.211
L319.306 319.459
L319.752 306.019
L320.198 322.855
L320.645 298.964
L321.091 315.034
L321.538 323.022
L321.984 323.596
L322.43 307.215
L323.323 323.57
L323.77 298.808
L324.216 306.67
L324.662 322.883
L325.109 308.424
L325.555 323.326
L326.002 307.507
L326.448 323.526
L326.894 315.533
L327.341 322.777
L327.787 323.265
L328.234 323.079
L328.68 323.44
L329.126 318.662
L329.573 323.312
L330.019 322.867
L330.466 323.133
L331.358 323.043
L331.805 317.193
L332.251 323.743
L332.698 289.076
L333.144 322.76
L333.59 301.356
L334.037 323.573
L334.93 323.415
L335.376 314.96
L335.822 322.74
L336.269 323.02
L336.715 323.912
L337.162 317.937
L337.608 323.452
L338.054 323.085
L338.501 322.081
L338.947 323.235
L339.394 323.902
L339.84 307.141
L340.286 322.878
L340.733 308.135
L341.179 321.988
L341.626 322.516
L342.072 322.264
L342.518 323.642
L342.965 323.216
L343.411 320.954
L343.858 323.287
L344.304 323.054
L344.75 320.855
L345.197 305.908
L345.643 323.233
L346.09 322.969
L346.536 323.45
L346.982 323.611
L347.429 321.792
L347.875 309.007
L348.322 323.821
L348.768 309.786
L349.214 322.732
L349.661 314.584
L350.107 323.412
L350.554 322.645
L351 308.293
L351.446 322.76
L351.893 314.291
L352.339 322.984
L352.786 322.675
L353.232 321.144
L353.678 323.044
L354.125 317.271
L354.571 315.718
L355.018 322.258
L355.464 322.628
L355.91 306.437
L356.357 318.472
L356.803 323.7
L357.25 323.445
L357.696 321.628
L358.142 323.431
L358.589 306.81
L359.035 323.097
L359.482 322.62
L359.928 307.986
L360.374 323.357
L360.821 306.195
L361.267 322.499
L361.714 323.419
L362.16 310.234
L362.606 323.204
L363.053 323.149
L363.499 322.338
L363.946 322.865
L364.392 290.531
L364.838 324.025
L365.285 322.856
L365.731 322.472
L366.178 323.203
L366.624 323.619
L367.07 318.428
L367.517 323.35
L367.963 323.053
L368.41 320.422
L368.856 323.085
L369.302 323.223
L369.749 313.582
L370.195 315.061
L370.642 311.16
L371.088 323.003
L371.534 323.215
L371.981 323.243
L372.427 324.16
L372.874 307.076
L373.32 306.435
L373.766 323.381
L374.213 322.86
L374.659 323
L375.106 313.534
L375.552 322.681
L375.998 305.5
L376.891 306.357
L377.338 323.824
L377.784 323.189
L378.23 303.612
L378.677 324.013
L379.123 323.425
L379.57 319.662
L380.016 307.396
L380.462 322.056
L380.909 322.762
L381.355 323.236
L381.802 305.016
L382.248 323.886
L382.694 309.095
L383.141 321.828
L383.587 314.7
L384.034 322.692
L384.48 323.431
L384.926 323.841
L385.373 290.613
L385.819 314.423
L386.266 322.957
L386.712 309.486
L387.158 324.41
L387.605 323.625
L388.051 311.929
L388.498 291.77
L388.944 323.347
L389.39 323.845
L389.837 298.814
L390.283 323.478
L390.73 323.121
L391.176 323.551
L391.622 323.196
L392.069 318.234
L392.515 321.884
L392.962 323.507
L393.408 322.404
L393.854 322.696
L394.301 323.247
L394.747 323.068
L395.194 307.555
L395.64 323.325
L396.086 323.528
L396.533 306.46
L396.979 323.511
L397.426 308.299
L397.872 323.774
L398.318 323.003
L398.765 313.246
L399.211 323.409
L399.658 323.673
L400.55 323.392
L400.997 305.96
L401.89 322.938
L402.336 315.444
L402.782 315.693
L403.229 314.817
L403.675 322.952
L404.122 311.841
L404.568 324.104
L405.014 314.936
L405.461 323.039
L405.907 322.59
L406.354 323.386
L406.8 323.767
L407.246 324.412
L407.693 315.054
L408.139 322.651
L408.586 322.618
L409.032 323.274
L409.478 322.609
L409.925 322.949
L410.371 314.975
L410.818 322.981
L411.264 323.036
L411.71 306.202
L412.157 314.21
L412.603 302.702
L413.05 323.515
L413.496 323.491
L413.942 304.299
L414.389 322.036
L414.835 318.553
L415.282 323.684
L415.728 323.203
L416.174 316.396
L416.621 322.518
L417.067 323.369
L417.514 322.672
L417.96 323.045
L418.406 323.661
L418.853 309.832
L419.299 323.085
L419.746 307.95
L420.192 324.113
L420.638 323.851
L421.085 315.036
L421.531 324.218
L421.978 314.34
L422.424 322.259
L422.87 323.215
L423.317 315.532
L423.763 322.657
L424.21 314.849
L424.656 316.763
L425.102 324.424
L425.549 323.839
L425.995 314.534
L426.442 322.789
L426.888 323.192
L427.334 322.153
L428.227 308.027
L428.674 323.761
L429.12 322.845
L429.566 316.501
L430.013 321.108
L430.459 322.853
L430.906 322.717
L431.352 323.463
L432.245 321.238
L432.691 305.078
L433.138 306.197
L433.584 322.547
L434.03 289.222
L434.477 323.25
L434.923 317.65
L435.37 323.19
L435.816 323.348
L436.262 323.187
L436.709 323.693
L437.155 322.912
L437.602 317.295
L438.048 322.685
L438.494 322.269
L438.941 322.38
L439.387 323.601
L439.834 322.979
L440.726 323.452
L441.173 311.611
L441.619 321.699
L442.512 305.385
L442.958 323.595
L443.405 313.072
L443.851 322.857
L444.298 307.422
L444.744 323.334
L445.19 323.332
L445.637 317.25
L446.083 323.128
L446.53 323.487
L446.976 314.742
L447.422 284.465
L447.869 305.866
L448.315 319.384
L448.762 322.959
L449.654 323.394
L450.101 323.552
L450.547 323.166
L450.994 317.941
L451.44 323.224
L451.886 323.326
L452.333 322.695
L452.779 323.643
L453.226 323.476
L453.672 317.62
L454.118 323.155
L454.565 323.924
L455.011 321.649
L455.458 323.389
L455.904 322.038
L456.35 319.009
L456.797 323.528
L457.243 323.477
L457.69 297.1
L458.136 322.95
L458.582 322.567
L459.029 323.652
L459.475 323.884
L459.922 314.683
L460.368 292.652
L460.814 323.456
L461.261 322.436
L461.707 305.918
L462.154 321.989
L462.6 323.168
L463.046 297.484
L463.493 310.793
L463.939 314.589
L464.386 323.141
L464.832 322.601
L465.278 323.3
L465.725 323.456
L466.618 322.774
L467.064 314.782
L467.51 323.575
L467.957 322.707
L468.403 310.46
L468.85 322.738
L469.296 322.936
L469.742 322.733
L470.189 322.972
L470.635 314.093
L471.082 321.481
L471.528 322.871
L471.974 315.02
L472.421 323.779
L472.867 323.459
L473.314 317.929
L473.76 323.22
L474.206 322.816
L474.653 314.668
L475.099 323.301
L475.546 323.991
L475.992 322.906
L476.438 323.723
L476.885 323.553
L477.331 314.438
L477.778 323.113
L478.67 323.289
L479.117 314.432
L479.563 308.889
L480.01 323.267
L480.456 302.187
L480.902 323.06
L481.349 323.097
L481.795 322.592
L482.242 323.269
L482.688 322.537
L483.134 322.467
L483.581 315.076
L484.027 323.626
L484.474 315.492
L484.92 323.358
L485.366 307.914
L486.259 321.971
L486.706 322.734
L487.152 311.654
L487.598 322.629
L488.045 315.001
L488.491 323.762
L489.384 323.08
L489.83 322.449
L490.723 323.445
L491.616 322.575
L492.062 322.998
L492.955 323.027
L493.402 323.226
L493.848 322.333
L494.294 323.168
L494.741 323.223
L495.187 322.862
L495.634 323.324
L496.08 314.377
L496.526 321.874
L496.973 322.614
L497.419 314.618
L497.866 324.367
L498.312 306.861
L499.205 323.258
L499.651 323.732
L500.098 323.973
L500.544 321.055
L500.99 322.97
L501.437 323.691
L501.883 289.694
L502.33 322.662
L502.776 322.226
L503.222 323.446
L503.669 302.51
L504.115 322.758
L504.562 323.273
L505.008 322.321
L505.454 323.158
L505.901 323.383
L506.347 317.204
L506.794 323.693
L507.24 317.567
L507.686 314.602
L508.133 309.664
L508.579 323.16
L509.026 306.465
L509.472 324.215
L509.918 313.639
L510.365 322.742
L510.811 323.41
L511.258 323.479
L511.704 313.006
L512.15 323.822
L513.49 322.51
L513.936 323.206
L514.382 323.122
L514.829 323.359
L515.275 319.009
L515.722 322.898
L516.168 323.309
L516.614 298.354
L517.061 323.962
L517.507 319.342
L517.954 322.337
L517.954 322.337" style="fill:none;stroke:#ff0000;"/>
   </g>
   <g id="line2d_2">
    <path clip-path="url(#p7ff5b81e1d)" d="
M72 282.423
L72.4464 167.272
L72.8928 271.095
L73.3392 262.451
L73.7856 296.546
L74.232 318.126
L74.6784 281.405
L75.1248 279.837
L75.5712 266.883
L76.464 273.753
L76.9104 271.781
L77.3568 304.593
L77.8032 277.755
L78.2496 281.894
L78.696 278.914
L79.1424 262.005
L79.5888 311.809
L80.0352 322.584
L80.4816 272.04
L80.928 282.163
L81.3744 322.68
L81.8208 322.501
L82.2672 274.376
L82.7136 259.75
L83.16 315.572
L83.6064 323.624
L84.0528 322.875
L84.4992 320.601
L84.9456 300.961
L85.392 308.841
L85.8384 311.866
L86.2848 323.39
L86.7312 322.871
L87.1776 308.985
L87.624 305.033
L88.0704 308.257
L88.5168 315.022
L88.9632 279.253
L89.4096 325.178
L89.856 281.772
L90.3024 320.636
L91.1952 321.797
L91.6416 265.225
L92.088 310.249
L92.5344 324.8
L92.9808 321.675
L93.4272 320.775
L93.8736 295.387
L94.32 321.99
L94.7664 304.594
L95.2128 322.295
L95.6592 321.618
L96.1056 322.116
L96.552 316.325
L96.9984 322.196
L97.4448 322.607
L97.8912 322.272
L98.3376 323.136
L98.784 322.661
L99.2304 280.284
L99.6768 308.929
L100.123 314.289
L100.57 322.68
L101.016 322.576
L101.462 282.301
L101.909 305.615
L102.802 322.659
L103.248 322.422
L103.694 305.46
L104.141 305.578
L104.587 322.123
L105.034 253.46
L105.48 322.734
L105.926 318.659
L106.373 287.907
L106.819 321.563
L107.266 301.52
L107.712 324.531
L108.158 321.878
L109.051 291.063
L109.498 311.029
L109.944 324.618
L110.39 321.652
L110.837 322.39
L111.283 314.123
L111.73 310.021
L112.176 321.048
L112.622 312.239
L113.069 322.736
L113.515 307.532
L113.962 321.132
L114.408 305.354
L114.854 322.166
L115.301 317.411
L115.747 305.297
L116.194 305.25
L116.64 321.709
L117.086 304.828
L117.533 305.575
L118.426 311.037
L118.872 324.292
L119.318 321.946
L119.765 322.27
L120.211 320.027
L120.658 321.772
L121.104 308.727
L121.55 316.577
L121.997 322.15
L122.443 276.441
L123.782 321.256
L124.229 304.391
L124.675 324.974
L125.122 321.804
L125.568 292.136
L126.014 321.783
L126.461 321.47
L126.907 296.572
L127.354 321.69
L127.8 303.605
L128.246 322.716
L128.693 316.938
L129.139 321.383
L129.586 321.534
L130.032 325.705
L130.478 321.828
L130.925 321.377
L131.371 322.939
L131.818 317.874
L132.264 325.226
L132.71 321.26
L133.157 322.065
L133.603 315.319
L134.05 324.208
L134.496 321.647
L134.942 321.641
L135.835 312.007
L136.282 285.103
L136.728 322.046
L137.174 316.986
L137.621 325.376
L138.067 321.596
L138.514 309.12
L138.96 321.436
L139.406 325.611
L139.853 319.175
L140.299 320.999
L140.746 316.277
L141.192 324.16
L141.638 320.793
L142.085 320.86
L142.531 315.666
L142.978 325.094
L143.424 321.771
L143.87 321.378
L144.317 313.988
L144.763 320.867
L145.21 322.616
L145.656 307.768
L146.102 322.965
L146.549 305.572
L147.442 322.678
L147.888 322.261
L148.334 303.998
L148.781 322.121
L149.674 322.606
L150.12 312.641
L150.566 321.899
L151.459 321.82
L151.906 318.338
L152.352 305.534
L152.798 320.998
L153.245 317.753
L153.691 324.972
L154.138 321.361
L154.584 321.915
L155.03 313.869
L155.477 323.259
L155.923 321.115
L156.37 321.983
L156.816 315.668
L157.262 325.869
L157.709 308.362
L158.155 306.752
L158.602 320.682
L159.048 308.864
L159.494 314.337
L159.941 309.578
L160.387 308.509
L160.834 308.447
L161.28 322.288
L161.726 304.836
L162.173 323.001
L162.619 322.798
L163.066 312.693
L163.512 322.684
L163.958 322.109
L164.405 305.2
L164.851 305.914
L165.298 321.544
L165.744 107.031
L166.19 322.859
L166.637 320.57
L167.083 306.121
L167.53 305.34
L167.976 322.349
L168.422 308.603
L168.869 321.752
L169.315 322.484
L169.762 303.903
L170.208 322.51
L170.654 322.392
L171.101 322.149
L171.547 315.702
L171.994 322.643
L172.44 322.989
L172.886 302.649
L173.333 323.816
L173.779 321.088
L174.226 320.194
L174.672 318.324
L175.118 310.671
L175.565 320.907
L176.011 309.977
L176.458 324.945
L176.904 321.045
L177.35 298.254
L177.797 322.507
L178.243 321.656
L178.69 291.641
L179.136 287.927
L179.582 311.517
L180.029 321.406
L180.475 290.679
L180.922 320.326
L181.368 320.808
L181.814 304.019
L182.261 304.62
L182.707 310.77
L183.154 312.508
L183.6 321.415
L184.046 281.409
L184.493 321.238
L185.386 309.248
L185.832 322.379
L186.278 247.754
L186.725 322.195
L187.171 322.063
L187.618 307.883
L188.064 322.303
L188.51 322.487
L188.957 322.34
L189.403 304.277
L189.85 322.236
L190.296 322.127
L190.742 313.918
L191.189 310.86
L191.635 303.228
L192.082 324.989
L192.528 304.837
L192.974 300.847
L193.421 320.696
L193.867 286.916
L194.314 321.663
L194.76 301.821
L195.206 324.532
L195.653 308.58
L196.099 298.862
L196.546 321.479
L196.992 300.588
L197.438 325.449
L197.885 291.957
L198.331 320.986
L198.778 321.672
L199.224 319.579
L199.67 309.585
L200.117 325.386
L200.563 309.324
L201.01 309.028
L201.456 324.658
L201.902 322.187
L202.349 305.07
L202.795 323.977
L203.242 321.483
L203.688 309.139
L204.134 324.351
L204.581 321.622
L205.027 321.02
L205.474 308.381
L205.92 325.193
L206.366 319.541
L206.813 299.1
L207.259 324.617
L207.706 319.978
L208.152 306.061
L208.598 324.472
L209.045 321.334
L209.491 303.533
L209.938 321.009
L210.384 321.946
L210.83 322.432
L211.277 318.206
L211.723 323.109
L212.17 322.373
L212.616 322.403
L213.062 317.084
L213.509 323.063
L213.955 309.156
L214.402 323.058
L214.848 321.604
L215.294 320.622
L215.741 315.844
L216.187 322.325
L216.634 322.331
L217.08 322.648
L217.973 322.421
L218.419 322.459
L218.866 311.713
L219.312 322.552
L219.758 322.313
L220.205 302.341
L220.651 323.039
L221.098 321.175
L221.544 300.67
L221.99 322.596
L222.437 322.039
L222.883 306.319
L223.33 305.677
L223.776 322.341
L224.222 317.101
L224.669 321.811
L225.115 322.133
L225.562 302.677
L226.008 322.822
L226.454 321.41
L226.901 306.525
L227.347 322.713
L227.794 323.039
L228.24 322.013
L228.686 317.025
L229.133 309.135
L229.579 310.413
L230.026 320.569
L230.472 321.502
L230.918 322.169
L231.365 290.261
L231.811 320.504
L232.258 305.182
L232.704 310.573
L233.15 321.979
L233.597 313.048
L234.043 324.381
L234.49 321.228
L234.936 321.28
L235.382 317.28
L235.829 310.656
L236.275 307.59
L236.722 324.182
L237.168 321.574
L237.614 320.153
L238.061 231.002
L238.507 320.416
L238.954 306.326
L239.4 323.632
L239.846 308.262
L240.739 321.515
L241.186 321.957
L241.632 311.764
L242.078 321.446
L242.525 319.612
L242.971 321.747
L243.418 322.848
L243.864 308.847
L244.31 322.359
L244.757 321.942
L245.203 304.787
L245.65 322.857
L246.096 322.412
L246.542 303.082
L246.989 322.484
L247.435 322.739
L247.882 301.928
L248.328 322.3
L248.774 288.181
L249.221 322.643
L249.667 322.459
L250.114 306.889
L250.56 322.409
L251.006 322.135
L251.453 310.873
L251.899 309.224
L252.346 310.408
L252.792 322.202
L253.238 322.545
L253.685 322.644
L254.131 277.763
L254.578 308.721
L255.024 324.96
L255.47 321.118
L255.917 319.681
L256.363 315.62
L256.81 324.158
L257.256 321.831
L257.702 301.903
L258.149 325.37
L258.595 321.732
L259.042 305.767
L259.488 324.888
L259.934 321.012
L260.381 302.796
L260.827 321.456
L261.274 308.947
L261.72 317.594
L262.166 322.735
L262.613 322.657
L263.059 295.319
L263.506 321.875
L263.952 322.204
L264.398 319.763
L264.845 322.399
L265.291 309.146
L265.738 304.626
L266.184 321.959
L266.63 302.88
L267.077 321.914
L267.523 322.769
L267.97 305.259
L268.416 292.948
L268.862 319.098
L269.309 306.231
L269.755 322.854
L270.202 319.356
L270.648 322.576
L271.094 304.516
L271.541 305.723
L271.987 308.328
L272.434 319.945
L272.88 323.558
L273.326 321.871
L273.773 291.619
L274.219 322.112
L274.666 290.147
L275.112 309.789
L275.558 322.055
L276.005 322.881
L276.451 322.256
L276.898 301.064
L277.344 322.414
L277.79 309.269
L278.237 322.043
L278.683 322.78
L279.13 321.631
L279.576 310.94
L280.022 322.149
L280.469 321.702
L280.915 312.368
L281.362 322.067
L281.808 322.838
L282.254 303.777
L282.701 321.59
L283.147 321.806
L283.594 304.508
L284.04 323.132
L284.486 322.732
L284.933 302.56
L285.379 308.421
L285.826 304.645
L286.272 323.691
L286.718 310.112
L287.165 315.55
L287.611 322.397
L288.058 322.18
L288.504 310.957
L288.95 322.79
L289.397 322.598
L289.843 304.014
L290.29 322.866
L290.736 322.268
L291.182 303.241
L291.629 322.362
L292.075 305.949
L292.522 321.718
L292.968 305.13
L293.414 321.739
L293.861 308.512
L294.307 320.237
L294.754 322.08
L295.2 305.845
L295.646 322.661
L296.093 321.896
L296.539 322.403
L296.986 305.532
L297.432 319.873
L297.878 320.507
L298.325 320.773
L298.771 304.618
L299.218 321.81
L299.664 322.512
L300.11 320.929
L300.557 307.532
L301.003 321.445
L301.45 294.305
L301.896 321.838
L302.342 303.085
L302.789 324.477
L303.235 304.158
L303.682 320.367
L304.128 325.007
L304.574 321.485
L305.021 304.454
L305.467 322.243
L305.914 304.02
L306.36 320.667
L306.806 311.365
L307.253 307.035
L307.699 324.79
L308.146 324.969
L308.592 321.185
L309.038 311.681
L309.485 324.846
L309.931 308.006
L310.378 316.751
L310.824 322.337
L311.27 320.41
L311.717 309.785
L312.163 322.159
L312.61 308.441
L313.056 319.663
L313.502 322.893
L313.949 320.656
L314.395 310.623
L314.842 324.323
L315.288 321.955
L315.734 308.118
L316.181 324.359
L316.627 321.381
L317.074 301.227
L317.52 320.68
L317.966 322.433
L318.413 310.408
L318.859 287.664
L319.306 321.539
L319.752 304.876
L320.198 321.313
L320.645 320.969
L321.091 321.396
L321.538 306.837
L321.984 324.256
L322.43 320.774
L322.877 291.06
L323.323 322.394
L323.77 321.485
L324.216 310.884
L324.662 321.078
L325.109 321.415
L325.555 312.453
L326.002 323.003
L326.448 322.937
L326.894 303.537
L327.341 322.544
L327.787 322.575
L328.234 303.069
L328.68 322.91
L329.126 323.076
L329.573 322.813
L330.019 308.336
L330.466 321.574
L330.912 321.909
L331.358 322.574
L331.805 311.338
L332.251 322.803
L332.698 322.548
L333.144 309.761
L333.59 322.31
L334.037 321.816
L334.483 291.958
L334.93 322.437
L335.376 321.96
L335.822 308.647
L336.269 314.234
L336.715 321.847
L337.162 322.309
L337.608 298.944
L338.054 308.651
L338.501 313.299
L338.947 321.676
L339.394 322.693
L339.84 305.02
L340.286 321.589
L340.733 322.533
L341.179 311.441
L341.626 322.371
L342.072 322.507
L342.518 322.084
L342.965 311.929
L343.411 321.637
L343.858 323.129
L344.304 286.925
L344.75 321.942
L345.197 291.092
L345.643 322.448
L346.09 304.251
L346.536 321.792
L346.982 291.44
L347.429 322.188
L347.875 309.322
L348.322 308.055
L348.768 321.837
L349.214 321.867
L349.661 303.763
L350.107 321.562
L350.554 308.322
L351 317.357
L351.446 309.981
L351.893 290.8
L352.339 322.392
L352.786 284.037
L353.232 322.358
L353.678 301.746
L354.125 322.829
L354.571 322.214
L355.018 302.359
L355.464 322.475
L355.91 322.311
L356.357 307.278
L356.803 322.275
L357.25 322.189
L357.696 303.071
L358.142 322.551
L358.589 304.834
L359.035 318.47
L359.482 322.33
L359.928 319.914
L360.374 220.15
L360.821 309.708
L361.267 317.943
L361.714 323.189
L362.16 321.98
L362.606 323.554
L363.053 309.323
L363.499 308.154
L363.946 314.642
L364.838 304.077
L365.285 322.408
L365.731 308.87
L366.624 322.906
L367.07 322.632
L367.517 306.666
L367.963 322.042
L368.41 320.025
L368.856 321.604
L369.302 321.422
L369.749 321.839
L370.195 321.889
L370.642 308.317
L371.088 322.426
L371.534 322.923
L371.981 319.505
L372.427 322.211
L372.874 323.066
L373.32 301.209
L373.766 321.174
L374.213 322.304
L374.659 310.855
L375.106 323.264
L375.552 322.554
L375.998 308.78
L376.445 323.353
L376.891 303.356
L377.338 308.722
L377.784 321.714
L378.23 322.213
L378.677 309.351
L379.123 321.913
L379.57 322.201
L380.016 309.259
L380.462 322.433
L380.909 320.36
L381.355 304.306
L381.802 322.649
L382.248 322.231
L382.694 303.822
L383.141 309.845
L383.587 303.729
L384.034 322.962
L384.48 320.996
L384.926 303.675
L385.373 323.203
L385.819 322.974
L386.712 74.2913
L387.158 306.953
L387.605 322.799
L388.051 309.845
L388.498 322.526
L388.944 322.673
L389.39 310.876
L389.837 293.137
L390.283 321.254
L390.73 312.754
L391.176 323.019
L391.622 323.149
L392.069 282.403
L392.515 322.555
L392.962 318.104
L393.408 322.534
L393.854 322.753
L394.301 307.508
L394.747 308.038
L395.194 286.55
L396.086 323.044
L396.533 322.656
L396.979 303.702
L397.426 322.105
L397.872 322.315
L398.318 303.354
L398.765 307.949
L399.211 321.267
L399.658 322.485
L400.104 322.253
L400.55 303.352
L400.997 323.355
L401.443 322.276
L401.89 306.993
L402.336 308.921
L402.782 323.01
L403.229 322.162
L403.675 308.815
L404.122 322.215
L404.568 322.78
L405.014 321.481
L405.461 310.474
L405.907 322.07
L406.354 308.824
L406.8 316.911
L407.246 322.791
L407.693 322.469
L408.139 309.989
L408.586 321.669
L409.032 305.158
L409.478 320.51
L409.925 322.488
L410.371 322.177
L410.818 302.622
L411.264 321.734
L411.71 322.717
L412.157 310.848
L412.603 305.782
L413.05 322.891
L413.496 318.096
L413.942 322.457
L414.389 322.115
L414.835 304.152
L415.282 322.235
L415.728 322.429
L416.174 303.004
L416.621 323.149
L417.067 309.003
L417.514 309.652
L418.406 322.569
L418.853 309.253
L419.299 320.928
L419.746 322.155
L420.192 322.465
L420.638 311.554
L421.085 322.505
L421.531 322.439
L421.978 300.674
L422.424 322.586
L422.87 322.13
L423.317 305.639
L423.763 321.791
L424.21 322.61
L424.656 288.323
L425.102 309.653
L425.549 275.72
L425.995 322.389
L426.442 322.63
L426.888 323.185
L427.334 322.869
L427.781 321.973
L428.227 318.298
L428.674 323.044
L429.12 322.385
L429.566 320.779
L430.013 320.177
L430.459 322.723
L431.352 322.816
L431.798 318.296
L432.245 321.517
L432.691 321.964
L433.138 303.346
L433.584 322.978
L434.03 308.496
L434.477 302.455
L434.923 322.605
L435.37 322.54
L435.816 319.837
L436.262 305.673
L436.709 305.783
L437.155 322.611
L437.602 321.575
L438.048 297.109
L438.494 322.483
L438.941 322.352
L439.387 307.459
L439.834 321.887
L440.28 304.966
L440.726 321.796
L441.173 322.406
L441.619 304.888
L442.066 322.794
L442.512 323.088
L442.958 322.685
L443.405 322.522
L443.851 307.699
L444.298 322.202
L444.744 321.802
L445.19 304.507
L445.637 295.14
L446.083 308.867
L446.53 306.045
L446.976 304.434
L447.422 320.411
L447.869 316.899
L448.315 321.953
L448.762 322.049
L449.208 303.38
L449.654 321.694
L450.101 321.671
L450.547 303.984
L450.994 303.788
L451.44 306.63
L451.886 321.806
L452.333 323.195
L452.779 303.543
L453.226 323.227
L453.672 308.775
L454.118 315.124
L454.565 323.181
L455.011 322.494
L455.458 307.227
L455.904 310.096
L456.35 275.643
L456.797 309.787
L457.243 322.471
L457.69 321.165
L458.136 321.969
L458.582 294.847
L459.029 309.891
L459.475 309.795
L459.922 323.036
L460.368 320.493
L460.814 307.785
L461.261 322.378
L461.707 309.345
L462.154 303.064
L462.6 322.305
L463.046 322.017
L463.493 315.524
L463.939 323.057
L464.386 322.74
L464.832 287.459
L465.278 291.499
L465.725 322.384
L466.171 322.396
L466.618 305.769
L467.064 308.981
L467.51 321.742
L467.957 311.437
L468.403 323.023
L468.85 321.958
L469.296 302.391
L469.742 322.16
L470.189 322.027
L470.635 304.615
L471.082 322.617
L471.528 322.445
L471.974 305.02
L472.421 322.978
L472.867 291.545
L473.314 323.101
L473.76 322.942
L474.206 323.044
L474.653 319.742
L475.099 321.99
L475.546 322.225
L475.992 309.366
L476.438 323.133
L476.885 322.634
L477.331 309.017
L477.778 322.865
L478.224 305.625
L478.67 305.937
L479.117 323.092
L479.563 322.869
L480.01 316.584
L480.456 322.869
L480.902 322.646
L481.349 302.165
L481.795 322.683
L482.242 321.847
L482.688 310.195
L483.134 322.83
L483.581 322.291
L484.027 302.701
L484.474 322.912
L484.92 303.351
L485.366 321.46
L485.813 321.869
L486.259 321.416
L486.706 306.583
L487.152 322.567
L487.598 322.372
L488.045 310.935
L488.491 323.616
L488.938 320.868
L489.384 303.606
L489.83 323.282
L490.277 321.253
L490.723 310.012
L491.17 308.764
L491.616 304.949
L492.062 322.522
L492.509 309.608
L492.955 317.985
L493.402 320.999
L493.848 308.14
L494.294 320.037
L494.741 322.078
L495.187 323.03
L495.634 308.213
L496.08 321.862
L496.526 308.977
L496.973 306.928
L497.419 323.269
L497.866 296.089
L498.312 322.414
L498.758 321.903
L499.205 310.598
L499.651 322.347
L500.098 320.513
L500.544 293.044
L501.437 321.894
L501.883 322.42
L502.33 322.261
L502.776 321.358
L503.222 322.854
L503.669 298.614
L504.115 308.892
L504.562 312.664
L505.008 322.364
L505.454 322.468
L505.901 302.925
L506.347 321.875
L506.794 322.199
L507.24 309.787
L507.686 321.519
L508.133 321.749
L508.579 303.43
L509.026 322.216
L509.472 322.908
L509.918 96.4279
L510.365 322.614
L510.811 322.67
L511.258 301.425
L511.704 322.484
L512.15 308.54
L512.597 320.939
L513.043 322.594
L513.49 322.471
L513.936 300.914
L514.382 309.147
L514.829 299.191
L515.275 309.142
L515.722 303.726
L516.168 321.526
L516.614 321.349
L517.061 310.401
L517.507 305.797
L517.954 303.579
L517.954 303.579" style="fill:none;opacity:0.7;stroke:#008000;"/>
   </g>
   <g id="line2d_3">
    <path clip-path="url(#p7ff5b81e1d)" d="
M72 260.694
L72.4464 221.469
L72.8928 274.735
L73.3392 277.74
L73.7856 273.565
L74.232 276.617
L74.6784 271.731
L75.1248 272.78
L75.5712 323.138
L76.0176 323.594
L76.464 283.408
L76.9104 279.879
L77.3568 306.369
L77.8032 268.536
L78.2496 284.835
L78.696 271.156
L79.1424 282.671
L79.5888 272.886
L80.0352 279.401
L80.4816 276.917
L80.928 313.722
L81.3744 285.272
L81.8208 284.094
L82.2672 322.438
L82.7136 279.263
L83.16 284.553
L83.6064 322.712
L84.0528 316.302
L84.4992 323.481
L84.9456 323.344
L85.392 313.622
L85.8384 223.426
L86.7312 323.212
L87.1776 284.212
L87.624 323.97
L88.0704 275.339
L88.5168 305.36
L88.9632 305.278
L89.4096 309.364
L89.856 322.443
L90.3024 306.116
L90.7488 323.002
L91.1952 323.486
L91.6416 311.936
L92.088 324.115
L92.5344 323.336
L92.9808 281.461
L93.4272 307.603
L93.8736 324.108
L94.32 323.632
L94.7664 319.886
L95.2128 323.292
L95.6592 323.904
L96.1056 312.942
L96.552 324.183
L96.9984 310.856
L97.4448 311.027
L97.8912 323.567
L98.3376 276.703
L98.784 323.431
L99.2304 306.479
L99.6768 324.125
L100.123 321.797
L100.57 318.556
L101.016 323.882
L101.462 323.207
L101.909 312.436
L102.355 323.632
L102.802 324.071
L103.248 318.393
L103.694 324.635
L104.141 323.416
L104.587 294.801
L105.034 278.712
L105.48 305.686
L105.926 323.576
L106.373 324.207
L106.819 311.516
L107.266 323.101
L107.712 323.629
L108.158 311.324
L108.605 323.247
L109.051 323.704
L109.498 306.052
L109.944 305.907
L110.837 324.049
L111.283 323.363
L111.73 318.896
L112.176 324.286
L112.622 323.808
L113.069 298.401
L113.515 323.947
L113.962 310.406
L114.408 324.103
L114.854 323.454
L115.301 312.988
L115.747 322.968
L116.194 322.037
L116.64 321.622
L117.086 306.366
L117.533 323.348
L117.979 322.618
L118.426 323.381
L119.318 322.881
L119.765 306.731
L120.211 324.304
L120.658 309.425
L121.104 323.302
L121.55 320.991
L121.997 323.328
L122.443 323.555
L122.89 320.123
L123.336 310.363
L123.782 305.624
L124.229 323.622
L124.675 305.988
L125.122 310.198
L125.568 322.841
L126.014 323.05
L126.461 306.948
L126.907 322.944
L127.354 323.12
L127.8 323.608
L128.246 296.685
L128.693 310.763
L129.139 318.693
L129.586 324.215
L130.032 324.168
L130.478 318.371
L130.925 324.087
L131.371 322.815
L131.818 323.987
L132.71 323.521
L133.157 309.598
L133.603 323.858
L134.05 315.099
L134.496 323.754
L134.942 311.18
L135.389 323.664
L135.835 324.409
L136.282 323.293
L136.728 306.007
L137.174 323.212
L137.621 306.099
L138.067 308.994
L138.514 313.407
L138.96 323.458
L139.406 310.99
L139.853 310.966
L140.299 290.407
L140.746 323.372
L141.192 323.619
L141.638 318.405
L142.085 323.64
L142.531 323.811
L142.978 316.984
L143.424 323.569
L143.87 323.056
L144.317 314.853
L144.763 323.354
L145.21 323.46
L145.656 318.873
L146.102 323.794
L146.549 323.833
L146.995 313.737
L147.442 323.786
L147.888 323.166
L148.334 302.618
L148.781 308.796
L149.227 322.898
L149.674 323.492
L150.12 323.74
L150.566 318.524
L151.013 322.213
L151.459 292.918
L151.906 310.357
L152.352 313.627
L152.798 293.705
L153.245 322.396
L153.691 310.34
L154.138 306.883
L154.584 311.256
L155.03 311.775
L155.477 307.39
L155.923 323.402
L156.37 323.666
L156.816 322.728
L157.262 303.923
L157.709 323.943
L158.155 323.195
L158.602 319.73
L159.048 323.461
L159.494 323.334
L159.941 314.419
L160.387 324.127
L160.834 323.63
L161.28 318.69
L161.726 322.137
L162.173 322.883
L162.619 323.164
L163.066 292.832
L163.512 323.307
L163.958 323.586
L164.405 311.583
L164.851 291.78
L165.298 316.272
L165.744 323.412
L166.19 323.237
L166.637 306.426
L167.083 323.327
L167.53 323.411
L167.976 322.587
L168.422 323.952
L168.869 305.898
L169.315 323.133
L169.762 323.477
L170.208 318.398
L170.654 323.279
L171.101 310.235
L171.547 306.031
L171.994 323.166
L172.44 318.926
L172.886 310.875
L173.333 309.73
L173.779 323.297
L174.226 323.452
L174.672 314.694
L175.118 323.557
L175.565 322.804
L176.011 319.881
L176.458 323.457
L176.904 323.258
L177.35 313.29
L177.797 322.858
L178.243 322.216
L178.69 319.975
L179.136 323.514
L179.582 323.742
L180.029 313.435
L180.475 322.775
L180.922 322.622
L181.368 306.848
L181.814 323.134
L182.261 322.746
L182.707 323.698
L183.154 323.791
L183.6 318.003
L184.046 323.136
L184.493 323.345
L184.939 301.675
L185.386 323.447
L185.832 318.882
L186.278 306.211
L186.725 323.293
L187.171 311.234
L187.618 323.248
L188.064 317.371
L188.51 323.437
L188.957 323.431
L189.403 306.36
L189.85 324.529
L190.296 294.034
L191.189 322.747
L191.635 322.703
L192.082 323.44
L192.528 323.088
L192.974 309.864
L193.421 290.152
L193.867 323.894
L194.314 314.35
L194.76 323.429
L195.206 310.378
L195.653 323.747
L196.099 323.359
L196.546 323.364
L196.992 308.678
L197.438 323.623
L197.885 312.046
L198.331 323.61
L198.778 323.162
L199.224 314.336
L199.67 323.227
L200.563 323.659
L201.01 324.159
L201.456 304.289
L201.902 323.499
L202.349 323.036
L202.795 307.466
L203.242 323.504
L203.688 310.118
L204.134 322.518
L204.581 323.35
L205.027 297.749
L205.474 323.523
L205.92 314.569
L206.366 323.719
L206.813 323.771
L207.259 300.676
L207.706 322.738
L208.152 311.747
L208.598 310.65
L209.045 311.558
L209.491 323.455
L209.938 305.823
L210.384 322.689
L210.83 310.86
L211.277 320.509
L211.723 323.323
L212.17 323.838
L212.616 290.295
L213.062 322.941
L213.509 323.416
L213.955 324.354
L214.402 310.352
L214.848 322.843
L215.294 322.875
L215.741 323.325
L216.187 322.62
L216.634 323.226
L217.08 323.5
L217.526 321.891
L217.973 324.26
L218.419 323.966
L218.866 313.446
L219.312 306.977
L219.758 324.295
L220.205 310.291
L220.651 323.125
L221.544 311.421
L221.99 309.178
L222.437 323.375
L222.883 322.603
L223.33 310.023
L223.776 322.994
L224.222 311.358
L224.669 323.22
L225.115 314.504
L225.562 323.049
L226.008 323.17
L226.901 308.246
L227.347 314.321
L227.794 323.114
L228.24 323.172
L228.686 314.75
L229.133 323.679
L229.579 310.137
L230.026 306.129
L230.472 323.068
L230.918 310.287
L231.365 322.843
L231.811 309.95
L232.258 323.474
L232.704 323.339
L233.15 319.916
L233.597 322.814
L234.043 323.092
L234.49 316.719
L234.936 324.031
L235.829 320.588
L236.275 323.394
L236.722 291.409
L237.168 323.903
L237.614 323.651
L238.061 311.305
L238.507 324.403
L238.954 323.582
L239.4 312.431
L239.846 309.115
L240.293 312.031
L240.739 310.675
L241.186 310.843
L241.632 323.347
L242.078 323.862
L242.971 305.84
L243.418 310.65
L243.864 322.742
L244.31 323.359
L244.757 305.205
L245.203 323.843
L245.65 311.055
L246.096 311.543
L246.542 311.099
L246.989 323.67
L247.435 322.942
L247.882 319.628
L248.328 306.85
L249.221 323.471
L249.667 323.755
L250.114 313.441
L250.56 323.82
L251.006 322.899
L251.453 319.795
L251.899 323.943
L252.346 322.721
L252.792 310.479
L253.238 322.914
L253.685 318.423
L254.131 324.048
L254.578 322.704
L255.024 318.71
L255.47 323.815
L255.917 306.193
L256.363 323.265
L256.81 323.218
L257.256 281.862
L257.702 322.622
L258.149 323.006
L258.595 311.253
L259.042 306.655
L259.488 322.894
L259.934 311.121
L260.381 323.318
L260.827 323.227
L261.274 316.068
L261.72 323.773
L262.166 323.478
L262.613 319.656
L263.059 309.965
L263.506 311.328
L263.952 322.801
L264.398 323.087
L264.845 317.388
L265.291 323.238
L265.738 310.36
L266.184 323.884
L266.63 322.833
L267.077 322.368
L267.523 323.177
L267.97 309.315
L268.416 314.598
L268.862 322.854
L269.309 309.203
L269.755 324.103
L270.202 323.599
L270.648 319.639
L271.094 290.561
L271.541 322.934
L271.987 310.37
L272.434 311.782
L272.88 324.205
L273.326 323.71
L273.773 319.315
L274.219 310.32
L274.666 305.705
L275.112 323.952
L276.005 322.939
L276.451 323.462
L276.898 310.19
L277.344 323.708
L277.79 322.907
L278.237 314.074
L278.683 323.335
L279.13 306.892
L279.576 324.053
L280.022 310.287
L280.469 300.576
L280.915 306.906
L281.362 310.98
L281.808 323.55
L282.254 317.023
L282.701 323.131
L283.147 323.099
L283.594 314.865
L284.04 323.84
L284.486 323.539
L284.933 318.852
L285.379 323.225
L285.826 323.083
L286.272 323.386
L286.718 322.92
L287.165 307.115
L287.611 323.444
L288.058 290.435
L288.504 305.728
L288.95 306.975
L289.397 324.47
L289.843 309.768
L290.29 323.582
L290.736 306.832
L291.182 306.6
L291.629 310.716
L292.075 322.187
L292.522 323.195
L293.414 320.916
L293.861 323.066
L294.307 323.275
L294.754 305.403
L295.2 323.294
L295.646 313.807
L296.093 323.139
L296.539 322.329
L296.986 317.656
L297.432 323.528
L297.878 306.795
L298.325 323.04
L298.771 322.836
L299.218 323.344
L299.664 324.363
L300.11 322.985
L300.557 296.486
L301.003 323.311
L301.45 307.256
L301.896 323.957
L302.342 323.727
L302.789 303.115
L303.682 309.167
L304.128 280.43
L304.574 322.271
L305.021 299.206
L305.467 323.02
L305.914 311.31
L306.36 311.57
L306.806 305.474
L307.253 324.042
L307.699 279.185
L308.146 323.739
L308.592 318.154
L309.038 322.37
L309.485 304.274
L309.931 323.823
L310.378 323.735
L310.824 317.83
L311.27 323.259
L311.717 310.188
L312.163 322.651
L312.61 323.074
L313.056 323.766
L313.502 323.181
L313.949 323.574
L314.395 323.407
L314.842 318.846
L315.288 323.013
L315.734 324.039
L316.181 307.867
L316.627 318.847
L317.52 310.845
L317.966 295.075
L318.413 323.127
L318.859 312.285
L319.306 322.801
L319.752 324.469
L320.198 320.631
L320.645 323.14
L321.091 323.233
L321.538 322.084
L321.984 323.353
L322.43 322.411
L322.877 305.161
L323.323 306.475
L323.77 309.398
L324.216 322.967
L324.662 300.514
L325.109 306.879
L325.555 323.346
L326.894 323.724
L327.341 322.952
L327.787 222.43
L328.234 162.261
L328.68 322.655
L329.126 298.881
L329.573 316.373
L330.019 323.518
L330.466 307.28
L330.912 323.273
L331.358 322.667
L331.805 304.613
L332.251 322.949
L332.698 310.069
L333.144 322.72
L333.59 310.047
L334.037 306.809
L334.483 322.588
L334.93 297.934
L335.376 323.434
L335.822 323.793
L336.269 307.07
L336.715 306.437
L337.162 324.317
L337.608 317.61
L338.054 322.61
L338.501 323.317
L338.947 323.46
L339.394 323.751
L339.84 323.469
L340.286 314.627
L340.733 321.331
L341.179 322.808
L342.072 293.196
L342.518 304.373
L342.965 323.313
L343.411 323.708
L343.858 307.579
L344.304 310.778
L344.75 324.529
L345.197 271.834
L345.643 323.541
L346.09 313.192
L346.536 322.916
L346.982 322.758
L347.429 321.696
L347.875 323.859
L348.322 324.075
L348.768 305.88
L349.214 309.548
L349.661 322.765
L350.107 322.97
L350.554 310.69
L351 323.017
L351.893 323.48
L352.339 322.522
L352.786 309.505
L353.232 314.224
L353.678 322.598
L354.125 322.394
L354.571 323.268
L355.018 322.508
L355.464 322.685
L355.91 300.805
L356.357 323.468
L356.803 323.537
L357.25 323.468
L357.696 312.188
L358.142 310.616
L358.589 311.239
L359.035 322.941
L359.482 323.092
L359.928 321.907
L360.374 322.99
L360.821 322.517
L361.267 317.618
L361.714 323.509
L362.606 323.58
L363.053 323.434
L363.499 308.276
L363.946 306.727
L364.392 316.018
L364.838 322.976
L365.285 323.749
L365.731 307.357
L366.178 306.765
L366.624 323.386
L367.07 323.63
L367.517 324.246
L367.963 323.924
L368.41 307.717
L368.856 322.275
L369.302 309.771
L369.749 310.962
L370.195 322.892
L370.642 322.955
L371.088 309.845
L371.534 322.987
L371.981 305.263
L372.427 323.707
L372.874 323.829
L373.32 321.974
L373.766 321.097
L374.213 309.93
L374.659 322.806
L375.106 311.34
L375.552 322.339
L375.998 311.049
L376.445 311.903
L376.891 323.466
L377.338 323.132
L377.784 285.465
L378.23 296.041
L378.677 311.065
L379.123 294.351
L379.57 322.861
L380.016 323.526
L380.462 322.716
L380.909 323.61
L381.355 322.421
L381.802 322.944
L382.248 323.036
L382.694 317.06
L383.141 323.302
L383.587 323.46
L384.034 322.738
L384.48 323.315
L384.926 306.681
L385.373 322.641
L385.819 322.903
L386.266 309.66
L386.712 321.654
L387.158 322.936
L387.605 323.652
L388.051 323.191
L388.498 323.802
L388.944 317.171
L389.39 323.875
L389.837 323.572
L390.283 321.017
L390.73 323.168
L391.176 309.749
L391.622 322.027
L392.069 148.207
L392.515 323.087
L392.962 323.425
L393.408 321.119
L393.854 310.434
L394.301 312.758
L394.747 323.441
L395.194 323.277
L395.64 306.341
L396.086 310.899
L396.533 322.469
L396.979 323.745
L397.872 322.994
L398.318 323.329
L398.765 306.274
L399.211 307.535
L399.658 322.411
L400.55 322.055
L400.997 323.147
L401.443 307.579
L401.89 323.76
L402.336 310.277
L402.782 321.248
L403.229 322.958
L403.675 289.79
L404.122 323.675
L404.568 310.164
L405.014 323.356
L405.461 322.653
L405.907 322.4
L406.354 322.63
L406.8 322.543
L407.246 318.756
L408.139 323.962
L408.586 321.665
L409.032 309.5
L409.478 323.026
L409.925 322.994
L410.371 323.152
L410.818 322.884
L411.264 323.274
L411.71 323.379
L412.157 322.81
L412.603 323.504
L413.05 323.08
L413.496 318.681
L413.942 304.033
L414.389 318.999
L414.835 322.728
L415.282 322.518
L415.728 304.448
L416.174 323.17
L416.621 313.249
L417.067 324.382
L417.514 322.817
L417.96 322.585
L418.406 323.052
L419.299 322.096
L419.746 322.847
L420.192 310.011
L420.638 323.925
L421.085 324.12
L421.531 311.681
L421.978 323.506
L422.424 323.474
L422.87 317.951
L423.317 323.761
L423.763 311.125
L424.21 304.931
L424.656 310.404
L425.102 323.705
L425.549 310.642
L425.995 323.058
L426.442 323.578
L426.888 323.636
L427.334 318.716
L427.781 323.223
L428.674 323.53
L429.566 324.085
L430.013 303.505
L430.459 323.789
L430.906 299.405
L431.352 323.889
L431.798 289.591
L432.245 310.624
L432.691 322.144
L433.138 322.958
L433.584 323.067
L434.03 322.082
L434.477 322.467
L434.923 322.597
L435.37 322.099
L435.816 322.992
L436.262 310.212
L436.709 323.899
L437.155 323.33
L437.602 311.236
L438.048 323.263
L438.494 294.756
L438.941 321.958
L439.387 307.29
L439.834 323.423
L440.28 323.495
L440.726 303.083
L441.173 322.771
L441.619 314.228
L442.066 286.233
L442.512 323.332
L442.958 307.819
L443.405 323.664
L443.851 322.535
L444.298 323.446
L444.744 323.769
L445.19 322.895
L445.637 318.082
L446.083 323.923
L446.53 322.491
L446.976 322.913
L447.869 297.619
L448.315 323.254
L448.762 280.22
L449.208 308.54
L449.654 323.902
L450.101 322.704
L450.547 322.057
L450.994 307.474
L451.44 318.72
L452.333 300.848
L452.779 323.474
L453.226 313.245
L453.672 322.826
L454.118 323.568
L454.565 305.645
L455.011 323.551
L455.458 313.301
L455.904 322.615
L456.35 323.238
L456.797 318.949
L457.243 322.887
L457.69 323.156
L458.136 323.152
L458.582 323.682
L459.029 323.873
L459.475 320.884
L459.922 323.124
L460.368 323.327
L460.814 324.046
L461.261 323.457
L461.707 318.673
L462.154 323.563
L462.6 306.58
L463.046 321.976
L463.493 322.552
L463.939 313.556
L464.386 322.298
L464.832 322.546
L465.278 320.524
L465.725 322.425
L466.171 309.934
L466.618 310.974
L467.064 310.813
L467.51 323.791
L467.957 323.049
L468.403 323.658
L468.85 323.696
L469.296 322.983
L469.742 322.611
L470.189 322.466
L470.635 319.457
L471.082 323.076
L471.974 322.856
L472.421 323.161
L472.867 309.589
L473.314 324.225
L473.76 323.269
L474.206 310.304
L474.653 322.499
L475.546 324.049
L475.992 291.976
L476.438 311.099
L476.885 322.265
L477.331 322.045
L477.778 323.46
L478.224 322.266
L478.67 304.815
L479.117 301.303
L479.563 323.527
L480.01 323.75
L480.456 317.66
L480.902 323.146
L481.349 309.126
L481.795 323.588
L482.242 323.27
L482.688 293.192
L483.134 322.897
L483.581 316.665
L484.027 323.11
L484.474 323.293
L484.92 319.019
L485.366 323.404
L485.813 324.019
L486.259 306.211
L486.706 306.731
L487.152 323.303
L487.598 323.582
L488.045 322.734
L488.491 306.55
L488.938 323.441
L489.384 323.014
L489.83 323.757
L490.277 305.609
L490.723 323.117
L491.17 323.371
L491.616 313.175
L492.062 323.244
L492.509 322.405
L492.955 291.724
L493.402 309.786
L493.848 310.46
L494.294 322.303
L494.741 311.448
L495.187 323.192
L495.634 322.838
L496.08 308.936
L496.526 323.044
L496.973 323.374
L497.419 324.186
L497.866 322.244
L498.312 308.658
L498.758 323.142
L499.205 323.028
L499.651 319.882
L500.098 322.71
L500.544 322.695
L500.99 322.445
L501.437 322.824
L501.883 316.11
L502.33 323.223
L502.776 310.318
L503.222 310.579
L503.669 310.421
L504.115 323.653
L504.562 323.286
L505.008 313.407
L505.454 323.934
L505.901 323.037
L506.347 323.525
L506.794 322.904
L507.24 313.467
L507.686 323.082
L508.133 323.907
L508.579 322.861
L509.026 323.632
L509.472 305.983
L509.918 323.438
L510.365 323.03
L510.811 314.478
L511.258 322.726
L511.704 322.448
L512.15 309.328
L512.597 324.409
L513.043 315.455
L513.49 322.531
L513.936 322.441
L514.382 305.503
L514.829 323.664
L515.275 320.871
L515.722 323.009
L516.168 323.51
L516.614 319.905
L517.061 323.237
L517.954 294.517
L517.954 294.517" style="fill:none;opacity:0.5;stroke:#0000ff;"/>
   </g>
   <g id="matplotlib.axis_1">
    <g id="xtick_1">
     <g id="line2d_4">
      <path clip-path="url(#p7ff5b81e1d)" d="
M72 388.8
L72 43.2" style="fill:none;stroke:#000000;stroke-dasharray:1.000000,3.000000;stroke-dashoffset:0.0;stroke-linecap:butt;stroke-width:0.5;"/>
     </g>
     <g id="line2d_5">
      <defs>
       <path d="
M0 0
L0 -4" id="m0012dd4eef" style="stroke:#000000;stroke-linecap:butt;stroke-width:0.5;"/>
      </defs>
      <g>
       <use style="stroke:#000000;stroke-linecap:butt;stroke-width:0.5;" x="72.0" xlink:href="#m0012dd4eef" y="388.8"/>
      </g>
     </g>
     <g id="line2d_6">
      <defs>
       <path d="
M0 0
L0 4" id="m476344969c" style="stroke:#000000;stroke-linecap:butt;stroke-width:0.5;"/>
      </defs>
      <g>
       <use style="stroke:#000000;stroke-linecap:butt;stroke-width:0.5;" x="72.0" xlink:href="#m476344969c" y="43.2"/>
      </g>
     </g>
     <g id="text_1">
      <!-- 0 -->
      <defs>
       <path d="
M31.7812 66.4062
Q24.1719 66.4062 20.3281 58.9062
Q16.5 51.4219 16.5 36.375
Q16.5 21.3906 20.3281 13.8906
Q24.1719 6.39062 31.7812 6.39062
Q39.4531 6.39062 43.2812 13.8906
Q47.125 21.3906 47.125 36.375
Q47.125 51.4219 43.2812 58.9062
Q39.4531 66.4062 31.7812 66.4062
M31.7812 74.2188
Q44.0469 74.2188 50.5156 64.5156
Q56.9844 54.8281 56.9844 36.375
Q56.9844 17.9688 50.5156 8.26562
Q44.0469 -1.42188 31.7812 -1.42188
Q19.5312 -1.42188 13.0625 8.26562
Q6.59375 17.9688 6.59375 36.375
Q6.59375 54.8281 13.0625 64.5156
Q19.5312 74.2188 31.7812 74.2188" id="BitstreamVeraSans-Roman-30"/>
      </defs>
      <g transform="translate(68.9765625 401.70625)scale(0.12 -0.12)">
       <use xlink:href="#BitstreamVeraSans-Roman-30"/>
      </g>
     </g>
    </g>
    <g id="xtick_2">
     <g id="line2d_7">
      <path clip-path="url(#p7ff5b81e1d)" d="
M116.64 388.8
L116.64 43.2" style="fill:none;stroke:#000000;stroke-dasharray:1.000000,3.000000;stroke-dashoffset:0.0;stroke-linecap:butt;stroke-width:0.5;"/>
     </g>
     <g id="line2d_8">
      <g>
       <use style="stroke:#000000;stroke-linecap:butt;stroke-width:0.5;" x="116.64" xlink:href="#m0012dd4eef" y="388.8"/>
      </g>
     </g>
     <g id="line2d_9">
      <g>
       <use style="stroke:#000000;stroke-linecap:butt;stroke-width:0.5;" x="116.64" xlink:href="#m476344969c" y="43.2"/>
      </g>
     </g>
     <g id="text_2">
      <!-- 100 -->
      <defs>
       <path d="
M12.4062 8.29688
L28.5156 8.29688
L28.5156 63.9219
L10.9844 60.4062
L10.9844 69.3906
L28.4219 72.9062
L38.2812 72.9062
L38.2812 8.29688
L54.3906 8.29688
L54.3906 0
L12.4062 0
z
" id="BitstreamVeraSans-Roman-31"/>
      </defs>
      <g transform="translate(106.245 401.70625)scale(0.12 -0.12)">
       <use xlink:href="#BitstreamVeraSans-Roman-31"/>
       <use x="63.623046875" xlink:href="#BitstreamVeraSans-Roman-30"/>
       <use x="127.24609375" xlink:href="#BitstreamVeraSans-Roman-30"/>
      </g>
     </g>
    </g>
    <g id="xtick_3">
     <g id="line2d_10">
      <path clip-path="url(#p7ff5b81e1d)" d="
M161.28 388.8
L161.28 43.2" style="fill:none;stroke:#000000;stroke-dasharray:1.000000,3.000000;stroke-dashoffset:0.0;stroke-linecap:butt;stroke-width:0.5;"/>
     </g>
     <g id="line2d_11">
      <g>
       <use style="stroke:#000000;stroke-linecap:butt;stroke-width:0.5;" x="161.28" xlink:href="#m0012dd4eef" y="388.8"/>
      </g>
     </g>
     <g id="line2d_12">
      <g>
       <use style="stroke:#000000;stroke-linecap:butt;stroke-width:0.5;" x="161.28" xlink:href="#m476344969c" y="43.2"/>
      </g>
     </g>
     <g id="text_3">
      <!-- 200 -->
      <defs>
       <path d="
M19.1875 8.29688
L53.6094 8.29688
L53.6094 0
L7.32812 0
L7.32812 8.29688
Q12.9375 14.1094 22.625 23.8906
Q32.3281 33.6875 34.8125 36.5312
Q39.5469 41.8438 41.4219 45.5312
Q43.3125 49.2188 43.3125 52.7812
Q43.3125 58.5938 39.2344 62.25
Q35.1562 65.9219 28.6094 65.9219
Q23.9688 65.9219 18.8125 64.3125
Q13.6719 62.7031 7.8125 59.4219
L7.8125 69.3906
Q13.7656 71.7812 18.9375 73
Q24.125 74.2188 28.4219 74.2188
Q39.75 74.2188 46.4844 68.5469
Q53.2188 62.8906 53.2188 53.4219
Q53.2188 48.9219 51.5312 44.8906
Q49.8594 40.875 45.4062 35.4062
Q44.1875 33.9844 37.6406 27.2188
Q31.1094 20.4531 19.1875 8.29688" id="BitstreamVeraSans-Roman-32"/>
      </defs>
      <g transform="translate(150.665625 401.70625)scale(0.12 -0.12)">
       <use xlink:href="#BitstreamVeraSans-Roman-32"/>
       <use x="63.623046875" xlink:href="#BitstreamVeraSans-Roman-30"/>
       <use x="127.24609375" xlink:href="#BitstreamVeraSans-Roman-30"/>
      </g>
     </g>
    </g>
    <g id="xtick_4">
     <g id="line2d_13">
      <path clip-path="url(#p7ff5b81e1d)" d="
M205.92 388.8
L205.92 43.2" style="fill:none;stroke:#000000;stroke-dasharray:1.000000,3.000000;stroke-dashoffset:0.0;stroke-linecap:butt;stroke-width:0.5;"/>
     </g>
     <g id="line2d_14">
      <g>
       <use style="stroke:#000000;stroke-linecap:butt;stroke-width:0.5;" x="205.92" xlink:href="#m0012dd4eef" y="388.8"/>
      </g>
     </g>
     <g id="line2d_15">
      <g>
       <use style="stroke:#000000;stroke-linecap:butt;stroke-width:0.5;" x="205.92" xlink:href="#m476344969c" y="43.2"/>
      </g>
     </g>
     <g id="text_4">
      <!-- 300 -->
      <defs>
       <path d="
M40.5781 39.3125
Q47.6562 37.7969 51.625 33
Q55.6094 28.2188 55.6094 21.1875
Q55.6094 10.4062 48.1875 4.48438
Q40.7656 -1.42188 27.0938 -1.42188
Q22.5156 -1.42188 17.6562 -0.515625
Q12.7969 0.390625 7.625 2.20312
L7.625 11.7188
Q11.7188 9.32812 16.5938 8.10938
Q21.4844 6.89062 26.8125 6.89062
Q36.0781 6.89062 40.9375 10.5469
Q45.7969 14.2031 45.7969 21.1875
Q45.7969 27.6406 41.2812 31.2656
Q36.7656 34.9062 28.7188 34.9062
L20.2188 34.9062
L20.2188 43.0156
L29.1094 43.0156
Q36.375 43.0156 40.2344 45.9219
Q44.0938 48.8281 44.0938 54.2969
Q44.0938 59.9062 40.1094 62.9062
Q36.1406 65.9219 28.7188 65.9219
Q24.6562 65.9219 20.0156 65.0312
Q15.375 64.1562 9.8125 62.3125
L9.8125 71.0938
Q15.4375 72.6562 20.3438 73.4375
Q25.25 74.2188 29.5938 74.2188
Q40.8281 74.2188 47.3594 69.1094
Q53.9062 64.0156 53.9062 55.3281
Q53.9062 49.2656 50.4375 45.0938
Q46.9688 40.9219 40.5781 39.3125" id="BitstreamVeraSans-Roman-33"/>
      </defs>
      <g transform="translate(195.3234375 401.70625)scale(0.12 -0.12)">
       <use xlink:href="#BitstreamVeraSans-Roman-33"/>
       <use x="63.623046875" xlink:href="#BitstreamVeraSans-Roman-30"/>
       <use x="127.24609375" xlink:href="#BitstreamVeraSans-Roman-30"/>
      </g>
     </g>
    </g>
    <g id="xtick_5">
     <g id="line2d_16">
      <path clip-path="url(#p7ff5b81e1d)" d="
M250.56 388.8
L250.56 43.2" style="fill:none;stroke:#000000;stroke-dasharray:1.000000,3.000000;stroke-dashoffset:0.0;stroke-linecap:butt;stroke-width:0.5;"/>
     </g>
     <g id="line2d_17">
      <g>
       <use style="stroke:#000000;stroke-linecap:butt;stroke-width:0.5;" x="250.56" xlink:href="#m0012dd4eef" y="388.8"/>
      </g>
     </g>
     <g id="line2d_18">
      <g>
       <use style="stroke:#000000;stroke-linecap:butt;stroke-width:0.5;" x="250.56" xlink:href="#m476344969c" y="43.2"/>
      </g>
     </g>
     <g id="text_5">
      <!-- 400 -->
      <defs>
       <path d="
M37.7969 64.3125
L12.8906 25.3906
L37.7969 25.3906
z

M35.2031 72.9062
L47.6094 72.9062
L47.6094 25.3906
L58.0156 25.3906
L58.0156 17.1875
L47.6094 17.1875
L47.6094 0
L37.7969 0
L37.7969 17.1875
L4.89062 17.1875
L4.89062 26.7031
z
" id="BitstreamVeraSans-Roman-34"/>
      </defs>
      <g transform="translate(239.799375 401.70625)scale(0.12 -0.12)">
       <use xlink:href="#BitstreamVeraSans-Roman-34"/>
       <use x="63.623046875" xlink:href="#BitstreamVeraSans-Roman-30"/>
       <use x="127.24609375" xlink:href="#BitstreamVeraSans-Roman-30"/>
      </g>
     </g>
    </g>
    <g id="xtick_6">
     <g id="line2d_19">
      <path clip-path="url(#p7ff5b81e1d)" d="
M295.2 388.8
L295.2 43.2" style="fill:none;stroke:#000000;stroke-dasharray:1.000000,3.000000;stroke-dashoffset:0.0;stroke-linecap:butt;stroke-width:0.5;"/>
     </g>
     <g id="line2d_20">
      <g>
       <use style="stroke:#000000;stroke-linecap:butt;stroke-width:0.5;" x="295.2" xlink:href="#m0012dd4eef" y="388.8"/>
      </g>
     </g>
     <g id="line2d_21">
      <g>
       <use style="stroke:#000000;stroke-linecap:butt;stroke-width:0.5;" x="295.2" xlink:href="#m476344969c" y="43.2"/>
      </g>
     </g>
     <g id="text_6">
      <!-- 500 -->
      <defs>
       <path d="
M10.7969 72.9062
L49.5156 72.9062
L49.5156 64.5938
L19.8281 64.5938
L19.8281 46.7344
Q21.9688 47.4688 24.1094 47.8281
Q26.2656 48.1875 28.4219 48.1875
Q40.625 48.1875 47.75 41.5
Q54.8906 34.8125 54.8906 23.3906
Q54.8906 11.625 47.5625 5.09375
Q40.2344 -1.42188 26.9062 -1.42188
Q22.3125 -1.42188 17.5469 -0.640625
Q12.7969 0.140625 7.71875 1.70312
L7.71875 11.625
Q12.1094 9.23438 16.7969 8.0625
Q21.4844 6.89062 26.7031 6.89062
Q35.1562 6.89062 40.0781 11.3281
Q45.0156 15.7656 45.0156 23.3906
Q45.0156 31 40.0781 35.4375
Q35.1562 39.8906 26.7031 39.8906
Q22.75 39.8906 18.8125 39.0156
Q14.8906 38.1406 10.7969 36.2812
z
" id="BitstreamVeraSans-Roman-35"/>
      </defs>
      <g transform="translate(284.6090625 401.70625)scale(0.12 -0.12)">
       <use xlink:href="#BitstreamVeraSans-Roman-35"/>
       <use x="63.623046875" xlink:href="#BitstreamVeraSans-Roman-30"/>
       <use x="127.24609375" xlink:href="#BitstreamVeraSans-Roman-30"/>
      </g>
     </g>
    </g>
    <g id="xtick_7">
     <g id="line2d_22">
      <path clip-path="url(#p7ff5b81e1d)" d="
M339.84 388.8
L339.84 43.2" style="fill:none;stroke:#000000;stroke-dasharray:1.000000,3.000000;stroke-dashoffset:0.0;stroke-linecap:butt;stroke-width:0.5;"/>
     </g>
     <g id="line2d_23">
      <g>
       <use style="stroke:#000000;stroke-linecap:butt;stroke-width:0.5;" x="339.84" xlink:href="#m0012dd4eef" y="388.8"/>
      </g>
     </g>
     <g id="line2d_24">
      <g>
       <use style="stroke:#000000;stroke-linecap:butt;stroke-width:0.5;" x="339.84" xlink:href="#m476344969c" y="43.2"/>
      </g>
     </g>
     <g id="text_7">
      <!-- 600 -->
      <defs>
       <path d="
M33.0156 40.375
Q26.375 40.375 22.4844 35.8281
Q18.6094 31.2969 18.6094 23.3906
Q18.6094 15.5312 22.4844 10.9531
Q26.375 6.39062 33.0156 6.39062
Q39.6562 6.39062 43.5312 10.9531
Q47.4062 15.5312 47.4062 23.3906
Q47.4062 31.2969 43.5312 35.8281
Q39.6562 40.375 33.0156 40.375
M52.5938 71.2969
L52.5938 62.3125
Q48.875 64.0625 45.0938 64.9844
Q41.3125 65.9219 37.5938 65.9219
Q27.8281 65.9219 22.6719 59.3281
Q17.5312 52.7344 16.7969 39.4062
Q19.6719 43.6562 24.0156 45.9219
Q28.375 48.1875 33.5938 48.1875
Q44.5781 48.1875 50.9531 41.5156
Q57.3281 34.8594 57.3281 23.3906
Q57.3281 12.1562 50.6875 5.35938
Q44.0469 -1.42188 33.0156 -1.42188
Q20.3594 -1.42188 13.6719 8.26562
Q6.98438 17.9688 6.98438 36.375
Q6.98438 53.6562 15.1875 63.9375
Q23.3906 74.2188 37.2031 74.2188
Q40.9219 74.2188 44.7031 73.4844
Q48.4844 72.75 52.5938 71.2969" id="BitstreamVeraSans-Roman-36"/>
      </defs>
      <g transform="translate(329.205 401.70625)scale(0.12 -0.12)">
       <use xlink:href="#BitstreamVeraSans-Roman-36"/>
       <use x="63.623046875" xlink:href="#BitstreamVeraSans-Roman-30"/>
       <use x="127.24609375" xlink:href="#BitstreamVeraSans-Roman-30"/>
      </g>
     </g>
    </g>
    <g id="xtick_8">
     <g id="line2d_25">
      <path clip-path="url(#p7ff5b81e1d)" d="
M384.48 388.8
L384.48 43.2" style="fill:none;stroke:#000000;stroke-dasharray:1.000000,3.000000;stroke-dashoffset:0.0;stroke-linecap:butt;stroke-width:0.5;"/>
     </g>
     <g id="line2d_26">
      <g>
       <use style="stroke:#000000;stroke-linecap:butt;stroke-width:0.5;" x="384.48" xlink:href="#m0012dd4eef" y="388.8"/>
      </g>
     </g>
     <g id="line2d_27">
      <g>
       <use style="stroke:#000000;stroke-linecap:butt;stroke-width:0.5;" x="384.48" xlink:href="#m476344969c" y="43.2"/>
      </g>
     </g>
     <g id="text_8">
      <!-- 700 -->
      <defs>
       <path d="
M8.20312 72.9062
L55.0781 72.9062
L55.0781 68.7031
L28.6094 0
L18.3125 0
L43.2188 64.5938
L8.20312 64.5938
z
" id="BitstreamVeraSans-Roman-37"/>
      </defs>
      <g transform="translate(373.918125 401.70625)scale(0.12 -0.12)">
       <use xlink:href="#BitstreamVeraSans-Roman-37"/>
       <use x="63.623046875" xlink:href="#BitstreamVeraSans-Roman-30"/>
       <use x="127.24609375" xlink:href="#BitstreamVeraSans-Roman-30"/>
      </g>
     </g>
    </g>
    <g id="xtick_9">
     <g id="line2d_28">
      <path clip-path="url(#p7ff5b81e1d)" d="
M429.12 388.8
L429.12 43.2" style="fill:none;stroke:#000000;stroke-dasharray:1.000000,3.000000;stroke-dashoffset:0.0;stroke-linecap:butt;stroke-width:0.5;"/>
     </g>
     <g id="line2d_29">
      <g>
       <use style="stroke:#000000;stroke-linecap:butt;stroke-width:0.5;" x="429.12" xlink:href="#m0012dd4eef" y="388.8"/>
      </g>
     </g>
     <g id="line2d_30">
      <g>
       <use style="stroke:#000000;stroke-linecap:butt;stroke-width:0.5;" x="429.12" xlink:href="#m476344969c" y="43.2"/>
      </g>
     </g>
     <g id="text_9">
      <!-- 800 -->
      <defs>
       <path d="
M31.7812 34.625
Q24.75 34.625 20.7188 30.8594
Q16.7031 27.0938 16.7031 20.5156
Q16.7031 13.9219 20.7188 10.1562
Q24.75 6.39062 31.7812 6.39062
Q38.8125 6.39062 42.8594 10.1719
Q46.9219 13.9688 46.9219 20.5156
Q46.9219 27.0938 42.8906 30.8594
Q38.875 34.625 31.7812 34.625
M21.9219 38.8125
Q15.5781 40.375 12.0312 44.7188
Q8.5 49.0781 8.5 55.3281
Q8.5 64.0625 14.7188 69.1406
Q20.9531 74.2188 31.7812 74.2188
Q42.6719 74.2188 48.875 69.1406
Q55.0781 64.0625 55.0781 55.3281
Q55.0781 49.0781 51.5312 44.7188
Q48 40.375 41.7031 38.8125
Q48.8281 37.1562 52.7969 32.3125
Q56.7812 27.4844 56.7812 20.5156
Q56.7812 9.90625 50.3125 4.23438
Q43.8438 -1.42188 31.7812 -1.42188
Q19.7344 -1.42188 13.25 4.23438
Q6.78125 9.90625 6.78125 20.5156
Q6.78125 27.4844 10.7812 32.3125
Q14.7969 37.1562 21.9219 38.8125
M18.3125 54.3906
Q18.3125 48.7344 21.8438 45.5625
Q25.3906 42.3906 31.7812 42.3906
Q38.1406 42.3906 41.7188 45.5625
Q45.3125 48.7344 45.3125 54.3906
Q45.3125 60.0625 41.7188 63.2344
Q38.1406 66.4062 31.7812 66.4062
Q25.3906 66.4062 21.8438 63.2344
Q18.3125 60.0625 18.3125 54.3906" id="BitstreamVeraSans-Roman-38"/>
      </defs>
      <g transform="translate(418.4728125 401.70625)scale(0.12 -0.12)">
       <use xlink:href="#BitstreamVeraSans-Roman-38"/>
       <use x="63.623046875" xlink:href="#BitstreamVeraSans-Roman-30"/>
       <use x="127.24609375" xlink:href="#BitstreamVeraSans-Roman-30"/>
      </g>
     </g>
    </g>
    <g id="xtick_10">
     <g id="line2d_31">
      <path clip-path="url(#p7ff5b81e1d)" d="
M473.76 388.8
L473.76 43.2" style="fill:none;stroke:#000000;stroke-dasharray:1.000000,3.000000;stroke-dashoffset:0.0;stroke-linecap:butt;stroke-width:0.5;"/>
     </g>
     <g id="line2d_32">
      <g>
       <use style="stroke:#000000;stroke-linecap:butt;stroke-width:0.5;" x="473.76" xlink:href="#m0012dd4eef" y="388.8"/>
      </g>
     </g>
     <g id="line2d_33">
      <g>
       <use style="stroke:#000000;stroke-linecap:butt;stroke-width:0.5;" x="473.76" xlink:href="#m476344969c" y="43.2"/>
      </g>
     </g>
     <g id="text_10">
      <!-- 900 -->
      <defs>
       <path d="
M10.9844 1.51562
L10.9844 10.5
Q14.7031 8.73438 18.5 7.8125
Q22.3125 6.89062 25.9844 6.89062
Q35.75 6.89062 40.8906 13.4531
Q46.0469 20.0156 46.7812 33.4062
Q43.9531 29.2031 39.5938 26.9531
Q35.25 24.7031 29.9844 24.7031
Q19.0469 24.7031 12.6719 31.3125
Q6.29688 37.9375 6.29688 49.4219
Q6.29688 60.6406 12.9375 67.4219
Q19.5781 74.2188 30.6094 74.2188
Q43.2656 74.2188 49.9219 64.5156
Q56.5938 54.8281 56.5938 36.375
Q56.5938 19.1406 48.4062 8.85938
Q40.2344 -1.42188 26.4219 -1.42188
Q22.7031 -1.42188 18.8906 -0.6875
Q15.0938 0.046875 10.9844 1.51562
M30.6094 32.4219
Q37.25 32.4219 41.125 36.9531
Q45.0156 41.5 45.0156 49.4219
Q45.0156 57.2812 41.125 61.8438
Q37.25 66.4062 30.6094 66.4062
Q23.9688 66.4062 20.0938 61.8438
Q16.2188 57.2812 16.2188 49.4219
Q16.2188 41.5 20.0938 36.9531
Q23.9688 32.4219 30.6094 32.4219" id="BitstreamVeraSans-Roman-39"/>
      </defs>
      <g transform="translate(463.08375 401.70625)scale(0.12 -0.12)">
       <use xlink:href="#BitstreamVeraSans-Roman-39"/>
       <use x="63.623046875" xlink:href="#BitstreamVeraSans-Roman-30"/>
       <use x="127.24609375" xlink:href="#BitstreamVeraSans-Roman-30"/>
      </g>
     </g>
    </g>
   </g>
   <g id="matplotlib.axis_2">
    <g id="ytick_1">
     <g id="line2d_34">
      <path clip-path="url(#p7ff5b81e1d)" d="
M72 388.8
L518.4 388.8" style="fill:none;stroke:#000000;stroke-dasharray:1.000000,3.000000;stroke-dashoffset:0.0;stroke-linecap:butt;stroke-width:0.5;"/>
     </g>
     <g id="line2d_35">
      <defs>
       <path d="
M0 0
L4 0" id="me8a85f7bf6" style="stroke:#000000;stroke-linecap:butt;stroke-width:0.5;"/>
      </defs>
      <g>
       <use style="stroke:#000000;stroke-linecap:butt;stroke-width:0.5;" x="72.0" xlink:href="#me8a85f7bf6" y="388.8"/>
      </g>
     </g>
     <g id="line2d_36">
      <defs>
       <path d="
M0 0
L-4 0" id="m1a32005dea" style="stroke:#000000;stroke-linecap:butt;stroke-width:0.5;"/>
      </defs>
      <g>
       <use style="stroke:#000000;stroke-linecap:butt;stroke-width:0.5;" x="518.4" xlink:href="#m1a32005dea" y="388.8"/>
      </g>
     </g>
     <g id="text_11">
      <!-- 0.000 -->
      <defs>
       <path d="
M10.6875 12.4062
L21 12.4062
L21 0
L10.6875 0
z
" id="BitstreamVeraSans-Roman-2e"/>
      </defs>
      <g transform="translate(35.234375 393.1678125)scale(0.12 -0.12)">
       <use xlink:href="#BitstreamVeraSans-Roman-30"/>
       <use x="63.623046875" xlink:href="#BitstreamVeraSans-Roman-2e"/>
       <use x="95.41015625" xlink:href="#BitstreamVeraSans-Roman-30"/>
       <use x="159.033203125" xlink:href="#BitstreamVeraSans-Roman-30"/>
       <use x="222.65625" xlink:href="#BitstreamVeraSans-Roman-30"/>
      </g>
     </g>
    </g>
    <g id="ytick_2">
     <g id="line2d_37">
      <path clip-path="url(#p7ff5b81e1d)" d="
M72 354.24
L518.4 354.24" style="fill:none;stroke:#000000;stroke-dasharray:1.000000,3.000000;stroke-dashoffset:0.0;stroke-linecap:butt;stroke-width:0.5;"/>
     </g>
     <g id="line2d_38">
      <g>
       <use style="stroke:#000000;stroke-linecap:butt;stroke-width:0.5;" x="72.0" xlink:href="#me8a85f7bf6" y="354.24"/>
      </g>
     </g>
     <g id="line2d_39">
      <g>
       <use style="stroke:#000000;stroke-linecap:butt;stroke-width:0.5;" x="518.4" xlink:href="#m1a32005dea" y="354.24"/>
      </g>
     </g>
     <g id="text_12">
      <!-- 0.002 -->
      <g transform="translate(35.639375 358.6078125)scale(0.12 -0.12)">
       <use xlink:href="#BitstreamVeraSans-Roman-30"/>
       <use x="63.623046875" xlink:href="#BitstreamVeraSans-Roman-2e"/>
       <use x="95.41015625" xlink:href="#BitstreamVeraSans-Roman-30"/>
       <use x="159.033203125" xlink:href="#BitstreamVeraSans-Roman-30"/>
       <use x="222.65625" xlink:href="#BitstreamVeraSans-Roman-32"/>
      </g>
     </g>
    </g>
    <g id="ytick_3">
     <g id="line2d_40">
      <path clip-path="url(#p7ff5b81e1d)" d="
M72 319.68
L518.4 319.68" style="fill:none;stroke:#000000;stroke-dasharray:1.000000,3.000000;stroke-dashoffset:0.0;stroke-linecap:butt;stroke-width:0.5;"/>
     </g>
     <g id="line2d_41">
      <g>
       <use style="stroke:#000000;stroke-linecap:butt;stroke-width:0.5;" x="72.0" xlink:href="#me8a85f7bf6" y="319.68"/>
      </g>
     </g>
     <g id="line2d_42">
      <g>
       <use style="stroke:#000000;stroke-linecap:butt;stroke-width:0.5;" x="518.4" xlink:href="#m1a32005dea" y="319.68"/>
      </g>
     </g>
     <g id="text_13">
      <!-- 0.004 -->
      <g transform="translate(35.110625 324.0478125)scale(0.12 -0.12)">
       <use xlink:href="#BitstreamVeraSans-Roman-30"/>
       <use x="63.623046875" xlink:href="#BitstreamVeraSans-Roman-2e"/>
       <use x="95.41015625" xlink:href="#BitstreamVeraSans-Roman-30"/>
       <use x="159.033203125" xlink:href="#BitstreamVeraSans-Roman-30"/>
       <use x="222.65625" xlink:href="#BitstreamVeraSans-Roman-34"/>
      </g>
     </g>
    </g>
    <g id="ytick_4">
     <g id="line2d_43">
      <path clip-path="url(#p7ff5b81e1d)" d="
M72 285.12
L518.4 285.12" style="fill:none;stroke:#000000;stroke-dasharray:1.000000,3.000000;stroke-dashoffset:0.0;stroke-linecap:butt;stroke-width:0.5;"/>
     </g>
     <g id="line2d_44">
      <g>
       <use style="stroke:#000000;stroke-linecap:butt;stroke-width:0.5;" x="72.0" xlink:href="#me8a85f7bf6" y="285.12"/>
      </g>
     </g>
     <g id="line2d_45">
      <g>
       <use style="stroke:#000000;stroke-linecap:butt;stroke-width:0.5;" x="518.4" xlink:href="#m1a32005dea" y="285.12"/>
      </g>
     </g>
     <g id="text_14">
      <!-- 0.006 -->
      <g transform="translate(35.193125 289.4878125)scale(0.12 -0.12)">
       <use xlink:href="#BitstreamVeraSans-Roman-30"/>
       <use x="63.623046875" xlink:href="#BitstreamVeraSans-Roman-2e"/>
       <use x="95.41015625" xlink:href="#BitstreamVeraSans-Roman-30"/>
       <use x="159.033203125" xlink:href="#BitstreamVeraSans-Roman-30"/>
       <use x="222.65625" xlink:href="#BitstreamVeraSans-Roman-36"/>
      </g>
     </g>
    </g>
    <g id="ytick_5">
     <g id="line2d_46">
      <path clip-path="url(#p7ff5b81e1d)" d="
M72 250.56
L518.4 250.56" style="fill:none;stroke:#000000;stroke-dasharray:1.000000,3.000000;stroke-dashoffset:0.0;stroke-linecap:butt;stroke-width:0.5;"/>
     </g>
     <g id="line2d_47">
      <g>
       <use style="stroke:#000000;stroke-linecap:butt;stroke-width:0.5;" x="72.0" xlink:href="#me8a85f7bf6" y="250.56"/>
      </g>
     </g>
     <g id="line2d_48">
      <g>
       <use style="stroke:#000000;stroke-linecap:butt;stroke-width:0.5;" x="518.4" xlink:href="#m1a32005dea" y="250.56"/>
      </g>
     </g>
     <g id="text_15">
      <!-- 0.008 -->
      <g transform="translate(35.25875 254.9278125)scale(0.12 -0.12)">
       <use xlink:href="#BitstreamVeraSans-Roman-30"/>
       <use x="63.623046875" xlink:href="#BitstreamVeraSans-Roman-2e"/>
       <use x="95.41015625" xlink:href="#BitstreamVeraSans-Roman-30"/>
       <use x="159.033203125" xlink:href="#BitstreamVeraSans-Roman-30"/>
       <use x="222.65625" xlink:href="#BitstreamVeraSans-Roman-38"/>
      </g>
     </g>
    </g>
    <g id="ytick_6">
     <g id="line2d_49">
      <path clip-path="url(#p7ff5b81e1d)" d="
M72 216
L518.4 216" style="fill:none;stroke:#000000;stroke-dasharray:1.000000,3.000000;stroke-dashoffset:0.0;stroke-linecap:butt;stroke-width:0.5;"/>
     </g>
     <g id="line2d_50">
      <g>
       <use style="stroke:#000000;stroke-linecap:butt;stroke-width:0.5;" x="72.0" xlink:href="#me8a85f7bf6" y="216.0"/>
      </g>
     </g>
     <g id="line2d_51">
      <g>
       <use style="stroke:#000000;stroke-linecap:butt;stroke-width:0.5;" x="518.4" xlink:href="#m1a32005dea" y="216.0"/>
      </g>
     </g>
     <g id="text_16">
      <!-- 0.010 -->
      <g transform="translate(35.234375 220.3678125)scale(0.12 -0.12)">
       <use xlink:href="#BitstreamVeraSans-Roman-30"/>
       <use x="63.623046875" xlink:href="#BitstreamVeraSans-Roman-2e"/>
       <use x="95.41015625" xlink:href="#BitstreamVeraSans-Roman-30"/>
       <use x="159.033203125" xlink:href="#BitstreamVeraSans-Roman-31"/>
       <use x="222.65625" xlink:href="#BitstreamVeraSans-Roman-30"/>
      </g>
     </g>
    </g>
    <g id="ytick_7">
     <g id="line2d_52">
      <path clip-path="url(#p7ff5b81e1d)" d="
M72 181.44
L518.4 181.44" style="fill:none;stroke:#000000;stroke-dasharray:1.000000,3.000000;stroke-dashoffset:0.0;stroke-linecap:butt;stroke-width:0.5;"/>
     </g>
     <g id="line2d_53">
      <g>
       <use style="stroke:#000000;stroke-linecap:butt;stroke-width:0.5;" x="72.0" xlink:href="#me8a85f7bf6" y="181.44"/>
      </g>
     </g>
     <g id="line2d_54">
      <g>
       <use style="stroke:#000000;stroke-linecap:butt;stroke-width:0.5;" x="518.4" xlink:href="#m1a32005dea" y="181.44"/>
      </g>
     </g>
     <g id="text_17">
      <!-- 0.012 -->
      <g transform="translate(35.639375 185.8078125)scale(0.12 -0.12)">
       <use xlink:href="#BitstreamVeraSans-Roman-30"/>
       <use x="63.623046875" xlink:href="#BitstreamVeraSans-Roman-2e"/>
       <use x="95.41015625" xlink:href="#BitstreamVeraSans-Roman-30"/>
       <use x="159.033203125" xlink:href="#BitstreamVeraSans-Roman-31"/>
       <use x="222.65625" xlink:href="#BitstreamVeraSans-Roman-32"/>
      </g>
     </g>
    </g>
    <g id="ytick_8">
     <g id="line2d_55">
      <path clip-path="url(#p7ff5b81e1d)" d="
M72 146.88
L518.4 146.88" style="fill:none;stroke:#000000;stroke-dasharray:1.000000,3.000000;stroke-dashoffset:0.0;stroke-linecap:butt;stroke-width:0.5;"/>
     </g>
     <g id="line2d_56">
      <g>
       <use style="stroke:#000000;stroke-linecap:butt;stroke-width:0.5;" x="72.0" xlink:href="#me8a85f7bf6" y="146.88"/>
      </g>
     </g>
     <g id="line2d_57">
      <g>
       <use style="stroke:#000000;stroke-linecap:butt;stroke-width:0.5;" x="518.4" xlink:href="#m1a32005dea" y="146.88"/>
      </g>
     </g>
     <g id="text_18">
      <!-- 0.014 -->
      <g transform="translate(35.110625 151.2478125)scale(0.12 -0.12)">
       <use xlink:href="#BitstreamVeraSans-Roman-30"/>
       <use x="63.623046875" xlink:href="#BitstreamVeraSans-Roman-2e"/>
       <use x="95.41015625" xlink:href="#BitstreamVeraSans-Roman-30"/>
       <use x="159.033203125" xlink:href="#BitstreamVeraSans-Roman-31"/>
       <use x="222.65625" xlink:href="#BitstreamVeraSans-Roman-34"/>
      </g>
     </g>
    </g>
    <g id="ytick_9">
     <g id="line2d_58">
      <path clip-path="url(#p7ff5b81e1d)" d="
M72 112.32
L518.4 112.32" style="fill:none;stroke:#000000;stroke-dasharray:1.000000,3.000000;stroke-dashoffset:0.0;stroke-linecap:butt;stroke-width:0.5;"/>
     </g>
     <g id="line2d_59">
      <g>
       <use style="stroke:#000000;stroke-linecap:butt;stroke-width:0.5;" x="72.0" xlink:href="#me8a85f7bf6" y="112.32"/>
      </g>
     </g>
     <g id="line2d_60">
      <g>
       <use style="stroke:#000000;stroke-linecap:butt;stroke-width:0.5;" x="518.4" xlink:href="#m1a32005dea" y="112.32"/>
      </g>
     </g>
     <g id="text_19">
      <!-- 0.016 -->
      <g transform="translate(35.193125 116.6878125)scale(0.12 -0.12)">
       <use xlink:href="#BitstreamVeraSans-Roman-30"/>
       <use x="63.623046875" xlink:href="#BitstreamVeraSans-Roman-2e"/>
       <use x="95.41015625" xlink:href="#BitstreamVeraSans-Roman-30"/>
       <use x="159.033203125" xlink:href="#BitstreamVeraSans-Roman-31"/>
       <use x="222.65625" xlink:href="#BitstreamVeraSans-Roman-36"/>
      </g>
     </g>
    </g>
    <g id="ytick_10">
     <g id="line2d_61">
      <path clip-path="url(#p7ff5b81e1d)" d="
M72 77.76
L518.4 77.76" style="fill:none;stroke:#000000;stroke-dasharray:1.000000,3.000000;stroke-dashoffset:0.0;stroke-linecap:butt;stroke-width:0.5;"/>
     </g>
     <g id="line2d_62">
      <g>
       <use style="stroke:#000000;stroke-linecap:butt;stroke-width:0.5;" x="72.0" xlink:href="#me8a85f7bf6" y="77.76"/>
      </g>
     </g>
     <g id="line2d_63">
      <g>
       <use style="stroke:#000000;stroke-linecap:butt;stroke-width:0.5;" x="518.4" xlink:href="#m1a32005dea" y="77.76"/>
      </g>
     </g>
     <g id="text_20">
      <!-- 0.018 -->
      <g transform="translate(35.25875 82.1278125)scale(0.12 -0.12)">
       <use xlink:href="#BitstreamVeraSans-Roman-30"/>
       <use x="63.623046875" xlink:href="#BitstreamVeraSans-Roman-2e"/>
       <use x="95.41015625" xlink:href="#BitstreamVeraSans-Roman-30"/>
       <use x="159.033203125" xlink:href="#BitstreamVeraSans-Roman-31"/>
       <use x="222.65625" xlink:href="#BitstreamVeraSans-Roman-38"/>
      </g>
     </g>
    </g>
    <g id="text_21">
     <!-- Sec/file -->
     <defs>
      <path d="
M9.42188 75.9844
L18.4062 75.9844
L18.4062 0
L9.42188 0
z
" id="BitstreamVeraSans-Roman-6c"/>
      <path d="
M53.5156 70.5156
L53.5156 60.8906
Q47.9062 63.5781 42.9219 64.8906
Q37.9375 66.2188 33.2969 66.2188
Q25.25 66.2188 20.875 63.0938
Q16.5 59.9688 16.5 54.2031
Q16.5 49.3594 19.4062 46.8906
Q22.3125 44.4375 30.4219 42.9219
L36.375 41.7031
Q47.4062 39.5938 52.6562 34.2969
Q57.9062 29 57.9062 20.125
Q57.9062 9.51562 50.7969 4.04688
Q43.7031 -1.42188 29.9844 -1.42188
Q24.8125 -1.42188 18.9688 -0.25
Q13.1406 0.921875 6.89062 3.21875
L6.89062 13.375
Q12.8906 10.0156 18.6562 8.29688
Q24.4219 6.59375 29.9844 6.59375
Q38.4219 6.59375 43.0156 9.90625
Q47.6094 13.2344 47.6094 19.3906
Q47.6094 24.75 44.3125 27.7812
Q41.0156 30.8125 33.5 32.3281
L27.4844 33.5
Q16.4531 35.6875 11.5156 40.375
Q6.59375 45.0625 6.59375 53.4219
Q6.59375 63.0938 13.4062 68.6562
Q20.2188 74.2188 32.1719 74.2188
Q37.3125 74.2188 42.625 73.2812
Q47.9531 72.3594 53.5156 70.5156" id="BitstreamVeraSans-Roman-53"/>
      <path d="
M9.42188 54.6875
L18.4062 54.6875
L18.4062 0
L9.42188 0
z

M9.42188 75.9844
L18.4062 75.9844
L18.4062 64.5938
L9.42188 64.5938
z
" id="BitstreamVeraSans-Roman-69"/>
      <path d="
M25.3906 72.9062
L33.6875 72.9062
L8.29688 -9.28125
L0 -9.28125
z
" id="BitstreamVeraSans-Roman-2f"/>
      <path d="
M56.2031 29.5938
L56.2031 25.2031
L14.8906 25.2031
Q15.4844 15.9219 20.4844 11.0625
Q25.4844 6.20312 34.4219 6.20312
Q39.5938 6.20312 44.4531 7.46875
Q49.3125 8.73438 54.1094 11.2812
L54.1094 2.78125
Q49.2656 0.734375 44.1875 -0.34375
Q39.1094 -1.42188 33.8906 -1.42188
Q20.7969 -1.42188 13.1562 6.1875
Q5.51562 13.8125 5.51562 26.8125
Q5.51562 40.2344 12.7656 48.1094
Q20.0156 56 32.3281 56
Q43.3594 56 49.7812 48.8906
Q56.2031 41.7969 56.2031 29.5938
M47.2188 32.2344
Q47.125 39.5938 43.0938 43.9844
Q39.0625 48.3906 32.4219 48.3906
Q24.9062 48.3906 20.3906 44.1406
Q15.875 39.8906 15.1875 32.1719
z
" id="BitstreamVeraSans-Roman-65"/>
      <path d="
M37.1094 75.9844
L37.1094 68.5
L28.5156 68.5
Q23.6875 68.5 21.7969 66.5469
Q19.9219 64.5938 19.9219 59.5156
L19.9219 54.6875
L34.7188 54.6875
L34.7188 47.7031
L19.9219 47.7031
L19.9219 0
L10.8906 0
L10.8906 47.7031
L2.29688 47.7031
L2.29688 54.6875
L10.8906 54.6875
L10.8906 58.5
Q10.8906 67.625 15.1406 71.7969
Q19.3906 75.9844 28.6094 75.9844
z
" id="BitstreamVeraSans-Roman-66"/>
      <path d="
M48.7812 52.5938
L48.7812 44.1875
Q44.9688 46.2969 41.1406 47.3438
Q37.3125 48.3906 33.4062 48.3906
Q24.6562 48.3906 19.8125 42.8438
Q14.9844 37.3125 14.9844 27.2969
Q14.9844 17.2812 19.8125 11.7344
Q24.6562 6.20312 33.4062 6.20312
Q37.3125 6.20312 41.1406 7.25
Q44.9688 8.29688 48.7812 10.4062
L48.7812 2.09375
Q45.0156 0.34375 40.9844 -0.53125
Q36.9688 -1.42188 32.4219 -1.42188
Q20.0625 -1.42188 12.7812 6.34375
Q5.51562 14.1094 5.51562 27.2969
Q5.51562 40.6719 12.8594 48.3281
Q20.2188 56 33.0156 56
Q37.1562 56 41.1094 55.1406
Q45.0625 54.2969 48.7812 52.5938" id="BitstreamVeraSans-Roman-63"/>
     </defs>
     <g transform="translate(30.110625 236.13)rotate(-90.0)scale(0.12 -0.12)">
      <use xlink:href="#BitstreamVeraSans-Roman-53"/>
      <use x="63.4765625" xlink:href="#BitstreamVeraSans-Roman-65"/>
      <use x="125.0" xlink:href="#BitstreamVeraSans-Roman-63"/>
      <use x="179.98046875" xlink:href="#BitstreamVeraSans-Roman-2f"/>
      <use x="213.671875" xlink:href="#BitstreamVeraSans-Roman-66"/>
      <use x="248.876953125" xlink:href="#BitstreamVeraSans-Roman-69"/>
      <use x="276.66015625" xlink:href="#BitstreamVeraSans-Roman-6c"/>
      <use x="304.443359375" xlink:href="#BitstreamVeraSans-Roman-65"/>
     </g>
    </g>
   </g>
   <g id="patch_3">
    <path d="
M72 43.2
L518.4 43.2" style="fill:none;stroke:#000000;"/>
   </g>
   <g id="patch_4">
    <path d="
M518.4 388.8
L518.4 43.2" style="fill:none;stroke:#000000;"/>
   </g>
   <g id="patch_5">
    <path d="
M72 388.8
L518.4 388.8" style="fill:none;stroke:#000000;"/>
   </g>
   <g id="patch_6">
    <path d="
M72 388.8
L72 43.2" style="fill:none;stroke:#000000;"/>
   </g>
   <g id="legend_1">
    <g id="patch_7">
     <path d="
M429.055 115.339
L511.2 115.339
L511.2 50.4
L429.055 50.4
L429.055 115.339
z
" style="fill:#ffffff;stroke:#000000;"/>
    </g>
    <g id="line2d_64">
     <path d="
M439.135 62.0617
L459.295 62.0617" style="fill:none;stroke:#ff0000;"/>
    </g>
    <g id="line2d_65"/>
    <g id="text_22">
     <!-- LRU -->
     <defs>
      <path d="
M44.3906 34.1875
Q47.5625 33.1094 50.5625 29.5938
Q53.5625 26.0781 56.5938 19.9219
L66.6094 0
L56 0
L46.6875 18.7031
Q43.0625 26.0312 39.6719 28.4219
Q36.2812 30.8125 30.4219 30.8125
L19.6719 30.8125
L19.6719 0
L9.8125 0
L9.8125 72.9062
L32.0781 72.9062
Q44.5781 72.9062 50.7344 67.6719
Q56.8906 62.4531 56.8906 51.9062
Q56.8906 45.0156 53.6875 40.4688
Q50.4844 35.9375 44.3906 34.1875
M19.6719 64.7969
L19.6719 38.9219
L32.0781 38.9219
Q39.2031 38.9219 42.8438 42.2188
Q46.4844 45.5156 46.4844 51.9062
Q46.4844 58.2969 42.8438 61.5469
Q39.2031 64.7969 32.0781 64.7969
z
" id="BitstreamVeraSans-Roman-52"/>
      <path d="
M9.8125 72.9062
L19.6719 72.9062
L19.6719 8.29688
L55.1719 8.29688
L55.1719 0
L9.8125 0
z
" id="BitstreamVeraSans-Roman-4c"/>
      <path d="
M8.6875 72.9062
L18.6094 72.9062
L18.6094 28.6094
Q18.6094 16.8906 22.8438 11.7344
Q27.0938 6.59375 36.625 6.59375
Q46.0938 6.59375 50.3438 11.7344
Q54.5938 16.8906 54.5938 28.6094
L54.5938 72.9062
L64.5 72.9062
L64.5 27.3906
Q64.5 13.1406 57.4375 5.85938
Q50.3906 -1.42188 36.625 -1.42188
Q22.7969 -1.42188 15.7344 5.85938
Q8.6875 13.1406 8.6875 27.3906
z
" id="BitstreamVeraSans-Roman-55"/>
     </defs>
     <g transform="translate(475.13475 67.10175)scale(0.144 -0.144)">
      <use xlink:href="#BitstreamVeraSans-Roman-4c"/>
      <use x="55.712890625" xlink:href="#BitstreamVeraSans-Roman-52"/>
      <use x="125.1953125" xlink:href="#BitstreamVeraSans-Roman-55"/>
     </g>
    </g>
    <g id="line2d_66">
     <path d="
M439.135 83.1983
L459.295 83.1983" style="fill:none;opacity:0.7;stroke:#008000;"/>
    </g>
    <g id="line2d_67"/>
    <g id="text_23">
     <!-- MRU -->
     <defs>
      <path d="
M9.8125 72.9062
L24.5156 72.9062
L43.1094 23.2969
L61.8125 72.9062
L76.5156 72.9062
L76.5156 0
L66.8906 0
L66.8906 64.0156
L48.0938 14.0156
L38.1875 14.0156
L19.3906 64.0156
L19.3906 0
L9.8125 0
z
" id="BitstreamVeraSans-Roman-4d"/>
     </defs>
     <g transform="translate(475.13475 88.23825)scale(0.144 -0.144)">
      <use xlink:href="#BitstreamVeraSans-Roman-4d"/>
      <use x="86.279296875" xlink:href="#BitstreamVeraSans-Roman-52"/>
      <use x="155.76171875" xlink:href="#BitstreamVeraSans-Roman-55"/>
     </g>
    </g>
    <g id="line2d_68">
     <path d="
M439.135 104.335
L459.295 104.335" style="fill:none;opacity:0.5;stroke:#0000ff;"/>
    </g>
    <g id="line2d_69"/>
    <g id="text_24">
     <!-- FIFO -->
     <defs>
      <path d="
M9.8125 72.9062
L51.7031 72.9062
L51.7031 64.5938
L19.6719 64.5938
L19.6719 43.1094
L48.5781 43.1094
L48.5781 34.8125
L19.6719 34.8125
L19.6719 0
L9.8125 0
z
" id="BitstreamVeraSans-Roman-46"/>
      <path d="
M9.8125 72.9062
L19.6719 72.9062
L19.6719 0
L9.8125 0
z
" id="BitstreamVeraSans-Roman-49"/>
      <path d="
M39.4062 66.2188
Q28.6562 66.2188 22.3281 58.2031
Q16.0156 50.2031 16.0156 36.375
Q16.0156 22.6094 22.3281 14.5938
Q28.6562 6.59375 39.4062 6.59375
Q50.1406 6.59375 56.4219 14.5938
Q62.7031 22.6094 62.7031 36.375
Q62.7031 50.2031 56.4219 58.2031
Q50.1406 66.2188 39.4062 66.2188
M39.4062 74.2188
Q54.7344 74.2188 63.9062 63.9375
Q73.0938 53.6562 73.0938 36.375
Q73.0938 19.1406 63.9062 8.85938
Q54.7344 -1.42188 39.4062 -1.42188
Q24.0312 -1.42188 14.8125 8.82812
Q5.60938 19.0938 5.60938 36.375
Q5.60938 53.6562 14.8125 63.9375
Q24.0312 74.2188 39.4062 74.2188" id="BitstreamVeraSans-Roman-4f"/>
     </defs>
     <g transform="translate(475.13475 109.37475)scale(0.144 -0.144)">
      <use xlink:href="#BitstreamVeraSans-Roman-46"/>
      <use x="57.51953125" xlink:href="#BitstreamVeraSans-Roman-49"/>
      <use x="87.01171875" xlink:href="#BitstreamVeraSans-Roman-46"/>
      <use x="144.53125" xlink:href="#BitstreamVeraSans-Roman-4f"/>
     </g>
    </g>
   </g>
  </g>
 </g>
 <defs>
  <clipPath id="p7ff5b81e1d">
   <rect height="345.6" width="446.4" x="72.0" y="43.2"/>
  </clipPath>
 </defs>
</svg>
