<?xml version="1.0" encoding="utf-8" standalone="no"?>
<!DOCTYPE svg PUBLIC "-//W3C//DTD SVG 1.1//EN"
  "http://www.w3.org/Graphics/SVG/1.1/DTD/svg11.dtd">
<!-- Created with matplotlib (http://matplotlib.sourceforge.net/) -->
<svg height="432pt" version="1.1" viewBox="0 0 576 432" width="576pt" xmlns="http://www.w3.org/2000/svg" xmlns:xlink="http://www.w3.org/1999/xlink">
 <defs>
  <style type="text/css">
*{stroke-linecap:square;stroke-linejoin:round;}
  </style>
 </defs>
 <g id="figure_1">
  <g id="patch_1">
   <path d="
M0 432
L576 432
L576 0
L0 0
z
" style="fill:#ffffff;"/>
  </g>
  <g id="axes_1">
   <g id="patch_2">
    <path d="
M72 388.8
L518.4 388.8
L518.4 43.2
L72 43.2
z
" style="fill:#ffffff;"/>
   </g>
   <g id="line2d_1">
    <path clip-path="url(#p7ff5b81e1d)" d="
M72 255.927
L72.4464 168.156
L72.8928 175.84
L73.3392 168.83
L73.7856 173.866
L74.232 82.7331
L74.6784 318.31
L75.1248 254.354
L75.5712 255.162
L76.0176 154.416
L76.464 251.089
L76.9104 172.414
L77.3568 162.088
L77.8032 155.689
L78.2496 179.757
L78.696 168.323
L79.1424 166.264
L79.5888 256.991
L80.0352 160.141
L80.4816 169.598
L80.928 250.784
L81.3744 163.084
L81.8208 254.813
L82.2672 258.632
L82.7136 164.834
L83.16 251.237
L83.6064 252.992
L84.0528 166.155
L84.4992 250.034
L84.9456 256.124
L85.392 260.638
L85.8384 165.806
L86.2848 260.268
L86.7312 258.218
L87.1776 254.645
L87.624 170.134
L88.0704 252.87
L88.5168 251.493
L88.9632 160.683
L89.4096 247.102
L89.856 169.927
L90.3024 258.098
L90.7488 254.906
L91.1952 170.134
L91.6416 256.397
L92.088 245.195
L92.5344 257.028
L92.9808 166.16
L93.4272 244.333
L93.8736 243.131
L94.32 248.437
L94.7664 171.875
L95.2128 251.208
L95.6592 256.126
L96.1056 257.927
L96.552 249.188
L96.9984 249.621
L97.4448 254.654
L97.8912 252.857
L98.3376 248.035
L98.784 253.15
L99.2304 245.322
L99.6768 260.422
L100.123 257.052
L100.57 256.546
L101.016 253.07
L101.462 252.946
L101.909 259.433
L102.355 261.328
L103.248 256.065
L103.694 255.152
L104.141 260.392
L104.587 261.406
L105.034 256.316
L105.48 254.998
L105.926 250.967
L106.373 251.181
L106.819 256.781
L107.266 256.35
L107.712 249.677
L108.158 256.293
L108.605 254.582
L109.498 263.328
L109.944 254.865
L110.39 241.647
L110.837 264.37
L111.283 249.679
L111.73 247.803
L112.176 255.214
L112.622 256.597
L113.069 258.954
L113.515 254.291
L113.962 245.502
L114.408 272.505
L114.854 259.601
L115.301 261.629
L115.747 260.184
L116.194 253.965
L116.64 252.353
L117.086 257.533
L117.533 248.57
L117.979 261.645
L118.872 255.587
L119.318 258.572
L119.765 255.72
L120.211 251.216
L120.658 239.193
L121.104 254.298
L121.55 255.795
L121.997 252.87
L122.443 252.69
L122.89 247.313
L123.336 254.514
L123.782 255.995
L124.229 258.134
L124.675 250.058
L125.122 256.217
L125.568 256.66
L126.014 252.812
L126.461 246.313
L126.907 254.658
L127.354 260.331
L128.246 245.633
L128.693 251.866
L129.139 262.843
L129.586 256.002
L130.032 257.681
L130.478 261.126
L130.925 250.843
L131.371 254.299
L131.818 255.12
L132.264 258.661
L132.71 254.292
L133.157 254.942
L133.603 257.572
L134.05 259.519
L134.496 257.173
L134.942 254.044
L135.389 247.212
L135.835 252.83
L136.282 247.931
L136.728 260.078
L137.174 261.223
L137.621 257.73
L138.067 256.109
L138.514 259.258
L138.96 255.018
L139.406 258.315
L140.746 243.752
L141.192 255.036
L141.638 260.367
L142.085 260.26
L142.531 254.512
L142.978 258.055
L143.424 258.326
L143.87 253.292
L144.317 260.754
L144.763 259.991
L145.21 251.83
L145.656 241.269
L146.102 238.685
L146.549 255.704
L146.995 262.005
L147.442 254.119
L147.888 253.474
L148.334 251.658
L148.781 234.444
L149.227 249.912
L149.674 259.143
L150.12 261.423
L150.566 256.264
L151.013 258.11
L151.459 250.633
L151.906 250.249
L152.352 256.542
L152.798 246.235
L153.245 258.564
L153.691 250.992
L154.138 254.823
L154.584 256.352
L155.03 247.489
L155.477 256.922
L155.923 261.012
L156.37 251.668
L156.816 246.477
L157.262 251.235
L157.709 252.523
L158.155 260.046
L158.602 254.166
L159.048 255.826
L159.494 255.976
L159.941 249.543
L160.387 260.884
L160.834 259.749
L161.28 246.561
L161.726 251.575
L162.173 250.57
L162.619 253.003
L163.066 259.495
L163.512 250.222
L163.958 253.646
L164.405 252.577
L164.851 258.451
L165.298 249.413
L165.744 256.74
L166.19 260.056
L166.637 242.698
L167.083 248.856
L167.53 258.713
L167.976 260.675
L168.869 251.078
L169.315 255.885
L169.762 254.372
L170.208 256.065
L170.654 251.68
L171.101 253.857
L171.547 253.861
L171.994 259.474
L172.44 262.159
L172.886 254.815
L173.779 246.601
L174.226 254.09
L174.672 253.014
L175.118 257.609
L175.565 255.241
L176.011 258.065
L176.904 246.349
L177.35 256.167
L177.797 256.099
L178.243 260.536
L179.136 254.581
L179.582 224.283
L180.029 248.552
L180.475 248.12
L180.922 258.816
L181.368 253.973
L181.814 246.3
L182.261 249.077
L182.707 257.181
L183.154 258.614
L183.6 254.198
L184.046 254.171
L184.493 254.545
L184.939 257.64
L185.832 251.653
L186.278 252.162
L186.725 250.298
L187.171 254.504
L187.618 253.254
L188.064 264.404
L188.957 257.73
L189.403 252.011
L189.85 254.099
L190.296 254.204
L190.742 257.919
L191.189 254.61
L191.635 256.195
L192.082 253.379
L192.528 253.447
L192.974 258.135
L193.421 257.76
L193.867 259.768
L194.314 253.812
L194.76 245.407
L195.206 250.957
L195.653 248.766
L196.099 257.698
L196.546 262.308
L196.992 261.002
L197.438 251.433
L197.885 252.762
L198.331 241.963
L198.778 258.296
L199.224 257.176
L199.67 253.685
L200.117 247.538
L200.563 260.277
L201.01 254.621
L201.456 254.881
L201.902 243.195
L202.349 250.34
L202.795 252.491
L203.242 249.767
L203.688 258.799
L204.134 256.213
L204.581 247.619
L205.027 254.03
L205.92 250.826
L206.366 259.377
L206.813 248.375
L207.259 256.501
L207.706 261.75
L208.152 249.582
L208.598 254.317
L209.045 249.082
L209.491 254.377
L209.938 257.712
L210.384 248.945
L210.83 251.389
L211.277 255.215
L211.723 250.11
L212.17 247.289
L212.616 256.975
L213.062 259.634
L213.509 250.236
L213.955 254.634
L214.402 252.851
L214.848 258.361
L215.294 246.874
L215.741 244.425
L216.187 260.209
L216.634 254.679
L217.08 257.209
L217.526 253.12
L217.973 255.749
L218.419 251.673
L218.866 241.706
L219.312 257.702
L219.758 259.907
L220.205 258.127
L220.651 254.224
L221.098 256.995
L221.544 251.409
L221.99 252.378
L222.437 246.361
L222.883 253.212
L223.33 245.746
L223.776 251.811
L224.222 249.852
L224.669 257.049
L225.115 261.751
L225.562 253.23
L226.008 251.444
L226.454 256.001
L226.901 256.735
L227.347 255.971
L227.794 256.43
L228.686 249.207
L229.133 256.859
L229.579 258.021
L230.026 254.302
L230.472 253.973
L230.918 254.273
L231.811 261.236
L232.258 241.503
L232.704 254.814
L233.15 252.459
L233.597 254.029
L234.043 257.498
L234.49 256.102
L234.936 252.537
L235.382 251.397
L235.829 246.636
L236.275 255.033
L237.168 260.395
L237.614 254.152
L238.061 255.442
L238.507 249.803
L238.954 259.896
L239.4 252.395
L239.846 259.252
L240.293 261.123
L240.739 250.046
L241.186 253.918
L241.632 256.525
L242.078 254.394
L242.525 257.05
L242.971 252.391
L243.418 259.754
L243.864 248.324
L244.31 250.542
L244.757 258.597
L245.203 261.265
L245.65 253.14
L246.096 256.609
L246.542 246.909
L246.989 256.58
L247.435 263.476
L248.328 252.493
L248.774 250.62
L249.221 256.373
L250.114 251.509
L250.56 257.433
L251.453 252.054
L251.899 253.793
L252.346 247.691
L252.792 255.815
L253.238 254.226
L253.685 244.113
L254.131 253.382
L255.024 261.434
L255.47 257.72
L255.917 259.395
L256.363 250.009
L256.81 243.541
L257.256 244.385
L257.702 255.525
L258.149 256.663
L258.595 261.048
L259.042 255.464
L259.488 252.529
L259.934 233.974
L260.381 244.372
L260.827 258.754
L261.274 259.825
L261.72 261.238
L262.166 253.667
L262.613 255.405
L263.059 250.833
L263.506 250.991
L263.952 250.444
L264.398 257.618
L264.845 253.283
L265.291 255.728
L265.738 256.817
L266.184 261.92
L266.63 254.724
L267.077 252.363
L267.523 244.386
L267.97 256.822
L268.416 257.756
L268.862 257.759
L269.309 261.584
L269.755 249.515
L270.202 255.116
L270.648 255.234
L271.094 251.367
L271.541 253.679
L271.987 259.681
L272.434 263.064
L272.88 253.332
L273.326 250.942
L273.773 257.905
L274.219 261.24
L274.666 247.736
L275.112 256.307
L275.558 190.386
L276.005 226.494
L276.451 221.497
L276.898 241.237
L277.344 238.407
L277.79 247.147
L278.237 247.62
L278.683 254.143
L279.13 256.392
L279.576 257.479
L280.022 256.429
L280.469 253.282
L280.915 253.74
L281.362 248.361
L281.808 249.019
L282.254 262.079
L282.701 249.404
L283.594 259.425
L284.04 246.856
L284.486 255.99
L284.933 251.692
L285.379 250.703
L285.826 253.653
L286.272 262.578
L286.718 258.013
L287.165 240.602
L287.611 234.236
L288.058 254.499
L288.504 255.713
L288.95 252.452
L289.397 255.772
L289.843 256.816
L290.29 256.297
L290.736 259.551
L291.182 251.66
L291.629 258.376
L292.075 251.632
L292.522 252.385
L292.968 249.257
L293.414 256.814
L293.861 261.864
L294.307 255.526
L294.754 245.608
L295.2 258.89
L295.646 260.906
L296.093 256.313
L296.539 250.198
L296.986 255.754
L297.432 247.42
L297.878 250.385
L298.325 256.072
L298.771 257.161
L299.218 256.106
L299.664 248.986
L300.11 258.195
L300.557 250.59
L301.003 256.06
L301.45 258.588
L301.896 247.303
L302.342 247.563
L302.789 253.888
L303.235 253.071
L303.682 259.422
L304.128 260.457
L304.574 256.861
L305.021 260.626
L305.467 246.29
L306.36 258.419
L306.806 255.526
L307.253 258.088
L307.699 254.883
L308.146 252.782
L308.592 257.923
L309.038 249.821
L309.485 255.188
L309.931 252.573
L310.378 247.206
L310.824 252.725
L311.717 257.951
L312.163 254.405
L312.61 248.697
L313.056 257.428
L313.502 258.986
L313.949 256.426
L314.395 258.069
L314.842 256.92
L315.288 343.553
L315.734 246.653
L316.181 254.654
L316.627 258.078
L317.074 251.866
L317.52 252.989
L317.966 255.789
L318.413 257.757
L318.859 251.035
L319.306 259.975
L319.752 251.134
L320.198 256.023
L320.645 257.872
L321.091 252.533
L321.538 249.735
L321.984 254.866
L322.43 246.767
L322.877 259.873
L323.323 255.575
L323.77 254.38
L324.216 254.752
L324.662 250.299
L325.109 260.567
L325.555 256.709
L326.002 243.061
L326.894 260.969
L327.341 260.362
L327.787 260.259
L328.234 257.157
L328.68 251.166
L329.126 257.424
L329.573 249.988
L330.019 258.854
L330.466 257.432
L330.912 261.944
L331.358 247.393
L331.805 257.967
L332.251 256.703
L332.698 259.724
L333.144 250.332
L333.59 260.276
L334.037 253.422
L334.483 254.593
L334.93 249.772
L335.376 262.225
L336.269 253.141
L336.715 251.228
L337.162 258.101
L337.608 252.313
L338.054 262.093
L338.501 257.188
L338.947 250.289
L339.394 249.619
L339.84 242.861
L340.733 260.599
L341.179 253.978
L341.626 253.572
L342.072 256.727
L342.518 253.87
L342.965 229.47
L343.411 257.685
L343.858 257.966
L344.304 258.567
L344.75 255.674
L345.197 289.685
L345.643 250.257
L346.09 255.481
L346.536 254.525
L346.982 243.645
L347.429 249.092
L347.875 256.257
L348.322 256.997
L348.768 257.456
L349.214 259.662
L349.661 259.314
L350.107 251.053
L350.554 253.407
L351 261.35
L351.893 252.873
L352.339 254.346
L352.786 260.351
L353.232 260.295
L353.678 256.557
L354.125 250.088
L354.571 248.106
L355.018 256.511
L355.464 262.006
L355.91 256.6
L356.357 255.434
L356.803 251.887
L357.25 256.213
L357.696 255.359
L358.142 253.691
L359.035 261.378
L359.482 259.273
L359.928 247.451
L360.374 248.003
L360.821 257.949
L361.267 252.623
L361.714 259.816
L362.16 255.07
L362.606 253.912
L363.053 256.858
L363.499 255.634
L363.946 257.491
L364.392 246.284
L364.838 247.465
L365.285 255.219
L365.731 254.485
L366.178 254.527
L366.624 257.094
L367.07 256.227
L367.517 262.54
L368.41 240.613
L368.856 256.232
L369.302 256.453
L369.749 249.731
L370.642 258.697
L371.088 251.256
L371.534 247.602
L371.981 253.845
L372.427 258.321
L372.874 248.105
L373.32 227.49
L374.213 260.094
L374.659 244.589
L375.106 253.797
L375.552 259.672
L375.998 247.62
L376.445 250.192
L376.891 256.082
L377.338 258.177
L377.784 258.792
L378.23 259.061
L378.677 250.096
L379.123 251.228
L379.57 253.379
L380.016 254.173
L380.462 253.076
L380.909 252.707
L381.355 249.567
L381.802 257.051
L382.248 253.989
L382.694 263.859
L383.587 254.109
L384.034 256.041
L384.48 261.171
L384.926 250.397
L385.373 256.084
L385.819 255.943
L386.266 255.666
L386.712 256.266
L387.158 258.918
L387.605 257.825
L388.051 260.909
L388.498 259.969
L388.944 246.953
L389.39 248.445
L389.837 257.895
L390.283 258.865
L390.73 253.231
L391.176 255.204
L391.622 254.711
L392.069 257.336
L392.515 255.337
L392.962 252.29
L393.408 252.793
L393.854 252.964
L394.301 249.972
L394.747 254.222
L395.194 255.048
L395.64 255.209
L396.086 258.754
L396.533 252.675
L396.979 252.083
L397.426 248.888
L397.872 256.098
L398.318 256.176
L398.765 253.995
L399.211 248.678
L399.658 253.728
L400.104 249.906
L400.55 255.465
L400.997 245.814
L401.443 253.829
L401.89 254.743
L402.336 256.968
L402.782 247.805
L403.229 256.774
L403.675 260.053
L404.122 251.915
L404.568 247.547
L405.014 251.712
L405.461 249.021
L405.907 253.885
L406.354 255.035
L406.8 250.366
L407.246 259.607
L407.693 254.719
L408.139 256.783
L408.586 255.212
L409.032 246.796
L409.478 257.483
L410.371 249.055
L410.818 255.179
L411.264 257.289
L411.71 255.4
L412.157 259.135
L412.603 238.051
L413.05 267.2
L413.496 241.809
L413.942 257.74
L414.389 260.83
L414.835 257.922
L415.728 259.816
L416.174 259.244
L416.621 258.289
L417.067 259.911
L417.96 246.831
L418.406 242.168
L418.853 257.912
L419.299 258.734
L419.746 252.17
L420.192 263.307
L420.638 253.723
L421.085 250.288
L421.978 255.366
L422.424 259.295
L422.87 246.065
L423.317 176.814
L423.763 293.379
L424.21 258.887
L424.656 258.153
L425.102 244.823
L425.549 246.353
L425.995 252.357
L426.442 237.697
L426.888 250.587
L427.334 255.825
L427.781 252.974
L428.227 252.679
L428.674 257.825
L429.12 255.807
L429.566 251.921
L430.013 243.773
L430.459 243.314
L430.906 257.368
L431.352 262.14
L431.798 255.418
L432.245 259.161
L432.691 252.268
L433.138 253.303
L433.584 253.782
L434.03 245.319
L434.477 261.828
L434.923 256.755
L435.37 254.991
L435.816 258.677
L436.262 242.513
L436.709 244.531
L437.155 210.266
L437.602 240.926
L438.048 250.897
L438.494 247.426
L438.941 250.105
L439.387 256.247
L439.834 257.51
L440.28 257.678
L440.726 253.137
L441.173 239.165
L441.619 249.247
L442.066 245.01
L442.958 258.822
L443.405 252.756
L443.851 258.149
L444.298 255.932
L444.744 249.219
L445.637 256.125
L446.083 253.536
L446.53 248.891
L446.976 246.817
L447.422 247.384
L447.869 251.67
L448.315 239.503
L449.208 252.498
L449.654 255.536
L450.101 247.812
L450.547 235.901
L450.994 247.031
L451.44 254.2
L451.886 249.848
L452.333 249.312
L452.779 256.752
L453.226 254.723
L453.672 212.93
L454.118 254.845
L454.565 252.472
L455.011 260.899
L455.458 248.313
L455.904 253.398
L456.35 254.306
L456.797 247.951
L457.243 255.421
L457.69 242.896
L458.136 249.765
L458.582 254.402
L459.029 253.906
L459.475 255.944
L459.922 252.386
L460.368 257.208
L460.814 254.57
L461.261 241.945
L461.707 245.849
L462.154 258.073
L463.046 251.206
L463.493 251.84
L463.939 251.898
L464.386 239.939
L464.832 244.064
L465.278 256.275
L465.725 253.21
L466.171 256.149
L466.618 249.215
L467.064 251.282
L467.51 262.211
L467.957 257.286
L468.403 250.193
L468.85 255.258
L469.296 246.669
L469.742 254.009
L470.189 244.594
L470.635 254.969
L471.082 256.796
L471.528 261.578
L471.974 251.248
L472.421 257.648
L473.314 254.08
L473.76 248.641
L474.206 255.473
L474.653 256.017
L475.099 247.658
L475.546 244.502
L476.438 262.447
L476.885 249.773
L477.331 252.643
L477.778 249.295
L478.224 255.453
L479.117 240.296
L480.01 262.074
L480.456 257.356
L480.902 250.88
L481.349 230.243
L481.795 253.135
L482.242 247.889
L482.688 244.222
L483.134 260.088
L483.581 260.385
L484.027 246.665
L484.474 254.081
L484.92 244.016
L485.366 253.651
L485.813 255.956
L486.259 253.272
L486.706 252.657
L487.152 250.175
L487.598 253.411
L488.045 252.202
L488.491 248.935
L488.938 256.65
L489.384 248.674
L489.83 248.058
L490.277 251.971
L490.723 252.614
L491.17 256.045
L491.616 256.243
L492.062 244.055
L492.509 255.699
L492.955 249.977
L493.402 247.462
L493.848 254.228
L494.741 260.357
L495.187 253.365
L495.634 251.48
L496.08 256.369
L496.526 252.829
L496.973 255.92
L497.419 255.55
L497.866 254.943
L498.312 249.039
L498.758 248.744
L499.205 242.21
L499.651 259.816
L500.544 252.321
L500.99 258.555
L501.883 249.468
L502.33 247.917
L502.776 250.597
L503.222 261.279
L503.669 251.366
L504.115 251.816
L504.562 249.78
L505.008 244.558
L505.454 255.781
L505.901 249.057
L506.347 248.86
L506.794 255.906
L507.24 259.454
L507.686 250.97
L508.133 253.824
L508.579 248.891
L509.026 246.234
L509.472 255.873
L509.918 256.578
L510.365 254.428
L510.811 256.302
L511.258 256.318
L511.704 245.863
L512.15 256.825
L512.597 248.08
L513.043 253.877
L513.49 248.537
L513.936 251.149
L514.382 254.938
L514.829 256.912
L515.275 252.476
L515.722 254.177
L516.168 236.674
L516.614 251.526
L517.061 248.956
L517.507 254.347
L517.954 257.647
L517.954 257.647" style="fill:none;stroke:#ff0000;"/>
   </g>
   <g id="line2d_2">
    <path clip-path="url(#p7ff5b81e1d)" d="
M72 252.212
L72.4464 103.962
L72.8928 108.865
L73.3392 127.477
L73.7856 125.041
L74.232 115.159
L74.6784 120.485
L75.0937 -1
M75.1372 -1
L75.5712 317.982
L76.464 119.958
L76.9104 117.59
L77.3568 122.449
L77.8032 114.703
L78.2496 123.496
L78.696 213.135
L79.1424 213.338
L79.5888 118.445
L80.0352 213.307
L80.4816 200.101
L80.928 112.623
L81.3744 218.201
L81.8208 132.095
L82.2672 123.233
L82.7136 198.983
L83.16 211.249
L83.6064 110.112
L84.0528 211.481
L84.4992 129.274
L84.9456 133.942
L85.392 207.815
L85.8384 111.328
L86.2848 209.777
L86.7312 190.813
L87.1776 109.771
L87.624 202.642
L88.0704 220.318
L88.5168 220.318
L88.9632 207.971
L89.4096 207.092
L89.856 205.734
L90.3024 209.486
L90.7488 205.035
L91.1952 213.275
L91.6416 217.454
L92.088 90.7192
L92.5344 216.018
L92.9808 207.514
L93.4272 203.873
L93.8736 204.628
L94.32 215.219
L94.7664 126.437
L95.2128 206.218
L95.6592 207.074
L96.1056 205.198
L96.552 204.695
L96.9984 221.235
L97.4448 216.485
L97.8912 205.94
L98.3376 209.843
L98.784 211.642
L99.2304 205.839
L99.6768 210.218
L100.123 222.095
L100.57 219.174
L101.016 210.152
L101.462 195.394
L101.909 210.708
L102.355 198.025
L102.802 205.364
L103.248 214.718
L103.694 125.338
L104.141 204.212
L104.587 211.357
L105.034 194.746
L105.48 206.3
L105.926 203.137
L106.373 212.533
L106.819 201.534
L107.266 196.883
L107.712 205.503
L108.605 218.579
L109.051 215.795
L109.498 202.074
L109.944 211.108
L110.39 201.546
L110.837 200.144
L111.283 219.578
L111.73 219.114
L112.176 208.261
L112.622 200.783
L113.069 201.996
L113.962 209.6
L114.408 210.664
L114.854 218.657
L115.301 199.441
L115.747 210.051
L116.194 211.803
L116.64 200.261
L117.086 210.622
L117.533 217.628
L117.979 201.784
L118.426 212.903
L118.872 208.484
L119.318 194.315
L119.765 207.536
L120.211 207.962
L120.658 215.627
L121.104 212.901
L121.55 205.019
L121.997 207.377
L122.443 201.243
L122.89 217.142
L123.336 215.733
L123.782 217.036
L124.229 205.507
L124.675 211.208
L125.568 198.11
L126.461 212.689
L126.907 213.947
L127.354 203.903
L127.8 200.055
L128.246 205
L128.693 201.453
L129.139 202.863
L129.586 212.977
L130.032 213.81
L130.478 205.902
L130.925 213.133
L131.818 197.608
L132.264 210.649
L132.71 219.414
L133.157 215.069
L133.603 208.459
L134.05 212.278
L134.496 201.618
L134.942 202.105
L135.389 209.848
L135.835 199.012
L136.282 218.735
L136.728 207.478
L137.174 205.364
L137.621 206.695
L138.067 216.911
L138.514 212.195
L138.96 200.058
L139.406 215.684
L139.853 208.941
L140.299 206.405
L141.192 220.41
L141.638 210.821
L142.085 213.473
L142.531 195.996
L143.424 209.592
L143.87 222.312
L144.317 218.251
L144.763 209.424
L145.21 205.95
L145.656 206.415
L146.102 201.809
L146.549 206.83
L146.995 214.841
L147.442 214.766
L147.888 205.161
L148.334 215.153
L148.781 197.302
L149.227 199.666
L149.674 207.233
L150.12 218.745
L150.566 216.053
L151.013 206.296
L151.459 210.117
L151.906 207.082
L152.352 205.319
L152.798 211.514
L153.245 219.649
L154.138 209.895
L154.584 210.293
L155.03 201.555
L155.923 214.656
L156.37 213.681
L156.816 206.975
L157.262 205.524
L157.709 216.259
L158.155 205.267
L158.602 211.297
L159.048 221.935
L159.494 217.168
L159.941 202.417
L160.387 202.727
L160.834 215.086
L161.28 205.714
L161.726 214.403
L162.173 218.856
L163.066 210.705
L163.512 199.465
L163.958 204.782
L164.405 208.064
L165.298 217.895
L165.744 211.313
L166.19 198.467
L166.637 210.649
L167.083 201.273
L167.53 215.944
L167.976 218.604
L168.422 219.613
L168.869 202.394
L169.315 202.983
L169.762 211.119
L170.208 189.067
L170.654 204.961
L171.101 202.462
L171.547 215.013
L171.994 218.67
L172.44 214.29
L173.333 199.39
L173.779 198.727
L174.226 217.532
L174.672 217.685
L175.118 206.644
L175.565 214.739
L176.011 201.488
L176.904 210.489
L177.35 211.803
L177.797 214.743
L178.243 199.738
L178.69 212.465
L179.136 202.891
L179.582 207.329
L180.029 218.592
L180.475 219.556
L181.368 205.521
L181.814 208.73
L182.261 198.312
L182.707 201.465
L183.154 219.37
L183.6 216.461
L184.046 207.712
L184.493 210.128
L184.939 211.615
L185.386 199.754
L185.832 208.103
L186.278 219.889
L186.725 216.943
L187.171 203.17
L187.618 211.885
L188.064 202.343
L188.957 211.628
L189.403 219.328
L189.85 204.127
L190.742 209.123
L191.189 342.834
L191.635 199.347
L192.082 200.452
L193.421 219.471
L193.867 210.742
L194.314 204.946
L194.76 207.111
L195.206 219.165
L195.653 219.632
L196.099 206.684
L196.546 202.219
L196.992 210.492
L197.438 210.771
L197.885 204.509
L198.331 203.681
L198.778 209.852
L199.224 208.323
L199.67 203.173
L200.117 207.983
L200.563 217.818
L201.01 221.423
L201.456 209.657
L201.902 204.425
L202.349 210.774
L202.795 205.63
L203.242 211.504
L203.688 220.324
L204.134 217.21
L204.581 208.156
L205.027 211.902
L205.474 205.646
L205.92 204.667
L206.366 206.568
L206.813 215.481
L207.259 214.186
L207.706 206.735
L208.152 215.638
L208.598 202.145
L209.045 197.145
L209.938 215.153
L210.384 215.775
L210.83 199.022
L211.277 208.021
L211.723 181.218
L212.17 194.082
L212.616 210.36
L213.062 217.062
L213.509 213.369
L213.955 201.264
L214.402 210.131
L214.848 201.473
L215.294 209.203
L216.187 219.223
L216.634 208.223
L217.08 207.147
L217.526 208.492
L217.973 206.47
L218.419 202.373
L218.866 216.094
L219.758 206.899
L220.651 210.153
L221.098 204.338
L221.544 209.842
L221.99 212.719
L222.437 213.655
L222.883 186.122
L223.33 213.087
L223.776 202.042
L224.222 208.953
L224.669 211.838
L225.115 219.2
L225.562 213.854
L226.008 210.802
L226.454 194.536
L226.901 200.604
L227.347 212.516
L227.794 215.513
L228.24 213.353
L228.686 206.326
L229.133 217.78
L229.579 207.433
L230.026 191.428
L230.472 207.066
L230.918 213.377
L231.365 203.783
L231.811 176.078
L232.258 213.267
L232.704 179.38
L234.043 218.296
L234.936 206.645
L235.382 214.695
L235.829 201.652
L236.275 196.324
L237.168 219.441
L237.614 210.106
L238.061 209.15
L238.507 214.224
L238.954 200.669
L239.4 214.472
L239.846 220.319
L240.293 214.68
L240.739 204.355
L241.186 204.775
L241.632 215.694
L242.078 209.594
L242.525 208.13
L242.971 217.965
L243.864 201.144
L244.31 215.997
L244.757 202.002
L245.203 202.634
L246.096 220.219
L246.542 216.693
L246.989 206.718
L247.435 208.274
L247.882 201.581
L248.328 207.128
L248.774 221.768
L249.221 217.491
L249.667 208.199
L250.114 201.606
L250.56 201.625
L251.453 215.451
L251.899 223.478
L252.346 216.478
L252.792 201.652
L253.238 207.18
L253.685 190.283
L254.131 195.407
L254.578 216.349
L255.024 216.955
L255.47 219.289
L255.917 208.305
L256.363 208.924
L256.81 215.108
L257.256 192.971
L257.702 199.475
L258.149 212.383
L258.595 198.713
L259.042 207.948
L259.488 208.326
L259.934 204.019
L260.381 207.402
L260.827 206.125
L261.274 203.714
L262.166 216.613
L262.613 210.629
L263.059 206.247
L263.506 218.086
L263.952 219.79
L264.398 207.657
L264.845 200.034
L265.291 208.3
L265.738 199.012
L266.184 209.173
L266.63 214.147
L267.077 214.183
L267.523 199.495
L267.97 212.462
L268.416 195.894
L268.862 209.781
L269.309 217.06
L269.755 220.511
L270.202 212.806
L270.648 203.093
L271.094 210.64
L271.541 199.696
L271.987 204.893
L272.434 215.562
L272.88 212.681
L273.326 208.273
L273.773 200.165
L274.219 209.403
L274.666 188.153
L275.558 220.258
L276.005 219.488
L276.451 204.229
L276.898 194.89
L277.344 211.288
L277.79 204.241
L278.237 207.14
L278.683 211.136
L279.13 212.258
L279.576 207.474
L280.022 216.62
L280.915 202.203
L281.362 213.184
L281.808 220.332
L282.254 205.021
L283.147 206.698
L283.594 201.95
L284.04 207.639
L284.486 220.132
L284.933 218.383
L285.379 208.883
L285.826 195.915
L286.272 209.288
L286.718 206.098
L287.165 205.012
L287.611 219.678
L288.058 218.395
L288.504 207.505
L288.95 214.115
L289.397 194.741
L290.29 210.891
L290.736 212.651
L291.182 210.434
L291.629 205.814
L292.075 207.635
L292.522 203.111
L292.968 195.34
L293.414 211.566
L293.861 221.011
L294.307 203.369
L294.754 196.812
L295.2 217.422
L295.646 196.936
L296.093 199.916
L296.539 213.674
L296.986 218.266
L297.878 204.742
L298.325 206.967
L298.771 200.538
L299.218 211.017
L299.664 214.028
L300.11 219.143
L300.557 207.825
L301.003 208.3
L301.45 208.588
L301.896 199.127
L302.342 207.463
L302.789 212.649
L303.235 202.462
L304.128 212.628
L304.574 204.864
L305.021 203.964
L305.467 210.607
L305.914 205.145
L306.36 203.226
L306.806 197.713
L307.253 206.915
L307.699 198.833
L308.146 205.929
L308.592 221.428
L309.038 218.943
L309.485 207.356
L309.931 207.169
L310.378 208.611
L310.824 205.929
L311.717 216.131
L312.163 212.816
L312.61 215.676
L313.056 204.437
L313.502 216.337
L313.949 192.743
L314.842 220.189
L315.288 216.596
L315.734 191.634
L316.181 207.435
L316.627 184.149
L317.52 206.978
L317.966 213.794
L318.413 215.412
L318.859 203.718
L319.306 209.104
L319.752 202.582
L320.645 212.511
L321.091 213.285
L321.538 211.288
L321.984 203.333
L322.43 211.374
L322.877 207.772
L323.323 216.589
L323.77 214.288
L324.216 199.228
L324.662 208.761
L325.109 202.327
L325.555 202.751
L326.002 214.984
L326.448 212.694
L326.894 214.08
L327.341 201.934
L327.787 203.208
L328.234 205.331
L328.68 206.806
L329.126 212.272
L329.573 221.064
L330.019 206.432
L330.466 201.155
L330.912 209.704
L331.358 192.96
L331.805 204.582
L332.251 220.971
L332.698 217.302
L333.144 206.971
L333.59 216.276
L334.037 217.064
L334.483 201.577
L334.93 202.028
L335.376 219.324
L335.822 204.007
L336.269 205.045
L336.715 203.902
L337.162 207.969
L337.608 178.486
L338.054 202.321
L338.501 219.05
L338.947 215.054
L339.394 207.964
L339.84 218.946
L340.286 206.747
L340.733 206.931
L341.179 210.651
L341.626 220.247
L342.072 211.109
L342.518 196.962
L342.965 208.619
L343.411 195.53
L343.858 216.79
L344.75 220.81
L345.197 207.744
L345.643 206.992
L346.09 201.311
L347.429 211.814
L347.875 209.93
L348.322 209.806
L348.768 211.978
L349.214 205.402
L349.661 205.092
L350.107 208.689
L350.554 219.098
L351 208.312
L351.446 206.409
L351.893 202.441
L352.339 191.907
L353.232 218.564
L353.678 219.619
L354.125 208.18
L354.571 205.338
L355.018 208.6
L355.464 207.967
L355.91 210.081
L356.357 221.055
L356.803 209.483
L357.25 211.384
L357.696 202.098
L358.142 215.804
L358.589 188.699
L359.035 210.415
L359.482 220.578
L359.928 216.474
L360.374 209.541
L360.821 205.959
L361.267 208.528
L361.714 200.681
L362.16 210
L362.606 216.474
L363.053 210.173
L363.499 209.547
L363.946 212.089
L364.838 205.024
L365.285 211.806
L365.731 211.171
L366.178 201.464
L366.624 196.948
L367.07 209.93
L367.517 201.814
L367.963 216.829
L368.41 222.758
L368.856 214.108
L369.302 200.746
L369.749 207.972
L370.195 205.21
L370.642 208.99
L371.088 205.421
L371.981 219.799
L372.427 208.707
L372.874 207.499
L373.32 209.292
L373.766 204.638
L374.213 210.878
L374.659 214.821
L375.106 203.935
L375.552 203.934
L375.998 209.245
L376.445 201.514
L376.891 201.439
L377.338 196.896
L377.784 207.084
L378.23 213.674
L378.677 201.552
L379.123 207.472
L379.57 179.188
L380.909 219.933
L381.802 205.497
L382.248 207.278
L382.694 201.785
L383.141 210.791
L383.587 209.79
L384.034 218.315
L384.48 198.579
L384.926 217.338
L385.373 214.325
L385.819 208.379
L386.266 207.395
L386.712 214.941
L387.158 195.388
L387.605 208.291
L388.051 196.84
L388.498 212.677
L388.944 222.26
L389.39 220.629
L389.837 210.517
L390.283 205.221
L390.73 204.364
L391.176 211.364
L391.622 206.599
L392.069 218.786
L392.515 214.592
L392.962 208.749
L393.408 216.981
L393.854 207.98
L394.301 195.976
L394.747 211.731
L395.194 218.211
L395.64 211.656
L396.086 209.892
L396.533 210.492
L396.979 197.265
L397.872 214.53
L398.318 221.451
L399.211 199.652
L399.658 203.918
L400.104 202.602
L400.55 195.567
L400.997 212.451
L401.443 216.115
L401.89 212.465
L402.336 204.969
L402.782 210.227
L403.229 206.737
L403.675 216.766
L404.122 223.322
L404.568 209.708
L405.014 208.559
L405.461 208.607
L405.907 212.362
L406.354 201.173
L406.8 207.892
L407.246 218.961
L407.693 209.344
L408.139 196.541
L408.586 209.892
L409.032 202.095
L409.478 206.181
L409.925 211.406
L410.371 215.325
L410.818 212.33
L411.264 204.307
L411.71 202.823
L412.157 203.368
L412.603 208.758
L413.05 221.188
L413.496 217.786
L413.942 209.526
L414.389 205.339
L414.835 206.033
L415.282 207.297
L415.728 211.41
L416.174 213.863
L416.621 203.598
L417.067 201.642
L417.514 203.546
L417.96 197.78
L418.406 196.547
L418.853 212.513
L419.299 207.317
L419.746 199.062
L420.638 194.786
L421.085 194.254
L421.531 182.08
L421.978 203.985
L422.424 212.934
L422.87 200.178
L423.317 193.62
L423.763 205.938
L424.21 194.263
L424.656 201.404
L425.102 204.253
L425.549 204.242
L425.995 199.756
L426.442 200.834
L426.888 196.06
L427.334 204.452
L427.781 202.466
L428.227 207.306
L428.674 194.483
L429.12 195.294
L429.566 198.222
L430.013 195.165
L430.459 205.353
L430.906 208.904
L431.352 206.08
L431.798 190.111
L432.245 200.808
L433.138 201.139
L433.584 204.734
L434.03 201.619
L434.477 192.802
L434.923 203.248
L435.37 196.156
L436.262 203.898
L436.709 211.013
L437.602 194.673
L438.048 197.935
L438.494 194.277
L438.941 204.716
L439.387 212.01
L439.834 195.045
L440.28 190.82
L440.726 192.809
L441.173 201.741
L441.619 193.079
L442.066 195.464
L442.512 193.539
L442.958 202.73
L443.851 199.732
L444.298 201.7
L444.744 200.657
L445.19 202.21
L445.637 197.035
L446.083 196.509
L446.53 197.751
L446.976 211.986
L447.422 209.283
L447.869 201.235
L448.315 198.398
L448.762 187.678
L449.208 199.806
L449.654 208.028
L450.101 199.772
L450.547 203.114
L451.44 194.114
L451.886 205.102
L452.333 212.574
L452.779 198.275
L453.226 196.352
L453.672 207.73
L454.118 193.6
L454.565 205.838
L455.011 203.236
L455.458 207.72
L455.904 193.323
L456.35 197.22
L456.797 194.813
L457.69 207.311
L458.136 204.362
L458.582 202.185
L459.029 202.429
L459.475 189.606
L459.922 191.046
L460.368 210.879
L460.814 197.479
L461.261 202.17
L461.707 177.466
L462.154 189.677
L462.6 210.83
L463.046 212.917
L463.493 202.745
L463.939 195.32
L464.386 203.157
L464.832 195.715
L465.278 199.948
L465.725 200.71
L466.171 207.379
L466.618 196.774
L467.064 204.299
L467.51 198.188
L467.957 205.694
L468.403 211.313
L468.85 202.902
L469.296 200.718
L469.742 206.317
L470.189 194.296
L470.635 196.676
L471.082 206.048
L471.528 207.075
L471.974 204.597
L472.421 193.404
L472.867 204.048
L473.314 201.22
L473.76 201.169
L474.206 206.537
L474.653 204.334
L475.099 196.195
L475.546 203.01
L475.992 195.348
L476.438 197.442
L476.885 215.702
L477.331 208.159
L477.778 203.047
L478.224 194.494
L478.67 197.383
L479.117 204.89
L479.563 199.442
L480.01 205.552
L480.456 203.948
L480.902 187.495
L481.349 204.264
L481.795 163.47
L482.242 201.238
L482.688 200.678
L483.134 194.569
L484.027 203.072
L484.474 198.33
L484.92 206.047
L485.366 206.075
L485.813 194.813
L486.259 201.258
L486.706 197.422
L487.152 192.304
L487.598 210.73
L488.045 210.586
L488.491 200.109
L488.938 204.135
L489.384 188.07
L489.83 193.762
L490.277 202.707
L490.723 197.534
L491.17 202.353
L491.616 188.32
L492.062 202.279
L492.509 194.803
L492.955 191.128
L493.402 204.386
L493.848 204.593
L494.294 200.214
L494.741 202.428
L495.187 198.116
L495.634 192.041
L496.08 209.8
L496.526 203.2
L496.973 203.04
L497.419 195.05
L497.866 203.148
L498.312 194.972
L498.758 202.244
L499.205 205.248
L499.651 209.074
L500.098 186.653
L500.544 202.774
L500.99 186.618
L501.437 203.198
L501.883 187.726
L502.776 197.236
L503.222 192.98
L503.669 205.454
L504.115 206.241
L504.562 211.487
L505.008 202.16
L505.454 204.58
L505.901 186.028
L506.794 205.636
L507.24 210.638
L508.133 196.889
L508.579 198.196
L509.026 185.062
L509.472 200.67
L509.918 201.991
L510.365 199.914
L510.811 198.697
L511.258 192.948
L511.704 205.558
L512.597 203.982
L513.043 187.881
L513.49 203.971
L514.382 196.098
L514.829 204.123
L515.275 201.498
L515.722 193.42
L516.168 202.293
L516.614 186.629
L517.507 213.611
L517.954 210.291
L517.954 210.291" style="fill:none;opacity:0.7;stroke:#008000;"/>
   </g>
   <g id="line2d_3">
    <path clip-path="url(#p7ff5b81e1d)" d="
M72 260.837
L72.4464 147.249
L72.8928 161.085
L73.3392 165.742
L73.7856 161.06
L74.232 80.0664
L74.6784 240.743
L75.1248 155.597
L75.5712 253.651
L76.0176 163.137
L76.464 256.23
L76.9104 264.648
L77.3568 168.261
L77.8032 257.739
L78.2496 171.344
L78.696 242.91
L79.1424 271.652
L79.5888 254.963
L80.0352 163.476
L80.4816 237.178
L80.928 167.874
L81.3744 170.527
L81.8208 176.663
L82.2672 240.615
L82.7136 189.636
L83.16 167.085
L83.6064 258.941
L84.0528 170.131
L84.4992 163.234
L84.9456 247.642
L85.392 253.121
L85.8384 251.667
L86.2848 277.218
L86.7312 257.971
L87.1776 256.201
L87.624 249.202
L88.0704 258.735
L88.5168 262.218
L88.9632 165.892
L89.4096 234.698
L89.856 262.753
L90.3024 253.012
L90.7488 265.741
L91.1952 256.018
L91.6416 256.489
L92.088 252.741
L92.5344 257.088
L92.9808 245.566
L93.4272 266.814
L93.8736 251.052
L94.32 245.727
L94.7664 158.6
L95.2128 258.887
L95.6592 257.661
L96.1056 260.337
L96.552 257.806
L96.9984 257.717
L97.4448 253.769
L97.8912 169.638
L98.3376 247.273
L99.2304 251.14
L99.6768 250.577
L100.123 261.744
L100.57 260.1
L101.016 168.455
L101.462 254.083
L101.909 240.021
L102.355 248.654
L102.802 252.939
L103.248 255.092
L103.694 249.422
L104.141 251.711
L104.587 260.916
L105.034 259.134
L105.48 250.927
L105.926 254.771
L106.373 251.499
L106.819 167.598
L107.266 263.2
L107.712 171.765
L108.158 250.354
L108.605 250.485
L109.051 251.859
L109.498 262.076
L109.944 253.101
L110.39 254.096
L110.837 247.652
L111.283 251.107
L111.73 249.309
L112.176 256.322
L112.622 243.878
L113.069 253.148
L113.515 259.727
L113.962 252.33
L114.408 257.132
L114.854 255.371
L115.301 248.913
L115.747 254.79
L116.194 252.017
L116.64 255.865
L117.086 252.678
L117.533 256.025
L117.979 260.464
L118.426 255.573
L118.872 264.256
L119.765 251.38
L120.211 254.792
L120.658 233.787
L121.104 255.456
L121.55 254.96
L121.997 247.989
L123.336 255.141
L123.782 261.826
L124.229 259.517
L124.675 252.691
L125.122 261.809
L125.568 248.079
L126.014 256.532
L126.461 250.89
L126.907 261.37
L127.354 258.144
L127.8 259.813
L128.246 250.688
L128.693 256.991
L129.139 261.183
L129.586 260.492
L130.925 252.037
L131.371 247.546
L131.818 246.129
L132.264 248.136
L133.157 259.274
L133.603 259.603
L134.05 258.472
L134.496 252.683
L134.942 251.668
L135.389 248.501
L135.835 256.086
L136.282 257.257
L136.728 248.721
L137.174 257.598
L137.621 263.274
L138.514 255.622
L138.96 250.78
L139.406 256.265
L139.853 255.544
L140.299 251.623
L140.746 254.709
L141.192 250.785
L141.638 250.734
L142.085 258.053
L142.531 255.461
L142.978 259.788
L143.424 259.392
L143.87 243.44
L144.317 254.117
L144.763 256.94
L145.21 256.66
L145.656 251.146
L146.102 248.567
L146.549 264.711
L146.995 264.861
L147.442 251.202
L147.888 255.274
L148.334 248.083
L148.781 246.033
L149.227 249.384
L149.674 262.138
L150.12 258.797
L150.566 260.129
L151.013 254.322
L151.459 246.946
L151.906 254.966
L152.352 254.24
L152.798 246.381
L153.245 259.859
L153.691 251.669
L154.138 258.857
L154.584 260.677
L155.03 258.355
L155.477 260.2
L155.923 255.237
L156.37 248.95
L156.816 250.892
L157.262 256.652
L157.709 255.307
L158.155 255.951
L158.602 257.264
L159.048 262.176
L159.494 257.393
L159.941 248.091
L160.387 250.051
L160.834 255.794
L161.28 248.172
L161.726 257.245
L162.173 259.265
L162.619 260.666
L163.066 257.111
L163.512 249.067
L163.958 260.585
L164.405 263.204
L164.851 263.312
L165.298 263.302
L165.744 251.146
L166.19 248.344
L166.637 257.735
L167.083 249.978
L167.53 251.591
L167.976 258.39
L168.422 259.945
L168.869 259.671
L169.315 251.325
L169.762 259.59
L170.208 251.675
L170.654 240.856
L171.101 257.632
L171.547 262.186
L171.994 265.16
L173.333 249.696
L173.779 256.855
L174.226 254.713
L174.672 250.859
L175.118 245.198
L176.011 262.021
L176.458 260.59
L176.904 252.165
L177.35 254.226
L177.797 250.628
L178.243 248.706
L178.69 258.433
L179.136 261.7
L179.582 259.355
L180.029 258.843
L180.475 258.125
L180.922 251.418
L181.368 260.783
L181.814 259.521
L182.261 250.328
L182.707 250.578
L183.154 251.482
L183.6 263.355
L184.046 264.22
L184.493 249.315
L184.939 256.945
L185.386 261.854
L185.832 255.051
L186.278 257.71
L186.725 253.619
L187.171 251.907
L187.618 253.877
L188.064 254.095
L188.51 257.846
L188.957 259.3
L189.403 256.981
L189.85 255.634
L190.296 253.274
L190.742 259.752
L191.189 247.847
L191.635 243.757
L192.082 256.095
L192.528 253.306
L192.974 254.08
L193.421 260.187
L193.867 261.586
L194.314 257.954
L194.76 257.231
L195.206 255.068
L195.653 255.732
L196.099 251.47
L196.546 263.029
L196.992 257.866
L197.438 259.162
L197.885 259.203
L198.331 261.03
L198.778 249.579
L199.224 256.093
L199.67 256.593
L200.117 254.434
L201.01 248.141
L201.456 257.729
L201.902 260.933
L202.349 252.9
L202.795 261.254
L203.242 261.956
L203.688 254.929
L204.134 253.524
L204.581 258.838
L205.027 240.38
L205.474 255.141
L205.92 259.625
L206.366 257.462
L206.813 255.854
L207.259 256.184
L207.706 255.329
L208.598 249.164
L209.045 251.073
L209.491 261.901
L209.938 260.072
L210.384 262.763
L210.83 255.901
L211.277 241.048
L211.723 258.435
L212.17 255.087
L212.616 245.227
L213.509 259.162
L213.955 261.414
L214.402 257.686
L214.848 260.473
L215.294 256.582
L215.741 251.668
L216.187 252.985
L216.634 256.415
L217.08 251.068
L217.526 249.852
L217.973 250.605
L218.419 263.091
L218.866 263.441
L219.312 258.422
L219.758 247.782
L220.205 248.375
L220.651 255.924
L221.098 257.332
L221.544 254.418
L221.99 253.258
L222.437 243.898
L222.883 263.447
L223.33 264.369
L223.776 258.518
L224.222 255.757
L224.669 254.937
L225.115 259.125
L225.562 260.85
L226.008 258.257
L226.454 254.332
L226.901 248.047
L227.794 262.723
L228.24 259.162
L228.686 253.449
L229.133 249.877
L229.579 252.71
L230.026 253.616
L230.472 247.956
L230.918 257.268
L231.365 253.265
L231.811 253.372
L232.258 260.664
L232.704 257.401
L233.15 234.571
L233.597 255.934
L234.043 254.617
L234.49 256.341
L234.936 258.834
L235.382 261.985
L235.829 256.085
L236.275 254.804
L236.722 248.589
L237.168 250.198
L237.614 249.522
L238.061 256.148
L238.507 259.25
L238.954 254.517
L239.4 263.591
L239.846 258.874
L240.293 257.454
L240.739 250.231
L241.632 261.947
L242.078 250.038
L242.971 259.334
L243.418 262.633
L243.864 256.281
L244.31 253.121
L245.203 257.161
L245.65 256.957
L246.096 255.108
L246.542 251.094
L246.989 249.918
L247.435 257.549
L247.882 254.837
L248.328 264.178
L248.774 258.502
L249.221 256.857
L249.667 250.625
L250.114 264.93
L251.006 251.478
L251.453 250.841
L251.899 249.443
L252.346 250.022
L252.792 249.957
L253.238 265.109
L253.685 266.07
L254.131 256.545
L254.578 254.704
L255.024 248.961
L255.47 254.957
L255.917 252.27
L256.363 251.895
L256.81 254.052
L257.256 250.847
L257.702 262.928
L258.149 262.543
L258.595 257.059
L259.042 253.167
L259.488 217.096
L259.934 254.684
L260.381 255.228
L260.827 257.732
L261.274 219.68
L261.72 252.352
L262.166 251.37
L262.613 247.643
L263.059 253.238
L263.506 255.22
L263.952 252.971
L264.398 255.025
L264.845 243.812
L265.291 250.121
L265.738 250.474
L266.184 248.135
L266.63 258.264
L267.523 251.914
L267.97 238.732
L268.416 254.351
L268.862 249.242
L269.309 257.241
L269.755 255.869
L270.202 257.818
L270.648 255.278
L271.094 252.029
L271.541 255.957
L271.987 257.996
L272.434 246.501
L272.88 245.948
L273.326 250.087
L273.773 258.087
L274.219 259.087
L275.112 250.278
L275.558 249.868
L276.005 250.232
L276.451 255.562
L276.898 252.979
L277.344 247.023
L277.79 249.209
L278.237 261.263
L278.683 262.939
L279.13 248.658
L279.576 243.368
L280.469 256.358
L280.915 248.812
L281.362 251.911
L281.808 256.493
L282.254 259.49
L282.701 254.183
L283.147 245.851
L283.594 245.224
L284.04 243.968
L284.486 254.426
L284.933 260.441
L285.379 243.732
L285.826 249.794
L286.272 246.782
L286.718 252.766
L287.165 256.433
L287.611 257.406
L288.058 253.446
L288.504 236.519
L288.95 236.707
L289.397 255.511
L289.843 258.937
L290.29 255.194
L290.736 257.693
L291.182 253.256
L291.629 256.955
L292.075 249.308
L292.522 244.956
L292.968 251.673
L293.414 254.492
L293.861 261.092
L294.307 254.6
L294.754 257.834
L295.2 247.89
L295.646 252.18
L296.093 241.522
L296.539 258.821
L296.986 251.547
L297.878 255.839
L298.325 258.703
L298.771 255.806
L299.218 259.162
L299.664 247.115
L300.11 253.481
L300.557 247.941
L301.003 252.262
L301.45 254.21
L301.896 253.131
L302.342 262.923
L302.789 252.646
L303.235 250.955
L303.682 257.12
L304.574 253.392
L305.021 246.778
L305.467 247.636
L305.914 249.028
L306.36 261.115
L306.806 253.181
L307.253 256.006
L307.699 254.506
L308.146 244.706
L308.592 252.573
L309.038 255.93
L309.485 253.351
L309.931 239.898
L310.378 253.548
L310.824 247.541
L311.27 250.33
L311.717 257.568
L312.163 257.377
L312.61 250.441
L313.056 255.755
L313.502 254.23
L313.949 245.662
L314.395 243.802
L314.842 250.554
L315.288 247.721
L315.734 261.539
L316.181 235.832
L316.627 249.681
L317.074 249.535
L317.52 252.406
L317.966 249.635
L318.413 256.89
L318.859 259.899
L319.306 254.244
L319.752 250.71
L320.198 244.597
L320.645 256.277
L321.091 254.756
L321.538 252.8
L321.984 246.781
L322.43 250.217
L322.877 258.929
L323.77 256.036
L324.216 251.508
L324.662 248.509
L325.109 256.751
L325.555 254.797
L326.002 250.472
L326.448 256.547
L326.894 252.14
L327.341 258.919
L327.787 256.143
L328.234 256.61
L328.68 256.356
L329.126 254.859
L329.573 259.403
L330.019 246.474
L330.466 246.78
L330.912 254.962
L331.358 260.275
L331.805 251.287
L332.251 261.643
L332.698 253.52
L333.144 260.592
L333.59 254.285
L334.037 255.502
L334.483 248.967
L334.93 246.753
L335.376 250.729
L335.822 258.047
L337.162 253.498
L337.608 256.631
L338.054 255.689
L338.501 254.162
L338.947 250.522
L339.394 256.929
L339.84 251.282
L340.286 259.238
L340.733 264.224
L341.626 256.052
L342.072 245.55
L342.518 252.922
L342.965 248.534
L343.411 254.414
L343.858 240.794
L344.304 252.619
L344.75 246.095
L345.197 252.932
L345.643 248.161
L346.536 256.471
L346.982 257.593
L347.429 250.4
L347.875 249.969
L348.322 252.043
L348.768 245.728
L349.214 251.836
L349.661 256.138
L350.107 248.185
L350.554 254.064
L351 254.243
L351.446 258.848
L351.893 256.033
L352.339 256.875
L352.786 254.609
L353.232 259.315
L353.678 252.118
L354.125 262.269
L354.571 251.809
L355.018 244.893
L355.464 254.634
L355.91 255.257
L356.357 259.852
L357.696 247.492
L358.142 252.83
L358.589 248.564
L359.035 252.035
L359.482 254.428
L359.928 252.097
L360.374 256.232
L360.821 255.003
L361.267 257.631
L361.714 246.672
L362.16 253.584
L362.606 251.402
L363.053 247.816
L363.499 247.871
L363.946 259.952
L364.392 259.512
L364.838 256.991
L365.285 255.745
L365.731 246.436
L366.178 254.292
L366.624 256.43
L367.07 256.553
L367.963 252.684
L368.41 250.611
L368.856 242.394
L369.302 245.759
L369.749 257.25
L370.195 258.305
L370.642 253.817
L371.088 259.362
L371.534 245.364
L371.981 248.98
L372.427 254.103
L372.874 261.501
L373.32 256.594
L373.766 256.451
L374.213 257.03
L374.659 256.89
L375.106 249.621
L375.552 250.721
L375.998 256.241
L376.445 257.967
L376.891 256.079
L377.338 258.182
L378.23 250.666
L378.677 256.199
L379.123 247.278
L379.57 246.187
L380.016 246.093
L380.462 249.227
L380.909 259.491
L381.355 263.281
L381.802 255.604
L382.248 253.302
L382.694 254.804
L383.141 257.678
L383.587 255.5
L384.034 256.492
L384.48 250.336
L384.926 250.156
L385.373 260.44
L385.819 261.635
L386.266 247.435
L387.158 258.476
L387.605 253.699
L388.051 254.892
L388.498 254.07
L388.944 254.02
L389.39 258.822
L389.837 247.637
L390.283 260.024
L390.73 253.134
L391.176 251.714
L391.622 254.945
L392.069 260.588
L392.515 246.673
L392.962 252.135
L393.408 250.032
L393.854 260.011
L394.301 253.219
L394.747 257.624
L395.194 254.001
L395.64 249.019
L396.086 257.742
L396.533 259.503
L396.979 225.925
L397.426 246.596
L397.872 250.644
L398.318 257.083
L398.765 259.742
L399.658 237.227
L400.104 254.903
L400.55 247.383
L400.997 248.357
L401.443 246.783
L401.89 256.731
L402.336 259.594
L402.782 255.473
L403.229 249.881
L403.675 253.526
L404.122 252.319
L404.568 255.437
L405.014 249.345
L405.461 256.451
L405.907 260.453
L406.354 256.314
L406.8 248.931
L407.246 244.643
L407.693 255.299
L408.139 249.225
L408.586 252.795
L409.032 254.012
L409.478 261.198
L409.925 256.855
L410.371 246.557
L410.818 254.685
L411.264 252.377
L411.71 254.668
L412.603 249.34
L413.05 250.551
L413.496 258.287
L413.942 252.831
L414.389 255.813
L414.835 256.297
L415.282 254.649
L415.728 252.23
L416.174 255.893
L416.621 258.364
L417.514 252.053
L417.96 251.588
L418.406 256.379
L418.853 249.48
L419.299 256.99
L419.746 253.047
L420.192 259.915
L421.085 244.434
L421.531 257.071
L421.978 255.608
L422.424 250.622
L423.317 260.736
L423.763 260.252
L424.21 258.836
L424.656 244.287
L425.102 256.447
L425.549 248.247
L426.442 255.981
L426.888 237.685
L427.334 250.327
L427.781 251.638
L428.227 248.233
L428.674 246.108
L429.12 255.319
L429.566 260.358
L430.013 263.04
L430.459 248.701
L430.906 253.046
L431.352 255.575
L431.798 253.469
L432.245 258.477
L432.691 253.166
L433.138 254.149
L433.584 252.798
L434.03 255.155
L434.477 251.525
L435.37 260.71
L435.816 260.382
L436.262 254.144
L436.709 257.088
L437.155 261.259
L437.602 249.374
L438.048 245.356
L438.494 255.357
L439.387 258.146
L439.834 257.28
L440.28 254.175
L440.726 251.994
L441.173 254.91
L441.619 254.233
L442.066 242.255
L442.512 250.069
L442.958 242.329
L443.405 259.547
L443.851 264.551
L444.298 256.172
L444.744 257.204
L445.19 254.698
L445.637 251.18
L446.083 255.082
L446.53 252.625
L446.976 248.615
L447.422 250.233
L447.869 256.614
L448.315 259.063
L448.762 254.036
L449.208 252.256
L449.654 246.353
L450.101 252.945
L450.547 248.243
L450.994 253.287
L451.44 255.102
L451.886 260.69
L452.333 241.598
L452.779 256.724
L453.226 256.213
L453.672 254.348
L454.118 257.264
L454.565 237.918
L455.011 254.261
L455.458 257.76
L455.904 255.728
L456.35 257.219
L456.797 256.265
L457.243 258.392
L457.69 247.952
L458.136 254.196
L459.029 259.023
L459.475 254.611
L459.922 259.685
L460.368 253.363
L460.814 259.157
L461.261 254.105
L461.707 259.892
L462.154 246.665
L462.6 253.952
L463.493 249.57
L463.939 259.088
L464.832 251.138
L465.278 245.197
L466.171 250.004
L466.618 258.019
L467.064 254.685
L467.51 244.015
L467.957 256.363
L468.403 260.786
L468.85 255.096
L469.296 244.981
L469.742 254.647
L470.189 252.312
L470.635 248.306
L471.082 249.294
L471.528 258.992
L471.974 259.369
L472.421 266.259
L472.867 241.425
L473.314 254.016
L474.206 252.872
L474.653 252.893
L475.099 253.926
L475.546 248.155
L475.992 247.75
L476.438 231.772
L476.885 251.577
L477.331 255.521
L477.778 253.732
L478.224 245.643
L478.67 255.035
L479.117 260.115
L479.563 232.48
L480.456 250.703
L480.902 255.926
L481.349 257.882
L481.795 254.116
L482.242 233.881
L482.688 248.399
L483.134 253.839
L483.581 254.838
L484.027 260.476
L484.474 261.49
L484.92 258.588
L485.366 263.849
L485.813 255.402
L486.259 243.582
L486.706 257.201
L487.152 256.067
L487.598 253.735
L488.045 256.708
L488.491 254.644
L488.938 260.717
L489.83 253.883
L490.277 249.159
L490.723 248.079
L491.17 255.617
L491.616 256.568
L492.062 259.597
L492.509 252.419
L492.955 254.843
L493.402 251.045
L493.848 256.284
L494.294 249.696
L494.741 257.342
L495.187 259.059
L495.634 256.745
L496.08 258.418
L496.526 253.823
L496.973 251.752
L497.866 258.982
L498.312 248.017
L498.758 247.718
L499.205 254.93
L499.651 258.101
L500.098 253.422
L500.544 256.575
L500.99 253.982
L501.437 254.307
L501.883 259.464
L502.33 244.962
L502.776 247.47
L503.222 247.395
L503.669 252.257
L504.115 259.277
L504.562 260.525
L505.008 257.345
L505.454 252.305
L505.901 250.707
L506.347 256.899
L506.794 253.433
L507.24 253.173
L507.686 256.181
L508.133 249.896
L509.026 261.908
L509.472 254.423
L509.918 240.082
L510.365 234.699
L510.811 257.79
L511.258 254.665
L512.15 246.128
L512.597 251.869
L513.49 259.178
L513.936 249.412
L514.382 258.454
L514.829 258.083
L515.275 254.863
L515.722 261.694
L516.168 258.374
L516.614 248.893
L517.061 251.829
L517.507 245.034
L517.954 263.311
L517.954 263.311" style="fill:none;opacity:0.5;stroke:#0000ff;"/>
   </g>
   <g id="matplotlib.axis_1">
    <g id="xtick_1">
     <g id="line2d_4">
      <path clip-path="url(#p7ff5b81e1d)" d="
M72 388.8
L72 43.2" style="fill:none;stroke:#000000;stroke-dasharray:1.000000,3.000000;stroke-dashoffset:0.0;stroke-linecap:butt;stroke-width:0.5;"/>
     </g>
     <g id="line2d_5">
      <defs>
       <path d="
M0 0
L0 -4" id="m0012dd4eef" style="stroke:#000000;stroke-linecap:butt;stroke-width:0.5;"/>
      </defs>
      <g>
       <use style="stroke:#000000;stroke-linecap:butt;stroke-width:0.5;" x="72.0" xlink:href="#m0012dd4eef" y="388.8"/>
      </g>
     </g>
     <g id="line2d_6">
      <defs>
       <path d="
M0 0
L0 4" id="m476344969c" style="stroke:#000000;stroke-linecap:butt;stroke-width:0.5;"/>
      </defs>
      <g>
       <use style="stroke:#000000;stroke-linecap:butt;stroke-width:0.5;" x="72.0" xlink:href="#m476344969c" y="43.2"/>
      </g>
     </g>
     <g id="text_1">
      <!-- 0 -->
      <defs>
       <path d="
M31.7812 66.4062
Q24.1719 66.4062 20.3281 58.9062
Q16.5 51.4219 16.5 36.375
Q16.5 21.3906 20.3281 13.8906
Q24.1719 6.39062 31.7812 6.39062
Q39.4531 6.39062 43.2812 13.8906
Q47.125 21.3906 47.125 36.375
Q47.125 51.4219 43.2812 58.9062
Q39.4531 66.4062 31.7812 66.4062
M31.7812 74.2188
Q44.0469 74.2188 50.5156 64.5156
Q56.9844 54.8281 56.9844 36.375
Q56.9844 17.9688 50.5156 8.26562
Q44.0469 -1.42188 31.7812 -1.42188
Q19.5312 -1.42188 13.0625 8.26562
Q6.59375 17.9688 6.59375 36.375
Q6.59375 54.8281 13.0625 64.5156
Q19.5312 74.2188 31.7812 74.2188" id="BitstreamVeraSans-Roman-30"/>
      </defs>
      <g transform="translate(68.9765625 401.70625)scale(0.12 -0.12)">
       <use xlink:href="#BitstreamVeraSans-Roman-30"/>
      </g>
     </g>
    </g>
    <g id="xtick_2">
     <g id="line2d_7">
      <path clip-path="url(#p7ff5b81e1d)" d="
M116.64 388.8
L116.64 43.2" style="fill:none;stroke:#000000;stroke-dasharray:1.000000,3.000000;stroke-dashoffset:0.0;stroke-linecap:butt;stroke-width:0.5;"/>
     </g>
     <g id="line2d_8">
      <g>
       <use style="stroke:#000000;stroke-linecap:butt;stroke-width:0.5;" x="116.64" xlink:href="#m0012dd4eef" y="388.8"/>
      </g>
     </g>
     <g id="line2d_9">
      <g>
       <use style="stroke:#000000;stroke-linecap:butt;stroke-width:0.5;" x="116.64" xlink:href="#m476344969c" y="43.2"/>
      </g>
     </g>
     <g id="text_2">
      <!-- 100 -->
      <defs>
       <path d="
M12.4062 8.29688
L28.5156 8.29688
L28.5156 63.9219
L10.9844 60.4062
L10.9844 69.3906
L28.4219 72.9062
L38.2812 72.9062
L38.2812 8.29688
L54.3906 8.29688
L54.3906 0
L12.4062 0
z
" id="BitstreamVeraSans-Roman-31"/>
      </defs>
      <g transform="translate(106.245 401.70625)scale(0.12 -0.12)">
       <use xlink:href="#BitstreamVeraSans-Roman-31"/>
       <use x="63.623046875" xlink:href="#BitstreamVeraSans-Roman-30"/>
       <use x="127.24609375" xlink:href="#BitstreamVeraSans-Roman-30"/>
      </g>
     </g>
    </g>
    <g id="xtick_3">
     <g id="line2d_10">
      <path clip-path="url(#p7ff5b81e1d)" d="
M161.28 388.8
L161.28 43.2" style="fill:none;stroke:#000000;stroke-dasharray:1.000000,3.000000;stroke-dashoffset:0.0;stroke-linecap:butt;stroke-width:0.5;"/>
     </g>
     <g id="line2d_11">
      <g>
       <use style="stroke:#000000;stroke-linecap:butt;stroke-width:0.5;" x="161.28" xlink:href="#m0012dd4eef" y="388.8"/>
      </g>
     </g>
     <g id="line2d_12">
      <g>
       <use style="stroke:#000000;stroke-linecap:butt;stroke-width:0.5;" x="161.28" xlink:href="#m476344969c" y="43.2"/>
      </g>
     </g>
     <g id="text_3">
      <!-- 200 -->
      <defs>
       <path d="
M19.1875 8.29688
L53.6094 8.29688
L53.6094 0
L7.32812 0
L7.32812 8.29688
Q12.9375 14.1094 22.625 23.8906
Q32.3281 33.6875 34.8125 36.5312
Q39.5469 41.8438 41.4219 45.5312
Q43.3125 49.2188 43.3125 52.7812
Q43.3125 58.5938 39.2344 62.25
Q35.1562 65.9219 28.6094 65.9219
Q23.9688 65.9219 18.8125 64.3125
Q13.6719 62.7031 7.8125 59.4219
L7.8125 69.3906
Q13.7656 71.7812 18.9375 73
Q24.125 74.2188 28.4219 74.2188
Q39.75 74.2188 46.4844 68.5469
Q53.2188 62.8906 53.2188 53.4219
Q53.2188 48.9219 51.5312 44.8906
Q49.8594 40.875 45.4062 35.4062
Q44.1875 33.9844 37.6406 27.2188
Q31.1094 20.4531 19.1875 8.29688" id="BitstreamVeraSans-Roman-32"/>
      </defs>
      <g transform="translate(150.665625 401.70625)scale(0.12 -0.12)">
       <use xlink:href="#BitstreamVeraSans-Roman-32"/>
       <use x="63.623046875" xlink:href="#BitstreamVeraSans-Roman-30"/>
       <use x="127.24609375" xlink:href="#BitstreamVeraSans-Roman-30"/>
      </g>
     </g>
    </g>
    <g id="xtick_4">
     <g id="line2d_13">
      <path clip-path="url(#p7ff5b81e1d)" d="
M205.92 388.8
L205.92 43.2" style="fill:none;stroke:#000000;stroke-dasharray:1.000000,3.000000;stroke-dashoffset:0.0;stroke-linecap:butt;stroke-width:0.5;"/>
     </g>
     <g id="line2d_14">
      <g>
       <use style="stroke:#000000;stroke-linecap:butt;stroke-width:0.5;" x="205.92" xlink:href="#m0012dd4eef" y="388.8"/>
      </g>
     </g>
     <g id="line2d_15">
      <g>
       <use style="stroke:#000000;stroke-linecap:butt;stroke-width:0.5;" x="205.92" xlink:href="#m476344969c" y="43.2"/>
      </g>
     </g>
     <g id="text_4">
      <!-- 300 -->
      <defs>
       <path d="
M40.5781 39.3125
Q47.6562 37.7969 51.625 33
Q55.6094 28.2188 55.6094 21.1875
Q55.6094 10.4062 48.1875 4.48438
Q40.7656 -1.42188 27.0938 -1.42188
Q22.5156 -1.42188 17.6562 -0.515625
Q12.7969 0.390625 7.625 2.20312
L7.625 11.7188
Q11.7188 9.32812 16.5938 8.10938
Q21.4844 6.89062 26.8125 6.89062
Q36.0781 6.89062 40.9375 10.5469
Q45.7969 14.2031 45.7969 21.1875
Q45.7969 27.6406 41.2812 31.2656
Q36.7656 34.9062 28.7188 34.9062
L20.2188 34.9062
L20.2188 43.0156
L29.1094 43.0156
Q36.375 43.0156 40.2344 45.9219
Q44.0938 48.8281 44.0938 54.2969
Q44.0938 59.9062 40.1094 62.9062
Q36.1406 65.9219 28.7188 65.9219
Q24.6562 65.9219 20.0156 65.0312
Q15.375 64.1562 9.8125 62.3125
L9.8125 71.0938
Q15.4375 72.6562 20.3438 73.4375
Q25.25 74.2188 29.5938 74.2188
Q40.8281 74.2188 47.3594 69.1094
Q53.9062 64.0156 53.9062 55.3281
Q53.9062 49.2656 50.4375 45.0938
Q46.9688 40.9219 40.5781 39.3125" id="BitstreamVeraSans-Roman-33"/>
      </defs>
      <g transform="translate(195.3234375 401.70625)scale(0.12 -0.12)">
       <use xlink:href="#BitstreamVeraSans-Roman-33"/>
       <use x="63.623046875" xlink:href="#BitstreamVeraSans-Roman-30"/>
       <use x="127.24609375" xlink:href="#BitstreamVeraSans-Roman-30"/>
      </g>
     </g>
    </g>
    <g id="xtick_5">
     <g id="line2d_16">
      <path clip-path="url(#p7ff5b81e1d)" d="
M250.56 388.8
L250.56 43.2" style="fill:none;stroke:#000000;stroke-dasharray:1.000000,3.000000;stroke-dashoffset:0.0;stroke-linecap:butt;stroke-width:0.5;"/>
     </g>
     <g id="line2d_17">
      <g>
       <use style="stroke:#000000;stroke-linecap:butt;stroke-width:0.5;" x="250.56" xlink:href="#m0012dd4eef" y="388.8"/>
      </g>
     </g>
     <g id="line2d_18">
      <g>
       <use style="stroke:#000000;stroke-linecap:butt;stroke-width:0.5;" x="250.56" xlink:href="#m476344969c" y="43.2"/>
      </g>
     </g>
     <g id="text_5">
      <!-- 400 -->
      <defs>
       <path d="
M37.7969 64.3125
L12.8906 25.3906
L37.7969 25.3906
z

M35.2031 72.9062
L47.6094 72.9062
L47.6094 25.3906
L58.0156 25.3906
L58.0156 17.1875
L47.6094 17.1875
L47.6094 0
L37.7969 0
L37.7969 17.1875
L4.89062 17.1875
L4.89062 26.7031
z
" id="BitstreamVeraSans-Roman-34"/>
      </defs>
      <g transform="translate(239.799375 401.70625)scale(0.12 -0.12)">
       <use xlink:href="#BitstreamVeraSans-Roman-34"/>
       <use x="63.623046875" xlink:href="#BitstreamVeraSans-Roman-30"/>
       <use x="127.24609375" xlink:href="#BitstreamVeraSans-Roman-30"/>
      </g>
     </g>
    </g>
    <g id="xtick_6">
     <g id="line2d_19">
      <path clip-path="url(#p7ff5b81e1d)" d="
M295.2 388.8
L295.2 43.2" style="fill:none;stroke:#000000;stroke-dasharray:1.000000,3.000000;stroke-dashoffset:0.0;stroke-linecap:butt;stroke-width:0.5;"/>
     </g>
     <g id="line2d_20">
      <g>
       <use style="stroke:#000000;stroke-linecap:butt;stroke-width:0.5;" x="295.2" xlink:href="#m0012dd4eef" y="388.8"/>
      </g>
     </g>
     <g id="line2d_21">
      <g>
       <use style="stroke:#000000;stroke-linecap:butt;stroke-width:0.5;" x="295.2" xlink:href="#m476344969c" y="43.2"/>
      </g>
     </g>
     <g id="text_6">
      <!-- 500 -->
      <defs>
       <path d="
M10.7969 72.9062
L49.5156 72.9062
L49.5156 64.5938
L19.8281 64.5938
L19.8281 46.7344
Q21.9688 47.4688 24.1094 47.8281
Q26.2656 48.1875 28.4219 48.1875
Q40.625 48.1875 47.75 41.5
Q54.8906 34.8125 54.8906 23.3906
Q54.8906 11.625 47.5625 5.09375
Q40.2344 -1.42188 26.9062 -1.42188
Q22.3125 -1.42188 17.5469 -0.640625
Q12.7969 0.140625 7.71875 1.70312
L7.71875 11.625
Q12.1094 9.23438 16.7969 8.0625
Q21.4844 6.89062 26.7031 6.89062
Q35.1562 6.89062 40.0781 11.3281
Q45.0156 15.7656 45.0156 23.3906
Q45.0156 31 40.0781 35.4375
Q35.1562 39.8906 26.7031 39.8906
Q22.75 39.8906 18.8125 39.0156
Q14.8906 38.1406 10.7969 36.2812
z
" id="BitstreamVeraSans-Roman-35"/>
      </defs>
      <g transform="translate(284.6090625 401.70625)scale(0.12 -0.12)">
       <use xlink:href="#BitstreamVeraSans-Roman-35"/>
       <use x="63.623046875" xlink:href="#BitstreamVeraSans-Roman-30"/>
       <use x="127.24609375" xlink:href="#BitstreamVeraSans-Roman-30"/>
      </g>
     </g>
    </g>
    <g id="xtick_7">
     <g id="line2d_22">
      <path clip-path="url(#p7ff5b81e1d)" d="
M339.84 388.8
L339.84 43.2" style="fill:none;stroke:#000000;stroke-dasharray:1.000000,3.000000;stroke-dashoffset:0.0;stroke-linecap:butt;stroke-width:0.5;"/>
     </g>
     <g id="line2d_23">
      <g>
       <use style="stroke:#000000;stroke-linecap:butt;stroke-width:0.5;" x="339.84" xlink:href="#m0012dd4eef" y="388.8"/>
      </g>
     </g>
     <g id="line2d_24">
      <g>
       <use style="stroke:#000000;stroke-linecap:butt;stroke-width:0.5;" x="339.84" xlink:href="#m476344969c" y="43.2"/>
      </g>
     </g>
     <g id="text_7">
      <!-- 600 -->
      <defs>
       <path d="
M33.0156 40.375
Q26.375 40.375 22.4844 35.8281
Q18.6094 31.2969 18.6094 23.3906
Q18.6094 15.5312 22.4844 10.9531
Q26.375 6.39062 33.0156 6.39062
Q39.6562 6.39062 43.5312 10.9531
Q47.4062 15.5312 47.4062 23.3906
Q47.4062 31.2969 43.5312 35.8281
Q39.6562 40.375 33.0156 40.375
M52.5938 71.2969
L52.5938 62.3125
Q48.875 64.0625 45.0938 64.9844
Q41.3125 65.9219 37.5938 65.9219
Q27.8281 65.9219 22.6719 59.3281
Q17.5312 52.7344 16.7969 39.4062
Q19.6719 43.6562 24.0156 45.9219
Q28.375 48.1875 33.5938 48.1875
Q44.5781 48.1875 50.9531 41.5156
Q57.3281 34.8594 57.3281 23.3906
Q57.3281 12.1562 50.6875 5.35938
Q44.0469 -1.42188 33.0156 -1.42188
Q20.3594 -1.42188 13.6719 8.26562
Q6.98438 17.9688 6.98438 36.375
Q6.98438 53.6562 15.1875 63.9375
Q23.3906 74.2188 37.2031 74.2188
Q40.9219 74.2188 44.7031 73.4844
Q48.4844 72.75 52.5938 71.2969" id="BitstreamVeraSans-Roman-36"/>
      </defs>
      <g transform="translate(329.205 401.70625)scale(0.12 -0.12)">
       <use xlink:href="#BitstreamVeraSans-Roman-36"/>
       <use x="63.623046875" xlink:href="#BitstreamVeraSans-Roman-30"/>
       <use x="127.24609375" xlink:href="#BitstreamVeraSans-Roman-30"/>
      </g>
     </g>
    </g>
    <g id="xtick_8">
     <g id="line2d_25">
      <path clip-path="url(#p7ff5b81e1d)" d="
M384.48 388.8
L384.48 43.2" style="fill:none;stroke:#000000;stroke-dasharray:1.000000,3.000000;stroke-dashoffset:0.0;stroke-linecap:butt;stroke-width:0.5;"/>
     </g>
     <g id="line2d_26">
      <g>
       <use style="stroke:#000000;stroke-linecap:butt;stroke-width:0.5;" x="384.48" xlink:href="#m0012dd4eef" y="388.8"/>
      </g>
     </g>
     <g id="line2d_27">
      <g>
       <use style="stroke:#000000;stroke-linecap:butt;stroke-width:0.5;" x="384.48" xlink:href="#m476344969c" y="43.2"/>
      </g>
     </g>
     <g id="text_8">
      <!-- 700 -->
      <defs>
       <path d="
M8.20312 72.9062
L55.0781 72.9062
L55.0781 68.7031
L28.6094 0
L18.3125 0
L43.2188 64.5938
L8.20312 64.5938
z
" id="BitstreamVeraSans-Roman-37"/>
      </defs>
      <g transform="translate(373.918125 401.70625)scale(0.12 -0.12)">
       <use xlink:href="#BitstreamVeraSans-Roman-37"/>
       <use x="63.623046875" xlink:href="#BitstreamVeraSans-Roman-30"/>
       <use x="127.24609375" xlink:href="#BitstreamVeraSans-Roman-30"/>
      </g>
     </g>
    </g>
    <g id="xtick_9">
     <g id="line2d_28">
      <path clip-path="url(#p7ff5b81e1d)" d="
M429.12 388.8
L429.12 43.2" style="fill:none;stroke:#000000;stroke-dasharray:1.000000,3.000000;stroke-dashoffset:0.0;stroke-linecap:butt;stroke-width:0.5;"/>
     </g>
     <g id="line2d_29">
      <g>
       <use style="stroke:#000000;stroke-linecap:butt;stroke-width:0.5;" x="429.12" xlink:href="#m0012dd4eef" y="388.8"/>
      </g>
     </g>
     <g id="line2d_30">
      <g>
       <use style="stroke:#000000;stroke-linecap:butt;stroke-width:0.5;" x="429.12" xlink:href="#m476344969c" y="43.2"/>
      </g>
     </g>
     <g id="text_9">
      <!-- 800 -->
      <defs>
       <path d="
M31.7812 34.625
Q24.75 34.625 20.7188 30.8594
Q16.7031 27.0938 16.7031 20.5156
Q16.7031 13.9219 20.7188 10.1562
Q24.75 6.39062 31.7812 6.39062
Q38.8125 6.39062 42.8594 10.1719
Q46.9219 13.9688 46.9219 20.5156
Q46.9219 27.0938 42.8906 30.8594
Q38.875 34.625 31.7812 34.625
M21.9219 38.8125
Q15.5781 40.375 12.0312 44.7188
Q8.5 49.0781 8.5 55.3281
Q8.5 64.0625 14.7188 69.1406
Q20.9531 74.2188 31.7812 74.2188
Q42.6719 74.2188 48.875 69.1406
Q55.0781 64.0625 55.0781 55.3281
Q55.0781 49.0781 51.5312 44.7188
Q48 40.375 41.7031 38.8125
Q48.8281 37.1562 52.7969 32.3125
Q56.7812 27.4844 56.7812 20.5156
Q56.7812 9.90625 50.3125 4.23438
Q43.8438 -1.42188 31.7812 -1.42188
Q19.7344 -1.42188 13.25 4.23438
Q6.78125 9.90625 6.78125 20.5156
Q6.78125 27.4844 10.7812 32.3125
Q14.7969 37.1562 21.9219 38.8125
M18.3125 54.3906
Q18.3125 48.7344 21.8438 45.5625
Q25.3906 42.3906 31.7812 42.3906
Q38.1406 42.3906 41.7188 45.5625
Q45.3125 48.7344 45.3125 54.3906
Q45.3125 60.0625 41.7188 63.2344
Q38.1406 66.4062 31.7812 66.4062
Q25.3906 66.4062 21.8438 63.2344
Q18.3125 60.0625 18.3125 54.3906" id="BitstreamVeraSans-Roman-38"/>
      </defs>
      <g transform="translate(418.4728125 401.70625)scale(0.12 -0.12)">
       <use xlink:href="#BitstreamVeraSans-Roman-38"/>
       <use x="63.623046875" xlink:href="#BitstreamVeraSans-Roman-30"/>
       <use x="127.24609375" xlink:href="#BitstreamVeraSans-Roman-30"/>
      </g>
     </g>
    </g>
    <g id="xtick_10">
     <g id="line2d_31">
      <path clip-path="url(#p7ff5b81e1d)" d="
M473.76 388.8
L473.76 43.2" style="fill:none;stroke:#000000;stroke-dasharray:1.000000,3.000000;stroke-dashoffset:0.0;stroke-linecap:butt;stroke-width:0.5;"/>
     </g>
     <g id="line2d_32">
      <g>
       <use style="stroke:#000000;stroke-linecap:butt;stroke-width:0.5;" x="473.76" xlink:href="#m0012dd4eef" y="388.8"/>
      </g>
     </g>
     <g id="line2d_33">
      <g>
       <use style="stroke:#000000;stroke-linecap:butt;stroke-width:0.5;" x="473.76" xlink:href="#m476344969c" y="43.2"/>
      </g>
     </g>
     <g id="text_10">
      <!-- 900 -->
      <defs>
       <path d="
M10.9844 1.51562
L10.9844 10.5
Q14.7031 8.73438 18.5 7.8125
Q22.3125 6.89062 25.9844 6.89062
Q35.75 6.89062 40.8906 13.4531
Q46.0469 20.0156 46.7812 33.4062
Q43.9531 29.2031 39.5938 26.9531
Q35.25 24.7031 29.9844 24.7031
Q19.0469 24.7031 12.6719 31.3125
Q6.29688 37.9375 6.29688 49.4219
Q6.29688 60.6406 12.9375 67.4219
Q19.5781 74.2188 30.6094 74.2188
Q43.2656 74.2188 49.9219 64.5156
Q56.5938 54.8281 56.5938 36.375
Q56.5938 19.1406 48.4062 8.85938
Q40.2344 -1.42188 26.4219 -1.42188
Q22.7031 -1.42188 18.8906 -0.6875
Q15.0938 0.046875 10.9844 1.51562
M30.6094 32.4219
Q37.25 32.4219 41.125 36.9531
Q45.0156 41.5 45.0156 49.4219
Q45.0156 57.2812 41.125 61.8438
Q37.25 66.4062 30.6094 66.4062
Q23.9688 66.4062 20.0938 61.8438
Q16.2188 57.2812 16.2188 49.4219
Q16.2188 41.5 20.0938 36.9531
Q23.9688 32.4219 30.6094 32.4219" id="BitstreamVeraSans-Roman-39"/>
      </defs>
      <g transform="translate(463.08375 401.70625)scale(0.12 -0.12)">
       <use xlink:href="#BitstreamVeraSans-Roman-39"/>
       <use x="63.623046875" xlink:href="#BitstreamVeraSans-Roman-30"/>
       <use x="127.24609375" xlink:href="#BitstreamVeraSans-Roman-30"/>
      </g>
     </g>
    </g>
   </g>
   <g id="matplotlib.axis_2">
    <g id="ytick_1">
     <g id="line2d_34">
      <path clip-path="url(#p7ff5b81e1d)" d="
M72 388.8
L518.4 388.8" style="fill:none;stroke:#000000;stroke-dasharray:1.000000,3.000000;stroke-dashoffset:0.0;stroke-linecap:butt;stroke-width:0.5;"/>
     </g>
     <g id="line2d_35">
      <defs>
       <path d="
M0 0
L4 0" id="me8a85f7bf6" style="stroke:#000000;stroke-linecap:butt;stroke-width:0.5;"/>
      </defs>
      <g>
       <use style="stroke:#000000;stroke-linecap:butt;stroke-width:0.5;" x="72.0" xlink:href="#me8a85f7bf6" y="388.8"/>
      </g>
     </g>
     <g id="line2d_36">
      <defs>
       <path d="
M0 0
L-4 0" id="m1a32005dea" style="stroke:#000000;stroke-linecap:butt;stroke-width:0.5;"/>
      </defs>
      <g>
       <use style="stroke:#000000;stroke-linecap:butt;stroke-width:0.5;" x="518.4" xlink:href="#m1a32005dea" y="388.8"/>
      </g>
     </g>
     <g id="text_11">
      <!-- 0.00 -->
      <defs>
       <path d="
M10.6875 12.4062
L21 12.4062
L21 0
L10.6875 0
z
" id="BitstreamVeraSans-Roman-2e"/>
      </defs>
      <g transform="translate(42.869375 393.1678125)scale(0.12 -0.12)">
       <use xlink:href="#BitstreamVeraSans-Roman-30"/>
       <use x="63.623046875" xlink:href="#BitstreamVeraSans-Roman-2e"/>
       <use x="95.41015625" xlink:href="#BitstreamVeraSans-Roman-30"/>
       <use x="159.033203125" xlink:href="#BitstreamVeraSans-Roman-30"/>
      </g>
     </g>
    </g>
    <g id="ytick_2">
     <g id="line2d_37">
      <path clip-path="url(#p7ff5b81e1d)" d="
M72 354.24
L518.4 354.24" style="fill:none;stroke:#000000;stroke-dasharray:1.000000,3.000000;stroke-dashoffset:0.0;stroke-linecap:butt;stroke-width:0.5;"/>
     </g>
     <g id="line2d_38">
      <g>
       <use style="stroke:#000000;stroke-linecap:butt;stroke-width:0.5;" x="72.0" xlink:href="#me8a85f7bf6" y="354.24"/>
      </g>
     </g>
     <g id="line2d_39">
      <g>
       <use style="stroke:#000000;stroke-linecap:butt;stroke-width:0.5;" x="518.4" xlink:href="#m1a32005dea" y="354.24"/>
      </g>
     </g>
     <g id="text_12">
      <!-- 0.02 -->
      <g transform="translate(43.274375 358.6078125)scale(0.12 -0.12)">
       <use xlink:href="#BitstreamVeraSans-Roman-30"/>
       <use x="63.623046875" xlink:href="#BitstreamVeraSans-Roman-2e"/>
       <use x="95.41015625" xlink:href="#BitstreamVeraSans-Roman-30"/>
       <use x="159.033203125" xlink:href="#BitstreamVeraSans-Roman-32"/>
      </g>
     </g>
    </g>
    <g id="ytick_3">
     <g id="line2d_40">
      <path clip-path="url(#p7ff5b81e1d)" d="
M72 319.68
L518.4 319.68" style="fill:none;stroke:#000000;stroke-dasharray:1.000000,3.000000;stroke-dashoffset:0.0;stroke-linecap:butt;stroke-width:0.5;"/>
     </g>
     <g id="line2d_41">
      <g>
       <use style="stroke:#000000;stroke-linecap:butt;stroke-width:0.5;" x="72.0" xlink:href="#me8a85f7bf6" y="319.68"/>
      </g>
     </g>
     <g id="line2d_42">
      <g>
       <use style="stroke:#000000;stroke-linecap:butt;stroke-width:0.5;" x="518.4" xlink:href="#m1a32005dea" y="319.68"/>
      </g>
     </g>
     <g id="text_13">
      <!-- 0.04 -->
      <g transform="translate(42.745625 324.0478125)scale(0.12 -0.12)">
       <use xlink:href="#BitstreamVeraSans-Roman-30"/>
       <use x="63.623046875" xlink:href="#BitstreamVeraSans-Roman-2e"/>
       <use x="95.41015625" xlink:href="#BitstreamVeraSans-Roman-30"/>
       <use x="159.033203125" xlink:href="#BitstreamVeraSans-Roman-34"/>
      </g>
     </g>
    </g>
    <g id="ytick_4">
     <g id="line2d_43">
      <path clip-path="url(#p7ff5b81e1d)" d="
M72 285.12
L518.4 285.12" style="fill:none;stroke:#000000;stroke-dasharray:1.000000,3.000000;stroke-dashoffset:0.0;stroke-linecap:butt;stroke-width:0.5;"/>
     </g>
     <g id="line2d_44">
      <g>
       <use style="stroke:#000000;stroke-linecap:butt;stroke-width:0.5;" x="72.0" xlink:href="#me8a85f7bf6" y="285.12"/>
      </g>
     </g>
     <g id="line2d_45">
      <g>
       <use style="stroke:#000000;stroke-linecap:butt;stroke-width:0.5;" x="518.4" xlink:href="#m1a32005dea" y="285.12"/>
      </g>
     </g>
     <g id="text_14">
      <!-- 0.06 -->
      <g transform="translate(42.828125 289.4878125)scale(0.12 -0.12)">
       <use xlink:href="#BitstreamVeraSans-Roman-30"/>
       <use x="63.623046875" xlink:href="#BitstreamVeraSans-Roman-2e"/>
       <use x="95.41015625" xlink:href="#BitstreamVeraSans-Roman-30"/>
       <use x="159.033203125" xlink:href="#BitstreamVeraSans-Roman-36"/>
      </g>
     </g>
    </g>
    <g id="ytick_5">
     <g id="line2d_46">
      <path clip-path="url(#p7ff5b81e1d)" d="
M72 250.56
L518.4 250.56" style="fill:none;stroke:#000000;stroke-dasharray:1.000000,3.000000;stroke-dashoffset:0.0;stroke-linecap:butt;stroke-width:0.5;"/>
     </g>
     <g id="line2d_47">
      <g>
       <use style="stroke:#000000;stroke-linecap:butt;stroke-width:0.5;" x="72.0" xlink:href="#me8a85f7bf6" y="250.56"/>
      </g>
     </g>
     <g id="line2d_48">
      <g>
       <use style="stroke:#000000;stroke-linecap:butt;stroke-width:0.5;" x="518.4" xlink:href="#m1a32005dea" y="250.56"/>
      </g>
     </g>
     <g id="text_15">
      <!-- 0.08 -->
      <g transform="translate(42.89375 254.9278125)scale(0.12 -0.12)">
       <use xlink:href="#BitstreamVeraSans-Roman-30"/>
       <use x="63.623046875" xlink:href="#BitstreamVeraSans-Roman-2e"/>
       <use x="95.41015625" xlink:href="#BitstreamVeraSans-Roman-30"/>
       <use x="159.033203125" xlink:href="#BitstreamVeraSans-Roman-38"/>
      </g>
     </g>
    </g>
    <g id="ytick_6">
     <g id="line2d_49">
      <path clip-path="url(#p7ff5b81e1d)" d="
M72 216
L518.4 216" style="fill:none;stroke:#000000;stroke-dasharray:1.000000,3.000000;stroke-dashoffset:0.0;stroke-linecap:butt;stroke-width:0.5;"/>
     </g>
     <g id="line2d_50">
      <g>
       <use style="stroke:#000000;stroke-linecap:butt;stroke-width:0.5;" x="72.0" xlink:href="#me8a85f7bf6" y="216.0"/>
      </g>
     </g>
     <g id="line2d_51">
      <g>
       <use style="stroke:#000000;stroke-linecap:butt;stroke-width:0.5;" x="518.4" xlink:href="#m1a32005dea" y="216.0"/>
      </g>
     </g>
     <g id="text_16">
      <!-- 0.10 -->
      <g transform="translate(42.869375 220.3678125)scale(0.12 -0.12)">
       <use xlink:href="#BitstreamVeraSans-Roman-30"/>
       <use x="63.623046875" xlink:href="#BitstreamVeraSans-Roman-2e"/>
       <use x="95.41015625" xlink:href="#BitstreamVeraSans-Roman-31"/>
       <use x="159.033203125" xlink:href="#BitstreamVeraSans-Roman-30"/>
      </g>
     </g>
    </g>
    <g id="ytick_7">
     <g id="line2d_52">
      <path clip-path="url(#p7ff5b81e1d)" d="
M72 181.44
L518.4 181.44" style="fill:none;stroke:#000000;stroke-dasharray:1.000000,3.000000;stroke-dashoffset:0.0;stroke-linecap:butt;stroke-width:0.5;"/>
     </g>
     <g id="line2d_53">
      <g>
       <use style="stroke:#000000;stroke-linecap:butt;stroke-width:0.5;" x="72.0" xlink:href="#me8a85f7bf6" y="181.44"/>
      </g>
     </g>
     <g id="line2d_54">
      <g>
       <use style="stroke:#000000;stroke-linecap:butt;stroke-width:0.5;" x="518.4" xlink:href="#m1a32005dea" y="181.44"/>
      </g>
     </g>
     <g id="text_17">
      <!-- 0.12 -->
      <g transform="translate(43.274375 185.8078125)scale(0.12 -0.12)">
       <use xlink:href="#BitstreamVeraSans-Roman-30"/>
       <use x="63.623046875" xlink:href="#BitstreamVeraSans-Roman-2e"/>
       <use x="95.41015625" xlink:href="#BitstreamVeraSans-Roman-31"/>
       <use x="159.033203125" xlink:href="#BitstreamVeraSans-Roman-32"/>
      </g>
     </g>
    </g>
    <g id="ytick_8">
     <g id="line2d_55">
      <path clip-path="url(#p7ff5b81e1d)" d="
M72 146.88
L518.4 146.88" style="fill:none;stroke:#000000;stroke-dasharray:1.000000,3.000000;stroke-dashoffset:0.0;stroke-linecap:butt;stroke-width:0.5;"/>
     </g>
     <g id="line2d_56">
      <g>
       <use style="stroke:#000000;stroke-linecap:butt;stroke-width:0.5;" x="72.0" xlink:href="#me8a85f7bf6" y="146.88"/>
      </g>
     </g>
     <g id="line2d_57">
      <g>
       <use style="stroke:#000000;stroke-linecap:butt;stroke-width:0.5;" x="518.4" xlink:href="#m1a32005dea" y="146.88"/>
      </g>
     </g>
     <g id="text_18">
      <!-- 0.14 -->
      <g transform="translate(42.745625 151.2478125)scale(0.12 -0.12)">
       <use xlink:href="#BitstreamVeraSans-Roman-30"/>
       <use x="63.623046875" xlink:href="#BitstreamVeraSans-Roman-2e"/>
       <use x="95.41015625" xlink:href="#BitstreamVeraSans-Roman-31"/>
       <use x="159.033203125" xlink:href="#BitstreamVeraSans-Roman-34"/>
      </g>
     </g>
    </g>
    <g id="ytick_9">
     <g id="line2d_58">
      <path clip-path="url(#p7ff5b81e1d)" d="
M72 112.32
L518.4 112.32" style="fill:none;stroke:#000000;stroke-dasharray:1.000000,3.000000;stroke-dashoffset:0.0;stroke-linecap:butt;stroke-width:0.5;"/>
     </g>
     <g id="line2d_59">
      <g>
       <use style="stroke:#000000;stroke-linecap:butt;stroke-width:0.5;" x="72.0" xlink:href="#me8a85f7bf6" y="112.32"/>
      </g>
     </g>
     <g id="line2d_60">
      <g>
       <use style="stroke:#000000;stroke-linecap:butt;stroke-width:0.5;" x="518.4" xlink:href="#m1a32005dea" y="112.32"/>
      </g>
     </g>
     <g id="text_19">
      <!-- 0.16 -->
      <g transform="translate(42.828125 116.6878125)scale(0.12 -0.12)">
       <use xlink:href="#BitstreamVeraSans-Roman-30"/>
       <use x="63.623046875" xlink:href="#BitstreamVeraSans-Roman-2e"/>
       <use x="95.41015625" xlink:href="#BitstreamVeraSans-Roman-31"/>
       <use x="159.033203125" xlink:href="#BitstreamVeraSans-Roman-36"/>
      </g>
     </g>
    </g>
    <g id="ytick_10">
     <g id="line2d_61">
      <path clip-path="url(#p7ff5b81e1d)" d="
M72 77.76
L518.4 77.76" style="fill:none;stroke:#000000;stroke-dasharray:1.000000,3.000000;stroke-dashoffset:0.0;stroke-linecap:butt;stroke-width:0.5;"/>
     </g>
     <g id="line2d_62">
      <g>
       <use style="stroke:#000000;stroke-linecap:butt;stroke-width:0.5;" x="72.0" xlink:href="#me8a85f7bf6" y="77.76"/>
      </g>
     </g>
     <g id="line2d_63">
      <g>
       <use style="stroke:#000000;stroke-linecap:butt;stroke-width:0.5;" x="518.4" xlink:href="#m1a32005dea" y="77.76"/>
      </g>
     </g>
     <g id="text_20">
      <!-- 0.18 -->
      <g transform="translate(42.89375 82.1278125)scale(0.12 -0.12)">
       <use xlink:href="#BitstreamVeraSans-Roman-30"/>
       <use x="63.623046875" xlink:href="#BitstreamVeraSans-Roman-2e"/>
       <use x="95.41015625" xlink:href="#BitstreamVeraSans-Roman-31"/>
       <use x="159.033203125" xlink:href="#BitstreamVeraSans-Roman-38"/>
      </g>
     </g>
    </g>
    <g id="text_21">
     <!-- Sec/file -->
     <defs>
      <path d="
M9.42188 75.9844
L18.4062 75.9844
L18.4062 0
L9.42188 0
z
" id="BitstreamVeraSans-Roman-6c"/>
      <path d="
M53.5156 70.5156
L53.5156 60.8906
Q47.9062 63.5781 42.9219 64.8906
Q37.9375 66.2188 33.2969 66.2188
Q25.25 66.2188 20.875 63.0938
Q16.5 59.9688 16.5 54.2031
Q16.5 49.3594 19.4062 46.8906
Q22.3125 44.4375 30.4219 42.9219
L36.375 41.7031
Q47.4062 39.5938 52.6562 34.2969
Q57.9062 29 57.9062 20.125
Q57.9062 9.51562 50.7969 4.04688
Q43.7031 -1.42188 29.9844 -1.42188
Q24.8125 -1.42188 18.9688 -0.25
Q13.1406 0.921875 6.89062 3.21875
L6.89062 13.375
Q12.8906 10.0156 18.6562 8.29688
Q24.4219 6.59375 29.9844 6.59375
Q38.4219 6.59375 43.0156 9.90625
Q47.6094 13.2344 47.6094 19.3906
Q47.6094 24.75 44.3125 27.7812
Q41.0156 30.8125 33.5 32.3281
L27.4844 33.5
Q16.4531 35.6875 11.5156 40.375
Q6.59375 45.0625 6.59375 53.4219
Q6.59375 63.0938 13.4062 68.6562
Q20.2188 74.2188 32.1719 74.2188
Q37.3125 74.2188 42.625 73.2812
Q47.9531 72.3594 53.5156 70.5156" id="BitstreamVeraSans-Roman-53"/>
      <path d="
M9.42188 54.6875
L18.4062 54.6875
L18.4062 0
L9.42188 0
z

M9.42188 75.9844
L18.4062 75.9844
L18.4062 64.5938
L9.42188 64.5938
z
" id="BitstreamVeraSans-Roman-69"/>
      <path d="
M25.3906 72.9062
L33.6875 72.9062
L8.29688 -9.28125
L0 -9.28125
z
" id="BitstreamVeraSans-Roman-2f"/>
      <path d="
M56.2031 29.5938
L56.2031 25.2031
L14.8906 25.2031
Q15.4844 15.9219 20.4844 11.0625
Q25.4844 6.20312 34.4219 6.20312
Q39.5938 6.20312 44.4531 7.46875
Q49.3125 8.73438 54.1094 11.2812
L54.1094 2.78125
Q49.2656 0.734375 44.1875 -0.34375
Q39.1094 -1.42188 33.8906 -1.42188
Q20.7969 -1.42188 13.1562 6.1875
Q5.51562 13.8125 5.51562 26.8125
Q5.51562 40.2344 12.7656 48.1094
Q20.0156 56 32.3281 56
Q43.3594 56 49.7812 48.8906
Q56.2031 41.7969 56.2031 29.5938
M47.2188 32.2344
Q47.125 39.5938 43.0938 43.9844
Q39.0625 48.3906 32.4219 48.3906
Q24.9062 48.3906 20.3906 44.1406
Q15.875 39.8906 15.1875 32.1719
z
" id="BitstreamVeraSans-Roman-65"/>
      <path d="
M37.1094 75.9844
L37.1094 68.5
L28.5156 68.5
Q23.6875 68.5 21.7969 66.5469
Q19.9219 64.5938 19.9219 59.5156
L19.9219 54.6875
L34.7188 54.6875
L34.7188 47.7031
L19.9219 47.7031
L19.9219 0
L10.8906 0
L10.8906 47.7031
L2.29688 47.7031
L2.29688 54.6875
L10.8906 54.6875
L10.8906 58.5
Q10.8906 67.625 15.1406 71.7969
Q19.3906 75.9844 28.6094 75.9844
z
" id="BitstreamVeraSans-Roman-66"/>
      <path d="
M48.7812 52.5938
L48.7812 44.1875
Q44.9688 46.2969 41.1406 47.3438
Q37.3125 48.3906 33.4062 48.3906
Q24.6562 48.3906 19.8125 42.8438
Q14.9844 37.3125 14.9844 27.2969
Q14.9844 17.2812 19.8125 11.7344
Q24.6562 6.20312 33.4062 6.20312
Q37.3125 6.20312 41.1406 7.25
Q44.9688 8.29688 48.7812 10.4062
L48.7812 2.09375
Q45.0156 0.34375 40.9844 -0.53125
Q36.9688 -1.42188 32.4219 -1.42188
Q20.0625 -1.42188 12.7812 6.34375
Q5.51562 14.1094 5.51562 27.2969
Q5.51562 40.6719 12.8594 48.3281
Q20.2188 56 33.0156 56
Q37.1562 56 41.1094 55.1406
Q45.0625 54.2969 48.7812 52.5938" id="BitstreamVeraSans-Roman-63"/>
     </defs>
     <g transform="translate(37.745625 236.13)rotate(-90.0)scale(0.12 -0.12)">
      <use xlink:href="#BitstreamVeraSans-Roman-53"/>
      <use x="63.4765625" xlink:href="#BitstreamVeraSans-Roman-65"/>
      <use x="125.0" xlink:href="#BitstreamVeraSans-Roman-63"/>
      <use x="179.98046875" xlink:href="#BitstreamVeraSans-Roman-2f"/>
      <use x="213.671875" xlink:href="#BitstreamVeraSans-Roman-66"/>
      <use x="248.876953125" xlink:href="#BitstreamVeraSans-Roman-69"/>
      <use x="276.66015625" xlink:href="#BitstreamVeraSans-Roman-6c"/>
      <use x="304.443359375" xlink:href="#BitstreamVeraSans-Roman-65"/>
     </g>
    </g>
   </g>
   <g id="patch_3">
    <path d="
M72 43.2
L518.4 43.2" style="fill:none;stroke:#000000;"/>
   </g>
   <g id="patch_4">
    <path d="
M518.4 388.8
L518.4 43.2" style="fill:none;stroke:#000000;"/>
   </g>
   <g id="patch_5">
    <path d="
M72 388.8
L518.4 388.8" style="fill:none;stroke:#000000;"/>
   </g>
   <g id="patch_6">
    <path d="
M72 388.8
L72 43.2" style="fill:none;stroke:#000000;"/>
   </g>
   <g id="legend_1">
    <g id="patch_7">
     <path d="
M429.055 115.339
L511.2 115.339
L511.2 50.4
L429.055 50.4
L429.055 115.339
z
" style="fill:#ffffff;stroke:#000000;"/>
    </g>
    <g id="line2d_64">
     <path d="
M439.135 62.0617
L459.295 62.0617" style="fill:none;stroke:#ff0000;"/>
    </g>
    <g id="line2d_65"/>
    <g id="text_22">
     <!-- LRU -->
     <defs>
      <path d="
M44.3906 34.1875
Q47.5625 33.1094 50.5625 29.5938
Q53.5625 26.0781 56.5938 19.9219
L66.6094 0
L56 0
L46.6875 18.7031
Q43.0625 26.0312 39.6719 28.4219
Q36.2812 30.8125 30.4219 30.8125
L19.6719 30.8125
L19.6719 0
L9.8125 0
L9.8125 72.9062
L32.0781 72.9062
Q44.5781 72.9062 50.7344 67.6719
Q56.8906 62.4531 56.8906 51.9062
Q56.8906 45.0156 53.6875 40.4688
Q50.4844 35.9375 44.3906 34.1875
M19.6719 64.7969
L19.6719 38.9219
L32.0781 38.9219
Q39.2031 38.9219 42.8438 42.2188
Q46.4844 45.5156 46.4844 51.9062
Q46.4844 58.2969 42.8438 61.5469
Q39.2031 64.7969 32.0781 64.7969
z
" id="BitstreamVeraSans-Roman-52"/>
      <path d="
M9.8125 72.9062
L19.6719 72.9062
L19.6719 8.29688
L55.1719 8.29688
L55.1719 0
L9.8125 0
z
" id="BitstreamVeraSans-Roman-4c"/>
      <path d="
M8.6875 72.9062
L18.6094 72.9062
L18.6094 28.6094
Q18.6094 16.8906 22.8438 11.7344
Q27.0938 6.59375 36.625 6.59375
Q46.0938 6.59375 50.3438 11.7344
Q54.5938 16.8906 54.5938 28.6094
L54.5938 72.9062
L64.5 72.9062
L64.5 27.3906
Q64.5 13.1406 57.4375 5.85938
Q50.3906 -1.42188 36.625 -1.42188
Q22.7969 -1.42188 15.7344 5.85938
Q8.6875 13.1406 8.6875 27.3906
z
" id="BitstreamVeraSans-Roman-55"/>
     </defs>
     <g transform="translate(475.13475 67.10175)scale(0.144 -0.144)">
      <use xlink:href="#BitstreamVeraSans-Roman-4c"/>
      <use x="55.712890625" xlink:href="#BitstreamVeraSans-Roman-52"/>
      <use x="125.1953125" xlink:href="#BitstreamVeraSans-Roman-55"/>
     </g>
    </g>
    <g id="line2d_66">
     <path d="
M439.135 83.1983
L459.295 83.1983" style="fill:none;opacity:0.7;stroke:#008000;"/>
    </g>
    <g id="line2d_67"/>
    <g id="text_23">
     <!-- MRU -->
     <defs>
      <path d="
M9.8125 72.9062
L24.5156 72.9062
L43.1094 23.2969
L61.8125 72.9062
L76.5156 72.9062
L76.5156 0
L66.8906 0
L66.8906 64.0156
L48.0938 14.0156
L38.1875 14.0156
L19.3906 64.0156
L19.3906 0
L9.8125 0
z
" id="BitstreamVeraSans-Roman-4d"/>
     </defs>
     <g transform="translate(475.13475 88.23825)scale(0.144 -0.144)">
      <use xlink:href="#BitstreamVeraSans-Roman-4d"/>
      <use x="86.279296875" xlink:href="#BitstreamVeraSans-Roman-52"/>
      <use x="155.76171875" xlink:href="#BitstreamVeraSans-Roman-55"/>
     </g>
    </g>
    <g id="line2d_68">
     <path d="
M439.135 104.335
L459.295 104.335" style="fill:none;opacity:0.5;stroke:#0000ff;"/>
    </g>
    <g id="line2d_69"/>
    <g id="text_24">
     <!-- FIFO -->
     <defs>
      <path d="
M9.8125 72.9062
L51.7031 72.9062
L51.7031 64.5938
L19.6719 64.5938
L19.6719 43.1094
L48.5781 43.1094
L48.5781 34.8125
L19.6719 34.8125
L19.6719 0
L9.8125 0
z
" id="BitstreamVeraSans-Roman-46"/>
      <path d="
M9.8125 72.9062
L19.6719 72.9062
L19.6719 0
L9.8125 0
z
" id="BitstreamVeraSans-Roman-49"/>
      <path d="
M39.4062 66.2188
Q28.6562 66.2188 22.3281 58.2031
Q16.0156 50.2031 16.0156 36.375
Q16.0156 22.6094 22.3281 14.5938
Q28.6562 6.59375 39.4062 6.59375
Q50.1406 6.59375 56.4219 14.5938
Q62.7031 22.6094 62.7031 36.375
Q62.7031 50.2031 56.4219 58.2031
Q50.1406 66.2188 39.4062 66.2188
M39.4062 74.2188
Q54.7344 74.2188 63.9062 63.9375
Q73.0938 53.6562 73.0938 36.375
Q73.0938 19.1406 63.9062 8.85938
Q54.7344 -1.42188 39.4062 -1.42188
Q24.0312 -1.42188 14.8125 8.82812
Q5.60938 19.0938 5.60938 36.375
Q5.60938 53.6562 14.8125 63.9375
Q24.0312 74.2188 39.4062 74.2188" id="BitstreamVeraSans-Roman-4f"/>
     </defs>
     <g transform="translate(475.13475 109.37475)scale(0.144 -0.144)">
      <use xlink:href="#BitstreamVeraSans-Roman-46"/>
      <use x="57.51953125" xlink:href="#BitstreamVeraSans-Roman-49"/>
      <use x="87.01171875" xlink:href="#BitstreamVeraSans-Roman-46"/>
      <use x="144.53125" xlink:href="#BitstreamVeraSans-Roman-4f"/>
     </g>
    </g>
   </g>
  </g>
 </g>
 <defs>
  <clipPath id="p7ff5b81e1d">
   <rect height="345.6" width="446.4" x="72.0" y="43.2"/>
  </clipPath>
 </defs>
</svg>
