<?xml version="1.0" encoding="utf-8" standalone="no"?>
<!DOCTYPE svg PUBLIC "-//W3C//DTD SVG 1.1//EN"
  "http://www.w3.org/Graphics/SVG/1.1/DTD/svg11.dtd">
<!-- Created with matplotlib (http://matplotlib.sourceforge.net/) -->
<svg height="432pt" version="1.1" viewBox="0 0 576 432" width="576pt" xmlns="http://www.w3.org/2000/svg" xmlns:xlink="http://www.w3.org/1999/xlink">
 <defs>
  <style type="text/css">
*{stroke-linecap:square;stroke-linejoin:round;}
  </style>
 </defs>
 <g id="figure_1">
  <g id="patch_1">
   <path d="
M0 432
L576 432
L576 0
L0 0
z
" style="fill:#ffffff;"/>
  </g>
  <g id="axes_1">
   <g id="patch_2">
    <path d="
M72 388.8
L518.4 388.8
L518.4 43.2
L72 43.2
z
" style="fill:#ffffff;"/>
   </g>
   <g id="line2d_1">
    <path clip-path="url(#p7ff5b81e1d)" d="
M72 244.4
L72.4464 143.296
L72.8928 304.398
L73.3392 304.615
L73.7856 300.92
L74.232 305.154
L74.6784 305.167
L75.1248 304.857
L75.5712 304.852
L76.0176 329.241
L76.464 305.047
L76.9104 329.072
L77.3568 329.619
L77.8032 328.527
L78.2496 304.873
L79.1424 304.539
L79.5888 328.647
L80.0352 304.673
L80.4816 329.036
L80.928 329.785
L81.3744 301.469
L81.8208 305.279
L82.2672 329.225
L82.7136 330.057
L83.16 310.124
L83.6064 328.45
L84.0528 327.7
L84.4992 303.876
L84.9456 329.361
L85.392 304.067
L85.8384 329.637
L86.2848 286.495
L86.7312 329.687
L87.1776 304.223
L87.624 329.045
L88.0704 329.053
L88.5168 321.785
L88.9632 329.044
L89.4096 329.306
L89.856 303.728
L90.3024 323.106
L90.7488 328.942
L91.1952 329.551
L91.6416 326.765
L92.088 329.221
L92.5344 328.495
L92.9808 329.882
L93.4272 329.084
L93.8736 328.955
L94.32 310.919
L94.7664 224.19
L95.2128 159.543
L95.6592 328.495
L96.1056 328.588
L96.552 328.071
L97.4448 329.011
L97.8912 327.442
L98.3376 312.523
L98.784 303.11
L99.2304 329.401
L99.6768 319.99
L100.123 329.274
L100.57 298.297
L101.016 329.673
L101.462 329.105
L101.909 286.478
L102.355 328.075
L102.802 309.985
L103.248 329.656
L103.694 329.565
L104.141 324.887
L104.587 329.092
L105.034 329.345
L105.48 330.418
L105.926 329.884
L106.373 317.238
L106.819 327.325
L107.266 328.87
L107.712 325.193
L108.158 328.993
L108.605 329.486
L109.051 326.684
L109.498 329.196
L109.944 322.301
L110.39 329.565
L110.837 321.864
L111.283 327.681
L111.73 314.928
L112.176 329.55
L112.622 329.427
L113.069 325.156
L113.515 327.533
L113.962 329.218
L114.408 323.704
L114.854 327.769
L115.301 314.118
L115.747 313.36
L116.194 302.718
L116.64 328.522
L117.086 329.053
L117.979 329.796
L118.426 318.609
L118.872 329.719
L119.318 329.428
L119.765 319.214
L120.211 329.585
L120.658 329.496
L121.104 325.257
L121.55 329.344
L121.997 330.328
L122.443 325.764
L122.89 329.759
L123.336 328.817
L123.782 325.821
L124.229 329.056
L124.675 329.7
L125.122 326.225
L125.568 328.994
L126.014 329.893
L126.461 324.981
L126.907 329.446
L127.354 312.484
L127.8 311.901
L128.246 321.955
L128.693 328.871
L129.139 329.016
L129.586 327.451
L130.032 297.89
L130.478 329.267
L130.925 329.877
L131.371 329.513
L131.818 311.606
L132.264 328.574
L132.71 322.284
L133.157 329.291
L133.603 329.69
L134.05 326.663
L134.496 327.874
L134.942 314.497
L135.389 312.307
L135.835 329.671
L136.282 329.893
L136.728 328.954
L137.174 316.885
L137.621 328.569
L138.067 328.737
L138.514 323.745
L138.96 329.598
L139.406 311.793
L139.853 328.872
L140.299 329.756
L140.746 319.993
L141.192 328.616
L141.638 328.564
L142.085 327.632
L142.531 329.11
L142.978 329.183
L143.424 328.188
L143.87 329.038
L144.317 321.8
L144.763 329.542
L145.21 329.499
L145.656 326.475
L146.102 328.854
L146.549 329.741
L146.995 326.366
L147.442 329.492
L147.888 312.945
L148.334 312.449
L148.781 328.402
L149.227 329.309
L149.674 328.793
L152.352 329.033
L152.798 329.388
L153.245 329.912
L153.691 328.839
L154.138 313.827
L154.584 328.3
L155.03 329.188
L155.477 320.723
L155.923 328.785
L156.37 328.97
L156.816 320.863
L157.262 328.873
L157.709 328.62
L158.155 329.521
L158.602 312.423
L159.048 330.181
L159.494 327.695
L159.941 328.694
L160.387 329.308
L160.834 316.889
L161.28 320.842
L161.726 321.086
L162.173 329.05
L162.619 321.604
L163.066 318.083
L163.512 329.398
L163.958 311.641
L164.405 320.682
L164.851 324.156
L165.298 328.976
L165.744 305.661
L166.19 321.455
L166.637 321.441
L167.083 329.782
L167.53 328.037
L167.976 313.291
L168.422 329.286
L168.869 312.678
L169.315 329.019
L169.762 305.831
L170.208 329.009
L170.654 329.003
L171.101 320.012
L171.547 329.502
L171.994 319.524
L172.44 329.154
L172.886 329.083
L173.333 328.199
L173.779 329.695
L174.226 320.578
L174.672 329.587
L175.118 329.837
L175.565 321.694
L176.011 328.601
L176.458 329.776
L176.904 329.052
L177.35 328.008
L177.797 329.784
L178.243 313.951
L179.136 329.426
L179.582 329.665
L180.029 328.781
L180.475 328.229
L180.922 314.281
L181.368 328.846
L181.814 328.995
L182.261 328.962
L183.154 314.264
L183.6 328.745
L184.046 328.989
L184.493 329.636
L184.939 328.878
L185.386 320.556
L185.832 328.922
L186.278 316.913
L186.725 329.056
L187.171 329.938
L187.618 319.975
L188.064 329.598
L188.51 320.043
L188.957 329.172
L189.403 328.182
L189.85 328.169
L190.296 329.421
L190.742 328.736
L191.189 326.29
L191.635 329.263
L192.082 329.011
L192.528 328.087
L192.974 329.072
L193.421 328.833
L193.867 310.732
L194.314 327.708
L194.76 329.656
L195.206 329.358
L195.653 328.761
L196.099 303.206
L196.546 328.944
L196.992 324.764
L197.438 328.45
L197.885 328.081
L198.331 320.496
L198.778 329.678
L199.224 329.04
L199.67 328.72
L200.117 329.916
L200.563 328.99
L201.01 327.777
L201.456 329.634
L201.902 329.37
L202.349 328.854
L202.795 329.651
L203.242 326.958
L204.134 329.805
L204.581 324.871
L205.027 329.287
L205.474 321.409
L205.92 329.675
L206.366 329.547
L206.813 328.779
L207.259 321.168
L207.706 329.541
L208.152 328.541
L208.598 328.699
L209.045 329.197
L209.491 329.218
L209.938 329.023
L210.384 329.514
L210.83 329.518
L211.277 297.451
L211.723 329.129
L212.17 320.421
L212.616 329.174
L213.062 321.286
L213.509 329.443
L213.955 329.348
L214.402 326.784
L214.848 329.359
L215.294 329.581
L215.741 326.884
L216.187 328.817
L216.634 329.408
L217.08 327.453
L217.526 329.592
L217.973 329.612
L218.419 327.401
L218.866 329.112
L219.312 329.283
L219.758 326.364
L220.205 329.276
L220.651 328.735
L221.098 328.96
L221.544 329.608
L221.99 328.886
L222.437 329.495
L222.883 329.559
L223.33 311.433
L223.776 328.367
L224.222 328.369
L224.669 328.899
L225.115 329.847
L225.562 329.14
L226.008 329.27
L226.454 321.753
L226.901 329.015
L227.347 312.565
L227.794 329.154
L228.24 329.548
L228.686 321.794
L229.133 329.262
L229.579 329.557
L230.026 326.894
L230.472 329.09
L230.918 323.836
L231.365 329.207
L231.811 329.356
L232.258 328.454
L232.704 329.213
L233.15 329.271
L233.597 327.12
L234.043 329.39
L234.49 329.816
L234.936 327.312
L235.382 329.514
L235.829 329.508
L236.275 311.93
L236.722 328.965
L237.168 317.538
L237.614 329.061
L238.061 328.978
L238.954 311.807
L239.4 329.38
L239.846 311.487
L240.293 312.31
L240.739 321.718
L241.186 312.299
L241.632 328.991
L242.078 329.267
L242.525 322.492
L242.971 329.387
L243.418 329.429
L243.864 327.459
L244.31 329.584
L244.757 329.981
L245.203 327.493
L245.65 303.435
L246.096 321.143
L246.542 321.013
L246.989 328.898
L247.435 321.411
L247.882 317.183
L248.328 321.505
L248.774 321.255
L249.221 321.967
L249.667 312.351
L250.114 329.74
L250.56 329.31
L251.006 319.181
L251.453 321.082
L251.899 329.529
L252.346 329.118
L252.792 329.583
L253.238 329.22
L253.685 321.431
L254.131 329.349
L254.578 318.515
L255.024 329.392
L255.47 329.879
L255.917 319.444
L256.363 329.359
L256.81 329.589
L257.256 327.424
L257.702 329.217
L258.149 328.511
L258.595 318.767
L259.042 328.238
L259.488 320.777
L259.934 321.35
L260.381 329.474
L260.827 321.871
L261.274 329.013
L261.72 329.252
L262.166 323.344
L262.613 328.844
L263.506 329.45
L263.952 328.659
L264.398 312.063
L264.845 329.826
L265.291 329.17
L265.738 319.664
L266.184 328.793
L266.63 329.056
L267.077 329.035
L267.523 328.142
L267.97 329.157
L268.416 329.677
L268.862 329.237
L269.309 321.202
L269.755 328.424
L270.202 321.368
L270.648 328.626
L271.094 329.196
L271.541 329.1
L272.434 329.574
L273.326 328.762
L273.773 329.459
L274.219 328.583
L274.666 329.007
L275.112 329.113
L275.558 328.473
L276.005 329.164
L276.451 322.81
L276.898 329.243
L277.344 312.412
L277.79 328.454
L278.237 315.017
L278.683 328.962
L279.13 330.233
L279.576 327.978
L280.022 316.445
L280.469 319.258
L280.915 328.104
L281.362 317.458
L281.808 329.587
L282.254 329.345
L282.701 328.174
L283.594 329.851
L284.04 327.994
L284.486 317.637
L284.933 329.563
L285.379 313.936
L285.826 320.206
L286.718 328.767
L287.165 329.088
L287.611 328.747
L288.058 329.616
L288.504 321.086
L288.95 329.466
L289.397 327.957
L289.843 321.078
L290.29 328.668
L290.736 329.019
L291.182 322.679
L291.629 329.111
L292.075 298.789
L292.522 319.955
L292.968 261.253
L293.414 260.637
L293.861 329.44
L294.307 312.548
L294.754 329.988
L295.2 328.802
L295.646 312.163
L296.093 329.416
L296.539 329.997
L296.986 329.765
L297.432 329.282
L297.878 329.498
L298.325 329.508
L298.771 329.315
L299.218 329.853
L299.664 329.342
L300.557 329.166
L301.003 329.424
L301.45 329.495
L301.896 303.479
L302.342 328.63
L302.789 329.362
L303.235 328.541
L303.682 328.687
L304.128 320.42
L304.574 320.983
L305.021 324.311
L305.467 311.798
L305.914 322.911
L306.36 330.42
L306.806 329.938
L307.253 326.526
L307.699 329.201
L308.146 329.04
L308.592 328.179
L309.038 329.219
L309.485 329.432
L309.931 329.263
L310.378 328.791
L311.27 329.567
L311.717 311.879
L312.163 328.468
L312.61 328.807
L313.056 312.65
L313.502 329.319
L314.395 327.953
L314.842 329.173
L315.288 329.185
L315.734 328.493
L316.181 329.336
L316.627 328.741
L317.074 328.885
L317.52 329.358
L317.966 329.055
L318.413 329.055
L318.859 329.546
L319.306 329.23
L319.752 329.154
L320.198 328.368
L321.538 329.21
L321.984 328.977
L322.43 329.148
L322.877 328.652
L323.77 328.967
L324.216 329.01
L324.662 328.679
L325.109 320.751
L325.555 320.658
L326.002 328.84
L326.448 328.933
L326.894 328.843
L327.341 320.263
L327.787 328.725
L328.234 309.105
L328.68 328.722
L329.126 329.049
L329.573 321.251
L330.019 329.357
L330.466 329.532
L330.912 328.952
L331.358 328.955
L331.805 329.221
L332.251 328.864
L332.698 328.876
L333.144 311.785
L333.59 329.16
L334.037 320.366
L334.483 320.268
L334.93 328.521
L335.376 320.969
L335.822 329.292
L336.269 328.95
L336.715 328.916
L337.162 328.569
L338.054 311.886
L338.501 303.743
L338.947 327.383
L339.394 328.564
L339.84 321.252
L340.286 329.102
L340.733 328.831
L341.179 329.085
L341.626 320.121
L342.072 328.511
L342.518 324.653
L342.965 329.613
L343.411 329.308
L343.858 329.176
L344.304 329.774
L344.75 329.665
L345.197 329.167
L345.643 329.861
L346.09 329.353
L346.536 328.622
L346.982 321.354
L347.429 329.389
L348.768 329.28
L349.214 328.743
L349.661 329.67
L350.107 329.396
L350.554 329.487
L351 328.841
L351.446 321.206
L351.893 329.674
L352.339 328.724
L352.786 321.891
L353.232 321.379
L353.678 329.403
L354.125 329.37
L354.571 328.918
L355.018 312.053
L355.464 328.874
L355.91 329.422
L356.357 324.859
L356.803 329.562
L357.25 329.756
L357.696 320.556
L358.142 329.254
L358.589 328.94
L359.035 329.469
L359.928 329.496
L360.374 329.625
L360.821 330.273
L361.267 327.432
L361.714 317.247
L362.16 329.064
L362.606 329.458
L363.053 310.984
L363.499 328.894
L363.946 330.304
L364.392 327.538
L364.838 307.43
L365.285 311.637
L365.731 329.174
L366.624 328.015
L367.07 329.515
L367.517 328.715
L367.963 329.397
L368.41 329.003
L368.856 327.729
L369.302 329.155
L369.749 312.388
L370.195 328.472
L370.642 329.676
L371.088 323.556
L371.534 328.276
L371.981 329.601
L372.427 289.232
L372.874 328.948
L373.32 303.576
L373.766 329.082
L374.213 320.456
L374.659 329.249
L375.552 312.653
L375.998 328.948
L376.445 318.806
L376.891 328.991
L377.338 288.018
L377.784 329.524
L378.23 330.321
L378.677 332.11
L379.123 307.968
L379.57 312.97
L380.016 242.082
L380.462 310.589
L380.909 278.978
L381.355 309.497
L381.802 309.253
L382.694 312.848
L383.141 310.212
L383.587 328.832
L384.034 322.489
L384.48 291.355
L384.926 310.985
L385.373 308.537
L385.819 309.846
L386.266 329.416
L386.712 329.124
L387.158 311.936
L387.605 328.755
L388.051 329.761
L388.498 310.603
L388.944 312.365
L389.39 329.287
L389.837 329.108
L390.73 329.229
L391.176 329.327
L391.622 311.662
L392.069 329.193
L392.515 330.113
L392.962 327.833
L393.408 311.218
L393.854 328.7
L394.301 311.616
L394.747 308.59
L395.194 301.24
L395.64 316.139
L396.086 311.832
L396.533 328.641
L396.979 328.665
L397.426 328.918
L397.872 325.439
L398.318 328.403
L398.765 328.729
L399.211 328.365
L399.658 328.542
L400.104 328.156
L400.55 329.006
L400.997 329.488
L401.443 311.022
L401.89 328.929
L402.336 328.205
L402.782 329.233
L403.229 329.35
L403.675 328.367
L404.122 329.258
L404.568 328.784
L405.014 309.834
L405.461 329.393
L405.907 328.27
L406.354 329.266
L406.8 328.866
L407.246 329.371
L407.693 329.407
L408.139 311.439
L408.586 328.75
L409.032 329.105
L409.478 327.188
L409.925 329.797
L410.371 328.671
L410.818 329.391
L411.264 328.489
L412.157 329.098
L412.603 329.109
L413.05 328.661
L413.496 328.882
L413.942 329.37
L414.389 308.64
L414.835 329.029
L415.282 329.602
L415.728 307.964
L416.174 329.01
L417.067 327.892
L417.514 321.365
L417.96 329.582
L418.406 312.378
L418.853 329.074
L419.299 312.981
L419.746 328.805
L420.192 309.812
L420.638 329.14
L421.085 312.051
L421.531 329.405
L421.978 328.738
L422.424 324.654
L422.87 328.749
L423.317 328.676
L424.21 328.806
L424.656 327.052
L425.102 328.121
L425.549 328.393
L425.995 328.472
L426.442 329.509
L426.888 329.363
L427.334 328.403
L427.781 329.388
L428.227 329.175
L428.674 328.687
L429.12 329.303
L429.566 328.55
L430.013 328.99
L430.906 327.218
L431.352 329.151
L431.798 322.984
L432.245 329.16
L432.691 329.408
L433.138 329.191
L433.584 316.605
L434.03 329.343
L434.477 329.808
L434.923 328.915
L435.816 315.738
L436.262 329.29
L436.709 328.785
L437.155 312.715
L437.602 329.383
L438.048 329.072
L438.494 328.187
L438.941 321.241
L439.387 328.578
L439.834 328.987
L440.28 311.774
L440.726 329.142
L441.173 328.956
L441.619 328.283
L442.066 318.072
L442.512 329.434
L442.958 311.683
L443.405 328.641
L443.851 320.667
L444.298 328.177
L444.744 329.53
L445.19 329.474
L445.637 318.454
L446.083 329.46
L446.976 328.969
L447.422 329.28
L447.869 329.788
L448.315 329.219
L448.762 328.443
L449.208 329.224
L449.654 311.842
L450.101 328.393
L450.547 329.174
L450.994 328.316
L451.44 329.233
L452.779 328.949
L453.226 327.451
L453.672 328.654
L454.118 328.368
L454.565 329.155
L455.011 329.242
L455.458 302.826
L455.904 319.927
L456.35 321.259
L456.797 321.157
L457.243 321.78
L457.69 321.057
L458.136 318.227
L458.582 304.038
L459.029 328.073
L459.475 291.111
L459.922 304.117
L460.368 320.835
L460.814 321.227
L461.707 321.557
L462.154 326.47
L462.6 321.636
L463.046 320.996
L463.493 329.396
L463.939 321.302
L464.386 329.697
L464.832 328.178
L465.278 321.358
L465.725 329.306
L466.171 321.501
L466.618 328.594
L467.064 321.017
L467.51 321.563
L467.957 312.183
L468.403 328.946
L468.85 313.84
L469.296 329.146
L469.742 328.402
L470.189 329.321
L470.635 329.863
L471.082 328.681
L471.528 303.226
L471.974 328.7
L472.421 322.551
L472.867 328.571
L473.314 329.28
L473.76 320.734
L474.206 328.559
L474.653 319.257
L475.099 329.146
L475.546 329.449
L475.992 329.145
L476.438 329.319
L477.331 329.029
L478.224 329.483
L478.67 329.029
L479.117 329.772
L479.563 312.341
L480.01 328.95
L480.456 329.321
L480.902 328.767
L481.795 329.283
L482.242 328.902
L482.688 329.76
L483.134 328.946
L483.581 329.132
L484.027 328.901
L484.474 329.32
L484.92 329.281
L485.366 329.407
L485.813 328.901
L486.259 328.943
L486.706 329.215
L487.152 329.106
L487.598 330.284
L488.045 327.713
L488.491 328.846
L488.938 328.483
L489.384 313.479
L489.83 328.023
L490.277 328.693
L490.723 327.882
L491.17 130.643
L491.616 147.435
L492.062 312.361
L492.509 329.349
L492.955 329.088
L493.402 329.046
L493.848 326.155
L494.294 312.622
L494.741 328.424
L495.187 329.33
L496.08 328.973
L496.526 329.302
L496.973 321.034
L497.419 329.147
L497.866 329.333
L498.312 329.992
L498.758 327.568
L499.205 326.415
L499.651 311.914
L500.098 325.909
L500.544 328.095
L500.99 329.242
L501.437 328.287
L501.883 328.972
L502.33 329.167
L502.776 328.423
L503.222 328.84
L503.669 310.977
L504.115 329.142
L504.562 329.327
L505.008 328.29
L505.454 328.983
L505.901 328.465
L506.347 329.197
L506.794 329.127
L507.24 318.148
L507.686 328.888
L508.133 329.206
L508.579 312.279
L509.026 329.275
L509.472 329.307
L509.918 328.537
L510.365 322.336
L510.811 328.905
L511.258 328.628
L511.704 311.196
L512.15 328.126
L512.597 329.061
L513.043 328.729
L513.49 319.152
L513.936 329.116
L514.382 329.129
L514.829 329.92
L515.275 329.086
L515.722 328.808
L516.168 329.057
L516.614 329.741
L517.061 328.722
L517.507 329.259
L517.954 328.991
L517.954 328.991" style="fill:none;stroke:#ff0000;"/>
   </g>
   <g id="line2d_2">
    <path clip-path="url(#p7ff5b81e1d)" d="
M72.4332 -1
L72.4464 232.517
L72.8928 296.719
L73.3392 298.597
L73.7856 295.165
L74.232 327.586
L74.6784 297.452
L75.1248 328.06
L75.5712 302.983
L76.0176 298.725
L76.464 328.28
L76.9104 328.148
L77.3568 295.069
L77.8032 291.096
L78.2496 328.395
L78.696 284.061
L79.1424 326.098
L79.5888 282.994
L80.0352 301.996
L80.4816 294.849
L80.928 295.915
L81.3744 326.251
L81.8208 295.055
L82.2672 325.908
L82.7136 326.999
L83.16 326.992
L83.6064 316.448
L84.0528 297.637
L84.4992 301.671
L84.9456 294.529
L85.392 326.701
L85.8384 326.293
L86.2848 327.059
L86.7312 326.602
L87.1776 327.649
L87.624 328.206
L88.0704 281.214
L88.5168 326.289
L88.9632 297.772
L89.4096 310.77
L89.856 328.338
L90.3024 319.299
L90.7488 326.199
L91.1952 297.039
L91.6416 298.676
L92.088 327.521
L92.5344 310.752
L92.9808 328.883
L93.4272 329.32
L93.8736 311.275
L94.32 315.731
L94.7664 315.786
L95.2128 281.056
L95.6592 325.859
L96.1056 297.878
L96.552 291.083
L96.9984 305.448
L97.4448 327.66
L97.8912 327.486
L98.3376 327.439
L99.2304 323.042
L99.6768 327.205
L100.123 327.418
L100.57 327.142
L101.016 327.588
L101.462 327.191
L101.909 298.873
L102.355 326.834
L102.802 314.45
L103.248 327.961
L103.694 312.364
L104.141 328.344
L104.587 318.457
L105.034 325.941
L105.48 327.113
L105.926 325.144
L106.373 326.637
L106.819 329.118
L107.266 326.679
L107.712 233.711
L108.158 326.712
L108.605 247.669
L109.051 327.745
L109.498 325.625
L109.944 326.758
L110.39 326.92
L111.283 327.647
L111.73 328.296
L112.176 328.057
L112.622 326.446
L113.069 328.018
L113.515 327.795
L113.962 328.466
L114.408 321.411
L114.854 327.135
L115.301 327.641
L115.747 328.884
L116.194 321.275
L116.64 328.159
L117.086 328.526
L117.533 328.497
L117.979 328.644
L118.426 326.056
L118.872 328.335
L119.318 318.391
L119.765 327.451
L120.211 328.378
L120.658 325.875
L121.104 328.374
L121.55 328.138
L121.997 310.729
L122.443 328.821
L122.89 314.384
L123.336 328.12
L123.782 328.695
L124.229 318.891
L124.675 328.648
L125.122 328.027
L125.568 328.743
L126.014 328.541
L126.907 326.166
L127.354 327.348
L127.8 328.023
L128.246 328.208
L128.693 327.479
L129.139 328.229
L129.586 327.998
L130.478 328.344
L130.925 328.094
L131.371 328.787
L131.818 328.609
L132.264 327.713
L132.71 328.683
L133.157 328.789
L133.603 328.284
L134.05 326.447
L134.496 327.728
L134.942 327.514
L135.389 325.577
L135.835 310.094
L136.282 328.263
L136.728 329.014
L137.174 310.29
L137.621 326.614
L138.067 326.397
L138.514 326.37
L138.96 326.618
L139.406 326.645
L139.853 323.746
L140.746 327.567
L141.192 327.56
L141.638 328.327
L142.085 301.984
L142.531 326.739
L142.978 326.655
L143.424 327.243
L143.87 327.086
L144.317 328.386
L144.763 328.068
L145.21 292.782
L145.656 327.092
L146.102 326.142
L146.549 310.371
L146.995 327.193
L147.442 327.444
L147.888 327.484
L148.334 327.095
L148.781 327.313
L149.227 327.064
L149.674 308.258
L150.12 326.52
L150.566 326.909
L151.013 327.151
L151.459 327.001
L152.352 327.385
L152.798 327.129
L154.138 328.173
L154.584 328.19
L155.03 311.034
L155.477 328.875
L156.37 327.829
L156.816 314.525
L157.262 327.472
L157.709 328.115
L158.155 326.131
L158.602 328.133
L159.048 315.556
L159.494 328.413
L159.941 328.604
L160.387 326.056
L160.834 327.038
L161.28 292.329
L161.726 314.565
L162.173 309.368
L162.619 327.438
L163.066 315.247
L163.512 328.847
L163.958 298.303
L164.405 315.155
L164.851 327.55
L165.298 328.651
L166.19 327.909
L166.637 328.169
L167.083 311.536
L167.53 306.238
L167.976 312.977
L168.422 328.108
L168.869 328.319
L169.315 311.489
L169.762 328.848
L170.208 328.231
L170.654 311.457
L171.101 306.587
L171.547 296.21
L171.994 326.829
L172.44 315.552
L172.886 328.37
L173.333 327.715
L173.779 327.908
L174.226 326.548
L174.672 326.962
L175.118 258.446
L175.565 315.686
L176.011 316.012
L176.458 319.576
L176.904 314.222
L177.35 312.441
L177.797 324.037
L178.243 326.709
L178.69 314.379
L179.136 328.67
L179.582 327.834
L180.029 225.965
L180.475 244.192
L180.922 328.456
L181.368 316.374
L181.814 311.607
L182.261 326.717
L182.707 314.384
L183.154 326.765
L183.6 326.938
L184.046 314.333
L184.493 314.545
L184.939 319.029
L185.386 327.387
L185.832 327.793
L186.278 326.553
L186.725 327.114
L187.171 314.287
L187.618 293.255
L188.064 327.5
L188.51 325.881
L188.957 326.792
L189.403 327.244
L189.85 314.795
L190.296 327.243
L190.742 327.113
L191.189 326.2
L191.635 326.725
L192.082 328.327
L192.528 316.876
L192.974 328.199
L193.421 326.949
L193.867 327.368
L194.314 327.513
L194.76 328.242
L195.206 328.472
L196.099 326.156
L196.546 326.724
L196.992 316.096
L197.438 313.562
L198.331 327.044
L198.778 326.908
L199.224 327.415
L200.117 326.688
L200.563 327.89
L201.01 327.72
L201.456 328.22
L201.902 320.347
L202.349 310.376
L202.795 327.547
L203.242 327.815
L203.688 317.719
L204.134 327.595
L204.581 329.232
L205.027 327.945
L205.474 328.837
L205.92 324.289
L206.366 328.61
L206.813 328.795
L207.259 327.825
L207.706 327.91
L208.152 328.805
L208.598 324.932
L209.938 328.613
L210.384 311.205
L210.83 326.987
L211.277 328.117
L211.723 323.006
L212.17 327.08
L212.616 326.593
L213.062 328.119
L213.509 328.466
L213.955 328.001
L214.402 328.062
L214.848 326.78
L215.294 309.221
L215.741 323.874
L216.187 314.01
L216.634 310.552
L217.08 325.608
L217.526 328.367
L218.419 328.892
L218.866 328.596
L219.312 328.099
L219.758 326.43
L220.205 327.944
L220.651 328.211
L221.098 311.344
L221.544 328.74
L221.99 327.598
L222.437 309.805
L222.883 328.188
L223.33 326.941
L223.776 328.202
L224.222 326.692
L224.669 314.177
L225.115 328.035
L225.562 323.317
L226.008 328.317
L226.454 311.286
L226.901 325.773
L227.347 319.333
L227.794 326.399
L228.24 326.402
L228.686 328.001
L229.133 327.625
L229.579 325.855
L230.026 309.988
L230.472 267.931
L230.918 193.714
L231.365 305.064
L231.811 327.577
L232.258 327.649
L232.704 326.748
L233.15 327.963
L233.597 328.509
L234.043 327.133
L234.49 322.903
L234.936 328.136
L235.382 328.446
L235.829 328.57
L236.275 320.837
L236.722 327.631
L237.168 328.522
L237.614 315.016
L238.061 328.491
L238.507 310.513
L238.954 326.131
L239.4 308.7
L239.846 326.916
L240.293 321.086
L240.739 311.813
L241.186 323.038
L241.632 326.545
L242.525 326.266
L242.971 327.028
L243.418 315.187
L243.864 327.007
L244.31 296.492
L244.757 315.268
L245.203 314.64
L245.65 328.289
L246.096 326.728
L246.542 312.597
L246.989 328.782
L247.435 327.755
L247.882 328.425
L248.328 326.693
L248.774 314.447
L249.221 328.698
L249.667 318.955
L250.114 327.259
L250.56 327.692
L251.006 314.908
L251.453 281.813
L251.899 328.554
L252.346 323.615
L252.792 327.458
L253.238 324.788
L253.685 326.694
L254.131 325.632
L254.578 320.399
L255.024 312.471
L255.47 309.452
L255.917 327.43
L256.363 327.04
L257.256 331.628
L257.702 316.523
L258.149 332.254
L258.237 -1
M258.961 -1
L259.042 300.253
L259.488 329.903
L259.934 329.909
L260.381 332.356
L260.827 330.444
L261.274 319.412
L261.72 327.87
L262.166 331.823
L262.613 301.704
L263.059 330.21
L263.506 331.744
L263.952 317.006
L264.398 332.793
L264.845 330.05
L265.291 332.671
L265.738 330.609
L266.184 332.233
L266.63 308.344
L267.523 328.798
L267.97 332.413
L268.416 328.598
L268.862 329.995
L269.309 330.163
L269.755 332.243
L270.202 330.013
L270.648 332.334
L271.094 317.581
L271.541 320.54
L271.987 330.5
L272.434 332.139
L272.88 329.857
L273.326 332.239
L273.773 318.646
L274.219 327.82
L274.666 329.685
L275.112 315.277
L275.558 311.448
L276.005 331.75
L276.451 330.334
L276.898 316.356
L277.344 330.267
L277.79 315.077
L278.237 316.976
L278.683 329.866
L279.13 319.152
L279.576 330.137
L280.022 315.921
L280.469 328.726
L280.915 331.421
L281.362 328.569
L281.808 329.351
L282.254 332.512
L282.701 329.46
L283.147 330.481
L283.594 316.283
L284.04 320.543
L284.486 332.139
L284.933 317.917
L285.379 332.382
L285.826 327.928
L286.272 314.942
L286.718 317.562
L287.165 331.938
L287.611 312.778
L288.058 330.468
L288.504 325.543
L288.95 332.938
L289.397 330.608
L289.843 317.008
L290.29 312.572
L290.736 326.726
L291.629 327.938
L292.075 327.717
L292.522 328.58
L292.968 328.019
L293.414 316.534
L293.861 328.099
L294.307 328.194
L294.754 325.333
L295.2 327.435
L295.646 327.767
L296.093 314.791
L296.539 327.26
L296.986 326.975
L297.432 327.953
L297.878 328.591
L298.325 328.118
L299.664 328.161
L300.11 311.17
L300.557 326.885
L301.003 309.206
L301.45 327.466
L301.896 322.066
L302.342 325.274
L302.789 326.709
L303.235 330.442
L303.682 327.081
L304.128 326.806
L304.574 329.732
L305.021 326.763
L305.467 327.828
L305.914 310.943
L306.36 327.168
L306.806 330.237
L307.253 309.472
L307.699 310.712
L308.146 327.553
L308.592 327.977
L309.038 322.963
L309.485 326.431
L309.931 327.979
L310.378 327.538
L310.824 310.217
L311.27 326.008
L311.717 304.315
L312.163 326.086
L312.61 326.72
L313.056 320.785
L313.502 327.215
L313.949 328.6
L314.395 328.233
L314.842 310.549
L315.288 326.081
L315.734 321.839
L316.181 327.07
L316.627 326.943
L317.074 329.77
L317.52 312.9
L317.966 325.201
L318.413 326.522
L318.859 327.37
L319.306 329.933
L319.752 326.568
L320.198 327.767
L320.645 314.45
L321.091 328.001
L321.538 327.796
L321.984 325.243
L322.43 327.83
L322.877 327.924
L323.323 328.469
L323.77 294.441
L324.216 327.099
L324.662 317.645
L325.109 314.729
L325.555 321.512
L326.002 315.317
L326.448 322.425
L326.894 327.585
L327.341 327.972
L327.787 310.936
L328.234 315.515
L328.68 327.338
L329.126 315.306
L329.573 327.731
L330.019 327.629
L330.466 326.976
L330.912 299.605
L331.358 327.548
L331.805 321.111
L332.251 317.587
L332.698 310.818
L333.144 325.999
L333.59 327.982
L334.037 328.437
L334.483 326.84
L334.93 310.969
L335.376 328.247
L335.822 328.438
L336.269 315.242
L337.162 311.773
L337.608 326.701
L338.054 326.1
L338.501 327.442
L338.947 315.117
L339.394 328.039
L340.286 328.151
L340.733 326.282
L341.179 315.078
L341.626 314.602
L342.072 326.531
L342.518 314.675
L342.965 328.533
L343.411 322.343
L343.858 328.824
L344.304 323.198
L344.75 328.329
L345.197 327.276
L345.643 328.766
L346.09 328.147
L346.536 328.433
L346.982 328.315
L347.429 310.622
L347.875 328.437
L348.322 328.013
L348.768 311.822
L349.214 328.697
L349.661 323.517
L350.107 328.408
L351 326.893
L351.446 328.08
L351.893 315.393
L352.339 328.322
L352.786 328.576
L353.232 310.577
L353.678 326.78
L354.125 299.652
L354.571 324.741
L355.018 323.791
L355.464 327.952
L355.91 327.628
L356.357 327.601
L356.803 325.732
L357.25 315.948
L357.696 326.743
L358.142 295.693
L358.589 313.854
L359.035 316.269
L359.482 327.203
L359.928 327.482
L360.374 319.768
L360.821 327.681
L361.267 328.09
L361.714 327.618
L362.16 311.113
L362.606 328.029
L363.053 328.099
L363.499 328.347
L363.946 314.714
L364.392 327.884
L364.838 314.85
L365.285 326.566
L365.731 298.135
L366.178 327.852
L366.624 327.414
L367.517 328.232
L367.963 327.059
L368.41 327.519
L368.856 326.947
L369.302 316.839
L369.749 326.013
L371.088 326.63
L371.534 329.735
L371.981 313.787
L372.427 326.251
L372.874 326.585
L373.32 328.399
L373.766 327.851
L374.213 327.897
L374.659 314.307
L375.106 325.303
L375.552 328.26
L375.998 327.288
L376.445 328.154
L377.338 327.272
L377.784 328.342
L378.23 328.268
L378.677 327.76
L379.123 328.364
L379.57 314.726
L380.016 328.009
L380.462 328.089
L380.909 327.638
L381.355 328.639
L381.802 328.656
L382.248 326.646
L382.694 327.397
L383.141 308.189
L383.587 330.103
L384.034 327.022
L384.48 330.522
L384.926 327.088
L385.373 316.184
L385.819 327.249
L386.266 326.23
L386.712 330.027
L387.158 326.403
L387.605 328.121
L388.051 327.165
L388.498 316.479
L388.944 327.586
L389.39 314.041
L389.837 327.597
L390.283 328.072
L390.73 327.376
L391.176 327.888
L391.622 328.195
L392.069 327.987
L392.515 327.986
L392.962 327.374
L393.408 327.673
L393.854 310.382
L394.301 268.425
L394.747 327.641
L395.194 328.483
L395.64 310.802
L396.086 325.294
L396.533 320.4
L396.979 309.518
L397.426 327.116
L397.872 326.683
L398.318 327.068
L398.765 329.707
L399.211 325.793
L399.658 326.113
L400.104 327.157
L400.997 327.42
L401.89 292.781
L402.336 327.396
L402.782 326.604
L403.229 326.367
L403.675 329.212
L404.122 310.388
L404.568 327.455
L405.014 307.423
L405.461 327.668
L405.907 328.069
L406.354 314.785
L406.8 328.822
L407.246 322.77
L407.693 327.89
L408.139 326.861
L408.586 328.259
L409.032 328.044
L409.478 326.279
L409.925 308.183
L410.371 326.876
L410.818 298.454
L411.71 328.296
L412.157 308.755
L412.603 328.284
L413.05 320.217
L413.496 327.787
L414.389 328.359
L414.835 328.374
L415.282 314.956
L415.728 328.295
L416.174 315.387
L416.621 328.244
L417.067 315.761
L417.514 311.134
L417.96 328.046
L418.406 327.998
L418.853 315.563
L419.299 326.762
L419.746 297.11
L420.192 328.407
L420.638 314.268
L421.085 328.234
L421.531 328.1
L421.978 314.217
L422.424 314.817
L422.87 327.457
L423.317 328.575
L423.763 329.104
L424.21 324.374
L424.656 326.298
L425.102 304.033
L425.549 308.907
L425.995 330.169
L426.442 326.74
L426.888 330.562
L427.334 314.29
L427.781 325.184
L428.227 326.423
L429.12 328.393
L429.566 327.292
L430.013 311.15
L430.459 325.868
L431.352 327.403
L431.798 315.186
L432.245 327.211
L432.691 325.558
L433.138 329.218
L433.584 326.134
L434.03 320.568
L434.477 327.11
L434.923 314.444
L435.37 329.999
L436.262 323.724
L436.709 325.983
L437.155 327.041
L437.602 326.813
L438.048 313.689
L438.494 310.856
L438.941 325.268
L439.387 328.405
L439.834 328.181
L440.28 327.682
L441.173 328.021
L441.619 328.669
L442.066 328.548
L442.512 314.172
L442.958 327.612
L443.405 328.565
L444.298 328.45
L444.744 314.43
L445.19 328.361
L445.637 314.544
L446.083 311.283
L446.53 328.185
L446.976 328.317
L447.422 317.988
L447.869 328.469
L448.315 326.592
L448.762 327.646
L449.208 327.571
L449.654 311.941
L450.101 326.496
L450.547 328.121
L450.994 327.525
L451.44 327.732
L451.886 302.454
L452.333 312.889
L452.779 329.999
L453.226 313.745
L453.672 330.643
L454.118 326.752
L454.565 328.064
L455.011 327.935
L455.458 327.657
L455.904 318.333
L456.35 315.099
L457.243 327.965
L457.69 315.901
L458.136 328.192
L459.029 328.445
L459.922 303.648
L460.368 326.097
L460.814 329.229
L461.261 326.988
L461.707 317.461
L462.154 324.675
L462.6 326.154
L463.046 330.667
L463.493 327.5
L463.939 316.147
L464.386 327.208
L464.832 326.523
L465.278 329.891
L465.725 326.929
L466.171 327.095
L466.618 328.224
L467.064 328.173
L467.51 317.451
L467.957 327.745
L468.403 328.182
L468.85 328.153
L469.296 311.59
L469.742 327.929
L470.189 327.735
L470.635 326.657
L471.082 314.212
L471.528 328.312
L471.974 327.934
L472.421 328.154
L472.867 328.131
L473.314 328.365
L473.76 327.796
L474.206 328.304
L474.653 314.762
L475.099 325.775
L475.546 327.361
L476.438 328.072
L476.885 325.384
L477.331 328.765
L477.778 326.539
L478.224 325.69
L479.117 327.153
L479.563 330.367
L480.01 291.844
L480.456 327.084
L480.902 327.113
L481.349 311.233
L481.795 327.745
L482.242 324.544
L482.688 327.807
L483.581 328.139
L484.027 326.725
L484.474 325.76
L484.92 327.058
L485.366 327.176
L485.813 328.586
L486.259 326.407
L486.706 319.135
L487.152 325.875
L487.598 327.245
L488.045 330.053
L488.491 314.004
L488.938 326.688
L489.384 327.369
L489.83 279.466
L490.277 326.956
L490.723 328.122
L491.17 327.717
L491.616 318.66
L492.062 326.473
L492.509 327.583
L492.955 314.863
L493.402 322.964
L493.848 328.265
L494.294 314.947
L494.741 328.366
L495.187 310.904
L495.634 326.672
L496.08 311.773
L496.526 327.23
L496.973 327.222
L497.419 329.019
L497.866 327.035
L498.312 317.852
L498.758 326.453
L499.205 313.956
L499.651 327.36
L500.098 306.685
L500.544 328.009
L500.99 326.361
L501.437 314.801
L501.883 315.22
L502.33 314.022
L502.776 327.449
L503.222 315.824
L503.669 298.241
L504.115 326.902
L504.562 326.671
L505.008 325.916
L505.454 326.112
L505.901 326.473
L506.347 328.176
L506.794 327.504
L507.24 327.245
L508.133 327.854
L508.579 327.757
L509.026 327.429
L509.472 327.57
L509.918 328.22
L510.365 307.509
L510.811 327.327
L511.258 311.104
L511.704 310.844
L512.15 328.233
L512.597 310.833
L513.043 325.601
L513.49 315.224
L513.936 326.144
L514.382 310.705
L514.829 327.87
L515.275 327.665
L515.722 326.52
L516.168 326.559
L516.614 318.441
L517.061 327.495
L517.507 313.22
L517.954 325.13
L517.954 325.13" style="fill:none;opacity:0.7;stroke:#008000;"/>
   </g>
   <g id="line2d_3">
    <path clip-path="url(#p7ff5b81e1d)" d="
M72.4337 -1
L72.4464 247.919
L72.8928 301.815
L73.3392 296.963
L73.7856 303.025
L74.232 323.716
L74.6784 298.264
L75.1248 328.232
L75.5712 298.22
L76.0176 327.059
L76.464 295.51
L76.9104 297.281
L77.3568 328.808
L77.8032 297.246
L78.2496 329.594
L78.696 327.701
L79.1424 297.437
L79.5888 329.135
L80.0352 328.298
L80.4816 320.696
L80.928 328.888
L81.3744 298.069
L81.8208 298.937
L82.2672 299.07
L82.7136 299.012
L83.16 296.448
L83.6064 297.935
L84.0528 328.862
L84.4992 292.695
L84.9456 328.557
L85.392 328.602
L85.8384 297.279
L86.2848 328.945
L86.7312 298.874
L87.1776 328.461
L88.0704 298.166
L88.5168 322.198
L88.9632 326.917
L89.4096 315.78
L89.856 327.824
L90.3024 328.089
L90.7488 289.473
L91.6416 328.299
L92.088 328.673
L92.5344 315.867
L92.9808 328.248
L93.4272 318.116
L93.8736 329.035
L94.32 329.293
L94.7664 325.617
L95.2128 301.527
L95.6592 328.752
L96.1056 303.029
L96.552 328.093
L96.9984 322.631
L97.4448 325.791
L97.8912 306.982
L98.3376 326.34
L98.784 320.264
L99.2304 327.643
L99.6768 327.193
L100.123 327.121
L100.57 327.548
L101.016 310.301
L101.462 327.316
L101.909 327.128
L102.355 327.356
L102.802 327.973
L103.248 293.166
L103.694 327.937
L104.587 315.468
L105.034 295.613
L105.48 327.055
L105.926 327.143
L106.373 327.5
L106.819 327.175
L107.266 327.12
L107.712 327.28
L108.158 328.79
L108.605 327.957
L109.051 319.679
L109.498 328.359
L109.944 329.061
L110.39 327.693
L111.283 328.985
L111.73 327.603
L112.176 328.537
L112.622 314.86
L113.069 328.408
L113.515 328.528
L113.962 320.812
L114.408 328.85
L115.301 328.168
L115.747 327.739
L116.194 328.662
L116.64 328.403
L117.086 328.608
L117.533 328.686
L117.979 328.166
L118.426 328.95
L118.872 329.329
L119.318 327.967
L119.765 328.993
L120.211 329.176
L120.658 326.327
L121.104 329.427
L121.55 315.698
L121.997 328.542
L122.443 328.987
L122.89 328.949
L123.336 328.48
L123.782 328.191
L124.229 329.075
L124.675 328.64
L125.122 329.153
L126.014 328.835
L126.461 328.316
L126.907 328.264
L127.354 328.878
L127.8 328.239
L128.246 328.785
L129.139 328.517
L129.586 328.303
L130.032 329.067
L130.478 328.742
L130.925 327.138
L131.371 328.559
L131.818 328.586
L132.264 326.959
L132.71 328.309
L133.157 328.873
L133.603 327.819
L134.05 328.495
L134.496 325.999
L134.942 327.195
L135.389 315.357
L135.835 326.749
L136.282 327.571
L136.728 326.789
L137.174 327.681
L137.621 327.502
L138.067 328.748
L138.514 327.974
L138.96 328.768
L139.406 321.012
L139.853 328.35
L140.299 328.589
L140.746 311.121
L141.192 326.318
L141.638 329.366
L142.085 328.263
L142.531 328.069
L142.978 307.245
L143.424 327.225
L143.87 329.326
L144.317 328.296
L144.763 328.173
L145.21 307.184
L145.656 327.533
L146.102 328.905
L146.549 327.976
L146.995 328.542
L147.442 323.514
L147.888 327.583
L148.334 328.586
L148.781 323.165
L149.227 328.7
L149.674 296.63
L150.12 327.695
L150.566 327.228
L151.013 327.123
L151.459 328.236
L151.906 315.604
L152.352 328.439
L152.798 315.093
L153.245 327.912
L153.691 328.733
L154.138 318.491
L154.584 328.959
L155.03 314.635
L155.477 328.408
L155.923 328.708
L156.37 319.396
L156.816 328.424
L157.262 328.27
L158.155 328.649
L158.602 328.148
L159.048 325.869
L159.494 322.473
L159.941 327.19
L160.387 327.273
L160.834 313.572
L161.28 314.661
L161.726 327.855
L162.173 315.098
L162.619 311.972
L163.066 328.011
L163.512 314.316
L163.958 314.923
L164.405 328.01
L164.851 315.118
L165.744 315.608
L166.19 328.856
L166.637 314.981
L167.083 328.047
L167.53 326.367
L167.976 314.874
L168.422 319.877
L168.869 328.806
L169.315 328.051
L169.762 328.928
L170.208 328.193
L170.654 328.439
L171.101 328.512
L171.547 328.261
L171.994 312.459
L172.44 308.36
L172.886 314.667
L173.333 309.867
L173.779 315.359
L174.226 329.102
L174.672 327.908
L175.118 328.492
L175.565 328.464
L176.011 297.846
L176.458 297.389
L176.904 311.187
L177.35 328.649
L177.797 328.949
L178.243 305.223
L178.69 328.587
L179.136 301.864
L179.582 326.602
L180.029 327.782
L180.475 314.776
L180.922 314.431
L181.368 320.174
L181.814 328.063
L182.261 327.194
L183.154 327.494
L183.6 327.797
L184.046 326.999
L184.493 313.935
L184.939 324.211
L185.386 313.959
L186.278 327.353
L186.725 314.581
L187.171 329.539
L187.618 327.775
L188.064 328.166
L188.51 327.187
L188.957 314.096
L189.403 329.494
L190.296 326.913
L190.742 327.852
L191.189 327.723
L191.635 328.729
L192.082 328.375
L192.528 327.854
L192.974 328.535
L193.421 328.734
L193.867 328.364
L194.314 328.843
L194.76 328.151
L195.206 327.682
L195.653 328.016
L196.099 326.811
L196.546 313.898
L196.992 329.189
L197.438 328.127
L197.885 328.398
L198.331 328.176
L198.778 327.434
L199.224 328.761
L200.117 328.339
L200.563 328.711
L201.01 311.526
L201.456 328.659
L201.902 329.108
L202.349 328.269
L202.795 328.185
L203.242 328.773
L203.688 328.458
L204.581 328.991
L205.027 328.262
L205.92 327.793
L206.366 328.695
L207.259 328.155
L207.706 328.993
L208.152 319.643
L208.598 328.962
L209.045 327.708
L209.938 328.559
L210.83 326.759
L211.277 303.533
L211.723 327.681
L212.17 321.048
L212.616 328.027
L213.062 326.596
L213.509 326.795
L214.402 327.6
L214.848 329.259
L215.294 328.224
L215.741 311.685
L216.187 327.492
L216.634 327.768
L217.08 327.062
L217.526 327.814
L217.973 327.656
L218.419 312.264
L218.866 328.309
L219.312 328.229
L219.758 327.9
L220.205 328.732
L220.651 327.978
L221.098 326.584
L221.544 313.573
L221.99 327.432
L222.437 327.262
L222.883 327.356
L223.33 327.792
L223.776 327.621
L224.222 328.992
L225.115 328.1
L225.562 328.204
L226.008 320.51
L226.454 328.324
L226.901 327.2
L227.347 328.264
L227.794 327.834
L228.24 327.803
L228.686 328.353
L229.133 327.398
L229.579 280.142
L230.026 327.916
L230.472 328.292
L230.918 327.992
L231.365 326.478
L231.811 318.749
L232.258 327.481
L232.704 327.162
L233.15 327.273
L233.597 327.588
L234.043 327.189
L234.49 329.075
L234.936 328.029
L235.382 315.223
L235.829 311.618
L236.275 316.412
L236.722 328.627
L237.168 311.227
L237.614 326.614
L238.061 327.387
L238.507 327.451
L238.954 327.835
L239.4 327.008
L239.846 327.677
L240.293 327.511
L240.739 315.692
L241.186 327.837
L241.632 327.516
L242.078 327.914
L242.525 314.201
L242.971 323.027
L243.418 327.249
L243.864 327.559
L244.31 327.639
L244.757 327.598
L245.203 293.293
L245.65 314.916
L246.096 326.487
L246.542 323.838
L246.989 328.378
L247.435 328.723
L247.882 328.394
L248.328 328.976
L248.774 328.008
L249.221 328.196
L249.667 328.226
L250.114 312.637
L250.56 328.798
L251.006 318.936
L251.453 329.056
L251.899 327.973
L252.346 328.478
L252.792 328.623
L253.238 327.074
L253.685 328.468
L254.131 327.896
L254.578 313.476
L255.024 327.471
L255.47 327.412
L255.917 305.064
L256.363 328.148
L256.81 316.337
L257.256 315.334
L257.702 315.497
L258.149 328.228
L258.595 315.166
L259.042 246.543
L259.488 217.954
L259.934 299.385
L260.827 328.363
L261.274 328.029
L262.166 302.48
L262.613 327.301
L263.059 326.626
L263.506 329.355
L263.952 328.261
L264.398 328.813
L264.845 327.751
L265.291 327.953
L265.738 328.302
L266.184 314.946
L266.63 328.139
L267.077 327.583
L267.523 328.563
L267.97 326.214
L268.416 327.735
L268.458 -1
M269.267 -1
L269.309 327.083
L269.755 319.362
L270.202 320.757
L271.094 214.928
L271.541 330.233
L271.987 240.108
L272.434 271.169
L272.88 318.262
L273.326 234.284
L274.219 309.36
L274.666 271.552
L275.112 254.301
L275.558 303.528
L276.005 314.169
L276.451 309.194
L276.898 332.783
L277.344 236.859
L277.79 243.305
L278.237 298.393
L278.683 332.819
L279.13 316.815
L279.576 333.022
L280.022 236.194
L280.469 253.553
L280.915 303.928
L281.362 332.521
L281.808 308.08
L282.701 237.882
L283.147 319.394
L283.594 313.686
L284.04 313.155
L284.486 285.989
L284.933 240.693
L285.379 303.311
L285.826 332.673
L286.272 291.765
L286.718 228.187
L287.165 223.417
L287.611 328.504
L288.058 312.018
L288.504 328.095
L288.95 328.571
L289.397 319.434
L289.843 327.462
L290.29 328.077
L290.736 327.64
L291.182 327.775
L291.629 320.369
L292.075 327.85
L292.522 327.209
L292.968 328.083
L293.414 314.928
L293.861 325.361
L294.307 328.016
L294.754 328.644
L295.2 328.008
L295.646 306.963
L296.093 327.226
L296.539 328.172
L296.986 320.769
L297.432 328.34
L297.878 327.769
L298.325 314.354
L298.771 328.218
L299.218 323.69
L299.664 328.577
L300.11 314.403
L300.557 328.164
L301.003 329.143
L301.45 328.903
L301.896 329.161
L302.342 328.361
L302.789 328.75
L303.235 310.632
L303.682 327.857
L304.128 314.478
L304.574 323.264
L305.021 328.483
L305.467 327.856
L305.914 328.388
L306.36 328
L306.806 328.416
L307.253 328.115
L307.699 328.194
L308.146 328.115
L308.592 314.682
L309.038 327.672
L309.485 327.882
L309.931 327.792
L310.824 328.128
L311.27 328.47
L311.717 327.738
L312.163 310.75
L312.61 324.304
L313.056 328.071
L313.502 328.528
L313.949 327.927
L314.395 327.677
L314.842 327.988
L315.288 328.039
L315.734 327.533
L316.181 314.789
L316.627 328.772
L317.074 328.171
L317.52 316.083
L317.966 324.735
L318.413 328.093
L318.859 329.404
L319.306 316.481
L319.752 329.386
L320.198 311.732
L320.645 329.045
L321.091 328.949
L321.538 329.161
L321.984 328.085
L322.43 327.461
L322.877 314.88
L323.323 328.645
L323.77 320.106
L324.216 327.934
L324.662 328.363
L325.109 325.865
L325.555 328.073
L326.002 315.127
L326.448 327.712
L326.894 327.835
L327.341 329.64
L327.787 242.469
L328.234 251.356
L328.68 328.218
L329.126 328.524
L329.573 328.393
L330.019 327.795
L330.466 328.372
L330.912 328.19
L331.358 327.81
L331.805 328.343
L332.251 314.363
L332.698 316.272
L333.144 328.724
L333.59 328.32
L334.037 318.519
L334.483 329.093
L334.93 329.211
L335.376 328.575
L335.822 329.423
L336.269 329.422
L337.162 329.062
L338.054 329.265
L338.501 316.566
L338.947 329.301
L339.84 317.283
L340.286 305.588
L340.733 329.736
L341.179 319.036
L341.626 329.646
L342.072 328.646
L342.518 329.57
L342.965 317.213
L343.411 313.048
L343.858 328.525
L344.304 316.407
L344.75 316.109
L345.197 329.21
L345.643 329.798
L346.09 328.967
L346.536 328.92
L346.982 328.657
L347.429 329.718
L348.322 328.92
L348.768 329.589
L349.214 328.993
L349.661 329.463
L350.107 330.095
L350.554 329.349
L351 311.967
L351.446 328.113
L351.893 311.311
L352.339 328.379
L352.786 327.03
L353.232 329.063
L353.678 329.009
L354.125 312.101
L354.571 328.991
L355.018 317.098
L355.464 329.223
L355.91 311.626
L356.357 327.78
L356.803 323.456
L357.25 298.854
L357.696 328.295
L358.142 329.247
L358.589 328.594
L359.035 316.597
L359.482 329.002
L359.928 327.906
L360.374 328.995
L360.821 289.913
L361.267 328.223
L361.714 316.157
L362.16 328.607
L362.606 329.077
L363.053 312.552
L363.499 328.832
L363.946 328.428
L364.392 298.269
L364.838 329.231
L365.285 329.349
L365.731 312.378
L366.178 328.336
L366.624 315.363
L367.07 328.379
L367.517 328.072
L367.963 329.186
L368.41 329.212
L368.856 311.334
L369.749 320.756
L370.195 329.108
L370.642 329.518
L371.088 328.461
L371.534 329.009
L371.981 328.882
L372.427 329.04
L372.874 312.308
L373.32 326.174
L373.766 329.385
L374.213 329.466
L375.106 329.174
L375.552 329.163
L375.998 329.55
L376.445 329.343
L376.891 328.934
L377.338 329.909
L377.784 329.48
L378.23 329.242
L378.677 328.784
L379.123 328.866
L379.57 329.238
L380.016 329.32
L380.462 329.267
L380.909 329.028
L381.355 329.479
L381.802 327.775
L382.248 329.267
L382.694 326.417
L383.141 314.112
L383.587 319.324
L384.034 322.794
L384.48 329.288
L384.926 329.009
L385.819 329.57
L386.266 328.707
L386.712 329.399
L387.605 328.66
L388.051 329.596
L388.498 328.781
L388.944 311.706
L389.39 317.279
L389.837 329.49
L390.283 327.887
L390.73 328.778
L391.176 328.356
L391.622 327.427
L392.069 329.152
L392.515 327.715
L392.962 329.19
L393.408 311.966
L393.854 328.22
L394.301 325.297
L394.747 328.894
L395.194 329.273
L395.64 329.039
L396.086 328.497
L396.533 312.247
L396.979 329.525
L397.426 306.739
L397.872 328.866
L398.318 320.565
L398.765 316.184
L399.211 302.844
L399.658 327.913
L400.104 328.124
L400.55 317.969
L400.997 327.636
L401.443 329.018
L401.89 327.506
L402.336 315.697
L402.782 326.591
L403.229 328.429
L403.675 328.118
L404.122 329.036
L404.568 320.908
L405.014 316.03
L405.461 314.679
L405.907 328.466
L406.354 328.248
L406.8 329.156
L407.246 328.766
L408.139 329.253
L408.586 316.38
L409.032 329.281
L409.478 328.968
L409.925 324.832
L410.371 328.157
L410.818 328.523
L411.264 328.659
L411.71 328.132
L412.157 329.25
L412.603 329.014
L413.05 329.502
L414.389 328.619
L414.835 310.143
L415.282 328.994
L415.728 328.542
L416.174 329.074
L416.621 328.615
L417.067 324.896
L417.514 329.141
L417.96 328.744
L418.406 312.062
L418.853 328.348
L419.299 297.603
L419.746 311.273
L420.192 329.069
L420.638 328.884
L421.085 328.877
L421.531 326.109
L421.978 315.369
L422.424 328.919
L422.87 315.958
L423.317 328.379
L423.763 328.363
L424.21 316.411
L424.656 328.723
L425.102 328.531
L425.549 310.718
L425.995 328.428
L426.442 320.229
L426.888 328.405
L427.334 329.452
L427.781 315.534
L428.227 328.433
L428.674 310.898
L429.12 328.567
L429.566 320.307
L430.013 329.153
L430.906 328.792
L431.352 328.899
L431.798 328.264
L432.245 329.214
L433.138 328.854
L433.584 329.034
L434.03 328.774
L434.477 329.373
L434.923 315.268
L435.37 328.744
L435.816 323.938
L436.262 327.871
L436.709 327.393
L437.155 249.72
L437.602 301.535
L438.048 266.809
L438.494 301.742
L438.941 199.707
L439.834 255.606
L440.28 244.192
L440.726 268.574
L441.173 213.124
L441.619 285.801
L442.066 227.4
L442.512 312.604
L442.958 310.854
L443.405 283.835
L443.851 285.84
L444.298 270.037
L444.744 284.663
L445.19 229.18
L445.637 283.217
L446.083 298.691
L446.53 270.729
L446.976 297.602
L447.422 269.964
L447.869 229.732
L448.315 270.235
L448.762 298.011
L449.208 269.887
L449.654 153.992
L450.101 208.436
L450.547 329.06
L451.44 284.249
L451.886 299.298
L452.333 269.245
L452.779 229.829
L453.226 256.236
L453.672 300.371
L454.118 296.599
L454.565 270.469
L455.011 226.156
L455.458 284.985
L455.904 272.255
L456.35 228.005
L456.797 271.059
L457.243 298.195
L457.69 270.816
L458.136 285.556
L458.582 283.538
L459.029 298.727
L459.475 271.21
L459.922 294.724
L460.368 286.727
L460.814 215.247
L461.261 258.254
L461.707 241.935
L462.154 64.2779
L462.6 295.437
L463.046 273.388
L463.493 91.7266
L464.386 299.12
L464.832 256.197
L465.278 230.854
L465.725 281.037
L466.171 288.61
L466.618 328.517
L467.064 222.652
L467.51 282.054
L467.957 301.502
L468.403 274.257
L468.85 315.089
L469.296 284.102
L469.742 316.331
L470.189 291.156
L470.635 284.909
L471.082 315.712
L471.528 299.357
L471.974 271.599
L472.421 294.22
L472.867 261.252
L473.314 246.703
L473.76 266.557
L474.206 297.908
L474.653 271.453
L475.099 229.932
L475.546 256.361
L475.992 252.782
L476.438 283.317
L476.885 271.714
L477.331 284.811
L477.778 251.136
L478.224 293.378
L478.67 298.438
L479.117 204.744
L479.563 228.963
L480.01 299.913
L480.456 50.1147
L480.902 275.59
L481.349 294.335
L481.795 302.074
L482.242 274.436
L482.688 300.008
L483.134 284.747
L483.581 273.44
L484.474 201.033
L484.92 331.228
L485.366 307.134
L485.813 321.688
L486.259 325.356
L486.706 306.265
L487.152 216.153
L487.598 256.735
L488.045 218.211
L488.491 265.297
L488.938 328.865
L489.384 273.001
L490.277 257.627
L490.723 268.392
L491.17 168.099
L491.616 329.037
L492.062 287.323
L492.509 284.784
L492.955 204.184
L493.402 328.961
L493.848 250.059
L494.294 303.499
L494.741 195.74
L495.187 164.175
L495.634 285.427
L496.08 267.014
L496.526 163.579
L496.973 285.737
L497.419 283.731
L497.866 301.241
L498.312 265.652
L498.758 214.747
L499.205 302.865
L500.098 233.626
L500.544 266.439
L500.99 233.666
L501.437 253.691
L501.883 178.113
L502.33 249.535
L502.776 110.684
L503.222 215.287
L503.669 267.933
L504.115 249.013
L504.562 267.067
L505.008 232.617
L505.454 185.119
L505.901 313.398
L506.347 263.347
L506.794 227.859
L507.24 233.279
L507.686 259.955
L508.133 234.011
L508.579 266.82
L509.026 220.439
L509.472 278.777
L509.918 298.667
L510.365 252.141
L510.811 243.942
L511.258 286.98
L511.704 273.006
L512.15 296.132
L512.597 273.395
L513.043 296.203
L513.49 260.064
L513.832 -1
M514.089 -1
L514.382 150.553
L514.829 244.869
L515.275 295.028
L515.722 286.221
L516.168 329.773
L516.614 169.258
L517.061 273.231
L517.507 256.286
L517.954 231.573
L517.954 231.573" style="fill:none;opacity:0.5;stroke:#0000ff;"/>
   </g>
   <g id="matplotlib.axis_1">
    <g id="xtick_1">
     <g id="line2d_4">
      <path clip-path="url(#p7ff5b81e1d)" d="
M72 388.8
L72 43.2" style="fill:none;stroke:#000000;stroke-dasharray:1.000000,3.000000;stroke-dashoffset:0.0;stroke-linecap:butt;stroke-width:0.5;"/>
     </g>
     <g id="line2d_5">
      <defs>
       <path d="
M0 0
L0 -4" id="m0012dd4eef" style="stroke:#000000;stroke-linecap:butt;stroke-width:0.5;"/>
      </defs>
      <g>
       <use style="stroke:#000000;stroke-linecap:butt;stroke-width:0.5;" x="72.0" xlink:href="#m0012dd4eef" y="388.8"/>
      </g>
     </g>
     <g id="line2d_6">
      <defs>
       <path d="
M0 0
L0 4" id="m476344969c" style="stroke:#000000;stroke-linecap:butt;stroke-width:0.5;"/>
      </defs>
      <g>
       <use style="stroke:#000000;stroke-linecap:butt;stroke-width:0.5;" x="72.0" xlink:href="#m476344969c" y="43.2"/>
      </g>
     </g>
     <g id="text_1">
      <!-- 0 -->
      <defs>
       <path d="
M31.7812 66.4062
Q24.1719 66.4062 20.3281 58.9062
Q16.5 51.4219 16.5 36.375
Q16.5 21.3906 20.3281 13.8906
Q24.1719 6.39062 31.7812 6.39062
Q39.4531 6.39062 43.2812 13.8906
Q47.125 21.3906 47.125 36.375
Q47.125 51.4219 43.2812 58.9062
Q39.4531 66.4062 31.7812 66.4062
M31.7812 74.2188
Q44.0469 74.2188 50.5156 64.5156
Q56.9844 54.8281 56.9844 36.375
Q56.9844 17.9688 50.5156 8.26562
Q44.0469 -1.42188 31.7812 -1.42188
Q19.5312 -1.42188 13.0625 8.26562
Q6.59375 17.9688 6.59375 36.375
Q6.59375 54.8281 13.0625 64.5156
Q19.5312 74.2188 31.7812 74.2188" id="BitstreamVeraSans-Roman-30"/>
      </defs>
      <g transform="translate(68.9765625 401.70625)scale(0.12 -0.12)">
       <use xlink:href="#BitstreamVeraSans-Roman-30"/>
      </g>
     </g>
    </g>
    <g id="xtick_2">
     <g id="line2d_7">
      <path clip-path="url(#p7ff5b81e1d)" d="
M116.64 388.8
L116.64 43.2" style="fill:none;stroke:#000000;stroke-dasharray:1.000000,3.000000;stroke-dashoffset:0.0;stroke-linecap:butt;stroke-width:0.5;"/>
     </g>
     <g id="line2d_8">
      <g>
       <use style="stroke:#000000;stroke-linecap:butt;stroke-width:0.5;" x="116.64" xlink:href="#m0012dd4eef" y="388.8"/>
      </g>
     </g>
     <g id="line2d_9">
      <g>
       <use style="stroke:#000000;stroke-linecap:butt;stroke-width:0.5;" x="116.64" xlink:href="#m476344969c" y="43.2"/>
      </g>
     </g>
     <g id="text_2">
      <!-- 100 -->
      <defs>
       <path d="
M12.4062 8.29688
L28.5156 8.29688
L28.5156 63.9219
L10.9844 60.4062
L10.9844 69.3906
L28.4219 72.9062
L38.2812 72.9062
L38.2812 8.29688
L54.3906 8.29688
L54.3906 0
L12.4062 0
z
" id="BitstreamVeraSans-Roman-31"/>
      </defs>
      <g transform="translate(106.245 401.70625)scale(0.12 -0.12)">
       <use xlink:href="#BitstreamVeraSans-Roman-31"/>
       <use x="63.623046875" xlink:href="#BitstreamVeraSans-Roman-30"/>
       <use x="127.24609375" xlink:href="#BitstreamVeraSans-Roman-30"/>
      </g>
     </g>
    </g>
    <g id="xtick_3">
     <g id="line2d_10">
      <path clip-path="url(#p7ff5b81e1d)" d="
M161.28 388.8
L161.28 43.2" style="fill:none;stroke:#000000;stroke-dasharray:1.000000,3.000000;stroke-dashoffset:0.0;stroke-linecap:butt;stroke-width:0.5;"/>
     </g>
     <g id="line2d_11">
      <g>
       <use style="stroke:#000000;stroke-linecap:butt;stroke-width:0.5;" x="161.28" xlink:href="#m0012dd4eef" y="388.8"/>
      </g>
     </g>
     <g id="line2d_12">
      <g>
       <use style="stroke:#000000;stroke-linecap:butt;stroke-width:0.5;" x="161.28" xlink:href="#m476344969c" y="43.2"/>
      </g>
     </g>
     <g id="text_3">
      <!-- 200 -->
      <defs>
       <path d="
M19.1875 8.29688
L53.6094 8.29688
L53.6094 0
L7.32812 0
L7.32812 8.29688
Q12.9375 14.1094 22.625 23.8906
Q32.3281 33.6875 34.8125 36.5312
Q39.5469 41.8438 41.4219 45.5312
Q43.3125 49.2188 43.3125 52.7812
Q43.3125 58.5938 39.2344 62.25
Q35.1562 65.9219 28.6094 65.9219
Q23.9688 65.9219 18.8125 64.3125
Q13.6719 62.7031 7.8125 59.4219
L7.8125 69.3906
Q13.7656 71.7812 18.9375 73
Q24.125 74.2188 28.4219 74.2188
Q39.75 74.2188 46.4844 68.5469
Q53.2188 62.8906 53.2188 53.4219
Q53.2188 48.9219 51.5312 44.8906
Q49.8594 40.875 45.4062 35.4062
Q44.1875 33.9844 37.6406 27.2188
Q31.1094 20.4531 19.1875 8.29688" id="BitstreamVeraSans-Roman-32"/>
      </defs>
      <g transform="translate(150.665625 401.70625)scale(0.12 -0.12)">
       <use xlink:href="#BitstreamVeraSans-Roman-32"/>
       <use x="63.623046875" xlink:href="#BitstreamVeraSans-Roman-30"/>
       <use x="127.24609375" xlink:href="#BitstreamVeraSans-Roman-30"/>
      </g>
     </g>
    </g>
    <g id="xtick_4">
     <g id="line2d_13">
      <path clip-path="url(#p7ff5b81e1d)" d="
M205.92 388.8
L205.92 43.2" style="fill:none;stroke:#000000;stroke-dasharray:1.000000,3.000000;stroke-dashoffset:0.0;stroke-linecap:butt;stroke-width:0.5;"/>
     </g>
     <g id="line2d_14">
      <g>
       <use style="stroke:#000000;stroke-linecap:butt;stroke-width:0.5;" x="205.92" xlink:href="#m0012dd4eef" y="388.8"/>
      </g>
     </g>
     <g id="line2d_15">
      <g>
       <use style="stroke:#000000;stroke-linecap:butt;stroke-width:0.5;" x="205.92" xlink:href="#m476344969c" y="43.2"/>
      </g>
     </g>
     <g id="text_4">
      <!-- 300 -->
      <defs>
       <path d="
M40.5781 39.3125
Q47.6562 37.7969 51.625 33
Q55.6094 28.2188 55.6094 21.1875
Q55.6094 10.4062 48.1875 4.48438
Q40.7656 -1.42188 27.0938 -1.42188
Q22.5156 -1.42188 17.6562 -0.515625
Q12.7969 0.390625 7.625 2.20312
L7.625 11.7188
Q11.7188 9.32812 16.5938 8.10938
Q21.4844 6.89062 26.8125 6.89062
Q36.0781 6.89062 40.9375 10.5469
Q45.7969 14.2031 45.7969 21.1875
Q45.7969 27.6406 41.2812 31.2656
Q36.7656 34.9062 28.7188 34.9062
L20.2188 34.9062
L20.2188 43.0156
L29.1094 43.0156
Q36.375 43.0156 40.2344 45.9219
Q44.0938 48.8281 44.0938 54.2969
Q44.0938 59.9062 40.1094 62.9062
Q36.1406 65.9219 28.7188 65.9219
Q24.6562 65.9219 20.0156 65.0312
Q15.375 64.1562 9.8125 62.3125
L9.8125 71.0938
Q15.4375 72.6562 20.3438 73.4375
Q25.25 74.2188 29.5938 74.2188
Q40.8281 74.2188 47.3594 69.1094
Q53.9062 64.0156 53.9062 55.3281
Q53.9062 49.2656 50.4375 45.0938
Q46.9688 40.9219 40.5781 39.3125" id="BitstreamVeraSans-Roman-33"/>
      </defs>
      <g transform="translate(195.3234375 401.70625)scale(0.12 -0.12)">
       <use xlink:href="#BitstreamVeraSans-Roman-33"/>
       <use x="63.623046875" xlink:href="#BitstreamVeraSans-Roman-30"/>
       <use x="127.24609375" xlink:href="#BitstreamVeraSans-Roman-30"/>
      </g>
     </g>
    </g>
    <g id="xtick_5">
     <g id="line2d_16">
      <path clip-path="url(#p7ff5b81e1d)" d="
M250.56 388.8
L250.56 43.2" style="fill:none;stroke:#000000;stroke-dasharray:1.000000,3.000000;stroke-dashoffset:0.0;stroke-linecap:butt;stroke-width:0.5;"/>
     </g>
     <g id="line2d_17">
      <g>
       <use style="stroke:#000000;stroke-linecap:butt;stroke-width:0.5;" x="250.56" xlink:href="#m0012dd4eef" y="388.8"/>
      </g>
     </g>
     <g id="line2d_18">
      <g>
       <use style="stroke:#000000;stroke-linecap:butt;stroke-width:0.5;" x="250.56" xlink:href="#m476344969c" y="43.2"/>
      </g>
     </g>
     <g id="text_5">
      <!-- 400 -->
      <defs>
       <path d="
M37.7969 64.3125
L12.8906 25.3906
L37.7969 25.3906
z

M35.2031 72.9062
L47.6094 72.9062
L47.6094 25.3906
L58.0156 25.3906
L58.0156 17.1875
L47.6094 17.1875
L47.6094 0
L37.7969 0
L37.7969 17.1875
L4.89062 17.1875
L4.89062 26.7031
z
" id="BitstreamVeraSans-Roman-34"/>
      </defs>
      <g transform="translate(239.799375 401.70625)scale(0.12 -0.12)">
       <use xlink:href="#BitstreamVeraSans-Roman-34"/>
       <use x="63.623046875" xlink:href="#BitstreamVeraSans-Roman-30"/>
       <use x="127.24609375" xlink:href="#BitstreamVeraSans-Roman-30"/>
      </g>
     </g>
    </g>
    <g id="xtick_6">
     <g id="line2d_19">
      <path clip-path="url(#p7ff5b81e1d)" d="
M295.2 388.8
L295.2 43.2" style="fill:none;stroke:#000000;stroke-dasharray:1.000000,3.000000;stroke-dashoffset:0.0;stroke-linecap:butt;stroke-width:0.5;"/>
     </g>
     <g id="line2d_20">
      <g>
       <use style="stroke:#000000;stroke-linecap:butt;stroke-width:0.5;" x="295.2" xlink:href="#m0012dd4eef" y="388.8"/>
      </g>
     </g>
     <g id="line2d_21">
      <g>
       <use style="stroke:#000000;stroke-linecap:butt;stroke-width:0.5;" x="295.2" xlink:href="#m476344969c" y="43.2"/>
      </g>
     </g>
     <g id="text_6">
      <!-- 500 -->
      <defs>
       <path d="
M10.7969 72.9062
L49.5156 72.9062
L49.5156 64.5938
L19.8281 64.5938
L19.8281 46.7344
Q21.9688 47.4688 24.1094 47.8281
Q26.2656 48.1875 28.4219 48.1875
Q40.625 48.1875 47.75 41.5
Q54.8906 34.8125 54.8906 23.3906
Q54.8906 11.625 47.5625 5.09375
Q40.2344 -1.42188 26.9062 -1.42188
Q22.3125 -1.42188 17.5469 -0.640625
Q12.7969 0.140625 7.71875 1.70312
L7.71875 11.625
Q12.1094 9.23438 16.7969 8.0625
Q21.4844 6.89062 26.7031 6.89062
Q35.1562 6.89062 40.0781 11.3281
Q45.0156 15.7656 45.0156 23.3906
Q45.0156 31 40.0781 35.4375
Q35.1562 39.8906 26.7031 39.8906
Q22.75 39.8906 18.8125 39.0156
Q14.8906 38.1406 10.7969 36.2812
z
" id="BitstreamVeraSans-Roman-35"/>
      </defs>
      <g transform="translate(284.6090625 401.70625)scale(0.12 -0.12)">
       <use xlink:href="#BitstreamVeraSans-Roman-35"/>
       <use x="63.623046875" xlink:href="#BitstreamVeraSans-Roman-30"/>
       <use x="127.24609375" xlink:href="#BitstreamVeraSans-Roman-30"/>
      </g>
     </g>
    </g>
    <g id="xtick_7">
     <g id="line2d_22">
      <path clip-path="url(#p7ff5b81e1d)" d="
M339.84 388.8
L339.84 43.2" style="fill:none;stroke:#000000;stroke-dasharray:1.000000,3.000000;stroke-dashoffset:0.0;stroke-linecap:butt;stroke-width:0.5;"/>
     </g>
     <g id="line2d_23">
      <g>
       <use style="stroke:#000000;stroke-linecap:butt;stroke-width:0.5;" x="339.84" xlink:href="#m0012dd4eef" y="388.8"/>
      </g>
     </g>
     <g id="line2d_24">
      <g>
       <use style="stroke:#000000;stroke-linecap:butt;stroke-width:0.5;" x="339.84" xlink:href="#m476344969c" y="43.2"/>
      </g>
     </g>
     <g id="text_7">
      <!-- 600 -->
      <defs>
       <path d="
M33.0156 40.375
Q26.375 40.375 22.4844 35.8281
Q18.6094 31.2969 18.6094 23.3906
Q18.6094 15.5312 22.4844 10.9531
Q26.375 6.39062 33.0156 6.39062
Q39.6562 6.39062 43.5312 10.9531
Q47.4062 15.5312 47.4062 23.3906
Q47.4062 31.2969 43.5312 35.8281
Q39.6562 40.375 33.0156 40.375
M52.5938 71.2969
L52.5938 62.3125
Q48.875 64.0625 45.0938 64.9844
Q41.3125 65.9219 37.5938 65.9219
Q27.8281 65.9219 22.6719 59.3281
Q17.5312 52.7344 16.7969 39.4062
Q19.6719 43.6562 24.0156 45.9219
Q28.375 48.1875 33.5938 48.1875
Q44.5781 48.1875 50.9531 41.5156
Q57.3281 34.8594 57.3281 23.3906
Q57.3281 12.1562 50.6875 5.35938
Q44.0469 -1.42188 33.0156 -1.42188
Q20.3594 -1.42188 13.6719 8.26562
Q6.98438 17.9688 6.98438 36.375
Q6.98438 53.6562 15.1875 63.9375
Q23.3906 74.2188 37.2031 74.2188
Q40.9219 74.2188 44.7031 73.4844
Q48.4844 72.75 52.5938 71.2969" id="BitstreamVeraSans-Roman-36"/>
      </defs>
      <g transform="translate(329.205 401.70625)scale(0.12 -0.12)">
       <use xlink:href="#BitstreamVeraSans-Roman-36"/>
       <use x="63.623046875" xlink:href="#BitstreamVeraSans-Roman-30"/>
       <use x="127.24609375" xlink:href="#BitstreamVeraSans-Roman-30"/>
      </g>
     </g>
    </g>
    <g id="xtick_8">
     <g id="line2d_25">
      <path clip-path="url(#p7ff5b81e1d)" d="
M384.48 388.8
L384.48 43.2" style="fill:none;stroke:#000000;stroke-dasharray:1.000000,3.000000;stroke-dashoffset:0.0;stroke-linecap:butt;stroke-width:0.5;"/>
     </g>
     <g id="line2d_26">
      <g>
       <use style="stroke:#000000;stroke-linecap:butt;stroke-width:0.5;" x="384.48" xlink:href="#m0012dd4eef" y="388.8"/>
      </g>
     </g>
     <g id="line2d_27">
      <g>
       <use style="stroke:#000000;stroke-linecap:butt;stroke-width:0.5;" x="384.48" xlink:href="#m476344969c" y="43.2"/>
      </g>
     </g>
     <g id="text_8">
      <!-- 700 -->
      <defs>
       <path d="
M8.20312 72.9062
L55.0781 72.9062
L55.0781 68.7031
L28.6094 0
L18.3125 0
L43.2188 64.5938
L8.20312 64.5938
z
" id="BitstreamVeraSans-Roman-37"/>
      </defs>
      <g transform="translate(373.918125 401.70625)scale(0.12 -0.12)">
       <use xlink:href="#BitstreamVeraSans-Roman-37"/>
       <use x="63.623046875" xlink:href="#BitstreamVeraSans-Roman-30"/>
       <use x="127.24609375" xlink:href="#BitstreamVeraSans-Roman-30"/>
      </g>
     </g>
    </g>
    <g id="xtick_9">
     <g id="line2d_28">
      <path clip-path="url(#p7ff5b81e1d)" d="
M429.12 388.8
L429.12 43.2" style="fill:none;stroke:#000000;stroke-dasharray:1.000000,3.000000;stroke-dashoffset:0.0;stroke-linecap:butt;stroke-width:0.5;"/>
     </g>
     <g id="line2d_29">
      <g>
       <use style="stroke:#000000;stroke-linecap:butt;stroke-width:0.5;" x="429.12" xlink:href="#m0012dd4eef" y="388.8"/>
      </g>
     </g>
     <g id="line2d_30">
      <g>
       <use style="stroke:#000000;stroke-linecap:butt;stroke-width:0.5;" x="429.12" xlink:href="#m476344969c" y="43.2"/>
      </g>
     </g>
     <g id="text_9">
      <!-- 800 -->
      <defs>
       <path d="
M31.7812 34.625
Q24.75 34.625 20.7188 30.8594
Q16.7031 27.0938 16.7031 20.5156
Q16.7031 13.9219 20.7188 10.1562
Q24.75 6.39062 31.7812 6.39062
Q38.8125 6.39062 42.8594 10.1719
Q46.9219 13.9688 46.9219 20.5156
Q46.9219 27.0938 42.8906 30.8594
Q38.875 34.625 31.7812 34.625
M21.9219 38.8125
Q15.5781 40.375 12.0312 44.7188
Q8.5 49.0781 8.5 55.3281
Q8.5 64.0625 14.7188 69.1406
Q20.9531 74.2188 31.7812 74.2188
Q42.6719 74.2188 48.875 69.1406
Q55.0781 64.0625 55.0781 55.3281
Q55.0781 49.0781 51.5312 44.7188
Q48 40.375 41.7031 38.8125
Q48.8281 37.1562 52.7969 32.3125
Q56.7812 27.4844 56.7812 20.5156
Q56.7812 9.90625 50.3125 4.23438
Q43.8438 -1.42188 31.7812 -1.42188
Q19.7344 -1.42188 13.25 4.23438
Q6.78125 9.90625 6.78125 20.5156
Q6.78125 27.4844 10.7812 32.3125
Q14.7969 37.1562 21.9219 38.8125
M18.3125 54.3906
Q18.3125 48.7344 21.8438 45.5625
Q25.3906 42.3906 31.7812 42.3906
Q38.1406 42.3906 41.7188 45.5625
Q45.3125 48.7344 45.3125 54.3906
Q45.3125 60.0625 41.7188 63.2344
Q38.1406 66.4062 31.7812 66.4062
Q25.3906 66.4062 21.8438 63.2344
Q18.3125 60.0625 18.3125 54.3906" id="BitstreamVeraSans-Roman-38"/>
      </defs>
      <g transform="translate(418.4728125 401.70625)scale(0.12 -0.12)">
       <use xlink:href="#BitstreamVeraSans-Roman-38"/>
       <use x="63.623046875" xlink:href="#BitstreamVeraSans-Roman-30"/>
       <use x="127.24609375" xlink:href="#BitstreamVeraSans-Roman-30"/>
      </g>
     </g>
    </g>
    <g id="xtick_10">
     <g id="line2d_31">
      <path clip-path="url(#p7ff5b81e1d)" d="
M473.76 388.8
L473.76 43.2" style="fill:none;stroke:#000000;stroke-dasharray:1.000000,3.000000;stroke-dashoffset:0.0;stroke-linecap:butt;stroke-width:0.5;"/>
     </g>
     <g id="line2d_32">
      <g>
       <use style="stroke:#000000;stroke-linecap:butt;stroke-width:0.5;" x="473.76" xlink:href="#m0012dd4eef" y="388.8"/>
      </g>
     </g>
     <g id="line2d_33">
      <g>
       <use style="stroke:#000000;stroke-linecap:butt;stroke-width:0.5;" x="473.76" xlink:href="#m476344969c" y="43.2"/>
      </g>
     </g>
     <g id="text_10">
      <!-- 900 -->
      <defs>
       <path d="
M10.9844 1.51562
L10.9844 10.5
Q14.7031 8.73438 18.5 7.8125
Q22.3125 6.89062 25.9844 6.89062
Q35.75 6.89062 40.8906 13.4531
Q46.0469 20.0156 46.7812 33.4062
Q43.9531 29.2031 39.5938 26.9531
Q35.25 24.7031 29.9844 24.7031
Q19.0469 24.7031 12.6719 31.3125
Q6.29688 37.9375 6.29688 49.4219
Q6.29688 60.6406 12.9375 67.4219
Q19.5781 74.2188 30.6094 74.2188
Q43.2656 74.2188 49.9219 64.5156
Q56.5938 54.8281 56.5938 36.375
Q56.5938 19.1406 48.4062 8.85938
Q40.2344 -1.42188 26.4219 -1.42188
Q22.7031 -1.42188 18.8906 -0.6875
Q15.0938 0.046875 10.9844 1.51562
M30.6094 32.4219
Q37.25 32.4219 41.125 36.9531
Q45.0156 41.5 45.0156 49.4219
Q45.0156 57.2812 41.125 61.8438
Q37.25 66.4062 30.6094 66.4062
Q23.9688 66.4062 20.0938 61.8438
Q16.2188 57.2812 16.2188 49.4219
Q16.2188 41.5 20.0938 36.9531
Q23.9688 32.4219 30.6094 32.4219" id="BitstreamVeraSans-Roman-39"/>
      </defs>
      <g transform="translate(463.08375 401.70625)scale(0.12 -0.12)">
       <use xlink:href="#BitstreamVeraSans-Roman-39"/>
       <use x="63.623046875" xlink:href="#BitstreamVeraSans-Roman-30"/>
       <use x="127.24609375" xlink:href="#BitstreamVeraSans-Roman-30"/>
      </g>
     </g>
    </g>
   </g>
   <g id="matplotlib.axis_2">
    <g id="ytick_1">
     <g id="line2d_34">
      <path clip-path="url(#p7ff5b81e1d)" d="
M72 388.8
L518.4 388.8" style="fill:none;stroke:#000000;stroke-dasharray:1.000000,3.000000;stroke-dashoffset:0.0;stroke-linecap:butt;stroke-width:0.5;"/>
     </g>
     <g id="line2d_35">
      <defs>
       <path d="
M0 0
L4 0" id="me8a85f7bf6" style="stroke:#000000;stroke-linecap:butt;stroke-width:0.5;"/>
      </defs>
      <g>
       <use style="stroke:#000000;stroke-linecap:butt;stroke-width:0.5;" x="72.0" xlink:href="#me8a85f7bf6" y="388.8"/>
      </g>
     </g>
     <g id="line2d_36">
      <defs>
       <path d="
M0 0
L-4 0" id="m1a32005dea" style="stroke:#000000;stroke-linecap:butt;stroke-width:0.5;"/>
      </defs>
      <g>
       <use style="stroke:#000000;stroke-linecap:butt;stroke-width:0.5;" x="518.4" xlink:href="#m1a32005dea" y="388.8"/>
      </g>
     </g>
     <g id="text_11">
      <!-- 0.000 -->
      <defs>
       <path d="
M10.6875 12.4062
L21 12.4062
L21 0
L10.6875 0
z
" id="BitstreamVeraSans-Roman-2e"/>
      </defs>
      <g transform="translate(35.234375 393.1678125)scale(0.12 -0.12)">
       <use xlink:href="#BitstreamVeraSans-Roman-30"/>
       <use x="63.623046875" xlink:href="#BitstreamVeraSans-Roman-2e"/>
       <use x="95.41015625" xlink:href="#BitstreamVeraSans-Roman-30"/>
       <use x="159.033203125" xlink:href="#BitstreamVeraSans-Roman-30"/>
       <use x="222.65625" xlink:href="#BitstreamVeraSans-Roman-30"/>
      </g>
     </g>
    </g>
    <g id="ytick_2">
     <g id="line2d_37">
      <path clip-path="url(#p7ff5b81e1d)" d="
M72 354.24
L518.4 354.24" style="fill:none;stroke:#000000;stroke-dasharray:1.000000,3.000000;stroke-dashoffset:0.0;stroke-linecap:butt;stroke-width:0.5;"/>
     </g>
     <g id="line2d_38">
      <g>
       <use style="stroke:#000000;stroke-linecap:butt;stroke-width:0.5;" x="72.0" xlink:href="#me8a85f7bf6" y="354.24"/>
      </g>
     </g>
     <g id="line2d_39">
      <g>
       <use style="stroke:#000000;stroke-linecap:butt;stroke-width:0.5;" x="518.4" xlink:href="#m1a32005dea" y="354.24"/>
      </g>
     </g>
     <g id="text_12">
      <!-- 0.002 -->
      <g transform="translate(35.639375 358.6078125)scale(0.12 -0.12)">
       <use xlink:href="#BitstreamVeraSans-Roman-30"/>
       <use x="63.623046875" xlink:href="#BitstreamVeraSans-Roman-2e"/>
       <use x="95.41015625" xlink:href="#BitstreamVeraSans-Roman-30"/>
       <use x="159.033203125" xlink:href="#BitstreamVeraSans-Roman-30"/>
       <use x="222.65625" xlink:href="#BitstreamVeraSans-Roman-32"/>
      </g>
     </g>
    </g>
    <g id="ytick_3">
     <g id="line2d_40">
      <path clip-path="url(#p7ff5b81e1d)" d="
M72 319.68
L518.4 319.68" style="fill:none;stroke:#000000;stroke-dasharray:1.000000,3.000000;stroke-dashoffset:0.0;stroke-linecap:butt;stroke-width:0.5;"/>
     </g>
     <g id="line2d_41">
      <g>
       <use style="stroke:#000000;stroke-linecap:butt;stroke-width:0.5;" x="72.0" xlink:href="#me8a85f7bf6" y="319.68"/>
      </g>
     </g>
     <g id="line2d_42">
      <g>
       <use style="stroke:#000000;stroke-linecap:butt;stroke-width:0.5;" x="518.4" xlink:href="#m1a32005dea" y="319.68"/>
      </g>
     </g>
     <g id="text_13">
      <!-- 0.004 -->
      <g transform="translate(35.110625 324.0478125)scale(0.12 -0.12)">
       <use xlink:href="#BitstreamVeraSans-Roman-30"/>
       <use x="63.623046875" xlink:href="#BitstreamVeraSans-Roman-2e"/>
       <use x="95.41015625" xlink:href="#BitstreamVeraSans-Roman-30"/>
       <use x="159.033203125" xlink:href="#BitstreamVeraSans-Roman-30"/>
       <use x="222.65625" xlink:href="#BitstreamVeraSans-Roman-34"/>
      </g>
     </g>
    </g>
    <g id="ytick_4">
     <g id="line2d_43">
      <path clip-path="url(#p7ff5b81e1d)" d="
M72 285.12
L518.4 285.12" style="fill:none;stroke:#000000;stroke-dasharray:1.000000,3.000000;stroke-dashoffset:0.0;stroke-linecap:butt;stroke-width:0.5;"/>
     </g>
     <g id="line2d_44">
      <g>
       <use style="stroke:#000000;stroke-linecap:butt;stroke-width:0.5;" x="72.0" xlink:href="#me8a85f7bf6" y="285.12"/>
      </g>
     </g>
     <g id="line2d_45">
      <g>
       <use style="stroke:#000000;stroke-linecap:butt;stroke-width:0.5;" x="518.4" xlink:href="#m1a32005dea" y="285.12"/>
      </g>
     </g>
     <g id="text_14">
      <!-- 0.006 -->
      <g transform="translate(35.193125 289.4878125)scale(0.12 -0.12)">
       <use xlink:href="#BitstreamVeraSans-Roman-30"/>
       <use x="63.623046875" xlink:href="#BitstreamVeraSans-Roman-2e"/>
       <use x="95.41015625" xlink:href="#BitstreamVeraSans-Roman-30"/>
       <use x="159.033203125" xlink:href="#BitstreamVeraSans-Roman-30"/>
       <use x="222.65625" xlink:href="#BitstreamVeraSans-Roman-36"/>
      </g>
     </g>
    </g>
    <g id="ytick_5">
     <g id="line2d_46">
      <path clip-path="url(#p7ff5b81e1d)" d="
M72 250.56
L518.4 250.56" style="fill:none;stroke:#000000;stroke-dasharray:1.000000,3.000000;stroke-dashoffset:0.0;stroke-linecap:butt;stroke-width:0.5;"/>
     </g>
     <g id="line2d_47">
      <g>
       <use style="stroke:#000000;stroke-linecap:butt;stroke-width:0.5;" x="72.0" xlink:href="#me8a85f7bf6" y="250.56"/>
      </g>
     </g>
     <g id="line2d_48">
      <g>
       <use style="stroke:#000000;stroke-linecap:butt;stroke-width:0.5;" x="518.4" xlink:href="#m1a32005dea" y="250.56"/>
      </g>
     </g>
     <g id="text_15">
      <!-- 0.008 -->
      <g transform="translate(35.25875 254.9278125)scale(0.12 -0.12)">
       <use xlink:href="#BitstreamVeraSans-Roman-30"/>
       <use x="63.623046875" xlink:href="#BitstreamVeraSans-Roman-2e"/>
       <use x="95.41015625" xlink:href="#BitstreamVeraSans-Roman-30"/>
       <use x="159.033203125" xlink:href="#BitstreamVeraSans-Roman-30"/>
       <use x="222.65625" xlink:href="#BitstreamVeraSans-Roman-38"/>
      </g>
     </g>
    </g>
    <g id="ytick_6">
     <g id="line2d_49">
      <path clip-path="url(#p7ff5b81e1d)" d="
M72 216
L518.4 216" style="fill:none;stroke:#000000;stroke-dasharray:1.000000,3.000000;stroke-dashoffset:0.0;stroke-linecap:butt;stroke-width:0.5;"/>
     </g>
     <g id="line2d_50">
      <g>
       <use style="stroke:#000000;stroke-linecap:butt;stroke-width:0.5;" x="72.0" xlink:href="#me8a85f7bf6" y="216.0"/>
      </g>
     </g>
     <g id="line2d_51">
      <g>
       <use style="stroke:#000000;stroke-linecap:butt;stroke-width:0.5;" x="518.4" xlink:href="#m1a32005dea" y="216.0"/>
      </g>
     </g>
     <g id="text_16">
      <!-- 0.010 -->
      <g transform="translate(35.234375 220.3678125)scale(0.12 -0.12)">
       <use xlink:href="#BitstreamVeraSans-Roman-30"/>
       <use x="63.623046875" xlink:href="#BitstreamVeraSans-Roman-2e"/>
       <use x="95.41015625" xlink:href="#BitstreamVeraSans-Roman-30"/>
       <use x="159.033203125" xlink:href="#BitstreamVeraSans-Roman-31"/>
       <use x="222.65625" xlink:href="#BitstreamVeraSans-Roman-30"/>
      </g>
     </g>
    </g>
    <g id="ytick_7">
     <g id="line2d_52">
      <path clip-path="url(#p7ff5b81e1d)" d="
M72 181.44
L518.4 181.44" style="fill:none;stroke:#000000;stroke-dasharray:1.000000,3.000000;stroke-dashoffset:0.0;stroke-linecap:butt;stroke-width:0.5;"/>
     </g>
     <g id="line2d_53">
      <g>
       <use style="stroke:#000000;stroke-linecap:butt;stroke-width:0.5;" x="72.0" xlink:href="#me8a85f7bf6" y="181.44"/>
      </g>
     </g>
     <g id="line2d_54">
      <g>
       <use style="stroke:#000000;stroke-linecap:butt;stroke-width:0.5;" x="518.4" xlink:href="#m1a32005dea" y="181.44"/>
      </g>
     </g>
     <g id="text_17">
      <!-- 0.012 -->
      <g transform="translate(35.639375 185.8078125)scale(0.12 -0.12)">
       <use xlink:href="#BitstreamVeraSans-Roman-30"/>
       <use x="63.623046875" xlink:href="#BitstreamVeraSans-Roman-2e"/>
       <use x="95.41015625" xlink:href="#BitstreamVeraSans-Roman-30"/>
       <use x="159.033203125" xlink:href="#BitstreamVeraSans-Roman-31"/>
       <use x="222.65625" xlink:href="#BitstreamVeraSans-Roman-32"/>
      </g>
     </g>
    </g>
    <g id="ytick_8">
     <g id="line2d_55">
      <path clip-path="url(#p7ff5b81e1d)" d="
M72 146.88
L518.4 146.88" style="fill:none;stroke:#000000;stroke-dasharray:1.000000,3.000000;stroke-dashoffset:0.0;stroke-linecap:butt;stroke-width:0.5;"/>
     </g>
     <g id="line2d_56">
      <g>
       <use style="stroke:#000000;stroke-linecap:butt;stroke-width:0.5;" x="72.0" xlink:href="#me8a85f7bf6" y="146.88"/>
      </g>
     </g>
     <g id="line2d_57">
      <g>
       <use style="stroke:#000000;stroke-linecap:butt;stroke-width:0.5;" x="518.4" xlink:href="#m1a32005dea" y="146.88"/>
      </g>
     </g>
     <g id="text_18">
      <!-- 0.014 -->
      <g transform="translate(35.110625 151.2478125)scale(0.12 -0.12)">
       <use xlink:href="#BitstreamVeraSans-Roman-30"/>
       <use x="63.623046875" xlink:href="#BitstreamVeraSans-Roman-2e"/>
       <use x="95.41015625" xlink:href="#BitstreamVeraSans-Roman-30"/>
       <use x="159.033203125" xlink:href="#BitstreamVeraSans-Roman-31"/>
       <use x="222.65625" xlink:href="#BitstreamVeraSans-Roman-34"/>
      </g>
     </g>
    </g>
    <g id="ytick_9">
     <g id="line2d_58">
      <path clip-path="url(#p7ff5b81e1d)" d="
M72 112.32
L518.4 112.32" style="fill:none;stroke:#000000;stroke-dasharray:1.000000,3.000000;stroke-dashoffset:0.0;stroke-linecap:butt;stroke-width:0.5;"/>
     </g>
     <g id="line2d_59">
      <g>
       <use style="stroke:#000000;stroke-linecap:butt;stroke-width:0.5;" x="72.0" xlink:href="#me8a85f7bf6" y="112.32"/>
      </g>
     </g>
     <g id="line2d_60">
      <g>
       <use style="stroke:#000000;stroke-linecap:butt;stroke-width:0.5;" x="518.4" xlink:href="#m1a32005dea" y="112.32"/>
      </g>
     </g>
     <g id="text_19">
      <!-- 0.016 -->
      <g transform="translate(35.193125 116.6878125)scale(0.12 -0.12)">
       <use xlink:href="#BitstreamVeraSans-Roman-30"/>
       <use x="63.623046875" xlink:href="#BitstreamVeraSans-Roman-2e"/>
       <use x="95.41015625" xlink:href="#BitstreamVeraSans-Roman-30"/>
       <use x="159.033203125" xlink:href="#BitstreamVeraSans-Roman-31"/>
       <use x="222.65625" xlink:href="#BitstreamVeraSans-Roman-36"/>
      </g>
     </g>
    </g>
    <g id="ytick_10">
     <g id="line2d_61">
      <path clip-path="url(#p7ff5b81e1d)" d="
M72 77.76
L518.4 77.76" style="fill:none;stroke:#000000;stroke-dasharray:1.000000,3.000000;stroke-dashoffset:0.0;stroke-linecap:butt;stroke-width:0.5;"/>
     </g>
     <g id="line2d_62">
      <g>
       <use style="stroke:#000000;stroke-linecap:butt;stroke-width:0.5;" x="72.0" xlink:href="#me8a85f7bf6" y="77.76"/>
      </g>
     </g>
     <g id="line2d_63">
      <g>
       <use style="stroke:#000000;stroke-linecap:butt;stroke-width:0.5;" x="518.4" xlink:href="#m1a32005dea" y="77.76"/>
      </g>
     </g>
     <g id="text_20">
      <!-- 0.018 -->
      <g transform="translate(35.25875 82.1278125)scale(0.12 -0.12)">
       <use xlink:href="#BitstreamVeraSans-Roman-30"/>
       <use x="63.623046875" xlink:href="#BitstreamVeraSans-Roman-2e"/>
       <use x="95.41015625" xlink:href="#BitstreamVeraSans-Roman-30"/>
       <use x="159.033203125" xlink:href="#BitstreamVeraSans-Roman-31"/>
       <use x="222.65625" xlink:href="#BitstreamVeraSans-Roman-38"/>
      </g>
     </g>
    </g>
    <g id="text_21">
     <!-- Sec/file -->
     <defs>
      <path d="
M9.42188 75.9844
L18.4062 75.9844
L18.4062 0
L9.42188 0
z
" id="BitstreamVeraSans-Roman-6c"/>
      <path d="
M53.5156 70.5156
L53.5156 60.8906
Q47.9062 63.5781 42.9219 64.8906
Q37.9375 66.2188 33.2969 66.2188
Q25.25 66.2188 20.875 63.0938
Q16.5 59.9688 16.5 54.2031
Q16.5 49.3594 19.4062 46.8906
Q22.3125 44.4375 30.4219 42.9219
L36.375 41.7031
Q47.4062 39.5938 52.6562 34.2969
Q57.9062 29 57.9062 20.125
Q57.9062 9.51562 50.7969 4.04688
Q43.7031 -1.42188 29.9844 -1.42188
Q24.8125 -1.42188 18.9688 -0.25
Q13.1406 0.921875 6.89062 3.21875
L6.89062 13.375
Q12.8906 10.0156 18.6562 8.29688
Q24.4219 6.59375 29.9844 6.59375
Q38.4219 6.59375 43.0156 9.90625
Q47.6094 13.2344 47.6094 19.3906
Q47.6094 24.75 44.3125 27.7812
Q41.0156 30.8125 33.5 32.3281
L27.4844 33.5
Q16.4531 35.6875 11.5156 40.375
Q6.59375 45.0625 6.59375 53.4219
Q6.59375 63.0938 13.4062 68.6562
Q20.2188 74.2188 32.1719 74.2188
Q37.3125 74.2188 42.625 73.2812
Q47.9531 72.3594 53.5156 70.5156" id="BitstreamVeraSans-Roman-53"/>
      <path d="
M9.42188 54.6875
L18.4062 54.6875
L18.4062 0
L9.42188 0
z

M9.42188 75.9844
L18.4062 75.9844
L18.4062 64.5938
L9.42188 64.5938
z
" id="BitstreamVeraSans-Roman-69"/>
      <path d="
M25.3906 72.9062
L33.6875 72.9062
L8.29688 -9.28125
L0 -9.28125
z
" id="BitstreamVeraSans-Roman-2f"/>
      <path d="
M56.2031 29.5938
L56.2031 25.2031
L14.8906 25.2031
Q15.4844 15.9219 20.4844 11.0625
Q25.4844 6.20312 34.4219 6.20312
Q39.5938 6.20312 44.4531 7.46875
Q49.3125 8.73438 54.1094 11.2812
L54.1094 2.78125
Q49.2656 0.734375 44.1875 -0.34375
Q39.1094 -1.42188 33.8906 -1.42188
Q20.7969 -1.42188 13.1562 6.1875
Q5.51562 13.8125 5.51562 26.8125
Q5.51562 40.2344 12.7656 48.1094
Q20.0156 56 32.3281 56
Q43.3594 56 49.7812 48.8906
Q56.2031 41.7969 56.2031 29.5938
M47.2188 32.2344
Q47.125 39.5938 43.0938 43.9844
Q39.0625 48.3906 32.4219 48.3906
Q24.9062 48.3906 20.3906 44.1406
Q15.875 39.8906 15.1875 32.1719
z
" id="BitstreamVeraSans-Roman-65"/>
      <path d="
M37.1094 75.9844
L37.1094 68.5
L28.5156 68.5
Q23.6875 68.5 21.7969 66.5469
Q19.9219 64.5938 19.9219 59.5156
L19.9219 54.6875
L34.7188 54.6875
L34.7188 47.7031
L19.9219 47.7031
L19.9219 0
L10.8906 0
L10.8906 47.7031
L2.29688 47.7031
L2.29688 54.6875
L10.8906 54.6875
L10.8906 58.5
Q10.8906 67.625 15.1406 71.7969
Q19.3906 75.9844 28.6094 75.9844
z
" id="BitstreamVeraSans-Roman-66"/>
      <path d="
M48.7812 52.5938
L48.7812 44.1875
Q44.9688 46.2969 41.1406 47.3438
Q37.3125 48.3906 33.4062 48.3906
Q24.6562 48.3906 19.8125 42.8438
Q14.9844 37.3125 14.9844 27.2969
Q14.9844 17.2812 19.8125 11.7344
Q24.6562 6.20312 33.4062 6.20312
Q37.3125 6.20312 41.1406 7.25
Q44.9688 8.29688 48.7812 10.4062
L48.7812 2.09375
Q45.0156 0.34375 40.9844 -0.53125
Q36.9688 -1.42188 32.4219 -1.42188
Q20.0625 -1.42188 12.7812 6.34375
Q5.51562 14.1094 5.51562 27.2969
Q5.51562 40.6719 12.8594 48.3281
Q20.2188 56 33.0156 56
Q37.1562 56 41.1094 55.1406
Q45.0625 54.2969 48.7812 52.5938" id="BitstreamVeraSans-Roman-63"/>
     </defs>
     <g transform="translate(30.110625 236.13)rotate(-90.0)scale(0.12 -0.12)">
      <use xlink:href="#BitstreamVeraSans-Roman-53"/>
      <use x="63.4765625" xlink:href="#BitstreamVeraSans-Roman-65"/>
      <use x="125.0" xlink:href="#BitstreamVeraSans-Roman-63"/>
      <use x="179.98046875" xlink:href="#BitstreamVeraSans-Roman-2f"/>
      <use x="213.671875" xlink:href="#BitstreamVeraSans-Roman-66"/>
      <use x="248.876953125" xlink:href="#BitstreamVeraSans-Roman-69"/>
      <use x="276.66015625" xlink:href="#BitstreamVeraSans-Roman-6c"/>
      <use x="304.443359375" xlink:href="#BitstreamVeraSans-Roman-65"/>
     </g>
    </g>
   </g>
   <g id="patch_3">
    <path d="
M72 43.2
L518.4 43.2" style="fill:none;stroke:#000000;"/>
   </g>
   <g id="patch_4">
    <path d="
M518.4 388.8
L518.4 43.2" style="fill:none;stroke:#000000;"/>
   </g>
   <g id="patch_5">
    <path d="
M72 388.8
L518.4 388.8" style="fill:none;stroke:#000000;"/>
   </g>
   <g id="patch_6">
    <path d="
M72 388.8
L72 43.2" style="fill:none;stroke:#000000;"/>
   </g>
   <g id="legend_1">
    <g id="patch_7">
     <path d="
M429.055 115.339
L511.2 115.339
L511.2 50.4
L429.055 50.4
L429.055 115.339
z
" style="fill:#ffffff;stroke:#000000;"/>
    </g>
    <g id="line2d_64">
     <path d="
M439.135 62.0617
L459.295 62.0617" style="fill:none;stroke:#ff0000;"/>
    </g>
    <g id="line2d_65"/>
    <g id="text_22">
     <!-- LRU -->
     <defs>
      <path d="
M44.3906 34.1875
Q47.5625 33.1094 50.5625 29.5938
Q53.5625 26.0781 56.5938 19.9219
L66.6094 0
L56 0
L46.6875 18.7031
Q43.0625 26.0312 39.6719 28.4219
Q36.2812 30.8125 30.4219 30.8125
L19.6719 30.8125
L19.6719 0
L9.8125 0
L9.8125 72.9062
L32.0781 72.9062
Q44.5781 72.9062 50.7344 67.6719
Q56.8906 62.4531 56.8906 51.9062
Q56.8906 45.0156 53.6875 40.4688
Q50.4844 35.9375 44.3906 34.1875
M19.6719 64.7969
L19.6719 38.9219
L32.0781 38.9219
Q39.2031 38.9219 42.8438 42.2188
Q46.4844 45.5156 46.4844 51.9062
Q46.4844 58.2969 42.8438 61.5469
Q39.2031 64.7969 32.0781 64.7969
z
" id="BitstreamVeraSans-Roman-52"/>
      <path d="
M9.8125 72.9062
L19.6719 72.9062
L19.6719 8.29688
L55.1719 8.29688
L55.1719 0
L9.8125 0
z
" id="BitstreamVeraSans-Roman-4c"/>
      <path d="
M8.6875 72.9062
L18.6094 72.9062
L18.6094 28.6094
Q18.6094 16.8906 22.8438 11.7344
Q27.0938 6.59375 36.625 6.59375
Q46.0938 6.59375 50.3438 11.7344
Q54.5938 16.8906 54.5938 28.6094
L54.5938 72.9062
L64.5 72.9062
L64.5 27.3906
Q64.5 13.1406 57.4375 5.85938
Q50.3906 -1.42188 36.625 -1.42188
Q22.7969 -1.42188 15.7344 5.85938
Q8.6875 13.1406 8.6875 27.3906
z
" id="BitstreamVeraSans-Roman-55"/>
     </defs>
     <g transform="translate(475.13475 67.10175)scale(0.144 -0.144)">
      <use xlink:href="#BitstreamVeraSans-Roman-4c"/>
      <use x="55.712890625" xlink:href="#BitstreamVeraSans-Roman-52"/>
      <use x="125.1953125" xlink:href="#BitstreamVeraSans-Roman-55"/>
     </g>
    </g>
    <g id="line2d_66">
     <path d="
M439.135 83.1983
L459.295 83.1983" style="fill:none;opacity:0.7;stroke:#008000;"/>
    </g>
    <g id="line2d_67"/>
    <g id="text_23">
     <!-- MRU -->
     <defs>
      <path d="
M9.8125 72.9062
L24.5156 72.9062
L43.1094 23.2969
L61.8125 72.9062
L76.5156 72.9062
L76.5156 0
L66.8906 0
L66.8906 64.0156
L48.0938 14.0156
L38.1875 14.0156
L19.3906 64.0156
L19.3906 0
L9.8125 0
z
" id="BitstreamVeraSans-Roman-4d"/>
     </defs>
     <g transform="translate(475.13475 88.23825)scale(0.144 -0.144)">
      <use xlink:href="#BitstreamVeraSans-Roman-4d"/>
      <use x="86.279296875" xlink:href="#BitstreamVeraSans-Roman-52"/>
      <use x="155.76171875" xlink:href="#BitstreamVeraSans-Roman-55"/>
     </g>
    </g>
    <g id="line2d_68">
     <path d="
M439.135 104.335
L459.295 104.335" style="fill:none;opacity:0.5;stroke:#0000ff;"/>
    </g>
    <g id="line2d_69"/>
    <g id="text_24">
     <!-- FIFO -->
     <defs>
      <path d="
M9.8125 72.9062
L51.7031 72.9062
L51.7031 64.5938
L19.6719 64.5938
L19.6719 43.1094
L48.5781 43.1094
L48.5781 34.8125
L19.6719 34.8125
L19.6719 0
L9.8125 0
z
" id="BitstreamVeraSans-Roman-46"/>
      <path d="
M9.8125 72.9062
L19.6719 72.9062
L19.6719 0
L9.8125 0
z
" id="BitstreamVeraSans-Roman-49"/>
      <path d="
M39.4062 66.2188
Q28.6562 66.2188 22.3281 58.2031
Q16.0156 50.2031 16.0156 36.375
Q16.0156 22.6094 22.3281 14.5938
Q28.6562 6.59375 39.4062 6.59375
Q50.1406 6.59375 56.4219 14.5938
Q62.7031 22.6094 62.7031 36.375
Q62.7031 50.2031 56.4219 58.2031
Q50.1406 66.2188 39.4062 66.2188
M39.4062 74.2188
Q54.7344 74.2188 63.9062 63.9375
Q73.0938 53.6562 73.0938 36.375
Q73.0938 19.1406 63.9062 8.85938
Q54.7344 -1.42188 39.4062 -1.42188
Q24.0312 -1.42188 14.8125 8.82812
Q5.60938 19.0938 5.60938 36.375
Q5.60938 53.6562 14.8125 63.9375
Q24.0312 74.2188 39.4062 74.2188" id="BitstreamVeraSans-Roman-4f"/>
     </defs>
     <g transform="translate(475.13475 109.37475)scale(0.144 -0.144)">
      <use xlink:href="#BitstreamVeraSans-Roman-46"/>
      <use x="57.51953125" xlink:href="#BitstreamVeraSans-Roman-49"/>
      <use x="87.01171875" xlink:href="#BitstreamVeraSans-Roman-46"/>
      <use x="144.53125" xlink:href="#BitstreamVeraSans-Roman-4f"/>
     </g>
    </g>
   </g>
  </g>
 </g>
 <defs>
  <clipPath id="p7ff5b81e1d">
   <rect height="345.6" width="446.4" x="72.0" y="43.2"/>
  </clipPath>
 </defs>
</svg>
