<?xml version="1.0" encoding="utf-8" standalone="no"?>
<!DOCTYPE svg PUBLIC "-//W3C//DTD SVG 1.1//EN"
  "http://www.w3.org/Graphics/SVG/1.1/DTD/svg11.dtd">
<!-- Created with matplotlib (http://matplotlib.sourceforge.net/) -->
<svg height="432pt" version="1.1" viewBox="0 0 576 432" width="576pt" xmlns="http://www.w3.org/2000/svg" xmlns:xlink="http://www.w3.org/1999/xlink">
 <defs>
  <style type="text/css">
*{stroke-linecap:square;stroke-linejoin:round;}
  </style>
 </defs>
 <g id="figure_1">
  <g id="patch_1">
   <path d="
M0 432
L576 432
L576 0
L0 0
z
" style="fill:#ffffff;"/>
  </g>
  <g id="axes_1">
   <g id="patch_2">
    <path d="
M72 388.8
L518.4 388.8
L518.4 43.2
L72 43.2
z
" style="fill:#ffffff;"/>
   </g>
   <g id="line2d_1">
    <path clip-path="url(#p7ff5b81e1d)" d="
M72 147.818
L72.4464 89.0869
L72.8928 70.7172
L73.3392 65.0893
L73.7856 71.7305
L74.6784 45.5703
L75.1248 50.0846
L75.5712 95.5373
L76.0176 188.986
L76.464 71.0463
L76.9104 192.92
L77.3568 75.6521
L77.8032 188.502
L78.2496 185.83
L78.696 92.0918
L79.1424 184.911
L79.5888 209.374
L80.0352 76.3314
L80.4816 192.434
L80.928 69.5147
L81.3744 86.9599
L81.8208 204.996
L82.2672 86.9849
L82.7136 71.4301
L83.16 80.5271
L83.6064 191.921
L84.0528 99.3157
L84.9456 285.967
L85.392 193.425
L85.8384 205.249
L86.2848 75.0743
L86.7312 193.505
L87.1776 85.4073
L87.624 85.4034
L88.0704 190.414
L88.5168 192.687
L88.9632 82.2536
L89.4096 286.776
L89.856 189.89
L90.3024 187.15
L90.7488 187.035
L91.1952 186.677
L91.6416 191.511
L92.088 193.732
L92.5344 163.092
L92.9808 184.519
L93.4272 175.235
L93.8736 189.389
L94.32 183.882
L94.7664 170.292
L95.2128 201.087
L95.6592 176.675
L96.1056 189.203
L96.552 186.908
L96.9984 189.272
L97.4448 190.58
L98.3376 187.847
L98.784 187.492
L99.2304 183.156
L99.6768 186.32
L100.123 185.32
L100.57 192.86
L101.016 183.585
L101.462 188.366
L101.909 189.837
L102.355 181.663
L102.802 189.666
L103.248 189.523
L103.694 187.042
L104.141 188.787
L104.587 188.295
L105.034 185.762
L105.48 187.48
L105.926 193.259
L106.373 187.982
L106.819 188.166
L107.266 185.528
L107.712 189.475
L108.158 187.164
L108.605 189.082
L109.051 186.641
L109.498 188.559
L109.944 188.05
L110.39 185.915
L110.837 292.454
L111.283 188.56
L111.73 190.313
L112.176 189.631
L112.622 185.833
L113.069 167.331
L113.515 182.64
L113.962 192.702
L114.408 187.333
L114.854 189.681
L115.301 77.5898
L115.747 193.512
L116.194 189.321
L116.64 189.095
L117.086 131.403
L117.533 204.555
L117.979 187.821
L118.426 190.51
L118.872 190.978
L119.318 191.612
L120.211 191.646
L120.658 189.565
L121.104 185.891
L121.55 186.886
L121.997 185.352
L122.443 189.391
L122.89 184.501
L123.336 183.18
L123.782 188.064
L124.229 186.086
L125.122 191.098
L125.568 189.218
L126.014 168.474
L126.461 184.98
L126.907 188.33
L127.354 192.908
L127.8 189.913
L128.246 191.171
L128.693 185.107
L129.139 189.726
L129.586 183.908
L130.032 188.146
L130.478 187.305
L130.925 189.103
L131.371 186.815
L131.818 189.426
L132.264 184.869
L132.71 187.608
L133.157 188.977
L133.603 188.191
L134.05 164.874
L134.496 186.035
L134.942 191.027
L135.389 187.059
L135.835 192.552
L136.282 178.449
L136.728 152.194
L137.174 189.874
L137.621 185.07
L138.514 190.744
L138.96 188.163
L139.406 187.498
L139.853 187.741
L140.299 186.284
L140.746 187.787
L141.192 187.202
L141.638 189.188
L142.085 186.315
L142.531 188.077
L142.978 186.412
L143.424 189.461
L143.87 186.858
L144.317 190.007
L144.763 168.005
L145.21 191.395
L145.656 180.496
L146.102 192.748
L146.549 187.897
L146.995 191.325
L147.442 185.896
L147.888 184.278
L148.334 171.268
L148.781 192.281
L149.227 182.522
L149.674 181.636
L150.12 183.548
L150.566 179.82
L151.013 181.31
L151.459 183.826
L151.906 183.116
L152.352 182.684
L152.798 139.585
L153.245 183.572
L153.691 187.015
L154.138 181.558
L154.584 181.282
L155.03 184.496
L155.477 160.549
L155.923 178.586
L156.37 185.134
L156.816 181.318
L157.262 181.105
L157.709 183.418
L158.155 144.983
L158.602 182.081
L159.048 186.662
L159.494 181.611
L159.941 183.839
L160.387 182.956
L160.834 186.965
L161.28 185.099
L161.726 178.971
L162.173 183.702
L162.619 182.133
L163.066 181.867
L163.512 147.916
L163.958 182.069
L164.405 184.264
L164.851 188.191
L165.298 181.621
L165.744 186.841
L166.19 180.913
L167.083 184.431
L167.976 180.695
L168.422 181.613
L168.869 164.807
L169.315 185.126
L169.762 173.551
L170.208 184.173
L170.654 185.303
L171.101 184.384
L171.547 143.593
L171.994 182.814
L172.44 183.008
L172.886 184.562
L173.333 187.365
L173.779 183.477
L174.226 286.264
L174.672 182.248
L175.118 186.979
L176.011 185.21
L176.458 181.251
L176.904 183.395
L177.35 178.569
L177.797 142.071
L178.243 186.514
L178.69 186.677
L179.136 285.464
L179.582 184.682
L180.029 184.085
L180.475 185.086
L180.922 179.952
L181.368 186.114
L181.814 184.292
L182.261 184.079
L182.707 185.853
L183.154 182.531
L183.6 182.914
L184.046 138.064
L184.493 183.677
L184.939 182.801
L185.386 184.49
L185.832 182.678
L186.278 174.518
L186.725 187.013
L187.171 175.251
L187.618 182.611
L188.064 187.422
L188.51 181.61
L188.957 177.682
L189.403 181.333
L190.296 177.551
L190.742 178.823
L191.189 174.374
L191.635 172.893
L192.082 175.605
L192.974 178.484
L193.421 175.332
L193.867 176.198
L194.314 145.493
L194.76 163.806
L195.206 177.352
L195.653 176.689
L196.099 174.654
L196.546 179.625
L196.992 272.977
L197.438 177.979
L197.885 180.678
L198.331 173.878
L198.778 178.867
L199.224 175.402
L199.67 174.932
L200.117 175.567
L200.563 177.095
L201.01 176.606
L201.456 176.522
L201.902 281.701
L202.349 177.191
L202.795 178.058
L203.242 174.076
L203.688 179.117
L204.134 180.298
L204.581 173.061
L205.027 178.9
L205.474 175.762
L205.92 177.291
L206.366 179.521
L206.813 168.446
L207.259 175.517
L207.706 173.044
L208.152 178.577
L208.598 173.993
L209.045 177.391
L209.491 280.763
L209.938 180.189
L210.384 174.65
L210.83 176.161
L211.277 175.819
L211.723 177.119
L212.17 178.832
L212.616 176.132
L213.509 176.282
L213.955 175.565
L214.402 125.02
L214.848 179.376
L215.294 177.529
L215.741 179.397
L216.187 176.795
L216.634 178.397
L217.08 175.694
L217.526 177.767
L217.973 173.478
L218.419 181.03
L218.866 174.964
L219.312 144.466
L219.758 159.444
L220.205 180.062
L220.651 178.675
L221.098 178.222
L221.544 178.186
L221.99 281.856
L222.437 179.803
L222.883 179.572
L223.33 178.352
L223.776 179.679
L224.222 173.716
L224.669 176.225
L225.115 174.361
L225.562 176.177
L226.008 177.345
L226.454 175.876
L226.901 283.675
L227.347 174.321
L227.794 195.463
L228.24 132.512
L228.686 175.765
L229.133 139.955
L229.579 177.604
L230.026 174.919
L230.472 180.167
L230.918 176.702
L231.365 171.763
L231.811 179.258
L232.258 177.262
L232.704 177.832
L233.15 175.793
L233.597 175.336
L234.043 281.959
L234.49 177.775
L234.936 176.76
L235.382 175.362
L235.829 177.01
L236.275 172.784
L236.722 175.859
L237.168 136.784
L237.614 174.885
L238.061 179.793
L238.507 180.178
L238.954 280.963
L239.4 177.408
L239.846 172.8
L240.293 172.654
L240.739 172.012
L241.186 169.618
L242.078 171.919
L242.525 169.994
L242.971 170.332
L243.418 169.8
L243.864 280.433
L244.31 169.638
L244.757 172.958
L245.203 169.119
L245.65 170.906
L246.096 280.581
L246.542 169.777
L246.989 172.858
L247.435 171.414
L247.882 171.562
L248.328 172.241
L248.774 171.054
L249.221 169.162
L249.667 170.054
L250.114 170.576
L250.56 171.719
L251.006 282.078
L251.453 169.601
L251.899 172.806
L252.346 135.48
L252.792 170.197
L253.238 280.702
L253.685 170.148
L254.131 172.43
L254.578 176.385
L255.024 167.971
L255.47 136.649
L255.917 169.618
L256.363 170.728
L256.81 174.893
L257.256 171.728
L257.702 170.689
L258.149 279.881
L258.595 169.802
L259.488 172.638
L259.934 183.362
L260.381 312.395
L260.827 158.059
L261.274 171.683
L261.72 169.401
L262.166 172.715
L262.613 172.241
L263.059 170.041
L263.506 173.134
L263.952 171.816
L264.398 168.619
L264.845 170.885
L265.291 281.358
L265.738 173.455
L266.184 170.966
L266.63 172.189
L267.077 171.56
L267.523 279.805
L267.97 172.175
L268.416 162.867
L268.862 171.413
L269.309 173.783
L269.755 170.109
L270.202 173.2
L270.648 170.189
L271.094 165.752
L271.541 169.589
L271.987 169.996
L272.434 279.686
L272.88 171.854
L273.326 170.373
L273.773 172.326
L274.219 167.483
L274.666 280.263
L275.112 168.732
L275.558 171.767
L276.005 132.707
L276.451 174.859
L276.898 284.171
L277.344 162.434
L277.79 159.583
L278.237 159.894
L278.683 162.722
L279.13 138.183
L279.576 160.053
L280.022 162.783
L280.915 160.66
L281.362 277.775
L281.808 164.028
L282.254 162.497
L282.701 164.039
L283.147 162.018
L283.594 278.493
L284.04 161.563
L284.486 155.681
L284.933 165.018
L285.379 33.6842
L285.826 249.106
L286.272 162.14
L287.165 160.377
L287.611 86.0166
L288.058 209.582
L288.504 160.206
L288.95 158.809
L289.843 162.97
L290.29 158.716
L290.736 159.304
L291.182 157.655
L291.629 161.382
L292.075 154.591
L292.522 157.296
L292.968 120.705
L293.414 159.989
L293.861 160.567
L294.307 160.36
L294.754 163.738
L295.2 161.164
L295.646 159.675
L296.093 155.672
L296.539 154.499
L296.986 157.221
L297.432 158.972
L297.878 154.369
L298.325 160.27
L298.771 156.851
L299.218 156.677
L299.664 158.014
L300.11 157.003
L300.557 159.222
L301.003 151.741
L301.45 154.891
L301.896 159.842
L302.342 157.232
L302.789 157.006
L303.235 155.741
L303.682 155.984
L304.128 160.059
L304.574 156.211
L305.021 156.213
L305.467 153.66
L305.914 158.09
L306.36 159.135
L306.806 156.824
L307.253 159.337
L307.699 156.619
L308.146 159.225
L308.592 157.666
L309.038 152.106
L309.485 118.89
L309.931 161.212
L310.378 160.846
L310.824 159.839
L311.27 160.283
L311.717 160.237
L312.163 155.797
L312.61 155.976
L313.056 158.225
L313.502 157.033
L313.949 158.024
L314.395 156.051
L314.842 155.258
L315.288 157.291
L315.734 158.543
L316.181 145.03
L316.627 166.416
L317.52 152.858
L317.966 124.538
L318.413 162.87
L318.859 158.111
L319.306 159.139
L319.752 160.633
L320.198 159.749
L320.645 158.575
L321.091 156.475
L321.538 156.292
L321.984 158.939
L322.43 156.036
L322.877 161.543
L323.323 154.05
L323.77 157.6
L324.216 156.651
L324.662 159.489
L325.109 154.899
L325.555 156.467
L326.002 156.254
L326.448 117.9
L326.894 157.668
L327.341 158.894
L327.787 157.282
L328.234 160.992
L328.68 158.269
L329.126 157.75
L329.573 150.944
L330.019 163.513
L330.466 156.655
L331.358 158.179
L331.805 158.61
L332.251 159.405
L333.144 158.053
L333.59 158.794
L334.037 95.8627
L334.483 180.287
L334.93 160.468
L335.376 158.228
L335.822 160.896
L336.269 159.277
L336.715 160.162
L337.162 156.101
L337.608 155.683
L338.054 157.394
L338.501 153.45
L338.947 145.308
L339.394 146.845
L339.84 145.873
L340.286 147.403
L340.733 147.232
L341.179 143.78
L342.072 147.385
L342.518 140.273
L342.965 113.876
L343.411 145.259
L343.858 150.621
L344.304 148.848
L344.75 149.354
L345.197 150.132
L345.643 143.424
L346.09 147.437
L346.536 148.831
L346.982 145.551
L347.429 146.422
L347.875 145.246
L348.768 147.878
L349.214 148.373
L349.661 148.658
L350.107 141.685
L350.554 147.92
L351 143.414
L351.446 110.755
L351.893 147.527
L352.339 117.526
L352.786 148.511
L353.232 150.756
L353.678 149.809
L354.125 149.608
L354.571 145.511
L355.018 151.109
L355.464 149.105
L355.91 148.736
L356.357 149.189
L356.803 145.191
L357.25 148.918
L357.696 147.929
L358.142 147.278
L358.589 149.119
L359.035 125.146
L359.482 150.254
L359.928 142.232
L360.374 148.801
L361.267 149.957
L361.714 149.987
L362.16 148.63
L362.606 148.6
L363.499 144.265
L364.392 149.012
L364.838 147.685
L365.285 147.346
L365.731 125.828
L366.178 145.667
L366.624 149.909
L367.07 151.564
L367.517 147.907
L367.963 125.704
L368.41 148.84
L368.856 147.997
L369.302 150.705
L369.749 148.562
L370.195 149.402
L370.642 152.574
L371.088 161.143
L371.534 211.945
L371.981 219.981
L372.427 222.265
L372.874 241.558
L373.32 308.044
L373.766 227.854
L374.213 224.19
L374.659 223.495
L375.106 227.928
L375.552 227.311
L375.998 227.341
L376.445 226.978
L376.891 227.962
L377.338 225.568
L377.784 224.653
L378.23 227.639
L378.677 223.265
L379.123 223.17
L379.57 226.513
L380.016 223.23
L380.462 224.223
L380.909 226.214
L381.355 225.118
L381.802 222.198
L382.248 225.396
L382.694 224.455
L383.141 224.155
L383.587 227.877
L384.034 226.383
L384.48 224.203
L384.926 226.225
L385.373 222.251
L385.819 225.269
L386.266 223.706
L386.712 227.617
L387.158 224.281
L387.605 223.106
L388.051 228.159
L388.498 224.244
L389.39 228.002
L389.837 226.373
L390.283 226.87
L390.73 225.133
L391.176 225.822
L391.622 193.121
L392.069 297.028
L392.515 243.646
L392.962 208.897
L393.408 227.661
L393.854 222.429
L394.301 229.018
L394.747 224.407
L395.194 227.742
L395.64 224.307
L396.086 225.187
L396.533 229.241
L396.979 223.752
L397.426 228.223
L397.872 224.416
L398.318 227.118
L398.765 224.303
L399.211 229.035
L400.104 223.64
L400.55 226.01
L400.997 225.488
L401.443 224.605
L401.89 226.414
L402.336 226.386
L402.782 228.481
L403.229 223.466
L403.675 227.015
L404.122 223.705
L404.568 227.536
L405.014 225.057
L405.461 227.74
L405.907 225.005
L406.354 225.182
L406.8 227.009
L407.246 226.161
L407.693 224.019
L408.139 227.637
L408.586 225.025
L409.032 230.219
L409.478 225.497
L409.925 226.186
L410.371 219.51
L410.818 300.525
L411.264 226.051
L411.71 227.037
L412.157 227.6
L412.603 222.93
L413.05 227.935
L413.496 225.572
L413.942 226.461
L414.389 225.981
L414.835 225.921
L415.282 219.615
L415.728 227.254
L416.174 222.945
L416.621 222.382
L417.067 223.173
L417.514 226.959
L417.96 225.067
L418.406 226.908
L418.853 226.198
L419.746 226.516
L420.192 224.525
L420.638 227.271
L421.531 223.477
L421.978 225.58
L422.424 225.881
L422.87 228.091
L423.317 224.823
L423.763 224.44
L424.21 225.516
L424.656 223.834
L425.102 224.896
L425.549 223.376
L425.995 225.408
L426.888 226.053
L427.334 224.907
L427.781 225.406
L428.227 222.464
L428.674 226.576
L429.12 222.101
L429.566 226.493
L430.013 221.9
L430.459 226.238
L430.906 225.91
L431.352 225.294
L431.798 227.495
L432.245 222.888
L432.691 226.058
L433.138 225.734
L433.584 221.743
L434.03 189.689
L434.477 246.872
L434.923 209.6
L435.37 223.537
L435.816 225.494
L436.262 228.249
L436.709 229.823
L437.155 226.392
L437.602 229.884
L438.048 225.335
L438.941 221.68
L439.387 223.072
L440.28 224.717
L440.726 223.003
L441.173 222.091
L441.619 221.86
L442.066 223.706
L442.512 223.902
L442.958 223.156
L443.405 221.08
L443.851 223.246
L444.298 221.338
L444.744 222.486
L445.19 224.464
L445.637 224.192
L446.083 223.093
L446.53 226.856
L446.976 222.865
L447.422 223.213
L447.869 224.384
L448.315 222.772
L448.762 225.329
L449.208 223.878
L449.654 224.826
L450.101 223.246
L450.547 224.634
L450.994 222.623
L451.44 225.676
L452.333 221.907
L452.779 223.033
L453.226 221.728
L453.672 226.184
L454.118 216.119
L454.565 228.601
L455.011 219.37
L455.458 224.243
L455.904 223.527
L456.35 215.798
L456.797 219.75
L457.243 218.895
L457.69 225.205
L458.136 226.307
L458.582 222.983
L459.029 223.405
L459.475 223.08
L459.922 225.916
L460.368 220.6
L460.814 310.43
L461.261 217.645
L461.707 208.896
L462.154 206.941
L462.6 226.515
L463.046 227.363
L463.493 223.934
L463.939 225.835
L464.386 226.591
L464.832 223.241
L465.278 225.348
L465.725 225.07
L466.171 221.177
L466.618 213.498
L467.064 222.095
L467.51 224.389
L467.957 224.353
L468.403 220.601
L468.85 223.878
L469.296 221.346
L469.742 224.114
L470.189 223.056
L470.635 226.119
L471.082 221.623
L471.528 224.69
L471.974 223.811
L472.421 224.886
L472.867 220.153
L473.314 225.27
L473.76 221.916
L474.206 222.836
L474.653 221.45
L475.099 224.82
L475.546 224.492
L475.992 222.885
L476.885 225.047
L477.331 224.051
L477.778 225.725
L478.224 220.472
L478.67 224.572
L479.117 220.625
L479.563 224.611
L480.01 224.545
L480.456 225.715
L480.902 224.088
L481.795 223.414
L482.242 219.264
L483.134 223.434
L484.027 219.771
L484.474 219.52
L484.92 220.329
L485.366 218.397
L485.813 219.715
L486.259 221.878
L486.706 221.953
L487.152 223.338
L487.598 219.123
L488.045 223.576
L488.491 216.45
L488.938 218.384
L489.384 218.369
L489.83 219.095
L490.277 219.136
L490.723 221.401
L491.17 221.303
L491.616 215.856
L492.062 221.191
L492.509 221.269
L492.955 222.987
L493.848 220.944
L494.294 220.902
L494.741 215.868
L495.187 219.395
L495.634 221.735
L496.08 222.015
L496.526 219.468
L496.973 218.279
L497.419 222.936
L497.866 218.048
L498.312 219.831
L498.758 219.533
L499.205 221.981
L499.651 218.927
L500.098 220.816
L500.544 221.395
L500.99 217.878
L501.437 220.444
L501.883 221.974
L502.33 222.349
L502.776 220.086
L503.222 220.712
L503.669 223.21
L504.115 216.723
L504.562 221.089
L505.008 219.893
L505.454 222.133
L505.901 218.504
L506.347 222.489
L506.794 221.477
L507.24 215.577
L507.686 220.405
L508.133 219.809
L508.579 219.4
L509.026 220.701
L509.472 222.441
L509.918 221.937
L510.365 216.446
L510.811 222.012
L511.258 220.965
L511.704 220.278
L512.15 218.169
L512.597 237.32
L513.043 231.452
L513.49 220.914
L513.936 220.808
L514.382 223.156
L514.829 220.115
L515.275 220.05
L515.722 220.382
L516.168 220.105
L516.614 220.836
L517.061 218.695
L517.507 221.818
L517.954 220.219
L517.954 220.219" style="fill:none;stroke:#ff0000;"/>
   </g>
   <g id="line2d_2">
    <path clip-path="url(#p7ff5b81e1d)" d="
M72 193.364
L72.4464 103.09
L72.8928 74.2067
L73.3392 53.1112
L73.7856 93.422
L74.232 100.658
L74.6784 66.2292
L75.1248 91.0166
L75.5712 89.164
L76.0176 102.477
L76.464 214.076
L76.9104 202.504
L77.3568 76.6675
L77.8032 117.553
L78.2496 98.161
L78.696 212.74
L79.1424 197.128
L79.5888 68.9515
L80.0352 190.475
L80.4816 220.165
L80.928 93.9375
L81.3744 207.5
L81.8208 89.9432
L82.2672 197.925
L82.7136 209.566
L83.16 62.7584
L83.6064 200.977
L84.0528 95.8581
L84.4992 97.3867
L84.9456 211.703
L85.392 206.12
L85.8384 179.761
L86.2848 225.591
L86.7312 205.675
L87.1776 205.817
L87.624 213.766
L88.0704 205.564
L88.5168 187.653
L88.9632 219.411
L89.4096 202.648
L89.856 314.056
L90.3024 185.659
L90.7488 220.154
L91.1952 196.354
L91.6416 210.715
L92.088 86.3118
L92.5344 60.9536
L92.9808 213.144
L93.4272 202.941
L93.8736 178.746
L94.32 227.88
L94.7664 292.903
L95.2128 209.499
L95.6592 216.467
L96.1056 198.936
L96.552 208.24
L96.9984 199.329
L97.4448 214.911
L98.3376 204.067
L98.784 183.342
L99.2304 199.92
L99.6768 206.275
L100.123 199.602
L100.57 218.561
L101.016 205.509
L101.462 200.397
L101.909 211.617
L102.355 206.121
L102.802 197.884
L103.248 197.698
L103.694 198.955
L104.141 206.15
L104.587 205.01
L105.034 213.187
L105.48 200.806
L105.926 209.221
L106.373 213.606
L106.819 205.101
L107.266 180.124
L107.712 228.904
L108.158 195.713
L108.605 183.262
L109.051 210.827
L109.498 209.396
L109.944 198.923
L110.39 201.013
L110.837 210.172
L111.283 205.155
L111.73 211.761
L112.176 204.875
L112.622 200.361
L113.069 206.59
L113.515 83.9656
L113.962 203.033
L114.408 217.408
L114.854 202.414
L115.301 177.879
L115.747 231.275
L116.194 204.166
L116.64 202.001
L117.086 215.358
L117.533 202.842
L117.979 142.947
L118.426 250.7
L118.872 205.477
L119.318 298.672
L119.765 216.642
L120.211 198.812
L120.658 204.98
L121.104 201.215
L121.55 208.35
L121.997 202.66
L122.443 193.28
L122.89 207.964
L123.336 202.772
L123.782 206.939
L124.229 215.499
L124.675 201.791
L125.122 299.452
L125.568 200.707
L126.014 209.141
L126.461 195.174
L126.907 198.058
L127.354 207.593
L127.8 293.733
L128.246 222.851
L128.693 190.176
L129.586 220.786
L130.032 198.829
L130.478 202.171
L130.925 207.163
L131.371 172.386
L131.818 210.202
L132.264 199.271
L132.71 205.507
L133.157 205.51
L134.05 212.993
L134.496 207.465
L134.942 207.233
L135.389 224.821
L135.835 194.957
L136.282 197.179
L136.728 220.323
L137.174 190.711
L138.067 220.914
L138.514 197.095
L138.96 182.984
L139.406 292.072
L139.853 219.975
L140.299 206.173
L140.746 196.659
L141.192 206.149
L141.638 207.301
L142.085 292.521
L142.531 205.482
L142.978 217.966
L143.424 194.1
L143.87 213.796
L144.317 194.293
L144.763 305.627
L145.21 195.605
L145.656 204.133
L146.102 203.204
L146.549 211.631
L146.995 214.473
L147.442 190.179
L147.888 195.729
L148.334 205.489
L148.781 221.555
L149.227 192.332
L149.674 215.768
L150.12 197.354
L150.566 206.705
L151.013 210.423
L151.459 220.804
L151.906 159.297
L152.352 213.734
L152.798 207.402
L153.245 298.955
L153.691 202.58
L154.138 218.011
L154.584 198.968
L155.03 199.06
L155.477 209.86
L156.37 206.847
L156.816 205.591
L157.262 197.528
L157.709 210.58
L158.155 175.936
L159.048 207.838
L159.494 203.532
L159.941 216.822
L160.387 159.817
L160.834 207.966
L161.28 196.76
L161.726 202.092
L162.173 195.729
L162.619 210.57
L163.066 177.854
L163.512 211.507
L163.958 199.291
L164.405 193.313
L164.851 211.138
L165.298 194.339
L165.744 142.438
L166.19 210.047
L166.637 195.392
L167.083 207.258
L167.53 161.92
L167.976 206.507
L168.422 187.111
L168.869 198.049
L169.315 196.64
L169.762 204.443
L170.208 202.844
L170.654 175.468
L171.101 175.411
L171.547 196.579
L171.994 196.618
L172.44 201.239
L172.886 202.908
L173.333 197.866
L173.779 175.313
L174.226 217.737
L174.672 196.987
L175.118 196.554
L175.565 194.778
L176.011 180.04
L176.904 198.011
L177.35 197.278
L177.797 202.968
L178.243 205.365
L178.69 197.132
L179.136 171.333
L179.582 218.051
L180.029 197.804
L180.475 198.812
L180.922 180.863
L181.814 189.635
L182.261 197.43
L182.707 199.358
L183.154 202.249
L183.6 203.115
L184.046 188.172
L184.493 189.599
L184.939 199.084
L185.386 197.849
L185.832 194.567
L186.278 206.765
L186.725 167.029
L187.171 188.325
L187.618 197.055
L188.064 195.643
L188.51 202.789
L188.957 204.871
L189.85 193.736
L190.296 191.306
L190.742 195.002
L191.189 197.363
L191.635 192.186
L192.082 170.849
L192.528 191.744
L192.974 195.669
L193.421 198.241
L193.867 204.779
L194.314 204.903
L194.76 190.693
L195.206 184.318
L195.653 213.487
L196.099 194.402
L196.546 192.505
L196.992 206.869
L197.438 184.615
L197.885 168.668
L198.331 194.282
L198.778 197.092
L199.224 207.228
L199.67 187.735
L200.117 160.053
L200.563 204.417
L201.01 205.583
L201.456 186.182
L201.902 207.994
L202.349 200.133
L202.795 188.343
L203.242 192.374
L203.688 201.98
L204.134 197.132
L204.581 200.266
L205.027 206.503
L205.92 180.778
L206.366 210.264
L206.813 195.023
L207.259 196.258
L207.706 166.573
L208.152 201.262
L208.598 188.733
L209.045 202.908
L209.491 192.268
L209.938 198.987
L210.384 197.958
L210.83 176.187
L211.723 197.606
L212.17 196.242
L212.616 199.859
L213.062 206.744
L213.509 195.84
L213.955 141.308
L214.402 213.153
L214.848 196.686
L215.741 200.739
L216.187 208.695
L216.634 179.064
L217.08 207.088
L217.973 192.775
L218.419 213.724
L219.312 157.665
L219.758 200.12
L220.205 199.262
L221.098 203.579
L221.544 196.352
L221.99 180.441
L222.437 210.077
L222.883 192.665
L223.33 197.998
L223.776 196.289
L224.222 200.93
L224.669 180.796
L225.115 209.485
L225.562 197.56
L226.008 194.921
L226.454 218.736
L227.347 172.569
L227.794 219.066
L228.24 195.523
L229.133 190.618
L229.579 193.675
L230.026 179.007
L230.472 194.157
L230.918 198.025
L231.365 208.856
L231.811 200.252
L232.258 196.555
L232.704 179.217
L233.15 209.862
L234.043 188.245
L234.49 211.945
L234.936 194.67
L235.382 141.606
L235.829 212.989
L236.275 193.411
L236.722 201.716
L237.168 206.633
L237.614 196.446
L238.061 180.828
L238.507 209.872
L238.954 196.105
L240.293 185.762
L240.739 185.054
L241.186 198.193
L241.632 200.359
L242.078 205.081
L242.971 190.009
L243.864 202.205
L244.31 194.186
L244.757 191.099
L245.203 198.165
L245.65 176.034
L246.096 185.533
L246.542 199.222
L246.989 193.217
L247.435 202.854
L247.882 204.903
L248.328 193.484
L248.774 119.45
L249.221 232.933
L249.667 196.943
L250.114 200.562
L250.56 208.534
L251.006 199.614
L251.453 178.978
L251.899 208.189
L252.346 197.274
L252.792 193.85
L253.238 202.083
L253.685 197.543
L254.131 196.894
L254.578 194.973
L255.024 197.92
L255.47 199.657
L255.917 166.107
L256.363 203.55
L256.81 187.405
L257.256 198.685
L257.702 197.114
L258.149 203.035
L258.595 203.697
L259.042 173.552
L259.488 178.586
L259.934 197.221
L260.381 194.565
L260.827 205.138
L261.274 202.948
L261.72 197.266
L262.166 182.887
L262.613 208.552
L263.059 193.927
L263.506 195.359
L263.952 194.24
L264.398 179.076
L265.291 196.628
L265.738 196.582
L266.63 208.325
L267.077 195.145
L267.523 169.274
L267.97 216.405
L268.416 185.878
L268.862 203.601
L269.309 183.165
L269.755 186.991
L270.202 187.155
L270.648 196.784
L271.094 197.472
L271.541 203.651
L271.987 205.104
L272.434 195.188
L272.88 172.488
L273.326 222.92
L273.773 190.206
L274.219 197.849
L274.666 165.656
L275.112 201.495
L275.558 190.298
L276.005 197.244
L276.451 198.982
L276.898 192.663
L277.344 199.268
L277.79 188.327
L278.237 197.646
L278.683 189.348
L279.13 203.658
L279.576 196.62
L280.022 207.854
L280.915 179.565
L281.362 206.742
L281.808 197.283
L282.254 195.206
L282.701 208.584
L283.594 182.205
L284.04 211.486
L284.486 216.424
L284.933 202.126
L285.379 203.841
L285.826 196.118
L286.272 193.041
L286.718 198.097
L287.165 196.771
L287.611 196.172
L288.058 197.114
L288.504 196.451
L288.95 167.718
L289.397 196.293
L289.843 195.051
L290.29 203.432
L290.736 205.449
L291.182 197.173
L291.629 181.521
L292.075 206.845
L292.522 195.244
L292.968 197.233
L293.414 195.516
L293.861 178.311
L294.754 196.953
L295.2 193.02
L295.646 208.012
L296.093 198.755
L296.539 180.232
L296.986 214.426
L297.432 204.476
L297.878 184.662
L298.325 195.311
L298.771 165.996
L299.218 189.328
L299.664 190.32
L300.11 209.281
L300.557 196.476
L301.003 202.088
L301.45 184.426
L301.896 216.196
L302.342 181.113
L302.789 207.01
L303.235 196.931
L303.682 194.919
L304.128 197.223
L304.574 180.439
L305.467 197.24
L305.914 194.247
L306.36 203.645
L306.806 206.175
L307.253 196.982
L307.699 130.498
L308.146 218.576
L308.592 197.844
L309.038 201.973
L309.485 197.394
L309.931 201.203
L310.378 196.842
L310.824 202.581
L311.27 198.494
L311.717 198.065
L312.163 202.963
L313.056 166.637
L313.502 183.066
L313.949 203.672
L314.395 202.58
L314.842 197.947
L315.288 194.943
L315.734 179.452
L316.181 205.502
L316.627 191.913
L317.074 191.179
L317.52 201.954
L317.966 172.478
L318.413 173.982
L318.859 215.003
L319.306 184.634
L319.752 195.329
L320.198 196.244
L320.645 185.468
L321.091 193.894
L321.538 210.621
L321.984 180.054
L322.43 196.44
L323.323 195.861
L323.77 139.734
L324.216 207.883
L324.662 194.005
L325.109 198.116
L325.555 195.019
L326.002 204.488
L326.448 173.635
L326.894 207.896
L327.341 194.157
L327.787 194.241
L328.234 163.279
L328.68 201.704
L329.126 182.83
L329.573 197.099
L330.019 191.761
L330.466 199.663
L330.912 191.867
L331.358 198.296
L331.805 174.884
L332.251 209.121
L332.698 192.54
L333.144 192.928
L333.59 164.093
L334.037 195.807
L334.483 180.14
L334.93 200.793
L335.376 192.453
L335.822 204.957
L336.269 187.835
L336.715 128.876
L337.162 219.158
L337.608 205.625
L338.054 186.377
L338.501 199.93
L338.947 197.366
L339.394 196.52
L339.84 175.329
L340.286 207.762
L340.733 191.536
L341.179 189.729
L341.626 192.642
L342.072 175.737
L342.518 183.222
L342.965 194.398
L343.411 194.986
L343.858 201.011
L344.304 203.989
L344.75 188.125
L345.197 178.385
L345.643 203.496
L346.09 194.721
L346.536 189.479
L346.982 165.832
L347.429 188.935
L347.875 203.506
L348.322 197.022
L348.768 178.361
L349.214 197.849
L349.661 204.074
L350.554 167.678
L351 214.267
L351.446 188.897
L351.893 204.95
L352.786 177.534
L353.232 206.532
L353.678 183.266
L354.125 203.26
L354.571 191.346
L355.018 189.826
L355.464 154.616
L355.91 193.769
L356.357 193.124
L356.803 190.637
L357.25 197.461
L357.696 196.873
L358.142 190.54
L358.589 175.913
L359.035 203.512
L359.482 189.389
L359.928 190.35
L360.374 188.659
L360.821 171.127
L361.714 191.845
L362.16 188.7
L362.606 193.621
L363.053 193.191
L363.499 194.744
L363.946 138.428
L364.392 209.367
L364.838 184.987
L365.285 196.264
L365.731 169.592
L366.178 181.925
L366.624 189.301
L367.07 211.413
L367.517 173.415
L367.963 195.257
L368.41 177.497
L368.856 207.885
L369.302 135.361
L369.749 205.371
L370.195 191.281
L370.642 194.105
L371.088 202.163
L371.534 193.26
L371.981 173.228
L372.427 203.735
L372.874 189.847
L373.32 184.01
L373.766 180.798
L374.213 211.06
L374.659 117.804
L375.106 233.088
L375.552 165.896
L375.998 191.249
L376.445 200.149
L377.338 191.21
L377.784 173.028
L378.23 204.765
L378.677 188.89
L379.123 199.575
L379.57 183.145
L380.016 161.853
L380.462 189.875
L380.909 187.514
L381.355 197.84
L381.802 200.706
L382.248 190.681
L382.694 175.341
L383.141 204.287
L383.587 191.925
L384.034 188.604
L384.48 161.18
L384.926 197.544
L385.373 194.04
L385.819 180.903
L386.266 178.916
L386.712 183.058
L387.158 200.918
L387.605 181.841
L388.051 194.162
L388.498 185.821
L388.944 197.051
L389.39 193.024
L389.837 181.249
L390.283 207.251
L390.73 166.07
L391.176 209.905
L391.622 191.375
L392.069 193.497
L392.515 191.986
L392.962 175.422
L393.408 173.115
L393.854 188.253
L394.301 191.208
L394.747 204.587
L395.194 184.015
L395.64 201.593
L396.086 173.295
L396.533 202.026
L396.979 186.514
L397.872 194.825
L398.318 134.85
L398.765 204.845
L399.211 206.392
L399.658 182.635
L400.104 202.38
L400.55 197.087
L401.443 183.104
L401.89 192.281
L402.336 192.47
L402.782 187.175
L403.229 159.606
L403.675 190.465
L404.122 167.006
L404.568 196.468
L405.014 189.188
L405.461 195.871
L405.907 197.071
L406.354 181.833
L406.8 174.966
L407.246 197.463
L407.693 183.131
L408.139 191.104
L408.586 182.41
L409.032 156.573
L409.478 186.455
L409.925 204.42
L410.371 175.871
L410.818 197.657
L411.264 184.445
L411.71 181.028
L412.157 166.223
L412.603 186.101
L413.05 188.995
L413.496 195.438
L413.942 198.49
L414.835 172.544
L415.282 197.873
L415.728 182.331
L416.174 198.101
L416.621 181.441
L417.067 130.999
L417.514 204.528
L417.96 187.408
L418.406 187.915
L418.853 197.651
L419.299 197.359
L419.746 186.585
L420.192 173.111
L420.638 199.09
L421.085 187.189
L421.531 184.599
L421.978 153.244
L422.424 189.329
L422.87 191.346
L423.317 191.388
L423.763 153.641
L424.21 199.005
L424.656 186.132
L425.102 179.247
L425.549 188.625
L425.995 202.868
L426.442 169.681
L426.888 191.881
L427.334 190.179
L427.781 184.622
L428.227 180.684
L428.674 195.028
L429.12 188.602
L429.566 187.531
L430.013 173.057
L430.459 182.56
L430.906 174.733
L431.352 190.611
L431.798 186.135
L432.245 199.448
L432.691 188.412
L433.138 172.72
L433.584 198.006
L434.03 177.744
L434.477 196.332
L434.923 174.89
L435.37 199.016
L435.816 175.466
L436.262 186.629
L436.709 190.477
L437.155 302.111
L437.602 176.202
L438.048 186.6
L438.494 182.489
L438.941 198.325
L439.387 181.632
L439.834 189.332
L440.28 188.006
L440.726 191.353
L441.173 185.881
L441.619 185.871
L442.066 186.119
L442.512 185.859
L442.958 176.781
L443.405 203.879
L443.851 173.929
L444.298 198.138
L444.744 183.277
L445.19 184.646
L445.637 200.294
L446.083 181.846
L446.53 172.953
L446.976 201.807
L447.422 185.806
L447.869 186.525
L448.315 180.379
L448.762 169.209
L449.208 197.541
L449.654 180.843
L450.101 171.088
L450.547 202.392
L451.44 174.917
L451.886 196.331
L452.333 197.228
L452.779 187.471
L453.226 189.677
L453.672 194.303
L454.118 184.934
L454.565 165.226
L455.011 205.311
L455.458 184.528
L455.904 187.882
L456.35 171.876
L456.797 182.907
L457.243 169.405
L457.69 188.777
L458.136 167.691
L458.582 186.431
L459.029 178.316
L459.475 183.1
L459.922 181.856
L460.368 182.314
L460.814 150.975
L461.261 186.893
L461.707 193.9
L462.154 184.544
L462.6 170.834
L463.046 187.237
L463.493 175.84
L463.939 167.861
L464.386 177.989
L464.832 196.389
L465.278 187.51
L465.725 169.158
L466.171 183.596
L466.618 184.243
L467.064 181.063
L467.51 186.361
L467.957 164.26
L468.403 196.344
L468.85 177.597
L469.296 177.02
L469.742 163.872
L470.189 169.686
L470.635 179.758
L471.082 178.12
L471.528 284.443
L471.974 194.978
L472.867 170.669
L473.314 184.711
L473.76 170.697
L474.206 171.8
L474.653 194.498
L475.099 192.672
L475.546 159.778
L475.992 195.931
L476.438 181.368
L476.885 179.539
L477.778 186.737
L478.224 180.657
L478.67 184.694
L479.117 160.178
L479.563 195.023
L480.456 173.089
L480.902 182.532
L481.349 200.972
L481.795 152.446
L482.242 163.35
L482.688 177.052
L483.134 185.293
L483.581 183.391
L484.027 172.365
L484.474 301.858
L484.92 137.082
L485.366 181.725
L485.813 187.433
L486.259 181.987
L486.706 182.087
L487.152 186.698
L487.598 180.923
L488.045 190.113
L488.491 168.104
L488.938 188.794
L489.384 146.546
L489.83 175.414
L490.277 179.058
L490.723 178.183
L491.17 188.516
L491.616 196.123
L492.062 169.471
L492.509 184.735
L492.955 168.975
L493.402 202.032
L493.848 166.972
L494.294 191.983
L494.741 157.497
L495.187 193.594
L496.08 168.789
L496.526 182.801
L496.973 176.476
L497.419 194.271
L497.866 182.367
L498.312 142.689
L498.758 199.126
L499.205 170.776
L499.651 181.855
L500.098 293.77
L500.544 182.528
L500.99 195.488
L501.437 172.857
L501.883 179.787
L502.33 175.265
L502.776 152.894
L503.222 176.665
L503.669 175.034
L504.115 179.035
L504.562 166.026
L505.008 283.272
L505.454 176.859
L505.901 173.146
L506.347 149.709
L506.794 174.753
L507.24 142.624
L507.686 185.52
L508.133 176.014
L508.579 163.299
L509.026 176.007
L509.472 145.158
L509.918 290.539
L510.365 182.312
L510.811 179.277
L511.258 165.015
L511.704 171.367
L512.15 179.958
L512.597 174.812
L513.043 162.995
L513.49 192.731
L513.936 172.301
L514.382 164.941
L514.829 299.774
L515.275 161.975
L515.722 175.595
L516.168 172.529
L516.614 181.643
L517.061 149.757
L517.507 176.651
L517.954 162.854
L517.954 162.854" style="fill:none;opacity:0.7;stroke:#008000;"/>
   </g>
   <g id="line2d_3">
    <path clip-path="url(#p7ff5b81e1d)" d="
M72 195.75
L72.4464 87.122
L72.8928 194.093
L73.3392 197.152
L73.7856 93.4967
L74.232 157.478
L74.6784 73.4414
L75.1248 197.667
L75.5712 63.4509
L76.0176 185.659
L76.464 94.8102
L76.9104 94.8988
L77.3568 95.9886
L77.8032 92.511
L78.2496 199.529
L78.696 198.227
L79.1424 94.4774
L79.5888 191.441
L80.0352 93.5661
L80.4816 94.7172
L80.928 89.4892
L81.3744 158.414
L81.8208 289.883
L82.2672 197.942
L82.7136 198.235
L83.16 94.6952
L83.6064 92.7765
L84.0528 199.51
L84.4992 118.027
L84.9456 200.761
L85.392 195.487
L85.8384 194.764
L86.2848 189.896
L86.7312 90.7695
L87.1776 192.655
L87.624 90.8328
L88.0704 193.595
L88.5168 189.776
L88.9632 193.934
L89.4096 195.291
L89.856 191.156
L90.3024 161.808
L90.7488 192.897
L91.1952 193.394
L91.6416 190.751
L92.088 197.933
L92.5344 193.348
L92.9808 196.76
L93.4272 193.661
L93.8736 94.6095
L94.32 190.68
L94.7664 196.36
L95.2128 91.9124
L95.6592 192.509
L96.1056 189.962
L96.552 90.1107
L96.9984 193.338
L97.4448 196.019
L97.8912 191.775
L98.3376 196.51
L98.784 182.367
L99.2304 190.686
L99.6768 194.868
L100.123 195.969
L100.57 194.727
L101.016 196.494
L101.462 196.241
L101.909 197.989
L102.355 192.591
L103.248 196.6
L104.141 190.185
L104.587 192.374
L105.034 88.8816
L105.48 197.443
L105.926 195.037
L106.373 289.868
L106.819 194.185
L107.266 196.71
L107.712 194.023
L108.158 194.206
L108.605 196.251
L109.051 195.079
L109.498 195.924
L109.944 194.452
L110.39 197.377
L110.837 195.244
L111.283 195.219
L111.73 190.091
L112.176 192.932
L112.622 198.143
L113.069 194.351
L113.515 194.675
L113.962 194.766
L114.408 190.147
L114.854 197.509
L115.301 195.728
L115.747 192.406
L116.194 195.98
L116.64 193.18
L117.086 186.903
L117.533 205.76
L117.979 195.904
L118.426 191.841
L118.872 190.033
L119.318 193.67
L119.765 193.878
L120.211 197.572
L121.104 189.455
L121.997 188.376
L122.443 194.378
L122.89 188.64
L123.336 193.654
L123.782 194.802
L124.675 193.926
L125.122 191.345
L125.568 195.165
L126.014 192.259
L126.461 193.194
L126.907 196.089
L127.354 189.959
L127.8 188.568
L128.246 153.07
L128.693 193.6
L129.139 191.118
L129.586 194.298
L130.032 192.459
L130.925 192.981
L131.371 193.335
L131.818 191.874
L132.264 191.128
L132.71 177.748
L133.157 203.431
L133.603 189.725
L134.05 192.505
L134.496 194.13
L134.942 192.174
L135.389 187.701
L135.835 192.981
L136.282 194.107
L136.728 191.044
L137.174 138.829
L137.621 207.032
L138.067 183.264
L138.514 191.368
L138.96 191.342
L139.406 197.656
L140.299 192.998
L140.746 186.879
L141.192 191.742
L141.638 189.394
L142.085 193.825
L142.531 193.891
L142.978 192.385
L143.424 189.57
L143.87 188.903
L144.317 193.087
L144.763 190.233
L145.21 190.701
L145.656 189.725
L146.102 191.759
L146.549 192.276
L146.995 188.223
L147.442 153.361
L148.334 222.531
L148.781 187.499
L149.227 191.052
L149.674 191.835
L150.12 193.354
L150.566 193.296
L151.459 187.846
L151.906 192.107
L152.352 190.907
L152.798 192.457
L153.245 193.177
L153.691 190.854
L154.138 192.29
L154.584 191.176
L155.03 191.783
L155.477 186.065
L155.923 158.393
L156.37 194.452
L156.816 192.038
L157.262 193.07
L157.709 193.35
L158.155 194.383
L158.602 194.177
L159.048 193.033
L159.494 190.635
L160.387 191.951
L160.834 190.627
L161.28 190.716
L161.726 184.961
L162.173 188.232
L162.619 190.008
L163.066 192.737
L163.512 191.922
L163.958 211.578
L164.405 194.931
L164.851 190.3
L165.298 191.777
L165.744 187.501
L166.19 156.888
L166.637 192.422
L167.083 191.466
L167.53 176.917
L167.976 191.251
L168.422 194.409
L168.869 191.62
L169.315 192.721
L169.762 196.097
L170.208 191.43
L170.654 194.386
L171.101 192.299
L171.547 191.367
L171.994 193.879
L172.886 190.8
L173.779 192.946
L174.226 191.251
L174.672 191.392
L175.118 186.883
L175.565 188.33
L176.011 189.109
L176.458 188.909
L176.904 188.946
L177.35 187.563
L177.797 186.682
L178.243 188.715
L178.69 189.505
L179.136 187.458
L179.582 188.228
L180.029 186.812
L180.475 188.972
L180.922 171.596
L181.368 185.004
L181.814 190.554
L182.261 190.596
L182.707 191.258
L183.154 192.563
L183.6 187.244
L184.046 190.681
L184.493 186.54
L184.939 152.312
L185.386 189.929
L185.832 186.303
L186.278 190.588
L186.725 188.534
L187.171 191.873
L187.618 188.868
L188.51 188.102
L188.957 183.271
L189.403 188.09
L189.85 186.44
L190.296 186.571
L190.742 191.402
L191.189 188.007
L191.635 188.817
L192.082 186.181
L192.528 188.932
L192.974 189.953
L193.421 135.289
L193.867 202.536
L194.314 188.334
L194.76 190.549
L195.206 189.617
L195.653 192.506
L196.099 189.117
L196.546 191.167
L196.992 187.891
L197.438 188.391
L197.885 190.658
L198.331 187.363
L198.778 189.723
L199.224 180.159
L199.67 166.015
L200.117 185.082
L200.563 192.445
L201.01 189.906
L201.456 191.239
L201.902 191.107
L202.349 171.709
L202.795 192.24
L203.242 185.082
L204.134 191.783
L204.581 192.214
L205.027 189.59
L205.474 188.167
L205.92 190.004
L206.366 187.539
L206.813 188.673
L207.259 190.24
L207.706 183.506
L208.152 187.101
L208.598 186.689
L209.045 187.665
L209.491 190.73
L209.938 187.054
L210.384 169.328
L210.83 184.224
L211.277 187.87
L211.723 180.916
L212.17 167.627
L212.616 189.452
L213.062 186.365
L213.509 187.852
L213.955 188.521
L214.402 191.517
L214.848 182.454
L215.294 198.753
L215.741 184.833
L216.187 189.698
L216.634 186.297
L217.08 185.951
L217.526 188.295
L217.973 187.149
L218.419 168.098
L218.866 183.932
L219.312 190.11
L219.758 187.295
L220.205 192.89
L220.651 185.88
L221.098 186.849
L221.544 187.051
L221.99 188.755
L222.437 185.27
L222.883 189.243
L223.33 185.76
L223.776 188.57
L224.222 186.609
L224.669 187.353
L225.115 185.735
L225.562 186.095
L226.008 186.149
L226.454 185.15
L226.901 184.556
L227.347 189.284
L228.24 188.291
L228.686 190.384
L229.133 168.746
L229.579 183.127
L230.026 189.78
L230.472 185.535
L230.918 190.624
L231.365 188.997
L231.811 185.926
L232.258 187.815
L232.704 184.482
L233.15 179.91
L233.597 126.511
L234.49 282.71
L234.936 181.707
L235.382 188.532
L235.829 181.609
L236.275 184.243
L236.722 183.799
L237.614 182.07
L238.061 183.1
L238.507 181.568
L238.954 181.092
L239.4 163.88
L239.846 179.997
L240.293 183.221
L240.739 185.31
L241.186 183.916
L241.632 181.152
L242.078 184.871
L242.971 182.902
L243.418 182.577
L243.864 184.18
L244.31 179.262
L244.757 179.662
L245.203 182.969
L245.65 180.704
L246.096 181.835
L246.542 178.769
L246.989 182.172
L247.435 176.602
L247.882 299.793
L248.328 182.08
L248.774 184.372
L249.221 183.08
L249.667 182.657
L250.114 177.227
L250.56 181.997
L251.006 183.218
L251.453 182.644
L251.899 181.732
L252.346 182.071
L252.792 178.441
L253.238 181.159
L253.685 181.943
L254.131 180.852
L254.578 182.47
L255.024 169.116
L255.47 186.677
L255.917 180.335
L256.363 184.654
L256.81 182.793
L257.256 182.9
L257.702 178.759
L258.149 160.04
L258.595 179.561
L259.042 180.219
L259.488 187.026
L259.934 182.944
L260.381 183.889
L260.827 149.11
L261.274 182.735
L261.72 180.331
L262.166 183.792
L262.613 188.597
L263.059 172.511
L263.506 284.953
L263.952 180.176
L264.398 184.825
L264.845 186.467
L265.291 183.043
L265.738 181.943
L266.184 185.875
L266.63 186.026
L267.077 180.212
L267.523 180.089
L267.97 182.868
L268.416 160.128
L268.862 177.71
L269.309 185.885
L269.755 185.584
L270.202 185.111
L271.094 177.922
L271.541 185.019
L271.987 182.551
L272.434 183.539
L272.88 181.143
L273.326 184.283
L273.773 179.667
L274.219 180.718
L275.112 178.046
L275.558 175.661
L276.005 175.662
L276.451 176.123
L276.898 176.773
L277.344 176.593
L277.79 177.29
L278.683 171.255
L279.13 285.794
L279.576 172.876
L280.022 176.455
L280.915 175.395
L281.362 179.027
L281.808 174.899
L282.254 179.882
L282.701 175.621
L283.147 175.193
L283.594 175.715
L284.04 124.509
L284.486 287.67
L284.933 178.169
L285.379 178.511
L285.826 176.656
L286.272 179.951
L286.718 173.825
L287.165 178.209
L287.611 174.791
L288.058 176.263
L288.504 175.536
L288.95 282.069
L289.397 176.752
L289.843 179.002
L290.29 175.685
L290.736 178.157
L291.182 161.444
L291.629 171.63
L292.075 178.281
L292.522 177.244
L292.968 175.863
L293.414 178.869
L293.861 281.906
L294.307 174.038
L294.754 179.144
L295.2 181.74
L295.646 166.602
L296.093 159.347
L296.986 180.781
L297.432 177.376
L297.878 176.207
L298.325 180.051
L298.771 284.888
L299.218 177.266
L299.664 176.02
L300.11 179.1
L300.557 175.4
L301.003 178.895
L301.45 175.821
L301.896 176.354
L302.342 174.369
L302.789 178.537
L303.235 177.287
L303.682 283.387
L304.128 174.097
L304.574 175.196
L305.021 177.138
L305.467 176.91
L305.914 173.771
L306.36 178.291
L306.806 178.633
L307.253 173.292
L307.699 176.15
L308.146 175.757
L308.592 284.027
L309.038 175.813
L309.485 173.95
L309.931 181.037
L310.824 175.4
L311.27 177.294
L311.717 176.655
L312.163 168.153
L312.61 141.839
L313.056 175.163
L313.502 281.211
L313.949 179.078
L314.395 176.775
L314.842 177.984
L315.288 178.801
L315.734 175.466
L316.181 179.063
L316.627 177.386
L317.074 175.251
L317.52 175.164
L317.966 174.893
L318.413 283.54
L318.859 179.948
L319.306 176.13
L320.198 179.312
L320.645 141.755
L321.091 182.325
L321.538 169.918
L322.43 179.99
L322.877 177.497
L323.323 281.876
L323.77 175.702
L324.216 178.028
L324.662 173.316
L325.109 171.715
L326.002 170.096
L326.448 171.104
L326.894 169.036
L327.341 170.421
L327.787 171.261
L328.234 282.088
L328.68 169.58
L329.126 170.897
L329.573 171.659
L330.019 166.947
L330.466 280.628
L330.912 174.391
L331.358 171.949
L331.805 170.137
L332.251 173.141
L332.698 129.381
L333.144 171.114
L333.59 172.516
L334.037 171.155
L334.93 169.649
L335.376 280.218
L335.822 173.495
L336.269 170.995
L336.715 173.745
L337.162 181.981
L337.608 116.8
L338.054 174.809
L338.501 171.478
L338.947 170.865
L339.394 173.502
L339.84 162.954
L340.286 282.339
L340.733 172.824
L341.179 170.817
L341.626 170.613
L342.072 17.4675
L342.518 282.573
L342.965 172.873
L343.411 170.536
L343.858 172.753
L344.304 171.851
L344.75 161.038
L345.197 180.462
L345.643 131.503
L346.09 173.015
L346.536 172.701
L346.982 168.151
L347.429 173.031
L347.875 173.676
L348.322 171.618
L348.768 168.352
L349.214 169.914
L349.661 280.912
L350.107 172.616
L350.554 172.074
L351 172.289
L351.446 171.644
L351.893 130.701
L352.339 171.714
L352.786 171.438
L353.232 167.932
L353.678 170.951
L354.125 169.808
L354.571 170.19
L355.018 170.736
L355.464 167.797
L355.91 167.036
L356.357 14.7752
L356.803 275.655
L357.25 171.464
L357.696 170.993
L358.142 172.936
L358.589 164.608
L359.035 173.931
L359.482 171.181
L359.928 169.277
L360.374 169.507
L360.821 168.638
L361.267 104.869
L361.714 174.079
L362.16 161.853
L362.606 160.683
L363.053 161.597
L363.499 118.665
L363.946 159.442
L364.392 161.127
L364.838 162.002
L365.285 158.502
L365.731 171.879
L366.178 159.648
L366.624 158.793
L367.07 160.068
L367.517 157.365
L367.963 153.776
L368.856 160.576
L369.302 158.423
L369.749 152.856
L370.195 154.414
L370.642 160.244
L371.088 159.024
L371.534 158.891
L371.981 147.639
L372.427 167.026
L372.874 158.895
L373.32 157.6
L373.766 157.163
L374.213 158.259
L374.659 152.75
L375.106 159.481
L375.552 158.977
L375.998 160.018
L376.445 155.883
L376.891 159.149
L377.338 158.944
L377.784 159.847
L378.23 153.986
L378.677 158.005
L379.123 175.84
L379.57 157.365
L380.016 160.236
L380.462 157.328
L380.909 160.319
L381.355 152.237
L382.248 160.821
L382.694 157.095
L383.141 156.323
L383.587 157.705
L384.034 154.929
L384.48 159.726
L384.926 159.363
L385.373 152.77
L385.819 158.073
L386.266 157.269
L386.712 121.022
L387.158 158.59
L387.605 160.934
L388.051 158.91
L388.498 161.252
L388.944 161.634
L389.39 159.031
L389.837 157.449
L390.283 157.842
L390.73 158.918
L391.176 157.025
L391.622 160.187
L392.069 156.061
L392.515 156.638
L392.962 157.867
L393.408 161.176
L393.854 156.819
L394.301 96.9019
L394.747 174.801
L395.194 156.52
L395.64 161.18
L396.086 161.719
L396.533 155.62
L396.979 159.051
L397.426 160.403
L397.872 157.186
L398.318 156.497
L398.765 160.451
L399.211 153.47
L399.658 158.453
L400.104 161.453
L400.55 158.095
L400.997 145.549
L401.443 170.736
L401.89 159.78
L402.336 159.481
L402.782 154.039
L403.229 122.109
L403.675 158.101
L404.122 162.706
L404.568 161.888
L405.014 164.023
L405.461 159.522
L405.907 175.692
L406.354 157.46
L406.8 156.302
L407.246 158.747
L407.693 157.48
L408.139 158.856
L408.586 159.177
L409.478 158.923
L409.925 156.864
L410.371 155.571
L410.818 158.569
L411.264 159.034
L411.71 157.653
L412.157 159.727
L412.603 148.094
L413.05 154.305
L413.496 157.972
L413.942 157.11
L414.389 161.91
L414.835 157.384
L415.282 157.761
L415.728 157.932
L416.174 159.814
L416.621 160.844
L417.067 154.445
L417.514 158.277
L417.96 158.876
L418.406 157.361
L418.853 155.367
L419.299 177.639
L419.746 156.371
L420.192 119.698
L420.638 161.222
L421.085 158.578
L421.531 159.771
L422.424 159.071
L423.317 161.095
L423.763 152.649
L424.21 147.05
L424.656 150.27
L425.995 143.905
L426.442 146.095
L426.888 146.818
L427.334 147.256
L427.781 83.562
L428.227 167.279
L428.674 149.131
L429.12 145.915
L429.566 150.509
L430.013 148.911
L430.459 150.512
L430.906 150.6
L431.352 148.302
L431.798 145.281
L432.245 144.186
L432.691 147.361
L433.138 144.602
L433.584 147.181
L434.03 143.923
L434.477 146.745
L434.923 147.817
L435.37 146.523
L435.816 147.865
L436.262 146.757
L436.709 143.872
L437.155 127.236
L437.602 145.887
L438.048 148.687
L438.494 149.528
L438.941 150.073
L439.387 148.346
L439.834 150.378
L440.28 146.851
L440.726 148.182
L441.173 148.261
L441.619 145.069
L442.066 147.656
L442.512 148.448
L442.958 143.189
L443.405 147.924
L444.298 145.112
L444.744 145.124
L445.19 144.06
L445.637 145.031
L446.083 128.341
L446.53 146.22
L447.422 150.92
L447.869 150.477
L448.315 147.604
L448.762 149.503
L449.208 148.41
L449.654 148.264
L450.101 149.341
L450.547 141.708
L450.994 146.841
L451.44 149.646
L451.886 147.724
L452.333 147.445
L452.779 123.654
L453.226 141.291
L453.672 151.659
L454.118 149.818
L454.565 149.762
L455.011 148.921
L455.458 150.241
L455.904 147.34
L456.35 145.455
L456.797 214.516
L457.243 216.052
L457.69 295.434
L458.136 225.79
L458.582 224.01
L459.029 229.265
L459.475 224.297
L459.922 225.233
L460.368 228.73
L460.814 222.723
L461.261 227.483
L461.707 226.21
L462.154 220.144
L462.6 226.884
L463.046 224.962
L463.493 226.937
L463.939 220.632
L464.386 226.034
L464.832 222.981
L465.278 223.154
L465.725 227.219
L466.171 224.311
L466.618 226.85
L467.51 224.797
L467.957 223.303
L468.403 227.314
L468.85 224.188
L469.296 223.607
L469.742 225.056
L470.189 225.933
L470.635 224.702
L471.082 227.135
L471.528 225.634
L471.974 224.847
L472.421 226.5
L472.867 222.4
L473.314 224.41
L473.76 224.899
L474.206 226.251
L474.653 223.3
L475.099 225.052
L475.546 222.818
L475.992 221.945
L476.438 224.191
L476.885 225.453
L477.331 227.759
L477.778 223.301
L478.224 229.21
L478.67 224.735
L479.563 222.381
L480.01 227.551
L480.456 225.482
L480.902 224.889
L481.349 225.582
L481.795 225.879
L482.688 222.223
L483.134 221.876
L483.581 224.492
L484.027 226.445
L484.474 226.962
L485.366 223.312
L485.813 226.337
L486.259 224.467
L486.706 223.986
L487.152 227.183
L487.598 223.641
L488.045 223.723
L488.491 225.493
L488.938 227.913
L489.384 223.803
L490.277 227.019
L490.723 224.247
L491.17 224.726
L491.616 224.241
L492.062 225.862
L492.509 218.721
L492.955 225.811
L493.402 225.689
L493.848 224.919
L494.294 226.71
L494.741 221.483
L495.187 226.928
L495.634 224.215
L496.08 225.649
L496.526 224.808
L496.973 224.849
L497.419 226.209
L497.866 223.289
L498.312 222.606
L498.758 226.843
L499.205 225.321
L499.651 223.3
L500.098 226.112
L500.544 223.225
L500.99 224.627
L501.437 222.499
L501.883 224.356
L502.33 222.434
L502.776 226.722
L503.222 225.313
L503.669 223.275
L504.115 223.877
L504.562 227.186
L505.008 226.738
L505.454 224.809
L505.901 226.248
L506.347 224.249
L506.794 223.956
L507.686 225.839
L508.133 225.505
L508.579 223.866
L509.026 227.729
L509.472 224.579
L509.918 225.948
L510.811 223.563
L511.258 223.374
L511.704 226.951
L512.15 225.16
L512.597 224.405
L513.043 225.929
L513.49 223.402
L513.936 225.09
L514.382 224.729
L514.829 225.164
L515.275 224.849
L515.722 227.562
L516.168 225.705
L516.614 222.507
L517.061 223.839
L517.507 225.828
L517.954 224.519
L517.954 224.519" style="fill:none;opacity:0.5;stroke:#0000ff;"/>
   </g>
   <g id="matplotlib.axis_1">
    <g id="xtick_1">
     <g id="line2d_4">
      <path clip-path="url(#p7ff5b81e1d)" d="
M72 388.8
L72 43.2" style="fill:none;stroke:#000000;stroke-dasharray:1.000000,3.000000;stroke-dashoffset:0.0;stroke-linecap:butt;stroke-width:0.5;"/>
     </g>
     <g id="line2d_5">
      <defs>
       <path d="
M0 0
L0 -4" id="m0012dd4eef" style="stroke:#000000;stroke-linecap:butt;stroke-width:0.5;"/>
      </defs>
      <g>
       <use style="stroke:#000000;stroke-linecap:butt;stroke-width:0.5;" x="72.0" xlink:href="#m0012dd4eef" y="388.8"/>
      </g>
     </g>
     <g id="line2d_6">
      <defs>
       <path d="
M0 0
L0 4" id="m476344969c" style="stroke:#000000;stroke-linecap:butt;stroke-width:0.5;"/>
      </defs>
      <g>
       <use style="stroke:#000000;stroke-linecap:butt;stroke-width:0.5;" x="72.0" xlink:href="#m476344969c" y="43.2"/>
      </g>
     </g>
     <g id="text_1">
      <!-- 0 -->
      <defs>
       <path d="
M31.7812 66.4062
Q24.1719 66.4062 20.3281 58.9062
Q16.5 51.4219 16.5 36.375
Q16.5 21.3906 20.3281 13.8906
Q24.1719 6.39062 31.7812 6.39062
Q39.4531 6.39062 43.2812 13.8906
Q47.125 21.3906 47.125 36.375
Q47.125 51.4219 43.2812 58.9062
Q39.4531 66.4062 31.7812 66.4062
M31.7812 74.2188
Q44.0469 74.2188 50.5156 64.5156
Q56.9844 54.8281 56.9844 36.375
Q56.9844 17.9688 50.5156 8.26562
Q44.0469 -1.42188 31.7812 -1.42188
Q19.5312 -1.42188 13.0625 8.26562
Q6.59375 17.9688 6.59375 36.375
Q6.59375 54.8281 13.0625 64.5156
Q19.5312 74.2188 31.7812 74.2188" id="BitstreamVeraSans-Roman-30"/>
      </defs>
      <g transform="translate(68.9765625 401.70625)scale(0.12 -0.12)">
       <use xlink:href="#BitstreamVeraSans-Roman-30"/>
      </g>
     </g>
    </g>
    <g id="xtick_2">
     <g id="line2d_7">
      <path clip-path="url(#p7ff5b81e1d)" d="
M116.64 388.8
L116.64 43.2" style="fill:none;stroke:#000000;stroke-dasharray:1.000000,3.000000;stroke-dashoffset:0.0;stroke-linecap:butt;stroke-width:0.5;"/>
     </g>
     <g id="line2d_8">
      <g>
       <use style="stroke:#000000;stroke-linecap:butt;stroke-width:0.5;" x="116.64" xlink:href="#m0012dd4eef" y="388.8"/>
      </g>
     </g>
     <g id="line2d_9">
      <g>
       <use style="stroke:#000000;stroke-linecap:butt;stroke-width:0.5;" x="116.64" xlink:href="#m476344969c" y="43.2"/>
      </g>
     </g>
     <g id="text_2">
      <!-- 100 -->
      <defs>
       <path d="
M12.4062 8.29688
L28.5156 8.29688
L28.5156 63.9219
L10.9844 60.4062
L10.9844 69.3906
L28.4219 72.9062
L38.2812 72.9062
L38.2812 8.29688
L54.3906 8.29688
L54.3906 0
L12.4062 0
z
" id="BitstreamVeraSans-Roman-31"/>
      </defs>
      <g transform="translate(106.245 401.70625)scale(0.12 -0.12)">
       <use xlink:href="#BitstreamVeraSans-Roman-31"/>
       <use x="63.623046875" xlink:href="#BitstreamVeraSans-Roman-30"/>
       <use x="127.24609375" xlink:href="#BitstreamVeraSans-Roman-30"/>
      </g>
     </g>
    </g>
    <g id="xtick_3">
     <g id="line2d_10">
      <path clip-path="url(#p7ff5b81e1d)" d="
M161.28 388.8
L161.28 43.2" style="fill:none;stroke:#000000;stroke-dasharray:1.000000,3.000000;stroke-dashoffset:0.0;stroke-linecap:butt;stroke-width:0.5;"/>
     </g>
     <g id="line2d_11">
      <g>
       <use style="stroke:#000000;stroke-linecap:butt;stroke-width:0.5;" x="161.28" xlink:href="#m0012dd4eef" y="388.8"/>
      </g>
     </g>
     <g id="line2d_12">
      <g>
       <use style="stroke:#000000;stroke-linecap:butt;stroke-width:0.5;" x="161.28" xlink:href="#m476344969c" y="43.2"/>
      </g>
     </g>
     <g id="text_3">
      <!-- 200 -->
      <defs>
       <path d="
M19.1875 8.29688
L53.6094 8.29688
L53.6094 0
L7.32812 0
L7.32812 8.29688
Q12.9375 14.1094 22.625 23.8906
Q32.3281 33.6875 34.8125 36.5312
Q39.5469 41.8438 41.4219 45.5312
Q43.3125 49.2188 43.3125 52.7812
Q43.3125 58.5938 39.2344 62.25
Q35.1562 65.9219 28.6094 65.9219
Q23.9688 65.9219 18.8125 64.3125
Q13.6719 62.7031 7.8125 59.4219
L7.8125 69.3906
Q13.7656 71.7812 18.9375 73
Q24.125 74.2188 28.4219 74.2188
Q39.75 74.2188 46.4844 68.5469
Q53.2188 62.8906 53.2188 53.4219
Q53.2188 48.9219 51.5312 44.8906
Q49.8594 40.875 45.4062 35.4062
Q44.1875 33.9844 37.6406 27.2188
Q31.1094 20.4531 19.1875 8.29688" id="BitstreamVeraSans-Roman-32"/>
      </defs>
      <g transform="translate(150.665625 401.70625)scale(0.12 -0.12)">
       <use xlink:href="#BitstreamVeraSans-Roman-32"/>
       <use x="63.623046875" xlink:href="#BitstreamVeraSans-Roman-30"/>
       <use x="127.24609375" xlink:href="#BitstreamVeraSans-Roman-30"/>
      </g>
     </g>
    </g>
    <g id="xtick_4">
     <g id="line2d_13">
      <path clip-path="url(#p7ff5b81e1d)" d="
M205.92 388.8
L205.92 43.2" style="fill:none;stroke:#000000;stroke-dasharray:1.000000,3.000000;stroke-dashoffset:0.0;stroke-linecap:butt;stroke-width:0.5;"/>
     </g>
     <g id="line2d_14">
      <g>
       <use style="stroke:#000000;stroke-linecap:butt;stroke-width:0.5;" x="205.92" xlink:href="#m0012dd4eef" y="388.8"/>
      </g>
     </g>
     <g id="line2d_15">
      <g>
       <use style="stroke:#000000;stroke-linecap:butt;stroke-width:0.5;" x="205.92" xlink:href="#m476344969c" y="43.2"/>
      </g>
     </g>
     <g id="text_4">
      <!-- 300 -->
      <defs>
       <path d="
M40.5781 39.3125
Q47.6562 37.7969 51.625 33
Q55.6094 28.2188 55.6094 21.1875
Q55.6094 10.4062 48.1875 4.48438
Q40.7656 -1.42188 27.0938 -1.42188
Q22.5156 -1.42188 17.6562 -0.515625
Q12.7969 0.390625 7.625 2.20312
L7.625 11.7188
Q11.7188 9.32812 16.5938 8.10938
Q21.4844 6.89062 26.8125 6.89062
Q36.0781 6.89062 40.9375 10.5469
Q45.7969 14.2031 45.7969 21.1875
Q45.7969 27.6406 41.2812 31.2656
Q36.7656 34.9062 28.7188 34.9062
L20.2188 34.9062
L20.2188 43.0156
L29.1094 43.0156
Q36.375 43.0156 40.2344 45.9219
Q44.0938 48.8281 44.0938 54.2969
Q44.0938 59.9062 40.1094 62.9062
Q36.1406 65.9219 28.7188 65.9219
Q24.6562 65.9219 20.0156 65.0312
Q15.375 64.1562 9.8125 62.3125
L9.8125 71.0938
Q15.4375 72.6562 20.3438 73.4375
Q25.25 74.2188 29.5938 74.2188
Q40.8281 74.2188 47.3594 69.1094
Q53.9062 64.0156 53.9062 55.3281
Q53.9062 49.2656 50.4375 45.0938
Q46.9688 40.9219 40.5781 39.3125" id="BitstreamVeraSans-Roman-33"/>
      </defs>
      <g transform="translate(195.3234375 401.70625)scale(0.12 -0.12)">
       <use xlink:href="#BitstreamVeraSans-Roman-33"/>
       <use x="63.623046875" xlink:href="#BitstreamVeraSans-Roman-30"/>
       <use x="127.24609375" xlink:href="#BitstreamVeraSans-Roman-30"/>
      </g>
     </g>
    </g>
    <g id="xtick_5">
     <g id="line2d_16">
      <path clip-path="url(#p7ff5b81e1d)" d="
M250.56 388.8
L250.56 43.2" style="fill:none;stroke:#000000;stroke-dasharray:1.000000,3.000000;stroke-dashoffset:0.0;stroke-linecap:butt;stroke-width:0.5;"/>
     </g>
     <g id="line2d_17">
      <g>
       <use style="stroke:#000000;stroke-linecap:butt;stroke-width:0.5;" x="250.56" xlink:href="#m0012dd4eef" y="388.8"/>
      </g>
     </g>
     <g id="line2d_18">
      <g>
       <use style="stroke:#000000;stroke-linecap:butt;stroke-width:0.5;" x="250.56" xlink:href="#m476344969c" y="43.2"/>
      </g>
     </g>
     <g id="text_5">
      <!-- 400 -->
      <defs>
       <path d="
M37.7969 64.3125
L12.8906 25.3906
L37.7969 25.3906
z

M35.2031 72.9062
L47.6094 72.9062
L47.6094 25.3906
L58.0156 25.3906
L58.0156 17.1875
L47.6094 17.1875
L47.6094 0
L37.7969 0
L37.7969 17.1875
L4.89062 17.1875
L4.89062 26.7031
z
" id="BitstreamVeraSans-Roman-34"/>
      </defs>
      <g transform="translate(239.799375 401.70625)scale(0.12 -0.12)">
       <use xlink:href="#BitstreamVeraSans-Roman-34"/>
       <use x="63.623046875" xlink:href="#BitstreamVeraSans-Roman-30"/>
       <use x="127.24609375" xlink:href="#BitstreamVeraSans-Roman-30"/>
      </g>
     </g>
    </g>
    <g id="xtick_6">
     <g id="line2d_19">
      <path clip-path="url(#p7ff5b81e1d)" d="
M295.2 388.8
L295.2 43.2" style="fill:none;stroke:#000000;stroke-dasharray:1.000000,3.000000;stroke-dashoffset:0.0;stroke-linecap:butt;stroke-width:0.5;"/>
     </g>
     <g id="line2d_20">
      <g>
       <use style="stroke:#000000;stroke-linecap:butt;stroke-width:0.5;" x="295.2" xlink:href="#m0012dd4eef" y="388.8"/>
      </g>
     </g>
     <g id="line2d_21">
      <g>
       <use style="stroke:#000000;stroke-linecap:butt;stroke-width:0.5;" x="295.2" xlink:href="#m476344969c" y="43.2"/>
      </g>
     </g>
     <g id="text_6">
      <!-- 500 -->
      <defs>
       <path d="
M10.7969 72.9062
L49.5156 72.9062
L49.5156 64.5938
L19.8281 64.5938
L19.8281 46.7344
Q21.9688 47.4688 24.1094 47.8281
Q26.2656 48.1875 28.4219 48.1875
Q40.625 48.1875 47.75 41.5
Q54.8906 34.8125 54.8906 23.3906
Q54.8906 11.625 47.5625 5.09375
Q40.2344 -1.42188 26.9062 -1.42188
Q22.3125 -1.42188 17.5469 -0.640625
Q12.7969 0.140625 7.71875 1.70312
L7.71875 11.625
Q12.1094 9.23438 16.7969 8.0625
Q21.4844 6.89062 26.7031 6.89062
Q35.1562 6.89062 40.0781 11.3281
Q45.0156 15.7656 45.0156 23.3906
Q45.0156 31 40.0781 35.4375
Q35.1562 39.8906 26.7031 39.8906
Q22.75 39.8906 18.8125 39.0156
Q14.8906 38.1406 10.7969 36.2812
z
" id="BitstreamVeraSans-Roman-35"/>
      </defs>
      <g transform="translate(284.6090625 401.70625)scale(0.12 -0.12)">
       <use xlink:href="#BitstreamVeraSans-Roman-35"/>
       <use x="63.623046875" xlink:href="#BitstreamVeraSans-Roman-30"/>
       <use x="127.24609375" xlink:href="#BitstreamVeraSans-Roman-30"/>
      </g>
     </g>
    </g>
    <g id="xtick_7">
     <g id="line2d_22">
      <path clip-path="url(#p7ff5b81e1d)" d="
M339.84 388.8
L339.84 43.2" style="fill:none;stroke:#000000;stroke-dasharray:1.000000,3.000000;stroke-dashoffset:0.0;stroke-linecap:butt;stroke-width:0.5;"/>
     </g>
     <g id="line2d_23">
      <g>
       <use style="stroke:#000000;stroke-linecap:butt;stroke-width:0.5;" x="339.84" xlink:href="#m0012dd4eef" y="388.8"/>
      </g>
     </g>
     <g id="line2d_24">
      <g>
       <use style="stroke:#000000;stroke-linecap:butt;stroke-width:0.5;" x="339.84" xlink:href="#m476344969c" y="43.2"/>
      </g>
     </g>
     <g id="text_7">
      <!-- 600 -->
      <defs>
       <path d="
M33.0156 40.375
Q26.375 40.375 22.4844 35.8281
Q18.6094 31.2969 18.6094 23.3906
Q18.6094 15.5312 22.4844 10.9531
Q26.375 6.39062 33.0156 6.39062
Q39.6562 6.39062 43.5312 10.9531
Q47.4062 15.5312 47.4062 23.3906
Q47.4062 31.2969 43.5312 35.8281
Q39.6562 40.375 33.0156 40.375
M52.5938 71.2969
L52.5938 62.3125
Q48.875 64.0625 45.0938 64.9844
Q41.3125 65.9219 37.5938 65.9219
Q27.8281 65.9219 22.6719 59.3281
Q17.5312 52.7344 16.7969 39.4062
Q19.6719 43.6562 24.0156 45.9219
Q28.375 48.1875 33.5938 48.1875
Q44.5781 48.1875 50.9531 41.5156
Q57.3281 34.8594 57.3281 23.3906
Q57.3281 12.1562 50.6875 5.35938
Q44.0469 -1.42188 33.0156 -1.42188
Q20.3594 -1.42188 13.6719 8.26562
Q6.98438 17.9688 6.98438 36.375
Q6.98438 53.6562 15.1875 63.9375
Q23.3906 74.2188 37.2031 74.2188
Q40.9219 74.2188 44.7031 73.4844
Q48.4844 72.75 52.5938 71.2969" id="BitstreamVeraSans-Roman-36"/>
      </defs>
      <g transform="translate(329.205 401.70625)scale(0.12 -0.12)">
       <use xlink:href="#BitstreamVeraSans-Roman-36"/>
       <use x="63.623046875" xlink:href="#BitstreamVeraSans-Roman-30"/>
       <use x="127.24609375" xlink:href="#BitstreamVeraSans-Roman-30"/>
      </g>
     </g>
    </g>
    <g id="xtick_8">
     <g id="line2d_25">
      <path clip-path="url(#p7ff5b81e1d)" d="
M384.48 388.8
L384.48 43.2" style="fill:none;stroke:#000000;stroke-dasharray:1.000000,3.000000;stroke-dashoffset:0.0;stroke-linecap:butt;stroke-width:0.5;"/>
     </g>
     <g id="line2d_26">
      <g>
       <use style="stroke:#000000;stroke-linecap:butt;stroke-width:0.5;" x="384.48" xlink:href="#m0012dd4eef" y="388.8"/>
      </g>
     </g>
     <g id="line2d_27">
      <g>
       <use style="stroke:#000000;stroke-linecap:butt;stroke-width:0.5;" x="384.48" xlink:href="#m476344969c" y="43.2"/>
      </g>
     </g>
     <g id="text_8">
      <!-- 700 -->
      <defs>
       <path d="
M8.20312 72.9062
L55.0781 72.9062
L55.0781 68.7031
L28.6094 0
L18.3125 0
L43.2188 64.5938
L8.20312 64.5938
z
" id="BitstreamVeraSans-Roman-37"/>
      </defs>
      <g transform="translate(373.918125 401.70625)scale(0.12 -0.12)">
       <use xlink:href="#BitstreamVeraSans-Roman-37"/>
       <use x="63.623046875" xlink:href="#BitstreamVeraSans-Roman-30"/>
       <use x="127.24609375" xlink:href="#BitstreamVeraSans-Roman-30"/>
      </g>
     </g>
    </g>
    <g id="xtick_9">
     <g id="line2d_28">
      <path clip-path="url(#p7ff5b81e1d)" d="
M429.12 388.8
L429.12 43.2" style="fill:none;stroke:#000000;stroke-dasharray:1.000000,3.000000;stroke-dashoffset:0.0;stroke-linecap:butt;stroke-width:0.5;"/>
     </g>
     <g id="line2d_29">
      <g>
       <use style="stroke:#000000;stroke-linecap:butt;stroke-width:0.5;" x="429.12" xlink:href="#m0012dd4eef" y="388.8"/>
      </g>
     </g>
     <g id="line2d_30">
      <g>
       <use style="stroke:#000000;stroke-linecap:butt;stroke-width:0.5;" x="429.12" xlink:href="#m476344969c" y="43.2"/>
      </g>
     </g>
     <g id="text_9">
      <!-- 800 -->
      <defs>
       <path d="
M31.7812 34.625
Q24.75 34.625 20.7188 30.8594
Q16.7031 27.0938 16.7031 20.5156
Q16.7031 13.9219 20.7188 10.1562
Q24.75 6.39062 31.7812 6.39062
Q38.8125 6.39062 42.8594 10.1719
Q46.9219 13.9688 46.9219 20.5156
Q46.9219 27.0938 42.8906 30.8594
Q38.875 34.625 31.7812 34.625
M21.9219 38.8125
Q15.5781 40.375 12.0312 44.7188
Q8.5 49.0781 8.5 55.3281
Q8.5 64.0625 14.7188 69.1406
Q20.9531 74.2188 31.7812 74.2188
Q42.6719 74.2188 48.875 69.1406
Q55.0781 64.0625 55.0781 55.3281
Q55.0781 49.0781 51.5312 44.7188
Q48 40.375 41.7031 38.8125
Q48.8281 37.1562 52.7969 32.3125
Q56.7812 27.4844 56.7812 20.5156
Q56.7812 9.90625 50.3125 4.23438
Q43.8438 -1.42188 31.7812 -1.42188
Q19.7344 -1.42188 13.25 4.23438
Q6.78125 9.90625 6.78125 20.5156
Q6.78125 27.4844 10.7812 32.3125
Q14.7969 37.1562 21.9219 38.8125
M18.3125 54.3906
Q18.3125 48.7344 21.8438 45.5625
Q25.3906 42.3906 31.7812 42.3906
Q38.1406 42.3906 41.7188 45.5625
Q45.3125 48.7344 45.3125 54.3906
Q45.3125 60.0625 41.7188 63.2344
Q38.1406 66.4062 31.7812 66.4062
Q25.3906 66.4062 21.8438 63.2344
Q18.3125 60.0625 18.3125 54.3906" id="BitstreamVeraSans-Roman-38"/>
      </defs>
      <g transform="translate(418.4728125 401.70625)scale(0.12 -0.12)">
       <use xlink:href="#BitstreamVeraSans-Roman-38"/>
       <use x="63.623046875" xlink:href="#BitstreamVeraSans-Roman-30"/>
       <use x="127.24609375" xlink:href="#BitstreamVeraSans-Roman-30"/>
      </g>
     </g>
    </g>
    <g id="xtick_10">
     <g id="line2d_31">
      <path clip-path="url(#p7ff5b81e1d)" d="
M473.76 388.8
L473.76 43.2" style="fill:none;stroke:#000000;stroke-dasharray:1.000000,3.000000;stroke-dashoffset:0.0;stroke-linecap:butt;stroke-width:0.5;"/>
     </g>
     <g id="line2d_32">
      <g>
       <use style="stroke:#000000;stroke-linecap:butt;stroke-width:0.5;" x="473.76" xlink:href="#m0012dd4eef" y="388.8"/>
      </g>
     </g>
     <g id="line2d_33">
      <g>
       <use style="stroke:#000000;stroke-linecap:butt;stroke-width:0.5;" x="473.76" xlink:href="#m476344969c" y="43.2"/>
      </g>
     </g>
     <g id="text_10">
      <!-- 900 -->
      <defs>
       <path d="
M10.9844 1.51562
L10.9844 10.5
Q14.7031 8.73438 18.5 7.8125
Q22.3125 6.89062 25.9844 6.89062
Q35.75 6.89062 40.8906 13.4531
Q46.0469 20.0156 46.7812 33.4062
Q43.9531 29.2031 39.5938 26.9531
Q35.25 24.7031 29.9844 24.7031
Q19.0469 24.7031 12.6719 31.3125
Q6.29688 37.9375 6.29688 49.4219
Q6.29688 60.6406 12.9375 67.4219
Q19.5781 74.2188 30.6094 74.2188
Q43.2656 74.2188 49.9219 64.5156
Q56.5938 54.8281 56.5938 36.375
Q56.5938 19.1406 48.4062 8.85938
Q40.2344 -1.42188 26.4219 -1.42188
Q22.7031 -1.42188 18.8906 -0.6875
Q15.0938 0.046875 10.9844 1.51562
M30.6094 32.4219
Q37.25 32.4219 41.125 36.9531
Q45.0156 41.5 45.0156 49.4219
Q45.0156 57.2812 41.125 61.8438
Q37.25 66.4062 30.6094 66.4062
Q23.9688 66.4062 20.0938 61.8438
Q16.2188 57.2812 16.2188 49.4219
Q16.2188 41.5 20.0938 36.9531
Q23.9688 32.4219 30.6094 32.4219" id="BitstreamVeraSans-Roman-39"/>
      </defs>
      <g transform="translate(463.08375 401.70625)scale(0.12 -0.12)">
       <use xlink:href="#BitstreamVeraSans-Roman-39"/>
       <use x="63.623046875" xlink:href="#BitstreamVeraSans-Roman-30"/>
       <use x="127.24609375" xlink:href="#BitstreamVeraSans-Roman-30"/>
      </g>
     </g>
    </g>
   </g>
   <g id="matplotlib.axis_2">
    <g id="ytick_1">
     <g id="line2d_34">
      <path clip-path="url(#p7ff5b81e1d)" d="
M72 388.8
L518.4 388.8" style="fill:none;stroke:#000000;stroke-dasharray:1.000000,3.000000;stroke-dashoffset:0.0;stroke-linecap:butt;stroke-width:0.5;"/>
     </g>
     <g id="line2d_35">
      <defs>
       <path d="
M0 0
L4 0" id="me8a85f7bf6" style="stroke:#000000;stroke-linecap:butt;stroke-width:0.5;"/>
      </defs>
      <g>
       <use style="stroke:#000000;stroke-linecap:butt;stroke-width:0.5;" x="72.0" xlink:href="#me8a85f7bf6" y="388.8"/>
      </g>
     </g>
     <g id="line2d_36">
      <defs>
       <path d="
M0 0
L-4 0" id="m1a32005dea" style="stroke:#000000;stroke-linecap:butt;stroke-width:0.5;"/>
      </defs>
      <g>
       <use style="stroke:#000000;stroke-linecap:butt;stroke-width:0.5;" x="518.4" xlink:href="#m1a32005dea" y="388.8"/>
      </g>
     </g>
     <g id="text_11">
      <!-- 0.00 -->
      <defs>
       <path d="
M10.6875 12.4062
L21 12.4062
L21 0
L10.6875 0
z
" id="BitstreamVeraSans-Roman-2e"/>
      </defs>
      <g transform="translate(42.869375 393.1678125)scale(0.12 -0.12)">
       <use xlink:href="#BitstreamVeraSans-Roman-30"/>
       <use x="63.623046875" xlink:href="#BitstreamVeraSans-Roman-2e"/>
       <use x="95.41015625" xlink:href="#BitstreamVeraSans-Roman-30"/>
       <use x="159.033203125" xlink:href="#BitstreamVeraSans-Roman-30"/>
      </g>
     </g>
    </g>
    <g id="ytick_2">
     <g id="line2d_37">
      <path clip-path="url(#p7ff5b81e1d)" d="
M72 354.24
L518.4 354.24" style="fill:none;stroke:#000000;stroke-dasharray:1.000000,3.000000;stroke-dashoffset:0.0;stroke-linecap:butt;stroke-width:0.5;"/>
     </g>
     <g id="line2d_38">
      <g>
       <use style="stroke:#000000;stroke-linecap:butt;stroke-width:0.5;" x="72.0" xlink:href="#me8a85f7bf6" y="354.24"/>
      </g>
     </g>
     <g id="line2d_39">
      <g>
       <use style="stroke:#000000;stroke-linecap:butt;stroke-width:0.5;" x="518.4" xlink:href="#m1a32005dea" y="354.24"/>
      </g>
     </g>
     <g id="text_12">
      <!-- 0.15 -->
      <g transform="translate(43.120625 358.6078125)scale(0.12 -0.12)">
       <use xlink:href="#BitstreamVeraSans-Roman-30"/>
       <use x="63.623046875" xlink:href="#BitstreamVeraSans-Roman-2e"/>
       <use x="95.41015625" xlink:href="#BitstreamVeraSans-Roman-31"/>
       <use x="159.033203125" xlink:href="#BitstreamVeraSans-Roman-35"/>
      </g>
     </g>
    </g>
    <g id="ytick_3">
     <g id="line2d_40">
      <path clip-path="url(#p7ff5b81e1d)" d="
M72 319.68
L518.4 319.68" style="fill:none;stroke:#000000;stroke-dasharray:1.000000,3.000000;stroke-dashoffset:0.0;stroke-linecap:butt;stroke-width:0.5;"/>
     </g>
     <g id="line2d_41">
      <g>
       <use style="stroke:#000000;stroke-linecap:butt;stroke-width:0.5;" x="72.0" xlink:href="#me8a85f7bf6" y="319.68"/>
      </g>
     </g>
     <g id="line2d_42">
      <g>
       <use style="stroke:#000000;stroke-linecap:butt;stroke-width:0.5;" x="518.4" xlink:href="#m1a32005dea" y="319.68"/>
      </g>
     </g>
     <g id="text_13">
      <!-- 0.30 -->
      <g transform="translate(42.869375 324.0478125)scale(0.12 -0.12)">
       <use xlink:href="#BitstreamVeraSans-Roman-30"/>
       <use x="63.623046875" xlink:href="#BitstreamVeraSans-Roman-2e"/>
       <use x="95.41015625" xlink:href="#BitstreamVeraSans-Roman-33"/>
       <use x="159.033203125" xlink:href="#BitstreamVeraSans-Roman-30"/>
      </g>
     </g>
    </g>
    <g id="ytick_4">
     <g id="line2d_43">
      <path clip-path="url(#p7ff5b81e1d)" d="
M72 285.12
L518.4 285.12" style="fill:none;stroke:#000000;stroke-dasharray:1.000000,3.000000;stroke-dashoffset:0.0;stroke-linecap:butt;stroke-width:0.5;"/>
     </g>
     <g id="line2d_44">
      <g>
       <use style="stroke:#000000;stroke-linecap:butt;stroke-width:0.5;" x="72.0" xlink:href="#me8a85f7bf6" y="285.12"/>
      </g>
     </g>
     <g id="line2d_45">
      <g>
       <use style="stroke:#000000;stroke-linecap:butt;stroke-width:0.5;" x="518.4" xlink:href="#m1a32005dea" y="285.12"/>
      </g>
     </g>
     <g id="text_14">
      <!-- 0.45 -->
      <g transform="translate(43.120625 289.4878125)scale(0.12 -0.12)">
       <use xlink:href="#BitstreamVeraSans-Roman-30"/>
       <use x="63.623046875" xlink:href="#BitstreamVeraSans-Roman-2e"/>
       <use x="95.41015625" xlink:href="#BitstreamVeraSans-Roman-34"/>
       <use x="159.033203125" xlink:href="#BitstreamVeraSans-Roman-35"/>
      </g>
     </g>
    </g>
    <g id="ytick_5">
     <g id="line2d_46">
      <path clip-path="url(#p7ff5b81e1d)" d="
M72 250.56
L518.4 250.56" style="fill:none;stroke:#000000;stroke-dasharray:1.000000,3.000000;stroke-dashoffset:0.0;stroke-linecap:butt;stroke-width:0.5;"/>
     </g>
     <g id="line2d_47">
      <g>
       <use style="stroke:#000000;stroke-linecap:butt;stroke-width:0.5;" x="72.0" xlink:href="#me8a85f7bf6" y="250.56"/>
      </g>
     </g>
     <g id="line2d_48">
      <g>
       <use style="stroke:#000000;stroke-linecap:butt;stroke-width:0.5;" x="518.4" xlink:href="#m1a32005dea" y="250.56"/>
      </g>
     </g>
     <g id="text_15">
      <!-- 0.60 -->
      <g transform="translate(42.869375 254.9278125)scale(0.12 -0.12)">
       <use xlink:href="#BitstreamVeraSans-Roman-30"/>
       <use x="63.623046875" xlink:href="#BitstreamVeraSans-Roman-2e"/>
       <use x="95.41015625" xlink:href="#BitstreamVeraSans-Roman-36"/>
       <use x="159.033203125" xlink:href="#BitstreamVeraSans-Roman-30"/>
      </g>
     </g>
    </g>
    <g id="ytick_6">
     <g id="line2d_49">
      <path clip-path="url(#p7ff5b81e1d)" d="
M72 216
L518.4 216" style="fill:none;stroke:#000000;stroke-dasharray:1.000000,3.000000;stroke-dashoffset:0.0;stroke-linecap:butt;stroke-width:0.5;"/>
     </g>
     <g id="line2d_50">
      <g>
       <use style="stroke:#000000;stroke-linecap:butt;stroke-width:0.5;" x="72.0" xlink:href="#me8a85f7bf6" y="216.0"/>
      </g>
     </g>
     <g id="line2d_51">
      <g>
       <use style="stroke:#000000;stroke-linecap:butt;stroke-width:0.5;" x="518.4" xlink:href="#m1a32005dea" y="216.0"/>
      </g>
     </g>
     <g id="text_16">
      <!-- 0.75 -->
      <g transform="translate(43.120625 220.3678125)scale(0.12 -0.12)">
       <use xlink:href="#BitstreamVeraSans-Roman-30"/>
       <use x="63.623046875" xlink:href="#BitstreamVeraSans-Roman-2e"/>
       <use x="95.41015625" xlink:href="#BitstreamVeraSans-Roman-37"/>
       <use x="159.033203125" xlink:href="#BitstreamVeraSans-Roman-35"/>
      </g>
     </g>
    </g>
    <g id="ytick_7">
     <g id="line2d_52">
      <path clip-path="url(#p7ff5b81e1d)" d="
M72 181.44
L518.4 181.44" style="fill:none;stroke:#000000;stroke-dasharray:1.000000,3.000000;stroke-dashoffset:0.0;stroke-linecap:butt;stroke-width:0.5;"/>
     </g>
     <g id="line2d_53">
      <g>
       <use style="stroke:#000000;stroke-linecap:butt;stroke-width:0.5;" x="72.0" xlink:href="#me8a85f7bf6" y="181.44"/>
      </g>
     </g>
     <g id="line2d_54">
      <g>
       <use style="stroke:#000000;stroke-linecap:butt;stroke-width:0.5;" x="518.4" xlink:href="#m1a32005dea" y="181.44"/>
      </g>
     </g>
     <g id="text_17">
      <!-- 0.90 -->
      <g transform="translate(42.869375 185.8078125)scale(0.12 -0.12)">
       <use xlink:href="#BitstreamVeraSans-Roman-30"/>
       <use x="63.623046875" xlink:href="#BitstreamVeraSans-Roman-2e"/>
       <use x="95.41015625" xlink:href="#BitstreamVeraSans-Roman-39"/>
       <use x="159.033203125" xlink:href="#BitstreamVeraSans-Roman-30"/>
      </g>
     </g>
    </g>
    <g id="ytick_8">
     <g id="line2d_55">
      <path clip-path="url(#p7ff5b81e1d)" d="
M72 146.88
L518.4 146.88" style="fill:none;stroke:#000000;stroke-dasharray:1.000000,3.000000;stroke-dashoffset:0.0;stroke-linecap:butt;stroke-width:0.5;"/>
     </g>
     <g id="line2d_56">
      <g>
       <use style="stroke:#000000;stroke-linecap:butt;stroke-width:0.5;" x="72.0" xlink:href="#me8a85f7bf6" y="146.88"/>
      </g>
     </g>
     <g id="line2d_57">
      <g>
       <use style="stroke:#000000;stroke-linecap:butt;stroke-width:0.5;" x="518.4" xlink:href="#m1a32005dea" y="146.88"/>
      </g>
     </g>
     <g id="text_18">
      <!-- 1.05 -->
      <g transform="translate(43.6475 151.2478125)scale(0.12 -0.12)">
       <use xlink:href="#BitstreamVeraSans-Roman-31"/>
       <use x="63.623046875" xlink:href="#BitstreamVeraSans-Roman-2e"/>
       <use x="95.41015625" xlink:href="#BitstreamVeraSans-Roman-30"/>
       <use x="159.033203125" xlink:href="#BitstreamVeraSans-Roman-35"/>
      </g>
     </g>
    </g>
    <g id="ytick_9">
     <g id="line2d_58">
      <path clip-path="url(#p7ff5b81e1d)" d="
M72 112.32
L518.4 112.32" style="fill:none;stroke:#000000;stroke-dasharray:1.000000,3.000000;stroke-dashoffset:0.0;stroke-linecap:butt;stroke-width:0.5;"/>
     </g>
     <g id="line2d_59">
      <g>
       <use style="stroke:#000000;stroke-linecap:butt;stroke-width:0.5;" x="72.0" xlink:href="#me8a85f7bf6" y="112.32"/>
      </g>
     </g>
     <g id="line2d_60">
      <g>
       <use style="stroke:#000000;stroke-linecap:butt;stroke-width:0.5;" x="518.4" xlink:href="#m1a32005dea" y="112.32"/>
      </g>
     </g>
     <g id="text_19">
      <!-- 1.20 -->
      <g transform="translate(43.39625 116.6878125)scale(0.12 -0.12)">
       <use xlink:href="#BitstreamVeraSans-Roman-31"/>
       <use x="63.623046875" xlink:href="#BitstreamVeraSans-Roman-2e"/>
       <use x="95.41015625" xlink:href="#BitstreamVeraSans-Roman-32"/>
       <use x="159.033203125" xlink:href="#BitstreamVeraSans-Roman-30"/>
      </g>
     </g>
    </g>
    <g id="ytick_10">
     <g id="line2d_61">
      <path clip-path="url(#p7ff5b81e1d)" d="
M72 77.76
L518.4 77.76" style="fill:none;stroke:#000000;stroke-dasharray:1.000000,3.000000;stroke-dashoffset:0.0;stroke-linecap:butt;stroke-width:0.5;"/>
     </g>
     <g id="line2d_62">
      <g>
       <use style="stroke:#000000;stroke-linecap:butt;stroke-width:0.5;" x="72.0" xlink:href="#me8a85f7bf6" y="77.76"/>
      </g>
     </g>
     <g id="line2d_63">
      <g>
       <use style="stroke:#000000;stroke-linecap:butt;stroke-width:0.5;" x="518.4" xlink:href="#m1a32005dea" y="77.76"/>
      </g>
     </g>
     <g id="text_20">
      <!-- 1.35 -->
      <g transform="translate(43.6475 82.1278125)scale(0.12 -0.12)">
       <use xlink:href="#BitstreamVeraSans-Roman-31"/>
       <use x="63.623046875" xlink:href="#BitstreamVeraSans-Roman-2e"/>
       <use x="95.41015625" xlink:href="#BitstreamVeraSans-Roman-33"/>
       <use x="159.033203125" xlink:href="#BitstreamVeraSans-Roman-35"/>
      </g>
     </g>
    </g>
    <g id="text_21">
     <!-- Sec/file -->
     <defs>
      <path d="
M9.42188 75.9844
L18.4062 75.9844
L18.4062 0
L9.42188 0
z
" id="BitstreamVeraSans-Roman-6c"/>
      <path d="
M53.5156 70.5156
L53.5156 60.8906
Q47.9062 63.5781 42.9219 64.8906
Q37.9375 66.2188 33.2969 66.2188
Q25.25 66.2188 20.875 63.0938
Q16.5 59.9688 16.5 54.2031
Q16.5 49.3594 19.4062 46.8906
Q22.3125 44.4375 30.4219 42.9219
L36.375 41.7031
Q47.4062 39.5938 52.6562 34.2969
Q57.9062 29 57.9062 20.125
Q57.9062 9.51562 50.7969 4.04688
Q43.7031 -1.42188 29.9844 -1.42188
Q24.8125 -1.42188 18.9688 -0.25
Q13.1406 0.921875 6.89062 3.21875
L6.89062 13.375
Q12.8906 10.0156 18.6562 8.29688
Q24.4219 6.59375 29.9844 6.59375
Q38.4219 6.59375 43.0156 9.90625
Q47.6094 13.2344 47.6094 19.3906
Q47.6094 24.75 44.3125 27.7812
Q41.0156 30.8125 33.5 32.3281
L27.4844 33.5
Q16.4531 35.6875 11.5156 40.375
Q6.59375 45.0625 6.59375 53.4219
Q6.59375 63.0938 13.4062 68.6562
Q20.2188 74.2188 32.1719 74.2188
Q37.3125 74.2188 42.625 73.2812
Q47.9531 72.3594 53.5156 70.5156" id="BitstreamVeraSans-Roman-53"/>
      <path d="
M9.42188 54.6875
L18.4062 54.6875
L18.4062 0
L9.42188 0
z

M9.42188 75.9844
L18.4062 75.9844
L18.4062 64.5938
L9.42188 64.5938
z
" id="BitstreamVeraSans-Roman-69"/>
      <path d="
M25.3906 72.9062
L33.6875 72.9062
L8.29688 -9.28125
L0 -9.28125
z
" id="BitstreamVeraSans-Roman-2f"/>
      <path d="
M56.2031 29.5938
L56.2031 25.2031
L14.8906 25.2031
Q15.4844 15.9219 20.4844 11.0625
Q25.4844 6.20312 34.4219 6.20312
Q39.5938 6.20312 44.4531 7.46875
Q49.3125 8.73438 54.1094 11.2812
L54.1094 2.78125
Q49.2656 0.734375 44.1875 -0.34375
Q39.1094 -1.42188 33.8906 -1.42188
Q20.7969 -1.42188 13.1562 6.1875
Q5.51562 13.8125 5.51562 26.8125
Q5.51562 40.2344 12.7656 48.1094
Q20.0156 56 32.3281 56
Q43.3594 56 49.7812 48.8906
Q56.2031 41.7969 56.2031 29.5938
M47.2188 32.2344
Q47.125 39.5938 43.0938 43.9844
Q39.0625 48.3906 32.4219 48.3906
Q24.9062 48.3906 20.3906 44.1406
Q15.875 39.8906 15.1875 32.1719
z
" id="BitstreamVeraSans-Roman-65"/>
      <path d="
M37.1094 75.9844
L37.1094 68.5
L28.5156 68.5
Q23.6875 68.5 21.7969 66.5469
Q19.9219 64.5938 19.9219 59.5156
L19.9219 54.6875
L34.7188 54.6875
L34.7188 47.7031
L19.9219 47.7031
L19.9219 0
L10.8906 0
L10.8906 47.7031
L2.29688 47.7031
L2.29688 54.6875
L10.8906 54.6875
L10.8906 58.5
Q10.8906 67.625 15.1406 71.7969
Q19.3906 75.9844 28.6094 75.9844
z
" id="BitstreamVeraSans-Roman-66"/>
      <path d="
M48.7812 52.5938
L48.7812 44.1875
Q44.9688 46.2969 41.1406 47.3438
Q37.3125 48.3906 33.4062 48.3906
Q24.6562 48.3906 19.8125 42.8438
Q14.9844 37.3125 14.9844 27.2969
Q14.9844 17.2812 19.8125 11.7344
Q24.6562 6.20312 33.4062 6.20312
Q37.3125 6.20312 41.1406 7.25
Q44.9688 8.29688 48.7812 10.4062
L48.7812 2.09375
Q45.0156 0.34375 40.9844 -0.53125
Q36.9688 -1.42188 32.4219 -1.42188
Q20.0625 -1.42188 12.7812 6.34375
Q5.51562 14.1094 5.51562 27.2969
Q5.51562 40.6719 12.8594 48.3281
Q20.2188 56 33.0156 56
Q37.1562 56 41.1094 55.1406
Q45.0625 54.2969 48.7812 52.5938" id="BitstreamVeraSans-Roman-63"/>
     </defs>
     <g transform="translate(37.869375 236.13)rotate(-90.0)scale(0.12 -0.12)">
      <use xlink:href="#BitstreamVeraSans-Roman-53"/>
      <use x="63.4765625" xlink:href="#BitstreamVeraSans-Roman-65"/>
      <use x="125.0" xlink:href="#BitstreamVeraSans-Roman-63"/>
      <use x="179.98046875" xlink:href="#BitstreamVeraSans-Roman-2f"/>
      <use x="213.671875" xlink:href="#BitstreamVeraSans-Roman-66"/>
      <use x="248.876953125" xlink:href="#BitstreamVeraSans-Roman-69"/>
      <use x="276.66015625" xlink:href="#BitstreamVeraSans-Roman-6c"/>
      <use x="304.443359375" xlink:href="#BitstreamVeraSans-Roman-65"/>
     </g>
    </g>
   </g>
   <g id="patch_3">
    <path d="
M72 43.2
L518.4 43.2" style="fill:none;stroke:#000000;"/>
   </g>
   <g id="patch_4">
    <path d="
M518.4 388.8
L518.4 43.2" style="fill:none;stroke:#000000;"/>
   </g>
   <g id="patch_5">
    <path d="
M72 388.8
L518.4 388.8" style="fill:none;stroke:#000000;"/>
   </g>
   <g id="patch_6">
    <path d="
M72 388.8
L72 43.2" style="fill:none;stroke:#000000;"/>
   </g>
   <g id="legend_1">
    <g id="patch_7">
     <path d="
M429.055 115.339
L511.2 115.339
L511.2 50.4
L429.055 50.4
L429.055 115.339
z
" style="fill:#ffffff;stroke:#000000;"/>
    </g>
    <g id="line2d_64">
     <path d="
M439.135 62.0617
L459.295 62.0617" style="fill:none;stroke:#ff0000;"/>
    </g>
    <g id="line2d_65"/>
    <g id="text_22">
     <!-- LRU -->
     <defs>
      <path d="
M44.3906 34.1875
Q47.5625 33.1094 50.5625 29.5938
Q53.5625 26.0781 56.5938 19.9219
L66.6094 0
L56 0
L46.6875 18.7031
Q43.0625 26.0312 39.6719 28.4219
Q36.2812 30.8125 30.4219 30.8125
L19.6719 30.8125
L19.6719 0
L9.8125 0
L9.8125 72.9062
L32.0781 72.9062
Q44.5781 72.9062 50.7344 67.6719
Q56.8906 62.4531 56.8906 51.9062
Q56.8906 45.0156 53.6875 40.4688
Q50.4844 35.9375 44.3906 34.1875
M19.6719 64.7969
L19.6719 38.9219
L32.0781 38.9219
Q39.2031 38.9219 42.8438 42.2188
Q46.4844 45.5156 46.4844 51.9062
Q46.4844 58.2969 42.8438 61.5469
Q39.2031 64.7969 32.0781 64.7969
z
" id="BitstreamVeraSans-Roman-52"/>
      <path d="
M9.8125 72.9062
L19.6719 72.9062
L19.6719 8.29688
L55.1719 8.29688
L55.1719 0
L9.8125 0
z
" id="BitstreamVeraSans-Roman-4c"/>
      <path d="
M8.6875 72.9062
L18.6094 72.9062
L18.6094 28.6094
Q18.6094 16.8906 22.8438 11.7344
Q27.0938 6.59375 36.625 6.59375
Q46.0938 6.59375 50.3438 11.7344
Q54.5938 16.8906 54.5938 28.6094
L54.5938 72.9062
L64.5 72.9062
L64.5 27.3906
Q64.5 13.1406 57.4375 5.85938
Q50.3906 -1.42188 36.625 -1.42188
Q22.7969 -1.42188 15.7344 5.85938
Q8.6875 13.1406 8.6875 27.3906
z
" id="BitstreamVeraSans-Roman-55"/>
     </defs>
     <g transform="translate(475.13475 67.10175)scale(0.144 -0.144)">
      <use xlink:href="#BitstreamVeraSans-Roman-4c"/>
      <use x="55.712890625" xlink:href="#BitstreamVeraSans-Roman-52"/>
      <use x="125.1953125" xlink:href="#BitstreamVeraSans-Roman-55"/>
     </g>
    </g>
    <g id="line2d_66">
     <path d="
M439.135 83.1983
L459.295 83.1983" style="fill:none;opacity:0.7;stroke:#008000;"/>
    </g>
    <g id="line2d_67"/>
    <g id="text_23">
     <!-- MRU -->
     <defs>
      <path d="
M9.8125 72.9062
L24.5156 72.9062
L43.1094 23.2969
L61.8125 72.9062
L76.5156 72.9062
L76.5156 0
L66.8906 0
L66.8906 64.0156
L48.0938 14.0156
L38.1875 14.0156
L19.3906 64.0156
L19.3906 0
L9.8125 0
z
" id="BitstreamVeraSans-Roman-4d"/>
     </defs>
     <g transform="translate(475.13475 88.23825)scale(0.144 -0.144)">
      <use xlink:href="#BitstreamVeraSans-Roman-4d"/>
      <use x="86.279296875" xlink:href="#BitstreamVeraSans-Roman-52"/>
      <use x="155.76171875" xlink:href="#BitstreamVeraSans-Roman-55"/>
     </g>
    </g>
    <g id="line2d_68">
     <path d="
M439.135 104.335
L459.295 104.335" style="fill:none;opacity:0.5;stroke:#0000ff;"/>
    </g>
    <g id="line2d_69"/>
    <g id="text_24">
     <!-- FIFO -->
     <defs>
      <path d="
M9.8125 72.9062
L51.7031 72.9062
L51.7031 64.5938
L19.6719 64.5938
L19.6719 43.1094
L48.5781 43.1094
L48.5781 34.8125
L19.6719 34.8125
L19.6719 0
L9.8125 0
z
" id="BitstreamVeraSans-Roman-46"/>
      <path d="
M9.8125 72.9062
L19.6719 72.9062
L19.6719 0
L9.8125 0
z
" id="BitstreamVeraSans-Roman-49"/>
      <path d="
M39.4062 66.2188
Q28.6562 66.2188 22.3281 58.2031
Q16.0156 50.2031 16.0156 36.375
Q16.0156 22.6094 22.3281 14.5938
Q28.6562 6.59375 39.4062 6.59375
Q50.1406 6.59375 56.4219 14.5938
Q62.7031 22.6094 62.7031 36.375
Q62.7031 50.2031 56.4219 58.2031
Q50.1406 66.2188 39.4062 66.2188
M39.4062 74.2188
Q54.7344 74.2188 63.9062 63.9375
Q73.0938 53.6562 73.0938 36.375
Q73.0938 19.1406 63.9062 8.85938
Q54.7344 -1.42188 39.4062 -1.42188
Q24.0312 -1.42188 14.8125 8.82812
Q5.60938 19.0938 5.60938 36.375
Q5.60938 53.6562 14.8125 63.9375
Q24.0312 74.2188 39.4062 74.2188" id="BitstreamVeraSans-Roman-4f"/>
     </defs>
     <g transform="translate(475.13475 109.37475)scale(0.144 -0.144)">
      <use xlink:href="#BitstreamVeraSans-Roman-46"/>
      <use x="57.51953125" xlink:href="#BitstreamVeraSans-Roman-49"/>
      <use x="87.01171875" xlink:href="#BitstreamVeraSans-Roman-46"/>
      <use x="144.53125" xlink:href="#BitstreamVeraSans-Roman-4f"/>
     </g>
    </g>
   </g>
  </g>
 </g>
 <defs>
  <clipPath id="p7ff5b81e1d">
   <rect height="345.6" width="446.4" x="72.0" y="43.2"/>
  </clipPath>
 </defs>
</svg>
