<?xml version="1.0" encoding="utf-8" standalone="no"?>
<!DOCTYPE svg PUBLIC "-//W3C//DTD SVG 1.1//EN"
  "http://www.w3.org/Graphics/SVG/1.1/DTD/svg11.dtd">
<!-- Created with matplotlib (http://matplotlib.sourceforge.net/) -->
<svg height="432pt" version="1.1" viewBox="0 0 576 432" width="576pt" xmlns="http://www.w3.org/2000/svg" xmlns:xlink="http://www.w3.org/1999/xlink">
 <defs>
  <style type="text/css">
*{stroke-linecap:square;stroke-linejoin:round;}
  </style>
 </defs>
 <g id="figure_1">
  <g id="patch_1">
   <path d="
M0 432
L576 432
L576 0
L0 0
z
" style="fill:#ffffff;"/>
  </g>
  <g id="axes_1">
   <g id="patch_2">
    <path d="
M72 388.8
L518.4 388.8
L518.4 43.2
L72 43.2
z
" style="fill:#ffffff;"/>
   </g>
   <g id="line2d_1">
    <path clip-path="url(#p7ff5b81e1d)" d="
M72 257.8
L72.4464 139.88
L72.8928 167.101
L73.3392 164.335
L73.7856 126.327
L74.232 251.176
L74.6784 149.699
L75.1248 151.605
L75.5712 126.405
L76.0176 133.226
L76.464 148.907
L76.9104 125.237
L77.3568 136.528
L77.8032 134.368
L78.2496 133.245
L78.696 258.491
L79.1424 256.931
L79.5888 264.198
L80.0352 163.053
L80.4816 249.888
L80.928 170.889
L81.3744 158.43
L81.8208 166.005
L82.2672 153.317
L82.7136 151.016
L83.16 142.008
L83.6064 157.29
L84.0528 149.135
L84.4992 264.507
L84.9456 254.898
L85.392 159.265
L85.8384 167.809
L86.2848 267.18
L86.7312 167.961
L87.1776 258.248
L87.624 258.353
L88.0704 150.141
L88.5168 133.913
L88.9632 261.084
L89.4096 135.096
L89.856 252.711
L90.3024 262.844
L90.7488 260.405
L91.1952 263.731
L91.6416 265.649
L92.088 258.294
L92.5344 134.832
L92.9808 261.432
L93.4272 249.978
L93.8736 261.24
L94.32 255.187
L94.7664 260.331
L95.2128 172.039
L95.6592 262.502
L96.1056 256.444
L96.552 258.018
L96.9984 156.135
L97.4448 265.495
L97.8912 143.149
L98.3376 148.955
L98.784 248.481
L99.2304 178.69
L99.6768 171.948
L100.123 141.75
L100.57 254.804
L101.016 146.444
L101.462 261.047
L101.909 259.798
L102.355 259.44
L102.802 262.432
L103.248 255.224
L103.694 262.067
L104.141 261.682
L104.587 256.28
L105.034 253.926
L105.48 263.792
L105.926 263.605
L106.373 170.694
L106.819 261.191
L107.266 256.955
L107.712 257.851
L108.158 167.118
L108.605 260.509
L109.051 254.953
L109.498 261.057
L109.944 261.798
L110.39 263.956
L110.837 262.949
L111.283 261.659
L111.73 264.866
L112.176 261.698
L112.622 252.925
L113.069 259.104
L113.515 259.703
L113.962 174.694
L114.408 251.596
L114.854 259.213
L115.301 262.686
L115.747 264.254
L116.194 258.88
L116.64 166.626
L117.086 142.289
L117.533 138.032
L117.979 249.769
L118.426 266.94
L118.872 264.868
L119.318 258.035
L119.765 262.456
L120.211 252.062
L120.658 266.851
L121.104 260.256
L121.55 255.329
L121.997 255.676
L122.443 257.496
L122.89 261.176
L123.336 268.072
L123.782 267.036
L124.229 256.244
L125.122 266.637
L126.014 250.02
L126.461 259.91
L126.907 258.504
L127.354 147.102
L127.8 258.786
L128.246 270.141
L128.693 263.377
L129.139 268.144
L129.586 261.266
L130.032 259.502
L130.478 171.006
L130.925 260.301
L131.371 254.063
L131.818 265.176
L132.264 263.774
L132.71 256.804
L133.157 269.261
L133.603 264.723
L134.05 266.794
L134.496 261.348
L134.942 252.484
L135.389 264.885
L135.835 165.046
L136.282 261.468
L136.728 254.64
L137.174 258.699
L137.621 269.663
L138.067 263.612
L138.514 264.852
L138.96 262.178
L139.406 252.917
L139.853 265.431
L140.299 261.696
L140.746 254.243
L141.638 258.792
L142.085 266.657
L142.531 263.839
L142.978 268.53
L143.87 256.477
L144.317 253.593
L144.763 223.685
L145.656 258.302
L146.102 263.043
L146.549 263.874
L146.995 260.375
L147.442 250.2
L148.334 263.966
L148.781 267.859
L149.227 265.721
L149.674 266.56
L150.12 256.883
L150.566 261.687
L151.013 262.135
L151.459 261.97
L151.906 256.775
L152.352 140.49
L152.798 258.837
L153.245 256.518
L153.691 265.393
L154.138 263.514
L154.584 265.02
L155.03 262.217
L155.477 252.689
L155.923 263.847
L156.37 261.708
L156.816 260.247
L157.262 257.088
L157.709 259.842
L158.155 269.038
L158.602 263.96
L159.048 266.077
L159.494 256.668
L159.941 243.494
L160.387 265.106
L160.834 261.54
L161.28 252.768
L161.726 257.068
L162.173 255.82
L162.619 269.957
L163.066 264.185
L163.512 267.985
L163.958 265.194
L164.405 259.432
L164.851 262.024
L165.298 256.176
L165.744 255.189
L166.19 253.399
L166.637 255.601
L167.083 268.821
L167.53 266.022
L167.976 266.376
L168.422 264.859
L168.869 259.961
L169.315 261.44
L169.762 261.363
L170.208 256.992
L171.101 263.225
L171.547 256.356
L171.994 266.433
L172.44 264.175
L172.886 254.205
L173.333 253.118
L173.779 234.517
L174.226 260.279
L174.672 263.587
L175.118 259.124
L176.011 265.089
L176.458 264.776
L176.904 261.763
L177.35 250.597
L177.797 263.207
L178.243 260.535
L178.69 261.84
L179.136 254.377
L179.582 259.424
L180.029 259.045
L180.475 268.956
L180.922 265.216
L181.814 253.959
L182.261 262.243
L182.707 264.687
L183.154 261.86
L183.6 252.178
L184.046 255.838
L184.493 254.971
L185.386 270.619
L185.832 177.229
L186.278 263.536
L187.171 260.674
L187.618 263.683
L188.064 261.545
L188.51 250.666
L188.957 259.677
L189.403 259.562
L189.85 257.398
L190.296 268.917
L190.742 265.135
L191.189 264.447
L191.635 261.368
L192.082 253.532
L192.528 261.577
L192.974 262.416
L193.421 261.969
L193.867 255.555
L194.314 261.193
L194.76 262.046
L195.206 265.286
L195.653 252.182
L196.099 255.773
L196.546 256.678
L197.438 264.104
L197.885 262.065
L198.331 255.957
L198.778 262.66
L199.224 264.099
L199.67 263.932
L200.117 267.302
L201.01 259.22
L201.456 264.543
L201.902 228.575
L203.242 264.22
L203.688 268.538
L204.134 265.95
L204.581 265.431
L205.474 260.696
L206.366 262.573
L206.813 256.237
L207.259 261.09
L207.706 261.017
L208.152 261.739
L208.598 266.686
L209.045 267.666
L209.491 263.832
L209.938 261.616
L210.384 253.744
L210.83 255.056
L211.277 263.67
L211.723 262.873
L212.17 248.858
L212.616 260.449
L213.509 268.23
L213.955 262.023
L214.402 263.564
L214.848 254.079
L215.294 261.778
L215.741 263.824
L216.187 262.026
L216.634 255.235
L217.08 256.683
L217.526 262.562
L217.973 258.239
L218.419 266.966
L219.312 258.742
L219.758 264.715
L220.205 256.209
L220.651 154.569
L221.098 256.6
L221.544 264.318
L221.99 269.906
L222.437 262.048
L222.883 262.5
L223.33 259.001
L223.776 264.988
L224.222 262.041
L224.669 261.642
L225.115 256.961
L225.562 259.826
L226.008 260.831
L226.454 256.535
L226.901 264.841
L227.347 262.567
L227.794 263.713
L228.24 261.16
L228.686 254.328
L229.133 254.82
L229.579 263.764
L230.026 231.096
L230.472 255.924
L230.918 261.244
L231.365 262.762
L231.811 257.579
L232.258 257.438
L232.704 261.674
L233.15 263.615
L233.597 260.655
L234.043 264.744
L234.49 258.782
L234.936 266.328
L235.382 267.102
L235.829 262.269
L236.275 262.261
L236.722 253.499
L237.168 262.196
L237.614 262.512
L238.061 260.695
L238.507 256.565
L238.954 257.372
L239.4 269.16
L239.846 265.598
L240.293 266.956
L240.739 262.622
L241.186 262.375
L241.632 263.855
L242.078 260.606
L242.525 260.507
L242.971 262.117
L243.418 255.558
L243.864 262.154
L244.31 260.309
L244.757 257.303
L245.203 265.859
L245.65 266.105
L246.096 265.235
L246.542 261.957
L246.989 260.426
L247.435 260.382
L247.882 263.847
L248.328 262.148
L248.774 262.25
L249.221 258.72
L249.667 258.706
L250.114 269.378
L250.56 258.637
L251.006 265.602
L251.453 248.576
L251.899 259.864
L252.346 263.041
L252.792 262.165
L253.238 253.809
L253.685 258.292
L254.131 269.525
L254.578 265.417
L255.024 265.708
L255.47 261.637
L255.917 259.264
L256.363 263.932
L257.256 253.093
L257.702 252.579
L258.149 257.027
L258.595 270.226
L259.042 194.059
L259.488 257.016
L259.934 260.155
L260.381 253.83
L260.827 258.842
L261.274 265.735
L261.72 259.677
L262.166 257.925
L262.613 250.296
L263.506 267.626
L263.952 265.729
L264.398 269.08
L265.291 259.088
L265.738 263.537
L266.184 259.228
L266.63 265.684
L267.077 258.958
L267.523 264.168
L267.97 260.376
L268.416 264.309
L268.862 264.13
L269.309 261.913
L270.202 255.179
L270.648 261.245
L271.094 264.802
L271.541 258.991
L271.987 255.251
L272.434 258.698
L272.88 270.752
L273.326 262.543
L273.773 265.628
L274.219 262.159
L274.666 260.482
L275.112 260.476
L275.558 264.081
L276.005 255.328
L276.451 253.785
L277.344 268.516
L277.79 265.006
L278.237 266.427
L278.683 261.214
L279.13 261.124
L279.576 262.406
L280.022 262.161
L280.469 255.323
L280.915 252.065
L281.362 255.362
L281.808 264.005
L282.254 264.155
L282.701 270.896
L283.147 262.357
L283.594 259.898
L284.04 254.001
L284.486 261.477
L284.933 257.937
L285.379 260.238
L285.826 263.958
L286.272 260.447
L287.165 269.118
L287.611 258.755
L288.058 265.317
L288.504 241.653
L288.95 248.221
L289.397 262.092
L289.843 262.244
L290.29 253.571
L290.736 258.749
L291.182 255.503
L291.629 269.11
L292.075 264.151
L292.522 267.252
L292.968 262.076
L293.414 255.15
L293.861 260.514
L294.307 262.722
L294.754 253.034
L295.2 257.247
L295.646 253.285
L296.093 252.012
L296.539 265.636
L296.986 265.801
L297.432 258.749
L297.878 267.345
L298.325 263.881
L298.771 262.165
L299.218 256.523
L299.664 257.802
L300.11 257.34
L300.557 241.158
L301.003 265.661
L301.45 267.293
L301.896 259.317
L302.342 260.478
L302.789 263.984
L303.235 262.37
L303.682 255.343
L304.128 254.251
L304.574 263.572
L305.021 265.201
L305.467 259.225
L305.914 261.912
L306.36 265.649
L306.806 258.701
L307.253 255.207
L307.699 262.176
L308.146 255.32
L308.592 262.097
L309.038 263.372
L309.485 268.237
L309.931 262.662
L310.378 262.292
L310.824 263.919
L311.27 249.795
L311.717 264.353
L312.163 262.015
L312.61 256.935
L313.502 263.928
L313.949 258.737
L314.395 267.64
L314.842 268.13
L315.288 261.969
L315.734 262.249
L316.181 261.375
L316.627 256.498
L317.074 256.221
L317.52 250.585
L317.966 258.902
L318.413 262.307
L318.859 257.031
L319.306 258.958
L319.752 265.207
L320.198 266.853
L320.645 265.226
L321.091 267.064
L321.538 264.547
L321.984 258.25
L322.43 256.157
L322.877 259.9
L323.323 260.5
L323.77 255.45
L324.216 258.958
L324.662 258.991
L325.109 266.982
L325.555 265.487
L326.002 265.611
L326.448 262.806
L326.894 251.565
L327.787 262.28
L328.234 262.413
L328.68 253.764
L329.126 260.296
L329.573 268.856
L330.019 261.261
L330.466 260.484
L330.912 262.186
L331.358 262.099
L331.805 260.839
L332.251 262.028
L332.698 256.297
L333.144 252.578
L333.59 266.412
L334.037 266.687
L334.483 264.334
L334.93 268.635
L335.376 262.003
L336.269 258.738
L336.715 250.353
L337.162 257.069
L337.608 258.757
L338.054 266.452
L338.501 265.499
L338.947 258.958
L339.394 267.357
L339.84 264.132
L340.286 258.787
L340.733 263.986
L341.626 257.029
L342.072 260.485
L342.965 256.911
L343.411 268.859
L343.858 264.353
L344.304 263.925
L344.75 260.855
L345.197 262.171
L345.643 263.93
L346.09 261.34
L346.536 341.29
L346.982 257.044
L347.429 255.319
L347.875 258.719
L348.322 265.879
L348.768 267.533
L349.214 263.987
L349.661 262.903
L350.107 259.353
L350.554 263.851
L351 259.193
L351.446 262.049
L351.893 261.978
L352.786 253.428
L353.678 269.101
L354.125 265.628
L354.571 263.908
L355.018 258.926
L355.464 258.734
L355.91 263.889
L356.357 260.745
L356.803 258.68
L357.25 257.399
L357.696 263.505
L358.142 262.006
L358.589 267.331
L359.035 265.962
L359.482 265.705
L359.928 260.499
L360.374 253.575
L360.821 260.674
L361.267 263.941
L361.714 260.706
L362.16 259.148
L362.606 256.151
L363.053 265.716
L363.499 269.051
L363.946 263.897
L364.392 260.769
L364.838 253.506
L365.285 260.645
L365.731 265.658
L366.178 262.187
L366.624 253.709
L367.517 267.167
L367.963 265.82
L368.41 264.051
L368.856 263.899
L369.302 260.425
L369.749 262.101
L370.195 262.386
L370.642 255.286
L371.088 253.643
L371.534 264.25
L371.981 268.203
L372.427 258.272
L372.874 268.597
L373.32 256.936
L373.766 263.943
L374.213 262.202
L374.659 261.808
L375.106 255.812
L375.552 254.513
L375.998 250.797
L376.445 253.309
L376.891 264.038
L377.338 258.693
L377.784 266.694
L378.23 269.307
L379.123 257.009
L379.57 259.243
L380.016 260.511
L380.462 264.079
L381.355 256.639
L381.802 256.804
L382.248 267.289
L382.694 268.843
L383.141 262.609
L383.587 262.856
L384.034 251.359
L384.48 262.154
L384.926 262.331
L385.373 258.072
L385.819 252.58
L386.266 257.154
L386.712 263.722
L387.158 264.061
L387.605 269.06
L388.051 262.172
L388.498 260.609
L388.944 262.377
L389.39 260.502
L389.837 255.458
L390.283 255.1
L390.73 263.673
L391.176 269.811
L391.622 261.359
L392.069 261.428
L392.515 264.058
L392.962 258.744
L393.408 262.145
L393.854 262.754
L394.301 256.583
L394.747 258.749
L395.194 263.926
L395.64 260.836
L396.086 263.766
L396.533 269.633
L396.979 263.869
L397.426 255.421
L397.872 251.889
L398.318 262.611
L398.765 262.199
L399.211 262.47
L399.658 256.335
L400.997 269.304
L401.443 262.267
L401.89 260.468
L402.336 263.929
L402.782 258.939
L403.229 264.171
L403.675 260.521
L404.122 226.32
L404.568 231.278
L405.014 253.066
L405.461 246.701
L405.907 263.85
L406.354 263.795
L406.8 265.686
L407.246 259.105
L407.693 258.773
L408.139 263.732
L408.586 263.591
L409.032 261.571
L409.478 255.359
L409.925 256.993
L410.371 260.692
L410.818 258.785
L411.264 265.675
L411.71 269.233
L412.157 263.983
L412.603 260.539
L413.05 259.156
L413.496 263.521
L413.942 263.02
L414.389 259.586
L414.835 263.951
L415.282 260.479
L415.728 264.129
L416.174 265.906
L416.621 260.402
L417.067 258.761
L417.514 263.981
L417.96 260.634
L418.406 261.949
L418.853 262.168
L419.299 255.434
L419.746 256.985
L420.192 262.374
L420.638 265.636
L421.085 265.676
L421.978 258.758
L422.424 260.669
L422.87 258.671
L423.317 253.577
L424.21 257.026
L424.656 267.351
L425.102 267.407
L425.549 263.916
L426.442 260.408
L426.888 265.781
L427.781 255.27
L428.227 261.296
L428.674 259.715
L429.12 257.15
L429.566 266.058
L430.013 261.917
L430.459 255.291
L430.906 258.999
L431.352 260.455
L431.798 258.772
L432.245 255.332
L432.691 258.977
L433.138 254.694
L433.584 253.947
L434.03 247.01
L434.477 253.694
L434.923 264.391
L435.37 263.331
L435.816 257.074
L436.262 260.423
L436.709 260.39
L437.155 255.274
L437.602 259.305
L438.048 255.39
L438.494 248.073
L438.941 266.622
L439.387 258.035
L439.834 263.902
L440.28 255.37
L441.173 258.748
L441.619 264.136
L442.066 259.008
L442.512 262.262
L442.958 256.659
L443.405 261.107
L443.851 263.992
L444.298 261.769
L445.19 254.752
L445.637 258.709
L446.083 260.381
L446.53 260.622
L446.976 253.485
L447.422 257.076
L447.869 264.231
L448.315 255.226
L448.762 260.497
L449.208 261.653
L449.654 257.828
L450.101 263.924
L450.547 258.908
L450.994 261.13
L451.44 254.785
L451.886 252.774
L452.333 259.984
L452.779 260.726
L453.226 263.377
L454.118 253.511
L454.565 257.033
L455.011 262.162
L455.458 260.448
L455.904 255.204
L456.35 253.586
L456.797 267.403
L457.243 258.927
L457.69 260.083
L458.136 257.609
L458.582 258.834
L459.029 259.617
L459.475 257.841
L459.922 263.931
L460.368 260.436
L460.814 251.871
L461.707 256.445
L462.154 214.029
L462.6 250.04
L463.493 258.215
L463.939 264.13
L464.386 251.916
L464.832 251.855
L465.278 265.089
L465.725 264.887
L466.171 260.567
L466.618 263.926
L467.064 260.552
L467.51 258.751
L467.957 258.981
L468.403 262.025
L468.85 253.191
L469.296 251.297
L469.742 253.851
L470.189 260.48
L470.635 264.91
L471.082 260.551
L471.528 258.937
L471.974 260.63
L472.867 260.526
L473.314 258.957
L473.76 256.524
L474.206 253.387
L474.653 265.566
L475.099 256.926
L475.546 258.711
L475.992 262.339
L476.438 257.169
L476.885 263.075
L477.331 261.157
L478.224 246.841
L478.67 255.276
L479.117 267.392
L479.563 265.817
L480.01 262.216
L480.456 260.395
L480.902 248.484
L481.349 264.083
L481.795 262.221
L482.242 259.683
L482.688 254.5
L483.134 260.661
L483.581 257.311
L484.027 262.207
L484.474 262.192
L485.366 259.392
L485.813 259.688
L486.259 262.243
L486.706 250.104
L487.152 257.008
L487.598 255.446
L488.045 263.961
L488.491 262.362
L488.938 262.107
L489.384 258.913
L489.83 260.761
L490.277 260.442
L490.723 218.576
L491.17 255.413
L491.616 253.362
L492.062 258.952
L492.509 255.324
L492.955 260.479
L493.402 262.188
L493.848 261.8
L494.741 253.566
L495.187 262.204
L495.634 260.071
L496.08 259.005
L496.526 255.739
L496.973 256.457
L497.419 261.083
L497.866 264.14
L498.312 260.47
L498.758 260.685
L499.205 258.783
L499.651 260.534
L500.098 260.41
L500.544 258.777
L500.99 253.59
L501.883 264.156
L502.33 260.488
L502.776 262.39
L503.222 260.578
L503.669 252.007
L504.115 257.29
L504.562 258.504
L505.008 258.448
L505.454 255.279
L505.901 255.324
L506.794 265.636
L507.24 260.473
L507.686 260.401
L508.133 253.556
L509.026 263.887
L509.472 259.068
L509.918 250.399
L510.811 265.749
L511.258 258.775
L511.704 263.917
L512.597 257.239
L513.043 263.972
L513.49 258.748
L514.382 252.014
L514.829 257.116
L515.275 263.95
L515.722 258.959
L516.168 260.682
L516.614 261.798
L517.061 263.692
L517.507 257.021
L517.954 260.375
L517.954 260.375" style="fill:none;stroke:#ff0000;"/>
   </g>
   <g id="line2d_2">
    <path clip-path="url(#p7ff5b81e1d)" d="
M72 257.23
L72.4464 162.16
L72.8928 158.573
L73.3392 158.398
L73.7856 150.2
L74.232 158.708
L75.1248 144.617
L75.5712 149.86
L76.0176 146.576
L76.464 160.349
L76.9104 163.786
L77.3568 155.377
L77.8032 154.161
L78.2496 154.574
L78.696 158.622
L79.1424 155.092
L79.5888 155.373
L80.0352 153.812
L80.4816 244.53
L80.928 158.772
L81.3744 159.407
L81.8208 149.247
L82.2672 237.658
L82.7136 232.874
L83.16 152.955
L83.6064 149.69
L84.0528 160.889
L84.4992 246.134
L84.9456 156.866
L85.392 234.604
L85.8384 156.884
L86.2848 233.027
L86.7312 235.872
L87.1776 155.882
L87.624 162.181
L88.0704 245.001
L88.5168 155.158
L88.9632 234.502
L89.4096 234.669
L89.856 241.472
L90.3024 236.327
L90.7488 232.996
L91.1952 156.821
L91.6416 157.039
L92.088 243.426
L92.5344 157.76
L92.9808 232.563
L93.4272 236.718
L93.8736 235.708
L94.32 143.232
L94.7664 137.383
L95.2128 244.96
L95.6592 235.41
L96.1056 232.295
L96.552 248.511
L96.9984 240.833
L97.4448 237.079
L97.8912 158.679
L98.3376 239.929
L98.784 238.098
L99.2304 241.472
L99.6768 248.076
L100.123 153.888
L100.57 147.839
L101.016 150.724
L101.462 234.606
L101.909 234.782
L102.355 152.759
L102.802 233.727
L103.248 241.562
L103.694 246.482
L104.141 245.369
L104.587 155.326
L105.034 242.92
L105.48 241.908
L105.926 239.826
L106.373 243.481
L106.819 243.842
L107.266 245.863
L107.712 167.361
L108.158 236.562
L108.605 143.555
L109.051 238.921
L109.498 241.312
L109.944 233.464
L110.39 233.069
L110.837 240.575
L111.73 246.069
L112.176 158.241
L112.622 232.798
L113.069 242.441
L113.515 239.344
L113.962 227.871
L114.854 245.109
L115.301 163.511
L115.747 240.846
L116.194 235.768
L116.64 238.401
L117.086 142.888
L117.533 150.065
L117.979 237.958
L118.426 241.516
L118.872 157.531
L119.318 239.292
L119.765 244.019
L120.211 156.494
L120.658 238.234
L121.104 232.592
L121.55 241.974
L121.997 235.884
L122.443 231.798
L122.89 232.672
L123.336 239.723
L123.782 241.645
L124.229 160.65
L124.675 237.967
L125.122 240.773
L125.568 240.723
L126.014 235.945
L126.461 234.642
L126.907 241.833
L127.354 242.562
L127.8 244.215
L128.693 234.31
L129.139 243.179
L129.586 235.415
L130.032 233.227
L130.478 242.657
L130.925 244.843
L131.371 250.091
L131.818 242.029
L132.264 238.585
L132.71 242.175
L133.157 241.679
L133.603 230.301
L134.496 250.981
L134.942 241.658
L135.389 241.62
L135.835 240.016
L136.728 243.324
L137.174 235.881
L137.621 231.817
L138.514 248.031
L138.96 242.588
L139.406 243.165
L139.853 239.408
L140.299 241.926
L140.746 227.679
L141.192 241.16
L141.638 247.206
L142.085 239.89
L142.531 239.456
L142.978 242.895
L143.424 242.502
L143.87 240.783
L144.317 241.376
L144.763 247.295
L145.21 250.267
L145.656 238.41
L146.102 241.603
L146.549 241.573
L146.995 240.098
L147.442 237.968
L147.888 234.005
L148.781 244.708
L149.227 245.346
L149.674 240.738
L150.12 233.993
L150.566 241.122
L151.013 238.59
L151.459 231.72
L151.906 237.458
L152.798 251.825
L153.245 243.186
L153.691 239.353
L154.138 244.09
L154.584 240.028
L155.03 237.701
L155.477 237.364
L155.923 235.766
L156.37 242.796
L156.816 243.197
L157.262 241.479
L157.709 233.154
L158.155 243.123
L158.602 237.939
L159.048 231.289
L159.494 239.774
L159.941 242.144
L160.387 242.624
L160.834 238.218
L161.28 240.247
L161.726 240.979
L162.173 243.399
L162.619 240.753
L163.066 242.25
L163.512 251.857
L163.958 244.076
L164.405 239.554
L164.851 244.76
L165.298 238.344
L165.744 239.771
L166.19 217.3
L166.637 227.925
L167.083 232.944
L167.53 244.875
L167.976 248.879
L168.422 243.486
L168.869 234.201
L169.315 233.586
L169.762 242.968
L170.208 236.148
L170.654 238.628
L171.101 234.119
L171.547 248.429
L171.994 250.627
L172.44 240.615
L172.886 239.384
L173.333 233.89
L173.779 243.199
L174.226 232.913
L174.672 236.022
L175.118 242.191
L175.565 242.796
L176.011 241.906
L176.458 236.207
L176.904 239.643
L177.35 239.797
L177.797 237.601
L178.243 233.568
L178.69 237.687
L179.136 247.306
L179.582 248.39
L180.029 245.155
L180.475 239.763
L180.922 243.87
L181.368 212.819
L181.814 230.3
L182.261 237.552
L182.707 239.982
L183.154 241.25
L183.6 248.27
L184.046 241.708
L184.493 238.002
L184.939 243.549
L185.386 244.852
L185.832 238.196
L186.278 244.952
L186.725 247.061
L187.171 246.517
L187.618 241.375
L188.064 239.984
L188.51 242.374
L188.957 242.25
L189.403 241.793
L189.85 232.135
L190.296 243.968
L190.742 243.145
L191.189 243.21
L191.635 342.304
L192.082 231.431
L192.528 239.282
L192.974 233.676
L193.421 232.746
L193.867 236.626
L194.314 245.016
L194.76 245.697
L195.206 243.006
L195.653 237.946
L196.099 244.962
L196.546 243.014
L196.992 238.402
L197.438 244.395
L197.885 240.544
L198.331 246.201
L198.778 242.469
L199.224 240.006
L199.67 234.793
L200.117 242.251
L200.563 235.052
L201.01 236.534
L201.456 240.19
L201.902 241.327
L202.349 245.542
L202.795 241.781
L203.242 235.652
L204.134 239.44
L204.581 235.3
L205.027 244.908
L205.474 246.321
L205.92 242.055
L206.366 242.158
L206.813 239.317
L207.259 239.801
L207.706 241.539
L208.152 237.135
L208.598 230.497
L209.045 238.356
L209.491 244.233
L209.938 242.005
L210.384 241.009
L210.83 234.516
L211.277 240.516
L211.723 236.289
L212.17 234.081
L212.616 243.772
L213.062 245.25
L213.509 252.9
L213.955 240.398
L214.402 236.501
L214.848 242.87
L215.294 240.568
L215.741 239.227
L216.187 244.472
L216.634 221.35
L217.08 245.02
L217.526 249.101
L217.973 241.975
L218.419 237.161
L218.866 242.961
L219.312 238.399
L219.758 232.175
L220.205 233.25
L221.098 246.782
L221.544 249.538
L221.99 245.4
L222.437 235.449
L222.883 245.177
L223.33 241.672
L223.776 239.453
L224.222 246.456
L224.669 241.951
L225.115 245.123
L225.562 240.269
L226.008 237.596
L226.454 243.912
L226.901 241.538
L227.347 234.083
L227.794 236.158
L228.24 240.69
L228.686 242.666
L229.133 245.191
L229.579 242.679
L230.026 236.242
L230.472 237.838
L230.918 237.401
L231.365 232.843
L231.811 231.73
L232.258 243.501
L232.704 247.571
L233.597 238.886
L234.043 241.564
L234.49 243.196
L234.936 234.648
L235.382 231.836
L235.829 237.562
L236.722 245.059
L237.168 241.42
L237.614 239.752
L238.507 243.282
L238.954 239.743
L239.4 243.21
L239.846 245.007
L240.293 243.245
L240.739 238.402
L241.186 236.116
L241.632 241.5
L242.078 207.963
L242.525 233.656
L242.971 234.513
L243.418 236.386
L243.864 243.158
L244.31 241.642
L244.757 241.693
L245.203 242.285
L245.65 228.791
L246.096 239.828
L246.542 236.258
L246.989 231.298
L247.435 244.912
L247.882 246.742
L248.328 250.284
L248.774 238.526
L249.221 239.608
L249.667 238.18
L250.56 241.489
L251.006 239.972
L251.453 246.893
L251.899 242.865
L252.346 240.588
L252.792 239.737
L253.238 241.736
L253.685 241.032
L254.131 234.393
L254.578 234.508
L255.024 238.051
L255.47 248.42
L255.917 248.411
L256.363 234.694
L256.81 234.716
L257.256 243.245
L257.702 234.596
L258.149 241.053
L258.595 241.95
L259.042 246.691
L259.488 248.346
L259.934 240.577
L260.381 238.972
L260.827 241.556
L261.274 243.292
L261.72 229.403
L262.166 231.196
L262.613 241.48
L263.059 234.744
L263.506 246.726
L264.398 238.579
L264.845 240.847
L265.291 232.056
L265.738 231.196
L266.63 245.751
L267.077 240.026
L267.523 232.79
L267.97 239.671
L268.416 240.859
L268.862 237.035
L269.309 231.368
L269.755 240.84
L270.648 250.06
L271.094 243.204
L271.541 238.19
L271.987 243.061
L272.434 238.246
L272.88 238.582
L273.326 241.14
L274.219 244.31
L275.112 241.471
L275.558 237.983
L276.005 243.248
L276.451 236.37
L276.898 232.953
L277.344 239.724
L277.79 239.842
L278.237 248.41
L279.13 238.064
L280.022 244.96
L280.469 239.743
L280.915 241.553
L281.362 244.927
L281.808 223.264
L282.254 220.012
L282.701 240.077
L283.147 239.73
L283.594 236.473
L284.486 235.069
L284.933 241.307
L285.379 200.003
L285.826 243.175
L286.272 243.204
L286.718 239.905
L287.165 241.567
L287.611 236.311
L288.058 229.491
L288.504 239.735
L288.95 246.655
L289.397 248.464
L289.843 241.376
L290.29 240.199
L290.736 241.36
L291.182 240.195
L291.629 236.251
L292.075 223.723
L292.522 241.775
L292.968 250.088
L293.414 236.419
L293.861 236.82
L294.307 243.164
L294.754 240.114
L295.2 234.08
L295.646 234.433
L296.986 249.722
L297.432 245.829
L297.878 237.311
L298.325 243.224
L298.771 238.136
L299.218 237.692
L299.664 245.61
L300.11 250.617
L300.557 248.36
L301.003 240.002
L301.45 239.888
L301.896 240.648
L302.342 242.997
L302.789 233.043
L303.235 234.846
L303.682 242.473
L304.128 239.013
L304.574 248.374
L305.021 244.916
L305.467 229.642
L305.914 245.005
L306.36 241.695
L306.806 231.385
L307.253 246.647
L307.699 245.197
L308.146 250.152
L308.592 245.039
L309.038 237.653
L309.485 240.055
L309.931 238.227
L310.378 242.88
L310.824 234.537
L311.27 241.535
L312.163 245.069
L313.056 238.108
L313.502 241.48
L313.949 236.286
L314.395 234.555
L314.842 236.245
L315.288 245.116
L315.734 244.883
L316.181 245.016
L316.627 236.452
L317.074 243.278
L317.52 224.448
L317.966 241.47
L318.413 239.902
L318.859 243.231
L319.306 248.491
L319.752 244.953
L320.198 238.243
L320.645 238.212
L321.091 234.773
L321.538 239.817
L321.984 236.324
L322.43 234.821
L323.323 244.547
L323.77 242.001
L324.216 241.371
L324.662 239.73
L325.109 242.381
L325.555 234.177
L326.002 234.004
L326.448 244.972
L326.894 245.126
L327.341 248.714
L327.787 244.456
L328.234 237.255
L328.68 241.034
L329.126 243.039
L329.573 232.919
L330.019 232.829
L330.466 238.068
L330.912 241.447
L331.358 243.313
L331.805 241.511
L332.251 232.837
L332.698 241.47
L333.144 239.151
L333.59 230.26
L334.483 248.377
L334.93 250.148
L335.376 246.164
L335.822 237.116
L336.269 239.722
L336.715 244.985
L337.162 239.755
L337.608 244.425
L338.054 242.39
L338.501 251.361
L338.947 238.373
L339.394 241.383
L339.84 234.605
L340.286 241.707
L340.733 235.477
L341.179 233.31
L341.626 236.968
L342.072 246.453
L342.518 246.632
L342.965 222.571
L343.411 236.051
L343.858 237.971
L344.304 244.943
L344.75 241.042
L345.197 238.726
L345.643 244.807
L346.09 245.258
L346.536 250.149
L346.982 236.415
L347.429 241.525
L347.875 243.069
L348.322 240.105
L348.768 241.535
L349.214 236.335
L349.661 241.494
L350.107 241.569
L350.554 246.692
L351 234.62
L351.446 237.994
L351.893 243.223
L352.339 238.056
L352.786 236.267
L353.232 243.308
L353.678 243.544
L354.125 244.991
L355.018 240.653
L355.464 234.384
L355.91 241.731
L356.357 234.817
L356.803 234.617
L357.25 240.765
L357.696 238.996
L358.142 248.439
L358.589 241.559
L359.035 240.011
L359.482 239.823
L359.928 238.112
L360.374 239.645
L361.267 251.035
L361.714 242.283
L362.16 241.594
L363.053 238.35
L363.499 238.394
L363.946 234.303
L364.392 236.352
L364.838 239.848
L365.285 244.944
L365.731 241.759
L366.178 239.776
L366.624 241.456
L367.07 241.594
L367.963 232.821
L368.41 232.466
L368.856 238.991
L369.302 247.282
L369.749 246.555
L370.195 241.478
L370.642 239.671
L371.088 243.391
L371.534 239.966
L371.981 240.076
L372.874 250.782
L373.766 236.797
L374.213 236.51
L374.659 234.786
L375.106 241.523
L375.552 236.313
L375.998 233.103
L376.445 238.072
L376.891 248.617
L377.338 249.716
L378.23 238.282
L378.677 241.511
L379.123 239.842
L379.57 236.501
L380.016 243.254
L380.909 249.955
L381.355 240.025
L381.802 238.449
L382.248 242.861
L382.694 232.755
L383.141 236.119
L383.587 234.86
L384.034 241.007
L384.48 240.418
L384.926 246.662
L385.373 243.247
L385.819 237.996
L386.266 241.506
L386.712 238.074
L387.158 231.495
L387.605 241.493
L388.051 241.568
L388.498 246.72
L389.39 239.788
L389.837 240.012
L390.283 245.008
L390.73 239.135
L391.176 243.856
L391.622 241.764
L392.069 242.785
L392.515 241.574
L392.962 243.12
L393.408 239.749
L393.854 217.351
L394.301 238.33
L394.747 236.32
L395.194 231.277
L395.64 234.703
L396.086 243.435
L396.533 245.333
L396.979 242.47
L397.426 231.205
L397.872 243.623
L398.318 242.867
L398.765 238.084
L399.211 244.926
L399.658 245.093
L400.104 241.607
L400.55 239.703
L400.997 236.413
L401.443 239.824
L401.89 241.514
L402.336 236.346
L402.782 234.99
L403.229 241.24
L403.675 243.225
L404.122 243.246
L405.014 236.369
L405.461 241.458
L405.907 238.074
L406.354 238.007
L407.246 245.044
L407.693 241.906
L408.139 243.195
L408.586 240.259
L409.032 241.213
L409.478 240.055
L409.925 237.454
L410.371 231.27
L410.818 239.622
L411.71 246.585
L412.157 243.285
L412.603 238.045
L413.05 243.248
L413.496 243.543
L413.942 237.966
L414.389 246.622
L414.835 245.205
L415.282 250.155
L416.174 239.827
L416.621 238.297
L417.067 246.76
L417.514 232.896
L417.96 234.515
L418.406 241.593
L418.853 243.47
L419.299 225.263
L419.746 239.528
L420.192 242.402
L420.638 231.365
L421.085 243.261
L421.531 238.036
L421.978 229.563
L422.424 233.264
L422.87 247.827
L423.317 248.621
L424.21 238.923
L424.656 244.096
L425.102 238.104
L425.549 236.272
L425.995 241.528
L426.442 244.152
L426.888 242.818
L427.334 239.714
L427.781 239.865
L428.227 232.071
L428.674 240.703
L429.12 236.32
L429.566 234.051
L430.459 243.222
L430.906 245.022
L431.352 243.15
L431.798 231.178
L432.245 243.031
L432.691 241.825
L433.138 234.622
L433.584 243.22
L434.03 243.384
L434.477 245.002
L434.923 239.924
L435.37 241.469
L435.816 239.838
L436.262 243.228
L436.709 234.575
L437.155 233.156
L437.602 243.252
L438.048 238.018
L438.494 248.433
L438.941 241.505
L439.387 232.821
L439.834 243.316
L440.28 232.96
L440.726 234.602
L441.173 244.525
L441.619 245.31
L442.066 252.082
L442.512 240.41
L442.958 238.706
L443.405 231.441
L443.851 238.06
L444.298 229.193
L444.744 226.85
L445.19 246.877
L445.637 249.864
L446.083 240.02
L446.53 239.64
L446.976 234.83
L447.422 241.68
L447.869 234.592
L448.315 236.093
L448.762 240.237
L449.208 246.073
L449.654 241.716
L450.101 240.09
L450.547 232.395
L450.994 243.189
L451.44 236.348
L451.886 231.567
L452.779 246.92
L453.226 249.509
L453.672 244.97
L454.118 235.194
L454.565 239.315
L455.011 241.436
L455.458 239.806
L455.904 243.264
L456.35 244.902
L456.797 250.229
L457.243 239.788
L457.69 219.038
L458.136 236.594
L458.582 242.963
L459.029 235.2
L459.475 230.599
L459.922 234.703
L460.368 244.226
L460.814 245.896
L461.261 243.533
L461.707 239.903
L462.154 243.099
L462.6 241.733
L463.046 239.797
L463.493 234.681
L463.939 243.241
L464.386 243.479
L464.832 238.443
L465.278 239.347
L465.725 230.968
L466.171 243.294
L466.618 236.364
L467.064 232.897
L467.51 239.767
L467.957 241.522
L468.403 246.68
L468.85 243.437
L469.296 223.323
L469.742 219.688
L470.189 233.001
L470.635 239.834
L471.082 243.263
L471.528 250.294
L471.974 243.437
L472.421 241.59
L472.867 242.436
L473.314 239.286
L473.76 240.99
L474.206 236.119
L474.653 234.773
L475.099 236.31
L475.546 248.533
L475.992 241.579
L476.438 241.545
L476.885 232.816
L477.331 243.216
L477.778 236.36
L478.224 238.042
L478.67 244.957
L479.563 248.448
L480.01 239.805
L480.456 238.379
L480.902 244.568
L481.349 241.46
L481.795 233.005
L482.242 236.274
L482.688 243.186
L483.134 243.386
L483.581 241.758
L484.027 241.232
L484.474 245.316
L484.92 239.814
L485.366 236.326
L485.813 229.638
L486.259 234.075
L486.706 246.61
L487.152 248.299
L487.598 239.727
L488.045 238.062
L488.491 243.537
L488.938 241.336
L489.384 239.721
L489.83 244.894
L490.277 251.736
L490.723 241.845
L491.17 236.51
L491.616 241.369
L492.062 240.521
L492.509 241.553
L492.955 232.541
L493.848 238.726
L494.294 243.274
L494.741 222.89
L495.187 244.949
L495.634 244.914
L496.08 236.376
L496.973 246.26
L497.419 238.682
L497.866 243.468
L498.312 246.292
L498.758 248.194
L499.205 239.787
L499.651 238.138
L500.098 243.135
L500.544 243.686
L500.99 240.367
L501.437 235.982
L501.883 238.082
L502.33 246.377
L502.776 243.786
L503.222 242.987
L503.669 231.664
L504.115 241.612
L504.562 236.362
L505.008 232.858
L505.454 238.033
L505.901 245.223
L506.347 245.121
L506.794 238.076
L507.24 233.113
L507.686 241.435
L508.133 241.747
L508.579 239.786
L509.026 243.502
L509.472 243.227
L509.918 241.704
L510.365 243.206
L510.811 241.766
L511.258 239.316
L511.704 241.664
L512.597 229.413
L513.043 237.992
L513.49 242.976
L513.936 243.774
L514.382 241.525
L514.829 233.073
L515.275 241.456
L515.722 239.969
L516.168 236.884
L516.614 237.407
L517.507 244.886
L517.954 239.081
L517.954 239.081" style="fill:none;opacity:0.7;stroke:#008000;"/>
   </g>
   <g id="line2d_3">
    <path clip-path="url(#p7ff5b81e1d)" d="
M72 251.575
L72.4464 131.387
L72.8928 152.763
L73.3392 145.111
L73.7856 133.975
L74.232 142.101
L74.6784 147.57
L75.1248 175.488
L75.5712 173.886
L76.0176 171.246
L76.464 171.734
L76.9104 156.417
L77.3568 156.386
L77.8032 175.186
L78.2496 170.283
L78.696 174.786
L79.1424 176.355
L79.5888 254.033
L80.0352 161.526
L80.4816 130.056
L80.928 247.036
L81.3744 163.685
L81.8208 261.552
L82.2672 156.128
L82.7136 155.002
L83.16 150.081
L83.6064 258.031
L84.0528 136.091
L84.4992 131.932
L84.9456 146.346
L85.392 251.112
L85.8384 258.786
L86.2848 264.024
L86.7312 171.983
L87.1776 257.975
L87.624 259.405
L88.0704 254.411
L88.5168 176.353
L88.9632 173.875
L89.4096 155.46
L89.856 128.568
L90.3024 250.835
L90.7488 263.622
L91.1952 157.834
L91.6416 258.199
L92.088 256.098
L92.5344 250.286
L92.9808 168.711
L93.8736 344.11
L94.32 154.341
L94.7664 247.769
L95.2128 157.884
L95.6592 245.286
L96.1056 249.062
L96.552 266.14
L96.9984 183.782
L97.4448 258.516
L97.8912 251.471
L98.3376 248.362
L98.784 258.968
L99.2304 260.147
L99.6768 163.169
L100.123 160.172
L100.57 166.975
L101.016 180.604
L101.462 260.063
L101.909 258.909
L102.355 257.038
L102.802 151.937
L103.248 159.026
L103.694 262.335
L104.141 254.585
L104.587 252.432
L105.034 164.228
L105.48 262.692
L105.926 260.512
L106.373 260.893
L107.266 251.846
L108.158 260.081
L108.605 258.514
L109.051 258.174
L109.498 252.838
L109.944 173.852
L110.39 256.339
L110.837 262.223
L111.283 255.98
L111.73 256.445
L112.176 257.317
L112.622 253.523
L113.515 257.689
L113.962 257.705
L114.408 258.152
L114.854 263.311
L115.301 257.595
L115.747 258.501
L116.194 246.399
L116.64 260.222
L117.086 252.085
L117.533 256.13
L117.979 258.76
L118.426 259.112
L118.872 254.729
L119.318 256.447
L119.765 251.473
L120.211 256.407
L120.658 242.603
L121.104 260.068
L121.55 258.366
L121.997 260.071
L122.443 259.838
L122.89 262.562
L123.336 169.86
L123.782 258.652
L124.229 261.763
L124.675 257.526
L125.122 251.985
L125.568 249.152
L126.014 253.445
L126.461 250.319
L126.907 259.681
L127.354 258.79
L127.8 263.213
L128.246 260.772
L128.693 248.106
L129.139 252.365
L129.586 258.175
L130.032 258.519
L130.478 256.503
L130.925 250.749
L131.371 259.01
L131.818 263.804
L132.264 260.553
L132.71 260.272
L133.157 255.711
L133.603 258.751
L134.496 262.657
L134.942 250.011
L135.389 250.688
L135.835 254.162
L136.282 260.368
L136.728 263.581
L137.621 255.51
L138.067 168.767
L138.514 171.027
L138.96 261.76
L139.853 252.296
L140.299 252.217
L140.746 263.116
L141.192 259.769
L141.638 259.494
L142.085 170.2
L142.531 254.547
L142.978 257.239
L143.424 258.317
L143.87 253.531
L144.317 256.395
L144.763 255.06
L145.21 260.311
L145.656 244.87
L146.549 255.376
L146.995 258.978
L147.442 254.353
L147.888 259.063
L148.781 258.931
L149.227 250.863
L149.674 248.468
L150.12 259.774
L150.566 258.838
L151.013 254.758
L151.459 261.647
L151.906 260.946
L152.352 260.933
L152.798 261.687
L153.245 242.969
L153.691 257.914
L154.138 251.448
L154.584 255.441
L155.03 260.77
L155.477 259.631
L155.923 247.783
L156.37 262.01
L156.816 251.039
L157.262 255.898
L157.709 258.628
L158.155 257.18
L158.602 252.644
L159.048 256.721
L159.494 256.935
L159.941 264.499
L160.387 257.926
L160.834 261.845
L161.28 255.784
L161.726 258.952
L162.619 256.577
L163.512 249.36
L163.958 259.37
L164.405 264.521
L164.851 265.358
L165.744 256.631
L166.19 168.767
L166.637 257.984
L167.083 259.211
L167.53 254.384
L167.976 252.244
L168.422 251.432
L168.869 257.114
L169.315 257.455
L169.762 261.976
L170.208 255.906
L170.654 170.036
L171.101 257.008
L171.547 255.891
L172.44 248.478
L172.886 241.982
L173.333 254.726
L173.779 258.166
L174.226 257.029
L174.672 251.506
L175.118 251.039
L175.565 252.523
L176.011 263.791
L176.458 265.957
L176.904 260.366
L177.35 256.504
L177.797 257.138
L178.243 254.488
L178.69 261.689
L179.136 254.704
L179.582 255.044
L180.029 252.966
L180.475 264.458
L180.922 261.033
L181.814 256.174
L182.261 250.285
L182.707 256.05
L183.154 260.033
L184.046 251.356
L184.493 260.448
L185.386 254.487
L186.278 262.712
L187.171 257.24
L187.618 264.477
L188.064 255.49
L188.51 252.571
L188.957 255.41
L189.403 261.004
L189.85 257.155
L190.296 257.71
L190.742 260.211
L191.189 257.486
L191.635 257.067
L192.082 259.788
L192.528 254.037
L192.974 253.353
L193.421 248.372
L193.867 260.273
L194.314 260.151
L194.76 262.079
L195.206 261.773
L195.653 255.551
L196.546 259.333
L196.992 257.541
L197.438 250.54
L197.885 251.752
L198.331 258.213
L198.778 263.001
L199.224 266.371
L199.67 260.325
L200.117 259.983
L200.563 261.889
L201.01 259.319
L201.456 224.583
L201.902 258.619
L202.349 259.501
L202.795 265.437
L203.242 266.868
L203.688 260.726
L204.134 256.293
L204.581 249.947
L205.027 253.124
L205.474 251.115
L205.92 259.555
L206.366 263.819
L207.259 256.475
L207.706 261.657
L208.152 257.078
L208.598 257.262
L209.045 257.239
L209.491 251.178
L209.938 251.975
L210.384 251.248
L210.83 264.161
L211.277 264.707
L211.723 253.026
L212.17 256.56
L212.616 248.687
L213.509 262.602
L213.955 255.731
L214.402 252.665
L214.848 252.64
L215.294 262.417
L215.741 260.566
L216.187 259.84
L216.634 257.337
L217.08 257.634
L217.526 258.301
L217.973 256.658
L218.419 258.692
L218.866 248.08
L219.312 257.656
L219.758 259.625
L220.205 263.019
L220.651 257.2
L221.098 256.429
L221.544 251.84
L221.99 256.131
L222.437 252.175
L222.883 257.561
L223.33 257.656
L223.776 254.219
L224.222 259.723
L224.669 259.067
L225.115 256.29
L225.562 256.591
L226.008 250.594
L226.454 257.642
L226.901 253.75
L227.347 255.724
L227.794 259.118
L228.24 261.243
L228.686 259.792
L229.579 255.007
L230.026 253.305
L230.472 252.582
L230.918 262.62
L231.365 261.659
L231.811 259.976
L232.258 262.375
L232.704 256.497
L233.15 256.44
L234.043 262.326
L234.49 251.963
L234.936 257.559
L235.382 259.372
L235.829 263.614
L236.275 255.326
L236.722 265.233
L237.168 259.236
L237.614 254.896
L238.061 259.61
L238.507 257.612
L238.954 251.095
L239.4 249.737
L239.846 246.334
L240.293 262.706
L240.739 266.889
L241.186 259.868
L241.632 256.883
L242.078 246.449
L242.525 265.19
L242.971 263.728
L243.418 243.772
L243.864 256.277
L244.757 248.829
L245.203 247.065
L245.65 263.231
L246.096 259.756
L246.542 260.291
L246.989 256.17
L247.435 257.765
L247.882 252.05
L248.328 262.758
L248.774 257.926
L249.221 251.262
L249.667 252.979
L250.114 262.651
L250.56 265.466
L251.006 256.792
L251.453 253.787
L251.899 247.095
L252.346 246.561
L252.792 257.58
L253.238 260.27
L253.685 254.031
L254.131 255.346
L255.024 259.663
L255.47 256.527
L255.917 258.666
L256.363 261.563
L256.81 254.335
L257.256 228.36
L257.702 254.022
L258.149 259.275
L258.595 258.071
L259.934 258.367
L260.381 249.289
L261.274 257.574
L261.72 259.25
L262.166 256.858
L262.613 259.593
L263.059 256.535
L263.506 259.809
L263.952 255.438
L264.398 254.013
L264.845 249.315
L265.291 250.633
L265.738 254.016
L266.184 259.535
L266.63 262.057
L267.077 262.053
L267.97 246.107
L268.416 254.884
L269.309 254.677
L269.755 248.857
L270.202 251.428
L270.648 259.818
L271.094 248.623
L271.541 252.403
L271.987 254.193
L272.434 254.734
L272.88 250.247
L273.326 252.844
L273.773 258.448
L274.219 257.411
L274.666 259.398
L275.112 259.046
L276.005 254.661
L276.451 255.324
L276.898 258.5
L277.344 255.696
L277.79 250.629
L278.683 256.841
L279.576 259.36
L280.022 258.278
L280.469 254.394
L280.915 254.23
L281.362 254.66
L281.808 261.075
L282.254 247.765
L282.701 254.862
L283.147 255.922
L283.594 255.158
L284.04 261.433
L284.486 255.773
L284.933 208.189
L285.379 248.816
L285.826 244.953
L286.272 257.486
L286.718 262.268
L287.165 261.828
L287.611 260.962
L288.058 253.906
L288.504 249.931
L288.95 252.756
L289.397 254.382
L289.843 256.521
L290.29 251.229
L290.736 258.23
L291.182 260.779
L291.629 262.411
L292.075 259.583
L292.522 254.883
L292.968 252.598
L293.414 249.714
L293.861 248.404
L294.754 256.409
L295.2 264.847
L295.646 257.938
L296.093 254.117
L296.539 253.823
L297.432 259.888
L297.878 248.469
L298.325 255.317
L298.771 249.767
L299.218 260.414
L299.664 263.145
L300.11 255.734
L300.557 258.329
L301.003 252.494
L301.896 261.112
L302.342 255.294
L302.789 255.224
L303.235 260.762
L303.682 255.412
L304.128 252.352
L305.021 259.969
L305.467 260.207
L305.914 254.698
L306.36 259.043
L307.253 247.638
L307.699 248.902
L308.146 248.838
L308.592 262.284
L309.038 264.035
L309.485 251.125
L309.931 253.675
L310.378 252.819
L310.824 254.774
L311.27 254.995
L311.717 252.083
L312.163 252.965
L312.61 229.333
L313.056 247.366
L313.502 253.242
L313.949 255.049
L314.395 254.466
L314.842 248.799
L315.288 250.634
L315.734 261.048
L317.074 253.498
L317.52 251.409
L317.966 250.251
L318.413 255.692
L318.859 257.271
L319.752 252.363
L320.198 258.288
L320.645 260.318
L321.091 261.802
L321.538 259.347
L321.984 255.567
L322.43 259.569
L322.877 249.552
L323.323 244.504
L323.77 258.168
L324.216 261.835
L324.662 254.524
L325.109 260.902
L325.555 254.365
L326.002 255.253
L326.448 254.421
L326.894 253.842
L327.341 251.316
L327.787 254.6
L328.234 249.602
L328.68 263.099
L329.126 259.988
L329.573 260.676
L330.466 246.528
L330.912 254.861
L331.805 259.938
L332.251 256.132
L332.698 249.888
L333.144 259.988
L333.59 267.547
L334.037 255.856
L334.483 254.451
L334.93 249.789
L335.376 257.337
L335.822 251.442
L336.269 259.099
L336.715 256.476
L337.162 260.881
L337.608 255.305
L338.054 257.15
L338.501 257.988
L338.947 252.913
L339.394 255.814
L339.84 254.447
L340.286 223.904
L340.733 232.068
L341.179 258.561
L341.626 255.636
L342.072 254.775
L342.518 257.494
L342.965 246.984
L343.411 248.629
L344.304 262.271
L344.75 257.242
L345.197 257.352
L346.09 252.772
L346.536 253.395
L346.982 256.359
L347.429 256.158
L348.322 252.193
L348.768 258.304
L349.214 259.021
L349.661 256.419
L350.107 259.074
L350.554 248.705
L351 245.791
L351.446 250.705
L351.893 260.492
L352.339 252.538
L352.786 254.207
L353.232 258.789
L353.678 261.217
L354.125 262.884
L354.571 259.096
L355.018 262.566
L355.464 252.759
L355.91 249.205
L356.803 261.023
L357.25 260.083
L357.696 259.687
L358.142 252.87
L358.589 258.981
L359.035 255.175
L359.482 255.954
L359.928 260.238
L360.374 256.315
L360.821 254.663
L361.267 250.619
L361.714 259.862
L362.16 249.691
L362.606 257.968
L363.053 252.917
L363.499 250.424
L364.392 257.831
L364.838 257.159
L365.285 253.512
L365.731 254.335
L366.178 256.956
L366.624 258.81
L367.07 257.849
L367.517 259.039
L367.963 232.999
L368.41 220.185
L368.856 256.073
L369.302 252.963
L369.749 252.725
L370.195 263.359
L370.642 257.993
L371.088 258.58
L371.534 257.105
L371.981 255.223
L372.427 248.469
L372.874 248.583
L373.32 250.326
L373.766 260.91
L374.213 263.841
L374.659 255.799
L375.106 255.22
L375.552 252.192
L375.998 253.789
L376.445 256.87
L376.891 254.875
L377.338 249.092
L377.784 251.987
L378.23 258.822
L378.677 250.55
L379.123 257.858
L379.57 251.15
L380.016 248.954
L380.462 254.13
L380.909 255.438
L381.355 251.415
L381.802 258.81
L382.248 261.087
L382.694 255.523
L383.141 259.661
L383.587 255.262
L384.034 262.164
L384.48 255.616
L384.926 259.586
L385.373 248.176
L385.819 249.557
L386.266 262.304
L386.712 259.364
L387.158 254.544
L387.605 262.862
L388.051 254.588
L388.498 254.416
L388.944 261.118
L389.39 260.323
L389.837 251.497
L390.283 255.445
L390.73 249.595
L391.176 257.019
L391.622 262.305
L392.069 254.822
L392.515 254.998
L392.962 257.249
L393.408 257.74
L393.854 248.544
L394.301 254.9
L394.747 254.8
L395.194 251.055
L395.64 257.108
L396.086 232.259
L396.533 259.869
L396.979 251.845
L397.426 255.687
L397.872 254.726
L398.318 261.141
L398.765 248.2
L399.211 254.936
L399.658 257.612
L400.104 252.967
L400.55 254.419
L400.997 250.366
L401.443 258.745
L401.89 256.874
L402.336 261.148
L402.782 257.139
L403.229 257.545
L403.675 255.274
L404.122 254.025
L404.568 252.293
L405.014 257.117
L405.461 246.467
L405.907 249.756
L406.354 254.82
L406.8 261.538
L407.693 257.032
L408.139 253.7
L408.586 247.006
L409.032 256.25
L409.478 260.4
L409.925 256.747
L410.371 249.688
L410.818 255.062
L411.264 258.659
L411.71 259.77
L412.157 257.047
L412.603 258.921
L413.05 255.735
L413.496 253.561
L413.942 248.609
L414.389 260.643
L414.835 255.94
L415.282 253.304
L415.728 255.753
L416.174 259.583
L416.621 257.234
L417.067 260.145
L417.514 261.21
L417.96 253.911
L418.406 240.448
L418.853 249.396
L419.746 261.289
L420.192 265.092
L420.638 256.694
L421.085 257.645
L421.531 257.483
L421.978 251.17
L422.424 257.857
L422.87 252.783
L423.317 209.138
L423.763 254.921
L424.21 258.831
L424.656 260.786
L425.102 253.186
L425.549 253.698
L425.995 255.895
L426.442 255.037
L426.888 254.889
L427.334 252.135
L427.781 253.992
L428.227 263.692
L428.674 249.263
L429.12 258.926
L429.566 256.51
L430.013 259.966
L430.459 248.829
L430.906 255.289
L431.352 255.408
L431.798 260.643
L432.245 256.577
L432.691 258.541
L433.138 257.502
L433.584 255.042
L434.03 251.508
L434.477 260.748
L434.923 247.756
L435.37 248.38
L435.816 252.434
L436.262 259.413
L436.709 264.143
L437.155 257.103
L437.602 252.193
L438.048 254.384
L438.494 254.019
L438.941 256.899
L439.387 257.147
L439.834 252.871
L440.28 243.174
L440.726 261.286
L441.173 263.623
L442.066 252.037
L442.512 249.636
L442.958 257.976
L443.405 251.214
L443.851 259.052
L444.298 257.241
L444.744 260.29
L445.19 253.625
L445.637 262.619
L446.083 254.537
L446.53 260.171
L446.976 256.631
L447.422 259.16
L447.869 248.709
L448.315 247.764
L448.762 255.506
L449.208 260.732
L449.654 259.245
L450.101 250.718
L450.547 254.881
L450.994 211.282
L451.44 254.133
L451.886 259.353
L452.333 258.446
L452.779 258.556
L453.226 255.444
L453.672 258.481
L454.565 253.742
L455.011 256.778
L455.458 254.546
L455.904 248.823
L456.35 258.295
L456.797 257.845
L457.243 259.494
L457.69 254.896
L458.136 253.525
L458.582 254.193
L459.029 241.589
L459.475 253.15
L459.922 257.126
L460.368 252.857
L460.814 257.853
L461.261 258.634
L461.707 251.887
L462.154 253.064
L462.6 252.882
L463.046 255.633
L463.493 250.508
L463.939 253.816
L464.386 254.821
L464.832 262.775
L465.278 263.751
L465.725 257.731
L466.171 253.836
L466.618 254.161
L467.064 255.457
L467.51 260.487
L468.403 249.929
L468.85 253.885
L469.296 261.935
L469.742 264.708
L470.189 256.597
L470.635 253.235
L471.082 253.936
L471.528 256.342
L471.974 261.624
L472.421 252.669
L472.867 258.018
L473.314 257.839
L473.76 256.4
L474.206 256.805
L474.653 260.187
L475.099 259.381
L475.546 252.923
L475.992 253.999
L476.438 251.339
L476.885 257.535
L477.331 260.386
L477.778 252.835
L478.67 260.026
L479.117 343.349
L479.563 252.534
L480.01 245.438
L480.456 257.437
L480.902 253.985
L481.795 256.104
L482.242 260.675
L482.688 251.021
L483.134 257.02
L483.581 260.004
L484.027 257.246
L484.474 258.955
L484.92 255.337
L485.366 260.671
L485.813 251.732
L486.259 260.316
L487.152 248.45
L487.598 250.023
L488.045 261.85
L488.491 262.702
L488.938 257.169
L489.384 254.366
L490.277 253.187
L490.723 255.721
L491.17 253.842
L491.616 246.834
L492.062 254.795
L492.955 263.756
L493.848 254.431
L494.294 252.788
L494.741 254.691
L495.187 249.556
L495.634 259.886
L496.08 256.084
L496.526 260.993
L496.973 256.964
L497.419 247.433
L497.866 258.73
L498.312 260.051
L498.758 256.774
L499.205 260.684
L499.651 247.817
L500.098 253.579
L500.544 257.5
L500.99 260.034
L501.437 255.509
L501.883 261.191
L502.33 254.287
L502.776 252.597
L503.222 252.449
L503.669 258.534
L504.115 247.504
L504.562 255.471
L505.008 250.834
L505.454 256.233
L505.901 260.088
L506.347 234.909
L506.794 221.959
L507.24 245.626
L507.686 257.959
L508.133 259.461
L508.579 258.19
L509.026 256.46
L509.918 247.233
L510.365 256.587
L510.811 262.233
L511.258 257.941
L511.704 256.021
L512.15 256.423
L512.597 258.603
L513.043 256.93
L513.49 259.441
L513.936 254.779
L514.382 254.39
L514.829 251.554
L515.275 261.447
L515.722 261.09
L516.168 261.179
L516.614 259.73
L517.061 256.37
L517.507 259.33
L517.954 250.369
L517.954 250.369" style="fill:none;opacity:0.5;stroke:#0000ff;"/>
   </g>
   <g id="matplotlib.axis_1">
    <g id="xtick_1">
     <g id="line2d_4">
      <path clip-path="url(#p7ff5b81e1d)" d="
M72 388.8
L72 43.2" style="fill:none;stroke:#000000;stroke-dasharray:1.000000,3.000000;stroke-dashoffset:0.0;stroke-linecap:butt;stroke-width:0.5;"/>
     </g>
     <g id="line2d_5">
      <defs>
       <path d="
M0 0
L0 -4" id="m0012dd4eef" style="stroke:#000000;stroke-linecap:butt;stroke-width:0.5;"/>
      </defs>
      <g>
       <use style="stroke:#000000;stroke-linecap:butt;stroke-width:0.5;" x="72.0" xlink:href="#m0012dd4eef" y="388.8"/>
      </g>
     </g>
     <g id="line2d_6">
      <defs>
       <path d="
M0 0
L0 4" id="m476344969c" style="stroke:#000000;stroke-linecap:butt;stroke-width:0.5;"/>
      </defs>
      <g>
       <use style="stroke:#000000;stroke-linecap:butt;stroke-width:0.5;" x="72.0" xlink:href="#m476344969c" y="43.2"/>
      </g>
     </g>
     <g id="text_1">
      <!-- 0 -->
      <defs>
       <path d="
M31.7812 66.4062
Q24.1719 66.4062 20.3281 58.9062
Q16.5 51.4219 16.5 36.375
Q16.5 21.3906 20.3281 13.8906
Q24.1719 6.39062 31.7812 6.39062
Q39.4531 6.39062 43.2812 13.8906
Q47.125 21.3906 47.125 36.375
Q47.125 51.4219 43.2812 58.9062
Q39.4531 66.4062 31.7812 66.4062
M31.7812 74.2188
Q44.0469 74.2188 50.5156 64.5156
Q56.9844 54.8281 56.9844 36.375
Q56.9844 17.9688 50.5156 8.26562
Q44.0469 -1.42188 31.7812 -1.42188
Q19.5312 -1.42188 13.0625 8.26562
Q6.59375 17.9688 6.59375 36.375
Q6.59375 54.8281 13.0625 64.5156
Q19.5312 74.2188 31.7812 74.2188" id="BitstreamVeraSans-Roman-30"/>
      </defs>
      <g transform="translate(68.9765625 401.70625)scale(0.12 -0.12)">
       <use xlink:href="#BitstreamVeraSans-Roman-30"/>
      </g>
     </g>
    </g>
    <g id="xtick_2">
     <g id="line2d_7">
      <path clip-path="url(#p7ff5b81e1d)" d="
M116.64 388.8
L116.64 43.2" style="fill:none;stroke:#000000;stroke-dasharray:1.000000,3.000000;stroke-dashoffset:0.0;stroke-linecap:butt;stroke-width:0.5;"/>
     </g>
     <g id="line2d_8">
      <g>
       <use style="stroke:#000000;stroke-linecap:butt;stroke-width:0.5;" x="116.64" xlink:href="#m0012dd4eef" y="388.8"/>
      </g>
     </g>
     <g id="line2d_9">
      <g>
       <use style="stroke:#000000;stroke-linecap:butt;stroke-width:0.5;" x="116.64" xlink:href="#m476344969c" y="43.2"/>
      </g>
     </g>
     <g id="text_2">
      <!-- 100 -->
      <defs>
       <path d="
M12.4062 8.29688
L28.5156 8.29688
L28.5156 63.9219
L10.9844 60.4062
L10.9844 69.3906
L28.4219 72.9062
L38.2812 72.9062
L38.2812 8.29688
L54.3906 8.29688
L54.3906 0
L12.4062 0
z
" id="BitstreamVeraSans-Roman-31"/>
      </defs>
      <g transform="translate(106.245 401.70625)scale(0.12 -0.12)">
       <use xlink:href="#BitstreamVeraSans-Roman-31"/>
       <use x="63.623046875" xlink:href="#BitstreamVeraSans-Roman-30"/>
       <use x="127.24609375" xlink:href="#BitstreamVeraSans-Roman-30"/>
      </g>
     </g>
    </g>
    <g id="xtick_3">
     <g id="line2d_10">
      <path clip-path="url(#p7ff5b81e1d)" d="
M161.28 388.8
L161.28 43.2" style="fill:none;stroke:#000000;stroke-dasharray:1.000000,3.000000;stroke-dashoffset:0.0;stroke-linecap:butt;stroke-width:0.5;"/>
     </g>
     <g id="line2d_11">
      <g>
       <use style="stroke:#000000;stroke-linecap:butt;stroke-width:0.5;" x="161.28" xlink:href="#m0012dd4eef" y="388.8"/>
      </g>
     </g>
     <g id="line2d_12">
      <g>
       <use style="stroke:#000000;stroke-linecap:butt;stroke-width:0.5;" x="161.28" xlink:href="#m476344969c" y="43.2"/>
      </g>
     </g>
     <g id="text_3">
      <!-- 200 -->
      <defs>
       <path d="
M19.1875 8.29688
L53.6094 8.29688
L53.6094 0
L7.32812 0
L7.32812 8.29688
Q12.9375 14.1094 22.625 23.8906
Q32.3281 33.6875 34.8125 36.5312
Q39.5469 41.8438 41.4219 45.5312
Q43.3125 49.2188 43.3125 52.7812
Q43.3125 58.5938 39.2344 62.25
Q35.1562 65.9219 28.6094 65.9219
Q23.9688 65.9219 18.8125 64.3125
Q13.6719 62.7031 7.8125 59.4219
L7.8125 69.3906
Q13.7656 71.7812 18.9375 73
Q24.125 74.2188 28.4219 74.2188
Q39.75 74.2188 46.4844 68.5469
Q53.2188 62.8906 53.2188 53.4219
Q53.2188 48.9219 51.5312 44.8906
Q49.8594 40.875 45.4062 35.4062
Q44.1875 33.9844 37.6406 27.2188
Q31.1094 20.4531 19.1875 8.29688" id="BitstreamVeraSans-Roman-32"/>
      </defs>
      <g transform="translate(150.665625 401.70625)scale(0.12 -0.12)">
       <use xlink:href="#BitstreamVeraSans-Roman-32"/>
       <use x="63.623046875" xlink:href="#BitstreamVeraSans-Roman-30"/>
       <use x="127.24609375" xlink:href="#BitstreamVeraSans-Roman-30"/>
      </g>
     </g>
    </g>
    <g id="xtick_4">
     <g id="line2d_13">
      <path clip-path="url(#p7ff5b81e1d)" d="
M205.92 388.8
L205.92 43.2" style="fill:none;stroke:#000000;stroke-dasharray:1.000000,3.000000;stroke-dashoffset:0.0;stroke-linecap:butt;stroke-width:0.5;"/>
     </g>
     <g id="line2d_14">
      <g>
       <use style="stroke:#000000;stroke-linecap:butt;stroke-width:0.5;" x="205.92" xlink:href="#m0012dd4eef" y="388.8"/>
      </g>
     </g>
     <g id="line2d_15">
      <g>
       <use style="stroke:#000000;stroke-linecap:butt;stroke-width:0.5;" x="205.92" xlink:href="#m476344969c" y="43.2"/>
      </g>
     </g>
     <g id="text_4">
      <!-- 300 -->
      <defs>
       <path d="
M40.5781 39.3125
Q47.6562 37.7969 51.625 33
Q55.6094 28.2188 55.6094 21.1875
Q55.6094 10.4062 48.1875 4.48438
Q40.7656 -1.42188 27.0938 -1.42188
Q22.5156 -1.42188 17.6562 -0.515625
Q12.7969 0.390625 7.625 2.20312
L7.625 11.7188
Q11.7188 9.32812 16.5938 8.10938
Q21.4844 6.89062 26.8125 6.89062
Q36.0781 6.89062 40.9375 10.5469
Q45.7969 14.2031 45.7969 21.1875
Q45.7969 27.6406 41.2812 31.2656
Q36.7656 34.9062 28.7188 34.9062
L20.2188 34.9062
L20.2188 43.0156
L29.1094 43.0156
Q36.375 43.0156 40.2344 45.9219
Q44.0938 48.8281 44.0938 54.2969
Q44.0938 59.9062 40.1094 62.9062
Q36.1406 65.9219 28.7188 65.9219
Q24.6562 65.9219 20.0156 65.0312
Q15.375 64.1562 9.8125 62.3125
L9.8125 71.0938
Q15.4375 72.6562 20.3438 73.4375
Q25.25 74.2188 29.5938 74.2188
Q40.8281 74.2188 47.3594 69.1094
Q53.9062 64.0156 53.9062 55.3281
Q53.9062 49.2656 50.4375 45.0938
Q46.9688 40.9219 40.5781 39.3125" id="BitstreamVeraSans-Roman-33"/>
      </defs>
      <g transform="translate(195.3234375 401.70625)scale(0.12 -0.12)">
       <use xlink:href="#BitstreamVeraSans-Roman-33"/>
       <use x="63.623046875" xlink:href="#BitstreamVeraSans-Roman-30"/>
       <use x="127.24609375" xlink:href="#BitstreamVeraSans-Roman-30"/>
      </g>
     </g>
    </g>
    <g id="xtick_5">
     <g id="line2d_16">
      <path clip-path="url(#p7ff5b81e1d)" d="
M250.56 388.8
L250.56 43.2" style="fill:none;stroke:#000000;stroke-dasharray:1.000000,3.000000;stroke-dashoffset:0.0;stroke-linecap:butt;stroke-width:0.5;"/>
     </g>
     <g id="line2d_17">
      <g>
       <use style="stroke:#000000;stroke-linecap:butt;stroke-width:0.5;" x="250.56" xlink:href="#m0012dd4eef" y="388.8"/>
      </g>
     </g>
     <g id="line2d_18">
      <g>
       <use style="stroke:#000000;stroke-linecap:butt;stroke-width:0.5;" x="250.56" xlink:href="#m476344969c" y="43.2"/>
      </g>
     </g>
     <g id="text_5">
      <!-- 400 -->
      <defs>
       <path d="
M37.7969 64.3125
L12.8906 25.3906
L37.7969 25.3906
z

M35.2031 72.9062
L47.6094 72.9062
L47.6094 25.3906
L58.0156 25.3906
L58.0156 17.1875
L47.6094 17.1875
L47.6094 0
L37.7969 0
L37.7969 17.1875
L4.89062 17.1875
L4.89062 26.7031
z
" id="BitstreamVeraSans-Roman-34"/>
      </defs>
      <g transform="translate(239.799375 401.70625)scale(0.12 -0.12)">
       <use xlink:href="#BitstreamVeraSans-Roman-34"/>
       <use x="63.623046875" xlink:href="#BitstreamVeraSans-Roman-30"/>
       <use x="127.24609375" xlink:href="#BitstreamVeraSans-Roman-30"/>
      </g>
     </g>
    </g>
    <g id="xtick_6">
     <g id="line2d_19">
      <path clip-path="url(#p7ff5b81e1d)" d="
M295.2 388.8
L295.2 43.2" style="fill:none;stroke:#000000;stroke-dasharray:1.000000,3.000000;stroke-dashoffset:0.0;stroke-linecap:butt;stroke-width:0.5;"/>
     </g>
     <g id="line2d_20">
      <g>
       <use style="stroke:#000000;stroke-linecap:butt;stroke-width:0.5;" x="295.2" xlink:href="#m0012dd4eef" y="388.8"/>
      </g>
     </g>
     <g id="line2d_21">
      <g>
       <use style="stroke:#000000;stroke-linecap:butt;stroke-width:0.5;" x="295.2" xlink:href="#m476344969c" y="43.2"/>
      </g>
     </g>
     <g id="text_6">
      <!-- 500 -->
      <defs>
       <path d="
M10.7969 72.9062
L49.5156 72.9062
L49.5156 64.5938
L19.8281 64.5938
L19.8281 46.7344
Q21.9688 47.4688 24.1094 47.8281
Q26.2656 48.1875 28.4219 48.1875
Q40.625 48.1875 47.75 41.5
Q54.8906 34.8125 54.8906 23.3906
Q54.8906 11.625 47.5625 5.09375
Q40.2344 -1.42188 26.9062 -1.42188
Q22.3125 -1.42188 17.5469 -0.640625
Q12.7969 0.140625 7.71875 1.70312
L7.71875 11.625
Q12.1094 9.23438 16.7969 8.0625
Q21.4844 6.89062 26.7031 6.89062
Q35.1562 6.89062 40.0781 11.3281
Q45.0156 15.7656 45.0156 23.3906
Q45.0156 31 40.0781 35.4375
Q35.1562 39.8906 26.7031 39.8906
Q22.75 39.8906 18.8125 39.0156
Q14.8906 38.1406 10.7969 36.2812
z
" id="BitstreamVeraSans-Roman-35"/>
      </defs>
      <g transform="translate(284.6090625 401.70625)scale(0.12 -0.12)">
       <use xlink:href="#BitstreamVeraSans-Roman-35"/>
       <use x="63.623046875" xlink:href="#BitstreamVeraSans-Roman-30"/>
       <use x="127.24609375" xlink:href="#BitstreamVeraSans-Roman-30"/>
      </g>
     </g>
    </g>
    <g id="xtick_7">
     <g id="line2d_22">
      <path clip-path="url(#p7ff5b81e1d)" d="
M339.84 388.8
L339.84 43.2" style="fill:none;stroke:#000000;stroke-dasharray:1.000000,3.000000;stroke-dashoffset:0.0;stroke-linecap:butt;stroke-width:0.5;"/>
     </g>
     <g id="line2d_23">
      <g>
       <use style="stroke:#000000;stroke-linecap:butt;stroke-width:0.5;" x="339.84" xlink:href="#m0012dd4eef" y="388.8"/>
      </g>
     </g>
     <g id="line2d_24">
      <g>
       <use style="stroke:#000000;stroke-linecap:butt;stroke-width:0.5;" x="339.84" xlink:href="#m476344969c" y="43.2"/>
      </g>
     </g>
     <g id="text_7">
      <!-- 600 -->
      <defs>
       <path d="
M33.0156 40.375
Q26.375 40.375 22.4844 35.8281
Q18.6094 31.2969 18.6094 23.3906
Q18.6094 15.5312 22.4844 10.9531
Q26.375 6.39062 33.0156 6.39062
Q39.6562 6.39062 43.5312 10.9531
Q47.4062 15.5312 47.4062 23.3906
Q47.4062 31.2969 43.5312 35.8281
Q39.6562 40.375 33.0156 40.375
M52.5938 71.2969
L52.5938 62.3125
Q48.875 64.0625 45.0938 64.9844
Q41.3125 65.9219 37.5938 65.9219
Q27.8281 65.9219 22.6719 59.3281
Q17.5312 52.7344 16.7969 39.4062
Q19.6719 43.6562 24.0156 45.9219
Q28.375 48.1875 33.5938 48.1875
Q44.5781 48.1875 50.9531 41.5156
Q57.3281 34.8594 57.3281 23.3906
Q57.3281 12.1562 50.6875 5.35938
Q44.0469 -1.42188 33.0156 -1.42188
Q20.3594 -1.42188 13.6719 8.26562
Q6.98438 17.9688 6.98438 36.375
Q6.98438 53.6562 15.1875 63.9375
Q23.3906 74.2188 37.2031 74.2188
Q40.9219 74.2188 44.7031 73.4844
Q48.4844 72.75 52.5938 71.2969" id="BitstreamVeraSans-Roman-36"/>
      </defs>
      <g transform="translate(329.205 401.70625)scale(0.12 -0.12)">
       <use xlink:href="#BitstreamVeraSans-Roman-36"/>
       <use x="63.623046875" xlink:href="#BitstreamVeraSans-Roman-30"/>
       <use x="127.24609375" xlink:href="#BitstreamVeraSans-Roman-30"/>
      </g>
     </g>
    </g>
    <g id="xtick_8">
     <g id="line2d_25">
      <path clip-path="url(#p7ff5b81e1d)" d="
M384.48 388.8
L384.48 43.2" style="fill:none;stroke:#000000;stroke-dasharray:1.000000,3.000000;stroke-dashoffset:0.0;stroke-linecap:butt;stroke-width:0.5;"/>
     </g>
     <g id="line2d_26">
      <g>
       <use style="stroke:#000000;stroke-linecap:butt;stroke-width:0.5;" x="384.48" xlink:href="#m0012dd4eef" y="388.8"/>
      </g>
     </g>
     <g id="line2d_27">
      <g>
       <use style="stroke:#000000;stroke-linecap:butt;stroke-width:0.5;" x="384.48" xlink:href="#m476344969c" y="43.2"/>
      </g>
     </g>
     <g id="text_8">
      <!-- 700 -->
      <defs>
       <path d="
M8.20312 72.9062
L55.0781 72.9062
L55.0781 68.7031
L28.6094 0
L18.3125 0
L43.2188 64.5938
L8.20312 64.5938
z
" id="BitstreamVeraSans-Roman-37"/>
      </defs>
      <g transform="translate(373.918125 401.70625)scale(0.12 -0.12)">
       <use xlink:href="#BitstreamVeraSans-Roman-37"/>
       <use x="63.623046875" xlink:href="#BitstreamVeraSans-Roman-30"/>
       <use x="127.24609375" xlink:href="#BitstreamVeraSans-Roman-30"/>
      </g>
     </g>
    </g>
    <g id="xtick_9">
     <g id="line2d_28">
      <path clip-path="url(#p7ff5b81e1d)" d="
M429.12 388.8
L429.12 43.2" style="fill:none;stroke:#000000;stroke-dasharray:1.000000,3.000000;stroke-dashoffset:0.0;stroke-linecap:butt;stroke-width:0.5;"/>
     </g>
     <g id="line2d_29">
      <g>
       <use style="stroke:#000000;stroke-linecap:butt;stroke-width:0.5;" x="429.12" xlink:href="#m0012dd4eef" y="388.8"/>
      </g>
     </g>
     <g id="line2d_30">
      <g>
       <use style="stroke:#000000;stroke-linecap:butt;stroke-width:0.5;" x="429.12" xlink:href="#m476344969c" y="43.2"/>
      </g>
     </g>
     <g id="text_9">
      <!-- 800 -->
      <defs>
       <path d="
M31.7812 34.625
Q24.75 34.625 20.7188 30.8594
Q16.7031 27.0938 16.7031 20.5156
Q16.7031 13.9219 20.7188 10.1562
Q24.75 6.39062 31.7812 6.39062
Q38.8125 6.39062 42.8594 10.1719
Q46.9219 13.9688 46.9219 20.5156
Q46.9219 27.0938 42.8906 30.8594
Q38.875 34.625 31.7812 34.625
M21.9219 38.8125
Q15.5781 40.375 12.0312 44.7188
Q8.5 49.0781 8.5 55.3281
Q8.5 64.0625 14.7188 69.1406
Q20.9531 74.2188 31.7812 74.2188
Q42.6719 74.2188 48.875 69.1406
Q55.0781 64.0625 55.0781 55.3281
Q55.0781 49.0781 51.5312 44.7188
Q48 40.375 41.7031 38.8125
Q48.8281 37.1562 52.7969 32.3125
Q56.7812 27.4844 56.7812 20.5156
Q56.7812 9.90625 50.3125 4.23438
Q43.8438 -1.42188 31.7812 -1.42188
Q19.7344 -1.42188 13.25 4.23438
Q6.78125 9.90625 6.78125 20.5156
Q6.78125 27.4844 10.7812 32.3125
Q14.7969 37.1562 21.9219 38.8125
M18.3125 54.3906
Q18.3125 48.7344 21.8438 45.5625
Q25.3906 42.3906 31.7812 42.3906
Q38.1406 42.3906 41.7188 45.5625
Q45.3125 48.7344 45.3125 54.3906
Q45.3125 60.0625 41.7188 63.2344
Q38.1406 66.4062 31.7812 66.4062
Q25.3906 66.4062 21.8438 63.2344
Q18.3125 60.0625 18.3125 54.3906" id="BitstreamVeraSans-Roman-38"/>
      </defs>
      <g transform="translate(418.4728125 401.70625)scale(0.12 -0.12)">
       <use xlink:href="#BitstreamVeraSans-Roman-38"/>
       <use x="63.623046875" xlink:href="#BitstreamVeraSans-Roman-30"/>
       <use x="127.24609375" xlink:href="#BitstreamVeraSans-Roman-30"/>
      </g>
     </g>
    </g>
    <g id="xtick_10">
     <g id="line2d_31">
      <path clip-path="url(#p7ff5b81e1d)" d="
M473.76 388.8
L473.76 43.2" style="fill:none;stroke:#000000;stroke-dasharray:1.000000,3.000000;stroke-dashoffset:0.0;stroke-linecap:butt;stroke-width:0.5;"/>
     </g>
     <g id="line2d_32">
      <g>
       <use style="stroke:#000000;stroke-linecap:butt;stroke-width:0.5;" x="473.76" xlink:href="#m0012dd4eef" y="388.8"/>
      </g>
     </g>
     <g id="line2d_33">
      <g>
       <use style="stroke:#000000;stroke-linecap:butt;stroke-width:0.5;" x="473.76" xlink:href="#m476344969c" y="43.2"/>
      </g>
     </g>
     <g id="text_10">
      <!-- 900 -->
      <defs>
       <path d="
M10.9844 1.51562
L10.9844 10.5
Q14.7031 8.73438 18.5 7.8125
Q22.3125 6.89062 25.9844 6.89062
Q35.75 6.89062 40.8906 13.4531
Q46.0469 20.0156 46.7812 33.4062
Q43.9531 29.2031 39.5938 26.9531
Q35.25 24.7031 29.9844 24.7031
Q19.0469 24.7031 12.6719 31.3125
Q6.29688 37.9375 6.29688 49.4219
Q6.29688 60.6406 12.9375 67.4219
Q19.5781 74.2188 30.6094 74.2188
Q43.2656 74.2188 49.9219 64.5156
Q56.5938 54.8281 56.5938 36.375
Q56.5938 19.1406 48.4062 8.85938
Q40.2344 -1.42188 26.4219 -1.42188
Q22.7031 -1.42188 18.8906 -0.6875
Q15.0938 0.046875 10.9844 1.51562
M30.6094 32.4219
Q37.25 32.4219 41.125 36.9531
Q45.0156 41.5 45.0156 49.4219
Q45.0156 57.2812 41.125 61.8438
Q37.25 66.4062 30.6094 66.4062
Q23.9688 66.4062 20.0938 61.8438
Q16.2188 57.2812 16.2188 49.4219
Q16.2188 41.5 20.0938 36.9531
Q23.9688 32.4219 30.6094 32.4219" id="BitstreamVeraSans-Roman-39"/>
      </defs>
      <g transform="translate(463.08375 401.70625)scale(0.12 -0.12)">
       <use xlink:href="#BitstreamVeraSans-Roman-39"/>
       <use x="63.623046875" xlink:href="#BitstreamVeraSans-Roman-30"/>
       <use x="127.24609375" xlink:href="#BitstreamVeraSans-Roman-30"/>
      </g>
     </g>
    </g>
   </g>
   <g id="matplotlib.axis_2">
    <g id="ytick_1">
     <g id="line2d_34">
      <path clip-path="url(#p7ff5b81e1d)" d="
M72 388.8
L518.4 388.8" style="fill:none;stroke:#000000;stroke-dasharray:1.000000,3.000000;stroke-dashoffset:0.0;stroke-linecap:butt;stroke-width:0.5;"/>
     </g>
     <g id="line2d_35">
      <defs>
       <path d="
M0 0
L4 0" id="me8a85f7bf6" style="stroke:#000000;stroke-linecap:butt;stroke-width:0.5;"/>
      </defs>
      <g>
       <use style="stroke:#000000;stroke-linecap:butt;stroke-width:0.5;" x="72.0" xlink:href="#me8a85f7bf6" y="388.8"/>
      </g>
     </g>
     <g id="line2d_36">
      <defs>
       <path d="
M0 0
L-4 0" id="m1a32005dea" style="stroke:#000000;stroke-linecap:butt;stroke-width:0.5;"/>
      </defs>
      <g>
       <use style="stroke:#000000;stroke-linecap:butt;stroke-width:0.5;" x="518.4" xlink:href="#m1a32005dea" y="388.8"/>
      </g>
     </g>
     <g id="text_11">
      <!-- 0.00 -->
      <defs>
       <path d="
M10.6875 12.4062
L21 12.4062
L21 0
L10.6875 0
z
" id="BitstreamVeraSans-Roman-2e"/>
      </defs>
      <g transform="translate(42.869375 393.1678125)scale(0.12 -0.12)">
       <use xlink:href="#BitstreamVeraSans-Roman-30"/>
       <use x="63.623046875" xlink:href="#BitstreamVeraSans-Roman-2e"/>
       <use x="95.41015625" xlink:href="#BitstreamVeraSans-Roman-30"/>
       <use x="159.033203125" xlink:href="#BitstreamVeraSans-Roman-30"/>
      </g>
     </g>
    </g>
    <g id="ytick_2">
     <g id="line2d_37">
      <path clip-path="url(#p7ff5b81e1d)" d="
M72 354.24
L518.4 354.24" style="fill:none;stroke:#000000;stroke-dasharray:1.000000,3.000000;stroke-dashoffset:0.0;stroke-linecap:butt;stroke-width:0.5;"/>
     </g>
     <g id="line2d_38">
      <g>
       <use style="stroke:#000000;stroke-linecap:butt;stroke-width:0.5;" x="72.0" xlink:href="#me8a85f7bf6" y="354.24"/>
      </g>
     </g>
     <g id="line2d_39">
      <g>
       <use style="stroke:#000000;stroke-linecap:butt;stroke-width:0.5;" x="518.4" xlink:href="#m1a32005dea" y="354.24"/>
      </g>
     </g>
     <g id="text_12">
      <!-- 0.02 -->
      <g transform="translate(43.274375 358.6078125)scale(0.12 -0.12)">
       <use xlink:href="#BitstreamVeraSans-Roman-30"/>
       <use x="63.623046875" xlink:href="#BitstreamVeraSans-Roman-2e"/>
       <use x="95.41015625" xlink:href="#BitstreamVeraSans-Roman-30"/>
       <use x="159.033203125" xlink:href="#BitstreamVeraSans-Roman-32"/>
      </g>
     </g>
    </g>
    <g id="ytick_3">
     <g id="line2d_40">
      <path clip-path="url(#p7ff5b81e1d)" d="
M72 319.68
L518.4 319.68" style="fill:none;stroke:#000000;stroke-dasharray:1.000000,3.000000;stroke-dashoffset:0.0;stroke-linecap:butt;stroke-width:0.5;"/>
     </g>
     <g id="line2d_41">
      <g>
       <use style="stroke:#000000;stroke-linecap:butt;stroke-width:0.5;" x="72.0" xlink:href="#me8a85f7bf6" y="319.68"/>
      </g>
     </g>
     <g id="line2d_42">
      <g>
       <use style="stroke:#000000;stroke-linecap:butt;stroke-width:0.5;" x="518.4" xlink:href="#m1a32005dea" y="319.68"/>
      </g>
     </g>
     <g id="text_13">
      <!-- 0.04 -->
      <g transform="translate(42.745625 324.0478125)scale(0.12 -0.12)">
       <use xlink:href="#BitstreamVeraSans-Roman-30"/>
       <use x="63.623046875" xlink:href="#BitstreamVeraSans-Roman-2e"/>
       <use x="95.41015625" xlink:href="#BitstreamVeraSans-Roman-30"/>
       <use x="159.033203125" xlink:href="#BitstreamVeraSans-Roman-34"/>
      </g>
     </g>
    </g>
    <g id="ytick_4">
     <g id="line2d_43">
      <path clip-path="url(#p7ff5b81e1d)" d="
M72 285.12
L518.4 285.12" style="fill:none;stroke:#000000;stroke-dasharray:1.000000,3.000000;stroke-dashoffset:0.0;stroke-linecap:butt;stroke-width:0.5;"/>
     </g>
     <g id="line2d_44">
      <g>
       <use style="stroke:#000000;stroke-linecap:butt;stroke-width:0.5;" x="72.0" xlink:href="#me8a85f7bf6" y="285.12"/>
      </g>
     </g>
     <g id="line2d_45">
      <g>
       <use style="stroke:#000000;stroke-linecap:butt;stroke-width:0.5;" x="518.4" xlink:href="#m1a32005dea" y="285.12"/>
      </g>
     </g>
     <g id="text_14">
      <!-- 0.06 -->
      <g transform="translate(42.828125 289.4878125)scale(0.12 -0.12)">
       <use xlink:href="#BitstreamVeraSans-Roman-30"/>
       <use x="63.623046875" xlink:href="#BitstreamVeraSans-Roman-2e"/>
       <use x="95.41015625" xlink:href="#BitstreamVeraSans-Roman-30"/>
       <use x="159.033203125" xlink:href="#BitstreamVeraSans-Roman-36"/>
      </g>
     </g>
    </g>
    <g id="ytick_5">
     <g id="line2d_46">
      <path clip-path="url(#p7ff5b81e1d)" d="
M72 250.56
L518.4 250.56" style="fill:none;stroke:#000000;stroke-dasharray:1.000000,3.000000;stroke-dashoffset:0.0;stroke-linecap:butt;stroke-width:0.5;"/>
     </g>
     <g id="line2d_47">
      <g>
       <use style="stroke:#000000;stroke-linecap:butt;stroke-width:0.5;" x="72.0" xlink:href="#me8a85f7bf6" y="250.56"/>
      </g>
     </g>
     <g id="line2d_48">
      <g>
       <use style="stroke:#000000;stroke-linecap:butt;stroke-width:0.5;" x="518.4" xlink:href="#m1a32005dea" y="250.56"/>
      </g>
     </g>
     <g id="text_15">
      <!-- 0.08 -->
      <g transform="translate(42.89375 254.9278125)scale(0.12 -0.12)">
       <use xlink:href="#BitstreamVeraSans-Roman-30"/>
       <use x="63.623046875" xlink:href="#BitstreamVeraSans-Roman-2e"/>
       <use x="95.41015625" xlink:href="#BitstreamVeraSans-Roman-30"/>
       <use x="159.033203125" xlink:href="#BitstreamVeraSans-Roman-38"/>
      </g>
     </g>
    </g>
    <g id="ytick_6">
     <g id="line2d_49">
      <path clip-path="url(#p7ff5b81e1d)" d="
M72 216
L518.4 216" style="fill:none;stroke:#000000;stroke-dasharray:1.000000,3.000000;stroke-dashoffset:0.0;stroke-linecap:butt;stroke-width:0.5;"/>
     </g>
     <g id="line2d_50">
      <g>
       <use style="stroke:#000000;stroke-linecap:butt;stroke-width:0.5;" x="72.0" xlink:href="#me8a85f7bf6" y="216.0"/>
      </g>
     </g>
     <g id="line2d_51">
      <g>
       <use style="stroke:#000000;stroke-linecap:butt;stroke-width:0.5;" x="518.4" xlink:href="#m1a32005dea" y="216.0"/>
      </g>
     </g>
     <g id="text_16">
      <!-- 0.10 -->
      <g transform="translate(42.869375 220.3678125)scale(0.12 -0.12)">
       <use xlink:href="#BitstreamVeraSans-Roman-30"/>
       <use x="63.623046875" xlink:href="#BitstreamVeraSans-Roman-2e"/>
       <use x="95.41015625" xlink:href="#BitstreamVeraSans-Roman-31"/>
       <use x="159.033203125" xlink:href="#BitstreamVeraSans-Roman-30"/>
      </g>
     </g>
    </g>
    <g id="ytick_7">
     <g id="line2d_52">
      <path clip-path="url(#p7ff5b81e1d)" d="
M72 181.44
L518.4 181.44" style="fill:none;stroke:#000000;stroke-dasharray:1.000000,3.000000;stroke-dashoffset:0.0;stroke-linecap:butt;stroke-width:0.5;"/>
     </g>
     <g id="line2d_53">
      <g>
       <use style="stroke:#000000;stroke-linecap:butt;stroke-width:0.5;" x="72.0" xlink:href="#me8a85f7bf6" y="181.44"/>
      </g>
     </g>
     <g id="line2d_54">
      <g>
       <use style="stroke:#000000;stroke-linecap:butt;stroke-width:0.5;" x="518.4" xlink:href="#m1a32005dea" y="181.44"/>
      </g>
     </g>
     <g id="text_17">
      <!-- 0.12 -->
      <g transform="translate(43.274375 185.8078125)scale(0.12 -0.12)">
       <use xlink:href="#BitstreamVeraSans-Roman-30"/>
       <use x="63.623046875" xlink:href="#BitstreamVeraSans-Roman-2e"/>
       <use x="95.41015625" xlink:href="#BitstreamVeraSans-Roman-31"/>
       <use x="159.033203125" xlink:href="#BitstreamVeraSans-Roman-32"/>
      </g>
     </g>
    </g>
    <g id="ytick_8">
     <g id="line2d_55">
      <path clip-path="url(#p7ff5b81e1d)" d="
M72 146.88
L518.4 146.88" style="fill:none;stroke:#000000;stroke-dasharray:1.000000,3.000000;stroke-dashoffset:0.0;stroke-linecap:butt;stroke-width:0.5;"/>
     </g>
     <g id="line2d_56">
      <g>
       <use style="stroke:#000000;stroke-linecap:butt;stroke-width:0.5;" x="72.0" xlink:href="#me8a85f7bf6" y="146.88"/>
      </g>
     </g>
     <g id="line2d_57">
      <g>
       <use style="stroke:#000000;stroke-linecap:butt;stroke-width:0.5;" x="518.4" xlink:href="#m1a32005dea" y="146.88"/>
      </g>
     </g>
     <g id="text_18">
      <!-- 0.14 -->
      <g transform="translate(42.745625 151.2478125)scale(0.12 -0.12)">
       <use xlink:href="#BitstreamVeraSans-Roman-30"/>
       <use x="63.623046875" xlink:href="#BitstreamVeraSans-Roman-2e"/>
       <use x="95.41015625" xlink:href="#BitstreamVeraSans-Roman-31"/>
       <use x="159.033203125" xlink:href="#BitstreamVeraSans-Roman-34"/>
      </g>
     </g>
    </g>
    <g id="ytick_9">
     <g id="line2d_58">
      <path clip-path="url(#p7ff5b81e1d)" d="
M72 112.32
L518.4 112.32" style="fill:none;stroke:#000000;stroke-dasharray:1.000000,3.000000;stroke-dashoffset:0.0;stroke-linecap:butt;stroke-width:0.5;"/>
     </g>
     <g id="line2d_59">
      <g>
       <use style="stroke:#000000;stroke-linecap:butt;stroke-width:0.5;" x="72.0" xlink:href="#me8a85f7bf6" y="112.32"/>
      </g>
     </g>
     <g id="line2d_60">
      <g>
       <use style="stroke:#000000;stroke-linecap:butt;stroke-width:0.5;" x="518.4" xlink:href="#m1a32005dea" y="112.32"/>
      </g>
     </g>
     <g id="text_19">
      <!-- 0.16 -->
      <g transform="translate(42.828125 116.6878125)scale(0.12 -0.12)">
       <use xlink:href="#BitstreamVeraSans-Roman-30"/>
       <use x="63.623046875" xlink:href="#BitstreamVeraSans-Roman-2e"/>
       <use x="95.41015625" xlink:href="#BitstreamVeraSans-Roman-31"/>
       <use x="159.033203125" xlink:href="#BitstreamVeraSans-Roman-36"/>
      </g>
     </g>
    </g>
    <g id="ytick_10">
     <g id="line2d_61">
      <path clip-path="url(#p7ff5b81e1d)" d="
M72 77.76
L518.4 77.76" style="fill:none;stroke:#000000;stroke-dasharray:1.000000,3.000000;stroke-dashoffset:0.0;stroke-linecap:butt;stroke-width:0.5;"/>
     </g>
     <g id="line2d_62">
      <g>
       <use style="stroke:#000000;stroke-linecap:butt;stroke-width:0.5;" x="72.0" xlink:href="#me8a85f7bf6" y="77.76"/>
      </g>
     </g>
     <g id="line2d_63">
      <g>
       <use style="stroke:#000000;stroke-linecap:butt;stroke-width:0.5;" x="518.4" xlink:href="#m1a32005dea" y="77.76"/>
      </g>
     </g>
     <g id="text_20">
      <!-- 0.18 -->
      <g transform="translate(42.89375 82.1278125)scale(0.12 -0.12)">
       <use xlink:href="#BitstreamVeraSans-Roman-30"/>
       <use x="63.623046875" xlink:href="#BitstreamVeraSans-Roman-2e"/>
       <use x="95.41015625" xlink:href="#BitstreamVeraSans-Roman-31"/>
       <use x="159.033203125" xlink:href="#BitstreamVeraSans-Roman-38"/>
      </g>
     </g>
    </g>
    <g id="text_21">
     <!-- Sec/file -->
     <defs>
      <path d="
M9.42188 75.9844
L18.4062 75.9844
L18.4062 0
L9.42188 0
z
" id="BitstreamVeraSans-Roman-6c"/>
      <path d="
M53.5156 70.5156
L53.5156 60.8906
Q47.9062 63.5781 42.9219 64.8906
Q37.9375 66.2188 33.2969 66.2188
Q25.25 66.2188 20.875 63.0938
Q16.5 59.9688 16.5 54.2031
Q16.5 49.3594 19.4062 46.8906
Q22.3125 44.4375 30.4219 42.9219
L36.375 41.7031
Q47.4062 39.5938 52.6562 34.2969
Q57.9062 29 57.9062 20.125
Q57.9062 9.51562 50.7969 4.04688
Q43.7031 -1.42188 29.9844 -1.42188
Q24.8125 -1.42188 18.9688 -0.25
Q13.1406 0.921875 6.89062 3.21875
L6.89062 13.375
Q12.8906 10.0156 18.6562 8.29688
Q24.4219 6.59375 29.9844 6.59375
Q38.4219 6.59375 43.0156 9.90625
Q47.6094 13.2344 47.6094 19.3906
Q47.6094 24.75 44.3125 27.7812
Q41.0156 30.8125 33.5 32.3281
L27.4844 33.5
Q16.4531 35.6875 11.5156 40.375
Q6.59375 45.0625 6.59375 53.4219
Q6.59375 63.0938 13.4062 68.6562
Q20.2188 74.2188 32.1719 74.2188
Q37.3125 74.2188 42.625 73.2812
Q47.9531 72.3594 53.5156 70.5156" id="BitstreamVeraSans-Roman-53"/>
      <path d="
M9.42188 54.6875
L18.4062 54.6875
L18.4062 0
L9.42188 0
z

M9.42188 75.9844
L18.4062 75.9844
L18.4062 64.5938
L9.42188 64.5938
z
" id="BitstreamVeraSans-Roman-69"/>
      <path d="
M25.3906 72.9062
L33.6875 72.9062
L8.29688 -9.28125
L0 -9.28125
z
" id="BitstreamVeraSans-Roman-2f"/>
      <path d="
M56.2031 29.5938
L56.2031 25.2031
L14.8906 25.2031
Q15.4844 15.9219 20.4844 11.0625
Q25.4844 6.20312 34.4219 6.20312
Q39.5938 6.20312 44.4531 7.46875
Q49.3125 8.73438 54.1094 11.2812
L54.1094 2.78125
Q49.2656 0.734375 44.1875 -0.34375
Q39.1094 -1.42188 33.8906 -1.42188
Q20.7969 -1.42188 13.1562 6.1875
Q5.51562 13.8125 5.51562 26.8125
Q5.51562 40.2344 12.7656 48.1094
Q20.0156 56 32.3281 56
Q43.3594 56 49.7812 48.8906
Q56.2031 41.7969 56.2031 29.5938
M47.2188 32.2344
Q47.125 39.5938 43.0938 43.9844
Q39.0625 48.3906 32.4219 48.3906
Q24.9062 48.3906 20.3906 44.1406
Q15.875 39.8906 15.1875 32.1719
z
" id="BitstreamVeraSans-Roman-65"/>
      <path d="
M37.1094 75.9844
L37.1094 68.5
L28.5156 68.5
Q23.6875 68.5 21.7969 66.5469
Q19.9219 64.5938 19.9219 59.5156
L19.9219 54.6875
L34.7188 54.6875
L34.7188 47.7031
L19.9219 47.7031
L19.9219 0
L10.8906 0
L10.8906 47.7031
L2.29688 47.7031
L2.29688 54.6875
L10.8906 54.6875
L10.8906 58.5
Q10.8906 67.625 15.1406 71.7969
Q19.3906 75.9844 28.6094 75.9844
z
" id="BitstreamVeraSans-Roman-66"/>
      <path d="
M48.7812 52.5938
L48.7812 44.1875
Q44.9688 46.2969 41.1406 47.3438
Q37.3125 48.3906 33.4062 48.3906
Q24.6562 48.3906 19.8125 42.8438
Q14.9844 37.3125 14.9844 27.2969
Q14.9844 17.2812 19.8125 11.7344
Q24.6562 6.20312 33.4062 6.20312
Q37.3125 6.20312 41.1406 7.25
Q44.9688 8.29688 48.7812 10.4062
L48.7812 2.09375
Q45.0156 0.34375 40.9844 -0.53125
Q36.9688 -1.42188 32.4219 -1.42188
Q20.0625 -1.42188 12.7812 6.34375
Q5.51562 14.1094 5.51562 27.2969
Q5.51562 40.6719 12.8594 48.3281
Q20.2188 56 33.0156 56
Q37.1562 56 41.1094 55.1406
Q45.0625 54.2969 48.7812 52.5938" id="BitstreamVeraSans-Roman-63"/>
     </defs>
     <g transform="translate(37.745625 236.13)rotate(-90.0)scale(0.12 -0.12)">
      <use xlink:href="#BitstreamVeraSans-Roman-53"/>
      <use x="63.4765625" xlink:href="#BitstreamVeraSans-Roman-65"/>
      <use x="125.0" xlink:href="#BitstreamVeraSans-Roman-63"/>
      <use x="179.98046875" xlink:href="#BitstreamVeraSans-Roman-2f"/>
      <use x="213.671875" xlink:href="#BitstreamVeraSans-Roman-66"/>
      <use x="248.876953125" xlink:href="#BitstreamVeraSans-Roman-69"/>
      <use x="276.66015625" xlink:href="#BitstreamVeraSans-Roman-6c"/>
      <use x="304.443359375" xlink:href="#BitstreamVeraSans-Roman-65"/>
     </g>
    </g>
   </g>
   <g id="patch_3">
    <path d="
M72 43.2
L518.4 43.2" style="fill:none;stroke:#000000;"/>
   </g>
   <g id="patch_4">
    <path d="
M518.4 388.8
L518.4 43.2" style="fill:none;stroke:#000000;"/>
   </g>
   <g id="patch_5">
    <path d="
M72 388.8
L518.4 388.8" style="fill:none;stroke:#000000;"/>
   </g>
   <g id="patch_6">
    <path d="
M72 388.8
L72 43.2" style="fill:none;stroke:#000000;"/>
   </g>
   <g id="text_22">
    <!-- Rand -->
    <defs>
     <path d="
M54.8906 33.0156
L54.8906 0
L45.9062 0
L45.9062 32.7188
Q45.9062 40.4844 42.875 44.3281
Q39.8438 48.1875 33.7969 48.1875
Q26.5156 48.1875 22.3125 43.5469
Q18.1094 38.9219 18.1094 30.9062
L18.1094 0
L9.07812 0
L9.07812 54.6875
L18.1094 54.6875
L18.1094 46.1875
Q21.3438 51.125 25.7031 53.5625
Q30.0781 56 35.7969 56
Q45.2188 56 50.0469 50.1719
Q54.8906 44.3438 54.8906 33.0156" id="BitstreamVeraSans-Roman-6e"/>
     <path d="
M45.4062 46.3906
L45.4062 75.9844
L54.3906 75.9844
L54.3906 0
L45.4062 0
L45.4062 8.20312
Q42.5781 3.32812 38.25 0.953125
Q33.9375 -1.42188 27.875 -1.42188
Q17.9688 -1.42188 11.7344 6.48438
Q5.51562 14.4062 5.51562 27.2969
Q5.51562 40.1875 11.7344 48.0938
Q17.9688 56 27.875 56
Q33.9375 56 38.25 53.625
Q42.5781 51.2656 45.4062 46.3906
M14.7969 27.2969
Q14.7969 17.3906 18.875 11.75
Q22.9531 6.10938 30.0781 6.10938
Q37.2031 6.10938 41.2969 11.75
Q45.4062 17.3906 45.4062 27.2969
Q45.4062 37.2031 41.2969 42.8438
Q37.2031 48.4844 30.0781 48.4844
Q22.9531 48.4844 18.875 42.8438
Q14.7969 37.2031 14.7969 27.2969" id="BitstreamVeraSans-Roman-64"/>
     <path d="
M44.3906 34.1875
Q47.5625 33.1094 50.5625 29.5938
Q53.5625 26.0781 56.5938 19.9219
L66.6094 0
L56 0
L46.6875 18.7031
Q43.0625 26.0312 39.6719 28.4219
Q36.2812 30.8125 30.4219 30.8125
L19.6719 30.8125
L19.6719 0
L9.8125 0
L9.8125 72.9062
L32.0781 72.9062
Q44.5781 72.9062 50.7344 67.6719
Q56.8906 62.4531 56.8906 51.9062
Q56.8906 45.0156 53.6875 40.4688
Q50.4844 35.9375 44.3906 34.1875
M19.6719 64.7969
L19.6719 38.9219
L32.0781 38.9219
Q39.2031 38.9219 42.8438 42.2188
Q46.4844 45.5156 46.4844 51.9062
Q46.4844 58.2969 42.8438 61.5469
Q39.2031 64.7969 32.0781 64.7969
z
" id="BitstreamVeraSans-Roman-52"/>
     <path d="
M34.2812 27.4844
Q23.3906 27.4844 19.1875 25
Q14.9844 22.5156 14.9844 16.5
Q14.9844 11.7188 18.1406 8.90625
Q21.2969 6.10938 26.7031 6.10938
Q34.1875 6.10938 38.7031 11.4062
Q43.2188 16.7031 43.2188 25.4844
L43.2188 27.4844
z

M52.2031 31.2031
L52.2031 0
L43.2188 0
L43.2188 8.29688
Q40.1406 3.32812 35.5469 0.953125
Q30.9531 -1.42188 24.3125 -1.42188
Q15.9219 -1.42188 10.9531 3.29688
Q6 8.01562 6 15.9219
Q6 25.1406 12.1719 29.8281
Q18.3594 34.5156 30.6094 34.5156
L43.2188 34.5156
L43.2188 35.4062
Q43.2188 41.6094 39.1406 45
Q35.0625 48.3906 27.6875 48.3906
Q23 48.3906 18.5469 47.2656
Q14.1094 46.1406 10.0156 43.8906
L10.0156 52.2031
Q14.9375 54.1094 19.5781 55.0469
Q24.2188 56 28.6094 56
Q40.4844 56 46.3438 49.8438
Q52.2031 43.7031 52.2031 31.2031" id="BitstreamVeraSans-Roman-61"/>
    </defs>
    <g transform="translate(278.17425 38.2)scale(0.144 -0.144)">
     <use xlink:href="#BitstreamVeraSans-Roman-52"/>
     <use x="67.232421875" xlink:href="#BitstreamVeraSans-Roman-61"/>
     <use x="128.51171875" xlink:href="#BitstreamVeraSans-Roman-6e"/>
     <use x="191.890625" xlink:href="#BitstreamVeraSans-Roman-64"/>
    </g>
   </g>
   <g id="legend_1">
    <g id="patch_7">
     <path d="
M429.055 115.339
L511.2 115.339
L511.2 50.4
L429.055 50.4
L429.055 115.339
z
" style="fill:#ffffff;stroke:#000000;"/>
    </g>
    <g id="line2d_64">
     <path d="
M439.135 62.0617
L459.295 62.0617" style="fill:none;stroke:#ff0000;"/>
    </g>
    <g id="line2d_65"/>
    <g id="text_23">
     <!-- LRU -->
     <defs>
      <path d="
M9.8125 72.9062
L19.6719 72.9062
L19.6719 8.29688
L55.1719 8.29688
L55.1719 0
L9.8125 0
z
" id="BitstreamVeraSans-Roman-4c"/>
      <path d="
M8.6875 72.9062
L18.6094 72.9062
L18.6094 28.6094
Q18.6094 16.8906 22.8438 11.7344
Q27.0938 6.59375 36.625 6.59375
Q46.0938 6.59375 50.3438 11.7344
Q54.5938 16.8906 54.5938 28.6094
L54.5938 72.9062
L64.5 72.9062
L64.5 27.3906
Q64.5 13.1406 57.4375 5.85938
Q50.3906 -1.42188 36.625 -1.42188
Q22.7969 -1.42188 15.7344 5.85938
Q8.6875 13.1406 8.6875 27.3906
z
" id="BitstreamVeraSans-Roman-55"/>
     </defs>
     <g transform="translate(475.13475 67.10175)scale(0.144 -0.144)">
      <use xlink:href="#BitstreamVeraSans-Roman-4c"/>
      <use x="55.712890625" xlink:href="#BitstreamVeraSans-Roman-52"/>
      <use x="125.1953125" xlink:href="#BitstreamVeraSans-Roman-55"/>
     </g>
    </g>
    <g id="line2d_66">
     <path d="
M439.135 83.1983
L459.295 83.1983" style="fill:none;opacity:0.7;stroke:#008000;"/>
    </g>
    <g id="line2d_67"/>
    <g id="text_24">
     <!-- MRU -->
     <defs>
      <path d="
M9.8125 72.9062
L24.5156 72.9062
L43.1094 23.2969
L61.8125 72.9062
L76.5156 72.9062
L76.5156 0
L66.8906 0
L66.8906 64.0156
L48.0938 14.0156
L38.1875 14.0156
L19.3906 64.0156
L19.3906 0
L9.8125 0
z
" id="BitstreamVeraSans-Roman-4d"/>
     </defs>
     <g transform="translate(475.13475 88.23825)scale(0.144 -0.144)">
      <use xlink:href="#BitstreamVeraSans-Roman-4d"/>
      <use x="86.279296875" xlink:href="#BitstreamVeraSans-Roman-52"/>
      <use x="155.76171875" xlink:href="#BitstreamVeraSans-Roman-55"/>
     </g>
    </g>
    <g id="line2d_68">
     <path d="
M439.135 104.335
L459.295 104.335" style="fill:none;opacity:0.5;stroke:#0000ff;"/>
    </g>
    <g id="line2d_69"/>
    <g id="text_25">
     <!-- FIFO -->
     <defs>
      <path d="
M9.8125 72.9062
L51.7031 72.9062
L51.7031 64.5938
L19.6719 64.5938
L19.6719 43.1094
L48.5781 43.1094
L48.5781 34.8125
L19.6719 34.8125
L19.6719 0
L9.8125 0
z
" id="BitstreamVeraSans-Roman-46"/>
      <path d="
M9.8125 72.9062
L19.6719 72.9062
L19.6719 0
L9.8125 0
z
" id="BitstreamVeraSans-Roman-49"/>
      <path d="
M39.4062 66.2188
Q28.6562 66.2188 22.3281 58.2031
Q16.0156 50.2031 16.0156 36.375
Q16.0156 22.6094 22.3281 14.5938
Q28.6562 6.59375 39.4062 6.59375
Q50.1406 6.59375 56.4219 14.5938
Q62.7031 22.6094 62.7031 36.375
Q62.7031 50.2031 56.4219 58.2031
Q50.1406 66.2188 39.4062 66.2188
M39.4062 74.2188
Q54.7344 74.2188 63.9062 63.9375
Q73.0938 53.6562 73.0938 36.375
Q73.0938 19.1406 63.9062 8.85938
Q54.7344 -1.42188 39.4062 -1.42188
Q24.0312 -1.42188 14.8125 8.82812
Q5.60938 19.0938 5.60938 36.375
Q5.60938 53.6562 14.8125 63.9375
Q24.0312 74.2188 39.4062 74.2188" id="BitstreamVeraSans-Roman-4f"/>
     </defs>
     <g transform="translate(475.13475 109.37475)scale(0.144 -0.144)">
      <use xlink:href="#BitstreamVeraSans-Roman-46"/>
      <use x="57.51953125" xlink:href="#BitstreamVeraSans-Roman-49"/>
      <use x="87.01171875" xlink:href="#BitstreamVeraSans-Roman-46"/>
      <use x="144.53125" xlink:href="#BitstreamVeraSans-Roman-4f"/>
     </g>
    </g>
   </g>
  </g>
 </g>
 <defs>
  <clipPath id="p7ff5b81e1d">
   <rect height="345.6" width="446.4" x="72.0" y="43.2"/>
  </clipPath>
 </defs>
</svg>
