<?xml version="1.0" encoding="utf-8" standalone="no"?>
<!DOCTYPE svg PUBLIC "-//W3C//DTD SVG 1.1//EN"
  "http://www.w3.org/Graphics/SVG/1.1/DTD/svg11.dtd">
<!-- Created with matplotlib (http://matplotlib.sourceforge.net/) -->
<svg height="432pt" version="1.1" viewBox="0 0 576 432" width="576pt" xmlns="http://www.w3.org/2000/svg" xmlns:xlink="http://www.w3.org/1999/xlink">
 <defs>
  <style type="text/css">
*{stroke-linecap:square;stroke-linejoin:round;}
  </style>
 </defs>
 <g id="figure_1">
  <g id="patch_1">
   <path d="
M0 432
L576 432
L576 0
L0 0
z
" style="fill:#ffffff;"/>
  </g>
  <g id="axes_1">
   <g id="patch_2">
    <path d="
M72 388.8
L518.4 388.8
L518.4 43.2
L72 43.2
z
" style="fill:#ffffff;"/>
   </g>
   <g id="line2d_1">
    <path clip-path="url(#p7ff5b81e1d)" d="
M72 182.949
L72.4464 131.044
L72.8928 284.566
L73.3392 324.254
L73.7856 284.735
L74.232 268.306
L74.6784 283.439
L75.1248 283.778
L75.5712 256.977
L76.0176 278.133
L76.464 268.078
L76.9104 268.779
L77.3568 280.236
L77.8032 278.022
L78.2496 314.281
L78.696 323.611
L79.1424 267.607
L79.5888 290.797
L80.0352 282.086
L80.4816 323.757
L80.928 282.784
L81.3744 323.989
L81.8208 271.245
L82.2672 277.683
L82.7136 269.688
L83.16 313.651
L83.6064 281.445
L84.0528 324.676
L84.4992 322.177
L84.9456 278.004
L85.392 311.006
L85.8384 287.409
L86.2848 322.885
L86.7312 284.143
L87.1776 286.069
L87.624 284.829
L88.0704 319.721
L88.5168 322.901
L88.9632 324.696
L89.4096 268.543
L89.856 277.744
L90.3024 316.096
L90.7488 282.729
L91.1952 283.375
L91.6416 323.403
L92.088 283.679
L92.5344 324.307
L92.9808 324.733
L93.4272 281.42
L93.8736 323.773
L94.32 284.407
L94.7664 323.72
L95.2128 284.551
L95.6592 321.458
L96.1056 318.845
L96.552 283.362
L96.9984 282.889
L97.4448 323.52
L97.8912 324.144
L98.3376 323.053
L98.784 319.338
L99.2304 324.771
L99.6768 282.302
L100.123 323.718
L100.57 269.616
L101.016 314.48
L101.462 324.006
L101.909 324.486
L102.355 296.7
L102.802 283.857
L103.248 323.37
L103.694 322.196
L104.141 318.497
L104.587 283.71
L105.034 324.073
L105.48 323.926
L105.926 324.841
L106.373 283.787
L106.819 311.778
L107.266 209.227
L107.712 322.986
L108.158 323.593
L108.605 262.19
L109.498 323.178
L109.944 324.224
L110.39 316.95
L110.837 325.157
L111.283 324.829
L111.73 269.54
L112.176 313.775
L112.622 323.061
L113.069 324.007
L113.515 312.223
L113.962 323.144
L114.408 325.18
L114.854 316.154
L115.301 325.069
L115.747 324.834
L116.194 314.668
L116.64 325.736
L117.086 279.995
L117.533 323.558
L117.979 321.186
L118.426 323.483
L118.872 324.511
L119.318 272.743
L120.211 320.98
L120.658 313.553
L121.104 287.067
L121.55 324.232
L121.997 307.217
L122.443 323.301
L122.89 325.117
L123.336 323.921
L123.782 292.546
L124.229 323.838
L124.675 321.004
L125.122 325.936
L125.568 322.579
L126.014 316.746
L126.461 323.645
L126.907 323.542
L127.354 311.236
L127.8 323.688
L128.246 264.468
L128.693 308.62
L129.139 324.127
L129.586 323.75
L130.032 316.6
L130.478 284.188
L130.925 322.041
L131.371 323.354
L131.818 323.333
L132.264 324.202
L132.71 324.762
L133.157 322.716
L133.603 314.144
L134.05 309.184
L134.496 321.839
L134.942 324.68
L135.389 323.544
L135.835 324.356
L136.282 322.016
L136.728 322.292
L137.174 294.215
L137.621 326.034
L138.067 325.032
L138.514 309.916
L138.96 308.695
L139.406 323.283
L139.853 322.967
L140.299 290.113
L140.746 322.853
L141.192 324.461
L141.638 323.843
L142.085 324.896
L142.531 324.598
L142.978 302.469
L143.424 322.224
L143.87 298.533
L144.317 323.809
L144.763 316.553
L145.21 314.07
L145.656 324.261
L146.102 311.327
L146.549 324.16
L146.995 281.79
L147.442 322.814
L147.888 310.645
L148.334 324.493
L148.781 284.052
L149.227 310.104
L149.674 324.655
L150.12 314.487
L150.566 316.489
L151.013 323.979
L151.459 324.822
L151.906 325.28
L152.352 313.441
L152.798 324.334
L153.245 315.192
L153.691 323.113
L154.138 323.608
L154.584 316.013
L155.03 323.397
L155.477 323.886
L155.923 323.99
L156.37 311.831
L156.816 324.484
L157.262 314.818
L157.709 323.279
L158.155 323.457
L158.602 324.086
L159.048 322.931
L159.494 323.475
L159.941 315.157
L160.387 313.378
L160.834 324.297
L161.28 315.042
L161.726 323.913
L162.173 323.86
L162.619 324.52
L163.066 307.765
L163.512 321.319
L163.958 323.426
L164.405 304.462
L164.851 290.468
L165.298 325.213
L165.744 325.038
L166.19 307.745
L166.637 324.164
L167.083 314.975
L167.53 321.04
L167.976 315.327
L168.422 315.603
L168.869 315.194
L169.315 316.274
L169.762 311.563
L170.208 324.511
L170.654 322.973
L171.101 324.485
L171.547 314.121
L171.994 315.293
L172.44 323.044
L172.886 323.622
L173.333 308.981
L173.779 324.111
L174.226 323.589
L174.672 321.373
L175.118 322.638
L175.565 267.873
L176.011 302.349
L176.458 321.442
L176.904 298.495
L177.35 306.404
L177.797 323.079
L178.243 324.243
L178.69 305.844
L179.136 323.209
L179.582 314.699
L180.029 311.301
L180.475 323.028
L180.922 298.837
L181.368 322.716
L181.814 300.825
L182.261 323.346
L182.707 323.46
L183.154 319.418
L183.6 313.572
L184.046 309.495
L184.493 324.668
L184.939 308.357
L185.386 324.501
L185.832 324.758
L186.278 316.499
L186.725 324.319
L187.171 305.009
L187.618 322.494
L188.064 325.517
L188.51 323.68
L188.957 301.729
L189.403 324.178
L189.85 324.574
L190.296 324.454
L190.742 316.345
L191.189 325.022
L191.635 321.113
L192.082 323.747
L192.528 323.749
L192.974 312.515
L193.421 323.949
L193.867 306.474
L194.314 322.617
L194.76 315.026
L195.206 321.485
L195.653 306.66
L196.546 324.023
L196.992 323.811
L197.438 321.276
L197.885 315.002
L198.331 316.092
L198.778 323.415
L199.224 323.573
L199.67 324.238
L200.117 322.138
L200.563 323.221
L201.01 305.921
L201.456 323.061
L201.902 324.176
L202.349 323.03
L202.795 284.028
L203.242 315.094
L203.688 322.048
L204.134 304.843
L204.581 324.227
L205.027 324.251
L205.474 316.122
L205.92 318.203
L206.366 323.983
L206.813 323.908
L207.259 312.817
L207.706 324.301
L208.152 323.743
L208.598 318.875
L209.045 324.114
L209.491 324.007
L209.938 312.682
L210.384 324.331
L210.83 324.913
L211.277 314.627
L211.723 323.551
L212.17 325.115
L212.616 310.195
L213.062 323.591
L213.509 323.772
L213.955 319.779
L214.402 319.345
L214.848 323.844
L215.294 323.867
L215.741 304.852
L216.634 321.51
L217.08 322.556
L217.526 322.738
L217.973 316.396
L218.419 315.562
L218.866 322.818
L219.312 289.234
L220.205 323.787
L220.651 324.583
L221.098 318.806
L221.544 323.202
L221.99 306.007
L222.437 324.21
L222.883 315.832
L223.33 315.792
L223.776 322.883
L224.222 323.709
L224.669 320.505
L225.115 324.344
L225.562 315.76
L226.008 323.291
L226.454 267.632
L226.901 307.608
L227.347 321.22
L227.794 306.188
L228.24 323.444
L228.686 322.633
L229.133 322.353
L230.026 308.577
L230.472 324.95
L230.918 323.506
L231.365 313.985
L231.811 323.769
L232.258 315.688
L232.704 322.9
L233.15 322.375
L233.597 312.431
L234.043 325.537
L234.49 324.403
L234.936 314.302
L235.382 322.401
L235.829 314.97
L236.275 314.886
L236.722 323.239
L237.168 302.616
L237.614 322.609
L238.061 315.502
L238.507 324.752
L238.954 323.345
L239.4 311.548
L239.846 306.274
L240.739 324.678
L241.186 315.407
L241.632 324.37
L242.078 288.226
L242.525 323.737
L242.971 307.98
L243.418 324.104
L243.864 323.773
L244.31 315.465
L244.757 324.607
L245.203 325.351
L245.65 321.243
L246.542 325.089
L246.989 297.201
L247.435 316.946
L247.882 321.675
L248.328 324.226
L248.774 299.924
L249.221 324.937
L249.667 322.555
L250.114 323.478
L250.56 315.844
L251.006 324.415
L251.453 313.784
L251.899 323.544
L252.346 304.915
L252.792 314.599
L253.238 311.423
L253.685 314.831
L254.131 308.505
L254.578 314.268
L255.024 298.655
L255.47 316.123
L255.917 323.781
L256.363 299.328
L256.81 323.988
L257.256 314.476
L257.702 323.856
L258.149 323.371
L258.595 323.811
L259.042 323.359
L259.934 290.611
L260.381 323.623
L260.827 323.801
L261.274 313.466
L261.72 324.151
L262.166 324.269
L262.613 324.824
L263.059 324.953
L263.506 323.356
L263.952 291.214
L264.398 324.43
L264.845 324.861
L265.291 323.557
L265.738 308.226
L266.184 325.53
L267.077 314.54
L267.523 306.521
L268.416 324.245
L268.862 323.704
L269.309 315.736
L269.755 314.701
L270.202 322.875
L270.648 323.377
L271.094 315.883
L271.541 300.529
L271.987 324.11
L272.88 321.071
L273.326 309.293
L273.773 323.888
L274.219 324.038
L274.666 312.482
L275.112 315.176
L275.558 315.639
L276.005 324.425
L276.451 324.665
L276.898 307.978
L277.344 324.332
L277.79 316.19
L278.683 324.699
L279.13 323.353
L279.576 319.923
L280.022 322.138
L280.469 306.545
L280.915 322.016
L281.362 315.839
L281.808 312.317
L282.254 316.386
L282.701 324.029
L283.147 312.669
L283.594 321.983
L284.04 307.71
L284.933 324.273
L285.379 303.806
L285.826 323.465
L286.272 315.122
L286.718 324.442
L287.165 325.238
L287.611 296.94
L288.058 322.988
L288.504 313.861
L288.95 312.393
L289.397 310.444
L289.843 323.806
L290.29 315.675
L290.736 289.232
L291.182 312.63
L291.629 322.727
L292.075 323.786
L292.522 321.497
L292.968 304.48
L293.414 297.572
L293.861 324.651
L294.307 316.308
L294.754 324.478
L295.2 324.642
L295.646 314.713
L296.093 324.247
L296.539 306.255
L296.986 323.294
L297.432 298.861
L297.878 324.801
L298.325 321.457
L298.771 285.78
L299.218 316.535
L299.664 312.175
L300.11 324.536
L300.557 324.402
L301.003 323.283
L301.45 324.356
L301.896 324.237
L302.342 317.786
L302.789 324.734
L303.235 323.415
L303.682 311.852
L304.128 316.344
L304.574 313.689
L305.021 323.875
L305.467 323.86
L305.914 315.818
L306.36 323.968
L306.806 324.183
L307.253 317.671
L307.699 307.007
L308.146 324.478
L308.592 323.756
L309.485 307.072
L309.931 323.851
L310.378 324.565
L310.824 321.335
L311.27 322.364
L311.717 322.68
L312.163 323.803
L312.61 323.802
L313.056 323.422
L313.502 316.185
L313.949 323.412
L314.395 323.945
L314.842 314.345
L315.288 323.161
L315.734 308.611
L316.181 313.659
L316.627 294.063
L317.074 323.586
L317.52 307.729
L317.966 315.614
L318.413 300.27
L318.859 322.448
L319.306 306.797
L319.752 325.269
L320.198 324.257
L320.645 313.866
L321.091 324.804
L321.538 322.855
L321.984 321.725
L322.43 325.334
L322.877 313.934
L323.323 323.723
L323.77 324.567
L324.216 323.634
L324.662 314.929
L325.109 324.363
L325.555 322.177
L326.002 323.747
L326.448 315.706
L326.894 312.285
L327.341 324.052
L327.787 316.398
L328.234 314.604
L328.68 315.17
L329.126 307.163
L329.573 311.357
L330.019 324.339
L330.466 324.127
L330.912 310.901
L331.358 307.697
L331.805 324.374
L332.251 324.021
L332.698 322.679
L333.144 312.353
L333.59 291.087
L334.037 324.232
L334.483 325.006
L334.93 324.311
L335.376 292.397
L335.822 313.24
L336.269 323.246
L336.715 323.296
L337.162 307.604
L337.608 280.505
L338.054 316.469
L338.501 298.215
L338.947 314.382
L339.394 318.867
L339.84 299.111
L340.286 320.302
L340.733 316.091
L341.179 324.012
L341.626 323.759
L342.072 322.323
L342.518 307.243
L342.965 322.642
L343.858 307.466
L344.304 322.377
L344.75 322.949
L345.197 323.339
L345.643 315.923
L346.09 323.682
L346.536 313.422
L346.982 323.735
L347.429 299.806
L347.875 324.276
L348.322 324.487
L348.768 293.437
L349.214 323.445
L349.661 322.764
L350.107 314.985
L350.554 311.022
L351 297.724
L351.446 323.967
L351.893 323.47
L352.339 323.529
L352.786 313.5
L353.232 313.91
L353.678 323.123
L354.125 323.287
L354.571 314.928
L355.018 322.742
L355.464 323.6
L355.91 296.968
L356.357 323.535
L356.803 324.268
L357.25 321.746
L357.696 323.358
L358.142 316.233
L358.589 314.767
L359.035 324.787
L359.482 310.487
L359.928 306.536
L360.374 316.701
L360.821 323.295
L361.267 324.155
L361.714 279.027
L362.606 323.073
L363.053 307.247
L363.499 323.775
L363.946 324.101
L364.392 305.067
L364.838 323.557
L365.285 305.718
L365.731 307.16
L366.178 322.796
L366.624 323.249
L367.07 323.974
L367.517 309.161
L367.963 322.773
L368.41 323.04
L368.856 322.659
L369.302 323.691
L369.749 322.278
L370.195 315.374
L370.642 323.247
L371.088 323.498
L371.534 320.762
L372.427 323.226
L372.874 322.945
L373.766 324.392
L374.213 308.865
L374.659 322.36
L375.106 309.059
L375.552 323.454
L375.998 324.268
L376.445 319.697
L376.891 324.009
L377.338 323.675
L377.784 317.538
L378.23 324.088
L378.677 321.905
L379.123 308.52
L379.57 323.531
L380.016 299.353
L380.462 324.542
L380.909 306.692
L381.802 323.666
L382.248 297.499
L382.694 324.247
L383.141 324.704
L383.587 315.539
L384.034 313.45
L384.48 323.028
L384.926 309.361
L385.373 323.305
L385.819 307.567
L386.266 323.982
L386.712 307.628
L387.158 324.116
L387.605 322.382
L388.051 297.95
L388.498 323.848
L388.944 307.71
L389.39 324.167
L389.837 324.243
L390.283 323.007
L390.73 322.839
L391.176 301.293
L391.622 324.079
L392.069 307.565
L392.515 314.808
L392.962 308.295
L393.408 322.772
L393.854 323.622
L394.301 317.661
L394.747 323.932
L395.194 314.65
L395.64 322.833
L396.086 323.91
L396.533 318.405
L396.979 314.424
L397.426 323.855
L397.872 322.28
L398.318 323.579
L398.765 324.18
L399.211 321.652
L399.658 323.171
L400.104 323.341
L400.55 321.817
L400.997 323.09
L401.443 323.689
L401.89 322.722
L402.336 323.267
L402.782 324.265
L403.229 323.117
L403.675 324.391
L404.122 324.321
L404.568 307.889
L405.014 296.206
L405.461 323.591
L406.354 309.648
L406.8 324.198
L407.246 324.336
L407.693 321.396
L408.139 322.132
L408.586 323.174
L409.032 314.715
L409.478 324.028
L410.371 306.522
L411.264 324.13
L411.71 323.127
L412.157 304.986
L412.603 322.88
L413.05 323.441
L413.496 321.171
L413.942 314.021
L414.389 301.562
L414.835 307.66
L415.282 307.735
L415.728 324.446
L416.174 322.962
L416.621 323.295
L417.067 315.477
L417.514 311.239
L417.96 324.233
L418.406 323.68
L418.853 304.981
L419.299 307.067
L419.746 308.147
L420.192 142.528
L420.638 73.5059
L421.085 315.183
L421.531 320.226
L421.978 301.047
L422.424 323.83
L422.87 315.288
L423.317 300.326
L423.763 324.135
L424.21 313.716
L424.656 313.75
L425.102 315.267
L425.549 316.169
L425.995 301.397
L426.442 316.818
L426.888 321.688
L427.334 323.717
L427.781 291.255
L428.227 324.024
L428.674 316.326
L429.12 322.558
L429.566 323.211
L430.013 315.503
L430.459 314.34
L430.906 323.912
L431.352 280.928
L431.798 324.048
L432.245 323.209
L432.691 324.764
L433.138 316.193
L433.584 322.097
L434.03 323.367
L434.477 315.661
L434.923 315.591
L435.37 321.093
L435.816 314.626
L436.262 322.065
L436.709 324.079
L437.155 316.038
L437.602 322.519
L438.048 323.581
L438.494 323.27
L438.941 311.421
L439.387 323.722
L439.834 307.636
L440.28 324.088
L440.726 315.691
L441.173 319.84
L441.619 308.35
L442.066 306.471
L442.512 324.342
L442.958 323.427
L443.405 319.184
L443.851 323.824
L444.298 323.38
L444.744 296.315
L445.19 314.949
L445.637 305.944
L446.083 324.579
L446.53 323.653
L446.976 313.71
L447.422 323.557
L447.869 313.874
L448.315 323.758
L448.762 314.354
L449.208 322.564
L449.654 323.277
L450.101 322.799
L450.547 322.633
L450.994 323.484
L451.44 315.355
L451.886 313.417
L452.333 322.923
L452.779 323.199
L453.226 303.2
L453.672 315.397
L454.118 304.961
L454.565 290.272
L455.011 324.719
L455.458 323.037
L455.904 310.168
L456.35 314.041
L456.797 323.573
L457.243 323.543
L457.69 324.029
L458.136 315.95
L458.582 323.744
L459.029 322.367
L459.475 323.102
L459.922 320.861
L460.814 308.026
L461.261 323.014
L461.707 315.625
L462.154 323.86
L462.6 322.742
L463.046 323.512
L463.493 323.075
L463.939 323.897
L464.386 323.211
L464.832 317.215
L465.278 323.149
L465.725 323.803
L466.171 323.437
L466.618 314.504
L467.064 321.379
L467.51 323.838
L467.957 322.816
L468.403 306.014
L468.85 315.087
L469.296 317.048
L469.742 323.899
L470.189 324.135
L470.635 305.882
L471.082 323.916
L471.528 308.841
L471.974 322.225
L472.421 323.782
L472.867 322.342
L473.314 315.444
L473.76 323.306
L474.206 324.168
L475.099 323.707
L475.546 309.957
L475.992 314.711
L476.438 317.733
L476.885 316.58
L477.331 306.708
L477.778 322.655
L478.224 323.099
L478.67 316.665
L479.117 305.038
L479.563 314.974
L480.01 315.084
L480.456 324.461
L480.902 307.214
L481.349 324.729
L481.795 313.345
L482.242 322.289
L482.688 322.798
L483.134 323.755
L483.581 323.596
L484.027 318.635
L484.474 322.597
L484.92 307.306
L485.366 324.541
L485.813 315.176
L486.259 282.928
L486.706 316.25
L487.152 308.926
L487.598 324.41
L488.045 314.586
L488.491 323.992
L488.938 323.575
L489.384 323.925
L490.277 306.698
L490.723 323.598
L491.17 307.378
L491.616 307.468
L492.062 323.406
L492.509 323.819
L492.955 323.583
L493.402 324.189
L493.848 325.004
L494.294 324.854
L494.741 315.857
L495.187 294.338
L495.634 324.283
L496.08 314.157
L496.526 316.134
L496.973 315.157
L497.419 316.844
L497.866 315.259
L498.758 323.985
L499.205 324.855
L499.651 302.214
L500.098 314.671
L500.544 322.576
L500.99 322.636
L501.437 315.148
L501.883 323.047
L502.33 324.082
L502.776 308.547
L503.222 280.763
L503.669 324.676
L504.115 322.998
L504.562 323.522
L505.008 324.319
L505.454 323.248
L505.901 323.815
L506.347 324.725
L506.794 323.428
L507.24 314.468
L507.686 315.516
L508.133 312.899
L508.579 315.188
L509.026 318.817
L509.472 323.637
L509.918 307.085
L510.365 324.513
L510.811 322.07
L511.258 311.829
L511.704 315.54
L512.15 308.545
L512.597 323.355
L513.043 323.461
L513.49 312.237
L513.936 322.557
L514.382 309.976
L514.829 321.918
L515.275 323.31
L515.722 319.962
L516.168 305.332
L516.614 309.697
L517.061 323.368
L517.507 309.861
L517.954 322.119
L517.954 322.119" style="fill:none;stroke:#ff0000;"/>
   </g>
   <g id="line2d_2">
    <path clip-path="url(#p7ff5b81e1d)" d="
M72 281.69
L72.4464 254.455
L72.8928 273.037
L73.3392 271.481
L73.7856 250.763
L74.232 282.703
L74.6784 279.525
L75.1248 274.469
L75.5712 273.686
L76.0176 267.299
L76.464 273.391
L76.9104 282.314
L77.3568 322.855
L77.8032 323.874
L78.2496 281.703
L78.696 284.386
L79.1424 265.835
L79.5888 324.111
L80.0352 264
L80.928 268.853
L81.3744 273.639
L81.8208 273.122
L82.2672 315.655
L82.7136 282.912
L83.16 282.078
L83.6064 323.835
L84.0528 282.1
L84.4992 282.916
L84.9456 282.213
L85.392 322.898
L85.8384 283.436
L86.2848 324.101
L86.7312 283.098
L87.1776 324.02
L87.624 283.248
L88.0704 321.69
L88.5168 306.015
L88.9632 324.915
L89.4096 324.033
L89.856 307.116
L90.3024 281.399
L90.7488 323.455
L91.6416 238.161
L92.088 296.476
L92.5344 265.434
L92.9808 323.272
L93.4272 309.754
L93.8736 322.477
L94.32 322.972
L94.7664 307.336
L95.2128 323.494
L95.6592 323.583
L96.1056 312.263
L96.552 324.323
L96.9984 324.066
L97.4448 261.896
L97.8912 275.308
L98.3376 314.078
L98.784 323.489
L99.2304 282.416
L99.6768 322.687
L100.123 322.678
L100.57 260.812
L101.016 323.607
L101.462 282.342
L101.909 323.77
L102.355 323.425
L102.802 308.183
L103.248 283.447
L103.694 307.164
L104.141 323.489
L104.587 312.809
L105.034 293.39
L105.48 323.881
L105.926 282.467
L106.373 323.237
L106.819 323.156
L107.266 323.791
L107.712 276.324
L108.158 315.326
L108.605 282.543
L109.051 323.543
L109.498 323.48
L109.944 274.916
L110.39 314.941
L110.837 324.516
L111.283 323.81
L111.73 270.715
L112.176 316.81
L112.622 322.957
L113.069 322.305
L113.515 311.03
L113.962 322.74
L114.408 323.678
L114.854 314.963
L115.301 322.944
L115.747 322.804
L116.194 266.667
L116.64 316.754
L117.086 323.049
L117.533 323.161
L117.979 315.798
L118.426 323.269
L118.872 264.32
L119.318 322.482
L119.765 317.897
L120.211 324.396
L120.658 282.071
L121.104 323.146
L121.55 323.246
L121.997 324.102
L122.443 324.144
L122.89 323.411
L123.336 318.895
L123.782 323.672
L124.229 323.327
L124.675 313.656
L125.122 324.047
L125.568 323.577
L126.014 305.455
L126.461 323.689
L127.354 324.599
L127.8 190.733
L128.246 323.217
L128.693 323.559
L129.139 305.686
L129.586 324.103
L130.478 282.614
L130.925 323.415
L131.371 324.013
L131.818 292.656
L132.264 322.693
L132.71 311.698
L133.157 323.311
L133.603 324.052
L134.05 321.307
L134.496 323.612
L134.942 324.319
L135.389 323.61
L135.835 306.323
L136.282 323.832
L136.728 323.674
L137.174 322.45
L137.621 324.79
L138.067 323.194
L138.514 314.222
L138.96 315.379
L139.406 324.258
L139.853 321.067
L140.299 323.392
L140.746 323.116
L141.192 308.848
L141.638 289.38
L142.085 322.222
L142.531 308.952
L142.978 323.105
L143.424 321.867
L143.87 316.754
L144.317 323.372
L144.763 323.24
L145.21 309.906
L145.656 313.763
L146.102 322.759
L146.549 314.069
L146.995 323.771
L147.442 323.84
L147.888 317.946
L148.334 323.392
L148.781 314.544
L149.227 323.037
L149.674 315.1
L150.12 316.193
L150.566 323.108
L151.013 324.178
L151.459 324.078
L151.906 298.72
L152.352 316.306
L152.798 300.58
L153.245 314.725
L153.691 269.268
L154.138 301.691
L154.584 324.34
L155.03 315.148
L155.477 315.14
L155.923 315.276
L156.37 306.565
L156.816 313.495
L157.262 306.252
L157.709 323.316
L158.155 323.143
L158.602 322.81
L159.048 301.902
L159.494 323.257
L159.941 306.322
L160.387 314.676
L160.834 310
L161.28 323.825
L162.173 308.17
L162.619 323.065
L163.066 323.812
L163.512 312.72
L163.958 323.297
L164.405 322.716
L164.851 315.894
L165.298 324.125
L165.744 323.219
L166.19 305.242
L166.637 323.518
L167.083 315.178
L167.53 323.457
L167.976 324.113
L168.422 306.403
L168.869 323.477
L169.315 323.454
L169.762 324.047
L170.208 315.207
L170.654 314.484
L171.101 315.295
L171.547 315.33
L171.994 308.384
L172.44 322.891
L172.886 323.583
L173.333 307.103
L173.779 306.623
L174.226 264.065
L174.672 305.209
L175.565 323.31
L176.011 322.809
L176.458 315.363
L176.904 323.749
L177.35 316.285
L177.797 306.345
L178.243 303.228
L178.69 306.264
L179.582 323.462
L180.029 309.645
L180.475 323.135
L181.368 306.139
L181.814 315.595
L182.261 308.096
L182.707 323.713
L183.154 323.701
L183.6 288.859
L184.046 323.037
L184.493 310.346
L184.939 323.014
L185.386 313.464
L185.832 323.958
L186.278 323.56
L186.725 304.593
L187.171 279.647
L187.618 314.723
L188.064 305.849
L188.51 322.608
L188.957 314.806
L189.403 298.301
L189.85 305.045
L190.296 323.453
L190.742 323.535
L191.189 315.022
L191.635 301.49
L192.082 305.614
L192.528 305.804
L192.974 323.347
L193.421 308.222
L193.867 306.15
L194.314 323.438
L194.76 322.508
L195.206 323.939
L195.653 323.689
L196.099 303.062
L196.546 323.755
L196.992 323.312
L197.438 314.64
L197.885 315.338
L198.331 313.966
L198.778 323.257
L199.224 305.064
L199.67 318.818
L200.117 323.174
L200.563 322.057
L201.01 313.897
L201.456 322.415
L201.902 307.298
L202.349 322.255
L202.795 322.834
L203.242 305.358
L203.688 314.551
L204.581 306.911
L205.027 305.252
L205.474 323.232
L205.92 322.9
L206.366 314.528
L206.813 323.302
L207.259 306.615
L207.706 323.245
L208.152 323.662
L208.598 313.781
L209.045 316.771
L209.491 322.855
L209.938 323.24
L210.384 314.086
L210.83 307.636
L211.277 323.043
L211.723 322.836
L212.17 324.072
L212.616 323.486
L213.062 306.76
L213.509 323.977
L213.955 322.987
L214.402 311.927
L214.848 315.092
L215.294 323.402
L215.741 306.263
L216.187 323.779
L216.634 306.553
L217.08 306.69
L217.526 323.242
L217.973 322.041
L218.419 323.136
L218.866 306.02
L219.758 323.257
L220.205 308.672
L220.651 324.026
L221.098 322.638
L221.544 312.414
L221.99 322.825
L222.437 314.408
L222.883 322.719
L223.33 323.527
L223.776 322.671
L224.222 311.197
L224.669 323.379
L225.115 323.524
L225.562 314.392
L226.008 323.553
L226.454 312.863
L226.901 318.036
L227.347 314.777
L227.794 324.237
L228.24 322.207
L228.686 323.202
L229.133 323.288
L229.579 322.711
L230.026 323.082
L230.472 315.054
L230.918 323.076
L231.365 277.233
L231.811 314.783
L232.258 306.239
L232.704 323.345
L233.15 313.871
L233.597 310.204
L234.043 323.733
L234.49 300.307
L234.936 323.777
L235.382 314.965
L235.829 320.981
L236.275 323.716
L236.722 314.944
L237.168 319.504
L237.614 307.707
L238.061 286.542
L238.507 324.162
L238.954 306.429
L239.4 323.493
L239.846 322.987
L240.293 306.448
L240.739 324.189
L241.186 315.166
L241.632 309.12
L242.078 315.341
L242.525 295.869
L242.971 315.474
L243.418 307.944
L243.864 324.037
L244.31 315.21
L244.757 274.136
L245.203 312.746
L245.65 324.363
L246.096 323.72
L246.542 310.083
L246.989 321.964
L247.435 306.081
L247.882 322.89
L248.328 322.581
L248.774 323.049
L249.221 317.225
L249.667 323.213
L250.114 323.416
L250.56 312.487
L251.006 314.343
L251.453 323.489
L251.899 307.094
L252.346 306.656
L252.792 314.535
L253.238 315.043
L253.685 323.641
L254.131 308.756
L254.578 322.812
L255.024 322.756
L255.47 321.615
L255.917 323.26
L256.363 323.458
L256.81 307.084
L257.256 323.936
L257.702 324.181
L258.149 303.78
L258.595 290.911
L259.042 323.09
L259.488 323.803
L259.934 315.719
L260.381 305.563
L260.827 315.137
L261.274 309.275
L261.72 323.565
L262.166 323.87
L262.613 305.206
L263.059 324.361
L263.506 323.719
L263.952 311.053
L264.398 323.652
L264.845 323.78
L265.291 304.936
L265.738 324.085
L266.184 323.492
L266.63 302.428
L267.077 324.253
L267.523 323.641
L267.97 304.823
L268.416 307.114
L268.862 317.603
L269.309 315.496
L269.755 315.491
L270.202 321.861
L270.648 306.363
L271.094 322.53
L271.541 314.253
L271.987 322.407
L272.434 322.741
L272.88 322.529
L273.326 324.103
L273.773 322.939
L274.219 315.596
L274.666 324.425
L275.112 323.537
L275.558 311.545
L276.005 315.112
L276.451 323.59
L276.898 313.924
L277.344 323.555
L277.79 323.61
L278.237 322.444
L278.683 324.485
L279.13 323.726
L279.576 301.228
L280.022 323.837
L280.469 323.661
L280.915 314.36
L281.362 323.689
L281.808 323.822
L282.254 304.139
L282.701 289.41
L283.147 323.242
L283.594 323.22
L284.04 323.868
L284.486 316.652
L284.933 314.891
L285.379 323.803
L285.826 306.575
L286.272 314.387
L286.718 315.236
L287.165 299.214
L287.611 311.723
L288.058 315.848
L288.504 323.873
L288.95 311.164
L289.397 322.12
L289.843 303.356
L290.29 323.144
L290.736 305.543
L291.182 297.087
L291.629 322.955
L292.075 323.501
L292.522 323.245
L292.968 311.76
L293.414 315.239
L293.861 323.439
L294.307 321.899
L294.754 322.912
L295.2 322.334
L295.646 306.816
L296.093 323.117
L296.539 323.198
L296.986 318.137
L297.432 315.206
L297.878 322.438
L298.325 314.977
L298.771 322.893
L299.218 323.528
L299.664 309.376
L300.11 323.246
L300.557 323.052
L301.003 318.034
L301.45 323.87
L301.896 298.072
L302.342 323.178
L302.789 322.783
L303.235 296.878
L303.682 322.615
L304.128 323.368
L304.574 306.101
L305.021 323.131
L305.467 294.781
L305.914 323.41
L306.36 323.782
L306.806 323.598
L307.253 323.896
L307.699 297.893
L308.146 315.389
L308.592 300.883
L309.038 322.84
L309.485 323.345
L309.931 313.535
L310.378 324.033
L310.824 323.814
L311.27 315.093
L311.717 314.61
L312.163 313.091
L312.61 323.687
L313.056 322.127
L313.502 307.016
L314.395 322.505
L314.842 319.97
L315.288 314.636
L315.734 283.557
L316.181 323.794
L316.627 305.304
L317.074 322.681
L317.52 322.908
L317.966 323.91
L318.413 322.848
L318.859 305.989
L319.306 323.025
L319.752 323.034
L320.198 310.951
L320.645 323.835
L321.091 322.95
L321.538 306.09
L321.984 305.667
L322.43 323.5
L322.877 323.417
L323.323 323.191
L323.77 305.592
L324.216 324.372
L324.662 323.729
L325.109 308.139
L325.555 322.799
L326.002 305.623
L326.448 322.906
L326.894 323.004
L327.341 305.564
L327.787 322.518
L328.234 323.268
L328.68 313.391
L329.126 322.581
L329.573 305.731
L330.019 305.83
L330.466 323.152
L330.912 323.794
L331.358 323.492
L331.805 323.378
L332.251 310.789
L332.698 323.321
L333.144 323.268
L333.59 315.665
L334.037 323.956
L334.483 323.078
L334.93 304.146
L335.376 323.589
L335.822 323.5
L336.269 315.984
L336.715 323.589
L337.162 322.488
L337.608 313.772
L338.054 323.394
L338.501 323.757
L338.947 300.169
L339.394 323.187
L339.84 322.488
L340.286 323.033
L340.733 315.598
L341.179 323.795
L341.626 316.889
L342.072 315.5
L342.518 324.222
L342.965 315.008
L343.411 315.489
L343.858 323.994
L344.304 321.831
L344.75 315.548
L345.197 314.512
L345.643 315.464
L346.09 324.129
L346.536 323.719
L346.982 321.609
L347.429 323.952
L347.875 323.598
L348.322 282.728
L348.768 313.889
L349.214 322.023
L349.661 322.397
L350.107 314.234
L350.554 322.117
L351 322.658
L351.446 314.374
L351.893 314.996
L352.339 322.485
L352.786 299.888
L353.232 322.248
L353.678 305.921
L354.125 306.119
L354.571 322.839
L355.018 297.07
L355.464 323.576
L355.91 322.726
L356.357 297.261
L356.803 322.584
L357.25 314.684
L357.696 322.8
L358.142 315.891
L358.589 323.485
L359.035 296.434
L359.482 322.701
L359.928 322.926
L360.374 322.458
L360.821 323.271
L361.267 323.829
L361.714 311.545
L362.16 323.812
L362.606 323.734
L363.053 314.879
L363.499 323.843
L363.946 323.55
L364.392 311.404
L364.838 315.227
L365.285 323.976
L365.731 323.444
L366.178 323.184
L366.624 322.617
L367.07 302.683
L367.517 323.329
L367.963 323.23
L368.41 314.778
L368.856 323.096
L369.302 323.273
L369.749 319.359
L370.195 298.118
L370.642 306.506
L371.088 322.546
L371.534 303.832
L371.981 323.047
L372.427 323.145
L372.874 318.713
L373.32 323.541
L373.766 322.967
L374.213 303.079
L374.659 315.323
L375.106 313.697
L375.552 314.719
L375.998 314.479
L376.445 322.218
L376.891 307.113
L377.784 323.643
L378.23 322.688
L378.677 313.863
L379.123 324.252
L379.57 323.657
L380.016 315.875
L380.462 322.85
L380.909 314.909
L381.355 311.005
L381.802 323.356
L382.248 314.897
L382.694 323.651
L383.587 308.634
L384.034 322.693
L384.48 315.213
L384.926 323.664
L385.373 324.221
L385.819 324.294
L386.266 311.779
L386.712 322.842
L387.158 283.34
L387.605 324.203
L388.051 306.705
L388.498 323.935
L388.944 324
L389.39 301.326
L389.837 323.175
L390.283 316.236
L390.73 323.6
L391.622 307.452
L392.069 324.06
L392.515 323.623
L392.962 315.269
L393.408 323.46
L393.854 315.152
L394.301 318.604
L394.747 323.518
L395.194 323.268
L395.64 311.48
L396.086 323.387
L396.533 323.643
L396.979 315.724
L397.426 315.022
L397.872 323.344
L398.318 311.17
L398.765 323.881
L399.211 321.782
L399.658 322.682
L400.104 322.613
L400.55 304.041
L400.997 322.69
L401.443 323.166
L401.89 319.138
L402.336 322.52
L402.782 314.047
L403.229 313.926
L403.675 323.244
L404.122 306.219
L404.568 323.503
L405.014 314.435
L405.461 320.645
L405.907 314.954
L406.354 314.749
L406.8 323.605
L407.246 324.001
L407.693 307.689
L408.139 323.471
L408.586 323.043
L409.032 313.856
L409.478 323.63
L409.925 323.251
L410.371 311.355
L410.818 323.373
L411.264 314.815
L411.71 322.372
L412.157 314.726
L412.603 296.789
L413.05 322.942
L413.496 323.192
L413.942 322.744
L414.389 323.154
L414.835 314.817
L415.282 323.035
L416.174 323.017
L417.067 314.639
L417.514 322.599
L417.96 312.952
L418.406 305.761
L418.853 322.06
L419.299 314.771
L419.746 323.332
L420.192 322.924
L420.638 323.252
L421.085 313.385
L421.531 323.706
L422.424 319.434
L422.87 323.49
L423.317 323.158
L423.763 315.97
L424.21 324.05
L424.656 323.383
L425.102 310.988
L425.549 323.592
L425.995 323.308
L426.442 307.89
L426.888 322.782
L427.334 306.336
L427.781 322.037
L428.227 313.619
L428.674 322.937
L429.12 301.194
L429.566 323.281
L430.013 322.778
L430.459 313.686
L430.906 324.035
L431.352 322.564
L431.798 322.882
L432.245 323.429
L432.691 323.13
L433.138 323.808
L433.584 315.739
L434.03 315.454
L434.477 324.545
L434.923 323.165
L435.37 322.49
L435.816 313.601
L436.262 315.083
L436.709 312.607
L437.155 323.981
L437.602 323.516
L438.048 306.726
L438.494 324.14
L438.941 306.536
L439.834 322.191
L440.28 298.309
L440.726 323.847
L441.173 303.753
L441.619 227.15
L442.066 315.552
L442.512 309.421
L442.958 323.864
L443.405 324.063
L443.851 306.661
L444.298 323.459
L444.744 323.15
L445.637 307.548
L446.083 322.97
L446.976 323.311
L447.422 323.516
L447.869 316.664
L448.315 314.728
L448.762 323.866
L449.208 306.077
L449.654 323.162
L450.101 305.329
L450.547 322.462
L450.994 313.656
L451.44 321.422
L451.886 322.215
L452.333 313.266
L452.779 321.911
L453.226 323.379
L453.672 322.377
L454.118 311.427
L454.565 322.154
L455.011 314.291
L455.458 321.733
L455.904 297.499
L456.35 305.327
L456.797 323.28
L457.243 302.94
L457.69 323.198
L458.136 323.672
L458.582 291.721
L459.029 291.123
L459.475 324.12
L460.368 322.269
L460.814 323.906
L461.707 307.52
L462.154 323.282
L462.6 315.61
L463.046 323.414
L463.493 324.111
L463.939 322.88
L464.386 314.65
L464.832 315.205
L465.278 324.044
L465.725 289.711
L466.171 322.329
L466.618 314.407
L467.064 323.134
L467.51 323.002
L467.957 314.664
L468.403 323.167
L468.85 311.113
L469.296 322.477
L469.742 313.326
L470.189 322.638
L470.635 322.585
L471.082 323.199
L471.528 321.753
L471.974 323.227
L472.421 322.795
L472.867 311.931
L473.314 314.891
L473.76 313.904
L474.206 323.23
L474.653 323.615
L475.099 323.245
L475.546 319.554
L475.992 314.785
L476.438 323.108
L476.885 322.953
L477.331 322.962
L477.778 314.711
L478.224 313.255
L478.67 322.924
L479.117 322.18
L479.563 324.026
L480.01 216.137
L480.456 322.413
L480.902 310.74
L481.349 293.639
L481.795 322.845
L482.242 321.906
L482.688 323.203
L483.134 304.363
L483.581 314.472
L484.027 321.999
L484.474 320.27
L484.92 322.831
L485.366 322.375
L485.813 314.187
L486.259 299.485
L486.706 314.431
L487.152 323.424
L487.598 322.83
L488.045 323.331
L488.491 321.855
L488.938 318.689
L489.384 323.788
L489.83 314.473
L490.277 324.043
L490.723 323.89
L491.17 322.918
L491.616 308.173
L492.062 314.809
L492.509 306.426
L492.955 324.019
L493.402 314.77
L493.848 323.744
L494.294 314.484
L494.741 322.633
L495.187 322.676
L495.634 314.177
L496.08 321.866
L496.526 313.936
L496.973 313.467
L497.419 322.456
L497.866 323.056
L498.312 312.392
L498.758 323.327
L499.205 321.891
L499.651 319.115
L500.098 323.431
L500.544 323.191
L500.99 303.689
L501.437 322.885
L501.883 305.647
L502.776 322.87
L503.222 320.336
L503.669 322.99
L504.115 322.663
L504.562 312.609
L505.008 314.711
L505.454 322.534
L505.901 321.65
L506.347 304.878
L506.794 305.981
L507.24 323.025
L508.133 322.227
L508.579 297.079
L509.026 322.844
L509.472 323.837
L509.918 313.192
L510.365 323.266
L510.811 314.969
L511.258 323.837
L511.704 323.321
L512.15 299.031
L512.597 323.151
L513.043 323.161
L513.49 323.463
L513.936 324.324
L514.382 314.62
L514.829 322.11
L515.275 323.852
L515.722 323.843
L516.168 306.218
L516.614 305.823
L517.061 323.081
L517.507 323.118
L517.954 314.168
L517.954 314.168" style="fill:none;opacity:0.7;stroke:#008000;"/>
   </g>
   <g id="line2d_3">
    <path clip-path="url(#p7ff5b81e1d)" d="
M72 274.95
L72.4464 200.902
L72.8928 279.558
L73.3392 263.107
L73.7856 279.741
L74.6784 280.259
L75.1248 274.576
L75.5712 319.208
L76.0176 278.44
L76.464 279.596
L76.9104 280.166
L77.3568 268.754
L77.8032 266.581
L78.2496 319.667
L78.696 321.546
L79.1424 279.63
L79.5888 280.336
L80.0352 280.185
L80.928 280.605
L81.3744 280.139
L81.8208 280.987
L82.2672 320.627
L82.7136 259.053
L83.16 319.936
L83.6064 265.897
L84.0528 320.457
L84.4992 276.972
L84.9456 280.211
L85.392 280.429
L85.8384 321.222
L86.2848 320.867
L86.7312 279.704
L87.1776 320.738
L87.624 281.37
L88.0704 278.21
L88.5168 317.315
L88.9632 320.259
L89.4096 260.026
L89.856 278.574
L90.3024 320.843
L90.7488 319.792
L91.1952 279.609
L91.6416 320.457
L92.088 260.06
L92.5344 302.363
L92.9808 305.773
L93.4272 318.542
L93.8736 318.568
L94.32 305.715
L94.7664 302.714
L95.2128 320.956
L95.6592 320.119
L96.1056 267.61
L96.552 272.339
L96.9984 317.806
L97.4448 318.306
L97.8912 302.949
L98.3376 320.866
L98.784 277.724
L99.2304 280.016
L99.6768 316.958
L100.123 320.145
L100.57 320.505
L101.016 318.102
L101.462 278.81
L101.909 274.075
L102.355 319.59
L102.802 319.289
L103.248 317.76
L103.694 319.996
L104.141 318.609
L104.587 319.768
L105.034 320.01
L105.48 317.707
L105.926 320.36
L106.373 321.101
L106.819 320.862
L107.266 318.203
L107.712 320.268
L108.158 279.264
L108.605 321.061
L109.051 321.554
L109.498 320.784
L109.944 320.967
L110.39 256.728
L110.837 318.966
L111.283 307.857
L111.73 319.899
L112.176 318.588
L112.622 269.514
L113.069 303.414
L113.515 320.549
L113.962 320.761
L114.408 320.366
L114.854 283.631
L115.301 279.788
L115.747 320.536
L116.194 274.548
L116.64 302.892
L117.086 305.164
L117.533 303.372
L117.979 274.324
L118.426 320.044
L118.872 303.741
L119.318 276.043
L119.765 320.604
L120.211 320.432
L121.104 320.537
L121.55 321.256
L121.997 321.124
L122.443 320.481
L122.89 320.899
L123.336 320.658
L123.782 304.341
L124.229 319.754
L124.675 319.289
L125.122 320.366
L125.568 319.979
L126.461 321.198
L126.907 319.49
L127.354 320.19
L127.8 318.725
L128.246 320.536
L128.693 319.674
L129.586 321.201
L130.032 308.391
L130.478 320.371
L130.925 320.695
L131.371 320.374
L131.818 320.49
L132.264 319.663
L132.71 320.41
L133.157 320.623
L133.603 321.097
L134.05 312.093
L134.496 319.297
L134.942 320.564
L135.389 320.121
L135.835 320.554
L136.282 279.605
L136.728 319.391
L137.174 319.783
L137.621 312.021
L138.067 320.421
L138.96 289.256
L139.406 320.345
L139.853 318.668
L140.299 320.23
L140.746 312.101
L141.192 312.675
L141.638 320.435
L142.085 311.806
L142.531 313.107
L142.978 312.329
L143.424 320.462
L143.87 320.699
L144.317 279.54
L144.763 307.62
L145.21 320.737
L145.656 311.731
L146.102 312.465
L146.549 185.593
L146.995 143.54
L147.442 319.276
L147.888 319.006
L148.334 307.741
L148.781 319.522
L149.227 309.786
L149.674 310.138
L150.12 319.544
L150.566 319.006
L151.013 294.102
L151.459 320.295
L151.906 319.013
L152.352 311.355
L152.798 278.914
L153.245 319.504
L153.691 319.305
L154.138 319.337
L155.03 303.306
L155.923 319.117
L156.37 319.513
L156.816 318.597
L157.262 302.292
L157.709 319.821
L158.155 303.088
L158.602 302.935
L159.048 320.822
L159.494 320.201
L159.941 308.359
L160.387 319.855
L160.834 320.5
L161.28 318.429
L161.726 317.065
L162.173 303.168
L162.619 320.797
L163.066 307.127
L163.512 320.599
L163.958 278.356
L164.405 311.107
L164.851 278.831
L165.298 319.913
L165.744 301.836
L166.19 318.862
L167.083 320.49
L167.53 320.66
L167.976 312.251
L168.422 301.349
L169.315 320.537
L169.762 319.961
L170.208 299.034
L170.654 319.346
L171.101 319.925
L171.547 320.983
L171.994 318.545
L172.44 310.755
L172.886 309.966
L173.333 312.318
L173.779 311.086
L174.226 289.558
L174.672 312.952
L175.118 318.259
L175.565 320.621
L176.011 320.402
L176.458 312.286
L176.904 320.544
L177.35 320.124
L177.797 320.764
L178.243 317.678
L178.69 319.564
L179.136 311.745
L179.582 320.736
L180.029 318.926
L180.475 320.75
L180.922 320.331
L181.368 320.797
L181.814 321.057
L182.261 321.01
L182.707 312.526
L183.154 312.741
L183.6 317.947
L184.046 320.321
L184.493 320.531
L184.939 303.907
L185.386 321.087
L185.832 302.602
L186.278 309.418
L186.725 303.279
L187.171 320.549
L187.618 321.158
L188.064 320.107
L188.51 320.738
L188.957 321.14
L189.403 288.86
L189.85 319.768
L190.296 318.801
L190.742 319.185
L191.189 295.555
L191.635 319.21
L192.082 295.656
L192.528 320.17
L192.974 320.688
L193.421 319.274
L193.867 317.365
L194.314 320.16
L194.76 309.386
L195.206 311.431
L195.653 321.021
L196.099 320.891
L196.546 321.034
L196.992 308.366
L197.438 311.117
L197.885 320.883
L198.331 320.17
L199.224 320.638
L199.67 307.939
L200.117 320.532
L200.563 320.533
L201.01 319.609
L201.456 320.433
L201.902 311.998
L202.349 320.931
L202.795 320.39
L203.242 320.589
L203.688 319.289
L204.134 319.769
L204.581 319.461
L205.027 320.391
L205.474 312.221
L205.92 312.331
L206.366 320.637
L206.813 319.952
L207.259 320.566
L207.706 320.487
L208.152 312.01
L208.598 295.298
L209.045 319.16
L209.491 307.031
L209.938 303.295
L210.384 320.575
L210.83 320.502
L211.723 319.811
L212.17 319.258
L212.616 319.661
L213.062 305.915
L213.509 301.965
L213.955 318.354
L214.402 318.48
L214.848 318.91
L215.294 304.433
L215.741 318.457
L216.187 305.525
L216.634 319.921
L217.08 320.672
L217.526 312.234
L217.973 320.241
L218.419 308.2
L218.866 320.587
L219.312 311.865
L219.758 309.388
L220.205 320.178
L220.651 320.415
L221.098 319.932
L221.544 320.495
L221.99 311.472
L222.437 319.671
L222.883 320.286
L223.33 321.413
L223.776 312.224
L224.222 308.073
L224.669 320.406
L225.115 312.053
L225.562 312.397
L226.008 295.004
L226.454 319.328
L226.901 319.268
L227.347 318.834
L227.794 310.545
L228.24 320.018
L228.686 320.07
L229.133 318.776
L229.579 310.994
L230.026 319.272
L230.472 319.691
L230.918 319.299
L231.365 319.362
L231.811 318.871
L232.258 320.034
L233.15 319.228
L233.597 319.639
L234.043 320.272
L234.49 319.67
L234.936 318.399
L235.382 200.5
L235.829 276.287
L236.275 318.958
L236.722 311.163
L237.168 319.552
L237.614 319.18
L238.061 309.89
L238.507 308.449
L238.954 318.396
L239.4 319.112
L239.846 303.384
L240.293 319.015
L240.739 316.091
L241.186 319.355
L241.632 319.327
L242.078 318.585
L242.525 319.734
L242.971 319.286
L243.418 319.79
L243.864 319.772
L244.31 318.837
L244.757 309.674
L245.203 311.292
L245.65 318.634
L246.096 320.155
L246.542 316.63
L246.989 319.765
L247.435 312.351
L247.882 320.008
L248.328 319.643
L248.774 320.441
L249.221 320.086
L249.667 312.007
L250.114 319.684
L250.56 320.658
L251.006 312.194
L251.453 319.981
L251.899 311.308
L252.346 318.435
L252.792 308.111
L253.238 320.483
L253.685 302.697
L254.131 319.369
L254.578 311.118
L255.024 319.487
L255.47 319.974
L255.917 319.061
L256.363 320.331
L256.81 320.954
L257.256 311.061
L257.702 321.27
L258.149 305.661
L258.595 311.97
L259.042 303.809
L259.488 304.076
L259.934 320.848
L260.381 319.785
L260.827 311.251
L261.274 317.764
L261.72 303.949
L262.166 319.809
L262.613 318.704
L263.059 319.184
L263.506 311.32
L263.952 318.844
L264.398 319.596
L264.845 319.643
L265.291 320.968
L265.738 319.424
L266.184 319.526
L266.63 301.346
L267.077 311.852
L267.523 319.489
L267.97 302.264
L268.416 308.663
L268.862 320.567
L269.309 309.705
L269.755 310.937
L270.202 310.695
L270.648 319.172
L271.094 320.816
L271.541 320.544
L271.987 310.855
L272.434 319.361
L272.88 319.872
L273.326 303.951
L273.773 319.369
L274.219 310.525
L274.666 319.418
L275.112 320.499
L275.558 311.447
L276.005 320.78
L276.451 312.22
L276.898 311.879
L277.344 312.369
L277.79 320.38
L278.237 319.76
L278.683 320.707
L279.13 320.807
L279.576 320.658
L280.022 320.993
L280.469 320.21
L280.915 320.7
L281.362 304.071
L281.808 308.861
L282.254 320.583
L282.701 311.62
L283.147 319.887
L283.594 312.079
L284.04 320.667
L284.486 320.881
L284.933 312.548
L285.379 320.167
L285.826 311.221
L286.272 321.123
L286.718 317.59
L287.165 317.279
L287.611 319.533
L288.058 310.225
L288.504 319.969
L288.95 320.487
L289.397 319.628
L289.843 320.141
L290.29 312.389
L290.736 320.526
L291.182 303.62
L292.075 319.917
L292.522 319.579
L292.968 295.087
L293.414 320.044
L293.861 320.088
L294.307 312.929
L294.754 321.11
L295.2 320.142
L295.646 307.453
L296.093 319.556
L296.539 317.795
L296.986 319.786
L297.432 286.46
L297.878 304.503
L298.325 312.392
L298.771 310.311
L299.218 312.787
L299.664 302.406
L300.11 320.357
L300.557 320.355
L301.003 321.477
L301.45 320.825
L301.896 320.818
L302.342 320.07
L302.789 318.96
L303.235 310.776
L303.682 320.087
L304.128 309.249
L304.574 310.053
L305.021 320.783
L305.467 319.982
L305.914 305.247
L306.36 319.714
L306.806 320.056
L307.253 320.58
L307.699 305.233
L308.146 319.684
L308.592 303.808
L309.038 320.204
L309.485 319.006
L309.931 320.067
L310.378 308.461
L310.824 320.029
L311.27 320.923
L311.717 320.66
L312.163 310.558
L312.61 313.27
L313.056 320.36
L313.502 320.874
L313.949 317.545
L314.395 295.686
L314.842 312.004
L315.288 319.334
L315.734 320.555
L316.181 312.197
L316.627 320.647
L317.074 311.682
L317.52 317.306
L317.966 319.209
L318.413 311.955
L318.859 320.688
L319.306 318.089
L319.752 310.524
L320.198 313.006
L320.645 307.693
L321.091 304.712
L321.538 310.659
L321.984 319.893
L322.43 320.386
L322.877 317.675
L323.323 298.04
L323.77 318.855
L324.216 319.667
L324.662 319.952
L325.109 319.348
L325.555 312.313
L326.002 320.555
L326.448 320.355
L326.894 310.879
L327.787 312.305
L328.234 320.581
L328.68 316.991
L329.126 319.316
L329.573 321.025
L330.019 320.978
L330.466 318.208
L330.912 318.847
L331.358 319.24
L331.805 320.509
L332.251 320.655
L332.698 311.396
L333.144 308.274
L333.59 320.377
L334.037 306.551
L334.483 319.028
L334.93 319.45
L335.376 320.895
L335.822 320.644
L336.269 320.045
L336.715 302.167
L337.162 317.667
L337.608 318.459
L338.054 319.818
L338.501 312.428
L338.947 320.037
L339.394 311.327
L339.84 312.305
L340.286 307.276
L340.733 311.174
L341.179 320.891
L341.626 319.99
L342.072 320.838
L342.518 319.561
L342.965 320.007
L343.411 319.948
L344.304 304.345
L344.75 320.189
L345.197 302.893
L345.643 319.35
L346.09 311.499
L346.536 320.112
L346.982 311.454
L347.429 320.266
L347.875 320.42
L348.322 311.231
L348.768 318.314
L349.214 293.247
L349.661 318.511
L350.107 318.92
L350.554 319.596
L351 319.858
L351.446 313.117
L351.893 302.788
L352.339 318.415
L352.786 307.291
L353.232 319.427
L353.678 318.825
L354.125 320.014
L354.571 319.333
L355.018 319.343
L355.464 311.657
L355.91 319.196
L356.357 312.351
L356.803 312.118
L357.25 318.676
L357.696 312.328
L358.142 319.597
L358.589 320.342
L359.035 288.534
L359.482 319.943
L359.928 312.307
L360.374 320.045
L360.821 319.157
L361.267 320.201
L361.714 319.964
L362.606 320.44
L363.053 299.911
L363.499 320.093
L363.946 319.786
L364.392 312.182
L364.838 309.455
L365.285 320.434
L365.731 320.303
L366.178 308.867
L366.624 310.001
L367.07 311.669
L367.517 320.666
L367.963 320.015
L368.41 320.276
L368.856 311.427
L369.302 318.837
L369.749 319.633
L370.195 319.966
L370.642 320.514
L371.088 320.403
L371.534 311.894
L371.981 320.334
L372.427 318.283
L372.874 319.845
L373.32 303.068
L373.766 308.706
L374.213 319.655
L374.659 319.552
L375.106 319.228
L375.552 321.189
L375.998 311.46
L376.445 321.177
L376.891 311.6
L377.338 320.167
L377.784 311.043
L378.23 319.776
L378.677 304.399
L379.123 320.424
L379.57 319.581
L380.016 319.374
L380.462 305.712
L380.909 317.297
L381.355 319.198
L381.802 310.6
L382.248 320.111
L382.694 312.455
L383.141 311.603
L383.587 312.057
L384.034 317.302
L384.48 319.835
L384.926 318.694
L385.373 320.093
L385.819 308.535
L386.266 319.144
L386.712 318.903
L387.158 310.263
L387.605 319.627
L388.051 320.296
L388.498 312.292
L388.944 320.408
L389.39 320.437
L389.837 317.491
L390.283 294.786
L390.73 305.014
L391.176 319.56
L391.622 311.403
L392.069 316.882
L392.515 318.909
L392.962 205.327
L393.408 310.348
L393.854 319.86
L394.301 318.233
L394.747 318.681
L395.194 308.771
L395.64 319.542
L396.086 319.427
L396.533 317.215
L396.979 293.231
L397.426 318.997
L397.872 319.404
L398.318 319.322
L398.765 319.916
L399.211 319.005
L400.104 319.07
L400.55 310.867
L400.997 319.196
L401.443 319.041
L401.89 309.278
L402.336 317.817
L402.782 320.667
L403.229 320.618
L403.675 318.568
L404.122 320.746
L404.568 320.994
L405.014 320.414
L405.461 317.131
L405.907 320.58
L406.354 320.729
L406.8 318.968
L407.246 311.187
L407.693 320.339
L408.139 312.35
L408.586 309.239
L409.032 312.531
L409.478 320.15
L409.925 295.123
L410.371 311.327
L410.818 319.929
L411.264 319.6
L411.71 311.351
L412.157 319.821
L412.603 318.848
L413.05 320.543
L413.496 318.413
L413.942 311.229
L414.389 311.812
L414.835 311.696
L415.282 319.477
L415.728 318.584
L416.174 308.349
L416.621 319.547
L417.067 302.357
L417.514 319.105
L417.96 318.532
L418.406 319.001
L418.853 310.908
L419.299 319.068
L419.746 320.003
L420.192 309.128
L420.638 271.515
L421.085 312.106
L421.531 320.3
L421.978 303.451
L422.424 311.68
L422.87 316.768
L423.317 319.605
L423.763 318.815
L424.21 319.811
L424.656 318.175
L425.102 320.21
L425.549 319.809
L425.995 301.776
L426.442 301.039
L426.888 318.838
L427.334 320.38
L427.781 320.152
L428.227 310.749
L428.674 310.462
L429.12 318.286
L430.013 319.7
L430.459 319.244
L430.906 304.699
L431.352 302.426
L431.798 320.204
L432.691 321.187
L433.138 308.492
L433.584 311.537
L434.03 295.173
L434.477 321.362
L434.923 312.458
L435.37 320.195
L435.816 320.856
L436.262 304.329
L436.709 321.211
L437.155 319.07
L437.602 309.578
L438.048 320.115
L438.494 320.454
L438.941 321.127
L439.387 320.576
L439.834 320.913
L440.28 302.831
L440.726 320.337
L441.173 312.032
L441.619 320.079
L442.066 311.649
L442.512 320.698
L443.405 319.893
L443.851 313.137
L444.298 312.776
L444.744 320.618
L445.637 320.149
L446.083 312.213
L446.53 309.155
L446.976 320.065
L447.422 312.133
L447.869 321.363
L448.315 321.898
L448.762 320.667
L449.208 312.463
L449.654 317.703
L450.101 320.506
L450.547 137.454
L450.994 141.595
L451.44 318.676
L451.886 310.878
L452.333 311.318
L452.779 320.602
L453.226 317.698
L453.672 320.341
L454.118 312.191
L454.565 320.032
L455.011 294.043
L455.458 318.84
L455.904 318.308
L456.35 319.496
L456.797 319.397
L457.243 318.873
L457.69 319.236
L458.136 311.45
L458.582 312.691
L459.029 320.063
L459.922 321.305
L460.368 320.707
L460.814 318.23
L461.261 319.125
L461.707 310.388
L462.154 318.77
L462.6 302.841
L463.046 319.256
L463.493 302.266
L463.939 319.746
L464.386 318.756
L465.278 319.933
L466.171 319.543
L466.618 319.131
L467.064 319.242
L467.51 294.52
L467.957 303.044
L468.403 303.421
L468.85 320.847
L469.296 321.556
L469.742 309.185
L470.189 320.009
L470.635 321.172
L471.082 319.864
L471.528 321.022
L471.974 321.011
L472.421 311.973
L472.867 320.305
L473.314 308.968
L473.76 320.545
L474.206 321.174
L474.653 303.104
L475.099 320.389
L475.546 308.957
L475.992 311.939
L476.438 312.657
L476.885 312.592
L477.331 312.654
L477.778 321.248
L478.224 317.788
L478.67 318.85
L479.117 319.103
L479.563 309.287
L480.01 320.958
L480.456 312.425
L480.902 289.665
L481.349 312.913
L481.795 312.134
L482.242 320.904
L482.688 320.135
L483.134 320.616
L483.581 320.115
L484.027 312.283
L484.474 317.413
L484.92 311.814
L485.366 320.611
L485.813 309.898
L486.259 320.921
L486.706 295.235
L487.152 312.213
L487.598 320.882
L488.045 319.374
L488.491 320.514
L488.938 319.917
L489.384 320.023
L489.83 319.867
L490.723 321.277
L491.17 312.302
L491.616 321.167
L492.062 303.189
L492.509 319.729
L492.955 319.023
L493.402 319.638
L493.848 319.769
L494.294 318.934
L494.741 308.002
L495.187 311.267
L495.634 310.765
L496.08 312.011
L496.526 319.67
L496.973 319.193
L497.419 320.584
L497.866 320.013
L498.312 320.159
L498.758 319.99
L499.205 317.392
L499.651 318.433
L500.544 319.299
L500.99 318.263
L501.437 319.779
L502.33 293.775
L502.776 309.827
L503.222 320.09
L503.669 317.997
L504.115 310.79
L504.562 319.13
L505.008 300.528
L505.454 304.406
L505.901 318.907
L506.347 319.347
L506.794 309.406
L507.24 312.187
L508.133 320.345
L508.579 303.514
L509.026 319.675
L509.472 319.531
L509.918 319.979
L510.365 317.9
L510.811 294.1
L511.258 320.241
L511.704 311.15
L512.15 319.745
L512.597 320.916
L513.043 319.752
L513.49 320.972
L513.936 320.045
L514.382 320.567
L514.829 320.822
L515.275 304.488
L515.722 319.291
L516.168 319.836
L516.614 320.092
L517.061 321.779
L517.507 311.762
L517.954 312.217
L517.954 312.217" style="fill:none;opacity:0.5;stroke:#0000ff;"/>
   </g>
   <g id="matplotlib.axis_1">
    <g id="xtick_1">
     <g id="line2d_4">
      <path clip-path="url(#p7ff5b81e1d)" d="
M72 388.8
L72 43.2" style="fill:none;stroke:#000000;stroke-dasharray:1.000000,3.000000;stroke-dashoffset:0.0;stroke-linecap:butt;stroke-width:0.5;"/>
     </g>
     <g id="line2d_5">
      <defs>
       <path d="
M0 0
L0 -4" id="m0012dd4eef" style="stroke:#000000;stroke-linecap:butt;stroke-width:0.5;"/>
      </defs>
      <g>
       <use style="stroke:#000000;stroke-linecap:butt;stroke-width:0.5;" x="72.0" xlink:href="#m0012dd4eef" y="388.8"/>
      </g>
     </g>
     <g id="line2d_6">
      <defs>
       <path d="
M0 0
L0 4" id="m476344969c" style="stroke:#000000;stroke-linecap:butt;stroke-width:0.5;"/>
      </defs>
      <g>
       <use style="stroke:#000000;stroke-linecap:butt;stroke-width:0.5;" x="72.0" xlink:href="#m476344969c" y="43.2"/>
      </g>
     </g>
     <g id="text_1">
      <!-- 0 -->
      <defs>
       <path d="
M31.7812 66.4062
Q24.1719 66.4062 20.3281 58.9062
Q16.5 51.4219 16.5 36.375
Q16.5 21.3906 20.3281 13.8906
Q24.1719 6.39062 31.7812 6.39062
Q39.4531 6.39062 43.2812 13.8906
Q47.125 21.3906 47.125 36.375
Q47.125 51.4219 43.2812 58.9062
Q39.4531 66.4062 31.7812 66.4062
M31.7812 74.2188
Q44.0469 74.2188 50.5156 64.5156
Q56.9844 54.8281 56.9844 36.375
Q56.9844 17.9688 50.5156 8.26562
Q44.0469 -1.42188 31.7812 -1.42188
Q19.5312 -1.42188 13.0625 8.26562
Q6.59375 17.9688 6.59375 36.375
Q6.59375 54.8281 13.0625 64.5156
Q19.5312 74.2188 31.7812 74.2188" id="BitstreamVeraSans-Roman-30"/>
      </defs>
      <g transform="translate(68.9765625 401.70625)scale(0.12 -0.12)">
       <use xlink:href="#BitstreamVeraSans-Roman-30"/>
      </g>
     </g>
    </g>
    <g id="xtick_2">
     <g id="line2d_7">
      <path clip-path="url(#p7ff5b81e1d)" d="
M116.64 388.8
L116.64 43.2" style="fill:none;stroke:#000000;stroke-dasharray:1.000000,3.000000;stroke-dashoffset:0.0;stroke-linecap:butt;stroke-width:0.5;"/>
     </g>
     <g id="line2d_8">
      <g>
       <use style="stroke:#000000;stroke-linecap:butt;stroke-width:0.5;" x="116.64" xlink:href="#m0012dd4eef" y="388.8"/>
      </g>
     </g>
     <g id="line2d_9">
      <g>
       <use style="stroke:#000000;stroke-linecap:butt;stroke-width:0.5;" x="116.64" xlink:href="#m476344969c" y="43.2"/>
      </g>
     </g>
     <g id="text_2">
      <!-- 100 -->
      <defs>
       <path d="
M12.4062 8.29688
L28.5156 8.29688
L28.5156 63.9219
L10.9844 60.4062
L10.9844 69.3906
L28.4219 72.9062
L38.2812 72.9062
L38.2812 8.29688
L54.3906 8.29688
L54.3906 0
L12.4062 0
z
" id="BitstreamVeraSans-Roman-31"/>
      </defs>
      <g transform="translate(106.245 401.70625)scale(0.12 -0.12)">
       <use xlink:href="#BitstreamVeraSans-Roman-31"/>
       <use x="63.623046875" xlink:href="#BitstreamVeraSans-Roman-30"/>
       <use x="127.24609375" xlink:href="#BitstreamVeraSans-Roman-30"/>
      </g>
     </g>
    </g>
    <g id="xtick_3">
     <g id="line2d_10">
      <path clip-path="url(#p7ff5b81e1d)" d="
M161.28 388.8
L161.28 43.2" style="fill:none;stroke:#000000;stroke-dasharray:1.000000,3.000000;stroke-dashoffset:0.0;stroke-linecap:butt;stroke-width:0.5;"/>
     </g>
     <g id="line2d_11">
      <g>
       <use style="stroke:#000000;stroke-linecap:butt;stroke-width:0.5;" x="161.28" xlink:href="#m0012dd4eef" y="388.8"/>
      </g>
     </g>
     <g id="line2d_12">
      <g>
       <use style="stroke:#000000;stroke-linecap:butt;stroke-width:0.5;" x="161.28" xlink:href="#m476344969c" y="43.2"/>
      </g>
     </g>
     <g id="text_3">
      <!-- 200 -->
      <defs>
       <path d="
M19.1875 8.29688
L53.6094 8.29688
L53.6094 0
L7.32812 0
L7.32812 8.29688
Q12.9375 14.1094 22.625 23.8906
Q32.3281 33.6875 34.8125 36.5312
Q39.5469 41.8438 41.4219 45.5312
Q43.3125 49.2188 43.3125 52.7812
Q43.3125 58.5938 39.2344 62.25
Q35.1562 65.9219 28.6094 65.9219
Q23.9688 65.9219 18.8125 64.3125
Q13.6719 62.7031 7.8125 59.4219
L7.8125 69.3906
Q13.7656 71.7812 18.9375 73
Q24.125 74.2188 28.4219 74.2188
Q39.75 74.2188 46.4844 68.5469
Q53.2188 62.8906 53.2188 53.4219
Q53.2188 48.9219 51.5312 44.8906
Q49.8594 40.875 45.4062 35.4062
Q44.1875 33.9844 37.6406 27.2188
Q31.1094 20.4531 19.1875 8.29688" id="BitstreamVeraSans-Roman-32"/>
      </defs>
      <g transform="translate(150.665625 401.70625)scale(0.12 -0.12)">
       <use xlink:href="#BitstreamVeraSans-Roman-32"/>
       <use x="63.623046875" xlink:href="#BitstreamVeraSans-Roman-30"/>
       <use x="127.24609375" xlink:href="#BitstreamVeraSans-Roman-30"/>
      </g>
     </g>
    </g>
    <g id="xtick_4">
     <g id="line2d_13">
      <path clip-path="url(#p7ff5b81e1d)" d="
M205.92 388.8
L205.92 43.2" style="fill:none;stroke:#000000;stroke-dasharray:1.000000,3.000000;stroke-dashoffset:0.0;stroke-linecap:butt;stroke-width:0.5;"/>
     </g>
     <g id="line2d_14">
      <g>
       <use style="stroke:#000000;stroke-linecap:butt;stroke-width:0.5;" x="205.92" xlink:href="#m0012dd4eef" y="388.8"/>
      </g>
     </g>
     <g id="line2d_15">
      <g>
       <use style="stroke:#000000;stroke-linecap:butt;stroke-width:0.5;" x="205.92" xlink:href="#m476344969c" y="43.2"/>
      </g>
     </g>
     <g id="text_4">
      <!-- 300 -->
      <defs>
       <path d="
M40.5781 39.3125
Q47.6562 37.7969 51.625 33
Q55.6094 28.2188 55.6094 21.1875
Q55.6094 10.4062 48.1875 4.48438
Q40.7656 -1.42188 27.0938 -1.42188
Q22.5156 -1.42188 17.6562 -0.515625
Q12.7969 0.390625 7.625 2.20312
L7.625 11.7188
Q11.7188 9.32812 16.5938 8.10938
Q21.4844 6.89062 26.8125 6.89062
Q36.0781 6.89062 40.9375 10.5469
Q45.7969 14.2031 45.7969 21.1875
Q45.7969 27.6406 41.2812 31.2656
Q36.7656 34.9062 28.7188 34.9062
L20.2188 34.9062
L20.2188 43.0156
L29.1094 43.0156
Q36.375 43.0156 40.2344 45.9219
Q44.0938 48.8281 44.0938 54.2969
Q44.0938 59.9062 40.1094 62.9062
Q36.1406 65.9219 28.7188 65.9219
Q24.6562 65.9219 20.0156 65.0312
Q15.375 64.1562 9.8125 62.3125
L9.8125 71.0938
Q15.4375 72.6562 20.3438 73.4375
Q25.25 74.2188 29.5938 74.2188
Q40.8281 74.2188 47.3594 69.1094
Q53.9062 64.0156 53.9062 55.3281
Q53.9062 49.2656 50.4375 45.0938
Q46.9688 40.9219 40.5781 39.3125" id="BitstreamVeraSans-Roman-33"/>
      </defs>
      <g transform="translate(195.3234375 401.70625)scale(0.12 -0.12)">
       <use xlink:href="#BitstreamVeraSans-Roman-33"/>
       <use x="63.623046875" xlink:href="#BitstreamVeraSans-Roman-30"/>
       <use x="127.24609375" xlink:href="#BitstreamVeraSans-Roman-30"/>
      </g>
     </g>
    </g>
    <g id="xtick_5">
     <g id="line2d_16">
      <path clip-path="url(#p7ff5b81e1d)" d="
M250.56 388.8
L250.56 43.2" style="fill:none;stroke:#000000;stroke-dasharray:1.000000,3.000000;stroke-dashoffset:0.0;stroke-linecap:butt;stroke-width:0.5;"/>
     </g>
     <g id="line2d_17">
      <g>
       <use style="stroke:#000000;stroke-linecap:butt;stroke-width:0.5;" x="250.56" xlink:href="#m0012dd4eef" y="388.8"/>
      </g>
     </g>
     <g id="line2d_18">
      <g>
       <use style="stroke:#000000;stroke-linecap:butt;stroke-width:0.5;" x="250.56" xlink:href="#m476344969c" y="43.2"/>
      </g>
     </g>
     <g id="text_5">
      <!-- 400 -->
      <defs>
       <path d="
M37.7969 64.3125
L12.8906 25.3906
L37.7969 25.3906
z

M35.2031 72.9062
L47.6094 72.9062
L47.6094 25.3906
L58.0156 25.3906
L58.0156 17.1875
L47.6094 17.1875
L47.6094 0
L37.7969 0
L37.7969 17.1875
L4.89062 17.1875
L4.89062 26.7031
z
" id="BitstreamVeraSans-Roman-34"/>
      </defs>
      <g transform="translate(239.799375 401.70625)scale(0.12 -0.12)">
       <use xlink:href="#BitstreamVeraSans-Roman-34"/>
       <use x="63.623046875" xlink:href="#BitstreamVeraSans-Roman-30"/>
       <use x="127.24609375" xlink:href="#BitstreamVeraSans-Roman-30"/>
      </g>
     </g>
    </g>
    <g id="xtick_6">
     <g id="line2d_19">
      <path clip-path="url(#p7ff5b81e1d)" d="
M295.2 388.8
L295.2 43.2" style="fill:none;stroke:#000000;stroke-dasharray:1.000000,3.000000;stroke-dashoffset:0.0;stroke-linecap:butt;stroke-width:0.5;"/>
     </g>
     <g id="line2d_20">
      <g>
       <use style="stroke:#000000;stroke-linecap:butt;stroke-width:0.5;" x="295.2" xlink:href="#m0012dd4eef" y="388.8"/>
      </g>
     </g>
     <g id="line2d_21">
      <g>
       <use style="stroke:#000000;stroke-linecap:butt;stroke-width:0.5;" x="295.2" xlink:href="#m476344969c" y="43.2"/>
      </g>
     </g>
     <g id="text_6">
      <!-- 500 -->
      <defs>
       <path d="
M10.7969 72.9062
L49.5156 72.9062
L49.5156 64.5938
L19.8281 64.5938
L19.8281 46.7344
Q21.9688 47.4688 24.1094 47.8281
Q26.2656 48.1875 28.4219 48.1875
Q40.625 48.1875 47.75 41.5
Q54.8906 34.8125 54.8906 23.3906
Q54.8906 11.625 47.5625 5.09375
Q40.2344 -1.42188 26.9062 -1.42188
Q22.3125 -1.42188 17.5469 -0.640625
Q12.7969 0.140625 7.71875 1.70312
L7.71875 11.625
Q12.1094 9.23438 16.7969 8.0625
Q21.4844 6.89062 26.7031 6.89062
Q35.1562 6.89062 40.0781 11.3281
Q45.0156 15.7656 45.0156 23.3906
Q45.0156 31 40.0781 35.4375
Q35.1562 39.8906 26.7031 39.8906
Q22.75 39.8906 18.8125 39.0156
Q14.8906 38.1406 10.7969 36.2812
z
" id="BitstreamVeraSans-Roman-35"/>
      </defs>
      <g transform="translate(284.6090625 401.70625)scale(0.12 -0.12)">
       <use xlink:href="#BitstreamVeraSans-Roman-35"/>
       <use x="63.623046875" xlink:href="#BitstreamVeraSans-Roman-30"/>
       <use x="127.24609375" xlink:href="#BitstreamVeraSans-Roman-30"/>
      </g>
     </g>
    </g>
    <g id="xtick_7">
     <g id="line2d_22">
      <path clip-path="url(#p7ff5b81e1d)" d="
M339.84 388.8
L339.84 43.2" style="fill:none;stroke:#000000;stroke-dasharray:1.000000,3.000000;stroke-dashoffset:0.0;stroke-linecap:butt;stroke-width:0.5;"/>
     </g>
     <g id="line2d_23">
      <g>
       <use style="stroke:#000000;stroke-linecap:butt;stroke-width:0.5;" x="339.84" xlink:href="#m0012dd4eef" y="388.8"/>
      </g>
     </g>
     <g id="line2d_24">
      <g>
       <use style="stroke:#000000;stroke-linecap:butt;stroke-width:0.5;" x="339.84" xlink:href="#m476344969c" y="43.2"/>
      </g>
     </g>
     <g id="text_7">
      <!-- 600 -->
      <defs>
       <path d="
M33.0156 40.375
Q26.375 40.375 22.4844 35.8281
Q18.6094 31.2969 18.6094 23.3906
Q18.6094 15.5312 22.4844 10.9531
Q26.375 6.39062 33.0156 6.39062
Q39.6562 6.39062 43.5312 10.9531
Q47.4062 15.5312 47.4062 23.3906
Q47.4062 31.2969 43.5312 35.8281
Q39.6562 40.375 33.0156 40.375
M52.5938 71.2969
L52.5938 62.3125
Q48.875 64.0625 45.0938 64.9844
Q41.3125 65.9219 37.5938 65.9219
Q27.8281 65.9219 22.6719 59.3281
Q17.5312 52.7344 16.7969 39.4062
Q19.6719 43.6562 24.0156 45.9219
Q28.375 48.1875 33.5938 48.1875
Q44.5781 48.1875 50.9531 41.5156
Q57.3281 34.8594 57.3281 23.3906
Q57.3281 12.1562 50.6875 5.35938
Q44.0469 -1.42188 33.0156 -1.42188
Q20.3594 -1.42188 13.6719 8.26562
Q6.98438 17.9688 6.98438 36.375
Q6.98438 53.6562 15.1875 63.9375
Q23.3906 74.2188 37.2031 74.2188
Q40.9219 74.2188 44.7031 73.4844
Q48.4844 72.75 52.5938 71.2969" id="BitstreamVeraSans-Roman-36"/>
      </defs>
      <g transform="translate(329.205 401.70625)scale(0.12 -0.12)">
       <use xlink:href="#BitstreamVeraSans-Roman-36"/>
       <use x="63.623046875" xlink:href="#BitstreamVeraSans-Roman-30"/>
       <use x="127.24609375" xlink:href="#BitstreamVeraSans-Roman-30"/>
      </g>
     </g>
    </g>
    <g id="xtick_8">
     <g id="line2d_25">
      <path clip-path="url(#p7ff5b81e1d)" d="
M384.48 388.8
L384.48 43.2" style="fill:none;stroke:#000000;stroke-dasharray:1.000000,3.000000;stroke-dashoffset:0.0;stroke-linecap:butt;stroke-width:0.5;"/>
     </g>
     <g id="line2d_26">
      <g>
       <use style="stroke:#000000;stroke-linecap:butt;stroke-width:0.5;" x="384.48" xlink:href="#m0012dd4eef" y="388.8"/>
      </g>
     </g>
     <g id="line2d_27">
      <g>
       <use style="stroke:#000000;stroke-linecap:butt;stroke-width:0.5;" x="384.48" xlink:href="#m476344969c" y="43.2"/>
      </g>
     </g>
     <g id="text_8">
      <!-- 700 -->
      <defs>
       <path d="
M8.20312 72.9062
L55.0781 72.9062
L55.0781 68.7031
L28.6094 0
L18.3125 0
L43.2188 64.5938
L8.20312 64.5938
z
" id="BitstreamVeraSans-Roman-37"/>
      </defs>
      <g transform="translate(373.918125 401.70625)scale(0.12 -0.12)">
       <use xlink:href="#BitstreamVeraSans-Roman-37"/>
       <use x="63.623046875" xlink:href="#BitstreamVeraSans-Roman-30"/>
       <use x="127.24609375" xlink:href="#BitstreamVeraSans-Roman-30"/>
      </g>
     </g>
    </g>
    <g id="xtick_9">
     <g id="line2d_28">
      <path clip-path="url(#p7ff5b81e1d)" d="
M429.12 388.8
L429.12 43.2" style="fill:none;stroke:#000000;stroke-dasharray:1.000000,3.000000;stroke-dashoffset:0.0;stroke-linecap:butt;stroke-width:0.5;"/>
     </g>
     <g id="line2d_29">
      <g>
       <use style="stroke:#000000;stroke-linecap:butt;stroke-width:0.5;" x="429.12" xlink:href="#m0012dd4eef" y="388.8"/>
      </g>
     </g>
     <g id="line2d_30">
      <g>
       <use style="stroke:#000000;stroke-linecap:butt;stroke-width:0.5;" x="429.12" xlink:href="#m476344969c" y="43.2"/>
      </g>
     </g>
     <g id="text_9">
      <!-- 800 -->
      <defs>
       <path d="
M31.7812 34.625
Q24.75 34.625 20.7188 30.8594
Q16.7031 27.0938 16.7031 20.5156
Q16.7031 13.9219 20.7188 10.1562
Q24.75 6.39062 31.7812 6.39062
Q38.8125 6.39062 42.8594 10.1719
Q46.9219 13.9688 46.9219 20.5156
Q46.9219 27.0938 42.8906 30.8594
Q38.875 34.625 31.7812 34.625
M21.9219 38.8125
Q15.5781 40.375 12.0312 44.7188
Q8.5 49.0781 8.5 55.3281
Q8.5 64.0625 14.7188 69.1406
Q20.9531 74.2188 31.7812 74.2188
Q42.6719 74.2188 48.875 69.1406
Q55.0781 64.0625 55.0781 55.3281
Q55.0781 49.0781 51.5312 44.7188
Q48 40.375 41.7031 38.8125
Q48.8281 37.1562 52.7969 32.3125
Q56.7812 27.4844 56.7812 20.5156
Q56.7812 9.90625 50.3125 4.23438
Q43.8438 -1.42188 31.7812 -1.42188
Q19.7344 -1.42188 13.25 4.23438
Q6.78125 9.90625 6.78125 20.5156
Q6.78125 27.4844 10.7812 32.3125
Q14.7969 37.1562 21.9219 38.8125
M18.3125 54.3906
Q18.3125 48.7344 21.8438 45.5625
Q25.3906 42.3906 31.7812 42.3906
Q38.1406 42.3906 41.7188 45.5625
Q45.3125 48.7344 45.3125 54.3906
Q45.3125 60.0625 41.7188 63.2344
Q38.1406 66.4062 31.7812 66.4062
Q25.3906 66.4062 21.8438 63.2344
Q18.3125 60.0625 18.3125 54.3906" id="BitstreamVeraSans-Roman-38"/>
      </defs>
      <g transform="translate(418.4728125 401.70625)scale(0.12 -0.12)">
       <use xlink:href="#BitstreamVeraSans-Roman-38"/>
       <use x="63.623046875" xlink:href="#BitstreamVeraSans-Roman-30"/>
       <use x="127.24609375" xlink:href="#BitstreamVeraSans-Roman-30"/>
      </g>
     </g>
    </g>
    <g id="xtick_10">
     <g id="line2d_31">
      <path clip-path="url(#p7ff5b81e1d)" d="
M473.76 388.8
L473.76 43.2" style="fill:none;stroke:#000000;stroke-dasharray:1.000000,3.000000;stroke-dashoffset:0.0;stroke-linecap:butt;stroke-width:0.5;"/>
     </g>
     <g id="line2d_32">
      <g>
       <use style="stroke:#000000;stroke-linecap:butt;stroke-width:0.5;" x="473.76" xlink:href="#m0012dd4eef" y="388.8"/>
      </g>
     </g>
     <g id="line2d_33">
      <g>
       <use style="stroke:#000000;stroke-linecap:butt;stroke-width:0.5;" x="473.76" xlink:href="#m476344969c" y="43.2"/>
      </g>
     </g>
     <g id="text_10">
      <!-- 900 -->
      <defs>
       <path d="
M10.9844 1.51562
L10.9844 10.5
Q14.7031 8.73438 18.5 7.8125
Q22.3125 6.89062 25.9844 6.89062
Q35.75 6.89062 40.8906 13.4531
Q46.0469 20.0156 46.7812 33.4062
Q43.9531 29.2031 39.5938 26.9531
Q35.25 24.7031 29.9844 24.7031
Q19.0469 24.7031 12.6719 31.3125
Q6.29688 37.9375 6.29688 49.4219
Q6.29688 60.6406 12.9375 67.4219
Q19.5781 74.2188 30.6094 74.2188
Q43.2656 74.2188 49.9219 64.5156
Q56.5938 54.8281 56.5938 36.375
Q56.5938 19.1406 48.4062 8.85938
Q40.2344 -1.42188 26.4219 -1.42188
Q22.7031 -1.42188 18.8906 -0.6875
Q15.0938 0.046875 10.9844 1.51562
M30.6094 32.4219
Q37.25 32.4219 41.125 36.9531
Q45.0156 41.5 45.0156 49.4219
Q45.0156 57.2812 41.125 61.8438
Q37.25 66.4062 30.6094 66.4062
Q23.9688 66.4062 20.0938 61.8438
Q16.2188 57.2812 16.2188 49.4219
Q16.2188 41.5 20.0938 36.9531
Q23.9688 32.4219 30.6094 32.4219" id="BitstreamVeraSans-Roman-39"/>
      </defs>
      <g transform="translate(463.08375 401.70625)scale(0.12 -0.12)">
       <use xlink:href="#BitstreamVeraSans-Roman-39"/>
       <use x="63.623046875" xlink:href="#BitstreamVeraSans-Roman-30"/>
       <use x="127.24609375" xlink:href="#BitstreamVeraSans-Roman-30"/>
      </g>
     </g>
    </g>
   </g>
   <g id="matplotlib.axis_2">
    <g id="ytick_1">
     <g id="line2d_34">
      <path clip-path="url(#p7ff5b81e1d)" d="
M72 388.8
L518.4 388.8" style="fill:none;stroke:#000000;stroke-dasharray:1.000000,3.000000;stroke-dashoffset:0.0;stroke-linecap:butt;stroke-width:0.5;"/>
     </g>
     <g id="line2d_35">
      <defs>
       <path d="
M0 0
L4 0" id="me8a85f7bf6" style="stroke:#000000;stroke-linecap:butt;stroke-width:0.5;"/>
      </defs>
      <g>
       <use style="stroke:#000000;stroke-linecap:butt;stroke-width:0.5;" x="72.0" xlink:href="#me8a85f7bf6" y="388.8"/>
      </g>
     </g>
     <g id="line2d_36">
      <defs>
       <path d="
M0 0
L-4 0" id="m1a32005dea" style="stroke:#000000;stroke-linecap:butt;stroke-width:0.5;"/>
      </defs>
      <g>
       <use style="stroke:#000000;stroke-linecap:butt;stroke-width:0.5;" x="518.4" xlink:href="#m1a32005dea" y="388.8"/>
      </g>
     </g>
     <g id="text_11">
      <!-- 0.000 -->
      <defs>
       <path d="
M10.6875 12.4062
L21 12.4062
L21 0
L10.6875 0
z
" id="BitstreamVeraSans-Roman-2e"/>
      </defs>
      <g transform="translate(35.234375 393.1678125)scale(0.12 -0.12)">
       <use xlink:href="#BitstreamVeraSans-Roman-30"/>
       <use x="63.623046875" xlink:href="#BitstreamVeraSans-Roman-2e"/>
       <use x="95.41015625" xlink:href="#BitstreamVeraSans-Roman-30"/>
       <use x="159.033203125" xlink:href="#BitstreamVeraSans-Roman-30"/>
       <use x="222.65625" xlink:href="#BitstreamVeraSans-Roman-30"/>
      </g>
     </g>
    </g>
    <g id="ytick_2">
     <g id="line2d_37">
      <path clip-path="url(#p7ff5b81e1d)" d="
M72 354.24
L518.4 354.24" style="fill:none;stroke:#000000;stroke-dasharray:1.000000,3.000000;stroke-dashoffset:0.0;stroke-linecap:butt;stroke-width:0.5;"/>
     </g>
     <g id="line2d_38">
      <g>
       <use style="stroke:#000000;stroke-linecap:butt;stroke-width:0.5;" x="72.0" xlink:href="#me8a85f7bf6" y="354.24"/>
      </g>
     </g>
     <g id="line2d_39">
      <g>
       <use style="stroke:#000000;stroke-linecap:butt;stroke-width:0.5;" x="518.4" xlink:href="#m1a32005dea" y="354.24"/>
      </g>
     </g>
     <g id="text_12">
      <!-- 0.002 -->
      <g transform="translate(35.639375 358.6078125)scale(0.12 -0.12)">
       <use xlink:href="#BitstreamVeraSans-Roman-30"/>
       <use x="63.623046875" xlink:href="#BitstreamVeraSans-Roman-2e"/>
       <use x="95.41015625" xlink:href="#BitstreamVeraSans-Roman-30"/>
       <use x="159.033203125" xlink:href="#BitstreamVeraSans-Roman-30"/>
       <use x="222.65625" xlink:href="#BitstreamVeraSans-Roman-32"/>
      </g>
     </g>
    </g>
    <g id="ytick_3">
     <g id="line2d_40">
      <path clip-path="url(#p7ff5b81e1d)" d="
M72 319.68
L518.4 319.68" style="fill:none;stroke:#000000;stroke-dasharray:1.000000,3.000000;stroke-dashoffset:0.0;stroke-linecap:butt;stroke-width:0.5;"/>
     </g>
     <g id="line2d_41">
      <g>
       <use style="stroke:#000000;stroke-linecap:butt;stroke-width:0.5;" x="72.0" xlink:href="#me8a85f7bf6" y="319.68"/>
      </g>
     </g>
     <g id="line2d_42">
      <g>
       <use style="stroke:#000000;stroke-linecap:butt;stroke-width:0.5;" x="518.4" xlink:href="#m1a32005dea" y="319.68"/>
      </g>
     </g>
     <g id="text_13">
      <!-- 0.004 -->
      <g transform="translate(35.110625 324.0478125)scale(0.12 -0.12)">
       <use xlink:href="#BitstreamVeraSans-Roman-30"/>
       <use x="63.623046875" xlink:href="#BitstreamVeraSans-Roman-2e"/>
       <use x="95.41015625" xlink:href="#BitstreamVeraSans-Roman-30"/>
       <use x="159.033203125" xlink:href="#BitstreamVeraSans-Roman-30"/>
       <use x="222.65625" xlink:href="#BitstreamVeraSans-Roman-34"/>
      </g>
     </g>
    </g>
    <g id="ytick_4">
     <g id="line2d_43">
      <path clip-path="url(#p7ff5b81e1d)" d="
M72 285.12
L518.4 285.12" style="fill:none;stroke:#000000;stroke-dasharray:1.000000,3.000000;stroke-dashoffset:0.0;stroke-linecap:butt;stroke-width:0.5;"/>
     </g>
     <g id="line2d_44">
      <g>
       <use style="stroke:#000000;stroke-linecap:butt;stroke-width:0.5;" x="72.0" xlink:href="#me8a85f7bf6" y="285.12"/>
      </g>
     </g>
     <g id="line2d_45">
      <g>
       <use style="stroke:#000000;stroke-linecap:butt;stroke-width:0.5;" x="518.4" xlink:href="#m1a32005dea" y="285.12"/>
      </g>
     </g>
     <g id="text_14">
      <!-- 0.006 -->
      <g transform="translate(35.193125 289.4878125)scale(0.12 -0.12)">
       <use xlink:href="#BitstreamVeraSans-Roman-30"/>
       <use x="63.623046875" xlink:href="#BitstreamVeraSans-Roman-2e"/>
       <use x="95.41015625" xlink:href="#BitstreamVeraSans-Roman-30"/>
       <use x="159.033203125" xlink:href="#BitstreamVeraSans-Roman-30"/>
       <use x="222.65625" xlink:href="#BitstreamVeraSans-Roman-36"/>
      </g>
     </g>
    </g>
    <g id="ytick_5">
     <g id="line2d_46">
      <path clip-path="url(#p7ff5b81e1d)" d="
M72 250.56
L518.4 250.56" style="fill:none;stroke:#000000;stroke-dasharray:1.000000,3.000000;stroke-dashoffset:0.0;stroke-linecap:butt;stroke-width:0.5;"/>
     </g>
     <g id="line2d_47">
      <g>
       <use style="stroke:#000000;stroke-linecap:butt;stroke-width:0.5;" x="72.0" xlink:href="#me8a85f7bf6" y="250.56"/>
      </g>
     </g>
     <g id="line2d_48">
      <g>
       <use style="stroke:#000000;stroke-linecap:butt;stroke-width:0.5;" x="518.4" xlink:href="#m1a32005dea" y="250.56"/>
      </g>
     </g>
     <g id="text_15">
      <!-- 0.008 -->
      <g transform="translate(35.25875 254.9278125)scale(0.12 -0.12)">
       <use xlink:href="#BitstreamVeraSans-Roman-30"/>
       <use x="63.623046875" xlink:href="#BitstreamVeraSans-Roman-2e"/>
       <use x="95.41015625" xlink:href="#BitstreamVeraSans-Roman-30"/>
       <use x="159.033203125" xlink:href="#BitstreamVeraSans-Roman-30"/>
       <use x="222.65625" xlink:href="#BitstreamVeraSans-Roman-38"/>
      </g>
     </g>
    </g>
    <g id="ytick_6">
     <g id="line2d_49">
      <path clip-path="url(#p7ff5b81e1d)" d="
M72 216
L518.4 216" style="fill:none;stroke:#000000;stroke-dasharray:1.000000,3.000000;stroke-dashoffset:0.0;stroke-linecap:butt;stroke-width:0.5;"/>
     </g>
     <g id="line2d_50">
      <g>
       <use style="stroke:#000000;stroke-linecap:butt;stroke-width:0.5;" x="72.0" xlink:href="#me8a85f7bf6" y="216.0"/>
      </g>
     </g>
     <g id="line2d_51">
      <g>
       <use style="stroke:#000000;stroke-linecap:butt;stroke-width:0.5;" x="518.4" xlink:href="#m1a32005dea" y="216.0"/>
      </g>
     </g>
     <g id="text_16">
      <!-- 0.010 -->
      <g transform="translate(35.234375 220.3678125)scale(0.12 -0.12)">
       <use xlink:href="#BitstreamVeraSans-Roman-30"/>
       <use x="63.623046875" xlink:href="#BitstreamVeraSans-Roman-2e"/>
       <use x="95.41015625" xlink:href="#BitstreamVeraSans-Roman-30"/>
       <use x="159.033203125" xlink:href="#BitstreamVeraSans-Roman-31"/>
       <use x="222.65625" xlink:href="#BitstreamVeraSans-Roman-30"/>
      </g>
     </g>
    </g>
    <g id="ytick_7">
     <g id="line2d_52">
      <path clip-path="url(#p7ff5b81e1d)" d="
M72 181.44
L518.4 181.44" style="fill:none;stroke:#000000;stroke-dasharray:1.000000,3.000000;stroke-dashoffset:0.0;stroke-linecap:butt;stroke-width:0.5;"/>
     </g>
     <g id="line2d_53">
      <g>
       <use style="stroke:#000000;stroke-linecap:butt;stroke-width:0.5;" x="72.0" xlink:href="#me8a85f7bf6" y="181.44"/>
      </g>
     </g>
     <g id="line2d_54">
      <g>
       <use style="stroke:#000000;stroke-linecap:butt;stroke-width:0.5;" x="518.4" xlink:href="#m1a32005dea" y="181.44"/>
      </g>
     </g>
     <g id="text_17">
      <!-- 0.012 -->
      <g transform="translate(35.639375 185.8078125)scale(0.12 -0.12)">
       <use xlink:href="#BitstreamVeraSans-Roman-30"/>
       <use x="63.623046875" xlink:href="#BitstreamVeraSans-Roman-2e"/>
       <use x="95.41015625" xlink:href="#BitstreamVeraSans-Roman-30"/>
       <use x="159.033203125" xlink:href="#BitstreamVeraSans-Roman-31"/>
       <use x="222.65625" xlink:href="#BitstreamVeraSans-Roman-32"/>
      </g>
     </g>
    </g>
    <g id="ytick_8">
     <g id="line2d_55">
      <path clip-path="url(#p7ff5b81e1d)" d="
M72 146.88
L518.4 146.88" style="fill:none;stroke:#000000;stroke-dasharray:1.000000,3.000000;stroke-dashoffset:0.0;stroke-linecap:butt;stroke-width:0.5;"/>
     </g>
     <g id="line2d_56">
      <g>
       <use style="stroke:#000000;stroke-linecap:butt;stroke-width:0.5;" x="72.0" xlink:href="#me8a85f7bf6" y="146.88"/>
      </g>
     </g>
     <g id="line2d_57">
      <g>
       <use style="stroke:#000000;stroke-linecap:butt;stroke-width:0.5;" x="518.4" xlink:href="#m1a32005dea" y="146.88"/>
      </g>
     </g>
     <g id="text_18">
      <!-- 0.014 -->
      <g transform="translate(35.110625 151.2478125)scale(0.12 -0.12)">
       <use xlink:href="#BitstreamVeraSans-Roman-30"/>
       <use x="63.623046875" xlink:href="#BitstreamVeraSans-Roman-2e"/>
       <use x="95.41015625" xlink:href="#BitstreamVeraSans-Roman-30"/>
       <use x="159.033203125" xlink:href="#BitstreamVeraSans-Roman-31"/>
       <use x="222.65625" xlink:href="#BitstreamVeraSans-Roman-34"/>
      </g>
     </g>
    </g>
    <g id="ytick_9">
     <g id="line2d_58">
      <path clip-path="url(#p7ff5b81e1d)" d="
M72 112.32
L518.4 112.32" style="fill:none;stroke:#000000;stroke-dasharray:1.000000,3.000000;stroke-dashoffset:0.0;stroke-linecap:butt;stroke-width:0.5;"/>
     </g>
     <g id="line2d_59">
      <g>
       <use style="stroke:#000000;stroke-linecap:butt;stroke-width:0.5;" x="72.0" xlink:href="#me8a85f7bf6" y="112.32"/>
      </g>
     </g>
     <g id="line2d_60">
      <g>
       <use style="stroke:#000000;stroke-linecap:butt;stroke-width:0.5;" x="518.4" xlink:href="#m1a32005dea" y="112.32"/>
      </g>
     </g>
     <g id="text_19">
      <!-- 0.016 -->
      <g transform="translate(35.193125 116.6878125)scale(0.12 -0.12)">
       <use xlink:href="#BitstreamVeraSans-Roman-30"/>
       <use x="63.623046875" xlink:href="#BitstreamVeraSans-Roman-2e"/>
       <use x="95.41015625" xlink:href="#BitstreamVeraSans-Roman-30"/>
       <use x="159.033203125" xlink:href="#BitstreamVeraSans-Roman-31"/>
       <use x="222.65625" xlink:href="#BitstreamVeraSans-Roman-36"/>
      </g>
     </g>
    </g>
    <g id="ytick_10">
     <g id="line2d_61">
      <path clip-path="url(#p7ff5b81e1d)" d="
M72 77.76
L518.4 77.76" style="fill:none;stroke:#000000;stroke-dasharray:1.000000,3.000000;stroke-dashoffset:0.0;stroke-linecap:butt;stroke-width:0.5;"/>
     </g>
     <g id="line2d_62">
      <g>
       <use style="stroke:#000000;stroke-linecap:butt;stroke-width:0.5;" x="72.0" xlink:href="#me8a85f7bf6" y="77.76"/>
      </g>
     </g>
     <g id="line2d_63">
      <g>
       <use style="stroke:#000000;stroke-linecap:butt;stroke-width:0.5;" x="518.4" xlink:href="#m1a32005dea" y="77.76"/>
      </g>
     </g>
     <g id="text_20">
      <!-- 0.018 -->
      <g transform="translate(35.25875 82.1278125)scale(0.12 -0.12)">
       <use xlink:href="#BitstreamVeraSans-Roman-30"/>
       <use x="63.623046875" xlink:href="#BitstreamVeraSans-Roman-2e"/>
       <use x="95.41015625" xlink:href="#BitstreamVeraSans-Roman-30"/>
       <use x="159.033203125" xlink:href="#BitstreamVeraSans-Roman-31"/>
       <use x="222.65625" xlink:href="#BitstreamVeraSans-Roman-38"/>
      </g>
     </g>
    </g>
    <g id="text_21">
     <!-- Sec/file -->
     <defs>
      <path d="
M9.42188 75.9844
L18.4062 75.9844
L18.4062 0
L9.42188 0
z
" id="BitstreamVeraSans-Roman-6c"/>
      <path d="
M53.5156 70.5156
L53.5156 60.8906
Q47.9062 63.5781 42.9219 64.8906
Q37.9375 66.2188 33.2969 66.2188
Q25.25 66.2188 20.875 63.0938
Q16.5 59.9688 16.5 54.2031
Q16.5 49.3594 19.4062 46.8906
Q22.3125 44.4375 30.4219 42.9219
L36.375 41.7031
Q47.4062 39.5938 52.6562 34.2969
Q57.9062 29 57.9062 20.125
Q57.9062 9.51562 50.7969 4.04688
Q43.7031 -1.42188 29.9844 -1.42188
Q24.8125 -1.42188 18.9688 -0.25
Q13.1406 0.921875 6.89062 3.21875
L6.89062 13.375
Q12.8906 10.0156 18.6562 8.29688
Q24.4219 6.59375 29.9844 6.59375
Q38.4219 6.59375 43.0156 9.90625
Q47.6094 13.2344 47.6094 19.3906
Q47.6094 24.75 44.3125 27.7812
Q41.0156 30.8125 33.5 32.3281
L27.4844 33.5
Q16.4531 35.6875 11.5156 40.375
Q6.59375 45.0625 6.59375 53.4219
Q6.59375 63.0938 13.4062 68.6562
Q20.2188 74.2188 32.1719 74.2188
Q37.3125 74.2188 42.625 73.2812
Q47.9531 72.3594 53.5156 70.5156" id="BitstreamVeraSans-Roman-53"/>
      <path d="
M9.42188 54.6875
L18.4062 54.6875
L18.4062 0
L9.42188 0
z

M9.42188 75.9844
L18.4062 75.9844
L18.4062 64.5938
L9.42188 64.5938
z
" id="BitstreamVeraSans-Roman-69"/>
      <path d="
M25.3906 72.9062
L33.6875 72.9062
L8.29688 -9.28125
L0 -9.28125
z
" id="BitstreamVeraSans-Roman-2f"/>
      <path d="
M56.2031 29.5938
L56.2031 25.2031
L14.8906 25.2031
Q15.4844 15.9219 20.4844 11.0625
Q25.4844 6.20312 34.4219 6.20312
Q39.5938 6.20312 44.4531 7.46875
Q49.3125 8.73438 54.1094 11.2812
L54.1094 2.78125
Q49.2656 0.734375 44.1875 -0.34375
Q39.1094 -1.42188 33.8906 -1.42188
Q20.7969 -1.42188 13.1562 6.1875
Q5.51562 13.8125 5.51562 26.8125
Q5.51562 40.2344 12.7656 48.1094
Q20.0156 56 32.3281 56
Q43.3594 56 49.7812 48.8906
Q56.2031 41.7969 56.2031 29.5938
M47.2188 32.2344
Q47.125 39.5938 43.0938 43.9844
Q39.0625 48.3906 32.4219 48.3906
Q24.9062 48.3906 20.3906 44.1406
Q15.875 39.8906 15.1875 32.1719
z
" id="BitstreamVeraSans-Roman-65"/>
      <path d="
M37.1094 75.9844
L37.1094 68.5
L28.5156 68.5
Q23.6875 68.5 21.7969 66.5469
Q19.9219 64.5938 19.9219 59.5156
L19.9219 54.6875
L34.7188 54.6875
L34.7188 47.7031
L19.9219 47.7031
L19.9219 0
L10.8906 0
L10.8906 47.7031
L2.29688 47.7031
L2.29688 54.6875
L10.8906 54.6875
L10.8906 58.5
Q10.8906 67.625 15.1406 71.7969
Q19.3906 75.9844 28.6094 75.9844
z
" id="BitstreamVeraSans-Roman-66"/>
      <path d="
M48.7812 52.5938
L48.7812 44.1875
Q44.9688 46.2969 41.1406 47.3438
Q37.3125 48.3906 33.4062 48.3906
Q24.6562 48.3906 19.8125 42.8438
Q14.9844 37.3125 14.9844 27.2969
Q14.9844 17.2812 19.8125 11.7344
Q24.6562 6.20312 33.4062 6.20312
Q37.3125 6.20312 41.1406 7.25
Q44.9688 8.29688 48.7812 10.4062
L48.7812 2.09375
Q45.0156 0.34375 40.9844 -0.53125
Q36.9688 -1.42188 32.4219 -1.42188
Q20.0625 -1.42188 12.7812 6.34375
Q5.51562 14.1094 5.51562 27.2969
Q5.51562 40.6719 12.8594 48.3281
Q20.2188 56 33.0156 56
Q37.1562 56 41.1094 55.1406
Q45.0625 54.2969 48.7812 52.5938" id="BitstreamVeraSans-Roman-63"/>
     </defs>
     <g transform="translate(30.110625 236.13)rotate(-90.0)scale(0.12 -0.12)">
      <use xlink:href="#BitstreamVeraSans-Roman-53"/>
      <use x="63.4765625" xlink:href="#BitstreamVeraSans-Roman-65"/>
      <use x="125.0" xlink:href="#BitstreamVeraSans-Roman-63"/>
      <use x="179.98046875" xlink:href="#BitstreamVeraSans-Roman-2f"/>
      <use x="213.671875" xlink:href="#BitstreamVeraSans-Roman-66"/>
      <use x="248.876953125" xlink:href="#BitstreamVeraSans-Roman-69"/>
      <use x="276.66015625" xlink:href="#BitstreamVeraSans-Roman-6c"/>
      <use x="304.443359375" xlink:href="#BitstreamVeraSans-Roman-65"/>
     </g>
    </g>
   </g>
   <g id="patch_3">
    <path d="
M72 43.2
L518.4 43.2" style="fill:none;stroke:#000000;"/>
   </g>
   <g id="patch_4">
    <path d="
M518.4 388.8
L518.4 43.2" style="fill:none;stroke:#000000;"/>
   </g>
   <g id="patch_5">
    <path d="
M72 388.8
L518.4 388.8" style="fill:none;stroke:#000000;"/>
   </g>
   <g id="patch_6">
    <path d="
M72 388.8
L72 43.2" style="fill:none;stroke:#000000;"/>
   </g>
   <g id="text_22">
    <!-- Rand -->
    <defs>
     <path d="
M54.8906 33.0156
L54.8906 0
L45.9062 0
L45.9062 32.7188
Q45.9062 40.4844 42.875 44.3281
Q39.8438 48.1875 33.7969 48.1875
Q26.5156 48.1875 22.3125 43.5469
Q18.1094 38.9219 18.1094 30.9062
L18.1094 0
L9.07812 0
L9.07812 54.6875
L18.1094 54.6875
L18.1094 46.1875
Q21.3438 51.125 25.7031 53.5625
Q30.0781 56 35.7969 56
Q45.2188 56 50.0469 50.1719
Q54.8906 44.3438 54.8906 33.0156" id="BitstreamVeraSans-Roman-6e"/>
     <path d="
M45.4062 46.3906
L45.4062 75.9844
L54.3906 75.9844
L54.3906 0
L45.4062 0
L45.4062 8.20312
Q42.5781 3.32812 38.25 0.953125
Q33.9375 -1.42188 27.875 -1.42188
Q17.9688 -1.42188 11.7344 6.48438
Q5.51562 14.4062 5.51562 27.2969
Q5.51562 40.1875 11.7344 48.0938
Q17.9688 56 27.875 56
Q33.9375 56 38.25 53.625
Q42.5781 51.2656 45.4062 46.3906
M14.7969 27.2969
Q14.7969 17.3906 18.875 11.75
Q22.9531 6.10938 30.0781 6.10938
Q37.2031 6.10938 41.2969 11.75
Q45.4062 17.3906 45.4062 27.2969
Q45.4062 37.2031 41.2969 42.8438
Q37.2031 48.4844 30.0781 48.4844
Q22.9531 48.4844 18.875 42.8438
Q14.7969 37.2031 14.7969 27.2969" id="BitstreamVeraSans-Roman-64"/>
     <path d="
M44.3906 34.1875
Q47.5625 33.1094 50.5625 29.5938
Q53.5625 26.0781 56.5938 19.9219
L66.6094 0
L56 0
L46.6875 18.7031
Q43.0625 26.0312 39.6719 28.4219
Q36.2812 30.8125 30.4219 30.8125
L19.6719 30.8125
L19.6719 0
L9.8125 0
L9.8125 72.9062
L32.0781 72.9062
Q44.5781 72.9062 50.7344 67.6719
Q56.8906 62.4531 56.8906 51.9062
Q56.8906 45.0156 53.6875 40.4688
Q50.4844 35.9375 44.3906 34.1875
M19.6719 64.7969
L19.6719 38.9219
L32.0781 38.9219
Q39.2031 38.9219 42.8438 42.2188
Q46.4844 45.5156 46.4844 51.9062
Q46.4844 58.2969 42.8438 61.5469
Q39.2031 64.7969 32.0781 64.7969
z
" id="BitstreamVeraSans-Roman-52"/>
     <path d="
M34.2812 27.4844
Q23.3906 27.4844 19.1875 25
Q14.9844 22.5156 14.9844 16.5
Q14.9844 11.7188 18.1406 8.90625
Q21.2969 6.10938 26.7031 6.10938
Q34.1875 6.10938 38.7031 11.4062
Q43.2188 16.7031 43.2188 25.4844
L43.2188 27.4844
z

M52.2031 31.2031
L52.2031 0
L43.2188 0
L43.2188 8.29688
Q40.1406 3.32812 35.5469 0.953125
Q30.9531 -1.42188 24.3125 -1.42188
Q15.9219 -1.42188 10.9531 3.29688
Q6 8.01562 6 15.9219
Q6 25.1406 12.1719 29.8281
Q18.3594 34.5156 30.6094 34.5156
L43.2188 34.5156
L43.2188 35.4062
Q43.2188 41.6094 39.1406 45
Q35.0625 48.3906 27.6875 48.3906
Q23 48.3906 18.5469 47.2656
Q14.1094 46.1406 10.0156 43.8906
L10.0156 52.2031
Q14.9375 54.1094 19.5781 55.0469
Q24.2188 56 28.6094 56
Q40.4844 56 46.3438 49.8438
Q52.2031 43.7031 52.2031 31.2031" id="BitstreamVeraSans-Roman-61"/>
    </defs>
    <g transform="translate(278.17425 38.2)scale(0.144 -0.144)">
     <use xlink:href="#BitstreamVeraSans-Roman-52"/>
     <use x="67.232421875" xlink:href="#BitstreamVeraSans-Roman-61"/>
     <use x="128.51171875" xlink:href="#BitstreamVeraSans-Roman-6e"/>
     <use x="191.890625" xlink:href="#BitstreamVeraSans-Roman-64"/>
    </g>
   </g>
   <g id="legend_1">
    <g id="patch_7">
     <path d="
M429.055 115.339
L511.2 115.339
L511.2 50.4
L429.055 50.4
L429.055 115.339
z
" style="fill:#ffffff;stroke:#000000;"/>
    </g>
    <g id="line2d_64">
     <path d="
M439.135 62.0617
L459.295 62.0617" style="fill:none;stroke:#ff0000;"/>
    </g>
    <g id="line2d_65"/>
    <g id="text_23">
     <!-- LRU -->
     <defs>
      <path d="
M9.8125 72.9062
L19.6719 72.9062
L19.6719 8.29688
L55.1719 8.29688
L55.1719 0
L9.8125 0
z
" id="BitstreamVeraSans-Roman-4c"/>
      <path d="
M8.6875 72.9062
L18.6094 72.9062
L18.6094 28.6094
Q18.6094 16.8906 22.8438 11.7344
Q27.0938 6.59375 36.625 6.59375
Q46.0938 6.59375 50.3438 11.7344
Q54.5938 16.8906 54.5938 28.6094
L54.5938 72.9062
L64.5 72.9062
L64.5 27.3906
Q64.5 13.1406 57.4375 5.85938
Q50.3906 -1.42188 36.625 -1.42188
Q22.7969 -1.42188 15.7344 5.85938
Q8.6875 13.1406 8.6875 27.3906
z
" id="BitstreamVeraSans-Roman-55"/>
     </defs>
     <g transform="translate(475.13475 67.10175)scale(0.144 -0.144)">
      <use xlink:href="#BitstreamVeraSans-Roman-4c"/>
      <use x="55.712890625" xlink:href="#BitstreamVeraSans-Roman-52"/>
      <use x="125.1953125" xlink:href="#BitstreamVeraSans-Roman-55"/>
     </g>
    </g>
    <g id="line2d_66">
     <path d="
M439.135 83.1983
L459.295 83.1983" style="fill:none;opacity:0.7;stroke:#008000;"/>
    </g>
    <g id="line2d_67"/>
    <g id="text_24">
     <!-- MRU -->
     <defs>
      <path d="
M9.8125 72.9062
L24.5156 72.9062
L43.1094 23.2969
L61.8125 72.9062
L76.5156 72.9062
L76.5156 0
L66.8906 0
L66.8906 64.0156
L48.0938 14.0156
L38.1875 14.0156
L19.3906 64.0156
L19.3906 0
L9.8125 0
z
" id="BitstreamVeraSans-Roman-4d"/>
     </defs>
     <g transform="translate(475.13475 88.23825)scale(0.144 -0.144)">
      <use xlink:href="#BitstreamVeraSans-Roman-4d"/>
      <use x="86.279296875" xlink:href="#BitstreamVeraSans-Roman-52"/>
      <use x="155.76171875" xlink:href="#BitstreamVeraSans-Roman-55"/>
     </g>
    </g>
    <g id="line2d_68">
     <path d="
M439.135 104.335
L459.295 104.335" style="fill:none;opacity:0.5;stroke:#0000ff;"/>
    </g>
    <g id="line2d_69"/>
    <g id="text_25">
     <!-- FIFO -->
     <defs>
      <path d="
M9.8125 72.9062
L51.7031 72.9062
L51.7031 64.5938
L19.6719 64.5938
L19.6719 43.1094
L48.5781 43.1094
L48.5781 34.8125
L19.6719 34.8125
L19.6719 0
L9.8125 0
z
" id="BitstreamVeraSans-Roman-46"/>
      <path d="
M9.8125 72.9062
L19.6719 72.9062
L19.6719 0
L9.8125 0
z
" id="BitstreamVeraSans-Roman-49"/>
      <path d="
M39.4062 66.2188
Q28.6562 66.2188 22.3281 58.2031
Q16.0156 50.2031 16.0156 36.375
Q16.0156 22.6094 22.3281 14.5938
Q28.6562 6.59375 39.4062 6.59375
Q50.1406 6.59375 56.4219 14.5938
Q62.7031 22.6094 62.7031 36.375
Q62.7031 50.2031 56.4219 58.2031
Q50.1406 66.2188 39.4062 66.2188
M39.4062 74.2188
Q54.7344 74.2188 63.9062 63.9375
Q73.0938 53.6562 73.0938 36.375
Q73.0938 19.1406 63.9062 8.85938
Q54.7344 -1.42188 39.4062 -1.42188
Q24.0312 -1.42188 14.8125 8.82812
Q5.60938 19.0938 5.60938 36.375
Q5.60938 53.6562 14.8125 63.9375
Q24.0312 74.2188 39.4062 74.2188" id="BitstreamVeraSans-Roman-4f"/>
     </defs>
     <g transform="translate(475.13475 109.37475)scale(0.144 -0.144)">
      <use xlink:href="#BitstreamVeraSans-Roman-46"/>
      <use x="57.51953125" xlink:href="#BitstreamVeraSans-Roman-49"/>
      <use x="87.01171875" xlink:href="#BitstreamVeraSans-Roman-46"/>
      <use x="144.53125" xlink:href="#BitstreamVeraSans-Roman-4f"/>
     </g>
    </g>
   </g>
  </g>
 </g>
 <defs>
  <clipPath id="p7ff5b81e1d">
   <rect height="345.6" width="446.4" x="72.0" y="43.2"/>
  </clipPath>
 </defs>
</svg>
