<?xml version="1.0" encoding="utf-8" standalone="no"?>
<!DOCTYPE svg PUBLIC "-//W3C//DTD SVG 1.1//EN"
  "http://www.w3.org/Graphics/SVG/1.1/DTD/svg11.dtd">
<!-- Created with matplotlib (http://matplotlib.sourceforge.net/) -->
<svg height="432pt" version="1.1" viewBox="0 0 576 432" width="576pt" xmlns="http://www.w3.org/2000/svg" xmlns:xlink="http://www.w3.org/1999/xlink">
 <defs>
  <style type="text/css">
*{stroke-linecap:square;stroke-linejoin:round;}
  </style>
 </defs>
 <g id="figure_1">
  <g id="patch_1">
   <path d="
M0 432
L576 432
L576 0
L0 0
z
" style="fill:#ffffff;"/>
  </g>
  <g id="axes_1">
   <g id="patch_2">
    <path d="
M72 388.8
L518.4 388.8
L518.4 43.2
L72 43.2
z
" style="fill:#ffffff;"/>
   </g>
   <g id="line2d_1">
    <path clip-path="url(#p7ff5b81e1d)" d="
M72 300.404
L72.4464 300.805
L72.8928 184.318
L73.3392 303.551
L73.7856 302.55
L74.232 304.557
L74.6784 302.221
L75.1248 304.173
L75.5712 301.161
L76.0176 301.326
L76.464 303.495
L76.9104 303.439
L77.3568 302.526
L77.8032 302.406
L78.696 304.596
L79.1424 329.466
L79.5888 303.656
L80.0352 330.57
L80.4816 304.219
L80.928 303.993
L81.3744 302.125
L81.8208 303.96
L82.2672 329.76
L82.7136 303.384
L83.16 303.896
L83.6064 329.918
L84.0528 299.171
L84.4992 302.924
L84.9456 329.213
L85.392 330.109
L85.8384 322.473
L86.2848 303.355
L86.7312 300.878
L87.1776 330.274
L87.624 297.229
L88.0704 329.017
L88.5168 326.432
L88.9632 330.026
L89.4096 329.388
L89.856 320.397
L90.3024 286.361
L90.7488 330.32
L92.088 330.806
L92.5344 328.002
L92.9808 286.323
L93.4272 328.628
L93.8736 329.762
L94.32 330.197
L94.7664 304.487
L95.2128 329.93
L95.6592 330.069
L96.1056 325.494
L96.552 330.205
L96.9984 329.675
L97.4448 317.818
L97.8912 329.837
L98.3376 330.251
L98.784 319.316
L99.2304 303.966
L99.6768 301.195
L100.123 330.534
L100.57 323.617
L101.016 330.867
L101.462 287.648
L101.909 304.857
L102.355 312.831
L102.802 299.657
L103.248 329.275
L103.694 302.759
L104.141 328.956
L104.587 329.174
L105.034 311.823
L105.48 328.595
L105.926 329.489
L106.373 327.373
L106.819 328.123
L107.266 329.22
L107.712 321.612
L108.158 330.046
L108.605 329.206
L109.051 320.628
L109.498 329.621
L109.944 329.507
L110.39 292.971
L110.837 329.797
L111.283 301.614
L111.73 330.178
L112.176 327.876
L112.622 329.047
L113.069 303.382
L113.515 330.148
L113.962 330.186
L114.408 315.308
L114.854 328.667
L115.301 329.383
L115.747 323.711
L116.194 329.462
L116.64 329.348
L117.086 310.85
L117.533 329.75
L117.979 328.834
L118.426 312.271
L118.872 328.824
L119.318 315.523
L119.765 294.151
L120.211 301.511
L120.658 315.033
L121.104 302.4
L121.55 329.357
L122.443 329.518
L122.89 319.411
L123.336 329.273
L123.782 330.33
L124.229 295.644
L124.675 329.852
L125.122 287.173
L125.568 317.594
L126.014 301.688
L126.461 329.651
L126.907 329.12
L127.354 328.967
L127.8 323.119
L128.246 329.154
L128.693 328.09
L129.139 322.207
L129.586 328.864
L130.032 302.609
L130.478 329.802
L130.925 329.858
L131.371 319.992
L131.818 330.054
L132.264 160.496
L132.71 329.779
L133.157 329.389
L133.603 322.014
L134.05 303.843
L134.496 325.641
L134.942 312.218
L135.389 319.825
L135.835 312.596
L136.282 316.157
L136.728 312.775
L137.174 328.75
L137.621 329.507
L138.067 329.919
L138.96 325.788
L139.406 329.922
L139.853 329.466
L140.299 328.296
L140.746 329.544
L141.192 330.419
L141.638 325.519
L142.085 326.759
L142.531 318.293
L142.978 329.064
L143.424 328.101
L143.87 323.87
L144.317 328.923
L144.763 314.493
L145.21 329.404
L145.656 329.775
L146.102 311.976
L146.549 302.642
L146.995 312.273
L147.442 300.979
L147.888 328.793
L148.334 328.935
L148.781 329.827
L149.227 329.237
L149.674 329.737
L150.12 329.19
L150.566 319.446
L151.013 327.092
L151.459 329.509
L151.906 329.809
L152.352 321.95
L152.798 328.481
L153.245 328.912
L153.691 328.138
L154.138 286.079
L154.584 327.741
L155.03 328.191
L155.477 320.76
L155.923 329.323
L156.37 328.431
L156.816 328.64
L157.262 320.373
L157.709 315.313
L158.155 329.831
L158.602 330.173
L159.048 319.869
L159.494 329.052
L159.941 321.007
L160.387 319.873
L161.28 321.561
L161.726 321.726
L162.173 312.876
L162.619 321.006
L163.066 322.037
L163.512 321.57
L163.958 309.404
L164.405 321.36
L164.851 329.357
L165.298 330.191
L165.744 330.172
L166.19 326.875
L166.637 321.331
L167.083 330.443
L167.976 321.383
L168.422 329.671
L168.869 322.318
L169.315 312.296
L169.762 328.973
L170.208 329.601
L170.654 319.775
L171.101 321.322
L171.547 318.826
L171.994 328.789
L172.44 329.293
L172.886 329.474
L173.333 329.853
L173.779 330.057
L174.226 309.94
L174.672 311.507
L175.118 329.113
L175.565 330.484
L176.011 329.124
L176.458 316.808
L176.904 329.941
L177.35 329.269
L177.797 312.377
L178.243 322.152
L178.69 315.381
L179.136 321.277
L179.582 330.369
L180.029 328.887
L180.475 321.28
L180.922 329.005
L181.368 321.469
L181.814 330.29
L182.261 316.382
L182.707 329.448
L183.154 321.136
L183.6 329.129
L184.046 328.736
L184.493 312.589
L184.939 330.097
L185.386 329.819
L185.832 309.906
L186.725 330.104
L187.171 330.68
L187.618 330.087
L188.064 330.196
L188.51 328.231
L189.403 330.05
L189.85 320.07
L190.296 306.257
L190.742 329.451
L191.189 327.837
L191.635 328.907
L192.082 330.281
L192.528 329.798
L192.974 300.438
L193.421 329.347
L193.867 328.414
L194.314 329.845
L194.76 320.397
L195.206 320.692
L195.653 329.842
L196.099 324.677
L196.546 329.965
L196.992 329.01
L197.438 303.952
L197.885 320.377
L198.331 286.931
L198.778 320.837
L199.224 329.841
L199.67 314.702
L200.117 328.344
L200.563 328.703
L201.01 324.151
L201.456 328.76
L201.902 329.923
L202.795 319.724
L203.242 329.297
L203.688 329.775
L204.134 329.837
L204.581 328.776
L205.027 321.637
L205.474 329.792
L205.92 330.182
L206.366 313.199
L206.813 329.711
L207.259 317.333
L207.706 321.786
L208.152 330.289
L208.598 317.477
L209.045 327.476
L209.491 329.272
L209.938 329.764
L210.384 312.513
L210.83 328.228
L211.277 329.41
L211.723 320.424
L212.17 329.157
L212.616 329.901
L213.062 328.685
L213.509 320.456
L213.955 329.382
L214.402 329.623
L214.848 327.564
L215.294 329.35
L215.741 312.346
L216.187 327.411
L216.634 315.438
L217.08 330.589
L217.526 328.336
L217.973 315.745
L218.419 328.477
L218.866 328.766
L219.312 324.094
L219.758 328.537
L220.205 329.125
L220.651 317.813
L221.098 312.427
L221.544 328.811
L221.99 329.528
L222.437 329.587
L222.883 322.456
L223.33 328.975
L223.776 320.068
L224.222 330.033
L224.669 328.244
L225.115 328.882
L225.562 319.201
L226.008 329.825
L226.454 326.041
L226.901 328.862
L227.347 329.083
L227.794 329.502
L228.24 328.864
L229.133 329.682
L229.579 307.511
L230.026 328.736
L230.472 317.545
L230.918 311.885
L231.365 329.685
L231.811 330.22
L232.258 330
L232.704 329.928
L233.15 330.053
L233.597 313.461
L234.043 315.769
L234.49 329.818
L234.936 329.281
L235.382 322.324
L235.829 329.196
L236.275 328.912
L236.722 312.215
L237.168 328.365
L237.614 312.14
L238.061 329.311
L238.507 315.872
L238.954 329.973
L239.4 330.313
L239.846 320.319
L240.293 329.12
L240.739 321.185
L241.186 330.061
L241.632 330.48
L242.078 330.184
L242.525 320.57
L242.971 329.195
L243.418 329.29
L243.864 304.385
L244.31 328.615
L244.757 329.166
L245.203 328.93
L245.65 329.077
L246.096 320.797
L246.542 328.893
L246.989 321.04
L247.435 321.514
L247.882 330.486
L248.328 311.401
L248.774 329.309
L249.221 320.983
L249.667 330.099
L250.114 319.644
L250.56 329.841
L251.006 311.474
L251.453 329.142
L251.899 318.036
L252.346 320.182
L252.792 320.611
L253.238 330.092
L253.685 320.999
L254.131 329.876
L254.578 328.249
L255.024 320.754
L255.47 329.754
L255.917 316.01
L256.363 321.721
L256.81 320.213
L257.256 321.223
L257.702 328.72
L258.149 312.256
L258.595 330.137
L259.042 316.864
L259.488 329.236
L259.934 329.539
L260.381 321.719
L260.827 329.669
L261.274 312.293
L261.72 327.894
L262.166 328.976
L262.613 311.03
L263.059 328.845
L263.506 320.968
L263.952 328.572
L264.398 328.798
L264.845 316.071
L265.291 328.779
L265.738 329.887
L266.184 324.003
L266.63 328.087
L267.077 319.978
L267.523 329.166
L267.97 329.161
L268.416 327.958
L268.862 311.794
L269.309 329.061
L269.755 312.673
L270.202 310.942
L270.648 328.334
L271.094 319.911
L271.541 329.335
L271.987 328.52
L272.434 329.293
L272.88 329.602
L273.326 328.222
L273.773 328.872
L274.219 328.446
L274.666 325.732
L275.112 328.136
L275.558 329.09
L276.005 315.395
L276.451 329.974
L276.898 321.496
L277.344 329.513
L277.79 329.69
L278.237 330.151
L278.683 329.464
L279.13 293.105
L279.576 328.879
L280.022 328.707
L280.469 316.908
L280.915 320.486
L281.362 320.328
L281.808 328.901
L282.254 321.542
L282.701 321.196
L283.147 329.412
L283.594 329.646
L284.04 325.036
L284.486 329.641
L284.933 312.127
L285.379 303.092
L285.826 320.844
L286.272 329.895
L286.718 329.642
L287.165 327.173
L287.611 329.369
L288.504 313.243
L288.95 329.23
L289.397 311.888
L289.843 319.95
L290.29 321.606
L290.736 321.635
L291.182 320.888
L291.629 329.506
L292.075 328.918
L292.522 312.886
L292.968 328.599
L293.414 329.969
L293.861 329.489
L294.307 322.323
L294.754 320.246
L295.2 311.242
L295.646 329.898
L296.093 329.934
L296.986 327.195
L297.432 319.765
L297.878 328.545
L298.325 328.865
L298.771 329.879
L299.218 327.457
L299.664 328.948
L300.11 320.278
L300.557 328.416
L301.003 329.435
L301.45 329.266
L301.896 309.965
L302.342 328.987
L302.789 329.064
L303.235 328.531
L303.682 328.628
L304.128 318.314
L304.574 328.323
L305.021 329.026
L305.467 327.127
L305.914 321.267
L306.36 329.538
L306.806 293.395
L307.253 197.378
L307.699 129.074
L308.146 328.838
L308.592 328.724
L309.038 326.86
L309.485 329.214
L309.931 329.838
L310.378 329.923
L310.824 329.661
L311.27 329.609
L311.717 310.828
L312.163 325.209
L312.61 329.219
L313.056 321.031
L313.502 329.395
L313.949 328.598
L314.395 329.405
L314.842 326.165
L315.288 321.047
L315.734 329.486
L316.181 327.656
L316.627 313.991
L317.074 329.047
L317.52 328.307
L317.966 326.872
L318.413 329.892
L318.859 328.315
L319.306 324.472
L319.752 312.416
L320.198 329.858
L320.645 329.3
L321.091 329.53
L321.538 315.438
L321.984 328.195
L322.43 312.396
L322.877 319.31
L323.323 328.592
L323.77 329.041
L324.216 329.825
L324.662 321.105
L325.109 329.649
L325.555 329.94
L326.002 310.595
L326.448 328.898
L326.894 329.135
L327.341 322.008
L327.787 330.135
L328.234 303.575
L329.126 329.517
L329.573 329.393
L330.019 329.801
L330.466 329.454
L330.912 321.57
L331.358 330.325
L331.805 330.286
L332.251 330.481
L333.144 311.957
L333.59 320.811
L334.037 321.591
L334.483 329.105
L334.93 329.463
L335.376 329.389
L335.822 330.339
L336.269 329.253
L336.715 329.478
L337.162 321.105
L337.608 320.812
L338.054 328.742
L338.501 328.391
L338.947 329.028
L339.394 321.522
L339.84 320.487
L340.286 321.239
L340.733 320.324
L341.179 329.285
L341.626 329.012
L342.072 323.597
L342.518 326.491
L342.965 328.167
L343.411 328.584
L343.858 312.566
L344.304 323.147
L344.75 320.944
L345.197 329.179
L345.643 319.792
L346.09 330.198
L346.536 320.72
L346.982 329.147
L347.429 330.03
L347.875 320.572
L348.322 327.938
L348.768 321.479
L349.214 329.679
L349.661 321.06
L350.107 328.865
L350.554 329.778
L351 329.703
L351.446 329.124
L351.893 329.283
L352.339 317.659
L352.786 329.743
L353.232 329.92
L353.678 330.237
L354.125 313.52
L354.571 329.724
L355.018 330.063
L355.464 312.472
L355.91 329.442
L356.357 330.109
L356.803 328.905
L357.25 321.222
L357.696 287.496
L358.142 329.784
L358.589 330.187
L359.035 298.614
L359.482 327.751
L359.928 321.565
L360.374 327.726
L360.821 328.463
L361.267 320.875
L361.714 316.849
L362.16 322.009
L362.606 330.023
L363.053 311.321
L363.499 329.671
L363.946 330.722
L364.392 319.871
L364.838 313.185
L365.285 329.383
L365.731 329.786
L366.178 329.901
L366.624 315.7
L367.07 327.946
L367.517 328.847
L367.963 329.467
L368.41 316.506
L368.856 319.585
L369.302 329.475
L369.749 327.689
L370.195 329.52
L370.642 319.902
L371.088 328.977
L371.534 320.658
L371.981 317.074
L372.427 321.895
L372.874 321.596
L373.32 329.611
L373.766 330.095
L374.213 329.491
L374.659 320.458
L375.106 329.616
L375.552 326.834
L375.998 310.829
L376.891 329.662
L377.338 321.895
L377.784 328.239
L378.23 320.483
L379.123 328.1
L379.57 329.206
L380.016 326.362
L380.462 327.799
L380.909 328.61
L381.355 328.976
L381.802 329.523
L382.248 328.891
L382.694 325.056
L383.587 328.872
L384.034 319.025
L384.48 328.424
L384.748 -1
M385.112 -1
L385.373 304.726
L385.819 303.842
L386.266 325.316
L386.712 329.743
L387.158 330.096
L387.605 323.32
L388.051 329.377
L388.498 329.407
L388.944 324.069
L389.39 329.273
L389.837 321.498
L390.283 329.263
L390.73 322.257
L391.176 320.189
L391.622 329.994
L392.069 330.056
L392.515 328.252
L392.962 328.312
L393.408 329.564
L393.854 319.864
L394.301 329.664
L394.747 328.837
L395.194 309.562
L395.64 329.147
L396.086 317.279
L396.533 328.883
L396.979 319.954
L397.426 328.952
L397.872 329.07
L398.318 328.046
L398.765 327.487
L399.211 328.198
L399.658 329.804
L400.104 328.324
L400.55 321.546
L400.997 320.499
L401.443 328.936
L401.89 329.503
L402.336 328.253
L402.782 329.205
L403.229 329.038
L404.122 328.414
L405.014 330.143
L405.461 312.739
L405.907 319.994
L406.354 320.975
L406.8 329.02
L407.246 329.596
L407.693 318.454
L408.139 329.489
L408.586 329.171
L409.032 327.179
L409.478 323.368
L409.925 328.51
L410.371 328.71
L410.818 317.322
L411.264 328.916
L411.71 328.069
L412.603 328.54
L413.05 328.222
L413.496 328.105
L413.942 328.932
L414.389 329.054
L414.835 327.743
L415.282 311.604
L415.728 328.332
L416.174 321.792
L416.621 329.055
L417.067 316.249
L417.514 329.331
L417.96 328.765
L418.406 326.241
L418.853 328.957
L419.746 310.175
L420.192 328.445
L420.638 328.932
L421.085 328.453
L421.531 328.557
L421.978 329.234
L422.424 319.204
L422.87 296.453
L423.317 328.29
L423.763 329.163
L424.21 328.672
L424.656 312.325
L425.102 319.794
L425.549 329.18
L425.995 321.157
L426.442 327.853
L426.888 327.905
L427.334 298.979
L427.781 320.865
L428.227 311.687
L428.674 318.704
L429.12 322.323
L429.566 320.376
L430.013 323.598
L430.459 329.543
L430.906 327.971
L431.352 317.529
L431.798 320.806
L432.691 320.829
L433.138 329.643
L433.584 329.084
L434.03 329.559
L434.477 329.765
L434.923 294.482
L435.37 316.994
L435.816 328.797
L436.262 321.364
L436.709 328.237
L437.155 321.607
L437.602 300.659
L438.048 328.823
L438.494 319.923
L438.941 322.21
L439.387 328.044
L439.834 297.28
L440.28 327.098
L440.726 320.841
L441.173 296.802
L441.619 327.86
L442.066 330.094
L442.512 328.394
L442.958 305.027
L443.405 328.601
L443.851 328.846
L444.298 328.322
L444.744 328.86
L445.19 329.961
L445.637 326.974
L446.083 321.601
L446.53 327.883
L446.976 329.063
L447.422 328.916
L447.869 330.071
L448.315 327.193
L448.762 328.96
L449.208 328.166
L449.654 328.002
L450.101 330.89
L450.547 329.029
L450.994 311.99
L451.44 328.455
L451.886 328.77
L452.333 329.33
L452.779 322.558
L453.226 328.401
L453.672 329.631
L454.118 304.036
L454.565 330.147
L455.011 324.181
L455.458 320.511
L455.904 321.16
L456.35 328.594
L456.797 329.693
L457.243 319.674
L457.69 328.649
L458.136 329.085
L458.582 329.201
L459.029 328.302
L459.475 318.578
L459.922 329.549
L460.368 329.324
L460.814 318.095
L461.261 328.022
L461.707 329.621
L462.154 312.121
L462.6 319.424
L463.046 330.53
L463.493 328.303
L463.939 306.328
L464.386 328.275
L464.832 329.489
L465.278 329.509
L465.725 328.254
L466.171 312.417
L466.618 328.578
L467.064 308.719
L467.51 328.903
L467.957 327.63
L468.403 328.892
L468.85 329.381
L469.296 328.464
L469.742 320.002
L470.189 329.303
L470.635 318.563
L471.528 321.33
L471.974 319.632
L472.421 328.01
L472.867 328.677
L473.314 328.294
L473.76 328.732
L474.206 320.357
L474.653 327.836
L475.099 318.305
L475.546 329.341
L476.438 312.18
L476.885 329.133
L477.331 329.887
L477.778 319.943
L478.224 318.757
L478.67 329.698
L479.117 329.12
L479.563 326.486
L480.01 319.877
L480.456 328.869
L480.902 321.483
L481.349 316.658
L481.795 329.726
L482.242 329.033
L482.688 317.622
L483.134 328.616
L483.581 328.901
L484.027 328.221
L484.474 304.237
L484.92 329.835
L486.259 329.277
L486.706 328.003
L487.152 320.224
L487.598 330.536
L488.045 329.492
L488.491 319.605
L488.938 329.986
L489.384 326.774
L489.83 329.885
L490.277 319.682
L490.723 312.746
L491.17 328.642
L491.616 323.871
L492.062 328.498
L492.509 312.29
L492.955 328.332
L493.402 309.716
L493.848 329.244
L494.294 327.944
L494.741 327.961
L495.187 329.316
L495.634 319.928
L496.08 329.184
L496.526 329.812
L497.419 328.443
L497.866 328.655
L498.312 329.072
L498.758 328.527
L499.205 321.205
L499.651 327.906
L500.098 329.44
L500.544 321.966
L500.99 308.338
L501.437 329.286
L501.883 330.507
L502.33 329.462
L502.776 328.831
L503.222 312.103
L503.669 326.82
L504.115 330.103
L504.562 328.447
L505.008 320.226
L505.454 329.572
L505.901 329.305
L506.347 329.68
L507.24 329.514
L507.686 330.452
L508.133 329.257
L508.579 320.056
L509.026 321.474
L509.472 328.512
L509.918 326.323
L510.365 328.354
L510.811 328.939
L511.258 319.191
L511.704 321.77
L512.15 321.255
L512.597 328.238
L513.49 328.677
L513.936 320.587
L514.382 296.699
L514.829 329.939
L515.275 318.337
L515.722 316.023
L516.168 319.457
L516.614 319.895
L517.061 319.9
L517.507 321.09
L517.954 329.261
L517.954 329.261" style="fill:none;stroke:#ff0000;"/>
   </g>
   <g id="line2d_2">
    <path clip-path="url(#p7ff5b81e1d)" d="
M72 23.3652
L72.4464 162.603
L72.8928 285.678
L73.3392 302.989
L73.7856 302.693
L74.6784 303.23
L75.1248 304.078
L75.5712 329.266
L76.0176 303.317
L76.464 302.397
L76.9104 303.685
L77.3568 303.712
L77.8032 303.591
L78.2496 286.167
L78.696 301.996
L79.1424 328.979
L79.5888 302.168
L80.0352 302.851
L80.4816 301.451
L80.928 311.697
L81.3744 296.393
L81.8208 303.512
L82.2672 328.478
L82.7136 302.891
L83.16 303.176
L83.6064 328.98
L84.0528 303.085
L84.4992 312.063
L84.9456 298.447
L85.392 328.746
L85.8384 329.499
L86.2848 293.385
L86.7312 302.666
L87.1776 328.811
L87.624 328.131
L88.0704 293.751
L88.5168 312.534
L88.9632 302.434
L89.4096 286.23
L89.856 303.485
L90.3024 302.952
L90.7488 303.478
L91.1952 328.95
L91.6416 328.628
L92.088 303.572
L92.5344 326.178
L92.9808 329.478
L93.4272 329.349
L93.8736 319.968
L94.32 329.202
L94.7664 329.703
L95.2128 320.554
L95.6592 329.723
L96.1056 329.744
L96.552 320.01
L96.9984 303.468
L97.4448 321.083
L97.8912 329.695
L98.3376 329.71
L98.784 293.426
L99.2304 329.216
L99.6768 301.036
L100.123 304.111
L100.57 312.876
L101.016 328.816
L101.462 302.473
L101.909 317.237
L102.355 302.802
L102.802 329.68
L103.248 329.775
L103.694 313.706
L104.141 329.118
L104.587 329.354
L105.034 321.756
L105.48 329.798
L105.926 329.898
L106.373 319.269
L106.819 329.729
L107.266 312.692
L107.712 300.788
L108.158 327.685
L108.605 328.527
L109.051 302.495
L109.498 329.491
L109.944 328.656
L110.39 316.401
L110.837 311.98
L111.283 329.136
L111.73 302.628
L112.622 328.115
L113.069 329.254
L113.515 323.496
L113.962 329.809
L114.408 329.142
L114.854 321.957
L115.301 329.214
L115.747 302.194
L116.194 329.34
L116.64 328.561
L117.086 322.368
L117.533 328.578
L117.979 328.916
L118.426 322.925
L118.872 283.682
L119.318 329.006
L119.765 329.121
L120.211 311.687
L120.658 328.847
L121.104 328.942
L121.55 302.315
L121.997 329.298
L122.443 329.187
L122.89 297.554
L123.336 328.612
L123.782 311.99
L124.229 329.056
L124.675 315.159
L125.122 329.085
L125.568 329.297
L126.014 321.422
L126.461 328.871
L126.907 329.497
L127.354 294.511
L127.8 302.568
L128.246 329.371
L128.693 328.734
L129.139 325.884
L129.586 329.221
L130.478 325.717
L130.925 312.69
L131.371 329.293
L131.818 328.614
L132.264 329.44
L132.71 324.572
L133.157 328.542
L133.603 318.288
L134.05 329.437
L134.496 329.358
L134.942 312.422
L135.389 329.856
L135.835 328.479
L136.282 325.241
L136.728 302.667
L137.174 328.391
L137.621 327.9
L138.067 324.681
L138.514 328.31
L138.96 328.43
L139.406 323.803
L139.853 328.084
L140.299 329.105
L140.746 325.875
L141.192 328.869
L141.638 328.583
L142.085 323.337
L142.531 328.61
L142.978 329.039
L143.424 323.948
L143.87 301.934
L144.317 328.655
L144.763 328.69
L145.21 328.482
L145.656 325.876
L146.102 328.744
L146.549 328.393
L146.995 292.264
L147.442 328.522
L147.888 328.855
L148.334 328.98
L148.781 312.968
L149.227 329.103
L149.674 315.462
L150.12 329.486
L150.566 320.545
L151.013 329.541
L151.459 328.615
L151.906 329.299
L152.352 323.358
L152.798 329.321
L153.245 329.708
L153.691 321.278
L154.138 329.957
L154.584 318.8
L155.03 328.749
L155.477 327.984
L155.923 320.721
L156.37 328.842
L156.816 319.786
L157.262 329.01
L157.709 320.763
L158.155 328.617
L158.602 320.648
L159.048 329.183
L159.494 315.903
L159.941 321.126
L160.387 317.788
L160.834 329.648
L161.28 329.11
L161.726 322.242
L162.173 329.372
L162.619 329.712
L163.066 312.162
L163.512 329.026
L163.958 329.478
L164.405 329.157
L164.851 329.279
L165.298 329.265
L165.744 314.57
L166.19 320.847
L166.637 318.318
L167.083 329.476
L167.53 321.042
L167.976 329.532
L168.422 329.692
L168.869 321.022
L169.315 329.958
L169.762 321.304
L170.208 327.67
L170.654 329.888
L171.101 329.294
L171.547 321.276
L171.994 326.929
L172.44 311.128
L172.886 329.041
L173.333 320.444
L173.779 328.169
L174.226 328.564
L174.672 308.417
L175.118 319.872
L175.565 305.829
L176.011 329.105
L176.458 329.319
L176.904 320.766
L177.35 329.654
L177.797 320.057
L178.243 321.344
L178.69 329.533
L179.136 320.502
L179.582 302.65
L180.029 329.681
L180.475 329.348
L180.922 321.619
L181.368 329.449
L181.814 329.058
L182.261 329.622
L182.707 320.199
L183.154 329.451
L183.6 329.294
L184.046 322.093
L184.493 329.125
L184.939 328.979
L185.386 322.636
L185.832 329.275
L186.278 329.219
L186.725 313.787
L187.171 329.611
L187.618 329.416
L188.064 324.906
L188.51 329.64
L188.957 320.933
L189.403 329.552
L189.85 329.473
L190.296 329.253
L190.742 322.514
L191.189 329.412
L191.635 329.082
L192.082 321.516
L192.528 329.544
L192.974 329.453
L193.421 312.786
L193.867 329.63
L194.314 329.635
L194.76 328.894
L195.206 329.048
L195.653 329.851
L196.099 306.042
L196.546 329.129
L196.992 316.592
L197.438 329.737
L197.885 329.253
L198.331 322.012
L198.778 329.471
L199.224 329.126
L199.67 321.811
L200.117 329.075
L200.563 328.67
L201.01 314.599
L201.456 329.207
L201.902 329.54
L202.795 311.866
L203.242 327.168
L203.688 324.53
L204.134 320.536
L204.581 327.883
L205.027 328.182
L205.474 319.78
L205.92 300.201
L206.366 328.819
L206.813 319.556
L207.259 328.862
L208.152 311.522
L208.598 319.993
L209.045 315.228
L209.491 329.408
L209.938 329.271
L210.384 328.925
L210.83 329.151
L211.277 321.456
L211.723 328.976
L212.17 320.687
L212.616 327.734
L213.062 319.82
L213.509 303.364
L213.955 312.082
L214.402 328.951
L214.848 329.037
L215.294 328.857
L216.187 329.167
L217.08 328.942
L217.526 321.714
L217.973 328.708
L218.419 320.242
L218.866 329.608
L219.312 329.239
L219.758 329.256
L220.205 324.972
L220.651 329.718
L221.098 328.909
L221.544 321.29
L221.99 328.884
L222.437 329.892
L222.883 321.661
L223.33 320.545
L223.776 329.212
L224.222 329.034
L224.669 329.925
L225.115 329.509
L225.562 322.823
L226.008 329.95
L226.454 319.913
L226.901 321.46
L227.347 328.566
L227.794 329.293
L228.24 296.383
L228.686 300.59
L229.133 329.043
L229.579 328.222
L230.026 320.362
L230.472 328.341
L231.365 328.859
L231.811 328.184
L232.258 328.302
L232.704 328.122
L233.15 302.252
L233.597 328.906
L234.043 320.302
L234.49 329.253
L234.936 316.046
L235.382 321.304
L235.829 328.606
L236.275 329.271
L236.722 328.993
L237.168 329.501
L237.614 324.258
L238.061 312.52
L238.507 318.871
L238.954 329.163
L239.4 329.529
L239.846 314.077
L240.293 321.258
L240.739 310.197
L241.186 329.61
L241.632 329.403
L242.078 329.39
L242.525 329.668
L242.971 329.718
L243.418 315.484
L243.864 328.788
L244.31 326.994
L244.757 330.06
L245.203 329.199
L245.65 316.876
L246.096 327.235
L246.542 306.828
L246.989 328.006
L247.435 320.272
L247.882 329.013
L248.328 311.251
L248.774 329.224
L249.221 329.212
L249.667 313.594
L250.114 314.87
L250.56 304.205
L251.006 321.489
L251.453 318.93
L251.899 329.625
L252.346 321.296
L252.792 329.724
L253.238 329.721
L253.685 329.465
L254.131 322.704
L254.578 329.326
L255.024 329.453
L255.47 322.55
L255.917 328.873
L256.363 319.722
L256.81 321.321
L257.256 329.53
L257.702 328.878
L258.149 320.404
L258.595 320.175
L259.042 328.918
L259.488 329.271
L259.934 328.948
L260.381 329.463
L260.827 329.555
L261.274 327.684
L261.72 329.826
L262.613 310.054
L263.059 328.446
L263.506 329.061
L263.952 319.957
L264.398 327.834
L264.845 309.415
L265.291 319.934
L265.738 321.373
L266.184 328.081
L266.63 328.851
L267.077 324.726
L267.523 328.998
L267.97 320.125
L268.416 319.889
L268.862 319.409
L269.309 328.857
L269.755 328.905
L270.202 311.748
L270.648 320.747
L271.094 318.992
L271.541 311.36
L271.987 311.641
L272.434 329.153
L272.88 327.983
L273.326 328.748
L273.773 328.829
L274.219 311.373
L274.666 329.311
L275.112 329.79
L275.558 321.286
L276.005 329.344
L276.451 328.89
L276.898 318.198
L277.344 328.833
L277.79 328.741
L278.237 325.454
L278.683 327.627
L279.13 317.49
L279.576 328.931
L280.022 328.712
L280.469 328.338
L280.915 329.464
L281.362 319.876
L281.808 319.533
L282.254 329.275
L282.701 318.533
L283.147 328.976
L283.594 311.914
L284.04 305.858
L284.486 329.185
L284.933 313.291
L285.379 328.613
L285.826 329.436
L286.272 329.195
L286.718 311.574
L287.165 329.344
L287.611 321.374
L288.058 328.948
L288.504 312.105
L288.95 328.578
L289.397 329.198
L289.843 321.039
L290.29 328.724
L290.736 312.584
L291.182 325.055
L291.629 329
L292.075 320.741
L292.522 329.212
L292.968 329.104
L293.414 329.174
L293.861 326.533
L294.307 320.824
L294.754 330.063
L295.2 329.145
L295.646 329.299
L296.093 321.259
L296.539 329.58
L296.986 320.346
L297.432 327.99
L298.325 328.624
L298.771 328.429
L299.218 328.381
L299.664 328.682
L300.11 320.337
L300.557 328.381
L301.003 328.602
L301.45 328.475
L301.896 320.363
L302.342 329.254
L302.789 322.301
L303.235 328.384
L303.682 329.036
L304.574 312.061
L305.021 320.921
L305.467 315.055
L305.914 319.647
L306.36 320.891
L306.806 328.627
L307.253 328.306
L307.699 295.621
L308.146 328.948
L308.592 328.306
L309.038 328.898
L309.485 328.261
L309.931 328.625
L310.378 329.366
L310.824 328.535
L311.27 328.831
L311.717 328.937
L312.163 328.663
L312.61 325.841
L313.056 329.378
L313.502 328.486
L313.949 325.419
L314.395 328.346
L314.842 328.746
L315.288 312.45
L315.734 329.118
L316.181 310.543
L316.627 328.491
L317.074 321.28
L317.52 318.75
L317.966 328.711
L318.413 328.982
L318.859 324.857
L319.306 329.117
L319.752 311.862
L320.645 328.227
L321.091 328.485
L321.538 310.249
L321.984 328.189
L322.43 329.077
L322.877 312.346
L323.77 328.277
L324.216 328.535
L324.662 311.693
L325.109 329.255
L325.555 319.228
L326.002 320.936
L326.448 320.27
L326.894 319.91
L327.341 328.414
L327.787 324.295
L328.234 325.616
L328.68 328.82
L329.126 328.371
L329.573 327.11
L330.019 320.328
L330.466 328.768
L330.912 328.932
L331.358 328.55
L331.805 329.405
L332.251 328.507
L332.698 300.689
L333.144 320.393
L333.59 320.629
L334.037 327.909
L334.483 329.266
L334.93 321.493
L335.376 327.761
L335.822 328.442
L336.269 327.256
L336.715 329.263
L337.162 311.689
L337.608 320.429
L338.054 321.625
L338.501 320.295
L338.947 320.529
L339.394 329.268
L339.84 329.081
L340.286 317.573
L340.733 328.646
L341.179 328.421
L341.626 326.058
L342.072 328.298
L342.518 328.399
L342.965 319.549
L343.411 327.992
L343.858 328.317
L344.304 302.385
L344.75 327.729
L345.197 310.738
L345.643 329.151
L346.09 303.924
L346.536 328.943
L346.982 321.068
L347.429 321.512
L347.875 329.181
L348.322 308.419
L348.768 328.947
L349.214 320.936
L349.661 329.852
L350.107 328.244
L351 311.706
L351.446 328.24
L351.893 328.352
L352.339 328.1
L352.786 328.339
L353.232 329.123
L353.678 327.898
L354.125 319.68
L354.571 318.244
L355.018 328.779
L355.464 328.405
L355.91 326.644
L356.357 328.979
L356.803 311.097
L357.25 328.994
L357.696 311.343
L358.142 328.417
L358.589 329.248
L359.035 328.043
L359.482 328.628
L359.928 328.791
L360.374 328.382
L360.821 318.796
L361.267 319.683
L361.714 328.326
L362.16 329.022
L362.606 313.144
L363.053 289.88
L363.499 320.167
L363.946 320.761
L364.392 328.202
L364.838 326.275
L365.285 161.576
L365.731 329.459
L366.178 313.347
L366.624 328.9
L367.07 328.826
L367.517 328.994
L367.963 328.756
L368.41 328.964
L368.856 320.198
L369.302 328.908
L369.749 329.416
L370.195 329.081
L370.642 328.945
L371.088 329.458
L371.534 329.269
L371.981 328.89
L372.427 329.019
L372.874 326.146
L373.32 329.111
L373.766 329.254
L374.213 317.063
L374.659 329.315
L375.106 320.231
L375.552 329.831
L375.998 329.069
L376.445 327.372
L376.891 309.239
L377.338 329.076
L377.784 328.223
L378.23 328.262
L378.677 329.297
L379.123 310.849
L379.57 328.081
L380.462 314.612
L380.909 329.209
L381.355 328.92
L381.802 329.127
L382.248 329.032
L382.694 321.016
L383.141 320.249
L383.587 328.875
L384.034 320.09
L384.48 329.254
L384.926 328.608
L385.373 318.969
L385.819 329.42
L386.266 318.816
L386.712 296.77
L387.158 318.757
L387.605 320.242
L388.051 312.685
L388.498 329.151
L388.944 321.739
L389.39 320.484
L389.837 328.995
L390.283 328.02
L390.73 321.114
L391.176 309.483
L391.622 320.935
L392.069 328.921
L392.515 329.998
L392.962 327.518
L393.408 320.01
L393.854 328.592
L394.301 322.972
L394.747 328.955
L395.194 328.922
L395.64 318.39
L396.086 327.871
L396.533 314.468
L396.979 328.515
L397.426 328.52
L397.872 326.332
L398.318 328.891
L398.765 328.745
L399.211 308.853
L400.104 329.042
L400.55 328.693
L400.997 328.533
L401.443 328.955
L401.89 329.09
L402.336 328.327
L403.229 329.511
L403.675 327.328
L404.122 329.103
L404.568 328.985
L405.014 325.33
L405.461 329.276
L405.907 328.942
L406.354 324.711
L406.8 329.033
L407.246 328.979
L408.139 320.63
L408.586 329.024
L409.032 329.183
L409.478 329.19
L409.925 328.93
L410.371 312.334
L410.818 328.017
L411.264 328.574
L411.71 327.913
L412.157 327.92
L412.603 320.142
L413.05 328.187
L413.496 329.294
L413.942 328.965
L414.389 328.812
L414.835 328.969
L415.282 328.679
L415.728 329.34
L416.174 320.557
L416.621 329.842
L417.067 327.478
L417.514 328.4
L417.96 311.106
L418.406 320.827
L419.299 184.934
L419.746 329.604
L420.192 329.035
L420.638 327.578
L421.085 329.691
L421.531 328.735
L421.978 325.804
L422.424 329.212
L422.87 329.545
L423.317 324.734
L423.763 312.533
L424.656 329.273
L425.102 319.457
L425.549 299.512
L425.995 328.404
L426.442 328.959
L426.888 314.686
L427.334 328.857
L427.781 328.993
L428.227 328.574
L428.674 328.72
L429.12 328.212
L429.566 328.821
L430.013 320.859
L430.459 328.564
L430.906 329.075
L431.352 327.607
L431.798 319.997
L432.245 328.408
L432.691 329.373
L433.138 311.946
L433.584 329.242
L434.03 328.357
L434.477 328.421
L434.923 328.323
L435.37 329.052
L435.816 329.403
L436.262 318.518
L436.709 328.912
L437.155 328.846
L437.602 329.147
L438.048 329.118
L438.494 328.886
L438.941 320.794
L439.387 327.548
L440.28 329.362
L440.726 329.646
L441.173 319.129
L441.619 328.623
L442.066 320.73
L442.512 320.174
L442.958 329.049
L443.405 309.358
L443.851 312.355
L444.298 321.035
L444.744 321.196
L445.19 317.793
L445.637 312.734
L446.083 327.251
L446.53 329.395
L446.976 320.132
L447.422 327.965
L447.869 328.986
L448.315 328.427
L448.762 328.692
L449.208 328.75
L449.654 322.691
L450.101 329.254
L450.547 329.229
L450.994 324.421
L451.44 328.998
L451.886 328.701
L452.333 325.647
L452.779 329.247
L453.226 320.415
L453.672 329.141
L454.118 320.107
L454.565 317.94
L455.011 329.677
L455.458 328.796
L455.904 321.1
L456.35 327.927
L456.797 320.179
L457.243 328.37
L457.69 328.237
L458.136 320.233
L458.582 322.582
L459.029 319.969
L459.475 328.494
L459.922 319.531
L460.368 320.486
L460.814 328.755
L461.261 319.566
L461.707 317.12
L462.154 327.955
L462.6 328.804
L463.046 311.791
L463.493 328.717
L463.939 328.024
L464.386 320.509
L464.832 304.084
L465.278 297.728
L465.725 311.78
L466.171 320.666
L466.618 319.968
L467.064 328.126
L467.51 328.55
L467.957 328.565
L468.403 328.735
L468.85 320.451
L469.296 319.131
L469.742 327.956
L470.189 329.164
L470.635 327.946
L471.082 311.641
L471.528 327.243
L471.974 328.362
L472.421 328.658
L472.867 311.516
L473.314 328.825
L473.76 328.624
L474.206 321.082
L474.653 303.468
L475.099 328.105
L475.546 312.177
L475.992 328.334
L476.438 328.747
L477.331 311.066
L477.778 328.7
L478.224 328.715
L478.67 328.329
L479.117 328.96
L479.563 328.584
L480.01 328.568
L480.456 328.927
L480.902 328.951
L481.349 310.917
L481.795 328.221
L482.242 319.787
L482.688 316.93
L483.134 320.308
L483.581 320.239
L484.027 329.496
L484.474 328.977
L484.92 319.44
L485.366 328.889
L485.813 328.618
L486.259 327.024
L486.706 328.881
L487.152 328.858
L487.598 326.668
L488.045 328.92
L488.491 312.22
L488.938 327.799
L489.384 310.763
L489.83 328.79
L490.277 303.373
L490.723 327.861
L491.17 328.362
L491.616 328.625
L492.062 328.409
L492.509 319.93
L492.955 329.575
L493.402 320.666
L493.848 324.373
L494.294 311.964
L494.741 329.025
L495.187 329.555
L495.634 321.036
L496.08 304.452
L496.526 329.215
L496.973 315.642
L497.419 320.629
L497.866 321.489
L498.312 329.313
L498.758 312.458
L499.205 329.085
L499.651 328.63
L500.098 303.099
L500.544 321.209
L500.99 319.606
L501.437 329.276
L501.883 321.219
L502.33 321.029
L502.776 328.851
L503.222 317.68
L503.669 329.111
L504.115 329.071
L504.562 326.686
L505.008 328.628
L505.454 321.322
L505.901 328.779
L506.347 329.34
L506.794 318.191
L507.24 328.982
L507.686 329.177
L508.133 320.619
L508.579 320.834
L509.026 317.903
L509.472 329.402
L509.918 329.292
L510.365 312.54
L510.811 328.312
L511.258 319.827
L511.704 328.838
L512.15 328.494
L512.597 327.168
L513.043 311.239
L513.49 328.563
L513.936 328.131
L514.382 328.466
L514.829 328.365
L515.275 328.403
L515.722 317.159
L516.168 313.825
L516.614 319.866
L517.061 311.27
L517.507 328.202
L517.954 328.554
L517.954 328.554" style="fill:none;opacity:0.7;stroke:#008000;"/>
   </g>
   <g id="line2d_3">
    <path clip-path="url(#p7ff5b81e1d)" d="
M72 287.297
L72.4464 281.409
L72.8928 210.686
L73.3392 298.329
L73.7856 297.27
L74.232 285.714
L74.6784 285.342
L75.1248 297.011
L75.5712 291.975
L76.0176 297.003
L76.464 282.904
L76.9104 297.882
L77.3568 297.557
L77.8032 293.393
L78.696 298.285
L79.1424 296.643
L79.5888 322.47
L80.0352 323.255
L80.4816 294.086
L80.928 280.375
L81.3744 293.992
L81.8208 297.395
L82.2672 286.224
L82.7136 298.474
L83.16 298.165
L83.6064 299.067
L84.0528 324.902
L84.4992 323.993
L84.9456 299.013
L85.392 298.805
L85.8384 321.135
L86.2848 294.904
L86.7312 324.312
L87.1776 297.704
L87.624 293.161
L88.0704 296.705
L88.5168 297.189
L88.9632 296.5
L89.4096 297.148
L89.856 324.023
L90.3024 322.164
L90.7488 296.13
L91.1952 318.861
L91.6416 285.173
L92.088 319.089
L92.5344 322.872
L92.9808 297.403
L93.4272 319.548
L94.32 323.709
L94.7664 324.374
L95.2128 323.276
L95.6592 324.979
L96.1056 324.123
L96.552 297.739
L96.9984 324.185
L97.4448 297.943
L97.8912 321.912
L98.3376 279.884
L98.784 298.627
L99.2304 324.579
L99.6768 324.027
L100.123 324.044
L100.57 323.384
L101.016 324.993
L101.462 324.358
L101.909 324.585
L102.355 292.713
L102.802 324.132
L103.248 325.245
L103.694 324.74
L104.141 323.946
L104.587 323.903
L105.034 309.495
L105.48 322.383
L105.926 306.542
L106.373 324.478
L106.819 297.065
L107.266 323.956
L107.712 323.811
L108.158 323.507
L108.605 322.562
L109.051 323.537
L109.498 323.612
L109.944 323.169
L110.39 324.652
L110.837 296.714
L111.283 292.483
L111.73 322.731
L112.176 324.09
L112.622 323.904
L113.069 321.31
L113.515 296.824
L113.962 323.79
L114.408 324.136
L114.854 323.119
L115.301 312.084
L115.747 285.677
L116.194 316.462
L117.086 324.023
L117.533 322.158
L117.979 324.184
L118.426 324.282
L118.872 324.814
L119.318 324.47
L119.765 325.078
L120.211 324.228
L121.104 324.998
L121.55 325.219
L121.997 324.308
L122.443 324.368
L122.89 325.362
L123.336 309.222
L123.782 322.686
L124.675 323.904
L125.122 323.993
L125.568 323.63
L126.014 320.597
L126.461 323.698
L126.907 323.044
L127.354 323.475
L128.246 323.48
L128.693 287.421
L129.139 323.077
L129.586 323.913
L130.032 323.497
L130.478 323.878
L130.925 324.001
L131.371 323.587
L131.818 322.114
L132.264 323.35
L132.71 323.25
L133.157 324.005
L133.603 323.111
L134.05 323.716
L134.496 323.429
L134.942 306.822
L135.389 323.473
L135.835 314.865
L136.282 323.027
L136.728 323.889
L137.174 323.676
L137.621 322.684
L138.067 296.756
L138.514 323.909
L138.96 323.385
L139.406 297.325
L139.853 323.412
L140.299 315.341
L140.746 324.05
L141.192 311.987
L141.638 314.654
L142.085 323.4
L142.978 322.631
L143.424 314.585
L143.87 323.98
L144.317 320.697
L144.763 323.707
L145.21 311.727
L145.656 323.331
L146.102 323.594
L146.549 323.416
L146.995 323.502
L147.442 323.28
L147.888 314.382
L148.334 293.743
L148.781 322.92
L149.227 323.68
L149.674 314.072
L150.12 323.041
L150.566 314.11
L151.013 315.508
L151.459 307.991
L152.352 323.322
L152.798 323.825
L153.691 323.947
L154.138 308.802
L154.584 319.374
L155.03 324.377
L155.477 312.323
L155.923 323.793
L156.37 313.253
L156.816 312.158
L157.262 300.278
L157.709 323.949
L158.155 313.027
L158.602 314.398
L159.048 315.303
L159.494 305.732
L159.941 309.474
L160.387 323.622
L160.834 315.151
L161.28 296.965
L162.173 323.851
L162.619 303.891
L163.066 306.078
L163.512 314.108
L163.958 315.539
L164.405 312.93
L164.851 324.237
L165.298 316.299
L165.744 323.765
L166.19 315.444
L166.637 316.512
L167.083 324.361
L167.53 324.378
L167.976 313.186
L168.422 324.883
L168.869 324.707
L169.315 324.173
L169.762 315.387
L170.208 323.963
L170.654 324.87
L171.101 324.621
L171.547 325.073
L171.994 323.018
L172.44 324.594
L172.886 316.122
L173.333 315.18
L173.779 325.038
L174.226 324.266
L174.672 322.101
L175.118 314.045
L175.565 322.745
L176.011 323.178
L176.458 323.929
L176.904 323.602
L177.35 314.324
L177.797 322.53
L178.243 324.005
L179.136 308.804
L179.582 323.271
L180.029 324.135
L180.475 321.476
L180.922 313.257
L181.368 307.797
L181.814 319.156
L182.261 323.8
L182.707 312.913
L183.154 323.831
L183.6 323.167
L184.046 323.619
L184.493 306.917
L184.939 323.989
L185.832 322.897
L186.278 324.398
L187.171 324.587
L187.618 324.494
L188.064 324.803
L188.51 316.01
L188.957 324.644
L189.403 324.745
L189.85 324.578
L190.296 324.773
L190.742 322.86
L191.189 309.077
L191.635 308.544
L192.082 292.341
L192.528 320.557
L192.974 306.795
L193.421 308.832
L193.867 323.574
L194.314 323.017
L194.76 322.917
L195.206 323.841
L195.653 305.48
L196.099 323.625
L196.546 315.842
L196.992 299.571
L197.438 321.09
L197.885 323.183
L198.331 323.876
L198.778 322.118
L199.224 323.343
L199.67 309.318
L200.117 324.008
L200.563 314.391
L201.01 320.365
L201.456 315.229
L201.902 306.506
L202.349 323.715
L202.795 322.703
L203.242 323.705
L203.688 323.867
L204.134 321.193
L204.581 323.546
L205.027 323.527
L205.474 307.107
L205.92 307.807
L206.366 284.478
L206.813 293.998
L207.259 314.972
L207.706 324.108
L208.152 299.737
L208.598 316.282
L209.045 321.562
L209.491 324.328
L209.938 316.249
L210.384 317.123
L210.83 315.997
L211.277 323.704
L211.723 325.479
L212.17 312.488
L212.616 314.791
L213.062 323.957
L213.509 269.915
L213.955 324.234
L214.402 316.355
L214.848 323.897
L215.294 324.102
L215.741 316.242
L216.187 316.179
L216.634 316.343
L217.08 324.738
L217.526 309.13
L217.973 322.021
L218.419 315.453
L218.866 323.604
L219.312 320.407
L219.758 308.337
L220.205 324.066
L220.651 323.144
L221.098 312.535
L221.544 314.951
L221.99 314.132
L222.437 323.194
L222.883 322.997
L223.33 322.62
L223.776 323.834
L224.222 314.599
L224.669 323.317
L225.115 322.496
L225.562 295.903
L226.008 313.382
L226.454 308.218
L226.901 323.258
L227.794 322.454
L228.24 323.624
L228.686 322.37
L229.133 323.877
L229.579 323.441
L230.026 312.931
L230.472 314.411
L230.918 323.595
L231.365 315.148
L231.811 313.826
L232.258 315.219
L232.704 241.023
L233.15 198.805
L233.597 311.828
L234.043 324.832
L234.49 316.442
L234.936 323.053
L235.382 324.429
L236.275 323.889
L236.722 309.216
L237.168 311.953
L237.614 323.184
L238.061 323.1
L238.507 322.31
L238.954 314.207
L239.4 314.18
L239.846 324.093
L240.293 322.448
L240.739 321.881
L241.186 321.805
L241.632 300.845
L242.078 316.355
L242.525 317.334
L242.971 322.296
L243.418 324.184
L243.864 323.833
L244.757 325.042
L245.65 306.891
L246.096 312.698
L246.542 322.918
L246.989 314.055
L247.435 315.112
L247.882 307.265
L248.328 323.626
L248.774 324.771
L249.221 323.706
L249.667 325.163
L250.114 323.677
L250.56 324.833
L251.006 324.646
L251.453 324.017
L251.899 324.728
L252.346 324.941
L252.792 323.863
L253.238 316.567
L253.685 324.891
L254.131 316.187
L254.578 290.693
L255.024 324.843
L255.47 324.766
L256.363 325.096
L256.81 322.7
L257.256 324.033
L257.702 323.481
L258.149 324.958
L258.595 325.351
L259.042 324.459
L259.488 324.768
L259.934 322.206
L260.381 324.242
L260.827 324.81
L261.274 324.43
L261.72 325.041
L262.166 325.027
L262.613 321.964
L263.059 307.218
L263.506 323.168
L263.952 322.855
L264.398 324.225
L264.845 297.388
L265.291 323.706
L265.738 308.511
L266.184 324.099
L266.63 323.211
L267.077 315.149
L267.523 323.134
L267.97 323.581
L268.416 314.35
L268.862 315.062
L269.309 323.782
L269.755 324.002
L270.202 323.771
L270.648 323.281
L271.094 320.803
L271.541 323.414
L271.987 315.093
L272.434 323.259
L272.88 315.158
L273.326 323.94
L273.773 323.561
L274.219 323.861
L274.666 315.221
L275.112 323.107
L275.558 322.344
L276.005 314.714
L276.451 324.168
L276.898 322.862
L277.344 323.12
L277.79 323.53
L278.237 314.92
L278.683 322.08
L279.13 323.971
L279.576 322.123
L280.022 314.934
L280.469 315.011
L280.915 323.078
L281.808 324.061
L282.254 324.403
L282.701 322.283
L283.147 314.593
L283.594 323.98
L284.04 323.306
L284.486 313.431
L284.933 323.449
L285.379 315.052
L285.826 323.479
L286.272 306.463
L286.718 315.257
L287.165 313.838
L287.611 323.029
L288.058 323.162
L288.504 322.515
L288.95 308.011
L289.397 323.103
L289.843 314.651
L290.29 323.935
L290.736 321.113
L291.182 322.884
L291.629 323.285
L292.075 315.179
L292.522 321.841
L292.968 323.02
L293.414 315.421
L293.861 323.285
L294.307 323.832
L294.754 323.538
L295.646 324.899
L296.093 324.045
L296.539 315.333
L296.986 315.765
L297.432 306.584
L297.878 323.633
L298.325 322.998
L298.771 323.517
L299.218 315.067
L299.664 312.302
L300.11 324.2
L300.557 324.491
L301.003 324.441
L301.896 309.074
L302.342 322.996
L302.789 306.264
L303.235 323.885
L303.682 324.609
L304.128 322.788
L304.574 301.855
L305.021 311.06
L305.467 324
L305.914 296.476
L306.36 323.456
L306.806 312.754
L307.253 324.718
L307.699 325.004
L308.146 316.027
L308.592 309.799
L309.038 322.25
L309.485 307.195
L309.931 321.436
L310.378 314.773
L310.824 297.796
L311.27 322.74
L311.717 306.643
L312.163 323.934
L312.61 323.989
L313.502 307.895
L313.949 324.225
L314.395 297.802
L314.842 323.702
L315.288 324.569
L315.734 324.745
L316.627 307.668
L317.074 313.091
L317.52 307.797
L317.966 324.938
L318.413 293.47
L318.859 304.999
L319.306 298.609
L319.752 324.12
L320.198 324.17
L320.645 316.224
L321.091 324.705
L321.538 322.026
L321.984 324.536
L322.43 315.948
L322.877 273.784
L323.323 322.33
L323.77 323.905
L324.216 308.722
L324.662 325.147
L325.109 316.331
L325.555 324.974
L326.002 316.955
L326.448 324.583
L326.894 317.134
L327.341 324.983
L327.787 322.225
L328.234 315.693
L328.68 325.094
L329.126 324.299
L329.573 324.355
L330.019 322.936
L330.466 314.737
L330.912 323.577
L331.358 315.007
L331.805 323.41
L332.251 315.514
L332.698 314.846
L333.144 321.458
L333.59 322.6
L334.037 306.188
L334.483 324.167
L334.93 304.039
L335.376 323.521
L335.822 323.248
L336.715 324.297
L337.162 311.69
L337.608 323.18
L338.054 323.848
L338.501 323.497
L338.947 323.7
L339.394 322.716
L339.84 324.273
L340.733 323.925
L341.179 307.925
L341.626 297.744
L342.072 324.022
L342.518 324.929
L342.965 324.892
L343.411 325.008
L343.858 323.759
L344.304 324.66
L344.75 324.717
L345.197 299.537
L345.643 324.892
L346.09 316.946
L346.536 324.675
L346.982 323.675
L347.429 324.242
L347.875 325.406
L348.322 320.695
L348.768 323.878
L349.214 325.339
L349.661 324.23
L350.107 316.208
L350.554 324.683
L351 324.632
L351.446 324.434
L351.893 323.159
L352.339 324.466
L353.232 325.044
L353.678 324.726
L354.125 325.313
L354.571 324.577
L355.018 316.873
L355.464 324.906
L355.91 315.362
L356.357 313.384
L356.803 321.817
L357.25 315.163
L357.696 306.667
L358.142 323.693
L358.589 323.998
L359.035 324.05
L359.482 323.269
L359.928 322.901
L360.374 315.606
L360.821 323.363
L361.267 313.078
L361.714 323.266
L362.606 308.08
L363.053 321.63
L363.499 306.676
L363.946 312.037
L364.392 322.373
L364.838 323.478
L365.285 307.424
L366.178 323.523
L366.624 324.209
L367.07 325.118
L367.517 325.082
L367.963 313.438
L368.41 317.217
L368.856 329.856
L369.302 318.218
L369.749 321.525
L370.195 297.792
L370.642 322.84
L371.088 322.871
L371.534 314.753
L371.981 323.478
L372.427 322.222
L372.874 323.62
L373.32 323.499
L373.766 322.959
L374.213 300.608
L374.659 315.233
L375.106 323.409
L375.552 313.666
L375.998 324.249
L376.445 316.381
L376.891 315.988
L377.338 324.893
L377.784 307.609
L378.23 324.889
L378.677 323.756
L379.123 324.979
L379.57 321.204
L380.016 324.345
L380.462 314.905
L380.909 324.819
L381.802 324.167
L382.248 289.257
L382.694 308.807
L383.141 322.994
L383.587 314.378
L384.034 322.404
L384.48 323.415
L384.926 323.902
L385.373 323.071
L385.819 323.106
L386.266 323.744
L387.158 323.521
L387.605 314.506
L388.051 323.855
L388.498 323.912
L388.944 299.296
L389.39 299.195
L389.837 323.837
L390.73 323.439
L391.176 322.761
L391.622 313.289
L392.069 323.198
L392.515 323.451
L392.962 311.323
L393.408 323.94
L393.854 321.858
L394.301 323.083
L394.747 306.578
L395.194 324.173
L395.64 324.346
L396.086 316.052
L396.533 315.761
L396.979 321.879
L397.426 315.557
L397.872 316.475
L398.318 322.578
L398.765 311.559
L399.211 324.466
L399.658 323.983
L400.104 324.553
L400.997 324.63
L401.443 309.477
L401.89 322.788
L402.336 323.299
L402.782 323.205
L403.229 323.926
L403.675 314.61
L404.122 315.187
L404.568 321.822
L405.014 323.092
L405.461 323.599
L405.907 323.879
L406.354 323.35
L407.246 324.12
L407.693 323.628
L408.139 312.464
L408.586 315.038
L409.032 324.142
L409.478 315.552
L409.925 315.705
L410.371 314.353
L410.818 323.538
L411.264 323.479
L411.71 324.269
L412.157 313.21
L412.603 322.874
L413.05 323.95
L413.496 323.658
L413.942 323.875
L414.389 323.441
L414.835 313.102
L415.282 323.93
L415.728 314.807
L416.174 324.453
L416.621 314.909
L417.067 323.949
L417.514 315.42
L417.96 323.739
L418.406 323.634
L418.853 323.336
L419.299 324.134
L419.746 323.597
L420.192 324.132
L420.638 314.837
L421.085 323.435
L421.531 298.432
L421.978 323.066
L422.424 315.358
L422.87 324.54
L423.317 323.767
L423.763 323.994
L424.656 308.575
L425.102 323.099
L425.549 322.779
L425.995 323.503
L426.442 323.69
L426.888 312.664
L427.334 323.639
L427.781 323.104
L428.227 323.546
L428.674 323.21
L429.12 323.136
L429.566 308.1
L430.013 312.589
L430.459 324.763
L430.906 324.355
L431.352 324.207
L431.798 324.366
L432.245 306.02
L432.691 323.183
L433.138 309.864
L433.584 314.632
L434.03 323.766
L434.477 323.74
L434.923 324.005
L435.37 323.98
L435.816 312.407
L436.262 324.012
L436.709 314.178
L437.155 323.5
L437.602 323.789
L438.048 324.401
L438.494 307.638
L438.941 323.178
L439.387 324.219
L439.834 324.22
L440.28 308.447
L440.726 324.103
L441.173 324.306
L441.619 308.348
L442.066 312.295
L442.512 324.885
L442.958 316.317
L443.405 325.233
L443.851 317.106
L444.298 313.748
L444.744 324.785
L445.19 325.052
L445.637 323.601
L446.083 285.396
L446.53 324.58
L446.976 321.737
L447.422 324.686
L447.869 315.639
L448.315 322.878
L448.762 316.464
L449.208 323.048
L449.654 323.863
L450.101 324.172
L450.547 323.453
L450.994 323.292
L451.44 315.645
L451.886 324.629
L452.333 324.635
L452.779 325.292
L453.226 324.233
L453.672 323.92
L454.118 316.776
L454.565 321.997
L455.011 324.604
L455.458 324.627
L455.904 324.346
L456.35 324.903
L456.797 317.169
L457.243 322.231
L457.69 315.834
L458.136 323.218
L458.582 324.68
L459.029 325.099
L459.475 325.218
L459.922 324.999
L460.368 324.914
L460.814 322.075
L461.261 307.034
L461.707 323.691
L462.154 315.741
L462.6 324.857
L463.046 322.488
L463.493 315.825
L463.939 323.071
L464.386 325.092
L464.832 322.461
L465.278 324.072
L465.725 315.665
L466.171 323.114
L466.618 316.084
L467.064 322.826
L467.51 324.1
L467.957 313.894
L468.403 308.759
L468.85 321.755
L469.296 323.417
L469.742 323.695
L470.189 314.934
L470.635 315.27
L471.082 322.658
L471.528 324.202
L471.974 323.626
L472.421 323.696
L472.867 306.463
L473.314 323.46
L473.76 323.302
L474.206 322.974
L474.653 323.199
L475.099 313.104
L475.546 323.588
L475.992 322.985
L476.438 315.087
L476.885 315.911
L477.331 324.111
L477.778 323.7
L478.224 306.924
L478.67 314.845
L479.117 298.836
L479.563 315.14
L480.01 323.585
L480.456 323.548
L480.902 306.986
L481.349 323.553
L481.795 323.842
L482.242 323.743
L482.688 323.406
L483.134 324.11
L484.027 324.114
L484.474 323.8
L484.92 321.074
L485.366 323.189
L485.813 324.177
L486.259 315.121
L486.706 315.347
L487.152 323.806
L487.598 313.105
L488.045 307.317
L488.491 323.978
L488.938 315.112
L489.384 323.245
L489.83 323.619
L490.277 315.418
L490.723 316.063
L491.17 323.796
L491.616 323.947
L492.062 313.048
L492.509 322.998
L492.955 323.893
L494.294 323.582
L494.741 313.937
L495.187 322.568
L495.634 323.718
L496.08 323.511
L496.526 324.144
L496.973 298.371
L497.419 323.762
L497.866 307.209
L498.758 322.457
L499.205 322.975
L499.651 323.705
L500.098 315.519
L500.544 323.851
L500.99 323.012
L501.437 313.867
L501.883 324.406
L502.33 314.795
L502.776 323.05
L503.222 323.264
L503.669 324.067
L504.115 306.912
L504.562 324.052
L505.008 323.69
L505.454 315.696
L505.901 313.314
L506.347 314.911
L506.794 323.344
L507.24 322.968
L507.686 324.249
L508.133 323.222
L508.579 323.917
L509.026 323.647
L509.472 323.805
L509.918 323.616
L510.365 292.039
L510.811 324.416
L511.258 313.343
L511.704 324.682
L512.15 316.616
L512.597 324.703
L513.043 325.308
L513.49 315.477
L513.936 323.281
L514.382 323.342
L514.829 314.765
L515.275 312.452
L515.722 313.885
L516.168 314.925
L516.614 323.641
L517.061 324.137
L517.507 323.433
L517.954 323.215
L517.954 323.215" style="fill:none;opacity:0.5;stroke:#0000ff;"/>
   </g>
   <g id="matplotlib.axis_1">
    <g id="xtick_1">
     <g id="line2d_4">
      <path clip-path="url(#p7ff5b81e1d)" d="
M72 388.8
L72 43.2" style="fill:none;stroke:#000000;stroke-dasharray:1.000000,3.000000;stroke-dashoffset:0.0;stroke-linecap:butt;stroke-width:0.5;"/>
     </g>
     <g id="line2d_5">
      <defs>
       <path d="
M0 0
L0 -4" id="m0012dd4eef" style="stroke:#000000;stroke-linecap:butt;stroke-width:0.5;"/>
      </defs>
      <g>
       <use style="stroke:#000000;stroke-linecap:butt;stroke-width:0.5;" x="72.0" xlink:href="#m0012dd4eef" y="388.8"/>
      </g>
     </g>
     <g id="line2d_6">
      <defs>
       <path d="
M0 0
L0 4" id="m476344969c" style="stroke:#000000;stroke-linecap:butt;stroke-width:0.5;"/>
      </defs>
      <g>
       <use style="stroke:#000000;stroke-linecap:butt;stroke-width:0.5;" x="72.0" xlink:href="#m476344969c" y="43.2"/>
      </g>
     </g>
     <g id="text_1">
      <!-- 0 -->
      <defs>
       <path d="
M31.7812 66.4062
Q24.1719 66.4062 20.3281 58.9062
Q16.5 51.4219 16.5 36.375
Q16.5 21.3906 20.3281 13.8906
Q24.1719 6.39062 31.7812 6.39062
Q39.4531 6.39062 43.2812 13.8906
Q47.125 21.3906 47.125 36.375
Q47.125 51.4219 43.2812 58.9062
Q39.4531 66.4062 31.7812 66.4062
M31.7812 74.2188
Q44.0469 74.2188 50.5156 64.5156
Q56.9844 54.8281 56.9844 36.375
Q56.9844 17.9688 50.5156 8.26562
Q44.0469 -1.42188 31.7812 -1.42188
Q19.5312 -1.42188 13.0625 8.26562
Q6.59375 17.9688 6.59375 36.375
Q6.59375 54.8281 13.0625 64.5156
Q19.5312 74.2188 31.7812 74.2188" id="BitstreamVeraSans-Roman-30"/>
      </defs>
      <g transform="translate(68.9765625 401.70625)scale(0.12 -0.12)">
       <use xlink:href="#BitstreamVeraSans-Roman-30"/>
      </g>
     </g>
    </g>
    <g id="xtick_2">
     <g id="line2d_7">
      <path clip-path="url(#p7ff5b81e1d)" d="
M116.64 388.8
L116.64 43.2" style="fill:none;stroke:#000000;stroke-dasharray:1.000000,3.000000;stroke-dashoffset:0.0;stroke-linecap:butt;stroke-width:0.5;"/>
     </g>
     <g id="line2d_8">
      <g>
       <use style="stroke:#000000;stroke-linecap:butt;stroke-width:0.5;" x="116.64" xlink:href="#m0012dd4eef" y="388.8"/>
      </g>
     </g>
     <g id="line2d_9">
      <g>
       <use style="stroke:#000000;stroke-linecap:butt;stroke-width:0.5;" x="116.64" xlink:href="#m476344969c" y="43.2"/>
      </g>
     </g>
     <g id="text_2">
      <!-- 100 -->
      <defs>
       <path d="
M12.4062 8.29688
L28.5156 8.29688
L28.5156 63.9219
L10.9844 60.4062
L10.9844 69.3906
L28.4219 72.9062
L38.2812 72.9062
L38.2812 8.29688
L54.3906 8.29688
L54.3906 0
L12.4062 0
z
" id="BitstreamVeraSans-Roman-31"/>
      </defs>
      <g transform="translate(106.245 401.70625)scale(0.12 -0.12)">
       <use xlink:href="#BitstreamVeraSans-Roman-31"/>
       <use x="63.623046875" xlink:href="#BitstreamVeraSans-Roman-30"/>
       <use x="127.24609375" xlink:href="#BitstreamVeraSans-Roman-30"/>
      </g>
     </g>
    </g>
    <g id="xtick_3">
     <g id="line2d_10">
      <path clip-path="url(#p7ff5b81e1d)" d="
M161.28 388.8
L161.28 43.2" style="fill:none;stroke:#000000;stroke-dasharray:1.000000,3.000000;stroke-dashoffset:0.0;stroke-linecap:butt;stroke-width:0.5;"/>
     </g>
     <g id="line2d_11">
      <g>
       <use style="stroke:#000000;stroke-linecap:butt;stroke-width:0.5;" x="161.28" xlink:href="#m0012dd4eef" y="388.8"/>
      </g>
     </g>
     <g id="line2d_12">
      <g>
       <use style="stroke:#000000;stroke-linecap:butt;stroke-width:0.5;" x="161.28" xlink:href="#m476344969c" y="43.2"/>
      </g>
     </g>
     <g id="text_3">
      <!-- 200 -->
      <defs>
       <path d="
M19.1875 8.29688
L53.6094 8.29688
L53.6094 0
L7.32812 0
L7.32812 8.29688
Q12.9375 14.1094 22.625 23.8906
Q32.3281 33.6875 34.8125 36.5312
Q39.5469 41.8438 41.4219 45.5312
Q43.3125 49.2188 43.3125 52.7812
Q43.3125 58.5938 39.2344 62.25
Q35.1562 65.9219 28.6094 65.9219
Q23.9688 65.9219 18.8125 64.3125
Q13.6719 62.7031 7.8125 59.4219
L7.8125 69.3906
Q13.7656 71.7812 18.9375 73
Q24.125 74.2188 28.4219 74.2188
Q39.75 74.2188 46.4844 68.5469
Q53.2188 62.8906 53.2188 53.4219
Q53.2188 48.9219 51.5312 44.8906
Q49.8594 40.875 45.4062 35.4062
Q44.1875 33.9844 37.6406 27.2188
Q31.1094 20.4531 19.1875 8.29688" id="BitstreamVeraSans-Roman-32"/>
      </defs>
      <g transform="translate(150.665625 401.70625)scale(0.12 -0.12)">
       <use xlink:href="#BitstreamVeraSans-Roman-32"/>
       <use x="63.623046875" xlink:href="#BitstreamVeraSans-Roman-30"/>
       <use x="127.24609375" xlink:href="#BitstreamVeraSans-Roman-30"/>
      </g>
     </g>
    </g>
    <g id="xtick_4">
     <g id="line2d_13">
      <path clip-path="url(#p7ff5b81e1d)" d="
M205.92 388.8
L205.92 43.2" style="fill:none;stroke:#000000;stroke-dasharray:1.000000,3.000000;stroke-dashoffset:0.0;stroke-linecap:butt;stroke-width:0.5;"/>
     </g>
     <g id="line2d_14">
      <g>
       <use style="stroke:#000000;stroke-linecap:butt;stroke-width:0.5;" x="205.92" xlink:href="#m0012dd4eef" y="388.8"/>
      </g>
     </g>
     <g id="line2d_15">
      <g>
       <use style="stroke:#000000;stroke-linecap:butt;stroke-width:0.5;" x="205.92" xlink:href="#m476344969c" y="43.2"/>
      </g>
     </g>
     <g id="text_4">
      <!-- 300 -->
      <defs>
       <path d="
M40.5781 39.3125
Q47.6562 37.7969 51.625 33
Q55.6094 28.2188 55.6094 21.1875
Q55.6094 10.4062 48.1875 4.48438
Q40.7656 -1.42188 27.0938 -1.42188
Q22.5156 -1.42188 17.6562 -0.515625
Q12.7969 0.390625 7.625 2.20312
L7.625 11.7188
Q11.7188 9.32812 16.5938 8.10938
Q21.4844 6.89062 26.8125 6.89062
Q36.0781 6.89062 40.9375 10.5469
Q45.7969 14.2031 45.7969 21.1875
Q45.7969 27.6406 41.2812 31.2656
Q36.7656 34.9062 28.7188 34.9062
L20.2188 34.9062
L20.2188 43.0156
L29.1094 43.0156
Q36.375 43.0156 40.2344 45.9219
Q44.0938 48.8281 44.0938 54.2969
Q44.0938 59.9062 40.1094 62.9062
Q36.1406 65.9219 28.7188 65.9219
Q24.6562 65.9219 20.0156 65.0312
Q15.375 64.1562 9.8125 62.3125
L9.8125 71.0938
Q15.4375 72.6562 20.3438 73.4375
Q25.25 74.2188 29.5938 74.2188
Q40.8281 74.2188 47.3594 69.1094
Q53.9062 64.0156 53.9062 55.3281
Q53.9062 49.2656 50.4375 45.0938
Q46.9688 40.9219 40.5781 39.3125" id="BitstreamVeraSans-Roman-33"/>
      </defs>
      <g transform="translate(195.3234375 401.70625)scale(0.12 -0.12)">
       <use xlink:href="#BitstreamVeraSans-Roman-33"/>
       <use x="63.623046875" xlink:href="#BitstreamVeraSans-Roman-30"/>
       <use x="127.24609375" xlink:href="#BitstreamVeraSans-Roman-30"/>
      </g>
     </g>
    </g>
    <g id="xtick_5">
     <g id="line2d_16">
      <path clip-path="url(#p7ff5b81e1d)" d="
M250.56 388.8
L250.56 43.2" style="fill:none;stroke:#000000;stroke-dasharray:1.000000,3.000000;stroke-dashoffset:0.0;stroke-linecap:butt;stroke-width:0.5;"/>
     </g>
     <g id="line2d_17">
      <g>
       <use style="stroke:#000000;stroke-linecap:butt;stroke-width:0.5;" x="250.56" xlink:href="#m0012dd4eef" y="388.8"/>
      </g>
     </g>
     <g id="line2d_18">
      <g>
       <use style="stroke:#000000;stroke-linecap:butt;stroke-width:0.5;" x="250.56" xlink:href="#m476344969c" y="43.2"/>
      </g>
     </g>
     <g id="text_5">
      <!-- 400 -->
      <defs>
       <path d="
M37.7969 64.3125
L12.8906 25.3906
L37.7969 25.3906
z

M35.2031 72.9062
L47.6094 72.9062
L47.6094 25.3906
L58.0156 25.3906
L58.0156 17.1875
L47.6094 17.1875
L47.6094 0
L37.7969 0
L37.7969 17.1875
L4.89062 17.1875
L4.89062 26.7031
z
" id="BitstreamVeraSans-Roman-34"/>
      </defs>
      <g transform="translate(239.799375 401.70625)scale(0.12 -0.12)">
       <use xlink:href="#BitstreamVeraSans-Roman-34"/>
       <use x="63.623046875" xlink:href="#BitstreamVeraSans-Roman-30"/>
       <use x="127.24609375" xlink:href="#BitstreamVeraSans-Roman-30"/>
      </g>
     </g>
    </g>
    <g id="xtick_6">
     <g id="line2d_19">
      <path clip-path="url(#p7ff5b81e1d)" d="
M295.2 388.8
L295.2 43.2" style="fill:none;stroke:#000000;stroke-dasharray:1.000000,3.000000;stroke-dashoffset:0.0;stroke-linecap:butt;stroke-width:0.5;"/>
     </g>
     <g id="line2d_20">
      <g>
       <use style="stroke:#000000;stroke-linecap:butt;stroke-width:0.5;" x="295.2" xlink:href="#m0012dd4eef" y="388.8"/>
      </g>
     </g>
     <g id="line2d_21">
      <g>
       <use style="stroke:#000000;stroke-linecap:butt;stroke-width:0.5;" x="295.2" xlink:href="#m476344969c" y="43.2"/>
      </g>
     </g>
     <g id="text_6">
      <!-- 500 -->
      <defs>
       <path d="
M10.7969 72.9062
L49.5156 72.9062
L49.5156 64.5938
L19.8281 64.5938
L19.8281 46.7344
Q21.9688 47.4688 24.1094 47.8281
Q26.2656 48.1875 28.4219 48.1875
Q40.625 48.1875 47.75 41.5
Q54.8906 34.8125 54.8906 23.3906
Q54.8906 11.625 47.5625 5.09375
Q40.2344 -1.42188 26.9062 -1.42188
Q22.3125 -1.42188 17.5469 -0.640625
Q12.7969 0.140625 7.71875 1.70312
L7.71875 11.625
Q12.1094 9.23438 16.7969 8.0625
Q21.4844 6.89062 26.7031 6.89062
Q35.1562 6.89062 40.0781 11.3281
Q45.0156 15.7656 45.0156 23.3906
Q45.0156 31 40.0781 35.4375
Q35.1562 39.8906 26.7031 39.8906
Q22.75 39.8906 18.8125 39.0156
Q14.8906 38.1406 10.7969 36.2812
z
" id="BitstreamVeraSans-Roman-35"/>
      </defs>
      <g transform="translate(284.6090625 401.70625)scale(0.12 -0.12)">
       <use xlink:href="#BitstreamVeraSans-Roman-35"/>
       <use x="63.623046875" xlink:href="#BitstreamVeraSans-Roman-30"/>
       <use x="127.24609375" xlink:href="#BitstreamVeraSans-Roman-30"/>
      </g>
     </g>
    </g>
    <g id="xtick_7">
     <g id="line2d_22">
      <path clip-path="url(#p7ff5b81e1d)" d="
M339.84 388.8
L339.84 43.2" style="fill:none;stroke:#000000;stroke-dasharray:1.000000,3.000000;stroke-dashoffset:0.0;stroke-linecap:butt;stroke-width:0.5;"/>
     </g>
     <g id="line2d_23">
      <g>
       <use style="stroke:#000000;stroke-linecap:butt;stroke-width:0.5;" x="339.84" xlink:href="#m0012dd4eef" y="388.8"/>
      </g>
     </g>
     <g id="line2d_24">
      <g>
       <use style="stroke:#000000;stroke-linecap:butt;stroke-width:0.5;" x="339.84" xlink:href="#m476344969c" y="43.2"/>
      </g>
     </g>
     <g id="text_7">
      <!-- 600 -->
      <defs>
       <path d="
M33.0156 40.375
Q26.375 40.375 22.4844 35.8281
Q18.6094 31.2969 18.6094 23.3906
Q18.6094 15.5312 22.4844 10.9531
Q26.375 6.39062 33.0156 6.39062
Q39.6562 6.39062 43.5312 10.9531
Q47.4062 15.5312 47.4062 23.3906
Q47.4062 31.2969 43.5312 35.8281
Q39.6562 40.375 33.0156 40.375
M52.5938 71.2969
L52.5938 62.3125
Q48.875 64.0625 45.0938 64.9844
Q41.3125 65.9219 37.5938 65.9219
Q27.8281 65.9219 22.6719 59.3281
Q17.5312 52.7344 16.7969 39.4062
Q19.6719 43.6562 24.0156 45.9219
Q28.375 48.1875 33.5938 48.1875
Q44.5781 48.1875 50.9531 41.5156
Q57.3281 34.8594 57.3281 23.3906
Q57.3281 12.1562 50.6875 5.35938
Q44.0469 -1.42188 33.0156 -1.42188
Q20.3594 -1.42188 13.6719 8.26562
Q6.98438 17.9688 6.98438 36.375
Q6.98438 53.6562 15.1875 63.9375
Q23.3906 74.2188 37.2031 74.2188
Q40.9219 74.2188 44.7031 73.4844
Q48.4844 72.75 52.5938 71.2969" id="BitstreamVeraSans-Roman-36"/>
      </defs>
      <g transform="translate(329.205 401.70625)scale(0.12 -0.12)">
       <use xlink:href="#BitstreamVeraSans-Roman-36"/>
       <use x="63.623046875" xlink:href="#BitstreamVeraSans-Roman-30"/>
       <use x="127.24609375" xlink:href="#BitstreamVeraSans-Roman-30"/>
      </g>
     </g>
    </g>
    <g id="xtick_8">
     <g id="line2d_25">
      <path clip-path="url(#p7ff5b81e1d)" d="
M384.48 388.8
L384.48 43.2" style="fill:none;stroke:#000000;stroke-dasharray:1.000000,3.000000;stroke-dashoffset:0.0;stroke-linecap:butt;stroke-width:0.5;"/>
     </g>
     <g id="line2d_26">
      <g>
       <use style="stroke:#000000;stroke-linecap:butt;stroke-width:0.5;" x="384.48" xlink:href="#m0012dd4eef" y="388.8"/>
      </g>
     </g>
     <g id="line2d_27">
      <g>
       <use style="stroke:#000000;stroke-linecap:butt;stroke-width:0.5;" x="384.48" xlink:href="#m476344969c" y="43.2"/>
      </g>
     </g>
     <g id="text_8">
      <!-- 700 -->
      <defs>
       <path d="
M8.20312 72.9062
L55.0781 72.9062
L55.0781 68.7031
L28.6094 0
L18.3125 0
L43.2188 64.5938
L8.20312 64.5938
z
" id="BitstreamVeraSans-Roman-37"/>
      </defs>
      <g transform="translate(373.918125 401.70625)scale(0.12 -0.12)">
       <use xlink:href="#BitstreamVeraSans-Roman-37"/>
       <use x="63.623046875" xlink:href="#BitstreamVeraSans-Roman-30"/>
       <use x="127.24609375" xlink:href="#BitstreamVeraSans-Roman-30"/>
      </g>
     </g>
    </g>
    <g id="xtick_9">
     <g id="line2d_28">
      <path clip-path="url(#p7ff5b81e1d)" d="
M429.12 388.8
L429.12 43.2" style="fill:none;stroke:#000000;stroke-dasharray:1.000000,3.000000;stroke-dashoffset:0.0;stroke-linecap:butt;stroke-width:0.5;"/>
     </g>
     <g id="line2d_29">
      <g>
       <use style="stroke:#000000;stroke-linecap:butt;stroke-width:0.5;" x="429.12" xlink:href="#m0012dd4eef" y="388.8"/>
      </g>
     </g>
     <g id="line2d_30">
      <g>
       <use style="stroke:#000000;stroke-linecap:butt;stroke-width:0.5;" x="429.12" xlink:href="#m476344969c" y="43.2"/>
      </g>
     </g>
     <g id="text_9">
      <!-- 800 -->
      <defs>
       <path d="
M31.7812 34.625
Q24.75 34.625 20.7188 30.8594
Q16.7031 27.0938 16.7031 20.5156
Q16.7031 13.9219 20.7188 10.1562
Q24.75 6.39062 31.7812 6.39062
Q38.8125 6.39062 42.8594 10.1719
Q46.9219 13.9688 46.9219 20.5156
Q46.9219 27.0938 42.8906 30.8594
Q38.875 34.625 31.7812 34.625
M21.9219 38.8125
Q15.5781 40.375 12.0312 44.7188
Q8.5 49.0781 8.5 55.3281
Q8.5 64.0625 14.7188 69.1406
Q20.9531 74.2188 31.7812 74.2188
Q42.6719 74.2188 48.875 69.1406
Q55.0781 64.0625 55.0781 55.3281
Q55.0781 49.0781 51.5312 44.7188
Q48 40.375 41.7031 38.8125
Q48.8281 37.1562 52.7969 32.3125
Q56.7812 27.4844 56.7812 20.5156
Q56.7812 9.90625 50.3125 4.23438
Q43.8438 -1.42188 31.7812 -1.42188
Q19.7344 -1.42188 13.25 4.23438
Q6.78125 9.90625 6.78125 20.5156
Q6.78125 27.4844 10.7812 32.3125
Q14.7969 37.1562 21.9219 38.8125
M18.3125 54.3906
Q18.3125 48.7344 21.8438 45.5625
Q25.3906 42.3906 31.7812 42.3906
Q38.1406 42.3906 41.7188 45.5625
Q45.3125 48.7344 45.3125 54.3906
Q45.3125 60.0625 41.7188 63.2344
Q38.1406 66.4062 31.7812 66.4062
Q25.3906 66.4062 21.8438 63.2344
Q18.3125 60.0625 18.3125 54.3906" id="BitstreamVeraSans-Roman-38"/>
      </defs>
      <g transform="translate(418.4728125 401.70625)scale(0.12 -0.12)">
       <use xlink:href="#BitstreamVeraSans-Roman-38"/>
       <use x="63.623046875" xlink:href="#BitstreamVeraSans-Roman-30"/>
       <use x="127.24609375" xlink:href="#BitstreamVeraSans-Roman-30"/>
      </g>
     </g>
    </g>
    <g id="xtick_10">
     <g id="line2d_31">
      <path clip-path="url(#p7ff5b81e1d)" d="
M473.76 388.8
L473.76 43.2" style="fill:none;stroke:#000000;stroke-dasharray:1.000000,3.000000;stroke-dashoffset:0.0;stroke-linecap:butt;stroke-width:0.5;"/>
     </g>
     <g id="line2d_32">
      <g>
       <use style="stroke:#000000;stroke-linecap:butt;stroke-width:0.5;" x="473.76" xlink:href="#m0012dd4eef" y="388.8"/>
      </g>
     </g>
     <g id="line2d_33">
      <g>
       <use style="stroke:#000000;stroke-linecap:butt;stroke-width:0.5;" x="473.76" xlink:href="#m476344969c" y="43.2"/>
      </g>
     </g>
     <g id="text_10">
      <!-- 900 -->
      <defs>
       <path d="
M10.9844 1.51562
L10.9844 10.5
Q14.7031 8.73438 18.5 7.8125
Q22.3125 6.89062 25.9844 6.89062
Q35.75 6.89062 40.8906 13.4531
Q46.0469 20.0156 46.7812 33.4062
Q43.9531 29.2031 39.5938 26.9531
Q35.25 24.7031 29.9844 24.7031
Q19.0469 24.7031 12.6719 31.3125
Q6.29688 37.9375 6.29688 49.4219
Q6.29688 60.6406 12.9375 67.4219
Q19.5781 74.2188 30.6094 74.2188
Q43.2656 74.2188 49.9219 64.5156
Q56.5938 54.8281 56.5938 36.375
Q56.5938 19.1406 48.4062 8.85938
Q40.2344 -1.42188 26.4219 -1.42188
Q22.7031 -1.42188 18.8906 -0.6875
Q15.0938 0.046875 10.9844 1.51562
M30.6094 32.4219
Q37.25 32.4219 41.125 36.9531
Q45.0156 41.5 45.0156 49.4219
Q45.0156 57.2812 41.125 61.8438
Q37.25 66.4062 30.6094 66.4062
Q23.9688 66.4062 20.0938 61.8438
Q16.2188 57.2812 16.2188 49.4219
Q16.2188 41.5 20.0938 36.9531
Q23.9688 32.4219 30.6094 32.4219" id="BitstreamVeraSans-Roman-39"/>
      </defs>
      <g transform="translate(463.08375 401.70625)scale(0.12 -0.12)">
       <use xlink:href="#BitstreamVeraSans-Roman-39"/>
       <use x="63.623046875" xlink:href="#BitstreamVeraSans-Roman-30"/>
       <use x="127.24609375" xlink:href="#BitstreamVeraSans-Roman-30"/>
      </g>
     </g>
    </g>
   </g>
   <g id="matplotlib.axis_2">
    <g id="ytick_1">
     <g id="line2d_34">
      <path clip-path="url(#p7ff5b81e1d)" d="
M72 388.8
L518.4 388.8" style="fill:none;stroke:#000000;stroke-dasharray:1.000000,3.000000;stroke-dashoffset:0.0;stroke-linecap:butt;stroke-width:0.5;"/>
     </g>
     <g id="line2d_35">
      <defs>
       <path d="
M0 0
L4 0" id="me8a85f7bf6" style="stroke:#000000;stroke-linecap:butt;stroke-width:0.5;"/>
      </defs>
      <g>
       <use style="stroke:#000000;stroke-linecap:butt;stroke-width:0.5;" x="72.0" xlink:href="#me8a85f7bf6" y="388.8"/>
      </g>
     </g>
     <g id="line2d_36">
      <defs>
       <path d="
M0 0
L-4 0" id="m1a32005dea" style="stroke:#000000;stroke-linecap:butt;stroke-width:0.5;"/>
      </defs>
      <g>
       <use style="stroke:#000000;stroke-linecap:butt;stroke-width:0.5;" x="518.4" xlink:href="#m1a32005dea" y="388.8"/>
      </g>
     </g>
     <g id="text_11">
      <!-- 0.000 -->
      <defs>
       <path d="
M10.6875 12.4062
L21 12.4062
L21 0
L10.6875 0
z
" id="BitstreamVeraSans-Roman-2e"/>
      </defs>
      <g transform="translate(35.234375 393.1678125)scale(0.12 -0.12)">
       <use xlink:href="#BitstreamVeraSans-Roman-30"/>
       <use x="63.623046875" xlink:href="#BitstreamVeraSans-Roman-2e"/>
       <use x="95.41015625" xlink:href="#BitstreamVeraSans-Roman-30"/>
       <use x="159.033203125" xlink:href="#BitstreamVeraSans-Roman-30"/>
       <use x="222.65625" xlink:href="#BitstreamVeraSans-Roman-30"/>
      </g>
     </g>
    </g>
    <g id="ytick_2">
     <g id="line2d_37">
      <path clip-path="url(#p7ff5b81e1d)" d="
M72 354.24
L518.4 354.24" style="fill:none;stroke:#000000;stroke-dasharray:1.000000,3.000000;stroke-dashoffset:0.0;stroke-linecap:butt;stroke-width:0.5;"/>
     </g>
     <g id="line2d_38">
      <g>
       <use style="stroke:#000000;stroke-linecap:butt;stroke-width:0.5;" x="72.0" xlink:href="#me8a85f7bf6" y="354.24"/>
      </g>
     </g>
     <g id="line2d_39">
      <g>
       <use style="stroke:#000000;stroke-linecap:butt;stroke-width:0.5;" x="518.4" xlink:href="#m1a32005dea" y="354.24"/>
      </g>
     </g>
     <g id="text_12">
      <!-- 0.002 -->
      <g transform="translate(35.639375 358.6078125)scale(0.12 -0.12)">
       <use xlink:href="#BitstreamVeraSans-Roman-30"/>
       <use x="63.623046875" xlink:href="#BitstreamVeraSans-Roman-2e"/>
       <use x="95.41015625" xlink:href="#BitstreamVeraSans-Roman-30"/>
       <use x="159.033203125" xlink:href="#BitstreamVeraSans-Roman-30"/>
       <use x="222.65625" xlink:href="#BitstreamVeraSans-Roman-32"/>
      </g>
     </g>
    </g>
    <g id="ytick_3">
     <g id="line2d_40">
      <path clip-path="url(#p7ff5b81e1d)" d="
M72 319.68
L518.4 319.68" style="fill:none;stroke:#000000;stroke-dasharray:1.000000,3.000000;stroke-dashoffset:0.0;stroke-linecap:butt;stroke-width:0.5;"/>
     </g>
     <g id="line2d_41">
      <g>
       <use style="stroke:#000000;stroke-linecap:butt;stroke-width:0.5;" x="72.0" xlink:href="#me8a85f7bf6" y="319.68"/>
      </g>
     </g>
     <g id="line2d_42">
      <g>
       <use style="stroke:#000000;stroke-linecap:butt;stroke-width:0.5;" x="518.4" xlink:href="#m1a32005dea" y="319.68"/>
      </g>
     </g>
     <g id="text_13">
      <!-- 0.004 -->
      <g transform="translate(35.110625 324.0478125)scale(0.12 -0.12)">
       <use xlink:href="#BitstreamVeraSans-Roman-30"/>
       <use x="63.623046875" xlink:href="#BitstreamVeraSans-Roman-2e"/>
       <use x="95.41015625" xlink:href="#BitstreamVeraSans-Roman-30"/>
       <use x="159.033203125" xlink:href="#BitstreamVeraSans-Roman-30"/>
       <use x="222.65625" xlink:href="#BitstreamVeraSans-Roman-34"/>
      </g>
     </g>
    </g>
    <g id="ytick_4">
     <g id="line2d_43">
      <path clip-path="url(#p7ff5b81e1d)" d="
M72 285.12
L518.4 285.12" style="fill:none;stroke:#000000;stroke-dasharray:1.000000,3.000000;stroke-dashoffset:0.0;stroke-linecap:butt;stroke-width:0.5;"/>
     </g>
     <g id="line2d_44">
      <g>
       <use style="stroke:#000000;stroke-linecap:butt;stroke-width:0.5;" x="72.0" xlink:href="#me8a85f7bf6" y="285.12"/>
      </g>
     </g>
     <g id="line2d_45">
      <g>
       <use style="stroke:#000000;stroke-linecap:butt;stroke-width:0.5;" x="518.4" xlink:href="#m1a32005dea" y="285.12"/>
      </g>
     </g>
     <g id="text_14">
      <!-- 0.006 -->
      <g transform="translate(35.193125 289.4878125)scale(0.12 -0.12)">
       <use xlink:href="#BitstreamVeraSans-Roman-30"/>
       <use x="63.623046875" xlink:href="#BitstreamVeraSans-Roman-2e"/>
       <use x="95.41015625" xlink:href="#BitstreamVeraSans-Roman-30"/>
       <use x="159.033203125" xlink:href="#BitstreamVeraSans-Roman-30"/>
       <use x="222.65625" xlink:href="#BitstreamVeraSans-Roman-36"/>
      </g>
     </g>
    </g>
    <g id="ytick_5">
     <g id="line2d_46">
      <path clip-path="url(#p7ff5b81e1d)" d="
M72 250.56
L518.4 250.56" style="fill:none;stroke:#000000;stroke-dasharray:1.000000,3.000000;stroke-dashoffset:0.0;stroke-linecap:butt;stroke-width:0.5;"/>
     </g>
     <g id="line2d_47">
      <g>
       <use style="stroke:#000000;stroke-linecap:butt;stroke-width:0.5;" x="72.0" xlink:href="#me8a85f7bf6" y="250.56"/>
      </g>
     </g>
     <g id="line2d_48">
      <g>
       <use style="stroke:#000000;stroke-linecap:butt;stroke-width:0.5;" x="518.4" xlink:href="#m1a32005dea" y="250.56"/>
      </g>
     </g>
     <g id="text_15">
      <!-- 0.008 -->
      <g transform="translate(35.25875 254.9278125)scale(0.12 -0.12)">
       <use xlink:href="#BitstreamVeraSans-Roman-30"/>
       <use x="63.623046875" xlink:href="#BitstreamVeraSans-Roman-2e"/>
       <use x="95.41015625" xlink:href="#BitstreamVeraSans-Roman-30"/>
       <use x="159.033203125" xlink:href="#BitstreamVeraSans-Roman-30"/>
       <use x="222.65625" xlink:href="#BitstreamVeraSans-Roman-38"/>
      </g>
     </g>
    </g>
    <g id="ytick_6">
     <g id="line2d_49">
      <path clip-path="url(#p7ff5b81e1d)" d="
M72 216
L518.4 216" style="fill:none;stroke:#000000;stroke-dasharray:1.000000,3.000000;stroke-dashoffset:0.0;stroke-linecap:butt;stroke-width:0.5;"/>
     </g>
     <g id="line2d_50">
      <g>
       <use style="stroke:#000000;stroke-linecap:butt;stroke-width:0.5;" x="72.0" xlink:href="#me8a85f7bf6" y="216.0"/>
      </g>
     </g>
     <g id="line2d_51">
      <g>
       <use style="stroke:#000000;stroke-linecap:butt;stroke-width:0.5;" x="518.4" xlink:href="#m1a32005dea" y="216.0"/>
      </g>
     </g>
     <g id="text_16">
      <!-- 0.010 -->
      <g transform="translate(35.234375 220.3678125)scale(0.12 -0.12)">
       <use xlink:href="#BitstreamVeraSans-Roman-30"/>
       <use x="63.623046875" xlink:href="#BitstreamVeraSans-Roman-2e"/>
       <use x="95.41015625" xlink:href="#BitstreamVeraSans-Roman-30"/>
       <use x="159.033203125" xlink:href="#BitstreamVeraSans-Roman-31"/>
       <use x="222.65625" xlink:href="#BitstreamVeraSans-Roman-30"/>
      </g>
     </g>
    </g>
    <g id="ytick_7">
     <g id="line2d_52">
      <path clip-path="url(#p7ff5b81e1d)" d="
M72 181.44
L518.4 181.44" style="fill:none;stroke:#000000;stroke-dasharray:1.000000,3.000000;stroke-dashoffset:0.0;stroke-linecap:butt;stroke-width:0.5;"/>
     </g>
     <g id="line2d_53">
      <g>
       <use style="stroke:#000000;stroke-linecap:butt;stroke-width:0.5;" x="72.0" xlink:href="#me8a85f7bf6" y="181.44"/>
      </g>
     </g>
     <g id="line2d_54">
      <g>
       <use style="stroke:#000000;stroke-linecap:butt;stroke-width:0.5;" x="518.4" xlink:href="#m1a32005dea" y="181.44"/>
      </g>
     </g>
     <g id="text_17">
      <!-- 0.012 -->
      <g transform="translate(35.639375 185.8078125)scale(0.12 -0.12)">
       <use xlink:href="#BitstreamVeraSans-Roman-30"/>
       <use x="63.623046875" xlink:href="#BitstreamVeraSans-Roman-2e"/>
       <use x="95.41015625" xlink:href="#BitstreamVeraSans-Roman-30"/>
       <use x="159.033203125" xlink:href="#BitstreamVeraSans-Roman-31"/>
       <use x="222.65625" xlink:href="#BitstreamVeraSans-Roman-32"/>
      </g>
     </g>
    </g>
    <g id="ytick_8">
     <g id="line2d_55">
      <path clip-path="url(#p7ff5b81e1d)" d="
M72 146.88
L518.4 146.88" style="fill:none;stroke:#000000;stroke-dasharray:1.000000,3.000000;stroke-dashoffset:0.0;stroke-linecap:butt;stroke-width:0.5;"/>
     </g>
     <g id="line2d_56">
      <g>
       <use style="stroke:#000000;stroke-linecap:butt;stroke-width:0.5;" x="72.0" xlink:href="#me8a85f7bf6" y="146.88"/>
      </g>
     </g>
     <g id="line2d_57">
      <g>
       <use style="stroke:#000000;stroke-linecap:butt;stroke-width:0.5;" x="518.4" xlink:href="#m1a32005dea" y="146.88"/>
      </g>
     </g>
     <g id="text_18">
      <!-- 0.014 -->
      <g transform="translate(35.110625 151.2478125)scale(0.12 -0.12)">
       <use xlink:href="#BitstreamVeraSans-Roman-30"/>
       <use x="63.623046875" xlink:href="#BitstreamVeraSans-Roman-2e"/>
       <use x="95.41015625" xlink:href="#BitstreamVeraSans-Roman-30"/>
       <use x="159.033203125" xlink:href="#BitstreamVeraSans-Roman-31"/>
       <use x="222.65625" xlink:href="#BitstreamVeraSans-Roman-34"/>
      </g>
     </g>
    </g>
    <g id="ytick_9">
     <g id="line2d_58">
      <path clip-path="url(#p7ff5b81e1d)" d="
M72 112.32
L518.4 112.32" style="fill:none;stroke:#000000;stroke-dasharray:1.000000,3.000000;stroke-dashoffset:0.0;stroke-linecap:butt;stroke-width:0.5;"/>
     </g>
     <g id="line2d_59">
      <g>
       <use style="stroke:#000000;stroke-linecap:butt;stroke-width:0.5;" x="72.0" xlink:href="#me8a85f7bf6" y="112.32"/>
      </g>
     </g>
     <g id="line2d_60">
      <g>
       <use style="stroke:#000000;stroke-linecap:butt;stroke-width:0.5;" x="518.4" xlink:href="#m1a32005dea" y="112.32"/>
      </g>
     </g>
     <g id="text_19">
      <!-- 0.016 -->
      <g transform="translate(35.193125 116.6878125)scale(0.12 -0.12)">
       <use xlink:href="#BitstreamVeraSans-Roman-30"/>
       <use x="63.623046875" xlink:href="#BitstreamVeraSans-Roman-2e"/>
       <use x="95.41015625" xlink:href="#BitstreamVeraSans-Roman-30"/>
       <use x="159.033203125" xlink:href="#BitstreamVeraSans-Roman-31"/>
       <use x="222.65625" xlink:href="#BitstreamVeraSans-Roman-36"/>
      </g>
     </g>
    </g>
    <g id="ytick_10">
     <g id="line2d_61">
      <path clip-path="url(#p7ff5b81e1d)" d="
M72 77.76
L518.4 77.76" style="fill:none;stroke:#000000;stroke-dasharray:1.000000,3.000000;stroke-dashoffset:0.0;stroke-linecap:butt;stroke-width:0.5;"/>
     </g>
     <g id="line2d_62">
      <g>
       <use style="stroke:#000000;stroke-linecap:butt;stroke-width:0.5;" x="72.0" xlink:href="#me8a85f7bf6" y="77.76"/>
      </g>
     </g>
     <g id="line2d_63">
      <g>
       <use style="stroke:#000000;stroke-linecap:butt;stroke-width:0.5;" x="518.4" xlink:href="#m1a32005dea" y="77.76"/>
      </g>
     </g>
     <g id="text_20">
      <!-- 0.018 -->
      <g transform="translate(35.25875 82.1278125)scale(0.12 -0.12)">
       <use xlink:href="#BitstreamVeraSans-Roman-30"/>
       <use x="63.623046875" xlink:href="#BitstreamVeraSans-Roman-2e"/>
       <use x="95.41015625" xlink:href="#BitstreamVeraSans-Roman-30"/>
       <use x="159.033203125" xlink:href="#BitstreamVeraSans-Roman-31"/>
       <use x="222.65625" xlink:href="#BitstreamVeraSans-Roman-38"/>
      </g>
     </g>
    </g>
    <g id="text_21">
     <!-- Sec/file -->
     <defs>
      <path d="
M9.42188 75.9844
L18.4062 75.9844
L18.4062 0
L9.42188 0
z
" id="BitstreamVeraSans-Roman-6c"/>
      <path d="
M53.5156 70.5156
L53.5156 60.8906
Q47.9062 63.5781 42.9219 64.8906
Q37.9375 66.2188 33.2969 66.2188
Q25.25 66.2188 20.875 63.0938
Q16.5 59.9688 16.5 54.2031
Q16.5 49.3594 19.4062 46.8906
Q22.3125 44.4375 30.4219 42.9219
L36.375 41.7031
Q47.4062 39.5938 52.6562 34.2969
Q57.9062 29 57.9062 20.125
Q57.9062 9.51562 50.7969 4.04688
Q43.7031 -1.42188 29.9844 -1.42188
Q24.8125 -1.42188 18.9688 -0.25
Q13.1406 0.921875 6.89062 3.21875
L6.89062 13.375
Q12.8906 10.0156 18.6562 8.29688
Q24.4219 6.59375 29.9844 6.59375
Q38.4219 6.59375 43.0156 9.90625
Q47.6094 13.2344 47.6094 19.3906
Q47.6094 24.75 44.3125 27.7812
Q41.0156 30.8125 33.5 32.3281
L27.4844 33.5
Q16.4531 35.6875 11.5156 40.375
Q6.59375 45.0625 6.59375 53.4219
Q6.59375 63.0938 13.4062 68.6562
Q20.2188 74.2188 32.1719 74.2188
Q37.3125 74.2188 42.625 73.2812
Q47.9531 72.3594 53.5156 70.5156" id="BitstreamVeraSans-Roman-53"/>
      <path d="
M9.42188 54.6875
L18.4062 54.6875
L18.4062 0
L9.42188 0
z

M9.42188 75.9844
L18.4062 75.9844
L18.4062 64.5938
L9.42188 64.5938
z
" id="BitstreamVeraSans-Roman-69"/>
      <path d="
M25.3906 72.9062
L33.6875 72.9062
L8.29688 -9.28125
L0 -9.28125
z
" id="BitstreamVeraSans-Roman-2f"/>
      <path d="
M56.2031 29.5938
L56.2031 25.2031
L14.8906 25.2031
Q15.4844 15.9219 20.4844 11.0625
Q25.4844 6.20312 34.4219 6.20312
Q39.5938 6.20312 44.4531 7.46875
Q49.3125 8.73438 54.1094 11.2812
L54.1094 2.78125
Q49.2656 0.734375 44.1875 -0.34375
Q39.1094 -1.42188 33.8906 -1.42188
Q20.7969 -1.42188 13.1562 6.1875
Q5.51562 13.8125 5.51562 26.8125
Q5.51562 40.2344 12.7656 48.1094
Q20.0156 56 32.3281 56
Q43.3594 56 49.7812 48.8906
Q56.2031 41.7969 56.2031 29.5938
M47.2188 32.2344
Q47.125 39.5938 43.0938 43.9844
Q39.0625 48.3906 32.4219 48.3906
Q24.9062 48.3906 20.3906 44.1406
Q15.875 39.8906 15.1875 32.1719
z
" id="BitstreamVeraSans-Roman-65"/>
      <path d="
M37.1094 75.9844
L37.1094 68.5
L28.5156 68.5
Q23.6875 68.5 21.7969 66.5469
Q19.9219 64.5938 19.9219 59.5156
L19.9219 54.6875
L34.7188 54.6875
L34.7188 47.7031
L19.9219 47.7031
L19.9219 0
L10.8906 0
L10.8906 47.7031
L2.29688 47.7031
L2.29688 54.6875
L10.8906 54.6875
L10.8906 58.5
Q10.8906 67.625 15.1406 71.7969
Q19.3906 75.9844 28.6094 75.9844
z
" id="BitstreamVeraSans-Roman-66"/>
      <path d="
M48.7812 52.5938
L48.7812 44.1875
Q44.9688 46.2969 41.1406 47.3438
Q37.3125 48.3906 33.4062 48.3906
Q24.6562 48.3906 19.8125 42.8438
Q14.9844 37.3125 14.9844 27.2969
Q14.9844 17.2812 19.8125 11.7344
Q24.6562 6.20312 33.4062 6.20312
Q37.3125 6.20312 41.1406 7.25
Q44.9688 8.29688 48.7812 10.4062
L48.7812 2.09375
Q45.0156 0.34375 40.9844 -0.53125
Q36.9688 -1.42188 32.4219 -1.42188
Q20.0625 -1.42188 12.7812 6.34375
Q5.51562 14.1094 5.51562 27.2969
Q5.51562 40.6719 12.8594 48.3281
Q20.2188 56 33.0156 56
Q37.1562 56 41.1094 55.1406
Q45.0625 54.2969 48.7812 52.5938" id="BitstreamVeraSans-Roman-63"/>
     </defs>
     <g transform="translate(30.110625 236.13)rotate(-90.0)scale(0.12 -0.12)">
      <use xlink:href="#BitstreamVeraSans-Roman-53"/>
      <use x="63.4765625" xlink:href="#BitstreamVeraSans-Roman-65"/>
      <use x="125.0" xlink:href="#BitstreamVeraSans-Roman-63"/>
      <use x="179.98046875" xlink:href="#BitstreamVeraSans-Roman-2f"/>
      <use x="213.671875" xlink:href="#BitstreamVeraSans-Roman-66"/>
      <use x="248.876953125" xlink:href="#BitstreamVeraSans-Roman-69"/>
      <use x="276.66015625" xlink:href="#BitstreamVeraSans-Roman-6c"/>
      <use x="304.443359375" xlink:href="#BitstreamVeraSans-Roman-65"/>
     </g>
    </g>
   </g>
   <g id="patch_3">
    <path d="
M72 43.2
L518.4 43.2" style="fill:none;stroke:#000000;"/>
   </g>
   <g id="patch_4">
    <path d="
M518.4 388.8
L518.4 43.2" style="fill:none;stroke:#000000;"/>
   </g>
   <g id="patch_5">
    <path d="
M72 388.8
L518.4 388.8" style="fill:none;stroke:#000000;"/>
   </g>
   <g id="patch_6">
    <path d="
M72 388.8
L72 43.2" style="fill:none;stroke:#000000;"/>
   </g>
   <g id="text_22">
    <!-- Rand -->
    <defs>
     <path d="
M54.8906 33.0156
L54.8906 0
L45.9062 0
L45.9062 32.7188
Q45.9062 40.4844 42.875 44.3281
Q39.8438 48.1875 33.7969 48.1875
Q26.5156 48.1875 22.3125 43.5469
Q18.1094 38.9219 18.1094 30.9062
L18.1094 0
L9.07812 0
L9.07812 54.6875
L18.1094 54.6875
L18.1094 46.1875
Q21.3438 51.125 25.7031 53.5625
Q30.0781 56 35.7969 56
Q45.2188 56 50.0469 50.1719
Q54.8906 44.3438 54.8906 33.0156" id="BitstreamVeraSans-Roman-6e"/>
     <path d="
M45.4062 46.3906
L45.4062 75.9844
L54.3906 75.9844
L54.3906 0
L45.4062 0
L45.4062 8.20312
Q42.5781 3.32812 38.25 0.953125
Q33.9375 -1.42188 27.875 -1.42188
Q17.9688 -1.42188 11.7344 6.48438
Q5.51562 14.4062 5.51562 27.2969
Q5.51562 40.1875 11.7344 48.0938
Q17.9688 56 27.875 56
Q33.9375 56 38.25 53.625
Q42.5781 51.2656 45.4062 46.3906
M14.7969 27.2969
Q14.7969 17.3906 18.875 11.75
Q22.9531 6.10938 30.0781 6.10938
Q37.2031 6.10938 41.2969 11.75
Q45.4062 17.3906 45.4062 27.2969
Q45.4062 37.2031 41.2969 42.8438
Q37.2031 48.4844 30.0781 48.4844
Q22.9531 48.4844 18.875 42.8438
Q14.7969 37.2031 14.7969 27.2969" id="BitstreamVeraSans-Roman-64"/>
     <path d="
M44.3906 34.1875
Q47.5625 33.1094 50.5625 29.5938
Q53.5625 26.0781 56.5938 19.9219
L66.6094 0
L56 0
L46.6875 18.7031
Q43.0625 26.0312 39.6719 28.4219
Q36.2812 30.8125 30.4219 30.8125
L19.6719 30.8125
L19.6719 0
L9.8125 0
L9.8125 72.9062
L32.0781 72.9062
Q44.5781 72.9062 50.7344 67.6719
Q56.8906 62.4531 56.8906 51.9062
Q56.8906 45.0156 53.6875 40.4688
Q50.4844 35.9375 44.3906 34.1875
M19.6719 64.7969
L19.6719 38.9219
L32.0781 38.9219
Q39.2031 38.9219 42.8438 42.2188
Q46.4844 45.5156 46.4844 51.9062
Q46.4844 58.2969 42.8438 61.5469
Q39.2031 64.7969 32.0781 64.7969
z
" id="BitstreamVeraSans-Roman-52"/>
     <path d="
M34.2812 27.4844
Q23.3906 27.4844 19.1875 25
Q14.9844 22.5156 14.9844 16.5
Q14.9844 11.7188 18.1406 8.90625
Q21.2969 6.10938 26.7031 6.10938
Q34.1875 6.10938 38.7031 11.4062
Q43.2188 16.7031 43.2188 25.4844
L43.2188 27.4844
z

M52.2031 31.2031
L52.2031 0
L43.2188 0
L43.2188 8.29688
Q40.1406 3.32812 35.5469 0.953125
Q30.9531 -1.42188 24.3125 -1.42188
Q15.9219 -1.42188 10.9531 3.29688
Q6 8.01562 6 15.9219
Q6 25.1406 12.1719 29.8281
Q18.3594 34.5156 30.6094 34.5156
L43.2188 34.5156
L43.2188 35.4062
Q43.2188 41.6094 39.1406 45
Q35.0625 48.3906 27.6875 48.3906
Q23 48.3906 18.5469 47.2656
Q14.1094 46.1406 10.0156 43.8906
L10.0156 52.2031
Q14.9375 54.1094 19.5781 55.0469
Q24.2188 56 28.6094 56
Q40.4844 56 46.3438 49.8438
Q52.2031 43.7031 52.2031 31.2031" id="BitstreamVeraSans-Roman-61"/>
    </defs>
    <g transform="translate(278.17425 38.2)scale(0.144 -0.144)">
     <use xlink:href="#BitstreamVeraSans-Roman-52"/>
     <use x="67.232421875" xlink:href="#BitstreamVeraSans-Roman-61"/>
     <use x="128.51171875" xlink:href="#BitstreamVeraSans-Roman-6e"/>
     <use x="191.890625" xlink:href="#BitstreamVeraSans-Roman-64"/>
    </g>
   </g>
   <g id="legend_1">
    <g id="patch_7">
     <path d="
M429.055 115.339
L511.2 115.339
L511.2 50.4
L429.055 50.4
L429.055 115.339
z
" style="fill:#ffffff;stroke:#000000;"/>
    </g>
    <g id="line2d_64">
     <path d="
M439.135 62.0617
L459.295 62.0617" style="fill:none;stroke:#ff0000;"/>
    </g>
    <g id="line2d_65"/>
    <g id="text_23">
     <!-- LRU -->
     <defs>
      <path d="
M9.8125 72.9062
L19.6719 72.9062
L19.6719 8.29688
L55.1719 8.29688
L55.1719 0
L9.8125 0
z
" id="BitstreamVeraSans-Roman-4c"/>
      <path d="
M8.6875 72.9062
L18.6094 72.9062
L18.6094 28.6094
Q18.6094 16.8906 22.8438 11.7344
Q27.0938 6.59375 36.625 6.59375
Q46.0938 6.59375 50.3438 11.7344
Q54.5938 16.8906 54.5938 28.6094
L54.5938 72.9062
L64.5 72.9062
L64.5 27.3906
Q64.5 13.1406 57.4375 5.85938
Q50.3906 -1.42188 36.625 -1.42188
Q22.7969 -1.42188 15.7344 5.85938
Q8.6875 13.1406 8.6875 27.3906
z
" id="BitstreamVeraSans-Roman-55"/>
     </defs>
     <g transform="translate(475.13475 67.10175)scale(0.144 -0.144)">
      <use xlink:href="#BitstreamVeraSans-Roman-4c"/>
      <use x="55.712890625" xlink:href="#BitstreamVeraSans-Roman-52"/>
      <use x="125.1953125" xlink:href="#BitstreamVeraSans-Roman-55"/>
     </g>
    </g>
    <g id="line2d_66">
     <path d="
M439.135 83.1983
L459.295 83.1983" style="fill:none;opacity:0.7;stroke:#008000;"/>
    </g>
    <g id="line2d_67"/>
    <g id="text_24">
     <!-- MRU -->
     <defs>
      <path d="
M9.8125 72.9062
L24.5156 72.9062
L43.1094 23.2969
L61.8125 72.9062
L76.5156 72.9062
L76.5156 0
L66.8906 0
L66.8906 64.0156
L48.0938 14.0156
L38.1875 14.0156
L19.3906 64.0156
L19.3906 0
L9.8125 0
z
" id="BitstreamVeraSans-Roman-4d"/>
     </defs>
     <g transform="translate(475.13475 88.23825)scale(0.144 -0.144)">
      <use xlink:href="#BitstreamVeraSans-Roman-4d"/>
      <use x="86.279296875" xlink:href="#BitstreamVeraSans-Roman-52"/>
      <use x="155.76171875" xlink:href="#BitstreamVeraSans-Roman-55"/>
     </g>
    </g>
    <g id="line2d_68">
     <path d="
M439.135 104.335
L459.295 104.335" style="fill:none;opacity:0.5;stroke:#0000ff;"/>
    </g>
    <g id="line2d_69"/>
    <g id="text_25">
     <!-- FIFO -->
     <defs>
      <path d="
M9.8125 72.9062
L51.7031 72.9062
L51.7031 64.5938
L19.6719 64.5938
L19.6719 43.1094
L48.5781 43.1094
L48.5781 34.8125
L19.6719 34.8125
L19.6719 0
L9.8125 0
z
" id="BitstreamVeraSans-Roman-46"/>
      <path d="
M9.8125 72.9062
L19.6719 72.9062
L19.6719 0
L9.8125 0
z
" id="BitstreamVeraSans-Roman-49"/>
      <path d="
M39.4062 66.2188
Q28.6562 66.2188 22.3281 58.2031
Q16.0156 50.2031 16.0156 36.375
Q16.0156 22.6094 22.3281 14.5938
Q28.6562 6.59375 39.4062 6.59375
Q50.1406 6.59375 56.4219 14.5938
Q62.7031 22.6094 62.7031 36.375
Q62.7031 50.2031 56.4219 58.2031
Q50.1406 66.2188 39.4062 66.2188
M39.4062 74.2188
Q54.7344 74.2188 63.9062 63.9375
Q73.0938 53.6562 73.0938 36.375
Q73.0938 19.1406 63.9062 8.85938
Q54.7344 -1.42188 39.4062 -1.42188
Q24.0312 -1.42188 14.8125 8.82812
Q5.60938 19.0938 5.60938 36.375
Q5.60938 53.6562 14.8125 63.9375
Q24.0312 74.2188 39.4062 74.2188" id="BitstreamVeraSans-Roman-4f"/>
     </defs>
     <g transform="translate(475.13475 109.37475)scale(0.144 -0.144)">
      <use xlink:href="#BitstreamVeraSans-Roman-46"/>
      <use x="57.51953125" xlink:href="#BitstreamVeraSans-Roman-49"/>
      <use x="87.01171875" xlink:href="#BitstreamVeraSans-Roman-46"/>
      <use x="144.53125" xlink:href="#BitstreamVeraSans-Roman-4f"/>
     </g>
    </g>
   </g>
  </g>
 </g>
 <defs>
  <clipPath id="p7ff5b81e1d">
   <rect height="345.6" width="446.4" x="72.0" y="43.2"/>
  </clipPath>
 </defs>
</svg>
