<?xml version="1.0" encoding="utf-8" standalone="no"?>
<!DOCTYPE svg PUBLIC "-//W3C//DTD SVG 1.1//EN"
  "http://www.w3.org/Graphics/SVG/1.1/DTD/svg11.dtd">
<!-- Created with matplotlib (http://matplotlib.sourceforge.net/) -->
<svg height="432pt" version="1.1" viewBox="0 0 576 432" width="576pt" xmlns="http://www.w3.org/2000/svg" xmlns:xlink="http://www.w3.org/1999/xlink">
 <defs>
  <style type="text/css">
*{stroke-linecap:square;stroke-linejoin:round;}
  </style>
 </defs>
 <g id="figure_1">
  <g id="patch_1">
   <path d="
M0 432
L576 432
L576 0
L0 0
z
" style="fill:#ffffff;"/>
  </g>
  <g id="axes_1">
   <g id="patch_2">
    <path d="
M72 388.8
L518.4 388.8
L518.4 43.2
L72 43.2
z
" style="fill:#ffffff;"/>
   </g>
   <g id="line2d_1">
    <path clip-path="url(#p7ff5b81e1d)" d="
M72 304.586
L72.4464 250.376
L72.8928 267.024
L73.3392 259.724
L73.7856 236.482
L74.232 270.341
L74.6784 229.257
L75.1248 259.515
L75.5712 209.442
L76.0176 251.947
L76.464 324.079
L76.9104 275.908
L77.3568 282.034
L77.8032 331.367
L78.2496 275.16
L78.696 282.402
L79.1424 296.64
L79.5888 289.674
L80.0352 330.095
L80.4816 268.563
L80.928 323.737
L81.3744 275.827
L81.8208 330.464
L82.2672 309.889
L82.7136 268.043
L83.16 287.598
L83.6064 277.031
L84.0528 260.305
L84.4992 289.845
L84.9456 289.09
L85.392 254.108
L85.8384 283.188
L86.2848 289.688
L86.7312 326.597
L87.1776 310.241
L87.624 266.099
L88.0704 258.521
L88.5168 303.698
L88.9632 260.827
L89.4096 315.874
L89.856 257.744
L90.3024 301.87
L90.7488 324.177
L91.1952 272.198
L92.088 315.325
L92.5344 308.819
L92.9808 330.892
L93.4272 265.428
L93.8736 280.525
L94.32 309.139
L94.7664 321.584
L95.2128 284.402
L95.6592 313.463
L96.1056 315.619
L96.552 307.187
L96.9984 317.155
L97.4448 309.49
L97.8912 275.431
L98.3376 282.453
L98.784 291.464
L99.2304 314.764
L99.6768 318.77
L100.123 308.17
L100.57 320.705
L101.016 269.615
L101.462 276.869
L101.909 311.17
L102.355 307.536
L102.802 310.109
L103.248 310.328
L103.694 296.093
L104.141 309.821
L104.587 319.758
L105.034 313.677
L105.48 303.191
L105.926 324.647
L106.373 260.828
L106.819 311.791
L107.266 272.173
L107.712 296.231
L108.158 255.659
L108.605 316.992
L109.051 316.788
L109.498 269.674
L109.944 288.071
L110.39 329.073
L110.837 262.199
L111.283 306.993
L111.73 318.48
L112.176 256.651
L112.622 288.229
L113.069 310.79
L113.515 323.198
L113.962 312.795
L114.408 273.087
L114.854 323.85
L115.747 309.689
L116.194 323.743
L116.64 309.88
L117.086 316.773
L117.533 316.484
L117.979 310.049
L118.426 301.699
L118.872 283.799
L119.765 324.379
L120.211 316.14
L120.658 311.332
L121.104 274.739
L121.55 329.09
L121.997 328.417
L122.443 306.373
L122.89 318.814
L123.336 307.981
L123.782 310.043
L124.229 316.768
L124.675 309.858
L125.122 316.563
L125.568 313.87
L126.014 313.485
L126.461 312.269
L126.907 314.907
L127.354 310.021
L127.8 324.419
L128.246 309.251
L128.693 303.126
L129.139 303.312
L129.586 316.655
L130.032 310.161
L130.478 318.997
L130.925 313.885
L131.371 315.767
L131.818 311.804
L132.264 310.048
L132.71 268.535
L133.157 330.845
L133.603 309.877
L134.05 310.142
L134.496 315.977
L134.942 310.841
L135.389 310.137
L135.835 322.993
L136.282 324.377
L136.728 314.584
L137.174 312.329
L137.621 316.719
L138.067 317.208
L138.514 314.715
L138.96 305.218
L139.406 275.594
L139.853 323.873
L140.299 316.824
L140.746 318.351
L141.192 310.595
L141.638 317.495
L142.085 315.888
L142.531 307.874
L142.978 313.925
L143.424 297.965
L144.317 322.585
L144.763 315.456
L145.21 315.987
L145.656 306.558
L146.102 319.636
L146.549 315.306
L146.995 318.949
L147.888 311.319
L148.334 314.486
L148.781 320.576
L149.227 313.886
L149.674 311.762
L150.12 315.465
L150.566 310.174
L151.013 323.796
L151.459 258.049
L151.906 312.134
L152.352 316.96
L152.798 311.271
L153.245 312.748
L153.691 316.212
L154.138 308.36
L154.584 316.98
L155.03 319.004
L155.477 308.083
L155.923 316.852
L156.37 315.811
L156.816 270.811
L157.262 329.045
L157.709 331.005
L158.155 310.314
L158.602 311.405
L159.048 318.623
L159.494 314.163
L159.941 288.311
L160.387 312.85
L160.834 307.864
L161.28 314.257
L161.726 312.708
L162.173 310.084
L162.619 314.835
L163.066 311.938
L163.512 315.3
L163.958 313.489
L164.405 313.417
L164.851 312.066
L165.298 308.174
L165.744 318.504
L166.19 308.752
L166.637 320.509
L167.083 307.299
L167.53 264.114
L167.976 307.244
L168.422 314.518
L168.869 311.205
L169.315 290.327
L169.762 281.546
L170.208 318.478
L170.654 308.442
L171.101 310.091
L171.547 320.741
L172.44 289.411
L172.886 333.073
L173.779 312.118
L174.226 314.876
L174.672 313.998
L175.118 314.456
L175.565 306.5
L176.011 319.602
L176.458 311.04
L176.904 315.042
L177.35 312.469
L177.797 312.162
L178.243 320.387
L178.69 326.205
L179.136 318.097
L179.582 317.001
L180.029 309.759
L180.475 289.963
L180.922 315.465
L181.368 307.981
L181.814 312.723
L182.261 330.611
L182.707 288.464
L183.154 316.694
L183.6 301.514
L184.046 326.43
L184.493 312.759
L184.939 314.026
L185.386 316.749
L185.832 315.815
L186.278 317.928
L186.725 315.106
L187.171 315.374
L187.618 312.179
L188.064 316.421
L188.957 318.498
L189.403 303.64
L189.85 315.319
L190.296 316.849
L190.742 310.104
L191.189 317.486
L191.635 315.575
L192.082 310.467
L192.528 315.353
L192.974 305.508
L193.421 314.99
L193.867 311.049
L194.314 310.181
L194.76 318.968
L195.206 315.905
L195.653 310.254
L196.546 323.728
L196.992 317.088
L197.438 316.659
L197.885 315.598
L198.331 313.583
L198.778 314.959
L199.224 316.958
L200.117 304.471
L200.563 319.444
L201.01 312.989
L201.456 318.358
L201.902 308.972
L202.349 319.682
L202.795 314.082
L203.242 316.608
L203.688 303.531
L204.134 325.899
L204.581 314.894
L205.027 308.74
L205.474 317.219
L205.92 310.158
L206.366 322.076
L206.813 313.605
L207.259 313.861
L207.706 318.423
L208.152 315.838
L208.598 312.407
L209.045 317.226
L209.491 307.724
L209.938 315.577
L210.384 316.749
L210.83 314.611
L211.277 311.882
L211.723 312.236
L212.17 314.626
L212.616 310.989
L213.062 317.839
L213.509 309.907
L213.955 316.861
L214.402 317.579
L214.848 312.901
L215.294 318.139
L216.187 309.053
L216.634 322.298
L217.08 314.091
L217.526 299.497
L217.973 329.881
L218.419 307.516
L218.866 306.818
L219.312 317.456
L219.758 310.389
L220.205 315.864
L220.651 315.793
L221.098 311.394
L221.544 315.785
L222.437 308.435
L222.883 313.653
L223.33 313.23
L223.776 310.929
L224.222 320.607
L224.669 308.183
L225.115 308.671
L225.562 310.49
L226.008 318.653
L226.454 316.701
L226.901 314.046
L227.347 313.261
L227.794 308.81
L228.24 317.149
L228.686 312.891
L229.133 315.481
L229.579 316.985
L230.026 312.106
L230.472 283.806
L230.918 320.515
L231.365 314.301
L231.811 265.824
L232.258 245.191
L232.704 317.402
L233.15 314.255
L233.597 308.159
L234.043 314.248
L234.49 317.528
L234.936 311.292
L235.382 313.486
L235.829 310.898
L236.275 312.858
L236.722 310.198
L237.168 316.156
L237.614 313.798
L238.061 310.542
L238.507 313.758
L238.954 289.507
L239.4 318.928
L239.846 315.678
L240.293 314.581
L240.739 314.199
L241.186 307.619
L241.632 319.684
L242.525 308.853
L242.971 315.214
L243.418 318.121
L243.864 315.093
L244.31 308.877
L244.757 291.665
L245.203 309.766
L245.65 317.909
L246.542 305.22
L246.989 309.077
L247.435 317.364
L247.882 318.643
L248.774 311.033
L249.221 314.377
L249.667 314.572
L250.114 301.101
L250.56 326.213
L251.006 314.625
L251.453 314.957
L251.899 311.794
L252.346 310.608
L252.792 315.312
L253.238 313.518
L253.685 313.818
L254.131 318.403
L254.578 314.41
L255.024 286.351
L255.47 315.502
L255.917 316.886
L256.363 312.21
L256.81 314.334
L257.256 317.595
L257.702 317.068
L258.149 315.53
L258.595 312.807
L259.042 315.259
L259.488 309.644
L259.934 315.478
L260.381 322.777
L260.827 315.268
L261.72 310.141
L262.166 322.593
L262.613 315.32
L263.059 313.362
L263.506 322.732
L263.952 301.967
L264.398 312.247
L264.845 318.495
L265.291 312.476
L265.738 313.174
L266.184 309.957
L266.63 324.546
L267.077 312.588
L267.523 314.93
L267.97 314.243
L268.416 318.868
L268.862 315.255
L269.309 309.874
L269.755 205.073
L270.202 292.631
L270.648 286.504
L271.094 316.224
L271.541 310.419
L271.987 316.848
L272.434 309.894
L272.88 318.956
L273.326 315.817
L273.773 311.121
L274.219 311.795
L274.666 312.99
L275.112 319.482
L275.558 307.369
L276.005 310.019
L276.451 323.706
L276.898 314.939
L277.344 310.854
L277.79 315.589
L278.237 311.415
L278.683 314.078
L279.13 313.304
L279.576 317.928
L280.022 309.923
L280.915 317.296
L281.362 306.941
L281.808 322.762
L282.254 303.818
L282.701 299.918
L283.147 338.763
L283.594 313.594
L284.04 311.697
L284.486 313.31
L284.933 308.865
L285.379 313.084
L285.826 313.677
L286.272 313.167
L286.718 313.201
L287.165 316.901
L287.611 310.292
L288.058 317.232
L288.504 312.466
L288.95 304.557
L289.397 329.75
L289.843 319.805
L290.29 286.588
L290.736 309.848
L291.182 317.17
L291.629 309.481
L292.075 316.7
L292.522 313.97
L292.968 312.181
L293.414 314.549
L293.861 313.372
L294.307 318.711
L294.754 307.88
L295.2 318.891
L295.646 310.629
L296.093 316.626
L296.539 310.854
L296.986 314.664
L297.432 315.219
L297.878 311.402
L298.325 313.345
L298.771 318.989
L299.218 296.556
L299.664 320.19
L300.11 313.696
L300.557 315.05
L301.003 304.953
L301.45 321.973
L301.896 318.048
L302.342 316.846
L302.789 311.336
L303.235 316.278
L303.682 314.099
L304.128 311.272
L304.574 313.838
L305.021 312.339
L305.467 325.08
L305.914 310.095
L306.36 316.14
L306.806 310.309
L307.253 315.076
L307.699 311.975
L308.146 318.736
L308.592 315.231
L309.038 283.485
L309.485 318.734
L309.931 307.892
L310.378 313.918
L310.824 314.757
L311.27 309.626
L311.717 318.252
L312.163 308.155
L312.61 318.747
L313.056 307.794
L313.502 317.382
L313.949 313.6
L314.395 311.678
L314.842 313.907
L315.288 313.023
L315.734 289.438
L316.181 333.044
L316.627 317.039
L317.52 311.188
L317.966 313.996
L318.413 314.359
L318.859 284.998
L319.306 314.902
L319.752 315.847
L320.198 310.081
L320.645 311.786
L321.538 318.099
L322.43 312.745
L322.877 307.848
L323.323 319.893
L323.77 310.038
L324.662 315.99
L325.109 316.471
L325.555 314.065
L326.002 309.138
L326.448 313.636
L326.894 316.88
L327.787 307.45
L328.234 322.613
L328.68 283.53
L329.126 318.653
L329.573 309.015
L330.019 320.52
L330.466 315.811
L330.912 315.057
L331.358 317.434
L331.805 316.511
L332.698 308.094
L333.144 322.674
L333.59 316.673
L334.037 312.874
L334.483 314.217
L335.376 319.325
L335.822 308.942
L336.269 315.64
L336.715 318.906
L337.162 316.182
L337.608 310.842
L338.054 314.86
L338.501 315.918
L338.947 296.76
L339.394 320.088
L339.84 316.575
L340.286 316.153
L341.179 313.018
L341.626 313.658
L342.072 310.154
L342.518 323.762
L343.411 309.103
L343.858 316.702
L344.304 315.478
L344.75 319.192
L345.197 308.52
L345.643 317.986
L346.09 318.485
L346.536 334.248
L346.982 317.301
L347.429 312.017
L347.875 310.732
L348.322 312.119
L348.768 309.57
L349.214 301.435
L349.661 309.25
L350.107 319.862
L351 311.323
L351.446 310.438
L351.893 315.039
L352.339 316.774
L352.786 315.484
L353.232 314.59
L353.678 314.939
L354.125 314.276
L354.571 306.248
L355.018 320.487
L355.464 312.926
L355.91 312.052
L356.357 307.303
L356.803 309.357
L357.25 319.785
L357.696 312.062
L358.142 313.69
L358.589 304.048
L359.035 320.85
L359.482 313.06
L359.928 308.499
L360.374 316.747
L360.821 314.118
L361.714 311.17
L362.16 284.126
L362.606 318.027
L363.053 304.999
L363.499 324.04
L363.946 312.007
L364.392 309.976
L364.838 310.191
L365.285 323.994
L365.731 308.541
L366.178 316.597
L366.624 316.381
L367.07 303.47
L367.517 319.213
L367.963 308.018
L368.41 320.369
L368.856 312.648
L369.302 318.524
L369.749 311.54
L370.195 314.813
L370.642 305.186
L371.088 314.967
L371.534 314.123
L371.981 315.093
L372.427 311.714
L372.874 312.165
L373.32 311.949
L373.766 319.739
L374.213 312.997
L374.659 309.924
L375.106 315.459
L375.552 319.455
L375.998 311.46
L376.445 311.033
L376.891 317.923
L377.338 312.526
L377.784 313.441
L378.23 312.403
L378.677 317.427
L379.123 312.586
L379.57 288.848
L380.016 308.995
L380.462 318.267
L380.909 307.618
L381.355 314.236
L381.802 312.916
L382.248 301.467
L382.694 327.72
L383.141 309.396
L383.587 314.967
L384.034 313.671
L384.48 311.425
L384.926 317.253
L385.373 306.732
L385.819 318.037
L386.712 308.473
L387.158 314.578
L387.605 309.7
L388.051 313.833
L388.498 292.88
L388.944 314.629
L389.39 314.966
L389.837 315.135
L390.283 311.173
L390.73 315.082
L391.176 314.274
L391.622 311.401
L392.515 314.849
L392.962 314.003
L393.408 306.226
L393.854 323.985
L394.301 309.432
L394.747 318.825
L395.194 309.093
L395.64 343.917
L396.086 262.086
L396.533 312.24
L396.979 334.25
L397.426 320.159
L397.872 312.869
L398.318 332.086
L399.211 305.19
L399.658 303.255
L400.104 314.705
L400.55 321.592
L400.997 311.048
L401.443 318.511
L401.89 304.831
L402.336 321.635
L402.782 309.782
L403.229 315.58
L403.675 304.946
L404.122 325.959
L404.568 310.683
L405.014 310.392
L405.461 317.849
L405.907 314.691
L406.354 309.931
L406.8 319.063
L407.246 310.706
L407.693 316.364
L408.139 314.259
L408.586 310.256
L409.032 318.893
L409.478 307.819
L409.925 326.612
L410.371 314.457
L410.818 286.983
L411.264 316.503
L411.71 314.32
L412.157 314.695
L412.603 316.931
L413.05 309.93
L413.496 324.628
L413.942 324.494
L414.389 303.175
L414.835 321.373
L415.282 289.855
L415.728 337.363
L416.621 289.683
L417.067 311.827
L417.96 317.535
L418.406 312.64
L418.853 313.792
L419.299 310.014
L419.746 317.76
L420.192 313.268
L420.638 324.742
L421.085 316.706
L421.531 322.549
L421.978 312.944
L422.424 309.465
L422.87 311.105
L423.317 318.426
L423.763 306.851
L424.21 314.036
L424.656 312.824
L425.102 318.056
L425.549 310.543
L425.995 287.859
L426.442 309.541
L426.888 315.979
L427.334 310.753
L427.781 315.047
L428.227 317.663
L428.674 310.71
L429.12 319.127
L429.566 308.102
L430.013 318.433
L430.459 310.179
L430.906 312.931
L431.352 317.997
L431.798 310.594
L432.245 309.904
L432.691 292.415
L433.138 315.105
L433.584 255.6
L434.03 318.041
L434.477 302.016
L434.923 314.43
L435.37 311.553
L435.816 317.949
L436.262 311.458
L436.709 312.762
L437.155 316.441
L437.602 311.369
L438.048 288.113
L438.494 309.938
L438.941 319.235
L439.387 307.753
L439.834 318.68
L440.28 309.667
L440.726 319.117
L441.173 308.897
L441.619 318.021
L442.066 314.619
L442.958 312.368
L443.405 289.051
L443.851 308.968
L444.298 316.579
L444.744 310.108
L445.19 316.691
L445.637 310.141
L446.083 309.643
L446.53 309.756
L446.976 318.917
L447.422 316.673
L447.869 287.86
L448.315 334.959
L448.762 311.879
L449.208 324.647
L449.654 321.966
L450.101 315.381
L450.547 314.65
L450.994 314.145
L451.44 317.497
L451.886 315.61
L452.333 316.215
L452.779 312.301
L453.226 317.537
L453.672 319.367
L454.118 311.637
L454.565 313.149
L455.011 319.726
L455.458 315.216
L455.904 291.853
L456.35 325.049
L456.797 311.186
L457.243 319.211
L457.69 315.82
L458.136 310.914
L459.029 318.87
L459.922 314.819
L460.368 316.646
L460.814 310.272
L461.261 319.222
L461.707 310.596
L462.154 320.689
L462.6 316.162
L463.046 309.709
L463.939 320.701
L464.386 313.91
L464.832 314.425
L465.278 314.277
L465.725 318.674
L466.171 307.73
L466.618 318.727
L467.064 314.861
L467.51 315.906
L467.957 313.376
L468.403 308.824
L468.85 318.339
L469.296 317.842
L469.742 314.618
L470.189 315.798
L470.635 311.91
L471.082 318.229
L471.528 313.129
L471.974 309.651
L472.421 318.701
L472.867 314.323
L473.314 313.009
L473.76 313.966
L474.206 312.463
L474.653 319.118
L475.099 310.124
L475.546 315.28
L475.992 313.086
L476.438 312.139
L476.885 312.853
L477.331 321.005
L477.778 314.234
L478.224 311.593
L478.67 303.729
L479.117 315.673
L479.563 319.004
L480.01 308.086
L480.456 319.803
L480.902 312.941
L481.349 294.368
L481.795 331.459
L482.242 321.336
L482.688 280.392
L483.134 318.459
L483.581 311.211
L484.027 317.892
L484.474 281.127
L484.92 318.647
L485.813 310.78
L486.259 313.033
L486.706 325.154
L487.152 315.332
L488.045 312.776
L488.491 310.906
L488.938 321.445
L489.384 309.167
L489.83 317.789
L490.277 315.021
L490.723 316.789
L491.17 302.807
L491.616 314.493
L492.062 310.544
L492.509 319.075
L492.955 312.009
L493.402 311.347
L493.848 314.359
L494.294 319.121
L494.741 308.968
L495.187 316.407
L496.08 315.023
L496.526 309.516
L496.973 317.628
L497.419 304.777
L497.866 319.19
L498.312 317.308
L498.758 310.172
L499.205 315.001
L499.651 315.702
L500.098 314.249
L500.544 308.526
L500.99 317.734
L501.437 279.719
L501.883 322.673
L502.33 310.258
L502.776 318
L503.222 308.353
L503.669 316.956
L504.115 313.926
L504.562 307.775
L505.008 313.817
L505.454 317.343
L505.901 310.819
L506.347 310.631
L506.794 317.563
L507.24 313.871
L507.686 311.72
L508.133 313.296
L508.579 304.47
L509.026 320.844
L509.472 315.069
L509.918 313.283
L510.365 309.598
L510.811 290.558
L511.258 315.277
L511.704 310.351
L512.15 318.506
L512.597 312.833
L513.043 315.347
L513.49 314.383
L513.936 312.723
L514.382 296.306
L514.829 328.969
L515.275 317.259
L515.722 312.845
L516.168 310.522
L516.614 318.574
L517.061 314.44
L517.507 312.209
L517.954 314.829
L517.954 314.829" style="fill:none;stroke:#ff0000;"/>
   </g>
   <g id="line2d_2">
    <path clip-path="url(#p7ff5b81e1d)" d="
M72 307.259
L72.4464 239.725
L72.8928 264.567
L73.3392 278.509
L73.7856 282.474
L74.232 281.723
L74.6784 273.354
L75.1248 288
L75.5712 275.727
L76.0176 282.188
L76.464 275.184
L76.9104 275.333
L77.3568 275.665
L77.8032 284.173
L78.2496 276.422
L78.696 272.133
L79.1424 275.135
L79.5888 282.197
L80.0352 281.935
L80.4816 282.505
L80.928 278.895
L81.3744 313.849
L81.8208 313.224
L82.2672 268.911
L82.7136 276.818
L83.16 305.221
L83.6064 275.088
L84.0528 279.759
L84.4992 278.315
L84.9456 316.962
L85.392 309.857
L85.8384 268.843
L86.2848 300.312
L86.7312 305.305
L87.1776 305.89
L87.624 265.142
L88.0704 318.757
L88.5168 303.909
L88.9632 304.666
L89.4096 301.429
L89.856 323.244
L90.3024 261.934
L90.7488 276.405
L91.1952 280.055
L91.6416 315.729
L92.088 307.08
L92.5344 264.774
L92.9808 317.953
L93.4272 303.268
L93.8736 271.312
L94.32 285.501
L94.7664 266.297
L95.2128 283.523
L95.6592 310.57
L96.1056 309.917
L96.552 307.12
L96.9984 298.932
L97.4448 304.664
L97.8912 303.402
L98.3376 266.144
L98.784 319.208
L99.2304 256.578
L99.6768 318.978
L100.123 303.063
L100.57 309.601
L101.016 302.937
L101.462 306.615
L101.909 271.722
L102.355 312.95
L102.802 304.106
L103.248 260.067
L103.694 323.267
L104.141 301.457
L104.587 267.662
L105.034 315.459
L105.48 262.263
L105.926 321.054
L106.373 306.79
L106.819 302.349
L107.266 309.026
L107.712 307.379
L108.158 303.252
L108.605 305.847
L109.051 301.815
L109.498 309.22
L109.944 277.964
L110.39 313.351
L110.837 299.744
L111.283 316.179
L111.73 263.075
L112.176 323.385
L112.622 307.225
L113.069 306.068
L113.515 313.33
L113.962 301.214
L114.408 310.741
L114.854 271.513
L115.301 317.213
L115.747 310.015
L116.194 300.39
L116.64 263.021
L117.086 319.065
L117.533 309.571
L117.979 289.147
L118.426 315.979
L118.872 305.059
L119.318 259.613
L119.765 322.08
L120.211 304.648
L120.658 303.052
L121.55 312.398
L121.997 294.952
L122.89 309.697
L123.336 302.891
L123.782 308.102
L124.229 299.825
L124.675 300.444
L125.122 269.632
L125.568 313.658
L126.014 305.256
L126.461 280.428
L126.907 305.312
L127.354 305.76
L127.8 260.59
L128.246 319.353
L128.693 311.629
L129.139 306.445
L129.586 308.505
L130.032 306.705
L130.478 300.215
L130.925 307.359
L131.371 264.779
L131.818 323.055
L132.264 304.366
L132.71 303.559
L133.157 308.232
L133.603 250.377
L134.05 322.794
L134.496 301.169
L134.942 310.446
L135.389 304.781
L135.835 306.395
L136.282 303.978
L136.728 303.451
L137.174 303.899
L137.621 310.483
L138.067 300.56
L138.514 308.707
L138.96 295.755
L139.853 313.706
L140.299 307.115
L140.746 277.231
L141.192 303.677
L141.638 304.798
L142.085 303.394
L142.531 303.431
L142.978 308.156
L143.424 307.292
L143.87 299.308
L144.317 319.997
L144.763 301.608
L145.21 261.284
L145.656 316.987
L146.102 302.987
L146.549 306.015
L146.995 299.903
L147.442 289.298
L148.334 311.352
L148.781 306.94
L149.227 307.017
L149.674 299.707
L150.12 305.405
L150.566 303.029
L151.013 313.53
L151.459 299.071
L151.906 303.106
L152.352 313.462
L152.798 299.134
L153.245 307.423
L153.691 309.378
L154.138 302.794
L154.584 304.636
L155.03 285.094
L155.477 300.934
L155.923 309.85
L156.37 312.023
L156.816 307.887
L157.262 306.649
L157.709 304.5
L158.155 311.272
L158.602 305.26
L159.048 302.033
L159.494 313.153
L159.941 305.48
L160.387 309.886
L160.834 309.886
L161.28 306.366
L161.726 306.428
L162.173 310.008
L162.619 289.277
L163.066 309.52
L163.512 303.305
L163.958 312.494
L164.405 312.083
L164.851 307.447
L165.298 307.229
L165.744 310.562
L166.19 307.036
L166.637 298.648
L167.083 310.117
L167.53 311.417
L167.976 306.837
L168.422 312.102
L168.869 302.942
L169.315 268.835
L169.762 318.749
L170.208 309.161
L170.654 304.473
L171.101 303.108
L171.547 308.056
L171.994 302.133
L172.44 305.135
L172.886 310.704
L173.333 304.233
L173.779 314.37
L174.226 304.655
L174.672 303.551
L175.118 307.674
L175.565 304.915
L176.011 306.896
L176.458 303.953
L176.904 302.456
L177.35 305.032
L177.797 302.315
L178.243 290.937
L178.69 321.126
L179.136 302.808
L179.582 293.8
L180.029 305.224
L180.475 310.08
L180.922 308.236
L181.368 299.447
L181.814 306.2
L182.261 302.114
L182.707 309.795
L183.154 309.313
L183.6 299.751
L184.046 306.363
L184.493 279.163
L184.939 305.046
L185.386 302.331
L185.832 306.641
L186.725 304.133
L187.171 307.215
L187.618 304.5
L188.064 310.503
L188.51 304.292
L188.957 306.84
L189.403 303.907
L189.85 296.15
L190.296 315.369
L191.189 307.4
L191.635 291.72
L192.082 302.977
L192.528 309.898
L192.974 306.966
L193.421 299.192
L193.867 310.059
L194.314 303.477
L194.76 304.14
L195.206 308.388
L195.653 307.284
L196.099 298.938
L196.546 284.733
L196.992 306.323
L197.438 301.027
L197.885 306.053
L198.331 305.387
L198.778 310.312
L199.224 300.417
L199.67 307.637
L200.117 277.015
L200.563 307.455
L201.01 299.649
L201.456 305.362
L201.902 307.774
L202.349 304.154
L202.795 301.996
L203.242 306.687
L203.688 292.605
L204.134 312.528
L205.027 299.324
L205.474 305.247
L205.92 303.803
L206.366 308.81
L206.813 302.983
L207.259 302.889
L207.706 281.434
L208.152 292.351
L208.598 323.045
L209.045 305.319
L209.491 309.846
L209.938 304.976
L210.384 303.175
L210.83 307.842
L211.277 297.049
L211.723 310.143
L212.17 307.237
L212.616 308.482
L213.062 300.548
L213.509 311.423
L213.955 294.806
L214.402 316.476
L214.848 301.606
L215.294 305.894
L215.741 275.649
L216.187 315.524
L217.08 232.99
L217.526 298.472
L217.973 331.127
L218.419 303.344
L218.866 300.869
L219.312 305.584
L219.758 281.702
L220.205 309.875
L220.651 325
L221.098 311.426
L221.544 310.015
L221.99 306.778
L222.437 305.781
L222.883 303.2
L223.33 308.752
L223.776 309.919
L224.222 311.955
L224.669 301.144
L225.115 315.294
L225.562 306.274
L226.008 309.473
L226.454 288.668
L227.347 318.429
L227.794 307.252
L228.24 304.912
L228.686 310.686
L229.133 305.604
L229.579 307.169
L230.026 312.464
L230.472 303.902
L230.918 309.094
L231.365 310.742
L231.811 304.13
L232.258 307.582
L232.704 308.363
L233.15 303.663
L233.597 309.183
L234.043 303.639
L234.49 308.149
L234.936 305.063
L235.382 306.379
L235.829 305.49
L236.275 300.319
L236.722 301.175
L237.168 308
L237.614 300.726
L238.061 307.685
L238.507 291.675
L238.954 323.098
L239.4 301.233
L239.846 308.497
L240.293 306.126
L240.739 300.45
L241.186 308.23
L241.632 311.234
L242.078 306.572
L242.525 305.47
L242.971 309.158
L243.418 301.477
L243.864 309.5
L244.31 301.849
L244.757 307.449
L245.203 278.094
L245.65 296.963
L246.096 308.894
L246.542 306.181
L246.989 308.694
L247.435 303.022
L247.882 303.465
L248.328 306.179
L248.774 300.672
L249.221 303.147
L249.667 306.335
L250.114 306.006
L250.56 302.162
L251.006 303.278
L251.453 309.461
L251.899 302.539
L252.346 309.346
L252.792 277.879
L253.238 307.717
L253.685 307.417
L254.131 304.27
L254.578 304.087
L255.024 307.961
L255.47 303.349
L255.917 307.499
L256.363 307.761
L256.81 304.514
L257.256 303.359
L257.702 307.648
L258.149 304.405
L258.595 307.188
L259.042 303.955
L259.488 307.021
L259.934 325.795
L260.381 305.661
L260.827 310.128
L261.274 306.015
L261.72 306.885
L262.166 309.287
L262.613 312.598
L263.059 296.999
L263.506 307.597
L263.952 307.313
L264.398 305.056
L264.845 307.138
L265.291 300.787
L265.738 306.801
L266.184 307.915
L266.63 307.203
L267.077 304.434
L267.523 306.808
L267.97 301.902
L268.416 306.541
L268.862 304.391
L269.309 296.43
L269.755 315.292
L270.202 303.615
L270.648 306.097
L271.094 302.814
L271.541 305.239
L271.987 303.045
L272.434 303.106
L272.88 305.797
L273.326 299.445
L273.773 305.416
L274.219 307.365
L274.666 299.422
L275.112 308.956
L275.558 303.794
L276.005 301.952
L276.451 302.596
L276.898 303.672
L277.344 275.808
L277.79 308.693
L278.237 306.979
L278.683 307.368
L279.13 303.326
L279.576 304.84
L280.022 306.82
L280.469 303.329
L280.915 310.945
L281.362 302.286
L281.808 309.961
L282.701 300.868
L283.147 307.284
L283.594 307.993
L284.04 306.924
L284.486 294.237
L284.933 303.961
L285.379 305.048
L285.826 310.718
L286.272 304.142
L286.718 303.049
L287.165 281.553
L287.611 302.803
L288.058 304.738
L288.504 305.137
L288.95 310.603
L289.397 304.49
L289.843 306.479
L290.29 301.857
L290.736 306.993
L291.182 308.202
L291.629 280.327
L292.075 303.861
L292.522 303.082
L292.968 295.845
L293.414 309.244
L293.861 299.817
L294.307 310.216
L294.754 307.545
L295.2 307.76
L295.646 302.008
L296.093 310.405
L296.539 300.041
L296.986 306.709
L297.432 296.56
L297.878 313.716
L298.325 305.379
L298.771 275.601
L299.664 314.716
L300.11 316.912
L300.557 297.62
L301.003 314.149
L301.45 303.942
L301.896 305.352
L302.342 307.603
L302.789 305.071
L303.235 303.642
L303.682 309.699
L304.128 307.202
L304.574 301.967
L305.021 306.705
L305.467 308.756
L305.914 283.689
L306.36 302.717
L306.806 310.056
L307.253 305.332
L307.699 310.209
L308.146 310.02
L308.592 303.462
L309.038 310.332
L309.485 313.033
L309.931 305.305
L310.378 314.556
L310.824 312.683
L311.27 306.739
L311.717 305.594
L312.163 309.755
L312.61 309.776
L313.056 306.68
L313.502 291.121
L313.949 310.508
L314.395 309.926
L314.842 303.158
L315.288 312.063
L315.734 307.518
L316.181 305.169
L316.627 309.549
L317.074 309.933
L317.52 306.32
L317.966 309.819
L318.413 305.686
L318.859 310.314
L319.306 303.126
L319.752 309.275
L320.198 309.66
L320.645 311.03
L321.091 300.447
L321.538 309.077
L321.984 303.037
L322.43 303.367
L322.877 310.275
L323.77 303.753
L324.216 304.554
L325.109 307.327
L325.555 310.547
L326.002 304.816
L326.448 303.894
L326.894 308.426
L327.341 302.983
L327.787 307.604
L328.234 300.648
L328.68 302.631
L329.126 303.168
L329.573 306.929
L330.019 289.692
L330.466 316.026
L330.912 299.324
L331.358 308.937
L331.805 307.152
L332.698 297.252
L333.144 315.779
L333.59 303.241
L334.037 302.226
L334.483 307.454
L334.93 303.187
L335.376 278.198
L335.822 304.938
L336.269 307.103
L336.715 300.972
L337.162 310.07
L337.608 305.092
L338.054 306.823
L338.501 300.851
L338.947 307.473
L339.394 305.171
L339.84 307.417
L340.286 307.539
L341.179 307.48
L341.626 304.903
L342.072 310.265
L342.518 287.493
L342.965 314.397
L343.411 304.36
L343.858 311.314
L344.304 306.805
L344.75 307.886
L345.197 300.199
L345.643 308.108
L346.536 299.125
L346.982 288.152
L347.429 304.738
L347.875 303.857
L348.322 303.835
L348.768 310.675
L349.214 305.062
L349.661 306.4
L350.107 299.116
L350.554 285.915
L351 305.956
L351.446 299.797
L351.893 306.18
L352.339 306.741
L352.786 304.793
L353.232 300.763
L353.678 299.644
L354.125 312.292
L354.571 295.877
L355.018 309.971
L355.464 306.369
L355.91 303.748
L356.357 305.601
L356.803 303.247
L357.25 306.29
L357.696 300.042
L358.142 306.791
L358.589 279.371
L359.035 305.685
L359.482 306.989
L359.928 289.394
L360.374 319.633
L360.821 304.714
L361.267 307.029
L361.714 303.502
L362.16 311.628
L362.606 304.558
L363.053 300.735
L363.499 307.365
L363.946 304.712
L364.392 309.809
L364.838 304.894
L365.285 303.69
L365.731 305.08
L366.178 308.046
L366.624 275.95
L367.07 315.076
L367.517 201.156
L367.963 305.396
L368.41 293.163
L368.856 310.661
L369.302 310.382
L369.749 313
L370.195 309.008
L370.642 306.668
L371.088 309.902
L371.534 309.489
L371.981 304.132
L372.427 312.116
L372.874 303.884
L373.32 307.143
L373.766 312.542
L374.213 305.799
L374.659 296.407
L375.106 316.817
L375.552 305.072
L375.998 303.327
L376.445 305.499
L376.891 310.28
L377.338 301.915
L377.784 304.406
L378.23 310.298
L378.677 295.511
L379.123 312.828
L379.57 305.077
L380.016 300.596
L380.462 315.479
L380.909 306.679
L381.355 279.783
L381.802 297.936
L382.248 309.292
L382.694 303.186
L383.141 300.013
L383.587 309.649
L384.034 292.584
L384.48 312.393
L384.926 302.316
L385.373 303.218
L385.819 283.587
L386.266 304.783
L386.712 301.825
L387.158 310.924
L387.605 306.977
L388.051 308.026
L388.498 310.467
L388.944 304.668
L389.39 307.768
L389.837 291.172
L390.283 318.006
L390.73 307.359
L391.176 300.578
L391.622 310.854
L392.069 304.961
L392.515 303.21
L392.962 294.603
L393.408 302.971
L393.854 309.08
L394.747 304.871
L395.194 307.167
L395.64 308.296
L396.086 301.455
L396.533 309.602
L396.979 305.095
L397.426 314.395
L397.872 302.164
L398.318 303.93
L399.211 311.374
L399.658 307.105
L400.104 310.812
L400.55 301.418
L400.997 279.202
L401.443 310.01
L401.89 302.55
L402.336 302.552
L402.782 306.747
L403.229 301.954
L403.675 306.637
L404.122 300.581
L404.568 308.996
L405.014 303.215
L405.461 304.703
L405.907 304.329
L406.8 302.276
L407.246 306.481
L407.693 303.275
L408.586 303.381
L409.032 280.802
L409.478 308.11
L409.925 307.004
L410.371 306.477
L410.818 312.428
L411.264 289.674
L411.71 308.819
L412.157 310.495
L412.603 305.946
L413.05 312.316
L413.942 308.826
L414.389 304.586
L414.835 314.947
L415.282 306.69
L415.728 310.335
L416.174 298.53
L416.621 314.469
L417.067 312.976
L417.514 309.559
L417.96 304.331
L418.406 316.356
L418.853 305.616
L419.299 304.254
L419.746 305.684
L420.192 306.597
L420.638 286.398
L421.085 319.946
L421.531 311.188
L421.978 307.012
L422.87 302.712
L423.317 305.447
L423.763 310.451
L424.21 301.156
L424.656 307.932
L425.102 308.397
L425.549 304.485
L425.995 303.355
L426.442 300.359
L426.888 302.683
L427.334 306.322
L427.781 308.169
L428.227 300.397
L428.674 307.491
L429.12 300.213
L429.566 310.058
L430.013 302.125
L430.459 307.196
L430.906 303.526
L431.352 306.133
L431.798 299.834
L432.245 306.267
L432.691 306.335
L433.138 272.451
L433.584 309.924
L434.03 302.219
L434.477 306.678
L434.923 308.597
L435.37 307.339
L435.816 301.508
L436.262 306.907
L436.709 304.812
L437.155 300.787
L437.602 311.24
L438.494 303.787
L438.941 312.203
L439.387 307.078
L439.834 307.859
L440.28 307.256
L440.726 291.343
L441.173 306.914
L441.619 305.494
L442.066 309.924
L442.512 304.938
L442.958 307.064
L443.405 300.902
L443.851 309.001
L444.298 306.477
L444.744 302.105
L445.19 309.777
L445.637 305.606
L446.083 307.014
L446.53 304.517
L446.976 301.196
L447.422 311.331
L447.869 275.904
L448.315 303.403
L448.762 308.406
L449.208 305.501
L449.654 296.726
L450.547 310.143
L450.994 294.441
L451.44 324.953
L451.886 303.775
L452.333 305.93
L453.226 300.219
L453.672 305.847
L454.118 306.486
L454.565 300.696
L455.011 281.945
L455.458 307.347
L455.904 307.757
L456.35 303.744
L456.797 309.147
L457.243 306.824
L457.69 305.406
L458.136 300.615
L458.582 307.48
L459.029 305.024
L459.475 307.205
L459.922 304.991
L460.368 306.753
L460.814 307.958
L461.261 301.273
L461.707 307.457
L462.154 286.176
L462.6 307.514
L463.046 305.583
L463.493 310.256
L463.939 309.313
L464.386 307.586
L464.832 309.025
L465.278 306.234
L465.725 306.088
L466.171 310.549
L466.618 305.702
L467.064 306.94
L467.51 304.261
L467.957 310.797
L468.85 312.034
L469.296 299.256
L469.742 302.642
L470.189 307.041
L470.635 306.977
L471.082 303.479
L471.528 315.104
L471.974 307.109
L472.421 309.161
L472.867 304.447
L473.314 310.098
L473.76 310.498
L474.206 307.226
L474.653 299.918
L475.099 313.972
L475.546 309.024
L475.992 307.314
L476.438 303.064
L476.885 312.942
L477.331 308.523
L477.778 301.466
L478.67 307.466
L479.117 306.157
L479.563 308.997
L480.01 303.699
L480.456 307.983
L480.902 303.968
L481.349 304.999
L481.795 290.457
L482.242 320.958
L482.688 308.231
L483.134 307.874
L483.581 304.422
L484.027 304.329
L484.474 299.979
L484.92 309.927
L485.366 299.894
L485.813 307.256
L486.259 304.989
L486.706 300.774
L487.152 305.398
L487.598 314.264
L488.045 303.182
L488.491 302.825
L488.938 302.951
L489.384 305.726
L489.83 306.958
L490.277 302.325
L490.723 303.814
L491.17 306.234
L491.616 279.474
L492.062 300.562
L492.509 307.647
L492.955 308.244
L493.402 307.161
L493.848 304.049
L494.294 304.512
L494.741 307.577
L495.187 305.06
L495.634 303.549
L496.08 309.174
L496.526 300.717
L496.973 310.54
L497.419 279.884
L497.866 301.257
L498.312 307.089
L498.758 298.221
L499.205 304.326
L499.651 304.174
L500.098 310.714
L500.544 302.025
L500.99 308.283
L501.437 306.933
L501.883 304.961
L502.33 299.441
L502.776 309.833
L503.222 310.027
L503.669 301.901
L504.115 310.199
L504.562 298.914
L505.008 309.877
L505.454 305.155
L505.901 303.333
L506.347 311.369
L506.794 280.535
L507.24 301.918
L507.686 303.4
L508.133 306.803
L508.579 303.563
L509.026 307.005
L509.472 301.966
L509.918 301.683
L510.365 310.588
L510.811 301.739
L511.258 309.492
L511.704 303.608
L512.15 290.32
L512.597 315.941
L513.043 301.038
L513.49 313.117
L513.936 303.096
L514.382 303.753
L514.829 280.707
L515.275 301.561
L515.722 311.057
L516.168 304.127
L516.614 307.998
L517.061 299.508
L517.507 310.379
L517.954 267.11
L517.954 267.11" style="fill:none;opacity:0.7;stroke:#008000;"/>
   </g>
   <g id="line2d_3">
    <path clip-path="url(#p7ff5b81e1d)" d="
M72 298.805
L72.4464 226.192
L72.8928 268.375
L73.3392 271.828
L73.7856 246.393
L74.232 266.884
L75.1248 280.018
L75.5712 279.303
L76.0176 295.113
L76.464 325.542
L76.9104 274.94
L77.3568 295.386
L77.8032 287.648
L78.2496 284.457
L78.696 327.518
L79.1424 277.828
L79.5888 327.305
L80.0352 316.784
L80.4816 315.676
L80.928 277.925
L81.3744 285.377
L81.8208 334.61
L82.2672 271.48
L82.7136 293.084
L83.16 292.234
L83.6064 294.165
L84.0528 311.799
L84.4992 314.587
L84.9456 327.387
L85.392 317.48
L85.8384 311.798
L86.2848 284.45
L86.7312 279.918
L87.1776 341.391
L87.624 273.98
L88.0704 327.373
L88.5168 275.56
L88.9632 325.416
L89.4096 280.896
L89.856 327.391
L90.3024 262.608
L90.7488 291.423
L91.1952 309.652
L91.6416 280.659
L92.088 323.292
L92.5344 313.481
L92.9808 322.271
L93.4272 313.087
L93.8736 316.679
L94.32 311.137
L94.7664 313.392
L95.2128 319.307
L95.6592 272.881
L96.1056 286.759
L96.552 331.436
L96.9984 312.097
L97.8912 320.034
L98.3376 282.789
L98.784 222.138
L99.2304 328.952
L99.6768 316.39
L100.123 293.144
L100.57 322.506
L101.016 275.08
L101.462 309.483
L101.909 315.828
L102.355 276.522
L102.802 283.709
L103.248 337.774
L103.694 319.194
L104.141 270.928
L104.587 291.436
L105.034 330.797
L105.48 272.886
L105.926 267.507
L106.373 332.66
L106.819 313.064
L107.266 275.327
L107.712 332.908
L108.158 313.413
L108.605 319.197
L109.051 317.045
L109.498 316.953
L109.944 310.859
L110.39 248.468
L110.837 293.813
L111.283 327.621
L111.73 313.741
L112.176 320.618
L112.622 315.656
L113.069 305.008
L113.515 324.405
L113.962 318.807
L114.408 275.285
L114.854 327.58
L115.301 317.796
L115.747 315.857
L116.194 316.822
L116.64 311.935
L117.086 318.795
L117.533 315.213
L117.979 317.604
L118.426 313.985
L118.872 305.043
L119.318 326.51
L119.765 315.953
L120.211 254.52
L120.658 278.67
L121.104 332.898
L121.55 317.055
L121.997 273.533
L122.443 303.983
L122.89 316.372
L123.336 321.339
L123.782 317.899
L124.229 311.548
L124.675 322.088
L125.122 314.357
L125.568 317.159
L126.014 315.504
L126.461 319.337
L126.907 316.368
L127.354 321.075
L127.8 315.103
L128.246 317.856
L128.693 307.463
L129.139 330.053
L129.586 313.946
L130.032 321.508
L130.478 317.59
L130.925 314.706
L131.371 312.896
L131.818 323.575
L132.264 295.86
L132.71 280.042
L133.157 332.704
L133.603 314.774
L134.05 318.902
L134.942 314.043
L135.389 321.843
L135.835 309.363
L136.282 323.504
L136.728 312.41
L137.174 319.637
L137.621 316.686
L138.067 312.038
L138.514 318.888
L139.406 315.694
L139.853 320.198
L140.299 308.133
L140.746 327.403
L141.192 311.973
L141.638 318.819
L142.085 318.808
L142.531 312.703
L142.978 317.712
L143.424 313.651
L143.87 320.751
L144.317 313.809
L144.763 314.649
L145.21 315.728
L145.656 320.989
L146.102 267.511
L146.549 337.763
L146.995 313.135
L147.442 320.266
L147.888 315.714
L148.334 316.187
L148.781 307.176
L149.227 317.321
L149.674 318.828
L150.12 305.494
L150.566 324.241
L151.013 315.473
L151.459 315.936
L151.906 314.422
L152.352 298.638
L152.798 331.225
L153.245 275.444
L153.691 330.283
L154.138 316.571
L154.584 313.869
L155.03 313.098
L155.477 319.294
L155.923 313.621
L156.37 313.482
L156.816 319.561
L157.262 313.68
L157.709 289.646
L158.155 319.649
L158.602 320.87
L159.048 314.46
L159.494 313.336
L159.941 326.656
L160.387 315.313
L160.834 310.153
L161.28 322.386
L161.726 314.766
L162.173 317.047
L162.619 313.148
L163.066 318.643
L163.512 312.572
L163.958 317.756
L164.405 307.822
L164.851 319.618
L165.298 319.997
L165.744 318.867
L166.19 305.356
L166.637 311.705
L167.083 321.81
L167.53 314.792
L167.976 316.044
L168.422 314.283
L168.869 314.138
L169.315 315.213
L169.762 321.094
L170.208 316.747
L170.654 267.262
L171.101 332.804
L171.547 319.89
L171.994 314.034
L172.44 316.426
L172.886 312.775
L173.333 319.021
L173.779 311.004
L174.226 317.671
L174.672 320.101
L175.118 287.312
L175.565 323.745
L176.011 315.01
L176.458 314.397
L176.904 319.766
L177.35 314.147
L177.797 318.04
L178.243 311.898
L178.69 316.725
L179.136 317.004
L179.582 315.79
L180.029 309.973
L180.475 313.914
L180.922 322.061
L181.368 306.444
L181.814 324.061
L182.261 312.718
L182.707 317.974
L183.154 285.818
L183.6 317.471
L184.046 276.178
L184.493 315.654
L184.939 327.689
L185.386 316.547
L185.832 321.731
L186.278 314.508
L187.171 320.752
L187.618 310.024
L188.064 319.701
L188.51 317.122
L188.957 313.604
L189.403 313.465
L189.85 316.511
L190.296 315.283
L190.742 314.733
L191.189 319.225
L191.635 283.451
L192.082 324.597
L192.528 320.147
L192.974 320.391
L193.421 315.741
L193.867 314.625
L194.314 321.145
L194.76 317.561
L195.206 311.41
L195.653 321.698
L196.099 313.297
L196.546 319.424
L196.992 316.96
L197.438 317.171
L197.885 313.998
L198.331 319.527
L198.778 315.139
L199.224 314.058
L199.67 322.562
L200.117 311.499
L200.563 303.754
L201.01 317.182
L201.456 317.977
L201.902 317.724
L202.349 314.535
L202.795 320.869
L203.242 311.695
L203.688 321.169
L204.134 313.52
L204.581 321.672
L205.027 308.851
L205.474 322.903
L205.92 313.695
L206.366 315.978
L206.813 320.583
L207.259 317.922
L207.706 316.584
L208.152 313.655
L208.598 318.436
L209.045 317.974
L209.491 311.887
L209.938 315.824
L210.384 306.902
L210.83 321.907
L211.277 315.853
L211.723 318.951
L212.17 318.377
L212.616 314.546
L213.062 316.853
L213.509 311.008
L213.955 315.506
L214.402 318.347
L214.848 318.919
L215.294 316.927
L215.741 314.356
L216.187 316.076
L216.634 312.687
L217.08 312.035
L217.526 310.054
L217.973 324.445
L218.419 310.018
L218.866 319.175
L219.312 316.191
L219.758 306.915
L220.205 322.041
L220.651 316.015
L221.098 312.913
L221.544 317.131
L221.99 316.592
L222.437 309.827
L222.883 316.307
L223.33 315.814
L223.776 316.652
L224.222 310.648
L224.669 316.652
L225.115 317.768
L225.562 310.634
L226.008 321.646
L226.454 285.814
L226.901 316.01
L227.347 315.982
L227.794 317.427
L228.24 309.662
L228.686 317.346
L229.133 316.353
L229.579 314.564
L230.026 316.026
L230.472 320.477
L230.918 311.042
L231.365 320.235
L231.811 313.018
L232.258 318.859
L232.704 317.538
L233.15 311.669
L233.597 328.219
L234.043 313.161
L234.49 317.759
L234.936 302.421
L235.382 314.688
L235.829 314.92
L236.275 321.51
L236.722 315.195
L237.168 324.706
L237.614 312.506
L238.061 316.913
L238.507 315.427
L238.954 320.904
L239.846 311.882
L240.293 319.493
L240.739 313.895
L241.186 318.094
L241.632 317.304
L242.078 311.687
L242.525 316.131
L242.971 317.101
L243.418 320.637
L243.864 312.133
L244.31 289.977
L244.757 317.153
L245.203 320.46
L245.65 314.311
L246.096 315.588
L246.542 311.179
L246.989 319.207
L247.435 316.612
L247.882 315.469
L248.328 313.734
L248.774 316.029
L249.221 306.801
L249.667 322.156
L250.114 305.183
L250.56 335.828
L251.006 313.984
L251.453 306.903
L251.899 325.705
L252.346 313.625
L252.792 316.472
L253.238 311.888
L253.685 291.949
L254.131 316.71
L254.578 313.164
L255.024 318.055
L255.47 316.123
L255.917 311.523
L256.363 320.2
L256.81 313.377
L257.256 319.482
L257.702 221.524
L258.149 277.723
L258.595 316.558
L259.042 317.223
L259.488 316.646
L259.934 317.788
L260.827 320.88
L261.274 321.841
L261.72 320.795
L262.166 312.936
L262.613 318.133
L263.059 316.368
L263.506 317.443
L263.952 309.927
L264.398 321.331
L264.845 313.2
L265.291 295.941
L265.738 312.35
L266.184 318.389
L266.63 315.615
L267.077 316.838
L267.523 318.765
L267.97 317.159
L268.416 322.061
L268.862 311.199
L269.309 321.894
L269.755 314.548
L270.202 320.545
L270.648 315.168
L271.094 318.26
L271.541 317.095
L271.987 305.701
L272.434 316.867
L272.88 311.083
L273.326 316.437
L273.773 319.924
L274.219 314.957
L274.666 312.459
L275.112 320.507
L275.558 316.773
L276.005 310.923
L276.898 318.168
L277.344 310.739
L277.79 316.231
L278.237 319.177
L278.683 310.292
L279.13 315.638
L279.576 314.463
L280.022 318.228
L280.469 313.159
L280.915 319.199
L281.362 310.47
L281.808 319.469
L282.254 300.83
L282.701 327.82
L283.147 317.152
L283.594 315.904
L284.04 313.283
L284.486 315.993
L284.933 311.922
L285.379 290.207
L285.826 313.861
L286.272 320.374
L286.718 316.28
L287.165 314.119
L287.611 311.289
L288.058 318.332
L288.504 317.414
L288.95 313.145
L289.397 317.2
L289.843 313.799
L290.29 320.341
L290.736 316.669
L291.182 311.269
L291.629 316.731
L292.075 320.107
L292.968 313.567
L293.414 317.409
L293.861 306.465
L294.307 313.432
L294.754 313.903
L295.2 316.776
L295.646 316.272
L296.093 318.691
L296.539 314.968
L296.986 313.479
L297.878 312.717
L298.325 325.751
L298.771 311.781
L299.218 316.8
L299.664 313.693
L300.11 320.06
L300.557 313.954
L301.003 317.241
L301.45 313.486
L301.896 321.972
L302.342 315.973
L302.789 312.575
L303.235 290.567
L303.682 320.052
L304.128 312.179
L304.574 317.09
L305.021 316.648
L305.467 316.597
L305.914 313.737
L306.36 317.073
L306.806 315.87
L307.253 314
L307.699 316.68
L308.146 312.224
L308.592 314.03
L309.038 319.089
L309.485 317.364
L309.931 311.147
L310.378 315.051
L310.824 317.022
L311.27 314.153
L311.717 320.493
L312.163 315.656
L312.61 289.38
L313.056 317.329
L313.502 313.254
L313.949 315.29
L314.395 316.147
L314.842 316.612
L315.288 334.368
L315.734 313.596
L316.181 319.968
L316.627 312.357
L317.074 321.179
L317.52 317.433
L317.966 300.183
L318.413 319.166
L318.859 314.674
L319.306 320.448
L319.752 307.69
L320.198 323.688
L320.645 318.621
L321.091 323.413
L321.538 307.449
L321.984 326.363
L322.43 309.069
L322.877 319.633
L323.323 317.441
L323.77 319.861
L324.216 321.018
L324.662 313.64
L325.109 315.531
L325.555 321.607
L326.002 318.035
L326.448 308.483
L326.894 315.557
L327.341 328.418
L327.787 317.311
L328.234 314.494
L328.68 316.909
L329.126 316.203
L330.019 314.26
L330.466 320.691
L330.912 314.102
L331.358 313.6
L331.805 317.475
L332.251 314.772
L332.698 316.441
L333.144 327.226
L333.59 316.702
L334.483 313.437
L334.93 319.967
L335.376 307.921
L335.822 316.581
L336.269 322.14
L336.715 314.772
L337.162 319.434
L337.608 316.179
L338.054 310.658
L338.501 319.536
L338.947 317.368
L339.394 313.939
L339.84 316.123
L340.286 313.173
L340.733 289.51
L341.179 311.705
L341.626 321.285
L342.072 313.237
L342.518 312.806
L342.965 320.706
L343.411 286.162
L343.858 323.183
L344.304 314.202
L344.75 314.819
L345.643 320.187
L346.09 317.715
L346.536 311.002
L346.982 320.342
L347.429 317.212
L347.875 297.071
L348.322 331.79
L348.768 316.916
L349.214 318.611
L349.661 313.918
L350.107 317.053
L350.554 317.929
L351 314.683
L351.446 316.511
L351.893 320.569
L352.339 304.655
L353.232 321.605
L353.678 312.117
L354.125 319.754
L354.571 314.227
L355.018 318.231
L355.464 318.789
L356.357 314.163
L356.803 317.058
L357.25 317.261
L357.696 313.827
L358.142 314.015
L358.589 320.656
L359.482 314.85
L359.928 313.269
L360.374 320.233
L360.821 295.171
L361.267 312.991
L361.714 320.987
L362.16 312.108
L362.606 316.965
L363.053 316.483
L363.499 312.546
L363.946 317.192
L364.392 316.047
L364.838 313.803
L365.285 312.522
L365.731 319.228
L366.178 314.036
L366.624 312.682
L367.07 315.655
L367.517 317.054
L367.963 313.647
L368.41 317.793
L368.856 290.119
L369.749 326.01
L370.195 313.816
L370.642 318.396
L371.088 309.526
L371.534 323.291
L371.981 314.144
L372.427 317.098
L372.874 313.34
L373.32 317.165
L373.766 317.743
L374.213 316.164
L374.659 309.619
L375.106 322.324
L375.552 316.399
L375.998 316.61
L376.445 311.48
L376.891 319.892
L377.338 314.013
L377.784 290.235
L378.23 320.442
L379.123 314.312
L379.57 313.705
L380.016 323.345
L380.462 303.805
L380.909 328.651
L381.355 317.868
L381.802 314.197
L382.248 315.995
L382.694 321.48
L383.141 307.62
L383.587 324.358
L384.034 318.671
L384.48 319.674
L384.926 317.601
L385.373 313.254
L385.819 321.783
L386.266 302.885
L386.712 314.515
L387.158 317.613
L387.605 316.254
L388.051 317.877
L388.498 318.836
L388.944 321.473
L389.39 318.527
L389.837 317.565
L390.283 318.772
L390.73 320.396
L391.176 317.301
L391.622 317.699
L392.069 314.865
L392.515 322.63
L392.962 321.243
L393.408 318.352
L393.854 318.316
L394.301 315.483
L394.747 317.951
L395.194 314.472
L395.64 315.099
L396.086 317.004
L396.533 317.471
L396.979 312.871
L397.426 319.177
L397.872 317.188
L398.318 313.362
L398.765 315.331
L399.211 320.649
L400.104 311.708
L400.55 324.976
L400.997 319.332
L401.443 315.221
L401.89 316.361
L402.336 323.548
L402.782 317.325
L403.675 313.73
L404.122 315.585
L404.568 310.116
L405.014 317.362
L405.461 310.295
L405.907 323.528
L406.354 317.055
L406.8 316.216
L407.246 309.253
L407.693 321.655
L408.139 312.343
L408.586 317.249
L409.032 312.281
L409.478 317.783
L409.925 316.317
L410.371 315.87
L410.818 312.945
L411.264 315.234
L411.71 326.263
L412.157 286.072
L412.603 311.837
L413.05 322.363
L413.496 305.099
L413.942 329.915
L414.389 319.571
L414.835 316.3
L415.282 312.037
L415.728 319.561
L416.174 316.687
L416.621 316.481
L417.067 311.243
L417.96 319.499
L418.406 318.01
L418.853 314.02
L419.299 190.206
L420.192 305.863
L420.638 297.058
L421.085 325.925
L421.531 321.229
L421.978 307.007
L422.424 316.6
L422.87 315.874
L423.317 305.442
L423.763 324.257
L424.21 318.697
L424.656 317.196
L425.102 312.661
L425.549 315.336
L425.995 320.971
L426.442 317.3
L426.888 321.323
L427.334 321.016
L427.781 311.917
L428.227 317.239
L428.674 320.476
L429.12 321.212
L429.566 317.08
L430.013 314.6
L430.459 318.415
L430.906 313.598
L431.352 316.835
L431.798 316.818
L432.245 318.71
L432.691 317.399
L433.138 313.717
L433.584 314.634
L434.03 319.718
L434.477 314.117
L434.923 320.89
L435.37 311.133
L435.816 320.153
L436.262 318.209
L436.709 314.435
L437.155 313.105
L437.602 318.446
L438.048 320.893
L438.494 314.317
L438.941 317.33
L439.387 317.818
L439.834 289.623
L440.28 318.164
L440.726 308.643
L441.173 328.269
L441.619 314.999
L442.066 313.165
L442.512 319.846
L442.958 315.838
L443.405 321.149
L443.851 317.479
L444.298 317.792
L444.744 312.122
L445.19 319.077
L445.637 301.659
L446.083 325.319
L446.53 326.48
L446.976 317.839
L447.422 312.24
L447.869 320.681
L448.315 306.88
L448.762 321.604
L449.208 317.103
L449.654 315.918
L450.101 314.156
L450.547 321.177
L450.994 318.352
L451.44 320.853
L452.333 317.052
L452.779 313.055
L453.226 320.389
L453.672 314.538
L454.118 322.966
L454.565 335.082
L455.011 324.576
L455.458 319.057
L456.35 312.609
L456.797 319.38
L457.243 316.047
L457.69 314.727
L458.136 316.899
L458.582 313.027
L459.029 320.198
L459.475 314.43
L459.922 315.949
L460.814 312.54
L461.261 320.718
L461.707 314.149
L462.154 318.222
L462.6 315.078
L463.046 317.466
L463.493 310.584
L463.939 322.055
L464.386 316.719
L464.832 316.266
L465.278 309.246
L465.725 319.007
L466.171 312.448
L466.618 316.464
L467.064 316.468
L467.51 310.393
L467.957 320.056
L468.85 312.477
L469.296 313.661
L469.742 319.381
L470.189 313.126
L471.082 322.605
L471.528 315.433
L471.974 314.47
L472.421 316.155
L472.867 312.147
L473.314 319.972
L473.76 325.288
L474.206 286.497
L474.653 312.461
L475.099 318.134
L475.546 315.191
L475.992 315.886
L476.438 319.357
L476.885 328.715
L477.331 313.063
L477.778 288.889
L478.224 315.55
L478.67 306.847
L479.117 333.952
L479.563 312.597
L480.01 316.094
L480.456 317.048
L480.902 315.955
L481.349 316.03
L481.795 313.738
L482.242 312.749
L482.688 319.472
L483.134 308.572
L483.581 317.162
L484.027 315.362
L484.474 314.244
L484.92 320.372
L485.366 315.989
L485.813 313.808
L486.259 313.717
L486.706 316.055
L487.152 287.212
L487.598 318.578
L488.045 320.013
L488.491 324.299
L488.938 314.612
L489.384 317.865
L490.277 315.73
L490.723 316.618
L491.17 315.923
L491.616 315.64
L492.062 314.188
L492.509 320.201
L492.955 315.162
L493.402 317.134
L493.848 317.149
L494.294 314.448
L494.741 315.196
L495.187 320.027
L495.634 317.238
L496.08 315.503
L496.526 316.388
L496.973 300.279
L497.866 322.168
L498.312 314.606
L498.758 320.922
L499.205 312.659
L499.651 322.099
L500.098 318.279
L500.544 318.369
L500.99 312.287
L501.437 328.091
L501.883 319.087
L502.33 256.294
L502.776 317.961
L503.222 321.57
L503.669 317.313
L504.115 316.296
L504.562 318.802
L505.008 315.012
L505.454 317.09
L505.901 315.235
L506.347 321.599
L506.794 303.808
L507.24 316.098
L507.686 312.835
L508.133 318.932
L508.579 321.826
L509.026 312.215
L509.472 322.282
L509.918 313.979
L510.365 318.999
L510.811 316.085
L511.258 305.144
L511.704 341.332
L512.15 312.663
L512.597 317.257
L513.043 316.668
L513.49 322.478
L513.936 312.166
L514.382 322.349
L515.275 311.814
L516.168 322.61
L517.061 315.628
L517.507 315.867
L517.954 313.88
L517.954 313.88" style="fill:none;opacity:0.5;stroke:#0000ff;"/>
   </g>
   <g id="matplotlib.axis_1">
    <g id="xtick_1">
     <g id="line2d_4">
      <path clip-path="url(#p7ff5b81e1d)" d="
M72 388.8
L72 43.2" style="fill:none;stroke:#000000;stroke-dasharray:1.000000,3.000000;stroke-dashoffset:0.0;stroke-linecap:butt;stroke-width:0.5;"/>
     </g>
     <g id="line2d_5">
      <defs>
       <path d="
M0 0
L0 -4" id="m0012dd4eef" style="stroke:#000000;stroke-linecap:butt;stroke-width:0.5;"/>
      </defs>
      <g>
       <use style="stroke:#000000;stroke-linecap:butt;stroke-width:0.5;" x="72.0" xlink:href="#m0012dd4eef" y="388.8"/>
      </g>
     </g>
     <g id="line2d_6">
      <defs>
       <path d="
M0 0
L0 4" id="m476344969c" style="stroke:#000000;stroke-linecap:butt;stroke-width:0.5;"/>
      </defs>
      <g>
       <use style="stroke:#000000;stroke-linecap:butt;stroke-width:0.5;" x="72.0" xlink:href="#m476344969c" y="43.2"/>
      </g>
     </g>
     <g id="text_1">
      <!-- 0 -->
      <defs>
       <path d="
M31.7812 66.4062
Q24.1719 66.4062 20.3281 58.9062
Q16.5 51.4219 16.5 36.375
Q16.5 21.3906 20.3281 13.8906
Q24.1719 6.39062 31.7812 6.39062
Q39.4531 6.39062 43.2812 13.8906
Q47.125 21.3906 47.125 36.375
Q47.125 51.4219 43.2812 58.9062
Q39.4531 66.4062 31.7812 66.4062
M31.7812 74.2188
Q44.0469 74.2188 50.5156 64.5156
Q56.9844 54.8281 56.9844 36.375
Q56.9844 17.9688 50.5156 8.26562
Q44.0469 -1.42188 31.7812 -1.42188
Q19.5312 -1.42188 13.0625 8.26562
Q6.59375 17.9688 6.59375 36.375
Q6.59375 54.8281 13.0625 64.5156
Q19.5312 74.2188 31.7812 74.2188" id="BitstreamVeraSans-Roman-30"/>
      </defs>
      <g transform="translate(68.9765625 401.70625)scale(0.12 -0.12)">
       <use xlink:href="#BitstreamVeraSans-Roman-30"/>
      </g>
     </g>
    </g>
    <g id="xtick_2">
     <g id="line2d_7">
      <path clip-path="url(#p7ff5b81e1d)" d="
M116.64 388.8
L116.64 43.2" style="fill:none;stroke:#000000;stroke-dasharray:1.000000,3.000000;stroke-dashoffset:0.0;stroke-linecap:butt;stroke-width:0.5;"/>
     </g>
     <g id="line2d_8">
      <g>
       <use style="stroke:#000000;stroke-linecap:butt;stroke-width:0.5;" x="116.64" xlink:href="#m0012dd4eef" y="388.8"/>
      </g>
     </g>
     <g id="line2d_9">
      <g>
       <use style="stroke:#000000;stroke-linecap:butt;stroke-width:0.5;" x="116.64" xlink:href="#m476344969c" y="43.2"/>
      </g>
     </g>
     <g id="text_2">
      <!-- 100 -->
      <defs>
       <path d="
M12.4062 8.29688
L28.5156 8.29688
L28.5156 63.9219
L10.9844 60.4062
L10.9844 69.3906
L28.4219 72.9062
L38.2812 72.9062
L38.2812 8.29688
L54.3906 8.29688
L54.3906 0
L12.4062 0
z
" id="BitstreamVeraSans-Roman-31"/>
      </defs>
      <g transform="translate(106.245 401.70625)scale(0.12 -0.12)">
       <use xlink:href="#BitstreamVeraSans-Roman-31"/>
       <use x="63.623046875" xlink:href="#BitstreamVeraSans-Roman-30"/>
       <use x="127.24609375" xlink:href="#BitstreamVeraSans-Roman-30"/>
      </g>
     </g>
    </g>
    <g id="xtick_3">
     <g id="line2d_10">
      <path clip-path="url(#p7ff5b81e1d)" d="
M161.28 388.8
L161.28 43.2" style="fill:none;stroke:#000000;stroke-dasharray:1.000000,3.000000;stroke-dashoffset:0.0;stroke-linecap:butt;stroke-width:0.5;"/>
     </g>
     <g id="line2d_11">
      <g>
       <use style="stroke:#000000;stroke-linecap:butt;stroke-width:0.5;" x="161.28" xlink:href="#m0012dd4eef" y="388.8"/>
      </g>
     </g>
     <g id="line2d_12">
      <g>
       <use style="stroke:#000000;stroke-linecap:butt;stroke-width:0.5;" x="161.28" xlink:href="#m476344969c" y="43.2"/>
      </g>
     </g>
     <g id="text_3">
      <!-- 200 -->
      <defs>
       <path d="
M19.1875 8.29688
L53.6094 8.29688
L53.6094 0
L7.32812 0
L7.32812 8.29688
Q12.9375 14.1094 22.625 23.8906
Q32.3281 33.6875 34.8125 36.5312
Q39.5469 41.8438 41.4219 45.5312
Q43.3125 49.2188 43.3125 52.7812
Q43.3125 58.5938 39.2344 62.25
Q35.1562 65.9219 28.6094 65.9219
Q23.9688 65.9219 18.8125 64.3125
Q13.6719 62.7031 7.8125 59.4219
L7.8125 69.3906
Q13.7656 71.7812 18.9375 73
Q24.125 74.2188 28.4219 74.2188
Q39.75 74.2188 46.4844 68.5469
Q53.2188 62.8906 53.2188 53.4219
Q53.2188 48.9219 51.5312 44.8906
Q49.8594 40.875 45.4062 35.4062
Q44.1875 33.9844 37.6406 27.2188
Q31.1094 20.4531 19.1875 8.29688" id="BitstreamVeraSans-Roman-32"/>
      </defs>
      <g transform="translate(150.665625 401.70625)scale(0.12 -0.12)">
       <use xlink:href="#BitstreamVeraSans-Roman-32"/>
       <use x="63.623046875" xlink:href="#BitstreamVeraSans-Roman-30"/>
       <use x="127.24609375" xlink:href="#BitstreamVeraSans-Roman-30"/>
      </g>
     </g>
    </g>
    <g id="xtick_4">
     <g id="line2d_13">
      <path clip-path="url(#p7ff5b81e1d)" d="
M205.92 388.8
L205.92 43.2" style="fill:none;stroke:#000000;stroke-dasharray:1.000000,3.000000;stroke-dashoffset:0.0;stroke-linecap:butt;stroke-width:0.5;"/>
     </g>
     <g id="line2d_14">
      <g>
       <use style="stroke:#000000;stroke-linecap:butt;stroke-width:0.5;" x="205.92" xlink:href="#m0012dd4eef" y="388.8"/>
      </g>
     </g>
     <g id="line2d_15">
      <g>
       <use style="stroke:#000000;stroke-linecap:butt;stroke-width:0.5;" x="205.92" xlink:href="#m476344969c" y="43.2"/>
      </g>
     </g>
     <g id="text_4">
      <!-- 300 -->
      <defs>
       <path d="
M40.5781 39.3125
Q47.6562 37.7969 51.625 33
Q55.6094 28.2188 55.6094 21.1875
Q55.6094 10.4062 48.1875 4.48438
Q40.7656 -1.42188 27.0938 -1.42188
Q22.5156 -1.42188 17.6562 -0.515625
Q12.7969 0.390625 7.625 2.20312
L7.625 11.7188
Q11.7188 9.32812 16.5938 8.10938
Q21.4844 6.89062 26.8125 6.89062
Q36.0781 6.89062 40.9375 10.5469
Q45.7969 14.2031 45.7969 21.1875
Q45.7969 27.6406 41.2812 31.2656
Q36.7656 34.9062 28.7188 34.9062
L20.2188 34.9062
L20.2188 43.0156
L29.1094 43.0156
Q36.375 43.0156 40.2344 45.9219
Q44.0938 48.8281 44.0938 54.2969
Q44.0938 59.9062 40.1094 62.9062
Q36.1406 65.9219 28.7188 65.9219
Q24.6562 65.9219 20.0156 65.0312
Q15.375 64.1562 9.8125 62.3125
L9.8125 71.0938
Q15.4375 72.6562 20.3438 73.4375
Q25.25 74.2188 29.5938 74.2188
Q40.8281 74.2188 47.3594 69.1094
Q53.9062 64.0156 53.9062 55.3281
Q53.9062 49.2656 50.4375 45.0938
Q46.9688 40.9219 40.5781 39.3125" id="BitstreamVeraSans-Roman-33"/>
      </defs>
      <g transform="translate(195.3234375 401.70625)scale(0.12 -0.12)">
       <use xlink:href="#BitstreamVeraSans-Roman-33"/>
       <use x="63.623046875" xlink:href="#BitstreamVeraSans-Roman-30"/>
       <use x="127.24609375" xlink:href="#BitstreamVeraSans-Roman-30"/>
      </g>
     </g>
    </g>
    <g id="xtick_5">
     <g id="line2d_16">
      <path clip-path="url(#p7ff5b81e1d)" d="
M250.56 388.8
L250.56 43.2" style="fill:none;stroke:#000000;stroke-dasharray:1.000000,3.000000;stroke-dashoffset:0.0;stroke-linecap:butt;stroke-width:0.5;"/>
     </g>
     <g id="line2d_17">
      <g>
       <use style="stroke:#000000;stroke-linecap:butt;stroke-width:0.5;" x="250.56" xlink:href="#m0012dd4eef" y="388.8"/>
      </g>
     </g>
     <g id="line2d_18">
      <g>
       <use style="stroke:#000000;stroke-linecap:butt;stroke-width:0.5;" x="250.56" xlink:href="#m476344969c" y="43.2"/>
      </g>
     </g>
     <g id="text_5">
      <!-- 400 -->
      <defs>
       <path d="
M37.7969 64.3125
L12.8906 25.3906
L37.7969 25.3906
z

M35.2031 72.9062
L47.6094 72.9062
L47.6094 25.3906
L58.0156 25.3906
L58.0156 17.1875
L47.6094 17.1875
L47.6094 0
L37.7969 0
L37.7969 17.1875
L4.89062 17.1875
L4.89062 26.7031
z
" id="BitstreamVeraSans-Roman-34"/>
      </defs>
      <g transform="translate(239.799375 401.70625)scale(0.12 -0.12)">
       <use xlink:href="#BitstreamVeraSans-Roman-34"/>
       <use x="63.623046875" xlink:href="#BitstreamVeraSans-Roman-30"/>
       <use x="127.24609375" xlink:href="#BitstreamVeraSans-Roman-30"/>
      </g>
     </g>
    </g>
    <g id="xtick_6">
     <g id="line2d_19">
      <path clip-path="url(#p7ff5b81e1d)" d="
M295.2 388.8
L295.2 43.2" style="fill:none;stroke:#000000;stroke-dasharray:1.000000,3.000000;stroke-dashoffset:0.0;stroke-linecap:butt;stroke-width:0.5;"/>
     </g>
     <g id="line2d_20">
      <g>
       <use style="stroke:#000000;stroke-linecap:butt;stroke-width:0.5;" x="295.2" xlink:href="#m0012dd4eef" y="388.8"/>
      </g>
     </g>
     <g id="line2d_21">
      <g>
       <use style="stroke:#000000;stroke-linecap:butt;stroke-width:0.5;" x="295.2" xlink:href="#m476344969c" y="43.2"/>
      </g>
     </g>
     <g id="text_6">
      <!-- 500 -->
      <defs>
       <path d="
M10.7969 72.9062
L49.5156 72.9062
L49.5156 64.5938
L19.8281 64.5938
L19.8281 46.7344
Q21.9688 47.4688 24.1094 47.8281
Q26.2656 48.1875 28.4219 48.1875
Q40.625 48.1875 47.75 41.5
Q54.8906 34.8125 54.8906 23.3906
Q54.8906 11.625 47.5625 5.09375
Q40.2344 -1.42188 26.9062 -1.42188
Q22.3125 -1.42188 17.5469 -0.640625
Q12.7969 0.140625 7.71875 1.70312
L7.71875 11.625
Q12.1094 9.23438 16.7969 8.0625
Q21.4844 6.89062 26.7031 6.89062
Q35.1562 6.89062 40.0781 11.3281
Q45.0156 15.7656 45.0156 23.3906
Q45.0156 31 40.0781 35.4375
Q35.1562 39.8906 26.7031 39.8906
Q22.75 39.8906 18.8125 39.0156
Q14.8906 38.1406 10.7969 36.2812
z
" id="BitstreamVeraSans-Roman-35"/>
      </defs>
      <g transform="translate(284.6090625 401.70625)scale(0.12 -0.12)">
       <use xlink:href="#BitstreamVeraSans-Roman-35"/>
       <use x="63.623046875" xlink:href="#BitstreamVeraSans-Roman-30"/>
       <use x="127.24609375" xlink:href="#BitstreamVeraSans-Roman-30"/>
      </g>
     </g>
    </g>
    <g id="xtick_7">
     <g id="line2d_22">
      <path clip-path="url(#p7ff5b81e1d)" d="
M339.84 388.8
L339.84 43.2" style="fill:none;stroke:#000000;stroke-dasharray:1.000000,3.000000;stroke-dashoffset:0.0;stroke-linecap:butt;stroke-width:0.5;"/>
     </g>
     <g id="line2d_23">
      <g>
       <use style="stroke:#000000;stroke-linecap:butt;stroke-width:0.5;" x="339.84" xlink:href="#m0012dd4eef" y="388.8"/>
      </g>
     </g>
     <g id="line2d_24">
      <g>
       <use style="stroke:#000000;stroke-linecap:butt;stroke-width:0.5;" x="339.84" xlink:href="#m476344969c" y="43.2"/>
      </g>
     </g>
     <g id="text_7">
      <!-- 600 -->
      <defs>
       <path d="
M33.0156 40.375
Q26.375 40.375 22.4844 35.8281
Q18.6094 31.2969 18.6094 23.3906
Q18.6094 15.5312 22.4844 10.9531
Q26.375 6.39062 33.0156 6.39062
Q39.6562 6.39062 43.5312 10.9531
Q47.4062 15.5312 47.4062 23.3906
Q47.4062 31.2969 43.5312 35.8281
Q39.6562 40.375 33.0156 40.375
M52.5938 71.2969
L52.5938 62.3125
Q48.875 64.0625 45.0938 64.9844
Q41.3125 65.9219 37.5938 65.9219
Q27.8281 65.9219 22.6719 59.3281
Q17.5312 52.7344 16.7969 39.4062
Q19.6719 43.6562 24.0156 45.9219
Q28.375 48.1875 33.5938 48.1875
Q44.5781 48.1875 50.9531 41.5156
Q57.3281 34.8594 57.3281 23.3906
Q57.3281 12.1562 50.6875 5.35938
Q44.0469 -1.42188 33.0156 -1.42188
Q20.3594 -1.42188 13.6719 8.26562
Q6.98438 17.9688 6.98438 36.375
Q6.98438 53.6562 15.1875 63.9375
Q23.3906 74.2188 37.2031 74.2188
Q40.9219 74.2188 44.7031 73.4844
Q48.4844 72.75 52.5938 71.2969" id="BitstreamVeraSans-Roman-36"/>
      </defs>
      <g transform="translate(329.205 401.70625)scale(0.12 -0.12)">
       <use xlink:href="#BitstreamVeraSans-Roman-36"/>
       <use x="63.623046875" xlink:href="#BitstreamVeraSans-Roman-30"/>
       <use x="127.24609375" xlink:href="#BitstreamVeraSans-Roman-30"/>
      </g>
     </g>
    </g>
    <g id="xtick_8">
     <g id="line2d_25">
      <path clip-path="url(#p7ff5b81e1d)" d="
M384.48 388.8
L384.48 43.2" style="fill:none;stroke:#000000;stroke-dasharray:1.000000,3.000000;stroke-dashoffset:0.0;stroke-linecap:butt;stroke-width:0.5;"/>
     </g>
     <g id="line2d_26">
      <g>
       <use style="stroke:#000000;stroke-linecap:butt;stroke-width:0.5;" x="384.48" xlink:href="#m0012dd4eef" y="388.8"/>
      </g>
     </g>
     <g id="line2d_27">
      <g>
       <use style="stroke:#000000;stroke-linecap:butt;stroke-width:0.5;" x="384.48" xlink:href="#m476344969c" y="43.2"/>
      </g>
     </g>
     <g id="text_8">
      <!-- 700 -->
      <defs>
       <path d="
M8.20312 72.9062
L55.0781 72.9062
L55.0781 68.7031
L28.6094 0
L18.3125 0
L43.2188 64.5938
L8.20312 64.5938
z
" id="BitstreamVeraSans-Roman-37"/>
      </defs>
      <g transform="translate(373.918125 401.70625)scale(0.12 -0.12)">
       <use xlink:href="#BitstreamVeraSans-Roman-37"/>
       <use x="63.623046875" xlink:href="#BitstreamVeraSans-Roman-30"/>
       <use x="127.24609375" xlink:href="#BitstreamVeraSans-Roman-30"/>
      </g>
     </g>
    </g>
    <g id="xtick_9">
     <g id="line2d_28">
      <path clip-path="url(#p7ff5b81e1d)" d="
M429.12 388.8
L429.12 43.2" style="fill:none;stroke:#000000;stroke-dasharray:1.000000,3.000000;stroke-dashoffset:0.0;stroke-linecap:butt;stroke-width:0.5;"/>
     </g>
     <g id="line2d_29">
      <g>
       <use style="stroke:#000000;stroke-linecap:butt;stroke-width:0.5;" x="429.12" xlink:href="#m0012dd4eef" y="388.8"/>
      </g>
     </g>
     <g id="line2d_30">
      <g>
       <use style="stroke:#000000;stroke-linecap:butt;stroke-width:0.5;" x="429.12" xlink:href="#m476344969c" y="43.2"/>
      </g>
     </g>
     <g id="text_9">
      <!-- 800 -->
      <defs>
       <path d="
M31.7812 34.625
Q24.75 34.625 20.7188 30.8594
Q16.7031 27.0938 16.7031 20.5156
Q16.7031 13.9219 20.7188 10.1562
Q24.75 6.39062 31.7812 6.39062
Q38.8125 6.39062 42.8594 10.1719
Q46.9219 13.9688 46.9219 20.5156
Q46.9219 27.0938 42.8906 30.8594
Q38.875 34.625 31.7812 34.625
M21.9219 38.8125
Q15.5781 40.375 12.0312 44.7188
Q8.5 49.0781 8.5 55.3281
Q8.5 64.0625 14.7188 69.1406
Q20.9531 74.2188 31.7812 74.2188
Q42.6719 74.2188 48.875 69.1406
Q55.0781 64.0625 55.0781 55.3281
Q55.0781 49.0781 51.5312 44.7188
Q48 40.375 41.7031 38.8125
Q48.8281 37.1562 52.7969 32.3125
Q56.7812 27.4844 56.7812 20.5156
Q56.7812 9.90625 50.3125 4.23438
Q43.8438 -1.42188 31.7812 -1.42188
Q19.7344 -1.42188 13.25 4.23438
Q6.78125 9.90625 6.78125 20.5156
Q6.78125 27.4844 10.7812 32.3125
Q14.7969 37.1562 21.9219 38.8125
M18.3125 54.3906
Q18.3125 48.7344 21.8438 45.5625
Q25.3906 42.3906 31.7812 42.3906
Q38.1406 42.3906 41.7188 45.5625
Q45.3125 48.7344 45.3125 54.3906
Q45.3125 60.0625 41.7188 63.2344
Q38.1406 66.4062 31.7812 66.4062
Q25.3906 66.4062 21.8438 63.2344
Q18.3125 60.0625 18.3125 54.3906" id="BitstreamVeraSans-Roman-38"/>
      </defs>
      <g transform="translate(418.4728125 401.70625)scale(0.12 -0.12)">
       <use xlink:href="#BitstreamVeraSans-Roman-38"/>
       <use x="63.623046875" xlink:href="#BitstreamVeraSans-Roman-30"/>
       <use x="127.24609375" xlink:href="#BitstreamVeraSans-Roman-30"/>
      </g>
     </g>
    </g>
    <g id="xtick_10">
     <g id="line2d_31">
      <path clip-path="url(#p7ff5b81e1d)" d="
M473.76 388.8
L473.76 43.2" style="fill:none;stroke:#000000;stroke-dasharray:1.000000,3.000000;stroke-dashoffset:0.0;stroke-linecap:butt;stroke-width:0.5;"/>
     </g>
     <g id="line2d_32">
      <g>
       <use style="stroke:#000000;stroke-linecap:butt;stroke-width:0.5;" x="473.76" xlink:href="#m0012dd4eef" y="388.8"/>
      </g>
     </g>
     <g id="line2d_33">
      <g>
       <use style="stroke:#000000;stroke-linecap:butt;stroke-width:0.5;" x="473.76" xlink:href="#m476344969c" y="43.2"/>
      </g>
     </g>
     <g id="text_10">
      <!-- 900 -->
      <defs>
       <path d="
M10.9844 1.51562
L10.9844 10.5
Q14.7031 8.73438 18.5 7.8125
Q22.3125 6.89062 25.9844 6.89062
Q35.75 6.89062 40.8906 13.4531
Q46.0469 20.0156 46.7812 33.4062
Q43.9531 29.2031 39.5938 26.9531
Q35.25 24.7031 29.9844 24.7031
Q19.0469 24.7031 12.6719 31.3125
Q6.29688 37.9375 6.29688 49.4219
Q6.29688 60.6406 12.9375 67.4219
Q19.5781 74.2188 30.6094 74.2188
Q43.2656 74.2188 49.9219 64.5156
Q56.5938 54.8281 56.5938 36.375
Q56.5938 19.1406 48.4062 8.85938
Q40.2344 -1.42188 26.4219 -1.42188
Q22.7031 -1.42188 18.8906 -0.6875
Q15.0938 0.046875 10.9844 1.51562
M30.6094 32.4219
Q37.25 32.4219 41.125 36.9531
Q45.0156 41.5 45.0156 49.4219
Q45.0156 57.2812 41.125 61.8438
Q37.25 66.4062 30.6094 66.4062
Q23.9688 66.4062 20.0938 61.8438
Q16.2188 57.2812 16.2188 49.4219
Q16.2188 41.5 20.0938 36.9531
Q23.9688 32.4219 30.6094 32.4219" id="BitstreamVeraSans-Roman-39"/>
      </defs>
      <g transform="translate(463.08375 401.70625)scale(0.12 -0.12)">
       <use xlink:href="#BitstreamVeraSans-Roman-39"/>
       <use x="63.623046875" xlink:href="#BitstreamVeraSans-Roman-30"/>
       <use x="127.24609375" xlink:href="#BitstreamVeraSans-Roman-30"/>
      </g>
     </g>
    </g>
   </g>
   <g id="matplotlib.axis_2">
    <g id="ytick_1">
     <g id="line2d_34">
      <path clip-path="url(#p7ff5b81e1d)" d="
M72 388.8
L518.4 388.8" style="fill:none;stroke:#000000;stroke-dasharray:1.000000,3.000000;stroke-dashoffset:0.0;stroke-linecap:butt;stroke-width:0.5;"/>
     </g>
     <g id="line2d_35">
      <defs>
       <path d="
M0 0
L4 0" id="me8a85f7bf6" style="stroke:#000000;stroke-linecap:butt;stroke-width:0.5;"/>
      </defs>
      <g>
       <use style="stroke:#000000;stroke-linecap:butt;stroke-width:0.5;" x="72.0" xlink:href="#me8a85f7bf6" y="388.8"/>
      </g>
     </g>
     <g id="line2d_36">
      <defs>
       <path d="
M0 0
L-4 0" id="m1a32005dea" style="stroke:#000000;stroke-linecap:butt;stroke-width:0.5;"/>
      </defs>
      <g>
       <use style="stroke:#000000;stroke-linecap:butt;stroke-width:0.5;" x="518.4" xlink:href="#m1a32005dea" y="388.8"/>
      </g>
     </g>
     <g id="text_11">
      <!-- 0.000 -->
      <defs>
       <path d="
M10.6875 12.4062
L21 12.4062
L21 0
L10.6875 0
z
" id="BitstreamVeraSans-Roman-2e"/>
      </defs>
      <g transform="translate(35.234375 393.1678125)scale(0.12 -0.12)">
       <use xlink:href="#BitstreamVeraSans-Roman-30"/>
       <use x="63.623046875" xlink:href="#BitstreamVeraSans-Roman-2e"/>
       <use x="95.41015625" xlink:href="#BitstreamVeraSans-Roman-30"/>
       <use x="159.033203125" xlink:href="#BitstreamVeraSans-Roman-30"/>
       <use x="222.65625" xlink:href="#BitstreamVeraSans-Roman-30"/>
      </g>
     </g>
    </g>
    <g id="ytick_2">
     <g id="line2d_37">
      <path clip-path="url(#p7ff5b81e1d)" d="
M72 354.24
L518.4 354.24" style="fill:none;stroke:#000000;stroke-dasharray:1.000000,3.000000;stroke-dashoffset:0.0;stroke-linecap:butt;stroke-width:0.5;"/>
     </g>
     <g id="line2d_38">
      <g>
       <use style="stroke:#000000;stroke-linecap:butt;stroke-width:0.5;" x="72.0" xlink:href="#me8a85f7bf6" y="354.24"/>
      </g>
     </g>
     <g id="line2d_39">
      <g>
       <use style="stroke:#000000;stroke-linecap:butt;stroke-width:0.5;" x="518.4" xlink:href="#m1a32005dea" y="354.24"/>
      </g>
     </g>
     <g id="text_12">
      <!-- 0.005 -->
      <g transform="translate(35.485625 358.6078125)scale(0.12 -0.12)">
       <use xlink:href="#BitstreamVeraSans-Roman-30"/>
       <use x="63.623046875" xlink:href="#BitstreamVeraSans-Roman-2e"/>
       <use x="95.41015625" xlink:href="#BitstreamVeraSans-Roman-30"/>
       <use x="159.033203125" xlink:href="#BitstreamVeraSans-Roman-30"/>
       <use x="222.65625" xlink:href="#BitstreamVeraSans-Roman-35"/>
      </g>
     </g>
    </g>
    <g id="ytick_3">
     <g id="line2d_40">
      <path clip-path="url(#p7ff5b81e1d)" d="
M72 319.68
L518.4 319.68" style="fill:none;stroke:#000000;stroke-dasharray:1.000000,3.000000;stroke-dashoffset:0.0;stroke-linecap:butt;stroke-width:0.5;"/>
     </g>
     <g id="line2d_41">
      <g>
       <use style="stroke:#000000;stroke-linecap:butt;stroke-width:0.5;" x="72.0" xlink:href="#me8a85f7bf6" y="319.68"/>
      </g>
     </g>
     <g id="line2d_42">
      <g>
       <use style="stroke:#000000;stroke-linecap:butt;stroke-width:0.5;" x="518.4" xlink:href="#m1a32005dea" y="319.68"/>
      </g>
     </g>
     <g id="text_13">
      <!-- 0.010 -->
      <g transform="translate(35.234375 324.0478125)scale(0.12 -0.12)">
       <use xlink:href="#BitstreamVeraSans-Roman-30"/>
       <use x="63.623046875" xlink:href="#BitstreamVeraSans-Roman-2e"/>
       <use x="95.41015625" xlink:href="#BitstreamVeraSans-Roman-30"/>
       <use x="159.033203125" xlink:href="#BitstreamVeraSans-Roman-31"/>
       <use x="222.65625" xlink:href="#BitstreamVeraSans-Roman-30"/>
      </g>
     </g>
    </g>
    <g id="ytick_4">
     <g id="line2d_43">
      <path clip-path="url(#p7ff5b81e1d)" d="
M72 285.12
L518.4 285.12" style="fill:none;stroke:#000000;stroke-dasharray:1.000000,3.000000;stroke-dashoffset:0.0;stroke-linecap:butt;stroke-width:0.5;"/>
     </g>
     <g id="line2d_44">
      <g>
       <use style="stroke:#000000;stroke-linecap:butt;stroke-width:0.5;" x="72.0" xlink:href="#me8a85f7bf6" y="285.12"/>
      </g>
     </g>
     <g id="line2d_45">
      <g>
       <use style="stroke:#000000;stroke-linecap:butt;stroke-width:0.5;" x="518.4" xlink:href="#m1a32005dea" y="285.12"/>
      </g>
     </g>
     <g id="text_14">
      <!-- 0.015 -->
      <g transform="translate(35.485625 289.4878125)scale(0.12 -0.12)">
       <use xlink:href="#BitstreamVeraSans-Roman-30"/>
       <use x="63.623046875" xlink:href="#BitstreamVeraSans-Roman-2e"/>
       <use x="95.41015625" xlink:href="#BitstreamVeraSans-Roman-30"/>
       <use x="159.033203125" xlink:href="#BitstreamVeraSans-Roman-31"/>
       <use x="222.65625" xlink:href="#BitstreamVeraSans-Roman-35"/>
      </g>
     </g>
    </g>
    <g id="ytick_5">
     <g id="line2d_46">
      <path clip-path="url(#p7ff5b81e1d)" d="
M72 250.56
L518.4 250.56" style="fill:none;stroke:#000000;stroke-dasharray:1.000000,3.000000;stroke-dashoffset:0.0;stroke-linecap:butt;stroke-width:0.5;"/>
     </g>
     <g id="line2d_47">
      <g>
       <use style="stroke:#000000;stroke-linecap:butt;stroke-width:0.5;" x="72.0" xlink:href="#me8a85f7bf6" y="250.56"/>
      </g>
     </g>
     <g id="line2d_48">
      <g>
       <use style="stroke:#000000;stroke-linecap:butt;stroke-width:0.5;" x="518.4" xlink:href="#m1a32005dea" y="250.56"/>
      </g>
     </g>
     <g id="text_15">
      <!-- 0.020 -->
      <g transform="translate(35.234375 254.9278125)scale(0.12 -0.12)">
       <use xlink:href="#BitstreamVeraSans-Roman-30"/>
       <use x="63.623046875" xlink:href="#BitstreamVeraSans-Roman-2e"/>
       <use x="95.41015625" xlink:href="#BitstreamVeraSans-Roman-30"/>
       <use x="159.033203125" xlink:href="#BitstreamVeraSans-Roman-32"/>
       <use x="222.65625" xlink:href="#BitstreamVeraSans-Roman-30"/>
      </g>
     </g>
    </g>
    <g id="ytick_6">
     <g id="line2d_49">
      <path clip-path="url(#p7ff5b81e1d)" d="
M72 216
L518.4 216" style="fill:none;stroke:#000000;stroke-dasharray:1.000000,3.000000;stroke-dashoffset:0.0;stroke-linecap:butt;stroke-width:0.5;"/>
     </g>
     <g id="line2d_50">
      <g>
       <use style="stroke:#000000;stroke-linecap:butt;stroke-width:0.5;" x="72.0" xlink:href="#me8a85f7bf6" y="216.0"/>
      </g>
     </g>
     <g id="line2d_51">
      <g>
       <use style="stroke:#000000;stroke-linecap:butt;stroke-width:0.5;" x="518.4" xlink:href="#m1a32005dea" y="216.0"/>
      </g>
     </g>
     <g id="text_16">
      <!-- 0.025 -->
      <g transform="translate(35.485625 220.3678125)scale(0.12 -0.12)">
       <use xlink:href="#BitstreamVeraSans-Roman-30"/>
       <use x="63.623046875" xlink:href="#BitstreamVeraSans-Roman-2e"/>
       <use x="95.41015625" xlink:href="#BitstreamVeraSans-Roman-30"/>
       <use x="159.033203125" xlink:href="#BitstreamVeraSans-Roman-32"/>
       <use x="222.65625" xlink:href="#BitstreamVeraSans-Roman-35"/>
      </g>
     </g>
    </g>
    <g id="ytick_7">
     <g id="line2d_52">
      <path clip-path="url(#p7ff5b81e1d)" d="
M72 181.44
L518.4 181.44" style="fill:none;stroke:#000000;stroke-dasharray:1.000000,3.000000;stroke-dashoffset:0.0;stroke-linecap:butt;stroke-width:0.5;"/>
     </g>
     <g id="line2d_53">
      <g>
       <use style="stroke:#000000;stroke-linecap:butt;stroke-width:0.5;" x="72.0" xlink:href="#me8a85f7bf6" y="181.44"/>
      </g>
     </g>
     <g id="line2d_54">
      <g>
       <use style="stroke:#000000;stroke-linecap:butt;stroke-width:0.5;" x="518.4" xlink:href="#m1a32005dea" y="181.44"/>
      </g>
     </g>
     <g id="text_17">
      <!-- 0.030 -->
      <g transform="translate(35.234375 185.8078125)scale(0.12 -0.12)">
       <use xlink:href="#BitstreamVeraSans-Roman-30"/>
       <use x="63.623046875" xlink:href="#BitstreamVeraSans-Roman-2e"/>
       <use x="95.41015625" xlink:href="#BitstreamVeraSans-Roman-30"/>
       <use x="159.033203125" xlink:href="#BitstreamVeraSans-Roman-33"/>
       <use x="222.65625" xlink:href="#BitstreamVeraSans-Roman-30"/>
      </g>
     </g>
    </g>
    <g id="ytick_8">
     <g id="line2d_55">
      <path clip-path="url(#p7ff5b81e1d)" d="
M72 146.88
L518.4 146.88" style="fill:none;stroke:#000000;stroke-dasharray:1.000000,3.000000;stroke-dashoffset:0.0;stroke-linecap:butt;stroke-width:0.5;"/>
     </g>
     <g id="line2d_56">
      <g>
       <use style="stroke:#000000;stroke-linecap:butt;stroke-width:0.5;" x="72.0" xlink:href="#me8a85f7bf6" y="146.88"/>
      </g>
     </g>
     <g id="line2d_57">
      <g>
       <use style="stroke:#000000;stroke-linecap:butt;stroke-width:0.5;" x="518.4" xlink:href="#m1a32005dea" y="146.88"/>
      </g>
     </g>
     <g id="text_18">
      <!-- 0.035 -->
      <g transform="translate(35.485625 151.2478125)scale(0.12 -0.12)">
       <use xlink:href="#BitstreamVeraSans-Roman-30"/>
       <use x="63.623046875" xlink:href="#BitstreamVeraSans-Roman-2e"/>
       <use x="95.41015625" xlink:href="#BitstreamVeraSans-Roman-30"/>
       <use x="159.033203125" xlink:href="#BitstreamVeraSans-Roman-33"/>
       <use x="222.65625" xlink:href="#BitstreamVeraSans-Roman-35"/>
      </g>
     </g>
    </g>
    <g id="ytick_9">
     <g id="line2d_58">
      <path clip-path="url(#p7ff5b81e1d)" d="
M72 112.32
L518.4 112.32" style="fill:none;stroke:#000000;stroke-dasharray:1.000000,3.000000;stroke-dashoffset:0.0;stroke-linecap:butt;stroke-width:0.5;"/>
     </g>
     <g id="line2d_59">
      <g>
       <use style="stroke:#000000;stroke-linecap:butt;stroke-width:0.5;" x="72.0" xlink:href="#me8a85f7bf6" y="112.32"/>
      </g>
     </g>
     <g id="line2d_60">
      <g>
       <use style="stroke:#000000;stroke-linecap:butt;stroke-width:0.5;" x="518.4" xlink:href="#m1a32005dea" y="112.32"/>
      </g>
     </g>
     <g id="text_19">
      <!-- 0.040 -->
      <g transform="translate(35.234375 116.6878125)scale(0.12 -0.12)">
       <use xlink:href="#BitstreamVeraSans-Roman-30"/>
       <use x="63.623046875" xlink:href="#BitstreamVeraSans-Roman-2e"/>
       <use x="95.41015625" xlink:href="#BitstreamVeraSans-Roman-30"/>
       <use x="159.033203125" xlink:href="#BitstreamVeraSans-Roman-34"/>
       <use x="222.65625" xlink:href="#BitstreamVeraSans-Roman-30"/>
      </g>
     </g>
    </g>
    <g id="ytick_10">
     <g id="line2d_61">
      <path clip-path="url(#p7ff5b81e1d)" d="
M72 77.76
L518.4 77.76" style="fill:none;stroke:#000000;stroke-dasharray:1.000000,3.000000;stroke-dashoffset:0.0;stroke-linecap:butt;stroke-width:0.5;"/>
     </g>
     <g id="line2d_62">
      <g>
       <use style="stroke:#000000;stroke-linecap:butt;stroke-width:0.5;" x="72.0" xlink:href="#me8a85f7bf6" y="77.76"/>
      </g>
     </g>
     <g id="line2d_63">
      <g>
       <use style="stroke:#000000;stroke-linecap:butt;stroke-width:0.5;" x="518.4" xlink:href="#m1a32005dea" y="77.76"/>
      </g>
     </g>
     <g id="text_20">
      <!-- 0.045 -->
      <g transform="translate(35.485625 82.1278125)scale(0.12 -0.12)">
       <use xlink:href="#BitstreamVeraSans-Roman-30"/>
       <use x="63.623046875" xlink:href="#BitstreamVeraSans-Roman-2e"/>
       <use x="95.41015625" xlink:href="#BitstreamVeraSans-Roman-30"/>
       <use x="159.033203125" xlink:href="#BitstreamVeraSans-Roman-34"/>
       <use x="222.65625" xlink:href="#BitstreamVeraSans-Roman-35"/>
      </g>
     </g>
    </g>
    <g id="text_21">
     <!-- Sec/file -->
     <defs>
      <path d="
M9.42188 75.9844
L18.4062 75.9844
L18.4062 0
L9.42188 0
z
" id="BitstreamVeraSans-Roman-6c"/>
      <path d="
M53.5156 70.5156
L53.5156 60.8906
Q47.9062 63.5781 42.9219 64.8906
Q37.9375 66.2188 33.2969 66.2188
Q25.25 66.2188 20.875 63.0938
Q16.5 59.9688 16.5 54.2031
Q16.5 49.3594 19.4062 46.8906
Q22.3125 44.4375 30.4219 42.9219
L36.375 41.7031
Q47.4062 39.5938 52.6562 34.2969
Q57.9062 29 57.9062 20.125
Q57.9062 9.51562 50.7969 4.04688
Q43.7031 -1.42188 29.9844 -1.42188
Q24.8125 -1.42188 18.9688 -0.25
Q13.1406 0.921875 6.89062 3.21875
L6.89062 13.375
Q12.8906 10.0156 18.6562 8.29688
Q24.4219 6.59375 29.9844 6.59375
Q38.4219 6.59375 43.0156 9.90625
Q47.6094 13.2344 47.6094 19.3906
Q47.6094 24.75 44.3125 27.7812
Q41.0156 30.8125 33.5 32.3281
L27.4844 33.5
Q16.4531 35.6875 11.5156 40.375
Q6.59375 45.0625 6.59375 53.4219
Q6.59375 63.0938 13.4062 68.6562
Q20.2188 74.2188 32.1719 74.2188
Q37.3125 74.2188 42.625 73.2812
Q47.9531 72.3594 53.5156 70.5156" id="BitstreamVeraSans-Roman-53"/>
      <path d="
M9.42188 54.6875
L18.4062 54.6875
L18.4062 0
L9.42188 0
z

M9.42188 75.9844
L18.4062 75.9844
L18.4062 64.5938
L9.42188 64.5938
z
" id="BitstreamVeraSans-Roman-69"/>
      <path d="
M25.3906 72.9062
L33.6875 72.9062
L8.29688 -9.28125
L0 -9.28125
z
" id="BitstreamVeraSans-Roman-2f"/>
      <path d="
M56.2031 29.5938
L56.2031 25.2031
L14.8906 25.2031
Q15.4844 15.9219 20.4844 11.0625
Q25.4844 6.20312 34.4219 6.20312
Q39.5938 6.20312 44.4531 7.46875
Q49.3125 8.73438 54.1094 11.2812
L54.1094 2.78125
Q49.2656 0.734375 44.1875 -0.34375
Q39.1094 -1.42188 33.8906 -1.42188
Q20.7969 -1.42188 13.1562 6.1875
Q5.51562 13.8125 5.51562 26.8125
Q5.51562 40.2344 12.7656 48.1094
Q20.0156 56 32.3281 56
Q43.3594 56 49.7812 48.8906
Q56.2031 41.7969 56.2031 29.5938
M47.2188 32.2344
Q47.125 39.5938 43.0938 43.9844
Q39.0625 48.3906 32.4219 48.3906
Q24.9062 48.3906 20.3906 44.1406
Q15.875 39.8906 15.1875 32.1719
z
" id="BitstreamVeraSans-Roman-65"/>
      <path d="
M37.1094 75.9844
L37.1094 68.5
L28.5156 68.5
Q23.6875 68.5 21.7969 66.5469
Q19.9219 64.5938 19.9219 59.5156
L19.9219 54.6875
L34.7188 54.6875
L34.7188 47.7031
L19.9219 47.7031
L19.9219 0
L10.8906 0
L10.8906 47.7031
L2.29688 47.7031
L2.29688 54.6875
L10.8906 54.6875
L10.8906 58.5
Q10.8906 67.625 15.1406 71.7969
Q19.3906 75.9844 28.6094 75.9844
z
" id="BitstreamVeraSans-Roman-66"/>
      <path d="
M48.7812 52.5938
L48.7812 44.1875
Q44.9688 46.2969 41.1406 47.3438
Q37.3125 48.3906 33.4062 48.3906
Q24.6562 48.3906 19.8125 42.8438
Q14.9844 37.3125 14.9844 27.2969
Q14.9844 17.2812 19.8125 11.7344
Q24.6562 6.20312 33.4062 6.20312
Q37.3125 6.20312 41.1406 7.25
Q44.9688 8.29688 48.7812 10.4062
L48.7812 2.09375
Q45.0156 0.34375 40.9844 -0.53125
Q36.9688 -1.42188 32.4219 -1.42188
Q20.0625 -1.42188 12.7812 6.34375
Q5.51562 14.1094 5.51562 27.2969
Q5.51562 40.6719 12.8594 48.3281
Q20.2188 56 33.0156 56
Q37.1562 56 41.1094 55.1406
Q45.0625 54.2969 48.7812 52.5938" id="BitstreamVeraSans-Roman-63"/>
     </defs>
     <g transform="translate(30.234375 236.13)rotate(-90.0)scale(0.12 -0.12)">
      <use xlink:href="#BitstreamVeraSans-Roman-53"/>
      <use x="63.4765625" xlink:href="#BitstreamVeraSans-Roman-65"/>
      <use x="125.0" xlink:href="#BitstreamVeraSans-Roman-63"/>
      <use x="179.98046875" xlink:href="#BitstreamVeraSans-Roman-2f"/>
      <use x="213.671875" xlink:href="#BitstreamVeraSans-Roman-66"/>
      <use x="248.876953125" xlink:href="#BitstreamVeraSans-Roman-69"/>
      <use x="276.66015625" xlink:href="#BitstreamVeraSans-Roman-6c"/>
      <use x="304.443359375" xlink:href="#BitstreamVeraSans-Roman-65"/>
     </g>
    </g>
   </g>
   <g id="patch_3">
    <path d="
M72 43.2
L518.4 43.2" style="fill:none;stroke:#000000;"/>
   </g>
   <g id="patch_4">
    <path d="
M518.4 388.8
L518.4 43.2" style="fill:none;stroke:#000000;"/>
   </g>
   <g id="patch_5">
    <path d="
M72 388.8
L518.4 388.8" style="fill:none;stroke:#000000;"/>
   </g>
   <g id="patch_6">
    <path d="
M72 388.8
L72 43.2" style="fill:none;stroke:#000000;"/>
   </g>
   <g id="text_22">
    <!-- Rand -->
    <defs>
     <path d="
M54.8906 33.0156
L54.8906 0
L45.9062 0
L45.9062 32.7188
Q45.9062 40.4844 42.875 44.3281
Q39.8438 48.1875 33.7969 48.1875
Q26.5156 48.1875 22.3125 43.5469
Q18.1094 38.9219 18.1094 30.9062
L18.1094 0
L9.07812 0
L9.07812 54.6875
L18.1094 54.6875
L18.1094 46.1875
Q21.3438 51.125 25.7031 53.5625
Q30.0781 56 35.7969 56
Q45.2188 56 50.0469 50.1719
Q54.8906 44.3438 54.8906 33.0156" id="BitstreamVeraSans-Roman-6e"/>
     <path d="
M45.4062 46.3906
L45.4062 75.9844
L54.3906 75.9844
L54.3906 0
L45.4062 0
L45.4062 8.20312
Q42.5781 3.32812 38.25 0.953125
Q33.9375 -1.42188 27.875 -1.42188
Q17.9688 -1.42188 11.7344 6.48438
Q5.51562 14.4062 5.51562 27.2969
Q5.51562 40.1875 11.7344 48.0938
Q17.9688 56 27.875 56
Q33.9375 56 38.25 53.625
Q42.5781 51.2656 45.4062 46.3906
M14.7969 27.2969
Q14.7969 17.3906 18.875 11.75
Q22.9531 6.10938 30.0781 6.10938
Q37.2031 6.10938 41.2969 11.75
Q45.4062 17.3906 45.4062 27.2969
Q45.4062 37.2031 41.2969 42.8438
Q37.2031 48.4844 30.0781 48.4844
Q22.9531 48.4844 18.875 42.8438
Q14.7969 37.2031 14.7969 27.2969" id="BitstreamVeraSans-Roman-64"/>
     <path d="
M44.3906 34.1875
Q47.5625 33.1094 50.5625 29.5938
Q53.5625 26.0781 56.5938 19.9219
L66.6094 0
L56 0
L46.6875 18.7031
Q43.0625 26.0312 39.6719 28.4219
Q36.2812 30.8125 30.4219 30.8125
L19.6719 30.8125
L19.6719 0
L9.8125 0
L9.8125 72.9062
L32.0781 72.9062
Q44.5781 72.9062 50.7344 67.6719
Q56.8906 62.4531 56.8906 51.9062
Q56.8906 45.0156 53.6875 40.4688
Q50.4844 35.9375 44.3906 34.1875
M19.6719 64.7969
L19.6719 38.9219
L32.0781 38.9219
Q39.2031 38.9219 42.8438 42.2188
Q46.4844 45.5156 46.4844 51.9062
Q46.4844 58.2969 42.8438 61.5469
Q39.2031 64.7969 32.0781 64.7969
z
" id="BitstreamVeraSans-Roman-52"/>
     <path d="
M34.2812 27.4844
Q23.3906 27.4844 19.1875 25
Q14.9844 22.5156 14.9844 16.5
Q14.9844 11.7188 18.1406 8.90625
Q21.2969 6.10938 26.7031 6.10938
Q34.1875 6.10938 38.7031 11.4062
Q43.2188 16.7031 43.2188 25.4844
L43.2188 27.4844
z

M52.2031 31.2031
L52.2031 0
L43.2188 0
L43.2188 8.29688
Q40.1406 3.32812 35.5469 0.953125
Q30.9531 -1.42188 24.3125 -1.42188
Q15.9219 -1.42188 10.9531 3.29688
Q6 8.01562 6 15.9219
Q6 25.1406 12.1719 29.8281
Q18.3594 34.5156 30.6094 34.5156
L43.2188 34.5156
L43.2188 35.4062
Q43.2188 41.6094 39.1406 45
Q35.0625 48.3906 27.6875 48.3906
Q23 48.3906 18.5469 47.2656
Q14.1094 46.1406 10.0156 43.8906
L10.0156 52.2031
Q14.9375 54.1094 19.5781 55.0469
Q24.2188 56 28.6094 56
Q40.4844 56 46.3438 49.8438
Q52.2031 43.7031 52.2031 31.2031" id="BitstreamVeraSans-Roman-61"/>
    </defs>
    <g transform="translate(278.17425 38.2)scale(0.144 -0.144)">
     <use xlink:href="#BitstreamVeraSans-Roman-52"/>
     <use x="67.232421875" xlink:href="#BitstreamVeraSans-Roman-61"/>
     <use x="128.51171875" xlink:href="#BitstreamVeraSans-Roman-6e"/>
     <use x="191.890625" xlink:href="#BitstreamVeraSans-Roman-64"/>
    </g>
   </g>
   <g id="legend_1">
    <g id="patch_7">
     <path d="
M429.055 115.339
L511.2 115.339
L511.2 50.4
L429.055 50.4
L429.055 115.339
z
" style="fill:#ffffff;stroke:#000000;"/>
    </g>
    <g id="line2d_64">
     <path d="
M439.135 62.0617
L459.295 62.0617" style="fill:none;stroke:#ff0000;"/>
    </g>
    <g id="line2d_65"/>
    <g id="text_23">
     <!-- LRU -->
     <defs>
      <path d="
M9.8125 72.9062
L19.6719 72.9062
L19.6719 8.29688
L55.1719 8.29688
L55.1719 0
L9.8125 0
z
" id="BitstreamVeraSans-Roman-4c"/>
      <path d="
M8.6875 72.9062
L18.6094 72.9062
L18.6094 28.6094
Q18.6094 16.8906 22.8438 11.7344
Q27.0938 6.59375 36.625 6.59375
Q46.0938 6.59375 50.3438 11.7344
Q54.5938 16.8906 54.5938 28.6094
L54.5938 72.9062
L64.5 72.9062
L64.5 27.3906
Q64.5 13.1406 57.4375 5.85938
Q50.3906 -1.42188 36.625 -1.42188
Q22.7969 -1.42188 15.7344 5.85938
Q8.6875 13.1406 8.6875 27.3906
z
" id="BitstreamVeraSans-Roman-55"/>
     </defs>
     <g transform="translate(475.13475 67.10175)scale(0.144 -0.144)">
      <use xlink:href="#BitstreamVeraSans-Roman-4c"/>
      <use x="55.712890625" xlink:href="#BitstreamVeraSans-Roman-52"/>
      <use x="125.1953125" xlink:href="#BitstreamVeraSans-Roman-55"/>
     </g>
    </g>
    <g id="line2d_66">
     <path d="
M439.135 83.1983
L459.295 83.1983" style="fill:none;opacity:0.7;stroke:#008000;"/>
    </g>
    <g id="line2d_67"/>
    <g id="text_24">
     <!-- MRU -->
     <defs>
      <path d="
M9.8125 72.9062
L24.5156 72.9062
L43.1094 23.2969
L61.8125 72.9062
L76.5156 72.9062
L76.5156 0
L66.8906 0
L66.8906 64.0156
L48.0938 14.0156
L38.1875 14.0156
L19.3906 64.0156
L19.3906 0
L9.8125 0
z
" id="BitstreamVeraSans-Roman-4d"/>
     </defs>
     <g transform="translate(475.13475 88.23825)scale(0.144 -0.144)">
      <use xlink:href="#BitstreamVeraSans-Roman-4d"/>
      <use x="86.279296875" xlink:href="#BitstreamVeraSans-Roman-52"/>
      <use x="155.76171875" xlink:href="#BitstreamVeraSans-Roman-55"/>
     </g>
    </g>
    <g id="line2d_68">
     <path d="
M439.135 104.335
L459.295 104.335" style="fill:none;opacity:0.5;stroke:#0000ff;"/>
    </g>
    <g id="line2d_69"/>
    <g id="text_25">
     <!-- FIFO -->
     <defs>
      <path d="
M9.8125 72.9062
L51.7031 72.9062
L51.7031 64.5938
L19.6719 64.5938
L19.6719 43.1094
L48.5781 43.1094
L48.5781 34.8125
L19.6719 34.8125
L19.6719 0
L9.8125 0
z
" id="BitstreamVeraSans-Roman-46"/>
      <path d="
M9.8125 72.9062
L19.6719 72.9062
L19.6719 0
L9.8125 0
z
" id="BitstreamVeraSans-Roman-49"/>
      <path d="
M39.4062 66.2188
Q28.6562 66.2188 22.3281 58.2031
Q16.0156 50.2031 16.0156 36.375
Q16.0156 22.6094 22.3281 14.5938
Q28.6562 6.59375 39.4062 6.59375
Q50.1406 6.59375 56.4219 14.5938
Q62.7031 22.6094 62.7031 36.375
Q62.7031 50.2031 56.4219 58.2031
Q50.1406 66.2188 39.4062 66.2188
M39.4062 74.2188
Q54.7344 74.2188 63.9062 63.9375
Q73.0938 53.6562 73.0938 36.375
Q73.0938 19.1406 63.9062 8.85938
Q54.7344 -1.42188 39.4062 -1.42188
Q24.0312 -1.42188 14.8125 8.82812
Q5.60938 19.0938 5.60938 36.375
Q5.60938 53.6562 14.8125 63.9375
Q24.0312 74.2188 39.4062 74.2188" id="BitstreamVeraSans-Roman-4f"/>
     </defs>
     <g transform="translate(475.13475 109.37475)scale(0.144 -0.144)">
      <use xlink:href="#BitstreamVeraSans-Roman-46"/>
      <use x="57.51953125" xlink:href="#BitstreamVeraSans-Roman-49"/>
      <use x="87.01171875" xlink:href="#BitstreamVeraSans-Roman-46"/>
      <use x="144.53125" xlink:href="#BitstreamVeraSans-Roman-4f"/>
     </g>
    </g>
   </g>
  </g>
 </g>
 <defs>
  <clipPath id="p7ff5b81e1d">
   <rect height="345.6" width="446.4" x="72.0" y="43.2"/>
  </clipPath>
 </defs>
</svg>
