<?xml version="1.0" encoding="utf-8" standalone="no"?>
<!DOCTYPE svg PUBLIC "-//W3C//DTD SVG 1.1//EN"
  "http://www.w3.org/Graphics/SVG/1.1/DTD/svg11.dtd">
<!-- Created with matplotlib (http://matplotlib.sourceforge.net/) -->
<svg height="432pt" version="1.1" viewBox="0 0 576 432" width="576pt" xmlns="http://www.w3.org/2000/svg" xmlns:xlink="http://www.w3.org/1999/xlink">
 <defs>
  <style type="text/css">
*{stroke-linecap:square;stroke-linejoin:round;}
  </style>
 </defs>
 <g id="figure_1">
  <g id="patch_1">
   <path d="
M0 432
L576 432
L576 0
L0 0
z
" style="fill:#ffffff;"/>
  </g>
  <g id="axes_1">
   <g id="patch_2">
    <path d="
M72 388.8
L518.4 388.8
L518.4 43.2
L72 43.2
z
" style="fill:#ffffff;"/>
   </g>
   <g id="line2d_1">
    <path clip-path="url(#p7ff5b81e1d)" d="
M72 379.75
L72.4464 381.608
L72.8928 381.673
L73.7856 381.339
L74.232 381.429
L74.6784 381.096
L75.1248 381.467
L75.5712 381.609
L76.9104 381.623
L77.3568 381.733
L77.8032 381.097
L78.2496 383.721
L78.696 381.709
L79.1424 381.742
L79.5888 381.643
L80.4816 380.233
L80.928 381.578
L81.3744 381.598
L81.8208 381.333
L82.2672 383.461
L82.7136 381.155
L83.16 381.586
L83.6064 381.544
L84.0528 383.577
L84.4992 383.705
L84.9456 381.733
L85.392 381.429
L85.8384 380.747
L86.2848 383.74
L86.7312 381.488
L87.1776 383.439
L87.624 381.403
L88.0704 381.723
L88.5168 383.724
L88.9632 381.785
L89.4096 380.784
L89.856 381.51
L90.3024 381.726
L90.7488 383.666
L91.1952 383.006
L91.6416 381.408
L92.088 381.524
L92.5344 380.672
L92.9808 381.482
L93.4272 381.603
L93.8736 381.609
L94.32 381.731
L95.2128 381.357
L95.6592 382.705
L96.1056 383.536
L96.552 381.369
L96.9984 383.635
L98.784 383.69
L99.2304 381.546
L99.6768 383.617
L100.123 383.695
L100.57 380.415
L101.016 381.432
L101.462 383.482
L102.802 383.418
L103.248 381.519
L103.694 381.752
L104.141 383.622
L104.587 381.796
L105.034 383.697
L105.48 381.775
L105.926 381.511
L106.373 380.618
L106.819 383.551
L107.266 381.313
L107.712 381.597
L108.158 381.615
L108.605 381.475
L109.051 382.791
L109.498 383.6
L109.944 383.702
L110.39 383.468
L110.837 381.464
L111.283 383.734
L112.176 383.353
L112.622 382.737
L113.515 383.751
L113.962 381.579
L114.408 381.693
L114.854 383.783
L115.301 383.612
L115.747 381.604
L116.194 380.781
L116.64 381.54
L117.086 383.674
L117.533 381.651
L117.979 381.55
L118.426 383.551
L118.872 383.8
L119.318 383.694
L119.765 382.918
L120.211 383.384
L120.658 381.32
L121.55 381.755
L121.997 383.791
L122.443 381.673
L122.89 382.644
L123.336 381.634
L123.782 383.62
L124.229 381.557
L124.675 383.694
L125.122 383.651
L125.568 383.728
L126.014 383.638
L126.461 381.577
L126.907 381.677
L127.354 380.351
L127.8 383.57
L128.246 381.575
L128.693 381.767
L129.139 381.475
L129.586 383.689
L130.032 381.259
L130.478 382.989
L130.925 381.378
L131.371 381.398
L131.818 383.564
L132.264 383.726
L132.71 383.76
L133.157 381.298
L133.603 383.649
L134.05 383.634
L134.496 380.243
L134.942 383.663
L135.835 383.54
L136.282 383.746
L136.728 383.655
L137.174 381.486
L137.621 381.754
L138.067 381.621
L138.514 382.835
L138.96 381.615
L139.406 381.622
L139.853 383.142
L140.299 381.783
L140.746 383.673
L141.192 383.553
L141.638 383.739
L142.085 381.404
L142.531 382.841
L142.978 383.726
L143.424 383.4
L143.87 381.558
L144.317 383.665
L144.763 383.778
L145.21 383.448
L145.656 383.758
L146.102 383.368
L146.549 380.987
L146.995 381.674
L147.442 383.761
L147.888 383.757
L148.334 382.517
L148.781 383.655
L149.227 383
L149.674 381.738
L150.12 381.695
L150.566 381.779
L151.013 383.761
L151.459 381.567
L151.906 383.637
L152.352 382.845
L152.798 383.622
L153.245 383.504
L154.584 383.744
L155.03 383.674
L155.477 383.467
L155.923 383.021
L156.37 383.522
L156.816 383.823
L157.262 383.074
L157.709 381.512
L158.155 381.456
L158.602 383.424
L159.048 381.612
L159.494 383.659
L159.941 383.646
L160.387 383.817
L162.619 383.67
L163.066 383.551
L163.512 381.787
L164.405 383.689
L164.851 383.602
L165.298 383.712
L165.744 381.658
L166.19 381.522
L166.637 383.723
L167.976 383.632
L168.422 381.494
L168.869 383.693
L169.315 381.549
L169.762 383.3
L170.208 383.073
L170.654 383.74
L171.101 383.288
L171.994 383.969
L172.44 383.362
L172.886 381.516
L173.333 381.551
L173.779 383.637
L174.226 383.538
L174.672 383.598
L175.118 383.774
L175.565 383.737
L176.011 381.634
L176.458 383.724
L176.904 383.908
L177.797 383.76
L178.243 381.379
L178.69 383.789
L179.136 383.676
L179.582 382.761
L180.029 383.568
L180.475 381.492
L180.922 381.742
L181.368 383.799
L181.814 381.622
L182.261 383.751
L182.707 383.541
L183.154 381.64
L183.6 383.702
L184.046 381.513
L184.493 383.771
L184.939 383.532
L185.386 383.813
L185.832 381.9
L186.278 383.638
L186.725 381.478
L187.171 381.698
L187.618 383.685
L188.064 381.642
L188.51 383.54
L188.957 383.669
L189.85 383.515
L190.296 383.712
L190.742 383.627
L191.189 381.559
L191.635 383.769
L192.082 383.444
L192.528 382.902
L192.974 383.721
L193.421 381.629
L193.867 383.688
L194.314 381.671
L194.76 383.561
L195.206 383.642
L195.653 382.908
L196.099 383.517
L196.546 381.731
L196.992 381.339
L197.438 381.756
L197.885 383.72
L198.778 383.758
L199.224 381.98
L199.67 383.599
L200.117 383.743
L200.563 381.866
L201.01 383.761
L201.456 383.797
L201.902 381.865
L202.349 383.616
L202.795 383.589
L203.242 383.741
L205.474 383.759
L205.92 383.56
L206.366 383.727
L206.813 383.479
L207.259 383.412
L207.706 381.428
L208.152 382.908
L208.598 383.705
L209.045 383.7
L209.491 383.523
L209.938 383.566
L210.384 383.825
L210.83 381.603
L211.277 383.767
L211.723 383.827
L212.17 381.572
L212.616 381.802
L213.062 383.294
L213.509 381.68
L213.955 383.649
L214.848 383.733
L215.294 380.642
L215.741 383.61
L216.187 383.424
L216.634 383.764
L217.08 382.39
L217.526 381.587
L217.973 383.713
L218.419 383.596
L218.866 381.17
L219.312 383.762
L219.758 381.704
L220.205 383.552
L220.651 381.48
L221.544 381.585
L221.99 383.302
L222.437 383.654
L223.33 383.8
L223.776 383.732
L224.222 383.461
L224.669 381.167
L225.115 381.509
L225.562 383.547
L226.008 383.472
L226.454 382.334
L226.901 383.422
L227.347 383.786
L227.794 383.569
L228.24 381.532
L228.686 381.657
L229.133 383.682
L229.579 381.943
L230.026 383.422
L230.472 383.38
L230.918 383.777
L231.365 383.602
L231.811 383.773
L232.258 383.793
L232.704 383.309
L233.15 383.661
L234.936 383.782
L235.382 383.469
L235.829 382.393
L236.275 383.302
L237.168 383.845
L237.614 383.418
L238.061 383.843
L238.507 383.806
L238.954 383.61
L239.4 383.752
L240.293 383.345
L240.739 381.484
L241.186 383.329
L241.632 381.088
L242.078 381.749
L242.525 381.705
L243.418 383.637
L244.31 383.777
L244.757 383.682
L245.203 381.611
L245.65 383.626
L246.096 383.533
L246.542 383.75
L246.989 383.719
L247.435 383.82
L248.328 383.417
L248.774 383.7
L249.221 383.397
L249.667 383.634
L250.56 383.594
L251.006 383.433
L251.453 383.722
L251.899 383.74
L252.346 380.19
L252.792 383.638
L253.685 383.411
L254.131 383.739
L255.024 383.497
L255.47 383.775
L255.917 383.467
L256.363 383.753
L256.81 383.721
L257.256 381.012
L257.702 383.636
L258.149 383.332
L258.595 383.744
L259.042 383.742
L259.488 382.904
L259.934 383.768
L260.381 381.323
L260.827 381.344
L261.274 381.626
L261.72 383.787
L262.166 383.699
L262.613 381.663
L263.059 382.01
L263.506 383.729
L263.952 383.846
L264.398 383.683
L264.845 381.56
L265.291 383.711
L265.738 383.762
L266.184 383.539
L266.63 383.775
L267.077 383.714
L267.523 383.415
L267.97 383.308
L268.416 383.032
L268.862 383.623
L269.309 383.726
L269.755 383.657
L271.094 383.739
L271.541 383.022
L271.987 383.711
L272.434 381.605
L272.88 383.872
L273.326 381.708
L273.773 383.813
L274.219 383.507
L274.666 381.581
L275.112 381.435
L275.558 383.737
L276.005 383.692
L276.451 381.625
L276.898 381.627
L277.344 383.781
L278.237 383.339
L278.683 381.48
L279.13 383.709
L279.576 383.787
L280.022 382.965
L280.469 381.677
L280.915 381.611
L281.362 383.549
L281.808 383.818
L282.701 383.481
L283.147 383.77
L284.04 383.658
L284.486 383.725
L284.933 383.591
L285.379 381.629
L285.826 383.707
L286.272 382.893
L286.718 381.724
L287.165 381.512
L287.611 383.626
L288.058 381.301
L288.504 382.161
L288.95 381.778
L289.397 383.706
L289.843 383.47
L290.29 381.66
L290.736 383.826
L291.182 383.8
L291.629 381.444
L292.075 383.503
L292.522 383.459
L292.968 383.688
L293.414 383.686
L293.861 382.546
L294.307 383.294
L295.2 383.744
L295.646 383.379
L296.093 383.671
L297.432 383.673
L297.878 382.536
L298.325 383.459
L298.771 383.723
L299.218 381.485
L299.664 381.631
L300.11 383.813
L300.557 383.698
L301.003 383.754
L301.45 383.549
L302.342 383.55
L302.789 381.652
L303.235 383.735
L303.682 383.642
L304.574 383.866
L305.021 383.607
L305.467 383.566
L305.914 381.457
L306.806 383.673
L307.253 381.37
L307.699 383.547
L308.146 382.837
L308.592 383.564
L309.038 383.767
L309.485 381.714
L309.931 383.544
L310.378 383.826
L310.824 383.686
L311.27 381.573
L311.717 383.387
L312.163 383.655
L312.61 383.674
L313.056 383.537
L313.502 383.752
L314.842 383.681
L315.288 382.345
L315.734 383.502
L316.181 383.073
L316.627 383.651
L317.074 383.638
L317.52 382.518
L317.966 383.696
L318.413 383.5
L318.859 383.466
L319.306 383.707
L319.752 382.873
L320.198 383.586
L320.645 383.552
L321.538 383.749
L322.43 383.357
L323.323 383.635
L323.77 383.74
L324.216 383.504
L324.662 383.806
L325.109 381.592
L325.555 383.789
L326.002 383.06
L326.448 381.713
L326.894 383.642
L327.341 383.487
L327.787 382.732
L328.234 383.678
L329.126 383.743
L329.573 383.348
L330.019 383.753
L330.912 383.655
L331.358 381.678
L331.805 382.175
L332.251 381.661
L332.698 383.461
L333.144 383.589
L333.59 383.567
L334.037 383.367
L334.483 381.647
L334.93 383.814
L335.376 383.703
L335.822 383.771
L336.715 383.508
L337.162 381.61
L337.608 383.774
L338.054 383.371
L338.947 383.808
L339.394 383.496
L339.84 383.706
L340.286 383.421
L340.733 383.726
L341.179 383.571
L341.626 383.73
L342.072 383.608
L342.965 383.704
L343.411 383.09
L343.858 383.58
L344.304 383.482
L344.75 383.835
L345.197 383.732
L345.643 382.145
L346.09 383.329
L346.536 383.545
L346.982 383.459
L347.429 383.781
L347.875 381.313
L348.322 383.39
L348.768 383.588
L350.107 383.733
L350.554 383.257
L351 383.558
L351.446 383.555
L351.893 383.734
L352.339 381.504
L352.786 381.685
L353.232 383.536
L353.678 383.614
L354.125 383.418
L355.018 383.525
L355.464 383.677
L355.91 383.666
L356.357 383.507
L356.803 381.472
L357.25 383.501
L357.696 382.711
L358.142 383.544
L358.589 383.179
L359.482 383.765
L359.928 383.651
L360.374 381.446
L360.821 381.534
L361.267 383.14
L361.714 383.72
L362.16 383.566
L362.606 383.531
L363.053 381.327
L363.499 383.391
L364.838 383.417
L365.285 383.652
L365.731 383.405
L366.178 383.632
L366.624 383.429
L367.07 380.624
L367.517 383.033
L367.963 383.359
L368.41 383.352
L368.856 383.578
L369.749 383.64
L370.195 381.298
L370.642 383.392
L371.981 383.493
L372.427 383.614
L372.874 383.516
L373.32 383.637
L373.766 383.64
L374.213 383.374
L374.659 383.667
L375.998 383.508
L376.445 383.722
L376.891 383.63
L377.338 383.398
L377.784 381.083
L378.23 383.359
L378.677 383.663
L379.123 383.559
L379.57 383.683
L380.016 383.415
L380.909 382.24
L381.355 383.642
L382.694 383.69
L383.141 383.554
L384.034 383.634
L384.48 381.564
L384.926 383.517
L385.819 383.67
L387.158 383.732
L387.605 383.372
L388.051 383.492
L388.498 383.289
L388.944 383.6
L389.39 383.471
L389.837 383.211
L390.283 383.509
L390.73 382.382
L391.176 383.783
L392.069 383.731
L392.962 383.521
L393.408 383.785
L393.854 383.875
L394.301 383.645
L394.747 383.783
L395.194 383.622
L395.64 383.7
L396.086 383.43
L396.533 383.805
L396.979 383.658
L397.426 383.785
L397.872 383.556
L398.318 383.573
L398.765 383.745
L399.211 383.548
L400.104 383.455
L400.55 383.707
L400.997 383.746
L401.443 381.595
L401.89 383.082
L402.336 380.254
L402.782 383.6
L403.229 383.762
L403.675 383.624
L404.122 383.709
L404.568 383.57
L405.014 381.574
L405.461 381.519
L405.907 383.645
L406.354 381.357
L406.8 383.622
L407.246 383.354
L407.693 383.738
L408.139 377.191
L408.586 379.324
L409.032 378.682
L409.478 383.473
L409.925 383.751
L410.371 383.204
L410.818 382.154
L411.264 383.628
L411.71 383.753
L412.157 383.481
L413.496 383.67
L413.942 381.485
L414.389 383.704
L414.835 383.568
L415.282 383.739
L415.728 383.711
L416.174 383.542
L417.067 383.712
L417.514 381.437
L417.96 381.647
L418.406 383.756
L419.299 383.537
L419.746 383.744
L420.638 383.679
L421.085 383.575
L421.531 381.635
L421.978 383.632
L422.87 383.687
L423.317 381.48
L423.763 382.363
L424.21 383.552
L424.656 383.601
L425.102 383.381
L425.549 383.766
L425.995 381.579
L426.442 383.72
L426.888 383.614
L427.781 383.792
L428.227 383.786
L428.674 383.563
L429.12 383.772
L429.566 383.771
L430.459 383.555
L430.906 383.715
L431.352 383.608
L431.798 383.311
L432.245 383.452
L432.691 381.584
L433.138 383.467
L433.584 383.703
L434.03 383.479
L434.477 383.782
L434.923 383.46
L435.37 382.397
L435.816 383.727
L436.709 383.692
L437.155 381.617
L437.602 383.736
L438.048 381.703
L438.494 383.492
L438.941 383.807
L439.387 383.729
L439.834 383.881
L440.726 383.521
L441.173 383.768
L441.619 381.386
L442.066 383.591
L442.512 383.929
L442.958 383.196
L443.405 383.537
L444.744 383.738
L445.19 383.591
L446.083 383.731
L446.53 383.475
L446.976 383.726
L447.422 383.349
L447.869 383.656
L448.762 379.546
L449.208 383.519
L449.654 383.719
L450.101 383.702
L450.547 383.482
L450.994 383.603
L451.44 383.498
L451.886 383.749
L452.333 383.786
L452.779 383.705
L454.118 383.856
L454.565 383.358
L455.011 383.617
L455.458 383.577
L455.904 383.755
L456.35 383.618
L457.243 383.642
L457.69 383.531
L458.136 381.569
L458.582 381.504
L459.475 383.802
L459.922 383.668
L460.368 383.759
L460.814 381.696
L461.261 383.553
L461.707 383.576
L462.154 381.678
L462.6 381.475
L463.046 383.526
L463.493 383.37
L463.939 383.717
L464.386 383.668
L464.832 383.737
L465.278 383.509
L465.725 383.7
L466.618 383.518
L467.064 383.783
L467.957 383.728
L468.403 383.493
L468.85 383.717
L469.296 382.292
L469.742 383.69
L470.189 383.686
L470.635 383.504
L471.082 381.454
L471.528 383.807
L471.974 383.599
L472.421 383.609
L472.867 381.646
L473.314 383.806
L473.76 381.854
L474.206 383.635
L474.653 383.697
L475.099 383.568
L475.546 383.771
L476.438 383.446
L476.885 383.699
L477.331 383.489
L477.778 383.562
L478.224 381.668
L478.67 383.714
L479.563 383.741
L480.01 383.278
L480.456 382.328
L480.902 383.746
L481.349 383.477
L481.795 383.531
L482.242 381.524
L482.688 383.736
L483.134 383.662
L483.581 381.703
L484.027 383.684
L484.474 383.782
L484.92 383.75
L485.366 381.759
L485.813 383.741
L486.259 383.629
L487.598 383.678
L488.045 383.588
L488.491 383.123
L488.938 383.616
L489.384 381.465
L489.83 381.189
L490.277 383.426
L490.723 383.692
L491.17 383.457
L491.616 383.786
L492.062 381.154
L492.509 380.412
L492.955 383.409
L495.634 383.782
L496.08 383.566
L496.526 383.635
L496.973 383.589
L497.419 383.674
L497.866 383.502
L498.312 383.615
L498.758 381.544
L499.205 383.683
L499.651 383.503
L500.098 381.156
L500.544 383.704
L500.99 381.677
L501.437 383.587
L501.883 383.831
L502.33 381.6
L502.776 383.535
L503.222 382.368
L503.669 383.462
L504.562 383.77
L505.008 383.588
L505.454 383.751
L505.901 383.72
L506.347 383.533
L506.794 383.585
L507.24 381.393
L508.133 381.584
L508.579 381.317
L509.026 383.527
L509.918 383.406
L510.365 383.773
L510.811 383.612
L511.258 383.735
L511.704 383.574
L512.15 383.752
L512.597 383.052
L513.043 383.372
L513.49 383.352
L513.936 383.746
L514.829 383.445
L515.275 382.738
L515.722 383.729
L516.614 383.525
L517.061 383.755
L517.507 383.495
L517.954 383.746
L517.954 383.746" style="fill:none;stroke:#ff0000;"/>
   </g>
   <g id="line2d_2">
    <path clip-path="url(#p7ff5b81e1d)" d="
M72 377.093
L72.4464 378.954
L72.8928 370.696
L73.3392 374.63
L73.7856 376.372
L74.232 375.83
L74.6784 374.542
L75.1248 375.172
L75.5712 375.011
L76.0176 374.666
L76.464 375.702
L76.9104 371.306
L77.3568 376.219
L77.8032 371.275
L78.2496 375.627
L78.696 378.783
L79.1424 377.761
L80.0352 374.486
L80.4816 377.416
L80.928 371.747
L81.3744 375.067
L81.8208 375.721
L82.2672 379.394
L82.7136 375.114
L83.16 379.105
L83.6064 378.528
L84.0528 375.516
L84.4992 375.551
L84.9456 375.846
L85.392 375.858
L85.8384 379.373
L86.2848 375.138
L86.7312 379.17
L87.1776 375.795
L87.624 374.925
L88.0704 378.888
L88.5168 377.434
L88.9632 374.599
L89.4096 374.731
L89.856 379.086
L90.3024 375.499
L90.7488 379.543
L91.1952 373.543
L91.6416 373.748
L92.088 381.463
L92.5344 375.11
L92.9808 375.551
L93.4272 378.478
L93.8736 375.255
L94.32 374.821
L94.7664 379.609
L95.2128 379.678
L95.6592 374.946
L96.1056 375.311
L96.552 376.216
L96.9984 372.954
L97.4448 375.366
L97.8912 378.984
L98.3376 375.497
L98.784 374.859
L99.2304 379.797
L99.6768 375.534
L100.123 373.932
L101.016 378.252
L101.462 372.902
L102.355 379.123
L102.802 375.88
L103.248 378.85
L103.694 379.831
L104.141 374.6
L104.587 379.467
L105.034 378.941
L105.48 374.161
L105.926 374.443
L106.373 372.171
L106.819 378.046
L107.266 379.01
L107.712 374.838
L108.158 379.202
L108.605 376.224
L109.051 375.317
L109.498 379.593
L109.944 374.783
L110.39 380.018
L110.837 376.401
L111.283 379.905
L111.73 367.536
L112.176 375.554
L112.622 375.406
L113.069 376.361
L113.515 379.667
L113.962 378.599
L114.408 375.278
L114.854 380.276
L115.301 371.562
L116.194 373.4
L116.64 372.981
L117.086 375.11
L117.533 378.771
L117.979 379.237
L118.426 376.196
L118.872 376.171
L119.318 373.131
L119.765 380.536
L120.211 378.773
L120.658 380.068
L121.104 375.942
L121.55 380.713
L121.997 367.66
L122.443 379.894
L122.89 378.518
L123.336 374.944
L123.782 380.033
L124.229 379.747
L124.675 374.042
L125.122 374.635
L125.568 379.302
L126.014 375.938
L126.461 378.188
L126.907 378.445
L127.354 375.035
L127.8 379.212
L128.246 378.939
L128.693 379.133
L129.139 379.104
L129.586 378.507
L130.032 374.917
L130.478 378.675
L130.925 379.352
L131.371 373.158
L131.818 376.126
L132.264 368.461
L132.71 379.418
L133.157 373.43
L134.05 375.603
L134.496 378.809
L134.942 374.82
L135.389 378.646
L135.835 375.633
L136.282 378.194
L136.728 371.79
L137.174 381.47
L137.621 374.458
L138.067 376.129
L138.514 378.55
L138.96 374.714
L139.406 379.351
L139.853 378.914
L140.299 378.968
L140.746 375.011
L141.192 377.098
L141.638 375.916
L142.085 377.892
L142.531 370.024
L142.978 376.66
L143.424 374.423
L143.87 375.65
L144.317 379.019
L144.763 379.523
L145.21 375.93
L145.656 375.661
L146.102 374.905
L146.549 379.271
L147.442 371.25
L147.888 377.457
L148.334 375.815
L148.781 378.301
L149.227 373.713
L149.674 375.59
L150.12 374.855
L150.566 378.674
L151.013 378.51
L151.459 379.681
L151.906 375.446
L152.352 379.131
L152.798 374.464
L153.245 380.239
L153.691 372.18
L154.138 379.847
L154.584 371.18
L155.477 377.525
L155.923 375.667
L156.37 377.822
L156.816 379.204
L157.262 374.55
L157.709 379.186
L158.155 374.413
L158.602 378.907
L159.048 371.164
L159.494 376.964
L159.941 374.043
L160.387 377.372
L161.28 369.647
L161.726 379.625
L162.173 379.168
L162.619 374.12
L163.066 379.345
L163.512 375.208
L163.958 375.112
L164.405 375.445
L164.851 379.108
L165.298 375.02
L165.744 377.982
L166.19 379.454
L166.637 372.55
L167.083 379.544
L167.53 374.343
L167.976 378.321
L168.422 374.739
L168.869 378.846
L169.315 379.77
L169.762 374.469
L170.208 377.423
L170.654 372.773
L171.547 374.786
L171.994 378.004
L172.44 375.57
L172.886 374.175
L173.333 375.283
L173.779 374.009
L174.226 374.561
L174.672 374.681
L175.118 378.418
L175.565 375.798
L176.011 378.62
L176.458 379.201
L176.904 373.859
L177.35 377.254
L177.797 376.565
L178.243 379.417
L178.69 379.304
L179.136 376.521
L179.582 380.946
L180.029 371.355
L180.475 375.25
L180.922 373.773
L181.368 376.26
L181.814 374.721
L182.261 378.181
L182.707 375.273
L183.154 377.747
L183.6 373.924
L184.493 378.345
L184.939 375.307
L185.386 378.205
L185.832 375.264
L186.278 375.646
L186.725 378.481
L187.171 376.224
L187.618 375.754
L188.064 374.61
L188.51 375.744
L188.957 379.288
L189.403 375.584
L189.85 378.076
L190.296 379.786
L190.742 378.558
L191.189 375.256
L191.635 379.133
L192.528 378.826
L192.974 374.29
L193.421 379.954
L193.867 375.203
L194.314 375.192
L194.76 374.868
L195.206 374.283
L195.653 376.298
L196.099 379.959
L196.546 374.19
L196.992 376.626
L197.438 374.937
L197.885 374.987
L198.331 378.719
L198.778 375.172
L199.224 374.67
L199.67 375.948
L200.117 379.993
L200.563 375.213
L201.01 379.712
L201.456 376.376
L201.902 378.342
L202.349 372.537
L202.795 374.544
L203.242 371.111
L203.688 374.37
L204.134 379.028
L204.581 380.069
L205.027 374.203
L205.92 378.996
L206.366 374.69
L206.813 375.458
L207.259 379.336
L207.706 376.673
L208.152 382.715
L208.598 375.141
L209.045 377.382
L209.491 373.52
L209.938 378.382
L210.384 375.537
L210.83 373.793
L211.277 373.774
L211.723 378.779
L212.17 378.413
L212.616 374.076
L213.062 381.36
L213.509 374.445
L213.955 377.533
L214.402 378.604
L215.294 372.804
L215.741 377.374
L216.187 377.845
L216.634 379.225
L217.08 378.778
L217.526 379.281
L217.973 375.015
L218.419 379.232
L218.866 376.14
L219.312 375.173
L219.758 377.941
L220.205 375.487
L220.651 377.509
L221.098 382.408
L221.544 378.423
L221.99 379.048
L222.437 378.813
L222.883 378.142
L223.33 374.427
L223.776 375.302
L224.222 373.409
L224.669 370.091
L225.115 372.802
L225.562 377.496
L226.008 379.027
L226.454 378.479
L226.901 374.861
L227.347 374.982
L227.794 379.662
L228.24 375.503
L228.686 375.741
L229.133 379.211
L229.579 373.931
L230.026 378.435
L230.472 373.168
L230.918 375.601
L231.365 372.9
L231.811 379.359
L232.258 373.429
L232.704 379.586
L233.597 378.458
L234.043 375.816
L234.49 376.071
L234.936 377.955
L235.382 374.803
L235.829 375.174
L236.275 371.909
L236.722 376.596
L237.168 371.885
L237.614 379.117
L238.061 378.119
L238.507 374.896
L238.954 379.436
L239.4 378.703
L239.846 376.297
L240.293 374.561
L240.739 374.446
L241.186 375.744
L241.632 374.138
L242.078 378.246
L242.525 378.186
L242.971 364.199
L243.418 373.197
L243.864 374.385
L244.31 373.877
L244.757 374.692
L245.65 375.118
L246.096 378.721
L246.542 377.96
L246.989 373.942
L247.435 374.824
L248.328 374.994
L248.774 377.929
L249.221 373.992
L249.667 377.596
L250.114 378.83
L250.56 374.999
L251.006 374.623
L251.453 374.74
L251.899 375.322
L252.346 373.725
L252.792 376.984
L253.238 371.725
L253.685 378.683
L254.131 375.27
L254.578 378.493
L255.024 379.304
L255.47 374.835
L255.917 374.75
L256.363 379.162
L256.81 375.218
L257.256 376.379
L257.702 381.676
L258.149 375.515
L258.595 374.067
L259.042 374.263
L259.488 377.6
L259.934 379.315
L260.381 375.933
L260.827 377.973
L261.274 376.386
L261.72 375.812
L262.166 378.945
L262.613 379.06
L263.059 378.702
L263.506 375.019
L263.952 375.899
L264.845 371.603
L265.291 376.688
L265.738 375.757
L266.184 377.491
L266.63 373.202
L267.077 372.15
L267.523 380.917
L267.97 378.642
L268.416 374.222
L268.862 379.058
L269.755 378.227
L270.202 378.833
L270.648 373.879
L271.094 379.622
L271.541 375.294
L271.987 378.498
L272.434 375.527
L272.88 377.826
L273.326 381.796
L273.773 377.634
L274.219 378.471
L275.112 378.066
L275.558 376.068
L276.005 375.011
L276.451 375.296
L276.898 379.013
L277.344 378.912
L277.79 375.314
L278.237 374.661
L278.683 378.978
L279.13 372.722
L279.576 372.684
L280.022 379.427
L280.469 367.576
L280.915 380.448
L281.362 374.852
L281.808 377.224
L282.254 376.227
L283.147 375.065
L283.594 377.714
L284.04 374.096
L284.486 372.815
L284.933 377.745
L285.379 377.863
L285.826 374.194
L286.272 379.02
L286.718 378.354
L287.165 378.567
L287.611 378.329
L288.058 378.999
L288.504 376.591
L288.95 376.757
L289.397 375.612
L289.843 379.849
L290.29 379.299
L290.736 378.104
L291.629 372.889
L292.522 376.103
L292.968 378.927
L293.414 374.771
L294.307 380.528
L294.754 378.596
L295.2 375.189
L295.646 382.362
L296.093 370.884
L296.539 377.393
L296.986 375.209
L297.432 378.316
L297.878 374.717
L298.325 373.77
L298.771 374.57
L299.664 375.073
L300.11 374.091
L301.003 377.479
L301.45 372.617
L301.896 379.883
L302.342 377.87
L302.789 379.555
L303.235 374.319
L303.682 379.435
L304.128 378.12
L304.574 378.551
L305.021 375.198
L305.467 379.044
L305.914 378.341
L306.36 378.916
L306.806 378.871
L307.699 377.071
L308.146 379.312
L308.592 374.292
L309.038 373.372
L309.485 379.724
L309.931 374.631
L310.378 379.889
L310.824 374.832
L311.27 375.452
L311.717 378.49
L312.163 376.686
L312.61 371.097
L313.056 381.503
L313.502 374.25
L313.949 372.644
L314.395 373.179
L314.842 378.481
L315.288 378.405
L315.734 378.1
L316.181 374.387
L316.627 379.327
L317.074 375.224
L317.52 379.236
L317.966 375.205
L318.413 374.188
L318.859 378.232
L319.306 375.117
L319.752 375.611
L320.198 379.164
L320.645 378.538
L321.091 372.65
L321.538 379.503
L321.984 376.501
L322.43 377.283
L322.877 375.161
L323.323 379.307
L323.77 374.577
L324.216 373.165
L324.662 375.899
L325.109 371.328
L325.555 374.789
L326.002 376.424
L326.448 374.588
L326.894 374.9
L327.341 378.467
L327.787 374.494
L328.234 378.661
L328.68 375.535
L329.126 379.188
L329.573 378.298
L330.019 378.144
L330.466 378.654
L330.912 375.304
L331.358 377.209
L331.805 375.276
L332.251 378.359
L332.698 374.788
L333.144 377.903
L333.59 379.624
L334.037 375.862
L334.483 378.648
L334.93 378.663
L335.376 379.416
L335.822 378.841
L336.269 373.106
L336.715 378.612
L337.162 376.146
L337.608 377.628
L338.054 376.719
L338.501 377.057
L338.947 379.878
L339.394 378.752
L339.84 376.441
L340.286 376.19
L340.733 374.11
L341.179 373.245
L341.626 369.526
L342.072 381.136
L342.518 373.911
L342.965 370.522
L343.858 377.969
L344.304 374.009
L344.75 378.32
L345.197 375.803
L345.643 381.186
L346.09 377.755
L346.536 378.169
L346.982 372.736
L347.429 373.096
L347.875 376.732
L348.322 378.891
L348.768 372.071
L349.214 380.484
L349.661 378.031
L350.107 379.14
L350.554 375.121
L351 376.92
L351.446 370.06
L351.893 372.737
L352.339 378.205
L352.786 377.482
L353.232 377.371
L353.678 378.524
L354.125 378.911
L354.571 377.697
L355.018 374.247
L355.464 378.98
L355.91 373.111
L356.357 379.387
L357.25 376.32
L357.696 373.381
L358.142 378.885
L358.589 370.262
L359.035 379.396
L359.482 370.645
L359.928 376.913
L360.374 376.359
L360.821 379.249
L361.267 374.452
L361.714 373.928
L362.16 377.75
L362.606 379.134
L363.053 377.869
L363.499 378.124
L363.946 377.218
L364.392 375.224
L364.838 378.797
L365.285 378.314
L365.731 378.836
L366.178 377.483
L366.624 374.899
L367.07 378.477
L367.517 373.208
L367.963 381.163
L368.41 372.783
L368.856 380.821
L369.302 375.382
L369.749 377.893
L370.195 377.193
L370.642 379.076
L371.088 376.739
L371.534 371.456
L371.981 376.017
L372.427 378.863
L372.874 376.922
L373.32 377.617
L373.766 379.185
L374.213 379.504
L374.659 374.715
L375.106 378.454
L375.552 370.478
L375.998 376.576
L376.445 375.609
L376.891 376.511
L377.338 374.992
L377.784 376.053
L378.23 378.5
L378.677 377.758
L379.123 379.125
L379.57 378.707
L380.016 378.027
L380.462 378.412
L380.909 372.68
L381.355 379.469
L381.802 374.911
L382.248 377.963
L382.694 378.544
L383.141 375.139
L383.587 373.763
L384.034 382.056
L384.48 373.476
L384.926 378.912
L385.373 372.16
L385.819 377.562
L386.266 378.204
L386.712 377.144
L387.158 377.543
L387.605 377.356
L388.051 374.293
L388.498 374.475
L388.944 374.081
L389.39 378.676
L390.283 378.504
L390.73 379.012
L391.176 378.322
L391.622 378.22
L392.069 379.774
L392.515 379.6
L392.962 370.669
L393.408 377.565
L393.854 370.758
L394.301 375.54
L394.747 375.524
L395.194 376.896
L395.64 379.226
L396.086 376.893
L396.533 378.863
L396.979 377.151
L397.426 373.741
L397.872 378.236
L398.318 378.134
L398.765 378.963
L399.211 377.207
L399.658 378.074
L400.104 377.335
L400.55 377.296
L400.997 377.106
L401.443 379.105
L401.89 374.328
L402.336 378.92
L402.782 379.256
L403.229 378.913
L403.675 369.74
L404.122 381.385
L404.568 375.62
L405.014 371.734
L405.461 380.798
L405.907 376.503
L406.354 373.718
L406.8 376.989
L407.246 377.131
L407.693 374.162
L408.139 374.247
L408.586 375.539
L409.032 377.178
L409.478 373.515
L409.925 378.24
L410.371 377.835
L410.818 374.573
L411.264 379.033
L411.71 377.768
L412.157 379.559
L412.603 378.502
L413.05 379.862
L413.496 379.042
L413.942 375.042
L414.389 375.408
L414.835 380.51
L415.282 376.041
L415.728 376.755
L416.174 378.101
L416.621 378.938
L417.067 374.756
L417.514 377.557
L417.96 379.54
L418.406 374.047
L418.853 379.465
L419.299 377.896
L419.746 379.613
L420.192 367.259
L420.638 376.544
L421.085 372.498
L421.531 377.247
L421.978 379.222
L422.424 373.549
L422.87 377.698
L423.317 375.109
L423.763 378.844
L424.656 379.407
L425.102 378.58
L425.549 378.979
L425.995 379.215
L426.442 376.02
L426.888 379.907
L427.334 375.812
L427.781 373.48
L428.227 377.77
L428.674 378.099
L429.12 373.724
L429.566 356.613
L430.013 376.8
L430.459 379.208
L430.906 379.314
L431.352 378.645
L431.798 379.709
L432.245 378.033
L432.691 378.729
L433.138 380.017
L433.584 378.787
L434.03 371.553
L434.477 377.095
L434.923 378.734
L435.37 377.905
L435.816 379.309
L436.262 374.377
L436.709 374.746
L437.155 376.568
L437.602 372.514
L438.048 378.182
L438.494 378.661
L438.941 378.514
L439.387 374.318
L439.834 379.053
L440.28 378.477
L440.726 374.97
L441.173 378.372
L441.619 377.971
L442.066 379.542
L442.512 379.437
L443.405 373.721
L443.851 379.881
L444.744 377.583
L445.19 378.304
L445.637 378.744
L446.083 378.475
L446.976 375.701
L447.422 375.2
L447.869 374.873
L448.315 374.941
L448.762 378.317
L449.208 377.867
L449.654 378.855
L450.101 377.776
L450.547 381.862
L450.994 374.162
L451.44 378.626
L452.333 378.594
L452.779 379.085
L453.226 378.588
L453.672 376.051
L454.118 382.017
L454.565 375.858
L455.011 378.312
L455.458 377.477
L455.904 380.018
L456.35 378.395
L456.797 371.773
L457.243 376.535
L457.69 379.046
L458.582 378.503
L459.029 379.547
L459.475 378.38
L459.922 379.84
L460.368 375.984
L460.814 380.107
L461.261 375.086
L461.707 377.446
L462.154 377.993
L462.6 377.597
L463.046 378.742
L463.493 378.72
L463.939 379.164
L464.386 378.678
L464.832 375.287
L465.278 379.301
L465.725 378.485
L466.171 379.664
L466.618 378.267
L467.064 378.804
L467.51 374.266
L467.957 375.671
L468.403 372.426
L468.85 377.343
L469.296 379.561
L469.742 377.716
L470.189 377.78
L470.635 378.022
L471.082 378.917
L471.528 375.419
L471.974 376.804
L472.421 378.778
L472.867 377.495
L473.314 379.18
L473.76 375.654
L474.206 379.854
L474.653 376.581
L475.099 379.459
L475.546 374.639
L475.992 376.954
L476.438 373.453
L476.885 380.459
L477.331 375.209
L477.778 376.652
L478.224 377.038
L478.67 374.741
L479.117 375.577
L479.563 378.209
L480.01 378.72
L480.456 374.968
L480.902 378.496
L481.349 379.737
L481.795 378.387
L482.242 378.64
L482.688 374.688
L483.134 379.034
L483.581 378.355
L484.474 379.52
L484.92 375.043
L485.366 380.532
L485.813 375.065
L486.259 374.298
L486.706 377.697
L487.152 373.343
L487.598 381.558
L488.045 374.106
L488.491 377.605
L488.938 377.701
L489.384 378.456
L489.83 377.617
L490.277 379.823
L490.723 377.511
L491.17 380.546
L491.616 373.229
L492.062 377.948
L492.509 376.103
L492.955 378.502
L493.402 377.295
L493.848 379.534
L494.294 377.21
L494.741 378.24
L495.187 377.055
L495.634 379.698
L496.08 379.542
L496.526 378.502
L496.973 378.947
L497.419 378.455
L497.866 379.886
L498.312 378.099
L498.758 373.349
L499.205 381.669
L499.651 370.992
L500.544 377.944
L500.99 375.565
L501.437 379.522
L501.883 379.538
L502.33 378.258
L502.776 378.616
L503.222 382.598
L503.669 375.958
L504.115 376.309
L504.562 375.005
L505.008 377.588
L505.454 375.444
L505.901 378.349
L506.347 382.619
L506.794 375.25
L507.24 377.337
L507.686 377.546
L508.133 378.873
L508.579 377.957
L509.026 378.175
L509.472 378.578
L509.918 377.827
L510.365 371.81
L510.811 377.289
L511.258 376.671
L511.704 368.807
L512.15 381.638
L512.597 375.65
L513.043 376.943
L513.49 377.297
L513.936 377.449
L514.382 377.891
L514.829 378.93
L515.275 378.917
L515.722 376.192
L516.168 378.144
L516.614 375.729
L517.061 374.977
L517.507 378.028
L517.954 378.414
L517.954 378.414" style="fill:none;opacity:0.7;stroke:#008000;"/>
   </g>
   <g id="line2d_3">
    <path clip-path="url(#p7ff5b81e1d)" d="
M72 378.016
L72.4464 376.281
L72.8928 373.075
L73.3392 374.676
L73.7856 374.212
L74.232 374.88
L74.6784 376.502
L75.1248 375.091
L75.5712 375.607
L76.0176 375.146
L76.464 372.795
L76.9104 372.809
L77.3568 375.047
L77.8032 374.319
L78.2496 374.523
L79.1424 375.345
L79.5888 374.777
L80.0352 376.721
L80.4816 375.817
L80.928 375.38
L81.3744 375.74
L81.8208 374.846
L82.2672 375.448
L82.7136 376.248
L83.16 375.126
L83.6064 376.346
L84.0528 375.826
L84.4992 376.567
L84.9456 376.395
L85.392 376.084
L85.8384 376.113
L86.2848 370.256
L86.7312 374.549
L87.1776 376.4
L87.624 373.918
L88.0704 376.642
L88.5168 376.251
L88.9632 376.188
L89.4096 374.138
L89.856 375.828
L90.3024 376.122
L90.7488 377.281
L92.088 374.907
L92.5344 377.053
L92.9808 376.663
L93.4272 375.828
L93.8736 377.434
L94.32 376.344
L94.7664 375.985
L95.2128 376.39
L95.6592 375.903
L96.1056 376.594
L96.552 375.694
L96.9984 376.666
L97.4448 376.073
L97.8912 375.011
L98.3376 375.799
L98.784 376.054
L99.2304 376.522
L99.6768 376.526
L100.123 375.87
L100.57 376.761
L101.016 374.968
L101.462 376.878
L101.909 375.461
L102.355 376.742
L102.802 376.646
L103.248 375.98
L103.694 376.764
L104.141 376
L104.587 376.075
L105.034 376.686
L105.48 376.349
L105.926 376.397
L106.373 376.278
L106.819 375.455
L107.266 373.908
L107.712 379.045
L108.158 375.187
L108.605 376.05
L109.051 375.453
L109.498 376.938
L109.944 375.914
L110.39 376.556
L110.837 376.712
L111.283 375.963
L111.73 376.46
L112.176 375.29
L112.622 376.11
L113.069 375.94
L113.962 376.751
L114.408 374.47
L114.854 377.308
L115.301 373.102
L115.747 374.671
L116.64 375.433
L117.086 372.446
L117.533 377.344
L117.979 376.279
L118.426 374.874
L118.872 375.379
L119.318 376.6
L119.765 375.782
L120.211 376.403
L120.658 375.443
L121.104 375.991
L121.55 376.803
L121.997 375.786
L122.443 376.165
L122.89 375.23
L123.336 376.449
L123.782 375.303
L124.229 376.98
L124.675 377.309
L125.122 374.472
L125.568 379.421
L126.014 376.181
L126.461 376.956
L126.907 376.684
L127.354 376.068
L127.8 379.493
L128.246 372.16
L128.693 375.054
L129.139 373.407
L129.586 375.531
L130.032 376.523
L130.478 372.434
L130.925 376.313
L131.371 374.881
L131.818 375.915
L132.264 376.514
L132.71 376.075
L133.157 377.048
L133.603 376.82
L134.05 375.865
L134.496 375.879
L134.942 376.763
L135.389 375.955
L135.835 376.759
L136.282 377.312
L136.728 376.878
L137.174 375.595
L137.621 375.069
L138.067 377.048
L138.514 376.018
L138.96 376.067
L139.853 376.584
L140.299 375.302
L140.746 376.769
L141.192 375.621
L141.638 377.376
L142.085 376.693
L142.531 375.636
L142.978 376.866
L143.424 376.423
L143.87 376.375
L144.317 376.837
L145.656 376.099
L146.102 376.436
L146.549 376.421
L146.995 376.93
L147.442 375.229
L147.888 377.562
L148.334 376.097
L149.674 376.842
L150.12 376.08
L150.566 377.032
L151.013 375.535
L151.459 375.835
L151.906 377.043
L152.352 376.66
L152.798 374.506
L153.245 377.632
L153.691 375.495
L154.138 377.288
L154.584 373.5
L155.03 378.819
L155.477 372.699
L155.923 378.756
L156.816 370.227
L157.262 375.957
L157.709 376.142
L158.155 377.003
L158.602 377.215
L159.048 376.777
L159.494 375.529
L159.941 376.599
L160.387 374.408
L160.834 376.747
L161.726 376.838
L162.173 376.417
L163.066 377.084
L163.512 375.483
L163.958 377.074
L164.405 375.566
L164.851 379.178
L165.298 376.083
L165.744 377.324
L166.19 376.916
L166.637 376.812
L167.083 376.192
L167.53 376.172
L167.976 375.354
L168.422 377.112
L168.869 376.747
L169.315 376.848
L169.762 375.955
L170.208 376.831
L170.654 376.67
L171.101 375.874
L171.547 377.17
L171.994 376.216
L172.44 376.824
L172.886 376.58
L173.333 375.978
L173.779 377.422
L174.226 376.428
L174.672 376.766
L175.118 375.087
L175.565 377.263
L176.011 376.047
L176.458 375.22
L176.904 377.085
L177.797 376.727
L178.243 375.946
L178.69 376.882
L179.136 377.109
L179.582 376.561
L180.029 376.562
L180.922 377.056
L181.368 371.034
L181.814 374.573
L182.261 374.106
L182.707 375.146
L183.154 376.986
L183.6 375.759
L184.046 376.346
L184.493 372.87
L184.939 376.503
L185.386 373.131
L185.832 376.478
L186.278 375.238
L186.725 376.198
L187.171 375.006
L187.618 376.791
L188.064 376.173
L188.51 376.206
L188.957 375.844
L189.403 375.125
L189.85 376.965
L190.296 376.502
L190.742 376.816
L191.189 376.856
L191.635 376.05
L192.082 376.563
L192.528 376.415
L192.974 376.834
L193.867 376.94
L194.314 375.504
L194.76 377.036
L195.206 377.293
L195.653 376.204
L196.099 377.085
L196.546 376.16
L196.992 376.853
L197.885 374.248
L198.331 375.858
L198.778 376.983
L199.224 375.73
L199.67 374.919
L200.117 374.357
L200.563 375.452
L201.01 375.838
L201.902 376.863
L202.349 376.658
L202.795 376.778
L203.242 377.789
L203.688 376.468
L204.134 375.505
L204.581 377.143
L205.027 375.97
L205.474 376.625
L205.92 377.056
L206.366 376.32
L206.813 376.457
L207.259 375.384
L207.706 377.021
L208.152 376.277
L208.598 377.084
L209.045 376.756
L209.938 376.967
L210.384 375.907
L210.83 377.294
L211.277 376.62
L211.723 379.536
L212.17 370.878
L212.616 374.568
L213.062 375.371
L214.402 376.059
L214.848 376.041
L216.187 376.686
L216.634 376.258
L217.526 374.538
L217.973 373.821
L218.419 369.717
L218.866 373.01
L219.758 377.171
L220.205 375.582
L220.651 376.124
L221.098 374.231
L221.544 376.951
L221.99 377.055
L222.437 376.909
L222.883 377.261
L223.33 376.511
L223.776 376.179
L224.222 375.419
L224.669 377.385
L225.115 376.832
L226.008 376.594
L226.454 376.395
L226.901 376.568
L227.347 379.473
L227.794 374.777
L228.24 376.753
L228.686 377.012
L229.133 377.09
L229.579 375.718
L230.026 377.512
L230.472 375.369
L230.918 377.96
L231.365 376.303
L231.811 377.321
L232.258 375.028
L232.704 376.955
L233.15 375.453
L233.597 376.283
L234.043 376.637
L234.49 376.068
L234.936 373.306
L235.382 378.401
L235.829 372.058
L236.275 374.111
L236.722 372.567
L237.168 375.378
L237.614 375.292
L238.061 374.702
L238.507 376.059
L239.4 376.291
L239.846 375.069
L240.293 376.384
L240.739 375.667
L241.186 377.521
L241.632 376.034
L242.078 375.931
L242.525 375.249
L242.971 377.124
L243.418 376.121
L243.864 377.367
L244.31 376.928
L244.757 377.051
L245.203 376.827
L245.65 375.977
L246.096 376.328
L246.542 375.625
L246.989 375.416
L247.435 377.15
L249.221 375.958
L249.667 376.505
L250.114 375.101
L250.56 377.384
L251.453 375.99
L251.899 376.511
L252.346 376.731
L252.792 376.044
L253.238 377.212
L253.685 377.691
L254.131 375.983
L254.578 376.304
L255.024 375.128
L255.47 376.464
L255.917 376.451
L256.363 376.055
L256.81 376.233
L257.256 375.877
L257.702 375.994
L258.149 375.816
L258.595 377.15
L259.042 375.723
L259.488 375.437
L259.934 377.791
L260.381 376.693
L260.827 376.83
L261.274 376.705
L261.72 376.81
L262.166 375.833
L262.613 376.717
L263.059 376.274
L263.506 376.202
L263.952 376.821
L264.398 376.022
L264.845 376.666
L265.291 376.631
L265.738 377.316
L266.184 376.83
L266.63 377.252
L267.077 376.999
L267.523 374.893
L267.97 377.669
L268.416 376.514
L268.862 376.805
L269.309 375.857
L269.755 376.999
L270.202 376.069
L270.648 376.822
L271.094 376.29
L271.541 376.464
L271.987 373.54
L272.434 376.841
L272.88 377.411
L273.326 377.209
L273.773 376.568
L274.219 376.385
L274.666 376.755
L275.112 375.66
L275.558 376.871
L276.005 376.837
L276.451 377.131
L276.898 375.892
L277.344 377.002
L277.79 376.609
L278.237 376.885
L278.683 376.658
L279.576 376.971
L280.022 371.348
L280.469 373.841
L280.915 373.627
L281.808 376.749
L282.701 374.908
L283.147 374.997
L283.594 376.237
L284.04 376.908
L284.486 376.627
L284.933 372.178
L285.379 378.136
L285.826 372.896
L287.165 376.043
L287.611 375.908
L288.058 376.206
L288.504 376.769
L288.95 375.783
L289.397 376.512
L289.843 375.575
L290.736 376.829
L291.182 376.641
L291.629 375.159
L292.075 377.754
L292.522 376.199
L293.414 377.492
L293.861 375.824
L294.307 375.805
L295.2 377.266
L295.646 376.591
L296.093 376.634
L296.539 377.374
L296.986 377.235
L297.432 376.208
L297.878 376.544
L298.325 374.359
L298.771 377.184
L299.218 376.942
L299.664 375.92
L300.11 374.404
L300.557 376.941
L301.003 375.884
L301.896 376.146
L302.342 376.708
L302.789 376.03
L303.235 376.908
L303.682 375.288
L304.128 376.314
L304.574 375.215
L305.021 376.528
L305.467 376.869
L305.914 376.011
L306.36 375.892
L306.806 375.638
L307.253 376.206
L308.146 376.524
L309.038 375.326
L309.485 377.315
L309.931 375.742
L310.378 375.036
L310.824 375.922
L311.27 377.531
L311.717 375.316
L312.163 376.995
L313.056 374.517
L313.502 376.436
L313.949 376.472
L314.395 377.147
L315.288 376.832
L315.734 376.771
L316.181 376.12
L316.627 375.195
L317.074 375.287
L317.52 377.526
L318.413 376.646
L318.859 376.554
L319.306 375.688
L319.752 376.532
L320.198 374.086
L320.645 374.427
L321.091 377.018
L321.538 376.453
L321.984 375.15
L322.43 376.215
L322.877 376.621
L323.323 375.784
L323.77 377.046
L324.216 376.249
L324.662 375.771
L325.109 375.795
L325.555 376.796
L326.002 376.173
L326.448 376.285
L326.894 377.338
L327.341 376.174
L327.787 376.383
L328.234 377.247
L328.68 377.177
L329.126 376.695
L329.573 376.596
L330.019 377.316
L330.466 377.279
L330.912 376.402
L331.358 376.508
L331.805 377.041
L332.251 375.988
L332.698 372.468
L333.144 374.376
L333.59 372.669
L334.483 375.249
L334.93 375.698
L335.376 375.81
L335.822 376.328
L336.269 377.048
L336.715 376.599
L337.162 376.795
L338.054 375.426
L338.947 377.322
L339.394 376.246
L339.84 376.386
L340.286 377.437
L340.733 374.766
L341.179 376.532
L341.626 376.217
L342.072 376.758
L342.518 375.692
L342.965 377.298
L343.411 376.859
L343.858 377.171
L344.304 376.666
L344.75 375.787
L345.197 374.402
L345.643 378.398
L346.09 377.033
L346.536 376.946
L346.982 377.183
L347.429 376.039
L347.875 373.645
L348.322 375.364
L348.768 373.207
L349.214 377.029
L349.661 375.139
L350.107 375.65
L350.554 375.26
L351 373.439
L351.893 376.833
L352.339 375.249
L352.786 377.158
L353.232 376.487
L353.678 376.822
L354.125 376.29
L354.571 376.965
L355.018 377.018
L355.464 376.928
L355.91 376.261
L356.357 377.035
L356.803 373.654
L357.25 376.653
L357.696 372.921
L359.035 375.402
L359.482 374.834
L359.928 375.201
L360.374 375.959
L360.821 375.907
L361.267 376.345
L361.714 375.5
L362.16 377.008
L363.053 376.493
L363.499 376.862
L363.946 376.632
L364.392 376.117
L364.838 376.519
L365.285 376.359
L365.731 376.779
L366.178 376.312
L367.07 376.15
L367.517 377.062
L367.963 375.807
L368.41 375.177
L368.856 376.061
L369.302 376.281
L369.749 373.711
L370.195 376.056
L370.642 376.544
L371.088 375.013
L371.534 376.014
L371.981 374.85
L372.427 374.644
L372.874 377.304
L373.32 376.452
L373.766 376.018
L374.213 376.389
L374.659 376.524
L375.106 376.885
L375.552 375.515
L375.998 376.758
L376.445 375.561
L376.891 375.033
L377.338 376.28
L377.784 375.284
L378.23 376.288
L378.677 376.15
L379.123 376.131
L379.57 376.896
L380.016 375.171
L380.462 376.743
L380.909 376.459
L381.355 376.362
L381.802 375.532
L382.248 376.44
L382.694 375.7
L383.141 376.032
L383.587 374.556
L384.034 377.069
L384.48 376.043
L384.926 375.939
L385.373 375.475
L385.819 376.814
L386.712 375.37
L387.158 375.434
L387.605 376.348
L388.051 374.536
L388.498 375.878
L388.944 376.787
L389.39 374.246
L389.837 376.225
L390.283 377.247
L390.73 375.754
L391.176 376.13
L391.622 375.558
L392.069 376.215
L392.515 375.449
L392.962 372.641
L393.408 379.345
L393.854 376.641
L394.301 375.541
L394.747 376.375
L395.194 375.694
L395.64 376.587
L396.086 376.591
L396.979 375.759
L397.426 377.955
L397.872 375.812
L398.318 375.229
L398.765 375.411
L399.211 369.819
L399.658 372.008
L400.104 371.18
L400.55 374.459
L400.997 376.112
L401.443 376.147
L401.89 375.747
L402.336 377.183
L402.782 375.844
L403.229 376.742
L403.675 376.64
L404.122 378.068
L404.568 374.937
L405.014 376.604
L405.461 376.309
L405.907 373.357
L406.354 373.423
L406.8 376.477
L407.246 375.559
L408.139 376.977
L408.586 376.153
L409.032 376.091
L409.478 376.382
L409.925 373.913
L410.371 376.287
L411.71 376.794
L412.603 375.96
L413.05 374.248
L413.496 375.762
L413.942 376.32
L414.835 376.248
L415.282 376.993
L415.728 377.356
L416.174 375.762
L416.621 375.946
L417.067 375.842
L417.514 376.435
L417.96 376.556
L418.406 376.157
L418.853 376.528
L419.299 375.891
L419.746 375.689
L420.192 375.252
L420.638 376.732
L421.085 377.328
L421.531 374.404
L421.978 376.697
L422.424 375.949
L422.87 377.134
L423.317 376.506
L423.763 376.87
L424.21 376.777
L424.656 375.95
L425.102 377.499
L425.549 376.849
L425.995 375.702
L426.442 376.385
L426.888 377.86
L427.334 376.373
L427.781 375.621
L428.227 376.155
L428.674 373.446
L429.12 376.214
L429.566 376.402
L430.013 376.135
L430.459 375.603
L431.352 377.322
L431.798 376.194
L432.245 376.809
L432.691 376.16
L433.138 375.254
L433.584 376.846
L434.03 376.04
L434.477 376.871
L434.923 376.171
L435.37 376.303
L435.816 377.07
L436.262 376.064
L436.709 375.99
L437.155 375.713
L438.048 376.023
L438.494 376.448
L438.941 375.876
L439.387 376.442
L439.834 375.681
L440.726 377.134
L441.173 376.024
L442.066 376.679
L442.512 375.775
L442.958 376.767
L443.405 375.956
L443.851 376.95
L444.298 376.919
L444.744 377.224
L445.19 375.302
L446.083 376.739
L446.53 375.003
L446.976 377.11
L447.422 376.685
L447.869 375.445
L448.315 376.533
L449.208 376.718
L449.654 375.961
L450.101 376.316
L450.547 373.083
L450.994 378.351
L451.44 377.021
L451.886 376.38
L452.333 376.303
L452.779 375.94
L453.672 376.711
L454.118 376.261
L454.565 376.095
L455.458 376.31
L455.904 376.04
L456.35 376.621
L456.797 375.853
L457.243 377.076
L457.69 375.571
L458.136 376.394
L458.582 376.133
L459.029 376.526
L459.475 376.488
L459.922 376.041
L460.368 375.148
L461.261 376.611
L461.707 375.819
L462.154 376.115
L462.6 377.428
L463.046 372.441
L463.493 377.941
L463.939 374.454
L464.832 375.605
L465.278 374.769
L465.725 376.665
L466.171 374.678
L466.618 376.214
L467.064 375.981
L467.51 374.989
L468.403 376.094
L468.85 375.313
L469.296 375.999
L469.742 375.275
L470.189 376.783
L470.635 375.864
L471.082 376.437
L471.528 376.733
L471.974 376.055
L472.421 376.394
L472.867 377.284
L473.76 375.482
L474.206 375.43
L474.653 375.904
L475.099 375.441
L475.546 375.754
L475.992 376.638
L476.438 377.034
L476.885 375.026
L477.331 375.327
L477.778 376.513
L478.224 375.683
L478.67 374.384
L479.117 375.635
L479.563 375.864
L480.01 375.666
L480.456 374.803
L480.902 377.194
L481.349 376.344
L481.795 376.141
L482.242 376.451
L482.688 375.733
L483.134 374.164
L483.581 375.945
L484.027 376.387
L484.92 376.676
L485.366 375.696
L485.813 376.943
L486.259 376.633
L486.706 375.794
L487.152 375.75
L487.598 375.93
L488.045 375.868
L488.938 376.82
L489.384 376.618
L489.83 375.427
L490.277 376.897
L490.723 376.189
L491.17 377.213
L491.616 376.627
L492.062 376.884
L492.955 375.122
L493.402 373.297
L493.848 378.568
L494.741 375.934
L495.187 376.676
L495.634 376.717
L496.08 376.115
L496.526 377.18
L496.973 376.042
L497.419 377.253
L497.866 376.831
L498.312 377.189
L498.758 375.909
L499.205 375.639
L499.651 376.737
L500.098 375.914
L500.544 376.468
L500.99 374.998
L501.437 376.197
L501.883 376.966
L502.33 376.257
L502.776 372.794
L503.222 374.977
L503.669 376.041
L504.115 376.585
L504.562 376.444
L505.008 375.429
L505.454 376.83
L505.901 376.231
L506.347 377.195
L506.794 376.596
L507.686 376.938
L508.133 374.88
L508.579 376.79
L509.472 376.209
L509.918 376.76
L510.365 376.684
L510.811 376.342
L511.258 376.605
L511.704 375.73
L512.15 376.198
L512.597 376.142
L513.043 376.53
L513.49 376.67
L513.936 376.077
L514.382 375.93
L514.829 374.185
L515.275 375.899
L515.722 376.522
L516.168 375.647
L516.614 375.645
L517.061 376.494
L517.507 372.798
L517.954 376.297
L517.954 376.297" style="fill:none;opacity:0.5;stroke:#ffa500;"/>
   </g>
   <g id="line2d_4">
    <path clip-path="url(#p7ff5b81e1d)" d="
M72 376.155
L72.4464 377.127
L72.8928 372.332
L73.7856 374.281
L74.232 375.86
L74.6784 373.077
L75.1248 374.754
L75.5712 373.915
L76.0176 375.308
L76.464 374.031
L76.9104 373.211
L77.3568 373.82
L77.8032 377.697
L78.696 373.516
L79.1424 375.392
L79.5888 376.549
L80.0352 378.534
L80.4816 374.213
L80.928 378.935
L81.3744 376.064
L81.8208 373.933
L82.7136 377.386
L83.16 378.08
L83.6064 374.621
L84.0528 378.599
L84.4992 379.187
L84.9456 375.563
L85.392 376.675
L85.8384 377.118
L86.2848 379.453
L86.7312 374.8
L87.1776 371.536
L88.0704 374.173
L88.5168 374.557
L88.9632 375.199
L89.4096 374.271
L89.856 374.567
L90.3024 375.362
L90.7488 375.74
L91.1952 378.403
L91.6416 375.319
L92.088 374.857
L92.5344 375.35
L92.9808 378.886
L93.4272 375.903
L93.8736 375.472
L94.32 378.702
L94.7664 375.665
L95.2128 376.268
L95.6592 375.045
L96.1056 373.369
L96.552 377.089
L96.9984 375.126
L97.4448 374.923
L97.8912 377.951
L98.3376 374.86
L98.784 379.625
L99.2304 375.999
L99.6768 375.865
L100.123 379.51
L100.57 374.383
L101.016 377.02
L101.462 372.028
L101.909 376.603
L102.355 378.058
L102.802 374.135
L103.248 379.936
L103.694 376.25
L104.141 379.1
L104.587 379.405
L105.034 379.015
L105.48 375.444
L105.926 375.719
L106.373 377.151
L106.819 376.413
L107.266 374.978
L108.158 379.185
L108.605 375.34
L109.051 378.433
L109.498 378.736
L109.944 379.447
L110.39 379.869
L110.837 374.528
L111.283 378.796
L111.73 371.316
L112.176 375.33
L112.622 375.495
L113.069 378.877
L113.515 376.97
L113.962 375.627
L114.408 378.634
L114.854 378.724
L115.301 375.729
L115.747 375.632
L116.194 374.834
L116.64 379.805
L117.086 372.273
L117.533 381.403
L117.979 373.406
L118.426 376.322
L118.872 375.508
L119.318 377.134
L119.765 375.883
L120.211 376.925
L120.658 378.979
L121.104 376.333
L121.55 377.373
L121.997 377.171
L122.443 377.496
L122.89 375.314
L123.336 378.015
L123.782 379.534
L124.229 377.758
L124.675 375.038
L125.122 379.202
L125.568 379.864
L126.014 376.722
L126.461 378.894
L126.907 379.727
L127.354 377.771
L127.8 379.824
L128.246 378.571
L128.693 376.166
L129.139 376.191
L129.586 375.507
L130.032 382.347
L130.478 373.565
L130.925 378.077
L131.371 373.943
L131.818 375.211
L132.264 374.712
L132.71 378.305
L133.157 375.879
L133.603 376.488
L134.05 379.702
L134.942 374.85
L135.389 378.532
L135.835 378.62
L136.282 374.79
L137.174 376.677
L137.621 375.686
L138.067 373.811
L138.514 376.028
L138.96 372.867
L139.406 379.919
L139.853 375.365
L140.299 375.513
L140.746 379.012
L141.192 374.154
L141.638 379.833
L142.085 375.058
L142.531 375.74
L142.978 378.281
L143.424 377.441
L143.87 375.488
L144.317 376.443
L144.763 378.931
L145.21 380.123
L145.656 378.762
L146.102 375.864
L146.549 382.424
L146.995 367.474
L147.442 375.313
L147.888 371.721
L148.334 374.451
L148.781 374.728
L149.227 378.064
L149.674 379.703
L150.12 378.351
L150.566 379.245
L151.013 379.455
L151.459 375.596
L151.906 379.211
L152.352 374.486
L152.798 364.852
L153.245 374.532
L153.691 379.518
L154.138 375.516
L154.584 375.882
L155.03 379.368
L155.477 378.835
L155.923 375.447
L156.37 380.079
L156.816 371.603
L157.262 377.845
L157.709 374.221
L158.155 375.11
L158.602 379.323
L159.048 374.515
L159.494 378.77
L159.941 378.693
L160.834 372.841
L161.28 377.139
L161.726 371.94
L162.173 378.518
L162.619 378.044
L163.066 378.235
L163.512 374.84
L163.958 378.662
L164.405 376.582
L164.851 377.966
L165.744 374.286
L166.19 378.32
L166.637 375.221
L167.083 373.66
L167.53 374.113
L167.976 380.231
L168.422 374.246
L168.869 379.943
L169.315 376.742
L169.762 379.368
L170.208 379.553
L170.654 375.178
L171.101 375.32
L171.547 375.136
L171.994 379.223
L172.44 373.584
L172.886 379.82
L173.333 379.059
L173.779 374.915
L174.226 375.288
L174.672 378.33
L175.118 374.749
L175.565 375.387
L176.011 374.561
L176.458 378.713
L176.904 379.444
L177.35 376.494
L177.797 375.301
L178.243 379.656
L178.69 367.203
L179.136 380.326
L179.582 370.666
L180.029 373.704
L180.475 374.894
L180.922 375.659
L181.368 376.711
L181.814 376.79
L182.261 376.093
L182.707 375.145
L183.6 376.143
L184.046 375.028
L184.493 379.443
L184.939 379.479
L185.386 379.708
L185.832 378.928
L186.278 378.9
L186.725 379.589
L187.171 376.402
L187.618 372.023
L188.064 379.602
L188.51 376.193
L188.957 376.611
L189.85 375.1
L190.296 372.194
L190.742 378.786
L191.189 375.18
L191.635 376.508
L192.082 375.85
L192.528 379.099
L192.974 375.7
L193.421 379.225
L193.867 378.305
L194.314 376.277
L194.76 382.316
L195.206 375.105
L195.653 376.737
L196.099 373.929
L196.546 378.428
L196.992 379.548
L197.438 378.367
L197.885 374.771
L198.331 373.478
L198.778 376.712
L199.224 378.516
L199.67 376.61
L200.117 378.491
L200.563 379.225
L201.01 375.72
L201.456 377.982
L201.902 375.323
L202.349 374.113
L202.795 375.388
L203.242 378.634
L203.688 373.894
L204.581 378.925
L205.027 378.618
L205.474 378.547
L205.92 378.243
L206.366 375.99
L206.813 375.607
L207.259 374.821
L207.706 378.866
L208.152 374.604
L208.598 376.255
L209.045 379.288
L209.491 379.239
L209.938 378.45
L210.384 375.758
L210.83 382.483
L211.277 376.298
L211.723 372.194
L212.616 377.178
L213.062 373.994
L213.509 374.114
L213.955 376.853
L214.848 378.607
L215.294 376.798
L215.741 375.929
L216.187 379.055
L217.08 376.07
L217.526 379.84
L217.973 376.096
L218.419 379.023
L218.866 375.083
L219.312 375.921
L219.758 374.921
L220.205 378.362
L220.651 373.93
L221.098 376.438
L221.544 376.078
L222.437 378.543
L222.883 374.327
L223.33 374.029
L223.776 379.153
L224.222 379.981
L224.669 375.913
L225.115 374.668
L225.562 378.916
L226.454 375.786
L226.901 378.26
L227.347 380.08
L227.794 376.794
L228.24 378.493
L228.686 375.244
L229.133 379.308
L229.579 374.445
L230.026 375.692
L230.472 372.991
L230.918 373.648
L231.365 377.592
L231.811 373.944
L232.258 380.405
L232.704 379.135
L233.15 373.737
L233.597 375.121
L234.043 379.622
L234.49 375.912
L234.936 378.285
L235.382 375.191
L235.829 375.896
L236.275 378.538
L236.722 378.814
L237.168 379.272
L237.614 379.561
L238.061 379.615
L238.507 375.896
L238.954 379.798
L239.4 376.031
L239.846 375.89
L240.293 369.797
L240.739 373.412
L241.186 373.664
L241.632 376.986
L242.078 375.461
L242.525 377.994
L242.971 377.858
L243.418 375.18
L243.864 376.982
L244.31 375.857
L244.757 380.342
L245.203 379.098
L245.65 371.96
L246.096 382.45
L246.542 373.39
L246.989 374.332
L247.435 378.577
L247.882 379.495
L248.328 371.971
L248.774 381.337
L249.221 378.855
L249.667 378.472
L250.114 379.795
L250.56 378.579
L251.006 376.271
L251.453 378.796
L251.899 379.243
L252.346 374.233
L252.792 379.147
L253.238 374.129
L253.685 374.835
L254.131 373.689
L254.578 375.405
L255.024 376.655
L255.917 371.613
L256.363 377.539
L256.81 374.948
L257.256 375.549
L257.702 375.915
L258.149 375.903
L258.595 379.066
L259.488 379.356
L259.934 375.211
L260.381 375.751
L260.827 375.346
L261.274 376.368
L261.72 376.056
L262.166 373.499
L262.613 375.67
L263.059 374.797
L263.506 375.595
L263.952 375.636
L264.398 372.465
L264.845 378.497
L265.291 379.529
L265.738 379.308
L266.184 373.195
L266.63 379.839
L267.077 375.881
L267.523 377.734
L267.97 378.365
L268.416 374.859
L268.862 378.271
L269.309 378.66
L269.755 376.101
L270.648 379.41
L271.094 372.462
L271.541 381.778
L271.987 371.607
L272.434 376.926
L272.88 378.289
L273.326 378.936
L273.773 376.258
L274.219 378.897
L274.666 378.674
L275.112 374.414
L275.558 377.624
L276.005 375.887
L276.451 378.09
L276.898 375.884
L277.344 374.457
L277.79 377.731
L278.237 378.286
L279.13 379.798
L279.576 377.949
L280.022 379.147
L280.469 374.052
L280.915 380.654
L281.362 371.77
L281.808 378.535
L282.254 376.446
L282.701 377.992
L283.147 375.649
L283.594 376.501
L284.04 375.298
L284.486 379.394
L284.933 378.982
L285.379 379.781
L286.272 375.427
L286.718 374.688
L287.165 372.577
L287.611 381.423
L288.058 373.735
L288.504 372.66
L288.95 377.984
L289.397 379.007
L289.843 376.508
L290.29 378.426
L290.736 376.043
L291.629 379.014
L292.075 378.968
L292.522 374.18
L292.968 378.884
L293.414 378.867
L294.307 373.248
L294.754 379.245
L295.2 374.333
L295.646 373.22
L296.093 377.111
L296.539 375.524
L296.986 374.814
L297.432 378.622
L297.878 377.968
L298.325 379.596
L298.771 377.843
L299.218 374.866
L299.664 378.402
L300.11 379.393
L300.557 379.312
L301.003 375.645
L301.45 379.629
L301.896 378.776
L302.342 379.225
L302.789 374.669
L303.235 379.674
L303.682 378.11
L304.128 378.414
L304.574 379.88
L305.021 377.88
L305.914 379.541
L306.36 375.314
L306.806 379.804
L307.253 371.946
L307.699 382.475
L308.146 375.613
L308.592 376.957
L309.038 376.276
L309.485 374.115
L309.931 380.271
L310.378 370.977
L310.824 373.012
L311.27 378.597
L311.717 381.413
L312.163 374.419
L313.056 378.852
L313.502 375.096
L313.949 379.726
L314.842 377.835
L315.288 379.286
L315.734 379.937
L316.181 375.557
L316.627 379.506
L317.074 378.761
L317.966 371.926
L318.413 379.673
L318.859 370.99
L319.306 377.901
L319.752 377.96
L320.198 377.679
L321.091 379.182
L321.538 372.004
L321.984 369.854
L322.877 379.153
L323.323 374.082
L323.77 380.006
L324.216 371.449
L324.662 376.222
L325.109 372.939
L325.555 374.495
L326.002 379.198
L326.448 374.177
L326.894 373.334
L327.341 378.441
L327.787 379.487
L328.234 375.431
L328.68 378.375
L329.126 378.733
L329.573 376.009
L330.019 378.422
L330.466 375.49
L330.912 373.877
L331.358 379.731
L331.805 378.458
L332.251 378.528
L332.698 374.811
L333.144 380.527
L333.59 376.692
L334.037 378.743
L334.483 370.489
L334.93 373.98
L335.376 374.091
L335.822 378.581
L336.269 374.936
L336.715 375.383
L337.162 378.135
L337.608 379.295
L338.054 379.711
L338.501 379.015
L338.947 378.039
L339.394 374.42
L339.84 375.265
L340.286 375.4
L340.733 378.698
L341.179 376.426
L341.626 372.116
L342.072 376.448
L342.518 374.712
L342.965 372.305
L343.411 366.797
L343.858 374.926
L344.304 374.534
L344.75 370.872
L345.197 358.176
L345.643 340.853
L346.09 371.843
L346.536 373.454
L346.982 374.275
L347.429 374.844
L347.875 377.419
L348.768 372.583
L349.214 374.681
L349.661 378.135
L350.107 378.661
L350.554 378.089
L351 373.84
L351.446 374.921
L351.893 378.447
L352.339 370.065
L352.786 372.299
L353.232 370.518
L353.678 369.726
L354.125 366.43
L354.571 373.701
L355.464 376.436
L355.91 374.212
L356.357 378.446
L356.803 374.914
L357.25 378.475
L357.696 374.42
L358.142 379.142
L358.589 378.329
L359.035 379.892
L359.482 373.88
L359.928 378.496
L360.374 377.816
L360.821 370.079
L361.267 381.691
L361.714 373.487
L362.16 374.512
L362.606 378.65
L363.053 377.127
L363.499 376.562
L363.946 374.564
L364.392 374.925
L364.838 378.244
L365.285 375.601
L365.731 374.441
L366.178 377.658
L366.624 377.779
L367.07 378.431
L367.517 378.499
L367.963 377.66
L368.41 375.662
L368.856 373.149
L369.302 381.964
L369.749 372.098
L370.195 380.423
L370.642 372.305
L371.088 378.216
L371.534 378.812
L371.981 374.998
L372.427 378.001
L372.874 375.152
L373.32 378.212
L373.766 375.079
L374.213 378.377
L374.659 377.596
L375.106 374.033
L375.552 377.917
L375.998 374.637
L376.445 377.961
L376.891 378.775
L377.338 378.91
L377.784 379.475
L378.23 375.667
L378.677 381.958
L379.123 374.361
L379.57 375.002
L380.016 372.554
L380.462 376.493
L380.909 378.317
L381.355 379.347
L381.802 377.517
L382.248 378.533
L382.694 377.882
L383.141 378.083
L384.034 377.35
L384.48 379.518
L385.373 377.504
L385.819 378.601
L386.266 374.705
L386.712 379.31
L387.158 374.375
L387.605 379.562
L388.051 372.698
L388.498 380.906
L388.944 379.548
L389.39 379.15
L389.837 379.58
L390.283 374.686
L390.73 379.012
L391.176 377.762
L391.622 378.078
L392.069 378.561
L392.515 379.928
L392.962 375.667
L393.408 376.167
L393.854 375.351
L394.301 376.893
L394.747 377.6
L395.194 378.96
L395.64 378.706
L396.086 379.512
L396.533 377.232
L396.979 375.953
L397.426 378.459
L397.872 372.521
L398.318 378.546
L398.765 378.501
L399.211 377.056
L399.658 379.621
L400.104 377.185
L400.55 377.817
L400.997 377.162
L401.443 374.478
L401.89 378.778
L402.336 376.363
L402.782 378.675
L403.229 378.715
L403.675 372.682
L404.122 378.171
L404.568 379.11
L405.014 379.559
L405.461 379.095
L405.907 379.965
L406.354 378.644
L406.8 372.406
L407.246 378.806
L407.693 372.081
L408.139 374.168
L408.586 379.264
L409.032 379.064
L409.478 378.308
L409.925 378.926
L410.371 374.345
L410.818 376.152
L411.264 374.929
L411.71 374.171
L412.157 378.344
L412.603 377.894
L413.496 365.233
L413.942 366.69
L414.835 373.473
L415.282 373.911
L415.728 374.833
L416.174 374.646
L416.621 357.965
L417.067 370.939
L417.514 371.636
L417.96 350.438
L418.406 375.401
L418.853 374.904
L419.299 375.589
L419.746 366.8
L420.192 368.628
L420.638 375.515
L421.085 373.29
L421.531 375.751
L421.978 377.367
L422.424 376.556
L422.87 373.531
L423.317 376.546
L423.763 377.556
L424.21 377.794
L424.656 375.462
L425.102 371.009
L425.549 377.222
L425.995 373.333
L426.442 376.574
L426.888 373.094
L427.334 353.546
L427.781 367.955
L428.227 364.124
L428.674 372.06
L429.12 377.16
L429.566 374.335
L430.013 374.293
L430.459 372.047
L430.906 381.535
L431.352 376.455
L431.798 375.079
L432.245 377.653
L432.691 375.421
L433.138 376.833
L433.584 376.703
L434.03 377.022
L434.477 374.622
L434.923 373.629
L435.816 356.227
L436.262 358.727
L436.709 347.921
L437.155 356.928
L437.602 372.033
L438.048 360.429
L438.494 358.292
L438.941 367.929
L439.387 369.239
L439.834 375.95
L440.28 372.392
L440.726 373.789
L441.173 372.996
L441.619 370.756
L442.066 377.097
L442.512 369.512
L442.958 374.925
L443.405 375.076
L443.851 374.984
L444.298 372.829
L444.744 373.072
L445.19 375.448
L445.637 371.14
L446.083 374.447
L446.53 372.074
L446.976 373.106
L447.422 374.474
L447.869 366.902
L448.315 342.788
L448.762 339.557
L449.208 351.803
L449.654 369.762
L450.101 370.503
L450.547 363.424
L450.994 371.127
L451.44 375.115
L451.886 363.867
L452.333 361.786
L452.779 374.157
L453.226 374.544
L453.672 376.072
L454.118 375.993
L454.565 374.319
L455.011 376.165
L455.458 373.255
L455.904 377.144
L456.35 377.127
L456.797 373.215
L457.243 372.14
L458.136 375.8
L458.582 377.977
L459.475 370.564
L459.922 350.229
L460.368 357.936
L460.814 371.837
L461.261 372.388
L461.707 369.067
L462.154 362.111
L462.6 374.176
L463.046 375.563
L463.493 372.776
L463.939 374.506
L464.386 373.569
L464.832 375.977
L465.278 374.467
L465.725 374.78
L466.171 372.69
L466.618 363.44
L467.064 360.386
L468.403 377.745
L468.85 364.933
L469.296 368.894
L469.742 373.907
L470.189 359.858
L470.635 361.632
L471.082 360.886
L471.528 345.538
L471.974 365.662
L472.421 370.45
L472.867 367.012
L473.314 369.831
L473.76 375.549
L474.206 374.009
L474.653 359.945
L475.099 375.069
L475.546 372.067
L475.992 372.501
L476.438 376.934
L476.885 375.182
L477.331 369.887
L478.224 377.033
L478.67 376.532
L479.117 372.509
L479.563 375.844
L480.01 372.916
L480.456 374.425
L480.902 373.326
L481.349 375.839
L481.795 374.033
L482.242 370.895
L482.688 345.654
L483.134 348.707
L483.581 368.946
L484.027 372.124
L484.474 367.955
L484.92 372.363
L485.366 373.982
L486.259 375.882
L486.706 376.474
L487.152 374.984
L487.598 371.551
L488.045 374.44
L488.491 375.069
L488.938 360.52
L489.384 368.021
L489.83 367.417
L490.277 370.52
L490.723 374.67
L491.17 370.308
L491.616 371.75
L492.062 363.303
L492.509 376.468
L492.955 371.036
L493.402 369.772
L493.848 350.152
L494.741 372.399
L495.187 372.246
L495.634 368.268
L496.08 370.773
L496.526 365.808
L496.973 364.56
L497.419 371.442
L497.866 370.097
L498.758 373.676
L499.205 373.423
L499.651 368.656
L500.098 374.989
L500.544 374.433
L500.99 376.548
L501.437 375.858
L501.883 374.012
L502.33 355.65
L502.776 372.723
L503.222 372.086
L503.669 374.593
L504.115 371.513
L504.562 374.725
L505.008 372.815
L505.454 356.473
L505.901 353.945
L506.347 366.061
L506.794 369.118
L507.24 374.257
L507.686 372.498
L508.133 357.633
L508.579 372.838
L509.026 372.174
L509.918 368.143
L510.365 364.073
L510.811 377.9
L511.258 374.724
L512.15 372.764
L512.597 345.038
L513.043 373.647
L513.49 374.863
L513.936 373.008
L514.382 363.12
L514.829 373.259
L515.275 372.245
L515.722 370.278
L516.168 350.952
L516.614 310.879
L517.061 363.658
L517.507 370.634
L517.954 350.656
L517.954 350.656" style="fill:none;opacity:0.5;stroke:#0000ff;"/>
   </g>
   <g id="matplotlib.axis_1">
    <g id="xtick_1">
     <g id="line2d_5">
      <path clip-path="url(#p7ff5b81e1d)" d="
M72 388.8
L72 43.2" style="fill:none;stroke:#000000;stroke-dasharray:1.000000,3.000000;stroke-dashoffset:0.0;stroke-linecap:butt;stroke-width:0.5;"/>
     </g>
     <g id="line2d_6">
      <defs>
       <path d="
M0 0
L0 -4" id="m0012dd4eef" style="stroke:#000000;stroke-linecap:butt;stroke-width:0.5;"/>
      </defs>
      <g>
       <use style="stroke:#000000;stroke-linecap:butt;stroke-width:0.5;" x="72.0" xlink:href="#m0012dd4eef" y="388.8"/>
      </g>
     </g>
     <g id="line2d_7">
      <defs>
       <path d="
M0 0
L0 4" id="m476344969c" style="stroke:#000000;stroke-linecap:butt;stroke-width:0.5;"/>
      </defs>
      <g>
       <use style="stroke:#000000;stroke-linecap:butt;stroke-width:0.5;" x="72.0" xlink:href="#m476344969c" y="43.2"/>
      </g>
     </g>
     <g id="text_1">
      <!-- 0 -->
      <defs>
       <path d="
M31.7812 66.4062
Q24.1719 66.4062 20.3281 58.9062
Q16.5 51.4219 16.5 36.375
Q16.5 21.3906 20.3281 13.8906
Q24.1719 6.39062 31.7812 6.39062
Q39.4531 6.39062 43.2812 13.8906
Q47.125 21.3906 47.125 36.375
Q47.125 51.4219 43.2812 58.9062
Q39.4531 66.4062 31.7812 66.4062
M31.7812 74.2188
Q44.0469 74.2188 50.5156 64.5156
Q56.9844 54.8281 56.9844 36.375
Q56.9844 17.9688 50.5156 8.26562
Q44.0469 -1.42188 31.7812 -1.42188
Q19.5312 -1.42188 13.0625 8.26562
Q6.59375 17.9688 6.59375 36.375
Q6.59375 54.8281 13.0625 64.5156
Q19.5312 74.2188 31.7812 74.2188" id="BitstreamVeraSans-Roman-30"/>
      </defs>
      <g transform="translate(68.9765625 401.70625)scale(0.12 -0.12)">
       <use xlink:href="#BitstreamVeraSans-Roman-30"/>
      </g>
     </g>
    </g>
    <g id="xtick_2">
     <g id="line2d_8">
      <path clip-path="url(#p7ff5b81e1d)" d="
M116.64 388.8
L116.64 43.2" style="fill:none;stroke:#000000;stroke-dasharray:1.000000,3.000000;stroke-dashoffset:0.0;stroke-linecap:butt;stroke-width:0.5;"/>
     </g>
     <g id="line2d_9">
      <g>
       <use style="stroke:#000000;stroke-linecap:butt;stroke-width:0.5;" x="116.64" xlink:href="#m0012dd4eef" y="388.8"/>
      </g>
     </g>
     <g id="line2d_10">
      <g>
       <use style="stroke:#000000;stroke-linecap:butt;stroke-width:0.5;" x="116.64" xlink:href="#m476344969c" y="43.2"/>
      </g>
     </g>
     <g id="text_2">
      <!-- 100 -->
      <defs>
       <path d="
M12.4062 8.29688
L28.5156 8.29688
L28.5156 63.9219
L10.9844 60.4062
L10.9844 69.3906
L28.4219 72.9062
L38.2812 72.9062
L38.2812 8.29688
L54.3906 8.29688
L54.3906 0
L12.4062 0
z
" id="BitstreamVeraSans-Roman-31"/>
      </defs>
      <g transform="translate(106.245 401.70625)scale(0.12 -0.12)">
       <use xlink:href="#BitstreamVeraSans-Roman-31"/>
       <use x="63.623046875" xlink:href="#BitstreamVeraSans-Roman-30"/>
       <use x="127.24609375" xlink:href="#BitstreamVeraSans-Roman-30"/>
      </g>
     </g>
    </g>
    <g id="xtick_3">
     <g id="line2d_11">
      <path clip-path="url(#p7ff5b81e1d)" d="
M161.28 388.8
L161.28 43.2" style="fill:none;stroke:#000000;stroke-dasharray:1.000000,3.000000;stroke-dashoffset:0.0;stroke-linecap:butt;stroke-width:0.5;"/>
     </g>
     <g id="line2d_12">
      <g>
       <use style="stroke:#000000;stroke-linecap:butt;stroke-width:0.5;" x="161.28" xlink:href="#m0012dd4eef" y="388.8"/>
      </g>
     </g>
     <g id="line2d_13">
      <g>
       <use style="stroke:#000000;stroke-linecap:butt;stroke-width:0.5;" x="161.28" xlink:href="#m476344969c" y="43.2"/>
      </g>
     </g>
     <g id="text_3">
      <!-- 200 -->
      <defs>
       <path d="
M19.1875 8.29688
L53.6094 8.29688
L53.6094 0
L7.32812 0
L7.32812 8.29688
Q12.9375 14.1094 22.625 23.8906
Q32.3281 33.6875 34.8125 36.5312
Q39.5469 41.8438 41.4219 45.5312
Q43.3125 49.2188 43.3125 52.7812
Q43.3125 58.5938 39.2344 62.25
Q35.1562 65.9219 28.6094 65.9219
Q23.9688 65.9219 18.8125 64.3125
Q13.6719 62.7031 7.8125 59.4219
L7.8125 69.3906
Q13.7656 71.7812 18.9375 73
Q24.125 74.2188 28.4219 74.2188
Q39.75 74.2188 46.4844 68.5469
Q53.2188 62.8906 53.2188 53.4219
Q53.2188 48.9219 51.5312 44.8906
Q49.8594 40.875 45.4062 35.4062
Q44.1875 33.9844 37.6406 27.2188
Q31.1094 20.4531 19.1875 8.29688" id="BitstreamVeraSans-Roman-32"/>
      </defs>
      <g transform="translate(150.665625 401.70625)scale(0.12 -0.12)">
       <use xlink:href="#BitstreamVeraSans-Roman-32"/>
       <use x="63.623046875" xlink:href="#BitstreamVeraSans-Roman-30"/>
       <use x="127.24609375" xlink:href="#BitstreamVeraSans-Roman-30"/>
      </g>
     </g>
    </g>
    <g id="xtick_4">
     <g id="line2d_14">
      <path clip-path="url(#p7ff5b81e1d)" d="
M205.92 388.8
L205.92 43.2" style="fill:none;stroke:#000000;stroke-dasharray:1.000000,3.000000;stroke-dashoffset:0.0;stroke-linecap:butt;stroke-width:0.5;"/>
     </g>
     <g id="line2d_15">
      <g>
       <use style="stroke:#000000;stroke-linecap:butt;stroke-width:0.5;" x="205.92" xlink:href="#m0012dd4eef" y="388.8"/>
      </g>
     </g>
     <g id="line2d_16">
      <g>
       <use style="stroke:#000000;stroke-linecap:butt;stroke-width:0.5;" x="205.92" xlink:href="#m476344969c" y="43.2"/>
      </g>
     </g>
     <g id="text_4">
      <!-- 300 -->
      <defs>
       <path d="
M40.5781 39.3125
Q47.6562 37.7969 51.625 33
Q55.6094 28.2188 55.6094 21.1875
Q55.6094 10.4062 48.1875 4.48438
Q40.7656 -1.42188 27.0938 -1.42188
Q22.5156 -1.42188 17.6562 -0.515625
Q12.7969 0.390625 7.625 2.20312
L7.625 11.7188
Q11.7188 9.32812 16.5938 8.10938
Q21.4844 6.89062 26.8125 6.89062
Q36.0781 6.89062 40.9375 10.5469
Q45.7969 14.2031 45.7969 21.1875
Q45.7969 27.6406 41.2812 31.2656
Q36.7656 34.9062 28.7188 34.9062
L20.2188 34.9062
L20.2188 43.0156
L29.1094 43.0156
Q36.375 43.0156 40.2344 45.9219
Q44.0938 48.8281 44.0938 54.2969
Q44.0938 59.9062 40.1094 62.9062
Q36.1406 65.9219 28.7188 65.9219
Q24.6562 65.9219 20.0156 65.0312
Q15.375 64.1562 9.8125 62.3125
L9.8125 71.0938
Q15.4375 72.6562 20.3438 73.4375
Q25.25 74.2188 29.5938 74.2188
Q40.8281 74.2188 47.3594 69.1094
Q53.9062 64.0156 53.9062 55.3281
Q53.9062 49.2656 50.4375 45.0938
Q46.9688 40.9219 40.5781 39.3125" id="BitstreamVeraSans-Roman-33"/>
      </defs>
      <g transform="translate(195.3234375 401.70625)scale(0.12 -0.12)">
       <use xlink:href="#BitstreamVeraSans-Roman-33"/>
       <use x="63.623046875" xlink:href="#BitstreamVeraSans-Roman-30"/>
       <use x="127.24609375" xlink:href="#BitstreamVeraSans-Roman-30"/>
      </g>
     </g>
    </g>
    <g id="xtick_5">
     <g id="line2d_17">
      <path clip-path="url(#p7ff5b81e1d)" d="
M250.56 388.8
L250.56 43.2" style="fill:none;stroke:#000000;stroke-dasharray:1.000000,3.000000;stroke-dashoffset:0.0;stroke-linecap:butt;stroke-width:0.5;"/>
     </g>
     <g id="line2d_18">
      <g>
       <use style="stroke:#000000;stroke-linecap:butt;stroke-width:0.5;" x="250.56" xlink:href="#m0012dd4eef" y="388.8"/>
      </g>
     </g>
     <g id="line2d_19">
      <g>
       <use style="stroke:#000000;stroke-linecap:butt;stroke-width:0.5;" x="250.56" xlink:href="#m476344969c" y="43.2"/>
      </g>
     </g>
     <g id="text_5">
      <!-- 400 -->
      <defs>
       <path d="
M37.7969 64.3125
L12.8906 25.3906
L37.7969 25.3906
z

M35.2031 72.9062
L47.6094 72.9062
L47.6094 25.3906
L58.0156 25.3906
L58.0156 17.1875
L47.6094 17.1875
L47.6094 0
L37.7969 0
L37.7969 17.1875
L4.89062 17.1875
L4.89062 26.7031
z
" id="BitstreamVeraSans-Roman-34"/>
      </defs>
      <g transform="translate(239.799375 401.70625)scale(0.12 -0.12)">
       <use xlink:href="#BitstreamVeraSans-Roman-34"/>
       <use x="63.623046875" xlink:href="#BitstreamVeraSans-Roman-30"/>
       <use x="127.24609375" xlink:href="#BitstreamVeraSans-Roman-30"/>
      </g>
     </g>
    </g>
    <g id="xtick_6">
     <g id="line2d_20">
      <path clip-path="url(#p7ff5b81e1d)" d="
M295.2 388.8
L295.2 43.2" style="fill:none;stroke:#000000;stroke-dasharray:1.000000,3.000000;stroke-dashoffset:0.0;stroke-linecap:butt;stroke-width:0.5;"/>
     </g>
     <g id="line2d_21">
      <g>
       <use style="stroke:#000000;stroke-linecap:butt;stroke-width:0.5;" x="295.2" xlink:href="#m0012dd4eef" y="388.8"/>
      </g>
     </g>
     <g id="line2d_22">
      <g>
       <use style="stroke:#000000;stroke-linecap:butt;stroke-width:0.5;" x="295.2" xlink:href="#m476344969c" y="43.2"/>
      </g>
     </g>
     <g id="text_6">
      <!-- 500 -->
      <defs>
       <path d="
M10.7969 72.9062
L49.5156 72.9062
L49.5156 64.5938
L19.8281 64.5938
L19.8281 46.7344
Q21.9688 47.4688 24.1094 47.8281
Q26.2656 48.1875 28.4219 48.1875
Q40.625 48.1875 47.75 41.5
Q54.8906 34.8125 54.8906 23.3906
Q54.8906 11.625 47.5625 5.09375
Q40.2344 -1.42188 26.9062 -1.42188
Q22.3125 -1.42188 17.5469 -0.640625
Q12.7969 0.140625 7.71875 1.70312
L7.71875 11.625
Q12.1094 9.23438 16.7969 8.0625
Q21.4844 6.89062 26.7031 6.89062
Q35.1562 6.89062 40.0781 11.3281
Q45.0156 15.7656 45.0156 23.3906
Q45.0156 31 40.0781 35.4375
Q35.1562 39.8906 26.7031 39.8906
Q22.75 39.8906 18.8125 39.0156
Q14.8906 38.1406 10.7969 36.2812
z
" id="BitstreamVeraSans-Roman-35"/>
      </defs>
      <g transform="translate(284.6090625 401.70625)scale(0.12 -0.12)">
       <use xlink:href="#BitstreamVeraSans-Roman-35"/>
       <use x="63.623046875" xlink:href="#BitstreamVeraSans-Roman-30"/>
       <use x="127.24609375" xlink:href="#BitstreamVeraSans-Roman-30"/>
      </g>
     </g>
    </g>
    <g id="xtick_7">
     <g id="line2d_23">
      <path clip-path="url(#p7ff5b81e1d)" d="
M339.84 388.8
L339.84 43.2" style="fill:none;stroke:#000000;stroke-dasharray:1.000000,3.000000;stroke-dashoffset:0.0;stroke-linecap:butt;stroke-width:0.5;"/>
     </g>
     <g id="line2d_24">
      <g>
       <use style="stroke:#000000;stroke-linecap:butt;stroke-width:0.5;" x="339.84" xlink:href="#m0012dd4eef" y="388.8"/>
      </g>
     </g>
     <g id="line2d_25">
      <g>
       <use style="stroke:#000000;stroke-linecap:butt;stroke-width:0.5;" x="339.84" xlink:href="#m476344969c" y="43.2"/>
      </g>
     </g>
     <g id="text_7">
      <!-- 600 -->
      <defs>
       <path d="
M33.0156 40.375
Q26.375 40.375 22.4844 35.8281
Q18.6094 31.2969 18.6094 23.3906
Q18.6094 15.5312 22.4844 10.9531
Q26.375 6.39062 33.0156 6.39062
Q39.6562 6.39062 43.5312 10.9531
Q47.4062 15.5312 47.4062 23.3906
Q47.4062 31.2969 43.5312 35.8281
Q39.6562 40.375 33.0156 40.375
M52.5938 71.2969
L52.5938 62.3125
Q48.875 64.0625 45.0938 64.9844
Q41.3125 65.9219 37.5938 65.9219
Q27.8281 65.9219 22.6719 59.3281
Q17.5312 52.7344 16.7969 39.4062
Q19.6719 43.6562 24.0156 45.9219
Q28.375 48.1875 33.5938 48.1875
Q44.5781 48.1875 50.9531 41.5156
Q57.3281 34.8594 57.3281 23.3906
Q57.3281 12.1562 50.6875 5.35938
Q44.0469 -1.42188 33.0156 -1.42188
Q20.3594 -1.42188 13.6719 8.26562
Q6.98438 17.9688 6.98438 36.375
Q6.98438 53.6562 15.1875 63.9375
Q23.3906 74.2188 37.2031 74.2188
Q40.9219 74.2188 44.7031 73.4844
Q48.4844 72.75 52.5938 71.2969" id="BitstreamVeraSans-Roman-36"/>
      </defs>
      <g transform="translate(329.205 401.70625)scale(0.12 -0.12)">
       <use xlink:href="#BitstreamVeraSans-Roman-36"/>
       <use x="63.623046875" xlink:href="#BitstreamVeraSans-Roman-30"/>
       <use x="127.24609375" xlink:href="#BitstreamVeraSans-Roman-30"/>
      </g>
     </g>
    </g>
    <g id="xtick_8">
     <g id="line2d_26">
      <path clip-path="url(#p7ff5b81e1d)" d="
M384.48 388.8
L384.48 43.2" style="fill:none;stroke:#000000;stroke-dasharray:1.000000,3.000000;stroke-dashoffset:0.0;stroke-linecap:butt;stroke-width:0.5;"/>
     </g>
     <g id="line2d_27">
      <g>
       <use style="stroke:#000000;stroke-linecap:butt;stroke-width:0.5;" x="384.48" xlink:href="#m0012dd4eef" y="388.8"/>
      </g>
     </g>
     <g id="line2d_28">
      <g>
       <use style="stroke:#000000;stroke-linecap:butt;stroke-width:0.5;" x="384.48" xlink:href="#m476344969c" y="43.2"/>
      </g>
     </g>
     <g id="text_8">
      <!-- 700 -->
      <defs>
       <path d="
M8.20312 72.9062
L55.0781 72.9062
L55.0781 68.7031
L28.6094 0
L18.3125 0
L43.2188 64.5938
L8.20312 64.5938
z
" id="BitstreamVeraSans-Roman-37"/>
      </defs>
      <g transform="translate(373.918125 401.70625)scale(0.12 -0.12)">
       <use xlink:href="#BitstreamVeraSans-Roman-37"/>
       <use x="63.623046875" xlink:href="#BitstreamVeraSans-Roman-30"/>
       <use x="127.24609375" xlink:href="#BitstreamVeraSans-Roman-30"/>
      </g>
     </g>
    </g>
    <g id="xtick_9">
     <g id="line2d_29">
      <path clip-path="url(#p7ff5b81e1d)" d="
M429.12 388.8
L429.12 43.2" style="fill:none;stroke:#000000;stroke-dasharray:1.000000,3.000000;stroke-dashoffset:0.0;stroke-linecap:butt;stroke-width:0.5;"/>
     </g>
     <g id="line2d_30">
      <g>
       <use style="stroke:#000000;stroke-linecap:butt;stroke-width:0.5;" x="429.12" xlink:href="#m0012dd4eef" y="388.8"/>
      </g>
     </g>
     <g id="line2d_31">
      <g>
       <use style="stroke:#000000;stroke-linecap:butt;stroke-width:0.5;" x="429.12" xlink:href="#m476344969c" y="43.2"/>
      </g>
     </g>
     <g id="text_9">
      <!-- 800 -->
      <defs>
       <path d="
M31.7812 34.625
Q24.75 34.625 20.7188 30.8594
Q16.7031 27.0938 16.7031 20.5156
Q16.7031 13.9219 20.7188 10.1562
Q24.75 6.39062 31.7812 6.39062
Q38.8125 6.39062 42.8594 10.1719
Q46.9219 13.9688 46.9219 20.5156
Q46.9219 27.0938 42.8906 30.8594
Q38.875 34.625 31.7812 34.625
M21.9219 38.8125
Q15.5781 40.375 12.0312 44.7188
Q8.5 49.0781 8.5 55.3281
Q8.5 64.0625 14.7188 69.1406
Q20.9531 74.2188 31.7812 74.2188
Q42.6719 74.2188 48.875 69.1406
Q55.0781 64.0625 55.0781 55.3281
Q55.0781 49.0781 51.5312 44.7188
Q48 40.375 41.7031 38.8125
Q48.8281 37.1562 52.7969 32.3125
Q56.7812 27.4844 56.7812 20.5156
Q56.7812 9.90625 50.3125 4.23438
Q43.8438 -1.42188 31.7812 -1.42188
Q19.7344 -1.42188 13.25 4.23438
Q6.78125 9.90625 6.78125 20.5156
Q6.78125 27.4844 10.7812 32.3125
Q14.7969 37.1562 21.9219 38.8125
M18.3125 54.3906
Q18.3125 48.7344 21.8438 45.5625
Q25.3906 42.3906 31.7812 42.3906
Q38.1406 42.3906 41.7188 45.5625
Q45.3125 48.7344 45.3125 54.3906
Q45.3125 60.0625 41.7188 63.2344
Q38.1406 66.4062 31.7812 66.4062
Q25.3906 66.4062 21.8438 63.2344
Q18.3125 60.0625 18.3125 54.3906" id="BitstreamVeraSans-Roman-38"/>
      </defs>
      <g transform="translate(418.4728125 401.70625)scale(0.12 -0.12)">
       <use xlink:href="#BitstreamVeraSans-Roman-38"/>
       <use x="63.623046875" xlink:href="#BitstreamVeraSans-Roman-30"/>
       <use x="127.24609375" xlink:href="#BitstreamVeraSans-Roman-30"/>
      </g>
     </g>
    </g>
    <g id="xtick_10">
     <g id="line2d_32">
      <path clip-path="url(#p7ff5b81e1d)" d="
M473.76 388.8
L473.76 43.2" style="fill:none;stroke:#000000;stroke-dasharray:1.000000,3.000000;stroke-dashoffset:0.0;stroke-linecap:butt;stroke-width:0.5;"/>
     </g>
     <g id="line2d_33">
      <g>
       <use style="stroke:#000000;stroke-linecap:butt;stroke-width:0.5;" x="473.76" xlink:href="#m0012dd4eef" y="388.8"/>
      </g>
     </g>
     <g id="line2d_34">
      <g>
       <use style="stroke:#000000;stroke-linecap:butt;stroke-width:0.5;" x="473.76" xlink:href="#m476344969c" y="43.2"/>
      </g>
     </g>
     <g id="text_10">
      <!-- 900 -->
      <defs>
       <path d="
M10.9844 1.51562
L10.9844 10.5
Q14.7031 8.73438 18.5 7.8125
Q22.3125 6.89062 25.9844 6.89062
Q35.75 6.89062 40.8906 13.4531
Q46.0469 20.0156 46.7812 33.4062
Q43.9531 29.2031 39.5938 26.9531
Q35.25 24.7031 29.9844 24.7031
Q19.0469 24.7031 12.6719 31.3125
Q6.29688 37.9375 6.29688 49.4219
Q6.29688 60.6406 12.9375 67.4219
Q19.5781 74.2188 30.6094 74.2188
Q43.2656 74.2188 49.9219 64.5156
Q56.5938 54.8281 56.5938 36.375
Q56.5938 19.1406 48.4062 8.85938
Q40.2344 -1.42188 26.4219 -1.42188
Q22.7031 -1.42188 18.8906 -0.6875
Q15.0938 0.046875 10.9844 1.51562
M30.6094 32.4219
Q37.25 32.4219 41.125 36.9531
Q45.0156 41.5 45.0156 49.4219
Q45.0156 57.2812 41.125 61.8438
Q37.25 66.4062 30.6094 66.4062
Q23.9688 66.4062 20.0938 61.8438
Q16.2188 57.2812 16.2188 49.4219
Q16.2188 41.5 20.0938 36.9531
Q23.9688 32.4219 30.6094 32.4219" id="BitstreamVeraSans-Roman-39"/>
      </defs>
      <g transform="translate(463.08375 401.70625)scale(0.12 -0.12)">
       <use xlink:href="#BitstreamVeraSans-Roman-39"/>
       <use x="63.623046875" xlink:href="#BitstreamVeraSans-Roman-30"/>
       <use x="127.24609375" xlink:href="#BitstreamVeraSans-Roman-30"/>
      </g>
     </g>
    </g>
   </g>
   <g id="matplotlib.axis_2">
    <g id="ytick_1">
     <g id="line2d_35">
      <path clip-path="url(#p7ff5b81e1d)" d="
M72 388.8
L518.4 388.8" style="fill:none;stroke:#000000;stroke-dasharray:1.000000,3.000000;stroke-dashoffset:0.0;stroke-linecap:butt;stroke-width:0.5;"/>
     </g>
     <g id="line2d_36">
      <defs>
       <path d="
M0 0
L4 0" id="me8a85f7bf6" style="stroke:#000000;stroke-linecap:butt;stroke-width:0.5;"/>
      </defs>
      <g>
       <use style="stroke:#000000;stroke-linecap:butt;stroke-width:0.5;" x="72.0" xlink:href="#me8a85f7bf6" y="388.8"/>
      </g>
     </g>
     <g id="line2d_37">
      <defs>
       <path d="
M0 0
L-4 0" id="m1a32005dea" style="stroke:#000000;stroke-linecap:butt;stroke-width:0.5;"/>
      </defs>
      <g>
       <use style="stroke:#000000;stroke-linecap:butt;stroke-width:0.5;" x="518.4" xlink:href="#m1a32005dea" y="388.8"/>
      </g>
     </g>
     <g id="text_11">
      <!-- 0 -->
      <g transform="translate(61.953125 393.1678125)scale(0.12 -0.12)">
       <use xlink:href="#BitstreamVeraSans-Roman-30"/>
      </g>
     </g>
    </g>
    <g id="ytick_2">
     <g id="line2d_38">
      <path clip-path="url(#p7ff5b81e1d)" d="
M72 354.24
L518.4 354.24" style="fill:none;stroke:#000000;stroke-dasharray:1.000000,3.000000;stroke-dashoffset:0.0;stroke-linecap:butt;stroke-width:0.5;"/>
     </g>
     <g id="line2d_39">
      <g>
       <use style="stroke:#000000;stroke-linecap:butt;stroke-width:0.5;" x="72.0" xlink:href="#me8a85f7bf6" y="354.24"/>
      </g>
     </g>
     <g id="line2d_40">
      <g>
       <use style="stroke:#000000;stroke-linecap:butt;stroke-width:0.5;" x="518.4" xlink:href="#m1a32005dea" y="354.24"/>
      </g>
     </g>
     <g id="text_12">
      <!-- 2 -->
      <g transform="translate(62.44625 358.693125)scale(0.12 -0.12)">
       <use xlink:href="#BitstreamVeraSans-Roman-32"/>
      </g>
     </g>
    </g>
    <g id="ytick_3">
     <g id="line2d_41">
      <path clip-path="url(#p7ff5b81e1d)" d="
M72 319.68
L518.4 319.68" style="fill:none;stroke:#000000;stroke-dasharray:1.000000,3.000000;stroke-dashoffset:0.0;stroke-linecap:butt;stroke-width:0.5;"/>
     </g>
     <g id="line2d_42">
      <g>
       <use style="stroke:#000000;stroke-linecap:butt;stroke-width:0.5;" x="72.0" xlink:href="#me8a85f7bf6" y="319.68"/>
      </g>
     </g>
     <g id="line2d_43">
      <g>
       <use style="stroke:#000000;stroke-linecap:butt;stroke-width:0.5;" x="518.4" xlink:href="#m1a32005dea" y="319.68"/>
      </g>
     </g>
     <g id="text_13">
      <!-- 4 -->
      <g transform="translate(61.625 324.054375)scale(0.12 -0.12)">
       <use xlink:href="#BitstreamVeraSans-Roman-34"/>
      </g>
     </g>
    </g>
    <g id="ytick_4">
     <g id="line2d_44">
      <path clip-path="url(#p7ff5b81e1d)" d="
M72 285.12
L518.4 285.12" style="fill:none;stroke:#000000;stroke-dasharray:1.000000,3.000000;stroke-dashoffset:0.0;stroke-linecap:butt;stroke-width:0.5;"/>
     </g>
     <g id="line2d_45">
      <g>
       <use style="stroke:#000000;stroke-linecap:butt;stroke-width:0.5;" x="72.0" xlink:href="#me8a85f7bf6" y="285.12"/>
      </g>
     </g>
     <g id="line2d_46">
      <g>
       <use style="stroke:#000000;stroke-linecap:butt;stroke-width:0.5;" x="518.4" xlink:href="#m1a32005dea" y="285.12"/>
      </g>
     </g>
     <g id="text_14">
      <!-- 6 -->
      <g transform="translate(61.95875 289.4878125)scale(0.12 -0.12)">
       <use xlink:href="#BitstreamVeraSans-Roman-36"/>
      </g>
     </g>
    </g>
    <g id="ytick_5">
     <g id="line2d_47">
      <path clip-path="url(#p7ff5b81e1d)" d="
M72 250.56
L518.4 250.56" style="fill:none;stroke:#000000;stroke-dasharray:1.000000,3.000000;stroke-dashoffset:0.0;stroke-linecap:butt;stroke-width:0.5;"/>
     </g>
     <g id="line2d_48">
      <g>
       <use style="stroke:#000000;stroke-linecap:butt;stroke-width:0.5;" x="72.0" xlink:href="#me8a85f7bf6" y="250.56"/>
      </g>
     </g>
     <g id="line2d_49">
      <g>
       <use style="stroke:#000000;stroke-linecap:butt;stroke-width:0.5;" x="518.4" xlink:href="#m1a32005dea" y="250.56"/>
      </g>
     </g>
     <g id="text_15">
      <!-- 8 -->
      <g transform="translate(62.0 254.9278125)scale(0.12 -0.12)">
       <use xlink:href="#BitstreamVeraSans-Roman-38"/>
      </g>
     </g>
    </g>
    <g id="ytick_6">
     <g id="line2d_50">
      <path clip-path="url(#p7ff5b81e1d)" d="
M72 216
L518.4 216" style="fill:none;stroke:#000000;stroke-dasharray:1.000000,3.000000;stroke-dashoffset:0.0;stroke-linecap:butt;stroke-width:0.5;"/>
     </g>
     <g id="line2d_51">
      <g>
       <use style="stroke:#000000;stroke-linecap:butt;stroke-width:0.5;" x="72.0" xlink:href="#me8a85f7bf6" y="216.0"/>
      </g>
     </g>
     <g id="line2d_52">
      <g>
       <use style="stroke:#000000;stroke-linecap:butt;stroke-width:0.5;" x="518.4" xlink:href="#m1a32005dea" y="216.0"/>
      </g>
     </g>
     <g id="text_16">
      <!-- 10 -->
      <g transform="translate(54.845 220.3678125)scale(0.12 -0.12)">
       <use xlink:href="#BitstreamVeraSans-Roman-31"/>
       <use x="63.623046875" xlink:href="#BitstreamVeraSans-Roman-30"/>
      </g>
     </g>
    </g>
    <g id="ytick_7">
     <g id="line2d_53">
      <path clip-path="url(#p7ff5b81e1d)" d="
M72 181.44
L518.4 181.44" style="fill:none;stroke:#000000;stroke-dasharray:1.000000,3.000000;stroke-dashoffset:0.0;stroke-linecap:butt;stroke-width:0.5;"/>
     </g>
     <g id="line2d_54">
      <g>
       <use style="stroke:#000000;stroke-linecap:butt;stroke-width:0.5;" x="72.0" xlink:href="#me8a85f7bf6" y="181.44"/>
      </g>
     </g>
     <g id="line2d_55">
      <g>
       <use style="stroke:#000000;stroke-linecap:butt;stroke-width:0.5;" x="518.4" xlink:href="#m1a32005dea" y="181.44"/>
      </g>
     </g>
     <g id="text_17">
      <!-- 12 -->
      <g transform="translate(55.25 185.893125)scale(0.12 -0.12)">
       <use xlink:href="#BitstreamVeraSans-Roman-31"/>
       <use x="63.623046875" xlink:href="#BitstreamVeraSans-Roman-32"/>
      </g>
     </g>
    </g>
    <g id="ytick_8">
     <g id="line2d_56">
      <path clip-path="url(#p7ff5b81e1d)" d="
M72 146.88
L518.4 146.88" style="fill:none;stroke:#000000;stroke-dasharray:1.000000,3.000000;stroke-dashoffset:0.0;stroke-linecap:butt;stroke-width:0.5;"/>
     </g>
     <g id="line2d_57">
      <g>
       <use style="stroke:#000000;stroke-linecap:butt;stroke-width:0.5;" x="72.0" xlink:href="#me8a85f7bf6" y="146.88"/>
      </g>
     </g>
     <g id="line2d_58">
      <g>
       <use style="stroke:#000000;stroke-linecap:butt;stroke-width:0.5;" x="518.4" xlink:href="#m1a32005dea" y="146.88"/>
      </g>
     </g>
     <g id="text_18">
      <!-- 14 -->
      <g transform="translate(54.72125 151.254375)scale(0.12 -0.12)">
       <use xlink:href="#BitstreamVeraSans-Roman-31"/>
       <use x="63.623046875" xlink:href="#BitstreamVeraSans-Roman-34"/>
      </g>
     </g>
    </g>
    <g id="ytick_9">
     <g id="line2d_59">
      <path clip-path="url(#p7ff5b81e1d)" d="
M72 112.32
L518.4 112.32" style="fill:none;stroke:#000000;stroke-dasharray:1.000000,3.000000;stroke-dashoffset:0.0;stroke-linecap:butt;stroke-width:0.5;"/>
     </g>
     <g id="line2d_60">
      <g>
       <use style="stroke:#000000;stroke-linecap:butt;stroke-width:0.5;" x="72.0" xlink:href="#me8a85f7bf6" y="112.32"/>
      </g>
     </g>
     <g id="line2d_61">
      <g>
       <use style="stroke:#000000;stroke-linecap:butt;stroke-width:0.5;" x="518.4" xlink:href="#m1a32005dea" y="112.32"/>
      </g>
     </g>
     <g id="text_19">
      <!-- 16 -->
      <g transform="translate(54.80375 116.6878125)scale(0.12 -0.12)">
       <use xlink:href="#BitstreamVeraSans-Roman-31"/>
       <use x="63.623046875" xlink:href="#BitstreamVeraSans-Roman-36"/>
      </g>
     </g>
    </g>
    <g id="ytick_10">
     <g id="line2d_62">
      <path clip-path="url(#p7ff5b81e1d)" d="
M72 77.76
L518.4 77.76" style="fill:none;stroke:#000000;stroke-dasharray:1.000000,3.000000;stroke-dashoffset:0.0;stroke-linecap:butt;stroke-width:0.5;"/>
     </g>
     <g id="line2d_63">
      <g>
       <use style="stroke:#000000;stroke-linecap:butt;stroke-width:0.5;" x="72.0" xlink:href="#me8a85f7bf6" y="77.76"/>
      </g>
     </g>
     <g id="line2d_64">
      <g>
       <use style="stroke:#000000;stroke-linecap:butt;stroke-width:0.5;" x="518.4" xlink:href="#m1a32005dea" y="77.76"/>
      </g>
     </g>
     <g id="text_20">
      <!-- 18 -->
      <g transform="translate(54.869375 82.1278125)scale(0.12 -0.12)">
       <use xlink:href="#BitstreamVeraSans-Roman-31"/>
       <use x="63.623046875" xlink:href="#BitstreamVeraSans-Roman-38"/>
      </g>
     </g>
    </g>
    <g id="text_21">
     <!-- Sec/file -->
     <defs>
      <path d="
M9.42188 75.9844
L18.4062 75.9844
L18.4062 0
L9.42188 0
z
" id="BitstreamVeraSans-Roman-6c"/>
      <path d="
M53.5156 70.5156
L53.5156 60.8906
Q47.9062 63.5781 42.9219 64.8906
Q37.9375 66.2188 33.2969 66.2188
Q25.25 66.2188 20.875 63.0938
Q16.5 59.9688 16.5 54.2031
Q16.5 49.3594 19.4062 46.8906
Q22.3125 44.4375 30.4219 42.9219
L36.375 41.7031
Q47.4062 39.5938 52.6562 34.2969
Q57.9062 29 57.9062 20.125
Q57.9062 9.51562 50.7969 4.04688
Q43.7031 -1.42188 29.9844 -1.42188
Q24.8125 -1.42188 18.9688 -0.25
Q13.1406 0.921875 6.89062 3.21875
L6.89062 13.375
Q12.8906 10.0156 18.6562 8.29688
Q24.4219 6.59375 29.9844 6.59375
Q38.4219 6.59375 43.0156 9.90625
Q47.6094 13.2344 47.6094 19.3906
Q47.6094 24.75 44.3125 27.7812
Q41.0156 30.8125 33.5 32.3281
L27.4844 33.5
Q16.4531 35.6875 11.5156 40.375
Q6.59375 45.0625 6.59375 53.4219
Q6.59375 63.0938 13.4062 68.6562
Q20.2188 74.2188 32.1719 74.2188
Q37.3125 74.2188 42.625 73.2812
Q47.9531 72.3594 53.5156 70.5156" id="BitstreamVeraSans-Roman-53"/>
      <path d="
M9.42188 54.6875
L18.4062 54.6875
L18.4062 0
L9.42188 0
z

M9.42188 75.9844
L18.4062 75.9844
L18.4062 64.5938
L9.42188 64.5938
z
" id="BitstreamVeraSans-Roman-69"/>
      <path d="
M25.3906 72.9062
L33.6875 72.9062
L8.29688 -9.28125
L0 -9.28125
z
" id="BitstreamVeraSans-Roman-2f"/>
      <path d="
M56.2031 29.5938
L56.2031 25.2031
L14.8906 25.2031
Q15.4844 15.9219 20.4844 11.0625
Q25.4844 6.20312 34.4219 6.20312
Q39.5938 6.20312 44.4531 7.46875
Q49.3125 8.73438 54.1094 11.2812
L54.1094 2.78125
Q49.2656 0.734375 44.1875 -0.34375
Q39.1094 -1.42188 33.8906 -1.42188
Q20.7969 -1.42188 13.1562 6.1875
Q5.51562 13.8125 5.51562 26.8125
Q5.51562 40.2344 12.7656 48.1094
Q20.0156 56 32.3281 56
Q43.3594 56 49.7812 48.8906
Q56.2031 41.7969 56.2031 29.5938
M47.2188 32.2344
Q47.125 39.5938 43.0938 43.9844
Q39.0625 48.3906 32.4219 48.3906
Q24.9062 48.3906 20.3906 44.1406
Q15.875 39.8906 15.1875 32.1719
z
" id="BitstreamVeraSans-Roman-65"/>
      <path d="
M37.1094 75.9844
L37.1094 68.5
L28.5156 68.5
Q23.6875 68.5 21.7969 66.5469
Q19.9219 64.5938 19.9219 59.5156
L19.9219 54.6875
L34.7188 54.6875
L34.7188 47.7031
L19.9219 47.7031
L19.9219 0
L10.8906 0
L10.8906 47.7031
L2.29688 47.7031
L2.29688 54.6875
L10.8906 54.6875
L10.8906 58.5
Q10.8906 67.625 15.1406 71.7969
Q19.3906 75.9844 28.6094 75.9844
z
" id="BitstreamVeraSans-Roman-66"/>
      <path d="
M48.7812 52.5938
L48.7812 44.1875
Q44.9688 46.2969 41.1406 47.3438
Q37.3125 48.3906 33.4062 48.3906
Q24.6562 48.3906 19.8125 42.8438
Q14.9844 37.3125 14.9844 27.2969
Q14.9844 17.2812 19.8125 11.7344
Q24.6562 6.20312 33.4062 6.20312
Q37.3125 6.20312 41.1406 7.25
Q44.9688 8.29688 48.7812 10.4062
L48.7812 2.09375
Q45.0156 0.34375 40.9844 -0.53125
Q36.9688 -1.42188 32.4219 -1.42188
Q20.0625 -1.42188 12.7812 6.34375
Q5.51562 14.1094 5.51562 27.2969
Q5.51562 40.6719 12.8594 48.3281
Q20.2188 56 33.0156 56
Q37.1562 56 41.1094 55.1406
Q45.0625 54.2969 48.7812 52.5938" id="BitstreamVeraSans-Roman-63"/>
     </defs>
     <g transform="translate(49.72125 236.13)rotate(-90.0)scale(0.12 -0.12)">
      <use xlink:href="#BitstreamVeraSans-Roman-53"/>
      <use x="63.4765625" xlink:href="#BitstreamVeraSans-Roman-65"/>
      <use x="125.0" xlink:href="#BitstreamVeraSans-Roman-63"/>
      <use x="179.98046875" xlink:href="#BitstreamVeraSans-Roman-2f"/>
      <use x="213.671875" xlink:href="#BitstreamVeraSans-Roman-66"/>
      <use x="248.876953125" xlink:href="#BitstreamVeraSans-Roman-69"/>
      <use x="276.66015625" xlink:href="#BitstreamVeraSans-Roman-6c"/>
      <use x="304.443359375" xlink:href="#BitstreamVeraSans-Roman-65"/>
     </g>
    </g>
   </g>
   <g id="patch_3">
    <path d="
M72 43.2
L518.4 43.2" style="fill:none;stroke:#000000;"/>
   </g>
   <g id="patch_4">
    <path d="
M518.4 388.8
L518.4 43.2" style="fill:none;stroke:#000000;"/>
   </g>
   <g id="patch_5">
    <path d="
M72 388.8
L518.4 388.8" style="fill:none;stroke:#000000;"/>
   </g>
   <g id="patch_6">
    <path d="
M72 388.8
L72 43.2" style="fill:none;stroke:#000000;"/>
   </g>
   <g id="text_22">
    <!-- Rand -->
    <defs>
     <path d="
M54.8906 33.0156
L54.8906 0
L45.9062 0
L45.9062 32.7188
Q45.9062 40.4844 42.875 44.3281
Q39.8438 48.1875 33.7969 48.1875
Q26.5156 48.1875 22.3125 43.5469
Q18.1094 38.9219 18.1094 30.9062
L18.1094 0
L9.07812 0
L9.07812 54.6875
L18.1094 54.6875
L18.1094 46.1875
Q21.3438 51.125 25.7031 53.5625
Q30.0781 56 35.7969 56
Q45.2188 56 50.0469 50.1719
Q54.8906 44.3438 54.8906 33.0156" id="BitstreamVeraSans-Roman-6e"/>
     <path d="
M45.4062 46.3906
L45.4062 75.9844
L54.3906 75.9844
L54.3906 0
L45.4062 0
L45.4062 8.20312
Q42.5781 3.32812 38.25 0.953125
Q33.9375 -1.42188 27.875 -1.42188
Q17.9688 -1.42188 11.7344 6.48438
Q5.51562 14.4062 5.51562 27.2969
Q5.51562 40.1875 11.7344 48.0938
Q17.9688 56 27.875 56
Q33.9375 56 38.25 53.625
Q42.5781 51.2656 45.4062 46.3906
M14.7969 27.2969
Q14.7969 17.3906 18.875 11.75
Q22.9531 6.10938 30.0781 6.10938
Q37.2031 6.10938 41.2969 11.75
Q45.4062 17.3906 45.4062 27.2969
Q45.4062 37.2031 41.2969 42.8438
Q37.2031 48.4844 30.0781 48.4844
Q22.9531 48.4844 18.875 42.8438
Q14.7969 37.2031 14.7969 27.2969" id="BitstreamVeraSans-Roman-64"/>
     <path d="
M44.3906 34.1875
Q47.5625 33.1094 50.5625 29.5938
Q53.5625 26.0781 56.5938 19.9219
L66.6094 0
L56 0
L46.6875 18.7031
Q43.0625 26.0312 39.6719 28.4219
Q36.2812 30.8125 30.4219 30.8125
L19.6719 30.8125
L19.6719 0
L9.8125 0
L9.8125 72.9062
L32.0781 72.9062
Q44.5781 72.9062 50.7344 67.6719
Q56.8906 62.4531 56.8906 51.9062
Q56.8906 45.0156 53.6875 40.4688
Q50.4844 35.9375 44.3906 34.1875
M19.6719 64.7969
L19.6719 38.9219
L32.0781 38.9219
Q39.2031 38.9219 42.8438 42.2188
Q46.4844 45.5156 46.4844 51.9062
Q46.4844 58.2969 42.8438 61.5469
Q39.2031 64.7969 32.0781 64.7969
z
" id="BitstreamVeraSans-Roman-52"/>
     <path d="
M34.2812 27.4844
Q23.3906 27.4844 19.1875 25
Q14.9844 22.5156 14.9844 16.5
Q14.9844 11.7188 18.1406 8.90625
Q21.2969 6.10938 26.7031 6.10938
Q34.1875 6.10938 38.7031 11.4062
Q43.2188 16.7031 43.2188 25.4844
L43.2188 27.4844
z

M52.2031 31.2031
L52.2031 0
L43.2188 0
L43.2188 8.29688
Q40.1406 3.32812 35.5469 0.953125
Q30.9531 -1.42188 24.3125 -1.42188
Q15.9219 -1.42188 10.9531 3.29688
Q6 8.01562 6 15.9219
Q6 25.1406 12.1719 29.8281
Q18.3594 34.5156 30.6094 34.5156
L43.2188 34.5156
L43.2188 35.4062
Q43.2188 41.6094 39.1406 45
Q35.0625 48.3906 27.6875 48.3906
Q23 48.3906 18.5469 47.2656
Q14.1094 46.1406 10.0156 43.8906
L10.0156 52.2031
Q14.9375 54.1094 19.5781 55.0469
Q24.2188 56 28.6094 56
Q40.4844 56 46.3438 49.8438
Q52.2031 43.7031 52.2031 31.2031" id="BitstreamVeraSans-Roman-61"/>
    </defs>
    <g transform="translate(278.17425 38.2)scale(0.144 -0.144)">
     <use xlink:href="#BitstreamVeraSans-Roman-52"/>
     <use x="67.232421875" xlink:href="#BitstreamVeraSans-Roman-61"/>
     <use x="128.51171875" xlink:href="#BitstreamVeraSans-Roman-6e"/>
     <use x="191.890625" xlink:href="#BitstreamVeraSans-Roman-64"/>
    </g>
   </g>
   <g id="legend_1">
    <g id="patch_7">
     <path d="
M429.055 136.476
L511.2 136.476
L511.2 50.4
L429.055 50.4
L429.055 136.476
z
" style="fill:#ffffff;stroke:#000000;"/>
    </g>
    <g id="line2d_65">
     <path d="
M439.135 62.0617
L459.295 62.0617" style="fill:none;stroke:#ff0000;"/>
    </g>
    <g id="line2d_66"/>
    <g id="text_23">
     <!-- LRU -->
     <defs>
      <path d="
M9.8125 72.9062
L19.6719 72.9062
L19.6719 8.29688
L55.1719 8.29688
L55.1719 0
L9.8125 0
z
" id="BitstreamVeraSans-Roman-4c"/>
      <path d="
M8.6875 72.9062
L18.6094 72.9062
L18.6094 28.6094
Q18.6094 16.8906 22.8438 11.7344
Q27.0938 6.59375 36.625 6.59375
Q46.0938 6.59375 50.3438 11.7344
Q54.5938 16.8906 54.5938 28.6094
L54.5938 72.9062
L64.5 72.9062
L64.5 27.3906
Q64.5 13.1406 57.4375 5.85938
Q50.3906 -1.42188 36.625 -1.42188
Q22.7969 -1.42188 15.7344 5.85938
Q8.6875 13.1406 8.6875 27.3906
z
" id="BitstreamVeraSans-Roman-55"/>
     </defs>
     <g transform="translate(475.13475 67.10175)scale(0.144 -0.144)">
      <use xlink:href="#BitstreamVeraSans-Roman-4c"/>
      <use x="55.712890625" xlink:href="#BitstreamVeraSans-Roman-52"/>
      <use x="125.1953125" xlink:href="#BitstreamVeraSans-Roman-55"/>
     </g>
    </g>
    <g id="line2d_67">
     <path d="
M439.135 83.1982
L459.295 83.1982" style="fill:none;opacity:0.7;stroke:#008000;"/>
    </g>
    <g id="line2d_68"/>
    <g id="text_24">
     <!-- MRU -->
     <defs>
      <path d="
M9.8125 72.9062
L24.5156 72.9062
L43.1094 23.2969
L61.8125 72.9062
L76.5156 72.9062
L76.5156 0
L66.8906 0
L66.8906 64.0156
L48.0938 14.0156
L38.1875 14.0156
L19.3906 64.0156
L19.3906 0
L9.8125 0
z
" id="BitstreamVeraSans-Roman-4d"/>
     </defs>
     <g transform="translate(475.13475 88.23825)scale(0.144 -0.144)">
      <use xlink:href="#BitstreamVeraSans-Roman-4d"/>
      <use x="86.279296875" xlink:href="#BitstreamVeraSans-Roman-52"/>
      <use x="155.76171875" xlink:href="#BitstreamVeraSans-Roman-55"/>
     </g>
    </g>
    <g id="line2d_69">
     <path d="
M439.135 104.335
L459.295 104.335" style="fill:none;opacity:0.5;stroke:#ffa500;"/>
    </g>
    <g id="line2d_70"/>
    <g id="text_25">
     <!-- LFU -->
     <defs>
      <path d="
M9.8125 72.9062
L51.7031 72.9062
L51.7031 64.5938
L19.6719 64.5938
L19.6719 43.1094
L48.5781 43.1094
L48.5781 34.8125
L19.6719 34.8125
L19.6719 0
L9.8125 0
z
" id="BitstreamVeraSans-Roman-46"/>
     </defs>
     <g transform="translate(475.13475 109.37475)scale(0.144 -0.144)">
      <use xlink:href="#BitstreamVeraSans-Roman-4c"/>
      <use x="55.712890625" xlink:href="#BitstreamVeraSans-Roman-46"/>
      <use x="113.232421875" xlink:href="#BitstreamVeraSans-Roman-55"/>
     </g>
    </g>
    <g id="line2d_71">
     <path d="
M439.135 125.471
L459.295 125.471" style="fill:none;opacity:0.5;stroke:#0000ff;"/>
    </g>
    <g id="line2d_72"/>
    <g id="text_26">
     <!-- FIFO -->
     <defs>
      <path d="
M39.4062 66.2188
Q28.6562 66.2188 22.3281 58.2031
Q16.0156 50.2031 16.0156 36.375
Q16.0156 22.6094 22.3281 14.5938
Q28.6562 6.59375 39.4062 6.59375
Q50.1406 6.59375 56.4219 14.5938
Q62.7031 22.6094 62.7031 36.375
Q62.7031 50.2031 56.4219 58.2031
Q50.1406 66.2188 39.4062 66.2188
M39.4062 74.2188
Q54.7344 74.2188 63.9062 63.9375
Q73.0938 53.6562 73.0938 36.375
Q73.0938 19.1406 63.9062 8.85938
Q54.7344 -1.42188 39.4062 -1.42188
Q24.0312 -1.42188 14.8125 8.82812
Q5.60938 19.0938 5.60938 36.375
Q5.60938 53.6562 14.8125 63.9375
Q24.0312 74.2188 39.4062 74.2188" id="BitstreamVeraSans-Roman-4f"/>
      <path d="
M9.8125 72.9062
L19.6719 72.9062
L19.6719 0
L9.8125 0
z
" id="BitstreamVeraSans-Roman-49"/>
     </defs>
     <g transform="translate(475.13475 130.51125)scale(0.144 -0.144)">
      <use xlink:href="#BitstreamVeraSans-Roman-46"/>
      <use x="57.51953125" xlink:href="#BitstreamVeraSans-Roman-49"/>
      <use x="87.01171875" xlink:href="#BitstreamVeraSans-Roman-46"/>
      <use x="144.53125" xlink:href="#BitstreamVeraSans-Roman-4f"/>
     </g>
    </g>
   </g>
  </g>
 </g>
 <defs>
  <clipPath id="p7ff5b81e1d">
   <rect height="345.6" width="446.4" x="72.0" y="43.2"/>
  </clipPath>
 </defs>
</svg>
