<?xml version="1.0" encoding="utf-8" standalone="no"?>
<!DOCTYPE svg PUBLIC "-//W3C//DTD SVG 1.1//EN"
  "http://www.w3.org/Graphics/SVG/1.1/DTD/svg11.dtd">
<!-- Created with matplotlib (http://matplotlib.sourceforge.net/) -->
<svg height="432pt" version="1.1" viewBox="0 0 576 432" width="576pt" xmlns="http://www.w3.org/2000/svg" xmlns:xlink="http://www.w3.org/1999/xlink">
 <defs>
  <style type="text/css">
*{stroke-linecap:square;stroke-linejoin:round;}
  </style>
 </defs>
 <g id="figure_1">
  <g id="patch_1">
   <path d="
M0 432
L576 432
L576 0
L0 0
z
" style="fill:#ffffff;"/>
  </g>
  <g id="axes_1">
   <g id="patch_2">
    <path d="
M72 388.8
L518.4 388.8
L518.4 43.2
L72 43.2
z
" style="fill:#ffffff;"/>
   </g>
   <g id="line2d_1">
    <path clip-path="url(#p7ff5b81e1d)" d="
M72 266.518
L72.4464 154.807
L72.8928 239.405
L73.3392 264.687
L73.7856 247.778
L74.232 249.151
L74.6784 265.011
L75.1248 267.825
L75.5712 317.246
L76.0176 268.35
L76.464 265.756
L76.9104 278.778
L77.8032 243.39
L78.2496 262.6
L78.696 264.038
L79.1424 266.528
L79.5888 259.929
L80.0352 319.023
L80.4816 265.106
L80.928 266.275
L81.3744 308.915
L81.8208 266.879
L82.2672 318.597
L82.7136 319.235
L83.16 262.891
L83.6064 318.633
L84.0528 244.727
L84.4992 261.883
L84.9456 262.525
L85.392 266.6
L85.8384 318.955
L86.2848 318.857
L86.7312 319.929
L87.1776 320.026
L87.624 301.297
L88.0704 320.656
L88.5168 319.846
L88.9632 244.845
L89.4096 253.007
L89.856 267.352
L90.3024 265.507
L90.7488 267.987
L91.1952 318.497
L91.6416 265.632
L92.088 268.102
L92.5344 318.6
L92.9808 264.847
L93.4272 318.482
L93.8736 261.946
L94.32 317.586
L94.7664 318.773
L95.2128 269.24
L95.6592 264.448
L96.1056 319.41
L96.552 298.564
L96.9984 319.96
L97.4448 228.412
L97.8912 316.453
L98.3376 320.175
L98.784 233.908
L99.2304 262.597
L99.6768 318.552
L100.123 317.863
L100.57 244.703
L101.016 318.673
L101.462 319.33
L101.909 301.236
L102.355 318.362
L102.802 318.687
L103.248 291.567
L103.694 319.262
L104.141 317.891
L104.587 282.476
L105.034 318.811
L105.48 318.36
L105.926 318.483
L106.373 236.541
L106.819 318.494
L107.266 320.396
L107.712 314.159
L108.158 268.854
L108.605 317.487
L109.051 318.699
L109.498 317.205
L109.944 318.224
L110.39 318.603
L110.837 306.554
L111.283 318.524
L111.73 316.891
L112.176 317.596
L112.622 317.728
L113.069 306.276
L113.515 317.851
L113.962 318.464
L114.408 309.947
L114.854 318.331
L115.301 318.001
L115.747 304.293
L116.194 318.365
L116.64 263.522
L117.086 318.081
L117.533 318.503
L117.979 318.077
L118.872 227.513
L119.318 317.627
L119.765 317.871
L120.211 309.418
L120.658 319.085
L121.104 268.083
L121.55 317.767
L121.997 309.222
L122.443 316.754
L122.89 268.891
L123.336 305.846
L123.782 319.35
L124.229 300.143
L124.675 318.382
L125.122 318.726
L125.568 300.877
L126.014 264.063
L126.461 317.161
L126.907 318
L127.354 307.636
L127.8 302.671
L128.246 318.124
L128.693 318.894
L129.139 319.072
L129.586 319.006
L130.032 306.441
L130.478 318.39
L130.925 317.958
L131.371 248.686
L131.818 317.147
L132.264 319.147
L132.71 317.394
L133.157 314.929
L133.603 319.656
L134.05 318.587
L134.496 301.384
L134.942 318.498
L135.389 311.041
L135.835 311.377
L136.282 309.392
L136.728 318.931
L137.621 310.753
L138.067 291.851
L138.514 318.298
L138.96 318.005
L139.406 294.738
L139.853 318.609
L140.299 305.235
L140.746 316.716
L141.192 263.413
L141.638 317.452
L142.085 317.8
L142.978 303.934
L143.424 308.467
L143.87 302.531
L144.317 310.86
L144.763 297.236
L145.21 319.029
L145.656 318.959
L146.102 303.546
L146.549 266.052
L146.995 318.712
L147.888 301.391
L148.334 318.65
L148.781 309.538
L149.227 318.739
L149.674 291.795
L150.12 318.755
L150.566 309.516
L151.013 306.193
L151.459 309.428
L151.906 310.694
L152.352 316.797
L152.798 318.231
L153.245 297.963
L153.691 318.753
L154.138 294.276
L154.584 311.597
L155.03 297.752
L155.477 289.86
L155.923 316.275
L156.37 301.256
L156.816 309.061
L157.262 319.002
L157.709 315.119
L158.155 319.278
L158.602 317.453
L159.048 300.968
L159.494 317.42
L159.941 295.636
L160.387 310.248
L160.834 304.003
L161.28 310.88
L161.726 309.988
L162.173 309.791
L162.619 315.686
L163.066 316.937
L163.512 318.969
L163.958 316.668
L164.405 306.906
L164.851 319.35
L165.298 301.614
L165.744 301.279
L166.19 319.404
L166.637 308.469
L167.083 318.013
L167.53 317.873
L167.976 308.156
L168.422 282.026
L168.869 318.573
L169.315 319.185
L169.762 309.905
L170.208 311.553
L170.654 318.173
L171.101 319.084
L171.547 300.97
L172.44 318.934
L172.886 303.214
L173.333 319.544
L173.779 309.058
L174.226 311.798
L174.672 308.813
L175.118 303.332
L175.565 310.187
L176.011 222.015
L176.458 318.195
L176.904 299.527
L177.35 302.05
L178.243 318.403
L178.69 310.684
L179.136 292.504
L179.582 304.58
L180.029 304.99
L180.475 319.241
L180.922 318.744
L181.368 302.852
L181.814 319.466
L182.261 318.686
L183.154 287.612
L183.6 320.045
L184.046 317.994
L184.493 292.972
L184.939 318.203
L185.386 290.694
L185.832 319.419
L186.278 318.609
L186.725 302.042
L187.171 319.379
L187.618 310.445
L188.064 298.281
L188.51 316.476
L188.957 300.409
L189.403 310.115
L189.85 308.514
L190.296 317.185
L190.742 309.2
L191.189 297.842
L191.635 318.152
L192.082 318.914
L192.528 305.76
L192.974 310.097
L193.421 296.781
L193.867 319.005
L194.314 319.032
L194.76 301.247
L195.206 319.002
L195.653 319.674
L196.099 286.822
L196.546 318.43
L196.992 319.175
L197.438 306.06
L197.885 318.648
L198.331 320.041
L198.778 297.985
L199.224 302.476
L199.67 308.766
L200.117 319.329
L200.563 310.668
L201.01 284.626
L201.456 319.671
L201.902 312.047
L202.349 308.106
L202.795 317.615
L203.242 304.428
L203.688 318.577
L204.134 300.664
L204.581 318.893
L205.474 301.13
L205.92 301.991
L206.366 319.118
L207.706 318.023
L208.152 304.87
L208.598 302.13
L209.045 310.953
L209.491 315.979
L210.384 301.625
L210.83 311.417
L211.277 280.087
L211.723 318.215
L212.17 319.49
L212.616 301.738
L213.062 317.068
L213.509 318.069
L213.955 299.992
L214.402 317.94
L214.848 318.036
L215.294 315.312
L215.741 310.028
L216.187 317.433
L216.634 318.395
L217.08 308.647
L217.526 288.501
L217.973 317.664
L218.419 317.284
L219.312 317.903
L219.758 298.32
L220.205 318.577
L220.651 302.932
L221.098 309.728
L221.544 309.529
L221.99 300.246
L222.883 316.75
L223.33 317.899
L223.776 294.724
L224.222 318.629
L224.669 284.858
L225.115 318.536
L225.562 317.461
L226.454 318.205
L226.901 302.205
L227.347 317.14
L227.794 300.855
L228.24 318.284
L228.686 319.183
L229.133 299.701
L229.579 318.437
L230.026 317.921
L230.472 307.721
L230.918 318.275
L231.365 318.522
L231.811 289.174
L232.258 310.403
L232.704 316.033
L233.15 283.557
L233.597 319.735
L234.043 309.59
L234.49 291.744
L234.936 319.001
L235.382 319.003
L235.829 313.42
L236.275 318.231
L236.722 302.465
L237.168 318.256
L237.614 319.316
L238.061 290.488
L238.507 308.824
L238.954 317.101
L239.4 310.212
L239.846 309.974
L240.293 307.818
L240.739 318.066
L241.186 310.064
L241.632 317.739
L242.078 293.767
L242.525 318.66
L242.971 319.68
L243.418 297.052
L243.864 309.732
L244.31 298.125
L244.757 310.171
L245.203 318.137
L245.65 314.868
L246.096 309.587
L246.542 318.457
L246.989 315.433
L247.435 302.55
L247.882 319.483
L248.328 317.997
L248.774 317.926
L249.221 310.367
L250.114 318.777
L250.56 318.141
L251.006 305.14
L251.453 319.475
L251.899 319.224
L252.346 301.547
L252.792 318.237
L253.238 319.383
L253.685 304.981
L254.131 302.424
L254.578 293.217
L255.024 318.465
L255.47 319.209
L255.917 317.266
L256.363 297.515
L256.81 319.289
L257.256 289.433
L257.702 309.572
L258.149 292.369
L258.595 310.837
L259.042 298.95
L259.488 319.018
L259.934 309.92
L260.827 317.574
L261.274 309.851
L261.72 313.197
L262.166 318.401
L262.613 310.51
L263.059 312.705
L263.506 319.293
L263.952 307.386
L264.398 307.829
L264.845 300.937
L265.291 317.93
L265.738 318.16
L266.184 318.653
L266.63 304.103
L267.077 317.79
L267.523 310.02
L267.97 306.474
L268.416 310.457
L268.862 298.29
L269.309 318.109
L269.755 305.355
L270.202 318.026
L270.648 310.365
L271.094 288.669
L271.541 319.327
L271.987 318.635
L272.434 313.303
L272.88 319.324
L273.326 319.342
L273.773 301.916
L274.219 318.814
L274.666 318.078
L275.112 305.628
L275.558 317.463
L276.005 309.222
L276.451 318.322
L276.898 292.975
L277.344 309.936
L277.79 319.785
L278.237 308.9
L278.683 307.308
L279.13 301.804
L279.576 314.502
L280.469 318.069
L280.915 309.595
L281.362 318.868
L281.808 297.464
L282.254 317.888
L282.701 317.76
L283.147 305.807
L283.594 318.61
L284.04 307.571
L284.486 319.909
L285.379 307.231
L285.826 319.425
L286.272 308.006
L286.718 306.086
L287.165 307.636
L287.611 297.109
L288.058 316.498
L288.504 285.931
L288.95 314.923
L289.397 302.872
L289.843 317.546
L290.29 318.298
L290.736 302.081
L291.182 308.005
L291.629 316.129
L292.075 319.663
L292.522 304.106
L292.968 318.64
L293.861 299.873
L294.307 271.156
L294.754 315.655
L295.2 310.124
L295.646 315.139
L296.539 317.845
L297.432 271.796
L297.878 282.325
L298.325 317.54
L298.771 313.942
L299.218 298.753
L299.664 309.67
L300.11 300.883
L300.557 317.916
L301.003 318.165
L301.45 307.049
L301.896 319.572
L302.342 310.644
L302.789 314.233
L303.235 300.121
L303.682 318.396
L304.128 315.656
L304.574 318.12
L305.021 285.497
L305.467 318.972
L305.914 301.241
L306.36 318.995
L306.806 319.205
L307.253 297.032
L307.699 318.647
L308.146 294.384
L308.592 293.492
L309.038 317.218
L309.485 318.491
L309.931 301.103
L310.378 318.265
L310.824 319.499
L311.27 308.534
L311.717 308.785
L312.163 300.652
L312.61 318.887
L313.056 309.42
L313.502 316.99
L313.949 310.998
L314.395 300.894
L314.842 318.343
L315.288 318.874
L315.734 275.512
L316.181 311.685
L316.627 317.721
L317.074 319.516
L317.52 318.298
L317.966 285.911
L318.413 319.131
L318.859 308.396
L319.306 301.214
L319.752 318.316
L320.198 318.008
L320.645 317.162
L321.091 300.978
L321.538 302.844
L321.984 319.156
L322.43 317.157
L323.323 302.109
L323.77 318.649
L324.216 301.615
L324.662 318.594
L325.109 310.38
L325.555 299.743
L326.002 317.912
L326.448 309.745
L326.894 308.168
L327.341 288.49
L327.787 308.988
L328.234 310.836
L328.68 317.779
L329.126 318.48
L329.573 290.37
L330.019 309.581
L330.466 316.069
L330.912 314.157
L331.358 319.23
L331.805 310.246
L332.251 317.643
L332.698 318.8
L333.144 298.538
L333.59 319.332
L334.037 301.325
L334.483 319.199
L334.93 318.1
L335.376 298.701
L335.822 319.575
L336.269 317.12
L336.715 297.784
L337.162 318.629
L337.608 317.563
L338.054 312.586
L338.501 319.396
L338.947 318.091
L339.394 294.724
L339.84 310.866
L340.286 302.481
L340.733 311.352
L341.179 298.603
L341.626 302.716
L342.072 319.238
L342.518 315.028
L342.965 318.213
L343.411 317.909
L343.858 294.898
L344.304 301.883
L344.75 317.78
L345.643 299.118
L346.09 319.286
L346.536 302.17
L346.982 317.113
L347.429 309.456
L347.875 299.159
L348.322 309.412
L348.505 -1
M349.427 -1
L349.661 310.221
L350.107 295.414
L350.554 301.454
L351 286.877
L351.446 309.787
L351.893 280.96
L352.339 318.264
L353.232 295.82
L353.678 317.794
L354.125 290.241
L354.571 307.689
L355.018 304.894
L355.464 319.461
L355.91 310.002
L356.357 282.43
L356.803 318.332
L357.25 280.569
L357.696 300.932
L358.142 310.563
L358.589 295.972
L359.035 317.608
L359.482 309.421
L359.928 315.824
L360.374 309.027
L360.821 317.826
L361.267 318.201
L361.714 316.307
L362.16 310.542
L362.606 318.553
L363.053 319.192
L363.499 319.034
L363.946 318.199
L364.392 300.958
L364.838 319.098
L365.285 307.685
L365.731 292.28
L366.178 303.902
L366.624 310.232
L367.07 299.983
L367.963 318.441
L368.41 319.008
L368.856 305.82
L369.302 318.624
L369.749 319.095
L370.195 310.404
L370.642 270.258
L371.088 319.023
L371.534 319.179
L371.981 305.09
L372.427 318.312
L372.874 289.806
L373.32 308.76
L373.766 300.297
L374.213 302.213
L374.659 303.027
L375.106 319.304
L375.552 296.047
L375.998 319.669
L376.891 300.495
L377.338 316.647
L377.784 295.851
L378.23 317.778
L378.677 317.291
L379.123 311.227
L379.57 308.496
L380.016 293.654
L380.462 310.157
L380.909 303.604
L381.355 318.605
L381.802 304.946
L382.248 310.312
L382.694 289.6
L383.141 294.092
L383.587 317.061
L384.034 306.277
L384.48 300
L385.373 318.043
L385.819 307.178
L386.266 318.599
L386.712 317.437
L387.158 317.73
L387.605 283.6
L388.051 310.258
L388.498 299.319
L388.944 318.747
L389.39 309.962
L390.283 318.597
L390.73 307.338
L391.176 316.9
L391.622 317.419
L392.069 318.707
L392.515 319.302
L392.962 308.733
L393.408 315.371
L393.854 318.359
L394.301 319.239
L394.747 294.57
L395.194 318.571
L395.64 283.544
L396.086 318.458
L396.533 289.602
L397.426 310.393
L397.872 317.227
L398.318 309.066
L398.765 316.579
L399.211 311.091
L399.658 297.943
L400.104 318.775
L400.55 319.105
L400.997 303.024
L401.443 318.172
L401.89 308.233
L402.336 318.838
L402.782 318.007
L403.229 309.173
L403.675 316.416
L404.122 319.586
L404.568 316.584
L405.014 306.182
L405.461 309.332
L405.907 318.111
L406.354 315.986
L406.8 317.046
L407.246 318.637
L407.693 308.807
L408.139 318.519
L408.586 293.991
L409.032 310.295
L409.478 316.423
L409.925 304.098
L410.371 318.425
L410.818 317.969
L411.264 306.126
L411.71 303.685
L412.157 310.227
L412.603 318.682
L413.05 318.52
L413.496 302.33
L413.942 315.834
L414.389 317.539
L414.835 309.271
L415.282 318.174
L415.728 301.309
L416.174 317.45
L416.621 309.845
L417.067 298.629
L417.514 310.427
L417.96 294.493
L418.853 318.404
L419.299 317.402
L419.746 318.766
L420.192 317.988
L420.638 283.639
L421.085 310.069
L421.531 259.891
L421.978 310.605
L422.424 319.202
L422.87 318.205
L423.317 293.533
L423.763 317.611
L424.21 307.818
L424.656 318.853
L425.102 309.526
L425.549 316.461
L425.995 309.973
L426.442 280.346
L427.334 317.481
L427.781 317.865
L428.227 288.718
L428.674 317.63
L429.12 298.024
L429.566 319.366
L430.013 319.116
L430.459 307.792
L430.906 308.289
L431.352 295.522
L431.798 317.67
L432.245 297.85
L432.691 292.367
L433.138 318.449
L433.584 318.672
L434.03 318.769
L434.477 318.209
L434.923 319.346
L435.37 318.245
L435.816 318.201
L436.262 315.505
L436.709 296.649
L437.155 318.517
L437.602 300.572
L438.048 306.075
L438.494 309.046
L438.941 307.848
L439.387 317.762
L439.834 290.594
L440.28 309.094
L440.726 298.086
L441.173 308.899
L441.619 309.16
L442.066 310.057
L442.512 318.573
L442.958 319.372
L443.405 307.915
L443.851 311.23
L444.298 304.114
L444.744 319.268
L445.19 318.527
L445.637 300.287
L446.083 318.575
L446.53 315.929
L446.976 311.971
L447.422 301.104
L448.315 318.652
L448.762 313.451
L449.208 314.686
L449.654 317.702
L450.101 318.394
L450.547 318.544
L450.994 308.23
L451.44 309.213
L451.886 302.091
L452.333 319.092
L452.779 294.116
L453.226 308.433
L453.672 313.989
L454.118 310.84
L454.565 311.036
L455.011 316.83
L455.458 318.91
L455.904 312.569
L456.35 319.43
L456.797 319.672
L457.243 306.647
L457.69 318.372
L458.136 310.77
L458.582 317.68
L459.475 318.327
L459.922 313.55
L460.368 318.877
L460.814 318.791
L461.261 298.069
L461.707 318.186
L462.154 277.488
L462.6 318.007
L463.046 304.134
L463.493 319.855
L463.939 295.393
L464.386 318.62
L465.278 300.897
L465.725 310.201
L466.171 310.065
L466.618 318.023
L467.064 293.634
L467.51 319.546
L467.957 317.242
L468.403 316.796
L468.85 319.83
L469.296 309.432
L469.742 316.637
L470.189 318.485
L470.635 308.998
L471.082 316.959
L471.528 308.759
L471.974 319.141
L472.421 317.031
L472.867 319.573
L473.314 318.277
L473.76 304.254
L474.206 319.413
L474.653 285.377
L475.099 319.322
L475.546 292.279
L475.992 319.246
L476.438 310.25
L476.885 317.598
L477.331 318.151
L478.67 318.908
L479.117 317.614
L479.563 317.796
L480.01 319.138
L480.456 298.537
L480.902 309.103
L481.349 304.236
L481.795 319.366
L482.242 318.059
L482.688 294.679
L483.134 317.935
L483.581 314.796
L484.027 319.425
L484.474 310.203
L484.92 313.398
L485.366 310.51
L486.259 283.289
L486.706 316.799
L487.152 310.877
L487.598 307.359
L488.045 318.448
L488.491 317.527
L488.938 317.77
L489.384 318.853
L489.83 309.479
L490.277 319.267
L490.723 319.107
L491.17 305.923
L491.616 320.201
L492.062 317.856
L492.509 303.898
L492.955 297.429
L493.402 308.875
L493.848 315.338
L494.294 316.974
L494.741 309.786
L495.187 318.665
L495.634 318.09
L496.08 309.323
L496.526 318.221
L496.973 318.017
L497.419 298.955
L497.866 317.767
L498.312 318.152
L498.758 317.228
L499.205 318.244
L499.651 303.013
L500.098 318.875
L500.544 303.372
L500.99 317.46
L501.437 318.574
L501.883 317.704
L502.33 301.5
L502.776 308.661
L503.222 302.587
L503.669 319.544
L504.115 297.057
L504.562 318.607
L505.008 319.173
L505.454 318.043
L505.901 318.866
L506.347 309.005
L506.794 318.322
L507.24 317.977
L507.686 293.316
L508.133 318.24
L508.579 318.079
L509.026 309.363
L509.472 303.351
L509.918 318.449
L510.365 286.448
L510.811 310.177
L511.258 293.675
L511.704 317.938
L512.15 317.568
L512.597 319.37
L513.043 310.367
L513.49 306.96
L513.936 318.735
L514.382 291.934
L514.829 319.654
L515.275 318.973
L515.722 312.182
L516.168 318.616
L516.614 317.914
L517.061 313.278
L517.507 319.012
L517.954 276.182
L517.954 276.182" style="fill:none;stroke:#ff0000;"/>
   </g>
   <g id="line2d_2">
    <path clip-path="url(#p7ff5b81e1d)" d="
M72 243.161
L72.4464 226.575
L72.8928 266.287
L73.3392 316.954
L73.7856 298.82
L74.232 266.023
L75.1248 268.602
L75.5712 267.057
L76.0176 267.771
L76.464 317.855
L76.9104 268.902
L77.3568 267.432
L77.8032 268.466
L78.2496 268.155
L78.696 267.243
L79.1424 318.49
L79.5888 318.923
L80.0352 268.612
L80.4816 268.195
L80.928 319.867
L81.3744 268.528
L81.8208 268.265
L82.2672 318.779
L82.7136 268.049
L83.16 317.184
L83.6064 301.709
L84.0528 318.551
L84.4992 318.77
L84.9456 295.834
L85.392 265.765
L85.8384 317.755
L86.2848 266.924
L86.7312 266.173
L87.1776 265.914
L87.624 267.465
L88.0704 301.169
L88.5168 267.439
L89.4096 318.465
L89.856 317.967
L90.3024 242.681
L90.7488 317.233
L91.1952 266.805
L91.6416 266.498
L92.088 266.427
L92.5344 316.231
L92.9808 317.759
L93.4272 263.585
L93.8736 318.019
L94.32 267.436
L94.7664 266.486
L95.2128 267.391
L95.6592 317.025
L96.1056 311.137
L96.552 266.648
L96.9984 237.16
L97.4448 316.943
L97.8912 268.031
L98.3376 267.19
L98.784 318.082
L99.2304 318.899
L99.6768 316.667
L100.123 306.691
L100.57 282.458
L101.016 318.46
L101.462 251.092
L101.909 318.001
L102.355 298.717
L102.802 318.932
L103.248 318.446
L103.694 267.464
L105.034 318.576
L105.48 303.461
L105.926 317.754
L106.373 266.531
L106.819 318.358
L107.266 318.327
L107.712 299.657
L108.158 318.527
L108.605 318.522
L109.051 317.948
L109.498 296.903
L109.944 301.917
L110.39 318.453
L110.837 252.333
L111.283 315.963
L111.73 318.321
L112.176 317.966
L112.622 318.091
L113.069 247.872
L113.515 301.852
L113.962 317.104
L114.408 301.474
L114.854 310.811
L115.301 252.07
L115.747 302.674
L116.194 301.044
L116.64 267.746
L117.086 317.506
L117.533 317.971
L117.979 318.811
L118.426 294.673
L118.872 318.846
L119.318 268.278
L119.765 318.351
L120.211 296.268
L120.658 267.477
L121.104 287.737
L121.997 318.353
L122.443 319.039
L122.89 318.093
L123.336 318.716
L123.782 267.321
L124.229 317.138
L124.675 319.298
L125.122 318.383
L125.568 296.272
L126.014 317.624
L126.461 317.739
L126.907 318.775
L127.354 298.963
L127.8 319.43
L128.246 317.935
L128.693 319.533
L129.139 249.258
L129.586 310.684
L130.032 318.77
L130.478 228.581
L130.925 298.095
L131.371 318.33
L131.818 293.829
L132.264 309.702
L132.71 317.455
L133.157 303.551
L133.603 265.466
L134.05 317.338
L134.496 318.177
L134.942 296.355
L135.389 319.454
L135.835 317.105
L136.282 285.048
L136.728 319.085
L137.174 317.525
L137.621 317.531
L138.514 302.055
L138.96 307.895
L139.406 318.055
L139.853 265.863
L140.299 318.587
L140.746 305.673
L141.192 309.519
L141.638 317.958
L142.085 303.564
L142.531 318.67
L142.978 317.565
L143.424 302.201
L143.87 300.864
L144.317 319.884
L144.763 311.235
L145.21 318.006
L145.656 317.66
L146.102 286.702
L146.549 317.086
L146.995 317.997
L147.442 300.917
L147.888 317.881
L148.334 298.265
L148.781 317.601
L149.227 292.161
L149.674 318.271
L150.12 301.872
L150.566 308.144
L151.013 310.222
L151.459 296.149
L151.906 310.317
L152.352 310.386
L152.798 301.565
L153.245 318.714
L153.691 291.342
L154.138 301.254
L154.584 318.792
L155.03 317.68
L155.477 301.423
L155.923 315.355
L156.37 309.196
L156.816 309.552
L157.262 295.256
L157.709 319.026
L158.155 290.738
L158.602 310.842
L159.048 318.958
L159.494 302.149
L159.941 319.184
L160.834 298.682
L161.28 310.424
L161.726 319.014
L162.173 301.221
L162.619 302.498
L163.066 285.053
L163.512 318.656
L163.958 302.072
L164.405 307.615
L164.851 310.386
L165.298 297.305
L165.744 319.008
L166.19 319.225
L166.637 318.575
L167.083 308.774
L167.53 308.457
L167.976 317.825
L168.422 317.349
L168.869 295.584
L169.315 317.419
L169.762 302.239
L170.654 318.205
L171.101 318.711
L171.547 288.532
L171.994 305.984
L172.44 309.873
L172.886 309.821
L173.333 306.905
L173.779 310.622
L174.226 318.827
L174.672 296.247
L175.118 317.753
L175.565 319.106
L176.011 293.46
L176.458 317.367
L176.904 310.416
L177.35 318.635
L177.797 300.747
L178.69 319
L179.136 278.916
L179.582 293.125
L180.029 316.372
L180.475 317.62
L180.922 281.688
L181.368 310.316
L181.814 317.368
L182.261 273.987
L182.707 317.703
L183.154 295.831
L183.6 308.96
L184.046 318.151
L184.493 259.01
L184.939 303.892
L185.386 317.332
L185.832 317.717
L186.278 317.795
L186.725 288.822
L187.171 317.795
L187.618 309.89
L188.064 305.497
L188.51 317.508
L188.957 317.715
L189.403 317.745
L189.85 298.979
L190.296 317.823
L190.742 318.409
L191.189 288.727
L191.635 317.675
L192.082 289.972
L192.528 318.272
L192.974 318.169
L193.421 289.753
L193.867 309.532
L194.314 318.482
L194.76 288.237
L195.206 309.472
L195.653 291.006
L196.099 318.137
L196.546 317.118
L196.992 286.562
L197.438 319.169
L197.885 318.312
L198.331 295.224
L198.778 318.782
L199.224 319.382
L199.67 318.293
L200.117 311.146
L200.563 318.076
L201.01 319.244
L201.456 300.415
L201.902 317.393
L202.349 317.873
L202.795 318.188
L203.242 316.839
L203.688 300.358
L204.134 318.013
L204.581 317.709
L205.027 317.247
L205.474 295.297
L205.92 309.946
L206.366 317.803
L206.813 301.572
L207.259 317.476
L207.706 309.372
L208.152 298.055
L208.598 309.935
L209.045 310.607
L209.491 303.773
L209.938 319.494
L210.384 301.499
L210.83 317.865
L211.277 313.564
L211.723 318.563
L212.17 317.728
L212.616 296.148
L213.062 318.627
L213.509 317.19
L213.955 318.865
L214.402 306.759
L214.848 318.261
L215.294 318.137
L215.741 317.352
L216.187 286.315
L216.634 317.576
L217.08 292.138
L217.526 318.451
L217.973 276.018
L218.419 301.969
L218.866 318.793
L219.312 288.082
L219.758 317.954
L220.205 295.346
L220.651 318.754
L221.098 318.316
L221.544 318.689
L221.99 291.192
L222.437 317.043
L222.883 285.915
L223.33 309.324
L223.776 293.074
L224.222 309.838
L224.669 318.449
L225.115 284.766
L225.562 318.396
L226.008 310.267
L226.454 306.72
L226.901 319.117
L227.347 318.72
L227.794 319.075
L228.24 317.451
L228.686 309.813
L229.133 309.683
L229.579 318.407
L230.026 310.3
L230.472 307.096
L230.918 309.568
L231.365 318.872
L231.811 287.132
L232.258 319.118
L232.704 318.15
L233.15 294.368
L233.597 317.55
L234.49 297.86
L234.936 318.483
L235.382 301.202
L235.829 308.315
L236.275 309.248
L236.722 316.492
L237.168 318.629
L237.614 309.772
L238.507 318.251
L238.954 317.619
L239.4 299.903
L239.846 307.665
L240.293 310.155
L240.739 296.292
L241.186 317.51
L241.632 317.8
L242.078 317.553
L242.525 290.477
L242.971 318.569
L243.418 308.522
L243.864 306.809
L244.31 309.633
L244.757 309.631
L245.203 306.366
L245.65 318.453
L246.096 302.279
L246.542 308.764
L246.989 309.23
L247.435 318.056
L247.882 288.684
L248.328 310.166
L248.774 269.424
L249.221 318.745
L249.667 317.158
L250.114 299.822
L250.56 318.071
L251.006 302.628
L251.453 318.781
L251.899 317.9
L252.346 262.374
L252.792 318.818
L253.238 318.516
L253.685 288.065
L254.131 318.829
L254.578 318.429
L255.024 310.173
L255.47 315.181
L255.917 318.794
L256.363 304.222
L256.81 308.556
L257.256 316.946
L257.702 317.305
L258.149 318.355
L258.595 283.206
L259.042 302.216
L259.488 302.486
L259.934 318.289
L260.381 319.502
L260.827 293.346
L261.274 318.779
L261.72 318.308
L262.166 319.29
L262.613 304.97
L263.059 308.466
L263.506 310.298
L263.952 317.381
L264.398 309.908
L264.845 310.669
L265.291 308.115
L265.738 318.802
L266.184 309.906
L266.63 298.304
L267.077 318.783
L267.97 298.678
L268.416 318.966
L268.862 318.526
L269.309 296.477
L269.755 310.621
L270.202 318.424
L271.094 297.263
L271.541 317.14
L271.987 298.253
L272.434 309.475
L272.88 299.358
L273.326 318.299
L273.773 317.144
L274.219 309.469
L274.666 317.801
L275.112 309.543
L275.558 295.464
L276.005 308.937
L276.451 317.606
L276.898 293.849
L277.344 300.312
L277.79 301.786
L278.237 317.654
L278.683 317.629
L279.13 293.5
L279.576 317.743
L280.022 318.196
L280.469 293.869
L280.915 318.981
L281.362 308.72
L281.808 316.638
L282.254 308.949
L282.701 311.791
L283.147 317.893
L283.594 318.055
L284.04 310.972
L284.486 309.63
L284.933 309.699
L285.379 309.557
L285.826 318.231
L286.272 317.868
L286.718 317.044
L287.165 294.963
L287.611 310.675
L288.058 297.229
L288.504 317.992
L288.95 318.524
L289.397 317.842
L289.843 302.501
L290.29 318.455
L290.736 318.047
L291.182 318.155
L291.629 308.17
L292.075 309.426
L292.522 301.387
L292.968 312.014
L293.414 318.563
L293.861 302.082
L294.307 306.54
L294.754 318.592
L295.2 318.237
L295.646 318.581
L296.093 305.796
L296.539 319.263
L296.986 318.366
L297.432 319.036
L297.878 300.108
L298.325 318.486
L298.771 318.784
L299.218 310.08
L299.664 313.667
L300.11 318.691
L300.557 310.418
L301.003 293.439
L301.45 319.497
L301.896 310.326
L302.342 289.198
L302.789 310.566
L303.235 291.6
L303.682 318.162
L304.128 318.239
L304.574 291.469
L305.021 309.892
L305.467 318.484
L305.914 306.986
L306.36 318.015
L306.806 318.332
L307.253 288.98
L307.699 311.012
L308.146 291.989
L308.592 301.668
L309.038 319.365
L309.485 305.915
L309.931 318.826
L310.378 256.541
L310.824 317.032
L311.27 297.291
L311.717 318.168
L312.163 293.246
L312.61 301.903
L313.056 279.633
L313.502 318.241
L313.949 318.181
L314.395 317.843
L314.842 289.17
L315.288 318.555
L315.734 309.018
L316.181 306.776
L316.627 318.87
L317.074 294.177
L317.52 310.497
L317.966 317.595
L318.413 317.695
L318.859 293.72
L319.306 318.143
L319.752 303.82
L320.198 309.637
L320.645 317.423
L321.091 317.526
L321.538 317.966
L321.984 296.96
L322.43 318.806
L322.877 302.272
L323.323 318.452
L323.77 313.453
L324.216 318.64
L324.662 301.588
L325.109 298.095
L325.555 317.491
L326.002 317.985
L326.448 299.617
L326.894 318.806
L327.341 309.015
L327.787 316.649
L328.234 309.999
L328.68 318.527
L329.126 299.029
L329.573 317.244
L330.019 318.135
L330.466 286.803
L330.912 301.763
L331.358 303.814
L331.805 317.765
L332.251 318.075
L332.698 318.923
L333.144 318.151
L333.59 296.997
L334.037 318.104
L334.483 291.087
L334.93 314.801
L335.376 317.877
L335.822 317.936
L336.269 294.159
L336.715 319.434
L337.608 298.572
L338.054 309.056
L338.501 291.113
L338.947 318.435
L339.84 301.472
L340.286 308.95
L340.733 318.301
L341.179 293.876
L341.626 293.157
L342.072 310.139
L342.518 309.081
L342.965 318.211
L343.411 302.004
L343.858 310.107
L344.304 293.577
L344.75 310.709
L345.197 309.445
L345.643 299.618
L346.09 319.004
L346.536 318.459
L346.982 318.917
L347.429 306.722
L347.875 317.792
L348.322 310.259
L348.768 294.829
L349.214 311.326
L349.661 302.908
L350.107 312.25
L350.554 318.135
L351 317.346
L351.446 288.384
L351.893 309.16
L352.339 294.167
L352.786 317.854
L353.232 318.022
L353.678 278.781
L354.125 309.117
L354.571 300.028
L355.018 317.851
L355.464 318.03
L355.91 293.933
L356.357 317.923
L357.25 302.478
L357.696 300.919
L358.142 285.275
L358.589 309.697
L359.035 299.603
L359.482 317.63
L359.928 317.752
L360.374 316.152
L360.821 318.638
L361.267 318.113
L361.714 314.918
L362.16 318.78
L363.053 303.257
L363.499 301.932
L363.946 310.925
L364.392 317.145
L364.838 317.959
L365.285 319.206
L365.731 318.2
L366.178 301.398
L366.624 318.763
L367.07 309.875
L367.517 238.082
L367.963 310.302
L368.41 318.506
L368.856 304.569
L369.302 318.48
L369.749 318.182
L370.195 286.014
L370.642 318.852
L371.088 302.404
L371.534 319.044
L371.981 311.02
L372.427 318.52
L372.874 303.277
L373.32 319.001
L373.766 294.976
L374.213 317.761
L375.106 301.665
L375.552 310.551
L375.998 303.575
L376.445 310.294
L376.891 280.618
L377.338 310.55
L377.784 298.266
L378.23 318.041
L379.123 304.29
L379.57 310.445
L380.016 318.821
L380.462 293.034
L380.909 319.148
L381.355 318.443
L381.802 318.23
L382.248 319.292
L382.694 186.954
L383.141 147.51
L383.587 301.895
L384.48 318.691
L384.926 296.194
L385.373 319.434
L385.819 319.279
L386.266 294.515
L386.712 280.937
L387.158 317.724
L387.605 308.702
L388.051 318.132
L388.498 308.843
L388.944 317.497
L389.39 309.648
L389.837 317.977
L390.283 316.044
L390.73 310.712
L391.176 318.265
L391.622 308.449
L392.069 318.343
L392.515 310.428
L392.962 300.139
L393.854 317.856
L394.301 287.235
L394.747 318.091
L395.194 300.803
L395.64 318.076
L396.086 303.395
L396.533 313.672
L396.979 317.311
L397.426 317.854
L397.872 319.089
L398.318 317.614
L398.765 297.922
L399.211 302.223
L400.104 318.089
L400.55 318.207
L400.997 310.281
L401.443 306.958
L401.89 319.385
L402.336 301.698
L402.782 318.513
L403.229 319.295
L403.675 313.663
L404.122 293.227
L404.568 318.82
L405.014 310.282
L405.461 312.139
L405.907 318.854
L406.8 297.6
L407.246 310.604
L407.693 291.026
L408.139 310.583
L408.586 294.569
L409.032 294.2
L409.478 319.384
L409.925 318.944
L410.371 294.331
L410.818 310.802
L411.264 318.277
L411.71 310.587
L412.157 319.302
L412.603 309.887
L413.05 306.454
L413.496 318.755
L413.942 319.004
L414.389 318.585
L414.835 292.913
L415.282 319.464
L415.728 318.719
L416.174 298.248
L416.621 319.073
L417.067 318.797
L417.514 319.194
L417.96 307.614
L418.406 318.859
L418.853 301.542
L419.299 307.504
L419.746 190.502
L420.192 319.681
L420.638 303.017
L421.085 317.652
L421.531 316.162
L421.978 318.529
L422.424 318.515
L422.87 294.645
L423.317 308.995
L423.763 317.568
L424.21 298.395
L424.656 300.918
L425.102 318.956
L425.549 301.554
L425.995 318.959
L426.442 290.704
L426.888 319.077
L427.334 318.58
L427.781 292.933
L428.227 310.354
L428.674 317.69
L429.12 301.05
L429.566 292.681
L430.013 310.184
L430.459 316.461
L430.906 317.368
L431.352 317.889
L431.798 317.468
L432.245 309.363
L432.691 308.878
L433.138 314.608
L433.584 318.164
L434.03 318.058
L434.477 281.381
L434.923 309.898
L435.37 292.032
L435.816 291.726
L436.262 308.837
L436.709 311.371
L437.155 317.636
L438.048 302.179
L438.494 318.008
L438.941 318.501
L439.387 298.498
L439.834 269.795
L440.28 287.392
L440.726 318.42
L441.173 318.217
L441.619 285.899
L442.066 309.979
L442.512 293.294
L442.958 318.195
L443.405 317.329
L443.851 278.861
L444.298 318.92
L444.744 292.6
L445.19 318.766
L446.083 301.885
L446.53 318.549
L446.976 317.906
L447.422 309.904
L447.869 316.904
L448.315 318.469
L448.762 301.566
L449.208 303.696
L449.654 318.863
L450.101 318.692
L450.547 291.672
L450.994 318.37
L451.44 318.431
L451.886 293.177
L452.333 318.851
L452.779 316.806
L453.226 296.899
L453.672 308.526
L454.118 295.906
L454.565 317.531
L455.011 309.478
L455.458 311.591
L455.904 317.817
L456.35 309.673
L456.797 295.119
L457.243 317.853
L457.69 317.829
L458.136 302.548
L458.582 317.892
L459.029 317.139
L459.475 297.535
L459.922 318.041
L460.368 318.205
L460.814 289.857
L461.261 310.009
L461.707 317.629
L462.154 294.901
L462.6 316.547
L463.046 289.953
L463.493 318.957
L463.939 317.738
L464.386 234.134
L464.832 318.235
L465.278 318.749
L465.725 292.064
L466.171 310.021
L466.618 310.096
L467.064 298.808
L467.51 318.83
L467.957 318.646
L468.403 297.361
L468.85 318.932
L469.296 318.543
L469.742 317.94
L470.189 291.915
L470.635 310.269
L471.082 273.879
L471.528 319.931
L471.974 286.592
L472.421 310.633
L472.867 301.79
L473.314 308.632
L473.76 309.99
L474.206 295.026
L474.653 318.454
L475.099 318.682
L475.546 302.184
L476.438 318.818
L476.885 298.681
L477.331 319.426
L477.778 309.876
L478.224 297.157
L478.67 310.15
L479.117 310.478
L479.563 306.173
L480.01 310.59
L480.456 298.546
L481.349 318.81
L481.795 281.558
L482.242 317.055
L482.688 302.926
L483.134 317.507
L483.581 316.889
L484.027 286.011
L484.474 318.932
L484.92 317.79
L485.366 300.597
L485.813 318.392
L486.259 317.529
L486.706 318.239
L487.152 305.082
L487.598 309.569
L488.045 318.04
L488.491 301.175
L488.938 318.736
L489.384 317.845
L489.83 293.5
L490.277 310.217
L490.723 319.55
L491.17 296.838
L491.616 310.139
L492.062 318.65
L492.509 236.382
L492.955 317.806
L493.402 318.278
L493.848 285.978
L494.294 318.446
L494.741 318.706
L495.187 301.568
L495.634 318.144
L496.08 284.978
L496.526 309.847
L496.973 292.627
L497.419 310.21
L497.866 318.381
L498.312 310.144
L498.758 306.482
L499.205 318.48
L499.651 318.239
L500.098 304.561
L500.544 319.505
L501.437 303.839
L501.883 319.511
L502.33 317.293
L502.776 259.845
L503.222 301.966
L503.669 318.12
L504.115 317.812
L504.562 299.562
L505.008 309.026
L505.454 295.31
L505.901 318.289
L506.347 317.381
L506.794 300.395
L507.24 301.992
L507.686 318.015
L508.133 309.43
L508.579 310.179
L509.026 309.874
L509.918 318.334
L510.365 318.616
L510.811 299.834
L511.258 300.911
L511.704 318.733
L512.15 308.991
L512.597 309.536
L513.043 297.57
L513.49 319.576
L513.936 317.01
L514.382 299.865
L514.829 317.909
L515.275 317.614
L515.722 293.187
L516.168 302.428
L516.614 318.891
L517.061 309.76
L517.507 318.508
L517.954 289.133
L517.954 289.133" style="fill:none;opacity:0.7;stroke:#008000;"/>
   </g>
   <g id="line2d_3">
    <path clip-path="url(#p7ff5b81e1d)" d="
M72 254.941
L72.4464 132.07
L72.8928 263.98
L73.3392 263.502
L73.7856 314.053
L74.232 262.133
L74.6784 311.521
L75.1248 303.282
L75.5712 249.224
L76.0176 264.035
L76.464 221.643
L76.9104 301.507
L77.3568 250.147
L77.8032 259.158
L78.2496 259.495
L78.696 252.672
L79.1424 264.673
L79.5888 261.629
L80.0352 281.391
L80.928 250.229
L81.3744 267.074
L81.8208 250.914
L82.2672 250.589
L82.7136 305.338
L83.16 303.271
L83.6064 257.643
L84.0528 297.318
L84.4992 315.836
L84.9456 252.804
L85.392 250.311
L85.8384 259.61
L86.2848 243.897
L86.7312 315.718
L87.1776 305.993
L87.624 316.606
L88.0704 304.886
L88.5168 249.529
L88.9632 315.781
L89.4096 315.263
L89.856 313.644
L90.3024 303.265
L90.7488 304.124
L91.1952 263.803
L91.6416 237.881
L92.088 303.857
L92.5344 261.465
L92.9808 255.572
L93.4272 304.648
L93.8736 303.127
L94.32 303.364
L94.7664 303.203
L95.2128 232.044
L95.6592 254.501
L96.1056 252.252
L96.552 301.765
L96.9984 258.699
L97.4448 297.283
L97.8912 301.847
L98.3376 315.185
L98.784 309.476
L99.2304 263.389
L99.6768 308.836
L100.123 303.843
L100.57 263.994
L101.016 309.271
L101.462 262.33
L101.909 264.788
L102.355 312.88
L102.802 303.464
L103.248 307.014
L103.694 303.775
L104.141 249.472
L104.587 315.583
L105.034 260.72
L105.48 314.409
L105.926 301.414
L106.373 247.334
L106.819 308.576
L107.266 304.059
L107.712 314.367
L108.158 308.997
L108.605 314.644
L109.051 308.169
L109.498 303.668
L109.944 303.551
L110.39 314.76
L110.837 309.309
L111.283 314.973
L111.73 315.372
L112.176 242.418
L112.622 314.675
L113.069 305.749
L113.515 305.307
L113.962 250.427
L114.408 314.521
L115.301 303.354
L115.747 303.103
L116.194 263.651
L116.64 307.572
L117.086 315.304
L117.533 239.909
L117.979 301.077
L118.426 302.144
L118.872 248.748
L119.318 303.257
L119.765 315.754
L120.211 317.04
L120.658 308.196
L121.104 301.562
L121.55 314.467
L121.997 287.934
L122.443 307.536
L122.89 315.747
L123.336 306.108
L123.782 301.134
L124.229 301.406
L124.675 249.929
L125.122 299.84
L125.568 315.003
L126.014 315.063
L126.461 300.239
L126.907 302.191
L127.354 284.086
L127.8 303.213
L128.246 302.283
L128.693 315.675
L129.139 306.169
L129.586 302.409
L130.032 316.331
L130.478 305.324
L130.925 312.151
L131.371 291.522
L131.818 302.129
L132.264 301.859
L132.71 300.987
L133.157 316.58
L133.603 307.344
L134.05 316.383
L134.496 305.296
L134.942 302.557
L135.389 301.242
L135.835 301.495
L136.282 316.559
L136.728 305.806
L137.174 303.376
L137.621 301.705
L138.067 307.968
L138.514 292.353
L138.96 306.972
L139.406 303.079
L139.853 259.777
L140.299 312.364
L140.746 286.123
L141.192 302.704
L141.638 314.448
L142.085 307.765
L142.531 315.439
L142.978 289.7
L143.87 315.209
L144.317 314.795
L144.763 312.774
L145.21 303.77
L145.656 74.2498
L146.549 302.805
L146.995 308.152
L147.442 316.371
L147.888 299.146
L148.334 317.043
L148.781 304.084
L149.227 301.807
L149.674 315.612
L150.12 305.801
L150.566 302.453
L151.459 301.651
L151.906 250.286
L152.352 302.016
L152.798 301.886
L153.245 307.941
L153.691 292.515
L154.138 314.561
L154.584 305.161
L155.03 306.152
L155.477 310.35
L155.923 303.711
L156.37 302.795
L156.816 302.834
L157.262 302.746
L157.709 261.571
L158.155 292.938
L158.602 302.546
L159.048 302.626
L159.494 302.483
L159.941 286.105
L160.387 316.411
L160.834 315.216
L161.28 306.686
L161.726 305.309
L162.173 306.575
L162.619 303.521
L163.066 303.431
L163.512 315.46
L163.958 307.122
L164.405 314.474
L165.298 303.599
L165.744 306.331
L166.19 299.986
L166.637 303.286
L167.083 301.976
L167.976 304.535
L168.422 301.538
L168.869 303.821
L169.762 302.602
L170.208 304.172
L170.654 302.902
L171.101 302.439
L171.547 302.833
L171.994 307.71
L172.44 299.912
L172.886 303.021
L173.333 315.073
L173.779 307.793
L174.226 306.459
L174.672 315.564
L175.118 304.867
L175.565 315.471
L176.011 290.179
L176.458 303.122
L176.904 302.994
L177.35 302.281
L177.797 314.371
L178.243 291.201
L178.69 314.983
L179.582 302.551
L180.029 314.518
L180.475 290.836
L180.922 314.463
L181.368 305.535
L181.814 305.685
L182.261 303.55
L182.707 303.18
L183.154 267.602
L183.6 315.297
L184.046 314.764
L184.493 312.809
L184.939 315.052
L185.386 308.3
L185.832 315.046
L186.278 309.103
L186.725 304.77
L187.171 302.789
L187.618 302.854
L188.064 303.568
L188.51 302.051
L188.957 263.209
L189.403 305.89
L189.85 306.883
L190.296 312.982
L190.742 292.123
L191.189 315.668
L191.635 316.624
L192.082 293.409
L192.528 301.419
L192.974 301.215
L193.421 301.699
L193.867 301.263
L194.314 302.546
L194.76 301.596
L195.206 303.684
L195.653 300.994
L196.099 301.441
L196.546 302.054
L197.438 301.475
L197.885 302.552
L198.331 302.555
L198.778 301.606
L199.224 302.379
L199.67 301.862
L200.117 301.837
L200.563 315.878
L201.01 305.349
L201.456 302.405
L201.902 301.163
L202.349 302.474
L202.795 316.132
L203.242 315.7
L203.688 292.642
L204.134 302.419
L204.581 301.639
L205.027 315.909
L205.474 288.565
L205.92 302.551
L206.366 306.712
L206.813 306.321
L207.259 314.813
L207.706 306.818
L208.152 315.455
L208.598 308.454
L209.045 303.29
L209.491 314.361
L209.938 308.099
L210.384 305.723
L210.83 299.549
L211.277 303.847
L211.723 302.916
L212.17 302.312
L212.616 303.154
L213.062 315.286
L213.955 303.269
L214.402 302.052
L214.848 304.197
L215.294 302.329
L216.187 303.6
L216.634 302.16
L217.08 306.457
L217.526 298.569
L217.973 301.109
L218.419 308.224
L218.866 296.405
L219.312 308.802
L219.758 317.306
L220.205 298.089
L220.651 301.903
L221.098 301.337
L221.544 302.589
L221.99 308.868
L222.437 312.096
L222.883 302.026
L223.33 301.656
L223.776 301.742
L224.222 302.349
L224.669 301.304
L225.115 301.814
L225.562 302.571
L226.008 308.49
L226.454 316.59
L226.901 297.85
L227.347 301.765
L227.794 301.564
L228.24 301.157
L228.686 302.129
L229.133 317.079
L229.579 316.288
L230.026 316.281
L230.472 313.644
L230.918 316.223
L231.365 316.813
L232.258 299.732
L232.704 283.495
L233.15 316.185
L233.597 292.936
L234.043 314.178
L234.49 314.349
L234.936 314.977
L235.382 314.698
L235.829 314.854
L236.275 316.271
L236.722 298.799
L237.168 315.613
L237.614 307.187
L238.061 304.657
L238.507 292.642
L238.954 314.823
L239.4 299.533
L239.846 314.3
L240.293 282.548
L240.739 316.584
L241.186 300.143
L241.632 316.735
L242.078 316.301
L242.525 308.211
L242.971 315.875
L243.418 293.589
L243.864 312.77
L244.31 314.962
L245.203 300.006
L245.65 314.444
L246.096 306.886
L246.542 307.679
L246.989 313.629
L247.435 304.897
L247.882 301.095
L248.328 307.174
L248.774 303.275
L249.221 316.138
L249.667 315.979
L250.114 307.808
L250.56 314.71
L251.006 307.011
L251.453 307.743
L251.899 298.387
L252.346 316.358
L252.792 308.546
L253.238 308.009
L253.685 314.226
L254.578 316.523
L255.024 306.878
L255.47 315.815
L255.917 290.961
L256.363 316.187
L256.81 315.879
L257.256 307.249
L257.702 306.677
L258.149 316.634
L258.595 316.998
L259.042 315.629
L259.488 317.645
L259.934 315.932
L260.381 317.087
L260.827 316.392
L261.274 311.387
L261.72 313.249
L262.166 315.766
L262.613 308.199
L263.059 308.394
L263.506 298.93
L263.952 300.464
L264.398 316.162
L264.845 303.856
L265.291 316.03
L265.738 298.481
L266.184 315.173
L266.63 301.325
L267.077 316.724
L267.523 315.699
L267.97 316.369
L268.416 308.55
L268.862 316.602
L269.309 306.75
L269.755 316.505
L270.202 315.213
L270.648 308.631
L271.094 316.657
L271.541 315.839
L271.987 308.46
L272.434 308.35
L272.88 316.26
L273.326 309.011
L273.773 304.796
L274.219 314.994
L274.666 316.416
L275.112 311.49
L275.558 316.249
L276.005 309.455
L276.451 306.728
L276.898 305.177
L277.344 316.01
L277.79 315.138
L278.237 316.438
L278.683 316.764
L279.13 316.251
L279.576 314.969
L280.022 316.568
L280.469 295.095
L280.915 315.946
L281.362 315.725
L281.808 297.438
L282.254 306.985
L282.701 312.024
L283.147 307.557
L283.594 316.046
L284.04 317.017
L284.486 311.184
L284.933 316.243
L285.379 307.238
L285.826 307.138
L286.272 315.382
L286.718 315.508
L287.611 298.73
L288.504 315.81
L288.95 304.284
L289.397 307.904
L289.843 314.965
L290.29 315.595
L290.736 315.137
L291.182 315.823
L291.629 316.253
L292.075 306.997
L292.522 316.173
L292.968 291.484
L293.861 316.004
L294.307 317.653
L294.754 316.359
L295.2 316.638
L295.646 308.003
L296.093 317.144
L296.539 307.747
L296.986 316.995
L297.878 308.119
L298.325 315.136
L298.771 316.472
L299.218 277.177
L299.664 316.431
L300.11 315.537
L300.557 306.246
L301.003 315.393
L301.45 316.962
L301.896 315.903
L302.342 306.517
L302.789 315.211
L303.235 313.276
L303.682 315.418
L304.128 316.066
L304.574 316.115
L305.021 316.512
L305.467 307.496
L305.914 314.089
L306.36 307.715
L306.806 317.3
L307.253 311.49
L307.699 298.829
L308.146 300.837
L308.592 316.116
L309.038 290.91
L309.485 315.704
L309.931 316.068
L310.378 315.986
L310.824 316.298
L311.27 305.624
L311.717 300.483
L312.163 316.696
L312.61 314.934
L313.056 315.811
L313.502 315.715
L313.949 307.045
L314.395 315.448
L314.842 308.37
L315.288 295.661
L315.734 315.462
L316.181 315.012
L316.627 317.121
L317.074 288.001
L317.52 311.014
L317.966 316.338
L318.413 288.814
L318.859 307.388
L319.306 316.126
L319.752 307.234
L320.198 316.257
L320.645 307.606
L321.091 307.28
L321.538 316.978
L321.984 315.761
L322.43 315.399
L322.877 307.676
L323.323 304.846
L323.77 310.548
L324.216 314.635
L324.662 308.079
L325.109 304.158
L325.555 315.979
L326.002 316.818
L326.448 316.97
L326.894 297.585
L327.341 316.237
L327.787 305.766
L328.234 316.407
L328.68 308.794
L329.126 316.786
L329.573 305.356
L330.019 316.344
L330.466 316.192
L330.912 316.349
L331.358 312.94
L331.805 316.22
L332.251 313.855
L332.698 316.625
L333.144 310.476
L333.59 308.311
L334.037 298.739
L334.483 313.918
L334.93 314.648
L335.376 297.944
L335.822 315.835
L336.269 307.122
L336.715 291.363
L337.162 314.261
L337.608 312.899
L338.054 316.375
L338.501 308.753
L338.947 308.016
L339.394 315.923
L339.84 302.287
L340.286 313.08
L340.733 315.632
L341.179 316.012
L341.626 313.29
L342.072 287.558
L342.518 316.383
L342.965 315.209
L343.411 316.229
L343.858 305.074
L344.304 316.015
L344.75 310.547
L345.197 314.472
L345.643 315.291
L346.09 306.755
L346.536 313.151
L346.982 305.531
L347.429 315.324
L347.875 316.315
L348.322 315.177
L348.768 315.547
L349.214 306.284
L349.661 288.509
L350.107 306.776
L350.554 300.005
L351 308.519
L351.446 308.403
L351.893 316.363
L352.339 315.118
L352.786 315.073
L353.678 300.588
L354.125 316.099
L354.571 316.671
L355.018 315.242
L355.464 315.936
L355.91 297.576
L356.803 316.201
L357.25 290.366
L357.696 314.426
L358.142 282.004
L358.589 316.426
L359.035 307.585
L359.482 316.286
L359.928 307.894
L360.374 317.014
L360.821 316.402
L361.267 316.072
L361.714 316.074
L362.16 304.206
L362.606 315.585
L363.053 315.687
L363.946 299.3
L364.392 315.302
L364.838 315.921
L365.285 314.302
L365.731 305.754
L366.178 314.861
L366.624 298.868
L367.07 307.556
L367.517 298.187
L367.963 316.157
L368.41 313.613
L369.302 315.788
L369.749 305.301
L370.195 316.211
L370.642 315.186
L371.088 306.928
L371.534 307.831
L371.981 307.103
L372.427 314.537
L373.32 315.44
L373.766 307.398
L374.213 315.343
L374.659 315.718
L375.106 308.159
L375.552 315.936
L375.998 316.802
L376.445 316.018
L376.891 296.502
L377.338 306.794
L377.784 308.205
L378.23 238.642
L378.677 307.61
L379.123 308.179
L379.57 315.579
L380.016 315.156
L380.462 315.569
L380.909 315.697
L381.355 304.833
L381.802 316.024
L382.248 307.873
L382.694 307.004
L383.141 314.618
L383.587 316.218
L384.034 316.199
L384.48 306.072
L384.926 316.082
L385.373 316.113
L385.819 298.823
L386.266 314.817
L386.712 315.147
L387.158 306.832
L387.605 315.984
L388.051 316.189
L388.498 315.107
L388.944 300.761
L389.39 307.765
L389.837 316.665
L390.283 307.961
L390.73 315.695
L391.176 315.807
L391.622 309.962
L392.069 314.891
L392.515 298.722
L392.962 314.859
L393.408 309.142
L393.854 316.425
L394.301 309.087
L394.747 316.245
L395.194 305.775
L395.64 303.557
L396.086 316.47
L396.533 316.217
L396.979 297.925
L397.426 314.859
L397.872 315.088
L398.318 303.301
L398.765 314.9
L399.211 314.574
L399.658 315.048
L400.104 313.962
L400.55 306.857
L400.997 315.209
L401.443 314.842
L401.89 305.128
L402.336 314.933
L402.782 315.259
L403.229 314.809
L403.675 315.048
L404.568 315.194
L405.014 295.655
L405.907 314.317
L406.354 314.787
L406.8 314.303
L407.246 314.625
L407.693 290.163
L408.139 314.861
L408.586 315.461
L409.032 298.42
L409.478 301.314
L409.925 314.95
L410.371 313.634
L410.818 298.225
L411.71 315.355
L412.157 316.803
L412.603 316.42
L413.05 316.569
L413.496 317.14
L413.942 308.814
L414.389 316.251
L414.835 315.973
L415.282 303.372
L415.728 316.008
L416.174 307.508
L416.621 308.109
L417.067 278.317
L417.514 303.916
L417.96 308.343
L418.406 316.901
L418.853 315.751
L419.299 291.321
L419.746 315.499
L420.638 314.498
L421.085 314.41
L421.531 311.456
L421.978 316.072
L422.424 298.435
L422.87 314.661
L423.317 306.744
L423.763 307.177
L424.21 298.881
L424.656 316.424
L425.102 287.252
L425.549 316.6
L425.995 314.228
L426.442 297.625
L426.888 314.283
L427.334 316.037
L427.781 298.13
L428.227 305.409
L428.674 315.357
L429.12 307.97
L429.566 315.359
L430.013 317.27
L430.459 315.807
L430.906 316.962
L431.352 307.993
L431.798 307.407
L432.245 316.091
L433.138 298.921
L433.584 315.999
L434.477 163.434
L434.923 305.46
L435.37 306.665
L435.816 302.923
L436.262 316.624
L436.709 306.354
L437.155 315.491
L437.602 299.851
L438.048 316.449
L438.494 306.651
L438.941 316.552
L439.387 300.324
L439.834 315.341
L440.28 291.887
L440.726 314.79
L441.173 315.512
L441.619 298.891
L442.066 314.041
L442.512 314.734
L442.958 314.423
L443.405 306.685
L443.851 315.261
L444.298 315.418
L444.744 306.012
L445.19 315.396
L445.637 315.64
L446.083 299.183
L446.53 316.443
L446.976 309.207
L447.422 315.297
L447.869 305.002
L448.315 313.799
L448.762 307.926
L449.208 316.019
L449.654 301.25
L450.101 313.109
L450.547 313.442
L450.994 288.52
L451.44 314.954
L451.886 314.524
L452.333 299.067
L452.779 314.991
L453.226 316.435
L453.672 316.776
L454.118 316.472
L454.565 307.179
L455.011 304.333
L455.458 307.639
L455.904 307.893
L456.35 304.767
L456.797 308.192
L457.243 305.666
L458.136 315.97
L458.582 308.04
L459.029 308.288
L459.475 308.217
L459.922 305.098
L460.368 315.604
L460.814 301.984
L461.261 317.214
L461.707 290.486
L462.154 315.034
L462.6 307.659
L463.046 312.919
L463.493 290.425
L463.939 297.418
L464.386 298.119
L464.832 315.66
L465.278 315.377
L465.725 313.948
L466.171 314.31
L466.618 315.111
L467.064 313.949
L467.51 313.6
L467.957 297.357
L468.403 316.282
L468.85 315.714
L469.296 313.506
L469.742 314.785
L470.189 314.258
L470.635 312.873
L471.082 315.19
L471.528 310.625
L471.974 315.768
L472.421 314.565
L472.867 317.011
L473.314 305.97
L473.76 306.907
L474.206 315.366
L474.653 308.004
L475.099 280.667
L475.546 316.394
L475.992 305.441
L476.438 300.899
L476.885 292.021
L477.331 314.926
L477.778 314.674
L478.224 314.286
L478.67 315.274
L479.117 315.379
L479.563 306.029
L480.01 303.434
L480.456 314.909
L480.902 315.586
L481.349 315.101
L481.795 312.674
L482.242 315.41
L482.688 306.607
L483.134 306.818
L483.581 307.275
L484.027 306.797
L484.474 315.924
L484.92 313.998
L485.366 316.099
L485.813 293.699
L486.259 314.646
L486.706 315.344
L487.152 296.752
L487.598 316.262
L488.045 316.619
L488.491 306.748
L488.938 316.125
L489.384 316.841
L489.83 315.207
L490.277 315.102
L490.723 308.055
L491.17 297.475
L491.616 315.844
L492.062 307.155
L492.509 315.796
L492.955 305.131
L493.402 315.495
L493.848 314.901
L494.294 279.39
L494.741 316.091
L495.187 316.904
L495.634 304.308
L496.08 316.412
L496.526 308.405
L496.973 316.547
L497.419 316.328
L498.312 317.183
L498.758 316.808
L499.205 316.132
L499.651 303.552
L500.098 306.715
L500.544 317.544
L500.99 307.525
L501.437 316.155
L501.883 315.983
L502.33 289.602
L502.776 315.456
L503.222 306.493
L503.669 304.034
L504.115 314.701
L504.562 306.257
L505.008 314.608
L505.454 314.78
L505.901 315.225
L506.347 306.195
L506.794 305.754
L507.24 315.749
L507.686 294.794
L508.133 315.635
L508.579 306.219
L509.026 307.392
L509.472 296.134
L509.918 313.494
L510.811 316.417
L511.258 316.06
L511.704 315.96
L512.15 314.97
L513.043 299.353
L513.49 307.364
L513.936 306.698
L514.382 305.675
L514.829 315.91
L515.275 311.643
L515.722 291.427
L516.168 306.098
L516.614 304.656
L517.061 298.95
L517.954 315.254
L517.954 315.254" style="fill:none;opacity:0.5;stroke:#0000ff;"/>
   </g>
   <g id="matplotlib.axis_1">
    <g id="xtick_1">
     <g id="line2d_4">
      <path clip-path="url(#p7ff5b81e1d)" d="
M72 388.8
L72 43.2" style="fill:none;stroke:#000000;stroke-dasharray:1.000000,3.000000;stroke-dashoffset:0.0;stroke-linecap:butt;stroke-width:0.5;"/>
     </g>
     <g id="line2d_5">
      <defs>
       <path d="
M0 0
L0 -4" id="m0012dd4eef" style="stroke:#000000;stroke-linecap:butt;stroke-width:0.5;"/>
      </defs>
      <g>
       <use style="stroke:#000000;stroke-linecap:butt;stroke-width:0.5;" x="72.0" xlink:href="#m0012dd4eef" y="388.8"/>
      </g>
     </g>
     <g id="line2d_6">
      <defs>
       <path d="
M0 0
L0 4" id="m476344969c" style="stroke:#000000;stroke-linecap:butt;stroke-width:0.5;"/>
      </defs>
      <g>
       <use style="stroke:#000000;stroke-linecap:butt;stroke-width:0.5;" x="72.0" xlink:href="#m476344969c" y="43.2"/>
      </g>
     </g>
     <g id="text_1">
      <!-- 0 -->
      <defs>
       <path d="
M31.7812 66.4062
Q24.1719 66.4062 20.3281 58.9062
Q16.5 51.4219 16.5 36.375
Q16.5 21.3906 20.3281 13.8906
Q24.1719 6.39062 31.7812 6.39062
Q39.4531 6.39062 43.2812 13.8906
Q47.125 21.3906 47.125 36.375
Q47.125 51.4219 43.2812 58.9062
Q39.4531 66.4062 31.7812 66.4062
M31.7812 74.2188
Q44.0469 74.2188 50.5156 64.5156
Q56.9844 54.8281 56.9844 36.375
Q56.9844 17.9688 50.5156 8.26562
Q44.0469 -1.42188 31.7812 -1.42188
Q19.5312 -1.42188 13.0625 8.26562
Q6.59375 17.9688 6.59375 36.375
Q6.59375 54.8281 13.0625 64.5156
Q19.5312 74.2188 31.7812 74.2188" id="BitstreamVeraSans-Roman-30"/>
      </defs>
      <g transform="translate(68.9765625 401.70625)scale(0.12 -0.12)">
       <use xlink:href="#BitstreamVeraSans-Roman-30"/>
      </g>
     </g>
    </g>
    <g id="xtick_2">
     <g id="line2d_7">
      <path clip-path="url(#p7ff5b81e1d)" d="
M116.64 388.8
L116.64 43.2" style="fill:none;stroke:#000000;stroke-dasharray:1.000000,3.000000;stroke-dashoffset:0.0;stroke-linecap:butt;stroke-width:0.5;"/>
     </g>
     <g id="line2d_8">
      <g>
       <use style="stroke:#000000;stroke-linecap:butt;stroke-width:0.5;" x="116.64" xlink:href="#m0012dd4eef" y="388.8"/>
      </g>
     </g>
     <g id="line2d_9">
      <g>
       <use style="stroke:#000000;stroke-linecap:butt;stroke-width:0.5;" x="116.64" xlink:href="#m476344969c" y="43.2"/>
      </g>
     </g>
     <g id="text_2">
      <!-- 100 -->
      <defs>
       <path d="
M12.4062 8.29688
L28.5156 8.29688
L28.5156 63.9219
L10.9844 60.4062
L10.9844 69.3906
L28.4219 72.9062
L38.2812 72.9062
L38.2812 8.29688
L54.3906 8.29688
L54.3906 0
L12.4062 0
z
" id="BitstreamVeraSans-Roman-31"/>
      </defs>
      <g transform="translate(106.245 401.70625)scale(0.12 -0.12)">
       <use xlink:href="#BitstreamVeraSans-Roman-31"/>
       <use x="63.623046875" xlink:href="#BitstreamVeraSans-Roman-30"/>
       <use x="127.24609375" xlink:href="#BitstreamVeraSans-Roman-30"/>
      </g>
     </g>
    </g>
    <g id="xtick_3">
     <g id="line2d_10">
      <path clip-path="url(#p7ff5b81e1d)" d="
M161.28 388.8
L161.28 43.2" style="fill:none;stroke:#000000;stroke-dasharray:1.000000,3.000000;stroke-dashoffset:0.0;stroke-linecap:butt;stroke-width:0.5;"/>
     </g>
     <g id="line2d_11">
      <g>
       <use style="stroke:#000000;stroke-linecap:butt;stroke-width:0.5;" x="161.28" xlink:href="#m0012dd4eef" y="388.8"/>
      </g>
     </g>
     <g id="line2d_12">
      <g>
       <use style="stroke:#000000;stroke-linecap:butt;stroke-width:0.5;" x="161.28" xlink:href="#m476344969c" y="43.2"/>
      </g>
     </g>
     <g id="text_3">
      <!-- 200 -->
      <defs>
       <path d="
M19.1875 8.29688
L53.6094 8.29688
L53.6094 0
L7.32812 0
L7.32812 8.29688
Q12.9375 14.1094 22.625 23.8906
Q32.3281 33.6875 34.8125 36.5312
Q39.5469 41.8438 41.4219 45.5312
Q43.3125 49.2188 43.3125 52.7812
Q43.3125 58.5938 39.2344 62.25
Q35.1562 65.9219 28.6094 65.9219
Q23.9688 65.9219 18.8125 64.3125
Q13.6719 62.7031 7.8125 59.4219
L7.8125 69.3906
Q13.7656 71.7812 18.9375 73
Q24.125 74.2188 28.4219 74.2188
Q39.75 74.2188 46.4844 68.5469
Q53.2188 62.8906 53.2188 53.4219
Q53.2188 48.9219 51.5312 44.8906
Q49.8594 40.875 45.4062 35.4062
Q44.1875 33.9844 37.6406 27.2188
Q31.1094 20.4531 19.1875 8.29688" id="BitstreamVeraSans-Roman-32"/>
      </defs>
      <g transform="translate(150.665625 401.70625)scale(0.12 -0.12)">
       <use xlink:href="#BitstreamVeraSans-Roman-32"/>
       <use x="63.623046875" xlink:href="#BitstreamVeraSans-Roman-30"/>
       <use x="127.24609375" xlink:href="#BitstreamVeraSans-Roman-30"/>
      </g>
     </g>
    </g>
    <g id="xtick_4">
     <g id="line2d_13">
      <path clip-path="url(#p7ff5b81e1d)" d="
M205.92 388.8
L205.92 43.2" style="fill:none;stroke:#000000;stroke-dasharray:1.000000,3.000000;stroke-dashoffset:0.0;stroke-linecap:butt;stroke-width:0.5;"/>
     </g>
     <g id="line2d_14">
      <g>
       <use style="stroke:#000000;stroke-linecap:butt;stroke-width:0.5;" x="205.92" xlink:href="#m0012dd4eef" y="388.8"/>
      </g>
     </g>
     <g id="line2d_15">
      <g>
       <use style="stroke:#000000;stroke-linecap:butt;stroke-width:0.5;" x="205.92" xlink:href="#m476344969c" y="43.2"/>
      </g>
     </g>
     <g id="text_4">
      <!-- 300 -->
      <defs>
       <path d="
M40.5781 39.3125
Q47.6562 37.7969 51.625 33
Q55.6094 28.2188 55.6094 21.1875
Q55.6094 10.4062 48.1875 4.48438
Q40.7656 -1.42188 27.0938 -1.42188
Q22.5156 -1.42188 17.6562 -0.515625
Q12.7969 0.390625 7.625 2.20312
L7.625 11.7188
Q11.7188 9.32812 16.5938 8.10938
Q21.4844 6.89062 26.8125 6.89062
Q36.0781 6.89062 40.9375 10.5469
Q45.7969 14.2031 45.7969 21.1875
Q45.7969 27.6406 41.2812 31.2656
Q36.7656 34.9062 28.7188 34.9062
L20.2188 34.9062
L20.2188 43.0156
L29.1094 43.0156
Q36.375 43.0156 40.2344 45.9219
Q44.0938 48.8281 44.0938 54.2969
Q44.0938 59.9062 40.1094 62.9062
Q36.1406 65.9219 28.7188 65.9219
Q24.6562 65.9219 20.0156 65.0312
Q15.375 64.1562 9.8125 62.3125
L9.8125 71.0938
Q15.4375 72.6562 20.3438 73.4375
Q25.25 74.2188 29.5938 74.2188
Q40.8281 74.2188 47.3594 69.1094
Q53.9062 64.0156 53.9062 55.3281
Q53.9062 49.2656 50.4375 45.0938
Q46.9688 40.9219 40.5781 39.3125" id="BitstreamVeraSans-Roman-33"/>
      </defs>
      <g transform="translate(195.3234375 401.70625)scale(0.12 -0.12)">
       <use xlink:href="#BitstreamVeraSans-Roman-33"/>
       <use x="63.623046875" xlink:href="#BitstreamVeraSans-Roman-30"/>
       <use x="127.24609375" xlink:href="#BitstreamVeraSans-Roman-30"/>
      </g>
     </g>
    </g>
    <g id="xtick_5">
     <g id="line2d_16">
      <path clip-path="url(#p7ff5b81e1d)" d="
M250.56 388.8
L250.56 43.2" style="fill:none;stroke:#000000;stroke-dasharray:1.000000,3.000000;stroke-dashoffset:0.0;stroke-linecap:butt;stroke-width:0.5;"/>
     </g>
     <g id="line2d_17">
      <g>
       <use style="stroke:#000000;stroke-linecap:butt;stroke-width:0.5;" x="250.56" xlink:href="#m0012dd4eef" y="388.8"/>
      </g>
     </g>
     <g id="line2d_18">
      <g>
       <use style="stroke:#000000;stroke-linecap:butt;stroke-width:0.5;" x="250.56" xlink:href="#m476344969c" y="43.2"/>
      </g>
     </g>
     <g id="text_5">
      <!-- 400 -->
      <defs>
       <path d="
M37.7969 64.3125
L12.8906 25.3906
L37.7969 25.3906
z

M35.2031 72.9062
L47.6094 72.9062
L47.6094 25.3906
L58.0156 25.3906
L58.0156 17.1875
L47.6094 17.1875
L47.6094 0
L37.7969 0
L37.7969 17.1875
L4.89062 17.1875
L4.89062 26.7031
z
" id="BitstreamVeraSans-Roman-34"/>
      </defs>
      <g transform="translate(239.799375 401.70625)scale(0.12 -0.12)">
       <use xlink:href="#BitstreamVeraSans-Roman-34"/>
       <use x="63.623046875" xlink:href="#BitstreamVeraSans-Roman-30"/>
       <use x="127.24609375" xlink:href="#BitstreamVeraSans-Roman-30"/>
      </g>
     </g>
    </g>
    <g id="xtick_6">
     <g id="line2d_19">
      <path clip-path="url(#p7ff5b81e1d)" d="
M295.2 388.8
L295.2 43.2" style="fill:none;stroke:#000000;stroke-dasharray:1.000000,3.000000;stroke-dashoffset:0.0;stroke-linecap:butt;stroke-width:0.5;"/>
     </g>
     <g id="line2d_20">
      <g>
       <use style="stroke:#000000;stroke-linecap:butt;stroke-width:0.5;" x="295.2" xlink:href="#m0012dd4eef" y="388.8"/>
      </g>
     </g>
     <g id="line2d_21">
      <g>
       <use style="stroke:#000000;stroke-linecap:butt;stroke-width:0.5;" x="295.2" xlink:href="#m476344969c" y="43.2"/>
      </g>
     </g>
     <g id="text_6">
      <!-- 500 -->
      <defs>
       <path d="
M10.7969 72.9062
L49.5156 72.9062
L49.5156 64.5938
L19.8281 64.5938
L19.8281 46.7344
Q21.9688 47.4688 24.1094 47.8281
Q26.2656 48.1875 28.4219 48.1875
Q40.625 48.1875 47.75 41.5
Q54.8906 34.8125 54.8906 23.3906
Q54.8906 11.625 47.5625 5.09375
Q40.2344 -1.42188 26.9062 -1.42188
Q22.3125 -1.42188 17.5469 -0.640625
Q12.7969 0.140625 7.71875 1.70312
L7.71875 11.625
Q12.1094 9.23438 16.7969 8.0625
Q21.4844 6.89062 26.7031 6.89062
Q35.1562 6.89062 40.0781 11.3281
Q45.0156 15.7656 45.0156 23.3906
Q45.0156 31 40.0781 35.4375
Q35.1562 39.8906 26.7031 39.8906
Q22.75 39.8906 18.8125 39.0156
Q14.8906 38.1406 10.7969 36.2812
z
" id="BitstreamVeraSans-Roman-35"/>
      </defs>
      <g transform="translate(284.6090625 401.70625)scale(0.12 -0.12)">
       <use xlink:href="#BitstreamVeraSans-Roman-35"/>
       <use x="63.623046875" xlink:href="#BitstreamVeraSans-Roman-30"/>
       <use x="127.24609375" xlink:href="#BitstreamVeraSans-Roman-30"/>
      </g>
     </g>
    </g>
    <g id="xtick_7">
     <g id="line2d_22">
      <path clip-path="url(#p7ff5b81e1d)" d="
M339.84 388.8
L339.84 43.2" style="fill:none;stroke:#000000;stroke-dasharray:1.000000,3.000000;stroke-dashoffset:0.0;stroke-linecap:butt;stroke-width:0.5;"/>
     </g>
     <g id="line2d_23">
      <g>
       <use style="stroke:#000000;stroke-linecap:butt;stroke-width:0.5;" x="339.84" xlink:href="#m0012dd4eef" y="388.8"/>
      </g>
     </g>
     <g id="line2d_24">
      <g>
       <use style="stroke:#000000;stroke-linecap:butt;stroke-width:0.5;" x="339.84" xlink:href="#m476344969c" y="43.2"/>
      </g>
     </g>
     <g id="text_7">
      <!-- 600 -->
      <defs>
       <path d="
M33.0156 40.375
Q26.375 40.375 22.4844 35.8281
Q18.6094 31.2969 18.6094 23.3906
Q18.6094 15.5312 22.4844 10.9531
Q26.375 6.39062 33.0156 6.39062
Q39.6562 6.39062 43.5312 10.9531
Q47.4062 15.5312 47.4062 23.3906
Q47.4062 31.2969 43.5312 35.8281
Q39.6562 40.375 33.0156 40.375
M52.5938 71.2969
L52.5938 62.3125
Q48.875 64.0625 45.0938 64.9844
Q41.3125 65.9219 37.5938 65.9219
Q27.8281 65.9219 22.6719 59.3281
Q17.5312 52.7344 16.7969 39.4062
Q19.6719 43.6562 24.0156 45.9219
Q28.375 48.1875 33.5938 48.1875
Q44.5781 48.1875 50.9531 41.5156
Q57.3281 34.8594 57.3281 23.3906
Q57.3281 12.1562 50.6875 5.35938
Q44.0469 -1.42188 33.0156 -1.42188
Q20.3594 -1.42188 13.6719 8.26562
Q6.98438 17.9688 6.98438 36.375
Q6.98438 53.6562 15.1875 63.9375
Q23.3906 74.2188 37.2031 74.2188
Q40.9219 74.2188 44.7031 73.4844
Q48.4844 72.75 52.5938 71.2969" id="BitstreamVeraSans-Roman-36"/>
      </defs>
      <g transform="translate(329.205 401.70625)scale(0.12 -0.12)">
       <use xlink:href="#BitstreamVeraSans-Roman-36"/>
       <use x="63.623046875" xlink:href="#BitstreamVeraSans-Roman-30"/>
       <use x="127.24609375" xlink:href="#BitstreamVeraSans-Roman-30"/>
      </g>
     </g>
    </g>
    <g id="xtick_8">
     <g id="line2d_25">
      <path clip-path="url(#p7ff5b81e1d)" d="
M384.48 388.8
L384.48 43.2" style="fill:none;stroke:#000000;stroke-dasharray:1.000000,3.000000;stroke-dashoffset:0.0;stroke-linecap:butt;stroke-width:0.5;"/>
     </g>
     <g id="line2d_26">
      <g>
       <use style="stroke:#000000;stroke-linecap:butt;stroke-width:0.5;" x="384.48" xlink:href="#m0012dd4eef" y="388.8"/>
      </g>
     </g>
     <g id="line2d_27">
      <g>
       <use style="stroke:#000000;stroke-linecap:butt;stroke-width:0.5;" x="384.48" xlink:href="#m476344969c" y="43.2"/>
      </g>
     </g>
     <g id="text_8">
      <!-- 700 -->
      <defs>
       <path d="
M8.20312 72.9062
L55.0781 72.9062
L55.0781 68.7031
L28.6094 0
L18.3125 0
L43.2188 64.5938
L8.20312 64.5938
z
" id="BitstreamVeraSans-Roman-37"/>
      </defs>
      <g transform="translate(373.918125 401.70625)scale(0.12 -0.12)">
       <use xlink:href="#BitstreamVeraSans-Roman-37"/>
       <use x="63.623046875" xlink:href="#BitstreamVeraSans-Roman-30"/>
       <use x="127.24609375" xlink:href="#BitstreamVeraSans-Roman-30"/>
      </g>
     </g>
    </g>
    <g id="xtick_9">
     <g id="line2d_28">
      <path clip-path="url(#p7ff5b81e1d)" d="
M429.12 388.8
L429.12 43.2" style="fill:none;stroke:#000000;stroke-dasharray:1.000000,3.000000;stroke-dashoffset:0.0;stroke-linecap:butt;stroke-width:0.5;"/>
     </g>
     <g id="line2d_29">
      <g>
       <use style="stroke:#000000;stroke-linecap:butt;stroke-width:0.5;" x="429.12" xlink:href="#m0012dd4eef" y="388.8"/>
      </g>
     </g>
     <g id="line2d_30">
      <g>
       <use style="stroke:#000000;stroke-linecap:butt;stroke-width:0.5;" x="429.12" xlink:href="#m476344969c" y="43.2"/>
      </g>
     </g>
     <g id="text_9">
      <!-- 800 -->
      <defs>
       <path d="
M31.7812 34.625
Q24.75 34.625 20.7188 30.8594
Q16.7031 27.0938 16.7031 20.5156
Q16.7031 13.9219 20.7188 10.1562
Q24.75 6.39062 31.7812 6.39062
Q38.8125 6.39062 42.8594 10.1719
Q46.9219 13.9688 46.9219 20.5156
Q46.9219 27.0938 42.8906 30.8594
Q38.875 34.625 31.7812 34.625
M21.9219 38.8125
Q15.5781 40.375 12.0312 44.7188
Q8.5 49.0781 8.5 55.3281
Q8.5 64.0625 14.7188 69.1406
Q20.9531 74.2188 31.7812 74.2188
Q42.6719 74.2188 48.875 69.1406
Q55.0781 64.0625 55.0781 55.3281
Q55.0781 49.0781 51.5312 44.7188
Q48 40.375 41.7031 38.8125
Q48.8281 37.1562 52.7969 32.3125
Q56.7812 27.4844 56.7812 20.5156
Q56.7812 9.90625 50.3125 4.23438
Q43.8438 -1.42188 31.7812 -1.42188
Q19.7344 -1.42188 13.25 4.23438
Q6.78125 9.90625 6.78125 20.5156
Q6.78125 27.4844 10.7812 32.3125
Q14.7969 37.1562 21.9219 38.8125
M18.3125 54.3906
Q18.3125 48.7344 21.8438 45.5625
Q25.3906 42.3906 31.7812 42.3906
Q38.1406 42.3906 41.7188 45.5625
Q45.3125 48.7344 45.3125 54.3906
Q45.3125 60.0625 41.7188 63.2344
Q38.1406 66.4062 31.7812 66.4062
Q25.3906 66.4062 21.8438 63.2344
Q18.3125 60.0625 18.3125 54.3906" id="BitstreamVeraSans-Roman-38"/>
      </defs>
      <g transform="translate(418.4728125 401.70625)scale(0.12 -0.12)">
       <use xlink:href="#BitstreamVeraSans-Roman-38"/>
       <use x="63.623046875" xlink:href="#BitstreamVeraSans-Roman-30"/>
       <use x="127.24609375" xlink:href="#BitstreamVeraSans-Roman-30"/>
      </g>
     </g>
    </g>
    <g id="xtick_10">
     <g id="line2d_31">
      <path clip-path="url(#p7ff5b81e1d)" d="
M473.76 388.8
L473.76 43.2" style="fill:none;stroke:#000000;stroke-dasharray:1.000000,3.000000;stroke-dashoffset:0.0;stroke-linecap:butt;stroke-width:0.5;"/>
     </g>
     <g id="line2d_32">
      <g>
       <use style="stroke:#000000;stroke-linecap:butt;stroke-width:0.5;" x="473.76" xlink:href="#m0012dd4eef" y="388.8"/>
      </g>
     </g>
     <g id="line2d_33">
      <g>
       <use style="stroke:#000000;stroke-linecap:butt;stroke-width:0.5;" x="473.76" xlink:href="#m476344969c" y="43.2"/>
      </g>
     </g>
     <g id="text_10">
      <!-- 900 -->
      <defs>
       <path d="
M10.9844 1.51562
L10.9844 10.5
Q14.7031 8.73438 18.5 7.8125
Q22.3125 6.89062 25.9844 6.89062
Q35.75 6.89062 40.8906 13.4531
Q46.0469 20.0156 46.7812 33.4062
Q43.9531 29.2031 39.5938 26.9531
Q35.25 24.7031 29.9844 24.7031
Q19.0469 24.7031 12.6719 31.3125
Q6.29688 37.9375 6.29688 49.4219
Q6.29688 60.6406 12.9375 67.4219
Q19.5781 74.2188 30.6094 74.2188
Q43.2656 74.2188 49.9219 64.5156
Q56.5938 54.8281 56.5938 36.375
Q56.5938 19.1406 48.4062 8.85938
Q40.2344 -1.42188 26.4219 -1.42188
Q22.7031 -1.42188 18.8906 -0.6875
Q15.0938 0.046875 10.9844 1.51562
M30.6094 32.4219
Q37.25 32.4219 41.125 36.9531
Q45.0156 41.5 45.0156 49.4219
Q45.0156 57.2812 41.125 61.8438
Q37.25 66.4062 30.6094 66.4062
Q23.9688 66.4062 20.0938 61.8438
Q16.2188 57.2812 16.2188 49.4219
Q16.2188 41.5 20.0938 36.9531
Q23.9688 32.4219 30.6094 32.4219" id="BitstreamVeraSans-Roman-39"/>
      </defs>
      <g transform="translate(463.08375 401.70625)scale(0.12 -0.12)">
       <use xlink:href="#BitstreamVeraSans-Roman-39"/>
       <use x="63.623046875" xlink:href="#BitstreamVeraSans-Roman-30"/>
       <use x="127.24609375" xlink:href="#BitstreamVeraSans-Roman-30"/>
      </g>
     </g>
    </g>
   </g>
   <g id="matplotlib.axis_2">
    <g id="ytick_1">
     <g id="line2d_34">
      <path clip-path="url(#p7ff5b81e1d)" d="
M72 388.8
L518.4 388.8" style="fill:none;stroke:#000000;stroke-dasharray:1.000000,3.000000;stroke-dashoffset:0.0;stroke-linecap:butt;stroke-width:0.5;"/>
     </g>
     <g id="line2d_35">
      <defs>
       <path d="
M0 0
L4 0" id="me8a85f7bf6" style="stroke:#000000;stroke-linecap:butt;stroke-width:0.5;"/>
      </defs>
      <g>
       <use style="stroke:#000000;stroke-linecap:butt;stroke-width:0.5;" x="72.0" xlink:href="#me8a85f7bf6" y="388.8"/>
      </g>
     </g>
     <g id="line2d_36">
      <defs>
       <path d="
M0 0
L-4 0" id="m1a32005dea" style="stroke:#000000;stroke-linecap:butt;stroke-width:0.5;"/>
      </defs>
      <g>
       <use style="stroke:#000000;stroke-linecap:butt;stroke-width:0.5;" x="518.4" xlink:href="#m1a32005dea" y="388.8"/>
      </g>
     </g>
     <g id="text_11">
      <!-- 0.000 -->
      <defs>
       <path d="
M10.6875 12.4062
L21 12.4062
L21 0
L10.6875 0
z
" id="BitstreamVeraSans-Roman-2e"/>
      </defs>
      <g transform="translate(35.234375 393.1678125)scale(0.12 -0.12)">
       <use xlink:href="#BitstreamVeraSans-Roman-30"/>
       <use x="63.623046875" xlink:href="#BitstreamVeraSans-Roman-2e"/>
       <use x="95.41015625" xlink:href="#BitstreamVeraSans-Roman-30"/>
       <use x="159.033203125" xlink:href="#BitstreamVeraSans-Roman-30"/>
       <use x="222.65625" xlink:href="#BitstreamVeraSans-Roman-30"/>
      </g>
     </g>
    </g>
    <g id="ytick_2">
     <g id="line2d_37">
      <path clip-path="url(#p7ff5b81e1d)" d="
M72 354.24
L518.4 354.24" style="fill:none;stroke:#000000;stroke-dasharray:1.000000,3.000000;stroke-dashoffset:0.0;stroke-linecap:butt;stroke-width:0.5;"/>
     </g>
     <g id="line2d_38">
      <g>
       <use style="stroke:#000000;stroke-linecap:butt;stroke-width:0.5;" x="72.0" xlink:href="#me8a85f7bf6" y="354.24"/>
      </g>
     </g>
     <g id="line2d_39">
      <g>
       <use style="stroke:#000000;stroke-linecap:butt;stroke-width:0.5;" x="518.4" xlink:href="#m1a32005dea" y="354.24"/>
      </g>
     </g>
     <g id="text_12">
      <!-- 0.002 -->
      <g transform="translate(35.639375 358.6078125)scale(0.12 -0.12)">
       <use xlink:href="#BitstreamVeraSans-Roman-30"/>
       <use x="63.623046875" xlink:href="#BitstreamVeraSans-Roman-2e"/>
       <use x="95.41015625" xlink:href="#BitstreamVeraSans-Roman-30"/>
       <use x="159.033203125" xlink:href="#BitstreamVeraSans-Roman-30"/>
       <use x="222.65625" xlink:href="#BitstreamVeraSans-Roman-32"/>
      </g>
     </g>
    </g>
    <g id="ytick_3">
     <g id="line2d_40">
      <path clip-path="url(#p7ff5b81e1d)" d="
M72 319.68
L518.4 319.68" style="fill:none;stroke:#000000;stroke-dasharray:1.000000,3.000000;stroke-dashoffset:0.0;stroke-linecap:butt;stroke-width:0.5;"/>
     </g>
     <g id="line2d_41">
      <g>
       <use style="stroke:#000000;stroke-linecap:butt;stroke-width:0.5;" x="72.0" xlink:href="#me8a85f7bf6" y="319.68"/>
      </g>
     </g>
     <g id="line2d_42">
      <g>
       <use style="stroke:#000000;stroke-linecap:butt;stroke-width:0.5;" x="518.4" xlink:href="#m1a32005dea" y="319.68"/>
      </g>
     </g>
     <g id="text_13">
      <!-- 0.004 -->
      <g transform="translate(35.110625 324.0478125)scale(0.12 -0.12)">
       <use xlink:href="#BitstreamVeraSans-Roman-30"/>
       <use x="63.623046875" xlink:href="#BitstreamVeraSans-Roman-2e"/>
       <use x="95.41015625" xlink:href="#BitstreamVeraSans-Roman-30"/>
       <use x="159.033203125" xlink:href="#BitstreamVeraSans-Roman-30"/>
       <use x="222.65625" xlink:href="#BitstreamVeraSans-Roman-34"/>
      </g>
     </g>
    </g>
    <g id="ytick_4">
     <g id="line2d_43">
      <path clip-path="url(#p7ff5b81e1d)" d="
M72 285.12
L518.4 285.12" style="fill:none;stroke:#000000;stroke-dasharray:1.000000,3.000000;stroke-dashoffset:0.0;stroke-linecap:butt;stroke-width:0.5;"/>
     </g>
     <g id="line2d_44">
      <g>
       <use style="stroke:#000000;stroke-linecap:butt;stroke-width:0.5;" x="72.0" xlink:href="#me8a85f7bf6" y="285.12"/>
      </g>
     </g>
     <g id="line2d_45">
      <g>
       <use style="stroke:#000000;stroke-linecap:butt;stroke-width:0.5;" x="518.4" xlink:href="#m1a32005dea" y="285.12"/>
      </g>
     </g>
     <g id="text_14">
      <!-- 0.006 -->
      <g transform="translate(35.193125 289.4878125)scale(0.12 -0.12)">
       <use xlink:href="#BitstreamVeraSans-Roman-30"/>
       <use x="63.623046875" xlink:href="#BitstreamVeraSans-Roman-2e"/>
       <use x="95.41015625" xlink:href="#BitstreamVeraSans-Roman-30"/>
       <use x="159.033203125" xlink:href="#BitstreamVeraSans-Roman-30"/>
       <use x="222.65625" xlink:href="#BitstreamVeraSans-Roman-36"/>
      </g>
     </g>
    </g>
    <g id="ytick_5">
     <g id="line2d_46">
      <path clip-path="url(#p7ff5b81e1d)" d="
M72 250.56
L518.4 250.56" style="fill:none;stroke:#000000;stroke-dasharray:1.000000,3.000000;stroke-dashoffset:0.0;stroke-linecap:butt;stroke-width:0.5;"/>
     </g>
     <g id="line2d_47">
      <g>
       <use style="stroke:#000000;stroke-linecap:butt;stroke-width:0.5;" x="72.0" xlink:href="#me8a85f7bf6" y="250.56"/>
      </g>
     </g>
     <g id="line2d_48">
      <g>
       <use style="stroke:#000000;stroke-linecap:butt;stroke-width:0.5;" x="518.4" xlink:href="#m1a32005dea" y="250.56"/>
      </g>
     </g>
     <g id="text_15">
      <!-- 0.008 -->
      <g transform="translate(35.25875 254.9278125)scale(0.12 -0.12)">
       <use xlink:href="#BitstreamVeraSans-Roman-30"/>
       <use x="63.623046875" xlink:href="#BitstreamVeraSans-Roman-2e"/>
       <use x="95.41015625" xlink:href="#BitstreamVeraSans-Roman-30"/>
       <use x="159.033203125" xlink:href="#BitstreamVeraSans-Roman-30"/>
       <use x="222.65625" xlink:href="#BitstreamVeraSans-Roman-38"/>
      </g>
     </g>
    </g>
    <g id="ytick_6">
     <g id="line2d_49">
      <path clip-path="url(#p7ff5b81e1d)" d="
M72 216
L518.4 216" style="fill:none;stroke:#000000;stroke-dasharray:1.000000,3.000000;stroke-dashoffset:0.0;stroke-linecap:butt;stroke-width:0.5;"/>
     </g>
     <g id="line2d_50">
      <g>
       <use style="stroke:#000000;stroke-linecap:butt;stroke-width:0.5;" x="72.0" xlink:href="#me8a85f7bf6" y="216.0"/>
      </g>
     </g>
     <g id="line2d_51">
      <g>
       <use style="stroke:#000000;stroke-linecap:butt;stroke-width:0.5;" x="518.4" xlink:href="#m1a32005dea" y="216.0"/>
      </g>
     </g>
     <g id="text_16">
      <!-- 0.010 -->
      <g transform="translate(35.234375 220.3678125)scale(0.12 -0.12)">
       <use xlink:href="#BitstreamVeraSans-Roman-30"/>
       <use x="63.623046875" xlink:href="#BitstreamVeraSans-Roman-2e"/>
       <use x="95.41015625" xlink:href="#BitstreamVeraSans-Roman-30"/>
       <use x="159.033203125" xlink:href="#BitstreamVeraSans-Roman-31"/>
       <use x="222.65625" xlink:href="#BitstreamVeraSans-Roman-30"/>
      </g>
     </g>
    </g>
    <g id="ytick_7">
     <g id="line2d_52">
      <path clip-path="url(#p7ff5b81e1d)" d="
M72 181.44
L518.4 181.44" style="fill:none;stroke:#000000;stroke-dasharray:1.000000,3.000000;stroke-dashoffset:0.0;stroke-linecap:butt;stroke-width:0.5;"/>
     </g>
     <g id="line2d_53">
      <g>
       <use style="stroke:#000000;stroke-linecap:butt;stroke-width:0.5;" x="72.0" xlink:href="#me8a85f7bf6" y="181.44"/>
      </g>
     </g>
     <g id="line2d_54">
      <g>
       <use style="stroke:#000000;stroke-linecap:butt;stroke-width:0.5;" x="518.4" xlink:href="#m1a32005dea" y="181.44"/>
      </g>
     </g>
     <g id="text_17">
      <!-- 0.012 -->
      <g transform="translate(35.639375 185.8078125)scale(0.12 -0.12)">
       <use xlink:href="#BitstreamVeraSans-Roman-30"/>
       <use x="63.623046875" xlink:href="#BitstreamVeraSans-Roman-2e"/>
       <use x="95.41015625" xlink:href="#BitstreamVeraSans-Roman-30"/>
       <use x="159.033203125" xlink:href="#BitstreamVeraSans-Roman-31"/>
       <use x="222.65625" xlink:href="#BitstreamVeraSans-Roman-32"/>
      </g>
     </g>
    </g>
    <g id="ytick_8">
     <g id="line2d_55">
      <path clip-path="url(#p7ff5b81e1d)" d="
M72 146.88
L518.4 146.88" style="fill:none;stroke:#000000;stroke-dasharray:1.000000,3.000000;stroke-dashoffset:0.0;stroke-linecap:butt;stroke-width:0.5;"/>
     </g>
     <g id="line2d_56">
      <g>
       <use style="stroke:#000000;stroke-linecap:butt;stroke-width:0.5;" x="72.0" xlink:href="#me8a85f7bf6" y="146.88"/>
      </g>
     </g>
     <g id="line2d_57">
      <g>
       <use style="stroke:#000000;stroke-linecap:butt;stroke-width:0.5;" x="518.4" xlink:href="#m1a32005dea" y="146.88"/>
      </g>
     </g>
     <g id="text_18">
      <!-- 0.014 -->
      <g transform="translate(35.110625 151.2478125)scale(0.12 -0.12)">
       <use xlink:href="#BitstreamVeraSans-Roman-30"/>
       <use x="63.623046875" xlink:href="#BitstreamVeraSans-Roman-2e"/>
       <use x="95.41015625" xlink:href="#BitstreamVeraSans-Roman-30"/>
       <use x="159.033203125" xlink:href="#BitstreamVeraSans-Roman-31"/>
       <use x="222.65625" xlink:href="#BitstreamVeraSans-Roman-34"/>
      </g>
     </g>
    </g>
    <g id="ytick_9">
     <g id="line2d_58">
      <path clip-path="url(#p7ff5b81e1d)" d="
M72 112.32
L518.4 112.32" style="fill:none;stroke:#000000;stroke-dasharray:1.000000,3.000000;stroke-dashoffset:0.0;stroke-linecap:butt;stroke-width:0.5;"/>
     </g>
     <g id="line2d_59">
      <g>
       <use style="stroke:#000000;stroke-linecap:butt;stroke-width:0.5;" x="72.0" xlink:href="#me8a85f7bf6" y="112.32"/>
      </g>
     </g>
     <g id="line2d_60">
      <g>
       <use style="stroke:#000000;stroke-linecap:butt;stroke-width:0.5;" x="518.4" xlink:href="#m1a32005dea" y="112.32"/>
      </g>
     </g>
     <g id="text_19">
      <!-- 0.016 -->
      <g transform="translate(35.193125 116.6878125)scale(0.12 -0.12)">
       <use xlink:href="#BitstreamVeraSans-Roman-30"/>
       <use x="63.623046875" xlink:href="#BitstreamVeraSans-Roman-2e"/>
       <use x="95.41015625" xlink:href="#BitstreamVeraSans-Roman-30"/>
       <use x="159.033203125" xlink:href="#BitstreamVeraSans-Roman-31"/>
       <use x="222.65625" xlink:href="#BitstreamVeraSans-Roman-36"/>
      </g>
     </g>
    </g>
    <g id="ytick_10">
     <g id="line2d_61">
      <path clip-path="url(#p7ff5b81e1d)" d="
M72 77.76
L518.4 77.76" style="fill:none;stroke:#000000;stroke-dasharray:1.000000,3.000000;stroke-dashoffset:0.0;stroke-linecap:butt;stroke-width:0.5;"/>
     </g>
     <g id="line2d_62">
      <g>
       <use style="stroke:#000000;stroke-linecap:butt;stroke-width:0.5;" x="72.0" xlink:href="#me8a85f7bf6" y="77.76"/>
      </g>
     </g>
     <g id="line2d_63">
      <g>
       <use style="stroke:#000000;stroke-linecap:butt;stroke-width:0.5;" x="518.4" xlink:href="#m1a32005dea" y="77.76"/>
      </g>
     </g>
     <g id="text_20">
      <!-- 0.018 -->
      <g transform="translate(35.25875 82.1278125)scale(0.12 -0.12)">
       <use xlink:href="#BitstreamVeraSans-Roman-30"/>
       <use x="63.623046875" xlink:href="#BitstreamVeraSans-Roman-2e"/>
       <use x="95.41015625" xlink:href="#BitstreamVeraSans-Roman-30"/>
       <use x="159.033203125" xlink:href="#BitstreamVeraSans-Roman-31"/>
       <use x="222.65625" xlink:href="#BitstreamVeraSans-Roman-38"/>
      </g>
     </g>
    </g>
    <g id="text_21">
     <!-- Sec/file -->
     <defs>
      <path d="
M9.42188 75.9844
L18.4062 75.9844
L18.4062 0
L9.42188 0
z
" id="BitstreamVeraSans-Roman-6c"/>
      <path d="
M53.5156 70.5156
L53.5156 60.8906
Q47.9062 63.5781 42.9219 64.8906
Q37.9375 66.2188 33.2969 66.2188
Q25.25 66.2188 20.875 63.0938
Q16.5 59.9688 16.5 54.2031
Q16.5 49.3594 19.4062 46.8906
Q22.3125 44.4375 30.4219 42.9219
L36.375 41.7031
Q47.4062 39.5938 52.6562 34.2969
Q57.9062 29 57.9062 20.125
Q57.9062 9.51562 50.7969 4.04688
Q43.7031 -1.42188 29.9844 -1.42188
Q24.8125 -1.42188 18.9688 -0.25
Q13.1406 0.921875 6.89062 3.21875
L6.89062 13.375
Q12.8906 10.0156 18.6562 8.29688
Q24.4219 6.59375 29.9844 6.59375
Q38.4219 6.59375 43.0156 9.90625
Q47.6094 13.2344 47.6094 19.3906
Q47.6094 24.75 44.3125 27.7812
Q41.0156 30.8125 33.5 32.3281
L27.4844 33.5
Q16.4531 35.6875 11.5156 40.375
Q6.59375 45.0625 6.59375 53.4219
Q6.59375 63.0938 13.4062 68.6562
Q20.2188 74.2188 32.1719 74.2188
Q37.3125 74.2188 42.625 73.2812
Q47.9531 72.3594 53.5156 70.5156" id="BitstreamVeraSans-Roman-53"/>
      <path d="
M9.42188 54.6875
L18.4062 54.6875
L18.4062 0
L9.42188 0
z

M9.42188 75.9844
L18.4062 75.9844
L18.4062 64.5938
L9.42188 64.5938
z
" id="BitstreamVeraSans-Roman-69"/>
      <path d="
M25.3906 72.9062
L33.6875 72.9062
L8.29688 -9.28125
L0 -9.28125
z
" id="BitstreamVeraSans-Roman-2f"/>
      <path d="
M56.2031 29.5938
L56.2031 25.2031
L14.8906 25.2031
Q15.4844 15.9219 20.4844 11.0625
Q25.4844 6.20312 34.4219 6.20312
Q39.5938 6.20312 44.4531 7.46875
Q49.3125 8.73438 54.1094 11.2812
L54.1094 2.78125
Q49.2656 0.734375 44.1875 -0.34375
Q39.1094 -1.42188 33.8906 -1.42188
Q20.7969 -1.42188 13.1562 6.1875
Q5.51562 13.8125 5.51562 26.8125
Q5.51562 40.2344 12.7656 48.1094
Q20.0156 56 32.3281 56
Q43.3594 56 49.7812 48.8906
Q56.2031 41.7969 56.2031 29.5938
M47.2188 32.2344
Q47.125 39.5938 43.0938 43.9844
Q39.0625 48.3906 32.4219 48.3906
Q24.9062 48.3906 20.3906 44.1406
Q15.875 39.8906 15.1875 32.1719
z
" id="BitstreamVeraSans-Roman-65"/>
      <path d="
M37.1094 75.9844
L37.1094 68.5
L28.5156 68.5
Q23.6875 68.5 21.7969 66.5469
Q19.9219 64.5938 19.9219 59.5156
L19.9219 54.6875
L34.7188 54.6875
L34.7188 47.7031
L19.9219 47.7031
L19.9219 0
L10.8906 0
L10.8906 47.7031
L2.29688 47.7031
L2.29688 54.6875
L10.8906 54.6875
L10.8906 58.5
Q10.8906 67.625 15.1406 71.7969
Q19.3906 75.9844 28.6094 75.9844
z
" id="BitstreamVeraSans-Roman-66"/>
      <path d="
M48.7812 52.5938
L48.7812 44.1875
Q44.9688 46.2969 41.1406 47.3438
Q37.3125 48.3906 33.4062 48.3906
Q24.6562 48.3906 19.8125 42.8438
Q14.9844 37.3125 14.9844 27.2969
Q14.9844 17.2812 19.8125 11.7344
Q24.6562 6.20312 33.4062 6.20312
Q37.3125 6.20312 41.1406 7.25
Q44.9688 8.29688 48.7812 10.4062
L48.7812 2.09375
Q45.0156 0.34375 40.9844 -0.53125
Q36.9688 -1.42188 32.4219 -1.42188
Q20.0625 -1.42188 12.7812 6.34375
Q5.51562 14.1094 5.51562 27.2969
Q5.51562 40.6719 12.8594 48.3281
Q20.2188 56 33.0156 56
Q37.1562 56 41.1094 55.1406
Q45.0625 54.2969 48.7812 52.5938" id="BitstreamVeraSans-Roman-63"/>
     </defs>
     <g transform="translate(30.110625 236.13)rotate(-90.0)scale(0.12 -0.12)">
      <use xlink:href="#BitstreamVeraSans-Roman-53"/>
      <use x="63.4765625" xlink:href="#BitstreamVeraSans-Roman-65"/>
      <use x="125.0" xlink:href="#BitstreamVeraSans-Roman-63"/>
      <use x="179.98046875" xlink:href="#BitstreamVeraSans-Roman-2f"/>
      <use x="213.671875" xlink:href="#BitstreamVeraSans-Roman-66"/>
      <use x="248.876953125" xlink:href="#BitstreamVeraSans-Roman-69"/>
      <use x="276.66015625" xlink:href="#BitstreamVeraSans-Roman-6c"/>
      <use x="304.443359375" xlink:href="#BitstreamVeraSans-Roman-65"/>
     </g>
    </g>
   </g>
   <g id="patch_3">
    <path d="
M72 43.2
L518.4 43.2" style="fill:none;stroke:#000000;"/>
   </g>
   <g id="patch_4">
    <path d="
M518.4 388.8
L518.4 43.2" style="fill:none;stroke:#000000;"/>
   </g>
   <g id="patch_5">
    <path d="
M72 388.8
L518.4 388.8" style="fill:none;stroke:#000000;"/>
   </g>
   <g id="patch_6">
    <path d="
M72 388.8
L72 43.2" style="fill:none;stroke:#000000;"/>
   </g>
   <g id="text_22">
    <!-- Rand -->
    <defs>
     <path d="
M54.8906 33.0156
L54.8906 0
L45.9062 0
L45.9062 32.7188
Q45.9062 40.4844 42.875 44.3281
Q39.8438 48.1875 33.7969 48.1875
Q26.5156 48.1875 22.3125 43.5469
Q18.1094 38.9219 18.1094 30.9062
L18.1094 0
L9.07812 0
L9.07812 54.6875
L18.1094 54.6875
L18.1094 46.1875
Q21.3438 51.125 25.7031 53.5625
Q30.0781 56 35.7969 56
Q45.2188 56 50.0469 50.1719
Q54.8906 44.3438 54.8906 33.0156" id="BitstreamVeraSans-Roman-6e"/>
     <path d="
M45.4062 46.3906
L45.4062 75.9844
L54.3906 75.9844
L54.3906 0
L45.4062 0
L45.4062 8.20312
Q42.5781 3.32812 38.25 0.953125
Q33.9375 -1.42188 27.875 -1.42188
Q17.9688 -1.42188 11.7344 6.48438
Q5.51562 14.4062 5.51562 27.2969
Q5.51562 40.1875 11.7344 48.0938
Q17.9688 56 27.875 56
Q33.9375 56 38.25 53.625
Q42.5781 51.2656 45.4062 46.3906
M14.7969 27.2969
Q14.7969 17.3906 18.875 11.75
Q22.9531 6.10938 30.0781 6.10938
Q37.2031 6.10938 41.2969 11.75
Q45.4062 17.3906 45.4062 27.2969
Q45.4062 37.2031 41.2969 42.8438
Q37.2031 48.4844 30.0781 48.4844
Q22.9531 48.4844 18.875 42.8438
Q14.7969 37.2031 14.7969 27.2969" id="BitstreamVeraSans-Roman-64"/>
     <path d="
M44.3906 34.1875
Q47.5625 33.1094 50.5625 29.5938
Q53.5625 26.0781 56.5938 19.9219
L66.6094 0
L56 0
L46.6875 18.7031
Q43.0625 26.0312 39.6719 28.4219
Q36.2812 30.8125 30.4219 30.8125
L19.6719 30.8125
L19.6719 0
L9.8125 0
L9.8125 72.9062
L32.0781 72.9062
Q44.5781 72.9062 50.7344 67.6719
Q56.8906 62.4531 56.8906 51.9062
Q56.8906 45.0156 53.6875 40.4688
Q50.4844 35.9375 44.3906 34.1875
M19.6719 64.7969
L19.6719 38.9219
L32.0781 38.9219
Q39.2031 38.9219 42.8438 42.2188
Q46.4844 45.5156 46.4844 51.9062
Q46.4844 58.2969 42.8438 61.5469
Q39.2031 64.7969 32.0781 64.7969
z
" id="BitstreamVeraSans-Roman-52"/>
     <path d="
M34.2812 27.4844
Q23.3906 27.4844 19.1875 25
Q14.9844 22.5156 14.9844 16.5
Q14.9844 11.7188 18.1406 8.90625
Q21.2969 6.10938 26.7031 6.10938
Q34.1875 6.10938 38.7031 11.4062
Q43.2188 16.7031 43.2188 25.4844
L43.2188 27.4844
z

M52.2031 31.2031
L52.2031 0
L43.2188 0
L43.2188 8.29688
Q40.1406 3.32812 35.5469 0.953125
Q30.9531 -1.42188 24.3125 -1.42188
Q15.9219 -1.42188 10.9531 3.29688
Q6 8.01562 6 15.9219
Q6 25.1406 12.1719 29.8281
Q18.3594 34.5156 30.6094 34.5156
L43.2188 34.5156
L43.2188 35.4062
Q43.2188 41.6094 39.1406 45
Q35.0625 48.3906 27.6875 48.3906
Q23 48.3906 18.5469 47.2656
Q14.1094 46.1406 10.0156 43.8906
L10.0156 52.2031
Q14.9375 54.1094 19.5781 55.0469
Q24.2188 56 28.6094 56
Q40.4844 56 46.3438 49.8438
Q52.2031 43.7031 52.2031 31.2031" id="BitstreamVeraSans-Roman-61"/>
    </defs>
    <g transform="translate(278.17425 38.2)scale(0.144 -0.144)">
     <use xlink:href="#BitstreamVeraSans-Roman-52"/>
     <use x="67.232421875" xlink:href="#BitstreamVeraSans-Roman-61"/>
     <use x="128.51171875" xlink:href="#BitstreamVeraSans-Roman-6e"/>
     <use x="191.890625" xlink:href="#BitstreamVeraSans-Roman-64"/>
    </g>
   </g>
   <g id="legend_1">
    <g id="patch_7">
     <path d="
M429.055 115.339
L511.2 115.339
L511.2 50.4
L429.055 50.4
L429.055 115.339
z
" style="fill:#ffffff;stroke:#000000;"/>
    </g>
    <g id="line2d_64">
     <path d="
M439.135 62.0617
L459.295 62.0617" style="fill:none;stroke:#ff0000;"/>
    </g>
    <g id="line2d_65"/>
    <g id="text_23">
     <!-- LRU -->
     <defs>
      <path d="
M9.8125 72.9062
L19.6719 72.9062
L19.6719 8.29688
L55.1719 8.29688
L55.1719 0
L9.8125 0
z
" id="BitstreamVeraSans-Roman-4c"/>
      <path d="
M8.6875 72.9062
L18.6094 72.9062
L18.6094 28.6094
Q18.6094 16.8906 22.8438 11.7344
Q27.0938 6.59375 36.625 6.59375
Q46.0938 6.59375 50.3438 11.7344
Q54.5938 16.8906 54.5938 28.6094
L54.5938 72.9062
L64.5 72.9062
L64.5 27.3906
Q64.5 13.1406 57.4375 5.85938
Q50.3906 -1.42188 36.625 -1.42188
Q22.7969 -1.42188 15.7344 5.85938
Q8.6875 13.1406 8.6875 27.3906
z
" id="BitstreamVeraSans-Roman-55"/>
     </defs>
     <g transform="translate(475.13475 67.10175)scale(0.144 -0.144)">
      <use xlink:href="#BitstreamVeraSans-Roman-4c"/>
      <use x="55.712890625" xlink:href="#BitstreamVeraSans-Roman-52"/>
      <use x="125.1953125" xlink:href="#BitstreamVeraSans-Roman-55"/>
     </g>
    </g>
    <g id="line2d_66">
     <path d="
M439.135 83.1983
L459.295 83.1983" style="fill:none;opacity:0.7;stroke:#008000;"/>
    </g>
    <g id="line2d_67"/>
    <g id="text_24">
     <!-- MRU -->
     <defs>
      <path d="
M9.8125 72.9062
L24.5156 72.9062
L43.1094 23.2969
L61.8125 72.9062
L76.5156 72.9062
L76.5156 0
L66.8906 0
L66.8906 64.0156
L48.0938 14.0156
L38.1875 14.0156
L19.3906 64.0156
L19.3906 0
L9.8125 0
z
" id="BitstreamVeraSans-Roman-4d"/>
     </defs>
     <g transform="translate(475.13475 88.23825)scale(0.144 -0.144)">
      <use xlink:href="#BitstreamVeraSans-Roman-4d"/>
      <use x="86.279296875" xlink:href="#BitstreamVeraSans-Roman-52"/>
      <use x="155.76171875" xlink:href="#BitstreamVeraSans-Roman-55"/>
     </g>
    </g>
    <g id="line2d_68">
     <path d="
M439.135 104.335
L459.295 104.335" style="fill:none;opacity:0.5;stroke:#0000ff;"/>
    </g>
    <g id="line2d_69"/>
    <g id="text_25">
     <!-- FIFO -->
     <defs>
      <path d="
M9.8125 72.9062
L51.7031 72.9062
L51.7031 64.5938
L19.6719 64.5938
L19.6719 43.1094
L48.5781 43.1094
L48.5781 34.8125
L19.6719 34.8125
L19.6719 0
L9.8125 0
z
" id="BitstreamVeraSans-Roman-46"/>
      <path d="
M9.8125 72.9062
L19.6719 72.9062
L19.6719 0
L9.8125 0
z
" id="BitstreamVeraSans-Roman-49"/>
      <path d="
M39.4062 66.2188
Q28.6562 66.2188 22.3281 58.2031
Q16.0156 50.2031 16.0156 36.375
Q16.0156 22.6094 22.3281 14.5938
Q28.6562 6.59375 39.4062 6.59375
Q50.1406 6.59375 56.4219 14.5938
Q62.7031 22.6094 62.7031 36.375
Q62.7031 50.2031 56.4219 58.2031
Q50.1406 66.2188 39.4062 66.2188
M39.4062 74.2188
Q54.7344 74.2188 63.9062 63.9375
Q73.0938 53.6562 73.0938 36.375
Q73.0938 19.1406 63.9062 8.85938
Q54.7344 -1.42188 39.4062 -1.42188
Q24.0312 -1.42188 14.8125 8.82812
Q5.60938 19.0938 5.60938 36.375
Q5.60938 53.6562 14.8125 63.9375
Q24.0312 74.2188 39.4062 74.2188" id="BitstreamVeraSans-Roman-4f"/>
     </defs>
     <g transform="translate(475.13475 109.37475)scale(0.144 -0.144)">
      <use xlink:href="#BitstreamVeraSans-Roman-46"/>
      <use x="57.51953125" xlink:href="#BitstreamVeraSans-Roman-49"/>
      <use x="87.01171875" xlink:href="#BitstreamVeraSans-Roman-46"/>
      <use x="144.53125" xlink:href="#BitstreamVeraSans-Roman-4f"/>
     </g>
    </g>
   </g>
  </g>
 </g>
 <defs>
  <clipPath id="p7ff5b81e1d">
   <rect height="345.6" width="446.4" x="72.0" y="43.2"/>
  </clipPath>
 </defs>
</svg>
