<?xml version="1.0" encoding="utf-8" standalone="no"?>
<!DOCTYPE svg PUBLIC "-//W3C//DTD SVG 1.1//EN"
  "http://www.w3.org/Graphics/SVG/1.1/DTD/svg11.dtd">
<!-- Created with matplotlib (http://matplotlib.sourceforge.net/) -->
<svg height="432pt" version="1.1" viewBox="0 0 576 432" width="576pt" xmlns="http://www.w3.org/2000/svg" xmlns:xlink="http://www.w3.org/1999/xlink">
 <defs>
  <style type="text/css">
*{stroke-linecap:square;stroke-linejoin:round;}
  </style>
 </defs>
 <g id="figure_1">
  <g id="patch_1">
   <path d="
M0 432
L576 432
L576 0
L0 0
z
" style="fill:#ffffff;"/>
  </g>
  <g id="axes_1">
   <g id="patch_2">
    <path d="
M72 388.8
L518.4 388.8
L518.4 43.2
L72 43.2
z
" style="fill:#ffffff;"/>
   </g>
   <g id="line2d_1">
    <path clip-path="url(#p7ff5b81e1d)" d="
M72 213.327
L72.4464 187.115
L72.8928 175.99
L73.3392 128.551
L73.7856 205.554
L74.232 261.572
L74.6784 135.021
L75.1248 178.118
L75.5712 173.995
L76.0176 248.618
L76.464 175.427
L76.9104 179.315
L77.3568 175.446
L77.8032 178.124
L78.2496 260.816
L78.696 258.606
L79.1424 126.514
L79.5888 158.035
L80.0352 174.208
L80.4816 154.264
L80.928 162.248
L81.3744 262.25
L81.8208 179.335
L82.2672 173.75
L82.7136 178.617
L83.16 261.15
L83.6064 154.966
L84.0528 260.442
L84.4992 265.31
L84.9456 208.881
L85.392 258.139
L85.8384 181.7
L86.2848 261.512
L86.7312 261.623
L87.1776 261.322
L87.624 258.386
L88.0704 179.182
L88.5168 256.818
L88.9632 256.81
L89.4096 113.06
L89.856 287.199
L90.3024 258.411
L90.7488 247.916
L91.1952 288.398
L91.6416 227.176
L92.088 247.812
L92.5344 288.506
L92.9808 260.433
L93.4272 258.141
L93.8736 193.841
L94.32 257.795
L94.7664 132.318
L95.2128 257.988
L95.6592 169.124
L96.1056 178.206
L96.552 245.486
L96.9984 287.661
L97.4448 259.234
L97.8912 258.111
L98.3376 204.498
L98.784 259.531
L99.2304 254.843
L99.6768 126.838
L100.123 247.139
L101.016 166.857
L101.462 289.189
L101.909 260.888
L102.355 258.454
L102.802 287.617
L103.248 259.418
L103.694 258.693
L104.141 177.724
L104.587 256.774
L105.034 176.142
L105.48 256.733
L105.926 257.976
L106.373 245.432
L106.819 160.491
L107.266 131.396
L107.712 247.416
L108.158 255.405
L108.605 251.684
L109.051 258.567
L109.498 259.052
L109.944 174.081
L110.39 258.261
L110.837 259.359
L111.283 176.256
L111.73 259.421
L112.176 162.201
L112.622 255.007
L113.069 258.727
L113.515 248.628
L113.962 288.778
L114.408 259.807
L114.854 247.286
L115.301 201.409
L115.747 262.418
L116.194 260.175
L116.64 260.191
L117.086 167.883
L117.533 289.843
L117.979 259.605
L118.426 168.664
L118.872 287.854
L119.765 229.111
L120.211 274.455
L120.658 258.388
L121.104 258.011
L121.55 257.419
L121.997 259.755
L122.443 256.831
L122.89 247.462
L123.336 289.058
L123.782 178.615
L124.229 258.14
L124.675 260.319
L125.122 247.621
L125.568 253.399
L126.014 290.53
L126.461 261.164
L126.907 258.503
L127.354 289.362
L127.8 259.627
L128.246 258.978
L128.693 258.769
L129.139 257.323
L129.586 256.37
L130.032 245.422
L130.478 287.119
L130.925 255.82
L131.371 244.936
L131.818 288.354
L132.264 257.812
L132.71 175.626
L133.157 252.804
L133.603 258.78
L134.05 244.972
L134.496 286.489
L134.942 257.132
L135.389 173.063
L135.835 255.729
L136.282 254.811
L136.728 257.933
L137.174 253.49
L137.621 256.772
L138.067 241.554
L138.514 286.037
L138.96 258.702
L139.406 245.536
L139.853 286.377
L140.299 257.534
L140.746 250.463
L141.192 286.657
L141.638 273.584
L142.085 252
L142.531 256.056
L142.978 243.372
L143.424 251.384
L143.87 252.266
L144.317 172.179
L144.763 255.334
L145.21 286.32
L145.656 256.04
L146.102 167.997
L146.549 257.252
L146.995 254.718
L147.442 245.058
L147.888 286.356
L148.334 258.077
L148.781 249.879
L149.227 286.504
L149.674 257.976
L150.12 257.204
L150.566 285.58
L151.013 257.188
L151.459 255.306
L151.906 256.347
L152.352 253.939
L152.798 256.184
L153.245 244.846
L153.691 287.169
L154.138 256.571
L154.584 244.849
L155.03 285.988
L155.477 257.915
L155.923 245.303
L156.37 284.332
L156.816 256.986
L157.262 256.348
L157.709 285.439
L158.155 257.426
L158.602 254.736
L159.048 254.652
L159.494 255.826
L159.941 254.711
L160.387 245.582
L160.834 286.564
L161.28 256.509
L161.726 243.974
L162.173 286.456
L162.619 254.817
L163.066 250.042
L163.512 285.633
L163.958 255.97
L164.405 256.21
L164.851 285.361
L165.298 257.09
L165.744 254.823
L166.19 242.277
L166.637 256.9
L167.083 255.565
L167.53 243.373
L167.976 286.446
L168.422 256.135
L168.869 244.376
L169.315 286.488
L169.762 255.706
L170.208 245.438
L170.654 286.132
L171.101 255.507
L171.547 250.518
L171.994 284.339
L172.44 255.628
L172.886 256.501
L173.333 287.464
L173.779 256.499
L174.226 256.74
L174.672 252.646
L175.118 256.568
L175.565 254.079
L176.011 243.977
L176.458 286.892
L176.904 255.484
L177.35 241.889
L177.797 286.96
L178.243 255.081
L178.69 245.402
L179.136 285.744
L179.582 256.341
L180.029 255.417
L180.475 286.709
L180.922 256.145
L181.368 256.454
L181.814 255.158
L182.261 246.142
L182.707 248.971
L183.154 255.484
L183.6 255.769
L184.046 255.606
L184.493 240.456
L184.939 254.516
L185.386 256.604
L185.832 242.672
L186.278 284.136
L186.725 254.309
L187.171 252.021
L187.618 283.038
L188.064 253.872
L188.51 253.051
L188.957 284.392
L189.403 252.652
L189.85 253.614
L190.296 249.021
L191.189 253.209
L191.635 252.847
L192.082 254.594
L192.528 251.717
L192.974 242.539
L193.421 285.388
L193.867 254.25
L194.314 241.261
L194.76 284.921
L195.206 254.772
L195.653 241.911
L196.099 285.924
L196.546 254.018
L196.992 241.784
L197.438 285.292
L197.885 254.264
L198.331 245.582
L198.778 284.675
L199.224 252.706
L199.67 252.867
L200.117 284.647
L200.563 252.692
L201.01 252.87
L201.456 283.543
L201.902 253.023
L202.349 254.037
L202.795 252.207
L203.242 253.806
L203.688 254.084
L204.134 238.759
L204.581 249.421
L205.027 253.003
L205.474 243.298
L205.92 284.325
L206.366 132.798
L206.813 285.02
L207.259 254.637
L207.706 214.853
L208.152 277.395
L208.598 254.532
L209.045 251.685
L209.491 253.09
L209.938 253.255
L210.384 252.377
L210.83 247.501
L211.277 254.994
L211.723 253.379
L212.17 240.882
L212.616 286.003
L213.509 229.86
L213.955 260.33
L214.848 245.633
L215.294 282.5
L215.741 253.073
L216.187 252.404
L216.634 283.583
L217.08 248.248
L217.526 243.178
L217.973 285.674
L218.419 253.547
L218.866 253.921
L219.312 244.08
L219.758 254.964
L220.205 253.708
L220.651 242.167
L221.098 285.517
L221.544 253.501
L221.99 241.738
L222.437 284.471
L222.883 253.539
L223.33 241.783
L223.776 285.011
L224.222 252.918
L224.669 241.487
L225.115 285.101
L225.562 257.051
L226.008 236.617
L226.454 285.882
L226.901 253.332
L227.347 252.587
L227.794 284.852
L228.24 253.845
L228.686 252.198
L229.133 284.973
L229.579 253.575
L230.026 236.095
L230.472 284.825
L230.918 253.258
L231.365 254.217
L231.811 238.889
L232.258 252.58
L232.704 252.872
L233.15 248.294
L233.597 247.39
L234.043 253.696
L234.49 237.885
L234.936 280.662
L235.382 248.075
L235.829 244.185
L236.275 249.186
L236.722 246.316
L237.168 234.948
L237.614 281.178
L238.061 246.19
L238.507 246.784
L238.954 246.48
L239.4 246.629
L239.846 241.23
L240.293 245.878
L240.739 246.099
L241.186 243.705
L241.632 246.624
L242.078 244.649
L242.525 246.565
L242.971 246.756
L243.864 244.854
L244.31 245.287
L244.757 246.66
L245.203 242.271
L245.65 245.57
L246.096 247.324
L246.542 242.993
L246.989 245.723
L247.435 245.772
L247.882 244.65
L248.328 244.877
L248.774 244.825
L249.221 244.965
L249.667 246.087
L250.114 245.581
L250.56 245.478
L251.006 244.589
L251.453 247.875
L251.899 232.425
L252.346 280.759
L252.792 246.86
L253.238 243.975
L253.685 248.11
L254.131 246.153
L254.578 246.524
L255.024 247.5
L255.47 245.33
L255.917 245.785
L256.363 245.374
L256.81 246.82
L257.256 246.539
L257.702 245.961
L258.149 248.066
L258.595 233.098
L259.042 282.29
L259.488 247.57
L259.934 245.365
L260.381 248.7
L260.827 245.135
L261.274 244.403
L261.72 245.58
L262.166 245.961
L262.613 244.268
L263.059 245.059
L263.506 246.885
L263.952 243.514
L264.398 245.22
L264.845 247.654
L265.291 244.596
L265.738 247.727
L266.184 246.212
L266.63 235.091
L267.077 281.935
L267.523 246.977
L267.97 245.962
L268.416 245.925
L268.862 246.621
L269.755 244.582
L270.202 247.399
L270.648 244.184
L271.094 246.233
L271.541 245.944
L271.987 243.692
L272.434 245.971
L272.88 244.948
L273.326 246.349
L273.773 246.073
L274.219 244.487
L274.666 246.171
L275.112 245.969
L275.558 246.437
L276.005 244.093
L276.451 244.393
L276.898 246.388
L277.344 244.052
L277.79 234.656
L278.237 243.035
L279.13 246.737
L279.576 246.781
L280.022 247.378
L280.469 246.718
L280.915 244.965
L281.362 246.141
L281.808 244.097
L282.254 245.632
L282.701 245.11
L283.147 244.091
L283.594 247.937
L284.04 242.859
L284.486 246.074
L284.933 245.984
L285.379 243.925
L285.826 247.039
L286.272 245.056
L286.718 246.696
L287.165 247.456
L287.611 244.958
L288.058 235.782
L288.504 282.156
L288.95 247.025
L289.397 245.453
L289.843 246.024
L290.29 247.331
L290.736 245.099
L291.182 246.125
L291.629 246.707
L292.075 246.019
L292.522 246.756
L292.968 243.464
L293.414 246.674
L293.861 247.007
L294.307 245.823
L294.754 242.543
L295.2 248.808
L295.646 245.907
L296.093 234.332
L296.539 281.435
L296.986 247.642
L297.432 245.96
L297.878 247.555
L298.325 246.551
L298.771 246.268
L299.218 246.436
L299.664 245.926
L300.11 246.436
L300.557 245.554
L301.003 246.902
L301.45 244.979
L301.896 233.191
L302.342 243.451
L302.789 245.461
L303.682 247.922
L304.128 244.854
L304.574 246.876
L305.021 244.626
L305.914 246.542
L306.36 246.515
L306.806 245.195
L307.253 245.817
L307.699 246.187
L308.146 242.785
L308.592 247.118
L309.038 246.345
L309.485 241.716
L309.931 243.338
L310.378 243.123
L310.824 241.961
L311.27 242.684
L311.717 243.117
L312.163 241.449
L312.61 243.721
L313.056 243.437
L313.502 242.294
L313.949 244.665
L314.395 242.758
L314.842 243.25
L315.288 243.544
L315.734 243.476
L316.181 242.985
L316.627 242.737
L317.074 242.269
L317.52 241.589
L318.413 243.976
L318.859 240.835
L319.306 282.837
L319.752 243.304
L320.198 235.692
L320.645 248.669
L321.091 241.944
L322.43 242.25
L322.877 241.97
L323.323 243.47
L323.77 243.429
L324.216 241.908
L324.662 244.177
L325.109 242.209
L325.555 242.284
L326.002 244.858
L326.448 242.527
L326.894 242.792
L327.341 241.799
L327.787 244.055
L328.234 239.226
L328.68 284.015
L329.126 243.339
L329.573 242.796
L330.019 241.95
L330.466 244.318
L330.912 241.991
L331.358 241.933
L331.805 240.278
L332.251 239.731
L333.144 241.213
L333.59 238.731
L334.037 240.936
L334.483 240.928
L334.93 241.682
L335.376 240.526
L335.822 242.65
L336.269 226.587
L336.715 239.99
L337.162 243.719
L337.608 239.774
L338.054 281.092
L338.501 240.753
L338.947 240.548
L339.394 240.997
L339.84 240.457
L340.286 240.762
L340.733 241.919
L341.179 240.618
L341.626 234.914
L342.072 242.495
L342.518 241.766
L342.965 242.299
L343.411 242.247
L343.858 240.964
L344.304 235.884
L344.75 247.519
L345.197 240.263
L345.643 241.032
L346.09 231.687
L346.536 236.766
L346.982 240.053
L347.429 281.108
L347.875 241.453
L348.322 241.715
L348.768 239.411
L349.214 242.201
L349.661 240.984
L350.107 240.779
L350.554 241.175
L351 239.997
L351.446 241.423
L351.893 241.482
L352.339 235.324
L352.786 247.909
L353.232 242.513
L353.678 241.059
L354.125 241.697
L354.571 241.348
L355.018 240.772
L355.464 241.001
L355.91 239.067
L356.357 236.6
L356.803 251.423
L357.25 240.15
L357.696 232.328
L358.142 238.879
L358.589 241.64
L359.035 236.695
L359.482 239.054
L359.928 239.198
L360.374 236.57
L360.821 241.994
L361.267 239.728
L361.714 239.384
L362.16 238.864
L362.606 237.983
L363.053 238.253
L363.499 237.66
L363.946 239.922
L364.392 238.513
L364.838 238.826
L365.285 236.75
L365.731 235.435
L366.178 233.609
L366.624 237.582
L367.07 238.463
L367.517 238.798
L367.963 238.993
L368.41 232.949
L368.856 239.546
L369.302 241.71
L369.749 239.257
L370.195 239.144
L370.642 238.346
L371.088 238.829
L371.534 239.48
L371.981 239.612
L372.427 237.63
L372.874 241.675
L373.32 237.744
L373.766 237.719
L374.213 227.805
L374.659 231.834
L375.106 225.855
L375.552 239.066
L375.998 240.484
L376.445 240.665
L376.891 238.625
L377.338 239.432
L377.784 237.838
L378.23 237.436
L378.677 238.704
L379.123 233.089
L379.57 239.009
L380.016 239.963
L380.462 238.359
L380.909 239.211
L381.355 238.246
L381.802 239.224
L382.248 235.985
L382.694 238.435
L383.141 236.677
L383.587 238.488
L384.034 238.688
L384.48 232.07
L384.926 238.285
L385.373 234.721
L385.819 234.639
L386.266 235.529
L386.712 233.28
L387.158 232.477
L387.605 235.101
L388.051 234.615
L388.498 219.216
L388.944 234.426
L389.39 237.212
L389.837 233.789
L390.283 235.25
L390.73 234.438
L391.176 227.5
L391.622 234.144
L392.069 236.709
L392.515 224.621
L392.962 249.797
L393.408 235.064
L393.854 232.449
L394.301 233.994
L394.747 234.223
L395.194 231.123
L395.64 234.06
L396.086 234.16
L396.533 233.219
L396.979 234.086
L397.426 234.602
L397.872 227.432
L398.318 235.611
L398.765 236.056
L399.211 232.2
L399.658 234.672
L400.104 227.825
L400.55 239.276
L400.997 231.37
L401.443 233.47
L401.89 232.901
L402.336 234.462
L402.782 233.671
L403.229 232.077
L403.675 234.318
L404.122 234.223
L404.568 228.173
L405.014 235.911
L405.461 235.314
L405.907 235.949
L406.354 233.309
L406.8 234.698
L407.246 230.299
L407.693 222.734
L408.139 236.116
L408.586 227.664
L409.032 229.211
L409.478 229.75
L409.925 223.089
L410.371 230.435
L410.818 231.008
L411.264 271.537
L411.71 231.385
L412.157 220.999
L412.603 270.971
L413.05 233.372
L413.496 227.859
L413.942 230.311
L414.389 230.401
L414.835 226.147
L415.282 229.057
L415.728 230.407
L416.174 213.92
L416.621 230.323
L417.067 231.904
L417.96 228.786
L418.406 229.767
L418.853 227.598
L419.299 229.574
L419.746 229.118
L420.192 223.389
L420.638 231.39
L421.085 229.311
L421.531 268.84
L421.978 235.181
L422.424 225.696
L422.87 269.861
L423.317 227.9
L423.763 233.822
L424.21 231.216
L424.656 230.355
L425.102 227.523
L425.549 229.194
L425.995 230.004
L426.442 217.376
L426.888 226.145
L427.334 219.287
L427.781 270.362
L428.227 231.02
L428.674 230.225
L429.12 231.816
L429.566 228.624
L430.013 212.949
L430.459 232.645
L430.906 230.938
L431.352 218.344
L431.798 231.906
L432.245 229.505
L432.691 223.502
L433.138 225.987
L433.584 224.786
L434.03 265.844
L434.477 225.194
L434.923 216.18
L435.37 267.803
L435.816 226.592
L436.262 226.098
L436.709 224.698
L437.155 224.693
L437.602 267.622
L438.048 226.716
L438.494 215.976
L438.941 267.397
L439.387 224.47
L439.834 221.054
L440.28 226.588
L440.726 225.182
L441.173 267.451
L441.619 226.875
L442.066 211.634
L442.512 270.069
L442.958 226.359
L443.405 205.077
L443.851 226.336
L444.298 216.94
L444.744 269.174
L445.19 225.52
L445.637 221.268
L446.083 226.874
L446.53 226.577
L446.976 266.758
L447.422 225.583
L447.869 224.49
L448.315 267.479
L448.762 227.176
L449.208 212.108
L449.654 226.839
L450.101 226.281
L450.547 267.231
L450.994 225.88
L451.44 218.892
L451.886 262.106
L452.333 212.175
L452.779 261.392
L453.226 219.446
L453.672 215.57
L454.118 262.184
L454.565 218.173
L455.011 262.688
L455.458 217.433
L455.904 217.981
L456.35 217.776
L456.797 216.479
L457.243 262.536
L457.69 218.9
L458.136 217.919
L458.582 218.066
L459.029 216.882
L459.475 262.506
L459.922 216.889
L460.368 215.379
L460.814 220.927
L461.261 217.246
L461.707 262.488
L462.154 218.039
L462.6 217.632
L463.046 219.219
L463.493 215.415
L463.939 264.425
L464.386 218.817
L464.832 216.772
L465.278 217.383
L465.725 216.665
L466.171 261.223
L466.618 217.442
L467.064 212.197
L467.51 224.834
L467.957 216.253
L468.403 262.854
L468.85 219.119
L469.296 216.579
L469.742 215.624
L470.189 218.246
L470.635 262.252
L471.082 218.235
L471.528 215.323
L471.974 254.426
L472.421 215.45
L472.867 261.423
L473.314 217.897
L473.76 212.998
L474.206 223.57
L474.653 216.742
L475.099 262.669
L475.546 217.85
L475.992 218.149
L476.438 217.759
L476.885 216.914
L477.331 262.465
L477.778 217.987
L478.224 218.657
L478.67 218.892
L479.117 214.337
L479.563 263.451
L480.01 218.589
L480.456 211.966
L480.902 222.346
L481.349 216.865
L481.795 261.359
L482.242 218.444
L483.134 217.703
L483.581 165.377
L484.027 250.05
L484.474 219.508
L484.92 217.281
L485.366 218.125
L485.813 216.2
L486.259 256.181
L486.706 210.502
L487.152 203.555
L487.598 216.151
L488.045 197.116
L488.491 256.2
L488.938 208.671
L489.384 255.311
L489.83 209.284
L490.277 209.751
L490.723 209.973
L491.17 198.059
L491.616 256.602
L492.062 209.844
L492.509 200.964
L492.955 234.175
L493.402 198.052
L493.848 258.179
L494.294 210.58
L494.741 212.11
L495.187 209.324
L495.634 179.796
L496.08 220.956
L496.526 210.621
L496.973 208.36
L497.419 198.495
L497.866 194.693
L498.312 257.289
L498.758 209.873
L499.205 257.519
L499.651 210.132
L500.098 209.286
L500.544 208.923
L500.99 193.613
L501.437 256.848
L501.883 209.59
L502.33 194.734
L502.776 210.805
L503.222 200.426
L503.669 281.934
L504.115 261.802
L504.562 255.386
L505.008 293.053
L505.454 267.183
L505.901 268.968
L506.347 266.36
L506.794 266.971
L507.24 268.138
L507.686 265.82
L508.133 293.888
L508.579 267.629
L509.026 267.552
L509.472 266.327
L509.918 268.635
L510.365 266.56
L510.811 252.156
L511.258 293.269
L511.704 268.653
L512.15 268.798
L512.597 267.142
L513.043 267.351
L513.49 266.938
L513.936 254.245
L514.382 294.026
L514.829 266.831
L515.275 266.277
L515.722 271.227
L516.168 266.864
L516.614 265.018
L517.061 266.461
L517.507 292.374
L517.954 269.027
L517.954 269.027" style="fill:none;stroke:#ff0000;"/>
   </g>
   <g id="line2d_2">
    <path clip-path="url(#p7ff5b81e1d)" d="
M72 215.062
L72.4464 208.125
L72.8928 263.286
L73.3392 188.069
L73.7856 183.691
L74.232 188.397
L74.6784 160.479
L75.1248 183.234
L75.5712 266.559
L76.0176 186.98
L76.464 186.671
L76.9104 178.2
L77.3568 129.904
L77.8032 262.273
L78.2496 156.297
L78.696 263.837
L79.1424 292.723
L79.5888 185.348
L80.0352 252.773
L80.4816 294.181
L80.928 182.519
L81.3744 189.932
L81.8208 265.97
L82.2672 263.545
L82.7136 261.736
L83.16 185.905
L83.6064 184.03
L84.0528 185.014
L84.4992 266.86
L84.9456 171.153
L85.392 184.898
L85.8384 176.29
L86.2848 179.863
L86.7312 258.952
L87.1776 169.745
L87.624 176.795
L88.0704 181.643
L88.5168 170.992
L88.9632 291.302
L89.4096 263.587
L89.856 254.843
L90.3024 203.899
L90.7488 262.924
L91.1952 183.717
L91.6416 182.212
L92.088 248.053
L92.5344 211.701
L92.9808 264.521
L93.4272 263.762
L93.8736 182.573
L94.32 263.674
L94.7664 177.986
L95.2128 263.154
L95.6592 264.092
L96.1056 263.31
L96.552 173.752
L96.9984 262.775
L97.4448 182.514
L97.8912 262.577
L98.3376 263.242
L98.784 255.657
L99.2304 173.206
L99.6768 261.475
L100.123 206.658
L100.57 262.794
L101.016 185.195
L101.462 182.173
L102.355 276.101
L102.802 264.406
L103.248 169.084
L103.694 292.166
L104.141 180.342
L104.587 260.342
L105.034 263.756
L105.48 262.476
L105.926 249.109
L106.373 291.302
L106.819 263.438
L107.266 261.358
L107.712 211.785
L108.158 264.998
L108.605 264.612
L109.051 291.225
L109.498 265.565
L109.944 264.484
L110.39 268.615
L110.837 263.083
L111.283 264.413
L111.73 182.718
L112.176 263.377
L112.622 263.534
L113.069 249.581
L113.515 195.763
L113.962 262.505
L114.408 183.534
L114.854 262.73
L115.301 256.44
L115.747 184.415
L116.194 264.434
L116.64 262.64
L117.086 258.769
L117.533 263.826
L117.979 265.568
L118.426 252.986
L118.872 291.662
L119.318 264.487
L119.765 264.008
L120.211 262.423
L120.658 264.139
L121.104 183.164
L121.55 263.574
L121.997 263.021
L122.443 264.09
L122.89 249.577
L123.336 290.997
L123.782 264.839
L124.229 265.841
L124.675 247.812
L125.122 263.033
L125.568 261.456
L126.014 181.951
L126.461 260.34
L126.907 262.259
L127.354 258.703
L127.8 261.444
L128.246 259.537
L128.693 229.924
L129.139 275.789
L129.586 261.4
L130.032 262.923
L130.478 260.23
L130.925 263.541
L131.371 261.389
L131.818 248.745
L132.264 290.836
L132.71 262.993
L133.157 261.432
L133.603 290.435
L134.05 261.452
L134.496 262.131
L134.942 259.633
L135.389 262.65
L135.835 261.929
L136.282 249.656
L136.728 291.739
L137.174 263.165
L137.621 262.16
L138.067 289.947
L138.514 260.413
L138.96 261.586
L139.406 260.9
L139.853 261.573
L140.299 261.041
L140.746 250.935
L141.192 291.376
L141.638 260.86
L142.085 263.666
L142.531 290.61
L142.978 259.632
L143.424 265.063
L143.87 262.321
L144.317 262.851
L144.763 176.878
L145.21 182.516
L145.656 261.131
L146.102 261.106
L146.549 256.756
L146.995 261.4
L147.442 260.218
L147.888 246.744
L148.334 259.573
L148.781 263.001
L149.227 261.943
L149.674 262.606
L150.12 261.483
L150.566 262.463
L151.013 249.385
L151.459 290.068
L151.906 262.758
L152.352 263.221
L152.798 291.662
L153.245 262.036
L153.691 264.277
L154.138 261.905
L154.584 262.265
L155.03 260.665
L155.477 243.933
L155.923 259.384
L156.37 261.625
L156.816 260.993
L157.262 288.688
L157.709 261.995
L158.155 261.965
L158.602 261.067
L159.048 262.185
L159.494 261.342
L159.941 249.811
L160.387 290.053
L160.834 261.823
L161.28 262.192
L161.726 289.923
L162.173 261.316
L162.619 260.883
L163.066 262.647
L163.512 261.791
L163.958 260.105
L164.405 250.165
L164.851 290.591
L165.298 261.95
L165.744 262.935
L166.19 290.768
L166.637 260.113
L167.083 261.816
L167.53 260.51
L167.976 260.858
L168.422 260.99
L168.869 244.295
L169.315 259.757
L169.762 260.654
L170.208 263.11
L170.654 289.457
L171.101 260.027
L171.547 262.587
L171.994 261.408
L172.44 263.854
L172.886 259.069
L173.333 248.69
L173.779 288.285
L174.226 178.371
L174.672 261.679
L175.118 261.449
L175.565 261.704
L176.011 247.614
L176.458 288.4
L176.904 259.28
L177.35 259.639
L177.797 288.595
L178.243 258.417
L179.136 260.247
L179.582 257.098
L180.029 258.847
L180.475 245.967
L180.922 288.987
L181.368 260.206
L181.814 252.421
L182.261 288.956
L182.707 261.082
L183.154 259.462
L183.6 250.777
L184.046 292.677
L184.493 256.97
L184.939 247.316
L185.386 287.563
L185.832 258.978
L186.278 247.773
L186.725 288.015
L187.171 258.164
L187.618 253.707
L188.064 288.067
L188.51 258.868
L188.957 260.224
L189.403 243.554
L189.85 257.531
L190.296 260.304
L190.742 246.969
L191.189 288.384
L191.635 258.563
L192.082 244.35
L192.528 287.575
L192.974 258.544
L193.421 260.403
L193.867 288.739
L194.314 258.145
L194.76 260.235
L195.206 256.973
L195.653 259.012
L196.099 256.579
L196.546 246.743
L196.992 289.259
L197.438 258.581
L197.885 246.505
L198.331 287.786
L198.778 258.472
L199.224 258.636
L199.67 287.537
L200.117 258.485
L200.563 259.44
L201.01 247.948
L201.456 258.311
L201.902 259.795
L202.349 246.467
L202.795 289.678
L203.688 229.446
L204.134 273.204
L204.581 259.394
L205.027 258.171
L205.474 253.081
L205.92 257.988
L206.366 257.726
L206.813 245.819
L207.259 288.828
L207.706 258.43
L208.152 248.532
L208.598 287.243
L209.045 257.895
L209.491 258.537
L209.938 286.347
L210.384 258.07
L210.83 257.988
L211.277 259.609
L211.723 258.231
L212.17 256.169
L212.616 247.15
L213.062 287.589
L213.509 257.98
L213.955 258.618
L214.402 287.33
L214.848 258.33
L215.294 259.081
L215.741 288.166
L216.187 258.627
L216.634 258.033
L217.08 258.553
L217.526 259.39
L217.973 255.298
L218.419 244.206
L218.866 285.919
L219.758 233.13
L220.205 271.506
L220.651 255.762
L221.098 257.808
L221.544 241.958
L221.99 256.342
L222.437 257.558
L222.883 245.582
L223.33 287.98
L223.776 257.126
L224.222 243.419
L224.669 286.719
L225.115 258.064
L225.562 244.608
L226.008 286.326
L226.454 257.373
L226.901 256.551
L227.347 286.401
L227.794 256.942
L228.24 256.161
L228.686 257.698
L229.133 255.193
L229.579 256.81
L230.026 254.403
L230.472 285.86
L230.918 257.64
L231.365 244.511
L231.811 254.632
L232.258 259.102
L232.704 256.007
L233.15 287.869
L233.597 256.778
L234.043 256.25
L234.49 257.747
L234.936 257.11
L235.382 255.786
L235.829 243.829
L236.275 287.121
L236.722 256.249
L237.168 244.993
L237.614 286.063
L238.061 264.735
L238.507 253.732
L238.954 286.125
L239.4 256.229
L239.846 257.246
L240.293 285.509
L240.739 255.639
L241.186 257.263
L241.632 254.661
L242.078 257.324
L242.525 253.556
L242.971 244.969
L243.418 284.715
L243.864 255.383
L244.31 244.501
L244.757 285.584
L245.203 255.106
L245.65 249.019
L246.096 288.151
L246.542 254.214
L246.989 258.682
L247.435 286.221
L247.882 256.347
L248.328 256.589
L248.774 256.047
L249.221 257.733
L249.667 254.27
L250.114 242.921
L250.56 287.892
L251.006 255.762
L251.453 244.94
L251.899 287.332
L252.346 255.336
L252.792 246.389
L253.238 287.55
L253.685 256.474
L254.131 257.258
L254.578 287.797
L255.024 254.946
L255.47 258.194
L255.917 252.958
L256.363 256.07
L256.81 255.02
L257.256 239.909
L257.702 286.604
L258.149 257.403
L258.595 244.108
L259.042 288.299
L259.488 257.053
L259.934 244.214
L260.381 287.566
L260.827 256.707
L261.274 249.121
L261.72 286.414
L262.166 256.07
L262.613 255.616
L263.059 285.982
L263.506 255.249
L263.952 259.465
L264.398 255.516
L264.845 256.678
L265.291 254.405
L265.738 241.277
L266.184 286.924
L266.63 256.036
L267.077 241.903
L267.523 287.746
L267.97 257.164
L268.416 241.333
L268.862 286.253
L269.309 254.466
L269.755 248.295
L270.202 287.318
L270.648 255.205
L271.094 257.84
L271.541 287.579
L271.987 254.205
L272.434 253.883
L272.88 243.729
L273.326 253.768
L273.773 254.229
L274.219 252.034
L274.666 253.122
L275.112 252.199
L275.558 240.024
L276.005 286.125
L276.451 254.679
L276.898 242.541
L277.344 283.849
L277.79 253.87
L278.237 245.553
L278.683 285.507
L279.13 253.98
L279.576 255.24
L280.022 284.798
L280.469 252.686
L280.915 256.046
L281.362 250.991
L281.808 253.947
L282.254 250.354
L282.701 250.148
L283.147 251.297
L283.594 250.694
L284.04 240.044
L284.486 283.692
L284.933 254.557
L285.379 241.494
L285.826 283.865
L286.272 253.265
L286.718 241.483
L287.165 283.911
L287.611 252.177
L288.058 241.758
L288.504 285.988
L288.95 264.457
L289.397 253.403
L289.843 286.046
L290.29 254
L290.736 253.919
L291.182 284.58
L291.629 252.357
L292.075 253.5
L292.522 253.401
L292.968 252.926
L293.414 253.237
L293.861 250.082
L294.307 252.202
L294.754 252.288
L295.2 241.768
L295.646 284.969
L296.093 253.36
L296.539 242.449
L296.986 284.486
L297.432 257.444
L297.878 242.742
L298.325 284.85
L298.771 252.499
L299.218 246.387
L299.664 285.171
L300.11 252.812
L300.557 252.692
L301.003 284.702
L301.45 253.481
L301.896 253.595
L302.342 284.259
L302.789 251.999
L303.235 253.311
L303.682 252.654
L304.128 250.952
L304.574 253.613
L305.021 250.542
L305.467 252.259
L305.914 253.338
L306.36 240.686
L306.806 250.78
L307.253 252.689
L307.699 243.385
L308.146 283.059
L308.592 252.14
L309.038 241.256
L309.485 285.892
L309.931 252.715
L310.378 261.481
L310.824 294.336
L311.27 266.891
L311.717 267.187
L312.163 266.615
L312.61 268.273
L313.056 265.921
L313.502 228.914
L313.949 286.94
L314.395 266.897
L314.842 276.598
L315.288 268.84
L315.734 266.695
L316.181 265.992
L316.627 262.341
L317.074 292.76
L317.52 266.851
L317.966 269.163
L318.413 266.462
L318.859 267.265
L319.306 266.715
L319.752 229.161
L320.198 288.014
L320.645 267.088
L321.091 267.47
L321.538 266.445
L321.984 268.638
L322.43 267.945
L322.877 266.764
L323.323 293.213
L323.77 268.07
L324.216 264.538
L324.662 270.684
L325.109 266.315
L325.555 267.319
L326.002 266.321
L326.448 294.119
L326.894 268.219
L327.341 268.554
L327.787 264.27
L328.234 268.484
L328.68 267.738
L329.126 229.439
L329.573 287.5
L330.019 268.735
L330.466 268.471
L330.912 266.791
L331.358 267.592
L331.805 268.696
L332.251 266.267
L332.698 294.051
L333.144 268.124
L333.59 265.219
L334.037 271.443
L334.483 267.708
L334.93 268.38
L335.376 266.052
L335.822 293.644
L336.269 268.898
L336.715 266.645
L337.162 267.071
L337.608 267.342
L338.501 266.942
L338.947 294.397
L339.394 267.266
L339.84 268.084
L340.286 267.006
L340.733 267.888
L341.179 265.44
L341.626 265.885
L342.072 294.026
L342.518 266.24
L342.965 266.313
L343.411 268.763
L344.304 265.08
L344.75 235.166
L345.197 279.97
L345.643 266.81
L346.09 265.675
L346.536 265.179
L346.982 265.489
L347.429 265.947
L347.875 253.002
L348.322 291.838
L348.768 266.474
L349.214 265.045
L349.661 259.268
L350.107 265.734
L350.554 266.945
L351 255.35
L351.446 293.63
L351.893 267.046
L352.339 265.676
L352.786 266.346
L353.232 265.99
L353.678 265.115
L354.125 253.615
L354.571 293.754
L355.018 265.461
L355.464 266.81
L355.91 263.627
L356.357 266.885
L356.803 265.147
L357.25 253.442
L357.696 293.238
L358.142 267.577
L358.589 266.201
L359.035 263.879
L359.482 266.497
L359.928 264.078
L360.374 254.287
L360.821 293.869
L361.267 266.535
L361.714 263.531
L362.16 268.01
L362.606 265.946
L363.053 265.815
L363.499 235.768
L363.946 279.673
L364.392 265.919
L364.838 265.791
L365.285 266.682
L365.731 265.621
L366.178 263.293
L366.624 252.607
L367.07 291.315
L367.517 263.826
L367.963 263.109
L368.41 250.294
L368.856 264.06
L369.302 264.646
L369.749 264.564
L370.195 265.293
L371.088 260.381
L371.534 292.779
L371.981 264.579
L372.427 263.11
L373.32 263.811
L373.766 261.625
L374.213 250.804
L374.659 291.056
L375.106 263.014
L375.552 262.194
L375.998 290.875
L376.445 264.212
L376.891 263.073
L377.338 262.445
L377.784 263.381
L378.23 262.204
L378.677 260.687
L379.123 291.805
L379.57 264.176
L380.016 263.717
L380.462 264.893
L380.909 264.495
L381.355 263.203
L381.802 262.285
L382.248 292.876
L382.694 262.232
L383.141 264.866
L383.587 249.198
L384.034 264.757
L384.48 264.476
L384.926 252.001
L385.373 290.4
L385.819 263.691
L386.266 263.986
L386.712 262.177
L387.158 263.394
L387.605 262.908
L388.051 250.352
L388.498 290.647
L388.944 264.386
L389.39 264.198
L389.837 246.303
L390.283 264.998
L390.73 276.159
L391.176 259.194
L391.622 290.581
L392.069 263.737
L392.515 264.532
L392.962 262.072
L393.408 263.598
L393.854 262.892
L394.301 251.348
L394.747 292.064
L395.194 263.091
L395.64 262.569
L396.086 243.957
L396.533 263.973
L397.426 263.884
L397.872 265.191
L398.318 263.231
L398.765 239.129
L399.211 269.943
L399.658 264.459
L400.104 263.956
L400.55 262.433
L400.997 264.979
L401.443 263.358
L401.89 250.726
L402.336 292.949
L402.782 263.686
L403.675 262.667
L404.122 264.56
L404.568 262.267
L405.014 249.865
L405.461 291.595
L405.907 262.549
L406.354 261.84
L406.8 290.491
L407.246 262.749
L407.693 262.621
L408.139 260.552
L408.586 261.938
L409.032 260.302
L409.478 250.791
L409.925 290.077
L410.371 268.75
L410.818 263.148
L411.264 291.452
L411.71 261.77
L412.603 262.48
L413.05 261.585
L413.496 259.397
L413.942 247.243
L414.389 260.933
L415.282 263.64
L415.728 251.939
L416.174 262.329
L416.621 262.134
L417.067 251.398
L417.514 290.092
L417.96 262.122
L418.406 250.114
L418.853 289.211
L419.299 261.341
L419.746 263.448
L420.192 260.876
L420.638 260.96
L421.085 262.999
L421.531 247.662
L421.978 289.547
L422.424 261.676
L422.87 222.323
L423.317 282.941
L423.763 262.074
L424.656 260.857
L425.102 262.183
L425.549 262.431
L425.995 249.459
L426.442 290.231
L426.888 261.189
L427.334 262.139
L427.781 290.583
L428.227 260.266
L428.674 265.275
L429.12 260.95
L429.566 262.503
L430.013 260.969
L430.459 249.297
L430.906 288.981
L431.352 262.831
L431.798 261.959
L432.245 289.386
L432.691 261.722
L433.138 262.542
L433.584 260.151
L434.03 262.163
L434.477 259.566
L434.923 248.454
L435.37 288.7
L435.816 262.48
L436.262 261.312
L436.709 289.722
L437.155 260.283
L437.602 262.774
L438.048 260.368
L438.494 261.11
L438.941 260.035
L439.387 249.29
L439.834 291.858
L440.28 261.836
L440.726 216.756
L441.173 289.89
L441.619 260.558
L442.066 261.075
L442.512 262.146
L442.958 260.935
L443.405 261.598
L443.851 248.251
L444.298 289.832
L444.744 257.551
L445.19 255.498
L445.637 289.496
L446.083 260.203
L446.53 262.205
L446.976 261.372
L447.422 260.896
L447.869 259.604
L448.315 249.514
L448.762 288.483
L449.208 261.114
L449.654 252.935
L450.101 289.86
L450.547 260.39
L450.994 259.625
L451.44 256.805
L451.886 262.144
L452.333 259.734
L452.779 247.704
L453.226 289.285
L453.672 262.215
L454.118 253.264
L454.565 289.208
L455.011 258.365
L455.458 260.013
L455.904 257.575
L456.35 258.075
L456.797 256.367
L457.243 247.484
L457.69 288.602
L458.136 258.319
L458.582 245.824
L459.029 287.55
L459.475 257.613
L459.922 258.691
L460.368 287.599
L460.814 258.481
L461.261 258.334
L461.707 258.445
L462.154 258.808
L462.6 257.79
L463.046 245.926
L463.493 288.192
L463.939 259.067
L464.386 246.754
L464.832 288.654
L465.278 258.653
L465.725 258.399
L466.171 286.575
L466.618 257.661
L467.064 259.169
L467.51 257.45
L467.957 259.112
L468.403 258.585
L468.85 245.669
L469.296 287.284
L469.742 258.515
L470.189 246.222
L470.635 286.183
L471.082 260.247
L471.528 259.978
L471.974 287.959
L472.421 259.366
L472.867 258.886
L473.314 257.122
L473.76 254.328
L474.206 262.362
L474.653 246.275
L475.099 287.02
L475.546 259.798
L475.992 248.243
L476.438 287.732
L476.885 259.571
L477.331 257.799
L477.778 287.754
L478.224 258.604
L478.67 258.467
L479.117 259.826
L479.563 257.676
L480.01 257.008
L480.456 246.746
L480.902 288.939
L481.349 257.922
L481.795 245.788
L482.242 287.979
L482.688 259.84
L483.134 258.928
L483.581 289.558
L484.027 258.13
L484.474 259.919
L485.366 256.673
L485.813 255.791
L486.259 247.779
L486.706 288.297
L487.152 257.268
L487.598 248.119
L488.045 287.4
L488.491 259.312
L488.938 258.545
L489.384 287.663
L489.83 258.816
L490.277 259.21
L490.723 254.565
L491.616 260.715
L492.062 244.25
L492.509 258.856
L492.955 257.733
L493.402 260.689
L493.848 289.732
L494.294 258.79
L494.741 260.929
L495.187 258.11
L495.634 257.512
L496.08 255.291
L496.526 245.172
L496.973 285.56
L497.419 257.922
L497.866 244.379
L498.312 286.071
L498.758 258.057
L499.205 249.38
L499.651 285.871
L500.098 255.037
L500.544 255.961
L500.99 285.732
L501.437 256.134
L501.883 256.756
L502.33 254.719
L502.776 255.606
L503.222 255.093
L503.669 244.241
L504.115 286.291
L504.562 256.226
L505.008 245.494
L505.454 287.747
L505.901 256.483
L506.347 245.3
L506.794 287.071
L507.24 257.649
L507.686 219.298
L508.133 279.079
L508.579 257.121
L509.026 257.048
L509.472 255.294
L509.918 254.843
L510.365 256.612
L510.811 242.625
L511.258 285.61
L511.704 256.303
L512.15 245.987
L512.597 285.804
L513.043 256.024
L513.49 245.281
L513.936 285.794
L514.382 255.614
L514.829 256.984
L515.275 286.054
L515.722 256.712
L516.168 257.008
L516.614 252.55
L517.061 256.959
L517.507 258.393
L517.954 246.177
L517.954 246.177" style="fill:none;opacity:0.7;stroke:#008000;"/>
   </g>
   <g id="line2d_3">
    <path clip-path="url(#p7ff5b81e1d)" d="
M72 274.046
L72.4464 253.383
L72.8928 250.371
L73.3392 253.402
L73.7856 251.014
L74.232 251.434
L74.6784 250.664
L75.1248 251.463
L75.5712 239.89
L76.0176 282.68
L76.9104 229.947
L77.3568 259.928
L77.8032 251.901
L78.2496 248.522
L78.696 281.869
L79.1424 252.473
L79.5888 252.045
L80.0352 282.193
L80.4816 252.098
L80.928 249.095
L81.3744 232.55
L81.8208 252.655
L82.2672 251.484
L82.7136 280.695
L83.16 252.043
L83.6064 251.746
L84.0528 282.841
L84.4992 252.477
L84.9456 251.774
L85.392 282.699
L85.8384 252.634
L86.2848 167.858
L86.7312 254.27
L87.1776 251.11
L87.624 233.342
L88.0704 283.429
L88.5168 251.784
L88.9632 235.363
L89.4096 283.57
L89.856 253.048
L90.3024 240.728
L90.7488 283.105
L91.1952 251.513
L91.6416 241.175
L92.088 284.209
L92.5344 254.24
L92.9808 242.505
L93.4272 285.867
L93.8736 255.594
L94.32 242.405
L94.7664 286.4
L95.2128 169.698
L95.6592 252.153
L96.1056 250.965
L96.552 252.001
L96.9984 242.309
L97.4448 287.724
L97.8912 250.89
L98.3376 246.311
L98.784 254.118
L99.2304 251.428
L99.6768 241.847
L100.123 279.99
L100.57 247.771
L101.016 235.436
L101.462 259.701
L101.909 246.808
L102.355 247.202
L102.802 245.795
L103.248 245.902
L103.694 244.468
L104.141 245.533
L104.587 245.637
L105.034 238.666
L105.48 250.04
L105.926 245.956
L106.373 243.924
L106.819 247.253
L107.266 244.556
L107.712 246.184
L108.158 245.394
L108.605 245.387
L109.051 246.463
L109.498 245.184
L109.944 244.784
L110.39 245.853
L110.837 245.348
L111.283 246.75
L111.73 243.575
L112.176 245.661
L113.069 243.268
L113.515 245.891
L113.962 245.122
L114.408 246.022
L114.854 245.678
L115.747 244.455
L116.194 244.523
L116.64 246.145
L117.086 244.119
L117.979 245.931
L118.426 243.595
L118.872 245.499
L119.318 245.81
L119.765 242.773
L120.211 246.009
L120.658 242.878
L121.104 246.382
L121.55 246.053
L121.997 244.974
L122.443 245.73
L122.89 243.859
L123.336 245.796
L123.782 247.183
L124.229 244.797
L124.675 247.135
L125.122 243.248
L125.568 158.956
L126.014 246.356
L126.461 279.643
L126.907 246.142
L127.354 236.586
L127.8 279.048
L128.246 246.347
L128.693 234.911
L129.139 279.683
L129.586 245.474
L130.032 235.986
L130.478 195.386
L130.925 248.038
L131.371 283.933
L131.818 248.534
L132.264 244.944
L132.71 280.293
L133.157 244.87
L133.603 240.255
L134.05 277.715
L134.496 246.107
L134.942 235.059
L135.389 280.833
L135.835 247.057
L136.282 235.37
L136.728 279.473
L137.174 244.939
L137.621 235.108
L138.067 279.74
L138.514 247.607
L138.96 235.956
L139.406 279.033
L139.853 248.244
L140.299 246.082
L140.746 245.384
L141.192 245.55
L141.638 244.581
L142.085 245.209
L142.531 244.251
L142.978 244.864
L143.424 246.072
L143.87 244.642
L144.317 233.929
L144.763 280.738
L145.21 247.638
L145.656 245.294
L146.102 246.679
L146.549 245.457
L146.995 244.563
L147.442 239.122
L147.888 252.113
L148.334 244.04
L148.781 246.375
L149.227 244.687
L149.674 244.981
L150.12 246.272
L150.566 244.807
L151.013 225.475
L151.459 252.126
L151.906 250.866
L152.352 248.384
L152.798 247.622
L153.245 248.538
L153.691 246.257
L154.138 246.291
L154.584 247.913
L155.03 244.084
L155.477 247.615
L155.923 246.319
L156.37 245.981
L156.816 248.113
L157.262 245.551
L157.709 234.317
L158.155 280.808
L158.602 248.705
L159.048 244.545
L159.494 246.684
L159.941 246.248
L160.387 244.735
L160.834 244.473
L161.28 246.296
L161.726 243.335
L162.173 246.974
L162.619 245.383
L163.066 245.472
L163.512 247.533
L163.958 244.983
L164.851 245.837
L165.298 245.898
L165.744 244.834
L166.19 244.843
L166.637 246.387
L167.083 243.31
L167.53 246.473
L167.976 245.539
L168.422 243.779
L168.869 246.504
L169.315 244.978
L169.762 245.088
L170.208 246.863
L170.654 244.209
L171.101 245.774
L171.547 245.013
L171.994 244.994
L172.44 244.135
L172.886 245.059
L173.333 246.259
L173.779 243.948
L174.226 242.651
L174.672 244.058
L175.118 240.947
L175.565 242.968
L176.011 242.581
L176.458 241.963
L176.904 243.316
L177.35 242.787
L177.797 241.386
L178.243 245.572
L179.136 241.491
L179.582 242.954
L180.029 241.29
L180.475 241.497
L180.922 243.204
L181.368 242.63
L181.814 241.429
L182.261 241.942
L182.707 243.584
L183.154 241.853
L183.6 238.236
L184.046 248.215
L184.493 241.732
L184.939 241.443
L185.386 243.535
L185.832 240.282
L186.278 243.42
L186.725 241.448
L187.171 242.365
L187.618 242.291
L188.51 241.629
L188.957 244.097
L189.403 242.503
L189.85 242.4
L190.296 242.763
L190.742 241.023
L191.189 242.751
L191.635 236.113
L192.082 249.077
L192.528 240.427
L192.974 242.713
L193.421 242.996
L193.867 241.058
L194.76 243.902
L195.206 241.901
L195.653 242.182
L196.099 248.59
L196.546 239.696
L196.992 239.937
L197.438 244.143
L197.885 237.262
L198.331 240.775
L198.778 241.423
L199.224 238.832
L199.67 233.898
L200.117 246.198
L200.563 239.055
L201.01 240.769
L201.456 241.545
L201.902 238.618
L202.349 241.601
L202.795 241.289
L203.242 239.015
L203.688 241.698
L204.134 240.22
L204.581 241.184
L205.027 241.418
L205.474 239.682
L205.92 239.691
L206.366 239.944
L206.813 241.622
L207.259 238.316
L207.706 236.074
L208.152 245.976
L208.598 240.263
L209.045 241.735
L209.491 239.941
L209.938 240.255
L210.384 242.25
L210.83 238.568
L211.277 240.434
L211.723 241.7
L212.17 248.793
L212.616 239.754
L213.062 241.403
L213.509 239.256
L213.955 240.141
L214.402 241.484
L214.848 240.672
L215.294 240.735
L215.741 233.936
L216.187 247.048
L216.634 239.349
L217.08 240.368
L217.526 241.98
L217.973 239.249
L218.419 239.765
L218.866 241.289
L219.312 239.73
L219.758 241.159
L220.205 239.583
L220.651 237.248
L221.098 237.512
L221.544 239.116
L221.99 237.553
L222.883 238.598
L223.33 233.531
L223.776 236.743
L224.222 242.726
L224.669 238.191
L225.562 239.776
L226.008 239.308
L226.454 238.281
L226.901 236.711
L227.347 239.596
L227.794 236.478
L228.686 233.454
L229.133 239.355
L229.579 239.474
L230.026 239.808
L230.472 240.945
L230.918 237.725
L231.365 237.17
L231.811 239.594
L232.704 235.889
L233.15 239.064
L233.597 238.319
L234.043 237.892
L234.49 238.248
L234.936 239.885
L235.382 236.592
L235.829 238.93
L236.275 238.021
L236.722 234.744
L237.168 252.737
L237.614 237.904
L238.061 236.218
L238.507 239.018
L238.954 238.353
L239.4 229.208
L239.846 242.366
L240.739 239
L241.186 238.368
L241.632 239.281
L242.078 236.032
L242.525 236.107
L242.971 239.519
L243.418 236.405
L243.864 237.895
L244.31 237.324
L244.757 233.039
L245.203 238.913
L245.65 239.924
L246.096 239.38
L246.542 240.595
L246.989 239.942
L247.435 236.57
L247.882 238.499
L248.328 238.49
L248.774 230.418
L249.221 240.34
L249.667 238.316
L250.114 227.64
L250.56 235.298
L251.006 235.751
L251.899 233.431
L252.346 237.091
L252.792 232.052
L253.238 233.605
L253.685 234.26
L254.131 218.327
L254.578 234.999
L255.024 236.4
L255.47 234.628
L255.917 226.845
L256.363 239.597
L256.81 217.84
L257.256 236.318
L257.702 235.104
L258.149 235.027
L258.595 234.209
L259.042 233.821
L259.488 227.8
L259.934 235.324
L260.381 235.349
L260.827 235.912
L261.274 236.128
L261.72 233.001
L262.166 233.236
L262.613 234.069
L263.059 235.199
L263.506 217.725
L263.952 239.439
L264.398 236.908
L264.845 231.199
L265.291 267.832
L265.738 232.995
L266.184 272.737
L266.63 235.113
L267.077 235.732
L267.523 272.916
L267.97 234.783
L268.416 234.814
L268.862 235.271
L269.309 234.458
L269.755 232.325
L270.202 233.855
L270.648 234.841
L271.094 215.722
L271.541 236.33
L272.434 228.448
L272.88 230.149
L273.326 229.229
L273.773 213.111
L274.219 233.027
L274.666 232.286
L275.112 225.479
L275.558 229.624
L276.005 230.877
L276.451 269.774
L276.898 230.156
L277.344 229.662
L277.79 271.212
L278.237 231.936
L278.683 213.17
L279.13 232.905
L279.576 230.379
L280.022 270.279
L280.469 230.206
L280.915 222.767
L281.362 272.614
L281.808 231.367
L282.254 230.064
L282.701 230.138
L283.147 225.903
L283.594 271.933
L284.04 231.897
L284.486 230.158
L284.933 269.607
L285.379 230.345
L285.826 229.024
L286.272 231.138
L286.718 223.542
L287.165 272.124
L287.611 231.413
L288.058 232.462
L288.504 272.14
L288.95 229.25
L289.397 230.177
L289.843 230.039
L290.29 229.564
L290.736 214.473
L291.182 229.539
L291.629 228.874
L292.075 269.961
L292.522 230.071
L292.968 229.641
L293.414 269.845
L293.861 228.047
L294.307 233.573
L294.754 231.116
L295.2 229.358
L295.646 215.611
L296.093 231.004
L296.539 230.502
L296.986 228.59
L297.432 225.918
L297.878 224.027
L298.325 266.949
L298.771 225.998
L299.218 216.344
L299.664 268.008
L300.11 225.119
L300.557 226.29
L301.003 217.657
L301.45 228.651
L301.896 268.841
L302.342 227.3
L302.789 216.02
L303.235 267.873
L303.682 225.742
L304.128 219.297
L304.574 225.218
L305.021 170.214
L305.467 266.474
L305.914 226.11
L306.36 215.635
L306.806 267.92
L307.253 225.88
L307.699 226.67
L308.146 224.138
L308.592 232.161
L309.038 268.169
L309.485 224.315
L309.931 216.074
L310.378 267.903
L310.824 226.148
L311.27 211.798
L311.717 225.287
L312.163 225.12
L312.61 267.477
L313.056 225.833
L313.502 216.581
L313.949 270.232
L314.395 225.54
L314.842 206.43
L315.288 243.612
L315.734 216.082
L316.181 265.718
L316.627 215.053
L317.074 219.269
L317.52 219.28
L317.966 217.892
L318.413 263.56
L318.859 218.069
L319.306 217.288
L319.752 219.235
L320.198 217.671
L320.645 263.235
L321.091 220.077
L321.538 218.021
L321.984 212.075
L322.43 173.602
L322.877 249.704
L323.323 218.814
L323.77 217.898
L324.216 217.389
L324.662 165.313
L325.109 257.913
L325.555 221.07
L326.002 218.887
L326.448 219.805
L326.894 218.33
L327.341 262.831
L327.787 217.427
L328.234 217.567
L328.68 210.457
L329.126 162.773
L329.573 259.81
L330.019 216.862
L330.466 218.127
L330.912 218.455
L331.358 164.299
L331.805 260.557
L332.251 215.558
L332.698 216.485
L333.144 217.932
L333.59 155.684
L334.037 260.357
L334.483 216.525
L334.93 216.427
L335.376 211.843
L335.822 221.899
L336.269 263.709
L336.715 219.903
L337.608 217.974
L338.054 226.287
L338.501 264.03
L338.947 218.12
L339.394 216.896
L339.84 216.936
L340.286 156.363
L340.733 259.242
L341.179 218.493
L341.626 217.656
L342.072 211.021
L342.518 160.796
L342.965 261.152
L343.411 217.714
L343.858 217.823
L344.304 219.172
L344.75 226.963
L345.197 263.665
L345.643 219.982
L346.09 217.874
L346.536 216.928
L346.982 156.007
L347.429 261.78
L347.875 217.559
L348.322 217.376
L348.768 210.162
L349.214 172.649
L349.661 249.365
L350.107 218.656
L350.554 216.898
L351 217.079
L351.446 174.542
L351.893 238.502
L352.339 211.132
L352.786 201.647
L353.232 211.333
L353.678 203.361
L354.125 259.808
L354.571 210.891
L355.018 209.512
L355.464 198.537
L355.91 207.862
L356.357 257.542
L356.803 211.696
L357.25 209.052
L357.696 210.123
L358.142 196.651
L358.589 258.668
L359.035 211.562
L359.482 197.567
L359.928 208.798
L360.374 201.617
L360.821 259.893
L361.267 211.215
L361.714 209.335
L362.16 208.379
L362.606 198.527
L363.053 255.22
L363.499 211.653
L363.946 208.879
L364.392 210.573
L364.838 199.21
L365.285 259.22
L365.731 210.072
L366.178 195.84
L366.624 210.272
L367.07 201.484
L367.517 259.321
L367.963 210.516
L368.41 244.512
L368.856 269.928
L369.302 265.238
L369.749 236.92
L370.195 279.793
L370.642 267.148
L371.088 267.929
L371.534 268.442
L371.981 267.207
L372.427 265.417
L372.874 228.306
L373.32 286.941
L373.766 267.357
L374.213 267.899
L374.659 264.646
L375.106 266.964
L375.552 267.532
L375.998 266.973
L376.445 294.181
L376.891 266.681
L377.338 269.034
L377.784 266.086
L378.23 271.284
L378.677 267.686
L379.123 268.748
L379.57 294.426
L380.016 266.71
L380.462 267.316
L380.909 267.689
L381.355 266.168
L381.802 267.509
L382.248 266.59
L382.694 293.513
L383.141 267.267
L383.587 268.89
L384.034 264.572
L384.48 267.818
L384.926 266.271
L385.373 254.863
L385.819 296.356
L386.266 268.236
L386.712 267.211
L387.158 263.997
L387.605 270.105
L388.051 265.703
L388.498 266.801
L388.944 293.337
L389.39 266.685
L389.837 267.701
L390.283 265.415
L390.73 267.001
L391.176 266.824
L391.622 266.065
L392.069 293.273
L392.515 267.539
L392.962 268.105
L393.408 263.77
L393.854 296.65
L394.301 265.54
L394.747 254.75
L395.194 293.359
L395.64 268.964
L396.086 268.791
L396.533 265.57
L397.426 266.994
L397.872 251.768
L398.318 292.906
L398.765 267.475
L399.658 265.091
L400.104 266.522
L400.55 265.675
L400.997 253.011
L401.443 294.515
L401.89 265.864
L402.336 265.733
L402.782 264.833
L403.229 265.926
L403.675 265.155
L404.122 252.29
L404.568 292.074
L405.014 266.184
L405.461 266.23
L405.907 265.301
L406.354 269.295
L406.8 265.2
L407.246 264.689
L407.693 292.534
L408.139 266.295
L408.586 267.093
L409.032 263.385
L409.478 265.681
L409.925 265.724
L410.371 236.66
L410.818 280.738
L411.264 267.072
L411.71 267.332
L412.603 266.298
L413.05 263.713
L413.496 252.475
L413.942 292.699
L414.389 266.433
L414.835 265.769
L415.282 262.171
L415.728 269.504
L416.174 266.463
L416.621 253.505
L417.067 294.881
L417.514 267.496
L417.96 266.817
L418.406 265.4
L418.853 265.122
L419.299 265.756
L419.746 253.214
L420.192 292.872
L420.638 267.485
L421.085 267.512
L421.531 263.813
L421.978 265.832
L422.424 265.106
L422.87 252.571
L423.317 293.389
L423.763 264.971
L424.21 264.839
L424.656 259.756
L425.102 262.35
L425.549 263.553
L425.995 251.476
L426.442 290.888
L426.888 265.294
L427.334 265.98
L427.781 260.411
L428.227 265.371
L428.674 265.41
L429.12 249.439
L429.566 264.45
L430.013 265.526
L430.459 263.23
L430.906 262.883
L431.352 263.454
L431.798 262.562
L432.245 249.828
L432.691 291.032
L433.138 265.34
L433.584 265.838
L434.03 247.619
L434.477 264.808
L434.923 263.271
L435.37 251.952
L435.816 291.77
L436.262 264.376
L436.709 263.245
L437.155 249.008
L437.602 265.506
L438.048 266.527
L438.494 235.111
L438.941 279.171
L439.387 264.287
L439.834 265.936
L440.28 262.545
L440.726 262.695
L441.173 264.325
L441.619 251.748
L442.066 290.947
L442.512 265.177
L442.958 260.697
L443.405 247.183
L443.851 265.606
L444.298 265.087
L444.744 265.863
L445.19 264.646
L445.637 265.885
L446.083 224.456
L446.53 286.469
L446.976 265.601
L447.422 265.863
L447.869 262.13
L448.315 264.135
L448.762 261.644
L449.208 251.008
L449.654 291.03
L450.101 263.804
L450.547 263.358
L450.994 265.485
L451.44 265.324
L451.886 263.683
L452.333 270.156
L452.779 293.465
L453.226 262.602
L453.672 263.626
L454.118 263.331
L454.565 263.746
L455.011 263.008
L455.458 251.856
L455.904 291.495
L456.35 263.477
L456.797 263.521
L457.243 262.886
L457.69 263.859
L458.136 262.072
L458.582 251.243
L459.029 291.694
L459.475 263.411
L459.922 263.113
L460.368 262.173
L460.814 264.35
L461.261 263.769
L461.707 250.964
L462.154 290.992
L462.6 263.783
L463.046 263.519
L463.493 259.9
L463.939 263.143
L464.386 260.588
L464.832 249.441
L465.278 289.859
L465.725 261.99
L466.171 261.562
L466.618 289.644
L467.064 261.864
L467.51 262.229
L467.957 257.028
L468.403 260.874
L468.85 263.181
L469.296 250.375
L469.742 290.338
L470.189 262.501
L470.635 261.064
L471.082 289.586
L471.528 262.254
L471.974 262.587
L472.421 261.103
L472.867 260.802
L473.314 261.892
L473.76 247.372
L474.206 290.991
L474.653 262.325
L475.099 263.021
L475.546 290.833
L475.992 261.444
L476.438 253.873
L477.331 258.72
L477.778 253.48
L478.224 260.1
L478.67 289.845
L479.117 261.856
L479.563 253.904
L480.01 290.064
L480.456 261.973
L480.902 254.754
L481.349 256.005
L481.795 260.397
L482.242 262.901
L482.688 252.231
L483.134 290.661
L483.581 265.133
L484.027 257.504
L484.474 290.054
L484.92 254.584
L485.366 259.325
L485.813 258.426
L486.259 261.694
L486.706 261.934
L487.152 250.01
L487.598 290.301
L488.045 261.951
L488.491 260.778
L488.938 290.381
L489.384 260.415
L489.83 263.773
L490.277 260.365
L490.723 262.159
L491.17 261.096
L491.616 249.645
L492.062 290.276
L492.509 254.081
L492.955 254.331
L493.402 291.431
L493.848 248.563
L494.294 261.882
L495.187 261.359
L496.08 248.324
L496.526 291.025
L496.973 262.798
L497.419 254.601
L497.866 294.07
L498.312 257.789
L498.758 261.297
L499.205 258.938
L499.651 262.611
L500.098 256.308
L500.544 253.253
L500.99 289.692
L501.437 250.893
L501.883 258.969
L502.33 293.024
L502.776 261.403
L503.222 261.727
L503.669 257.339
L504.115 265.925
L504.562 260.508
L505.008 249.163
L505.454 290.072
L505.901 253.924
L506.347 254.21
L506.794 293.768
L507.24 259.904
L507.686 262.521
L508.133 259.385
L508.579 249.231
L509.026 256.821
L509.472 251.366
L509.918 289.956
L510.365 254.1
L510.811 253.886
L511.258 278.295
L511.704 261.12
L512.15 260.999
L512.597 289.975
L513.043 259.602
L513.49 258.297
L513.936 256.557
L514.382 257.23
L514.829 257.265
L515.275 245.642
L515.722 289.346
L516.168 258.701
L516.614 247.068
L517.061 287.613
L517.507 258.971
L517.954 259.35
L517.954 259.35" style="fill:none;opacity:0.5;stroke:#0000ff;"/>
   </g>
   <g id="matplotlib.axis_1">
    <g id="xtick_1">
     <g id="line2d_4">
      <path clip-path="url(#p7ff5b81e1d)" d="
M72 388.8
L72 43.2" style="fill:none;stroke:#000000;stroke-dasharray:1.000000,3.000000;stroke-dashoffset:0.0;stroke-linecap:butt;stroke-width:0.5;"/>
     </g>
     <g id="line2d_5">
      <defs>
       <path d="
M0 0
L0 -4" id="m0012dd4eef" style="stroke:#000000;stroke-linecap:butt;stroke-width:0.5;"/>
      </defs>
      <g>
       <use style="stroke:#000000;stroke-linecap:butt;stroke-width:0.5;" x="72.0" xlink:href="#m0012dd4eef" y="388.8"/>
      </g>
     </g>
     <g id="line2d_6">
      <defs>
       <path d="
M0 0
L0 4" id="m476344969c" style="stroke:#000000;stroke-linecap:butt;stroke-width:0.5;"/>
      </defs>
      <g>
       <use style="stroke:#000000;stroke-linecap:butt;stroke-width:0.5;" x="72.0" xlink:href="#m476344969c" y="43.2"/>
      </g>
     </g>
     <g id="text_1">
      <!-- 0 -->
      <defs>
       <path d="
M31.7812 66.4062
Q24.1719 66.4062 20.3281 58.9062
Q16.5 51.4219 16.5 36.375
Q16.5 21.3906 20.3281 13.8906
Q24.1719 6.39062 31.7812 6.39062
Q39.4531 6.39062 43.2812 13.8906
Q47.125 21.3906 47.125 36.375
Q47.125 51.4219 43.2812 58.9062
Q39.4531 66.4062 31.7812 66.4062
M31.7812 74.2188
Q44.0469 74.2188 50.5156 64.5156
Q56.9844 54.8281 56.9844 36.375
Q56.9844 17.9688 50.5156 8.26562
Q44.0469 -1.42188 31.7812 -1.42188
Q19.5312 -1.42188 13.0625 8.26562
Q6.59375 17.9688 6.59375 36.375
Q6.59375 54.8281 13.0625 64.5156
Q19.5312 74.2188 31.7812 74.2188" id="BitstreamVeraSans-Roman-30"/>
      </defs>
      <g transform="translate(68.9765625 401.70625)scale(0.12 -0.12)">
       <use xlink:href="#BitstreamVeraSans-Roman-30"/>
      </g>
     </g>
    </g>
    <g id="xtick_2">
     <g id="line2d_7">
      <path clip-path="url(#p7ff5b81e1d)" d="
M116.64 388.8
L116.64 43.2" style="fill:none;stroke:#000000;stroke-dasharray:1.000000,3.000000;stroke-dashoffset:0.0;stroke-linecap:butt;stroke-width:0.5;"/>
     </g>
     <g id="line2d_8">
      <g>
       <use style="stroke:#000000;stroke-linecap:butt;stroke-width:0.5;" x="116.64" xlink:href="#m0012dd4eef" y="388.8"/>
      </g>
     </g>
     <g id="line2d_9">
      <g>
       <use style="stroke:#000000;stroke-linecap:butt;stroke-width:0.5;" x="116.64" xlink:href="#m476344969c" y="43.2"/>
      </g>
     </g>
     <g id="text_2">
      <!-- 100 -->
      <defs>
       <path d="
M12.4062 8.29688
L28.5156 8.29688
L28.5156 63.9219
L10.9844 60.4062
L10.9844 69.3906
L28.4219 72.9062
L38.2812 72.9062
L38.2812 8.29688
L54.3906 8.29688
L54.3906 0
L12.4062 0
z
" id="BitstreamVeraSans-Roman-31"/>
      </defs>
      <g transform="translate(106.245 401.70625)scale(0.12 -0.12)">
       <use xlink:href="#BitstreamVeraSans-Roman-31"/>
       <use x="63.623046875" xlink:href="#BitstreamVeraSans-Roman-30"/>
       <use x="127.24609375" xlink:href="#BitstreamVeraSans-Roman-30"/>
      </g>
     </g>
    </g>
    <g id="xtick_3">
     <g id="line2d_10">
      <path clip-path="url(#p7ff5b81e1d)" d="
M161.28 388.8
L161.28 43.2" style="fill:none;stroke:#000000;stroke-dasharray:1.000000,3.000000;stroke-dashoffset:0.0;stroke-linecap:butt;stroke-width:0.5;"/>
     </g>
     <g id="line2d_11">
      <g>
       <use style="stroke:#000000;stroke-linecap:butt;stroke-width:0.5;" x="161.28" xlink:href="#m0012dd4eef" y="388.8"/>
      </g>
     </g>
     <g id="line2d_12">
      <g>
       <use style="stroke:#000000;stroke-linecap:butt;stroke-width:0.5;" x="161.28" xlink:href="#m476344969c" y="43.2"/>
      </g>
     </g>
     <g id="text_3">
      <!-- 200 -->
      <defs>
       <path d="
M19.1875 8.29688
L53.6094 8.29688
L53.6094 0
L7.32812 0
L7.32812 8.29688
Q12.9375 14.1094 22.625 23.8906
Q32.3281 33.6875 34.8125 36.5312
Q39.5469 41.8438 41.4219 45.5312
Q43.3125 49.2188 43.3125 52.7812
Q43.3125 58.5938 39.2344 62.25
Q35.1562 65.9219 28.6094 65.9219
Q23.9688 65.9219 18.8125 64.3125
Q13.6719 62.7031 7.8125 59.4219
L7.8125 69.3906
Q13.7656 71.7812 18.9375 73
Q24.125 74.2188 28.4219 74.2188
Q39.75 74.2188 46.4844 68.5469
Q53.2188 62.8906 53.2188 53.4219
Q53.2188 48.9219 51.5312 44.8906
Q49.8594 40.875 45.4062 35.4062
Q44.1875 33.9844 37.6406 27.2188
Q31.1094 20.4531 19.1875 8.29688" id="BitstreamVeraSans-Roman-32"/>
      </defs>
      <g transform="translate(150.665625 401.70625)scale(0.12 -0.12)">
       <use xlink:href="#BitstreamVeraSans-Roman-32"/>
       <use x="63.623046875" xlink:href="#BitstreamVeraSans-Roman-30"/>
       <use x="127.24609375" xlink:href="#BitstreamVeraSans-Roman-30"/>
      </g>
     </g>
    </g>
    <g id="xtick_4">
     <g id="line2d_13">
      <path clip-path="url(#p7ff5b81e1d)" d="
M205.92 388.8
L205.92 43.2" style="fill:none;stroke:#000000;stroke-dasharray:1.000000,3.000000;stroke-dashoffset:0.0;stroke-linecap:butt;stroke-width:0.5;"/>
     </g>
     <g id="line2d_14">
      <g>
       <use style="stroke:#000000;stroke-linecap:butt;stroke-width:0.5;" x="205.92" xlink:href="#m0012dd4eef" y="388.8"/>
      </g>
     </g>
     <g id="line2d_15">
      <g>
       <use style="stroke:#000000;stroke-linecap:butt;stroke-width:0.5;" x="205.92" xlink:href="#m476344969c" y="43.2"/>
      </g>
     </g>
     <g id="text_4">
      <!-- 300 -->
      <defs>
       <path d="
M40.5781 39.3125
Q47.6562 37.7969 51.625 33
Q55.6094 28.2188 55.6094 21.1875
Q55.6094 10.4062 48.1875 4.48438
Q40.7656 -1.42188 27.0938 -1.42188
Q22.5156 -1.42188 17.6562 -0.515625
Q12.7969 0.390625 7.625 2.20312
L7.625 11.7188
Q11.7188 9.32812 16.5938 8.10938
Q21.4844 6.89062 26.8125 6.89062
Q36.0781 6.89062 40.9375 10.5469
Q45.7969 14.2031 45.7969 21.1875
Q45.7969 27.6406 41.2812 31.2656
Q36.7656 34.9062 28.7188 34.9062
L20.2188 34.9062
L20.2188 43.0156
L29.1094 43.0156
Q36.375 43.0156 40.2344 45.9219
Q44.0938 48.8281 44.0938 54.2969
Q44.0938 59.9062 40.1094 62.9062
Q36.1406 65.9219 28.7188 65.9219
Q24.6562 65.9219 20.0156 65.0312
Q15.375 64.1562 9.8125 62.3125
L9.8125 71.0938
Q15.4375 72.6562 20.3438 73.4375
Q25.25 74.2188 29.5938 74.2188
Q40.8281 74.2188 47.3594 69.1094
Q53.9062 64.0156 53.9062 55.3281
Q53.9062 49.2656 50.4375 45.0938
Q46.9688 40.9219 40.5781 39.3125" id="BitstreamVeraSans-Roman-33"/>
      </defs>
      <g transform="translate(195.3234375 401.70625)scale(0.12 -0.12)">
       <use xlink:href="#BitstreamVeraSans-Roman-33"/>
       <use x="63.623046875" xlink:href="#BitstreamVeraSans-Roman-30"/>
       <use x="127.24609375" xlink:href="#BitstreamVeraSans-Roman-30"/>
      </g>
     </g>
    </g>
    <g id="xtick_5">
     <g id="line2d_16">
      <path clip-path="url(#p7ff5b81e1d)" d="
M250.56 388.8
L250.56 43.2" style="fill:none;stroke:#000000;stroke-dasharray:1.000000,3.000000;stroke-dashoffset:0.0;stroke-linecap:butt;stroke-width:0.5;"/>
     </g>
     <g id="line2d_17">
      <g>
       <use style="stroke:#000000;stroke-linecap:butt;stroke-width:0.5;" x="250.56" xlink:href="#m0012dd4eef" y="388.8"/>
      </g>
     </g>
     <g id="line2d_18">
      <g>
       <use style="stroke:#000000;stroke-linecap:butt;stroke-width:0.5;" x="250.56" xlink:href="#m476344969c" y="43.2"/>
      </g>
     </g>
     <g id="text_5">
      <!-- 400 -->
      <defs>
       <path d="
M37.7969 64.3125
L12.8906 25.3906
L37.7969 25.3906
z

M35.2031 72.9062
L47.6094 72.9062
L47.6094 25.3906
L58.0156 25.3906
L58.0156 17.1875
L47.6094 17.1875
L47.6094 0
L37.7969 0
L37.7969 17.1875
L4.89062 17.1875
L4.89062 26.7031
z
" id="BitstreamVeraSans-Roman-34"/>
      </defs>
      <g transform="translate(239.799375 401.70625)scale(0.12 -0.12)">
       <use xlink:href="#BitstreamVeraSans-Roman-34"/>
       <use x="63.623046875" xlink:href="#BitstreamVeraSans-Roman-30"/>
       <use x="127.24609375" xlink:href="#BitstreamVeraSans-Roman-30"/>
      </g>
     </g>
    </g>
    <g id="xtick_6">
     <g id="line2d_19">
      <path clip-path="url(#p7ff5b81e1d)" d="
M295.2 388.8
L295.2 43.2" style="fill:none;stroke:#000000;stroke-dasharray:1.000000,3.000000;stroke-dashoffset:0.0;stroke-linecap:butt;stroke-width:0.5;"/>
     </g>
     <g id="line2d_20">
      <g>
       <use style="stroke:#000000;stroke-linecap:butt;stroke-width:0.5;" x="295.2" xlink:href="#m0012dd4eef" y="388.8"/>
      </g>
     </g>
     <g id="line2d_21">
      <g>
       <use style="stroke:#000000;stroke-linecap:butt;stroke-width:0.5;" x="295.2" xlink:href="#m476344969c" y="43.2"/>
      </g>
     </g>
     <g id="text_6">
      <!-- 500 -->
      <defs>
       <path d="
M10.7969 72.9062
L49.5156 72.9062
L49.5156 64.5938
L19.8281 64.5938
L19.8281 46.7344
Q21.9688 47.4688 24.1094 47.8281
Q26.2656 48.1875 28.4219 48.1875
Q40.625 48.1875 47.75 41.5
Q54.8906 34.8125 54.8906 23.3906
Q54.8906 11.625 47.5625 5.09375
Q40.2344 -1.42188 26.9062 -1.42188
Q22.3125 -1.42188 17.5469 -0.640625
Q12.7969 0.140625 7.71875 1.70312
L7.71875 11.625
Q12.1094 9.23438 16.7969 8.0625
Q21.4844 6.89062 26.7031 6.89062
Q35.1562 6.89062 40.0781 11.3281
Q45.0156 15.7656 45.0156 23.3906
Q45.0156 31 40.0781 35.4375
Q35.1562 39.8906 26.7031 39.8906
Q22.75 39.8906 18.8125 39.0156
Q14.8906 38.1406 10.7969 36.2812
z
" id="BitstreamVeraSans-Roman-35"/>
      </defs>
      <g transform="translate(284.6090625 401.70625)scale(0.12 -0.12)">
       <use xlink:href="#BitstreamVeraSans-Roman-35"/>
       <use x="63.623046875" xlink:href="#BitstreamVeraSans-Roman-30"/>
       <use x="127.24609375" xlink:href="#BitstreamVeraSans-Roman-30"/>
      </g>
     </g>
    </g>
    <g id="xtick_7">
     <g id="line2d_22">
      <path clip-path="url(#p7ff5b81e1d)" d="
M339.84 388.8
L339.84 43.2" style="fill:none;stroke:#000000;stroke-dasharray:1.000000,3.000000;stroke-dashoffset:0.0;stroke-linecap:butt;stroke-width:0.5;"/>
     </g>
     <g id="line2d_23">
      <g>
       <use style="stroke:#000000;stroke-linecap:butt;stroke-width:0.5;" x="339.84" xlink:href="#m0012dd4eef" y="388.8"/>
      </g>
     </g>
     <g id="line2d_24">
      <g>
       <use style="stroke:#000000;stroke-linecap:butt;stroke-width:0.5;" x="339.84" xlink:href="#m476344969c" y="43.2"/>
      </g>
     </g>
     <g id="text_7">
      <!-- 600 -->
      <defs>
       <path d="
M33.0156 40.375
Q26.375 40.375 22.4844 35.8281
Q18.6094 31.2969 18.6094 23.3906
Q18.6094 15.5312 22.4844 10.9531
Q26.375 6.39062 33.0156 6.39062
Q39.6562 6.39062 43.5312 10.9531
Q47.4062 15.5312 47.4062 23.3906
Q47.4062 31.2969 43.5312 35.8281
Q39.6562 40.375 33.0156 40.375
M52.5938 71.2969
L52.5938 62.3125
Q48.875 64.0625 45.0938 64.9844
Q41.3125 65.9219 37.5938 65.9219
Q27.8281 65.9219 22.6719 59.3281
Q17.5312 52.7344 16.7969 39.4062
Q19.6719 43.6562 24.0156 45.9219
Q28.375 48.1875 33.5938 48.1875
Q44.5781 48.1875 50.9531 41.5156
Q57.3281 34.8594 57.3281 23.3906
Q57.3281 12.1562 50.6875 5.35938
Q44.0469 -1.42188 33.0156 -1.42188
Q20.3594 -1.42188 13.6719 8.26562
Q6.98438 17.9688 6.98438 36.375
Q6.98438 53.6562 15.1875 63.9375
Q23.3906 74.2188 37.2031 74.2188
Q40.9219 74.2188 44.7031 73.4844
Q48.4844 72.75 52.5938 71.2969" id="BitstreamVeraSans-Roman-36"/>
      </defs>
      <g transform="translate(329.205 401.70625)scale(0.12 -0.12)">
       <use xlink:href="#BitstreamVeraSans-Roman-36"/>
       <use x="63.623046875" xlink:href="#BitstreamVeraSans-Roman-30"/>
       <use x="127.24609375" xlink:href="#BitstreamVeraSans-Roman-30"/>
      </g>
     </g>
    </g>
    <g id="xtick_8">
     <g id="line2d_25">
      <path clip-path="url(#p7ff5b81e1d)" d="
M384.48 388.8
L384.48 43.2" style="fill:none;stroke:#000000;stroke-dasharray:1.000000,3.000000;stroke-dashoffset:0.0;stroke-linecap:butt;stroke-width:0.5;"/>
     </g>
     <g id="line2d_26">
      <g>
       <use style="stroke:#000000;stroke-linecap:butt;stroke-width:0.5;" x="384.48" xlink:href="#m0012dd4eef" y="388.8"/>
      </g>
     </g>
     <g id="line2d_27">
      <g>
       <use style="stroke:#000000;stroke-linecap:butt;stroke-width:0.5;" x="384.48" xlink:href="#m476344969c" y="43.2"/>
      </g>
     </g>
     <g id="text_8">
      <!-- 700 -->
      <defs>
       <path d="
M8.20312 72.9062
L55.0781 72.9062
L55.0781 68.7031
L28.6094 0
L18.3125 0
L43.2188 64.5938
L8.20312 64.5938
z
" id="BitstreamVeraSans-Roman-37"/>
      </defs>
      <g transform="translate(373.918125 401.70625)scale(0.12 -0.12)">
       <use xlink:href="#BitstreamVeraSans-Roman-37"/>
       <use x="63.623046875" xlink:href="#BitstreamVeraSans-Roman-30"/>
       <use x="127.24609375" xlink:href="#BitstreamVeraSans-Roman-30"/>
      </g>
     </g>
    </g>
    <g id="xtick_9">
     <g id="line2d_28">
      <path clip-path="url(#p7ff5b81e1d)" d="
M429.12 388.8
L429.12 43.2" style="fill:none;stroke:#000000;stroke-dasharray:1.000000,3.000000;stroke-dashoffset:0.0;stroke-linecap:butt;stroke-width:0.5;"/>
     </g>
     <g id="line2d_29">
      <g>
       <use style="stroke:#000000;stroke-linecap:butt;stroke-width:0.5;" x="429.12" xlink:href="#m0012dd4eef" y="388.8"/>
      </g>
     </g>
     <g id="line2d_30">
      <g>
       <use style="stroke:#000000;stroke-linecap:butt;stroke-width:0.5;" x="429.12" xlink:href="#m476344969c" y="43.2"/>
      </g>
     </g>
     <g id="text_9">
      <!-- 800 -->
      <defs>
       <path d="
M31.7812 34.625
Q24.75 34.625 20.7188 30.8594
Q16.7031 27.0938 16.7031 20.5156
Q16.7031 13.9219 20.7188 10.1562
Q24.75 6.39062 31.7812 6.39062
Q38.8125 6.39062 42.8594 10.1719
Q46.9219 13.9688 46.9219 20.5156
Q46.9219 27.0938 42.8906 30.8594
Q38.875 34.625 31.7812 34.625
M21.9219 38.8125
Q15.5781 40.375 12.0312 44.7188
Q8.5 49.0781 8.5 55.3281
Q8.5 64.0625 14.7188 69.1406
Q20.9531 74.2188 31.7812 74.2188
Q42.6719 74.2188 48.875 69.1406
Q55.0781 64.0625 55.0781 55.3281
Q55.0781 49.0781 51.5312 44.7188
Q48 40.375 41.7031 38.8125
Q48.8281 37.1562 52.7969 32.3125
Q56.7812 27.4844 56.7812 20.5156
Q56.7812 9.90625 50.3125 4.23438
Q43.8438 -1.42188 31.7812 -1.42188
Q19.7344 -1.42188 13.25 4.23438
Q6.78125 9.90625 6.78125 20.5156
Q6.78125 27.4844 10.7812 32.3125
Q14.7969 37.1562 21.9219 38.8125
M18.3125 54.3906
Q18.3125 48.7344 21.8438 45.5625
Q25.3906 42.3906 31.7812 42.3906
Q38.1406 42.3906 41.7188 45.5625
Q45.3125 48.7344 45.3125 54.3906
Q45.3125 60.0625 41.7188 63.2344
Q38.1406 66.4062 31.7812 66.4062
Q25.3906 66.4062 21.8438 63.2344
Q18.3125 60.0625 18.3125 54.3906" id="BitstreamVeraSans-Roman-38"/>
      </defs>
      <g transform="translate(418.4728125 401.70625)scale(0.12 -0.12)">
       <use xlink:href="#BitstreamVeraSans-Roman-38"/>
       <use x="63.623046875" xlink:href="#BitstreamVeraSans-Roman-30"/>
       <use x="127.24609375" xlink:href="#BitstreamVeraSans-Roman-30"/>
      </g>
     </g>
    </g>
    <g id="xtick_10">
     <g id="line2d_31">
      <path clip-path="url(#p7ff5b81e1d)" d="
M473.76 388.8
L473.76 43.2" style="fill:none;stroke:#000000;stroke-dasharray:1.000000,3.000000;stroke-dashoffset:0.0;stroke-linecap:butt;stroke-width:0.5;"/>
     </g>
     <g id="line2d_32">
      <g>
       <use style="stroke:#000000;stroke-linecap:butt;stroke-width:0.5;" x="473.76" xlink:href="#m0012dd4eef" y="388.8"/>
      </g>
     </g>
     <g id="line2d_33">
      <g>
       <use style="stroke:#000000;stroke-linecap:butt;stroke-width:0.5;" x="473.76" xlink:href="#m476344969c" y="43.2"/>
      </g>
     </g>
     <g id="text_10">
      <!-- 900 -->
      <defs>
       <path d="
M10.9844 1.51562
L10.9844 10.5
Q14.7031 8.73438 18.5 7.8125
Q22.3125 6.89062 25.9844 6.89062
Q35.75 6.89062 40.8906 13.4531
Q46.0469 20.0156 46.7812 33.4062
Q43.9531 29.2031 39.5938 26.9531
Q35.25 24.7031 29.9844 24.7031
Q19.0469 24.7031 12.6719 31.3125
Q6.29688 37.9375 6.29688 49.4219
Q6.29688 60.6406 12.9375 67.4219
Q19.5781 74.2188 30.6094 74.2188
Q43.2656 74.2188 49.9219 64.5156
Q56.5938 54.8281 56.5938 36.375
Q56.5938 19.1406 48.4062 8.85938
Q40.2344 -1.42188 26.4219 -1.42188
Q22.7031 -1.42188 18.8906 -0.6875
Q15.0938 0.046875 10.9844 1.51562
M30.6094 32.4219
Q37.25 32.4219 41.125 36.9531
Q45.0156 41.5 45.0156 49.4219
Q45.0156 57.2812 41.125 61.8438
Q37.25 66.4062 30.6094 66.4062
Q23.9688 66.4062 20.0938 61.8438
Q16.2188 57.2812 16.2188 49.4219
Q16.2188 41.5 20.0938 36.9531
Q23.9688 32.4219 30.6094 32.4219" id="BitstreamVeraSans-Roman-39"/>
      </defs>
      <g transform="translate(463.08375 401.70625)scale(0.12 -0.12)">
       <use xlink:href="#BitstreamVeraSans-Roman-39"/>
       <use x="63.623046875" xlink:href="#BitstreamVeraSans-Roman-30"/>
       <use x="127.24609375" xlink:href="#BitstreamVeraSans-Roman-30"/>
      </g>
     </g>
    </g>
   </g>
   <g id="matplotlib.axis_2">
    <g id="ytick_1">
     <g id="line2d_34">
      <path clip-path="url(#p7ff5b81e1d)" d="
M72 388.8
L518.4 388.8" style="fill:none;stroke:#000000;stroke-dasharray:1.000000,3.000000;stroke-dashoffset:0.0;stroke-linecap:butt;stroke-width:0.5;"/>
     </g>
     <g id="line2d_35">
      <defs>
       <path d="
M0 0
L4 0" id="me8a85f7bf6" style="stroke:#000000;stroke-linecap:butt;stroke-width:0.5;"/>
      </defs>
      <g>
       <use style="stroke:#000000;stroke-linecap:butt;stroke-width:0.5;" x="72.0" xlink:href="#me8a85f7bf6" y="388.8"/>
      </g>
     </g>
     <g id="line2d_36">
      <defs>
       <path d="
M0 0
L-4 0" id="m1a32005dea" style="stroke:#000000;stroke-linecap:butt;stroke-width:0.5;"/>
      </defs>
      <g>
       <use style="stroke:#000000;stroke-linecap:butt;stroke-width:0.5;" x="518.4" xlink:href="#m1a32005dea" y="388.8"/>
      </g>
     </g>
     <g id="text_11">
      <!-- 0.0 -->
      <defs>
       <path d="
M10.6875 12.4062
L21 12.4062
L21 0
L10.6875 0
z
" id="BitstreamVeraSans-Roman-2e"/>
      </defs>
      <g transform="translate(50.504375 393.1678125)scale(0.12 -0.12)">
       <use xlink:href="#BitstreamVeraSans-Roman-30"/>
       <use x="63.623046875" xlink:href="#BitstreamVeraSans-Roman-2e"/>
       <use x="95.41015625" xlink:href="#BitstreamVeraSans-Roman-30"/>
      </g>
     </g>
    </g>
    <g id="ytick_2">
     <g id="line2d_37">
      <path clip-path="url(#p7ff5b81e1d)" d="
M72 354.24
L518.4 354.24" style="fill:none;stroke:#000000;stroke-dasharray:1.000000,3.000000;stroke-dashoffset:0.0;stroke-linecap:butt;stroke-width:0.5;"/>
     </g>
     <g id="line2d_38">
      <g>
       <use style="stroke:#000000;stroke-linecap:butt;stroke-width:0.5;" x="72.0" xlink:href="#me8a85f7bf6" y="354.24"/>
      </g>
     </g>
     <g id="line2d_39">
      <g>
       <use style="stroke:#000000;stroke-linecap:butt;stroke-width:0.5;" x="518.4" xlink:href="#m1a32005dea" y="354.24"/>
      </g>
     </g>
     <g id="text_12">
      <!-- 0.4 -->
      <g transform="translate(50.380625 358.6078125)scale(0.12 -0.12)">
       <use xlink:href="#BitstreamVeraSans-Roman-30"/>
       <use x="63.623046875" xlink:href="#BitstreamVeraSans-Roman-2e"/>
       <use x="95.41015625" xlink:href="#BitstreamVeraSans-Roman-34"/>
      </g>
     </g>
    </g>
    <g id="ytick_3">
     <g id="line2d_40">
      <path clip-path="url(#p7ff5b81e1d)" d="
M72 319.68
L518.4 319.68" style="fill:none;stroke:#000000;stroke-dasharray:1.000000,3.000000;stroke-dashoffset:0.0;stroke-linecap:butt;stroke-width:0.5;"/>
     </g>
     <g id="line2d_41">
      <g>
       <use style="stroke:#000000;stroke-linecap:butt;stroke-width:0.5;" x="72.0" xlink:href="#me8a85f7bf6" y="319.68"/>
      </g>
     </g>
     <g id="line2d_42">
      <g>
       <use style="stroke:#000000;stroke-linecap:butt;stroke-width:0.5;" x="518.4" xlink:href="#m1a32005dea" y="319.68"/>
      </g>
     </g>
     <g id="text_13">
      <!-- 0.8 -->
      <g transform="translate(50.52875 324.0478125)scale(0.12 -0.12)">
       <use xlink:href="#BitstreamVeraSans-Roman-30"/>
       <use x="63.623046875" xlink:href="#BitstreamVeraSans-Roman-2e"/>
       <use x="95.41015625" xlink:href="#BitstreamVeraSans-Roman-38"/>
      </g>
     </g>
    </g>
    <g id="ytick_4">
     <g id="line2d_43">
      <path clip-path="url(#p7ff5b81e1d)" d="
M72 285.12
L518.4 285.12" style="fill:none;stroke:#000000;stroke-dasharray:1.000000,3.000000;stroke-dashoffset:0.0;stroke-linecap:butt;stroke-width:0.5;"/>
     </g>
     <g id="line2d_44">
      <g>
       <use style="stroke:#000000;stroke-linecap:butt;stroke-width:0.5;" x="72.0" xlink:href="#me8a85f7bf6" y="285.12"/>
      </g>
     </g>
     <g id="line2d_45">
      <g>
       <use style="stroke:#000000;stroke-linecap:butt;stroke-width:0.5;" x="518.4" xlink:href="#m1a32005dea" y="285.12"/>
      </g>
     </g>
     <g id="text_14">
      <!-- 1.2 -->
      <g transform="translate(51.43625 289.573125)scale(0.12 -0.12)">
       <use xlink:href="#BitstreamVeraSans-Roman-31"/>
       <use x="63.623046875" xlink:href="#BitstreamVeraSans-Roman-2e"/>
       <use x="95.41015625" xlink:href="#BitstreamVeraSans-Roman-32"/>
      </g>
     </g>
    </g>
    <g id="ytick_5">
     <g id="line2d_46">
      <path clip-path="url(#p7ff5b81e1d)" d="
M72 250.56
L518.4 250.56" style="fill:none;stroke:#000000;stroke-dasharray:1.000000,3.000000;stroke-dashoffset:0.0;stroke-linecap:butt;stroke-width:0.5;"/>
     </g>
     <g id="line2d_47">
      <g>
       <use style="stroke:#000000;stroke-linecap:butt;stroke-width:0.5;" x="72.0" xlink:href="#me8a85f7bf6" y="250.56"/>
      </g>
     </g>
     <g id="line2d_48">
      <g>
       <use style="stroke:#000000;stroke-linecap:butt;stroke-width:0.5;" x="518.4" xlink:href="#m1a32005dea" y="250.56"/>
      </g>
     </g>
     <g id="text_15">
      <!-- 1.6 -->
      <g transform="translate(50.99 254.9278125)scale(0.12 -0.12)">
       <use xlink:href="#BitstreamVeraSans-Roman-31"/>
       <use x="63.623046875" xlink:href="#BitstreamVeraSans-Roman-2e"/>
       <use x="95.41015625" xlink:href="#BitstreamVeraSans-Roman-36"/>
      </g>
     </g>
    </g>
    <g id="ytick_6">
     <g id="line2d_49">
      <path clip-path="url(#p7ff5b81e1d)" d="
M72 216
L518.4 216" style="fill:none;stroke:#000000;stroke-dasharray:1.000000,3.000000;stroke-dashoffset:0.0;stroke-linecap:butt;stroke-width:0.5;"/>
     </g>
     <g id="line2d_50">
      <g>
       <use style="stroke:#000000;stroke-linecap:butt;stroke-width:0.5;" x="72.0" xlink:href="#me8a85f7bf6" y="216.0"/>
      </g>
     </g>
     <g id="line2d_51">
      <g>
       <use style="stroke:#000000;stroke-linecap:butt;stroke-width:0.5;" x="518.4" xlink:href="#m1a32005dea" y="216.0"/>
      </g>
     </g>
     <g id="text_16">
      <!-- 2.0 -->
      <g transform="translate(50.5925 220.3678125)scale(0.12 -0.12)">
       <use xlink:href="#BitstreamVeraSans-Roman-32"/>
       <use x="63.623046875" xlink:href="#BitstreamVeraSans-Roman-2e"/>
       <use x="95.41015625" xlink:href="#BitstreamVeraSans-Roman-30"/>
      </g>
     </g>
    </g>
    <g id="ytick_7">
     <g id="line2d_52">
      <path clip-path="url(#p7ff5b81e1d)" d="
M72 181.44
L518.4 181.44" style="fill:none;stroke:#000000;stroke-dasharray:1.000000,3.000000;stroke-dashoffset:0.0;stroke-linecap:butt;stroke-width:0.5;"/>
     </g>
     <g id="line2d_53">
      <g>
       <use style="stroke:#000000;stroke-linecap:butt;stroke-width:0.5;" x="72.0" xlink:href="#me8a85f7bf6" y="181.44"/>
      </g>
     </g>
     <g id="line2d_54">
      <g>
       <use style="stroke:#000000;stroke-linecap:butt;stroke-width:0.5;" x="518.4" xlink:href="#m1a32005dea" y="181.44"/>
      </g>
     </g>
     <g id="text_17">
      <!-- 2.4 -->
      <g transform="translate(50.46875 185.893125)scale(0.12 -0.12)">
       <use xlink:href="#BitstreamVeraSans-Roman-32"/>
       <use x="63.623046875" xlink:href="#BitstreamVeraSans-Roman-2e"/>
       <use x="95.41015625" xlink:href="#BitstreamVeraSans-Roman-34"/>
      </g>
     </g>
    </g>
    <g id="ytick_8">
     <g id="line2d_55">
      <path clip-path="url(#p7ff5b81e1d)" d="
M72 146.88
L518.4 146.88" style="fill:none;stroke:#000000;stroke-dasharray:1.000000,3.000000;stroke-dashoffset:0.0;stroke-linecap:butt;stroke-width:0.5;"/>
     </g>
     <g id="line2d_56">
      <g>
       <use style="stroke:#000000;stroke-linecap:butt;stroke-width:0.5;" x="72.0" xlink:href="#me8a85f7bf6" y="146.88"/>
      </g>
     </g>
     <g id="line2d_57">
      <g>
       <use style="stroke:#000000;stroke-linecap:butt;stroke-width:0.5;" x="518.4" xlink:href="#m1a32005dea" y="146.88"/>
      </g>
     </g>
     <g id="text_18">
      <!-- 2.8 -->
      <g transform="translate(50.616875 151.2478125)scale(0.12 -0.12)">
       <use xlink:href="#BitstreamVeraSans-Roman-32"/>
       <use x="63.623046875" xlink:href="#BitstreamVeraSans-Roman-2e"/>
       <use x="95.41015625" xlink:href="#BitstreamVeraSans-Roman-38"/>
      </g>
     </g>
    </g>
    <g id="ytick_9">
     <g id="line2d_58">
      <path clip-path="url(#p7ff5b81e1d)" d="
M72 112.32
L518.4 112.32" style="fill:none;stroke:#000000;stroke-dasharray:1.000000,3.000000;stroke-dashoffset:0.0;stroke-linecap:butt;stroke-width:0.5;"/>
     </g>
     <g id="line2d_59">
      <g>
       <use style="stroke:#000000;stroke-linecap:butt;stroke-width:0.5;" x="72.0" xlink:href="#me8a85f7bf6" y="112.32"/>
      </g>
     </g>
     <g id="line2d_60">
      <g>
       <use style="stroke:#000000;stroke-linecap:butt;stroke-width:0.5;" x="518.4" xlink:href="#m1a32005dea" y="112.32"/>
      </g>
     </g>
     <g id="text_19">
      <!-- 3.2 -->
      <g transform="translate(51.033125 116.6878125)scale(0.12 -0.12)">
       <use xlink:href="#BitstreamVeraSans-Roman-33"/>
       <use x="63.623046875" xlink:href="#BitstreamVeraSans-Roman-2e"/>
       <use x="95.41015625" xlink:href="#BitstreamVeraSans-Roman-32"/>
      </g>
     </g>
    </g>
    <g id="ytick_10">
     <g id="line2d_61">
      <path clip-path="url(#p7ff5b81e1d)" d="
M72 77.76
L518.4 77.76" style="fill:none;stroke:#000000;stroke-dasharray:1.000000,3.000000;stroke-dashoffset:0.0;stroke-linecap:butt;stroke-width:0.5;"/>
     </g>
     <g id="line2d_62">
      <g>
       <use style="stroke:#000000;stroke-linecap:butt;stroke-width:0.5;" x="72.0" xlink:href="#me8a85f7bf6" y="77.76"/>
      </g>
     </g>
     <g id="line2d_63">
      <g>
       <use style="stroke:#000000;stroke-linecap:butt;stroke-width:0.5;" x="518.4" xlink:href="#m1a32005dea" y="77.76"/>
      </g>
     </g>
     <g id="text_20">
      <!-- 3.6 -->
      <g transform="translate(50.586875 82.1278125)scale(0.12 -0.12)">
       <use xlink:href="#BitstreamVeraSans-Roman-33"/>
       <use x="63.623046875" xlink:href="#BitstreamVeraSans-Roman-2e"/>
       <use x="95.41015625" xlink:href="#BitstreamVeraSans-Roman-36"/>
      </g>
     </g>
    </g>
    <g id="text_21">
     <!-- Sec/file -->
     <defs>
      <path d="
M9.42188 75.9844
L18.4062 75.9844
L18.4062 0
L9.42188 0
z
" id="BitstreamVeraSans-Roman-6c"/>
      <path d="
M53.5156 70.5156
L53.5156 60.8906
Q47.9062 63.5781 42.9219 64.8906
Q37.9375 66.2188 33.2969 66.2188
Q25.25 66.2188 20.875 63.0938
Q16.5 59.9688 16.5 54.2031
Q16.5 49.3594 19.4062 46.8906
Q22.3125 44.4375 30.4219 42.9219
L36.375 41.7031
Q47.4062 39.5938 52.6562 34.2969
Q57.9062 29 57.9062 20.125
Q57.9062 9.51562 50.7969 4.04688
Q43.7031 -1.42188 29.9844 -1.42188
Q24.8125 -1.42188 18.9688 -0.25
Q13.1406 0.921875 6.89062 3.21875
L6.89062 13.375
Q12.8906 10.0156 18.6562 8.29688
Q24.4219 6.59375 29.9844 6.59375
Q38.4219 6.59375 43.0156 9.90625
Q47.6094 13.2344 47.6094 19.3906
Q47.6094 24.75 44.3125 27.7812
Q41.0156 30.8125 33.5 32.3281
L27.4844 33.5
Q16.4531 35.6875 11.5156 40.375
Q6.59375 45.0625 6.59375 53.4219
Q6.59375 63.0938 13.4062 68.6562
Q20.2188 74.2188 32.1719 74.2188
Q37.3125 74.2188 42.625 73.2812
Q47.9531 72.3594 53.5156 70.5156" id="BitstreamVeraSans-Roman-53"/>
      <path d="
M9.42188 54.6875
L18.4062 54.6875
L18.4062 0
L9.42188 0
z

M9.42188 75.9844
L18.4062 75.9844
L18.4062 64.5938
L9.42188 64.5938
z
" id="BitstreamVeraSans-Roman-69"/>
      <path d="
M25.3906 72.9062
L33.6875 72.9062
L8.29688 -9.28125
L0 -9.28125
z
" id="BitstreamVeraSans-Roman-2f"/>
      <path d="
M56.2031 29.5938
L56.2031 25.2031
L14.8906 25.2031
Q15.4844 15.9219 20.4844 11.0625
Q25.4844 6.20312 34.4219 6.20312
Q39.5938 6.20312 44.4531 7.46875
Q49.3125 8.73438 54.1094 11.2812
L54.1094 2.78125
Q49.2656 0.734375 44.1875 -0.34375
Q39.1094 -1.42188 33.8906 -1.42188
Q20.7969 -1.42188 13.1562 6.1875
Q5.51562 13.8125 5.51562 26.8125
Q5.51562 40.2344 12.7656 48.1094
Q20.0156 56 32.3281 56
Q43.3594 56 49.7812 48.8906
Q56.2031 41.7969 56.2031 29.5938
M47.2188 32.2344
Q47.125 39.5938 43.0938 43.9844
Q39.0625 48.3906 32.4219 48.3906
Q24.9062 48.3906 20.3906 44.1406
Q15.875 39.8906 15.1875 32.1719
z
" id="BitstreamVeraSans-Roman-65"/>
      <path d="
M37.1094 75.9844
L37.1094 68.5
L28.5156 68.5
Q23.6875 68.5 21.7969 66.5469
Q19.9219 64.5938 19.9219 59.5156
L19.9219 54.6875
L34.7188 54.6875
L34.7188 47.7031
L19.9219 47.7031
L19.9219 0
L10.8906 0
L10.8906 47.7031
L2.29688 47.7031
L2.29688 54.6875
L10.8906 54.6875
L10.8906 58.5
Q10.8906 67.625 15.1406 71.7969
Q19.3906 75.9844 28.6094 75.9844
z
" id="BitstreamVeraSans-Roman-66"/>
      <path d="
M48.7812 52.5938
L48.7812 44.1875
Q44.9688 46.2969 41.1406 47.3438
Q37.3125 48.3906 33.4062 48.3906
Q24.6562 48.3906 19.8125 42.8438
Q14.9844 37.3125 14.9844 27.2969
Q14.9844 17.2812 19.8125 11.7344
Q24.6562 6.20312 33.4062 6.20312
Q37.3125 6.20312 41.1406 7.25
Q44.9688 8.29688 48.7812 10.4062
L48.7812 2.09375
Q45.0156 0.34375 40.9844 -0.53125
Q36.9688 -1.42188 32.4219 -1.42188
Q20.0625 -1.42188 12.7812 6.34375
Q5.51562 14.1094 5.51562 27.2969
Q5.51562 40.6719 12.8594 48.3281
Q20.2188 56 33.0156 56
Q37.1562 56 41.1094 55.1406
Q45.0625 54.2969 48.7812 52.5938" id="BitstreamVeraSans-Roman-63"/>
     </defs>
     <g transform="translate(45.380625 236.13)rotate(-90.0)scale(0.12 -0.12)">
      <use xlink:href="#BitstreamVeraSans-Roman-53"/>
      <use x="63.4765625" xlink:href="#BitstreamVeraSans-Roman-65"/>
      <use x="125.0" xlink:href="#BitstreamVeraSans-Roman-63"/>
      <use x="179.98046875" xlink:href="#BitstreamVeraSans-Roman-2f"/>
      <use x="213.671875" xlink:href="#BitstreamVeraSans-Roman-66"/>
      <use x="248.876953125" xlink:href="#BitstreamVeraSans-Roman-69"/>
      <use x="276.66015625" xlink:href="#BitstreamVeraSans-Roman-6c"/>
      <use x="304.443359375" xlink:href="#BitstreamVeraSans-Roman-65"/>
     </g>
    </g>
   </g>
   <g id="patch_3">
    <path d="
M72 43.2
L518.4 43.2" style="fill:none;stroke:#000000;"/>
   </g>
   <g id="patch_4">
    <path d="
M518.4 388.8
L518.4 43.2" style="fill:none;stroke:#000000;"/>
   </g>
   <g id="patch_5">
    <path d="
M72 388.8
L518.4 388.8" style="fill:none;stroke:#000000;"/>
   </g>
   <g id="patch_6">
    <path d="
M72 388.8
L72 43.2" style="fill:none;stroke:#000000;"/>
   </g>
   <g id="text_22">
    <!-- Rand -->
    <defs>
     <path d="
M54.8906 33.0156
L54.8906 0
L45.9062 0
L45.9062 32.7188
Q45.9062 40.4844 42.875 44.3281
Q39.8438 48.1875 33.7969 48.1875
Q26.5156 48.1875 22.3125 43.5469
Q18.1094 38.9219 18.1094 30.9062
L18.1094 0
L9.07812 0
L9.07812 54.6875
L18.1094 54.6875
L18.1094 46.1875
Q21.3438 51.125 25.7031 53.5625
Q30.0781 56 35.7969 56
Q45.2188 56 50.0469 50.1719
Q54.8906 44.3438 54.8906 33.0156" id="BitstreamVeraSans-Roman-6e"/>
     <path d="
M45.4062 46.3906
L45.4062 75.9844
L54.3906 75.9844
L54.3906 0
L45.4062 0
L45.4062 8.20312
Q42.5781 3.32812 38.25 0.953125
Q33.9375 -1.42188 27.875 -1.42188
Q17.9688 -1.42188 11.7344 6.48438
Q5.51562 14.4062 5.51562 27.2969
Q5.51562 40.1875 11.7344 48.0938
Q17.9688 56 27.875 56
Q33.9375 56 38.25 53.625
Q42.5781 51.2656 45.4062 46.3906
M14.7969 27.2969
Q14.7969 17.3906 18.875 11.75
Q22.9531 6.10938 30.0781 6.10938
Q37.2031 6.10938 41.2969 11.75
Q45.4062 17.3906 45.4062 27.2969
Q45.4062 37.2031 41.2969 42.8438
Q37.2031 48.4844 30.0781 48.4844
Q22.9531 48.4844 18.875 42.8438
Q14.7969 37.2031 14.7969 27.2969" id="BitstreamVeraSans-Roman-64"/>
     <path d="
M44.3906 34.1875
Q47.5625 33.1094 50.5625 29.5938
Q53.5625 26.0781 56.5938 19.9219
L66.6094 0
L56 0
L46.6875 18.7031
Q43.0625 26.0312 39.6719 28.4219
Q36.2812 30.8125 30.4219 30.8125
L19.6719 30.8125
L19.6719 0
L9.8125 0
L9.8125 72.9062
L32.0781 72.9062
Q44.5781 72.9062 50.7344 67.6719
Q56.8906 62.4531 56.8906 51.9062
Q56.8906 45.0156 53.6875 40.4688
Q50.4844 35.9375 44.3906 34.1875
M19.6719 64.7969
L19.6719 38.9219
L32.0781 38.9219
Q39.2031 38.9219 42.8438 42.2188
Q46.4844 45.5156 46.4844 51.9062
Q46.4844 58.2969 42.8438 61.5469
Q39.2031 64.7969 32.0781 64.7969
z
" id="BitstreamVeraSans-Roman-52"/>
     <path d="
M34.2812 27.4844
Q23.3906 27.4844 19.1875 25
Q14.9844 22.5156 14.9844 16.5
Q14.9844 11.7188 18.1406 8.90625
Q21.2969 6.10938 26.7031 6.10938
Q34.1875 6.10938 38.7031 11.4062
Q43.2188 16.7031 43.2188 25.4844
L43.2188 27.4844
z

M52.2031 31.2031
L52.2031 0
L43.2188 0
L43.2188 8.29688
Q40.1406 3.32812 35.5469 0.953125
Q30.9531 -1.42188 24.3125 -1.42188
Q15.9219 -1.42188 10.9531 3.29688
Q6 8.01562 6 15.9219
Q6 25.1406 12.1719 29.8281
Q18.3594 34.5156 30.6094 34.5156
L43.2188 34.5156
L43.2188 35.4062
Q43.2188 41.6094 39.1406 45
Q35.0625 48.3906 27.6875 48.3906
Q23 48.3906 18.5469 47.2656
Q14.1094 46.1406 10.0156 43.8906
L10.0156 52.2031
Q14.9375 54.1094 19.5781 55.0469
Q24.2188 56 28.6094 56
Q40.4844 56 46.3438 49.8438
Q52.2031 43.7031 52.2031 31.2031" id="BitstreamVeraSans-Roman-61"/>
    </defs>
    <g transform="translate(278.17425 38.2)scale(0.144 -0.144)">
     <use xlink:href="#BitstreamVeraSans-Roman-52"/>
     <use x="67.232421875" xlink:href="#BitstreamVeraSans-Roman-61"/>
     <use x="128.51171875" xlink:href="#BitstreamVeraSans-Roman-6e"/>
     <use x="191.890625" xlink:href="#BitstreamVeraSans-Roman-64"/>
    </g>
   </g>
   <g id="legend_1">
    <g id="patch_7">
     <path d="
M429.055 115.339
L511.2 115.339
L511.2 50.4
L429.055 50.4
L429.055 115.339
z
" style="fill:#ffffff;stroke:#000000;"/>
    </g>
    <g id="line2d_64">
     <path d="
M439.135 62.0617
L459.295 62.0617" style="fill:none;stroke:#ff0000;"/>
    </g>
    <g id="line2d_65"/>
    <g id="text_23">
     <!-- LRU -->
     <defs>
      <path d="
M9.8125 72.9062
L19.6719 72.9062
L19.6719 8.29688
L55.1719 8.29688
L55.1719 0
L9.8125 0
z
" id="BitstreamVeraSans-Roman-4c"/>
      <path d="
M8.6875 72.9062
L18.6094 72.9062
L18.6094 28.6094
Q18.6094 16.8906 22.8438 11.7344
Q27.0938 6.59375 36.625 6.59375
Q46.0938 6.59375 50.3438 11.7344
Q54.5938 16.8906 54.5938 28.6094
L54.5938 72.9062
L64.5 72.9062
L64.5 27.3906
Q64.5 13.1406 57.4375 5.85938
Q50.3906 -1.42188 36.625 -1.42188
Q22.7969 -1.42188 15.7344 5.85938
Q8.6875 13.1406 8.6875 27.3906
z
" id="BitstreamVeraSans-Roman-55"/>
     </defs>
     <g transform="translate(475.13475 67.10175)scale(0.144 -0.144)">
      <use xlink:href="#BitstreamVeraSans-Roman-4c"/>
      <use x="55.712890625" xlink:href="#BitstreamVeraSans-Roman-52"/>
      <use x="125.1953125" xlink:href="#BitstreamVeraSans-Roman-55"/>
     </g>
    </g>
    <g id="line2d_66">
     <path d="
M439.135 83.1983
L459.295 83.1983" style="fill:none;opacity:0.7;stroke:#008000;"/>
    </g>
    <g id="line2d_67"/>
    <g id="text_24">
     <!-- MRU -->
     <defs>
      <path d="
M9.8125 72.9062
L24.5156 72.9062
L43.1094 23.2969
L61.8125 72.9062
L76.5156 72.9062
L76.5156 0
L66.8906 0
L66.8906 64.0156
L48.0938 14.0156
L38.1875 14.0156
L19.3906 64.0156
L19.3906 0
L9.8125 0
z
" id="BitstreamVeraSans-Roman-4d"/>
     </defs>
     <g transform="translate(475.13475 88.23825)scale(0.144 -0.144)">
      <use xlink:href="#BitstreamVeraSans-Roman-4d"/>
      <use x="86.279296875" xlink:href="#BitstreamVeraSans-Roman-52"/>
      <use x="155.76171875" xlink:href="#BitstreamVeraSans-Roman-55"/>
     </g>
    </g>
    <g id="line2d_68">
     <path d="
M439.135 104.335
L459.295 104.335" style="fill:none;opacity:0.5;stroke:#0000ff;"/>
    </g>
    <g id="line2d_69"/>
    <g id="text_25">
     <!-- FIFO -->
     <defs>
      <path d="
M9.8125 72.9062
L51.7031 72.9062
L51.7031 64.5938
L19.6719 64.5938
L19.6719 43.1094
L48.5781 43.1094
L48.5781 34.8125
L19.6719 34.8125
L19.6719 0
L9.8125 0
z
" id="BitstreamVeraSans-Roman-46"/>
      <path d="
M9.8125 72.9062
L19.6719 72.9062
L19.6719 0
L9.8125 0
z
" id="BitstreamVeraSans-Roman-49"/>
      <path d="
M39.4062 66.2188
Q28.6562 66.2188 22.3281 58.2031
Q16.0156 50.2031 16.0156 36.375
Q16.0156 22.6094 22.3281 14.5938
Q28.6562 6.59375 39.4062 6.59375
Q50.1406 6.59375 56.4219 14.5938
Q62.7031 22.6094 62.7031 36.375
Q62.7031 50.2031 56.4219 58.2031
Q50.1406 66.2188 39.4062 66.2188
M39.4062 74.2188
Q54.7344 74.2188 63.9062 63.9375
Q73.0938 53.6562 73.0938 36.375
Q73.0938 19.1406 63.9062 8.85938
Q54.7344 -1.42188 39.4062 -1.42188
Q24.0312 -1.42188 14.8125 8.82812
Q5.60938 19.0938 5.60938 36.375
Q5.60938 53.6562 14.8125 63.9375
Q24.0312 74.2188 39.4062 74.2188" id="BitstreamVeraSans-Roman-4f"/>
     </defs>
     <g transform="translate(475.13475 109.37475)scale(0.144 -0.144)">
      <use xlink:href="#BitstreamVeraSans-Roman-46"/>
      <use x="57.51953125" xlink:href="#BitstreamVeraSans-Roman-49"/>
      <use x="87.01171875" xlink:href="#BitstreamVeraSans-Roman-46"/>
      <use x="144.53125" xlink:href="#BitstreamVeraSans-Roman-4f"/>
     </g>
    </g>
   </g>
  </g>
 </g>
 <defs>
  <clipPath id="p7ff5b81e1d">
   <rect height="345.6" width="446.4" x="72.0" y="43.2"/>
  </clipPath>
 </defs>
</svg>
