<?xml version="1.0" encoding="utf-8" standalone="no"?>
<!DOCTYPE svg PUBLIC "-//W3C//DTD SVG 1.1//EN"
  "http://www.w3.org/Graphics/SVG/1.1/DTD/svg11.dtd">
<!-- Created with matplotlib (http://matplotlib.sourceforge.net/) -->
<svg height="432pt" version="1.1" viewBox="0 0 576 432" width="576pt" xmlns="http://www.w3.org/2000/svg" xmlns:xlink="http://www.w3.org/1999/xlink">
 <defs>
  <style type="text/css">
*{stroke-linecap:square;stroke-linejoin:round;}
  </style>
 </defs>
 <g id="figure_1">
  <g id="patch_1">
   <path d="
M0 432
L576 432
L576 0
L0 0
z
" style="fill:#ffffff;"/>
  </g>
  <g id="axes_1">
   <g id="patch_2">
    <path d="
M72 388.8
L518.4 388.8
L518.4 43.2
L72 43.2
z
" style="fill:#ffffff;"/>
   </g>
   <g id="line2d_1">
    <path clip-path="url(#p7ff5b81e1d)" d="
M72 188.864
L72.4464 96.4175
L73.7856 81.9083
L74.232 83.8985
L74.6784 82.1283
L75.1248 96.1438
L75.5712 60.1218
L76.0176 87.3595
L76.464 207.297
L76.9104 90.9711
L77.3568 97.4087
L77.8032 94.8562
L78.2496 97.4052
L78.696 95.4712
L79.1424 80.76
L79.5888 96.0395
L80.0352 206.522
L80.4816 81.508
L80.928 81.6805
L81.3744 93.5945
L81.8208 91.9481
L82.2672 208.027
L82.7136 94.8515
L83.16 294.26
L83.6064 98.4361
L84.4992 73.0841
L84.9456 181.598
L85.392 96.4667
L85.8384 210.253
L86.2848 83.3747
L86.7312 201.256
L87.1776 86.499
L87.624 166.854
L88.0704 208.55
L88.5168 206.89
L88.9632 206.087
L89.4096 289.365
L89.856 206.258
L90.3024 80.0556
L90.7488 206.216
L91.1952 210.15
L91.6416 97.3148
L92.088 205.804
L92.5344 94.4163
L92.9808 98.2345
L93.4272 208.496
L93.8736 175.392
L94.32 201.95
L94.7664 207.189
L95.2128 208.35
L95.6592 89.1972
L96.1056 205.761
L96.552 204.342
L96.9984 207.35
L97.4448 96.6357
L97.8912 204.148
L98.3376 89.4302
L98.784 206.938
L99.2304 206.247
L99.6768 85.2944
L100.123 87.7063
L100.57 203.966
L101.016 201.536
L101.462 206.013
L101.909 204.563
L102.355 82.057
L102.802 204.919
L103.248 207.162
L103.694 200.933
L104.141 206.375
L104.587 202.456
L105.034 169.151
L105.48 204.631
L105.926 208.575
L106.373 205.724
L106.819 208.617
L107.266 206.946
L107.712 206.593
L108.158 209.827
L108.605 205.579
L109.051 205.424
L109.498 291.617
L109.944 208.781
L110.39 207.626
L110.837 96.366
L111.283 203.935
L111.73 201.383
L112.176 207.265
L112.622 207.819
L113.069 75.2323
L113.515 176.041
L113.962 199.992
L114.408 295.446
L114.854 209.236
L115.301 206.963
L115.747 209.959
L116.194 203.964
L116.64 212.265
L117.086 201.683
L117.533 96.5777
L117.979 206.401
L118.426 205.229
L118.872 87.5917
L119.318 205.846
L119.765 80.4986
L120.211 204.367
L120.658 208.309
L121.104 208.001
L121.55 206.335
L121.997 203.283
L122.443 209.911
L122.89 207.134
L123.336 205.645
L123.782 208.246
L124.229 208.162
L124.675 203.533
L125.122 292.099
L125.568 207.683
L126.014 208.087
L126.461 207.438
L126.907 208.973
L127.354 207.644
L127.8 294.017
L128.246 207.865
L128.693 85.7568
L129.139 237.138
L129.586 188.278
L130.032 204.412
L130.478 211.551
L130.925 165.762
L131.371 84.1587
L131.818 207.071
L132.264 94.3762
L132.71 201.594
L133.157 214.493
L133.603 206.883
L134.05 202.108
L134.496 207.963
L134.942 203.826
L135.389 193.417
L135.835 217.463
L136.282 204.462
L136.728 206.795
L137.174 204.885
L137.621 205.409
L138.067 293.018
L138.514 205.755
L138.96 206.436
L139.406 206.884
L139.853 214.024
L140.299 199.327
L140.746 167.064
L141.192 206.08
L141.638 208.532
L142.085 208.129
L142.531 208.778
L142.978 207.616
L143.424 205.962
L143.87 208.172
L144.317 204.952
L144.763 205.464
L145.21 209.385
L145.656 86.3207
L146.102 191.407
L146.549 206.86
L146.995 206.42
L147.442 206.699
L147.888 205.954
L148.334 204.45
L148.781 176.495
L149.227 292.814
L149.674 206.698
L150.12 208.354
L150.566 207.87
L151.013 205.791
L151.459 207.867
L151.906 139.665
L152.352 205.558
L152.798 208.321
L153.245 209.193
L153.691 207.935
L154.138 205.417
L154.584 206.33
L155.03 209.651
L155.477 206.04
L155.923 206.244
L156.37 206.946
L156.816 205.092
L157.262 301.853
L157.709 196.688
L158.155 207.218
L158.602 206.495
L159.048 206.968
L159.494 207.895
L159.941 291.889
L160.387 207.054
L160.834 207.69
L161.28 208.028
L161.726 207.906
L162.173 208.092
L162.619 203.328
L163.066 207.296
L163.512 205.946
L163.958 206.269
L164.405 207.806
L164.851 206.113
L165.298 205.34
L165.744 300.613
L166.19 195.192
L166.637 206.953
L167.083 205.583
L167.976 207.92
L168.422 292.585
L168.869 207.171
L169.315 78.3197
L169.762 207.055
L170.208 205.09
L170.654 207.441
L171.101 206.491
L171.547 207.244
L171.994 206.667
L172.44 203.233
L172.886 208.123
L173.333 204.398
L173.779 294.483
L174.226 205.319
L174.672 204.197
L175.118 199.809
L175.565 201.138
L176.011 196
L176.458 290.009
L176.904 199.104
L177.35 199.499
L177.797 197.883
L178.243 202.249
L178.69 192.488
L179.136 199.091
L179.582 202.551
L180.029 196.759
L180.922 198.647
L181.368 191.045
L181.814 198.646
L182.261 198.196
L182.707 197.955
L183.154 195.368
L183.6 198.729
L184.046 189.338
L184.493 198.539
L184.939 196.12
L185.386 200.052
L186.278 197.387
L186.725 192.103
L188.064 199.777
L188.51 195.524
L188.957 198.344
L189.403 195.374
L189.85 198.065
L190.296 198.366
L190.742 195.655
L191.189 197.021
L191.635 197.157
L192.082 190.308
L192.528 196.598
L192.974 199.954
L193.421 197.141
L193.867 193.118
L194.314 200.051
L194.76 192.422
L195.206 198.386
L195.653 197.091
L196.099 197.271
L196.546 197.234
L196.992 200.07
L197.438 190.778
L197.885 198.156
L198.331 191.161
L198.778 205.79
L199.224 197.067
L199.67 195.309
L200.117 190.56
L200.563 195.186
L201.01 197.727
L201.456 199.111
L201.902 195.63
L202.349 199.502
L202.795 192.519
L203.688 200.238
L204.134 197.348
L204.581 198.751
L205.027 195.539
L205.474 193.827
L205.92 199.217
L206.366 198.934
L206.813 197.08
L207.259 194.602
L207.706 199.539
L208.152 193.551
L208.598 197.787
L209.045 196.342
L209.491 197.029
L209.938 197.082
L210.384 199.999
L210.83 193.132
L211.277 197.7
L211.723 196.396
L212.17 196.44
L212.616 199.538
L213.062 197.632
L213.509 194.793
L213.955 194.276
L214.402 198.484
L214.848 200.713
L215.294 197.513
L215.741 195.902
L216.187 198.377
L216.634 199.585
L217.08 197.143
L217.526 199.723
L217.973 199.572
L218.419 196.773
L218.866 195.008
L219.312 202.641
L219.758 196.327
L220.205 197.644
L220.651 197.354
L221.098 199.133
L221.544 198.424
L221.99 198.151
L222.437 195.35
L222.883 195.082
L223.33 201.184
L223.776 193.73
L224.222 189.894
L224.669 196.006
L225.115 195.927
L225.562 212.018
L226.008 196.313
L226.454 199.577
L226.901 192.369
L227.347 195.794
L227.794 200.178
L228.24 196.874
L228.686 196.369
L229.579 197.385
L230.026 196.673
L230.472 198.514
L230.918 198.141
L231.365 196.65
L231.811 196.757
L232.258 195.259
L232.704 199.751
L233.597 192.11
L234.043 161.668
L234.49 201.306
L234.936 195.234
L235.382 198.544
L235.829 199.022
L236.722 201.108
L237.168 200.005
L237.614 195.806
L238.061 195.514
L238.507 197.956
L238.954 197.779
L239.4 196.971
L239.846 197.362
L240.293 196.026
L240.739 196.629
L241.186 193.377
L241.632 202.256
L242.078 197.211
L242.525 198.8
L242.971 194.676
L243.418 199.544
L243.864 158.776
L244.31 199.094
L244.757 200.193
L245.203 198.342
L245.65 199.113
L246.096 198.398
L246.542 200.921
L246.989 197.888
L247.435 197.209
L247.882 197.191
L248.328 194.392
L248.774 196.991
L249.221 194.108
L249.667 197.366
L250.114 199.462
L250.56 199.547
L251.006 193.434
L251.453 194.518
L251.899 189.43
L252.346 206.885
L252.792 196.053
L253.238 197.567
L253.685 195.523
L254.131 197.957
L254.578 199.432
L255.024 197.917
L255.47 195.321
L255.917 197.313
L256.363 193.074
L256.81 198.929
L257.256 197.615
L257.702 198.97
L258.149 196.998
L258.595 198.381
L259.042 193.312
L259.488 197.51
L259.934 199.042
L260.381 197.542
L260.827 196.735
L261.274 199.992
L261.72 187.472
L262.166 199.355
L262.613 195.154
L263.059 192.361
L263.506 167.08
L263.952 198.785
L264.398 197.345
L264.845 196.714
L265.291 197.888
L265.738 200.717
L266.184 199.381
L266.63 199.878
L267.077 194.439
L267.523 194.77
L267.97 201.031
L268.416 195.511
L268.862 196.599
L269.309 198.132
L269.755 193.042
L270.202 200.701
L270.648 194.563
L271.094 198.187
L271.541 196.197
L271.987 200.146
L272.434 192.778
L272.88 197.764
L273.326 199.083
L273.773 195.026
L274.666 198.813
L275.112 192.539
L275.558 195.44
L276.451 198.89
L276.898 196.586
L277.344 199.582
L277.79 192.926
L278.237 197.229
L278.683 196.317
L279.13 201.332
L279.576 194.73
L280.022 197.184
L280.469 197.75
L280.915 196.087
L281.362 198.893
L281.808 197.172
L282.254 197.469
L282.701 197.072
L283.147 197.239
L283.594 198.133
L284.04 158.422
L284.486 200.582
L284.933 198.664
L285.379 202.198
L285.826 197.666
L286.272 198.275
L286.718 199.321
L287.165 195.799
L287.611 199.877
L288.058 197.279
L288.504 191.47
L288.95 197.141
L289.397 196.53
L289.843 199.731
L290.29 197.651
L290.736 200.163
L291.182 192.426
L291.629 197.421
L292.075 196.354
L292.522 199.164
L292.968 146.586
L293.414 208.363
L293.861 196.838
L294.307 196.286
L294.754 201.524
L295.2 204.037
L295.646 197.825
L296.093 198.778
L296.539 193.247
L296.986 198.645
L297.432 197.023
L297.878 198.97
L298.325 194.946
L298.771 200.736
L299.218 196.734
L299.664 197.116
L300.11 196.421
L300.557 195.999
L301.003 197.627
L301.45 197.273
L301.896 193.37
L302.342 196.439
L302.789 194.433
L303.235 194.28
L303.682 164.154
L304.128 198.799
L304.574 198.498
L305.021 195.285
L305.467 197.044
L305.914 203.191
L307.253 196.794
L307.699 197.349
L308.146 198.429
L308.592 198.666
L309.038 195.181
L309.485 196.539
L309.931 191.311
L310.378 200.352
L310.824 198.846
L311.27 198.688
L311.717 197.794
L312.163 199.326
L312.61 193.683
L313.056 197.691
L313.502 193.191
L313.949 162.037
L314.395 201.034
L314.842 200.689
L315.288 195.557
L315.734 196.447
L316.181 199.912
L316.627 199.885
L317.074 198.908
L317.52 197.626
L317.966 197.771
L318.413 196.182
L318.859 197.742
L319.306 198.635
L319.752 198.02
L320.198 198.653
L320.645 196.804
L321.091 198.679
L321.538 199.648
L321.984 195.498
L322.43 148.855
L322.877 208.31
L323.323 199.097
L323.77 198.76
L324.216 199.367
L324.662 200.576
L325.109 197.721
L325.555 201.932
L326.448 196.452
L326.894 195.935
L327.341 194.271
L327.787 196.076
L328.234 195.188
L328.68 188.84
L329.126 194.35
L329.573 193.602
L330.019 193.46
L330.466 195.301
L330.912 196.23
L331.358 189.572
L332.698 196.04
L333.144 189.878
L333.59 196.571
L334.037 191.313
L334.93 194.693
L335.376 189.274
L335.822 194.305
L336.269 191.603
L336.715 194.052
L337.162 193.466
L337.608 195.038
L338.054 196.053
L338.501 193.863
L338.947 192.41
L339.394 189.285
L339.84 195.509
L340.286 194.685
L340.733 194.412
L341.179 193.573
L341.626 194.864
L342.072 189.496
L342.518 195.176
L342.965 186.652
L343.411 159.819
L343.858 195.582
L344.304 193.171
L344.75 192.63
L345.197 196.312
L345.643 194.46
L346.09 194.133
L346.536 196.956
L346.982 194.267
L347.429 188.131
L347.875 195.016
L348.322 206.942
L348.768 193.365
L349.214 194.353
L349.661 196.106
L350.107 187.772
L350.554 193.058
L351 193.763
L351.446 191.673
L351.893 197.186
L352.339 192.688
L352.786 189.856
L353.232 192.565
L353.678 189.932
L354.125 194.259
L354.571 192.817
L355.018 194.126
L355.464 190.925
L355.91 190.944
L356.357 202.344
L356.803 196.294
L357.25 192.249
L357.696 194.361
L358.142 193.122
L358.589 194.681
L359.035 193.467
L359.482 195.183
L359.928 193.186
L360.374 191.871
L360.821 191.74
L361.267 194.348
L361.714 194.892
L362.16 195.077
L362.606 189.357
L363.053 195.774
L363.499 189.685
L363.946 196.38
L364.392 191.727
L364.838 195.263
L365.285 190.699
L365.731 193.422
L366.178 192.776
L366.624 194.602
L367.07 192.314
L367.517 194.342
L367.963 191.278
L368.41 197.28
L368.856 190.29
L369.302 194.054
L369.749 194.489
L370.195 192.328
L370.642 195.161
L371.088 196.709
L371.534 187.975
L371.981 189.12
L372.427 191.166
L372.874 191.839
L373.32 192.027
L373.766 192.852
L374.213 189.584
L374.659 190.938
L375.106 191.191
L375.552 190.506
L375.998 191.063
L376.445 192.775
L376.891 187.994
L377.338 191.14
L377.784 189.982
L378.23 191.087
L378.677 191.708
L379.123 194.056
L379.57 187.075
L380.016 191.476
L380.462 190.981
L380.909 191.398
L381.355 138.726
L381.802 207.807
L382.248 185.752
L382.694 190.798
L383.141 191.349
L383.587 197.368
L384.034 190.328
L384.48 192.716
L384.926 190.907
L385.373 191.376
L385.819 193.146
L386.712 190.755
L387.158 191.004
L387.605 189.651
L388.051 189.398
L388.498 191.145
L388.944 190.093
L389.39 190.34
L389.837 185.407
L390.283 192.994
L390.73 191.268
L391.176 150.912
L391.622 192.663
L392.069 193.551
L392.515 193.928
L392.962 191.477
L393.408 193.574
L393.854 192.182
L394.301 193.792
L394.747 192.655
L395.194 192.264
L395.64 190.051
L396.086 191.475
L396.533 190.779
L396.979 194.647
L397.426 192.465
L397.872 191.519
L398.318 183.279
L398.765 191.68
L399.211 185.497
L399.658 155.851
L400.104 193.795
L400.55 195.523
L400.997 193.094
L401.443 189.878
L401.89 196.696
L402.336 191.742
L402.782 190.694
L403.229 191.128
L403.675 188.161
L404.122 193.202
L404.568 190.737
L405.014 191.662
L405.461 181.367
L405.907 198.728
L406.354 192.645
L406.8 193.983
L407.246 191.994
L407.693 190.952
L408.139 188.26
L408.586 191.806
L409.032 187.884
L409.478 190.199
L410.371 192.63
L410.818 189.436
L411.264 191.981
L411.71 187.49
L412.157 191.69
L412.603 189.671
L413.05 193.426
L413.496 189.383
L413.942 193.012
L414.389 189.704
L414.835 192.629
L415.282 193.323
L415.728 190.46
L416.174 189.319
L416.621 191.154
L417.067 188.59
L417.514 193.05
L417.96 188.014
L418.406 194.462
L418.853 181.222
L419.299 190.088
L419.746 187.013
L420.192 186.022
L420.638 189.481
L421.085 180.05
L421.531 196.684
L421.978 185.051
L422.424 186.831
L422.87 187.441
L423.317 187.14
L423.763 188.212
L424.21 184.581
L424.656 188.911
L425.102 168.861
L425.549 187.026
L425.995 191.286
L426.442 189.5
L426.888 188.977
L427.334 191.717
L427.781 188.393
L428.227 190.479
L428.674 190.664
L429.12 186.352
L429.566 188.896
L430.013 186.6
L430.459 186.722
L430.906 189.56
L431.798 183.421
L432.245 188.617
L432.691 188.251
L433.138 184.891
L433.584 187.293
L434.03 192.064
L434.477 187.972
L435.37 185.503
L435.816 167.292
L436.262 190.137
L437.155 182.26
L437.602 165.877
L438.048 189.897
L438.494 191.81
L438.941 187.837
L439.387 187.985
L439.834 192.475
L440.28 187.33
L440.726 192.894
L441.173 184.316
L441.619 188.343
L442.066 190.67
L442.512 187.548
L442.958 189.908
L443.405 185.189
L443.851 184.478
L444.298 188.886
L445.19 189.24
L445.637 186.86
L446.083 186.703
L446.53 188.078
L446.976 187.031
L447.422 149.878
L447.869 190.088
L448.315 190.381
L448.762 190.11
L449.654 187.634
L450.101 189.718
L450.547 189.768
L450.994 187.144
L451.44 188.494
L451.886 183.627
L452.333 187.367
L452.779 186.33
L453.226 188.801
L453.672 189.502
L454.118 189.713
L454.565 169.389
L455.011 183.96
L455.904 191.236
L456.35 186.512
L456.797 191.618
L457.243 182.085
L457.69 189.201
L458.136 185.015
L458.582 189.712
L459.029 186.024
L459.475 188.496
L459.922 183.061
L460.368 189.315
L460.814 184.578
L461.261 186.561
L461.707 191.088
L462.6 181.976
L463.046 187.004
L463.493 186.83
L463.939 187.286
L464.386 188.942
L464.832 187.177
L465.278 182.526
L465.725 186.606
L466.171 151.331
L466.618 186.665
L467.064 190.828
L467.957 186.206
L468.403 189.639
L468.85 188.772
L469.296 188.874
L469.742 185.848
L470.189 188.252
L470.635 184.283
L471.528 186.567
L471.974 210.007
L472.421 182.79
L472.867 192.295
L473.314 184.84
L473.76 192.164
L474.206 185.006
L474.653 183.186
L475.099 151.646
L475.546 189.987
L475.992 189.078
L476.438 187.569
L476.885 190.289
L477.331 188.179
L477.778 184.866
L478.224 179.198
L478.67 180.922
L479.117 181.867
L479.563 179.735
L480.01 184.02
L480.456 183.037
L480.902 180.364
L481.349 139.017
L481.795 184.427
L482.242 182.929
L482.688 187.189
L483.134 180.616
L483.581 187.351
L484.027 179.327
L484.474 183.591
L484.92 179.593
L485.366 184.032
L485.813 179.344
L486.259 182.145
L486.706 139.234
L487.152 182.005
L487.598 182.531
L488.045 183.59
L488.491 185.547
L488.938 185.638
L489.384 182.56
L489.83 183.313
L490.277 182.468
L490.723 182.651
L491.17 182.689
L491.616 180.969
L492.062 153.996
L492.509 181.626
L492.955 184.378
L493.402 183.412
L493.848 186.725
L494.294 183.435
L494.741 179.318
L495.187 183.372
L495.634 181.153
L496.08 181.724
L496.526 181.582
L496.973 182.857
L497.419 160.436
L497.866 180.004
L498.312 187.235
L498.758 180.749
L499.205 182.8
L499.651 186.821
L500.098 181.331
L500.544 183.186
L500.99 144.093
L501.437 182.377
L501.883 184.777
L502.33 184.037
L502.776 284.106
L503.222 182.755
L503.669 183.647
L504.562 183.001
L505.008 186.615
L505.454 182.358
L505.901 183.649
L506.347 182.734
L506.794 182.198
L507.24 182.628
L507.686 137.104
L508.133 185.841
L508.579 172.003
L509.026 185.811
L509.918 183.396
L510.365 178.87
L510.811 185.253
L511.258 180.866
L511.704 183.403
L512.15 182.233
L512.597 178.281
L513.043 160.775
L513.49 179.856
L513.936 186.534
L514.382 184.83
L514.829 186.012
L515.275 182.871
L515.722 166.856
L516.614 184.785
L517.061 187.507
L517.507 182.129
L517.954 184.151
L517.954 184.151" style="fill:none;stroke:#ff0000;"/>
   </g>
   <g id="line2d_2">
    <path clip-path="url(#p7ff5b81e1d)" d="
M72 204.079
L72.4464 104.491
L72.8928 84.1188
L73.3392 105.036
L73.7856 106.833
L74.232 102.335
L75.1248 108.127
L75.5712 213.834
L76.0176 99.3239
L76.464 98.4637
L76.9104 212.215
L77.3568 106.875
L77.8032 103.474
L78.2496 101.784
L78.696 212.462
L79.1424 215.971
L79.5888 105.555
L80.0352 101.307
L80.4816 215.604
L80.928 102.338
L81.3744 107.868
L81.8208 212.687
L82.2672 213.901
L82.7136 211.964
L83.16 213.709
L83.6064 213.499
L84.0528 107.503
L84.4992 211.217
L84.9456 112.911
L85.392 210.823
L85.8384 210.578
L86.2848 104.509
L86.7312 107.553
L87.1776 103.351
L87.624 104.777
L88.0704 106.793
L88.5168 211.49
L88.9632 215.991
L89.4096 211.319
L89.856 215.243
L90.3024 85.9801
L90.7488 108.555
L91.1952 212.849
L91.6416 89.7246
L92.088 186.218
L92.5344 215.218
L92.9808 109.469
L93.4272 216.393
L93.8736 217.085
L94.32 113.716
L94.7664 107.423
L95.2128 215.883
L95.6592 214.955
L96.1056 107.982
L96.552 207.421
L96.9984 213.845
L97.4448 213.415
L97.8912 91.0495
L98.3376 142.661
L98.784 223.842
L99.2304 67.941
L99.6768 214.495
L100.123 212.502
L100.57 215.59
L101.016 110.969
L101.909 295.856
L102.802 110.577
L103.248 215.746
L103.694 110.074
L104.141 210.283
L105.034 215.888
L105.48 215.044
L105.926 213.174
L106.373 214.621
L106.819 214.032
L107.266 79.4066
L107.712 213.806
L108.158 218.913
L108.605 108.952
L109.051 213.942
L109.498 214.793
L109.944 296.152
L110.39 216.815
L111.283 215.452
L111.73 216.08
L112.176 97.4898
L112.622 294.854
L113.515 139.86
L113.962 241.457
L114.408 216.006
L114.854 216.383
L115.301 294.918
L115.747 214.8
L116.194 108.605
L116.64 218.911
L117.086 213.659
L117.533 108.605
L117.979 214.259
L118.426 216.175
L118.872 215.921
L119.318 217.087
L119.765 210.316
L120.211 206.834
L120.658 220.848
L121.104 212.396
L121.55 211.542
L121.997 213.881
L122.443 209.983
L122.89 214.571
L123.336 194.497
L123.782 212.547
L124.229 212.245
L124.675 216.885
L125.122 107.5
L125.568 217.681
L126.014 212.32
L126.461 213.353
L126.907 215.063
L127.354 215.988
L127.8 213.837
L128.246 212.267
L128.693 216.136
L129.139 194.968
L129.586 212.219
L130.032 215.698
L130.478 216.169
L130.925 210.934
L131.371 216.787
L131.818 216.142
L132.264 212.881
L132.71 214.219
L133.157 214.777
L133.603 215.697
L134.05 213.371
L134.496 212.73
L134.942 215.899
L135.389 208.103
L135.835 213.858
L136.282 108.563
L136.728 213.154
L137.174 216.112
L137.621 214.829
L138.067 207.796
L138.514 216.96
L138.96 212.205
L140.299 215.23
L140.746 212.032
L141.192 173.535
L141.638 214.319
L142.085 101.907
L142.531 215.92
L142.978 216.175
L143.424 216.62
L143.87 212.995
L144.317 215.823
L144.763 211.9
L145.21 215.953
L145.656 212.678
L146.102 210.871
L146.549 214.884
L146.995 209.205
L147.442 214.549
L147.888 213.096
L148.334 100.381
L148.781 212.238
L149.227 103.178
L149.674 292.705
L150.12 212.456
L150.566 211.583
L151.013 207.665
L151.459 215.651
L151.906 212.071
L152.352 167.737
L152.798 212.589
L153.245 211.479
L153.691 210.785
L154.138 212.327
L154.584 213.297
L155.03 213.839
L155.477 210.542
L155.923 211.158
L156.37 209.927
L156.816 211.255
L157.262 209.954
L157.709 210.435
L158.155 208.762
L158.602 211.082
L159.048 212.722
L159.494 209.99
L160.387 213.413
L160.834 210.861
L161.28 206.292
L161.726 209.547
L162.173 213.942
L162.619 210.842
L163.066 210.089
L163.512 104.761
L163.958 202.156
L164.405 211.927
L164.851 208.955
L165.298 213.758
L165.744 210.962
L166.19 209.588
L166.637 213.465
L167.083 296.794
L167.53 211.127
L167.976 215.936
L168.422 210.479
L169.315 213.814
L169.762 209.363
L170.654 215.682
L171.101 210.323
L171.547 212.688
L171.994 212.219
L172.44 211.374
L172.886 205.604
L173.333 103.937
L173.779 209.512
L174.226 213.155
L174.672 211.313
L175.118 206.013
L175.565 202.752
L176.011 214
L176.458 210.877
L176.904 211.095
L177.35 213.864
L177.797 209.631
L178.243 211.374
L178.69 166.387
L179.136 213.648
L179.582 213.157
L180.029 213.152
L180.475 214.602
L180.922 212.954
L181.368 214.401
L182.261 209.393
L182.707 213.242
L183.154 212.003
L183.6 212.752
L184.046 206.219
L184.493 212.661
L184.939 174.086
L185.386 211.753
L185.832 212.999
L186.278 213.537
L186.725 213.055
L187.171 211.458
L187.618 214.936
L188.064 209.575
L188.51 213.521
L188.957 210.716
L189.403 209.605
L189.85 212.12
L190.296 209.709
L190.742 208.099
L191.189 295.696
L191.635 211.884
L192.082 210.86
L192.528 215.301
L192.974 211.594
L193.421 212.162
L193.867 206.162
L194.314 211.056
L194.76 221.981
L195.206 209.68
L195.653 214.377
L196.099 208.713
L196.546 209.765
L196.992 294.498
L197.438 209.362
L197.885 213.857
L198.331 212.036
L198.778 216.319
L199.224 212.575
L199.67 207.188
L200.117 212.081
L200.563 213.464
L201.01 205.813
L201.456 212.208
L201.902 212.827
L202.349 206.904
L202.795 294.664
L203.242 212.618
L203.688 212.567
L204.134 206.246
L204.581 212.088
L205.027 211.883
L205.474 204.576
L205.92 213.288
L207.259 208.573
L207.706 212.193
L208.152 207.878
L208.598 294.275
L209.045 212.326
L209.491 212.437
L209.938 210.354
L210.384 213.459
L210.83 213.16
L211.277 209.189
L211.723 210.571
L212.17 210.73
L212.616 207.565
L213.062 206.893
L213.509 211.012
L213.955 209.789
L214.402 294.234
L214.848 210.349
L215.294 210.659
L215.741 212.584
L216.187 210.133
L216.634 212.728
L217.08 193.338
L217.526 188.164
L217.973 211.718
L218.419 210.408
L218.866 210.373
L219.312 212.5
L219.758 212.276
L220.205 295.68
L220.651 209.258
L221.098 213.613
L221.544 210.889
L221.99 210.034
L222.437 209.631
L223.33 211.918
L223.776 209.164
L224.222 208.757
L224.669 211.297
L225.115 206.022
L225.562 209.95
L226.008 296.522
L226.454 210.794
L226.901 212.085
L227.347 212.809
L227.794 211.901
L228.24 231.125
L228.686 215.528
L229.133 212.098
L229.579 209.533
L230.026 209.102
L230.918 211.174
L231.365 209.745
L231.811 291.976
L232.258 214.123
L232.704 209.939
L233.15 210.715
L233.597 212.473
L234.043 211.323
L234.49 193.341
L234.936 227.988
L235.382 191.775
L235.829 212.059
L236.275 208.893
L236.722 216.667
L237.168 209.11
L237.614 294.089
L238.061 209.719
L238.507 212.946
L238.954 211.915
L239.4 209.54
L239.846 214.507
L240.293 208.229
L241.186 211.788
L241.632 210.001
L242.078 207.698
L242.525 209.957
L242.971 209.716
L243.418 292.492
L243.864 210.835
L244.31 215.983
L244.757 210.786
L245.203 225.647
L245.65 210.658
L246.096 212.243
L246.542 211.679
L246.989 212.933
L247.435 207.474
L247.882 210.936
L248.328 211.08
L248.774 209.731
L249.221 171.138
L249.667 212.252
L250.114 212.475
L250.56 207.56
L251.006 214.446
L251.453 210.205
L251.899 209.977
L252.346 294.751
L252.792 209.458
L253.238 213.283
L253.685 209.182
L254.131 209.129
L254.578 213.04
L255.024 206.242
L255.47 211.617
L255.917 207.759
L256.363 205.593
L256.81 207.641
L257.256 206.267
L257.702 207.669
L258.149 293.576
L258.595 210.197
L259.042 207.885
L259.488 206.288
L260.381 210.645
L260.827 190.612
L261.274 201.674
L261.72 209.169
L262.166 209.245
L262.613 207.302
L263.059 210.682
L263.506 206.958
L263.952 294.83
L264.398 206.236
L264.845 206.627
L265.291 210.326
L265.738 207.306
L266.184 207.758
L266.63 292.935
L267.077 208.319
L267.523 206.022
L267.97 208.304
L268.416 208.898
L268.862 207.65
L269.309 205.303
L269.755 208.612
L270.202 208.318
L270.648 205.522
L271.094 205.305
L271.541 209.19
L271.987 203.999
L272.434 294.888
L272.88 203.97
L273.326 209.494
L274.219 207.791
L274.666 207.872
L275.112 291.961
L275.558 207.122
L276.005 204.308
L276.451 208.681
L276.898 210.719
L277.344 207.254
L277.79 206.228
L278.683 208.039
L279.13 207.589
L279.576 208.43
L280.022 205.18
L280.469 205.276
L280.915 292.76
L281.362 207.007
L281.808 205.751
L282.254 210.109
L282.701 206.28
L283.147 206.87
L283.594 292.273
L284.04 208.056
L284.486 206.202
L284.933 207.198
L285.379 209.535
L285.826 209.869
L286.272 203.339
L287.165 216.738
L287.611 206.089
L288.058 208.056
L288.504 205.953
L288.95 205.191
L289.397 293.156
L289.843 205.61
L290.29 209.009
L290.736 206.524
L291.182 209.777
L291.629 208.684
L292.075 293.169
L292.522 205.465
L292.968 209.493
L293.414 204.661
L293.861 203.737
L294.307 210.327
L294.754 203.608
L295.2 208.815
L295.646 209.737
L296.093 205.355
L296.539 206.899
L297.432 207.077
L297.878 314.94
L298.325 190.141
L298.771 209.009
L299.218 209.249
L299.664 208.199
L300.11 205.568
L300.557 293.945
L301.003 206.376
L301.45 205.745
L301.896 207.855
L302.342 208.334
L302.789 209.04
L303.235 173.152
L303.682 208.798
L304.574 206.873
L305.021 211.649
L305.467 207.093
L305.914 80.5759
L306.36 292.426
L306.806 207.788
L307.253 208.149
L307.699 206.718
L308.146 208.365
L308.592 207.268
L309.038 206.532
L309.485 203.002
L309.931 208.984
L310.378 206.745
L310.824 205.304
L311.27 208.136
L311.717 204.696
L312.163 293.565
L312.61 206.21
L313.056 205.822
L313.502 208.311
L313.949 207.473
L314.395 224.784
L314.842 197.489
L315.288 204.824
L315.734 205.393
L316.181 206.417
L316.627 208.12
L317.074 209.357
L317.52 79.3089
L317.966 291.295
L318.413 207.979
L318.859 207.93
L319.306 206.318
L319.752 206.409
L320.198 207.918
L320.645 204.02
L321.091 208.274
L321.984 206.833
L322.43 204.196
L322.877 207.014
L323.323 207.007
L323.77 294.444
L324.216 206.99
L325.109 209.496
L325.555 209.908
L326.002 205.53
L326.448 291.961
L326.894 208.24
L327.341 207.432
L327.787 208.359
L328.234 207.106
L328.68 208.714
L329.126 166.441
L329.573 205.221
L330.019 208.033
L330.466 207.891
L330.912 234.224
L331.358 190.439
L331.805 206.852
L332.251 294.12
L332.698 204.934
L333.144 207.647
L334.037 209.183
L334.483 202.495
L334.93 207.541
L335.376 205.952
L335.822 205.929
L336.715 207.851
L337.162 204.99
L337.608 205.984
L338.054 293.099
L338.501 206.13
L338.947 206.757
L339.394 207.613
L339.84 207.535
L340.286 204.863
L340.733 291.702
L341.179 207.269
L341.626 206.79
L342.072 208.612
L342.518 204.64
L342.965 209.239
L343.411 168.565
L343.858 205.293
L344.304 207.219
L344.75 207.738
L345.197 204.476
L345.643 206.583
L346.09 77.0049
L346.536 293.363
L346.982 204.874
L347.429 207.212
L347.875 206.538
L348.322 207.863
L348.768 205.911
L349.214 208.044
L350.107 204.773
L350.554 208.455
L351 209.32
L351.446 200.78
L351.893 94.7817
L352.339 256.698
L352.786 200.467
L353.232 198.712
L353.678 201.265
L354.125 193.608
L354.571 196.285
L355.018 195.802
L355.464 201.391
L355.91 197.286
L356.357 196.231
L356.803 198.461
L357.25 191.709
L357.696 199.489
L358.142 198.943
L358.589 197.083
L359.035 196.656
L359.482 199.509
L359.928 189.941
L360.374 198.703
L360.821 197.77
L361.267 194.45
L361.714 200.444
L362.606 192.855
L363.053 197.434
L363.499 188.942
L363.946 206.414
L364.392 198.377
L364.838 193.748
L365.285 198.812
L365.731 195.287
L366.178 198.44
L366.624 198.036
L367.07 200.974
L367.517 197.711
L367.963 196.36
L368.41 198.979
L369.302 198.561
L369.749 195.64
L370.195 195.51
L370.642 188.324
L371.088 198.154
L371.534 196.721
L371.981 198.11
L372.427 198.715
L372.874 197.317
L373.32 192.694
L373.766 196.859
L374.213 195.763
L374.659 197.045
L375.106 202.164
L375.998 195.043
L376.891 197.867
L377.338 215.964
L377.784 194.756
L378.23 196.683
L378.677 195.958
L379.123 192.248
L379.57 197.428
L380.016 198.287
L380.462 198.129
L381.355 196.682
L381.802 196.934
L382.248 198.726
L382.694 196.824
L383.141 197.403
L383.587 198.426
L384.034 197.964
L384.48 196.86
L384.926 199.137
L385.373 196.815
L385.819 198.66
L386.712 197.104
L387.158 198.818
L387.605 196.42
L388.051 196.803
L388.498 199.15
L388.944 197.575
L389.39 197.945
L389.837 196.028
L390.283 197.752
L390.73 196.977
L391.176 199.207
L391.622 197.395
L392.069 199.79
L392.515 196.886
L392.962 200.96
L393.408 197.363
L393.854 198.248
L394.301 194.578
L394.747 198.353
L395.194 199.3
L396.086 195.863
L396.979 197.668
L397.426 197.73
L397.872 200.342
L398.765 197.991
L399.211 197.737
L399.658 199.061
L400.104 194.658
L400.55 197.635
L400.997 197.44
L401.89 198.226
L402.336 194.478
L402.782 196.965
L403.229 196.988
L403.675 199.955
L404.122 199.716
L404.568 197.159
L405.014 197.104
L405.461 194.008
L405.907 195.004
L406.354 201.379
L406.8 195.23
L407.246 194.791
L407.693 195.411
L408.139 191.848
L408.586 199.844
L409.478 196.89
L409.925 196.287
L410.371 196.343
L410.818 199.333
L411.264 199.156
L411.71 195.994
L412.157 198.551
L412.603 198.991
L413.05 196.757
L413.496 198.141
L413.942 195.792
L414.389 195.082
L414.835 198.672
L415.282 198.714
L415.728 197.301
L416.174 191.002
L416.621 193.629
L417.067 197.519
L417.514 198.716
L417.96 197.238
L418.406 195.199
L418.853 198.197
L419.299 196.979
L419.746 201.011
L420.192 197.504
L420.638 196.482
L421.085 196.134
L421.531 196.746
L421.978 200.039
L422.424 198.441
L422.87 199.438
L423.317 196.82
L423.763 199.353
L424.21 196.816
L424.656 197.26
L425.102 197.946
L425.549 197.8
L425.995 198.919
L426.442 198.101
L426.888 188.678
L427.334 194.963
L427.781 196.075
L428.227 197.827
L428.674 198.776
L429.12 196.534
L429.566 196.716
L430.013 195.213
L430.459 198.907
L430.906 197.113
L431.352 200.468
L431.798 194.5
L432.245 192.769
L432.691 198.071
L433.138 195.67
L433.584 200.108
L434.03 196.343
L434.477 196.382
L434.923 198.322
L435.37 197.994
L435.816 198.399
L436.262 196.072
L436.709 198.416
L437.155 198.089
L437.602 194.672
L438.048 197.668
L438.941 195.012
L439.387 198.536
L439.834 199.59
L440.28 195.188
L440.726 195.238
L441.173 197.874
L441.619 197.501
L442.066 198.681
L442.512 196.638
L442.958 196.849
L443.405 196.052
L443.851 200.871
L444.298 198.786
L444.744 198.862
L445.19 193.594
L445.637 191.991
L446.083 197.493
L446.53 199.278
L446.976 198.021
L447.422 194.511
L448.762 199.283
L449.208 198.464
L449.654 195.972
L450.101 197.544
L450.547 195.768
L450.994 193.219
L451.44 198.076
L451.886 198.67
L452.333 194.034
L452.779 202.099
L453.226 199.115
L453.672 192.341
L454.118 198.338
L454.565 195.625
L455.011 200.084
L455.458 194.762
L455.904 198.7
L456.797 195.384
L457.243 197.845
L457.69 198.248
L458.136 199.254
L458.582 194.454
L459.029 193.285
L459.475 197.715
L459.922 199.355
L460.368 198.242
L460.814 196.01
L461.261 196.618
L461.707 198.12
L462.154 198.135
L462.6 201.282
L463.046 196.019
L463.493 197.323
L463.939 196.896
L464.386 193.347
L464.832 196.556
L465.278 195.885
L465.725 196.749
L466.171 199.338
L466.618 197.863
L467.064 194.864
L467.51 194.974
L467.957 199.469
L468.403 199.7
L468.85 198.331
L469.296 198.322
L469.742 194.776
L470.189 193.819
L470.635 199.425
L471.082 196.136
L471.528 198.516
L471.974 195.298
L472.421 197.547
L472.867 197.007
L473.314 198.888
L473.76 197.508
L474.206 195.132
L474.653 197.834
L475.099 195.077
L475.546 197.627
L475.992 198.87
L476.438 196.781
L476.885 196.939
L477.331 198.315
L478.224 196.591
L478.67 195.992
L479.117 196.563
L479.563 201.016
L480.01 196.905
L480.456 195.502
L480.902 194.755
L481.349 197.025
L481.795 200.278
L482.242 196.237
L482.688 193.812
L483.134 197.522
L483.581 195.449
L484.027 200.48
L484.92 190.851
L485.366 194.903
L485.813 196.88
L486.259 196.696
L486.706 198.865
L487.152 199.308
L487.598 195.57
L488.045 197.21
L488.491 193.978
L488.938 201.089
L489.384 199.152
L489.83 196.311
L490.277 199.184
L490.723 194.755
L491.17 194.154
L491.616 196.561
L492.062 198.326
L492.509 196.913
L492.955 198.854
L493.848 196.599
L494.294 194.168
L494.741 196.718
L495.187 199.956
L495.634 196.215
L496.08 198.369
L496.526 197.445
L496.973 195.849
L497.419 200.378
L497.866 196.702
L498.312 198.546
L498.758 196.879
L499.205 199.215
L499.651 197.815
L500.098 201.378
L500.544 195.789
L500.99 195.051
L501.437 197.91
L501.883 199.871
L502.33 197.291
L502.776 199.328
L503.222 195.252
L503.669 197.89
L504.115 198.102
L504.562 197.74
L505.008 194.989
L505.454 193.808
L505.901 191.785
L506.347 194.943
L507.24 191.677
L507.686 192.79
L508.133 193.299
L508.579 194.293
L509.026 194.291
L509.472 192.269
L509.918 193.713
L510.365 192.793
L510.811 187.309
L511.258 202.912
L511.704 195.92
L512.15 193.563
L512.597 192.249
L513.043 191.889
L513.49 196.12
L513.936 193.298
L514.382 192.374
L514.829 190.4
L515.275 194.871
L515.722 192.315
L516.168 198.133
L516.614 193.637
L517.061 192.779
L517.507 191.254
L517.954 191.37
L517.954 191.37" style="fill:none;opacity:0.7;stroke:#008000;"/>
   </g>
   <g id="line2d_3">
    <path clip-path="url(#p7ff5b81e1d)" d="
M72 224.314
L72.4464 206.838
L72.8928 194.713
L73.3392 199.848
L73.7856 194.634
L74.232 195.495
L74.6784 194.506
L75.5712 195.983
L76.0176 195.584
L76.464 197.717
L76.9104 193.573
L77.8032 197.296
L78.2496 196.79
L78.696 195.455
L79.5888 197.566
L80.0352 197.985
L80.4816 199.699
L80.928 197.559
L81.3744 199.804
L81.8208 197.016
L82.2672 200.686
L82.7136 197.038
L83.6064 199.082
L84.0528 199.335
L84.4992 199.345
L84.9456 199.564
L85.392 196.585
L85.8384 203.048
L86.2848 196.099
L86.7312 201.211
L87.1776 200.917
L88.0704 199.2
L88.5168 182.455
L88.9632 304.775
L89.4096 216.207
L89.856 198.405
L90.3024 199.565
L90.7488 196.586
L91.1952 197.032
L91.6416 289.761
L92.088 194.755
L92.5344 200.739
L93.4272 198.052
L93.8736 197.674
L94.32 194.943
L94.7664 198.51
L95.2128 197.39
L96.552 195.451
L96.9984 195.889
L97.4448 197.956
L98.3376 195.91
L98.784 197.474
L99.2304 197.786
L99.6768 196.114
L100.123 196.803
L100.57 195.691
L101.016 195.885
L101.462 195.885
L101.909 197.339
L102.355 196.32
L102.802 197.003
L103.248 197.956
L103.694 194.837
L104.141 200.498
L104.587 197.672
L105.034 200.969
L105.926 196.242
L106.373 198.833
L106.819 194.526
L107.266 193.564
L107.712 196.362
L108.158 194.514
L108.605 195.509
L109.051 199.286
L109.498 195.028
L109.944 192.311
L110.39 194.817
L110.837 195.913
L111.283 197.682
L111.73 193.08
L112.176 195.591
L112.622 193.759
L113.069 194.712
L113.515 198.164
L113.962 194.262
L114.408 199.321
L114.854 193.442
L115.301 198.34
L115.747 194.831
L116.194 198.35
L116.64 197.267
L117.086 195.307
L117.533 197.298
L117.979 192.514
L118.426 196.268
L118.872 196.501
L119.765 194.869
L120.211 191.365
L120.658 191.717
L121.104 196.289
L121.55 195.326
L121.997 192.234
L122.443 191.731
L122.89 193.276
L123.336 198.674
L123.782 195.913
L124.229 197.397
L124.675 193.494
L125.122 196.308
L125.568 200.754
L126.014 192.659
L126.461 196.556
L126.907 196.144
L127.354 194.489
L127.8 195.199
L128.246 196.726
L128.693 190.413
L129.139 195.206
L129.586 195.274
L130.032 196.959
L130.478 197.164
L131.371 190.19
L131.818 192.881
L132.264 193.083
L132.71 194.369
L133.157 193.509
L133.603 195.851
L134.05 191.133
L134.496 193.527
L134.942 194.141
L135.389 200.498
L135.835 191.005
L136.282 193.735
L136.728 188.646
L137.174 199.921
L137.621 197.362
L138.067 195.683
L138.514 195.642
L138.96 195.89
L139.406 194.275
L139.853 196.581
L140.299 196.571
L140.746 197.268
L141.192 186.369
L141.638 193.245
L142.085 191.566
L142.531 196.06
L142.978 194.599
L143.424 196.462
L143.87 194.248
L144.317 195.246
L144.763 194.411
L145.21 193.998
L145.656 194.252
L146.102 193.108
L146.549 191.08
L146.995 195.018
L147.442 197.794
L147.888 193.437
L148.334 197.262
L148.781 195.168
L149.227 192.322
L149.674 195.176
L150.12 190.721
L150.566 192.191
L151.013 193.113
L151.459 189.201
L151.906 193.734
L152.352 194.069
L152.798 187.181
L153.245 190.706
L153.691 190.693
L154.138 190.384
L154.584 190.613
L155.03 190.609
L155.477 184.039
L155.923 305.324
L156.37 190.7
L156.816 195.52
L157.262 192.53
L157.709 190.516
L158.155 181.361
L158.602 203.054
L159.048 192.407
L159.494 192.652
L159.941 196.561
L160.387 189.889
L160.834 191.731
L161.28 191.815
L161.726 190.5
L162.173 193.227
L162.619 191.044
L163.066 189.689
L163.512 186.748
L163.958 188.67
L164.405 194.318
L164.851 186.673
L165.298 191.08
L165.744 188.752
L166.19 193.459
L166.637 190.92
L167.083 194.755
L167.53 193.778
L167.976 191.926
L168.422 195.005
L168.869 188.95
L169.315 190.812
L169.762 192.126
L170.208 191.34
L170.654 193.255
L171.547 192.67
L171.994 189.3
L172.44 189.372
L172.886 190.685
L173.333 190.497
L173.779 189.912
L174.226 190.999
L175.565 195.182
L176.011 192.91
L176.458 192.65
L176.904 207.052
L177.35 193.348
L177.797 193.593
L178.243 193.583
L178.69 192.667
L179.136 193.803
L179.582 189.687
L180.029 195.084
L180.475 193.715
L180.922 192.853
L181.368 194.295
L181.814 190.848
L182.261 191.506
L182.707 195.102
L183.154 193.915
L183.6 193.613
L184.046 192.871
L184.493 193.332
L184.939 190.816
L185.386 189.647
L185.832 193.001
L186.725 190.292
L187.171 189.781
L187.618 194.756
L188.064 193.784
L188.51 184.758
L188.957 192.463
L189.403 188.605
L189.85 195.975
L190.296 188.871
L190.742 195.429
L191.189 194.728
L192.082 190.055
L192.528 190.254
L192.974 193.296
L193.421 192.956
L193.867 194.241
L194.314 191.461
L194.76 195.026
L195.206 191.163
L195.653 190.726
L196.099 192.425
L196.546 190.593
L196.992 192.692
L197.438 189.044
L197.885 187.27
L198.331 182.688
L198.778 186.683
L199.224 186.036
L199.67 186.746
L200.117 185.708
L200.563 192.509
L201.01 185.577
L201.456 189.439
L201.902 190.871
L202.349 188.271
L202.795 188.068
L203.242 189.484
L203.688 188.395
L204.134 192.309
L204.581 190.582
L205.027 191.021
L205.474 189.247
L205.92 192.258
L206.366 184.996
L206.813 191.438
L207.706 187.628
L208.152 190.111
L208.598 187.812
L209.045 188.052
L209.491 190.349
L209.938 189.667
L210.384 191.968
L210.83 185.278
L211.277 189.665
L211.723 167.778
L212.17 190.99
L212.616 190.483
L213.062 192.645
L213.509 193.204
L213.955 190.518
L214.402 184.594
L214.848 191.211
L215.294 193.663
L215.741 189.671
L216.187 190.6
L216.634 184.17
L217.08 190.586
L217.526 187.821
L217.973 188.737
L218.419 192.472
L218.866 192.137
L219.312 189.74
L219.758 182.988
L220.205 190.739
L220.651 192.042
L221.098 189.661
L221.544 189.749
L221.99 185.931
L222.437 166.636
L222.883 188.523
L223.33 192.834
L223.776 189.974
L224.222 194.048
L224.669 185.599
L225.115 191.011
L225.562 190.458
L226.008 189.506
L226.454 192.683
L226.901 190.587
L227.347 190.134
L227.794 185.746
L228.24 211.204
L228.686 184.023
L229.133 185.912
L229.579 190.063
L230.026 186.416
L230.472 186.664
L230.918 188.031
L231.365 189.793
L231.811 186.617
L232.258 193.091
L233.15 184.932
L233.597 189.15
L234.043 186.612
L234.936 191.759
L235.382 188.061
L235.829 165.993
L236.275 184.14
L236.722 188.526
L237.168 190.872
L237.614 189.138
L238.061 186.907
L238.507 186.224
L238.954 191.236
L239.4 190.128
L240.293 189.138
L240.739 191.476
L241.186 185.514
L241.632 190.024
L242.078 187.943
L242.525 189.28
L242.971 189.336
L243.418 185.572
L243.864 188.383
L244.31 187.83
L244.757 189.658
L245.203 185.512
L245.65 191.509
L246.542 183.903
L246.989 190.94
L247.435 187.946
L247.882 188.337
L248.328 192.37
L249.221 185.401
L249.667 188.879
L250.114 190.362
L250.56 186.391
L251.006 189.742
L251.453 187.993
L251.899 187.316
L252.346 184.112
L252.792 191.196
L253.238 190.354
L253.685 186.639
L254.131 190.008
L254.578 184.663
L255.024 188.246
L255.47 190.664
L255.917 187.219
L256.363 189.228
L256.81 183.782
L257.256 153.041
L257.702 184.338
L258.149 182.484
L258.595 187.651
L259.042 184.921
L259.488 186.42
L259.934 186.895
L260.827 182.666
L261.274 184.812
L261.72 200.62
L262.166 179.325
L262.613 185.08
L263.059 181.141
L263.506 183.585
L263.952 184.759
L264.398 181.628
L264.845 182.516
L265.291 180.887
L265.738 184.151
L266.63 183.967
L267.077 178.25
L267.523 179.886
L267.97 183.925
L268.416 182.32
L268.862 184.582
L269.309 185.638
L269.755 182.879
L270.202 182.638
L270.648 159.066
L271.094 176.175
L271.541 184.878
L271.987 184.485
L272.434 184.296
L272.88 181.244
L273.326 183.498
L273.773 184.321
L274.219 183.872
L274.666 182.895
L275.112 181.473
L275.558 183.982
L276.005 180.983
L276.898 184.581
L277.344 183.566
L277.79 183.258
L278.237 184.611
L278.683 169.366
L279.13 194.573
L279.576 182.328
L280.022 183.367
L280.469 184.767
L281.362 182.785
L281.808 183.454
L282.254 183.487
L282.701 184.758
L283.147 180.817
L283.594 181.682
L284.04 160.956
L284.486 178.459
L284.933 184.636
L285.379 184.104
L285.826 182.286
L286.272 182.834
L286.718 182.778
L287.165 181.531
L287.611 182.125
L288.058 183.317
L288.504 182.766
L288.95 182.853
L289.397 175.255
L289.843 184.812
L290.29 184.246
L290.736 180.592
L291.182 183.84
L291.629 184.847
L292.522 183.797
L292.968 182.851
L293.414 180.774
L293.861 180.668
L294.307 185.412
L294.754 178.186
L295.2 182.767
L295.646 183.72
L296.093 183.579
L296.539 187.07
L296.986 182.495
L297.432 165.893
L297.878 181.991
L298.325 184.218
L298.771 188.204
L299.218 183.382
L299.664 182.883
L300.11 173.705
L300.557 180.921
L301.003 177.488
L301.896 178.715
L302.342 177.107
L302.789 153.866
L303.235 177.262
L303.682 179.759
L304.128 179.055
L304.574 180.033
L305.021 179.508
L305.467 281.048
L305.914 178.981
L306.36 180.27
L306.806 180.742
L307.253 179.07
L307.699 173.501
L308.146 178.689
L308.592 178.324
L309.038 178.709
L309.485 180.271
L309.931 176.848
L310.378 174.371
L310.824 175.66
L311.27 176.538
L311.717 176.109
L312.163 175.306
L312.61 174.737
L313.056 285.038
L313.502 177.583
L313.949 181.658
L314.395 177.442
L314.842 179.818
L315.288 177.92
L315.734 180.923
L316.181 175.628
L316.627 173.478
L317.074 175.144
L317.52 174.275
L317.966 284.576
L318.413 179.951
L318.859 179.833
L319.752 180.636
L320.198 176.635
L320.645 178.387
L321.091 174.858
L321.538 174.552
L321.984 175.896
L322.43 176.512
L322.877 284.527
L323.323 178.455
L323.77 181.557
L324.662 178.375
L325.109 175.023
L325.555 180.512
L326.002 174.617
L326.448 172.821
L326.894 178.295
L327.341 168.243
L327.787 282.986
L328.234 174.443
L328.68 177.071
L329.126 173.762
L329.573 179.792
L330.019 138.993
L330.466 174.412
L331.358 179.485
L331.805 174.314
L332.251 177.843
L332.698 278.232
L333.144 174.964
L333.59 185.451
L334.037 176.346
L334.483 178.826
L334.93 176.726
L335.376 178.857
L335.822 180.062
L336.715 174.571
L337.162 178.427
L337.608 132.865
L338.054 175.467
L338.501 179.618
L338.947 175.264
L339.394 177.755
L339.84 177.765
L340.286 283.339
L340.733 175.755
L341.179 175.664
L341.626 176.571
L342.072 176.076
L342.518 179.337
L342.965 180.802
L343.411 178.247
L343.858 176.868
L344.304 194.691
L344.75 177.001
L345.197 171.87
L345.643 176.153
L346.09 176.64
L346.536 178.752
L346.982 175.614
L347.429 177.544
L347.875 174.452
L348.322 177.901
L348.768 177.725
L349.214 175.058
L349.661 176.597
L350.107 168.143
L350.554 283.308
L351 174.643
L351.446 171.5
L351.893 173.388
L352.339 173.422
L352.786 167.941
L353.232 170.678
L353.678 174.113
L354.125 165.961
L354.571 173.342
L355.018 164.565
L355.464 275.623
L355.91 174.705
L356.357 173.301
L356.803 171.117
L357.25 170.904
L357.696 285.131
L358.142 171.766
L358.589 174.136
L359.035 172.297
L359.482 174.091
L359.928 152.298
L360.374 170.09
L360.821 173.713
L361.267 173.32
L361.714 173.55
L362.16 171.836
L362.606 285.492
L363.053 170.311
L363.946 175.206
L364.392 174.198
L364.838 284.159
L365.285 171.986
L365.731 174.737
L366.178 172.929
L366.624 174.81
L367.07 169.426
L367.517 172.39
L367.963 170.459
L368.41 172.537
L368.856 170.839
L369.302 167.844
L369.749 277.653
L370.195 171.674
L370.642 170.393
L371.088 170.954
L371.534 172.649
L371.981 274.774
L372.427 174.3
L372.874 174.049
L373.766 171.101
L374.213 132.701
L374.659 169.996
L375.106 172.623
L375.552 172.621
L375.998 169.995
L376.445 20.1425
L376.891 278.018
L377.338 170.201
L377.784 171.879
L378.23 172.322
L379.123 166.001
L379.57 171.983
L380.016 167.741
L380.462 169.492
L380.909 167.928
L381.355 51.9407
L381.802 240.166
L382.248 167.907
L382.694 170.645
L383.141 171.714
L383.587 175.15
L384.034 283.123
L384.48 172.53
L384.926 174.022
L385.373 173.246
L385.819 174.612
L386.266 165.196
L386.712 173.572
L387.158 158.857
L388.051 160.49
L388.498 159.882
L388.944 160.063
L389.39 161.152
L389.837 160.722
L390.283 162.569
L390.73 157.794
L391.176 160.599
L391.622 159.578
L392.069 155.952
L392.515 161.641
L392.962 160.32
L393.408 159.381
L393.854 161.444
L394.301 161.255
L394.747 158.265
L395.194 157.879
L396.086 160.844
L396.533 162.359
L396.979 157.193
L397.426 157.189
L397.872 155.475
L398.765 159.06
L399.211 158.604
L399.658 155.279
L400.104 160.325
L400.55 160.459
L400.997 159.264
L401.443 160.958
L401.89 159.27
L402.336 159.591
L402.782 159.66
L403.229 155.973
L403.675 160.178
L404.122 159.822
L404.568 159.704
L405.461 161.46
L406.354 154.498
L406.8 163.795
L407.246 160.218
L407.693 162.445
L408.139 158.288
L408.586 150.049
L409.032 165.864
L409.478 155.677
L409.925 160.344
L410.371 161.831
L410.818 147.286
L411.264 164.228
L412.157 152.581
L412.603 155.936
L413.05 158.134
L413.496 158.417
L413.942 158.421
L414.389 162.66
L414.835 160.339
L415.282 159.854
L415.728 159.046
L416.174 160.956
L416.621 161.207
L417.067 158.83
L417.514 162.944
L417.96 156.096
L418.406 160.731
L418.853 161.939
L419.299 160.69
L419.746 156.686
L420.192 159.097
L420.638 159.88
L421.085 159.867
L421.531 157.018
L421.978 156.347
L422.424 157.129
L422.87 158.79
L423.317 156.694
L423.763 156.265
L424.21 156.922
L424.656 158.387
L425.549 163.195
L425.995 158.211
L426.888 158.604
L427.334 160.146
L427.781 161.231
L428.227 159.476
L428.674 155.414
L429.12 159.958
L430.013 156.733
L430.459 157.569
L430.906 157.087
L431.352 157.755
L431.798 157.545
L432.245 160.933
L432.691 158.488
L433.138 159.012
L433.584 157.843
L434.03 161.12
L434.477 158.694
L434.923 156.978
L435.37 160.559
L435.816 159.849
L436.262 160.805
L436.709 160.949
L437.155 151.455
L437.602 157.901
L438.048 159.034
L438.494 159.855
L438.941 157.664
L439.834 159.468
L440.28 159.523
L440.726 160.773
L441.173 158.549
L441.619 160.37
L442.066 159.954
L442.512 160.121
L442.958 159.67
L443.405 161.204
L443.851 158.908
L444.298 158.551
L444.744 156.919
L445.19 158.25
L445.637 157.486
L446.083 161.078
L446.53 156.211
L446.976 156.077
L447.422 164.064
L447.869 160.221
L448.315 159.265
L448.762 161.859
L449.208 158.264
L449.654 156.319
L450.101 150.508
L450.547 146.276
L450.994 146.381
L451.44 150.578
L451.886 149.41
L452.333 151.222
L453.226 144.092
L453.672 148.502
L454.118 150.602
L454.565 147.624
L455.011 151.026
L455.458 125.611
L455.904 149.599
L456.35 151.338
L456.797 151.688
L457.243 152.388
L457.69 151.348
L458.136 151.18
L458.582 149.737
L459.029 146.991
L459.475 145.307
L459.922 145.883
L460.368 149.503
L460.814 149.304
L461.261 147.634
L461.707 150.62
L462.154 143.444
L462.6 148.599
L463.046 143.736
L463.493 152.089
L463.939 145.764
L464.386 127.861
L464.832 149.192
L465.278 152.91
L465.725 161.263
L466.171 151.654
L466.618 146.51
L467.064 150.98
L467.51 148.905
L467.957 149.429
L468.403 145.865
L468.85 149.304
L469.296 144.821
L469.742 148.228
L470.189 150.043
L470.635 142.686
L471.082 146.595
L471.528 147.747
L471.974 146.498
L472.421 148.893
L472.867 149.979
L473.314 123.161
L473.76 146.359
L474.206 149.181
L474.653 150.333
L475.099 150.485
L475.546 146.143
L475.992 149.489
L476.885 145.726
L477.331 151.019
L477.778 143.433
L478.224 149.514
L478.67 147.865
L479.117 150.861
L479.563 148.277
L480.01 147.416
L480.456 149.425
L480.902 147.264
L481.349 145.754
L481.795 141.228
L482.242 198.91
L482.688 216.682
L483.581 225.268
L484.027 224.713
L484.474 225.26
L484.92 223.824
L485.366 223.054
L485.813 227.914
L486.259 226.661
L486.706 226.732
L487.152 228.87
L487.598 226.994
L488.045 228.323
L488.491 225.124
L488.938 226.777
L489.83 225.23
L490.277 222.122
L490.723 224.84
L491.17 226.497
L491.616 222.383
L492.062 224.114
L492.509 226.874
L492.955 223.89
L493.402 223.32
L493.848 226.708
L494.294 224.538
L494.741 225.898
L495.187 224.402
L495.634 224.843
L496.08 224.974
L496.526 223.102
L496.973 225.962
L497.419 225.708
L497.866 226.929
L498.312 224.353
L498.758 224.483
L499.205 224.826
L499.651 226.167
L500.098 222.884
L500.544 227.401
L500.99 223.818
L501.437 225.059
L501.883 225.088
L502.33 224.726
L502.776 225.995
L503.222 223.132
L503.669 225.96
L504.115 223.1
L504.562 223.777
L505.008 223.272
L505.454 224.682
L505.901 229.233
L506.347 226.348
L506.794 228.391
L507.24 225.559
L507.686 228.839
L508.133 227.668
L509.026 223.113
L509.472 225.635
L509.918 225.112
L510.365 222.133
L510.811 224.01
L511.258 224.291
L511.704 223.8
L512.15 221.803
L512.597 224.009
L513.043 224.718
L513.49 226.191
L513.936 224.18
L514.382 225.17
L514.829 228.779
L515.275 223.804
L515.722 227.928
L516.168 228.492
L516.614 211.149
L517.061 302.941
L517.507 225.828
L517.954 230.334
L517.954 230.334" style="fill:none;opacity:0.5;stroke:#0000ff;"/>
   </g>
   <g id="matplotlib.axis_1">
    <g id="xtick_1">
     <g id="line2d_4">
      <path clip-path="url(#p7ff5b81e1d)" d="
M72 388.8
L72 43.2" style="fill:none;stroke:#000000;stroke-dasharray:1.000000,3.000000;stroke-dashoffset:0.0;stroke-linecap:butt;stroke-width:0.5;"/>
     </g>
     <g id="line2d_5">
      <defs>
       <path d="
M0 0
L0 -4" id="m0012dd4eef" style="stroke:#000000;stroke-linecap:butt;stroke-width:0.5;"/>
      </defs>
      <g>
       <use style="stroke:#000000;stroke-linecap:butt;stroke-width:0.5;" x="72.0" xlink:href="#m0012dd4eef" y="388.8"/>
      </g>
     </g>
     <g id="line2d_6">
      <defs>
       <path d="
M0 0
L0 4" id="m476344969c" style="stroke:#000000;stroke-linecap:butt;stroke-width:0.5;"/>
      </defs>
      <g>
       <use style="stroke:#000000;stroke-linecap:butt;stroke-width:0.5;" x="72.0" xlink:href="#m476344969c" y="43.2"/>
      </g>
     </g>
     <g id="text_1">
      <!-- 0 -->
      <defs>
       <path d="
M31.7812 66.4062
Q24.1719 66.4062 20.3281 58.9062
Q16.5 51.4219 16.5 36.375
Q16.5 21.3906 20.3281 13.8906
Q24.1719 6.39062 31.7812 6.39062
Q39.4531 6.39062 43.2812 13.8906
Q47.125 21.3906 47.125 36.375
Q47.125 51.4219 43.2812 58.9062
Q39.4531 66.4062 31.7812 66.4062
M31.7812 74.2188
Q44.0469 74.2188 50.5156 64.5156
Q56.9844 54.8281 56.9844 36.375
Q56.9844 17.9688 50.5156 8.26562
Q44.0469 -1.42188 31.7812 -1.42188
Q19.5312 -1.42188 13.0625 8.26562
Q6.59375 17.9688 6.59375 36.375
Q6.59375 54.8281 13.0625 64.5156
Q19.5312 74.2188 31.7812 74.2188" id="BitstreamVeraSans-Roman-30"/>
      </defs>
      <g transform="translate(68.9765625 401.70625)scale(0.12 -0.12)">
       <use xlink:href="#BitstreamVeraSans-Roman-30"/>
      </g>
     </g>
    </g>
    <g id="xtick_2">
     <g id="line2d_7">
      <path clip-path="url(#p7ff5b81e1d)" d="
M116.64 388.8
L116.64 43.2" style="fill:none;stroke:#000000;stroke-dasharray:1.000000,3.000000;stroke-dashoffset:0.0;stroke-linecap:butt;stroke-width:0.5;"/>
     </g>
     <g id="line2d_8">
      <g>
       <use style="stroke:#000000;stroke-linecap:butt;stroke-width:0.5;" x="116.64" xlink:href="#m0012dd4eef" y="388.8"/>
      </g>
     </g>
     <g id="line2d_9">
      <g>
       <use style="stroke:#000000;stroke-linecap:butt;stroke-width:0.5;" x="116.64" xlink:href="#m476344969c" y="43.2"/>
      </g>
     </g>
     <g id="text_2">
      <!-- 100 -->
      <defs>
       <path d="
M12.4062 8.29688
L28.5156 8.29688
L28.5156 63.9219
L10.9844 60.4062
L10.9844 69.3906
L28.4219 72.9062
L38.2812 72.9062
L38.2812 8.29688
L54.3906 8.29688
L54.3906 0
L12.4062 0
z
" id="BitstreamVeraSans-Roman-31"/>
      </defs>
      <g transform="translate(106.245 401.70625)scale(0.12 -0.12)">
       <use xlink:href="#BitstreamVeraSans-Roman-31"/>
       <use x="63.623046875" xlink:href="#BitstreamVeraSans-Roman-30"/>
       <use x="127.24609375" xlink:href="#BitstreamVeraSans-Roman-30"/>
      </g>
     </g>
    </g>
    <g id="xtick_3">
     <g id="line2d_10">
      <path clip-path="url(#p7ff5b81e1d)" d="
M161.28 388.8
L161.28 43.2" style="fill:none;stroke:#000000;stroke-dasharray:1.000000,3.000000;stroke-dashoffset:0.0;stroke-linecap:butt;stroke-width:0.5;"/>
     </g>
     <g id="line2d_11">
      <g>
       <use style="stroke:#000000;stroke-linecap:butt;stroke-width:0.5;" x="161.28" xlink:href="#m0012dd4eef" y="388.8"/>
      </g>
     </g>
     <g id="line2d_12">
      <g>
       <use style="stroke:#000000;stroke-linecap:butt;stroke-width:0.5;" x="161.28" xlink:href="#m476344969c" y="43.2"/>
      </g>
     </g>
     <g id="text_3">
      <!-- 200 -->
      <defs>
       <path d="
M19.1875 8.29688
L53.6094 8.29688
L53.6094 0
L7.32812 0
L7.32812 8.29688
Q12.9375 14.1094 22.625 23.8906
Q32.3281 33.6875 34.8125 36.5312
Q39.5469 41.8438 41.4219 45.5312
Q43.3125 49.2188 43.3125 52.7812
Q43.3125 58.5938 39.2344 62.25
Q35.1562 65.9219 28.6094 65.9219
Q23.9688 65.9219 18.8125 64.3125
Q13.6719 62.7031 7.8125 59.4219
L7.8125 69.3906
Q13.7656 71.7812 18.9375 73
Q24.125 74.2188 28.4219 74.2188
Q39.75 74.2188 46.4844 68.5469
Q53.2188 62.8906 53.2188 53.4219
Q53.2188 48.9219 51.5312 44.8906
Q49.8594 40.875 45.4062 35.4062
Q44.1875 33.9844 37.6406 27.2188
Q31.1094 20.4531 19.1875 8.29688" id="BitstreamVeraSans-Roman-32"/>
      </defs>
      <g transform="translate(150.665625 401.70625)scale(0.12 -0.12)">
       <use xlink:href="#BitstreamVeraSans-Roman-32"/>
       <use x="63.623046875" xlink:href="#BitstreamVeraSans-Roman-30"/>
       <use x="127.24609375" xlink:href="#BitstreamVeraSans-Roman-30"/>
      </g>
     </g>
    </g>
    <g id="xtick_4">
     <g id="line2d_13">
      <path clip-path="url(#p7ff5b81e1d)" d="
M205.92 388.8
L205.92 43.2" style="fill:none;stroke:#000000;stroke-dasharray:1.000000,3.000000;stroke-dashoffset:0.0;stroke-linecap:butt;stroke-width:0.5;"/>
     </g>
     <g id="line2d_14">
      <g>
       <use style="stroke:#000000;stroke-linecap:butt;stroke-width:0.5;" x="205.92" xlink:href="#m0012dd4eef" y="388.8"/>
      </g>
     </g>
     <g id="line2d_15">
      <g>
       <use style="stroke:#000000;stroke-linecap:butt;stroke-width:0.5;" x="205.92" xlink:href="#m476344969c" y="43.2"/>
      </g>
     </g>
     <g id="text_4">
      <!-- 300 -->
      <defs>
       <path d="
M40.5781 39.3125
Q47.6562 37.7969 51.625 33
Q55.6094 28.2188 55.6094 21.1875
Q55.6094 10.4062 48.1875 4.48438
Q40.7656 -1.42188 27.0938 -1.42188
Q22.5156 -1.42188 17.6562 -0.515625
Q12.7969 0.390625 7.625 2.20312
L7.625 11.7188
Q11.7188 9.32812 16.5938 8.10938
Q21.4844 6.89062 26.8125 6.89062
Q36.0781 6.89062 40.9375 10.5469
Q45.7969 14.2031 45.7969 21.1875
Q45.7969 27.6406 41.2812 31.2656
Q36.7656 34.9062 28.7188 34.9062
L20.2188 34.9062
L20.2188 43.0156
L29.1094 43.0156
Q36.375 43.0156 40.2344 45.9219
Q44.0938 48.8281 44.0938 54.2969
Q44.0938 59.9062 40.1094 62.9062
Q36.1406 65.9219 28.7188 65.9219
Q24.6562 65.9219 20.0156 65.0312
Q15.375 64.1562 9.8125 62.3125
L9.8125 71.0938
Q15.4375 72.6562 20.3438 73.4375
Q25.25 74.2188 29.5938 74.2188
Q40.8281 74.2188 47.3594 69.1094
Q53.9062 64.0156 53.9062 55.3281
Q53.9062 49.2656 50.4375 45.0938
Q46.9688 40.9219 40.5781 39.3125" id="BitstreamVeraSans-Roman-33"/>
      </defs>
      <g transform="translate(195.3234375 401.70625)scale(0.12 -0.12)">
       <use xlink:href="#BitstreamVeraSans-Roman-33"/>
       <use x="63.623046875" xlink:href="#BitstreamVeraSans-Roman-30"/>
       <use x="127.24609375" xlink:href="#BitstreamVeraSans-Roman-30"/>
      </g>
     </g>
    </g>
    <g id="xtick_5">
     <g id="line2d_16">
      <path clip-path="url(#p7ff5b81e1d)" d="
M250.56 388.8
L250.56 43.2" style="fill:none;stroke:#000000;stroke-dasharray:1.000000,3.000000;stroke-dashoffset:0.0;stroke-linecap:butt;stroke-width:0.5;"/>
     </g>
     <g id="line2d_17">
      <g>
       <use style="stroke:#000000;stroke-linecap:butt;stroke-width:0.5;" x="250.56" xlink:href="#m0012dd4eef" y="388.8"/>
      </g>
     </g>
     <g id="line2d_18">
      <g>
       <use style="stroke:#000000;stroke-linecap:butt;stroke-width:0.5;" x="250.56" xlink:href="#m476344969c" y="43.2"/>
      </g>
     </g>
     <g id="text_5">
      <!-- 400 -->
      <defs>
       <path d="
M37.7969 64.3125
L12.8906 25.3906
L37.7969 25.3906
z

M35.2031 72.9062
L47.6094 72.9062
L47.6094 25.3906
L58.0156 25.3906
L58.0156 17.1875
L47.6094 17.1875
L47.6094 0
L37.7969 0
L37.7969 17.1875
L4.89062 17.1875
L4.89062 26.7031
z
" id="BitstreamVeraSans-Roman-34"/>
      </defs>
      <g transform="translate(239.799375 401.70625)scale(0.12 -0.12)">
       <use xlink:href="#BitstreamVeraSans-Roman-34"/>
       <use x="63.623046875" xlink:href="#BitstreamVeraSans-Roman-30"/>
       <use x="127.24609375" xlink:href="#BitstreamVeraSans-Roman-30"/>
      </g>
     </g>
    </g>
    <g id="xtick_6">
     <g id="line2d_19">
      <path clip-path="url(#p7ff5b81e1d)" d="
M295.2 388.8
L295.2 43.2" style="fill:none;stroke:#000000;stroke-dasharray:1.000000,3.000000;stroke-dashoffset:0.0;stroke-linecap:butt;stroke-width:0.5;"/>
     </g>
     <g id="line2d_20">
      <g>
       <use style="stroke:#000000;stroke-linecap:butt;stroke-width:0.5;" x="295.2" xlink:href="#m0012dd4eef" y="388.8"/>
      </g>
     </g>
     <g id="line2d_21">
      <g>
       <use style="stroke:#000000;stroke-linecap:butt;stroke-width:0.5;" x="295.2" xlink:href="#m476344969c" y="43.2"/>
      </g>
     </g>
     <g id="text_6">
      <!-- 500 -->
      <defs>
       <path d="
M10.7969 72.9062
L49.5156 72.9062
L49.5156 64.5938
L19.8281 64.5938
L19.8281 46.7344
Q21.9688 47.4688 24.1094 47.8281
Q26.2656 48.1875 28.4219 48.1875
Q40.625 48.1875 47.75 41.5
Q54.8906 34.8125 54.8906 23.3906
Q54.8906 11.625 47.5625 5.09375
Q40.2344 -1.42188 26.9062 -1.42188
Q22.3125 -1.42188 17.5469 -0.640625
Q12.7969 0.140625 7.71875 1.70312
L7.71875 11.625
Q12.1094 9.23438 16.7969 8.0625
Q21.4844 6.89062 26.7031 6.89062
Q35.1562 6.89062 40.0781 11.3281
Q45.0156 15.7656 45.0156 23.3906
Q45.0156 31 40.0781 35.4375
Q35.1562 39.8906 26.7031 39.8906
Q22.75 39.8906 18.8125 39.0156
Q14.8906 38.1406 10.7969 36.2812
z
" id="BitstreamVeraSans-Roman-35"/>
      </defs>
      <g transform="translate(284.6090625 401.70625)scale(0.12 -0.12)">
       <use xlink:href="#BitstreamVeraSans-Roman-35"/>
       <use x="63.623046875" xlink:href="#BitstreamVeraSans-Roman-30"/>
       <use x="127.24609375" xlink:href="#BitstreamVeraSans-Roman-30"/>
      </g>
     </g>
    </g>
    <g id="xtick_7">
     <g id="line2d_22">
      <path clip-path="url(#p7ff5b81e1d)" d="
M339.84 388.8
L339.84 43.2" style="fill:none;stroke:#000000;stroke-dasharray:1.000000,3.000000;stroke-dashoffset:0.0;stroke-linecap:butt;stroke-width:0.5;"/>
     </g>
     <g id="line2d_23">
      <g>
       <use style="stroke:#000000;stroke-linecap:butt;stroke-width:0.5;" x="339.84" xlink:href="#m0012dd4eef" y="388.8"/>
      </g>
     </g>
     <g id="line2d_24">
      <g>
       <use style="stroke:#000000;stroke-linecap:butt;stroke-width:0.5;" x="339.84" xlink:href="#m476344969c" y="43.2"/>
      </g>
     </g>
     <g id="text_7">
      <!-- 600 -->
      <defs>
       <path d="
M33.0156 40.375
Q26.375 40.375 22.4844 35.8281
Q18.6094 31.2969 18.6094 23.3906
Q18.6094 15.5312 22.4844 10.9531
Q26.375 6.39062 33.0156 6.39062
Q39.6562 6.39062 43.5312 10.9531
Q47.4062 15.5312 47.4062 23.3906
Q47.4062 31.2969 43.5312 35.8281
Q39.6562 40.375 33.0156 40.375
M52.5938 71.2969
L52.5938 62.3125
Q48.875 64.0625 45.0938 64.9844
Q41.3125 65.9219 37.5938 65.9219
Q27.8281 65.9219 22.6719 59.3281
Q17.5312 52.7344 16.7969 39.4062
Q19.6719 43.6562 24.0156 45.9219
Q28.375 48.1875 33.5938 48.1875
Q44.5781 48.1875 50.9531 41.5156
Q57.3281 34.8594 57.3281 23.3906
Q57.3281 12.1562 50.6875 5.35938
Q44.0469 -1.42188 33.0156 -1.42188
Q20.3594 -1.42188 13.6719 8.26562
Q6.98438 17.9688 6.98438 36.375
Q6.98438 53.6562 15.1875 63.9375
Q23.3906 74.2188 37.2031 74.2188
Q40.9219 74.2188 44.7031 73.4844
Q48.4844 72.75 52.5938 71.2969" id="BitstreamVeraSans-Roman-36"/>
      </defs>
      <g transform="translate(329.205 401.70625)scale(0.12 -0.12)">
       <use xlink:href="#BitstreamVeraSans-Roman-36"/>
       <use x="63.623046875" xlink:href="#BitstreamVeraSans-Roman-30"/>
       <use x="127.24609375" xlink:href="#BitstreamVeraSans-Roman-30"/>
      </g>
     </g>
    </g>
    <g id="xtick_8">
     <g id="line2d_25">
      <path clip-path="url(#p7ff5b81e1d)" d="
M384.48 388.8
L384.48 43.2" style="fill:none;stroke:#000000;stroke-dasharray:1.000000,3.000000;stroke-dashoffset:0.0;stroke-linecap:butt;stroke-width:0.5;"/>
     </g>
     <g id="line2d_26">
      <g>
       <use style="stroke:#000000;stroke-linecap:butt;stroke-width:0.5;" x="384.48" xlink:href="#m0012dd4eef" y="388.8"/>
      </g>
     </g>
     <g id="line2d_27">
      <g>
       <use style="stroke:#000000;stroke-linecap:butt;stroke-width:0.5;" x="384.48" xlink:href="#m476344969c" y="43.2"/>
      </g>
     </g>
     <g id="text_8">
      <!-- 700 -->
      <defs>
       <path d="
M8.20312 72.9062
L55.0781 72.9062
L55.0781 68.7031
L28.6094 0
L18.3125 0
L43.2188 64.5938
L8.20312 64.5938
z
" id="BitstreamVeraSans-Roman-37"/>
      </defs>
      <g transform="translate(373.918125 401.70625)scale(0.12 -0.12)">
       <use xlink:href="#BitstreamVeraSans-Roman-37"/>
       <use x="63.623046875" xlink:href="#BitstreamVeraSans-Roman-30"/>
       <use x="127.24609375" xlink:href="#BitstreamVeraSans-Roman-30"/>
      </g>
     </g>
    </g>
    <g id="xtick_9">
     <g id="line2d_28">
      <path clip-path="url(#p7ff5b81e1d)" d="
M429.12 388.8
L429.12 43.2" style="fill:none;stroke:#000000;stroke-dasharray:1.000000,3.000000;stroke-dashoffset:0.0;stroke-linecap:butt;stroke-width:0.5;"/>
     </g>
     <g id="line2d_29">
      <g>
       <use style="stroke:#000000;stroke-linecap:butt;stroke-width:0.5;" x="429.12" xlink:href="#m0012dd4eef" y="388.8"/>
      </g>
     </g>
     <g id="line2d_30">
      <g>
       <use style="stroke:#000000;stroke-linecap:butt;stroke-width:0.5;" x="429.12" xlink:href="#m476344969c" y="43.2"/>
      </g>
     </g>
     <g id="text_9">
      <!-- 800 -->
      <defs>
       <path d="
M31.7812 34.625
Q24.75 34.625 20.7188 30.8594
Q16.7031 27.0938 16.7031 20.5156
Q16.7031 13.9219 20.7188 10.1562
Q24.75 6.39062 31.7812 6.39062
Q38.8125 6.39062 42.8594 10.1719
Q46.9219 13.9688 46.9219 20.5156
Q46.9219 27.0938 42.8906 30.8594
Q38.875 34.625 31.7812 34.625
M21.9219 38.8125
Q15.5781 40.375 12.0312 44.7188
Q8.5 49.0781 8.5 55.3281
Q8.5 64.0625 14.7188 69.1406
Q20.9531 74.2188 31.7812 74.2188
Q42.6719 74.2188 48.875 69.1406
Q55.0781 64.0625 55.0781 55.3281
Q55.0781 49.0781 51.5312 44.7188
Q48 40.375 41.7031 38.8125
Q48.8281 37.1562 52.7969 32.3125
Q56.7812 27.4844 56.7812 20.5156
Q56.7812 9.90625 50.3125 4.23438
Q43.8438 -1.42188 31.7812 -1.42188
Q19.7344 -1.42188 13.25 4.23438
Q6.78125 9.90625 6.78125 20.5156
Q6.78125 27.4844 10.7812 32.3125
Q14.7969 37.1562 21.9219 38.8125
M18.3125 54.3906
Q18.3125 48.7344 21.8438 45.5625
Q25.3906 42.3906 31.7812 42.3906
Q38.1406 42.3906 41.7188 45.5625
Q45.3125 48.7344 45.3125 54.3906
Q45.3125 60.0625 41.7188 63.2344
Q38.1406 66.4062 31.7812 66.4062
Q25.3906 66.4062 21.8438 63.2344
Q18.3125 60.0625 18.3125 54.3906" id="BitstreamVeraSans-Roman-38"/>
      </defs>
      <g transform="translate(418.4728125 401.70625)scale(0.12 -0.12)">
       <use xlink:href="#BitstreamVeraSans-Roman-38"/>
       <use x="63.623046875" xlink:href="#BitstreamVeraSans-Roman-30"/>
       <use x="127.24609375" xlink:href="#BitstreamVeraSans-Roman-30"/>
      </g>
     </g>
    </g>
    <g id="xtick_10">
     <g id="line2d_31">
      <path clip-path="url(#p7ff5b81e1d)" d="
M473.76 388.8
L473.76 43.2" style="fill:none;stroke:#000000;stroke-dasharray:1.000000,3.000000;stroke-dashoffset:0.0;stroke-linecap:butt;stroke-width:0.5;"/>
     </g>
     <g id="line2d_32">
      <g>
       <use style="stroke:#000000;stroke-linecap:butt;stroke-width:0.5;" x="473.76" xlink:href="#m0012dd4eef" y="388.8"/>
      </g>
     </g>
     <g id="line2d_33">
      <g>
       <use style="stroke:#000000;stroke-linecap:butt;stroke-width:0.5;" x="473.76" xlink:href="#m476344969c" y="43.2"/>
      </g>
     </g>
     <g id="text_10">
      <!-- 900 -->
      <defs>
       <path d="
M10.9844 1.51562
L10.9844 10.5
Q14.7031 8.73438 18.5 7.8125
Q22.3125 6.89062 25.9844 6.89062
Q35.75 6.89062 40.8906 13.4531
Q46.0469 20.0156 46.7812 33.4062
Q43.9531 29.2031 39.5938 26.9531
Q35.25 24.7031 29.9844 24.7031
Q19.0469 24.7031 12.6719 31.3125
Q6.29688 37.9375 6.29688 49.4219
Q6.29688 60.6406 12.9375 67.4219
Q19.5781 74.2188 30.6094 74.2188
Q43.2656 74.2188 49.9219 64.5156
Q56.5938 54.8281 56.5938 36.375
Q56.5938 19.1406 48.4062 8.85938
Q40.2344 -1.42188 26.4219 -1.42188
Q22.7031 -1.42188 18.8906 -0.6875
Q15.0938 0.046875 10.9844 1.51562
M30.6094 32.4219
Q37.25 32.4219 41.125 36.9531
Q45.0156 41.5 45.0156 49.4219
Q45.0156 57.2812 41.125 61.8438
Q37.25 66.4062 30.6094 66.4062
Q23.9688 66.4062 20.0938 61.8438
Q16.2188 57.2812 16.2188 49.4219
Q16.2188 41.5 20.0938 36.9531
Q23.9688 32.4219 30.6094 32.4219" id="BitstreamVeraSans-Roman-39"/>
      </defs>
      <g transform="translate(463.08375 401.70625)scale(0.12 -0.12)">
       <use xlink:href="#BitstreamVeraSans-Roman-39"/>
       <use x="63.623046875" xlink:href="#BitstreamVeraSans-Roman-30"/>
       <use x="127.24609375" xlink:href="#BitstreamVeraSans-Roman-30"/>
      </g>
     </g>
    </g>
   </g>
   <g id="matplotlib.axis_2">
    <g id="ytick_1">
     <g id="line2d_34">
      <path clip-path="url(#p7ff5b81e1d)" d="
M72 388.8
L518.4 388.8" style="fill:none;stroke:#000000;stroke-dasharray:1.000000,3.000000;stroke-dashoffset:0.0;stroke-linecap:butt;stroke-width:0.5;"/>
     </g>
     <g id="line2d_35">
      <defs>
       <path d="
M0 0
L4 0" id="me8a85f7bf6" style="stroke:#000000;stroke-linecap:butt;stroke-width:0.5;"/>
      </defs>
      <g>
       <use style="stroke:#000000;stroke-linecap:butt;stroke-width:0.5;" x="72.0" xlink:href="#me8a85f7bf6" y="388.8"/>
      </g>
     </g>
     <g id="line2d_36">
      <defs>
       <path d="
M0 0
L-4 0" id="m1a32005dea" style="stroke:#000000;stroke-linecap:butt;stroke-width:0.5;"/>
      </defs>
      <g>
       <use style="stroke:#000000;stroke-linecap:butt;stroke-width:0.5;" x="518.4" xlink:href="#m1a32005dea" y="388.8"/>
      </g>
     </g>
     <g id="text_11">
      <!-- 0.00 -->
      <defs>
       <path d="
M10.6875 12.4062
L21 12.4062
L21 0
L10.6875 0
z
" id="BitstreamVeraSans-Roman-2e"/>
      </defs>
      <g transform="translate(42.869375 393.1678125)scale(0.12 -0.12)">
       <use xlink:href="#BitstreamVeraSans-Roman-30"/>
       <use x="63.623046875" xlink:href="#BitstreamVeraSans-Roman-2e"/>
       <use x="95.41015625" xlink:href="#BitstreamVeraSans-Roman-30"/>
       <use x="159.033203125" xlink:href="#BitstreamVeraSans-Roman-30"/>
      </g>
     </g>
    </g>
    <g id="ytick_2">
     <g id="line2d_37">
      <path clip-path="url(#p7ff5b81e1d)" d="
M72 354.24
L518.4 354.24" style="fill:none;stroke:#000000;stroke-dasharray:1.000000,3.000000;stroke-dashoffset:0.0;stroke-linecap:butt;stroke-width:0.5;"/>
     </g>
     <g id="line2d_38">
      <g>
       <use style="stroke:#000000;stroke-linecap:butt;stroke-width:0.5;" x="72.0" xlink:href="#me8a85f7bf6" y="354.24"/>
      </g>
     </g>
     <g id="line2d_39">
      <g>
       <use style="stroke:#000000;stroke-linecap:butt;stroke-width:0.5;" x="518.4" xlink:href="#m1a32005dea" y="354.24"/>
      </g>
     </g>
     <g id="text_12">
      <!-- 0.15 -->
      <g transform="translate(43.120625 358.6078125)scale(0.12 -0.12)">
       <use xlink:href="#BitstreamVeraSans-Roman-30"/>
       <use x="63.623046875" xlink:href="#BitstreamVeraSans-Roman-2e"/>
       <use x="95.41015625" xlink:href="#BitstreamVeraSans-Roman-31"/>
       <use x="159.033203125" xlink:href="#BitstreamVeraSans-Roman-35"/>
      </g>
     </g>
    </g>
    <g id="ytick_3">
     <g id="line2d_40">
      <path clip-path="url(#p7ff5b81e1d)" d="
M72 319.68
L518.4 319.68" style="fill:none;stroke:#000000;stroke-dasharray:1.000000,3.000000;stroke-dashoffset:0.0;stroke-linecap:butt;stroke-width:0.5;"/>
     </g>
     <g id="line2d_41">
      <g>
       <use style="stroke:#000000;stroke-linecap:butt;stroke-width:0.5;" x="72.0" xlink:href="#me8a85f7bf6" y="319.68"/>
      </g>
     </g>
     <g id="line2d_42">
      <g>
       <use style="stroke:#000000;stroke-linecap:butt;stroke-width:0.5;" x="518.4" xlink:href="#m1a32005dea" y="319.68"/>
      </g>
     </g>
     <g id="text_13">
      <!-- 0.30 -->
      <g transform="translate(42.869375 324.0478125)scale(0.12 -0.12)">
       <use xlink:href="#BitstreamVeraSans-Roman-30"/>
       <use x="63.623046875" xlink:href="#BitstreamVeraSans-Roman-2e"/>
       <use x="95.41015625" xlink:href="#BitstreamVeraSans-Roman-33"/>
       <use x="159.033203125" xlink:href="#BitstreamVeraSans-Roman-30"/>
      </g>
     </g>
    </g>
    <g id="ytick_4">
     <g id="line2d_43">
      <path clip-path="url(#p7ff5b81e1d)" d="
M72 285.12
L518.4 285.12" style="fill:none;stroke:#000000;stroke-dasharray:1.000000,3.000000;stroke-dashoffset:0.0;stroke-linecap:butt;stroke-width:0.5;"/>
     </g>
     <g id="line2d_44">
      <g>
       <use style="stroke:#000000;stroke-linecap:butt;stroke-width:0.5;" x="72.0" xlink:href="#me8a85f7bf6" y="285.12"/>
      </g>
     </g>
     <g id="line2d_45">
      <g>
       <use style="stroke:#000000;stroke-linecap:butt;stroke-width:0.5;" x="518.4" xlink:href="#m1a32005dea" y="285.12"/>
      </g>
     </g>
     <g id="text_14">
      <!-- 0.45 -->
      <g transform="translate(43.120625 289.4878125)scale(0.12 -0.12)">
       <use xlink:href="#BitstreamVeraSans-Roman-30"/>
       <use x="63.623046875" xlink:href="#BitstreamVeraSans-Roman-2e"/>
       <use x="95.41015625" xlink:href="#BitstreamVeraSans-Roman-34"/>
       <use x="159.033203125" xlink:href="#BitstreamVeraSans-Roman-35"/>
      </g>
     </g>
    </g>
    <g id="ytick_5">
     <g id="line2d_46">
      <path clip-path="url(#p7ff5b81e1d)" d="
M72 250.56
L518.4 250.56" style="fill:none;stroke:#000000;stroke-dasharray:1.000000,3.000000;stroke-dashoffset:0.0;stroke-linecap:butt;stroke-width:0.5;"/>
     </g>
     <g id="line2d_47">
      <g>
       <use style="stroke:#000000;stroke-linecap:butt;stroke-width:0.5;" x="72.0" xlink:href="#me8a85f7bf6" y="250.56"/>
      </g>
     </g>
     <g id="line2d_48">
      <g>
       <use style="stroke:#000000;stroke-linecap:butt;stroke-width:0.5;" x="518.4" xlink:href="#m1a32005dea" y="250.56"/>
      </g>
     </g>
     <g id="text_15">
      <!-- 0.60 -->
      <g transform="translate(42.869375 254.9278125)scale(0.12 -0.12)">
       <use xlink:href="#BitstreamVeraSans-Roman-30"/>
       <use x="63.623046875" xlink:href="#BitstreamVeraSans-Roman-2e"/>
       <use x="95.41015625" xlink:href="#BitstreamVeraSans-Roman-36"/>
       <use x="159.033203125" xlink:href="#BitstreamVeraSans-Roman-30"/>
      </g>
     </g>
    </g>
    <g id="ytick_6">
     <g id="line2d_49">
      <path clip-path="url(#p7ff5b81e1d)" d="
M72 216
L518.4 216" style="fill:none;stroke:#000000;stroke-dasharray:1.000000,3.000000;stroke-dashoffset:0.0;stroke-linecap:butt;stroke-width:0.5;"/>
     </g>
     <g id="line2d_50">
      <g>
       <use style="stroke:#000000;stroke-linecap:butt;stroke-width:0.5;" x="72.0" xlink:href="#me8a85f7bf6" y="216.0"/>
      </g>
     </g>
     <g id="line2d_51">
      <g>
       <use style="stroke:#000000;stroke-linecap:butt;stroke-width:0.5;" x="518.4" xlink:href="#m1a32005dea" y="216.0"/>
      </g>
     </g>
     <g id="text_16">
      <!-- 0.75 -->
      <g transform="translate(43.120625 220.3678125)scale(0.12 -0.12)">
       <use xlink:href="#BitstreamVeraSans-Roman-30"/>
       <use x="63.623046875" xlink:href="#BitstreamVeraSans-Roman-2e"/>
       <use x="95.41015625" xlink:href="#BitstreamVeraSans-Roman-37"/>
       <use x="159.033203125" xlink:href="#BitstreamVeraSans-Roman-35"/>
      </g>
     </g>
    </g>
    <g id="ytick_7">
     <g id="line2d_52">
      <path clip-path="url(#p7ff5b81e1d)" d="
M72 181.44
L518.4 181.44" style="fill:none;stroke:#000000;stroke-dasharray:1.000000,3.000000;stroke-dashoffset:0.0;stroke-linecap:butt;stroke-width:0.5;"/>
     </g>
     <g id="line2d_53">
      <g>
       <use style="stroke:#000000;stroke-linecap:butt;stroke-width:0.5;" x="72.0" xlink:href="#me8a85f7bf6" y="181.44"/>
      </g>
     </g>
     <g id="line2d_54">
      <g>
       <use style="stroke:#000000;stroke-linecap:butt;stroke-width:0.5;" x="518.4" xlink:href="#m1a32005dea" y="181.44"/>
      </g>
     </g>
     <g id="text_17">
      <!-- 0.90 -->
      <g transform="translate(42.869375 185.8078125)scale(0.12 -0.12)">
       <use xlink:href="#BitstreamVeraSans-Roman-30"/>
       <use x="63.623046875" xlink:href="#BitstreamVeraSans-Roman-2e"/>
       <use x="95.41015625" xlink:href="#BitstreamVeraSans-Roman-39"/>
       <use x="159.033203125" xlink:href="#BitstreamVeraSans-Roman-30"/>
      </g>
     </g>
    </g>
    <g id="ytick_8">
     <g id="line2d_55">
      <path clip-path="url(#p7ff5b81e1d)" d="
M72 146.88
L518.4 146.88" style="fill:none;stroke:#000000;stroke-dasharray:1.000000,3.000000;stroke-dashoffset:0.0;stroke-linecap:butt;stroke-width:0.5;"/>
     </g>
     <g id="line2d_56">
      <g>
       <use style="stroke:#000000;stroke-linecap:butt;stroke-width:0.5;" x="72.0" xlink:href="#me8a85f7bf6" y="146.88"/>
      </g>
     </g>
     <g id="line2d_57">
      <g>
       <use style="stroke:#000000;stroke-linecap:butt;stroke-width:0.5;" x="518.4" xlink:href="#m1a32005dea" y="146.88"/>
      </g>
     </g>
     <g id="text_18">
      <!-- 1.05 -->
      <g transform="translate(43.6475 151.2478125)scale(0.12 -0.12)">
       <use xlink:href="#BitstreamVeraSans-Roman-31"/>
       <use x="63.623046875" xlink:href="#BitstreamVeraSans-Roman-2e"/>
       <use x="95.41015625" xlink:href="#BitstreamVeraSans-Roman-30"/>
       <use x="159.033203125" xlink:href="#BitstreamVeraSans-Roman-35"/>
      </g>
     </g>
    </g>
    <g id="ytick_9">
     <g id="line2d_58">
      <path clip-path="url(#p7ff5b81e1d)" d="
M72 112.32
L518.4 112.32" style="fill:none;stroke:#000000;stroke-dasharray:1.000000,3.000000;stroke-dashoffset:0.0;stroke-linecap:butt;stroke-width:0.5;"/>
     </g>
     <g id="line2d_59">
      <g>
       <use style="stroke:#000000;stroke-linecap:butt;stroke-width:0.5;" x="72.0" xlink:href="#me8a85f7bf6" y="112.32"/>
      </g>
     </g>
     <g id="line2d_60">
      <g>
       <use style="stroke:#000000;stroke-linecap:butt;stroke-width:0.5;" x="518.4" xlink:href="#m1a32005dea" y="112.32"/>
      </g>
     </g>
     <g id="text_19">
      <!-- 1.20 -->
      <g transform="translate(43.39625 116.6878125)scale(0.12 -0.12)">
       <use xlink:href="#BitstreamVeraSans-Roman-31"/>
       <use x="63.623046875" xlink:href="#BitstreamVeraSans-Roman-2e"/>
       <use x="95.41015625" xlink:href="#BitstreamVeraSans-Roman-32"/>
       <use x="159.033203125" xlink:href="#BitstreamVeraSans-Roman-30"/>
      </g>
     </g>
    </g>
    <g id="ytick_10">
     <g id="line2d_61">
      <path clip-path="url(#p7ff5b81e1d)" d="
M72 77.76
L518.4 77.76" style="fill:none;stroke:#000000;stroke-dasharray:1.000000,3.000000;stroke-dashoffset:0.0;stroke-linecap:butt;stroke-width:0.5;"/>
     </g>
     <g id="line2d_62">
      <g>
       <use style="stroke:#000000;stroke-linecap:butt;stroke-width:0.5;" x="72.0" xlink:href="#me8a85f7bf6" y="77.76"/>
      </g>
     </g>
     <g id="line2d_63">
      <g>
       <use style="stroke:#000000;stroke-linecap:butt;stroke-width:0.5;" x="518.4" xlink:href="#m1a32005dea" y="77.76"/>
      </g>
     </g>
     <g id="text_20">
      <!-- 1.35 -->
      <g transform="translate(43.6475 82.1278125)scale(0.12 -0.12)">
       <use xlink:href="#BitstreamVeraSans-Roman-31"/>
       <use x="63.623046875" xlink:href="#BitstreamVeraSans-Roman-2e"/>
       <use x="95.41015625" xlink:href="#BitstreamVeraSans-Roman-33"/>
       <use x="159.033203125" xlink:href="#BitstreamVeraSans-Roman-35"/>
      </g>
     </g>
    </g>
    <g id="text_21">
     <!-- Sec/file -->
     <defs>
      <path d="
M9.42188 75.9844
L18.4062 75.9844
L18.4062 0
L9.42188 0
z
" id="BitstreamVeraSans-Roman-6c"/>
      <path d="
M53.5156 70.5156
L53.5156 60.8906
Q47.9062 63.5781 42.9219 64.8906
Q37.9375 66.2188 33.2969 66.2188
Q25.25 66.2188 20.875 63.0938
Q16.5 59.9688 16.5 54.2031
Q16.5 49.3594 19.4062 46.8906
Q22.3125 44.4375 30.4219 42.9219
L36.375 41.7031
Q47.4062 39.5938 52.6562 34.2969
Q57.9062 29 57.9062 20.125
Q57.9062 9.51562 50.7969 4.04688
Q43.7031 -1.42188 29.9844 -1.42188
Q24.8125 -1.42188 18.9688 -0.25
Q13.1406 0.921875 6.89062 3.21875
L6.89062 13.375
Q12.8906 10.0156 18.6562 8.29688
Q24.4219 6.59375 29.9844 6.59375
Q38.4219 6.59375 43.0156 9.90625
Q47.6094 13.2344 47.6094 19.3906
Q47.6094 24.75 44.3125 27.7812
Q41.0156 30.8125 33.5 32.3281
L27.4844 33.5
Q16.4531 35.6875 11.5156 40.375
Q6.59375 45.0625 6.59375 53.4219
Q6.59375 63.0938 13.4062 68.6562
Q20.2188 74.2188 32.1719 74.2188
Q37.3125 74.2188 42.625 73.2812
Q47.9531 72.3594 53.5156 70.5156" id="BitstreamVeraSans-Roman-53"/>
      <path d="
M9.42188 54.6875
L18.4062 54.6875
L18.4062 0
L9.42188 0
z

M9.42188 75.9844
L18.4062 75.9844
L18.4062 64.5938
L9.42188 64.5938
z
" id="BitstreamVeraSans-Roman-69"/>
      <path d="
M25.3906 72.9062
L33.6875 72.9062
L8.29688 -9.28125
L0 -9.28125
z
" id="BitstreamVeraSans-Roman-2f"/>
      <path d="
M56.2031 29.5938
L56.2031 25.2031
L14.8906 25.2031
Q15.4844 15.9219 20.4844 11.0625
Q25.4844 6.20312 34.4219 6.20312
Q39.5938 6.20312 44.4531 7.46875
Q49.3125 8.73438 54.1094 11.2812
L54.1094 2.78125
Q49.2656 0.734375 44.1875 -0.34375
Q39.1094 -1.42188 33.8906 -1.42188
Q20.7969 -1.42188 13.1562 6.1875
Q5.51562 13.8125 5.51562 26.8125
Q5.51562 40.2344 12.7656 48.1094
Q20.0156 56 32.3281 56
Q43.3594 56 49.7812 48.8906
Q56.2031 41.7969 56.2031 29.5938
M47.2188 32.2344
Q47.125 39.5938 43.0938 43.9844
Q39.0625 48.3906 32.4219 48.3906
Q24.9062 48.3906 20.3906 44.1406
Q15.875 39.8906 15.1875 32.1719
z
" id="BitstreamVeraSans-Roman-65"/>
      <path d="
M37.1094 75.9844
L37.1094 68.5
L28.5156 68.5
Q23.6875 68.5 21.7969 66.5469
Q19.9219 64.5938 19.9219 59.5156
L19.9219 54.6875
L34.7188 54.6875
L34.7188 47.7031
L19.9219 47.7031
L19.9219 0
L10.8906 0
L10.8906 47.7031
L2.29688 47.7031
L2.29688 54.6875
L10.8906 54.6875
L10.8906 58.5
Q10.8906 67.625 15.1406 71.7969
Q19.3906 75.9844 28.6094 75.9844
z
" id="BitstreamVeraSans-Roman-66"/>
      <path d="
M48.7812 52.5938
L48.7812 44.1875
Q44.9688 46.2969 41.1406 47.3438
Q37.3125 48.3906 33.4062 48.3906
Q24.6562 48.3906 19.8125 42.8438
Q14.9844 37.3125 14.9844 27.2969
Q14.9844 17.2812 19.8125 11.7344
Q24.6562 6.20312 33.4062 6.20312
Q37.3125 6.20312 41.1406 7.25
Q44.9688 8.29688 48.7812 10.4062
L48.7812 2.09375
Q45.0156 0.34375 40.9844 -0.53125
Q36.9688 -1.42188 32.4219 -1.42188
Q20.0625 -1.42188 12.7812 6.34375
Q5.51562 14.1094 5.51562 27.2969
Q5.51562 40.6719 12.8594 48.3281
Q20.2188 56 33.0156 56
Q37.1562 56 41.1094 55.1406
Q45.0625 54.2969 48.7812 52.5938" id="BitstreamVeraSans-Roman-63"/>
     </defs>
     <g transform="translate(37.869375 236.13)rotate(-90.0)scale(0.12 -0.12)">
      <use xlink:href="#BitstreamVeraSans-Roman-53"/>
      <use x="63.4765625" xlink:href="#BitstreamVeraSans-Roman-65"/>
      <use x="125.0" xlink:href="#BitstreamVeraSans-Roman-63"/>
      <use x="179.98046875" xlink:href="#BitstreamVeraSans-Roman-2f"/>
      <use x="213.671875" xlink:href="#BitstreamVeraSans-Roman-66"/>
      <use x="248.876953125" xlink:href="#BitstreamVeraSans-Roman-69"/>
      <use x="276.66015625" xlink:href="#BitstreamVeraSans-Roman-6c"/>
      <use x="304.443359375" xlink:href="#BitstreamVeraSans-Roman-65"/>
     </g>
    </g>
   </g>
   <g id="patch_3">
    <path d="
M72 43.2
L518.4 43.2" style="fill:none;stroke:#000000;"/>
   </g>
   <g id="patch_4">
    <path d="
M518.4 388.8
L518.4 43.2" style="fill:none;stroke:#000000;"/>
   </g>
   <g id="patch_5">
    <path d="
M72 388.8
L518.4 388.8" style="fill:none;stroke:#000000;"/>
   </g>
   <g id="patch_6">
    <path d="
M72 388.8
L72 43.2" style="fill:none;stroke:#000000;"/>
   </g>
   <g id="text_22">
    <!-- Rand -->
    <defs>
     <path d="
M54.8906 33.0156
L54.8906 0
L45.9062 0
L45.9062 32.7188
Q45.9062 40.4844 42.875 44.3281
Q39.8438 48.1875 33.7969 48.1875
Q26.5156 48.1875 22.3125 43.5469
Q18.1094 38.9219 18.1094 30.9062
L18.1094 0
L9.07812 0
L9.07812 54.6875
L18.1094 54.6875
L18.1094 46.1875
Q21.3438 51.125 25.7031 53.5625
Q30.0781 56 35.7969 56
Q45.2188 56 50.0469 50.1719
Q54.8906 44.3438 54.8906 33.0156" id="BitstreamVeraSans-Roman-6e"/>
     <path d="
M45.4062 46.3906
L45.4062 75.9844
L54.3906 75.9844
L54.3906 0
L45.4062 0
L45.4062 8.20312
Q42.5781 3.32812 38.25 0.953125
Q33.9375 -1.42188 27.875 -1.42188
Q17.9688 -1.42188 11.7344 6.48438
Q5.51562 14.4062 5.51562 27.2969
Q5.51562 40.1875 11.7344 48.0938
Q17.9688 56 27.875 56
Q33.9375 56 38.25 53.625
Q42.5781 51.2656 45.4062 46.3906
M14.7969 27.2969
Q14.7969 17.3906 18.875 11.75
Q22.9531 6.10938 30.0781 6.10938
Q37.2031 6.10938 41.2969 11.75
Q45.4062 17.3906 45.4062 27.2969
Q45.4062 37.2031 41.2969 42.8438
Q37.2031 48.4844 30.0781 48.4844
Q22.9531 48.4844 18.875 42.8438
Q14.7969 37.2031 14.7969 27.2969" id="BitstreamVeraSans-Roman-64"/>
     <path d="
M44.3906 34.1875
Q47.5625 33.1094 50.5625 29.5938
Q53.5625 26.0781 56.5938 19.9219
L66.6094 0
L56 0
L46.6875 18.7031
Q43.0625 26.0312 39.6719 28.4219
Q36.2812 30.8125 30.4219 30.8125
L19.6719 30.8125
L19.6719 0
L9.8125 0
L9.8125 72.9062
L32.0781 72.9062
Q44.5781 72.9062 50.7344 67.6719
Q56.8906 62.4531 56.8906 51.9062
Q56.8906 45.0156 53.6875 40.4688
Q50.4844 35.9375 44.3906 34.1875
M19.6719 64.7969
L19.6719 38.9219
L32.0781 38.9219
Q39.2031 38.9219 42.8438 42.2188
Q46.4844 45.5156 46.4844 51.9062
Q46.4844 58.2969 42.8438 61.5469
Q39.2031 64.7969 32.0781 64.7969
z
" id="BitstreamVeraSans-Roman-52"/>
     <path d="
M34.2812 27.4844
Q23.3906 27.4844 19.1875 25
Q14.9844 22.5156 14.9844 16.5
Q14.9844 11.7188 18.1406 8.90625
Q21.2969 6.10938 26.7031 6.10938
Q34.1875 6.10938 38.7031 11.4062
Q43.2188 16.7031 43.2188 25.4844
L43.2188 27.4844
z

M52.2031 31.2031
L52.2031 0
L43.2188 0
L43.2188 8.29688
Q40.1406 3.32812 35.5469 0.953125
Q30.9531 -1.42188 24.3125 -1.42188
Q15.9219 -1.42188 10.9531 3.29688
Q6 8.01562 6 15.9219
Q6 25.1406 12.1719 29.8281
Q18.3594 34.5156 30.6094 34.5156
L43.2188 34.5156
L43.2188 35.4062
Q43.2188 41.6094 39.1406 45
Q35.0625 48.3906 27.6875 48.3906
Q23 48.3906 18.5469 47.2656
Q14.1094 46.1406 10.0156 43.8906
L10.0156 52.2031
Q14.9375 54.1094 19.5781 55.0469
Q24.2188 56 28.6094 56
Q40.4844 56 46.3438 49.8438
Q52.2031 43.7031 52.2031 31.2031" id="BitstreamVeraSans-Roman-61"/>
    </defs>
    <g transform="translate(278.17425 38.2)scale(0.144 -0.144)">
     <use xlink:href="#BitstreamVeraSans-Roman-52"/>
     <use x="67.232421875" xlink:href="#BitstreamVeraSans-Roman-61"/>
     <use x="128.51171875" xlink:href="#BitstreamVeraSans-Roman-6e"/>
     <use x="191.890625" xlink:href="#BitstreamVeraSans-Roman-64"/>
    </g>
   </g>
   <g id="legend_1">
    <g id="patch_7">
     <path d="
M429.055 115.339
L511.2 115.339
L511.2 50.4
L429.055 50.4
L429.055 115.339
z
" style="fill:#ffffff;stroke:#000000;"/>
    </g>
    <g id="line2d_64">
     <path d="
M439.135 62.0617
L459.295 62.0617" style="fill:none;stroke:#ff0000;"/>
    </g>
    <g id="line2d_65"/>
    <g id="text_23">
     <!-- LRU -->
     <defs>
      <path d="
M9.8125 72.9062
L19.6719 72.9062
L19.6719 8.29688
L55.1719 8.29688
L55.1719 0
L9.8125 0
z
" id="BitstreamVeraSans-Roman-4c"/>
      <path d="
M8.6875 72.9062
L18.6094 72.9062
L18.6094 28.6094
Q18.6094 16.8906 22.8438 11.7344
Q27.0938 6.59375 36.625 6.59375
Q46.0938 6.59375 50.3438 11.7344
Q54.5938 16.8906 54.5938 28.6094
L54.5938 72.9062
L64.5 72.9062
L64.5 27.3906
Q64.5 13.1406 57.4375 5.85938
Q50.3906 -1.42188 36.625 -1.42188
Q22.7969 -1.42188 15.7344 5.85938
Q8.6875 13.1406 8.6875 27.3906
z
" id="BitstreamVeraSans-Roman-55"/>
     </defs>
     <g transform="translate(475.13475 67.10175)scale(0.144 -0.144)">
      <use xlink:href="#BitstreamVeraSans-Roman-4c"/>
      <use x="55.712890625" xlink:href="#BitstreamVeraSans-Roman-52"/>
      <use x="125.1953125" xlink:href="#BitstreamVeraSans-Roman-55"/>
     </g>
    </g>
    <g id="line2d_66">
     <path d="
M439.135 83.1983
L459.295 83.1983" style="fill:none;opacity:0.7;stroke:#008000;"/>
    </g>
    <g id="line2d_67"/>
    <g id="text_24">
     <!-- MRU -->
     <defs>
      <path d="
M9.8125 72.9062
L24.5156 72.9062
L43.1094 23.2969
L61.8125 72.9062
L76.5156 72.9062
L76.5156 0
L66.8906 0
L66.8906 64.0156
L48.0938 14.0156
L38.1875 14.0156
L19.3906 64.0156
L19.3906 0
L9.8125 0
z
" id="BitstreamVeraSans-Roman-4d"/>
     </defs>
     <g transform="translate(475.13475 88.23825)scale(0.144 -0.144)">
      <use xlink:href="#BitstreamVeraSans-Roman-4d"/>
      <use x="86.279296875" xlink:href="#BitstreamVeraSans-Roman-52"/>
      <use x="155.76171875" xlink:href="#BitstreamVeraSans-Roman-55"/>
     </g>
    </g>
    <g id="line2d_68">
     <path d="
M439.135 104.335
L459.295 104.335" style="fill:none;opacity:0.5;stroke:#0000ff;"/>
    </g>
    <g id="line2d_69"/>
    <g id="text_25">
     <!-- FIFO -->
     <defs>
      <path d="
M9.8125 72.9062
L51.7031 72.9062
L51.7031 64.5938
L19.6719 64.5938
L19.6719 43.1094
L48.5781 43.1094
L48.5781 34.8125
L19.6719 34.8125
L19.6719 0
L9.8125 0
z
" id="BitstreamVeraSans-Roman-46"/>
      <path d="
M9.8125 72.9062
L19.6719 72.9062
L19.6719 0
L9.8125 0
z
" id="BitstreamVeraSans-Roman-49"/>
      <path d="
M39.4062 66.2188
Q28.6562 66.2188 22.3281 58.2031
Q16.0156 50.2031 16.0156 36.375
Q16.0156 22.6094 22.3281 14.5938
Q28.6562 6.59375 39.4062 6.59375
Q50.1406 6.59375 56.4219 14.5938
Q62.7031 22.6094 62.7031 36.375
Q62.7031 50.2031 56.4219 58.2031
Q50.1406 66.2188 39.4062 66.2188
M39.4062 74.2188
Q54.7344 74.2188 63.9062 63.9375
Q73.0938 53.6562 73.0938 36.375
Q73.0938 19.1406 63.9062 8.85938
Q54.7344 -1.42188 39.4062 -1.42188
Q24.0312 -1.42188 14.8125 8.82812
Q5.60938 19.0938 5.60938 36.375
Q5.60938 53.6562 14.8125 63.9375
Q24.0312 74.2188 39.4062 74.2188" id="BitstreamVeraSans-Roman-4f"/>
     </defs>
     <g transform="translate(475.13475 109.37475)scale(0.144 -0.144)">
      <use xlink:href="#BitstreamVeraSans-Roman-46"/>
      <use x="57.51953125" xlink:href="#BitstreamVeraSans-Roman-49"/>
      <use x="87.01171875" xlink:href="#BitstreamVeraSans-Roman-46"/>
      <use x="144.53125" xlink:href="#BitstreamVeraSans-Roman-4f"/>
     </g>
    </g>
   </g>
  </g>
 </g>
 <defs>
  <clipPath id="p7ff5b81e1d">
   <rect height="345.6" width="446.4" x="72.0" y="43.2"/>
  </clipPath>
 </defs>
</svg>
