<?xml version="1.0" encoding="utf-8" standalone="no"?>
<!DOCTYPE svg PUBLIC "-//W3C//DTD SVG 1.1//EN"
  "http://www.w3.org/Graphics/SVG/1.1/DTD/svg11.dtd">
<!-- Created with matplotlib (http://matplotlib.sourceforge.net/) -->
<svg height="432pt" version="1.1" viewBox="0 0 576 432" width="576pt" xmlns="http://www.w3.org/2000/svg" xmlns:xlink="http://www.w3.org/1999/xlink">
 <defs>
  <style type="text/css">
*{stroke-linecap:square;stroke-linejoin:round;}
  </style>
 </defs>
 <g id="figure_1">
  <g id="patch_1">
   <path d="
M0 432
L576 432
L576 0
L0 0
z
" style="fill:#ffffff;"/>
  </g>
  <g id="axes_1">
   <g id="patch_2">
    <path d="
M72 388.8
L518.4 388.8
L518.4 43.2
L72 43.2
z
" style="fill:#ffffff;"/>
   </g>
   <g id="line2d_1">
    <path clip-path="url(#p7ff5b81e1d)" d="
M72 296.299
L72.4464 191.5
L72.8928 189.949
L73.3392 186.046
L73.7856 196.629
L74.232 201.937
L74.6784 192.892
L75.1248 192.12
L75.5712 206.939
L76.0176 192.281
L76.464 266.511
L76.9104 272.679
L77.3568 204.655
L77.8032 199.903
L78.2496 206.22
L78.696 268.081
L79.1424 189.057
L79.5888 267.499
L80.0352 206.22
L80.4816 198.845
L80.928 201.482
L81.3744 203.231
L81.8208 271.748
L82.2672 193.693
L82.7136 185.148
L83.16 192.166
L83.6064 201.942
L84.4992 184.187
L84.9456 269.775
L85.392 186.665
L85.8384 194.861
L86.2848 179.81
L86.7312 199.816
L87.1776 269.204
L87.624 199.857
L88.0704 270.434
L88.5168 268.213
L88.9632 265.175
L89.4096 190.445
L89.856 266.889
L90.3024 203.139
L90.7488 268.178
L91.1952 270.169
L91.6416 267.231
L92.088 273.816
L92.5344 195.573
L92.9808 270.289
L93.4272 196.676
L93.8736 272.999
L94.32 265.611
L94.7664 199.67
L95.2128 265.558
L95.6592 267.733
L96.1056 267.054
L96.552 271.367
L96.9984 187.682
L97.4448 197.164
L97.8912 186.168
L98.3376 270.849
L98.784 269.033
L99.2304 267.86
L99.6768 267.123
L100.123 272.643
L100.57 180.149
L101.016 200.353
L101.462 177.399
L101.909 265.386
L102.355 270.374
L102.802 190.249
L103.248 267.858
L103.694 268.377
L104.141 270.444
L104.587 270.317
L105.034 268.744
L105.48 270.187
L105.926 271.123
L107.266 266.07
L107.712 267.379
L108.158 198.32
L108.605 269.334
L109.051 265.874
L109.498 267.405
L110.39 272.094
L110.837 270.332
L111.283 270.422
L111.73 268.282
L112.176 273.041
L112.622 267.702
L113.069 268.986
L113.515 268.834
L113.962 272.745
L114.408 268.251
L114.854 268.917
L115.301 269.3
L115.747 272.188
L116.194 269.152
L117.086 261.699
L117.979 270.949
L118.426 195.487
L118.872 268.547
L119.318 268.029
L120.211 273.291
L120.658 181.377
L121.104 266.646
L121.55 270.764
L121.997 269.711
L122.443 270.705
L122.89 264.806
L123.336 271.025
L123.782 270.249
L124.229 198.81
L124.675 269.529
L125.122 196.19
L125.568 267.464
L126.461 270.818
L126.907 202.914
L127.354 267.549
L127.8 268.307
L128.246 271.004
L128.693 271.483
L129.139 268.745
L129.586 266.905
L130.032 269.287
L130.478 272.337
L131.371 267.934
L131.818 260.694
L132.264 265.358
L132.71 271.839
L133.157 269.563
L133.603 269.391
L134.05 268.148
L134.496 271.197
L134.942 271.553
L135.389 271.728
L135.835 266.644
L136.282 271.851
L136.728 268.179
L137.174 270.84
L137.621 269.088
L138.067 273.727
L138.514 270.438
L138.96 271.302
L139.406 267.853
L139.853 267.192
L140.299 266.267
L140.746 200.738
L141.192 269.263
L141.638 269.23
L142.085 269.724
L142.531 274.436
L142.978 267.362
L143.424 269.033
L143.87 268.097
L144.317 272.571
L144.763 267.614
L145.21 270.696
L145.656 267.626
L146.102 273.296
L146.549 269.42
L146.995 270.561
L147.442 267.481
L147.888 266.627
L148.334 267.353
L148.781 273.284
L149.227 269.472
L149.674 267.439
L150.12 267.273
L150.566 272.628
L151.013 268.904
L151.459 269.153
L151.906 269.264
L152.352 273.552
L152.798 267.814
L153.245 269.524
L153.691 268.733
L154.138 273.853
L155.03 266.45
L155.477 188.678
L155.923 262.111
L156.37 266.062
L156.816 268.939
L157.262 268.114
L157.709 270.722
L158.155 271.488
L158.602 271.901
L159.048 268.322
L159.494 271.413
L159.941 271.192
L160.387 268.864
L160.834 267.836
L161.28 272.379
L161.726 272.317
L162.173 270.985
L162.619 264.892
L163.066 271.51
L163.512 269.927
L163.958 266.459
L164.405 268.671
L164.851 268.739
L165.298 272.293
L165.744 268.524
L166.19 269.913
L166.637 269.345
L167.083 272.235
L167.976 268.352
L168.422 268.717
L168.869 271.577
L169.315 265.432
L169.762 268.3
L170.208 267.422
L170.654 273.803
L171.101 269.328
L171.994 263.696
L172.44 267.782
L172.886 269.623
L173.333 272.92
L173.779 268.072
L174.226 270.105
L174.672 265.846
L175.118 271.753
L175.565 268.802
L176.011 268.996
L176.458 268.069
L176.904 273.443
L177.35 270.445
L177.797 264.606
L178.243 267.342
L178.69 270.921
L179.136 270.449
L179.582 269.489
L180.029 260.715
L180.475 271.283
L180.922 268.1
L181.368 272.823
L181.814 268.56
L182.261 266.652
L182.707 265.448
L183.154 268.555
L183.6 268.2
L184.046 268.276
L184.493 265.778
L184.939 273.39
L185.386 267.167
L185.832 263.838
L186.278 265.606
L186.725 270.539
L187.171 266.818
L187.618 265.396
L188.064 260.276
L188.51 194.906
L188.957 267.089
L189.403 271.367
L189.85 266.534
L190.296 267.726
L190.742 266.734
L191.189 271.843
L191.635 264.774
L192.082 267.794
L192.974 270.012
L193.421 265.843
L194.314 269.402
L194.76 272.142
L195.206 266.066
L195.653 267.181
L196.099 263.954
L196.546 270.966
L196.992 266.051
L198.331 271.344
L199.224 267.918
L199.67 269.989
L200.117 270.478
L200.563 266.534
L201.01 267.139
L201.456 266.054
L201.902 272.295
L202.349 267.33
L202.795 269.071
L203.242 266.294
L203.688 264.408
L204.134 266.248
L204.581 268.821
L205.027 269.189
L205.474 265.968
L205.92 267.268
L206.366 270.684
L206.813 271.641
L207.259 267.802
L207.706 267.359
L208.152 269.039
L208.598 269.64
L209.045 266.943
L209.491 266.17
L209.938 270.671
L210.384 269.074
L210.83 266.859
L211.723 263.632
L212.17 263.14
L212.616 270.299
L213.062 270.344
L213.955 266.612
L214.402 270.752
L214.848 267.288
L215.294 266.578
L215.741 268.413
L216.187 271.772
L216.634 270.216
L217.08 267.488
L217.526 267.193
L217.973 269.22
L218.419 269.716
L218.866 264.545
L219.312 267.609
L219.758 265.884
L220.205 267.074
L220.651 270.587
L221.098 266.294
L221.544 266.747
L221.99 270.895
L222.437 271.264
L222.883 267.758
L223.33 265.581
L223.776 268.553
L224.669 269.113
L225.115 266.536
L225.562 279.118
L226.008 270.824
L226.454 269.491
L226.901 265.885
L227.347 266.566
L227.794 264.745
L228.24 265.618
L228.686 271.929
L229.133 270.339
L229.579 267.556
L230.026 268.895
L230.472 269.277
L230.918 269.314
L231.365 268.479
L231.811 267.11
L232.258 272.149
L232.704 268.222
L233.15 266.511
L234.043 269.639
L234.49 267.465
L234.936 263.81
L235.382 269.022
L235.829 264.983
L236.275 268.335
L236.722 270.378
L237.168 266.54
L237.614 266.627
L238.061 267.76
L238.507 269.488
L238.954 266.388
L239.4 266.219
L239.846 269.319
L240.739 265.431
L241.186 265.265
L241.632 271.348
L242.078 265.724
L242.525 266.501
L242.971 265.746
L243.418 270.708
L243.864 263.641
L244.31 269.087
L244.757 267.022
L245.203 268.233
L245.65 266.571
L246.096 270.821
L246.542 267.737
L246.989 268.05
L247.435 268.09
L247.882 268.853
L248.328 269.392
L248.774 267.231
L249.221 269.632
L249.667 268.424
L250.114 269.801
L250.56 269.304
L251.006 264.155
L251.453 270.709
L251.899 267.222
L252.346 270.16
L252.792 264.176
L253.238 266.621
L253.685 266.062
L254.131 271.6
L254.578 269.2
L255.024 265.715
L255.47 265.977
L255.917 272.354
L256.363 269.532
L256.81 267.544
L257.256 267.149
L257.702 271.392
L258.149 268.22
L258.595 266.17
L259.042 267.513
L259.488 270.934
L259.934 266.292
L260.381 268.655
L260.827 266.108
L261.274 265.491
L261.72 269.938
L262.166 270.756
L262.613 265.8
L263.059 265.632
L263.506 270.341
L263.952 269.601
L264.845 264.541
L265.291 269.335
L265.738 269.403
L266.63 265.207
L267.077 269.872
L267.97 263.534
L268.862 267.637
L269.309 267.992
L269.755 270.048
L270.202 267.445
L270.648 269.244
L271.094 267.225
L271.541 271.63
L271.987 269.417
L272.434 267.882
L272.88 267.089
L273.326 267.603
L273.773 264.55
L274.219 267.462
L274.666 267.741
L275.112 267.392
L275.558 265.662
L276.005 264.713
L276.451 270.104
L276.898 267.295
L277.344 268.374
L277.79 263.732
L278.237 272.128
L278.683 269.09
L279.576 266.981
L280.022 272.284
L280.469 269.451
L281.362 265.965
L281.808 269.708
L282.254 267.847
L282.701 265.015
L283.147 266.032
L283.594 270.733
L284.04 262.707
L284.486 266.173
L284.933 267.699
L285.379 272.229
L285.826 269.897
L286.272 266.505
L286.718 266.64
L287.165 270.643
L287.611 267.182
L288.058 266.028
L288.504 268.723
L288.95 269.948
L289.397 268.817
L289.843 266.463
L290.29 267.176
L290.736 270.907
L291.182 267.783
L291.629 267.889
L292.075 263.165
L292.522 268.8
L292.968 266.139
L293.414 267.312
L293.861 267.809
L294.307 268.049
L294.754 266.717
L295.2 266.473
L295.646 265.953
L296.093 269.191
L296.539 268.245
L297.432 265.74
L297.878 271.052
L298.325 266.175
L298.771 268.105
L299.218 264.687
L299.664 269.847
L300.11 263.229
L300.557 270.055
L301.003 268.264
L301.45 267.003
L301.896 266.961
L302.342 270.822
L302.789 268.092
L303.682 266.721
L304.128 270.764
L304.574 268.242
L305.021 266.459
L305.467 267.659
L305.914 271.58
L306.36 267.64
L306.806 265.741
L307.699 271.094
L308.146 262.875
L308.592 268.794
L309.038 269.877
L309.485 265.408
L309.931 268.883
L310.378 269.394
L310.824 266.513
L311.27 265.399
L311.717 270.084
L312.163 268.132
L312.61 268.015
L313.056 265.639
L313.502 269.038
L313.949 268.219
L314.395 268.711
L314.842 265.239
L315.288 269.433
L316.181 264.398
L317.074 268.026
L317.52 265.815
L317.966 272.751
L318.413 268.989
L318.859 267.47
L319.306 261.861
L319.752 270.985
L320.198 269.46
L320.645 264.679
L321.091 263.625
L321.538 271.655
L321.984 267.931
L322.43 268.476
L322.877 264.184
L323.323 270.247
L323.77 270.005
L324.216 265.522
L325.109 270.372
L325.555 266.517
L326.002 271.369
L326.448 269.193
L326.894 265.94
L327.341 265.366
L327.787 271.576
L328.234 268.586
L328.68 266.765
L329.126 266.475
L329.573 271.694
L330.019 266.71
L330.466 267.079
L330.912 265.963
L331.358 272.924
L331.805 265.715
L332.251 264.765
L333.144 268.815
L333.59 265.781
L334.037 271.375
L334.483 263.905
L334.93 267.32
L335.376 266.124
L335.822 271.581
L336.269 269.975
L336.715 264.853
L337.608 271.769
L338.054 263.199
L338.501 263.935
L338.947 268.706
L339.394 270.558
L339.84 267.745
L340.286 261.75
L340.733 263.384
L341.179 267.574
L341.626 269.117
L342.072 267.645
L342.518 268.55
L343.411 265.472
L343.858 270.602
L344.304 264.939
L344.75 265.989
L345.643 270.816
L346.09 266.114
L346.536 266.573
L347.429 270.92
L347.875 266.371
L348.322 263.023
L348.768 268.052
L349.214 263.838
L349.661 269.317
L350.107 270.386
L350.554 267.817
L351 265.918
L351.446 268.843
L351.893 270.183
L352.339 269.398
L352.786 266.564
L353.232 270.188
L353.678 264.088
L355.018 269.483
L355.464 264.259
L355.91 267.22
L356.357 262.241
L356.803 265.195
L357.25 267.06
L357.696 271.181
L358.142 267.49
L358.589 265.943
L359.035 267.317
L359.482 271.523
L359.928 269.437
L360.374 264.074
L360.821 270.018
L361.267 269.025
L361.714 265.231
L362.16 266.19
L363.053 269.876
L363.499 266.589
L363.946 264.664
L364.392 265.024
L364.838 263.061
L365.285 269.23
L365.731 266.951
L366.178 267.629
L366.624 264.806
L367.07 268.942
L367.517 265.485
L367.963 266.235
L368.41 265.918
L368.856 267.999
L369.302 268.546
L369.749 268.308
L370.195 264.327
L370.642 269.327
L371.088 269.098
L371.534 269.127
L371.981 265.014
L372.427 262.506
L373.32 267.033
L373.766 266.675
L374.213 266.862
L374.659 270.087
L375.106 267.723
L375.552 263.801
L375.998 270.924
L376.445 268.722
L376.891 270.041
L377.338 265.049
L377.784 269.714
L378.23 267.001
L378.677 262.783
L379.123 265.649
L379.57 271.376
L380.462 262.14
L381.802 271.166
L382.694 265.607
L383.141 267.556
L383.587 268.484
L384.034 267.478
L384.48 266.188
L384.926 270.432
L385.373 266.343
L385.819 267.502
L386.266 264.197
L386.712 269.539
L387.158 268.229
L387.605 266.566
L388.051 266.656
L388.498 265.535
L388.944 263.773
L389.39 270.564
L389.837 267.633
L390.283 268.542
L390.73 264.589
L391.176 269.822
L391.622 270.338
L392.515 265.772
L392.962 269.849
L393.408 266.359
L393.854 268.019
L394.301 266.536
L394.747 269.192
L395.194 268.577
L396.533 261.079
L396.979 263.933
L397.426 268.133
L397.872 267.963
L398.318 265.235
L399.211 268.629
L399.658 264.088
L400.104 264.931
L400.55 267.862
L400.997 269.024
L401.443 264.785
L401.89 266.696
L402.336 267.491
L402.782 269.121
L403.229 265.097
L403.675 265.033
L404.122 267.64
L404.568 261.997
L405.014 268.216
L405.461 268.889
L405.907 266.002
L406.354 264.252
L406.8 268.212
L407.246 270.124
L407.693 266.881
L408.139 265.385
L408.586 268.477
L409.032 265.064
L409.478 268.519
L409.925 265.948
L410.371 269.995
L410.818 268.862
L411.264 268.213
L411.71 267.084
L412.157 267.227
L412.603 265.64
L413.05 268.992
L413.942 267.187
L414.389 261.755
L414.835 267.291
L415.282 268.027
L415.728 270.483
L416.174 265.902
L417.067 269.948
L417.514 265.052
L417.96 265.506
L418.406 269.323
L418.853 266.099
L419.299 268.239
L419.746 266.815
L420.192 271.243
L420.638 264.927
L421.085 269.531
L421.531 268.529
L421.978 268.881
L422.424 267.663
L422.87 271.765
L423.317 266.091
L423.763 265.621
L424.21 267.546
L424.656 268.275
L425.549 265.059
L425.995 269.545
L426.442 268.961
L426.888 269.194
L427.334 265.867
L427.781 268.923
L428.227 270.36
L428.674 264.747
L429.12 267.441
L429.566 266.602
L430.013 264.919
L430.459 269.036
L430.906 267.291
L431.352 266.049
L431.798 263.901
L432.245 270.299
L432.691 267.716
L433.138 266.923
L433.584 265.282
L434.03 271.377
L434.477 267.24
L434.923 267.552
L435.37 265.901
L435.816 270.289
L436.709 262.9
L437.155 266.619
L437.602 267.665
L438.048 267.9
L438.494 269.473
L438.941 268.19
L439.387 270.379
L439.834 262.938
L440.28 270.787
L440.726 264.617
L441.173 265.63
L441.619 263.989
L442.066 270.328
L442.512 267.06
L442.958 266.545
L443.405 266.385
L443.851 269.947
L444.298 268.654
L444.744 260.774
L445.19 266.057
L446.083 266.341
L446.53 265.941
L446.976 267.897
L447.422 267.81
L447.869 269.16
L448.315 263.961
L449.208 270.206
L449.654 266.284
L450.101 265.84
L450.547 263.28
L450.994 266.906
L451.44 265.431
L451.886 265.98
L452.333 252.737
L452.779 254.247
L453.226 254.874
L453.672 254.891
L454.118 258.58
L454.565 255.963
L455.011 255.959
L455.458 256.205
L455.904 258.183
L456.35 257.954
L456.797 255.65
L457.243 256.643
L457.69 260.343
L458.136 255.156
L458.582 255.472
L459.029 258.65
L459.475 258.573
L459.922 254.754
L460.368 341.807
L460.814 258.393
L461.261 258.868
L461.707 253.911
L462.154 254.129
L462.6 260.808
L463.046 257.469
L463.493 256.214
L463.939 254.548
L464.386 259.834
L465.278 257.521
L465.725 254.345
L466.171 260.994
L466.618 257.413
L467.064 256.471
L467.51 253.799
L467.957 255.985
L468.403 259.779
L468.85 256.01
L469.296 254.925
L469.742 255.926
L470.189 260.008
L470.635 252.67
L471.082 253.753
L471.528 259.122
L471.974 255.312
L472.421 256.547
L472.867 253.211
L473.314 261.131
L473.76 255.895
L474.206 257.49
L474.653 243.106
L475.099 257.458
L475.546 252.127
L475.992 253.974
L476.438 259.137
L476.885 256.53
L477.331 256.155
L477.778 253.353
L478.224 257.435
L478.67 258.64
L479.117 254.396
L479.563 258.38
L480.01 258.848
L480.456 254.088
L480.902 255.141
L481.349 259.814
L481.795 154.345
L482.242 305.135
L482.688 252.653
L483.134 258.751
L483.581 258.608
L484.027 255.79
L484.474 254.59
L484.92 256.22
L485.366 256.806
L485.813 256.968
L486.259 252.985
L486.706 259.527
L487.152 257.615
L487.598 256.645
L488.045 255.276
L488.491 258.569
L488.938 244.986
L489.83 259.79
L490.277 254.801
L490.723 255.677
L491.17 255.292
L491.616 260.424
L492.062 251.795
L492.955 256.78
L493.402 257.893
L493.848 257.249
L494.294 254.162
L494.741 257.893
L495.187 258.076
L495.634 254.976
L496.08 239.584
L496.526 256.678
L496.973 255.796
L497.419 253.028
L497.866 258.639
L498.758 256.666
L499.205 251.79
L499.651 259.888
L500.098 254.812
L500.544 256.635
L500.99 255.809
L501.437 260.628
L501.883 256.242
L502.33 254.885
L502.776 255.582
L503.222 248.704
L503.669 254.868
L504.115 255.427
L504.562 260.311
L505.008 256.036
L505.454 253.501
L505.901 258.992
L506.347 256.445
L506.794 255.938
L507.24 253.83
L507.686 258.41
L508.133 256.556
L508.579 258.298
L509.026 252.139
L509.472 260.135
L509.918 254.526
L510.365 205.043
L510.811 290.974
L511.258 258.7
L511.704 258.288
L512.15 257.715
L512.597 255.107
L513.043 260.283
L513.49 254.883
L513.936 256.511
L514.382 256.773
L514.829 260.595
L515.275 254.446
L515.722 257.089
L516.614 259.709
L517.061 255.018
L517.507 254.512
L517.954 254.57
L517.954 254.57" style="fill:none;stroke:#ff0000;"/>
   </g>
   <g id="line2d_2">
    <path clip-path="url(#p7ff5b81e1d)" d="
M72 270.148
L72.4464 149.488
L72.8928 155.959
L73.3392 158.441
L73.7856 154.698
L74.232 160.669
L74.6784 156.025
L75.1248 157.623
L75.5712 157.987
L76.0176 238.96
L76.464 160.441
L76.9104 157.2
L77.3568 157.922
L77.8032 157.871
L78.2496 165
L78.696 158.057
L79.1424 158.565
L79.5888 242.723
L80.0352 155.27
L80.4816 155.561
L80.928 157.512
L81.3744 161.892
L81.8208 237.012
L82.2672 157.298
L82.7136 159.472
L83.16 150.691
L84.0528 160.462
L84.4992 238.174
L84.9456 153.179
L85.392 152.604
L85.8384 159.38
L86.2848 238.9
L86.7312 236.81
L87.1776 160.566
L87.624 158.809
L88.0704 237.14
L88.5168 240.605
L88.9632 241.183
L89.4096 236.245
L89.856 156.331
L90.3024 155.342
L90.7488 235.49
L91.1952 160.158
L91.6416 156.612
L92.088 236.83
L92.5344 243.332
L92.9808 238.471
L93.4272 236.995
L93.8736 157.468
L94.32 158.146
L94.7664 237.752
L95.2128 155.145
L95.6592 235.459
L96.1056 162.576
L96.552 239.442
L96.9984 235.981
L97.4448 242.376
L97.8912 159.461
L98.3376 239.257
L98.784 239.635
L99.2304 242.446
L99.6768 156.313
L100.123 166.06
L100.57 257.723
L101.016 237.48
L101.462 236.696
L101.909 242.375
L102.355 157.298
L102.802 236.854
L103.694 245.297
L104.141 247.101
L104.587 237.004
L105.034 159.669
L105.48 241.608
L105.926 232.047
L106.373 266.177
L106.819 238.249
L107.266 235.683
L107.712 240.821
L108.158 235.837
L108.605 236.398
L109.051 161.992
L109.498 237.203
L109.944 239.495
L110.39 239.437
L110.837 241.593
L111.283 239.329
L111.73 232.697
L112.176 238.508
L112.622 239.895
L113.069 239.94
L113.515 238.5
L113.962 239.981
L114.408 235.265
L114.854 242.869
L115.301 238.779
L115.747 152.553
L116.194 241.712
L117.086 235.867
L117.533 242.212
L117.979 155.628
L118.426 237.848
L118.872 236.749
L119.318 237.656
L119.765 242.993
L120.211 238.166
L120.658 237.397
L121.104 243.691
L121.55 235.499
L121.997 236.658
L122.443 244.494
L122.89 238.663
L123.336 239.281
L123.782 241.51
L124.229 231.839
L124.675 240.331
L125.122 238.663
L125.568 232.545
L126.014 243.773
L126.461 237.308
L126.907 237.516
L127.354 243.444
L127.8 238.081
L128.246 235.86
L128.693 243.304
L129.139 239.617
L130.032 237.387
L130.478 239.544
L130.925 230.572
L131.371 238.347
L131.818 236.513
L132.264 156.883
L132.71 155.459
L133.157 237.412
L133.603 161.189
L134.05 240.127
L134.496 238.46
L134.942 238.073
L135.389 243.45
L135.835 239.041
L136.282 238.223
L136.728 235.396
L137.174 233.92
L137.621 236.244
L138.067 242.273
L138.514 237.322
L138.96 235.31
L139.406 241.797
L139.853 245.588
L140.299 233.573
L140.746 239.238
L141.638 238.729
L142.085 234.644
L142.531 242.796
L142.978 154.011
L143.424 242.225
L143.87 236.699
L144.317 235.736
L144.763 242.34
L145.21 238.111
L145.656 238.376
L146.549 240.291
L146.995 239.286
L147.442 237.699
L147.888 241.525
L148.334 238.07
L148.781 236.908
L149.227 237.779
L149.674 241.085
L150.12 237.068
L150.566 234.91
L151.013 239.078
L151.459 241.658
L151.906 237.449
L152.352 238.965
L152.798 242.531
L153.691 232.467
L154.138 243.387
L154.584 238.522
L155.03 235.853
L155.477 241.779
L155.923 227.486
L156.37 186.922
L156.816 237.436
L157.262 239.446
L157.709 242.015
L158.602 235.455
L159.048 242.101
L159.494 240.507
L159.941 235.555
L160.387 242.937
L161.28 235.329
L161.726 243.048
L162.173 232.627
L163.066 241.673
L163.512 238.914
L163.958 238.095
L164.405 245.84
L164.851 236.634
L165.298 234.967
L165.744 242.516
L166.19 238.875
L166.637 236.79
L167.083 243.398
L167.976 238.598
L168.422 238.408
L168.869 229.96
L169.315 234.35
L169.762 242.038
L170.654 234.825
L171.101 243.261
L171.547 238.328
L171.994 235.662
L172.44 243.936
L172.886 238.958
L173.333 236.277
L173.779 241.901
L174.226 241.788
L174.672 238.093
L175.118 239.379
L175.565 237.343
L176.011 234.71
L176.458 242.789
L176.904 238.156
L177.35 236.107
L177.797 242.681
L178.243 238.798
L178.69 233.85
L179.136 242.091
L179.582 240.567
L180.029 238.231
L180.475 239.743
L180.922 241.85
L181.368 237.268
L181.814 238.733
L182.261 237.058
L182.707 233.873
L183.154 242.254
L183.6 239.225
L184.046 233.363
L184.493 236.818
L184.939 238.803
L185.386 237.352
L185.832 240.24
L186.278 241.376
L186.725 234.795
L187.618 241.618
L188.064 235.858
L188.51 234.061
L188.957 242.065
L189.85 234.14
L190.296 234.461
L190.742 239.356
L191.635 238.163
L192.082 239.304
L192.528 243.067
L192.974 236.506
L193.421 235.445
L193.867 243.355
L194.314 237.697
L194.76 233.827
L195.206 237.489
L195.653 205.266
L196.099 236.719
L196.546 235.918
L196.992 239.223
L197.438 238.577
L197.885 236.528
L198.331 238.194
L198.778 242.439
L199.224 236.762
L199.67 236.599
L200.117 242.135
L200.563 237.564
L201.01 235.216
L201.456 235.634
L201.902 235.232
L202.349 240.476
L202.795 238.207
L203.242 233.558
L204.134 237.522
L204.581 233.424
L205.027 236.797
L205.474 237.907
L206.366 233.061
L206.813 240.036
L207.259 234.452
L207.706 234.779
L208.152 231.974
L208.598 239.199
L209.045 235.565
L209.491 234.53
L209.938 236.298
L210.384 240.023
L210.83 232.647
L211.723 240.115
L212.17 234.936
L212.616 236.942
L213.062 240.954
L213.509 235.084
L213.955 222.487
L214.402 233.57
L214.848 240.48
L215.294 236.425
L215.741 233.564
L216.187 237.958
L216.634 234.497
L217.08 236.761
L217.526 236.576
L217.973 237.395
L218.419 235.862
L218.866 236.196
L219.312 239.906
L219.758 234.255
L220.205 233.91
L220.651 231.569
L221.098 241.73
L221.544 233.352
L221.99 233.066
L222.437 240.711
L222.883 235.455
L223.33 235.81
L223.776 240.878
L224.222 235.533
L224.669 237.295
L225.115 235.882
L225.562 238.73
L226.008 229.867
L226.454 228.736
L226.901 231.346
L227.347 242.112
L228.24 232.1
L228.686 242.616
L229.133 236.487
L229.579 234.593
L230.026 242.167
L230.472 236.405
L230.918 235.84
L231.365 241.156
L231.811 236.927
L232.258 236.51
L232.704 122.027
L233.15 303.53
L233.597 233.023
L234.043 237.268
L234.49 232.731
L234.936 241.297
L235.382 236.772
L235.829 235.094
L236.275 239.448
L236.722 236.531
L237.168 235.402
L237.614 240.099
L238.507 233.711
L238.954 234.585
L239.4 236.938
L239.846 238.095
L240.293 234.589
L240.739 235.33
L241.186 238.878
L241.632 236.177
L242.078 232.111
L242.525 241.669
L242.971 234.349
L243.418 233.37
L243.864 240.259
L244.31 234.233
L244.757 231.891
L245.203 238.907
L245.65 237.283
L246.096 237.532
L246.542 235.772
L246.989 234.604
L247.435 241.043
L247.882 234.973
L248.328 235.902
L248.774 241.77
L249.667 229.835
L250.114 242.894
L250.56 234.285
L251.006 232.751
L251.453 239.107
L251.899 239.289
L252.346 234.875
L252.792 232.86
L253.238 237.491
L254.131 235.431
L254.578 237.972
L255.024 238.583
L255.47 235.054
L255.917 235.419
L256.363 240.872
L256.81 235.221
L257.256 233.87
L257.702 165.704
L258.149 258.996
L258.595 234.979
L259.042 238.121
L259.488 240.347
L259.934 238.716
L260.381 233.272
L260.827 238.248
L261.274 238.732
L261.72 233.021
L262.613 237.851
L263.059 234.825
L263.506 230.786
L263.952 238.888
L264.398 240.349
L264.845 235.34
L265.291 233.69
L265.738 239.67
L266.184 234.412
L266.63 232.089
L267.077 239.773
L267.523 236.675
L267.97 235.068
L268.416 236.519
L268.862 238.426
L269.309 234.694
L269.755 234.852
L270.202 238.981
L270.648 238.925
L271.094 234.729
L271.541 234.321
L271.987 240.754
L272.434 233.29
L272.88 233.158
L273.326 236.889
L273.773 234.377
L274.219 234.059
L274.666 241.672
L275.112 235.967
L275.558 235.181
L276.005 235.206
L276.451 229.172
L276.898 239.551
L277.344 235.561
L277.79 234.637
L278.237 240.999
L278.683 235.49
L279.13 233.102
L279.576 241.048
L280.022 235.55
L280.469 233.945
L280.915 239.768
L281.362 236.507
L281.808 231.935
L282.254 238.524
L282.701 236.612
L283.147 227.432
L283.594 236.982
L284.04 232.193
L284.486 235.952
L284.933 235.486
L285.379 232.478
L285.826 240.735
L286.272 234.075
L286.718 235.377
L287.165 238.873
L287.611 235.828
L288.058 235.379
L288.504 236.479
L288.95 232.868
L289.397 237.695
L289.843 233.102
L290.29 236.763
L290.736 237.702
L291.182 231.635
L291.629 235.275
L292.075 243.065
L292.522 234.828
L292.968 234.167
L293.414 241.715
L293.861 233.443
L294.307 234.482
L294.754 239.459
L295.2 224.635
L295.646 235.686
L296.093 237.44
L296.539 235.144
L296.986 237.767
L297.432 232.456
L297.878 234.352
L298.325 237.94
L298.771 235.242
L299.218 235.623
L299.664 239.528
L300.11 236.749
L300.557 232.351
L301.003 240.087
L301.45 235.39
L301.896 232.79
L302.342 234.593
L302.789 239.513
L303.235 233.879
L303.682 232.778
L304.128 238.653
L304.574 235.968
L305.467 236.55
L305.914 237.383
L306.36 235.582
L306.806 235.003
L307.253 236.535
L307.699 235.422
L308.146 228.817
L309.038 239.998
L309.485 238.285
L309.931 232.098
L310.378 239.1
L311.27 232.862
L311.717 237.763
L312.163 236.637
L312.61 234.546
L313.056 235.962
L313.502 236.72
L313.949 232.543
L314.395 232.834
L314.842 234.222
L315.288 239.923
L315.734 235.134
L316.181 233.414
L316.627 238.182
L317.074 234.894
L317.52 234.93
L317.966 238.909
L318.413 236.503
L318.859 235.373
L319.306 238.781
L319.752 233.257
L320.198 223.588
L320.645 232.464
L321.538 240.827
L321.984 234.58
L322.43 235.661
L322.877 242.503
L323.323 234.899
L323.77 232.146
L324.216 240.574
L324.662 235.779
L325.109 235.928
L325.555 240.581
L326.448 225.685
L326.894 235.013
L327.341 231.415
L327.787 237.731
L328.234 235.736
L328.68 234.252
L329.126 239.137
L330.019 231.883
L330.466 239.054
L330.912 234.74
L331.358 232.52
L331.805 239.002
L332.251 232.113
L332.698 227.783
L333.144 231.664
L333.59 238.191
L334.037 234.774
L334.483 234.2
L334.93 236.856
L335.376 238.451
L335.822 235.419
L336.269 235.311
L336.715 237.182
L337.162 233.894
L337.608 234.325
L338.054 239.414
L338.501 231.885
L338.947 229.975
L339.394 232.077
L339.84 238.827
L340.286 234.775
L340.733 233.7
L341.179 238.742
L342.072 234.255
L342.518 237.144
L342.965 236.831
L343.858 230.081
L344.304 239.931
L344.75 233.739
L345.643 230.23
L346.09 238.932
L346.982 232.997
L347.429 240.06
L347.875 235.888
L348.322 235.057
L348.768 236.857
L349.214 231.376
L349.661 229.253
L350.107 234.235
L350.554 232.022
L351 228.458
L351.446 229.154
L352.339 233.911
L352.786 227.996
L353.232 230.384
L353.678 235.174
L354.125 229.3
L354.571 232.636
L355.018 228.601
L355.464 227.437
L356.357 234.931
L356.803 228.532
L357.25 227.371
L357.696 228.312
L358.142 236.658
L359.035 230.401
L359.482 237.052
L359.928 232.165
L360.374 230.602
L360.821 233.853
L361.267 231.4
L361.714 230.508
L362.16 234.276
L362.606 231.99
L363.053 231.852
L363.499 232.023
L363.946 224.757
L364.392 226.989
L364.838 236.312
L365.285 230.172
L365.731 229.879
L366.178 233.828
L366.624 232.097
L367.07 227.578
L367.517 235.083
L367.963 231.56
L368.41 231.743
L368.856 232.534
L369.749 230.597
L370.195 228.26
L370.642 228.438
L371.088 231.001
L371.534 234.538
L371.981 231.289
L372.427 232.776
L372.874 234.855
L373.32 231.401
L373.766 232.474
L374.213 235.664
L374.659 232.229
L375.106 231.059
L375.552 233.562
L375.998 231.752
L376.445 226.345
L376.891 225.994
L377.338 234.517
L377.784 234.094
L378.23 229.014
L378.677 237.036
L379.123 228.871
L379.57 229.023
L380.016 234.826
L380.462 231.369
L380.909 229.683
L381.355 234.26
L381.802 231.757
L382.248 225.484
L382.694 230.649
L383.141 228.671
L383.587 223.544
L384.034 231.269
L384.48 234.417
L384.926 229.919
L385.373 235.022
L385.819 236.637
L386.266 230.636
L386.712 228.193
L387.605 232.374
L388.051 231.139
L388.498 238.682
L388.944 227.42
L389.39 232.691
L389.837 229.433
L390.283 231.16
L390.73 234.993
L391.176 229.969
L391.622 230.29
L392.069 237.192
L392.962 227.831
L393.408 232.616
L393.854 231.89
L394.301 228.613
L394.747 236.974
L395.194 228.122
L395.64 228.061
L396.086 229.281
L396.533 236.008
L396.979 230.965
L397.426 230.959
L397.872 235.909
L398.318 228.004
L398.765 228.564
L399.211 236.39
L399.658 228.398
L400.104 230.226
L400.55 236.472
L400.997 230.219
L401.443 226.134
L401.89 228.311
L402.782 235.24
L403.229 230.279
L403.675 230.996
L404.122 236.391
L404.568 229.514
L405.014 231.462
L405.461 235.461
L405.907 228.277
L406.354 229.949
L406.8 234.803
L407.246 231.853
L407.693 222.917
L408.139 227.25
L408.586 237.306
L409.032 229.807
L409.478 232.674
L409.925 230.232
L410.371 229.485
L410.818 236.943
L411.71 226.942
L412.157 236.206
L412.603 231.425
L413.05 228.94
L413.496 237.857
L413.942 228.186
L414.389 234.111
L414.835 230.947
L415.282 229.116
L415.728 235.759
L416.621 229.057
L417.067 235.116
L417.514 232.214
L417.96 227.133
L418.406 233.121
L418.853 230.788
L419.299 229.836
L419.746 234.916
L420.192 230.885
L420.638 233.384
L421.085 229.064
L421.531 231.441
L421.978 235.327
L422.424 228.259
L422.87 231.835
L423.317 234.298
L423.763 226.954
L424.21 229.783
L424.656 233.759
L425.102 230.287
L425.549 231.334
L425.995 236.295
L426.442 227.03
L426.888 224.941
L427.334 237.768
L427.781 230.631
L428.227 230.832
L428.674 235.547
L429.12 230.83
L429.566 227.949
L430.013 235.745
L430.459 228.176
L430.906 228.547
L431.352 229.712
L431.798 234.325
L432.245 230.366
L433.138 227.174
L433.584 235.534
L434.03 231.438
L434.477 228.537
L434.923 236.917
L435.37 229.993
L435.816 228.619
L436.262 234.42
L436.709 232.838
L437.155 227.673
L437.602 233.156
L438.048 231.178
L438.494 226.557
L438.941 226.855
L439.834 234.558
L440.28 230.686
L440.726 232.009
L441.173 232.955
L441.619 228.831
L442.066 232.663
L442.512 232.674
L442.958 232.295
L443.405 228.461
L443.851 235.408
L444.298 231.497
L444.744 229.026
L445.637 232.962
L446.083 231.129
L446.53 227.312
L446.976 233.946
L447.422 230.95
L447.869 229.739
L448.315 239.115
L448.762 228.774
L449.208 229.474
L449.654 236.389
L450.101 232.161
L450.547 229.274
L450.994 235.689
L451.44 221.67
L451.886 231.939
L452.333 229.744
L452.779 230.778
L453.226 232.775
L453.672 231.565
L454.118 231.789
L454.565 234.024
L455.011 231.648
L455.458 233.052
L455.904 236.044
L456.35 232.089
L456.797 230.877
L457.243 237.662
L457.69 219.848
L458.582 235.916
L459.029 231.929
L459.475 230.431
L459.922 237.249
L460.814 228.121
L461.261 235.099
L461.707 230.577
L462.154 231.094
L462.6 233.313
L463.046 227.419
L463.493 225.399
L463.939 226.828
L464.386 221.173
L464.832 232.942
L465.278 224.66
L465.725 222.861
L466.171 233.125
L466.618 222.973
L467.064 223.109
L467.51 231.661
L467.957 227.354
L468.403 225.032
L468.85 230.457
L469.296 227.236
L469.742 225.467
L470.189 348.386
L470.635 224.766
L471.082 223.599
L471.528 233.406
L471.974 225.584
L472.421 222.492
L472.867 229.944
L473.314 225.718
L473.76 224.883
L474.206 229.195
L474.653 225.863
L475.099 225.714
L475.546 229.989
L475.992 219.591
L476.438 225.729
L476.885 225.217
L477.331 219.263
L477.778 231.351
L478.224 225.284
L478.67 223.349
L479.117 231.021
L479.563 226.09
L480.01 224.232
L480.456 231.104
L480.902 226.888
L481.349 224.118
L481.795 224.553
L482.242 193.925
L482.688 224.022
L483.134 231.17
L484.027 221.188
L484.474 231.728
L485.366 223.106
L485.813 231.753
L486.259 224.909
L486.706 223.123
L487.152 232.326
L487.598 219.069
L488.045 225.001
L488.491 224.709
L488.938 231.118
L489.384 225.954
L489.83 226.318
L490.277 228.196
L490.723 225.448
L491.17 224.259
L491.616 230.694
L492.062 224.652
L492.509 224.596
L492.955 230.572
L493.402 221.795
L493.848 346.708
L494.294 228.137
L494.741 225.341
L495.187 225.266
L496.08 229.861
L496.526 224.936
L496.973 227.294
L497.419 228.421
L497.866 226.21
L498.312 228.359
L498.758 227.91
L499.205 225.947
L499.651 230.004
L500.098 224.386
L500.544 225.607
L500.99 233.294
L501.437 224.955
L501.883 222.851
L502.33 232.41
L502.776 225.041
L503.222 225.289
L503.669 231.027
L504.115 225.986
L504.562 223.911
L505.008 231.333
L505.454 221.887
L505.901 225.923
L506.347 223.122
L506.794 234.379
L507.24 228.021
L507.686 223.965
L508.133 231.663
L509.026 224.768
L509.472 227.395
L509.918 225.465
L510.365 226.5
L510.811 230.382
L511.704 221.758
L512.15 221.6
L512.597 234.161
L513.043 226.108
L513.49 222.62
L513.936 233.339
L514.382 224.278
L514.829 223.702
L515.275 226.172
L515.722 226.32
L516.168 224.344
L516.614 230.972
L517.507 220.075
L517.954 347.545
L517.954 347.545" style="fill:none;opacity:0.7;stroke:#008000;"/>
   </g>
   <g id="line2d_3">
    <path clip-path="url(#p7ff5b81e1d)" d="
M72 268.923
L72.4464 172.046
L72.8928 173.394
L73.3392 249.819
L73.7856 164.814
L74.232 173.405
L74.6784 164.211
L75.1248 174.639
L75.5712 176.697
L76.0176 255.292
L76.464 173.141
L76.9104 177.225
L77.3568 157.518
L77.8032 176.361
L78.2496 177.055
L78.696 175.297
L79.1424 251.429
L79.5888 179.134
L80.0352 255.015
L80.4816 254.869
L80.928 175.685
L81.3744 178.567
L81.8208 245.356
L82.2672 173.447
L82.7136 174.363
L83.16 170.212
L83.6064 260.033
L84.0528 164.888
L84.4992 172.363
L84.9456 175.434
L85.392 259.371
L85.8384 162.224
L86.2848 161.091
L86.7312 246.892
L87.1776 172.855
L87.624 176.659
L88.0704 171.825
L88.5168 175.105
L88.9632 256.738
L89.4096 258.942
L89.856 173.407
L90.3024 253.228
L90.7488 257.112
L91.1952 258.336
L91.6416 255.621
L92.088 254.482
L92.5344 244.113
L92.9808 166.275
L93.4272 258.181
L93.8736 255.598
L94.32 255.981
L94.7664 179.243
L95.2128 256.04
L95.6592 173.594
L96.1056 259.918
L96.552 176.469
L96.9984 254.138
L97.4448 254.105
L97.8912 258.703
L98.3376 255.285
L98.784 171.558
L99.2304 254.621
L99.6768 255.774
L100.123 177.763
L100.57 254.24
L101.016 255.892
L101.462 255.879
L101.909 178.765
L102.355 256.172
L102.802 163.568
L103.248 254.798
L103.694 258.103
L104.141 256.72
L104.587 162.724
L105.034 254.022
L105.48 180.274
L105.926 254.97
L106.373 254.272
L106.819 269.064
L107.266 259.281
L107.712 174.757
L108.158 253.504
L108.605 259.335
L109.051 255.562
L109.498 255.787
L109.944 253.218
L110.39 148.787
L110.837 254.299
L111.283 255.558
L111.73 256.064
L112.176 157.908
L112.622 259.597
L113.069 248.427
L113.515 254.631
L113.962 255.876
L114.408 258.253
L114.854 257.615
L115.301 249.879
L115.747 255.992
L116.194 259.386
L116.64 255.876
L117.086 256.062
L117.533 175.459
L117.979 255.763
L118.426 255.492
L118.872 260.36
L119.318 255.141
L119.765 253.732
L120.658 259.431
L121.104 175.62
L121.55 253.219
L121.997 258.032
L122.443 260.688
L122.89 255.765
L123.336 254.659
L123.782 259.499
L124.229 257.509
L124.675 249.601
L125.122 256.66
L125.568 257.459
L126.014 178.287
L126.461 253.009
L126.907 180.489
L127.354 257.203
L127.8 254.304
L128.246 255.222
L128.693 179.194
L129.139 254.512
L129.586 254.91
L130.478 258.088
L130.925 160.419
L131.371 257.101
L131.818 255.27
L132.264 255.866
L132.71 259.28
L133.157 255.707
L133.603 255.123
L134.05 256.247
L134.496 258.655
L134.942 255.962
L135.389 254.931
L135.835 258.112
L136.282 256.759
L136.728 256.399
L137.174 254.35
L137.621 258.639
L138.067 250.951
L138.514 253.703
L138.96 259.607
L139.406 257.15
L139.853 257.342
L140.299 254.838
L140.746 261.298
L141.192 253.248
L141.638 257.332
L142.085 255.155
L142.531 259.873
L142.978 257.219
L143.424 256.001
L143.87 256.07
L144.317 259.318
L144.763 255.908
L145.21 254.023
L145.656 249.76
L146.102 260.685
L146.549 254.405
L146.995 256.883
L147.442 266.678
L147.888 259.156
L148.334 255.351
L148.781 255.171
L149.227 260.362
L149.674 257.044
L150.12 255.636
L150.566 254.985
L151.013 262.066
L151.459 254.26
L151.906 255.051
L152.352 254.537
L152.798 255.877
L153.245 257.892
L153.691 254.841
L154.138 256.454
L154.584 257.031
L155.03 258.892
L155.477 256.087
L155.923 254.964
L156.37 260.871
L156.816 258.734
L157.262 254.744
L157.709 255.251
L158.155 257.233
L159.048 254.922
L159.494 252.989
L159.941 246.624
L160.387 256.838
L160.834 252.295
L161.28 260.905
L161.726 255.689
L162.173 255.443
L162.619 254.824
L163.066 260.755
L163.512 259.031
L163.958 256.515
L164.405 251.51
L164.851 258.667
L165.298 254.768
L165.744 256.048
L166.19 256.516
L166.637 260.575
L167.083 256.547
L167.53 347.951
L167.976 255.544
L168.422 259.409
L168.869 258.254
L169.315 254.907
L169.762 259.022
L170.208 260.391
L170.654 256.783
L171.101 254.914
L171.547 259.597
L171.994 258.016
L172.44 257.095
L172.886 254.371
L173.333 258.727
L173.779 255.232
L174.226 247.926
L174.672 257.589
L175.118 258.705
L175.565 257.177
L176.011 254.673
L176.458 258.977
L176.904 256.426
L177.35 255.5
L177.797 256.251
L178.243 257.556
L178.69 256.085
L179.136 252.916
L179.582 258.937
L180.029 258.334
L180.475 257.538
L180.922 250.175
L181.368 257.547
L181.814 251.672
L182.261 256.813
L182.707 253.024
L183.154 261.905
L183.6 255.944
L184.046 256.701
L184.493 256.201
L184.939 254.929
L185.386 255.65
L185.832 253.703
L186.278 174.838
L186.725 257.971
L187.171 251.268
L187.618 255.438
L188.064 255.984
L188.51 252.435
L188.957 251.398
L189.403 256.075
L189.85 254.339
L190.296 256.578
L190.742 257.121
L191.189 259.997
L191.635 256.952
L192.082 252.405
L192.528 257.825
L192.974 260.356
L193.421 255.586
L193.867 252.735
L194.314 259.994
L194.76 257.369
L195.206 255.853
L195.653 253.116
L196.099 252.244
L196.546 261.45
L197.438 253.015
L198.331 259.834
L198.778 253.149
L199.224 252.221
L199.67 256.704
L200.117 254.917
L200.563 255.586
L201.01 250.778
L201.456 259.769
L201.902 257.467
L202.795 254.81
L203.242 256.012
L203.688 254.163
L204.134 253.384
L204.581 255.503
L205.027 258.966
L205.474 254.994
L205.92 252.795
L206.813 260.02
L207.259 257.066
L207.706 255.976
L208.152 258.992
L208.598 258.288
L209.045 255.066
L209.491 255.188
L209.938 162.696
L210.384 305.855
L210.83 256.504
L211.277 254.549
L211.723 258.978
L212.17 258.82
L213.062 253.631
L213.509 260.132
L213.955 255.821
L214.402 257.516
L214.848 254.239
L215.294 260.324
L216.187 255.679
L216.634 255.442
L217.08 257.347
L217.526 255.672
L217.973 255.163
L218.419 259.353
L218.866 255.238
L219.312 253.827
L219.758 257.314
L220.205 258.597
L220.651 255.911
L221.098 254.19
L221.544 259.667
L221.99 256.804
L222.437 258.778
L222.883 256.193
L223.33 258.824
L223.776 257.465
L224.222 257.153
L224.669 251.034
L225.115 253.752
L225.562 259.299
L226.008 256.22
L226.454 258.375
L226.901 256.337
L227.347 260.308
L228.24 255.549
L228.686 255.98
L229.133 259.043
L229.579 258.331
L230.026 253.82
L230.472 260.521
L230.918 256.602
L231.365 254.18
L231.811 252.513
L232.258 346.882
L232.704 252.161
L233.15 257.938
L233.597 251.68
L234.043 259.39
L234.49 258.703
L234.936 257.212
L235.382 254.656
L235.829 260.418
L236.275 255.446
L236.722 257.985
L237.168 256.547
L237.614 251.829
L238.061 258.709
L238.507 256.452
L238.954 257.052
L239.4 255.698
L239.846 255.343
L240.293 256.685
L240.739 261.278
L241.186 256.647
L241.632 253.886
L242.078 258.396
L242.525 259.692
L242.971 256.86
L243.418 255.239
L243.864 259.23
L244.31 257.977
L244.757 257.411
L245.203 251.013
L245.65 260.197
L246.096 256.927
L246.542 255.102
L246.989 255.222
L247.435 257.164
L247.882 260.829
L248.328 254.264
L248.774 255.339
L249.667 259.633
L250.114 253.758
L250.56 255.493
L251.006 259.293
L251.453 258.427
L251.899 255.368
L252.346 255.252
L252.792 258.867
L253.238 256.247
L253.685 250.186
L254.131 251.699
L254.578 261.56
L255.024 255.937
L255.47 256.684
L255.917 256.742
L256.363 260.2
L256.81 251.819
L257.256 254.991
L257.702 254.967
L258.149 260.005
L258.595 256.841
L259.042 255.193
L259.488 254.744
L259.934 259.797
L260.381 258.927
L260.827 254.855
L261.274 253.124
L261.72 257.446
L262.166 258.274
L262.613 257.52
L263.059 255.142
L263.506 260.014
L263.952 259.466
L264.398 254.993
L264.845 254.758
L265.291 258.691
L265.738 258.459
L266.184 255.255
L266.63 250.65
L267.077 261.959
L267.523 257.053
L267.97 254.082
L268.416 253.366
L268.862 251.66
L269.309 253.602
L269.755 253.331
L270.202 259.548
L270.648 257.579
L271.094 258.322
L271.541 253.599
L271.987 260.245
L272.434 255.931
L272.88 257.55
L273.326 256.613
L273.773 259.94
L274.219 255
L275.112 257.046
L275.558 258.968
L276.005 250.154
L276.451 253.982
L276.898 253.573
L277.344 258.013
L277.79 259.542
L278.237 256.94
L278.683 252.291
L279.576 259.577
L280.022 254.65
L280.469 251.547
L280.915 257.455
L281.362 255.374
L281.808 255.827
L282.254 249.15
L282.701 258.897
L283.147 248.809
L283.594 251.091
L284.04 256.654
L284.933 253.331
L285.379 253.767
L285.826 258.675
L286.272 254.395
L286.718 253.044
L287.165 255.329
L287.611 256.007
L288.058 255.668
L288.504 251.228
L288.95 258.082
L289.397 252.708
L289.843 254.353
L290.29 242.666
L290.736 250.257
L291.182 252.921
L291.629 257.027
L292.075 254.086
L292.522 253.861
L292.968 252.615
L293.414 258.758
L293.861 255.216
L294.307 253.383
L294.754 257.019
L295.2 255.41
L295.646 251.345
L296.093 248.633
L296.539 257.955
L296.986 254.641
L297.432 243.844
L297.878 252.253
L298.325 256.98
L298.771 255.313
L299.218 251.578
L299.664 257.547
L300.11 257.662
L300.557 252.148
L301.003 251.995
L301.45 257.803
L301.896 255.313
L302.342 253.661
L302.789 247.845
L303.235 254.644
L303.682 252.763
L304.128 252.992
L304.574 248.618
L305.021 248.661
L305.467 259.329
L305.914 252.723
L306.36 252.262
L306.806 256.017
L307.253 258.012
L307.699 255.034
L308.146 249.965
L308.592 258.163
L309.038 256.317
L309.485 252.591
L309.931 253.098
L310.378 258.255
L310.824 252.004
L311.27 253.245
L311.717 244.213
L312.163 254.068
L312.61 253.383
L313.056 253.242
L313.502 259.475
L314.395 253.194
L315.288 257.977
L316.181 250.624
L316.627 254.463
L317.074 255.814
L317.52 254.049
L317.966 251.085
L318.413 258.867
L318.859 251.189
L319.306 249.539
L319.752 256.728
L320.198 253.586
L320.645 254.892
L321.091 253.653
L321.538 257.241
L321.984 253.547
L322.43 251.767
L322.877 257.502
L323.323 255.575
L323.77 251.712
L324.216 251.946
L324.662 258.268
L325.109 254.016
L325.555 254.434
L326.002 249.964
L326.448 255.132
L326.894 255.042
L327.341 252.648
L327.787 257.464
L328.234 254.828
L328.68 254.825
L329.126 247.522
L329.573 256.673
L330.019 254.053
L330.466 253.052
L330.912 249.466
L331.358 258.369
L332.251 253.731
L332.698 254.713
L333.144 251.02
L333.59 254.453
L334.037 253.208
L334.483 258.996
L334.93 253.239
L335.376 252.851
L335.822 256.212
L336.269 257.118
L336.715 254.301
L337.162 252.619
L337.608 257.913
L338.054 252.892
L338.501 254.293
L338.947 252.083
L339.394 258.486
L339.84 254.462
L340.286 241.829
L340.733 258.574
L341.179 251.864
L341.626 253.713
L342.072 254.096
L342.518 257.69
L342.965 247.597
L343.858 257.655
L344.304 252.292
L344.75 254.255
L345.197 250.646
L345.643 257.074
L346.09 254.366
L346.536 254.441
L346.982 254.362
L347.429 248.443
L347.875 255.642
L348.322 251.739
L348.768 258.675
L349.214 254.082
L349.661 251.368
L350.107 253.858
L350.554 257.786
L351 254.392
L351.446 253.258
L351.893 257.05
L352.339 256.271
L352.786 255.16
L353.232 251.68
L353.678 256.244
L354.125 253.053
L354.571 248.139
L355.018 256.093
L355.464 253.948
L355.91 253.476
L356.357 249.687
L356.803 256.107
L357.25 255.108
L357.696 254.466
L358.142 252.986
L358.589 256.948
L359.035 251.366
L359.482 250.926
L359.928 253.864
L360.374 258.442
L360.821 252.863
L361.267 251.52
L361.714 251.125
L362.16 257.363
L362.606 253.13
L363.053 254.589
L363.946 256.644
L364.392 253.011
L364.838 252.469
L365.285 256.105
L365.731 254.855
L366.178 255.116
L366.624 251.338
L367.07 258.358
L367.517 253.735
L367.963 251.911
L368.41 256.003
L368.856 252.755
L369.302 253.459
L369.749 252.246
L370.195 259.544
L370.642 254.116
L371.088 250.369
L371.534 257.875
L372.427 255.886
L372.874 254.05
L373.32 257.086
L373.766 252.564
L374.213 255.943
L374.659 254.426
L375.106 258.75
L375.552 253.371
L375.998 246.12
L376.445 256.291
L376.891 251.871
L377.338 254.251
L377.784 255.786
L378.23 259.069
L378.677 253.517
L379.123 253.304
L379.57 256.578
L380.016 255.743
L380.462 252.198
L380.909 257.601
L381.355 253.857
L381.802 254.483
L382.248 254.594
L382.694 257.622
L383.141 247.673
L383.587 254.333
L384.48 252.66
L384.926 260.094
L385.373 253.922
L385.819 251.931
L386.712 258.855
L387.158 252.191
L387.605 251.294
L388.051 255.439
L388.498 254.204
L388.944 254.847
L389.39 256.096
L389.837 264.626
L390.283 249.208
L390.73 251.577
L391.176 256.963
L391.622 253.61
L392.069 255.31
L392.515 254.889
L392.962 257.959
L393.408 253.206
L393.854 252.532
L394.301 257.287
L394.747 257.484
L395.194 253.069
L395.64 253.774
L396.086 256.864
L396.533 253.093
L396.979 254.368
L397.426 248.081
L397.872 256.093
L398.318 254.57
L398.765 251.893
L399.211 257.04
L399.658 253.408
L400.104 253.672
L400.997 255.316
L401.443 254.822
L401.89 252.237
L402.336 256.063
L402.782 256.974
L403.229 252.941
L403.675 252.499
L404.122 256.143
L404.568 249.12
L405.014 253.288
L405.461 252.837
L405.907 259.131
L406.354 252.579
L406.8 253.288
L407.246 256.217
L407.693 254.926
L408.139 254.894
L408.586 252.073
L409.032 255.441
L409.478 253.573
L409.925 254.891
L410.371 253.332
L410.818 256.538
L411.264 252.079
L411.71 251.224
L412.157 258.336
L412.603 253.302
L413.05 253.824
L413.496 253.765
L413.942 258.019
L414.389 253.651
L414.835 251.981
L415.282 257.567
L415.728 255.754
L416.174 255.204
L416.621 250.281
L417.067 258.159
L417.514 254.429
L417.96 252.506
L418.406 255.927
L418.853 256.941
L419.299 254.74
L419.746 251.223
L420.192 258.768
L420.638 253.842
L421.085 254.104
L421.531 253.784
L421.978 256.542
L422.424 252.964
L422.87 251.227
L423.317 258.45
L423.763 249.341
L424.21 256.064
L424.656 252.451
L425.102 257.393
L425.549 254.048
L425.995 252.087
L426.442 256.229
L427.334 254.755
L427.781 253.676
L428.227 258.648
L428.674 250.683
L429.12 250.902
L429.566 256.191
L430.013 258.706
L430.459 249.659
L430.906 253.525
L431.352 255.43
L431.798 256.602
L432.245 251.081
L432.691 251.468
L433.138 252.179
L433.584 251.346
L434.03 249.193
L434.477 255.027
L434.923 255.726
L435.37 254.567
L435.816 250.009
L436.262 256.886
L436.709 253.757
L437.155 255.305
L437.602 252.663
L438.048 255.728
L438.494 252.778
L438.941 253.047
L439.387 255.581
L439.834 254.738
L440.28 250.003
L440.726 252.996
L441.173 256.94
L441.619 252.488
L442.066 250.5
L442.512 255.798
L442.958 254.864
L443.405 253.65
L443.851 251.203
L444.298 257.48
L444.744 253.327
L445.19 250.285
L445.637 253.121
L446.083 257.895
L446.53 250.899
L446.976 252.586
L447.422 249.782
L447.869 251.197
L448.315 251.05
L448.762 255.013
L449.208 256.629
L450.101 250.345
L450.547 256.374
L450.994 251.886
L451.44 250.82
L451.886 250.531
L452.333 257.244
L452.779 252.916
L453.226 250.69
L453.672 254.903
L454.118 255.769
L454.565 245.23
L455.011 252.424
L455.458 256.532
L455.904 252.41
L456.35 251.257
L456.797 256.444
L457.243 254.316
L457.69 248.981
L458.136 249.836
L458.582 254.878
L459.029 253.033
L459.475 254.002
L459.922 248.92
L460.368 257.397
L460.814 251.825
L461.261 252.59
L461.707 247.287
L462.154 248.986
L462.6 252.817
L463.046 253.352
L463.493 253.177
L463.939 250.979
L464.386 255.312
L464.832 256.772
L465.278 251.888
L466.171 254.168
L466.618 254.941
L467.064 255.22
L467.51 253.079
L467.957 254.679
L468.403 252.447
L468.85 246.147
L469.742 256.173
L470.189 256.246
L470.635 254.489
L471.082 251.598
L471.528 253.432
L471.974 252.111
L472.421 254.783
L472.867 253.921
L473.314 253.426
L473.76 253.975
L474.206 251.136
L474.653 255.916
L475.099 256.566
L475.546 254.501
L475.992 248.048
L476.438 256.366
L476.885 251.75
L477.331 252.489
L477.778 256.039
L478.224 254.877
L478.67 251.433
L479.117 251.241
L479.563 257.431
L480.456 250.153
L480.902 255.255
L481.349 256.837
L481.795 249.338
L482.242 251.338
L482.688 254.744
L483.134 249.887
L483.581 253.002
L484.027 249.795
L484.474 256.073
L485.366 252.203
L485.813 251.773
L486.259 257.308
L486.706 252.568
L487.152 252.087
L487.598 251.828
L488.045 257.252
L488.491 252.455
L488.938 251.843
L489.384 255.872
L489.83 253.353
L490.277 243.273
L490.723 255.209
L491.17 256.027
L492.062 250.875
L492.509 255.811
L492.955 250.923
L493.402 252.462
L493.848 254.499
L494.294 254.93
L494.741 254.964
L495.187 250.836
L495.634 254.204
L496.08 255.469
L496.973 251.881
L497.419 249.574
L497.866 253.441
L498.312 251.684
L498.758 256.145
L500.098 251.699
L500.544 258.193
L501.437 249.548
L501.883 254.823
L502.33 256.117
L503.222 250.048
L503.669 256.019
L504.562 248.887
L505.008 255.319
L505.454 253.196
L505.901 253.93
L506.347 251.522
L506.794 255.52
L507.24 253.19
L507.686 251.905
L508.133 251.895
L508.579 254.446
L509.026 251.744
L509.472 253.649
L509.918 252.28
L510.365 257.165
L510.811 251.62
L511.258 252.286
L511.704 250.793
L512.15 252.552
L512.597 253.175
L513.043 255.242
L513.49 256.747
L513.936 252.972
L514.382 250.609
L514.829 255.969
L515.275 252.504
L515.722 251.228
L516.168 251.099
L516.614 258.222
L517.061 252.887
L517.507 250.708
L517.954 253.402
L517.954 253.402" style="fill:none;opacity:0.5;stroke:#0000ff;"/>
   </g>
   <g id="matplotlib.axis_1">
    <g id="xtick_1">
     <g id="line2d_4">
      <path clip-path="url(#p7ff5b81e1d)" d="
M72 388.8
L72 43.2" style="fill:none;stroke:#000000;stroke-dasharray:1.000000,3.000000;stroke-dashoffset:0.0;stroke-linecap:butt;stroke-width:0.5;"/>
     </g>
     <g id="line2d_5">
      <defs>
       <path d="
M0 0
L0 -4" id="m0012dd4eef" style="stroke:#000000;stroke-linecap:butt;stroke-width:0.5;"/>
      </defs>
      <g>
       <use style="stroke:#000000;stroke-linecap:butt;stroke-width:0.5;" x="72.0" xlink:href="#m0012dd4eef" y="388.8"/>
      </g>
     </g>
     <g id="line2d_6">
      <defs>
       <path d="
M0 0
L0 4" id="m476344969c" style="stroke:#000000;stroke-linecap:butt;stroke-width:0.5;"/>
      </defs>
      <g>
       <use style="stroke:#000000;stroke-linecap:butt;stroke-width:0.5;" x="72.0" xlink:href="#m476344969c" y="43.2"/>
      </g>
     </g>
     <g id="text_1">
      <!-- 0 -->
      <defs>
       <path d="
M31.7812 66.4062
Q24.1719 66.4062 20.3281 58.9062
Q16.5 51.4219 16.5 36.375
Q16.5 21.3906 20.3281 13.8906
Q24.1719 6.39062 31.7812 6.39062
Q39.4531 6.39062 43.2812 13.8906
Q47.125 21.3906 47.125 36.375
Q47.125 51.4219 43.2812 58.9062
Q39.4531 66.4062 31.7812 66.4062
M31.7812 74.2188
Q44.0469 74.2188 50.5156 64.5156
Q56.9844 54.8281 56.9844 36.375
Q56.9844 17.9688 50.5156 8.26562
Q44.0469 -1.42188 31.7812 -1.42188
Q19.5312 -1.42188 13.0625 8.26562
Q6.59375 17.9688 6.59375 36.375
Q6.59375 54.8281 13.0625 64.5156
Q19.5312 74.2188 31.7812 74.2188" id="BitstreamVeraSans-Roman-30"/>
      </defs>
      <g transform="translate(68.9765625 401.70625)scale(0.12 -0.12)">
       <use xlink:href="#BitstreamVeraSans-Roman-30"/>
      </g>
     </g>
    </g>
    <g id="xtick_2">
     <g id="line2d_7">
      <path clip-path="url(#p7ff5b81e1d)" d="
M116.64 388.8
L116.64 43.2" style="fill:none;stroke:#000000;stroke-dasharray:1.000000,3.000000;stroke-dashoffset:0.0;stroke-linecap:butt;stroke-width:0.5;"/>
     </g>
     <g id="line2d_8">
      <g>
       <use style="stroke:#000000;stroke-linecap:butt;stroke-width:0.5;" x="116.64" xlink:href="#m0012dd4eef" y="388.8"/>
      </g>
     </g>
     <g id="line2d_9">
      <g>
       <use style="stroke:#000000;stroke-linecap:butt;stroke-width:0.5;" x="116.64" xlink:href="#m476344969c" y="43.2"/>
      </g>
     </g>
     <g id="text_2">
      <!-- 100 -->
      <defs>
       <path d="
M12.4062 8.29688
L28.5156 8.29688
L28.5156 63.9219
L10.9844 60.4062
L10.9844 69.3906
L28.4219 72.9062
L38.2812 72.9062
L38.2812 8.29688
L54.3906 8.29688
L54.3906 0
L12.4062 0
z
" id="BitstreamVeraSans-Roman-31"/>
      </defs>
      <g transform="translate(106.245 401.70625)scale(0.12 -0.12)">
       <use xlink:href="#BitstreamVeraSans-Roman-31"/>
       <use x="63.623046875" xlink:href="#BitstreamVeraSans-Roman-30"/>
       <use x="127.24609375" xlink:href="#BitstreamVeraSans-Roman-30"/>
      </g>
     </g>
    </g>
    <g id="xtick_3">
     <g id="line2d_10">
      <path clip-path="url(#p7ff5b81e1d)" d="
M161.28 388.8
L161.28 43.2" style="fill:none;stroke:#000000;stroke-dasharray:1.000000,3.000000;stroke-dashoffset:0.0;stroke-linecap:butt;stroke-width:0.5;"/>
     </g>
     <g id="line2d_11">
      <g>
       <use style="stroke:#000000;stroke-linecap:butt;stroke-width:0.5;" x="161.28" xlink:href="#m0012dd4eef" y="388.8"/>
      </g>
     </g>
     <g id="line2d_12">
      <g>
       <use style="stroke:#000000;stroke-linecap:butt;stroke-width:0.5;" x="161.28" xlink:href="#m476344969c" y="43.2"/>
      </g>
     </g>
     <g id="text_3">
      <!-- 200 -->
      <defs>
       <path d="
M19.1875 8.29688
L53.6094 8.29688
L53.6094 0
L7.32812 0
L7.32812 8.29688
Q12.9375 14.1094 22.625 23.8906
Q32.3281 33.6875 34.8125 36.5312
Q39.5469 41.8438 41.4219 45.5312
Q43.3125 49.2188 43.3125 52.7812
Q43.3125 58.5938 39.2344 62.25
Q35.1562 65.9219 28.6094 65.9219
Q23.9688 65.9219 18.8125 64.3125
Q13.6719 62.7031 7.8125 59.4219
L7.8125 69.3906
Q13.7656 71.7812 18.9375 73
Q24.125 74.2188 28.4219 74.2188
Q39.75 74.2188 46.4844 68.5469
Q53.2188 62.8906 53.2188 53.4219
Q53.2188 48.9219 51.5312 44.8906
Q49.8594 40.875 45.4062 35.4062
Q44.1875 33.9844 37.6406 27.2188
Q31.1094 20.4531 19.1875 8.29688" id="BitstreamVeraSans-Roman-32"/>
      </defs>
      <g transform="translate(150.665625 401.70625)scale(0.12 -0.12)">
       <use xlink:href="#BitstreamVeraSans-Roman-32"/>
       <use x="63.623046875" xlink:href="#BitstreamVeraSans-Roman-30"/>
       <use x="127.24609375" xlink:href="#BitstreamVeraSans-Roman-30"/>
      </g>
     </g>
    </g>
    <g id="xtick_4">
     <g id="line2d_13">
      <path clip-path="url(#p7ff5b81e1d)" d="
M205.92 388.8
L205.92 43.2" style="fill:none;stroke:#000000;stroke-dasharray:1.000000,3.000000;stroke-dashoffset:0.0;stroke-linecap:butt;stroke-width:0.5;"/>
     </g>
     <g id="line2d_14">
      <g>
       <use style="stroke:#000000;stroke-linecap:butt;stroke-width:0.5;" x="205.92" xlink:href="#m0012dd4eef" y="388.8"/>
      </g>
     </g>
     <g id="line2d_15">
      <g>
       <use style="stroke:#000000;stroke-linecap:butt;stroke-width:0.5;" x="205.92" xlink:href="#m476344969c" y="43.2"/>
      </g>
     </g>
     <g id="text_4">
      <!-- 300 -->
      <defs>
       <path d="
M40.5781 39.3125
Q47.6562 37.7969 51.625 33
Q55.6094 28.2188 55.6094 21.1875
Q55.6094 10.4062 48.1875 4.48438
Q40.7656 -1.42188 27.0938 -1.42188
Q22.5156 -1.42188 17.6562 -0.515625
Q12.7969 0.390625 7.625 2.20312
L7.625 11.7188
Q11.7188 9.32812 16.5938 8.10938
Q21.4844 6.89062 26.8125 6.89062
Q36.0781 6.89062 40.9375 10.5469
Q45.7969 14.2031 45.7969 21.1875
Q45.7969 27.6406 41.2812 31.2656
Q36.7656 34.9062 28.7188 34.9062
L20.2188 34.9062
L20.2188 43.0156
L29.1094 43.0156
Q36.375 43.0156 40.2344 45.9219
Q44.0938 48.8281 44.0938 54.2969
Q44.0938 59.9062 40.1094 62.9062
Q36.1406 65.9219 28.7188 65.9219
Q24.6562 65.9219 20.0156 65.0312
Q15.375 64.1562 9.8125 62.3125
L9.8125 71.0938
Q15.4375 72.6562 20.3438 73.4375
Q25.25 74.2188 29.5938 74.2188
Q40.8281 74.2188 47.3594 69.1094
Q53.9062 64.0156 53.9062 55.3281
Q53.9062 49.2656 50.4375 45.0938
Q46.9688 40.9219 40.5781 39.3125" id="BitstreamVeraSans-Roman-33"/>
      </defs>
      <g transform="translate(195.3234375 401.70625)scale(0.12 -0.12)">
       <use xlink:href="#BitstreamVeraSans-Roman-33"/>
       <use x="63.623046875" xlink:href="#BitstreamVeraSans-Roman-30"/>
       <use x="127.24609375" xlink:href="#BitstreamVeraSans-Roman-30"/>
      </g>
     </g>
    </g>
    <g id="xtick_5">
     <g id="line2d_16">
      <path clip-path="url(#p7ff5b81e1d)" d="
M250.56 388.8
L250.56 43.2" style="fill:none;stroke:#000000;stroke-dasharray:1.000000,3.000000;stroke-dashoffset:0.0;stroke-linecap:butt;stroke-width:0.5;"/>
     </g>
     <g id="line2d_17">
      <g>
       <use style="stroke:#000000;stroke-linecap:butt;stroke-width:0.5;" x="250.56" xlink:href="#m0012dd4eef" y="388.8"/>
      </g>
     </g>
     <g id="line2d_18">
      <g>
       <use style="stroke:#000000;stroke-linecap:butt;stroke-width:0.5;" x="250.56" xlink:href="#m476344969c" y="43.2"/>
      </g>
     </g>
     <g id="text_5">
      <!-- 400 -->
      <defs>
       <path d="
M37.7969 64.3125
L12.8906 25.3906
L37.7969 25.3906
z

M35.2031 72.9062
L47.6094 72.9062
L47.6094 25.3906
L58.0156 25.3906
L58.0156 17.1875
L47.6094 17.1875
L47.6094 0
L37.7969 0
L37.7969 17.1875
L4.89062 17.1875
L4.89062 26.7031
z
" id="BitstreamVeraSans-Roman-34"/>
      </defs>
      <g transform="translate(239.799375 401.70625)scale(0.12 -0.12)">
       <use xlink:href="#BitstreamVeraSans-Roman-34"/>
       <use x="63.623046875" xlink:href="#BitstreamVeraSans-Roman-30"/>
       <use x="127.24609375" xlink:href="#BitstreamVeraSans-Roman-30"/>
      </g>
     </g>
    </g>
    <g id="xtick_6">
     <g id="line2d_19">
      <path clip-path="url(#p7ff5b81e1d)" d="
M295.2 388.8
L295.2 43.2" style="fill:none;stroke:#000000;stroke-dasharray:1.000000,3.000000;stroke-dashoffset:0.0;stroke-linecap:butt;stroke-width:0.5;"/>
     </g>
     <g id="line2d_20">
      <g>
       <use style="stroke:#000000;stroke-linecap:butt;stroke-width:0.5;" x="295.2" xlink:href="#m0012dd4eef" y="388.8"/>
      </g>
     </g>
     <g id="line2d_21">
      <g>
       <use style="stroke:#000000;stroke-linecap:butt;stroke-width:0.5;" x="295.2" xlink:href="#m476344969c" y="43.2"/>
      </g>
     </g>
     <g id="text_6">
      <!-- 500 -->
      <defs>
       <path d="
M10.7969 72.9062
L49.5156 72.9062
L49.5156 64.5938
L19.8281 64.5938
L19.8281 46.7344
Q21.9688 47.4688 24.1094 47.8281
Q26.2656 48.1875 28.4219 48.1875
Q40.625 48.1875 47.75 41.5
Q54.8906 34.8125 54.8906 23.3906
Q54.8906 11.625 47.5625 5.09375
Q40.2344 -1.42188 26.9062 -1.42188
Q22.3125 -1.42188 17.5469 -0.640625
Q12.7969 0.140625 7.71875 1.70312
L7.71875 11.625
Q12.1094 9.23438 16.7969 8.0625
Q21.4844 6.89062 26.7031 6.89062
Q35.1562 6.89062 40.0781 11.3281
Q45.0156 15.7656 45.0156 23.3906
Q45.0156 31 40.0781 35.4375
Q35.1562 39.8906 26.7031 39.8906
Q22.75 39.8906 18.8125 39.0156
Q14.8906 38.1406 10.7969 36.2812
z
" id="BitstreamVeraSans-Roman-35"/>
      </defs>
      <g transform="translate(284.6090625 401.70625)scale(0.12 -0.12)">
       <use xlink:href="#BitstreamVeraSans-Roman-35"/>
       <use x="63.623046875" xlink:href="#BitstreamVeraSans-Roman-30"/>
       <use x="127.24609375" xlink:href="#BitstreamVeraSans-Roman-30"/>
      </g>
     </g>
    </g>
    <g id="xtick_7">
     <g id="line2d_22">
      <path clip-path="url(#p7ff5b81e1d)" d="
M339.84 388.8
L339.84 43.2" style="fill:none;stroke:#000000;stroke-dasharray:1.000000,3.000000;stroke-dashoffset:0.0;stroke-linecap:butt;stroke-width:0.5;"/>
     </g>
     <g id="line2d_23">
      <g>
       <use style="stroke:#000000;stroke-linecap:butt;stroke-width:0.5;" x="339.84" xlink:href="#m0012dd4eef" y="388.8"/>
      </g>
     </g>
     <g id="line2d_24">
      <g>
       <use style="stroke:#000000;stroke-linecap:butt;stroke-width:0.5;" x="339.84" xlink:href="#m476344969c" y="43.2"/>
      </g>
     </g>
     <g id="text_7">
      <!-- 600 -->
      <defs>
       <path d="
M33.0156 40.375
Q26.375 40.375 22.4844 35.8281
Q18.6094 31.2969 18.6094 23.3906
Q18.6094 15.5312 22.4844 10.9531
Q26.375 6.39062 33.0156 6.39062
Q39.6562 6.39062 43.5312 10.9531
Q47.4062 15.5312 47.4062 23.3906
Q47.4062 31.2969 43.5312 35.8281
Q39.6562 40.375 33.0156 40.375
M52.5938 71.2969
L52.5938 62.3125
Q48.875 64.0625 45.0938 64.9844
Q41.3125 65.9219 37.5938 65.9219
Q27.8281 65.9219 22.6719 59.3281
Q17.5312 52.7344 16.7969 39.4062
Q19.6719 43.6562 24.0156 45.9219
Q28.375 48.1875 33.5938 48.1875
Q44.5781 48.1875 50.9531 41.5156
Q57.3281 34.8594 57.3281 23.3906
Q57.3281 12.1562 50.6875 5.35938
Q44.0469 -1.42188 33.0156 -1.42188
Q20.3594 -1.42188 13.6719 8.26562
Q6.98438 17.9688 6.98438 36.375
Q6.98438 53.6562 15.1875 63.9375
Q23.3906 74.2188 37.2031 74.2188
Q40.9219 74.2188 44.7031 73.4844
Q48.4844 72.75 52.5938 71.2969" id="BitstreamVeraSans-Roman-36"/>
      </defs>
      <g transform="translate(329.205 401.70625)scale(0.12 -0.12)">
       <use xlink:href="#BitstreamVeraSans-Roman-36"/>
       <use x="63.623046875" xlink:href="#BitstreamVeraSans-Roman-30"/>
       <use x="127.24609375" xlink:href="#BitstreamVeraSans-Roman-30"/>
      </g>
     </g>
    </g>
    <g id="xtick_8">
     <g id="line2d_25">
      <path clip-path="url(#p7ff5b81e1d)" d="
M384.48 388.8
L384.48 43.2" style="fill:none;stroke:#000000;stroke-dasharray:1.000000,3.000000;stroke-dashoffset:0.0;stroke-linecap:butt;stroke-width:0.5;"/>
     </g>
     <g id="line2d_26">
      <g>
       <use style="stroke:#000000;stroke-linecap:butt;stroke-width:0.5;" x="384.48" xlink:href="#m0012dd4eef" y="388.8"/>
      </g>
     </g>
     <g id="line2d_27">
      <g>
       <use style="stroke:#000000;stroke-linecap:butt;stroke-width:0.5;" x="384.48" xlink:href="#m476344969c" y="43.2"/>
      </g>
     </g>
     <g id="text_8">
      <!-- 700 -->
      <defs>
       <path d="
M8.20312 72.9062
L55.0781 72.9062
L55.0781 68.7031
L28.6094 0
L18.3125 0
L43.2188 64.5938
L8.20312 64.5938
z
" id="BitstreamVeraSans-Roman-37"/>
      </defs>
      <g transform="translate(373.918125 401.70625)scale(0.12 -0.12)">
       <use xlink:href="#BitstreamVeraSans-Roman-37"/>
       <use x="63.623046875" xlink:href="#BitstreamVeraSans-Roman-30"/>
       <use x="127.24609375" xlink:href="#BitstreamVeraSans-Roman-30"/>
      </g>
     </g>
    </g>
    <g id="xtick_9">
     <g id="line2d_28">
      <path clip-path="url(#p7ff5b81e1d)" d="
M429.12 388.8
L429.12 43.2" style="fill:none;stroke:#000000;stroke-dasharray:1.000000,3.000000;stroke-dashoffset:0.0;stroke-linecap:butt;stroke-width:0.5;"/>
     </g>
     <g id="line2d_29">
      <g>
       <use style="stroke:#000000;stroke-linecap:butt;stroke-width:0.5;" x="429.12" xlink:href="#m0012dd4eef" y="388.8"/>
      </g>
     </g>
     <g id="line2d_30">
      <g>
       <use style="stroke:#000000;stroke-linecap:butt;stroke-width:0.5;" x="429.12" xlink:href="#m476344969c" y="43.2"/>
      </g>
     </g>
     <g id="text_9">
      <!-- 800 -->
      <defs>
       <path d="
M31.7812 34.625
Q24.75 34.625 20.7188 30.8594
Q16.7031 27.0938 16.7031 20.5156
Q16.7031 13.9219 20.7188 10.1562
Q24.75 6.39062 31.7812 6.39062
Q38.8125 6.39062 42.8594 10.1719
Q46.9219 13.9688 46.9219 20.5156
Q46.9219 27.0938 42.8906 30.8594
Q38.875 34.625 31.7812 34.625
M21.9219 38.8125
Q15.5781 40.375 12.0312 44.7188
Q8.5 49.0781 8.5 55.3281
Q8.5 64.0625 14.7188 69.1406
Q20.9531 74.2188 31.7812 74.2188
Q42.6719 74.2188 48.875 69.1406
Q55.0781 64.0625 55.0781 55.3281
Q55.0781 49.0781 51.5312 44.7188
Q48 40.375 41.7031 38.8125
Q48.8281 37.1562 52.7969 32.3125
Q56.7812 27.4844 56.7812 20.5156
Q56.7812 9.90625 50.3125 4.23438
Q43.8438 -1.42188 31.7812 -1.42188
Q19.7344 -1.42188 13.25 4.23438
Q6.78125 9.90625 6.78125 20.5156
Q6.78125 27.4844 10.7812 32.3125
Q14.7969 37.1562 21.9219 38.8125
M18.3125 54.3906
Q18.3125 48.7344 21.8438 45.5625
Q25.3906 42.3906 31.7812 42.3906
Q38.1406 42.3906 41.7188 45.5625
Q45.3125 48.7344 45.3125 54.3906
Q45.3125 60.0625 41.7188 63.2344
Q38.1406 66.4062 31.7812 66.4062
Q25.3906 66.4062 21.8438 63.2344
Q18.3125 60.0625 18.3125 54.3906" id="BitstreamVeraSans-Roman-38"/>
      </defs>
      <g transform="translate(418.4728125 401.70625)scale(0.12 -0.12)">
       <use xlink:href="#BitstreamVeraSans-Roman-38"/>
       <use x="63.623046875" xlink:href="#BitstreamVeraSans-Roman-30"/>
       <use x="127.24609375" xlink:href="#BitstreamVeraSans-Roman-30"/>
      </g>
     </g>
    </g>
    <g id="xtick_10">
     <g id="line2d_31">
      <path clip-path="url(#p7ff5b81e1d)" d="
M473.76 388.8
L473.76 43.2" style="fill:none;stroke:#000000;stroke-dasharray:1.000000,3.000000;stroke-dashoffset:0.0;stroke-linecap:butt;stroke-width:0.5;"/>
     </g>
     <g id="line2d_32">
      <g>
       <use style="stroke:#000000;stroke-linecap:butt;stroke-width:0.5;" x="473.76" xlink:href="#m0012dd4eef" y="388.8"/>
      </g>
     </g>
     <g id="line2d_33">
      <g>
       <use style="stroke:#000000;stroke-linecap:butt;stroke-width:0.5;" x="473.76" xlink:href="#m476344969c" y="43.2"/>
      </g>
     </g>
     <g id="text_10">
      <!-- 900 -->
      <defs>
       <path d="
M10.9844 1.51562
L10.9844 10.5
Q14.7031 8.73438 18.5 7.8125
Q22.3125 6.89062 25.9844 6.89062
Q35.75 6.89062 40.8906 13.4531
Q46.0469 20.0156 46.7812 33.4062
Q43.9531 29.2031 39.5938 26.9531
Q35.25 24.7031 29.9844 24.7031
Q19.0469 24.7031 12.6719 31.3125
Q6.29688 37.9375 6.29688 49.4219
Q6.29688 60.6406 12.9375 67.4219
Q19.5781 74.2188 30.6094 74.2188
Q43.2656 74.2188 49.9219 64.5156
Q56.5938 54.8281 56.5938 36.375
Q56.5938 19.1406 48.4062 8.85938
Q40.2344 -1.42188 26.4219 -1.42188
Q22.7031 -1.42188 18.8906 -0.6875
Q15.0938 0.046875 10.9844 1.51562
M30.6094 32.4219
Q37.25 32.4219 41.125 36.9531
Q45.0156 41.5 45.0156 49.4219
Q45.0156 57.2812 41.125 61.8438
Q37.25 66.4062 30.6094 66.4062
Q23.9688 66.4062 20.0938 61.8438
Q16.2188 57.2812 16.2188 49.4219
Q16.2188 41.5 20.0938 36.9531
Q23.9688 32.4219 30.6094 32.4219" id="BitstreamVeraSans-Roman-39"/>
      </defs>
      <g transform="translate(463.08375 401.70625)scale(0.12 -0.12)">
       <use xlink:href="#BitstreamVeraSans-Roman-39"/>
       <use x="63.623046875" xlink:href="#BitstreamVeraSans-Roman-30"/>
       <use x="127.24609375" xlink:href="#BitstreamVeraSans-Roman-30"/>
      </g>
     </g>
    </g>
   </g>
   <g id="matplotlib.axis_2">
    <g id="ytick_1">
     <g id="line2d_34">
      <path clip-path="url(#p7ff5b81e1d)" d="
M72 388.8
L518.4 388.8" style="fill:none;stroke:#000000;stroke-dasharray:1.000000,3.000000;stroke-dashoffset:0.0;stroke-linecap:butt;stroke-width:0.5;"/>
     </g>
     <g id="line2d_35">
      <defs>
       <path d="
M0 0
L4 0" id="me8a85f7bf6" style="stroke:#000000;stroke-linecap:butt;stroke-width:0.5;"/>
      </defs>
      <g>
       <use style="stroke:#000000;stroke-linecap:butt;stroke-width:0.5;" x="72.0" xlink:href="#me8a85f7bf6" y="388.8"/>
      </g>
     </g>
     <g id="line2d_36">
      <defs>
       <path d="
M0 0
L-4 0" id="m1a32005dea" style="stroke:#000000;stroke-linecap:butt;stroke-width:0.5;"/>
      </defs>
      <g>
       <use style="stroke:#000000;stroke-linecap:butt;stroke-width:0.5;" x="518.4" xlink:href="#m1a32005dea" y="388.8"/>
      </g>
     </g>
     <g id="text_11">
      <!-- 0.00 -->
      <defs>
       <path d="
M10.6875 12.4062
L21 12.4062
L21 0
L10.6875 0
z
" id="BitstreamVeraSans-Roman-2e"/>
      </defs>
      <g transform="translate(42.869375 393.1678125)scale(0.12 -0.12)">
       <use xlink:href="#BitstreamVeraSans-Roman-30"/>
       <use x="63.623046875" xlink:href="#BitstreamVeraSans-Roman-2e"/>
       <use x="95.41015625" xlink:href="#BitstreamVeraSans-Roman-30"/>
       <use x="159.033203125" xlink:href="#BitstreamVeraSans-Roman-30"/>
      </g>
     </g>
    </g>
    <g id="ytick_2">
     <g id="line2d_37">
      <path clip-path="url(#p7ff5b81e1d)" d="
M72 354.24
L518.4 354.24" style="fill:none;stroke:#000000;stroke-dasharray:1.000000,3.000000;stroke-dashoffset:0.0;stroke-linecap:butt;stroke-width:0.5;"/>
     </g>
     <g id="line2d_38">
      <g>
       <use style="stroke:#000000;stroke-linecap:butt;stroke-width:0.5;" x="72.0" xlink:href="#me8a85f7bf6" y="354.24"/>
      </g>
     </g>
     <g id="line2d_39">
      <g>
       <use style="stroke:#000000;stroke-linecap:butt;stroke-width:0.5;" x="518.4" xlink:href="#m1a32005dea" y="354.24"/>
      </g>
     </g>
     <g id="text_12">
      <!-- 0.08 -->
      <g transform="translate(42.89375 358.6078125)scale(0.12 -0.12)">
       <use xlink:href="#BitstreamVeraSans-Roman-30"/>
       <use x="63.623046875" xlink:href="#BitstreamVeraSans-Roman-2e"/>
       <use x="95.41015625" xlink:href="#BitstreamVeraSans-Roman-30"/>
       <use x="159.033203125" xlink:href="#BitstreamVeraSans-Roman-38"/>
      </g>
     </g>
    </g>
    <g id="ytick_3">
     <g id="line2d_40">
      <path clip-path="url(#p7ff5b81e1d)" d="
M72 319.68
L518.4 319.68" style="fill:none;stroke:#000000;stroke-dasharray:1.000000,3.000000;stroke-dashoffset:0.0;stroke-linecap:butt;stroke-width:0.5;"/>
     </g>
     <g id="line2d_41">
      <g>
       <use style="stroke:#000000;stroke-linecap:butt;stroke-width:0.5;" x="72.0" xlink:href="#me8a85f7bf6" y="319.68"/>
      </g>
     </g>
     <g id="line2d_42">
      <g>
       <use style="stroke:#000000;stroke-linecap:butt;stroke-width:0.5;" x="518.4" xlink:href="#m1a32005dea" y="319.68"/>
      </g>
     </g>
     <g id="text_13">
      <!-- 0.16 -->
      <g transform="translate(42.828125 324.0478125)scale(0.12 -0.12)">
       <use xlink:href="#BitstreamVeraSans-Roman-30"/>
       <use x="63.623046875" xlink:href="#BitstreamVeraSans-Roman-2e"/>
       <use x="95.41015625" xlink:href="#BitstreamVeraSans-Roman-31"/>
       <use x="159.033203125" xlink:href="#BitstreamVeraSans-Roman-36"/>
      </g>
     </g>
    </g>
    <g id="ytick_4">
     <g id="line2d_43">
      <path clip-path="url(#p7ff5b81e1d)" d="
M72 285.12
L518.4 285.12" style="fill:none;stroke:#000000;stroke-dasharray:1.000000,3.000000;stroke-dashoffset:0.0;stroke-linecap:butt;stroke-width:0.5;"/>
     </g>
     <g id="line2d_44">
      <g>
       <use style="stroke:#000000;stroke-linecap:butt;stroke-width:0.5;" x="72.0" xlink:href="#me8a85f7bf6" y="285.12"/>
      </g>
     </g>
     <g id="line2d_45">
      <g>
       <use style="stroke:#000000;stroke-linecap:butt;stroke-width:0.5;" x="518.4" xlink:href="#m1a32005dea" y="285.12"/>
      </g>
     </g>
     <g id="text_14">
      <!-- 0.24 -->
      <g transform="translate(42.745625 289.4878125)scale(0.12 -0.12)">
       <use xlink:href="#BitstreamVeraSans-Roman-30"/>
       <use x="63.623046875" xlink:href="#BitstreamVeraSans-Roman-2e"/>
       <use x="95.41015625" xlink:href="#BitstreamVeraSans-Roman-32"/>
       <use x="159.033203125" xlink:href="#BitstreamVeraSans-Roman-34"/>
      </g>
     </g>
    </g>
    <g id="ytick_5">
     <g id="line2d_46">
      <path clip-path="url(#p7ff5b81e1d)" d="
M72 250.56
L518.4 250.56" style="fill:none;stroke:#000000;stroke-dasharray:1.000000,3.000000;stroke-dashoffset:0.0;stroke-linecap:butt;stroke-width:0.5;"/>
     </g>
     <g id="line2d_47">
      <g>
       <use style="stroke:#000000;stroke-linecap:butt;stroke-width:0.5;" x="72.0" xlink:href="#me8a85f7bf6" y="250.56"/>
      </g>
     </g>
     <g id="line2d_48">
      <g>
       <use style="stroke:#000000;stroke-linecap:butt;stroke-width:0.5;" x="518.4" xlink:href="#m1a32005dea" y="250.56"/>
      </g>
     </g>
     <g id="text_15">
      <!-- 0.32 -->
      <g transform="translate(43.274375 254.9278125)scale(0.12 -0.12)">
       <use xlink:href="#BitstreamVeraSans-Roman-30"/>
       <use x="63.623046875" xlink:href="#BitstreamVeraSans-Roman-2e"/>
       <use x="95.41015625" xlink:href="#BitstreamVeraSans-Roman-33"/>
       <use x="159.033203125" xlink:href="#BitstreamVeraSans-Roman-32"/>
      </g>
     </g>
    </g>
    <g id="ytick_6">
     <g id="line2d_49">
      <path clip-path="url(#p7ff5b81e1d)" d="
M72 216
L518.4 216" style="fill:none;stroke:#000000;stroke-dasharray:1.000000,3.000000;stroke-dashoffset:0.0;stroke-linecap:butt;stroke-width:0.5;"/>
     </g>
     <g id="line2d_50">
      <g>
       <use style="stroke:#000000;stroke-linecap:butt;stroke-width:0.5;" x="72.0" xlink:href="#me8a85f7bf6" y="216.0"/>
      </g>
     </g>
     <g id="line2d_51">
      <g>
       <use style="stroke:#000000;stroke-linecap:butt;stroke-width:0.5;" x="518.4" xlink:href="#m1a32005dea" y="216.0"/>
      </g>
     </g>
     <g id="text_16">
      <!-- 0.40 -->
      <g transform="translate(42.869375 220.3678125)scale(0.12 -0.12)">
       <use xlink:href="#BitstreamVeraSans-Roman-30"/>
       <use x="63.623046875" xlink:href="#BitstreamVeraSans-Roman-2e"/>
       <use x="95.41015625" xlink:href="#BitstreamVeraSans-Roman-34"/>
       <use x="159.033203125" xlink:href="#BitstreamVeraSans-Roman-30"/>
      </g>
     </g>
    </g>
    <g id="ytick_7">
     <g id="line2d_52">
      <path clip-path="url(#p7ff5b81e1d)" d="
M72 181.44
L518.4 181.44" style="fill:none;stroke:#000000;stroke-dasharray:1.000000,3.000000;stroke-dashoffset:0.0;stroke-linecap:butt;stroke-width:0.5;"/>
     </g>
     <g id="line2d_53">
      <g>
       <use style="stroke:#000000;stroke-linecap:butt;stroke-width:0.5;" x="72.0" xlink:href="#me8a85f7bf6" y="181.44"/>
      </g>
     </g>
     <g id="line2d_54">
      <g>
       <use style="stroke:#000000;stroke-linecap:butt;stroke-width:0.5;" x="518.4" xlink:href="#m1a32005dea" y="181.44"/>
      </g>
     </g>
     <g id="text_17">
      <!-- 0.48 -->
      <g transform="translate(42.89375 185.8078125)scale(0.12 -0.12)">
       <use xlink:href="#BitstreamVeraSans-Roman-30"/>
       <use x="63.623046875" xlink:href="#BitstreamVeraSans-Roman-2e"/>
       <use x="95.41015625" xlink:href="#BitstreamVeraSans-Roman-34"/>
       <use x="159.033203125" xlink:href="#BitstreamVeraSans-Roman-38"/>
      </g>
     </g>
    </g>
    <g id="ytick_8">
     <g id="line2d_55">
      <path clip-path="url(#p7ff5b81e1d)" d="
M72 146.88
L518.4 146.88" style="fill:none;stroke:#000000;stroke-dasharray:1.000000,3.000000;stroke-dashoffset:0.0;stroke-linecap:butt;stroke-width:0.5;"/>
     </g>
     <g id="line2d_56">
      <g>
       <use style="stroke:#000000;stroke-linecap:butt;stroke-width:0.5;" x="72.0" xlink:href="#me8a85f7bf6" y="146.88"/>
      </g>
     </g>
     <g id="line2d_57">
      <g>
       <use style="stroke:#000000;stroke-linecap:butt;stroke-width:0.5;" x="518.4" xlink:href="#m1a32005dea" y="146.88"/>
      </g>
     </g>
     <g id="text_18">
      <!-- 0.56 -->
      <g transform="translate(42.828125 151.2478125)scale(0.12 -0.12)">
       <use xlink:href="#BitstreamVeraSans-Roman-30"/>
       <use x="63.623046875" xlink:href="#BitstreamVeraSans-Roman-2e"/>
       <use x="95.41015625" xlink:href="#BitstreamVeraSans-Roman-35"/>
       <use x="159.033203125" xlink:href="#BitstreamVeraSans-Roman-36"/>
      </g>
     </g>
    </g>
    <g id="ytick_9">
     <g id="line2d_58">
      <path clip-path="url(#p7ff5b81e1d)" d="
M72 112.32
L518.4 112.32" style="fill:none;stroke:#000000;stroke-dasharray:1.000000,3.000000;stroke-dashoffset:0.0;stroke-linecap:butt;stroke-width:0.5;"/>
     </g>
     <g id="line2d_59">
      <g>
       <use style="stroke:#000000;stroke-linecap:butt;stroke-width:0.5;" x="72.0" xlink:href="#me8a85f7bf6" y="112.32"/>
      </g>
     </g>
     <g id="line2d_60">
      <g>
       <use style="stroke:#000000;stroke-linecap:butt;stroke-width:0.5;" x="518.4" xlink:href="#m1a32005dea" y="112.32"/>
      </g>
     </g>
     <g id="text_19">
      <!-- 0.64 -->
      <g transform="translate(42.745625 116.6878125)scale(0.12 -0.12)">
       <use xlink:href="#BitstreamVeraSans-Roman-30"/>
       <use x="63.623046875" xlink:href="#BitstreamVeraSans-Roman-2e"/>
       <use x="95.41015625" xlink:href="#BitstreamVeraSans-Roman-36"/>
       <use x="159.033203125" xlink:href="#BitstreamVeraSans-Roman-34"/>
      </g>
     </g>
    </g>
    <g id="ytick_10">
     <g id="line2d_61">
      <path clip-path="url(#p7ff5b81e1d)" d="
M72 77.76
L518.4 77.76" style="fill:none;stroke:#000000;stroke-dasharray:1.000000,3.000000;stroke-dashoffset:0.0;stroke-linecap:butt;stroke-width:0.5;"/>
     </g>
     <g id="line2d_62">
      <g>
       <use style="stroke:#000000;stroke-linecap:butt;stroke-width:0.5;" x="72.0" xlink:href="#me8a85f7bf6" y="77.76"/>
      </g>
     </g>
     <g id="line2d_63">
      <g>
       <use style="stroke:#000000;stroke-linecap:butt;stroke-width:0.5;" x="518.4" xlink:href="#m1a32005dea" y="77.76"/>
      </g>
     </g>
     <g id="text_20">
      <!-- 0.72 -->
      <g transform="translate(43.274375 82.1278125)scale(0.12 -0.12)">
       <use xlink:href="#BitstreamVeraSans-Roman-30"/>
       <use x="63.623046875" xlink:href="#BitstreamVeraSans-Roman-2e"/>
       <use x="95.41015625" xlink:href="#BitstreamVeraSans-Roman-37"/>
       <use x="159.033203125" xlink:href="#BitstreamVeraSans-Roman-32"/>
      </g>
     </g>
    </g>
    <g id="text_21">
     <!-- Sec/file -->
     <defs>
      <path d="
M9.42188 75.9844
L18.4062 75.9844
L18.4062 0
L9.42188 0
z
" id="BitstreamVeraSans-Roman-6c"/>
      <path d="
M53.5156 70.5156
L53.5156 60.8906
Q47.9062 63.5781 42.9219 64.8906
Q37.9375 66.2188 33.2969 66.2188
Q25.25 66.2188 20.875 63.0938
Q16.5 59.9688 16.5 54.2031
Q16.5 49.3594 19.4062 46.8906
Q22.3125 44.4375 30.4219 42.9219
L36.375 41.7031
Q47.4062 39.5938 52.6562 34.2969
Q57.9062 29 57.9062 20.125
Q57.9062 9.51562 50.7969 4.04688
Q43.7031 -1.42188 29.9844 -1.42188
Q24.8125 -1.42188 18.9688 -0.25
Q13.1406 0.921875 6.89062 3.21875
L6.89062 13.375
Q12.8906 10.0156 18.6562 8.29688
Q24.4219 6.59375 29.9844 6.59375
Q38.4219 6.59375 43.0156 9.90625
Q47.6094 13.2344 47.6094 19.3906
Q47.6094 24.75 44.3125 27.7812
Q41.0156 30.8125 33.5 32.3281
L27.4844 33.5
Q16.4531 35.6875 11.5156 40.375
Q6.59375 45.0625 6.59375 53.4219
Q6.59375 63.0938 13.4062 68.6562
Q20.2188 74.2188 32.1719 74.2188
Q37.3125 74.2188 42.625 73.2812
Q47.9531 72.3594 53.5156 70.5156" id="BitstreamVeraSans-Roman-53"/>
      <path d="
M9.42188 54.6875
L18.4062 54.6875
L18.4062 0
L9.42188 0
z

M9.42188 75.9844
L18.4062 75.9844
L18.4062 64.5938
L9.42188 64.5938
z
" id="BitstreamVeraSans-Roman-69"/>
      <path d="
M25.3906 72.9062
L33.6875 72.9062
L8.29688 -9.28125
L0 -9.28125
z
" id="BitstreamVeraSans-Roman-2f"/>
      <path d="
M56.2031 29.5938
L56.2031 25.2031
L14.8906 25.2031
Q15.4844 15.9219 20.4844 11.0625
Q25.4844 6.20312 34.4219 6.20312
Q39.5938 6.20312 44.4531 7.46875
Q49.3125 8.73438 54.1094 11.2812
L54.1094 2.78125
Q49.2656 0.734375 44.1875 -0.34375
Q39.1094 -1.42188 33.8906 -1.42188
Q20.7969 -1.42188 13.1562 6.1875
Q5.51562 13.8125 5.51562 26.8125
Q5.51562 40.2344 12.7656 48.1094
Q20.0156 56 32.3281 56
Q43.3594 56 49.7812 48.8906
Q56.2031 41.7969 56.2031 29.5938
M47.2188 32.2344
Q47.125 39.5938 43.0938 43.9844
Q39.0625 48.3906 32.4219 48.3906
Q24.9062 48.3906 20.3906 44.1406
Q15.875 39.8906 15.1875 32.1719
z
" id="BitstreamVeraSans-Roman-65"/>
      <path d="
M37.1094 75.9844
L37.1094 68.5
L28.5156 68.5
Q23.6875 68.5 21.7969 66.5469
Q19.9219 64.5938 19.9219 59.5156
L19.9219 54.6875
L34.7188 54.6875
L34.7188 47.7031
L19.9219 47.7031
L19.9219 0
L10.8906 0
L10.8906 47.7031
L2.29688 47.7031
L2.29688 54.6875
L10.8906 54.6875
L10.8906 58.5
Q10.8906 67.625 15.1406 71.7969
Q19.3906 75.9844 28.6094 75.9844
z
" id="BitstreamVeraSans-Roman-66"/>
      <path d="
M48.7812 52.5938
L48.7812 44.1875
Q44.9688 46.2969 41.1406 47.3438
Q37.3125 48.3906 33.4062 48.3906
Q24.6562 48.3906 19.8125 42.8438
Q14.9844 37.3125 14.9844 27.2969
Q14.9844 17.2812 19.8125 11.7344
Q24.6562 6.20312 33.4062 6.20312
Q37.3125 6.20312 41.1406 7.25
Q44.9688 8.29688 48.7812 10.4062
L48.7812 2.09375
Q45.0156 0.34375 40.9844 -0.53125
Q36.9688 -1.42188 32.4219 -1.42188
Q20.0625 -1.42188 12.7812 6.34375
Q5.51562 14.1094 5.51562 27.2969
Q5.51562 40.6719 12.8594 48.3281
Q20.2188 56 33.0156 56
Q37.1562 56 41.1094 55.1406
Q45.0625 54.2969 48.7812 52.5938" id="BitstreamVeraSans-Roman-63"/>
     </defs>
     <g transform="translate(37.745625 236.13)rotate(-90.0)scale(0.12 -0.12)">
      <use xlink:href="#BitstreamVeraSans-Roman-53"/>
      <use x="63.4765625" xlink:href="#BitstreamVeraSans-Roman-65"/>
      <use x="125.0" xlink:href="#BitstreamVeraSans-Roman-63"/>
      <use x="179.98046875" xlink:href="#BitstreamVeraSans-Roman-2f"/>
      <use x="213.671875" xlink:href="#BitstreamVeraSans-Roman-66"/>
      <use x="248.876953125" xlink:href="#BitstreamVeraSans-Roman-69"/>
      <use x="276.66015625" xlink:href="#BitstreamVeraSans-Roman-6c"/>
      <use x="304.443359375" xlink:href="#BitstreamVeraSans-Roman-65"/>
     </g>
    </g>
   </g>
   <g id="patch_3">
    <path d="
M72 43.2
L518.4 43.2" style="fill:none;stroke:#000000;"/>
   </g>
   <g id="patch_4">
    <path d="
M518.4 388.8
L518.4 43.2" style="fill:none;stroke:#000000;"/>
   </g>
   <g id="patch_5">
    <path d="
M72 388.8
L518.4 388.8" style="fill:none;stroke:#000000;"/>
   </g>
   <g id="patch_6">
    <path d="
M72 388.8
L72 43.2" style="fill:none;stroke:#000000;"/>
   </g>
   <g id="text_22">
    <!-- Rand -->
    <defs>
     <path d="
M54.8906 33.0156
L54.8906 0
L45.9062 0
L45.9062 32.7188
Q45.9062 40.4844 42.875 44.3281
Q39.8438 48.1875 33.7969 48.1875
Q26.5156 48.1875 22.3125 43.5469
Q18.1094 38.9219 18.1094 30.9062
L18.1094 0
L9.07812 0
L9.07812 54.6875
L18.1094 54.6875
L18.1094 46.1875
Q21.3438 51.125 25.7031 53.5625
Q30.0781 56 35.7969 56
Q45.2188 56 50.0469 50.1719
Q54.8906 44.3438 54.8906 33.0156" id="BitstreamVeraSans-Roman-6e"/>
     <path d="
M45.4062 46.3906
L45.4062 75.9844
L54.3906 75.9844
L54.3906 0
L45.4062 0
L45.4062 8.20312
Q42.5781 3.32812 38.25 0.953125
Q33.9375 -1.42188 27.875 -1.42188
Q17.9688 -1.42188 11.7344 6.48438
Q5.51562 14.4062 5.51562 27.2969
Q5.51562 40.1875 11.7344 48.0938
Q17.9688 56 27.875 56
Q33.9375 56 38.25 53.625
Q42.5781 51.2656 45.4062 46.3906
M14.7969 27.2969
Q14.7969 17.3906 18.875 11.75
Q22.9531 6.10938 30.0781 6.10938
Q37.2031 6.10938 41.2969 11.75
Q45.4062 17.3906 45.4062 27.2969
Q45.4062 37.2031 41.2969 42.8438
Q37.2031 48.4844 30.0781 48.4844
Q22.9531 48.4844 18.875 42.8438
Q14.7969 37.2031 14.7969 27.2969" id="BitstreamVeraSans-Roman-64"/>
     <path d="
M44.3906 34.1875
Q47.5625 33.1094 50.5625 29.5938
Q53.5625 26.0781 56.5938 19.9219
L66.6094 0
L56 0
L46.6875 18.7031
Q43.0625 26.0312 39.6719 28.4219
Q36.2812 30.8125 30.4219 30.8125
L19.6719 30.8125
L19.6719 0
L9.8125 0
L9.8125 72.9062
L32.0781 72.9062
Q44.5781 72.9062 50.7344 67.6719
Q56.8906 62.4531 56.8906 51.9062
Q56.8906 45.0156 53.6875 40.4688
Q50.4844 35.9375 44.3906 34.1875
M19.6719 64.7969
L19.6719 38.9219
L32.0781 38.9219
Q39.2031 38.9219 42.8438 42.2188
Q46.4844 45.5156 46.4844 51.9062
Q46.4844 58.2969 42.8438 61.5469
Q39.2031 64.7969 32.0781 64.7969
z
" id="BitstreamVeraSans-Roman-52"/>
     <path d="
M34.2812 27.4844
Q23.3906 27.4844 19.1875 25
Q14.9844 22.5156 14.9844 16.5
Q14.9844 11.7188 18.1406 8.90625
Q21.2969 6.10938 26.7031 6.10938
Q34.1875 6.10938 38.7031 11.4062
Q43.2188 16.7031 43.2188 25.4844
L43.2188 27.4844
z

M52.2031 31.2031
L52.2031 0
L43.2188 0
L43.2188 8.29688
Q40.1406 3.32812 35.5469 0.953125
Q30.9531 -1.42188 24.3125 -1.42188
Q15.9219 -1.42188 10.9531 3.29688
Q6 8.01562 6 15.9219
Q6 25.1406 12.1719 29.8281
Q18.3594 34.5156 30.6094 34.5156
L43.2188 34.5156
L43.2188 35.4062
Q43.2188 41.6094 39.1406 45
Q35.0625 48.3906 27.6875 48.3906
Q23 48.3906 18.5469 47.2656
Q14.1094 46.1406 10.0156 43.8906
L10.0156 52.2031
Q14.9375 54.1094 19.5781 55.0469
Q24.2188 56 28.6094 56
Q40.4844 56 46.3438 49.8438
Q52.2031 43.7031 52.2031 31.2031" id="BitstreamVeraSans-Roman-61"/>
    </defs>
    <g transform="translate(278.17425 38.2)scale(0.144 -0.144)">
     <use xlink:href="#BitstreamVeraSans-Roman-52"/>
     <use x="67.232421875" xlink:href="#BitstreamVeraSans-Roman-61"/>
     <use x="128.51171875" xlink:href="#BitstreamVeraSans-Roman-6e"/>
     <use x="191.890625" xlink:href="#BitstreamVeraSans-Roman-64"/>
    </g>
   </g>
   <g id="legend_1">
    <g id="patch_7">
     <path d="
M429.055 115.339
L511.2 115.339
L511.2 50.4
L429.055 50.4
L429.055 115.339
z
" style="fill:#ffffff;stroke:#000000;"/>
    </g>
    <g id="line2d_64">
     <path d="
M439.135 62.0617
L459.295 62.0617" style="fill:none;stroke:#ff0000;"/>
    </g>
    <g id="line2d_65"/>
    <g id="text_23">
     <!-- LRU -->
     <defs>
      <path d="
M9.8125 72.9062
L19.6719 72.9062
L19.6719 8.29688
L55.1719 8.29688
L55.1719 0
L9.8125 0
z
" id="BitstreamVeraSans-Roman-4c"/>
      <path d="
M8.6875 72.9062
L18.6094 72.9062
L18.6094 28.6094
Q18.6094 16.8906 22.8438 11.7344
Q27.0938 6.59375 36.625 6.59375
Q46.0938 6.59375 50.3438 11.7344
Q54.5938 16.8906 54.5938 28.6094
L54.5938 72.9062
L64.5 72.9062
L64.5 27.3906
Q64.5 13.1406 57.4375 5.85938
Q50.3906 -1.42188 36.625 -1.42188
Q22.7969 -1.42188 15.7344 5.85938
Q8.6875 13.1406 8.6875 27.3906
z
" id="BitstreamVeraSans-Roman-55"/>
     </defs>
     <g transform="translate(475.13475 67.10175)scale(0.144 -0.144)">
      <use xlink:href="#BitstreamVeraSans-Roman-4c"/>
      <use x="55.712890625" xlink:href="#BitstreamVeraSans-Roman-52"/>
      <use x="125.1953125" xlink:href="#BitstreamVeraSans-Roman-55"/>
     </g>
    </g>
    <g id="line2d_66">
     <path d="
M439.135 83.1983
L459.295 83.1983" style="fill:none;opacity:0.7;stroke:#008000;"/>
    </g>
    <g id="line2d_67"/>
    <g id="text_24">
     <!-- MRU -->
     <defs>
      <path d="
M9.8125 72.9062
L24.5156 72.9062
L43.1094 23.2969
L61.8125 72.9062
L76.5156 72.9062
L76.5156 0
L66.8906 0
L66.8906 64.0156
L48.0938 14.0156
L38.1875 14.0156
L19.3906 64.0156
L19.3906 0
L9.8125 0
z
" id="BitstreamVeraSans-Roman-4d"/>
     </defs>
     <g transform="translate(475.13475 88.23825)scale(0.144 -0.144)">
      <use xlink:href="#BitstreamVeraSans-Roman-4d"/>
      <use x="86.279296875" xlink:href="#BitstreamVeraSans-Roman-52"/>
      <use x="155.76171875" xlink:href="#BitstreamVeraSans-Roman-55"/>
     </g>
    </g>
    <g id="line2d_68">
     <path d="
M439.135 104.335
L459.295 104.335" style="fill:none;opacity:0.5;stroke:#0000ff;"/>
    </g>
    <g id="line2d_69"/>
    <g id="text_25">
     <!-- FIFO -->
     <defs>
      <path d="
M9.8125 72.9062
L51.7031 72.9062
L51.7031 64.5938
L19.6719 64.5938
L19.6719 43.1094
L48.5781 43.1094
L48.5781 34.8125
L19.6719 34.8125
L19.6719 0
L9.8125 0
z
" id="BitstreamVeraSans-Roman-46"/>
      <path d="
M9.8125 72.9062
L19.6719 72.9062
L19.6719 0
L9.8125 0
z
" id="BitstreamVeraSans-Roman-49"/>
      <path d="
M39.4062 66.2188
Q28.6562 66.2188 22.3281 58.2031
Q16.0156 50.2031 16.0156 36.375
Q16.0156 22.6094 22.3281 14.5938
Q28.6562 6.59375 39.4062 6.59375
Q50.1406 6.59375 56.4219 14.5938
Q62.7031 22.6094 62.7031 36.375
Q62.7031 50.2031 56.4219 58.2031
Q50.1406 66.2188 39.4062 66.2188
M39.4062 74.2188
Q54.7344 74.2188 63.9062 63.9375
Q73.0938 53.6562 73.0938 36.375
Q73.0938 19.1406 63.9062 8.85938
Q54.7344 -1.42188 39.4062 -1.42188
Q24.0312 -1.42188 14.8125 8.82812
Q5.60938 19.0938 5.60938 36.375
Q5.60938 53.6562 14.8125 63.9375
Q24.0312 74.2188 39.4062 74.2188" id="BitstreamVeraSans-Roman-4f"/>
     </defs>
     <g transform="translate(475.13475 109.37475)scale(0.144 -0.144)">
      <use xlink:href="#BitstreamVeraSans-Roman-46"/>
      <use x="57.51953125" xlink:href="#BitstreamVeraSans-Roman-49"/>
      <use x="87.01171875" xlink:href="#BitstreamVeraSans-Roman-46"/>
      <use x="144.53125" xlink:href="#BitstreamVeraSans-Roman-4f"/>
     </g>
    </g>
   </g>
  </g>
 </g>
 <defs>
  <clipPath id="p7ff5b81e1d">
   <rect height="345.6" width="446.4" x="72.0" y="43.2"/>
  </clipPath>
 </defs>
</svg>
