<?xml version="1.0" encoding="utf-8" standalone="no"?>
<!DOCTYPE svg PUBLIC "-//W3C//DTD SVG 1.1//EN"
  "http://www.w3.org/Graphics/SVG/1.1/DTD/svg11.dtd">
<!-- Created with matplotlib (http://matplotlib.sourceforge.net/) -->
<svg height="432pt" version="1.1" viewBox="0 0 576 432" width="576pt" xmlns="http://www.w3.org/2000/svg" xmlns:xlink="http://www.w3.org/1999/xlink">
 <defs>
  <style type="text/css">
*{stroke-linecap:square;stroke-linejoin:round;}
  </style>
 </defs>
 <g id="figure_1">
  <g id="patch_1">
   <path d="
M0 432
L576 432
L576 0
L0 0
z
" style="fill:#ffffff;"/>
  </g>
  <g id="axes_1">
   <g id="patch_2">
    <path d="
M72 388.8
L518.4 388.8
L518.4 43.2
L72 43.2
z
" style="fill:#ffffff;"/>
   </g>
   <g id="line2d_1">
    <path clip-path="url(#p7ff5b81e1d)" d="
M72 261.567
L72.4464 177.696
L72.8928 180.832
L73.3392 165.718
L73.7856 169.5
L74.232 260.569
L74.6784 165.603
L75.1248 177.476
L75.5712 170.425
L76.0176 180.345
L76.464 165.279
L76.9104 179.268
L77.3568 259.949
L77.8032 264.233
L78.2496 260.411
L78.696 181.653
L79.1424 179.562
L79.5888 262.355
L80.0352 258.951
L80.4816 166.153
L80.928 175.386
L81.3744 262.305
L81.8208 158.781
L82.2672 254.955
L82.7136 178.197
L83.16 262.182
L83.6064 165.543
L84.0528 167.254
L84.4992 143.261
L84.9456 259.849
L85.392 179.021
L85.8384 142.175
L86.2848 257.893
L86.7312 170.4
L87.1776 182.766
L87.624 261.702
L88.0704 260.389
L88.5168 258.7
L88.9632 259.064
L89.4096 262.336
L89.856 182.348
L90.3024 261.103
L90.7488 257.819
L91.1952 263.702
L91.6416 151.309
L92.088 259.642
L92.5344 173.122
L92.9808 183.339
L93.4272 166.756
L93.8736 257.782
L94.32 260.687
L94.7664 179.994
L95.2128 184.048
L95.6592 259.042
L96.1056 178.578
L96.552 259.588
L96.9984 263.815
L97.4448 260.448
L97.8912 261.162
L98.3376 260.851
L98.784 261.446
L100.123 257.474
L100.57 262.366
L101.016 257.188
L101.462 259.722
L101.909 166.734
L102.355 180.47
L102.802 264.073
L103.248 182.788
L103.694 200.664
L104.141 171.236
L104.587 262.385
L105.034 168.851
L105.48 261.131
L105.926 259.922
L106.373 164.735
L106.819 261.849
L107.266 169.671
L107.712 260.156
L108.158 260.748
L108.605 262.707
L109.051 258.821
L109.498 260.559
L109.944 259.743
L110.39 262.005
L110.837 263.569
L111.283 260.579
L111.73 172.689
L112.176 257.596
L112.622 257.533
L113.069 264.8
L113.515 178.03
L113.962 179.675
L114.408 169.902
L114.854 263.661
L115.301 169.779
L115.747 259.834
L116.194 262.202
L116.64 261.488
L117.086 262.648
L117.533 260.162
L117.979 260.257
L118.426 261.687
L118.872 262.567
L119.318 263.028
L119.765 177.965
L120.211 260.422
L120.658 265.028
L121.104 259.618
L121.55 259.205
L122.443 262.628
L122.89 262.918
L123.336 259.764
L123.782 261.285
L124.229 264.53
L124.675 261.142
L125.568 261.044
L126.014 349.593
L126.461 261.067
L126.907 240.304
L127.354 271.974
L127.8 262.077
L128.246 264.485
L128.693 263.806
L129.139 175.853
L129.586 261.207
L130.032 264.194
L130.478 260.862
L130.925 258.555
L131.371 264.115
L131.818 178.03
L132.264 259.812
L132.71 254.978
L133.157 262.974
L133.603 261.33
L134.05 258.181
L134.496 263.198
L134.942 265.383
L135.389 261.839
L135.835 256.958
L136.282 262.953
L136.728 261.477
L137.174 263.615
L137.621 260.245
L138.067 261.623
L138.514 263.46
L139.406 259.047
L139.853 262.892
L140.299 254.371
L140.746 260.612
L141.192 261.732
L141.638 259.598
L142.085 264.344
L142.531 260.84
L142.978 261.444
L143.424 256.968
L143.87 180.51
L144.317 258.678
L144.763 263.234
L145.21 260.883
L145.656 264.137
L146.102 260.962
L146.549 172.304
L146.995 257.362
L147.442 260.68
L147.888 253.312
L148.334 259.762
L148.781 261.54
L149.227 261.069
L149.674 259.843
L150.566 262.623
L151.013 198.099
L151.459 264.139
L151.906 257.63
L152.352 263.56
L152.798 261.297
L153.245 261.552
L153.691 261.537
L154.138 263.321
L154.584 156.918
L155.03 307.082
L155.477 256.839
L155.923 265.333
L156.37 261.54
L156.816 262.847
L157.262 274.933
L157.709 182.247
L158.155 259.236
L158.602 259.365
L159.048 260.698
L159.494 264.15
L159.941 262.815
L160.834 258.093
L161.28 262.997
L161.726 260.564
L162.173 260.094
L162.619 262.759
L163.066 259.406
L163.512 263.912
L163.958 261.221
L164.405 261.118
L164.851 261.776
L165.298 260.778
L165.744 261.166
L166.19 260.77
L166.637 263.813
L167.083 264.92
L167.53 261.153
L167.976 259.037
L168.422 260.36
L168.869 263.461
L169.315 254.844
L169.762 260.976
L170.208 260.384
L170.654 264.516
L171.101 261.223
L171.994 259.469
L172.44 261.89
L172.886 261.975
L173.333 260.262
L173.779 256.796
L174.226 257.205
L174.672 264.614
L175.118 260.306
L175.565 259.906
L176.011 258.574
L176.458 262.083
L176.904 256.126
L177.35 257.479
L177.797 260.404
L178.243 258.206
L178.69 263.922
L179.136 260.221
L179.582 258.325
L180.029 258.171
L180.475 261.374
L181.368 259.188
L181.814 259.803
L182.261 262.747
L183.154 258.817
L183.6 259.219
L184.046 262.383
L184.493 255.462
L184.939 259.888
L185.386 258.596
L185.832 261.535
L186.278 262.674
L186.725 260.664
L187.171 256.45
L188.064 264.022
L188.51 259.332
L188.957 257.851
L189.403 260.585
L189.85 262.092
L190.296 260.706
L190.742 256.365
L191.189 262.88
L191.635 261.548
L192.082 253.161
L192.528 257.739
L192.974 258.44
L193.421 262.94
L194.314 257.51
L195.206 262.602
L195.653 261.737
L196.546 255.044
L196.992 261.984
L197.438 261.994
L197.885 257.235
L198.331 254.63
L198.778 261.404
L199.224 260.419
L199.67 253.034
L200.117 258.535
L200.563 257.158
L201.01 261.785
L201.456 259.956
L201.902 260.064
L202.349 258.805
L202.795 261.729
L203.242 258.402
L203.688 260.708
L204.134 259.193
L204.581 264.729
L205.027 260.79
L205.474 260.023
L205.92 258.521
L206.366 263.414
L206.813 257.573
L207.259 254.998
L207.706 258.219
L208.152 258.042
L208.598 262.98
L209.045 259.395
L209.491 261.114
L209.938 255.508
L210.384 261.708
L210.83 257.935
L211.277 257.242
L211.723 261.236
L212.17 259.756
L212.616 259.634
L213.062 257.934
L213.509 259.829
L213.955 261.117
L214.402 258.17
L214.848 254.259
L215.294 253.959
L215.741 260.801
L216.187 262.004
L217.08 257.892
L217.526 258.95
L217.973 260.865
L218.419 258.79
L218.866 202.581
L219.312 263.694
L219.758 263.233
L220.205 260.03
L220.651 259.929
L221.098 259.985
L221.544 262.899
L221.99 260.899
L222.437 348.632
L222.883 258.852
L223.33 261.049
L223.776 259.57
L224.222 256.601
L224.669 260.708
L225.115 262.084
L225.562 258.882
L226.008 258.91
L226.454 262.231
L226.901 261.897
L227.347 260.968
L227.794 257.765
L228.24 262.002
L228.686 261.021
L229.133 260.546
L229.579 250.437
L230.026 253.86
L230.472 264.152
L230.918 259.827
L231.365 257.209
L231.811 258.541
L232.258 262.965
L233.15 259.964
L233.597 260.302
L234.043 264.548
L234.49 259.073
L235.382 260.372
L235.829 262.252
L236.275 259.166
L236.722 259.102
L237.168 253.78
L237.614 261.089
L238.061 258.681
L238.507 258.001
L238.954 259.932
L239.4 263.612
L240.293 257.655
L240.739 204.094
L241.186 266.71
L242.078 259.09
L242.525 259.577
L242.971 264.428
L243.864 257.541
L244.31 257.682
L244.757 348.261
L245.203 256.507
L245.65 257.335
L246.096 260.877
L246.542 260.493
L246.989 257.453
L247.435 260.765
L247.882 259.812
L248.328 263.539
L248.774 259.135
L249.221 259.673
L249.667 260.442
L250.114 259.423
L250.56 256.945
L251.006 257.969
L251.453 262.03
L251.899 259.05
L252.346 258.198
L252.792 262.154
L253.238 256.749
L253.685 259.402
L254.578 261.201
L255.024 263.301
L255.47 257.665
L255.917 260.698
L256.363 259.359
L256.81 259.042
L257.256 255.826
L257.702 262.972
L258.149 258.969
L258.595 259.171
L259.042 258.559
L259.488 257.407
L259.934 262.192
L260.381 261.56
L260.827 257.68
L261.274 259.649
L261.72 260.789
L262.166 259.808
L262.613 258.107
L263.059 259.095
L263.506 260.901
L263.952 256.147
L264.398 261.624
L264.845 262.614
L265.738 258.967
L266.184 261.698
L266.63 261.965
L267.077 250.685
L267.523 262.909
L267.97 258.496
L268.416 257.636
L268.862 257.224
L269.309 263.459
L269.755 261.076
L270.202 259.674
L270.648 258.787
L271.094 263.634
L271.987 258.701
L272.434 260.171
L272.88 263.648
L273.326 259.549
L273.773 258.854
L274.219 259.748
L274.666 256.26
L275.112 261.512
L275.558 257.664
L276.005 258.314
L276.451 261.207
L276.898 261.163
L277.344 258.977
L277.79 259.383
L278.237 254.236
L278.683 261.564
L279.13 257.178
L279.576 258.619
L280.022 261.542
L280.469 262.462
L280.915 259.401
L281.362 257.673
L281.808 261.993
L282.254 256.306
L282.701 259.555
L283.147 260.21
L283.594 255.31
L284.04 262.604
L284.486 258.285
L284.933 259.305
L285.379 259.779
L285.826 263.936
L286.272 256.097
L286.718 258.6
L287.165 259.004
L287.611 262.828
L288.058 260.902
L288.504 260.212
L288.95 259.161
L289.397 262.945
L289.843 256.275
L290.29 259.62
L290.736 259.374
L291.182 257.782
L291.629 261.881
L292.075 260.629
L292.522 260.854
L292.968 260.22
L293.414 261.893
L293.861 262.206
L294.307 258.491
L294.754 256.092
L295.2 262.559
L295.646 259.251
L296.093 260.274
L296.539 258.543
L296.986 263.289
L297.432 251.71
L297.878 259.723
L298.325 260.436
L298.771 255.851
L299.218 263.036
L299.664 260.294
L300.11 259.451
L300.557 258.228
L301.003 263.347
L301.45 259.8
L301.896 258.544
L302.342 258.093
L302.789 260.837
L303.235 260.425
L303.682 258.779
L304.128 258.656
L304.574 263.54
L305.021 254.47
L305.467 257.709
L305.914 257.567
L306.36 262.684
L307.253 258.784
L307.699 253.716
L308.146 261.872
L308.592 261.335
L309.038 254.425
L309.931 263.67
L310.378 259.461
L310.824 258.935
L311.717 263.748
L312.163 257.211
L312.61 253.849
L313.056 256.818
L313.502 256.39
L313.949 263.002
L314.395 262.641
L314.842 259.605
L315.288 257.516
L315.734 261.3
L316.181 261.621
L317.074 258.124
L317.52 261.59
L317.966 262.915
L318.413 258.957
L318.859 258.034
L319.306 260.73
L319.752 261.545
L320.198 255.232
L320.645 258.426
L321.091 254.948
L321.538 260.365
L321.984 260.837
L322.43 258.828
L322.877 257.826
L323.323 264.725
L323.77 259.376
L324.216 258.943
L324.662 259.662
L325.109 262.907
L325.555 257.528
L326.002 259.215
L326.448 258.29
L326.894 262.819
L327.341 259.849
L327.787 252.058
L328.234 258.811
L328.68 258.807
L329.126 261.929
L329.573 258.528
L330.019 258.107
L330.466 261.698
L330.912 260.52
L331.358 260.533
L331.805 200.173
L332.251 263.736
L332.698 263.167
L333.144 259.838
L333.59 260.028
L334.037 260.095
L334.483 263.935
L334.93 256.149
L335.376 254.941
L335.822 257.726
L336.269 262.503
L336.715 261.504
L337.162 257.253
L337.608 262.734
L338.054 262.143
L338.501 258.4
L338.947 257.916
L339.394 260.675
L339.84 261.573
L340.286 258.344
L340.733 257.883
L341.179 258.074
L341.626 260.712
L342.072 262.305
L342.518 248.22
L343.411 261.947
L343.858 258.934
L344.304 258.948
L344.75 255.505
L345.197 263.331
L345.643 259.366
L346.09 260.296
L346.536 258.538
L346.982 262.969
L347.429 261.513
L347.875 259.024
L348.322 259.147
L348.768 262.359
L349.214 257.587
L349.661 258.8
L350.107 248.765
L350.554 257.948
L351 261.349
L351.446 258.384
L351.893 257.536
L352.786 262.574
L353.232 261.031
L353.678 255.742
L354.125 202.11
L354.571 265.955
L355.018 258.725
L355.464 260.104
L355.91 258.543
L356.357 261.128
L356.803 257.568
L357.25 256.55
L357.696 261.515
L358.589 257.925
L359.035 258.169
L359.482 263.303
L359.928 259.808
L360.821 258.444
L361.267 261.736
L361.714 259.094
L362.16 257.818
L362.606 259.802
L363.053 262.717
L363.499 257.15
L363.946 257.968
L364.392 261.573
L364.838 254.029
L365.285 258.088
L365.731 258.258
L366.178 257.139
L366.624 259.67
L367.07 261.365
L367.517 258.46
L367.963 258.065
L368.41 260.642
L368.856 258.845
L369.302 258.711
L369.749 259.217
L370.195 261.502
L370.642 260.229
L371.088 259.659
L371.534 258.234
L371.981 263.659
L372.427 252.964
L372.874 258.786
L373.32 260.709
L373.766 258.618
L374.213 263.253
L374.659 258.65
L375.106 258.126
L375.552 259.055
L375.998 261.933
L376.445 257.38
L376.891 257.466
L377.338 261.086
L377.784 190.346
L378.23 290.027
L378.677 260.745
L379.123 257.982
L379.57 260.113
L380.016 347.341
L380.462 258.734
L380.909 259.359
L381.355 263.55
L381.802 258.598
L382.248 258.821
L382.694 260.029
L383.141 262.724
L383.587 255.717
L384.034 258.693
L384.48 259.816
L384.926 263.757
L385.373 258.2
L385.819 258.159
L386.266 261.636
L386.712 261.338
L387.158 215.747
L387.605 256.719
L388.051 261.241
L388.498 261.657
L389.39 257.676
L389.837 260.413
L390.283 261.406
L390.73 260.734
L391.176 257.832
L391.622 262.306
L392.069 260.862
L392.515 258.428
L392.962 257.697
L393.408 262.159
L394.301 257.393
L394.747 250.853
L395.194 260.259
L395.64 259.041
L396.086 260.493
L396.533 259.526
L396.979 258.102
L397.426 261.65
L397.872 261.566
L398.318 260.282
L398.765 258.026
L399.211 261.364
L399.658 260.168
L400.104 186.509
L400.55 290.157
L400.997 257.122
L401.443 260.862
L401.89 259.366
L402.336 348.401
L402.782 256.255
L403.229 262.418
L403.675 259.412
L404.122 257.699
L404.568 258.97
L405.014 263.236
L405.461 259.055
L405.907 259.826
L406.354 260.288
L406.8 261.573
L407.246 259.841
L407.693 256.374
L408.139 262.252
L408.586 259.124
L409.032 260.31
L409.478 250.774
L409.925 254.751
L410.371 260.269
L410.818 261.338
L411.264 255.667
L411.71 256.842
L412.157 259.488
L412.603 261.118
L413.05 259.108
L413.496 256.317
L413.942 264.197
L414.389 260.706
L414.835 259.449
L415.282 259.08
L415.728 262.99
L416.174 257.693
L416.621 258.459
L417.067 258.591
L417.514 257.614
L417.96 262.09
L418.406 258.096
L418.853 257.689
L419.299 259.142
L419.746 262.249
L420.192 258.585
L420.638 257.347
L421.085 260.954
L421.531 261.966
L421.978 258.835
L422.424 257.26
L422.87 257.731
L423.317 261.03
L423.763 258.174
L424.21 258.966
L424.656 257.706
L425.102 258.378
L425.549 262.366
L425.995 257.732
L426.442 258.513
L426.888 258.418
L427.334 262.597
L427.781 258.601
L428.227 257.92
L428.674 261.732
L429.12 262.393
L429.566 260.134
L430.013 258.565
L430.459 262.429
L430.906 259.46
L431.352 258.729
L431.798 258.244
L432.245 256.19
L432.691 256.518
L433.138 259.319
L433.584 256.182
L434.03 259.948
L434.477 258.065
L434.923 257.725
L435.37 256.235
L435.816 259.568
L436.262 255.522
L436.709 256.834
L437.155 256.183
L437.602 260.456
L438.048 254.265
L438.494 252.896
L438.941 258.089
L439.387 260.99
L439.834 348.514
L440.28 249.66
L440.726 258.332
L441.173 260.32
L441.619 255.59
L442.066 256.12
L442.512 260.019
L442.958 256.378
L443.405 257.691
L443.851 253.793
L444.298 259.413
L444.744 257.674
L445.19 253.798
L445.637 255.787
L446.083 258.978
L446.976 254.702
L447.869 258.201
L448.315 258.968
L448.762 255.099
L449.654 257.891
L450.101 257.699
L450.547 255.103
L450.994 253.369
L451.44 259.905
L451.886 258.596
L452.333 254.662
L452.779 252.113
L453.226 259.577
L454.118 252.205
L454.565 253.995
L455.011 256.556
L455.458 258.007
L455.904 256.211
L456.35 253.899
L456.797 257.763
L457.243 260.475
L457.69 255.257
L458.136 252.917
L458.582 258.131
L459.029 258.699
L459.475 254.344
L459.922 253.435
L460.368 259.383
L460.814 257.68
L461.261 254.995
L461.707 249.572
L462.154 262.006
L462.6 256.019
L463.046 255.905
L463.493 256.859
L463.939 260.238
L464.386 256.117
L464.832 254.767
L465.725 259.459
L466.171 256.811
L466.618 182.574
L467.064 289.66
L467.51 260.578
L467.957 254.988
L468.403 255.125
L468.85 257.823
L469.296 254.973
L469.742 254.585
L470.189 256.463
L470.635 260.249
L471.082 256.378
L471.528 250.935
L471.974 258.389
L472.421 260.816
L472.867 255.873
L473.314 254.895
L473.76 259.044
L474.206 256.995
L475.099 251.654
L475.546 260.627
L475.992 251.403
L476.438 255.092
L477.331 256.753
L477.778 260.645
L478.67 253.45
L479.117 259.36
L479.563 259.259
L480.01 255.876
L480.456 255.115
L480.902 258.515
L481.349 256.318
L481.795 256.943
L482.242 252.184
L482.688 260.629
L483.134 254.762
L483.581 347.347
L484.027 255.855
L484.474 261.124
L485.366 252.517
L485.813 259.467
L486.259 259.194
L487.152 253.114
L487.598 259.184
L488.045 259.307
L488.491 257.516
L488.938 253.214
L489.384 260.742
L489.83 257.076
L490.277 256.304
L490.723 249.922
L491.17 258.483
L491.616 259.628
L492.509 254.116
L492.955 260.22
L493.402 256.431
L493.848 254.29
L494.294 255.727
L494.741 260.159
L495.187 257.056
L495.634 255.224
L496.526 259.025
L496.973 255.371
L497.419 254.824
L497.866 248.496
L498.312 258.547
L499.205 257.361
L499.651 253.014
L500.098 261.475
L500.544 259.547
L500.99 246.006
L501.883 261.173
L502.776 254.283
L503.222 255.988
L503.669 260.345
L504.115 255.578
L504.562 253.706
L505.008 258.177
L505.454 250.334
L505.901 256.932
L506.347 258.447
L506.794 258.088
L507.24 255.984
L507.686 255.435
L508.133 260.388
L509.026 256.011
L509.472 254.313
L509.918 259.368
L510.365 252.083
L510.811 254.886
L511.258 254.379
L511.704 261.604
L512.597 249.99
L513.49 257.376
L513.936 257.441
L514.382 255.218
L514.829 256.416
L515.275 254.981
L515.722 260.85
L516.168 255.533
L516.614 255.55
L517.061 256.175
L517.507 258.69
L517.954 256.496
L517.954 256.496" style="fill:none;stroke:#ff0000;"/>
   </g>
   <g id="line2d_2">
    <path clip-path="url(#p7ff5b81e1d)" d="
M72 270.408
L72.4464 121.727
L72.8928 122.842
L73.3392 112
L74.232 124.044
L74.6784 139.74
L75.1248 134.183
L75.5712 211.545
L76.0176 141.585
L76.464 211.628
L76.9104 135.826
L77.3568 130.567
L77.8032 127.445
L78.2496 137.557
L78.696 127.971
L79.1424 128.431
L79.5888 140.32
L80.0352 134.974
L80.4816 138.312
L80.928 212.241
L81.3744 125.153
L81.8208 132.705
L82.2672 117.114
L82.7136 115.828
L83.16 215.992
L83.6064 210.22
L84.0528 215.63
L84.4992 217.402
L84.9456 211.044
L85.392 127.659
L85.8384 213.051
L86.2848 133.37
L86.7312 133.266
L87.1776 133.901
L87.624 132.461
L88.0704 141.543
L88.5168 131.515
L88.9632 133.683
L89.4096 216.649
L89.856 132.265
L90.3024 126.602
L90.7488 209.03
L91.1952 132.343
L91.6416 138.385
L92.088 210.521
L92.5344 210.85
L92.9808 131.806
L93.4272 209.637
L93.8736 221.036
L94.32 213.058
L94.7664 210.682
L95.2128 217.128
L95.6592 215.342
L96.1056 135.14
L96.552 210.862
L96.9984 219.881
L97.4448 209.882
L97.8912 211.826
L98.3376 214.498
L98.784 208.287
L99.2304 221.056
L99.6768 212.553
L100.123 136.016
L100.57 118.215
L101.016 186.768
L101.462 211.913
L101.909 209.329
L102.355 217.306
L102.802 210.071
L103.248 217.362
L103.694 211.082
L104.141 210.255
L104.587 220.801
L105.034 133.695
L105.48 125.684
L105.926 211.932
L106.373 211.878
L106.819 220.364
L107.266 130.733
L107.712 133.509
L108.158 219.584
L108.605 209.061
L109.051 214.923
L109.498 212.156
L109.944 211.684
L110.39 214.63
L110.837 212.277
L111.73 202.949
L112.176 210.299
L112.622 122.813
L113.069 203.3
L113.515 209.999
L113.962 202.715
L114.408 209.836
L114.854 127.58
L115.301 194.858
L116.194 211.048
L116.64 206.739
L117.086 204.847
L117.533 209.915
L117.979 199.677
L118.426 207.967
L118.872 203.658
L119.318 200.822
L119.765 132.606
L120.211 204.399
L120.658 205.512
L121.104 203.416
L121.55 202.855
L121.997 211.3
L122.443 204.103
L122.89 130.31
L123.336 126.99
L123.782 200.319
L124.229 125.077
L124.675 203.88
L125.122 211.37
L125.568 194.477
L126.014 201.5
L126.461 202.917
L126.907 207.43
L127.354 203.879
L127.8 133.607
L128.246 202.179
L128.693 204.514
L129.139 210.695
L129.586 204.311
L130.032 209.448
L130.925 196.111
L131.371 209.156
L131.818 203.54
L132.264 210.739
L132.71 206.04
L133.157 205.574
L133.603 208.826
L134.05 205.7
L134.496 210.078
L135.389 200.375
L135.835 211.357
L136.282 194.698
L136.728 201.607
L137.174 206.12
L137.621 209.226
L138.067 204.957
L138.514 207.949
L138.96 206.633
L139.406 203.439
L139.853 209.787
L140.299 203.103
L140.746 208.982
L141.192 207.457
L141.638 197.047
L142.085 209.003
L142.531 206.088
L142.978 120.634
L143.424 210.211
L143.87 200.623
L144.317 209.761
L144.763 204.672
L145.21 203.799
L145.656 208.007
L146.102 204.765
L146.549 207.043
L146.995 195.222
L147.442 203.461
L147.888 208.447
L148.334 201.995
L148.781 200.802
L149.227 203.048
L149.674 210.941
L150.566 204.853
L151.013 209.036
L151.459 203.876
L151.906 208.999
L152.352 194.345
L152.798 204.183
L153.245 207.608
L153.691 203.744
L154.138 208.934
L154.584 205.416
L155.03 203.889
L155.477 209.077
L155.923 203.886
L156.37 210.045
L157.262 204.389
L157.709 209.972
L158.155 200.244
L158.602 211.365
L159.494 200.64
L159.941 210.022
L160.387 205.345
L160.834 209.646
L161.28 206.383
L161.726 204.443
L162.173 211.2
L162.619 200.84
L163.512 204.286
L163.958 204.124
L164.405 211.904
L164.851 202.336
L165.298 207.62
L165.744 206.067
L166.19 202.275
L166.637 209.624
L167.083 204.79
L167.53 208.63
L167.976 206.641
L168.422 201.826
L168.869 209.99
L169.315 202.209
L169.762 207.698
L170.654 202.793
L171.101 212.613
L171.547 205.379
L171.994 205.765
L172.44 207.765
L172.886 206.673
L173.333 209.79
L173.779 199.971
L174.226 201.567
L174.672 201.027
L175.118 205.344
L175.565 203.345
L176.011 211.225
L176.458 205.19
L176.904 208.201
L177.35 205.124
L177.797 204.471
L178.243 211.294
L178.69 204.051
L179.136 199.842
L179.582 205.17
L180.029 204.9
L180.475 209.583
L180.922 206.394
L181.368 204.804
L181.814 210.429
L182.261 206.43
L182.707 208.844
L183.6 201.872
L184.046 209.94
L184.493 197.096
L184.939 207.848
L185.386 206.194
L185.832 202.095
L186.278 212.298
L186.725 204.204
L187.171 209.107
L187.618 206.775
L188.064 202.069
L188.51 212.418
L188.957 204.706
L189.403 207.996
L189.85 203.396
L190.296 202.503
L190.742 211.172
L191.189 202.326
L191.635 207.212
L192.528 203.433
L192.974 211.575
L193.421 204.886
L193.867 207.245
L194.314 206.831
L194.76 203.215
L195.206 207.46
L195.653 201.798
L196.099 207.872
L196.546 203.68
L196.992 204.108
L197.438 211.423
L197.885 201.409
L198.331 207.594
L198.778 207.283
L199.224 205.493
L199.67 204.303
L200.117 204.511
L200.563 205.272
L201.01 200.354
L201.456 209.162
L201.902 204.791
L202.349 203.117
L202.795 211.466
L203.242 202.778
L203.688 206.53
L204.134 205.691
L204.581 205.185
L205.027 212.823
L205.474 204.082
L205.92 204.039
L206.366 203.384
L206.813 203.833
L207.259 210.508
L207.706 204.287
L208.152 207.613
L208.598 204.615
L209.045 205.527
L209.491 210.657
L209.938 220.421
L210.384 262.833
L210.83 259.307
L211.277 258.791
L211.723 262.969
L212.17 262.341
L212.616 259.444
L213.062 259.443
L213.509 265.277
L213.955 268.738
L214.402 259.815
L215.294 269.029
L215.741 265.383
L216.187 265.041
L216.634 264.124
L217.08 270.373
L217.526 264.95
L217.973 264.742
L218.419 257.299
L218.866 268.597
L219.312 261.549
L219.758 349.451
L220.205 259.734
L220.651 267.681
L221.098 266.851
L221.544 264.604
L221.99 263.05
L222.437 267.425
L222.883 265.61
L223.33 264.731
L223.776 262.053
L224.222 267.267
L224.669 266.673
L225.115 262.501
L225.562 263.125
L226.008 267.604
L226.454 266.09
L226.901 262.97
L227.347 255.584
L227.794 258.658
L228.24 259.881
L228.686 268.025
L229.579 263.945
L230.026 260.076
L230.472 267.404
L230.918 266.536
L231.365 264.133
L231.811 263.839
L232.258 266.671
L233.15 266.077
L233.597 262.397
L234.043 268.117
L234.49 267.925
L234.936 259.197
L235.382 265.857
L235.829 265.015
L236.275 260.884
L236.722 263.859
L237.168 265.59
L237.614 263.965
L238.061 265.251
L238.507 263.098
L238.954 270.201
L239.846 262.041
L240.293 262.5
L240.739 269.045
L241.186 266.488
L241.632 266.564
L242.078 261.8
L242.525 263.66
L242.971 348.647
L243.418 259.772
L243.864 259.915
L244.31 265.047
L244.757 268.336
L245.203 263.053
L246.096 264.631
L246.542 267.293
L246.989 265.089
L247.435 264.391
L247.882 267.246
L248.328 263.565
L248.774 263.758
L249.221 262.641
L249.667 264.803
L250.114 265.423
L250.56 262.591
L251.006 267.709
L251.453 263.171
L251.899 262.323
L252.792 267.414
L253.238 261.02
L253.685 264.293
L254.131 262.397
L254.578 265.719
L255.024 267.24
L255.47 263.484
L255.917 265.156
L256.363 265.41
L256.81 268.866
L257.256 263.979
L257.702 263.387
L258.149 348.335
L258.595 265.776
L259.042 264.062
L259.488 266.071
L259.934 262.567
L260.381 266.712
L260.827 264.132
L261.274 264.684
L261.72 262.262
L262.166 265.65
L262.613 264.019
L263.059 266.63
L263.506 263.071
L263.952 266.771
L264.398 266.076
L264.845 266.826
L265.738 261.696
L266.184 260.639
L266.63 265.185
L267.077 266.147
L267.523 263.952
L267.97 263.251
L268.416 266.989
L268.862 268.937
L269.309 265.051
L269.755 263.039
L270.202 266.697
L270.648 268.795
L271.094 264.218
L271.541 261.097
L271.987 268.904
L272.434 268.921
L272.88 262.931
L273.326 230.14
L273.773 255.334
L274.219 267.539
L274.666 262.076
L275.112 264.622
L275.558 260.07
L276.005 266.237
L276.451 267.601
L276.898 262.393
L277.344 263.923
L277.79 263.381
L278.237 268.425
L278.683 263.449
L279.13 264.519
L279.576 263.62
L280.022 268.188
L280.469 264.862
L280.915 263.275
L281.362 262.138
L281.808 266.804
L282.701 263.333
L283.147 262.851
L283.594 266.748
L284.04 260.263
L284.486 265.521
L284.933 262.826
L285.379 267.241
L285.826 266.312
L286.272 266.216
L286.718 261.963
L287.165 263.718
L287.611 268.474
L288.95 260.819
L289.843 267.001
L290.29 267.647
L290.736 264.316
L291.182 263.614
L291.629 268.86
L292.075 266.465
L292.522 267.295
L292.968 261.187
L293.414 266.729
L293.861 269.588
L294.307 265.951
L294.754 264.479
L295.2 266.77
L295.646 266.815
L296.093 262.619
L296.539 263.21
L296.986 260.085
L297.432 261.578
L298.325 267.899
L299.218 263.441
L299.664 262.154
L300.557 269.774
L301.003 264.635
L301.45 263.243
L302.342 269.209
L302.789 264.762
L303.235 264.36
L303.682 266.108
L304.128 268.934
L304.574 265.059
L305.021 255.361
L305.467 264.166
L306.36 265.845
L306.806 266.569
L307.253 264.031
L307.699 263.751
L308.146 264.56
L308.592 267.849
L309.038 264.559
L309.485 265.523
L309.931 264.417
L310.378 267.648
L310.824 263.755
L311.27 261.67
L311.717 263.235
L312.163 269.005
L312.61 266.81
L313.056 349.877
L313.502 259.987
L313.949 269.555
L314.395 270.288
L314.842 265.227
L315.288 263.647
L315.734 266.794
L316.181 268.517
L316.627 266.419
L317.074 263.579
L317.52 266.669
L317.966 265.589
L318.413 265.158
L318.859 262.89
L319.752 267.639
L320.198 264.161
L320.645 210.454
L321.091 258.07
L321.538 267.085
L321.984 262.151
L322.43 266.825
L322.877 267.282
L323.323 266.515
L323.77 262.169
L324.216 268.329
L324.662 267.21
L325.109 264.086
L325.555 263.899
L326.448 268.269
L326.894 263.704
L327.341 263.139
L327.787 265.916
L328.234 261.666
L328.68 268.071
L329.126 266.342
L329.573 265.921
L330.019 264.58
L330.466 269.799
L330.912 261.583
L331.358 263.338
L331.805 263.354
L332.251 270.069
L332.698 265.967
L333.144 263.65
L333.59 263.256
L334.037 269.809
L334.483 265.505
L334.93 265.547
L335.376 259.385
L336.269 262.003
L336.715 269.952
L337.162 262.688
L337.608 267.007
L338.054 263.243
L338.501 269.408
L339.394 262.32
L339.84 262.086
L340.286 266.587
L340.733 266.362
L341.179 266.323
L341.626 263.752
L342.072 267.249
L342.518 266.693
L343.411 261.944
L343.858 348.975
L344.304 261.716
L344.75 263.157
L345.197 265.302
L345.643 264.97
L346.09 260.452
L346.536 266.89
L346.982 268.579
L347.429 266.723
L347.875 263.41
L348.322 268.093
L348.768 267.591
L349.214 263.711
L349.661 263.947
L350.107 265.738
L350.554 266.668
L351 262.282
L351.446 348.193
L351.893 260.058
L352.339 270.624
L352.786 265.041
L353.232 263.639
L353.678 263.474
L354.125 270.07
L354.571 264.572
L355.018 261.673
L355.464 264.726
L355.91 268.686
L356.357 267.35
L356.803 263.794
L357.25 263.97
L357.696 268.468
L358.142 266.632
L358.589 263.139
L359.035 254.618
L359.482 264.246
L359.928 267.051
L360.374 265.372
L360.821 267.621
L361.714 263.336
L362.16 261.839
L362.606 267.583
L363.053 266.249
L363.499 266.935
L363.946 261.566
L364.392 267.291
L364.838 267.749
L365.285 263.933
L365.731 263.472
L366.178 266.196
L366.624 267.224
L367.07 257.027
L367.517 263.871
L367.963 264.845
L368.41 261.71
L368.856 260.688
L369.302 265.987
L369.749 268.356
L370.195 264.47
L370.642 262.875
L371.088 266.462
L371.534 268.036
L371.981 263.509
L372.427 263.74
L372.874 265.988
L373.32 267.263
L373.766 264.135
L374.213 264.743
L374.659 260.865
L375.106 349.162
L375.552 263.29
L375.998 265.228
L376.445 263.216
L376.891 268.904
L377.338 267.037
L377.784 263.196
L378.23 262.727
L378.677 266.763
L379.123 266.586
L380.016 259.76
L380.462 265.683
L380.909 262.694
L381.355 264.515
L381.802 261.564
L382.248 262.125
L382.694 258.669
L383.141 259.158
L383.587 266.427
L384.034 265.379
L384.48 265.07
L384.926 263.579
L385.373 266.199
L385.819 263.293
L386.266 264.657
L386.712 262.349
L387.158 265.563
L387.605 265.662
L388.051 265.098
L388.498 263.066
L388.944 265.755
L389.39 265.139
L390.283 262.85
L390.73 260.038
L391.176 263.963
L391.622 259.676
L392.069 262.354
L392.515 262.838
L392.962 261.623
L393.408 266.068
L393.854 264.718
L394.301 264.296
L394.747 258.92
L395.194 267.449
L396.086 263.387
L396.533 261.924
L396.979 265.457
L397.872 258.149
L398.318 259.495
L398.765 267.972
L399.211 258.553
L399.658 260.755
L400.104 261.749
L400.55 263.495
L400.997 266.426
L401.89 263.154
L402.336 262.141
L402.782 266.067
L403.229 264.716
L403.675 264.133
L404.122 262.981
L404.568 266.063
L405.014 262.092
L405.461 170.017
L405.907 306.888
L406.354 263.195
L406.8 265.452
L407.246 264.588
L407.693 260.514
L408.139 265.403
L408.586 265.542
L409.032 263.928
L409.478 261.138
L409.925 265.077
L410.371 266.079
L410.818 264.863
L411.264 259.638
L411.71 266.54
L412.157 265.478
L412.603 263.684
L413.05 262.92
L413.496 264.55
L413.942 262.9
L414.389 265.893
L414.835 264.145
L415.282 265.495
L415.728 265.454
L416.174 262.882
L416.621 265.557
L417.067 264.224
L417.514 265.378
L417.96 263.31
L418.406 265.458
L418.853 261.61
L419.299 263.755
L419.746 261.529
L420.192 265.914
L420.638 262.452
L421.085 347.49
L421.531 259.414
L421.978 266.761
L422.424 267.255
L423.317 260.245
L423.763 265.453
L424.21 268.079
L424.656 262.501
L425.102 261.986
L425.549 264.604
L425.995 266.212
L426.442 261.516
L426.888 263.636
L427.334 264.106
L427.781 265.385
L428.227 257.081
L428.674 263.503
L429.12 264.62
L429.566 261.895
L430.013 262.986
L430.459 266.916
L430.906 261.872
L431.352 262.315
L431.798 264.619
L432.245 267.744
L432.691 262.571
L433.138 261.12
L433.584 264.143
L434.03 265.898
L434.477 264.631
L434.923 262.007
L435.37 261.119
L435.816 266.346
L436.262 262.427
L436.709 262.05
L437.155 260.694
L437.602 259.933
L438.048 265.411
L438.494 266.795
L438.941 265.107
L439.387 261.089
L439.834 265.471
L440.28 267.492
L440.726 263.837
L441.173 262.945
L441.619 265.395
L442.066 265.46
L442.512 261.616
L442.958 260.268
L443.405 265.912
L443.851 349.195
L444.298 260.325
L444.744 263.333
L445.19 262.621
L445.637 265.79
L446.083 263.688
L446.53 264.209
L446.976 263.289
L447.422 266.332
L447.869 264.123
L448.315 262.972
L448.762 262.955
L449.208 266.289
L449.654 264.991
L450.101 264.217
L450.547 262.345
L450.994 266.877
L451.44 261.865
L451.886 264.842
L452.333 264.266
L452.779 264.492
L453.226 262.656
L453.672 266.803
L454.118 262.508
L454.565 262.386
L455.011 261.66
L455.458 266.601
L455.904 262.625
L456.35 264.056
L456.797 263.111
L457.243 263.741
L457.69 263.172
L458.136 261.299
L458.582 261.799
L459.029 260.944
L459.475 267.668
L460.368 259.968
L460.814 263.392
L461.261 264.249
L461.707 266.716
L462.6 261.606
L463.046 264.336
L463.493 266.32
L463.939 260.438
L464.386 261.886
L464.832 263.782
L465.278 268.179
L465.725 259.422
L466.171 263.263
L466.618 349.537
L467.064 260.125
L467.51 264.974
L468.403 262.077
L468.85 266.741
L469.296 264.325
L469.742 265.213
L470.189 260.041
L470.635 265.901
L471.082 263.31
L471.528 264.506
L471.974 261.587
L472.421 265.039
L472.867 265.574
L473.314 261.912
L473.76 257.316
L474.206 262.376
L474.653 261.391
L475.099 267.429
L475.992 261.992
L476.438 262.634
L476.885 265.236
L477.331 264.049
L477.778 264.774
L478.224 259.387
L478.67 266.431
L479.117 265.901
L479.563 264.702
L480.01 262.344
L480.456 264.412
L480.902 263.137
L481.349 266.627
L481.795 262.089
L482.242 260.192
L482.688 267.926
L483.134 264.209
L483.581 262.343
L484.027 263.967
L484.474 262.886
L484.92 266.417
L485.366 262.825
L485.813 263.817
L486.259 262.27
L486.706 265.957
L487.152 262.089
L487.598 263.127
L488.045 260.333
L488.491 264.961
L488.938 258.665
L489.384 260.173
L489.83 261.167
L490.277 264.991
L490.723 262.453
L491.17 261.52
L491.616 260.062
L492.062 263.257
L492.509 262.469
L492.955 260.337
L493.402 260.237
L493.848 263.354
L494.294 261.792
L494.741 261.251
L495.187 259.923
L495.634 262.163
L496.08 261.062
L496.526 253.98
L496.973 262.354
L497.419 262.273
L497.866 259.947
L498.312 264.67
L498.758 260.623
L499.205 261.155
L499.651 261.011
L500.098 264.026
L500.544 260.425
L500.99 260.537
L501.437 259.843
L501.883 264.775
L502.776 260.988
L503.222 261.472
L503.669 263.866
L504.115 254.547
L504.562 259.357
L505.008 258.099
L505.454 261.438
L505.901 261.682
L506.347 263.056
L506.794 261.755
L507.24 259.79
L507.686 264.118
L508.133 264.949
L508.579 261.267
L509.026 259.845
L509.472 262.496
L509.918 262.099
L510.365 260.283
L510.811 259.762
L511.258 262.41
L511.704 256.338
L512.15 265.001
L512.597 262.546
L513.043 260.977
L513.49 263.771
L513.936 261.995
L514.382 263.851
L514.829 258.657
L515.275 262.517
L515.722 262.407
L516.168 261.315
L516.614 261.041
L517.061 265.269
L517.507 259.258
L517.954 263.22
L517.954 263.22" style="fill:none;opacity:0.7;stroke:#008000;"/>
   </g>
   <g id="line2d_3">
    <path clip-path="url(#p7ff5b81e1d)" d="
M72 350.365
L72.4464 194.277
L72.8928 254.898
L73.3392 251.278
L73.7856 251.356
L74.232 258.364
L75.1248 251.893
L75.5712 258.449
L76.0176 257.682
L76.9104 253.502
L77.3568 258.177
L77.8032 255.727
L78.2496 258.414
L78.696 254.452
L79.1424 258.883
L79.5888 257.56
L80.0352 257.792
L80.4816 254.5
L80.928 249.617
L81.3744 255.816
L81.8208 254.903
L82.2672 257.408
L82.7136 256.784
L83.6064 253.754
L84.0528 259.987
L84.4992 256.516
L84.9456 257.653
L85.392 250.356
L85.8384 258.434
L86.2848 260.25
L86.7312 256.543
L87.1776 256.168
L87.624 260.684
L88.0704 258.588
L88.5168 249.543
L89.4096 261.421
L89.856 257.21
L90.3024 255.57
L90.7488 257.311
L91.1952 262.316
L91.6416 258.518
L92.088 256.225
L92.5344 258.267
L92.9808 261.723
L93.4272 259.209
L93.8736 255.21
L94.32 258.869
L94.7664 261.581
L95.2128 257.066
L95.6592 249.29
L96.552 257.663
L96.9984 261.125
L97.4448 255.497
L97.8912 257.446
L98.3376 262.19
L98.784 257.757
L99.2304 255.923
L99.6768 255.039
L100.123 262.269
L100.57 256.31
L101.016 255.527
L101.462 261.182
L101.909 259.636
L102.355 255.525
L102.802 256.463
L103.248 253.672
L103.694 258.64
L104.141 256.986
L104.587 253.619
L105.034 260.413
L105.48 256.583
L105.926 257.285
L106.373 256.843
L106.819 262.223
L107.266 254.725
L107.712 256.995
L108.158 254.909
L108.605 256.993
L109.051 255.993
L109.498 259.491
L109.944 256.312
L110.39 261.406
L110.837 255.628
L111.283 260.982
L111.73 258.486
L112.176 257.876
L112.622 259.452
L113.069 259.592
L113.515 258.527
L113.962 247.814
L114.408 259.085
L114.854 260.009
L115.301 259.662
L115.747 255.704
L116.194 261.918
L116.64 257.659
L117.086 259.921
L117.533 257.337
L117.979 261.922
L118.426 250.401
L118.872 255.317
L119.318 257.791
L119.765 258.437
L120.211 261.557
L120.658 259.446
L121.104 255.457
L121.55 257.187
L121.997 261.092
L122.443 255.885
L122.89 255.559
L123.336 259.977
L123.782 257.215
L124.229 257.633
L124.675 255.515
L125.122 259.754
L125.568 257.75
L126.014 249.929
L126.461 256.774
L126.907 258.928
L127.354 262.189
L128.246 256.192
L128.693 259.393
L129.139 259.936
L130.032 255.706
L130.478 257.011
L130.925 259.222
L131.818 252.547
L132.264 257.647
L132.71 256.232
L133.157 258.065
L133.603 244.258
L134.496 260.347
L135.835 253.807
L136.282 260.809
L136.728 255.543
L137.174 253.646
L138.067 259.016
L138.514 253.387
L138.96 251.479
L139.406 257.839
L139.853 252.47
L140.299 254.198
L140.746 252.688
L141.192 255.367
L141.638 255.18
L142.085 251.642
L142.531 260.955
L142.978 255.986
L143.424 255.061
L143.87 253.778
L144.317 259.44
L144.763 255.178
L145.21 254.575
L145.656 259.236
L146.102 259.954
L146.995 251.253
L147.442 258.031
L147.888 251.626
L148.334 249.482
L148.781 251.652
L149.227 259.754
L149.674 257.702
L150.12 252.508
L150.566 258.929
L151.013 257.903
L151.906 252.58
L152.352 259.624
L152.798 257.817
L153.245 255.5
L153.691 246.416
L154.138 259.914
L154.584 252.918
L155.03 250.084
L155.477 251.506
L155.923 257.335
L156.37 246.591
L156.816 256.37
L157.262 256.511
L157.709 260.927
L158.155 257.096
L158.602 254.605
L159.048 259.621
L159.941 257.224
L160.387 254.199
L160.834 257.742
L161.28 253.245
L161.726 256.353
L162.173 255.719
L162.619 350.989
L163.066 254.529
L163.512 254.249
L164.405 259.564
L165.298 253.006
L165.744 257.976
L166.19 254.223
L166.637 255.119
L167.083 254.17
L167.53 261.714
L167.976 255.343
L168.422 252.476
L168.869 258.907
L169.315 252.857
L169.762 253.594
L170.208 255.395
L170.654 258.676
L171.547 251.386
L171.994 259.84
L172.886 255.344
L173.333 252.515
L173.779 259.396
L174.226 251.926
L174.672 257.309
L175.118 255.052
L175.565 258.942
L176.011 255.08
L176.458 254.133
L176.904 259.094
L178.243 252.515
L178.69 260.274
L179.136 251.686
L179.582 257.513
L180.029 254.698
L180.475 258.481
L181.368 252.797
L181.814 256.951
L182.261 257.894
L182.707 254.358
L183.154 252.964
L183.6 252.968
L184.046 250.421
L184.493 256.549
L184.939 254.629
L185.386 258.968
L185.832 257.848
L186.278 254.025
L186.725 258.948
L187.171 259.446
L188.064 254.092
L188.51 260.195
L188.957 255.729
L189.403 256.994
L189.85 252.579
L190.296 258.948
L190.742 255.552
L191.189 246.001
L191.635 221.083
L192.082 258.446
L192.528 256.377
L192.974 252.366
L193.421 257.651
L193.867 255.507
L194.314 254.565
L194.76 252.786
L195.206 259.02
L196.099 252.392
L196.546 257.367
L196.992 256.859
L197.438 258.217
L197.885 251.186
L198.331 251.8
L198.778 254.425
L199.224 255.499
L199.67 252.922
L200.117 248.983
L200.563 257.956
L201.01 257.665
L201.456 251.361
L201.902 253.062
L202.349 257.967
L202.795 254.449
L203.242 256.569
L203.688 254.373
L204.134 259.111
L204.581 253.516
L205.027 252.968
L205.474 251.057
L205.92 257.096
L206.366 254.056
L207.259 257.647
L207.706 256.603
L208.152 257.87
L208.598 254.199
L209.045 259.403
L209.491 256.917
L209.938 256.68
L210.384 254.344
L210.83 258.021
L211.277 251.844
L211.723 252.896
L212.17 254.469
L212.616 258.162
L213.062 253.42
L213.509 251.021
L213.955 261.156
L214.402 255.939
L214.848 252.085
L215.294 257.228
L215.741 258.15
L216.187 256.318
L216.634 251.76
L217.08 257.133
L217.526 250.995
L217.973 261.224
L218.419 254.269
L218.866 260.552
L219.312 255.354
L219.758 252.972
L220.205 349.615
L220.651 259.241
L221.098 257.409
L221.544 257.23
L222.437 255.16
L222.883 254.005
L223.33 259.526
L223.776 255.465
L224.222 254.29
L224.669 255.95
L225.115 258.546
L225.562 253.84
L226.008 252.015
L226.454 256.986
L226.901 256.087
L227.347 257.943
L227.794 254.204
L228.24 254.33
L228.686 259.269
L229.133 259.396
L229.579 256.362
L230.026 251.664
L230.472 261.468
L230.918 256.831
L231.365 256.826
L231.811 256.372
L232.258 260.945
L232.704 254.017
L233.15 252.067
L233.597 257.235
L234.043 254.73
L234.49 349.257
L234.936 250.556
L235.382 259.281
L235.829 257.755
L236.275 254.605
L236.722 255.052
L237.168 259.01
L237.614 253.34
L238.061 250.84
L238.507 258.174
L238.954 259.935
L239.4 252.889
L239.846 251.14
L240.293 258.423
L240.739 256.894
L241.186 249.757
L241.632 254.556
L242.078 256.683
L242.525 253.236
L242.971 250.753
L243.418 259.932
L243.864 255.572
L244.31 254.702
L244.757 252.419
L245.203 258.741
L245.65 255.567
L246.096 256.382
L246.542 253.838
L246.989 257.3
L247.882 251.879
L248.328 258.427
L248.774 252.491
L249.221 255.136
L249.667 253.655
L250.114 258.411
L250.56 252.935
L251.006 251.964
L251.453 256.863
L251.899 259.782
L252.346 258.429
L252.792 254.194
L253.238 258.518
L253.685 257.543
L254.131 255.204
L254.578 255.115
L255.024 256.821
L255.47 253.82
L255.917 254.884
L256.363 259.061
L256.81 253.792
L257.256 252.882
L257.702 255.483
L258.149 260.417
L258.595 255.614
L259.042 254.416
L259.488 251.625
L259.934 257.605
L260.381 252.165
L260.827 255.123
L261.274 259.772
L261.72 255.959
L262.613 253.212
L263.059 351.77
L263.506 251.816
L263.952 254.461
L264.398 259.884
L265.291 257.157
L265.738 253.283
L266.184 260.826
L266.63 252.394
L267.077 254.65
L267.523 255.269
L267.97 257.734
L268.416 247.397
L268.862 252.575
L269.309 254.39
L269.755 252.018
L270.202 254.062
L270.648 254.27
L271.094 259.829
L271.541 253.714
L271.987 255.072
L272.434 255.974
L272.88 258.113
L273.326 252.665
L273.773 251.458
L274.219 255.595
L274.666 256.385
L275.112 255.9
L275.558 248.615
L276.005 259.015
L276.451 253.38
L276.898 243.738
L277.344 257.58
L277.79 253.116
L278.237 256.101
L278.683 255.339
L279.13 259.374
L279.576 255.545
L280.022 253.354
L280.469 258.226
L280.915 258.396
L281.362 257.374
L281.808 252.051
L282.254 257.137
L282.701 253.79
L283.147 256.023
L283.594 253.753
L284.04 258.059
L284.486 255.125
L284.933 250.351
L285.379 258.582
L285.826 254.278
L286.272 252.934
L286.718 252.824
L287.165 260.132
L287.611 254.425
L288.058 252.56
L288.504 256.621
L288.95 254.906
L289.397 257.476
L289.843 252.222
L290.29 259.066
L290.736 252.704
L291.629 256.451
L292.075 253.096
L292.522 253.282
L292.968 254.561
L293.414 256.657
L293.861 255.208
L294.307 251.198
L294.754 255.022
L295.2 257.733
L295.646 251.63
L296.093 252.577
L296.539 255.966
L296.986 254.685
L297.432 253.842
L297.878 252.556
L298.325 257.429
L298.771 252.368
L299.218 251.025
L299.664 255.311
L300.11 256.216
L300.557 254.456
L301.003 252.056
L301.45 256.649
L301.896 254.442
L302.342 255.972
L302.789 255.973
L303.235 258.817
L303.682 249.5
L304.128 250.384
L304.574 256.753
L305.021 256.216
L305.467 250.328
L305.914 255.348
L306.36 258.524
L306.806 257.292
L307.253 254.103
L307.699 257.073
L308.146 255.114
L308.592 254.382
L309.038 254.748
L309.485 259.852
L310.378 251.17
L310.824 258.402
L311.27 256.366
L311.717 255.996
L312.163 254.207
L312.61 257.594
L313.056 250.909
L313.502 256.365
L313.949 254.934
L314.395 256.573
L314.842 253.469
L315.288 253.574
L315.734 256.143
L316.181 256.771
L316.627 253.005
L317.074 251.695
L317.52 255.721
L318.413 252.008
L318.859 255.07
L319.306 260.118
L319.752 254.906
L320.198 252.929
L320.645 259.881
L321.091 253.354
L321.538 250.754
L322.43 257.391
L322.877 254.708
L323.323 254.292
L323.77 258.708
L324.216 257.21
L324.662 253.35
L325.109 252.233
L325.555 257.165
L326.002 252.531
L326.448 253.818
L326.894 253.888
L327.341 257.173
L327.787 255.194
L328.234 254.879
L328.68 256.018
L329.126 259.378
L329.573 254.641
L330.019 254.21
L330.466 258.556
L331.358 252.341
L331.805 253.049
L332.251 258.468
L332.698 255.904
L333.144 249.137
L333.59 254.512
L334.037 256.954
L334.483 247.726
L335.376 256.615
L335.822 255.307
L336.269 253.259
L336.715 252.64
L337.162 258.596
L337.608 253.682
L338.054 252.607
L338.501 255.694
L338.947 257.114
L339.394 253.283
L339.84 252.197
L340.286 258.888
L340.733 255.507
L341.179 255.211
L341.626 256.914
L342.072 256.665
L342.518 255.632
L342.965 252.17
L343.411 258.769
L343.858 253.959
L344.304 252.072
L344.75 251.386
L345.197 255.863
L345.643 252.451
L346.09 254.437
L346.536 253.366
L346.982 256.717
L347.429 252.944
L347.875 252.132
L348.322 256.52
L348.768 251.229
L349.214 255.546
L349.661 256.356
L350.107 259.861
L351 252.558
L351.446 256.393
L351.893 253.774
L352.339 254.638
L352.786 252.864
L353.232 260.428
L353.678 253.754
L354.125 253.157
L354.571 256.152
L355.018 257.691
L355.464 254.951
L355.91 254.377
L356.357 259.396
L356.803 254.655
L357.25 253.783
L357.696 255.946
L358.142 258.987
L359.035 252.982
L359.482 256.236
L359.928 249.006
L360.374 251.64
L360.821 255.588
L361.267 257.171
L361.714 251.765
L362.16 255.028
L362.606 257.126
L363.053 253.633
L364.392 257.517
L364.838 255.264
L365.285 253.865
L365.731 258.469
L366.178 257.252
L366.624 253.564
L367.07 252.356
L367.517 258.667
L367.963 251.502
L368.41 251.27
L368.856 255.951
L369.302 256.924
L369.749 252.8
L370.195 252.66
L370.642 257.246
L371.088 252.932
L371.534 252.981
L371.981 253.374
L372.427 258.179
L372.874 255.161
L373.32 253.666
L373.766 256.468
L374.213 256.428
L374.659 254.223
L375.106 252.61
L375.552 255.546
L375.998 251.438
L376.445 253.074
L376.891 252.991
L377.338 255.32
L377.784 254.454
L378.23 252.013
L378.677 257.744
L379.123 254.064
L379.57 252.972
L380.016 253.569
L380.462 257.236
L380.909 251.302
L381.802 255.42
L382.248 256.563
L382.694 254.583
L383.141 254.213
L383.587 258.596
L384.034 252.938
L384.48 250.851
L384.926 257.358
L385.819 252.938
L386.266 253.487
L386.712 258.413
L387.158 252.245
L387.605 252.171
L388.051 258.544
L388.944 255.673
L389.39 252.061
L389.837 258.973
L390.283 255.489
L390.73 253.808
L391.176 249.166
L391.622 253.229
L392.069 256.074
L392.515 254.577
L392.962 257.933
L393.408 253.989
L393.854 253.361
L394.301 254.592
L394.747 257.083
L395.194 252.769
L395.64 251.317
L396.086 255.546
L396.533 253.893
L396.979 250.952
L397.872 256.563
L398.318 251.456
L398.765 251.146
L399.211 257.362
L399.658 257.007
L400.104 252.988
L400.55 254.202
L400.997 257.21
L401.443 255.097
L401.89 256.374
L402.336 251.511
L402.782 257.938
L403.675 250.592
L404.568 257.114
L405.014 253.954
L405.461 247.512
L405.907 255.8
L406.354 251.638
L406.8 253.395
L407.693 258.87
L408.139 254.332
L408.586 252.155
L409.032 260.087
L409.478 253.846
L409.925 253.277
L410.371 255.48
L410.818 256.946
L411.264 251.179
L411.71 252.95
L412.157 256.429
L412.603 253.075
L413.05 251.398
L413.496 258.252
L413.942 256.697
L414.389 255.65
L414.835 253.835
L415.282 257.637
L415.728 255.092
L416.174 255.95
L416.621 253.817
L417.067 257.751
L417.514 254.589
L417.96 252.674
L418.853 258.65
L419.299 254.096
L419.746 252.131
L420.192 256.349
L420.638 252.683
L421.085 254.008
L421.531 258.665
L421.978 253.386
L422.424 254.766
L422.87 252.946
L423.317 259.379
L423.763 254.452
L424.21 254.711
L424.656 250.277
L425.102 258.658
L425.549 252.56
L425.995 255.377
L426.442 256.328
L426.888 257.752
L427.334 249.52
L427.781 253.37
L428.227 259.684
L429.12 253.705
L429.566 256.393
L430.013 257.327
L430.459 255.043
L430.906 254.342
L431.352 258.443
L431.798 255.151
L432.245 255.936
L432.691 252.514
L433.138 259.4
L433.584 253.804
L434.03 252.266
L434.477 258.771
L434.923 255.102
L435.37 254.215
L435.816 256.001
L436.262 256.833
L437.155 249.936
L437.602 257.706
L438.048 255.532
L438.941 250.107
L439.387 258.493
L439.834 251.206
L440.726 252.902
L441.173 254.614
L441.619 250.944
L442.512 256.83
L442.958 250.449
L443.405 249.486
L443.851 253.889
L444.298 254.149
L444.744 248.725
L445.19 250.689
L445.637 255.965
L446.083 250.424
L446.53 252.479
L446.976 251.836
L447.422 256.504
L447.869 252.269
L448.315 250.236
L448.762 254.08
L449.654 248.207
L450.101 256.63
L450.547 253.708
L450.994 248.853
L451.44 246.94
L451.886 254.902
L452.333 249.592
L452.779 254.49
L453.226 254.489
L453.672 255.53
L454.118 248.293
L454.565 251.936
L455.011 254.643
L455.904 247.962
L456.35 254.232
L456.797 255.33
L457.243 250.731
L457.69 250.117
L458.136 254.998
L458.582 251.655
L459.029 250.375
L459.475 248.5
L459.922 256.906
L460.814 248.073
L461.261 255.397
L461.707 252.332
L462.154 251.207
L462.6 242.295
L463.046 252.784
L463.493 251.255
L463.939 247.87
L464.386 255.544
L464.832 251.649
L465.278 250.03
L465.725 252.739
L466.171 256.597
L466.618 250.659
L467.51 252.499
L467.957 250.357
L468.403 252.572
L469.296 253.212
L469.742 246.926
L470.189 248.062
L470.635 256.251
L471.082 249.559
L471.528 250.381
L471.974 253.127
L472.421 253.09
L472.867 251.542
L473.314 248.456
L473.76 257.676
L474.206 252.983
L474.653 252.482
L475.546 249.813
L475.992 250.167
L476.438 251.307
L476.885 250.2
L477.331 250.418
L477.778 249.579
L478.224 256.395
L478.67 255.961
L479.117 252.083
L479.563 251.678
L480.01 254.672
L480.456 251.348
L481.349 251.279
L481.795 253.507
L482.242 250.837
L482.688 250.303
L483.134 253.879
L483.581 253.965
L484.027 244.199
L484.474 247.827
L484.92 255.493
L485.366 251.653
L485.813 256.548
L486.259 253.263
L486.706 250.94
L487.598 256.397
L488.045 252.314
L488.491 251.472
L489.384 255.109
L489.83 249.564
L490.277 250.34
L490.723 256.434
L491.17 247.194
L491.616 250.992
L492.062 251.982
L492.509 252.285
L492.955 254.685
L493.402 250.367
L493.848 247.742
L494.294 255.985
L494.741 252.644
L495.187 255.016
L495.634 252.508
L496.08 252.18
L496.526 249.797
L496.973 250.924
L497.419 255.107
L497.866 250.423
L498.312 248.394
L498.758 255.828
L499.205 253.356
L499.651 252.511
L500.098 252.503
L500.544 257.712
L500.99 252.978
L501.437 249.478
L501.883 255.714
L502.33 255.793
L502.776 246.505
L503.222 249.479
L503.669 253.366
L504.115 254.125
L504.562 248.446
L505.008 250.28
L505.454 249.359
L505.901 251.214
L506.347 250.381
L506.794 256.459
L507.24 251.999
L507.686 250.038
L508.579 254.521
L509.026 251.308
L509.472 249.367
L509.918 252.975
L510.365 253.457
L510.811 249.963
L511.258 251.97
L511.704 257.43
L512.15 252.421
L512.597 241.711
L513.043 257.711
L513.49 252.937
L513.936 252.259
L514.382 253.556
L514.829 253.555
L515.275 250.764
L515.722 249.983
L516.168 251.92
L517.061 250.515
L517.507 253.366
L517.954 257.244
L517.954 257.244" style="fill:none;opacity:0.5;stroke:#0000ff;"/>
   </g>
   <g id="matplotlib.axis_1">
    <g id="xtick_1">
     <g id="line2d_4">
      <path clip-path="url(#p7ff5b81e1d)" d="
M72 388.8
L72 43.2" style="fill:none;stroke:#000000;stroke-dasharray:1.000000,3.000000;stroke-dashoffset:0.0;stroke-linecap:butt;stroke-width:0.5;"/>
     </g>
     <g id="line2d_5">
      <defs>
       <path d="
M0 0
L0 -4" id="m0012dd4eef" style="stroke:#000000;stroke-linecap:butt;stroke-width:0.5;"/>
      </defs>
      <g>
       <use style="stroke:#000000;stroke-linecap:butt;stroke-width:0.5;" x="72.0" xlink:href="#m0012dd4eef" y="388.8"/>
      </g>
     </g>
     <g id="line2d_6">
      <defs>
       <path d="
M0 0
L0 4" id="m476344969c" style="stroke:#000000;stroke-linecap:butt;stroke-width:0.5;"/>
      </defs>
      <g>
       <use style="stroke:#000000;stroke-linecap:butt;stroke-width:0.5;" x="72.0" xlink:href="#m476344969c" y="43.2"/>
      </g>
     </g>
     <g id="text_1">
      <!-- 0 -->
      <defs>
       <path d="
M31.7812 66.4062
Q24.1719 66.4062 20.3281 58.9062
Q16.5 51.4219 16.5 36.375
Q16.5 21.3906 20.3281 13.8906
Q24.1719 6.39062 31.7812 6.39062
Q39.4531 6.39062 43.2812 13.8906
Q47.125 21.3906 47.125 36.375
Q47.125 51.4219 43.2812 58.9062
Q39.4531 66.4062 31.7812 66.4062
M31.7812 74.2188
Q44.0469 74.2188 50.5156 64.5156
Q56.9844 54.8281 56.9844 36.375
Q56.9844 17.9688 50.5156 8.26562
Q44.0469 -1.42188 31.7812 -1.42188
Q19.5312 -1.42188 13.0625 8.26562
Q6.59375 17.9688 6.59375 36.375
Q6.59375 54.8281 13.0625 64.5156
Q19.5312 74.2188 31.7812 74.2188" id="BitstreamVeraSans-Roman-30"/>
      </defs>
      <g transform="translate(68.9765625 401.70625)scale(0.12 -0.12)">
       <use xlink:href="#BitstreamVeraSans-Roman-30"/>
      </g>
     </g>
    </g>
    <g id="xtick_2">
     <g id="line2d_7">
      <path clip-path="url(#p7ff5b81e1d)" d="
M116.64 388.8
L116.64 43.2" style="fill:none;stroke:#000000;stroke-dasharray:1.000000,3.000000;stroke-dashoffset:0.0;stroke-linecap:butt;stroke-width:0.5;"/>
     </g>
     <g id="line2d_8">
      <g>
       <use style="stroke:#000000;stroke-linecap:butt;stroke-width:0.5;" x="116.64" xlink:href="#m0012dd4eef" y="388.8"/>
      </g>
     </g>
     <g id="line2d_9">
      <g>
       <use style="stroke:#000000;stroke-linecap:butt;stroke-width:0.5;" x="116.64" xlink:href="#m476344969c" y="43.2"/>
      </g>
     </g>
     <g id="text_2">
      <!-- 100 -->
      <defs>
       <path d="
M12.4062 8.29688
L28.5156 8.29688
L28.5156 63.9219
L10.9844 60.4062
L10.9844 69.3906
L28.4219 72.9062
L38.2812 72.9062
L38.2812 8.29688
L54.3906 8.29688
L54.3906 0
L12.4062 0
z
" id="BitstreamVeraSans-Roman-31"/>
      </defs>
      <g transform="translate(106.245 401.70625)scale(0.12 -0.12)">
       <use xlink:href="#BitstreamVeraSans-Roman-31"/>
       <use x="63.623046875" xlink:href="#BitstreamVeraSans-Roman-30"/>
       <use x="127.24609375" xlink:href="#BitstreamVeraSans-Roman-30"/>
      </g>
     </g>
    </g>
    <g id="xtick_3">
     <g id="line2d_10">
      <path clip-path="url(#p7ff5b81e1d)" d="
M161.28 388.8
L161.28 43.2" style="fill:none;stroke:#000000;stroke-dasharray:1.000000,3.000000;stroke-dashoffset:0.0;stroke-linecap:butt;stroke-width:0.5;"/>
     </g>
     <g id="line2d_11">
      <g>
       <use style="stroke:#000000;stroke-linecap:butt;stroke-width:0.5;" x="161.28" xlink:href="#m0012dd4eef" y="388.8"/>
      </g>
     </g>
     <g id="line2d_12">
      <g>
       <use style="stroke:#000000;stroke-linecap:butt;stroke-width:0.5;" x="161.28" xlink:href="#m476344969c" y="43.2"/>
      </g>
     </g>
     <g id="text_3">
      <!-- 200 -->
      <defs>
       <path d="
M19.1875 8.29688
L53.6094 8.29688
L53.6094 0
L7.32812 0
L7.32812 8.29688
Q12.9375 14.1094 22.625 23.8906
Q32.3281 33.6875 34.8125 36.5312
Q39.5469 41.8438 41.4219 45.5312
Q43.3125 49.2188 43.3125 52.7812
Q43.3125 58.5938 39.2344 62.25
Q35.1562 65.9219 28.6094 65.9219
Q23.9688 65.9219 18.8125 64.3125
Q13.6719 62.7031 7.8125 59.4219
L7.8125 69.3906
Q13.7656 71.7812 18.9375 73
Q24.125 74.2188 28.4219 74.2188
Q39.75 74.2188 46.4844 68.5469
Q53.2188 62.8906 53.2188 53.4219
Q53.2188 48.9219 51.5312 44.8906
Q49.8594 40.875 45.4062 35.4062
Q44.1875 33.9844 37.6406 27.2188
Q31.1094 20.4531 19.1875 8.29688" id="BitstreamVeraSans-Roman-32"/>
      </defs>
      <g transform="translate(150.665625 401.70625)scale(0.12 -0.12)">
       <use xlink:href="#BitstreamVeraSans-Roman-32"/>
       <use x="63.623046875" xlink:href="#BitstreamVeraSans-Roman-30"/>
       <use x="127.24609375" xlink:href="#BitstreamVeraSans-Roman-30"/>
      </g>
     </g>
    </g>
    <g id="xtick_4">
     <g id="line2d_13">
      <path clip-path="url(#p7ff5b81e1d)" d="
M205.92 388.8
L205.92 43.2" style="fill:none;stroke:#000000;stroke-dasharray:1.000000,3.000000;stroke-dashoffset:0.0;stroke-linecap:butt;stroke-width:0.5;"/>
     </g>
     <g id="line2d_14">
      <g>
       <use style="stroke:#000000;stroke-linecap:butt;stroke-width:0.5;" x="205.92" xlink:href="#m0012dd4eef" y="388.8"/>
      </g>
     </g>
     <g id="line2d_15">
      <g>
       <use style="stroke:#000000;stroke-linecap:butt;stroke-width:0.5;" x="205.92" xlink:href="#m476344969c" y="43.2"/>
      </g>
     </g>
     <g id="text_4">
      <!-- 300 -->
      <defs>
       <path d="
M40.5781 39.3125
Q47.6562 37.7969 51.625 33
Q55.6094 28.2188 55.6094 21.1875
Q55.6094 10.4062 48.1875 4.48438
Q40.7656 -1.42188 27.0938 -1.42188
Q22.5156 -1.42188 17.6562 -0.515625
Q12.7969 0.390625 7.625 2.20312
L7.625 11.7188
Q11.7188 9.32812 16.5938 8.10938
Q21.4844 6.89062 26.8125 6.89062
Q36.0781 6.89062 40.9375 10.5469
Q45.7969 14.2031 45.7969 21.1875
Q45.7969 27.6406 41.2812 31.2656
Q36.7656 34.9062 28.7188 34.9062
L20.2188 34.9062
L20.2188 43.0156
L29.1094 43.0156
Q36.375 43.0156 40.2344 45.9219
Q44.0938 48.8281 44.0938 54.2969
Q44.0938 59.9062 40.1094 62.9062
Q36.1406 65.9219 28.7188 65.9219
Q24.6562 65.9219 20.0156 65.0312
Q15.375 64.1562 9.8125 62.3125
L9.8125 71.0938
Q15.4375 72.6562 20.3438 73.4375
Q25.25 74.2188 29.5938 74.2188
Q40.8281 74.2188 47.3594 69.1094
Q53.9062 64.0156 53.9062 55.3281
Q53.9062 49.2656 50.4375 45.0938
Q46.9688 40.9219 40.5781 39.3125" id="BitstreamVeraSans-Roman-33"/>
      </defs>
      <g transform="translate(195.3234375 401.70625)scale(0.12 -0.12)">
       <use xlink:href="#BitstreamVeraSans-Roman-33"/>
       <use x="63.623046875" xlink:href="#BitstreamVeraSans-Roman-30"/>
       <use x="127.24609375" xlink:href="#BitstreamVeraSans-Roman-30"/>
      </g>
     </g>
    </g>
    <g id="xtick_5">
     <g id="line2d_16">
      <path clip-path="url(#p7ff5b81e1d)" d="
M250.56 388.8
L250.56 43.2" style="fill:none;stroke:#000000;stroke-dasharray:1.000000,3.000000;stroke-dashoffset:0.0;stroke-linecap:butt;stroke-width:0.5;"/>
     </g>
     <g id="line2d_17">
      <g>
       <use style="stroke:#000000;stroke-linecap:butt;stroke-width:0.5;" x="250.56" xlink:href="#m0012dd4eef" y="388.8"/>
      </g>
     </g>
     <g id="line2d_18">
      <g>
       <use style="stroke:#000000;stroke-linecap:butt;stroke-width:0.5;" x="250.56" xlink:href="#m476344969c" y="43.2"/>
      </g>
     </g>
     <g id="text_5">
      <!-- 400 -->
      <defs>
       <path d="
M37.7969 64.3125
L12.8906 25.3906
L37.7969 25.3906
z

M35.2031 72.9062
L47.6094 72.9062
L47.6094 25.3906
L58.0156 25.3906
L58.0156 17.1875
L47.6094 17.1875
L47.6094 0
L37.7969 0
L37.7969 17.1875
L4.89062 17.1875
L4.89062 26.7031
z
" id="BitstreamVeraSans-Roman-34"/>
      </defs>
      <g transform="translate(239.799375 401.70625)scale(0.12 -0.12)">
       <use xlink:href="#BitstreamVeraSans-Roman-34"/>
       <use x="63.623046875" xlink:href="#BitstreamVeraSans-Roman-30"/>
       <use x="127.24609375" xlink:href="#BitstreamVeraSans-Roman-30"/>
      </g>
     </g>
    </g>
    <g id="xtick_6">
     <g id="line2d_19">
      <path clip-path="url(#p7ff5b81e1d)" d="
M295.2 388.8
L295.2 43.2" style="fill:none;stroke:#000000;stroke-dasharray:1.000000,3.000000;stroke-dashoffset:0.0;stroke-linecap:butt;stroke-width:0.5;"/>
     </g>
     <g id="line2d_20">
      <g>
       <use style="stroke:#000000;stroke-linecap:butt;stroke-width:0.5;" x="295.2" xlink:href="#m0012dd4eef" y="388.8"/>
      </g>
     </g>
     <g id="line2d_21">
      <g>
       <use style="stroke:#000000;stroke-linecap:butt;stroke-width:0.5;" x="295.2" xlink:href="#m476344969c" y="43.2"/>
      </g>
     </g>
     <g id="text_6">
      <!-- 500 -->
      <defs>
       <path d="
M10.7969 72.9062
L49.5156 72.9062
L49.5156 64.5938
L19.8281 64.5938
L19.8281 46.7344
Q21.9688 47.4688 24.1094 47.8281
Q26.2656 48.1875 28.4219 48.1875
Q40.625 48.1875 47.75 41.5
Q54.8906 34.8125 54.8906 23.3906
Q54.8906 11.625 47.5625 5.09375
Q40.2344 -1.42188 26.9062 -1.42188
Q22.3125 -1.42188 17.5469 -0.640625
Q12.7969 0.140625 7.71875 1.70312
L7.71875 11.625
Q12.1094 9.23438 16.7969 8.0625
Q21.4844 6.89062 26.7031 6.89062
Q35.1562 6.89062 40.0781 11.3281
Q45.0156 15.7656 45.0156 23.3906
Q45.0156 31 40.0781 35.4375
Q35.1562 39.8906 26.7031 39.8906
Q22.75 39.8906 18.8125 39.0156
Q14.8906 38.1406 10.7969 36.2812
z
" id="BitstreamVeraSans-Roman-35"/>
      </defs>
      <g transform="translate(284.6090625 401.70625)scale(0.12 -0.12)">
       <use xlink:href="#BitstreamVeraSans-Roman-35"/>
       <use x="63.623046875" xlink:href="#BitstreamVeraSans-Roman-30"/>
       <use x="127.24609375" xlink:href="#BitstreamVeraSans-Roman-30"/>
      </g>
     </g>
    </g>
    <g id="xtick_7">
     <g id="line2d_22">
      <path clip-path="url(#p7ff5b81e1d)" d="
M339.84 388.8
L339.84 43.2" style="fill:none;stroke:#000000;stroke-dasharray:1.000000,3.000000;stroke-dashoffset:0.0;stroke-linecap:butt;stroke-width:0.5;"/>
     </g>
     <g id="line2d_23">
      <g>
       <use style="stroke:#000000;stroke-linecap:butt;stroke-width:0.5;" x="339.84" xlink:href="#m0012dd4eef" y="388.8"/>
      </g>
     </g>
     <g id="line2d_24">
      <g>
       <use style="stroke:#000000;stroke-linecap:butt;stroke-width:0.5;" x="339.84" xlink:href="#m476344969c" y="43.2"/>
      </g>
     </g>
     <g id="text_7">
      <!-- 600 -->
      <defs>
       <path d="
M33.0156 40.375
Q26.375 40.375 22.4844 35.8281
Q18.6094 31.2969 18.6094 23.3906
Q18.6094 15.5312 22.4844 10.9531
Q26.375 6.39062 33.0156 6.39062
Q39.6562 6.39062 43.5312 10.9531
Q47.4062 15.5312 47.4062 23.3906
Q47.4062 31.2969 43.5312 35.8281
Q39.6562 40.375 33.0156 40.375
M52.5938 71.2969
L52.5938 62.3125
Q48.875 64.0625 45.0938 64.9844
Q41.3125 65.9219 37.5938 65.9219
Q27.8281 65.9219 22.6719 59.3281
Q17.5312 52.7344 16.7969 39.4062
Q19.6719 43.6562 24.0156 45.9219
Q28.375 48.1875 33.5938 48.1875
Q44.5781 48.1875 50.9531 41.5156
Q57.3281 34.8594 57.3281 23.3906
Q57.3281 12.1562 50.6875 5.35938
Q44.0469 -1.42188 33.0156 -1.42188
Q20.3594 -1.42188 13.6719 8.26562
Q6.98438 17.9688 6.98438 36.375
Q6.98438 53.6562 15.1875 63.9375
Q23.3906 74.2188 37.2031 74.2188
Q40.9219 74.2188 44.7031 73.4844
Q48.4844 72.75 52.5938 71.2969" id="BitstreamVeraSans-Roman-36"/>
      </defs>
      <g transform="translate(329.205 401.70625)scale(0.12 -0.12)">
       <use xlink:href="#BitstreamVeraSans-Roman-36"/>
       <use x="63.623046875" xlink:href="#BitstreamVeraSans-Roman-30"/>
       <use x="127.24609375" xlink:href="#BitstreamVeraSans-Roman-30"/>
      </g>
     </g>
    </g>
    <g id="xtick_8">
     <g id="line2d_25">
      <path clip-path="url(#p7ff5b81e1d)" d="
M384.48 388.8
L384.48 43.2" style="fill:none;stroke:#000000;stroke-dasharray:1.000000,3.000000;stroke-dashoffset:0.0;stroke-linecap:butt;stroke-width:0.5;"/>
     </g>
     <g id="line2d_26">
      <g>
       <use style="stroke:#000000;stroke-linecap:butt;stroke-width:0.5;" x="384.48" xlink:href="#m0012dd4eef" y="388.8"/>
      </g>
     </g>
     <g id="line2d_27">
      <g>
       <use style="stroke:#000000;stroke-linecap:butt;stroke-width:0.5;" x="384.48" xlink:href="#m476344969c" y="43.2"/>
      </g>
     </g>
     <g id="text_8">
      <!-- 700 -->
      <defs>
       <path d="
M8.20312 72.9062
L55.0781 72.9062
L55.0781 68.7031
L28.6094 0
L18.3125 0
L43.2188 64.5938
L8.20312 64.5938
z
" id="BitstreamVeraSans-Roman-37"/>
      </defs>
      <g transform="translate(373.918125 401.70625)scale(0.12 -0.12)">
       <use xlink:href="#BitstreamVeraSans-Roman-37"/>
       <use x="63.623046875" xlink:href="#BitstreamVeraSans-Roman-30"/>
       <use x="127.24609375" xlink:href="#BitstreamVeraSans-Roman-30"/>
      </g>
     </g>
    </g>
    <g id="xtick_9">
     <g id="line2d_28">
      <path clip-path="url(#p7ff5b81e1d)" d="
M429.12 388.8
L429.12 43.2" style="fill:none;stroke:#000000;stroke-dasharray:1.000000,3.000000;stroke-dashoffset:0.0;stroke-linecap:butt;stroke-width:0.5;"/>
     </g>
     <g id="line2d_29">
      <g>
       <use style="stroke:#000000;stroke-linecap:butt;stroke-width:0.5;" x="429.12" xlink:href="#m0012dd4eef" y="388.8"/>
      </g>
     </g>
     <g id="line2d_30">
      <g>
       <use style="stroke:#000000;stroke-linecap:butt;stroke-width:0.5;" x="429.12" xlink:href="#m476344969c" y="43.2"/>
      </g>
     </g>
     <g id="text_9">
      <!-- 800 -->
      <defs>
       <path d="
M31.7812 34.625
Q24.75 34.625 20.7188 30.8594
Q16.7031 27.0938 16.7031 20.5156
Q16.7031 13.9219 20.7188 10.1562
Q24.75 6.39062 31.7812 6.39062
Q38.8125 6.39062 42.8594 10.1719
Q46.9219 13.9688 46.9219 20.5156
Q46.9219 27.0938 42.8906 30.8594
Q38.875 34.625 31.7812 34.625
M21.9219 38.8125
Q15.5781 40.375 12.0312 44.7188
Q8.5 49.0781 8.5 55.3281
Q8.5 64.0625 14.7188 69.1406
Q20.9531 74.2188 31.7812 74.2188
Q42.6719 74.2188 48.875 69.1406
Q55.0781 64.0625 55.0781 55.3281
Q55.0781 49.0781 51.5312 44.7188
Q48 40.375 41.7031 38.8125
Q48.8281 37.1562 52.7969 32.3125
Q56.7812 27.4844 56.7812 20.5156
Q56.7812 9.90625 50.3125 4.23438
Q43.8438 -1.42188 31.7812 -1.42188
Q19.7344 -1.42188 13.25 4.23438
Q6.78125 9.90625 6.78125 20.5156
Q6.78125 27.4844 10.7812 32.3125
Q14.7969 37.1562 21.9219 38.8125
M18.3125 54.3906
Q18.3125 48.7344 21.8438 45.5625
Q25.3906 42.3906 31.7812 42.3906
Q38.1406 42.3906 41.7188 45.5625
Q45.3125 48.7344 45.3125 54.3906
Q45.3125 60.0625 41.7188 63.2344
Q38.1406 66.4062 31.7812 66.4062
Q25.3906 66.4062 21.8438 63.2344
Q18.3125 60.0625 18.3125 54.3906" id="BitstreamVeraSans-Roman-38"/>
      </defs>
      <g transform="translate(418.4728125 401.70625)scale(0.12 -0.12)">
       <use xlink:href="#BitstreamVeraSans-Roman-38"/>
       <use x="63.623046875" xlink:href="#BitstreamVeraSans-Roman-30"/>
       <use x="127.24609375" xlink:href="#BitstreamVeraSans-Roman-30"/>
      </g>
     </g>
    </g>
    <g id="xtick_10">
     <g id="line2d_31">
      <path clip-path="url(#p7ff5b81e1d)" d="
M473.76 388.8
L473.76 43.2" style="fill:none;stroke:#000000;stroke-dasharray:1.000000,3.000000;stroke-dashoffset:0.0;stroke-linecap:butt;stroke-width:0.5;"/>
     </g>
     <g id="line2d_32">
      <g>
       <use style="stroke:#000000;stroke-linecap:butt;stroke-width:0.5;" x="473.76" xlink:href="#m0012dd4eef" y="388.8"/>
      </g>
     </g>
     <g id="line2d_33">
      <g>
       <use style="stroke:#000000;stroke-linecap:butt;stroke-width:0.5;" x="473.76" xlink:href="#m476344969c" y="43.2"/>
      </g>
     </g>
     <g id="text_10">
      <!-- 900 -->
      <defs>
       <path d="
M10.9844 1.51562
L10.9844 10.5
Q14.7031 8.73438 18.5 7.8125
Q22.3125 6.89062 25.9844 6.89062
Q35.75 6.89062 40.8906 13.4531
Q46.0469 20.0156 46.7812 33.4062
Q43.9531 29.2031 39.5938 26.9531
Q35.25 24.7031 29.9844 24.7031
Q19.0469 24.7031 12.6719 31.3125
Q6.29688 37.9375 6.29688 49.4219
Q6.29688 60.6406 12.9375 67.4219
Q19.5781 74.2188 30.6094 74.2188
Q43.2656 74.2188 49.9219 64.5156
Q56.5938 54.8281 56.5938 36.375
Q56.5938 19.1406 48.4062 8.85938
Q40.2344 -1.42188 26.4219 -1.42188
Q22.7031 -1.42188 18.8906 -0.6875
Q15.0938 0.046875 10.9844 1.51562
M30.6094 32.4219
Q37.25 32.4219 41.125 36.9531
Q45.0156 41.5 45.0156 49.4219
Q45.0156 57.2812 41.125 61.8438
Q37.25 66.4062 30.6094 66.4062
Q23.9688 66.4062 20.0938 61.8438
Q16.2188 57.2812 16.2188 49.4219
Q16.2188 41.5 20.0938 36.9531
Q23.9688 32.4219 30.6094 32.4219" id="BitstreamVeraSans-Roman-39"/>
      </defs>
      <g transform="translate(463.08375 401.70625)scale(0.12 -0.12)">
       <use xlink:href="#BitstreamVeraSans-Roman-39"/>
       <use x="63.623046875" xlink:href="#BitstreamVeraSans-Roman-30"/>
       <use x="127.24609375" xlink:href="#BitstreamVeraSans-Roman-30"/>
      </g>
     </g>
    </g>
   </g>
   <g id="matplotlib.axis_2">
    <g id="ytick_1">
     <g id="line2d_34">
      <path clip-path="url(#p7ff5b81e1d)" d="
M72 388.8
L518.4 388.8" style="fill:none;stroke:#000000;stroke-dasharray:1.000000,3.000000;stroke-dashoffset:0.0;stroke-linecap:butt;stroke-width:0.5;"/>
     </g>
     <g id="line2d_35">
      <defs>
       <path d="
M0 0
L4 0" id="me8a85f7bf6" style="stroke:#000000;stroke-linecap:butt;stroke-width:0.5;"/>
      </defs>
      <g>
       <use style="stroke:#000000;stroke-linecap:butt;stroke-width:0.5;" x="72.0" xlink:href="#me8a85f7bf6" y="388.8"/>
      </g>
     </g>
     <g id="line2d_36">
      <defs>
       <path d="
M0 0
L-4 0" id="m1a32005dea" style="stroke:#000000;stroke-linecap:butt;stroke-width:0.5;"/>
      </defs>
      <g>
       <use style="stroke:#000000;stroke-linecap:butt;stroke-width:0.5;" x="518.4" xlink:href="#m1a32005dea" y="388.8"/>
      </g>
     </g>
     <g id="text_11">
      <!-- 0.00 -->
      <defs>
       <path d="
M10.6875 12.4062
L21 12.4062
L21 0
L10.6875 0
z
" id="BitstreamVeraSans-Roman-2e"/>
      </defs>
      <g transform="translate(42.869375 393.1678125)scale(0.12 -0.12)">
       <use xlink:href="#BitstreamVeraSans-Roman-30"/>
       <use x="63.623046875" xlink:href="#BitstreamVeraSans-Roman-2e"/>
       <use x="95.41015625" xlink:href="#BitstreamVeraSans-Roman-30"/>
       <use x="159.033203125" xlink:href="#BitstreamVeraSans-Roman-30"/>
      </g>
     </g>
    </g>
    <g id="ytick_2">
     <g id="line2d_37">
      <path clip-path="url(#p7ff5b81e1d)" d="
M72 354.24
L518.4 354.24" style="fill:none;stroke:#000000;stroke-dasharray:1.000000,3.000000;stroke-dashoffset:0.0;stroke-linecap:butt;stroke-width:0.5;"/>
     </g>
     <g id="line2d_38">
      <g>
       <use style="stroke:#000000;stroke-linecap:butt;stroke-width:0.5;" x="72.0" xlink:href="#me8a85f7bf6" y="354.24"/>
      </g>
     </g>
     <g id="line2d_39">
      <g>
       <use style="stroke:#000000;stroke-linecap:butt;stroke-width:0.5;" x="518.4" xlink:href="#m1a32005dea" y="354.24"/>
      </g>
     </g>
     <g id="text_12">
      <!-- 0.08 -->
      <g transform="translate(42.89375 358.6078125)scale(0.12 -0.12)">
       <use xlink:href="#BitstreamVeraSans-Roman-30"/>
       <use x="63.623046875" xlink:href="#BitstreamVeraSans-Roman-2e"/>
       <use x="95.41015625" xlink:href="#BitstreamVeraSans-Roman-30"/>
       <use x="159.033203125" xlink:href="#BitstreamVeraSans-Roman-38"/>
      </g>
     </g>
    </g>
    <g id="ytick_3">
     <g id="line2d_40">
      <path clip-path="url(#p7ff5b81e1d)" d="
M72 319.68
L518.4 319.68" style="fill:none;stroke:#000000;stroke-dasharray:1.000000,3.000000;stroke-dashoffset:0.0;stroke-linecap:butt;stroke-width:0.5;"/>
     </g>
     <g id="line2d_41">
      <g>
       <use style="stroke:#000000;stroke-linecap:butt;stroke-width:0.5;" x="72.0" xlink:href="#me8a85f7bf6" y="319.68"/>
      </g>
     </g>
     <g id="line2d_42">
      <g>
       <use style="stroke:#000000;stroke-linecap:butt;stroke-width:0.5;" x="518.4" xlink:href="#m1a32005dea" y="319.68"/>
      </g>
     </g>
     <g id="text_13">
      <!-- 0.16 -->
      <g transform="translate(42.828125 324.0478125)scale(0.12 -0.12)">
       <use xlink:href="#BitstreamVeraSans-Roman-30"/>
       <use x="63.623046875" xlink:href="#BitstreamVeraSans-Roman-2e"/>
       <use x="95.41015625" xlink:href="#BitstreamVeraSans-Roman-31"/>
       <use x="159.033203125" xlink:href="#BitstreamVeraSans-Roman-36"/>
      </g>
     </g>
    </g>
    <g id="ytick_4">
     <g id="line2d_43">
      <path clip-path="url(#p7ff5b81e1d)" d="
M72 285.12
L518.4 285.12" style="fill:none;stroke:#000000;stroke-dasharray:1.000000,3.000000;stroke-dashoffset:0.0;stroke-linecap:butt;stroke-width:0.5;"/>
     </g>
     <g id="line2d_44">
      <g>
       <use style="stroke:#000000;stroke-linecap:butt;stroke-width:0.5;" x="72.0" xlink:href="#me8a85f7bf6" y="285.12"/>
      </g>
     </g>
     <g id="line2d_45">
      <g>
       <use style="stroke:#000000;stroke-linecap:butt;stroke-width:0.5;" x="518.4" xlink:href="#m1a32005dea" y="285.12"/>
      </g>
     </g>
     <g id="text_14">
      <!-- 0.24 -->
      <g transform="translate(42.745625 289.4878125)scale(0.12 -0.12)">
       <use xlink:href="#BitstreamVeraSans-Roman-30"/>
       <use x="63.623046875" xlink:href="#BitstreamVeraSans-Roman-2e"/>
       <use x="95.41015625" xlink:href="#BitstreamVeraSans-Roman-32"/>
       <use x="159.033203125" xlink:href="#BitstreamVeraSans-Roman-34"/>
      </g>
     </g>
    </g>
    <g id="ytick_5">
     <g id="line2d_46">
      <path clip-path="url(#p7ff5b81e1d)" d="
M72 250.56
L518.4 250.56" style="fill:none;stroke:#000000;stroke-dasharray:1.000000,3.000000;stroke-dashoffset:0.0;stroke-linecap:butt;stroke-width:0.5;"/>
     </g>
     <g id="line2d_47">
      <g>
       <use style="stroke:#000000;stroke-linecap:butt;stroke-width:0.5;" x="72.0" xlink:href="#me8a85f7bf6" y="250.56"/>
      </g>
     </g>
     <g id="line2d_48">
      <g>
       <use style="stroke:#000000;stroke-linecap:butt;stroke-width:0.5;" x="518.4" xlink:href="#m1a32005dea" y="250.56"/>
      </g>
     </g>
     <g id="text_15">
      <!-- 0.32 -->
      <g transform="translate(43.274375 254.9278125)scale(0.12 -0.12)">
       <use xlink:href="#BitstreamVeraSans-Roman-30"/>
       <use x="63.623046875" xlink:href="#BitstreamVeraSans-Roman-2e"/>
       <use x="95.41015625" xlink:href="#BitstreamVeraSans-Roman-33"/>
       <use x="159.033203125" xlink:href="#BitstreamVeraSans-Roman-32"/>
      </g>
     </g>
    </g>
    <g id="ytick_6">
     <g id="line2d_49">
      <path clip-path="url(#p7ff5b81e1d)" d="
M72 216
L518.4 216" style="fill:none;stroke:#000000;stroke-dasharray:1.000000,3.000000;stroke-dashoffset:0.0;stroke-linecap:butt;stroke-width:0.5;"/>
     </g>
     <g id="line2d_50">
      <g>
       <use style="stroke:#000000;stroke-linecap:butt;stroke-width:0.5;" x="72.0" xlink:href="#me8a85f7bf6" y="216.0"/>
      </g>
     </g>
     <g id="line2d_51">
      <g>
       <use style="stroke:#000000;stroke-linecap:butt;stroke-width:0.5;" x="518.4" xlink:href="#m1a32005dea" y="216.0"/>
      </g>
     </g>
     <g id="text_16">
      <!-- 0.40 -->
      <g transform="translate(42.869375 220.3678125)scale(0.12 -0.12)">
       <use xlink:href="#BitstreamVeraSans-Roman-30"/>
       <use x="63.623046875" xlink:href="#BitstreamVeraSans-Roman-2e"/>
       <use x="95.41015625" xlink:href="#BitstreamVeraSans-Roman-34"/>
       <use x="159.033203125" xlink:href="#BitstreamVeraSans-Roman-30"/>
      </g>
     </g>
    </g>
    <g id="ytick_7">
     <g id="line2d_52">
      <path clip-path="url(#p7ff5b81e1d)" d="
M72 181.44
L518.4 181.44" style="fill:none;stroke:#000000;stroke-dasharray:1.000000,3.000000;stroke-dashoffset:0.0;stroke-linecap:butt;stroke-width:0.5;"/>
     </g>
     <g id="line2d_53">
      <g>
       <use style="stroke:#000000;stroke-linecap:butt;stroke-width:0.5;" x="72.0" xlink:href="#me8a85f7bf6" y="181.44"/>
      </g>
     </g>
     <g id="line2d_54">
      <g>
       <use style="stroke:#000000;stroke-linecap:butt;stroke-width:0.5;" x="518.4" xlink:href="#m1a32005dea" y="181.44"/>
      </g>
     </g>
     <g id="text_17">
      <!-- 0.48 -->
      <g transform="translate(42.89375 185.8078125)scale(0.12 -0.12)">
       <use xlink:href="#BitstreamVeraSans-Roman-30"/>
       <use x="63.623046875" xlink:href="#BitstreamVeraSans-Roman-2e"/>
       <use x="95.41015625" xlink:href="#BitstreamVeraSans-Roman-34"/>
       <use x="159.033203125" xlink:href="#BitstreamVeraSans-Roman-38"/>
      </g>
     </g>
    </g>
    <g id="ytick_8">
     <g id="line2d_55">
      <path clip-path="url(#p7ff5b81e1d)" d="
M72 146.88
L518.4 146.88" style="fill:none;stroke:#000000;stroke-dasharray:1.000000,3.000000;stroke-dashoffset:0.0;stroke-linecap:butt;stroke-width:0.5;"/>
     </g>
     <g id="line2d_56">
      <g>
       <use style="stroke:#000000;stroke-linecap:butt;stroke-width:0.5;" x="72.0" xlink:href="#me8a85f7bf6" y="146.88"/>
      </g>
     </g>
     <g id="line2d_57">
      <g>
       <use style="stroke:#000000;stroke-linecap:butt;stroke-width:0.5;" x="518.4" xlink:href="#m1a32005dea" y="146.88"/>
      </g>
     </g>
     <g id="text_18">
      <!-- 0.56 -->
      <g transform="translate(42.828125 151.2478125)scale(0.12 -0.12)">
       <use xlink:href="#BitstreamVeraSans-Roman-30"/>
       <use x="63.623046875" xlink:href="#BitstreamVeraSans-Roman-2e"/>
       <use x="95.41015625" xlink:href="#BitstreamVeraSans-Roman-35"/>
       <use x="159.033203125" xlink:href="#BitstreamVeraSans-Roman-36"/>
      </g>
     </g>
    </g>
    <g id="ytick_9">
     <g id="line2d_58">
      <path clip-path="url(#p7ff5b81e1d)" d="
M72 112.32
L518.4 112.32" style="fill:none;stroke:#000000;stroke-dasharray:1.000000,3.000000;stroke-dashoffset:0.0;stroke-linecap:butt;stroke-width:0.5;"/>
     </g>
     <g id="line2d_59">
      <g>
       <use style="stroke:#000000;stroke-linecap:butt;stroke-width:0.5;" x="72.0" xlink:href="#me8a85f7bf6" y="112.32"/>
      </g>
     </g>
     <g id="line2d_60">
      <g>
       <use style="stroke:#000000;stroke-linecap:butt;stroke-width:0.5;" x="518.4" xlink:href="#m1a32005dea" y="112.32"/>
      </g>
     </g>
     <g id="text_19">
      <!-- 0.64 -->
      <g transform="translate(42.745625 116.6878125)scale(0.12 -0.12)">
       <use xlink:href="#BitstreamVeraSans-Roman-30"/>
       <use x="63.623046875" xlink:href="#BitstreamVeraSans-Roman-2e"/>
       <use x="95.41015625" xlink:href="#BitstreamVeraSans-Roman-36"/>
       <use x="159.033203125" xlink:href="#BitstreamVeraSans-Roman-34"/>
      </g>
     </g>
    </g>
    <g id="ytick_10">
     <g id="line2d_61">
      <path clip-path="url(#p7ff5b81e1d)" d="
M72 77.76
L518.4 77.76" style="fill:none;stroke:#000000;stroke-dasharray:1.000000,3.000000;stroke-dashoffset:0.0;stroke-linecap:butt;stroke-width:0.5;"/>
     </g>
     <g id="line2d_62">
      <g>
       <use style="stroke:#000000;stroke-linecap:butt;stroke-width:0.5;" x="72.0" xlink:href="#me8a85f7bf6" y="77.76"/>
      </g>
     </g>
     <g id="line2d_63">
      <g>
       <use style="stroke:#000000;stroke-linecap:butt;stroke-width:0.5;" x="518.4" xlink:href="#m1a32005dea" y="77.76"/>
      </g>
     </g>
     <g id="text_20">
      <!-- 0.72 -->
      <g transform="translate(43.274375 82.1278125)scale(0.12 -0.12)">
       <use xlink:href="#BitstreamVeraSans-Roman-30"/>
       <use x="63.623046875" xlink:href="#BitstreamVeraSans-Roman-2e"/>
       <use x="95.41015625" xlink:href="#BitstreamVeraSans-Roman-37"/>
       <use x="159.033203125" xlink:href="#BitstreamVeraSans-Roman-32"/>
      </g>
     </g>
    </g>
    <g id="text_21">
     <!-- Sec/file -->
     <defs>
      <path d="
M9.42188 75.9844
L18.4062 75.9844
L18.4062 0
L9.42188 0
z
" id="BitstreamVeraSans-Roman-6c"/>
      <path d="
M53.5156 70.5156
L53.5156 60.8906
Q47.9062 63.5781 42.9219 64.8906
Q37.9375 66.2188 33.2969 66.2188
Q25.25 66.2188 20.875 63.0938
Q16.5 59.9688 16.5 54.2031
Q16.5 49.3594 19.4062 46.8906
Q22.3125 44.4375 30.4219 42.9219
L36.375 41.7031
Q47.4062 39.5938 52.6562 34.2969
Q57.9062 29 57.9062 20.125
Q57.9062 9.51562 50.7969 4.04688
Q43.7031 -1.42188 29.9844 -1.42188
Q24.8125 -1.42188 18.9688 -0.25
Q13.1406 0.921875 6.89062 3.21875
L6.89062 13.375
Q12.8906 10.0156 18.6562 8.29688
Q24.4219 6.59375 29.9844 6.59375
Q38.4219 6.59375 43.0156 9.90625
Q47.6094 13.2344 47.6094 19.3906
Q47.6094 24.75 44.3125 27.7812
Q41.0156 30.8125 33.5 32.3281
L27.4844 33.5
Q16.4531 35.6875 11.5156 40.375
Q6.59375 45.0625 6.59375 53.4219
Q6.59375 63.0938 13.4062 68.6562
Q20.2188 74.2188 32.1719 74.2188
Q37.3125 74.2188 42.625 73.2812
Q47.9531 72.3594 53.5156 70.5156" id="BitstreamVeraSans-Roman-53"/>
      <path d="
M9.42188 54.6875
L18.4062 54.6875
L18.4062 0
L9.42188 0
z

M9.42188 75.9844
L18.4062 75.9844
L18.4062 64.5938
L9.42188 64.5938
z
" id="BitstreamVeraSans-Roman-69"/>
      <path d="
M25.3906 72.9062
L33.6875 72.9062
L8.29688 -9.28125
L0 -9.28125
z
" id="BitstreamVeraSans-Roman-2f"/>
      <path d="
M56.2031 29.5938
L56.2031 25.2031
L14.8906 25.2031
Q15.4844 15.9219 20.4844 11.0625
Q25.4844 6.20312 34.4219 6.20312
Q39.5938 6.20312 44.4531 7.46875
Q49.3125 8.73438 54.1094 11.2812
L54.1094 2.78125
Q49.2656 0.734375 44.1875 -0.34375
Q39.1094 -1.42188 33.8906 -1.42188
Q20.7969 -1.42188 13.1562 6.1875
Q5.51562 13.8125 5.51562 26.8125
Q5.51562 40.2344 12.7656 48.1094
Q20.0156 56 32.3281 56
Q43.3594 56 49.7812 48.8906
Q56.2031 41.7969 56.2031 29.5938
M47.2188 32.2344
Q47.125 39.5938 43.0938 43.9844
Q39.0625 48.3906 32.4219 48.3906
Q24.9062 48.3906 20.3906 44.1406
Q15.875 39.8906 15.1875 32.1719
z
" id="BitstreamVeraSans-Roman-65"/>
      <path d="
M37.1094 75.9844
L37.1094 68.5
L28.5156 68.5
Q23.6875 68.5 21.7969 66.5469
Q19.9219 64.5938 19.9219 59.5156
L19.9219 54.6875
L34.7188 54.6875
L34.7188 47.7031
L19.9219 47.7031
L19.9219 0
L10.8906 0
L10.8906 47.7031
L2.29688 47.7031
L2.29688 54.6875
L10.8906 54.6875
L10.8906 58.5
Q10.8906 67.625 15.1406 71.7969
Q19.3906 75.9844 28.6094 75.9844
z
" id="BitstreamVeraSans-Roman-66"/>
      <path d="
M48.7812 52.5938
L48.7812 44.1875
Q44.9688 46.2969 41.1406 47.3438
Q37.3125 48.3906 33.4062 48.3906
Q24.6562 48.3906 19.8125 42.8438
Q14.9844 37.3125 14.9844 27.2969
Q14.9844 17.2812 19.8125 11.7344
Q24.6562 6.20312 33.4062 6.20312
Q37.3125 6.20312 41.1406 7.25
Q44.9688 8.29688 48.7812 10.4062
L48.7812 2.09375
Q45.0156 0.34375 40.9844 -0.53125
Q36.9688 -1.42188 32.4219 -1.42188
Q20.0625 -1.42188 12.7812 6.34375
Q5.51562 14.1094 5.51562 27.2969
Q5.51562 40.6719 12.8594 48.3281
Q20.2188 56 33.0156 56
Q37.1562 56 41.1094 55.1406
Q45.0625 54.2969 48.7812 52.5938" id="BitstreamVeraSans-Roman-63"/>
     </defs>
     <g transform="translate(37.745625 236.13)rotate(-90.0)scale(0.12 -0.12)">
      <use xlink:href="#BitstreamVeraSans-Roman-53"/>
      <use x="63.4765625" xlink:href="#BitstreamVeraSans-Roman-65"/>
      <use x="125.0" xlink:href="#BitstreamVeraSans-Roman-63"/>
      <use x="179.98046875" xlink:href="#BitstreamVeraSans-Roman-2f"/>
      <use x="213.671875" xlink:href="#BitstreamVeraSans-Roman-66"/>
      <use x="248.876953125" xlink:href="#BitstreamVeraSans-Roman-69"/>
      <use x="276.66015625" xlink:href="#BitstreamVeraSans-Roman-6c"/>
      <use x="304.443359375" xlink:href="#BitstreamVeraSans-Roman-65"/>
     </g>
    </g>
   </g>
   <g id="patch_3">
    <path d="
M72 43.2
L518.4 43.2" style="fill:none;stroke:#000000;"/>
   </g>
   <g id="patch_4">
    <path d="
M518.4 388.8
L518.4 43.2" style="fill:none;stroke:#000000;"/>
   </g>
   <g id="patch_5">
    <path d="
M72 388.8
L518.4 388.8" style="fill:none;stroke:#000000;"/>
   </g>
   <g id="patch_6">
    <path d="
M72 388.8
L72 43.2" style="fill:none;stroke:#000000;"/>
   </g>
   <g id="text_22">
    <!-- Rand -->
    <defs>
     <path d="
M54.8906 33.0156
L54.8906 0
L45.9062 0
L45.9062 32.7188
Q45.9062 40.4844 42.875 44.3281
Q39.8438 48.1875 33.7969 48.1875
Q26.5156 48.1875 22.3125 43.5469
Q18.1094 38.9219 18.1094 30.9062
L18.1094 0
L9.07812 0
L9.07812 54.6875
L18.1094 54.6875
L18.1094 46.1875
Q21.3438 51.125 25.7031 53.5625
Q30.0781 56 35.7969 56
Q45.2188 56 50.0469 50.1719
Q54.8906 44.3438 54.8906 33.0156" id="BitstreamVeraSans-Roman-6e"/>
     <path d="
M45.4062 46.3906
L45.4062 75.9844
L54.3906 75.9844
L54.3906 0
L45.4062 0
L45.4062 8.20312
Q42.5781 3.32812 38.25 0.953125
Q33.9375 -1.42188 27.875 -1.42188
Q17.9688 -1.42188 11.7344 6.48438
Q5.51562 14.4062 5.51562 27.2969
Q5.51562 40.1875 11.7344 48.0938
Q17.9688 56 27.875 56
Q33.9375 56 38.25 53.625
Q42.5781 51.2656 45.4062 46.3906
M14.7969 27.2969
Q14.7969 17.3906 18.875 11.75
Q22.9531 6.10938 30.0781 6.10938
Q37.2031 6.10938 41.2969 11.75
Q45.4062 17.3906 45.4062 27.2969
Q45.4062 37.2031 41.2969 42.8438
Q37.2031 48.4844 30.0781 48.4844
Q22.9531 48.4844 18.875 42.8438
Q14.7969 37.2031 14.7969 27.2969" id="BitstreamVeraSans-Roman-64"/>
     <path d="
M44.3906 34.1875
Q47.5625 33.1094 50.5625 29.5938
Q53.5625 26.0781 56.5938 19.9219
L66.6094 0
L56 0
L46.6875 18.7031
Q43.0625 26.0312 39.6719 28.4219
Q36.2812 30.8125 30.4219 30.8125
L19.6719 30.8125
L19.6719 0
L9.8125 0
L9.8125 72.9062
L32.0781 72.9062
Q44.5781 72.9062 50.7344 67.6719
Q56.8906 62.4531 56.8906 51.9062
Q56.8906 45.0156 53.6875 40.4688
Q50.4844 35.9375 44.3906 34.1875
M19.6719 64.7969
L19.6719 38.9219
L32.0781 38.9219
Q39.2031 38.9219 42.8438 42.2188
Q46.4844 45.5156 46.4844 51.9062
Q46.4844 58.2969 42.8438 61.5469
Q39.2031 64.7969 32.0781 64.7969
z
" id="BitstreamVeraSans-Roman-52"/>
     <path d="
M34.2812 27.4844
Q23.3906 27.4844 19.1875 25
Q14.9844 22.5156 14.9844 16.5
Q14.9844 11.7188 18.1406 8.90625
Q21.2969 6.10938 26.7031 6.10938
Q34.1875 6.10938 38.7031 11.4062
Q43.2188 16.7031 43.2188 25.4844
L43.2188 27.4844
z

M52.2031 31.2031
L52.2031 0
L43.2188 0
L43.2188 8.29688
Q40.1406 3.32812 35.5469 0.953125
Q30.9531 -1.42188 24.3125 -1.42188
Q15.9219 -1.42188 10.9531 3.29688
Q6 8.01562 6 15.9219
Q6 25.1406 12.1719 29.8281
Q18.3594 34.5156 30.6094 34.5156
L43.2188 34.5156
L43.2188 35.4062
Q43.2188 41.6094 39.1406 45
Q35.0625 48.3906 27.6875 48.3906
Q23 48.3906 18.5469 47.2656
Q14.1094 46.1406 10.0156 43.8906
L10.0156 52.2031
Q14.9375 54.1094 19.5781 55.0469
Q24.2188 56 28.6094 56
Q40.4844 56 46.3438 49.8438
Q52.2031 43.7031 52.2031 31.2031" id="BitstreamVeraSans-Roman-61"/>
    </defs>
    <g transform="translate(278.17425 38.2)scale(0.144 -0.144)">
     <use xlink:href="#BitstreamVeraSans-Roman-52"/>
     <use x="67.232421875" xlink:href="#BitstreamVeraSans-Roman-61"/>
     <use x="128.51171875" xlink:href="#BitstreamVeraSans-Roman-6e"/>
     <use x="191.890625" xlink:href="#BitstreamVeraSans-Roman-64"/>
    </g>
   </g>
   <g id="legend_1">
    <g id="patch_7">
     <path d="
M429.055 115.339
L511.2 115.339
L511.2 50.4
L429.055 50.4
L429.055 115.339
z
" style="fill:#ffffff;stroke:#000000;"/>
    </g>
    <g id="line2d_64">
     <path d="
M439.135 62.0617
L459.295 62.0617" style="fill:none;stroke:#ff0000;"/>
    </g>
    <g id="line2d_65"/>
    <g id="text_23">
     <!-- LRU -->
     <defs>
      <path d="
M9.8125 72.9062
L19.6719 72.9062
L19.6719 8.29688
L55.1719 8.29688
L55.1719 0
L9.8125 0
z
" id="BitstreamVeraSans-Roman-4c"/>
      <path d="
M8.6875 72.9062
L18.6094 72.9062
L18.6094 28.6094
Q18.6094 16.8906 22.8438 11.7344
Q27.0938 6.59375 36.625 6.59375
Q46.0938 6.59375 50.3438 11.7344
Q54.5938 16.8906 54.5938 28.6094
L54.5938 72.9062
L64.5 72.9062
L64.5 27.3906
Q64.5 13.1406 57.4375 5.85938
Q50.3906 -1.42188 36.625 -1.42188
Q22.7969 -1.42188 15.7344 5.85938
Q8.6875 13.1406 8.6875 27.3906
z
" id="BitstreamVeraSans-Roman-55"/>
     </defs>
     <g transform="translate(475.13475 67.10175)scale(0.144 -0.144)">
      <use xlink:href="#BitstreamVeraSans-Roman-4c"/>
      <use x="55.712890625" xlink:href="#BitstreamVeraSans-Roman-52"/>
      <use x="125.1953125" xlink:href="#BitstreamVeraSans-Roman-55"/>
     </g>
    </g>
    <g id="line2d_66">
     <path d="
M439.135 83.1983
L459.295 83.1983" style="fill:none;opacity:0.7;stroke:#008000;"/>
    </g>
    <g id="line2d_67"/>
    <g id="text_24">
     <!-- MRU -->
     <defs>
      <path d="
M9.8125 72.9062
L24.5156 72.9062
L43.1094 23.2969
L61.8125 72.9062
L76.5156 72.9062
L76.5156 0
L66.8906 0
L66.8906 64.0156
L48.0938 14.0156
L38.1875 14.0156
L19.3906 64.0156
L19.3906 0
L9.8125 0
z
" id="BitstreamVeraSans-Roman-4d"/>
     </defs>
     <g transform="translate(475.13475 88.23825)scale(0.144 -0.144)">
      <use xlink:href="#BitstreamVeraSans-Roman-4d"/>
      <use x="86.279296875" xlink:href="#BitstreamVeraSans-Roman-52"/>
      <use x="155.76171875" xlink:href="#BitstreamVeraSans-Roman-55"/>
     </g>
    </g>
    <g id="line2d_68">
     <path d="
M439.135 104.335
L459.295 104.335" style="fill:none;opacity:0.5;stroke:#0000ff;"/>
    </g>
    <g id="line2d_69"/>
    <g id="text_25">
     <!-- FIFO -->
     <defs>
      <path d="
M9.8125 72.9062
L51.7031 72.9062
L51.7031 64.5938
L19.6719 64.5938
L19.6719 43.1094
L48.5781 43.1094
L48.5781 34.8125
L19.6719 34.8125
L19.6719 0
L9.8125 0
z
" id="BitstreamVeraSans-Roman-46"/>
      <path d="
M9.8125 72.9062
L19.6719 72.9062
L19.6719 0
L9.8125 0
z
" id="BitstreamVeraSans-Roman-49"/>
      <path d="
M39.4062 66.2188
Q28.6562 66.2188 22.3281 58.2031
Q16.0156 50.2031 16.0156 36.375
Q16.0156 22.6094 22.3281 14.5938
Q28.6562 6.59375 39.4062 6.59375
Q50.1406 6.59375 56.4219 14.5938
Q62.7031 22.6094 62.7031 36.375
Q62.7031 50.2031 56.4219 58.2031
Q50.1406 66.2188 39.4062 66.2188
M39.4062 74.2188
Q54.7344 74.2188 63.9062 63.9375
Q73.0938 53.6562 73.0938 36.375
Q73.0938 19.1406 63.9062 8.85938
Q54.7344 -1.42188 39.4062 -1.42188
Q24.0312 -1.42188 14.8125 8.82812
Q5.60938 19.0938 5.60938 36.375
Q5.60938 53.6562 14.8125 63.9375
Q24.0312 74.2188 39.4062 74.2188" id="BitstreamVeraSans-Roman-4f"/>
     </defs>
     <g transform="translate(475.13475 109.37475)scale(0.144 -0.144)">
      <use xlink:href="#BitstreamVeraSans-Roman-46"/>
      <use x="57.51953125" xlink:href="#BitstreamVeraSans-Roman-49"/>
      <use x="87.01171875" xlink:href="#BitstreamVeraSans-Roman-46"/>
      <use x="144.53125" xlink:href="#BitstreamVeraSans-Roman-4f"/>
     </g>
    </g>
   </g>
  </g>
 </g>
 <defs>
  <clipPath id="p7ff5b81e1d">
   <rect height="345.6" width="446.4" x="72.0" y="43.2"/>
  </clipPath>
 </defs>
</svg>
