<?xml version="1.0" encoding="utf-8" standalone="no"?>
<!DOCTYPE svg PUBLIC "-//W3C//DTD SVG 1.1//EN"
  "http://www.w3.org/Graphics/SVG/1.1/DTD/svg11.dtd">
<!-- Created with matplotlib (http://matplotlib.sourceforge.net/) -->
<svg height="432pt" version="1.1" viewBox="0 0 576 432" width="576pt" xmlns="http://www.w3.org/2000/svg" xmlns:xlink="http://www.w3.org/1999/xlink">
 <defs>
  <style type="text/css">
*{stroke-linecap:square;stroke-linejoin:round;}
  </style>
 </defs>
 <g id="figure_1">
  <g id="patch_1">
   <path d="
M0 432
L576 432
L576 0
L0 0
z
" style="fill:#ffffff;"/>
  </g>
  <g id="axes_1">
   <g id="patch_2">
    <path d="
M72 388.8
L518.4 388.8
L518.4 43.2
L72 43.2
z
" style="fill:#ffffff;"/>
   </g>
   <g id="line2d_1">
    <path clip-path="url(#p7ff5b81e1d)" d="
M72 247.32
L72.4464 146.936
L72.8928 160.154
L73.3392 168.095
L73.7856 165.765
L74.232 177.672
L74.6784 142.758
L75.1248 87.8731
L75.5712 246.079
L76.0176 168.345
L76.464 173.367
L76.9104 156.624
L77.3568 181.075
L77.8032 259.163
L78.2496 176.85
L78.696 156.118
L79.1424 247.966
L79.5888 162.126
L80.0352 159.375
L80.4816 163.606
L80.928 160.071
L81.3744 250.821
L81.8208 161.694
L82.2672 179.476
L82.7136 164.036
L83.16 249.064
L83.6064 249.536
L84.0528 172.868
L84.4992 262.658
L84.9456 178.903
L85.392 252.647
L85.8384 259.04
L86.2848 262.168
L86.7312 181.484
L87.1776 171.407
L87.624 157.209
L88.0704 154.276
L88.5168 163.653
L88.9632 260.22
L89.4096 256.001
L89.856 254.503
L90.3024 255.265
L90.7488 254.81
L91.1952 262.999
L91.6416 257.503
L92.088 172.16
L92.5344 154.662
L92.9808 149.867
L93.4272 172.775
L93.8736 255.691
L94.32 168.97
L94.7664 265.089
L95.2128 184.438
L95.6592 249.753
L96.1056 160.963
L96.552 256.729
L96.9984 261.775
L97.4448 248.785
L97.8912 160.696
L98.3376 253.818
L98.784 261.159
L99.2304 263.889
L99.6768 256.308
L100.123 176.218
L100.57 249.598
L101.016 254.27
L101.462 260.186
L101.909 257.136
L102.355 260.374
L102.802 256.249
L103.248 164.329
L103.694 258.835
L104.141 254.835
L104.587 260.17
L105.034 262.102
L105.48 168.528
L105.926 260.223
L106.373 263.129
L106.819 261.737
L107.266 253.197
L108.158 264.7
L108.605 266.356
L109.051 159.283
L109.498 254.619
L109.944 252.385
L110.39 168.73
L110.837 254.843
L111.283 256.224
L111.73 254.877
L112.176 255.996
L112.622 261.939
L113.069 264.395
L113.515 156.366
L113.962 258.224
L114.408 146.825
L114.854 265.698
L115.747 253.462
L116.194 253.398
L117.086 269.396
L117.533 259.941
L117.979 261.372
L118.426 261.406
L119.318 249.338
L119.765 260.601
L120.211 255.082
L120.658 261.441
L121.104 263.136
L121.55 162.5
L121.997 257.201
L122.443 261.104
L122.89 263.641
L123.782 253.872
L124.229 262.006
L124.675 257.307
L125.122 262.856
L125.568 255.106
L126.014 258.472
L126.461 266.438
L126.907 236.651
L127.354 266.502
L127.8 252.113
L128.246 260.481
L128.693 257.324
L129.139 157.418
L129.586 251.966
L130.032 262.9
L130.478 256.415
L130.925 245.446
L131.818 259.598
L132.264 267.836
L132.71 263.163
L133.157 264.153
L133.603 163.26
L134.05 265.242
L134.496 261.426
L134.942 175.438
L135.389 256.49
L135.835 256.644
L136.282 242.112
L136.728 261.888
L137.174 262.02
L137.621 266.602
L138.067 263.337
L138.514 268.278
L138.96 263.627
L139.406 256.706
L139.853 261.17
L140.746 257.773
L141.192 258.256
L141.638 264
L142.085 251.249
L142.531 266.586
L142.978 262.997
L143.87 263.163
L144.317 252.706
L144.763 261.477
L145.21 260.963
L145.656 261.784
L146.102 256.406
L146.549 257.012
L146.995 265.951
L147.888 263.844
L148.334 258.293
L148.781 254.799
L149.227 256.569
L149.674 259.193
L150.566 251.519
L151.013 263.009
L151.459 264.711
L151.906 261.091
L152.352 265.102
L152.798 263
L153.245 259.013
L153.691 261.336
L154.138 260.037
L154.584 153.945
L155.03 258.403
L155.477 265.484
L155.923 262.533
L156.37 257.689
L156.816 264.319
L157.262 258.745
L157.709 255.587
L158.602 262.812
L159.048 268.469
L159.494 256.936
L159.941 263.563
L160.387 261.042
L160.834 261.582
L161.28 262.71
L161.726 259.112
L162.173 257.158
L162.619 258.033
L163.066 263.423
L163.512 260.496
L163.958 267.195
L164.405 264.565
L164.851 263.69
L165.298 261.514
L165.744 252.571
L166.19 258.636
L166.637 155.742
L167.083 257.175
L167.53 256.488
L167.976 257.301
L168.422 267.589
L168.869 264.025
L169.315 264.783
L169.762 257.955
L170.208 261.147
L170.654 262.317
L171.101 259.462
L171.547 254.088
L171.994 254.897
L172.44 257.7
L172.886 263.912
L173.333 264.236
L173.779 267.396
L174.226 262.906
L174.672 257.194
L175.118 261.583
L175.565 261.793
L176.011 253.77
L176.458 253.068
L176.904 263.383
L177.35 267.744
L177.797 257.464
L178.243 263.34
L178.69 259.519
L179.136 262.113
L179.582 262.214
L180.029 257.761
L180.922 259.44
L181.368 263.931
L181.814 258.351
L182.261 266.859
L182.707 263.738
L183.154 264.226
L183.6 223.875
L184.046 252.704
L184.493 257.983
L184.939 266.094
L185.386 261.855
L185.832 255.15
L186.278 257.581
L186.725 264.189
L187.171 267.274
L187.618 262.296
L188.064 259.532
L188.51 262.258
L188.957 260.668
L189.403 262.994
L189.85 259.442
L190.296 254.241
L190.742 247.723
L191.189 258.627
L191.635 263.277
L192.082 266.344
L192.528 265.087
L192.974 264.466
L193.421 256.094
L193.867 258.079
L194.314 261.136
L194.76 259.468
L195.206 256.599
L195.653 257.488
L196.099 264.814
L196.546 257.805
L196.992 264.793
L197.438 266.678
L198.331 260.636
L198.778 260.859
L199.224 260.254
L199.67 262.686
L200.117 261.308
L200.563 254.931
L201.01 257.09
L201.902 269.091
L202.349 256.122
L202.795 258.199
L203.242 249.075
L203.688 257.921
L204.134 261.243
L204.581 261.385
L205.027 252.844
L205.474 265.844
L205.92 259.429
L206.366 265.359
L206.813 250.233
L207.259 263.481
L207.706 257.098
L208.152 263.565
L209.045 252.746
L209.491 256.208
L209.938 261.516
L210.384 269.28
L210.83 264.473
L211.277 264.905
L211.723 263.068
L212.17 251.247
L212.616 226.293
L213.062 261.337
L213.509 259.806
L213.955 251.573
L214.402 256.683
L214.848 259.391
L215.294 254.677
L215.741 266.08
L216.187 267.017
L216.634 264.201
L217.08 257.406
L217.526 247.801
L217.973 259.321
L218.419 264.739
L219.312 256.038
L219.758 256.295
L220.205 262.401
L220.651 263.839
L221.098 256.868
L221.544 257.942
L221.99 253.591
L222.437 259.799
L222.883 262.601
L223.33 260.822
L223.776 254.298
L224.222 256.902
L224.669 265.55
L225.115 265
L225.562 264.17
L226.008 264.533
L226.454 256.799
L226.901 261.301
L227.347 256.457
L227.794 255.313
L228.24 250.944
L228.686 261.24
L229.133 261.402
L229.579 266.456
L230.026 264.722
L230.472 259.577
L230.918 259.526
L231.365 263.693
L231.811 258.947
L232.258 256.657
L232.704 259.833
L233.15 262.087
L233.597 256.815
L234.043 255.64
L234.49 343.271
L234.936 249.056
L235.382 259.753
L235.829 252.873
L236.275 260.133
L236.722 260.614
L237.168 261.341
L237.614 263.021
L238.061 260.004
L238.507 262.485
L238.954 267.077
L239.4 260.898
L239.846 262.493
L240.293 261.705
L240.739 260.224
L241.186 237.254
L241.632 258.644
L242.078 260.004
L242.525 255.755
L242.971 254.065
L243.418 269.079
L243.864 264.023
L244.31 264.853
L244.757 262.33
L245.203 263.691
L245.65 257.698
L246.096 261.42
L246.542 263.343
L247.435 255.657
L247.882 262.503
L248.328 259.999
L248.774 258.681
L249.221 264.869
L249.667 266.922
L250.114 265.664
L250.56 258.748
L251.006 259.51
L251.453 261.441
L251.899 257.847
L252.346 256.279
L252.792 256.226
L253.238 257.928
L253.685 267.126
L254.131 265.092
L254.578 256.183
L255.024 259.426
L255.47 255.19
L256.363 263.901
L256.81 260.04
L257.256 254.788
L257.702 252.378
L258.149 264.167
L258.595 267.549
L259.042 265.322
L259.488 258.696
L259.934 259.72
L260.381 263.86
L260.827 257.001
L261.274 256.182
L261.72 254.702
L262.166 257.727
L262.613 259.488
L263.059 263.099
L263.506 267.743
L263.952 255.021
L264.398 263.012
L264.845 256.613
L265.291 257.539
L265.738 256.598
L266.184 252.057
L267.077 269.585
L267.523 263.762
L267.97 267.34
L268.416 259.41
L268.862 259.624
L269.309 261.236
L269.755 259.718
L270.202 246.098
L270.648 221.123
L271.094 264.967
L271.541 259.806
L271.987 260.361
L272.88 268.048
L273.326 261.646
L274.219 254.45
L274.666 261.47
L275.112 261.408
L275.558 261.461
L276.005 250.966
L276.451 254.589
L276.898 266.307
L277.344 264.942
L277.79 264.959
L278.237 259.75
L278.683 259.654
L279.13 262.833
L279.576 262.487
L280.022 255.011
L280.469 252.626
L280.915 258.15
L281.362 268.063
L282.254 260.301
L282.701 258.037
L283.147 259.483
L283.594 261.382
L284.04 261.071
L284.486 247.491
L284.933 253.946
L285.379 256.662
L285.826 264.769
L286.272 265.398
L286.718 266.327
L287.165 261.225
L287.611 259.438
L288.058 249.503
L288.504 260.033
L288.95 254.957
L289.397 257.916
L289.843 263.182
L290.29 259.546
L290.736 265.902
L291.182 267.291
L292.075 258.089
L292.522 256.215
L292.968 261.345
L293.414 261.806
L293.861 252.006
L294.307 251.132
L294.754 252.938
L295.2 268.096
L296.093 258.025
L296.539 261.707
L296.986 261.543
L297.432 253.491
L297.878 262.19
L298.325 253.231
L298.771 254.275
L299.218 239.415
L299.664 253.877
L300.11 248.118
L300.557 260.777
L301.003 267.32
L301.45 264.918
L301.896 265.048
L302.342 263.992
L302.789 258.491
L303.235 254.526
L303.682 261.436
L304.128 263.054
L304.574 257.983
L305.021 259.551
L305.467 254.354
L305.914 263.086
L306.36 256.317
L306.806 257.262
L307.253 255.724
L308.146 266.745
L308.592 262.986
L309.038 267.585
L309.485 262.036
L309.931 259.551
L310.378 254.398
L310.824 259.584
L311.27 254.788
L311.717 262.147
L312.163 261.588
L312.61 265.937
L313.056 258.418
L313.502 266.339
L313.949 263.772
L314.395 259.024
L315.288 259.713
L315.734 257.992
L316.181 257.987
L316.627 263.177
L317.074 257.833
L317.52 266.656
L317.966 265.333
L318.413 265.039
L318.859 255.349
L319.306 263.143
L319.752 263.208
L320.198 261.426
L320.645 261.419
L321.091 253.343
L321.538 257.085
L321.984 268.335
L322.43 264.914
L322.877 254.733
L323.323 261.237
L323.77 258.168
L324.216 266.559
L325.109 250.45
L325.555 258.286
L326.002 261.702
L326.448 267.045
L326.894 266.303
L327.787 262.973
L328.234 258.329
L328.68 251.246
L329.126 250.634
L329.573 266.505
L330.466 262.626
L330.912 261.382
L331.358 250.867
L331.805 267.313
L332.251 257.499
L332.698 261.249
L333.144 254.351
L333.59 256.124
L334.037 268.368
L334.483 264.828
L334.93 263.048
L335.376 259.754
L335.822 261.364
L336.269 261.318
L336.715 259.982
L337.162 258.017
L337.608 246.961
L338.054 259.483
L338.501 267.547
L338.947 264.138
L339.394 259.262
L339.84 263.185
L340.286 259.664
L340.733 259.666
L341.179 262.041
L341.626 255.678
L342.072 257.893
L342.965 268.564
L343.411 263.563
L343.858 263.205
L344.304 257.854
L345.197 261.436
L345.643 259.466
L346.09 256.203
L346.536 257.856
L346.982 263.263
L347.429 258.06
L347.875 269.253
L348.768 261.651
L349.214 261.369
L349.661 258.903
L350.107 259.995
L350.554 264.592
L351 259.353
L351.446 256.284
L351.893 256.718
L352.339 258.885
L352.786 267.361
L353.232 260.534
L353.678 262.755
L354.571 264.015
L355.018 259.947
L355.464 260.149
L355.91 260.511
L356.357 251.864
L356.803 256.413
L357.25 262.704
L357.696 266.76
L358.142 256.628
L358.589 260.719
L359.482 266.289
L359.928 261.62
L360.374 258.211
L360.821 264.812
L361.267 260.756
L361.714 252.536
L362.16 261.762
L363.053 255.252
L363.499 266.54
L363.946 256.602
L364.392 262.946
L364.838 259.572
L365.285 254.422
L365.731 263.157
L366.178 259.773
L366.624 261.388
L367.07 254.429
L367.517 258.051
L367.963 264.892
L368.41 268.095
L368.856 259.964
L369.302 254.433
L369.749 262.627
L370.195 260.153
L370.642 261.548
L371.088 261.18
L371.534 254.502
L371.981 261.335
L372.427 261.504
L372.874 264.924
L373.32 265.141
L373.766 264.467
L374.213 259.712
L374.659 257.746
L375.106 258.169
L375.552 253.372
L375.998 251.315
L376.445 264.687
L376.891 266.558
L377.338 264.891
L377.784 264.962
L378.23 263.017
L378.677 257.977
L379.123 261.236
L379.57 261.509
L380.016 253.076
L380.462 255.478
L380.909 263.029
L381.355 254.32
L381.802 252.974
L382.248 263.007
L382.694 263.278
L383.587 253.876
L384.034 259.95
L384.48 261.238
L384.926 261.485
L385.373 254.383
L385.819 257.85
L386.266 256.595
L386.712 264.112
L387.158 260.93
L387.605 226.281
L388.051 262.372
L388.498 253.59
L388.944 257.505
L389.39 266.089
L389.837 261.602
L390.283 250.477
L390.73 263.232
L391.176 270.414
L391.622 261.254
L392.069 259.74
L392.515 261.311
L392.962 258.198
L393.408 262.763
L393.854 261.353
L394.301 254.464
L394.747 252.851
L395.194 263.284
L395.64 268.377
L396.086 263.116
L396.533 259.851
L396.979 262.633
L397.426 259.481
L397.872 261.914
L398.318 261.46
L398.765 254.809
L399.211 255.905
L399.658 260.414
L400.104 258.766
L400.997 268.21
L401.443 261.915
L401.89 259.537
L402.336 254.533
L402.782 259.683
L403.229 261.276
L403.675 261.82
L404.122 264.597
L404.568 256.415
L405.014 265.25
L405.461 264.396
L405.907 263.973
L406.8 259.653
L407.246 258.904
L407.693 263.213
L408.139 261.362
L408.586 252.838
L409.032 253.19
L409.478 245.702
L409.925 264.681
L410.371 267.016
L410.818 257.75
L411.264 264.137
L411.71 260.444
L412.157 260.758
L412.603 261.212
L413.05 262
L413.496 253.871
L413.942 259.713
L414.389 263.294
L414.835 259.593
L415.282 264.797
L415.728 266.755
L416.174 235.595
L416.621 226.147
L417.067 262.408
L417.514 256.377
L417.96 257.648
L418.406 255.176
L419.299 264.357
L419.746 257.927
L420.192 264.982
L420.638 268.474
L421.085 261.39
L421.531 257.897
L421.978 263.302
L422.424 259.628
L423.317 263.25
L423.763 249.457
L424.21 253.111
L424.656 271.691
L425.102 262.474
L425.549 266.018
L425.995 260.536
L426.442 259.497
L426.888 262.519
L427.334 263.039
L427.781 254.897
L428.227 251.596
L428.674 264.403
L429.12 266.869
L430.013 261.518
L430.459 257.894
L430.906 258.072
L431.352 265.196
L431.798 259.175
L432.245 257.463
L432.691 256.612
L433.138 263.064
L433.584 261.369
L434.03 261.39
L434.477 264.798
L434.923 259.653
L435.37 258.115
L435.816 254.438
L436.262 254.883
L436.709 256.09
L437.155 258.056
L437.602 261.332
L438.048 256.18
L438.941 250.384
L439.387 252.917
L440.28 259.755
L440.726 253.81
L441.173 254.698
L441.619 257.314
L442.066 256.528
L442.512 252.904
L442.958 263.264
L443.405 259.85
L443.851 262.88
L444.298 258.17
L444.744 251.186
L445.19 236.703
L445.637 251.039
L446.083 261.553
L446.53 258.054
L446.976 260.569
L447.422 255.281
L447.869 258.044
L448.762 261.57
L449.208 256.147
L449.654 254.64
L450.547 261.343
L450.994 259.615
L451.44 251.044
L451.886 258.324
L452.333 261.224
L452.779 259.534
L453.226 261.457
L453.672 256.271
L454.118 254.597
L454.565 261.386
L455.011 259.801
L455.458 259.891
L455.904 253.817
L456.35 254.985
L456.797 264.24
L457.243 258.193
L457.69 261.219
L458.136 258.043
L458.582 262.266
L459.029 257.631
L459.475 255.117
L459.922 256.07
L460.368 252.848
L461.261 256.567
L461.707 263.426
L462.154 260.512
L462.6 254.194
L463.046 257.728
L463.493 258.203
L463.939 259.573
L464.386 260.092
L464.832 261.292
L465.278 248.694
L466.171 261.134
L466.618 264.166
L467.064 261.262
L467.51 262.637
L467.957 260.179
L468.403 250.088
L468.85 259.594
L469.296 258.455
L469.742 254.106
L470.189 252.934
L470.635 257.079
L471.082 256.426
L471.528 260.399
L471.974 263.178
L472.421 256.158
L472.867 259.769
L473.314 259.679
L473.76 259.39
L474.206 225.039
L474.653 238.298
L475.099 260.654
L475.546 265.056
L475.992 259.896
L476.438 263.234
L477.331 253.049
L477.778 261.621
L478.224 259.593
L478.67 252.822
L479.117 257.931
L480.01 264.968
L480.456 259.818
L480.902 261.065
L481.795 254.652
L482.242 259.474
L482.688 254.627
L483.134 251.419
L483.581 261.665
L484.474 256.142
L485.366 263.167
L485.813 263.092
L486.259 257.923
L486.706 259.768
L487.152 256.156
L487.598 261.674
L488.045 257.765
L488.491 257.912
L488.938 254.166
L489.83 263.227
L490.277 261.514
L490.723 258.995
L491.17 258.756
L491.616 251.411
L492.062 264.207
L492.509 256.984
L492.955 260.786
L493.402 254.297
L493.848 265.007
L494.294 256.156
L494.741 266.99
L495.187 255.956
L496.08 262.888
L496.973 252.88
L497.419 252.373
L497.866 253.243
L498.312 263.223
L498.758 261.045
L499.205 256.487
L499.651 257.729
L500.098 254.489
L500.544 254.636
L500.99 261.45
L501.437 259.631
L501.883 251.358
L502.33 224.188
L502.776 253.308
L503.222 259.984
L503.669 262.492
L504.115 259.533
L504.562 249.411
L505.008 263.188
L505.454 258.152
L505.901 258.227
L506.347 254.18
L506.794 257.967
L507.24 260.64
L507.686 262.272
L508.133 259.815
L508.579 259.579
L509.026 251.532
L509.472 258.715
L509.918 260.799
L510.365 260.653
L510.811 251.261
L511.258 254.335
L511.704 261.437
L512.15 263.169
L512.597 261.434
L513.043 261.385
L513.49 257.677
L513.936 260.157
L514.382 259.798
L514.829 253.333
L515.275 252.236
L515.722 255.852
L516.168 263.756
L516.614 259.379
L517.061 263.314
L517.507 258.141
L517.954 263.463
L517.954 263.463" style="fill:none;stroke:#ff0000;"/>
   </g>
   <g id="line2d_2">
    <path clip-path="url(#p7ff5b81e1d)" d="
M72 241.154
L72.4464 109.938
L72.8928 115.868
L73.3392 223.997
L73.7856 129.162
L74.232 125.781
L74.6784 123.485
L75.1248 124.231
L75.5712 135.144
L76.464 127.811
L76.9104 221.221
L77.3568 124.283
L77.8032 144.18
L78.2496 123.968
L78.696 138.077
L79.1424 139.779
L79.5888 223.737
L80.0352 127.732
L80.4816 120.13
L80.928 146.153
L81.3744 134.291
L81.8208 218.829
L82.2672 227.778
L82.7136 149.005
L83.16 142.539
L83.6064 222.459
L84.0528 145.686
L84.4992 140.939
L84.9456 206.011
L85.392 221.884
L85.8384 121.526
L86.2848 121.819
L86.7312 126.592
L87.1776 215.752
L87.624 148.539
L88.0704 146.567
L88.5168 227.64
L88.9632 221.846
L89.856 223.303
L90.3024 216.456
L90.7488 215.397
L91.1952 223.916
L91.6416 224.506
L92.088 138.428
L92.5344 134.055
L92.9808 228.084
L93.4272 139.953
L93.8736 126.025
L94.32 216.492
L94.7664 222.668
L95.2128 230.395
L95.6592 140.352
L96.1056 143.805
L96.552 133.966
L96.9984 210.93
L97.4448 225.246
L97.8912 148.175
L98.3376 150.499
L98.784 221.228
L99.2304 137.928
L99.6768 221.12
L100.123 131.693
L100.57 215.067
L101.016 222.538
L101.462 222.964
L101.909 221.747
L102.355 221.584
L102.802 225.137
L103.248 208.087
L103.694 222.928
L104.141 128.568
L104.587 217.849
L105.034 234.169
L105.48 229.223
L105.926 142.6
L106.373 212.67
L106.819 226.083
L107.266 207.522
L107.712 214.786
L108.158 224.267
L108.605 229.691
L109.051 227.181
L109.498 221.526
L109.944 141.434
L110.39 219.401
L110.837 214.353
L111.283 223.613
L111.73 228.9
L112.176 229.722
L112.622 224.68
L113.069 227.142
L113.515 221.943
L113.962 215.062
L114.408 228.579
L114.854 233.145
L115.301 228.743
L115.747 221.096
L116.194 219.707
L116.64 222.592
L117.086 137.428
L117.533 131.926
L117.979 223.243
L118.426 230.668
L118.872 227.673
L119.318 219.846
L119.765 148.349
L120.211 225.24
L120.658 221.173
L121.104 221.531
L121.55 224.364
L121.997 224.357
L122.443 221.638
L122.89 214.904
L123.336 222.92
L123.782 213.515
L124.229 224.407
L124.675 226.752
L125.122 221.393
L125.568 213.395
L126.461 227.788
L126.907 222.97
L127.354 209.969
L127.8 224.784
L128.246 232.372
L128.693 226.441
L129.139 197.884
L129.586 213.944
L130.032 219.628
L130.478 214.989
L130.925 216.752
L131.818 228.052
L132.264 229.159
L132.71 219.896
L133.157 148.371
L133.603 220.327
L134.05 207.504
L134.496 223.206
L134.942 230.319
L135.389 228.222
L135.835 220.15
L136.282 224.846
L136.728 223.207
L137.174 217.637
L137.621 225.283
L138.067 146.414
L138.514 226.766
L138.96 230.634
L139.406 216.154
L139.853 222.765
L140.299 217.437
L140.746 220.748
L141.192 221.388
L141.638 227.996
L142.085 228.666
L142.531 219.793
L142.978 224.202
L143.424 219.132
L143.87 220.374
L144.763 232.838
L145.21 228.487
L146.102 218.09
L146.549 224.6
L146.995 134.556
L147.442 217.613
L147.888 206.172
L148.334 212.952
L148.781 231.834
L149.227 226.655
L149.674 218.097
L150.12 219.801
L150.566 214.651
L151.013 216.422
L151.459 223.663
L151.906 228.262
L152.352 228.746
L152.798 218.371
L153.245 219.083
L153.691 223.322
L154.138 219.638
L154.584 222.566
L155.03 226.725
L155.477 228.744
L155.923 218.269
L156.37 229.614
L156.816 224.7
L157.262 216.871
L157.709 217.819
L158.155 225.193
L158.602 228.709
L159.048 135.906
L159.494 224.004
L159.941 221.574
L160.387 219.934
L160.834 223.451
L161.28 232.562
L161.726 222.608
L162.173 223.278
L162.619 211.827
L163.066 224.488
L163.512 216.751
L163.958 223.225
L164.405 223.156
L164.851 227.547
L165.298 228.627
L165.744 221.555
L166.19 221.995
L166.637 219.93
L167.083 214.795
L167.976 228.426
L168.422 231.864
L168.869 223.459
L169.315 218.097
L169.762 226.107
L170.208 189.431
L170.654 216.611
L171.101 227.855
L171.547 213.015
L171.994 220.555
L172.44 233.288
L172.886 230.063
L173.779 218.33
L174.226 221.423
L174.672 214.268
L175.118 213.126
L175.565 223.593
L176.011 228.687
L176.458 229.521
L176.904 216.404
L177.35 224.167
L177.797 224.82
L178.243 218.7
L178.69 219.591
L179.136 228.359
L179.582 230.246
L180.029 223.206
L180.475 220.324
L180.922 222.703
L181.368 214.739
L181.814 218.583
L182.261 225.85
L182.707 228.985
L183.154 227.94
L183.6 216.589
L184.046 225.267
L184.493 210.42
L184.939 215.51
L185.386 223.727
L185.832 228.753
L186.278 228
L186.725 216.956
L187.171 225.043
L187.618 223.167
L188.064 219.176
L188.957 231.61
L189.403 230.169
L189.85 224.941
L190.296 222.198
L190.742 223.411
L191.189 216.527
L191.635 218.129
L192.082 216.618
L192.528 233.386
L192.974 219.022
L193.421 219.014
L193.867 227.963
L194.314 226.904
L194.76 223.307
L195.206 223.386
L196.099 213.454
L196.546 215.405
L196.992 225.092
L197.438 230.096
L198.331 219.531
L198.778 223.493
L199.224 221.506
L199.67 229.337
L200.117 232.926
L200.563 227.088
L201.01 223.727
L201.456 221.52
L201.902 225.209
L202.349 219.083
L202.795 218.81
L203.242 222.141
L203.688 228.782
L204.134 229.015
L204.581 219.224
L205.027 221.433
L205.474 226.052
L205.92 215.378
L206.366 219.075
L206.813 226.054
L207.259 222.164
L207.706 222.176
L208.152 218.649
L208.598 216.136
L209.938 232.205
L210.384 228.187
L210.83 227.118
L211.277 222.035
L211.723 225.766
L212.17 217.774
L213.062 233.73
L213.509 228.928
L213.955 217.247
L214.402 216.604
L214.848 217.192
L215.294 134.411
L215.741 197.685
L216.187 216.209
L216.634 214.823
L217.08 221.548
L217.526 231.991
L218.419 224.857
L218.866 220.483
L219.312 224.072
L219.758 215.68
L220.205 220.734
L220.651 217.473
L221.098 225.042
L221.544 229.959
L221.99 222.491
L222.437 219.846
L222.883 224.521
L223.33 217.555
L224.222 230.206
L224.669 232.303
L225.562 214.84
L226.008 226.333
L226.454 214.629
L226.901 216.173
L227.347 223.998
L227.794 227.168
L228.24 229.4
L228.686 216.76
L229.133 223.016
L229.579 216.202
L230.026 211.192
L230.918 225.465
L231.365 228.682
L231.811 221.802
L232.258 227.763
L232.704 221.545
L233.15 220.017
L233.597 225.151
L234.043 231.934
L234.49 226.882
L234.936 227.189
L235.382 216.564
L235.829 226.46
L236.275 216.862
L237.168 223.117
L237.614 230.748
L238.061 226.285
L238.507 175.675
L238.954 225.512
L239.4 226.778
L239.846 220.54
L240.293 225.356
L240.739 218.788
L241.186 217.275
L241.632 220.496
L242.078 228.905
L242.525 231.13
L242.971 214.958
L243.418 219.092
L243.864 224.48
L244.31 212.472
L245.203 228.57
L245.65 229.564
L246.096 222.324
L246.542 212.894
L246.989 224.399
L247.435 215.559
L248.328 220.161
L248.774 226.329
L249.221 226.44
L249.667 219.051
L250.114 217.239
L250.56 214.777
L251.006 220.747
L251.453 220.579
L251.899 227.283
L252.346 216.85
L252.792 220.961
L253.238 219.81
L253.685 225.236
L254.131 213.074
L254.578 212.908
L255.024 226.847
L255.47 229.305
L255.917 226.183
L256.363 220.284
L256.81 223.875
L257.256 216.286
L257.702 218.393
L258.595 227.667
L259.042 229.02
L259.488 215.185
L259.934 224.429
L260.381 224.192
L260.827 218.08
L261.274 218.071
L261.72 216.622
L262.166 221.654
L262.613 224.113
L263.059 233.077
L263.506 228.121
L263.952 225.929
L264.398 216.579
L264.845 222.032
L265.291 215.909
L265.738 221.554
L266.184 223.244
L266.63 228.548
L267.077 226.927
L267.523 209.469
L267.97 222.054
L268.416 221.056
L268.862 226.631
L269.755 231.536
L270.202 221.593
L270.648 219.409
L271.094 223.124
L271.541 215.146
L271.987 221.555
L272.434 221.57
L272.88 228.525
L273.326 229.083
L273.773 219.268
L274.219 227.881
L274.666 225.854
L275.112 211.004
L275.558 218.227
L276.005 231.588
L276.451 228.837
L276.898 220.026
L277.79 223.154
L278.237 221.994
L278.683 222.699
L279.576 231.774
L280.022 226.797
L280.469 218.18
L280.915 221.757
L281.362 218.308
L281.808 212.947
L282.254 220.075
L282.701 225.205
L283.147 219.9
L283.594 218.29
L284.04 209.683
L284.486 218.393
L284.933 219.165
L285.379 224.811
L285.826 222.983
L286.272 186.169
L286.718 223.098
L287.611 228.511
L288.058 223.303
L288.504 216.107
L288.95 227.033
L289.397 213.258
L289.843 226.706
L290.29 229.844
L290.736 228.826
L291.182 226.16
L291.629 213.212
L292.522 219.879
L292.968 217.325
L293.414 220.057
L294.307 229.329
L294.754 220.771
L295.2 221.358
L295.646 224.403
L296.093 217.182
L296.986 231.41
L297.432 222.704
L297.878 223.245
L298.325 216.784
L298.771 225.461
L299.218 215.193
L299.664 219.918
L300.11 223.23
L300.557 228.503
L301.003 226.831
L301.45 220.017
L301.896 224.329
L302.342 215.631
L302.789 221.941
L303.235 216.182
L304.128 230.177
L304.574 221.687
L305.021 227.089
L305.467 224.394
L305.914 218.462
L306.36 226.136
L306.806 220.152
L307.253 212.055
L307.699 226.616
L308.146 228.161
L308.592 224.74
L309.038 227.434
L309.485 216.27
L309.931 222.816
L310.378 216.719
L310.824 222.227
L311.27 221.861
L311.717 229.516
L312.163 227.135
L312.61 223.855
L313.056 219.046
L313.502 222.661
L313.949 217.157
L314.395 219.765
L314.842 230.319
L315.288 231.757
L315.734 221.308
L316.181 224.767
L316.627 225.328
L317.074 212.766
L317.52 231.952
L317.966 228.423
L318.413 232.182
L318.859 221.887
L319.306 218.036
L319.752 223.328
L320.198 207.724
L321.538 228.546
L321.984 228.159
L322.43 224.245
L322.877 217.691
L323.323 227.45
L323.77 215.565
L324.216 220.121
L324.662 229.377
L325.555 216.759
L326.002 225.101
L326.448 216.502
L326.894 218.138
L327.341 221.801
L327.787 227.956
L328.234 223.92
L328.68 216.836
L329.126 226.469
L329.573 202.903
L330.466 223.679
L330.912 221.871
L331.358 220.93
L331.805 224.877
L332.251 232.153
L332.698 226.919
L333.144 227.79
L333.59 217.055
L334.037 220.084
L334.483 218.111
L334.93 221.639
L335.376 222.799
L335.822 229.253
L336.269 227.91
L336.715 216.527
L337.162 223.393
L337.608 214.323
L338.054 214.229
L338.947 228.851
L339.394 229.615
L339.84 221.091
L340.286 220.467
L340.733 224.371
L341.179 218.921
L341.626 223.434
L342.072 232.181
L342.965 214.039
L343.411 227.48
L343.858 223.408
L344.304 215.87
L344.75 220.529
L345.643 225.148
L346.09 217.241
L346.536 224.136
L346.982 220.78
L347.429 212.622
L347.875 211.058
L348.322 220.284
L348.768 220.714
L349.214 218.476
L349.661 220.413
L350.107 219.906
L350.554 217.29
L351 216.632
L351.446 215.557
L351.893 218.249
L352.339 214.412
L352.786 207.762
L353.232 219.869
L353.678 220.076
L354.125 216.575
L354.571 214.608
L355.018 221.817
L355.464 214.978
L355.91 219.279
L356.357 216.369
L356.803 225.717
L357.25 221.625
L357.696 221.239
L358.142 221.263
L358.589 223.331
L359.035 221.794
L359.482 223.207
L359.928 226.714
L360.374 224.216
L360.821 214.368
L361.267 216.286
L361.714 219.428
L362.16 224.352
L362.606 221.305
L363.053 219.469
L363.499 221.53
L363.946 207.759
L364.392 212.965
L364.838 210.467
L365.731 221.901
L366.178 222.727
L366.624 216.296
L367.07 221.612
L367.517 219.509
L367.963 218.678
L368.41 215.249
L368.856 227.405
L369.302 228.868
L370.195 215.376
L370.642 215.615
L371.088 212.273
L371.534 218.259
L371.981 221.285
L372.427 218.316
L372.874 218.812
L373.32 222.765
L373.766 218.09
L374.213 216.391
L374.659 201.184
L375.106 201.107
L375.552 212.792
L375.998 219.847
L376.445 220.165
L376.891 218.358
L377.338 221.842
L377.784 223.033
L378.23 214.317
L378.677 214.865
L379.123 218.032
L379.57 218.248
L380.016 223.371
L380.462 216.565
L380.909 220.08
L381.355 222.468
L381.802 216.587
L382.248 208.074
L382.694 213.388
L383.141 220.156
L383.587 220.64
L384.034 216.736
L384.48 219.098
L384.926 222.173
L385.373 218.835
L385.819 212.044
L386.712 221.653
L387.158 219.285
L387.605 215.077
L388.051 222.611
L388.498 215.972
L388.944 212.67
L389.39 216.462
L389.837 221.929
L390.283 221.429
L390.73 222.624
L391.176 214.603
L391.622 220.694
L392.069 223.901
L392.515 215.859
L392.962 218.261
L393.408 224.923
L393.854 221.827
L394.301 214.621
L394.747 220.09
L395.194 221.395
L395.64 225.118
L396.086 223.764
L396.533 228.529
L396.979 186.647
L397.426 206.302
L397.872 211.319
L398.318 219.884
L398.765 221.663
L399.211 219.893
L399.658 220.715
L400.104 215.855
L400.55 213.187
L400.997 209.34
L401.443 221.698
L401.89 217.033
L402.336 219.882
L402.782 221.625
L403.229 216.471
L403.675 213.437
L404.122 219.597
L404.568 213.477
L405.014 220.871
L405.461 223.459
L405.907 220.112
L406.354 204.184
L406.8 218.341
L407.693 211.515
L408.139 223.511
L408.586 218.244
L409.032 214.773
L409.478 202.31
L409.925 222.609
L410.371 222.514
L410.818 214.08
L411.264 227.677
L411.71 224.969
L412.157 214.642
L412.603 217.901
L413.05 219.236
L413.496 215.741
L413.942 216.494
L414.389 223.568
L414.835 226.81
L415.282 222.999
L415.728 210.414
L416.174 217.696
L416.621 214.821
L417.514 220.376
L417.96 229.85
L418.406 218.433
L418.853 213.182
L419.299 342.721
L419.746 205.389
L420.192 212.853
L420.638 212.102
L421.085 222.96
L421.531 226.564
L422.424 216.425
L422.87 220.399
L423.317 214.36
L423.763 214.963
L424.21 212.934
L424.656 218.309
L425.102 221.668
L425.549 221.671
L426.442 213.522
L426.888 214.897
L427.334 214.584
L427.781 220.065
L428.227 216.471
L428.674 223.37
L429.12 209.601
L429.566 213.154
L430.013 209.598
L430.459 218.009
L430.906 220.106
L431.352 201.598
L431.798 222.73
L432.245 207.814
L432.691 221.824
L433.138 209.585
L433.584 211.291
L434.477 224.62
L434.923 222.509
L435.37 227.613
L435.816 227.56
L436.709 216.025
L437.155 218.198
L437.602 218.019
L438.048 216.606
L438.494 225.062
L439.387 221.861
L439.834 215.619
L440.28 218.974
L440.726 208.087
L441.173 341.6
L441.619 209.218
L442.066 209.384
L442.512 207.785
L443.405 223.347
L443.851 220.246
L444.298 221.542
L444.744 219.952
L445.19 216.532
L445.637 216.133
L446.083 222.248
L446.53 226.378
L446.976 217.831
L447.422 213.312
L447.869 218.425
L448.315 213.275
L448.762 215.959
L449.208 220.002
L449.654 213.567
L450.101 217.523
L450.547 223.107
L450.994 222.468
L451.44 212.43
L451.886 211.277
L452.333 214.861
L452.779 224.962
L453.226 218.362
L453.672 221.575
L454.118 221.893
L454.565 220.015
L455.011 209.51
L455.904 222.764
L456.35 221.856
L456.797 222.097
L457.243 212.396
L457.69 223.355
L458.136 221.863
L458.582 216.378
L459.029 220.055
L459.475 221.799
L459.922 221.669
L460.368 209.323
L460.814 218.477
L461.261 216.877
L461.707 214.047
L462.154 228.607
L462.6 226.765
L463.046 196.622
L463.493 217.008
L463.939 219.906
L464.386 208.573
L464.832 219.936
L465.278 217.222
L465.725 224.202
L466.171 218.424
L466.618 221.9
L467.064 216.574
L467.51 216.05
L467.957 220.302
L468.403 214.779
L468.85 211.622
L469.296 226.857
L469.742 227.991
L470.189 218.179
L470.635 212.062
L471.082 216.104
L471.528 215.942
L471.974 215.066
L472.421 221.523
L472.867 221.088
L473.314 217.03
L473.76 214.551
L474.206 219.51
L474.653 211.47
L475.099 210.986
L475.546 203.941
L475.992 222.824
L476.438 218.542
L476.885 221.268
L477.331 222.939
L477.778 207.794
L478.224 215.187
L478.67 220.618
L479.117 220.295
L479.563 215.973
L480.01 215.817
L480.456 219.961
L481.349 216.622
L481.795 216.508
L482.242 221.695
L482.688 220.088
L483.134 223.242
L483.581 213.113
L484.027 218.339
L484.474 213.879
L484.92 217.019
L485.366 340.935
L485.813 206.813
L486.259 208.764
L486.706 217.498
L487.152 217.123
L487.598 220.081
L488.045 221.755
L488.491 217.801
L488.938 219.564
L489.384 219.163
L489.83 216.346
L490.277 218.137
L490.723 221.871
L491.17 219.542
L491.616 223.615
L492.062 219.679
L492.509 221.986
L492.955 221.469
L493.402 215.548
L493.848 224.327
L494.294 221.721
L494.741 221.556
L495.187 214.735
L495.634 221.973
L496.08 221.397
L496.526 225.611
L496.973 220.031
L497.419 215.909
L497.866 219.921
L498.312 213.994
L498.758 222.427
L499.205 223.244
L499.651 223.558
L500.098 230.622
L500.544 178.191
L500.99 222.118
L501.437 216.019
L501.883 220.164
L502.33 217.198
L502.776 210.446
L503.222 228.758
L503.669 227.685
L504.115 220.732
L504.562 216.82
L505.008 218.14
L505.454 218.295
L505.901 214.78
L506.347 221.566
L506.794 219.922
L507.24 177.68
L507.686 209.871
L508.133 220.662
L508.579 220.307
L509.026 217.963
L509.472 214.895
L510.365 224.193
L510.811 211.646
L511.258 218.972
L511.704 217.324
L512.15 217.78
L512.597 217.48
L513.49 223.089
L513.936 223.964
L514.382 222.824
L514.829 227.017
L515.275 221.606
L515.722 214.757
L516.168 220.002
L516.614 214.513
L517.061 218.41
L517.507 224.919
L517.954 225.988
L517.954 225.988" style="fill:none;opacity:0.7;stroke:#008000;"/>
   </g>
   <g id="line2d_3">
    <path clip-path="url(#p7ff5b81e1d)" d="
M72 348.367
L72.4464 190.758
L72.8928 259.605
L73.3392 252.525
L73.7856 252.743
L74.232 249.107
L74.6784 256.267
L75.1248 258.163
L75.5712 256.974
L76.0176 259.421
L76.464 258.917
L76.9104 253.273
L77.3568 252.614
L77.8032 250.991
L78.2496 256.578
L79.1424 252.673
L80.0352 266.579
L80.4816 261.891
L80.928 264.208
L81.3744 258.335
L81.8208 231.901
L82.2672 246.725
L82.7136 251.585
L83.6064 257.708
L84.0528 253.019
L84.4992 251.299
L84.9456 255.536
L85.392 265.82
L85.8384 254.536
L86.2848 260.787
L86.7312 258.763
L87.1776 259.904
L87.624 258.386
L88.0704 260.266
L88.5168 250.949
L88.9632 249.089
L89.4096 258.429
L89.856 258.072
L90.3024 264.459
L90.7488 262.361
L91.1952 263.899
L91.6416 262.155
L92.088 258.109
L92.5344 251.939
L92.9808 253.132
L93.4272 253.133
L93.8736 252.253
L94.32 255.501
L94.7664 265.674
L95.2128 261.029
L95.6592 252.803
L96.1056 255.784
L96.552 252.823
L96.9984 259.303
L97.4448 260.392
L97.8912 260.232
L98.3376 253.955
L98.784 256.159
L99.2304 265.576
L99.6768 262.36
L100.123 260.824
L100.57 260.129
L101.016 252.18
L101.462 259.333
L101.909 261.13
L102.355 259.175
L102.802 260.73
L103.248 264.516
L103.694 263.066
L104.141 263.855
L104.587 260.551
L105.034 258.318
L105.48 260.975
L106.373 254.751
L106.819 252.755
L107.266 254.424
L107.712 264.175
L108.158 263.851
L108.605 262.332
L109.051 257.959
L109.498 257.903
L109.944 265.444
L110.39 249.298
L110.837 217.383
L111.283 253.725
L111.73 256.172
L112.176 256.215
L112.622 257.767
L113.069 259.767
L113.515 264.539
L113.962 250.896
L114.408 260.432
L114.854 261.654
L115.301 251.807
L115.747 259.669
L116.194 257.437
L116.64 263.014
L117.086 265.919
L117.533 259.791
L117.979 258.392
L118.426 253.984
L118.872 259.09
L119.318 251.861
L119.765 261.263
L120.211 261.022
L120.658 266.282
L121.104 262.187
L121.55 256.282
L121.997 258.761
L122.443 247.34
L122.89 257.087
L123.336 251.606
L123.782 254.195
L124.229 244.158
L124.675 261.584
L125.122 263.086
L125.568 262.84
L126.014 262.897
L126.461 259.711
L126.907 252.005
L127.354 261.801
L127.8 258.25
L128.246 258.718
L128.693 250.75
L129.139 257.871
L129.586 254.582
L130.032 263.191
L130.925 257.782
L131.371 260.617
L131.818 258.168
L132.264 254.848
L133.157 261.675
L133.603 257.414
L134.05 262.611
L134.496 266.034
L134.942 259.95
L135.389 257.038
L135.835 261.545
L136.282 259.019
L136.728 252.963
L137.174 249.542
L137.621 264.046
L138.067 266.331
L138.514 264.029
L138.96 262.348
L139.406 346.24
L139.853 254.295
L140.299 260.944
L140.746 251.705
L141.192 259.193
L141.638 261.414
L142.085 258.924
L142.531 260.304
L142.978 258.632
L143.87 264.904
L144.763 257.682
L145.21 259.444
L145.656 260.272
L146.102 254.139
L146.549 252.194
L146.995 261.624
L147.442 264.253
L147.888 261.448
L148.334 265.312
L148.781 260.489
L149.227 258.4
L149.674 261.292
L150.12 257.366
L150.566 243.795
L151.013 254.325
L151.459 254.012
L151.906 260.097
L152.352 263.156
L153.245 260.016
L153.691 250.863
L154.138 263.417
L154.584 260.158
L155.03 259.754
L155.477 254.387
L155.923 254.286
L156.37 265.659
L156.816 261.402
L157.262 253.057
L157.709 252.76
L158.155 254.32
L158.602 256.467
L159.048 252.49
L159.494 258.722
L159.941 259.885
L160.387 263.174
L160.834 256.135
L161.28 256.299
L161.726 259.743
L162.173 259.685
L162.619 261.387
L163.066 258.023
L163.512 257.998
L163.958 252.203
L164.405 261.563
L164.851 265.485
L165.298 262.868
L165.744 263.631
L166.19 260.062
L166.637 260.334
L167.083 261.519
L167.53 258.175
L167.976 252.221
L168.422 255.819
L168.869 253.402
L169.315 255.98
L169.762 263.078
L170.208 265.803
L170.654 257.805
L171.101 257.913
L171.547 253.85
L171.994 251.543
L172.44 247.615
L172.886 257.964
L173.333 262.172
L173.779 250.255
L174.226 256.402
L174.672 257.882
L175.118 265.318
L175.565 256.823
L176.011 252.632
L176.458 260.688
L176.904 254.285
L177.35 251.961
L178.243 266.977
L178.69 262.689
L179.136 242.15
L179.582 252.915
L180.029 258.955
L180.475 260.742
L180.922 258.985
L181.368 259.261
L181.814 251.092
L182.261 254.424
L182.707 259.715
L183.154 261.66
L183.6 258.865
L184.046 258.175
L184.493 251.003
L184.939 261.456
L185.386 259.6
L185.832 259.644
L186.278 261.439
L186.725 256.288
L187.171 256.256
L187.618 259.038
L188.064 260.551
L188.51 258.005
L188.957 259.945
L189.403 263.528
L189.85 253.321
L190.296 256.781
L190.742 259.238
L191.189 257.634
L191.635 260.636
L192.082 264.879
L192.528 261.571
L192.974 255.922
L193.421 248.349
L193.867 257.7
L194.314 264.673
L194.76 262.277
L195.206 264.932
L195.653 260.754
L196.099 257.919
L196.546 237.43
L196.992 258.221
L197.438 260.438
L197.885 259.497
L198.331 253.336
L198.778 259.087
L199.224 261.109
L199.67 259.483
L200.117 260.787
L200.563 264.986
L201.01 261.347
L201.456 264.826
L202.349 258.125
L202.795 261.09
L203.242 258.746
L203.688 253.697
L204.134 252.034
L204.581 258.478
L205.027 259.554
L205.474 254.406
L206.366 261.348
L206.813 257.806
L207.259 261.565
L207.706 244.895
L208.152 253.89
L208.598 248.584
L209.045 256.189
L209.491 266.28
L209.938 262.195
L210.384 260.093
L210.83 259.646
L211.277 253.477
L211.723 258.211
L212.17 261.408
L212.616 259.259
L213.062 260.717
L213.509 255.411
L213.955 263.766
L214.402 265.841
L215.294 258.374
L215.741 260.138
L216.187 258.541
L216.634 253.656
L217.08 256.307
L217.526 261.033
L217.973 263.287
L218.419 262.161
L218.866 262.15
L219.312 257.7
L219.758 251.231
L220.205 264.501
L220.651 259.07
L221.098 249.953
L221.544 252.643
L221.99 265.753
L222.883 263.451
L223.33 263.676
L224.222 253.315
L224.669 261.138
L225.115 257.38
L225.562 251.348
L226.008 250.939
L226.454 252.314
L226.901 258.615
L227.347 257.555
L227.794 263.792
L228.24 260.21
L228.686 258.29
L229.133 251.939
L229.579 257.68
L230.026 254.315
L230.918 261.474
L231.365 257.988
L231.811 256.229
L232.258 257.841
L232.704 261.439
L233.15 259.293
L233.597 259.358
L234.043 262.229
L234.49 253.722
L234.936 252.76
L235.382 261.441
L235.829 266.031
L236.722 257.082
L237.168 259.383
L237.614 251.969
L238.061 258.9
L238.507 261.661
L238.954 259.298
L239.4 253.784
L239.846 255.322
L240.293 264.899
L240.739 263.837
L241.186 262.424
L241.632 259.913
L242.078 258.56
L242.525 259.057
L242.971 260.648
L243.418 259.544
L243.864 261.233
L244.31 258.065
L244.757 261.169
L245.203 261.036
L245.65 266.559
L246.096 256.312
L246.542 261.578
L246.989 259.18
L247.435 254.411
L247.882 261.804
L248.328 257.287
L248.774 263.453
L249.221 257.383
L249.667 255.38
L250.114 264.484
L250.56 260.841
L251.006 254.781
L251.453 264.413
L251.899 257.338
L252.346 254.323
L252.792 253.29
L253.238 260.734
L253.685 266.147
L254.131 255.145
L254.578 247.35
L255.024 260.81
L255.47 262.263
L255.917 258.385
L256.363 259.909
L256.81 258.396
L257.256 253.92
L257.702 256.025
L258.149 261.403
L258.595 259.249
L259.042 254.862
L259.488 257.952
L259.934 259.781
L260.381 259.799
L260.827 252.739
L261.274 259.592
L262.166 250.665
L262.613 261.938
L263.059 262.837
L263.506 262.643
L263.952 264.367
L264.398 257.998
L264.845 260.487
L265.291 260.668
L265.738 250.294
L266.184 253.808
L266.63 258.229
L267.077 253.268
L267.523 266.989
L267.97 261.22
L268.416 261.25
L268.862 259.706
L269.309 259.519
L269.755 260.198
L270.202 262.787
L271.094 245.87
L271.541 261.367
L271.987 264.71
L272.434 263.083
L272.88 263.18
L273.326 261.863
L273.773 251.382
L274.219 261.338
L274.666 260.471
L275.112 260.45
L275.558 251.707
L276.451 263.262
L276.898 265.714
L277.79 257.109
L278.237 254.328
L278.683 258.683
L279.13 253.742
L279.576 255.892
L280.022 265.484
L280.469 255.482
L280.915 263.761
L281.362 266.502
L281.808 261.009
L282.254 257.454
L282.701 252.734
L283.147 259.61
L283.594 219.473
L284.04 247.903
L284.486 254.365
L284.933 256.285
L285.379 254.616
L285.826 259.317
L286.272 260.015
L286.718 258.196
L287.165 264.809
L287.611 257.468
L288.058 252.614
L288.504 259.046
L288.95 254.646
L289.397 256.279
L289.843 256.309
L290.29 258.086
L290.736 261.503
L291.182 258.055
L291.629 261.516
L292.075 260.337
L292.522 255.315
L292.968 251.553
L293.861 264.945
L294.307 253.022
L294.754 259.318
L295.2 258.817
L295.646 259.253
L296.093 259.075
L296.539 260.712
L296.986 260.451
L297.432 253.282
L297.878 254.721
L298.325 267.019
L298.771 262.793
L299.218 261.157
L299.664 253.237
L300.11 252.074
L300.557 259.296
L301.003 261.602
L301.45 259.519
L301.896 252.479
L302.342 251.848
L303.235 266.514
L303.682 262.056
L304.128 262.151
L304.574 258.951
L305.021 259.516
L305.467 258.763
L305.914 253.399
L306.36 259.586
L306.806 261.308
L307.253 266.346
L307.699 261.904
L308.146 264.542
L308.592 258.043
L309.038 256.438
L309.485 265.554
L310.378 253.13
L310.824 251.421
L311.27 261.616
L311.717 264.588
L312.163 255.078
L312.61 320.158
L313.056 277.031
L313.502 256.431
L313.949 252.369
L314.395 257.783
L314.842 252.569
L315.288 259.363
L315.734 261.45
L316.181 257.911
L316.627 256.306
L317.074 256.34
L317.52 261.008
L317.966 261.525
L318.413 260.013
L318.859 258.09
L319.306 252.464
L319.752 253.355
L320.198 261.542
L320.645 259.118
L321.091 254.449
L321.538 258.833
L321.984 260.028
L322.43 256.818
L322.877 254.734
L323.323 263.486
L324.216 255.616
L324.662 256.647
L325.109 262.445
L325.555 265.447
L326.002 262.862
L326.448 256.927
L326.894 254.353
L327.341 259.627
L327.787 254.051
L328.234 258.827
L328.68 261.315
L329.126 255.551
L329.573 263.214
L330.019 267.616
L330.466 260.405
L330.912 257.781
L331.358 259.653
L331.805 260.462
L332.251 253.531
L332.698 253.313
L333.59 266.859
L334.037 261.016
L334.483 261.535
L335.376 257.661
L335.822 263.25
L336.269 258.421
L336.715 261.989
L337.162 252.873
L337.608 254.905
L338.054 259.855
L338.501 261.317
L338.947 254.633
L339.394 251.331
L339.84 250.926
L340.286 260.429
L340.733 253.872
L341.179 227.797
L341.626 249.785
L342.072 256.219
L342.518 252.765
L342.965 257.572
L343.411 260.508
L343.858 259.52
L344.304 259.271
L344.75 257.786
L345.197 252.587
L345.643 249.309
L346.09 261.658
L346.536 261.584
L346.982 260.272
L347.429 260.108
L347.875 259.71
L348.322 256.118
L348.768 261.537
L349.214 257.877
L349.661 252.853
L350.107 252.746
L350.554 256.408
L351 253.029
L351.446 258.178
L351.893 264.921
L352.339 256.903
L352.786 251.1
L353.232 259.615
L353.678 254.985
L354.125 256.456
L354.571 260.617
L355.018 256.289
L355.91 265.673
L356.357 260.408
L356.803 261.562
L357.25 258.783
L357.696 257.076
L358.589 259.483
L359.035 258.048
L359.482 252.881
L359.928 254.779
L360.374 260.761
L360.821 261.398
L361.267 261.331
L361.714 257.939
L362.16 252.045
L362.606 259.338
L363.053 260.698
L363.499 257.876
L364.392 263.59
L364.838 259.601
L365.285 263.602
L366.178 254.363
L366.624 261.413
L367.07 258.1
L367.517 257.068
L367.963 250.322
L368.41 260.374
L368.856 265.84
L369.302 260.733
L369.749 234.804
L371.088 265.807
L371.534 254.265
L371.981 255.743
L372.427 252.987
L372.874 256.145
L373.32 260.705
L373.766 263.063
L374.213 255.187
L374.659 256.296
L375.106 259.262
L375.552 257.656
L375.998 252.655
L376.445 257.291
L376.891 260.633
L377.338 259.965
L377.784 258.517
L378.23 265.144
L378.677 261.595
L379.123 255.626
L379.57 259.635
L380.016 253.432
L380.462 251.971
L380.909 251.093
L381.802 262.845
L382.694 261.032
L383.141 259.269
L383.587 258.071
L384.034 258.648
L384.48 260.757
L384.926 257.88
L385.373 252.831
L385.819 253.525
L386.266 257.085
L386.712 264.799
L387.158 258.479
L387.605 258.018
L388.051 257.907
L388.498 258.368
L388.944 259.153
L389.39 256.245
L389.837 261.151
L390.283 262.996
L390.73 262.544
L391.176 263.576
L391.622 259.882
L392.069 249.187
L392.515 261.357
L392.962 259.711
L393.408 252.853
L393.854 250.914
L394.301 261.307
L394.747 264.737
L395.194 260.86
L395.64 261.956
L396.086 259.487
L396.533 256.178
L396.979 261.377
L397.426 259.843
L397.872 257.728
L398.318 229.588
L398.765 251.446
L399.658 260.669
L400.55 263.061
L400.997 254.732
L401.443 257.722
L401.89 258.333
L402.336 251.47
L402.782 254.969
L403.229 261.316
L403.675 264.932
L404.122 259.625
L404.568 265.16
L405.014 261.286
L405.461 254.581
L405.907 258.335
L406.354 259.648
L406.8 252.496
L407.246 255.596
L407.693 253.658
L408.139 262.97
L408.586 252.675
L409.478 256.348
L409.925 263.075
L410.818 251.034
L411.264 259.841
L411.71 254.696
L412.157 256.154
L412.603 254.664
L413.05 244.378
L413.496 254.679
L413.942 250.848
L414.389 259.833
L414.835 253.017
L415.282 259.261
L415.728 257.908
L416.174 252.653
L416.621 256.381
L417.067 256.053
L417.514 261.21
L417.96 258.17
L418.406 260.231
L418.853 257.141
L419.299 259.004
L419.746 258.349
L420.192 256.807
L420.638 261.506
L421.085 256.418
L421.531 254.582
L421.978 254.704
L422.424 263.297
L422.87 254.677
L423.317 264.45
L424.21 253.567
L424.656 250.898
L425.102 256.971
L425.549 257.643
L425.995 255.44
L426.442 255.362
L426.888 230.516
L427.781 254.688
L428.227 264.928
L428.674 259.064
L429.12 250.639
L430.013 256.229
L430.906 264.123
L431.352 253.549
L431.798 256.38
L432.245 252.88
L432.691 259.59
L433.138 255.627
L433.584 256.927
L434.03 261.886
L434.477 255.632
L434.923 260.068
L435.37 263.029
L435.816 261.504
L436.262 256.168
L436.709 252.711
L437.155 258.239
L437.602 244.58
L438.048 250.322
L438.494 259.541
L438.941 259.771
L439.387 260.659
L439.834 262.127
L440.28 258.663
L440.726 257.199
L441.173 257.868
L441.619 262.871
L442.066 258.425
L442.512 250.937
L442.958 254.797
L443.851 259.055
L444.298 259.011
L444.744 257.86
L445.19 251.126
L445.637 259.673
L446.083 259.622
L446.53 258.132
L446.976 259.619
L447.422 249.444
L447.869 254.365
L448.315 254.774
L448.762 261.994
L449.208 255.82
L449.654 259.398
L450.101 260.073
L450.547 247.896
L451.886 265.091
L452.333 261.311
L452.779 261.29
L453.672 257.747
L454.118 260.267
L454.565 257.833
L455.011 250.913
L455.458 228.7
L455.904 254.058
L456.35 261.827
L456.797 257.76
L457.243 257.497
L457.69 261.281
L458.136 258.288
L458.582 251.249
L459.029 252.758
L459.475 256.384
L459.922 253.166
L460.368 261.908
L460.814 260.599
L461.261 256.729
L461.707 251.816
L462.154 259.651
L462.6 254.492
L463.046 256.984
L463.493 260.751
L463.939 256.195
L464.386 261.466
L464.832 265.26
L465.278 253.562
L465.725 255.191
L466.618 250.594
L467.064 259.085
L467.51 260.67
L467.957 257.978
L468.403 253.957
L468.85 255.417
L469.296 262.897
L469.742 262.418
L470.189 261.35
L470.635 258.919
L471.082 250.992
L471.528 259.239
L471.974 253.564
L472.421 255.324
L472.867 260.401
L473.314 258.163
L473.76 254.214
L474.206 254.728
L474.653 259.923
L475.099 256.279
L475.546 262.708
L476.438 250.609
L476.885 250.853
L477.331 261.286
L477.778 265.121
L478.224 259.343
L478.67 263.239
L479.117 259.664
L479.563 249.275
L480.01 261.406
L480.456 260.17
L480.902 257.612
L481.349 252.851
L481.795 256.186
L482.242 261.842
L482.688 264.662
L483.134 259.526
L483.581 256.333
L484.027 223.91
L484.474 247.455
L484.92 252.69
L485.366 256.42
L485.813 253.094
L486.259 261.578
L486.706 252.087
L487.598 258.946
L488.045 259.844
L488.491 247.722
L488.938 256.644
L489.384 261.055
L489.83 256.4
L490.277 254.64
L491.17 260.442
L491.616 255.884
L492.062 263.859
L492.509 257.629
L492.955 253.16
L493.402 222.773
L493.848 254.525
L494.294 258.106
L494.741 259.91
L495.187 264.331
L495.634 258.839
L496.08 257.987
L496.526 259.267
L496.973 261.821
L497.419 256.871
L497.866 253.591
L498.312 255.438
L498.758 264.848
L499.205 259.722
L499.651 261.401
L500.098 257.954
L500.544 260.067
L500.99 259.045
L501.437 254.118
L501.883 256.322
L502.33 262.26
L502.776 263.228
L503.222 259.697
L503.669 255.172
L504.115 259.167
L504.562 257.335
L505.008 260.371
L505.454 259.78
L505.901 251.218
L506.347 253.96
L506.794 263.171
L507.24 264.73
L507.686 259.63
L508.133 256.308
L508.579 259.402
L509.026 249.508
L509.472 261.417
L510.365 257.889
L510.811 259.722
L511.258 257.296
L511.704 261.272
L512.15 262.178
L512.597 223.563
L513.043 256.011
L513.49 259.866
L513.936 258.922
L514.382 258.673
L514.829 256.589
L515.275 259.57
L515.722 256.388
L516.168 261.911
L516.614 255.757
L517.061 259.928
L517.507 259.695
L517.954 252.959
L517.954 252.959" style="fill:none;opacity:0.5;stroke:#0000ff;"/>
   </g>
   <g id="matplotlib.axis_1">
    <g id="xtick_1">
     <g id="line2d_4">
      <path clip-path="url(#p7ff5b81e1d)" d="
M72 388.8
L72 43.2" style="fill:none;stroke:#000000;stroke-dasharray:1.000000,3.000000;stroke-dashoffset:0.0;stroke-linecap:butt;stroke-width:0.5;"/>
     </g>
     <g id="line2d_5">
      <defs>
       <path d="
M0 0
L0 -4" id="m0012dd4eef" style="stroke:#000000;stroke-linecap:butt;stroke-width:0.5;"/>
      </defs>
      <g>
       <use style="stroke:#000000;stroke-linecap:butt;stroke-width:0.5;" x="72.0" xlink:href="#m0012dd4eef" y="388.8"/>
      </g>
     </g>
     <g id="line2d_6">
      <defs>
       <path d="
M0 0
L0 4" id="m476344969c" style="stroke:#000000;stroke-linecap:butt;stroke-width:0.5;"/>
      </defs>
      <g>
       <use style="stroke:#000000;stroke-linecap:butt;stroke-width:0.5;" x="72.0" xlink:href="#m476344969c" y="43.2"/>
      </g>
     </g>
     <g id="text_1">
      <!-- 0 -->
      <defs>
       <path d="
M31.7812 66.4062
Q24.1719 66.4062 20.3281 58.9062
Q16.5 51.4219 16.5 36.375
Q16.5 21.3906 20.3281 13.8906
Q24.1719 6.39062 31.7812 6.39062
Q39.4531 6.39062 43.2812 13.8906
Q47.125 21.3906 47.125 36.375
Q47.125 51.4219 43.2812 58.9062
Q39.4531 66.4062 31.7812 66.4062
M31.7812 74.2188
Q44.0469 74.2188 50.5156 64.5156
Q56.9844 54.8281 56.9844 36.375
Q56.9844 17.9688 50.5156 8.26562
Q44.0469 -1.42188 31.7812 -1.42188
Q19.5312 -1.42188 13.0625 8.26562
Q6.59375 17.9688 6.59375 36.375
Q6.59375 54.8281 13.0625 64.5156
Q19.5312 74.2188 31.7812 74.2188" id="BitstreamVeraSans-Roman-30"/>
      </defs>
      <g transform="translate(68.9765625 401.70625)scale(0.12 -0.12)">
       <use xlink:href="#BitstreamVeraSans-Roman-30"/>
      </g>
     </g>
    </g>
    <g id="xtick_2">
     <g id="line2d_7">
      <path clip-path="url(#p7ff5b81e1d)" d="
M116.64 388.8
L116.64 43.2" style="fill:none;stroke:#000000;stroke-dasharray:1.000000,3.000000;stroke-dashoffset:0.0;stroke-linecap:butt;stroke-width:0.5;"/>
     </g>
     <g id="line2d_8">
      <g>
       <use style="stroke:#000000;stroke-linecap:butt;stroke-width:0.5;" x="116.64" xlink:href="#m0012dd4eef" y="388.8"/>
      </g>
     </g>
     <g id="line2d_9">
      <g>
       <use style="stroke:#000000;stroke-linecap:butt;stroke-width:0.5;" x="116.64" xlink:href="#m476344969c" y="43.2"/>
      </g>
     </g>
     <g id="text_2">
      <!-- 100 -->
      <defs>
       <path d="
M12.4062 8.29688
L28.5156 8.29688
L28.5156 63.9219
L10.9844 60.4062
L10.9844 69.3906
L28.4219 72.9062
L38.2812 72.9062
L38.2812 8.29688
L54.3906 8.29688
L54.3906 0
L12.4062 0
z
" id="BitstreamVeraSans-Roman-31"/>
      </defs>
      <g transform="translate(106.245 401.70625)scale(0.12 -0.12)">
       <use xlink:href="#BitstreamVeraSans-Roman-31"/>
       <use x="63.623046875" xlink:href="#BitstreamVeraSans-Roman-30"/>
       <use x="127.24609375" xlink:href="#BitstreamVeraSans-Roman-30"/>
      </g>
     </g>
    </g>
    <g id="xtick_3">
     <g id="line2d_10">
      <path clip-path="url(#p7ff5b81e1d)" d="
M161.28 388.8
L161.28 43.2" style="fill:none;stroke:#000000;stroke-dasharray:1.000000,3.000000;stroke-dashoffset:0.0;stroke-linecap:butt;stroke-width:0.5;"/>
     </g>
     <g id="line2d_11">
      <g>
       <use style="stroke:#000000;stroke-linecap:butt;stroke-width:0.5;" x="161.28" xlink:href="#m0012dd4eef" y="388.8"/>
      </g>
     </g>
     <g id="line2d_12">
      <g>
       <use style="stroke:#000000;stroke-linecap:butt;stroke-width:0.5;" x="161.28" xlink:href="#m476344969c" y="43.2"/>
      </g>
     </g>
     <g id="text_3">
      <!-- 200 -->
      <defs>
       <path d="
M19.1875 8.29688
L53.6094 8.29688
L53.6094 0
L7.32812 0
L7.32812 8.29688
Q12.9375 14.1094 22.625 23.8906
Q32.3281 33.6875 34.8125 36.5312
Q39.5469 41.8438 41.4219 45.5312
Q43.3125 49.2188 43.3125 52.7812
Q43.3125 58.5938 39.2344 62.25
Q35.1562 65.9219 28.6094 65.9219
Q23.9688 65.9219 18.8125 64.3125
Q13.6719 62.7031 7.8125 59.4219
L7.8125 69.3906
Q13.7656 71.7812 18.9375 73
Q24.125 74.2188 28.4219 74.2188
Q39.75 74.2188 46.4844 68.5469
Q53.2188 62.8906 53.2188 53.4219
Q53.2188 48.9219 51.5312 44.8906
Q49.8594 40.875 45.4062 35.4062
Q44.1875 33.9844 37.6406 27.2188
Q31.1094 20.4531 19.1875 8.29688" id="BitstreamVeraSans-Roman-32"/>
      </defs>
      <g transform="translate(150.665625 401.70625)scale(0.12 -0.12)">
       <use xlink:href="#BitstreamVeraSans-Roman-32"/>
       <use x="63.623046875" xlink:href="#BitstreamVeraSans-Roman-30"/>
       <use x="127.24609375" xlink:href="#BitstreamVeraSans-Roman-30"/>
      </g>
     </g>
    </g>
    <g id="xtick_4">
     <g id="line2d_13">
      <path clip-path="url(#p7ff5b81e1d)" d="
M205.92 388.8
L205.92 43.2" style="fill:none;stroke:#000000;stroke-dasharray:1.000000,3.000000;stroke-dashoffset:0.0;stroke-linecap:butt;stroke-width:0.5;"/>
     </g>
     <g id="line2d_14">
      <g>
       <use style="stroke:#000000;stroke-linecap:butt;stroke-width:0.5;" x="205.92" xlink:href="#m0012dd4eef" y="388.8"/>
      </g>
     </g>
     <g id="line2d_15">
      <g>
       <use style="stroke:#000000;stroke-linecap:butt;stroke-width:0.5;" x="205.92" xlink:href="#m476344969c" y="43.2"/>
      </g>
     </g>
     <g id="text_4">
      <!-- 300 -->
      <defs>
       <path d="
M40.5781 39.3125
Q47.6562 37.7969 51.625 33
Q55.6094 28.2188 55.6094 21.1875
Q55.6094 10.4062 48.1875 4.48438
Q40.7656 -1.42188 27.0938 -1.42188
Q22.5156 -1.42188 17.6562 -0.515625
Q12.7969 0.390625 7.625 2.20312
L7.625 11.7188
Q11.7188 9.32812 16.5938 8.10938
Q21.4844 6.89062 26.8125 6.89062
Q36.0781 6.89062 40.9375 10.5469
Q45.7969 14.2031 45.7969 21.1875
Q45.7969 27.6406 41.2812 31.2656
Q36.7656 34.9062 28.7188 34.9062
L20.2188 34.9062
L20.2188 43.0156
L29.1094 43.0156
Q36.375 43.0156 40.2344 45.9219
Q44.0938 48.8281 44.0938 54.2969
Q44.0938 59.9062 40.1094 62.9062
Q36.1406 65.9219 28.7188 65.9219
Q24.6562 65.9219 20.0156 65.0312
Q15.375 64.1562 9.8125 62.3125
L9.8125 71.0938
Q15.4375 72.6562 20.3438 73.4375
Q25.25 74.2188 29.5938 74.2188
Q40.8281 74.2188 47.3594 69.1094
Q53.9062 64.0156 53.9062 55.3281
Q53.9062 49.2656 50.4375 45.0938
Q46.9688 40.9219 40.5781 39.3125" id="BitstreamVeraSans-Roman-33"/>
      </defs>
      <g transform="translate(195.3234375 401.70625)scale(0.12 -0.12)">
       <use xlink:href="#BitstreamVeraSans-Roman-33"/>
       <use x="63.623046875" xlink:href="#BitstreamVeraSans-Roman-30"/>
       <use x="127.24609375" xlink:href="#BitstreamVeraSans-Roman-30"/>
      </g>
     </g>
    </g>
    <g id="xtick_5">
     <g id="line2d_16">
      <path clip-path="url(#p7ff5b81e1d)" d="
M250.56 388.8
L250.56 43.2" style="fill:none;stroke:#000000;stroke-dasharray:1.000000,3.000000;stroke-dashoffset:0.0;stroke-linecap:butt;stroke-width:0.5;"/>
     </g>
     <g id="line2d_17">
      <g>
       <use style="stroke:#000000;stroke-linecap:butt;stroke-width:0.5;" x="250.56" xlink:href="#m0012dd4eef" y="388.8"/>
      </g>
     </g>
     <g id="line2d_18">
      <g>
       <use style="stroke:#000000;stroke-linecap:butt;stroke-width:0.5;" x="250.56" xlink:href="#m476344969c" y="43.2"/>
      </g>
     </g>
     <g id="text_5">
      <!-- 400 -->
      <defs>
       <path d="
M37.7969 64.3125
L12.8906 25.3906
L37.7969 25.3906
z

M35.2031 72.9062
L47.6094 72.9062
L47.6094 25.3906
L58.0156 25.3906
L58.0156 17.1875
L47.6094 17.1875
L47.6094 0
L37.7969 0
L37.7969 17.1875
L4.89062 17.1875
L4.89062 26.7031
z
" id="BitstreamVeraSans-Roman-34"/>
      </defs>
      <g transform="translate(239.799375 401.70625)scale(0.12 -0.12)">
       <use xlink:href="#BitstreamVeraSans-Roman-34"/>
       <use x="63.623046875" xlink:href="#BitstreamVeraSans-Roman-30"/>
       <use x="127.24609375" xlink:href="#BitstreamVeraSans-Roman-30"/>
      </g>
     </g>
    </g>
    <g id="xtick_6">
     <g id="line2d_19">
      <path clip-path="url(#p7ff5b81e1d)" d="
M295.2 388.8
L295.2 43.2" style="fill:none;stroke:#000000;stroke-dasharray:1.000000,3.000000;stroke-dashoffset:0.0;stroke-linecap:butt;stroke-width:0.5;"/>
     </g>
     <g id="line2d_20">
      <g>
       <use style="stroke:#000000;stroke-linecap:butt;stroke-width:0.5;" x="295.2" xlink:href="#m0012dd4eef" y="388.8"/>
      </g>
     </g>
     <g id="line2d_21">
      <g>
       <use style="stroke:#000000;stroke-linecap:butt;stroke-width:0.5;" x="295.2" xlink:href="#m476344969c" y="43.2"/>
      </g>
     </g>
     <g id="text_6">
      <!-- 500 -->
      <defs>
       <path d="
M10.7969 72.9062
L49.5156 72.9062
L49.5156 64.5938
L19.8281 64.5938
L19.8281 46.7344
Q21.9688 47.4688 24.1094 47.8281
Q26.2656 48.1875 28.4219 48.1875
Q40.625 48.1875 47.75 41.5
Q54.8906 34.8125 54.8906 23.3906
Q54.8906 11.625 47.5625 5.09375
Q40.2344 -1.42188 26.9062 -1.42188
Q22.3125 -1.42188 17.5469 -0.640625
Q12.7969 0.140625 7.71875 1.70312
L7.71875 11.625
Q12.1094 9.23438 16.7969 8.0625
Q21.4844 6.89062 26.7031 6.89062
Q35.1562 6.89062 40.0781 11.3281
Q45.0156 15.7656 45.0156 23.3906
Q45.0156 31 40.0781 35.4375
Q35.1562 39.8906 26.7031 39.8906
Q22.75 39.8906 18.8125 39.0156
Q14.8906 38.1406 10.7969 36.2812
z
" id="BitstreamVeraSans-Roman-35"/>
      </defs>
      <g transform="translate(284.6090625 401.70625)scale(0.12 -0.12)">
       <use xlink:href="#BitstreamVeraSans-Roman-35"/>
       <use x="63.623046875" xlink:href="#BitstreamVeraSans-Roman-30"/>
       <use x="127.24609375" xlink:href="#BitstreamVeraSans-Roman-30"/>
      </g>
     </g>
    </g>
    <g id="xtick_7">
     <g id="line2d_22">
      <path clip-path="url(#p7ff5b81e1d)" d="
M339.84 388.8
L339.84 43.2" style="fill:none;stroke:#000000;stroke-dasharray:1.000000,3.000000;stroke-dashoffset:0.0;stroke-linecap:butt;stroke-width:0.5;"/>
     </g>
     <g id="line2d_23">
      <g>
       <use style="stroke:#000000;stroke-linecap:butt;stroke-width:0.5;" x="339.84" xlink:href="#m0012dd4eef" y="388.8"/>
      </g>
     </g>
     <g id="line2d_24">
      <g>
       <use style="stroke:#000000;stroke-linecap:butt;stroke-width:0.5;" x="339.84" xlink:href="#m476344969c" y="43.2"/>
      </g>
     </g>
     <g id="text_7">
      <!-- 600 -->
      <defs>
       <path d="
M33.0156 40.375
Q26.375 40.375 22.4844 35.8281
Q18.6094 31.2969 18.6094 23.3906
Q18.6094 15.5312 22.4844 10.9531
Q26.375 6.39062 33.0156 6.39062
Q39.6562 6.39062 43.5312 10.9531
Q47.4062 15.5312 47.4062 23.3906
Q47.4062 31.2969 43.5312 35.8281
Q39.6562 40.375 33.0156 40.375
M52.5938 71.2969
L52.5938 62.3125
Q48.875 64.0625 45.0938 64.9844
Q41.3125 65.9219 37.5938 65.9219
Q27.8281 65.9219 22.6719 59.3281
Q17.5312 52.7344 16.7969 39.4062
Q19.6719 43.6562 24.0156 45.9219
Q28.375 48.1875 33.5938 48.1875
Q44.5781 48.1875 50.9531 41.5156
Q57.3281 34.8594 57.3281 23.3906
Q57.3281 12.1562 50.6875 5.35938
Q44.0469 -1.42188 33.0156 -1.42188
Q20.3594 -1.42188 13.6719 8.26562
Q6.98438 17.9688 6.98438 36.375
Q6.98438 53.6562 15.1875 63.9375
Q23.3906 74.2188 37.2031 74.2188
Q40.9219 74.2188 44.7031 73.4844
Q48.4844 72.75 52.5938 71.2969" id="BitstreamVeraSans-Roman-36"/>
      </defs>
      <g transform="translate(329.205 401.70625)scale(0.12 -0.12)">
       <use xlink:href="#BitstreamVeraSans-Roman-36"/>
       <use x="63.623046875" xlink:href="#BitstreamVeraSans-Roman-30"/>
       <use x="127.24609375" xlink:href="#BitstreamVeraSans-Roman-30"/>
      </g>
     </g>
    </g>
    <g id="xtick_8">
     <g id="line2d_25">
      <path clip-path="url(#p7ff5b81e1d)" d="
M384.48 388.8
L384.48 43.2" style="fill:none;stroke:#000000;stroke-dasharray:1.000000,3.000000;stroke-dashoffset:0.0;stroke-linecap:butt;stroke-width:0.5;"/>
     </g>
     <g id="line2d_26">
      <g>
       <use style="stroke:#000000;stroke-linecap:butt;stroke-width:0.5;" x="384.48" xlink:href="#m0012dd4eef" y="388.8"/>
      </g>
     </g>
     <g id="line2d_27">
      <g>
       <use style="stroke:#000000;stroke-linecap:butt;stroke-width:0.5;" x="384.48" xlink:href="#m476344969c" y="43.2"/>
      </g>
     </g>
     <g id="text_8">
      <!-- 700 -->
      <defs>
       <path d="
M8.20312 72.9062
L55.0781 72.9062
L55.0781 68.7031
L28.6094 0
L18.3125 0
L43.2188 64.5938
L8.20312 64.5938
z
" id="BitstreamVeraSans-Roman-37"/>
      </defs>
      <g transform="translate(373.918125 401.70625)scale(0.12 -0.12)">
       <use xlink:href="#BitstreamVeraSans-Roman-37"/>
       <use x="63.623046875" xlink:href="#BitstreamVeraSans-Roman-30"/>
       <use x="127.24609375" xlink:href="#BitstreamVeraSans-Roman-30"/>
      </g>
     </g>
    </g>
    <g id="xtick_9">
     <g id="line2d_28">
      <path clip-path="url(#p7ff5b81e1d)" d="
M429.12 388.8
L429.12 43.2" style="fill:none;stroke:#000000;stroke-dasharray:1.000000,3.000000;stroke-dashoffset:0.0;stroke-linecap:butt;stroke-width:0.5;"/>
     </g>
     <g id="line2d_29">
      <g>
       <use style="stroke:#000000;stroke-linecap:butt;stroke-width:0.5;" x="429.12" xlink:href="#m0012dd4eef" y="388.8"/>
      </g>
     </g>
     <g id="line2d_30">
      <g>
       <use style="stroke:#000000;stroke-linecap:butt;stroke-width:0.5;" x="429.12" xlink:href="#m476344969c" y="43.2"/>
      </g>
     </g>
     <g id="text_9">
      <!-- 800 -->
      <defs>
       <path d="
M31.7812 34.625
Q24.75 34.625 20.7188 30.8594
Q16.7031 27.0938 16.7031 20.5156
Q16.7031 13.9219 20.7188 10.1562
Q24.75 6.39062 31.7812 6.39062
Q38.8125 6.39062 42.8594 10.1719
Q46.9219 13.9688 46.9219 20.5156
Q46.9219 27.0938 42.8906 30.8594
Q38.875 34.625 31.7812 34.625
M21.9219 38.8125
Q15.5781 40.375 12.0312 44.7188
Q8.5 49.0781 8.5 55.3281
Q8.5 64.0625 14.7188 69.1406
Q20.9531 74.2188 31.7812 74.2188
Q42.6719 74.2188 48.875 69.1406
Q55.0781 64.0625 55.0781 55.3281
Q55.0781 49.0781 51.5312 44.7188
Q48 40.375 41.7031 38.8125
Q48.8281 37.1562 52.7969 32.3125
Q56.7812 27.4844 56.7812 20.5156
Q56.7812 9.90625 50.3125 4.23438
Q43.8438 -1.42188 31.7812 -1.42188
Q19.7344 -1.42188 13.25 4.23438
Q6.78125 9.90625 6.78125 20.5156
Q6.78125 27.4844 10.7812 32.3125
Q14.7969 37.1562 21.9219 38.8125
M18.3125 54.3906
Q18.3125 48.7344 21.8438 45.5625
Q25.3906 42.3906 31.7812 42.3906
Q38.1406 42.3906 41.7188 45.5625
Q45.3125 48.7344 45.3125 54.3906
Q45.3125 60.0625 41.7188 63.2344
Q38.1406 66.4062 31.7812 66.4062
Q25.3906 66.4062 21.8438 63.2344
Q18.3125 60.0625 18.3125 54.3906" id="BitstreamVeraSans-Roman-38"/>
      </defs>
      <g transform="translate(418.4728125 401.70625)scale(0.12 -0.12)">
       <use xlink:href="#BitstreamVeraSans-Roman-38"/>
       <use x="63.623046875" xlink:href="#BitstreamVeraSans-Roman-30"/>
       <use x="127.24609375" xlink:href="#BitstreamVeraSans-Roman-30"/>
      </g>
     </g>
    </g>
    <g id="xtick_10">
     <g id="line2d_31">
      <path clip-path="url(#p7ff5b81e1d)" d="
M473.76 388.8
L473.76 43.2" style="fill:none;stroke:#000000;stroke-dasharray:1.000000,3.000000;stroke-dashoffset:0.0;stroke-linecap:butt;stroke-width:0.5;"/>
     </g>
     <g id="line2d_32">
      <g>
       <use style="stroke:#000000;stroke-linecap:butt;stroke-width:0.5;" x="473.76" xlink:href="#m0012dd4eef" y="388.8"/>
      </g>
     </g>
     <g id="line2d_33">
      <g>
       <use style="stroke:#000000;stroke-linecap:butt;stroke-width:0.5;" x="473.76" xlink:href="#m476344969c" y="43.2"/>
      </g>
     </g>
     <g id="text_10">
      <!-- 900 -->
      <defs>
       <path d="
M10.9844 1.51562
L10.9844 10.5
Q14.7031 8.73438 18.5 7.8125
Q22.3125 6.89062 25.9844 6.89062
Q35.75 6.89062 40.8906 13.4531
Q46.0469 20.0156 46.7812 33.4062
Q43.9531 29.2031 39.5938 26.9531
Q35.25 24.7031 29.9844 24.7031
Q19.0469 24.7031 12.6719 31.3125
Q6.29688 37.9375 6.29688 49.4219
Q6.29688 60.6406 12.9375 67.4219
Q19.5781 74.2188 30.6094 74.2188
Q43.2656 74.2188 49.9219 64.5156
Q56.5938 54.8281 56.5938 36.375
Q56.5938 19.1406 48.4062 8.85938
Q40.2344 -1.42188 26.4219 -1.42188
Q22.7031 -1.42188 18.8906 -0.6875
Q15.0938 0.046875 10.9844 1.51562
M30.6094 32.4219
Q37.25 32.4219 41.125 36.9531
Q45.0156 41.5 45.0156 49.4219
Q45.0156 57.2812 41.125 61.8438
Q37.25 66.4062 30.6094 66.4062
Q23.9688 66.4062 20.0938 61.8438
Q16.2188 57.2812 16.2188 49.4219
Q16.2188 41.5 20.0938 36.9531
Q23.9688 32.4219 30.6094 32.4219" id="BitstreamVeraSans-Roman-39"/>
      </defs>
      <g transform="translate(463.08375 401.70625)scale(0.12 -0.12)">
       <use xlink:href="#BitstreamVeraSans-Roman-39"/>
       <use x="63.623046875" xlink:href="#BitstreamVeraSans-Roman-30"/>
       <use x="127.24609375" xlink:href="#BitstreamVeraSans-Roman-30"/>
      </g>
     </g>
    </g>
   </g>
   <g id="matplotlib.axis_2">
    <g id="ytick_1">
     <g id="line2d_34">
      <path clip-path="url(#p7ff5b81e1d)" d="
M72 388.8
L518.4 388.8" style="fill:none;stroke:#000000;stroke-dasharray:1.000000,3.000000;stroke-dashoffset:0.0;stroke-linecap:butt;stroke-width:0.5;"/>
     </g>
     <g id="line2d_35">
      <defs>
       <path d="
M0 0
L4 0" id="me8a85f7bf6" style="stroke:#000000;stroke-linecap:butt;stroke-width:0.5;"/>
      </defs>
      <g>
       <use style="stroke:#000000;stroke-linecap:butt;stroke-width:0.5;" x="72.0" xlink:href="#me8a85f7bf6" y="388.8"/>
      </g>
     </g>
     <g id="line2d_36">
      <defs>
       <path d="
M0 0
L-4 0" id="m1a32005dea" style="stroke:#000000;stroke-linecap:butt;stroke-width:0.5;"/>
      </defs>
      <g>
       <use style="stroke:#000000;stroke-linecap:butt;stroke-width:0.5;" x="518.4" xlink:href="#m1a32005dea" y="388.8"/>
      </g>
     </g>
     <g id="text_11">
      <!-- 0.00 -->
      <defs>
       <path d="
M10.6875 12.4062
L21 12.4062
L21 0
L10.6875 0
z
" id="BitstreamVeraSans-Roman-2e"/>
      </defs>
      <g transform="translate(42.869375 393.1678125)scale(0.12 -0.12)">
       <use xlink:href="#BitstreamVeraSans-Roman-30"/>
       <use x="63.623046875" xlink:href="#BitstreamVeraSans-Roman-2e"/>
       <use x="95.41015625" xlink:href="#BitstreamVeraSans-Roman-30"/>
       <use x="159.033203125" xlink:href="#BitstreamVeraSans-Roman-30"/>
      </g>
     </g>
    </g>
    <g id="ytick_2">
     <g id="line2d_37">
      <path clip-path="url(#p7ff5b81e1d)" d="
M72 354.24
L518.4 354.24" style="fill:none;stroke:#000000;stroke-dasharray:1.000000,3.000000;stroke-dashoffset:0.0;stroke-linecap:butt;stroke-width:0.5;"/>
     </g>
     <g id="line2d_38">
      <g>
       <use style="stroke:#000000;stroke-linecap:butt;stroke-width:0.5;" x="72.0" xlink:href="#me8a85f7bf6" y="354.24"/>
      </g>
     </g>
     <g id="line2d_39">
      <g>
       <use style="stroke:#000000;stroke-linecap:butt;stroke-width:0.5;" x="518.4" xlink:href="#m1a32005dea" y="354.24"/>
      </g>
     </g>
     <g id="text_12">
      <!-- 0.02 -->
      <g transform="translate(43.274375 358.6078125)scale(0.12 -0.12)">
       <use xlink:href="#BitstreamVeraSans-Roman-30"/>
       <use x="63.623046875" xlink:href="#BitstreamVeraSans-Roman-2e"/>
       <use x="95.41015625" xlink:href="#BitstreamVeraSans-Roman-30"/>
       <use x="159.033203125" xlink:href="#BitstreamVeraSans-Roman-32"/>
      </g>
     </g>
    </g>
    <g id="ytick_3">
     <g id="line2d_40">
      <path clip-path="url(#p7ff5b81e1d)" d="
M72 319.68
L518.4 319.68" style="fill:none;stroke:#000000;stroke-dasharray:1.000000,3.000000;stroke-dashoffset:0.0;stroke-linecap:butt;stroke-width:0.5;"/>
     </g>
     <g id="line2d_41">
      <g>
       <use style="stroke:#000000;stroke-linecap:butt;stroke-width:0.5;" x="72.0" xlink:href="#me8a85f7bf6" y="319.68"/>
      </g>
     </g>
     <g id="line2d_42">
      <g>
       <use style="stroke:#000000;stroke-linecap:butt;stroke-width:0.5;" x="518.4" xlink:href="#m1a32005dea" y="319.68"/>
      </g>
     </g>
     <g id="text_13">
      <!-- 0.04 -->
      <g transform="translate(42.745625 324.0478125)scale(0.12 -0.12)">
       <use xlink:href="#BitstreamVeraSans-Roman-30"/>
       <use x="63.623046875" xlink:href="#BitstreamVeraSans-Roman-2e"/>
       <use x="95.41015625" xlink:href="#BitstreamVeraSans-Roman-30"/>
       <use x="159.033203125" xlink:href="#BitstreamVeraSans-Roman-34"/>
      </g>
     </g>
    </g>
    <g id="ytick_4">
     <g id="line2d_43">
      <path clip-path="url(#p7ff5b81e1d)" d="
M72 285.12
L518.4 285.12" style="fill:none;stroke:#000000;stroke-dasharray:1.000000,3.000000;stroke-dashoffset:0.0;stroke-linecap:butt;stroke-width:0.5;"/>
     </g>
     <g id="line2d_44">
      <g>
       <use style="stroke:#000000;stroke-linecap:butt;stroke-width:0.5;" x="72.0" xlink:href="#me8a85f7bf6" y="285.12"/>
      </g>
     </g>
     <g id="line2d_45">
      <g>
       <use style="stroke:#000000;stroke-linecap:butt;stroke-width:0.5;" x="518.4" xlink:href="#m1a32005dea" y="285.12"/>
      </g>
     </g>
     <g id="text_14">
      <!-- 0.06 -->
      <g transform="translate(42.828125 289.4878125)scale(0.12 -0.12)">
       <use xlink:href="#BitstreamVeraSans-Roman-30"/>
       <use x="63.623046875" xlink:href="#BitstreamVeraSans-Roman-2e"/>
       <use x="95.41015625" xlink:href="#BitstreamVeraSans-Roman-30"/>
       <use x="159.033203125" xlink:href="#BitstreamVeraSans-Roman-36"/>
      </g>
     </g>
    </g>
    <g id="ytick_5">
     <g id="line2d_46">
      <path clip-path="url(#p7ff5b81e1d)" d="
M72 250.56
L518.4 250.56" style="fill:none;stroke:#000000;stroke-dasharray:1.000000,3.000000;stroke-dashoffset:0.0;stroke-linecap:butt;stroke-width:0.5;"/>
     </g>
     <g id="line2d_47">
      <g>
       <use style="stroke:#000000;stroke-linecap:butt;stroke-width:0.5;" x="72.0" xlink:href="#me8a85f7bf6" y="250.56"/>
      </g>
     </g>
     <g id="line2d_48">
      <g>
       <use style="stroke:#000000;stroke-linecap:butt;stroke-width:0.5;" x="518.4" xlink:href="#m1a32005dea" y="250.56"/>
      </g>
     </g>
     <g id="text_15">
      <!-- 0.08 -->
      <g transform="translate(42.89375 254.9278125)scale(0.12 -0.12)">
       <use xlink:href="#BitstreamVeraSans-Roman-30"/>
       <use x="63.623046875" xlink:href="#BitstreamVeraSans-Roman-2e"/>
       <use x="95.41015625" xlink:href="#BitstreamVeraSans-Roman-30"/>
       <use x="159.033203125" xlink:href="#BitstreamVeraSans-Roman-38"/>
      </g>
     </g>
    </g>
    <g id="ytick_6">
     <g id="line2d_49">
      <path clip-path="url(#p7ff5b81e1d)" d="
M72 216
L518.4 216" style="fill:none;stroke:#000000;stroke-dasharray:1.000000,3.000000;stroke-dashoffset:0.0;stroke-linecap:butt;stroke-width:0.5;"/>
     </g>
     <g id="line2d_50">
      <g>
       <use style="stroke:#000000;stroke-linecap:butt;stroke-width:0.5;" x="72.0" xlink:href="#me8a85f7bf6" y="216.0"/>
      </g>
     </g>
     <g id="line2d_51">
      <g>
       <use style="stroke:#000000;stroke-linecap:butt;stroke-width:0.5;" x="518.4" xlink:href="#m1a32005dea" y="216.0"/>
      </g>
     </g>
     <g id="text_16">
      <!-- 0.10 -->
      <g transform="translate(42.869375 220.3678125)scale(0.12 -0.12)">
       <use xlink:href="#BitstreamVeraSans-Roman-30"/>
       <use x="63.623046875" xlink:href="#BitstreamVeraSans-Roman-2e"/>
       <use x="95.41015625" xlink:href="#BitstreamVeraSans-Roman-31"/>
       <use x="159.033203125" xlink:href="#BitstreamVeraSans-Roman-30"/>
      </g>
     </g>
    </g>
    <g id="ytick_7">
     <g id="line2d_52">
      <path clip-path="url(#p7ff5b81e1d)" d="
M72 181.44
L518.4 181.44" style="fill:none;stroke:#000000;stroke-dasharray:1.000000,3.000000;stroke-dashoffset:0.0;stroke-linecap:butt;stroke-width:0.5;"/>
     </g>
     <g id="line2d_53">
      <g>
       <use style="stroke:#000000;stroke-linecap:butt;stroke-width:0.5;" x="72.0" xlink:href="#me8a85f7bf6" y="181.44"/>
      </g>
     </g>
     <g id="line2d_54">
      <g>
       <use style="stroke:#000000;stroke-linecap:butt;stroke-width:0.5;" x="518.4" xlink:href="#m1a32005dea" y="181.44"/>
      </g>
     </g>
     <g id="text_17">
      <!-- 0.12 -->
      <g transform="translate(43.274375 185.8078125)scale(0.12 -0.12)">
       <use xlink:href="#BitstreamVeraSans-Roman-30"/>
       <use x="63.623046875" xlink:href="#BitstreamVeraSans-Roman-2e"/>
       <use x="95.41015625" xlink:href="#BitstreamVeraSans-Roman-31"/>
       <use x="159.033203125" xlink:href="#BitstreamVeraSans-Roman-32"/>
      </g>
     </g>
    </g>
    <g id="ytick_8">
     <g id="line2d_55">
      <path clip-path="url(#p7ff5b81e1d)" d="
M72 146.88
L518.4 146.88" style="fill:none;stroke:#000000;stroke-dasharray:1.000000,3.000000;stroke-dashoffset:0.0;stroke-linecap:butt;stroke-width:0.5;"/>
     </g>
     <g id="line2d_56">
      <g>
       <use style="stroke:#000000;stroke-linecap:butt;stroke-width:0.5;" x="72.0" xlink:href="#me8a85f7bf6" y="146.88"/>
      </g>
     </g>
     <g id="line2d_57">
      <g>
       <use style="stroke:#000000;stroke-linecap:butt;stroke-width:0.5;" x="518.4" xlink:href="#m1a32005dea" y="146.88"/>
      </g>
     </g>
     <g id="text_18">
      <!-- 0.14 -->
      <g transform="translate(42.745625 151.2478125)scale(0.12 -0.12)">
       <use xlink:href="#BitstreamVeraSans-Roman-30"/>
       <use x="63.623046875" xlink:href="#BitstreamVeraSans-Roman-2e"/>
       <use x="95.41015625" xlink:href="#BitstreamVeraSans-Roman-31"/>
       <use x="159.033203125" xlink:href="#BitstreamVeraSans-Roman-34"/>
      </g>
     </g>
    </g>
    <g id="ytick_9">
     <g id="line2d_58">
      <path clip-path="url(#p7ff5b81e1d)" d="
M72 112.32
L518.4 112.32" style="fill:none;stroke:#000000;stroke-dasharray:1.000000,3.000000;stroke-dashoffset:0.0;stroke-linecap:butt;stroke-width:0.5;"/>
     </g>
     <g id="line2d_59">
      <g>
       <use style="stroke:#000000;stroke-linecap:butt;stroke-width:0.5;" x="72.0" xlink:href="#me8a85f7bf6" y="112.32"/>
      </g>
     </g>
     <g id="line2d_60">
      <g>
       <use style="stroke:#000000;stroke-linecap:butt;stroke-width:0.5;" x="518.4" xlink:href="#m1a32005dea" y="112.32"/>
      </g>
     </g>
     <g id="text_19">
      <!-- 0.16 -->
      <g transform="translate(42.828125 116.6878125)scale(0.12 -0.12)">
       <use xlink:href="#BitstreamVeraSans-Roman-30"/>
       <use x="63.623046875" xlink:href="#BitstreamVeraSans-Roman-2e"/>
       <use x="95.41015625" xlink:href="#BitstreamVeraSans-Roman-31"/>
       <use x="159.033203125" xlink:href="#BitstreamVeraSans-Roman-36"/>
      </g>
     </g>
    </g>
    <g id="ytick_10">
     <g id="line2d_61">
      <path clip-path="url(#p7ff5b81e1d)" d="
M72 77.76
L518.4 77.76" style="fill:none;stroke:#000000;stroke-dasharray:1.000000,3.000000;stroke-dashoffset:0.0;stroke-linecap:butt;stroke-width:0.5;"/>
     </g>
     <g id="line2d_62">
      <g>
       <use style="stroke:#000000;stroke-linecap:butt;stroke-width:0.5;" x="72.0" xlink:href="#me8a85f7bf6" y="77.76"/>
      </g>
     </g>
     <g id="line2d_63">
      <g>
       <use style="stroke:#000000;stroke-linecap:butt;stroke-width:0.5;" x="518.4" xlink:href="#m1a32005dea" y="77.76"/>
      </g>
     </g>
     <g id="text_20">
      <!-- 0.18 -->
      <g transform="translate(42.89375 82.1278125)scale(0.12 -0.12)">
       <use xlink:href="#BitstreamVeraSans-Roman-30"/>
       <use x="63.623046875" xlink:href="#BitstreamVeraSans-Roman-2e"/>
       <use x="95.41015625" xlink:href="#BitstreamVeraSans-Roman-31"/>
       <use x="159.033203125" xlink:href="#BitstreamVeraSans-Roman-38"/>
      </g>
     </g>
    </g>
    <g id="text_21">
     <!-- Sec/file -->
     <defs>
      <path d="
M9.42188 75.9844
L18.4062 75.9844
L18.4062 0
L9.42188 0
z
" id="BitstreamVeraSans-Roman-6c"/>
      <path d="
M53.5156 70.5156
L53.5156 60.8906
Q47.9062 63.5781 42.9219 64.8906
Q37.9375 66.2188 33.2969 66.2188
Q25.25 66.2188 20.875 63.0938
Q16.5 59.9688 16.5 54.2031
Q16.5 49.3594 19.4062 46.8906
Q22.3125 44.4375 30.4219 42.9219
L36.375 41.7031
Q47.4062 39.5938 52.6562 34.2969
Q57.9062 29 57.9062 20.125
Q57.9062 9.51562 50.7969 4.04688
Q43.7031 -1.42188 29.9844 -1.42188
Q24.8125 -1.42188 18.9688 -0.25
Q13.1406 0.921875 6.89062 3.21875
L6.89062 13.375
Q12.8906 10.0156 18.6562 8.29688
Q24.4219 6.59375 29.9844 6.59375
Q38.4219 6.59375 43.0156 9.90625
Q47.6094 13.2344 47.6094 19.3906
Q47.6094 24.75 44.3125 27.7812
Q41.0156 30.8125 33.5 32.3281
L27.4844 33.5
Q16.4531 35.6875 11.5156 40.375
Q6.59375 45.0625 6.59375 53.4219
Q6.59375 63.0938 13.4062 68.6562
Q20.2188 74.2188 32.1719 74.2188
Q37.3125 74.2188 42.625 73.2812
Q47.9531 72.3594 53.5156 70.5156" id="BitstreamVeraSans-Roman-53"/>
      <path d="
M9.42188 54.6875
L18.4062 54.6875
L18.4062 0
L9.42188 0
z

M9.42188 75.9844
L18.4062 75.9844
L18.4062 64.5938
L9.42188 64.5938
z
" id="BitstreamVeraSans-Roman-69"/>
      <path d="
M25.3906 72.9062
L33.6875 72.9062
L8.29688 -9.28125
L0 -9.28125
z
" id="BitstreamVeraSans-Roman-2f"/>
      <path d="
M56.2031 29.5938
L56.2031 25.2031
L14.8906 25.2031
Q15.4844 15.9219 20.4844 11.0625
Q25.4844 6.20312 34.4219 6.20312
Q39.5938 6.20312 44.4531 7.46875
Q49.3125 8.73438 54.1094 11.2812
L54.1094 2.78125
Q49.2656 0.734375 44.1875 -0.34375
Q39.1094 -1.42188 33.8906 -1.42188
Q20.7969 -1.42188 13.1562 6.1875
Q5.51562 13.8125 5.51562 26.8125
Q5.51562 40.2344 12.7656 48.1094
Q20.0156 56 32.3281 56
Q43.3594 56 49.7812 48.8906
Q56.2031 41.7969 56.2031 29.5938
M47.2188 32.2344
Q47.125 39.5938 43.0938 43.9844
Q39.0625 48.3906 32.4219 48.3906
Q24.9062 48.3906 20.3906 44.1406
Q15.875 39.8906 15.1875 32.1719
z
" id="BitstreamVeraSans-Roman-65"/>
      <path d="
M37.1094 75.9844
L37.1094 68.5
L28.5156 68.5
Q23.6875 68.5 21.7969 66.5469
Q19.9219 64.5938 19.9219 59.5156
L19.9219 54.6875
L34.7188 54.6875
L34.7188 47.7031
L19.9219 47.7031
L19.9219 0
L10.8906 0
L10.8906 47.7031
L2.29688 47.7031
L2.29688 54.6875
L10.8906 54.6875
L10.8906 58.5
Q10.8906 67.625 15.1406 71.7969
Q19.3906 75.9844 28.6094 75.9844
z
" id="BitstreamVeraSans-Roman-66"/>
      <path d="
M48.7812 52.5938
L48.7812 44.1875
Q44.9688 46.2969 41.1406 47.3438
Q37.3125 48.3906 33.4062 48.3906
Q24.6562 48.3906 19.8125 42.8438
Q14.9844 37.3125 14.9844 27.2969
Q14.9844 17.2812 19.8125 11.7344
Q24.6562 6.20312 33.4062 6.20312
Q37.3125 6.20312 41.1406 7.25
Q44.9688 8.29688 48.7812 10.4062
L48.7812 2.09375
Q45.0156 0.34375 40.9844 -0.53125
Q36.9688 -1.42188 32.4219 -1.42188
Q20.0625 -1.42188 12.7812 6.34375
Q5.51562 14.1094 5.51562 27.2969
Q5.51562 40.6719 12.8594 48.3281
Q20.2188 56 33.0156 56
Q37.1562 56 41.1094 55.1406
Q45.0625 54.2969 48.7812 52.5938" id="BitstreamVeraSans-Roman-63"/>
     </defs>
     <g transform="translate(37.745625 236.13)rotate(-90.0)scale(0.12 -0.12)">
      <use xlink:href="#BitstreamVeraSans-Roman-53"/>
      <use x="63.4765625" xlink:href="#BitstreamVeraSans-Roman-65"/>
      <use x="125.0" xlink:href="#BitstreamVeraSans-Roman-63"/>
      <use x="179.98046875" xlink:href="#BitstreamVeraSans-Roman-2f"/>
      <use x="213.671875" xlink:href="#BitstreamVeraSans-Roman-66"/>
      <use x="248.876953125" xlink:href="#BitstreamVeraSans-Roman-69"/>
      <use x="276.66015625" xlink:href="#BitstreamVeraSans-Roman-6c"/>
      <use x="304.443359375" xlink:href="#BitstreamVeraSans-Roman-65"/>
     </g>
    </g>
   </g>
   <g id="patch_3">
    <path d="
M72 43.2
L518.4 43.2" style="fill:none;stroke:#000000;"/>
   </g>
   <g id="patch_4">
    <path d="
M518.4 388.8
L518.4 43.2" style="fill:none;stroke:#000000;"/>
   </g>
   <g id="patch_5">
    <path d="
M72 388.8
L518.4 388.8" style="fill:none;stroke:#000000;"/>
   </g>
   <g id="patch_6">
    <path d="
M72 388.8
L72 43.2" style="fill:none;stroke:#000000;"/>
   </g>
   <g id="text_22">
    <!-- Rand -->
    <defs>
     <path d="
M54.8906 33.0156
L54.8906 0
L45.9062 0
L45.9062 32.7188
Q45.9062 40.4844 42.875 44.3281
Q39.8438 48.1875 33.7969 48.1875
Q26.5156 48.1875 22.3125 43.5469
Q18.1094 38.9219 18.1094 30.9062
L18.1094 0
L9.07812 0
L9.07812 54.6875
L18.1094 54.6875
L18.1094 46.1875
Q21.3438 51.125 25.7031 53.5625
Q30.0781 56 35.7969 56
Q45.2188 56 50.0469 50.1719
Q54.8906 44.3438 54.8906 33.0156" id="BitstreamVeraSans-Roman-6e"/>
     <path d="
M45.4062 46.3906
L45.4062 75.9844
L54.3906 75.9844
L54.3906 0
L45.4062 0
L45.4062 8.20312
Q42.5781 3.32812 38.25 0.953125
Q33.9375 -1.42188 27.875 -1.42188
Q17.9688 -1.42188 11.7344 6.48438
Q5.51562 14.4062 5.51562 27.2969
Q5.51562 40.1875 11.7344 48.0938
Q17.9688 56 27.875 56
Q33.9375 56 38.25 53.625
Q42.5781 51.2656 45.4062 46.3906
M14.7969 27.2969
Q14.7969 17.3906 18.875 11.75
Q22.9531 6.10938 30.0781 6.10938
Q37.2031 6.10938 41.2969 11.75
Q45.4062 17.3906 45.4062 27.2969
Q45.4062 37.2031 41.2969 42.8438
Q37.2031 48.4844 30.0781 48.4844
Q22.9531 48.4844 18.875 42.8438
Q14.7969 37.2031 14.7969 27.2969" id="BitstreamVeraSans-Roman-64"/>
     <path d="
M44.3906 34.1875
Q47.5625 33.1094 50.5625 29.5938
Q53.5625 26.0781 56.5938 19.9219
L66.6094 0
L56 0
L46.6875 18.7031
Q43.0625 26.0312 39.6719 28.4219
Q36.2812 30.8125 30.4219 30.8125
L19.6719 30.8125
L19.6719 0
L9.8125 0
L9.8125 72.9062
L32.0781 72.9062
Q44.5781 72.9062 50.7344 67.6719
Q56.8906 62.4531 56.8906 51.9062
Q56.8906 45.0156 53.6875 40.4688
Q50.4844 35.9375 44.3906 34.1875
M19.6719 64.7969
L19.6719 38.9219
L32.0781 38.9219
Q39.2031 38.9219 42.8438 42.2188
Q46.4844 45.5156 46.4844 51.9062
Q46.4844 58.2969 42.8438 61.5469
Q39.2031 64.7969 32.0781 64.7969
z
" id="BitstreamVeraSans-Roman-52"/>
     <path d="
M34.2812 27.4844
Q23.3906 27.4844 19.1875 25
Q14.9844 22.5156 14.9844 16.5
Q14.9844 11.7188 18.1406 8.90625
Q21.2969 6.10938 26.7031 6.10938
Q34.1875 6.10938 38.7031 11.4062
Q43.2188 16.7031 43.2188 25.4844
L43.2188 27.4844
z

M52.2031 31.2031
L52.2031 0
L43.2188 0
L43.2188 8.29688
Q40.1406 3.32812 35.5469 0.953125
Q30.9531 -1.42188 24.3125 -1.42188
Q15.9219 -1.42188 10.9531 3.29688
Q6 8.01562 6 15.9219
Q6 25.1406 12.1719 29.8281
Q18.3594 34.5156 30.6094 34.5156
L43.2188 34.5156
L43.2188 35.4062
Q43.2188 41.6094 39.1406 45
Q35.0625 48.3906 27.6875 48.3906
Q23 48.3906 18.5469 47.2656
Q14.1094 46.1406 10.0156 43.8906
L10.0156 52.2031
Q14.9375 54.1094 19.5781 55.0469
Q24.2188 56 28.6094 56
Q40.4844 56 46.3438 49.8438
Q52.2031 43.7031 52.2031 31.2031" id="BitstreamVeraSans-Roman-61"/>
    </defs>
    <g transform="translate(278.17425 38.2)scale(0.144 -0.144)">
     <use xlink:href="#BitstreamVeraSans-Roman-52"/>
     <use x="67.232421875" xlink:href="#BitstreamVeraSans-Roman-61"/>
     <use x="128.51171875" xlink:href="#BitstreamVeraSans-Roman-6e"/>
     <use x="191.890625" xlink:href="#BitstreamVeraSans-Roman-64"/>
    </g>
   </g>
   <g id="legend_1">
    <g id="patch_7">
     <path d="
M429.055 115.339
L511.2 115.339
L511.2 50.4
L429.055 50.4
L429.055 115.339
z
" style="fill:#ffffff;stroke:#000000;"/>
    </g>
    <g id="line2d_64">
     <path d="
M439.135 62.0617
L459.295 62.0617" style="fill:none;stroke:#ff0000;"/>
    </g>
    <g id="line2d_65"/>
    <g id="text_23">
     <!-- LRU -->
     <defs>
      <path d="
M9.8125 72.9062
L19.6719 72.9062
L19.6719 8.29688
L55.1719 8.29688
L55.1719 0
L9.8125 0
z
" id="BitstreamVeraSans-Roman-4c"/>
      <path d="
M8.6875 72.9062
L18.6094 72.9062
L18.6094 28.6094
Q18.6094 16.8906 22.8438 11.7344
Q27.0938 6.59375 36.625 6.59375
Q46.0938 6.59375 50.3438 11.7344
Q54.5938 16.8906 54.5938 28.6094
L54.5938 72.9062
L64.5 72.9062
L64.5 27.3906
Q64.5 13.1406 57.4375 5.85938
Q50.3906 -1.42188 36.625 -1.42188
Q22.7969 -1.42188 15.7344 5.85938
Q8.6875 13.1406 8.6875 27.3906
z
" id="BitstreamVeraSans-Roman-55"/>
     </defs>
     <g transform="translate(475.13475 67.10175)scale(0.144 -0.144)">
      <use xlink:href="#BitstreamVeraSans-Roman-4c"/>
      <use x="55.712890625" xlink:href="#BitstreamVeraSans-Roman-52"/>
      <use x="125.1953125" xlink:href="#BitstreamVeraSans-Roman-55"/>
     </g>
    </g>
    <g id="line2d_66">
     <path d="
M439.135 83.1983
L459.295 83.1983" style="fill:none;opacity:0.7;stroke:#008000;"/>
    </g>
    <g id="line2d_67"/>
    <g id="text_24">
     <!-- MRU -->
     <defs>
      <path d="
M9.8125 72.9062
L24.5156 72.9062
L43.1094 23.2969
L61.8125 72.9062
L76.5156 72.9062
L76.5156 0
L66.8906 0
L66.8906 64.0156
L48.0938 14.0156
L38.1875 14.0156
L19.3906 64.0156
L19.3906 0
L9.8125 0
z
" id="BitstreamVeraSans-Roman-4d"/>
     </defs>
     <g transform="translate(475.13475 88.23825)scale(0.144 -0.144)">
      <use xlink:href="#BitstreamVeraSans-Roman-4d"/>
      <use x="86.279296875" xlink:href="#BitstreamVeraSans-Roman-52"/>
      <use x="155.76171875" xlink:href="#BitstreamVeraSans-Roman-55"/>
     </g>
    </g>
    <g id="line2d_68">
     <path d="
M439.135 104.335
L459.295 104.335" style="fill:none;opacity:0.5;stroke:#0000ff;"/>
    </g>
    <g id="line2d_69"/>
    <g id="text_25">
     <!-- FIFO -->
     <defs>
      <path d="
M9.8125 72.9062
L51.7031 72.9062
L51.7031 64.5938
L19.6719 64.5938
L19.6719 43.1094
L48.5781 43.1094
L48.5781 34.8125
L19.6719 34.8125
L19.6719 0
L9.8125 0
z
" id="BitstreamVeraSans-Roman-46"/>
      <path d="
M9.8125 72.9062
L19.6719 72.9062
L19.6719 0
L9.8125 0
z
" id="BitstreamVeraSans-Roman-49"/>
      <path d="
M39.4062 66.2188
Q28.6562 66.2188 22.3281 58.2031
Q16.0156 50.2031 16.0156 36.375
Q16.0156 22.6094 22.3281 14.5938
Q28.6562 6.59375 39.4062 6.59375
Q50.1406 6.59375 56.4219 14.5938
Q62.7031 22.6094 62.7031 36.375
Q62.7031 50.2031 56.4219 58.2031
Q50.1406 66.2188 39.4062 66.2188
M39.4062 74.2188
Q54.7344 74.2188 63.9062 63.9375
Q73.0938 53.6562 73.0938 36.375
Q73.0938 19.1406 63.9062 8.85938
Q54.7344 -1.42188 39.4062 -1.42188
Q24.0312 -1.42188 14.8125 8.82812
Q5.60938 19.0938 5.60938 36.375
Q5.60938 53.6562 14.8125 63.9375
Q24.0312 74.2188 39.4062 74.2188" id="BitstreamVeraSans-Roman-4f"/>
     </defs>
     <g transform="translate(475.13475 109.37475)scale(0.144 -0.144)">
      <use xlink:href="#BitstreamVeraSans-Roman-46"/>
      <use x="57.51953125" xlink:href="#BitstreamVeraSans-Roman-49"/>
      <use x="87.01171875" xlink:href="#BitstreamVeraSans-Roman-46"/>
      <use x="144.53125" xlink:href="#BitstreamVeraSans-Roman-4f"/>
     </g>
    </g>
   </g>
  </g>
 </g>
 <defs>
  <clipPath id="p7ff5b81e1d">
   <rect height="345.6" width="446.4" x="72.0" y="43.2"/>
  </clipPath>
 </defs>
</svg>
