<?xml version="1.0" encoding="utf-8" standalone="no"?>
<!DOCTYPE svg PUBLIC "-//W3C//DTD SVG 1.1//EN"
  "http://www.w3.org/Graphics/SVG/1.1/DTD/svg11.dtd">
<!-- Created with matplotlib (http://matplotlib.sourceforge.net/) -->
<svg height="432pt" version="1.1" viewBox="0 0 576 432" width="576pt" xmlns="http://www.w3.org/2000/svg" xmlns:xlink="http://www.w3.org/1999/xlink">
 <defs>
  <style type="text/css">
*{stroke-linecap:square;stroke-linejoin:round;}
  </style>
 </defs>
 <g id="figure_1">
  <g id="patch_1">
   <path d="
M0 432
L576 432
L576 0
L0 0
z
" style="fill:#ffffff;"/>
  </g>
  <g id="axes_1">
   <g id="patch_2">
    <path d="
M72 388.8
L518.4 388.8
L518.4 43.2
L72 43.2
z
" style="fill:#ffffff;"/>
   </g>
   <g id="line2d_1">
    <path clip-path="url(#p7ff5b81e1d)" d="
M72.3979 -1
L72.4464 195.003
L72.8928 150.888
L73.3392 181.32
L73.7856 251.313
L74.6784 267.253
L75.1248 268.641
L75.5712 250.071
L76.0176 264.402
L76.464 306.122
L76.9104 252.857
L77.3568 258.595
L77.8032 252.022
L78.2496 253.652
L78.696 306.194
L79.1424 259.796
L79.5888 249.844
L80.0352 259.534
L80.4816 252.229
L80.928 302.675
L81.3744 310.131
L81.8208 272.414
L82.2672 251.356
L82.7136 223.976
L83.16 343.27
L83.6064 208.089
L84.0528 222.274
L84.4992 227.11
L84.9456 233.496
L85.392 286.042
L85.8384 322.17
L86.2848 305.55
L86.7312 303.395
L87.1776 315.37
L87.624 307.132
L88.0704 263.366
L88.5168 251.976
L88.9632 260.684
L89.4096 323.254
L89.856 317.701
L90.3024 303.143
L90.7488 241.206
L91.1952 267.827
L91.6416 313.139
L92.088 277.691
L92.5344 305.754
L92.9808 220.094
L93.4272 221.852
L93.8736 307.873
L94.32 230.362
L94.7664 260.611
L95.2128 298.565
L95.6592 318.649
L96.552 276.386
L96.9984 300.888
L97.4448 255.748
L97.8912 299.968
L98.3376 309.226
L98.784 253.987
L99.2304 310.143
L99.6768 296.228
L100.123 266.412
L100.57 159.629
L101.016 257.723
L101.462 304.843
L101.909 307.037
L102.355 247.569
L102.802 286.907
L103.248 314.281
L103.694 310.637
L104.141 305.493
L104.587 310.37
L105.034 291.256
L105.48 310.624
L105.926 235.833
L106.373 308.08
L106.819 205.153
L107.266 310.013
L107.712 304.924
L108.158 315.703
L108.605 306.702
L109.051 312.48
L109.498 305.92
L109.944 320.901
L110.39 307.91
L110.837 317.156
L111.283 295.362
L111.73 317.279
L112.176 309.803
L112.622 311.017
L113.069 317.81
L113.515 310.933
L113.962 309.517
L114.408 302.366
L114.854 260.873
L115.301 311.518
L115.747 297.436
L116.194 306.301
L116.64 305.509
L117.086 308.656
L117.533 310.723
L117.979 320.578
L118.426 310.37
L118.872 234.372
L119.318 267.914
L119.765 313.829
L120.211 280.36
L120.658 300.373
L121.104 291.303
L121.55 309.898
L121.997 309.358
L122.443 306.484
L122.89 312.621
L123.336 314.108
L123.782 306.247
L124.229 308.962
L124.675 300.178
L125.122 317.176
L125.568 297.556
L126.014 317.559
L126.461 316.264
L126.907 296.655
L127.354 318.4
L127.8 308.163
L128.246 308.69
L128.693 306.334
L129.139 308.809
L129.586 308.733
L130.032 326.399
L130.478 310.628
L130.925 278.273
L131.371 315.375
L131.818 226.476
L132.264 306.617
L132.71 258.065
L133.157 287.671
L133.603 308.461
L134.05 303.274
L134.496 317.455
L134.942 310.866
L135.389 310.635
L135.835 309.018
L136.282 236.348
L136.728 321.934
L137.621 310.413
L138.067 308.943
L138.514 309.802
L138.96 256.425
L139.406 273.317
L139.853 303.497
L140.299 307.342
L140.746 297.975
L141.192 318.065
L141.638 300.942
L142.085 317.993
L142.531 310.646
L142.978 306.16
L143.424 308.583
L143.87 314.322
L144.317 295.336
L144.763 321.424
L145.21 305.564
L145.656 310.181
L146.102 306.742
L146.549 313.426
L146.995 306.463
L147.442 312.896
L147.888 307.558
L148.334 312.289
L148.781 306.163
L149.227 311.137
L149.674 310.411
L150.12 305.301
L150.566 288.171
L151.013 306.052
L151.459 304.07
L152.352 310.084
L152.798 304.829
L153.691 316.91
L154.138 307.327
L154.584 280.218
L155.03 314.889
L155.477 306.12
L155.923 311.368
L156.37 312.341
L156.816 307.54
L157.262 314.064
L157.709 306.304
L158.155 309.294
L158.602 313.931
L159.048 307.335
L159.494 311.275
L159.941 321.068
L160.387 307.476
L160.834 303.655
L161.28 310.571
L161.726 313.282
L162.173 294.691
L162.619 322.365
L163.066 309.525
L163.512 309.156
L163.958 293.754
L164.405 323.794
L164.851 309.594
L165.298 306.329
L165.744 322.445
L166.19 313.188
L166.637 309.295
L167.083 309.768
L167.53 300.548
L167.976 315.368
L168.869 304.025
L169.315 323.021
L169.762 297.535
L170.208 318.231
L170.654 310.782
L171.101 309.523
L171.547 309.505
L171.994 309.727
L172.44 307.143
L173.333 312.193
L173.779 308.263
L174.226 307.468
L174.672 311.78
L175.118 308.45
L175.565 311.518
L176.458 304.793
L176.904 310.412
L177.35 309.796
L177.797 308.276
L178.243 305.412
L178.69 309.963
L179.136 302.596
L179.582 310.852
L180.029 296.911
L180.475 318.612
L180.922 308.675
L181.368 315.349
L181.814 278.616
L182.261 310.698
L182.707 301.707
L183.154 315.611
L183.6 315.148
L184.046 320.379
L184.493 307.47
L184.939 309.213
L185.386 284.245
L185.832 304.842
L186.278 310.543
L186.725 298.485
L187.171 314.468
L187.618 298.47
L188.064 320.526
L188.51 305.213
L188.957 309.144
L189.403 307.184
L189.85 311.62
L190.296 308.975
L190.742 302.518
L191.189 308.954
L191.635 312.812
L192.082 308.961
L192.528 306.255
L192.974 305.563
L193.421 309.849
L193.867 284.315
L194.314 309.634
L194.76 309.413
L195.206 306.247
L195.653 311.512
L196.099 310.028
L196.992 300.672
L197.438 317.487
L197.885 300.24
L198.331 322.746
L198.778 307.492
L199.224 310.632
L199.67 309.122
L200.117 309.815
L200.563 303.565
L201.01 314.636
L201.456 315.546
L201.902 306.216
L202.349 307.83
L202.795 295.472
L203.242 306.961
L204.134 312.971
L204.581 311.548
L205.027 306.965
L205.474 315.087
L205.92 314.47
L206.366 308.252
L206.813 311.165
L207.259 306.158
L207.706 308.974
L208.152 316.809
L208.598 303.521
L209.045 315.553
L209.491 307.693
L209.938 313.87
L210.384 308.7
L211.277 109.701
L211.723 310.397
L212.17 310.332
L212.616 320.92
L213.062 296.916
L213.509 317.628
L213.955 314.774
L214.402 307.23
L214.848 326.827
L215.294 309.192
L215.741 306.201
L216.187 312.723
L216.634 301.539
L217.08 312.096
L217.526 309.183
L217.973 308.464
L218.419 319.932
L218.866 307.337
L219.312 313.762
L219.758 309.217
L220.205 307.346
L220.651 253.586
L221.098 313.471
L221.544 310.404
L221.99 310.993
L222.437 313.968
L222.883 307.518
L223.33 309.889
L223.776 309.963
L224.222 306.04
L224.669 311.406
L225.562 309.1
L226.008 306.725
L226.454 308.051
L226.901 280.942
L227.347 313.776
L227.794 311.878
L228.24 312.032
L228.686 310.558
L229.133 301.396
L229.579 319.04
L230.026 308.781
L230.472 308.235
L230.918 313.498
L231.365 294.521
L231.811 318.38
L232.258 295.346
L232.704 323.426
L233.15 305.011
L233.597 309.738
L234.043 306.672
L234.49 317.109
L234.936 301.289
L235.829 310.681
L236.275 310.274
L236.722 308.416
L237.168 307.413
L237.614 317.942
L238.061 299.129
L238.507 316.373
L238.954 300.623
L239.4 308.241
L239.846 307.134
L240.293 317.33
L240.739 301.091
L241.186 309.333
L241.632 290.865
L242.525 310.409
L242.971 309.855
L243.418 314.277
L243.864 309.253
L244.31 315.349
L244.757 310.313
L245.203 284.004
L245.65 316.184
L246.096 297.091
L246.542 310.009
L246.989 308.426
L247.435 315.485
L247.882 299.775
L248.328 308.897
L248.774 306.044
L249.221 312.083
L249.667 313.823
L250.114 309.498
L250.56 299.963
L251.006 307.433
L251.453 308.892
L251.899 308.347
L252.346 307.59
L252.792 316.155
L253.238 309.449
L253.685 273.408
L254.131 309.913
L254.578 317.216
L255.47 284.657
L255.917 295.245
L256.363 322.564
L256.81 309.439
L257.256 307.953
L257.702 313.767
L258.149 307.985
L258.595 311.816
L259.042 311.28
L259.488 319.011
L259.934 299.467
L260.381 313.581
L260.827 316.894
L261.274 302.859
L261.72 311.095
L262.166 314.564
L262.613 319.644
L263.059 302.875
L263.506 310.869
L263.952 308.634
L264.398 311.478
L265.291 310.334
L265.738 228.688
L266.184 317.2
L266.63 298.651
L267.077 309.791
L267.523 317.471
L267.97 298.679
L268.416 310.163
L268.862 318.651
L269.309 300.675
L270.202 317.996
L270.648 301.607
L271.094 318.272
L271.541 307.529
L271.987 310.298
L272.434 300.766
L272.88 308.337
L273.773 310.307
L274.219 309.114
L274.666 316.521
L275.112 314.138
L275.558 305.737
L276.005 308.558
L276.451 305.391
L276.898 318.187
L277.344 287.688
L277.79 306.105
L278.237 315.812
L278.683 314.681
L279.13 309.09
L279.576 307.012
L280.022 308.687
L280.469 309.241
L280.915 307.033
L281.362 316.879
L281.808 299.647
L282.254 308.874
L282.701 307.503
L283.147 309.841
L283.594 309.022
L284.04 279.651
L284.486 309.72
L284.933 309.332
L285.379 318.851
L285.826 299.21
L286.272 310.343
L286.718 309.568
L287.165 309.487
L287.611 308.056
L288.058 310.766
L288.504 309.851
L288.95 301.75
L289.397 323.321
L289.843 310.418
L290.29 302.883
L290.736 299.007
L291.182 317.014
L291.629 308.662
L292.075 310.74
L292.522 314.983
L292.968 300.765
L293.414 301.441
L293.861 309.88
L294.307 315.826
L294.754 309.868
L295.2 300.959
L295.646 319.173
L296.093 306.474
L296.539 309.88
L296.986 310.659
L297.432 300.933
L297.878 315.665
L298.325 310.115
L298.771 300.904
L299.664 316.454
L300.11 310.017
L300.557 310.186
L301.003 282.759
L301.45 309.281
L301.896 286.971
L302.342 322.516
L302.789 282.372
L303.235 308.821
L303.682 309.708
L304.128 317.772
L304.574 297.533
L305.021 308.779
L305.467 309.894
L305.914 306.904
L306.36 301.865
L306.806 317.166
L307.253 304
L307.699 309.224
L308.146 309.325
L308.592 309.685
L309.038 306.319
L309.485 309.244
L309.931 308.689
L310.378 306.851
L310.824 309.923
L311.27 308.486
L311.717 318.257
L312.163 297.706
L312.61 285.072
L313.056 310.103
L313.502 308.385
L313.949 317.783
L314.395 301.304
L314.842 318.384
L315.288 308.82
L315.734 310.259
L316.181 299.552
L316.627 310.627
L317.074 316.616
L317.52 309.981
L317.966 310.372
L318.413 301.671
L318.859 317.505
L319.306 301.356
L319.752 317.623
L320.198 311.264
L320.645 298.373
L321.091 319.032
L321.538 310.234
L321.984 310.453
L322.43 273.633
L322.877 319.716
L323.77 302.199
L324.216 317.714
L324.662 303.019
L325.109 319.691
L325.555 302.119
L326.002 320.21
L326.448 312.682
L326.894 296.485
L327.341 305.128
L327.787 323.215
L328.234 310.542
L328.68 318.504
L329.126 302.195
L329.573 311.527
L330.019 310.99
L330.466 309.679
L330.912 309.996
L331.358 311.246
L331.805 311.19
L332.251 308.79
L332.698 296.995
L333.144 311.021
L333.59 311.464
L334.037 311.348
L334.483 316.945
L334.93 311.831
L335.376 310.666
L335.822 302.172
L336.269 308.809
L336.715 311.704
L337.162 317.764
L337.608 303.83
L338.054 319.285
L338.501 309
L338.947 301.666
L339.394 320.381
L339.84 304.67
L340.286 316.134
L340.733 310.05
L341.179 310.009
L341.626 311.744
L342.072 306.872
L342.518 307.911
L342.965 317.762
L343.411 304.148
L343.858 306.567
L344.304 315.401
L344.75 318.474
L345.197 301.649
L345.643 318.379
L346.09 293.16
L346.536 323.659
L346.982 300.844
L347.429 308.603
L347.875 309.754
L348.322 318.314
L348.768 310.505
L349.214 308.211
L349.661 303.704
L350.107 315.748
L351 303.282
L351.446 310.257
L351.893 308.102
L352.339 306.984
L352.786 309.417
L353.232 309.307
L353.678 301.87
L354.125 313.85
L354.571 300.212
L355.018 318.585
L355.464 299.787
L355.91 315.901
L356.357 303.566
L356.803 314.696
L357.25 308.246
L357.696 310.629
L358.142 301.408
L358.589 315.086
L359.035 315.969
L359.482 282.168
L359.928 310.335
L360.821 296.126
L361.267 323.64
L361.714 301.571
L362.16 316.212
L362.606 307.192
L363.053 305.484
L363.499 315.494
L363.946 306.938
L364.392 303.719
L364.838 318.822
L365.285 300.244
L365.731 321.457
L366.178 297.791
L366.624 318.578
L367.07 301.519
L367.517 319.51
L367.963 309.515
L368.41 303.542
L368.856 294.904
L369.302 311.407
L369.749 310.127
L370.195 318.34
L370.642 307.863
L371.088 309.872
L371.534 314.298
L371.981 309.373
L372.427 301.467
L372.874 316.956
L373.32 306.092
L373.766 245.551
L374.213 241.952
L374.659 304.527
L375.106 310.29
L375.552 296.22
L375.998 319.577
L376.445 310.329
L376.891 313.411
L377.338 322.694
L377.784 306.159
L378.23 314.348
L378.677 305.648
L379.123 282.156
L379.57 313.043
L380.016 309.36
L380.462 294.477
L380.909 321.297
L381.355 305.865
L381.802 312.243
L382.248 307.33
L382.694 298.369
L383.587 318.898
L384.034 309.274
L384.48 309.207
L384.926 308.588
L385.373 307.395
L385.819 311.686
L386.266 309.199
L386.712 307.88
L387.158 308.238
L387.605 280.827
L388.051 314.444
L388.498 304.951
L388.944 312.513
L389.39 310.506
L389.837 310.444
L390.283 304.193
L390.73 313.934
L391.176 309.892
L391.622 311.02
L392.069 303.425
L392.515 314.311
L392.962 309.997
L393.408 295.295
L393.854 328.768
L394.301 307.055
L394.747 310.281
L395.194 304.644
L395.64 305.077
L396.086 321.9
L396.533 285.477
L396.979 308.76
L397.426 306.91
L397.872 309.29
L398.318 317.491
L398.765 309.76
L399.211 309.283
L399.658 307.77
L400.104 314.578
L400.55 311.38
L401.443 307.084
L401.89 311.583
L402.336 314.677
L402.782 307.421
L403.229 308.338
L404.122 315.039
L404.568 307.633
L405.014 312.422
L405.461 293.5
L405.907 311.167
L406.354 311.56
L406.8 314.982
L407.246 304.851
L407.693 310.892
L408.139 314.997
L408.586 308.049
L409.032 314.331
L409.478 305.308
L409.925 311.716
L410.371 314.545
L410.818 307.758
L411.264 312.673
L411.71 305.016
L412.157 315.396
L412.603 312.203
L413.05 307.516
L413.496 312.76
L413.942 311.435
L414.389 308.426
L414.835 310.203
L415.282 306.76
L415.728 300.349
L416.174 316.062
L416.621 310.454
L417.067 308.088
L417.514 309.416
L417.96 314.367
L418.406 310.005
L418.853 303.842
L419.299 312.939
L419.746 304.512
L420.192 311.336
L420.638 311.561
L421.085 306.761
L421.531 313.954
L421.978 308.016
L422.424 306.186
L422.87 313.7
L423.317 307.63
L423.763 299.479
L424.21 315.982
L424.656 305.29
L425.102 258.361
L425.549 302.95
L425.995 309.481
L426.442 308.75
L426.888 297.58
L427.334 323.12
L427.781 305.254
L428.227 311.331
L428.674 304.916
L429.12 312.537
L430.013 306.989
L430.459 305.187
L430.906 328.394
L431.352 309.868
L431.798 281.514
L432.245 309.602
L432.691 302.135
L433.138 312.211
L434.03 315.805
L434.477 304.905
L434.923 314.212
L435.37 305.799
L435.816 314.06
L436.262 303.516
L437.155 311.734
L437.602 311.67
L438.048 310.035
L438.494 310.007
L438.941 310.557
L439.387 307.182
L439.834 310.18
L440.726 304.584
L441.173 303.399
L441.619 314.731
L442.066 309.888
L442.512 302.837
L442.958 314.099
L443.405 309.817
L443.851 310.323
L444.298 299.878
L444.744 318.137
L445.19 309.879
L445.637 309.724
L446.083 310.921
L446.53 307.722
L446.976 306.457
L447.422 317.126
L447.869 310.658
L448.315 310.949
L448.762 309.862
L449.208 310.595
L449.654 304.369
L450.101 309.803
L450.547 284.943
L450.994 309.768
L451.44 306.176
L451.886 313.731
L452.333 305.179
L453.226 309.16
L453.672 313.282
L454.118 304.858
L454.565 307.407
L455.011 309.309
L455.458 312.736
L455.904 303.242
L456.35 310.191
L456.797 312.424
L457.243 309.878
L457.69 306.459
L458.136 309.932
L459.029 307.388
L459.475 299.834
L459.922 304.469
L460.368 299.326
L460.814 306.962
L461.261 299.981
L461.707 320.12
L462.154 308.184
L462.6 306.021
L463.046 307.734
L463.493 306.084
L463.939 318.071
L464.386 309.791
L465.278 310.254
L465.725 307.506
L466.171 306.407
L466.618 310.391
L467.064 310.483
L467.51 311.376
L467.957 306.864
L468.403 309.567
L468.85 313.899
L469.296 308.055
L469.742 309.49
L470.189 281.874
L470.635 311.191
L471.082 309.591
L471.528 255.594
L471.974 271.062
L472.421 306.912
L472.867 313.333
L473.76 309.793
L474.206 312.388
L474.653 307.046
L475.099 309.702
L475.546 311.56
L475.992 314.916
L476.438 311.063
L476.885 311.444
L477.331 313.987
L477.778 311.626
L478.224 308.057
L478.67 314.9
L479.117 305.271
L479.563 315.632
L480.456 297.236
L480.902 315.059
L481.349 305.675
L481.795 311.357
L482.242 315.104
L482.688 311.666
L483.134 304.972
L483.581 315.391
L484.027 304.843
L484.474 316.959
L485.366 305.712
L485.813 314.334
L486.259 308.315
L486.706 314.915
L487.152 305.432
L487.598 315.189
L488.491 307.504
L488.938 308.396
L489.384 315.355
L489.83 310.544
L490.277 313.209
L490.723 303.187
L491.17 314.341
L491.616 309.913
L492.062 310.931
L492.509 310.419
L492.955 290.452
L493.402 323.582
L493.848 314.069
L494.741 307.595
L495.187 307.057
L495.634 313.574
L496.08 304.36
L496.526 310.794
L496.973 310.493
L497.419 313.633
L497.866 304.178
L498.312 310.425
L498.758 308.922
L499.205 309.616
L499.651 303.442
L500.098 309.18
L500.544 313.404
L500.99 307.307
L501.437 303.375
L501.883 315.586
L502.33 309.375
L502.776 306.709
L503.222 305.451
L503.669 313.757
L504.115 303.548
L504.562 312.838
L505.008 315.765
L505.454 301.143
L505.901 314.578
L506.347 305.764
L506.794 309.648
L507.24 283.06
L507.686 310.247
L508.133 309.914
L508.579 306.749
L509.026 314.249
L509.472 314.826
L509.918 299.631
L510.365 316.041
L511.258 306.978
L511.704 310.387
L512.15 311.456
L512.597 307.133
L513.043 320.391
L513.49 306.262
L513.936 311.876
L514.829 309.208
L515.275 306.697
L515.722 298.392
L516.168 313.406
L516.614 306.659
L517.061 315.049
L517.507 306.503
L517.954 306.713
L517.954 306.713" style="fill:none;stroke:#ff0000;"/>
   </g>
   <g id="line2d_2">
    <path clip-path="url(#p7ff5b81e1d)" d="
M72.137 -1
L72.4464 298.035
L72.8928 183.409
L73.3392 282.319
L73.7856 266.792
L74.232 265.43
L74.6784 265.628
L75.1248 283.227
L75.5712 257.916
L76.0176 267.023
L76.464 262.613
L76.9104 265.892
L77.3568 272.386
L77.8032 314.114
L78.2496 251.393
L78.696 310.952
L79.1424 297.433
L79.5888 263.713
L80.0352 264.281
L80.4816 268.909
L80.928 272.334
L81.3744 306.304
L81.8208 242.197
L82.2672 308.786
L82.7136 249.81
L83.16 266.487
L83.6064 271.534
L84.0528 311.493
L84.4992 254.772
L84.9456 315.89
L85.392 245.802
L85.8384 268.854
L86.2848 275.414
L86.7312 265.88
L87.624 268.974
L88.0704 265.959
L88.5168 309.434
L88.9632 299.555
L89.4096 244.481
L89.856 318.043
L90.3024 246.897
L90.7488 267.717
L91.1952 315.045
L91.6416 241.715
L92.088 316.221
L92.5344 293.58
L92.9808 301.519
L93.4272 289.881
L93.8736 298.351
L94.32 288.911
L94.7664 291.704
L95.2128 291.836
L95.6592 295.616
L96.1056 267.786
L96.552 265.634
L96.9984 311.174
L97.4448 296.411
L97.8912 298.997
L98.3376 291.713
L98.784 290.766
L99.2304 288.722
L99.6768 288.066
L100.123 259.653
L100.57 264.587
L101.016 275.046
L101.462 257.375
L101.909 267.043
L102.355 305.476
L103.248 290.26
L103.694 299.025
L104.141 294.872
L104.587 248.629
L105.034 311.448
L105.48 291.674
L105.926 295.119
L106.373 293.008
L106.819 259.24
L107.266 243.089
L107.712 252.182
L108.158 266.744
L108.605 306.928
L109.051 291.107
L109.498 251.451
L109.944 303.933
L110.39 303.2
L110.837 293.698
L111.283 251.752
L111.73 309.696
L112.176 300.564
L112.622 293.755
L113.069 293.698
L113.515 301.782
L113.962 296.198
L114.408 222.232
L114.854 308.95
L115.301 247.041
L115.747 306.126
L116.194 295
L116.64 290.135
L117.086 296.915
L117.533 291.718
L117.979 291.568
L118.426 285.598
L118.872 300.374
L119.318 291.182
L119.765 291.569
L120.211 288.84
L120.658 295.87
L121.104 262.786
L121.55 300.676
L122.89 281.036
L123.336 313.909
L123.782 291.183
L124.229 297.778
L124.675 292.174
L125.122 299.154
L125.568 289.534
L126.014 298.455
L126.461 293.494
L126.907 292.237
L127.8 297.973
L128.246 291.858
L128.693 272.628
L129.139 293.662
L129.586 301.808
L130.032 250.688
L130.478 309.138
L131.371 288.217
L131.818 305.928
L132.264 298.392
L132.71 297.31
L133.157 299.568
L133.603 295.444
L134.05 297.65
L134.496 284.563
L134.942 298.661
L135.389 303.546
L135.835 277.852
L136.282 296.764
L136.728 294.74
L137.621 299.786
L138.067 296.158
L138.514 297.251
L138.96 295.441
L139.406 292.317
L140.299 299.613
L140.746 295.697
L141.192 297.392
L141.638 296.315
L142.085 284.358
L142.531 303.43
L142.978 294.648
L143.424 294.481
L143.87 298.419
L144.317 292.335
L144.763 293.701
L145.21 286.603
L145.656 301.122
L146.102 299.182
L146.549 288.058
L146.995 300.86
L147.442 294.755
L147.888 291.158
L148.334 299.141
L148.781 288.334
L149.227 289.447
L149.674 287.265
L150.12 249.146
L150.566 311.362
L151.013 292.348
L151.459 302.314
L151.906 272.068
L152.352 311.887
L152.798 293.091
L153.245 292.384
L153.691 292.002
L154.584 292.09
L155.03 267.913
L155.477 292.971
L155.923 291.591
L156.37 298.135
L156.816 292.616
L157.262 294.669
L157.709 298.323
L158.155 293.749
L158.602 297.6
L159.048 293.116
L159.494 298.22
L159.941 294.49
L160.387 295.897
L160.834 291.26
L161.28 284.618
L161.726 292.292
L162.173 266.174
L162.619 307.473
L163.066 293.881
L163.512 290.912
L163.958 290.584
L164.405 298.686
L164.851 294.524
L165.298 296.885
L165.744 294.658
L166.19 297.368
L166.637 293.714
L167.083 293.778
L167.53 297.476
L167.976 263.418
L168.422 288.679
L168.869 295.415
L169.315 293.138
L169.762 292.49
L170.208 295.451
L170.654 285.947
L171.101 293.686
L171.547 286.823
L171.994 300.142
L172.44 291.417
L173.333 298.142
L173.779 267.172
L174.226 290.885
L174.672 299.983
L175.118 294.27
L175.565 294.502
L176.011 295.626
L176.458 290.999
L176.904 298.562
L177.35 294.104
L177.797 295.2
L178.243 294.067
L178.69 290.741
L179.136 294.6
L179.582 296.798
L180.029 293.165
L180.475 257.907
L180.922 308.692
L181.368 298.37
L181.814 297.5
L182.261 296.27
L182.707 297.37
L183.154 292.134
L183.6 300.116
L184.046 256.017
L184.493 305.971
L184.939 295.833
L185.386 300.824
L185.832 296.714
L186.278 290.347
L186.725 302.292
L187.171 281.712
L188.064 299.644
L188.51 275.241
L188.957 286.904
L189.403 139.272
L189.85 208.389
L190.296 298.268
L190.742 301.669
L191.189 302.154
L191.635 287.224
L192.082 299.344
L192.528 289.864
L192.974 323.461
L193.421 294.654
L194.314 303.483
L194.76 291.219
L195.206 298.387
L195.653 299.39
L196.099 287.579
L196.546 294.439
L196.992 299.376
L197.438 291.89
L197.885 295.829
L198.331 298.072
L198.778 306.601
L199.224 294.381
L199.67 290.918
L200.117 296.337
L200.563 297.72
L201.456 290.839
L201.902 293.175
L202.349 297.2
L202.795 288.842
L203.242 294.889
L203.688 294.376
L204.134 291.991
L204.581 295.808
L205.027 267.446
L205.474 289.885
L205.92 300.375
L206.366 294.151
L207.259 296.602
L207.706 293.884
L208.152 290.436
L208.598 285.344
L209.045 306.124
L209.491 297.009
L209.938 295.46
L210.384 289.818
L210.83 300.286
L211.277 295.026
L211.723 269.733
L212.17 295.133
L212.616 298.64
L213.062 292.25
L213.509 294.548
L213.955 299.017
L214.402 288.58
L214.848 301.921
L215.294 301.86
L215.741 284.696
L216.187 298.952
L216.634 301.488
L217.08 294.738
L217.526 298.795
L217.973 310.093
L218.419 291.485
L218.866 295.284
L219.312 290.177
L219.758 292.601
L220.651 291.605
L221.098 294.773
L221.544 292.092
L221.99 288.173
L222.437 294.315
L222.883 255.071
L223.33 303.61
L223.776 292.013
L224.222 298.439
L224.669 291.682
L225.115 300.105
L225.562 290.264
L226.008 294.626
L226.454 293.262
L226.901 298.067
L227.347 297.562
L227.794 291.428
L228.24 293.433
L228.686 297.08
L229.133 298.498
L229.579 283.912
L230.026 291.146
L230.472 295.396
L230.918 298.529
L231.811 290.813
L232.258 296.427
L232.704 293.506
L233.15 298.767
L233.597 291.348
L234.043 295.582
L234.49 302.939
L234.936 290.863
L235.382 296.593
L235.829 294.2
L236.275 294.537
L236.722 260.927
L237.614 307.954
L238.061 291.478
L238.507 292.184
L238.954 288.487
L239.4 296.177
L239.846 288.4
L240.293 297.666
L240.739 292.198
L241.186 292.412
L241.632 291.944
L242.078 291.691
L242.525 291.86
L242.971 291.805
L243.418 267.437
L243.864 297.125
L244.31 290.796
L244.757 290.292
L245.203 300.433
L245.65 299.189
L246.096 289.077
L246.542 300.682
L246.989 294.663
L247.435 236.412
L247.882 294.899
L248.328 299.546
L248.774 289.853
L249.221 299.02
L250.114 289.922
L250.56 272.862
L251.006 296.388
L251.453 301.878
L251.899 292.37
L252.346 294.498
L252.792 302.662
L253.238 298.539
L253.685 291.673
L254.131 299.408
L254.578 295.149
L255.024 295.048
L255.47 300.095
L255.917 297.802
L256.363 296.103
L256.81 293.685
L257.256 297.668
L257.702 298.966
L258.149 281.871
L258.595 294.169
L259.042 272.536
L259.488 292.321
L259.934 303.524
L260.381 291.659
L260.827 301.997
L261.274 288.58
L261.72 301.994
L262.166 294.66
L262.613 295.728
L263.059 302.025
L263.506 292.09
L263.952 296.304
L264.398 296.772
L264.845 294.545
L265.291 295.203
L265.738 281.081
L266.184 310.444
L266.63 297.689
L267.077 296.413
L267.523 291.253
L267.97 300.638
L268.416 293.584
L268.862 288.331
L269.309 300.847
L269.755 295.933
L271.094 288.379
L271.541 295.368
L271.987 295.411
L272.434 288.125
L272.88 290.934
L273.326 295.798
L273.773 292.587
L274.219 293.441
L274.666 292.599
L275.112 288.702
L275.558 290.174
L276.005 296.701
L276.451 287.361
L276.898 297.808
L277.344 291.119
L277.79 298.397
L278.237 292.537
L278.683 297.754
L279.13 290.375
L279.576 298.853
L280.022 299.557
L280.469 293.808
L280.915 294.516
L281.362 297.959
L281.808 293.146
L282.254 297.043
L283.147 290.873
L283.594 290.435
L284.04 290.254
L284.933 298.318
L285.379 293.162
L285.826 298.519
L286.272 289.647
L286.718 298.196
L287.165 293.488
L287.611 294.955
L288.058 292.329
L288.504 299.372
L288.95 295.189
L289.397 295.963
L289.843 267.877
L290.29 292.121
L290.736 288.189
L291.182 297.963
L291.629 291.767
L292.075 288.169
L292.522 296.575
L292.968 286.554
L293.414 288.635
L293.861 300.551
L294.307 269.06
L294.754 311.458
L295.2 291.844
L295.646 295.875
L296.093 269.75
L296.539 291.181
L297.432 298.154
L297.878 296.936
L298.325 293.909
L298.771 295.942
L299.218 294.862
L299.664 297.185
L300.11 291.855
L300.557 293.262
L301.003 297.788
L301.45 295.106
L301.896 295.333
L302.342 268.473
L302.789 295.384
L303.235 295.568
L303.682 292.709
L304.128 298.421
L304.574 301.46
L305.021 292.845
L305.467 296.293
L305.914 297.308
L306.36 295.345
L306.806 300.062
L307.253 294.106
L307.699 295.608
L308.146 299.15
L308.592 298.978
L309.038 277.412
L309.485 300.485
L309.931 297.489
L310.378 303.627
L310.824 290.448
L311.27 300.11
L311.717 298.932
L312.163 291.802
L312.61 305.234
L313.056 295.034
L313.502 295.599
L313.949 299.557
L314.395 294.808
L314.842 299.113
L315.288 294.511
L315.734 295.017
L316.181 293.962
L316.627 298.437
L317.074 294.786
L317.52 303.096
L317.966 294.894
L318.413 291.186
L318.859 304.774
L319.752 291.003
L320.198 298.377
L320.645 294.97
L321.091 295.651
L321.538 295.868
L321.984 289.757
L322.43 292.49
L322.877 292.662
L323.323 284.328
L323.77 302.884
L324.216 283.432
L324.662 302.103
L325.109 289.031
L325.555 284.481
L326.002 305.429
L326.448 287.693
L326.894 292.341
L327.341 292.292
L327.787 285.872
L328.234 303.904
L328.68 292.471
L329.126 293.231
L329.573 295.086
L330.019 296.255
L330.466 204.039
L330.912 224.093
L331.358 311.11
L332.251 293.499
L332.698 297.886
L333.144 292.828
L333.59 297.95
L334.037 296.717
L334.483 270.417
L334.93 293.59
L335.376 294.502
L335.822 291.772
L336.269 291.492
L336.715 292.214
L337.162 295.753
L337.608 292.407
L338.054 310.236
L338.947 289.779
L339.394 301.709
L339.84 295.437
L340.286 293.726
L340.733 295.21
L341.179 289.049
L341.626 297.803
L342.072 290.823
L342.518 298.073
L342.965 291.738
L343.411 304.664
L343.858 291.658
L344.304 292.632
L344.75 299.315
L345.197 303.575
L345.643 295.36
L346.09 295.146
L346.536 296.59
L346.982 299.087
L347.429 293.732
L347.875 300.488
L348.322 293.559
L349.214 300.043
L349.661 293.281
L350.107 297.415
L350.554 282.232
L351 293.02
L351.446 292.042
L351.893 306.41
L352.339 294.82
L352.786 299.731
L353.232 294.713
L353.678 295.301
L354.125 300.124
L354.571 298.048
L355.018 289.203
L355.464 298.803
L355.91 296.725
L356.357 293.641
L356.803 301.803
L357.25 293.192
L357.696 295.112
L358.142 294.261
L358.589 295.571
L359.035 295.751
L359.482 298.869
L359.928 295.259
L360.374 293.678
L360.821 297.853
L361.267 297.745
L361.714 281.024
L362.16 295.526
L362.606 296.606
L363.053 295.475
L363.499 297.243
L363.946 294.025
L364.392 303.669
L364.838 298.358
L365.285 289.883
L365.731 301.315
L366.178 294.316
L366.624 293.729
L367.07 291.131
L367.517 300.679
L367.963 294.237
L368.41 290.601
L368.856 268.801
L369.302 296.391
L369.749 287.996
L370.195 296.42
L370.642 293.468
L371.088 288.096
L371.534 295.617
L371.981 294.68
L372.427 289.179
L372.874 302.104
L373.32 291.868
L373.766 289.145
L374.213 296.121
L374.659 291.303
L375.106 295.272
L375.552 292.192
L375.998 265.888
L376.445 297.684
L376.891 293.879
L377.338 297.574
L377.784 295.383
L378.23 293.791
L378.677 294.674
L379.123 293.948
L379.57 295.219
L380.016 281.959
L380.462 309.603
L380.909 298.702
L381.355 290.569
L382.248 300.583
L382.694 293.703
L383.141 270.132
L383.587 302.094
L384.034 290.007
L384.48 298.613
L384.926 297.342
L385.373 293.997
L385.819 298.312
L386.266 289.078
L386.712 305.078
L387.158 292.683
L387.605 301.193
L388.051 294.571
L388.498 299.833
L388.944 230.624
L389.39 308.85
L390.283 282.046
L390.73 298.555
L391.176 298.961
L391.622 295.639
L392.069 304.816
L392.515 286.546
L392.962 302.876
L393.408 295.324
L393.854 302.43
L394.301 296.439
L394.747 294.719
L395.194 298.428
L395.64 292.949
L396.086 288.863
L396.533 308.212
L396.979 291.767
L397.426 293.701
L397.872 290.839
L398.318 301.493
L398.765 294.286
L399.211 294.441
L399.658 290.135
L400.104 297.911
L400.55 293.349
L400.997 299.529
L401.443 292.98
L402.336 297.193
L402.782 293.572
L403.229 297.1
L403.675 284.963
L404.122 289.36
L404.568 304.487
L405.014 292.811
L405.461 297.716
L405.907 295.389
L406.354 288.82
L406.8 295.877
L407.246 289.014
L407.693 292.364
L408.139 289.355
L408.586 284.592
L409.032 312.634
L409.478 265.092
L409.925 294.292
L410.371 297.472
L410.818 292.969
L411.264 291.128
L411.71 299.02
L412.157 293.008
L412.603 294.931
L413.05 293.863
L413.496 295.889
L413.942 289.101
L414.389 300.863
L414.835 294.117
L415.282 294.892
L415.728 296.911
L416.174 288.632
L416.621 293.621
L417.514 296.322
L418.406 295.298
L418.853 294.327
L419.299 297.375
L419.746 290.686
L420.192 295.726
L420.638 297.16
L421.085 297.681
L421.531 292.363
L421.978 292.057
L422.424 272.048
L422.87 288.612
L423.317 296.264
L423.763 292.235
L424.21 292.997
L424.656 292.007
L425.102 289.419
L425.549 296.909
L425.995 281.577
L426.442 299.484
L426.888 292.369
L427.334 295.219
L427.781 292.526
L428.227 295.492
L428.674 262.157
L429.12 294.239
L429.566 297.921
L430.013 300.365
L430.459 291.799
L430.906 288.444
L431.352 300.415
L431.798 296.377
L432.245 295.105
L432.691 289.249
L433.138 303.918
L434.477 290.557
L434.923 272.717
L435.37 296.691
L435.816 299.168
L436.262 294.652
L436.709 269.155
L437.155 282.431
L437.602 309.688
L438.048 301.175
L438.941 292.413
L439.387 301.709
L440.28 291.44
L440.726 309.002
L441.173 292.929
L441.619 281.365
L442.066 302.307
L442.512 296.301
L442.958 292.232
L443.405 299.251
L443.851 299.807
L444.298 291.54
L444.744 296.408
L445.19 298.351
L445.637 289.504
L446.083 305.239
L446.53 295.108
L446.976 289.984
L447.422 305.941
L447.869 294.522
L448.315 295.357
L448.762 293.846
L449.208 291.314
L449.654 299.924
L450.101 294.997
L450.547 293.812
L450.994 289.093
L451.44 301.66
L451.886 294.91
L452.333 295.084
L452.779 294.181
L453.226 294.115
L453.672 298.365
L454.118 291.387
L454.565 293.834
L455.011 290.742
L455.458 292.032
L455.904 296.149
L456.35 291.727
L456.797 292.841
L457.243 292.225
L457.69 294.861
L458.136 282.538
L458.582 300.753
L459.029 292.729
L459.475 293.486
L459.922 292.024
L460.368 294.567
L460.814 289.94
L461.261 296.169
L461.707 294.279
L462.154 297.22
L462.6 298.443
L463.493 291.304
L463.939 297.608
L464.386 291.347
L464.832 243.225
L465.278 306.678
L465.725 295.239
L466.171 280.6
L466.618 308.308
L467.064 283.303
L467.51 298.084
L467.957 291.486
L468.403 295.001
L468.85 300.071
L469.296 294.087
L469.742 295.209
L470.189 266.811
L470.635 297.789
L471.082 293.87
L471.528 282.962
L471.974 262.993
L472.421 228.29
L472.867 313.748
L473.314 297.576
L473.76 294.148
L474.206 298.754
L474.653 298.752
L475.099 291.915
L475.546 298.818
L475.992 292.765
L476.438 293.847
L476.885 287.779
L477.331 300.622
L477.778 291.336
L478.224 296.183
L478.67 295.632
L479.117 295.419
L479.563 289.344
L480.01 291.629
L480.456 294.881
L480.902 263.732
L481.349 300.811
L481.795 291.702
L482.242 304.184
L482.688 298.376
L483.134 294.204
L483.581 294.374
L484.027 297.995
L484.474 294.19
L484.92 294.153
L485.366 300.983
L485.813 293.811
L486.259 295.28
L486.706 307.736
L487.598 295.975
L488.045 298.84
L488.491 302.723
L488.938 296.436
L489.384 298.991
L489.83 286.582
L490.277 295.809
L490.723 295.145
L491.17 290.326
L491.616 302.349
L492.062 294.408
L492.509 294.281
L492.955 296.919
L493.402 294.493
L493.848 298.776
L494.741 283.97
L495.187 310.668
L495.634 295.546
L496.08 288.709
L496.526 294.941
L497.419 289.038
L497.866 294.38
L498.312 293.011
L498.758 288.857
L499.205 298.613
L499.651 291.886
L500.098 289.29
L500.544 295.539
L500.99 295.734
L501.437 266.968
L501.883 296.403
L502.33 289.135
L502.776 290.47
L503.222 297.4
L503.669 291.677
L504.115 291.172
L504.562 302.521
L505.008 286.002
L505.454 297.562
L505.901 289.34
L506.347 295.01
L506.794 294.356
L507.24 293.386
L507.686 288.363
L508.133 241.709
L508.579 298.841
L509.026 294.313
L509.472 298.403
L509.918 291.413
L510.365 299.77
L510.811 295.439
L511.258 294.742
L511.704 292.128
L512.15 300.697
L512.597 291.079
L513.043 294.101
L513.49 292.204
L513.936 294.298
L514.382 304.41
L514.829 293.962
L515.275 269.963
L515.722 301.334
L516.168 299.869
L516.614 285.798
L517.061 308.129
L517.507 296.483
L517.954 292.369
L517.954 292.369" style="fill:none;opacity:0.7;stroke:#008000;"/>
   </g>
   <g id="line2d_3">
    <path clip-path="url(#p7ff5b81e1d)" d="
M72.0764 -1
L72.4464 287.759
L72.8928 333.415
L73.3392 334.266
L73.7856 335.7
L74.232 330.762
L74.6784 334.93
L75.1248 334.267
L75.5712 332.616
L76.0176 334.671
L76.464 328.043
L76.9104 338.766
L77.3568 334.727
L77.8032 334.329
L78.2496 332.898
L78.696 337.85
L79.1424 335.266
L79.5888 331.929
L80.0352 309.253
L80.4816 334.039
L80.928 331.593
L81.3744 333.534
L81.8208 333.342
L82.2672 332.262
L83.16 335.139
L83.6064 330.837
L84.0528 334.861
L84.4992 332.737
L84.9456 332.525
L85.392 334.497
L85.8384 332.688
L86.2848 331.609
L86.7312 334.408
L87.1776 331.291
L87.624 334.138
L88.0704 334.293
L88.5168 307.301
L88.9632 333.669
L89.4096 335.728
L89.856 331.944
L90.3024 335.239
L90.7488 340.911
L91.1952 333.023
L91.6416 334.098
L92.088 334.734
L92.5344 304.229
L92.9808 259.307
L93.4272 278.843
L93.8736 333.055
L94.32 336.146
L94.7664 335.081
L95.2128 279.152
L95.6592 279.74
L96.1056 251.379
L96.552 251.681
L96.9984 283.817
L97.4448 219.343
L97.8912 314.777
L98.3376 178.89
L98.784 309.265
L99.2304 325.815
L99.6768 307.215
L100.123 317.911
L100.57 281.06
L101.016 198.738
L101.462 279.756
L101.909 198.609
L102.355 308.112
L102.802 332.992
L103.248 336.319
L103.694 335.126
L104.141 336.73
L104.587 332.859
L105.034 337.735
L105.48 292.07
L105.926 340.813
L106.373 335.472
L106.819 335.487
L107.266 333.698
L107.712 335.404
L108.158 336.146
L108.605 336.178
L109.051 333.27
L109.498 335.608
L109.944 335.61
L110.39 333.762
L111.283 336.001
L111.73 329.52
L112.176 340.14
L112.622 336.072
L113.069 335.722
L113.515 333.082
L113.962 332.023
L114.408 333.981
L114.854 326.072
L115.301 341.581
L115.747 334.914
L116.194 332.132
L116.64 327.825
L117.086 341.404
L117.533 332.798
L117.979 334.544
L118.426 334.612
L118.872 330.86
L119.318 336.229
L119.765 333.11
L120.211 336.222
L120.658 341.284
L121.104 335.096
L121.55 332.089
L121.997 334.642
L122.443 309.907
L122.89 305.237
L123.336 335.174
L124.229 332.072
L124.675 333.865
L125.122 334.13
L125.568 331.236
L126.014 334.632
L126.461 333.84
L126.907 332.133
L127.354 333.554
L127.8 334.55
L128.246 331.348
L128.693 334.314
L129.139 331.602
L129.586 334.103
L130.032 333.846
L130.478 304.535
L130.925 334.359
L131.371 335.243
L131.818 331.95
L132.264 335.006
L132.71 334.536
L133.157 332.488
L133.603 334.343
L134.05 335.06
L134.496 331.874
L134.942 335.162
L135.389 334.564
L135.835 326.453
L136.282 340.179
L136.728 334.548
L137.174 332.656
L137.621 334.716
L138.067 334.792
L138.514 331.954
L138.96 324.679
L139.406 334.83
L139.853 332.907
L140.299 334.399
L140.746 334.375
L141.192 334.522
L141.638 332.809
L142.085 334.711
L142.531 334.948
L142.978 332.256
L143.424 328.049
L143.87 341.029
L144.317 332.589
L144.763 334.268
L145.21 335.368
L145.656 332.465
L146.102 335.101
L146.549 334.402
L146.995 332.855
L147.442 341.201
L147.888 334.99
L148.334 306.707
L148.781 334.388
L149.227 333.757
L149.674 332.22
L150.12 333.796
L150.566 329.371
L151.013 339.843
L151.459 333.353
L151.906 332.374
L152.352 333.862
L152.798 334.523
L153.245 338.218
L153.691 334.169
L154.138 333.755
L154.584 331.961
L155.03 331.513
L155.477 335.684
L155.923 332.195
L156.37 334.136
L156.816 331.991
L157.262 333.741
L157.709 309.128
L158.155 332.358
L158.602 334.816
L159.048 334.696
L159.494 332.946
L159.941 334.443
L160.387 335.038
L160.834 332.975
L161.28 332.26
L161.726 336.863
L162.173 330.401
L162.619 334.797
L163.066 304.404
L163.512 310.054
L163.958 333.309
L164.405 335.23
L164.851 335.491
L165.298 332.998
L165.744 335.578
L166.19 335.372
L166.637 333.475
L167.083 310.38
L167.53 336.637
L167.976 334.447
L168.422 336.382
L168.869 336.68
L169.315 334.175
L169.762 336.608
L170.654 336.3
L171.101 334.389
L171.547 336.07
L171.994 336.423
L172.44 334.317
L172.886 329.509
L173.333 343.533
L173.779 336.414
L174.226 334.127
L174.672 335.794
L175.118 340.261
L175.565 334.094
L176.011 336.41
L176.458 329.685
L176.904 326.63
L177.35 280.938
L177.797 336.536
L178.243 343.853
L178.69 334.912
L179.136 335.974
L179.582 336.495
L180.029 334.235
L180.475 336.81
L180.922 336.228
L181.368 343.955
L181.814 334.445
L182.261 336.537
L182.707 336.216
L183.154 334.364
L183.6 343.931
L184.046 336.431
L184.493 336.479
L184.939 334.091
L185.386 332.547
L185.832 335.139
L186.278 333.652
L186.725 335.258
L187.171 335.231
L187.618 333.439
L188.064 335.676
L188.51 335.092
L188.957 333.212
L189.403 335.772
L189.85 335.049
L190.296 333.392
L190.742 335.41
L191.189 335.391
L191.635 333.22
L192.082 335.286
L192.528 335.374
L192.974 333.187
L193.421 335.514
L193.867 331.414
L194.314 325.43
L194.76 341.466
L195.206 334.856
L195.653 332.272
L196.099 334.516
L196.546 334.619
L196.992 332.635
L197.438 334.164
L197.885 332.315
L198.331 334.931
L198.778 334.629
L199.224 332.1
L199.67 334.866
L200.117 334.834
L200.563 331.996
L201.01 334.768
L201.456 334.448
L201.902 305.466
L202.349 337.76
L202.795 335.838
L203.242 333.264
L203.688 335.439
L204.134 335.563
L204.581 333.356
L205.027 335.508
L205.474 335.242
L205.92 332.904
L206.366 335.538
L206.813 335.459
L207.259 333.32
L207.706 335.103
L208.152 333.704
L208.598 335.264
L209.045 335.568
L209.491 335.489
L209.938 333.231
L210.384 325.532
L210.83 335.378
L211.277 333.387
L211.723 335.248
L212.17 335.572
L212.616 333.169
L213.062 335.56
L213.509 335.267
L213.955 332.643
L214.402 336.203
L215.294 333.277
L215.741 335.357
L216.187 335.218
L216.634 340.515
L217.08 343.647
L217.526 335.023
L217.973 333.272
L218.419 335.559
L218.866 309.351
L219.312 333.67
L219.758 334.038
L220.205 334.913
L220.651 332.325
L221.098 334.899
L221.544 334.618
L221.99 332.664
L222.437 338.229
L223.33 332.342
L223.776 334.931
L224.669 328.188
L225.115 341.301
L225.562 341.042
L226.008 249.783
L226.454 335.202
L226.901 307.229
L227.347 335.563
L227.794 335.563
L228.24 333.151
L228.686 335.361
L229.133 335.311
L229.579 333.209
L230.026 335.594
L230.472 335.341
L230.918 333.003
L231.365 336.278
L231.811 327.454
L232.258 339.565
L232.704 335.564
L233.15 335.285
L233.597 333.591
L234.043 335.378
L234.49 335.578
L234.936 333.557
L235.382 310.498
L235.829 336.213
L236.275 336.741
L236.722 334.415
L237.168 336.786
L237.614 330.309
L238.061 340.515
L238.507 336.422
L238.954 146.55
L239.4 193.157
L239.846 336.414
L240.293 316.358
L240.739 317.535
L241.186 309.016
L241.632 317.853
L242.078 336.676
L242.525 341.594
L242.971 296.897
L243.864 335.533
L244.31 329.028
L244.757 340.098
L245.203 303.556
L245.65 342.989
L246.096 336.104
L246.542 314.906
L246.989 336.094
L247.435 310.272
L247.882 335.441
L248.328 335.481
L248.774 333.221
L249.221 335.353
L249.667 335.266
L250.114 333.208
L250.56 334.996
L251.006 336.186
L251.899 329.101
L252.346 342.618
L252.792 332.593
L253.238 335.821
L253.685 322.058
L254.131 336.636
L254.578 333.966
L255.024 336.834
L255.47 336.958
L255.917 334.245
L256.363 336.763
L256.81 336.636
L257.256 336.657
L257.702 320.212
L258.149 336.868
L258.595 336.377
L259.042 334.861
L259.488 336.367
L259.934 336.65
L260.381 336.458
L260.827 334.578
L261.274 336.419
L261.72 336.692
L262.166 334.404
L262.613 336.949
L263.059 336.721
L263.506 327.571
L263.952 343.763
L264.398 336.515
L264.845 335.036
L265.291 335.469
L265.738 343.851
L266.184 332.185
L266.63 333.303
L267.077 335.41
L267.523 336.728
L267.97 332.041
L268.416 335.578
L268.862 335.021
L269.309 333.851
L269.755 342.906
L270.202 328.808
L270.648 340.369
L271.094 335.567
L271.541 335.36
L271.987 333.398
L272.434 335.483
L272.88 335.814
L273.326 332.991
L273.773 335.315
L274.219 335.635
L274.666 329.468
L275.112 327.578
L275.558 342.366
L276.005 326.182
L276.451 340.699
L276.898 335.064
L277.344 332.572
L277.79 334.844
L278.237 334.984
L278.683 332.095
L279.13 342.203
L279.576 334.808
L280.022 332.669
L280.469 334.525
L280.915 332.957
L281.362 334.169
L281.808 335.011
L282.254 332.732
L282.701 307.581
L283.147 328.678
L283.594 339.415
L284.04 335.252
L284.486 335.378
L284.933 326.933
L285.379 342.587
L285.826 335.138
L286.272 333.364
L286.718 335.817
L287.165 335.68
L287.611 333.461
L288.058 329.072
L288.504 342.337
L288.95 333.381
L289.397 335.656
L289.843 335.833
L290.29 333.355
L290.736 335.641
L291.182 325.857
L291.629 333.257
L292.075 335.533
L292.522 335.607
L292.968 340.867
L293.414 335.692
L293.861 335.601
L294.307 332.944
L294.754 333.709
L295.2 338.108
L295.646 333.421
L296.093 336.189
L296.539 335.353
L296.986 333.4
L297.432 335.303
L297.878 328.951
L298.325 340.167
L298.771 335.264
L299.218 328.957
L299.664 341.545
L300.11 333.238
L300.557 309.904
L301.003 339.93
L301.45 335.032
L301.896 334.92
L302.342 332.655
L302.789 334.985
L303.235 335.031
L303.682 332.714
L304.128 334.92
L304.574 335.003
L305.021 332.841
L305.467 334.997
L305.914 334.931
L306.36 332.744
L306.806 335.107
L307.253 334.899
L307.699 333.067
L308.146 334.85
L308.592 332.102
L309.038 335.324
L309.485 334.996
L309.931 308.206
L310.378 335.379
L310.824 335.666
L311.27 333.454
L311.717 328.9
L312.163 342.172
L312.61 326.724
L313.056 342.401
L313.502 335.934
L314.395 335.847
L314.842 335.449
L315.288 333.335
L315.734 336.04
L316.181 335.926
L316.627 333.138
L317.074 335.789
L317.52 335.856
L317.966 332.992
L318.413 335.436
L318.859 335.975
L319.306 311.326
L319.752 334.216
L320.198 336.741
L320.645 336.888
L321.091 334.574
L321.538 336.724
L321.984 336.211
L322.43 335.396
L322.877 336.615
L323.323 336.603
L323.77 336.706
L324.216 334.214
L324.662 336.459
L325.109 336.776
L325.555 334.353
L326.002 336.55
L326.448 337.034
L326.894 329.887
L327.341 341.428
L327.787 336.668
L328.234 336.62
L328.68 320.235
L329.126 336.715
L329.573 336.601
L330.019 336.673
L330.466 334.197
L330.912 336.941
L331.358 336.551
L331.805 334.582
L332.251 336.429
L332.698 336.598
L333.144 334.239
L333.59 336.75
L334.483 336.685
L334.93 334.646
L335.376 336.433
L335.822 336.775
L336.269 334.305
L336.715 336.645
L337.162 336.398
L337.608 332.333
L338.054 333.442
L338.501 335.804
L338.947 335.479
L339.394 333.099
L339.84 335.585
L340.286 335.715
L340.733 333.171
L341.179 335.624
L341.626 335.799
L342.072 333.16
L342.518 335.425
L342.965 335.61
L343.411 332.83
L343.858 335.669
L344.304 336.004
L344.75 305.612
L345.197 335.82
L345.643 336.07
L346.09 328.303
L346.536 334.782
L346.982 334.664
L347.429 333.174
L347.875 334.974
L348.322 332.537
L348.768 328.037
L349.214 340.998
L349.661 332.789
L350.107 334.485
L350.554 328.762
L351 339.484
L351.446 334.611
L351.893 335.082
L352.339 332.637
L352.786 335.519
L353.232 335.012
L353.678 332.794
L354.125 307.727
L354.571 335.695
L355.464 329.268
L355.91 336.266
L356.357 339.741
L356.803 335.678
L357.25 335.609
L357.696 326.623
L358.142 341.619
L358.589 335.808
L359.035 333.201
L359.482 329.266
L359.928 342.278
L360.374 333.04
L360.821 335.831
L361.267 335.62
L361.714 333.71
L362.16 335.662
L362.606 325.134
L363.053 333.84
L363.499 335.285
L363.946 335.541
L364.392 333.349
L364.838 335.569
L365.285 335.658
L365.731 333.322
L366.178 335.589
L366.624 335.755
L367.07 333.404
L367.517 335.477
L367.963 335.825
L368.41 333.749
L368.856 335.296
L369.302 335.631
L369.749 333.929
L370.195 335.845
L370.642 342.74
L371.088 307.427
L371.534 328.267
L371.981 340.96
L372.427 326.168
L372.874 342.099
L373.32 334.724
L373.766 332.608
L374.213 334.618
L374.659 332.765
L375.106 334.976
L375.552 335.166
L375.998 332.453
L376.445 335.145
L376.891 335.018
L377.338 332.52
L377.784 335.32
L378.23 334.453
L378.677 333.146
L379.123 309.91
L379.57 335.444
L380.016 333.846
L380.462 333.713
L380.909 330.515
L381.355 340.275
L382.248 328.869
L382.694 339.693
L383.141 342.886
L383.587 335.507
L384.034 333.392
L384.48 329.468
L384.926 342.532
L385.373 333.167
L385.819 328.983
L386.266 341.923
L386.712 333.656
L387.158 335.235
L387.605 310.955
L388.051 334.397
L388.498 336.908
L388.944 336.675
L389.39 337.152
L389.837 334.52
L390.283 337.066
L390.73 344.35
L391.176 327.684
L391.622 343.631
L392.069 336.552
L392.515 336.965
L392.962 335.214
L393.408 336.593
L393.854 336.689
L394.301 334.586
L394.747 336.585
L395.194 336.936
L395.64 334.577
L396.086 322.625
L396.533 337.159
L396.979 344.037
L397.426 334.509
L397.872 337.22
L398.318 336.992
L398.765 334.851
L399.211 337.106
L399.658 253.922
L400.104 336.843
L400.55 334.324
L400.997 336.702
L401.443 336.811
L401.89 335.26
L402.336 336.686
L402.782 337.041
L403.229 336.857
L403.675 334.588
L404.122 336.705
L404.568 337.466
L405.014 330.457
L405.461 335.744
L405.907 335.694
L406.354 333.541
L406.8 335.803
L407.246 335.839
L407.693 333.595
L408.139 335.748
L408.586 335.79
L409.032 333.758
L409.478 328.947
L409.925 342.803
L410.371 333.433
L410.818 335.761
L411.264 335.978
L411.71 333.427
L412.157 329.36
L412.603 342.077
L413.05 329.394
L413.496 335.335
L413.942 337.917
L414.389 332.907
L414.835 334.809
L415.282 335.179
L415.728 333.376
L416.174 334.723
L416.621 334.962
L417.067 332.983
L417.514 335.285
L417.96 332.499
L418.406 335.197
L418.853 335.036
L419.299 332.993
L419.746 334.961
L420.192 342.693
L420.638 332.83
L421.085 335.315
L421.531 307.848
L421.978 333.613
L422.424 336.004
L422.87 335.585
L423.317 327.294
L423.763 335.877
L424.21 342.258
L424.656 333.596
L425.102 335.997
L425.549 335.399
L425.995 333.623
L426.442 335.864
L426.888 335.518
L427.334 333.527
L427.781 343.402
L428.227 335.797
L428.674 333.59
L429.12 338.417
L429.566 335.851
L430.013 321.324
L430.459 315.013
L430.906 334.916
L431.352 337.157
L431.798 335.614
L432.245 335.274
L432.691 334.207
L433.138 339.337
L433.584 335.441
L434.03 333.772
L434.477 335.506
L434.923 335.857
L435.37 333.519
L435.816 329.319
L436.262 342.557
L436.709 332.958
L437.155 336.004
L437.602 335.397
L438.048 333.642
L438.494 335.806
L438.941 335.311
L439.387 308.074
L439.834 335.17
L440.28 334.955
L440.726 332.846
L441.173 335.183
L441.619 334.916
L442.066 332.364
L442.512 335.208
L442.958 335.187
L443.405 332.728
L443.851 335.342
L444.298 334.726
L444.744 332.75
L445.19 335.107
L445.637 332.928
L446.083 334.889
L446.53 328.798
L446.976 339.107
L447.422 327.884
L447.869 341.174
L448.315 308.147
L448.762 335.535
L449.208 335.607
L449.654 333.728
L450.101 335.957
L450.547 335.969
L450.994 341.212
L451.44 335.919
L451.886 335.92
L452.333 333.147
L452.779 335.993
L453.226 335.864
L453.672 333.754
L454.118 335.71
L454.565 336.141
L455.011 333.37
L455.904 339.398
L456.35 333.91
L456.797 335.793
L457.243 328.554
L457.69 315.068
L458.136 336.466
L458.582 336.922
L459.029 337.201
L459.475 327.59
L459.922 343.826
L460.368 336.607
L460.814 334.628
L461.707 212.284
L462.154 337.608
L462.6 313.448
L463.046 312.291
L463.493 320.274
L463.939 336.679
L464.386 337.102
L464.832 334.82
L465.278 336.566
L465.725 344.378
L466.171 334.777
L466.618 336.711
L467.064 337.245
L467.51 339.405
L467.957 334.441
L468.403 323.04
L468.85 322.369
L469.296 335.97
L469.742 335.774
L470.189 333.977
L470.635 335.541
L471.082 336.146
L471.528 340.85
L471.974 335.43
L472.421 336.266
L472.867 309.188
L473.314 336.444
L473.76 337.077
L474.206 336.766
L474.653 334.388
L475.099 336.707
L475.546 336.967
L475.992 312.543
L476.438 335.901
L476.885 333.306
L477.331 336.063
L477.778 335.084
L478.224 330.371
L478.67 335.128
L479.117 335.124
L479.563 333.066
L480.01 335.041
L480.456 328.647
L480.902 339.536
L481.349 334.615
L481.795 335.092
L482.242 332.875
L482.688 335.234
L483.134 333.069
L484.027 335.797
L484.474 332.514
L484.92 335.485
L485.366 334.953
L485.813 332.919
L486.259 335.13
L486.706 300.58
L487.152 340.054
L487.598 335.875
L488.045 335.968
L488.491 333.859
L488.938 339.697
L489.384 335.809
L489.83 333.645
L490.277 335.554
L490.723 335.826
L491.17 333.721
L491.616 336.062
L492.062 335.737
L492.509 333.599
L492.955 335.877
L493.402 329.037
L493.848 346.83
L494.294 335.609
L494.741 335.8
L495.187 323.726
L495.634 336.048
L496.08 336.121
L496.526 333.71
L496.973 335.521
L497.866 337.332
L498.312 335.764
L498.758 335.927
L499.205 333.611
L499.651 335.872
L500.098 335.7
L500.544 333.887
L500.99 335.543
L501.437 335.765
L501.883 333.37
L502.33 336.048
L502.776 335.617
L503.222 333.528
L503.669 335.872
L504.115 335.85
L504.562 307.471
L505.008 342.695
L505.454 335.21
L505.901 332.827
L506.347 335.534
L506.794 330.999
L507.24 339.916
L507.686 334.658
L508.133 335.359
L508.579 333.13
L509.026 334.9
L509.472 335.458
L509.918 332.658
L510.365 342.472
L510.811 332.958
L511.258 335.131
L511.704 335.265
L512.15 332.7
L512.597 335.454
L513.043 342.432
L513.49 307.689
L513.936 335.627
L514.382 336.441
L514.829 333.408
L515.275 335.602
L515.722 335.841
L516.168 333.85
L516.614 335.657
L517.061 335.939
L517.507 333.361
L517.954 335.843
L517.954 335.843" style="fill:none;opacity:0.5;stroke:#0000ff;"/>
   </g>
   <g id="matplotlib.axis_1">
    <g id="xtick_1">
     <g id="line2d_4">
      <path clip-path="url(#p7ff5b81e1d)" d="
M72 388.8
L72 43.2" style="fill:none;stroke:#000000;stroke-dasharray:1.000000,3.000000;stroke-dashoffset:0.0;stroke-linecap:butt;stroke-width:0.5;"/>
     </g>
     <g id="line2d_5">
      <defs>
       <path d="
M0 0
L0 -4" id="m0012dd4eef" style="stroke:#000000;stroke-linecap:butt;stroke-width:0.5;"/>
      </defs>
      <g>
       <use style="stroke:#000000;stroke-linecap:butt;stroke-width:0.5;" x="72.0" xlink:href="#m0012dd4eef" y="388.8"/>
      </g>
     </g>
     <g id="line2d_6">
      <defs>
       <path d="
M0 0
L0 4" id="m476344969c" style="stroke:#000000;stroke-linecap:butt;stroke-width:0.5;"/>
      </defs>
      <g>
       <use style="stroke:#000000;stroke-linecap:butt;stroke-width:0.5;" x="72.0" xlink:href="#m476344969c" y="43.2"/>
      </g>
     </g>
     <g id="text_1">
      <!-- 0 -->
      <defs>
       <path d="
M31.7812 66.4062
Q24.1719 66.4062 20.3281 58.9062
Q16.5 51.4219 16.5 36.375
Q16.5 21.3906 20.3281 13.8906
Q24.1719 6.39062 31.7812 6.39062
Q39.4531 6.39062 43.2812 13.8906
Q47.125 21.3906 47.125 36.375
Q47.125 51.4219 43.2812 58.9062
Q39.4531 66.4062 31.7812 66.4062
M31.7812 74.2188
Q44.0469 74.2188 50.5156 64.5156
Q56.9844 54.8281 56.9844 36.375
Q56.9844 17.9688 50.5156 8.26562
Q44.0469 -1.42188 31.7812 -1.42188
Q19.5312 -1.42188 13.0625 8.26562
Q6.59375 17.9688 6.59375 36.375
Q6.59375 54.8281 13.0625 64.5156
Q19.5312 74.2188 31.7812 74.2188" id="BitstreamVeraSans-Roman-30"/>
      </defs>
      <g transform="translate(68.9765625 401.70625)scale(0.12 -0.12)">
       <use xlink:href="#BitstreamVeraSans-Roman-30"/>
      </g>
     </g>
    </g>
    <g id="xtick_2">
     <g id="line2d_7">
      <path clip-path="url(#p7ff5b81e1d)" d="
M116.64 388.8
L116.64 43.2" style="fill:none;stroke:#000000;stroke-dasharray:1.000000,3.000000;stroke-dashoffset:0.0;stroke-linecap:butt;stroke-width:0.5;"/>
     </g>
     <g id="line2d_8">
      <g>
       <use style="stroke:#000000;stroke-linecap:butt;stroke-width:0.5;" x="116.64" xlink:href="#m0012dd4eef" y="388.8"/>
      </g>
     </g>
     <g id="line2d_9">
      <g>
       <use style="stroke:#000000;stroke-linecap:butt;stroke-width:0.5;" x="116.64" xlink:href="#m476344969c" y="43.2"/>
      </g>
     </g>
     <g id="text_2">
      <!-- 100 -->
      <defs>
       <path d="
M12.4062 8.29688
L28.5156 8.29688
L28.5156 63.9219
L10.9844 60.4062
L10.9844 69.3906
L28.4219 72.9062
L38.2812 72.9062
L38.2812 8.29688
L54.3906 8.29688
L54.3906 0
L12.4062 0
z
" id="BitstreamVeraSans-Roman-31"/>
      </defs>
      <g transform="translate(106.245 401.70625)scale(0.12 -0.12)">
       <use xlink:href="#BitstreamVeraSans-Roman-31"/>
       <use x="63.623046875" xlink:href="#BitstreamVeraSans-Roman-30"/>
       <use x="127.24609375" xlink:href="#BitstreamVeraSans-Roman-30"/>
      </g>
     </g>
    </g>
    <g id="xtick_3">
     <g id="line2d_10">
      <path clip-path="url(#p7ff5b81e1d)" d="
M161.28 388.8
L161.28 43.2" style="fill:none;stroke:#000000;stroke-dasharray:1.000000,3.000000;stroke-dashoffset:0.0;stroke-linecap:butt;stroke-width:0.5;"/>
     </g>
     <g id="line2d_11">
      <g>
       <use style="stroke:#000000;stroke-linecap:butt;stroke-width:0.5;" x="161.28" xlink:href="#m0012dd4eef" y="388.8"/>
      </g>
     </g>
     <g id="line2d_12">
      <g>
       <use style="stroke:#000000;stroke-linecap:butt;stroke-width:0.5;" x="161.28" xlink:href="#m476344969c" y="43.2"/>
      </g>
     </g>
     <g id="text_3">
      <!-- 200 -->
      <defs>
       <path d="
M19.1875 8.29688
L53.6094 8.29688
L53.6094 0
L7.32812 0
L7.32812 8.29688
Q12.9375 14.1094 22.625 23.8906
Q32.3281 33.6875 34.8125 36.5312
Q39.5469 41.8438 41.4219 45.5312
Q43.3125 49.2188 43.3125 52.7812
Q43.3125 58.5938 39.2344 62.25
Q35.1562 65.9219 28.6094 65.9219
Q23.9688 65.9219 18.8125 64.3125
Q13.6719 62.7031 7.8125 59.4219
L7.8125 69.3906
Q13.7656 71.7812 18.9375 73
Q24.125 74.2188 28.4219 74.2188
Q39.75 74.2188 46.4844 68.5469
Q53.2188 62.8906 53.2188 53.4219
Q53.2188 48.9219 51.5312 44.8906
Q49.8594 40.875 45.4062 35.4062
Q44.1875 33.9844 37.6406 27.2188
Q31.1094 20.4531 19.1875 8.29688" id="BitstreamVeraSans-Roman-32"/>
      </defs>
      <g transform="translate(150.665625 401.70625)scale(0.12 -0.12)">
       <use xlink:href="#BitstreamVeraSans-Roman-32"/>
       <use x="63.623046875" xlink:href="#BitstreamVeraSans-Roman-30"/>
       <use x="127.24609375" xlink:href="#BitstreamVeraSans-Roman-30"/>
      </g>
     </g>
    </g>
    <g id="xtick_4">
     <g id="line2d_13">
      <path clip-path="url(#p7ff5b81e1d)" d="
M205.92 388.8
L205.92 43.2" style="fill:none;stroke:#000000;stroke-dasharray:1.000000,3.000000;stroke-dashoffset:0.0;stroke-linecap:butt;stroke-width:0.5;"/>
     </g>
     <g id="line2d_14">
      <g>
       <use style="stroke:#000000;stroke-linecap:butt;stroke-width:0.5;" x="205.92" xlink:href="#m0012dd4eef" y="388.8"/>
      </g>
     </g>
     <g id="line2d_15">
      <g>
       <use style="stroke:#000000;stroke-linecap:butt;stroke-width:0.5;" x="205.92" xlink:href="#m476344969c" y="43.2"/>
      </g>
     </g>
     <g id="text_4">
      <!-- 300 -->
      <defs>
       <path d="
M40.5781 39.3125
Q47.6562 37.7969 51.625 33
Q55.6094 28.2188 55.6094 21.1875
Q55.6094 10.4062 48.1875 4.48438
Q40.7656 -1.42188 27.0938 -1.42188
Q22.5156 -1.42188 17.6562 -0.515625
Q12.7969 0.390625 7.625 2.20312
L7.625 11.7188
Q11.7188 9.32812 16.5938 8.10938
Q21.4844 6.89062 26.8125 6.89062
Q36.0781 6.89062 40.9375 10.5469
Q45.7969 14.2031 45.7969 21.1875
Q45.7969 27.6406 41.2812 31.2656
Q36.7656 34.9062 28.7188 34.9062
L20.2188 34.9062
L20.2188 43.0156
L29.1094 43.0156
Q36.375 43.0156 40.2344 45.9219
Q44.0938 48.8281 44.0938 54.2969
Q44.0938 59.9062 40.1094 62.9062
Q36.1406 65.9219 28.7188 65.9219
Q24.6562 65.9219 20.0156 65.0312
Q15.375 64.1562 9.8125 62.3125
L9.8125 71.0938
Q15.4375 72.6562 20.3438 73.4375
Q25.25 74.2188 29.5938 74.2188
Q40.8281 74.2188 47.3594 69.1094
Q53.9062 64.0156 53.9062 55.3281
Q53.9062 49.2656 50.4375 45.0938
Q46.9688 40.9219 40.5781 39.3125" id="BitstreamVeraSans-Roman-33"/>
      </defs>
      <g transform="translate(195.3234375 401.70625)scale(0.12 -0.12)">
       <use xlink:href="#BitstreamVeraSans-Roman-33"/>
       <use x="63.623046875" xlink:href="#BitstreamVeraSans-Roman-30"/>
       <use x="127.24609375" xlink:href="#BitstreamVeraSans-Roman-30"/>
      </g>
     </g>
    </g>
    <g id="xtick_5">
     <g id="line2d_16">
      <path clip-path="url(#p7ff5b81e1d)" d="
M250.56 388.8
L250.56 43.2" style="fill:none;stroke:#000000;stroke-dasharray:1.000000,3.000000;stroke-dashoffset:0.0;stroke-linecap:butt;stroke-width:0.5;"/>
     </g>
     <g id="line2d_17">
      <g>
       <use style="stroke:#000000;stroke-linecap:butt;stroke-width:0.5;" x="250.56" xlink:href="#m0012dd4eef" y="388.8"/>
      </g>
     </g>
     <g id="line2d_18">
      <g>
       <use style="stroke:#000000;stroke-linecap:butt;stroke-width:0.5;" x="250.56" xlink:href="#m476344969c" y="43.2"/>
      </g>
     </g>
     <g id="text_5">
      <!-- 400 -->
      <defs>
       <path d="
M37.7969 64.3125
L12.8906 25.3906
L37.7969 25.3906
z

M35.2031 72.9062
L47.6094 72.9062
L47.6094 25.3906
L58.0156 25.3906
L58.0156 17.1875
L47.6094 17.1875
L47.6094 0
L37.7969 0
L37.7969 17.1875
L4.89062 17.1875
L4.89062 26.7031
z
" id="BitstreamVeraSans-Roman-34"/>
      </defs>
      <g transform="translate(239.799375 401.70625)scale(0.12 -0.12)">
       <use xlink:href="#BitstreamVeraSans-Roman-34"/>
       <use x="63.623046875" xlink:href="#BitstreamVeraSans-Roman-30"/>
       <use x="127.24609375" xlink:href="#BitstreamVeraSans-Roman-30"/>
      </g>
     </g>
    </g>
    <g id="xtick_6">
     <g id="line2d_19">
      <path clip-path="url(#p7ff5b81e1d)" d="
M295.2 388.8
L295.2 43.2" style="fill:none;stroke:#000000;stroke-dasharray:1.000000,3.000000;stroke-dashoffset:0.0;stroke-linecap:butt;stroke-width:0.5;"/>
     </g>
     <g id="line2d_20">
      <g>
       <use style="stroke:#000000;stroke-linecap:butt;stroke-width:0.5;" x="295.2" xlink:href="#m0012dd4eef" y="388.8"/>
      </g>
     </g>
     <g id="line2d_21">
      <g>
       <use style="stroke:#000000;stroke-linecap:butt;stroke-width:0.5;" x="295.2" xlink:href="#m476344969c" y="43.2"/>
      </g>
     </g>
     <g id="text_6">
      <!-- 500 -->
      <defs>
       <path d="
M10.7969 72.9062
L49.5156 72.9062
L49.5156 64.5938
L19.8281 64.5938
L19.8281 46.7344
Q21.9688 47.4688 24.1094 47.8281
Q26.2656 48.1875 28.4219 48.1875
Q40.625 48.1875 47.75 41.5
Q54.8906 34.8125 54.8906 23.3906
Q54.8906 11.625 47.5625 5.09375
Q40.2344 -1.42188 26.9062 -1.42188
Q22.3125 -1.42188 17.5469 -0.640625
Q12.7969 0.140625 7.71875 1.70312
L7.71875 11.625
Q12.1094 9.23438 16.7969 8.0625
Q21.4844 6.89062 26.7031 6.89062
Q35.1562 6.89062 40.0781 11.3281
Q45.0156 15.7656 45.0156 23.3906
Q45.0156 31 40.0781 35.4375
Q35.1562 39.8906 26.7031 39.8906
Q22.75 39.8906 18.8125 39.0156
Q14.8906 38.1406 10.7969 36.2812
z
" id="BitstreamVeraSans-Roman-35"/>
      </defs>
      <g transform="translate(284.6090625 401.70625)scale(0.12 -0.12)">
       <use xlink:href="#BitstreamVeraSans-Roman-35"/>
       <use x="63.623046875" xlink:href="#BitstreamVeraSans-Roman-30"/>
       <use x="127.24609375" xlink:href="#BitstreamVeraSans-Roman-30"/>
      </g>
     </g>
    </g>
    <g id="xtick_7">
     <g id="line2d_22">
      <path clip-path="url(#p7ff5b81e1d)" d="
M339.84 388.8
L339.84 43.2" style="fill:none;stroke:#000000;stroke-dasharray:1.000000,3.000000;stroke-dashoffset:0.0;stroke-linecap:butt;stroke-width:0.5;"/>
     </g>
     <g id="line2d_23">
      <g>
       <use style="stroke:#000000;stroke-linecap:butt;stroke-width:0.5;" x="339.84" xlink:href="#m0012dd4eef" y="388.8"/>
      </g>
     </g>
     <g id="line2d_24">
      <g>
       <use style="stroke:#000000;stroke-linecap:butt;stroke-width:0.5;" x="339.84" xlink:href="#m476344969c" y="43.2"/>
      </g>
     </g>
     <g id="text_7">
      <!-- 600 -->
      <defs>
       <path d="
M33.0156 40.375
Q26.375 40.375 22.4844 35.8281
Q18.6094 31.2969 18.6094 23.3906
Q18.6094 15.5312 22.4844 10.9531
Q26.375 6.39062 33.0156 6.39062
Q39.6562 6.39062 43.5312 10.9531
Q47.4062 15.5312 47.4062 23.3906
Q47.4062 31.2969 43.5312 35.8281
Q39.6562 40.375 33.0156 40.375
M52.5938 71.2969
L52.5938 62.3125
Q48.875 64.0625 45.0938 64.9844
Q41.3125 65.9219 37.5938 65.9219
Q27.8281 65.9219 22.6719 59.3281
Q17.5312 52.7344 16.7969 39.4062
Q19.6719 43.6562 24.0156 45.9219
Q28.375 48.1875 33.5938 48.1875
Q44.5781 48.1875 50.9531 41.5156
Q57.3281 34.8594 57.3281 23.3906
Q57.3281 12.1562 50.6875 5.35938
Q44.0469 -1.42188 33.0156 -1.42188
Q20.3594 -1.42188 13.6719 8.26562
Q6.98438 17.9688 6.98438 36.375
Q6.98438 53.6562 15.1875 63.9375
Q23.3906 74.2188 37.2031 74.2188
Q40.9219 74.2188 44.7031 73.4844
Q48.4844 72.75 52.5938 71.2969" id="BitstreamVeraSans-Roman-36"/>
      </defs>
      <g transform="translate(329.205 401.70625)scale(0.12 -0.12)">
       <use xlink:href="#BitstreamVeraSans-Roman-36"/>
       <use x="63.623046875" xlink:href="#BitstreamVeraSans-Roman-30"/>
       <use x="127.24609375" xlink:href="#BitstreamVeraSans-Roman-30"/>
      </g>
     </g>
    </g>
    <g id="xtick_8">
     <g id="line2d_25">
      <path clip-path="url(#p7ff5b81e1d)" d="
M384.48 388.8
L384.48 43.2" style="fill:none;stroke:#000000;stroke-dasharray:1.000000,3.000000;stroke-dashoffset:0.0;stroke-linecap:butt;stroke-width:0.5;"/>
     </g>
     <g id="line2d_26">
      <g>
       <use style="stroke:#000000;stroke-linecap:butt;stroke-width:0.5;" x="384.48" xlink:href="#m0012dd4eef" y="388.8"/>
      </g>
     </g>
     <g id="line2d_27">
      <g>
       <use style="stroke:#000000;stroke-linecap:butt;stroke-width:0.5;" x="384.48" xlink:href="#m476344969c" y="43.2"/>
      </g>
     </g>
     <g id="text_8">
      <!-- 700 -->
      <defs>
       <path d="
M8.20312 72.9062
L55.0781 72.9062
L55.0781 68.7031
L28.6094 0
L18.3125 0
L43.2188 64.5938
L8.20312 64.5938
z
" id="BitstreamVeraSans-Roman-37"/>
      </defs>
      <g transform="translate(373.918125 401.70625)scale(0.12 -0.12)">
       <use xlink:href="#BitstreamVeraSans-Roman-37"/>
       <use x="63.623046875" xlink:href="#BitstreamVeraSans-Roman-30"/>
       <use x="127.24609375" xlink:href="#BitstreamVeraSans-Roman-30"/>
      </g>
     </g>
    </g>
    <g id="xtick_9">
     <g id="line2d_28">
      <path clip-path="url(#p7ff5b81e1d)" d="
M429.12 388.8
L429.12 43.2" style="fill:none;stroke:#000000;stroke-dasharray:1.000000,3.000000;stroke-dashoffset:0.0;stroke-linecap:butt;stroke-width:0.5;"/>
     </g>
     <g id="line2d_29">
      <g>
       <use style="stroke:#000000;stroke-linecap:butt;stroke-width:0.5;" x="429.12" xlink:href="#m0012dd4eef" y="388.8"/>
      </g>
     </g>
     <g id="line2d_30">
      <g>
       <use style="stroke:#000000;stroke-linecap:butt;stroke-width:0.5;" x="429.12" xlink:href="#m476344969c" y="43.2"/>
      </g>
     </g>
     <g id="text_9">
      <!-- 800 -->
      <defs>
       <path d="
M31.7812 34.625
Q24.75 34.625 20.7188 30.8594
Q16.7031 27.0938 16.7031 20.5156
Q16.7031 13.9219 20.7188 10.1562
Q24.75 6.39062 31.7812 6.39062
Q38.8125 6.39062 42.8594 10.1719
Q46.9219 13.9688 46.9219 20.5156
Q46.9219 27.0938 42.8906 30.8594
Q38.875 34.625 31.7812 34.625
M21.9219 38.8125
Q15.5781 40.375 12.0312 44.7188
Q8.5 49.0781 8.5 55.3281
Q8.5 64.0625 14.7188 69.1406
Q20.9531 74.2188 31.7812 74.2188
Q42.6719 74.2188 48.875 69.1406
Q55.0781 64.0625 55.0781 55.3281
Q55.0781 49.0781 51.5312 44.7188
Q48 40.375 41.7031 38.8125
Q48.8281 37.1562 52.7969 32.3125
Q56.7812 27.4844 56.7812 20.5156
Q56.7812 9.90625 50.3125 4.23438
Q43.8438 -1.42188 31.7812 -1.42188
Q19.7344 -1.42188 13.25 4.23438
Q6.78125 9.90625 6.78125 20.5156
Q6.78125 27.4844 10.7812 32.3125
Q14.7969 37.1562 21.9219 38.8125
M18.3125 54.3906
Q18.3125 48.7344 21.8438 45.5625
Q25.3906 42.3906 31.7812 42.3906
Q38.1406 42.3906 41.7188 45.5625
Q45.3125 48.7344 45.3125 54.3906
Q45.3125 60.0625 41.7188 63.2344
Q38.1406 66.4062 31.7812 66.4062
Q25.3906 66.4062 21.8438 63.2344
Q18.3125 60.0625 18.3125 54.3906" id="BitstreamVeraSans-Roman-38"/>
      </defs>
      <g transform="translate(418.4728125 401.70625)scale(0.12 -0.12)">
       <use xlink:href="#BitstreamVeraSans-Roman-38"/>
       <use x="63.623046875" xlink:href="#BitstreamVeraSans-Roman-30"/>
       <use x="127.24609375" xlink:href="#BitstreamVeraSans-Roman-30"/>
      </g>
     </g>
    </g>
    <g id="xtick_10">
     <g id="line2d_31">
      <path clip-path="url(#p7ff5b81e1d)" d="
M473.76 388.8
L473.76 43.2" style="fill:none;stroke:#000000;stroke-dasharray:1.000000,3.000000;stroke-dashoffset:0.0;stroke-linecap:butt;stroke-width:0.5;"/>
     </g>
     <g id="line2d_32">
      <g>
       <use style="stroke:#000000;stroke-linecap:butt;stroke-width:0.5;" x="473.76" xlink:href="#m0012dd4eef" y="388.8"/>
      </g>
     </g>
     <g id="line2d_33">
      <g>
       <use style="stroke:#000000;stroke-linecap:butt;stroke-width:0.5;" x="473.76" xlink:href="#m476344969c" y="43.2"/>
      </g>
     </g>
     <g id="text_10">
      <!-- 900 -->
      <defs>
       <path d="
M10.9844 1.51562
L10.9844 10.5
Q14.7031 8.73438 18.5 7.8125
Q22.3125 6.89062 25.9844 6.89062
Q35.75 6.89062 40.8906 13.4531
Q46.0469 20.0156 46.7812 33.4062
Q43.9531 29.2031 39.5938 26.9531
Q35.25 24.7031 29.9844 24.7031
Q19.0469 24.7031 12.6719 31.3125
Q6.29688 37.9375 6.29688 49.4219
Q6.29688 60.6406 12.9375 67.4219
Q19.5781 74.2188 30.6094 74.2188
Q43.2656 74.2188 49.9219 64.5156
Q56.5938 54.8281 56.5938 36.375
Q56.5938 19.1406 48.4062 8.85938
Q40.2344 -1.42188 26.4219 -1.42188
Q22.7031 -1.42188 18.8906 -0.6875
Q15.0938 0.046875 10.9844 1.51562
M30.6094 32.4219
Q37.25 32.4219 41.125 36.9531
Q45.0156 41.5 45.0156 49.4219
Q45.0156 57.2812 41.125 61.8438
Q37.25 66.4062 30.6094 66.4062
Q23.9688 66.4062 20.0938 61.8438
Q16.2188 57.2812 16.2188 49.4219
Q16.2188 41.5 20.0938 36.9531
Q23.9688 32.4219 30.6094 32.4219" id="BitstreamVeraSans-Roman-39"/>
      </defs>
      <g transform="translate(463.08375 401.70625)scale(0.12 -0.12)">
       <use xlink:href="#BitstreamVeraSans-Roman-39"/>
       <use x="63.623046875" xlink:href="#BitstreamVeraSans-Roman-30"/>
       <use x="127.24609375" xlink:href="#BitstreamVeraSans-Roman-30"/>
      </g>
     </g>
    </g>
   </g>
   <g id="matplotlib.axis_2">
    <g id="ytick_1">
     <g id="line2d_34">
      <path clip-path="url(#p7ff5b81e1d)" d="
M72 388.8
L518.4 388.8" style="fill:none;stroke:#000000;stroke-dasharray:1.000000,3.000000;stroke-dashoffset:0.0;stroke-linecap:butt;stroke-width:0.5;"/>
     </g>
     <g id="line2d_35">
      <defs>
       <path d="
M0 0
L4 0" id="me8a85f7bf6" style="stroke:#000000;stroke-linecap:butt;stroke-width:0.5;"/>
      </defs>
      <g>
       <use style="stroke:#000000;stroke-linecap:butt;stroke-width:0.5;" x="72.0" xlink:href="#me8a85f7bf6" y="388.8"/>
      </g>
     </g>
     <g id="line2d_36">
      <defs>
       <path d="
M0 0
L-4 0" id="m1a32005dea" style="stroke:#000000;stroke-linecap:butt;stroke-width:0.5;"/>
      </defs>
      <g>
       <use style="stroke:#000000;stroke-linecap:butt;stroke-width:0.5;" x="518.4" xlink:href="#m1a32005dea" y="388.8"/>
      </g>
     </g>
     <g id="text_11">
      <!-- 0.000 -->
      <defs>
       <path d="
M10.6875 12.4062
L21 12.4062
L21 0
L10.6875 0
z
" id="BitstreamVeraSans-Roman-2e"/>
      </defs>
      <g transform="translate(35.234375 393.1678125)scale(0.12 -0.12)">
       <use xlink:href="#BitstreamVeraSans-Roman-30"/>
       <use x="63.623046875" xlink:href="#BitstreamVeraSans-Roman-2e"/>
       <use x="95.41015625" xlink:href="#BitstreamVeraSans-Roman-30"/>
       <use x="159.033203125" xlink:href="#BitstreamVeraSans-Roman-30"/>
       <use x="222.65625" xlink:href="#BitstreamVeraSans-Roman-30"/>
      </g>
     </g>
    </g>
    <g id="ytick_2">
     <g id="line2d_37">
      <path clip-path="url(#p7ff5b81e1d)" d="
M72 354.24
L518.4 354.24" style="fill:none;stroke:#000000;stroke-dasharray:1.000000,3.000000;stroke-dashoffset:0.0;stroke-linecap:butt;stroke-width:0.5;"/>
     </g>
     <g id="line2d_38">
      <g>
       <use style="stroke:#000000;stroke-linecap:butt;stroke-width:0.5;" x="72.0" xlink:href="#me8a85f7bf6" y="354.24"/>
      </g>
     </g>
     <g id="line2d_39">
      <g>
       <use style="stroke:#000000;stroke-linecap:butt;stroke-width:0.5;" x="518.4" xlink:href="#m1a32005dea" y="354.24"/>
      </g>
     </g>
     <g id="text_12">
      <!-- 0.005 -->
      <g transform="translate(35.485625 358.6078125)scale(0.12 -0.12)">
       <use xlink:href="#BitstreamVeraSans-Roman-30"/>
       <use x="63.623046875" xlink:href="#BitstreamVeraSans-Roman-2e"/>
       <use x="95.41015625" xlink:href="#BitstreamVeraSans-Roman-30"/>
       <use x="159.033203125" xlink:href="#BitstreamVeraSans-Roman-30"/>
       <use x="222.65625" xlink:href="#BitstreamVeraSans-Roman-35"/>
      </g>
     </g>
    </g>
    <g id="ytick_3">
     <g id="line2d_40">
      <path clip-path="url(#p7ff5b81e1d)" d="
M72 319.68
L518.4 319.68" style="fill:none;stroke:#000000;stroke-dasharray:1.000000,3.000000;stroke-dashoffset:0.0;stroke-linecap:butt;stroke-width:0.5;"/>
     </g>
     <g id="line2d_41">
      <g>
       <use style="stroke:#000000;stroke-linecap:butt;stroke-width:0.5;" x="72.0" xlink:href="#me8a85f7bf6" y="319.68"/>
      </g>
     </g>
     <g id="line2d_42">
      <g>
       <use style="stroke:#000000;stroke-linecap:butt;stroke-width:0.5;" x="518.4" xlink:href="#m1a32005dea" y="319.68"/>
      </g>
     </g>
     <g id="text_13">
      <!-- 0.010 -->
      <g transform="translate(35.234375 324.0478125)scale(0.12 -0.12)">
       <use xlink:href="#BitstreamVeraSans-Roman-30"/>
       <use x="63.623046875" xlink:href="#BitstreamVeraSans-Roman-2e"/>
       <use x="95.41015625" xlink:href="#BitstreamVeraSans-Roman-30"/>
       <use x="159.033203125" xlink:href="#BitstreamVeraSans-Roman-31"/>
       <use x="222.65625" xlink:href="#BitstreamVeraSans-Roman-30"/>
      </g>
     </g>
    </g>
    <g id="ytick_4">
     <g id="line2d_43">
      <path clip-path="url(#p7ff5b81e1d)" d="
M72 285.12
L518.4 285.12" style="fill:none;stroke:#000000;stroke-dasharray:1.000000,3.000000;stroke-dashoffset:0.0;stroke-linecap:butt;stroke-width:0.5;"/>
     </g>
     <g id="line2d_44">
      <g>
       <use style="stroke:#000000;stroke-linecap:butt;stroke-width:0.5;" x="72.0" xlink:href="#me8a85f7bf6" y="285.12"/>
      </g>
     </g>
     <g id="line2d_45">
      <g>
       <use style="stroke:#000000;stroke-linecap:butt;stroke-width:0.5;" x="518.4" xlink:href="#m1a32005dea" y="285.12"/>
      </g>
     </g>
     <g id="text_14">
      <!-- 0.015 -->
      <g transform="translate(35.485625 289.4878125)scale(0.12 -0.12)">
       <use xlink:href="#BitstreamVeraSans-Roman-30"/>
       <use x="63.623046875" xlink:href="#BitstreamVeraSans-Roman-2e"/>
       <use x="95.41015625" xlink:href="#BitstreamVeraSans-Roman-30"/>
       <use x="159.033203125" xlink:href="#BitstreamVeraSans-Roman-31"/>
       <use x="222.65625" xlink:href="#BitstreamVeraSans-Roman-35"/>
      </g>
     </g>
    </g>
    <g id="ytick_5">
     <g id="line2d_46">
      <path clip-path="url(#p7ff5b81e1d)" d="
M72 250.56
L518.4 250.56" style="fill:none;stroke:#000000;stroke-dasharray:1.000000,3.000000;stroke-dashoffset:0.0;stroke-linecap:butt;stroke-width:0.5;"/>
     </g>
     <g id="line2d_47">
      <g>
       <use style="stroke:#000000;stroke-linecap:butt;stroke-width:0.5;" x="72.0" xlink:href="#me8a85f7bf6" y="250.56"/>
      </g>
     </g>
     <g id="line2d_48">
      <g>
       <use style="stroke:#000000;stroke-linecap:butt;stroke-width:0.5;" x="518.4" xlink:href="#m1a32005dea" y="250.56"/>
      </g>
     </g>
     <g id="text_15">
      <!-- 0.020 -->
      <g transform="translate(35.234375 254.9278125)scale(0.12 -0.12)">
       <use xlink:href="#BitstreamVeraSans-Roman-30"/>
       <use x="63.623046875" xlink:href="#BitstreamVeraSans-Roman-2e"/>
       <use x="95.41015625" xlink:href="#BitstreamVeraSans-Roman-30"/>
       <use x="159.033203125" xlink:href="#BitstreamVeraSans-Roman-32"/>
       <use x="222.65625" xlink:href="#BitstreamVeraSans-Roman-30"/>
      </g>
     </g>
    </g>
    <g id="ytick_6">
     <g id="line2d_49">
      <path clip-path="url(#p7ff5b81e1d)" d="
M72 216
L518.4 216" style="fill:none;stroke:#000000;stroke-dasharray:1.000000,3.000000;stroke-dashoffset:0.0;stroke-linecap:butt;stroke-width:0.5;"/>
     </g>
     <g id="line2d_50">
      <g>
       <use style="stroke:#000000;stroke-linecap:butt;stroke-width:0.5;" x="72.0" xlink:href="#me8a85f7bf6" y="216.0"/>
      </g>
     </g>
     <g id="line2d_51">
      <g>
       <use style="stroke:#000000;stroke-linecap:butt;stroke-width:0.5;" x="518.4" xlink:href="#m1a32005dea" y="216.0"/>
      </g>
     </g>
     <g id="text_16">
      <!-- 0.025 -->
      <g transform="translate(35.485625 220.3678125)scale(0.12 -0.12)">
       <use xlink:href="#BitstreamVeraSans-Roman-30"/>
       <use x="63.623046875" xlink:href="#BitstreamVeraSans-Roman-2e"/>
       <use x="95.41015625" xlink:href="#BitstreamVeraSans-Roman-30"/>
       <use x="159.033203125" xlink:href="#BitstreamVeraSans-Roman-32"/>
       <use x="222.65625" xlink:href="#BitstreamVeraSans-Roman-35"/>
      </g>
     </g>
    </g>
    <g id="ytick_7">
     <g id="line2d_52">
      <path clip-path="url(#p7ff5b81e1d)" d="
M72 181.44
L518.4 181.44" style="fill:none;stroke:#000000;stroke-dasharray:1.000000,3.000000;stroke-dashoffset:0.0;stroke-linecap:butt;stroke-width:0.5;"/>
     </g>
     <g id="line2d_53">
      <g>
       <use style="stroke:#000000;stroke-linecap:butt;stroke-width:0.5;" x="72.0" xlink:href="#me8a85f7bf6" y="181.44"/>
      </g>
     </g>
     <g id="line2d_54">
      <g>
       <use style="stroke:#000000;stroke-linecap:butt;stroke-width:0.5;" x="518.4" xlink:href="#m1a32005dea" y="181.44"/>
      </g>
     </g>
     <g id="text_17">
      <!-- 0.030 -->
      <g transform="translate(35.234375 185.8078125)scale(0.12 -0.12)">
       <use xlink:href="#BitstreamVeraSans-Roman-30"/>
       <use x="63.623046875" xlink:href="#BitstreamVeraSans-Roman-2e"/>
       <use x="95.41015625" xlink:href="#BitstreamVeraSans-Roman-30"/>
       <use x="159.033203125" xlink:href="#BitstreamVeraSans-Roman-33"/>
       <use x="222.65625" xlink:href="#BitstreamVeraSans-Roman-30"/>
      </g>
     </g>
    </g>
    <g id="ytick_8">
     <g id="line2d_55">
      <path clip-path="url(#p7ff5b81e1d)" d="
M72 146.88
L518.4 146.88" style="fill:none;stroke:#000000;stroke-dasharray:1.000000,3.000000;stroke-dashoffset:0.0;stroke-linecap:butt;stroke-width:0.5;"/>
     </g>
     <g id="line2d_56">
      <g>
       <use style="stroke:#000000;stroke-linecap:butt;stroke-width:0.5;" x="72.0" xlink:href="#me8a85f7bf6" y="146.88"/>
      </g>
     </g>
     <g id="line2d_57">
      <g>
       <use style="stroke:#000000;stroke-linecap:butt;stroke-width:0.5;" x="518.4" xlink:href="#m1a32005dea" y="146.88"/>
      </g>
     </g>
     <g id="text_18">
      <!-- 0.035 -->
      <g transform="translate(35.485625 151.2478125)scale(0.12 -0.12)">
       <use xlink:href="#BitstreamVeraSans-Roman-30"/>
       <use x="63.623046875" xlink:href="#BitstreamVeraSans-Roman-2e"/>
       <use x="95.41015625" xlink:href="#BitstreamVeraSans-Roman-30"/>
       <use x="159.033203125" xlink:href="#BitstreamVeraSans-Roman-33"/>
       <use x="222.65625" xlink:href="#BitstreamVeraSans-Roman-35"/>
      </g>
     </g>
    </g>
    <g id="ytick_9">
     <g id="line2d_58">
      <path clip-path="url(#p7ff5b81e1d)" d="
M72 112.32
L518.4 112.32" style="fill:none;stroke:#000000;stroke-dasharray:1.000000,3.000000;stroke-dashoffset:0.0;stroke-linecap:butt;stroke-width:0.5;"/>
     </g>
     <g id="line2d_59">
      <g>
       <use style="stroke:#000000;stroke-linecap:butt;stroke-width:0.5;" x="72.0" xlink:href="#me8a85f7bf6" y="112.32"/>
      </g>
     </g>
     <g id="line2d_60">
      <g>
       <use style="stroke:#000000;stroke-linecap:butt;stroke-width:0.5;" x="518.4" xlink:href="#m1a32005dea" y="112.32"/>
      </g>
     </g>
     <g id="text_19">
      <!-- 0.040 -->
      <g transform="translate(35.234375 116.6878125)scale(0.12 -0.12)">
       <use xlink:href="#BitstreamVeraSans-Roman-30"/>
       <use x="63.623046875" xlink:href="#BitstreamVeraSans-Roman-2e"/>
       <use x="95.41015625" xlink:href="#BitstreamVeraSans-Roman-30"/>
       <use x="159.033203125" xlink:href="#BitstreamVeraSans-Roman-34"/>
       <use x="222.65625" xlink:href="#BitstreamVeraSans-Roman-30"/>
      </g>
     </g>
    </g>
    <g id="ytick_10">
     <g id="line2d_61">
      <path clip-path="url(#p7ff5b81e1d)" d="
M72 77.76
L518.4 77.76" style="fill:none;stroke:#000000;stroke-dasharray:1.000000,3.000000;stroke-dashoffset:0.0;stroke-linecap:butt;stroke-width:0.5;"/>
     </g>
     <g id="line2d_62">
      <g>
       <use style="stroke:#000000;stroke-linecap:butt;stroke-width:0.5;" x="72.0" xlink:href="#me8a85f7bf6" y="77.76"/>
      </g>
     </g>
     <g id="line2d_63">
      <g>
       <use style="stroke:#000000;stroke-linecap:butt;stroke-width:0.5;" x="518.4" xlink:href="#m1a32005dea" y="77.76"/>
      </g>
     </g>
     <g id="text_20">
      <!-- 0.045 -->
      <g transform="translate(35.485625 82.1278125)scale(0.12 -0.12)">
       <use xlink:href="#BitstreamVeraSans-Roman-30"/>
       <use x="63.623046875" xlink:href="#BitstreamVeraSans-Roman-2e"/>
       <use x="95.41015625" xlink:href="#BitstreamVeraSans-Roman-30"/>
       <use x="159.033203125" xlink:href="#BitstreamVeraSans-Roman-34"/>
       <use x="222.65625" xlink:href="#BitstreamVeraSans-Roman-35"/>
      </g>
     </g>
    </g>
    <g id="text_21">
     <!-- Sec/file -->
     <defs>
      <path d="
M9.42188 75.9844
L18.4062 75.9844
L18.4062 0
L9.42188 0
z
" id="BitstreamVeraSans-Roman-6c"/>
      <path d="
M53.5156 70.5156
L53.5156 60.8906
Q47.9062 63.5781 42.9219 64.8906
Q37.9375 66.2188 33.2969 66.2188
Q25.25 66.2188 20.875 63.0938
Q16.5 59.9688 16.5 54.2031
Q16.5 49.3594 19.4062 46.8906
Q22.3125 44.4375 30.4219 42.9219
L36.375 41.7031
Q47.4062 39.5938 52.6562 34.2969
Q57.9062 29 57.9062 20.125
Q57.9062 9.51562 50.7969 4.04688
Q43.7031 -1.42188 29.9844 -1.42188
Q24.8125 -1.42188 18.9688 -0.25
Q13.1406 0.921875 6.89062 3.21875
L6.89062 13.375
Q12.8906 10.0156 18.6562 8.29688
Q24.4219 6.59375 29.9844 6.59375
Q38.4219 6.59375 43.0156 9.90625
Q47.6094 13.2344 47.6094 19.3906
Q47.6094 24.75 44.3125 27.7812
Q41.0156 30.8125 33.5 32.3281
L27.4844 33.5
Q16.4531 35.6875 11.5156 40.375
Q6.59375 45.0625 6.59375 53.4219
Q6.59375 63.0938 13.4062 68.6562
Q20.2188 74.2188 32.1719 74.2188
Q37.3125 74.2188 42.625 73.2812
Q47.9531 72.3594 53.5156 70.5156" id="BitstreamVeraSans-Roman-53"/>
      <path d="
M9.42188 54.6875
L18.4062 54.6875
L18.4062 0
L9.42188 0
z

M9.42188 75.9844
L18.4062 75.9844
L18.4062 64.5938
L9.42188 64.5938
z
" id="BitstreamVeraSans-Roman-69"/>
      <path d="
M25.3906 72.9062
L33.6875 72.9062
L8.29688 -9.28125
L0 -9.28125
z
" id="BitstreamVeraSans-Roman-2f"/>
      <path d="
M56.2031 29.5938
L56.2031 25.2031
L14.8906 25.2031
Q15.4844 15.9219 20.4844 11.0625
Q25.4844 6.20312 34.4219 6.20312
Q39.5938 6.20312 44.4531 7.46875
Q49.3125 8.73438 54.1094 11.2812
L54.1094 2.78125
Q49.2656 0.734375 44.1875 -0.34375
Q39.1094 -1.42188 33.8906 -1.42188
Q20.7969 -1.42188 13.1562 6.1875
Q5.51562 13.8125 5.51562 26.8125
Q5.51562 40.2344 12.7656 48.1094
Q20.0156 56 32.3281 56
Q43.3594 56 49.7812 48.8906
Q56.2031 41.7969 56.2031 29.5938
M47.2188 32.2344
Q47.125 39.5938 43.0938 43.9844
Q39.0625 48.3906 32.4219 48.3906
Q24.9062 48.3906 20.3906 44.1406
Q15.875 39.8906 15.1875 32.1719
z
" id="BitstreamVeraSans-Roman-65"/>
      <path d="
M37.1094 75.9844
L37.1094 68.5
L28.5156 68.5
Q23.6875 68.5 21.7969 66.5469
Q19.9219 64.5938 19.9219 59.5156
L19.9219 54.6875
L34.7188 54.6875
L34.7188 47.7031
L19.9219 47.7031
L19.9219 0
L10.8906 0
L10.8906 47.7031
L2.29688 47.7031
L2.29688 54.6875
L10.8906 54.6875
L10.8906 58.5
Q10.8906 67.625 15.1406 71.7969
Q19.3906 75.9844 28.6094 75.9844
z
" id="BitstreamVeraSans-Roman-66"/>
      <path d="
M48.7812 52.5938
L48.7812 44.1875
Q44.9688 46.2969 41.1406 47.3438
Q37.3125 48.3906 33.4062 48.3906
Q24.6562 48.3906 19.8125 42.8438
Q14.9844 37.3125 14.9844 27.2969
Q14.9844 17.2812 19.8125 11.7344
Q24.6562 6.20312 33.4062 6.20312
Q37.3125 6.20312 41.1406 7.25
Q44.9688 8.29688 48.7812 10.4062
L48.7812 2.09375
Q45.0156 0.34375 40.9844 -0.53125
Q36.9688 -1.42188 32.4219 -1.42188
Q20.0625 -1.42188 12.7812 6.34375
Q5.51562 14.1094 5.51562 27.2969
Q5.51562 40.6719 12.8594 48.3281
Q20.2188 56 33.0156 56
Q37.1562 56 41.1094 55.1406
Q45.0625 54.2969 48.7812 52.5938" id="BitstreamVeraSans-Roman-63"/>
     </defs>
     <g transform="translate(30.234375 236.13)rotate(-90.0)scale(0.12 -0.12)">
      <use xlink:href="#BitstreamVeraSans-Roman-53"/>
      <use x="63.4765625" xlink:href="#BitstreamVeraSans-Roman-65"/>
      <use x="125.0" xlink:href="#BitstreamVeraSans-Roman-63"/>
      <use x="179.98046875" xlink:href="#BitstreamVeraSans-Roman-2f"/>
      <use x="213.671875" xlink:href="#BitstreamVeraSans-Roman-66"/>
      <use x="248.876953125" xlink:href="#BitstreamVeraSans-Roman-69"/>
      <use x="276.66015625" xlink:href="#BitstreamVeraSans-Roman-6c"/>
      <use x="304.443359375" xlink:href="#BitstreamVeraSans-Roman-65"/>
     </g>
    </g>
   </g>
   <g id="patch_3">
    <path d="
M72 43.2
L518.4 43.2" style="fill:none;stroke:#000000;"/>
   </g>
   <g id="patch_4">
    <path d="
M518.4 388.8
L518.4 43.2" style="fill:none;stroke:#000000;"/>
   </g>
   <g id="patch_5">
    <path d="
M72 388.8
L518.4 388.8" style="fill:none;stroke:#000000;"/>
   </g>
   <g id="patch_6">
    <path d="
M72 388.8
L72 43.2" style="fill:none;stroke:#000000;"/>
   </g>
   <g id="text_22">
    <!-- Rand -->
    <defs>
     <path d="
M54.8906 33.0156
L54.8906 0
L45.9062 0
L45.9062 32.7188
Q45.9062 40.4844 42.875 44.3281
Q39.8438 48.1875 33.7969 48.1875
Q26.5156 48.1875 22.3125 43.5469
Q18.1094 38.9219 18.1094 30.9062
L18.1094 0
L9.07812 0
L9.07812 54.6875
L18.1094 54.6875
L18.1094 46.1875
Q21.3438 51.125 25.7031 53.5625
Q30.0781 56 35.7969 56
Q45.2188 56 50.0469 50.1719
Q54.8906 44.3438 54.8906 33.0156" id="BitstreamVeraSans-Roman-6e"/>
     <path d="
M45.4062 46.3906
L45.4062 75.9844
L54.3906 75.9844
L54.3906 0
L45.4062 0
L45.4062 8.20312
Q42.5781 3.32812 38.25 0.953125
Q33.9375 -1.42188 27.875 -1.42188
Q17.9688 -1.42188 11.7344 6.48438
Q5.51562 14.4062 5.51562 27.2969
Q5.51562 40.1875 11.7344 48.0938
Q17.9688 56 27.875 56
Q33.9375 56 38.25 53.625
Q42.5781 51.2656 45.4062 46.3906
M14.7969 27.2969
Q14.7969 17.3906 18.875 11.75
Q22.9531 6.10938 30.0781 6.10938
Q37.2031 6.10938 41.2969 11.75
Q45.4062 17.3906 45.4062 27.2969
Q45.4062 37.2031 41.2969 42.8438
Q37.2031 48.4844 30.0781 48.4844
Q22.9531 48.4844 18.875 42.8438
Q14.7969 37.2031 14.7969 27.2969" id="BitstreamVeraSans-Roman-64"/>
     <path d="
M44.3906 34.1875
Q47.5625 33.1094 50.5625 29.5938
Q53.5625 26.0781 56.5938 19.9219
L66.6094 0
L56 0
L46.6875 18.7031
Q43.0625 26.0312 39.6719 28.4219
Q36.2812 30.8125 30.4219 30.8125
L19.6719 30.8125
L19.6719 0
L9.8125 0
L9.8125 72.9062
L32.0781 72.9062
Q44.5781 72.9062 50.7344 67.6719
Q56.8906 62.4531 56.8906 51.9062
Q56.8906 45.0156 53.6875 40.4688
Q50.4844 35.9375 44.3906 34.1875
M19.6719 64.7969
L19.6719 38.9219
L32.0781 38.9219
Q39.2031 38.9219 42.8438 42.2188
Q46.4844 45.5156 46.4844 51.9062
Q46.4844 58.2969 42.8438 61.5469
Q39.2031 64.7969 32.0781 64.7969
z
" id="BitstreamVeraSans-Roman-52"/>
     <path d="
M34.2812 27.4844
Q23.3906 27.4844 19.1875 25
Q14.9844 22.5156 14.9844 16.5
Q14.9844 11.7188 18.1406 8.90625
Q21.2969 6.10938 26.7031 6.10938
Q34.1875 6.10938 38.7031 11.4062
Q43.2188 16.7031 43.2188 25.4844
L43.2188 27.4844
z

M52.2031 31.2031
L52.2031 0
L43.2188 0
L43.2188 8.29688
Q40.1406 3.32812 35.5469 0.953125
Q30.9531 -1.42188 24.3125 -1.42188
Q15.9219 -1.42188 10.9531 3.29688
Q6 8.01562 6 15.9219
Q6 25.1406 12.1719 29.8281
Q18.3594 34.5156 30.6094 34.5156
L43.2188 34.5156
L43.2188 35.4062
Q43.2188 41.6094 39.1406 45
Q35.0625 48.3906 27.6875 48.3906
Q23 48.3906 18.5469 47.2656
Q14.1094 46.1406 10.0156 43.8906
L10.0156 52.2031
Q14.9375 54.1094 19.5781 55.0469
Q24.2188 56 28.6094 56
Q40.4844 56 46.3438 49.8438
Q52.2031 43.7031 52.2031 31.2031" id="BitstreamVeraSans-Roman-61"/>
    </defs>
    <g transform="translate(278.17425 38.2)scale(0.144 -0.144)">
     <use xlink:href="#BitstreamVeraSans-Roman-52"/>
     <use x="67.232421875" xlink:href="#BitstreamVeraSans-Roman-61"/>
     <use x="128.51171875" xlink:href="#BitstreamVeraSans-Roman-6e"/>
     <use x="191.890625" xlink:href="#BitstreamVeraSans-Roman-64"/>
    </g>
   </g>
   <g id="legend_1">
    <g id="patch_7">
     <path d="
M429.055 115.339
L511.2 115.339
L511.2 50.4
L429.055 50.4
L429.055 115.339
z
" style="fill:#ffffff;stroke:#000000;"/>
    </g>
    <g id="line2d_64">
     <path d="
M439.135 62.0617
L459.295 62.0617" style="fill:none;stroke:#ff0000;"/>
    </g>
    <g id="line2d_65"/>
    <g id="text_23">
     <!-- LRU -->
     <defs>
      <path d="
M9.8125 72.9062
L19.6719 72.9062
L19.6719 8.29688
L55.1719 8.29688
L55.1719 0
L9.8125 0
z
" id="BitstreamVeraSans-Roman-4c"/>
      <path d="
M8.6875 72.9062
L18.6094 72.9062
L18.6094 28.6094
Q18.6094 16.8906 22.8438 11.7344
Q27.0938 6.59375 36.625 6.59375
Q46.0938 6.59375 50.3438 11.7344
Q54.5938 16.8906 54.5938 28.6094
L54.5938 72.9062
L64.5 72.9062
L64.5 27.3906
Q64.5 13.1406 57.4375 5.85938
Q50.3906 -1.42188 36.625 -1.42188
Q22.7969 -1.42188 15.7344 5.85938
Q8.6875 13.1406 8.6875 27.3906
z
" id="BitstreamVeraSans-Roman-55"/>
     </defs>
     <g transform="translate(475.13475 67.10175)scale(0.144 -0.144)">
      <use xlink:href="#BitstreamVeraSans-Roman-4c"/>
      <use x="55.712890625" xlink:href="#BitstreamVeraSans-Roman-52"/>
      <use x="125.1953125" xlink:href="#BitstreamVeraSans-Roman-55"/>
     </g>
    </g>
    <g id="line2d_66">
     <path d="
M439.135 83.1983
L459.295 83.1983" style="fill:none;opacity:0.7;stroke:#008000;"/>
    </g>
    <g id="line2d_67"/>
    <g id="text_24">
     <!-- MRU -->
     <defs>
      <path d="
M9.8125 72.9062
L24.5156 72.9062
L43.1094 23.2969
L61.8125 72.9062
L76.5156 72.9062
L76.5156 0
L66.8906 0
L66.8906 64.0156
L48.0938 14.0156
L38.1875 14.0156
L19.3906 64.0156
L19.3906 0
L9.8125 0
z
" id="BitstreamVeraSans-Roman-4d"/>
     </defs>
     <g transform="translate(475.13475 88.23825)scale(0.144 -0.144)">
      <use xlink:href="#BitstreamVeraSans-Roman-4d"/>
      <use x="86.279296875" xlink:href="#BitstreamVeraSans-Roman-52"/>
      <use x="155.76171875" xlink:href="#BitstreamVeraSans-Roman-55"/>
     </g>
    </g>
    <g id="line2d_68">
     <path d="
M439.135 104.335
L459.295 104.335" style="fill:none;opacity:0.5;stroke:#0000ff;"/>
    </g>
    <g id="line2d_69"/>
    <g id="text_25">
     <!-- FIFO -->
     <defs>
      <path d="
M9.8125 72.9062
L51.7031 72.9062
L51.7031 64.5938
L19.6719 64.5938
L19.6719 43.1094
L48.5781 43.1094
L48.5781 34.8125
L19.6719 34.8125
L19.6719 0
L9.8125 0
z
" id="BitstreamVeraSans-Roman-46"/>
      <path d="
M9.8125 72.9062
L19.6719 72.9062
L19.6719 0
L9.8125 0
z
" id="BitstreamVeraSans-Roman-49"/>
      <path d="
M39.4062 66.2188
Q28.6562 66.2188 22.3281 58.2031
Q16.0156 50.2031 16.0156 36.375
Q16.0156 22.6094 22.3281 14.5938
Q28.6562 6.59375 39.4062 6.59375
Q50.1406 6.59375 56.4219 14.5938
Q62.7031 22.6094 62.7031 36.375
Q62.7031 50.2031 56.4219 58.2031
Q50.1406 66.2188 39.4062 66.2188
M39.4062 74.2188
Q54.7344 74.2188 63.9062 63.9375
Q73.0938 53.6562 73.0938 36.375
Q73.0938 19.1406 63.9062 8.85938
Q54.7344 -1.42188 39.4062 -1.42188
Q24.0312 -1.42188 14.8125 8.82812
Q5.60938 19.0938 5.60938 36.375
Q5.60938 53.6562 14.8125 63.9375
Q24.0312 74.2188 39.4062 74.2188" id="BitstreamVeraSans-Roman-4f"/>
     </defs>
     <g transform="translate(475.13475 109.37475)scale(0.144 -0.144)">
      <use xlink:href="#BitstreamVeraSans-Roman-46"/>
      <use x="57.51953125" xlink:href="#BitstreamVeraSans-Roman-49"/>
      <use x="87.01171875" xlink:href="#BitstreamVeraSans-Roman-46"/>
      <use x="144.53125" xlink:href="#BitstreamVeraSans-Roman-4f"/>
     </g>
    </g>
   </g>
  </g>
 </g>
 <defs>
  <clipPath id="p7ff5b81e1d">
   <rect height="345.6" width="446.4" x="72.0" y="43.2"/>
  </clipPath>
 </defs>
</svg>
