<?xml version="1.0" encoding="utf-8" standalone="no"?>
<!DOCTYPE svg PUBLIC "-//W3C//DTD SVG 1.1//EN"
  "http://www.w3.org/Graphics/SVG/1.1/DTD/svg11.dtd">
<!-- Created with matplotlib (http://matplotlib.sourceforge.net/) -->
<svg height="432pt" version="1.1" viewBox="0 0 576 432" width="576pt" xmlns="http://www.w3.org/2000/svg" xmlns:xlink="http://www.w3.org/1999/xlink">
 <defs>
  <style type="text/css">
*{stroke-linecap:square;stroke-linejoin:round;}
  </style>
 </defs>
 <g id="figure_1">
  <g id="patch_1">
   <path d="
M0 432
L576 432
L576 0
L0 0
z
" style="fill:#ffffff;"/>
  </g>
  <g id="axes_1">
   <g id="patch_2">
    <path d="
M72 388.8
L518.4 388.8
L518.4 43.2
L72 43.2
z
" style="fill:#ffffff;"/>
   </g>
   <g id="line2d_1">
    <path clip-path="url(#p7ff5b81e1d)" d="
M72 346.246
L72.4464 311.494
L72.8928 307.596
L73.3392 310.223
L73.7856 311.315
L74.232 306.109
L74.6784 280.488
L75.1248 314.365
L75.5712 306.17
L76.0176 311.237
L76.464 311.058
L76.9104 303.457
L77.3568 317.259
L78.2496 289.627
L78.696 305.476
L79.1424 313.524
L79.5888 297.693
L80.0352 321.443
L80.928 306.642
L81.3744 305.28
L81.8208 310.121
L82.2672 313.126
L82.7136 302.948
L83.16 310.386
L83.6064 309.744
L84.0528 313.51
L84.4992 305.298
L84.9456 310.5
L85.392 306.68
L85.8384 313.538
L86.2848 305.979
L86.7312 309.227
L87.1776 283.375
L87.624 313.835
L88.0704 300.745
L88.5168 316.827
L88.9632 308.457
L89.4096 310.74
L89.856 310.341
L90.3024 313.763
L90.7488 198.15
L91.1952 305.65
L91.6416 302.182
L92.088 332.262
L92.5344 308.096
L92.9808 319.537
L93.4272 324.093
L93.8736 310.32
L94.32 283.517
L94.7664 318.423
L95.2128 311.115
L95.6592 308.626
L96.1056 316.641
L96.552 309.846
L96.9984 308.56
L97.4448 310.748
L97.8912 305.795
L98.3376 303.346
L98.784 317.571
L99.2304 307.314
L99.6768 309.168
L100.123 307.489
L100.57 311.596
L101.016 286.071
L101.462 311.648
L101.909 314.579
L102.355 282.683
L102.802 307.668
L103.694 315.586
L104.141 304.883
L104.587 311.057
L105.034 305.252
L105.48 317.538
L105.926 311.699
L106.373 307.55
L106.819 310.103
L107.712 310.264
L108.158 306.9
L108.605 311.66
L109.051 311.094
L109.498 309.931
L109.944 308.32
L110.39 312.728
L110.837 310.248
L111.283 310.481
L111.73 310.575
L112.176 294.63
L112.622 320.058
L113.069 309.761
L113.515 312.45
L113.962 310.711
L114.408 305.585
L114.854 313.996
L115.301 308.771
L115.747 299.568
L116.194 315.845
L116.64 303.186
L117.086 312.988
L117.533 308.954
L117.979 310.233
L118.426 303.905
L118.872 309.472
L119.318 309.46
L119.765 309.969
L120.211 307.222
L120.658 309.185
L121.104 313.567
L121.55 307.305
L121.997 309.067
L122.443 306.423
L122.89 316.937
L123.336 306.89
L123.782 312.612
L124.229 309.214
L124.675 280.92
L125.122 313.463
L125.568 311.308
L126.014 306.415
L126.461 307.49
L126.907 314.277
L127.354 306.74
L127.8 310.144
L128.246 308.825
L128.693 313.526
L129.139 306.091
L129.586 308.806
L130.032 310.258
L130.478 314.569
L130.925 306.865
L131.371 308.196
L132.264 316.214
L133.157 295.174
L133.603 310.074
L134.05 311.146
L134.496 317.44
L134.942 311.582
L135.389 310.072
L135.835 306.965
L136.282 310.417
L136.728 311.831
L137.174 307.008
L137.621 310.269
L138.067 311.756
L138.514 307.807
L138.96 310.68
L139.406 302.363
L139.853 314.046
L140.299 310.347
L140.746 315.133
L141.192 309.472
L141.638 308.828
L142.085 284.661
L142.531 309.965
L142.978 309.137
L143.424 303.354
L143.87 309.686
L144.317 309.237
L144.763 311.66
L145.21 292.609
L145.656 326.533
L146.549 283.806
L146.995 309.467
L147.442 305.272
L147.888 324.168
L148.334 316.153
L149.227 305.087
L149.674 316.152
L150.12 311.814
L150.566 311.716
L151.013 300.407
L151.459 320.501
L151.906 310.916
L152.352 312.37
L152.798 307.9
L153.245 313.101
L153.691 312.395
L154.138 311.151
L154.584 294.108
L155.03 318.265
L155.477 308.565
L155.923 312.136
L156.37 311.863
L156.816 311.388
L157.262 305.823
L157.709 304.786
L158.155 321.856
L158.602 311.505
L159.048 307.752
L159.494 312.775
L159.941 312.408
L160.387 310.856
L160.834 312.312
L161.28 311.643
L161.726 309.185
L162.173 311.182
L162.619 311.973
L163.066 307.931
L163.512 305.868
L163.958 310.767
L164.405 309.149
L164.851 310.997
L165.298 309.302
L165.744 314.323
L166.19 310.018
L166.637 312.247
L167.083 297.268
L167.53 320.44
L167.976 307.204
L168.422 314.728
L168.869 304.459
L169.315 316.141
L169.762 315.403
L170.654 303.73
L171.101 311.768
L171.547 314.015
L171.994 304.152
L173.333 313.344
L173.779 303.752
L174.226 310.732
L174.672 308.629
L175.118 310.449
L175.565 306.073
L176.011 309.43
L176.458 310.129
L176.904 311.355
L177.35 305.631
L177.797 309.418
L178.243 308.095
L178.69 295.75
L179.136 323.576
L179.582 313.043
L180.029 307.532
L180.475 305.647
L180.922 309.782
L181.368 284.04
L181.814 306.656
L182.261 311.575
L182.707 309.989
L183.154 309.105
L183.6 310.142
L184.046 310.419
L184.493 309.784
L184.939 308.549
L185.386 315.122
L185.832 309.671
L186.278 311.304
L186.725 308.162
L187.171 310.694
L187.618 310.092
L188.064 304.277
L188.51 310.546
L188.957 309.961
L189.403 315.645
L189.85 292.791
L190.296 315.174
L190.742 306.992
L191.189 314.528
L191.635 308.506
L192.082 306.128
L192.528 311.256
L192.974 314.31
L193.421 308.185
L193.867 306.775
L194.314 314.199
L195.206 307.983
L195.653 306.723
L196.099 314.502
L196.546 312.409
L196.992 309.723
L197.438 300.654
L197.885 319.932
L198.331 307.474
L198.778 311.486
L199.224 305.864
L199.67 314.726
L200.117 282.47
L200.563 309.228
L201.01 309.968
L201.456 309.867
L201.902 303.55
L202.795 313.979
L203.242 307.528
L203.688 304.713
L204.134 313.663
L204.581 307.566
L205.027 309.24
L205.474 310.144
L205.92 309.528
L206.366 307.229
L206.813 309.321
L207.259 310.161
L207.706 296.943
L208.152 315.663
L208.598 309.876
L209.045 309.693
L209.491 275.514
L209.938 323.81
L210.384 314.148
L210.83 310.629
L211.277 308.148
L211.723 293.978
L212.17 333.695
L212.616 304.895
L213.062 314.11
L213.509 307.424
L213.955 310.303
L214.402 311.67
L214.848 311.184
L215.294 306.258
L215.741 310.778
L216.187 311.695
L216.634 307.063
L217.08 310.623
L217.526 310.714
L217.973 311.525
L218.419 306.807
L218.866 311.395
L219.312 309.841
L219.758 288.446
L220.205 307.815
L220.651 312.209
L221.098 312.139
L221.544 312.554
L221.99 308.349
L222.437 311.464
L222.883 312.241
L223.33 311.825
L223.776 309.358
L224.222 315.787
L225.115 307.757
L225.562 312.251
L226.008 315.458
L226.454 308.137
L226.901 312.169
L227.347 312.669
L227.794 309.433
L228.24 311.648
L228.686 310.559
L229.133 312.597
L229.579 311.817
L230.026 298.968
L230.472 311.694
L230.918 312.439
L231.365 311.879
L231.811 279.933
L232.258 293.631
L232.704 323.369
L233.15 314.115
L233.597 310.852
L234.043 310.846
L234.49 310.627
L234.936 312.204
L235.382 312.077
L236.275 309.225
L236.722 315.66
L237.168 307.946
L237.614 312.479
L238.061 309.652
L238.507 314.456
L238.954 304.864
L239.4 311.621
L239.846 301.139
L240.293 317.528
L240.739 309.899
L241.186 313.557
L241.632 306.371
L242.078 306.559
L242.971 318.486
L243.418 308.286
L243.864 310.637
L244.31 310.824
L244.757 308.841
L245.203 310.564
L245.65 311.622
L246.542 308.509
L246.989 309.541
L247.435 312.065
L247.882 305.491
L248.328 309.989
L248.774 307.179
L249.221 311.635
L249.667 305.698
L250.114 311.37
L250.56 308.685
L251.006 310.016
L251.453 306.565
L251.899 310.428
L252.346 310.283
L252.792 307.82
L253.685 310.126
L254.131 318.969
L254.578 307.069
L255.024 243.692
L255.47 236.764
L255.917 295.352
L256.363 305.916
L256.81 281.483
L257.256 304.606
L257.702 316.927
L258.149 308.769
L258.595 310.647
L259.042 309.874
L259.488 311.839
L259.934 308.434
L260.381 316.881
L260.827 310.07
L261.274 310.972
L261.72 308.842
L262.166 310.703
L262.613 317.706
L263.059 307.241
L263.506 310.605
L263.952 309.218
L264.398 297.493
L264.845 301.944
L265.291 323.464
L265.738 310.245
L266.184 307.156
L266.63 310.352
L267.077 309.105
L267.523 308.448
L267.97 310.177
L268.416 309.387
L268.862 310.277
L269.309 307.199
L269.755 318.527
L270.202 309.992
L270.648 309.983
L271.094 300.93
L271.541 316.677
L271.987 308.961
L272.434 308.205
L272.88 309.659
L273.326 309.302
L273.773 309.396
L274.219 283.001
L274.666 311.017
L275.112 310.393
L275.558 311.092
L276.005 308.292
L276.451 310.679
L277.344 309.41
L277.79 310.086
L278.237 310.494
L278.683 311.077
L279.13 307.613
L279.576 311.583
L280.022 310.315
L280.469 311.012
L280.915 308.153
L281.362 310.619
L282.254 311.135
L282.701 307.891
L283.147 310.798
L283.594 310.757
L284.04 310.848
L284.486 284.097
L284.933 311.688
L285.379 311.479
L285.826 312.632
L286.272 308.506
L286.718 316.575
L287.165 311.386
L287.611 311.32
L288.058 312.467
L288.504 308.88
L288.95 312.528
L289.397 311.536
L289.843 312.253
L290.29 309.515
L290.736 311.932
L291.629 311.584
L292.075 312.034
L292.522 309.863
L292.968 313.5
L293.414 313.101
L293.861 311.3
L294.307 312.627
L294.754 295.189
L295.2 311.8
L295.646 311.707
L296.093 312.468
L296.539 309.411
L296.986 311.722
L297.432 311.823
L297.878 312.072
L298.325 298.207
L298.771 323.094
L299.218 312.547
L299.664 311.603
L300.11 311.394
L300.557 310.817
L301.003 311.367
L301.896 311.646
L302.342 313.392
L302.789 309.407
L303.235 311.127
L303.682 310.88
L304.128 311.413
L304.574 309.161
L305.021 316.954
L305.467 310.459
L305.914 311.054
L306.36 281.064
L306.806 310.994
L307.253 309.657
L307.699 310.629
L308.146 308.584
L308.592 310.877
L309.038 306.636
L309.485 309.165
L309.931 310.112
L310.378 311.539
L310.824 261.026
L311.27 309.25
L311.717 310.624
L312.163 311.083
L312.61 302.334
L313.056 312.601
L313.502 301.083
L313.949 310.62
L314.395 307.83
L314.842 311.347
L315.288 311.027
L315.734 311.557
L316.181 308.584
L316.627 311.099
L317.074 310.592
L317.52 310.881
L317.966 307.162
L318.413 312.255
L319.306 308.201
L319.752 311.474
L320.198 310.008
L320.645 317.615
L321.091 308.494
L321.538 311.654
L321.984 310.598
L322.43 285.241
L322.877 308.41
L323.323 309.607
L323.77 309.538
L324.216 308.241
L324.662 310.749
L325.555 308.62
L326.002 308.661
L326.448 309.178
L326.894 309.926
L327.341 308.496
L327.787 310.441
L328.234 309.372
L328.68 303.168
L329.126 313.758
L329.573 311.146
L330.019 310.418
L330.466 307.823
L330.912 278.184
L331.358 327.576
L332.251 309.45
L332.698 310.29
L333.144 311.742
L333.59 310.975
L334.037 308.824
L334.483 310.404
L334.93 317.571
L335.376 310.655
L335.822 308.246
L336.269 311.199
L336.715 310.609
L337.162 308.759
L337.608 310.637
L338.054 311.283
L338.501 310.774
L338.947 308.98
L339.394 310.217
L339.84 286.367
L340.286 311.907
L340.733 310.024
L341.179 312.142
L341.626 311.64
L342.072 312.12
L342.518 312.354
L342.965 309.731
L343.411 311.76
L343.858 312.744
L344.304 311.787
L344.75 311.719
L345.197 310.356
L345.643 311.944
L346.09 319.2
L346.536 311.294
L346.982 310.918
L347.429 304.871
L347.875 318.025
L348.322 311.221
L348.768 312.847
L349.214 295.648
L349.661 311.282
L350.107 312.11
L350.554 312.239
L351 309.672
L351.446 312.155
L351.893 311.698
L352.339 311.616
L352.786 312.616
L353.232 309.069
L353.678 308.709
L354.125 312.065
L354.571 311.673
L355.018 310.227
L355.464 310.923
L355.91 312.946
L356.357 311.506
L356.803 312.69
L357.25 310.129
L357.696 311.971
L358.142 307.565
L358.589 310.526
L359.035 308.355
L359.482 311.249
L359.928 310.95
L360.374 310.477
L360.821 309.07
L361.267 310.643
L361.714 283.741
L362.16 310.551
L362.606 308.177
L363.053 311.013
L363.499 310.789
L363.946 311.225
L364.392 295.019
L364.838 324.632
L365.285 283.548
L365.731 314.905
L366.178 310.582
L366.624 304.356
L367.07 313.214
L367.517 282.275
L367.963 310.417
L368.41 309.693
L368.856 317.219
L369.302 308.354
L369.749 309.757
L370.195 308.793
L370.642 309.012
L371.088 309.088
L371.534 310.33
L371.981 308.712
L372.427 309.8
L372.874 309.974
L373.32 309.734
L373.766 307.831
L374.213 310.832
L374.659 312.353
L375.106 315.034
L375.552 309.186
L375.998 315.737
L376.445 310.588
L376.891 308.529
L377.338 317.875
L377.784 310.357
L378.23 311.066
L378.677 308.628
L379.123 310.785
L379.57 311.606
L380.016 312.718
L380.462 308.933
L380.909 310.587
L381.355 310.307
L381.802 311.568
L382.248 308.491
L382.694 311.598
L383.141 313.58
L383.587 307.824
L384.034 311.55
L384.48 300.784
L384.926 310.641
L385.373 307.665
L385.819 311.767
L386.266 304.568
L386.712 315.62
L387.158 309.163
L387.605 310.722
L388.051 310.787
L388.498 311.578
L388.944 308.415
L389.39 317.583
L389.837 312.016
L390.283 310.573
L390.73 308.41
L391.176 311.215
L391.622 318.204
L392.069 308.41
L392.515 310.808
L392.962 317.513
L393.408 311.552
L393.854 309.13
L394.301 284.972
L394.747 309.561
L395.194 310.363
L395.64 307.933
L396.086 310.279
L396.533 315.49
L396.979 308.259
L397.426 296.158
L397.872 317.702
L398.765 308.079
L399.211 311.055
L399.658 309.736
L400.104 307.279
L400.55 310.842
L400.997 309.257
L401.443 310.923
L401.89 314.534
L402.336 310.084
L402.782 310.424
L403.229 307.654
L403.675 308.953
L404.122 285.903
L404.568 311.906
L405.014 302.149
L405.461 317.021
L405.907 310.038
L406.354 309.151
L406.8 311.034
L407.246 309.318
L407.693 311.766
L408.139 308.046
L408.586 311.189
L409.032 311.149
L409.478 310.087
L409.925 309.33
L410.371 311.183
L410.818 311.611
L411.264 310.33
L411.71 316.203
L412.157 311.716
L412.603 310.599
L413.05 310.582
L413.496 308.658
L413.942 288.818
L414.389 312.314
L414.835 311.374
L415.282 303.582
L415.728 318.018
L416.174 311.603
L416.621 312.672
L417.067 312.22
L417.514 309.947
L417.96 311.398
L418.406 311.987
L419.299 278.245
L420.192 320.422
L420.638 325.021
L421.085 312.244
L421.531 312.575
L421.978 311.823
L422.424 312.323
L422.87 309.75
L423.317 312.467
L423.763 311.505
L424.21 306.368
L424.656 316.395
L425.102 312.285
L425.549 297.668
L425.995 311.219
L426.442 311.053
L426.888 310.273
L427.334 301.831
L427.781 317.372
L428.227 311.594
L428.674 310.812
L429.12 308.582
L429.566 285.732
L430.013 299.461
L430.459 324.567
L430.906 309.996
L431.352 312.249
L431.798 311.708
L432.245 319.336
L433.138 305.773
L433.584 310.462
L434.03 310.323
L434.477 312.923
L434.923 308.347
L435.37 309.014
L435.816 310.65
L436.262 308.1
L436.709 310.364
L437.155 303.499
L437.602 313.548
L438.048 316.509
L438.494 310.318
L438.941 310.314
L439.387 307.486
L439.834 311.013
L440.28 309.424
L440.726 308.333
L441.173 282.626
L441.619 311.75
L442.066 311.114
L442.512 308.622
L442.958 307.44
L443.405 310.945
L443.851 311.975
L444.298 308.309
L444.744 309.52
L445.19 312.661
L445.637 310.531
L446.083 315.583
L446.53 311.512
L446.976 311.108
L447.422 311.218
L447.869 308.764
L448.315 285.343
L448.762 311.529
L449.208 309.166
L449.654 310.37
L450.101 301.823
L450.547 304.155
L450.994 314.619
L451.44 311.02
L451.886 310.025
L452.333 312.112
L452.779 308.475
L453.226 311.133
L453.672 311.41
L454.118 311.147
L454.565 308.846
L455.011 311.014
L455.458 310.932
L455.904 311.154
L456.35 308.471
L456.797 304.272
L457.243 317.352
L457.69 307.642
L458.136 311.651
L458.582 310.579
L459.029 311.6
L459.475 308.246
L459.922 285.53
L460.368 310.555
L460.814 309.875
L461.261 307.7
L461.707 310.365
L462.154 310.286
L462.6 307.15
L463.046 296.394
L463.493 324.626
L463.939 309.648
L464.386 308.274
L464.832 309.312
L465.278 314.513
L465.725 307.642
L466.171 309.738
L466.618 310.779
L467.064 309.787
L467.51 307.974
L467.957 309.908
L468.403 310.45
L468.85 308.05
L469.296 310.258
L469.742 285.275
L470.189 310.616
L470.635 308.912
L471.082 311.284
L471.528 310.409
L471.974 308.494
L472.421 311.686
L472.867 310.32
L473.314 311.791
L473.76 225.958
L474.206 310.809
L474.653 310.652
L475.099 311.109
L475.546 309.398
L475.992 305.667
L476.438 317.826
L477.331 291.494
L477.778 311.187
L478.224 312.484
L478.67 309.752
L479.117 311.919
L479.563 312.859
L480.01 311.847
L480.456 312.271
L480.902 303.382
L481.349 318.574
L481.795 312.642
L482.242 312.638
L482.688 311.665
L483.134 316.727
L483.581 312.677
L484.027 311.962
L484.474 312.254
L484.92 305.129
L485.813 313.437
L486.259 311.424
L486.706 307.551
L487.152 312.169
L487.598 307.245
L488.045 310.82
L488.491 309.898
L488.938 310.8
L489.384 310.384
L489.83 312.076
L490.277 308.412
L490.723 311.347
L491.17 311.311
L491.616 308.713
L492.062 304.86
L492.509 316.574
L492.955 311.15
L493.402 282.831
L493.848 312.111
L494.294 308.214
L494.741 311.169
L495.187 309.801
L495.634 296.723
L496.08 326.766
L496.526 306.585
L496.973 312.42
L497.419 309.77
L497.866 310.239
L498.312 308.77
L499.205 310.787
L499.651 308.741
L500.098 310.216
L500.544 310.961
L500.99 310.051
L501.437 311.168
L501.883 310.092
L502.33 282.616
L502.776 309.384
L503.222 318.763
L503.669 310.771
L504.115 309.808
L504.562 310.529
L505.008 309.612
L505.454 311.675
L505.901 311.527
L506.347 308.669
L506.794 311.597
L507.686 309.231
L508.133 311.88
L508.579 311.222
L509.026 311.449
L509.472 308.399
L509.918 314.307
L510.365 311.28
L510.811 311.732
L511.258 298.649
L511.704 310.62
L512.15 311.466
L512.597 311.207
L513.043 308.979
L513.49 311.003
L513.936 310.275
L514.382 312.457
L514.829 308.74
L515.275 309.79
L515.722 311.818
L516.168 311.627
L516.614 309.46
L517.061 310.63
L517.507 311.454
L517.954 308.494
L517.954 308.494" style="fill:none;stroke:#ff0000;"/>
   </g>
   <g id="line2d_2">
    <path clip-path="url(#p7ff5b81e1d)" d="
M72 333.932
L72.4464 294.077
L72.8928 295.001
L73.3392 297.724
L73.7856 304.27
L74.232 295.723
L74.6784 293.008
L75.1248 302.342
L75.5712 296.925
L76.0176 286.631
L76.464 291.986
L76.9104 281.379
L77.3568 310.179
L77.8032 298.661
L78.2496 299.348
L78.696 292.506
L79.1424 299.547
L79.5888 296.319
L80.0352 296.584
L80.4816 305.545
L80.928 297.705
L81.3744 296.205
L81.8208 296.817
L82.2672 297.999
L82.7136 300.594
L83.16 301.946
L83.6064 298.545
L84.0528 273.44
L84.4992 302.573
L84.9456 304.219
L85.392 287.769
L85.8384 287.463
L86.2848 290.563
L86.7312 303.257
L87.1776 302.192
L87.624 315.658
L88.0704 268.026
L88.9632 276.689
L89.856 282.686
L90.3024 291.106
L90.7488 287.557
L91.1952 294.642
L91.6416 296.071
L92.088 298.401
L92.5344 294.206
L92.9808 288.23
L93.4272 303.386
L93.8736 297.924
L94.32 312.601
L94.7664 291.244
L95.2128 292.96
L95.6592 292.327
L96.1056 289.93
L96.552 292.676
L96.9984 297.84
L97.4448 292.752
L97.8912 289.103
L98.3376 296.153
L98.784 269.13
L99.2304 297.203
L100.123 294.942
L100.57 290.416
L101.016 301.143
L101.462 295.63
L101.909 294.599
L102.355 294.351
L102.802 294.925
L103.248 304.984
L103.694 295.494
L104.141 294.421
L104.587 297.43
L105.034 267.718
L105.48 285.797
L105.926 309.366
L106.373 299.879
L106.819 296.833
L107.266 298.79
L107.712 295.544
L108.158 294.218
L108.605 300.086
L109.051 299.55
L109.944 291.983
L110.39 303.521
L110.837 296.065
L111.283 296.576
L111.73 284.96
L112.622 300.26
L113.069 297.815
L113.515 296.156
L113.962 296.672
L114.408 296.465
L114.854 299.762
L115.747 293.34
L116.194 306.282
L117.086 287.913
L117.533 313.233
L117.979 290.272
L118.426 300.913
L119.318 291.272
L119.765 295.424
L120.211 298.526
L120.658 294.058
L121.104 294.873
L121.55 294.796
L121.997 296.632
L122.443 299.572
L122.89 298.021
L123.336 292.055
L123.782 295.322
L124.229 297.228
L124.675 290.224
L125.122 295.62
L125.568 289.43
L126.014 292.876
L126.461 294.585
L126.907 291.414
L127.354 295.994
L127.8 289.236
L128.246 296.343
L128.693 287.73
L129.139 295.605
L129.586 293.222
L130.032 293.039
L130.478 295.013
L130.925 291.555
L131.371 296.674
L131.818 295.553
L132.264 298.127
L132.71 290.899
L133.157 300.334
L133.603 294.561
L134.05 295.824
L134.496 284.366
L134.942 301.834
L135.389 300.744
L135.835 293.523
L136.282 295.821
L136.728 295.187
L137.174 287.824
L137.621 294.77
L138.067 298.35
L138.96 295.223
L139.406 294.927
L139.853 297.491
L140.299 295.625
L140.746 290.827
L141.192 293.475
L141.638 302.382
L142.085 294.996
L142.531 291.517
L142.978 298.181
L143.424 296.978
L143.87 293.334
L144.317 269.782
L144.763 292.085
L145.21 289.532
L145.656 298.462
L146.102 292.74
L146.549 292.72
L146.995 293.786
L147.442 289.271
L147.888 297.337
L148.781 292.791
L149.227 292.051
L149.674 289.767
L150.12 302.001
L150.566 289.892
L151.013 292.258
L151.459 275.601
L151.906 294.847
L152.352 294.873
L152.798 286.417
L153.245 305.273
L153.691 294.627
L154.138 301.83
L154.584 294.375
L155.03 299.962
L155.477 295.588
L155.923 295.201
L156.37 297.573
L156.816 291.567
L157.262 299.307
L157.709 296.408
L158.155 288.265
L158.602 284.873
L159.048 292.07
L159.494 302.666
L159.941 269.113
L160.387 100.422
L160.834 299.283
L161.28 296.269
L161.726 295.463
L162.173 280.03
L162.619 317.598
L163.066 299.887
L163.512 297.945
L163.958 294.181
L164.405 295.4
L164.851 299.509
L165.298 295.655
L165.744 282.677
L166.19 289.132
L166.637 266.764
L167.083 220.74
L167.53 321.943
L167.976 263.908
L168.422 314.105
L168.869 313.687
L169.315 298.428
L169.762 299.542
L170.654 286.368
L171.101 301.824
L171.547 295.378
L171.994 302.357
L172.44 293.541
L172.886 300.042
L173.333 291.32
L173.779 299.754
L174.226 294.513
L175.118 298.917
L175.565 293.336
L176.011 298.645
L176.458 296.968
L176.904 299.855
L177.35 283.438
L177.797 301.342
L178.243 293.997
L178.69 296.216
L179.136 300.83
L179.582 292.076
L180.475 297.242
L180.922 295.764
L181.368 308.119
L181.814 291.622
L182.707 300.491
L183.154 288.993
L183.6 308.259
L184.046 294.852
L184.493 299.478
L184.939 285.257
L185.386 292.331
L185.832 294.226
L186.278 300.676
L186.725 295.363
L187.171 291.965
L187.618 300.881
L188.064 295.218
L188.51 295.036
L189.403 297.553
L189.85 291.113
L190.296 298.666
L190.742 295.265
L191.189 283.548
L191.635 308.967
L192.082 266.103
L192.528 296.56
L192.974 290.999
L193.421 297.814
L193.867 291.801
L194.314 290.17
L194.76 295.464
L195.206 289.591
L195.653 296.664
L196.546 292.891
L197.438 290.767
L197.885 296.272
L198.331 293.505
L198.778 294.703
L199.224 258.576
L199.67 305.601
L200.117 295.136
L200.563 297.465
L201.01 295.242
L201.456 291.661
L201.902 299.041
L202.349 296.592
L202.795 288.066
L203.242 303.194
L203.688 290.528
L204.134 301.536
L204.581 295.185
L205.027 291.41
L205.474 296.853
L205.92 295.325
L206.366 271.036
L206.813 296.584
L207.259 292.735
L207.706 305.225
L208.152 296.053
L208.598 295.275
L209.045 296.982
L209.491 293.485
L209.938 310.397
L210.384 294.907
L210.83 300.61
L211.277 295.289
L211.723 295.12
L212.17 294.432
L212.616 289.653
L213.062 295.605
L213.509 292.764
L213.955 293.778
L214.402 295.998
L214.848 289.689
L215.294 295.787
L215.741 292.895
L216.187 292.058
L216.634 297.069
L217.08 288.403
L217.526 297.528
L217.973 291.764
L218.419 267.02
L218.866 294.886
L219.312 293.987
L219.758 288.481
L220.205 305.964
L220.651 289.064
L221.098 301.235
L221.544 292.879
L221.99 299.014
L222.437 301.778
L222.883 294.858
L223.33 298.024
L223.776 298.217
L224.669 285.398
L225.115 297.607
L225.562 295.193
L226.008 296.799
L226.454 292.443
L226.901 298.143
L227.347 298.039
L227.794 295.078
L228.24 288.199
L228.686 302.83
L229.133 295.197
L229.579 295.017
L230.026 292.861
L230.472 297.493
L230.918 297.959
L231.365 268.812
L231.811 283.024
L232.258 312.406
L232.704 292.636
L233.15 291.123
L233.597 293.118
L234.043 292.652
L234.49 289.288
L234.936 298.235
L235.382 293.219
L235.829 292.751
L236.275 292.728
L236.722 288.622
L237.168 271.515
L237.614 297.567
L238.061 295.014
L238.507 294.164
L238.954 291.384
L239.4 301.672
L239.846 291.391
L240.293 297.338
L240.739 295.857
L241.186 297.652
L241.632 295.686
L242.078 290.376
L242.525 301.577
L242.971 295.125
L243.418 295.3
L243.864 267.759
L244.31 301.087
L244.757 304.107
L245.203 296.293
L245.65 299.233
L246.096 293.154
L246.542 299.431
L246.989 299.353
L247.435 296.964
L247.882 296.596
L248.328 271.571
L248.774 322.001
L249.221 297.657
L249.667 293.428
L250.114 298.876
L250.56 281.892
L251.006 296.672
L251.453 298.891
L251.899 297.094
L252.346 299.9
L253.238 294.764
L253.685 296.787
L254.131 303.593
L255.024 296.745
L255.47 295.892
L255.917 300.946
L256.363 296.62
L256.81 295.536
L257.256 294.118
L257.702 295.782
L258.149 294.885
L258.595 294.594
L259.042 301.398
L259.488 292.227
L259.934 295.782
L260.381 295.271
L260.827 303.714
L261.274 299.333
L261.72 291.387
L262.166 299.176
L262.613 294.142
L263.059 295.642
L263.506 290.05
L263.952 291.851
L264.398 302.21
L264.845 289.969
L265.291 292.713
L265.738 293.248
L266.184 295.74
L266.63 288.709
L267.077 295.751
L267.523 292.61
L267.97 293.238
L268.416 296.188
L268.862 288.486
L270.202 302.356
L271.094 292.499
L271.541 297.662
L271.987 298.199
L272.434 294.877
L272.88 295.135
L273.326 297.925
L273.773 294.791
L274.219 296.189
L274.666 293.686
L275.112 294.074
L275.558 300.002
L276.005 285.528
L276.451 293.939
L276.898 298.964
L277.344 280.166
L277.79 309.014
L278.683 288.298
L279.13 297.783
L279.576 297.931
L280.022 298.633
L280.469 295.027
L280.915 294.361
L281.362 299.69
L281.808 300.952
L282.254 295.737
L282.701 295.455
L283.147 267.784
L283.594 292.822
L284.04 295.685
L284.486 290.212
L284.933 294.819
L285.379 294.833
L285.826 292.422
L286.272 294.605
L286.718 290.861
L287.165 295.606
L287.611 293.568
L288.058 299.543
L288.504 288.526
L288.95 299.449
L289.397 293.12
L289.843 268.66
L290.29 295.272
L290.736 292.054
L291.182 301.656
L291.629 288.524
L292.075 302.052
L292.522 298.004
L292.968 289.973
L293.414 299.896
L293.861 295.254
L294.307 293.489
L294.754 295.518
L295.2 301.907
L295.646 295.513
L296.093 296.949
L296.539 295.981
L296.986 273.409
L297.878 301.996
L298.325 296.845
L299.218 302.774
L299.664 297.238
L300.11 295.741
L300.557 299.752
L301.003 297.12
L301.45 299.534
L301.896 295.483
L302.342 296.998
L302.789 296.526
L303.235 296.705
L303.682 303.112
L304.574 283.827
L305.021 305.792
L305.914 286.986
L306.36 309.834
L307.253 291.913
L307.699 299.73
L308.146 296.988
L308.592 244.08
L309.038 217.909
L309.485 293.935
L309.931 301.359
L310.378 300.499
L311.27 295.825
L312.163 298.705
L312.61 305.419
L313.056 303.518
L313.502 294.849
L313.949 297.231
L314.395 282.795
L315.288 304.214
L315.734 293.529
L316.181 310.495
L316.627 300.593
L317.074 296.287
L317.52 270.567
L317.966 295.182
L318.413 300.151
L318.859 296.486
L319.306 294.466
L319.752 298.896
L320.198 299.407
L320.645 297.464
L321.091 296.022
L321.538 300.454
L321.984 290.306
L322.43 305.218
L322.877 296.88
L323.323 293.347
L323.77 293.76
L324.216 292.056
L324.662 301.339
L325.109 268.503
L325.555 294.738
L326.002 289.406
L326.448 297.476
L326.894 292.726
L327.341 293.384
L327.787 292.086
L328.234 292.394
L328.68 295.896
L329.126 290.204
L329.573 296.414
L330.019 293.337
L330.466 292.925
L330.912 295.634
L331.358 289.975
L331.805 272.072
L332.251 294.94
L332.698 295.336
L333.144 294.399
L333.59 298.868
L334.037 295.241
L334.483 283.943
L334.93 309.683
L335.376 292.951
L335.822 299.81
L336.269 296.943
L336.715 294.951
L337.162 295.972
L337.608 291.27
L338.054 299.883
L338.501 299.323
L338.947 288.763
L339.394 296.213
L339.84 298.028
L340.286 293.641
L340.733 299.303
L341.179 295.925
L341.626 300.902
L342.072 293.993
L342.518 293.317
L342.965 295.443
L343.411 300.799
L343.858 291.774
L344.304 295.771
L344.75 293.258
L345.197 293.504
L345.643 292.896
L346.09 296.314
L346.536 289.028
L346.982 293.523
L347.429 292.865
L347.875 295.069
L348.322 295.748
L348.768 289.906
L349.214 293.009
L349.661 293.09
L350.107 293.547
L350.554 296.801
L351 289.926
L351.446 270.478
L351.893 291.158
L352.339 300.054
L352.786 295.831
L353.232 294.839
L353.678 299.75
L354.125 293.632
L354.571 289.558
L355.018 301.916
L355.464 298.251
L355.91 293.437
L356.357 296.058
L356.803 294.913
L357.25 296.06
L357.696 290.532
L358.142 291.858
L358.589 295.223
L359.035 295.505
L359.482 298.431
L359.928 296.766
L360.374 292.933
L360.821 291.357
L361.267 304.57
L361.714 294.896
L362.16 295.539
L362.606 298.062
L363.053 288.091
L363.499 309.67
L363.946 266.236
L364.392 293.858
L364.838 297.987
L365.285 292.813
L365.731 289.631
L366.178 296.184
L366.624 238.007
L367.07 293.641
L367.517 293.444
L367.963 293.111
L368.41 291.63
L368.856 295.831
L369.302 293.973
L369.749 294.917
L370.195 268.094
L370.642 292.799
L371.088 299.195
L371.534 298.015
L371.981 295.663
L372.427 295.21
L372.874 292.65
L373.32 300.44
L373.766 292.963
L374.213 299.022
L374.659 295.24
L375.106 297.645
L375.552 294.529
L375.998 293.901
L376.445 273.381
L376.891 299.769
L377.338 296.588
L377.784 292.464
L378.23 304.134
L378.677 296.586
L379.123 297.109
L379.57 299.34
L380.016 293.623
L380.462 300.537
L380.909 298.973
L381.355 289.751
L381.802 304.735
L382.248 292.413
L382.694 303.198
L383.141 282.936
L383.587 293.041
L384.034 298.787
L384.48 296.803
L384.926 297.024
L385.373 298.744
L385.819 297.587
L386.266 300.24
L387.158 295.911
L387.605 297.161
L388.051 300.007
L388.498 296.313
L388.944 297.143
L389.39 296.496
L389.837 296.625
L390.283 295.592
L390.73 291.747
L391.176 298.832
L391.622 283.913
L392.069 309.432
L392.515 294.386
L392.962 302.166
L393.408 288.403
L393.854 302.12
L394.301 295.237
L395.194 298.75
L395.64 292.247
L396.086 294.833
L396.533 288.52
L396.979 295.819
L397.426 293.65
L397.872 293.131
L398.318 295.286
L398.765 290.2
L399.211 295.223
L399.658 293.235
L400.104 290.067
L400.55 294.899
L401.443 292.214
L401.89 296.187
L402.336 298.346
L402.782 293.269
L403.675 296.82
L404.122 296.413
L404.568 299.143
L405.014 291.865
L405.461 298.842
L405.907 298.705
L406.354 268.36
L406.8 296.01
L407.246 296.485
L407.693 295.992
L408.139 289.161
L408.586 289.296
L409.032 290.604
L409.478 305.023
L409.925 295.081
L410.371 292.186
L410.818 301.467
L411.264 290.77
L411.71 300.047
L412.157 296.55
L412.603 298.233
L413.05 291.53
L413.496 299.137
L413.942 302.868
L414.389 297.877
L414.835 294.72
L415.282 292.803
L415.728 300.975
L416.174 268.707
L416.621 293.199
L417.067 292.743
L417.514 290.731
L417.96 295.677
L418.406 292.501
L418.853 290.813
L419.299 292.85
L419.746 299.911
L420.192 285.568
L420.638 309.926
L421.085 299.321
L421.531 292.266
L421.978 293.62
L422.424 289.664
L422.87 271.888
L423.317 298.618
L423.763 294.945
L424.21 296.062
L424.656 291.632
L425.102 300.901
L425.549 302.313
L425.995 295.569
L426.442 296.036
L426.888 292.701
L427.334 299.801
L428.227 291.896
L428.674 297.712
L429.12 295.431
L429.566 295.862
L430.013 270.66
L430.459 299.851
L430.906 299.853
L431.352 289.267
L431.798 302.138
L432.245 297.425
L432.691 300.616
L433.138 302.702
L433.584 297.289
L434.03 296.256
L434.477 301.057
L434.923 297.236
L435.37 299.322
L435.816 296.049
L436.262 297.365
L436.709 297.09
L437.155 281.957
L437.602 303.812
L438.048 293.561
L438.494 291.287
L438.941 305.877
L439.387 296.337
L439.834 300.008
L440.28 296.247
L440.726 300.506
L441.173 292.138
L441.619 299.814
L442.512 295.186
L442.958 304.785
L443.405 291.828
L443.851 293.458
L444.298 295.996
L444.744 300.943
L445.19 292.261
L445.637 294.967
L446.083 296.522
L446.53 296.82
L446.976 307.183
L447.422 291.613
L447.869 295.497
L448.315 298.133
L448.762 295.944
L449.208 284.373
L449.654 301.657
L450.101 300.868
L450.547 197.423
L450.994 280.072
L451.44 292.833
L451.886 292.723
L452.333 307.956
L452.779 298.724
L453.226 291.797
L453.672 296.208
L454.118 287.343
L454.565 298.3
L455.011 291.638
L455.458 298.974
L455.904 297.665
L456.35 293.878
L456.797 296.187
L457.243 295.287
L457.69 310.268
L458.136 299.67
L458.582 297.412
L459.029 299.266
L459.475 297.069
L459.922 292.943
L460.368 303.086
L460.814 303.98
L461.261 296.906
L461.707 298.116
L462.154 293.377
L462.6 300.842
L463.046 296.351
L463.493 299.034
L463.939 293.667
L464.386 302.552
L464.832 304.035
L465.278 290.969
L465.725 299.801
L466.171 295.275
L466.618 298.122
L467.064 292.628
L467.51 297.611
L467.957 296.342
L468.403 297.464
L468.85 302.38
L469.296 292.055
L469.742 298.513
L470.189 297.946
L470.635 295.715
L471.082 295.911
L471.528 266.118
L471.974 304.028
L472.421 298.026
L472.867 293.745
L473.314 300.167
L473.76 297.336
L474.206 302.277
L474.653 300.089
L475.099 296.678
L475.546 308.192
L476.438 292.86
L476.885 299.089
L477.331 309.573
L477.778 279.606
L478.224 311.045
L478.67 281.701
L479.117 294.363
L479.563 295.052
L480.01 296.738
L480.456 289.249
L480.902 293.823
L481.349 292.811
L481.795 293.329
L482.242 298.12
L482.688 290.177
L483.134 293.347
L483.581 293.265
L484.027 288.489
L484.474 307.825
L484.92 264.552
L485.366 299.522
L485.813 292.102
L486.259 298.42
L486.706 294.811
L487.152 295.165
L487.598 309.21
L488.045 292.267
L488.491 290.923
L488.938 307.406
L489.83 293.645
L490.277 285.025
L490.723 295.797
L491.17 298.536
L491.616 298.841
L492.062 293.098
L492.509 294.399
L492.955 297.186
L493.402 296.525
L493.848 299.815
L494.294 291.968
L494.741 298.089
L495.187 298.764
L495.634 296.482
L496.08 295.717
L496.526 270.474
L496.973 294.066
L497.419 293.083
L497.866 290.999
L498.758 300.049
L499.205 286.923
L499.651 295.275
L500.098 295.85
L500.99 292.381
L501.437 296.968
L501.883 293.599
L502.33 289.009
L502.776 273.245
L503.222 296.431
L503.669 298.117
L504.115 288.72
L504.562 299.994
L505.454 298.015
L505.901 296.127
L506.347 276.017
L506.794 312.866
L507.24 301.167
L507.686 292.468
L508.133 297.563
L508.579 240.901
L509.026 273.717
L509.472 297.599
L509.918 292.4
L510.365 303.425
L510.811 296.633
L511.258 297.416
L511.704 296.194
L512.15 299.725
L512.597 297.786
L513.043 299.113
L513.49 297.141
L513.936 286.704
L514.382 307.377
L514.829 299.024
L515.275 296.415
L515.722 283.746
L516.168 296.399
L516.614 300.235
L517.061 297.806
L517.507 290.445
L517.954 296.816
L517.954 296.816" style="fill:none;opacity:0.7;stroke:#008000;"/>
   </g>
   <g id="line2d_3">
    <path clip-path="url(#p7ff5b81e1d)" d="
M72 353.057
L72.4464 335.837
L72.8928 328.687
L73.3392 343.937
L73.7856 336.598
L74.232 337.107
L74.6784 334.963
L75.1248 336.99
L75.5712 337.253
L76.0176 334.451
L76.464 337.364
L76.9104 336.671
L77.3568 336.882
L77.8032 328.238
L78.2496 349.703
L78.696 337.396
L79.1424 334.772
L79.5888 331.209
L80.0352 343.902
L80.4816 330.938
L80.928 335.947
L81.3744 336.006
L81.8208 333.785
L82.2672 335.959
L82.7136 335.716
L83.16 336.018
L83.6064 333.912
L84.0528 335.815
L84.4992 336.026
L84.9456 333.504
L85.392 335.617
L85.8384 336.547
L86.2848 333.533
L86.7312 336.35
L87.1776 336.113
L87.624 333.647
L88.0704 336.204
L88.5168 335.698
L88.9632 329.995
L89.4096 335.307
L89.856 335.357
L90.3024 332.958
L90.7488 335.351
L91.1952 332.178
L91.6416 335.876
L92.088 335.503
L92.5344 333.004
L92.9808 328.412
L93.4272 348.118
L93.8736 333.067
L94.32 335.448
L94.7664 335.048
L95.2128 333.436
L95.6592 335.434
L96.1056 335.651
L96.552 332.902
L96.9984 335.253
L97.4448 306.226
L97.8912 335.765
L98.3376 336.37
L98.784 336.149
L99.2304 333.978
L99.6768 335.909
L100.123 336.516
L100.57 333.699
L101.016 336.135
L101.462 329.551
L101.909 340.325
L102.355 335.947
L102.802 329.769
L103.248 339.739
L103.694 335.714
L104.141 329.544
L104.587 340.675
L105.034 336.016
L105.48 336.193
L105.926 323.596
L106.373 343.688
L106.819 335.722
L107.266 334.14
L107.712 335.871
L108.158 336.384
L108.605 333.744
L109.051 336.547
L109.498 343.351
L109.944 333.832
L110.39 336.084
L110.837 336.324
L111.283 333.903
L111.73 336.037
L112.176 336.329
L112.622 334.032
L113.069 335.851
L113.515 336.751
L113.962 308.235
L114.408 335.719
L114.854 334.952
L115.301 333.589
L115.747 335.254
L116.194 335.527
L116.64 333.36
L117.086 326.877
L117.533 348.52
L117.979 335.737
L118.426 335.454
L118.872 335.728
L119.765 334.963
L120.211 333.357
L120.658 335.669
L121.104 335.098
L121.55 333.333
L121.997 335.769
L122.443 317.519
L122.89 333.605
L123.336 336.285
L123.782 336.187
L124.229 334.031
L124.675 336.135
L125.122 335.921
L125.568 334.066
L126.014 336.296
L126.461 329.734
L126.907 340.552
L127.354 335.91
L127.8 329.6
L128.246 339.918
L128.693 335.674
L129.139 336.231
L129.586 325.918
L130.032 335.366
L130.478 333.061
L130.925 335.625
L131.371 340.75
L131.818 335.751
L132.264 335.028
L132.71 333.619
L133.157 335.541
L133.603 335.684
L134.05 340.845
L134.496 304.249
L134.942 342.418
L135.389 334.033
L136.282 336.758
L136.728 334.004
L137.174 338.161
L138.067 334.005
L138.514 336.5
L138.96 343.372
L139.406 333.746
L139.853 336.067
L140.299 339.572
L140.746 333.71
L141.192 336.127
L141.638 335.947
L142.085 333.314
L142.531 336.571
L142.978 336.107
L143.424 333.948
L143.87 311.362
L144.317 336.901
L144.763 334.793
L145.21 336.976
L145.656 337.258
L146.102 337.242
L146.549 334.973
L146.995 337.165
L147.442 337.289
L147.888 334.83
L148.334 336.92
L149.227 337.489
L149.674 335.083
L150.12 336.909
L150.566 337.196
L151.013 334.76
L151.459 337.149
L151.906 337.033
L152.352 337.085
L152.798 335.247
L153.245 344.68
L153.691 323.044
L154.138 334.569
L154.584 337.249
L155.03 337.103
L155.477 334.906
L155.923 337.234
L156.37 337.326
L156.816 337.258
L157.262 334.782
L157.709 337.336
L158.155 336.672
L158.602 335.683
L159.048 336.991
L159.494 344.629
L159.941 336.977
L160.387 335.02
L160.834 330.526
L161.28 342.834
L161.726 335.14
L162.173 333.589
L162.619 336.172
L163.066 334.066
L163.512 336.317
L163.958 335.899
L164.405 333.925
L164.851 336.556
L165.298 336.296
L165.744 333.672
L166.19 336.526
L166.637 336.292
L167.083 334.018
L167.53 336.055
L167.976 336.238
L168.422 334.144
L168.869 336.347
L169.315 336.242
L169.762 327.897
L170.208 342.275
L170.654 331.632
L171.101 341.019
L171.547 335.391
L171.994 335.586
L172.44 333.418
L172.886 335.657
L173.333 338.653
L173.779 333.214
L174.226 335.486
L174.672 335.324
L175.118 333.395
L175.565 335.489
L176.011 335.184
L176.458 333.099
L176.904 308.016
L177.35 335.576
L177.797 333.296
L178.243 328.336
L178.69 312.31
L179.136 336.414
L179.582 335.91
L180.029 334.066
L180.922 336.839
L181.368 333.903
L181.814 335.96
L182.261 336.174
L182.707 333.862
L183.154 316.119
L183.6 336.134
L184.046 336.142
L184.493 336.92
L184.939 336.204
L185.386 327.388
L185.832 336.751
L186.278 287.349
L186.725 336.031
L187.171 324.007
L187.618 336.113
L188.064 336.394
L188.51 333.889
L188.957 335.578
L189.403 336.321
L189.85 334.16
L190.296 336.194
L190.742 329.692
L191.189 340.416
L191.635 336.213
L192.082 336.176
L192.528 333.776
L192.974 336.122
L193.421 336.24
L193.867 334.066
L194.314 329.803
L194.76 341.834
L195.206 327.642
L195.653 317.657
L196.099 335.083
L196.546 333.119
L196.992 335.363
L197.438 333.368
L197.885 335.644
L198.331 335.316
L198.778 333.341
L199.224 335.498
L199.67 335.378
L200.117 333.193
L200.563 335.571
L201.01 335.465
L201.456 333.473
L201.902 335.468
L202.349 335.507
L202.795 332.652
L203.242 335.974
L203.688 335.47
L204.134 308.552
L204.581 344.025
L205.027 329.379
L205.474 339.685
L205.92 336.429
L206.366 329.816
L206.813 338.698
L207.259 337.966
L207.706 336.427
L208.152 333.654
L208.598 336.357
L209.045 336.158
L209.491 334.038
L209.938 336.089
L210.384 336.641
L210.83 327.472
L211.277 349.542
L211.723 336.563
L212.17 308.821
L212.616 337.147
L213.062 337.328
L213.509 334.984
L213.955 337.351
L214.848 337.226
L215.294 334.787
L215.741 337.382
L216.187 337.23
L216.634 335.21
L217.08 337.182
L217.526 337.274
L217.973 334.846
L218.419 337.445
L218.866 337.064
L219.312 337.23
L219.758 335.357
L220.205 337.5
L220.651 337.133
L221.098 321.085
L221.544 337.105
L221.99 337.481
L222.437 337.063
L222.883 335.054
L223.33 337.449
L223.776 337.145
L224.222 334.805
L224.669 337.577
L225.115 336.907
L225.562 337.692
L226.008 335.002
L226.454 337.084
L226.901 309.698
L227.347 335.137
L227.794 337.408
L228.24 337.065
L228.686 335.137
L229.133 337.452
L230.026 329.14
L230.472 339.599
L230.918 336.528
L231.365 336.368
L231.811 327.47
L232.258 342.96
L232.704 343.944
L233.15 333.838
L233.597 336.28
L234.043 336.365
L234.49 334.22
L234.936 336.303
L235.382 336.21
L235.829 333.928
L236.275 343.955
L236.722 336.079
L237.614 338.969
L238.061 331.81
L238.507 333.323
L238.954 284.928
L239.4 312.657
L239.846 308.442
L240.293 316.899
L240.739 292.249
L241.632 343.417
L242.078 332.516
L242.525 310.374
L242.971 333.144
L243.418 335.488
L243.864 343.056
L244.31 333.52
L244.757 335.602
L245.203 328.843
L245.65 339.408
L246.096 323.631
L246.542 336.338
L246.989 334.148
L247.435 337.13
L247.882 336.156
L248.328 333.83
L248.774 336.545
L249.221 336.102
L249.667 334.596
L250.114 336.117
L250.56 336.906
L251.006 341.219
L251.453 336.263
L251.899 329.747
L252.346 346.629
L252.792 336.296
L253.238 331.402
L253.685 323.911
L254.131 336.19
L254.578 336.745
L255.024 334.073
L255.47 336.283
L255.917 329.805
L256.363 347.429
L256.81 336.282
L257.256 336.238
L257.702 333.877
L258.149 336.327
L258.595 330.135
L259.042 340.096
L259.488 336.168
L259.934 336.495
L260.381 333.901
L260.827 336.145
L261.274 336.163
L261.72 334.162
L262.166 310.627
L262.613 335.345
L263.059 333.394
L263.506 335.399
L263.952 333.449
L264.398 335.751
L264.845 335.37
L265.291 331.711
L265.738 337.128
L266.63 333.537
L267.077 335.765
L267.523 335.509
L267.97 333.366
L268.416 335.602
L268.862 335.612
L269.309 333.529
L269.755 335.098
L270.202 336.233
L270.648 308.653
L271.094 336.264
L271.541 336.469
L271.987 334.197
L272.434 336.246
L272.88 336.543
L273.326 335.896
L273.773 336.533
L274.219 336.852
L274.666 334.232
L275.112 336.674
L275.558 336.141
L276.005 334.066
L276.898 339.695
L277.344 334.555
L277.79 335.968
L278.237 336.104
L278.683 309.208
L279.576 349.898
L280.022 335.197
L280.469 337.165
L280.915 337.467
L281.362 337.92
L281.808 335.096
L282.254 337.612
L282.701 337.701
L283.147 335.144
L283.594 337.373
L284.04 337.464
L284.486 335.162
L284.933 337.71
L285.379 337.195
L285.826 337.317
L286.272 335.237
L286.718 337.799
L287.165 337.308
L287.611 321.273
L288.058 337.499
L288.504 337.564
L288.95 337.411
L289.397 328.864
L289.843 343.917
L290.29 337.46
L290.736 335.544
L291.182 337.695
L291.629 337.446
L292.075 337.932
L292.522 334.756
L292.968 337.225
L293.414 337.429
L293.861 335.662
L294.307 337.47
L294.754 337.718
L295.2 334.902
L295.646 337.272
L296.093 318.651
L296.539 335.601
L296.986 333.578
L297.432 335.868
L297.878 335.644
L298.325 305.995
L298.771 336.264
L299.218 336.554
L299.664 334.305
L300.11 336.601
L300.557 329.936
L301.003 335.21
L301.45 342.401
L301.896 336.214
L302.342 334.547
L302.789 336.291
L303.235 336.444
L303.682 334.611
L304.128 336.22
L304.574 336.563
L305.021 327.475
L305.467 343.215
L306.36 327.426
L306.806 338.894
L307.253 335.819
L307.699 334.867
L308.146 336.162
L308.592 336.624
L309.038 332.331
L309.485 338.085
L310.378 334.753
L310.824 336.306
L311.27 337.086
L311.717 334.17
L312.163 336.537
L312.61 336.439
L313.056 334.105
L313.502 336.388
L313.949 336.534
L314.395 334.906
L315.288 336.576
L315.734 334.62
L316.181 304.731
L316.627 342.036
L317.074 334.042
L317.52 337.832
L317.966 343.114
L318.413 333.664
L318.859 335.976
L319.306 335.844
L319.752 333.799
L320.198 335.601
L320.645 333.977
L321.091 335.605
L321.538 335.854
L321.984 333.598
L322.43 335.635
L322.877 329.209
L323.323 346.976
L323.77 335.657
L324.216 335.65
L324.662 333.542
L325.109 335.744
L325.555 313.13
L326.002 333.997
L326.448 336.47
L326.894 336.592
L327.341 334.449
L327.787 329.637
L328.234 343.322
L328.68 341.481
L329.126 336.392
L329.573 336.354
L330.019 306.733
L330.466 336.544
L330.912 336.418
L331.358 333.182
L331.805 337.595
L332.251 343.79
L332.698 334.246
L333.144 336.603
L333.59 336.45
L334.037 334.125
L334.483 336.529
L334.93 312.171
L335.376 335.113
L335.822 337.54
L336.269 331.122
L336.715 343.856
L337.162 336.087
L337.608 337.473
L338.054 337.261
L338.501 335.631
L338.947 337.479
L339.394 331.362
L339.84 341.428
L340.286 337.588
L340.733 338.044
L341.179 337.7
L341.626 335.038
L342.072 337.642
L342.518 337.296
L342.965 335.173
L343.411 337.218
L343.858 337.731
L344.304 337.63
L344.75 321.146
L345.197 337.807
L345.643 330.795
L346.09 341.228
L346.536 337.479
L346.982 337.831
L347.429 337.443
L347.875 335.21
L348.322 337.82
L349.214 336.058
L349.661 337.637
L350.107 337.492
L350.554 335.338
L351 337.7
L351.893 337.466
L352.339 338.261
L352.786 337.834
L353.232 333.204
L353.678 334.543
L354.571 338.733
L355.018 333.941
L355.464 336.382
L355.91 337.1
L356.357 333.576
L356.803 337.288
L357.25 336.471
L357.696 334.578
L358.142 336.52
L358.589 336.774
L359.035 334.845
L359.482 336.126
L359.928 336.693
L360.374 334.462
L360.821 336.08
L361.267 336.749
L361.714 330.112
L362.16 335.809
L362.606 335.934
L363.053 327.102
L363.499 342.367
L363.946 335.972
L364.392 333.303
L364.838 336.006
L365.285 335.911
L365.731 340.421
L366.624 331.119
L367.07 338.809
L367.963 333.549
L368.41 335.856
L368.856 335.711
L369.302 333.509
L369.749 308.329
L370.195 336.419
L370.642 334.405
L371.088 336.52
L371.534 336.396
L371.981 334.535
L372.427 336.331
L372.874 336.65
L373.32 334.262
L373.766 336.334
L374.213 336.64
L374.659 334.461
L375.106 336.317
L375.552 336.331
L375.998 334.267
L376.445 336.559
L376.891 336.603
L377.338 333.88
L377.784 336.773
L378.23 326.502
L378.677 334.145
L379.123 331.27
L379.57 341.957
L380.016 334.424
L380.462 336.536
L380.909 336.397
L381.355 333.861
L381.802 336.827
L382.248 336.513
L382.694 334.538
L383.141 336.642
L383.587 336.071
L384.034 334.529
L384.48 336.8
L384.926 336.275
L385.373 336.907
L385.819 334.146
L386.266 330.007
L386.712 316.905
L387.158 333.744
L387.605 335.867
L388.051 333.742
L388.498 335.988
L388.944 336.333
L389.39 333.627
L389.837 335.878
L390.283 336.073
L390.73 333.51
L391.176 336.102
L391.622 336.14
L392.069 333.827
L392.515 335.641
L392.962 335.826
L393.408 336.568
L393.854 336.124
L394.301 333.421
L394.747 310.767
L395.194 336.269
L395.64 334.558
L396.086 336.47
L396.533 336.542
L396.979 334.438
L397.426 336.312
L397.872 344.002
L398.318 334.637
L398.765 336.496
L399.211 336.418
L399.658 334.364
L400.104 281.44
L400.55 336.766
L400.997 343.884
L401.443 334.414
L401.89 336.533
L402.336 336.665
L402.782 334.069
L403.229 311.725
L403.675 337.019
L404.122 336.026
L404.568 337.404
L405.014 331.038
L405.907 338.263
L406.354 343.409
L406.8 345.121
L407.246 328.729
L407.693 343.606
L408.139 337.37
L408.586 335.47
L409.032 336.669
L409.425 -1
M409.532 -1
L409.925 337.971
L410.371 337.112
L410.818 337.729
L411.264 337.996
L411.71 321.272
L412.157 337.647
L412.603 338.085
L413.05 335.401
L413.496 338.062
L414.389 337.449
L414.835 335.403
L415.728 340.313
L416.174 335.792
L416.621 337.197
L417.067 337.761
L417.514 337.57
L417.96 335.635
L418.406 337.413
L418.853 337.854
L419.299 335.47
L419.746 337.302
L420.192 337.605
L420.638 331.379
L421.085 343.692
L421.531 330.116
L421.978 340.213
L422.424 336.616
L422.87 330.801
L423.317 343.609
L423.763 333.889
L424.21 336.828
L424.656 336.613
L425.102 327.795
L425.549 342.473
L425.995 337.027
L426.442 334.011
L426.888 336.627
L427.334 336.905
L427.781 334.355
L428.227 336.565
L428.674 339.996
L429.12 330.013
L429.566 329.165
L430.013 339.379
L430.459 329.28
L430.906 343.051
L431.352 333.1
L431.798 335.706
L432.245 329.432
L432.691 339.175
L433.138 329.694
L433.584 343.013
L434.03 333.194
L434.477 335.788
L434.923 329.312
L435.37 339.404
L435.816 335.767
L436.262 335.851
L436.709 333.871
L437.155 308.93
L438.048 343.574
L438.494 336.524
L438.941 336.643
L439.387 334.349
L439.834 336.606
L440.28 336.693
L440.726 334.291
L441.173 336.378
L441.619 337.042
L442.066 334.057
L442.512 336.706
L442.958 336.478
L443.405 341.713
L443.851 336.354
L444.298 336.363
L444.744 334.71
L445.19 336.755
L445.637 326.422
L446.083 334.16
L446.53 330.664
L446.976 342.469
L447.422 334.812
L447.869 344.099
L448.315 336.848
L448.762 334.497
L449.208 336.869
L449.654 330.617
L450.101 335.195
L450.547 342.7
L450.994 343.981
L451.44 334.262
L451.886 336.55
L452.333 337.059
L452.779 334.767
L453.226 336.408
L453.672 337.013
L454.118 327.823
L454.565 343.076
L455.011 310.613
L455.458 333.597
L455.904 335.779
L456.35 336.029
L456.797 333.773
L457.243 336.161
L457.69 333.564
L458.136 335.779
L458.582 336.126
L459.029 333.506
L459.475 336.041
L459.922 335.779
L460.368 240.415
L460.814 235.991
L461.261 336.365
L461.707 333.71
L462.154 336.047
L462.6 335.943
L463.046 333.889
L463.493 335.847
L463.939 336.127
L464.386 302.25
L464.832 337.349
L465.278 343.12
L465.725 334.479
L466.171 336.44
L466.618 336.71
L467.064 334.272
L467.51 320.858
L467.957 336.747
L468.403 334.193
L468.85 336.792
L469.296 317.568
L469.742 333.942
L470.189 335.67
L470.635 335.529
L471.082 334.487
L471.528 335.899
L471.974 333.591
L472.421 336.052
L472.867 336.102
L473.314 334.134
L473.76 335.714
L474.206 336.025
L474.653 310.32
L475.099 337.692
L475.546 337.878
L475.992 321.018
L476.438 337.947
L476.885 337.668
L477.331 307.749
L477.778 338.171
L478.224 333.132
L478.67 342.555
L479.117 335.383
L479.563 338.079
L480.01 338.14
L480.456 336.966
L480.902 337.761
L481.349 337.917
L481.795 337.832
L482.242 342.993
L482.688 337.599
L483.134 338.021
L483.581 335.857
L484.027 331.227
L484.474 344.523
L484.92 331.167
L485.366 336.457
L485.813 336.193
L486.259 334.677
L486.706 336.653
L487.152 336.825
L487.598 336.813
L488.045 334.489
L488.491 336.557
L488.938 336.718
L489.384 327.708
L489.83 342.643
L490.277 336.437
L490.723 334.618
L491.17 337.266
L491.616 336.901
L492.062 334.485
L492.509 336.658
L492.955 337.417
L493.402 323.859
L493.848 342.358
L494.294 334.064
L494.741 336.052
L495.187 343.259
L495.634 333.737
L496.08 336.085
L496.526 336.086
L496.973 327.185
L497.419 341.664
L497.866 343.563
L498.312 333.872
L498.758 335.916
L499.205 336.4
L499.651 333.92
L500.098 329.443
L500.544 343.049
L500.99 333.786
L501.437 302.428
L501.883 340.798
L502.33 336.622
L502.776 336.469
L503.222 336.942
L503.669 334.41
L504.115 336.585
L504.562 337.049
L505.008 334.516
L505.454 336.447
L505.901 337.023
L506.347 334.483
L506.794 336.642
L507.24 336.596
L507.686 339.84
L508.133 338.82
L509.026 334.537
L509.472 336.637
L509.918 326.728
L510.365 334.86
L510.811 336.583
L511.258 336.623
L511.704 334.661
L512.15 343.993
L512.597 330.036
L513.043 340.23
L513.49 337.094
L513.936 336.735
L514.382 334.768
L514.829 330.18
L515.275 343.135
L515.722 334.756
L516.168 336.484
L516.614 336.981
L517.061 334.256
L517.507 324.698
L517.954 336.828
L517.954 336.828" style="fill:none;opacity:0.5;stroke:#0000ff;"/>
   </g>
   <g id="matplotlib.axis_1">
    <g id="xtick_1">
     <g id="line2d_4">
      <path clip-path="url(#p7ff5b81e1d)" d="
M72 388.8
L72 43.2" style="fill:none;stroke:#000000;stroke-dasharray:1.000000,3.000000;stroke-dashoffset:0.0;stroke-linecap:butt;stroke-width:0.5;"/>
     </g>
     <g id="line2d_5">
      <defs>
       <path d="
M0 0
L0 -4" id="m0012dd4eef" style="stroke:#000000;stroke-linecap:butt;stroke-width:0.5;"/>
      </defs>
      <g>
       <use style="stroke:#000000;stroke-linecap:butt;stroke-width:0.5;" x="72.0" xlink:href="#m0012dd4eef" y="388.8"/>
      </g>
     </g>
     <g id="line2d_6">
      <defs>
       <path d="
M0 0
L0 4" id="m476344969c" style="stroke:#000000;stroke-linecap:butt;stroke-width:0.5;"/>
      </defs>
      <g>
       <use style="stroke:#000000;stroke-linecap:butt;stroke-width:0.5;" x="72.0" xlink:href="#m476344969c" y="43.2"/>
      </g>
     </g>
     <g id="text_1">
      <!-- 0 -->
      <defs>
       <path d="
M31.7812 66.4062
Q24.1719 66.4062 20.3281 58.9062
Q16.5 51.4219 16.5 36.375
Q16.5 21.3906 20.3281 13.8906
Q24.1719 6.39062 31.7812 6.39062
Q39.4531 6.39062 43.2812 13.8906
Q47.125 21.3906 47.125 36.375
Q47.125 51.4219 43.2812 58.9062
Q39.4531 66.4062 31.7812 66.4062
M31.7812 74.2188
Q44.0469 74.2188 50.5156 64.5156
Q56.9844 54.8281 56.9844 36.375
Q56.9844 17.9688 50.5156 8.26562
Q44.0469 -1.42188 31.7812 -1.42188
Q19.5312 -1.42188 13.0625 8.26562
Q6.59375 17.9688 6.59375 36.375
Q6.59375 54.8281 13.0625 64.5156
Q19.5312 74.2188 31.7812 74.2188" id="BitstreamVeraSans-Roman-30"/>
      </defs>
      <g transform="translate(68.9765625 401.70625)scale(0.12 -0.12)">
       <use xlink:href="#BitstreamVeraSans-Roman-30"/>
      </g>
     </g>
    </g>
    <g id="xtick_2">
     <g id="line2d_7">
      <path clip-path="url(#p7ff5b81e1d)" d="
M116.64 388.8
L116.64 43.2" style="fill:none;stroke:#000000;stroke-dasharray:1.000000,3.000000;stroke-dashoffset:0.0;stroke-linecap:butt;stroke-width:0.5;"/>
     </g>
     <g id="line2d_8">
      <g>
       <use style="stroke:#000000;stroke-linecap:butt;stroke-width:0.5;" x="116.64" xlink:href="#m0012dd4eef" y="388.8"/>
      </g>
     </g>
     <g id="line2d_9">
      <g>
       <use style="stroke:#000000;stroke-linecap:butt;stroke-width:0.5;" x="116.64" xlink:href="#m476344969c" y="43.2"/>
      </g>
     </g>
     <g id="text_2">
      <!-- 100 -->
      <defs>
       <path d="
M12.4062 8.29688
L28.5156 8.29688
L28.5156 63.9219
L10.9844 60.4062
L10.9844 69.3906
L28.4219 72.9062
L38.2812 72.9062
L38.2812 8.29688
L54.3906 8.29688
L54.3906 0
L12.4062 0
z
" id="BitstreamVeraSans-Roman-31"/>
      </defs>
      <g transform="translate(106.245 401.70625)scale(0.12 -0.12)">
       <use xlink:href="#BitstreamVeraSans-Roman-31"/>
       <use x="63.623046875" xlink:href="#BitstreamVeraSans-Roman-30"/>
       <use x="127.24609375" xlink:href="#BitstreamVeraSans-Roman-30"/>
      </g>
     </g>
    </g>
    <g id="xtick_3">
     <g id="line2d_10">
      <path clip-path="url(#p7ff5b81e1d)" d="
M161.28 388.8
L161.28 43.2" style="fill:none;stroke:#000000;stroke-dasharray:1.000000,3.000000;stroke-dashoffset:0.0;stroke-linecap:butt;stroke-width:0.5;"/>
     </g>
     <g id="line2d_11">
      <g>
       <use style="stroke:#000000;stroke-linecap:butt;stroke-width:0.5;" x="161.28" xlink:href="#m0012dd4eef" y="388.8"/>
      </g>
     </g>
     <g id="line2d_12">
      <g>
       <use style="stroke:#000000;stroke-linecap:butt;stroke-width:0.5;" x="161.28" xlink:href="#m476344969c" y="43.2"/>
      </g>
     </g>
     <g id="text_3">
      <!-- 200 -->
      <defs>
       <path d="
M19.1875 8.29688
L53.6094 8.29688
L53.6094 0
L7.32812 0
L7.32812 8.29688
Q12.9375 14.1094 22.625 23.8906
Q32.3281 33.6875 34.8125 36.5312
Q39.5469 41.8438 41.4219 45.5312
Q43.3125 49.2188 43.3125 52.7812
Q43.3125 58.5938 39.2344 62.25
Q35.1562 65.9219 28.6094 65.9219
Q23.9688 65.9219 18.8125 64.3125
Q13.6719 62.7031 7.8125 59.4219
L7.8125 69.3906
Q13.7656 71.7812 18.9375 73
Q24.125 74.2188 28.4219 74.2188
Q39.75 74.2188 46.4844 68.5469
Q53.2188 62.8906 53.2188 53.4219
Q53.2188 48.9219 51.5312 44.8906
Q49.8594 40.875 45.4062 35.4062
Q44.1875 33.9844 37.6406 27.2188
Q31.1094 20.4531 19.1875 8.29688" id="BitstreamVeraSans-Roman-32"/>
      </defs>
      <g transform="translate(150.665625 401.70625)scale(0.12 -0.12)">
       <use xlink:href="#BitstreamVeraSans-Roman-32"/>
       <use x="63.623046875" xlink:href="#BitstreamVeraSans-Roman-30"/>
       <use x="127.24609375" xlink:href="#BitstreamVeraSans-Roman-30"/>
      </g>
     </g>
    </g>
    <g id="xtick_4">
     <g id="line2d_13">
      <path clip-path="url(#p7ff5b81e1d)" d="
M205.92 388.8
L205.92 43.2" style="fill:none;stroke:#000000;stroke-dasharray:1.000000,3.000000;stroke-dashoffset:0.0;stroke-linecap:butt;stroke-width:0.5;"/>
     </g>
     <g id="line2d_14">
      <g>
       <use style="stroke:#000000;stroke-linecap:butt;stroke-width:0.5;" x="205.92" xlink:href="#m0012dd4eef" y="388.8"/>
      </g>
     </g>
     <g id="line2d_15">
      <g>
       <use style="stroke:#000000;stroke-linecap:butt;stroke-width:0.5;" x="205.92" xlink:href="#m476344969c" y="43.2"/>
      </g>
     </g>
     <g id="text_4">
      <!-- 300 -->
      <defs>
       <path d="
M40.5781 39.3125
Q47.6562 37.7969 51.625 33
Q55.6094 28.2188 55.6094 21.1875
Q55.6094 10.4062 48.1875 4.48438
Q40.7656 -1.42188 27.0938 -1.42188
Q22.5156 -1.42188 17.6562 -0.515625
Q12.7969 0.390625 7.625 2.20312
L7.625 11.7188
Q11.7188 9.32812 16.5938 8.10938
Q21.4844 6.89062 26.8125 6.89062
Q36.0781 6.89062 40.9375 10.5469
Q45.7969 14.2031 45.7969 21.1875
Q45.7969 27.6406 41.2812 31.2656
Q36.7656 34.9062 28.7188 34.9062
L20.2188 34.9062
L20.2188 43.0156
L29.1094 43.0156
Q36.375 43.0156 40.2344 45.9219
Q44.0938 48.8281 44.0938 54.2969
Q44.0938 59.9062 40.1094 62.9062
Q36.1406 65.9219 28.7188 65.9219
Q24.6562 65.9219 20.0156 65.0312
Q15.375 64.1562 9.8125 62.3125
L9.8125 71.0938
Q15.4375 72.6562 20.3438 73.4375
Q25.25 74.2188 29.5938 74.2188
Q40.8281 74.2188 47.3594 69.1094
Q53.9062 64.0156 53.9062 55.3281
Q53.9062 49.2656 50.4375 45.0938
Q46.9688 40.9219 40.5781 39.3125" id="BitstreamVeraSans-Roman-33"/>
      </defs>
      <g transform="translate(195.3234375 401.70625)scale(0.12 -0.12)">
       <use xlink:href="#BitstreamVeraSans-Roman-33"/>
       <use x="63.623046875" xlink:href="#BitstreamVeraSans-Roman-30"/>
       <use x="127.24609375" xlink:href="#BitstreamVeraSans-Roman-30"/>
      </g>
     </g>
    </g>
    <g id="xtick_5">
     <g id="line2d_16">
      <path clip-path="url(#p7ff5b81e1d)" d="
M250.56 388.8
L250.56 43.2" style="fill:none;stroke:#000000;stroke-dasharray:1.000000,3.000000;stroke-dashoffset:0.0;stroke-linecap:butt;stroke-width:0.5;"/>
     </g>
     <g id="line2d_17">
      <g>
       <use style="stroke:#000000;stroke-linecap:butt;stroke-width:0.5;" x="250.56" xlink:href="#m0012dd4eef" y="388.8"/>
      </g>
     </g>
     <g id="line2d_18">
      <g>
       <use style="stroke:#000000;stroke-linecap:butt;stroke-width:0.5;" x="250.56" xlink:href="#m476344969c" y="43.2"/>
      </g>
     </g>
     <g id="text_5">
      <!-- 400 -->
      <defs>
       <path d="
M37.7969 64.3125
L12.8906 25.3906
L37.7969 25.3906
z

M35.2031 72.9062
L47.6094 72.9062
L47.6094 25.3906
L58.0156 25.3906
L58.0156 17.1875
L47.6094 17.1875
L47.6094 0
L37.7969 0
L37.7969 17.1875
L4.89062 17.1875
L4.89062 26.7031
z
" id="BitstreamVeraSans-Roman-34"/>
      </defs>
      <g transform="translate(239.799375 401.70625)scale(0.12 -0.12)">
       <use xlink:href="#BitstreamVeraSans-Roman-34"/>
       <use x="63.623046875" xlink:href="#BitstreamVeraSans-Roman-30"/>
       <use x="127.24609375" xlink:href="#BitstreamVeraSans-Roman-30"/>
      </g>
     </g>
    </g>
    <g id="xtick_6">
     <g id="line2d_19">
      <path clip-path="url(#p7ff5b81e1d)" d="
M295.2 388.8
L295.2 43.2" style="fill:none;stroke:#000000;stroke-dasharray:1.000000,3.000000;stroke-dashoffset:0.0;stroke-linecap:butt;stroke-width:0.5;"/>
     </g>
     <g id="line2d_20">
      <g>
       <use style="stroke:#000000;stroke-linecap:butt;stroke-width:0.5;" x="295.2" xlink:href="#m0012dd4eef" y="388.8"/>
      </g>
     </g>
     <g id="line2d_21">
      <g>
       <use style="stroke:#000000;stroke-linecap:butt;stroke-width:0.5;" x="295.2" xlink:href="#m476344969c" y="43.2"/>
      </g>
     </g>
     <g id="text_6">
      <!-- 500 -->
      <defs>
       <path d="
M10.7969 72.9062
L49.5156 72.9062
L49.5156 64.5938
L19.8281 64.5938
L19.8281 46.7344
Q21.9688 47.4688 24.1094 47.8281
Q26.2656 48.1875 28.4219 48.1875
Q40.625 48.1875 47.75 41.5
Q54.8906 34.8125 54.8906 23.3906
Q54.8906 11.625 47.5625 5.09375
Q40.2344 -1.42188 26.9062 -1.42188
Q22.3125 -1.42188 17.5469 -0.640625
Q12.7969 0.140625 7.71875 1.70312
L7.71875 11.625
Q12.1094 9.23438 16.7969 8.0625
Q21.4844 6.89062 26.7031 6.89062
Q35.1562 6.89062 40.0781 11.3281
Q45.0156 15.7656 45.0156 23.3906
Q45.0156 31 40.0781 35.4375
Q35.1562 39.8906 26.7031 39.8906
Q22.75 39.8906 18.8125 39.0156
Q14.8906 38.1406 10.7969 36.2812
z
" id="BitstreamVeraSans-Roman-35"/>
      </defs>
      <g transform="translate(284.6090625 401.70625)scale(0.12 -0.12)">
       <use xlink:href="#BitstreamVeraSans-Roman-35"/>
       <use x="63.623046875" xlink:href="#BitstreamVeraSans-Roman-30"/>
       <use x="127.24609375" xlink:href="#BitstreamVeraSans-Roman-30"/>
      </g>
     </g>
    </g>
    <g id="xtick_7">
     <g id="line2d_22">
      <path clip-path="url(#p7ff5b81e1d)" d="
M339.84 388.8
L339.84 43.2" style="fill:none;stroke:#000000;stroke-dasharray:1.000000,3.000000;stroke-dashoffset:0.0;stroke-linecap:butt;stroke-width:0.5;"/>
     </g>
     <g id="line2d_23">
      <g>
       <use style="stroke:#000000;stroke-linecap:butt;stroke-width:0.5;" x="339.84" xlink:href="#m0012dd4eef" y="388.8"/>
      </g>
     </g>
     <g id="line2d_24">
      <g>
       <use style="stroke:#000000;stroke-linecap:butt;stroke-width:0.5;" x="339.84" xlink:href="#m476344969c" y="43.2"/>
      </g>
     </g>
     <g id="text_7">
      <!-- 600 -->
      <defs>
       <path d="
M33.0156 40.375
Q26.375 40.375 22.4844 35.8281
Q18.6094 31.2969 18.6094 23.3906
Q18.6094 15.5312 22.4844 10.9531
Q26.375 6.39062 33.0156 6.39062
Q39.6562 6.39062 43.5312 10.9531
Q47.4062 15.5312 47.4062 23.3906
Q47.4062 31.2969 43.5312 35.8281
Q39.6562 40.375 33.0156 40.375
M52.5938 71.2969
L52.5938 62.3125
Q48.875 64.0625 45.0938 64.9844
Q41.3125 65.9219 37.5938 65.9219
Q27.8281 65.9219 22.6719 59.3281
Q17.5312 52.7344 16.7969 39.4062
Q19.6719 43.6562 24.0156 45.9219
Q28.375 48.1875 33.5938 48.1875
Q44.5781 48.1875 50.9531 41.5156
Q57.3281 34.8594 57.3281 23.3906
Q57.3281 12.1562 50.6875 5.35938
Q44.0469 -1.42188 33.0156 -1.42188
Q20.3594 -1.42188 13.6719 8.26562
Q6.98438 17.9688 6.98438 36.375
Q6.98438 53.6562 15.1875 63.9375
Q23.3906 74.2188 37.2031 74.2188
Q40.9219 74.2188 44.7031 73.4844
Q48.4844 72.75 52.5938 71.2969" id="BitstreamVeraSans-Roman-36"/>
      </defs>
      <g transform="translate(329.205 401.70625)scale(0.12 -0.12)">
       <use xlink:href="#BitstreamVeraSans-Roman-36"/>
       <use x="63.623046875" xlink:href="#BitstreamVeraSans-Roman-30"/>
       <use x="127.24609375" xlink:href="#BitstreamVeraSans-Roman-30"/>
      </g>
     </g>
    </g>
    <g id="xtick_8">
     <g id="line2d_25">
      <path clip-path="url(#p7ff5b81e1d)" d="
M384.48 388.8
L384.48 43.2" style="fill:none;stroke:#000000;stroke-dasharray:1.000000,3.000000;stroke-dashoffset:0.0;stroke-linecap:butt;stroke-width:0.5;"/>
     </g>
     <g id="line2d_26">
      <g>
       <use style="stroke:#000000;stroke-linecap:butt;stroke-width:0.5;" x="384.48" xlink:href="#m0012dd4eef" y="388.8"/>
      </g>
     </g>
     <g id="line2d_27">
      <g>
       <use style="stroke:#000000;stroke-linecap:butt;stroke-width:0.5;" x="384.48" xlink:href="#m476344969c" y="43.2"/>
      </g>
     </g>
     <g id="text_8">
      <!-- 700 -->
      <defs>
       <path d="
M8.20312 72.9062
L55.0781 72.9062
L55.0781 68.7031
L28.6094 0
L18.3125 0
L43.2188 64.5938
L8.20312 64.5938
z
" id="BitstreamVeraSans-Roman-37"/>
      </defs>
      <g transform="translate(373.918125 401.70625)scale(0.12 -0.12)">
       <use xlink:href="#BitstreamVeraSans-Roman-37"/>
       <use x="63.623046875" xlink:href="#BitstreamVeraSans-Roman-30"/>
       <use x="127.24609375" xlink:href="#BitstreamVeraSans-Roman-30"/>
      </g>
     </g>
    </g>
    <g id="xtick_9">
     <g id="line2d_28">
      <path clip-path="url(#p7ff5b81e1d)" d="
M429.12 388.8
L429.12 43.2" style="fill:none;stroke:#000000;stroke-dasharray:1.000000,3.000000;stroke-dashoffset:0.0;stroke-linecap:butt;stroke-width:0.5;"/>
     </g>
     <g id="line2d_29">
      <g>
       <use style="stroke:#000000;stroke-linecap:butt;stroke-width:0.5;" x="429.12" xlink:href="#m0012dd4eef" y="388.8"/>
      </g>
     </g>
     <g id="line2d_30">
      <g>
       <use style="stroke:#000000;stroke-linecap:butt;stroke-width:0.5;" x="429.12" xlink:href="#m476344969c" y="43.2"/>
      </g>
     </g>
     <g id="text_9">
      <!-- 800 -->
      <defs>
       <path d="
M31.7812 34.625
Q24.75 34.625 20.7188 30.8594
Q16.7031 27.0938 16.7031 20.5156
Q16.7031 13.9219 20.7188 10.1562
Q24.75 6.39062 31.7812 6.39062
Q38.8125 6.39062 42.8594 10.1719
Q46.9219 13.9688 46.9219 20.5156
Q46.9219 27.0938 42.8906 30.8594
Q38.875 34.625 31.7812 34.625
M21.9219 38.8125
Q15.5781 40.375 12.0312 44.7188
Q8.5 49.0781 8.5 55.3281
Q8.5 64.0625 14.7188 69.1406
Q20.9531 74.2188 31.7812 74.2188
Q42.6719 74.2188 48.875 69.1406
Q55.0781 64.0625 55.0781 55.3281
Q55.0781 49.0781 51.5312 44.7188
Q48 40.375 41.7031 38.8125
Q48.8281 37.1562 52.7969 32.3125
Q56.7812 27.4844 56.7812 20.5156
Q56.7812 9.90625 50.3125 4.23438
Q43.8438 -1.42188 31.7812 -1.42188
Q19.7344 -1.42188 13.25 4.23438
Q6.78125 9.90625 6.78125 20.5156
Q6.78125 27.4844 10.7812 32.3125
Q14.7969 37.1562 21.9219 38.8125
M18.3125 54.3906
Q18.3125 48.7344 21.8438 45.5625
Q25.3906 42.3906 31.7812 42.3906
Q38.1406 42.3906 41.7188 45.5625
Q45.3125 48.7344 45.3125 54.3906
Q45.3125 60.0625 41.7188 63.2344
Q38.1406 66.4062 31.7812 66.4062
Q25.3906 66.4062 21.8438 63.2344
Q18.3125 60.0625 18.3125 54.3906" id="BitstreamVeraSans-Roman-38"/>
      </defs>
      <g transform="translate(418.4728125 401.70625)scale(0.12 -0.12)">
       <use xlink:href="#BitstreamVeraSans-Roman-38"/>
       <use x="63.623046875" xlink:href="#BitstreamVeraSans-Roman-30"/>
       <use x="127.24609375" xlink:href="#BitstreamVeraSans-Roman-30"/>
      </g>
     </g>
    </g>
    <g id="xtick_10">
     <g id="line2d_31">
      <path clip-path="url(#p7ff5b81e1d)" d="
M473.76 388.8
L473.76 43.2" style="fill:none;stroke:#000000;stroke-dasharray:1.000000,3.000000;stroke-dashoffset:0.0;stroke-linecap:butt;stroke-width:0.5;"/>
     </g>
     <g id="line2d_32">
      <g>
       <use style="stroke:#000000;stroke-linecap:butt;stroke-width:0.5;" x="473.76" xlink:href="#m0012dd4eef" y="388.8"/>
      </g>
     </g>
     <g id="line2d_33">
      <g>
       <use style="stroke:#000000;stroke-linecap:butt;stroke-width:0.5;" x="473.76" xlink:href="#m476344969c" y="43.2"/>
      </g>
     </g>
     <g id="text_10">
      <!-- 900 -->
      <defs>
       <path d="
M10.9844 1.51562
L10.9844 10.5
Q14.7031 8.73438 18.5 7.8125
Q22.3125 6.89062 25.9844 6.89062
Q35.75 6.89062 40.8906 13.4531
Q46.0469 20.0156 46.7812 33.4062
Q43.9531 29.2031 39.5938 26.9531
Q35.25 24.7031 29.9844 24.7031
Q19.0469 24.7031 12.6719 31.3125
Q6.29688 37.9375 6.29688 49.4219
Q6.29688 60.6406 12.9375 67.4219
Q19.5781 74.2188 30.6094 74.2188
Q43.2656 74.2188 49.9219 64.5156
Q56.5938 54.8281 56.5938 36.375
Q56.5938 19.1406 48.4062 8.85938
Q40.2344 -1.42188 26.4219 -1.42188
Q22.7031 -1.42188 18.8906 -0.6875
Q15.0938 0.046875 10.9844 1.51562
M30.6094 32.4219
Q37.25 32.4219 41.125 36.9531
Q45.0156 41.5 45.0156 49.4219
Q45.0156 57.2812 41.125 61.8438
Q37.25 66.4062 30.6094 66.4062
Q23.9688 66.4062 20.0938 61.8438
Q16.2188 57.2812 16.2188 49.4219
Q16.2188 41.5 20.0938 36.9531
Q23.9688 32.4219 30.6094 32.4219" id="BitstreamVeraSans-Roman-39"/>
      </defs>
      <g transform="translate(463.08375 401.70625)scale(0.12 -0.12)">
       <use xlink:href="#BitstreamVeraSans-Roman-39"/>
       <use x="63.623046875" xlink:href="#BitstreamVeraSans-Roman-30"/>
       <use x="127.24609375" xlink:href="#BitstreamVeraSans-Roman-30"/>
      </g>
     </g>
    </g>
   </g>
   <g id="matplotlib.axis_2">
    <g id="ytick_1">
     <g id="line2d_34">
      <path clip-path="url(#p7ff5b81e1d)" d="
M72 388.8
L518.4 388.8" style="fill:none;stroke:#000000;stroke-dasharray:1.000000,3.000000;stroke-dashoffset:0.0;stroke-linecap:butt;stroke-width:0.5;"/>
     </g>
     <g id="line2d_35">
      <defs>
       <path d="
M0 0
L4 0" id="me8a85f7bf6" style="stroke:#000000;stroke-linecap:butt;stroke-width:0.5;"/>
      </defs>
      <g>
       <use style="stroke:#000000;stroke-linecap:butt;stroke-width:0.5;" x="72.0" xlink:href="#me8a85f7bf6" y="388.8"/>
      </g>
     </g>
     <g id="line2d_36">
      <defs>
       <path d="
M0 0
L-4 0" id="m1a32005dea" style="stroke:#000000;stroke-linecap:butt;stroke-width:0.5;"/>
      </defs>
      <g>
       <use style="stroke:#000000;stroke-linecap:butt;stroke-width:0.5;" x="518.4" xlink:href="#m1a32005dea" y="388.8"/>
      </g>
     </g>
     <g id="text_11">
      <!-- 0.000 -->
      <defs>
       <path d="
M10.6875 12.4062
L21 12.4062
L21 0
L10.6875 0
z
" id="BitstreamVeraSans-Roman-2e"/>
      </defs>
      <g transform="translate(35.234375 393.1678125)scale(0.12 -0.12)">
       <use xlink:href="#BitstreamVeraSans-Roman-30"/>
       <use x="63.623046875" xlink:href="#BitstreamVeraSans-Roman-2e"/>
       <use x="95.41015625" xlink:href="#BitstreamVeraSans-Roman-30"/>
       <use x="159.033203125" xlink:href="#BitstreamVeraSans-Roman-30"/>
       <use x="222.65625" xlink:href="#BitstreamVeraSans-Roman-30"/>
      </g>
     </g>
    </g>
    <g id="ytick_2">
     <g id="line2d_37">
      <path clip-path="url(#p7ff5b81e1d)" d="
M72 354.24
L518.4 354.24" style="fill:none;stroke:#000000;stroke-dasharray:1.000000,3.000000;stroke-dashoffset:0.0;stroke-linecap:butt;stroke-width:0.5;"/>
     </g>
     <g id="line2d_38">
      <g>
       <use style="stroke:#000000;stroke-linecap:butt;stroke-width:0.5;" x="72.0" xlink:href="#me8a85f7bf6" y="354.24"/>
      </g>
     </g>
     <g id="line2d_39">
      <g>
       <use style="stroke:#000000;stroke-linecap:butt;stroke-width:0.5;" x="518.4" xlink:href="#m1a32005dea" y="354.24"/>
      </g>
     </g>
     <g id="text_12">
      <!-- 0.005 -->
      <g transform="translate(35.485625 358.6078125)scale(0.12 -0.12)">
       <use xlink:href="#BitstreamVeraSans-Roman-30"/>
       <use x="63.623046875" xlink:href="#BitstreamVeraSans-Roman-2e"/>
       <use x="95.41015625" xlink:href="#BitstreamVeraSans-Roman-30"/>
       <use x="159.033203125" xlink:href="#BitstreamVeraSans-Roman-30"/>
       <use x="222.65625" xlink:href="#BitstreamVeraSans-Roman-35"/>
      </g>
     </g>
    </g>
    <g id="ytick_3">
     <g id="line2d_40">
      <path clip-path="url(#p7ff5b81e1d)" d="
M72 319.68
L518.4 319.68" style="fill:none;stroke:#000000;stroke-dasharray:1.000000,3.000000;stroke-dashoffset:0.0;stroke-linecap:butt;stroke-width:0.5;"/>
     </g>
     <g id="line2d_41">
      <g>
       <use style="stroke:#000000;stroke-linecap:butt;stroke-width:0.5;" x="72.0" xlink:href="#me8a85f7bf6" y="319.68"/>
      </g>
     </g>
     <g id="line2d_42">
      <g>
       <use style="stroke:#000000;stroke-linecap:butt;stroke-width:0.5;" x="518.4" xlink:href="#m1a32005dea" y="319.68"/>
      </g>
     </g>
     <g id="text_13">
      <!-- 0.010 -->
      <g transform="translate(35.234375 324.0478125)scale(0.12 -0.12)">
       <use xlink:href="#BitstreamVeraSans-Roman-30"/>
       <use x="63.623046875" xlink:href="#BitstreamVeraSans-Roman-2e"/>
       <use x="95.41015625" xlink:href="#BitstreamVeraSans-Roman-30"/>
       <use x="159.033203125" xlink:href="#BitstreamVeraSans-Roman-31"/>
       <use x="222.65625" xlink:href="#BitstreamVeraSans-Roman-30"/>
      </g>
     </g>
    </g>
    <g id="ytick_4">
     <g id="line2d_43">
      <path clip-path="url(#p7ff5b81e1d)" d="
M72 285.12
L518.4 285.12" style="fill:none;stroke:#000000;stroke-dasharray:1.000000,3.000000;stroke-dashoffset:0.0;stroke-linecap:butt;stroke-width:0.5;"/>
     </g>
     <g id="line2d_44">
      <g>
       <use style="stroke:#000000;stroke-linecap:butt;stroke-width:0.5;" x="72.0" xlink:href="#me8a85f7bf6" y="285.12"/>
      </g>
     </g>
     <g id="line2d_45">
      <g>
       <use style="stroke:#000000;stroke-linecap:butt;stroke-width:0.5;" x="518.4" xlink:href="#m1a32005dea" y="285.12"/>
      </g>
     </g>
     <g id="text_14">
      <!-- 0.015 -->
      <g transform="translate(35.485625 289.4878125)scale(0.12 -0.12)">
       <use xlink:href="#BitstreamVeraSans-Roman-30"/>
       <use x="63.623046875" xlink:href="#BitstreamVeraSans-Roman-2e"/>
       <use x="95.41015625" xlink:href="#BitstreamVeraSans-Roman-30"/>
       <use x="159.033203125" xlink:href="#BitstreamVeraSans-Roman-31"/>
       <use x="222.65625" xlink:href="#BitstreamVeraSans-Roman-35"/>
      </g>
     </g>
    </g>
    <g id="ytick_5">
     <g id="line2d_46">
      <path clip-path="url(#p7ff5b81e1d)" d="
M72 250.56
L518.4 250.56" style="fill:none;stroke:#000000;stroke-dasharray:1.000000,3.000000;stroke-dashoffset:0.0;stroke-linecap:butt;stroke-width:0.5;"/>
     </g>
     <g id="line2d_47">
      <g>
       <use style="stroke:#000000;stroke-linecap:butt;stroke-width:0.5;" x="72.0" xlink:href="#me8a85f7bf6" y="250.56"/>
      </g>
     </g>
     <g id="line2d_48">
      <g>
       <use style="stroke:#000000;stroke-linecap:butt;stroke-width:0.5;" x="518.4" xlink:href="#m1a32005dea" y="250.56"/>
      </g>
     </g>
     <g id="text_15">
      <!-- 0.020 -->
      <g transform="translate(35.234375 254.9278125)scale(0.12 -0.12)">
       <use xlink:href="#BitstreamVeraSans-Roman-30"/>
       <use x="63.623046875" xlink:href="#BitstreamVeraSans-Roman-2e"/>
       <use x="95.41015625" xlink:href="#BitstreamVeraSans-Roman-30"/>
       <use x="159.033203125" xlink:href="#BitstreamVeraSans-Roman-32"/>
       <use x="222.65625" xlink:href="#BitstreamVeraSans-Roman-30"/>
      </g>
     </g>
    </g>
    <g id="ytick_6">
     <g id="line2d_49">
      <path clip-path="url(#p7ff5b81e1d)" d="
M72 216
L518.4 216" style="fill:none;stroke:#000000;stroke-dasharray:1.000000,3.000000;stroke-dashoffset:0.0;stroke-linecap:butt;stroke-width:0.5;"/>
     </g>
     <g id="line2d_50">
      <g>
       <use style="stroke:#000000;stroke-linecap:butt;stroke-width:0.5;" x="72.0" xlink:href="#me8a85f7bf6" y="216.0"/>
      </g>
     </g>
     <g id="line2d_51">
      <g>
       <use style="stroke:#000000;stroke-linecap:butt;stroke-width:0.5;" x="518.4" xlink:href="#m1a32005dea" y="216.0"/>
      </g>
     </g>
     <g id="text_16">
      <!-- 0.025 -->
      <g transform="translate(35.485625 220.3678125)scale(0.12 -0.12)">
       <use xlink:href="#BitstreamVeraSans-Roman-30"/>
       <use x="63.623046875" xlink:href="#BitstreamVeraSans-Roman-2e"/>
       <use x="95.41015625" xlink:href="#BitstreamVeraSans-Roman-30"/>
       <use x="159.033203125" xlink:href="#BitstreamVeraSans-Roman-32"/>
       <use x="222.65625" xlink:href="#BitstreamVeraSans-Roman-35"/>
      </g>
     </g>
    </g>
    <g id="ytick_7">
     <g id="line2d_52">
      <path clip-path="url(#p7ff5b81e1d)" d="
M72 181.44
L518.4 181.44" style="fill:none;stroke:#000000;stroke-dasharray:1.000000,3.000000;stroke-dashoffset:0.0;stroke-linecap:butt;stroke-width:0.5;"/>
     </g>
     <g id="line2d_53">
      <g>
       <use style="stroke:#000000;stroke-linecap:butt;stroke-width:0.5;" x="72.0" xlink:href="#me8a85f7bf6" y="181.44"/>
      </g>
     </g>
     <g id="line2d_54">
      <g>
       <use style="stroke:#000000;stroke-linecap:butt;stroke-width:0.5;" x="518.4" xlink:href="#m1a32005dea" y="181.44"/>
      </g>
     </g>
     <g id="text_17">
      <!-- 0.030 -->
      <g transform="translate(35.234375 185.8078125)scale(0.12 -0.12)">
       <use xlink:href="#BitstreamVeraSans-Roman-30"/>
       <use x="63.623046875" xlink:href="#BitstreamVeraSans-Roman-2e"/>
       <use x="95.41015625" xlink:href="#BitstreamVeraSans-Roman-30"/>
       <use x="159.033203125" xlink:href="#BitstreamVeraSans-Roman-33"/>
       <use x="222.65625" xlink:href="#BitstreamVeraSans-Roman-30"/>
      </g>
     </g>
    </g>
    <g id="ytick_8">
     <g id="line2d_55">
      <path clip-path="url(#p7ff5b81e1d)" d="
M72 146.88
L518.4 146.88" style="fill:none;stroke:#000000;stroke-dasharray:1.000000,3.000000;stroke-dashoffset:0.0;stroke-linecap:butt;stroke-width:0.5;"/>
     </g>
     <g id="line2d_56">
      <g>
       <use style="stroke:#000000;stroke-linecap:butt;stroke-width:0.5;" x="72.0" xlink:href="#me8a85f7bf6" y="146.88"/>
      </g>
     </g>
     <g id="line2d_57">
      <g>
       <use style="stroke:#000000;stroke-linecap:butt;stroke-width:0.5;" x="518.4" xlink:href="#m1a32005dea" y="146.88"/>
      </g>
     </g>
     <g id="text_18">
      <!-- 0.035 -->
      <g transform="translate(35.485625 151.2478125)scale(0.12 -0.12)">
       <use xlink:href="#BitstreamVeraSans-Roman-30"/>
       <use x="63.623046875" xlink:href="#BitstreamVeraSans-Roman-2e"/>
       <use x="95.41015625" xlink:href="#BitstreamVeraSans-Roman-30"/>
       <use x="159.033203125" xlink:href="#BitstreamVeraSans-Roman-33"/>
       <use x="222.65625" xlink:href="#BitstreamVeraSans-Roman-35"/>
      </g>
     </g>
    </g>
    <g id="ytick_9">
     <g id="line2d_58">
      <path clip-path="url(#p7ff5b81e1d)" d="
M72 112.32
L518.4 112.32" style="fill:none;stroke:#000000;stroke-dasharray:1.000000,3.000000;stroke-dashoffset:0.0;stroke-linecap:butt;stroke-width:0.5;"/>
     </g>
     <g id="line2d_59">
      <g>
       <use style="stroke:#000000;stroke-linecap:butt;stroke-width:0.5;" x="72.0" xlink:href="#me8a85f7bf6" y="112.32"/>
      </g>
     </g>
     <g id="line2d_60">
      <g>
       <use style="stroke:#000000;stroke-linecap:butt;stroke-width:0.5;" x="518.4" xlink:href="#m1a32005dea" y="112.32"/>
      </g>
     </g>
     <g id="text_19">
      <!-- 0.040 -->
      <g transform="translate(35.234375 116.6878125)scale(0.12 -0.12)">
       <use xlink:href="#BitstreamVeraSans-Roman-30"/>
       <use x="63.623046875" xlink:href="#BitstreamVeraSans-Roman-2e"/>
       <use x="95.41015625" xlink:href="#BitstreamVeraSans-Roman-30"/>
       <use x="159.033203125" xlink:href="#BitstreamVeraSans-Roman-34"/>
       <use x="222.65625" xlink:href="#BitstreamVeraSans-Roman-30"/>
      </g>
     </g>
    </g>
    <g id="ytick_10">
     <g id="line2d_61">
      <path clip-path="url(#p7ff5b81e1d)" d="
M72 77.76
L518.4 77.76" style="fill:none;stroke:#000000;stroke-dasharray:1.000000,3.000000;stroke-dashoffset:0.0;stroke-linecap:butt;stroke-width:0.5;"/>
     </g>
     <g id="line2d_62">
      <g>
       <use style="stroke:#000000;stroke-linecap:butt;stroke-width:0.5;" x="72.0" xlink:href="#me8a85f7bf6" y="77.76"/>
      </g>
     </g>
     <g id="line2d_63">
      <g>
       <use style="stroke:#000000;stroke-linecap:butt;stroke-width:0.5;" x="518.4" xlink:href="#m1a32005dea" y="77.76"/>
      </g>
     </g>
     <g id="text_20">
      <!-- 0.045 -->
      <g transform="translate(35.485625 82.1278125)scale(0.12 -0.12)">
       <use xlink:href="#BitstreamVeraSans-Roman-30"/>
       <use x="63.623046875" xlink:href="#BitstreamVeraSans-Roman-2e"/>
       <use x="95.41015625" xlink:href="#BitstreamVeraSans-Roman-30"/>
       <use x="159.033203125" xlink:href="#BitstreamVeraSans-Roman-34"/>
       <use x="222.65625" xlink:href="#BitstreamVeraSans-Roman-35"/>
      </g>
     </g>
    </g>
    <g id="text_21">
     <!-- Sec/file -->
     <defs>
      <path d="
M9.42188 75.9844
L18.4062 75.9844
L18.4062 0
L9.42188 0
z
" id="BitstreamVeraSans-Roman-6c"/>
      <path d="
M53.5156 70.5156
L53.5156 60.8906
Q47.9062 63.5781 42.9219 64.8906
Q37.9375 66.2188 33.2969 66.2188
Q25.25 66.2188 20.875 63.0938
Q16.5 59.9688 16.5 54.2031
Q16.5 49.3594 19.4062 46.8906
Q22.3125 44.4375 30.4219 42.9219
L36.375 41.7031
Q47.4062 39.5938 52.6562 34.2969
Q57.9062 29 57.9062 20.125
Q57.9062 9.51562 50.7969 4.04688
Q43.7031 -1.42188 29.9844 -1.42188
Q24.8125 -1.42188 18.9688 -0.25
Q13.1406 0.921875 6.89062 3.21875
L6.89062 13.375
Q12.8906 10.0156 18.6562 8.29688
Q24.4219 6.59375 29.9844 6.59375
Q38.4219 6.59375 43.0156 9.90625
Q47.6094 13.2344 47.6094 19.3906
Q47.6094 24.75 44.3125 27.7812
Q41.0156 30.8125 33.5 32.3281
L27.4844 33.5
Q16.4531 35.6875 11.5156 40.375
Q6.59375 45.0625 6.59375 53.4219
Q6.59375 63.0938 13.4062 68.6562
Q20.2188 74.2188 32.1719 74.2188
Q37.3125 74.2188 42.625 73.2812
Q47.9531 72.3594 53.5156 70.5156" id="BitstreamVeraSans-Roman-53"/>
      <path d="
M9.42188 54.6875
L18.4062 54.6875
L18.4062 0
L9.42188 0
z

M9.42188 75.9844
L18.4062 75.9844
L18.4062 64.5938
L9.42188 64.5938
z
" id="BitstreamVeraSans-Roman-69"/>
      <path d="
M25.3906 72.9062
L33.6875 72.9062
L8.29688 -9.28125
L0 -9.28125
z
" id="BitstreamVeraSans-Roman-2f"/>
      <path d="
M56.2031 29.5938
L56.2031 25.2031
L14.8906 25.2031
Q15.4844 15.9219 20.4844 11.0625
Q25.4844 6.20312 34.4219 6.20312
Q39.5938 6.20312 44.4531 7.46875
Q49.3125 8.73438 54.1094 11.2812
L54.1094 2.78125
Q49.2656 0.734375 44.1875 -0.34375
Q39.1094 -1.42188 33.8906 -1.42188
Q20.7969 -1.42188 13.1562 6.1875
Q5.51562 13.8125 5.51562 26.8125
Q5.51562 40.2344 12.7656 48.1094
Q20.0156 56 32.3281 56
Q43.3594 56 49.7812 48.8906
Q56.2031 41.7969 56.2031 29.5938
M47.2188 32.2344
Q47.125 39.5938 43.0938 43.9844
Q39.0625 48.3906 32.4219 48.3906
Q24.9062 48.3906 20.3906 44.1406
Q15.875 39.8906 15.1875 32.1719
z
" id="BitstreamVeraSans-Roman-65"/>
      <path d="
M37.1094 75.9844
L37.1094 68.5
L28.5156 68.5
Q23.6875 68.5 21.7969 66.5469
Q19.9219 64.5938 19.9219 59.5156
L19.9219 54.6875
L34.7188 54.6875
L34.7188 47.7031
L19.9219 47.7031
L19.9219 0
L10.8906 0
L10.8906 47.7031
L2.29688 47.7031
L2.29688 54.6875
L10.8906 54.6875
L10.8906 58.5
Q10.8906 67.625 15.1406 71.7969
Q19.3906 75.9844 28.6094 75.9844
z
" id="BitstreamVeraSans-Roman-66"/>
      <path d="
M48.7812 52.5938
L48.7812 44.1875
Q44.9688 46.2969 41.1406 47.3438
Q37.3125 48.3906 33.4062 48.3906
Q24.6562 48.3906 19.8125 42.8438
Q14.9844 37.3125 14.9844 27.2969
Q14.9844 17.2812 19.8125 11.7344
Q24.6562 6.20312 33.4062 6.20312
Q37.3125 6.20312 41.1406 7.25
Q44.9688 8.29688 48.7812 10.4062
L48.7812 2.09375
Q45.0156 0.34375 40.9844 -0.53125
Q36.9688 -1.42188 32.4219 -1.42188
Q20.0625 -1.42188 12.7812 6.34375
Q5.51562 14.1094 5.51562 27.2969
Q5.51562 40.6719 12.8594 48.3281
Q20.2188 56 33.0156 56
Q37.1562 56 41.1094 55.1406
Q45.0625 54.2969 48.7812 52.5938" id="BitstreamVeraSans-Roman-63"/>
     </defs>
     <g transform="translate(30.234375 236.13)rotate(-90.0)scale(0.12 -0.12)">
      <use xlink:href="#BitstreamVeraSans-Roman-53"/>
      <use x="63.4765625" xlink:href="#BitstreamVeraSans-Roman-65"/>
      <use x="125.0" xlink:href="#BitstreamVeraSans-Roman-63"/>
      <use x="179.98046875" xlink:href="#BitstreamVeraSans-Roman-2f"/>
      <use x="213.671875" xlink:href="#BitstreamVeraSans-Roman-66"/>
      <use x="248.876953125" xlink:href="#BitstreamVeraSans-Roman-69"/>
      <use x="276.66015625" xlink:href="#BitstreamVeraSans-Roman-6c"/>
      <use x="304.443359375" xlink:href="#BitstreamVeraSans-Roman-65"/>
     </g>
    </g>
   </g>
   <g id="patch_3">
    <path d="
M72 43.2
L518.4 43.2" style="fill:none;stroke:#000000;"/>
   </g>
   <g id="patch_4">
    <path d="
M518.4 388.8
L518.4 43.2" style="fill:none;stroke:#000000;"/>
   </g>
   <g id="patch_5">
    <path d="
M72 388.8
L518.4 388.8" style="fill:none;stroke:#000000;"/>
   </g>
   <g id="patch_6">
    <path d="
M72 388.8
L72 43.2" style="fill:none;stroke:#000000;"/>
   </g>
   <g id="text_22">
    <!-- Seq -->
    <defs>
     <path d="
M14.7969 27.2969
Q14.7969 17.3906 18.875 11.75
Q22.9531 6.10938 30.0781 6.10938
Q37.2031 6.10938 41.2969 11.75
Q45.4062 17.3906 45.4062 27.2969
Q45.4062 37.2031 41.2969 42.8438
Q37.2031 48.4844 30.0781 48.4844
Q22.9531 48.4844 18.875 42.8438
Q14.7969 37.2031 14.7969 27.2969
M45.4062 8.20312
Q42.5781 3.32812 38.25 0.953125
Q33.9375 -1.42188 27.875 -1.42188
Q17.9688 -1.42188 11.7344 6.48438
Q5.51562 14.4062 5.51562 27.2969
Q5.51562 40.1875 11.7344 48.0938
Q17.9688 56 27.875 56
Q33.9375 56 38.25 53.625
Q42.5781 51.2656 45.4062 46.3906
L45.4062 54.6875
L54.3906 54.6875
L54.3906 -20.7969
L45.4062 -20.7969
z
" id="BitstreamVeraSans-Roman-71"/>
    </defs>
    <g transform="translate(282.7575 38.2)scale(0.144 -0.144)">
     <use xlink:href="#BitstreamVeraSans-Roman-53"/>
     <use x="63.4765625" xlink:href="#BitstreamVeraSans-Roman-65"/>
     <use x="125.0" xlink:href="#BitstreamVeraSans-Roman-71"/>
    </g>
   </g>
   <g id="legend_1">
    <g id="patch_7">
     <path d="
M429.055 115.339
L511.2 115.339
L511.2 50.4
L429.055 50.4
L429.055 115.339
z
" style="fill:#ffffff;stroke:#000000;"/>
    </g>
    <g id="line2d_64">
     <path d="
M439.135 62.0617
L459.295 62.0617" style="fill:none;stroke:#ff0000;"/>
    </g>
    <g id="line2d_65"/>
    <g id="text_23">
     <!-- LRU -->
     <defs>
      <path d="
M44.3906 34.1875
Q47.5625 33.1094 50.5625 29.5938
Q53.5625 26.0781 56.5938 19.9219
L66.6094 0
L56 0
L46.6875 18.7031
Q43.0625 26.0312 39.6719 28.4219
Q36.2812 30.8125 30.4219 30.8125
L19.6719 30.8125
L19.6719 0
L9.8125 0
L9.8125 72.9062
L32.0781 72.9062
Q44.5781 72.9062 50.7344 67.6719
Q56.8906 62.4531 56.8906 51.9062
Q56.8906 45.0156 53.6875 40.4688
Q50.4844 35.9375 44.3906 34.1875
M19.6719 64.7969
L19.6719 38.9219
L32.0781 38.9219
Q39.2031 38.9219 42.8438 42.2188
Q46.4844 45.5156 46.4844 51.9062
Q46.4844 58.2969 42.8438 61.5469
Q39.2031 64.7969 32.0781 64.7969
z
" id="BitstreamVeraSans-Roman-52"/>
      <path d="
M9.8125 72.9062
L19.6719 72.9062
L19.6719 8.29688
L55.1719 8.29688
L55.1719 0
L9.8125 0
z
" id="BitstreamVeraSans-Roman-4c"/>
      <path d="
M8.6875 72.9062
L18.6094 72.9062
L18.6094 28.6094
Q18.6094 16.8906 22.8438 11.7344
Q27.0938 6.59375 36.625 6.59375
Q46.0938 6.59375 50.3438 11.7344
Q54.5938 16.8906 54.5938 28.6094
L54.5938 72.9062
L64.5 72.9062
L64.5 27.3906
Q64.5 13.1406 57.4375 5.85938
Q50.3906 -1.42188 36.625 -1.42188
Q22.7969 -1.42188 15.7344 5.85938
Q8.6875 13.1406 8.6875 27.3906
z
" id="BitstreamVeraSans-Roman-55"/>
     </defs>
     <g transform="translate(475.13475 67.10175)scale(0.144 -0.144)">
      <use xlink:href="#BitstreamVeraSans-Roman-4c"/>
      <use x="55.712890625" xlink:href="#BitstreamVeraSans-Roman-52"/>
      <use x="125.1953125" xlink:href="#BitstreamVeraSans-Roman-55"/>
     </g>
    </g>
    <g id="line2d_66">
     <path d="
M439.135 83.1983
L459.295 83.1983" style="fill:none;opacity:0.7;stroke:#008000;"/>
    </g>
    <g id="line2d_67"/>
    <g id="text_24">
     <!-- MRU -->
     <defs>
      <path d="
M9.8125 72.9062
L24.5156 72.9062
L43.1094 23.2969
L61.8125 72.9062
L76.5156 72.9062
L76.5156 0
L66.8906 0
L66.8906 64.0156
L48.0938 14.0156
L38.1875 14.0156
L19.3906 64.0156
L19.3906 0
L9.8125 0
z
" id="BitstreamVeraSans-Roman-4d"/>
     </defs>
     <g transform="translate(475.13475 88.23825)scale(0.144 -0.144)">
      <use xlink:href="#BitstreamVeraSans-Roman-4d"/>
      <use x="86.279296875" xlink:href="#BitstreamVeraSans-Roman-52"/>
      <use x="155.76171875" xlink:href="#BitstreamVeraSans-Roman-55"/>
     </g>
    </g>
    <g id="line2d_68">
     <path d="
M439.135 104.335
L459.295 104.335" style="fill:none;opacity:0.5;stroke:#0000ff;"/>
    </g>
    <g id="line2d_69"/>
    <g id="text_25">
     <!-- FIFO -->
     <defs>
      <path d="
M9.8125 72.9062
L51.7031 72.9062
L51.7031 64.5938
L19.6719 64.5938
L19.6719 43.1094
L48.5781 43.1094
L48.5781 34.8125
L19.6719 34.8125
L19.6719 0
L9.8125 0
z
" id="BitstreamVeraSans-Roman-46"/>
      <path d="
M9.8125 72.9062
L19.6719 72.9062
L19.6719 0
L9.8125 0
z
" id="BitstreamVeraSans-Roman-49"/>
      <path d="
M39.4062 66.2188
Q28.6562 66.2188 22.3281 58.2031
Q16.0156 50.2031 16.0156 36.375
Q16.0156 22.6094 22.3281 14.5938
Q28.6562 6.59375 39.4062 6.59375
Q50.1406 6.59375 56.4219 14.5938
Q62.7031 22.6094 62.7031 36.375
Q62.7031 50.2031 56.4219 58.2031
Q50.1406 66.2188 39.4062 66.2188
M39.4062 74.2188
Q54.7344 74.2188 63.9062 63.9375
Q73.0938 53.6562 73.0938 36.375
Q73.0938 19.1406 63.9062 8.85938
Q54.7344 -1.42188 39.4062 -1.42188
Q24.0312 -1.42188 14.8125 8.82812
Q5.60938 19.0938 5.60938 36.375
Q5.60938 53.6562 14.8125 63.9375
Q24.0312 74.2188 39.4062 74.2188" id="BitstreamVeraSans-Roman-4f"/>
     </defs>
     <g transform="translate(475.13475 109.37475)scale(0.144 -0.144)">
      <use xlink:href="#BitstreamVeraSans-Roman-46"/>
      <use x="57.51953125" xlink:href="#BitstreamVeraSans-Roman-49"/>
      <use x="87.01171875" xlink:href="#BitstreamVeraSans-Roman-46"/>
      <use x="144.53125" xlink:href="#BitstreamVeraSans-Roman-4f"/>
     </g>
    </g>
   </g>
  </g>
 </g>
 <defs>
  <clipPath id="p7ff5b81e1d">
   <rect height="345.6" width="446.4" x="72.0" y="43.2"/>
  </clipPath>
 </defs>
</svg>
