<?xml version="1.0" encoding="utf-8" standalone="no"?>
<!DOCTYPE svg PUBLIC "-//W3C//DTD SVG 1.1//EN"
  "http://www.w3.org/Graphics/SVG/1.1/DTD/svg11.dtd">
<!-- Created with matplotlib (http://matplotlib.sourceforge.net/) -->
<svg height="432pt" version="1.1" viewBox="0 0 576 432" width="576pt" xmlns="http://www.w3.org/2000/svg" xmlns:xlink="http://www.w3.org/1999/xlink">
 <defs>
  <style type="text/css">
*{stroke-linecap:square;stroke-linejoin:round;}
  </style>
 </defs>
 <g id="figure_1">
  <g id="patch_1">
   <path d="
M0 432
L576 432
L576 0
L0 0
z
" style="fill:#ffffff;"/>
  </g>
  <g id="axes_1">
   <g id="patch_2">
    <path d="
M72 388.8
L518.4 388.8
L518.4 43.2
L72 43.2
z
" style="fill:#ffffff;"/>
   </g>
   <g id="line2d_1">
    <path clip-path="url(#p7ff5b81e1d)" d="
M72 281.668
L72.4464 237.018
L72.8928 278.02
L73.3392 278.922
L73.7856 278.267
L74.232 273.486
L74.6784 283.462
L75.1248 278.448
L75.5712 277.576
L76.0176 278.78
L76.9104 277.014
L77.3568 278.984
L77.8032 242.109
L78.2496 284.954
L78.696 282.505
L79.1424 284.314
L79.5888 283.117
L80.0352 283.723
L80.4816 277.044
L80.928 273.2
L81.3744 279.474
L82.2672 275.793
L82.7136 278.54
L83.16 279.023
L83.6064 277.65
L84.0528 270.103
L84.4992 278.745
L84.9456 277.529
L85.392 278.892
L85.8384 276.356
L86.2848 278.766
L86.7312 272.58
L87.1776 278.42
L87.624 278.249
L88.0704 276.577
L88.5168 280.676
L88.9632 280.537
L89.4096 279.293
L89.856 272.303
L90.3024 278.736
L90.7488 278.327
L91.1952 280.339
L91.6416 283.341
L92.088 272.919
L92.5344 280.464
L92.9808 279.361
L93.4272 273.339
L93.8736 265.069
L94.32 323.826
L94.7664 322.827
L95.2128 323.79
L95.6592 323.254
L96.1056 324.382
L96.552 322.365
L97.4448 324.002
L97.8912 323.631
L98.3376 320.862
L98.784 323.979
L99.2304 323.956
L99.6768 320.939
L100.123 323.834
L100.57 323.608
L101.016 314.454
L101.462 323.499
L101.909 323.177
L102.355 323.312
L102.802 308.863
L103.248 323.207
L103.694 324.5
L104.141 322.71
L104.587 322.508
L105.034 323.568
L105.48 319.298
L105.926 324.917
L106.373 322.453
L106.819 322.911
L107.266 323.137
L107.712 323.779
L108.158 322.938
L108.605 323.792
L109.051 322.685
L109.498 318.866
L109.944 324.388
L110.39 322.631
L110.837 323.716
L111.283 323.375
L111.73 324.041
L112.176 317.876
L112.622 323.322
L113.069 323.246
L113.962 324.004
L114.408 311.82
L114.854 323.014
L115.301 324.12
L115.747 322.667
L116.64 323.49
L117.086 320.278
L117.533 324.144
L117.979 324.474
L118.426 322.943
L118.872 322.641
L119.318 324.191
L119.765 317.575
L120.211 324.455
L120.658 324.143
L121.104 317.461
L121.55 323.515
L121.997 324.399
L122.443 324.554
L122.89 324.42
L123.336 292.076
L124.229 323.573
L125.122 322.836
L125.568 323.098
L126.014 324.347
L126.461 324.2
L126.907 321.526
L127.354 323.619
L127.8 319.793
L128.246 307.046
L128.693 322.699
L129.139 324.182
L129.586 323.804
L130.032 312.543
L130.478 324.191
L130.925 324.057
L131.371 305.405
L131.818 324.633
L132.264 316.513
L132.71 324.015
L133.157 307.927
L133.603 323.297
L134.05 324.043
L134.496 324.491
L134.942 323.951
L135.389 323.185
L135.835 324.476
L136.282 322.262
L136.728 323.284
L137.174 323.592
L137.621 322.679
L138.067 324.102
L138.514 324.358
L138.96 290.717
L139.406 313.758
L139.853 316.18
L140.299 316.394
L140.746 316.094
L141.638 311.283
L142.085 316.184
L142.531 310.503
L142.978 315.854
L143.424 308.775
L143.87 280.658
L144.317 315.955
L144.763 301.25
L145.21 316.214
L145.656 306.597
L146.102 315.044
L146.549 312.013
L146.995 315.116
L147.442 313.752
L147.888 315.711
L148.334 316.258
L148.781 324.678
L149.227 322.467
L149.674 315.338
L150.12 324.209
L150.566 323.945
L151.013 322.742
L151.459 323.775
L151.906 322.657
L152.352 320.972
L152.798 323.147
L153.245 323.844
L153.691 322.699
L154.584 324.269
L155.03 319.065
L155.477 323.766
L155.923 322.723
L156.37 322.642
L156.816 323.107
L157.262 324.028
L157.709 322.491
L158.155 324.473
L158.602 324.292
L159.048 321.985
L159.494 323.517
L159.941 323.801
L160.387 322.809
L160.834 323.504
L161.28 319.846
L161.726 323.346
L162.173 324.679
L162.619 324.498
L163.066 323.744
L163.512 322.304
L163.958 320.053
L164.405 306.684
L164.851 324.328
L165.298 325.065
L165.744 324.637
L166.19 314.965
L166.637 324.09
L167.083 324.085
L167.53 301.605
L167.976 322.717
L168.422 316.62
L168.869 324.471
L169.315 323.971
L169.762 316.824
L170.208 323.869
L170.654 318.087
L171.101 315.807
L171.547 298.739
L171.994 315.192
L172.44 305.138
L172.886 316.775
L173.333 306.162
L173.779 315.512
L174.226 310.093
L174.672 315.758
L175.118 302.853
L175.565 316.096
L176.011 307.884
L176.458 316.068
L176.904 309.791
L177.35 315.404
L177.797 314.102
L178.243 314.791
L178.69 304.615
L179.136 280.758
L179.582 316.359
L180.029 291.408
L180.475 315.95
L180.922 315.821
L181.368 313.942
L181.814 315.93
L182.261 316.847
L182.707 314.293
L183.154 306.996
L183.6 323.299
L184.046 304.33
L184.493 324.865
L184.939 324.189
L185.386 323.142
L185.832 322.778
L186.278 323.232
L186.725 324.07
L187.171 323.783
L187.618 290.4
L188.064 324.909
L188.957 323.967
L189.403 324.321
L189.85 323.844
L190.296 320.784
L190.742 323.766
L191.189 323.528
L192.082 323.58
L192.528 324.049
L192.974 323.179
L193.421 306.812
L193.867 322.515
L194.76 324.48
L195.206 302.493
L195.653 323.516
L196.099 310.645
L196.546 323.024
L196.992 323.329
L197.438 321.953
L197.885 126.121
L198.331 169.189
L198.778 323.84
L199.224 323.984
L199.67 322.81
L200.117 323.606
L200.563 322.585
L201.01 323.318
L202.349 324.11
L202.795 324.169
L203.242 310.695
L203.688 322.898
L204.134 313.511
L204.581 324.558
L205.027 317.789
L205.474 324.002
L205.92 323.919
L206.366 320.602
L206.813 324.644
L207.259 324.093
L207.706 323.954
L208.152 322.999
L208.598 323.813
L209.045 323.791
L209.491 316.54
L209.938 324.101
L210.384 324.097
L210.83 317.014
L211.277 324.421
L211.723 325.141
L212.17 319.952
L213.062 322.968
L213.509 321.783
L213.955 272.887
L214.402 323.05
L215.294 323.773
L215.741 324.969
L216.187 322.387
L216.634 323.907
L217.08 324.055
L217.526 324.844
L217.973 323.584
L218.419 324.312
L219.312 324.336
L219.758 318.503
L220.205 324.292
L220.651 324.211
L221.098 307.752
L221.544 325.904
L221.99 309.559
L222.437 323.169
L222.883 323.481
L223.33 322.921
L223.776 324.003
L224.222 324.564
L224.669 322.391
L225.115 324.35
L225.562 307.309
L226.008 322.467
L226.454 323.344
L226.901 317.085
L227.347 322.864
L227.794 324.058
L228.24 312.166
L228.686 314.578
L229.133 310.608
L229.579 316.069
L230.026 316.991
L230.472 315.044
L230.918 315.405
L231.365 316.416
L231.811 314.296
L232.258 300.164
L232.704 299.27
L233.15 316.482
L233.597 299.851
L234.49 315.744
L234.936 306.725
L235.382 314.928
L235.829 312.257
L236.275 314.164
L236.722 296.266
L237.168 315.036
L237.614 312.822
L238.061 323.413
L238.507 307.61
L238.954 323.689
L239.4 324.007
L239.846 290.65
L240.293 322.951
L241.186 324.136
L241.632 309.644
L242.078 324.521
L242.525 322.766
L243.418 323.024
L243.864 323.364
L244.31 323.197
L244.757 323.585
L245.203 320.431
L245.65 323.722
L246.096 323.62
L246.542 320.84
L246.989 323.027
L247.435 324.03
L247.882 324.266
L248.328 323.638
L248.774 324.01
L249.221 322.591
L249.667 323.353
L250.114 324.336
L250.56 324.373
L251.006 323.312
L251.453 324.528
L251.899 318.377
L252.346 324.199
L252.792 323.399
L253.238 323.982
L253.685 325.436
L254.131 324.394
L254.578 325.054
L255.024 324.583
L255.47 310.567
L255.917 324.255
L256.363 324.364
L256.81 319.22
L257.256 321.307
L257.702 322.819
L258.149 322.639
L258.595 323.053
L259.042 312.691
L259.488 323.782
L259.934 324.661
L260.381 315.793
L260.827 313.315
L261.274 309.284
L261.72 316.423
L262.166 299.008
L262.613 314.014
L263.059 298.783
L263.506 304.487
L263.952 307.835
L264.398 315.003
L264.845 297.494
L265.291 314.264
L265.738 315.34
L266.184 315.738
L266.63 296.851
L267.077 315.452
L267.523 315.715
L267.97 315.628
L268.416 315.996
L268.862 315.851
L269.309 314.309
L269.755 315.98
L270.202 310.354
L270.648 315.423
L271.094 292.654
L271.541 316.735
L271.987 281.164
L272.434 316.456
L272.88 324.212
L273.326 310.506
L273.773 324.062
L274.219 323.966
L274.666 324.301
L275.112 323.648
L275.558 324.371
L276.005 321.889
L276.451 324.261
L276.898 324.496
L278.237 324.512
L278.683 318.831
L279.13 324.612
L279.576 323.335
L280.022 324.233
L280.469 323.804
L280.915 323.859
L281.362 323.471
L281.808 324.03
L282.254 324.983
L282.701 323.559
L283.147 307.124
L283.594 317.436
L284.04 323.955
L284.486 324.392
L284.933 283.734
L285.379 299.575
L285.826 321.815
L286.272 319.147
L286.718 322.424
L287.165 324.109
L287.611 322.935
L288.058 323.649
L288.504 323.786
L288.95 321.226
L289.397 324.709
L289.843 309.669
L290.29 324.025
L290.736 323.415
L291.182 323.475
L291.629 323.061
L292.075 324.227
L292.522 323.583
L292.968 322.729
L293.414 303.708
L293.861 324.837
L294.307 322.995
L295.2 324.277
L295.646 323.462
L296.093 324.447
L296.539 324.379
L296.986 307.431
L297.432 322.587
L297.878 323.197
L298.325 324.01
L299.218 324.921
L299.664 321.787
L300.11 324.347
L300.557 324.876
L301.003 324.587
L301.45 324.966
L302.342 321.332
L302.789 324.299
L303.235 323.901
L303.682 323.947
L304.128 324.199
L304.574 325.638
L305.021 321.86
L305.467 324.534
L305.914 323.896
L306.36 324.265
L306.806 324.307
L307.699 323.343
L308.146 323.93
L308.592 323.816
L309.038 323.838
L309.485 323.449
L309.931 323.909
L310.378 323.992
L310.824 324.777
L311.27 323.779
L311.717 322.375
L312.163 323.36
L312.61 323.907
L313.056 323.539
L313.502 323.893
L313.949 323.415
L314.395 324.022
L314.842 324.149
L315.288 323.834
L315.734 323.874
L316.181 324.218
L316.627 310.366
L317.074 324.368
L317.52 315.243
L317.966 315.099
L318.413 316.04
L318.859 297.435
L319.306 316.117
L319.752 313.516
L320.198 315.8
L320.645 315.591
L321.091 316.016
L321.538 311.794
L321.984 316.262
L322.43 308.827
L322.877 298.79
L323.323 299.891
L323.77 316.802
L324.216 312.51
L324.662 297.436
L325.109 315.707
L325.555 306.603
L326.002 315.364
L326.448 309.095
L326.894 316.019
L327.341 313.663
L327.787 322.998
L328.234 323.896
L328.68 324.533
L329.126 324.881
L329.573 324.25
L330.019 317.022
L330.466 323.432
L330.912 323.451
L331.358 324.142
L331.805 323.666
L332.251 323.661
L332.698 318.798
L333.144 324.773
L333.59 323.962
L334.037 323.557
L334.483 323.541
L334.93 324.303
L335.376 317.83
L335.822 323.616
L336.715 323.663
L337.162 323.833
L337.608 322.969
L338.501 324.961
L338.947 323.31
L339.394 323.38
L339.84 323.914
L340.286 310.561
L340.733 324.493
L341.179 324.542
L341.626 318.631
L342.072 323.053
L342.518 324.134
L343.411 325.125
L343.858 309.505
L344.304 323.682
L344.75 324.526
L345.197 319.745
L345.643 323.733
L346.09 323.507
L346.536 321.621
L346.982 323.324
L347.429 306.788
L347.875 317.427
L348.322 323.339
L348.768 307.303
L349.214 324.365
L349.661 316.249
L350.107 314.76
L350.554 315.135
L351 310.862
L351.446 299.826
L351.893 314.898
L352.339 305.409
L352.786 315.933
L353.232 310.033
L353.678 315.41
L354.125 167.611
L354.571 315.251
L355.018 310.644
L355.464 316.94
L355.91 308.791
L356.357 282.12
L356.803 200.186
L357.25 316.388
L357.696 311.103
L358.142 315.883
L358.589 308.397
L359.035 315.989
L359.482 304.51
L359.928 315.588
L360.374 310.229
L360.821 316.596
L361.267 308.58
L361.714 315.834
L362.16 313.176
L362.606 323.08
L363.053 324.149
L363.499 324.569
L363.946 324.436
L364.392 322.713
L364.838 321.505
L365.285 324.956
L365.731 324.366
L366.178 324.382
L366.624 324.233
L367.07 324.257
L367.517 325.36
L367.963 308.137
L368.41 313.581
L368.856 323.099
L369.302 323.875
L369.749 323.757
L370.195 323.899
L370.642 323.689
L371.088 321.764
L371.534 324.657
L372.427 323.498
L372.874 323.604
L373.32 324.775
L373.766 322.01
L374.213 324.077
L375.106 323.704
L375.552 324.545
L375.998 323.417
L376.445 320.746
L376.891 323.441
L377.784 323.952
L378.23 323.321
L378.677 323.275
L379.123 305.792
L379.57 323.322
L380.016 321.248
L380.462 323.328
L380.909 322.515
L381.355 323.419
L381.802 324.591
L382.248 323.134
L382.694 323.298
L383.141 324.341
L383.587 322.581
L384.034 323.533
L384.48 323.656
L384.926 307.516
L385.373 324.148
L385.819 324.291
L386.266 323.604
L386.712 321.934
L387.158 323.946
L387.605 324.051
L388.051 324.412
L388.498 324.312
L388.944 323.052
L389.39 324.475
L389.837 323.783
L390.283 323.685
L390.73 307.993
L391.176 321.748
L391.622 323.627
L392.515 323.49
L392.962 323.579
L393.408 323.26
L393.854 323.738
L394.301 324.029
L394.747 323.15
L396.086 324.212
L396.533 322.222
L396.979 324.268
L397.426 323.971
L397.872 323.967
L398.318 323.193
L398.765 307.177
L399.211 323.22
L399.658 323.604
L400.104 320.848
L400.55 321.691
L400.997 323.725
L401.443 322.594
L401.89 323.305
L402.336 316.998
L402.782 323.31
L403.229 322.977
L403.675 322.293
L404.122 306.582
L404.568 304.848
L405.014 323.797
L405.461 316.153
L405.907 322.415
L406.354 325.185
L406.8 297.289
L407.246 283.758
L408.139 316.071
L408.586 308.218
L409.032 314.963
L409.478 304.868
L409.925 316.621
L410.371 308.133
L410.818 315.997
L411.264 311.156
L411.71 316.724
L412.157 316.203
L412.603 316
L413.05 314.984
L413.496 295.946
L413.942 315.273
L414.389 314.761
L414.835 314.494
L415.282 298.572
L415.728 315.71
L416.174 307.655
L416.621 324.442
L417.067 308.339
L417.514 323.884
L417.96 324.531
L418.406 322.057
L418.853 323.594
L419.299 323.941
L419.746 323.727
L420.192 276.519
L420.638 323.766
L421.085 323.311
L421.978 323.834
L422.424 324.5
L422.87 321.38
L423.317 323.884
L424.21 323.574
L424.656 324.073
L425.102 324.247
L425.549 322.692
L426.442 324.638
L426.888 322.736
L427.334 288.88
L427.781 324.217
L428.227 305.693
L428.674 323.476
L429.12 323.002
L429.566 314.092
L430.013 323.978
L430.459 323.02
L430.906 307.467
L431.352 322.358
L431.798 306.48
L432.245 307.673
L432.691 324.649
L433.138 325.09
L433.584 323.87
L434.03 323.907
L434.477 324.398
L434.923 323.99
L435.37 324.052
L435.816 322.35
L436.262 322.923
L436.709 305.98
L437.155 308.189
L437.602 323.004
L438.048 316.263
L438.494 323.703
L438.941 315.006
L439.387 313.863
L439.834 314.1
L440.28 315.447
L440.726 315.806
L441.173 296.955
L441.619 315.73
L442.066 314.966
L442.512 315.366
L442.958 315.2
L443.405 315.611
L443.851 314.507
L444.298 314.657
L444.744 298.481
L445.19 314.401
L445.637 315.322
L446.083 314.24
L446.53 315.348
L446.976 307.278
L447.422 314.674
L447.869 313.121
L448.315 315.643
L448.762 307.409
L449.208 314.577
L449.654 312.432
L450.101 314.944
L450.547 313.717
L450.994 316.041
L451.44 323.123
L451.886 323.078
L452.333 319.78
L452.779 324.496
L453.226 324.432
L453.672 321.296
L454.118 323.846
L454.565 324.079
L455.011 322.662
L455.458 324.189
L455.904 309.526
L456.35 323.938
L456.797 324.021
L457.243 322.192
L457.69 324.061
L458.136 321.52
L458.582 322.059
L459.029 324.19
L459.475 309.722
L459.922 322.259
L460.368 323.989
L460.814 323.437
L461.261 323.802
L461.707 305.277
L462.154 322.044
L462.6 323.792
L463.046 311.612
L463.493 323.101
L463.939 323.394
L464.386 305.757
L464.832 323.516
L465.278 322.637
L465.725 323.523
L466.171 322.801
L466.618 322.72
L467.064 323.16
L467.51 322.029
L467.957 315.704
L468.403 322.574
L468.85 323.2
L469.296 306.019
L469.742 323.362
L470.189 323.189
L471.082 324.295
L471.528 317.303
L471.974 323.342
L472.421 324.672
L472.867 322.302
L473.314 322.962
L473.76 306.004
L474.206 323.214
L474.653 323.791
L475.099 323.984
L475.546 321.696
L475.992 322.204
L476.438 317.324
L476.885 323.685
L477.331 290.605
L477.778 323.811
L478.224 318.908
L478.67 323.387
L479.563 324.115
L480.01 324.323
L480.456 321.267
L480.902 323.166
L481.349 323.113
L481.795 314.192
L482.688 322.571
L483.134 323.838
L483.581 324.279
L484.027 323.075
L484.474 310.836
L484.92 324.191
L485.366 324.064
L485.813 320.654
L486.259 323.598
L486.706 323.501
L487.152 322.962
L487.598 323.356
L488.045 309.438
L488.491 323.657
L489.384 323.155
L489.83 323.212
L490.277 323.614
L490.723 323.333
L491.17 323.546
L492.062 291.938
L492.509 321.542
L492.955 306.837
L493.402 323.263
L493.848 322.568
L494.294 323.686
L494.741 323.875
L495.187 322.539
L495.634 307.452
L496.08 314.25
L496.526 313.667
L496.973 315.44
L497.866 281.757
L498.312 313.884
L498.758 315.747
L499.205 315.92
L499.651 315.671
L500.99 315.487
L501.437 315.775
L501.883 316.504
L502.33 298.621
L502.776 313.327
L503.222 315.03
L503.669 315.338
L504.115 313.479
L504.562 313.687
L505.008 314.968
L505.454 298.97
L505.901 324.093
L506.347 321.606
L506.794 322.607
L507.24 324.555
L507.686 324.384
L508.133 322.924
L508.579 324.068
L509.026 307.143
L509.472 324.186
L509.918 323.614
L510.365 323.477
L510.811 306.506
L511.258 322.34
L511.704 323.03
L512.15 322.081
L512.597 322.989
L513.043 322.485
L513.49 308.786
L513.936 323.549
L514.382 323.009
L514.829 322.972
L515.722 324.013
L516.168 321.901
L516.614 323.341
L517.061 308.612
L517.507 322.458
L517.954 323.6
L517.954 323.6" style="fill:none;stroke:#ff0000;"/>
   </g>
   <g id="line2d_2">
    <path clip-path="url(#p7ff5b81e1d)" d="
M72 280.964
L72.4464 281.227
L72.8928 281.645
L73.3392 279.974
L73.7856 276.276
L74.232 274.451
L74.6784 271.495
L75.1248 274.42
L75.5712 274.897
L76.0176 258.577
L76.464 282.486
L76.9104 277.993
L77.3568 275.924
L77.8032 274.386
L78.2496 275.863
L78.696 274.918
L79.1424 282.328
L80.0352 274.395
L80.928 275.759
L81.3744 274.789
L81.8208 268.698
L82.2672 274.882
L82.7136 266.388
L83.16 281.989
L83.6064 277.257
L84.0528 268.981
L84.4992 274.727
L84.9456 275.203
L85.392 274.578
L85.8384 275.356
L86.2848 268.763
L86.7312 275.338
L87.1776 274.028
L87.624 266.274
L88.0704 282.971
L88.5168 270.405
L88.9632 275.21
L89.4096 274.559
L89.856 274.985
L90.3024 283.714
L90.7488 282.638
L91.1952 282.073
L91.6416 280.589
L92.088 269.21
L92.5344 275.544
L92.9808 275.939
L93.4272 274.092
L93.8736 275.765
L94.32 309.754
L94.7664 322.632
L95.2128 305.98
L95.6592 323.902
L96.1056 323.735
L96.552 322.833
L96.9984 318.979
L97.4448 292.834
L97.8912 323.92
L98.3376 324.937
L98.784 307.289
L99.2304 323.878
L99.6768 323.875
L100.123 323.248
L100.57 315.484
L101.016 324.686
L101.462 324.018
L101.909 306.66
L102.355 323.589
L102.802 323.694
L103.248 309.582
L103.694 324.339
L104.141 324.332
L104.587 311.622
L105.034 323.777
L105.48 323.61
L105.926 309.929
L106.373 324.048
L106.819 323.888
L107.266 312.613
L107.712 322.089
L108.158 323.087
L108.605 316.485
L109.051 323.781
L109.498 322.266
L109.944 312.271
L110.39 323.366
L110.837 322.829
L111.283 315.79
L111.73 322.878
L112.176 306.04
L112.622 324.473
L113.069 323.043
L113.962 306.788
L114.408 323.114
L114.854 322.826
L115.301 306.343
L115.747 323.641
L116.194 324.16
L116.64 324.033
L117.086 298.474
L117.533 306.992
L117.979 324.524
L118.426 323.579
L118.872 323.333
L119.318 324.459
L119.765 323.886
L120.211 307.478
L120.658 325.131
L121.104 323.239
L121.55 304.438
L121.997 323.222
L122.443 298.443
L122.89 324.656
L123.336 310.915
L123.782 307.77
L124.229 307.867
L124.675 306.424
L125.122 323.065
L125.568 323.849
L126.014 322.456
L126.461 309.993
L126.907 323.603
L127.354 322.442
L127.8 315.013
L128.246 323.876
L128.693 323.011
L129.139 313.778
L129.586 323.776
L130.032 323.264
L130.478 318.049
L130.925 323.358
L131.371 323.645
L131.818 314.714
L132.264 324.214
L132.71 307.091
L133.157 324.48
L133.603 323.643
L134.05 323.946
L134.496 321.771
L134.942 324.199
L135.389 323.16
L135.835 318.171
L136.282 324
L136.728 323.98
L137.174 311.237
L137.621 323.843
L138.067 323.866
L138.514 318.192
L138.96 314.646
L139.406 307.66
L139.853 315.359
L140.299 306.817
L140.746 316.324
L141.192 298.051
L141.638 316.138
L142.085 304.4
L142.531 315.273
L142.978 288.03
L143.424 314.982
L143.87 297.263
L144.317 315.006
L144.763 298.056
L145.21 304.635
L145.656 314.053
L146.102 301.557
L146.549 315.656
L146.995 312.04
L147.442 315.372
L147.888 305.995
L148.334 315.366
L148.781 299.343
L149.227 316.025
L149.674 314.539
L150.12 315.992
L150.566 311.145
L151.013 315.675
L151.459 298.545
L151.906 316.183
L152.352 305.362
L152.798 324.303
L153.245 307.269
L153.691 324.183
L154.138 323.038
L154.584 308.451
L155.03 324.082
L155.477 324.54
L155.923 310.35
L156.37 307.581
L156.816 313.221
L157.262 324.586
L157.709 323.21
L158.155 317.927
L158.602 324.302
L159.048 323.924
L159.494 311.788
L159.941 324.514
L160.387 324.412
L160.834 310.458
L161.28 324.247
L161.726 324.376
L162.173 317.345
L162.619 323.651
L163.066 324.269
L163.512 312.633
L163.958 324.459
L164.405 324.443
L164.851 317.215
L165.298 324.293
L165.744 323.77
L166.19 323.867
L166.637 321.849
L167.083 324.138
L167.53 324.317
L167.976 275.812
L168.422 307.856
L168.869 324.69
L169.315 324.47
L169.762 323.938
L170.208 323.964
L170.654 324.346
L171.101 317.754
L171.547 324.227
L171.994 310.377
L172.44 324.467
L172.886 324.266
L173.333 310.736
L173.779 324.7
L174.226 324.422
L174.672 313.626
L175.118 315.226
L175.565 297.9
L176.011 314.793
L176.458 314.663
L176.904 306.019
L177.35 314.467
L177.797 300.374
L178.243 314.786
L178.69 305.172
L179.136 315.169
L179.582 315.24
L180.029 314.47
L180.475 315.274
L180.922 315.209
L181.368 315.49
L181.814 276.414
L182.261 315.811
L182.707 304.78
L183.154 316.234
L183.6 316.134
L184.046 323.315
L184.493 323.157
L184.939 314.318
L185.386 323.861
L185.832 322.888
L186.278 312.646
L186.725 308.31
L187.171 324.515
L187.618 323.626
L188.064 324.027
L188.51 323.79
L188.957 317.362
L189.403 324.715
L189.85 324.258
L190.296 314.517
L190.742 323.902
L191.189 306.697
L191.635 323.08
L192.082 323.149
L192.528 323.574
L192.974 323.063
L193.421 324.308
L193.867 323.623
L194.314 310.943
L194.76 323.603
L195.206 323.652
L195.653 313.352
L196.099 323.44
L196.546 323.117
L196.992 318.451
L197.438 323.256
L197.885 323.435
L198.331 313.259
L198.778 323.431
L199.224 324.019
L199.67 301.406
L200.117 323.417
L200.563 307.041
L201.01 323.991
L201.456 323.664
L201.902 318.142
L202.349 322.973
L202.795 323.039
L203.242 314.585
L203.688 323.066
L204.134 323.973
L204.581 318.586
L205.027 323.152
L205.474 323.596
L205.92 296.532
L206.366 323.584
L206.813 311.982
L207.259 324.171
L207.706 323.792
L208.152 294.324
L208.598 307.009
L209.045 323.247
L209.491 323.492
L209.938 323.544
L210.384 318.246
L210.83 322.704
L211.277 323.245
L211.723 318.46
L212.17 323.788
L212.616 323.174
L213.062 312.18
L213.509 323.465
L213.955 323.935
L214.402 311.506
L214.848 324.267
L215.294 324.229
L215.741 315.744
L216.187 324.371
L216.634 220.209
L217.08 324.947
L217.526 324.296
L217.973 314.293
L218.419 324.044
L218.866 324.457
L219.312 310.512
L219.758 324.6
L220.205 323.59
L220.651 315.651
L221.098 324.926
L221.544 324.396
L221.99 309.9
L222.437 324.548
L222.883 307.7
L223.33 324.032
L223.776 305.441
L224.222 322.255
L224.669 313.137
L225.115 322.839
L225.562 306.358
L226.008 323.784
L226.454 322.847
L226.901 323.581
L227.347 323.81
L227.794 323.828
L228.24 314.528
L228.686 311.597
L229.133 315.35
L229.579 305.087
L230.026 315.396
L230.472 298.765
L230.918 315.827
L231.365 304.403
L231.811 315.681
L232.258 304.561
L232.704 315.839
L233.15 295.726
L233.597 316.162
L234.043 304.154
L234.49 315.16
L234.936 298.832
L235.382 315.858
L235.829 303.571
L236.275 315.985
L236.722 304.091
L237.168 316.284
L237.614 297.543
L238.061 283.88
L238.507 316.104
L238.954 315.292
L239.4 316.504
L239.846 316.096
L240.293 306.808
L240.739 315.918
L241.186 304.643
L241.632 315.925
L242.078 305.549
L242.525 323.89
L242.971 323.742
L243.418 300.523
L243.864 325.059
L244.31 305.6
L244.757 324.383
L245.203 323.693
L246.096 308.022
L246.542 306.65
L246.989 324.53
L247.435 321.989
L247.882 323.112
L248.328 323.227
L248.774 323.034
L249.221 314.57
L249.667 323.55
L250.114 322.869
L250.56 302.482
L251.006 306.625
L251.453 261.401
L251.899 324.2
L252.346 324.42
L252.792 315.711
L253.238 249.741
L253.685 228.004
L254.131 322.672
L254.578 292.543
L255.024 325.305
L255.47 287.169
L255.917 324.59
L256.363 323.935
L256.81 323.991
L257.256 323.687
L257.702 317.382
L258.149 323.725
L258.595 323.67
L259.042 312.334
L259.488 324.215
L259.934 324.178
L260.381 324.483
L260.827 324.474
L261.274 306.351
L261.72 324.493
L262.166 323.79
L262.613 313.511
L263.059 324.535
L263.506 312.08
L263.952 324.464
L264.398 315.172
L264.845 308.209
L265.291 314.44
L265.738 308.083
L266.184 315.125
L266.63 282.628
L267.523 314.805
L267.97 314.503
L268.416 303.001
L268.862 314.258
L269.309 301.23
L269.755 313.036
L270.202 309.123
L270.648 313.918
L271.094 290.363
L271.541 314.211
L271.987 315.47
L272.434 315.75
L272.88 314.182
L273.326 323.978
L273.773 323.894
L274.219 311.992
L274.666 324.14
L275.112 324.17
L275.558 315.934
L276.005 324.451
L276.451 323.835
L276.898 311.319
L277.344 324.176
L277.79 323.378
L278.237 316.442
L278.683 324.351
L279.13 323.784
L279.576 311.587
L280.022 323.575
L280.469 324.336
L280.915 312.165
L281.362 322.938
L281.808 321.468
L282.254 324.615
L282.701 323.851
L283.147 309.782
L283.594 324.009
L284.04 324.799
L284.486 319.926
L284.933 322.907
L285.379 322.895
L285.826 316.072
L286.272 323.235
L286.718 323.986
L287.165 307.244
L287.611 324.583
L288.058 324.023
L288.504 321.806
L288.95 324.616
L289.397 323.95
L289.843 309.318
L290.29 324.257
L290.736 324.329
L291.182 316.95
L291.629 323.946
L292.075 324.572
L292.522 308.962
L292.968 324.035
L293.414 324.092
L293.861 310.928
L294.307 323.848
L294.754 323.878
L295.2 314.791
L295.646 324.186
L296.093 323.962
L296.539 311.412
L296.986 323.817
L297.432 323.886
L297.878 314.768
L298.325 324.425
L298.771 324.065
L299.218 311.381
L299.664 324.272
L300.11 323.749
L300.557 309.391
L301.003 290.892
L301.45 324.034
L301.896 323.283
L302.342 306.679
L302.789 316.414
L303.235 323.196
L303.682 310.809
L304.128 323.765
L304.574 323.96
L305.021 317.899
L305.467 324.207
L305.914 323.689
L306.36 316.044
L306.806 324.547
L307.253 324.057
L307.699 279.119
L308.146 306.378
L308.592 323.287
L309.038 323.978
L309.485 311.159
L309.931 324.827
L310.378 323.91
L310.824 324.5
L311.27 323.562
L311.717 319.211
L312.163 307.406
L312.61 313.489
L313.056 324.209
L313.502 323.826
L313.949 310.659
L314.395 324.121
L314.842 323.853
L315.288 318.188
L315.734 323.895
L316.181 307.85
L316.627 324
L317.074 324.152
L317.52 308.929
L317.966 314.93
L318.413 306.174
L318.859 315.967
L319.306 300.042
L319.752 314.688
L320.198 305.452
L320.645 315.653
L321.091 299.471
L321.538 316.515
L321.984 304.133
L322.43 314.602
L322.877 304.975
L323.323 315.316
L323.77 301.072
L324.216 315.599
L324.662 303.56
L325.109 314.285
L325.555 301.755
L326.002 314.273
L326.448 314.818
L326.894 314.792
L327.341 314.623
L327.787 298.625
L328.234 306.823
L328.68 298.701
L329.126 316.845
L329.573 315.268
L330.019 314.993
L330.466 315.937
L330.912 306.73
L331.358 324.248
L331.805 324.075
L333.144 324.033
L333.59 312.753
L334.037 325.237
L334.483 324.027
L334.93 309.615
L335.376 324.317
L335.822 324.151
L336.269 317.783
L336.715 325.005
L337.608 318.754
L338.054 305.334
L338.501 324.546
L338.947 302.031
L339.394 323.695
L339.84 313.5
L340.286 322.96
L340.733 321.043
L341.179 318.253
L341.626 323.317
L342.072 322.906
L342.518 317.798
L342.965 322.972
L343.411 323.123
L343.858 320.731
L344.304 323.72
L344.75 322.402
L345.197 306.062
L345.643 306.017
L346.09 322.512
L346.982 323.084
L347.429 314.586
L347.875 323.137
L348.322 322.858
L348.768 320.673
L349.214 323.588
L349.661 323.43
L350.107 312.524
L350.554 311.373
L351 311.233
L351.446 324.7
L351.893 323.703
L352.339 322.294
L352.786 323.325
L353.232 322.627
L353.678 314.406
L354.125 314.322
L354.571 313.651
L355.018 314.715
L355.464 312.929
L355.91 315.105
L356.357 299.855
L356.803 314.704
L357.25 305.484
L357.696 314.471
L358.142 307.13
L358.589 314.792
L359.035 301.28
L359.482 315.656
L359.928 306.231
L360.374 315.786
L360.821 300.391
L361.267 315.275
L361.714 305.277
L362.16 323.427
L362.606 323.24
L363.053 322.519
L363.499 321.35
L363.946 323.198
L364.392 322.951
L364.838 323.809
L365.285 312.85
L365.731 323.367
L366.178 324.016
L366.624 319.15
L367.07 323.07
L367.517 324.376
L367.963 313.213
L368.41 324.433
L368.856 324.115
L369.302 318.424
L369.749 324.117
L370.195 323.975
L370.642 323.338
L371.088 323.783
L371.534 323.528
L371.981 318.506
L372.427 323.869
L372.874 322.743
L373.32 319.845
L373.766 324.702
L374.213 324.924
L374.659 316.795
L375.106 322.628
L375.552 323.522
L375.998 322.311
L376.445 323.278
L376.891 323.046
L377.338 284.776
L377.784 307.895
L378.23 322.941
L378.677 323.015
L379.123 315.242
L379.57 323.579
L380.016 323.208
L380.462 320.151
L380.909 306.92
L381.355 323.133
L381.802 323.515
L382.248 323.695
L382.694 323.462
L383.141 323.893
L384.034 323.771
L384.48 317.616
L384.926 323.942
L385.373 323.582
L385.819 317.358
L386.266 306.687
L386.712 323.81
L387.158 322.646
L387.605 323.977
L388.051 323.746
L388.498 323.124
L388.944 324.344
L389.39 322.6
L389.837 323.048
L390.283 323.933
L390.73 323.331
L391.176 314.894
L391.622 322.634
L392.069 322.532
L392.515 322.735
L392.962 323.485
L393.408 323.619
L393.854 323.36
L394.301 323.573
L394.747 313.318
L395.194 322.889
L395.64 323.288
L396.086 324.073
L396.533 322.881
L396.979 323.327
L397.426 322.605
L397.872 323.585
L398.318 323.21
L398.765 322.544
L399.211 323.384
L399.658 323.342
L400.104 322.165
L400.55 322.995
L400.997 323.302
L401.443 317.528
L401.89 305.443
L402.336 323.403
L402.782 323.606
L403.229 323.279
L403.675 317.858
L404.122 324.055
L404.568 323.822
L405.014 315.574
L405.461 324.066
L405.907 323.672
L406.354 315.88
L406.8 315.955
L407.246 315.568
L407.693 299.27
L408.139 306.873
L408.586 316.406
L409.032 280.812
L409.478 315.027
L409.925 299.141
L410.371 316.418
L410.818 316.131
L411.264 304.158
L411.71 315.166
L412.157 313.043
L412.603 316.251
L413.05 299.163
L413.496 315.432
L413.942 291.61
L414.389 315.395
L414.835 313.96
L415.282 314.53
L415.728 314.59
L416.174 315.129
L416.621 309.927
L417.067 314.683
L417.514 307.919
L417.96 315.735
L418.406 303.657
L418.853 315.825
L419.299 298.901
L419.746 315.36
L420.192 315.166
L420.638 324.17
L421.085 323.67
L421.531 324.249
L421.978 323.741
L422.424 314.006
L422.87 322.024
L423.317 323.094
L423.763 318.248
L424.21 322.517
L424.656 322.746
L425.102 323.599
L425.549 323.519
L425.995 323.691
L426.442 320.051
L426.888 322.868
L427.334 305.809
L427.781 323.658
L428.227 322.811
L428.674 313.428
L429.12 322.098
L430.013 323.477
L430.459 323.06
L430.906 317.625
L431.352 323.333
L431.798 323.765
L432.245 305.339
L432.691 323.713
L433.138 308.702
L433.584 323.756
L434.03 321.187
L434.923 323.17
L435.37 240.626
L435.816 322.499
L436.262 305.95
L436.709 324.348
L437.155 323.092
L437.602 313.369
L438.048 323.462
L438.494 323.209
L438.941 316.226
L439.387 323.04
L439.834 323.347
L440.28 323.269
L440.726 323.824
L441.173 323.879
L441.619 315.793
L442.066 323.253
L442.512 323.79
L442.958 298.62
L443.405 315.983
L443.851 306.53
L444.298 314.651
L444.744 306.005
L445.19 315.355
L445.637 283.197
L446.083 314.792
L446.53 313.84
L446.976 314.252
L447.422 282.42
L447.869 308.783
L448.315 314.696
L448.762 315.337
L449.654 313.862
L450.101 314.699
L450.547 306.737
L450.994 314.482
L451.44 317.068
L451.886 322.637
L452.333 323.042
L452.779 316.88
L453.226 312.877
L453.672 321.83
L454.118 322.922
L454.565 322.589
L455.011 323.588
L455.458 323.01
L455.904 318.539
L456.35 321.538
L456.797 323.205
L457.243 322.985
L457.69 323.355
L458.582 321.971
L459.029 323.487
L459.475 323.543
L459.922 314.92
L460.368 323.969
L460.814 323.967
L461.261 319.326
L461.707 306.424
L462.154 322.426
L462.6 323.545
L463.046 322.822
L463.493 310.386
L463.939 323.206
L464.386 322.7
L464.832 317.637
L465.278 322.721
L465.725 322.422
L466.171 323.12
L466.618 323.575
L467.064 323.605
L467.51 321.455
L467.957 323.43
L468.403 322.998
L468.85 318.055
L469.296 323.464
L469.742 323.449
L470.189 320.626
L470.635 323.628
L471.082 323.54
L471.528 297.456
L471.974 323.001
L472.421 316.835
L472.867 322.271
L473.314 323.22
L473.76 322.534
L474.206 322.556
L474.653 313.27
L475.099 322.792
L475.546 323.435
L475.992 322.183
L476.438 323.444
L476.885 312.203
L477.331 323.562
L477.778 322.521
L478.224 301.459
L478.67 322.333
L479.117 317.099
L479.563 323.114
L480.01 322.995
L480.456 316.237
L480.902 322.951
L481.349 323.607
L481.795 322.258
L482.242 323.282
L482.688 323.61
L483.134 315.126
L483.581 324.316
L484.027 323.237
L484.474 320.384
L484.92 294.726
L485.366 323.639
L486.259 323.051
L486.706 324.105
L487.152 323.723
L487.598 315.616
L488.045 323.525
L488.491 324.135
L488.938 321.632
L489.384 322.822
L489.83 217.46
L490.277 323.759
L490.723 316.075
L491.17 323.577
L491.616 323.177
L492.062 323.272
L492.509 322.739
L492.955 323.286
L493.402 319.142
L493.848 323.138
L494.294 323.022
L494.741 318.42
L495.187 323.554
L495.634 323.483
L496.08 313.11
L496.526 315.076
L496.973 309.245
L497.419 314.917
L497.866 287.267
L498.312 280.834
L498.758 315.487
L499.205 314.996
L499.651 315.096
L500.098 311.012
L500.544 315.439
L500.99 307.972
L501.437 314.571
L501.883 303.115
L502.33 315.012
L502.776 308.226
L503.222 315.266
L503.669 309.081
L504.115 298.387
L504.562 315.132
L505.008 315.755
L505.454 312.555
L505.901 314.989
L506.347 309.202
L506.794 314.764
L507.24 303.895
L507.686 315.328
L508.133 307.642
L508.579 314.555
L509.026 307.954
L509.472 315.477
L509.918 316.329
L510.365 322.261
L510.811 322.483
L511.258 321.551
L511.704 322.422
L512.15 321.891
L512.597 322.076
L513.043 322.469
L513.49 292.171
L513.936 322.983
L514.382 312.589
L514.829 322.766
L515.722 323.39
L516.168 322.924
L516.614 322.976
L517.061 289.476
L517.954 323.358
L517.954 323.358" style="fill:none;opacity:0.7;stroke:#008000;"/>
   </g>
   <g id="line2d_3">
    <path clip-path="url(#p7ff5b81e1d)" d="
M72 279.776
L72.4464 215.122
L72.8928 272.779
L73.3392 261.001
L73.7856 271.154
L74.232 262.775
L74.6784 278.717
L75.1248 278.887
L75.5712 278.771
L76.0176 279.919
L76.464 264.57
L76.9104 272.344
L77.3568 260.223
L77.8032 258.497
L78.2496 278.149
L78.696 278.848
L79.1424 279.843
L79.5888 280.255
L80.0352 278.287
L80.4816 278.742
L80.928 279.93
L81.3744 279.617
L81.8208 278.622
L82.2672 280.311
L82.7136 272.596
L83.16 278.848
L83.6064 279.129
L84.0528 279.752
L84.4992 274.23
L84.9456 265.816
L85.392 269.173
L85.8384 269.215
L86.2848 272.735
L86.7312 265.741
L87.1776 267.871
L87.624 276.882
L88.0704 260.554
L88.5168 279.667
L88.9632 279.376
L89.4096 279.85
L89.856 279.829
L90.3024 280.003
L90.7488 258.692
L91.1952 278.196
L91.6416 280.562
L92.088 262.871
L92.5344 270.832
L92.9808 275.314
L93.4272 275.347
L93.8736 273.783
L94.32 303.096
L94.7664 302.801
L95.2128 317.173
L95.6592 319.711
L96.1056 319.777
L96.552 304.163
L96.9984 319.968
L97.4448 320.666
L97.8912 320.937
L98.3376 320.098
L98.784 320.474
L99.2304 316.384
L99.6768 318.788
L100.57 319.931
L101.016 319.82
L101.462 320.397
L102.355 320.447
L102.802 320.69
L103.248 320.127
L103.694 320.073
L104.587 320.495
L105.034 307.172
L105.48 319.077
L105.926 319.02
L106.373 319.675
L106.819 317.619
L107.266 319.391
L107.712 320.174
L108.605 317.536
L109.051 284.593
L109.498 319.987
L109.944 320.058
L110.39 319.351
L110.837 319.943
L111.73 320.273
L112.176 303.658
L112.622 318.711
L113.069 308.348
L113.515 303.188
L113.962 320.996
L114.854 318.706
L115.301 319.183
L115.747 320.362
L116.194 319.762
L116.64 319.671
L117.086 318.993
L117.533 319.239
L118.426 321.285
L118.872 311.819
L119.318 319.855
L119.765 320.537
L120.211 320.817
L121.104 320.454
L121.55 318.074
L121.997 319.12
L122.443 319.649
L122.89 319.905
L123.336 319.461
L123.782 319.706
L124.229 320.944
L124.675 320.515
L125.122 292.789
L125.568 320.407
L126.014 320.295
L126.461 321.089
L126.907 320.622
L127.354 319.532
L127.8 320.434
L128.246 319.827
L128.693 320.564
L129.139 319.631
L129.586 320.548
L130.032 304.131
L130.478 320.697
L130.925 319.417
L131.371 320.53
L131.818 304.839
L132.264 319.994
L132.71 320.796
L133.603 320.272
L134.05 320.717
L134.496 320.434
L134.942 317.316
L135.389 319.15
L136.282 320.578
L136.728 320.489
L137.174 319.548
L137.621 311.76
L138.067 306.45
L138.514 303.834
L138.96 302.84
L139.406 302.713
L140.186 -1
M140.37 -1
L140.746 205.827
L141.192 293.926
L141.638 309.911
L142.085 296.944
L142.531 303.289
L142.978 303.107
L143.424 310.667
L143.87 289.48
L144.317 292.906
L144.763 309.325
L145.21 311.147
L145.656 311.306
L146.102 295.851
L146.549 312.034
L146.995 312.148
L147.442 311.863
L147.888 312.396
L148.334 306.888
L148.781 312.081
L149.227 312.235
L149.674 307.675
L150.12 311.365
L150.566 312.41
L151.013 311.34
L151.459 308.742
L151.906 311.669
L152.352 312.1
L152.798 311.442
L153.245 309.178
L153.691 294.559
L154.138 305.284
L154.584 309.54
L155.03 296.888
L155.477 309.698
L155.923 295.902
L156.37 302.94
L156.816 295.81
L157.262 311.199
L157.709 308.251
L158.155 310.883
L158.602 312.239
L159.048 312.047
L159.494 308.177
L160.387 311.251
L160.834 310.717
L161.28 319.902
L161.726 319.339
L162.173 317.872
L162.619 319.893
L163.066 305.831
L163.512 320.096
L163.958 320.203
L164.405 320.563
L164.851 320.249
L165.298 320.294
L165.744 319.949
L166.19 316.425
L166.637 318.873
L167.083 319.624
L167.53 284.972
L167.976 319.813
L168.422 319.742
L168.869 320.655
L169.762 319.466
L171.101 320.408
L171.547 314.102
L171.994 304.496
L172.44 302.349
L172.886 320.257
L173.333 320.021
L173.779 319.182
L174.226 320.394
L174.672 320.751
L175.118 319.368
L175.565 318.929
L176.011 320.313
L176.458 319.437
L176.904 320.414
L177.35 320.243
L177.797 320.77
L178.243 320.111
L178.69 320.545
L179.136 320.708
L180.029 318.996
L180.475 319.708
L180.922 320.21
L181.368 320.203
L181.814 319.188
L182.261 304.467
L182.707 319.755
L183.154 320.426
L183.6 317.541
L184.046 319.594
L184.493 319.544
L184.939 317.177
L185.386 320.272
L185.832 300.348
L186.278 319.085
L186.725 307.38
L187.171 304.166
L187.618 320.728
L188.064 320.796
L188.51 318.722
L188.957 320.064
L189.403 320.096
L190.296 319.538
L190.742 320.263
L191.189 320.405
L191.635 320.795
L192.082 292.662
L192.528 320.323
L192.974 321.293
L193.421 320.415
L193.867 320.694
L194.314 312.637
L194.76 151.01
L195.206 192.808
L195.653 317.837
L196.099 303.257
L196.546 308.609
L196.992 303.367
L197.438 304.992
L197.885 303.571
L198.331 319.94
L198.778 319.591
L199.224 319.043
L199.67 318.929
L200.117 320.246
L200.563 320.576
L201.01 317.828
L201.456 317.917
L201.902 303.056
L202.349 318.516
L202.795 319.488
L203.242 303.435
L203.688 305.337
L204.134 317.699
L204.581 305.73
L205.027 303.539
L205.474 320.4
L205.92 311.701
L206.366 311.485
L206.813 309.069
L207.259 311.583
L207.706 312.1
L208.152 312.084
L208.598 295.642
L209.045 305.491
L209.491 310.8
L209.938 310.444
L210.384 304.701
L210.83 302.483
L211.277 309.229
L211.723 292.369
L212.17 311.053
L212.616 297.905
L213.062 302.154
L213.509 302.78
L213.955 310.664
L214.402 294.212
L214.848 311.616
L215.294 311.68
L215.741 311.292
L216.187 312.626
L216.634 298.019
L217.08 302.085
L217.526 312.269
L217.973 312.028
L218.419 308.503
L218.866 313.234
L219.312 311.632
L219.758 311.692
L220.205 309.221
L220.651 310.89
L221.098 298.955
L221.544 311.764
L221.99 312.44
L222.437 312.43
L222.883 312.225
L223.33 312.753
L223.776 313.547
L224.222 312.252
L224.669 292.955
L225.115 292.332
L225.562 312.32
L226.008 312.019
L226.454 308.636
L226.901 278.913
L227.347 312.252
L227.794 312.607
L228.24 320.537
L228.686 310.086
L229.133 318.719
L229.579 320.839
L230.472 320.041
L231.365 320.374
L232.258 319.871
L232.704 320.879
L233.15 318.148
L233.597 318.833
L234.043 318.681
L234.49 319.741
L234.936 319.222
L235.382 319.282
L235.829 319.463
L236.722 319.551
L237.168 319.712
L238.061 320.511
L238.507 319.556
L238.954 318.226
L239.4 319.886
L239.846 319.6
L240.293 320.223
L240.739 319.681
L241.186 320.851
L241.632 320.575
L242.078 319.126
L242.525 302.905
L242.971 319.3
L243.418 304.288
L243.864 319.515
L244.31 319.444
L244.757 319.708
L245.203 320.302
L245.65 320.175
L246.096 320.654
L246.542 320.328
L246.989 317.393
L247.435 319.702
L247.882 320.274
L248.774 318.842
L249.221 319.29
L249.667 319.899
L250.114 320.269
L250.56 319.799
L251.006 316.967
L251.899 320.72
L252.346 318.866
L252.792 304.252
L253.238 319.565
L253.685 319.742
L254.578 320.477
L255.47 318.553
L255.917 320.117
L256.363 318.994
L256.81 318.323
L257.256 315.032
L257.702 303.589
L258.149 317.742
L258.595 319.152
L259.042 318.597
L259.488 319.421
L259.934 319.723
L260.381 320.222
L260.827 318.594
L261.274 317.882
L261.72 318.312
L262.166 320.014
L262.613 318.685
L263.059 318.325
L263.506 319.703
L263.952 320.174
L264.398 318.945
L264.845 319.018
L265.291 319.522
L265.738 319.137
L266.184 319.948
L266.63 319.601
L267.523 319.515
L268.416 320.183
L268.862 320.037
L269.309 318.224
L269.755 318.652
L270.202 319.604
L270.648 319.712
L271.094 319.407
L271.541 318.709
L271.987 319.855
L272.434 319.431
L272.88 311.199
L273.326 310.632
L273.773 307.438
L274.219 310.6
L274.666 310.175
L275.558 311.463
L276.005 311.366
L276.451 311.154
L276.898 311.167
L277.344 311.95
L277.79 307.705
L278.237 310.306
L278.683 309.463
L279.13 311.777
L279.576 311.037
L280.022 311.568
L280.469 311.846
L280.915 311.211
L281.362 310.996
L281.808 311.867
L282.254 310.832
L282.701 311.599
L283.147 311.465
L283.594 307.403
L284.04 311.623
L284.486 311.905
L284.933 311.206
L285.379 209.475
L285.826 311.348
L286.272 312.285
L286.718 311.355
L287.165 308.623
L287.611 311.614
L288.058 292.253
L288.504 281.077
L288.95 312.604
L289.397 311.865
L289.843 310.875
L290.736 312.892
L291.182 312.31
L291.629 307.433
L292.075 311.012
L292.522 310.789
L292.968 311.784
L293.414 309.2
L293.861 310.339
L294.307 311.98
L294.754 311.741
L295.2 319.465
L295.646 318.606
L296.093 319.151
L296.539 319.162
L296.986 319.917
L297.432 319.334
L297.878 305.795
L298.325 318.976
L298.771 319.919
L299.218 304.021
L299.664 318.913
L300.11 317.456
L300.557 320.08
L301.003 320.121
L301.45 320.627
L301.896 319.041
L302.342 320.574
L302.789 320.712
L303.235 319.502
L303.682 318.857
L304.574 319.558
L305.467 320.092
L305.914 317.572
L306.36 302.065
L306.806 318.644
L307.253 319.313
L307.699 318.639
L308.146 318.939
L308.592 319.48
L309.038 319.549
L309.485 318.498
L309.931 320.537
L310.378 319.54
L310.824 319.524
L311.27 320.173
L311.717 319.669
L312.61 319.756
L313.056 320.5
L313.502 319.835
L313.949 318.332
L314.395 303.634
L314.842 319.562
L315.288 303.927
L315.734 319.345
L316.181 318.454
L316.627 320.026
L317.074 320.024
L317.52 320.543
L317.966 317.974
L318.413 301.682
L318.859 318.714
L319.306 319.602
L319.752 319.865
L320.198 320.608
L320.645 320.583
L321.091 320.186
L321.538 318.976
L321.984 319.457
L322.43 317.706
L322.877 319.224
L323.323 319.098
L323.77 318.741
L324.216 319.318
L324.662 320.888
L325.109 319.664
L325.555 320.216
L326.002 320.151
L326.448 319.832
L326.894 320.556
L327.341 319.902
L327.787 320.362
L328.234 318.186
L328.68 318.264
L329.126 318.921
L329.573 320.02
L330.019 318.307
L330.466 319.598
L330.912 303.213
L331.358 319.401
L331.805 318.174
L332.251 319.294
L332.698 319.972
L333.144 319.669
L333.59 319.818
L334.037 320.27
L334.483 319.392
L334.93 303.901
L335.376 318.537
L335.822 319.083
L336.269 318.434
L336.715 319.518
L337.162 319.61
L337.608 319.845
L338.054 318.504
L338.501 319.793
L338.947 320.547
L339.394 319.962
L339.84 296.163
L340.286 311.27
L340.733 308.09
L341.179 310.105
L341.626 310.525
L342.072 311.144
L342.518 311.248
L342.965 311.147
L343.411 312.17
L344.304 311.063
L344.75 307.411
L345.197 310.548
L345.643 310.078
L346.09 293.467
L346.536 310.589
L346.982 294.997
L347.429 311.87
L347.875 310.685
L348.322 311.35
L348.768 311.064
L349.214 311.187
L349.661 305.78
L350.107 279.919
L350.554 307.38
L351 310.889
L351.446 312.475
L351.893 311.997
L352.339 308.369
L352.786 312.008
L353.232 310.785
L353.678 312.35
L354.125 307.894
L354.571 295.226
L355.018 309.149
L355.464 310.458
L355.91 310.795
L356.357 310.746
L356.803 294.292
L357.25 311.572
L357.696 306.583
L358.142 295.022
L358.589 307.503
L359.035 311.252
L359.482 311.962
L359.928 311.033
L360.374 307.969
L360.821 310.27
L361.267 310.625
L361.714 311.731
L362.16 320.663
L362.606 319.718
L363.053 318.178
L363.499 319.74
L363.946 319.204
L364.392 319.055
L364.838 320.138
L365.285 319.332
L366.178 318.946
L366.624 319.707
L367.07 319.186
L367.517 319.28
L367.963 319.248
L368.41 318.695
L368.856 318.793
L369.302 320.118
L369.749 319.01
L370.195 319.428
L370.642 301.878
L371.088 320.371
L371.534 320.324
L371.981 319.114
L372.427 319.242
L372.874 317.471
L373.32 320.107
L373.766 319.492
L374.213 319.867
L374.659 318.278
L375.106 319.157
L375.552 303.082
L375.998 319.21
L376.445 319.108
L376.891 319.419
L377.338 319.415
L377.784 320.104
L378.23 319.947
L378.677 319.404
L379.123 319.269
L379.57 320.405
L380.016 318.948
L380.462 319.764
L380.909 317.939
L381.355 319.447
L381.802 319.953
L382.694 318.624
L383.141 319.421
L383.587 319.341
L384.034 320.748
L384.48 312.689
L384.926 318.53
L385.373 318.482
L385.819 319.777
L386.266 319.827
L387.158 319.361
L387.605 319.344
L388.051 319.962
L388.498 303.57
L388.944 319.015
L389.39 318.1
L389.837 319.168
L390.283 319.471
L390.73 318.238
L391.176 319.314
L391.622 319.706
L392.069 319.619
L392.962 320.02
L393.408 319.508
L393.854 320.824
L394.301 320.693
L394.747 319.938
L395.194 318.651
L395.64 320.21
L396.086 320.674
L396.979 319.833
L397.426 303.71
L397.872 319.569
L398.318 320.464
L398.765 319.922
L399.211 320.489
L399.658 320.78
L400.104 319.851
L400.55 319.456
L400.997 318.782
L401.443 320.376
L401.89 320.88
L402.782 320.005
L403.229 318.706
L403.675 307.107
L404.122 320.295
L404.568 320.15
L405.014 319.548
L405.461 319.147
L405.907 320.614
L406.354 319.056
L406.8 311.785
L407.246 311.887
L407.693 309.152
L408.139 311.878
L408.586 294.75
L409.032 310.952
L409.478 309.559
L410.371 310.79
L410.818 311.083
L411.264 310.917
L411.71 256.894
L412.157 309.615
L412.603 310.026
L413.05 310.262
L413.496 310.806
L413.942 310.984
L414.389 308.434
L414.835 311.316
L415.282 310.613
L415.728 311.212
L416.174 310.046
L416.621 310.719
L417.067 310.78
L417.514 307.775
L417.96 310.493
L418.406 293.746
L418.853 310.896
L419.299 309.521
L419.746 311.045
L420.192 311.31
L420.638 310.601
L421.085 308.475
L421.531 293.254
L421.978 309.282
L422.424 309.91
L422.87 311.109
L423.317 311.553
L423.763 310.871
L424.21 310.798
L424.656 293.46
L425.102 310.722
L425.549 307.666
L425.995 310.641
L426.442 311.193
L426.888 310.012
L427.334 309.895
L427.781 309.513
L428.227 310.934
L428.674 310.517
L429.12 319.115
L429.566 318.72
L430.013 318.749
L430.906 320.561
L431.352 319.402
L431.798 319.803
L432.245 319.803
L432.691 320.407
L433.138 320.478
L433.584 320.691
L434.03 318.944
L434.477 319.158
L435.37 320.473
L435.816 319.441
L436.262 320.414
L436.709 320.079
L437.155 320.259
L437.602 303.333
L438.048 303.524
L438.494 320.499
L438.941 234.148
L439.387 321.298
L439.834 319.133
L440.28 320.443
L440.726 319.844
L441.173 319.955
L441.619 319.373
L442.066 319.659
L442.958 320.362
L443.405 319.208
L443.851 318.663
L444.298 312.721
L444.744 319.128
L445.637 319.062
L446.083 319.227
L446.53 318.218
L446.976 318.787
L447.422 318.635
L447.869 317.964
L448.315 318.839
L448.762 319.035
L449.208 302.188
L449.654 318.69
L450.101 319.484
L450.547 318.504
L450.994 318.167
L451.44 318.686
L451.886 318.483
L452.333 318.558
L452.779 319.348
L453.226 319.518
L453.672 318.89
L454.118 319.4
L454.565 302.955
L455.011 319.491
L455.904 319.801
L456.35 318.753
L456.797 319.94
L457.243 319.293
L457.69 319.809
L458.136 300.958
L458.582 319.161
L459.029 319.017
L459.475 318.092
L459.922 318.658
L460.368 302.002
L460.814 318.963
L461.261 319.315
L461.707 319.057
L462.154 317.887
L462.6 319.207
L463.046 319.993
L463.493 319.192
L464.386 318.752
L464.832 319.708
L465.278 318.04
L465.725 319.028
L466.171 302.173
L466.618 318.563
L467.064 319.436
L467.51 319.313
L467.957 319.344
L468.403 318.948
L468.85 318.789
L469.296 319.201
L469.742 318.479
L470.189 318.337
L470.635 319.033
L471.082 319.165
L471.528 318.392
L471.974 318.916
L472.421 318.818
L472.867 287.416
L473.314 319.416
L473.76 310.253
L474.206 310.63
L474.653 307.2
L475.099 294.032
L475.546 311.438
L476.885 311.808
L477.331 311.505
L477.778 312.462
L478.224 312.069
L478.67 308.296
L479.117 309.381
L479.563 309.845
L480.01 305.35
L480.456 311.549
L480.902 312.344
L481.349 311.337
L481.795 311.772
L482.242 311.73
L482.688 311.987
L483.134 312.065
L483.581 312.287
L484.027 312.789
L484.474 307.456
L484.92 293.576
L485.366 310.673
L485.813 309.783
L486.259 306.935
L486.706 311.174
L487.152 310.209
L487.598 310.464
L488.045 308.677
L488.491 292.959
L488.938 310.207
L489.384 310.163
L489.83 310.75
L490.277 310.709
L490.723 310.524
L491.17 310.968
L491.616 310.062
L492.062 311.009
L492.509 307.409
L492.955 309.725
L493.402 310.142
L493.848 309.968
L494.294 309.39
L495.187 310.583
L495.634 311.573
L496.08 318.923
L496.526 112.774
L497.419 318.893
L497.866 318.99
L498.312 319.211
L498.758 318.86
L499.205 319.432
L499.651 319.073
L500.098 318.902
L500.544 319.269
L500.99 317.709
L501.883 319.422
L502.33 319.042
L502.776 318.165
L503.222 319.541
L503.669 318.438
L504.115 319.345
L504.562 318.672
L505.454 319.716
L505.901 319.319
L506.347 319.419
L506.794 318.008
L507.24 318.84
L507.686 318.415
L508.133 318.897
L508.579 318.894
L509.026 318.719
L510.365 319.09
L511.258 319.191
L511.704 318.95
L512.15 318.837
L512.597 319.651
L513.043 319.269
L513.49 318.517
L513.936 318.654
L514.382 301.869
L514.829 318.433
L515.275 319.138
L515.722 319.205
L516.168 319.438
L516.614 320.024
L517.061 319.293
L517.507 320.195
L517.954 320.253
L517.954 320.253" style="fill:none;opacity:0.5;stroke:#0000ff;"/>
   </g>
   <g id="matplotlib.axis_1">
    <g id="xtick_1">
     <g id="line2d_4">
      <path clip-path="url(#p7ff5b81e1d)" d="
M72 388.8
L72 43.2" style="fill:none;stroke:#000000;stroke-dasharray:1.000000,3.000000;stroke-dashoffset:0.0;stroke-linecap:butt;stroke-width:0.5;"/>
     </g>
     <g id="line2d_5">
      <defs>
       <path d="
M0 0
L0 -4" id="m0012dd4eef" style="stroke:#000000;stroke-linecap:butt;stroke-width:0.5;"/>
      </defs>
      <g>
       <use style="stroke:#000000;stroke-linecap:butt;stroke-width:0.5;" x="72.0" xlink:href="#m0012dd4eef" y="388.8"/>
      </g>
     </g>
     <g id="line2d_6">
      <defs>
       <path d="
M0 0
L0 4" id="m476344969c" style="stroke:#000000;stroke-linecap:butt;stroke-width:0.5;"/>
      </defs>
      <g>
       <use style="stroke:#000000;stroke-linecap:butt;stroke-width:0.5;" x="72.0" xlink:href="#m476344969c" y="43.2"/>
      </g>
     </g>
     <g id="text_1">
      <!-- 0 -->
      <defs>
       <path d="
M31.7812 66.4062
Q24.1719 66.4062 20.3281 58.9062
Q16.5 51.4219 16.5 36.375
Q16.5 21.3906 20.3281 13.8906
Q24.1719 6.39062 31.7812 6.39062
Q39.4531 6.39062 43.2812 13.8906
Q47.125 21.3906 47.125 36.375
Q47.125 51.4219 43.2812 58.9062
Q39.4531 66.4062 31.7812 66.4062
M31.7812 74.2188
Q44.0469 74.2188 50.5156 64.5156
Q56.9844 54.8281 56.9844 36.375
Q56.9844 17.9688 50.5156 8.26562
Q44.0469 -1.42188 31.7812 -1.42188
Q19.5312 -1.42188 13.0625 8.26562
Q6.59375 17.9688 6.59375 36.375
Q6.59375 54.8281 13.0625 64.5156
Q19.5312 74.2188 31.7812 74.2188" id="BitstreamVeraSans-Roman-30"/>
      </defs>
      <g transform="translate(68.9765625 401.70625)scale(0.12 -0.12)">
       <use xlink:href="#BitstreamVeraSans-Roman-30"/>
      </g>
     </g>
    </g>
    <g id="xtick_2">
     <g id="line2d_7">
      <path clip-path="url(#p7ff5b81e1d)" d="
M116.64 388.8
L116.64 43.2" style="fill:none;stroke:#000000;stroke-dasharray:1.000000,3.000000;stroke-dashoffset:0.0;stroke-linecap:butt;stroke-width:0.5;"/>
     </g>
     <g id="line2d_8">
      <g>
       <use style="stroke:#000000;stroke-linecap:butt;stroke-width:0.5;" x="116.64" xlink:href="#m0012dd4eef" y="388.8"/>
      </g>
     </g>
     <g id="line2d_9">
      <g>
       <use style="stroke:#000000;stroke-linecap:butt;stroke-width:0.5;" x="116.64" xlink:href="#m476344969c" y="43.2"/>
      </g>
     </g>
     <g id="text_2">
      <!-- 100 -->
      <defs>
       <path d="
M12.4062 8.29688
L28.5156 8.29688
L28.5156 63.9219
L10.9844 60.4062
L10.9844 69.3906
L28.4219 72.9062
L38.2812 72.9062
L38.2812 8.29688
L54.3906 8.29688
L54.3906 0
L12.4062 0
z
" id="BitstreamVeraSans-Roman-31"/>
      </defs>
      <g transform="translate(106.245 401.70625)scale(0.12 -0.12)">
       <use xlink:href="#BitstreamVeraSans-Roman-31"/>
       <use x="63.623046875" xlink:href="#BitstreamVeraSans-Roman-30"/>
       <use x="127.24609375" xlink:href="#BitstreamVeraSans-Roman-30"/>
      </g>
     </g>
    </g>
    <g id="xtick_3">
     <g id="line2d_10">
      <path clip-path="url(#p7ff5b81e1d)" d="
M161.28 388.8
L161.28 43.2" style="fill:none;stroke:#000000;stroke-dasharray:1.000000,3.000000;stroke-dashoffset:0.0;stroke-linecap:butt;stroke-width:0.5;"/>
     </g>
     <g id="line2d_11">
      <g>
       <use style="stroke:#000000;stroke-linecap:butt;stroke-width:0.5;" x="161.28" xlink:href="#m0012dd4eef" y="388.8"/>
      </g>
     </g>
     <g id="line2d_12">
      <g>
       <use style="stroke:#000000;stroke-linecap:butt;stroke-width:0.5;" x="161.28" xlink:href="#m476344969c" y="43.2"/>
      </g>
     </g>
     <g id="text_3">
      <!-- 200 -->
      <defs>
       <path d="
M19.1875 8.29688
L53.6094 8.29688
L53.6094 0
L7.32812 0
L7.32812 8.29688
Q12.9375 14.1094 22.625 23.8906
Q32.3281 33.6875 34.8125 36.5312
Q39.5469 41.8438 41.4219 45.5312
Q43.3125 49.2188 43.3125 52.7812
Q43.3125 58.5938 39.2344 62.25
Q35.1562 65.9219 28.6094 65.9219
Q23.9688 65.9219 18.8125 64.3125
Q13.6719 62.7031 7.8125 59.4219
L7.8125 69.3906
Q13.7656 71.7812 18.9375 73
Q24.125 74.2188 28.4219 74.2188
Q39.75 74.2188 46.4844 68.5469
Q53.2188 62.8906 53.2188 53.4219
Q53.2188 48.9219 51.5312 44.8906
Q49.8594 40.875 45.4062 35.4062
Q44.1875 33.9844 37.6406 27.2188
Q31.1094 20.4531 19.1875 8.29688" id="BitstreamVeraSans-Roman-32"/>
      </defs>
      <g transform="translate(150.665625 401.70625)scale(0.12 -0.12)">
       <use xlink:href="#BitstreamVeraSans-Roman-32"/>
       <use x="63.623046875" xlink:href="#BitstreamVeraSans-Roman-30"/>
       <use x="127.24609375" xlink:href="#BitstreamVeraSans-Roman-30"/>
      </g>
     </g>
    </g>
    <g id="xtick_4">
     <g id="line2d_13">
      <path clip-path="url(#p7ff5b81e1d)" d="
M205.92 388.8
L205.92 43.2" style="fill:none;stroke:#000000;stroke-dasharray:1.000000,3.000000;stroke-dashoffset:0.0;stroke-linecap:butt;stroke-width:0.5;"/>
     </g>
     <g id="line2d_14">
      <g>
       <use style="stroke:#000000;stroke-linecap:butt;stroke-width:0.5;" x="205.92" xlink:href="#m0012dd4eef" y="388.8"/>
      </g>
     </g>
     <g id="line2d_15">
      <g>
       <use style="stroke:#000000;stroke-linecap:butt;stroke-width:0.5;" x="205.92" xlink:href="#m476344969c" y="43.2"/>
      </g>
     </g>
     <g id="text_4">
      <!-- 300 -->
      <defs>
       <path d="
M40.5781 39.3125
Q47.6562 37.7969 51.625 33
Q55.6094 28.2188 55.6094 21.1875
Q55.6094 10.4062 48.1875 4.48438
Q40.7656 -1.42188 27.0938 -1.42188
Q22.5156 -1.42188 17.6562 -0.515625
Q12.7969 0.390625 7.625 2.20312
L7.625 11.7188
Q11.7188 9.32812 16.5938 8.10938
Q21.4844 6.89062 26.8125 6.89062
Q36.0781 6.89062 40.9375 10.5469
Q45.7969 14.2031 45.7969 21.1875
Q45.7969 27.6406 41.2812 31.2656
Q36.7656 34.9062 28.7188 34.9062
L20.2188 34.9062
L20.2188 43.0156
L29.1094 43.0156
Q36.375 43.0156 40.2344 45.9219
Q44.0938 48.8281 44.0938 54.2969
Q44.0938 59.9062 40.1094 62.9062
Q36.1406 65.9219 28.7188 65.9219
Q24.6562 65.9219 20.0156 65.0312
Q15.375 64.1562 9.8125 62.3125
L9.8125 71.0938
Q15.4375 72.6562 20.3438 73.4375
Q25.25 74.2188 29.5938 74.2188
Q40.8281 74.2188 47.3594 69.1094
Q53.9062 64.0156 53.9062 55.3281
Q53.9062 49.2656 50.4375 45.0938
Q46.9688 40.9219 40.5781 39.3125" id="BitstreamVeraSans-Roman-33"/>
      </defs>
      <g transform="translate(195.3234375 401.70625)scale(0.12 -0.12)">
       <use xlink:href="#BitstreamVeraSans-Roman-33"/>
       <use x="63.623046875" xlink:href="#BitstreamVeraSans-Roman-30"/>
       <use x="127.24609375" xlink:href="#BitstreamVeraSans-Roman-30"/>
      </g>
     </g>
    </g>
    <g id="xtick_5">
     <g id="line2d_16">
      <path clip-path="url(#p7ff5b81e1d)" d="
M250.56 388.8
L250.56 43.2" style="fill:none;stroke:#000000;stroke-dasharray:1.000000,3.000000;stroke-dashoffset:0.0;stroke-linecap:butt;stroke-width:0.5;"/>
     </g>
     <g id="line2d_17">
      <g>
       <use style="stroke:#000000;stroke-linecap:butt;stroke-width:0.5;" x="250.56" xlink:href="#m0012dd4eef" y="388.8"/>
      </g>
     </g>
     <g id="line2d_18">
      <g>
       <use style="stroke:#000000;stroke-linecap:butt;stroke-width:0.5;" x="250.56" xlink:href="#m476344969c" y="43.2"/>
      </g>
     </g>
     <g id="text_5">
      <!-- 400 -->
      <defs>
       <path d="
M37.7969 64.3125
L12.8906 25.3906
L37.7969 25.3906
z

M35.2031 72.9062
L47.6094 72.9062
L47.6094 25.3906
L58.0156 25.3906
L58.0156 17.1875
L47.6094 17.1875
L47.6094 0
L37.7969 0
L37.7969 17.1875
L4.89062 17.1875
L4.89062 26.7031
z
" id="BitstreamVeraSans-Roman-34"/>
      </defs>
      <g transform="translate(239.799375 401.70625)scale(0.12 -0.12)">
       <use xlink:href="#BitstreamVeraSans-Roman-34"/>
       <use x="63.623046875" xlink:href="#BitstreamVeraSans-Roman-30"/>
       <use x="127.24609375" xlink:href="#BitstreamVeraSans-Roman-30"/>
      </g>
     </g>
    </g>
    <g id="xtick_6">
     <g id="line2d_19">
      <path clip-path="url(#p7ff5b81e1d)" d="
M295.2 388.8
L295.2 43.2" style="fill:none;stroke:#000000;stroke-dasharray:1.000000,3.000000;stroke-dashoffset:0.0;stroke-linecap:butt;stroke-width:0.5;"/>
     </g>
     <g id="line2d_20">
      <g>
       <use style="stroke:#000000;stroke-linecap:butt;stroke-width:0.5;" x="295.2" xlink:href="#m0012dd4eef" y="388.8"/>
      </g>
     </g>
     <g id="line2d_21">
      <g>
       <use style="stroke:#000000;stroke-linecap:butt;stroke-width:0.5;" x="295.2" xlink:href="#m476344969c" y="43.2"/>
      </g>
     </g>
     <g id="text_6">
      <!-- 500 -->
      <defs>
       <path d="
M10.7969 72.9062
L49.5156 72.9062
L49.5156 64.5938
L19.8281 64.5938
L19.8281 46.7344
Q21.9688 47.4688 24.1094 47.8281
Q26.2656 48.1875 28.4219 48.1875
Q40.625 48.1875 47.75 41.5
Q54.8906 34.8125 54.8906 23.3906
Q54.8906 11.625 47.5625 5.09375
Q40.2344 -1.42188 26.9062 -1.42188
Q22.3125 -1.42188 17.5469 -0.640625
Q12.7969 0.140625 7.71875 1.70312
L7.71875 11.625
Q12.1094 9.23438 16.7969 8.0625
Q21.4844 6.89062 26.7031 6.89062
Q35.1562 6.89062 40.0781 11.3281
Q45.0156 15.7656 45.0156 23.3906
Q45.0156 31 40.0781 35.4375
Q35.1562 39.8906 26.7031 39.8906
Q22.75 39.8906 18.8125 39.0156
Q14.8906 38.1406 10.7969 36.2812
z
" id="BitstreamVeraSans-Roman-35"/>
      </defs>
      <g transform="translate(284.6090625 401.70625)scale(0.12 -0.12)">
       <use xlink:href="#BitstreamVeraSans-Roman-35"/>
       <use x="63.623046875" xlink:href="#BitstreamVeraSans-Roman-30"/>
       <use x="127.24609375" xlink:href="#BitstreamVeraSans-Roman-30"/>
      </g>
     </g>
    </g>
    <g id="xtick_7">
     <g id="line2d_22">
      <path clip-path="url(#p7ff5b81e1d)" d="
M339.84 388.8
L339.84 43.2" style="fill:none;stroke:#000000;stroke-dasharray:1.000000,3.000000;stroke-dashoffset:0.0;stroke-linecap:butt;stroke-width:0.5;"/>
     </g>
     <g id="line2d_23">
      <g>
       <use style="stroke:#000000;stroke-linecap:butt;stroke-width:0.5;" x="339.84" xlink:href="#m0012dd4eef" y="388.8"/>
      </g>
     </g>
     <g id="line2d_24">
      <g>
       <use style="stroke:#000000;stroke-linecap:butt;stroke-width:0.5;" x="339.84" xlink:href="#m476344969c" y="43.2"/>
      </g>
     </g>
     <g id="text_7">
      <!-- 600 -->
      <defs>
       <path d="
M33.0156 40.375
Q26.375 40.375 22.4844 35.8281
Q18.6094 31.2969 18.6094 23.3906
Q18.6094 15.5312 22.4844 10.9531
Q26.375 6.39062 33.0156 6.39062
Q39.6562 6.39062 43.5312 10.9531
Q47.4062 15.5312 47.4062 23.3906
Q47.4062 31.2969 43.5312 35.8281
Q39.6562 40.375 33.0156 40.375
M52.5938 71.2969
L52.5938 62.3125
Q48.875 64.0625 45.0938 64.9844
Q41.3125 65.9219 37.5938 65.9219
Q27.8281 65.9219 22.6719 59.3281
Q17.5312 52.7344 16.7969 39.4062
Q19.6719 43.6562 24.0156 45.9219
Q28.375 48.1875 33.5938 48.1875
Q44.5781 48.1875 50.9531 41.5156
Q57.3281 34.8594 57.3281 23.3906
Q57.3281 12.1562 50.6875 5.35938
Q44.0469 -1.42188 33.0156 -1.42188
Q20.3594 -1.42188 13.6719 8.26562
Q6.98438 17.9688 6.98438 36.375
Q6.98438 53.6562 15.1875 63.9375
Q23.3906 74.2188 37.2031 74.2188
Q40.9219 74.2188 44.7031 73.4844
Q48.4844 72.75 52.5938 71.2969" id="BitstreamVeraSans-Roman-36"/>
      </defs>
      <g transform="translate(329.205 401.70625)scale(0.12 -0.12)">
       <use xlink:href="#BitstreamVeraSans-Roman-36"/>
       <use x="63.623046875" xlink:href="#BitstreamVeraSans-Roman-30"/>
       <use x="127.24609375" xlink:href="#BitstreamVeraSans-Roman-30"/>
      </g>
     </g>
    </g>
    <g id="xtick_8">
     <g id="line2d_25">
      <path clip-path="url(#p7ff5b81e1d)" d="
M384.48 388.8
L384.48 43.2" style="fill:none;stroke:#000000;stroke-dasharray:1.000000,3.000000;stroke-dashoffset:0.0;stroke-linecap:butt;stroke-width:0.5;"/>
     </g>
     <g id="line2d_26">
      <g>
       <use style="stroke:#000000;stroke-linecap:butt;stroke-width:0.5;" x="384.48" xlink:href="#m0012dd4eef" y="388.8"/>
      </g>
     </g>
     <g id="line2d_27">
      <g>
       <use style="stroke:#000000;stroke-linecap:butt;stroke-width:0.5;" x="384.48" xlink:href="#m476344969c" y="43.2"/>
      </g>
     </g>
     <g id="text_8">
      <!-- 700 -->
      <defs>
       <path d="
M8.20312 72.9062
L55.0781 72.9062
L55.0781 68.7031
L28.6094 0
L18.3125 0
L43.2188 64.5938
L8.20312 64.5938
z
" id="BitstreamVeraSans-Roman-37"/>
      </defs>
      <g transform="translate(373.918125 401.70625)scale(0.12 -0.12)">
       <use xlink:href="#BitstreamVeraSans-Roman-37"/>
       <use x="63.623046875" xlink:href="#BitstreamVeraSans-Roman-30"/>
       <use x="127.24609375" xlink:href="#BitstreamVeraSans-Roman-30"/>
      </g>
     </g>
    </g>
    <g id="xtick_9">
     <g id="line2d_28">
      <path clip-path="url(#p7ff5b81e1d)" d="
M429.12 388.8
L429.12 43.2" style="fill:none;stroke:#000000;stroke-dasharray:1.000000,3.000000;stroke-dashoffset:0.0;stroke-linecap:butt;stroke-width:0.5;"/>
     </g>
     <g id="line2d_29">
      <g>
       <use style="stroke:#000000;stroke-linecap:butt;stroke-width:0.5;" x="429.12" xlink:href="#m0012dd4eef" y="388.8"/>
      </g>
     </g>
     <g id="line2d_30">
      <g>
       <use style="stroke:#000000;stroke-linecap:butt;stroke-width:0.5;" x="429.12" xlink:href="#m476344969c" y="43.2"/>
      </g>
     </g>
     <g id="text_9">
      <!-- 800 -->
      <defs>
       <path d="
M31.7812 34.625
Q24.75 34.625 20.7188 30.8594
Q16.7031 27.0938 16.7031 20.5156
Q16.7031 13.9219 20.7188 10.1562
Q24.75 6.39062 31.7812 6.39062
Q38.8125 6.39062 42.8594 10.1719
Q46.9219 13.9688 46.9219 20.5156
Q46.9219 27.0938 42.8906 30.8594
Q38.875 34.625 31.7812 34.625
M21.9219 38.8125
Q15.5781 40.375 12.0312 44.7188
Q8.5 49.0781 8.5 55.3281
Q8.5 64.0625 14.7188 69.1406
Q20.9531 74.2188 31.7812 74.2188
Q42.6719 74.2188 48.875 69.1406
Q55.0781 64.0625 55.0781 55.3281
Q55.0781 49.0781 51.5312 44.7188
Q48 40.375 41.7031 38.8125
Q48.8281 37.1562 52.7969 32.3125
Q56.7812 27.4844 56.7812 20.5156
Q56.7812 9.90625 50.3125 4.23438
Q43.8438 -1.42188 31.7812 -1.42188
Q19.7344 -1.42188 13.25 4.23438
Q6.78125 9.90625 6.78125 20.5156
Q6.78125 27.4844 10.7812 32.3125
Q14.7969 37.1562 21.9219 38.8125
M18.3125 54.3906
Q18.3125 48.7344 21.8438 45.5625
Q25.3906 42.3906 31.7812 42.3906
Q38.1406 42.3906 41.7188 45.5625
Q45.3125 48.7344 45.3125 54.3906
Q45.3125 60.0625 41.7188 63.2344
Q38.1406 66.4062 31.7812 66.4062
Q25.3906 66.4062 21.8438 63.2344
Q18.3125 60.0625 18.3125 54.3906" id="BitstreamVeraSans-Roman-38"/>
      </defs>
      <g transform="translate(418.4728125 401.70625)scale(0.12 -0.12)">
       <use xlink:href="#BitstreamVeraSans-Roman-38"/>
       <use x="63.623046875" xlink:href="#BitstreamVeraSans-Roman-30"/>
       <use x="127.24609375" xlink:href="#BitstreamVeraSans-Roman-30"/>
      </g>
     </g>
    </g>
    <g id="xtick_10">
     <g id="line2d_31">
      <path clip-path="url(#p7ff5b81e1d)" d="
M473.76 388.8
L473.76 43.2" style="fill:none;stroke:#000000;stroke-dasharray:1.000000,3.000000;stroke-dashoffset:0.0;stroke-linecap:butt;stroke-width:0.5;"/>
     </g>
     <g id="line2d_32">
      <g>
       <use style="stroke:#000000;stroke-linecap:butt;stroke-width:0.5;" x="473.76" xlink:href="#m0012dd4eef" y="388.8"/>
      </g>
     </g>
     <g id="line2d_33">
      <g>
       <use style="stroke:#000000;stroke-linecap:butt;stroke-width:0.5;" x="473.76" xlink:href="#m476344969c" y="43.2"/>
      </g>
     </g>
     <g id="text_10">
      <!-- 900 -->
      <defs>
       <path d="
M10.9844 1.51562
L10.9844 10.5
Q14.7031 8.73438 18.5 7.8125
Q22.3125 6.89062 25.9844 6.89062
Q35.75 6.89062 40.8906 13.4531
Q46.0469 20.0156 46.7812 33.4062
Q43.9531 29.2031 39.5938 26.9531
Q35.25 24.7031 29.9844 24.7031
Q19.0469 24.7031 12.6719 31.3125
Q6.29688 37.9375 6.29688 49.4219
Q6.29688 60.6406 12.9375 67.4219
Q19.5781 74.2188 30.6094 74.2188
Q43.2656 74.2188 49.9219 64.5156
Q56.5938 54.8281 56.5938 36.375
Q56.5938 19.1406 48.4062 8.85938
Q40.2344 -1.42188 26.4219 -1.42188
Q22.7031 -1.42188 18.8906 -0.6875
Q15.0938 0.046875 10.9844 1.51562
M30.6094 32.4219
Q37.25 32.4219 41.125 36.9531
Q45.0156 41.5 45.0156 49.4219
Q45.0156 57.2812 41.125 61.8438
Q37.25 66.4062 30.6094 66.4062
Q23.9688 66.4062 20.0938 61.8438
Q16.2188 57.2812 16.2188 49.4219
Q16.2188 41.5 20.0938 36.9531
Q23.9688 32.4219 30.6094 32.4219" id="BitstreamVeraSans-Roman-39"/>
      </defs>
      <g transform="translate(463.08375 401.70625)scale(0.12 -0.12)">
       <use xlink:href="#BitstreamVeraSans-Roman-39"/>
       <use x="63.623046875" xlink:href="#BitstreamVeraSans-Roman-30"/>
       <use x="127.24609375" xlink:href="#BitstreamVeraSans-Roman-30"/>
      </g>
     </g>
    </g>
   </g>
   <g id="matplotlib.axis_2">
    <g id="ytick_1">
     <g id="line2d_34">
      <path clip-path="url(#p7ff5b81e1d)" d="
M72 388.8
L518.4 388.8" style="fill:none;stroke:#000000;stroke-dasharray:1.000000,3.000000;stroke-dashoffset:0.0;stroke-linecap:butt;stroke-width:0.5;"/>
     </g>
     <g id="line2d_35">
      <defs>
       <path d="
M0 0
L4 0" id="me8a85f7bf6" style="stroke:#000000;stroke-linecap:butt;stroke-width:0.5;"/>
      </defs>
      <g>
       <use style="stroke:#000000;stroke-linecap:butt;stroke-width:0.5;" x="72.0" xlink:href="#me8a85f7bf6" y="388.8"/>
      </g>
     </g>
     <g id="line2d_36">
      <defs>
       <path d="
M0 0
L-4 0" id="m1a32005dea" style="stroke:#000000;stroke-linecap:butt;stroke-width:0.5;"/>
      </defs>
      <g>
       <use style="stroke:#000000;stroke-linecap:butt;stroke-width:0.5;" x="518.4" xlink:href="#m1a32005dea" y="388.8"/>
      </g>
     </g>
     <g id="text_11">
      <!-- 0.000 -->
      <defs>
       <path d="
M10.6875 12.4062
L21 12.4062
L21 0
L10.6875 0
z
" id="BitstreamVeraSans-Roman-2e"/>
      </defs>
      <g transform="translate(35.234375 393.1678125)scale(0.12 -0.12)">
       <use xlink:href="#BitstreamVeraSans-Roman-30"/>
       <use x="63.623046875" xlink:href="#BitstreamVeraSans-Roman-2e"/>
       <use x="95.41015625" xlink:href="#BitstreamVeraSans-Roman-30"/>
       <use x="159.033203125" xlink:href="#BitstreamVeraSans-Roman-30"/>
       <use x="222.65625" xlink:href="#BitstreamVeraSans-Roman-30"/>
      </g>
     </g>
    </g>
    <g id="ytick_2">
     <g id="line2d_37">
      <path clip-path="url(#p7ff5b81e1d)" d="
M72 354.24
L518.4 354.24" style="fill:none;stroke:#000000;stroke-dasharray:1.000000,3.000000;stroke-dashoffset:0.0;stroke-linecap:butt;stroke-width:0.5;"/>
     </g>
     <g id="line2d_38">
      <g>
       <use style="stroke:#000000;stroke-linecap:butt;stroke-width:0.5;" x="72.0" xlink:href="#me8a85f7bf6" y="354.24"/>
      </g>
     </g>
     <g id="line2d_39">
      <g>
       <use style="stroke:#000000;stroke-linecap:butt;stroke-width:0.5;" x="518.4" xlink:href="#m1a32005dea" y="354.24"/>
      </g>
     </g>
     <g id="text_12">
      <!-- 0.002 -->
      <g transform="translate(35.639375 358.6078125)scale(0.12 -0.12)">
       <use xlink:href="#BitstreamVeraSans-Roman-30"/>
       <use x="63.623046875" xlink:href="#BitstreamVeraSans-Roman-2e"/>
       <use x="95.41015625" xlink:href="#BitstreamVeraSans-Roman-30"/>
       <use x="159.033203125" xlink:href="#BitstreamVeraSans-Roman-30"/>
       <use x="222.65625" xlink:href="#BitstreamVeraSans-Roman-32"/>
      </g>
     </g>
    </g>
    <g id="ytick_3">
     <g id="line2d_40">
      <path clip-path="url(#p7ff5b81e1d)" d="
M72 319.68
L518.4 319.68" style="fill:none;stroke:#000000;stroke-dasharray:1.000000,3.000000;stroke-dashoffset:0.0;stroke-linecap:butt;stroke-width:0.5;"/>
     </g>
     <g id="line2d_41">
      <g>
       <use style="stroke:#000000;stroke-linecap:butt;stroke-width:0.5;" x="72.0" xlink:href="#me8a85f7bf6" y="319.68"/>
      </g>
     </g>
     <g id="line2d_42">
      <g>
       <use style="stroke:#000000;stroke-linecap:butt;stroke-width:0.5;" x="518.4" xlink:href="#m1a32005dea" y="319.68"/>
      </g>
     </g>
     <g id="text_13">
      <!-- 0.004 -->
      <g transform="translate(35.110625 324.0478125)scale(0.12 -0.12)">
       <use xlink:href="#BitstreamVeraSans-Roman-30"/>
       <use x="63.623046875" xlink:href="#BitstreamVeraSans-Roman-2e"/>
       <use x="95.41015625" xlink:href="#BitstreamVeraSans-Roman-30"/>
       <use x="159.033203125" xlink:href="#BitstreamVeraSans-Roman-30"/>
       <use x="222.65625" xlink:href="#BitstreamVeraSans-Roman-34"/>
      </g>
     </g>
    </g>
    <g id="ytick_4">
     <g id="line2d_43">
      <path clip-path="url(#p7ff5b81e1d)" d="
M72 285.12
L518.4 285.12" style="fill:none;stroke:#000000;stroke-dasharray:1.000000,3.000000;stroke-dashoffset:0.0;stroke-linecap:butt;stroke-width:0.5;"/>
     </g>
     <g id="line2d_44">
      <g>
       <use style="stroke:#000000;stroke-linecap:butt;stroke-width:0.5;" x="72.0" xlink:href="#me8a85f7bf6" y="285.12"/>
      </g>
     </g>
     <g id="line2d_45">
      <g>
       <use style="stroke:#000000;stroke-linecap:butt;stroke-width:0.5;" x="518.4" xlink:href="#m1a32005dea" y="285.12"/>
      </g>
     </g>
     <g id="text_14">
      <!-- 0.006 -->
      <g transform="translate(35.193125 289.4878125)scale(0.12 -0.12)">
       <use xlink:href="#BitstreamVeraSans-Roman-30"/>
       <use x="63.623046875" xlink:href="#BitstreamVeraSans-Roman-2e"/>
       <use x="95.41015625" xlink:href="#BitstreamVeraSans-Roman-30"/>
       <use x="159.033203125" xlink:href="#BitstreamVeraSans-Roman-30"/>
       <use x="222.65625" xlink:href="#BitstreamVeraSans-Roman-36"/>
      </g>
     </g>
    </g>
    <g id="ytick_5">
     <g id="line2d_46">
      <path clip-path="url(#p7ff5b81e1d)" d="
M72 250.56
L518.4 250.56" style="fill:none;stroke:#000000;stroke-dasharray:1.000000,3.000000;stroke-dashoffset:0.0;stroke-linecap:butt;stroke-width:0.5;"/>
     </g>
     <g id="line2d_47">
      <g>
       <use style="stroke:#000000;stroke-linecap:butt;stroke-width:0.5;" x="72.0" xlink:href="#me8a85f7bf6" y="250.56"/>
      </g>
     </g>
     <g id="line2d_48">
      <g>
       <use style="stroke:#000000;stroke-linecap:butt;stroke-width:0.5;" x="518.4" xlink:href="#m1a32005dea" y="250.56"/>
      </g>
     </g>
     <g id="text_15">
      <!-- 0.008 -->
      <g transform="translate(35.25875 254.9278125)scale(0.12 -0.12)">
       <use xlink:href="#BitstreamVeraSans-Roman-30"/>
       <use x="63.623046875" xlink:href="#BitstreamVeraSans-Roman-2e"/>
       <use x="95.41015625" xlink:href="#BitstreamVeraSans-Roman-30"/>
       <use x="159.033203125" xlink:href="#BitstreamVeraSans-Roman-30"/>
       <use x="222.65625" xlink:href="#BitstreamVeraSans-Roman-38"/>
      </g>
     </g>
    </g>
    <g id="ytick_6">
     <g id="line2d_49">
      <path clip-path="url(#p7ff5b81e1d)" d="
M72 216
L518.4 216" style="fill:none;stroke:#000000;stroke-dasharray:1.000000,3.000000;stroke-dashoffset:0.0;stroke-linecap:butt;stroke-width:0.5;"/>
     </g>
     <g id="line2d_50">
      <g>
       <use style="stroke:#000000;stroke-linecap:butt;stroke-width:0.5;" x="72.0" xlink:href="#me8a85f7bf6" y="216.0"/>
      </g>
     </g>
     <g id="line2d_51">
      <g>
       <use style="stroke:#000000;stroke-linecap:butt;stroke-width:0.5;" x="518.4" xlink:href="#m1a32005dea" y="216.0"/>
      </g>
     </g>
     <g id="text_16">
      <!-- 0.010 -->
      <g transform="translate(35.234375 220.3678125)scale(0.12 -0.12)">
       <use xlink:href="#BitstreamVeraSans-Roman-30"/>
       <use x="63.623046875" xlink:href="#BitstreamVeraSans-Roman-2e"/>
       <use x="95.41015625" xlink:href="#BitstreamVeraSans-Roman-30"/>
       <use x="159.033203125" xlink:href="#BitstreamVeraSans-Roman-31"/>
       <use x="222.65625" xlink:href="#BitstreamVeraSans-Roman-30"/>
      </g>
     </g>
    </g>
    <g id="ytick_7">
     <g id="line2d_52">
      <path clip-path="url(#p7ff5b81e1d)" d="
M72 181.44
L518.4 181.44" style="fill:none;stroke:#000000;stroke-dasharray:1.000000,3.000000;stroke-dashoffset:0.0;stroke-linecap:butt;stroke-width:0.5;"/>
     </g>
     <g id="line2d_53">
      <g>
       <use style="stroke:#000000;stroke-linecap:butt;stroke-width:0.5;" x="72.0" xlink:href="#me8a85f7bf6" y="181.44"/>
      </g>
     </g>
     <g id="line2d_54">
      <g>
       <use style="stroke:#000000;stroke-linecap:butt;stroke-width:0.5;" x="518.4" xlink:href="#m1a32005dea" y="181.44"/>
      </g>
     </g>
     <g id="text_17">
      <!-- 0.012 -->
      <g transform="translate(35.639375 185.8078125)scale(0.12 -0.12)">
       <use xlink:href="#BitstreamVeraSans-Roman-30"/>
       <use x="63.623046875" xlink:href="#BitstreamVeraSans-Roman-2e"/>
       <use x="95.41015625" xlink:href="#BitstreamVeraSans-Roman-30"/>
       <use x="159.033203125" xlink:href="#BitstreamVeraSans-Roman-31"/>
       <use x="222.65625" xlink:href="#BitstreamVeraSans-Roman-32"/>
      </g>
     </g>
    </g>
    <g id="ytick_8">
     <g id="line2d_55">
      <path clip-path="url(#p7ff5b81e1d)" d="
M72 146.88
L518.4 146.88" style="fill:none;stroke:#000000;stroke-dasharray:1.000000,3.000000;stroke-dashoffset:0.0;stroke-linecap:butt;stroke-width:0.5;"/>
     </g>
     <g id="line2d_56">
      <g>
       <use style="stroke:#000000;stroke-linecap:butt;stroke-width:0.5;" x="72.0" xlink:href="#me8a85f7bf6" y="146.88"/>
      </g>
     </g>
     <g id="line2d_57">
      <g>
       <use style="stroke:#000000;stroke-linecap:butt;stroke-width:0.5;" x="518.4" xlink:href="#m1a32005dea" y="146.88"/>
      </g>
     </g>
     <g id="text_18">
      <!-- 0.014 -->
      <g transform="translate(35.110625 151.2478125)scale(0.12 -0.12)">
       <use xlink:href="#BitstreamVeraSans-Roman-30"/>
       <use x="63.623046875" xlink:href="#BitstreamVeraSans-Roman-2e"/>
       <use x="95.41015625" xlink:href="#BitstreamVeraSans-Roman-30"/>
       <use x="159.033203125" xlink:href="#BitstreamVeraSans-Roman-31"/>
       <use x="222.65625" xlink:href="#BitstreamVeraSans-Roman-34"/>
      </g>
     </g>
    </g>
    <g id="ytick_9">
     <g id="line2d_58">
      <path clip-path="url(#p7ff5b81e1d)" d="
M72 112.32
L518.4 112.32" style="fill:none;stroke:#000000;stroke-dasharray:1.000000,3.000000;stroke-dashoffset:0.0;stroke-linecap:butt;stroke-width:0.5;"/>
     </g>
     <g id="line2d_59">
      <g>
       <use style="stroke:#000000;stroke-linecap:butt;stroke-width:0.5;" x="72.0" xlink:href="#me8a85f7bf6" y="112.32"/>
      </g>
     </g>
     <g id="line2d_60">
      <g>
       <use style="stroke:#000000;stroke-linecap:butt;stroke-width:0.5;" x="518.4" xlink:href="#m1a32005dea" y="112.32"/>
      </g>
     </g>
     <g id="text_19">
      <!-- 0.016 -->
      <g transform="translate(35.193125 116.6878125)scale(0.12 -0.12)">
       <use xlink:href="#BitstreamVeraSans-Roman-30"/>
       <use x="63.623046875" xlink:href="#BitstreamVeraSans-Roman-2e"/>
       <use x="95.41015625" xlink:href="#BitstreamVeraSans-Roman-30"/>
       <use x="159.033203125" xlink:href="#BitstreamVeraSans-Roman-31"/>
       <use x="222.65625" xlink:href="#BitstreamVeraSans-Roman-36"/>
      </g>
     </g>
    </g>
    <g id="ytick_10">
     <g id="line2d_61">
      <path clip-path="url(#p7ff5b81e1d)" d="
M72 77.76
L518.4 77.76" style="fill:none;stroke:#000000;stroke-dasharray:1.000000,3.000000;stroke-dashoffset:0.0;stroke-linecap:butt;stroke-width:0.5;"/>
     </g>
     <g id="line2d_62">
      <g>
       <use style="stroke:#000000;stroke-linecap:butt;stroke-width:0.5;" x="72.0" xlink:href="#me8a85f7bf6" y="77.76"/>
      </g>
     </g>
     <g id="line2d_63">
      <g>
       <use style="stroke:#000000;stroke-linecap:butt;stroke-width:0.5;" x="518.4" xlink:href="#m1a32005dea" y="77.76"/>
      </g>
     </g>
     <g id="text_20">
      <!-- 0.018 -->
      <g transform="translate(35.25875 82.1278125)scale(0.12 -0.12)">
       <use xlink:href="#BitstreamVeraSans-Roman-30"/>
       <use x="63.623046875" xlink:href="#BitstreamVeraSans-Roman-2e"/>
       <use x="95.41015625" xlink:href="#BitstreamVeraSans-Roman-30"/>
       <use x="159.033203125" xlink:href="#BitstreamVeraSans-Roman-31"/>
       <use x="222.65625" xlink:href="#BitstreamVeraSans-Roman-38"/>
      </g>
     </g>
    </g>
    <g id="text_21">
     <!-- Sec/file -->
     <defs>
      <path d="
M9.42188 75.9844
L18.4062 75.9844
L18.4062 0
L9.42188 0
z
" id="BitstreamVeraSans-Roman-6c"/>
      <path d="
M53.5156 70.5156
L53.5156 60.8906
Q47.9062 63.5781 42.9219 64.8906
Q37.9375 66.2188 33.2969 66.2188
Q25.25 66.2188 20.875 63.0938
Q16.5 59.9688 16.5 54.2031
Q16.5 49.3594 19.4062 46.8906
Q22.3125 44.4375 30.4219 42.9219
L36.375 41.7031
Q47.4062 39.5938 52.6562 34.2969
Q57.9062 29 57.9062 20.125
Q57.9062 9.51562 50.7969 4.04688
Q43.7031 -1.42188 29.9844 -1.42188
Q24.8125 -1.42188 18.9688 -0.25
Q13.1406 0.921875 6.89062 3.21875
L6.89062 13.375
Q12.8906 10.0156 18.6562 8.29688
Q24.4219 6.59375 29.9844 6.59375
Q38.4219 6.59375 43.0156 9.90625
Q47.6094 13.2344 47.6094 19.3906
Q47.6094 24.75 44.3125 27.7812
Q41.0156 30.8125 33.5 32.3281
L27.4844 33.5
Q16.4531 35.6875 11.5156 40.375
Q6.59375 45.0625 6.59375 53.4219
Q6.59375 63.0938 13.4062 68.6562
Q20.2188 74.2188 32.1719 74.2188
Q37.3125 74.2188 42.625 73.2812
Q47.9531 72.3594 53.5156 70.5156" id="BitstreamVeraSans-Roman-53"/>
      <path d="
M9.42188 54.6875
L18.4062 54.6875
L18.4062 0
L9.42188 0
z

M9.42188 75.9844
L18.4062 75.9844
L18.4062 64.5938
L9.42188 64.5938
z
" id="BitstreamVeraSans-Roman-69"/>
      <path d="
M25.3906 72.9062
L33.6875 72.9062
L8.29688 -9.28125
L0 -9.28125
z
" id="BitstreamVeraSans-Roman-2f"/>
      <path d="
M56.2031 29.5938
L56.2031 25.2031
L14.8906 25.2031
Q15.4844 15.9219 20.4844 11.0625
Q25.4844 6.20312 34.4219 6.20312
Q39.5938 6.20312 44.4531 7.46875
Q49.3125 8.73438 54.1094 11.2812
L54.1094 2.78125
Q49.2656 0.734375 44.1875 -0.34375
Q39.1094 -1.42188 33.8906 -1.42188
Q20.7969 -1.42188 13.1562 6.1875
Q5.51562 13.8125 5.51562 26.8125
Q5.51562 40.2344 12.7656 48.1094
Q20.0156 56 32.3281 56
Q43.3594 56 49.7812 48.8906
Q56.2031 41.7969 56.2031 29.5938
M47.2188 32.2344
Q47.125 39.5938 43.0938 43.9844
Q39.0625 48.3906 32.4219 48.3906
Q24.9062 48.3906 20.3906 44.1406
Q15.875 39.8906 15.1875 32.1719
z
" id="BitstreamVeraSans-Roman-65"/>
      <path d="
M37.1094 75.9844
L37.1094 68.5
L28.5156 68.5
Q23.6875 68.5 21.7969 66.5469
Q19.9219 64.5938 19.9219 59.5156
L19.9219 54.6875
L34.7188 54.6875
L34.7188 47.7031
L19.9219 47.7031
L19.9219 0
L10.8906 0
L10.8906 47.7031
L2.29688 47.7031
L2.29688 54.6875
L10.8906 54.6875
L10.8906 58.5
Q10.8906 67.625 15.1406 71.7969
Q19.3906 75.9844 28.6094 75.9844
z
" id="BitstreamVeraSans-Roman-66"/>
      <path d="
M48.7812 52.5938
L48.7812 44.1875
Q44.9688 46.2969 41.1406 47.3438
Q37.3125 48.3906 33.4062 48.3906
Q24.6562 48.3906 19.8125 42.8438
Q14.9844 37.3125 14.9844 27.2969
Q14.9844 17.2812 19.8125 11.7344
Q24.6562 6.20312 33.4062 6.20312
Q37.3125 6.20312 41.1406 7.25
Q44.9688 8.29688 48.7812 10.4062
L48.7812 2.09375
Q45.0156 0.34375 40.9844 -0.53125
Q36.9688 -1.42188 32.4219 -1.42188
Q20.0625 -1.42188 12.7812 6.34375
Q5.51562 14.1094 5.51562 27.2969
Q5.51562 40.6719 12.8594 48.3281
Q20.2188 56 33.0156 56
Q37.1562 56 41.1094 55.1406
Q45.0625 54.2969 48.7812 52.5938" id="BitstreamVeraSans-Roman-63"/>
     </defs>
     <g transform="translate(30.110625 236.13)rotate(-90.0)scale(0.12 -0.12)">
      <use xlink:href="#BitstreamVeraSans-Roman-53"/>
      <use x="63.4765625" xlink:href="#BitstreamVeraSans-Roman-65"/>
      <use x="125.0" xlink:href="#BitstreamVeraSans-Roman-63"/>
      <use x="179.98046875" xlink:href="#BitstreamVeraSans-Roman-2f"/>
      <use x="213.671875" xlink:href="#BitstreamVeraSans-Roman-66"/>
      <use x="248.876953125" xlink:href="#BitstreamVeraSans-Roman-69"/>
      <use x="276.66015625" xlink:href="#BitstreamVeraSans-Roman-6c"/>
      <use x="304.443359375" xlink:href="#BitstreamVeraSans-Roman-65"/>
     </g>
    </g>
   </g>
   <g id="patch_3">
    <path d="
M72 43.2
L518.4 43.2" style="fill:none;stroke:#000000;"/>
   </g>
   <g id="patch_4">
    <path d="
M518.4 388.8
L518.4 43.2" style="fill:none;stroke:#000000;"/>
   </g>
   <g id="patch_5">
    <path d="
M72 388.8
L518.4 388.8" style="fill:none;stroke:#000000;"/>
   </g>
   <g id="patch_6">
    <path d="
M72 388.8
L72 43.2" style="fill:none;stroke:#000000;"/>
   </g>
   <g id="text_22">
    <!-- Seq -->
    <defs>
     <path d="
M14.7969 27.2969
Q14.7969 17.3906 18.875 11.75
Q22.9531 6.10938 30.0781 6.10938
Q37.2031 6.10938 41.2969 11.75
Q45.4062 17.3906 45.4062 27.2969
Q45.4062 37.2031 41.2969 42.8438
Q37.2031 48.4844 30.0781 48.4844
Q22.9531 48.4844 18.875 42.8438
Q14.7969 37.2031 14.7969 27.2969
M45.4062 8.20312
Q42.5781 3.32812 38.25 0.953125
Q33.9375 -1.42188 27.875 -1.42188
Q17.9688 -1.42188 11.7344 6.48438
Q5.51562 14.4062 5.51562 27.2969
Q5.51562 40.1875 11.7344 48.0938
Q17.9688 56 27.875 56
Q33.9375 56 38.25 53.625
Q42.5781 51.2656 45.4062 46.3906
L45.4062 54.6875
L54.3906 54.6875
L54.3906 -20.7969
L45.4062 -20.7969
z
" id="BitstreamVeraSans-Roman-71"/>
    </defs>
    <g transform="translate(282.7575 38.2)scale(0.144 -0.144)">
     <use xlink:href="#BitstreamVeraSans-Roman-53"/>
     <use x="63.4765625" xlink:href="#BitstreamVeraSans-Roman-65"/>
     <use x="125.0" xlink:href="#BitstreamVeraSans-Roman-71"/>
    </g>
   </g>
   <g id="legend_1">
    <g id="patch_7">
     <path d="
M429.055 115.339
L511.2 115.339
L511.2 50.4
L429.055 50.4
L429.055 115.339
z
" style="fill:#ffffff;stroke:#000000;"/>
    </g>
    <g id="line2d_64">
     <path d="
M439.135 62.0617
L459.295 62.0617" style="fill:none;stroke:#ff0000;"/>
    </g>
    <g id="line2d_65"/>
    <g id="text_23">
     <!-- LRU -->
     <defs>
      <path d="
M44.3906 34.1875
Q47.5625 33.1094 50.5625 29.5938
Q53.5625 26.0781 56.5938 19.9219
L66.6094 0
L56 0
L46.6875 18.7031
Q43.0625 26.0312 39.6719 28.4219
Q36.2812 30.8125 30.4219 30.8125
L19.6719 30.8125
L19.6719 0
L9.8125 0
L9.8125 72.9062
L32.0781 72.9062
Q44.5781 72.9062 50.7344 67.6719
Q56.8906 62.4531 56.8906 51.9062
Q56.8906 45.0156 53.6875 40.4688
Q50.4844 35.9375 44.3906 34.1875
M19.6719 64.7969
L19.6719 38.9219
L32.0781 38.9219
Q39.2031 38.9219 42.8438 42.2188
Q46.4844 45.5156 46.4844 51.9062
Q46.4844 58.2969 42.8438 61.5469
Q39.2031 64.7969 32.0781 64.7969
z
" id="BitstreamVeraSans-Roman-52"/>
      <path d="
M9.8125 72.9062
L19.6719 72.9062
L19.6719 8.29688
L55.1719 8.29688
L55.1719 0
L9.8125 0
z
" id="BitstreamVeraSans-Roman-4c"/>
      <path d="
M8.6875 72.9062
L18.6094 72.9062
L18.6094 28.6094
Q18.6094 16.8906 22.8438 11.7344
Q27.0938 6.59375 36.625 6.59375
Q46.0938 6.59375 50.3438 11.7344
Q54.5938 16.8906 54.5938 28.6094
L54.5938 72.9062
L64.5 72.9062
L64.5 27.3906
Q64.5 13.1406 57.4375 5.85938
Q50.3906 -1.42188 36.625 -1.42188
Q22.7969 -1.42188 15.7344 5.85938
Q8.6875 13.1406 8.6875 27.3906
z
" id="BitstreamVeraSans-Roman-55"/>
     </defs>
     <g transform="translate(475.13475 67.10175)scale(0.144 -0.144)">
      <use xlink:href="#BitstreamVeraSans-Roman-4c"/>
      <use x="55.712890625" xlink:href="#BitstreamVeraSans-Roman-52"/>
      <use x="125.1953125" xlink:href="#BitstreamVeraSans-Roman-55"/>
     </g>
    </g>
    <g id="line2d_66">
     <path d="
M439.135 83.1983
L459.295 83.1983" style="fill:none;opacity:0.7;stroke:#008000;"/>
    </g>
    <g id="line2d_67"/>
    <g id="text_24">
     <!-- MRU -->
     <defs>
      <path d="
M9.8125 72.9062
L24.5156 72.9062
L43.1094 23.2969
L61.8125 72.9062
L76.5156 72.9062
L76.5156 0
L66.8906 0
L66.8906 64.0156
L48.0938 14.0156
L38.1875 14.0156
L19.3906 64.0156
L19.3906 0
L9.8125 0
z
" id="BitstreamVeraSans-Roman-4d"/>
     </defs>
     <g transform="translate(475.13475 88.23825)scale(0.144 -0.144)">
      <use xlink:href="#BitstreamVeraSans-Roman-4d"/>
      <use x="86.279296875" xlink:href="#BitstreamVeraSans-Roman-52"/>
      <use x="155.76171875" xlink:href="#BitstreamVeraSans-Roman-55"/>
     </g>
    </g>
    <g id="line2d_68">
     <path d="
M439.135 104.335
L459.295 104.335" style="fill:none;opacity:0.5;stroke:#0000ff;"/>
    </g>
    <g id="line2d_69"/>
    <g id="text_25">
     <!-- FIFO -->
     <defs>
      <path d="
M9.8125 72.9062
L51.7031 72.9062
L51.7031 64.5938
L19.6719 64.5938
L19.6719 43.1094
L48.5781 43.1094
L48.5781 34.8125
L19.6719 34.8125
L19.6719 0
L9.8125 0
z
" id="BitstreamVeraSans-Roman-46"/>
      <path d="
M9.8125 72.9062
L19.6719 72.9062
L19.6719 0
L9.8125 0
z
" id="BitstreamVeraSans-Roman-49"/>
      <path d="
M39.4062 66.2188
Q28.6562 66.2188 22.3281 58.2031
Q16.0156 50.2031 16.0156 36.375
Q16.0156 22.6094 22.3281 14.5938
Q28.6562 6.59375 39.4062 6.59375
Q50.1406 6.59375 56.4219 14.5938
Q62.7031 22.6094 62.7031 36.375
Q62.7031 50.2031 56.4219 58.2031
Q50.1406 66.2188 39.4062 66.2188
M39.4062 74.2188
Q54.7344 74.2188 63.9062 63.9375
Q73.0938 53.6562 73.0938 36.375
Q73.0938 19.1406 63.9062 8.85938
Q54.7344 -1.42188 39.4062 -1.42188
Q24.0312 -1.42188 14.8125 8.82812
Q5.60938 19.0938 5.60938 36.375
Q5.60938 53.6562 14.8125 63.9375
Q24.0312 74.2188 39.4062 74.2188" id="BitstreamVeraSans-Roman-4f"/>
     </defs>
     <g transform="translate(475.13475 109.37475)scale(0.144 -0.144)">
      <use xlink:href="#BitstreamVeraSans-Roman-46"/>
      <use x="57.51953125" xlink:href="#BitstreamVeraSans-Roman-49"/>
      <use x="87.01171875" xlink:href="#BitstreamVeraSans-Roman-46"/>
      <use x="144.53125" xlink:href="#BitstreamVeraSans-Roman-4f"/>
     </g>
    </g>
   </g>
  </g>
 </g>
 <defs>
  <clipPath id="p7ff5b81e1d">
   <rect height="345.6" width="446.4" x="72.0" y="43.2"/>
  </clipPath>
 </defs>
</svg>
