<?xml version="1.0" encoding="utf-8" standalone="no"?>
<!DOCTYPE svg PUBLIC "-//W3C//DTD SVG 1.1//EN"
  "http://www.w3.org/Graphics/SVG/1.1/DTD/svg11.dtd">
<!-- Created with matplotlib (http://matplotlib.sourceforge.net/) -->
<svg height="432pt" version="1.1" viewBox="0 0 576 432" width="576pt" xmlns="http://www.w3.org/2000/svg" xmlns:xlink="http://www.w3.org/1999/xlink">
 <defs>
  <style type="text/css">
*{stroke-linecap:square;stroke-linejoin:round;}
  </style>
 </defs>
 <g id="figure_1">
  <g id="patch_1">
   <path d="
M0 432
L576 432
L576 0
L0 0
z
" style="fill:#ffffff;"/>
  </g>
  <g id="axes_1">
   <g id="patch_2">
    <path d="
M72 388.8
L518.4 388.8
L518.4 43.2
L72 43.2
z
" style="fill:#ffffff;"/>
   </g>
   <g id="line2d_1">
    <path clip-path="url(#p7ff5b81e1d)" d="
M72 263.723
L72.4464 257.99
L72.8928 260.593
L73.3392 258.93
L73.7856 251.419
L74.232 252.682
L74.6784 263.13
L75.1248 263.123
L75.5712 260.79
L76.0176 260.512
L76.464 261.257
L76.9104 252.97
L77.3568 258.186
L77.8032 259.802
L78.2496 253.997
L78.696 249.871
L79.1424 248.936
L79.5888 265.43
L80.0352 257.823
L80.4816 264.989
L80.928 259.822
L81.3744 258.19
L81.8208 252.67
L82.2672 260.444
L82.7136 250.328
L83.16 259.718
L83.6064 264.44
L84.0528 263.569
L84.4992 237.081
L84.9456 227.75
L85.392 260.698
L85.8384 258.135
L86.2848 259.969
L86.7312 261.147
L87.1776 252.967
L87.624 257.477
L88.0704 263.129
L88.5168 251.262
L88.9632 257.688
L89.4096 261.431
L89.856 261.393
L90.3024 259.819
L90.7488 251.303
L91.1952 257.849
L91.6416 261.624
L92.088 257.851
L92.5344 262.477
L92.9808 254.678
L93.4272 259.618
L93.8736 263.26
L94.32 256.368
L94.7664 256.436
L95.2128 259.732
L95.6592 258.148
L96.1056 254.78
L96.552 260.803
L96.9984 259.873
L97.4448 256.114
L97.8912 263.164
L98.3376 252.809
L98.784 261.447
L99.2304 259.663
L99.6768 256.738
L100.123 256.081
L100.57 258.755
L101.016 257.162
L101.462 254.655
L101.909 256.086
L102.355 260.655
L102.802 262.365
L103.248 261.446
L103.694 258.159
L104.141 252.971
L104.587 259.19
L105.034 260.253
L105.48 258.009
L105.926 244.968
L106.373 252.025
L106.819 263.383
L107.266 259.916
L107.712 254.521
L108.158 261.581
L108.605 249.779
L109.051 264.489
L109.498 256.001
L109.944 252.741
L110.39 254.655
L110.837 254.54
L111.283 265.569
L111.73 262.388
L112.176 263.493
L112.622 261.415
L113.069 238.966
L113.962 252.982
L114.408 254.487
L114.854 263.356
L115.301 261.609
L115.747 261.473
L116.194 259.726
L116.64 251.305
L117.086 258.962
L117.533 257.014
L117.979 256.391
L118.426 252.97
L118.872 261.442
L119.318 263.469
L119.765 259.737
L120.211 263.314
L120.658 259.745
L121.104 258.143
L121.55 259.742
L121.997 259.92
L122.443 252.485
L122.89 254.779
L123.336 250.933
L123.782 261.507
L124.229 259.635
L124.675 260.302
L125.122 259.444
L125.568 251.148
L126.014 262.033
L126.461 259.136
L126.907 251.316
L127.354 255.225
L127.8 251.671
L128.246 252.503
L128.693 261.442
L129.139 261.075
L129.586 263.419
L130.032 259.898
L130.478 260.893
L130.925 256.753
L131.371 263.064
L131.818 256.599
L132.264 254.409
L133.157 261.756
L133.603 256.227
L134.05 261.555
L134.496 263.247
L134.942 260.322
L135.389 254.246
L135.835 263.331
L136.282 251.143
L136.728 256.432
L137.174 258.334
L138.067 264.176
L138.514 259.525
L138.96 260.958
L139.406 263.404
L139.853 256.359
L140.299 261.268
L140.746 256.717
L141.192 255.631
L141.638 259.234
L142.085 225.543
L142.531 256.309
L142.978 259.593
L143.424 263.989
L143.87 260.857
L144.317 258.858
L144.763 258.781
L145.21 258.121
L145.656 261.472
L146.102 259.104
L146.549 260.325
L146.995 252.828
L147.442 256.423
L147.888 265.031
L148.781 256.736
L149.227 259.823
L149.674 258.054
L150.12 263.725
L151.013 252.662
L151.906 263.072
L152.352 266.693
L152.798 261.439
L153.245 249.275
L154.138 260.125
L154.584 261.087
L155.03 259.352
L155.477 251.259
L155.923 257.984
L156.37 258.311
L156.816 264.749
L157.262 259.901
L157.709 258.964
L158.155 259.121
L158.602 258.174
L159.048 259.055
L159.494 254.767
L159.941 254.262
L160.387 254.97
L160.834 263.367
L161.28 260.494
L161.726 261.117
L162.173 260.872
L162.619 251.595
L163.066 269.88
L163.512 257.787
L163.958 252.983
L164.405 252.845
L164.851 242.454
L165.298 261.627
L165.744 260.998
L166.19 262.595
L167.083 253.353
L167.53 259.384
L167.976 259.901
L168.869 245.951
L169.315 260.198
L169.762 263.27
L170.208 228.272
L171.101 258.198
L171.547 258.179
L172.44 251.242
L172.886 261.461
L173.333 263.586
L173.779 262.539
L174.226 263.084
L175.118 256.355
L175.565 262.075
L176.011 260.223
L176.458 248.403
L176.904 254.721
L177.35 263.206
L177.797 263.148
L178.69 260.054
L179.136 259.59
L179.582 258.071
L180.029 261.779
L180.475 257.956
L180.922 256.439
L181.368 250.085
L181.814 260.272
L182.261 259.625
L182.707 258.058
L183.154 261.499
L183.6 262.002
L184.046 258.159
L184.493 252.112
L184.939 256.393
L185.386 261.938
L185.832 257.556
L186.278 249.313
L186.725 257.056
L187.171 262.779
L187.618 254.067
L188.51 261.49
L188.957 259.914
L189.403 259.64
L189.85 258.042
L190.296 260.708
L190.742 260.565
L191.189 256.445
L191.635 242.439
L192.082 249.352
L192.528 259.785
L192.974 261.765
L193.421 254.401
L193.867 253.128
L194.314 266.066
L194.76 258.015
L195.206 257.16
L195.653 255.772
L196.099 259.882
L196.546 255.966
L196.992 264.059
L197.438 262.271
L198.331 258.059
L198.778 245.246
L199.224 248.056
L199.67 259.738
L200.117 258.203
L200.563 263.271
L201.01 266.793
L201.456 261.489
L201.902 259.752
L202.349 252.467
L203.242 263.218
L204.134 252.878
L205.027 260.173
L205.474 259.629
L205.92 264.95
L206.366 258.006
L206.813 259.949
L207.259 259.436
L207.706 261.407
L208.152 251.367
L208.598 253.046
L209.045 255.922
L209.491 263.572
L209.938 261.206
L210.384 261.916
L210.83 259.709
L211.277 252.958
L211.723 261.164
L212.17 256.708
L212.616 254.532
L213.062 252.966
L213.509 255.282
L213.955 262.512
L214.402 261.594
L214.848 259.913
L215.294 259.757
L215.741 258.182
L216.187 258.309
L216.634 261.377
L217.526 254.899
L217.973 261.224
L218.419 264.733
L219.312 256.17
L219.758 260.671
L220.205 257.156
L220.651 262.278
L221.098 259.136
L221.544 252.895
L221.99 244.209
L222.437 256.33
L222.883 259.935
L223.33 265.112
L223.776 262.175
L224.222 257.14
L224.669 248.378
L225.115 259.1
L225.562 259.356
L226.008 253.195
L226.454 252.604
L226.901 260.331
L227.347 260.474
L227.794 221.959
L228.24 262.862
L228.686 257.516
L229.133 261.678
L230.026 257.86
L230.918 252.147
L231.365 260.498
L231.811 265.097
L232.258 260.4
L232.704 260.861
L233.15 259.796
L233.597 258.044
L234.043 261.539
L234.49 256.93
L234.936 249.295
L235.829 264.377
L236.275 256.196
L236.722 261.042
L237.168 261.935
L238.061 257.899
L238.507 259.936
L238.954 254.236
L239.4 253.124
L240.739 261.909
L241.186 259.634
L241.632 260.075
L242.078 261.306
L242.525 257.95
L242.971 259.933
L243.418 259.233
L243.864 253.024
L244.31 259.598
L244.757 258.374
L245.203 259.682
L245.65 262.18
L246.096 252.094
L246.542 254.877
L246.989 264.76
L247.882 257.525
L248.328 260.512
L248.774 231.943
L249.221 259.97
L249.667 259.808
L250.56 247.594
L251.006 265.069
L251.453 260.018
L251.899 258.052
L252.346 254.804
L252.792 252.504
L253.238 262.017
L253.685 258.239
L254.131 259.99
L254.578 253.026
L255.47 260.154
L255.917 240.404
L256.363 242.672
L256.81 261.719
L257.256 258.003
L257.702 256.326
L258.149 258.18
L258.595 256.092
L259.042 258.675
L259.488 264.555
L259.934 259.834
L260.381 259.853
L260.827 258.025
L261.274 259.534
L261.72 263.147
L262.613 254.68
L263.059 254.578
L263.506 261.007
L264.398 259.502
L265.291 249.518
L265.738 256.47
L266.184 254.941
L266.63 256.299
L267.077 250.658
L267.523 249.162
L268.416 261.024
L268.862 257.48
L269.309 249.805
L269.755 254.82
L270.202 256.22
L270.648 256.315
L271.094 254.586
L271.541 256.627
L271.987 253.109
L272.434 261.175
L272.88 258.274
L273.326 258.21
L273.773 254.451
L274.219 249.599
L274.666 254.652
L275.112 254.221
L275.558 258.736
L276.005 257.808
L276.451 253.33
L276.898 259.208
L277.344 258.844
L277.79 260.91
L278.237 258.079
L278.683 251.08
L279.13 255.501
L279.576 248.953
L280.022 255.427
L280.469 258.502
L280.915 248.354
L281.808 261.581
L282.254 258.21
L282.701 252.899
L283.147 250.824
L283.594 256.714
L284.04 226.794
L284.486 249.782
L284.933 261.42
L285.379 257.731
L285.826 248.055
L286.718 251.32
L287.165 254.727
L288.058 252.11
L288.504 261.365
L288.95 259.264
L289.843 256.883
L290.29 261.431
L290.736 257.246
L291.182 255.64
L291.629 249.583
L292.075 247.828
L292.968 263.226
L293.414 258.023
L293.861 259.795
L294.307 258.238
L294.754 254.579
L295.2 257.765
L296.093 249.447
L296.539 250.207
L296.986 252.236
L297.432 261.552
L297.878 264.559
L298.325 248.238
L298.771 258.013
L299.218 255.986
L299.664 253.282
L300.11 259.868
L300.557 254.624
L301.003 251.301
L301.45 249.427
L301.896 263.22
L302.342 252.932
L302.789 256.413
L303.235 261.54
L303.682 258.065
L304.128 249.571
L304.574 261.371
L305.021 253.491
L305.467 257.867
L305.914 255.784
L306.36 250.005
L306.806 251.289
L307.253 262.836
L307.699 258.105
L308.146 258.157
L308.592 253.158
L309.038 258.276
L309.485 254.518
L309.931 256.466
L310.378 256.372
L310.824 258.771
L311.27 254.048
L311.717 256.509
L312.163 240.756
L312.61 248.068
L313.056 258.495
L313.502 254.09
L313.949 257.966
L314.395 254.355
L314.842 256.881
L315.288 261.283
L315.734 253.931
L316.181 259.814
L316.627 255.601
L317.074 255.466
L317.52 249.003
L317.966 255.717
L318.413 259.376
L318.859 253.43
L319.306 259.806
L319.752 261.747
L320.198 254.552
L320.645 256.479
L321.091 256.007
L321.538 253.378
L321.984 252.94
L322.43 257.205
L322.877 256.938
L323.323 262.121
L323.77 256.528
L324.216 261.493
L324.662 254.99
L325.109 254.501
L325.555 257.808
L326.002 247.616
L326.448 250.443
L326.894 248.31
L327.787 258.257
L328.234 258.263
L328.68 259.96
L329.126 256.392
L329.573 254.791
L330.019 258.108
L330.912 250.764
L331.358 249.836
L331.805 251.477
L332.251 254.665
L332.698 264.571
L333.144 255.232
L333.59 250.729
L334.037 250.282
L334.483 248.728
L334.93 256.535
L335.376 257.285
L335.822 249.649
L336.715 263.31
L337.162 257.808
L337.608 258.599
L338.501 254.801
L338.947 255.08
L339.394 250.808
L339.84 254.952
L340.286 229.935
L340.733 254.579
L341.179 256.436
L341.626 249.568
L342.072 256.82
L342.518 262.201
L342.965 257.52
L343.411 249.994
L344.304 258.115
L344.75 256.533
L345.197 262.735
L345.643 255.807
L346.09 246.551
L346.536 257.749
L346.982 259.976
L347.429 253.266
L347.875 250.936
L348.322 253.701
L348.768 261.664
L349.214 265.043
L349.661 257.553
L350.107 255.136
L350.554 244.139
L351 259.194
L351.446 258.128
L351.893 256.446
L352.339 256.825
L352.786 245.983
L353.232 257.886
L353.678 261.065
L354.125 256.753
L354.571 254.795
L355.018 256.9
L355.464 254.538
L355.91 250.454
L356.357 251.56
L356.803 260.554
L357.25 252.118
L357.696 260.209
L358.142 260.903
L359.482 249.702
L359.928 254.524
L360.374 252.111
L360.821 254.495
L361.714 260.907
L362.16 253.868
L362.606 229.747
L363.053 260.377
L363.946 258.239
L364.392 260.236
L364.838 255.657
L365.285 257.027
L365.731 249.489
L366.178 248.497
L366.624 251.242
L367.07 261.877
L367.963 254.881
L368.41 200.884
L368.856 244.255
L369.302 242.736
L369.749 249.663
L370.195 251.966
L370.642 261.233
L371.088 258.851
L371.534 258.333
L371.981 258.922
L372.427 253.147
L372.874 259.206
L373.32 247.839
L373.766 254.622
L374.213 257.881
L374.659 258.339
L375.106 258.455
L375.552 257.675
L375.998 246.791
L376.445 258.635
L377.338 250.545
L377.784 242.803
L378.677 259.026
L379.123 261.251
L379.57 255.025
L380.016 257.468
L380.462 256.073
L380.909 255.047
L381.355 257.868
L381.802 255.32
L382.248 250.852
L382.694 251.02
L383.141 261.555
L383.587 258.947
L384.034 257.254
L384.48 254.822
L384.926 256.189
L385.373 251.589
L385.819 261.953
L386.266 252.873
L386.712 256.319
L387.158 264.426
L387.605 259.309
L388.498 254.766
L388.944 242.516
L389.837 260.251
L390.283 256.249
L390.73 243.685
L391.622 260.975
L392.069 256.294
L392.515 260.526
L392.962 257.219
L393.408 260.143
L393.854 258.21
L394.301 255.585
L394.747 250.288
L395.194 247.869
L395.64 246.512
L396.086 241.473
L396.533 228.896
L396.979 254.613
L397.426 258.087
L398.318 254.825
L398.765 257.907
L399.211 257.254
L399.658 254.061
L400.104 252.975
L400.55 263.321
L400.997 263.286
L401.443 259.866
L401.89 254.571
L402.336 247.76
L403.229 259.106
L403.675 254.529
L404.122 256.508
L404.568 254.66
L405.014 258.804
L405.461 260.907
L406.354 253.97
L406.8 256.625
L407.246 254.853
L407.693 251.74
L408.139 253.448
L408.586 248.38
L409.032 255.928
L409.478 259.386
L409.925 260.651
L410.371 258.296
L410.818 254.345
L411.264 247.387
L411.71 256.926
L412.157 250.391
L412.603 256.665
L413.05 257.141
L413.496 259.455
L413.942 259.536
L414.389 256.771
L414.835 260.367
L415.282 254.271
L415.728 257.897
L416.174 255.029
L416.621 248.052
L417.067 243.682
L417.514 258.795
L417.96 247.095
L418.406 258.12
L418.853 256.202
L419.299 265.29
L419.746 252.13
L420.192 251.364
L420.638 250.323
L421.085 258.226
L421.531 256.564
L421.978 247.741
L422.87 251.67
L423.317 261.422
L423.763 257.778
L424.21 243.354
L424.656 243.222
L425.102 254.976
L425.549 258.256
L425.995 249.323
L426.442 261.756
L426.888 259.873
L427.334 256.525
L427.781 256.517
L428.227 249.832
L428.674 256.163
L429.12 251.126
L429.566 260.009
L430.013 258.194
L430.459 259.919
L430.906 259.859
L431.352 258.263
L431.798 253.07
L432.245 259.841
L432.691 256.369
L433.138 254.776
L433.584 250.983
L434.03 249.714
L434.477 256.467
L434.923 260.284
L435.37 257.991
L435.816 259.83
L436.262 257.835
L436.709 254.407
L437.155 256.7
L437.602 252.005
L438.048 254.125
L438.494 248.523
L438.941 257.368
L439.387 261.803
L439.834 258.608
L440.28 258.683
L440.726 256.914
L441.173 250.845
L442.066 262.309
L442.512 248.407
L442.958 249.99
L443.405 255.665
L443.851 258.9
L444.298 254.648
L444.744 261.438
L445.19 250.577
L445.637 253.747
L446.083 258.528
L446.53 260.951
L446.976 241.43
L447.422 249.295
L447.869 252.64
L448.315 262.253
L448.762 264.183
L449.208 255.626
L449.654 258.303
L450.101 249.199
L450.547 254.797
L450.994 256.098
L451.44 256.595
L451.886 250.812
L452.333 236.883
L452.779 253.461
L453.226 257.221
L453.672 254.372
L454.118 256.529
L454.565 256.555
L455.011 253.099
L455.458 254.827
L455.904 261.607
L456.35 260.018
L456.797 257.755
L457.243 257.113
L458.136 253.638
L458.582 256.567
L459.029 257.555
L459.475 257.905
L459.922 253.202
L460.368 254.958
L460.814 261.458
L461.261 259.819
L462.154 249.488
L462.6 255.98
L463.046 248.847
L463.493 256.052
L463.939 257.295
L464.386 253.882
L465.278 262.47
L465.725 256.229
L466.171 253.344
L466.618 254.097
L467.064 258.214
L467.51 252.963
L467.957 261.488
L468.403 256.686
L468.85 260.157
L469.296 258.013
L469.742 259.71
L470.189 256.301
L470.635 246.375
L471.082 261.005
L471.528 261.177
L471.974 249.458
L472.421 245.65
L472.867 259.252
L473.314 262.068
L473.76 257.959
L474.206 259.346
L474.653 256.929
L475.099 248.02
L475.546 255.816
L475.992 256.097
L476.438 248.278
L476.885 251.054
L477.331 252.432
L477.778 251.978
L478.224 248.627
L479.117 260.394
L479.563 258.454
L480.01 254.911
L480.456 244.737
L480.902 244.665
L481.349 250.281
L481.795 261.062
L482.688 256.59
L483.134 256.538
L483.581 254.816
L484.027 254.846
L484.474 260.022
L485.366 250.79
L485.813 253.103
L486.259 257.787
L486.706 260.593
L487.152 256.483
L487.598 255.04
L488.045 249.286
L488.938 258.399
L489.83 252.626
L490.277 255.896
L490.723 263.487
L491.17 263.084
L491.616 258.16
L492.062 256.415
L492.509 248.996
L492.955 253.465
L493.402 259.641
L493.848 253.453
L494.294 258.232
L494.741 252.009
L495.187 259.147
L495.634 258.282
L496.08 259.938
L496.526 253.006
L496.973 258.314
L497.419 254.914
L497.866 249.254
L498.312 256.156
L498.758 258.856
L499.205 254.638
L499.651 256.396
L500.098 262.206
L500.544 256.563
L500.99 255.764
L501.437 245.034
L501.883 258.729
L502.33 250.501
L502.776 248.033
L503.222 257.339
L503.669 262.234
L504.115 258.195
L505.008 257.416
L505.454 248.268
L505.901 257.283
L506.347 252.904
L506.794 251.67
L507.24 246.348
L507.686 259.631
L508.133 261.766
L508.579 248.442
L509.472 258.98
L509.918 251.562
L510.365 247.643
L510.811 260.051
L511.258 260.087
L511.704 258.144
L512.15 254.659
L512.597 254.767
L513.043 253.663
L513.49 259.764
L513.936 254.302
L514.382 251.447
L514.829 255.151
L515.275 251.138
L515.722 261.125
L516.168 258.462
L516.614 258.155
L517.061 255.195
L517.507 250.021
L517.954 252.285
L517.954 252.285" style="fill:none;stroke:#ff0000;"/>
   </g>
   <g id="line2d_2">
    <path clip-path="url(#p7ff5b81e1d)" d="
M72 229.4
L72.4464 217.263
L72.8928 217.438
L73.3392 211.316
L73.7856 214.843
L74.232 223.373
L74.6784 217.981
L75.1248 220.875
L76.0176 218.127
L76.464 202.858
L76.9104 218.59
L77.3568 220.684
L77.8032 227.765
L78.2496 217.169
L78.696 215.796
L79.1424 217.022
L79.5888 211.03
L80.0352 218.791
L80.4816 218.587
L80.928 219.85
L81.3744 218.345
L81.8208 221.709
L82.2672 216.487
L82.7136 214.976
L83.16 198.643
L83.6064 203.488
L84.0528 214.452
L84.9456 221.774
L85.392 220.464
L85.8384 219.58
L86.2848 221.084
L86.7312 216.313
L87.1776 215.641
L87.624 218.245
L88.0704 218.104
L88.5168 224.421
L88.9632 221.377
L89.4096 215.938
L89.856 220.087
L90.3024 222.919
L90.7488 205.239
L91.1952 220.489
L91.6416 221.351
L92.088 221.709
L92.5344 206.264
L92.9808 223.528
L93.4272 220.658
L93.8736 212.268
L94.32 211.749
L94.7664 214.642
L95.2128 211.607
L95.6592 219.846
L96.1056 223.237
L96.552 222.027
L96.9984 212.233
L97.4448 223.949
L97.8912 216.253
L98.3376 217.915
L98.784 220.145
L99.2304 218.552
L99.6768 222.635
L100.123 216.112
L100.57 219.346
L101.016 223.572
L101.462 212.89
L101.909 228.635
L102.355 226.239
L102.802 221.254
L103.248 209.786
L103.694 220.972
L104.141 216.193
L104.587 216.737
L105.034 221.587
L105.48 208.418
L105.926 207.274
L106.373 213.36
L107.712 222.508
L108.158 222.825
L108.605 221.692
L109.051 219.971
L109.498 216.562
L109.944 217.247
L110.39 215.745
L110.837 223.876
L111.283 219.641
L111.73 221.649
L112.622 221.837
L113.069 216.485
L113.515 218.618
L113.962 219.576
L114.408 220.121
L114.854 222.042
L115.301 218.113
L115.747 216.526
L116.194 216.498
L116.64 210.475
L117.086 219.205
L117.533 211.345
L117.979 220.327
L118.426 215.946
L118.872 221.559
L119.318 223.409
L119.765 214.14
L120.211 222.389
L120.658 223.841
L121.55 216.46
L121.997 218.538
L122.443 217.828
L122.89 223.861
L123.336 223.291
L123.782 227.019
L124.229 222.074
L124.675 212.756
L125.122 216.399
L125.568 216.896
L126.014 216.19
L126.461 230.953
L126.907 227.343
L127.354 218.943
L127.8 194.577
L128.246 211.124
L128.693 216.707
L129.139 216.42
L129.586 213.227
L130.032 207.954
L130.478 216.574
L130.925 220.279
L131.371 218.841
L131.818 221.34
L132.264 219.824
L132.71 216.118
L133.157 210.293
L134.05 224.363
L134.496 215.957
L134.942 215.286
L135.389 220.454
L135.835 209.659
L136.282 215.904
L136.728 219.577
L137.174 222.15
L137.621 219.97
L138.067 218.619
L138.514 217.925
L138.96 214.898
L139.406 210.58
L139.853 217.642
L140.299 219.745
L140.746 220.124
L141.638 223.653
L142.085 213.958
L142.531 210.585
L142.978 212.97
L143.424 223.029
L143.87 220.574
L144.317 221.81
L144.763 209.766
L145.21 219.63
L145.656 221.918
L146.102 200.299
L146.995 215.057
L147.442 215.095
L147.888 204.89
L148.334 206.651
L148.781 207.201
L149.227 210.204
L149.674 174.735
L150.12 200.281
L150.566 206.201
L151.013 209.662
L151.459 203.707
L152.352 221.645
L152.798 218.664
L153.245 208.216
L153.691 205.296
L154.138 208.121
L154.584 200.693
L155.477 217.488
L156.37 206.818
L156.816 209.004
L157.262 202.082
L158.155 210.701
L158.602 219.424
L159.048 212.28
L159.494 200.376
L159.941 207.785
L160.387 197.56
L160.834 204.661
L161.28 220.889
L162.173 209.128
L162.619 207.508
L163.066 208.648
L163.512 204.907
L163.958 206.251
L164.405 218.548
L164.851 216.107
L165.298 208.16
L165.744 209.611
L166.19 201.026
L167.083 209.771
L167.53 219.155
L167.976 213.577
L168.422 203.459
L168.869 208.113
L169.315 199.515
L169.762 204.306
L170.208 211.601
L170.654 206.392
L171.547 209.904
L171.994 202.323
L172.44 215.084
L172.886 197.795
L173.779 214.588
L174.226 217.622
L174.672 206.092
L175.118 213.41
L175.565 202.509
L176.011 205.673
L176.458 210.178
L176.904 219.22
L177.797 204.427
L178.69 204.49
L179.136 208.133
L179.582 220.957
L180.029 218.441
L180.922 204.202
L181.368 207.941
L181.814 207.87
L182.261 204.464
L182.707 215.157
L183.154 212.972
L183.6 206.722
L184.046 207.726
L184.493 203.873
L184.939 204.391
L185.386 208.375
L185.832 217.791
L186.278 210.198
L186.725 205.042
L187.171 203.737
L188.51 211.157
L188.957 219.796
L189.403 211.122
L189.85 205.021
L190.296 208.18
L190.742 199.058
L191.189 208.44
L191.635 202.229
L192.082 211.392
L192.528 210.849
L192.974 204.587
L193.421 208.331
L193.867 199.504
L194.76 220.382
L195.206 218.549
L195.653 209.311
L196.099 204.162
L196.546 210.602
L196.992 202.855
L197.885 218.573
L198.331 216.137
L198.778 205.417
L199.224 207.037
L199.67 205.099
L200.117 203.866
L200.563 206.355
L201.01 214.832
L201.456 216.551
L201.902 209.651
L202.349 209.623
L202.795 194.109
L203.688 221.369
L204.134 220.634
L204.581 208.914
L205.027 201.84
L205.474 211.464
L205.92 206.172
L206.366 220.607
L206.813 213.636
L207.259 203.308
L207.706 209.751
L208.152 202.609
L208.598 206.482
L209.045 208.127
L209.491 211.056
L210.384 205.553
L210.83 208.718
L211.277 202.138
L211.723 214.42
L212.17 218.32
L212.616 213.096
L213.062 342.983
L213.509 209.668
L213.955 211.634
L214.402 199.441
L214.848 208.494
L215.294 199.996
L215.741 207.908
L216.187 220.277
L216.634 207.896
L217.08 209.295
L217.526 204.809
L217.973 205.696
L218.419 216.992
L218.866 207.98
L219.312 206.477
L219.758 209.494
L220.205 208.15
L220.651 206.056
L221.098 210.26
L221.544 217.951
L221.99 213.354
L222.437 204.64
L222.883 205.761
L223.33 204.89
L223.776 201.476
L224.669 220.182
L225.115 213.605
L225.562 202.423
L226.008 209.283
L226.454 199.926
L226.901 212.987
L227.347 211.495
L227.794 214.694
L228.24 210.23
L228.686 214.402
L229.133 214.793
L229.579 204.407
L230.026 208.187
L230.472 220.054
L230.918 216.572
L231.365 206.29
L231.811 211.395
L232.258 206.295
L232.704 204.845
L233.597 216.829
L234.043 191.916
L234.49 224.529
L234.936 210.668
L235.382 209.091
L235.829 214.676
L236.275 197.562
L236.722 204.596
L237.168 209.779
L237.614 197.705
L238.061 206.318
L238.507 211.488
L238.954 212.472
L239.4 204.694
L239.846 206.624
L240.293 203.015
L240.739 204.357
L241.186 220.164
L241.632 222.991
L242.078 207.773
L242.525 204.717
L242.971 207.639
L243.418 201.259
L243.864 209.166
L244.31 220.36
L244.757 211.406
L245.65 202.883
L246.096 209.009
L246.542 196.011
L246.989 209.125
L247.435 212.329
L247.882 217.075
L248.328 204.673
L248.774 207.145
L249.221 202.934
L249.667 203.009
L250.114 212.537
L250.56 212.319
L251.453 203.618
L251.899 209.253
L252.346 202.183
L252.792 207.799
L253.238 220.066
L253.685 216.483
L254.131 207.862
L254.578 189.709
L255.024 196.501
L255.47 207.906
L255.917 201.435
L256.363 207.286
L256.81 211.549
L257.256 219.951
L257.702 213.589
L258.149 202.655
L258.595 206.155
L259.042 201.139
L259.488 212.509
L259.934 220.56
L260.381 216.842
L260.827 208.15
L261.274 207.999
L261.72 209.022
L262.166 204.949
L262.613 204.723
L263.059 216.202
L263.506 215.166
L263.952 206.889
L264.398 209.164
L264.845 215.673
L265.291 207.229
L265.738 206.426
L266.184 214.797
L266.63 203.882
L267.077 207.929
L267.523 195.864
L267.97 213.255
L268.416 220.877
L268.862 218.626
L269.309 199.893
L269.755 215.022
L270.648 203.073
L271.094 206.352
L271.541 212.613
L271.987 207.803
L272.434 211.811
L272.88 214.77
L273.326 207.979
L273.773 204.886
L274.666 218.92
L275.112 210.462
L275.558 196.734
L276.005 191.019
L276.898 209.409
L277.344 201.222
L277.79 204.598
L278.237 213.357
L278.683 218.379
L279.13 211.496
L279.576 202.56
L280.022 208.275
L280.469 218.364
L280.915 216.976
L281.362 206.002
L281.808 204.677
L282.254 202.918
L282.701 206.524
L283.147 203.953
L283.594 213.625
L284.04 216.616
L284.486 205.886
L284.933 209.498
L285.379 198.109
L285.826 201.377
L286.272 206.354
L286.718 207.325
L287.165 217.054
L287.611 204.37
L288.058 208.399
L288.504 202.465
L288.95 206.37
L289.397 220.238
L290.736 207.909
L291.182 206.496
L291.629 207.384
L292.075 210.399
L292.522 220.487
L292.968 220.391
L293.414 207.776
L293.861 206.371
L294.307 199.71
L294.754 202.393
L295.2 206.242
L295.646 220.826
L296.093 212.387
L296.539 153.471
L296.986 196.251
L297.432 207.152
L297.878 200.116
L298.325 207.14
L298.771 209.985
L299.218 211.381
L299.664 204.21
L300.11 208.156
L300.557 205.611
L301.003 205.333
L301.45 209.47
L301.896 220.063
L302.342 214.926
L302.789 202.769
L303.235 206.274
L303.682 205.38
L304.128 207.102
L304.574 222.1
L305.021 213.403
L305.467 210.173
L305.914 201.349
L306.36 208.699
L306.806 205.505
L307.253 209.173
L307.699 209.7
L308.146 217.488
L308.592 206.927
L309.038 208.444
L309.485 207.811
L309.931 206.247
L310.378 209.657
L310.824 219.531
L311.27 213.947
L311.717 204.059
L312.163 204.29
L312.61 205.1
L313.056 208.85
L313.502 210.631
L313.949 218.449
L314.395 213.094
L314.842 204.683
L315.288 209.338
L315.734 199.546
L316.181 209.526
L316.627 215.219
L317.074 214.851
L317.52 185.287
L317.966 184.588
L318.413 210.216
L318.859 200.423
L319.752 218.413
L320.645 207.39
L321.091 204.922
L321.538 211.982
L321.984 198.691
L322.43 206.3
L322.877 218.592
L323.77 206.193
L324.216 214.961
L324.662 201.518
L325.109 207.075
L325.555 200.485
L326.002 223.176
L326.448 212.051
L326.894 205.822
L327.341 209.568
L327.787 201.394
L328.234 207.281
L328.68 210.349
L329.126 205.984
L329.573 214.909
L330.466 200.498
L331.358 217.749
L331.805 215.828
L332.251 206.217
L332.698 207.714
L333.144 203.208
L333.59 206.163
L334.037 211.719
L334.483 214.847
L334.93 214.686
L335.376 205.597
L335.822 201.55
L336.269 199.287
L337.162 222.107
L337.608 218.066
L338.054 209.678
L338.501 186.331
L338.947 197.096
L339.394 203.988
L339.84 208.784
L340.286 221.182
L340.733 220.292
L341.179 207.043
L341.626 200.26
L342.072 208.934
L342.518 204.994
L342.965 210.823
L343.411 214.826
L344.304 211.47
L345.197 204.563
L345.643 204.62
L346.09 209.877
L346.536 220.101
L347.875 204.701
L348.322 208.051
L348.768 206.286
L349.214 221.933
L349.661 211.508
L350.107 206.508
L350.554 205.158
L351 212.141
L351.446 206.475
L351.893 210.316
L352.339 218.181
L352.786 220.836
L353.232 207.489
L353.678 208.035
L354.125 209.548
L354.571 204.678
L355.018 209.331
L355.464 218.549
L355.91 213.425
L356.357 197.603
L356.803 206.964
L357.25 204.228
L357.696 209.102
L358.142 209.68
L358.589 220.102
L359.035 213.269
L359.482 196.173
L359.928 188.435
L360.374 197.666
L360.821 211.627
L361.267 198.912
L362.16 209.765
L362.606 220.145
L363.053 213.453
L363.499 197.799
L363.946 211.77
L364.392 216.251
L364.838 213.884
L365.285 207.231
L365.731 204.234
L366.178 213.42
L366.624 211.398
L367.07 206.323
L367.517 220.109
L367.963 218.612
L368.41 205.984
L368.856 216.745
L369.302 207.955
L369.749 204.686
L370.195 207.926
L370.642 208.065
L371.088 206.439
L371.534 206.083
L371.981 206.608
L372.427 203.257
L372.874 207.166
L373.32 218.739
L373.766 220.267
L374.213 209.741
L374.659 202.797
L375.106 211.79
L375.552 198.965
L375.998 204.555
L376.445 219.56
L376.891 218.254
L377.338 208.341
L377.784 215.591
L378.677 198.76
L379.123 204.401
L379.57 216.07
L380.016 217.556
L380.909 192.561
L381.355 214.961
L381.802 204.483
L382.248 208.103
L382.694 220.85
L383.141 215.946
L383.587 202.838
L384.034 206.374
L384.48 206.254
L384.926 206.727
L385.373 204.623
L385.819 212.794
L386.266 210.617
L386.712 202.454
L387.158 211.205
L387.605 200.037
L388.051 206.641
L388.498 215.839
L388.944 218.911
L389.837 204.071
L390.283 204.259
L391.176 206.613
L391.622 209.085
L392.069 204.884
L392.515 204.842
L392.962 198.077
L393.854 219.328
L394.301 221.091
L394.747 208.308
L395.194 206.212
L395.64 207.555
L396.086 208.361
L396.533 210.134
L396.979 218.272
L397.426 221.81
L397.872 209.852
L398.318 204.624
L398.765 216.644
L399.211 197.685
L400.104 219.794
L400.55 214.162
L400.997 205.61
L401.443 189.728
L401.89 205.906
L402.336 198.75
L402.782 206.713
L403.229 221.222
L403.675 214.792
L404.568 208.016
L405.014 202.806
L405.461 204.775
L406.354 215.059
L406.8 215.083
L407.246 204.635
L407.693 206.324
L408.139 202.973
L408.586 214.946
L409.032 223.413
L409.478 216.739
L409.925 208.017
L410.371 201.573
L410.818 212.229
L411.264 205.721
L411.71 205.053
L412.157 220.985
L412.603 198.898
L413.05 207.402
L413.496 205.962
L413.942 208.579
L414.389 201.27
L414.835 206.452
L415.282 207.353
L415.728 216.302
L416.174 204.996
L416.621 208.004
L417.067 201.364
L418.406 219.379
L418.853 212.531
L419.299 200.535
L419.746 204.118
L420.192 200.713
L421.085 219.096
L421.531 219.357
L421.978 206.365
L422.424 199.13
L422.87 205.497
L423.317 201.189
L423.763 206.807
L424.21 215.539
L424.656 218.839
L425.102 207.034
L425.549 214.75
L425.995 209.36
L426.442 198.54
L426.888 206.636
L427.334 218.893
L428.227 202.92
L428.674 212.822
L429.12 201.403
L429.566 205.854
L430.459 219.46
L430.906 211.195
L431.352 206.664
L431.798 207.924
L432.245 201.315
L432.691 211.216
L433.138 216.59
L434.03 209.251
L434.477 206.69
L434.923 199.906
L435.37 206.329
L435.816 207.932
L436.262 218.603
L436.709 216.697
L437.155 201.159
L437.602 215.207
L438.048 208.03
L438.494 206.54
L438.941 207.632
L439.387 218.385
L439.834 214.823
L440.28 204.616
L440.726 208.497
L441.173 203.372
L441.619 204.236
L442.066 214.925
L442.512 218.807
L442.958 188.331
L443.405 181.897
L443.851 199.836
L444.744 208.043
L445.19 220.104
L445.637 218.401
L446.083 204.687
L446.53 203.446
L446.976 208.807
L447.422 206.147
L447.869 209.23
L448.315 222.689
L448.762 217.533
L449.208 208.557
L449.654 206.324
L450.101 208.813
L450.547 195.187
L450.994 210.688
L451.44 212.853
L452.333 205.297
L452.779 208.11
L453.226 203.448
L453.672 205.758
L454.118 209.341
L454.565 202.16
L455.011 197.692
L455.458 211.906
L455.904 205.953
L456.35 210.502
L456.797 213.142
L457.243 213.314
L457.69 207.562
L458.136 205.598
L458.582 212.654
L459.029 203.119
L459.475 206.816
L459.922 213.381
L460.368 210.026
L460.814 202.943
L461.261 207.327
L461.707 205.761
L462.154 206.355
L462.6 211.465
L463.046 218.441
L463.493 213.353
L464.386 174.571
L465.278 203.236
L466.171 219.795
L466.618 213.458
L467.064 203.11
L467.51 208.482
L467.957 202.068
L468.403 205.997
L468.85 216.04
L469.296 219.668
L469.742 205.463
L470.189 202.131
L470.635 215.329
L471.082 205.568
L471.528 205.492
L471.974 211.221
L472.421 212.392
L472.867 203.313
L473.314 212.533
L473.76 201.745
L475.099 218.52
L475.546 207.237
L475.992 203.232
L476.438 207.214
L476.885 204.184
L477.331 204.628
L477.778 223.631
L478.224 218.544
L478.67 210.202
L479.117 205.247
L479.563 209.526
L480.456 203.998
L480.902 213.069
L481.349 210.138
L481.795 204.051
L482.242 213.287
L482.688 208.031
L483.134 207.049
L483.581 207.501
L484.027 218.986
L484.474 214.745
L484.92 206.146
L485.366 191.348
L485.813 201.651
L486.259 201.66
L486.706 210.1
L487.152 211.63
L487.598 212.033
L488.045 205.452
L488.491 207.403
L488.938 203.557
L489.384 206.249
L489.83 211.388
L490.277 220.71
L490.723 207.215
L491.17 200.572
L491.616 209.718
L492.062 200.584
L492.509 215.575
L492.955 221.916
L493.402 218.658
L493.848 208.826
L494.294 205.454
L494.741 209.877
L495.187 201.471
L495.634 209.632
L496.08 212.777
L496.526 202.606
L497.419 207.825
L497.866 204.075
L498.312 203.412
L498.758 210.419
L499.205 215.231
L500.098 208.235
L500.544 207.966
L500.99 201.073
L501.883 219.981
L502.33 217.415
L503.222 200.297
L503.669 209.461
L504.115 202.071
L504.562 213.318
L505.008 216.584
L505.454 217.067
L505.901 206.749
L506.347 179.151
L506.794 205.832
L507.24 204.814
L507.686 211.718
L508.133 222.23
L508.579 214.557
L509.026 209.564
L509.472 206.629
L509.918 209.861
L510.365 200.248
L510.811 208.383
L511.258 219.58
L512.15 206.901
L512.597 206.935
L513.043 199.529
L513.49 203.026
L514.382 219.426
L514.829 213.043
L515.275 204.664
L515.722 208.635
L516.168 201.189
L516.614 215.798
L517.061 218.831
L517.507 194.001
L517.954 212.122
L517.954 212.122" style="fill:none;opacity:0.7;stroke:#008000;"/>
   </g>
   <g id="line2d_3">
    <path clip-path="url(#p7ff5b81e1d)" d="
M72 259.285
L72.4464 254.915
L72.8928 260.092
L73.3392 260.781
L73.7856 262.832
L74.232 260.339
L74.6784 254.335
L75.1248 259.71
L75.5712 252.661
L76.0176 253.105
L76.464 251.095
L76.9104 256.398
L78.2496 261.974
L78.696 257.782
L79.1424 251.12
L79.5888 259.499
L80.0352 265.73
L80.4816 255.606
L80.928 252.896
L81.3744 251.152
L81.8208 261.455
L82.2672 265.023
L82.7136 261.624
L83.16 261.323
L83.6064 260.179
L84.0528 257.306
L84.4992 261.593
L84.9456 257.977
L85.392 260.069
L85.8384 250.761
L86.2848 256.252
L86.7312 263.48
L87.1776 259.546
L87.624 254.49
L88.0704 258.239
L88.5168 251.313
L88.9632 257.888
L89.4096 256.302
L89.856 257.715
L90.3024 260.038
L90.7488 257.848
L91.1952 253.069
L92.088 260.099
L92.5344 259.156
L92.9808 261.823
L93.4272 259.127
L93.8736 252.884
L94.32 249.266
L94.7664 232.353
L95.2128 256.131
L95.6592 261.845
L96.1056 255.839
L96.9984 263.162
L97.4448 253.068
L97.8912 250.167
L98.3376 261.458
L98.784 263.495
L99.6768 255.521
L100.123 260.031
L100.57 256.896
L101.016 260.823
L101.462 259.401
L101.909 251.431
L102.355 253.217
L102.802 256.009
L103.248 254.239
L103.694 257.664
L104.141 253.383
L105.034 261.879
L105.48 259.109
L105.926 255.411
L106.373 255.75
L106.819 259.62
L107.266 259.912
L107.712 261.273
L108.158 264.268
L108.605 259.028
L109.051 256.141
L109.498 258.989
L109.944 251.809
L110.39 254.072
L110.837 249.974
L111.73 259.868
L112.176 259.796
L112.622 256.193
L113.069 258.524
L113.515 244.034
L113.962 258.347
L114.408 264.365
L115.301 252.886
L115.747 256.632
L116.194 262.847
L116.64 261.602
L117.086 262.341
L117.533 258.102
L117.979 251.849
L118.426 258.599
L118.872 260.887
L119.318 256.539
L119.765 260.656
L120.211 255.229
L120.658 255.255
L121.104 255.984
L121.55 259.382
L121.997 256.531
L122.89 263.367
L123.336 238.329
L123.782 259.55
L124.675 263.312
L125.122 259.689
L125.568 254.637
L126.014 263.146
L126.907 252.8
L127.354 251.194
L127.8 261.44
L128.246 264.991
L128.693 261.571
L129.139 261.607
L129.586 260.167
L130.032 255.475
L130.478 261.445
L130.925 258.54
L131.371 252.797
L131.818 252.121
L132.264 250.105
L132.71 246.488
L133.157 257.886
L133.603 259.465
L134.05 258.156
L134.496 258.016
L134.942 253.831
L135.389 247.975
L135.835 256.819
L136.282 261.639
L136.728 254.949
L137.174 257.488
L137.621 264.251
L138.067 261.155
L138.514 255.507
L138.96 259.727
L139.406 259.684
L139.853 252.788
L140.299 251.249
L140.746 256.259
L141.192 263.511
L141.638 255.569
L142.531 261.517
L142.978 260.057
L143.424 255.655
L143.87 263.831
L144.763 252.731
L145.21 251.589
L145.656 255.06
L146.102 254.979
L146.549 257.115
L146.995 255.984
L147.442 258.029
L147.888 252.971
L148.334 258.033
L148.781 256.273
L149.227 256.302
L149.674 261.463
L150.12 256.288
L150.566 260.198
L151.013 261.618
L151.459 262.296
L152.352 246.938
L152.798 261.436
L153.245 258.445
L153.691 258.229
L154.138 252.229
L154.584 257.211
L155.03 253.75
L155.477 256.35
L155.923 262.076
L156.37 256.152
L156.816 260.341
L157.262 252.077
L157.709 252.867
L158.155 258.187
L158.602 261.742
L159.048 256.122
L159.494 254.337
L159.941 259.911
L160.387 259.654
L160.834 250.393
L161.28 258.935
L161.726 257.72
L162.173 251.391
L162.619 253.005
L163.066 256.68
L163.512 256.258
L163.958 262.566
L164.405 260.349
L164.851 259.195
L165.298 251.611
L165.744 259.242
L166.19 261.14
L166.637 257.923
L167.083 260.389
L167.53 255.949
L167.976 254.352
L168.422 261.212
L168.869 256.957
L169.315 250.735
L169.762 252.268
L170.208 252.794
L170.654 243.291
L171.101 240.041
L171.994 260.519
L172.44 256.936
L172.886 257.878
L173.333 252.716
L173.779 256.74
L174.226 254.565
L174.672 249.394
L175.565 256.465
L176.011 252.94
L176.458 258.022
L176.904 261.068
L177.35 256.547
L177.797 258.17
L178.243 249.396
L178.69 252.856
L179.136 249.495
L179.582 247.66
L180.029 240.701
L180.475 251.872
L180.922 257.328
L181.368 256.401
L181.814 253.184
L182.261 246.961
L182.707 248.065
L183.154 250.498
L183.6 251.531
L184.046 254.527
L184.493 255.331
L184.939 253.98
L185.386 254.902
L185.832 256.694
L186.278 249.001
L186.725 246.053
L187.171 257.12
L187.618 260.825
L188.064 258.018
L188.51 258.07
L188.957 256.385
L189.403 252.839
L189.85 256.298
L190.296 252.974
L190.742 254.719
L191.189 249.507
L192.528 259.545
L192.974 256.255
L193.421 251.221
L193.867 256.847
L194.314 253.766
L194.76 248.196
L195.206 247.032
L195.653 256.533
L196.099 260.273
L196.546 261.84
L196.992 258.944
L197.438 252.929
L197.885 245.191
L198.331 252.576
L198.778 255.553
L199.224 255.069
L199.67 254.269
L200.117 248.655
L200.563 250.354
L201.01 262.089
L201.456 258.144
L201.902 256.158
L202.349 255.787
L202.795 247.05
L203.242 253.78
L203.688 250.002
L204.581 255.548
L205.027 263.457
L205.474 258.049
L205.92 259.143
L206.366 253.409
L206.813 252.973
L207.259 254.802
L207.706 257.761
L208.152 239.416
L208.598 247.697
L209.045 261.445
L209.938 254.449
L210.384 253
L210.83 253.289
L211.277 255.427
L211.723 251.78
L212.17 256.463
L212.616 262.636
L213.509 252.491
L213.955 255.491
L214.402 253.715
L214.848 249.004
L215.294 246.986
L215.741 250.821
L216.187 261.934
L216.634 249.604
L217.08 260.754
L217.526 251.803
L217.973 225.41
L218.419 255.066
L218.866 250.135
L219.312 251.73
L219.758 256.981
L220.205 252.519
L220.651 257.941
L221.098 260.806
L221.544 256.835
L221.99 251.671
L222.437 255.844
L222.883 253.967
L223.33 246.874
L223.776 243.621
L224.222 251.47
L225.115 262.264
L225.562 256.219
L226.008 252.281
L226.454 255.025
L226.901 253.808
L227.347 249.472
L227.794 252.552
L228.24 257.482
L228.686 260.429
L229.133 258.184
L229.579 260.039
L230.026 254.982
L230.472 252.406
L230.918 256.803
L231.365 246.935
L231.811 254.573
L232.258 248.847
L232.704 255.761
L233.597 259.76
L234.49 252.99
L234.936 255.051
L235.382 253.122
L235.829 247.303
L236.275 345.074
L236.722 243.425
L237.168 258.005
L237.614 259.735
L238.061 249.394
L238.507 251.334
L238.954 256.462
L239.4 254.661
L239.846 247.999
L240.293 260.882
L240.739 257.893
L241.186 258.233
L241.632 256.426
L242.078 245.933
L242.525 255.288
L242.971 255.775
L243.418 253.049
L243.864 257.221
L244.31 253.737
L244.757 256.678
L245.203 251.452
L245.65 254.893
L246.096 246.907
L246.542 257.662
L246.989 255.011
L247.435 254.936
L247.882 246.407
L248.328 250.383
L248.774 261.901
L249.221 258.437
L249.667 250.347
L250.114 253.444
L250.56 247.276
L251.006 253.687
L251.453 250.026
L251.899 252.18
L252.792 263.346
L253.238 259.2
L253.685 257.208
L254.131 253.172
L254.578 245.342
L255.47 259.589
L255.917 255.278
L256.363 247.034
L256.81 253.024
L257.256 261.52
L257.702 258.21
L258.595 258.208
L259.042 254.402
L259.488 246.402
L259.934 255.106
L260.381 248.983
L261.274 256.453
L261.72 252.988
L262.166 258.064
L262.613 261.269
L263.506 250.595
L263.952 232.72
L264.398 252.42
L264.845 254.153
L265.291 256.876
L265.738 261.487
L266.63 251.308
L267.077 256.45
L267.523 254.746
L267.97 248.869
L268.416 246.568
L268.862 251.27
L269.309 258.029
L269.755 261.605
L270.202 256.526
L270.648 252.975
L271.094 255.073
L271.541 251.104
L271.987 244.25
L272.88 258.048
L273.326 259.683
L273.773 260.031
L274.219 261.384
L274.666 255.302
L275.112 252.214
L275.558 255
L276.005 253.562
L276.451 254.204
L276.898 248.129
L277.344 252.455
L277.79 258.009
L278.237 260.821
L278.683 258.44
L279.13 258.043
L280.022 255.063
L280.469 248.646
L280.915 246.463
L281.362 256.479
L281.808 261.505
L282.254 258.064
L282.701 259.75
L283.147 252.898
L283.594 247.95
L284.04 254.062
L284.486 257.165
L284.933 251.069
L285.379 257.45
L285.826 259.892
L286.272 260.242
L286.718 259.602
L287.165 254.762
L287.611 246.087
L288.058 257.75
L288.504 255.18
L288.95 247.731
L289.397 247.838
L289.843 249.885
L290.29 261.01
L290.736 257.511
L291.182 257.483
L291.629 254.26
L292.075 238.073
L293.414 261.514
L293.861 258.901
L294.307 257.472
L294.754 252.805
L295.2 255.148
L295.646 252.531
L296.093 251.646
L296.539 251.164
L297.432 260.356
L297.878 259.019
L298.325 251.446
L298.771 254.622
L299.218 245.189
L299.664 257.533
L300.11 257.158
L300.557 252.102
L301.003 249.544
L301.45 251.34
L301.896 262.697
L302.342 256.911
L302.789 256.722
L303.682 248.751
L304.128 253.219
L304.574 248.801
L305.021 247.146
L305.467 250.42
L305.914 261.219
L306.36 251.332
L306.806 256.64
L307.253 254.998
L307.699 253.97
L308.146 253.509
L308.592 251.274
L309.038 252.913
L309.485 256.065
L309.931 253.041
L310.378 257.94
L310.824 258.971
L311.27 261.02
L311.717 258.106
L312.163 256.619
L312.61 254.43
L313.056 247.725
L313.502 248.126
L313.949 249.464
L314.395 257.858
L314.842 261.133
L316.181 247.692
L316.627 254.219
L317.074 249.442
L317.52 253.408
L317.966 254.447
L318.413 248.222
L318.859 251.537
L319.306 260.985
L319.752 218.28
L320.198 249.093
L320.645 251.633
L321.091 256.659
L321.538 255.364
L321.984 248.181
L323.323 260.97
L323.77 254.845
L324.216 254.177
L324.662 248.041
L325.109 247.237
L326.002 263.026
L326.448 257.59
L326.894 259.343
L327.341 255.13
L327.787 245.774
L328.234 254.156
L328.68 257.138
L329.126 253.42
L329.573 255.944
L330.019 253.024
L330.466 258.403
L330.912 260.392
L331.805 252.948
L332.251 256.303
L332.698 253.285
L333.144 240.121
L333.59 250.072
L334.037 249.49
L334.483 261.869
L334.93 256.579
L335.376 258.048
L335.822 252.522
L336.269 254.943
L336.715 254.129
L337.162 250.403
L337.608 252.635
L338.501 261.404
L338.947 258.391
L339.394 257.699
L339.84 254.991
L340.286 253.059
L341.179 256.623
L341.626 254.234
L342.072 247.871
L342.965 256.452
L343.411 251.487
L343.858 257.162
L344.304 253.157
L344.75 248.033
L345.197 254.103
L345.643 249.533
L346.09 246.139
L346.982 261.437
L347.429 252.48
L347.875 219.966
L348.322 253.144
L348.768 248.718
L349.214 249.664
L349.661 246.263
L350.107 251.951
L350.554 261.853
L351 258.446
L351.446 248.699
L352.339 257.572
L352.786 252.533
L353.232 256.669
L353.678 252.386
L354.125 258.178
L354.571 261.114
L355.018 256.705
L355.464 245.887
L355.91 253.087
L356.357 257.528
L356.803 247.77
L357.25 248.135
L357.696 242.563
L358.142 261.097
L358.589 261.447
L359.482 251.207
L359.928 247.669
L360.374 254.751
L360.821 250.78
L361.267 251.692
L362.16 261.505
L362.606 258.094
L363.053 259.943
L363.499 256.508
L363.946 251.227
L364.392 257.225
L364.838 253.888
L365.285 254.802
L365.731 248.064
L366.178 251.102
L366.624 258.07
L367.07 260.434
L367.963 252.514
L368.41 255.796
L368.856 253.667
L369.302 249.472
L369.749 246.777
L370.195 256.396
L370.642 261.855
L371.534 253.604
L371.981 256.806
L372.427 247.202
L372.874 256.463
L373.32 253.382
L374.213 255.101
L374.659 253.226
L375.106 257.147
L375.552 344.521
L375.998 248.791
L376.445 256.756
L376.891 253.905
L377.338 253.376
L377.784 256.315
L378.23 253.646
L378.677 257.558
L379.123 258.43
L380.016 246.626
L380.462 256.204
L380.909 250.595
L381.355 251.202
L381.802 257.858
L382.248 261.741
L382.694 257.675
L383.141 251.616
L383.587 254.433
L384.034 245.402
L384.48 247.833
L384.926 256.901
L385.373 254.968
L385.819 247.302
L386.712 261.466
L387.158 258.2
L387.605 258.69
L388.051 252.474
L388.498 253.217
L388.944 253.547
L389.39 247.212
L389.837 250.592
L390.73 261.744
L391.176 258.241
L391.622 258.096
L392.515 247.858
L392.962 255.062
L393.408 256.176
L393.854 253.083
L394.301 256.502
L394.747 253.047
L395.194 258.12
L395.64 260.161
L396.086 255.329
L396.533 254.046
L396.979 255.524
L397.872 251.488
L398.318 246.361
L398.765 250.981
L399.211 257.638
L399.658 261.868
L400.104 256.201
L400.55 254.992
L400.997 247.755
L401.443 254.746
L401.89 249.655
L402.336 251.67
L402.782 256.373
L403.229 237.797
L403.675 253.365
L404.122 248.189
L404.568 254.8
L405.014 250.937
L405.461 253.287
L405.907 256.527
L406.354 261.299
L406.8 257.982
L407.246 258.565
L407.693 256.504
L408.139 253.422
L408.586 256.034
L409.032 253.45
L409.478 253.071
L409.925 248.306
L410.371 254.346
L410.818 251.317
L411.264 342.667
L411.71 252.233
L412.157 251.246
L412.603 256.497
L413.05 255.286
L413.496 247.292
L413.942 247.852
L414.389 256.523
L414.835 262.134
L415.282 258.386
L415.728 259.114
L416.174 254.823
L416.621 246.179
L417.067 257.109
L417.514 254.075
L417.96 252.965
L418.406 256.572
L418.853 253.081
L419.299 258.141
L419.746 259.784
L420.638 251.679
L421.085 257.749
L421.531 254.045
L421.978 247.165
L422.424 247.914
L422.87 251.345
L423.317 261.342
L423.763 256.987
L424.21 256.464
L424.656 252.31
L425.102 255.981
L425.549 253.794
L425.995 251.001
L426.442 252.214
L427.334 263.623
L427.781 258.044
L428.227 258.137
L428.674 254.803
L429.12 246.863
L429.566 254.204
L430.013 256.064
L430.459 254.774
L430.906 228.809
L431.352 247.735
L431.798 246.191
L432.245 254.795
L432.691 257.48
L433.138 253.633
L433.584 247.936
L434.03 251.295
L434.477 262.643
L434.923 257.122
L435.37 256.877
L435.816 252.619
L436.262 246.467
L436.709 255.319
L437.155 248.414
L437.602 246.448
L438.048 257.619
L438.494 245.925
L439.387 258.516
L439.834 262.346
L440.28 255.525
L440.726 252.541
L441.173 255.343
L441.619 254.374
L442.066 247.719
L442.512 251.45
L442.958 250.605
L443.405 260.658
L443.851 256.993
L444.298 256.239
L444.744 252.921
L445.19 248.258
L445.637 253.767
L446.083 250.176
L446.53 252.858
L447.422 260.805
L447.869 258.562
L448.315 260.26
L448.762 255.695
L449.208 253.24
L449.654 255.993
L450.101 254.188
L450.547 246.019
L451.44 253.159
L451.886 257.079
L452.333 255.287
L452.779 256.781
L453.226 252.331
L453.672 256.215
L454.118 247.09
L454.565 249.19
L455.011 246.911
L455.458 256.284
L455.904 260.058
L456.35 256.021
L456.797 258.083
L457.243 255.926
L457.69 252.784
L458.136 255.892
L458.582 223.204
L459.029 253.82
L459.475 259.234
L459.922 256.726
L460.368 252.95
L460.814 258.114
L461.261 247.35
L462.154 256.499
L462.6 254.756
L463.046 256.486
L463.493 261.436
L463.939 254.786
L464.386 251.375
L464.832 258.22
L465.278 254.165
L466.171 239.802
L466.618 250.61
L467.064 257.307
L467.51 256.823
L467.957 258.14
L468.403 255.561
L468.85 250.98
L469.296 253.806
L469.742 250.508
L470.189 249.469
L470.635 261.049
L471.082 254.592
L471.528 258.169
L471.974 259.341
L472.421 254.697
L472.867 252.079
L473.314 252.577
L473.76 256.698
L474.206 254.31
L474.653 247.815
L475.099 252.947
L475.546 261.073
L475.992 258.528
L476.438 257.35
L476.885 253.474
L477.331 248.258
L477.778 254.062
L478.224 249.372
L478.67 246.512
L479.117 256.717
L479.563 254.962
L480.01 259.485
L480.456 259.395
L481.349 247.31
L481.795 254.382
L482.242 256.363
L482.688 253.432
L483.134 256.284
L483.581 251.186
L484.027 261.167
L484.474 261.567
L484.92 256.484
L485.366 253.081
L485.813 254.855
L486.706 214.757
L487.152 247.203
L487.598 256.65
L488.045 262.363
L488.938 252.874
L489.384 255.54
L489.83 254.21
L490.277 251.149
L490.723 263.844
L491.17 257.244
L492.062 253.316
L492.509 248.927
L492.955 254.391
L493.402 243.124
L493.848 253.278
L494.294 256.541
L494.741 253.131
L495.187 258.609
L495.634 260.168
L496.08 256.742
L496.526 251.65
L496.973 256.504
L497.419 252.349
L497.866 257.618
L498.312 248.191
L498.758 245.351
L499.205 257.222
L499.651 260.614
L500.098 258.872
L500.544 259.011
L500.99 254.829
L501.437 246.397
L501.883 256.929
L502.33 254.366
L502.776 254.122
L503.222 255.943
L503.669 253.184
L504.115 258.433
L504.562 259.749
L505.454 252.93
L505.901 257.297
L506.347 254.364
L506.794 246.382
L507.24 250.902
L507.686 249.649
L508.133 263.094
L508.579 256.968
L509.026 257.093
L509.472 252.519
L509.918 250.991
L510.365 254.041
L510.811 255.006
L511.258 253.447
L511.704 249.156
L512.15 260.596
L512.597 257.785
L513.043 259.134
L513.49 254.713
L513.936 252.07
L514.382 321.073
L514.829 275.354
L515.275 256.508
L515.722 261.633
L516.168 258.141
L516.614 259.338
L517.061 254.811
L517.507 244.86
L517.954 254.837
L517.954 254.837" style="fill:none;opacity:0.5;stroke:#0000ff;"/>
   </g>
   <g id="matplotlib.axis_1">
    <g id="xtick_1">
     <g id="line2d_4">
      <path clip-path="url(#p7ff5b81e1d)" d="
M72 388.8
L72 43.2" style="fill:none;stroke:#000000;stroke-dasharray:1.000000,3.000000;stroke-dashoffset:0.0;stroke-linecap:butt;stroke-width:0.5;"/>
     </g>
     <g id="line2d_5">
      <defs>
       <path d="
M0 0
L0 -4" id="m0012dd4eef" style="stroke:#000000;stroke-linecap:butt;stroke-width:0.5;"/>
      </defs>
      <g>
       <use style="stroke:#000000;stroke-linecap:butt;stroke-width:0.5;" x="72.0" xlink:href="#m0012dd4eef" y="388.8"/>
      </g>
     </g>
     <g id="line2d_6">
      <defs>
       <path d="
M0 0
L0 4" id="m476344969c" style="stroke:#000000;stroke-linecap:butt;stroke-width:0.5;"/>
      </defs>
      <g>
       <use style="stroke:#000000;stroke-linecap:butt;stroke-width:0.5;" x="72.0" xlink:href="#m476344969c" y="43.2"/>
      </g>
     </g>
     <g id="text_1">
      <!-- 0 -->
      <defs>
       <path d="
M31.7812 66.4062
Q24.1719 66.4062 20.3281 58.9062
Q16.5 51.4219 16.5 36.375
Q16.5 21.3906 20.3281 13.8906
Q24.1719 6.39062 31.7812 6.39062
Q39.4531 6.39062 43.2812 13.8906
Q47.125 21.3906 47.125 36.375
Q47.125 51.4219 43.2812 58.9062
Q39.4531 66.4062 31.7812 66.4062
M31.7812 74.2188
Q44.0469 74.2188 50.5156 64.5156
Q56.9844 54.8281 56.9844 36.375
Q56.9844 17.9688 50.5156 8.26562
Q44.0469 -1.42188 31.7812 -1.42188
Q19.5312 -1.42188 13.0625 8.26562
Q6.59375 17.9688 6.59375 36.375
Q6.59375 54.8281 13.0625 64.5156
Q19.5312 74.2188 31.7812 74.2188" id="BitstreamVeraSans-Roman-30"/>
      </defs>
      <g transform="translate(68.9765625 401.70625)scale(0.12 -0.12)">
       <use xlink:href="#BitstreamVeraSans-Roman-30"/>
      </g>
     </g>
    </g>
    <g id="xtick_2">
     <g id="line2d_7">
      <path clip-path="url(#p7ff5b81e1d)" d="
M116.64 388.8
L116.64 43.2" style="fill:none;stroke:#000000;stroke-dasharray:1.000000,3.000000;stroke-dashoffset:0.0;stroke-linecap:butt;stroke-width:0.5;"/>
     </g>
     <g id="line2d_8">
      <g>
       <use style="stroke:#000000;stroke-linecap:butt;stroke-width:0.5;" x="116.64" xlink:href="#m0012dd4eef" y="388.8"/>
      </g>
     </g>
     <g id="line2d_9">
      <g>
       <use style="stroke:#000000;stroke-linecap:butt;stroke-width:0.5;" x="116.64" xlink:href="#m476344969c" y="43.2"/>
      </g>
     </g>
     <g id="text_2">
      <!-- 100 -->
      <defs>
       <path d="
M12.4062 8.29688
L28.5156 8.29688
L28.5156 63.9219
L10.9844 60.4062
L10.9844 69.3906
L28.4219 72.9062
L38.2812 72.9062
L38.2812 8.29688
L54.3906 8.29688
L54.3906 0
L12.4062 0
z
" id="BitstreamVeraSans-Roman-31"/>
      </defs>
      <g transform="translate(106.245 401.70625)scale(0.12 -0.12)">
       <use xlink:href="#BitstreamVeraSans-Roman-31"/>
       <use x="63.623046875" xlink:href="#BitstreamVeraSans-Roman-30"/>
       <use x="127.24609375" xlink:href="#BitstreamVeraSans-Roman-30"/>
      </g>
     </g>
    </g>
    <g id="xtick_3">
     <g id="line2d_10">
      <path clip-path="url(#p7ff5b81e1d)" d="
M161.28 388.8
L161.28 43.2" style="fill:none;stroke:#000000;stroke-dasharray:1.000000,3.000000;stroke-dashoffset:0.0;stroke-linecap:butt;stroke-width:0.5;"/>
     </g>
     <g id="line2d_11">
      <g>
       <use style="stroke:#000000;stroke-linecap:butt;stroke-width:0.5;" x="161.28" xlink:href="#m0012dd4eef" y="388.8"/>
      </g>
     </g>
     <g id="line2d_12">
      <g>
       <use style="stroke:#000000;stroke-linecap:butt;stroke-width:0.5;" x="161.28" xlink:href="#m476344969c" y="43.2"/>
      </g>
     </g>
     <g id="text_3">
      <!-- 200 -->
      <defs>
       <path d="
M19.1875 8.29688
L53.6094 8.29688
L53.6094 0
L7.32812 0
L7.32812 8.29688
Q12.9375 14.1094 22.625 23.8906
Q32.3281 33.6875 34.8125 36.5312
Q39.5469 41.8438 41.4219 45.5312
Q43.3125 49.2188 43.3125 52.7812
Q43.3125 58.5938 39.2344 62.25
Q35.1562 65.9219 28.6094 65.9219
Q23.9688 65.9219 18.8125 64.3125
Q13.6719 62.7031 7.8125 59.4219
L7.8125 69.3906
Q13.7656 71.7812 18.9375 73
Q24.125 74.2188 28.4219 74.2188
Q39.75 74.2188 46.4844 68.5469
Q53.2188 62.8906 53.2188 53.4219
Q53.2188 48.9219 51.5312 44.8906
Q49.8594 40.875 45.4062 35.4062
Q44.1875 33.9844 37.6406 27.2188
Q31.1094 20.4531 19.1875 8.29688" id="BitstreamVeraSans-Roman-32"/>
      </defs>
      <g transform="translate(150.665625 401.70625)scale(0.12 -0.12)">
       <use xlink:href="#BitstreamVeraSans-Roman-32"/>
       <use x="63.623046875" xlink:href="#BitstreamVeraSans-Roman-30"/>
       <use x="127.24609375" xlink:href="#BitstreamVeraSans-Roman-30"/>
      </g>
     </g>
    </g>
    <g id="xtick_4">
     <g id="line2d_13">
      <path clip-path="url(#p7ff5b81e1d)" d="
M205.92 388.8
L205.92 43.2" style="fill:none;stroke:#000000;stroke-dasharray:1.000000,3.000000;stroke-dashoffset:0.0;stroke-linecap:butt;stroke-width:0.5;"/>
     </g>
     <g id="line2d_14">
      <g>
       <use style="stroke:#000000;stroke-linecap:butt;stroke-width:0.5;" x="205.92" xlink:href="#m0012dd4eef" y="388.8"/>
      </g>
     </g>
     <g id="line2d_15">
      <g>
       <use style="stroke:#000000;stroke-linecap:butt;stroke-width:0.5;" x="205.92" xlink:href="#m476344969c" y="43.2"/>
      </g>
     </g>
     <g id="text_4">
      <!-- 300 -->
      <defs>
       <path d="
M40.5781 39.3125
Q47.6562 37.7969 51.625 33
Q55.6094 28.2188 55.6094 21.1875
Q55.6094 10.4062 48.1875 4.48438
Q40.7656 -1.42188 27.0938 -1.42188
Q22.5156 -1.42188 17.6562 -0.515625
Q12.7969 0.390625 7.625 2.20312
L7.625 11.7188
Q11.7188 9.32812 16.5938 8.10938
Q21.4844 6.89062 26.8125 6.89062
Q36.0781 6.89062 40.9375 10.5469
Q45.7969 14.2031 45.7969 21.1875
Q45.7969 27.6406 41.2812 31.2656
Q36.7656 34.9062 28.7188 34.9062
L20.2188 34.9062
L20.2188 43.0156
L29.1094 43.0156
Q36.375 43.0156 40.2344 45.9219
Q44.0938 48.8281 44.0938 54.2969
Q44.0938 59.9062 40.1094 62.9062
Q36.1406 65.9219 28.7188 65.9219
Q24.6562 65.9219 20.0156 65.0312
Q15.375 64.1562 9.8125 62.3125
L9.8125 71.0938
Q15.4375 72.6562 20.3438 73.4375
Q25.25 74.2188 29.5938 74.2188
Q40.8281 74.2188 47.3594 69.1094
Q53.9062 64.0156 53.9062 55.3281
Q53.9062 49.2656 50.4375 45.0938
Q46.9688 40.9219 40.5781 39.3125" id="BitstreamVeraSans-Roman-33"/>
      </defs>
      <g transform="translate(195.3234375 401.70625)scale(0.12 -0.12)">
       <use xlink:href="#BitstreamVeraSans-Roman-33"/>
       <use x="63.623046875" xlink:href="#BitstreamVeraSans-Roman-30"/>
       <use x="127.24609375" xlink:href="#BitstreamVeraSans-Roman-30"/>
      </g>
     </g>
    </g>
    <g id="xtick_5">
     <g id="line2d_16">
      <path clip-path="url(#p7ff5b81e1d)" d="
M250.56 388.8
L250.56 43.2" style="fill:none;stroke:#000000;stroke-dasharray:1.000000,3.000000;stroke-dashoffset:0.0;stroke-linecap:butt;stroke-width:0.5;"/>
     </g>
     <g id="line2d_17">
      <g>
       <use style="stroke:#000000;stroke-linecap:butt;stroke-width:0.5;" x="250.56" xlink:href="#m0012dd4eef" y="388.8"/>
      </g>
     </g>
     <g id="line2d_18">
      <g>
       <use style="stroke:#000000;stroke-linecap:butt;stroke-width:0.5;" x="250.56" xlink:href="#m476344969c" y="43.2"/>
      </g>
     </g>
     <g id="text_5">
      <!-- 400 -->
      <defs>
       <path d="
M37.7969 64.3125
L12.8906 25.3906
L37.7969 25.3906
z

M35.2031 72.9062
L47.6094 72.9062
L47.6094 25.3906
L58.0156 25.3906
L58.0156 17.1875
L47.6094 17.1875
L47.6094 0
L37.7969 0
L37.7969 17.1875
L4.89062 17.1875
L4.89062 26.7031
z
" id="BitstreamVeraSans-Roman-34"/>
      </defs>
      <g transform="translate(239.799375 401.70625)scale(0.12 -0.12)">
       <use xlink:href="#BitstreamVeraSans-Roman-34"/>
       <use x="63.623046875" xlink:href="#BitstreamVeraSans-Roman-30"/>
       <use x="127.24609375" xlink:href="#BitstreamVeraSans-Roman-30"/>
      </g>
     </g>
    </g>
    <g id="xtick_6">
     <g id="line2d_19">
      <path clip-path="url(#p7ff5b81e1d)" d="
M295.2 388.8
L295.2 43.2" style="fill:none;stroke:#000000;stroke-dasharray:1.000000,3.000000;stroke-dashoffset:0.0;stroke-linecap:butt;stroke-width:0.5;"/>
     </g>
     <g id="line2d_20">
      <g>
       <use style="stroke:#000000;stroke-linecap:butt;stroke-width:0.5;" x="295.2" xlink:href="#m0012dd4eef" y="388.8"/>
      </g>
     </g>
     <g id="line2d_21">
      <g>
       <use style="stroke:#000000;stroke-linecap:butt;stroke-width:0.5;" x="295.2" xlink:href="#m476344969c" y="43.2"/>
      </g>
     </g>
     <g id="text_6">
      <!-- 500 -->
      <defs>
       <path d="
M10.7969 72.9062
L49.5156 72.9062
L49.5156 64.5938
L19.8281 64.5938
L19.8281 46.7344
Q21.9688 47.4688 24.1094 47.8281
Q26.2656 48.1875 28.4219 48.1875
Q40.625 48.1875 47.75 41.5
Q54.8906 34.8125 54.8906 23.3906
Q54.8906 11.625 47.5625 5.09375
Q40.2344 -1.42188 26.9062 -1.42188
Q22.3125 -1.42188 17.5469 -0.640625
Q12.7969 0.140625 7.71875 1.70312
L7.71875 11.625
Q12.1094 9.23438 16.7969 8.0625
Q21.4844 6.89062 26.7031 6.89062
Q35.1562 6.89062 40.0781 11.3281
Q45.0156 15.7656 45.0156 23.3906
Q45.0156 31 40.0781 35.4375
Q35.1562 39.8906 26.7031 39.8906
Q22.75 39.8906 18.8125 39.0156
Q14.8906 38.1406 10.7969 36.2812
z
" id="BitstreamVeraSans-Roman-35"/>
      </defs>
      <g transform="translate(284.6090625 401.70625)scale(0.12 -0.12)">
       <use xlink:href="#BitstreamVeraSans-Roman-35"/>
       <use x="63.623046875" xlink:href="#BitstreamVeraSans-Roman-30"/>
       <use x="127.24609375" xlink:href="#BitstreamVeraSans-Roman-30"/>
      </g>
     </g>
    </g>
    <g id="xtick_7">
     <g id="line2d_22">
      <path clip-path="url(#p7ff5b81e1d)" d="
M339.84 388.8
L339.84 43.2" style="fill:none;stroke:#000000;stroke-dasharray:1.000000,3.000000;stroke-dashoffset:0.0;stroke-linecap:butt;stroke-width:0.5;"/>
     </g>
     <g id="line2d_23">
      <g>
       <use style="stroke:#000000;stroke-linecap:butt;stroke-width:0.5;" x="339.84" xlink:href="#m0012dd4eef" y="388.8"/>
      </g>
     </g>
     <g id="line2d_24">
      <g>
       <use style="stroke:#000000;stroke-linecap:butt;stroke-width:0.5;" x="339.84" xlink:href="#m476344969c" y="43.2"/>
      </g>
     </g>
     <g id="text_7">
      <!-- 600 -->
      <defs>
       <path d="
M33.0156 40.375
Q26.375 40.375 22.4844 35.8281
Q18.6094 31.2969 18.6094 23.3906
Q18.6094 15.5312 22.4844 10.9531
Q26.375 6.39062 33.0156 6.39062
Q39.6562 6.39062 43.5312 10.9531
Q47.4062 15.5312 47.4062 23.3906
Q47.4062 31.2969 43.5312 35.8281
Q39.6562 40.375 33.0156 40.375
M52.5938 71.2969
L52.5938 62.3125
Q48.875 64.0625 45.0938 64.9844
Q41.3125 65.9219 37.5938 65.9219
Q27.8281 65.9219 22.6719 59.3281
Q17.5312 52.7344 16.7969 39.4062
Q19.6719 43.6562 24.0156 45.9219
Q28.375 48.1875 33.5938 48.1875
Q44.5781 48.1875 50.9531 41.5156
Q57.3281 34.8594 57.3281 23.3906
Q57.3281 12.1562 50.6875 5.35938
Q44.0469 -1.42188 33.0156 -1.42188
Q20.3594 -1.42188 13.6719 8.26562
Q6.98438 17.9688 6.98438 36.375
Q6.98438 53.6562 15.1875 63.9375
Q23.3906 74.2188 37.2031 74.2188
Q40.9219 74.2188 44.7031 73.4844
Q48.4844 72.75 52.5938 71.2969" id="BitstreamVeraSans-Roman-36"/>
      </defs>
      <g transform="translate(329.205 401.70625)scale(0.12 -0.12)">
       <use xlink:href="#BitstreamVeraSans-Roman-36"/>
       <use x="63.623046875" xlink:href="#BitstreamVeraSans-Roman-30"/>
       <use x="127.24609375" xlink:href="#BitstreamVeraSans-Roman-30"/>
      </g>
     </g>
    </g>
    <g id="xtick_8">
     <g id="line2d_25">
      <path clip-path="url(#p7ff5b81e1d)" d="
M384.48 388.8
L384.48 43.2" style="fill:none;stroke:#000000;stroke-dasharray:1.000000,3.000000;stroke-dashoffset:0.0;stroke-linecap:butt;stroke-width:0.5;"/>
     </g>
     <g id="line2d_26">
      <g>
       <use style="stroke:#000000;stroke-linecap:butt;stroke-width:0.5;" x="384.48" xlink:href="#m0012dd4eef" y="388.8"/>
      </g>
     </g>
     <g id="line2d_27">
      <g>
       <use style="stroke:#000000;stroke-linecap:butt;stroke-width:0.5;" x="384.48" xlink:href="#m476344969c" y="43.2"/>
      </g>
     </g>
     <g id="text_8">
      <!-- 700 -->
      <defs>
       <path d="
M8.20312 72.9062
L55.0781 72.9062
L55.0781 68.7031
L28.6094 0
L18.3125 0
L43.2188 64.5938
L8.20312 64.5938
z
" id="BitstreamVeraSans-Roman-37"/>
      </defs>
      <g transform="translate(373.918125 401.70625)scale(0.12 -0.12)">
       <use xlink:href="#BitstreamVeraSans-Roman-37"/>
       <use x="63.623046875" xlink:href="#BitstreamVeraSans-Roman-30"/>
       <use x="127.24609375" xlink:href="#BitstreamVeraSans-Roman-30"/>
      </g>
     </g>
    </g>
    <g id="xtick_9">
     <g id="line2d_28">
      <path clip-path="url(#p7ff5b81e1d)" d="
M429.12 388.8
L429.12 43.2" style="fill:none;stroke:#000000;stroke-dasharray:1.000000,3.000000;stroke-dashoffset:0.0;stroke-linecap:butt;stroke-width:0.5;"/>
     </g>
     <g id="line2d_29">
      <g>
       <use style="stroke:#000000;stroke-linecap:butt;stroke-width:0.5;" x="429.12" xlink:href="#m0012dd4eef" y="388.8"/>
      </g>
     </g>
     <g id="line2d_30">
      <g>
       <use style="stroke:#000000;stroke-linecap:butt;stroke-width:0.5;" x="429.12" xlink:href="#m476344969c" y="43.2"/>
      </g>
     </g>
     <g id="text_9">
      <!-- 800 -->
      <defs>
       <path d="
M31.7812 34.625
Q24.75 34.625 20.7188 30.8594
Q16.7031 27.0938 16.7031 20.5156
Q16.7031 13.9219 20.7188 10.1562
Q24.75 6.39062 31.7812 6.39062
Q38.8125 6.39062 42.8594 10.1719
Q46.9219 13.9688 46.9219 20.5156
Q46.9219 27.0938 42.8906 30.8594
Q38.875 34.625 31.7812 34.625
M21.9219 38.8125
Q15.5781 40.375 12.0312 44.7188
Q8.5 49.0781 8.5 55.3281
Q8.5 64.0625 14.7188 69.1406
Q20.9531 74.2188 31.7812 74.2188
Q42.6719 74.2188 48.875 69.1406
Q55.0781 64.0625 55.0781 55.3281
Q55.0781 49.0781 51.5312 44.7188
Q48 40.375 41.7031 38.8125
Q48.8281 37.1562 52.7969 32.3125
Q56.7812 27.4844 56.7812 20.5156
Q56.7812 9.90625 50.3125 4.23438
Q43.8438 -1.42188 31.7812 -1.42188
Q19.7344 -1.42188 13.25 4.23438
Q6.78125 9.90625 6.78125 20.5156
Q6.78125 27.4844 10.7812 32.3125
Q14.7969 37.1562 21.9219 38.8125
M18.3125 54.3906
Q18.3125 48.7344 21.8438 45.5625
Q25.3906 42.3906 31.7812 42.3906
Q38.1406 42.3906 41.7188 45.5625
Q45.3125 48.7344 45.3125 54.3906
Q45.3125 60.0625 41.7188 63.2344
Q38.1406 66.4062 31.7812 66.4062
Q25.3906 66.4062 21.8438 63.2344
Q18.3125 60.0625 18.3125 54.3906" id="BitstreamVeraSans-Roman-38"/>
      </defs>
      <g transform="translate(418.4728125 401.70625)scale(0.12 -0.12)">
       <use xlink:href="#BitstreamVeraSans-Roman-38"/>
       <use x="63.623046875" xlink:href="#BitstreamVeraSans-Roman-30"/>
       <use x="127.24609375" xlink:href="#BitstreamVeraSans-Roman-30"/>
      </g>
     </g>
    </g>
    <g id="xtick_10">
     <g id="line2d_31">
      <path clip-path="url(#p7ff5b81e1d)" d="
M473.76 388.8
L473.76 43.2" style="fill:none;stroke:#000000;stroke-dasharray:1.000000,3.000000;stroke-dashoffset:0.0;stroke-linecap:butt;stroke-width:0.5;"/>
     </g>
     <g id="line2d_32">
      <g>
       <use style="stroke:#000000;stroke-linecap:butt;stroke-width:0.5;" x="473.76" xlink:href="#m0012dd4eef" y="388.8"/>
      </g>
     </g>
     <g id="line2d_33">
      <g>
       <use style="stroke:#000000;stroke-linecap:butt;stroke-width:0.5;" x="473.76" xlink:href="#m476344969c" y="43.2"/>
      </g>
     </g>
     <g id="text_10">
      <!-- 900 -->
      <defs>
       <path d="
M10.9844 1.51562
L10.9844 10.5
Q14.7031 8.73438 18.5 7.8125
Q22.3125 6.89062 25.9844 6.89062
Q35.75 6.89062 40.8906 13.4531
Q46.0469 20.0156 46.7812 33.4062
Q43.9531 29.2031 39.5938 26.9531
Q35.25 24.7031 29.9844 24.7031
Q19.0469 24.7031 12.6719 31.3125
Q6.29688 37.9375 6.29688 49.4219
Q6.29688 60.6406 12.9375 67.4219
Q19.5781 74.2188 30.6094 74.2188
Q43.2656 74.2188 49.9219 64.5156
Q56.5938 54.8281 56.5938 36.375
Q56.5938 19.1406 48.4062 8.85938
Q40.2344 -1.42188 26.4219 -1.42188
Q22.7031 -1.42188 18.8906 -0.6875
Q15.0938 0.046875 10.9844 1.51562
M30.6094 32.4219
Q37.25 32.4219 41.125 36.9531
Q45.0156 41.5 45.0156 49.4219
Q45.0156 57.2812 41.125 61.8438
Q37.25 66.4062 30.6094 66.4062
Q23.9688 66.4062 20.0938 61.8438
Q16.2188 57.2812 16.2188 49.4219
Q16.2188 41.5 20.0938 36.9531
Q23.9688 32.4219 30.6094 32.4219" id="BitstreamVeraSans-Roman-39"/>
      </defs>
      <g transform="translate(463.08375 401.70625)scale(0.12 -0.12)">
       <use xlink:href="#BitstreamVeraSans-Roman-39"/>
       <use x="63.623046875" xlink:href="#BitstreamVeraSans-Roman-30"/>
       <use x="127.24609375" xlink:href="#BitstreamVeraSans-Roman-30"/>
      </g>
     </g>
    </g>
   </g>
   <g id="matplotlib.axis_2">
    <g id="ytick_1">
     <g id="line2d_34">
      <path clip-path="url(#p7ff5b81e1d)" d="
M72 388.8
L518.4 388.8" style="fill:none;stroke:#000000;stroke-dasharray:1.000000,3.000000;stroke-dashoffset:0.0;stroke-linecap:butt;stroke-width:0.5;"/>
     </g>
     <g id="line2d_35">
      <defs>
       <path d="
M0 0
L4 0" id="me8a85f7bf6" style="stroke:#000000;stroke-linecap:butt;stroke-width:0.5;"/>
      </defs>
      <g>
       <use style="stroke:#000000;stroke-linecap:butt;stroke-width:0.5;" x="72.0" xlink:href="#me8a85f7bf6" y="388.8"/>
      </g>
     </g>
     <g id="line2d_36">
      <defs>
       <path d="
M0 0
L-4 0" id="m1a32005dea" style="stroke:#000000;stroke-linecap:butt;stroke-width:0.5;"/>
      </defs>
      <g>
       <use style="stroke:#000000;stroke-linecap:butt;stroke-width:0.5;" x="518.4" xlink:href="#m1a32005dea" y="388.8"/>
      </g>
     </g>
     <g id="text_11">
      <!-- 0.00 -->
      <defs>
       <path d="
M10.6875 12.4062
L21 12.4062
L21 0
L10.6875 0
z
" id="BitstreamVeraSans-Roman-2e"/>
      </defs>
      <g transform="translate(42.869375 393.1678125)scale(0.12 -0.12)">
       <use xlink:href="#BitstreamVeraSans-Roman-30"/>
       <use x="63.623046875" xlink:href="#BitstreamVeraSans-Roman-2e"/>
       <use x="95.41015625" xlink:href="#BitstreamVeraSans-Roman-30"/>
       <use x="159.033203125" xlink:href="#BitstreamVeraSans-Roman-30"/>
      </g>
     </g>
    </g>
    <g id="ytick_2">
     <g id="line2d_37">
      <path clip-path="url(#p7ff5b81e1d)" d="
M72 354.24
L518.4 354.24" style="fill:none;stroke:#000000;stroke-dasharray:1.000000,3.000000;stroke-dashoffset:0.0;stroke-linecap:butt;stroke-width:0.5;"/>
     </g>
     <g id="line2d_38">
      <g>
       <use style="stroke:#000000;stroke-linecap:butt;stroke-width:0.5;" x="72.0" xlink:href="#me8a85f7bf6" y="354.24"/>
      </g>
     </g>
     <g id="line2d_39">
      <g>
       <use style="stroke:#000000;stroke-linecap:butt;stroke-width:0.5;" x="518.4" xlink:href="#m1a32005dea" y="354.24"/>
      </g>
     </g>
     <g id="text_12">
      <!-- 0.02 -->
      <g transform="translate(43.274375 358.6078125)scale(0.12 -0.12)">
       <use xlink:href="#BitstreamVeraSans-Roman-30"/>
       <use x="63.623046875" xlink:href="#BitstreamVeraSans-Roman-2e"/>
       <use x="95.41015625" xlink:href="#BitstreamVeraSans-Roman-30"/>
       <use x="159.033203125" xlink:href="#BitstreamVeraSans-Roman-32"/>
      </g>
     </g>
    </g>
    <g id="ytick_3">
     <g id="line2d_40">
      <path clip-path="url(#p7ff5b81e1d)" d="
M72 319.68
L518.4 319.68" style="fill:none;stroke:#000000;stroke-dasharray:1.000000,3.000000;stroke-dashoffset:0.0;stroke-linecap:butt;stroke-width:0.5;"/>
     </g>
     <g id="line2d_41">
      <g>
       <use style="stroke:#000000;stroke-linecap:butt;stroke-width:0.5;" x="72.0" xlink:href="#me8a85f7bf6" y="319.68"/>
      </g>
     </g>
     <g id="line2d_42">
      <g>
       <use style="stroke:#000000;stroke-linecap:butt;stroke-width:0.5;" x="518.4" xlink:href="#m1a32005dea" y="319.68"/>
      </g>
     </g>
     <g id="text_13">
      <!-- 0.04 -->
      <g transform="translate(42.745625 324.0478125)scale(0.12 -0.12)">
       <use xlink:href="#BitstreamVeraSans-Roman-30"/>
       <use x="63.623046875" xlink:href="#BitstreamVeraSans-Roman-2e"/>
       <use x="95.41015625" xlink:href="#BitstreamVeraSans-Roman-30"/>
       <use x="159.033203125" xlink:href="#BitstreamVeraSans-Roman-34"/>
      </g>
     </g>
    </g>
    <g id="ytick_4">
     <g id="line2d_43">
      <path clip-path="url(#p7ff5b81e1d)" d="
M72 285.12
L518.4 285.12" style="fill:none;stroke:#000000;stroke-dasharray:1.000000,3.000000;stroke-dashoffset:0.0;stroke-linecap:butt;stroke-width:0.5;"/>
     </g>
     <g id="line2d_44">
      <g>
       <use style="stroke:#000000;stroke-linecap:butt;stroke-width:0.5;" x="72.0" xlink:href="#me8a85f7bf6" y="285.12"/>
      </g>
     </g>
     <g id="line2d_45">
      <g>
       <use style="stroke:#000000;stroke-linecap:butt;stroke-width:0.5;" x="518.4" xlink:href="#m1a32005dea" y="285.12"/>
      </g>
     </g>
     <g id="text_14">
      <!-- 0.06 -->
      <g transform="translate(42.828125 289.4878125)scale(0.12 -0.12)">
       <use xlink:href="#BitstreamVeraSans-Roman-30"/>
       <use x="63.623046875" xlink:href="#BitstreamVeraSans-Roman-2e"/>
       <use x="95.41015625" xlink:href="#BitstreamVeraSans-Roman-30"/>
       <use x="159.033203125" xlink:href="#BitstreamVeraSans-Roman-36"/>
      </g>
     </g>
    </g>
    <g id="ytick_5">
     <g id="line2d_46">
      <path clip-path="url(#p7ff5b81e1d)" d="
M72 250.56
L518.4 250.56" style="fill:none;stroke:#000000;stroke-dasharray:1.000000,3.000000;stroke-dashoffset:0.0;stroke-linecap:butt;stroke-width:0.5;"/>
     </g>
     <g id="line2d_47">
      <g>
       <use style="stroke:#000000;stroke-linecap:butt;stroke-width:0.5;" x="72.0" xlink:href="#me8a85f7bf6" y="250.56"/>
      </g>
     </g>
     <g id="line2d_48">
      <g>
       <use style="stroke:#000000;stroke-linecap:butt;stroke-width:0.5;" x="518.4" xlink:href="#m1a32005dea" y="250.56"/>
      </g>
     </g>
     <g id="text_15">
      <!-- 0.08 -->
      <g transform="translate(42.89375 254.9278125)scale(0.12 -0.12)">
       <use xlink:href="#BitstreamVeraSans-Roman-30"/>
       <use x="63.623046875" xlink:href="#BitstreamVeraSans-Roman-2e"/>
       <use x="95.41015625" xlink:href="#BitstreamVeraSans-Roman-30"/>
       <use x="159.033203125" xlink:href="#BitstreamVeraSans-Roman-38"/>
      </g>
     </g>
    </g>
    <g id="ytick_6">
     <g id="line2d_49">
      <path clip-path="url(#p7ff5b81e1d)" d="
M72 216
L518.4 216" style="fill:none;stroke:#000000;stroke-dasharray:1.000000,3.000000;stroke-dashoffset:0.0;stroke-linecap:butt;stroke-width:0.5;"/>
     </g>
     <g id="line2d_50">
      <g>
       <use style="stroke:#000000;stroke-linecap:butt;stroke-width:0.5;" x="72.0" xlink:href="#me8a85f7bf6" y="216.0"/>
      </g>
     </g>
     <g id="line2d_51">
      <g>
       <use style="stroke:#000000;stroke-linecap:butt;stroke-width:0.5;" x="518.4" xlink:href="#m1a32005dea" y="216.0"/>
      </g>
     </g>
     <g id="text_16">
      <!-- 0.10 -->
      <g transform="translate(42.869375 220.3678125)scale(0.12 -0.12)">
       <use xlink:href="#BitstreamVeraSans-Roman-30"/>
       <use x="63.623046875" xlink:href="#BitstreamVeraSans-Roman-2e"/>
       <use x="95.41015625" xlink:href="#BitstreamVeraSans-Roman-31"/>
       <use x="159.033203125" xlink:href="#BitstreamVeraSans-Roman-30"/>
      </g>
     </g>
    </g>
    <g id="ytick_7">
     <g id="line2d_52">
      <path clip-path="url(#p7ff5b81e1d)" d="
M72 181.44
L518.4 181.44" style="fill:none;stroke:#000000;stroke-dasharray:1.000000,3.000000;stroke-dashoffset:0.0;stroke-linecap:butt;stroke-width:0.5;"/>
     </g>
     <g id="line2d_53">
      <g>
       <use style="stroke:#000000;stroke-linecap:butt;stroke-width:0.5;" x="72.0" xlink:href="#me8a85f7bf6" y="181.44"/>
      </g>
     </g>
     <g id="line2d_54">
      <g>
       <use style="stroke:#000000;stroke-linecap:butt;stroke-width:0.5;" x="518.4" xlink:href="#m1a32005dea" y="181.44"/>
      </g>
     </g>
     <g id="text_17">
      <!-- 0.12 -->
      <g transform="translate(43.274375 185.8078125)scale(0.12 -0.12)">
       <use xlink:href="#BitstreamVeraSans-Roman-30"/>
       <use x="63.623046875" xlink:href="#BitstreamVeraSans-Roman-2e"/>
       <use x="95.41015625" xlink:href="#BitstreamVeraSans-Roman-31"/>
       <use x="159.033203125" xlink:href="#BitstreamVeraSans-Roman-32"/>
      </g>
     </g>
    </g>
    <g id="ytick_8">
     <g id="line2d_55">
      <path clip-path="url(#p7ff5b81e1d)" d="
M72 146.88
L518.4 146.88" style="fill:none;stroke:#000000;stroke-dasharray:1.000000,3.000000;stroke-dashoffset:0.0;stroke-linecap:butt;stroke-width:0.5;"/>
     </g>
     <g id="line2d_56">
      <g>
       <use style="stroke:#000000;stroke-linecap:butt;stroke-width:0.5;" x="72.0" xlink:href="#me8a85f7bf6" y="146.88"/>
      </g>
     </g>
     <g id="line2d_57">
      <g>
       <use style="stroke:#000000;stroke-linecap:butt;stroke-width:0.5;" x="518.4" xlink:href="#m1a32005dea" y="146.88"/>
      </g>
     </g>
     <g id="text_18">
      <!-- 0.14 -->
      <g transform="translate(42.745625 151.2478125)scale(0.12 -0.12)">
       <use xlink:href="#BitstreamVeraSans-Roman-30"/>
       <use x="63.623046875" xlink:href="#BitstreamVeraSans-Roman-2e"/>
       <use x="95.41015625" xlink:href="#BitstreamVeraSans-Roman-31"/>
       <use x="159.033203125" xlink:href="#BitstreamVeraSans-Roman-34"/>
      </g>
     </g>
    </g>
    <g id="ytick_9">
     <g id="line2d_58">
      <path clip-path="url(#p7ff5b81e1d)" d="
M72 112.32
L518.4 112.32" style="fill:none;stroke:#000000;stroke-dasharray:1.000000,3.000000;stroke-dashoffset:0.0;stroke-linecap:butt;stroke-width:0.5;"/>
     </g>
     <g id="line2d_59">
      <g>
       <use style="stroke:#000000;stroke-linecap:butt;stroke-width:0.5;" x="72.0" xlink:href="#me8a85f7bf6" y="112.32"/>
      </g>
     </g>
     <g id="line2d_60">
      <g>
       <use style="stroke:#000000;stroke-linecap:butt;stroke-width:0.5;" x="518.4" xlink:href="#m1a32005dea" y="112.32"/>
      </g>
     </g>
     <g id="text_19">
      <!-- 0.16 -->
      <g transform="translate(42.828125 116.6878125)scale(0.12 -0.12)">
       <use xlink:href="#BitstreamVeraSans-Roman-30"/>
       <use x="63.623046875" xlink:href="#BitstreamVeraSans-Roman-2e"/>
       <use x="95.41015625" xlink:href="#BitstreamVeraSans-Roman-31"/>
       <use x="159.033203125" xlink:href="#BitstreamVeraSans-Roman-36"/>
      </g>
     </g>
    </g>
    <g id="ytick_10">
     <g id="line2d_61">
      <path clip-path="url(#p7ff5b81e1d)" d="
M72 77.76
L518.4 77.76" style="fill:none;stroke:#000000;stroke-dasharray:1.000000,3.000000;stroke-dashoffset:0.0;stroke-linecap:butt;stroke-width:0.5;"/>
     </g>
     <g id="line2d_62">
      <g>
       <use style="stroke:#000000;stroke-linecap:butt;stroke-width:0.5;" x="72.0" xlink:href="#me8a85f7bf6" y="77.76"/>
      </g>
     </g>
     <g id="line2d_63">
      <g>
       <use style="stroke:#000000;stroke-linecap:butt;stroke-width:0.5;" x="518.4" xlink:href="#m1a32005dea" y="77.76"/>
      </g>
     </g>
     <g id="text_20">
      <!-- 0.18 -->
      <g transform="translate(42.89375 82.1278125)scale(0.12 -0.12)">
       <use xlink:href="#BitstreamVeraSans-Roman-30"/>
       <use x="63.623046875" xlink:href="#BitstreamVeraSans-Roman-2e"/>
       <use x="95.41015625" xlink:href="#BitstreamVeraSans-Roman-31"/>
       <use x="159.033203125" xlink:href="#BitstreamVeraSans-Roman-38"/>
      </g>
     </g>
    </g>
    <g id="text_21">
     <!-- Sec/file -->
     <defs>
      <path d="
M9.42188 75.9844
L18.4062 75.9844
L18.4062 0
L9.42188 0
z
" id="BitstreamVeraSans-Roman-6c"/>
      <path d="
M53.5156 70.5156
L53.5156 60.8906
Q47.9062 63.5781 42.9219 64.8906
Q37.9375 66.2188 33.2969 66.2188
Q25.25 66.2188 20.875 63.0938
Q16.5 59.9688 16.5 54.2031
Q16.5 49.3594 19.4062 46.8906
Q22.3125 44.4375 30.4219 42.9219
L36.375 41.7031
Q47.4062 39.5938 52.6562 34.2969
Q57.9062 29 57.9062 20.125
Q57.9062 9.51562 50.7969 4.04688
Q43.7031 -1.42188 29.9844 -1.42188
Q24.8125 -1.42188 18.9688 -0.25
Q13.1406 0.921875 6.89062 3.21875
L6.89062 13.375
Q12.8906 10.0156 18.6562 8.29688
Q24.4219 6.59375 29.9844 6.59375
Q38.4219 6.59375 43.0156 9.90625
Q47.6094 13.2344 47.6094 19.3906
Q47.6094 24.75 44.3125 27.7812
Q41.0156 30.8125 33.5 32.3281
L27.4844 33.5
Q16.4531 35.6875 11.5156 40.375
Q6.59375 45.0625 6.59375 53.4219
Q6.59375 63.0938 13.4062 68.6562
Q20.2188 74.2188 32.1719 74.2188
Q37.3125 74.2188 42.625 73.2812
Q47.9531 72.3594 53.5156 70.5156" id="BitstreamVeraSans-Roman-53"/>
      <path d="
M9.42188 54.6875
L18.4062 54.6875
L18.4062 0
L9.42188 0
z

M9.42188 75.9844
L18.4062 75.9844
L18.4062 64.5938
L9.42188 64.5938
z
" id="BitstreamVeraSans-Roman-69"/>
      <path d="
M25.3906 72.9062
L33.6875 72.9062
L8.29688 -9.28125
L0 -9.28125
z
" id="BitstreamVeraSans-Roman-2f"/>
      <path d="
M56.2031 29.5938
L56.2031 25.2031
L14.8906 25.2031
Q15.4844 15.9219 20.4844 11.0625
Q25.4844 6.20312 34.4219 6.20312
Q39.5938 6.20312 44.4531 7.46875
Q49.3125 8.73438 54.1094 11.2812
L54.1094 2.78125
Q49.2656 0.734375 44.1875 -0.34375
Q39.1094 -1.42188 33.8906 -1.42188
Q20.7969 -1.42188 13.1562 6.1875
Q5.51562 13.8125 5.51562 26.8125
Q5.51562 40.2344 12.7656 48.1094
Q20.0156 56 32.3281 56
Q43.3594 56 49.7812 48.8906
Q56.2031 41.7969 56.2031 29.5938
M47.2188 32.2344
Q47.125 39.5938 43.0938 43.9844
Q39.0625 48.3906 32.4219 48.3906
Q24.9062 48.3906 20.3906 44.1406
Q15.875 39.8906 15.1875 32.1719
z
" id="BitstreamVeraSans-Roman-65"/>
      <path d="
M37.1094 75.9844
L37.1094 68.5
L28.5156 68.5
Q23.6875 68.5 21.7969 66.5469
Q19.9219 64.5938 19.9219 59.5156
L19.9219 54.6875
L34.7188 54.6875
L34.7188 47.7031
L19.9219 47.7031
L19.9219 0
L10.8906 0
L10.8906 47.7031
L2.29688 47.7031
L2.29688 54.6875
L10.8906 54.6875
L10.8906 58.5
Q10.8906 67.625 15.1406 71.7969
Q19.3906 75.9844 28.6094 75.9844
z
" id="BitstreamVeraSans-Roman-66"/>
      <path d="
M48.7812 52.5938
L48.7812 44.1875
Q44.9688 46.2969 41.1406 47.3438
Q37.3125 48.3906 33.4062 48.3906
Q24.6562 48.3906 19.8125 42.8438
Q14.9844 37.3125 14.9844 27.2969
Q14.9844 17.2812 19.8125 11.7344
Q24.6562 6.20312 33.4062 6.20312
Q37.3125 6.20312 41.1406 7.25
Q44.9688 8.29688 48.7812 10.4062
L48.7812 2.09375
Q45.0156 0.34375 40.9844 -0.53125
Q36.9688 -1.42188 32.4219 -1.42188
Q20.0625 -1.42188 12.7812 6.34375
Q5.51562 14.1094 5.51562 27.2969
Q5.51562 40.6719 12.8594 48.3281
Q20.2188 56 33.0156 56
Q37.1562 56 41.1094 55.1406
Q45.0625 54.2969 48.7812 52.5938" id="BitstreamVeraSans-Roman-63"/>
     </defs>
     <g transform="translate(37.745625 236.13)rotate(-90.0)scale(0.12 -0.12)">
      <use xlink:href="#BitstreamVeraSans-Roman-53"/>
      <use x="63.4765625" xlink:href="#BitstreamVeraSans-Roman-65"/>
      <use x="125.0" xlink:href="#BitstreamVeraSans-Roman-63"/>
      <use x="179.98046875" xlink:href="#BitstreamVeraSans-Roman-2f"/>
      <use x="213.671875" xlink:href="#BitstreamVeraSans-Roman-66"/>
      <use x="248.876953125" xlink:href="#BitstreamVeraSans-Roman-69"/>
      <use x="276.66015625" xlink:href="#BitstreamVeraSans-Roman-6c"/>
      <use x="304.443359375" xlink:href="#BitstreamVeraSans-Roman-65"/>
     </g>
    </g>
   </g>
   <g id="patch_3">
    <path d="
M72 43.2
L518.4 43.2" style="fill:none;stroke:#000000;"/>
   </g>
   <g id="patch_4">
    <path d="
M518.4 388.8
L518.4 43.2" style="fill:none;stroke:#000000;"/>
   </g>
   <g id="patch_5">
    <path d="
M72 388.8
L518.4 388.8" style="fill:none;stroke:#000000;"/>
   </g>
   <g id="patch_6">
    <path d="
M72 388.8
L72 43.2" style="fill:none;stroke:#000000;"/>
   </g>
   <g id="text_22">
    <!-- Seq -->
    <defs>
     <path d="
M14.7969 27.2969
Q14.7969 17.3906 18.875 11.75
Q22.9531 6.10938 30.0781 6.10938
Q37.2031 6.10938 41.2969 11.75
Q45.4062 17.3906 45.4062 27.2969
Q45.4062 37.2031 41.2969 42.8438
Q37.2031 48.4844 30.0781 48.4844
Q22.9531 48.4844 18.875 42.8438
Q14.7969 37.2031 14.7969 27.2969
M45.4062 8.20312
Q42.5781 3.32812 38.25 0.953125
Q33.9375 -1.42188 27.875 -1.42188
Q17.9688 -1.42188 11.7344 6.48438
Q5.51562 14.4062 5.51562 27.2969
Q5.51562 40.1875 11.7344 48.0938
Q17.9688 56 27.875 56
Q33.9375 56 38.25 53.625
Q42.5781 51.2656 45.4062 46.3906
L45.4062 54.6875
L54.3906 54.6875
L54.3906 -20.7969
L45.4062 -20.7969
z
" id="BitstreamVeraSans-Roman-71"/>
    </defs>
    <g transform="translate(282.7575 38.2)scale(0.144 -0.144)">
     <use xlink:href="#BitstreamVeraSans-Roman-53"/>
     <use x="63.4765625" xlink:href="#BitstreamVeraSans-Roman-65"/>
     <use x="125.0" xlink:href="#BitstreamVeraSans-Roman-71"/>
    </g>
   </g>
   <g id="legend_1">
    <g id="patch_7">
     <path d="
M429.055 115.339
L511.2 115.339
L511.2 50.4
L429.055 50.4
L429.055 115.339
z
" style="fill:#ffffff;stroke:#000000;"/>
    </g>
    <g id="line2d_64">
     <path d="
M439.135 62.0617
L459.295 62.0617" style="fill:none;stroke:#ff0000;"/>
    </g>
    <g id="line2d_65"/>
    <g id="text_23">
     <!-- LRU -->
     <defs>
      <path d="
M44.3906 34.1875
Q47.5625 33.1094 50.5625 29.5938
Q53.5625 26.0781 56.5938 19.9219
L66.6094 0
L56 0
L46.6875 18.7031
Q43.0625 26.0312 39.6719 28.4219
Q36.2812 30.8125 30.4219 30.8125
L19.6719 30.8125
L19.6719 0
L9.8125 0
L9.8125 72.9062
L32.0781 72.9062
Q44.5781 72.9062 50.7344 67.6719
Q56.8906 62.4531 56.8906 51.9062
Q56.8906 45.0156 53.6875 40.4688
Q50.4844 35.9375 44.3906 34.1875
M19.6719 64.7969
L19.6719 38.9219
L32.0781 38.9219
Q39.2031 38.9219 42.8438 42.2188
Q46.4844 45.5156 46.4844 51.9062
Q46.4844 58.2969 42.8438 61.5469
Q39.2031 64.7969 32.0781 64.7969
z
" id="BitstreamVeraSans-Roman-52"/>
      <path d="
M9.8125 72.9062
L19.6719 72.9062
L19.6719 8.29688
L55.1719 8.29688
L55.1719 0
L9.8125 0
z
" id="BitstreamVeraSans-Roman-4c"/>
      <path d="
M8.6875 72.9062
L18.6094 72.9062
L18.6094 28.6094
Q18.6094 16.8906 22.8438 11.7344
Q27.0938 6.59375 36.625 6.59375
Q46.0938 6.59375 50.3438 11.7344
Q54.5938 16.8906 54.5938 28.6094
L54.5938 72.9062
L64.5 72.9062
L64.5 27.3906
Q64.5 13.1406 57.4375 5.85938
Q50.3906 -1.42188 36.625 -1.42188
Q22.7969 -1.42188 15.7344 5.85938
Q8.6875 13.1406 8.6875 27.3906
z
" id="BitstreamVeraSans-Roman-55"/>
     </defs>
     <g transform="translate(475.13475 67.10175)scale(0.144 -0.144)">
      <use xlink:href="#BitstreamVeraSans-Roman-4c"/>
      <use x="55.712890625" xlink:href="#BitstreamVeraSans-Roman-52"/>
      <use x="125.1953125" xlink:href="#BitstreamVeraSans-Roman-55"/>
     </g>
    </g>
    <g id="line2d_66">
     <path d="
M439.135 83.1983
L459.295 83.1983" style="fill:none;opacity:0.7;stroke:#008000;"/>
    </g>
    <g id="line2d_67"/>
    <g id="text_24">
     <!-- MRU -->
     <defs>
      <path d="
M9.8125 72.9062
L24.5156 72.9062
L43.1094 23.2969
L61.8125 72.9062
L76.5156 72.9062
L76.5156 0
L66.8906 0
L66.8906 64.0156
L48.0938 14.0156
L38.1875 14.0156
L19.3906 64.0156
L19.3906 0
L9.8125 0
z
" id="BitstreamVeraSans-Roman-4d"/>
     </defs>
     <g transform="translate(475.13475 88.23825)scale(0.144 -0.144)">
      <use xlink:href="#BitstreamVeraSans-Roman-4d"/>
      <use x="86.279296875" xlink:href="#BitstreamVeraSans-Roman-52"/>
      <use x="155.76171875" xlink:href="#BitstreamVeraSans-Roman-55"/>
     </g>
    </g>
    <g id="line2d_68">
     <path d="
M439.135 104.335
L459.295 104.335" style="fill:none;opacity:0.5;stroke:#0000ff;"/>
    </g>
    <g id="line2d_69"/>
    <g id="text_25">
     <!-- FIFO -->
     <defs>
      <path d="
M9.8125 72.9062
L51.7031 72.9062
L51.7031 64.5938
L19.6719 64.5938
L19.6719 43.1094
L48.5781 43.1094
L48.5781 34.8125
L19.6719 34.8125
L19.6719 0
L9.8125 0
z
" id="BitstreamVeraSans-Roman-46"/>
      <path d="
M9.8125 72.9062
L19.6719 72.9062
L19.6719 0
L9.8125 0
z
" id="BitstreamVeraSans-Roman-49"/>
      <path d="
M39.4062 66.2188
Q28.6562 66.2188 22.3281 58.2031
Q16.0156 50.2031 16.0156 36.375
Q16.0156 22.6094 22.3281 14.5938
Q28.6562 6.59375 39.4062 6.59375
Q50.1406 6.59375 56.4219 14.5938
Q62.7031 22.6094 62.7031 36.375
Q62.7031 50.2031 56.4219 58.2031
Q50.1406 66.2188 39.4062 66.2188
M39.4062 74.2188
Q54.7344 74.2188 63.9062 63.9375
Q73.0938 53.6562 73.0938 36.375
Q73.0938 19.1406 63.9062 8.85938
Q54.7344 -1.42188 39.4062 -1.42188
Q24.0312 -1.42188 14.8125 8.82812
Q5.60938 19.0938 5.60938 36.375
Q5.60938 53.6562 14.8125 63.9375
Q24.0312 74.2188 39.4062 74.2188" id="BitstreamVeraSans-Roman-4f"/>
     </defs>
     <g transform="translate(475.13475 109.37475)scale(0.144 -0.144)">
      <use xlink:href="#BitstreamVeraSans-Roman-46"/>
      <use x="57.51953125" xlink:href="#BitstreamVeraSans-Roman-49"/>
      <use x="87.01171875" xlink:href="#BitstreamVeraSans-Roman-46"/>
      <use x="144.53125" xlink:href="#BitstreamVeraSans-Roman-4f"/>
     </g>
    </g>
   </g>
  </g>
 </g>
 <defs>
  <clipPath id="p7ff5b81e1d">
   <rect height="345.6" width="446.4" x="72.0" y="43.2"/>
  </clipPath>
 </defs>
</svg>
