<?xml version="1.0" encoding="utf-8" standalone="no"?>
<!DOCTYPE svg PUBLIC "-//W3C//DTD SVG 1.1//EN"
  "http://www.w3.org/Graphics/SVG/1.1/DTD/svg11.dtd">
<!-- Created with matplotlib (http://matplotlib.sourceforge.net/) -->
<svg height="432pt" version="1.1" viewBox="0 0 576 432" width="576pt" xmlns="http://www.w3.org/2000/svg" xmlns:xlink="http://www.w3.org/1999/xlink">
 <defs>
  <style type="text/css">
*{stroke-linecap:square;stroke-linejoin:round;}
  </style>
 </defs>
 <g id="figure_1">
  <g id="patch_1">
   <path d="
M0 432
L576 432
L576 0
L0 0
z
" style="fill:#ffffff;"/>
  </g>
  <g id="axes_1">
   <g id="patch_2">
    <path d="
M72 388.8
L518.4 388.8
L518.4 43.2
L72 43.2
z
" style="fill:#ffffff;"/>
   </g>
   <g id="line2d_1">
    <path clip-path="url(#p7ff5b81e1d)" d="
M72 264.71
L72.4464 154.094
L72.8928 269.563
L73.3392 267.597
L73.7856 240.294
L74.232 264.092
L74.6784 261.279
L75.1248 262.614
L75.5712 262.171
L76.0176 262.974
L76.464 263.336
L76.9104 262.185
L77.3568 262.879
L77.8032 261.156
L78.2496 262.577
L78.696 246.373
L79.1424 268.109
L79.5888 267.724
L80.0352 260.189
L80.4816 266.895
L80.928 261.609
L81.3744 262.234
L81.8208 225.467
L82.2672 249.323
L82.7136 261.269
L83.16 239.552
L83.6064 262.841
L84.0528 264.761
L84.4992 267.241
L84.9456 266.43
L85.392 260.77
L85.8384 266.025
L86.2848 260.237
L86.7312 267.797
L87.1776 261.689
L87.624 262.31
L88.0704 231.995
L88.5168 261.452
L89.4096 268.739
L89.856 267.47
L90.3024 267.621
L90.7488 260.541
L91.6416 262.796
L92.088 249.861
L92.5344 266.976
L92.9808 262.546
L93.8736 265.243
L94.32 318.407
L94.7664 300.139
L95.6592 319.194
L96.1056 282.772
L96.552 318.688
L96.9984 305.737
L97.4448 288.505
L97.8912 320.098
L98.3376 301.255
L98.784 317.456
L99.2304 318.261
L99.6768 283.801
L100.123 318.854
L100.57 305.871
L101.016 316.345
L101.462 319.088
L101.909 318.699
L102.355 318.148
L102.802 317.281
L103.248 301.659
L103.694 319.506
L104.141 317.175
L104.587 316.914
L105.034 317.697
L105.48 319.023
L105.926 318.21
L106.373 297.898
L106.819 317.962
L107.266 300.587
L107.712 263.604
L108.158 318.188
L108.605 301.671
L109.051 316.978
L109.498 318.7
L109.944 300.437
L110.39 318.375
L110.837 317.811
L111.283 308.446
L111.73 319.452
L112.176 318.561
L112.622 307.523
L113.069 318.077
L113.515 318.108
L113.962 308.895
L114.408 319.243
L114.854 305.974
L115.301 318.965
L115.747 317.488
L116.194 315.134
L116.64 319.894
L117.086 299.263
L117.533 318.741
L117.979 318.361
L118.426 319.323
L118.872 300.205
L119.318 302.736
L119.765 319.714
L120.211 319.354
L120.658 319.624
L121.104 305.882
L121.55 319.36
L121.997 319.466
L122.443 306.293
L122.89 319.448
L123.336 317.94
L123.782 307.43
L124.229 319.004
L124.675 318.804
L125.122 306.828
L125.568 319.326
L126.014 319.848
L126.461 305.986
L126.907 319.03
L127.354 318.628
L127.8 307.644
L128.246 319.647
L128.693 316.783
L129.139 283.884
L129.586 317.868
L130.032 318.524
L130.478 316.789
L130.925 318.385
L131.371 301.262
L131.818 318.546
L132.264 318.18
L132.71 310.058
L133.157 318.938
L133.603 318.718
L134.05 308.32
L134.496 319.522
L134.942 319.18
L135.389 305.936
L135.835 320.011
L136.282 319.408
L136.728 306.519
L137.174 318.498
L137.621 307.7
L138.067 317.637
L138.514 318.232
L138.96 309.573
L139.406 308.445
L139.853 293.526
L140.299 309.786
L140.746 310.934
L141.192 291.218
L141.638 309.905
L142.085 307.527
L142.531 311.087
L142.978 300.153
L143.424 311.475
L143.87 308.081
L144.317 311.001
L144.763 293.526
L145.21 310.802
L145.656 307.289
L146.102 310.618
L146.549 300.136
L146.995 309.103
L147.442 294.391
L147.888 310.269
L148.334 300.296
L148.781 310.895
L149.227 292.076
L149.674 310.107
L150.12 260.511
L150.566 305.285
L151.013 308.542
L151.459 297.649
L151.906 308.595
L152.352 283.841
L152.798 310.67
L153.245 309.398
L153.691 310.224
L154.138 293.934
L154.584 311.335
L155.03 298.731
L155.477 311.238
L155.923 280.637
L156.37 309.457
L156.816 309.781
L157.262 309.181
L157.709 300.595
L158.155 310.401
L158.602 295.552
L159.048 308.69
L159.494 297.393
L159.941 298.354
L160.387 292.179
L160.834 310.49
L161.28 318.74
L161.726 318.043
L162.173 319.401
L162.619 296.643
L163.066 318.947
L163.512 318.457
L163.958 319.033
L164.405 319.377
L164.851 289.486
L165.298 319.75
L165.744 285.352
L166.19 320.155
L166.637 300.536
L167.083 318.897
L167.53 318.521
L167.976 304.439
L168.422 319.32
L168.869 318.286
L169.315 301.585
L169.762 301.418
L170.208 314.054
L170.654 319.207
L171.101 318.625
L171.547 307.19
L171.994 311.826
L172.44 318.211
L172.886 318.324
L173.333 309.751
L173.779 318.139
L174.226 301.266
L174.672 320.008
L175.118 318.725
L175.565 303.083
L176.011 319.306
L176.458 318.527
L177.35 301.84
L177.797 302.952
L178.243 317.28
L178.69 303.943
L179.136 318.465
L179.582 317.935
L180.029 306.755
L180.475 318.77
L180.922 318.722
L181.368 312.787
L181.814 318.837
L182.261 319.089
L183.154 302.749
L183.6 305.599
L184.046 318
L184.493 319.082
L184.939 310.483
L185.386 318.817
L185.832 318.219
L186.278 310.249
L186.725 319.95
L187.171 301.181
L187.618 319.64
L188.064 297.594
L188.51 317.716
L188.957 319.309
L189.403 296.003
L189.85 319.054
L190.742 312.968
L191.189 318.323
L191.635 318.288
L192.082 311.984
L192.528 319.328
L192.974 319.157
L193.421 318.721
L193.867 317.675
L194.76 318.668
L195.206 319.279
L195.653 299.504
L196.099 318.165
L196.546 301.348
L196.992 318.502
L197.438 316.761
L197.885 301.669
L198.331 318.06
L198.778 319.052
L199.224 317.925
L199.67 318.593
L200.117 318.406
L200.563 312.424
L201.01 319.463
L201.456 318.39
L201.902 311.587
L202.349 298.831
L202.795 301.061
L203.242 319.812
L203.688 318.228
L204.134 301.924
L204.581 318.68
L205.027 316.945
L205.92 310.624
L206.366 288.606
L206.813 310.294
L207.259 302.321
L207.706 310.224
L208.152 301.509
L208.598 310.325
L209.045 298.181
L209.491 310.604
L209.938 282.736
L210.384 310.844
L210.83 309.761
L211.277 311.268
L211.723 290.313
L212.17 311.719
L212.616 303.825
L213.062 310.855
L213.509 303.833
L213.955 309.825
L214.402 260.594
L214.848 307.779
L215.294 310.951
L215.741 296.458
L216.187 308.682
L216.634 304.744
L217.08 311.038
L217.526 281.289
L217.973 308.556
L218.419 309.603
L218.866 310.215
L219.312 307.716
L219.758 310.217
L220.205 283.915
L220.651 310.302
L221.098 309.273
L221.544 310.531
L221.99 301.303
L222.437 309.984
L222.883 296.386
L223.33 311.552
L223.776 303.223
L224.222 310.042
L224.669 298.381
L225.115 294.546
L225.562 298.021
L226.008 309.485
L226.454 310.248
L226.901 299.525
L227.347 309.569
L227.794 310.701
L228.24 301.725
L228.686 300.906
L229.133 320.047
L229.579 318.784
L230.026 305.887
L230.472 316.77
L230.918 318.623
L231.365 314.549
L231.811 319.678
L232.258 319.622
L232.704 310.427
L233.15 318.765
L233.597 318.322
L234.043 312.846
L234.49 319.497
L234.936 316.642
L235.382 300.973
L235.829 316.928
L236.275 302.505
L236.722 317.937
L237.168 318.745
L237.614 313.697
L238.061 318.892
L238.507 317.718
L238.954 305.146
L239.4 318.933
L239.846 319.064
L240.293 314.01
L240.739 318.003
L241.186 318.582
L241.632 312.274
L242.078 300.555
L242.525 307.958
L242.971 317.828
L243.418 318.903
L243.864 311.77
L244.31 317.072
L244.757 318.452
L245.203 294.434
L245.65 318.618
L246.096 303.804
L246.542 318.271
L246.989 318.736
L247.435 309.194
L247.882 318.862
L248.328 317.939
L248.774 315.004
L249.221 319.214
L249.667 318.419
L250.114 311.238
L250.56 318.682
L251.006 319.016
L251.453 304.692
L251.899 319.429
L252.346 301.768
L252.792 317.206
L253.238 318.25
L253.685 304.349
L254.131 319.396
L254.578 318.532
L255.024 310.649
L255.47 318.738
L255.917 318.957
L256.363 311.067
L256.81 318.832
L257.256 299.609
L257.702 319.781
L258.149 319.064
L258.595 318.587
L259.042 289.08
L259.488 301.564
L259.934 319.869
L260.381 317.718
L260.827 316.977
L261.274 302.754
L261.72 319.596
L262.166 318.492
L262.613 309.239
L263.059 318.647
L263.506 317.413
L263.952 314.272
L264.398 317.029
L264.845 318.98
L265.291 295.199
L265.738 318.165
L266.184 305.983
L266.63 318.41
L267.077 318.287
L267.523 309.828
L267.97 318.055
L268.416 317.981
L268.862 312.713
L269.309 316.965
L269.755 319.114
L270.202 312.106
L270.648 301.463
L271.094 318.631
L271.541 302.082
L271.987 318.342
L272.434 318.582
L272.88 309.745
L273.326 308.98
L273.773 310.305
L274.219 292.247
L274.666 310.63
L275.112 306.569
L275.558 310.316
L276.005 295.541
L276.451 311.619
L276.898 300.75
L277.344 310.749
L277.79 298.454
L278.237 310.148
L278.683 274.605
L279.13 308.22
L279.576 308.336
L280.022 303.854
L280.469 309.858
L280.915 297.552
L281.362 309.155
L281.808 298.292
L282.254 310.489
L282.701 303.829
L283.147 293.476
L283.594 309.32
L284.04 294.73
L284.486 311.675
L284.933 308.601
L285.379 307.8
L285.826 309.24
L286.272 299.652
L286.718 308.555
L287.165 299.338
L287.611 309.504
L288.058 303.715
L288.504 311.137
L288.95 294.303
L289.397 297.273
L289.843 293.193
L290.29 293.65
L290.736 311.124
L291.182 310.658
L291.629 309.238
L292.075 310.661
L292.522 302.62
L292.968 309.669
L293.414 290.642
L293.861 310.786
L294.307 299.219
L294.754 310.877
L295.2 310.199
L295.646 316.269
L296.093 318.784
L296.539 313.215
L296.986 319.347
L297.432 316.978
L297.878 309.214
L298.325 318.448
L298.771 319.609
L299.218 309.442
L299.664 319.264
L300.11 319.139
L300.557 309.315
L301.003 319.231
L301.45 318.98
L301.896 306.617
L302.342 318.324
L302.789 318.107
L303.235 312.908
L303.682 301.015
L304.128 305.615
L304.574 319.963
L305.021 318.616
L305.467 305.877
L305.914 317.898
L306.36 318.522
L306.806 312.296
L307.253 300.78
L307.699 319.269
L308.146 316.783
L308.592 318.28
L309.038 301.021
L309.485 319.17
L309.931 318.252
L310.378 309.013
L310.824 319.7
L311.27 306.123
L311.717 318.106
L312.61 319.801
L313.502 302.002
L313.949 317.886
L314.395 317.697
L314.842 318.326
L315.288 317.187
L316.181 319.151
L316.627 317.914
L317.074 310.512
L317.52 317.967
L317.966 318.328
L318.413 310.949
L318.859 318.932
L319.306 318.397
L319.752 308.628
L320.198 318.334
L320.645 308.693
L321.091 318.797
L321.538 319.288
L321.984 319.376
L322.43 101.665
L322.877 319.546
L323.323 319.139
L323.77 308.304
L324.216 317.372
L324.662 288.706
L325.109 318.927
L325.555 318.665
L326.002 310.444
L326.448 318.538
L326.894 319.243
L327.341 315.84
L327.787 317.848
L328.234 165.828
L328.68 319.589
L329.126 303.961
L329.573 317.115
L330.019 318.119
L330.466 296.363
L330.912 318.308
L331.358 309.831
L331.805 317.502
L332.251 317.169
L332.698 311.264
L333.144 318.904
L333.59 318.262
L334.037 312.014
L334.483 294.719
L334.93 317.465
L335.376 318.197
L335.822 318.127
L336.269 312.616
L336.715 319.444
L337.162 318.512
L337.608 309.6
L338.054 318.147
L338.501 296.531
L338.947 299.987
L339.394 319.247
L339.84 308.734
L340.733 310.063
L341.179 310.492
L341.626 263.449
L342.072 305.754
L342.518 310.284
L342.965 296.835
L343.411 311.196
L343.858 299.293
L344.304 310.298
L344.75 293.576
L345.197 311.635
L346.09 310.623
L346.536 295.095
L346.982 311.043
L347.875 294.346
L348.322 292.429
L348.768 298.286
L349.661 290.462
L350.107 308.725
L350.554 308.998
L351 310.56
L351.446 308.085
L351.893 308.268
L352.339 297.921
L352.786 306.191
L353.232 305.302
L353.678 308.896
L354.125 298.053
L354.571 308.19
L355.018 296.919
L355.464 294.565
L355.91 308.764
L356.357 309.99
L356.803 304.345
L357.25 310.648
L357.696 295.591
L358.142 311.198
L358.589 297.375
L359.035 310.902
L359.482 297.755
L359.928 309.615
L360.374 295.408
L360.821 310.43
L361.267 302.477
L361.714 309.66
L362.16 307.932
L362.606 317.439
L363.053 302.505
L363.499 318.904
L363.946 301.927
L364.392 317.318
L364.838 301.853
L365.285 307.533
L365.731 319.261
L366.178 303.324
L366.624 318.742
L367.07 318.206
L367.517 318.936
L367.963 318.83
L368.41 303.102
L368.856 316.214
L369.302 303.053
L369.749 318.432
L370.195 318.3
L370.642 298.601
L371.088 306.073
L371.534 319.663
L371.981 318.251
L372.427 318.198
L372.874 295.901
L373.32 318.606
L373.766 302.604
L374.213 316.938
L374.659 318.377
L375.106 304.63
L375.552 316.725
L375.998 317.099
L376.445 315.607
L376.891 317.634
L377.338 318.905
L377.784 313.649
L378.23 299.5
L378.677 308.334
L379.123 169.423
L379.57 160.481
L380.016 286.653
L380.462 318.177
L380.909 317.727
L381.355 302.487
L381.802 319.895
L382.248 303.907
L382.694 318.261
L383.141 308.159
L383.587 318.122
L384.034 318.962
L384.48 318.112
L384.926 317.987
L385.373 308.982
L385.819 318.734
L386.266 319.253
L386.712 300.338
L387.158 307.462
L387.605 317.315
L388.051 318.406
L388.498 310.699
L388.944 319.347
L389.39 303.521
L389.837 318.625
L390.283 319.195
L390.73 318.577
L391.176 316.129
L391.622 317.748
L392.069 308.954
L392.515 318.278
L392.962 309.55
L393.408 317.753
L393.854 319.269
L394.301 319.618
L394.747 313.263
L395.194 317.788
L395.64 308.63
L396.086 319.016
L396.533 316.786
L396.979 312.291
L397.426 317.057
L397.872 318.618
L398.318 317.354
L398.765 318.512
L399.211 302.808
L399.658 318.371
L400.104 303.127
L400.55 316.801
L400.997 319.085
L401.443 307.478
L401.89 319.354
L402.336 318.627
L402.782 310.361
L403.229 317.669
L403.675 282.387
L404.568 302.176
L405.014 307.653
L405.461 318.568
L405.907 318.46
L406.354 312.009
L406.8 309.936
L407.246 292.434
L407.693 310.974
L408.139 299.369
L408.586 302.084
L409.032 292.615
L409.478 310.578
L409.925 280.805
L410.371 310.455
L410.818 309.92
L411.264 310.305
L411.71 296.689
L412.157 293.715
L412.603 311.31
L413.05 310.998
L413.496 307.487
L413.942 310.206
L414.389 293.219
L414.835 292.022
L415.282 309.977
L415.728 309.866
L416.174 297.108
L416.621 310.305
L417.067 276.351
L417.514 309.135
L417.96 293.896
L418.406 294.254
L418.853 291.15
L419.299 309.385
L419.746 284.724
L420.192 293.35
L420.638 310.17
L421.085 309.283
L421.531 309.693
L421.978 297.905
L422.424 309.488
L422.87 307.357
L423.317 242.359
L423.763 281.833
L424.21 309.139
L424.656 305.032
L425.102 309.963
L425.549 304.733
L425.995 293.58
L426.442 311.19
L426.888 291.834
L427.334 295.008
L427.781 310.891
L428.227 308.464
L428.674 285.048
L429.12 318.062
L429.566 301.014
L430.013 320.242
L430.459 315.552
L430.906 318.482
L431.352 317.565
L431.798 279.343
L432.245 320.32
L432.691 308.747
L433.138 318.762
L433.584 319.277
L434.03 310.624
L434.477 318.788
L434.923 302.441
L435.37 319.391
L435.816 299.847
L436.262 319.027
L436.709 304.106
L437.155 317.594
L437.602 317.695
L438.048 301.047
L438.494 307.319
L438.941 319.044
L439.387 317.038
L439.834 318.125
L440.28 300.823
L440.726 301.688
L441.173 317.485
L442.066 318.683
L442.512 305.08
L442.958 316.275
L443.405 317.712
L443.851 303.116
L444.298 318.783
L444.744 300.823
L445.19 317.233
L445.637 318.164
L446.083 311.068
L446.53 301.559
L446.976 319.537
L447.422 318.295
L447.869 318.005
L448.315 315.52
L448.762 319.32
L449.208 318.674
L449.654 316.888
L450.101 319.059
L450.547 285.585
L450.994 318.967
L451.44 305.057
L451.886 317.47
L452.333 319.655
L452.779 319.024
L453.226 309.843
L453.672 316.788
L454.118 303.753
L454.565 318.407
L455.011 304.114
L455.904 311.4
L456.35 318.004
L456.797 318.204
L457.243 314.702
L457.69 293.72
L458.136 316.893
L458.582 302.562
L459.029 318.203
L459.475 293.507
L459.922 318.776
L460.368 299.998
L460.814 318.496
L461.261 286.134
L461.707 318.154
L462.154 286.147
L462.6 319.662
L463.046 312.56
L463.493 318.148
L463.939 315.079
L464.386 317.466
L464.832 317.538
L465.278 317.901
L465.725 274.806
L466.171 307.731
L466.618 300.771
L467.064 319.298
L467.51 317.263
L467.957 318.727
L468.403 308
L468.85 319.403
L469.296 301.395
L469.742 319.365
L470.189 299.854
L470.635 319.416
L471.082 318.361
L471.528 316.451
L471.974 301.627
L472.421 318.626
L472.867 310.912
L473.314 317.951
L473.76 308.867
L474.206 294.276
L474.653 294.101
L475.099 310.648
L475.546 292.476
L475.992 308.991
L476.438 302.263
L476.885 310.748
L477.331 290.499
L477.778 293.878
L478.224 311.456
L478.67 309.532
L479.117 309.74
L479.563 293.874
L480.01 295.264
L480.456 306.315
L480.902 308.99
L481.349 309.113
L481.795 310.2
L482.242 288.89
L482.688 294.436
L483.134 309.56
L483.581 295.093
L484.027 308.212
L484.474 280.8
L485.366 308.491
L485.813 294.916
L486.259 310.082
L487.152 307.48
L487.598 304.92
L488.045 308.407
L488.491 307.713
L488.938 309.201
L489.384 310.268
L489.83 296.405
L490.277 310.053
L490.723 287
L491.17 311.137
L491.616 308.996
L492.062 293.358
L492.509 308.885
L492.955 310.073
L493.402 309.553
L494.294 294.114
L494.741 310.539
L495.187 290.958
L495.634 292.687
L496.08 317.019
L496.526 304.748
L496.973 302.412
L497.419 308.216
L497.866 318.568
L498.312 304.838
L498.758 310.786
L499.205 319.322
L499.651 286.97
L500.098 318.719
L500.99 303.251
L501.437 318.228
L501.883 318.565
L502.33 317.01
L502.776 298.423
L503.222 311.205
L503.669 293.991
L504.115 311.319
L504.562 305.982
L505.008 317.508
L505.454 319.043
L505.901 303.23
L506.347 316.305
L506.794 303.617
L507.24 318.491
L507.686 306.882
L508.133 316.813
L508.579 306.009
L509.026 311.501
L509.472 319.046
L509.918 304.13
L510.365 318.36
L510.811 316.972
L511.258 313.687
L512.15 289.653
L512.597 308.333
L513.043 312.107
L513.49 319.095
L513.936 302.012
L514.382 318.949
L514.829 306.659
L515.275 318.412
L515.722 318.837
L516.168 281.249
L516.614 317.619
L517.061 312.129
L517.507 317.717
L517.954 315.419
L517.954 315.419" style="fill:none;stroke:#ff0000;"/>
   </g>
   <g id="line2d_2">
    <path clip-path="url(#p7ff5b81e1d)" d="
M72 267.136
L72.4464 179.939
L72.8928 266.268
L73.3392 266.817
L73.7856 241.667
L74.232 247.946
L74.6784 266.37
L75.1248 267.371
L75.5712 266.233
L76.0176 262.437
L76.464 267.346
L76.9104 261.742
L77.3568 252.176
L77.8032 251.759
L78.2496 267.61
L78.696 267.877
L79.1424 268.307
L79.5888 269.151
L80.0352 263.226
L80.4816 266.289
L80.928 267.325
L81.3744 267.052
L81.8208 266.059
L82.2672 266.673
L82.7136 253.144
L83.16 266.203
L83.6064 250.176
L84.0528 252.436
L84.4992 263.127
L84.9456 258.048
L85.392 266.34
L85.8384 265.699
L86.2848 230.985
L86.7312 254.11
L87.1776 267.293
L87.624 265.377
L88.0704 266.462
L88.5168 267.146
L88.9632 266.084
L89.4096 256.923
L89.856 267.007
L90.3024 268.17
L90.7488 265.997
L91.1952 265.812
L91.6416 266.254
L92.088 252.268
L92.5344 251.027
L92.9808 267.08
L93.4272 261.704
L93.8736 267.685
L94.32 301.562
L94.7664 318.656
L95.2128 297.786
L95.6592 318.331
L96.1056 317.624
L96.552 295.678
L96.9984 318.512
L97.4448 302.267
L97.8912 309.511
L98.3376 318.653
L98.784 301.831
L99.2304 318.157
L99.6768 301.705
L100.123 302.662
L100.57 319.365
L101.016 290.135
L101.462 318.825
L101.909 288.198
L102.355 318.122
L102.802 317.909
L103.248 298.988
L103.694 302.218
L104.141 299.508
L104.587 301.648
L105.034 318.02
L105.48 310.203
L105.926 319.394
L106.373 318.616
L106.819 304.139
L107.266 319.374
L107.712 319.052
L108.158 291.744
L108.605 318.655
L109.051 318.669
L109.498 294.251
L109.944 319.149
L110.39 300.675
L110.837 311.826
L111.283 318.195
L111.73 317.238
L112.176 296.141
L112.622 318.117
L113.069 317.632
L113.515 295.634
L113.962 302.78
L114.408 318.427
L114.854 288.024
L115.301 319.027
L115.747 299.026
L116.194 318.031
L116.64 317.107
L117.086 282.691
L117.533 303.504
L117.979 318.272
L118.426 318.611
L118.872 318.799
L119.318 303.426
L119.765 308.457
L120.211 318.229
L120.658 318.848
L121.104 298.683
L121.55 317.914
L121.997 304.446
L122.443 318.306
L122.89 301.774
L123.336 319.07
L123.782 318.765
L124.229 319.169
L124.675 318.667
L125.122 318.998
L125.568 304.028
L126.014 319.078
L126.461 318.809
L126.907 318.336
L127.354 318.157
L127.8 318.907
L128.246 318.259
L128.693 302.388
L129.139 318.428
L129.586 301.957
L130.032 302.502
L130.478 319.542
L130.925 308.644
L131.371 318.986
L131.818 319.313
L132.264 318.813
L132.71 303.499
L133.157 319.982
L133.603 277.226
L134.05 302.874
L134.496 318.141
L134.942 310.456
L135.389 317.717
L135.835 300.409
L136.282 314.378
L136.728 318.705
L137.174 302.002
L138.067 318.765
L138.514 319.385
L138.96 310.071
L139.406 309.942
L139.853 310.941
L140.299 302.013
L140.746 310.65
L141.192 310.668
L141.638 287.063
L142.085 310.892
L142.531 295.981
L142.978 310.147
L143.424 298.969
L143.87 309.588
L144.317 270.563
L144.763 311.441
L145.21 301.833
L145.656 309.833
L146.102 286.289
L146.549 311.468
L146.995 289.795
L147.442 310.857
L147.888 311.319
L148.334 310.657
L148.781 311.346
L149.227 310.807
L149.674 301.814
L150.12 310.802
L150.566 291.419
L151.013 310.513
L151.459 311.457
L152.352 293.769
L152.798 308.623
L153.245 263.179
L153.691 309.019
L154.138 294.063
L154.584 310.056
L155.03 285.535
L155.477 309.862
L155.923 283.5
L156.37 310.138
L156.816 286.275
L157.262 310.466
L157.709 281.966
L158.155 310.113
L158.602 292.035
L159.048 293.481
L159.941 310.718
L160.387 310.126
L160.834 308.226
L161.28 319.708
L161.726 318.329
L162.173 292.276
L162.619 317.816
L163.066 318.484
L163.512 279.446
L163.958 318.479
L164.405 260.516
L164.851 297.357
L165.298 319.321
L165.744 319.873
L166.19 318.52
L166.637 301.333
L167.083 318.588
L167.53 319.235
L167.976 291.456
L168.422 319.164
L168.869 319.004
L169.315 318.36
L169.762 306.629
L170.208 302.845
L170.654 318.585
L171.101 301.793
L171.547 319.178
L171.994 318.413
L172.44 291.644
L172.886 318.401
L173.333 291.814
L173.779 319.396
L174.226 318.646
L174.672 307.716
L175.118 318.985
L175.565 317.7
L176.011 318.933
L176.458 301.76
L176.904 319.456
L177.35 318.871
L177.797 290.231
L178.243 318.39
L178.69 300.032
L179.136 302.338
L179.582 318.835
L180.029 302.827
L180.475 318.574
L180.922 319.36
L181.368 214.079
L181.814 301
L182.261 317.329
L182.707 302.338
L183.154 319.953
L183.6 305.264
L184.046 302.082
L184.493 318.81
L184.939 303.807
L185.386 318.071
L185.832 302.505
L186.278 318.365
L186.725 318.881
L187.171 319.081
L187.618 318.971
L188.064 311.35
L188.51 318.805
L188.957 319.003
L189.403 318.805
L189.85 305.793
L190.296 301.516
L190.742 318.659
L191.189 311.094
L191.635 318.25
L192.082 318.443
L192.528 288.152
L193.421 318.509
L193.867 318.428
L194.314 318.167
L194.76 318.919
L195.206 291.316
L195.653 318.759
L196.099 300.263
L196.546 301.779
L196.992 311.983
L197.438 312.5
L197.885 198.708
L198.331 318.472
L198.778 318.918
L199.224 297.045
L199.67 316.379
L200.117 303.074
L200.563 313.312
L201.01 319.314
L201.456 318.211
L201.902 297.615
L202.349 318.336
L202.795 317.569
L203.242 289.397
L203.688 319.381
L204.134 317.999
L204.581 296.027
L205.027 315.37
L205.474 310.803
L205.92 292.904
L206.366 293.425
L206.813 309.692
L207.259 310.797
L207.706 290.926
L208.152 310.234
L208.598 287.767
L209.045 311.207
L209.491 310.643
L209.938 309.867
L210.384 267.831
L210.83 310.216
L211.277 294.73
L211.723 310.95
L212.17 311.111
L213.062 310.29
L213.509 309.033
L213.955 311.107
L214.402 310.866
L214.848 310.488
L215.294 294.811
L215.741 297.955
L216.187 294.09
L216.634 292.518
L217.08 293.711
L217.526 311.792
L217.973 309.9
L218.419 309.946
L218.866 311.085
L219.312 289.235
L219.758 309.857
L220.205 289.816
L220.651 310.634
L221.098 277.551
L221.99 310.057
L222.437 294.512
L222.883 292.871
L223.33 311.364
L223.776 309.892
L224.222 309.716
L224.669 295.767
L225.115 310.69
L225.562 290.955
L226.008 310.716
L226.454 258.696
L226.901 298.48
L227.347 310.583
L227.794 304.428
L228.24 319.531
L228.686 316.295
L229.133 294.122
L229.579 309.895
L230.026 293.14
L230.472 317.741
L230.918 278.533
L231.365 318.457
L231.811 304.372
L232.258 319.637
L232.704 318.663
L233.15 297.06
L233.597 318.907
L234.043 300.608
L234.49 317.932
L234.936 317.341
L235.382 299.915
L235.829 314.791
L236.275 318.596
L236.722 318.68
L237.168 299.263
L237.614 318.946
L238.061 306.124
L238.507 310.319
L238.954 318.425
L239.4 317.976
L239.846 300.684
L240.293 320.011
L240.739 299.871
L241.186 318.217
L241.632 304.858
L242.078 318.042
L242.525 302.317
L242.971 317.139
L243.418 309.835
L243.864 318.596
L244.31 292.316
L244.757 319.428
L245.203 318.548
L245.65 292.384
L246.096 319.473
L246.542 318.425
L246.989 318.545
L247.435 306.563
L247.882 319.263
L248.328 317.924
L248.774 280.438
L249.221 315.378
L249.667 300.595
L250.114 318.125
L250.56 302.16
L251.006 305.669
L251.453 318.153
L251.899 318.502
L252.346 295.562
L252.792 318.224
L253.238 318.528
L253.685 319.117
L254.131 297.688
L254.578 310.241
L255.024 310.478
L255.47 310.186
L255.917 318.637
L256.363 303.295
L256.81 313.988
L257.256 318.651
L257.702 300.589
L258.149 313.612
L258.595 303.139
L259.042 319.062
L259.488 307.635
L259.934 318.974
L260.381 303.422
L261.274 317.82
L262.166 292.819
L262.613 310.835
L263.059 293.152
L263.506 310.542
L263.952 318.138
L264.398 306.237
L264.845 318.842
L265.291 317.671
L265.738 292.266
L266.184 318.796
L266.63 303.069
L267.523 318.674
L267.97 303.076
L268.416 292.429
L268.862 310.552
L269.309 293.196
L269.755 310.119
L270.202 310.1
L270.648 310.593
L271.094 268.311
L271.541 318.44
L272.434 303.904
L272.88 309.008
L273.773 293.31
L274.219 292.425
L274.666 310.912
L275.112 310.128
L275.558 290.715
L276.005 294.508
L276.451 309.435
L276.898 295.459
L277.344 293.458
L277.79 310.445
L278.237 304.808
L278.683 310.567
L279.13 292.941
L279.576 310.329
L280.022 287.3
L280.469 311.247
L280.915 310.605
L281.362 310.229
L281.808 311.383
L282.254 286.716
L282.701 311.625
L283.147 310.4
L283.594 310.134
L284.04 311.087
L284.486 287.823
L284.933 295.578
L285.379 301.001
L285.826 310.764
L286.272 302.847
L286.718 311.149
L287.165 291.361
L287.611 310.191
L288.058 309.522
L288.504 307.225
L288.95 279.98
L289.397 310.652
L289.843 310.787
L290.29 299.518
L290.736 310.794
L291.182 286.736
L291.629 309.912
L292.075 286.472
L292.522 299.245
L292.968 302.996
L293.414 310.498
L293.861 304.376
L294.307 311.095
L294.754 311.144
L295.2 302.757
L295.646 315.837
L296.093 299.472
L296.539 318.382
L296.986 316.468
L297.432 293.007
L297.878 318.68
L298.325 303.926
L298.771 310.387
L299.218 319.06
L300.11 289.574
L300.557 302.544
L301.003 289.196
L301.45 317.975
L301.896 303.959
L302.342 310.945
L302.789 310.537
L303.235 318.518
L303.682 312.004
L304.128 314.002
L304.574 318.275
L305.021 290.985
L305.467 310.461
L305.914 298.924
L306.36 318.476
L306.806 314.565
L307.253 300.034
L307.699 304.427
L308.592 318.681
L309.038 303.569
L309.485 313.469
L309.931 302.301
L310.378 317.664
L310.824 316.348
L311.27 318.758
L311.717 318.83
L312.163 287.946
L312.61 317.283
L313.056 319.071
L313.502 299.819
L313.949 317.743
L314.395 301.113
L314.842 318.66
L315.288 318.174
L315.734 318.486
L316.181 297.202
L316.627 319.742
L317.074 318.642
L317.52 288.905
L317.966 318.021
L318.413 300.673
L318.859 319.292
L319.306 319.216
L319.752 285.878
L320.198 318.961
L320.645 301.671
L321.091 311.967
L321.538 318.509
L321.984 318.151
L322.43 300.772
L322.877 319.07
L323.323 319.678
L323.77 297.362
L324.216 317.79
L324.662 295.72
L325.109 319.305
L325.555 318.272
L326.002 296.368
L326.894 319.42
L327.341 307.065
L327.787 318.912
L328.234 318.519
L328.68 296.266
L329.126 319.917
L329.573 315.64
L330.019 294.127
L330.466 311.273
L330.912 310.705
L331.358 318
L331.805 304.961
L332.251 310.503
L332.698 251.349
L333.144 302.026
L333.59 307.485
L334.037 310.762
L334.483 318.726
L334.93 318.332
L335.376 305.096
L335.822 318.438
L336.269 276.061
L336.715 319.493
L337.162 293.544
L337.608 318.263
L338.054 318.005
L338.501 294.675
L338.947 318.33
L339.394 294.717
L339.84 309.948
L340.286 293.069
L340.733 295.19
L341.179 294.186
L341.626 311.656
L342.072 306.427
L342.518 293.081
L342.965 293.937
L343.411 293.099
L343.858 286.529
L344.304 310.905
L344.75 289.782
L345.197 311.164
L345.643 310.66
L346.09 304.349
L346.536 310.255
L346.982 275.137
L347.429 309.81
L347.875 279.55
L348.322 294.52
L349.214 294.045
L349.661 311.527
L350.107 273.536
L350.554 262.591
L351 311.101
L351.446 304.302
L351.893 311.517
L352.339 310.14
L352.786 304.858
L353.232 311.064
L353.678 291.097
L354.125 310.746
L354.571 310.613
L355.018 304.824
L355.464 294.321
L355.91 295.234
L356.357 294.629
L356.803 308.284
L357.25 296.075
L357.696 293.198
L358.142 293.907
L358.589 306.179
L359.035 308.893
L359.482 302.222
L359.928 309.966
L360.374 275.957
L361.267 310.201
L361.714 310.8
L362.16 296.671
L362.606 318.337
L363.053 317.931
L363.499 296.511
L363.946 319.476
L364.392 318.802
L364.838 301.63
L365.285 318.677
L365.731 291.459
L366.178 302.082
L366.624 299.924
L367.07 318.449
L367.517 318.47
L367.963 298.904
L368.41 315.486
L368.856 317.781
L369.302 303.209
L369.749 319.297
L370.195 317.974
L370.642 296.254
L371.088 318.912
L371.534 318.383
L371.981 159.425
L372.427 187.964
L372.874 317.373
L373.32 306.351
L373.766 318.162
L374.213 304.837
L374.659 310.746
L375.106 311.121
L375.552 318.004
L375.998 318.708
L376.445 297.115
L376.891 311.245
L377.338 310.559
L377.784 311.241
L378.23 317.747
L378.677 318.177
L379.123 314.694
L379.57 293.782
L380.016 310.958
L380.462 318.218
L380.909 303.769
L381.802 318.845
L382.248 301.472
L382.694 301.49
L383.587 318.332
L384.034 72.764
L384.48 268.425
L384.926 196.63
L385.373 318.254
L385.819 304.356
L386.266 311.999
L387.158 318.827
L387.605 319.472
L388.051 305.328
L388.498 310.464
L388.944 302.248
L389.39 306.794
L389.837 319.216
L390.283 318.831
L390.73 318.213
L391.176 305.211
L391.622 318.104
L392.069 302.922
L392.962 318.735
L393.408 303.312
L393.854 311.291
L394.301 311.903
L394.747 310.971
L395.194 316.534
L395.64 319.063
L396.086 317.187
L396.533 301.109
L396.979 318.698
L397.426 318.955
L397.872 297.822
L398.318 318.006
L398.765 302.167
L399.211 318.882
L399.658 318.524
L400.104 290.772
L400.55 319.226
L400.997 317.867
L401.443 303.486
L401.89 318.805
L402.336 318.189
L402.782 301.466
L403.229 318.805
L403.675 305.522
L404.122 310.684
L404.568 293.857
L405.014 311.508
L405.461 311.058
L405.907 317.632
L406.354 317.755
L406.8 308.414
L407.246 302.594
L407.693 294.004
L408.139 293.428
L408.586 293.931
L409.032 311.276
L409.478 309.439
L409.925 299.737
L410.371 311.263
L410.818 252.221
L411.264 233.594
L411.71 310.447
L412.157 283.491
L412.603 293.429
L413.05 293.313
L413.496 309.816
L413.942 297.22
L414.389 293.867
L414.835 294.273
L415.282 293.784
L415.728 311.622
L416.174 296.63
L416.621 310.456
L417.067 296.732
L417.514 310.579
L417.96 291.523
L418.406 310.924
L418.853 289.941
L419.299 292.831
L419.746 305.456
L420.192 294.328
L420.638 309.251
L421.085 310.255
L421.531 284.436
L421.978 292.912
L422.424 309.666
L422.87 309.879
L423.763 304.01
L424.21 294.141
L424.656 293.768
L425.102 294.616
L425.549 293.834
L425.995 294.166
L426.442 293.591
L426.888 293.786
L427.334 294.526
L427.781 294.519
L428.227 308.505
L428.674 295.897
L429.12 317.999
L429.566 305.013
L430.013 300.346
L430.459 318.14
L430.906 317.892
L431.352 299.067
L431.798 319.024
L432.245 317.813
L432.691 293.314
L433.138 318.213
L433.584 305.765
L434.03 313.089
L434.477 318.393
L434.923 303.056
L435.37 314.873
L435.816 316.867
L436.262 302.109
L436.709 317.757
L437.155 318.172
L437.602 317.716
L438.048 300.626
L438.494 303.571
L438.941 311.48
L439.387 310.897
L439.834 311.114
L440.28 318.173
L440.726 317.83
L441.173 315.245
L441.619 298.855
L442.066 317.231
L442.512 301.39
L442.958 317.61
L443.405 317.133
L443.851 317.845
L444.298 295.589
L444.744 318.463
L445.19 317.12
L445.637 298.393
L446.083 318.084
L446.53 315.144
L446.976 301.539
L447.422 319.152
L447.869 315.113
L448.315 294.812
L448.762 317.828
L449.208 303.78
L449.654 317.53
L450.101 317.851
L450.547 300.997
L450.994 317.779
L451.44 303.66
L452.333 318.299
L452.779 317.87
L453.226 298.743
L453.672 317.961
L454.118 305.701
L455.011 318.167
L455.458 305.699
L455.904 311.215
L456.35 298.828
L456.797 309.946
L457.243 317.966
L457.69 317.65
L458.136 293.751
L458.582 318.867
L459.029 317.59
L459.475 300.969
L459.922 317.965
L460.368 317.85
L460.814 294.951
L461.261 293.472
L461.707 245.817
L462.154 317.294
L462.6 318.061
L463.046 297.331
L463.493 318.539
L463.939 317.73
L464.386 296.916
L464.832 318.637
L465.278 317.878
L465.725 296.008
L466.171 318.62
L466.618 304.239
L467.064 309.881
L467.51 318.232
L467.957 317.882
L468.403 291.511
L469.296 312.983
L469.742 317.234
L470.189 307.476
L470.635 311.448
L471.082 317.028
L471.528 316.377
L471.974 284.674
L472.421 318.078
L473.314 294.562
L473.76 293.775
L474.206 308.95
L474.653 279.823
L475.099 294.279
L475.546 294.159
L475.992 294.235
L476.885 305.221
L477.331 277.131
L477.778 308.889
L478.224 279.443
L478.67 294.576
L479.117 294.102
L479.563 300.439
L480.01 309.13
L480.456 295.135
L480.902 310.461
L481.349 288.523
L481.795 309.773
L482.242 286.351
L482.688 309.937
L483.134 289.009
L483.581 298.952
L484.027 295.241
L484.474 294.698
L484.92 307.486
L485.366 298.679
L485.813 304.035
L486.259 301.673
L486.706 309.54
L487.152 291.374
L487.598 308.637
L488.045 294.356
L488.491 310.023
L488.938 297.924
L489.384 309.071
L489.83 308.784
L490.277 307.411
L490.723 295.403
L491.17 308.973
L491.616 278.557
L492.062 309.926
L492.509 308.229
L492.955 309.157
L493.402 282.202
L493.848 309.958
L494.294 306.48
L494.741 309.274
L495.187 291.673
L495.634 309.996
L496.08 304.923
L496.526 318.192
L496.973 316.599
L497.419 305.224
L497.866 318.195
L498.312 317.92
L498.758 291.289
L499.205 318.636
L499.651 317.44
L500.098 310.379
L500.544 318.141
L500.99 219.769
L501.437 318.354
L501.883 318.145
L502.33 304.005
L502.776 297.675
L503.222 318.709
L503.669 318.132
L504.115 291.944
L504.562 318.344
L505.008 293.691
L505.454 318.79
L505.901 318.368
L506.347 302.735
L506.794 316.71
L507.24 318.354
L507.686 305.732
L508.133 318.571
L508.579 317.524
L509.026 303.417
L509.472 317.443
L509.918 316.797
L510.365 297.967
L510.811 312.137
L511.258 294.09
L511.704 316.789
L512.15 290.268
L512.597 317.641
L513.043 306.127
L513.936 317.966
L514.382 297.957
L514.829 302.265
L515.275 317.62
L515.722 317.082
L516.168 301.834
L517.061 317.813
L517.507 317.399
L517.954 301.71
L517.954 301.71" style="fill:none;opacity:0.7;stroke:#008000;"/>
   </g>
   <g id="line2d_3">
    <path clip-path="url(#p7ff5b81e1d)" d="
M72 250.382
L72.4464 165.588
L72.8928 249.471
L73.3392 251.123
L73.7856 250.696
L74.232 250.962
L74.6784 249.867
L75.1248 259.785
L75.5712 258.49
L76.0176 251.16
L76.464 250.822
L76.9104 252.076
L77.3568 260.169
L77.8032 236.865
L78.2496 257.865
L78.696 231.715
L79.1424 248.806
L79.5888 253.886
L80.0352 256.72
L80.4816 264.447
L80.928 263.825
L81.3744 260.767
L81.8208 264.515
L82.2672 249.598
L82.7136 251.488
L83.16 260.295
L83.6064 261.117
L84.0528 260.958
L84.4992 243.215
L84.9456 266.351
L85.392 25.4522
L86.2848 252.122
L86.7312 259.536
L87.1776 258.979
L87.624 244.727
L88.0704 249.608
L88.5168 262.377
L88.9632 259.054
L89.4096 267.672
L89.856 266.189
L90.3024 266.508
L90.7488 250.736
L91.1952 241.877
L91.6416 247.469
L92.088 264.442
L92.5344 256.954
L92.9808 247.373
L93.4272 263.171
L93.8736 265.33
L94.32 315.571
L94.7664 310.895
L95.2128 314.717
L95.6592 309.018
L96.1056 316.893
L96.552 306.429
L96.9984 302.014
L97.4448 301.361
L97.8912 315.944
L98.3376 306.886
L98.784 302.693
L99.2304 301.915
L99.6768 301.615
L100.123 302.29
L100.57 301.417
L101.016 301.602
L101.462 316.206
L101.909 306.846
L102.355 302.432
L103.248 301.46
L103.694 301.65
L104.141 302.192
L104.587 301.789
L105.034 301.667
L105.48 302.089
L105.926 303.199
L106.373 301.256
L106.819 303.301
L107.266 301.81
L107.712 301.378
L108.158 302.09
L108.605 302.087
L109.051 301.737
L109.498 313.141
L109.944 307.371
L110.39 310.137
L110.837 304.606
L111.283 314.643
L111.73 315.362
L112.176 315.238
L112.622 302.406
L113.069 312.774
L113.515 314.368
L113.962 315.487
L114.408 313.519
L114.854 314.779
L115.301 314.782
L115.747 302.653
L116.194 315.141
L116.64 316.24
L117.086 253.52
L117.533 315.199
L117.979 312.964
L118.426 303.086
L118.872 301.028
L119.318 301.139
L119.765 302.235
L120.211 301.926
L120.658 302.09
L121.104 302.434
L121.55 299.323
L121.997 314.477
L122.443 298.181
L122.89 299.62
L123.336 304.433
L123.782 315.156
L124.229 313.123
L124.675 315.481
L125.122 309.969
L125.568 315.684
L126.014 314.61
L126.461 306.111
L126.907 315.623
L127.354 315.301
L127.8 313.432
L128.246 316.717
L128.693 315.178
L129.586 283.32
L130.032 302.204
L130.478 315.647
L130.925 313.464
L131.371 312.178
L131.818 303.046
L132.264 315.636
L132.71 315.121
L133.157 305.752
L133.603 311.961
L134.05 312.969
L134.496 315.313
L134.942 307.632
L135.389 312.261
L136.282 315.828
L136.728 312.878
L137.174 314.604
L137.621 305.881
L138.067 315.219
L138.514 315.04
L138.96 307.095
L139.853 304.64
L140.299 305.578
L140.746 303.362
L141.192 302.431
L141.638 302.451
L142.085 301.849
L142.531 302.096
L142.978 303.182
L143.424 308.841
L143.87 295.273
L144.317 302.299
L144.763 306.717
L145.21 299.142
L145.656 306.488
L146.102 297.698
L146.549 302.206
L146.995 302.007
L147.442 302.144
L148.334 301.623
L149.227 302.381
L149.674 301.353
L150.12 302.676
L150.566 302.391
L151.013 302.682
L151.459 301.834
L151.906 302.71
L152.798 301.842
L153.245 304.835
L153.691 302.168
L154.138 306.661
L154.584 298.849
L155.03 285.389
L155.477 307.137
L155.923 301.617
L156.37 304.678
L157.262 306.622
L157.709 269.327
L158.155 295.893
L158.602 306.863
L159.048 307.138
L159.494 305.748
L159.941 306.58
L160.387 289.675
L161.28 317.035
L161.726 304.851
L162.619 301.791
L163.066 302.816
L163.512 301.732
L163.958 301.332
L164.405 317.512
L164.851 306.417
L165.298 301.482
L165.744 316.709
L166.19 304.424
L166.637 316.05
L167.083 306.397
L167.53 302.209
L167.976 315.876
L168.422 305.443
L168.869 302.923
L169.315 301.343
L169.762 146.326
L170.208 316.767
L170.654 304.137
L171.101 302.274
L171.547 302.5
L171.994 300.822
L172.44 302.571
L172.886 301.836
L173.333 302.315
L173.779 302.179
L174.226 301.631
L174.672 302.411
L175.118 301.146
L175.565 302.44
L176.011 301.228
L176.904 303.125
L177.35 301.873
L178.243 302.606
L178.69 301.181
L179.136 302.731
L179.582 302.696
L180.029 301.349
L180.475 302.222
L180.922 302.755
L181.368 316.331
L182.261 308.66
L182.707 314.743
L183.154 311.161
L183.6 316.169
L184.046 313.976
L184.493 314.5
L184.939 313.788
L185.386 315.042
L185.832 308.552
L186.278 282.967
L186.725 314.72
L187.171 303.524
L187.618 315.742
L188.064 314.044
L188.51 278.72
L188.957 315.58
L189.403 305.523
L189.85 315.036
L190.742 301.725
L191.189 303.042
L191.635 316.724
L192.082 305.474
L192.528 302.059
L192.974 301.69
L193.421 301.766
L193.867 303.058
L194.314 313.097
L195.206 301.555
L195.653 302.605
L196.099 301.585
L196.546 301.398
L196.992 303.324
L197.438 316.254
L197.885 313.831
L198.331 294.758
L198.778 299.209
L199.224 314.95
L199.67 312.272
L200.117 305.852
L200.563 314.584
L201.01 315.595
L201.456 295.977
L201.902 315.292
L202.349 309.108
L202.795 314.611
L203.242 314.948
L204.134 313.803
L204.581 315.875
L205.027 314.761
L205.474 315.314
L205.92 306.125
L206.366 306.754
L206.813 299.076
L207.259 308.177
L207.706 298.692
L208.152 301.098
L208.598 307.442
L209.045 297.783
L209.491 302.122
L209.938 302.256
L210.384 301.484
L210.83 301.886
L211.277 301.877
L211.723 306.985
L212.17 299.52
L212.616 302.005
L213.062 302.189
L213.509 308.987
L213.955 295.395
L214.402 302.468
L214.848 302.055
L215.294 301.873
L215.741 301.57
L216.187 308.938
L216.634 295.078
L217.08 302.302
L217.526 301.849
L217.973 302.313
L218.419 305.043
L218.866 299.243
L219.312 307.985
L219.758 296.77
L220.205 301.239
L220.651 302.924
L221.098 301.321
L221.544 302.018
L221.99 302.256
L222.437 301.806
L222.883 301.58
L223.776 302.748
L224.222 299.601
L224.669 287.086
L225.115 306.087
L225.562 305.193
L226.008 306.928
L226.901 285.08
L227.347 302.264
L227.794 302.203
L228.24 301.176
L228.686 302.625
L229.133 315.765
L229.579 304.231
L230.026 300.664
L230.472 315.095
L230.918 314.244
L231.811 314.964
L232.258 314.328
L232.704 314.497
L233.15 313.265
L233.597 314.932
L234.043 314.666
L234.49 315.431
L234.936 315.059
L235.382 316.683
L235.829 315.819
L236.275 315.932
L237.168 315.708
L237.614 313.676
L238.061 316.078
L238.507 299.604
L238.954 314.243
L239.4 316.045
L239.846 316.316
L240.293 316.097
L240.739 299.123
L241.186 317.37
L241.632 316.053
L242.078 315.876
L242.525 315.178
L242.971 317.099
L243.418 305.908
L243.864 285.267
L244.31 316.933
L244.757 299.06
L245.203 316.817
L245.65 314.265
L246.096 317.507
L246.542 296.632
L246.989 312.014
L247.435 297.932
L247.882 313.569
L248.328 316.501
L248.774 307.908
L249.221 316.297
L249.667 311.675
L250.114 316.683
L250.56 299.824
L251.006 314.999
L251.453 314.671
L251.899 315.711
L252.346 299.239
L252.792 316.654
L253.238 317.041
L253.685 316.087
L254.131 300.297
L254.578 317.077
L255.024 316.647
L255.47 312.529
L255.917 315.73
L256.363 315.794
L256.81 316.411
L257.256 315.547
L257.702 316.72
L258.149 316.482
L259.042 316.706
L259.488 316.347
L259.934 315.445
L260.381 243.434
L260.827 316.447
L261.274 297.47
L261.72 315.168
L262.166 299.826
L262.613 311.531
L263.059 314.046
L263.506 311.348
L263.952 316.813
L264.398 314.286
L264.845 297.822
L265.291 315.357
L265.738 314.639
L266.184 314.862
L266.63 316.771
L267.077 316.314
L267.523 316.581
L267.97 315.751
L268.416 300.566
L268.862 317.142
L269.309 312.504
L270.202 316.189
L270.648 299.96
L271.094 313.685
L271.541 315.279
L271.987 314.657
L272.434 316.246
L272.88 293.262
L273.326 306.833
L273.773 304.495
L274.219 297.135
L274.666 306.788
L275.112 308.39
L275.558 294.076
L276.005 291.186
L276.451 308.191
L276.898 307.82
L277.344 306.973
L277.79 303.689
L278.237 296.763
L278.683 306.533
L279.13 307.858
L279.576 295.787
L280.022 308.17
L280.469 307.61
L280.915 290.741
L281.362 308.881
L281.808 307.951
L282.254 291.178
L282.701 308.129
L283.147 309.261
L283.594 304.375
L284.04 307.627
L284.486 306.089
L284.933 308.12
L285.379 305.711
L285.826 300.156
L286.272 306.456
L286.718 307.637
L287.165 304.523
L287.611 308.402
L288.058 304.853
L288.504 289.749
L288.95 307.302
L289.397 305.714
L289.843 308.484
L290.29 308.718
L290.736 298.833
L291.182 307.823
L291.629 304.289
L292.075 289.912
L292.522 308.145
L292.968 308.395
L293.414 294.014
L293.861 305.956
L294.307 306.936
L294.754 273.234
L295.2 316.24
L295.646 315.412
L296.093 316.08
L296.539 317
L296.986 316.508
L297.432 310.974
L297.878 317.655
L298.325 313.497
L298.771 317.391
L299.218 307.816
L299.664 317.22
L300.11 305.929
L300.557 316.409
L301.003 316.523
L301.45 317.349
L301.896 275.555
L302.342 312.652
L302.789 317.173
L303.235 307.978
L303.682 317.141
L304.128 308.993
L304.574 317.434
L305.021 312.689
L305.467 316.772
L305.914 304.835
L306.36 300.401
L306.806 317.535
L307.253 299.295
L307.699 315.015
L308.146 309.883
L308.592 316.668
L309.038 309.146
L309.485 314.974
L309.931 309.663
L310.378 315.224
L310.824 316.671
L311.27 315.945
L311.717 315.492
L312.163 316.758
L312.61 316.654
L313.056 316.178
L313.949 313.684
L314.395 315.346
L314.842 316.413
L315.288 316.442
L315.734 314.772
L316.181 315.414
L316.627 315.524
L317.074 316.084
L317.52 298.488
L317.966 315.335
L318.413 314.417
L318.859 315.913
L319.306 300.507
L319.752 317.431
L320.198 300.237
L320.645 315.153
L321.091 316.061
L321.538 306.191
L321.984 301.083
L322.43 313.293
L322.877 315.198
L323.323 315.512
L323.77 316.237
L324.216 316.42
L325.109 316.033
L325.555 316.722
L326.002 312.81
L326.448 317.269
L326.894 313.726
L327.341 317.3
L327.787 308.786
L328.68 316.737
L329.126 317.509
L329.573 308.918
L330.019 314.804
L330.466 310.808
L330.912 317.08
L331.358 314.526
L331.805 299.036
L332.251 314.77
L332.698 314.65
L333.144 259.136
L333.59 316.988
L334.037 314.622
L334.483 317.357
L334.93 307.773
L335.376 317.511
L335.822 305.979
L336.269 314.205
L336.715 315.268
L337.162 317.406
L337.608 306.985
L338.054 314.229
L338.501 294.805
L338.947 314.974
L339.394 314.475
L339.84 308.121
L340.286 307.672
L340.733 298.782
L341.179 306.953
L341.626 307.321
L342.072 308.346
L342.518 308.992
L342.965 305.119
L343.411 308.129
L343.858 306.608
L344.304 308.457
L345.197 299.278
L345.643 306.478
L346.09 307.872
L346.536 278.22
L346.982 308.025
L347.429 308.925
L347.875 305.687
L348.322 307.825
L348.768 290.281
L349.214 307.234
L349.661 308.504
L350.107 308.011
L350.554 288.558
L351 307.551
L351.446 307.522
L351.893 297.394
L352.339 305.01
L352.786 308.189
L353.232 292.03
L353.678 308.162
L354.125 271.555
L354.571 307.426
L355.018 297.822
L355.464 307.266
L355.91 307.307
L356.803 308.818
L357.25 308.498
L357.696 307.405
L358.142 308.348
L358.589 298.174
L359.035 307.004
L359.482 308.118
L359.928 295.89
L360.374 274.288
L360.821 306.587
L361.267 308.453
L361.714 299.209
L362.16 315.989
L362.606 315.311
L363.053 314.211
L363.499 314.066
L363.946 316.392
L364.392 315.149
L364.838 315.039
L365.285 311.627
L365.731 316.085
L366.178 315.101
L366.624 316.799
L367.07 307.51
L367.517 81.3436
L367.963 131.902
L368.41 315.057
L368.856 298.662
L369.302 316.419
L369.749 316.836
L370.195 316.161
L370.642 315.023
L371.088 250.555
L371.534 315.218
L371.981 315.953
L372.427 316.374
L372.874 313.473
L373.32 315.393
L373.766 316.112
L374.213 299.304
L374.659 313.655
L375.106 310.174
L375.552 315.548
L375.998 312.172
L376.445 315.401
L376.891 310.54
L377.338 314.326
L378.23 317.194
L378.677 310.471
L379.123 315.862
L379.57 310.954
L380.016 301.665
L380.462 315.91
L380.909 297.042
L381.355 315.523
L381.802 309.229
L382.248 294.084
L382.694 313.422
L383.141 315.652
L383.587 316.072
L384.034 310.773
L384.48 317.165
L384.926 306.562
L385.373 314.847
L385.819 316.27
L386.266 317.133
L386.712 306.947
L387.158 317.321
L387.605 306.524
L388.051 317.52
L388.498 316.906
L388.944 315.551
L389.39 295.091
L389.837 310.049
L390.283 314.833
L390.73 308.913
L391.176 315.549
L391.622 312.335
L392.069 298.298
L392.515 315.917
L392.962 315.006
L393.408 316.053
L393.854 314.926
L394.301 314.618
L394.747 315.085
L395.194 312.696
L395.64 306.661
L396.086 314.677
L396.533 291.989
L396.979 314.875
L397.426 313.693
L397.872 298.388
L398.318 316.163
L398.765 314.27
L399.211 316.273
L399.658 314.034
L400.104 300.077
L400.55 311.782
L400.997 314.447
L401.443 314.36
L401.89 298.796
L402.336 316.785
L402.782 316.088
L403.229 313.13
L404.122 316.551
L404.568 316.731
L405.014 306.81
L405.461 304.121
L405.907 314.708
L406.354 316.34
L406.8 307.657
L407.246 307.446
L407.693 304.997
L408.139 308.363
L408.586 291.385
L409.032 307.579
L409.925 306.425
L410.371 306.214
L410.818 306.531
L411.264 307.393
L411.71 303.512
L412.157 305.587
L412.603 306.772
L413.05 291.006
L413.496 307.077
L413.942 308.851
L414.389 308.413
L414.835 307.558
L415.282 285.62
L416.174 308.403
L416.621 308.844
L417.067 308.859
L417.514 304.111
L417.96 271.863
L418.406 304.134
L418.853 308.46
L419.299 305.079
L419.746 291.514
L420.192 308.992
L420.638 307.869
L421.085 305.727
L421.531 308.344
L421.978 305.755
L422.424 307.481
L422.87 308.621
L423.317 309.243
L423.763 308.275
L424.21 301.773
L424.656 308.899
L425.102 309.242
L425.549 304.963
L425.995 308.286
L426.442 301.895
L426.888 291.109
L427.334 289.559
L427.781 306.067
L428.227 284.004
L428.674 309.488
L429.12 316.537
L429.566 314.914
L430.013 314.005
L430.459 316.049
L430.906 317.055
L431.352 296.559
L431.798 305.344
L432.245 303.988
L432.691 314.909
L433.138 308.719
L433.584 315.309
L434.03 306.598
L434.477 315.205
L434.923 314.09
L435.816 314.119
L436.262 296.476
L436.709 315.938
L437.155 315.309
L437.602 297.643
L438.048 315.998
L438.494 316.844
L438.941 309.215
L439.387 316.498
L439.834 302.603
L440.28 299.375
L440.726 317.019
L441.173 316.677
L441.619 313.164
L442.066 316.307
L442.512 316.439
L442.958 316.438
L443.405 312.756
L443.851 315.638
L444.298 309.494
L444.744 315.204
L445.19 309.607
L445.637 316.645
L446.083 316.754
L446.53 316.703
L446.976 316.192
L447.422 317.33
L447.869 308.401
L448.315 315.713
L448.762 316.686
L449.208 315.843
L449.654 306.226
L450.101 314.716
L450.547 310.453
L450.994 316.806
L451.44 296.399
L451.886 314.711
L452.333 296.422
L452.779 300.076
L453.226 315.79
L454.118 314.352
L454.565 315.504
L455.011 314.841
L455.458 315.035
L455.904 302.475
L456.35 312.992
L456.797 259.907
L457.243 315.27
L457.69 308.116
L458.136 303.522
L458.582 315.359
L459.029 315.165
L459.475 298.821
L459.922 316.273
L460.368 316.432
L460.814 316.815
L461.707 316.29
L462.154 313.564
L462.6 315.548
L463.046 258.052
L463.493 305.657
L463.939 313.488
L464.386 316.488
L464.832 315.835
L465.278 316.108
L465.725 309.818
L466.171 316.355
L466.618 314.387
L467.064 315.639
L467.51 312.362
L467.957 316.784
L468.403 315.842
L468.85 300.667
L469.296 314.364
L469.742 303.255
L470.189 312.432
L471.082 314.689
L471.528 314.398
L471.974 313.913
L472.421 314.085
L472.867 299.656
L473.314 315.819
L473.76 307.963
L474.206 307.241
L474.653 301.76
L475.099 308.362
L475.546 307.84
L475.992 308.457
L476.438 277.295
L476.885 308.697
L477.331 305.544
L477.778 308.363
L478.224 308.233
L478.67 304.543
L479.117 291.212
L479.563 288.921
L480.01 308.027
L480.456 301.042
L480.902 308.542
L481.349 307.382
L481.795 307.694
L482.242 308.216
L482.688 298.844
L483.134 308.31
L483.581 308.976
L484.027 308.581
L484.474 304.591
L484.92 307.382
L485.366 308.752
L485.813 307.892
L486.259 293.651
L486.706 308.084
L487.152 307.275
L487.598 291.183
L488.045 303.851
L488.491 307.564
L488.938 300.856
L489.83 306.452
L490.277 305.025
L490.723 306.078
L491.17 306.496
L491.616 294.403
L492.062 307.044
L492.509 305.224
L492.955 283.574
L493.402 308.515
L493.848 306.886
L494.294 304.253
L494.741 289.12
L495.187 307.856
L495.634 306.838
L496.08 299.3
L496.526 315.89
L496.973 305.645
L497.419 315.883
L497.866 312.835
L498.312 316.297
L498.758 313.977
L499.205 317.407
L499.651 290.772
L500.098 316.082
L500.544 315.125
L500.99 311.854
L501.437 314.976
L501.883 315.25
L502.33 314.366
L502.776 314.506
L503.222 315.06
L503.669 315.335
L504.115 298.901
L504.562 315.104
L505.008 312.269
L505.454 314.843
L505.901 315.173
L506.347 315.304
L506.794 311.579
L507.24 314.882
L507.686 315.71
L508.133 298.669
L508.579 314.202
L509.026 311.006
L509.472 315.648
L509.918 314.498
L510.365 314.25
L510.811 310.867
L511.258 314.126
L511.704 316.098
L512.15 315.746
L512.597 310.887
L513.043 315.841
L513.49 308.734
L513.936 316.751
L514.382 314.58
L514.829 313.402
L515.275 310.647
L515.722 316.123
L516.168 309.63
L516.614 313.767
L517.061 315.223
L517.954 316.841
L517.954 316.841" style="fill:none;opacity:0.5;stroke:#0000ff;"/>
   </g>
   <g id="matplotlib.axis_1">
    <g id="xtick_1">
     <g id="line2d_4">
      <path clip-path="url(#p7ff5b81e1d)" d="
M72 388.8
L72 43.2" style="fill:none;stroke:#000000;stroke-dasharray:1.000000,3.000000;stroke-dashoffset:0.0;stroke-linecap:butt;stroke-width:0.5;"/>
     </g>
     <g id="line2d_5">
      <defs>
       <path d="
M0 0
L0 -4" id="m0012dd4eef" style="stroke:#000000;stroke-linecap:butt;stroke-width:0.5;"/>
      </defs>
      <g>
       <use style="stroke:#000000;stroke-linecap:butt;stroke-width:0.5;" x="72.0" xlink:href="#m0012dd4eef" y="388.8"/>
      </g>
     </g>
     <g id="line2d_6">
      <defs>
       <path d="
M0 0
L0 4" id="m476344969c" style="stroke:#000000;stroke-linecap:butt;stroke-width:0.5;"/>
      </defs>
      <g>
       <use style="stroke:#000000;stroke-linecap:butt;stroke-width:0.5;" x="72.0" xlink:href="#m476344969c" y="43.2"/>
      </g>
     </g>
     <g id="text_1">
      <!-- 0 -->
      <defs>
       <path d="
M31.7812 66.4062
Q24.1719 66.4062 20.3281 58.9062
Q16.5 51.4219 16.5 36.375
Q16.5 21.3906 20.3281 13.8906
Q24.1719 6.39062 31.7812 6.39062
Q39.4531 6.39062 43.2812 13.8906
Q47.125 21.3906 47.125 36.375
Q47.125 51.4219 43.2812 58.9062
Q39.4531 66.4062 31.7812 66.4062
M31.7812 74.2188
Q44.0469 74.2188 50.5156 64.5156
Q56.9844 54.8281 56.9844 36.375
Q56.9844 17.9688 50.5156 8.26562
Q44.0469 -1.42188 31.7812 -1.42188
Q19.5312 -1.42188 13.0625 8.26562
Q6.59375 17.9688 6.59375 36.375
Q6.59375 54.8281 13.0625 64.5156
Q19.5312 74.2188 31.7812 74.2188" id="BitstreamVeraSans-Roman-30"/>
      </defs>
      <g transform="translate(68.9765625 401.70625)scale(0.12 -0.12)">
       <use xlink:href="#BitstreamVeraSans-Roman-30"/>
      </g>
     </g>
    </g>
    <g id="xtick_2">
     <g id="line2d_7">
      <path clip-path="url(#p7ff5b81e1d)" d="
M116.64 388.8
L116.64 43.2" style="fill:none;stroke:#000000;stroke-dasharray:1.000000,3.000000;stroke-dashoffset:0.0;stroke-linecap:butt;stroke-width:0.5;"/>
     </g>
     <g id="line2d_8">
      <g>
       <use style="stroke:#000000;stroke-linecap:butt;stroke-width:0.5;" x="116.64" xlink:href="#m0012dd4eef" y="388.8"/>
      </g>
     </g>
     <g id="line2d_9">
      <g>
       <use style="stroke:#000000;stroke-linecap:butt;stroke-width:0.5;" x="116.64" xlink:href="#m476344969c" y="43.2"/>
      </g>
     </g>
     <g id="text_2">
      <!-- 100 -->
      <defs>
       <path d="
M12.4062 8.29688
L28.5156 8.29688
L28.5156 63.9219
L10.9844 60.4062
L10.9844 69.3906
L28.4219 72.9062
L38.2812 72.9062
L38.2812 8.29688
L54.3906 8.29688
L54.3906 0
L12.4062 0
z
" id="BitstreamVeraSans-Roman-31"/>
      </defs>
      <g transform="translate(106.245 401.70625)scale(0.12 -0.12)">
       <use xlink:href="#BitstreamVeraSans-Roman-31"/>
       <use x="63.623046875" xlink:href="#BitstreamVeraSans-Roman-30"/>
       <use x="127.24609375" xlink:href="#BitstreamVeraSans-Roman-30"/>
      </g>
     </g>
    </g>
    <g id="xtick_3">
     <g id="line2d_10">
      <path clip-path="url(#p7ff5b81e1d)" d="
M161.28 388.8
L161.28 43.2" style="fill:none;stroke:#000000;stroke-dasharray:1.000000,3.000000;stroke-dashoffset:0.0;stroke-linecap:butt;stroke-width:0.5;"/>
     </g>
     <g id="line2d_11">
      <g>
       <use style="stroke:#000000;stroke-linecap:butt;stroke-width:0.5;" x="161.28" xlink:href="#m0012dd4eef" y="388.8"/>
      </g>
     </g>
     <g id="line2d_12">
      <g>
       <use style="stroke:#000000;stroke-linecap:butt;stroke-width:0.5;" x="161.28" xlink:href="#m476344969c" y="43.2"/>
      </g>
     </g>
     <g id="text_3">
      <!-- 200 -->
      <defs>
       <path d="
M19.1875 8.29688
L53.6094 8.29688
L53.6094 0
L7.32812 0
L7.32812 8.29688
Q12.9375 14.1094 22.625 23.8906
Q32.3281 33.6875 34.8125 36.5312
Q39.5469 41.8438 41.4219 45.5312
Q43.3125 49.2188 43.3125 52.7812
Q43.3125 58.5938 39.2344 62.25
Q35.1562 65.9219 28.6094 65.9219
Q23.9688 65.9219 18.8125 64.3125
Q13.6719 62.7031 7.8125 59.4219
L7.8125 69.3906
Q13.7656 71.7812 18.9375 73
Q24.125 74.2188 28.4219 74.2188
Q39.75 74.2188 46.4844 68.5469
Q53.2188 62.8906 53.2188 53.4219
Q53.2188 48.9219 51.5312 44.8906
Q49.8594 40.875 45.4062 35.4062
Q44.1875 33.9844 37.6406 27.2188
Q31.1094 20.4531 19.1875 8.29688" id="BitstreamVeraSans-Roman-32"/>
      </defs>
      <g transform="translate(150.665625 401.70625)scale(0.12 -0.12)">
       <use xlink:href="#BitstreamVeraSans-Roman-32"/>
       <use x="63.623046875" xlink:href="#BitstreamVeraSans-Roman-30"/>
       <use x="127.24609375" xlink:href="#BitstreamVeraSans-Roman-30"/>
      </g>
     </g>
    </g>
    <g id="xtick_4">
     <g id="line2d_13">
      <path clip-path="url(#p7ff5b81e1d)" d="
M205.92 388.8
L205.92 43.2" style="fill:none;stroke:#000000;stroke-dasharray:1.000000,3.000000;stroke-dashoffset:0.0;stroke-linecap:butt;stroke-width:0.5;"/>
     </g>
     <g id="line2d_14">
      <g>
       <use style="stroke:#000000;stroke-linecap:butt;stroke-width:0.5;" x="205.92" xlink:href="#m0012dd4eef" y="388.8"/>
      </g>
     </g>
     <g id="line2d_15">
      <g>
       <use style="stroke:#000000;stroke-linecap:butt;stroke-width:0.5;" x="205.92" xlink:href="#m476344969c" y="43.2"/>
      </g>
     </g>
     <g id="text_4">
      <!-- 300 -->
      <defs>
       <path d="
M40.5781 39.3125
Q47.6562 37.7969 51.625 33
Q55.6094 28.2188 55.6094 21.1875
Q55.6094 10.4062 48.1875 4.48438
Q40.7656 -1.42188 27.0938 -1.42188
Q22.5156 -1.42188 17.6562 -0.515625
Q12.7969 0.390625 7.625 2.20312
L7.625 11.7188
Q11.7188 9.32812 16.5938 8.10938
Q21.4844 6.89062 26.8125 6.89062
Q36.0781 6.89062 40.9375 10.5469
Q45.7969 14.2031 45.7969 21.1875
Q45.7969 27.6406 41.2812 31.2656
Q36.7656 34.9062 28.7188 34.9062
L20.2188 34.9062
L20.2188 43.0156
L29.1094 43.0156
Q36.375 43.0156 40.2344 45.9219
Q44.0938 48.8281 44.0938 54.2969
Q44.0938 59.9062 40.1094 62.9062
Q36.1406 65.9219 28.7188 65.9219
Q24.6562 65.9219 20.0156 65.0312
Q15.375 64.1562 9.8125 62.3125
L9.8125 71.0938
Q15.4375 72.6562 20.3438 73.4375
Q25.25 74.2188 29.5938 74.2188
Q40.8281 74.2188 47.3594 69.1094
Q53.9062 64.0156 53.9062 55.3281
Q53.9062 49.2656 50.4375 45.0938
Q46.9688 40.9219 40.5781 39.3125" id="BitstreamVeraSans-Roman-33"/>
      </defs>
      <g transform="translate(195.3234375 401.70625)scale(0.12 -0.12)">
       <use xlink:href="#BitstreamVeraSans-Roman-33"/>
       <use x="63.623046875" xlink:href="#BitstreamVeraSans-Roman-30"/>
       <use x="127.24609375" xlink:href="#BitstreamVeraSans-Roman-30"/>
      </g>
     </g>
    </g>
    <g id="xtick_5">
     <g id="line2d_16">
      <path clip-path="url(#p7ff5b81e1d)" d="
M250.56 388.8
L250.56 43.2" style="fill:none;stroke:#000000;stroke-dasharray:1.000000,3.000000;stroke-dashoffset:0.0;stroke-linecap:butt;stroke-width:0.5;"/>
     </g>
     <g id="line2d_17">
      <g>
       <use style="stroke:#000000;stroke-linecap:butt;stroke-width:0.5;" x="250.56" xlink:href="#m0012dd4eef" y="388.8"/>
      </g>
     </g>
     <g id="line2d_18">
      <g>
       <use style="stroke:#000000;stroke-linecap:butt;stroke-width:0.5;" x="250.56" xlink:href="#m476344969c" y="43.2"/>
      </g>
     </g>
     <g id="text_5">
      <!-- 400 -->
      <defs>
       <path d="
M37.7969 64.3125
L12.8906 25.3906
L37.7969 25.3906
z

M35.2031 72.9062
L47.6094 72.9062
L47.6094 25.3906
L58.0156 25.3906
L58.0156 17.1875
L47.6094 17.1875
L47.6094 0
L37.7969 0
L37.7969 17.1875
L4.89062 17.1875
L4.89062 26.7031
z
" id="BitstreamVeraSans-Roman-34"/>
      </defs>
      <g transform="translate(239.799375 401.70625)scale(0.12 -0.12)">
       <use xlink:href="#BitstreamVeraSans-Roman-34"/>
       <use x="63.623046875" xlink:href="#BitstreamVeraSans-Roman-30"/>
       <use x="127.24609375" xlink:href="#BitstreamVeraSans-Roman-30"/>
      </g>
     </g>
    </g>
    <g id="xtick_6">
     <g id="line2d_19">
      <path clip-path="url(#p7ff5b81e1d)" d="
M295.2 388.8
L295.2 43.2" style="fill:none;stroke:#000000;stroke-dasharray:1.000000,3.000000;stroke-dashoffset:0.0;stroke-linecap:butt;stroke-width:0.5;"/>
     </g>
     <g id="line2d_20">
      <g>
       <use style="stroke:#000000;stroke-linecap:butt;stroke-width:0.5;" x="295.2" xlink:href="#m0012dd4eef" y="388.8"/>
      </g>
     </g>
     <g id="line2d_21">
      <g>
       <use style="stroke:#000000;stroke-linecap:butt;stroke-width:0.5;" x="295.2" xlink:href="#m476344969c" y="43.2"/>
      </g>
     </g>
     <g id="text_6">
      <!-- 500 -->
      <defs>
       <path d="
M10.7969 72.9062
L49.5156 72.9062
L49.5156 64.5938
L19.8281 64.5938
L19.8281 46.7344
Q21.9688 47.4688 24.1094 47.8281
Q26.2656 48.1875 28.4219 48.1875
Q40.625 48.1875 47.75 41.5
Q54.8906 34.8125 54.8906 23.3906
Q54.8906 11.625 47.5625 5.09375
Q40.2344 -1.42188 26.9062 -1.42188
Q22.3125 -1.42188 17.5469 -0.640625
Q12.7969 0.140625 7.71875 1.70312
L7.71875 11.625
Q12.1094 9.23438 16.7969 8.0625
Q21.4844 6.89062 26.7031 6.89062
Q35.1562 6.89062 40.0781 11.3281
Q45.0156 15.7656 45.0156 23.3906
Q45.0156 31 40.0781 35.4375
Q35.1562 39.8906 26.7031 39.8906
Q22.75 39.8906 18.8125 39.0156
Q14.8906 38.1406 10.7969 36.2812
z
" id="BitstreamVeraSans-Roman-35"/>
      </defs>
      <g transform="translate(284.6090625 401.70625)scale(0.12 -0.12)">
       <use xlink:href="#BitstreamVeraSans-Roman-35"/>
       <use x="63.623046875" xlink:href="#BitstreamVeraSans-Roman-30"/>
       <use x="127.24609375" xlink:href="#BitstreamVeraSans-Roman-30"/>
      </g>
     </g>
    </g>
    <g id="xtick_7">
     <g id="line2d_22">
      <path clip-path="url(#p7ff5b81e1d)" d="
M339.84 388.8
L339.84 43.2" style="fill:none;stroke:#000000;stroke-dasharray:1.000000,3.000000;stroke-dashoffset:0.0;stroke-linecap:butt;stroke-width:0.5;"/>
     </g>
     <g id="line2d_23">
      <g>
       <use style="stroke:#000000;stroke-linecap:butt;stroke-width:0.5;" x="339.84" xlink:href="#m0012dd4eef" y="388.8"/>
      </g>
     </g>
     <g id="line2d_24">
      <g>
       <use style="stroke:#000000;stroke-linecap:butt;stroke-width:0.5;" x="339.84" xlink:href="#m476344969c" y="43.2"/>
      </g>
     </g>
     <g id="text_7">
      <!-- 600 -->
      <defs>
       <path d="
M33.0156 40.375
Q26.375 40.375 22.4844 35.8281
Q18.6094 31.2969 18.6094 23.3906
Q18.6094 15.5312 22.4844 10.9531
Q26.375 6.39062 33.0156 6.39062
Q39.6562 6.39062 43.5312 10.9531
Q47.4062 15.5312 47.4062 23.3906
Q47.4062 31.2969 43.5312 35.8281
Q39.6562 40.375 33.0156 40.375
M52.5938 71.2969
L52.5938 62.3125
Q48.875 64.0625 45.0938 64.9844
Q41.3125 65.9219 37.5938 65.9219
Q27.8281 65.9219 22.6719 59.3281
Q17.5312 52.7344 16.7969 39.4062
Q19.6719 43.6562 24.0156 45.9219
Q28.375 48.1875 33.5938 48.1875
Q44.5781 48.1875 50.9531 41.5156
Q57.3281 34.8594 57.3281 23.3906
Q57.3281 12.1562 50.6875 5.35938
Q44.0469 -1.42188 33.0156 -1.42188
Q20.3594 -1.42188 13.6719 8.26562
Q6.98438 17.9688 6.98438 36.375
Q6.98438 53.6562 15.1875 63.9375
Q23.3906 74.2188 37.2031 74.2188
Q40.9219 74.2188 44.7031 73.4844
Q48.4844 72.75 52.5938 71.2969" id="BitstreamVeraSans-Roman-36"/>
      </defs>
      <g transform="translate(329.205 401.70625)scale(0.12 -0.12)">
       <use xlink:href="#BitstreamVeraSans-Roman-36"/>
       <use x="63.623046875" xlink:href="#BitstreamVeraSans-Roman-30"/>
       <use x="127.24609375" xlink:href="#BitstreamVeraSans-Roman-30"/>
      </g>
     </g>
    </g>
    <g id="xtick_8">
     <g id="line2d_25">
      <path clip-path="url(#p7ff5b81e1d)" d="
M384.48 388.8
L384.48 43.2" style="fill:none;stroke:#000000;stroke-dasharray:1.000000,3.000000;stroke-dashoffset:0.0;stroke-linecap:butt;stroke-width:0.5;"/>
     </g>
     <g id="line2d_26">
      <g>
       <use style="stroke:#000000;stroke-linecap:butt;stroke-width:0.5;" x="384.48" xlink:href="#m0012dd4eef" y="388.8"/>
      </g>
     </g>
     <g id="line2d_27">
      <g>
       <use style="stroke:#000000;stroke-linecap:butt;stroke-width:0.5;" x="384.48" xlink:href="#m476344969c" y="43.2"/>
      </g>
     </g>
     <g id="text_8">
      <!-- 700 -->
      <defs>
       <path d="
M8.20312 72.9062
L55.0781 72.9062
L55.0781 68.7031
L28.6094 0
L18.3125 0
L43.2188 64.5938
L8.20312 64.5938
z
" id="BitstreamVeraSans-Roman-37"/>
      </defs>
      <g transform="translate(373.918125 401.70625)scale(0.12 -0.12)">
       <use xlink:href="#BitstreamVeraSans-Roman-37"/>
       <use x="63.623046875" xlink:href="#BitstreamVeraSans-Roman-30"/>
       <use x="127.24609375" xlink:href="#BitstreamVeraSans-Roman-30"/>
      </g>
     </g>
    </g>
    <g id="xtick_9">
     <g id="line2d_28">
      <path clip-path="url(#p7ff5b81e1d)" d="
M429.12 388.8
L429.12 43.2" style="fill:none;stroke:#000000;stroke-dasharray:1.000000,3.000000;stroke-dashoffset:0.0;stroke-linecap:butt;stroke-width:0.5;"/>
     </g>
     <g id="line2d_29">
      <g>
       <use style="stroke:#000000;stroke-linecap:butt;stroke-width:0.5;" x="429.12" xlink:href="#m0012dd4eef" y="388.8"/>
      </g>
     </g>
     <g id="line2d_30">
      <g>
       <use style="stroke:#000000;stroke-linecap:butt;stroke-width:0.5;" x="429.12" xlink:href="#m476344969c" y="43.2"/>
      </g>
     </g>
     <g id="text_9">
      <!-- 800 -->
      <defs>
       <path d="
M31.7812 34.625
Q24.75 34.625 20.7188 30.8594
Q16.7031 27.0938 16.7031 20.5156
Q16.7031 13.9219 20.7188 10.1562
Q24.75 6.39062 31.7812 6.39062
Q38.8125 6.39062 42.8594 10.1719
Q46.9219 13.9688 46.9219 20.5156
Q46.9219 27.0938 42.8906 30.8594
Q38.875 34.625 31.7812 34.625
M21.9219 38.8125
Q15.5781 40.375 12.0312 44.7188
Q8.5 49.0781 8.5 55.3281
Q8.5 64.0625 14.7188 69.1406
Q20.9531 74.2188 31.7812 74.2188
Q42.6719 74.2188 48.875 69.1406
Q55.0781 64.0625 55.0781 55.3281
Q55.0781 49.0781 51.5312 44.7188
Q48 40.375 41.7031 38.8125
Q48.8281 37.1562 52.7969 32.3125
Q56.7812 27.4844 56.7812 20.5156
Q56.7812 9.90625 50.3125 4.23438
Q43.8438 -1.42188 31.7812 -1.42188
Q19.7344 -1.42188 13.25 4.23438
Q6.78125 9.90625 6.78125 20.5156
Q6.78125 27.4844 10.7812 32.3125
Q14.7969 37.1562 21.9219 38.8125
M18.3125 54.3906
Q18.3125 48.7344 21.8438 45.5625
Q25.3906 42.3906 31.7812 42.3906
Q38.1406 42.3906 41.7188 45.5625
Q45.3125 48.7344 45.3125 54.3906
Q45.3125 60.0625 41.7188 63.2344
Q38.1406 66.4062 31.7812 66.4062
Q25.3906 66.4062 21.8438 63.2344
Q18.3125 60.0625 18.3125 54.3906" id="BitstreamVeraSans-Roman-38"/>
      </defs>
      <g transform="translate(418.4728125 401.70625)scale(0.12 -0.12)">
       <use xlink:href="#BitstreamVeraSans-Roman-38"/>
       <use x="63.623046875" xlink:href="#BitstreamVeraSans-Roman-30"/>
       <use x="127.24609375" xlink:href="#BitstreamVeraSans-Roman-30"/>
      </g>
     </g>
    </g>
    <g id="xtick_10">
     <g id="line2d_31">
      <path clip-path="url(#p7ff5b81e1d)" d="
M473.76 388.8
L473.76 43.2" style="fill:none;stroke:#000000;stroke-dasharray:1.000000,3.000000;stroke-dashoffset:0.0;stroke-linecap:butt;stroke-width:0.5;"/>
     </g>
     <g id="line2d_32">
      <g>
       <use style="stroke:#000000;stroke-linecap:butt;stroke-width:0.5;" x="473.76" xlink:href="#m0012dd4eef" y="388.8"/>
      </g>
     </g>
     <g id="line2d_33">
      <g>
       <use style="stroke:#000000;stroke-linecap:butt;stroke-width:0.5;" x="473.76" xlink:href="#m476344969c" y="43.2"/>
      </g>
     </g>
     <g id="text_10">
      <!-- 900 -->
      <defs>
       <path d="
M10.9844 1.51562
L10.9844 10.5
Q14.7031 8.73438 18.5 7.8125
Q22.3125 6.89062 25.9844 6.89062
Q35.75 6.89062 40.8906 13.4531
Q46.0469 20.0156 46.7812 33.4062
Q43.9531 29.2031 39.5938 26.9531
Q35.25 24.7031 29.9844 24.7031
Q19.0469 24.7031 12.6719 31.3125
Q6.29688 37.9375 6.29688 49.4219
Q6.29688 60.6406 12.9375 67.4219
Q19.5781 74.2188 30.6094 74.2188
Q43.2656 74.2188 49.9219 64.5156
Q56.5938 54.8281 56.5938 36.375
Q56.5938 19.1406 48.4062 8.85938
Q40.2344 -1.42188 26.4219 -1.42188
Q22.7031 -1.42188 18.8906 -0.6875
Q15.0938 0.046875 10.9844 1.51562
M30.6094 32.4219
Q37.25 32.4219 41.125 36.9531
Q45.0156 41.5 45.0156 49.4219
Q45.0156 57.2812 41.125 61.8438
Q37.25 66.4062 30.6094 66.4062
Q23.9688 66.4062 20.0938 61.8438
Q16.2188 57.2812 16.2188 49.4219
Q16.2188 41.5 20.0938 36.9531
Q23.9688 32.4219 30.6094 32.4219" id="BitstreamVeraSans-Roman-39"/>
      </defs>
      <g transform="translate(463.08375 401.70625)scale(0.12 -0.12)">
       <use xlink:href="#BitstreamVeraSans-Roman-39"/>
       <use x="63.623046875" xlink:href="#BitstreamVeraSans-Roman-30"/>
       <use x="127.24609375" xlink:href="#BitstreamVeraSans-Roman-30"/>
      </g>
     </g>
    </g>
   </g>
   <g id="matplotlib.axis_2">
    <g id="ytick_1">
     <g id="line2d_34">
      <path clip-path="url(#p7ff5b81e1d)" d="
M72 388.8
L518.4 388.8" style="fill:none;stroke:#000000;stroke-dasharray:1.000000,3.000000;stroke-dashoffset:0.0;stroke-linecap:butt;stroke-width:0.5;"/>
     </g>
     <g id="line2d_35">
      <defs>
       <path d="
M0 0
L4 0" id="me8a85f7bf6" style="stroke:#000000;stroke-linecap:butt;stroke-width:0.5;"/>
      </defs>
      <g>
       <use style="stroke:#000000;stroke-linecap:butt;stroke-width:0.5;" x="72.0" xlink:href="#me8a85f7bf6" y="388.8"/>
      </g>
     </g>
     <g id="line2d_36">
      <defs>
       <path d="
M0 0
L-4 0" id="m1a32005dea" style="stroke:#000000;stroke-linecap:butt;stroke-width:0.5;"/>
      </defs>
      <g>
       <use style="stroke:#000000;stroke-linecap:butt;stroke-width:0.5;" x="518.4" xlink:href="#m1a32005dea" y="388.8"/>
      </g>
     </g>
     <g id="text_11">
      <!-- 0.000 -->
      <defs>
       <path d="
M10.6875 12.4062
L21 12.4062
L21 0
L10.6875 0
z
" id="BitstreamVeraSans-Roman-2e"/>
      </defs>
      <g transform="translate(35.234375 393.1678125)scale(0.12 -0.12)">
       <use xlink:href="#BitstreamVeraSans-Roman-30"/>
       <use x="63.623046875" xlink:href="#BitstreamVeraSans-Roman-2e"/>
       <use x="95.41015625" xlink:href="#BitstreamVeraSans-Roman-30"/>
       <use x="159.033203125" xlink:href="#BitstreamVeraSans-Roman-30"/>
       <use x="222.65625" xlink:href="#BitstreamVeraSans-Roman-30"/>
      </g>
     </g>
    </g>
    <g id="ytick_2">
     <g id="line2d_37">
      <path clip-path="url(#p7ff5b81e1d)" d="
M72 354.24
L518.4 354.24" style="fill:none;stroke:#000000;stroke-dasharray:1.000000,3.000000;stroke-dashoffset:0.0;stroke-linecap:butt;stroke-width:0.5;"/>
     </g>
     <g id="line2d_38">
      <g>
       <use style="stroke:#000000;stroke-linecap:butt;stroke-width:0.5;" x="72.0" xlink:href="#me8a85f7bf6" y="354.24"/>
      </g>
     </g>
     <g id="line2d_39">
      <g>
       <use style="stroke:#000000;stroke-linecap:butt;stroke-width:0.5;" x="518.4" xlink:href="#m1a32005dea" y="354.24"/>
      </g>
     </g>
     <g id="text_12">
      <!-- 0.002 -->
      <g transform="translate(35.639375 358.6078125)scale(0.12 -0.12)">
       <use xlink:href="#BitstreamVeraSans-Roman-30"/>
       <use x="63.623046875" xlink:href="#BitstreamVeraSans-Roman-2e"/>
       <use x="95.41015625" xlink:href="#BitstreamVeraSans-Roman-30"/>
       <use x="159.033203125" xlink:href="#BitstreamVeraSans-Roman-30"/>
       <use x="222.65625" xlink:href="#BitstreamVeraSans-Roman-32"/>
      </g>
     </g>
    </g>
    <g id="ytick_3">
     <g id="line2d_40">
      <path clip-path="url(#p7ff5b81e1d)" d="
M72 319.68
L518.4 319.68" style="fill:none;stroke:#000000;stroke-dasharray:1.000000,3.000000;stroke-dashoffset:0.0;stroke-linecap:butt;stroke-width:0.5;"/>
     </g>
     <g id="line2d_41">
      <g>
       <use style="stroke:#000000;stroke-linecap:butt;stroke-width:0.5;" x="72.0" xlink:href="#me8a85f7bf6" y="319.68"/>
      </g>
     </g>
     <g id="line2d_42">
      <g>
       <use style="stroke:#000000;stroke-linecap:butt;stroke-width:0.5;" x="518.4" xlink:href="#m1a32005dea" y="319.68"/>
      </g>
     </g>
     <g id="text_13">
      <!-- 0.004 -->
      <g transform="translate(35.110625 324.0478125)scale(0.12 -0.12)">
       <use xlink:href="#BitstreamVeraSans-Roman-30"/>
       <use x="63.623046875" xlink:href="#BitstreamVeraSans-Roman-2e"/>
       <use x="95.41015625" xlink:href="#BitstreamVeraSans-Roman-30"/>
       <use x="159.033203125" xlink:href="#BitstreamVeraSans-Roman-30"/>
       <use x="222.65625" xlink:href="#BitstreamVeraSans-Roman-34"/>
      </g>
     </g>
    </g>
    <g id="ytick_4">
     <g id="line2d_43">
      <path clip-path="url(#p7ff5b81e1d)" d="
M72 285.12
L518.4 285.12" style="fill:none;stroke:#000000;stroke-dasharray:1.000000,3.000000;stroke-dashoffset:0.0;stroke-linecap:butt;stroke-width:0.5;"/>
     </g>
     <g id="line2d_44">
      <g>
       <use style="stroke:#000000;stroke-linecap:butt;stroke-width:0.5;" x="72.0" xlink:href="#me8a85f7bf6" y="285.12"/>
      </g>
     </g>
     <g id="line2d_45">
      <g>
       <use style="stroke:#000000;stroke-linecap:butt;stroke-width:0.5;" x="518.4" xlink:href="#m1a32005dea" y="285.12"/>
      </g>
     </g>
     <g id="text_14">
      <!-- 0.006 -->
      <g transform="translate(35.193125 289.4878125)scale(0.12 -0.12)">
       <use xlink:href="#BitstreamVeraSans-Roman-30"/>
       <use x="63.623046875" xlink:href="#BitstreamVeraSans-Roman-2e"/>
       <use x="95.41015625" xlink:href="#BitstreamVeraSans-Roman-30"/>
       <use x="159.033203125" xlink:href="#BitstreamVeraSans-Roman-30"/>
       <use x="222.65625" xlink:href="#BitstreamVeraSans-Roman-36"/>
      </g>
     </g>
    </g>
    <g id="ytick_5">
     <g id="line2d_46">
      <path clip-path="url(#p7ff5b81e1d)" d="
M72 250.56
L518.4 250.56" style="fill:none;stroke:#000000;stroke-dasharray:1.000000,3.000000;stroke-dashoffset:0.0;stroke-linecap:butt;stroke-width:0.5;"/>
     </g>
     <g id="line2d_47">
      <g>
       <use style="stroke:#000000;stroke-linecap:butt;stroke-width:0.5;" x="72.0" xlink:href="#me8a85f7bf6" y="250.56"/>
      </g>
     </g>
     <g id="line2d_48">
      <g>
       <use style="stroke:#000000;stroke-linecap:butt;stroke-width:0.5;" x="518.4" xlink:href="#m1a32005dea" y="250.56"/>
      </g>
     </g>
     <g id="text_15">
      <!-- 0.008 -->
      <g transform="translate(35.25875 254.9278125)scale(0.12 -0.12)">
       <use xlink:href="#BitstreamVeraSans-Roman-30"/>
       <use x="63.623046875" xlink:href="#BitstreamVeraSans-Roman-2e"/>
       <use x="95.41015625" xlink:href="#BitstreamVeraSans-Roman-30"/>
       <use x="159.033203125" xlink:href="#BitstreamVeraSans-Roman-30"/>
       <use x="222.65625" xlink:href="#BitstreamVeraSans-Roman-38"/>
      </g>
     </g>
    </g>
    <g id="ytick_6">
     <g id="line2d_49">
      <path clip-path="url(#p7ff5b81e1d)" d="
M72 216
L518.4 216" style="fill:none;stroke:#000000;stroke-dasharray:1.000000,3.000000;stroke-dashoffset:0.0;stroke-linecap:butt;stroke-width:0.5;"/>
     </g>
     <g id="line2d_50">
      <g>
       <use style="stroke:#000000;stroke-linecap:butt;stroke-width:0.5;" x="72.0" xlink:href="#me8a85f7bf6" y="216.0"/>
      </g>
     </g>
     <g id="line2d_51">
      <g>
       <use style="stroke:#000000;stroke-linecap:butt;stroke-width:0.5;" x="518.4" xlink:href="#m1a32005dea" y="216.0"/>
      </g>
     </g>
     <g id="text_16">
      <!-- 0.010 -->
      <g transform="translate(35.234375 220.3678125)scale(0.12 -0.12)">
       <use xlink:href="#BitstreamVeraSans-Roman-30"/>
       <use x="63.623046875" xlink:href="#BitstreamVeraSans-Roman-2e"/>
       <use x="95.41015625" xlink:href="#BitstreamVeraSans-Roman-30"/>
       <use x="159.033203125" xlink:href="#BitstreamVeraSans-Roman-31"/>
       <use x="222.65625" xlink:href="#BitstreamVeraSans-Roman-30"/>
      </g>
     </g>
    </g>
    <g id="ytick_7">
     <g id="line2d_52">
      <path clip-path="url(#p7ff5b81e1d)" d="
M72 181.44
L518.4 181.44" style="fill:none;stroke:#000000;stroke-dasharray:1.000000,3.000000;stroke-dashoffset:0.0;stroke-linecap:butt;stroke-width:0.5;"/>
     </g>
     <g id="line2d_53">
      <g>
       <use style="stroke:#000000;stroke-linecap:butt;stroke-width:0.5;" x="72.0" xlink:href="#me8a85f7bf6" y="181.44"/>
      </g>
     </g>
     <g id="line2d_54">
      <g>
       <use style="stroke:#000000;stroke-linecap:butt;stroke-width:0.5;" x="518.4" xlink:href="#m1a32005dea" y="181.44"/>
      </g>
     </g>
     <g id="text_17">
      <!-- 0.012 -->
      <g transform="translate(35.639375 185.8078125)scale(0.12 -0.12)">
       <use xlink:href="#BitstreamVeraSans-Roman-30"/>
       <use x="63.623046875" xlink:href="#BitstreamVeraSans-Roman-2e"/>
       <use x="95.41015625" xlink:href="#BitstreamVeraSans-Roman-30"/>
       <use x="159.033203125" xlink:href="#BitstreamVeraSans-Roman-31"/>
       <use x="222.65625" xlink:href="#BitstreamVeraSans-Roman-32"/>
      </g>
     </g>
    </g>
    <g id="ytick_8">
     <g id="line2d_55">
      <path clip-path="url(#p7ff5b81e1d)" d="
M72 146.88
L518.4 146.88" style="fill:none;stroke:#000000;stroke-dasharray:1.000000,3.000000;stroke-dashoffset:0.0;stroke-linecap:butt;stroke-width:0.5;"/>
     </g>
     <g id="line2d_56">
      <g>
       <use style="stroke:#000000;stroke-linecap:butt;stroke-width:0.5;" x="72.0" xlink:href="#me8a85f7bf6" y="146.88"/>
      </g>
     </g>
     <g id="line2d_57">
      <g>
       <use style="stroke:#000000;stroke-linecap:butt;stroke-width:0.5;" x="518.4" xlink:href="#m1a32005dea" y="146.88"/>
      </g>
     </g>
     <g id="text_18">
      <!-- 0.014 -->
      <g transform="translate(35.110625 151.2478125)scale(0.12 -0.12)">
       <use xlink:href="#BitstreamVeraSans-Roman-30"/>
       <use x="63.623046875" xlink:href="#BitstreamVeraSans-Roman-2e"/>
       <use x="95.41015625" xlink:href="#BitstreamVeraSans-Roman-30"/>
       <use x="159.033203125" xlink:href="#BitstreamVeraSans-Roman-31"/>
       <use x="222.65625" xlink:href="#BitstreamVeraSans-Roman-34"/>
      </g>
     </g>
    </g>
    <g id="ytick_9">
     <g id="line2d_58">
      <path clip-path="url(#p7ff5b81e1d)" d="
M72 112.32
L518.4 112.32" style="fill:none;stroke:#000000;stroke-dasharray:1.000000,3.000000;stroke-dashoffset:0.0;stroke-linecap:butt;stroke-width:0.5;"/>
     </g>
     <g id="line2d_59">
      <g>
       <use style="stroke:#000000;stroke-linecap:butt;stroke-width:0.5;" x="72.0" xlink:href="#me8a85f7bf6" y="112.32"/>
      </g>
     </g>
     <g id="line2d_60">
      <g>
       <use style="stroke:#000000;stroke-linecap:butt;stroke-width:0.5;" x="518.4" xlink:href="#m1a32005dea" y="112.32"/>
      </g>
     </g>
     <g id="text_19">
      <!-- 0.016 -->
      <g transform="translate(35.193125 116.6878125)scale(0.12 -0.12)">
       <use xlink:href="#BitstreamVeraSans-Roman-30"/>
       <use x="63.623046875" xlink:href="#BitstreamVeraSans-Roman-2e"/>
       <use x="95.41015625" xlink:href="#BitstreamVeraSans-Roman-30"/>
       <use x="159.033203125" xlink:href="#BitstreamVeraSans-Roman-31"/>
       <use x="222.65625" xlink:href="#BitstreamVeraSans-Roman-36"/>
      </g>
     </g>
    </g>
    <g id="ytick_10">
     <g id="line2d_61">
      <path clip-path="url(#p7ff5b81e1d)" d="
M72 77.76
L518.4 77.76" style="fill:none;stroke:#000000;stroke-dasharray:1.000000,3.000000;stroke-dashoffset:0.0;stroke-linecap:butt;stroke-width:0.5;"/>
     </g>
     <g id="line2d_62">
      <g>
       <use style="stroke:#000000;stroke-linecap:butt;stroke-width:0.5;" x="72.0" xlink:href="#me8a85f7bf6" y="77.76"/>
      </g>
     </g>
     <g id="line2d_63">
      <g>
       <use style="stroke:#000000;stroke-linecap:butt;stroke-width:0.5;" x="518.4" xlink:href="#m1a32005dea" y="77.76"/>
      </g>
     </g>
     <g id="text_20">
      <!-- 0.018 -->
      <g transform="translate(35.25875 82.1278125)scale(0.12 -0.12)">
       <use xlink:href="#BitstreamVeraSans-Roman-30"/>
       <use x="63.623046875" xlink:href="#BitstreamVeraSans-Roman-2e"/>
       <use x="95.41015625" xlink:href="#BitstreamVeraSans-Roman-30"/>
       <use x="159.033203125" xlink:href="#BitstreamVeraSans-Roman-31"/>
       <use x="222.65625" xlink:href="#BitstreamVeraSans-Roman-38"/>
      </g>
     </g>
    </g>
    <g id="text_21">
     <!-- Sec/file -->
     <defs>
      <path d="
M9.42188 75.9844
L18.4062 75.9844
L18.4062 0
L9.42188 0
z
" id="BitstreamVeraSans-Roman-6c"/>
      <path d="
M53.5156 70.5156
L53.5156 60.8906
Q47.9062 63.5781 42.9219 64.8906
Q37.9375 66.2188 33.2969 66.2188
Q25.25 66.2188 20.875 63.0938
Q16.5 59.9688 16.5 54.2031
Q16.5 49.3594 19.4062 46.8906
Q22.3125 44.4375 30.4219 42.9219
L36.375 41.7031
Q47.4062 39.5938 52.6562 34.2969
Q57.9062 29 57.9062 20.125
Q57.9062 9.51562 50.7969 4.04688
Q43.7031 -1.42188 29.9844 -1.42188
Q24.8125 -1.42188 18.9688 -0.25
Q13.1406 0.921875 6.89062 3.21875
L6.89062 13.375
Q12.8906 10.0156 18.6562 8.29688
Q24.4219 6.59375 29.9844 6.59375
Q38.4219 6.59375 43.0156 9.90625
Q47.6094 13.2344 47.6094 19.3906
Q47.6094 24.75 44.3125 27.7812
Q41.0156 30.8125 33.5 32.3281
L27.4844 33.5
Q16.4531 35.6875 11.5156 40.375
Q6.59375 45.0625 6.59375 53.4219
Q6.59375 63.0938 13.4062 68.6562
Q20.2188 74.2188 32.1719 74.2188
Q37.3125 74.2188 42.625 73.2812
Q47.9531 72.3594 53.5156 70.5156" id="BitstreamVeraSans-Roman-53"/>
      <path d="
M9.42188 54.6875
L18.4062 54.6875
L18.4062 0
L9.42188 0
z

M9.42188 75.9844
L18.4062 75.9844
L18.4062 64.5938
L9.42188 64.5938
z
" id="BitstreamVeraSans-Roman-69"/>
      <path d="
M25.3906 72.9062
L33.6875 72.9062
L8.29688 -9.28125
L0 -9.28125
z
" id="BitstreamVeraSans-Roman-2f"/>
      <path d="
M56.2031 29.5938
L56.2031 25.2031
L14.8906 25.2031
Q15.4844 15.9219 20.4844 11.0625
Q25.4844 6.20312 34.4219 6.20312
Q39.5938 6.20312 44.4531 7.46875
Q49.3125 8.73438 54.1094 11.2812
L54.1094 2.78125
Q49.2656 0.734375 44.1875 -0.34375
Q39.1094 -1.42188 33.8906 -1.42188
Q20.7969 -1.42188 13.1562 6.1875
Q5.51562 13.8125 5.51562 26.8125
Q5.51562 40.2344 12.7656 48.1094
Q20.0156 56 32.3281 56
Q43.3594 56 49.7812 48.8906
Q56.2031 41.7969 56.2031 29.5938
M47.2188 32.2344
Q47.125 39.5938 43.0938 43.9844
Q39.0625 48.3906 32.4219 48.3906
Q24.9062 48.3906 20.3906 44.1406
Q15.875 39.8906 15.1875 32.1719
z
" id="BitstreamVeraSans-Roman-65"/>
      <path d="
M37.1094 75.9844
L37.1094 68.5
L28.5156 68.5
Q23.6875 68.5 21.7969 66.5469
Q19.9219 64.5938 19.9219 59.5156
L19.9219 54.6875
L34.7188 54.6875
L34.7188 47.7031
L19.9219 47.7031
L19.9219 0
L10.8906 0
L10.8906 47.7031
L2.29688 47.7031
L2.29688 54.6875
L10.8906 54.6875
L10.8906 58.5
Q10.8906 67.625 15.1406 71.7969
Q19.3906 75.9844 28.6094 75.9844
z
" id="BitstreamVeraSans-Roman-66"/>
      <path d="
M48.7812 52.5938
L48.7812 44.1875
Q44.9688 46.2969 41.1406 47.3438
Q37.3125 48.3906 33.4062 48.3906
Q24.6562 48.3906 19.8125 42.8438
Q14.9844 37.3125 14.9844 27.2969
Q14.9844 17.2812 19.8125 11.7344
Q24.6562 6.20312 33.4062 6.20312
Q37.3125 6.20312 41.1406 7.25
Q44.9688 8.29688 48.7812 10.4062
L48.7812 2.09375
Q45.0156 0.34375 40.9844 -0.53125
Q36.9688 -1.42188 32.4219 -1.42188
Q20.0625 -1.42188 12.7812 6.34375
Q5.51562 14.1094 5.51562 27.2969
Q5.51562 40.6719 12.8594 48.3281
Q20.2188 56 33.0156 56
Q37.1562 56 41.1094 55.1406
Q45.0625 54.2969 48.7812 52.5938" id="BitstreamVeraSans-Roman-63"/>
     </defs>
     <g transform="translate(30.110625 236.13)rotate(-90.0)scale(0.12 -0.12)">
      <use xlink:href="#BitstreamVeraSans-Roman-53"/>
      <use x="63.4765625" xlink:href="#BitstreamVeraSans-Roman-65"/>
      <use x="125.0" xlink:href="#BitstreamVeraSans-Roman-63"/>
      <use x="179.98046875" xlink:href="#BitstreamVeraSans-Roman-2f"/>
      <use x="213.671875" xlink:href="#BitstreamVeraSans-Roman-66"/>
      <use x="248.876953125" xlink:href="#BitstreamVeraSans-Roman-69"/>
      <use x="276.66015625" xlink:href="#BitstreamVeraSans-Roman-6c"/>
      <use x="304.443359375" xlink:href="#BitstreamVeraSans-Roman-65"/>
     </g>
    </g>
   </g>
   <g id="patch_3">
    <path d="
M72 43.2
L518.4 43.2" style="fill:none;stroke:#000000;"/>
   </g>
   <g id="patch_4">
    <path d="
M518.4 388.8
L518.4 43.2" style="fill:none;stroke:#000000;"/>
   </g>
   <g id="patch_5">
    <path d="
M72 388.8
L518.4 388.8" style="fill:none;stroke:#000000;"/>
   </g>
   <g id="patch_6">
    <path d="
M72 388.8
L72 43.2" style="fill:none;stroke:#000000;"/>
   </g>
   <g id="text_22">
    <!-- Seq -->
    <defs>
     <path d="
M14.7969 27.2969
Q14.7969 17.3906 18.875 11.75
Q22.9531 6.10938 30.0781 6.10938
Q37.2031 6.10938 41.2969 11.75
Q45.4062 17.3906 45.4062 27.2969
Q45.4062 37.2031 41.2969 42.8438
Q37.2031 48.4844 30.0781 48.4844
Q22.9531 48.4844 18.875 42.8438
Q14.7969 37.2031 14.7969 27.2969
M45.4062 8.20312
Q42.5781 3.32812 38.25 0.953125
Q33.9375 -1.42188 27.875 -1.42188
Q17.9688 -1.42188 11.7344 6.48438
Q5.51562 14.4062 5.51562 27.2969
Q5.51562 40.1875 11.7344 48.0938
Q17.9688 56 27.875 56
Q33.9375 56 38.25 53.625
Q42.5781 51.2656 45.4062 46.3906
L45.4062 54.6875
L54.3906 54.6875
L54.3906 -20.7969
L45.4062 -20.7969
z
" id="BitstreamVeraSans-Roman-71"/>
    </defs>
    <g transform="translate(282.7575 38.2)scale(0.144 -0.144)">
     <use xlink:href="#BitstreamVeraSans-Roman-53"/>
     <use x="63.4765625" xlink:href="#BitstreamVeraSans-Roman-65"/>
     <use x="125.0" xlink:href="#BitstreamVeraSans-Roman-71"/>
    </g>
   </g>
   <g id="legend_1">
    <g id="patch_7">
     <path d="
M429.055 115.339
L511.2 115.339
L511.2 50.4
L429.055 50.4
L429.055 115.339
z
" style="fill:#ffffff;stroke:#000000;"/>
    </g>
    <g id="line2d_64">
     <path d="
M439.135 62.0617
L459.295 62.0617" style="fill:none;stroke:#ff0000;"/>
    </g>
    <g id="line2d_65"/>
    <g id="text_23">
     <!-- LRU -->
     <defs>
      <path d="
M44.3906 34.1875
Q47.5625 33.1094 50.5625 29.5938
Q53.5625 26.0781 56.5938 19.9219
L66.6094 0
L56 0
L46.6875 18.7031
Q43.0625 26.0312 39.6719 28.4219
Q36.2812 30.8125 30.4219 30.8125
L19.6719 30.8125
L19.6719 0
L9.8125 0
L9.8125 72.9062
L32.0781 72.9062
Q44.5781 72.9062 50.7344 67.6719
Q56.8906 62.4531 56.8906 51.9062
Q56.8906 45.0156 53.6875 40.4688
Q50.4844 35.9375 44.3906 34.1875
M19.6719 64.7969
L19.6719 38.9219
L32.0781 38.9219
Q39.2031 38.9219 42.8438 42.2188
Q46.4844 45.5156 46.4844 51.9062
Q46.4844 58.2969 42.8438 61.5469
Q39.2031 64.7969 32.0781 64.7969
z
" id="BitstreamVeraSans-Roman-52"/>
      <path d="
M9.8125 72.9062
L19.6719 72.9062
L19.6719 8.29688
L55.1719 8.29688
L55.1719 0
L9.8125 0
z
" id="BitstreamVeraSans-Roman-4c"/>
      <path d="
M8.6875 72.9062
L18.6094 72.9062
L18.6094 28.6094
Q18.6094 16.8906 22.8438 11.7344
Q27.0938 6.59375 36.625 6.59375
Q46.0938 6.59375 50.3438 11.7344
Q54.5938 16.8906 54.5938 28.6094
L54.5938 72.9062
L64.5 72.9062
L64.5 27.3906
Q64.5 13.1406 57.4375 5.85938
Q50.3906 -1.42188 36.625 -1.42188
Q22.7969 -1.42188 15.7344 5.85938
Q8.6875 13.1406 8.6875 27.3906
z
" id="BitstreamVeraSans-Roman-55"/>
     </defs>
     <g transform="translate(475.13475 67.10175)scale(0.144 -0.144)">
      <use xlink:href="#BitstreamVeraSans-Roman-4c"/>
      <use x="55.712890625" xlink:href="#BitstreamVeraSans-Roman-52"/>
      <use x="125.1953125" xlink:href="#BitstreamVeraSans-Roman-55"/>
     </g>
    </g>
    <g id="line2d_66">
     <path d="
M439.135 83.1983
L459.295 83.1983" style="fill:none;opacity:0.7;stroke:#008000;"/>
    </g>
    <g id="line2d_67"/>
    <g id="text_24">
     <!-- MRU -->
     <defs>
      <path d="
M9.8125 72.9062
L24.5156 72.9062
L43.1094 23.2969
L61.8125 72.9062
L76.5156 72.9062
L76.5156 0
L66.8906 0
L66.8906 64.0156
L48.0938 14.0156
L38.1875 14.0156
L19.3906 64.0156
L19.3906 0
L9.8125 0
z
" id="BitstreamVeraSans-Roman-4d"/>
     </defs>
     <g transform="translate(475.13475 88.23825)scale(0.144 -0.144)">
      <use xlink:href="#BitstreamVeraSans-Roman-4d"/>
      <use x="86.279296875" xlink:href="#BitstreamVeraSans-Roman-52"/>
      <use x="155.76171875" xlink:href="#BitstreamVeraSans-Roman-55"/>
     </g>
    </g>
    <g id="line2d_68">
     <path d="
M439.135 104.335
L459.295 104.335" style="fill:none;opacity:0.5;stroke:#0000ff;"/>
    </g>
    <g id="line2d_69"/>
    <g id="text_25">
     <!-- FIFO -->
     <defs>
      <path d="
M9.8125 72.9062
L51.7031 72.9062
L51.7031 64.5938
L19.6719 64.5938
L19.6719 43.1094
L48.5781 43.1094
L48.5781 34.8125
L19.6719 34.8125
L19.6719 0
L9.8125 0
z
" id="BitstreamVeraSans-Roman-46"/>
      <path d="
M9.8125 72.9062
L19.6719 72.9062
L19.6719 0
L9.8125 0
z
" id="BitstreamVeraSans-Roman-49"/>
      <path d="
M39.4062 66.2188
Q28.6562 66.2188 22.3281 58.2031
Q16.0156 50.2031 16.0156 36.375
Q16.0156 22.6094 22.3281 14.5938
Q28.6562 6.59375 39.4062 6.59375
Q50.1406 6.59375 56.4219 14.5938
Q62.7031 22.6094 62.7031 36.375
Q62.7031 50.2031 56.4219 58.2031
Q50.1406 66.2188 39.4062 66.2188
M39.4062 74.2188
Q54.7344 74.2188 63.9062 63.9375
Q73.0938 53.6562 73.0938 36.375
Q73.0938 19.1406 63.9062 8.85938
Q54.7344 -1.42188 39.4062 -1.42188
Q24.0312 -1.42188 14.8125 8.82812
Q5.60938 19.0938 5.60938 36.375
Q5.60938 53.6562 14.8125 63.9375
Q24.0312 74.2188 39.4062 74.2188" id="BitstreamVeraSans-Roman-4f"/>
     </defs>
     <g transform="translate(475.13475 109.37475)scale(0.144 -0.144)">
      <use xlink:href="#BitstreamVeraSans-Roman-46"/>
      <use x="57.51953125" xlink:href="#BitstreamVeraSans-Roman-49"/>
      <use x="87.01171875" xlink:href="#BitstreamVeraSans-Roman-46"/>
      <use x="144.53125" xlink:href="#BitstreamVeraSans-Roman-4f"/>
     </g>
    </g>
   </g>
  </g>
 </g>
 <defs>
  <clipPath id="p7ff5b81e1d">
   <rect height="345.6" width="446.4" x="72.0" y="43.2"/>
  </clipPath>
 </defs>
</svg>
