<?xml version="1.0" encoding="utf-8" standalone="no"?>
<!DOCTYPE svg PUBLIC "-//W3C//DTD SVG 1.1//EN"
  "http://www.w3.org/Graphics/SVG/1.1/DTD/svg11.dtd">
<!-- Created with matplotlib (http://matplotlib.sourceforge.net/) -->
<svg height="432pt" version="1.1" viewBox="0 0 576 432" width="576pt" xmlns="http://www.w3.org/2000/svg" xmlns:xlink="http://www.w3.org/1999/xlink">
 <defs>
  <style type="text/css">
*{stroke-linecap:square;stroke-linejoin:round;}
  </style>
 </defs>
 <g id="figure_1">
  <g id="patch_1">
   <path d="
M0 432
L576 432
L576 0
L0 0
z
" style="fill:#ffffff;"/>
  </g>
  <g id="axes_1">
   <g id="patch_2">
    <path d="
M72 388.8
L518.4 388.8
L518.4 43.2
L72 43.2
z
" style="fill:#ffffff;"/>
   </g>
   <g id="line2d_1">
    <path clip-path="url(#p7ff5b81e1d)" d="
M72 183.489
L72.4464 183.475
L72.8928 183.315
L73.3392 184.625
L73.7856 178.237
L74.232 176.947
L74.6784 160.672
L75.1248 184.946
L76.0176 173.571
L76.464 170.215
L76.9104 177.865
L77.3568 284.138
L77.8032 176.599
L78.2496 176.692
L78.696 180.368
L79.1424 176.628
L79.5888 174.887
L80.0352 178.349
L80.4816 178.91
L80.928 173.577
L81.3744 176.978
L81.8208 175.637
L82.2672 284.219
L82.7136 177.419
L83.16 175.554
L83.6064 179.614
L84.0528 178.883
L84.4992 139.818
L84.9456 176.93
L85.392 176.762
L85.8384 176.105
L86.7312 177.798
L87.1776 281.519
L87.624 175.701
L88.0704 178.355
L88.5168 177.652
L88.9632 208.702
L89.4096 155.047
L89.856 175.516
L90.3024 178.381
L90.7488 174.235
L91.1952 177.444
L91.6416 175.666
L92.088 281.728
L92.5344 178.459
L92.9808 176.803
L93.4272 176.764
L93.8736 174.17
L94.32 160.666
L94.7664 173.966
L95.2128 177.039
L95.6592 177.135
L96.552 179.934
L96.9984 281.468
L97.4448 175.408
L97.8912 178.135
L98.3376 179.382
L98.784 174.29
L99.2304 176.733
L99.6768 177.058
L100.123 176.067
L100.57 176.24
L101.016 177.326
L101.462 172.978
L101.909 283.789
L102.355 180.22
L102.802 176.947
L103.248 204.433
L103.694 177.511
L104.141 170.885
L104.587 178.42
L105.034 175.653
L105.48 174.02
L105.926 177.757
L106.373 175.323
L106.819 285.014
L107.266 175.064
L107.712 176.288
L108.158 179.102
L108.605 178.434
L109.051 153.367
L109.498 172.826
L109.944 180.494
L110.39 175.241
L110.837 179.078
L111.283 180.066
L111.73 281.868
L112.176 177.138
L112.622 181.331
L113.069 178.489
L113.515 178.295
L113.962 174.284
L114.408 174.907
L114.854 177.042
L115.301 176.627
L115.747 175.394
L116.194 174.833
L116.64 282.598
L117.086 179.005
L117.533 175.581
L117.979 178.826
L118.426 177.99
L118.872 171.971
L119.318 173.419
L119.765 138.485
L120.211 174.72
L120.658 182.343
L121.104 176.737
L121.55 282.42
L121.997 176.837
L122.443 175.342
L122.89 171.836
L123.336 171.236
L123.782 168.634
L124.229 171.614
L124.675 167.23
L125.122 169.078
L125.568 169.933
L126.014 169.169
L126.461 279.372
L126.907 170.39
L127.354 173.904
L127.8 133.778
L128.246 171.875
L128.693 284.002
L129.139 169.937
L129.586 172.872
L130.478 170.64
L130.925 149.52
L131.371 165.797
L131.818 171.021
L132.264 171.745
L132.71 173.02
L133.157 169.803
L133.603 280.237
L134.05 170.778
L134.496 174.427
L134.942 173.525
L135.389 169.417
L135.835 282.619
L136.282 172.097
L136.728 172.23
L137.174 171.776
L137.621 170.062
L138.067 169.109
L138.514 170.776
L138.96 170.602
L139.406 169.874
L139.853 170.291
L140.299 166.779
L140.746 281.185
L141.192 171.347
L142.085 172.046
L142.531 170.818
L142.978 280.72
L143.424 174.014
L143.87 164.435
L144.763 171.595
L145.21 168.329
L145.656 171.472
L146.102 169.184
L146.549 170.994
L146.995 168.136
L147.442 168.159
L147.888 280.508
L148.334 171.078
L148.781 173.721
L149.227 173.507
L149.674 169.692
L150.12 279.44
L150.566 171.181
L151.013 171.486
L151.459 128.677
L151.906 177.385
L152.352 282.901
L152.798 172.118
L153.245 170.27
L153.691 172.884
L154.138 172.736
L154.584 149.175
L155.03 167.212
L155.477 173.365
L155.923 168.848
L156.37 173.008
L156.816 171.101
L157.262 279.596
L157.709 172.427
L158.155 171.219
L158.602 171.317
L159.048 170.034
L159.494 293.367
L159.941 147.277
L160.387 161.011
L160.834 160.591
L161.28 5.62427
L161.726 277.119
L162.173 161.784
L162.619 160.343
L163.066 193.916
L163.512 137.799
L163.958 275.679
L164.405 161.466
L164.851 158.867
L165.298 159.727
L165.744 153.054
L166.19 277.75
L166.637 161.797
L167.083 161.123
L167.53 163.958
L167.976 160.344
L168.422 158.942
L168.869 153.87
L169.315 159.265
L169.762 157.599
L170.208 157.39
L170.654 156.549
L171.101 159.804
L171.547 157.205
L171.994 163.143
L172.44 157.842
L172.886 157.377
L173.333 157.307
L173.779 156.353
L174.226 162.339
L174.672 157.311
L175.118 156.326
L175.565 159.53
L176.011 149.987
L176.458 124.115
L176.904 158.61
L177.35 162.074
L177.797 160.735
L178.243 158.121
L178.69 159.077
L179.136 157.676
L179.582 155.116
L180.029 158.815
L180.475 159.866
L180.922 157.156
L181.368 153.663
L181.814 156.805
L182.261 159.058
L182.707 158.48
L183.154 160.67
L183.6 154.608
L184.046 159.336
L184.493 154.01
L184.939 119.446
L185.386 158.816
L185.832 157.178
L186.725 162.924
L187.171 159.966
L187.618 161.536
L188.064 153.055
L188.51 159.416
L188.957 156.651
L189.403 157.236
L189.85 158.238
L190.296 155.289
L190.742 156.234
L191.189 158.879
L191.635 156.503
L192.082 158.536
L192.528 153.47
L192.974 157.101
L193.421 156.931
L193.867 157.029
L194.314 158.307
L194.76 156.457
L195.206 156.413
L195.653 158.36
L196.099 159.716
L196.546 175.296
L196.992 155.339
L197.438 156.934
L197.885 159.061
L198.331 159.19
L198.778 161.129
L199.224 154.601
L199.67 157.316
L200.117 156.033
L200.563 156.341
L201.01 159.41
L201.456 152.946
L201.902 157.748
L202.349 157.785
L202.795 157.443
L203.242 157.512
L203.688 156.354
L204.581 158.641
L205.027 146.451
L205.474 168.856
L205.92 156.585
L206.366 156.82
L206.813 158.705
L207.259 158.451
L207.706 159.254
L208.152 155.746
L208.598 159.554
L209.045 157.936
L209.491 161.934
L209.938 153.235
L210.384 155.066
L210.83 157.815
L211.277 159.676
L211.723 157.258
L212.17 158.811
L212.616 155.687
L213.509 158.391
L213.955 156.165
L214.402 157.875
L214.848 154.9
L215.294 156.949
L215.741 160.441
L216.187 157.868
L216.634 156.16
L217.08 153.874
L217.526 155.854
L217.973 157.239
L218.419 147.03
L218.866 170.605
L219.312 152.224
L219.758 157.964
L220.205 160.354
L220.651 158.618
L221.098 159.252
L221.544 158.589
L221.99 158.865
L222.437 153.311
L222.883 145.955
L223.33 149.651
L223.776 142.763
L224.222 147.036
L224.669 147.163
L225.115 143.059
L225.562 146.642
L226.008 148.052
L226.454 147.634
L226.901 107.972
L227.347 149.685
L227.794 149.023
L228.24 114.54
L228.686 148.295
L229.133 151.126
L229.579 151.861
L230.472 147.386
L230.918 146.968
L231.365 149.446
L231.811 146.882
L232.258 146.757
L232.704 144.887
L233.15 147.121
L233.597 145.918
L234.043 146.373
L234.49 109.248
L234.936 141.222
L235.382 149.988
L235.829 149.564
L236.275 150.35
L236.722 149.891
L237.168 129.304
L237.614 146.003
L238.061 150.08
L238.507 151.592
L238.954 146.66
L239.4 149.386
L239.846 148.137
L240.293 144.716
L240.739 147.616
L241.186 147.848
L241.632 124.462
L242.078 146.706
L242.525 149.086
L242.971 152.343
L243.418 144.631
L243.864 148.59
L244.31 151.12
L244.757 146.49
L245.203 146.877
L245.65 148.376
L246.096 146.513
L246.989 145.347
L247.435 148.295
L247.882 145.815
L248.328 140.891
L248.774 148.367
L249.221 145.894
L249.667 149.212
L250.114 146.83
L250.56 143.106
L251.453 149.587
L251.899 146.63
L252.346 147.656
L252.792 124.753
L253.238 144.415
L253.685 150.56
L254.131 150.711
L254.578 148.93
L255.024 203.071
L255.47 218.321
L255.917 223.448
L256.363 221.628
L256.81 226.934
L257.256 226.873
L257.702 225.777
L258.149 218.304
L258.595 226.62
L259.042 225.581
L259.488 225.752
L259.934 226.943
L260.381 224.033
L260.827 224.685
L261.274 222.618
L261.72 227.116
L262.166 224.783
L262.613 226.662
L263.059 222.965
L263.506 225.963
L263.952 223.815
L264.398 219.062
L264.845 222.522
L265.291 222.362
L265.738 225.636
L266.184 223.268
L266.63 228.976
L267.077 223.784
L267.523 223.755
L267.97 224.138
L268.416 225.863
L268.862 226.47
L269.309 224.73
L269.755 223.767
L270.202 226.734
L270.648 222.734
L271.094 224.968
L271.541 225.509
L271.987 225.653
L272.88 225.156
L273.326 224.018
L273.773 227.69
L274.219 224.999
L274.666 225.188
L275.112 224.501
L275.558 228.233
L276.005 224.393
L276.451 227.355
L276.898 222.538
L277.344 226.138
L277.79 224.194
L278.237 227.86
L278.683 225.754
L279.13 224.724
L279.576 225.877
L280.022 218.295
L280.469 223.312
L280.915 224.987
L281.362 227.513
L281.808 221.556
L282.254 226.328
L282.701 225.264
L283.147 219.097
L283.594 224.812
L284.04 227.076
L284.933 223.372
L285.379 226.952
L285.826 227.355
L286.272 224.269
L286.718 220.309
L287.165 224.754
L287.611 226.67
L288.058 224.905
L288.504 227.574
L288.95 224.257
L289.397 225.936
L289.843 223.879
L290.29 225.552
L290.736 226.57
L291.182 226.108
L291.629 223.153
L292.075 225.27
L292.522 226.551
L292.968 225.3
L293.414 224.61
L293.861 224.803
L294.307 225.456
L294.754 225.096
L295.2 226.47
L295.646 223.949
L296.093 226.178
L296.539 226.849
L296.986 223.639
L297.432 225.557
L297.878 225.615
L298.325 228.583
L298.771 221.952
L299.218 224.249
L299.664 225.58
L300.11 222.469
L300.557 188.54
L301.003 245.245
L301.45 207.635
L301.896 218.237
L302.342 224.164
L302.789 227.354
L303.235 226.62
L303.682 225.594
L304.128 227.687
L304.574 225.924
L305.021 218.649
L305.467 225.153
L305.914 224.573
L306.36 226.808
L306.806 226.339
L307.253 222.827
L307.699 229.199
L308.146 220.804
L308.592 226.316
L309.485 225.649
L309.931 225.544
L310.378 224.275
L310.824 225.143
L311.27 222.375
L311.717 223.971
L312.163 223.274
L312.61 228.11
L313.502 224.698
L313.949 226.905
L314.395 223.581
L314.842 225.469
L315.288 225.139
L315.734 226.135
L316.181 225.698
L316.627 226.433
L317.074 226.546
L317.52 223.332
L317.966 225.143
L318.413 226.199
L318.859 222.986
L319.306 224.87
L319.752 227.483
L320.198 225.213
L320.645 225.183
L321.091 224.897
L321.538 226.887
L321.984 227.58
L322.43 224.192
L322.877 226.153
L323.323 222.782
L323.77 222.753
L324.216 221.94
L324.662 225.227
L325.109 222.814
L325.555 224.182
L326.002 224.301
L326.448 224.802
L326.894 223.731
L327.341 224.435
L327.787 224.75
L328.234 221.028
L328.68 223.72
L329.126 222.039
L329.573 217.258
L330.019 225.2
L330.466 224.233
L330.912 224.404
L331.358 223.971
L331.805 224.735
L332.251 222.03
L332.698 223.348
L333.144 220.993
L333.59 224.031
L334.483 219.956
L334.93 224.807
L335.376 222.563
L335.822 224.94
L336.269 223.685
L336.715 224.902
L337.162 222.42
L337.608 225.561
L338.054 223.746
L338.947 224.675
L339.394 219.266
L339.84 221.212
L340.286 222.511
L340.733 224.328
L341.179 223.846
L341.626 222.837
L342.072 224.096
L342.518 217.745
L342.965 222.95
L343.411 223.388
L343.858 224.585
L344.304 222.561
L344.75 224.342
L345.197 224.752
L345.643 215.519
L346.09 226.009
L346.536 218.6
L346.982 206.34
L347.429 224.096
L347.875 207.366
L348.322 226.4
L348.768 222.826
L349.214 224.226
L349.661 224.349
L350.107 223.836
L350.554 223.748
L351 224.492
L351.446 222.793
L351.893 222.885
L352.339 222.385
L352.786 225.178
L353.232 226.427
L353.678 220.642
L354.125 223.341
L354.571 223.083
L355.018 224.462
L355.464 222.855
L355.91 226.111
L356.357 220.209
L356.803 219.508
L357.696 223.843
L358.142 222.098
L358.589 223.233
L359.035 223.569
L359.482 221.637
L359.928 223.109
L360.374 224.983
L360.821 222.421
L361.267 220.534
L361.714 225.133
L362.16 223.284
L362.606 222.239
L363.053 223.749
L363.499 221.268
L363.946 224.639
L364.392 217.497
L364.838 217.579
L365.285 190.794
L365.731 223.788
L366.178 224.686
L366.624 226.352
L367.07 224.022
L367.517 222.683
L367.963 222.907
L368.856 220.844
L369.302 221.236
L369.749 222.053
L370.195 221.156
L370.642 201.409
L371.088 220.798
L371.534 220.306
L371.981 219.991
L372.427 224.933
L372.874 221.648
L373.32 227.636
L373.766 211.984
L374.213 222.421
L374.659 224.209
L375.106 219.183
L375.552 222.89
L375.998 221.018
L376.445 228.659
L376.891 219.4
L377.338 221.778
L377.784 222.357
L378.677 219.543
L379.123 222.993
L379.57 218.26
L380.016 218.214
L380.462 219.671
L380.909 220.316
L381.355 219.628
L381.802 219.856
L382.248 221.565
L382.694 208.961
L383.141 228.661
L383.587 219.557
L384.034 221.467
L384.48 219.762
L384.926 223.377
L385.819 220.398
L386.266 220.252
L386.712 220.926
L387.158 218.741
L387.605 221.328
L388.051 220.141
L388.498 220.299
L388.944 221.024
L389.39 215.681
L389.837 221.718
L390.283 220.091
L390.73 220.27
L391.176 220.978
L391.622 219.014
L392.069 220.391
L392.515 202.913
L393.408 222.625
L393.854 220.314
L394.301 219.336
L394.747 222.98
L395.194 221.904
L395.64 221.36
L396.086 221.618
L396.533 221.709
L396.979 221.227
L397.426 219.516
L397.872 220.791
L398.318 223.546
L398.765 215.697
L399.211 223.397
L399.658 220.703
L400.104 220.337
L400.55 219.391
L400.997 219.074
L401.443 221.919
L402.336 218.808
L402.782 218.77
L403.229 222.705
L403.675 220.512
L404.122 221.861
L404.568 222.089
L405.014 217.757
L405.461 220.114
L405.907 220.534
L406.354 223.57
L406.8 222.717
L407.246 219.339
L407.693 222.121
L408.139 218.989
L408.586 221.791
L409.032 220.324
L409.478 222.882
L409.925 216.648
L410.371 218.356
L410.818 224.247
L411.264 219.168
L411.71 220.46
L412.157 219.722
L412.603 222.008
L413.05 221.562
L413.496 220.835
L413.942 219.895
L414.389 217.961
L414.835 221.239
L415.282 219.083
L415.728 218.66
L416.174 219.871
L416.621 222.863
L417.514 216.59
L417.96 220.959
L418.406 219.859
L418.853 220.235
L419.299 217.638
L419.746 222.784
L420.638 219.114
L421.085 218.351
L421.531 221.594
L421.978 222.724
L422.424 217.49
L422.87 223.257
L423.317 220.318
L423.763 218.506
L424.21 218.461
L424.656 221.858
L425.102 221.492
L425.549 220.397
L425.995 222.861
L426.442 222.159
L426.888 218.402
L427.334 217.986
L427.781 221.524
L428.227 218.042
L428.674 220.967
L429.12 221.4
L429.566 220.689
L430.013 218.566
L430.459 219.221
L430.906 217.447
L431.352 227.127
L431.798 219.678
L432.245 223.789
L432.691 221.861
L433.138 218.862
L433.584 218.43
L434.03 220.794
L434.477 221.619
L434.923 217.459
L435.37 224.39
L436.262 215.184
L436.709 220.643
L437.155 218.233
L438.048 222.89
L438.494 220.193
L438.941 221.071
L439.387 216.945
L439.834 222.496
L440.28 222.795
L440.726 220.264
L441.173 220.552
L441.619 221.639
L442.066 221.653
L442.512 218.399
L442.958 219.687
L443.405 221.636
L443.851 220.38
L444.298 224.013
L444.744 220.642
L445.19 219.971
L445.637 219.759
L446.083 217.991
L446.53 219.603
L446.976 220.263
L447.422 219.446
L448.315 216.883
L448.762 217.753
L449.654 221.061
L450.101 215.056
L450.547 219.548
L450.994 219.324
L451.44 218.144
L451.886 215.752
L452.333 218.449
L452.779 219.052
L453.226 219.07
L453.672 216.095
L454.118 220.686
L455.011 213.608
L455.458 220.496
L455.904 215.953
L456.35 219.416
L456.797 218.755
L457.243 217.705
L457.69 219.176
L458.136 217.983
L458.582 217.357
L459.029 218.54
L459.475 217.956
L459.922 217.661
L460.368 220.217
L460.814 217.519
L461.261 216.675
L461.707 217.767
L462.154 220.603
L462.6 218.05
L463.046 216.953
L463.493 221.46
L463.939 216.728
L464.386 219.76
L464.832 215.306
L465.278 219.263
L465.725 218.159
L466.171 218.411
L466.618 219.291
L467.064 218.581
L467.51 218.138
L467.957 216.365
L468.403 219.024
L468.85 219.157
L469.296 217.011
L469.742 220.316
L470.189 219.539
L470.635 211.032
L471.082 219.951
L471.528 220.041
L471.974 218.741
L472.421 217.829
L472.867 220.702
L473.314 212.775
L473.76 213.589
L474.206 216.601
L474.653 221.163
L475.099 215.645
L475.546 217.79
L476.438 220.61
L476.885 216.177
L477.331 216.601
L477.778 219.624
L478.224 220.074
L478.67 216.3
L479.117 221.252
L479.563 217.031
L480.01 215.945
L480.456 217.552
L480.902 220.335
L481.349 218.077
L481.795 218.313
L482.242 217.292
L482.688 219.487
L483.134 217.769
L483.581 217.67
L484.027 219.085
L484.474 220.107
L484.92 219.724
L485.366 218.92
L485.813 218.757
L486.259 198.468
L486.706 216.803
L487.152 219.689
L487.598 219.531
L488.045 221.682
L488.491 218.563
L488.938 219.062
L489.384 220.756
L489.83 219.546
L490.277 220.171
L490.723 217.496
L491.17 219.728
L491.616 219.323
L492.062 216.44
L492.509 216.889
L492.955 219.513
L493.402 219.021
L493.848 219.772
L494.294 218.867
L494.741 218.606
L495.187 220.175
L495.634 217.409
L496.08 215.711
L496.526 220.594
L496.973 219.328
L497.419 216.718
L497.866 214.94
L498.312 218.898
L498.758 213.83
L499.205 215.993
L499.651 218.973
L500.098 219.414
L500.544 216.552
L500.99 219.045
L501.437 219.951
L501.883 197.167
L502.33 218.963
L502.776 220.254
L503.222 218.601
L503.669 222.439
L504.115 219.961
L504.562 218.308
L505.008 221.016
L505.454 217.754
L505.901 219.037
L506.347 212.245
L506.794 222.255
L507.24 218.112
L507.686 219.553
L508.133 213.111
L509.026 218.785
L509.472 218.839
L509.918 216.322
L510.365 219.605
L510.811 219.084
L511.258 214.917
L511.704 216.742
L512.15 219.579
L512.597 218.318
L513.043 216.502
L513.49 217.341
L513.936 218.625
L514.382 213.912
L514.829 216.203
L515.275 219.772
L515.722 216.964
L516.168 216.506
L516.614 219.907
L517.061 215.595
L517.507 216.627
L517.954 216.704
L517.954 216.704" style="fill:none;stroke:#ff0000;"/>
   </g>
   <g id="line2d_2">
    <path clip-path="url(#p7ff5b81e1d)" d="
M72 192.925
L72.4464 195.638
L72.8928 193.36
L73.3392 193.181
L73.7856 194.75
L74.232 191.961
L74.6784 192.026
L75.1248 195.207
L75.5712 195.201
L76.0176 193.976
L76.9104 192.502
L77.3568 193.007
L77.8032 192.827
L78.2496 194.221
L78.696 195.137
L79.1424 192.322
L79.5888 192.682
L80.0352 192.698
L80.4816 195.395
L80.928 193.47
L81.8208 195.521
L82.2672 191.664
L83.16 194.474
L83.6064 189.784
L84.0528 193.208
L84.9456 195.304
L85.392 191.178
L85.8384 195.763
L86.2848 193.213
L86.7312 196.397
L87.1776 195.845
L88.0704 191.746
L88.5168 208.065
L88.9632 195.638
L89.4096 192.992
L89.856 195.012
L90.3024 194.734
L90.7488 192.401
L91.1952 197.48
L91.6416 191.614
L92.088 194.661
L92.5344 194.185
L92.9808 192.721
L93.4272 195.105
L93.8736 192.475
L94.32 193.602
L94.7664 193.595
L95.2128 196.512
L95.6592 184.754
L96.1056 196.058
L96.552 193.744
L96.9984 192.488
L97.4448 193.945
L97.8912 193.627
L98.3376 195.631
L98.784 193.11
L99.2304 203.808
L99.6768 193.581
L100.123 193.593
L100.57 194.562
L101.462 193.815
L102.355 195.658
L102.802 191.266
L103.248 192.481
L103.694 186.929
L104.141 188.992
L105.48 192.714
L105.926 192.152
L106.373 186.932
L106.819 192.507
L107.266 190.138
L107.712 192.284
L108.158 191.702
L108.605 191.522
L109.051 188.597
L109.498 191.925
L109.944 191.423
L110.39 191.172
L110.837 191.997
L111.283 190.898
L111.73 186.161
L112.176 190.022
L112.622 192.214
L113.069 189.491
L113.515 195.216
L113.962 189.67
L114.408 182.18
L114.854 199.743
L115.301 191.143
L115.747 191.489
L116.194 193.277
L116.64 189.241
L117.086 189.721
L117.533 191.975
L117.979 189.654
L118.426 193.171
L118.872 191.417
L119.318 192.988
L119.765 188.342
L120.211 190.916
L120.658 192.676
L121.104 190.605
L121.55 193.4
L121.997 186.924
L122.443 170.095
L122.89 187.591
L123.336 192.012
L123.782 194.051
L124.229 194.182
L124.675 194.046
L125.122 193.638
L125.568 191.067
L126.014 193.627
L126.461 191.631
L126.907 192.343
L127.354 190.332
L127.8 185.082
L128.246 192.359
L128.693 189.346
L129.139 193.032
L129.586 193.157
L130.032 181.909
L130.478 196.47
L130.925 192.292
L131.371 193.596
L131.818 190.495
L132.264 189.148
L132.71 191.778
L133.157 190.411
L133.603 189.608
L134.05 194.072
L134.942 190.508
L135.389 191.463
L135.835 186.625
L136.282 190.02
L136.728 194.622
L137.174 191.313
L137.621 189.203
L138.067 193.588
L138.96 187.872
L139.406 194.543
L139.853 189.632
L140.299 191.246
L140.746 189.698
L141.192 187.298
L141.638 190.991
L142.085 193.081
L142.531 191.589
L142.978 190.845
L143.424 193.153
L143.87 189.223
L144.317 194.115
L144.763 186.569
L145.21 192.056
L145.656 180.791
L146.102 194.754
L146.549 190.792
L147.442 193.017
L147.888 189.96
L148.334 193.349
L148.781 192.069
L149.227 188.586
L149.674 190.709
L150.12 193.84
L150.566 193.474
L151.013 182.062
L151.459 189.801
L151.906 166.45
L152.352 185.305
L152.798 189.212
L153.245 190.684
L153.691 190.227
L154.138 190.451
L154.584 189.43
L155.03 190.219
L155.477 187.495
L155.923 189.077
L156.37 187.665
L156.816 189.258
L157.262 184.354
L157.709 190.858
L158.155 184.621
L158.602 190.282
L159.048 190.352
L159.494 186.524
L159.941 183.707
L160.387 189.683
L160.834 188.269
L161.28 188.319
L161.726 189.814
L162.173 187.321
L162.619 166.621
L163.066 186.517
L163.512 189.393
L163.958 191.383
L164.405 192.184
L164.851 184.875
L165.298 188.744
L166.19 191.309
L166.637 188.315
L167.083 189.024
L167.53 187.971
L167.976 185.59
L168.422 187.911
L168.869 187.06
L169.315 186.888
L169.762 185.471
L170.208 189.003
L170.654 176.494
L171.101 189.524
L171.547 187.153
L171.994 188.417
L172.44 187.829
L172.886 187.61
L173.333 188.737
L173.779 188.083
L174.226 189.674
L174.672 186.964
L175.118 186.475
L175.565 186.71
L176.011 189.441
L176.458 186.682
L176.904 191.06
L177.35 188.107
L177.797 189.191
L178.243 187.143
L178.69 187.628
L179.136 186.46
L179.582 186.418
L180.029 190.188
L180.475 189.279
L180.922 187.096
L181.368 182.801
L181.814 188.99
L182.261 186.369
L182.707 189.45
L183.154 188.436
L183.6 188.033
L184.046 185.36
L184.493 186.613
L184.939 190.93
L185.386 187.583
L185.832 188.802
L186.278 186.461
L186.725 185.317
L187.171 188.07
L187.618 187.863
L188.064 185.303
L188.51 188.221
L188.957 187.296
L189.403 187.565
L189.85 188.754
L190.296 185.067
L190.742 188.136
L191.189 186.359
L191.635 187.933
L192.082 183.336
L192.528 183.825
L192.974 187.685
L193.421 186.181
L193.867 190.272
L194.314 185.415
L194.76 185.655
L195.206 187.945
L195.653 185.978
L196.099 186.015
L196.546 188.292
L196.992 188.453
L197.438 182.547
L197.885 186.806
L198.331 188.486
L198.778 184.146
L199.224 191.641
L199.67 188.214
L200.117 186.081
L200.563 187.185
L201.01 187.101
L201.456 187.857
L201.902 188.336
L202.349 189.717
L202.795 164.981
L203.242 184.932
L203.688 190.609
L204.134 190.438
L204.581 189.586
L205.027 188.334
L205.474 188.641
L205.92 189.603
L206.366 187.833
L206.813 183.372
L207.259 190.389
L207.706 187.015
L208.152 185.2
L208.598 187.764
L209.045 185.136
L209.491 181.161
L209.938 182.34
L210.384 181.447
L210.83 157.537
L211.277 179.739
L211.723 186.032
L212.17 183.16
L212.616 182.991
L213.062 185.385
L213.509 182.099
L213.955 185.405
L214.402 172.589
L214.848 192.442
L215.294 179.947
L215.741 183.76
L216.187 136.597
L216.634 184.391
L217.08 184.044
L217.526 183.007
L217.973 186.224
L218.419 182.133
L218.866 182.769
L219.312 185.87
L219.758 180.296
L220.205 182.038
L220.651 183.2
L221.544 181.692
L222.437 184.263
L222.883 183.353
L223.33 176.929
L223.776 181.93
L224.222 141.367
L224.669 183.259
L225.115 183.019
L225.562 187.465
L226.008 183.367
L226.454 187.874
L226.901 142.456
L227.347 181.265
L227.794 182.028
L228.24 185.553
L228.686 183.002
L229.133 184.416
L229.579 191.467
L230.026 184.016
L230.472 181.076
L230.918 181.383
L231.365 177.249
L231.811 183.236
L232.258 178.825
L232.704 181.759
L233.15 183.778
L233.597 182.176
L234.043 182.557
L234.49 183.734
L234.936 158.668
L235.382 180.494
L235.829 183.055
L236.275 186.779
L236.722 183.691
L237.168 183.512
L237.614 141.018
L238.061 183.953
L238.507 183.117
L238.954 182.697
L239.4 185.384
L239.846 183.049
L240.293 154.778
L240.739 181.88
L241.186 184.031
L241.632 188.872
L242.078 181.658
L242.525 185.62
L242.971 182.472
L243.418 183.295
L243.864 183.33
L244.757 181.33
L245.203 183.305
L245.65 162.119
L246.096 178.58
L246.542 183.673
L246.989 185.443
L247.435 185.983
L247.882 182.348
L248.328 181.853
L248.774 184.894
L249.667 180.075
L250.114 182.464
L250.56 181.664
L251.006 179.416
L251.453 178.116
L251.899 173.987
L252.346 176.636
L252.792 174.757
L253.238 174.44
L253.685 284.755
L254.131 175.275
L254.578 177.911
L255.024 179.533
L255.47 176.375
L255.917 137.115
L256.363 176.877
L256.81 176.964
L257.256 180.469
L257.702 175.861
L258.149 178.615
L258.595 283.771
L259.042 174.443
L259.488 178.812
L259.934 174.153
L260.381 177.125
L260.827 200.696
L261.274 169.714
L261.72 174.075
L262.166 173.819
L262.613 176.258
L263.059 174.841
L263.506 130.596
L263.952 175.391
L264.398 179.32
L264.845 176.914
L265.291 178.648
L265.738 177.268
L266.184 282.996
L266.63 176.949
L267.077 179.603
L267.97 176.331
L268.416 174.145
L268.862 178.867
L269.309 176.774
L269.755 176.259
L270.202 176.313
L270.648 172.206
L271.094 282.081
L271.541 176.258
L271.987 176.797
L272.434 177.677
L272.88 177.528
L273.326 134.69
L273.773 179.201
L274.219 175.169
L274.666 176.882
L275.112 177.484
L275.558 178.754
L276.005 283.457
L276.451 178.361
L276.898 177.778
L277.344 180.157
L278.237 174.921
L278.683 177.088
L279.13 176.247
L279.576 175.143
L280.022 175.451
L280.469 175.296
L280.915 284.546
L281.362 178.741
L281.808 177.492
L282.254 178.05
L282.701 176.212
L283.147 153.097
L283.594 172.023
L284.04 182.098
L284.486 177.933
L284.933 176.061
L285.379 178.571
L285.826 282.766
L286.272 178.437
L286.718 175.816
L287.165 179.076
L287.611 176.628
L288.058 175.046
L288.504 178.989
L289.397 176.172
L289.843 175.067
L290.29 177.154
L290.736 285.392
L291.182 175.228
L291.629 178.148
L292.075 179.023
L292.522 177.743
L292.968 177.162
L293.414 175.157
L293.861 176.632
L294.307 176.603
L294.754 176.959
L295.2 174.011
L295.646 280.013
L296.093 178.46
L296.539 180.375
L297.432 174.685
L297.878 159.914
L298.325 171.888
L298.771 177.696
L299.218 178.094
L299.664 175.669
L300.11 179.93
L300.557 280.062
L301.003 173.814
L301.45 168.732
L301.896 171.867
L302.342 171.652
L302.789 167.16
L303.235 172.797
L303.682 169.613
L304.128 169.315
L304.574 171.514
L305.021 169.198
L305.467 279.791
L305.914 172.546
L306.36 169.59
L306.806 169.869
L307.253 173.695
L307.699 282.919
L308.146 176.138
L308.592 169.037
L309.038 171.993
L309.485 171.025
L309.931 173.93
L310.378 169.429
L310.824 171.873
L311.27 168.451
L312.163 170.131
L312.61 279.42
L313.056 170.929
L313.502 173.103
L313.949 167.635
L314.395 169.471
L314.842 280.59
L315.288 171.839
L315.734 172.667
L316.181 171.517
L316.627 169.818
L317.074 153.465
L317.52 165.562
L317.966 173.164
L318.413 172.855
L318.859 170.466
L319.306 170.991
L319.752 279.705
L320.198 173.223
L320.645 171.962
L321.091 170.094
L321.538 166.055
L321.984 279.709
L322.43 169.805
L322.877 171.902
L323.323 169.501
L323.77 170.7
L324.216 170.291
L324.662 171.944
L325.109 168.896
L325.555 168.996
L326.002 166.257
L326.448 14.6953
L326.894 276.254
L327.341 172.085
L327.787 171.669
L328.234 169.287
L328.68 172.331
L329.126 125.572
L329.573 167.36
L330.019 172.751
L330.466 168.888
L330.912 173.061
L331.358 172.239
L331.805 280.752
L332.251 168.954
L332.698 171.317
L333.144 171.738
L333.59 174.437
L334.037 279.376
L334.483 170.277
L334.93 168.435
L335.376 171.769
L335.822 171.056
L336.269 133.175
L336.715 172.79
L337.162 165.436
L338.054 159.911
L338.501 162.451
L338.947 159.994
L339.394 160.727
L339.84 157.366
L340.286 157.421
L340.733 160.111
L341.179 157.176
L341.626 160.216
L342.072 153.185
L342.518 157.101
L342.965 158.271
L343.411 157.128
L344.304 158.844
L344.75 156.663
L345.197 159.042
L345.643 155.859
L346.09 156.165
L346.536 159.059
L346.982 159.383
L347.429 157.553
L348.322 160.481
L348.768 159.205
L349.214 161.495
L349.661 158.593
L350.107 159.77
L350.554 156.529
L351 157.34
L351.446 156.95
L351.893 159.21
L352.339 156.967
L352.786 158.752
L353.232 155.813
L353.678 158.844
L354.125 152.297
L354.571 155.167
L355.018 156.903
L355.464 157.381
L355.91 158.745
L356.357 156.694
L356.803 159.393
L357.25 158.436
L357.696 158.267
L358.142 160.202
L358.589 157.329
L359.035 156.535
L359.482 161.03
L359.928 156.719
L360.374 160.75
L360.821 157.349
L361.267 156.185
L361.714 158.991
L362.16 156.616
L362.606 155
L363.053 159.062
L363.946 156.702
L364.392 158.447
L364.838 158.636
L365.285 157.409
L365.731 158.686
L366.178 158.115
L366.624 158.014
L367.517 154.821
L367.963 158.611
L368.41 158.461
L368.856 157.986
L369.302 158.138
L369.749 157.486
L370.195 158.693
L370.642 160.967
L371.088 155.795
L371.534 161.722
L371.981 152.37
L372.427 158.088
L372.874 159.119
L373.32 161.086
L374.213 155.95
L374.659 158.846
L375.106 158.847
L375.552 158.72
L375.998 157.993
L376.445 156.363
L376.891 156.604
L377.338 159.967
L377.784 156.784
L378.23 157.673
L378.677 154.329
L379.57 158.895
L380.016 158.537
L380.909 154.228
L381.802 157.438
L382.248 160.158
L382.694 155.746
L383.141 153.453
L383.587 159.967
L384.034 158.339
L384.48 159.142
L384.926 158.202
L385.373 154.781
L385.819 157.928
L386.712 158.581
L387.158 157.461
L387.605 151.137
L388.051 158.248
L388.498 158.598
L388.944 157.976
L389.39 161.343
L389.837 152.704
L390.283 156.892
L390.73 156.604
L391.176 156.552
L391.622 157.362
L392.069 149.995
L392.515 157.015
L392.962 158.064
L393.408 156.483
L393.854 157.076
L394.301 154.423
L394.747 155.391
L395.194 161.17
L395.64 159.722
L396.086 156.553
L396.533 156.064
L396.979 159.41
L397.426 160.208
L397.872 159.235
L398.318 160.002
L398.765 155.106
L399.211 157.045
L399.658 155.691
L400.104 152.399
L400.55 147.181
L400.997 147.432
L401.89 146.639
L402.336 148.138
L402.782 147.43
L403.229 144.484
L403.675 144.724
L404.122 146.208
L404.568 143.501
L405.014 149.163
L405.907 145.924
L406.354 145.928
L406.8 147.058
L407.246 149.128
L407.693 126.022
L408.139 146.826
L408.586 149.605
L409.032 151.547
L409.478 149.954
L409.925 149.431
L410.371 150.618
L410.818 147.118
L411.264 146.93
L411.71 148.286
L412.157 144.006
L412.603 147.954
L413.05 145.503
L413.942 147.34
L414.389 146.659
L414.835 148.169
L415.282 150.324
L415.728 146.309
L416.174 149.723
L416.621 123.469
L417.067 146.218
L417.96 150.491
L418.406 148.84
L418.853 150.356
L419.299 149.07
L419.746 149.683
L420.192 144.942
L420.638 149.553
L421.085 136.67
L421.531 148.539
L421.978 143.568
L422.424 148.883
L422.87 147.301
L423.317 144.003
L423.763 147.456
L424.21 147.668
L424.656 147.628
L425.102 148.353
L425.549 144.277
L425.995 146.814
L426.442 147.9
L426.888 146.483
L427.334 148.43
L427.781 133.806
L428.227 147.141
L428.674 148.909
L429.12 148.701
L429.566 142.002
L430.013 142.615
L430.459 147.932
L430.906 146.848
L431.352 147.23
L431.798 148.551
L432.245 127.003
L432.691 200.994
L433.138 199.147
L433.584 224.783
L434.03 221.78
L434.477 228.188
L434.923 226.253
L435.37 227.832
L435.816 228.144
L436.709 222.915
L437.155 224.965
L437.602 222.793
L438.048 225.131
L438.494 219.791
L438.941 224.658
L439.387 226.785
L439.834 220.481
L440.28 228.311
L440.726 219.232
L441.173 226.871
L441.619 221.48
L442.066 226.155
L442.512 222.758
L442.958 229.107
L443.405 224.485
L444.298 227.125
L444.744 224.171
L445.19 223.281
L445.637 226.537
L446.083 226.079
L446.53 222.462
L446.976 232.945
L447.422 226.713
L447.869 216.795
L448.315 225.56
L448.762 224.46
L449.208 229.026
L449.654 218.766
L450.101 227.602
L450.547 222.506
L450.994 226.015
L451.44 225.185
L451.886 225.245
L452.333 223.048
L452.779 225.116
L453.226 225.91
L453.672 223.997
L454.118 219.553
L454.565 226.542
L455.011 221.911
L455.458 225.214
L455.904 226.205
L456.35 225.341
L456.797 222.786
L457.243 227.205
L457.69 225.254
L458.136 225.626
L458.582 219.356
L459.029 227.71
L459.475 219.065
L459.922 225.675
L460.368 220.62
L460.814 227.666
L461.261 224.181
L461.707 226.629
L462.154 223.011
L462.6 221.362
L463.046 223.541
L463.493 220.419
L463.939 224.899
L464.386 226.813
L465.278 224.147
L465.725 227.604
L466.171 223.332
L466.618 222.218
L467.064 227.07
L467.51 225.547
L467.957 226.869
L468.403 224.094
L468.85 225.127
L469.296 223.96
L469.742 228.612
L470.189 223.417
L470.635 227.982
L471.082 223.826
L471.528 228.213
L471.974 223.067
L472.421 224.295
L472.867 226.571
L473.314 226.561
L473.76 225.603
L474.206 226.177
L474.653 225.413
L475.099 226.718
L475.992 219.534
L476.438 224.998
L476.885 226.547
L477.331 223.417
L477.778 224.954
L478.224 221.624
L478.67 225.737
L479.117 213.764
L479.563 223.582
L480.01 226.402
L480.456 222.711
L480.902 227.397
L481.349 228.029
L481.795 225.057
L482.242 231.331
L482.688 222.837
L483.134 226.714
L483.581 224.313
L484.027 226.782
L484.474 225.257
L484.92 226.516
L485.366 228.464
L485.813 223.91
L486.259 224.05
L486.706 226.41
L487.152 224.553
L487.598 225.671
L488.045 224.451
L488.938 227.14
L489.384 226.309
L489.83 224.751
L490.277 224.235
L490.723 223.467
L491.17 225.951
L491.616 218.533
L492.062 226.82
L492.509 222.654
L492.955 224.485
L493.402 219.874
L493.848 222.278
L494.294 226.363
L494.741 219.081
L495.187 223.88
L495.634 224.63
L496.08 226.828
L496.526 221.25
L496.973 226.066
L497.419 224.446
L497.866 221.87
L498.758 226.832
L499.205 224.996
L499.651 224.52
L500.098 228.117
L500.544 224.523
L500.99 226.033
L501.437 220.654
L501.883 224.407
L502.33 223.405
L502.776 224.26
L503.222 223.266
L503.669 223.801
L504.562 222.343
L505.008 224.269
L505.454 225.577
L505.901 220.516
L506.347 234.933
L506.794 219.828
L507.24 221.29
L507.686 224.957
L508.133 225.221
L508.579 222.048
L509.026 226.017
L509.472 222.549
L509.918 222.253
L510.365 223.501
L510.811 225.296
L511.258 223.35
L511.704 222.567
L512.15 225.644
L512.597 224.312
L513.043 224.484
L513.49 222.266
L513.936 222.316
L514.382 224.417
L514.829 222.118
L515.275 217.726
L515.722 228.283
L516.168 223.704
L516.614 220.589
L517.061 222.703
L517.507 221.84
L517.954 225.705
L517.954 225.705" style="fill:none;opacity:0.7;stroke:#008000;"/>
   </g>
   <g id="line2d_3">
    <path clip-path="url(#p7ff5b81e1d)" d="
M72 227.059
L72.4464 227.338
L72.8928 230.001
L73.3392 227.513
L73.7856 226.216
L74.232 222.339
L74.6784 226.577
L75.1248 225.854
L75.5712 223.216
L76.0176 226.267
L76.464 222.625
L76.9104 224.804
L77.3568 225.888
L77.8032 223.751
L78.2496 225.458
L78.696 224.777
L79.1424 226.837
L79.5888 220.833
L80.0352 226.572
L80.4816 224.564
L80.928 223.533
L81.3744 225.616
L81.8208 223.293
L82.2672 226.324
L82.7136 222.487
L83.16 223.904
L83.6064 229.251
L84.0528 226.349
L84.4992 228.549
L84.9456 228.466
L85.392 226.965
L85.8384 226.66
L86.2848 223.273
L86.7312 226.834
L87.1776 224.404
L87.624 225.898
L88.0704 224.351
L88.5168 225.473
L88.9632 225.447
L89.4096 226.139
L89.856 223.548
L90.3024 224.799
L90.7488 225.248
L91.1952 223.635
L91.6416 226.016
L92.088 223.169
L92.5344 224.55
L92.9808 223.35
L93.4272 226.576
L93.8736 225.043
L94.32 224.644
L94.7664 225.72
L95.2128 220.87
L95.6592 226.168
L96.1056 222.303
L96.552 226.246
L96.9984 224.114
L97.4448 225.759
L97.8912 226.249
L98.3376 221.724
L98.784 224.046
L99.2304 224.966
L99.6768 223.649
L100.123 223.245
L100.57 227.986
L101.462 219.101
L102.355 226.651
L102.802 225.743
L103.248 223.534
L103.694 224.543
L104.141 223.763
L104.587 225.025
L105.034 221.501
L105.48 224.883
L105.926 222.546
L106.373 222.794
L106.819 222.568
L107.266 222.534
L107.712 223.694
L108.158 226.05
L108.605 224.718
L109.051 222.545
L109.498 227.957
L109.944 223.514
L110.39 224.699
L110.837 220.692
L111.283 225.268
L111.73 224.424
L112.176 227.184
L112.622 224.9
L113.069 225.207
L113.515 226.908
L113.962 224.765
L114.408 227.321
L114.854 223.669
L115.301 225.009
L115.747 224.699
L116.194 220.474
L116.64 225.32
L117.086 222.089
L117.533 225.475
L117.979 224.013
L118.426 224.21
L118.872 223.212
L119.318 222.706
L119.765 223.662
L120.211 220.803
L120.658 224.786
L121.104 221.877
L121.55 226.938
L122.443 222.715
L122.89 223.86
L123.336 219.832
L123.782 225.038
L124.229 225.31
L124.675 226.004
L125.122 223.669
L125.568 226.629
L126.014 227.166
L126.461 220.479
L126.907 225.971
L127.354 225.98
L127.8 223.223
L128.246 224.233
L128.693 226.784
L129.139 224.919
L129.586 228.849
L130.032 225.154
L130.478 225.236
L130.925 225.543
L131.371 224.821
L131.818 226.598
L132.71 225.439
L133.157 225.992
L133.603 224.744
L134.05 227.254
L134.496 220.59
L134.942 223.75
L135.389 221.482
L135.835 223.162
L136.282 223.327
L136.728 223.143
L137.174 219.264
L137.621 223.609
L138.067 222.34
L138.514 223.102
L138.96 222.771
L139.406 225.991
L139.853 223.411
L140.299 226.053
L140.746 226.267
L141.192 225.694
L141.638 225.873
L142.085 227.764
L142.531 221.977
L142.978 223.411
L143.424 223.153
L143.87 223.368
L144.317 221.962
L144.763 223.021
L145.21 219.164
L145.656 225.647
L146.102 227.157
L146.549 224.478
L146.995 225.41
L147.442 226.773
L147.888 224.678
L148.334 221.053
L148.781 223.317
L149.227 221.184
L149.674 221.951
L150.12 221.535
L150.566 218.843
L151.013 221.705
L151.459 216.288
L151.906 222.274
L152.352 221.632
L152.798 224.457
L153.245 221.88
L153.691 221.272
L154.138 223.163
L154.584 216.099
L155.03 222.421
L155.477 218.052
L155.923 218.016
L156.37 221.141
L156.816 219.869
L157.262 220.775
L157.709 216.766
L158.155 221.316
L158.602 221.729
L159.048 225.498
L159.494 222.658
L159.941 222.592
L160.387 219.576
L160.834 215.441
L161.726 220.358
L162.173 220.17
L163.066 217.712
L163.512 224.139
L163.958 213.917
L164.405 219.134
L164.851 221.222
L165.298 219.597
L165.744 222.617
L166.19 219.246
L166.637 219.173
L167.083 223.317
L167.53 220.848
L167.976 221.824
L168.869 218.212
L169.315 223.421
L169.762 218.415
L170.208 217.631
L170.654 220.224
L171.101 221.709
L171.547 222.164
L171.994 217.251
L172.44 222.225
L172.886 219.504
L173.333 220.447
L173.779 219.076
L174.226 223.678
L174.672 223.58
L175.118 219.56
L175.565 221.862
L176.011 218.933
L176.458 221.829
L176.904 221.791
L177.35 223.196
L177.797 222.852
L178.243 222.049
L178.69 223.846
L179.136 222.16
L179.582 219.325
L180.029 220.451
L180.475 222.383
L181.368 217.076
L181.814 223.972
L182.261 221.034
L182.707 219.476
L183.154 220.073
L183.6 223.87
L184.046 222.05
L184.493 221.698
L184.939 224.677
L185.386 218.949
L185.832 220.361
L186.278 220.623
L186.725 222.735
L187.171 220.42
L187.618 217.013
L188.064 224.392
L188.957 212.039
L189.403 221.727
L189.85 219.817
L190.296 218.979
L190.742 219.455
L191.189 221.505
L191.635 217.724
L192.082 218.79
L192.528 223.304
L192.974 222.73
L193.421 221.737
L194.314 224.766
L194.76 218.076
L195.653 222.614
L196.099 221.619
L196.546 221.419
L196.992 224.403
L197.438 225.022
L197.885 218.124
L198.331 221.982
L198.778 219.732
L199.224 224.001
L199.67 221.558
L200.117 224.065
L200.563 224.371
L201.01 220.725
L201.456 218.189
L201.902 223.371
L202.349 222.436
L202.795 223
L203.242 224.71
L203.688 224.216
L204.134 218.122
L205.474 224.284
L205.92 221.343
L206.366 222.39
L206.813 222.999
L207.259 222.372
L207.706 220.489
L208.152 222.338
L208.598 219.69
L209.045 218.627
L209.491 225.365
L209.938 219.028
L210.384 217.738
L211.277 222.271
L211.723 223.042
L212.17 222.408
L212.616 224.152
L213.062 220.372
L213.509 219.734
L213.955 221.115
L214.402 220.36
L214.848 220.342
L215.294 219.787
L215.741 218.493
L216.187 221.398
L216.634 217.497
L217.08 216.563
L217.526 217.967
L217.973 218.736
L218.419 221.017
L218.866 221.521
L219.312 219.306
L219.758 219.458
L220.205 218.753
L220.651 222.089
L221.098 221.889
L221.544 223.633
L221.99 220.198
L222.437 219.369
L222.883 221.97
L223.33 218.935
L223.776 221.65
L224.222 222.493
L224.669 217.47
L225.115 228.514
L225.562 220.816
L226.008 227.069
L226.454 216.023
L226.901 223.27
L227.347 221.845
L227.794 224.629
L228.24 221.907
L228.686 218.01
L229.133 224.344
L229.579 221.048
L230.026 221.369
L230.472 219.486
L230.918 222.319
L231.365 219.113
L231.811 220.331
L232.258 219.423
L232.704 217.024
L233.15 220.004
L233.597 221.001
L234.043 221.708
L234.49 219.341
L235.382 212.583
L235.829 219.2
L236.275 217.854
L236.722 221.112
L237.168 218.844
L237.614 215.052
L238.061 219.398
L238.507 219.268
L238.954 211.275
L239.4 219.96
L239.846 217.785
L240.293 226.905
L240.739 217.001
L241.186 217.675
L241.632 217.651
L242.078 220.769
L242.525 219.826
L242.971 211.945
L243.418 226.577
L243.864 219.398
L244.31 221.009
L244.757 219.735
L245.203 215.449
L245.65 216.52
L246.096 213.652
L246.542 216.859
L246.989 215.646
L247.435 218.808
L247.882 217.795
L248.328 216.117
L248.774 219.37
L249.221 218.095
L249.667 222.451
L250.114 221.4
L250.56 219.161
L251.006 222.015
L251.453 212.651
L251.899 220.622
L252.346 217.103
L252.792 220.624
L253.238 222.146
L253.685 218.982
L254.131 222.613
L254.578 218.174
L255.024 218.5
L255.47 219.802
L255.917 220.067
L256.363 220.934
L257.256 220.128
L257.702 217.648
L258.149 218.861
L258.595 221.227
L259.042 218.237
L259.488 217.822
L259.934 215.606
L260.381 220.612
L260.827 214.632
L261.274 230.409
L261.72 217.037
L262.166 221.891
L262.613 221.474
L263.059 217.915
L263.506 221.359
L263.952 214.986
L264.398 220.12
L264.845 219.736
L265.291 219.501
L265.738 219.818
L266.184 220.722
L266.63 221.257
L267.523 215.112
L267.97 216.767
L268.416 220.444
L268.862 215.081
L269.309 218.938
L269.755 224.208
L270.202 216.818
L270.648 221.045
L271.094 218.597
L271.541 220.461
L271.987 221.058
L272.434 220.188
L272.88 218.855
L273.326 213.909
L274.219 218.798
L274.666 219.469
L275.112 215.392
L275.558 221.658
L276.005 217.057
L276.451 220.14
L276.898 217.266
L277.344 219.402
L277.79 222.62
L278.237 219.844
L278.683 218.891
L279.13 224.803
L279.576 215.166
L280.022 221.44
L280.469 218.017
L280.915 222.423
L281.362 220.721
L281.808 216.531
L282.254 220.354
L282.701 216.372
L283.147 217.347
L284.04 223.231
L284.486 219.074
L284.933 221.113
L285.379 221.895
L285.826 217.872
L286.272 219.197
L286.718 221.614
L287.165 218.868
L287.611 221.255
L288.058 221.788
L288.504 218.677
L288.95 210.808
L289.397 219.437
L289.843 220.809
L290.29 216.729
L290.736 221.379
L291.182 216.279
L291.629 219.196
L292.075 217.497
L292.522 219.51
L292.968 218.736
L293.414 220.84
L293.861 220.173
L294.307 219.011
L294.754 221.716
L295.2 212.023
L295.646 223.041
L296.093 217.576
L296.539 221.827
L296.986 218.631
L297.878 220.66
L298.325 214.093
L298.771 217.656
L299.218 215.415
L299.664 214.829
L300.11 221.301
L300.557 219.844
L301.003 214.768
L301.45 216.845
L301.896 222.337
L302.342 220.105
L302.789 220.488
L303.235 220.342
L303.682 219.094
L304.128 219.303
L304.574 217.052
L305.021 219.247
L305.467 220.069
L305.914 221.48
L306.36 217.641
L306.806 220.331
L307.253 219.421
L307.699 218.998
L308.146 217.579
L308.592 221.204
L309.038 219.973
L309.485 213.895
L309.931 222.403
L310.378 218.484
L310.824 199.556
L311.27 215.808
L311.717 218.436
L312.163 216.604
L312.61 218.31
L313.056 219.144
L313.502 217.723
L313.949 222.705
L314.395 220.918
L314.842 220.642
L315.288 218.082
L315.734 220.404
L316.181 221.381
L316.627 217.239
L317.074 215.975
L317.52 220.359
L317.966 219.829
L318.413 217.874
L318.859 220.578
L319.306 218.833
L319.752 217.565
L320.198 217.437
L321.091 219.674
L321.538 219.563
L321.984 218.682
L322.43 222.747
L322.877 217.04
L323.323 214.326
L323.77 220.911
L324.216 219.152
L324.662 221.193
L325.109 217.398
L326.002 220.952
L326.448 202.379
L326.894 216.212
L327.341 222.064
L327.787 216.361
L328.234 218.322
L328.68 223.864
L329.573 217.819
L330.019 220.45
L330.466 219.706
L330.912 222.967
L331.358 217.108
L331.805 217.037
L332.251 215.61
L332.698 211.543
L333.144 215.758
L333.59 214.698
L334.037 218.054
L334.483 217.685
L334.93 214.675
L335.376 215.719
L335.822 213.581
L336.269 215.697
L336.715 215.211
L337.162 215.813
L337.608 214.505
L338.054 215.314
L338.501 215.144
L338.947 197.242
L339.394 213.895
L339.84 216.965
L340.286 218.035
L340.733 214.436
L341.179 214.533
L341.626 215.399
L342.072 215.503
L342.518 216.98
L342.965 214.724
L343.411 216.507
L343.858 212.393
L344.304 217.722
L344.75 214.11
L345.197 216.425
L345.643 214.241
L346.09 217.978
L346.536 214.631
L346.982 216.319
L347.429 217.401
L347.875 214.269
L348.322 213.035
L348.768 217.336
L349.214 214.671
L349.661 215.383
L350.554 217.124
L351 216.211
L351.446 213.005
L351.893 280.484
L352.339 216.304
L352.786 216.567
L353.232 218.115
L353.678 209.296
L354.125 215.616
L354.571 214.636
L355.018 216.017
L355.464 214.567
L355.91 215.756
L356.357 216.407
L356.803 215.471
L357.25 215.177
L357.696 214.019
L358.142 216.614
L358.589 217.784
L359.035 212.726
L359.482 219.32
L359.928 216.403
L360.374 231.128
L360.821 192.921
L361.267 214.092
L362.16 217.655
L362.606 218.092
L363.053 213.896
L363.499 215.159
L363.946 216.015
L364.392 217.137
L364.838 215.986
L365.285 215.822
L365.731 215.914
L366.178 216.936
L366.624 216.46
L367.07 213.003
L367.517 213.016
L367.963 216.838
L368.41 216.523
L368.856 217.006
L369.302 215.106
L369.749 216.264
L370.195 196.833
L370.642 211.688
L371.088 218.75
L371.534 217.773
L371.981 214.835
L372.427 219.119
L372.874 218.206
L373.32 212.882
L373.766 218.996
L374.213 214.997
L374.659 218.921
L375.106 214.582
L375.552 215.446
L375.998 213.783
L376.445 213.97
L376.891 216.408
L377.338 215.403
L377.784 217.27
L378.23 216.451
L378.677 218.401
L379.123 214.201
L379.57 211.743
L380.016 214.258
L380.462 215.232
L380.909 214.379
L381.355 211.793
L381.802 211.019
L382.248 216.129
L382.694 170.923
L383.141 212.538
L383.587 214.261
L384.034 214.83
L384.48 215.769
L384.926 212.306
L385.373 219.944
L385.819 299.416
L386.266 215.261
L386.712 217.45
L387.158 217.794
L387.605 212.124
L388.051 213.185
L388.498 216.139
L389.39 218.284
L389.837 214.318
L390.283 217.246
L390.73 215.353
L391.176 214.551
L391.622 214.669
L392.069 214.07
L392.515 214.745
L392.962 214.606
L393.408 217.78
L393.854 214.369
L394.301 216.699
L394.747 199.435
L395.194 212.953
L395.64 218.395
L396.086 217.477
L396.979 211.759
L397.426 217.459
L397.872 197.21
L398.318 196.738
L398.765 215.796
L399.211 218.327
L399.658 214.98
L400.104 221.549
L400.997 211.225
L401.443 221.075
L401.89 215.846
L402.336 212.065
L402.782 212.834
L403.229 214.801
L403.675 211.56
L404.122 193.34
L404.568 214.277
L405.014 213.36
L405.461 216.16
L405.907 213.608
L406.354 214.441
L406.8 213.186
L407.246 216.189
L407.693 215.904
L408.139 218.942
L409.032 213.517
L409.478 218.275
L409.925 215.295
L410.371 197.729
L410.818 230.04
L411.264 193.897
L411.71 213.888
L412.157 212.985
L412.603 216.853
L413.05 214.84
L413.496 175.86
L413.942 213.742
L414.389 218.729
L414.835 213.383
L415.282 217.719
L415.728 212.541
L416.174 214.788
L416.621 211.87
L417.067 215.706
L417.514 210.111
L417.96 213.908
L418.406 211.759
L418.853 212.659
L419.299 212.617
L419.746 197.199
L420.192 209.997
L420.638 212.299
L421.085 217.459
L421.531 208.613
L421.978 212.312
L422.424 211.124
L422.87 291.691
L423.317 231.497
L423.763 195.516
L424.21 217.297
L425.102 212.745
L425.549 209.29
L425.995 209.03
L426.442 211.669
L426.888 206.93
L427.334 211.691
L427.781 208.416
L428.227 212.845
L428.674 297.887
L429.12 212.952
L429.566 214.443
L430.013 214.291
L430.459 215.942
L430.906 211.395
L431.352 210.363
L431.798 216.449
L432.245 213.737
L432.691 212.143
L433.138 213.538
L434.03 211.932
L434.477 173.727
L434.923 214.791
L435.37 214.802
L435.816 209.74
L436.262 215.111
L436.709 213.549
L437.155 212.603
L437.602 295.372
L438.048 215.696
L438.494 214.499
L438.941 213.855
L439.387 215.972
L439.834 211.462
L440.28 168.942
L440.726 213.089
L441.173 211.188
L441.619 211.412
L442.066 213.374
L442.958 215.513
L443.405 295.473
L443.851 215.278
L444.298 215.851
L444.744 212.424
L445.19 214.351
L445.637 214.748
L446.083 210.643
L446.53 211.882
L446.976 216.279
L447.422 214.64
L447.869 212.378
L448.315 212.646
L448.762 214.464
L449.208 210.347
L449.654 211.255
L450.101 211.014
L450.547 213.078
L450.994 213.737
L451.44 213.979
L451.886 214.507
L452.333 170.811
L452.779 212.441
L453.226 214.329
L453.672 215.358
L454.118 216.086
L454.565 210.76
L455.011 215.226
L455.458 210.844
L455.904 214.537
L456.797 212.023
L457.243 215.939
L457.69 212.774
L458.136 212.404
L458.582 191.52
L459.029 211.182
L459.475 214.431
L459.922 215.052
L460.368 214.764
L460.814 211.408
L461.261 214.172
L461.707 166.725
L462.154 214.234
L462.6 210.102
L463.046 211.039
L463.493 214.185
L463.939 210.058
L464.386 212.635
L464.832 214.215
L465.278 212.029
L465.725 213.259
L466.171 213.49
L467.064 211.236
L467.51 209.865
L467.957 213.528
L468.85 210.038
L469.296 208.947
L469.742 215.811
L470.189 211.192
L470.635 185.193
L471.082 230.057
L471.528 190.653
L471.974 209.477
L472.421 208.252
L472.867 213.34
L473.314 208.362
L473.76 290.411
L474.206 211.256
L474.653 210.523
L475.099 209.054
L475.546 210.972
L475.992 210.83
L476.438 207.9
L476.885 213.472
L477.331 209.483
L477.778 211.4
L478.224 212.573
L478.67 211.347
L479.117 212.846
L479.563 206.907
L480.01 212.65
L480.456 211.448
L480.902 210.915
L481.349 209.95
L481.795 213.754
L482.688 205.167
L483.134 209.345
L483.581 206.334
L484.027 211.354
L484.474 209.279
L484.92 207.817
L485.366 211.615
L485.813 297.139
L486.259 210.233
L487.152 214.338
L487.598 213.286
L488.045 211.156
L488.938 214.361
L489.384 214.304
L489.83 211.057
L490.277 209.67
L490.723 215.832
L491.17 211.229
L491.616 191.665
L492.062 210.027
L492.509 211.028
L492.955 213.609
L493.402 213.76
L493.848 213.654
L494.294 214.537
L494.741 298.347
L495.187 210.879
L495.634 214.117
L496.526 213.236
L496.973 213.182
L497.419 209.612
L497.866 212.746
L498.312 212.08
L498.758 213.418
L499.205 210.793
L499.651 209.814
L500.544 207.041
L500.99 208.732
L501.437 209.287
L501.883 209.335
L502.33 210.032
L502.776 209.952
L503.222 208.799
L503.669 297.052
L504.115 209.485
L504.562 211.07
L505.008 210.87
L505.454 210.176
L505.901 210.955
L506.347 195.214
L506.794 206.373
L507.24 209.575
L507.686 211.413
L508.133 210.888
L508.579 209.199
L509.026 211.018
L509.472 291.73
L509.918 210.378
L510.365 211.08
L510.811 214.549
L511.258 212.997
L511.704 212.726
L512.15 210.157
L512.597 213.968
L513.043 212.396
L513.49 212.334
L513.936 213.487
L514.382 212.633
L515.275 208.228
L515.722 213.348
L516.168 213.058
L516.614 209.917
L517.061 212.223
L517.507 212.713
L517.954 212.6
L517.954 212.6" style="fill:none;opacity:0.5;stroke:#0000ff;"/>
   </g>
   <g id="matplotlib.axis_1">
    <g id="xtick_1">
     <g id="line2d_4">
      <path clip-path="url(#p7ff5b81e1d)" d="
M72 388.8
L72 43.2" style="fill:none;stroke:#000000;stroke-dasharray:1.000000,3.000000;stroke-dashoffset:0.0;stroke-linecap:butt;stroke-width:0.5;"/>
     </g>
     <g id="line2d_5">
      <defs>
       <path d="
M0 0
L0 -4" id="m0012dd4eef" style="stroke:#000000;stroke-linecap:butt;stroke-width:0.5;"/>
      </defs>
      <g>
       <use style="stroke:#000000;stroke-linecap:butt;stroke-width:0.5;" x="72.0" xlink:href="#m0012dd4eef" y="388.8"/>
      </g>
     </g>
     <g id="line2d_6">
      <defs>
       <path d="
M0 0
L0 4" id="m476344969c" style="stroke:#000000;stroke-linecap:butt;stroke-width:0.5;"/>
      </defs>
      <g>
       <use style="stroke:#000000;stroke-linecap:butt;stroke-width:0.5;" x="72.0" xlink:href="#m476344969c" y="43.2"/>
      </g>
     </g>
     <g id="text_1">
      <!-- 0 -->
      <defs>
       <path d="
M31.7812 66.4062
Q24.1719 66.4062 20.3281 58.9062
Q16.5 51.4219 16.5 36.375
Q16.5 21.3906 20.3281 13.8906
Q24.1719 6.39062 31.7812 6.39062
Q39.4531 6.39062 43.2812 13.8906
Q47.125 21.3906 47.125 36.375
Q47.125 51.4219 43.2812 58.9062
Q39.4531 66.4062 31.7812 66.4062
M31.7812 74.2188
Q44.0469 74.2188 50.5156 64.5156
Q56.9844 54.8281 56.9844 36.375
Q56.9844 17.9688 50.5156 8.26562
Q44.0469 -1.42188 31.7812 -1.42188
Q19.5312 -1.42188 13.0625 8.26562
Q6.59375 17.9688 6.59375 36.375
Q6.59375 54.8281 13.0625 64.5156
Q19.5312 74.2188 31.7812 74.2188" id="BitstreamVeraSans-Roman-30"/>
      </defs>
      <g transform="translate(68.9765625 401.70625)scale(0.12 -0.12)">
       <use xlink:href="#BitstreamVeraSans-Roman-30"/>
      </g>
     </g>
    </g>
    <g id="xtick_2">
     <g id="line2d_7">
      <path clip-path="url(#p7ff5b81e1d)" d="
M116.64 388.8
L116.64 43.2" style="fill:none;stroke:#000000;stroke-dasharray:1.000000,3.000000;stroke-dashoffset:0.0;stroke-linecap:butt;stroke-width:0.5;"/>
     </g>
     <g id="line2d_8">
      <g>
       <use style="stroke:#000000;stroke-linecap:butt;stroke-width:0.5;" x="116.64" xlink:href="#m0012dd4eef" y="388.8"/>
      </g>
     </g>
     <g id="line2d_9">
      <g>
       <use style="stroke:#000000;stroke-linecap:butt;stroke-width:0.5;" x="116.64" xlink:href="#m476344969c" y="43.2"/>
      </g>
     </g>
     <g id="text_2">
      <!-- 100 -->
      <defs>
       <path d="
M12.4062 8.29688
L28.5156 8.29688
L28.5156 63.9219
L10.9844 60.4062
L10.9844 69.3906
L28.4219 72.9062
L38.2812 72.9062
L38.2812 8.29688
L54.3906 8.29688
L54.3906 0
L12.4062 0
z
" id="BitstreamVeraSans-Roman-31"/>
      </defs>
      <g transform="translate(106.245 401.70625)scale(0.12 -0.12)">
       <use xlink:href="#BitstreamVeraSans-Roman-31"/>
       <use x="63.623046875" xlink:href="#BitstreamVeraSans-Roman-30"/>
       <use x="127.24609375" xlink:href="#BitstreamVeraSans-Roman-30"/>
      </g>
     </g>
    </g>
    <g id="xtick_3">
     <g id="line2d_10">
      <path clip-path="url(#p7ff5b81e1d)" d="
M161.28 388.8
L161.28 43.2" style="fill:none;stroke:#000000;stroke-dasharray:1.000000,3.000000;stroke-dashoffset:0.0;stroke-linecap:butt;stroke-width:0.5;"/>
     </g>
     <g id="line2d_11">
      <g>
       <use style="stroke:#000000;stroke-linecap:butt;stroke-width:0.5;" x="161.28" xlink:href="#m0012dd4eef" y="388.8"/>
      </g>
     </g>
     <g id="line2d_12">
      <g>
       <use style="stroke:#000000;stroke-linecap:butt;stroke-width:0.5;" x="161.28" xlink:href="#m476344969c" y="43.2"/>
      </g>
     </g>
     <g id="text_3">
      <!-- 200 -->
      <defs>
       <path d="
M19.1875 8.29688
L53.6094 8.29688
L53.6094 0
L7.32812 0
L7.32812 8.29688
Q12.9375 14.1094 22.625 23.8906
Q32.3281 33.6875 34.8125 36.5312
Q39.5469 41.8438 41.4219 45.5312
Q43.3125 49.2188 43.3125 52.7812
Q43.3125 58.5938 39.2344 62.25
Q35.1562 65.9219 28.6094 65.9219
Q23.9688 65.9219 18.8125 64.3125
Q13.6719 62.7031 7.8125 59.4219
L7.8125 69.3906
Q13.7656 71.7812 18.9375 73
Q24.125 74.2188 28.4219 74.2188
Q39.75 74.2188 46.4844 68.5469
Q53.2188 62.8906 53.2188 53.4219
Q53.2188 48.9219 51.5312 44.8906
Q49.8594 40.875 45.4062 35.4062
Q44.1875 33.9844 37.6406 27.2188
Q31.1094 20.4531 19.1875 8.29688" id="BitstreamVeraSans-Roman-32"/>
      </defs>
      <g transform="translate(150.665625 401.70625)scale(0.12 -0.12)">
       <use xlink:href="#BitstreamVeraSans-Roman-32"/>
       <use x="63.623046875" xlink:href="#BitstreamVeraSans-Roman-30"/>
       <use x="127.24609375" xlink:href="#BitstreamVeraSans-Roman-30"/>
      </g>
     </g>
    </g>
    <g id="xtick_4">
     <g id="line2d_13">
      <path clip-path="url(#p7ff5b81e1d)" d="
M205.92 388.8
L205.92 43.2" style="fill:none;stroke:#000000;stroke-dasharray:1.000000,3.000000;stroke-dashoffset:0.0;stroke-linecap:butt;stroke-width:0.5;"/>
     </g>
     <g id="line2d_14">
      <g>
       <use style="stroke:#000000;stroke-linecap:butt;stroke-width:0.5;" x="205.92" xlink:href="#m0012dd4eef" y="388.8"/>
      </g>
     </g>
     <g id="line2d_15">
      <g>
       <use style="stroke:#000000;stroke-linecap:butt;stroke-width:0.5;" x="205.92" xlink:href="#m476344969c" y="43.2"/>
      </g>
     </g>
     <g id="text_4">
      <!-- 300 -->
      <defs>
       <path d="
M40.5781 39.3125
Q47.6562 37.7969 51.625 33
Q55.6094 28.2188 55.6094 21.1875
Q55.6094 10.4062 48.1875 4.48438
Q40.7656 -1.42188 27.0938 -1.42188
Q22.5156 -1.42188 17.6562 -0.515625
Q12.7969 0.390625 7.625 2.20312
L7.625 11.7188
Q11.7188 9.32812 16.5938 8.10938
Q21.4844 6.89062 26.8125 6.89062
Q36.0781 6.89062 40.9375 10.5469
Q45.7969 14.2031 45.7969 21.1875
Q45.7969 27.6406 41.2812 31.2656
Q36.7656 34.9062 28.7188 34.9062
L20.2188 34.9062
L20.2188 43.0156
L29.1094 43.0156
Q36.375 43.0156 40.2344 45.9219
Q44.0938 48.8281 44.0938 54.2969
Q44.0938 59.9062 40.1094 62.9062
Q36.1406 65.9219 28.7188 65.9219
Q24.6562 65.9219 20.0156 65.0312
Q15.375 64.1562 9.8125 62.3125
L9.8125 71.0938
Q15.4375 72.6562 20.3438 73.4375
Q25.25 74.2188 29.5938 74.2188
Q40.8281 74.2188 47.3594 69.1094
Q53.9062 64.0156 53.9062 55.3281
Q53.9062 49.2656 50.4375 45.0938
Q46.9688 40.9219 40.5781 39.3125" id="BitstreamVeraSans-Roman-33"/>
      </defs>
      <g transform="translate(195.3234375 401.70625)scale(0.12 -0.12)">
       <use xlink:href="#BitstreamVeraSans-Roman-33"/>
       <use x="63.623046875" xlink:href="#BitstreamVeraSans-Roman-30"/>
       <use x="127.24609375" xlink:href="#BitstreamVeraSans-Roman-30"/>
      </g>
     </g>
    </g>
    <g id="xtick_5">
     <g id="line2d_16">
      <path clip-path="url(#p7ff5b81e1d)" d="
M250.56 388.8
L250.56 43.2" style="fill:none;stroke:#000000;stroke-dasharray:1.000000,3.000000;stroke-dashoffset:0.0;stroke-linecap:butt;stroke-width:0.5;"/>
     </g>
     <g id="line2d_17">
      <g>
       <use style="stroke:#000000;stroke-linecap:butt;stroke-width:0.5;" x="250.56" xlink:href="#m0012dd4eef" y="388.8"/>
      </g>
     </g>
     <g id="line2d_18">
      <g>
       <use style="stroke:#000000;stroke-linecap:butt;stroke-width:0.5;" x="250.56" xlink:href="#m476344969c" y="43.2"/>
      </g>
     </g>
     <g id="text_5">
      <!-- 400 -->
      <defs>
       <path d="
M37.7969 64.3125
L12.8906 25.3906
L37.7969 25.3906
z

M35.2031 72.9062
L47.6094 72.9062
L47.6094 25.3906
L58.0156 25.3906
L58.0156 17.1875
L47.6094 17.1875
L47.6094 0
L37.7969 0
L37.7969 17.1875
L4.89062 17.1875
L4.89062 26.7031
z
" id="BitstreamVeraSans-Roman-34"/>
      </defs>
      <g transform="translate(239.799375 401.70625)scale(0.12 -0.12)">
       <use xlink:href="#BitstreamVeraSans-Roman-34"/>
       <use x="63.623046875" xlink:href="#BitstreamVeraSans-Roman-30"/>
       <use x="127.24609375" xlink:href="#BitstreamVeraSans-Roman-30"/>
      </g>
     </g>
    </g>
    <g id="xtick_6">
     <g id="line2d_19">
      <path clip-path="url(#p7ff5b81e1d)" d="
M295.2 388.8
L295.2 43.2" style="fill:none;stroke:#000000;stroke-dasharray:1.000000,3.000000;stroke-dashoffset:0.0;stroke-linecap:butt;stroke-width:0.5;"/>
     </g>
     <g id="line2d_20">
      <g>
       <use style="stroke:#000000;stroke-linecap:butt;stroke-width:0.5;" x="295.2" xlink:href="#m0012dd4eef" y="388.8"/>
      </g>
     </g>
     <g id="line2d_21">
      <g>
       <use style="stroke:#000000;stroke-linecap:butt;stroke-width:0.5;" x="295.2" xlink:href="#m476344969c" y="43.2"/>
      </g>
     </g>
     <g id="text_6">
      <!-- 500 -->
      <defs>
       <path d="
M10.7969 72.9062
L49.5156 72.9062
L49.5156 64.5938
L19.8281 64.5938
L19.8281 46.7344
Q21.9688 47.4688 24.1094 47.8281
Q26.2656 48.1875 28.4219 48.1875
Q40.625 48.1875 47.75 41.5
Q54.8906 34.8125 54.8906 23.3906
Q54.8906 11.625 47.5625 5.09375
Q40.2344 -1.42188 26.9062 -1.42188
Q22.3125 -1.42188 17.5469 -0.640625
Q12.7969 0.140625 7.71875 1.70312
L7.71875 11.625
Q12.1094 9.23438 16.7969 8.0625
Q21.4844 6.89062 26.7031 6.89062
Q35.1562 6.89062 40.0781 11.3281
Q45.0156 15.7656 45.0156 23.3906
Q45.0156 31 40.0781 35.4375
Q35.1562 39.8906 26.7031 39.8906
Q22.75 39.8906 18.8125 39.0156
Q14.8906 38.1406 10.7969 36.2812
z
" id="BitstreamVeraSans-Roman-35"/>
      </defs>
      <g transform="translate(284.6090625 401.70625)scale(0.12 -0.12)">
       <use xlink:href="#BitstreamVeraSans-Roman-35"/>
       <use x="63.623046875" xlink:href="#BitstreamVeraSans-Roman-30"/>
       <use x="127.24609375" xlink:href="#BitstreamVeraSans-Roman-30"/>
      </g>
     </g>
    </g>
    <g id="xtick_7">
     <g id="line2d_22">
      <path clip-path="url(#p7ff5b81e1d)" d="
M339.84 388.8
L339.84 43.2" style="fill:none;stroke:#000000;stroke-dasharray:1.000000,3.000000;stroke-dashoffset:0.0;stroke-linecap:butt;stroke-width:0.5;"/>
     </g>
     <g id="line2d_23">
      <g>
       <use style="stroke:#000000;stroke-linecap:butt;stroke-width:0.5;" x="339.84" xlink:href="#m0012dd4eef" y="388.8"/>
      </g>
     </g>
     <g id="line2d_24">
      <g>
       <use style="stroke:#000000;stroke-linecap:butt;stroke-width:0.5;" x="339.84" xlink:href="#m476344969c" y="43.2"/>
      </g>
     </g>
     <g id="text_7">
      <!-- 600 -->
      <defs>
       <path d="
M33.0156 40.375
Q26.375 40.375 22.4844 35.8281
Q18.6094 31.2969 18.6094 23.3906
Q18.6094 15.5312 22.4844 10.9531
Q26.375 6.39062 33.0156 6.39062
Q39.6562 6.39062 43.5312 10.9531
Q47.4062 15.5312 47.4062 23.3906
Q47.4062 31.2969 43.5312 35.8281
Q39.6562 40.375 33.0156 40.375
M52.5938 71.2969
L52.5938 62.3125
Q48.875 64.0625 45.0938 64.9844
Q41.3125 65.9219 37.5938 65.9219
Q27.8281 65.9219 22.6719 59.3281
Q17.5312 52.7344 16.7969 39.4062
Q19.6719 43.6562 24.0156 45.9219
Q28.375 48.1875 33.5938 48.1875
Q44.5781 48.1875 50.9531 41.5156
Q57.3281 34.8594 57.3281 23.3906
Q57.3281 12.1562 50.6875 5.35938
Q44.0469 -1.42188 33.0156 -1.42188
Q20.3594 -1.42188 13.6719 8.26562
Q6.98438 17.9688 6.98438 36.375
Q6.98438 53.6562 15.1875 63.9375
Q23.3906 74.2188 37.2031 74.2188
Q40.9219 74.2188 44.7031 73.4844
Q48.4844 72.75 52.5938 71.2969" id="BitstreamVeraSans-Roman-36"/>
      </defs>
      <g transform="translate(329.205 401.70625)scale(0.12 -0.12)">
       <use xlink:href="#BitstreamVeraSans-Roman-36"/>
       <use x="63.623046875" xlink:href="#BitstreamVeraSans-Roman-30"/>
       <use x="127.24609375" xlink:href="#BitstreamVeraSans-Roman-30"/>
      </g>
     </g>
    </g>
    <g id="xtick_8">
     <g id="line2d_25">
      <path clip-path="url(#p7ff5b81e1d)" d="
M384.48 388.8
L384.48 43.2" style="fill:none;stroke:#000000;stroke-dasharray:1.000000,3.000000;stroke-dashoffset:0.0;stroke-linecap:butt;stroke-width:0.5;"/>
     </g>
     <g id="line2d_26">
      <g>
       <use style="stroke:#000000;stroke-linecap:butt;stroke-width:0.5;" x="384.48" xlink:href="#m0012dd4eef" y="388.8"/>
      </g>
     </g>
     <g id="line2d_27">
      <g>
       <use style="stroke:#000000;stroke-linecap:butt;stroke-width:0.5;" x="384.48" xlink:href="#m476344969c" y="43.2"/>
      </g>
     </g>
     <g id="text_8">
      <!-- 700 -->
      <defs>
       <path d="
M8.20312 72.9062
L55.0781 72.9062
L55.0781 68.7031
L28.6094 0
L18.3125 0
L43.2188 64.5938
L8.20312 64.5938
z
" id="BitstreamVeraSans-Roman-37"/>
      </defs>
      <g transform="translate(373.918125 401.70625)scale(0.12 -0.12)">
       <use xlink:href="#BitstreamVeraSans-Roman-37"/>
       <use x="63.623046875" xlink:href="#BitstreamVeraSans-Roman-30"/>
       <use x="127.24609375" xlink:href="#BitstreamVeraSans-Roman-30"/>
      </g>
     </g>
    </g>
    <g id="xtick_9">
     <g id="line2d_28">
      <path clip-path="url(#p7ff5b81e1d)" d="
M429.12 388.8
L429.12 43.2" style="fill:none;stroke:#000000;stroke-dasharray:1.000000,3.000000;stroke-dashoffset:0.0;stroke-linecap:butt;stroke-width:0.5;"/>
     </g>
     <g id="line2d_29">
      <g>
       <use style="stroke:#000000;stroke-linecap:butt;stroke-width:0.5;" x="429.12" xlink:href="#m0012dd4eef" y="388.8"/>
      </g>
     </g>
     <g id="line2d_30">
      <g>
       <use style="stroke:#000000;stroke-linecap:butt;stroke-width:0.5;" x="429.12" xlink:href="#m476344969c" y="43.2"/>
      </g>
     </g>
     <g id="text_9">
      <!-- 800 -->
      <defs>
       <path d="
M31.7812 34.625
Q24.75 34.625 20.7188 30.8594
Q16.7031 27.0938 16.7031 20.5156
Q16.7031 13.9219 20.7188 10.1562
Q24.75 6.39062 31.7812 6.39062
Q38.8125 6.39062 42.8594 10.1719
Q46.9219 13.9688 46.9219 20.5156
Q46.9219 27.0938 42.8906 30.8594
Q38.875 34.625 31.7812 34.625
M21.9219 38.8125
Q15.5781 40.375 12.0312 44.7188
Q8.5 49.0781 8.5 55.3281
Q8.5 64.0625 14.7188 69.1406
Q20.9531 74.2188 31.7812 74.2188
Q42.6719 74.2188 48.875 69.1406
Q55.0781 64.0625 55.0781 55.3281
Q55.0781 49.0781 51.5312 44.7188
Q48 40.375 41.7031 38.8125
Q48.8281 37.1562 52.7969 32.3125
Q56.7812 27.4844 56.7812 20.5156
Q56.7812 9.90625 50.3125 4.23438
Q43.8438 -1.42188 31.7812 -1.42188
Q19.7344 -1.42188 13.25 4.23438
Q6.78125 9.90625 6.78125 20.5156
Q6.78125 27.4844 10.7812 32.3125
Q14.7969 37.1562 21.9219 38.8125
M18.3125 54.3906
Q18.3125 48.7344 21.8438 45.5625
Q25.3906 42.3906 31.7812 42.3906
Q38.1406 42.3906 41.7188 45.5625
Q45.3125 48.7344 45.3125 54.3906
Q45.3125 60.0625 41.7188 63.2344
Q38.1406 66.4062 31.7812 66.4062
Q25.3906 66.4062 21.8438 63.2344
Q18.3125 60.0625 18.3125 54.3906" id="BitstreamVeraSans-Roman-38"/>
      </defs>
      <g transform="translate(418.4728125 401.70625)scale(0.12 -0.12)">
       <use xlink:href="#BitstreamVeraSans-Roman-38"/>
       <use x="63.623046875" xlink:href="#BitstreamVeraSans-Roman-30"/>
       <use x="127.24609375" xlink:href="#BitstreamVeraSans-Roman-30"/>
      </g>
     </g>
    </g>
    <g id="xtick_10">
     <g id="line2d_31">
      <path clip-path="url(#p7ff5b81e1d)" d="
M473.76 388.8
L473.76 43.2" style="fill:none;stroke:#000000;stroke-dasharray:1.000000,3.000000;stroke-dashoffset:0.0;stroke-linecap:butt;stroke-width:0.5;"/>
     </g>
     <g id="line2d_32">
      <g>
       <use style="stroke:#000000;stroke-linecap:butt;stroke-width:0.5;" x="473.76" xlink:href="#m0012dd4eef" y="388.8"/>
      </g>
     </g>
     <g id="line2d_33">
      <g>
       <use style="stroke:#000000;stroke-linecap:butt;stroke-width:0.5;" x="473.76" xlink:href="#m476344969c" y="43.2"/>
      </g>
     </g>
     <g id="text_10">
      <!-- 900 -->
      <defs>
       <path d="
M10.9844 1.51562
L10.9844 10.5
Q14.7031 8.73438 18.5 7.8125
Q22.3125 6.89062 25.9844 6.89062
Q35.75 6.89062 40.8906 13.4531
Q46.0469 20.0156 46.7812 33.4062
Q43.9531 29.2031 39.5938 26.9531
Q35.25 24.7031 29.9844 24.7031
Q19.0469 24.7031 12.6719 31.3125
Q6.29688 37.9375 6.29688 49.4219
Q6.29688 60.6406 12.9375 67.4219
Q19.5781 74.2188 30.6094 74.2188
Q43.2656 74.2188 49.9219 64.5156
Q56.5938 54.8281 56.5938 36.375
Q56.5938 19.1406 48.4062 8.85938
Q40.2344 -1.42188 26.4219 -1.42188
Q22.7031 -1.42188 18.8906 -0.6875
Q15.0938 0.046875 10.9844 1.51562
M30.6094 32.4219
Q37.25 32.4219 41.125 36.9531
Q45.0156 41.5 45.0156 49.4219
Q45.0156 57.2812 41.125 61.8438
Q37.25 66.4062 30.6094 66.4062
Q23.9688 66.4062 20.0938 61.8438
Q16.2188 57.2812 16.2188 49.4219
Q16.2188 41.5 20.0938 36.9531
Q23.9688 32.4219 30.6094 32.4219" id="BitstreamVeraSans-Roman-39"/>
      </defs>
      <g transform="translate(463.08375 401.70625)scale(0.12 -0.12)">
       <use xlink:href="#BitstreamVeraSans-Roman-39"/>
       <use x="63.623046875" xlink:href="#BitstreamVeraSans-Roman-30"/>
       <use x="127.24609375" xlink:href="#BitstreamVeraSans-Roman-30"/>
      </g>
     </g>
    </g>
   </g>
   <g id="matplotlib.axis_2">
    <g id="ytick_1">
     <g id="line2d_34">
      <path clip-path="url(#p7ff5b81e1d)" d="
M72 388.8
L518.4 388.8" style="fill:none;stroke:#000000;stroke-dasharray:1.000000,3.000000;stroke-dashoffset:0.0;stroke-linecap:butt;stroke-width:0.5;"/>
     </g>
     <g id="line2d_35">
      <defs>
       <path d="
M0 0
L4 0" id="me8a85f7bf6" style="stroke:#000000;stroke-linecap:butt;stroke-width:0.5;"/>
      </defs>
      <g>
       <use style="stroke:#000000;stroke-linecap:butt;stroke-width:0.5;" x="72.0" xlink:href="#me8a85f7bf6" y="388.8"/>
      </g>
     </g>
     <g id="line2d_36">
      <defs>
       <path d="
M0 0
L-4 0" id="m1a32005dea" style="stroke:#000000;stroke-linecap:butt;stroke-width:0.5;"/>
      </defs>
      <g>
       <use style="stroke:#000000;stroke-linecap:butt;stroke-width:0.5;" x="518.4" xlink:href="#m1a32005dea" y="388.8"/>
      </g>
     </g>
     <g id="text_11">
      <!-- 0.00 -->
      <defs>
       <path d="
M10.6875 12.4062
L21 12.4062
L21 0
L10.6875 0
z
" id="BitstreamVeraSans-Roman-2e"/>
      </defs>
      <g transform="translate(42.869375 393.1678125)scale(0.12 -0.12)">
       <use xlink:href="#BitstreamVeraSans-Roman-30"/>
       <use x="63.623046875" xlink:href="#BitstreamVeraSans-Roman-2e"/>
       <use x="95.41015625" xlink:href="#BitstreamVeraSans-Roman-30"/>
       <use x="159.033203125" xlink:href="#BitstreamVeraSans-Roman-30"/>
      </g>
     </g>
    </g>
    <g id="ytick_2">
     <g id="line2d_37">
      <path clip-path="url(#p7ff5b81e1d)" d="
M72 354.24
L518.4 354.24" style="fill:none;stroke:#000000;stroke-dasharray:1.000000,3.000000;stroke-dashoffset:0.0;stroke-linecap:butt;stroke-width:0.5;"/>
     </g>
     <g id="line2d_38">
      <g>
       <use style="stroke:#000000;stroke-linecap:butt;stroke-width:0.5;" x="72.0" xlink:href="#me8a85f7bf6" y="354.24"/>
      </g>
     </g>
     <g id="line2d_39">
      <g>
       <use style="stroke:#000000;stroke-linecap:butt;stroke-width:0.5;" x="518.4" xlink:href="#m1a32005dea" y="354.24"/>
      </g>
     </g>
     <g id="text_12">
      <!-- 0.15 -->
      <g transform="translate(43.120625 358.6078125)scale(0.12 -0.12)">
       <use xlink:href="#BitstreamVeraSans-Roman-30"/>
       <use x="63.623046875" xlink:href="#BitstreamVeraSans-Roman-2e"/>
       <use x="95.41015625" xlink:href="#BitstreamVeraSans-Roman-31"/>
       <use x="159.033203125" xlink:href="#BitstreamVeraSans-Roman-35"/>
      </g>
     </g>
    </g>
    <g id="ytick_3">
     <g id="line2d_40">
      <path clip-path="url(#p7ff5b81e1d)" d="
M72 319.68
L518.4 319.68" style="fill:none;stroke:#000000;stroke-dasharray:1.000000,3.000000;stroke-dashoffset:0.0;stroke-linecap:butt;stroke-width:0.5;"/>
     </g>
     <g id="line2d_41">
      <g>
       <use style="stroke:#000000;stroke-linecap:butt;stroke-width:0.5;" x="72.0" xlink:href="#me8a85f7bf6" y="319.68"/>
      </g>
     </g>
     <g id="line2d_42">
      <g>
       <use style="stroke:#000000;stroke-linecap:butt;stroke-width:0.5;" x="518.4" xlink:href="#m1a32005dea" y="319.68"/>
      </g>
     </g>
     <g id="text_13">
      <!-- 0.30 -->
      <g transform="translate(42.869375 324.0478125)scale(0.12 -0.12)">
       <use xlink:href="#BitstreamVeraSans-Roman-30"/>
       <use x="63.623046875" xlink:href="#BitstreamVeraSans-Roman-2e"/>
       <use x="95.41015625" xlink:href="#BitstreamVeraSans-Roman-33"/>
       <use x="159.033203125" xlink:href="#BitstreamVeraSans-Roman-30"/>
      </g>
     </g>
    </g>
    <g id="ytick_4">
     <g id="line2d_43">
      <path clip-path="url(#p7ff5b81e1d)" d="
M72 285.12
L518.4 285.12" style="fill:none;stroke:#000000;stroke-dasharray:1.000000,3.000000;stroke-dashoffset:0.0;stroke-linecap:butt;stroke-width:0.5;"/>
     </g>
     <g id="line2d_44">
      <g>
       <use style="stroke:#000000;stroke-linecap:butt;stroke-width:0.5;" x="72.0" xlink:href="#me8a85f7bf6" y="285.12"/>
      </g>
     </g>
     <g id="line2d_45">
      <g>
       <use style="stroke:#000000;stroke-linecap:butt;stroke-width:0.5;" x="518.4" xlink:href="#m1a32005dea" y="285.12"/>
      </g>
     </g>
     <g id="text_14">
      <!-- 0.45 -->
      <g transform="translate(43.120625 289.4878125)scale(0.12 -0.12)">
       <use xlink:href="#BitstreamVeraSans-Roman-30"/>
       <use x="63.623046875" xlink:href="#BitstreamVeraSans-Roman-2e"/>
       <use x="95.41015625" xlink:href="#BitstreamVeraSans-Roman-34"/>
       <use x="159.033203125" xlink:href="#BitstreamVeraSans-Roman-35"/>
      </g>
     </g>
    </g>
    <g id="ytick_5">
     <g id="line2d_46">
      <path clip-path="url(#p7ff5b81e1d)" d="
M72 250.56
L518.4 250.56" style="fill:none;stroke:#000000;stroke-dasharray:1.000000,3.000000;stroke-dashoffset:0.0;stroke-linecap:butt;stroke-width:0.5;"/>
     </g>
     <g id="line2d_47">
      <g>
       <use style="stroke:#000000;stroke-linecap:butt;stroke-width:0.5;" x="72.0" xlink:href="#me8a85f7bf6" y="250.56"/>
      </g>
     </g>
     <g id="line2d_48">
      <g>
       <use style="stroke:#000000;stroke-linecap:butt;stroke-width:0.5;" x="518.4" xlink:href="#m1a32005dea" y="250.56"/>
      </g>
     </g>
     <g id="text_15">
      <!-- 0.60 -->
      <g transform="translate(42.869375 254.9278125)scale(0.12 -0.12)">
       <use xlink:href="#BitstreamVeraSans-Roman-30"/>
       <use x="63.623046875" xlink:href="#BitstreamVeraSans-Roman-2e"/>
       <use x="95.41015625" xlink:href="#BitstreamVeraSans-Roman-36"/>
       <use x="159.033203125" xlink:href="#BitstreamVeraSans-Roman-30"/>
      </g>
     </g>
    </g>
    <g id="ytick_6">
     <g id="line2d_49">
      <path clip-path="url(#p7ff5b81e1d)" d="
M72 216
L518.4 216" style="fill:none;stroke:#000000;stroke-dasharray:1.000000,3.000000;stroke-dashoffset:0.0;stroke-linecap:butt;stroke-width:0.5;"/>
     </g>
     <g id="line2d_50">
      <g>
       <use style="stroke:#000000;stroke-linecap:butt;stroke-width:0.5;" x="72.0" xlink:href="#me8a85f7bf6" y="216.0"/>
      </g>
     </g>
     <g id="line2d_51">
      <g>
       <use style="stroke:#000000;stroke-linecap:butt;stroke-width:0.5;" x="518.4" xlink:href="#m1a32005dea" y="216.0"/>
      </g>
     </g>
     <g id="text_16">
      <!-- 0.75 -->
      <g transform="translate(43.120625 220.3678125)scale(0.12 -0.12)">
       <use xlink:href="#BitstreamVeraSans-Roman-30"/>
       <use x="63.623046875" xlink:href="#BitstreamVeraSans-Roman-2e"/>
       <use x="95.41015625" xlink:href="#BitstreamVeraSans-Roman-37"/>
       <use x="159.033203125" xlink:href="#BitstreamVeraSans-Roman-35"/>
      </g>
     </g>
    </g>
    <g id="ytick_7">
     <g id="line2d_52">
      <path clip-path="url(#p7ff5b81e1d)" d="
M72 181.44
L518.4 181.44" style="fill:none;stroke:#000000;stroke-dasharray:1.000000,3.000000;stroke-dashoffset:0.0;stroke-linecap:butt;stroke-width:0.5;"/>
     </g>
     <g id="line2d_53">
      <g>
       <use style="stroke:#000000;stroke-linecap:butt;stroke-width:0.5;" x="72.0" xlink:href="#me8a85f7bf6" y="181.44"/>
      </g>
     </g>
     <g id="line2d_54">
      <g>
       <use style="stroke:#000000;stroke-linecap:butt;stroke-width:0.5;" x="518.4" xlink:href="#m1a32005dea" y="181.44"/>
      </g>
     </g>
     <g id="text_17">
      <!-- 0.90 -->
      <g transform="translate(42.869375 185.8078125)scale(0.12 -0.12)">
       <use xlink:href="#BitstreamVeraSans-Roman-30"/>
       <use x="63.623046875" xlink:href="#BitstreamVeraSans-Roman-2e"/>
       <use x="95.41015625" xlink:href="#BitstreamVeraSans-Roman-39"/>
       <use x="159.033203125" xlink:href="#BitstreamVeraSans-Roman-30"/>
      </g>
     </g>
    </g>
    <g id="ytick_8">
     <g id="line2d_55">
      <path clip-path="url(#p7ff5b81e1d)" d="
M72 146.88
L518.4 146.88" style="fill:none;stroke:#000000;stroke-dasharray:1.000000,3.000000;stroke-dashoffset:0.0;stroke-linecap:butt;stroke-width:0.5;"/>
     </g>
     <g id="line2d_56">
      <g>
       <use style="stroke:#000000;stroke-linecap:butt;stroke-width:0.5;" x="72.0" xlink:href="#me8a85f7bf6" y="146.88"/>
      </g>
     </g>
     <g id="line2d_57">
      <g>
       <use style="stroke:#000000;stroke-linecap:butt;stroke-width:0.5;" x="518.4" xlink:href="#m1a32005dea" y="146.88"/>
      </g>
     </g>
     <g id="text_18">
      <!-- 1.05 -->
      <g transform="translate(43.6475 151.2478125)scale(0.12 -0.12)">
       <use xlink:href="#BitstreamVeraSans-Roman-31"/>
       <use x="63.623046875" xlink:href="#BitstreamVeraSans-Roman-2e"/>
       <use x="95.41015625" xlink:href="#BitstreamVeraSans-Roman-30"/>
       <use x="159.033203125" xlink:href="#BitstreamVeraSans-Roman-35"/>
      </g>
     </g>
    </g>
    <g id="ytick_9">
     <g id="line2d_58">
      <path clip-path="url(#p7ff5b81e1d)" d="
M72 112.32
L518.4 112.32" style="fill:none;stroke:#000000;stroke-dasharray:1.000000,3.000000;stroke-dashoffset:0.0;stroke-linecap:butt;stroke-width:0.5;"/>
     </g>
     <g id="line2d_59">
      <g>
       <use style="stroke:#000000;stroke-linecap:butt;stroke-width:0.5;" x="72.0" xlink:href="#me8a85f7bf6" y="112.32"/>
      </g>
     </g>
     <g id="line2d_60">
      <g>
       <use style="stroke:#000000;stroke-linecap:butt;stroke-width:0.5;" x="518.4" xlink:href="#m1a32005dea" y="112.32"/>
      </g>
     </g>
     <g id="text_19">
      <!-- 1.20 -->
      <g transform="translate(43.39625 116.6878125)scale(0.12 -0.12)">
       <use xlink:href="#BitstreamVeraSans-Roman-31"/>
       <use x="63.623046875" xlink:href="#BitstreamVeraSans-Roman-2e"/>
       <use x="95.41015625" xlink:href="#BitstreamVeraSans-Roman-32"/>
       <use x="159.033203125" xlink:href="#BitstreamVeraSans-Roman-30"/>
      </g>
     </g>
    </g>
    <g id="ytick_10">
     <g id="line2d_61">
      <path clip-path="url(#p7ff5b81e1d)" d="
M72 77.76
L518.4 77.76" style="fill:none;stroke:#000000;stroke-dasharray:1.000000,3.000000;stroke-dashoffset:0.0;stroke-linecap:butt;stroke-width:0.5;"/>
     </g>
     <g id="line2d_62">
      <g>
       <use style="stroke:#000000;stroke-linecap:butt;stroke-width:0.5;" x="72.0" xlink:href="#me8a85f7bf6" y="77.76"/>
      </g>
     </g>
     <g id="line2d_63">
      <g>
       <use style="stroke:#000000;stroke-linecap:butt;stroke-width:0.5;" x="518.4" xlink:href="#m1a32005dea" y="77.76"/>
      </g>
     </g>
     <g id="text_20">
      <!-- 1.35 -->
      <g transform="translate(43.6475 82.1278125)scale(0.12 -0.12)">
       <use xlink:href="#BitstreamVeraSans-Roman-31"/>
       <use x="63.623046875" xlink:href="#BitstreamVeraSans-Roman-2e"/>
       <use x="95.41015625" xlink:href="#BitstreamVeraSans-Roman-33"/>
       <use x="159.033203125" xlink:href="#BitstreamVeraSans-Roman-35"/>
      </g>
     </g>
    </g>
    <g id="text_21">
     <!-- Sec/file -->
     <defs>
      <path d="
M9.42188 75.9844
L18.4062 75.9844
L18.4062 0
L9.42188 0
z
" id="BitstreamVeraSans-Roman-6c"/>
      <path d="
M53.5156 70.5156
L53.5156 60.8906
Q47.9062 63.5781 42.9219 64.8906
Q37.9375 66.2188 33.2969 66.2188
Q25.25 66.2188 20.875 63.0938
Q16.5 59.9688 16.5 54.2031
Q16.5 49.3594 19.4062 46.8906
Q22.3125 44.4375 30.4219 42.9219
L36.375 41.7031
Q47.4062 39.5938 52.6562 34.2969
Q57.9062 29 57.9062 20.125
Q57.9062 9.51562 50.7969 4.04688
Q43.7031 -1.42188 29.9844 -1.42188
Q24.8125 -1.42188 18.9688 -0.25
Q13.1406 0.921875 6.89062 3.21875
L6.89062 13.375
Q12.8906 10.0156 18.6562 8.29688
Q24.4219 6.59375 29.9844 6.59375
Q38.4219 6.59375 43.0156 9.90625
Q47.6094 13.2344 47.6094 19.3906
Q47.6094 24.75 44.3125 27.7812
Q41.0156 30.8125 33.5 32.3281
L27.4844 33.5
Q16.4531 35.6875 11.5156 40.375
Q6.59375 45.0625 6.59375 53.4219
Q6.59375 63.0938 13.4062 68.6562
Q20.2188 74.2188 32.1719 74.2188
Q37.3125 74.2188 42.625 73.2812
Q47.9531 72.3594 53.5156 70.5156" id="BitstreamVeraSans-Roman-53"/>
      <path d="
M9.42188 54.6875
L18.4062 54.6875
L18.4062 0
L9.42188 0
z

M9.42188 75.9844
L18.4062 75.9844
L18.4062 64.5938
L9.42188 64.5938
z
" id="BitstreamVeraSans-Roman-69"/>
      <path d="
M25.3906 72.9062
L33.6875 72.9062
L8.29688 -9.28125
L0 -9.28125
z
" id="BitstreamVeraSans-Roman-2f"/>
      <path d="
M56.2031 29.5938
L56.2031 25.2031
L14.8906 25.2031
Q15.4844 15.9219 20.4844 11.0625
Q25.4844 6.20312 34.4219 6.20312
Q39.5938 6.20312 44.4531 7.46875
Q49.3125 8.73438 54.1094 11.2812
L54.1094 2.78125
Q49.2656 0.734375 44.1875 -0.34375
Q39.1094 -1.42188 33.8906 -1.42188
Q20.7969 -1.42188 13.1562 6.1875
Q5.51562 13.8125 5.51562 26.8125
Q5.51562 40.2344 12.7656 48.1094
Q20.0156 56 32.3281 56
Q43.3594 56 49.7812 48.8906
Q56.2031 41.7969 56.2031 29.5938
M47.2188 32.2344
Q47.125 39.5938 43.0938 43.9844
Q39.0625 48.3906 32.4219 48.3906
Q24.9062 48.3906 20.3906 44.1406
Q15.875 39.8906 15.1875 32.1719
z
" id="BitstreamVeraSans-Roman-65"/>
      <path d="
M37.1094 75.9844
L37.1094 68.5
L28.5156 68.5
Q23.6875 68.5 21.7969 66.5469
Q19.9219 64.5938 19.9219 59.5156
L19.9219 54.6875
L34.7188 54.6875
L34.7188 47.7031
L19.9219 47.7031
L19.9219 0
L10.8906 0
L10.8906 47.7031
L2.29688 47.7031
L2.29688 54.6875
L10.8906 54.6875
L10.8906 58.5
Q10.8906 67.625 15.1406 71.7969
Q19.3906 75.9844 28.6094 75.9844
z
" id="BitstreamVeraSans-Roman-66"/>
      <path d="
M48.7812 52.5938
L48.7812 44.1875
Q44.9688 46.2969 41.1406 47.3438
Q37.3125 48.3906 33.4062 48.3906
Q24.6562 48.3906 19.8125 42.8438
Q14.9844 37.3125 14.9844 27.2969
Q14.9844 17.2812 19.8125 11.7344
Q24.6562 6.20312 33.4062 6.20312
Q37.3125 6.20312 41.1406 7.25
Q44.9688 8.29688 48.7812 10.4062
L48.7812 2.09375
Q45.0156 0.34375 40.9844 -0.53125
Q36.9688 -1.42188 32.4219 -1.42188
Q20.0625 -1.42188 12.7812 6.34375
Q5.51562 14.1094 5.51562 27.2969
Q5.51562 40.6719 12.8594 48.3281
Q20.2188 56 33.0156 56
Q37.1562 56 41.1094 55.1406
Q45.0625 54.2969 48.7812 52.5938" id="BitstreamVeraSans-Roman-63"/>
     </defs>
     <g transform="translate(37.869375 236.13)rotate(-90.0)scale(0.12 -0.12)">
      <use xlink:href="#BitstreamVeraSans-Roman-53"/>
      <use x="63.4765625" xlink:href="#BitstreamVeraSans-Roman-65"/>
      <use x="125.0" xlink:href="#BitstreamVeraSans-Roman-63"/>
      <use x="179.98046875" xlink:href="#BitstreamVeraSans-Roman-2f"/>
      <use x="213.671875" xlink:href="#BitstreamVeraSans-Roman-66"/>
      <use x="248.876953125" xlink:href="#BitstreamVeraSans-Roman-69"/>
      <use x="276.66015625" xlink:href="#BitstreamVeraSans-Roman-6c"/>
      <use x="304.443359375" xlink:href="#BitstreamVeraSans-Roman-65"/>
     </g>
    </g>
   </g>
   <g id="patch_3">
    <path d="
M72 43.2
L518.4 43.2" style="fill:none;stroke:#000000;"/>
   </g>
   <g id="patch_4">
    <path d="
M518.4 388.8
L518.4 43.2" style="fill:none;stroke:#000000;"/>
   </g>
   <g id="patch_5">
    <path d="
M72 388.8
L518.4 388.8" style="fill:none;stroke:#000000;"/>
   </g>
   <g id="patch_6">
    <path d="
M72 388.8
L72 43.2" style="fill:none;stroke:#000000;"/>
   </g>
   <g id="text_22">
    <!-- Seq -->
    <defs>
     <path d="
M14.7969 27.2969
Q14.7969 17.3906 18.875 11.75
Q22.9531 6.10938 30.0781 6.10938
Q37.2031 6.10938 41.2969 11.75
Q45.4062 17.3906 45.4062 27.2969
Q45.4062 37.2031 41.2969 42.8438
Q37.2031 48.4844 30.0781 48.4844
Q22.9531 48.4844 18.875 42.8438
Q14.7969 37.2031 14.7969 27.2969
M45.4062 8.20312
Q42.5781 3.32812 38.25 0.953125
Q33.9375 -1.42188 27.875 -1.42188
Q17.9688 -1.42188 11.7344 6.48438
Q5.51562 14.4062 5.51562 27.2969
Q5.51562 40.1875 11.7344 48.0938
Q17.9688 56 27.875 56
Q33.9375 56 38.25 53.625
Q42.5781 51.2656 45.4062 46.3906
L45.4062 54.6875
L54.3906 54.6875
L54.3906 -20.7969
L45.4062 -20.7969
z
" id="BitstreamVeraSans-Roman-71"/>
    </defs>
    <g transform="translate(282.7575 38.2)scale(0.144 -0.144)">
     <use xlink:href="#BitstreamVeraSans-Roman-53"/>
     <use x="63.4765625" xlink:href="#BitstreamVeraSans-Roman-65"/>
     <use x="125.0" xlink:href="#BitstreamVeraSans-Roman-71"/>
    </g>
   </g>
   <g id="legend_1">
    <g id="patch_7">
     <path d="
M429.055 115.339
L511.2 115.339
L511.2 50.4
L429.055 50.4
L429.055 115.339
z
" style="fill:#ffffff;stroke:#000000;"/>
    </g>
    <g id="line2d_64">
     <path d="
M439.135 62.0617
L459.295 62.0617" style="fill:none;stroke:#ff0000;"/>
    </g>
    <g id="line2d_65"/>
    <g id="text_23">
     <!-- LRU -->
     <defs>
      <path d="
M44.3906 34.1875
Q47.5625 33.1094 50.5625 29.5938
Q53.5625 26.0781 56.5938 19.9219
L66.6094 0
L56 0
L46.6875 18.7031
Q43.0625 26.0312 39.6719 28.4219
Q36.2812 30.8125 30.4219 30.8125
L19.6719 30.8125
L19.6719 0
L9.8125 0
L9.8125 72.9062
L32.0781 72.9062
Q44.5781 72.9062 50.7344 67.6719
Q56.8906 62.4531 56.8906 51.9062
Q56.8906 45.0156 53.6875 40.4688
Q50.4844 35.9375 44.3906 34.1875
M19.6719 64.7969
L19.6719 38.9219
L32.0781 38.9219
Q39.2031 38.9219 42.8438 42.2188
Q46.4844 45.5156 46.4844 51.9062
Q46.4844 58.2969 42.8438 61.5469
Q39.2031 64.7969 32.0781 64.7969
z
" id="BitstreamVeraSans-Roman-52"/>
      <path d="
M9.8125 72.9062
L19.6719 72.9062
L19.6719 8.29688
L55.1719 8.29688
L55.1719 0
L9.8125 0
z
" id="BitstreamVeraSans-Roman-4c"/>
      <path d="
M8.6875 72.9062
L18.6094 72.9062
L18.6094 28.6094
Q18.6094 16.8906 22.8438 11.7344
Q27.0938 6.59375 36.625 6.59375
Q46.0938 6.59375 50.3438 11.7344
Q54.5938 16.8906 54.5938 28.6094
L54.5938 72.9062
L64.5 72.9062
L64.5 27.3906
Q64.5 13.1406 57.4375 5.85938
Q50.3906 -1.42188 36.625 -1.42188
Q22.7969 -1.42188 15.7344 5.85938
Q8.6875 13.1406 8.6875 27.3906
z
" id="BitstreamVeraSans-Roman-55"/>
     </defs>
     <g transform="translate(475.13475 67.10175)scale(0.144 -0.144)">
      <use xlink:href="#BitstreamVeraSans-Roman-4c"/>
      <use x="55.712890625" xlink:href="#BitstreamVeraSans-Roman-52"/>
      <use x="125.1953125" xlink:href="#BitstreamVeraSans-Roman-55"/>
     </g>
    </g>
    <g id="line2d_66">
     <path d="
M439.135 83.1983
L459.295 83.1983" style="fill:none;opacity:0.7;stroke:#008000;"/>
    </g>
    <g id="line2d_67"/>
    <g id="text_24">
     <!-- MRU -->
     <defs>
      <path d="
M9.8125 72.9062
L24.5156 72.9062
L43.1094 23.2969
L61.8125 72.9062
L76.5156 72.9062
L76.5156 0
L66.8906 0
L66.8906 64.0156
L48.0938 14.0156
L38.1875 14.0156
L19.3906 64.0156
L19.3906 0
L9.8125 0
z
" id="BitstreamVeraSans-Roman-4d"/>
     </defs>
     <g transform="translate(475.13475 88.23825)scale(0.144 -0.144)">
      <use xlink:href="#BitstreamVeraSans-Roman-4d"/>
      <use x="86.279296875" xlink:href="#BitstreamVeraSans-Roman-52"/>
      <use x="155.76171875" xlink:href="#BitstreamVeraSans-Roman-55"/>
     </g>
    </g>
    <g id="line2d_68">
     <path d="
M439.135 104.335
L459.295 104.335" style="fill:none;opacity:0.5;stroke:#0000ff;"/>
    </g>
    <g id="line2d_69"/>
    <g id="text_25">
     <!-- FIFO -->
     <defs>
      <path d="
M9.8125 72.9062
L51.7031 72.9062
L51.7031 64.5938
L19.6719 64.5938
L19.6719 43.1094
L48.5781 43.1094
L48.5781 34.8125
L19.6719 34.8125
L19.6719 0
L9.8125 0
z
" id="BitstreamVeraSans-Roman-46"/>
      <path d="
M9.8125 72.9062
L19.6719 72.9062
L19.6719 0
L9.8125 0
z
" id="BitstreamVeraSans-Roman-49"/>
      <path d="
M39.4062 66.2188
Q28.6562 66.2188 22.3281 58.2031
Q16.0156 50.2031 16.0156 36.375
Q16.0156 22.6094 22.3281 14.5938
Q28.6562 6.59375 39.4062 6.59375
Q50.1406 6.59375 56.4219 14.5938
Q62.7031 22.6094 62.7031 36.375
Q62.7031 50.2031 56.4219 58.2031
Q50.1406 66.2188 39.4062 66.2188
M39.4062 74.2188
Q54.7344 74.2188 63.9062 63.9375
Q73.0938 53.6562 73.0938 36.375
Q73.0938 19.1406 63.9062 8.85938
Q54.7344 -1.42188 39.4062 -1.42188
Q24.0312 -1.42188 14.8125 8.82812
Q5.60938 19.0938 5.60938 36.375
Q5.60938 53.6562 14.8125 63.9375
Q24.0312 74.2188 39.4062 74.2188" id="BitstreamVeraSans-Roman-4f"/>
     </defs>
     <g transform="translate(475.13475 109.37475)scale(0.144 -0.144)">
      <use xlink:href="#BitstreamVeraSans-Roman-46"/>
      <use x="57.51953125" xlink:href="#BitstreamVeraSans-Roman-49"/>
      <use x="87.01171875" xlink:href="#BitstreamVeraSans-Roman-46"/>
      <use x="144.53125" xlink:href="#BitstreamVeraSans-Roman-4f"/>
     </g>
    </g>
   </g>
  </g>
 </g>
 <defs>
  <clipPath id="p7ff5b81e1d">
   <rect height="345.6" width="446.4" x="72.0" y="43.2"/>
  </clipPath>
 </defs>
</svg>
