<?xml version="1.0" encoding="utf-8" standalone="no"?>
<!DOCTYPE svg PUBLIC "-//W3C//DTD SVG 1.1//EN"
  "http://www.w3.org/Graphics/SVG/1.1/DTD/svg11.dtd">
<!-- Created with matplotlib (http://matplotlib.sourceforge.net/) -->
<svg height="432pt" version="1.1" viewBox="0 0 576 432" width="576pt" xmlns="http://www.w3.org/2000/svg" xmlns:xlink="http://www.w3.org/1999/xlink">
 <defs>
  <style type="text/css">
*{stroke-linecap:square;stroke-linejoin:round;}
  </style>
 </defs>
 <g id="figure_1">
  <g id="patch_1">
   <path d="
M0 432
L576 432
L576 0
L0 0
z
" style="fill:#ffffff;"/>
  </g>
  <g id="axes_1">
   <g id="patch_2">
    <path d="
M72 388.8
L518.4 388.8
L518.4 43.2
L72 43.2
z
" style="fill:#ffffff;"/>
   </g>
   <g id="line2d_1">
    <path clip-path="url(#p7ff5b81e1d)" d="
M72 380.812
L72.4464 381.587
L72.8928 381.128
L73.3392 381.549
L73.7856 380.462
L74.232 381.157
L74.6784 381.295
L75.5712 381.806
L76.0176 381.565
L76.464 381.452
L76.9104 381.659
L77.3568 380.921
L77.8032 381.153
L78.2496 381.524
L78.696 381.531
L79.1424 380.937
L79.5888 381.376
L80.4816 380.13
L80.928 381.307
L81.3744 381.377
L81.8208 380.881
L82.2672 381.224
L82.7136 381.176
L83.16 381.589
L83.6064 381.346
L84.0528 381.571
L84.4992 381.506
L84.9456 381.202
L85.8384 381.861
L88.0704 381.543
L88.5168 381.592
L88.9632 381.519
L89.4096 381.706
L89.856 381.672
L90.3024 381.458
L90.7488 381.56
L91.1952 381.393
L91.6416 381.794
L92.5344 381.71
L92.9808 381.493
L93.4272 381.489
L93.8736 381.876
L94.7664 381.718
L95.2128 380.87
L95.6592 380.538
L96.1056 381.509
L96.9984 381.629
L98.3376 381.412
L98.784 381.614
L99.6768 381.538
L100.123 381.588
L100.57 381.348
L101.909 381.811
L102.355 381.338
L102.802 381.321
L103.248 381.601
L103.694 381.18
L104.587 381.743
L105.034 381.509
L105.926 381.574
L106.373 381.407
L107.266 381.619
L107.712 381.503
L108.158 381.526
L109.051 380.64
L109.498 381.547
L110.39 381.49
L110.837 381.253
L111.73 381.68
L112.176 381.52
L113.515 381.852
L114.408 381.717
L114.854 381.427
L115.301 381.674
L116.64 381.648
L117.086 381.481
L117.533 381.715
L117.979 381.54
L118.426 381.811
L119.318 381.642
L119.765 381.308
L120.211 380.832
L120.658 380.538
L121.104 381.596
L121.55 381.495
L121.997 381.534
L122.443 381.277
L122.89 381.539
L123.336 381.645
L123.782 381.387
L124.229 381.728
L125.122 381.491
L125.568 381.621
L126.014 381.626
L126.907 381.773
L127.354 381.405
L127.8 381.635
L128.693 381.33
L129.139 380.878
L129.586 380.683
L130.032 381.627
L130.478 381.753
L130.925 381.662
L131.371 383.645
L131.818 383.568
L132.264 383.616
L133.157 383.258
L133.603 383.629
L134.05 383.462
L134.496 383.74
L134.942 383.705
L135.389 383.556
L135.835 383.653
L136.282 383.61
L136.728 383.392
L137.174 383.677
L137.621 383.558
L138.067 383.603
L138.514 383.063
L138.96 382.239
L139.406 383.546
L139.853 383.709
L140.746 383.56
L141.192 383.785
L142.531 383.651
L142.978 383.692
L143.424 383.436
L144.317 383.436
L144.763 383.674
L145.21 381.145
L145.656 383.496
L146.102 383.707
L146.549 383.57
L146.995 381.501
L147.888 381.344
L148.334 381.745
L148.781 380.576
L149.227 379.841
L149.674 381.467
L150.12 381.174
L150.566 381.567
L151.013 381.684
L151.459 381.5
L151.906 381.558
L152.352 381.42
L152.798 381.745
L153.691 381.437
L154.138 381.679
L154.584 381.538
L155.03 381.602
L155.477 381.544
L155.923 381.171
L156.37 381.76
L156.816 381.632
L157.709 381.661
L158.155 381.532
L158.602 381.077
L159.048 381.64
L160.387 381.702
L160.834 381.56
L161.28 383.743
L161.726 383.67
L162.173 383.779
L163.958 383.568
L164.851 383.614
L165.298 383.823
L165.744 383.541
L166.19 383.803
L167.083 383.505
L167.53 382.78
L167.976 382.534
L168.422 383.562
L168.869 383.636
L169.315 383.46
L170.208 383.788
L170.654 383.158
L171.101 383.591
L171.547 383.722
L172.44 383.283
L172.886 383.702
L173.779 383.769
L174.226 383.39
L175.118 383.753
L175.565 383.55
L176.011 381.428
L176.458 381.209
L176.904 381.456
L177.797 381.293
L178.243 380.796
L178.69 381.22
L179.136 380.369
L179.582 381.749
L180.475 381.581
L180.922 381.844
L181.368 381.678
L181.814 381.65
L182.261 381.735
L183.154 381.688
L183.6 381.818
L184.046 381.699
L185.386 381.855
L185.832 381.594
L186.278 381.501
L187.171 381.72
L187.618 383.644
L188.064 383.858
L188.51 383.598
L188.957 383.499
L189.403 383.72
L189.85 383.505
L190.296 383.648
L190.742 383.149
L191.189 383.231
L191.635 382.692
L192.082 383.681
L192.974 383.319
L193.421 383.467
L193.867 383.414
L194.314 383.76
L194.76 383.337
L195.206 383.676
L195.653 383.74
L196.099 383.382
L196.546 383.759
L196.992 383.536
L197.438 383.798
L199.224 383.746
L199.67 383.576
L200.117 383.793
L201.01 383.566
L201.456 383.278
L201.902 383.157
L202.349 380.647
L202.795 381.763
L203.242 381.675
L203.688 381.254
L204.134 381.575
L204.581 381.694
L205.027 381.543
L205.474 381.796
L205.92 381.573
L207.259 381.839
L207.706 383.749
L208.152 383.721
L208.598 383.824
L209.045 383.803
L209.491 383.647
L209.938 383.766
L210.384 383.607
L210.83 383.837
L211.277 383.721
L211.723 383.773
L212.616 383.687
L213.955 383.725
L214.402 383.783
L214.848 382.659
L215.294 383.066
L215.741 382.512
L216.187 383.366
L217.526 383.281
L217.973 383.643
L218.419 383.223
L218.866 383.714
L219.312 383.403
L221.098 383.589
L221.544 383.701
L222.437 383.451
L222.883 383.733
L223.33 383.568
L223.776 383.114
L224.222 383.55
L224.669 383.691
L225.115 384.033
L225.562 383.175
L226.008 383.715
L226.454 383.739
L226.901 383.521
L227.347 380.896
L228.24 381.393
L228.686 380.44
L229.133 383.539
L229.579 383.324
L230.026 381.31
L230.472 381.54
L230.918 381.479
L231.365 381.263
L232.704 381.56
L233.15 381.388
L234.49 381.689
L235.382 381.675
L235.829 381.649
L236.275 381.292
L236.722 381.694
L237.168 381.905
L238.061 381.712
L238.507 381.524
L238.954 381.038
L239.4 381.46
L240.293 381.678
L240.739 380.518
L241.186 383.701
L241.632 383.659
L242.078 383.8
L242.525 383.66
L242.971 383.831
L243.418 383.719
L243.864 383.768
L244.31 383.668
L244.757 383.803
L245.203 383.351
L245.65 383.244
L246.096 383.673
L246.542 383.142
L246.989 383.549
L247.435 383.402
L247.882 383.668
L248.328 383.593
L248.774 383.691
L249.667 383.536
L250.114 383.758
L251.006 383.763
L251.453 383.073
L252.346 383.645
L252.792 380.961
L253.238 375.403
L253.685 383.721
L254.131 383.979
L254.578 383.629
L255.024 381.225
L255.47 381.531
L255.917 381.545
L256.363 381.739
L257.702 381.683
L258.149 381.435
L258.595 381.641
L259.042 381.306
L259.488 381.563
L259.934 381.504
L260.381 381.237
L260.827 381.506
L261.274 381.211
L262.166 381.737
L262.613 381.692
L263.059 381.453
L263.506 383.772
L263.952 383.473
L264.398 383.686
L265.291 383.672
L265.738 383.64
L266.184 383.468
L266.63 382.92
L267.523 383.591
L267.97 382.638
L268.416 383.664
L271.094 383.515
L271.541 383.345
L271.987 383.596
L272.434 383.588
L273.326 383.256
L273.773 383.511
L274.219 383.603
L275.112 383.489
L275.558 383.474
L276.005 383.589
L276.451 383.52
L276.898 383.662
L277.344 383.219
L277.79 383.664
L278.237 383.68
L278.683 383.47
L279.13 382.756
L280.022 383.711
L280.469 382.693
L280.915 383.359
L281.362 383.679
L281.808 383.732
L282.254 381.702
L282.701 381.551
L283.147 381.524
L283.594 381.337
L284.04 381.31
L284.486 381.708
L284.933 381.521
L285.826 381.734
L286.272 381.258
L286.718 381.725
L287.611 381.625
L288.058 381.611
L288.504 381.754
L288.95 381.541
L289.397 381.757
L289.843 381.582
L290.29 381.546
L291.629 381.827
L292.075 381.07
L292.522 381.671
L292.968 381.439
L293.861 381.754
L294.307 381.461
L295.2 381.861
L295.646 381.698
L296.539 381.811
L297.432 381.715
L297.878 381.74
L298.325 381.587
L299.664 381.864
L301.003 381.654
L301.45 381.665
L301.896 383.764
L302.342 383.715
L302.789 382.949
L303.235 383.431
L303.682 382.268
L304.128 383.73
L304.574 383.744
L305.467 383.527
L306.36 383.641
L307.253 383.577
L308.146 383.88
L308.592 383.61
L309.038 383.527
L309.485 381.683
L309.931 381.679
L310.378 381.533
L311.27 381.655
L311.717 381.565
L312.163 381.651
L312.61 381.517
L313.056 381.717
L313.502 381.738
L314.395 380.675
L314.842 381.517
L315.288 380.537
L316.181 381.731
L316.627 381.664
L317.52 381.776
L319.306 381.535
L319.752 381.735
L320.198 383.628
L320.645 383.809
L321.091 383.604
L321.538 383.741
L322.877 383.669
L323.323 383.782
L323.77 383.771
L324.662 383.254
L325.555 383.663
L326.002 383.718
L326.448 382.616
L326.894 382.605
L327.341 383.737
L328.234 383.468
L328.68 383.743
L330.019 383.518
L330.466 383.695
L330.912 383.749
L331.805 383.423
L332.251 381.65
L334.037 381.702
L334.483 381.564
L334.93 381.623
L335.376 381.252
L335.822 381.773
L336.269 381.518
L336.715 381.74
L337.162 381.508
L337.608 381.795
L338.054 381.382
L338.501 380.741
L338.947 381.676
L339.84 381.732
L340.733 381.264
L341.179 381.659
L341.626 383.692
L342.072 383.687
L342.518 383.546
L342.965 383.652
L343.411 383.447
L343.858 383.747
L345.643 383.544
L346.09 383.791
L348.768 383.616
L349.214 383.726
L349.661 382.866
L350.107 382.491
L350.554 383.723
L351 383.734
L351.446 383.632
L351.893 383.772
L352.339 383.508
L352.786 383.812
L354.125 383.58
L354.571 383.584
L355.464 383.748
L355.91 383.55
L356.357 383.565
L356.803 383.704
L357.25 383.705
L357.696 381.645
L358.142 381.7
L358.589 381.426
L359.035 381.554
L359.482 381.422
L359.928 381.7
L360.821 381.814
L361.267 381.542
L361.714 380.881
L362.16 380.584
L362.606 381.816
L363.499 381.547
L363.946 383.729
L364.392 383.633
L364.838 383.709
L366.178 383.536
L366.624 383.721
L368.41 383.704
L368.856 383.531
L369.302 383.737
L369.749 383.42
L370.195 383.485
L370.642 383.7
L371.088 383.489
L371.534 383.561
L371.981 383.752
L372.427 383.548
L372.874 383.636
L373.32 383.535
L373.766 382.91
L374.213 382.651
L374.659 383.721
L375.106 383.781
L375.552 383.632
L376.891 383.614
L377.338 383.737
L378.23 383.559
L379.123 383.817
L379.57 383.856
L380.462 383.708
L380.909 383.63
L381.355 383.435
L381.802 383.68
L382.248 383.605
L382.694 383.766
L383.141 381.715
L384.034 381.775
L384.48 383.711
L384.926 383.623
L385.373 383.794
L385.819 383.657
L386.266 380.498
L386.712 380.352
L387.158 381.643
L387.605 381.678
L388.051 381.359
L388.498 381.332
L388.944 381.695
L389.39 381.86
L391.176 381.494
L391.622 381.773
L392.069 381.677
L393.408 381.789
L393.854 381.039
L394.301 381.638
L394.747 381.826
L395.194 381.726
L395.64 381.861
L396.086 381.508
L397.426 381.401
L397.872 381.396
L398.318 380.465
L399.658 381.482
L400.104 381.28
L400.997 381.375
L401.443 383.426
L401.89 383.575
L402.336 383.515
L402.782 383.769
L403.229 383.711
L403.675 383.492
L404.122 383.518
L404.568 383.702
L405.014 383.664
L405.461 383.238
L405.907 383.75
L406.8 383.622
L407.246 384.044
L407.693 383.709
L408.586 383.463
L409.478 383.697
L410.371 383.412
L410.818 382.793
L411.264 381.573
L411.71 381.686
L412.157 381.531
L412.603 381.695
L413.05 381.491
L414.389 381.732
L414.835 381.577
L415.282 381.668
L416.621 381.565
L417.514 381.822
L417.96 381.643
L418.406 381.676
L418.853 381.825
L419.299 381.844
L419.746 381.672
L420.192 381.846
L420.638 381.753
L421.085 381.924
L421.531 381.464
L421.978 383.605
L423.317 383.818
L424.21 383.543
L424.656 382.808
L425.102 383.585
L425.549 382.414
L425.995 383.527
L426.442 383.751
L426.888 383.476
L427.781 383.55
L428.227 383.775
L428.674 383.767
L429.12 383.486
L429.566 383.764
L430.013 383.677
L430.459 383.777
L430.906 383.661
L432.245 383.793
L432.691 383.578
L433.138 383.777
L433.584 383.741
L434.03 383.508
L434.477 383.728
L434.923 383.53
L435.37 383.719
L436.262 383.693
L436.709 381.191
L437.155 381.364
L437.602 380.271
L438.048 381.253
L438.494 381.676
L438.941 381.768
L439.387 381.495
L439.834 381.41
L440.28 381.458
L440.726 381.685
L441.173 381.597
L442.958 381.79
L443.405 381.723
L443.851 381.824
L444.298 381.554
L445.19 381.815
L445.637 381.708
L446.083 381.818
L447.869 381.654
L448.315 381.252
L448.762 381.397
L449.208 380.956
L449.654 381.68
L450.101 381.814
L450.547 381.765
L450.994 381.325
L451.886 381.777
L453.226 381.729
L453.672 381.353
L454.118 381.581
L455.458 381.768
L455.904 381.513
L456.35 383.487
L456.797 383.449
L457.243 383.742
L458.136 383.588
L458.582 383.619
L459.029 383.809
L459.475 383.7
L459.922 383.378
L460.368 383.236
L460.814 383.442
L461.261 382.692
L461.707 383.421
L462.154 383.681
L462.6 383.659
L463.046 382.786
L463.493 383.539
L463.939 383.621
L464.386 381.502
L464.832 381.228
L465.278 381.225
L465.725 381.571
L466.171 381.568
L466.618 381.269
L467.064 381.596
L467.957 381.637
L468.403 381.329
L468.85 381.78
L469.296 381.489
L469.742 381.799
L470.189 381.358
L471.528 381.687
L471.974 381.523
L472.421 380.85
L472.867 380.395
L473.314 381.619
L473.76 381.311
L474.206 383.514
L475.099 383.701
L475.546 383.578
L476.438 383.72
L477.331 383.373
L477.778 383.763
L478.224 383.608
L479.117 383.799
L479.563 383.553
L480.01 382.867
L480.456 383.741
L480.902 383.51
L481.795 383.399
L482.242 383.386
L482.688 383.776
L483.134 383.536
L483.581 383.759
L484.027 383.302
L484.92 382.685
L485.366 383.924
L485.813 383.703
L486.259 383.719
L487.152 383.615
L487.598 383.81
L488.045 381.702
L488.491 381.714
L488.938 381.512
L489.384 381.477
L490.277 381.615
L490.723 381.441
L491.17 381.412
L491.616 381.668
L492.062 381.522
L492.955 381.62
L493.402 381.766
L493.848 381.501
L494.294 381.746
L494.741 381.631
L495.187 383.446
L495.634 383.691
L496.08 383.653
L496.526 383.436
L496.973 383.702
L497.866 383.738
L498.312 383.569
L499.651 382.588
L500.098 383.729
L500.99 383.491
L501.437 383.838
L501.883 383.634
L502.33 383.81
L502.776 383.705
L503.222 383.731
L503.669 383.543
L504.562 383.773
L505.008 383.522
L506.347 383.724
L506.794 383.655
L507.686 383.752
L508.133 383.497
L508.579 383.704
L509.026 383.606
L509.472 383.76
L510.365 383.22
L510.811 383.483
L511.258 382.226
L511.704 383.616
L512.597 383.561
L513.043 381.58
L513.936 381.802
L514.829 381.512
L515.275 381.561
L515.722 381.473
L516.168 381.554
L516.614 381.183
L517.061 383.038
L517.954 383.565
L517.954 383.565" style="fill:none;stroke:#ff0000;"/>
   </g>
   <g id="line2d_2">
    <path clip-path="url(#p7ff5b81e1d)" d="
M72 345.95
L72.4464 332.809
L72.8928 349.798
L73.3392 359.81
L73.7856 359.754
L74.232 359.503
L74.6784 373.999
L75.1248 366.184
L75.5712 374.615
L76.0176 367.564
L76.464 366.239
L76.9104 335.384
L77.3568 351.152
L77.8032 349.029
L78.2496 339.745
L78.696 352.253
L79.1424 353.253
L79.5888 330.687
L80.0352 349.816
L80.4816 346.147
L80.928 347.256
L81.3744 359.854
L81.8208 354.425
L82.2672 325.036
L82.7136 331.473
L83.16 331.296
L83.6064 346.449
L84.0528 324.739
L84.4992 337.768
L84.9456 300.68
L85.392 347.218
L85.8384 287.513
L86.2848 285.159
L86.7312 322.228
L87.1776 337.771
L87.624 340.443
L88.0704 372.919
L88.5168 372.799
L88.9632 374.206
L89.856 375.422
L90.3024 375.079
L90.7488 375.73
L91.1952 372.202
L91.6416 374.925
L92.088 374.51
L92.5344 375.74
L92.9808 374.313
L93.4272 373.809
L94.32 374.42
L94.7664 375.022
L95.6592 375.299
L96.1056 374.81
L96.552 371.273
L96.9984 376.375
L97.4448 371.629
L97.8912 374.126
L98.3376 374.72
L99.2304 375.193
L99.6768 374.487
L100.123 375.511
L100.57 374.242
L101.016 373.513
L101.462 375.013
L102.355 375.15
L102.802 374.859
L103.248 376.128
L103.694 369.614
L104.141 375.741
L104.587 371.053
L105.034 373.148
L105.48 373.426
L105.926 375.122
L106.373 374.779
L107.266 375.374
L107.712 368.263
L108.158 376.327
L108.605 372.267
L109.051 374.716
L109.498 367.413
L109.944 366.567
L110.39 366.494
L110.837 372.109
L111.283 370.31
L111.73 373.075
L112.176 378.19
L112.622 376.048
L113.069 377.306
L113.515 371.627
L113.962 378.955
L114.408 372.007
L114.854 375.653
L115.301 376.962
L115.747 377.245
L116.194 377.663
L116.64 378.853
L117.086 373.68
L117.533 379.903
L117.979 375.072
L118.426 375.97
L118.872 377.456
L119.318 377.601
L119.765 379.086
L120.211 378.937
L121.104 375.329
L121.55 380.184
L121.997 378.02
L122.443 379.796
L122.89 376.517
L123.336 379.216
L123.782 378.733
L124.229 379.741
L125.122 373.456
L125.568 373.721
L126.014 375.732
L126.461 377.169
L126.907 377.194
L127.354 376.082
L127.8 379.152
L128.246 378.852
L128.693 376.64
L129.139 379.254
L129.586 378.797
L130.032 373.686
L130.478 380.383
L130.925 375.997
L131.371 373.952
L131.818 380.185
L132.264 376.798
L132.71 377.37
L133.157 379.807
L133.603 376.052
L134.05 378.311
L134.496 376.745
L134.942 374.357
L135.389 373.398
L135.835 369.396
L136.282 376.972
L136.728 377.693
L137.174 376.204
L138.067 380.292
L138.514 378.515
L138.96 377.292
L139.406 378.474
L139.853 377.862
L140.299 379.229
L140.746 377.251
L141.192 379.671
L141.638 378.064
L142.085 375.273
L142.531 380.027
L142.978 376.536
L143.424 378.127
L143.87 377.664
L144.317 378.005
L144.763 375.312
L145.21 381.901
L145.656 372.949
L146.102 378.271
L146.549 377.363
L146.995 377.369
L147.442 375.472
L147.888 379.721
L148.334 378.318
L148.781 377.635
L149.227 376.143
L149.674 380.2
L150.12 372.908
L150.566 379.458
L151.013 375.273
L151.906 382.201
L152.352 377.283
L152.798 374.941
L153.245 377.535
L153.691 379.001
L154.138 379.355
L154.584 378.089
L155.03 375.575
L155.477 374.563
L155.923 374.59
L156.37 374.74
L156.816 374.359
L157.262 372.301
L157.709 377.708
L158.155 369.918
L158.602 373.91
L159.048 374.617
L159.494 371.888
L159.941 376.602
L160.387 376.864
L160.834 378.095
L161.726 378.739
L162.173 377.781
L162.619 379.502
L163.066 379.083
L163.512 377.515
L163.958 380.567
L164.405 377.705
L164.851 378.567
L165.298 377.912
L165.744 375.129
L166.19 379.961
L166.637 373.832
L167.083 379.106
L167.53 377.57
L167.976 378.12
L168.422 376.628
L168.869 379.079
L169.315 377.933
L169.762 377.221
L170.208 379.518
L170.654 376.505
L171.101 377.653
L171.547 375.372
L171.994 378.672
L172.44 378.132
L172.886 378.945
L173.333 377.908
L173.779 375.525
L174.226 375.022
L174.672 379.173
L175.118 374.509
L175.565 376.614
L176.011 373.072
L176.458 377.68
L176.904 378.579
L177.35 375.316
L177.797 376.279
L178.243 375.863
L178.69 378.391
L179.136 377.167
L179.582 380.126
L180.029 379.46
L180.475 379.254
L180.922 370.422
L181.368 381.055
L181.814 375.237
L182.261 373.706
L182.707 368.748
L183.154 377.358
L183.6 369.199
L184.046 373.018
L184.493 374.271
L184.939 374.478
L185.386 372.881
L185.832 374.165
L186.278 377.979
L186.725 377.947
L187.171 378.45
L187.618 378.103
L188.064 377.952
L188.51 379.311
L188.957 379.186
L189.403 377.629
L189.85 380.21
L190.296 373.505
L190.742 375.13
L191.189 377.945
L191.635 374.707
L192.082 378.84
L192.528 375.96
L192.974 375.786
L193.421 378.148
L193.867 378.052
L194.314 378.395
L194.76 377.603
L195.206 378.982
L195.653 378.167
L196.099 379.76
L196.546 376.887
L196.992 377.105
L197.438 375.343
L197.885 378.475
L198.331 378.073
L198.778 378.945
L199.224 377.458
L199.67 379.103
L200.563 372.205
L201.01 379.939
L201.456 377.204
L201.902 378.098
L202.349 376.381
L202.795 376.843
L203.242 379.324
L203.688 377.108
L204.134 376.062
L204.581 376.279
L205.027 378.027
L205.474 377.175
L205.92 378.69
L206.366 379.311
L206.813 378.892
L207.259 376.247
L207.706 380.53
L209.491 372.169
L209.938 374.101
L210.384 376.879
L210.83 375.885
L211.277 374.054
L211.723 374.252
L212.17 375.474
L212.616 376.069
L213.062 377.712
L213.509 378.139
L213.955 377.455
L214.402 378.754
L214.848 379.171
L215.294 378.915
L215.741 379.159
L216.187 377.937
L216.634 377.789
L217.08 378.976
L217.526 378.35
L217.973 379.338
L218.419 379.546
L218.866 378.533
L219.312 378.861
L219.758 378.881
L220.205 379.432
L220.651 376.055
L221.098 379.878
L221.544 375.255
L221.99 377.878
L222.437 378.24
L222.883 377.303
L223.33 378.291
L223.776 376.249
L224.222 377.707
L224.669 374.579
L225.115 379.044
L225.562 380.537
L226.008 378.754
L226.454 379.015
L226.901 377.64
L227.347 378.84
L227.794 378.99
L228.24 376.183
L228.686 378.623
L229.133 376.055
L229.579 375.359
L230.026 378.026
L230.472 379.105
L230.918 377.891
L231.365 378.24
L231.811 377.234
L232.258 382.221
L232.704 379.752
L233.15 378.73
L233.597 379.268
L234.043 378.818
L234.49 378.871
L234.936 375.834
L235.382 375.069
L235.829 375.674
L236.275 369.748
L236.722 372.321
L237.168 371.213
L237.614 370.86
L238.507 378.027
L238.954 378.876
L239.4 379.331
L239.846 375.809
L240.293 375.633
L240.739 375.598
L241.186 372.662
L241.632 375.601
L242.078 373.193
L242.525 377.841
L242.971 378.328
L243.418 379.836
L243.864 378.197
L244.31 379.481
L244.757 378.491
L245.203 379.326
L245.65 379.555
L246.096 377.932
L246.542 379.229
L246.989 377.475
L247.435 377.288
L247.882 376.121
L248.328 378.754
L248.774 375.12
L249.221 374.849
L249.667 375.356
L250.114 380.202
L250.56 377.926
L251.006 377.532
L251.453 375.163
L252.346 377.779
L252.792 378.665
L253.238 379.118
L253.685 378.566
L254.131 378.905
L254.578 376.557
L255.024 374.93
L255.47 375.099
L255.917 378.195
L256.363 377.723
L256.81 378.688
L257.256 378.678
L257.702 379.383
L258.149 373.089
L258.595 379.052
L259.042 378.507
L259.488 357.361
L259.934 380.659
L260.827 375.139
L261.274 375.607
L261.72 371.742
L262.166 381.601
L262.613 378.236
L263.059 376.411
L263.506 379.94
L263.952 375.413
L264.398 376.882
L264.845 374.259
L265.738 374.926
L266.184 375.064
L266.63 378.372
L267.077 379.027
L267.523 378.415
L267.97 378.291
L268.416 378.711
L268.862 377.843
L269.755 379.066
L270.202 378.795
L270.648 375.927
L271.094 379.161
L271.541 373.553
L271.987 376.918
L272.434 372.695
L272.88 381.926
L273.326 377.906
L273.773 376.954
L274.219 378.733
L274.666 378.687
L275.112 378.508
L275.558 378.766
L276.005 378.012
L276.898 378.887
L277.344 378.392
L277.79 375.66
L278.237 377.573
L278.683 375.684
L279.13 378.183
L279.576 377.486
L280.022 377.706
L280.469 379.572
L280.915 378.385
L281.362 374.784
L281.808 376.456
L282.254 376.685
L282.701 377.168
L283.147 376.722
L283.594 373.395
L284.04 378.216
L284.486 376.149
L284.933 374.779
L285.379 379.143
L285.826 377.978
L286.272 379.163
L286.718 377.429
L287.165 376.737
L287.611 379.996
L288.058 378.391
L288.504 378.898
L288.95 373.758
L289.397 374.586
L289.843 373.323
L290.29 375.639
L290.736 374.501
L291.182 374.701
L291.629 373.94
L292.075 375.075
L292.522 377.652
L292.968 379.428
L293.414 378.767
L293.861 378.82
L294.307 376.385
L294.754 376.782
L295.2 374.166
L296.093 374.715
L296.539 377.858
L296.986 377.191
L297.432 378.637
L297.878 379.044
L298.325 377.334
L298.771 378.722
L299.218 378.385
L299.664 380.138
L301.003 375.679
L301.45 379.887
L301.896 374.996
L302.342 375.826
L302.789 377.629
L303.235 378.651
L303.682 379.027
L304.128 377.969
L304.574 377.847
L305.021 379.54
L306.36 376.603
L306.806 377.694
L307.253 374.809
L307.699 378.195
L308.146 378.423
L308.592 375.602
L309.485 378.175
L309.931 377.067
L310.378 379.658
L310.824 378.625
L311.27 378.231
L311.717 376.984
L312.163 379.801
L312.61 378.764
L313.056 378.47
L313.502 379.597
L313.949 377.78
L314.395 379.198
L315.288 370.979
L315.734 375.483
L316.181 372.974
L316.627 372.55
L317.074 375.639
L317.52 373.993
L317.966 374.191
L318.413 379.306
L318.859 378.997
L319.306 374.61
L319.752 378.764
L320.645 370.866
L321.091 376.227
L321.538 375.536
L321.984 378.228
L322.43 378.903
L322.877 379.231
L323.323 379.285
L323.77 378.506
L324.216 378.386
L324.662 378.414
L325.109 379.062
L325.555 379.913
L326.002 379.486
L326.448 379.762
L326.894 379.446
L327.341 378.561
L327.787 379.057
L328.234 376.463
L328.68 380.25
L329.126 376.415
L329.573 377.513
L330.019 377.451
L330.466 379.133
L330.912 378.661
L331.358 374.793
L331.805 382.103
L332.251 375.815
L332.698 379.152
L333.144 376.369
L333.59 377.737
L334.037 378.383
L334.483 378.234
L334.93 378.791
L335.376 378.946
L335.822 376.878
L336.269 380.305
L336.715 378.205
L337.162 378.629
L337.608 379.893
L338.054 378.474
L338.501 378.667
L338.947 379.281
L339.394 377.763
L339.84 373.552
L340.286 374.946
L340.733 371.893
L341.179 374.134
L341.626 375.206
L342.072 378.497
L342.518 378.71
L342.965 374.856
L343.411 381.375
L343.858 375.363
L344.304 373.051
L344.75 374.398
L345.197 371.325
L345.643 375.459
L346.09 373.035
L346.536 379.051
L346.982 378.33
L347.429 379.219
L347.875 378.244
L348.322 379.692
L348.768 378.944
L349.661 378.933
L350.107 379.622
L350.554 378.097
L351 379.523
L351.446 378.761
L351.893 378.791
L352.339 375.475
L352.786 379.994
L353.232 376.091
L353.678 377.715
L354.125 378.325
L354.571 375.243
L355.018 381.865
L355.464 377.889
L355.91 377.594
L356.357 378.628
L356.803 381.028
L357.25 379.328
L357.696 378.364
L358.142 379.078
L358.589 379.339
L359.035 378.896
L359.482 378.885
L359.928 379.492
L360.374 378.057
L360.821 378.488
L361.267 379.251
L361.714 378.7
L362.16 379.89
L363.053 379.405
L363.499 378.278
L363.946 376.625
L364.392 379.284
L364.838 376.083
L365.285 377.296
L365.731 375.132
L366.178 378.278
L366.624 378.939
L367.07 375.843
L367.517 382.157
L367.963 374.348
L368.41 378.959
L368.856 374.211
L369.302 374.907
L369.749 374.238
L370.195 375.522
L370.642 373.056
L371.088 374.508
L371.534 375.47
L371.981 378.599
L372.427 379.918
L372.874 378.962
L373.32 379.58
L373.766 379.085
L374.213 376.944
L374.659 378.594
L375.106 374.212
L375.552 377.344
L375.998 378.019
L376.445 378.931
L376.891 377.183
L377.338 379.038
L378.23 374.669
L378.677 371.022
L379.123 378.643
L379.57 375.899
L380.016 377.76
L380.462 378.93
L380.909 376.799
L381.355 378.278
L381.802 378.854
L382.248 379.88
L382.694 377.248
L383.141 379.247
L383.587 376.672
L384.034 378.211
L384.48 374.77
L384.926 379.213
L385.373 376.866
L385.819 379.269
L386.266 378.91
L386.712 378.79
L387.158 379.056
L387.605 379.569
L388.051 377.437
L388.498 377.246
L388.944 375.213
L389.39 375.441
L389.837 376.868
L390.283 379.288
L390.73 379.376
L391.176 373.459
L391.622 382.339
L392.069 374.959
L392.515 376.547
L392.962 379.316
L393.408 378.795
L393.854 379.074
L394.301 374.354
L394.747 379.302
L395.194 378.432
L395.64 380.571
L396.086 371.035
L396.979 374.377
L397.426 374.575
L397.872 375.214
L398.318 374.934
L398.765 377.845
L399.211 379.901
L399.658 376.096
L400.104 379.612
L400.55 379.147
L400.997 379.05
L401.443 377.119
L401.89 378.778
L402.336 374.806
L402.782 377.934
L403.229 379.216
L403.675 378.53
L404.122 377.272
L404.568 380.299
L405.014 376.318
L405.461 376.75
L405.907 375.71
L406.354 377.343
L406.8 373.5
L407.246 382.418
L407.693 378.842
L408.139 379.136
L408.586 378.442
L409.032 379.354
L409.478 378.948
L409.925 379.543
L410.818 376.557
L411.264 376.342
L411.71 377.545
L412.157 373.534
L412.603 380.786
L413.05 375.877
L413.496 379.072
L413.942 378.223
L414.389 378.149
L414.835 379.075
L415.282 378.811
L415.728 377.686
L416.174 382.007
L416.621 379.833
L417.067 375.195
L417.514 374.226
L417.96 375.623
L418.406 379.293
L418.853 377.914
L419.299 374.76
L419.746 382.251
L420.192 374.203
L420.638 377.184
L421.085 374.426
L421.531 376.011
L421.978 374.032
L422.424 374.848
L422.87 376.776
L423.317 377.364
L423.763 379.472
L424.21 373.162
L424.656 373.619
L425.102 375.577
L425.549 375.547
L425.995 379.785
L426.442 378.492
L426.888 379.138
L427.334 379.346
L427.781 378.897
L428.227 376.67
L428.674 377.803
L429.12 377.125
L429.566 377.245
L430.013 378.497
L430.906 378.708
L431.352 379.62
L431.798 376.005
L432.245 376.972
L432.691 372.653
L433.138 376.161
L433.584 376.619
L434.03 378.585
L434.477 378.789
L434.923 379.184
L435.37 377.144
L435.816 380.608
L436.262 380.893
L436.709 382.027
L437.155 379.412
L437.602 379.539
L438.048 378.456
L438.494 378.717
L438.941 376.311
L439.387 379.603
L439.834 376
L440.28 377.676
L440.726 378.202
L441.173 378.233
L441.619 379.598
L442.066 378.968
L442.512 377.38
L442.958 377.214
L443.405 376.479
L443.851 378.188
L444.298 374.175
L444.744 381.268
L445.19 374.003
L445.637 375.402
L446.083 374.25
L446.53 378.308
L446.976 377.977
L447.422 378.742
L447.869 376.577
L448.315 376.897
L448.762 372.785
L449.208 373.167
L449.654 374.801
L450.101 374.597
L450.547 375.71
L450.994 379.087
L451.886 377.693
L452.333 378.936
L452.779 378.107
L453.672 379.675
L454.118 379.342
L454.565 377.728
L455.011 379.231
L455.458 377.188
L455.904 377.77
L456.35 382.204
L456.797 379.464
L457.243 378.893
L457.69 378.025
L458.136 377.894
L458.582 378.303
L459.029 360.685
L459.475 374.699
L459.922 380.993
L460.368 375.486
L460.814 377.751
L461.261 378.827
L461.707 377.669
L462.154 379.082
L462.6 377.707
L463.046 378.929
L463.493 379.066
L463.939 379.362
L464.386 378.973
L464.832 379.351
L465.278 378.842
L465.725 378.615
L466.171 375.746
L466.618 380.933
L467.064 374.668
L467.51 373.047
L467.957 382.124
L468.403 378.261
L468.85 378.979
L469.296 377.819
L469.742 378.718
L470.189 376.581
L470.635 377.075
L471.082 375.134
L471.974 380.391
L472.421 379.794
L472.867 378.702
L473.314 373.94
L473.76 372.373
L474.206 373.107
L474.653 377.232
L475.099 378.236
L475.546 377.489
L475.992 375.047
L476.438 371.443
L476.885 374.672
L477.331 374.789
L477.778 380.058
L478.224 378.856
L478.67 379.019
L479.117 379.801
L479.563 373.694
L480.01 381.45
L480.456 373.826
L480.902 376.84
L481.349 379.002
L481.795 378.223
L482.242 378.939
L482.688 379.074
L483.134 377.492
L483.581 378.429
L484.474 376.521
L484.92 378.265
L485.366 377.939
L485.813 379.604
L486.259 379.888
L486.706 377.823
L487.152 376.473
L487.598 381.452
L488.045 377.383
L488.491 379.622
L488.938 378.872
L489.384 378.774
L489.83 378.38
L490.277 379.242
L490.723 378.968
L491.17 376.302
L491.616 375.538
L492.062 378.897
L492.509 377.063
L492.955 377.223
L493.402 379.513
L493.848 379.584
L494.294 377.07
L494.741 376.43
L495.187 379.951
L495.634 373.676
L496.08 378.01
L497.419 374.464
L497.866 374.873
L498.312 379.092
L498.758 379.854
L499.205 376.48
L499.651 378.485
L500.098 375.007
L500.544 376.066
L500.99 373.486
L501.437 376.243
L501.883 381.904
L502.33 376.455
L502.776 378.01
L503.222 374.25
L503.669 382.209
L504.115 378.198
L504.562 379.147
L505.008 376.221
L505.454 382.217
L505.901 374.864
L506.347 376.037
L506.794 378.56
L507.24 378.708
L507.686 378.385
L508.133 379.089
L508.579 373.652
L509.026 376.934
L509.472 374.842
L509.918 380.866
L510.365 376.102
L510.811 379.202
L511.258 379.715
L511.704 377.821
L512.15 378.669
L512.597 377.698
L513.043 378.804
L513.49 379.415
L513.936 378.582
L514.382 378.729
L514.829 379.283
L515.275 372.54
L515.722 381.732
L516.168 373.72
L516.614 378.033
L517.061 378.992
L517.507 379.453
L517.954 378.582
L517.954 378.582" style="fill:none;opacity:0.7;stroke:#008000;"/>
   </g>
   <g id="line2d_3">
    <path clip-path="url(#p7ff5b81e1d)" d="
M72 375.947
L72.4464 378.089
L72.8928 368.131
L73.3392 377.287
L74.232 375.126
L74.6784 376.362
L75.1248 372.957
L75.5712 376.592
L76.0176 374.785
L76.9104 376.736
L77.3568 375.795
L77.8032 373.561
L78.2496 376.569
L78.696 376.608
L79.1424 376.298
L79.5888 374.846
L80.0352 376.086
L80.4816 375.261
L80.928 377.276
L81.3744 375.31
L81.8208 370.144
L82.2672 373.247
L82.7136 373.999
L83.16 372.353
L83.6064 372.977
L84.0528 375.707
L84.4992 375.354
L84.9456 374.403
L85.392 376.207
L85.8384 378.588
L86.2848 372.94
L86.7312 373.353
L87.624 376.823
L88.0704 376.148
L88.5168 371.253
L88.9632 373.186
L89.4096 374.324
L89.856 373.673
L90.3024 375.702
L90.7488 374.458
L91.1952 378.567
L91.6416 377.318
L92.088 376.923
L92.5344 375.008
L92.9808 374.984
L93.8736 377.287
L94.32 374.711
L94.7664 375.696
L95.2128 376.079
L95.6592 375.502
L96.1056 376.81
L96.552 375.236
L96.9984 378.128
L97.4448 369.144
L97.8912 374.341
L98.3376 375.089
L98.784 376.146
L99.2304 373.939
L99.6768 377.828
L100.123 374.579
L100.57 373.93
L101.016 373.958
L101.462 375.945
L101.909 374.406
L102.355 371.543
L102.802 376.761
L103.248 375.038
L103.694 376.968
L104.587 375.703
L105.034 376.763
L105.48 375.418
L105.926 377.043
L106.373 376.174
L106.819 376.031
L107.266 376.682
L107.712 376.446
L108.158 376.06
L108.605 374.641
L109.051 376.585
L109.498 371.662
L109.944 378.859
L110.39 375.799
L110.837 376.098
L111.283 371.893
L111.73 375.904
L112.176 375.309
L112.622 375.52
L113.069 374.153
L113.515 374.985
L113.962 375.544
L114.408 375.651
L114.854 375.576
L115.301 376.074
L115.747 375.548
L116.194 375.56
L116.64 376.859
L117.086 374.972
L117.533 376.301
L117.979 375.149
L118.426 377.758
L118.872 375.967
L119.318 367.251
L119.765 378.401
L120.211 371.953
L120.658 372.565
L121.104 374.414
L121.55 374.631
L121.997 376.705
L122.443 375.495
L122.89 376.218
L123.336 374.641
L123.782 375.039
L124.229 376.897
L124.675 376.072
L125.122 373.711
L126.014 377.303
L126.461 374.988
L126.907 376.822
L127.354 375.912
L127.8 376.779
L128.246 376.789
L128.693 376.196
L129.139 372.087
L129.586 369.673
L130.032 372.661
L130.478 376.891
L130.925 378.268
L131.371 371.61
L131.818 368.202
L132.264 377.816
L132.71 375.996
L133.157 375.687
L133.603 374.317
L134.05 376.9
L134.942 374.674
L135.389 375.562
L135.835 374.414
L136.282 376.048
L136.728 376.426
L137.174 375.746
L137.621 375.579
L138.067 376.794
L138.514 374.917
L138.96 372.203
L139.406 375.809
L139.853 373.899
L140.299 377.402
L140.746 376.114
L141.192 371.417
L141.638 372.374
L142.085 372.762
L142.531 376.51
L142.978 374.716
L143.87 375.795
L144.763 374.485
L145.21 374.879
L145.656 374.55
L146.102 376.761
L146.995 375.674
L147.442 373.568
L148.334 376.296
L148.781 376.109
L149.227 374.875
L149.674 375.076
L150.12 377.016
L150.566 378.023
L151.013 367.847
L151.459 375
L151.906 376.591
L152.352 376.025
L152.798 374.611
L153.245 376.611
L153.691 374.068
L154.138 376.925
L155.03 375.198
L155.477 374.574
L155.923 376.853
L156.37 374.766
L156.816 375.395
L157.709 374.703
L158.155 376.337
L158.602 375.274
L159.048 376.287
L159.494 375.534
L159.941 376.904
L160.387 375.299
L160.834 376.616
L161.28 371.579
L161.726 377.848
L162.173 374.939
L162.619 376.497
L163.066 375.825
L163.512 376.087
L163.958 376.629
L164.851 375.221
L165.298 372.963
L165.744 376.378
L166.19 375.278
L166.637 375.231
L167.083 374.843
L167.53 374.955
L167.976 373.414
L168.422 376.041
L168.869 377.062
L169.315 374.09
L169.762 376.614
L170.208 375.455
L170.654 376.006
L171.101 371.998
L171.547 376.617
L171.994 375.418
L172.44 375.568
L172.886 375.06
L173.333 375.767
L173.779 375.744
L174.226 376.756
L175.118 374.931
L175.565 373.649
L176.458 376.823
L176.904 376.29
L177.35 376.567
L177.797 374.718
L178.243 376.428
L178.69 377.499
L179.136 375.345
L179.582 375.405
L180.029 375.904
L180.475 377.13
L180.922 375.394
L181.368 376.301
L181.814 374.793
L182.261 376.529
L183.154 373.015
L183.6 374.341
L184.046 367.426
L184.493 372.579
L184.939 374.635
L185.386 374.902
L185.832 376.358
L186.278 376.334
L186.725 375.933
L187.171 375.929
L187.618 375.352
L188.064 375.854
L188.51 376.821
L188.957 377.242
L189.403 375.672
L189.85 375.959
L190.296 376.721
L190.742 375.675
L191.189 375.397
L191.635 376.714
L192.082 375.354
L192.528 375.652
L192.974 375.686
L193.421 376.913
L193.867 375.087
L194.314 373.732
L194.76 375.431
L195.206 375.968
L195.653 374.992
L196.099 376.853
L196.546 377.516
L196.992 376.411
L197.438 376.102
L197.885 374.272
L198.331 375.946
L198.778 376.74
L199.224 376.591
L200.117 373.816
L200.563 375.826
L201.01 375.733
L201.456 377.041
L201.902 375.259
L202.349 377.583
L202.795 375.919
L203.242 376.067
L203.688 374.944
L204.134 376.395
L204.581 371.721
L205.027 377.553
L205.474 376.529
L205.92 375.923
L206.366 376.771
L206.813 374.404
L207.259 375.896
L207.706 375.165
L208.152 375.405
L208.598 376.706
L209.045 376.015
L209.491 375.86
L209.938 375.447
L210.384 375.904
L210.83 375.773
L211.277 375.341
L211.723 375.69
L212.17 375.611
L212.616 376.8
L213.062 375.488
L213.509 376.37
L213.955 373.987
L214.402 377.315
L215.294 375.579
L215.741 371.908
L216.187 375.868
L216.634 375.502
L217.526 377.031
L217.973 376.207
L218.419 376.59
L218.866 375.199
L219.312 376.601
L219.758 375.626
L220.205 375.853
L220.651 375.309
L221.098 375.443
L221.544 376.632
L221.99 375.234
L222.437 376.175
L223.33 377.44
L223.776 372.605
L224.222 374.627
L224.669 374.123
L225.115 376.582
L225.562 377.08
L226.008 375.687
L226.454 372.614
L226.901 377.93
L227.347 376.629
L227.794 374.846
L228.24 376.213
L228.686 375.894
L229.133 375.001
L229.579 376.765
L230.026 375.362
L230.472 377.07
L231.365 375.505
L231.811 375.157
L232.258 376.203
L232.704 376.087
L233.15 376.859
L233.597 375.154
L234.043 375.042
L234.49 377.145
L234.936 375.942
L235.382 375.281
L235.829 376.815
L236.275 376.182
L236.722 376.378
L237.168 374.193
L237.614 376.428
L238.061 373.41
L238.507 374.212
L238.954 375.789
L239.4 375.121
L239.846 373.46
L240.739 377.546
L241.186 375.576
L241.632 376.941
L242.078 375.081
L242.525 377.206
L242.971 377.056
L243.418 375.567
L243.864 374.965
L244.31 374.876
L244.757 376.159
L245.203 376.595
L245.65 376.119
L246.096 376.008
L246.542 372.962
L246.989 379.065
L247.435 375.43
L247.882 372.73
L248.328 376.45
L248.774 376.088
L249.221 375.09
L249.667 377.254
L250.114 375.627
L250.56 377.584
L251.453 375.755
L252.346 375.889
L252.792 377.061
L253.238 376.428
L253.685 376.748
L254.578 375.84
L255.024 373.915
L255.47 376.965
L255.917 375.016
L256.363 375.676
L256.81 377.515
L257.256 376.902
L257.702 375.84
L258.149 376.899
L258.595 375.8
L259.042 373.603
L259.488 376.577
L259.934 375.589
L260.381 375.18
L260.827 376.44
L261.274 376.174
L262.166 376.258
L262.613 376.103
L263.059 375.825
L263.506 375.401
L263.952 375.788
L264.398 374.941
L264.845 376.14
L265.291 375.574
L265.738 373.527
L266.184 377.033
L266.63 375.033
L267.077 376.362
L267.523 375.273
L267.97 377.157
L268.416 376.475
L268.862 376.985
L269.755 374.177
L270.202 369.403
L270.648 377.823
L271.094 373.195
L271.541 375.047
L271.987 375.222
L272.434 375.137
L272.88 373.003
L273.326 375.719
L273.773 377.351
L274.219 375.517
L274.666 376.675
L275.112 376.289
L275.558 376.494
L276.005 375.561
L276.451 376.346
L276.898 376.122
L277.344 375.601
L277.79 376.47
L278.237 376.763
L278.683 375.845
L279.13 375.793
L279.576 376.175
L280.022 374.836
L280.469 374.587
L280.915 376.107
L281.362 370.364
L281.808 376.934
L282.254 375.458
L282.701 376.982
L283.147 376.295
L283.594 376.495
L284.04 374.149
L284.486 376.113
L284.933 376.241
L285.379 376.909
L285.826 375.753
L286.272 376.833
L286.718 376.084
L287.165 376
L287.611 375.593
L288.058 374.916
L288.504 374.676
L288.95 376.658
L289.397 375.248
L289.843 375.463
L290.29 374.244
L290.736 375.757
L291.182 374.163
L291.629 376.713
L292.075 375.839
L292.522 376.686
L292.968 371.971
L293.414 376.882
L293.861 372.313
L294.307 375.901
L294.754 375.965
L295.2 375.2
L295.646 375.869
L296.093 373.885
L296.539 375.905
L296.986 377.044
L297.432 376.233
L297.878 375.756
L298.325 375.752
L298.771 376.636
L300.11 375.638
L300.557 374.935
L301.003 376.426
L301.45 376.888
L301.896 375.272
L302.342 375.935
L302.789 375.327
L303.235 376.354
L303.682 375.31
L304.128 377.119
L304.574 376.745
L305.021 372.962
L305.467 378.003
L305.914 374.897
L306.36 367.171
L306.806 375.179
L307.253 376.504
L307.699 372.947
L308.146 372.224
L308.592 376.43
L309.485 375.535
L309.931 372.037
L310.378 377.044
L310.824 375.925
L311.27 376.91
L311.717 375.415
L312.61 377.443
L313.056 376.145
L313.502 375.4
L313.949 376.115
L314.395 375.246
L314.842 376.031
L315.288 375.412
L315.734 375.339
L316.627 376.234
L317.074 377.113
L317.52 375.376
L317.966 372.263
L318.413 377.366
L318.859 374.913
L319.306 376.779
L319.752 374.322
L320.198 375.822
L320.645 379.006
L321.091 372.774
L321.538 374.634
L321.984 374.988
L322.43 373.537
L322.877 376.706
L323.323 375.668
L323.77 374.929
L324.216 374.533
L325.109 376.744
L325.555 376.011
L326.448 375.529
L326.894 377.443
L327.341 375.234
L327.787 376.079
L328.234 375.478
L328.68 376.081
L329.126 376.175
L329.573 375.947
L330.019 373.156
L330.466 376.654
L330.912 376.888
L331.358 376.466
L331.805 374.869
L332.251 374.404
L332.698 376.258
L333.144 376.73
L333.59 375.149
L334.037 376.834
L334.483 375.585
L334.93 377.599
L335.376 375.875
L335.822 376.176
L336.269 375.23
L336.715 376.573
L337.162 376.403
L337.608 375.865
L338.054 375.654
L338.501 375.07
L338.947 376.769
L339.394 376.461
L339.84 375.831
L340.286 376.808
L340.733 375.627
L341.179 375.978
L341.626 373.755
L342.072 376.928
L342.518 367.442
L342.965 377.813
L343.411 375.228
L343.858 376.009
L344.304 374.01
L344.75 377.328
L345.197 374.774
L345.643 376.73
L346.09 374.68
L346.536 376.026
L346.982 375.877
L347.429 375.354
L347.875 375.63
L348.322 375.2
L348.768 376.305
L349.214 375.247
L349.661 374.825
L350.107 378.439
L350.554 370.341
L351 375.486
L351.446 375.284
L351.893 375.922
L352.339 374.433
L352.786 374.005
L353.232 376.351
L353.678 375.385
L354.571 376.746
L355.018 376.296
L355.464 373.176
L355.91 376.649
L356.803 376.267
L357.25 374.98
L357.696 372.332
L358.142 367.743
L358.589 371.23
L359.035 375.597
L359.482 375.785
L359.928 375.107
L360.374 377.692
L361.714 374.805
L362.606 376.212
L363.053 375.337
L363.499 376.582
L363.946 375.338
L364.392 376.736
L364.838 376.427
L365.285 377.069
L365.731 374.463
L366.178 374.763
L366.624 376.402
L367.07 376.832
L367.517 375.766
L367.963 375.919
L368.41 376.694
L368.856 374.962
L369.302 379.832
L369.749 375.187
L370.195 373.965
L370.642 374.697
L371.088 372.398
L371.534 375.944
L371.981 373.787
L372.427 375.353
L372.874 376.371
L373.766 374.546
L374.213 372.942
L374.659 375.265
L375.106 375.339
L375.552 376.852
L375.998 375.935
L376.445 374.303
L376.891 376.152
L377.338 376.621
L377.784 375.276
L378.23 376.763
L378.677 375.965
L379.123 377.048
L379.57 376.417
L380.016 377.009
L380.462 375.231
L381.355 376.655
L382.248 375.255
L382.694 375.813
L383.141 377.32
L383.587 375.759
L384.034 372.212
L384.48 377.535
L385.373 375.165
L385.819 374.795
L386.266 374.245
L386.712 378.162
L387.158 375.682
L387.605 376.718
L388.051 374.678
L388.944 376.824
L389.39 376.205
L389.837 375.991
L390.283 375.232
L390.73 376.154
L391.176 375.831
L391.622 375.366
L392.069 375.847
L392.515 376.586
L392.962 375.428
L393.408 376.392
L394.301 375.317
L394.747 376.752
L395.194 377.241
L395.64 375.128
L396.086 373.717
L396.533 376.487
L396.979 376.405
L397.426 370.456
L397.872 378.184
L398.318 376.578
L398.765 376.495
L399.211 375.671
L399.658 376.802
L400.104 376.026
L400.55 375.984
L400.997 376.999
L401.443 374.358
L401.89 377.025
L402.336 375.732
L402.782 375.323
L403.229 375.431
L403.675 376.445
L404.122 376.152
L404.568 376.656
L405.014 375.111
L405.461 376.233
L405.907 375.165
L406.354 375.574
L406.8 375.774
L407.246 377.223
L407.693 374.831
L408.139 374.694
L408.586 376.156
L409.032 375.561
L409.925 375.771
L410.371 372.743
L410.818 376.909
L411.264 374.547
L411.71 376.322
L412.157 374.838
L412.603 376.577
L413.05 376.064
L413.496 376.618
L413.942 374.671
L414.389 377.376
L415.282 372.144
L415.728 376.569
L416.174 375.607
L416.621 376.326
L417.067 376.441
L417.514 376.215
L417.96 375.401
L418.406 376.702
L418.853 375.843
L419.299 375.77
L419.746 375.557
L420.192 375.18
L420.638 375.821
L421.085 375.318
L421.531 376.402
L421.978 374.776
L422.424 376.661
L422.87 375.984
L423.317 372.379
L423.763 375.057
L424.21 375.255
L424.656 371.287
L425.102 374.145
L425.549 375.146
L425.995 375.261
L426.442 376.514
L426.888 375.522
L427.334 375.625
L427.781 375.984
L428.227 376.043
L428.674 375.584
L429.12 376.507
L429.566 375.195
L430.013 375.689
L430.459 375.952
L430.906 376.467
L431.352 376.012
L431.798 373.728
L432.245 376.511
L432.691 375.876
L433.138 376.126
L433.584 375.398
L434.03 377.405
L434.477 375.978
L434.923 375.987
L435.37 373.739
L435.816 376.193
L436.709 373.704
L437.155 375.74
L437.602 373.914
L438.048 374.097
L438.494 375.994
L438.941 375.291
L439.387 376.425
L439.834 372.814
L440.28 375.673
L440.726 376.792
L441.173 376.043
L441.619 375.548
L442.066 374.023
L442.512 376.739
L442.958 376.119
L443.405 374.282
L443.851 375.818
L444.298 375.368
L444.744 375.589
L445.19 376.439
L445.637 375.646
L446.083 374.552
L446.53 375.782
L446.976 375.93
L447.422 376.576
L447.869 375.597
L448.315 376.408
L448.762 376.564
L449.208 375.136
L449.654 376.43
L450.101 373.26
L450.547 378.103
L450.994 375.161
L451.886 376.306
L452.333 374.994
L452.779 376.266
L453.226 375.921
L453.672 375.036
L454.118 373.507
L454.565 375.678
L455.458 375.595
L455.904 376.927
L456.35 375.697
L456.797 376.114
L457.243 375.71
L457.69 375.007
L458.136 374.943
L458.582 375.25
L459.029 374.378
L459.475 376.058
L459.922 376.695
L460.368 376.007
L460.814 376.447
L461.261 375.599
L461.707 376.767
L462.154 375.845
L462.6 375.878
L463.046 372.546
L463.493 376.321
L463.939 376.567
L464.386 376.278
L465.278 376.414
L465.725 375.408
L466.171 375.157
L466.618 376.97
L467.064 376.154
L467.51 375.82
L467.957 376.214
L468.403 375.878
L468.85 376.329
L469.296 375.716
L469.742 376.232
L470.189 375.714
L470.635 375.781
L471.082 376.764
L471.528 375.185
L471.974 376.628
L472.421 375.096
L472.867 376.591
L473.314 374.51
L473.76 374.451
L474.206 376.567
L475.099 374.347
L475.546 376.105
L475.992 376.373
L476.438 372.605
L476.885 379.033
L477.331 375.537
L477.778 375.951
L478.224 375.078
L478.67 376.671
L479.117 376.234
L479.563 375.426
L480.01 377.006
L480.456 376.197
L480.902 376.372
L481.349 376.387
L481.795 376.62
L482.242 374.281
L482.688 372.602
L483.134 378.858
L483.581 375.782
L484.027 376.636
L484.474 375.304
L484.92 377.712
L485.366 375.664
L485.813 375.411
L486.259 375.374
L486.706 376.15
L487.152 377.272
L487.598 374.82
L488.045 375.712
L488.491 375.324
L488.938 376.189
L489.384 373.424
L489.83 377.433
L490.277 375.317
L490.723 375.584
L491.17 376.594
L491.616 374.912
L492.062 375.221
L492.509 374.467
L492.955 376.693
L493.402 376.74
L493.848 375.538
L494.294 375.574
L494.741 375.199
L495.187 376.377
L495.634 375.493
L496.08 377.126
L496.526 375.254
L496.973 376.67
L497.419 376.035
L497.866 375.13
L498.312 376.718
L498.758 375.937
L499.205 377.038
L499.651 375.448
L500.098 376.401
L500.544 375.788
L500.99 377.024
L501.437 376.711
L501.883 375.319
L502.33 371.687
L502.776 377.56
L503.222 376.12
L503.669 375.168
L504.115 375.384
L504.562 376.071
L505.008 377.119
L505.454 376.691
L505.901 375.394
L506.347 375.641
L506.794 376.205
L507.24 376.04
L507.686 374.014
L508.133 375.805
L508.579 375.393
L509.026 375.643
L509.472 376.314
L509.918 373.556
L510.365 375.553
L510.811 376.751
L511.258 375.562
L511.704 375.049
L512.15 370.199
L512.597 374.034
L513.49 375.675
L513.936 373.932
L514.382 372.867
L514.829 377.61
L515.722 374.685
L516.168 376.631
L516.614 376
L517.061 376.326
L517.507 376.454
L517.954 374.759
L517.954 374.759" style="fill:none;opacity:0.5;stroke:#ffa500;"/>
   </g>
   <g id="line2d_4">
    <path clip-path="url(#p7ff5b81e1d)" d="
M72 339.534
L72.4464 333.938
L72.8928 331.616
L73.3392 352.422
L73.7856 330.874
L74.232 347.08
L74.6784 357.383
L75.5712 370.175
L76.0176 346.687
L76.464 367.144
L76.9104 358.875
L77.3568 368.506
L77.8032 354.455
L78.2496 358.161
L78.696 363.065
L79.1424 366.287
L79.5888 362.981
L80.0352 355.576
L80.4816 368.78
L80.928 362.348
L81.3744 333.319
L81.8208 323.39
L82.2672 327.403
L82.7136 327.398
L83.16 342.195
L83.6064 351.452
L84.0528 354.84
L84.4992 349.381
L84.9456 365.872
L85.392 348.318
L85.8384 321.35
L86.2848 352.523
L86.7312 374.123
L87.1776 378.616
L87.624 372.015
L88.0704 372.362
L88.5168 374.528
L88.9632 373.979
L89.4096 376.346
L89.856 372.726
L90.3024 376.563
L90.7488 374.709
L91.1952 375.069
L91.6416 375.982
L92.088 375.151
L92.5344 376.588
L92.9808 374.772
L93.4272 375.755
L93.8736 375.311
L94.32 374.08
L94.7664 374.493
L95.6592 369.946
L96.1056 373.755
L96.552 371.039
L96.9984 371.634
L97.4448 373.422
L97.8912 373.412
L98.3376 375.089
L98.784 370.575
L99.2304 375.154
L99.6768 374.493
L100.123 372.616
L100.57 374.512
L101.016 368.582
L101.462 376.226
L101.909 368.312
L102.355 372.974
L102.802 371.447
L103.248 373.805
L103.694 370.749
L104.141 374.727
L104.587 370.284
L105.034 369.734
L105.48 372.282
L105.926 365.671
L106.373 374.188
L106.819 366.362
L107.266 352.751
L107.712 367.538
L108.158 356.131
L108.605 364.592
L109.051 369.9
L109.498 369.589
L109.944 355.414
L110.39 376.313
L110.837 371.342
L111.283 369.696
L111.73 372.951
L112.176 368.506
L112.622 367.334
L113.069 364.782
L113.515 377.048
L113.962 371.434
L114.408 373.195
L114.854 371.571
L115.301 372.885
L115.747 373.64
L116.194 372.363
L116.64 367.913
L117.086 377.47
L117.533 366.896
L117.979 373.559
L118.426 373.15
L119.318 375.016
L119.765 372.813
L120.211 374.66
L120.658 370.366
L121.104 375.407
L121.55 376.12
L121.997 373.382
L122.443 374.997
L122.89 375.631
L123.336 374.7
L123.782 375.913
L124.229 374.594
L124.675 374.109
L125.122 374.783
L125.568 372.039
L126.014 375.139
L126.461 375.058
L126.907 375.191
L127.354 373.374
L127.8 373.608
L128.246 375.584
L128.693 372.446
L129.139 375.04
L129.586 372.893
L130.032 375.342
L130.478 373.392
L130.925 373.255
L131.371 378.512
L131.818 373.642
L132.264 376.929
L132.71 376.746
L133.157 377.333
L133.603 378.158
L134.05 377.98
L134.496 377.309
L135.389 379.171
L135.835 376.17
L136.282 378.319
L136.728 375.201
L137.174 380.13
L137.621 376.528
L138.067 379.722
L138.96 375.48
L139.406 379.137
L139.853 376.028
L140.299 380.917
L140.746 372.218
L141.192 378.333
L141.638 378.451
L142.085 377.401
L142.531 378.519
L142.978 377.841
L143.424 371.648
L143.87 379.437
L144.317 371.717
L144.763 379.477
L145.21 377.242
L145.656 378.574
L146.102 379.254
L146.549 375.593
L146.995 377.54
L147.888 379.072
L148.334 379.213
L148.781 378.059
L149.227 379.2
L149.674 375.402
L150.12 379.07
L150.566 370.092
L151.013 380.215
L151.459 378.28
L151.906 379.038
L152.352 379.059
L152.798 378.339
L153.245 369.899
L153.691 373.801
L154.138 371.749
L154.584 372.84
L155.03 376.11
L155.477 374.563
L155.923 375.557
L156.37 375.399
L156.816 375.808
L157.262 374.87
L157.709 375.212
L158.155 375.369
L158.602 379.151
L159.494 378.945
L159.941 377.916
L160.387 379.746
L160.834 378.862
L161.28 379.236
L161.726 379.194
L162.173 377.822
L162.619 380.451
L163.066 378.974
L163.958 380.101
L164.405 379.577
L164.851 375.945
L165.298 378.78
L165.744 378.384
L166.19 373.728
L166.637 380.366
L167.083 374.243
L167.976 378.066
L168.422 377.643
L168.869 378.289
L169.315 379.424
L169.762 379.423
L170.654 378.576
L171.101 379.733
L171.547 377.509
L171.994 378.211
L172.44 379.692
L172.886 379.141
L173.333 377.359
L173.779 378.615
L174.226 375.109
L174.672 380.964
L175.118 379.426
L175.565 378.983
L176.011 379.473
L176.458 380.579
L177.35 377.342
L177.797 380.272
L178.243 375.293
L178.69 378.079
L179.136 377.853
L179.582 378.535
L180.029 378.976
L180.475 374.99
L180.922 376.242
L181.368 370.979
L181.814 373.349
L182.261 366.384
L182.707 376.211
L183.154 374.18
L183.6 372.939
L184.046 372.339
L184.493 374.793
L184.939 375.248
L185.386 378.989
L185.832 378.396
L186.278 379.515
L186.725 377.454
L187.171 378.212
L187.618 378.007
L188.064 379.235
L188.51 378.874
L188.957 379.116
L189.403 378.146
L189.85 379.496
L190.296 377.284
L190.742 375.904
L191.189 380.262
L192.082 377.632
L192.528 379.532
L192.974 378.677
L193.421 379.052
L193.867 376.953
L194.314 379.98
L194.76 373.94
L195.206 379
L195.653 378.438
L196.099 377.56
L196.546 377.669
L196.992 379.007
L197.438 378.504
L198.331 375.083
L198.778 377.919
L199.224 377.417
L199.67 378.324
L200.117 373.036
L200.563 380.963
L201.456 376.433
L201.902 380.521
L202.349 379.282
L202.795 378.662
L203.242 378.245
L203.688 379.68
L204.134 377.261
L204.581 378.861
L205.027 376.67
L205.474 379.511
L205.92 378.663
L206.366 379.114
L206.813 378.76
L207.259 378.838
L207.706 375.093
L208.152 375.385
L208.598 376.511
L209.045 375.455
L209.491 375.092
L209.938 371.291
L210.384 376.858
L210.83 375.5
L211.277 375.088
L211.723 379.023
L212.616 378.833
L213.062 377.434
L213.509 378.395
L213.955 378.176
L214.402 379.741
L215.294 373.338
L215.741 380.01
L216.187 374.535
L216.634 379.41
L217.08 378
L217.973 378.806
L218.419 379.662
L218.866 377.611
L219.312 379.582
L219.758 378.344
L220.205 378.91
L220.651 378.152
L221.098 379.565
L221.544 379.061
L221.99 379.228
L222.437 377.209
L222.883 376.923
L223.33 376.817
L223.776 379.079
L224.222 376.24
L224.669 380.915
L225.115 378.029
L225.562 379.231
L226.008 379.315
L226.454 376.751
L226.901 378.786
L227.347 375.862
L228.24 378.556
L228.686 378.557
L229.133 379.01
L229.579 376.857
L230.026 377.364
L230.472 380.132
L230.918 378.92
L231.365 380.222
L231.811 379.289
L232.258 378.064
L232.704 378.779
L233.15 378.587
L233.597 377.54
L234.043 373.954
L234.49 374.954
L234.936 376.576
L235.382 373.34
L235.829 375.859
L236.722 375.097
L237.168 378.908
L237.614 378.796
L238.061 376.376
L238.507 375.065
L238.954 374.461
L239.4 376.693
L240.293 374.652
L240.739 376.48
L241.186 374.818
L241.632 373.913
L242.078 379.024
L242.525 377.362
L242.971 379.877
L243.418 379.059
L243.864 379.018
L244.31 379.616
L244.757 379.105
L245.203 374.266
L245.65 380.208
L246.096 375.424
L246.542 375.842
L246.989 379.29
L247.435 379.208
L247.882 378.589
L248.328 378.957
L249.221 378.788
L249.667 379.197
L250.114 377.945
L250.56 379.963
L251.006 379.942
L251.453 380.177
L251.899 379.465
L252.346 379.53
L252.792 379.448
L253.238 380.197
L253.685 379.273
L254.131 380.053
L254.578 377.208
L255.024 378.779
L255.47 375.963
L255.917 381.396
L256.363 378.873
L256.81 377.756
L257.256 378.704
L257.702 378.592
L258.149 376.599
L258.595 379.498
L259.042 374.774
L259.488 378.661
L259.934 377.822
L260.381 378.717
L260.827 378.531
L261.274 378.094
L261.72 377.88
L262.166 376.542
L262.613 379.545
L263.059 378.794
L263.506 380.466
L263.952 378.964
L264.398 373.935
L264.845 378.619
L265.291 378.739
L265.738 376.327
L266.184 380.056
L266.63 370.741
L267.077 379.206
L267.523 378.959
L267.97 379.713
L268.416 377.813
L268.862 379.581
L269.309 378.879
L269.755 372.82
L270.202 380.038
L270.648 376.724
L271.094 378.028
L271.541 377.414
L271.987 377.781
L272.434 379.61
L272.88 379.417
L273.326 377.511
L273.773 379.926
L274.219 379.635
L274.666 378.389
L275.112 379.225
L275.558 378.578
L276.005 380.046
L276.451 376.727
L276.898 378.976
L277.344 374.131
L277.79 377.269
L278.237 377.258
L278.683 371.553
L279.13 378.007
L279.576 376.101
L280.022 378.241
L280.469 377.337
L280.915 378.601
L281.808 378.85
L282.254 379.083
L282.701 377.753
L283.147 378.712
L283.594 375.6
L284.04 377.962
L284.486 374.708
L284.933 378.41
L285.379 378.383
L285.826 378.732
L286.272 379.508
L286.718 378.291
L287.165 369.814
L287.611 378.423
L288.058 372.544
L288.504 374.463
L288.95 374.804
L289.397 368.144
L289.843 377.392
L290.29 371.56
L290.736 374.703
L291.182 373.968
L291.629 374.628
L292.075 374.82
L292.522 375.745
L292.968 375.183
L293.414 376.095
L293.861 375.39
L294.307 380.505
L294.754 379.439
L295.2 379.171
L295.646 379.228
L296.093 377.549
L296.539 379.464
L296.986 378.54
L297.432 379.006
L297.878 379.213
L298.325 376.357
L298.771 378.524
L299.218 374.161
L299.664 376.976
L300.11 372.579
L300.557 380.398
L301.003 378.963
L301.45 378.857
L301.896 379.995
L302.342 379.516
L302.789 377.319
L303.235 378.363
L303.682 373.66
L304.128 377.766
L304.574 377.455
L305.021 378.163
L305.467 379.635
L306.36 376.469
L306.806 379.729
L307.253 379.751
L307.699 379.338
L308.146 379.133
L308.592 378.456
L309.038 379.352
L309.485 378.43
L309.931 375.74
L310.378 380.033
L310.824 369.283
L311.27 379.459
L311.717 379.808
L312.163 379.406
L312.61 377.737
L313.056 379.573
L313.502 380.221
L313.949 377.647
L314.395 378.945
L314.842 379.009
L315.288 378.446
L316.181 378.874
L316.627 373.649
L317.074 374.288
L317.52 376.279
L317.966 371.792
L318.413 375.265
L318.859 375.965
L319.306 374.685
L319.752 374.856
L320.198 378.25
L321.091 378.662
L321.538 375.637
L321.984 381.5
L322.43 378.381
L322.877 378.611
L323.323 374.146
L323.77 378.44
L324.216 378.986
L324.662 377.783
L325.109 378.14
L325.555 378.001
L326.002 377.733
L326.448 376.647
L326.894 376.482
L327.341 380.67
L327.787 379.412
L328.68 378.368
L329.126 379.541
L329.573 379.464
L330.019 379.698
L330.466 376.474
L330.912 379.973
L331.358 376.11
L331.805 377.227
L332.251 377.617
L332.698 378.32
L333.144 378.693
L333.59 378.898
L334.037 378.397
L334.483 376.945
L334.93 370.843
L335.376 379.356
L335.822 377.143
L336.269 377.343
L336.715 378.658
L337.162 377.066
L337.608 376.655
L338.054 378.126
L338.501 378.423
L338.947 379.469
L339.394 379.963
L340.286 378.773
L340.733 379.583
L341.179 378.924
L341.626 378.854
L342.072 378.28
L342.518 375.537
L342.965 377.128
L343.411 375.162
L343.858 375.193
L344.304 376.471
L345.197 374.358
L345.643 379.606
L346.09 375.264
L346.536 374.734
L346.982 374.855
L347.429 373.737
L347.875 377.344
L348.322 374.573
L348.768 377.264
L349.214 376.438
L349.661 379.066
L350.107 379.395
L350.554 378.685
L351 378.837
L351.446 375.796
L351.893 379.676
L352.339 374.703
L352.786 377.806
L353.678 378.497
L354.125 379.235
L354.571 378.317
L355.018 376.766
L355.464 375.907
L355.91 376.198
L356.357 377.474
L356.803 377.661
L357.25 377.406
L357.696 378.764
L358.142 379.706
L358.589 377.879
L359.035 379.58
L359.482 375.631
L359.928 382.577
L360.374 377.534
L360.821 379.686
L361.267 378.229
L361.714 378.185
L362.16 375.904
L362.606 379.377
L363.053 375.496
L363.499 375.65
L363.946 380.162
L364.392 377.501
L364.838 379.343
L365.285 377.025
L365.731 378.794
L366.178 379.819
L366.624 377.961
L367.07 379.885
L367.517 374.593
L367.963 372.415
L368.41 379.03
L368.856 377.974
L369.302 377.406
L369.749 378.079
L370.195 375.322
L370.642 378.443
L371.534 374.48
L371.981 379.254
L372.427 373.979
L372.874 373.668
L373.32 375.224
L374.213 374.155
L374.659 375.879
L375.106 375.548
L375.552 378.688
L375.998 378.416
L376.445 378.999
L377.338 379.446
L377.784 377.833
L378.23 379.815
L378.677 377.207
L379.123 379.58
L379.57 378.266
L380.016 379.641
L380.462 379.46
L381.355 378.714
L381.802 378.639
L382.248 378.214
L382.694 379.615
L383.141 375.047
L383.587 381.649
L384.034 378.295
L384.48 379.092
L384.926 379.343
L385.373 378.316
L385.819 378.872
L386.266 374.665
L386.712 380.114
L387.158 374.558
L387.605 376.963
L388.051 377.831
L388.498 379.403
L388.944 377.656
L389.39 379.116
L389.837 379.045
L390.283 379.576
L390.73 378.142
L391.176 378.805
L391.622 378.876
L392.069 379.433
L392.515 378.514
L392.962 379.093
L393.408 378.807
L393.854 379.045
L394.301 377.382
L394.747 376.516
L395.194 381.762
L395.64 374.86
L396.086 377.329
L396.533 378.81
L396.979 377.653
L397.426 377.87
L397.872 376.702
L398.318 379.072
L398.765 378.99
L399.211 379.67
L399.658 379.714
L400.104 378.854
L400.55 380.158
L400.997 378.137
L401.443 380.199
L402.336 378.851
L402.782 379.11
L403.229 378.582
L403.675 379.052
L404.122 378.442
L404.568 378.236
L405.014 378.336
L405.461 379.921
L405.907 379.053
L406.354 379.794
L406.8 379.307
L407.246 378.503
L407.693 380.149
L408.139 378.419
L408.586 378.997
L409.032 374.566
L409.478 379.815
L409.925 368.606
L410.371 381.163
L410.818 375.784
L411.264 377.734
L411.71 378.941
L412.157 377.971
L412.603 378.626
L413.05 378.721
L413.496 379.578
L413.942 379.525
L414.389 378.308
L414.835 379.775
L415.282 378.729
L415.728 379.62
L416.174 377.748
L416.621 377.152
L417.067 377.423
L417.514 372.675
L417.96 376.525
L418.406 377.726
L418.853 379.541
L419.299 378.063
L420.192 378.92
L420.638 375.507
L421.085 375.001
L421.531 370.218
L421.978 376.65
L422.424 372.539
L423.317 375.499
L423.763 374.781
L424.21 379.011
L424.656 379.048
L425.102 379.616
L425.995 377.972
L426.442 379.263
L426.888 376.936
L427.334 375.317
L427.781 375.193
L428.227 378.94
L428.674 376.861
L429.12 377.623
L429.566 379.938
L430.906 375.785
L431.352 376.77
L431.798 376.702
L432.245 378.741
L432.691 378.777
L433.138 378.629
L433.584 380.046
L434.03 378.208
L434.477 378.98
L434.923 378.673
L435.37 379.262
L435.816 379.501
L436.262 373.857
L436.709 381.233
L437.155 380.432
L437.602 374.602
L438.048 381.24
L438.494 379.284
L438.941 378.58
L439.387 379.991
L439.834 378.018
L440.28 379.779
L441.173 379.111
L441.619 375.6
L442.066 379.601
L442.512 374.341
L442.958 377.176
L443.405 378.282
L443.851 378.472
L444.298 378.344
L444.744 378.846
L445.19 379.823
L445.637 377.086
L446.083 379.143
L446.53 374.999
L446.976 376.991
L447.422 375.347
L447.869 370.524
L448.315 377.812
L448.762 371.054
L449.208 372.024
L449.654 378.549
L450.101 374.227
L450.547 375.472
L450.994 377.05
L451.44 373.612
L452.333 377.382
L452.779 375.75
L453.672 381.182
L454.118 374.871
L454.565 378.163
L455.011 377.264
L455.458 381.877
L455.904 378.423
L456.35 378.673
L456.797 378.77
L457.243 378.752
L457.69 379.269
L458.136 378.798
L458.582 376.505
L459.029 378.777
L459.475 370.157
L459.922 381.892
L460.368 375.16
L460.814 378.239
L461.261 378.503
L462.154 378.422
L462.6 378.125
L463.046 379.091
L463.493 378.346
L463.939 379.293
L464.832 378.884
L465.278 378.613
L465.725 375.609
L466.171 380.618
L466.618 374.439
L467.064 377.723
L467.957 378.691
L468.403 378.723
L468.85 378.881
L469.296 379.172
L469.742 378.392
L470.189 379.572
L470.635 379.254
L471.082 379.772
L471.528 375.3
L471.974 380.318
L472.421 378.495
L472.867 378.582
L473.314 378.261
L473.76 374.861
L474.206 380.126
L474.653 372.031
L475.099 378.425
L475.546 374.543
L475.992 374.182
L476.438 375.559
L476.885 373.355
L477.331 375.964
L477.778 374.902
L478.224 378.663
L478.67 375.161
L479.117 379.948
L479.563 375.217
L480.01 376.03
L480.456 381.742
L480.902 374.298
L481.349 376.298
L481.795 378.952
L482.242 378.557
L482.688 375.058
L483.134 375.692
L483.581 380.787
L484.027 376.487
L484.474 378.914
L484.92 379.916
L485.366 379.796
L485.813 378.335
L486.259 378.795
L486.706 377.666
L487.598 379.486
L488.045 379.243
L488.491 378.623
L488.938 378.699
L489.384 379.998
L490.277 375.443
L490.723 379.342
L491.17 374.532
L491.616 377.529
L492.062 377.473
L492.509 379.769
L492.955 378.419
L493.402 378.472
L493.848 379.738
L494.294 378.39
L494.741 375.999
L495.187 381.233
L495.634 378.565
L496.08 379.004
L496.526 378.044
L496.973 379.908
L497.419 379.512
L497.866 378.487
L498.312 379.632
L498.758 379.099
L499.205 379.514
L499.651 379.181
L500.098 378.021
L500.544 375.344
L500.99 375.055
L501.437 375.38
L501.883 375.568
L502.33 378.216
L502.776 372.109
L503.222 375.67
L503.669 373.917
L504.115 379.541
L504.562 375.434
L505.008 376.387
L505.454 375.712
L505.901 375.816
L506.347 368.078
L506.794 375.665
L507.24 375.859
L507.686 378.84
L508.133 378.295
L509.026 378.45
L509.472 380.069
L509.918 377.701
L510.365 379.924
L510.811 376.809
L511.258 377.635
L511.704 376.3
L512.15 377.712
L512.597 378.609
L513.043 378.082
L513.49 379.26
L513.936 377.386
L514.382 377.651
L514.829 377.534
L515.275 377.855
L515.722 375.647
L516.168 377.505
L516.614 377.891
L517.061 378.75
L517.507 378.815
L517.954 378.757
L517.954 378.757" style="fill:none;opacity:0.5;stroke:#0000ff;"/>
   </g>
   <g id="matplotlib.axis_1">
    <g id="xtick_1">
     <g id="line2d_5">
      <path clip-path="url(#p7ff5b81e1d)" d="
M72 388.8
L72 43.2" style="fill:none;stroke:#000000;stroke-dasharray:1.000000,3.000000;stroke-dashoffset:0.0;stroke-linecap:butt;stroke-width:0.5;"/>
     </g>
     <g id="line2d_6">
      <defs>
       <path d="
M0 0
L0 -4" id="m0012dd4eef" style="stroke:#000000;stroke-linecap:butt;stroke-width:0.5;"/>
      </defs>
      <g>
       <use style="stroke:#000000;stroke-linecap:butt;stroke-width:0.5;" x="72.0" xlink:href="#m0012dd4eef" y="388.8"/>
      </g>
     </g>
     <g id="line2d_7">
      <defs>
       <path d="
M0 0
L0 4" id="m476344969c" style="stroke:#000000;stroke-linecap:butt;stroke-width:0.5;"/>
      </defs>
      <g>
       <use style="stroke:#000000;stroke-linecap:butt;stroke-width:0.5;" x="72.0" xlink:href="#m476344969c" y="43.2"/>
      </g>
     </g>
     <g id="text_1">
      <!-- 0 -->
      <defs>
       <path d="
M31.7812 66.4062
Q24.1719 66.4062 20.3281 58.9062
Q16.5 51.4219 16.5 36.375
Q16.5 21.3906 20.3281 13.8906
Q24.1719 6.39062 31.7812 6.39062
Q39.4531 6.39062 43.2812 13.8906
Q47.125 21.3906 47.125 36.375
Q47.125 51.4219 43.2812 58.9062
Q39.4531 66.4062 31.7812 66.4062
M31.7812 74.2188
Q44.0469 74.2188 50.5156 64.5156
Q56.9844 54.8281 56.9844 36.375
Q56.9844 17.9688 50.5156 8.26562
Q44.0469 -1.42188 31.7812 -1.42188
Q19.5312 -1.42188 13.0625 8.26562
Q6.59375 17.9688 6.59375 36.375
Q6.59375 54.8281 13.0625 64.5156
Q19.5312 74.2188 31.7812 74.2188" id="BitstreamVeraSans-Roman-30"/>
      </defs>
      <g transform="translate(68.9765625 401.70625)scale(0.12 -0.12)">
       <use xlink:href="#BitstreamVeraSans-Roman-30"/>
      </g>
     </g>
    </g>
    <g id="xtick_2">
     <g id="line2d_8">
      <path clip-path="url(#p7ff5b81e1d)" d="
M116.64 388.8
L116.64 43.2" style="fill:none;stroke:#000000;stroke-dasharray:1.000000,3.000000;stroke-dashoffset:0.0;stroke-linecap:butt;stroke-width:0.5;"/>
     </g>
     <g id="line2d_9">
      <g>
       <use style="stroke:#000000;stroke-linecap:butt;stroke-width:0.5;" x="116.64" xlink:href="#m0012dd4eef" y="388.8"/>
      </g>
     </g>
     <g id="line2d_10">
      <g>
       <use style="stroke:#000000;stroke-linecap:butt;stroke-width:0.5;" x="116.64" xlink:href="#m476344969c" y="43.2"/>
      </g>
     </g>
     <g id="text_2">
      <!-- 100 -->
      <defs>
       <path d="
M12.4062 8.29688
L28.5156 8.29688
L28.5156 63.9219
L10.9844 60.4062
L10.9844 69.3906
L28.4219 72.9062
L38.2812 72.9062
L38.2812 8.29688
L54.3906 8.29688
L54.3906 0
L12.4062 0
z
" id="BitstreamVeraSans-Roman-31"/>
      </defs>
      <g transform="translate(106.245 401.70625)scale(0.12 -0.12)">
       <use xlink:href="#BitstreamVeraSans-Roman-31"/>
       <use x="63.623046875" xlink:href="#BitstreamVeraSans-Roman-30"/>
       <use x="127.24609375" xlink:href="#BitstreamVeraSans-Roman-30"/>
      </g>
     </g>
    </g>
    <g id="xtick_3">
     <g id="line2d_11">
      <path clip-path="url(#p7ff5b81e1d)" d="
M161.28 388.8
L161.28 43.2" style="fill:none;stroke:#000000;stroke-dasharray:1.000000,3.000000;stroke-dashoffset:0.0;stroke-linecap:butt;stroke-width:0.5;"/>
     </g>
     <g id="line2d_12">
      <g>
       <use style="stroke:#000000;stroke-linecap:butt;stroke-width:0.5;" x="161.28" xlink:href="#m0012dd4eef" y="388.8"/>
      </g>
     </g>
     <g id="line2d_13">
      <g>
       <use style="stroke:#000000;stroke-linecap:butt;stroke-width:0.5;" x="161.28" xlink:href="#m476344969c" y="43.2"/>
      </g>
     </g>
     <g id="text_3">
      <!-- 200 -->
      <defs>
       <path d="
M19.1875 8.29688
L53.6094 8.29688
L53.6094 0
L7.32812 0
L7.32812 8.29688
Q12.9375 14.1094 22.625 23.8906
Q32.3281 33.6875 34.8125 36.5312
Q39.5469 41.8438 41.4219 45.5312
Q43.3125 49.2188 43.3125 52.7812
Q43.3125 58.5938 39.2344 62.25
Q35.1562 65.9219 28.6094 65.9219
Q23.9688 65.9219 18.8125 64.3125
Q13.6719 62.7031 7.8125 59.4219
L7.8125 69.3906
Q13.7656 71.7812 18.9375 73
Q24.125 74.2188 28.4219 74.2188
Q39.75 74.2188 46.4844 68.5469
Q53.2188 62.8906 53.2188 53.4219
Q53.2188 48.9219 51.5312 44.8906
Q49.8594 40.875 45.4062 35.4062
Q44.1875 33.9844 37.6406 27.2188
Q31.1094 20.4531 19.1875 8.29688" id="BitstreamVeraSans-Roman-32"/>
      </defs>
      <g transform="translate(150.665625 401.70625)scale(0.12 -0.12)">
       <use xlink:href="#BitstreamVeraSans-Roman-32"/>
       <use x="63.623046875" xlink:href="#BitstreamVeraSans-Roman-30"/>
       <use x="127.24609375" xlink:href="#BitstreamVeraSans-Roman-30"/>
      </g>
     </g>
    </g>
    <g id="xtick_4">
     <g id="line2d_14">
      <path clip-path="url(#p7ff5b81e1d)" d="
M205.92 388.8
L205.92 43.2" style="fill:none;stroke:#000000;stroke-dasharray:1.000000,3.000000;stroke-dashoffset:0.0;stroke-linecap:butt;stroke-width:0.5;"/>
     </g>
     <g id="line2d_15">
      <g>
       <use style="stroke:#000000;stroke-linecap:butt;stroke-width:0.5;" x="205.92" xlink:href="#m0012dd4eef" y="388.8"/>
      </g>
     </g>
     <g id="line2d_16">
      <g>
       <use style="stroke:#000000;stroke-linecap:butt;stroke-width:0.5;" x="205.92" xlink:href="#m476344969c" y="43.2"/>
      </g>
     </g>
     <g id="text_4">
      <!-- 300 -->
      <defs>
       <path d="
M40.5781 39.3125
Q47.6562 37.7969 51.625 33
Q55.6094 28.2188 55.6094 21.1875
Q55.6094 10.4062 48.1875 4.48438
Q40.7656 -1.42188 27.0938 -1.42188
Q22.5156 -1.42188 17.6562 -0.515625
Q12.7969 0.390625 7.625 2.20312
L7.625 11.7188
Q11.7188 9.32812 16.5938 8.10938
Q21.4844 6.89062 26.8125 6.89062
Q36.0781 6.89062 40.9375 10.5469
Q45.7969 14.2031 45.7969 21.1875
Q45.7969 27.6406 41.2812 31.2656
Q36.7656 34.9062 28.7188 34.9062
L20.2188 34.9062
L20.2188 43.0156
L29.1094 43.0156
Q36.375 43.0156 40.2344 45.9219
Q44.0938 48.8281 44.0938 54.2969
Q44.0938 59.9062 40.1094 62.9062
Q36.1406 65.9219 28.7188 65.9219
Q24.6562 65.9219 20.0156 65.0312
Q15.375 64.1562 9.8125 62.3125
L9.8125 71.0938
Q15.4375 72.6562 20.3438 73.4375
Q25.25 74.2188 29.5938 74.2188
Q40.8281 74.2188 47.3594 69.1094
Q53.9062 64.0156 53.9062 55.3281
Q53.9062 49.2656 50.4375 45.0938
Q46.9688 40.9219 40.5781 39.3125" id="BitstreamVeraSans-Roman-33"/>
      </defs>
      <g transform="translate(195.3234375 401.70625)scale(0.12 -0.12)">
       <use xlink:href="#BitstreamVeraSans-Roman-33"/>
       <use x="63.623046875" xlink:href="#BitstreamVeraSans-Roman-30"/>
       <use x="127.24609375" xlink:href="#BitstreamVeraSans-Roman-30"/>
      </g>
     </g>
    </g>
    <g id="xtick_5">
     <g id="line2d_17">
      <path clip-path="url(#p7ff5b81e1d)" d="
M250.56 388.8
L250.56 43.2" style="fill:none;stroke:#000000;stroke-dasharray:1.000000,3.000000;stroke-dashoffset:0.0;stroke-linecap:butt;stroke-width:0.5;"/>
     </g>
     <g id="line2d_18">
      <g>
       <use style="stroke:#000000;stroke-linecap:butt;stroke-width:0.5;" x="250.56" xlink:href="#m0012dd4eef" y="388.8"/>
      </g>
     </g>
     <g id="line2d_19">
      <g>
       <use style="stroke:#000000;stroke-linecap:butt;stroke-width:0.5;" x="250.56" xlink:href="#m476344969c" y="43.2"/>
      </g>
     </g>
     <g id="text_5">
      <!-- 400 -->
      <defs>
       <path d="
M37.7969 64.3125
L12.8906 25.3906
L37.7969 25.3906
z

M35.2031 72.9062
L47.6094 72.9062
L47.6094 25.3906
L58.0156 25.3906
L58.0156 17.1875
L47.6094 17.1875
L47.6094 0
L37.7969 0
L37.7969 17.1875
L4.89062 17.1875
L4.89062 26.7031
z
" id="BitstreamVeraSans-Roman-34"/>
      </defs>
      <g transform="translate(239.799375 401.70625)scale(0.12 -0.12)">
       <use xlink:href="#BitstreamVeraSans-Roman-34"/>
       <use x="63.623046875" xlink:href="#BitstreamVeraSans-Roman-30"/>
       <use x="127.24609375" xlink:href="#BitstreamVeraSans-Roman-30"/>
      </g>
     </g>
    </g>
    <g id="xtick_6">
     <g id="line2d_20">
      <path clip-path="url(#p7ff5b81e1d)" d="
M295.2 388.8
L295.2 43.2" style="fill:none;stroke:#000000;stroke-dasharray:1.000000,3.000000;stroke-dashoffset:0.0;stroke-linecap:butt;stroke-width:0.5;"/>
     </g>
     <g id="line2d_21">
      <g>
       <use style="stroke:#000000;stroke-linecap:butt;stroke-width:0.5;" x="295.2" xlink:href="#m0012dd4eef" y="388.8"/>
      </g>
     </g>
     <g id="line2d_22">
      <g>
       <use style="stroke:#000000;stroke-linecap:butt;stroke-width:0.5;" x="295.2" xlink:href="#m476344969c" y="43.2"/>
      </g>
     </g>
     <g id="text_6">
      <!-- 500 -->
      <defs>
       <path d="
M10.7969 72.9062
L49.5156 72.9062
L49.5156 64.5938
L19.8281 64.5938
L19.8281 46.7344
Q21.9688 47.4688 24.1094 47.8281
Q26.2656 48.1875 28.4219 48.1875
Q40.625 48.1875 47.75 41.5
Q54.8906 34.8125 54.8906 23.3906
Q54.8906 11.625 47.5625 5.09375
Q40.2344 -1.42188 26.9062 -1.42188
Q22.3125 -1.42188 17.5469 -0.640625
Q12.7969 0.140625 7.71875 1.70312
L7.71875 11.625
Q12.1094 9.23438 16.7969 8.0625
Q21.4844 6.89062 26.7031 6.89062
Q35.1562 6.89062 40.0781 11.3281
Q45.0156 15.7656 45.0156 23.3906
Q45.0156 31 40.0781 35.4375
Q35.1562 39.8906 26.7031 39.8906
Q22.75 39.8906 18.8125 39.0156
Q14.8906 38.1406 10.7969 36.2812
z
" id="BitstreamVeraSans-Roman-35"/>
      </defs>
      <g transform="translate(284.6090625 401.70625)scale(0.12 -0.12)">
       <use xlink:href="#BitstreamVeraSans-Roman-35"/>
       <use x="63.623046875" xlink:href="#BitstreamVeraSans-Roman-30"/>
       <use x="127.24609375" xlink:href="#BitstreamVeraSans-Roman-30"/>
      </g>
     </g>
    </g>
    <g id="xtick_7">
     <g id="line2d_23">
      <path clip-path="url(#p7ff5b81e1d)" d="
M339.84 388.8
L339.84 43.2" style="fill:none;stroke:#000000;stroke-dasharray:1.000000,3.000000;stroke-dashoffset:0.0;stroke-linecap:butt;stroke-width:0.5;"/>
     </g>
     <g id="line2d_24">
      <g>
       <use style="stroke:#000000;stroke-linecap:butt;stroke-width:0.5;" x="339.84" xlink:href="#m0012dd4eef" y="388.8"/>
      </g>
     </g>
     <g id="line2d_25">
      <g>
       <use style="stroke:#000000;stroke-linecap:butt;stroke-width:0.5;" x="339.84" xlink:href="#m476344969c" y="43.2"/>
      </g>
     </g>
     <g id="text_7">
      <!-- 600 -->
      <defs>
       <path d="
M33.0156 40.375
Q26.375 40.375 22.4844 35.8281
Q18.6094 31.2969 18.6094 23.3906
Q18.6094 15.5312 22.4844 10.9531
Q26.375 6.39062 33.0156 6.39062
Q39.6562 6.39062 43.5312 10.9531
Q47.4062 15.5312 47.4062 23.3906
Q47.4062 31.2969 43.5312 35.8281
Q39.6562 40.375 33.0156 40.375
M52.5938 71.2969
L52.5938 62.3125
Q48.875 64.0625 45.0938 64.9844
Q41.3125 65.9219 37.5938 65.9219
Q27.8281 65.9219 22.6719 59.3281
Q17.5312 52.7344 16.7969 39.4062
Q19.6719 43.6562 24.0156 45.9219
Q28.375 48.1875 33.5938 48.1875
Q44.5781 48.1875 50.9531 41.5156
Q57.3281 34.8594 57.3281 23.3906
Q57.3281 12.1562 50.6875 5.35938
Q44.0469 -1.42188 33.0156 -1.42188
Q20.3594 -1.42188 13.6719 8.26562
Q6.98438 17.9688 6.98438 36.375
Q6.98438 53.6562 15.1875 63.9375
Q23.3906 74.2188 37.2031 74.2188
Q40.9219 74.2188 44.7031 73.4844
Q48.4844 72.75 52.5938 71.2969" id="BitstreamVeraSans-Roman-36"/>
      </defs>
      <g transform="translate(329.205 401.70625)scale(0.12 -0.12)">
       <use xlink:href="#BitstreamVeraSans-Roman-36"/>
       <use x="63.623046875" xlink:href="#BitstreamVeraSans-Roman-30"/>
       <use x="127.24609375" xlink:href="#BitstreamVeraSans-Roman-30"/>
      </g>
     </g>
    </g>
    <g id="xtick_8">
     <g id="line2d_26">
      <path clip-path="url(#p7ff5b81e1d)" d="
M384.48 388.8
L384.48 43.2" style="fill:none;stroke:#000000;stroke-dasharray:1.000000,3.000000;stroke-dashoffset:0.0;stroke-linecap:butt;stroke-width:0.5;"/>
     </g>
     <g id="line2d_27">
      <g>
       <use style="stroke:#000000;stroke-linecap:butt;stroke-width:0.5;" x="384.48" xlink:href="#m0012dd4eef" y="388.8"/>
      </g>
     </g>
     <g id="line2d_28">
      <g>
       <use style="stroke:#000000;stroke-linecap:butt;stroke-width:0.5;" x="384.48" xlink:href="#m476344969c" y="43.2"/>
      </g>
     </g>
     <g id="text_8">
      <!-- 700 -->
      <defs>
       <path d="
M8.20312 72.9062
L55.0781 72.9062
L55.0781 68.7031
L28.6094 0
L18.3125 0
L43.2188 64.5938
L8.20312 64.5938
z
" id="BitstreamVeraSans-Roman-37"/>
      </defs>
      <g transform="translate(373.918125 401.70625)scale(0.12 -0.12)">
       <use xlink:href="#BitstreamVeraSans-Roman-37"/>
       <use x="63.623046875" xlink:href="#BitstreamVeraSans-Roman-30"/>
       <use x="127.24609375" xlink:href="#BitstreamVeraSans-Roman-30"/>
      </g>
     </g>
    </g>
    <g id="xtick_9">
     <g id="line2d_29">
      <path clip-path="url(#p7ff5b81e1d)" d="
M429.12 388.8
L429.12 43.2" style="fill:none;stroke:#000000;stroke-dasharray:1.000000,3.000000;stroke-dashoffset:0.0;stroke-linecap:butt;stroke-width:0.5;"/>
     </g>
     <g id="line2d_30">
      <g>
       <use style="stroke:#000000;stroke-linecap:butt;stroke-width:0.5;" x="429.12" xlink:href="#m0012dd4eef" y="388.8"/>
      </g>
     </g>
     <g id="line2d_31">
      <g>
       <use style="stroke:#000000;stroke-linecap:butt;stroke-width:0.5;" x="429.12" xlink:href="#m476344969c" y="43.2"/>
      </g>
     </g>
     <g id="text_9">
      <!-- 800 -->
      <defs>
       <path d="
M31.7812 34.625
Q24.75 34.625 20.7188 30.8594
Q16.7031 27.0938 16.7031 20.5156
Q16.7031 13.9219 20.7188 10.1562
Q24.75 6.39062 31.7812 6.39062
Q38.8125 6.39062 42.8594 10.1719
Q46.9219 13.9688 46.9219 20.5156
Q46.9219 27.0938 42.8906 30.8594
Q38.875 34.625 31.7812 34.625
M21.9219 38.8125
Q15.5781 40.375 12.0312 44.7188
Q8.5 49.0781 8.5 55.3281
Q8.5 64.0625 14.7188 69.1406
Q20.9531 74.2188 31.7812 74.2188
Q42.6719 74.2188 48.875 69.1406
Q55.0781 64.0625 55.0781 55.3281
Q55.0781 49.0781 51.5312 44.7188
Q48 40.375 41.7031 38.8125
Q48.8281 37.1562 52.7969 32.3125
Q56.7812 27.4844 56.7812 20.5156
Q56.7812 9.90625 50.3125 4.23438
Q43.8438 -1.42188 31.7812 -1.42188
Q19.7344 -1.42188 13.25 4.23438
Q6.78125 9.90625 6.78125 20.5156
Q6.78125 27.4844 10.7812 32.3125
Q14.7969 37.1562 21.9219 38.8125
M18.3125 54.3906
Q18.3125 48.7344 21.8438 45.5625
Q25.3906 42.3906 31.7812 42.3906
Q38.1406 42.3906 41.7188 45.5625
Q45.3125 48.7344 45.3125 54.3906
Q45.3125 60.0625 41.7188 63.2344
Q38.1406 66.4062 31.7812 66.4062
Q25.3906 66.4062 21.8438 63.2344
Q18.3125 60.0625 18.3125 54.3906" id="BitstreamVeraSans-Roman-38"/>
      </defs>
      <g transform="translate(418.4728125 401.70625)scale(0.12 -0.12)">
       <use xlink:href="#BitstreamVeraSans-Roman-38"/>
       <use x="63.623046875" xlink:href="#BitstreamVeraSans-Roman-30"/>
       <use x="127.24609375" xlink:href="#BitstreamVeraSans-Roman-30"/>
      </g>
     </g>
    </g>
    <g id="xtick_10">
     <g id="line2d_32">
      <path clip-path="url(#p7ff5b81e1d)" d="
M473.76 388.8
L473.76 43.2" style="fill:none;stroke:#000000;stroke-dasharray:1.000000,3.000000;stroke-dashoffset:0.0;stroke-linecap:butt;stroke-width:0.5;"/>
     </g>
     <g id="line2d_33">
      <g>
       <use style="stroke:#000000;stroke-linecap:butt;stroke-width:0.5;" x="473.76" xlink:href="#m0012dd4eef" y="388.8"/>
      </g>
     </g>
     <g id="line2d_34">
      <g>
       <use style="stroke:#000000;stroke-linecap:butt;stroke-width:0.5;" x="473.76" xlink:href="#m476344969c" y="43.2"/>
      </g>
     </g>
     <g id="text_10">
      <!-- 900 -->
      <defs>
       <path d="
M10.9844 1.51562
L10.9844 10.5
Q14.7031 8.73438 18.5 7.8125
Q22.3125 6.89062 25.9844 6.89062
Q35.75 6.89062 40.8906 13.4531
Q46.0469 20.0156 46.7812 33.4062
Q43.9531 29.2031 39.5938 26.9531
Q35.25 24.7031 29.9844 24.7031
Q19.0469 24.7031 12.6719 31.3125
Q6.29688 37.9375 6.29688 49.4219
Q6.29688 60.6406 12.9375 67.4219
Q19.5781 74.2188 30.6094 74.2188
Q43.2656 74.2188 49.9219 64.5156
Q56.5938 54.8281 56.5938 36.375
Q56.5938 19.1406 48.4062 8.85938
Q40.2344 -1.42188 26.4219 -1.42188
Q22.7031 -1.42188 18.8906 -0.6875
Q15.0938 0.046875 10.9844 1.51562
M30.6094 32.4219
Q37.25 32.4219 41.125 36.9531
Q45.0156 41.5 45.0156 49.4219
Q45.0156 57.2812 41.125 61.8438
Q37.25 66.4062 30.6094 66.4062
Q23.9688 66.4062 20.0938 61.8438
Q16.2188 57.2812 16.2188 49.4219
Q16.2188 41.5 20.0938 36.9531
Q23.9688 32.4219 30.6094 32.4219" id="BitstreamVeraSans-Roman-39"/>
      </defs>
      <g transform="translate(463.08375 401.70625)scale(0.12 -0.12)">
       <use xlink:href="#BitstreamVeraSans-Roman-39"/>
       <use x="63.623046875" xlink:href="#BitstreamVeraSans-Roman-30"/>
       <use x="127.24609375" xlink:href="#BitstreamVeraSans-Roman-30"/>
      </g>
     </g>
    </g>
   </g>
   <g id="matplotlib.axis_2">
    <g id="ytick_1">
     <g id="line2d_35">
      <path clip-path="url(#p7ff5b81e1d)" d="
M72 388.8
L518.4 388.8" style="fill:none;stroke:#000000;stroke-dasharray:1.000000,3.000000;stroke-dashoffset:0.0;stroke-linecap:butt;stroke-width:0.5;"/>
     </g>
     <g id="line2d_36">
      <defs>
       <path d="
M0 0
L4 0" id="me8a85f7bf6" style="stroke:#000000;stroke-linecap:butt;stroke-width:0.5;"/>
      </defs>
      <g>
       <use style="stroke:#000000;stroke-linecap:butt;stroke-width:0.5;" x="72.0" xlink:href="#me8a85f7bf6" y="388.8"/>
      </g>
     </g>
     <g id="line2d_37">
      <defs>
       <path d="
M0 0
L-4 0" id="m1a32005dea" style="stroke:#000000;stroke-linecap:butt;stroke-width:0.5;"/>
      </defs>
      <g>
       <use style="stroke:#000000;stroke-linecap:butt;stroke-width:0.5;" x="518.4" xlink:href="#m1a32005dea" y="388.8"/>
      </g>
     </g>
     <g id="text_11">
      <!-- 0 -->
      <g transform="translate(61.953125 393.1678125)scale(0.12 -0.12)">
       <use xlink:href="#BitstreamVeraSans-Roman-30"/>
      </g>
     </g>
    </g>
    <g id="ytick_2">
     <g id="line2d_38">
      <path clip-path="url(#p7ff5b81e1d)" d="
M72 354.24
L518.4 354.24" style="fill:none;stroke:#000000;stroke-dasharray:1.000000,3.000000;stroke-dashoffset:0.0;stroke-linecap:butt;stroke-width:0.5;"/>
     </g>
     <g id="line2d_39">
      <g>
       <use style="stroke:#000000;stroke-linecap:butt;stroke-width:0.5;" x="72.0" xlink:href="#me8a85f7bf6" y="354.24"/>
      </g>
     </g>
     <g id="line2d_40">
      <g>
       <use style="stroke:#000000;stroke-linecap:butt;stroke-width:0.5;" x="518.4" xlink:href="#m1a32005dea" y="354.24"/>
      </g>
     </g>
     <g id="text_12">
      <!-- 2 -->
      <g transform="translate(62.44625 358.693125)scale(0.12 -0.12)">
       <use xlink:href="#BitstreamVeraSans-Roman-32"/>
      </g>
     </g>
    </g>
    <g id="ytick_3">
     <g id="line2d_41">
      <path clip-path="url(#p7ff5b81e1d)" d="
M72 319.68
L518.4 319.68" style="fill:none;stroke:#000000;stroke-dasharray:1.000000,3.000000;stroke-dashoffset:0.0;stroke-linecap:butt;stroke-width:0.5;"/>
     </g>
     <g id="line2d_42">
      <g>
       <use style="stroke:#000000;stroke-linecap:butt;stroke-width:0.5;" x="72.0" xlink:href="#me8a85f7bf6" y="319.68"/>
      </g>
     </g>
     <g id="line2d_43">
      <g>
       <use style="stroke:#000000;stroke-linecap:butt;stroke-width:0.5;" x="518.4" xlink:href="#m1a32005dea" y="319.68"/>
      </g>
     </g>
     <g id="text_13">
      <!-- 4 -->
      <g transform="translate(61.625 324.054375)scale(0.12 -0.12)">
       <use xlink:href="#BitstreamVeraSans-Roman-34"/>
      </g>
     </g>
    </g>
    <g id="ytick_4">
     <g id="line2d_44">
      <path clip-path="url(#p7ff5b81e1d)" d="
M72 285.12
L518.4 285.12" style="fill:none;stroke:#000000;stroke-dasharray:1.000000,3.000000;stroke-dashoffset:0.0;stroke-linecap:butt;stroke-width:0.5;"/>
     </g>
     <g id="line2d_45">
      <g>
       <use style="stroke:#000000;stroke-linecap:butt;stroke-width:0.5;" x="72.0" xlink:href="#me8a85f7bf6" y="285.12"/>
      </g>
     </g>
     <g id="line2d_46">
      <g>
       <use style="stroke:#000000;stroke-linecap:butt;stroke-width:0.5;" x="518.4" xlink:href="#m1a32005dea" y="285.12"/>
      </g>
     </g>
     <g id="text_14">
      <!-- 6 -->
      <g transform="translate(61.95875 289.4878125)scale(0.12 -0.12)">
       <use xlink:href="#BitstreamVeraSans-Roman-36"/>
      </g>
     </g>
    </g>
    <g id="ytick_5">
     <g id="line2d_47">
      <path clip-path="url(#p7ff5b81e1d)" d="
M72 250.56
L518.4 250.56" style="fill:none;stroke:#000000;stroke-dasharray:1.000000,3.000000;stroke-dashoffset:0.0;stroke-linecap:butt;stroke-width:0.5;"/>
     </g>
     <g id="line2d_48">
      <g>
       <use style="stroke:#000000;stroke-linecap:butt;stroke-width:0.5;" x="72.0" xlink:href="#me8a85f7bf6" y="250.56"/>
      </g>
     </g>
     <g id="line2d_49">
      <g>
       <use style="stroke:#000000;stroke-linecap:butt;stroke-width:0.5;" x="518.4" xlink:href="#m1a32005dea" y="250.56"/>
      </g>
     </g>
     <g id="text_15">
      <!-- 8 -->
      <g transform="translate(62.0 254.9278125)scale(0.12 -0.12)">
       <use xlink:href="#BitstreamVeraSans-Roman-38"/>
      </g>
     </g>
    </g>
    <g id="ytick_6">
     <g id="line2d_50">
      <path clip-path="url(#p7ff5b81e1d)" d="
M72 216
L518.4 216" style="fill:none;stroke:#000000;stroke-dasharray:1.000000,3.000000;stroke-dashoffset:0.0;stroke-linecap:butt;stroke-width:0.5;"/>
     </g>
     <g id="line2d_51">
      <g>
       <use style="stroke:#000000;stroke-linecap:butt;stroke-width:0.5;" x="72.0" xlink:href="#me8a85f7bf6" y="216.0"/>
      </g>
     </g>
     <g id="line2d_52">
      <g>
       <use style="stroke:#000000;stroke-linecap:butt;stroke-width:0.5;" x="518.4" xlink:href="#m1a32005dea" y="216.0"/>
      </g>
     </g>
     <g id="text_16">
      <!-- 10 -->
      <g transform="translate(54.845 220.3678125)scale(0.12 -0.12)">
       <use xlink:href="#BitstreamVeraSans-Roman-31"/>
       <use x="63.623046875" xlink:href="#BitstreamVeraSans-Roman-30"/>
      </g>
     </g>
    </g>
    <g id="ytick_7">
     <g id="line2d_53">
      <path clip-path="url(#p7ff5b81e1d)" d="
M72 181.44
L518.4 181.44" style="fill:none;stroke:#000000;stroke-dasharray:1.000000,3.000000;stroke-dashoffset:0.0;stroke-linecap:butt;stroke-width:0.5;"/>
     </g>
     <g id="line2d_54">
      <g>
       <use style="stroke:#000000;stroke-linecap:butt;stroke-width:0.5;" x="72.0" xlink:href="#me8a85f7bf6" y="181.44"/>
      </g>
     </g>
     <g id="line2d_55">
      <g>
       <use style="stroke:#000000;stroke-linecap:butt;stroke-width:0.5;" x="518.4" xlink:href="#m1a32005dea" y="181.44"/>
      </g>
     </g>
     <g id="text_17">
      <!-- 12 -->
      <g transform="translate(55.25 185.893125)scale(0.12 -0.12)">
       <use xlink:href="#BitstreamVeraSans-Roman-31"/>
       <use x="63.623046875" xlink:href="#BitstreamVeraSans-Roman-32"/>
      </g>
     </g>
    </g>
    <g id="ytick_8">
     <g id="line2d_56">
      <path clip-path="url(#p7ff5b81e1d)" d="
M72 146.88
L518.4 146.88" style="fill:none;stroke:#000000;stroke-dasharray:1.000000,3.000000;stroke-dashoffset:0.0;stroke-linecap:butt;stroke-width:0.5;"/>
     </g>
     <g id="line2d_57">
      <g>
       <use style="stroke:#000000;stroke-linecap:butt;stroke-width:0.5;" x="72.0" xlink:href="#me8a85f7bf6" y="146.88"/>
      </g>
     </g>
     <g id="line2d_58">
      <g>
       <use style="stroke:#000000;stroke-linecap:butt;stroke-width:0.5;" x="518.4" xlink:href="#m1a32005dea" y="146.88"/>
      </g>
     </g>
     <g id="text_18">
      <!-- 14 -->
      <g transform="translate(54.72125 151.254375)scale(0.12 -0.12)">
       <use xlink:href="#BitstreamVeraSans-Roman-31"/>
       <use x="63.623046875" xlink:href="#BitstreamVeraSans-Roman-34"/>
      </g>
     </g>
    </g>
    <g id="ytick_9">
     <g id="line2d_59">
      <path clip-path="url(#p7ff5b81e1d)" d="
M72 112.32
L518.4 112.32" style="fill:none;stroke:#000000;stroke-dasharray:1.000000,3.000000;stroke-dashoffset:0.0;stroke-linecap:butt;stroke-width:0.5;"/>
     </g>
     <g id="line2d_60">
      <g>
       <use style="stroke:#000000;stroke-linecap:butt;stroke-width:0.5;" x="72.0" xlink:href="#me8a85f7bf6" y="112.32"/>
      </g>
     </g>
     <g id="line2d_61">
      <g>
       <use style="stroke:#000000;stroke-linecap:butt;stroke-width:0.5;" x="518.4" xlink:href="#m1a32005dea" y="112.32"/>
      </g>
     </g>
     <g id="text_19">
      <!-- 16 -->
      <g transform="translate(54.80375 116.6878125)scale(0.12 -0.12)">
       <use xlink:href="#BitstreamVeraSans-Roman-31"/>
       <use x="63.623046875" xlink:href="#BitstreamVeraSans-Roman-36"/>
      </g>
     </g>
    </g>
    <g id="ytick_10">
     <g id="line2d_62">
      <path clip-path="url(#p7ff5b81e1d)" d="
M72 77.76
L518.4 77.76" style="fill:none;stroke:#000000;stroke-dasharray:1.000000,3.000000;stroke-dashoffset:0.0;stroke-linecap:butt;stroke-width:0.5;"/>
     </g>
     <g id="line2d_63">
      <g>
       <use style="stroke:#000000;stroke-linecap:butt;stroke-width:0.5;" x="72.0" xlink:href="#me8a85f7bf6" y="77.76"/>
      </g>
     </g>
     <g id="line2d_64">
      <g>
       <use style="stroke:#000000;stroke-linecap:butt;stroke-width:0.5;" x="518.4" xlink:href="#m1a32005dea" y="77.76"/>
      </g>
     </g>
     <g id="text_20">
      <!-- 18 -->
      <g transform="translate(54.869375 82.1278125)scale(0.12 -0.12)">
       <use xlink:href="#BitstreamVeraSans-Roman-31"/>
       <use x="63.623046875" xlink:href="#BitstreamVeraSans-Roman-38"/>
      </g>
     </g>
    </g>
    <g id="text_21">
     <!-- Sec/file -->
     <defs>
      <path d="
M9.42188 75.9844
L18.4062 75.9844
L18.4062 0
L9.42188 0
z
" id="BitstreamVeraSans-Roman-6c"/>
      <path d="
M53.5156 70.5156
L53.5156 60.8906
Q47.9062 63.5781 42.9219 64.8906
Q37.9375 66.2188 33.2969 66.2188
Q25.25 66.2188 20.875 63.0938
Q16.5 59.9688 16.5 54.2031
Q16.5 49.3594 19.4062 46.8906
Q22.3125 44.4375 30.4219 42.9219
L36.375 41.7031
Q47.4062 39.5938 52.6562 34.2969
Q57.9062 29 57.9062 20.125
Q57.9062 9.51562 50.7969 4.04688
Q43.7031 -1.42188 29.9844 -1.42188
Q24.8125 -1.42188 18.9688 -0.25
Q13.1406 0.921875 6.89062 3.21875
L6.89062 13.375
Q12.8906 10.0156 18.6562 8.29688
Q24.4219 6.59375 29.9844 6.59375
Q38.4219 6.59375 43.0156 9.90625
Q47.6094 13.2344 47.6094 19.3906
Q47.6094 24.75 44.3125 27.7812
Q41.0156 30.8125 33.5 32.3281
L27.4844 33.5
Q16.4531 35.6875 11.5156 40.375
Q6.59375 45.0625 6.59375 53.4219
Q6.59375 63.0938 13.4062 68.6562
Q20.2188 74.2188 32.1719 74.2188
Q37.3125 74.2188 42.625 73.2812
Q47.9531 72.3594 53.5156 70.5156" id="BitstreamVeraSans-Roman-53"/>
      <path d="
M9.42188 54.6875
L18.4062 54.6875
L18.4062 0
L9.42188 0
z

M9.42188 75.9844
L18.4062 75.9844
L18.4062 64.5938
L9.42188 64.5938
z
" id="BitstreamVeraSans-Roman-69"/>
      <path d="
M25.3906 72.9062
L33.6875 72.9062
L8.29688 -9.28125
L0 -9.28125
z
" id="BitstreamVeraSans-Roman-2f"/>
      <path d="
M56.2031 29.5938
L56.2031 25.2031
L14.8906 25.2031
Q15.4844 15.9219 20.4844 11.0625
Q25.4844 6.20312 34.4219 6.20312
Q39.5938 6.20312 44.4531 7.46875
Q49.3125 8.73438 54.1094 11.2812
L54.1094 2.78125
Q49.2656 0.734375 44.1875 -0.34375
Q39.1094 -1.42188 33.8906 -1.42188
Q20.7969 -1.42188 13.1562 6.1875
Q5.51562 13.8125 5.51562 26.8125
Q5.51562 40.2344 12.7656 48.1094
Q20.0156 56 32.3281 56
Q43.3594 56 49.7812 48.8906
Q56.2031 41.7969 56.2031 29.5938
M47.2188 32.2344
Q47.125 39.5938 43.0938 43.9844
Q39.0625 48.3906 32.4219 48.3906
Q24.9062 48.3906 20.3906 44.1406
Q15.875 39.8906 15.1875 32.1719
z
" id="BitstreamVeraSans-Roman-65"/>
      <path d="
M37.1094 75.9844
L37.1094 68.5
L28.5156 68.5
Q23.6875 68.5 21.7969 66.5469
Q19.9219 64.5938 19.9219 59.5156
L19.9219 54.6875
L34.7188 54.6875
L34.7188 47.7031
L19.9219 47.7031
L19.9219 0
L10.8906 0
L10.8906 47.7031
L2.29688 47.7031
L2.29688 54.6875
L10.8906 54.6875
L10.8906 58.5
Q10.8906 67.625 15.1406 71.7969
Q19.3906 75.9844 28.6094 75.9844
z
" id="BitstreamVeraSans-Roman-66"/>
      <path d="
M48.7812 52.5938
L48.7812 44.1875
Q44.9688 46.2969 41.1406 47.3438
Q37.3125 48.3906 33.4062 48.3906
Q24.6562 48.3906 19.8125 42.8438
Q14.9844 37.3125 14.9844 27.2969
Q14.9844 17.2812 19.8125 11.7344
Q24.6562 6.20312 33.4062 6.20312
Q37.3125 6.20312 41.1406 7.25
Q44.9688 8.29688 48.7812 10.4062
L48.7812 2.09375
Q45.0156 0.34375 40.9844 -0.53125
Q36.9688 -1.42188 32.4219 -1.42188
Q20.0625 -1.42188 12.7812 6.34375
Q5.51562 14.1094 5.51562 27.2969
Q5.51562 40.6719 12.8594 48.3281
Q20.2188 56 33.0156 56
Q37.1562 56 41.1094 55.1406
Q45.0625 54.2969 48.7812 52.5938" id="BitstreamVeraSans-Roman-63"/>
     </defs>
     <g transform="translate(49.72125 236.13)rotate(-90.0)scale(0.12 -0.12)">
      <use xlink:href="#BitstreamVeraSans-Roman-53"/>
      <use x="63.4765625" xlink:href="#BitstreamVeraSans-Roman-65"/>
      <use x="125.0" xlink:href="#BitstreamVeraSans-Roman-63"/>
      <use x="179.98046875" xlink:href="#BitstreamVeraSans-Roman-2f"/>
      <use x="213.671875" xlink:href="#BitstreamVeraSans-Roman-66"/>
      <use x="248.876953125" xlink:href="#BitstreamVeraSans-Roman-69"/>
      <use x="276.66015625" xlink:href="#BitstreamVeraSans-Roman-6c"/>
      <use x="304.443359375" xlink:href="#BitstreamVeraSans-Roman-65"/>
     </g>
    </g>
   </g>
   <g id="patch_3">
    <path d="
M72 43.2
L518.4 43.2" style="fill:none;stroke:#000000;"/>
   </g>
   <g id="patch_4">
    <path d="
M518.4 388.8
L518.4 43.2" style="fill:none;stroke:#000000;"/>
   </g>
   <g id="patch_5">
    <path d="
M72 388.8
L518.4 388.8" style="fill:none;stroke:#000000;"/>
   </g>
   <g id="patch_6">
    <path d="
M72 388.8
L72 43.2" style="fill:none;stroke:#000000;"/>
   </g>
   <g id="text_22">
    <!-- Seq -->
    <defs>
     <path d="
M14.7969 27.2969
Q14.7969 17.3906 18.875 11.75
Q22.9531 6.10938 30.0781 6.10938
Q37.2031 6.10938 41.2969 11.75
Q45.4062 17.3906 45.4062 27.2969
Q45.4062 37.2031 41.2969 42.8438
Q37.2031 48.4844 30.0781 48.4844
Q22.9531 48.4844 18.875 42.8438
Q14.7969 37.2031 14.7969 27.2969
M45.4062 8.20312
Q42.5781 3.32812 38.25 0.953125
Q33.9375 -1.42188 27.875 -1.42188
Q17.9688 -1.42188 11.7344 6.48438
Q5.51562 14.4062 5.51562 27.2969
Q5.51562 40.1875 11.7344 48.0938
Q17.9688 56 27.875 56
Q33.9375 56 38.25 53.625
Q42.5781 51.2656 45.4062 46.3906
L45.4062 54.6875
L54.3906 54.6875
L54.3906 -20.7969
L45.4062 -20.7969
z
" id="BitstreamVeraSans-Roman-71"/>
    </defs>
    <g transform="translate(282.7575 38.2)scale(0.144 -0.144)">
     <use xlink:href="#BitstreamVeraSans-Roman-53"/>
     <use x="63.4765625" xlink:href="#BitstreamVeraSans-Roman-65"/>
     <use x="125.0" xlink:href="#BitstreamVeraSans-Roman-71"/>
    </g>
   </g>
   <g id="legend_1">
    <g id="patch_7">
     <path d="
M429.055 136.476
L511.2 136.476
L511.2 50.4
L429.055 50.4
L429.055 136.476
z
" style="fill:#ffffff;stroke:#000000;"/>
    </g>
    <g id="line2d_65">
     <path d="
M439.135 62.0617
L459.295 62.0617" style="fill:none;stroke:#ff0000;"/>
    </g>
    <g id="line2d_66"/>
    <g id="text_23">
     <!-- LRU -->
     <defs>
      <path d="
M44.3906 34.1875
Q47.5625 33.1094 50.5625 29.5938
Q53.5625 26.0781 56.5938 19.9219
L66.6094 0
L56 0
L46.6875 18.7031
Q43.0625 26.0312 39.6719 28.4219
Q36.2812 30.8125 30.4219 30.8125
L19.6719 30.8125
L19.6719 0
L9.8125 0
L9.8125 72.9062
L32.0781 72.9062
Q44.5781 72.9062 50.7344 67.6719
Q56.8906 62.4531 56.8906 51.9062
Q56.8906 45.0156 53.6875 40.4688
Q50.4844 35.9375 44.3906 34.1875
M19.6719 64.7969
L19.6719 38.9219
L32.0781 38.9219
Q39.2031 38.9219 42.8438 42.2188
Q46.4844 45.5156 46.4844 51.9062
Q46.4844 58.2969 42.8438 61.5469
Q39.2031 64.7969 32.0781 64.7969
z
" id="BitstreamVeraSans-Roman-52"/>
      <path d="
M9.8125 72.9062
L19.6719 72.9062
L19.6719 8.29688
L55.1719 8.29688
L55.1719 0
L9.8125 0
z
" id="BitstreamVeraSans-Roman-4c"/>
      <path d="
M8.6875 72.9062
L18.6094 72.9062
L18.6094 28.6094
Q18.6094 16.8906 22.8438 11.7344
Q27.0938 6.59375 36.625 6.59375
Q46.0938 6.59375 50.3438 11.7344
Q54.5938 16.8906 54.5938 28.6094
L54.5938 72.9062
L64.5 72.9062
L64.5 27.3906
Q64.5 13.1406 57.4375 5.85938
Q50.3906 -1.42188 36.625 -1.42188
Q22.7969 -1.42188 15.7344 5.85938
Q8.6875 13.1406 8.6875 27.3906
z
" id="BitstreamVeraSans-Roman-55"/>
     </defs>
     <g transform="translate(475.13475 67.10175)scale(0.144 -0.144)">
      <use xlink:href="#BitstreamVeraSans-Roman-4c"/>
      <use x="55.712890625" xlink:href="#BitstreamVeraSans-Roman-52"/>
      <use x="125.1953125" xlink:href="#BitstreamVeraSans-Roman-55"/>
     </g>
    </g>
    <g id="line2d_67">
     <path d="
M439.135 83.1982
L459.295 83.1982" style="fill:none;opacity:0.7;stroke:#008000;"/>
    </g>
    <g id="line2d_68"/>
    <g id="text_24">
     <!-- MRU -->
     <defs>
      <path d="
M9.8125 72.9062
L24.5156 72.9062
L43.1094 23.2969
L61.8125 72.9062
L76.5156 72.9062
L76.5156 0
L66.8906 0
L66.8906 64.0156
L48.0938 14.0156
L38.1875 14.0156
L19.3906 64.0156
L19.3906 0
L9.8125 0
z
" id="BitstreamVeraSans-Roman-4d"/>
     </defs>
     <g transform="translate(475.13475 88.23825)scale(0.144 -0.144)">
      <use xlink:href="#BitstreamVeraSans-Roman-4d"/>
      <use x="86.279296875" xlink:href="#BitstreamVeraSans-Roman-52"/>
      <use x="155.76171875" xlink:href="#BitstreamVeraSans-Roman-55"/>
     </g>
    </g>
    <g id="line2d_69">
     <path d="
M439.135 104.335
L459.295 104.335" style="fill:none;opacity:0.5;stroke:#ffa500;"/>
    </g>
    <g id="line2d_70"/>
    <g id="text_25">
     <!-- LFU -->
     <defs>
      <path d="
M9.8125 72.9062
L51.7031 72.9062
L51.7031 64.5938
L19.6719 64.5938
L19.6719 43.1094
L48.5781 43.1094
L48.5781 34.8125
L19.6719 34.8125
L19.6719 0
L9.8125 0
z
" id="BitstreamVeraSans-Roman-46"/>
     </defs>
     <g transform="translate(475.13475 109.37475)scale(0.144 -0.144)">
      <use xlink:href="#BitstreamVeraSans-Roman-4c"/>
      <use x="55.712890625" xlink:href="#BitstreamVeraSans-Roman-46"/>
      <use x="113.232421875" xlink:href="#BitstreamVeraSans-Roman-55"/>
     </g>
    </g>
    <g id="line2d_71">
     <path d="
M439.135 125.471
L459.295 125.471" style="fill:none;opacity:0.5;stroke:#0000ff;"/>
    </g>
    <g id="line2d_72"/>
    <g id="text_26">
     <!-- FIFO -->
     <defs>
      <path d="
M39.4062 66.2188
Q28.6562 66.2188 22.3281 58.2031
Q16.0156 50.2031 16.0156 36.375
Q16.0156 22.6094 22.3281 14.5938
Q28.6562 6.59375 39.4062 6.59375
Q50.1406 6.59375 56.4219 14.5938
Q62.7031 22.6094 62.7031 36.375
Q62.7031 50.2031 56.4219 58.2031
Q50.1406 66.2188 39.4062 66.2188
M39.4062 74.2188
Q54.7344 74.2188 63.9062 63.9375
Q73.0938 53.6562 73.0938 36.375
Q73.0938 19.1406 63.9062 8.85938
Q54.7344 -1.42188 39.4062 -1.42188
Q24.0312 -1.42188 14.8125 8.82812
Q5.60938 19.0938 5.60938 36.375
Q5.60938 53.6562 14.8125 63.9375
Q24.0312 74.2188 39.4062 74.2188" id="BitstreamVeraSans-Roman-4f"/>
      <path d="
M9.8125 72.9062
L19.6719 72.9062
L19.6719 0
L9.8125 0
z
" id="BitstreamVeraSans-Roman-49"/>
     </defs>
     <g transform="translate(475.13475 130.51125)scale(0.144 -0.144)">
      <use xlink:href="#BitstreamVeraSans-Roman-46"/>
      <use x="57.51953125" xlink:href="#BitstreamVeraSans-Roman-49"/>
      <use x="87.01171875" xlink:href="#BitstreamVeraSans-Roman-46"/>
      <use x="144.53125" xlink:href="#BitstreamVeraSans-Roman-4f"/>
     </g>
    </g>
   </g>
  </g>
 </g>
 <defs>
  <clipPath id="p7ff5b81e1d">
   <rect height="345.6" width="446.4" x="72.0" y="43.2"/>
  </clipPath>
 </defs>
</svg>
