<?xml version="1.0" encoding="utf-8" standalone="no"?>
<!DOCTYPE svg PUBLIC "-//W3C//DTD SVG 1.1//EN"
  "http://www.w3.org/Graphics/SVG/1.1/DTD/svg11.dtd">
<!-- Created with matplotlib (http://matplotlib.sourceforge.net/) -->
<svg height="432pt" version="1.1" viewBox="0 0 576 432" width="576pt" xmlns="http://www.w3.org/2000/svg" xmlns:xlink="http://www.w3.org/1999/xlink">
 <defs>
  <style type="text/css">
*{stroke-linecap:square;stroke-linejoin:round;}
  </style>
 </defs>
 <g id="figure_1">
  <g id="patch_1">
   <path d="
M0 432
L576 432
L576 0
L0 0
z
" style="fill:#ffffff;"/>
  </g>
  <g id="axes_1">
   <g id="patch_2">
    <path d="
M72 388.8
L518.4 388.8
L518.4 43.2
L72 43.2
z
" style="fill:#ffffff;"/>
   </g>
   <g id="line2d_1">
    <path clip-path="url(#p7ff5b81e1d)" d="
M72 265.716
L72.4464 262.089
L72.8928 267.3
L73.3392 267.111
L73.7856 272.009
L74.232 293.199
L74.6784 267.462
L75.1248 265.493
L75.5712 268.755
L76.0176 267.741
L76.464 267.213
L76.9104 267.791
L77.3568 293.688
L77.8032 267.747
L78.2496 266.857
L78.696 267.801
L79.1424 258.295
L79.5888 260.926
L80.0352 267.012
L80.4816 293.582
L80.928 268.012
L81.3744 267.472
L81.8208 258.942
L82.2672 266.805
L82.7136 268.072
L83.16 254.464
L83.6064 294.888
L84.0528 267.864
L84.4992 267.299
L84.9456 267.433
L85.8384 267.386
L86.2848 264.431
L86.7312 294.517
L87.1776 267.991
L87.624 267.891
L88.0704 267.488
L88.5168 266.553
L88.9632 268.439
L89.4096 266.624
L89.856 294.358
L90.3024 268.417
L90.7488 267.23
L91.1952 264.758
L91.6416 265.713
L92.088 266.204
L92.5344 248.542
L92.9808 292.203
L93.4272 266.72
L93.8736 265.716
L94.32 265.759
L94.7664 266.361
L95.2128 264.461
L95.6592 254.166
L96.1056 292.742
L96.552 266.578
L96.9984 266.261
L97.4448 265.773
L97.8912 266.86
L98.3376 265.527
L98.784 252.946
L99.2304 293.012
L99.6768 266.892
L100.123 265.323
L100.57 265.425
L101.016 265.904
L101.462 265.22
L101.909 261.075
L102.355 293.237
L102.802 264.473
L103.248 266.099
L103.694 265.306
L104.141 265.242
L104.587 266.124
L105.034 254.489
L105.48 292.407
L105.926 266.708
L106.373 265.95
L107.266 265.495
L107.712 264.786
L108.158 253.514
L108.605 291.652
L109.051 266.245
L109.498 265.65
L109.944 266.386
L110.39 265.448
L110.837 265.026
L111.283 256.577
L111.73 294.307
L112.176 266.844
L112.622 267.095
L113.069 264.659
L113.515 264.617
L113.962 262.74
L114.408 252.298
L114.854 292.107
L115.301 264.338
L115.747 263.847
L116.194 252.627
L116.64 258.37
L117.086 265.647
L117.533 252.376
L117.979 292.636
L118.426 264.33
L118.872 264.386
L119.318 291.726
L119.765 263.143
L120.211 257.275
L120.658 258.885
L121.104 262.94
L121.55 265.695
L121.997 253.397
L122.443 291.871
L122.89 264.541
L123.336 263.748
L123.782 261.384
L124.229 264.505
L124.675 263.802
L125.122 251.213
L125.568 292.054
L126.014 263.961
L126.461 261.148
L126.907 249.268
L127.354 263.953
L127.8 265.459
L128.246 241.924
L128.693 271.029
L129.139 263.816
L129.586 263.211
L130.032 263.178
L130.478 263.577
L130.925 258.253
L131.371 254.388
L131.818 291.637
L132.264 264.165
L132.71 264.123
L133.157 254.205
L133.603 263.769
L134.05 262.425
L134.496 252.594
L134.942 293.462
L135.389 263.864
L135.835 264.725
L136.282 262.838
L136.728 264.606
L137.174 262.499
L137.621 250.729
L138.067 291.398
L138.514 265.058
L138.96 265.63
L139.406 262.183
L139.853 264.981
L140.299 264.342
L140.746 239.024
L141.192 269.802
L141.638 264.356
L142.085 266.281
L142.531 263.158
L142.978 262.889
L143.424 264.609
L143.87 251.451
L144.317 292.127
L144.763 263.754
L145.21 265.428
L145.656 261.915
L146.102 263.743
L146.549 264.587
L146.995 250.45
L147.442 292.041
L147.888 263.592
L148.334 265.274
L148.781 253.788
L149.227 263.995
L149.674 264.508
L150.12 251.763
L150.566 290.083
L151.013 264.56
L151.459 263.885
L151.906 264.116
L152.352 263.658
L152.798 261.135
L153.245 249.332
L153.691 291.216
L154.138 260.809
L154.584 263.149
L155.03 290.989
L155.477 262.982
L155.923 262.641
L156.37 263.078
L156.816 261.677
L157.262 263.611
L157.709 249.571
L158.155 290.082
L158.602 262.376
L159.048 264.383
L159.494 292.051
L159.941 261.76
L160.387 263.619
L160.834 262.603
L161.28 263.49
L161.726 261.971
L162.173 248.634
L162.619 289.799
L163.066 261.895
L163.512 263.097
L163.958 291.071
L164.405 261.401
L164.851 264.01
L165.298 261.055
L165.744 264.022
L166.19 261.119
L166.637 248.655
L167.083 290.864
L167.53 263.227
L167.976 261.476
L168.422 289.119
L168.869 263.319
L169.762 261.724
L170.208 276.461
L170.654 267.572
L171.101 261.224
L171.547 290.768
L171.994 262.651
L172.44 263.332
L172.886 249.668
L173.333 262.866
L173.779 261.091
L174.226 251.236
L174.672 290.765
L175.118 264.106
L175.565 262.038
L176.011 290.606
L176.458 263.548
L176.904 263.415
L177.35 260.457
L177.797 262.124
L178.243 260.28
L178.69 248.652
L179.136 290.858
L179.582 262.356
L180.029 261.126
L180.475 289.382
L180.922 263.061
L181.368 260.737
L181.814 262.02
L182.261 261.874
L182.707 261.367
L183.154 248.011
L183.6 291.187
L184.046 263.079
L184.493 261.958
L184.939 290.748
L185.386 262.234
L185.832 262.721
L186.278 257.035
L186.725 262.083
L187.171 262.252
L187.618 250.019
L188.064 290.607
L188.51 261.957
L188.957 261.747
L189.403 290.444
L189.85 262.305
L190.296 262.957
L190.742 260.598
L191.189 261.493
L191.635 260.3
L192.082 250.264
L192.974 262.123
L193.421 261.653
L193.867 289.537
L194.314 262.669
L194.76 261.496
L195.653 260.647
L196.099 261.5
L196.546 248.911
L196.992 290.6
L197.438 262.254
L197.885 262.733
L198.331 291.521
L198.778 261.69
L199.224 262.946
L199.67 260.249
L200.117 263.545
L200.563 261.536
L201.01 249.357
L201.456 290.372
L201.902 261.903
L202.349 259.972
L202.795 289.65
L203.242 259.726
L203.688 260.521
L204.134 259.657
L204.581 257.996
L205.027 258.099
L205.474 246.112
L205.92 290.529
L206.813 229.049
L207.259 274.028
L207.706 258.759
L208.152 255.858
L209.045 261.202
L209.491 257.968
L209.938 245.076
L210.384 288.058
L210.83 259.452
L211.277 246.504
L211.723 289.55
L212.17 259.134
L212.616 258.861
L213.062 286.764
L213.509 259.196
L213.955 259.397
L214.402 256.98
L214.848 260.26
L215.294 257.971
L215.741 248.051
L216.187 289.146
L216.634 259.329
L217.08 258.974
L217.526 288.135
L217.973 260.035
L218.866 258.033
L219.312 258.478
L219.758 258.17
L220.205 245.624
L220.651 289.658
L221.098 259.01
L221.544 247.799
L221.99 289.325
L222.437 258.752
L222.883 213.855
L223.33 290.128
L223.776 258.91
L224.222 261.06
L224.669 258.463
L225.115 259.529
L225.562 257.16
L226.008 257.26
L226.454 289.741
L226.901 258.333
L227.347 259.907
L227.794 288.75
L228.24 259.612
L228.686 259.169
L229.133 290.183
L229.579 258.601
L230.026 260.069
L230.918 259.305
L231.811 256.864
L232.258 239.3
L232.704 258.528
L233.15 248.386
L233.597 288.747
L234.043 259.143
L234.49 258.96
L234.936 289.172
L235.382 259.631
L235.829 257.979
L236.275 258.587
L236.722 259.821
L237.168 257.973
L237.614 245.209
L238.061 288.284
L238.507 259.51
L238.954 248.258
L239.4 290.118
L239.846 259.658
L240.293 258.967
L240.739 288.77
L241.186 259.519
L241.632 258.055
L242.078 259.245
L242.525 258.572
L242.971 259.761
L243.418 244.41
L243.864 287.073
L244.31 258.276
L244.757 243.36
L245.203 286.629
L245.65 258.873
L246.096 218.488
L246.542 279.356
L246.989 256.483
L247.435 256.32
L247.882 255.155
L248.328 255.929
L248.774 255.836
L249.221 242.922
L249.667 287.603
L250.114 256.606
L250.56 245.006
L251.006 287
L251.453 256.906
L251.899 244.796
L252.346 286.463
L252.792 256.804
L253.238 210.211
L253.685 286.158
L254.131 256.864
L254.578 258.318
L255.024 256.539
L255.47 255.765
L255.917 256.959
L256.363 243.219
L256.81 288.16
L257.256 258.433
L257.702 244.881
L258.149 288.228
L258.595 256.168
L259.042 243.553
L259.488 287.559
L259.934 258.242
L260.381 255.877
L260.827 287.373
L261.274 257.562
L261.72 255.544
L262.166 256.897
L262.613 255.97
L263.059 256.59
L263.506 244.462
L263.952 287.533
L264.398 257.866
L264.845 245.278
L265.291 286.804
L265.738 257.189
L266.184 250.027
L266.63 287.353
L267.077 256.706
L267.523 256.376
L267.97 286.853
L268.416 257.23
L268.862 255.081
L269.309 249.283
L269.755 255.101
L270.202 256.165
L270.648 245.805
L271.094 288.107
L271.541 256.796
L271.987 244.509
L272.434 286.469
L272.88 256.748
L273.326 249.082
L273.773 285.902
L274.219 257.167
L274.666 256.229
L275.112 286.492
L275.558 256.636
L276.005 253.946
L276.451 256.42
L276.898 256.452
L277.344 254.342
L277.79 245.356
L278.237 287.038
L278.683 255.682
L279.13 245.652
L279.576 286.232
L280.022 256.5
L280.469 245.185
L280.915 285.825
L281.362 256.99
L281.808 255.851
L282.254 285.844
L282.701 256.289
L283.594 255.762
L284.486 255.286
L284.933 242.824
L285.379 287.402
L285.826 253.857
L286.272 246.83
L286.718 286.41
L287.165 255.067
L287.611 256.215
L288.058 286.386
L288.504 255.969
L288.95 256.633
L289.397 285.955
L289.843 255.752
L290.29 257.826
L290.736 254.837
L291.182 255.233
L291.629 256.114
L292.075 242.493
L292.522 285.867
L292.968 255.291
L293.414 243.473
L293.861 286.755
L294.307 254.148
L294.754 245.9
L295.2 285.707
L295.646 256.81
L296.093 254.904
L296.539 286.491
L296.986 256.749
L297.432 255.439
L297.878 245.431
L298.325 253.924
L298.771 254.517
L299.218 241.174
L299.664 283.723
L300.11 255.266
L300.557 242.563
L301.003 284.966
L301.45 253.795
L301.896 242.184
L302.342 285.602
L302.789 251.171
L303.235 245.359
L303.682 285.668
L304.128 253.378
L304.574 242.727
L305.021 286.014
L305.467 254.171
L305.914 247.185
L306.36 285.832
L306.806 254.287
L307.253 253.873
L307.699 284.764
L308.146 254.171
L308.592 252.483
L309.038 285.722
L309.485 254.462
L309.931 253.63
L310.378 254.228
L310.824 254.198
L311.27 253.083
L311.717 247.639
L312.163 285.615
L312.61 254.256
L313.056 240.705
L313.502 286.969
L313.949 252.711
L314.395 243.741
L314.842 286.793
L315.288 252.205
L315.734 242.554
L316.181 285.329
L316.627 253.727
L317.074 253.533
L317.52 284.148
L317.966 254.209
L318.413 246.35
L318.859 284.759
L319.306 253.87
L319.752 261.533
L320.198 283.948
L320.645 252.738
L321.091 252.166
L321.538 254.172
L321.984 252.316
L322.43 251.986
L322.877 251.283
L323.323 252.987
L323.77 252.474
L324.216 243.257
L324.662 285.472
L325.109 252.991
L325.555 242.604
L326.002 285.107
L326.448 252.934
L326.894 241.128
L327.341 283.509
L327.787 254.65
L328.234 247.334
L328.68 283.87
L329.126 252.862
L329.573 252.376
L330.019 284.459
L330.466 253.553
L330.912 253.487
L331.358 284.173
L331.805 251.657
L332.251 254.362
L332.698 252.736
L333.144 252.64
L333.59 253.222
L334.037 250.32
L334.483 254.377
L334.93 251.72
L335.376 239.845
L335.822 284.38
L336.269 253.181
L336.715 243.314
L337.162 285.359
L338.054 215.563
L338.501 276.427
L338.947 254.041
L339.394 253.505
L339.84 251.255
L340.286 252.668
L340.733 251.653
L341.179 251.246
L341.626 251.364
L342.072 252.245
L342.518 240.149
L342.965 283.388
L343.411 253.945
L343.858 242.783
L344.304 284.876
L344.75 254.015
L345.197 241.684
L345.643 285.262
L346.09 253.133
L346.536 242.373
L346.982 285.077
L347.429 249.364
L347.875 237.691
L348.322 281.06
L348.768 248.08
L349.214 234.179
L349.661 282.464
L350.107 247.017
L350.554 236.643
L351 282.721
L351.446 248.294
L351.893 234.825
L352.339 281.325
L352.786 247.327
L353.232 236.327
L353.678 282.303
L354.125 244.846
L354.571 250.346
L355.464 245.421
L355.91 234.214
L356.357 282.622
L356.803 248.146
L357.25 245.137
L357.696 246.202
L358.142 247.821
L358.589 241.123
L359.035 247.287
L359.482 246.592
L359.928 244.275
L360.374 246.278
L360.821 245.497
L361.267 245.87
L361.714 245.137
L362.16 247.907
L362.606 241.44
L363.053 250.248
L363.499 245.592
L363.946 234.268
L364.392 281.727
L364.838 247.396
L365.285 244.126
L365.731 248.516
L366.178 244.658
L366.624 246.795
L367.07 246.62
L367.517 245.701
L367.963 245.951
L368.41 245.124
L368.856 246.113
L369.302 245.357
L369.749 245.132
L370.195 246.767
L370.642 243.733
L371.088 246.249
L371.534 246.203
L371.981 242.138
L372.427 249.554
L372.874 245.587
L373.32 235.752
L373.766 281.82
L374.213 248.777
L374.659 245.097
L375.106 247.183
L375.552 246.966
L375.998 244.127
L376.445 244.846
L376.891 247.085
L377.338 244.492
L377.784 246.356
L378.23 246.047
L378.677 245.023
L379.123 247.976
L379.57 244.479
L380.016 245.633
L380.462 244.935
L380.909 245.997
L381.355 239.965
L381.802 249.355
L382.248 246.925
L382.694 231.475
L383.141 280.919
L383.587 248.164
L384.034 243.412
L384.48 248.445
L384.926 244.889
L386.266 246.492
L386.712 246.319
L387.158 245.689
L387.605 247.777
L388.051 245.96
L388.498 245.112
L388.944 246.66
L389.39 241.681
L389.837 246.051
L390.283 244.861
L390.73 246.099
L391.176 246.504
L391.622 244.847
L392.069 233.948
L392.515 281.127
L392.962 248.678
L393.408 245.689
L393.854 246.114
L394.301 247.804
L394.747 243.919
L395.194 245.725
L395.64 245.972
L396.086 243.899
L396.533 246.652
L396.979 245.498
L397.872 247.154
L398.318 244.485
L398.765 245.179
L399.211 246.226
L399.658 245.509
L400.104 245.533
L400.55 244.377
L400.997 247.301
L401.443 243.769
L402.336 246.587
L402.782 244.116
L403.229 246.367
L403.675 244.536
L404.568 246.209
L405.014 244.68
L405.461 241.739
L405.907 249.243
L406.354 246.384
L406.8 239.736
L407.246 249.582
L407.693 245.729
L408.139 234.91
L408.586 281.651
L409.032 246.726
L409.478 247.068
L409.925 247.738
L410.371 244.832
L410.818 246.723
L411.264 245.696
L411.71 246.592
L412.603 245.134
L413.05 246.587
L413.496 244.562
L413.942 245.444
L414.389 245.854
L414.835 243.888
L415.282 246.658
L415.728 245.298
L416.621 246.909
L417.067 244.792
L417.514 241.212
L417.96 284.416
L418.406 246.556
L418.853 244.647
L419.299 244.368
L419.746 246.661
L420.192 242.834
L421.085 244.763
L421.531 241.823
L421.978 243.299
L422.424 243.341
L422.87 242.15
L423.317 243.077
L423.763 242.948
L424.21 243.305
L424.656 244.016
L425.102 242.588
L425.549 243.346
L426.442 243.114
L426.888 243.318
L427.334 242.214
L427.781 242.986
L428.227 242.987
L428.674 242.423
L429.12 243.733
L429.566 242.354
L430.013 243.651
L430.459 243.991
L430.906 242.323
L431.352 242.483
L431.798 243.32
L432.245 240.021
L432.691 243.463
L433.138 243.406
L433.584 241.196
L434.03 242.565
L434.477 243.474
L434.923 241.129
L435.37 244.209
L435.816 241.924
L436.262 250.503
L436.709 243.373
L437.155 243.601
L437.602 242.052
L438.048 243.743
L438.494 241.065
L439.834 243.968
L440.28 242.444
L440.726 242.83
L441.173 243.008
L441.619 239.317
L442.066 243.374
L442.512 240.559
L442.958 240.716
L443.405 242.02
L443.851 241.569
L444.298 238.681
L444.744 240.193
L445.19 242.243
L445.637 238.582
L446.083 241.351
L446.53 236.572
L446.976 244.23
L447.422 239.672
L447.869 241.972
L448.315 240.733
L448.762 241.377
L449.208 240.538
L450.101 241.935
L450.547 240.736
L450.994 240.001
L451.886 240.975
L452.333 240.565
L452.779 239.281
L453.226 243.135
L453.672 238.948
L454.118 241.683
L454.565 235.729
L455.011 246.347
L455.458 242.032
L455.904 240.504
L456.35 241.037
L456.797 242.668
L457.243 237.65
L457.69 241.306
L458.136 242.65
L458.582 240.592
L459.029 239.42
L459.475 240.138
L459.922 242.339
L460.368 239.022
L460.814 240.239
L461.261 242.315
L461.707 239.891
L462.154 240.356
L462.6 233.995
L463.046 246.163
L463.493 241.34
L463.939 241.873
L464.386 239.981
L464.832 241.174
L465.725 240.431
L466.171 241.155
L466.618 240.541
L467.064 237.311
L467.957 240.067
L468.403 232.757
L468.85 239.508
L469.296 241.473
L469.742 237.93
L470.189 239.766
L470.635 233.525
L471.082 243.616
L471.528 239.864
L471.974 238.329
L472.421 238.44
L472.867 238.767
L473.314 237.07
L473.76 238.521
L474.206 237.787
L474.653 240.754
L475.099 236.869
L475.546 239.482
L475.992 237.943
L476.438 238.312
L476.885 240.86
L477.331 237.754
L477.778 239.234
L479.117 242.319
L479.563 239.406
L480.01 238.221
L480.456 239.382
L480.902 238.889
L481.349 235.872
L481.795 238.371
L482.242 238.889
L482.688 239.114
L483.134 237.504
L483.581 237.971
L484.027 237.859
L484.474 237.036
L484.92 238.556
L485.366 238.032
L486.259 237.94
L486.706 250.248
L487.152 241.291
L487.598 237.919
L488.045 240.427
L488.491 236.757
L488.938 237.93
L489.384 237.547
L489.83 236.2
L490.277 239.287
L491.17 237.762
L491.616 237.317
L492.062 239.308
L492.509 232.098
L492.955 240.534
L493.402 240.017
L493.848 238.05
L494.294 239.661
L494.741 249.022
L495.187 241.752
L496.08 234.019
L496.526 233.586
L496.973 235.749
L497.419 232.385
L497.866 227.453
L498.312 235.677
L499.205 234.221
L499.651 234.204
L500.098 234.89
L500.544 232.875
L500.99 233.383
L501.437 234.168
L501.883 220.833
L502.33 232.434
L502.776 239.386
L503.222 235.757
L503.669 234.09
L504.115 234.314
L504.562 228.337
L505.008 236.017
L505.454 235.022
L505.901 235.87
L506.347 233.898
L506.794 235.479
L507.24 234.285
L507.686 233.543
L508.133 233.949
L508.579 219.381
L509.026 235.743
L509.472 235.948
L509.918 228.839
L510.365 241.187
L511.258 227.564
L511.704 235.557
L512.15 234.615
L512.597 236.011
L513.043 235.172
L513.49 234.858
L513.936 233.835
L514.382 234.998
L514.829 234.868
L515.275 220.01
L515.722 236.042
L516.168 234.862
L516.614 236.16
L517.061 234.519
L517.507 228.3
L517.954 234.688
L517.954 234.688" style="fill:none;stroke:#ff0000;"/>
   </g>
   <g id="line2d_2">
    <path clip-path="url(#p7ff5b81e1d)" d="
M72 286.006
L72.8928 244.079
L73.3392 285.555
L73.7856 257.676
L74.232 254.947
L74.6784 286.364
L75.1248 256.42
L75.5712 257.782
L76.0176 284.806
L76.464 256.684
L76.9104 256.021
L77.3568 256.683
L77.8032 255.529
L78.2496 256.129
L78.696 252.605
L79.1424 286.19
L79.5888 255.925
L80.0352 254.043
L80.4816 285.566
L80.928 255.9
L81.3744 255.202
L81.8208 236.36
L82.2672 255.579
L82.7136 254.149
L83.16 285.537
L83.6064 255.019
L84.0528 255.56
L84.4992 241.276
L84.9456 255.259
L85.392 256.625
L85.8384 244.419
L86.2848 285.555
L86.7312 256.516
L87.1776 244.369
L87.624 285.643
L88.0704 256.08
L88.5168 244.504
L88.9632 286.872
L89.4096 256.814
L89.856 209.299
L90.3024 284.81
L90.7488 256.162
L91.1952 256.374
L91.6416 256.907
L92.088 255.262
L92.5344 255.665
L92.9808 245.891
L93.4272 287.266
L93.8736 254.56
L94.32 242.126
L94.7664 253.932
L95.2128 255.812
L95.6592 248.367
L96.1056 285.97
L96.552 256.597
L96.9984 256.658
L97.4448 285.26
L97.8912 256.899
L98.3376 255.798
L98.784 250.775
L99.2304 257.415
L99.6768 253.968
L100.123 253.933
L100.57 255.684
L101.016 255.056
L101.462 243.871
L101.909 288.29
L102.355 255.327
L102.802 243.381
L103.248 286.062
L103.694 256.751
L104.141 255.415
L104.587 284.598
L105.034 255.758
L105.48 253.673
L105.926 283.694
L106.373 253.457
L106.819 253.333
L107.266 248.903
L107.712 252.852
L108.158 253.307
L108.605 252.933
L109.051 289.327
L109.498 252.335
L109.944 240.818
L110.39 285.467
L110.837 253.433
L111.283 242.286
L111.73 284.593
L112.176 253.266
L112.622 242.479
L113.069 285.265
L113.962 223.684
L114.408 268.673
L114.854 253.614
L115.301 255.181
L115.747 284.933
L116.194 254.27
L116.64 253.619
L117.086 253.284
L117.533 253.429
L117.979 254.322
L118.426 240.635
L118.872 284.054
L119.318 254.255
L119.765 242.601
L120.211 284.902
L120.658 254.441
L121.104 242.426
L121.55 285.086
L121.997 254.902
L122.443 242.805
L122.89 286.071
L123.336 253.002
L123.782 241.631
L124.229 284.621
L124.675 254.133
L125.122 247.647
L125.568 284.822
L126.014 254.366
L126.461 252.559
L126.907 284.131
L127.354 253.161
L127.8 252.36
L128.246 283.571
L128.693 252.245
L130.032 253.305
L130.478 270.511
L130.925 240.855
L131.371 284.31
L131.818 253.186
L132.264 241.484
L132.71 284.031
L133.157 252.985
L133.603 242.236
L134.05 284.37
L134.496 252.848
L134.942 241.604
L135.389 283.662
L135.835 253.315
L136.282 245.631
L136.728 283.64
L137.174 251.277
L137.621 244.458
L138.067 283.675
L138.514 249.823
L138.96 254.266
L139.406 283.461
L139.853 252.207
L140.299 252.122
L140.746 283.648
L141.192 253.116
L141.638 251.973
L142.085 251.943
L142.531 253.736
L142.978 250.562
L143.424 252.38
L143.87 251.422
L144.317 252.084
L144.763 241.246
L145.21 283.603
L145.656 252.167
L146.102 242.423
L146.549 284.286
L146.995 259.6
L147.442 244.711
L147.888 284.01
L148.334 253.244
L148.781 247.611
L149.227 283.982
L149.674 252.668
L150.12 251.998
L150.566 283.138
L151.013 252.777
L151.459 252.745
L151.906 283.223
L152.352 252.431
L152.798 253.597
L153.245 251.081
L153.691 246.947
L154.138 245.884
L154.584 246.008
L155.03 246.654
L155.477 245.097
L155.923 247.539
L156.37 245.808
L156.816 246.27
L157.262 244.795
L158.155 246.087
L158.602 243.625
L159.048 245.691
L159.494 246.585
L159.941 243.12
L160.387 246.072
L160.834 244.711
L161.28 245.275
L161.726 246.839
L162.173 244.588
L163.066 245.622
L163.512 244.953
L163.958 245.36
L164.405 244.553
L164.851 248.009
L165.298 242.538
L165.744 246.106
L166.19 245.673
L166.637 243.537
L167.083 246.789
L167.53 244.227
L167.976 244.579
L168.422 246.744
L168.869 245.697
L169.315 245.468
L169.762 244.794
L170.208 247.218
L170.654 245.09
L171.101 245.263
L171.547 247.406
L171.994 242.434
L172.44 244.752
L172.886 245.747
L173.333 243.1
L173.779 247.59
L174.226 244.642
L174.672 244.354
L175.118 247.991
L175.565 245.335
L176.011 239.04
L176.458 248.313
L176.904 245.721
L177.35 241.882
L177.797 249.229
L178.243 245.877
L178.69 240.081
L179.136 246.928
L179.582 245.736
L180.029 234.078
L180.475 280.057
L180.922 246.75
L181.368 246.272
L181.814 246.17
L182.261 246.196
L182.707 245.726
L183.154 244.579
L183.6 246.653
L184.046 243.149
L184.493 245.139
L184.939 244.902
L185.386 244.405
L185.832 245.822
L186.278 244.892
L186.725 246.153
L187.171 245.957
L187.618 243.724
L188.064 245.504
L188.51 245.429
L188.957 246.1
L189.403 246.519
L189.85 243.445
L190.296 246.692
L190.742 243.808
L191.189 245.492
L191.635 245.454
L192.082 245.067
L192.528 246.468
L192.974 245.008
L193.421 246.111
L193.867 246.277
L194.314 245.676
L194.76 244.797
L195.206 244.38
L195.653 246.453
L196.099 244.924
L196.546 244.448
L196.992 246.306
L197.438 242.752
L197.885 244.893
L198.331 246.151
L198.778 244.997
L199.224 247.376
L199.67 244.511
L200.117 246.942
L200.563 244.631
L201.01 246.269
L201.456 242.796
L201.902 246.745
L202.349 244.628
L202.795 244.773
L203.688 246.633
L204.134 238.95
L204.581 282.147
L205.027 247.071
L205.474 244.513
L205.92 247.111
L206.366 244.02
L206.813 246.089
L207.259 245.266
L207.706 246.591
L208.152 241.618
L208.598 248.298
L209.045 246.608
L209.491 235.161
L209.938 281.149
L210.384 248.299
L210.83 245.927
L211.277 245.286
L212.17 245.076
L212.616 245.245
L213.062 246.503
L213.509 245.223
L213.955 244.693
L214.402 247.346
L214.848 244.515
L215.294 245.014
L215.741 246.439
L216.187 244.348
L216.634 246.064
L217.08 244.527
L217.526 244.409
L217.973 246.746
L218.419 245.277
L218.866 245.552
L219.312 245.337
L219.758 246.147
L220.205 243.635
L221.098 247.512
L221.544 243.509
L221.99 245.54
L222.437 246.285
L222.883 242.367
L223.33 246.985
L223.776 244.623
L224.222 248.106
L225.115 245.295
L225.562 234.911
L226.008 281.195
L226.454 248.29
L226.901 246.494
L227.347 245.956
L227.794 247.193
L228.24 239.938
L228.686 242.657
L229.133 241.868
L229.579 242.093
L230.026 243.217
L230.472 242.853
L230.918 242.134
L231.365 243.112
L231.811 243.082
L232.258 242.006
L232.704 244.069
L233.15 243.033
L233.597 240.315
L234.043 243.351
L234.49 244.132
L234.936 241.966
L235.382 243.053
L235.829 243.248
L236.275 241.67
L237.168 244.142
L237.614 241.622
L238.061 242.594
L238.507 241.84
L238.954 241.407
L239.4 236.986
L239.846 248.529
L240.293 240.661
L240.739 242.849
L241.186 243.014
L241.632 241.323
L242.078 243.753
L242.525 242.889
L243.418 242.946
L243.864 242.494
L244.31 242.274
L244.757 243.828
L245.203 242.332
L245.65 241.605
L246.096 241.948
L246.542 243.316
L247.435 237.282
L247.882 247.982
L248.328 241.642
L248.774 242.08
L249.221 244.485
L249.667 242.756
L250.114 239.177
L250.56 241.485
L251.006 240.284
L251.453 239.657
L251.899 241.623
L252.346 240.41
L252.792 240.766
L253.238 242.16
L253.685 240.946
L254.131 240.922
L254.578 242.228
L255.024 238.125
L255.47 235.872
L255.917 247.275
L256.363 239.909
L256.81 241.42
L257.256 240.498
L257.702 240.297
L258.149 240.944
L258.595 240.765
L259.042 240.125
L259.488 240.676
L259.934 239.773
L260.381 238.149
L260.827 240.988
L261.274 240.412
L261.72 241.59
L262.166 242.238
L262.613 242.415
L263.059 240.597
L263.506 236.949
L263.952 244.119
L264.845 240.047
L265.291 240.229
L265.738 242.015
L266.184 240.484
L266.63 239.561
L267.077 241.855
L267.523 241.639
L267.97 240.723
L268.416 241.082
L268.862 238.619
L269.309 239.829
L269.755 242.794
L270.202 241.314
L270.648 242.478
L271.094 240.375
L271.541 236.801
L271.987 245.946
L272.434 240.796
L272.88 240.2
L273.326 242.471
L273.773 241.515
L274.219 238.065
L274.666 237.586
L275.112 239.575
L275.558 237.995
L276.005 240.19
L276.451 237.546
L276.898 236.954
L277.344 238.628
L277.79 234.327
L278.237 237.987
L278.683 239.236
L279.13 240.151
L279.576 237.212
L280.022 240.946
L280.469 238.829
L280.915 238.907
L281.362 237.63
L281.808 238.954
L282.254 238.655
L282.701 237.175
L283.147 237.2
L283.594 237.776
L284.04 239.412
L284.486 237.929
L284.933 240.404
L285.379 237.725
L285.826 238.762
L286.718 237.901
L287.165 239.678
L287.611 259.337
L288.058 238.67
L288.504 236.635
L288.95 237.982
L289.397 238.711
L289.843 236.043
L290.736 239.403
L291.182 237.833
L292.075 239.709
L292.522 237.294
L292.968 238.933
L293.414 237.936
L293.861 237.961
L294.307 237.799
L294.754 239.612
L295.2 229.924
L295.646 242.52
L296.093 238.965
L296.539 229.82
L296.986 272.68
L297.432 239.73
L297.878 238.812
L298.771 238.095
L299.218 237.956
L299.664 237.034
L300.11 238.726
L300.557 238.774
L301.003 237.689
L301.45 239.893
L301.896 236.742
L302.789 238.607
L303.235 231.145
L303.682 239.721
L304.128 236.37
L304.574 228.409
L305.021 234.985
L305.467 234.484
L305.914 223.096
L306.36 236.809
L306.806 236.031
L307.253 235.679
L307.699 233.848
L308.146 235.422
L308.592 232.687
L309.038 233.364
L309.485 235.129
L309.931 223.066
L310.378 235.434
L310.824 236.242
L311.27 232.888
L311.717 234.483
L312.163 234.892
L312.61 217.443
L313.056 235.957
L313.502 234.691
L313.949 220.195
L314.395 235.39
L314.842 233.331
L315.288 273.044
L315.734 235.694
L316.181 225.649
L316.627 273.8
L317.074 237.167
L317.52 235.289
L317.966 236.105
L318.413 235.19
L318.859 233.271
L319.306 232.075
L319.752 234.835
L320.198 232.517
L320.645 235.162
L321.091 233.349
L321.538 235.143
L321.984 234.002
L322.43 233.781
L322.877 227.141
L323.323 235.63
L323.77 235.326
L324.216 236.556
L324.662 233.034
L325.109 234.747
L325.555 228.564
L326.002 228.379
L326.448 229.233
L326.894 270.084
L327.341 229.99
L327.787 226.811
L328.234 271.193
L328.68 230.287
L329.126 231.394
L329.573 231.996
L330.019 229.402
L330.466 223.569
L330.912 230.991
L331.358 230.783
L331.805 214.118
L332.251 231.785
L332.698 231.301
L333.144 229.878
L333.59 229.765
L334.037 229.921
L334.483 228.625
L334.93 230.011
L335.376 228.334
L335.822 227.827
L336.269 229.621
L336.715 227.573
L337.162 206.894
L337.608 231.623
L338.054 221.277
L338.501 271.544
L338.947 230.888
L339.394 230.691
L339.84 228.179
L340.286 229.559
L340.733 229.329
L341.179 229.918
L341.626 228.781
L342.072 212.769
L342.518 231.437
L342.965 229.429
L343.411 208.766
L343.858 231.732
L344.304 220.775
L344.75 270.434
L345.197 230.972
L345.643 229.385
L346.09 231.048
L346.536 229.166
L346.982 214.138
L347.429 231.12
L347.875 176.672
L348.322 266.756
L348.768 230.956
L349.214 216.768
L349.661 228.808
L350.107 231.115
L350.554 220.466
L351 230.166
L351.446 223.529
L351.893 268.533
L352.339 225.703
L352.786 226.895
L353.232 266.98
L353.678 226.351
L354.125 218.873
L354.571 224.99
L355.018 225.652
L355.464 265.893
L355.91 226.325
L356.357 218.726
L356.803 252.165
L357.25 224.325
L357.696 216.23
L358.142 231.097
L358.589 224.473
L359.035 267.489
L359.482 225.531
L359.928 216.373
L360.374 266.611
L360.821 225.734
L361.267 265.565
L361.714 225.4
L362.16 216.254
L362.606 268.924
L363.053 227.799
L363.499 226.26
L363.946 225.748
L364.392 224.405
L364.838 267.473
L365.285 226.066
L365.731 224.023
L366.178 268.348
L366.624 225.035
L367.07 211.979
L367.517 226.869
L367.963 216.414
L368.41 268.756
L368.856 226.487
L369.302 225.793
L369.749 221.827
L370.195 215.851
L370.642 263.019
L371.088 217.433
L371.534 211.558
L371.981 219.52
L372.427 215.336
L372.874 262.802
L373.32 219.657
L373.766 218.504
L374.213 216.541
L374.659 215.692
L375.106 260.582
L375.552 218.899
L375.998 215.73
L376.445 218.522
L376.891 215.075
L377.338 260.928
L377.784 218.598
L378.23 213.093
L378.677 223.776
L379.123 214.35
L379.57 261.584
L380.016 218.907
L380.462 217.957
L380.909 225.667
L381.355 216.928
L381.802 262.959
L382.248 217.181
L382.694 218.557
L383.141 218.73
L383.587 214.695
L384.034 263.791
L384.48 216.648
L384.926 210.771
L385.373 223.588
L385.819 215.228
L386.266 261.585
L386.712 217.754
L387.158 214.645
L387.605 261.096
L388.051 205.734
L388.498 260.915
L388.944 217.424
L389.39 218.114
L389.837 217.999
L390.283 166.004
L390.73 248.906
L391.176 218.365
L391.622 209.847
L392.069 222.436
L392.515 216.174
L392.962 261.226
L393.408 216.487
L393.854 218.433
L394.301 217.86
L394.747 216.299
L395.194 261.604
L395.64 216.93
L396.086 218.905
L396.533 216.146
L396.979 216.742
L397.426 263.243
L397.872 215.763
L398.318 210.535
L398.765 225.034
L399.211 215.726
L399.658 262.383
L400.104 218.225
L400.55 215.961
L400.997 218.062
L401.443 167.037
L401.89 248.879
L402.336 217.371
L402.782 213.285
L403.229 244.275
L403.675 205.203
L404.122 263.557
L404.568 213.364
L405.014 203.217
L405.461 212.5
L405.907 199.886
L406.354 258.056
L406.8 209.374
L407.246 209.428
L407.693 208.585
L408.139 198.929
L408.586 257.49
L409.032 210.497
L409.478 195.17
L409.925 209.938
L410.371 182.497
L410.818 217.137
L411.71 200.358
L412.157 210.866
L412.603 198.183
L413.05 258.525
L413.496 210.458
L413.942 207.458
L414.389 208.432
L414.835 197.611
L415.282 256.626
L415.728 210.223
L416.174 194.021
L416.621 209.615
L417.067 196.384
L417.514 258.704
L417.96 211.159
L418.406 195.88
L418.853 207.393
L419.299 203.549
L419.746 257.262
L420.192 209.178
L420.638 199.96
L421.085 209.047
L421.531 207.524
L421.978 291.728
L422.424 268.427
L422.87 266.071
L423.317 267.412
L423.763 266.831
L424.21 265.436
L424.656 221.86
L425.102 291.208
L425.549 268.145
L426.442 265.045
L426.888 267.545
L427.334 275.474
L428.227 266.125
L428.674 267.474
L429.12 265.45
L429.566 267.369
L430.013 293.559
L430.459 267.397
L430.906 267.761
L431.352 266.668
L431.798 266.232
L432.245 266.409
L432.691 267.871
L433.138 294.054
L433.584 266.466
L434.03 265.744
L434.477 267.488
L434.923 266.667
L435.816 267.646
L436.262 293.874
L436.709 265.725
L437.155 268.975
L437.602 267.168
L438.048 267.613
L438.494 264.147
L438.941 267.297
L439.387 293.022
L439.834 269.374
L440.28 268.824
L440.726 266.202
L441.173 269.06
L441.619 266.805
L442.066 228.808
L442.512 287.825
L442.958 267.005
L443.405 268.46
L443.851 265.887
L444.298 265.698
L444.744 266.691
L445.19 266.598
L445.637 293.979
L446.083 265.787
L446.53 268.271
L446.976 267.284
L447.422 266.961
L448.315 267.506
L448.762 293.211
L449.208 267.852
L449.654 267.035
L450.101 264.188
L450.547 267.882
L450.994 266.964
L451.44 266.575
L451.886 295.075
L452.333 267.762
L452.779 266.351
L453.226 267.697
L453.672 266.99
L454.118 267.136
L454.565 264.968
L455.011 292.404
L455.458 264.469
L455.904 267.297
L456.35 264.496
L456.797 266.237
L457.243 263.916
L457.69 252.697
L458.136 291.374
L458.582 266.718
L459.029 266.807
L459.475 264.851
L459.922 266.249
L460.368 265.46
L460.814 235.265
L461.261 279.385
L461.707 266.257
L462.154 264.859
L462.6 264.984
L463.046 266.454
L463.493 265.198
L463.939 254.153
L464.386 294.441
L464.832 266.062
L465.278 265.742
L465.725 264.047
L466.171 265.54
L466.618 264.474
L467.064 253.559
L467.51 292.201
L467.957 266.678
L468.85 264.632
L469.296 266.866
L469.742 264.481
L470.189 253.698
L470.635 290.819
L471.082 263.542
L471.528 266.265
L471.974 263.069
L472.421 266.271
L472.867 265.286
L473.314 251.591
L473.76 291.826
L474.206 268.297
L474.653 266.877
L475.099 264.025
L475.546 266.06
L475.992 265.718
L476.438 253.682
L476.885 292.009
L477.331 266.081
L478.224 260.359
L478.67 263.921
L479.117 262.386
L479.563 252.75
L480.01 292.699
L480.456 262.212
L480.902 264.644
L481.349 264.375
L481.795 263.816
L482.242 262.883
L482.688 251.841
L483.134 291.295
L484.027 266.771
L485.366 261.461
L485.813 239.366
L486.259 271.047
L486.706 263.06
L487.152 263.2
L487.598 263.692
L488.045 263.657
L488.491 263.448
L488.938 251.19
L489.384 291.166
L489.83 265.016
L490.277 263.361
L491.17 263.857
L491.616 263.035
L492.062 251.818
L492.509 289.567
L492.955 265.355
L493.402 264.612
L493.848 262.172
L494.294 264.157
L494.741 263.25
L495.187 251.399
L495.634 291.524
L496.08 264.379
L496.526 264.484
L496.973 249.386
L497.419 265.545
L497.866 263.701
L498.312 253.593
L498.758 291.511
L499.205 265.082
L499.651 264.252
L500.098 263.781
L500.544 262.536
L500.99 264.033
L501.437 239.654
L501.883 270.204
L502.33 261.999
L502.776 263.304
L503.222 250.021
L503.669 263.069
L504.115 263.839
L504.562 253.373
L505.008 291.96
L505.454 264.056
L505.901 262.349
L506.347 264.521
L506.794 263.437
L507.24 261.757
L507.686 237.498
L508.133 270.139
L508.579 263.7
L509.026 265.091
L509.472 257.954
L509.918 264.086
L510.365 263.863
L510.811 252.638
L511.258 291.703
L511.704 262.609
L512.597 262.811
L513.043 263.84
L513.49 262.072
L513.936 238.046
L514.382 269.631
L515.275 261.539
L515.722 261.09
L516.168 263.274
L516.614 263.329
L517.061 248.69
L517.507 290.28
L517.954 263.628
L517.954 263.628" style="fill:none;opacity:0.7;stroke:#008000;"/>
   </g>
   <g id="line2d_3">
    <path clip-path="url(#p7ff5b81e1d)" d="
M72 288.781
L72.4464 259.47
L72.8928 259.154
L73.7856 255.48
L74.232 260.645
L74.6784 259.868
L75.1248 288.902
L75.5712 260.789
L76.0176 260.332
L76.464 290.297
L76.9104 260.071
L77.3568 261.462
L77.8032 257.477
L78.2496 247.225
L79.1424 260.112
L79.5888 288.102
L80.0352 258.657
L80.4816 259.119
L80.928 288.056
L81.3744 260.642
L81.8208 258.618
L82.2672 290.992
L82.7136 257.84
L83.16 248.248
L83.6064 261.631
L84.0528 256.311
L84.4992 259.86
L84.9456 250.531
L85.392 295.534
L85.8384 255.218
L86.2848 260.253
L86.7312 291.198
L87.1776 249.685
L87.624 255.979
L88.0704 289.199
L88.5168 259.059
L88.9632 258.982
L89.4096 258.005
L89.856 258.109
L90.3024 258.032
L90.7488 247.008
L91.1952 289.88
L92.088 260.968
L92.5344 289.543
L92.9808 260.23
L93.4272 251.569
L93.8736 252.307
L94.32 257.225
L94.7664 260.613
L95.2128 248.949
L95.6592 290.975
L96.1056 261.649
L96.552 245.017
L96.9984 288.873
L97.4448 258.861
L97.8912 259.298
L98.3376 285.547
L98.784 260.043
L99.2304 264.805
L100.123 253.297
L100.57 264.582
L101.016 242.753
L101.462 289.939
L101.909 261.389
L102.355 261.494
L102.802 291.185
L103.248 260.221
L103.694 256.143
L104.141 245.414
L104.587 259.608
L105.034 261.133
L105.48 255.131
L105.926 259.655
L106.373 258.253
L106.819 246.708
L107.266 287.42
L107.712 257.86
L108.158 244.787
L108.605 287.351
L109.051 256.572
L109.498 249.768
L109.944 286.409
L110.39 253.419
L110.837 244.336
L111.283 290.128
L111.73 243.527
L112.176 255.119
L112.622 254.133
L113.069 253.731
L113.515 249.218
L113.962 249.311
L114.408 289.855
L114.854 248.537
L115.301 254.958
L115.747 289.848
L116.194 242.052
L116.64 256.97
L117.086 288.613
L117.533 258.44
L117.979 257.87
L118.426 287.067
L118.872 256.297
L119.318 258.939
L119.765 240.057
L120.211 257.935
L120.658 257.794
L121.104 245.445
L121.55 289.644
L121.997 258.132
L122.443 245.829
L122.89 287.799
L123.336 256.358
L123.782 250.505
L124.229 286.516
L124.675 257.027
L125.122 257.856
L125.568 286.702
L126.014 257.24
L126.461 256.843
L126.907 255.275
L127.354 255.874
L127.8 254.471
L128.246 244.488
L128.693 289.436
L129.139 258.707
L129.586 246.505
L130.032 287.081
L130.478 257.008
L130.925 250.469
L131.371 286.258
L131.818 257.851
L132.264 257.253
L132.71 288.555
L133.157 254.323
L133.603 256.11
L134.05 242.231
L134.496 259.146
L134.942 251.972
L135.389 242.329
L135.835 287.814
L136.282 255.86
L136.728 249.148
L137.174 249.615
L137.621 258.948
L138.067 250.859
L138.514 286.112
L138.96 254.672
L139.406 257.057
L139.853 288.001
L140.299 255.888
L140.746 256.171
L141.192 254.07
L141.638 242.902
L142.085 251.057
L142.531 254.247
L142.978 241.448
L143.424 256.234
L143.87 246.356
L144.317 284.876
L144.763 256.896
L145.21 244.891
L145.656 286.791
L146.102 255.862
L146.549 243.356
L146.995 285.536
L147.442 256.516
L147.888 243.63
L148.334 286.427
L148.781 256.292
L149.227 255.602
L149.674 285.867
L150.12 255.68
L150.566 256.303
L151.013 256.375
L151.459 255.334
L151.906 257.1
L152.352 244.789
L152.798 287.445
L153.245 259.913
L153.691 246.301
L154.138 287.861
L154.584 251.643
L155.03 244.657
L155.477 284.392
L156.37 239.876
L156.816 289.043
L157.262 255.749
L157.709 257.808
L158.155 255.116
L158.602 255.909
L159.048 253.472
L159.494 245.278
L159.941 288.811
L160.387 256.345
L160.834 244.684
L161.28 283.03
L161.726 254.512
L162.173 241.521
L162.619 286.901
L163.066 253.81
L163.512 255.472
L163.958 286.264
L164.405 254.592
L164.851 256.759
L165.298 250.416
L166.19 253.429
L166.637 249.856
L167.083 252.018
L167.53 250.31
L167.976 241.091
L168.422 284.945
L168.869 252.595
L169.315 241.952
L169.762 283.832
L170.208 252.798
L170.654 241.118
L171.101 284.536
L171.547 252.595
L171.994 241.395
L172.44 284.659
L172.886 251.89
L173.333 246.409
L173.779 284.298
L174.226 252.365
L174.672 253.19
L175.118 284.028
L175.565 253.879
L176.011 251.278
L176.458 283.915
L176.904 253.034
L177.35 254.481
L177.797 253.121
L178.243 254.406
L178.69 252.498
L179.136 241.185
L179.582 286.977
L180.029 254.955
L180.475 242.652
L180.922 284.229
L181.368 252.947
L181.814 240.821
L182.261 284.244
L182.707 253.278
L183.154 241.321
L183.6 285.212
L184.046 253.419
L184.493 241.485
L184.939 283.604
L185.386 252.893
L185.832 247.1
L186.278 283.787
L186.725 252.496
L187.171 252.401
L187.618 282.569
L188.064 254.367
L188.51 252.974
L188.957 279.628
L189.403 247.711
L189.85 246.219
L190.296 278.732
L190.742 246.628
L191.189 241.257
L191.635 280.127
L192.082 247.655
L192.528 233.637
L192.974 280.315
L193.421 246.975
L193.867 236.07
L194.314 280.195
L194.76 248.259
L195.206 234.533
L195.653 272.513
L196.099 247.312
L196.546 236.747
L196.992 280.512
L197.438 246.473
L198.331 245.307
L198.778 246.32
L199.224 241.381
L199.67 244.595
L200.117 246.275
L200.563 244.832
L201.01 246.754
L201.902 243.859
L202.349 246.376
L202.795 245.563
L203.242 232.715
L203.688 280.825
L204.134 251.327
L204.581 246.414
L205.027 245.624
L205.474 247.824
L205.92 244.071
L206.366 245.541
L206.813 246.439
L207.259 245.073
L207.706 246.859
L208.152 246.644
L208.598 234.944
L209.045 282.721
L209.491 249.687
L209.938 246.382
L210.384 245.627
L210.83 246.882
L211.277 244.289
L212.17 245.424
L212.616 244.308
L213.062 246.584
L213.509 244.895
L213.955 245.791
L214.402 246.977
L214.848 243.863
L215.294 247.221
L215.741 245.355
L216.187 246.833
L216.634 244.766
L217.08 244.386
L217.526 247.413
L217.973 241.448
L218.419 245.842
L218.866 245.453
L219.312 245.22
L220.205 245.467
L220.651 244.022
L221.098 247.134
L221.544 245.271
L221.99 234.74
L222.437 281.531
L222.883 247.35
L223.33 244.033
L223.776 244.297
L224.222 247.429
L224.669 240.508
L225.115 246.064
L225.562 245.644
L226.008 244.632
L226.454 246.398
L226.901 243.851
L227.347 247.61
L227.794 246.703
L228.24 246.392
L228.686 246.351
L229.133 244.872
L229.579 246.993
L230.026 245.409
L230.472 244.633
L230.918 245.935
L231.365 243.842
L231.811 245.858
L232.258 244.778
L232.704 245.225
L233.15 247
L233.597 244.238
L234.043 247.438
L234.49 245.94
L234.936 245.897
L235.382 231.742
L235.829 281.167
L236.275 246.162
L236.722 246.365
L237.168 245.745
L237.614 245.921
L238.061 244.822
L238.507 248.615
L238.954 245.655
L239.4 247.056
L239.846 249.018
L240.293 245.565
L240.739 234.941
L241.186 282.067
L241.632 247.067
L242.525 247.193
L242.971 248.417
L243.418 243.349
L243.864 245.498
L244.31 246.141
L244.757 244.702
L245.203 247.091
L245.65 244.562
L246.096 246.922
L246.542 247.159
L246.989 247.137
L247.435 234.896
L247.882 282.473
L248.328 248.893
L248.774 247.235
L249.221 246.901
L249.667 248.645
L250.114 243.416
L250.56 245.844
L251.006 244.49
L251.453 244.725
L251.899 246.722
L252.346 244.56
L252.792 246.469
L253.238 246.357
L253.685 245.923
L254.131 234.671
L254.578 280.676
L255.024 246.425
L255.47 243.493
L255.917 249.69
L256.363 246.947
L256.81 245.094
L257.256 249.051
L257.702 245.611
L258.595 248.052
L259.042 246.305
L259.488 233.417
L259.934 281.813
L260.381 249.04
L260.827 246.915
L261.274 248.1
L261.72 246.882
L262.166 242.27
L262.613 244.698
L263.506 243.504
L263.952 244.66
L264.398 244.736
L264.845 243.82
L265.291 244.793
L265.738 244.593
L266.184 244.667
L266.63 245.457
L267.077 243.698
L267.523 243.413
L267.97 245.575
L268.416 243.349
L268.862 244.964
L269.309 242.252
L269.755 242.313
L270.202 243.787
L270.648 244.289
L271.094 244.385
L271.541 242.494
L271.987 243.289
L272.434 243.323
L272.88 240.221
L273.326 244.568
L273.773 243.138
L274.219 243.388
L274.666 242.689
L275.112 242.771
L276.005 243.622
L276.451 243.449
L276.898 243.087
L277.79 245.035
L278.683 238.728
L279.13 247.514
L279.576 241.123
L280.022 245.334
L280.469 242.868
L280.915 243.974
L281.362 243.881
L281.808 245.22
L282.254 243.944
L282.701 243.196
L283.147 243.586
L283.594 241.291
L284.04 241.495
L284.486 242.871
L284.933 241.158
L285.379 241.376
L285.826 243.377
L286.272 240.185
L286.718 235.896
L287.165 249.584
L287.611 240.299
L288.058 241.474
L288.504 243.618
L288.95 239.698
L289.397 242.866
L289.843 240.901
L290.29 240.596
L290.736 242.859
L291.182 242.588
L291.629 240.061
L292.075 243.559
L292.522 241.755
L292.968 240.758
L293.414 240.871
L294.307 240.356
L294.754 237.632
L295.2 244.521
L295.646 240.899
L296.093 241.173
L296.539 241.907
L296.986 242.215
L297.432 243.892
L297.878 241.907
L298.325 242.273
L298.771 242.41
L299.218 241.277
L299.664 242.039
L300.11 243.029
L300.557 241.329
L301.003 242.369
L301.45 242.621
L301.896 240.944
L302.342 241.668
L302.789 235.596
L303.235 247.013
L303.682 241.308
L304.128 240.957
L304.574 244.207
L305.021 240.18
L305.467 242.356
L305.914 243.456
L306.36 242.143
L306.806 242.772
L307.253 242.361
L307.699 242.165
L308.146 240.779
L308.592 239.82
L309.038 236.631
L309.931 238.445
L310.824 233.179
L311.27 244.082
L311.717 238.137
L312.163 236.175
L312.61 238.216
L313.056 236.881
L313.502 237.979
L313.949 237.248
L314.395 237.665
L314.842 238.671
L315.288 237.811
L315.734 238.02
L316.181 238.884
L316.627 237.804
L317.074 237.56
L317.52 238.899
L317.966 239.186
L318.413 238.181
L318.859 239.532
L319.306 237.85
L319.752 237.748
L320.198 238.741
L320.645 239.014
L321.091 237.06
L321.538 239.115
L322.43 237.016
L322.877 238.492
L323.323 238.35
L323.77 232.146
L324.216 240.24
L324.662 238.631
L325.109 229.022
L325.555 239.141
L326.002 240.109
L326.448 234.451
L326.894 241.473
L327.341 238.09
L327.787 235.942
L328.234 238.018
L328.68 238.38
L329.573 236.198
L330.019 239.263
L330.466 234.368
L330.912 278.883
L331.358 236.853
L331.805 237.922
L332.251 237.146
L332.698 239.586
L333.144 232.838
L333.59 238.834
L334.037 239.453
L334.483 227.825
L334.93 239.796
L335.376 239.044
L335.822 233.484
L336.269 238.672
L336.715 237.655
L337.162 234.534
L337.608 233.916
L338.054 234.236
L338.501 232.463
L338.947 234.266
L339.394 233.957
L339.84 232.562
L340.286 234.919
L340.733 235.293
L341.179 225.565
L341.626 234.378
L342.072 235.925
L342.518 234.423
L342.965 228.219
L343.411 238.147
L343.858 232.688
L344.304 232.681
L344.75 235.772
L345.197 228.373
L345.643 234.816
L346.09 236.275
L346.536 272.973
L346.982 234.287
L347.429 235.482
L347.875 271.36
L348.322 234.849
L348.768 234.025
L349.214 235.737
L349.661 233.731
L350.107 233.573
L350.554 226.569
L351 242.679
L351.446 231.683
L351.893 234.225
L352.339 232.423
L352.786 233.475
L353.232 232.704
L353.678 233.172
L354.125 233.934
L354.571 234.372
L355.018 232.803
L355.464 227.047
L355.91 235.639
L356.357 233.577
L356.803 235.537
L357.25 226.9
L357.696 234.915
L358.142 226.86
L358.589 233.799
L359.035 230.558
L359.482 229.271
L359.928 230.376
L360.374 229.389
L360.821 222.586
L361.267 230.85
L361.714 230.436
L362.16 211.205
L362.606 231.46
L363.053 220.958
L363.499 270.533
L363.946 231.068
L364.392 228.071
L364.838 229.115
L365.285 229.545
L365.731 228.424
L366.178 229.772
L366.624 228.914
L367.07 214.61
L367.517 229.833
L367.963 231.169
L368.41 221.55
L368.856 230.255
L369.302 230.486
L369.749 229.668
L370.195 229.201
L370.642 229.252
L371.088 213.595
L371.534 230.384
L371.981 230.92
L372.427 229.149
L372.874 229.566
L373.32 228.22
L373.766 204.574
L374.213 251.138
L374.659 220.46
L375.106 269.232
L375.552 232.143
L376.445 228.782
L376.891 229.814
L377.338 228.523
L377.784 228.914
L378.23 229.555
L378.677 215.049
L379.123 232.557
L379.57 232.762
L380.016 228.05
L380.462 229.935
L380.909 229.02
L381.355 227.159
L381.802 229.463
L382.248 229.323
L382.694 221.384
L383.141 229.633
L383.587 230.969
L384.034 267.913
L384.48 225.943
L384.926 226.47
L385.373 266.214
L385.819 225.487
L386.266 223.279
L386.712 225.129
L387.158 222.685
L387.605 266.736
L388.051 225.668
L388.498 221.973
L388.944 228.058
L389.39 225.191
L389.837 217.052
L390.283 225.26
L390.73 169.119
L391.176 265.991
L391.622 225.405
L392.069 215.501
L392.515 267.202
L392.962 225.738
L393.408 226.835
L394.301 223.882
L394.747 267.963
L395.194 227.853
L395.64 227.211
L396.086 268.949
L396.533 227.05
L396.979 213.48
L397.426 227.947
L397.872 227.608
L398.318 269.151
L398.765 224.3
L399.211 217.596
L399.658 269.818
L400.104 227.68
L400.55 224.864
L400.997 227.324
L401.443 227.141
L401.89 268.455
L402.336 224.88
L402.782 215.92
L403.229 261.882
L403.675 217.233
L404.122 260.174
L404.568 218.894
L405.014 217.461
L405.461 218.256
L405.907 216.339
L406.354 260.624
L406.8 217.865
L407.246 217.257
L407.693 216.202
L408.139 168.961
L408.586 248.686
L409.032 220.453
L409.478 219.498
L409.925 219.702
L410.371 217.154
L410.818 262.057
L411.264 221.546
L411.71 217.512
L412.157 216.266
L412.603 215.763
L413.05 262.757
L413.496 219.537
L413.942 219.213
L414.389 215.784
L414.835 213.931
L415.282 260.685
L415.728 218.765
L416.174 216.791
L416.621 217.144
L417.067 213.774
L417.514 271.811
L417.96 206.041
L418.406 216.061
L418.853 217.906
L419.299 215.444
L419.746 260.898
L420.192 216.889
L420.638 217.016
L421.085 217.436
L421.531 214.449
L421.978 260.643
L422.424 215.913
L422.87 216.207
L423.317 218.245
L423.763 215.158
L424.21 258.702
L424.656 222.154
L425.102 216.095
L425.549 216.627
L425.995 215.542
L426.442 259.592
L426.888 216.303
L427.334 217.732
L427.781 218.041
L428.227 214.435
L428.674 262.165
L429.12 218.382
L429.566 216.361
L430.013 218.745
L430.459 215.654
L430.906 256.884
L431.352 221.127
L431.798 216.317
L432.245 216.126
L432.691 195.848
L433.138 263.449
L433.584 224.64
L434.03 216.159
L434.477 216.713
L434.923 215.058
L435.37 261.068
L435.816 216.929
L436.262 217.145
L436.709 217.894
L437.155 215.815
L437.602 256.977
L438.048 215.161
L438.494 209.534
L438.941 208.63
L439.387 197.974
L439.834 257.157
L440.28 209.879
L440.726 194.398
L441.173 209.456
L441.619 200.13
L442.066 257.493
L442.512 209.642
L442.958 195.509
L443.405 209.928
L443.851 200.726
L444.298 256.78
L444.744 209.511
L445.19 202.717
L445.637 209.977
L446.083 199.881
L446.53 259.484
L446.976 211.252
L447.422 194.413
L447.869 211.345
L448.315 200.756
L448.762 258.755
L449.208 210.385
L449.654 207.917
L450.101 208.173
L450.547 199.356
L450.994 256.755
L451.44 210.397
L451.886 256.657
L452.333 210.813
L452.779 210.163
L453.226 209.758
L453.672 196.938
L454.118 256.955
L454.565 209.849
L455.011 260.333
L455.904 267.227
L456.35 293.227
L456.797 266.854
L457.243 266.722
L457.69 268.053
L458.136 267.195
L458.582 266.021
L459.029 260.387
L459.475 293.99
L459.922 267.065
L460.368 267.808
L460.814 266.156
L461.261 267.565
L461.707 266.32
L462.154 268.136
L462.6 295.079
L463.046 269.267
L463.493 269.706
L464.832 268.47
L465.278 268.897
L465.725 296.107
L466.171 267.935
L466.618 269.494
L467.064 267.271
L467.51 266.663
L467.957 265.29
L468.403 268.072
L468.85 295.598
L469.296 268.662
L469.742 269.02
L470.189 268.011
L470.635 269.596
L471.082 267.618
L471.528 266.211
L471.974 292.535
L472.421 267.941
L472.867 267.633
L473.314 267.605
L473.76 266.657
L474.206 267.305
L474.653 266.822
L475.099 295.857
L475.546 267.932
L475.992 269.456
L476.438 266.465
L476.885 267.029
L477.331 266.177
L477.778 254.93
L478.224 293.213
L478.67 267.06
L479.117 267.36
L479.563 266.946
L480.01 267.7
L480.902 265.94
L481.349 292.868
L481.795 267.748
L482.242 267.493
L482.688 265.165
L483.134 267.407
L483.581 265.92
L484.027 254.763
L484.474 294.203
L484.92 267.187
L485.366 268.123
L485.813 267.668
L486.706 265.844
L487.152 261.445
L487.598 295.303
L488.045 269.152
L488.491 268.942
L488.938 265.824
L489.384 268.496
L489.83 266.745
L490.277 267.739
L490.723 294.856
L491.17 267.002
L491.616 266.367
L492.062 264.696
L492.509 265.437
L492.955 265.424
L493.402 254.149
L493.848 292.965
L494.294 264.936
L494.741 265.975
L495.187 265.194
L495.634 266.219
L496.08 265.64
L496.526 251.179
L496.973 293.144
L497.419 265.827
L497.866 265.883
L498.312 265.62
L498.758 267.758
L499.205 266.723
L499.651 266.378
L500.098 293.348
L500.544 267.461
L500.99 268.168
L501.437 265.327
L501.883 267.705
L502.33 267.234
L502.776 266.446
L503.222 295.081
L503.669 267.748
L504.115 267.087
L504.562 267.272
L505.008 266.946
L505.454 266.177
L505.901 257.02
L506.347 294.865
L506.794 267.199
L507.24 267.576
L507.686 266.524
L508.133 268.563
L508.579 265.728
L509.026 266.583
L509.472 294.881
L509.918 267.232
L510.365 267.896
L510.811 264.693
L511.258 265.596
L511.704 262.225
L512.15 249.928
L512.597 291.756
L513.043 263.608
L513.49 264.361
L513.936 250.999
L514.829 266.767
L515.275 258.771
L515.722 293.351
L516.168 265.806
L516.614 266.035
L517.061 260.948
L517.507 263.691
L517.954 263.939
L517.954 263.939" style="fill:none;opacity:0.5;stroke:#0000ff;"/>
   </g>
   <g id="matplotlib.axis_1">
    <g id="xtick_1">
     <g id="line2d_4">
      <path clip-path="url(#p7ff5b81e1d)" d="
M72 388.8
L72 43.2" style="fill:none;stroke:#000000;stroke-dasharray:1.000000,3.000000;stroke-dashoffset:0.0;stroke-linecap:butt;stroke-width:0.5;"/>
     </g>
     <g id="line2d_5">
      <defs>
       <path d="
M0 0
L0 -4" id="m0012dd4eef" style="stroke:#000000;stroke-linecap:butt;stroke-width:0.5;"/>
      </defs>
      <g>
       <use style="stroke:#000000;stroke-linecap:butt;stroke-width:0.5;" x="72.0" xlink:href="#m0012dd4eef" y="388.8"/>
      </g>
     </g>
     <g id="line2d_6">
      <defs>
       <path d="
M0 0
L0 4" id="m476344969c" style="stroke:#000000;stroke-linecap:butt;stroke-width:0.5;"/>
      </defs>
      <g>
       <use style="stroke:#000000;stroke-linecap:butt;stroke-width:0.5;" x="72.0" xlink:href="#m476344969c" y="43.2"/>
      </g>
     </g>
     <g id="text_1">
      <!-- 0 -->
      <defs>
       <path d="
M31.7812 66.4062
Q24.1719 66.4062 20.3281 58.9062
Q16.5 51.4219 16.5 36.375
Q16.5 21.3906 20.3281 13.8906
Q24.1719 6.39062 31.7812 6.39062
Q39.4531 6.39062 43.2812 13.8906
Q47.125 21.3906 47.125 36.375
Q47.125 51.4219 43.2812 58.9062
Q39.4531 66.4062 31.7812 66.4062
M31.7812 74.2188
Q44.0469 74.2188 50.5156 64.5156
Q56.9844 54.8281 56.9844 36.375
Q56.9844 17.9688 50.5156 8.26562
Q44.0469 -1.42188 31.7812 -1.42188
Q19.5312 -1.42188 13.0625 8.26562
Q6.59375 17.9688 6.59375 36.375
Q6.59375 54.8281 13.0625 64.5156
Q19.5312 74.2188 31.7812 74.2188" id="BitstreamVeraSans-Roman-30"/>
      </defs>
      <g transform="translate(68.9765625 401.70625)scale(0.12 -0.12)">
       <use xlink:href="#BitstreamVeraSans-Roman-30"/>
      </g>
     </g>
    </g>
    <g id="xtick_2">
     <g id="line2d_7">
      <path clip-path="url(#p7ff5b81e1d)" d="
M116.64 388.8
L116.64 43.2" style="fill:none;stroke:#000000;stroke-dasharray:1.000000,3.000000;stroke-dashoffset:0.0;stroke-linecap:butt;stroke-width:0.5;"/>
     </g>
     <g id="line2d_8">
      <g>
       <use style="stroke:#000000;stroke-linecap:butt;stroke-width:0.5;" x="116.64" xlink:href="#m0012dd4eef" y="388.8"/>
      </g>
     </g>
     <g id="line2d_9">
      <g>
       <use style="stroke:#000000;stroke-linecap:butt;stroke-width:0.5;" x="116.64" xlink:href="#m476344969c" y="43.2"/>
      </g>
     </g>
     <g id="text_2">
      <!-- 100 -->
      <defs>
       <path d="
M12.4062 8.29688
L28.5156 8.29688
L28.5156 63.9219
L10.9844 60.4062
L10.9844 69.3906
L28.4219 72.9062
L38.2812 72.9062
L38.2812 8.29688
L54.3906 8.29688
L54.3906 0
L12.4062 0
z
" id="BitstreamVeraSans-Roman-31"/>
      </defs>
      <g transform="translate(106.245 401.70625)scale(0.12 -0.12)">
       <use xlink:href="#BitstreamVeraSans-Roman-31"/>
       <use x="63.623046875" xlink:href="#BitstreamVeraSans-Roman-30"/>
       <use x="127.24609375" xlink:href="#BitstreamVeraSans-Roman-30"/>
      </g>
     </g>
    </g>
    <g id="xtick_3">
     <g id="line2d_10">
      <path clip-path="url(#p7ff5b81e1d)" d="
M161.28 388.8
L161.28 43.2" style="fill:none;stroke:#000000;stroke-dasharray:1.000000,3.000000;stroke-dashoffset:0.0;stroke-linecap:butt;stroke-width:0.5;"/>
     </g>
     <g id="line2d_11">
      <g>
       <use style="stroke:#000000;stroke-linecap:butt;stroke-width:0.5;" x="161.28" xlink:href="#m0012dd4eef" y="388.8"/>
      </g>
     </g>
     <g id="line2d_12">
      <g>
       <use style="stroke:#000000;stroke-linecap:butt;stroke-width:0.5;" x="161.28" xlink:href="#m476344969c" y="43.2"/>
      </g>
     </g>
     <g id="text_3">
      <!-- 200 -->
      <defs>
       <path d="
M19.1875 8.29688
L53.6094 8.29688
L53.6094 0
L7.32812 0
L7.32812 8.29688
Q12.9375 14.1094 22.625 23.8906
Q32.3281 33.6875 34.8125 36.5312
Q39.5469 41.8438 41.4219 45.5312
Q43.3125 49.2188 43.3125 52.7812
Q43.3125 58.5938 39.2344 62.25
Q35.1562 65.9219 28.6094 65.9219
Q23.9688 65.9219 18.8125 64.3125
Q13.6719 62.7031 7.8125 59.4219
L7.8125 69.3906
Q13.7656 71.7812 18.9375 73
Q24.125 74.2188 28.4219 74.2188
Q39.75 74.2188 46.4844 68.5469
Q53.2188 62.8906 53.2188 53.4219
Q53.2188 48.9219 51.5312 44.8906
Q49.8594 40.875 45.4062 35.4062
Q44.1875 33.9844 37.6406 27.2188
Q31.1094 20.4531 19.1875 8.29688" id="BitstreamVeraSans-Roman-32"/>
      </defs>
      <g transform="translate(150.665625 401.70625)scale(0.12 -0.12)">
       <use xlink:href="#BitstreamVeraSans-Roman-32"/>
       <use x="63.623046875" xlink:href="#BitstreamVeraSans-Roman-30"/>
       <use x="127.24609375" xlink:href="#BitstreamVeraSans-Roman-30"/>
      </g>
     </g>
    </g>
    <g id="xtick_4">
     <g id="line2d_13">
      <path clip-path="url(#p7ff5b81e1d)" d="
M205.92 388.8
L205.92 43.2" style="fill:none;stroke:#000000;stroke-dasharray:1.000000,3.000000;stroke-dashoffset:0.0;stroke-linecap:butt;stroke-width:0.5;"/>
     </g>
     <g id="line2d_14">
      <g>
       <use style="stroke:#000000;stroke-linecap:butt;stroke-width:0.5;" x="205.92" xlink:href="#m0012dd4eef" y="388.8"/>
      </g>
     </g>
     <g id="line2d_15">
      <g>
       <use style="stroke:#000000;stroke-linecap:butt;stroke-width:0.5;" x="205.92" xlink:href="#m476344969c" y="43.2"/>
      </g>
     </g>
     <g id="text_4">
      <!-- 300 -->
      <defs>
       <path d="
M40.5781 39.3125
Q47.6562 37.7969 51.625 33
Q55.6094 28.2188 55.6094 21.1875
Q55.6094 10.4062 48.1875 4.48438
Q40.7656 -1.42188 27.0938 -1.42188
Q22.5156 -1.42188 17.6562 -0.515625
Q12.7969 0.390625 7.625 2.20312
L7.625 11.7188
Q11.7188 9.32812 16.5938 8.10938
Q21.4844 6.89062 26.8125 6.89062
Q36.0781 6.89062 40.9375 10.5469
Q45.7969 14.2031 45.7969 21.1875
Q45.7969 27.6406 41.2812 31.2656
Q36.7656 34.9062 28.7188 34.9062
L20.2188 34.9062
L20.2188 43.0156
L29.1094 43.0156
Q36.375 43.0156 40.2344 45.9219
Q44.0938 48.8281 44.0938 54.2969
Q44.0938 59.9062 40.1094 62.9062
Q36.1406 65.9219 28.7188 65.9219
Q24.6562 65.9219 20.0156 65.0312
Q15.375 64.1562 9.8125 62.3125
L9.8125 71.0938
Q15.4375 72.6562 20.3438 73.4375
Q25.25 74.2188 29.5938 74.2188
Q40.8281 74.2188 47.3594 69.1094
Q53.9062 64.0156 53.9062 55.3281
Q53.9062 49.2656 50.4375 45.0938
Q46.9688 40.9219 40.5781 39.3125" id="BitstreamVeraSans-Roman-33"/>
      </defs>
      <g transform="translate(195.3234375 401.70625)scale(0.12 -0.12)">
       <use xlink:href="#BitstreamVeraSans-Roman-33"/>
       <use x="63.623046875" xlink:href="#BitstreamVeraSans-Roman-30"/>
       <use x="127.24609375" xlink:href="#BitstreamVeraSans-Roman-30"/>
      </g>
     </g>
    </g>
    <g id="xtick_5">
     <g id="line2d_16">
      <path clip-path="url(#p7ff5b81e1d)" d="
M250.56 388.8
L250.56 43.2" style="fill:none;stroke:#000000;stroke-dasharray:1.000000,3.000000;stroke-dashoffset:0.0;stroke-linecap:butt;stroke-width:0.5;"/>
     </g>
     <g id="line2d_17">
      <g>
       <use style="stroke:#000000;stroke-linecap:butt;stroke-width:0.5;" x="250.56" xlink:href="#m0012dd4eef" y="388.8"/>
      </g>
     </g>
     <g id="line2d_18">
      <g>
       <use style="stroke:#000000;stroke-linecap:butt;stroke-width:0.5;" x="250.56" xlink:href="#m476344969c" y="43.2"/>
      </g>
     </g>
     <g id="text_5">
      <!-- 400 -->
      <defs>
       <path d="
M37.7969 64.3125
L12.8906 25.3906
L37.7969 25.3906
z

M35.2031 72.9062
L47.6094 72.9062
L47.6094 25.3906
L58.0156 25.3906
L58.0156 17.1875
L47.6094 17.1875
L47.6094 0
L37.7969 0
L37.7969 17.1875
L4.89062 17.1875
L4.89062 26.7031
z
" id="BitstreamVeraSans-Roman-34"/>
      </defs>
      <g transform="translate(239.799375 401.70625)scale(0.12 -0.12)">
       <use xlink:href="#BitstreamVeraSans-Roman-34"/>
       <use x="63.623046875" xlink:href="#BitstreamVeraSans-Roman-30"/>
       <use x="127.24609375" xlink:href="#BitstreamVeraSans-Roman-30"/>
      </g>
     </g>
    </g>
    <g id="xtick_6">
     <g id="line2d_19">
      <path clip-path="url(#p7ff5b81e1d)" d="
M295.2 388.8
L295.2 43.2" style="fill:none;stroke:#000000;stroke-dasharray:1.000000,3.000000;stroke-dashoffset:0.0;stroke-linecap:butt;stroke-width:0.5;"/>
     </g>
     <g id="line2d_20">
      <g>
       <use style="stroke:#000000;stroke-linecap:butt;stroke-width:0.5;" x="295.2" xlink:href="#m0012dd4eef" y="388.8"/>
      </g>
     </g>
     <g id="line2d_21">
      <g>
       <use style="stroke:#000000;stroke-linecap:butt;stroke-width:0.5;" x="295.2" xlink:href="#m476344969c" y="43.2"/>
      </g>
     </g>
     <g id="text_6">
      <!-- 500 -->
      <defs>
       <path d="
M10.7969 72.9062
L49.5156 72.9062
L49.5156 64.5938
L19.8281 64.5938
L19.8281 46.7344
Q21.9688 47.4688 24.1094 47.8281
Q26.2656 48.1875 28.4219 48.1875
Q40.625 48.1875 47.75 41.5
Q54.8906 34.8125 54.8906 23.3906
Q54.8906 11.625 47.5625 5.09375
Q40.2344 -1.42188 26.9062 -1.42188
Q22.3125 -1.42188 17.5469 -0.640625
Q12.7969 0.140625 7.71875 1.70312
L7.71875 11.625
Q12.1094 9.23438 16.7969 8.0625
Q21.4844 6.89062 26.7031 6.89062
Q35.1562 6.89062 40.0781 11.3281
Q45.0156 15.7656 45.0156 23.3906
Q45.0156 31 40.0781 35.4375
Q35.1562 39.8906 26.7031 39.8906
Q22.75 39.8906 18.8125 39.0156
Q14.8906 38.1406 10.7969 36.2812
z
" id="BitstreamVeraSans-Roman-35"/>
      </defs>
      <g transform="translate(284.6090625 401.70625)scale(0.12 -0.12)">
       <use xlink:href="#BitstreamVeraSans-Roman-35"/>
       <use x="63.623046875" xlink:href="#BitstreamVeraSans-Roman-30"/>
       <use x="127.24609375" xlink:href="#BitstreamVeraSans-Roman-30"/>
      </g>
     </g>
    </g>
    <g id="xtick_7">
     <g id="line2d_22">
      <path clip-path="url(#p7ff5b81e1d)" d="
M339.84 388.8
L339.84 43.2" style="fill:none;stroke:#000000;stroke-dasharray:1.000000,3.000000;stroke-dashoffset:0.0;stroke-linecap:butt;stroke-width:0.5;"/>
     </g>
     <g id="line2d_23">
      <g>
       <use style="stroke:#000000;stroke-linecap:butt;stroke-width:0.5;" x="339.84" xlink:href="#m0012dd4eef" y="388.8"/>
      </g>
     </g>
     <g id="line2d_24">
      <g>
       <use style="stroke:#000000;stroke-linecap:butt;stroke-width:0.5;" x="339.84" xlink:href="#m476344969c" y="43.2"/>
      </g>
     </g>
     <g id="text_7">
      <!-- 600 -->
      <defs>
       <path d="
M33.0156 40.375
Q26.375 40.375 22.4844 35.8281
Q18.6094 31.2969 18.6094 23.3906
Q18.6094 15.5312 22.4844 10.9531
Q26.375 6.39062 33.0156 6.39062
Q39.6562 6.39062 43.5312 10.9531
Q47.4062 15.5312 47.4062 23.3906
Q47.4062 31.2969 43.5312 35.8281
Q39.6562 40.375 33.0156 40.375
M52.5938 71.2969
L52.5938 62.3125
Q48.875 64.0625 45.0938 64.9844
Q41.3125 65.9219 37.5938 65.9219
Q27.8281 65.9219 22.6719 59.3281
Q17.5312 52.7344 16.7969 39.4062
Q19.6719 43.6562 24.0156 45.9219
Q28.375 48.1875 33.5938 48.1875
Q44.5781 48.1875 50.9531 41.5156
Q57.3281 34.8594 57.3281 23.3906
Q57.3281 12.1562 50.6875 5.35938
Q44.0469 -1.42188 33.0156 -1.42188
Q20.3594 -1.42188 13.6719 8.26562
Q6.98438 17.9688 6.98438 36.375
Q6.98438 53.6562 15.1875 63.9375
Q23.3906 74.2188 37.2031 74.2188
Q40.9219 74.2188 44.7031 73.4844
Q48.4844 72.75 52.5938 71.2969" id="BitstreamVeraSans-Roman-36"/>
      </defs>
      <g transform="translate(329.205 401.70625)scale(0.12 -0.12)">
       <use xlink:href="#BitstreamVeraSans-Roman-36"/>
       <use x="63.623046875" xlink:href="#BitstreamVeraSans-Roman-30"/>
       <use x="127.24609375" xlink:href="#BitstreamVeraSans-Roman-30"/>
      </g>
     </g>
    </g>
    <g id="xtick_8">
     <g id="line2d_25">
      <path clip-path="url(#p7ff5b81e1d)" d="
M384.48 388.8
L384.48 43.2" style="fill:none;stroke:#000000;stroke-dasharray:1.000000,3.000000;stroke-dashoffset:0.0;stroke-linecap:butt;stroke-width:0.5;"/>
     </g>
     <g id="line2d_26">
      <g>
       <use style="stroke:#000000;stroke-linecap:butt;stroke-width:0.5;" x="384.48" xlink:href="#m0012dd4eef" y="388.8"/>
      </g>
     </g>
     <g id="line2d_27">
      <g>
       <use style="stroke:#000000;stroke-linecap:butt;stroke-width:0.5;" x="384.48" xlink:href="#m476344969c" y="43.2"/>
      </g>
     </g>
     <g id="text_8">
      <!-- 700 -->
      <defs>
       <path d="
M8.20312 72.9062
L55.0781 72.9062
L55.0781 68.7031
L28.6094 0
L18.3125 0
L43.2188 64.5938
L8.20312 64.5938
z
" id="BitstreamVeraSans-Roman-37"/>
      </defs>
      <g transform="translate(373.918125 401.70625)scale(0.12 -0.12)">
       <use xlink:href="#BitstreamVeraSans-Roman-37"/>
       <use x="63.623046875" xlink:href="#BitstreamVeraSans-Roman-30"/>
       <use x="127.24609375" xlink:href="#BitstreamVeraSans-Roman-30"/>
      </g>
     </g>
    </g>
    <g id="xtick_9">
     <g id="line2d_28">
      <path clip-path="url(#p7ff5b81e1d)" d="
M429.12 388.8
L429.12 43.2" style="fill:none;stroke:#000000;stroke-dasharray:1.000000,3.000000;stroke-dashoffset:0.0;stroke-linecap:butt;stroke-width:0.5;"/>
     </g>
     <g id="line2d_29">
      <g>
       <use style="stroke:#000000;stroke-linecap:butt;stroke-width:0.5;" x="429.12" xlink:href="#m0012dd4eef" y="388.8"/>
      </g>
     </g>
     <g id="line2d_30">
      <g>
       <use style="stroke:#000000;stroke-linecap:butt;stroke-width:0.5;" x="429.12" xlink:href="#m476344969c" y="43.2"/>
      </g>
     </g>
     <g id="text_9">
      <!-- 800 -->
      <defs>
       <path d="
M31.7812 34.625
Q24.75 34.625 20.7188 30.8594
Q16.7031 27.0938 16.7031 20.5156
Q16.7031 13.9219 20.7188 10.1562
Q24.75 6.39062 31.7812 6.39062
Q38.8125 6.39062 42.8594 10.1719
Q46.9219 13.9688 46.9219 20.5156
Q46.9219 27.0938 42.8906 30.8594
Q38.875 34.625 31.7812 34.625
M21.9219 38.8125
Q15.5781 40.375 12.0312 44.7188
Q8.5 49.0781 8.5 55.3281
Q8.5 64.0625 14.7188 69.1406
Q20.9531 74.2188 31.7812 74.2188
Q42.6719 74.2188 48.875 69.1406
Q55.0781 64.0625 55.0781 55.3281
Q55.0781 49.0781 51.5312 44.7188
Q48 40.375 41.7031 38.8125
Q48.8281 37.1562 52.7969 32.3125
Q56.7812 27.4844 56.7812 20.5156
Q56.7812 9.90625 50.3125 4.23438
Q43.8438 -1.42188 31.7812 -1.42188
Q19.7344 -1.42188 13.25 4.23438
Q6.78125 9.90625 6.78125 20.5156
Q6.78125 27.4844 10.7812 32.3125
Q14.7969 37.1562 21.9219 38.8125
M18.3125 54.3906
Q18.3125 48.7344 21.8438 45.5625
Q25.3906 42.3906 31.7812 42.3906
Q38.1406 42.3906 41.7188 45.5625
Q45.3125 48.7344 45.3125 54.3906
Q45.3125 60.0625 41.7188 63.2344
Q38.1406 66.4062 31.7812 66.4062
Q25.3906 66.4062 21.8438 63.2344
Q18.3125 60.0625 18.3125 54.3906" id="BitstreamVeraSans-Roman-38"/>
      </defs>
      <g transform="translate(418.4728125 401.70625)scale(0.12 -0.12)">
       <use xlink:href="#BitstreamVeraSans-Roman-38"/>
       <use x="63.623046875" xlink:href="#BitstreamVeraSans-Roman-30"/>
       <use x="127.24609375" xlink:href="#BitstreamVeraSans-Roman-30"/>
      </g>
     </g>
    </g>
    <g id="xtick_10">
     <g id="line2d_31">
      <path clip-path="url(#p7ff5b81e1d)" d="
M473.76 388.8
L473.76 43.2" style="fill:none;stroke:#000000;stroke-dasharray:1.000000,3.000000;stroke-dashoffset:0.0;stroke-linecap:butt;stroke-width:0.5;"/>
     </g>
     <g id="line2d_32">
      <g>
       <use style="stroke:#000000;stroke-linecap:butt;stroke-width:0.5;" x="473.76" xlink:href="#m0012dd4eef" y="388.8"/>
      </g>
     </g>
     <g id="line2d_33">
      <g>
       <use style="stroke:#000000;stroke-linecap:butt;stroke-width:0.5;" x="473.76" xlink:href="#m476344969c" y="43.2"/>
      </g>
     </g>
     <g id="text_10">
      <!-- 900 -->
      <defs>
       <path d="
M10.9844 1.51562
L10.9844 10.5
Q14.7031 8.73438 18.5 7.8125
Q22.3125 6.89062 25.9844 6.89062
Q35.75 6.89062 40.8906 13.4531
Q46.0469 20.0156 46.7812 33.4062
Q43.9531 29.2031 39.5938 26.9531
Q35.25 24.7031 29.9844 24.7031
Q19.0469 24.7031 12.6719 31.3125
Q6.29688 37.9375 6.29688 49.4219
Q6.29688 60.6406 12.9375 67.4219
Q19.5781 74.2188 30.6094 74.2188
Q43.2656 74.2188 49.9219 64.5156
Q56.5938 54.8281 56.5938 36.375
Q56.5938 19.1406 48.4062 8.85938
Q40.2344 -1.42188 26.4219 -1.42188
Q22.7031 -1.42188 18.8906 -0.6875
Q15.0938 0.046875 10.9844 1.51562
M30.6094 32.4219
Q37.25 32.4219 41.125 36.9531
Q45.0156 41.5 45.0156 49.4219
Q45.0156 57.2812 41.125 61.8438
Q37.25 66.4062 30.6094 66.4062
Q23.9688 66.4062 20.0938 61.8438
Q16.2188 57.2812 16.2188 49.4219
Q16.2188 41.5 20.0938 36.9531
Q23.9688 32.4219 30.6094 32.4219" id="BitstreamVeraSans-Roman-39"/>
      </defs>
      <g transform="translate(463.08375 401.70625)scale(0.12 -0.12)">
       <use xlink:href="#BitstreamVeraSans-Roman-39"/>
       <use x="63.623046875" xlink:href="#BitstreamVeraSans-Roman-30"/>
       <use x="127.24609375" xlink:href="#BitstreamVeraSans-Roman-30"/>
      </g>
     </g>
    </g>
   </g>
   <g id="matplotlib.axis_2">
    <g id="ytick_1">
     <g id="line2d_34">
      <path clip-path="url(#p7ff5b81e1d)" d="
M72 388.8
L518.4 388.8" style="fill:none;stroke:#000000;stroke-dasharray:1.000000,3.000000;stroke-dashoffset:0.0;stroke-linecap:butt;stroke-width:0.5;"/>
     </g>
     <g id="line2d_35">
      <defs>
       <path d="
M0 0
L4 0" id="me8a85f7bf6" style="stroke:#000000;stroke-linecap:butt;stroke-width:0.5;"/>
      </defs>
      <g>
       <use style="stroke:#000000;stroke-linecap:butt;stroke-width:0.5;" x="72.0" xlink:href="#me8a85f7bf6" y="388.8"/>
      </g>
     </g>
     <g id="line2d_36">
      <defs>
       <path d="
M0 0
L-4 0" id="m1a32005dea" style="stroke:#000000;stroke-linecap:butt;stroke-width:0.5;"/>
      </defs>
      <g>
       <use style="stroke:#000000;stroke-linecap:butt;stroke-width:0.5;" x="518.4" xlink:href="#m1a32005dea" y="388.8"/>
      </g>
     </g>
     <g id="text_11">
      <!-- 0.0 -->
      <defs>
       <path d="
M10.6875 12.4062
L21 12.4062
L21 0
L10.6875 0
z
" id="BitstreamVeraSans-Roman-2e"/>
      </defs>
      <g transform="translate(50.504375 393.1678125)scale(0.12 -0.12)">
       <use xlink:href="#BitstreamVeraSans-Roman-30"/>
       <use x="63.623046875" xlink:href="#BitstreamVeraSans-Roman-2e"/>
       <use x="95.41015625" xlink:href="#BitstreamVeraSans-Roman-30"/>
      </g>
     </g>
    </g>
    <g id="ytick_2">
     <g id="line2d_37">
      <path clip-path="url(#p7ff5b81e1d)" d="
M72 354.24
L518.4 354.24" style="fill:none;stroke:#000000;stroke-dasharray:1.000000,3.000000;stroke-dashoffset:0.0;stroke-linecap:butt;stroke-width:0.5;"/>
     </g>
     <g id="line2d_38">
      <g>
       <use style="stroke:#000000;stroke-linecap:butt;stroke-width:0.5;" x="72.0" xlink:href="#me8a85f7bf6" y="354.24"/>
      </g>
     </g>
     <g id="line2d_39">
      <g>
       <use style="stroke:#000000;stroke-linecap:butt;stroke-width:0.5;" x="518.4" xlink:href="#m1a32005dea" y="354.24"/>
      </g>
     </g>
     <g id="text_12">
      <!-- 0.4 -->
      <g transform="translate(50.380625 358.6078125)scale(0.12 -0.12)">
       <use xlink:href="#BitstreamVeraSans-Roman-30"/>
       <use x="63.623046875" xlink:href="#BitstreamVeraSans-Roman-2e"/>
       <use x="95.41015625" xlink:href="#BitstreamVeraSans-Roman-34"/>
      </g>
     </g>
    </g>
    <g id="ytick_3">
     <g id="line2d_40">
      <path clip-path="url(#p7ff5b81e1d)" d="
M72 319.68
L518.4 319.68" style="fill:none;stroke:#000000;stroke-dasharray:1.000000,3.000000;stroke-dashoffset:0.0;stroke-linecap:butt;stroke-width:0.5;"/>
     </g>
     <g id="line2d_41">
      <g>
       <use style="stroke:#000000;stroke-linecap:butt;stroke-width:0.5;" x="72.0" xlink:href="#me8a85f7bf6" y="319.68"/>
      </g>
     </g>
     <g id="line2d_42">
      <g>
       <use style="stroke:#000000;stroke-linecap:butt;stroke-width:0.5;" x="518.4" xlink:href="#m1a32005dea" y="319.68"/>
      </g>
     </g>
     <g id="text_13">
      <!-- 0.8 -->
      <g transform="translate(50.52875 324.0478125)scale(0.12 -0.12)">
       <use xlink:href="#BitstreamVeraSans-Roman-30"/>
       <use x="63.623046875" xlink:href="#BitstreamVeraSans-Roman-2e"/>
       <use x="95.41015625" xlink:href="#BitstreamVeraSans-Roman-38"/>
      </g>
     </g>
    </g>
    <g id="ytick_4">
     <g id="line2d_43">
      <path clip-path="url(#p7ff5b81e1d)" d="
M72 285.12
L518.4 285.12" style="fill:none;stroke:#000000;stroke-dasharray:1.000000,3.000000;stroke-dashoffset:0.0;stroke-linecap:butt;stroke-width:0.5;"/>
     </g>
     <g id="line2d_44">
      <g>
       <use style="stroke:#000000;stroke-linecap:butt;stroke-width:0.5;" x="72.0" xlink:href="#me8a85f7bf6" y="285.12"/>
      </g>
     </g>
     <g id="line2d_45">
      <g>
       <use style="stroke:#000000;stroke-linecap:butt;stroke-width:0.5;" x="518.4" xlink:href="#m1a32005dea" y="285.12"/>
      </g>
     </g>
     <g id="text_14">
      <!-- 1.2 -->
      <g transform="translate(51.43625 289.573125)scale(0.12 -0.12)">
       <use xlink:href="#BitstreamVeraSans-Roman-31"/>
       <use x="63.623046875" xlink:href="#BitstreamVeraSans-Roman-2e"/>
       <use x="95.41015625" xlink:href="#BitstreamVeraSans-Roman-32"/>
      </g>
     </g>
    </g>
    <g id="ytick_5">
     <g id="line2d_46">
      <path clip-path="url(#p7ff5b81e1d)" d="
M72 250.56
L518.4 250.56" style="fill:none;stroke:#000000;stroke-dasharray:1.000000,3.000000;stroke-dashoffset:0.0;stroke-linecap:butt;stroke-width:0.5;"/>
     </g>
     <g id="line2d_47">
      <g>
       <use style="stroke:#000000;stroke-linecap:butt;stroke-width:0.5;" x="72.0" xlink:href="#me8a85f7bf6" y="250.56"/>
      </g>
     </g>
     <g id="line2d_48">
      <g>
       <use style="stroke:#000000;stroke-linecap:butt;stroke-width:0.5;" x="518.4" xlink:href="#m1a32005dea" y="250.56"/>
      </g>
     </g>
     <g id="text_15">
      <!-- 1.6 -->
      <g transform="translate(50.99 254.9278125)scale(0.12 -0.12)">
       <use xlink:href="#BitstreamVeraSans-Roman-31"/>
       <use x="63.623046875" xlink:href="#BitstreamVeraSans-Roman-2e"/>
       <use x="95.41015625" xlink:href="#BitstreamVeraSans-Roman-36"/>
      </g>
     </g>
    </g>
    <g id="ytick_6">
     <g id="line2d_49">
      <path clip-path="url(#p7ff5b81e1d)" d="
M72 216
L518.4 216" style="fill:none;stroke:#000000;stroke-dasharray:1.000000,3.000000;stroke-dashoffset:0.0;stroke-linecap:butt;stroke-width:0.5;"/>
     </g>
     <g id="line2d_50">
      <g>
       <use style="stroke:#000000;stroke-linecap:butt;stroke-width:0.5;" x="72.0" xlink:href="#me8a85f7bf6" y="216.0"/>
      </g>
     </g>
     <g id="line2d_51">
      <g>
       <use style="stroke:#000000;stroke-linecap:butt;stroke-width:0.5;" x="518.4" xlink:href="#m1a32005dea" y="216.0"/>
      </g>
     </g>
     <g id="text_16">
      <!-- 2.0 -->
      <g transform="translate(50.5925 220.3678125)scale(0.12 -0.12)">
       <use xlink:href="#BitstreamVeraSans-Roman-32"/>
       <use x="63.623046875" xlink:href="#BitstreamVeraSans-Roman-2e"/>
       <use x="95.41015625" xlink:href="#BitstreamVeraSans-Roman-30"/>
      </g>
     </g>
    </g>
    <g id="ytick_7">
     <g id="line2d_52">
      <path clip-path="url(#p7ff5b81e1d)" d="
M72 181.44
L518.4 181.44" style="fill:none;stroke:#000000;stroke-dasharray:1.000000,3.000000;stroke-dashoffset:0.0;stroke-linecap:butt;stroke-width:0.5;"/>
     </g>
     <g id="line2d_53">
      <g>
       <use style="stroke:#000000;stroke-linecap:butt;stroke-width:0.5;" x="72.0" xlink:href="#me8a85f7bf6" y="181.44"/>
      </g>
     </g>
     <g id="line2d_54">
      <g>
       <use style="stroke:#000000;stroke-linecap:butt;stroke-width:0.5;" x="518.4" xlink:href="#m1a32005dea" y="181.44"/>
      </g>
     </g>
     <g id="text_17">
      <!-- 2.4 -->
      <g transform="translate(50.46875 185.893125)scale(0.12 -0.12)">
       <use xlink:href="#BitstreamVeraSans-Roman-32"/>
       <use x="63.623046875" xlink:href="#BitstreamVeraSans-Roman-2e"/>
       <use x="95.41015625" xlink:href="#BitstreamVeraSans-Roman-34"/>
      </g>
     </g>
    </g>
    <g id="ytick_8">
     <g id="line2d_55">
      <path clip-path="url(#p7ff5b81e1d)" d="
M72 146.88
L518.4 146.88" style="fill:none;stroke:#000000;stroke-dasharray:1.000000,3.000000;stroke-dashoffset:0.0;stroke-linecap:butt;stroke-width:0.5;"/>
     </g>
     <g id="line2d_56">
      <g>
       <use style="stroke:#000000;stroke-linecap:butt;stroke-width:0.5;" x="72.0" xlink:href="#me8a85f7bf6" y="146.88"/>
      </g>
     </g>
     <g id="line2d_57">
      <g>
       <use style="stroke:#000000;stroke-linecap:butt;stroke-width:0.5;" x="518.4" xlink:href="#m1a32005dea" y="146.88"/>
      </g>
     </g>
     <g id="text_18">
      <!-- 2.8 -->
      <g transform="translate(50.616875 151.2478125)scale(0.12 -0.12)">
       <use xlink:href="#BitstreamVeraSans-Roman-32"/>
       <use x="63.623046875" xlink:href="#BitstreamVeraSans-Roman-2e"/>
       <use x="95.41015625" xlink:href="#BitstreamVeraSans-Roman-38"/>
      </g>
     </g>
    </g>
    <g id="ytick_9">
     <g id="line2d_58">
      <path clip-path="url(#p7ff5b81e1d)" d="
M72 112.32
L518.4 112.32" style="fill:none;stroke:#000000;stroke-dasharray:1.000000,3.000000;stroke-dashoffset:0.0;stroke-linecap:butt;stroke-width:0.5;"/>
     </g>
     <g id="line2d_59">
      <g>
       <use style="stroke:#000000;stroke-linecap:butt;stroke-width:0.5;" x="72.0" xlink:href="#me8a85f7bf6" y="112.32"/>
      </g>
     </g>
     <g id="line2d_60">
      <g>
       <use style="stroke:#000000;stroke-linecap:butt;stroke-width:0.5;" x="518.4" xlink:href="#m1a32005dea" y="112.32"/>
      </g>
     </g>
     <g id="text_19">
      <!-- 3.2 -->
      <g transform="translate(51.033125 116.6878125)scale(0.12 -0.12)">
       <use xlink:href="#BitstreamVeraSans-Roman-33"/>
       <use x="63.623046875" xlink:href="#BitstreamVeraSans-Roman-2e"/>
       <use x="95.41015625" xlink:href="#BitstreamVeraSans-Roman-32"/>
      </g>
     </g>
    </g>
    <g id="ytick_10">
     <g id="line2d_61">
      <path clip-path="url(#p7ff5b81e1d)" d="
M72 77.76
L518.4 77.76" style="fill:none;stroke:#000000;stroke-dasharray:1.000000,3.000000;stroke-dashoffset:0.0;stroke-linecap:butt;stroke-width:0.5;"/>
     </g>
     <g id="line2d_62">
      <g>
       <use style="stroke:#000000;stroke-linecap:butt;stroke-width:0.5;" x="72.0" xlink:href="#me8a85f7bf6" y="77.76"/>
      </g>
     </g>
     <g id="line2d_63">
      <g>
       <use style="stroke:#000000;stroke-linecap:butt;stroke-width:0.5;" x="518.4" xlink:href="#m1a32005dea" y="77.76"/>
      </g>
     </g>
     <g id="text_20">
      <!-- 3.6 -->
      <g transform="translate(50.586875 82.1278125)scale(0.12 -0.12)">
       <use xlink:href="#BitstreamVeraSans-Roman-33"/>
       <use x="63.623046875" xlink:href="#BitstreamVeraSans-Roman-2e"/>
       <use x="95.41015625" xlink:href="#BitstreamVeraSans-Roman-36"/>
      </g>
     </g>
    </g>
    <g id="text_21">
     <!-- Sec/file -->
     <defs>
      <path d="
M9.42188 75.9844
L18.4062 75.9844
L18.4062 0
L9.42188 0
z
" id="BitstreamVeraSans-Roman-6c"/>
      <path d="
M53.5156 70.5156
L53.5156 60.8906
Q47.9062 63.5781 42.9219 64.8906
Q37.9375 66.2188 33.2969 66.2188
Q25.25 66.2188 20.875 63.0938
Q16.5 59.9688 16.5 54.2031
Q16.5 49.3594 19.4062 46.8906
Q22.3125 44.4375 30.4219 42.9219
L36.375 41.7031
Q47.4062 39.5938 52.6562 34.2969
Q57.9062 29 57.9062 20.125
Q57.9062 9.51562 50.7969 4.04688
Q43.7031 -1.42188 29.9844 -1.42188
Q24.8125 -1.42188 18.9688 -0.25
Q13.1406 0.921875 6.89062 3.21875
L6.89062 13.375
Q12.8906 10.0156 18.6562 8.29688
Q24.4219 6.59375 29.9844 6.59375
Q38.4219 6.59375 43.0156 9.90625
Q47.6094 13.2344 47.6094 19.3906
Q47.6094 24.75 44.3125 27.7812
Q41.0156 30.8125 33.5 32.3281
L27.4844 33.5
Q16.4531 35.6875 11.5156 40.375
Q6.59375 45.0625 6.59375 53.4219
Q6.59375 63.0938 13.4062 68.6562
Q20.2188 74.2188 32.1719 74.2188
Q37.3125 74.2188 42.625 73.2812
Q47.9531 72.3594 53.5156 70.5156" id="BitstreamVeraSans-Roman-53"/>
      <path d="
M9.42188 54.6875
L18.4062 54.6875
L18.4062 0
L9.42188 0
z

M9.42188 75.9844
L18.4062 75.9844
L18.4062 64.5938
L9.42188 64.5938
z
" id="BitstreamVeraSans-Roman-69"/>
      <path d="
M25.3906 72.9062
L33.6875 72.9062
L8.29688 -9.28125
L0 -9.28125
z
" id="BitstreamVeraSans-Roman-2f"/>
      <path d="
M56.2031 29.5938
L56.2031 25.2031
L14.8906 25.2031
Q15.4844 15.9219 20.4844 11.0625
Q25.4844 6.20312 34.4219 6.20312
Q39.5938 6.20312 44.4531 7.46875
Q49.3125 8.73438 54.1094 11.2812
L54.1094 2.78125
Q49.2656 0.734375 44.1875 -0.34375
Q39.1094 -1.42188 33.8906 -1.42188
Q20.7969 -1.42188 13.1562 6.1875
Q5.51562 13.8125 5.51562 26.8125
Q5.51562 40.2344 12.7656 48.1094
Q20.0156 56 32.3281 56
Q43.3594 56 49.7812 48.8906
Q56.2031 41.7969 56.2031 29.5938
M47.2188 32.2344
Q47.125 39.5938 43.0938 43.9844
Q39.0625 48.3906 32.4219 48.3906
Q24.9062 48.3906 20.3906 44.1406
Q15.875 39.8906 15.1875 32.1719
z
" id="BitstreamVeraSans-Roman-65"/>
      <path d="
M37.1094 75.9844
L37.1094 68.5
L28.5156 68.5
Q23.6875 68.5 21.7969 66.5469
Q19.9219 64.5938 19.9219 59.5156
L19.9219 54.6875
L34.7188 54.6875
L34.7188 47.7031
L19.9219 47.7031
L19.9219 0
L10.8906 0
L10.8906 47.7031
L2.29688 47.7031
L2.29688 54.6875
L10.8906 54.6875
L10.8906 58.5
Q10.8906 67.625 15.1406 71.7969
Q19.3906 75.9844 28.6094 75.9844
z
" id="BitstreamVeraSans-Roman-66"/>
      <path d="
M48.7812 52.5938
L48.7812 44.1875
Q44.9688 46.2969 41.1406 47.3438
Q37.3125 48.3906 33.4062 48.3906
Q24.6562 48.3906 19.8125 42.8438
Q14.9844 37.3125 14.9844 27.2969
Q14.9844 17.2812 19.8125 11.7344
Q24.6562 6.20312 33.4062 6.20312
Q37.3125 6.20312 41.1406 7.25
Q44.9688 8.29688 48.7812 10.4062
L48.7812 2.09375
Q45.0156 0.34375 40.9844 -0.53125
Q36.9688 -1.42188 32.4219 -1.42188
Q20.0625 -1.42188 12.7812 6.34375
Q5.51562 14.1094 5.51562 27.2969
Q5.51562 40.6719 12.8594 48.3281
Q20.2188 56 33.0156 56
Q37.1562 56 41.1094 55.1406
Q45.0625 54.2969 48.7812 52.5938" id="BitstreamVeraSans-Roman-63"/>
     </defs>
     <g transform="translate(45.380625 236.13)rotate(-90.0)scale(0.12 -0.12)">
      <use xlink:href="#BitstreamVeraSans-Roman-53"/>
      <use x="63.4765625" xlink:href="#BitstreamVeraSans-Roman-65"/>
      <use x="125.0" xlink:href="#BitstreamVeraSans-Roman-63"/>
      <use x="179.98046875" xlink:href="#BitstreamVeraSans-Roman-2f"/>
      <use x="213.671875" xlink:href="#BitstreamVeraSans-Roman-66"/>
      <use x="248.876953125" xlink:href="#BitstreamVeraSans-Roman-69"/>
      <use x="276.66015625" xlink:href="#BitstreamVeraSans-Roman-6c"/>
      <use x="304.443359375" xlink:href="#BitstreamVeraSans-Roman-65"/>
     </g>
    </g>
   </g>
   <g id="patch_3">
    <path d="
M72 43.2
L518.4 43.2" style="fill:none;stroke:#000000;"/>
   </g>
   <g id="patch_4">
    <path d="
M518.4 388.8
L518.4 43.2" style="fill:none;stroke:#000000;"/>
   </g>
   <g id="patch_5">
    <path d="
M72 388.8
L518.4 388.8" style="fill:none;stroke:#000000;"/>
   </g>
   <g id="patch_6">
    <path d="
M72 388.8
L72 43.2" style="fill:none;stroke:#000000;"/>
   </g>
   <g id="text_22">
    <!-- Seq -->
    <defs>
     <path d="
M14.7969 27.2969
Q14.7969 17.3906 18.875 11.75
Q22.9531 6.10938 30.0781 6.10938
Q37.2031 6.10938 41.2969 11.75
Q45.4062 17.3906 45.4062 27.2969
Q45.4062 37.2031 41.2969 42.8438
Q37.2031 48.4844 30.0781 48.4844
Q22.9531 48.4844 18.875 42.8438
Q14.7969 37.2031 14.7969 27.2969
M45.4062 8.20312
Q42.5781 3.32812 38.25 0.953125
Q33.9375 -1.42188 27.875 -1.42188
Q17.9688 -1.42188 11.7344 6.48438
Q5.51562 14.4062 5.51562 27.2969
Q5.51562 40.1875 11.7344 48.0938
Q17.9688 56 27.875 56
Q33.9375 56 38.25 53.625
Q42.5781 51.2656 45.4062 46.3906
L45.4062 54.6875
L54.3906 54.6875
L54.3906 -20.7969
L45.4062 -20.7969
z
" id="BitstreamVeraSans-Roman-71"/>
    </defs>
    <g transform="translate(282.7575 38.2)scale(0.144 -0.144)">
     <use xlink:href="#BitstreamVeraSans-Roman-53"/>
     <use x="63.4765625" xlink:href="#BitstreamVeraSans-Roman-65"/>
     <use x="125.0" xlink:href="#BitstreamVeraSans-Roman-71"/>
    </g>
   </g>
   <g id="legend_1">
    <g id="patch_7">
     <path d="
M429.055 115.339
L511.2 115.339
L511.2 50.4
L429.055 50.4
L429.055 115.339
z
" style="fill:#ffffff;stroke:#000000;"/>
    </g>
    <g id="line2d_64">
     <path d="
M439.135 62.0617
L459.295 62.0617" style="fill:none;stroke:#ff0000;"/>
    </g>
    <g id="line2d_65"/>
    <g id="text_23">
     <!-- LRU -->
     <defs>
      <path d="
M44.3906 34.1875
Q47.5625 33.1094 50.5625 29.5938
Q53.5625 26.0781 56.5938 19.9219
L66.6094 0
L56 0
L46.6875 18.7031
Q43.0625 26.0312 39.6719 28.4219
Q36.2812 30.8125 30.4219 30.8125
L19.6719 30.8125
L19.6719 0
L9.8125 0
L9.8125 72.9062
L32.0781 72.9062
Q44.5781 72.9062 50.7344 67.6719
Q56.8906 62.4531 56.8906 51.9062
Q56.8906 45.0156 53.6875 40.4688
Q50.4844 35.9375 44.3906 34.1875
M19.6719 64.7969
L19.6719 38.9219
L32.0781 38.9219
Q39.2031 38.9219 42.8438 42.2188
Q46.4844 45.5156 46.4844 51.9062
Q46.4844 58.2969 42.8438 61.5469
Q39.2031 64.7969 32.0781 64.7969
z
" id="BitstreamVeraSans-Roman-52"/>
      <path d="
M9.8125 72.9062
L19.6719 72.9062
L19.6719 8.29688
L55.1719 8.29688
L55.1719 0
L9.8125 0
z
" id="BitstreamVeraSans-Roman-4c"/>
      <path d="
M8.6875 72.9062
L18.6094 72.9062
L18.6094 28.6094
Q18.6094 16.8906 22.8438 11.7344
Q27.0938 6.59375 36.625 6.59375
Q46.0938 6.59375 50.3438 11.7344
Q54.5938 16.8906 54.5938 28.6094
L54.5938 72.9062
L64.5 72.9062
L64.5 27.3906
Q64.5 13.1406 57.4375 5.85938
Q50.3906 -1.42188 36.625 -1.42188
Q22.7969 -1.42188 15.7344 5.85938
Q8.6875 13.1406 8.6875 27.3906
z
" id="BitstreamVeraSans-Roman-55"/>
     </defs>
     <g transform="translate(475.13475 67.10175)scale(0.144 -0.144)">
      <use xlink:href="#BitstreamVeraSans-Roman-4c"/>
      <use x="55.712890625" xlink:href="#BitstreamVeraSans-Roman-52"/>
      <use x="125.1953125" xlink:href="#BitstreamVeraSans-Roman-55"/>
     </g>
    </g>
    <g id="line2d_66">
     <path d="
M439.135 83.1983
L459.295 83.1983" style="fill:none;opacity:0.7;stroke:#008000;"/>
    </g>
    <g id="line2d_67"/>
    <g id="text_24">
     <!-- MRU -->
     <defs>
      <path d="
M9.8125 72.9062
L24.5156 72.9062
L43.1094 23.2969
L61.8125 72.9062
L76.5156 72.9062
L76.5156 0
L66.8906 0
L66.8906 64.0156
L48.0938 14.0156
L38.1875 14.0156
L19.3906 64.0156
L19.3906 0
L9.8125 0
z
" id="BitstreamVeraSans-Roman-4d"/>
     </defs>
     <g transform="translate(475.13475 88.23825)scale(0.144 -0.144)">
      <use xlink:href="#BitstreamVeraSans-Roman-4d"/>
      <use x="86.279296875" xlink:href="#BitstreamVeraSans-Roman-52"/>
      <use x="155.76171875" xlink:href="#BitstreamVeraSans-Roman-55"/>
     </g>
    </g>
    <g id="line2d_68">
     <path d="
M439.135 104.335
L459.295 104.335" style="fill:none;opacity:0.5;stroke:#0000ff;"/>
    </g>
    <g id="line2d_69"/>
    <g id="text_25">
     <!-- FIFO -->
     <defs>
      <path d="
M9.8125 72.9062
L51.7031 72.9062
L51.7031 64.5938
L19.6719 64.5938
L19.6719 43.1094
L48.5781 43.1094
L48.5781 34.8125
L19.6719 34.8125
L19.6719 0
L9.8125 0
z
" id="BitstreamVeraSans-Roman-46"/>
      <path d="
M9.8125 72.9062
L19.6719 72.9062
L19.6719 0
L9.8125 0
z
" id="BitstreamVeraSans-Roman-49"/>
      <path d="
M39.4062 66.2188
Q28.6562 66.2188 22.3281 58.2031
Q16.0156 50.2031 16.0156 36.375
Q16.0156 22.6094 22.3281 14.5938
Q28.6562 6.59375 39.4062 6.59375
Q50.1406 6.59375 56.4219 14.5938
Q62.7031 22.6094 62.7031 36.375
Q62.7031 50.2031 56.4219 58.2031
Q50.1406 66.2188 39.4062 66.2188
M39.4062 74.2188
Q54.7344 74.2188 63.9062 63.9375
Q73.0938 53.6562 73.0938 36.375
Q73.0938 19.1406 63.9062 8.85938
Q54.7344 -1.42188 39.4062 -1.42188
Q24.0312 -1.42188 14.8125 8.82812
Q5.60938 19.0938 5.60938 36.375
Q5.60938 53.6562 14.8125 63.9375
Q24.0312 74.2188 39.4062 74.2188" id="BitstreamVeraSans-Roman-4f"/>
     </defs>
     <g transform="translate(475.13475 109.37475)scale(0.144 -0.144)">
      <use xlink:href="#BitstreamVeraSans-Roman-46"/>
      <use x="57.51953125" xlink:href="#BitstreamVeraSans-Roman-49"/>
      <use x="87.01171875" xlink:href="#BitstreamVeraSans-Roman-46"/>
      <use x="144.53125" xlink:href="#BitstreamVeraSans-Roman-4f"/>
     </g>
    </g>
   </g>
  </g>
 </g>
 <defs>
  <clipPath id="p7ff5b81e1d">
   <rect height="345.6" width="446.4" x="72.0" y="43.2"/>
  </clipPath>
 </defs>
</svg>
