<?xml version="1.0" encoding="utf-8" standalone="no"?>
<!DOCTYPE svg PUBLIC "-//W3C//DTD SVG 1.1//EN"
  "http://www.w3.org/Graphics/SVG/1.1/DTD/svg11.dtd">
<!-- Created with matplotlib (http://matplotlib.sourceforge.net/) -->
<svg height="432pt" version="1.1" viewBox="0 0 576 432" width="576pt" xmlns="http://www.w3.org/2000/svg" xmlns:xlink="http://www.w3.org/1999/xlink">
 <defs>
  <style type="text/css">
*{stroke-linecap:square;stroke-linejoin:round;}
  </style>
 </defs>
 <g id="figure_1">
  <g id="patch_1">
   <path d="
M0 432
L576 432
L576 0
L0 0
z
" style="fill:#ffffff;"/>
  </g>
  <g id="axes_1">
   <g id="patch_2">
    <path d="
M72 388.8
L518.4 388.8
L518.4 43.2
L72 43.2
z
" style="fill:#ffffff;"/>
   </g>
   <g id="line2d_1">
    <path clip-path="url(#p7ff5b81e1d)" d="
M72 302.182
L72.4464 249.697
L72.8928 304.339
L73.3392 304.08
L73.7856 286.389
L74.232 300.533
L74.6784 302.993
L75.1248 284.526
L75.5712 287.231
L76.0176 287.337
L76.464 304.687
L76.9104 304.599
L77.3568 297.312
L77.8032 305.584
L78.2496 304.099
L78.696 297.413
L79.1424 302.351
L79.5888 303.062
L80.0352 303.151
L80.4816 291.376
L80.928 303.633
L81.3744 304.455
L81.8208 303.679
L82.2672 302.023
L82.7136 303.53
L83.16 304.508
L83.6064 304.526
L84.0528 290.055
L84.4992 286.566
L84.9456 300.962
L85.392 301.364
L85.8384 302.805
L86.2848 297.077
L86.7312 302.855
L87.1776 304.037
L87.624 303.658
L88.0704 301.071
L88.5168 303.444
L89.4096 300.243
L89.856 302.348
L90.7488 303.509
L91.1952 292.107
L91.6416 303.395
L92.088 301.333
L92.5344 303.493
L92.9808 302.509
L93.4272 301.928
L93.8736 304.577
L94.32 321.987
L94.7664 329.063
L95.2128 312.858
L95.6592 329.474
L96.1056 320.109
L96.552 328.129
L96.9984 329.244
L97.4448 328.666
L97.8912 329.179
L98.3376 329.056
L98.784 327.38
L99.2304 329.885
L99.6768 329.782
L100.123 325.896
L100.57 328.578
L101.016 327.662
L101.909 329.339
L102.355 329.198
L102.802 328.318
L103.248 330.032
L103.694 329.408
L104.141 324.586
L104.587 328.935
L105.034 327.251
L105.48 328.629
L105.926 328.529
L106.373 327.25
L106.819 328.765
L107.712 328.002
L108.605 328.309
L109.051 310.678
L109.498 328.597
L109.944 326.514
L110.39 327.705
L110.837 330.095
L111.283 326.694
L111.73 311.154
L112.176 328.491
L112.622 328.646
L113.069 314.64
L113.515 328.821
L113.962 329.147
L114.408 328.194
L114.854 328.286
L115.301 317.772
L115.747 294.19
L116.194 328.088
L116.64 328.364
L117.086 328.175
L117.533 328.993
L117.979 329.249
L118.426 327.859
L118.872 327.885
L119.318 323.854
L119.765 329.679
L120.211 329.519
L120.658 328.118
L121.104 330.444
L121.55 329.416
L121.997 326.096
L122.443 329.824
L122.89 329.565
L123.336 308.292
L123.782 328.078
L124.229 327.956
L124.675 327.71
L125.122 328.204
L125.568 310.797
L126.014 312.71
L126.461 329.456
L126.907 328.284
L127.354 318.656
L127.8 329.53
L128.246 330.148
L128.693 325.958
L129.139 329.097
L129.586 328.23
L130.032 329.613
L130.478 329.114
L130.925 329.048
L131.371 327.408
L131.818 312.325
L132.264 329.357
L132.71 328.4
L133.157 327.862
L133.603 329.636
L134.05 328.768
L134.496 328.811
L134.942 328.679
L135.389 311.124
L135.835 330.019
L136.282 330.143
L136.728 328.217
L137.174 319.229
L137.621 330.1
L138.067 328.192
L138.514 328.325
L138.96 313.932
L139.406 310.971
L139.853 327.999
L140.299 328.986
L140.746 328.893
L141.192 328.072
L141.638 318.698
L142.085 327.979
L142.531 316.067
L142.978 327.816
L143.424 328.716
L143.87 327.99
L144.317 328.497
L144.763 328.676
L145.21 328.374
L145.656 326.629
L146.102 328.095
L146.549 328.192
L146.995 310.899
L147.442 328.076
L147.888 328.493
L148.334 325.323
L148.781 328.94
L149.227 328.008
L149.674 328.341
L150.12 329.9
L150.566 330.101
L151.013 326.716
L151.459 329.307
L151.906 327.951
L152.352 329.057
L152.798 329.114
L153.245 329.011
L153.691 328.574
L154.138 329.087
L154.584 329.826
L155.03 327.542
L155.477 312.249
L155.923 328.351
L156.37 329.108
L156.816 328.828
L157.262 329.361
L157.709 328.373
L158.155 317.826
L158.602 329.491
L159.048 328.3
L159.494 327.693
L159.941 329.882
L160.387 328.318
L160.834 329.169
L161.28 320.574
L161.726 320.153
L162.173 321.813
L162.619 321.469
L163.066 321.615
L163.512 320.192
L163.958 321.447
L164.405 321.765
L164.851 321.577
L165.298 321.78
L165.744 317.887
L166.19 321.445
L166.637 313.316
L167.083 322.439
L167.53 318.696
L167.976 311.907
L168.422 320.336
L168.869 317.051
L169.315 319.875
L169.762 314.371
L170.208 320.072
L170.654 309.634
L171.101 320.832
L171.547 312.093
L171.994 319.546
L172.44 322.456
L172.886 320.832
L173.333 317.857
L173.779 320.667
L174.226 315.498
L174.672 304.073
L175.118 320.06
L175.565 320.827
L176.011 319.88
L176.458 321.307
L176.904 320.075
L177.35 320.003
L177.797 321.064
L178.243 319.894
L178.69 320.135
L179.136 320.835
L179.582 319.415
L180.029 320.775
L180.475 313.833
L180.922 321.508
L181.368 312.932
L181.814 320.825
L182.261 297.99
L182.707 318.695
L183.154 300.554
L183.6 328.867
L184.046 327.789
L184.493 330.269
L184.939 329.221
L185.386 328.998
L185.832 327.784
L186.278 329.494
L186.725 329.394
L188.064 329.864
L188.51 327.419
L188.957 311.895
L189.403 328.55
L189.85 328.433
L190.296 308.938
L190.742 328.464
L191.189 329.263
L191.635 328.286
L192.082 328.467
L192.528 329.105
L192.974 330.054
L193.421 329.776
L193.867 295.446
L194.314 327.544
L194.76 328.812
L195.206 329.275
L195.653 329.292
L196.099 328.374
L196.546 328.582
L196.992 329.809
L197.438 317.427
L197.885 328.683
L198.331 328.48
L198.778 325.868
L199.224 327.572
L199.67 303.751
L200.117 327.894
L200.563 310.568
L201.01 328.606
L201.456 303.022
L201.902 328.315
L202.349 311.313
L202.795 329.35
L203.242 317.256
L203.688 327.317
L204.134 329.508
L204.581 330.367
L205.027 327.995
L205.474 328.525
L205.92 311.786
L206.366 329.59
L206.813 324.061
L207.259 329.91
L207.706 330.084
L208.152 325.83
L208.598 329.591
L209.045 329.685
L209.491 328.752
L209.938 330.077
L210.384 330.286
L210.83 327.146
L211.277 306.251
L211.723 328.585
L212.17 328.653
L212.616 326.635
L213.062 328.177
L213.509 328.81
L213.955 327.586
L214.402 310.535
L214.848 327.171
L215.294 328.98
L215.741 327.772
L216.187 327.646
L216.634 329.066
L217.08 329.709
L217.526 329.072
L217.973 327.988
L218.419 328.683
L218.866 328.06
L219.312 329.314
L219.758 328.308
L220.204 -1
M220.206 -1
L220.651 207.064
L221.098 328.739
L221.544 312.563
L221.99 328.584
L222.437 311.625
L222.883 328.931
L223.33 312.395
L223.776 327.832
L224.222 313.594
L224.669 315.39
L225.115 328.935
L225.562 330.321
L226.008 328.238
L226.454 328.635
L226.901 311.245
L227.347 327.192
L227.794 330.012
L228.24 311.748
L228.686 319.515
L229.133 329.72
L229.579 329.438
L230.472 328.09
L230.918 328.614
L231.365 326.693
L231.811 329.001
L232.258 329.856
L232.704 328.132
L233.597 329.979
L234.043 329.187
L234.49 329.946
L234.936 327.903
L235.382 328.907
L235.829 329
L236.275 328.652
L236.722 329.148
L237.614 329.571
L238.061 329.85
L238.507 311.115
L238.954 329.073
L239.4 329.81
L239.846 329.635
L240.293 320.36
L240.739 329.759
L241.186 328.44
L241.632 329.407
L242.078 328.849
L242.525 329.016
L242.971 328.805
L243.418 328.949
L243.864 327.505
L244.31 329.262
L244.757 311.681
L245.203 328.457
L245.65 328.991
L246.096 319.443
L246.542 328.445
L246.989 328.519
L247.435 329.3
L247.882 329.746
L248.774 327.133
L249.221 313.494
L249.667 328.199
L250.114 328.31
L250.56 319.78
L251.006 319.874
L251.453 321.792
L251.899 321.872
L252.346 304.166
L252.792 319.733
L253.685 322.171
L254.131 320.018
L254.578 322.575
L255.024 320.882
L255.47 293.987
L255.917 321.654
L256.363 304.831
L256.81 321.355
L257.256 318.462
L257.702 320.833
L258.149 319.346
L258.595 321.155
L259.042 314.571
L259.488 320.735
L259.934 316.431
L260.381 321.37
L260.827 312.718
L261.274 320.32
L261.72 316.604
L262.166 321.578
L263.059 304.201
L263.506 318.552
L263.952 320.359
L264.398 321.588
L264.845 319.565
L265.738 319.781
L266.184 316.921
L266.63 319.258
L267.077 315.41
L267.523 319.903
L267.97 316.198
L268.416 320.182
L268.862 315.235
L269.309 319.794
L269.755 290.155
L270.202 321.008
L270.648 319.613
L271.094 321.156
L271.541 319.647
L271.987 320.104
L272.434 304.886
L272.88 314.57
L273.326 327.957
L273.773 330.486
L274.219 328.743
L274.666 329.302
L275.112 328.291
L275.558 328.443
L276.005 329.932
L276.451 329.71
L276.898 327.846
L277.344 330.34
L277.79 329.343
L278.237 329.902
L278.683 329.949
L279.13 324.188
L279.576 327.662
L280.022 328.835
L280.469 329.115
L280.915 328.438
L281.362 328.786
L281.808 328.431
L282.254 329.346
L282.701 329.542
L283.147 328.141
L283.594 320.971
L284.04 330.21
L284.486 329.109
L284.933 328.586
L285.379 320.684
L285.826 328.753
L286.272 328.2
L286.718 325.584
L287.165 329.381
L287.611 328.476
L288.058 328.746
L288.504 329.904
L288.95 328.587
L289.397 326.596
L289.843 311.555
L290.29 328.273
L290.736 328.33
L291.629 327.693
L292.075 329.204
L292.522 328.403
L292.968 310.561
L293.414 327.599
L293.861 328.665
L294.307 327.834
L294.754 312.136
L295.2 327.845
L295.646 327.293
L296.093 324.264
L296.539 312.046
L296.986 312.242
L297.432 326.387
L297.878 328.047
L298.325 328.89
L298.771 328.418
L299.218 328.396
L299.664 329.245
L300.11 328.436
L300.557 328.757
L301.003 328.696
L301.45 328.925
L301.896 327.967
L302.342 328.407
L302.789 313.327
L303.235 327.903
L304.128 329.379
L304.574 329.741
L305.021 312.772
L305.467 325.309
L305.914 328.511
L306.36 329.817
L306.806 329.907
L307.253 328.376
L307.699 329.228
L308.146 327.964
L308.592 329.616
L309.038 329.085
L309.485 327.071
L309.931 327.722
L310.378 324.275
L310.824 328.284
L311.27 327.686
L311.717 327.96
L312.163 327.914
L312.61 328.043
L313.056 328.052
L313.502 328.468
L313.949 327.477
L314.395 327.879
L314.842 311.625
L315.288 327.762
L316.181 328.824
L316.627 327.536
L317.074 328.21
L317.52 327.96
L317.966 329.175
L318.413 312.383
L318.859 311.881
L319.306 329.178
L319.752 327.538
L320.198 318.278
L320.645 329.761
L321.091 312.304
L321.538 329.613
L321.984 312.434
L322.43 327.705
L322.877 330.411
L323.323 328.96
L323.77 329.468
L324.216 327.042
L324.662 325.666
L325.109 328.668
L325.555 329.1
L326.002 311.107
L326.448 329.304
L326.894 327.188
L327.341 329.554
L327.787 328.044
L328.234 329.288
L328.68 329.752
L329.126 325.173
L329.573 328.225
L330.019 328.972
L330.466 325.392
L330.912 329.436
L331.358 328.833
L331.805 329.335
L332.698 329.146
L333.144 329.42
L333.59 311.051
L334.037 329.249
L334.483 328.62
L335.376 328.672
L335.822 328.659
L336.269 328.99
L336.715 329.073
L337.162 329.907
L337.608 310.754
L338.054 329.54
L338.501 329.856
L338.947 328.463
L339.394 328.955
L339.84 320.354
L340.286 320.29
L340.733 321.436
L341.179 321.231
L341.626 321.591
L342.072 318.913
L342.518 321.256
L342.965 317.274
L343.411 321.295
L343.858 315.326
L344.304 321.259
L344.75 314.801
L345.197 320.928
L345.643 316.5
L346.09 321.739
L346.536 301.563
L346.982 303.712
L347.429 320.632
L347.875 321.075
L348.322 320.247
L348.768 287.392
L349.214 321.444
L349.661 316.224
L350.107 319.819
L350.554 317.522
L351 321.591
L351.446 315.725
L351.893 319.848
L352.339 309.715
L352.786 320.111
L353.232 320.41
L353.678 319.982
L354.125 320.933
L354.571 320.565
L355.018 320.935
L355.464 321.033
L355.91 318.224
L356.357 304.273
L356.803 320.645
L357.696 320.588
L358.142 320.475
L358.589 319.802
L359.035 321.558
L359.928 319.689
L360.374 316.537
L360.821 321.228
L361.267 314.605
L361.714 320.71
L362.16 324.962
L362.606 327.982
L363.053 329.533
L363.499 329.364
L363.946 329.624
L364.392 326.209
L364.838 329.57
L365.285 328.734
L365.731 329.746
L366.178 329.458
L366.624 329.81
L367.07 329.318
L367.963 329.845
L368.41 328.939
L368.856 327.65
L369.302 328.306
L369.749 328.451
L370.195 328.096
L371.088 329.03
L371.534 329.295
L371.981 319.133
L372.427 328.127
L372.874 329.209
L373.32 328.096
L373.766 329.594
L374.213 312.54
L374.659 285.638
L375.106 328.197
L375.552 329.043
L375.998 328.004
L376.445 320.419
L376.891 328.11
L377.784 329.797
L378.23 323.24
L378.677 329.12
L379.123 328.915
L379.57 311.995
L380.016 327.206
L380.462 328.093
L380.909 327.042
L381.355 328.646
L381.802 328.43
L382.248 307.801
L382.694 328.616
L383.141 329.466
L383.587 318.423
L384.034 328.802
L384.48 311.786
L384.926 327.061
L385.373 330.47
L385.819 329.464
L386.266 329.686
L386.712 328.032
L387.158 328.893
L387.605 317.782
L388.051 329.296
L388.498 329.107
L388.944 329.794
L389.39 329.228
L389.837 329.622
L390.283 327.921
L390.73 321.22
L391.176 326.936
L391.622 327.782
L392.069 328.017
L392.515 327.465
L392.962 327.455
L393.408 328.682
L393.854 328.378
L394.301 328.427
L394.747 327.76
L395.194 327.816
L395.64 330.652
L396.086 311.095
L396.533 327.311
L396.979 328.223
L397.426 315.06
L397.872 328.133
L398.318 327.962
L398.765 328.306
L399.211 327.805
L399.658 327.913
L400.104 314.067
L400.55 326.984
L400.997 328.108
L401.443 325.306
L401.89 328.937
L402.336 312.162
L402.782 327.154
L403.229 329.693
L403.675 328.856
L404.122 330.233
L404.568 327.808
L405.014 329.276
L405.461 328.949
L405.907 328.191
L406.354 328.948
L406.8 329.128
L407.246 318.27
L407.693 329.102
L408.139 329.916
L408.586 329.459
L409.032 328.341
L409.478 321.173
L409.925 329.558
L410.371 329.261
L410.818 330.479
L411.264 312.692
L411.71 325.444
L412.157 328.929
L412.603 329.764
L413.05 329.102
L413.496 327.731
L413.942 329.036
L415.282 328.627
L415.728 329.504
L416.621 327.815
L417.067 326.898
L417.514 315.577
L417.96 311.71
L418.406 328.469
L418.853 329.407
L419.299 328.803
L419.746 318.158
L420.192 311.667
L420.638 325.927
L421.085 329.114
L421.531 326.815
L421.978 327.743
L422.424 329.418
L422.87 323.191
L423.317 328.944
L423.763 328.294
L424.21 328.423
L424.656 329.271
L425.102 328.647
L425.549 311.048
L425.995 327.587
L426.442 328.704
L426.888 293.612
L427.334 329.335
L427.781 329.154
L428.227 328.6
L428.674 328.572
L429.12 318.298
L429.566 305.201
L430.013 320.508
L430.459 318.044
L430.906 320.63
L431.352 314.583
L431.798 319.898
L432.245 317.727
L432.691 320.488
L433.138 316.347
L433.584 304.013
L434.03 304.238
L434.477 320.59
L434.923 275.8
L435.37 320.672
L435.816 314.39
L436.262 302.924
L436.709 322.038
L437.155 319.87
L437.602 319.431
L438.048 320.352
L438.941 321.465
L439.387 316.04
L439.834 320.659
L440.28 318.987
L440.726 321.31
L441.173 314.09
L441.619 321.555
L442.066 310.434
L442.512 320.973
L442.958 317.128
L443.405 321.054
L443.851 316.997
L444.298 320.545
L444.744 317.702
L445.19 319.671
L445.637 316.923
L446.083 320.285
L446.53 317.016
L446.976 320.313
L447.422 320.709
L447.869 319.116
L448.315 321.453
L448.762 321.164
L449.208 319.07
L449.654 302.012
L450.101 322.002
L450.547 306.546
L450.994 320.194
L451.44 326.266
L451.886 326.845
L452.333 328.772
L452.779 328.681
L453.226 328.267
L453.672 327.574
L454.118 329.614
L454.565 329.152
L455.011 329.296
L455.904 329.107
L456.35 327.424
L456.797 331.097
L457.243 329.842
L457.69 329.008
L458.136 326.31
L458.582 326.069
L459.029 327.964
L459.475 329.224
L459.922 327.409
L460.368 329.397
L460.814 328.278
L461.261 329.694
L461.707 327.557
L462.154 319.477
L462.6 329.48
L463.046 329.342
L463.493 328.266
L463.939 328.605
L464.386 328.709
L465.278 328.653
L465.725 318.341
L466.171 327.973
L466.618 328.907
L467.064 328.815
L467.51 328.172
L467.957 328.85
L468.403 328.604
L468.85 329.246
L469.296 319.047
L469.742 328.939
L470.189 328.665
L470.635 328.975
L471.082 329.847
L471.528 328.042
L471.974 329.058
L472.421 312.946
L472.867 325.949
L473.314 331.112
L473.76 328.395
L474.206 327.233
L474.653 328.491
L475.099 329.307
L475.546 329.429
L475.992 327.344
L476.438 327.928
L476.885 327.967
L477.331 314.335
L477.778 294.011
L478.224 329.282
L478.67 311.979
L479.117 328.439
L479.563 328.245
L480.01 321.325
L480.456 326.652
L480.902 327.819
L481.349 329.729
L481.795 328.253
L482.242 327.289
L482.688 328.568
L483.134 329.16
L483.581 328.972
L484.027 327.96
L484.474 328.321
L484.92 329.109
L485.366 329.34
L485.813 328.166
L486.706 310.357
L487.152 328.119
L487.598 327.445
L488.045 329.027
L488.491 326.4
L488.938 312.886
L489.384 328.029
L489.83 329.753
L490.723 327.834
L491.17 328.365
L491.616 328.451
L492.062 329.124
L492.509 323.713
L492.955 329.361
L493.402 328.833
L493.848 327.493
L494.294 328.421
L494.741 327.632
L495.187 328.909
L495.634 328.543
L496.08 325.559
L496.526 328.017
L496.973 329.518
L497.419 328.452
L497.866 329.616
L498.312 328.094
L498.758 329.547
L499.205 329.255
L499.651 325.389
L500.098 327.989
L500.544 329.151
L500.99 329.298
L501.437 312.579
L501.883 329.75
L502.776 327.286
L503.222 328.802
L503.669 328.939
L504.115 295.031
L504.562 328.502
L505.008 328.463
L505.454 329.741
L505.901 329.569
L506.347 328.425
L506.794 311.285
L507.24 329.739
L507.686 329.333
L508.133 328.18
L509.026 328.485
L509.472 328.44
L509.918 328.663
L510.365 328.719
L510.811 320.054
L511.258 329.545
L511.704 311.917
L512.15 328.553
L512.597 328.94
L513.043 328.615
L513.49 328.592
L513.936 329.034
L514.382 311.03
L514.829 309.652
L515.275 327.827
L515.722 322.444
L516.168 327.581
L516.614 311.12
L517.061 328.897
L517.507 328.247
L517.954 327.132
L517.954 327.132" style="fill:none;stroke:#ff0000;"/>
   </g>
   <g id="line2d_2">
    <path clip-path="url(#p7ff5b81e1d)" d="
M72 301.455
L72.4464 250.155
L72.8928 303.544
L73.3392 293.224
L73.7856 303.99
L74.232 302.471
L74.6784 303.834
L75.1248 303.688
L75.5712 303.693
L76.0176 303.881
L76.9104 302.83
L77.3568 303.29
L77.8032 303.98
L78.2496 293.25
L78.696 302.385
L79.1424 303.822
L79.5888 303.852
L80.0352 303.634
L80.4816 303.825
L80.928 303.423
L81.3744 303.29
L81.8208 303.622
L82.2672 303.648
L82.7136 290.24
L83.16 303.414
L83.6064 303.842
L84.4992 303.273
L84.9456 303.689
L85.392 303.633
L85.8384 292.357
L86.2848 303.435
L86.7312 286.62
L87.1776 300.364
L87.624 302.395
L88.0704 302.497
L88.5168 303.281
L88.9632 296.688
L89.4096 302.929
L89.856 302.747
L90.3024 302.703
L90.7488 292.033
L91.1952 302.592
L91.6416 303.064
L92.088 302.466
L92.5344 292.035
L92.9808 285.989
L93.4272 302.562
L93.8736 302.19
L94.32 328.763
L94.7664 287.722
L95.2128 329.179
L95.6592 328.298
L96.552 328.523
L96.9984 329.209
L97.4448 328.738
L97.8912 328.61
L98.3376 329.313
L98.784 312.15
L99.2304 328.913
L99.6768 328.476
L100.123 328.848
L100.57 328.742
L101.016 327.451
L101.462 328.513
L101.909 328.503
L102.355 329.237
L102.802 329.552
L103.248 329.087
L103.694 329.221
L104.141 320.18
L104.587 328.639
L105.034 329.026
L105.48 327.245
L105.926 329.446
L106.373 329.453
L106.819 325.437
L107.266 329.595
L107.712 328.904
L108.158 327.113
L108.605 328.81
L109.051 329.315
L109.498 326.506
L109.944 329.227
L110.39 328.716
L110.837 329.011
L111.283 323.431
L111.73 329.545
L112.176 329.206
L112.622 327.689
L113.069 328.558
L113.515 321.26
L113.962 329.789
L114.408 329.134
L114.854 325.942
L115.301 328.868
L115.747 329.483
L116.194 327.239
L116.64 328.855
L117.086 328.545
L117.533 328.827
L117.979 311.885
L118.426 328.842
L118.872 311.122
L119.318 329.845
L119.765 329.15
L120.211 327.044
L120.658 329.878
L121.104 329.46
L121.55 308.197
L121.997 327.952
L122.443 315.145
L122.89 328.941
L123.336 328.672
L123.782 327.442
L124.229 328.426
L124.675 328.675
L125.122 328.431
L125.568 328.631
L126.014 329.493
L127.354 327.901
L127.8 328.252
L128.246 329.553
L128.693 329.141
L129.139 329.462
L129.586 312.122
L130.032 328.675
L130.478 328.791
L130.925 328.469
L131.371 327.443
L131.818 328.923
L132.264 329.191
L132.71 328.777
L133.157 328.911
L133.603 322.674
L134.05 328.616
L134.496 311.245
L134.942 312.423
L135.389 329
L135.835 329.304
L136.282 326.749
L136.728 329.621
L137.174 312.227
L137.621 328.314
L138.067 328.953
L138.514 328.273
L138.96 316.377
L139.406 329.59
L139.853 328.655
L140.299 306.024
L140.746 328.641
L141.192 328.859
L141.638 329.77
L142.085 329.249
L142.531 329.377
L142.978 329.684
L143.87 328.765
L144.317 329.972
L144.763 327.244
L145.21 328.901
L145.656 327.697
L146.102 318.886
L146.549 328.691
L146.995 297.441
L147.442 328.33
L148.334 329.329
L148.781 326.483
L149.227 329.154
L149.674 312.446
L150.12 329.122
L150.566 329.648
L151.013 318.459
L151.459 311.833
L151.906 329.744
L152.352 328.858
L152.798 329.52
L153.245 318.799
L153.691 329.757
L154.138 329.313
L154.584 325.625
L155.03 328.98
L155.477 329.387
L155.923 327.466
L156.37 313.067
L157.262 329.212
L157.709 329.021
L158.155 327.164
L158.602 328.217
L159.048 312.184
L159.494 328.806
L159.941 328.698
L160.387 325.953
L160.834 329.537
L161.28 320.585
L162.619 320.837
L163.066 321.174
L163.512 312.976
L163.958 319.843
L164.405 320.874
L164.851 321.121
L165.298 320.561
L165.744 320.296
L166.19 319.88
L166.637 304.027
L167.083 320.889
L167.53 321.177
L167.976 320.695
L168.422 321.129
L168.869 316.055
L169.315 303.868
L169.762 321.263
L170.208 321.039
L170.654 315.596
L171.101 321.016
L171.547 311.653
L171.994 320.927
L172.44 313.914
L172.886 320.917
L173.779 304.273
L174.226 320.648
L174.672 320.257
L175.118 321.116
L175.565 320.696
L176.011 313.54
L176.458 321.125
L176.904 313.668
L177.35 320.637
L177.797 321.666
L178.243 304.088
L178.69 320.983
L179.136 321.76
L179.582 321.43
L180.029 320.557
L180.475 321.245
L180.922 304.577
L181.368 321.119
L181.814 320.924
L182.261 321.271
L182.707 320.808
L183.154 321.369
L183.6 329.445
L184.046 325.114
L184.493 329.282
L184.939 329.559
L185.386 327.2
L185.832 329.515
L186.278 329.617
L186.725 326.842
L187.171 329.667
L187.618 329.585
L188.064 327.516
L188.51 328.964
L188.957 329.339
L189.403 327.095
L189.85 328.789
L190.296 312.365
L190.742 329.221
L192.082 329.102
L192.974 329.657
L193.867 329.401
L194.314 328.315
L194.76 329.659
L195.206 329.86
L195.653 323.841
L196.099 329.369
L196.546 329.275
L196.992 327.186
L197.438 329.267
L197.885 329.012
L198.331 328.549
L198.778 329.093
L199.224 328.709
L199.67 327.304
L200.117 329.057
L200.563 329.318
L201.01 328.306
L201.456 329.485
L201.902 328.789
L202.349 326.727
L202.795 329.283
L203.242 329.249
L203.688 328.838
L204.581 328.909
L205.474 329.177
L205.92 329.004
L206.366 329.341
L206.813 329.417
L207.259 321.273
L207.706 329.507
L208.152 329.822
L208.598 326.478
L209.045 329.746
L209.491 327.403
L209.938 329.126
L210.384 329.232
L210.83 324.611
L211.277 328.567
L212.17 328.937
L212.616 328.862
L213.062 328.266
L213.509 328.058
L213.955 329.301
L214.402 329.092
L214.848 328.093
L215.294 319.85
L215.741 329.288
L216.187 328.881
L216.634 327.652
L217.08 329.021
L217.526 329.426
L217.973 328.698
L218.419 329.026
L218.866 329.628
L219.312 329.439
L219.758 312.032
L220.205 327.889
L220.651 328.408
L221.098 328.523
L221.544 328.472
L221.99 328.699
L222.437 329.182
L222.883 328.504
L223.33 328.685
L223.776 316.614
L224.222 311.852
L224.669 323.057
L225.115 328.775
L225.562 329.41
L226.008 263.685
L226.454 328.596
L226.901 327.04
L227.347 312.05
L227.794 329.053
L228.24 329.461
L228.686 328.89
L229.133 320.693
L229.579 328.879
L230.026 312.297
L230.472 328.576
L230.918 328.792
L231.365 324.143
L231.811 328.83
L232.704 329.395
L233.15 328.969
L233.597 327.179
L234.043 328.5
L234.49 328.412
L234.936 317.927
L235.382 328.903
L235.829 328.233
L236.275 326.138
L236.722 311.674
L237.168 324.022
L237.614 328.569
L238.061 328.665
L238.507 328.255
L238.954 329.172
L239.846 328.495
L240.293 318.646
L240.739 329.361
L241.186 328.567
L241.632 329.17
L242.078 321.229
L242.525 328.675
L243.418 329.573
L243.864 328.316
L244.31 325.038
L244.757 328.839
L245.203 328.722
L245.65 328.821
L246.096 328.769
L246.542 311.757
L246.989 329.077
L247.435 328.742
L247.882 327.755
L248.328 327.983
L248.774 328.949
L249.221 329.609
L249.667 328.312
L250.114 328.762
L250.56 319.683
L251.006 320.49
L251.453 319.954
L251.899 320.805
L252.346 314.238
L252.792 320.896
L253.238 314.243
L253.685 321.024
L254.131 303.607
L254.578 320.625
L255.024 320.96
L255.47 320.37
L255.917 321.6
L256.363 319.939
L256.81 321.413
L257.256 320.255
L257.702 320.555
L258.149 320.638
L258.595 316.798
L259.042 320.575
L259.488 314.463
L259.934 321.368
L260.381 313.914
L260.827 320.829
L261.274 313.214
L261.72 321.347
L262.166 315.154
L262.613 320.938
L263.059 320.99
L263.506 321.215
L263.952 320.915
L264.398 320.46
L264.845 317.573
L265.291 320.387
L265.738 314.3
L266.184 321.456
L266.63 313.533
L267.077 321.08
L267.523 313.201
L267.97 321.486
L268.416 313.882
L268.862 320.781
L269.309 320.477
L269.755 321.093
L270.202 321.15
L270.648 320.771
L271.094 318.629
L271.541 320.908
L271.987 314.919
L272.434 320.611
L273.326 326.241
L273.773 328.387
L274.219 311.684
L274.666 328.306
L275.112 327.227
L275.558 329.223
L276.005 328.933
L276.451 328.473
L276.898 329.374
L277.344 328.677
L277.79 328.257
L278.237 328.196
L278.683 328.947
L279.13 328.819
L279.576 328.115
L280.022 328.933
L280.469 328.95
L280.915 329.468
L281.362 328.504
L281.808 328.955
L282.254 311.383
L282.701 328.888
L283.147 328.591
L283.594 328.855
L284.04 328.823
L284.486 329.039
L284.933 309.401
L285.379 328.561
L285.826 329.456
L286.272 328.809
L286.718 329.16
L287.165 329.354
L287.611 328.87
L288.058 328.647
L288.504 326.058
L288.95 328.952
L289.397 329.32
L289.843 329.382
L290.736 328.997
L291.182 328.959
L291.629 214.424
L292.075 329.168
L292.522 329.426
L292.968 323.735
L293.414 329.015
L293.861 329.251
L294.307 329.143
L294.754 329.277
L295.2 329.155
L295.646 328.739
L296.093 328.865
L296.539 329.638
L297.432 328.894
L297.878 329.34
L298.771 329.133
L299.218 311.933
L299.664 328.331
L300.11 328.398
L300.557 323.514
L301.003 328.796
L301.45 328.822
L301.896 327.959
L302.342 328.966
L303.235 329.304
L304.128 297.449
L304.574 328.344
L305.021 329.391
L305.467 321.867
L305.914 328.648
L306.36 328.408
L306.806 328.976
L307.253 328.177
L307.699 329.346
L308.146 328.08
L308.592 328.969
L309.038 310.841
L309.485 329.226
L309.931 328.969
L310.378 329.196
L310.824 311.601
L311.27 328.588
L311.717 329.096
L312.163 328.915
L312.61 329.172
L313.056 312.287
L313.502 328.884
L313.949 328.644
L314.395 312.251
L314.842 329.358
L315.288 329.702
L315.734 328.848
L316.181 325.295
L316.627 328.886
L317.074 329.044
L317.52 329.41
L317.966 329.573
L318.413 311.683
L318.859 328.206
L319.306 329.136
L319.752 328.349
L320.198 329.055
L320.645 328.776
L321.091 317.877
L321.538 328.947
L321.984 328.408
L322.43 328.525
L322.877 328.783
L323.323 329.309
L323.77 311.549
L324.216 328.006
L324.662 324.15
L325.109 328.732
L325.555 328.683
L326.002 327.676
L326.448 328.808
L326.894 329.486
L328.234 328.596
L328.68 328.785
L329.573 329.799
L330.019 329.236
L330.466 328.317
L330.912 329.05
L331.358 312.396
L331.805 328.918
L332.251 329.25
L332.698 329.009
L333.59 139.917
L334.037 328.138
L334.483 328.709
L334.93 324.405
L335.376 315.402
L335.822 311.792
L336.269 327.775
L336.715 317.718
L337.162 328.356
L337.608 328.863
L338.054 311.465
L338.501 329.628
L338.947 327.85
L339.394 328.506
L339.84 319.801
L340.286 320.941
L341.179 320.131
L341.626 320.68
L342.072 319.769
L342.518 320.628
L342.965 319.838
L343.411 320.821
L343.858 316.884
L344.304 319.311
L344.75 319.706
L345.197 320.927
L345.643 320.837
L346.09 320.491
L346.536 319.682
L346.982 320.705
L347.429 320.194
L347.875 316.819
L348.322 320.167
L348.768 316.038
L349.214 321.342
L349.661 314.641
L350.107 320.901
L350.554 303.112
L351 321.195
L351.446 321.059
L351.893 320.74
L352.339 319.979
L352.786 318.613
L353.232 311.629
L353.678 320.823
L354.125 321.134
L354.571 320.971
L355.018 320.58
L355.91 321.374
L356.357 320.663
L356.803 314.961
L357.25 321.129
L357.696 314.7
L358.142 320.914
L358.589 296.968
L359.035 320.256
L359.482 320.919
L359.928 316.104
L360.374 319.343
L360.821 318.468
L361.267 319.943
L361.714 316.846
L362.16 328.607
L362.606 328.166
L363.499 329.146
L363.946 327.753
L364.392 328.789
L364.838 329.24
L365.285 315.593
L365.731 329.432
L366.178 329.926
L366.624 328.766
L367.07 328.535
L367.517 329.091
L367.963 312.294
L368.41 329.406
L368.856 322.676
L369.302 328.942
L369.749 329.508
L370.195 329.287
L370.642 312.425
L371.088 324.297
L371.534 329.72
L371.981 329.768
L372.427 329.384
L372.874 328.539
L373.32 328.626
L373.766 329.092
L374.213 329.3
L374.659 328.871
L375.106 326.76
L375.552 315.18
L375.998 329.065
L376.445 329.636
L376.891 329.866
L377.338 326.283
L377.784 328.974
L378.23 327.951
L378.677 325.635
L379.123 328.245
L379.57 328.57
L380.016 327.929
L380.462 328.577
L380.909 297.132
L381.355 328.154
L382.248 329.072
L382.694 328.399
L383.141 329.049
L383.587 328.877
L384.034 329.198
L384.48 329.349
L384.926 316.189
L385.373 328.771
L385.819 329.549
L386.266 329.371
L386.712 329.363
L387.158 329.22
L387.605 329.355
L388.051 328.812
L388.498 325.162
L388.944 329.147
L389.39 328.486
L389.837 328.531
L390.73 329.157
L391.176 328.874
L391.622 319.202
L392.069 329.214
L392.515 329.281
L392.962 329.015
L393.408 329.48
L393.854 329.029
L394.301 328.348
L394.747 329.136
L395.194 305.285
L395.64 329.413
L396.086 329.055
L396.533 312.322
L396.979 328.476
L397.426 327.83
L397.872 328.821
L398.318 325.334
L398.765 329.211
L399.211 328.458
L399.658 328.534
L400.104 328.878
L400.55 328.499
L400.997 329.106
L401.443 328.266
L401.89 318.815
L402.336 328.55
L402.782 328.588
L403.229 328.46
L403.675 320.084
L404.122 329.24
L404.568 328.466
L405.014 328.649
L405.461 326.341
L405.907 327.791
L406.354 328.767
L406.8 328.554
L407.246 328.959
L407.693 328.756
L408.139 328.758
L408.586 329.352
L409.032 328.394
L409.478 329.274
L409.925 328.374
L410.371 328.752
L410.818 328.71
L411.264 319.172
L412.157 311.935
L412.603 328.903
L413.05 317.724
L413.496 328.673
L413.942 311.567
L414.389 322.718
L414.835 328.746
L415.282 329.053
L415.728 328.62
L416.174 329.536
L416.621 329.928
L417.067 327.369
L417.514 328.202
L417.96 328.073
L418.406 307.366
L418.853 329.349
L419.299 328.558
L419.746 329.04
L420.192 326.027
L420.638 312.178
L421.085 329.387
L421.531 329.415
L421.978 328.626
L422.424 324.928
L422.87 327.812
L423.317 328.788
L423.763 328.291
L424.21 328.62
L424.656 328.685
L425.102 328.059
L425.549 327.945
L425.995 328.42
L426.442 311.878
L426.888 328.24
L427.334 328.349
L427.781 328.734
L428.227 328.029
L428.674 328.677
L429.12 319.701
L429.566 301.878
L430.013 303.051
L430.459 320.721
L430.906 318.503
L431.352 320.136
L431.798 317.147
L432.245 319.878
L432.691 316.898
L433.138 303.28
L433.584 320.367
L434.03 320.572
L434.477 304.258
L434.923 321.018
L435.816 319.954
L436.262 320.325
L436.709 303.114
L437.155 320.649
L437.602 320.044
L438.048 313.343
L438.494 320.475
L438.941 316.668
L439.387 319.409
L439.834 318.239
L440.28 320.053
L440.726 318.169
L441.173 319.907
L441.619 317.756
L442.066 319.901
L442.512 317.822
L442.958 319.513
L443.405 318.37
L443.851 319.833
L444.298 311.769
L444.744 320.049
L445.19 316.819
L445.637 320.315
L446.083 317.968
L446.53 319.997
L446.976 317.355
L447.422 319.876
L447.869 317.721
L448.315 320.051
L448.762 317.462
L449.208 319.896
L449.654 320.704
L450.101 320.441
L450.547 319.984
L450.994 320.296
L451.44 328.448
L451.886 328.299
L452.333 328.843
L452.779 328.594
L453.226 328.867
L453.672 328.381
L455.011 328.539
L455.904 329.275
L456.35 316.475
L456.797 328.23
L457.243 327.549
L457.69 328.264
L458.136 297.59
L458.582 326.085
L459.029 326.796
L459.475 327.915
L459.922 328.174
L460.368 327.977
L460.814 328.204
L461.261 317.332
L461.707 328.605
L462.154 327.611
L462.6 328.236
L463.046 328.013
L463.493 317.948
L463.939 327.404
L464.386 327.766
L465.278 327.295
L465.725 302.812
L466.171 327.185
L466.618 309.4
L467.064 328.399
L467.51 328.05
L467.957 314.248
L468.403 328.217
L468.85 327.446
L469.742 327.875
L470.189 317.844
L470.635 327.078
L471.082 328.635
L471.528 328.214
L471.974 328.284
L472.421 319.199
L472.867 328.599
L474.206 327.216
L474.653 328.404
L475.099 328.629
L475.546 328.161
L475.992 327.962
L476.438 327.196
L476.885 328.652
L477.331 328.564
L477.778 328.769
L478.224 320.243
L478.67 327.994
L479.117 327.948
L479.563 328.414
L480.01 310.681
L480.456 327.77
L481.349 327.206
L481.795 328.162
L482.242 328.688
L482.688 328.39
L483.134 326.756
L483.581 328.622
L484.027 329.305
L484.474 327.962
L484.92 329.079
L485.366 328.819
L486.259 327.674
L486.706 327.916
L487.152 328.332
L487.598 327.585
L488.045 327.61
L488.938 327.409
L489.384 328.587
L489.83 328.21
L490.277 322.243
L490.723 327.826
L491.616 328.173
L492.062 327.888
L492.509 318.199
L492.955 327.938
L493.402 311.414
L493.848 328.807
L494.741 328.321
L495.187 327.605
L495.634 310.954
L496.08 327.771
L496.526 329.194
L496.973 328.252
L497.419 328.943
L497.866 328.658
L498.312 328.891
L498.758 328.509
L499.205 328.536
L499.651 321.47
L500.098 328.883
L500.544 329.022
L500.99 327.359
L501.437 328.527
L501.883 328.415
L502.776 327.72
L503.222 328.445
L503.669 328.692
L504.115 328.688
L504.562 328.459
L505.008 328.695
L505.454 327.935
L505.901 329.003
L506.794 328.048
L507.24 328.896
L507.686 320.154
L508.133 328.329
L508.579 328.745
L509.026 328.503
L509.472 328.767
L509.918 328.647
L510.365 328.969
L510.811 328.624
L511.258 318.812
L511.704 328.795
L512.15 311.819
L512.597 328.702
L513.043 328.645
L513.49 328.723
L513.936 328.938
L514.382 328.784
L514.829 328.285
L515.275 329.092
L515.722 328.941
L516.168 328.551
L516.614 328.464
L517.061 321.043
L517.507 328.527
L517.954 328.767
L517.954 328.767" style="fill:none;opacity:0.7;stroke:#008000;"/>
   </g>
   <g id="line2d_3">
    <path clip-path="url(#p7ff5b81e1d)" d="
M72 299.958
L72.4464 293.685
L72.8928 294.963
L73.3392 295.264
L73.7856 285.064
L74.232 285.205
L74.6784 297.961
L75.1248 298.397
L76.0176 285.951
L76.464 283.916
L76.9104 293.96
L77.3568 296.414
L77.8032 296.667
L78.2496 287.368
L78.696 285.226
L79.1424 298.533
L79.5888 298.147
L80.4816 285.653
L80.928 171.821
L81.3744 163.192
L81.8208 293.881
L82.2672 285.194
L82.7136 294.323
L83.16 292.926
L83.6064 284.773
L84.0528 285.735
L84.4992 295.677
L84.9456 291.97
L85.392 285.015
L85.8384 298.346
L86.2848 287.942
L86.7312 285.075
L87.1776 286.936
L87.624 296.974
L88.0704 297.846
L88.5168 297.722
L88.9632 281.133
L89.4096 299.241
L90.3024 300.265
L90.7488 294.436
L91.1952 298.907
L91.6416 298.843
L92.088 300.087
L92.5344 279.584
L92.9808 290.808
L93.4272 286.475
L93.8736 284.59
L94.32 324.674
L94.7664 323.563
L95.2128 310.375
L95.6592 319.191
L96.1056 319.294
L96.552 319.112
L96.9984 324.271
L97.4448 324.153
L97.8912 309.477
L98.3376 324.517
L98.784 325.52
L99.2304 322.426
L99.6768 324.778
L100.123 324.79
L100.57 324.397
L101.016 324.943
L101.462 290.694
L101.909 324.896
L102.355 325.476
L102.802 308.95
L103.248 325.521
L103.694 308.841
L104.141 325.285
L104.587 324.991
L105.034 315.334
L105.48 325.748
L105.926 324.603
L106.373 325.312
L106.819 324.318
L107.266 324.741
L107.712 324.888
L108.158 325.762
L108.605 324.635
L109.051 325.308
L109.498 324.895
L109.944 325.812
L110.39 324.667
L110.837 308.005
L111.283 322.497
L111.73 318.303
L112.176 325.67
L112.622 325.415
L113.069 323.349
L113.515 324.777
L113.962 325.334
L114.408 325.216
L114.854 324.687
L115.301 308.471
L115.747 325.421
L116.194 310.028
L116.64 308.675
L117.086 324.591
L117.533 321.149
L117.979 326.109
L119.318 325.36
L119.765 325.73
L120.211 325.328
L120.658 325.664
L121.104 325.55
L121.55 324.225
L121.997 325.179
L122.443 292.559
L122.89 323.605
L123.336 319.221
L123.782 324.771
L124.229 315.314
L124.675 324.652
L125.122 323.01
L125.568 317.76
L126.014 323.967
L126.461 324.009
L126.907 321.155
L127.354 323.738
L127.8 308.736
L128.246 324.278
L128.693 324.67
L129.139 324.118
L129.586 310.624
L130.032 325.532
L130.925 324.299
L131.371 325.658
L132.264 324.184
L133.157 325.879
L133.603 325.742
L134.05 315.019
L134.496 325.494
L134.942 326.304
L135.389 323.991
L135.835 325.101
L136.282 308.857
L136.728 325.319
L137.174 324.604
L137.621 325.209
L138.067 325.51
L138.96 302.835
L139.406 314.793
L139.853 313.384
L140.299 314.693
L140.746 303.153
L141.192 315.552
L141.638 306.295
L142.085 302.48
L142.531 316.242
L143.424 315.854
L143.87 312.662
L144.763 315.852
L145.21 314.344
L145.656 316.189
L146.102 317.229
L146.549 316.417
L146.995 316.62
L147.442 317.346
L147.888 316.724
L148.334 317.793
L148.781 317.736
L149.227 317.36
L149.674 314.076
L150.12 316.269
L150.566 317.012
L151.013 317.171
L151.459 297.193
L151.906 317.343
L152.352 316.443
L152.798 317.057
L153.245 315.346
L153.691 301.624
L154.138 308.327
L154.584 302.762
L155.03 315.983
L155.923 315.752
L156.37 316.297
L156.816 300.853
L157.262 299.51
L157.709 312.999
L158.155 315.447
L158.602 315.8
L159.048 299.769
L159.494 313.425
L159.941 315.146
L160.387 314.159
L160.834 302.641
L161.28 318.842
L161.726 324.074
L162.173 323.015
L163.066 324.336
L163.958 323.804
L164.405 324.012
L164.851 289.89
L165.298 324.648
L165.744 324.23
L166.19 324.052
L166.637 324.433
L167.083 324.324
L167.53 279.092
L167.976 318.554
L168.422 324.547
L168.869 323.713
L169.315 310.764
L169.762 319.216
L170.208 325.103
L170.654 324.11
L171.101 309.195
L171.547 324.181
L171.994 323.707
L172.44 325.237
L172.886 324.742
L173.333 324.932
L173.779 324.446
L174.226 325.273
L174.672 310.933
L175.118 325.509
L175.565 324.649
L176.011 325.181
L176.458 324.727
L176.904 326.285
L177.35 325.131
L177.797 325.617
L178.243 325.251
L178.69 325.732
L179.136 326.04
L179.582 326
L180.029 324.819
L180.922 325.914
L181.368 325.313
L181.814 324.419
L182.261 324.264
L182.707 309.173
L183.154 326.21
L183.6 325.718
L184.046 324.394
L184.493 324.818
L184.939 325.701
L185.386 325.602
L185.832 324.925
L187.171 325.836
L187.618 325.532
L188.064 325.699
L188.51 323.404
L188.957 324.729
L189.403 324.318
L189.85 325.699
L190.296 324.826
L190.742 325.428
L191.189 325.363
L191.635 325.776
L192.082 307.826
L192.528 324.579
L192.974 319.758
L193.421 325.386
L193.867 325.49
L194.314 324.39
L194.76 325.724
L195.653 325.646
L196.099 324.442
L196.546 325.33
L196.992 325.466
L197.438 308.241
L197.885 325.099
L198.331 325.139
L199.224 325.552
L199.67 324.942
L200.117 324.984
L200.563 325.524
L201.01 325.762
L201.902 324.99
L202.349 307.512
L202.795 323.309
L203.242 324.372
L203.688 316.192
L204.134 323.908
L204.581 314.584
L205.027 324.741
L205.92 302.692
L206.366 315.366
L206.813 313.375
L207.259 315.649
L207.706 316.278
L208.152 301.855
L208.598 315.758
L209.045 316.251
L209.938 303.046
L210.384 301.853
L210.83 312.847
L211.277 315.886
L211.723 312.632
L212.17 315.677
L212.616 315.305
L213.062 316.203
L213.509 313.7
L213.955 304.52
L214.402 315.338
L214.848 315.89
L215.294 316.072
L215.741 299.166
L216.187 299.571
L216.634 312.627
L217.08 316.467
L217.526 317.431
L217.973 300.572
L218.419 313.925
L218.866 316.733
L219.312 299.686
L219.758 314.876
L220.205 313.998
L220.651 299.628
L221.098 313.986
L221.544 316.349
L221.99 317.027
L222.437 317.235
L222.883 317.249
L223.33 317.924
L223.776 318.197
L224.222 317.112
L224.669 301.332
L225.115 315.911
L225.562 317.394
L226.008 300.32
L226.454 312.666
L226.901 314.477
L227.347 315.631
L227.794 305.036
L228.24 319.6
L228.686 289.942
L229.133 323.635
L229.579 324.183
L230.472 323.987
L230.918 324.389
L231.365 324.094
L231.811 324.519
L232.258 324.715
L232.704 308.89
L233.15 324.133
L233.597 323.051
L234.043 324.551
L234.49 324.613
L234.936 307.767
L235.382 323.728
L235.829 325.162
L236.275 323.51
L236.722 324.539
L237.168 324.545
L237.614 324.938
L238.061 324.9
L238.507 324.545
L238.954 323.54
L239.4 324.131
L239.846 324.206
L240.293 307.6
L240.739 324.063
L241.186 325.592
L241.632 324.769
L242.078 325.415
L242.525 324.423
L242.971 325.57
L243.418 324.429
L243.864 325.26
L244.31 323.53
L244.757 324.16
L245.203 324.329
L245.65 324.118
L246.096 324.492
L246.542 324.593
L246.989 323.358
L247.435 324.214
L247.882 324.552
L248.328 325.485
L248.774 324.724
L249.221 325.208
L249.667 325.313
L250.114 308.787
L250.56 325.423
L251.006 324.504
L251.453 322.389
L251.899 323.978
L252.346 308.042
L252.792 324.489
L253.238 325.335
L253.685 325.2
L254.131 325.256
L254.578 325.996
L255.024 325.844
L255.47 324.004
L255.917 324.949
L256.363 325.399
L257.256 324.981
L258.149 325.662
L258.595 324.248
L259.042 325.091
L259.488 325.456
L259.934 325.436
L260.381 325.077
L260.827 325.148
L261.274 324.28
L262.613 325.729
L263.059 324.979
L263.952 325.533
L264.845 324.068
L265.291 325.471
L265.738 325.078
L266.184 325.454
L266.63 325.499
L267.077 325.767
L267.523 325.264
L267.97 325.679
L268.862 325.314
L269.309 324.73
L269.755 325.8
L270.202 325.417
L270.648 325.218
L271.094 324.852
L271.541 325.001
L271.987 324.85
L272.434 325
L272.88 316.487
L273.326 315.911
L273.773 313.536
L274.219 316.527
L275.112 317.475
L275.558 317.459
L276.005 317.792
L276.451 316.478
L276.898 316.974
L277.344 316.565
L277.79 312.951
L278.237 314.791
L278.683 315.263
L279.13 316.507
L279.576 316.924
L280.022 317.818
L280.469 317.215
L280.915 317.544
L281.362 317.596
L281.808 316.788
L282.254 316.823
L282.701 317.276
L283.147 317.128
L283.594 313.804
L284.04 317.216
L284.486 316.957
L284.933 317.524
L285.379 313.94
L285.826 316.289
L286.272 317.22
L286.718 317.563
L287.165 314.534
L287.611 317.617
L288.058 297.515
L288.504 314.586
L288.95 315.191
L289.397 299.374
L289.843 316.395
L290.29 317.494
L290.736 316.722
L291.182 317.389
L291.629 313.731
L292.075 315.573
L292.522 299.762
L292.968 315.049
L293.414 279.369
L293.861 314.632
L294.307 315.443
L294.754 315.961
L295.2 324.46
L295.646 323.927
L296.093 323.685
L296.539 324.31
L296.986 325.447
L297.432 324.67
L297.878 324.872
L298.325 325.364
L298.771 324.007
L299.218 323.663
L299.664 324.596
L300.11 323.065
L301.003 324.528
L301.45 324.295
L301.896 323.351
L302.342 307.371
L302.789 324.232
L303.235 323.84
L303.682 323.717
L304.128 324.249
L304.574 324.499
L305.021 324.215
L305.467 324.336
L305.914 323.617
L306.36 324.847
L306.806 325.011
L307.253 325.792
L307.699 324.303
L308.146 324.999
L309.038 324.031
L309.485 324.243
L309.931 324.839
L310.378 307.325
L310.824 323.8
L311.27 323.511
L311.717 324.286
L312.163 323.378
L312.61 324.599
L313.056 324.721
L313.502 324.218
L313.949 306.326
L314.395 324.526
L314.842 325.077
L315.288 324.224
L315.734 306.623
L316.181 324.37
L316.627 324.105
L317.074 323.981
L317.52 323.516
L318.859 324.35
L319.306 324.292
L320.198 324.584
L320.645 324.501
L321.091 323.926
L321.538 307.501
L321.984 324.401
L322.43 323.645
L322.877 307.84
L323.323 324.716
L323.77 324.178
L324.216 323.992
L324.662 324.695
L325.109 324.701
L325.555 325.718
L326.002 324.295
L326.448 325.078
L326.894 325.387
L327.787 325.252
L328.234 324.14
L328.68 323.775
L329.126 321.707
L329.573 323.954
L330.019 323.419
L330.466 323.598
L330.912 307.617
L331.358 323.331
L332.251 325.176
L332.698 325.185
L333.144 324.974
L333.59 308.033
L334.037 323.811
L334.483 324.088
L334.93 311.865
L335.376 325.159
L335.718 -1
M336.053 -1
L336.715 324.68
L337.162 325.055
L337.608 324.766
L338.054 322.806
L338.501 324.423
L338.947 324.572
L339.394 323.507
L339.84 315.306
L340.286 314.862
L340.733 313.389
L341.179 315.3
L341.626 315.644
L342.072 314.231
L342.518 315.803
L342.965 316.581
L343.411 315.648
L343.858 315.933
L344.304 315.737
L344.75 313.237
L345.197 312.518
L345.643 315.274
L346.09 317.063
L346.536 316.788
L346.982 317.045
L347.429 317.139
L347.875 316.245
L348.322 317.247
L348.768 316.991
L349.214 317.177
L349.661 315.129
L350.107 315.047
L350.554 312.823
L351 315.722
L351.446 314.637
L351.893 315.809
L352.339 314.16
L352.786 315.543
L353.678 316.07
L354.125 297.472
L354.571 314.395
L355.018 314.203
L355.464 283.871
L355.91 315.934
L356.357 315.338
L356.803 316.199
L357.25 316.296
L357.696 317.105
L358.142 316.184
L358.589 311.953
L359.035 315.383
L359.482 316.606
L359.928 315.999
L360.374 313.488
L361.267 317.053
L361.714 316.36
L362.16 325.659
L362.606 308.498
L363.053 323.42
L363.946 306.846
L364.392 324.025
L364.838 324.147
L365.285 323.993
L365.731 308.64
L366.178 324.17
L366.624 324.304
L367.07 322.829
L367.963 325.154
L368.41 323.761
L369.302 324.54
L369.749 324.559
L370.195 325.167
L370.642 304.917
L371.088 323.731
L371.981 324.593
L372.427 307.982
L372.874 323.385
L373.32 323.179
L373.766 324.242
L374.213 323.783
L374.659 323.623
L375.552 324.051
L375.998 324.665
L376.445 322.989
L376.891 307.795
L377.338 324.428
L377.784 323.604
L378.23 307.485
L378.677 321.672
L379.123 325.363
L379.57 325.019
L380.016 325.115
L380.462 325.713
L380.909 322.709
L381.355 322.986
L381.802 324.294
L382.248 324.835
L382.694 323.932
L383.141 324.391
L383.587 325.029
L384.034 324.545
L384.48 324.677
L384.926 306.719
L385.373 323.512
L385.819 324.603
L386.266 324.408
L386.712 323.926
L387.158 325.116
L387.605 321.787
L388.051 325.364
L388.498 324.918
L388.944 325.32
L389.39 321.853
L389.837 324.714
L390.283 324.565
L390.73 308.881
L391.176 324.519
L391.622 324.532
L392.069 323.98
L392.515 324.937
L392.962 200.753
L393.408 184.91
L393.854 325.249
L394.301 325.883
L394.747 324.714
L395.194 323.99
L395.64 325.02
L396.086 324.922
L396.533 325.393
L396.979 324.152
L397.426 324.847
L397.872 325.194
L398.318 325.788
L398.765 324.782
L399.211 325.858
L399.658 325.331
L400.104 324.546
L400.55 323.459
L400.997 324.445
L401.443 324.322
L401.89 324.922
L402.336 324.458
L402.782 324.667
L403.229 323.697
L403.675 323.38
L404.122 324.358
L404.568 324.832
L405.014 324.904
L405.461 324.478
L405.907 324.368
L406.354 324.947
L406.8 316.217
L407.246 315.731
L407.693 314.14
L408.139 315.647
L408.586 316.306
L409.032 316.019
L409.478 315.87
L409.925 316.376
L410.371 299.212
L410.818 315.928
L411.264 316.847
L411.71 313.904
L412.157 315.324
L412.603 315.153
L413.05 316.325
L413.496 315.441
L413.942 316.381
L414.389 316.385
L414.835 316.12
L415.282 316.691
L415.728 316.567
L416.174 315.939
L416.621 316.01
L417.067 316.354
L417.514 313.996
L417.96 316.117
L418.406 316.251
L418.853 282.069
L419.299 315.615
L420.192 316.252
L420.638 316.851
L421.085 297.353
L421.531 316.071
L421.978 315.291
L422.424 316.736
L422.87 300.228
L423.317 317.424
L423.763 318.048
L424.21 317.924
L425.102 317.184
L425.549 313.311
L425.995 316.875
L426.442 318.078
L426.888 317.059
L427.334 315.05
L427.781 315.3
L428.227 316.92
L428.674 315.198
L429.12 324.267
L429.566 307.444
L430.013 324.267
L430.459 325.795
L431.352 325.073
L431.798 325.834
L432.691 325.812
L433.138 325.507
L433.584 325.806
L434.03 308.318
L434.477 325.409
L434.923 324.831
L435.37 325.455
L435.816 323.309
L436.262 323.441
L436.709 324.909
L437.155 318.99
L437.602 323.631
L438.048 324.687
L438.494 325.139
L438.941 325.306
L439.387 306.956
L439.834 323.988
L440.28 324.713
L440.726 325.057
L441.173 324.085
L441.619 323.808
L442.066 324.705
L442.512 309.076
L442.958 323.321
L443.851 324.841
L444.298 325.182
L444.744 325.028
L445.637 325.796
L446.083 325.383
L446.53 325.37
L446.976 309.808
L447.422 323.962
L447.869 323.649
L448.315 325.216
L448.762 326.216
L449.208 325.354
L449.654 324.968
L450.547 325.892
L450.994 325.528
L451.44 325.721
L451.886 308.782
L452.333 324.884
L452.779 324.961
L453.226 325.882
L453.672 325.085
L454.118 325.772
L454.565 325.385
L455.458 326.288
L455.904 325.962
L456.35 323.749
L456.797 325.49
L457.243 326.127
L457.69 325.405
L458.136 325.009
L458.582 325.814
L459.029 325.504
L459.475 325.53
L459.922 325.727
L460.368 325.087
L460.814 326.021
L461.261 326.499
L461.707 325.869
L462.154 325.042
L462.6 325.615
L463.493 325.63
L463.939 325.435
L464.386 324.948
L465.278 326.028
L465.725 324.775
L466.171 325.882
L466.618 325.26
L467.064 308.722
L467.51 326.264
L467.957 325.432
L468.403 325.268
L468.85 325.856
L469.296 308.812
L469.742 323.537
L470.189 323.413
L470.635 324.194
L471.082 324.724
L471.528 324.592
L471.974 324.638
L472.421 324.385
L472.867 324.48
L473.314 324.25
L473.76 315.569
L474.206 315.097
L474.653 313.59
L475.546 316.424
L475.992 301.002
L476.438 315.636
L476.885 318.056
L477.331 317.116
L477.778 317.017
L478.224 317.303
L478.67 313.205
L479.117 315.547
L479.563 315.881
L480.01 317.525
L480.456 316.167
L480.902 317.739
L481.349 300.855
L481.795 315.902
L482.242 316.782
L482.688 316.122
L483.134 274.044
L483.581 316.58
L484.027 316.792
L484.474 313.331
L484.92 316.214
L485.366 316.496
L485.813 298.861
L486.259 315.085
L486.706 316.107
L487.152 316.05
L487.598 316.43
L488.045 314.394
L488.491 316.148
L488.938 315.884
L489.384 316.177
L489.83 316.065
L490.277 316.626
L490.723 316.281
L491.17 316.268
L491.616 316.867
L492.062 316.758
L492.509 313.83
L492.955 315.92
L493.402 317.424
L493.848 317.806
L494.294 314.919
L494.741 299.108
L495.187 315.785
L495.634 316.23
L496.08 324.38
L496.526 323.618
L497.419 324.452
L497.866 324.348
L498.312 309.376
L498.758 324.425
L499.205 324.892
L499.651 326.047
L500.098 325.301
L500.544 325.551
L500.99 324.34
L501.437 325.614
L501.883 324.534
L502.33 308.795
L502.776 325.564
L503.222 325.837
L503.669 325.795
L504.115 325.557
L504.562 325.445
L505.008 326.26
L505.454 325.095
L505.901 325.251
L506.347 325.75
L506.794 324.703
L507.24 324.713
L507.686 323.831
L508.133 324.655
L508.579 323.608
L509.026 324.614
L509.472 324.811
L509.918 324.09
L510.365 324.228
L510.811 324.085
L511.258 325.144
L511.704 307.766
L512.15 310.861
L512.597 324.457
L513.043 324.353
L513.49 324.508
L513.936 324.19
L514.382 325.052
L514.829 323.427
L515.275 324.937
L515.722 325.015
L516.168 309.177
L516.614 323.211
L517.061 324.592
L517.507 324.766
L517.954 325.415
L517.954 325.415" style="fill:none;opacity:0.5;stroke:#0000ff;"/>
   </g>
   <g id="matplotlib.axis_1">
    <g id="xtick_1">
     <g id="line2d_4">
      <path clip-path="url(#p7ff5b81e1d)" d="
M72 388.8
L72 43.2" style="fill:none;stroke:#000000;stroke-dasharray:1.000000,3.000000;stroke-dashoffset:0.0;stroke-linecap:butt;stroke-width:0.5;"/>
     </g>
     <g id="line2d_5">
      <defs>
       <path d="
M0 0
L0 -4" id="m0012dd4eef" style="stroke:#000000;stroke-linecap:butt;stroke-width:0.5;"/>
      </defs>
      <g>
       <use style="stroke:#000000;stroke-linecap:butt;stroke-width:0.5;" x="72.0" xlink:href="#m0012dd4eef" y="388.8"/>
      </g>
     </g>
     <g id="line2d_6">
      <defs>
       <path d="
M0 0
L0 4" id="m476344969c" style="stroke:#000000;stroke-linecap:butt;stroke-width:0.5;"/>
      </defs>
      <g>
       <use style="stroke:#000000;stroke-linecap:butt;stroke-width:0.5;" x="72.0" xlink:href="#m476344969c" y="43.2"/>
      </g>
     </g>
     <g id="text_1">
      <!-- 0 -->
      <defs>
       <path d="
M31.7812 66.4062
Q24.1719 66.4062 20.3281 58.9062
Q16.5 51.4219 16.5 36.375
Q16.5 21.3906 20.3281 13.8906
Q24.1719 6.39062 31.7812 6.39062
Q39.4531 6.39062 43.2812 13.8906
Q47.125 21.3906 47.125 36.375
Q47.125 51.4219 43.2812 58.9062
Q39.4531 66.4062 31.7812 66.4062
M31.7812 74.2188
Q44.0469 74.2188 50.5156 64.5156
Q56.9844 54.8281 56.9844 36.375
Q56.9844 17.9688 50.5156 8.26562
Q44.0469 -1.42188 31.7812 -1.42188
Q19.5312 -1.42188 13.0625 8.26562
Q6.59375 17.9688 6.59375 36.375
Q6.59375 54.8281 13.0625 64.5156
Q19.5312 74.2188 31.7812 74.2188" id="BitstreamVeraSans-Roman-30"/>
      </defs>
      <g transform="translate(68.9765625 401.70625)scale(0.12 -0.12)">
       <use xlink:href="#BitstreamVeraSans-Roman-30"/>
      </g>
     </g>
    </g>
    <g id="xtick_2">
     <g id="line2d_7">
      <path clip-path="url(#p7ff5b81e1d)" d="
M116.64 388.8
L116.64 43.2" style="fill:none;stroke:#000000;stroke-dasharray:1.000000,3.000000;stroke-dashoffset:0.0;stroke-linecap:butt;stroke-width:0.5;"/>
     </g>
     <g id="line2d_8">
      <g>
       <use style="stroke:#000000;stroke-linecap:butt;stroke-width:0.5;" x="116.64" xlink:href="#m0012dd4eef" y="388.8"/>
      </g>
     </g>
     <g id="line2d_9">
      <g>
       <use style="stroke:#000000;stroke-linecap:butt;stroke-width:0.5;" x="116.64" xlink:href="#m476344969c" y="43.2"/>
      </g>
     </g>
     <g id="text_2">
      <!-- 100 -->
      <defs>
       <path d="
M12.4062 8.29688
L28.5156 8.29688
L28.5156 63.9219
L10.9844 60.4062
L10.9844 69.3906
L28.4219 72.9062
L38.2812 72.9062
L38.2812 8.29688
L54.3906 8.29688
L54.3906 0
L12.4062 0
z
" id="BitstreamVeraSans-Roman-31"/>
      </defs>
      <g transform="translate(106.245 401.70625)scale(0.12 -0.12)">
       <use xlink:href="#BitstreamVeraSans-Roman-31"/>
       <use x="63.623046875" xlink:href="#BitstreamVeraSans-Roman-30"/>
       <use x="127.24609375" xlink:href="#BitstreamVeraSans-Roman-30"/>
      </g>
     </g>
    </g>
    <g id="xtick_3">
     <g id="line2d_10">
      <path clip-path="url(#p7ff5b81e1d)" d="
M161.28 388.8
L161.28 43.2" style="fill:none;stroke:#000000;stroke-dasharray:1.000000,3.000000;stroke-dashoffset:0.0;stroke-linecap:butt;stroke-width:0.5;"/>
     </g>
     <g id="line2d_11">
      <g>
       <use style="stroke:#000000;stroke-linecap:butt;stroke-width:0.5;" x="161.28" xlink:href="#m0012dd4eef" y="388.8"/>
      </g>
     </g>
     <g id="line2d_12">
      <g>
       <use style="stroke:#000000;stroke-linecap:butt;stroke-width:0.5;" x="161.28" xlink:href="#m476344969c" y="43.2"/>
      </g>
     </g>
     <g id="text_3">
      <!-- 200 -->
      <defs>
       <path d="
M19.1875 8.29688
L53.6094 8.29688
L53.6094 0
L7.32812 0
L7.32812 8.29688
Q12.9375 14.1094 22.625 23.8906
Q32.3281 33.6875 34.8125 36.5312
Q39.5469 41.8438 41.4219 45.5312
Q43.3125 49.2188 43.3125 52.7812
Q43.3125 58.5938 39.2344 62.25
Q35.1562 65.9219 28.6094 65.9219
Q23.9688 65.9219 18.8125 64.3125
Q13.6719 62.7031 7.8125 59.4219
L7.8125 69.3906
Q13.7656 71.7812 18.9375 73
Q24.125 74.2188 28.4219 74.2188
Q39.75 74.2188 46.4844 68.5469
Q53.2188 62.8906 53.2188 53.4219
Q53.2188 48.9219 51.5312 44.8906
Q49.8594 40.875 45.4062 35.4062
Q44.1875 33.9844 37.6406 27.2188
Q31.1094 20.4531 19.1875 8.29688" id="BitstreamVeraSans-Roman-32"/>
      </defs>
      <g transform="translate(150.665625 401.70625)scale(0.12 -0.12)">
       <use xlink:href="#BitstreamVeraSans-Roman-32"/>
       <use x="63.623046875" xlink:href="#BitstreamVeraSans-Roman-30"/>
       <use x="127.24609375" xlink:href="#BitstreamVeraSans-Roman-30"/>
      </g>
     </g>
    </g>
    <g id="xtick_4">
     <g id="line2d_13">
      <path clip-path="url(#p7ff5b81e1d)" d="
M205.92 388.8
L205.92 43.2" style="fill:none;stroke:#000000;stroke-dasharray:1.000000,3.000000;stroke-dashoffset:0.0;stroke-linecap:butt;stroke-width:0.5;"/>
     </g>
     <g id="line2d_14">
      <g>
       <use style="stroke:#000000;stroke-linecap:butt;stroke-width:0.5;" x="205.92" xlink:href="#m0012dd4eef" y="388.8"/>
      </g>
     </g>
     <g id="line2d_15">
      <g>
       <use style="stroke:#000000;stroke-linecap:butt;stroke-width:0.5;" x="205.92" xlink:href="#m476344969c" y="43.2"/>
      </g>
     </g>
     <g id="text_4">
      <!-- 300 -->
      <defs>
       <path d="
M40.5781 39.3125
Q47.6562 37.7969 51.625 33
Q55.6094 28.2188 55.6094 21.1875
Q55.6094 10.4062 48.1875 4.48438
Q40.7656 -1.42188 27.0938 -1.42188
Q22.5156 -1.42188 17.6562 -0.515625
Q12.7969 0.390625 7.625 2.20312
L7.625 11.7188
Q11.7188 9.32812 16.5938 8.10938
Q21.4844 6.89062 26.8125 6.89062
Q36.0781 6.89062 40.9375 10.5469
Q45.7969 14.2031 45.7969 21.1875
Q45.7969 27.6406 41.2812 31.2656
Q36.7656 34.9062 28.7188 34.9062
L20.2188 34.9062
L20.2188 43.0156
L29.1094 43.0156
Q36.375 43.0156 40.2344 45.9219
Q44.0938 48.8281 44.0938 54.2969
Q44.0938 59.9062 40.1094 62.9062
Q36.1406 65.9219 28.7188 65.9219
Q24.6562 65.9219 20.0156 65.0312
Q15.375 64.1562 9.8125 62.3125
L9.8125 71.0938
Q15.4375 72.6562 20.3438 73.4375
Q25.25 74.2188 29.5938 74.2188
Q40.8281 74.2188 47.3594 69.1094
Q53.9062 64.0156 53.9062 55.3281
Q53.9062 49.2656 50.4375 45.0938
Q46.9688 40.9219 40.5781 39.3125" id="BitstreamVeraSans-Roman-33"/>
      </defs>
      <g transform="translate(195.3234375 401.70625)scale(0.12 -0.12)">
       <use xlink:href="#BitstreamVeraSans-Roman-33"/>
       <use x="63.623046875" xlink:href="#BitstreamVeraSans-Roman-30"/>
       <use x="127.24609375" xlink:href="#BitstreamVeraSans-Roman-30"/>
      </g>
     </g>
    </g>
    <g id="xtick_5">
     <g id="line2d_16">
      <path clip-path="url(#p7ff5b81e1d)" d="
M250.56 388.8
L250.56 43.2" style="fill:none;stroke:#000000;stroke-dasharray:1.000000,3.000000;stroke-dashoffset:0.0;stroke-linecap:butt;stroke-width:0.5;"/>
     </g>
     <g id="line2d_17">
      <g>
       <use style="stroke:#000000;stroke-linecap:butt;stroke-width:0.5;" x="250.56" xlink:href="#m0012dd4eef" y="388.8"/>
      </g>
     </g>
     <g id="line2d_18">
      <g>
       <use style="stroke:#000000;stroke-linecap:butt;stroke-width:0.5;" x="250.56" xlink:href="#m476344969c" y="43.2"/>
      </g>
     </g>
     <g id="text_5">
      <!-- 400 -->
      <defs>
       <path d="
M37.7969 64.3125
L12.8906 25.3906
L37.7969 25.3906
z

M35.2031 72.9062
L47.6094 72.9062
L47.6094 25.3906
L58.0156 25.3906
L58.0156 17.1875
L47.6094 17.1875
L47.6094 0
L37.7969 0
L37.7969 17.1875
L4.89062 17.1875
L4.89062 26.7031
z
" id="BitstreamVeraSans-Roman-34"/>
      </defs>
      <g transform="translate(239.799375 401.70625)scale(0.12 -0.12)">
       <use xlink:href="#BitstreamVeraSans-Roman-34"/>
       <use x="63.623046875" xlink:href="#BitstreamVeraSans-Roman-30"/>
       <use x="127.24609375" xlink:href="#BitstreamVeraSans-Roman-30"/>
      </g>
     </g>
    </g>
    <g id="xtick_6">
     <g id="line2d_19">
      <path clip-path="url(#p7ff5b81e1d)" d="
M295.2 388.8
L295.2 43.2" style="fill:none;stroke:#000000;stroke-dasharray:1.000000,3.000000;stroke-dashoffset:0.0;stroke-linecap:butt;stroke-width:0.5;"/>
     </g>
     <g id="line2d_20">
      <g>
       <use style="stroke:#000000;stroke-linecap:butt;stroke-width:0.5;" x="295.2" xlink:href="#m0012dd4eef" y="388.8"/>
      </g>
     </g>
     <g id="line2d_21">
      <g>
       <use style="stroke:#000000;stroke-linecap:butt;stroke-width:0.5;" x="295.2" xlink:href="#m476344969c" y="43.2"/>
      </g>
     </g>
     <g id="text_6">
      <!-- 500 -->
      <defs>
       <path d="
M10.7969 72.9062
L49.5156 72.9062
L49.5156 64.5938
L19.8281 64.5938
L19.8281 46.7344
Q21.9688 47.4688 24.1094 47.8281
Q26.2656 48.1875 28.4219 48.1875
Q40.625 48.1875 47.75 41.5
Q54.8906 34.8125 54.8906 23.3906
Q54.8906 11.625 47.5625 5.09375
Q40.2344 -1.42188 26.9062 -1.42188
Q22.3125 -1.42188 17.5469 -0.640625
Q12.7969 0.140625 7.71875 1.70312
L7.71875 11.625
Q12.1094 9.23438 16.7969 8.0625
Q21.4844 6.89062 26.7031 6.89062
Q35.1562 6.89062 40.0781 11.3281
Q45.0156 15.7656 45.0156 23.3906
Q45.0156 31 40.0781 35.4375
Q35.1562 39.8906 26.7031 39.8906
Q22.75 39.8906 18.8125 39.0156
Q14.8906 38.1406 10.7969 36.2812
z
" id="BitstreamVeraSans-Roman-35"/>
      </defs>
      <g transform="translate(284.6090625 401.70625)scale(0.12 -0.12)">
       <use xlink:href="#BitstreamVeraSans-Roman-35"/>
       <use x="63.623046875" xlink:href="#BitstreamVeraSans-Roman-30"/>
       <use x="127.24609375" xlink:href="#BitstreamVeraSans-Roman-30"/>
      </g>
     </g>
    </g>
    <g id="xtick_7">
     <g id="line2d_22">
      <path clip-path="url(#p7ff5b81e1d)" d="
M339.84 388.8
L339.84 43.2" style="fill:none;stroke:#000000;stroke-dasharray:1.000000,3.000000;stroke-dashoffset:0.0;stroke-linecap:butt;stroke-width:0.5;"/>
     </g>
     <g id="line2d_23">
      <g>
       <use style="stroke:#000000;stroke-linecap:butt;stroke-width:0.5;" x="339.84" xlink:href="#m0012dd4eef" y="388.8"/>
      </g>
     </g>
     <g id="line2d_24">
      <g>
       <use style="stroke:#000000;stroke-linecap:butt;stroke-width:0.5;" x="339.84" xlink:href="#m476344969c" y="43.2"/>
      </g>
     </g>
     <g id="text_7">
      <!-- 600 -->
      <defs>
       <path d="
M33.0156 40.375
Q26.375 40.375 22.4844 35.8281
Q18.6094 31.2969 18.6094 23.3906
Q18.6094 15.5312 22.4844 10.9531
Q26.375 6.39062 33.0156 6.39062
Q39.6562 6.39062 43.5312 10.9531
Q47.4062 15.5312 47.4062 23.3906
Q47.4062 31.2969 43.5312 35.8281
Q39.6562 40.375 33.0156 40.375
M52.5938 71.2969
L52.5938 62.3125
Q48.875 64.0625 45.0938 64.9844
Q41.3125 65.9219 37.5938 65.9219
Q27.8281 65.9219 22.6719 59.3281
Q17.5312 52.7344 16.7969 39.4062
Q19.6719 43.6562 24.0156 45.9219
Q28.375 48.1875 33.5938 48.1875
Q44.5781 48.1875 50.9531 41.5156
Q57.3281 34.8594 57.3281 23.3906
Q57.3281 12.1562 50.6875 5.35938
Q44.0469 -1.42188 33.0156 -1.42188
Q20.3594 -1.42188 13.6719 8.26562
Q6.98438 17.9688 6.98438 36.375
Q6.98438 53.6562 15.1875 63.9375
Q23.3906 74.2188 37.2031 74.2188
Q40.9219 74.2188 44.7031 73.4844
Q48.4844 72.75 52.5938 71.2969" id="BitstreamVeraSans-Roman-36"/>
      </defs>
      <g transform="translate(329.205 401.70625)scale(0.12 -0.12)">
       <use xlink:href="#BitstreamVeraSans-Roman-36"/>
       <use x="63.623046875" xlink:href="#BitstreamVeraSans-Roman-30"/>
       <use x="127.24609375" xlink:href="#BitstreamVeraSans-Roman-30"/>
      </g>
     </g>
    </g>
    <g id="xtick_8">
     <g id="line2d_25">
      <path clip-path="url(#p7ff5b81e1d)" d="
M384.48 388.8
L384.48 43.2" style="fill:none;stroke:#000000;stroke-dasharray:1.000000,3.000000;stroke-dashoffset:0.0;stroke-linecap:butt;stroke-width:0.5;"/>
     </g>
     <g id="line2d_26">
      <g>
       <use style="stroke:#000000;stroke-linecap:butt;stroke-width:0.5;" x="384.48" xlink:href="#m0012dd4eef" y="388.8"/>
      </g>
     </g>
     <g id="line2d_27">
      <g>
       <use style="stroke:#000000;stroke-linecap:butt;stroke-width:0.5;" x="384.48" xlink:href="#m476344969c" y="43.2"/>
      </g>
     </g>
     <g id="text_8">
      <!-- 700 -->
      <defs>
       <path d="
M8.20312 72.9062
L55.0781 72.9062
L55.0781 68.7031
L28.6094 0
L18.3125 0
L43.2188 64.5938
L8.20312 64.5938
z
" id="BitstreamVeraSans-Roman-37"/>
      </defs>
      <g transform="translate(373.918125 401.70625)scale(0.12 -0.12)">
       <use xlink:href="#BitstreamVeraSans-Roman-37"/>
       <use x="63.623046875" xlink:href="#BitstreamVeraSans-Roman-30"/>
       <use x="127.24609375" xlink:href="#BitstreamVeraSans-Roman-30"/>
      </g>
     </g>
    </g>
    <g id="xtick_9">
     <g id="line2d_28">
      <path clip-path="url(#p7ff5b81e1d)" d="
M429.12 388.8
L429.12 43.2" style="fill:none;stroke:#000000;stroke-dasharray:1.000000,3.000000;stroke-dashoffset:0.0;stroke-linecap:butt;stroke-width:0.5;"/>
     </g>
     <g id="line2d_29">
      <g>
       <use style="stroke:#000000;stroke-linecap:butt;stroke-width:0.5;" x="429.12" xlink:href="#m0012dd4eef" y="388.8"/>
      </g>
     </g>
     <g id="line2d_30">
      <g>
       <use style="stroke:#000000;stroke-linecap:butt;stroke-width:0.5;" x="429.12" xlink:href="#m476344969c" y="43.2"/>
      </g>
     </g>
     <g id="text_9">
      <!-- 800 -->
      <defs>
       <path d="
M31.7812 34.625
Q24.75 34.625 20.7188 30.8594
Q16.7031 27.0938 16.7031 20.5156
Q16.7031 13.9219 20.7188 10.1562
Q24.75 6.39062 31.7812 6.39062
Q38.8125 6.39062 42.8594 10.1719
Q46.9219 13.9688 46.9219 20.5156
Q46.9219 27.0938 42.8906 30.8594
Q38.875 34.625 31.7812 34.625
M21.9219 38.8125
Q15.5781 40.375 12.0312 44.7188
Q8.5 49.0781 8.5 55.3281
Q8.5 64.0625 14.7188 69.1406
Q20.9531 74.2188 31.7812 74.2188
Q42.6719 74.2188 48.875 69.1406
Q55.0781 64.0625 55.0781 55.3281
Q55.0781 49.0781 51.5312 44.7188
Q48 40.375 41.7031 38.8125
Q48.8281 37.1562 52.7969 32.3125
Q56.7812 27.4844 56.7812 20.5156
Q56.7812 9.90625 50.3125 4.23438
Q43.8438 -1.42188 31.7812 -1.42188
Q19.7344 -1.42188 13.25 4.23438
Q6.78125 9.90625 6.78125 20.5156
Q6.78125 27.4844 10.7812 32.3125
Q14.7969 37.1562 21.9219 38.8125
M18.3125 54.3906
Q18.3125 48.7344 21.8438 45.5625
Q25.3906 42.3906 31.7812 42.3906
Q38.1406 42.3906 41.7188 45.5625
Q45.3125 48.7344 45.3125 54.3906
Q45.3125 60.0625 41.7188 63.2344
Q38.1406 66.4062 31.7812 66.4062
Q25.3906 66.4062 21.8438 63.2344
Q18.3125 60.0625 18.3125 54.3906" id="BitstreamVeraSans-Roman-38"/>
      </defs>
      <g transform="translate(418.4728125 401.70625)scale(0.12 -0.12)">
       <use xlink:href="#BitstreamVeraSans-Roman-38"/>
       <use x="63.623046875" xlink:href="#BitstreamVeraSans-Roman-30"/>
       <use x="127.24609375" xlink:href="#BitstreamVeraSans-Roman-30"/>
      </g>
     </g>
    </g>
    <g id="xtick_10">
     <g id="line2d_31">
      <path clip-path="url(#p7ff5b81e1d)" d="
M473.76 388.8
L473.76 43.2" style="fill:none;stroke:#000000;stroke-dasharray:1.000000,3.000000;stroke-dashoffset:0.0;stroke-linecap:butt;stroke-width:0.5;"/>
     </g>
     <g id="line2d_32">
      <g>
       <use style="stroke:#000000;stroke-linecap:butt;stroke-width:0.5;" x="473.76" xlink:href="#m0012dd4eef" y="388.8"/>
      </g>
     </g>
     <g id="line2d_33">
      <g>
       <use style="stroke:#000000;stroke-linecap:butt;stroke-width:0.5;" x="473.76" xlink:href="#m476344969c" y="43.2"/>
      </g>
     </g>
     <g id="text_10">
      <!-- 900 -->
      <defs>
       <path d="
M10.9844 1.51562
L10.9844 10.5
Q14.7031 8.73438 18.5 7.8125
Q22.3125 6.89062 25.9844 6.89062
Q35.75 6.89062 40.8906 13.4531
Q46.0469 20.0156 46.7812 33.4062
Q43.9531 29.2031 39.5938 26.9531
Q35.25 24.7031 29.9844 24.7031
Q19.0469 24.7031 12.6719 31.3125
Q6.29688 37.9375 6.29688 49.4219
Q6.29688 60.6406 12.9375 67.4219
Q19.5781 74.2188 30.6094 74.2188
Q43.2656 74.2188 49.9219 64.5156
Q56.5938 54.8281 56.5938 36.375
Q56.5938 19.1406 48.4062 8.85938
Q40.2344 -1.42188 26.4219 -1.42188
Q22.7031 -1.42188 18.8906 -0.6875
Q15.0938 0.046875 10.9844 1.51562
M30.6094 32.4219
Q37.25 32.4219 41.125 36.9531
Q45.0156 41.5 45.0156 49.4219
Q45.0156 57.2812 41.125 61.8438
Q37.25 66.4062 30.6094 66.4062
Q23.9688 66.4062 20.0938 61.8438
Q16.2188 57.2812 16.2188 49.4219
Q16.2188 41.5 20.0938 36.9531
Q23.9688 32.4219 30.6094 32.4219" id="BitstreamVeraSans-Roman-39"/>
      </defs>
      <g transform="translate(463.08375 401.70625)scale(0.12 -0.12)">
       <use xlink:href="#BitstreamVeraSans-Roman-39"/>
       <use x="63.623046875" xlink:href="#BitstreamVeraSans-Roman-30"/>
       <use x="127.24609375" xlink:href="#BitstreamVeraSans-Roman-30"/>
      </g>
     </g>
    </g>
   </g>
   <g id="matplotlib.axis_2">
    <g id="ytick_1">
     <g id="line2d_34">
      <path clip-path="url(#p7ff5b81e1d)" d="
M72 388.8
L518.4 388.8" style="fill:none;stroke:#000000;stroke-dasharray:1.000000,3.000000;stroke-dashoffset:0.0;stroke-linecap:butt;stroke-width:0.5;"/>
     </g>
     <g id="line2d_35">
      <defs>
       <path d="
M0 0
L4 0" id="me8a85f7bf6" style="stroke:#000000;stroke-linecap:butt;stroke-width:0.5;"/>
      </defs>
      <g>
       <use style="stroke:#000000;stroke-linecap:butt;stroke-width:0.5;" x="72.0" xlink:href="#me8a85f7bf6" y="388.8"/>
      </g>
     </g>
     <g id="line2d_36">
      <defs>
       <path d="
M0 0
L-4 0" id="m1a32005dea" style="stroke:#000000;stroke-linecap:butt;stroke-width:0.5;"/>
      </defs>
      <g>
       <use style="stroke:#000000;stroke-linecap:butt;stroke-width:0.5;" x="518.4" xlink:href="#m1a32005dea" y="388.8"/>
      </g>
     </g>
     <g id="text_11">
      <!-- 0.000 -->
      <defs>
       <path d="
M10.6875 12.4062
L21 12.4062
L21 0
L10.6875 0
z
" id="BitstreamVeraSans-Roman-2e"/>
      </defs>
      <g transform="translate(35.234375 393.1678125)scale(0.12 -0.12)">
       <use xlink:href="#BitstreamVeraSans-Roman-30"/>
       <use x="63.623046875" xlink:href="#BitstreamVeraSans-Roman-2e"/>
       <use x="95.41015625" xlink:href="#BitstreamVeraSans-Roman-30"/>
       <use x="159.033203125" xlink:href="#BitstreamVeraSans-Roman-30"/>
       <use x="222.65625" xlink:href="#BitstreamVeraSans-Roman-30"/>
      </g>
     </g>
    </g>
    <g id="ytick_2">
     <g id="line2d_37">
      <path clip-path="url(#p7ff5b81e1d)" d="
M72 354.24
L518.4 354.24" style="fill:none;stroke:#000000;stroke-dasharray:1.000000,3.000000;stroke-dashoffset:0.0;stroke-linecap:butt;stroke-width:0.5;"/>
     </g>
     <g id="line2d_38">
      <g>
       <use style="stroke:#000000;stroke-linecap:butt;stroke-width:0.5;" x="72.0" xlink:href="#me8a85f7bf6" y="354.24"/>
      </g>
     </g>
     <g id="line2d_39">
      <g>
       <use style="stroke:#000000;stroke-linecap:butt;stroke-width:0.5;" x="518.4" xlink:href="#m1a32005dea" y="354.24"/>
      </g>
     </g>
     <g id="text_12">
      <!-- 0.002 -->
      <g transform="translate(35.639375 358.6078125)scale(0.12 -0.12)">
       <use xlink:href="#BitstreamVeraSans-Roman-30"/>
       <use x="63.623046875" xlink:href="#BitstreamVeraSans-Roman-2e"/>
       <use x="95.41015625" xlink:href="#BitstreamVeraSans-Roman-30"/>
       <use x="159.033203125" xlink:href="#BitstreamVeraSans-Roman-30"/>
       <use x="222.65625" xlink:href="#BitstreamVeraSans-Roman-32"/>
      </g>
     </g>
    </g>
    <g id="ytick_3">
     <g id="line2d_40">
      <path clip-path="url(#p7ff5b81e1d)" d="
M72 319.68
L518.4 319.68" style="fill:none;stroke:#000000;stroke-dasharray:1.000000,3.000000;stroke-dashoffset:0.0;stroke-linecap:butt;stroke-width:0.5;"/>
     </g>
     <g id="line2d_41">
      <g>
       <use style="stroke:#000000;stroke-linecap:butt;stroke-width:0.5;" x="72.0" xlink:href="#me8a85f7bf6" y="319.68"/>
      </g>
     </g>
     <g id="line2d_42">
      <g>
       <use style="stroke:#000000;stroke-linecap:butt;stroke-width:0.5;" x="518.4" xlink:href="#m1a32005dea" y="319.68"/>
      </g>
     </g>
     <g id="text_13">
      <!-- 0.004 -->
      <g transform="translate(35.110625 324.0478125)scale(0.12 -0.12)">
       <use xlink:href="#BitstreamVeraSans-Roman-30"/>
       <use x="63.623046875" xlink:href="#BitstreamVeraSans-Roman-2e"/>
       <use x="95.41015625" xlink:href="#BitstreamVeraSans-Roman-30"/>
       <use x="159.033203125" xlink:href="#BitstreamVeraSans-Roman-30"/>
       <use x="222.65625" xlink:href="#BitstreamVeraSans-Roman-34"/>
      </g>
     </g>
    </g>
    <g id="ytick_4">
     <g id="line2d_43">
      <path clip-path="url(#p7ff5b81e1d)" d="
M72 285.12
L518.4 285.12" style="fill:none;stroke:#000000;stroke-dasharray:1.000000,3.000000;stroke-dashoffset:0.0;stroke-linecap:butt;stroke-width:0.5;"/>
     </g>
     <g id="line2d_44">
      <g>
       <use style="stroke:#000000;stroke-linecap:butt;stroke-width:0.5;" x="72.0" xlink:href="#me8a85f7bf6" y="285.12"/>
      </g>
     </g>
     <g id="line2d_45">
      <g>
       <use style="stroke:#000000;stroke-linecap:butt;stroke-width:0.5;" x="518.4" xlink:href="#m1a32005dea" y="285.12"/>
      </g>
     </g>
     <g id="text_14">
      <!-- 0.006 -->
      <g transform="translate(35.193125 289.4878125)scale(0.12 -0.12)">
       <use xlink:href="#BitstreamVeraSans-Roman-30"/>
       <use x="63.623046875" xlink:href="#BitstreamVeraSans-Roman-2e"/>
       <use x="95.41015625" xlink:href="#BitstreamVeraSans-Roman-30"/>
       <use x="159.033203125" xlink:href="#BitstreamVeraSans-Roman-30"/>
       <use x="222.65625" xlink:href="#BitstreamVeraSans-Roman-36"/>
      </g>
     </g>
    </g>
    <g id="ytick_5">
     <g id="line2d_46">
      <path clip-path="url(#p7ff5b81e1d)" d="
M72 250.56
L518.4 250.56" style="fill:none;stroke:#000000;stroke-dasharray:1.000000,3.000000;stroke-dashoffset:0.0;stroke-linecap:butt;stroke-width:0.5;"/>
     </g>
     <g id="line2d_47">
      <g>
       <use style="stroke:#000000;stroke-linecap:butt;stroke-width:0.5;" x="72.0" xlink:href="#me8a85f7bf6" y="250.56"/>
      </g>
     </g>
     <g id="line2d_48">
      <g>
       <use style="stroke:#000000;stroke-linecap:butt;stroke-width:0.5;" x="518.4" xlink:href="#m1a32005dea" y="250.56"/>
      </g>
     </g>
     <g id="text_15">
      <!-- 0.008 -->
      <g transform="translate(35.25875 254.9278125)scale(0.12 -0.12)">
       <use xlink:href="#BitstreamVeraSans-Roman-30"/>
       <use x="63.623046875" xlink:href="#BitstreamVeraSans-Roman-2e"/>
       <use x="95.41015625" xlink:href="#BitstreamVeraSans-Roman-30"/>
       <use x="159.033203125" xlink:href="#BitstreamVeraSans-Roman-30"/>
       <use x="222.65625" xlink:href="#BitstreamVeraSans-Roman-38"/>
      </g>
     </g>
    </g>
    <g id="ytick_6">
     <g id="line2d_49">
      <path clip-path="url(#p7ff5b81e1d)" d="
M72 216
L518.4 216" style="fill:none;stroke:#000000;stroke-dasharray:1.000000,3.000000;stroke-dashoffset:0.0;stroke-linecap:butt;stroke-width:0.5;"/>
     </g>
     <g id="line2d_50">
      <g>
       <use style="stroke:#000000;stroke-linecap:butt;stroke-width:0.5;" x="72.0" xlink:href="#me8a85f7bf6" y="216.0"/>
      </g>
     </g>
     <g id="line2d_51">
      <g>
       <use style="stroke:#000000;stroke-linecap:butt;stroke-width:0.5;" x="518.4" xlink:href="#m1a32005dea" y="216.0"/>
      </g>
     </g>
     <g id="text_16">
      <!-- 0.010 -->
      <g transform="translate(35.234375 220.3678125)scale(0.12 -0.12)">
       <use xlink:href="#BitstreamVeraSans-Roman-30"/>
       <use x="63.623046875" xlink:href="#BitstreamVeraSans-Roman-2e"/>
       <use x="95.41015625" xlink:href="#BitstreamVeraSans-Roman-30"/>
       <use x="159.033203125" xlink:href="#BitstreamVeraSans-Roman-31"/>
       <use x="222.65625" xlink:href="#BitstreamVeraSans-Roman-30"/>
      </g>
     </g>
    </g>
    <g id="ytick_7">
     <g id="line2d_52">
      <path clip-path="url(#p7ff5b81e1d)" d="
M72 181.44
L518.4 181.44" style="fill:none;stroke:#000000;stroke-dasharray:1.000000,3.000000;stroke-dashoffset:0.0;stroke-linecap:butt;stroke-width:0.5;"/>
     </g>
     <g id="line2d_53">
      <g>
       <use style="stroke:#000000;stroke-linecap:butt;stroke-width:0.5;" x="72.0" xlink:href="#me8a85f7bf6" y="181.44"/>
      </g>
     </g>
     <g id="line2d_54">
      <g>
       <use style="stroke:#000000;stroke-linecap:butt;stroke-width:0.5;" x="518.4" xlink:href="#m1a32005dea" y="181.44"/>
      </g>
     </g>
     <g id="text_17">
      <!-- 0.012 -->
      <g transform="translate(35.639375 185.8078125)scale(0.12 -0.12)">
       <use xlink:href="#BitstreamVeraSans-Roman-30"/>
       <use x="63.623046875" xlink:href="#BitstreamVeraSans-Roman-2e"/>
       <use x="95.41015625" xlink:href="#BitstreamVeraSans-Roman-30"/>
       <use x="159.033203125" xlink:href="#BitstreamVeraSans-Roman-31"/>
       <use x="222.65625" xlink:href="#BitstreamVeraSans-Roman-32"/>
      </g>
     </g>
    </g>
    <g id="ytick_8">
     <g id="line2d_55">
      <path clip-path="url(#p7ff5b81e1d)" d="
M72 146.88
L518.4 146.88" style="fill:none;stroke:#000000;stroke-dasharray:1.000000,3.000000;stroke-dashoffset:0.0;stroke-linecap:butt;stroke-width:0.5;"/>
     </g>
     <g id="line2d_56">
      <g>
       <use style="stroke:#000000;stroke-linecap:butt;stroke-width:0.5;" x="72.0" xlink:href="#me8a85f7bf6" y="146.88"/>
      </g>
     </g>
     <g id="line2d_57">
      <g>
       <use style="stroke:#000000;stroke-linecap:butt;stroke-width:0.5;" x="518.4" xlink:href="#m1a32005dea" y="146.88"/>
      </g>
     </g>
     <g id="text_18">
      <!-- 0.014 -->
      <g transform="translate(35.110625 151.2478125)scale(0.12 -0.12)">
       <use xlink:href="#BitstreamVeraSans-Roman-30"/>
       <use x="63.623046875" xlink:href="#BitstreamVeraSans-Roman-2e"/>
       <use x="95.41015625" xlink:href="#BitstreamVeraSans-Roman-30"/>
       <use x="159.033203125" xlink:href="#BitstreamVeraSans-Roman-31"/>
       <use x="222.65625" xlink:href="#BitstreamVeraSans-Roman-34"/>
      </g>
     </g>
    </g>
    <g id="ytick_9">
     <g id="line2d_58">
      <path clip-path="url(#p7ff5b81e1d)" d="
M72 112.32
L518.4 112.32" style="fill:none;stroke:#000000;stroke-dasharray:1.000000,3.000000;stroke-dashoffset:0.0;stroke-linecap:butt;stroke-width:0.5;"/>
     </g>
     <g id="line2d_59">
      <g>
       <use style="stroke:#000000;stroke-linecap:butt;stroke-width:0.5;" x="72.0" xlink:href="#me8a85f7bf6" y="112.32"/>
      </g>
     </g>
     <g id="line2d_60">
      <g>
       <use style="stroke:#000000;stroke-linecap:butt;stroke-width:0.5;" x="518.4" xlink:href="#m1a32005dea" y="112.32"/>
      </g>
     </g>
     <g id="text_19">
      <!-- 0.016 -->
      <g transform="translate(35.193125 116.6878125)scale(0.12 -0.12)">
       <use xlink:href="#BitstreamVeraSans-Roman-30"/>
       <use x="63.623046875" xlink:href="#BitstreamVeraSans-Roman-2e"/>
       <use x="95.41015625" xlink:href="#BitstreamVeraSans-Roman-30"/>
       <use x="159.033203125" xlink:href="#BitstreamVeraSans-Roman-31"/>
       <use x="222.65625" xlink:href="#BitstreamVeraSans-Roman-36"/>
      </g>
     </g>
    </g>
    <g id="ytick_10">
     <g id="line2d_61">
      <path clip-path="url(#p7ff5b81e1d)" d="
M72 77.76
L518.4 77.76" style="fill:none;stroke:#000000;stroke-dasharray:1.000000,3.000000;stroke-dashoffset:0.0;stroke-linecap:butt;stroke-width:0.5;"/>
     </g>
     <g id="line2d_62">
      <g>
       <use style="stroke:#000000;stroke-linecap:butt;stroke-width:0.5;" x="72.0" xlink:href="#me8a85f7bf6" y="77.76"/>
      </g>
     </g>
     <g id="line2d_63">
      <g>
       <use style="stroke:#000000;stroke-linecap:butt;stroke-width:0.5;" x="518.4" xlink:href="#m1a32005dea" y="77.76"/>
      </g>
     </g>
     <g id="text_20">
      <!-- 0.018 -->
      <g transform="translate(35.25875 82.1278125)scale(0.12 -0.12)">
       <use xlink:href="#BitstreamVeraSans-Roman-30"/>
       <use x="63.623046875" xlink:href="#BitstreamVeraSans-Roman-2e"/>
       <use x="95.41015625" xlink:href="#BitstreamVeraSans-Roman-30"/>
       <use x="159.033203125" xlink:href="#BitstreamVeraSans-Roman-31"/>
       <use x="222.65625" xlink:href="#BitstreamVeraSans-Roman-38"/>
      </g>
     </g>
    </g>
    <g id="text_21">
     <!-- Sec/file -->
     <defs>
      <path d="
M9.42188 75.9844
L18.4062 75.9844
L18.4062 0
L9.42188 0
z
" id="BitstreamVeraSans-Roman-6c"/>
      <path d="
M53.5156 70.5156
L53.5156 60.8906
Q47.9062 63.5781 42.9219 64.8906
Q37.9375 66.2188 33.2969 66.2188
Q25.25 66.2188 20.875 63.0938
Q16.5 59.9688 16.5 54.2031
Q16.5 49.3594 19.4062 46.8906
Q22.3125 44.4375 30.4219 42.9219
L36.375 41.7031
Q47.4062 39.5938 52.6562 34.2969
Q57.9062 29 57.9062 20.125
Q57.9062 9.51562 50.7969 4.04688
Q43.7031 -1.42188 29.9844 -1.42188
Q24.8125 -1.42188 18.9688 -0.25
Q13.1406 0.921875 6.89062 3.21875
L6.89062 13.375
Q12.8906 10.0156 18.6562 8.29688
Q24.4219 6.59375 29.9844 6.59375
Q38.4219 6.59375 43.0156 9.90625
Q47.6094 13.2344 47.6094 19.3906
Q47.6094 24.75 44.3125 27.7812
Q41.0156 30.8125 33.5 32.3281
L27.4844 33.5
Q16.4531 35.6875 11.5156 40.375
Q6.59375 45.0625 6.59375 53.4219
Q6.59375 63.0938 13.4062 68.6562
Q20.2188 74.2188 32.1719 74.2188
Q37.3125 74.2188 42.625 73.2812
Q47.9531 72.3594 53.5156 70.5156" id="BitstreamVeraSans-Roman-53"/>
      <path d="
M9.42188 54.6875
L18.4062 54.6875
L18.4062 0
L9.42188 0
z

M9.42188 75.9844
L18.4062 75.9844
L18.4062 64.5938
L9.42188 64.5938
z
" id="BitstreamVeraSans-Roman-69"/>
      <path d="
M25.3906 72.9062
L33.6875 72.9062
L8.29688 -9.28125
L0 -9.28125
z
" id="BitstreamVeraSans-Roman-2f"/>
      <path d="
M56.2031 29.5938
L56.2031 25.2031
L14.8906 25.2031
Q15.4844 15.9219 20.4844 11.0625
Q25.4844 6.20312 34.4219 6.20312
Q39.5938 6.20312 44.4531 7.46875
Q49.3125 8.73438 54.1094 11.2812
L54.1094 2.78125
Q49.2656 0.734375 44.1875 -0.34375
Q39.1094 -1.42188 33.8906 -1.42188
Q20.7969 -1.42188 13.1562 6.1875
Q5.51562 13.8125 5.51562 26.8125
Q5.51562 40.2344 12.7656 48.1094
Q20.0156 56 32.3281 56
Q43.3594 56 49.7812 48.8906
Q56.2031 41.7969 56.2031 29.5938
M47.2188 32.2344
Q47.125 39.5938 43.0938 43.9844
Q39.0625 48.3906 32.4219 48.3906
Q24.9062 48.3906 20.3906 44.1406
Q15.875 39.8906 15.1875 32.1719
z
" id="BitstreamVeraSans-Roman-65"/>
      <path d="
M37.1094 75.9844
L37.1094 68.5
L28.5156 68.5
Q23.6875 68.5 21.7969 66.5469
Q19.9219 64.5938 19.9219 59.5156
L19.9219 54.6875
L34.7188 54.6875
L34.7188 47.7031
L19.9219 47.7031
L19.9219 0
L10.8906 0
L10.8906 47.7031
L2.29688 47.7031
L2.29688 54.6875
L10.8906 54.6875
L10.8906 58.5
Q10.8906 67.625 15.1406 71.7969
Q19.3906 75.9844 28.6094 75.9844
z
" id="BitstreamVeraSans-Roman-66"/>
      <path d="
M48.7812 52.5938
L48.7812 44.1875
Q44.9688 46.2969 41.1406 47.3438
Q37.3125 48.3906 33.4062 48.3906
Q24.6562 48.3906 19.8125 42.8438
Q14.9844 37.3125 14.9844 27.2969
Q14.9844 17.2812 19.8125 11.7344
Q24.6562 6.20312 33.4062 6.20312
Q37.3125 6.20312 41.1406 7.25
Q44.9688 8.29688 48.7812 10.4062
L48.7812 2.09375
Q45.0156 0.34375 40.9844 -0.53125
Q36.9688 -1.42188 32.4219 -1.42188
Q20.0625 -1.42188 12.7812 6.34375
Q5.51562 14.1094 5.51562 27.2969
Q5.51562 40.6719 12.8594 48.3281
Q20.2188 56 33.0156 56
Q37.1562 56 41.1094 55.1406
Q45.0625 54.2969 48.7812 52.5938" id="BitstreamVeraSans-Roman-63"/>
     </defs>
     <g transform="translate(30.110625 236.13)rotate(-90.0)scale(0.12 -0.12)">
      <use xlink:href="#BitstreamVeraSans-Roman-53"/>
      <use x="63.4765625" xlink:href="#BitstreamVeraSans-Roman-65"/>
      <use x="125.0" xlink:href="#BitstreamVeraSans-Roman-63"/>
      <use x="179.98046875" xlink:href="#BitstreamVeraSans-Roman-2f"/>
      <use x="213.671875" xlink:href="#BitstreamVeraSans-Roman-66"/>
      <use x="248.876953125" xlink:href="#BitstreamVeraSans-Roman-69"/>
      <use x="276.66015625" xlink:href="#BitstreamVeraSans-Roman-6c"/>
      <use x="304.443359375" xlink:href="#BitstreamVeraSans-Roman-65"/>
     </g>
    </g>
   </g>
   <g id="patch_3">
    <path d="
M72 43.2
L518.4 43.2" style="fill:none;stroke:#000000;"/>
   </g>
   <g id="patch_4">
    <path d="
M518.4 388.8
L518.4 43.2" style="fill:none;stroke:#000000;"/>
   </g>
   <g id="patch_5">
    <path d="
M72 388.8
L518.4 388.8" style="fill:none;stroke:#000000;"/>
   </g>
   <g id="patch_6">
    <path d="
M72 388.8
L72 43.2" style="fill:none;stroke:#000000;"/>
   </g>
   <g id="text_22">
    <!-- Seq -->
    <defs>
     <path d="
M14.7969 27.2969
Q14.7969 17.3906 18.875 11.75
Q22.9531 6.10938 30.0781 6.10938
Q37.2031 6.10938 41.2969 11.75
Q45.4062 17.3906 45.4062 27.2969
Q45.4062 37.2031 41.2969 42.8438
Q37.2031 48.4844 30.0781 48.4844
Q22.9531 48.4844 18.875 42.8438
Q14.7969 37.2031 14.7969 27.2969
M45.4062 8.20312
Q42.5781 3.32812 38.25 0.953125
Q33.9375 -1.42188 27.875 -1.42188
Q17.9688 -1.42188 11.7344 6.48438
Q5.51562 14.4062 5.51562 27.2969
Q5.51562 40.1875 11.7344 48.0938
Q17.9688 56 27.875 56
Q33.9375 56 38.25 53.625
Q42.5781 51.2656 45.4062 46.3906
L45.4062 54.6875
L54.3906 54.6875
L54.3906 -20.7969
L45.4062 -20.7969
z
" id="BitstreamVeraSans-Roman-71"/>
    </defs>
    <g transform="translate(282.7575 38.2)scale(0.144 -0.144)">
     <use xlink:href="#BitstreamVeraSans-Roman-53"/>
     <use x="63.4765625" xlink:href="#BitstreamVeraSans-Roman-65"/>
     <use x="125.0" xlink:href="#BitstreamVeraSans-Roman-71"/>
    </g>
   </g>
   <g id="legend_1">
    <g id="patch_7">
     <path d="
M429.055 115.339
L511.2 115.339
L511.2 50.4
L429.055 50.4
L429.055 115.339
z
" style="fill:#ffffff;stroke:#000000;"/>
    </g>
    <g id="line2d_64">
     <path d="
M439.135 62.0617
L459.295 62.0617" style="fill:none;stroke:#ff0000;"/>
    </g>
    <g id="line2d_65"/>
    <g id="text_23">
     <!-- LRU -->
     <defs>
      <path d="
M44.3906 34.1875
Q47.5625 33.1094 50.5625 29.5938
Q53.5625 26.0781 56.5938 19.9219
L66.6094 0
L56 0
L46.6875 18.7031
Q43.0625 26.0312 39.6719 28.4219
Q36.2812 30.8125 30.4219 30.8125
L19.6719 30.8125
L19.6719 0
L9.8125 0
L9.8125 72.9062
L32.0781 72.9062
Q44.5781 72.9062 50.7344 67.6719
Q56.8906 62.4531 56.8906 51.9062
Q56.8906 45.0156 53.6875 40.4688
Q50.4844 35.9375 44.3906 34.1875
M19.6719 64.7969
L19.6719 38.9219
L32.0781 38.9219
Q39.2031 38.9219 42.8438 42.2188
Q46.4844 45.5156 46.4844 51.9062
Q46.4844 58.2969 42.8438 61.5469
Q39.2031 64.7969 32.0781 64.7969
z
" id="BitstreamVeraSans-Roman-52"/>
      <path d="
M9.8125 72.9062
L19.6719 72.9062
L19.6719 8.29688
L55.1719 8.29688
L55.1719 0
L9.8125 0
z
" id="BitstreamVeraSans-Roman-4c"/>
      <path d="
M8.6875 72.9062
L18.6094 72.9062
L18.6094 28.6094
Q18.6094 16.8906 22.8438 11.7344
Q27.0938 6.59375 36.625 6.59375
Q46.0938 6.59375 50.3438 11.7344
Q54.5938 16.8906 54.5938 28.6094
L54.5938 72.9062
L64.5 72.9062
L64.5 27.3906
Q64.5 13.1406 57.4375 5.85938
Q50.3906 -1.42188 36.625 -1.42188
Q22.7969 -1.42188 15.7344 5.85938
Q8.6875 13.1406 8.6875 27.3906
z
" id="BitstreamVeraSans-Roman-55"/>
     </defs>
     <g transform="translate(475.13475 67.10175)scale(0.144 -0.144)">
      <use xlink:href="#BitstreamVeraSans-Roman-4c"/>
      <use x="55.712890625" xlink:href="#BitstreamVeraSans-Roman-52"/>
      <use x="125.1953125" xlink:href="#BitstreamVeraSans-Roman-55"/>
     </g>
    </g>
    <g id="line2d_66">
     <path d="
M439.135 83.1983
L459.295 83.1983" style="fill:none;opacity:0.7;stroke:#008000;"/>
    </g>
    <g id="line2d_67"/>
    <g id="text_24">
     <!-- MRU -->
     <defs>
      <path d="
M9.8125 72.9062
L24.5156 72.9062
L43.1094 23.2969
L61.8125 72.9062
L76.5156 72.9062
L76.5156 0
L66.8906 0
L66.8906 64.0156
L48.0938 14.0156
L38.1875 14.0156
L19.3906 64.0156
L19.3906 0
L9.8125 0
z
" id="BitstreamVeraSans-Roman-4d"/>
     </defs>
     <g transform="translate(475.13475 88.23825)scale(0.144 -0.144)">
      <use xlink:href="#BitstreamVeraSans-Roman-4d"/>
      <use x="86.279296875" xlink:href="#BitstreamVeraSans-Roman-52"/>
      <use x="155.76171875" xlink:href="#BitstreamVeraSans-Roman-55"/>
     </g>
    </g>
    <g id="line2d_68">
     <path d="
M439.135 104.335
L459.295 104.335" style="fill:none;opacity:0.5;stroke:#0000ff;"/>
    </g>
    <g id="line2d_69"/>
    <g id="text_25">
     <!-- FIFO -->
     <defs>
      <path d="
M9.8125 72.9062
L51.7031 72.9062
L51.7031 64.5938
L19.6719 64.5938
L19.6719 43.1094
L48.5781 43.1094
L48.5781 34.8125
L19.6719 34.8125
L19.6719 0
L9.8125 0
z
" id="BitstreamVeraSans-Roman-46"/>
      <path d="
M9.8125 72.9062
L19.6719 72.9062
L19.6719 0
L9.8125 0
z
" id="BitstreamVeraSans-Roman-49"/>
      <path d="
M39.4062 66.2188
Q28.6562 66.2188 22.3281 58.2031
Q16.0156 50.2031 16.0156 36.375
Q16.0156 22.6094 22.3281 14.5938
Q28.6562 6.59375 39.4062 6.59375
Q50.1406 6.59375 56.4219 14.5938
Q62.7031 22.6094 62.7031 36.375
Q62.7031 50.2031 56.4219 58.2031
Q50.1406 66.2188 39.4062 66.2188
M39.4062 74.2188
Q54.7344 74.2188 63.9062 63.9375
Q73.0938 53.6562 73.0938 36.375
Q73.0938 19.1406 63.9062 8.85938
Q54.7344 -1.42188 39.4062 -1.42188
Q24.0312 -1.42188 14.8125 8.82812
Q5.60938 19.0938 5.60938 36.375
Q5.60938 53.6562 14.8125 63.9375
Q24.0312 74.2188 39.4062 74.2188" id="BitstreamVeraSans-Roman-4f"/>
     </defs>
     <g transform="translate(475.13475 109.37475)scale(0.144 -0.144)">
      <use xlink:href="#BitstreamVeraSans-Roman-46"/>
      <use x="57.51953125" xlink:href="#BitstreamVeraSans-Roman-49"/>
      <use x="87.01171875" xlink:href="#BitstreamVeraSans-Roman-46"/>
      <use x="144.53125" xlink:href="#BitstreamVeraSans-Roman-4f"/>
     </g>
    </g>
   </g>
  </g>
 </g>
 <defs>
  <clipPath id="p7ff5b81e1d">
   <rect height="345.6" width="446.4" x="72.0" y="43.2"/>
  </clipPath>
 </defs>
</svg>
