<?xml version="1.0" encoding="utf-8" standalone="no"?>
<!DOCTYPE svg PUBLIC "-//W3C//DTD SVG 1.1//EN"
  "http://www.w3.org/Graphics/SVG/1.1/DTD/svg11.dtd">
<!-- Created with matplotlib (http://matplotlib.sourceforge.net/) -->
<svg height="432pt" version="1.1" viewBox="0 0 576 432" width="576pt" xmlns="http://www.w3.org/2000/svg" xmlns:xlink="http://www.w3.org/1999/xlink">
 <defs>
  <style type="text/css">
*{stroke-linecap:square;stroke-linejoin:round;}
  </style>
 </defs>
 <g id="figure_1">
  <g id="patch_1">
   <path d="
M0 432
L576 432
L576 0
L0 0
z
" style="fill:#ffffff;"/>
  </g>
  <g id="axes_1">
   <g id="patch_2">
    <path d="
M72 388.8
L518.4 388.8
L518.4 43.2
L72 43.2
z
" style="fill:#ffffff;"/>
   </g>
   <g id="line2d_1">
    <path clip-path="url(#p7ff5b81e1d)" d="
M72 303.385
L72.4464 226.052
L72.8928 251.055
L73.3392 256.658
L73.7856 288.389
L74.232 287.131
L74.6784 291.311
L75.1248 281.405
L75.5712 267.247
L76.0176 268.149
L76.464 259.753
L76.9104 260.268
L77.3568 259.914
L77.8032 257.882
L78.2496 259.511
L78.696 268.129
L79.1424 287.531
L79.5888 286.708
L80.4816 266.383
L80.928 276.289
L81.3744 262.89
L81.8208 282.378
L82.2672 296.22
L82.7136 276.018
L83.16 263.538
L83.6064 258.058
L84.0528 295.249
L84.4992 276.781
L84.9456 270.917
L85.392 274.312
L85.8384 269.844
L86.2848 253.923
L86.7312 244.212
L87.1776 277.287
L87.624 291.475
L88.0704 269.73
L88.5168 278.084
L88.9632 297.846
L89.4096 288.699
L89.856 288.272
L90.3024 288.361
L90.7488 274.583
L91.1952 290.262
L91.6416 291.064
L92.088 297.03
L92.5344 275.113
L92.9808 292.94
L93.4272 296.228
L93.8736 289.689
L94.32 326.312
L94.7664 313.022
L95.2128 316.59
L95.6592 316.033
L96.1056 315.114
L96.552 316.764
L96.9984 298.584
L97.4448 316.408
L97.8912 316.451
L98.3376 302.227
L98.784 327.28
L99.2304 315.734
L99.6768 316.153
L100.123 315.878
L100.57 308.973
L101.016 320.042
L101.462 315.91
L101.909 316.171
L102.355 315.424
L102.802 314.356
L103.248 315.73
L103.694 315.606
L104.141 288.442
L104.587 316.103
L105.034 319.197
L105.48 316.51
L105.926 311.613
L106.373 315.628
L106.819 311.31
L107.266 315.658
L107.712 313.547
L108.158 315.723
L108.605 311.286
L109.051 315.562
L109.498 314.027
L109.944 314.595
L110.837 312.463
L111.283 316.794
L111.73 312.527
L112.176 315.029
L112.622 314.405
L113.069 312.842
L113.515 307.193
L113.962 320.233
L114.854 310.598
L115.301 311.856
L115.747 313.797
L116.194 314.553
L116.64 316.231
L117.086 313.765
L117.533 321.312
L117.979 313.993
L118.426 311.982
L118.872 313.846
L119.318 307.712
L119.765 317.942
L120.211 314.867
L120.658 313.157
L121.104 313.932
L121.55 305.352
L121.997 320.692
L122.443 312.746
L122.89 311.641
L123.336 279.569
L123.782 320.951
L124.229 314.796
L124.675 312.444
L125.122 314.834
L125.568 259.429
L126.014 314.927
L126.461 312.679
L126.907 315.232
L127.354 314.997
L127.8 315.347
L128.246 312.308
L128.693 314.466
L129.139 318.436
L129.586 314.742
L130.032 304.893
L130.478 314.998
L130.925 312.728
L131.371 301.5
L131.818 300.455
L132.264 315.293
L132.71 311.993
L133.157 314.879
L133.603 314.837
L134.05 315.449
L134.496 312.372
L134.942 315.194
L135.389 308.485
L135.835 319.504
L136.282 309.29
L136.728 319.922
L137.174 315.532
L137.621 313.307
L138.067 313.564
L138.514 315.257
L138.96 279.905
L139.406 317.589
L139.853 313.841
L140.299 313.927
L140.746 311.304
L141.192 314.036
L141.638 313.551
L142.085 314.523
L142.531 312.051
L142.978 314.21
L143.424 313.728
L143.87 307.372
L144.317 318.145
L144.763 314.075
L145.21 313.884
L145.656 312.053
L146.102 313.944
L146.549 314.096
L146.995 310.849
L147.442 290.076
L147.888 313.396
L148.334 315.444
L149.227 308.825
L149.674 320.019
L150.12 315.468
L150.566 312.769
L151.013 314.911
L151.459 314.13
L151.906 315.062
L152.352 308.465
L152.798 319.067
L153.245 315.177
L153.691 312.457
L154.138 315.028
L154.584 310.884
L155.03 318.723
L155.477 309.006
L155.923 318.741
L156.37 287.951
L156.816 318.251
L157.262 314.032
L157.709 315.569
L158.155 316.378
L158.602 315.346
L159.048 316.691
L159.494 313.817
L159.941 314.65
L160.387 317.245
L160.834 310.538
L161.28 325.488
L161.726 313.551
L162.173 316.67
L162.619 311.873
L163.066 316.895
L163.512 315.662
L163.958 315.253
L164.405 299.808
L164.851 333.807
L165.744 299.47
L166.19 314.481
L166.637 316.777
L167.083 316.112
L167.53 313.762
L167.976 313.215
L168.422 318.643
L168.869 316.481
L169.315 309.812
L169.762 319.622
L170.208 316.087
L170.654 315.892
L171.101 315.998
L171.547 313.757
L171.994 315.524
L172.44 311.206
L172.886 321.401
L173.333 322.631
L173.779 314.394
L174.226 315.724
L174.672 311.961
L175.118 310.594
L175.565 310.688
L176.011 321.475
L176.458 314.561
L176.904 314.675
L177.35 313.035
L177.797 315.015
L178.69 314.772
L179.136 312.42
L179.582 311.995
L180.029 316.371
L180.475 315.661
L180.922 312.651
L181.368 314.524
L182.261 313.247
L183.154 315.598
L183.6 306.914
L184.046 310.756
L184.939 315.456
L185.386 313.508
L185.832 312.254
L186.278 306.732
L186.725 320.408
L187.171 312.603
L187.618 314.183
L188.064 313.765
L188.51 304.789
L188.957 320.812
L189.403 314.052
L189.85 313.953
L190.296 311.849
L190.742 314.406
L191.189 309.023
L191.635 316.649
L192.082 286.818
L192.528 313.874
L192.974 316.153
L193.421 311.44
L193.867 316.219
L194.314 308.722
L194.76 321.467
L195.206 312.337
L195.653 315.288
L196.099 308.234
L196.546 320.199
L196.992 312.97
L197.438 315.445
L197.885 299.621
L198.331 324.507
L198.778 310.699
L199.224 321.844
L199.67 315.151
L200.117 312.086
L200.563 315.262
L201.01 305.084
L201.456 314.78
L201.902 312.65
L202.349 314.557
L202.795 309.66
L203.242 320.095
L203.688 307.738
L204.134 319.779
L204.581 315.18
L205.027 315.394
L205.474 312.076
L205.92 318.658
L206.366 308.073
L206.813 321.594
L207.259 312.273
L207.706 314.652
L208.152 314.618
L208.598 312.266
L209.045 315.05
L209.491 308.666
L209.938 317.937
L210.384 316.958
L210.83 282.146
L211.277 317.775
L211.723 316.654
L212.17 311.843
L213.062 314.518
L213.509 309.437
L213.955 310.373
L214.402 320.841
L214.848 314.306
L215.294 310.003
L215.741 315.283
L216.187 313.605
L216.634 309.108
L217.08 310.933
L217.526 320.955
L217.973 313.07
L218.419 311.908
L218.866 308.209
L219.312 317.888
L219.758 312.903
L220.205 315.364
L220.651 289.094
L221.098 315.251
L221.544 305.931
L221.99 316.187
L222.437 319.94
L222.883 307.699
L223.33 317.359
L223.776 317.009
L224.222 315.622
L224.669 305.138
L225.115 321.958
L225.562 315.008
L226.008 314.334
L226.454 312.905
L226.901 315.189
L227.794 243.59
L228.24 302.997
L228.686 329.188
L229.133 316.132
L229.579 315.133
L230.026 314.846
L230.472 300.548
L230.918 302.226
L231.365 316.545
L231.811 316.414
L232.258 314.113
L232.704 316.216
L233.15 315.952
L233.597 316.411
L234.043 315.925
L234.49 313.821
L234.936 316.874
L235.382 315.997
L235.829 315.995
L236.275 312.645
L236.722 317.268
L237.168 315.155
L237.614 315.951
L238.061 310.412
L238.507 319.383
L238.954 315.681
L239.4 316.759
L239.846 309.959
L240.293 320.466
L240.739 315.762
L241.186 302.705
L241.632 271.969
L242.078 308.533
L242.525 319.295
L242.971 314.562
L243.864 307.92
L244.31 320.67
L244.757 311.07
L245.203 315.172
L245.65 314.001
L246.096 311.637
L246.542 320.559
L246.989 307.165
L247.435 319.894
L247.882 312.528
L248.328 313.9
L248.774 313.741
L249.221 307.633
L249.667 291.038
L250.114 315.538
L250.56 318.912
L251.006 309.256
L251.453 317.16
L251.899 314.586
L252.346 316.044
L252.792 312.639
L253.238 315.035
L253.685 315.018
L254.131 314.547
L254.578 312.654
L255.024 314.856
L255.47 314.578
L255.917 309.005
L256.363 319.122
L256.81 314.295
L257.256 315.488
L257.702 312.894
L258.149 314.928
L258.595 298.164
L259.042 320.869
L259.488 312.577
L259.934 315.182
L260.381 314.908
L260.827 315.111
L261.274 311.488
L261.72 315.437
L262.166 321.743
L262.613 314.718
L263.059 311.995
L263.506 301.168
L263.952 328.75
L264.398 315.302
L264.845 312.872
L265.291 321.506
L265.738 315.261
L266.184 311.341
L266.63 315.516
L267.077 314.445
L267.523 315.168
L267.97 313.243
L268.416 289.037
L268.862 314.063
L269.309 314.149
L269.755 310.408
L270.202 321.36
L270.648 314.369
L271.094 311.777
L271.541 314.329
L271.987 313.769
L272.434 314.203
L272.88 307.842
L273.326 313.328
L273.773 314.292
L274.219 311.836
L274.666 313.549
L275.112 314.611
L275.558 312.997
L276.005 311.888
L276.451 314.64
L276.898 314.182
L277.344 311.761
L277.79 313.55
L278.237 289.709
L278.683 308.153
L279.13 318.985
L279.576 315.207
L280.022 314.865
L280.469 313.26
L280.915 314.489
L281.362 315.377
L281.808 314.614
L282.254 313.013
L282.701 315.116
L283.147 314.49
L283.594 315.098
L284.04 312.897
L284.486 316.595
L284.933 316.238
L285.379 313.341
L285.826 316.524
L286.272 316.101
L286.718 310.028
L287.165 320.197
L287.611 316.419
L288.058 315.012
L288.504 316.173
L288.95 310.223
L289.397 318.994
L289.843 316.542
L290.29 310.03
L291.182 322.171
L291.629 312.973
L292.075 315.892
L292.522 316.36
L292.968 323.037
L293.414 308.375
L293.861 314.758
L294.307 315.755
L294.754 321.547
L295.2 315.735
L295.646 257.984
L296.093 316.899
L296.539 300.374
L296.986 327.442
L297.432 315.117
L297.878 315.22
L298.325 315.145
L298.771 312.298
L299.218 315.426
L299.664 314.857
L300.11 312.274
L300.557 315.178
L301.003 314.751
L301.45 314.847
L301.896 309.115
L302.342 314.218
L303.235 314.269
L303.682 311.825
L304.128 314.249
L304.574 307.476
L305.021 318.791
L305.467 313.921
L305.914 313.938
L306.36 314.618
L306.806 311.421
L307.253 314.02
L307.699 313.401
L308.146 312.13
L308.592 314.024
L309.038 313.979
L309.485 311.444
L309.931 314.037
L310.378 314.177
L310.824 286.954
L311.27 312.45
L311.717 314.817
L312.163 314.786
L312.61 315.02
L313.056 311.43
L313.502 309.566
L313.949 321.271
L314.395 315.085
L314.842 312.585
L315.288 314.853
L315.734 314.592
L316.181 313.029
L316.627 314.697
L317.074 315.313
L317.966 306.266
L318.413 320.028
L318.859 315.844
L319.306 315.1
L319.752 302.898
L320.198 315.033
L320.645 314.879
L321.091 315.223
L321.538 312.263
L321.984 315.506
L322.43 315.013
L322.877 314.865
L323.323 313.455
L323.77 321.147
L324.216 315.612
L324.662 315.211
L325.109 312.804
L325.555 313.887
L326.002 315.724
L326.448 311.175
L326.894 315.145
L327.341 315.124
L327.787 314.621
L328.234 286.149
L328.68 314.872
L329.126 308.225
L329.573 305.954
L330.019 325.938
L330.466 314.597
L330.912 313.689
L331.358 312.265
L331.805 314.01
L332.251 313.807
L332.698 321.619
L333.144 312.041
L333.59 314.281
L334.037 313.863
L334.483 312.32
L334.93 314.375
L335.376 313.943
L335.822 305.525
L336.269 320.525
L336.715 314.455
L337.162 289.096
L337.608 313.125
L338.501 315.329
L338.947 314.998
L339.394 312.796
L339.84 317.654
L340.286 313.979
L340.733 315.621
L341.179 312.076
L341.626 329.009
L342.072 331.055
L342.518 306.605
L342.965 328.97
L343.411 331.812
L343.858 301.521
L344.304 294.903
L344.75 292.271
L345.197 314.793
L345.643 311.781
L346.09 313.59
L346.982 314.891
L347.429 311.513
L347.875 313.564
L348.322 314.551
L348.768 311.426
L349.214 314.404
L349.661 313.924
L350.107 314.171
L350.554 287.059
L351 314.376
L351.446 315.325
L351.893 314.578
L352.339 313.36
L352.786 314.767
L353.232 313.871
L353.678 313.458
L354.125 314.975
L354.571 315.324
L355.018 314.296
L355.464 311.436
L355.91 315.649
L356.357 314.059
L356.803 315.3
L357.25 312.963
L357.696 315.106
L358.142 314.504
L358.589 315.154
L359.035 311.664
L359.482 315.595
L359.928 309.028
L360.374 295.811
L360.821 321.189
L361.267 316.099
L361.714 316.533
L362.16 312.062
L362.606 299.617
L363.053 329.966
L363.499 316.056
L363.946 315.88
L364.392 316.542
L364.838 312.642
L365.285 316.609
L366.178 316.235
L366.624 316.039
L367.07 320.208
L367.517 316.177
L367.963 309.619
L368.41 322.014
L368.856 320.807
L369.302 316.48
L369.749 315.775
L370.195 315.733
L370.642 302.787
L371.088 313.735
L371.534 316.275
L371.981 315.76
L372.427 288.693
L372.874 313.991
L373.32 316.425
L373.766 315.331
L374.213 316.786
L374.659 315.988
L375.106 313.858
L375.552 323.046
L375.998 316.328
L376.445 316.33
L376.891 313.343
L377.338 316.63
L377.784 316.255
L378.23 316.35
L378.677 316.189
L379.123 313.909
L379.57 312.263
L380.016 315.299
L380.462 308.451
L380.909 318.773
L381.355 314.725
L382.248 315.436
L382.694 311.696
L383.141 315.309
L383.587 315.626
L384.034 314.975
L384.48 315.417
L384.926 315.219
L385.373 314.701
L385.819 312.526
L386.266 315.021
L386.712 314.235
L387.158 314.996
L387.605 312.945
L388.051 315.474
L388.498 310.679
L388.944 314.442
L389.39 304.466
L389.837 320.682
L390.283 313.816
L390.73 311.858
L391.622 239.146
L392.069 312.622
L392.515 330.895
L392.962 306.983
L393.408 328.236
L393.854 331.569
L394.301 308.933
L394.747 293.475
L395.194 291.738
L396.086 325.813
L396.533 313.754
L396.979 314.399
L397.426 311.287
L397.872 316.21
L398.318 311.908
L398.765 315.133
L399.211 311.004
L399.658 326.792
L400.104 314.197
L400.997 312.407
L401.443 320.869
L401.89 314.457
L402.782 312.377
L403.229 322.769
L403.675 314.735
L404.122 314.154
L404.568 310.924
L405.014 315.325
L405.461 312.56
L405.907 312.969
L406.354 314.584
L406.8 311.419
L407.246 313.424
L407.693 287.875
L408.139 314.893
L408.586 315.7
L409.032 314.747
L409.478 312.838
L409.925 315.251
L410.371 322.987
L410.818 315.492
L411.264 312.277
L411.71 315.503
L412.603 314.794
L413.05 312.962
L413.496 314.95
L413.942 315.139
L414.389 313.082
L414.835 314.533
L415.282 314.691
L415.728 315.281
L416.174 312.475
L416.621 322.181
L417.067 310.764
L417.514 312.213
L417.96 312.644
L418.406 315.551
L418.853 314.764
L419.299 315.185
L419.746 312.961
L420.192 314.603
L420.638 315.16
L421.085 315.062
L421.531 312.82
L421.978 315.216
L422.424 315.28
L422.87 308.955
L423.317 318.872
L423.763 315.094
L424.21 315.309
L424.656 290.072
L425.549 321.106
L425.995 316.642
L426.442 315.808
L426.888 314.451
L427.334 314.624
L427.781 316.782
L428.227 316.234
L428.674 316.469
L429.12 303.407
L429.566 329.837
L430.013 315.729
L430.459 323.091
L430.906 316.901
L431.352 313.593
L431.798 317.13
L432.245 314.666
L432.691 316.675
L433.138 307.684
L433.584 321.938
L434.03 314.771
L434.477 317.301
L434.923 302.472
L435.37 312.859
L435.816 316.449
L436.262 316.816
L436.709 316.401
L437.155 313.854
L437.602 315.922
L438.048 316.862
L438.494 315.762
L438.941 316.375
L439.387 313.641
L439.834 315.968
L440.28 316.552
L440.726 316.303
L441.173 313.862
L441.619 316.204
L442.066 315.969
L442.512 316.235
L442.958 309.929
L443.405 319.829
L443.851 312.416
L444.298 314.782
L444.744 309.635
L445.637 314.838
L446.083 339.162
L446.53 320.889
L446.976 284.157
L447.422 315.102
L447.869 313.914
L448.315 321.946
L448.762 313.309
L449.208 314.225
L449.654 313.874
L450.101 315.649
L450.547 311.971
L450.994 315.332
L451.44 310.999
L451.886 314.16
L452.333 313.356
L452.779 314.54
L453.226 204.618
L454.118 314.02
L454.565 315.355
L455.011 321.866
L455.904 304.185
L456.35 308.748
L456.797 320.268
L457.243 312.583
L457.69 315.612
L458.136 315.05
L458.582 314.877
L459.029 313.032
L459.475 314.571
L459.922 315.695
L460.368 309.354
L460.814 318.419
L461.261 314.85
L461.707 300.983
L462.154 329.392
L462.6 312.408
L463.046 315.502
L463.939 313.17
L464.386 314.97
L464.832 289.116
L465.278 314.447
L465.725 311.88
L466.171 314.23
L466.618 314.129
L467.064 312.485
L467.51 313.883
L467.957 314.006
L468.403 314.426
L468.85 312.093
L469.296 314.356
L469.742 313.772
L470.189 310.501
L470.635 313.986
L471.082 314.352
L471.528 314.275
L471.974 311.138
L472.421 314.284
L472.867 315.433
L473.314 286.051
L473.76 318.087
L474.206 314.065
L474.653 315.744
L475.099 312.389
L475.546 314.478
L475.992 314.588
L476.438 314.476
L476.885 313.09
L477.331 315.085
L477.778 315.013
L478.224 314.543
L478.67 312.307
L479.117 315.287
L479.563 314.716
L480.01 312.562
L480.456 314.515
L480.902 315.54
L481.349 314.747
L481.795 311.635
L482.242 290.748
L482.688 314.933
L483.134 316.63
L483.581 316.202
L484.027 308.415
L484.474 320.712
L484.92 318.004
L485.366 316.331
L485.813 312.707
L486.259 316.857
L486.706 315.863
L487.152 310.021
L487.598 323.026
L488.045 313.224
L488.491 316.373
L488.938 315.499
L489.384 316.263
L489.83 313.647
L490.277 315.923
L490.723 316.663
L491.17 316.146
L491.616 302.184
L492.062 313.568
L492.509 315.202
L492.955 316.397
L493.402 316.251
L493.848 313.49
L494.294 315.8
L494.741 296.372
L495.187 335.473
L495.634 317.182
L496.08 310.975
L496.526 308.515
L496.973 323.087
L497.419 315.593
L497.866 322.061
L498.312 314.784
L498.758 315.649
L499.205 315.824
L499.651 316.649
L500.098 313.772
L500.544 312.153
L500.99 314.666
L501.437 314.807
L501.883 312.878
L502.33 314.543
L502.776 315.628
L503.222 314.989
L503.669 312.592
L504.115 313.669
L504.562 315.462
L505.008 314.279
L505.454 312.463
L505.901 315.147
L506.347 308.649
L506.794 320.048
L507.24 313.413
L507.686 314.779
L508.133 315.174
L508.579 312.651
L509.026 308.571
L509.472 317.854
L509.918 313.446
L510.365 311.498
L510.811 314.754
L511.258 314.41
L511.704 311.628
L512.15 314.092
L512.597 314.413
L513.043 314.15
L513.49 312.336
L513.936 313.821
L514.382 314.665
L514.829 311.324
L515.275 314.215
L515.722 314.839
L516.614 312.066
L517.061 314.068
L517.507 314.459
L517.954 284.583
L517.954 284.583" style="fill:none;stroke:#ff0000;"/>
   </g>
   <g id="line2d_2">
    <path clip-path="url(#p7ff5b81e1d)" d="
M72 305.128
L72.4464 249.154
L72.8928 261.778
L73.3392 280.143
L73.7856 255.284
L74.232 268.799
L75.1248 284.273
L75.5712 277.314
L76.0176 280.303
L76.464 278.232
L76.9104 278.784
L77.3568 253.47
L77.8032 282.538
L78.2496 279.269
L78.696 282.926
L79.1424 262.838
L79.5888 276.844
L80.0352 279.062
L80.4816 275.962
L80.928 276.641
L81.3744 278.405
L81.8208 276.406
L82.2672 278.476
L82.7136 276.904
L83.16 270.634
L83.6064 259.186
L84.0528 276.814
L84.4992 280.717
L84.9456 278.6
L85.392 279.143
L85.8384 277.835
L86.2848 263.129
L86.7312 280.18
L87.1776 278.25
L87.624 279.901
L88.0704 277.767
L88.5168 279.665
L88.9632 274.167
L89.4096 279.509
L89.856 276.968
L90.3024 276.522
L90.7488 278.207
L91.1952 275.703
L91.6416 279.603
L92.088 276.147
L92.5344 276.848
L92.9808 278.955
L93.4272 275.837
L93.8736 278.394
L94.32 314.403
L94.7664 304.777
L95.2128 303.602
L95.6592 303.488
L96.1056 279.02
L96.552 304.524
L96.9984 307.582
L97.4448 304.485
L97.8912 307.127
L98.3376 292.193
L98.784 319.419
L99.2304 304.653
L99.6768 305.097
L100.123 306.991
L100.57 304.654
L101.016 306.676
L101.462 305.012
L101.909 306.843
L102.355 304.899
L102.802 306.932
L103.248 295.185
L103.694 306.978
L104.141 304.911
L104.587 300.47
L105.034 310.422
L105.48 305.263
L105.926 302.025
L106.373 310.771
L106.819 307.068
L107.266 311.449
L107.712 306.662
L108.158 305.068
L108.605 306.774
L109.051 305.076
L109.498 307.108
L109.944 305.065
L110.39 306.827
L110.837 304.841
L111.283 279.346
L111.73 305.961
L112.176 303.17
L112.622 305.389
L113.069 303.424
L113.515 303.51
L113.962 305.859
L114.408 303.423
L114.854 323.527
L115.301 309.095
L115.747 307.042
L116.194 309.341
L116.64 310.854
L117.533 306.7
L117.979 309.346
L118.426 302.807
L118.872 313.545
L119.318 309.202
L119.765 307.225
L120.211 309.353
L120.658 279.517
L121.104 303.461
L121.55 298.763
L121.997 309.51
L122.443 306.944
L122.89 302.769
L123.336 313.266
L123.782 303.116
L124.229 315.957
L124.675 306.307
L125.122 309.413
L125.568 307.036
L126.014 303.157
L126.461 312.224
L126.907 304.106
L127.354 313.987
L127.8 309.26
L128.246 306.836
L128.693 308.932
L129.139 290.717
L129.586 320.055
L130.032 304.868
L130.478 306.984
L130.925 304.9
L131.371 307.61
L131.818 304.626
L132.264 302.504
L132.71 309.432
L133.603 304.825
L134.05 307.16
L134.496 302.51
L134.942 303.303
L135.389 311.344
L135.835 304.706
L136.282 301.362
L136.728 304.33
L137.174 303.449
L137.621 307.207
L138.514 300.094
L138.96 301.28
L139.406 311.43
L139.853 303.999
L140.299 310.306
L140.746 305.069
L141.192 302.015
L141.638 303.687
L142.085 303.452
L142.531 310.293
L143.424 282.63
L143.87 302.803
L144.317 309.441
L144.763 307.035
L145.21 300.295
L145.656 310.298
L146.102 306.225
L146.549 300.693
L146.995 311.324
L147.442 303.274
L147.888 309.306
L148.334 298.352
L148.781 313.755
L149.227 298.982
L149.674 310.292
L150.12 303.557
L150.566 310.196
L151.013 296.399
L151.459 303.757
L151.906 303.49
L152.352 310.094
L152.798 306.677
L153.245 306.946
L153.691 305.094
L154.138 302.102
L154.584 303.561
L155.03 310.957
L155.477 303.781
L155.923 303.551
L156.37 310.078
L156.816 303.755
L157.262 286.681
L157.709 247.057
L158.602 305.166
L159.048 291.032
L159.494 314.075
L159.941 303.383
L160.387 310.15
L160.834 303.927
L161.28 306.454
L161.726 299.669
L162.173 303.238
L162.619 310.297
L163.066 303.091
L163.512 304.855
L163.958 302.083
L164.405 307.121
L164.851 305.946
L165.298 276.286
L165.744 303.372
L166.19 311.287
L166.637 303.841
L167.083 309.367
L167.53 298.164
L167.976 309.242
L168.422 309.515
L168.869 304.146
L169.315 303.251
L169.762 311.479
L170.208 303.421
L170.654 309.355
L171.101 304.431
L171.547 303.766
L171.994 303.564
L172.44 311.401
L172.886 302.635
L173.333 303.724
L173.779 311.748
L174.226 301.24
L174.672 310.781
L175.118 301.336
L175.565 305.193
L176.011 310.435
L176.458 303.174
L176.904 311.431
L177.35 304.981
L177.797 301.175
L178.243 309.967
L178.69 303.481
L179.136 309.553
L179.582 299.988
L180.029 244.364
L180.475 305.692
L180.922 303.573
L181.368 304.003
L181.814 310.762
L182.261 302.161
L182.707 306.947
L183.154 305.968
L183.6 296.905
L184.046 303.559
L184.493 303.262
L184.939 308.712
L185.386 304.728
L185.832 304.178
L186.278 274.967
L186.725 303.555
L187.171 303.239
L187.618 311.308
L188.064 301.1
L188.51 312.121
L189.403 296.226
L189.85 318.348
L190.296 302.151
L190.742 303.462
L191.189 311.231
L191.635 303.676
L192.082 308.657
L192.528 305.419
L192.974 303.84
L193.421 310.428
L193.867 289.744
L194.314 310.338
L194.76 301.205
L195.206 312.509
L195.653 303.607
L196.099 310.427
L196.546 304.986
L196.992 304.661
L197.438 307.538
L197.885 303.453
L198.331 303.126
L198.778 309.647
L199.224 304.277
L199.67 301.449
L200.117 313.694
L200.563 302.123
L201.01 282.853
L201.456 310.365
L201.902 303.346
L202.349 312.974
L203.242 304.085
L203.688 313.403
L204.134 306.665
L204.581 310.249
L205.027 304.876
L205.474 310.743
L205.92 310.396
L206.366 310.989
L206.813 309.338
L207.259 304.151
L207.706 312.553
L208.152 301.867
L208.598 296.369
L209.045 310.808
L209.491 310.511
L209.938 307.552
L210.384 306.94
L210.83 309.883
L211.277 309.627
L211.723 305.403
L212.17 310.552
L212.616 303.761
L213.062 314.081
L213.509 309.356
L213.955 300.625
L214.402 310.975
L214.848 310.425
L215.294 310.516
L215.741 303.906
L216.187 308.863
L216.634 298.653
L217.08 308.254
L217.526 305.602
L217.973 312.302
L218.419 299.463
L218.866 313.128
L219.312 305.562
L219.758 305.101
L220.205 294.598
L220.651 317.831
L221.098 307.368
L221.544 304.534
L221.99 302.864
L222.437 309.895
L222.883 303.758
L223.33 303.588
L223.776 306.231
L224.222 300.753
L224.669 306.261
L225.115 300.51
L225.562 303.652
L226.008 311.18
L226.454 302.662
L226.901 303.461
L227.347 307.505
L227.794 303.721
L228.24 302.093
L228.686 302.175
L229.133 304.791
L229.579 306.519
L230.026 304.378
L230.472 278.424
L230.918 306.11
L231.365 308.019
L231.811 305.206
L232.258 307.765
L232.704 312.485
L233.15 304.663
L233.597 307.546
L234.043 304.854
L234.49 307.588
L234.936 299.658
L235.382 313.607
L235.829 305.392
L236.275 300.99
L236.722 311.226
L237.168 307.283
L237.614 295.133
L238.061 307.42
L238.507 303.392
L238.954 306.743
L239.4 300.838
L239.846 312.352
L240.293 306.059
L240.739 305.575
L241.186 307.83
L241.632 305.177
L242.078 307.564
L242.525 305.165
L242.971 307.836
L243.418 305.16
L243.864 307.235
L244.31 305.7
L244.757 305.263
L245.203 307.361
L245.65 286.446
L246.096 306.398
L246.542 303.745
L246.989 305.274
L247.435 304.209
L247.882 304.399
L248.328 305.54
L248.774 303.627
L249.221 306.224
L249.667 303.457
L250.114 303.826
L250.56 296.901
L251.006 317.171
L251.453 305.831
L251.899 304.102
L252.346 305.858
L252.792 304.357
L253.238 303.805
L253.685 281.249
L254.131 305.125
L254.578 307.806
L255.024 311.573
L255.47 306.942
L255.917 305.628
L256.363 306.966
L256.81 305.098
L257.256 299.248
L257.702 313.477
L258.149 305.59
L258.595 301.107
L259.042 311.25
L259.488 307.223
L259.934 305.03
L260.381 308.497
L260.827 305.213
L261.274 307.428
L261.72 280.804
L262.166 308.962
L262.613 306.832
L263.059 309.68
L263.506 307.477
L263.952 309.084
L264.398 307.241
L264.845 309.873
L265.291 307.186
L265.738 309.381
L266.184 307.09
L266.63 308.954
L267.077 310.049
L267.523 306.77
L267.97 309.724
L268.416 306.876
L268.862 309.653
L269.309 300.973
L269.755 316.025
L270.202 294.212
L270.648 309.15
L271.094 306.685
L271.541 310.257
L271.987 301.303
L272.434 315.97
L272.88 305.239
L273.773 309.636
L274.219 308.144
L274.666 309.235
L275.112 306.789
L275.558 309.532
L276.005 307.172
L276.451 309.727
L276.898 307.379
L277.344 303.083
L277.79 310.009
L278.237 306.967
L278.683 305.151
L279.13 307.514
L279.576 304.791
L280.022 308.061
L280.469 305.327
L280.915 307.575
L281.362 292.533
L281.808 320.336
L282.254 305.754
L282.701 305.325
L283.147 306.686
L283.594 305.704
L284.04 308.018
L284.486 305.561
L284.933 307.226
L285.379 300.835
L285.826 306.643
L286.272 303.774
L286.718 304.088
L287.165 305.921
L287.611 303.541
L288.058 306.43
L288.504 303.976
L288.95 303.78
L289.397 306.183
L289.843 303.712
L290.29 306.857
L290.736 302.943
L291.182 307.509
L291.629 303.014
L292.075 276.344
L292.522 308.161
L292.968 304.897
L293.414 307.807
L293.861 305.271
L294.307 307.531
L294.754 305.441
L295.2 310.53
L295.646 304.438
L296.093 305.148
L296.539 301.061
L296.986 311.855
L297.432 306.833
L297.878 305.301
L298.325 308.054
L298.771 304.865
L299.218 307.921
L299.664 295.413
L300.11 307.304
L300.557 305.307
L301.003 307.889
L301.45 304.994
L301.896 305.088
L302.342 308.178
L302.789 304.935
L303.235 307.49
L303.682 304.657
L304.128 307.587
L304.574 305.99
L305.021 307.21
L305.467 305.15
L305.914 306.827
L306.36 277.733
L306.806 282.041
L307.253 303.472
L307.699 303.256
L308.146 340.936
L308.592 273.107
L309.038 313.589
L309.485 305.833
L309.931 303.992
L310.378 303.876
L310.824 306.21
L311.27 291.279
L311.717 318.861
L312.163 303.902
L312.61 310.5
L313.056 312.985
L313.502 303.623
L313.949 305.893
L314.395 273.355
L314.842 314.177
L315.288 305.15
L315.734 308.158
L316.181 305.36
L316.627 305.39
L317.074 307.551
L317.52 301.7
L317.966 306.711
L318.413 304.911
L318.859 307.788
L319.306 305.388
L319.752 307.122
L320.198 305.161
L320.645 307.607
L321.091 306.012
L321.538 280.949
L321.984 302.864
L322.43 296.905
L322.877 309.798
L323.323 309.392
L323.77 306.93
L324.216 309.439
L324.662 307.926
L325.109 309.467
L325.555 307.27
L326.002 316.326
L326.448 307.848
L326.894 309.563
L327.341 307.237
L327.787 308.763
L328.234 304.057
L328.68 307.656
L329.126 304.851
L329.573 307.14
L330.019 305.445
L330.466 307.595
L330.912 277.633
L331.358 307.648
L331.805 304.916
L332.251 300.893
L332.698 312.235
L333.144 304.841
L333.59 307.679
L334.037 305.609
L334.483 308.212
L334.93 311.876
L335.376 307.343
L335.822 301.044
L336.269 305.54
L336.715 304.028
L337.162 304.068
L337.608 305.917
L338.054 303.075
L338.501 306.829
L338.947 304.309
L339.394 303.729
L339.84 310.182
L340.286 303.646
L340.733 306.313
L341.179 304.232
L341.626 293.747
L342.072 316.111
L342.518 276.074
L342.965 308.395
L343.411 305.547
L343.858 307.59
L344.304 305.514
L344.75 306.783
L345.197 305.531
L345.643 307.563
L346.09 305.314
L346.536 305.214
L346.982 307.761
L347.429 305.45
L347.875 307.325
L348.322 305.231
L348.768 307.978
L349.214 305.735
L349.661 306.758
L350.107 295.001
L350.554 308.832
L351 304.83
L351.446 304.948
L351.893 307.36
L352.339 305.047
L352.786 307.844
L353.232 305.673
L353.678 306.532
L354.125 304.989
L354.571 307.446
L355.018 305.391
L355.464 307.647
L355.91 305.179
L356.357 307.751
L356.803 305.123
L357.25 283.63
L357.696 307.559
L358.142 309.82
L358.589 306.978
L359.035 310.399
L359.482 307.387
L359.928 309.878
L360.374 306.244
L360.821 310.081
L361.267 307.297
L361.714 310.495
L362.16 303.628
L362.606 310.522
L363.053 309.49
L363.499 307.663
L363.946 309.866
L364.392 307.56
L364.838 295.559
L365.285 307.319
L366.178 314.065
L366.624 309.683
L367.07 306.876
L367.517 310.383
L367.963 301.457
L368.41 315.511
L368.856 306.977
L369.302 310.078
L369.749 309.904
L370.195 307.1
L370.642 310.072
L371.088 307.489
L371.534 309.307
L371.981 307.474
L372.427 292.073
L372.874 318.272
L373.32 307.651
L373.766 304.634
L374.213 307.238
L374.659 305.296
L375.106 307.627
L375.552 305.1
L375.998 305.355
L376.445 307.09
L376.891 305.452
L377.338 307.346
L377.784 299.352
L378.23 313.768
L378.677 305.304
L379.123 307.215
L379.57 301.618
L380.016 306.559
L380.462 298.134
L380.909 309.465
L381.355 306.305
L381.802 304.46
L382.248 305.629
L382.694 304.973
L383.141 303.203
L383.587 306.588
L384.034 297.867
L384.48 316.547
L384.926 303.229
L385.373 303.022
L385.819 313.464
L386.266 304.028
L386.712 279.179
L387.158 305.378
L387.605 307.416
L388.051 304.949
L388.498 307.423
L388.944 305.438
L389.39 305.12
L389.837 307.482
L390.283 305.454
L390.73 307.222
L391.176 305.083
L391.622 307.162
L392.069 305.041
L392.515 307.433
L392.962 305.263
L393.408 307.501
L393.854 295.403
L394.301 307.173
L394.747 305.41
L395.194 305.819
L395.64 307.36
L396.086 304.87
L396.533 307.025
L396.979 305.187
L397.426 307.709
L397.872 305.251
L398.318 307.545
L398.765 304.869
L399.211 307.986
L399.658 305.067
L400.104 304.895
L400.55 307.377
L400.997 305.533
L401.443 307.232
L401.89 277.007
L402.336 309.262
L402.782 291.068
L403.229 319.344
L403.675 303.729
L404.122 303.487
L404.568 306.351
L405.014 297.478
L405.461 312.48
L405.907 303.541
L406.354 303.606
L406.8 302.735
L407.693 306.206
L408.139 304.728
L408.586 303.702
L409.032 306.175
L409.478 304.513
L409.925 281.485
L410.371 304.676
L410.818 307.599
L411.264 305.472
L411.71 307.574
L412.157 305.803
L412.603 304.644
L413.05 307.8
L413.496 305.737
L413.942 307.599
L414.389 305.299
L414.835 307.932
L415.282 305.179
L415.728 307.7
L416.174 305.057
L416.621 308.16
L417.067 305.221
L417.514 306.867
L417.96 281.085
L418.406 309.987
L418.853 307.708
L419.299 309.814
L419.746 314.127
L420.192 309.665
L420.638 307.454
L421.085 309.573
L421.531 307.618
L421.978 310.385
L422.424 300.425
L422.87 309.966
L423.317 307.249
L423.763 316.737
L424.21 308.646
L424.656 309.559
L425.102 307.712
L425.549 309.118
L425.995 308.351
L426.442 309.895
L426.888 309.406
L427.334 307.134
L427.781 296.122
L428.227 307.604
L428.674 309.852
L429.12 311.252
L430.013 307.93
L430.459 310.053
L430.906 308.446
L431.352 309.471
L431.798 307.267
L432.245 309.999
L432.691 310.38
L433.138 306.792
L433.584 296.595
L434.03 321.135
L434.477 309.849
L434.923 307.929
L435.37 304.489
L436.262 307.824
L436.709 305.418
L437.155 307.738
L437.602 305.843
L438.048 301.575
L438.494 310.53
L438.941 305.264
L439.387 306.967
L439.834 305.632
L440.28 307.762
L440.726 299.021
L441.173 312.777
L441.619 304.639
L442.066 307.774
L442.512 294.977
L442.958 309.769
L443.405 300.114
L443.851 309.853
L444.298 305.921
L444.744 303.417
L445.19 306.119
L445.637 303.767
L446.083 310.475
L446.53 305.518
L446.976 303.801
L447.422 306.133
L447.869 303.637
L448.315 303.473
L448.762 300.129
L449.208 304.034
L449.654 282.949
L450.101 306.005
L450.547 301.368
L450.994 311.202
L451.44 296.019
L451.886 313.656
L452.333 305.058
L452.779 307.774
L453.226 305.225
L453.672 300.381
L454.118 311.932
L454.565 306.898
L455.011 304.809
L455.458 307.278
L455.904 305.17
L456.35 313.731
L456.797 295.28
L457.243 304.964
L457.69 306.986
L458.582 302.888
L459.029 240.171
L459.475 272.089
L460.368 313.162
L460.814 318.82
L461.707 305.174
L462.154 307.361
L462.6 298.685
L463.046 315.186
L463.493 298.661
L463.939 317.769
L464.386 306.968
L464.832 305.402
L465.278 307.202
L465.725 279.855
L466.171 323.53
L466.618 305.03
L467.064 306.89
L467.51 305.321
L467.957 307.429
L468.403 300.27
L468.85 311.953
L469.296 301.77
L469.742 309.914
L470.189 297.46
L470.635 314.595
L471.082 304.203
L471.528 308.543
L471.974 294.812
L472.421 303.821
L472.867 303.744
L473.314 303.498
L473.76 317.354
L474.206 303.821
L474.653 314.059
L475.099 306.923
L475.546 303.887
L475.992 313.265
L476.438 309.749
L476.885 300.712
L477.331 311.134
L477.778 314.017
L478.224 307.378
L478.67 295.455
L479.563 312.273
L480.01 302.095
L480.456 314.477
L480.902 306.97
L481.349 310.157
L481.795 303.985
L482.242 310.681
L482.688 303.62
L483.134 310.411
L483.581 314.627
L484.027 306.548
L484.474 303.789
L484.92 310.494
L485.366 310.387
L485.813 309.002
L486.259 298.423
L486.706 311.702
L487.152 307.559
L487.598 305.017
L488.045 307.212
L488.491 305.12
L488.938 304.936
L489.384 307.006
L489.83 305.475
L490.277 307.28
L490.723 300.85
L491.17 311.132
L491.616 305.173
L492.062 307.22
L492.509 304.784
L492.955 307.094
L493.402 301.636
L493.848 303.439
L494.294 288.117
L494.741 317.058
L495.634 303.328
L496.08 302.816
L496.526 302.677
L496.973 310.217
L497.419 312.792
L497.866 304.04
L498.312 304.873
L499.205 303.708
L499.651 298.717
L500.098 304.194
L500.544 282.888
L500.99 306.874
L501.437 308.022
L501.883 314.511
L502.33 311.24
L502.776 298.61
L503.222 310.866
L503.669 303.563
L504.115 303.288
L504.562 303.499
L505.008 304.007
L505.454 303.442
L505.901 303.428
L506.347 311.164
L506.794 302.966
L507.24 303.552
L507.686 303.844
L508.133 303.661
L508.579 303.713
L509.026 303.385
L509.472 282.651
L509.918 303.974
L510.365 310.206
L510.811 303.584
L511.258 310.266
L511.704 306.17
L512.15 304.816
L512.597 306.889
L513.043 303.832
L513.49 303.69
L513.936 310.276
L514.829 305.286
L515.275 307.583
L515.722 305.297
L516.168 307.275
L516.614 302.869
L517.061 306.987
L517.507 283.023
L517.954 309.558
L517.954 309.558" style="fill:none;opacity:0.7;stroke:#008000;"/>
   </g>
   <g id="line2d_3">
    <path clip-path="url(#p7ff5b81e1d)" d="
M72 305.222
L72.4464 241.79
L72.8928 273.488
L73.3392 293.476
L73.7856 239.654
L74.232 295.294
L74.6784 290.277
L75.1248 287.214
L75.5712 282.847
L76.0176 293.516
L76.464 293.546
L76.9104 280.821
L77.3568 262.702
L77.8032 261.294
L78.2496 265.185
L78.696 292.779
L79.1424 286.148
L79.5888 287.01
L80.0352 285.032
L80.4816 281.32
L80.928 293.914
L81.3744 288.934
L81.8208 291.98
L82.2672 291.404
L82.7136 279.332
L83.16 290.091
L83.6064 296.471
L84.0528 292.731
L84.4992 281.782
L84.9456 297.835
L85.392 287.876
L85.8384 292.533
L86.2848 273.21
L86.7312 295.825
L87.1776 256.051
L87.624 292.794
L88.0704 292.5
L88.5168 283.591
L88.9632 292.193
L89.4096 289.893
L89.856 285.872
L90.3024 288.911
L90.7488 275.85
L91.1952 268.324
L92.088 297.547
L92.5344 280.412
L92.9808 285.572
L93.4272 299.51
L93.8736 287.222
L94.32 325.447
L94.7664 309.531
L95.2128 317.759
L95.6592 315.861
L96.1056 317.814
L96.552 288.567
L96.9984 316.584
L97.4448 316.469
L97.8912 312.762
L98.3376 312.971
L98.784 319.863
L99.2304 315.366
L99.6768 303.059
L100.123 329.689
L100.57 317.084
L101.016 314.042
L101.462 314.127
L101.909 319.162
L102.355 307.434
L102.802 322.635
L103.248 316.301
L103.694 315.97
L104.141 311.947
L104.587 313.525
L105.034 321.121
L105.48 315.673
L105.926 317.823
L106.373 291.973
L106.819 314.721
L107.266 324.397
L107.712 314.466
L108.158 320.339
L108.605 312.846
L109.051 313.515
L109.498 322.577
L109.944 317.956
L110.39 316.114
L110.837 317.578
L111.283 313.909
L111.73 320.054
L112.176 257.135
L112.622 320.168
L113.069 316.576
L113.515 309.993
L113.962 323.787
L114.408 315.522
L114.854 311.028
L115.301 317.573
L116.194 314.759
L116.64 314.71
L117.086 322.624
L117.533 316.471
L117.979 314.409
L118.426 317.129
L118.872 309.704
L119.318 316.842
L119.765 315.32
L120.211 315.983
L120.658 313.683
L121.104 315.904
L121.55 315.737
L121.997 314.469
L122.443 322.442
L122.89 315.979
L123.336 307.504
L123.782 323.249
L124.229 316.19
L124.675 313.513
L125.122 315.968
L125.568 315.764
L126.014 307.877
L126.461 321.347
L126.907 315.911
L127.354 285.295
L127.8 317.665
L128.246 317.328
L128.693 314.133
L129.139 316.837
L130.032 317.534
L130.478 314.665
L130.925 316.072
L131.371 317.045
L131.818 314.038
L132.264 303.872
L132.71 329.319
L133.157 321.317
L133.603 317.163
L134.05 316.499
L134.496 314.458
L134.942 316.7
L135.389 315.631
L135.835 317.552
L136.282 304.706
L136.728 317.204
L137.174 316.689
L137.621 314.283
L138.067 316.062
L138.514 316.741
L138.96 310.629
L139.406 323.261
L139.853 316.392
L140.299 318.289
L140.746 314.355
L141.192 316.087
L141.638 323.4
L142.085 314.575
L142.531 317.615
L143.424 315.15
L143.87 315.501
L144.317 316.539
L144.763 289.04
L145.21 316.028
L145.656 316.519
L146.102 314.306
L146.549 315.62
L146.995 315.61
L147.442 313.591
L147.888 316.147
L148.334 315.771
L148.781 313.767
L149.227 315.856
L149.674 315.615
L150.12 314.584
L150.566 316.631
L151.013 315.914
L151.459 313.134
L151.906 316.654
L152.352 315.599
L152.798 288.078
L153.245 315.473
L153.691 314.596
L154.138 318.366
L154.584 315.066
L155.03 313.199
L155.477 319.688
L155.923 312.929
L156.37 313.012
L156.816 320.245
L157.262 313.184
L157.709 313.027
L158.155 322.195
L158.602 311.119
L159.048 313.329
L159.494 319.615
L159.941 312.129
L160.387 320.884
L160.834 316.524
L161.28 319.967
L161.726 289.194
L162.173 317.804
L162.619 318.595
L163.066 324.243
L163.512 314.795
L163.958 318.137
L164.405 317.458
L164.851 302.175
L165.298 330.359
L165.744 318.471
L166.19 316.51
L166.637 310.341
L167.083 322.252
L167.53 313.547
L167.976 319.989
L168.422 318.92
L168.869 314.242
L169.315 313.565
L169.762 321.944
L170.208 302.608
L170.654 317.659
L171.101 318.76
L171.994 310.351
L172.44 324.506
L172.886 315.879
L173.333 313.031
L173.779 318.479
L174.226 318.915
L174.672 315.182
L175.118 314.103
L175.565 319.03
L176.011 313.392
L176.458 320.425
L176.904 317.874
L177.797 317.653
L178.243 315.05
L178.69 317.101
L179.136 312.947
L180.029 316.343
L180.475 316.908
L180.922 314.339
L181.368 316.807
L181.814 317.588
L182.261 316.888
L182.707 313.618
L183.154 317.004
L183.6 313.092
L184.046 314.641
L184.493 316.776
L184.939 310.891
L185.386 319.173
L185.832 312.083
L186.278 322.088
L186.725 313.786
L187.171 316.68
L187.618 312.812
L188.064 316.331
L188.51 312.974
L188.957 316.519
L189.403 315.961
L189.85 313.981
L190.296 316.145
L190.742 316.232
L191.189 313.721
L191.635 315.852
L192.082 316.54
L192.528 313.429
L192.974 316.073
L193.421 315.9
L193.867 314.138
L194.314 314.757
L194.76 310.669
L195.206 291.611
L195.653 313.304
L196.099 291.256
L196.546 315.894
L196.992 322.423
L197.438 315.808
L197.885 300.384
L198.331 326.91
L199.224 313.183
L199.67 313.314
L200.117 322.086
L200.563 311.03
L201.01 319.936
L201.456 313.203
L201.902 319.439
L202.349 306.678
L202.795 323.474
L203.242 316.086
L203.688 314.858
L204.134 315.93
L204.581 301.468
L205.027 322.122
L205.474 315.855
L205.92 317.512
L206.366 311.818
L206.813 319.36
L207.259 317.409
L207.706 316.952
L208.152 313.819
L208.598 317.099
L209.045 317.297
L209.491 314.189
L209.938 316.524
L210.384 317.25
L210.83 314.47
L211.277 316.707
L211.723 314.455
L212.17 318.32
L212.616 314.189
L213.062 317.108
L213.509 323.213
L213.955 282.334
L214.402 319.528
L214.848 313.403
L215.294 320.173
L215.741 315.025
L216.187 315.652
L216.634 313.308
L217.08 310.039
L217.526 319.335
L217.973 316.717
L218.419 315.311
L218.866 316.922
L219.312 310.731
L219.758 313.167
L220.205 313.137
L220.651 321.783
L221.098 315.095
L221.544 316.434
L221.99 307.791
L222.437 319.225
L222.883 318.907
L223.33 286.951
L223.776 313.47
L224.222 319.634
L224.669 313.179
L225.115 312.995
L225.562 322.334
L226.008 309.903
L226.454 272.543
L226.901 280.193
L227.347 298.876
L227.794 325.558
L228.24 316.796
L228.686 314.667
L229.133 315.676
L229.579 317.83
L230.026 277.359
L230.472 316.478
L230.918 315.379
L231.365 288.641
L231.811 316.318
L232.258 316.63
L232.704 315.973
L233.15 312.031
L233.597 326.866
L234.043 313.269
L234.49 317.732
L234.936 316.121
L235.382 313.978
L235.829 316.592
L236.275 315.73
L236.722 313.868
L237.168 316.261
L237.614 316.013
L238.061 313.923
L238.507 315.439
L238.954 314.81
L239.4 314.898
L239.846 316.474
L240.293 315.442
L240.739 325.834
L241.186 316.718
L241.632 316.547
L242.078 313.538
L242.525 311.931
L242.971 324.573
L243.418 315.549
L243.864 317.696
L244.31 315.283
L244.757 316.473
L245.203 317.014
L245.65 314.154
L246.096 316.448
L246.542 316.317
L246.989 313.549
L247.435 316.775
L247.882 316.553
L248.328 315.444
L248.774 315.511
L249.221 316.391
L249.667 314.16
L250.114 316.794
L250.56 293.152
L251.006 315.47
L251.453 315.791
L251.899 317.558
L252.346 315.319
L252.792 317.011
L253.238 317.396
L253.685 315.367
L254.131 310.704
L254.578 323.739
L255.024 316.87
L255.47 313.352
L255.917 317.213
L256.363 317.005
L256.81 314.807
L257.256 316.947
L257.702 317.332
L258.149 314.163
L258.595 323.414
L259.042 306.733
L259.488 316.448
L259.934 314.88
L260.381 316.724
L260.827 316.249
L261.274 313.412
L261.72 317.765
L262.166 323.744
L262.613 299.357
L263.059 330.378
L263.506 318.705
L263.952 314.192
L264.398 317.083
L264.845 315.698
L265.291 317.056
L265.738 314.156
L266.184 317.192
L266.63 316.775
L267.077 314.705
L267.523 323.617
L267.97 317.233
L268.416 288.856
L268.862 315.737
L269.309 323.78
L269.755 316.912
L270.202 317.042
L271.094 314.553
L271.541 317.088
L271.987 317.766
L272.434 314.141
L272.88 313.417
L273.326 290.885
L273.773 259.032
L274.219 235.99
L274.666 318.813
L275.558 315.879
L276.005 318.912
L276.898 317.596
L277.344 315.189
L277.79 316.29
L278.237 318.877
L278.683 316.64
L279.13 318.153
L279.576 318.117
L280.022 318.409
L280.469 316.221
L280.915 317.826
L281.362 318.759
L281.808 318.103
L282.254 315.704
L282.701 318.061
L283.147 304.257
L283.594 314.124
L284.04 319.378
L284.486 319.107
L285.379 315.152
L285.826 319.379
L286.272 317.697
L286.718 318.487
L287.165 315.774
L287.611 317.959
L288.504 316.889
L288.95 318.375
L289.397 317.89
L289.843 318.517
L290.29 315.358
L290.736 318.022
L291.182 318.449
L291.629 316.13
L292.075 318.868
L292.522 317.856
L292.968 317.775
L293.414 314.216
L293.861 317.229
L294.307 317.19
L294.754 315.43
L295.2 306.62
L295.646 338.476
L296.093 315.446
L296.539 317.801
L296.986 317.661
L297.432 315.836
L297.878 321.988
L298.325 318.037
L298.771 317.082
L299.218 314.464
L299.664 317.567
L300.11 316.285
L300.557 311.294
L301.003 316.953
L301.45 316.017
L301.896 314.724
L302.342 316.378
L302.789 316.077
L303.235 314.851
L303.682 316.461
L304.128 316.504
L304.574 314.564
L305.021 316.491
L305.467 316.256
L305.914 314.261
L306.36 322.971
L306.806 317.116
L307.253 314.407
L307.699 316.602
L308.146 316.253
L308.592 286.857
L309.038 317.444
L309.485 316.767
L309.931 317.58
L310.378 314.926
L310.824 316.553
L311.27 316.488
L311.717 314.591
L312.163 317
L312.61 317.172
L313.056 309.554
L313.502 321.869
L313.949 315.871
L314.395 315.177
L314.842 316.993
L315.288 310.204
L315.734 322.769
L316.181 315.063
L316.627 317.037
L317.074 318.005
L317.52 301.291
L317.966 317.67
L318.413 316.487
L318.859 316.087
L319.306 317.133
L319.752 316.569
L320.198 313.726
L320.645 317.769
L321.091 317.431
L321.538 317.258
L321.984 315.067
L322.43 322.587
L322.877 317.857
L323.323 315.503
L324.216 318.312
L324.662 315.22
L325.109 317.44
L325.555 317.015
L326.002 289.774
L326.448 315.985
L326.894 317.148
L327.341 314.667
L327.787 304.021
L328.234 328.621
L328.68 317.277
L329.126 315.301
L329.573 316.079
L330.019 322.817
L330.466 314.479
L330.912 316.641
L331.358 317.563
L331.805 312.565
L332.251 317.519
L333.144 314.683
L333.59 323.953
L334.037 316.983
L334.483 284.119
L334.93 322.866
L335.376 317.478
L335.822 308.647
L336.269 320.261
L336.715 319.031
L337.162 314.902
L337.608 317.751
L338.054 323.079
L338.501 314.704
L338.947 317.287
L339.394 317.303
L339.84 315.029
L340.286 319.857
L340.733 315.922
L341.179 314.537
L341.626 315.843
L342.072 316.352
L342.518 314.466
L342.965 316.226
L343.411 316.013
L343.858 313.761
L344.304 316.127
L344.75 321.894
L345.197 314.156
L345.643 316.1
L346.09 316.497
L346.536 313.53
L346.982 316.105
L347.429 316.385
L347.875 295.607
L348.322 317.166
L348.768 323.277
L349.214 314.523
L349.661 316.69
L350.107 316.47
L350.554 313.957
L351 317.462
L351.893 315.747
L352.339 314.538
L352.786 317.521
L353.232 316.602
L353.678 314.32
L354.125 316.393
L354.571 317.305
L355.018 314.106
L355.464 316.767
L355.91 316.874
L356.357 314.928
L356.803 316.466
L357.25 292.343
L357.696 317.713
L358.142 315.393
L358.589 316.675
L359.035 318.376
L359.482 322.294
L359.928 316.632
L360.374 304.129
L360.821 330.646
L361.267 311.043
L361.714 323.325
L362.16 315.118
L362.606 317.896
L363.053 314.873
L363.499 319.702
L364.392 317.256
L364.838 316.558
L365.285 318.555
L365.731 312.11
L366.178 322.013
L366.624 317.843
L367.07 301.995
L367.517 318.681
L367.963 314.94
L368.41 319.296
L368.856 318.379
L369.302 318.429
L369.749 316.148
L370.195 317.578
L370.642 318.164
L371.088 315.844
L371.534 318.574
L371.981 318.084
L372.427 318.537
L372.874 314.002
L373.32 318.968
L373.766 319.476
L374.213 318.126
L374.659 314.782
L375.106 318.989
L375.552 318.074
L375.998 311.587
L376.445 316.134
L376.891 318.035
L377.338 314.114
L377.784 317.544
L378.23 324.018
L378.677 317.439
L379.123 315.134
L379.57 317.553
L380.462 315.011
L381.355 318.182
L381.802 315.188
L382.248 317.764
L382.694 316.458
L383.141 316.813
L383.587 314.946
L384.034 311.647
L384.48 322.788
L384.926 313.386
L385.373 315.484
L385.819 323.793
L386.266 313.875
L386.712 315.941
L387.158 316.473
L387.605 237.408
L388.051 254.129
L388.498 316.826
L388.944 299.415
L389.39 323.432
L389.837 318.729
L390.283 316.579
L390.73 315.591
L391.176 313.721
L391.622 310.561
L392.069 325.865
L392.962 301.445
L393.408 328.735
L393.854 316.209
L394.301 313.857
L394.747 309.866
L395.194 333.723
L395.64 317.582
L396.086 313.553
L396.533 315.939
L396.979 315.023
L397.426 288.318
L397.872 316.25
L398.318 317.289
L398.765 319.524
L399.211 318.138
L399.658 315.515
L400.104 315.356
L400.55 317.325
L400.997 316.543
L401.443 310.031
L401.89 321.243
L402.336 313.801
L402.782 313.982
L403.229 321.22
L404.122 314.183
L404.568 315.29
L405.014 315.03
L405.461 314.46
L405.907 317.201
L406.354 310.901
L406.8 315.201
L407.246 316.869
L407.693 315.311
L408.139 316.088
L408.586 317.363
L409.032 315.042
L409.478 289.728
L409.925 317.437
L410.371 317.034
L410.818 315.307
L411.264 316.914
L411.71 316.534
L412.157 315.318
L412.603 316.811
L413.05 317.491
L413.496 317.26
L413.942 315.204
L414.389 317.96
L414.835 316.661
L415.282 314.979
L415.728 316.836
L416.174 317.146
L417.067 312.225
L417.514 315.447
L417.96 322.928
L418.406 316.602
L418.853 291.438
L419.299 316.429
L419.746 317.162
L420.192 317.121
L420.638 318.305
L421.085 313.364
L421.531 319.92
L421.978 316.12
L422.424 318.859
L422.87 315.733
L423.317 317.841
L423.763 317.329
L424.21 318.253
L424.656 315.329
L425.102 317.593
L425.549 302.803
L425.995 333.055
L426.442 315.458
L426.888 317.17
L427.334 315.507
L427.781 323.15
L428.227 319.393
L428.674 303.782
L429.12 320.497
L429.566 314.622
L430.013 316.201
L430.459 319.297
L430.906 317.829
L431.352 315.253
L431.798 317.9
L432.245 317.993
L432.691 315.09
L433.138 317.869
L433.584 317.457
L434.03 315.843
L434.477 315.91
L434.923 318.136
L435.816 317.905
L436.262 315.176
L436.709 310.723
L437.155 324.007
L437.602 310.875
L438.048 317.078
L438.494 316.593
L438.941 314.645
L439.387 316.142
L439.834 315.886
L440.28 318.789
L440.726 313.938
L441.173 316.054
L441.619 315.606
L442.066 309.535
L442.512 322.665
L442.958 317.183
L443.405 313.179
L443.851 317.996
L444.298 315.031
L444.744 318.233
L445.19 319.479
L445.637 323.683
L446.083 307.858
L446.53 323.659
L446.976 309.968
L447.422 320.704
L447.869 315.186
L448.315 325.127
L448.762 307.09
L449.208 313.943
L449.654 314.963
L450.101 317.557
L450.547 315.962
L450.994 317.106
L451.44 312.943
L451.886 313.785
L452.333 315.342
L452.779 318.74
L453.226 314.698
L453.672 317.098
L454.118 316.87
L454.565 316.779
L455.011 314.609
L455.458 316.576
L455.904 316.722
L456.35 312.581
L456.797 317.086
L457.243 291.337
L457.69 314.443
L458.136 316.532
L458.582 302.219
L459.029 328.769
L459.475 316.067
L459.922 315.819
L460.368 313.974
L460.814 316.287
L461.261 316.26
L461.707 313.141
L462.154 314.569
L462.6 317.762
L463.046 313.614
L463.493 287.766
L463.939 314.22
L464.386 316.06
L464.832 315.793
L465.278 316.519
L465.725 287.205
L466.171 318.373
L466.618 316.058
L467.064 317.863
L467.51 314.897
L467.957 316.556
L468.403 316.749
L468.85 315.22
L469.296 316.606
L469.742 316.735
L470.189 312.534
L470.635 318.54
L471.082 316.771
L471.528 314.191
L471.974 315.338
L472.421 317.252
L472.867 318.373
L473.314 314.586
L473.76 320.593
L474.206 291.118
L474.653 313.894
L475.099 319.463
L475.546 317.689
L475.992 317.848
L476.438 316.249
L476.885 317.264
L477.331 317.728
L477.778 315.687
L478.224 317.632
L478.67 315.591
L479.117 318.799
L479.563 315.267
L480.01 316.856
L480.456 319.368
L480.902 317.857
L481.349 315.427
L481.795 317.525
L482.242 311.12
L482.688 308.218
L483.134 317.814
L483.581 317.434
L484.027 317.334
L484.474 314.233
L484.92 319.222
L485.366 317.387
L485.813 310.033
L486.259 321.918
L486.706 325.232
L487.152 319.001
L487.598 316.352
L488.491 318.885
L488.938 318.051
L489.384 315.57
L489.83 317.939
L490.277 318.269
L490.723 319.268
L491.17 301.408
L491.616 329.164
L492.062 317.505
L492.509 313.885
L492.955 317.286
L493.402 318.245
L493.848 315.146
L494.294 317.006
L494.741 317.684
L495.187 317.07
L496.08 313.713
L496.526 317.645
L496.973 314.419
L497.419 317.687
L497.866 317.72
L498.758 311.484
L499.205 322.411
L499.651 318.016
L500.098 311.084
L500.544 316.11
L500.99 314.29
L501.437 314.52
L501.883 315.764
L502.33 317.545
L502.776 313.794
L503.222 316.446
L503.669 316.119
L504.115 313.334
L504.562 316.483
L505.008 316.186
L505.454 313.92
L505.901 315.617
L506.347 315.984
L506.794 312.302
L507.24 317.903
L508.133 313.546
L508.579 287.008
L509.026 312.319
L509.472 321.002
L509.918 317.231
L510.365 315.091
L510.811 315.999
L511.258 315.153
L511.704 310.378
L512.15 322.853
L512.597 317.075
L513.043 317.026
L513.49 323.773
L513.936 315.455
L514.382 317.306
L514.829 314.744
L515.722 317.925
L516.168 317.704
L516.614 314.361
L517.061 306.788
L517.507 317.365
L517.954 290.523
L517.954 290.523" style="fill:none;opacity:0.5;stroke:#0000ff;"/>
   </g>
   <g id="matplotlib.axis_1">
    <g id="xtick_1">
     <g id="line2d_4">
      <path clip-path="url(#p7ff5b81e1d)" d="
M72 388.8
L72 43.2" style="fill:none;stroke:#000000;stroke-dasharray:1.000000,3.000000;stroke-dashoffset:0.0;stroke-linecap:butt;stroke-width:0.5;"/>
     </g>
     <g id="line2d_5">
      <defs>
       <path d="
M0 0
L0 -4" id="m0012dd4eef" style="stroke:#000000;stroke-linecap:butt;stroke-width:0.5;"/>
      </defs>
      <g>
       <use style="stroke:#000000;stroke-linecap:butt;stroke-width:0.5;" x="72.0" xlink:href="#m0012dd4eef" y="388.8"/>
      </g>
     </g>
     <g id="line2d_6">
      <defs>
       <path d="
M0 0
L0 4" id="m476344969c" style="stroke:#000000;stroke-linecap:butt;stroke-width:0.5;"/>
      </defs>
      <g>
       <use style="stroke:#000000;stroke-linecap:butt;stroke-width:0.5;" x="72.0" xlink:href="#m476344969c" y="43.2"/>
      </g>
     </g>
     <g id="text_1">
      <!-- 0 -->
      <defs>
       <path d="
M31.7812 66.4062
Q24.1719 66.4062 20.3281 58.9062
Q16.5 51.4219 16.5 36.375
Q16.5 21.3906 20.3281 13.8906
Q24.1719 6.39062 31.7812 6.39062
Q39.4531 6.39062 43.2812 13.8906
Q47.125 21.3906 47.125 36.375
Q47.125 51.4219 43.2812 58.9062
Q39.4531 66.4062 31.7812 66.4062
M31.7812 74.2188
Q44.0469 74.2188 50.5156 64.5156
Q56.9844 54.8281 56.9844 36.375
Q56.9844 17.9688 50.5156 8.26562
Q44.0469 -1.42188 31.7812 -1.42188
Q19.5312 -1.42188 13.0625 8.26562
Q6.59375 17.9688 6.59375 36.375
Q6.59375 54.8281 13.0625 64.5156
Q19.5312 74.2188 31.7812 74.2188" id="BitstreamVeraSans-Roman-30"/>
      </defs>
      <g transform="translate(68.9765625 401.70625)scale(0.12 -0.12)">
       <use xlink:href="#BitstreamVeraSans-Roman-30"/>
      </g>
     </g>
    </g>
    <g id="xtick_2">
     <g id="line2d_7">
      <path clip-path="url(#p7ff5b81e1d)" d="
M116.64 388.8
L116.64 43.2" style="fill:none;stroke:#000000;stroke-dasharray:1.000000,3.000000;stroke-dashoffset:0.0;stroke-linecap:butt;stroke-width:0.5;"/>
     </g>
     <g id="line2d_8">
      <g>
       <use style="stroke:#000000;stroke-linecap:butt;stroke-width:0.5;" x="116.64" xlink:href="#m0012dd4eef" y="388.8"/>
      </g>
     </g>
     <g id="line2d_9">
      <g>
       <use style="stroke:#000000;stroke-linecap:butt;stroke-width:0.5;" x="116.64" xlink:href="#m476344969c" y="43.2"/>
      </g>
     </g>
     <g id="text_2">
      <!-- 100 -->
      <defs>
       <path d="
M12.4062 8.29688
L28.5156 8.29688
L28.5156 63.9219
L10.9844 60.4062
L10.9844 69.3906
L28.4219 72.9062
L38.2812 72.9062
L38.2812 8.29688
L54.3906 8.29688
L54.3906 0
L12.4062 0
z
" id="BitstreamVeraSans-Roman-31"/>
      </defs>
      <g transform="translate(106.245 401.70625)scale(0.12 -0.12)">
       <use xlink:href="#BitstreamVeraSans-Roman-31"/>
       <use x="63.623046875" xlink:href="#BitstreamVeraSans-Roman-30"/>
       <use x="127.24609375" xlink:href="#BitstreamVeraSans-Roman-30"/>
      </g>
     </g>
    </g>
    <g id="xtick_3">
     <g id="line2d_10">
      <path clip-path="url(#p7ff5b81e1d)" d="
M161.28 388.8
L161.28 43.2" style="fill:none;stroke:#000000;stroke-dasharray:1.000000,3.000000;stroke-dashoffset:0.0;stroke-linecap:butt;stroke-width:0.5;"/>
     </g>
     <g id="line2d_11">
      <g>
       <use style="stroke:#000000;stroke-linecap:butt;stroke-width:0.5;" x="161.28" xlink:href="#m0012dd4eef" y="388.8"/>
      </g>
     </g>
     <g id="line2d_12">
      <g>
       <use style="stroke:#000000;stroke-linecap:butt;stroke-width:0.5;" x="161.28" xlink:href="#m476344969c" y="43.2"/>
      </g>
     </g>
     <g id="text_3">
      <!-- 200 -->
      <defs>
       <path d="
M19.1875 8.29688
L53.6094 8.29688
L53.6094 0
L7.32812 0
L7.32812 8.29688
Q12.9375 14.1094 22.625 23.8906
Q32.3281 33.6875 34.8125 36.5312
Q39.5469 41.8438 41.4219 45.5312
Q43.3125 49.2188 43.3125 52.7812
Q43.3125 58.5938 39.2344 62.25
Q35.1562 65.9219 28.6094 65.9219
Q23.9688 65.9219 18.8125 64.3125
Q13.6719 62.7031 7.8125 59.4219
L7.8125 69.3906
Q13.7656 71.7812 18.9375 73
Q24.125 74.2188 28.4219 74.2188
Q39.75 74.2188 46.4844 68.5469
Q53.2188 62.8906 53.2188 53.4219
Q53.2188 48.9219 51.5312 44.8906
Q49.8594 40.875 45.4062 35.4062
Q44.1875 33.9844 37.6406 27.2188
Q31.1094 20.4531 19.1875 8.29688" id="BitstreamVeraSans-Roman-32"/>
      </defs>
      <g transform="translate(150.665625 401.70625)scale(0.12 -0.12)">
       <use xlink:href="#BitstreamVeraSans-Roman-32"/>
       <use x="63.623046875" xlink:href="#BitstreamVeraSans-Roman-30"/>
       <use x="127.24609375" xlink:href="#BitstreamVeraSans-Roman-30"/>
      </g>
     </g>
    </g>
    <g id="xtick_4">
     <g id="line2d_13">
      <path clip-path="url(#p7ff5b81e1d)" d="
M205.92 388.8
L205.92 43.2" style="fill:none;stroke:#000000;stroke-dasharray:1.000000,3.000000;stroke-dashoffset:0.0;stroke-linecap:butt;stroke-width:0.5;"/>
     </g>
     <g id="line2d_14">
      <g>
       <use style="stroke:#000000;stroke-linecap:butt;stroke-width:0.5;" x="205.92" xlink:href="#m0012dd4eef" y="388.8"/>
      </g>
     </g>
     <g id="line2d_15">
      <g>
       <use style="stroke:#000000;stroke-linecap:butt;stroke-width:0.5;" x="205.92" xlink:href="#m476344969c" y="43.2"/>
      </g>
     </g>
     <g id="text_4">
      <!-- 300 -->
      <defs>
       <path d="
M40.5781 39.3125
Q47.6562 37.7969 51.625 33
Q55.6094 28.2188 55.6094 21.1875
Q55.6094 10.4062 48.1875 4.48438
Q40.7656 -1.42188 27.0938 -1.42188
Q22.5156 -1.42188 17.6562 -0.515625
Q12.7969 0.390625 7.625 2.20312
L7.625 11.7188
Q11.7188 9.32812 16.5938 8.10938
Q21.4844 6.89062 26.8125 6.89062
Q36.0781 6.89062 40.9375 10.5469
Q45.7969 14.2031 45.7969 21.1875
Q45.7969 27.6406 41.2812 31.2656
Q36.7656 34.9062 28.7188 34.9062
L20.2188 34.9062
L20.2188 43.0156
L29.1094 43.0156
Q36.375 43.0156 40.2344 45.9219
Q44.0938 48.8281 44.0938 54.2969
Q44.0938 59.9062 40.1094 62.9062
Q36.1406 65.9219 28.7188 65.9219
Q24.6562 65.9219 20.0156 65.0312
Q15.375 64.1562 9.8125 62.3125
L9.8125 71.0938
Q15.4375 72.6562 20.3438 73.4375
Q25.25 74.2188 29.5938 74.2188
Q40.8281 74.2188 47.3594 69.1094
Q53.9062 64.0156 53.9062 55.3281
Q53.9062 49.2656 50.4375 45.0938
Q46.9688 40.9219 40.5781 39.3125" id="BitstreamVeraSans-Roman-33"/>
      </defs>
      <g transform="translate(195.3234375 401.70625)scale(0.12 -0.12)">
       <use xlink:href="#BitstreamVeraSans-Roman-33"/>
       <use x="63.623046875" xlink:href="#BitstreamVeraSans-Roman-30"/>
       <use x="127.24609375" xlink:href="#BitstreamVeraSans-Roman-30"/>
      </g>
     </g>
    </g>
    <g id="xtick_5">
     <g id="line2d_16">
      <path clip-path="url(#p7ff5b81e1d)" d="
M250.56 388.8
L250.56 43.2" style="fill:none;stroke:#000000;stroke-dasharray:1.000000,3.000000;stroke-dashoffset:0.0;stroke-linecap:butt;stroke-width:0.5;"/>
     </g>
     <g id="line2d_17">
      <g>
       <use style="stroke:#000000;stroke-linecap:butt;stroke-width:0.5;" x="250.56" xlink:href="#m0012dd4eef" y="388.8"/>
      </g>
     </g>
     <g id="line2d_18">
      <g>
       <use style="stroke:#000000;stroke-linecap:butt;stroke-width:0.5;" x="250.56" xlink:href="#m476344969c" y="43.2"/>
      </g>
     </g>
     <g id="text_5">
      <!-- 400 -->
      <defs>
       <path d="
M37.7969 64.3125
L12.8906 25.3906
L37.7969 25.3906
z

M35.2031 72.9062
L47.6094 72.9062
L47.6094 25.3906
L58.0156 25.3906
L58.0156 17.1875
L47.6094 17.1875
L47.6094 0
L37.7969 0
L37.7969 17.1875
L4.89062 17.1875
L4.89062 26.7031
z
" id="BitstreamVeraSans-Roman-34"/>
      </defs>
      <g transform="translate(239.799375 401.70625)scale(0.12 -0.12)">
       <use xlink:href="#BitstreamVeraSans-Roman-34"/>
       <use x="63.623046875" xlink:href="#BitstreamVeraSans-Roman-30"/>
       <use x="127.24609375" xlink:href="#BitstreamVeraSans-Roman-30"/>
      </g>
     </g>
    </g>
    <g id="xtick_6">
     <g id="line2d_19">
      <path clip-path="url(#p7ff5b81e1d)" d="
M295.2 388.8
L295.2 43.2" style="fill:none;stroke:#000000;stroke-dasharray:1.000000,3.000000;stroke-dashoffset:0.0;stroke-linecap:butt;stroke-width:0.5;"/>
     </g>
     <g id="line2d_20">
      <g>
       <use style="stroke:#000000;stroke-linecap:butt;stroke-width:0.5;" x="295.2" xlink:href="#m0012dd4eef" y="388.8"/>
      </g>
     </g>
     <g id="line2d_21">
      <g>
       <use style="stroke:#000000;stroke-linecap:butt;stroke-width:0.5;" x="295.2" xlink:href="#m476344969c" y="43.2"/>
      </g>
     </g>
     <g id="text_6">
      <!-- 500 -->
      <defs>
       <path d="
M10.7969 72.9062
L49.5156 72.9062
L49.5156 64.5938
L19.8281 64.5938
L19.8281 46.7344
Q21.9688 47.4688 24.1094 47.8281
Q26.2656 48.1875 28.4219 48.1875
Q40.625 48.1875 47.75 41.5
Q54.8906 34.8125 54.8906 23.3906
Q54.8906 11.625 47.5625 5.09375
Q40.2344 -1.42188 26.9062 -1.42188
Q22.3125 -1.42188 17.5469 -0.640625
Q12.7969 0.140625 7.71875 1.70312
L7.71875 11.625
Q12.1094 9.23438 16.7969 8.0625
Q21.4844 6.89062 26.7031 6.89062
Q35.1562 6.89062 40.0781 11.3281
Q45.0156 15.7656 45.0156 23.3906
Q45.0156 31 40.0781 35.4375
Q35.1562 39.8906 26.7031 39.8906
Q22.75 39.8906 18.8125 39.0156
Q14.8906 38.1406 10.7969 36.2812
z
" id="BitstreamVeraSans-Roman-35"/>
      </defs>
      <g transform="translate(284.6090625 401.70625)scale(0.12 -0.12)">
       <use xlink:href="#BitstreamVeraSans-Roman-35"/>
       <use x="63.623046875" xlink:href="#BitstreamVeraSans-Roman-30"/>
       <use x="127.24609375" xlink:href="#BitstreamVeraSans-Roman-30"/>
      </g>
     </g>
    </g>
    <g id="xtick_7">
     <g id="line2d_22">
      <path clip-path="url(#p7ff5b81e1d)" d="
M339.84 388.8
L339.84 43.2" style="fill:none;stroke:#000000;stroke-dasharray:1.000000,3.000000;stroke-dashoffset:0.0;stroke-linecap:butt;stroke-width:0.5;"/>
     </g>
     <g id="line2d_23">
      <g>
       <use style="stroke:#000000;stroke-linecap:butt;stroke-width:0.5;" x="339.84" xlink:href="#m0012dd4eef" y="388.8"/>
      </g>
     </g>
     <g id="line2d_24">
      <g>
       <use style="stroke:#000000;stroke-linecap:butt;stroke-width:0.5;" x="339.84" xlink:href="#m476344969c" y="43.2"/>
      </g>
     </g>
     <g id="text_7">
      <!-- 600 -->
      <defs>
       <path d="
M33.0156 40.375
Q26.375 40.375 22.4844 35.8281
Q18.6094 31.2969 18.6094 23.3906
Q18.6094 15.5312 22.4844 10.9531
Q26.375 6.39062 33.0156 6.39062
Q39.6562 6.39062 43.5312 10.9531
Q47.4062 15.5312 47.4062 23.3906
Q47.4062 31.2969 43.5312 35.8281
Q39.6562 40.375 33.0156 40.375
M52.5938 71.2969
L52.5938 62.3125
Q48.875 64.0625 45.0938 64.9844
Q41.3125 65.9219 37.5938 65.9219
Q27.8281 65.9219 22.6719 59.3281
Q17.5312 52.7344 16.7969 39.4062
Q19.6719 43.6562 24.0156 45.9219
Q28.375 48.1875 33.5938 48.1875
Q44.5781 48.1875 50.9531 41.5156
Q57.3281 34.8594 57.3281 23.3906
Q57.3281 12.1562 50.6875 5.35938
Q44.0469 -1.42188 33.0156 -1.42188
Q20.3594 -1.42188 13.6719 8.26562
Q6.98438 17.9688 6.98438 36.375
Q6.98438 53.6562 15.1875 63.9375
Q23.3906 74.2188 37.2031 74.2188
Q40.9219 74.2188 44.7031 73.4844
Q48.4844 72.75 52.5938 71.2969" id="BitstreamVeraSans-Roman-36"/>
      </defs>
      <g transform="translate(329.205 401.70625)scale(0.12 -0.12)">
       <use xlink:href="#BitstreamVeraSans-Roman-36"/>
       <use x="63.623046875" xlink:href="#BitstreamVeraSans-Roman-30"/>
       <use x="127.24609375" xlink:href="#BitstreamVeraSans-Roman-30"/>
      </g>
     </g>
    </g>
    <g id="xtick_8">
     <g id="line2d_25">
      <path clip-path="url(#p7ff5b81e1d)" d="
M384.48 388.8
L384.48 43.2" style="fill:none;stroke:#000000;stroke-dasharray:1.000000,3.000000;stroke-dashoffset:0.0;stroke-linecap:butt;stroke-width:0.5;"/>
     </g>
     <g id="line2d_26">
      <g>
       <use style="stroke:#000000;stroke-linecap:butt;stroke-width:0.5;" x="384.48" xlink:href="#m0012dd4eef" y="388.8"/>
      </g>
     </g>
     <g id="line2d_27">
      <g>
       <use style="stroke:#000000;stroke-linecap:butt;stroke-width:0.5;" x="384.48" xlink:href="#m476344969c" y="43.2"/>
      </g>
     </g>
     <g id="text_8">
      <!-- 700 -->
      <defs>
       <path d="
M8.20312 72.9062
L55.0781 72.9062
L55.0781 68.7031
L28.6094 0
L18.3125 0
L43.2188 64.5938
L8.20312 64.5938
z
" id="BitstreamVeraSans-Roman-37"/>
      </defs>
      <g transform="translate(373.918125 401.70625)scale(0.12 -0.12)">
       <use xlink:href="#BitstreamVeraSans-Roman-37"/>
       <use x="63.623046875" xlink:href="#BitstreamVeraSans-Roman-30"/>
       <use x="127.24609375" xlink:href="#BitstreamVeraSans-Roman-30"/>
      </g>
     </g>
    </g>
    <g id="xtick_9">
     <g id="line2d_28">
      <path clip-path="url(#p7ff5b81e1d)" d="
M429.12 388.8
L429.12 43.2" style="fill:none;stroke:#000000;stroke-dasharray:1.000000,3.000000;stroke-dashoffset:0.0;stroke-linecap:butt;stroke-width:0.5;"/>
     </g>
     <g id="line2d_29">
      <g>
       <use style="stroke:#000000;stroke-linecap:butt;stroke-width:0.5;" x="429.12" xlink:href="#m0012dd4eef" y="388.8"/>
      </g>
     </g>
     <g id="line2d_30">
      <g>
       <use style="stroke:#000000;stroke-linecap:butt;stroke-width:0.5;" x="429.12" xlink:href="#m476344969c" y="43.2"/>
      </g>
     </g>
     <g id="text_9">
      <!-- 800 -->
      <defs>
       <path d="
M31.7812 34.625
Q24.75 34.625 20.7188 30.8594
Q16.7031 27.0938 16.7031 20.5156
Q16.7031 13.9219 20.7188 10.1562
Q24.75 6.39062 31.7812 6.39062
Q38.8125 6.39062 42.8594 10.1719
Q46.9219 13.9688 46.9219 20.5156
Q46.9219 27.0938 42.8906 30.8594
Q38.875 34.625 31.7812 34.625
M21.9219 38.8125
Q15.5781 40.375 12.0312 44.7188
Q8.5 49.0781 8.5 55.3281
Q8.5 64.0625 14.7188 69.1406
Q20.9531 74.2188 31.7812 74.2188
Q42.6719 74.2188 48.875 69.1406
Q55.0781 64.0625 55.0781 55.3281
Q55.0781 49.0781 51.5312 44.7188
Q48 40.375 41.7031 38.8125
Q48.8281 37.1562 52.7969 32.3125
Q56.7812 27.4844 56.7812 20.5156
Q56.7812 9.90625 50.3125 4.23438
Q43.8438 -1.42188 31.7812 -1.42188
Q19.7344 -1.42188 13.25 4.23438
Q6.78125 9.90625 6.78125 20.5156
Q6.78125 27.4844 10.7812 32.3125
Q14.7969 37.1562 21.9219 38.8125
M18.3125 54.3906
Q18.3125 48.7344 21.8438 45.5625
Q25.3906 42.3906 31.7812 42.3906
Q38.1406 42.3906 41.7188 45.5625
Q45.3125 48.7344 45.3125 54.3906
Q45.3125 60.0625 41.7188 63.2344
Q38.1406 66.4062 31.7812 66.4062
Q25.3906 66.4062 21.8438 63.2344
Q18.3125 60.0625 18.3125 54.3906" id="BitstreamVeraSans-Roman-38"/>
      </defs>
      <g transform="translate(418.4728125 401.70625)scale(0.12 -0.12)">
       <use xlink:href="#BitstreamVeraSans-Roman-38"/>
       <use x="63.623046875" xlink:href="#BitstreamVeraSans-Roman-30"/>
       <use x="127.24609375" xlink:href="#BitstreamVeraSans-Roman-30"/>
      </g>
     </g>
    </g>
    <g id="xtick_10">
     <g id="line2d_31">
      <path clip-path="url(#p7ff5b81e1d)" d="
M473.76 388.8
L473.76 43.2" style="fill:none;stroke:#000000;stroke-dasharray:1.000000,3.000000;stroke-dashoffset:0.0;stroke-linecap:butt;stroke-width:0.5;"/>
     </g>
     <g id="line2d_32">
      <g>
       <use style="stroke:#000000;stroke-linecap:butt;stroke-width:0.5;" x="473.76" xlink:href="#m0012dd4eef" y="388.8"/>
      </g>
     </g>
     <g id="line2d_33">
      <g>
       <use style="stroke:#000000;stroke-linecap:butt;stroke-width:0.5;" x="473.76" xlink:href="#m476344969c" y="43.2"/>
      </g>
     </g>
     <g id="text_10">
      <!-- 900 -->
      <defs>
       <path d="
M10.9844 1.51562
L10.9844 10.5
Q14.7031 8.73438 18.5 7.8125
Q22.3125 6.89062 25.9844 6.89062
Q35.75 6.89062 40.8906 13.4531
Q46.0469 20.0156 46.7812 33.4062
Q43.9531 29.2031 39.5938 26.9531
Q35.25 24.7031 29.9844 24.7031
Q19.0469 24.7031 12.6719 31.3125
Q6.29688 37.9375 6.29688 49.4219
Q6.29688 60.6406 12.9375 67.4219
Q19.5781 74.2188 30.6094 74.2188
Q43.2656 74.2188 49.9219 64.5156
Q56.5938 54.8281 56.5938 36.375
Q56.5938 19.1406 48.4062 8.85938
Q40.2344 -1.42188 26.4219 -1.42188
Q22.7031 -1.42188 18.8906 -0.6875
Q15.0938 0.046875 10.9844 1.51562
M30.6094 32.4219
Q37.25 32.4219 41.125 36.9531
Q45.0156 41.5 45.0156 49.4219
Q45.0156 57.2812 41.125 61.8438
Q37.25 66.4062 30.6094 66.4062
Q23.9688 66.4062 20.0938 61.8438
Q16.2188 57.2812 16.2188 49.4219
Q16.2188 41.5 20.0938 36.9531
Q23.9688 32.4219 30.6094 32.4219" id="BitstreamVeraSans-Roman-39"/>
      </defs>
      <g transform="translate(463.08375 401.70625)scale(0.12 -0.12)">
       <use xlink:href="#BitstreamVeraSans-Roman-39"/>
       <use x="63.623046875" xlink:href="#BitstreamVeraSans-Roman-30"/>
       <use x="127.24609375" xlink:href="#BitstreamVeraSans-Roman-30"/>
      </g>
     </g>
    </g>
   </g>
   <g id="matplotlib.axis_2">
    <g id="ytick_1">
     <g id="line2d_34">
      <path clip-path="url(#p7ff5b81e1d)" d="
M72 388.8
L518.4 388.8" style="fill:none;stroke:#000000;stroke-dasharray:1.000000,3.000000;stroke-dashoffset:0.0;stroke-linecap:butt;stroke-width:0.5;"/>
     </g>
     <g id="line2d_35">
      <defs>
       <path d="
M0 0
L4 0" id="me8a85f7bf6" style="stroke:#000000;stroke-linecap:butt;stroke-width:0.5;"/>
      </defs>
      <g>
       <use style="stroke:#000000;stroke-linecap:butt;stroke-width:0.5;" x="72.0" xlink:href="#me8a85f7bf6" y="388.8"/>
      </g>
     </g>
     <g id="line2d_36">
      <defs>
       <path d="
M0 0
L-4 0" id="m1a32005dea" style="stroke:#000000;stroke-linecap:butt;stroke-width:0.5;"/>
      </defs>
      <g>
       <use style="stroke:#000000;stroke-linecap:butt;stroke-width:0.5;" x="518.4" xlink:href="#m1a32005dea" y="388.8"/>
      </g>
     </g>
     <g id="text_11">
      <!-- 0.000 -->
      <defs>
       <path d="
M10.6875 12.4062
L21 12.4062
L21 0
L10.6875 0
z
" id="BitstreamVeraSans-Roman-2e"/>
      </defs>
      <g transform="translate(35.234375 393.1678125)scale(0.12 -0.12)">
       <use xlink:href="#BitstreamVeraSans-Roman-30"/>
       <use x="63.623046875" xlink:href="#BitstreamVeraSans-Roman-2e"/>
       <use x="95.41015625" xlink:href="#BitstreamVeraSans-Roman-30"/>
       <use x="159.033203125" xlink:href="#BitstreamVeraSans-Roman-30"/>
       <use x="222.65625" xlink:href="#BitstreamVeraSans-Roman-30"/>
      </g>
     </g>
    </g>
    <g id="ytick_2">
     <g id="line2d_37">
      <path clip-path="url(#p7ff5b81e1d)" d="
M72 354.24
L518.4 354.24" style="fill:none;stroke:#000000;stroke-dasharray:1.000000,3.000000;stroke-dashoffset:0.0;stroke-linecap:butt;stroke-width:0.5;"/>
     </g>
     <g id="line2d_38">
      <g>
       <use style="stroke:#000000;stroke-linecap:butt;stroke-width:0.5;" x="72.0" xlink:href="#me8a85f7bf6" y="354.24"/>
      </g>
     </g>
     <g id="line2d_39">
      <g>
       <use style="stroke:#000000;stroke-linecap:butt;stroke-width:0.5;" x="518.4" xlink:href="#m1a32005dea" y="354.24"/>
      </g>
     </g>
     <g id="text_12">
      <!-- 0.005 -->
      <g transform="translate(35.485625 358.6078125)scale(0.12 -0.12)">
       <use xlink:href="#BitstreamVeraSans-Roman-30"/>
       <use x="63.623046875" xlink:href="#BitstreamVeraSans-Roman-2e"/>
       <use x="95.41015625" xlink:href="#BitstreamVeraSans-Roman-30"/>
       <use x="159.033203125" xlink:href="#BitstreamVeraSans-Roman-30"/>
       <use x="222.65625" xlink:href="#BitstreamVeraSans-Roman-35"/>
      </g>
     </g>
    </g>
    <g id="ytick_3">
     <g id="line2d_40">
      <path clip-path="url(#p7ff5b81e1d)" d="
M72 319.68
L518.4 319.68" style="fill:none;stroke:#000000;stroke-dasharray:1.000000,3.000000;stroke-dashoffset:0.0;stroke-linecap:butt;stroke-width:0.5;"/>
     </g>
     <g id="line2d_41">
      <g>
       <use style="stroke:#000000;stroke-linecap:butt;stroke-width:0.5;" x="72.0" xlink:href="#me8a85f7bf6" y="319.68"/>
      </g>
     </g>
     <g id="line2d_42">
      <g>
       <use style="stroke:#000000;stroke-linecap:butt;stroke-width:0.5;" x="518.4" xlink:href="#m1a32005dea" y="319.68"/>
      </g>
     </g>
     <g id="text_13">
      <!-- 0.010 -->
      <g transform="translate(35.234375 324.0478125)scale(0.12 -0.12)">
       <use xlink:href="#BitstreamVeraSans-Roman-30"/>
       <use x="63.623046875" xlink:href="#BitstreamVeraSans-Roman-2e"/>
       <use x="95.41015625" xlink:href="#BitstreamVeraSans-Roman-30"/>
       <use x="159.033203125" xlink:href="#BitstreamVeraSans-Roman-31"/>
       <use x="222.65625" xlink:href="#BitstreamVeraSans-Roman-30"/>
      </g>
     </g>
    </g>
    <g id="ytick_4">
     <g id="line2d_43">
      <path clip-path="url(#p7ff5b81e1d)" d="
M72 285.12
L518.4 285.12" style="fill:none;stroke:#000000;stroke-dasharray:1.000000,3.000000;stroke-dashoffset:0.0;stroke-linecap:butt;stroke-width:0.5;"/>
     </g>
     <g id="line2d_44">
      <g>
       <use style="stroke:#000000;stroke-linecap:butt;stroke-width:0.5;" x="72.0" xlink:href="#me8a85f7bf6" y="285.12"/>
      </g>
     </g>
     <g id="line2d_45">
      <g>
       <use style="stroke:#000000;stroke-linecap:butt;stroke-width:0.5;" x="518.4" xlink:href="#m1a32005dea" y="285.12"/>
      </g>
     </g>
     <g id="text_14">
      <!-- 0.015 -->
      <g transform="translate(35.485625 289.4878125)scale(0.12 -0.12)">
       <use xlink:href="#BitstreamVeraSans-Roman-30"/>
       <use x="63.623046875" xlink:href="#BitstreamVeraSans-Roman-2e"/>
       <use x="95.41015625" xlink:href="#BitstreamVeraSans-Roman-30"/>
       <use x="159.033203125" xlink:href="#BitstreamVeraSans-Roman-31"/>
       <use x="222.65625" xlink:href="#BitstreamVeraSans-Roman-35"/>
      </g>
     </g>
    </g>
    <g id="ytick_5">
     <g id="line2d_46">
      <path clip-path="url(#p7ff5b81e1d)" d="
M72 250.56
L518.4 250.56" style="fill:none;stroke:#000000;stroke-dasharray:1.000000,3.000000;stroke-dashoffset:0.0;stroke-linecap:butt;stroke-width:0.5;"/>
     </g>
     <g id="line2d_47">
      <g>
       <use style="stroke:#000000;stroke-linecap:butt;stroke-width:0.5;" x="72.0" xlink:href="#me8a85f7bf6" y="250.56"/>
      </g>
     </g>
     <g id="line2d_48">
      <g>
       <use style="stroke:#000000;stroke-linecap:butt;stroke-width:0.5;" x="518.4" xlink:href="#m1a32005dea" y="250.56"/>
      </g>
     </g>
     <g id="text_15">
      <!-- 0.020 -->
      <g transform="translate(35.234375 254.9278125)scale(0.12 -0.12)">
       <use xlink:href="#BitstreamVeraSans-Roman-30"/>
       <use x="63.623046875" xlink:href="#BitstreamVeraSans-Roman-2e"/>
       <use x="95.41015625" xlink:href="#BitstreamVeraSans-Roman-30"/>
       <use x="159.033203125" xlink:href="#BitstreamVeraSans-Roman-32"/>
       <use x="222.65625" xlink:href="#BitstreamVeraSans-Roman-30"/>
      </g>
     </g>
    </g>
    <g id="ytick_6">
     <g id="line2d_49">
      <path clip-path="url(#p7ff5b81e1d)" d="
M72 216
L518.4 216" style="fill:none;stroke:#000000;stroke-dasharray:1.000000,3.000000;stroke-dashoffset:0.0;stroke-linecap:butt;stroke-width:0.5;"/>
     </g>
     <g id="line2d_50">
      <g>
       <use style="stroke:#000000;stroke-linecap:butt;stroke-width:0.5;" x="72.0" xlink:href="#me8a85f7bf6" y="216.0"/>
      </g>
     </g>
     <g id="line2d_51">
      <g>
       <use style="stroke:#000000;stroke-linecap:butt;stroke-width:0.5;" x="518.4" xlink:href="#m1a32005dea" y="216.0"/>
      </g>
     </g>
     <g id="text_16">
      <!-- 0.025 -->
      <g transform="translate(35.485625 220.3678125)scale(0.12 -0.12)">
       <use xlink:href="#BitstreamVeraSans-Roman-30"/>
       <use x="63.623046875" xlink:href="#BitstreamVeraSans-Roman-2e"/>
       <use x="95.41015625" xlink:href="#BitstreamVeraSans-Roman-30"/>
       <use x="159.033203125" xlink:href="#BitstreamVeraSans-Roman-32"/>
       <use x="222.65625" xlink:href="#BitstreamVeraSans-Roman-35"/>
      </g>
     </g>
    </g>
    <g id="ytick_7">
     <g id="line2d_52">
      <path clip-path="url(#p7ff5b81e1d)" d="
M72 181.44
L518.4 181.44" style="fill:none;stroke:#000000;stroke-dasharray:1.000000,3.000000;stroke-dashoffset:0.0;stroke-linecap:butt;stroke-width:0.5;"/>
     </g>
     <g id="line2d_53">
      <g>
       <use style="stroke:#000000;stroke-linecap:butt;stroke-width:0.5;" x="72.0" xlink:href="#me8a85f7bf6" y="181.44"/>
      </g>
     </g>
     <g id="line2d_54">
      <g>
       <use style="stroke:#000000;stroke-linecap:butt;stroke-width:0.5;" x="518.4" xlink:href="#m1a32005dea" y="181.44"/>
      </g>
     </g>
     <g id="text_17">
      <!-- 0.030 -->
      <g transform="translate(35.234375 185.8078125)scale(0.12 -0.12)">
       <use xlink:href="#BitstreamVeraSans-Roman-30"/>
       <use x="63.623046875" xlink:href="#BitstreamVeraSans-Roman-2e"/>
       <use x="95.41015625" xlink:href="#BitstreamVeraSans-Roman-30"/>
       <use x="159.033203125" xlink:href="#BitstreamVeraSans-Roman-33"/>
       <use x="222.65625" xlink:href="#BitstreamVeraSans-Roman-30"/>
      </g>
     </g>
    </g>
    <g id="ytick_8">
     <g id="line2d_55">
      <path clip-path="url(#p7ff5b81e1d)" d="
M72 146.88
L518.4 146.88" style="fill:none;stroke:#000000;stroke-dasharray:1.000000,3.000000;stroke-dashoffset:0.0;stroke-linecap:butt;stroke-width:0.5;"/>
     </g>
     <g id="line2d_56">
      <g>
       <use style="stroke:#000000;stroke-linecap:butt;stroke-width:0.5;" x="72.0" xlink:href="#me8a85f7bf6" y="146.88"/>
      </g>
     </g>
     <g id="line2d_57">
      <g>
       <use style="stroke:#000000;stroke-linecap:butt;stroke-width:0.5;" x="518.4" xlink:href="#m1a32005dea" y="146.88"/>
      </g>
     </g>
     <g id="text_18">
      <!-- 0.035 -->
      <g transform="translate(35.485625 151.2478125)scale(0.12 -0.12)">
       <use xlink:href="#BitstreamVeraSans-Roman-30"/>
       <use x="63.623046875" xlink:href="#BitstreamVeraSans-Roman-2e"/>
       <use x="95.41015625" xlink:href="#BitstreamVeraSans-Roman-30"/>
       <use x="159.033203125" xlink:href="#BitstreamVeraSans-Roman-33"/>
       <use x="222.65625" xlink:href="#BitstreamVeraSans-Roman-35"/>
      </g>
     </g>
    </g>
    <g id="ytick_9">
     <g id="line2d_58">
      <path clip-path="url(#p7ff5b81e1d)" d="
M72 112.32
L518.4 112.32" style="fill:none;stroke:#000000;stroke-dasharray:1.000000,3.000000;stroke-dashoffset:0.0;stroke-linecap:butt;stroke-width:0.5;"/>
     </g>
     <g id="line2d_59">
      <g>
       <use style="stroke:#000000;stroke-linecap:butt;stroke-width:0.5;" x="72.0" xlink:href="#me8a85f7bf6" y="112.32"/>
      </g>
     </g>
     <g id="line2d_60">
      <g>
       <use style="stroke:#000000;stroke-linecap:butt;stroke-width:0.5;" x="518.4" xlink:href="#m1a32005dea" y="112.32"/>
      </g>
     </g>
     <g id="text_19">
      <!-- 0.040 -->
      <g transform="translate(35.234375 116.6878125)scale(0.12 -0.12)">
       <use xlink:href="#BitstreamVeraSans-Roman-30"/>
       <use x="63.623046875" xlink:href="#BitstreamVeraSans-Roman-2e"/>
       <use x="95.41015625" xlink:href="#BitstreamVeraSans-Roman-30"/>
       <use x="159.033203125" xlink:href="#BitstreamVeraSans-Roman-34"/>
       <use x="222.65625" xlink:href="#BitstreamVeraSans-Roman-30"/>
      </g>
     </g>
    </g>
    <g id="ytick_10">
     <g id="line2d_61">
      <path clip-path="url(#p7ff5b81e1d)" d="
M72 77.76
L518.4 77.76" style="fill:none;stroke:#000000;stroke-dasharray:1.000000,3.000000;stroke-dashoffset:0.0;stroke-linecap:butt;stroke-width:0.5;"/>
     </g>
     <g id="line2d_62">
      <g>
       <use style="stroke:#000000;stroke-linecap:butt;stroke-width:0.5;" x="72.0" xlink:href="#me8a85f7bf6" y="77.76"/>
      </g>
     </g>
     <g id="line2d_63">
      <g>
       <use style="stroke:#000000;stroke-linecap:butt;stroke-width:0.5;" x="518.4" xlink:href="#m1a32005dea" y="77.76"/>
      </g>
     </g>
     <g id="text_20">
      <!-- 0.045 -->
      <g transform="translate(35.485625 82.1278125)scale(0.12 -0.12)">
       <use xlink:href="#BitstreamVeraSans-Roman-30"/>
       <use x="63.623046875" xlink:href="#BitstreamVeraSans-Roman-2e"/>
       <use x="95.41015625" xlink:href="#BitstreamVeraSans-Roman-30"/>
       <use x="159.033203125" xlink:href="#BitstreamVeraSans-Roman-34"/>
       <use x="222.65625" xlink:href="#BitstreamVeraSans-Roman-35"/>
      </g>
     </g>
    </g>
    <g id="text_21">
     <!-- Sec/file -->
     <defs>
      <path d="
M9.42188 75.9844
L18.4062 75.9844
L18.4062 0
L9.42188 0
z
" id="BitstreamVeraSans-Roman-6c"/>
      <path d="
M53.5156 70.5156
L53.5156 60.8906
Q47.9062 63.5781 42.9219 64.8906
Q37.9375 66.2188 33.2969 66.2188
Q25.25 66.2188 20.875 63.0938
Q16.5 59.9688 16.5 54.2031
Q16.5 49.3594 19.4062 46.8906
Q22.3125 44.4375 30.4219 42.9219
L36.375 41.7031
Q47.4062 39.5938 52.6562 34.2969
Q57.9062 29 57.9062 20.125
Q57.9062 9.51562 50.7969 4.04688
Q43.7031 -1.42188 29.9844 -1.42188
Q24.8125 -1.42188 18.9688 -0.25
Q13.1406 0.921875 6.89062 3.21875
L6.89062 13.375
Q12.8906 10.0156 18.6562 8.29688
Q24.4219 6.59375 29.9844 6.59375
Q38.4219 6.59375 43.0156 9.90625
Q47.6094 13.2344 47.6094 19.3906
Q47.6094 24.75 44.3125 27.7812
Q41.0156 30.8125 33.5 32.3281
L27.4844 33.5
Q16.4531 35.6875 11.5156 40.375
Q6.59375 45.0625 6.59375 53.4219
Q6.59375 63.0938 13.4062 68.6562
Q20.2188 74.2188 32.1719 74.2188
Q37.3125 74.2188 42.625 73.2812
Q47.9531 72.3594 53.5156 70.5156" id="BitstreamVeraSans-Roman-53"/>
      <path d="
M9.42188 54.6875
L18.4062 54.6875
L18.4062 0
L9.42188 0
z

M9.42188 75.9844
L18.4062 75.9844
L18.4062 64.5938
L9.42188 64.5938
z
" id="BitstreamVeraSans-Roman-69"/>
      <path d="
M25.3906 72.9062
L33.6875 72.9062
L8.29688 -9.28125
L0 -9.28125
z
" id="BitstreamVeraSans-Roman-2f"/>
      <path d="
M56.2031 29.5938
L56.2031 25.2031
L14.8906 25.2031
Q15.4844 15.9219 20.4844 11.0625
Q25.4844 6.20312 34.4219 6.20312
Q39.5938 6.20312 44.4531 7.46875
Q49.3125 8.73438 54.1094 11.2812
L54.1094 2.78125
Q49.2656 0.734375 44.1875 -0.34375
Q39.1094 -1.42188 33.8906 -1.42188
Q20.7969 -1.42188 13.1562 6.1875
Q5.51562 13.8125 5.51562 26.8125
Q5.51562 40.2344 12.7656 48.1094
Q20.0156 56 32.3281 56
Q43.3594 56 49.7812 48.8906
Q56.2031 41.7969 56.2031 29.5938
M47.2188 32.2344
Q47.125 39.5938 43.0938 43.9844
Q39.0625 48.3906 32.4219 48.3906
Q24.9062 48.3906 20.3906 44.1406
Q15.875 39.8906 15.1875 32.1719
z
" id="BitstreamVeraSans-Roman-65"/>
      <path d="
M37.1094 75.9844
L37.1094 68.5
L28.5156 68.5
Q23.6875 68.5 21.7969 66.5469
Q19.9219 64.5938 19.9219 59.5156
L19.9219 54.6875
L34.7188 54.6875
L34.7188 47.7031
L19.9219 47.7031
L19.9219 0
L10.8906 0
L10.8906 47.7031
L2.29688 47.7031
L2.29688 54.6875
L10.8906 54.6875
L10.8906 58.5
Q10.8906 67.625 15.1406 71.7969
Q19.3906 75.9844 28.6094 75.9844
z
" id="BitstreamVeraSans-Roman-66"/>
      <path d="
M48.7812 52.5938
L48.7812 44.1875
Q44.9688 46.2969 41.1406 47.3438
Q37.3125 48.3906 33.4062 48.3906
Q24.6562 48.3906 19.8125 42.8438
Q14.9844 37.3125 14.9844 27.2969
Q14.9844 17.2812 19.8125 11.7344
Q24.6562 6.20312 33.4062 6.20312
Q37.3125 6.20312 41.1406 7.25
Q44.9688 8.29688 48.7812 10.4062
L48.7812 2.09375
Q45.0156 0.34375 40.9844 -0.53125
Q36.9688 -1.42188 32.4219 -1.42188
Q20.0625 -1.42188 12.7812 6.34375
Q5.51562 14.1094 5.51562 27.2969
Q5.51562 40.6719 12.8594 48.3281
Q20.2188 56 33.0156 56
Q37.1562 56 41.1094 55.1406
Q45.0625 54.2969 48.7812 52.5938" id="BitstreamVeraSans-Roman-63"/>
     </defs>
     <g transform="translate(30.234375 236.13)rotate(-90.0)scale(0.12 -0.12)">
      <use xlink:href="#BitstreamVeraSans-Roman-53"/>
      <use x="63.4765625" xlink:href="#BitstreamVeraSans-Roman-65"/>
      <use x="125.0" xlink:href="#BitstreamVeraSans-Roman-63"/>
      <use x="179.98046875" xlink:href="#BitstreamVeraSans-Roman-2f"/>
      <use x="213.671875" xlink:href="#BitstreamVeraSans-Roman-66"/>
      <use x="248.876953125" xlink:href="#BitstreamVeraSans-Roman-69"/>
      <use x="276.66015625" xlink:href="#BitstreamVeraSans-Roman-6c"/>
      <use x="304.443359375" xlink:href="#BitstreamVeraSans-Roman-65"/>
     </g>
    </g>
   </g>
   <g id="patch_3">
    <path d="
M72 43.2
L518.4 43.2" style="fill:none;stroke:#000000;"/>
   </g>
   <g id="patch_4">
    <path d="
M518.4 388.8
L518.4 43.2" style="fill:none;stroke:#000000;"/>
   </g>
   <g id="patch_5">
    <path d="
M72 388.8
L518.4 388.8" style="fill:none;stroke:#000000;"/>
   </g>
   <g id="patch_6">
    <path d="
M72 388.8
L72 43.2" style="fill:none;stroke:#000000;"/>
   </g>
   <g id="text_22">
    <!-- Seq -->
    <defs>
     <path d="
M14.7969 27.2969
Q14.7969 17.3906 18.875 11.75
Q22.9531 6.10938 30.0781 6.10938
Q37.2031 6.10938 41.2969 11.75
Q45.4062 17.3906 45.4062 27.2969
Q45.4062 37.2031 41.2969 42.8438
Q37.2031 48.4844 30.0781 48.4844
Q22.9531 48.4844 18.875 42.8438
Q14.7969 37.2031 14.7969 27.2969
M45.4062 8.20312
Q42.5781 3.32812 38.25 0.953125
Q33.9375 -1.42188 27.875 -1.42188
Q17.9688 -1.42188 11.7344 6.48438
Q5.51562 14.4062 5.51562 27.2969
Q5.51562 40.1875 11.7344 48.0938
Q17.9688 56 27.875 56
Q33.9375 56 38.25 53.625
Q42.5781 51.2656 45.4062 46.3906
L45.4062 54.6875
L54.3906 54.6875
L54.3906 -20.7969
L45.4062 -20.7969
z
" id="BitstreamVeraSans-Roman-71"/>
    </defs>
    <g transform="translate(282.7575 38.2)scale(0.144 -0.144)">
     <use xlink:href="#BitstreamVeraSans-Roman-53"/>
     <use x="63.4765625" xlink:href="#BitstreamVeraSans-Roman-65"/>
     <use x="125.0" xlink:href="#BitstreamVeraSans-Roman-71"/>
    </g>
   </g>
   <g id="legend_1">
    <g id="patch_7">
     <path d="
M429.055 115.339
L511.2 115.339
L511.2 50.4
L429.055 50.4
L429.055 115.339
z
" style="fill:#ffffff;stroke:#000000;"/>
    </g>
    <g id="line2d_64">
     <path d="
M439.135 62.0617
L459.295 62.0617" style="fill:none;stroke:#ff0000;"/>
    </g>
    <g id="line2d_65"/>
    <g id="text_23">
     <!-- LRU -->
     <defs>
      <path d="
M44.3906 34.1875
Q47.5625 33.1094 50.5625 29.5938
Q53.5625 26.0781 56.5938 19.9219
L66.6094 0
L56 0
L46.6875 18.7031
Q43.0625 26.0312 39.6719 28.4219
Q36.2812 30.8125 30.4219 30.8125
L19.6719 30.8125
L19.6719 0
L9.8125 0
L9.8125 72.9062
L32.0781 72.9062
Q44.5781 72.9062 50.7344 67.6719
Q56.8906 62.4531 56.8906 51.9062
Q56.8906 45.0156 53.6875 40.4688
Q50.4844 35.9375 44.3906 34.1875
M19.6719 64.7969
L19.6719 38.9219
L32.0781 38.9219
Q39.2031 38.9219 42.8438 42.2188
Q46.4844 45.5156 46.4844 51.9062
Q46.4844 58.2969 42.8438 61.5469
Q39.2031 64.7969 32.0781 64.7969
z
" id="BitstreamVeraSans-Roman-52"/>
      <path d="
M9.8125 72.9062
L19.6719 72.9062
L19.6719 8.29688
L55.1719 8.29688
L55.1719 0
L9.8125 0
z
" id="BitstreamVeraSans-Roman-4c"/>
      <path d="
M8.6875 72.9062
L18.6094 72.9062
L18.6094 28.6094
Q18.6094 16.8906 22.8438 11.7344
Q27.0938 6.59375 36.625 6.59375
Q46.0938 6.59375 50.3438 11.7344
Q54.5938 16.8906 54.5938 28.6094
L54.5938 72.9062
L64.5 72.9062
L64.5 27.3906
Q64.5 13.1406 57.4375 5.85938
Q50.3906 -1.42188 36.625 -1.42188
Q22.7969 -1.42188 15.7344 5.85938
Q8.6875 13.1406 8.6875 27.3906
z
" id="BitstreamVeraSans-Roman-55"/>
     </defs>
     <g transform="translate(475.13475 67.10175)scale(0.144 -0.144)">
      <use xlink:href="#BitstreamVeraSans-Roman-4c"/>
      <use x="55.712890625" xlink:href="#BitstreamVeraSans-Roman-52"/>
      <use x="125.1953125" xlink:href="#BitstreamVeraSans-Roman-55"/>
     </g>
    </g>
    <g id="line2d_66">
     <path d="
M439.135 83.1983
L459.295 83.1983" style="fill:none;opacity:0.7;stroke:#008000;"/>
    </g>
    <g id="line2d_67"/>
    <g id="text_24">
     <!-- MRU -->
     <defs>
      <path d="
M9.8125 72.9062
L24.5156 72.9062
L43.1094 23.2969
L61.8125 72.9062
L76.5156 72.9062
L76.5156 0
L66.8906 0
L66.8906 64.0156
L48.0938 14.0156
L38.1875 14.0156
L19.3906 64.0156
L19.3906 0
L9.8125 0
z
" id="BitstreamVeraSans-Roman-4d"/>
     </defs>
     <g transform="translate(475.13475 88.23825)scale(0.144 -0.144)">
      <use xlink:href="#BitstreamVeraSans-Roman-4d"/>
      <use x="86.279296875" xlink:href="#BitstreamVeraSans-Roman-52"/>
      <use x="155.76171875" xlink:href="#BitstreamVeraSans-Roman-55"/>
     </g>
    </g>
    <g id="line2d_68">
     <path d="
M439.135 104.335
L459.295 104.335" style="fill:none;opacity:0.5;stroke:#0000ff;"/>
    </g>
    <g id="line2d_69"/>
    <g id="text_25">
     <!-- FIFO -->
     <defs>
      <path d="
M9.8125 72.9062
L51.7031 72.9062
L51.7031 64.5938
L19.6719 64.5938
L19.6719 43.1094
L48.5781 43.1094
L48.5781 34.8125
L19.6719 34.8125
L19.6719 0
L9.8125 0
z
" id="BitstreamVeraSans-Roman-46"/>
      <path d="
M9.8125 72.9062
L19.6719 72.9062
L19.6719 0
L9.8125 0
z
" id="BitstreamVeraSans-Roman-49"/>
      <path d="
M39.4062 66.2188
Q28.6562 66.2188 22.3281 58.2031
Q16.0156 50.2031 16.0156 36.375
Q16.0156 22.6094 22.3281 14.5938
Q28.6562 6.59375 39.4062 6.59375
Q50.1406 6.59375 56.4219 14.5938
Q62.7031 22.6094 62.7031 36.375
Q62.7031 50.2031 56.4219 58.2031
Q50.1406 66.2188 39.4062 66.2188
M39.4062 74.2188
Q54.7344 74.2188 63.9062 63.9375
Q73.0938 53.6562 73.0938 36.375
Q73.0938 19.1406 63.9062 8.85938
Q54.7344 -1.42188 39.4062 -1.42188
Q24.0312 -1.42188 14.8125 8.82812
Q5.60938 19.0938 5.60938 36.375
Q5.60938 53.6562 14.8125 63.9375
Q24.0312 74.2188 39.4062 74.2188" id="BitstreamVeraSans-Roman-4f"/>
     </defs>
     <g transform="translate(475.13475 109.37475)scale(0.144 -0.144)">
      <use xlink:href="#BitstreamVeraSans-Roman-46"/>
      <use x="57.51953125" xlink:href="#BitstreamVeraSans-Roman-49"/>
      <use x="87.01171875" xlink:href="#BitstreamVeraSans-Roman-46"/>
      <use x="144.53125" xlink:href="#BitstreamVeraSans-Roman-4f"/>
     </g>
    </g>
   </g>
  </g>
 </g>
 <defs>
  <clipPath id="p7ff5b81e1d">
   <rect height="345.6" width="446.4" x="72.0" y="43.2"/>
  </clipPath>
 </defs>
</svg>
