<?xml version="1.0" encoding="utf-8" standalone="no"?>
<!DOCTYPE svg PUBLIC "-//W3C//DTD SVG 1.1//EN"
  "http://www.w3.org/Graphics/SVG/1.1/DTD/svg11.dtd">
<!-- Created with matplotlib (http://matplotlib.sourceforge.net/) -->
<svg height="432pt" version="1.1" viewBox="0 0 576 432" width="576pt" xmlns="http://www.w3.org/2000/svg" xmlns:xlink="http://www.w3.org/1999/xlink">
 <defs>
  <style type="text/css">
*{stroke-linecap:square;stroke-linejoin:round;}
  </style>
 </defs>
 <g id="figure_1">
  <g id="patch_1">
   <path d="
M0 432
L576 432
L576 0
L0 0
z
" style="fill:#ffffff;"/>
  </g>
  <g id="axes_1">
   <g id="patch_2">
    <path d="
M72 388.8
L518.4 388.8
L518.4 43.2
L72 43.2
z
" style="fill:#ffffff;"/>
   </g>
   <g id="line2d_1">
    <path clip-path="url(#p7ff5b81e1d)" d="
M72 255.711
L72.4464 260.042
L72.8928 258.391
L73.3392 251.722
L73.7856 250.946
L74.232 259.867
L74.6784 258.502
L75.5712 254.079
L76.0176 261.804
L76.464 256.03
L76.9104 256.256
L77.3568 256.883
L77.8032 258.57
L78.2496 251.739
L78.696 256.042
L79.1424 257.286
L79.5888 260.456
L80.4816 252.67
L80.928 257.073
L81.3744 223.51
L81.8208 256.957
L82.2672 253.361
L82.7136 259.413
L83.16 255.518
L83.6064 254.664
L84.0528 256.402
L84.4992 261.283
L84.9456 256.712
L85.392 255.318
L86.2848 260.647
L86.7312 252.949
L87.1776 253.749
L87.624 258.849
L88.0704 258.015
L88.5168 257.671
L88.9632 255.463
L89.4096 231.994
L89.856 273.88
L90.3024 259.532
L90.7488 256.277
L91.1952 254.53
L91.6416 257.848
L92.088 257.527
L92.5344 253.757
L92.9808 254.268
L93.4272 258.334
L93.8736 256.414
L94.32 256.814
L94.7664 253.427
L95.2128 259.805
L95.6592 255.854
L96.1056 255.27
L96.552 260.389
L96.9984 256.103
L97.4448 256.779
L97.8912 254.722
L98.3376 260.105
L98.784 256.636
L99.2304 256.772
L99.6768 255.018
L100.123 258.082
L100.57 255.143
L101.016 254.387
L101.462 258.364
L101.909 260.365
L102.355 256.888
L102.802 254.507
L103.248 255.149
L103.694 261.295
L104.141 255.896
L104.587 256.83
L105.034 248.875
L105.48 259.155
L106.373 256.226
L106.819 256.602
L107.266 258.156
L107.712 255.006
L108.158 254.933
L108.605 258.498
L109.051 259.093
L109.944 252.565
L110.39 348.245
L110.837 256.124
L111.283 256.775
L111.73 255.882
L112.176 258.869
L112.622 213.12
L113.069 291.83
L113.515 253.788
L113.962 259.482
L114.408 257.089
L114.854 255.947
L115.301 254.179
L115.747 259.094
L116.194 255.96
L116.64 256.428
L117.086 256.396
L117.533 212.021
L117.979 253.238
L118.426 255.167
L118.872 258.161
L119.318 255.887
L119.765 254.847
L120.211 254.766
L120.658 258.6
L121.104 260.204
L121.55 254.699
L121.997 254.879
L122.443 259.077
L122.89 254.463
L123.336 256.489
L123.782 255.497
L124.229 260.647
L124.675 252.116
L125.568 258.425
L126.014 259.14
L126.461 255.585
L126.907 253.348
L127.354 258.555
L127.8 259.425
L128.246 257.169
L128.693 252.16
L129.139 259.456
L129.586 256.849
L130.032 256.009
L130.478 257.179
L130.925 259.159
L131.371 256.709
L131.818 246.895
L132.264 255.211
L132.71 256.49
L133.157 260.164
L133.603 255.225
L134.05 254.329
L134.496 258.384
L134.942 257.041
L135.389 255.233
L135.835 252.917
L136.282 254.176
L136.728 261.695
L137.174 254.341
L137.621 255.821
L138.067 256.714
L138.514 259.235
L138.96 255.08
L139.406 252.593
L139.853 258.567
L140.299 255.28
L140.746 254.5
L141.192 258.17
L141.638 258.991
L142.085 257.533
L142.531 255.273
L142.978 260.648
L143.424 253.938
L143.87 257.136
L144.317 253.811
L144.763 261.335
L145.21 254.688
L145.656 256.452
L146.102 257.548
L146.549 253.858
L146.995 259.494
L147.442 255.978
L147.888 255.967
L148.334 257.699
L148.781 258.357
L149.227 255.335
L149.674 254.987
L150.12 259.195
L150.566 256.49
L151.013 256.346
L151.459 255.432
L151.906 259.549
L152.352 255.167
L152.798 256.388
L153.245 257.283
L153.691 161.608
L154.138 305.799
L154.584 254.77
L155.03 257.723
L155.477 258.994
L155.923 256.249
L156.37 255.32
L156.816 260.204
L157.262 258.363
L157.709 206.286
L158.155 297.582
L158.602 257.181
L159.048 258.257
L159.494 254.438
L159.941 255.411
L160.834 259.817
L161.28 253.023
L161.726 257.859
L162.173 259.31
L162.619 253.863
L163.066 253.811
L163.512 258.619
L163.958 259.883
L164.405 256.963
L164.851 252.709
L165.298 259.091
L165.744 259.169
L166.19 255.474
L166.637 255.44
L167.083 259.584
L167.53 255.836
L167.976 257.379
L168.422 247.566
L168.869 258.435
L169.762 254.999
L170.208 258.626
L170.654 258.235
L171.101 255.781
L171.547 255.344
L171.994 256.893
L172.44 257.116
L172.886 254.041
L173.333 256.433
L173.779 260.462
L174.226 255.449
L174.672 255.352
L175.565 257.285
L176.011 249.938
L176.458 255.589
L176.904 256.523
L177.35 259.671
L177.797 255.36
L178.243 254.72
L178.69 258.745
L179.136 257.882
L179.582 255.204
L180.029 254.556
L180.475 259.663
L180.922 254.516
L181.368 255.205
L181.814 256.205
L182.261 256.158
L182.707 257.973
L183.154 210.356
L183.6 254.87
L184.046 260.159
L184.493 259.489
L185.386 252.92
L185.832 260.712
L186.278 254.674
L186.725 257.024
L187.171 256.645
L187.618 259.867
L188.064 256.455
L188.957 253.806
L189.403 259.147
L189.85 257.9
L190.296 255.996
L190.742 347.932
L191.189 256.603
L191.635 254.928
L192.082 255.572
L192.528 257.008
L192.974 259.418
L193.421 254.679
L193.867 255.136
L194.314 258.993
L194.76 257.004
L195.206 257.352
L195.653 255.049
L196.099 259.698
L196.992 255.288
L197.438 257.924
L197.885 251.331
L198.331 260.179
L198.778 258.242
L199.224 254.349
L199.67 255.541
L200.117 260.754
L200.563 256.081
L201.01 255.757
L201.456 256.524
L201.902 259.21
L202.349 255.714
L203.242 253.169
L203.688 260.611
L204.134 251.698
L204.581 252.196
L205.474 256.84
L205.92 252.554
L206.366 253.197
L206.813 257.206
L207.259 252.537
L207.706 249.317
L208.152 256.929
L208.598 257.748
L209.045 252.419
L209.491 253.355
L209.938 256.49
L210.384 252.642
L210.83 254.955
L211.277 253.459
L211.723 258.331
L212.17 253.443
L212.616 264.296
L213.062 258.478
L213.509 254.56
L213.955 255.032
L214.402 253.267
L214.848 258.982
L215.294 253.102
L215.741 250.556
L216.187 256.551
L216.634 257.629
L217.08 253.529
L217.526 252.033
L217.973 257.585
L218.419 253.735
L218.866 251.689
L219.312 248.488
L219.758 258.976
L220.205 252.725
L220.651 251.746
L221.098 254.267
L221.544 257.873
L221.99 252.775
L222.437 251.184
L222.883 256.685
L223.776 255.265
L224.222 251.556
L224.669 257.359
L225.115 251.281
L225.562 251.767
L226.008 254.989
L226.454 247.988
L226.901 254.326
L227.347 253.736
L227.794 260.317
L228.24 250.705
L228.686 250.776
L229.133 251.782
L229.579 258.919
L230.026 252.088
L230.472 252.097
L230.918 258.616
L231.365 254.118
L231.811 252.651
L232.258 252.966
L232.704 259.738
L233.15 249.305
L233.597 252.682
L234.043 250.235
L234.49 258.968
L234.936 253.888
L235.382 253.931
L235.829 254.334
L236.275 255.63
L237.168 251.994
L237.614 256.496
L238.061 255.248
L238.507 252.41
L238.954 247.774
L239.4 260.091
L239.846 252.572
L240.293 249.422
L240.739 257.323
L241.186 256.404
L241.632 252.52
L242.078 252.387
L242.525 259.482
L242.971 254.317
L243.418 252.656
L244.31 257.139
L244.757 253.042
L245.203 250.464
L245.65 257.256
L246.096 255.165
L246.542 253.774
L246.989 252.873
L247.435 258.168
L247.882 251.388
L248.328 252.874
L248.774 257.963
L249.221 253.498
L249.667 251.919
L250.114 253.126
L250.56 256.915
L251.006 250.587
L251.453 251.47
L251.899 257.529
L252.346 257.254
L252.792 254.656
L253.238 246.789
L253.685 255.006
L254.131 258.942
L254.578 251.601
L255.024 251.303
L255.47 255.095
L256.363 249.71
L256.81 255.356
L257.256 257.289
L258.149 252.04
L258.595 256.682
L259.042 255.49
L259.488 251.97
L260.381 257.458
L260.827 251.392
L261.274 252.965
L261.72 253.557
L262.166 251.686
L262.613 252.22
L263.059 254.456
L263.506 261.267
L263.952 250.782
L264.398 251.316
L264.845 255.396
L265.291 255.732
L265.738 252.003
L266.184 252.507
L266.63 259.201
L267.077 253.917
L267.523 253.905
L267.97 254.526
L268.416 258.835
L268.862 247.522
L269.309 249.937
L269.755 256.643
L270.202 252.535
L270.648 253.156
L271.094 252.276
L271.541 259.416
L271.987 251.491
L272.434 252.543
L272.88 255.959
L273.326 256.877
L273.773 254.832
L274.219 253.977
L274.666 256.335
L275.112 252.936
L275.558 255.318
L276.005 250.256
L276.451 252.934
L276.898 253.501
L277.344 253.668
L277.79 259.109
L278.237 251.958
L278.683 252.39
L279.13 253.216
L279.576 258.51
L280.022 189.232
L280.469 263.235
L280.915 253.897
L281.362 259.138
L281.808 252.186
L282.701 254.838
L283.147 253.539
L283.594 250.716
L284.04 251.682
L284.486 255.054
L284.933 257.539
L285.379 253.845
L285.826 252.07
L286.272 256.978
L286.718 256.01
L287.165 252.037
L287.611 252.392
L288.058 258.763
L288.504 252.272
L288.95 253.517
L289.843 258.057
L290.29 248.85
L290.736 251.712
L291.182 258.915
L291.629 253.086
L292.075 249.422
L292.522 256.642
L292.968 256.404
L293.414 252.388
L293.861 251.013
L294.307 257.665
L294.754 255.752
L295.2 252.205
L295.646 250.923
L296.093 258.99
L296.539 251.963
L296.986 253.031
L297.432 252.632
L297.878 252.798
L298.325 254.731
L298.771 255.336
L299.218 258.617
L299.664 251.21
L300.11 250.927
L301.003 257.408
L301.896 252.766
L302.342 258.842
L302.789 252.985
L303.235 252.995
L303.682 259.759
L304.128 252.34
L304.574 235.567
L305.021 251.366
L305.467 253.598
L305.914 256.932
L306.36 252.122
L306.806 253.488
L307.253 255.838
L307.699 257.438
L308.146 251.723
L308.592 251.189
L309.038 258.055
L309.485 255.667
L309.931 252.104
L310.378 251.592
L310.824 258.846
L311.27 254.021
L311.717 245.44
L312.163 256.053
L312.61 253.32
L313.056 255.138
L313.502 254.866
L313.949 259.405
L314.842 248.338
L315.288 256.41
L315.734 257.989
L316.181 253.628
L316.627 252.986
L317.074 256.629
L317.52 253.836
L317.966 256.838
L318.413 253.024
L319.306 254.101
L319.752 251.099
L320.198 258.558
L320.645 252.861
L321.091 254.199
L321.538 255.013
L321.984 257.428
L322.877 248.807
L323.323 256.385
L323.77 257.141
L324.216 253.961
L324.662 251.902
L325.109 258.895
L326.002 249.704
L326.448 256.882
L326.894 255.582
L327.341 254.768
L327.787 252.182
L328.234 258.359
L328.68 253.189
L329.573 252.414
L330.019 257.442
L330.466 253.654
L330.912 254.767
L331.358 252.647
L331.805 257.764
L332.251 253.708
L332.698 252.944
L333.144 249.109
L334.037 254.58
L334.483 254.208
L334.93 258.119
L335.376 252.124
L335.822 251.964
L336.269 256.623
L337.162 254.406
L337.608 251.763
L338.054 257.925
L338.501 252.148
L338.947 254.132
L339.394 252.968
L339.84 258.172
L340.286 244.583
L341.179 258.554
L341.626 253.449
L342.072 252.088
L342.518 254.773
L342.965 258.92
L343.411 251.926
L343.858 251.583
L344.304 257.86
L345.197 253.025
L345.643 253.327
L346.09 258.514
L346.536 254.189
L346.982 254.661
L347.429 249.869
L347.875 254.246
L348.322 254.135
L348.768 253.82
L349.214 258.122
L349.661 253.793
L350.107 254.274
L350.554 255.895
L351 256.343
L351.893 250.688
L352.339 258.488
L352.786 252.755
L353.232 255.683
L353.678 253.538
L354.125 260.143
L354.571 247.875
L355.018 251.609
L355.464 257.703
L355.91 253.49
L356.357 253.282
L356.803 251.707
L357.25 257.183
L357.696 254.027
L358.142 253.212
L358.589 252.678
L359.035 255.906
L359.482 251.106
L359.928 251.401
L360.374 252.032
L360.821 256.245
L361.267 253.216
L361.714 245.573
L362.606 256.174
L363.053 251.914
L363.499 254.85
L363.946 254.207
L364.392 251.692
L364.838 256.38
L365.285 252.529
L365.731 251.414
L366.178 254.857
L366.624 257.281
L367.07 252.445
L367.517 251.044
L367.963 255.785
L368.41 254.24
L368.856 250.215
L369.302 252.566
L369.749 250.549
L370.195 256.477
L370.642 253.49
L371.088 252.918
L371.534 251.847
L371.981 256.901
L372.427 252.101
L372.874 250.861
L373.32 255.826
L373.766 255.627
L374.213 252.377
L374.659 251.207
L375.106 257.955
L375.998 247.872
L376.445 255.178
L376.891 253.189
L377.338 253.317
L377.784 252.331
L378.23 256.716
L378.677 251.318
L379.123 251.595
L379.57 254.698
L380.016 196.172
L380.462 260.234
L380.909 251.702
L381.802 255.356
L382.248 252.155
L382.694 253.433
L383.141 253.438
L384.034 250.986
L384.48 254.974
L384.926 254.667
L385.373 253.322
L385.819 248.087
L386.266 255.391
L386.712 252.81
L387.158 254.688
L387.605 254.022
L388.051 256.619
L388.498 250.901
L389.837 256.062
L390.283 245.444
L390.73 253.506
L391.176 257.29
L391.622 252.658
L392.069 251.345
L392.515 257.357
L392.962 251.98
L393.408 252.854
L393.854 251.75
L394.301 257.377
L394.747 252.181
L395.194 248.586
L395.64 256.683
L396.533 252.513
L397.426 249.551
L397.872 250.402
L398.318 252.197
L398.765 255.194
L399.211 256.225
L399.658 251.772
L400.104 250.173
L400.55 257.226
L400.997 252.657
L401.443 249.787
L402.336 256.923
L402.782 251.69
L403.229 251.285
L403.675 254.567
L404.122 252.804
L404.568 248.114
L405.014 254.362
L405.461 256.378
L406.354 250.204
L406.8 255.42
L407.246 254.682
L407.693 249.552
L408.586 257.052
L409.032 251.893
L409.478 251.066
L409.925 255.777
L410.371 254.82
L410.818 254.472
L411.264 250.814
L411.71 256.633
L412.603 250.713
L413.05 251.633
L413.496 256.275
L413.942 251.731
L414.389 252.851
L414.835 252.531
L415.282 257.45
L415.728 253.188
L416.174 251.951
L417.067 256.292
L417.514 251.465
L417.96 251.045
L418.406 256.32
L418.853 252.348
L419.299 251.376
L419.746 256.084
L420.192 254.652
L421.085 248.506
L421.531 257.34
L421.978 250.295
L422.424 253.749
L422.87 255.242
L423.317 257.78
L423.763 251.283
L424.21 252.309
L424.656 256.887
L425.102 252.814
L425.549 252.973
L425.995 249.375
L426.442 254.798
L426.888 253.15
L427.334 250.71
L427.781 257.245
L428.227 252.252
L428.674 253.779
L429.12 251.81
L429.566 256.478
L430.013 251.968
L430.459 251.138
L430.906 255.371
L431.352 256.145
L431.798 248.901
L432.245 251.075
L432.691 251.205
L433.138 255.056
L433.584 251.9
L434.03 253.726
L434.477 256.662
L435.37 249.812
L435.816 256.94
L437.155 251.205
L437.602 255.547
L438.048 253.218
L438.494 254.091
L438.941 253.51
L439.387 255.973
L439.834 250.072
L440.28 251.913
L440.726 255.987
L441.173 251.752
L441.619 252.316
L442.066 253.998
L442.512 254.523
L442.958 253.921
L443.405 252.871
L443.851 257.254
L444.298 254.211
L444.744 253.581
L445.19 252.466
L445.637 255.825
L446.083 254.558
L446.53 250.544
L446.976 253.87
L447.422 254.758
L447.869 251.141
L448.315 253.868
L448.762 254.531
L449.208 253.943
L449.654 251.764
L450.101 255.433
L450.547 255.737
L451.44 249.945
L451.886 257.681
L452.333 251.438
L452.779 252.531
L453.226 251.446
L453.672 256.605
L454.118 251.805
L454.565 243.335
L455.011 257.412
L455.904 248.728
L456.35 256.076
L456.797 253.317
L457.243 252.169
L457.69 250.255
L458.136 256.167
L458.582 253.351
L459.475 251.804
L459.922 256.142
L460.368 255.93
L460.814 250.746
L461.261 251.823
L461.707 249.344
L462.154 245.912
L462.6 251.999
L463.046 248.967
L463.493 253.167
L463.939 253.713
L464.386 257.783
L464.832 250.973
L465.278 251.613
L465.725 255.987
L466.171 253.509
L466.618 252.679
L467.064 252.159
L467.51 257.189
L467.957 253.876
L468.403 254.441
L468.85 249.301
L469.742 256.438
L470.635 248.442
L471.082 254.829
L471.528 253.854
L471.974 253.26
L472.421 250.733
L472.867 257.683
L473.314 251.322
L473.76 252.872
L474.206 253.148
L474.653 256.951
L475.099 252.087
L475.546 250.374
L475.992 252.082
L476.438 252.002
L476.885 250.023
L477.331 255.733
L477.778 254.054
L478.224 254.101
L478.67 251.927
L479.117 254.86
L479.563 253.711
L480.01 252.214
L480.456 254.06
L480.902 255.218
L481.349 251.58
L481.795 252.274
L482.242 256.013
L482.688 254.132
L483.134 249.21
L483.581 253.56
L484.027 255.598
L484.474 250.034
L484.92 248.314
L485.366 254.646
L485.813 258.009
L486.259 251.983
L486.706 250.806
L487.152 255.767
L487.598 255.654
L488.045 255.658
L488.491 250.37
L488.938 257.799
L489.384 252.871
L489.83 251.275
L490.277 250.525
L490.723 253.222
L491.616 250.629
L492.062 255.234
L492.509 252.664
L492.955 251.187
L493.402 256.08
L493.848 256.762
L494.294 252.696
L494.741 251.778
L495.187 254.276
L495.634 252.541
L496.526 254.537
L496.973 256.045
L497.419 248.893
L497.866 246.943
L498.312 259.888
L498.758 252.631
L499.205 251.97
L499.651 254.863
L500.098 256.769
L500.544 251.232
L500.99 251.167
L501.437 255.133
L501.883 252.659
L502.33 259.525
L502.776 248.7
L503.222 258.71
L503.669 253.348
L504.115 252.832
L504.562 249.907
L505.008 251.863
L505.454 255.59
L505.901 251.475
L506.347 255.568
L506.794 252.879
L507.24 250.937
L507.686 255.497
L508.133 255.764
L508.579 254.133
L509.026 253.134
L509.472 255.654
L509.918 185.186
L510.365 278.162
L510.811 248.494
L511.258 256.81
L511.704 246.854
L512.15 247.565
L512.597 256.31
L513.043 253.553
L513.49 253.254
L513.936 250.739
L514.382 257.118
L514.829 253.134
L515.275 251.711
L515.722 254.287
L516.168 256.028
L516.614 253.07
L517.061 251.521
L517.507 256.723
L517.954 254.153
L517.954 254.153" style="fill:none;stroke:#ff0000;"/>
   </g>
   <g id="line2d_2">
    <path clip-path="url(#p7ff5b81e1d)" d="
M72 264.11
L72.4464 261.587
L72.8928 257.401
L73.3392 260.549
L73.7856 259.501
L74.6784 265.298
L75.1248 262.536
L75.5712 262.927
L76.0176 260.061
L76.464 264.211
L76.9104 261.758
L77.3568 260.751
L77.8032 261.003
L78.2496 263.575
L78.696 262.067
L79.1424 255.985
L79.5888 260.289
L80.0352 263.305
L80.4816 243.884
L80.928 258.469
L81.3744 261.817
L81.8208 258.267
L82.7136 265.734
L83.16 263.185
L83.6064 258.09
L84.0528 263.162
L84.4992 265.07
L85.392 259.104
L85.8384 263.959
L86.2848 263.544
L86.7312 261.927
L87.1776 259.327
L87.624 261.71
L88.0704 258.42
L88.5168 261.798
L88.9632 259.295
L89.4096 260.111
L89.856 264.064
L90.3024 264.442
L90.7488 259.899
L91.1952 258.71
L91.6416 263.712
L92.5344 260.175
L92.9808 261.366
L93.4272 263.954
L93.8736 262.864
L94.32 259.916
L94.7664 254.982
L95.2128 265.953
L95.6592 257.861
L96.1056 259.714
L96.552 259.187
L96.9984 262.747
L97.4448 263.113
L97.8912 259.254
L98.784 265.485
L99.2304 261.232
L99.6768 261.536
L100.123 261.168
L100.57 262.028
L101.016 264.17
L101.462 262.905
L101.909 258.703
L102.355 262.418
L102.802 262.567
L103.248 261.516
L103.694 259.089
L104.141 261.431
L104.587 260.475
L105.034 259.817
L105.48 263.725
L105.926 262.63
L106.373 260.791
L106.819 259.899
L107.266 264.168
L107.712 261.564
L108.605 258.968
L109.051 263.717
L109.498 262.959
L109.944 261.575
L110.39 265.08
L110.837 274.585
L111.283 261.743
L111.73 263.949
L112.176 259.645
L112.622 260.554
L113.069 264.305
L113.515 261.203
L113.962 259.198
L114.408 263.945
L115.301 261.936
L115.747 258.515
L116.194 263.778
L116.64 264.512
L117.086 262.43
L117.533 257.988
L117.979 262.504
L118.426 257.287
L118.872 261.61
L119.318 258.965
L119.765 260.129
L120.211 262.507
L120.658 256.665
L121.104 258.621
L121.55 259.492
L121.997 264.257
L122.443 263.509
L122.89 261.705
L123.336 260.623
L123.782 264.892
L124.229 263.433
L124.675 259.734
L125.122 258.086
L125.568 264.632
L126.014 258.083
L126.461 261.28
L126.907 261.169
L127.354 260.721
L127.8 258.643
L128.246 263.425
L128.693 261.265
L129.139 260.765
L129.586 261.718
L130.032 263.484
L130.478 259.844
L130.925 260.789
L131.371 262.014
L131.818 264.002
L132.71 259.763
L133.157 261.755
L133.603 254.04
L134.05 262.905
L134.496 263.949
L134.942 262.765
L135.389 260.71
L135.835 265.469
L136.282 261.15
L136.728 259.858
L137.174 260.308
L137.621 263.75
L138.067 260.734
L138.514 259.487
L138.96 262.043
L139.406 262.148
L139.853 263.224
L140.299 258.488
L140.746 261.588
L141.192 261.23
L141.638 263.782
L142.085 260.227
L142.531 257.87
L142.978 263.954
L143.424 264.57
L143.87 260.542
L144.317 259.949
L144.763 262.926
L145.21 263.259
L145.656 263.815
L146.102 259.826
L146.549 263.408
L146.995 265.269
L147.888 258.054
L148.334 263.082
L148.781 256.541
L149.227 261.915
L149.674 261.456
L150.12 259.1
L150.566 260.949
L151.013 264.709
L151.906 257.396
L152.352 265.73
L152.798 264.872
L153.245 260.547
L153.691 259.642
L154.138 263.585
L155.03 262.571
L155.477 261.151
L155.923 272.64
L156.37 255.253
L156.816 262.291
L157.262 262.967
L157.709 261.271
L158.155 261.046
L158.602 263.275
L159.494 259.985
L159.941 260.728
L160.387 263.798
L160.834 263.962
L161.28 260.16
L161.726 258.999
L162.173 262.475
L162.619 263.769
L163.066 261.177
L163.512 257.876
L163.958 258.504
L164.405 264.496
L164.851 261.583
L165.298 261.174
L165.744 263.383
L166.19 264.59
L166.637 259.893
L167.083 259.864
L167.976 264.605
L168.422 264.231
L168.869 258.149
L169.762 264.218
L170.208 260.453
L170.654 257.983
L171.101 262.311
L171.547 259.04
L171.994 262.074
L172.886 259.338
L173.333 259.785
L173.779 264.578
L174.226 263.857
L174.672 261.031
L175.118 259.929
L175.565 263.955
L176.011 261.751
L176.904 260.701
L177.35 265.201
L178.243 258.041
L178.69 260.006
L179.136 260.461
L179.582 262.29
L180.029 261.039
L180.475 261.771
L180.922 260.768
L181.368 266.191
L181.814 259.256
L182.261 261.79
L182.707 260.595
L183.154 264.674
L183.6 261.57
L184.046 261.175
L184.493 261.179
L184.939 265.813
L185.386 260.042
L185.832 260.341
L186.725 256.922
L187.171 262.821
L187.618 260.273
L188.064 259.447
L188.51 261.622
L188.957 265.341
L189.403 261.915
L190.296 260.333
L190.742 262.832
L191.189 262.637
L191.635 262.024
L192.082 260.436
L192.528 264.401
L192.974 260.837
L193.421 260.916
L193.867 262.463
L194.314 258.392
L194.76 261.622
L195.206 260.433
L195.653 260.856
L196.099 256.788
L196.546 263.29
L196.992 263.824
L197.438 260.475
L197.885 258.753
L198.331 263.707
L198.778 263.983
L199.224 260.711
L199.67 259.426
L200.563 268.401
L201.01 263.397
L201.456 259.953
L201.902 258.793
L202.349 261.974
L202.795 263.798
L203.242 260.301
L203.688 260.228
L204.134 264.944
L204.581 261.594
L205.027 262.671
L205.474 256.716
L205.92 263.308
L206.366 263.63
L206.813 263.344
L207.259 257.958
L207.706 265.133
L208.598 258.211
L209.045 255.464
L209.491 260.372
L209.938 263.76
L210.384 259.628
L210.83 262.843
L211.277 261.546
L211.723 263.333
L212.17 259.849
L212.616 262.278
L213.062 259.676
L213.509 262.474
L213.955 258.985
L214.402 261.717
L214.848 260.22
L215.294 264.868
L215.741 259.815
L216.187 259.657
L216.634 262.035
L217.08 261.103
L217.526 262.614
L217.973 261.134
L218.419 262.545
L218.866 256.966
L219.312 263.05
L219.758 264.19
L220.205 260.387
L220.651 260.766
L221.098 262.298
L221.544 264.808
L221.99 263.096
L222.437 259.137
L222.883 262.014
L223.33 264.059
L223.776 261.887
L224.222 258.597
L224.669 258.108
L225.115 263.421
L225.562 263.738
L226.008 260.304
L226.454 258.26
L226.901 263.212
L227.347 263.785
L228.24 258.303
L228.686 263.156
L229.133 262.697
L229.579 261.732
L230.026 258.056
L230.472 263.451
L230.918 260.949
L231.365 260.634
L232.258 255.005
L232.704 264.639
L233.15 262.396
L233.597 258.57
L234.043 260.305
L234.49 263.769
L234.936 264.201
L235.382 263.368
L235.829 258.01
L236.275 266.349
L236.722 262.395
L237.168 259.493
L237.614 259.2
L238.061 265.667
L238.507 256.441
L238.954 258.3
L239.4 259.64
L239.846 257.064
L240.293 259.903
L240.739 261.186
L241.186 259.978
L241.632 260.131
L242.078 263.272
L242.525 260.295
L242.971 261.188
L243.418 261.371
L243.864 262.808
L244.31 258.73
L244.757 258.395
L245.203 262.677
L245.65 260.225
L246.542 257.334
L246.989 261.835
L247.435 258.137
L247.882 260.981
L248.328 262.552
L249.221 258.64
L249.667 261.369
L250.114 262.266
L250.56 262.278
L251.006 259.009
L251.453 261.872
L251.899 262.858
L252.346 261.625
L252.792 256.449
L253.238 260.568
L253.685 259.372
L254.131 258.647
L254.578 258.296
L255.024 261.657
L255.47 262.063
L256.363 259.306
L256.81 258.845
L257.256 262.836
L257.702 259.993
L258.149 260.673
L258.595 253.373
L259.042 262.457
L259.488 258.583
L259.934 261.121
L260.381 258.65
L260.827 260.725
L261.274 258.662
L262.166 260.53
L263.059 261.898
L263.506 258.039
L263.952 258.056
L264.398 259.428
L264.845 262.477
L265.291 258.176
L265.738 257.733
L266.184 259.159
L266.63 263.483
L267.077 259.497
L267.523 259.921
L267.97 258.789
L268.416 260.957
L268.862 259.482
L269.309 258.583
L269.755 258.612
L270.202 257.479
L270.648 260.731
L271.094 258.964
L271.541 259.678
L271.987 260.766
L272.434 262.763
L272.88 258.589
L273.326 258.151
L273.773 262.515
L274.219 262.691
L274.666 258.326
L275.112 255.531
L275.558 260.866
L276.005 261.854
L276.451 257.563
L276.898 258.887
L277.344 262.275
L277.79 257.18
L278.237 258.172
L278.683 261.342
L279.13 257.736
L279.576 261.586
L280.022 261.172
L280.469 258.199
L280.915 257.727
L281.362 262.748
L281.808 259.276
L282.254 258.805
L282.701 258.519
L283.147 262.663
L283.594 260.169
L284.04 258.79
L284.486 259.133
L284.933 264.134
L285.379 255.37
L285.826 260.087
L286.272 259.602
L286.718 258.944
L287.165 258.657
L287.611 262.426
L288.058 261.5
L288.504 257.708
L288.95 261.409
L289.397 260.941
L289.843 260.232
L290.736 255.102
L291.182 259.95
L291.629 260.362
L292.075 256.647
L292.522 262.779
L292.968 250.342
L293.414 257.782
L293.861 260.867
L294.307 258.237
L294.754 262.22
L295.2 261.921
L295.646 260.273
L296.093 259.565
L296.539 262.507
L296.986 259.458
L297.432 261.381
L297.878 275.298
L298.325 262.454
L298.771 259.993
L299.218 256.32
L299.664 261.186
L300.11 262.878
L300.557 255.425
L301.003 258.828
L301.45 257.613
L301.896 261.654
L302.342 262.933
L302.789 260.159
L303.235 256.453
L303.682 261.731
L304.128 261.56
L304.574 259.833
L305.021 256.929
L305.467 260.986
L305.914 261.72
L306.806 258.837
L307.253 262.404
L307.699 260.697
L308.146 253.569
L308.592 257.758
L309.038 263.286
L309.485 261.775
L310.378 256.455
L310.824 260.327
L311.27 262.477
L312.163 256.392
L312.61 261.88
L313.056 259.389
L313.502 257.825
L313.949 257.956
L314.395 259.108
L314.842 261.962
L315.734 254.298
L316.181 258.241
L316.627 260.475
L317.074 262.076
L317.52 259.844
L317.966 261.545
L318.413 255.176
L318.859 262.568
L319.306 258.492
L319.752 258.699
L320.198 252.628
L320.645 263.003
L321.091 257.643
L321.538 260.629
L321.984 259.061
L322.43 263.29
L322.877 259.555
L323.323 251.407
L324.216 264.226
L324.662 259.454
L325.109 259.025
L325.555 260.314
L326.002 260.676
L326.448 256.933
L326.894 255.63
L327.341 261.734
L327.787 261.746
L328.234 260.732
L328.68 257.163
L329.126 261.902
L329.573 263.308
L330.019 259.71
L330.466 257.516
L330.912 257.176
L331.358 256.405
L331.805 261.413
L332.251 261.936
L332.698 255.839
L333.144 263.51
L333.59 258.724
L334.037 260.419
L334.483 260.139
L334.93 262.16
L335.376 257.904
L335.822 258.954
L336.269 259.504
L336.715 263.278
L337.162 258.236
L338.054 260.929
L338.947 256.079
L339.394 262.223
L339.84 263.207
L340.733 258.249
L341.179 260.819
L341.626 262.301
L342.518 256.676
L342.965 260.231
L343.411 260.977
L343.858 259.475
L344.304 259.076
L344.75 261.606
L345.197 260.315
L345.643 258.32
L346.09 253.607
L346.536 258.154
L346.982 264.781
L347.429 260.232
L347.875 260.107
L348.322 258.081
L348.768 264.445
L349.214 259.696
L349.661 258.561
L350.107 257.929
L350.554 264.053
L351 259.92
L351.446 257.906
L351.893 259.902
L352.339 264.043
L352.786 260.107
L353.232 257.383
L353.678 251.593
L354.125 260.152
L354.571 263.637
L355.018 258.292
L355.464 259.592
L355.91 259.015
L356.357 263.71
L356.803 259.741
L357.25 257.543
L357.696 259.022
L358.142 263.516
L358.589 258.471
L359.035 260.354
L359.482 259.913
L359.928 262.05
L360.374 259.087
L360.821 258.134
L361.267 252.793
L362.16 263.823
L362.606 259.33
L363.499 260.176
L363.946 261.274
L364.392 257.069
L364.838 255.405
L365.285 261.099
L365.731 262.739
L366.178 260.167
L366.624 259.889
L367.07 262.081
L367.517 260.338
L367.963 259.097
L368.41 258.502
L368.856 256.713
L369.302 260.394
L369.749 259.483
L370.195 258.827
L370.642 263.853
L371.088 257.269
L371.534 261.622
L371.981 259.881
L372.427 259.847
L372.874 257.807
L373.32 260.812
L373.766 259.011
L374.213 264.34
L374.659 257.745
L375.106 259.544
L375.552 260.157
L375.998 263.953
L376.445 252.966
L376.891 262.378
L377.338 259.591
L377.784 259.086
L378.23 256.441
L378.677 262.741
L379.123 261.939
L379.57 261.697
L380.016 254.699
L380.462 264.639
L380.909 259.449
L381.355 258.089
L381.802 257.396
L382.248 264.021
L382.694 262.029
L383.141 258.848
L383.587 258.216
L384.034 258.675
L384.48 262.001
L384.926 258.719
L385.373 259.684
L385.819 257.857
L386.266 262.564
L386.712 260.737
L387.158 259.503
L387.605 257.597
L388.051 262.466
L388.498 258.904
L388.944 258.502
L389.837 262.581
L390.283 259.856
L390.73 258.114
L391.176 259.239
L391.622 257.276
L392.069 261.875
L392.515 257.628
L392.962 258.278
L393.408 262.402
L393.854 262.048
L394.301 258.045
L394.747 255.707
L395.194 261.875
L395.64 263.303
L396.086 258.576
L396.533 257.286
L396.979 261.02
L397.426 259.648
L397.872 259.111
L398.318 256.486
L398.765 262.969
L399.211 254.073
L399.658 256.333
L400.104 260.036
L400.55 258.555
L400.997 258.72
L401.443 262.669
L401.89 258.574
L402.336 256.672
L402.782 261.048
L403.229 259.284
L403.675 258.05
L404.122 257.51
L404.568 262.301
L405.014 260.438
L405.461 261.507
L405.907 257.742
L406.354 261.038
L406.8 253.092
L407.246 260.474
L407.693 258.921
L408.139 256.489
L408.586 261.685
L409.032 257.953
L409.478 259.342
L409.925 257.571
L410.371 260.645
L410.818 259.761
L411.264 259.276
L411.71 259.22
L412.157 262.01
L412.603 257.605
L413.05 258.718
L413.496 260.654
L413.942 261.952
L414.389 254.899
L414.835 257.817
L415.282 258.231
L415.728 259.203
L416.174 261.036
L416.621 257.103
L417.067 256.332
L417.514 261.269
L417.96 260.723
L418.406 259.191
L418.853 258.308
L419.299 261.551
L419.746 258.644
L420.192 259.919
L420.638 258.553
L421.085 262.508
L421.978 255.34
L422.424 257.952
L422.87 263.308
L423.317 260.123
L423.763 254.941
L424.21 256.028
L424.656 256.412
L425.102 261.746
L425.549 254.874
L425.995 261.589
L426.442 260.082
L427.334 258.783
L427.781 262.376
L428.227 257.816
L428.674 260.289
L429.12 258.708
L430.459 257.035
L430.906 263.18
L431.352 258.985
L431.798 257.841
L432.245 258.548
L432.691 258.081
L433.138 258.878
L433.584 257.885
L434.477 262.997
L435.37 257.693
L435.816 259.42
L436.262 263.02
L437.155 252.463
L437.602 255.863
L438.048 261.43
L438.494 262.643
L438.941 259.701
L439.387 257.652
L439.834 261.879
L440.28 261.141
L440.726 258.41
L441.173 257.51
L441.619 261.999
L442.066 262.274
L442.512 253.146
L442.958 256.477
L443.405 262.712
L443.851 258.169
L444.298 258.456
L444.744 251.047
L445.637 263.409
L446.083 257.65
L446.53 256.173
L447.422 262.459
L447.869 261.017
L448.315 260.373
L448.762 257.731
L449.208 261.991
L449.654 260.491
L450.101 260.334
L450.547 257.734
L450.994 261.918
L451.44 258.646
L451.886 257.902
L452.333 249.351
L453.226 262.553
L453.672 259.715
L454.118 258.383
L454.565 257.817
L455.011 260.537
L455.458 259.314
L455.904 257.652
L456.35 259.383
L456.797 262.743
L457.243 257.51
L457.69 258.324
L458.136 261.215
L458.582 260.439
L459.029 258.611
L459.475 258.301
L459.922 256.496
L460.814 260.452
L461.261 259.115
L461.707 256.582
L462.154 261.061
L462.6 259.307
L463.046 259.014
L463.493 259.018
L463.939 261.298
L464.386 258.78
L464.832 259.659
L465.278 258.599
L465.725 260.403
L466.171 259.354
L467.064 259.085
L467.51 256.24
L467.957 260.991
L468.85 258.614
L469.296 253.163
L469.742 260.511
L470.189 261.39
L470.635 261.034
L471.082 256.341
L471.528 261.7
L471.974 262.769
L472.421 260.226
L472.867 256.993
L473.314 261.291
L473.76 260.265
L474.206 260.413
L474.653 257.768
L475.099 257.613
L475.546 223.96
L475.992 257.547
L476.438 258.985
L476.885 261.991
L477.778 258.985
L478.224 260.019
L478.67 263.054
L479.117 257.8
L479.563 255.342
L480.01 259.597
L480.456 261.77
L480.902 262.136
L481.349 258.35
L481.795 258.847
L482.242 262.821
L482.688 201.125
L483.134 252.513
L483.581 261.431
L484.027 262.751
L484.474 258.093
L484.92 256.429
L485.366 262.16
L485.813 260.873
L486.259 260.277
L486.706 257.377
L487.152 260.761
L487.598 257.744
L488.045 259.765
L488.491 259.179
L488.938 260.95
L489.384 258.259
L489.83 259.973
L490.277 252.812
L490.723 258.643
L492.062 260.792
L492.509 262.112
L492.955 259.43
L493.402 256.069
L493.848 262.608
L494.294 259.072
L494.741 260.38
L495.187 258.127
L495.634 261.912
L496.08 259.003
L496.526 258.504
L497.419 261.42
L497.866 253.647
L498.312 255.902
L498.758 261.192
L499.205 258.302
L499.651 262.813
L500.098 259.317
L500.544 258.716
L500.99 258.644
L501.437 262.203
L501.883 260.017
L502.33 257.27
L502.776 261.861
L503.222 258.915
L503.669 254.855
L504.115 255.373
L504.562 255.489
L505.008 256.942
L505.454 248.246
L505.901 256.111
L506.347 254.487
L506.794 260.182
L507.24 255.595
L507.686 256.705
L508.133 256.17
L508.579 260.316
L509.026 256.673
L509.472 256.167
L509.918 255.297
L510.365 260.37
L510.811 256.593
L511.258 256.382
L511.704 254.828
L512.15 259.222
L512.597 254.712
L513.043 348.658
L513.49 254.938
L513.936 256.105
L514.382 254.373
L514.829 254.416
L515.275 257.812
L515.722 260.126
L516.168 253.519
L516.614 255.545
L517.061 259.547
L517.507 255.187
L517.954 256.479
L517.954 256.479" style="fill:none;opacity:0.7;stroke:#008000;"/>
   </g>
   <g id="line2d_3">
    <path clip-path="url(#p7ff5b81e1d)" d="
M72 252.44
L72.4464 249.923
L72.8928 254.678
L73.3392 246.44
L73.7856 249.117
L74.232 253.8
L74.6784 254.208
L75.1248 251.019
L75.5712 250.418
L76.0176 256.124
L76.464 253.714
L76.9104 248.839
L77.3568 246.039
L77.8032 255.467
L78.2496 250.416
L78.696 250.321
L79.1424 255.357
L79.5888 251.289
L80.0352 250.855
L80.4816 248.504
L80.928 254.561
L81.3744 252.698
L81.8208 250.344
L82.2672 258.119
L82.7136 250.759
L83.16 252.597
L83.6064 246.868
L84.0528 257.341
L84.4992 253.484
L84.9456 250.836
L85.392 252.627
L85.8384 256.991
L86.2848 250.746
L86.7312 249.916
L87.1776 254.096
L87.624 254.285
L88.0704 250.515
L88.5168 253.818
L88.9632 249.45
L89.4096 250.809
L89.856 244.73
L90.3024 252.782
L90.7488 258.309
L91.1952 252.992
L91.6416 251.246
L92.088 255.616
L92.5344 250.054
L92.9808 248.925
L93.4272 254.248
L94.32 250.56
L94.7664 249.938
L95.2128 252.724
L95.6592 250.43
L96.1056 250.686
L96.552 255.549
L96.9984 250.841
L97.4448 250.958
L97.8912 249.766
L98.3376 253.842
L98.784 253.405
L99.2304 249.928
L99.6768 256.838
L100.123 253.27
L100.57 252.662
L101.016 253.809
L101.462 256.012
L101.909 249.316
L102.355 249.755
L102.802 255.985
L103.248 249.734
L103.694 249.313
L104.141 253.354
L104.587 255.229
L105.48 246.542
L105.926 256.827
L106.373 249.238
L106.819 251.226
L107.266 252.18
L107.712 251.683
L108.158 250.718
L109.051 251.941
L109.498 245.584
L109.944 251.062
L110.39 253.23
L110.837 249.934
L111.283 250.515
L111.73 254.541
L112.176 250.842
L112.622 250.03
L113.069 250.145
L113.515 256.397
L113.962 251.345
L114.408 248.961
L114.854 252.846
L115.301 253.655
L115.747 251.203
L116.194 242.669
L116.64 247.952
L117.086 256.847
L117.533 251.224
L117.979 250.487
L118.872 253.198
L119.318 251.278
L119.765 250.026
L120.211 255.107
L120.658 252.136
L121.104 250.717
L121.55 254.272
L121.997 256.401
L122.443 252.642
L122.89 251.533
L123.336 251.217
L123.782 249.996
L124.229 250.437
L124.675 253.497
L125.122 254.218
L125.568 247.962
L126.014 249.023
L126.461 253.939
L127.354 249.273
L127.8 252.664
L128.246 254.456
L128.693 249.171
L129.139 250.022
L129.586 255.716
L130.032 251.39
L130.478 244.705
L130.925 255.548
L131.371 253.861
L131.818 248.227
L132.264 251.378
L132.71 274.402
L133.157 254.026
L133.603 247.183
L134.496 255.965
L134.942 250.875
L135.389 249.029
L135.835 254.215
L136.282 254.46
L136.728 248.986
L137.174 250.359
L137.621 250.345
L138.067 252.59
L138.514 250.638
L138.96 255.253
L139.406 251.221
L139.853 249.183
L140.299 250.547
L140.746 254.64
L141.192 248.902
L141.638 249.997
L142.085 254.038
L142.531 253.844
L142.978 250.24
L143.424 251.248
L143.87 255.449
L144.317 251.169
L144.763 244.031
L145.21 256.926
L145.656 253.187
L146.102 250.643
L146.549 252.065
L146.995 254.94
L147.442 249.002
L147.888 249.806
L148.334 253.533
L148.781 251.382
L149.227 250.95
L149.674 250.919
L150.12 255.868
L150.566 250.703
L151.013 249.518
L151.459 254.989
L151.906 249.868
L152.352 251.078
L153.245 256.001
L153.691 253.002
L154.138 251.22
L154.584 255.113
L155.03 252.604
L155.477 250.763
L155.923 251.619
L156.37 251.284
L156.816 250.597
L157.262 250.625
L157.709 253.405
L158.155 249.568
L158.602 250.607
L159.048 248.856
L159.494 252.079
L159.941 251.187
L160.387 247.318
L160.834 251.425
L161.28 251.575
L161.726 247.751
L162.619 254.257
L163.066 250.621
L163.512 250.129
L163.958 251.277
L164.405 253.825
L164.851 250.484
L165.298 248.104
L165.744 255.189
L166.19 245.195
L167.083 252.95
L167.53 250.836
L167.976 249.461
L168.422 252.042
L168.869 252.609
L169.315 251.633
L169.762 255.554
L170.208 252.817
L171.101 252.275
L171.547 256.404
L171.994 252.097
L172.44 252.079
L172.886 254.69
L173.333 246.654
L173.779 253.549
L174.226 250.629
L174.672 250.188
L175.118 254.867
L175.565 247.804
L176.011 251.56
L176.458 254.233
L176.904 255.193
L177.35 250.995
L177.797 247.983
L178.243 253.843
L178.69 250.885
L179.136 249.142
L180.029 255.611
L180.475 243.122
L180.922 249.699
L181.368 253.974
L181.814 252.572
L182.261 248.333
L182.707 253.222
L183.154 253.907
L183.6 249.061
L184.046 250.326
L184.493 254.859
L184.939 246.009
L185.386 251.197
L185.832 251.223
L186.278 254.08
L186.725 250.552
L187.171 249.943
L187.618 250.096
L188.064 251.542
L188.51 248.972
L188.957 251.438
L189.403 252.105
L189.85 251.283
L190.296 248.223
L190.742 256.815
L191.189 253.186
L191.635 252.287
L192.528 254.897
L193.421 250.808
L193.867 255.593
L194.314 246.699
L194.76 247.716
L195.206 254.087
L195.653 252.971
L196.099 252.846
L196.546 249.716
L196.992 255.102
L197.438 251.548
L197.885 249.348
L198.331 248.86
L198.778 252.439
L199.224 250.777
L199.67 247.845
L200.117 257.357
L201.01 249.189
L201.456 251.452
L201.902 248.434
L202.795 252.785
L203.242 253.837
L203.688 252.512
L204.134 252.016
L204.581 254.792
L205.027 254.741
L205.474 249.749
L205.92 250.706
L206.366 254.489
L206.813 250.78
L207.259 249.572
L207.706 253.04
L208.152 253.836
L208.598 250.842
L209.045 244.203
L209.491 254.073
L209.938 249.139
L210.384 248.437
L210.83 253.599
L211.277 251.248
L211.723 250.803
L212.17 248.64
L212.616 251.243
L213.062 248.686
L213.509 253.558
L214.402 249.04
L214.848 254.041
L215.294 254.776
L215.741 251.041
L216.187 237.597
L216.634 251.226
L217.08 251.08
L217.526 255.136
L217.973 249.533
L218.419 249.53
L218.866 253.39
L219.312 251.287
L219.758 250.393
L220.651 255.985
L221.098 252.086
L221.544 252.084
L221.99 254.702
L222.437 252.963
L222.883 245.139
L223.33 251.274
L223.776 246.988
L224.222 249.48
L224.669 253.074
L225.115 250.76
L225.562 251.476
L226.008 250.224
L226.454 254.377
L226.901 250.86
L227.347 249.648
L227.794 254.486
L228.24 251.609
L228.686 250.505
L229.133 251.621
L229.579 253.364
L230.026 251.106
L230.472 243.043
L230.918 246.777
L231.365 251.603
L231.811 253.798
L232.258 247.352
L232.704 249.892
L233.15 254.421
L233.597 250.364
L234.043 250.017
L234.49 253.031
L234.936 250.93
L235.382 250.88
L235.829 250.159
L236.722 255.824
L237.614 242.095
L238.061 252.193
L238.507 252.187
L238.954 250.285
L239.4 256.484
L239.846 253.319
L240.293 252.532
L240.739 252.921
L241.186 255.191
L241.632 247.99
L242.078 249.367
L242.525 253.981
L242.971 251.008
L243.418 250.822
L243.864 251.313
L244.31 254.324
L244.757 245.325
L245.203 250.118
L245.65 256.744
L246.096 252.649
L246.542 251.405
L246.989 254.424
L247.435 254.859
L247.882 251.499
L248.328 251.862
L248.774 256.434
L249.221 253.233
L250.114 251.52
L250.56 253.887
L251.006 250.248
L251.453 248.767
L251.899 248.286
L252.346 249.993
L252.792 249.961
L253.685 253.642
L254.131 249.194
L254.578 251.452
L255.024 256.046
L255.47 245.146
L255.917 248.702
L256.363 253.369
L256.81 253.952
L257.256 249.265
L257.702 250.951
L258.149 254.4
L258.595 252.849
L259.042 244.104
L259.488 252.863
L259.934 252.961
L260.381 252.548
L260.827 252.958
L261.274 255.987
L262.166 248.645
L262.613 251.713
L263.059 253.835
L263.506 249.961
L263.952 250.362
L264.398 253.281
L264.845 250.003
L265.291 250.914
L265.738 253.254
L266.184 246.679
L266.63 250.254
L267.077 252.228
L267.523 256.424
L267.97 245.291
L268.416 248.717
L268.862 253.459
L269.309 253.435
L269.755 249.089
L270.202 250.419
L270.648 254.888
L271.094 250.906
L271.541 251.182
L271.987 250.811
L272.434 254.38
L272.88 250.672
L273.326 238.405
L273.773 247.196
L274.219 253.04
L274.666 252.759
L275.112 253.611
L275.558 248.703
L276.005 251.124
L276.451 254.36
L276.898 249.32
L277.344 248.368
L277.79 253.68
L278.237 255.358
L278.683 250.933
L279.13 252.186
L279.576 256.428
L280.022 248.176
L280.469 243.511
L280.915 250.009
L281.362 252.611
L281.808 254.141
L282.254 252.533
L282.701 249.981
L283.147 255.145
L283.594 251.229
L284.04 251.118
L284.486 251.453
L284.933 253.338
L285.379 248.924
L285.826 250.155
L286.272 248.981
L286.718 248.868
L287.165 241.081
L287.611 239.376
L288.95 247.899
L289.397 242.629
L289.843 241.726
L290.29 248.658
L290.736 247.432
L291.182 242.554
L291.629 244.878
L292.075 251.074
L292.522 245.668
L292.968 243.018
L293.414 251.493
L293.861 243.737
L294.307 239.128
L294.754 249.175
L295.2 244.078
L295.646 245.023
L296.093 245.195
L296.539 248.883
L296.986 243.624
L297.432 243.075
L297.878 249.345
L298.325 244.652
L298.771 242.128
L299.218 247.036
L299.664 244.285
L300.11 244.27
L300.557 244.41
L301.003 244.285
L301.45 240.385
L301.896 251.533
L302.342 243.837
L302.789 242.04
L303.235 249.245
L303.682 242.667
L304.128 242.511
L304.574 245.493
L305.021 249.374
L305.467 243.387
L305.914 241.92
L306.36 249.252
L307.253 241.825
L307.699 243.576
L308.146 244.129
L309.038 250.376
L309.485 245.621
L309.931 244.045
L310.378 251.98
L310.824 245.465
L311.27 242.812
L311.717 250.374
L312.163 244.81
L312.61 246.069
L313.056 243.458
L313.502 252.692
L313.949 243.224
L314.395 244.038
L314.842 241.754
L315.288 241.741
L315.734 248.653
L316.181 246.857
L316.627 241.749
L317.074 245.017
L317.52 250.289
L317.966 243.213
L318.413 243.05
L318.859 249.534
L319.306 243.59
L319.752 243.772
L320.645 248.71
L321.091 238.957
L321.538 249.667
L321.984 244.23
L322.43 243.181
L322.877 251.669
L323.323 245.618
L323.77 244.334
L324.216 250.242
L324.662 248.778
L325.109 243.141
L325.555 246.496
L326.002 250.823
L326.448 245.631
L326.894 244.34
L327.341 250.636
L327.787 244.847
L328.234 248.021
L328.68 247.285
L329.126 244.807
L329.573 247.435
L330.019 248.286
L330.466 243.955
L330.912 244.574
L331.358 252.105
L331.805 245.72
L332.251 242.512
L332.698 248.235
L333.144 247.062
L333.59 243.078
L334.037 240.546
L334.483 248.339
L334.93 239.634
L335.376 252.086
L335.822 243.052
L336.269 242.426
L336.715 249.349
L337.162 242.613
L337.608 243.624
L338.054 242.048
L338.501 249.96
L338.947 243.479
L339.394 243.118
L339.84 248.955
L340.286 244.729
L340.733 243.115
L341.179 239.332
L341.626 241.248
L342.518 248.878
L342.965 243.749
L343.411 242.286
L343.858 248.652
L344.304 242.802
L344.75 245.918
L345.643 250.029
L346.09 241.284
L346.536 242.81
L346.982 249.844
L347.429 241.318
L347.875 235.583
L348.322 244.018
L348.768 243.873
L349.214 250.717
L349.661 248.685
L350.107 244.833
L350.554 245.236
L351 252.34
L351.446 245.025
L351.893 244.344
L352.339 251.87
L352.786 245.131
L353.232 246.005
L353.678 248.958
L354.125 247.586
L354.571 244.064
L355.018 247.509
L355.464 243.198
L355.91 242.615
L356.357 249.968
L356.803 243.58
L357.25 242.374
L357.696 246.771
L358.142 236.257
L358.589 243.427
L359.035 246.363
L359.482 245.434
L359.928 243.173
L360.374 244.428
L360.821 248.647
L361.267 239.656
L361.714 247.915
L362.16 247.399
L362.606 242.509
L363.053 241.939
L363.499 251.105
L363.946 244.333
L364.392 243.058
L364.838 248.918
L365.285 244.533
L365.731 244.95
L366.178 246.588
L366.624 250.484
L367.517 241.402
L367.963 245.587
L368.41 241.639
L368.856 251.065
L369.302 246.015
L369.749 243.681
L370.195 248.167
L370.642 250.017
L371.088 246.261
L371.534 243.835
L371.981 252.364
L372.427 244.54
L372.874 243.484
L373.32 248.775
L373.766 245.112
L374.213 243.002
L374.659 242.13
L375.106 242.613
L375.552 245.853
L375.998 252.098
L376.445 245.234
L376.891 244.761
L377.338 251.998
L377.784 245.725
L378.23 245.717
L379.123 249.956
L379.57 244.839
L380.016 241.465
L380.462 250.243
L381.355 235.369
L381.802 243.278
L382.248 245.349
L382.694 246.695
L383.141 247.26
L383.587 243.097
L384.034 243.903
L384.48 251.652
L384.926 243.086
L385.373 242.815
L385.819 249.559
L386.266 243.671
L386.712 244.551
L387.158 240.71
L387.605 249.329
L388.051 239.168
L388.498 249.141
L388.944 243.435
L389.39 242.924
L389.837 248.895
L390.283 243.533
L390.73 244.064
L391.176 245.492
L391.622 250.794
L392.069 245.696
L392.515 242.327
L392.962 250.618
L393.854 240.521
L394.301 246.77
L394.747 238.355
L395.194 242.744
L395.64 250.136
L396.086 244.63
L396.533 243.59
L396.979 252.612
L397.426 244.439
L397.872 243.515
L398.318 251.393
L398.765 243.74
L399.211 244.245
L399.658 245.637
L400.104 251.237
L400.997 241.122
L401.443 239.044
L401.89 241.348
L402.336 249.331
L402.782 244.24
L403.229 243.636
L403.675 246.002
L404.122 249.017
L404.568 244.234
L405.014 241.344
L405.461 250.459
L406.354 241.139
L406.8 248.876
L407.246 247.15
L407.693 240.727
L408.586 240.674
L409.032 242.518
L409.478 250.306
L409.925 243.02
L410.371 242.503
L410.818 248.606
L411.264 243.036
L411.71 244.152
L412.157 242.21
L412.603 245.825
L413.05 242.341
L413.496 242.548
L413.942 249.786
L414.389 242.274
L414.835 243.016
L415.728 246.328
L416.174 246.869
L416.621 250.527
L417.067 244.159
L417.514 242.608
L417.96 251.283
L418.406 243.824
L418.853 242.246
L419.299 248.693
L419.746 247.364
L420.192 243.059
L420.638 244.352
L421.085 247.303
L421.531 240.01
L421.978 251.422
L422.424 244.993
L422.87 242.969
L423.317 249.334
L423.763 248.562
L424.21 244.155
L424.656 246.012
L425.102 250.139
L425.549 245.847
L425.995 244.136
L426.442 250.356
L426.888 245.208
L427.334 242.285
L427.781 247.136
L428.227 246.844
L428.674 244.696
L429.12 248.417
L430.013 241.176
L430.459 251.421
L430.906 242.302
L431.352 242.661
L431.798 248.65
L432.245 244.621
L432.691 244.827
L433.138 243.645
L433.584 248.364
L434.03 245.267
L434.477 243.346
L434.923 246.569
L435.37 242.198
L435.816 251.884
L436.262 245.564
L436.709 244.446
L437.155 245.18
L437.602 251.308
L438.048 239.624
L438.494 242.619
L438.941 250.199
L439.387 238.544
L439.834 244.792
L440.726 247.743
L441.173 241.663
L441.619 240.475
L442.066 243.472
L442.512 244.6
L442.958 252.014
L443.405 244.03
L443.851 244.066
L444.298 249.588
L444.744 249.198
L445.19 244.582
L445.637 245.984
L446.083 251.839
L446.53 245.208
L446.976 244.639
L447.422 251.333
L447.869 241.927
L448.315 244.264
L448.762 245.297
L449.208 246.613
L449.654 246.504
L450.101 251.763
L450.547 243.423
L450.994 242.789
L451.44 249.715
L451.886 244.166
L452.333 247.13
L452.779 244.893
L453.226 246.223
L453.672 243.03
L454.118 244.888
L454.565 248.086
L455.011 243.136
L455.458 250.806
L455.904 245.741
L456.35 243.898
L456.797 249.736
L457.243 248.108
L457.69 244.991
L458.136 246.317
L458.582 250.719
L459.029 245.295
L459.475 243.372
L459.922 251.549
L460.368 245.619
L460.814 244.074
L461.261 245.192
L461.707 247.034
L462.154 242.561
L462.6 247.234
L463.493 240.036
L463.939 249.58
L464.386 244.138
L464.832 241.822
L465.278 245.71
L465.725 248.109
L466.171 242.358
L466.618 243.275
L467.064 252.805
L467.51 244.949
L467.957 242.497
L468.403 250.935
L468.85 241.708
L469.296 246.383
L469.742 248.041
L470.189 242.845
L470.635 244.271
L471.082 249.562
L471.528 243.879
L471.974 244.314
L472.421 251.221
L472.867 244.594
L473.314 244.46
L473.76 245.863
L474.206 248.501
L474.653 243.241
L475.099 235.362
L475.546 241.682
L475.992 243.084
L476.438 249.937
L476.885 243.927
L477.331 243.53
L477.778 245.232
L478.224 246.339
L478.67 240.687
L479.117 242.946
L479.563 250.486
L480.01 245.479
L480.456 244.483
L480.902 247.731
L481.349 242.439
L481.795 241.208
L482.242 245.752
L482.688 244.85
L483.134 246.977
L483.581 251.118
L484.027 243.879
L484.474 244.59
L484.92 251.569
L485.366 245.676
L485.813 245.223
L486.259 248.022
L486.706 248.291
L487.598 237.251
L488.045 247.293
L488.491 241.539
L488.938 247.338
L489.384 243.795
L489.83 242.676
L490.277 246.167
L490.723 246.354
L491.17 242.549
L491.616 241.434
L492.062 251.405
L492.509 243.841
L492.955 244.213
L493.402 250.402
L493.848 244.895
L494.294 246.092
L494.741 245.136
L495.187 247.067
L495.634 241.364
L496.08 250.755
L496.526 242.803
L496.973 243.737
L497.419 249.361
L497.866 243.787
L498.312 244.523
L498.758 246.086
L499.205 248.753
L499.651 242.203
L500.098 242.601
L500.544 252.561
L500.99 244.758
L501.437 239.346
L501.883 240.797
L502.33 243.162
L502.776 246.326
L503.222 246.758
L503.669 242.708
L504.115 241.515
L504.562 250.731
L505.008 243.766
L505.454 242.095
L505.901 249.359
L506.347 241.336
L506.794 242.069
L507.24 245.258
L507.686 251.627
L508.133 244.328
L508.579 230.507
L509.026 249.305
L509.472 244.294
L509.918 242.594
L510.365 246.632
L510.811 247.315
L511.258 247.646
L511.704 245.41
L512.15 244.814
L512.597 249.047
L513.043 245.8
L513.49 243.699
L513.936 250.149
L514.382 249.371
L514.829 242.347
L515.275 237.411
L515.722 240.815
L516.168 247.024
L516.614 250.161
L517.061 244.821
L517.507 242.688
L517.954 247.329
L517.954 247.329" style="fill:none;opacity:0.5;stroke:#0000ff;"/>
   </g>
   <g id="matplotlib.axis_1">
    <g id="xtick_1">
     <g id="line2d_4">
      <path clip-path="url(#p7ff5b81e1d)" d="
M72 388.8
L72 43.2" style="fill:none;stroke:#000000;stroke-dasharray:1.000000,3.000000;stroke-dashoffset:0.0;stroke-linecap:butt;stroke-width:0.5;"/>
     </g>
     <g id="line2d_5">
      <defs>
       <path d="
M0 0
L0 -4" id="m0012dd4eef" style="stroke:#000000;stroke-linecap:butt;stroke-width:0.5;"/>
      </defs>
      <g>
       <use style="stroke:#000000;stroke-linecap:butt;stroke-width:0.5;" x="72.0" xlink:href="#m0012dd4eef" y="388.8"/>
      </g>
     </g>
     <g id="line2d_6">
      <defs>
       <path d="
M0 0
L0 4" id="m476344969c" style="stroke:#000000;stroke-linecap:butt;stroke-width:0.5;"/>
      </defs>
      <g>
       <use style="stroke:#000000;stroke-linecap:butt;stroke-width:0.5;" x="72.0" xlink:href="#m476344969c" y="43.2"/>
      </g>
     </g>
     <g id="text_1">
      <!-- 0 -->
      <defs>
       <path d="
M31.7812 66.4062
Q24.1719 66.4062 20.3281 58.9062
Q16.5 51.4219 16.5 36.375
Q16.5 21.3906 20.3281 13.8906
Q24.1719 6.39062 31.7812 6.39062
Q39.4531 6.39062 43.2812 13.8906
Q47.125 21.3906 47.125 36.375
Q47.125 51.4219 43.2812 58.9062
Q39.4531 66.4062 31.7812 66.4062
M31.7812 74.2188
Q44.0469 74.2188 50.5156 64.5156
Q56.9844 54.8281 56.9844 36.375
Q56.9844 17.9688 50.5156 8.26562
Q44.0469 -1.42188 31.7812 -1.42188
Q19.5312 -1.42188 13.0625 8.26562
Q6.59375 17.9688 6.59375 36.375
Q6.59375 54.8281 13.0625 64.5156
Q19.5312 74.2188 31.7812 74.2188" id="BitstreamVeraSans-Roman-30"/>
      </defs>
      <g transform="translate(68.9765625 401.70625)scale(0.12 -0.12)">
       <use xlink:href="#BitstreamVeraSans-Roman-30"/>
      </g>
     </g>
    </g>
    <g id="xtick_2">
     <g id="line2d_7">
      <path clip-path="url(#p7ff5b81e1d)" d="
M116.64 388.8
L116.64 43.2" style="fill:none;stroke:#000000;stroke-dasharray:1.000000,3.000000;stroke-dashoffset:0.0;stroke-linecap:butt;stroke-width:0.5;"/>
     </g>
     <g id="line2d_8">
      <g>
       <use style="stroke:#000000;stroke-linecap:butt;stroke-width:0.5;" x="116.64" xlink:href="#m0012dd4eef" y="388.8"/>
      </g>
     </g>
     <g id="line2d_9">
      <g>
       <use style="stroke:#000000;stroke-linecap:butt;stroke-width:0.5;" x="116.64" xlink:href="#m476344969c" y="43.2"/>
      </g>
     </g>
     <g id="text_2">
      <!-- 100 -->
      <defs>
       <path d="
M12.4062 8.29688
L28.5156 8.29688
L28.5156 63.9219
L10.9844 60.4062
L10.9844 69.3906
L28.4219 72.9062
L38.2812 72.9062
L38.2812 8.29688
L54.3906 8.29688
L54.3906 0
L12.4062 0
z
" id="BitstreamVeraSans-Roman-31"/>
      </defs>
      <g transform="translate(106.245 401.70625)scale(0.12 -0.12)">
       <use xlink:href="#BitstreamVeraSans-Roman-31"/>
       <use x="63.623046875" xlink:href="#BitstreamVeraSans-Roman-30"/>
       <use x="127.24609375" xlink:href="#BitstreamVeraSans-Roman-30"/>
      </g>
     </g>
    </g>
    <g id="xtick_3">
     <g id="line2d_10">
      <path clip-path="url(#p7ff5b81e1d)" d="
M161.28 388.8
L161.28 43.2" style="fill:none;stroke:#000000;stroke-dasharray:1.000000,3.000000;stroke-dashoffset:0.0;stroke-linecap:butt;stroke-width:0.5;"/>
     </g>
     <g id="line2d_11">
      <g>
       <use style="stroke:#000000;stroke-linecap:butt;stroke-width:0.5;" x="161.28" xlink:href="#m0012dd4eef" y="388.8"/>
      </g>
     </g>
     <g id="line2d_12">
      <g>
       <use style="stroke:#000000;stroke-linecap:butt;stroke-width:0.5;" x="161.28" xlink:href="#m476344969c" y="43.2"/>
      </g>
     </g>
     <g id="text_3">
      <!-- 200 -->
      <defs>
       <path d="
M19.1875 8.29688
L53.6094 8.29688
L53.6094 0
L7.32812 0
L7.32812 8.29688
Q12.9375 14.1094 22.625 23.8906
Q32.3281 33.6875 34.8125 36.5312
Q39.5469 41.8438 41.4219 45.5312
Q43.3125 49.2188 43.3125 52.7812
Q43.3125 58.5938 39.2344 62.25
Q35.1562 65.9219 28.6094 65.9219
Q23.9688 65.9219 18.8125 64.3125
Q13.6719 62.7031 7.8125 59.4219
L7.8125 69.3906
Q13.7656 71.7812 18.9375 73
Q24.125 74.2188 28.4219 74.2188
Q39.75 74.2188 46.4844 68.5469
Q53.2188 62.8906 53.2188 53.4219
Q53.2188 48.9219 51.5312 44.8906
Q49.8594 40.875 45.4062 35.4062
Q44.1875 33.9844 37.6406 27.2188
Q31.1094 20.4531 19.1875 8.29688" id="BitstreamVeraSans-Roman-32"/>
      </defs>
      <g transform="translate(150.665625 401.70625)scale(0.12 -0.12)">
       <use xlink:href="#BitstreamVeraSans-Roman-32"/>
       <use x="63.623046875" xlink:href="#BitstreamVeraSans-Roman-30"/>
       <use x="127.24609375" xlink:href="#BitstreamVeraSans-Roman-30"/>
      </g>
     </g>
    </g>
    <g id="xtick_4">
     <g id="line2d_13">
      <path clip-path="url(#p7ff5b81e1d)" d="
M205.92 388.8
L205.92 43.2" style="fill:none;stroke:#000000;stroke-dasharray:1.000000,3.000000;stroke-dashoffset:0.0;stroke-linecap:butt;stroke-width:0.5;"/>
     </g>
     <g id="line2d_14">
      <g>
       <use style="stroke:#000000;stroke-linecap:butt;stroke-width:0.5;" x="205.92" xlink:href="#m0012dd4eef" y="388.8"/>
      </g>
     </g>
     <g id="line2d_15">
      <g>
       <use style="stroke:#000000;stroke-linecap:butt;stroke-width:0.5;" x="205.92" xlink:href="#m476344969c" y="43.2"/>
      </g>
     </g>
     <g id="text_4">
      <!-- 300 -->
      <defs>
       <path d="
M40.5781 39.3125
Q47.6562 37.7969 51.625 33
Q55.6094 28.2188 55.6094 21.1875
Q55.6094 10.4062 48.1875 4.48438
Q40.7656 -1.42188 27.0938 -1.42188
Q22.5156 -1.42188 17.6562 -0.515625
Q12.7969 0.390625 7.625 2.20312
L7.625 11.7188
Q11.7188 9.32812 16.5938 8.10938
Q21.4844 6.89062 26.8125 6.89062
Q36.0781 6.89062 40.9375 10.5469
Q45.7969 14.2031 45.7969 21.1875
Q45.7969 27.6406 41.2812 31.2656
Q36.7656 34.9062 28.7188 34.9062
L20.2188 34.9062
L20.2188 43.0156
L29.1094 43.0156
Q36.375 43.0156 40.2344 45.9219
Q44.0938 48.8281 44.0938 54.2969
Q44.0938 59.9062 40.1094 62.9062
Q36.1406 65.9219 28.7188 65.9219
Q24.6562 65.9219 20.0156 65.0312
Q15.375 64.1562 9.8125 62.3125
L9.8125 71.0938
Q15.4375 72.6562 20.3438 73.4375
Q25.25 74.2188 29.5938 74.2188
Q40.8281 74.2188 47.3594 69.1094
Q53.9062 64.0156 53.9062 55.3281
Q53.9062 49.2656 50.4375 45.0938
Q46.9688 40.9219 40.5781 39.3125" id="BitstreamVeraSans-Roman-33"/>
      </defs>
      <g transform="translate(195.3234375 401.70625)scale(0.12 -0.12)">
       <use xlink:href="#BitstreamVeraSans-Roman-33"/>
       <use x="63.623046875" xlink:href="#BitstreamVeraSans-Roman-30"/>
       <use x="127.24609375" xlink:href="#BitstreamVeraSans-Roman-30"/>
      </g>
     </g>
    </g>
    <g id="xtick_5">
     <g id="line2d_16">
      <path clip-path="url(#p7ff5b81e1d)" d="
M250.56 388.8
L250.56 43.2" style="fill:none;stroke:#000000;stroke-dasharray:1.000000,3.000000;stroke-dashoffset:0.0;stroke-linecap:butt;stroke-width:0.5;"/>
     </g>
     <g id="line2d_17">
      <g>
       <use style="stroke:#000000;stroke-linecap:butt;stroke-width:0.5;" x="250.56" xlink:href="#m0012dd4eef" y="388.8"/>
      </g>
     </g>
     <g id="line2d_18">
      <g>
       <use style="stroke:#000000;stroke-linecap:butt;stroke-width:0.5;" x="250.56" xlink:href="#m476344969c" y="43.2"/>
      </g>
     </g>
     <g id="text_5">
      <!-- 400 -->
      <defs>
       <path d="
M37.7969 64.3125
L12.8906 25.3906
L37.7969 25.3906
z

M35.2031 72.9062
L47.6094 72.9062
L47.6094 25.3906
L58.0156 25.3906
L58.0156 17.1875
L47.6094 17.1875
L47.6094 0
L37.7969 0
L37.7969 17.1875
L4.89062 17.1875
L4.89062 26.7031
z
" id="BitstreamVeraSans-Roman-34"/>
      </defs>
      <g transform="translate(239.799375 401.70625)scale(0.12 -0.12)">
       <use xlink:href="#BitstreamVeraSans-Roman-34"/>
       <use x="63.623046875" xlink:href="#BitstreamVeraSans-Roman-30"/>
       <use x="127.24609375" xlink:href="#BitstreamVeraSans-Roman-30"/>
      </g>
     </g>
    </g>
    <g id="xtick_6">
     <g id="line2d_19">
      <path clip-path="url(#p7ff5b81e1d)" d="
M295.2 388.8
L295.2 43.2" style="fill:none;stroke:#000000;stroke-dasharray:1.000000,3.000000;stroke-dashoffset:0.0;stroke-linecap:butt;stroke-width:0.5;"/>
     </g>
     <g id="line2d_20">
      <g>
       <use style="stroke:#000000;stroke-linecap:butt;stroke-width:0.5;" x="295.2" xlink:href="#m0012dd4eef" y="388.8"/>
      </g>
     </g>
     <g id="line2d_21">
      <g>
       <use style="stroke:#000000;stroke-linecap:butt;stroke-width:0.5;" x="295.2" xlink:href="#m476344969c" y="43.2"/>
      </g>
     </g>
     <g id="text_6">
      <!-- 500 -->
      <defs>
       <path d="
M10.7969 72.9062
L49.5156 72.9062
L49.5156 64.5938
L19.8281 64.5938
L19.8281 46.7344
Q21.9688 47.4688 24.1094 47.8281
Q26.2656 48.1875 28.4219 48.1875
Q40.625 48.1875 47.75 41.5
Q54.8906 34.8125 54.8906 23.3906
Q54.8906 11.625 47.5625 5.09375
Q40.2344 -1.42188 26.9062 -1.42188
Q22.3125 -1.42188 17.5469 -0.640625
Q12.7969 0.140625 7.71875 1.70312
L7.71875 11.625
Q12.1094 9.23438 16.7969 8.0625
Q21.4844 6.89062 26.7031 6.89062
Q35.1562 6.89062 40.0781 11.3281
Q45.0156 15.7656 45.0156 23.3906
Q45.0156 31 40.0781 35.4375
Q35.1562 39.8906 26.7031 39.8906
Q22.75 39.8906 18.8125 39.0156
Q14.8906 38.1406 10.7969 36.2812
z
" id="BitstreamVeraSans-Roman-35"/>
      </defs>
      <g transform="translate(284.6090625 401.70625)scale(0.12 -0.12)">
       <use xlink:href="#BitstreamVeraSans-Roman-35"/>
       <use x="63.623046875" xlink:href="#BitstreamVeraSans-Roman-30"/>
       <use x="127.24609375" xlink:href="#BitstreamVeraSans-Roman-30"/>
      </g>
     </g>
    </g>
    <g id="xtick_7">
     <g id="line2d_22">
      <path clip-path="url(#p7ff5b81e1d)" d="
M339.84 388.8
L339.84 43.2" style="fill:none;stroke:#000000;stroke-dasharray:1.000000,3.000000;stroke-dashoffset:0.0;stroke-linecap:butt;stroke-width:0.5;"/>
     </g>
     <g id="line2d_23">
      <g>
       <use style="stroke:#000000;stroke-linecap:butt;stroke-width:0.5;" x="339.84" xlink:href="#m0012dd4eef" y="388.8"/>
      </g>
     </g>
     <g id="line2d_24">
      <g>
       <use style="stroke:#000000;stroke-linecap:butt;stroke-width:0.5;" x="339.84" xlink:href="#m476344969c" y="43.2"/>
      </g>
     </g>
     <g id="text_7">
      <!-- 600 -->
      <defs>
       <path d="
M33.0156 40.375
Q26.375 40.375 22.4844 35.8281
Q18.6094 31.2969 18.6094 23.3906
Q18.6094 15.5312 22.4844 10.9531
Q26.375 6.39062 33.0156 6.39062
Q39.6562 6.39062 43.5312 10.9531
Q47.4062 15.5312 47.4062 23.3906
Q47.4062 31.2969 43.5312 35.8281
Q39.6562 40.375 33.0156 40.375
M52.5938 71.2969
L52.5938 62.3125
Q48.875 64.0625 45.0938 64.9844
Q41.3125 65.9219 37.5938 65.9219
Q27.8281 65.9219 22.6719 59.3281
Q17.5312 52.7344 16.7969 39.4062
Q19.6719 43.6562 24.0156 45.9219
Q28.375 48.1875 33.5938 48.1875
Q44.5781 48.1875 50.9531 41.5156
Q57.3281 34.8594 57.3281 23.3906
Q57.3281 12.1562 50.6875 5.35938
Q44.0469 -1.42188 33.0156 -1.42188
Q20.3594 -1.42188 13.6719 8.26562
Q6.98438 17.9688 6.98438 36.375
Q6.98438 53.6562 15.1875 63.9375
Q23.3906 74.2188 37.2031 74.2188
Q40.9219 74.2188 44.7031 73.4844
Q48.4844 72.75 52.5938 71.2969" id="BitstreamVeraSans-Roman-36"/>
      </defs>
      <g transform="translate(329.205 401.70625)scale(0.12 -0.12)">
       <use xlink:href="#BitstreamVeraSans-Roman-36"/>
       <use x="63.623046875" xlink:href="#BitstreamVeraSans-Roman-30"/>
       <use x="127.24609375" xlink:href="#BitstreamVeraSans-Roman-30"/>
      </g>
     </g>
    </g>
    <g id="xtick_8">
     <g id="line2d_25">
      <path clip-path="url(#p7ff5b81e1d)" d="
M384.48 388.8
L384.48 43.2" style="fill:none;stroke:#000000;stroke-dasharray:1.000000,3.000000;stroke-dashoffset:0.0;stroke-linecap:butt;stroke-width:0.5;"/>
     </g>
     <g id="line2d_26">
      <g>
       <use style="stroke:#000000;stroke-linecap:butt;stroke-width:0.5;" x="384.48" xlink:href="#m0012dd4eef" y="388.8"/>
      </g>
     </g>
     <g id="line2d_27">
      <g>
       <use style="stroke:#000000;stroke-linecap:butt;stroke-width:0.5;" x="384.48" xlink:href="#m476344969c" y="43.2"/>
      </g>
     </g>
     <g id="text_8">
      <!-- 700 -->
      <defs>
       <path d="
M8.20312 72.9062
L55.0781 72.9062
L55.0781 68.7031
L28.6094 0
L18.3125 0
L43.2188 64.5938
L8.20312 64.5938
z
" id="BitstreamVeraSans-Roman-37"/>
      </defs>
      <g transform="translate(373.918125 401.70625)scale(0.12 -0.12)">
       <use xlink:href="#BitstreamVeraSans-Roman-37"/>
       <use x="63.623046875" xlink:href="#BitstreamVeraSans-Roman-30"/>
       <use x="127.24609375" xlink:href="#BitstreamVeraSans-Roman-30"/>
      </g>
     </g>
    </g>
    <g id="xtick_9">
     <g id="line2d_28">
      <path clip-path="url(#p7ff5b81e1d)" d="
M429.12 388.8
L429.12 43.2" style="fill:none;stroke:#000000;stroke-dasharray:1.000000,3.000000;stroke-dashoffset:0.0;stroke-linecap:butt;stroke-width:0.5;"/>
     </g>
     <g id="line2d_29">
      <g>
       <use style="stroke:#000000;stroke-linecap:butt;stroke-width:0.5;" x="429.12" xlink:href="#m0012dd4eef" y="388.8"/>
      </g>
     </g>
     <g id="line2d_30">
      <g>
       <use style="stroke:#000000;stroke-linecap:butt;stroke-width:0.5;" x="429.12" xlink:href="#m476344969c" y="43.2"/>
      </g>
     </g>
     <g id="text_9">
      <!-- 800 -->
      <defs>
       <path d="
M31.7812 34.625
Q24.75 34.625 20.7188 30.8594
Q16.7031 27.0938 16.7031 20.5156
Q16.7031 13.9219 20.7188 10.1562
Q24.75 6.39062 31.7812 6.39062
Q38.8125 6.39062 42.8594 10.1719
Q46.9219 13.9688 46.9219 20.5156
Q46.9219 27.0938 42.8906 30.8594
Q38.875 34.625 31.7812 34.625
M21.9219 38.8125
Q15.5781 40.375 12.0312 44.7188
Q8.5 49.0781 8.5 55.3281
Q8.5 64.0625 14.7188 69.1406
Q20.9531 74.2188 31.7812 74.2188
Q42.6719 74.2188 48.875 69.1406
Q55.0781 64.0625 55.0781 55.3281
Q55.0781 49.0781 51.5312 44.7188
Q48 40.375 41.7031 38.8125
Q48.8281 37.1562 52.7969 32.3125
Q56.7812 27.4844 56.7812 20.5156
Q56.7812 9.90625 50.3125 4.23438
Q43.8438 -1.42188 31.7812 -1.42188
Q19.7344 -1.42188 13.25 4.23438
Q6.78125 9.90625 6.78125 20.5156
Q6.78125 27.4844 10.7812 32.3125
Q14.7969 37.1562 21.9219 38.8125
M18.3125 54.3906
Q18.3125 48.7344 21.8438 45.5625
Q25.3906 42.3906 31.7812 42.3906
Q38.1406 42.3906 41.7188 45.5625
Q45.3125 48.7344 45.3125 54.3906
Q45.3125 60.0625 41.7188 63.2344
Q38.1406 66.4062 31.7812 66.4062
Q25.3906 66.4062 21.8438 63.2344
Q18.3125 60.0625 18.3125 54.3906" id="BitstreamVeraSans-Roman-38"/>
      </defs>
      <g transform="translate(418.4728125 401.70625)scale(0.12 -0.12)">
       <use xlink:href="#BitstreamVeraSans-Roman-38"/>
       <use x="63.623046875" xlink:href="#BitstreamVeraSans-Roman-30"/>
       <use x="127.24609375" xlink:href="#BitstreamVeraSans-Roman-30"/>
      </g>
     </g>
    </g>
    <g id="xtick_10">
     <g id="line2d_31">
      <path clip-path="url(#p7ff5b81e1d)" d="
M473.76 388.8
L473.76 43.2" style="fill:none;stroke:#000000;stroke-dasharray:1.000000,3.000000;stroke-dashoffset:0.0;stroke-linecap:butt;stroke-width:0.5;"/>
     </g>
     <g id="line2d_32">
      <g>
       <use style="stroke:#000000;stroke-linecap:butt;stroke-width:0.5;" x="473.76" xlink:href="#m0012dd4eef" y="388.8"/>
      </g>
     </g>
     <g id="line2d_33">
      <g>
       <use style="stroke:#000000;stroke-linecap:butt;stroke-width:0.5;" x="473.76" xlink:href="#m476344969c" y="43.2"/>
      </g>
     </g>
     <g id="text_10">
      <!-- 900 -->
      <defs>
       <path d="
M10.9844 1.51562
L10.9844 10.5
Q14.7031 8.73438 18.5 7.8125
Q22.3125 6.89062 25.9844 6.89062
Q35.75 6.89062 40.8906 13.4531
Q46.0469 20.0156 46.7812 33.4062
Q43.9531 29.2031 39.5938 26.9531
Q35.25 24.7031 29.9844 24.7031
Q19.0469 24.7031 12.6719 31.3125
Q6.29688 37.9375 6.29688 49.4219
Q6.29688 60.6406 12.9375 67.4219
Q19.5781 74.2188 30.6094 74.2188
Q43.2656 74.2188 49.9219 64.5156
Q56.5938 54.8281 56.5938 36.375
Q56.5938 19.1406 48.4062 8.85938
Q40.2344 -1.42188 26.4219 -1.42188
Q22.7031 -1.42188 18.8906 -0.6875
Q15.0938 0.046875 10.9844 1.51562
M30.6094 32.4219
Q37.25 32.4219 41.125 36.9531
Q45.0156 41.5 45.0156 49.4219
Q45.0156 57.2812 41.125 61.8438
Q37.25 66.4062 30.6094 66.4062
Q23.9688 66.4062 20.0938 61.8438
Q16.2188 57.2812 16.2188 49.4219
Q16.2188 41.5 20.0938 36.9531
Q23.9688 32.4219 30.6094 32.4219" id="BitstreamVeraSans-Roman-39"/>
      </defs>
      <g transform="translate(463.08375 401.70625)scale(0.12 -0.12)">
       <use xlink:href="#BitstreamVeraSans-Roman-39"/>
       <use x="63.623046875" xlink:href="#BitstreamVeraSans-Roman-30"/>
       <use x="127.24609375" xlink:href="#BitstreamVeraSans-Roman-30"/>
      </g>
     </g>
    </g>
   </g>
   <g id="matplotlib.axis_2">
    <g id="ytick_1">
     <g id="line2d_34">
      <path clip-path="url(#p7ff5b81e1d)" d="
M72 388.8
L518.4 388.8" style="fill:none;stroke:#000000;stroke-dasharray:1.000000,3.000000;stroke-dashoffset:0.0;stroke-linecap:butt;stroke-width:0.5;"/>
     </g>
     <g id="line2d_35">
      <defs>
       <path d="
M0 0
L4 0" id="me8a85f7bf6" style="stroke:#000000;stroke-linecap:butt;stroke-width:0.5;"/>
      </defs>
      <g>
       <use style="stroke:#000000;stroke-linecap:butt;stroke-width:0.5;" x="72.0" xlink:href="#me8a85f7bf6" y="388.8"/>
      </g>
     </g>
     <g id="line2d_36">
      <defs>
       <path d="
M0 0
L-4 0" id="m1a32005dea" style="stroke:#000000;stroke-linecap:butt;stroke-width:0.5;"/>
      </defs>
      <g>
       <use style="stroke:#000000;stroke-linecap:butt;stroke-width:0.5;" x="518.4" xlink:href="#m1a32005dea" y="388.8"/>
      </g>
     </g>
     <g id="text_11">
      <!-- 0.00 -->
      <defs>
       <path d="
M10.6875 12.4062
L21 12.4062
L21 0
L10.6875 0
z
" id="BitstreamVeraSans-Roman-2e"/>
      </defs>
      <g transform="translate(42.869375 393.1678125)scale(0.12 -0.12)">
       <use xlink:href="#BitstreamVeraSans-Roman-30"/>
       <use x="63.623046875" xlink:href="#BitstreamVeraSans-Roman-2e"/>
       <use x="95.41015625" xlink:href="#BitstreamVeraSans-Roman-30"/>
       <use x="159.033203125" xlink:href="#BitstreamVeraSans-Roman-30"/>
      </g>
     </g>
    </g>
    <g id="ytick_2">
     <g id="line2d_37">
      <path clip-path="url(#p7ff5b81e1d)" d="
M72 354.24
L518.4 354.24" style="fill:none;stroke:#000000;stroke-dasharray:1.000000,3.000000;stroke-dashoffset:0.0;stroke-linecap:butt;stroke-width:0.5;"/>
     </g>
     <g id="line2d_38">
      <g>
       <use style="stroke:#000000;stroke-linecap:butt;stroke-width:0.5;" x="72.0" xlink:href="#me8a85f7bf6" y="354.24"/>
      </g>
     </g>
     <g id="line2d_39">
      <g>
       <use style="stroke:#000000;stroke-linecap:butt;stroke-width:0.5;" x="518.4" xlink:href="#m1a32005dea" y="354.24"/>
      </g>
     </g>
     <g id="text_12">
      <!-- 0.08 -->
      <g transform="translate(42.89375 358.6078125)scale(0.12 -0.12)">
       <use xlink:href="#BitstreamVeraSans-Roman-30"/>
       <use x="63.623046875" xlink:href="#BitstreamVeraSans-Roman-2e"/>
       <use x="95.41015625" xlink:href="#BitstreamVeraSans-Roman-30"/>
       <use x="159.033203125" xlink:href="#BitstreamVeraSans-Roman-38"/>
      </g>
     </g>
    </g>
    <g id="ytick_3">
     <g id="line2d_40">
      <path clip-path="url(#p7ff5b81e1d)" d="
M72 319.68
L518.4 319.68" style="fill:none;stroke:#000000;stroke-dasharray:1.000000,3.000000;stroke-dashoffset:0.0;stroke-linecap:butt;stroke-width:0.5;"/>
     </g>
     <g id="line2d_41">
      <g>
       <use style="stroke:#000000;stroke-linecap:butt;stroke-width:0.5;" x="72.0" xlink:href="#me8a85f7bf6" y="319.68"/>
      </g>
     </g>
     <g id="line2d_42">
      <g>
       <use style="stroke:#000000;stroke-linecap:butt;stroke-width:0.5;" x="518.4" xlink:href="#m1a32005dea" y="319.68"/>
      </g>
     </g>
     <g id="text_13">
      <!-- 0.16 -->
      <g transform="translate(42.828125 324.0478125)scale(0.12 -0.12)">
       <use xlink:href="#BitstreamVeraSans-Roman-30"/>
       <use x="63.623046875" xlink:href="#BitstreamVeraSans-Roman-2e"/>
       <use x="95.41015625" xlink:href="#BitstreamVeraSans-Roman-31"/>
       <use x="159.033203125" xlink:href="#BitstreamVeraSans-Roman-36"/>
      </g>
     </g>
    </g>
    <g id="ytick_4">
     <g id="line2d_43">
      <path clip-path="url(#p7ff5b81e1d)" d="
M72 285.12
L518.4 285.12" style="fill:none;stroke:#000000;stroke-dasharray:1.000000,3.000000;stroke-dashoffset:0.0;stroke-linecap:butt;stroke-width:0.5;"/>
     </g>
     <g id="line2d_44">
      <g>
       <use style="stroke:#000000;stroke-linecap:butt;stroke-width:0.5;" x="72.0" xlink:href="#me8a85f7bf6" y="285.12"/>
      </g>
     </g>
     <g id="line2d_45">
      <g>
       <use style="stroke:#000000;stroke-linecap:butt;stroke-width:0.5;" x="518.4" xlink:href="#m1a32005dea" y="285.12"/>
      </g>
     </g>
     <g id="text_14">
      <!-- 0.24 -->
      <g transform="translate(42.745625 289.4878125)scale(0.12 -0.12)">
       <use xlink:href="#BitstreamVeraSans-Roman-30"/>
       <use x="63.623046875" xlink:href="#BitstreamVeraSans-Roman-2e"/>
       <use x="95.41015625" xlink:href="#BitstreamVeraSans-Roman-32"/>
       <use x="159.033203125" xlink:href="#BitstreamVeraSans-Roman-34"/>
      </g>
     </g>
    </g>
    <g id="ytick_5">
     <g id="line2d_46">
      <path clip-path="url(#p7ff5b81e1d)" d="
M72 250.56
L518.4 250.56" style="fill:none;stroke:#000000;stroke-dasharray:1.000000,3.000000;stroke-dashoffset:0.0;stroke-linecap:butt;stroke-width:0.5;"/>
     </g>
     <g id="line2d_47">
      <g>
       <use style="stroke:#000000;stroke-linecap:butt;stroke-width:0.5;" x="72.0" xlink:href="#me8a85f7bf6" y="250.56"/>
      </g>
     </g>
     <g id="line2d_48">
      <g>
       <use style="stroke:#000000;stroke-linecap:butt;stroke-width:0.5;" x="518.4" xlink:href="#m1a32005dea" y="250.56"/>
      </g>
     </g>
     <g id="text_15">
      <!-- 0.32 -->
      <g transform="translate(43.274375 254.9278125)scale(0.12 -0.12)">
       <use xlink:href="#BitstreamVeraSans-Roman-30"/>
       <use x="63.623046875" xlink:href="#BitstreamVeraSans-Roman-2e"/>
       <use x="95.41015625" xlink:href="#BitstreamVeraSans-Roman-33"/>
       <use x="159.033203125" xlink:href="#BitstreamVeraSans-Roman-32"/>
      </g>
     </g>
    </g>
    <g id="ytick_6">
     <g id="line2d_49">
      <path clip-path="url(#p7ff5b81e1d)" d="
M72 216
L518.4 216" style="fill:none;stroke:#000000;stroke-dasharray:1.000000,3.000000;stroke-dashoffset:0.0;stroke-linecap:butt;stroke-width:0.5;"/>
     </g>
     <g id="line2d_50">
      <g>
       <use style="stroke:#000000;stroke-linecap:butt;stroke-width:0.5;" x="72.0" xlink:href="#me8a85f7bf6" y="216.0"/>
      </g>
     </g>
     <g id="line2d_51">
      <g>
       <use style="stroke:#000000;stroke-linecap:butt;stroke-width:0.5;" x="518.4" xlink:href="#m1a32005dea" y="216.0"/>
      </g>
     </g>
     <g id="text_16">
      <!-- 0.40 -->
      <g transform="translate(42.869375 220.3678125)scale(0.12 -0.12)">
       <use xlink:href="#BitstreamVeraSans-Roman-30"/>
       <use x="63.623046875" xlink:href="#BitstreamVeraSans-Roman-2e"/>
       <use x="95.41015625" xlink:href="#BitstreamVeraSans-Roman-34"/>
       <use x="159.033203125" xlink:href="#BitstreamVeraSans-Roman-30"/>
      </g>
     </g>
    </g>
    <g id="ytick_7">
     <g id="line2d_52">
      <path clip-path="url(#p7ff5b81e1d)" d="
M72 181.44
L518.4 181.44" style="fill:none;stroke:#000000;stroke-dasharray:1.000000,3.000000;stroke-dashoffset:0.0;stroke-linecap:butt;stroke-width:0.5;"/>
     </g>
     <g id="line2d_53">
      <g>
       <use style="stroke:#000000;stroke-linecap:butt;stroke-width:0.5;" x="72.0" xlink:href="#me8a85f7bf6" y="181.44"/>
      </g>
     </g>
     <g id="line2d_54">
      <g>
       <use style="stroke:#000000;stroke-linecap:butt;stroke-width:0.5;" x="518.4" xlink:href="#m1a32005dea" y="181.44"/>
      </g>
     </g>
     <g id="text_17">
      <!-- 0.48 -->
      <g transform="translate(42.89375 185.8078125)scale(0.12 -0.12)">
       <use xlink:href="#BitstreamVeraSans-Roman-30"/>
       <use x="63.623046875" xlink:href="#BitstreamVeraSans-Roman-2e"/>
       <use x="95.41015625" xlink:href="#BitstreamVeraSans-Roman-34"/>
       <use x="159.033203125" xlink:href="#BitstreamVeraSans-Roman-38"/>
      </g>
     </g>
    </g>
    <g id="ytick_8">
     <g id="line2d_55">
      <path clip-path="url(#p7ff5b81e1d)" d="
M72 146.88
L518.4 146.88" style="fill:none;stroke:#000000;stroke-dasharray:1.000000,3.000000;stroke-dashoffset:0.0;stroke-linecap:butt;stroke-width:0.5;"/>
     </g>
     <g id="line2d_56">
      <g>
       <use style="stroke:#000000;stroke-linecap:butt;stroke-width:0.5;" x="72.0" xlink:href="#me8a85f7bf6" y="146.88"/>
      </g>
     </g>
     <g id="line2d_57">
      <g>
       <use style="stroke:#000000;stroke-linecap:butt;stroke-width:0.5;" x="518.4" xlink:href="#m1a32005dea" y="146.88"/>
      </g>
     </g>
     <g id="text_18">
      <!-- 0.56 -->
      <g transform="translate(42.828125 151.2478125)scale(0.12 -0.12)">
       <use xlink:href="#BitstreamVeraSans-Roman-30"/>
       <use x="63.623046875" xlink:href="#BitstreamVeraSans-Roman-2e"/>
       <use x="95.41015625" xlink:href="#BitstreamVeraSans-Roman-35"/>
       <use x="159.033203125" xlink:href="#BitstreamVeraSans-Roman-36"/>
      </g>
     </g>
    </g>
    <g id="ytick_9">
     <g id="line2d_58">
      <path clip-path="url(#p7ff5b81e1d)" d="
M72 112.32
L518.4 112.32" style="fill:none;stroke:#000000;stroke-dasharray:1.000000,3.000000;stroke-dashoffset:0.0;stroke-linecap:butt;stroke-width:0.5;"/>
     </g>
     <g id="line2d_59">
      <g>
       <use style="stroke:#000000;stroke-linecap:butt;stroke-width:0.5;" x="72.0" xlink:href="#me8a85f7bf6" y="112.32"/>
      </g>
     </g>
     <g id="line2d_60">
      <g>
       <use style="stroke:#000000;stroke-linecap:butt;stroke-width:0.5;" x="518.4" xlink:href="#m1a32005dea" y="112.32"/>
      </g>
     </g>
     <g id="text_19">
      <!-- 0.64 -->
      <g transform="translate(42.745625 116.6878125)scale(0.12 -0.12)">
       <use xlink:href="#BitstreamVeraSans-Roman-30"/>
       <use x="63.623046875" xlink:href="#BitstreamVeraSans-Roman-2e"/>
       <use x="95.41015625" xlink:href="#BitstreamVeraSans-Roman-36"/>
       <use x="159.033203125" xlink:href="#BitstreamVeraSans-Roman-34"/>
      </g>
     </g>
    </g>
    <g id="ytick_10">
     <g id="line2d_61">
      <path clip-path="url(#p7ff5b81e1d)" d="
M72 77.76
L518.4 77.76" style="fill:none;stroke:#000000;stroke-dasharray:1.000000,3.000000;stroke-dashoffset:0.0;stroke-linecap:butt;stroke-width:0.5;"/>
     </g>
     <g id="line2d_62">
      <g>
       <use style="stroke:#000000;stroke-linecap:butt;stroke-width:0.5;" x="72.0" xlink:href="#me8a85f7bf6" y="77.76"/>
      </g>
     </g>
     <g id="line2d_63">
      <g>
       <use style="stroke:#000000;stroke-linecap:butt;stroke-width:0.5;" x="518.4" xlink:href="#m1a32005dea" y="77.76"/>
      </g>
     </g>
     <g id="text_20">
      <!-- 0.72 -->
      <g transform="translate(43.274375 82.1278125)scale(0.12 -0.12)">
       <use xlink:href="#BitstreamVeraSans-Roman-30"/>
       <use x="63.623046875" xlink:href="#BitstreamVeraSans-Roman-2e"/>
       <use x="95.41015625" xlink:href="#BitstreamVeraSans-Roman-37"/>
       <use x="159.033203125" xlink:href="#BitstreamVeraSans-Roman-32"/>
      </g>
     </g>
    </g>
    <g id="text_21">
     <!-- Sec/file -->
     <defs>
      <path d="
M9.42188 75.9844
L18.4062 75.9844
L18.4062 0
L9.42188 0
z
" id="BitstreamVeraSans-Roman-6c"/>
      <path d="
M53.5156 70.5156
L53.5156 60.8906
Q47.9062 63.5781 42.9219 64.8906
Q37.9375 66.2188 33.2969 66.2188
Q25.25 66.2188 20.875 63.0938
Q16.5 59.9688 16.5 54.2031
Q16.5 49.3594 19.4062 46.8906
Q22.3125 44.4375 30.4219 42.9219
L36.375 41.7031
Q47.4062 39.5938 52.6562 34.2969
Q57.9062 29 57.9062 20.125
Q57.9062 9.51562 50.7969 4.04688
Q43.7031 -1.42188 29.9844 -1.42188
Q24.8125 -1.42188 18.9688 -0.25
Q13.1406 0.921875 6.89062 3.21875
L6.89062 13.375
Q12.8906 10.0156 18.6562 8.29688
Q24.4219 6.59375 29.9844 6.59375
Q38.4219 6.59375 43.0156 9.90625
Q47.6094 13.2344 47.6094 19.3906
Q47.6094 24.75 44.3125 27.7812
Q41.0156 30.8125 33.5 32.3281
L27.4844 33.5
Q16.4531 35.6875 11.5156 40.375
Q6.59375 45.0625 6.59375 53.4219
Q6.59375 63.0938 13.4062 68.6562
Q20.2188 74.2188 32.1719 74.2188
Q37.3125 74.2188 42.625 73.2812
Q47.9531 72.3594 53.5156 70.5156" id="BitstreamVeraSans-Roman-53"/>
      <path d="
M9.42188 54.6875
L18.4062 54.6875
L18.4062 0
L9.42188 0
z

M9.42188 75.9844
L18.4062 75.9844
L18.4062 64.5938
L9.42188 64.5938
z
" id="BitstreamVeraSans-Roman-69"/>
      <path d="
M25.3906 72.9062
L33.6875 72.9062
L8.29688 -9.28125
L0 -9.28125
z
" id="BitstreamVeraSans-Roman-2f"/>
      <path d="
M56.2031 29.5938
L56.2031 25.2031
L14.8906 25.2031
Q15.4844 15.9219 20.4844 11.0625
Q25.4844 6.20312 34.4219 6.20312
Q39.5938 6.20312 44.4531 7.46875
Q49.3125 8.73438 54.1094 11.2812
L54.1094 2.78125
Q49.2656 0.734375 44.1875 -0.34375
Q39.1094 -1.42188 33.8906 -1.42188
Q20.7969 -1.42188 13.1562 6.1875
Q5.51562 13.8125 5.51562 26.8125
Q5.51562 40.2344 12.7656 48.1094
Q20.0156 56 32.3281 56
Q43.3594 56 49.7812 48.8906
Q56.2031 41.7969 56.2031 29.5938
M47.2188 32.2344
Q47.125 39.5938 43.0938 43.9844
Q39.0625 48.3906 32.4219 48.3906
Q24.9062 48.3906 20.3906 44.1406
Q15.875 39.8906 15.1875 32.1719
z
" id="BitstreamVeraSans-Roman-65"/>
      <path d="
M37.1094 75.9844
L37.1094 68.5
L28.5156 68.5
Q23.6875 68.5 21.7969 66.5469
Q19.9219 64.5938 19.9219 59.5156
L19.9219 54.6875
L34.7188 54.6875
L34.7188 47.7031
L19.9219 47.7031
L19.9219 0
L10.8906 0
L10.8906 47.7031
L2.29688 47.7031
L2.29688 54.6875
L10.8906 54.6875
L10.8906 58.5
Q10.8906 67.625 15.1406 71.7969
Q19.3906 75.9844 28.6094 75.9844
z
" id="BitstreamVeraSans-Roman-66"/>
      <path d="
M48.7812 52.5938
L48.7812 44.1875
Q44.9688 46.2969 41.1406 47.3438
Q37.3125 48.3906 33.4062 48.3906
Q24.6562 48.3906 19.8125 42.8438
Q14.9844 37.3125 14.9844 27.2969
Q14.9844 17.2812 19.8125 11.7344
Q24.6562 6.20312 33.4062 6.20312
Q37.3125 6.20312 41.1406 7.25
Q44.9688 8.29688 48.7812 10.4062
L48.7812 2.09375
Q45.0156 0.34375 40.9844 -0.53125
Q36.9688 -1.42188 32.4219 -1.42188
Q20.0625 -1.42188 12.7812 6.34375
Q5.51562 14.1094 5.51562 27.2969
Q5.51562 40.6719 12.8594 48.3281
Q20.2188 56 33.0156 56
Q37.1562 56 41.1094 55.1406
Q45.0625 54.2969 48.7812 52.5938" id="BitstreamVeraSans-Roman-63"/>
     </defs>
     <g transform="translate(37.745625 236.13)rotate(-90.0)scale(0.12 -0.12)">
      <use xlink:href="#BitstreamVeraSans-Roman-53"/>
      <use x="63.4765625" xlink:href="#BitstreamVeraSans-Roman-65"/>
      <use x="125.0" xlink:href="#BitstreamVeraSans-Roman-63"/>
      <use x="179.98046875" xlink:href="#BitstreamVeraSans-Roman-2f"/>
      <use x="213.671875" xlink:href="#BitstreamVeraSans-Roman-66"/>
      <use x="248.876953125" xlink:href="#BitstreamVeraSans-Roman-69"/>
      <use x="276.66015625" xlink:href="#BitstreamVeraSans-Roman-6c"/>
      <use x="304.443359375" xlink:href="#BitstreamVeraSans-Roman-65"/>
     </g>
    </g>
   </g>
   <g id="patch_3">
    <path d="
M72 43.2
L518.4 43.2" style="fill:none;stroke:#000000;"/>
   </g>
   <g id="patch_4">
    <path d="
M518.4 388.8
L518.4 43.2" style="fill:none;stroke:#000000;"/>
   </g>
   <g id="patch_5">
    <path d="
M72 388.8
L518.4 388.8" style="fill:none;stroke:#000000;"/>
   </g>
   <g id="patch_6">
    <path d="
M72 388.8
L72 43.2" style="fill:none;stroke:#000000;"/>
   </g>
   <g id="text_22">
    <!-- Seq -->
    <defs>
     <path d="
M14.7969 27.2969
Q14.7969 17.3906 18.875 11.75
Q22.9531 6.10938 30.0781 6.10938
Q37.2031 6.10938 41.2969 11.75
Q45.4062 17.3906 45.4062 27.2969
Q45.4062 37.2031 41.2969 42.8438
Q37.2031 48.4844 30.0781 48.4844
Q22.9531 48.4844 18.875 42.8438
Q14.7969 37.2031 14.7969 27.2969
M45.4062 8.20312
Q42.5781 3.32812 38.25 0.953125
Q33.9375 -1.42188 27.875 -1.42188
Q17.9688 -1.42188 11.7344 6.48438
Q5.51562 14.4062 5.51562 27.2969
Q5.51562 40.1875 11.7344 48.0938
Q17.9688 56 27.875 56
Q33.9375 56 38.25 53.625
Q42.5781 51.2656 45.4062 46.3906
L45.4062 54.6875
L54.3906 54.6875
L54.3906 -20.7969
L45.4062 -20.7969
z
" id="BitstreamVeraSans-Roman-71"/>
    </defs>
    <g transform="translate(282.7575 38.2)scale(0.144 -0.144)">
     <use xlink:href="#BitstreamVeraSans-Roman-53"/>
     <use x="63.4765625" xlink:href="#BitstreamVeraSans-Roman-65"/>
     <use x="125.0" xlink:href="#BitstreamVeraSans-Roman-71"/>
    </g>
   </g>
   <g id="legend_1">
    <g id="patch_7">
     <path d="
M429.055 115.339
L511.2 115.339
L511.2 50.4
L429.055 50.4
L429.055 115.339
z
" style="fill:#ffffff;stroke:#000000;"/>
    </g>
    <g id="line2d_64">
     <path d="
M439.135 62.0617
L459.295 62.0617" style="fill:none;stroke:#ff0000;"/>
    </g>
    <g id="line2d_65"/>
    <g id="text_23">
     <!-- LRU -->
     <defs>
      <path d="
M44.3906 34.1875
Q47.5625 33.1094 50.5625 29.5938
Q53.5625 26.0781 56.5938 19.9219
L66.6094 0
L56 0
L46.6875 18.7031
Q43.0625 26.0312 39.6719 28.4219
Q36.2812 30.8125 30.4219 30.8125
L19.6719 30.8125
L19.6719 0
L9.8125 0
L9.8125 72.9062
L32.0781 72.9062
Q44.5781 72.9062 50.7344 67.6719
Q56.8906 62.4531 56.8906 51.9062
Q56.8906 45.0156 53.6875 40.4688
Q50.4844 35.9375 44.3906 34.1875
M19.6719 64.7969
L19.6719 38.9219
L32.0781 38.9219
Q39.2031 38.9219 42.8438 42.2188
Q46.4844 45.5156 46.4844 51.9062
Q46.4844 58.2969 42.8438 61.5469
Q39.2031 64.7969 32.0781 64.7969
z
" id="BitstreamVeraSans-Roman-52"/>
      <path d="
M9.8125 72.9062
L19.6719 72.9062
L19.6719 8.29688
L55.1719 8.29688
L55.1719 0
L9.8125 0
z
" id="BitstreamVeraSans-Roman-4c"/>
      <path d="
M8.6875 72.9062
L18.6094 72.9062
L18.6094 28.6094
Q18.6094 16.8906 22.8438 11.7344
Q27.0938 6.59375 36.625 6.59375
Q46.0938 6.59375 50.3438 11.7344
Q54.5938 16.8906 54.5938 28.6094
L54.5938 72.9062
L64.5 72.9062
L64.5 27.3906
Q64.5 13.1406 57.4375 5.85938
Q50.3906 -1.42188 36.625 -1.42188
Q22.7969 -1.42188 15.7344 5.85938
Q8.6875 13.1406 8.6875 27.3906
z
" id="BitstreamVeraSans-Roman-55"/>
     </defs>
     <g transform="translate(475.13475 67.10175)scale(0.144 -0.144)">
      <use xlink:href="#BitstreamVeraSans-Roman-4c"/>
      <use x="55.712890625" xlink:href="#BitstreamVeraSans-Roman-52"/>
      <use x="125.1953125" xlink:href="#BitstreamVeraSans-Roman-55"/>
     </g>
    </g>
    <g id="line2d_66">
     <path d="
M439.135 83.1983
L459.295 83.1983" style="fill:none;opacity:0.7;stroke:#008000;"/>
    </g>
    <g id="line2d_67"/>
    <g id="text_24">
     <!-- MRU -->
     <defs>
      <path d="
M9.8125 72.9062
L24.5156 72.9062
L43.1094 23.2969
L61.8125 72.9062
L76.5156 72.9062
L76.5156 0
L66.8906 0
L66.8906 64.0156
L48.0938 14.0156
L38.1875 14.0156
L19.3906 64.0156
L19.3906 0
L9.8125 0
z
" id="BitstreamVeraSans-Roman-4d"/>
     </defs>
     <g transform="translate(475.13475 88.23825)scale(0.144 -0.144)">
      <use xlink:href="#BitstreamVeraSans-Roman-4d"/>
      <use x="86.279296875" xlink:href="#BitstreamVeraSans-Roman-52"/>
      <use x="155.76171875" xlink:href="#BitstreamVeraSans-Roman-55"/>
     </g>
    </g>
    <g id="line2d_68">
     <path d="
M439.135 104.335
L459.295 104.335" style="fill:none;opacity:0.5;stroke:#0000ff;"/>
    </g>
    <g id="line2d_69"/>
    <g id="text_25">
     <!-- FIFO -->
     <defs>
      <path d="
M9.8125 72.9062
L51.7031 72.9062
L51.7031 64.5938
L19.6719 64.5938
L19.6719 43.1094
L48.5781 43.1094
L48.5781 34.8125
L19.6719 34.8125
L19.6719 0
L9.8125 0
z
" id="BitstreamVeraSans-Roman-46"/>
      <path d="
M9.8125 72.9062
L19.6719 72.9062
L19.6719 0
L9.8125 0
z
" id="BitstreamVeraSans-Roman-49"/>
      <path d="
M39.4062 66.2188
Q28.6562 66.2188 22.3281 58.2031
Q16.0156 50.2031 16.0156 36.375
Q16.0156 22.6094 22.3281 14.5938
Q28.6562 6.59375 39.4062 6.59375
Q50.1406 6.59375 56.4219 14.5938
Q62.7031 22.6094 62.7031 36.375
Q62.7031 50.2031 56.4219 58.2031
Q50.1406 66.2188 39.4062 66.2188
M39.4062 74.2188
Q54.7344 74.2188 63.9062 63.9375
Q73.0938 53.6562 73.0938 36.375
Q73.0938 19.1406 63.9062 8.85938
Q54.7344 -1.42188 39.4062 -1.42188
Q24.0312 -1.42188 14.8125 8.82812
Q5.60938 19.0938 5.60938 36.375
Q5.60938 53.6562 14.8125 63.9375
Q24.0312 74.2188 39.4062 74.2188" id="BitstreamVeraSans-Roman-4f"/>
     </defs>
     <g transform="translate(475.13475 109.37475)scale(0.144 -0.144)">
      <use xlink:href="#BitstreamVeraSans-Roman-46"/>
      <use x="57.51953125" xlink:href="#BitstreamVeraSans-Roman-49"/>
      <use x="87.01171875" xlink:href="#BitstreamVeraSans-Roman-46"/>
      <use x="144.53125" xlink:href="#BitstreamVeraSans-Roman-4f"/>
     </g>
    </g>
   </g>
  </g>
 </g>
 <defs>
  <clipPath id="p7ff5b81e1d">
   <rect height="345.6" width="446.4" x="72.0" y="43.2"/>
  </clipPath>
 </defs>
</svg>
