<?xml version="1.0" standalone="no"?>
<!DOCTYPE svg PUBLIC "-//W3C//DTD SVG 1.1//EN"
  "http://www.w3.org/Graphics/SVG/1.1/DTD/svg11.dtd">
<!-- Created with matplotlib (http://matplotlib.sourceforge.net/) -->
<svg width="576pt" height="432pt" viewBox="0 0 576 432"
   xmlns="http://www.w3.org/2000/svg"
   xmlns:xlink="http://www.w3.org/1999/xlink"
   version="1.1"
   id="svg1">
<g id="figure1">
<g id="patch1">
<path style="fill: #ffffff; stroke: #ffffff; stroke-width: 1.000000; stroke-linejoin: round; stroke-linecap: square;  opacity: 1.000000"  d="M0.000000 432.000000L576.000000 432.000000L576.000000 0.000000
L0.000000 0.000000L0.000000 432.000000"/>
</g>
<g id="axes1">
<g id="patch2">
<path style="fill: #ffffff; opacity: 1.000000"  d="M72.000000 388.800000L518.400000 388.800000L518.400000 43.200000
L72.000000 43.200000L72.000000 388.800000"/>
</g>
<g id="line2d1">
<defs>
  <clipPath id="p50431ccdcb28178602d99d9270004dde">
<rect x="72.000000" y="43.200000" width="446.400000" height="345.600000"/>
  </clipPath>
</defs><path style="fill: none; stroke: #ff0000; stroke-width: 1.000000; stroke-linejoin: round; stroke-linecap: square;  opacity: 1.000000" clip-path="url(#p50431ccdcb28178602d99d9270004dde)" d="M72.000000 232.889731L72.446400 167.515027L72.892800 256.292294
L73.339200 261.300586L73.785600 254.340979L74.232000 259.427520
L74.678400 251.284608L75.124800 253.032509L75.571200 336.963053
L76.464000 270.747101L76.910400 264.865018L77.356800 309.014813
L77.803200 245.959574L78.249600 273.125635L78.696000 250.326259
L79.142400 269.518320L79.588800 253.210435L80.035200 264.068957
L80.481600 259.927603L80.928000 321.270480L81.374400 273.853958
L81.820800 271.890518L82.267200 335.796854L82.713600 263.838384
L83.160000 272.654957L83.606400 336.253248L84.052800 325.569571
L84.499200 337.535050L85.392000 321.103642L85.838400 170.776973
L86.731200 337.086893L87.177600 272.086042L87.624000 338.350493
L88.070400 257.298422L88.516800 307.334160L89.409600 314.006342
L89.856000 335.805581L90.302400 308.593958L90.748800 336.737462
L91.641600 318.292762L92.088000 338.591779L92.534400 337.293763
L92.980800 267.501888L93.873600 338.580317L94.766400 331.543728
L95.212800 337.220179L95.659200 338.240275L96.105600 319.969498
L96.552000 338.705021L96.998400 316.493222L97.891200 337.678704
L98.337600 259.571722L98.784000 337.451155L99.230400 309.198960
L99.676800 338.607706L100.569600 329.326070L101.016000 338.202547
L101.462400 337.077878L101.908800 319.126003L102.355200 337.787136
L103.248000 329.055293L103.694400 339.458573L104.140800 337.427482
L105.033600 262.920038L105.926400 337.694026L106.372800 338.744419
L106.819200 317.593210L107.265600 336.901824L108.158400 317.272752
L108.604800 337.144522L109.497600 308.486506L110.390400 322.599139
L110.836800 338.482282L111.283200 337.338634L111.729600 329.892768
L112.176000 338.875834L113.068800 295.735680L113.515200 338.311411
L113.961600 315.743674L114.408000 338.570986L114.854400 337.490150
L115.300800 320.046682L115.747200 336.680410L116.193600 335.127802
L117.086400 309.009427L117.532800 337.314010L117.979200 336.097382
L118.425600 337.368298L119.764800 309.617654L120.211200 338.906246
L120.657600 314.107574L121.104000 337.236451L121.550400 333.384250
L121.996800 337.280112L122.889600 331.937971L123.782400 307.773187
L124.228800 337.770461L124.675200 308.380147L125.121600 315.396230
L125.568000 336.468960L126.460800 309.979584L126.907200 336.640406
L127.800000 337.746413L128.246400 292.874746L129.139200 329.555434
L129.585600 338.758128L130.478400 329.018458L130.924800 338.544547
L131.371200 336.424378L131.817600 338.378112L133.156800 314.396698
L133.603200 338.163869L134.049600 323.565293L134.496000 337.990090
L134.942400 317.033626L135.388800 337.840042L135.835200 339.081466
L136.281600 337.222253L136.728000 308.411654L137.174400 337.087008
L137.620800 308.565504L138.513600 320.744765L138.960000 337.496170
L140.299200 282.412253L140.745600 337.353754L141.638400 329.074560
L142.084800 337.800154L142.977600 326.706019L143.424000 337.681354
L144.316800 323.155526L144.763200 337.323139L145.656000 329.855270
L146.102400 338.055984L146.995200 321.295248L147.441600 338.042794
L147.888000 337.009651L148.334400 302.763830L148.780800 313.059686
L149.227200 336.563539L150.120000 337.967424L150.566400 329.274058
L151.012800 335.422368L151.459200 286.597152L151.905600 315.661421
L152.352000 321.110986L152.798400 287.908790L153.244800 335.726467
L154.137600 309.871901L154.584000 317.160288L155.476800 310.717037
L155.923200 337.403261L156.816000 336.279715L157.262400 304.938634
L157.708800 338.305363L158.155200 337.058064L158.601600 331.283578
L159.048000 337.500922L159.940800 322.431235L160.387200 338.611075
L161.280000 329.550163L161.726400 335.295360L162.172800 336.537936
L163.065600 286.453555L163.512000 337.244515L164.404800 317.704925
L164.851200 284.699347L165.744000 337.419792L166.636800 309.109219
L167.083200 337.277664L167.976000 336.045802L168.422400 338.319994
L168.868800 308.230243L169.315200 336.954355L170.208000 329.063213
L170.654400 337.197629L171.547200 308.451197L171.993600 337.010400
L172.440000 329.943888L172.886400 316.524557L173.332800 314.616355
L173.779200 337.227581L174.672000 322.889443L175.118400 337.661827
L175.564800 336.406493L176.011200 331.535578L176.457600 337.495565
L177.350400 320.549587L177.796800 336.495946L178.243200 335.427293
L178.689600 331.691270L179.136000 337.590720L180.028800 320.791939
L180.475200 336.359030L181.368000 309.812717L181.814400 336.957466
L183.153600 338.051866L183.600000 328.405306L184.046400 336.960000
L184.939200 301.191149L185.385600 337.478918L185.832000 329.870160
L186.278400 308.751725L186.724800 337.221475L187.171200 317.122531
L187.617600 337.145933L188.064000 327.352032L188.510400 337.461466
L189.403200 308.999635L189.849600 339.282230L190.296000 288.456307
L191.188800 336.311453L192.081600 337.465930L192.974400 314.839786
L193.420800 281.987107L193.867200 338.223370L194.313600 322.316381
L194.760000 337.448995L195.206400 315.697306L195.652800 337.979002
L196.992000 312.863760L197.438400 337.771555L197.884800 318.476909
L198.331200 337.750646L199.224000 322.293946L199.670400 337.111834
L201.009600 338.664557L201.456000 305.548618L201.902400 337.565635
L202.795200 310.844160L203.241600 337.573814L203.688000 315.263808
L204.134400 335.930371L204.580800 337.317235L205.027200 294.648077
L205.473600 337.604515L205.920000 322.682342L206.366400 337.931683
L207.259200 299.526019L207.705600 336.296707L208.152000 317.978179
L208.598400 316.150646L209.044800 317.663309L209.491200 337.492022
L209.937600 308.104704L210.384000 336.214656L210.830400 316.500566
L211.723200 337.272077L212.616000 282.224707L213.062400 336.634618
L213.955200 338.990688L214.401600 315.654134L214.848000 336.470947
L216.187200 336.099254L216.633600 337.110653L217.526400 334.885363
L217.972800 338.832749L219.312000 310.027651L219.758400 338.891501
L220.204800 315.551981L220.651200 336.940992L221.990400 313.696800
L222.436800 337.358275L222.883200 336.071808L223.329600 315.104688
L223.776000 336.723466L224.222400 317.330266L224.668800 337.099939
L225.115200 322.572586L225.561600 336.815338L226.900800 312.143731
L227.793600 336.923798L228.686400 322.982899L229.132800 337.864982
L230.025600 308.614781L230.472000 336.846989L230.918400 315.545530
L231.364800 336.472214L231.811200 314.983354L232.257600 337.523242
L233.150400 331.594070L233.596800 336.423600L234.489600 326.264342
L234.936000 338.450976L235.828800 332.713411L236.275200 337.390099
L236.721600 284.081587L237.168000 338.238950L238.060800 317.241878
L238.507200 339.071904L238.953600 337.703213L239.846400 313.591536
L240.292800 318.451939L240.739200 316.191802L241.632000 337.312166
L242.524800 323.066016L242.971200 308.132928L243.417600 316.149811
L243.864000 336.303475L244.310400 337.331146L244.756800 307.074787
L245.203200 338.138266L245.649600 316.824509L246.988800 337.849920
L247.435200 336.637267L247.881600 331.112851L248.328000 309.817498
L249.220800 337.518576L250.113600 320.801818L250.560000 338.100250
L251.006400 336.564662L251.452800 331.391779L251.899200 338.304240
L252.345600 336.267706L252.792000 315.864605L253.238400 336.590323
L253.684800 329.104541L254.131200 338.479978L254.577600 336.239453
L255.024000 329.583830L255.470400 338.091725L255.916800 308.721600
L256.363200 337.174272L257.256000 268.169213L257.702400 336.102653
L259.041600 309.491885L259.488000 336.556426L259.934400 316.935302
L260.380800 337.263437L261.273600 325.180483L261.720000 338.022202
L262.612800 331.159306L263.059200 315.008179L263.505600 317.279232
L263.952000 336.402432L264.844800 327.379421L265.291200 337.130784
L265.737600 315.666749L266.184000 338.206435L266.630400 336.455251
L267.969600 313.925558L268.862400 336.490560L269.308800 313.737955
L269.755200 338.572454L270.648000 331.132464L271.094400 282.667939
L271.540800 336.623472L271.987200 315.682618L272.433600 318.036384
L272.880000 338.741942L273.772800 330.591427L274.665600 307.908547
L275.112000 338.319878L276.004800 336.630902L276.897600 315.383558
L277.344000 337.913482L277.790400 336.578544L278.236800 321.856445
L278.683200 337.292064L279.129600 309.887366L279.576000 338.487638
L280.468800 299.359440L281.808000 337.649270L282.254400 326.772000
L282.700800 336.951360L283.593600 323.175082L284.040000 338.134118
L284.932800 329.819242L285.379200 337.108061L286.718400 336.599597
L287.164800 310.258080L287.611200 337.473245L288.057600 282.457642
L288.504000 307.946102L288.950400 310.025261L289.396800 339.184051
L289.843200 314.680522L290.289600 337.702550L290.736000 309.786221
L291.628800 316.260374L292.075200 335.377670L292.521600 337.058899
L293.414400 333.260611L293.860800 336.843706L294.753600 307.405354
L295.200000 337.222627L295.646400 321.412090L296.092800 336.965069
L296.539200 335.614205L296.985600 327.825907L297.432000 337.613357
L297.878400 309.725539L298.324800 336.800189L299.664000 339.004368
L300.110400 336.707712L300.556800 292.543632L301.003200 337.252147
L301.449600 310.493923L301.896000 338.329094L302.788800 303.590909
L303.681600 313.677878L304.128000 265.783536L304.574400 335.518646
L305.020800 297.076925L305.467200 336.767011L305.913600 317.250432
L306.806400 307.523434L307.252800 338.470790L307.699200 263.709043
L308.145600 337.965206L308.592000 328.656557L309.038400 335.683872
L309.484800 305.522813L309.931200 338.104915L310.824000 328.117478
L311.270400 337.164566L311.716800 315.379469L312.163200 336.151987
L313.056000 338.009674L314.395200 337.411123L314.841600 329.810083
L315.288000 336.755491L315.734400 338.465549L316.180800 311.511888
L316.627200 329.811494L317.520000 316.474416L317.966400 290.191478
L318.412800 336.945110L318.859200 318.874896L319.305600 336.401136
L319.752000 339.181574L320.198400 332.785354L320.644800 336.966192
L321.537600 335.207002L321.984000 337.320864L322.430400 335.751581
L322.876800 307.001203L323.323200 309.191501L323.769600 314.062934
L324.216000 336.678854L324.662400 299.256710L325.108800 309.865162
L325.555200 337.309315L326.894400 337.939632L327.340800 336.653050
L328.233600 68.834304L328.680000 336.157805L329.126400 296.535802
L330.019200 337.596682L330.465600 310.533062L330.912000 337.188787
L331.358400 336.178656L331.804800 306.088733L332.251200 336.648586
L332.697600 315.182448L333.144000 336.267101L334.036800 309.748435
L334.483200 336.047069L334.929600 294.956467L335.376000 337.456886
L336.268800 310.182826L336.715200 309.128141L337.161600 338.927875
L337.608000 327.750307L338.054400 336.083386L338.500800 337.262429
L339.840000 337.515293L340.286400 322.778275L340.732800 333.951984
L341.179200 336.412598L342.072000 287.059651L342.964800 337.254566
L343.857600 311.031331L344.304000 316.362845L344.750400 339.281366
L345.196800 251.457494L345.643200 337.635043L346.089600 320.387299
L346.536000 336.593376L347.428800 334.560730L347.875200 338.164589
L348.768000 308.199168L349.214400 314.313725L349.660800 336.342240
L350.553600 316.217434L351.000000 336.761050L352.339200 335.936390
L352.785600 314.241494L353.232000 322.106918L353.678400 336.063715
L354.571200 337.179917L355.017600 335.912890L355.910400 299.742278
L356.356800 337.512787L358.142400 316.093853L358.588800 317.131805
L359.035200 336.635510L359.928000 334.911542L360.374400 336.716582
L361.267200 327.764131L361.713600 337.580986L363.052800 337.457376
L363.499200 312.194045L363.945600 309.611462L364.838400 336.692678
L365.284800 337.981680L365.731200 310.661741L366.624000 337.376534
L367.516800 338.809853L368.409600 311.262365L368.856000 335.525299
L369.302400 314.685245L369.748800 316.670515L370.195200 336.553603
L371.088000 314.808883L371.534400 336.712205L371.980800 307.170979
L372.427200 337.912416L373.766400 333.561658L374.212800 314.949888
L374.659200 336.410381L375.105600 317.299622L375.552000 335.631370
L375.998400 316.815725L376.444800 318.238992L376.891200 337.509389
L377.784000 274.174272L378.676800 316.841184L379.123200 288.985334
L379.569600 336.501763L380.016000 337.610275L380.462400 336.259901
L380.908800 337.750387L381.355200 335.767795L382.248000 336.793334
L382.694400 326.832739L383.140800 337.236682L384.480000 337.257763
L384.926400 309.534941L385.372800 336.135542L386.265600 314.500781
L386.712000 334.489910L387.604800 337.819190L388.944000 327.017981
L389.390400 338.191949L390.283200 333.427622L390.729600 337.013942
L391.176000 314.648842L391.622400 335.111069L392.068800 45.411062
L392.515200 336.877661L393.408000 333.598090L393.854400 315.790186
L394.300800 319.662518L394.747200 337.467830L395.640000 308.967782
L396.086400 316.564646L396.532800 335.849040L396.979200 337.975574
L397.872000 336.723610L398.764800 308.857104L399.211200 310.958525
L399.657600 335.751120L400.996800 336.978317L401.443200 311.031101
L401.889600 338.000285L402.336000 315.527760L402.782400 333.814147
L403.228800 336.662870L403.675200 281.382883L404.121600 337.858243
L404.568000 315.339552L405.014400 337.325933L405.460800 336.154550
L406.800000 335.972246L407.246400 329.659258L408.139200 338.337331
L408.585600 334.508083L409.032000 314.232710L409.478400 336.776947
L412.156800 336.416890L412.603200 337.573670L413.496000 329.534669
L413.942400 305.121629L414.388800 330.065453L414.835200 336.279571
L415.728000 305.812570L416.174400 337.016131L416.620800 320.481418
L417.067200 339.036134L417.513600 336.428669L418.852800 336.040877
L420.192000 315.085680L420.638400 338.274461L421.531200 317.868221
L421.977600 337.576061L422.870400 328.317955L423.316800 338.001293
L424.209600 306.618912L424.656000 315.740275L425.102400 337.907693
L425.548800 316.136160L425.995200 336.830342L427.334400 329.593910
L427.780800 337.105498L429.120000 338.040576L430.012800 304.242048
L430.459200 338.048813L430.905600 297.408298L431.352000 338.214211
L431.798400 281.051136L432.691200 335.307024L433.137600 336.662698
L434.030400 335.203258L435.369600 335.231510L435.816000 336.719923
L436.262400 315.420566L436.708800 338.232326L437.601600 317.126995
L438.048000 337.171680L438.494400 289.659974L438.940800 334.996762
L439.387200 310.549507L439.833600 337.438282L440.726400 303.539155
L441.172800 336.351888L441.619200 322.113024L442.065600 275.454403
L442.512000 337.287254L442.958400 311.431536L443.404800 337.839984
L443.851200 335.958653L444.297600 337.475866L445.636800 328.536403
L446.083200 338.271667L446.529600 335.884464L447.422400 313.948166
L447.868800 294.431386L448.315200 337.156733L448.761600 265.432522
L449.654400 338.235955L450.547200 335.161814L450.993600 310.856458
L451.440000 329.599267L452.332800 299.812723L452.779200 337.523990
L453.225600 320.474534L453.672000 336.443875L454.118400 337.679885
L454.564800 307.808698L455.011200 337.650941L455.457600 320.568797
L455.904000 336.092342L456.350400 337.129661L456.796800 329.981846
L457.243200 336.544531L458.582400 337.869734L459.475200 333.206755
L459.921600 336.940560L460.814400 338.476723L461.707200 329.521910
L462.153600 337.671216L462.600000 309.366979L463.046400 335.027462
L463.939200 320.993510L464.385600 335.563402L465.278400 332.606506
L465.724800 335.774534L466.171200 314.957002L466.617600 316.690502
L467.510400 338.051952L467.956800 336.814301L468.403200 337.830250
L469.296000 336.705523L470.635200 330.829027L471.081600 336.860150
L472.420800 337.002192L472.867200 314.381290L473.313600 338.774602
L473.760000 337.180838L474.206400 315.573350L474.652800 335.899152
L475.545600 338.481446L475.992000 285.026918L476.884800 335.508422
L477.777600 337.500432L478.224000 335.510150L478.670400 306.425549
L479.116800 300.572064L479.563200 337.611744L480.456000 327.832819
L480.902400 336.977309L481.348800 313.610602L481.795200 337.712573
L482.688000 287.052768L483.134400 336.562070L483.580800 326.174630
L484.027200 336.916282L484.920000 330.098918L485.366400 337.406400
L485.812800 338.431997L486.259200 308.751005L487.152000 337.237978
L488.491200 309.316781L488.937600 337.468003L490.276800 307.748189
L490.723200 336.928925L491.616000 320.357750L492.062400 337.140749
L492.508800 335.740982L492.955200 284.606928L493.401600 314.710330
L493.848000 315.833040L494.294400 335.572042L494.740800 317.480342
L495.187200 337.054061L496.080000 313.293456L496.526400 336.806150
L497.419200 338.709283L497.865600 335.473632L498.312000 312.829258
L498.758400 336.970282L499.651200 331.537104L500.097600 336.250714
L501.436800 336.440534L501.883200 325.250006L502.329600 337.104835
L502.776000 315.596995L504.115200 337.821869L505.008000 320.745802
L505.454400 338.289667L505.900800 336.795206L507.240000 320.845248
L507.686400 336.870662L508.132800 338.244566L508.579200 336.502426
L509.025600 337.787222L509.472000 308.371651L509.918400 337.464115
L510.811200 322.530019L511.257600 336.276029L512.150400 313.947072
L512.596800 339.081494L513.043200 324.157997L513.489600 335.950934
L514.382400 307.570896L514.828800 337.840675L515.275200 333.184176
L515.721600 336.748147L516.614400 331.574314L517.060800 337.128422
L517.953600 289.261094L517.953600 289.261094"/>
</g>
<g id="matplotlib.axis1">
<g id="xtick1">
<g id="line2d2">
<path style="fill: none; stroke: #000000; stroke-width: 0.500000; stroke-linejoin: round; stroke-linecap: butt; stroke-dasharray: 1.000000,3.000000; stroke-dashoffset: 0.000000; opacity: 1.000000" clip-path="url(#p50431ccdcb28178602d99d9270004dde)" d="M72.000000 388.800000L72.000000 43.200000"/>
</g>
<g id="line2d3">
<defs><path id="m30e32995789d870ad79a2e54c91cf9c6" d="M0.000000 0.000000L0.000000 -4.000000"/></defs>
<g ><use style="fill: none; stroke: #000000; stroke-width: 0.500000; stroke-linejoin: round; stroke-linecap: butt;  opacity: 1.000000" xlink:href="#m30e32995789d870ad79a2e54c91cf9c6" x="72.000000" y="388.800000"/>
</g></g>
<g id="line2d4">
<defs><path id="m9281cae24120827b11d5ea8a7ad3e96b" d="M0.000000 0.000000L0.000000 4.000000"/></defs>
<g ><use style="fill: none; stroke: #000000; stroke-width: 0.500000; stroke-linejoin: round; stroke-linecap: butt;  opacity: 1.000000" xlink:href="#m9281cae24120827b11d5ea8a7ad3e96b" x="72.000000" y="43.200000"/>
</g></g>
<g id="text1">
<defs>
<path id="c_7a2040fe3b94fcd41d0a72c84e93b115" d="M31.781250 -66.406250q-7.609375 0.000000 -11.453125 7.500000q-3.828125 7.484375 -3.828125 22.531250q0.000000 14.984375 3.828125 22.484375q3.843750 7.500000 11.453125 7.500000q7.671875 0.000000 11.500000 -7.500000q3.843750 -7.500000 3.843750 -22.484375q0.000000 -15.046875 -3.843750 -22.531250q-3.828125 -7.500000 -11.500000 -7.500000M31.781250 -74.218750q12.265625 0.000000 18.734375 9.703125q6.468750 9.687500 6.468750 28.140625q0.000000 18.406250 -6.468750 28.109375q-6.468750 9.687500 -18.734375 9.687500q-12.250000 0.000000 -18.718750 -9.687500q-6.468750 -9.703125 -6.468750 -28.109375q0.000000 -18.453125 6.468750 -28.140625q6.468750 -9.703125 18.718750 -9.703125"/>
</defs>
<g style="fill: #000000; opacity: 1.000000" transform="translate(68.976562,401.706250)scale(0.120000)">
<use xlink:href="#c_7a2040fe3b94fcd41d0a72c84e93b115"/>
</g>
</g>
</g>
<g id="xtick2">
<g id="line2d5">
<path style="fill: none; stroke: #000000; stroke-width: 0.500000; stroke-linejoin: round; stroke-linecap: butt; stroke-dasharray: 1.000000,3.000000; stroke-dashoffset: 0.000000; opacity: 1.000000" clip-path="url(#p50431ccdcb28178602d99d9270004dde)" d="M161.280000 388.800000L161.280000 43.200000"/>
</g>
<g id="line2d6">
<g ><use style="fill: none; stroke: #000000; stroke-width: 0.500000; stroke-linejoin: round; stroke-linecap: butt;  opacity: 1.000000" xlink:href="#m30e32995789d870ad79a2e54c91cf9c6" x="161.280000" y="388.800000"/>
</g></g>
<g id="line2d7">
<g ><use style="fill: none; stroke: #000000; stroke-width: 0.500000; stroke-linejoin: round; stroke-linecap: butt;  opacity: 1.000000" xlink:href="#m9281cae24120827b11d5ea8a7ad3e96b" x="161.280000" y="43.200000"/>
</g></g>
<g id="text2">
<defs>
<path id="c_ed3f3ed3ebfbd18bcb9c012009a68ad1" d="M19.187500 -8.296875l34.421875 0.000000l0.000000 8.296875l-46.281250 0.000000l0.000000 -8.296875q5.609375 -5.812500 15.296875 -15.593750q9.703125 -9.796875 12.187500 -12.640625q4.734375 -5.312500 6.609375 -9.000000q1.890625 -3.687500 1.890625 -7.250000q0.000000 -5.812500 -4.078125 -9.468750q-4.078125 -3.671875 -10.625000 -3.671875q-4.640625 0.000000 -9.796875 1.609375q-5.140625 1.609375 -11.000000 4.890625l0.000000 -9.968750q5.953125 -2.390625 11.125000 -3.609375q5.187500 -1.218750 9.484375 -1.218750q11.328125 0.000000 18.062500 5.671875q6.734375 5.656250 6.734375 15.125000q0.000000 4.500000 -1.687500 8.531250q-1.671875 4.015625 -6.125000 9.484375q-1.218750 1.421875 -7.765625 8.187500q-6.531250 6.765625 -18.453125 18.921875"/>
</defs>
<g style="fill: #000000; opacity: 1.000000" transform="translate(150.655000,401.706250)scale(0.120000)">
<use xlink:href="#c_ed3f3ed3ebfbd18bcb9c012009a68ad1"/>
<use xlink:href="#c_7a2040fe3b94fcd41d0a72c84e93b115" x="63.623047"/>
<use xlink:href="#c_7a2040fe3b94fcd41d0a72c84e93b115" x="127.246094"/>
</g>
</g>
</g>
<g id="xtick3">
<g id="line2d8">
<path style="fill: none; stroke: #000000; stroke-width: 0.500000; stroke-linejoin: round; stroke-linecap: butt; stroke-dasharray: 1.000000,3.000000; stroke-dashoffset: 0.000000; opacity: 1.000000" clip-path="url(#p50431ccdcb28178602d99d9270004dde)" d="M250.560000 388.800000L250.560000 43.200000"/>
</g>
<g id="line2d9">
<g ><use style="fill: none; stroke: #000000; stroke-width: 0.500000; stroke-linejoin: round; stroke-linecap: butt;  opacity: 1.000000" xlink:href="#m30e32995789d870ad79a2e54c91cf9c6" x="250.560000" y="388.800000"/>
</g></g>
<g id="line2d10">
<g ><use style="fill: none; stroke: #000000; stroke-width: 0.500000; stroke-linejoin: round; stroke-linecap: butt;  opacity: 1.000000" xlink:href="#m9281cae24120827b11d5ea8a7ad3e96b" x="250.560000" y="43.200000"/>
</g></g>
<g id="text3">
<defs>
<path id="c_a0416418d96557a09b8c1332d34883ba" d="M37.796875 -64.312500l-24.906250 38.921875l24.906250 0.000000zM35.203125 -72.906250l12.406250 0.000000l0.000000 47.515625l10.406250 0.000000l0.000000 8.203125l-10.406250 0.000000l0.000000 17.187500l-9.812500 0.000000l0.000000 -17.187500l-32.906250 0.000000l0.000000 -9.515625z"/>
</defs>
<g style="fill: #000000; opacity: 1.000000" transform="translate(239.794375,401.706250)scale(0.120000)">
<use xlink:href="#c_a0416418d96557a09b8c1332d34883ba"/>
<use xlink:href="#c_7a2040fe3b94fcd41d0a72c84e93b115" x="63.623047"/>
<use xlink:href="#c_7a2040fe3b94fcd41d0a72c84e93b115" x="127.246094"/>
</g>
</g>
</g>
<g id="xtick4">
<g id="line2d11">
<path style="fill: none; stroke: #000000; stroke-width: 0.500000; stroke-linejoin: round; stroke-linecap: butt; stroke-dasharray: 1.000000,3.000000; stroke-dashoffset: 0.000000; opacity: 1.000000" clip-path="url(#p50431ccdcb28178602d99d9270004dde)" d="M339.840000 388.800000L339.840000 43.200000"/>
</g>
<g id="line2d12">
<g ><use style="fill: none; stroke: #000000; stroke-width: 0.500000; stroke-linejoin: round; stroke-linecap: butt;  opacity: 1.000000" xlink:href="#m30e32995789d870ad79a2e54c91cf9c6" x="339.840000" y="388.800000"/>
</g></g>
<g id="line2d13">
<g ><use style="fill: none; stroke: #000000; stroke-width: 0.500000; stroke-linejoin: round; stroke-linecap: butt;  opacity: 1.000000" xlink:href="#m9281cae24120827b11d5ea8a7ad3e96b" x="339.840000" y="43.200000"/>
</g></g>
<g id="text4">
<defs>
<path id="c_cc8d6d580d1b10c8632f7a42cd53db8a" d="M33.015625 -40.375000q-6.640625 0.000000 -10.531250 4.546875q-3.875000 4.531250 -3.875000 12.437500q0.000000 7.859375 3.875000 12.437500q3.890625 4.562500 10.531250 4.562500q6.640625 0.000000 10.515625 -4.562500q3.875000 -4.578125 3.875000 -12.437500q0.000000 -7.906250 -3.875000 -12.437500q-3.875000 -4.546875 -10.515625 -4.546875M52.593750 -71.296875l0.000000 8.984375q-3.718750 -1.750000 -7.500000 -2.671875q-3.781250 -0.937500 -7.500000 -0.937500q-9.765625 0.000000 -14.921875 6.593750q-5.140625 6.593750 -5.875000 19.921875q2.875000 -4.250000 7.218750 -6.515625q4.359375 -2.265625 9.578125 -2.265625q10.984375 0.000000 17.359375 6.671875q6.375000 6.656250 6.375000 18.125000q0.000000 11.234375 -6.640625 18.031250q-6.640625 6.781250 -17.671875 6.781250q-12.656250 0.000000 -19.343750 -9.687500q-6.687500 -9.703125 -6.687500 -28.109375q0.000000 -17.281250 8.203125 -27.562500q8.203125 -10.281250 22.015625 -10.281250q3.718750 0.000000 7.500000 0.734375q3.781250 0.734375 7.890625 2.187500"/>
</defs>
<g style="fill: #000000; opacity: 1.000000" transform="translate(329.199375,401.706250)scale(0.120000)">
<use xlink:href="#c_cc8d6d580d1b10c8632f7a42cd53db8a"/>
<use xlink:href="#c_7a2040fe3b94fcd41d0a72c84e93b115" x="63.623047"/>
<use xlink:href="#c_7a2040fe3b94fcd41d0a72c84e93b115" x="127.246094"/>
</g>
</g>
</g>
<g id="xtick5">
<g id="line2d14">
<path style="fill: none; stroke: #000000; stroke-width: 0.500000; stroke-linejoin: round; stroke-linecap: butt; stroke-dasharray: 1.000000,3.000000; stroke-dashoffset: 0.000000; opacity: 1.000000" clip-path="url(#p50431ccdcb28178602d99d9270004dde)" d="M429.120000 388.800000L429.120000 43.200000"/>
</g>
<g id="line2d15">
<g ><use style="fill: none; stroke: #000000; stroke-width: 0.500000; stroke-linejoin: round; stroke-linecap: butt;  opacity: 1.000000" xlink:href="#m30e32995789d870ad79a2e54c91cf9c6" x="429.120000" y="388.800000"/>
</g></g>
<g id="line2d16">
<g ><use style="fill: none; stroke: #000000; stroke-width: 0.500000; stroke-linejoin: round; stroke-linecap: butt;  opacity: 1.000000" xlink:href="#m9281cae24120827b11d5ea8a7ad3e96b" x="429.120000" y="43.200000"/>
</g></g>
<g id="text5">
<defs>
<path id="c_bef35738d52871942e50b9de9b122bab" d="M31.781250 -34.625000q-7.031250 0.000000 -11.062500 3.765625q-4.015625 3.765625 -4.015625 10.343750q0.000000 6.593750 4.015625 10.359375q4.031250 3.765625 11.062500 3.765625q7.031250 0.000000 11.078125 -3.781250q4.062500 -3.796875 4.062500 -10.343750q0.000000 -6.578125 -4.031250 -10.343750q-4.015625 -3.765625 -11.109375 -3.765625M21.921875 -38.812500q-6.343750 -1.562500 -9.890625 -5.906250q-3.531250 -4.359375 -3.531250 -10.609375q0.000000 -8.734375 6.218750 -13.812500q6.234375 -5.078125 17.062500 -5.078125q10.890625 0.000000 17.093750 5.078125q6.203125 5.078125 6.203125 13.812500q0.000000 6.250000 -3.546875 10.609375q-3.531250 4.343750 -9.828125 5.906250q7.125000 1.656250 11.093750 6.500000q3.984375 4.828125 3.984375 11.796875q0.000000 10.609375 -6.468750 16.281250q-6.468750 5.656250 -18.531250 5.656250q-12.046875 0.000000 -18.531250 -5.656250q-6.468750 -5.671875 -6.468750 -16.281250q0.000000 -6.968750 4.000000 -11.796875q4.015625 -4.843750 11.140625 -6.500000M18.312500 -54.390625q0.000000 5.656250 3.531250 8.828125q3.546875 3.171875 9.937500 3.171875q6.359375 0.000000 9.937500 -3.171875q3.593750 -3.171875 3.593750 -8.828125q0.000000 -5.671875 -3.593750 -8.843750q-3.578125 -3.171875 -9.937500 -3.171875q-6.390625 0.000000 -9.937500 3.171875q-3.531250 3.171875 -3.531250 8.843750"/>
</defs>
<g style="fill: #000000; opacity: 1.000000" transform="translate(418.463750,401.706250)scale(0.120000)">
<use xlink:href="#c_bef35738d52871942e50b9de9b122bab"/>
<use xlink:href="#c_7a2040fe3b94fcd41d0a72c84e93b115" x="63.623047"/>
<use xlink:href="#c_7a2040fe3b94fcd41d0a72c84e93b115" x="127.246094"/>
</g>
</g>
</g>
<g id="xtick6">
<g id="line2d17">
<path style="fill: none; stroke: #000000; stroke-width: 0.500000; stroke-linejoin: round; stroke-linecap: butt; stroke-dasharray: 1.000000,3.000000; stroke-dashoffset: 0.000000; opacity: 1.000000" clip-path="url(#p50431ccdcb28178602d99d9270004dde)" d="M518.400000 388.800000L518.400000 43.200000"/>
</g>
<g id="line2d18">
<g ><use style="fill: none; stroke: #000000; stroke-width: 0.500000; stroke-linejoin: round; stroke-linecap: butt;  opacity: 1.000000" xlink:href="#m30e32995789d870ad79a2e54c91cf9c6" x="518.400000" y="388.800000"/>
</g></g>
<g id="line2d19">
<g ><use style="fill: none; stroke: #000000; stroke-width: 0.500000; stroke-linejoin: round; stroke-linecap: butt;  opacity: 1.000000" xlink:href="#m9281cae24120827b11d5ea8a7ad3e96b" x="518.400000" y="43.200000"/>
</g></g>
<g id="text6">
<defs>
<path id="c_42baa63129a918535c52adb20d687ea7" d="M12.406250 -8.296875l16.109375 0.000000l0.000000 -55.625000l-17.531250 3.515625l0.000000 -8.984375l17.437500 -3.515625l9.859375 0.000000l0.000000 64.609375l16.109375 0.000000l0.000000 8.296875l-41.984375 0.000000z"/>
</defs>
<g style="fill: #000000; opacity: 1.000000" transform="translate(504.173437,401.706250)scale(0.120000)">
<use xlink:href="#c_42baa63129a918535c52adb20d687ea7"/>
<use xlink:href="#c_7a2040fe3b94fcd41d0a72c84e93b115" x="63.623047"/>
<use xlink:href="#c_7a2040fe3b94fcd41d0a72c84e93b115" x="127.246094"/>
<use xlink:href="#c_7a2040fe3b94fcd41d0a72c84e93b115" x="190.869141"/>
</g>
</g>
</g>
</g>
<g id="matplotlib.axis2">
<g id="ytick1">
<g id="line2d20">
<path style="fill: none; stroke: #000000; stroke-width: 0.500000; stroke-linejoin: round; stroke-linecap: butt; stroke-dasharray: 1.000000,3.000000; stroke-dashoffset: 0.000000; opacity: 1.000000" clip-path="url(#p50431ccdcb28178602d99d9270004dde)" d="M72.000000 388.800000L518.400000 388.800000"/>
</g>
<g id="line2d21">
<defs><path id="m3400efa6b1638b3fea9e19e898273957" d="M0.000000 0.000000L4.000000 0.000000"/></defs>
<g ><use style="fill: none; stroke: #000000; stroke-width: 0.500000; stroke-linejoin: round; stroke-linecap: butt;  opacity: 1.000000" xlink:href="#m3400efa6b1638b3fea9e19e898273957" x="72.000000" y="388.800000"/>
</g></g>
<g id="line2d22">
<defs><path id="m20b58b2501143cb5e0a5e8f1ef6f1643" d="M0.000000 0.000000L-4.000000 0.000000"/></defs>
<g ><use style="fill: none; stroke: #000000; stroke-width: 0.500000; stroke-linejoin: round; stroke-linecap: butt;  opacity: 1.000000" xlink:href="#m20b58b2501143cb5e0a5e8f1ef6f1643" x="518.400000" y="388.800000"/>
</g></g>
<g id="text7">
<defs>
<path id="c_ed3e21196fb739f392806f09ca0594ef" d="M10.687500 -12.406250l10.312500 0.000000l0.000000 12.406250l-10.312500 0.000000z"/>
</defs>
<g style="fill: #000000; opacity: 1.000000" transform="translate(35.625000,393.167188)scale(0.120000)">
<use xlink:href="#c_7a2040fe3b94fcd41d0a72c84e93b115"/>
<use xlink:href="#c_ed3e21196fb739f392806f09ca0594ef" x="63.623047"/>
<use xlink:href="#c_7a2040fe3b94fcd41d0a72c84e93b115" x="95.410156"/>
<use xlink:href="#c_7a2040fe3b94fcd41d0a72c84e93b115" x="159.033203"/>
<use xlink:href="#c_ed3f3ed3ebfbd18bcb9c012009a68ad1" x="222.656250"/>
</g>
</g>
</g>
<g id="ytick2">
<g id="line2d23">
<path style="fill: none; stroke: #000000; stroke-width: 0.500000; stroke-linejoin: round; stroke-linecap: butt; stroke-dasharray: 1.000000,3.000000; stroke-dashoffset: 0.000000; opacity: 1.000000" clip-path="url(#p50431ccdcb28178602d99d9270004dde)" d="M72.000000 331.200000L518.400000 331.200000"/>
</g>
<g id="line2d24">
<g ><use style="fill: none; stroke: #000000; stroke-width: 0.500000; stroke-linejoin: round; stroke-linecap: butt;  opacity: 1.000000" xlink:href="#m3400efa6b1638b3fea9e19e898273957" x="72.000000" y="331.200000"/>
</g></g>
<g id="line2d25">
<g ><use style="fill: none; stroke: #000000; stroke-width: 0.500000; stroke-linejoin: round; stroke-linecap: butt;  opacity: 1.000000" xlink:href="#m20b58b2501143cb5e0a5e8f1ef6f1643" x="518.400000" y="331.200000"/>
</g></g>
<g id="text8">
<g style="fill: #000000; opacity: 1.000000" transform="translate(35.093750,335.567188)scale(0.120000)">
<use xlink:href="#c_7a2040fe3b94fcd41d0a72c84e93b115"/>
<use xlink:href="#c_ed3e21196fb739f392806f09ca0594ef" x="63.623047"/>
<use xlink:href="#c_7a2040fe3b94fcd41d0a72c84e93b115" x="95.410156"/>
<use xlink:href="#c_7a2040fe3b94fcd41d0a72c84e93b115" x="159.033203"/>
<use xlink:href="#c_a0416418d96557a09b8c1332d34883ba" x="222.656250"/>
</g>
</g>
</g>
<g id="ytick3">
<g id="line2d26">
<path style="fill: none; stroke: #000000; stroke-width: 0.500000; stroke-linejoin: round; stroke-linecap: butt; stroke-dasharray: 1.000000,3.000000; stroke-dashoffset: 0.000000; opacity: 1.000000" clip-path="url(#p50431ccdcb28178602d99d9270004dde)" d="M72.000000 273.600000L518.400000 273.600000"/>
</g>
<g id="line2d27">
<g ><use style="fill: none; stroke: #000000; stroke-width: 0.500000; stroke-linejoin: round; stroke-linecap: butt;  opacity: 1.000000" xlink:href="#m3400efa6b1638b3fea9e19e898273957" x="72.000000" y="273.600000"/>
</g></g>
<g id="line2d28">
<g ><use style="fill: none; stroke: #000000; stroke-width: 0.500000; stroke-linejoin: round; stroke-linecap: butt;  opacity: 1.000000" xlink:href="#m20b58b2501143cb5e0a5e8f1ef6f1643" x="518.400000" y="273.600000"/>
</g></g>
<g id="text9">
<g style="fill: #000000; opacity: 1.000000" transform="translate(35.187500,277.967188)scale(0.120000)">
<use xlink:href="#c_7a2040fe3b94fcd41d0a72c84e93b115"/>
<use xlink:href="#c_ed3e21196fb739f392806f09ca0594ef" x="63.623047"/>
<use xlink:href="#c_7a2040fe3b94fcd41d0a72c84e93b115" x="95.410156"/>
<use xlink:href="#c_7a2040fe3b94fcd41d0a72c84e93b115" x="159.033203"/>
<use xlink:href="#c_cc8d6d580d1b10c8632f7a42cd53db8a" x="222.656250"/>
</g>
</g>
</g>
<g id="ytick4">
<g id="line2d29">
<path style="fill: none; stroke: #000000; stroke-width: 0.500000; stroke-linejoin: round; stroke-linecap: butt; stroke-dasharray: 1.000000,3.000000; stroke-dashoffset: 0.000000; opacity: 1.000000" clip-path="url(#p50431ccdcb28178602d99d9270004dde)" d="M72.000000 216.000000L518.400000 216.000000"/>
</g>
<g id="line2d30">
<g ><use style="fill: none; stroke: #000000; stroke-width: 0.500000; stroke-linejoin: round; stroke-linecap: butt;  opacity: 1.000000" xlink:href="#m3400efa6b1638b3fea9e19e898273957" x="72.000000" y="216.000000"/>
</g></g>
<g id="line2d31">
<g ><use style="fill: none; stroke: #000000; stroke-width: 0.500000; stroke-linejoin: round; stroke-linecap: butt;  opacity: 1.000000" xlink:href="#m20b58b2501143cb5e0a5e8f1ef6f1643" x="518.400000" y="216.000000"/>
</g></g>
<g id="text10">
<g style="fill: #000000; opacity: 1.000000" transform="translate(35.250000,220.367188)scale(0.120000)">
<use xlink:href="#c_7a2040fe3b94fcd41d0a72c84e93b115"/>
<use xlink:href="#c_ed3e21196fb739f392806f09ca0594ef" x="63.623047"/>
<use xlink:href="#c_7a2040fe3b94fcd41d0a72c84e93b115" x="95.410156"/>
<use xlink:href="#c_7a2040fe3b94fcd41d0a72c84e93b115" x="159.033203"/>
<use xlink:href="#c_bef35738d52871942e50b9de9b122bab" x="222.656250"/>
</g>
</g>
</g>
<g id="ytick5">
<g id="line2d32">
<path style="fill: none; stroke: #000000; stroke-width: 0.500000; stroke-linejoin: round; stroke-linecap: butt; stroke-dasharray: 1.000000,3.000000; stroke-dashoffset: 0.000000; opacity: 1.000000" clip-path="url(#p50431ccdcb28178602d99d9270004dde)" d="M72.000000 158.400000L518.400000 158.400000"/>
</g>
<g id="line2d33">
<g ><use style="fill: none; stroke: #000000; stroke-width: 0.500000; stroke-linejoin: round; stroke-linecap: butt;  opacity: 1.000000" xlink:href="#m3400efa6b1638b3fea9e19e898273957" x="72.000000" y="158.400000"/>
</g></g>
<g id="line2d34">
<g ><use style="fill: none; stroke: #000000; stroke-width: 0.500000; stroke-linejoin: round; stroke-linecap: butt;  opacity: 1.000000" xlink:href="#m20b58b2501143cb5e0a5e8f1ef6f1643" x="518.400000" y="158.400000"/>
</g></g>
<g id="text11">
<g style="fill: #000000; opacity: 1.000000" transform="translate(35.218750,162.767188)scale(0.120000)">
<use xlink:href="#c_7a2040fe3b94fcd41d0a72c84e93b115"/>
<use xlink:href="#c_ed3e21196fb739f392806f09ca0594ef" x="63.623047"/>
<use xlink:href="#c_7a2040fe3b94fcd41d0a72c84e93b115" x="95.410156"/>
<use xlink:href="#c_42baa63129a918535c52adb20d687ea7" x="159.033203"/>
<use xlink:href="#c_7a2040fe3b94fcd41d0a72c84e93b115" x="222.656250"/>
</g>
</g>
</g>
<g id="ytick6">
<g id="line2d35">
<path style="fill: none; stroke: #000000; stroke-width: 0.500000; stroke-linejoin: round; stroke-linecap: butt; stroke-dasharray: 1.000000,3.000000; stroke-dashoffset: 0.000000; opacity: 1.000000" clip-path="url(#p50431ccdcb28178602d99d9270004dde)" d="M72.000000 100.800000L518.400000 100.800000"/>
</g>
<g id="line2d36">
<g ><use style="fill: none; stroke: #000000; stroke-width: 0.500000; stroke-linejoin: round; stroke-linecap: butt;  opacity: 1.000000" xlink:href="#m3400efa6b1638b3fea9e19e898273957" x="72.000000" y="100.800000"/>
</g></g>
<g id="line2d37">
<g ><use style="fill: none; stroke: #000000; stroke-width: 0.500000; stroke-linejoin: round; stroke-linecap: butt;  opacity: 1.000000" xlink:href="#m20b58b2501143cb5e0a5e8f1ef6f1643" x="518.400000" y="100.800000"/>
</g></g>
<g id="text12">
<g style="fill: #000000; opacity: 1.000000" transform="translate(35.625000,105.167188)scale(0.120000)">
<use xlink:href="#c_7a2040fe3b94fcd41d0a72c84e93b115"/>
<use xlink:href="#c_ed3e21196fb739f392806f09ca0594ef" x="63.623047"/>
<use xlink:href="#c_7a2040fe3b94fcd41d0a72c84e93b115" x="95.410156"/>
<use xlink:href="#c_42baa63129a918535c52adb20d687ea7" x="159.033203"/>
<use xlink:href="#c_ed3f3ed3ebfbd18bcb9c012009a68ad1" x="222.656250"/>
</g>
</g>
</g>
<g id="ytick7">
<g id="line2d38">
<path style="fill: none; stroke: #000000; stroke-width: 0.500000; stroke-linejoin: round; stroke-linecap: butt; stroke-dasharray: 1.000000,3.000000; stroke-dashoffset: 0.000000; opacity: 1.000000" clip-path="url(#p50431ccdcb28178602d99d9270004dde)" d="M72.000000 43.200000L518.400000 43.200000"/>
</g>
<g id="line2d39">
<g ><use style="fill: none; stroke: #000000; stroke-width: 0.500000; stroke-linejoin: round; stroke-linecap: butt;  opacity: 1.000000" xlink:href="#m3400efa6b1638b3fea9e19e898273957" x="72.000000" y="43.200000"/>
</g></g>
<g id="line2d40">
<g ><use style="fill: none; stroke: #000000; stroke-width: 0.500000; stroke-linejoin: round; stroke-linecap: butt;  opacity: 1.000000" xlink:href="#m20b58b2501143cb5e0a5e8f1ef6f1643" x="518.400000" y="43.200000"/>
</g></g>
<g id="text13">
<g style="fill: #000000; opacity: 1.000000" transform="translate(35.093750,47.567188)scale(0.120000)">
<use xlink:href="#c_7a2040fe3b94fcd41d0a72c84e93b115"/>
<use xlink:href="#c_ed3e21196fb739f392806f09ca0594ef" x="63.623047"/>
<use xlink:href="#c_7a2040fe3b94fcd41d0a72c84e93b115" x="95.410156"/>
<use xlink:href="#c_42baa63129a918535c52adb20d687ea7" x="159.033203"/>
<use xlink:href="#c_a0416418d96557a09b8c1332d34883ba" x="222.656250"/>
</g>
</g>
</g>
</g>
<g id="patch3">
<path style="fill: none; stroke: #000000; stroke-width: 1.000000; stroke-linejoin: round; stroke-linecap: square;  opacity: 1.000000"  d="M72.000000 43.200000L518.400000 43.200000"/>
</g>
<g id="patch4">
<path style="fill: none; stroke: #000000; stroke-width: 1.000000; stroke-linejoin: round; stroke-linecap: square;  opacity: 1.000000"  d="M518.400000 388.800000L518.400000 43.200000"/>
</g>
<g id="patch5">
<path style="fill: none; stroke: #000000; stroke-width: 1.000000; stroke-linejoin: round; stroke-linecap: square;  opacity: 1.000000"  d="M72.000000 388.800000L518.400000 388.800000"/>
</g>
<g id="patch6">
<path style="fill: none; stroke: #000000; stroke-width: 1.000000; stroke-linejoin: round; stroke-linecap: square;  opacity: 1.000000"  d="M72.000000 388.800000L72.000000 43.200000"/>
</g>
</g>
</g>
</svg>
