<?xml version="1.0" standalone="no"?>
<!DOCTYPE svg PUBLIC "-//W3C//DTD SVG 1.1//EN"
  "http://www.w3.org/Graphics/SVG/1.1/DTD/svg11.dtd">
<!-- Created with matplotlib (http://matplotlib.sourceforge.net/) -->
<svg width="576pt" height="432pt" viewBox="0 0 576 432"
   xmlns="http://www.w3.org/2000/svg"
   xmlns:xlink="http://www.w3.org/1999/xlink"
   version="1.1"
   id="svg1">
<g id="figure1">
<g id="patch1">
<path style="fill: #ffffff; stroke: #ffffff; stroke-width: 1.000000; stroke-linejoin: round; stroke-linecap: square;  opacity: 1.000000"  d="M0.000000 432.000000L576.000000 432.000000L576.000000 0.000000
L0.000000 0.000000L0.000000 432.000000"/>
</g>
<g id="axes1">
<g id="patch2">
<path style="fill: #ffffff; opacity: 1.000000"  d="M72.000000 388.800000L518.400000 388.800000L518.400000 43.200000
L72.000000 43.200000L72.000000 388.800000"/>
</g>
<g id="line2d1">
<defs>
  <clipPath id="p50431ccdcb28178602d99d9270004dde">
<rect x="72.000000" y="43.200000" width="446.400000" height="345.600000"/>
  </clipPath>
</defs><path style="fill: none; stroke: #ff0000; stroke-width: 1.000000; stroke-linejoin: round; stroke-linecap: square;  opacity: 1.000000" clip-path="url(#p50431ccdcb28178602d99d9270004dde)" d="M72.000000 265.908506L72.446400 156.195315L72.892800 165.800174
L73.339200 157.037990L73.785600 163.332597L74.232000 49.416435
L74.678400 343.887794L75.124800 263.942602L75.571200 264.951996
L76.017600 139.019823L76.464000 259.860735L76.910400 161.518121
L77.803200 140.610898L78.249600 170.696575L78.696000 156.403509
L79.142400 153.829891L79.588800 267.239062L80.035200 146.176790
L80.481600 157.998073L80.928000 259.480245L81.374400 149.854821
L81.820800 264.516188L82.267200 269.289628L82.713600 152.042009
L83.160000 260.046372L83.606400 262.239492L84.052800 153.694355
L84.499200 258.542289L85.392000 271.797094L85.838400 153.257612
L86.284800 271.335005L87.177600 264.306214L87.624000 158.667450
L88.070400 262.087088L88.516800 260.366091L88.963200 146.853732
L89.409600 254.877106L89.856000 158.408566L90.302400 268.622134
L90.748800 264.632011L91.195200 158.667911L91.641600 266.495789
L92.088000 252.493632L92.534400 267.285273L92.980800 153.700410
L93.427200 251.416081L93.873600 249.913471L94.320000 256.546172
L94.766400 160.844061L95.212800 260.010475L96.105600 268.408618
L96.552000 257.484470L97.444800 264.317090L97.891200 262.071852
L98.337600 256.044322L98.784000 262.437622L99.230400 252.652377
L99.676800 271.527254L100.123200 267.315079L101.016000 262.337523
L102.355200 272.660260L103.694400 264.939524L104.140800 271.489402
L104.587200 272.757653L105.480000 264.747476L105.926400 259.709069
L106.819200 266.976804L107.712000 258.096799L108.158400 266.366601
L108.604800 264.227458L109.497600 275.159832L110.390400 248.059167
L110.836800 276.462472L111.283200 258.098275L111.729600 255.753655
L112.176000 265.017925L113.068800 269.692347L113.515200 263.864207
L113.961600 252.877743L114.408000 286.631279L114.854400 270.500904
L115.300800 273.036295L115.747200 271.229949L116.640000 261.441525
L117.086400 267.916438L117.532800 256.712741L117.979200 273.056286
L118.872000 265.484289L119.318400 269.214829L120.211200 260.020178
L120.657600 244.991181L121.104000 263.872007L121.550400 265.743502
L122.889600 255.140740L123.336000 264.143058L124.228800 268.667140
L124.675200 258.572468L125.121600 266.271812L126.014400 262.015350
L126.460800 253.891815L127.353600 271.413940L128.246400 253.040937
L128.692800 260.833074L129.139200 274.554300L129.585600 266.002216
L130.032000 268.101319L130.478400 272.407726L130.924800 259.553285
L131.371200 263.873350L131.817600 264.899465L132.264000 269.326691
L132.710400 263.864978L134.049600 270.399254L134.942400 263.554703
L135.388800 255.014821L135.835200 262.037845L136.281600 255.913849
L136.728000 271.097598L137.174400 272.528453L138.067200 266.136572
L138.513600 270.072390L138.960000 264.772055L139.406400 268.893577
L140.745600 250.689555L141.638400 271.458907L142.531200 264.140052
L142.977600 268.569233L143.870400 262.615556L144.316800 271.942773
L145.209600 260.788116L145.656000 247.586617L146.102400 244.356821
L146.995200 273.506818L147.441600 263.648319L148.334400 260.572613
L148.780800 239.054553L149.673600 269.929042L150.120000 272.778544
L150.566400 266.329393L151.012800 268.637632L151.459200 259.291504
L152.352000 266.677836L152.798400 253.794146L153.244800 269.204666
L153.691200 259.739942L154.584000 266.439579L155.030400 255.361678
L155.923200 272.264617L156.816000 254.095708L158.155200 271.057188
L158.601600 263.707222L159.048000 265.782714L159.940800 257.928162
L160.387200 272.104600L160.833600 270.685778L161.280000 254.201408
L161.726400 260.468747L162.172800 259.212932L162.619200 262.253793
L163.065600 270.368958L163.512000 258.776953L163.958400 263.057585
L164.404800 261.720718L164.851200 269.064223L165.297600 257.766224
L166.190400 271.070615L166.636800 249.372449L167.976000 271.844128
L168.868800 259.846942L169.315200 265.856001L169.761600 263.964902
L170.208000 266.081503L170.654400 260.600101L171.993600 270.343053
L172.440000 273.698620L173.332800 258.884867L173.779200 254.250632
L174.225600 263.612621L174.672000 262.267647L175.118400 268.011498
L175.564800 265.051112L176.011200 268.581029L176.904000 253.936281
L177.350400 266.208314L178.243200 271.669639L179.136000 264.226320
L179.582400 226.353353L180.028800 256.689754L180.921600 269.520409
L181.814400 253.875507L182.260800 257.345862L182.707200 267.476757
L183.153600 269.267982L183.600000 263.747690L184.939200 268.050470
L185.832000 260.566027L186.724800 258.872548L187.171200 264.129695
L187.617600 262.567230L188.064000 276.505257L189.403200 261.013486
L190.742400 268.398360L191.188800 264.261889L191.635200 266.243458
L192.081600 262.723956L192.974400 268.669222L193.867200 270.710446
L194.760000 252.758686L195.206400 259.696351L195.652800 256.957237
L196.545600 273.885272L196.992000 272.252340L197.438400 260.291321
L197.884800 261.951898L198.331200 248.453536L198.777600 268.870128
L199.224000 267.469430L199.670400 263.105788L200.116800 255.422596
L200.563200 271.346188L201.902400 249.993870L202.795200 261.613269
L203.241600 258.208437L203.688000 269.499314L204.134400 266.266241
L204.580800 255.523704L205.027200 263.537271L205.920000 259.531957
L206.366400 270.220819L206.812800 256.468648L207.705600 273.187691
L208.152000 257.977392L208.598400 263.896078L209.044800 257.352710
L209.937600 268.140097L210.384000 257.181823L211.276800 265.018176
L212.169600 255.111418L213.062400 270.542668L213.508800 258.795374
L213.955200 264.292105L214.401600 262.063633L214.848000 268.951115
L215.294400 254.592029L215.740800 251.530978L216.187200 271.261539
L216.633600 264.348420L217.080000 267.511503L217.526400 262.400615
L217.972800 265.686480L218.419200 260.590627L218.865600 248.132998
L219.312000 268.127857L219.758400 270.883922L220.204800 268.658152
L220.651200 263.779811L221.097600 267.243188L221.544000 260.260910
L221.990400 261.472646L222.436800 253.951559L222.883200 262.514634
L223.329600 253.181884L223.776000 260.763222L224.222400 258.315316
L225.115200 273.188704L225.561600 262.537597L226.008000 260.305276
L226.454400 266.000840L227.793600 266.537103L228.686400 257.508623
L229.132800 267.073483L229.579200 268.525897L230.025600 263.876918
L231.364800 268.290125L231.811200 272.545441L232.257600 247.878595
L232.704000 264.517019L233.150400 261.573924L233.596800 263.536561
L234.043200 267.872374L234.489600 266.127712L235.828800 254.295156
L236.721600 268.006666L237.168000 271.494161L237.614400 263.690037
L238.060800 265.302233L238.507200 258.253734L238.953600 270.870331
L239.400000 261.494000L240.292800 272.403289L240.739200 258.557679
L241.632000 266.656735L242.078400 263.992673L242.524800 267.312865
L242.971200 261.488248L243.417600 270.692775L243.864000 256.404388
L244.310400 259.177609L245.203200 272.581103L245.649600 262.425048
L246.096000 266.761836L246.542400 254.635717L247.435200 275.344773
L248.774400 259.274989L249.220800 266.466655L250.113600 260.385836
L250.560000 267.790987L251.452800 261.066888L251.899200 263.240699
L252.345600 255.613326L252.792000 265.768659L253.238400 263.782930
L253.684800 251.141856L254.577600 268.260507L255.024000 272.792696
L255.470400 268.149930L255.916800 270.243858L256.809600 250.426793
L257.256000 251.481072L257.702400 265.406086L258.148800 266.828379
L258.595200 272.309463L259.488000 261.660819L259.934400 238.467020
L261.273600 270.781795L261.720000 272.547498L262.166400 263.083622
L262.612800 265.256052L263.059200 259.541874L264.398400 268.022954
L264.844800 262.603210L266.184000 273.399743L267.523200 251.482698
L267.969600 267.027494L268.416000 268.195076L269.308800 272.980210
L269.755200 257.893476L270.201600 264.895300L271.094400 260.208757
L271.540800 263.098647L272.433600 274.829874L272.880000 262.665089
L273.326400 259.677634L274.219200 272.550379L274.665600 255.669579
L275.112000 266.383698L275.558400 183.982469L276.004800 229.117533
L276.451200 222.871716L276.897600 247.546126L277.344000 244.008940
L277.790400 254.933233L279.129600 266.489752L279.576000 267.848636
L280.022400 266.535911L281.361600 256.451800L282.254400 273.598605
L282.700800 257.755323L283.593600 270.281085L284.040000 254.569826
L284.486400 265.988029L284.932800 260.615003L285.379200 259.378561
L285.825600 263.066331L286.272000 274.222539L286.718400 268.515639
L287.611200 238.794763L288.057600 264.123143L288.504000 265.641489
L288.950400 261.565105L289.843200 267.019917L290.736000 270.438229
L291.182400 260.574494L291.628800 268.969797L292.075200 260.540053
L292.968000 257.571202L293.860800 273.330502L294.753600 253.009688
L295.200000 269.612649L295.646400 272.132026L296.539200 258.747264
L296.985600 265.692705L297.432000 255.274442L297.878400 258.981823
L298.324800 266.089547L298.771200 267.451049L299.217600 266.132460
L299.664000 257.232573L300.110400 268.743692L300.556800 259.237956
L301.449600 269.235071L301.896000 255.128154L302.788800 263.360467
L303.235200 262.338746L303.681600 270.277761L304.128000 271.570977
L304.574400 267.075978L305.020800 271.782510L305.467200 253.862249
L306.360000 269.023462L306.806400 265.407967L307.252800 268.610373
L308.145600 261.977689L308.592000 268.403399L309.038400 258.276825
L309.484800 264.985454L309.931200 261.715670L310.377600 255.007006
L311.270400 264.831671L311.716800 268.439033L312.609600 256.870844
L313.056000 267.784428L313.502400 269.732583L313.948800 266.532993
L314.395200 268.586479L314.841600 267.149845L315.288000 375.440951
L315.734400 254.316607L316.627200 268.596955L317.073600 260.832580
L317.520000 262.235850L318.412800 268.195851L318.859200 259.793847
L319.305600 270.968823L319.752000 259.917472L320.644800 268.340532
L321.537600 258.168483L321.984000 264.582232L322.430400 254.458815
L322.876800 270.841314L323.769600 263.975205L324.662400 258.873667
L325.108800 271.708199L325.555200 266.886032L326.001600 249.826531
L326.894400 272.211162L328.233600 267.446098L328.680000 259.957328
L329.126400 267.780401L329.572800 258.484578L330.019200 269.567661
L330.465600 267.789599L330.912000 273.429782L331.358400 255.241014
L331.804800 268.458838L332.251200 266.878472L332.697600 270.655400
L333.144000 258.915066L333.590400 271.345548L334.036800 262.777666
L334.483200 264.241241L334.929600 258.214485L335.376000 273.780644
L336.715200 260.035337L337.161600 268.626318L337.608000 261.390683
L338.054400 273.615996L339.840000 249.576485L340.732800 271.749168
L341.179200 263.472553L342.072000 266.908846L342.518400 263.337856
L342.964800 232.837267L343.411200 268.105967L344.304000 269.209213
L344.750400 265.593090L345.196800 308.106353L345.643200 258.820944
L346.089600 265.351695L346.536000 264.156345L346.982400 250.556391
L347.875200 266.320855L348.768000 267.819661L349.214400 270.577936
L350.107200 259.815946L350.553600 262.758684L351.000000 272.687584
L351.892800 262.091097L352.339200 263.932093L352.785600 271.438808
L353.678400 266.696174L354.571200 256.132124L355.464000 273.507939
L355.910400 266.749816L356.356800 265.292796L356.803200 260.858830
L357.249600 266.265976L357.696000 265.199303L358.142400 263.113812
L359.035200 272.723121L359.481600 270.091856L359.928000 255.313547
L360.820800 268.436771L361.267200 261.779105L361.713600 270.770262
L362.160000 264.837401L362.606400 263.389434L363.052800 267.072887
L363.499200 265.542101L363.945600 267.863710L364.392000 253.854713
L364.838400 255.330710L365.284800 265.023345L366.624000 267.367640
L367.070400 266.283528L367.516800 274.174796L368.409600 246.766571
L368.856000 266.290356L369.748800 258.163991L370.641600 269.371261
L371.534400 255.503076L372.427200 268.901070L372.873600 256.131655
L373.320000 230.362062L374.212800 271.117625L374.659200 251.736176
L375.552000 270.589455L375.998400 255.524926L376.444800 258.740540
L377.337600 268.721587L378.230400 269.826453L378.676800 258.620085
L379.123200 260.034462L379.569600 262.724172L380.908800 261.883644
L381.355200 257.958313L381.801600 267.313355L382.248000 263.485732
L382.694400 275.824103L383.587200 263.635677L384.033600 266.051472
L384.480000 272.464271L384.926400 258.996239L385.372800 266.105570
L386.712000 266.332689L387.158400 269.647453L387.604800 268.281238
L388.051200 272.136113L388.497600 270.960954L388.944000 254.690739
L389.390400 256.555687L389.836800 268.369219L390.283200 269.581649
L390.729600 262.539330L391.176000 265.005089L392.068800 267.669626
L392.961600 261.362825L394.300800 258.464904L394.747200 263.777481
L395.193600 264.809995L396.086400 269.442158L396.532800 261.843695
L397.425600 257.110042L397.872000 266.123120L398.764800 263.494220
L399.211200 256.847058L399.657600 263.159641L400.104000 258.382775
L400.550400 265.331307L400.996800 253.266942L401.443200 263.286260
L401.889600 264.429131L402.336000 267.209420L402.782400 255.756681
L403.675200 271.066375L404.568000 255.433569L405.014400 260.640223
L405.460800 257.276809L405.907200 263.356799L406.353600 264.793851
L406.800000 258.957758L407.246400 270.508607L407.692800 264.399116
L408.139200 266.978678L408.585600 265.015072L409.032000 254.494945
L409.478400 267.853634L410.371200 257.318307L411.264000 267.611738
L411.710400 265.249784L412.156800 269.919002L412.603200 243.564244
L413.049600 280.000061L413.496000 248.260663L413.942400 268.174919
L414.388800 272.038111L414.835200 268.402524L415.728000 270.769599
L416.620800 268.861097L417.067200 270.888721L418.406400 248.709973
L418.852800 268.389968L419.299200 269.417707L419.745600 261.212710
L420.192000 275.134281L421.084800 258.859746L422.424000 270.119284
L422.870400 253.580920L423.316800 167.016918L423.763200 312.723681
L424.209600 269.608232L425.102400 252.029126L425.548800 253.941499
L425.995200 261.445854L426.441600 243.120653L427.334400 265.781555
L427.780800 262.218105L428.673600 268.281802L429.120000 265.758842
L429.566400 260.900773L430.012800 250.716388L431.352000 273.674400
L431.798400 265.272905L432.244800 269.950959L432.691200 261.334570
L433.137600 262.629320L434.030400 252.649126L434.476800 273.284883
L435.369600 264.738938L435.816000 269.346043L436.262400 249.141863
L436.708800 251.663883L437.155200 208.832327L438.048000 259.621198
L438.494400 255.282648L438.940800 258.631870L439.387200 266.308644
L439.833600 267.887434L440.726400 262.421852L441.172800 244.956258
L441.619200 257.559193L442.065600 252.262024L442.958400 269.526988
L443.404800 261.945153L443.851200 268.686312L444.297600 265.914399
L444.744000 257.524216L445.636800 266.156807L446.083200 262.919533
L446.976000 254.521367L447.868800 260.587981L448.315200 245.379288
L449.654400 265.420571L450.547200 240.876225L451.440000 263.750319
L451.886400 258.310084L452.779200 266.939438L453.225600 264.403732
L453.672000 212.161894L454.118400 264.556634L454.564800 261.589969
L455.011200 272.124004L455.457600 256.391028L455.904000 262.748064
L456.350400 263.882770L456.796800 255.939363L457.243200 265.275983
L457.689600 249.619981L458.582400 264.002131L459.475200 265.930307
L459.921600 261.482813L460.368000 267.509952L460.814400 264.212353
L461.260800 248.431774L461.707200 253.310663L462.153600 268.591045
L464.385600 245.923718L464.832000 251.079420L465.278400 266.343552
L465.724800 262.512412L466.171200 266.185991L466.617600 257.518691
L467.064000 260.102003L467.510400 273.763465L468.403200 258.740857
L468.849600 265.072336L469.296000 254.336823L469.742400 263.510993
L470.188800 251.742293L470.635200 264.711002L471.081600 266.995589
L471.528000 272.973015L471.974400 260.060455L472.420800 268.060337
L473.313600 263.600320L473.760000 256.801221L474.206400 265.341161
L475.545600 251.627206L476.438400 274.059005L476.884800 258.216582
L477.331200 261.803172L477.777600 257.618299L478.224000 265.315656
L479.116800 246.369481L480.009600 273.592547L480.902400 259.600254
L481.348800 233.803822L481.795200 262.418981L482.688000 251.277915
L483.134400 271.109540L484.027200 254.330740L484.473600 263.601838
L484.920000 251.019823L485.366400 263.063767L485.812800 265.945537
L486.259200 262.589880L487.152000 258.719003L487.598400 262.764307
L488.044800 261.252549L488.491200 257.168686L488.937600 266.813091
L489.384000 256.842986L491.169600 266.056726L492.062400 251.068373
L492.508800 265.623138L493.401600 255.326956L494.294400 267.789428
L494.740800 271.446193L495.633600 260.349785L496.080000 266.461732
L496.526400 262.036687L496.972800 265.899815L497.865600 264.679013
L498.312000 257.299269L499.204800 248.762431L499.651200 270.769740
L500.544000 261.401038L500.990400 269.193655L501.883200 257.835448
L502.329600 255.896492L502.776000 259.245917L503.222400 272.598990
L503.668800 260.207219L504.561600 258.224797L505.008000 251.697542
L505.454400 265.726637L505.900800 257.321627L507.240000 270.317142
L507.686400 259.713091L508.132800 263.279685L509.025600 253.792367
L509.472000 265.841635L510.364800 264.035389L510.811200 266.377641
L511.704000 253.329340L512.150400 267.030788L512.596800 256.099873
L513.043200 263.346317L513.489600 256.671668L514.828800 267.140201
L515.275200 261.595343L515.721600 263.721660L516.168000 241.842480
L516.614400 260.406971L517.060800 257.194820L517.953600 268.058711
L517.953600 268.058711"/>
</g>
<g id="matplotlib.axis1">
<g id="xtick1">
<g id="line2d2">
<path style="fill: none; stroke: #000000; stroke-width: 0.500000; stroke-linejoin: round; stroke-linecap: butt; stroke-dasharray: 1.000000,3.000000; stroke-dashoffset: 0.000000; opacity: 1.000000" clip-path="url(#p50431ccdcb28178602d99d9270004dde)" d="M72.000000 388.800000L72.000000 43.200000"/>
</g>
<g id="line2d3">
<defs><path id="m30e32995789d870ad79a2e54c91cf9c6" d="M0.000000 0.000000L0.000000 -4.000000"/></defs>
<g ><use style="fill: none; stroke: #000000; stroke-width: 0.500000; stroke-linejoin: round; stroke-linecap: butt;  opacity: 1.000000" xlink:href="#m30e32995789d870ad79a2e54c91cf9c6" x="72.000000" y="388.800000"/>
</g></g>
<g id="line2d4">
<defs><path id="m9281cae24120827b11d5ea8a7ad3e96b" d="M0.000000 0.000000L0.000000 4.000000"/></defs>
<g ><use style="fill: none; stroke: #000000; stroke-width: 0.500000; stroke-linejoin: round; stroke-linecap: butt;  opacity: 1.000000" xlink:href="#m9281cae24120827b11d5ea8a7ad3e96b" x="72.000000" y="43.200000"/>
</g></g>
<g id="text1">
<defs>
<path id="c_7a2040fe3b94fcd41d0a72c84e93b115" d="M31.781250 -66.406250q-7.609375 0.000000 -11.453125 7.500000q-3.828125 7.484375 -3.828125 22.531250q0.000000 14.984375 3.828125 22.484375q3.843750 7.500000 11.453125 7.500000q7.671875 0.000000 11.500000 -7.500000q3.843750 -7.500000 3.843750 -22.484375q0.000000 -15.046875 -3.843750 -22.531250q-3.828125 -7.500000 -11.500000 -7.500000M31.781250 -74.218750q12.265625 0.000000 18.734375 9.703125q6.468750 9.687500 6.468750 28.140625q0.000000 18.406250 -6.468750 28.109375q-6.468750 9.687500 -18.734375 9.687500q-12.250000 0.000000 -18.718750 -9.687500q-6.468750 -9.703125 -6.468750 -28.109375q0.000000 -18.453125 6.468750 -28.140625q6.468750 -9.703125 18.718750 -9.703125"/>
</defs>
<g style="fill: #000000; opacity: 1.000000" transform="translate(68.976562,401.706250)scale(0.120000)">
<use xlink:href="#c_7a2040fe3b94fcd41d0a72c84e93b115"/>
</g>
</g>
</g>
<g id="xtick2">
<g id="line2d5">
<path style="fill: none; stroke: #000000; stroke-width: 0.500000; stroke-linejoin: round; stroke-linecap: butt; stroke-dasharray: 1.000000,3.000000; stroke-dashoffset: 0.000000; opacity: 1.000000" clip-path="url(#p50431ccdcb28178602d99d9270004dde)" d="M161.280000 388.800000L161.280000 43.200000"/>
</g>
<g id="line2d6">
<g ><use style="fill: none; stroke: #000000; stroke-width: 0.500000; stroke-linejoin: round; stroke-linecap: butt;  opacity: 1.000000" xlink:href="#m30e32995789d870ad79a2e54c91cf9c6" x="161.280000" y="388.800000"/>
</g></g>
<g id="line2d7">
<g ><use style="fill: none; stroke: #000000; stroke-width: 0.500000; stroke-linejoin: round; stroke-linecap: butt;  opacity: 1.000000" xlink:href="#m9281cae24120827b11d5ea8a7ad3e96b" x="161.280000" y="43.200000"/>
</g></g>
<g id="text2">
<defs>
<path id="c_ed3f3ed3ebfbd18bcb9c012009a68ad1" d="M19.187500 -8.296875l34.421875 0.000000l0.000000 8.296875l-46.281250 0.000000l0.000000 -8.296875q5.609375 -5.812500 15.296875 -15.593750q9.703125 -9.796875 12.187500 -12.640625q4.734375 -5.312500 6.609375 -9.000000q1.890625 -3.687500 1.890625 -7.250000q0.000000 -5.812500 -4.078125 -9.468750q-4.078125 -3.671875 -10.625000 -3.671875q-4.640625 0.000000 -9.796875 1.609375q-5.140625 1.609375 -11.000000 4.890625l0.000000 -9.968750q5.953125 -2.390625 11.125000 -3.609375q5.187500 -1.218750 9.484375 -1.218750q11.328125 0.000000 18.062500 5.671875q6.734375 5.656250 6.734375 15.125000q0.000000 4.500000 -1.687500 8.531250q-1.671875 4.015625 -6.125000 9.484375q-1.218750 1.421875 -7.765625 8.187500q-6.531250 6.765625 -18.453125 18.921875"/>
</defs>
<g style="fill: #000000; opacity: 1.000000" transform="translate(150.655000,401.706250)scale(0.120000)">
<use xlink:href="#c_ed3f3ed3ebfbd18bcb9c012009a68ad1"/>
<use xlink:href="#c_7a2040fe3b94fcd41d0a72c84e93b115" x="63.623047"/>
<use xlink:href="#c_7a2040fe3b94fcd41d0a72c84e93b115" x="127.246094"/>
</g>
</g>
</g>
<g id="xtick3">
<g id="line2d8">
<path style="fill: none; stroke: #000000; stroke-width: 0.500000; stroke-linejoin: round; stroke-linecap: butt; stroke-dasharray: 1.000000,3.000000; stroke-dashoffset: 0.000000; opacity: 1.000000" clip-path="url(#p50431ccdcb28178602d99d9270004dde)" d="M250.560000 388.800000L250.560000 43.200000"/>
</g>
<g id="line2d9">
<g ><use style="fill: none; stroke: #000000; stroke-width: 0.500000; stroke-linejoin: round; stroke-linecap: butt;  opacity: 1.000000" xlink:href="#m30e32995789d870ad79a2e54c91cf9c6" x="250.560000" y="388.800000"/>
</g></g>
<g id="line2d10">
<g ><use style="fill: none; stroke: #000000; stroke-width: 0.500000; stroke-linejoin: round; stroke-linecap: butt;  opacity: 1.000000" xlink:href="#m9281cae24120827b11d5ea8a7ad3e96b" x="250.560000" y="43.200000"/>
</g></g>
<g id="text3">
<defs>
<path id="c_a0416418d96557a09b8c1332d34883ba" d="M37.796875 -64.312500l-24.906250 38.921875l24.906250 0.000000zM35.203125 -72.906250l12.406250 0.000000l0.000000 47.515625l10.406250 0.000000l0.000000 8.203125l-10.406250 0.000000l0.000000 17.187500l-9.812500 0.000000l0.000000 -17.187500l-32.906250 0.000000l0.000000 -9.515625z"/>
</defs>
<g style="fill: #000000; opacity: 1.000000" transform="translate(239.794375,401.706250)scale(0.120000)">
<use xlink:href="#c_a0416418d96557a09b8c1332d34883ba"/>
<use xlink:href="#c_7a2040fe3b94fcd41d0a72c84e93b115" x="63.623047"/>
<use xlink:href="#c_7a2040fe3b94fcd41d0a72c84e93b115" x="127.246094"/>
</g>
</g>
</g>
<g id="xtick4">
<g id="line2d11">
<path style="fill: none; stroke: #000000; stroke-width: 0.500000; stroke-linejoin: round; stroke-linecap: butt; stroke-dasharray: 1.000000,3.000000; stroke-dashoffset: 0.000000; opacity: 1.000000" clip-path="url(#p50431ccdcb28178602d99d9270004dde)" d="M339.840000 388.800000L339.840000 43.200000"/>
</g>
<g id="line2d12">
<g ><use style="fill: none; stroke: #000000; stroke-width: 0.500000; stroke-linejoin: round; stroke-linecap: butt;  opacity: 1.000000" xlink:href="#m30e32995789d870ad79a2e54c91cf9c6" x="339.840000" y="388.800000"/>
</g></g>
<g id="line2d13">
<g ><use style="fill: none; stroke: #000000; stroke-width: 0.500000; stroke-linejoin: round; stroke-linecap: butt;  opacity: 1.000000" xlink:href="#m9281cae24120827b11d5ea8a7ad3e96b" x="339.840000" y="43.200000"/>
</g></g>
<g id="text4">
<defs>
<path id="c_cc8d6d580d1b10c8632f7a42cd53db8a" d="M33.015625 -40.375000q-6.640625 0.000000 -10.531250 4.546875q-3.875000 4.531250 -3.875000 12.437500q0.000000 7.859375 3.875000 12.437500q3.890625 4.562500 10.531250 4.562500q6.640625 0.000000 10.515625 -4.562500q3.875000 -4.578125 3.875000 -12.437500q0.000000 -7.906250 -3.875000 -12.437500q-3.875000 -4.546875 -10.515625 -4.546875M52.593750 -71.296875l0.000000 8.984375q-3.718750 -1.750000 -7.500000 -2.671875q-3.781250 -0.937500 -7.500000 -0.937500q-9.765625 0.000000 -14.921875 6.593750q-5.140625 6.593750 -5.875000 19.921875q2.875000 -4.250000 7.218750 -6.515625q4.359375 -2.265625 9.578125 -2.265625q10.984375 0.000000 17.359375 6.671875q6.375000 6.656250 6.375000 18.125000q0.000000 11.234375 -6.640625 18.031250q-6.640625 6.781250 -17.671875 6.781250q-12.656250 0.000000 -19.343750 -9.687500q-6.687500 -9.703125 -6.687500 -28.109375q0.000000 -17.281250 8.203125 -27.562500q8.203125 -10.281250 22.015625 -10.281250q3.718750 0.000000 7.500000 0.734375q3.781250 0.734375 7.890625 2.187500"/>
</defs>
<g style="fill: #000000; opacity: 1.000000" transform="translate(329.199375,401.706250)scale(0.120000)">
<use xlink:href="#c_cc8d6d580d1b10c8632f7a42cd53db8a"/>
<use xlink:href="#c_7a2040fe3b94fcd41d0a72c84e93b115" x="63.623047"/>
<use xlink:href="#c_7a2040fe3b94fcd41d0a72c84e93b115" x="127.246094"/>
</g>
</g>
</g>
<g id="xtick5">
<g id="line2d14">
<path style="fill: none; stroke: #000000; stroke-width: 0.500000; stroke-linejoin: round; stroke-linecap: butt; stroke-dasharray: 1.000000,3.000000; stroke-dashoffset: 0.000000; opacity: 1.000000" clip-path="url(#p50431ccdcb28178602d99d9270004dde)" d="M429.120000 388.800000L429.120000 43.200000"/>
</g>
<g id="line2d15">
<g ><use style="fill: none; stroke: #000000; stroke-width: 0.500000; stroke-linejoin: round; stroke-linecap: butt;  opacity: 1.000000" xlink:href="#m30e32995789d870ad79a2e54c91cf9c6" x="429.120000" y="388.800000"/>
</g></g>
<g id="line2d16">
<g ><use style="fill: none; stroke: #000000; stroke-width: 0.500000; stroke-linejoin: round; stroke-linecap: butt;  opacity: 1.000000" xlink:href="#m9281cae24120827b11d5ea8a7ad3e96b" x="429.120000" y="43.200000"/>
</g></g>
<g id="text5">
<defs>
<path id="c_bef35738d52871942e50b9de9b122bab" d="M31.781250 -34.625000q-7.031250 0.000000 -11.062500 3.765625q-4.015625 3.765625 -4.015625 10.343750q0.000000 6.593750 4.015625 10.359375q4.031250 3.765625 11.062500 3.765625q7.031250 0.000000 11.078125 -3.781250q4.062500 -3.796875 4.062500 -10.343750q0.000000 -6.578125 -4.031250 -10.343750q-4.015625 -3.765625 -11.109375 -3.765625M21.921875 -38.812500q-6.343750 -1.562500 -9.890625 -5.906250q-3.531250 -4.359375 -3.531250 -10.609375q0.000000 -8.734375 6.218750 -13.812500q6.234375 -5.078125 17.062500 -5.078125q10.890625 0.000000 17.093750 5.078125q6.203125 5.078125 6.203125 13.812500q0.000000 6.250000 -3.546875 10.609375q-3.531250 4.343750 -9.828125 5.906250q7.125000 1.656250 11.093750 6.500000q3.984375 4.828125 3.984375 11.796875q0.000000 10.609375 -6.468750 16.281250q-6.468750 5.656250 -18.531250 5.656250q-12.046875 0.000000 -18.531250 -5.656250q-6.468750 -5.671875 -6.468750 -16.281250q0.000000 -6.968750 4.000000 -11.796875q4.015625 -4.843750 11.140625 -6.500000M18.312500 -54.390625q0.000000 5.656250 3.531250 8.828125q3.546875 3.171875 9.937500 3.171875q6.359375 0.000000 9.937500 -3.171875q3.593750 -3.171875 3.593750 -8.828125q0.000000 -5.671875 -3.593750 -8.843750q-3.578125 -3.171875 -9.937500 -3.171875q-6.390625 0.000000 -9.937500 3.171875q-3.531250 3.171875 -3.531250 8.843750"/>
</defs>
<g style="fill: #000000; opacity: 1.000000" transform="translate(418.463750,401.706250)scale(0.120000)">
<use xlink:href="#c_bef35738d52871942e50b9de9b122bab"/>
<use xlink:href="#c_7a2040fe3b94fcd41d0a72c84e93b115" x="63.623047"/>
<use xlink:href="#c_7a2040fe3b94fcd41d0a72c84e93b115" x="127.246094"/>
</g>
</g>
</g>
<g id="xtick6">
<g id="line2d17">
<path style="fill: none; stroke: #000000; stroke-width: 0.500000; stroke-linejoin: round; stroke-linecap: butt; stroke-dasharray: 1.000000,3.000000; stroke-dashoffset: 0.000000; opacity: 1.000000" clip-path="url(#p50431ccdcb28178602d99d9270004dde)" d="M518.400000 388.800000L518.400000 43.200000"/>
</g>
<g id="line2d18">
<g ><use style="fill: none; stroke: #000000; stroke-width: 0.500000; stroke-linejoin: round; stroke-linecap: butt;  opacity: 1.000000" xlink:href="#m30e32995789d870ad79a2e54c91cf9c6" x="518.400000" y="388.800000"/>
</g></g>
<g id="line2d19">
<g ><use style="fill: none; stroke: #000000; stroke-width: 0.500000; stroke-linejoin: round; stroke-linecap: butt;  opacity: 1.000000" xlink:href="#m9281cae24120827b11d5ea8a7ad3e96b" x="518.400000" y="43.200000"/>
</g></g>
<g id="text6">
<defs>
<path id="c_42baa63129a918535c52adb20d687ea7" d="M12.406250 -8.296875l16.109375 0.000000l0.000000 -55.625000l-17.531250 3.515625l0.000000 -8.984375l17.437500 -3.515625l9.859375 0.000000l0.000000 64.609375l16.109375 0.000000l0.000000 8.296875l-41.984375 0.000000z"/>
</defs>
<g style="fill: #000000; opacity: 1.000000" transform="translate(504.173437,401.706250)scale(0.120000)">
<use xlink:href="#c_42baa63129a918535c52adb20d687ea7"/>
<use xlink:href="#c_7a2040fe3b94fcd41d0a72c84e93b115" x="63.623047"/>
<use xlink:href="#c_7a2040fe3b94fcd41d0a72c84e93b115" x="127.246094"/>
<use xlink:href="#c_7a2040fe3b94fcd41d0a72c84e93b115" x="190.869141"/>
</g>
</g>
</g>
</g>
<g id="matplotlib.axis2">
<g id="ytick1">
<g id="line2d20">
<path style="fill: none; stroke: #000000; stroke-width: 0.500000; stroke-linejoin: round; stroke-linecap: butt; stroke-dasharray: 1.000000,3.000000; stroke-dashoffset: 0.000000; opacity: 1.000000" clip-path="url(#p50431ccdcb28178602d99d9270004dde)" d="M72.000000 388.800000L518.400000 388.800000"/>
</g>
<g id="line2d21">
<defs><path id="m3400efa6b1638b3fea9e19e898273957" d="M0.000000 0.000000L4.000000 0.000000"/></defs>
<g ><use style="fill: none; stroke: #000000; stroke-width: 0.500000; stroke-linejoin: round; stroke-linecap: butt;  opacity: 1.000000" xlink:href="#m3400efa6b1638b3fea9e19e898273957" x="72.000000" y="388.800000"/>
</g></g>
<g id="line2d22">
<defs><path id="m20b58b2501143cb5e0a5e8f1ef6f1643" d="M0.000000 0.000000L-4.000000 0.000000"/></defs>
<g ><use style="fill: none; stroke: #000000; stroke-width: 0.500000; stroke-linejoin: round; stroke-linecap: butt;  opacity: 1.000000" xlink:href="#m20b58b2501143cb5e0a5e8f1ef6f1643" x="518.400000" y="388.800000"/>
</g></g>
<g id="text7">
<defs>
<path id="c_ed3e21196fb739f392806f09ca0594ef" d="M10.687500 -12.406250l10.312500 0.000000l0.000000 12.406250l-10.312500 0.000000z"/>
</defs>
<g style="fill: #000000; opacity: 1.000000" transform="translate(43.265625,393.167188)scale(0.120000)">
<use xlink:href="#c_7a2040fe3b94fcd41d0a72c84e93b115"/>
<use xlink:href="#c_ed3e21196fb739f392806f09ca0594ef" x="63.623047"/>
<use xlink:href="#c_7a2040fe3b94fcd41d0a72c84e93b115" x="95.410156"/>
<use xlink:href="#c_ed3f3ed3ebfbd18bcb9c012009a68ad1" x="159.033203"/>
</g>
</g>
</g>
<g id="ytick2">
<g id="line2d23">
<path style="fill: none; stroke: #000000; stroke-width: 0.500000; stroke-linejoin: round; stroke-linecap: butt; stroke-dasharray: 1.000000,3.000000; stroke-dashoffset: 0.000000; opacity: 1.000000" clip-path="url(#p50431ccdcb28178602d99d9270004dde)" d="M72.000000 345.600000L518.400000 345.600000"/>
</g>
<g id="line2d24">
<g ><use style="fill: none; stroke: #000000; stroke-width: 0.500000; stroke-linejoin: round; stroke-linecap: butt;  opacity: 1.000000" xlink:href="#m3400efa6b1638b3fea9e19e898273957" x="72.000000" y="345.600000"/>
</g></g>
<g id="line2d25">
<g ><use style="fill: none; stroke: #000000; stroke-width: 0.500000; stroke-linejoin: round; stroke-linecap: butt;  opacity: 1.000000" xlink:href="#m20b58b2501143cb5e0a5e8f1ef6f1643" x="518.400000" y="345.600000"/>
</g></g>
<g id="text8">
<g style="fill: #000000; opacity: 1.000000" transform="translate(42.734375,349.967188)scale(0.120000)">
<use xlink:href="#c_7a2040fe3b94fcd41d0a72c84e93b115"/>
<use xlink:href="#c_ed3e21196fb739f392806f09ca0594ef" x="63.623047"/>
<use xlink:href="#c_7a2040fe3b94fcd41d0a72c84e93b115" x="95.410156"/>
<use xlink:href="#c_a0416418d96557a09b8c1332d34883ba" x="159.033203"/>
</g>
</g>
</g>
<g id="ytick3">
<g id="line2d26">
<path style="fill: none; stroke: #000000; stroke-width: 0.500000; stroke-linejoin: round; stroke-linecap: butt; stroke-dasharray: 1.000000,3.000000; stroke-dashoffset: 0.000000; opacity: 1.000000" clip-path="url(#p50431ccdcb28178602d99d9270004dde)" d="M72.000000 302.400000L518.400000 302.400000"/>
</g>
<g id="line2d27">
<g ><use style="fill: none; stroke: #000000; stroke-width: 0.500000; stroke-linejoin: round; stroke-linecap: butt;  opacity: 1.000000" xlink:href="#m3400efa6b1638b3fea9e19e898273957" x="72.000000" y="302.400000"/>
</g></g>
<g id="line2d28">
<g ><use style="fill: none; stroke: #000000; stroke-width: 0.500000; stroke-linejoin: round; stroke-linecap: butt;  opacity: 1.000000" xlink:href="#m20b58b2501143cb5e0a5e8f1ef6f1643" x="518.400000" y="302.400000"/>
</g></g>
<g id="text9">
<g style="fill: #000000; opacity: 1.000000" transform="translate(42.828125,306.767188)scale(0.120000)">
<use xlink:href="#c_7a2040fe3b94fcd41d0a72c84e93b115"/>
<use xlink:href="#c_ed3e21196fb739f392806f09ca0594ef" x="63.623047"/>
<use xlink:href="#c_7a2040fe3b94fcd41d0a72c84e93b115" x="95.410156"/>
<use xlink:href="#c_cc8d6d580d1b10c8632f7a42cd53db8a" x="159.033203"/>
</g>
</g>
</g>
<g id="ytick4">
<g id="line2d29">
<path style="fill: none; stroke: #000000; stroke-width: 0.500000; stroke-linejoin: round; stroke-linecap: butt; stroke-dasharray: 1.000000,3.000000; stroke-dashoffset: 0.000000; opacity: 1.000000" clip-path="url(#p50431ccdcb28178602d99d9270004dde)" d="M72.000000 259.200000L518.400000 259.200000"/>
</g>
<g id="line2d30">
<g ><use style="fill: none; stroke: #000000; stroke-width: 0.500000; stroke-linejoin: round; stroke-linecap: butt;  opacity: 1.000000" xlink:href="#m3400efa6b1638b3fea9e19e898273957" x="72.000000" y="259.200000"/>
</g></g>
<g id="line2d31">
<g ><use style="fill: none; stroke: #000000; stroke-width: 0.500000; stroke-linejoin: round; stroke-linecap: butt;  opacity: 1.000000" xlink:href="#m20b58b2501143cb5e0a5e8f1ef6f1643" x="518.400000" y="259.200000"/>
</g></g>
<g id="text10">
<g style="fill: #000000; opacity: 1.000000" transform="translate(42.890625,263.567187)scale(0.120000)">
<use xlink:href="#c_7a2040fe3b94fcd41d0a72c84e93b115"/>
<use xlink:href="#c_ed3e21196fb739f392806f09ca0594ef" x="63.623047"/>
<use xlink:href="#c_7a2040fe3b94fcd41d0a72c84e93b115" x="95.410156"/>
<use xlink:href="#c_bef35738d52871942e50b9de9b122bab" x="159.033203"/>
</g>
</g>
</g>
<g id="ytick5">
<g id="line2d32">
<path style="fill: none; stroke: #000000; stroke-width: 0.500000; stroke-linejoin: round; stroke-linecap: butt; stroke-dasharray: 1.000000,3.000000; stroke-dashoffset: 0.000000; opacity: 1.000000" clip-path="url(#p50431ccdcb28178602d99d9270004dde)" d="M72.000000 216.000000L518.400000 216.000000"/>
</g>
<g id="line2d33">
<g ><use style="fill: none; stroke: #000000; stroke-width: 0.500000; stroke-linejoin: round; stroke-linecap: butt;  opacity: 1.000000" xlink:href="#m3400efa6b1638b3fea9e19e898273957" x="72.000000" y="216.000000"/>
</g></g>
<g id="line2d34">
<g ><use style="fill: none; stroke: #000000; stroke-width: 0.500000; stroke-linejoin: round; stroke-linecap: butt;  opacity: 1.000000" xlink:href="#m20b58b2501143cb5e0a5e8f1ef6f1643" x="518.400000" y="216.000000"/>
</g></g>
<g id="text11">
<g style="fill: #000000; opacity: 1.000000" transform="translate(42.859375,220.367188)scale(0.120000)">
<use xlink:href="#c_7a2040fe3b94fcd41d0a72c84e93b115"/>
<use xlink:href="#c_ed3e21196fb739f392806f09ca0594ef" x="63.623047"/>
<use xlink:href="#c_42baa63129a918535c52adb20d687ea7" x="95.410156"/>
<use xlink:href="#c_7a2040fe3b94fcd41d0a72c84e93b115" x="159.033203"/>
</g>
</g>
</g>
<g id="ytick6">
<g id="line2d35">
<path style="fill: none; stroke: #000000; stroke-width: 0.500000; stroke-linejoin: round; stroke-linecap: butt; stroke-dasharray: 1.000000,3.000000; stroke-dashoffset: 0.000000; opacity: 1.000000" clip-path="url(#p50431ccdcb28178602d99d9270004dde)" d="M72.000000 172.800000L518.400000 172.800000"/>
</g>
<g id="line2d36">
<g ><use style="fill: none; stroke: #000000; stroke-width: 0.500000; stroke-linejoin: round; stroke-linecap: butt;  opacity: 1.000000" xlink:href="#m3400efa6b1638b3fea9e19e898273957" x="72.000000" y="172.800000"/>
</g></g>
<g id="line2d37">
<g ><use style="fill: none; stroke: #000000; stroke-width: 0.500000; stroke-linejoin: round; stroke-linecap: butt;  opacity: 1.000000" xlink:href="#m20b58b2501143cb5e0a5e8f1ef6f1643" x="518.400000" y="172.800000"/>
</g></g>
<g id="text12">
<g style="fill: #000000; opacity: 1.000000" transform="translate(43.265625,177.167187)scale(0.120000)">
<use xlink:href="#c_7a2040fe3b94fcd41d0a72c84e93b115"/>
<use xlink:href="#c_ed3e21196fb739f392806f09ca0594ef" x="63.623047"/>
<use xlink:href="#c_42baa63129a918535c52adb20d687ea7" x="95.410156"/>
<use xlink:href="#c_ed3f3ed3ebfbd18bcb9c012009a68ad1" x="159.033203"/>
</g>
</g>
</g>
<g id="ytick7">
<g id="line2d38">
<path style="fill: none; stroke: #000000; stroke-width: 0.500000; stroke-linejoin: round; stroke-linecap: butt; stroke-dasharray: 1.000000,3.000000; stroke-dashoffset: 0.000000; opacity: 1.000000" clip-path="url(#p50431ccdcb28178602d99d9270004dde)" d="M72.000000 129.600000L518.400000 129.600000"/>
</g>
<g id="line2d39">
<g ><use style="fill: none; stroke: #000000; stroke-width: 0.500000; stroke-linejoin: round; stroke-linecap: butt;  opacity: 1.000000" xlink:href="#m3400efa6b1638b3fea9e19e898273957" x="72.000000" y="129.600000"/>
</g></g>
<g id="line2d40">
<g ><use style="fill: none; stroke: #000000; stroke-width: 0.500000; stroke-linejoin: round; stroke-linecap: butt;  opacity: 1.000000" xlink:href="#m20b58b2501143cb5e0a5e8f1ef6f1643" x="518.400000" y="129.600000"/>
</g></g>
<g id="text13">
<g style="fill: #000000; opacity: 1.000000" transform="translate(42.734375,133.967188)scale(0.120000)">
<use xlink:href="#c_7a2040fe3b94fcd41d0a72c84e93b115"/>
<use xlink:href="#c_ed3e21196fb739f392806f09ca0594ef" x="63.623047"/>
<use xlink:href="#c_42baa63129a918535c52adb20d687ea7" x="95.410156"/>
<use xlink:href="#c_a0416418d96557a09b8c1332d34883ba" x="159.033203"/>
</g>
</g>
</g>
<g id="ytick8">
<g id="line2d41">
<path style="fill: none; stroke: #000000; stroke-width: 0.500000; stroke-linejoin: round; stroke-linecap: butt; stroke-dasharray: 1.000000,3.000000; stroke-dashoffset: 0.000000; opacity: 1.000000" clip-path="url(#p50431ccdcb28178602d99d9270004dde)" d="M72.000000 86.400000L518.400000 86.400000"/>
</g>
<g id="line2d42">
<g ><use style="fill: none; stroke: #000000; stroke-width: 0.500000; stroke-linejoin: round; stroke-linecap: butt;  opacity: 1.000000" xlink:href="#m3400efa6b1638b3fea9e19e898273957" x="72.000000" y="86.400000"/>
</g></g>
<g id="line2d43">
<g ><use style="fill: none; stroke: #000000; stroke-width: 0.500000; stroke-linejoin: round; stroke-linecap: butt;  opacity: 1.000000" xlink:href="#m20b58b2501143cb5e0a5e8f1ef6f1643" x="518.400000" y="86.400000"/>
</g></g>
<g id="text14">
<g style="fill: #000000; opacity: 1.000000" transform="translate(42.828125,90.767187)scale(0.120000)">
<use xlink:href="#c_7a2040fe3b94fcd41d0a72c84e93b115"/>
<use xlink:href="#c_ed3e21196fb739f392806f09ca0594ef" x="63.623047"/>
<use xlink:href="#c_42baa63129a918535c52adb20d687ea7" x="95.410156"/>
<use xlink:href="#c_cc8d6d580d1b10c8632f7a42cd53db8a" x="159.033203"/>
</g>
</g>
</g>
<g id="ytick9">
<g id="line2d44">
<path style="fill: none; stroke: #000000; stroke-width: 0.500000; stroke-linejoin: round; stroke-linecap: butt; stroke-dasharray: 1.000000,3.000000; stroke-dashoffset: 0.000000; opacity: 1.000000" clip-path="url(#p50431ccdcb28178602d99d9270004dde)" d="M72.000000 43.200000L518.400000 43.200000"/>
</g>
<g id="line2d45">
<g ><use style="fill: none; stroke: #000000; stroke-width: 0.500000; stroke-linejoin: round; stroke-linecap: butt;  opacity: 1.000000" xlink:href="#m3400efa6b1638b3fea9e19e898273957" x="72.000000" y="43.200000"/>
</g></g>
<g id="line2d46">
<g ><use style="fill: none; stroke: #000000; stroke-width: 0.500000; stroke-linejoin: round; stroke-linecap: butt;  opacity: 1.000000" xlink:href="#m20b58b2501143cb5e0a5e8f1ef6f1643" x="518.400000" y="43.200000"/>
</g></g>
<g id="text15">
<g style="fill: #000000; opacity: 1.000000" transform="translate(42.890625,47.567187)scale(0.120000)">
<use xlink:href="#c_7a2040fe3b94fcd41d0a72c84e93b115"/>
<use xlink:href="#c_ed3e21196fb739f392806f09ca0594ef" x="63.623047"/>
<use xlink:href="#c_42baa63129a918535c52adb20d687ea7" x="95.410156"/>
<use xlink:href="#c_bef35738d52871942e50b9de9b122bab" x="159.033203"/>
</g>
</g>
</g>
</g>
<g id="patch3">
<path style="fill: none; stroke: #000000; stroke-width: 1.000000; stroke-linejoin: round; stroke-linecap: square;  opacity: 1.000000"  d="M72.000000 43.200000L518.400000 43.200000"/>
</g>
<g id="patch4">
<path style="fill: none; stroke: #000000; stroke-width: 1.000000; stroke-linejoin: round; stroke-linecap: square;  opacity: 1.000000"  d="M518.400000 388.800000L518.400000 43.200000"/>
</g>
<g id="patch5">
<path style="fill: none; stroke: #000000; stroke-width: 1.000000; stroke-linejoin: round; stroke-linecap: square;  opacity: 1.000000"  d="M72.000000 388.800000L518.400000 388.800000"/>
</g>
<g id="patch6">
<path style="fill: none; stroke: #000000; stroke-width: 1.000000; stroke-linejoin: round; stroke-linecap: square;  opacity: 1.000000"  d="M72.000000 388.800000L72.000000 43.200000"/>
</g>
</g>
</g>
</svg>
