<?xml version="1.0" standalone="no"?>
<!DOCTYPE svg PUBLIC "-//W3C//DTD SVG 1.1//EN"
  "http://www.w3.org/Graphics/SVG/1.1/DTD/svg11.dtd">
<!-- Created with matplotlib (http://matplotlib.sourceforge.net/) -->
<svg width="576pt" height="432pt" viewBox="0 0 576 432"
   xmlns="http://www.w3.org/2000/svg"
   xmlns:xlink="http://www.w3.org/1999/xlink"
   version="1.1"
   id="svg1">
<g id="figure1">
<g id="patch1">
<path style="fill: #ffffff; stroke: #ffffff; stroke-width: 1.000000; stroke-linejoin: round; stroke-linecap: square;  opacity: 1.000000"  d="M0.000000 432.000000L576.000000 432.000000L576.000000 0.000000
L0.000000 0.000000L0.000000 432.000000"/>
</g>
<g id="axes1">
<g id="patch2">
<path style="fill: #ffffff; opacity: 1.000000"  d="M72.000000 388.800000L518.400000 388.800000L518.400000 43.200000
L72.000000 43.200000L72.000000 388.800000"/>
</g>
<g id="line2d1">
<defs>
  <clipPath id="p50431ccdcb28178602d99d9270004dde">
<rect x="72.000000" y="43.200000" width="446.400000" height="345.600000"/>
  </clipPath>
</defs><path style="fill: none; stroke: #ff0000; stroke-width: 1.000000; stroke-linejoin: round; stroke-linecap: square;  opacity: 1.000000" clip-path="url(#p50431ccdcb28178602d99d9270004dde)" d="M72.000000 179.976881L72.446400 117.050236L72.892800 97.368464
L73.339200 91.338484L73.785600 98.454095L74.678400 70.425357
L75.124800 75.262070L75.571200 123.961381L76.017600 224.085070
L76.464000 97.721000L76.910400 228.299826L77.356800 102.655839
L77.803200 223.566917L78.249600 220.703321L78.696000 120.269836
L79.588800 245.929031L80.035200 103.383590L80.481600 227.779397
L80.928000 96.080075L81.374400 114.771295L81.820800 241.238224
L82.267200 114.798082L82.713600 98.132239L83.160000 107.879044
L83.606400 227.229169L84.052800 128.009643L84.945600 327.992729
L85.392000 228.840932L85.838400 241.509453L86.284800 102.036760
L86.731200 228.926393L87.177600 113.107803L88.070400 225.615309
L88.516800 228.050147L88.963200 109.728905L89.409600 328.860098
L89.856000 225.053349L90.302400 222.117981L92.088000 229.170535
L92.534400 196.341962L92.980800 219.299004L93.427200 209.351681
L93.873600 224.516407L94.320000 218.616683L94.766400 204.055998
L95.212800 237.050626L95.659200 210.894512L96.105600 224.317491
L96.552000 221.858514L97.444800 225.793001L98.337600 222.864457
L99.230400 217.838767L99.676800 221.228291L100.123200 220.156875
L100.569600 228.235482L101.016000 218.298022L101.908800 224.996432
L102.355200 216.238625L102.801600 224.813265L103.694400 222.002366
L104.140800 223.871645L105.033600 220.631228L105.480000 222.471550
L105.926400 228.662766L106.372800 223.009257L107.265600 220.379982
L107.712000 224.609296L108.158400 222.132575L108.604800 224.188256
L109.051200 221.572935L109.497600 223.627943L110.390400 220.794209
L110.836800 334.943678L111.283200 223.628147L111.729600 225.507183
L112.622400 220.706450L113.068800 200.882870L113.961600 228.066794
L114.408000 222.313469L114.854400 224.829855L115.300800 104.731938
L115.747200 228.933983L116.193600 224.444413L117.086400 162.388544
L117.532800 240.766011L117.979200 222.837240L118.425600 225.717664
L119.318400 226.898670L120.657600 224.704987L121.104000 220.768647
L121.550400 221.834851L121.996800 220.191282L122.443200 224.519421
L123.336000 217.864319L123.782400 223.096658L124.228800 220.977393
L125.121600 226.348044L125.568000 224.333175L126.014400 202.107862
L126.460800 219.793326L127.353600 228.286941L127.800000 225.077854
L128.246400 226.425778L128.692800 219.928890L129.139200 224.877586
L129.585600 218.644317L130.032000 223.184914L130.924800 224.210725
L131.371200 221.759236L131.817600 224.556252L132.264000 219.673665
L133.156800 224.075337L134.049600 198.250341L134.496000 220.923534
L134.942400 226.271847L135.388800 222.019842L135.835200 227.905547
L136.281600 212.795774L136.728000 184.664846L137.174400 225.036511
L137.620800 219.889579L138.513600 225.968662L138.960000 223.203687
L140.299200 221.189739L140.745600 222.800858L141.638400 224.301038
L142.084800 221.223536L142.531200 223.111411L142.977600 221.327230
L143.424000 224.594124L143.870400 221.804517L144.316800 225.179440
L144.763200 201.605815L145.209600 226.665704L145.656000 214.988355
L146.102400 228.115809L146.548800 222.918223L146.995200 226.591112
L148.334400 205.101951L148.780800 227.614971L149.227200 217.159763
L150.120000 218.258372L150.566400 214.264232L151.459200 218.556170
L152.352000 217.333150L152.798400 171.154938L153.244800 218.284652
L153.691200 221.973025L154.137600 216.126803L155.030400 219.274746
L155.476800 193.617171L156.369600 219.958045L156.816000 215.869749
L157.708800 218.118936L158.155200 176.939127L158.601600 216.686487
L159.048000 221.594741L159.494400 216.182843L160.833600 221.919196
L161.280000 219.920363L161.726400 213.354634L162.172800 218.423391
L162.619200 216.742416L163.512000 180.081087L163.958400 216.673822
L164.404800 219.026008L164.851200 223.233401L165.297600 216.193708
L165.744000 221.786989L166.190400 215.435362L167.083200 219.204264
L167.976000 215.201272L168.868800 198.179340L169.315200 219.948925
L169.761600 207.547230L170.208000 218.927794L170.654400 220.139020
L171.547200 175.449446L171.993600 217.472503L172.886400 219.344486
L173.332800 222.348623L173.779200 218.182525L174.225600 328.311817
L174.672000 216.865506L175.118400 221.934720L175.564800 220.859342
L176.457600 215.798012L176.904000 218.094855L177.350400 212.923445
L177.796800 173.818682L179.136000 327.454596L179.582400 219.473816
L180.921600 214.406141L181.368000 221.007747L181.814400 219.055810
L182.707200 220.728550L183.153600 217.168529L184.046400 169.525778
L184.492800 218.396802L185.832000 217.326788L186.278400 208.583598
L186.724800 221.971338L187.171200 209.368584L188.064000 222.409575
L188.956800 211.973722L189.403200 215.885433L190.296000 211.832707
L190.742400 213.195772L191.635200 206.842514L192.528000 211.419346
L192.974400 212.833343L193.420800 209.455264L194.313600 177.484854
L195.206400 211.620081L196.099200 208.729242L196.545600 214.055788
L196.992000 314.075058L197.438400 212.291892L197.884800 215.183900
L198.331200 207.897601L198.777600 213.242691L199.224000 209.531196
L200.563200 211.344173L201.902400 323.422189L202.348800 211.447870
L203.241600 208.109612L203.688000 213.510774L204.134400 214.776847
L204.580800 207.022137L205.027200 213.278862L205.473600 209.916381
L206.366400 213.943954L206.812800 202.077880L207.259200 209.653593
L207.705600 207.004719L208.152000 212.932635L208.598400 208.020687
L209.044800 211.661672L209.491200 322.417610L209.937600 214.659108
L210.384000 208.724529L210.830400 210.343805L211.723200 211.369896
L212.169600 213.205439L212.616000 210.313116L213.955200 209.705349
L214.401600 155.549520L214.848000 213.788259L215.294400 211.809249
L215.740800 213.810552L216.187200 211.023719L216.633600 212.739952
L217.080000 209.844025L217.526400 212.064919L217.972800 207.468780
L218.419200 215.560499L218.865600 209.061233L219.312000 176.385360
L220.204800 214.523327L220.651200 213.037042L221.990400 323.588578
L222.436800 214.246106L223.329600 212.691224L223.776000 214.113116
L224.222400 207.724799L224.668800 210.412286L225.115200 208.415565
L226.008000 211.612919L226.454400 210.038437L226.900800 325.537311
L227.347200 208.372978L227.793600 231.024503L228.240000 163.577551
L228.686400 209.919366L229.132800 171.551775L229.579200 211.889964
L230.025600 209.012762L230.472000 214.636365L231.364800 205.631408
L231.811200 213.662094L232.257600 211.523462L233.150400 209.949266
L234.043200 323.699170L234.489600 212.073267L235.382400 209.488295
L235.828800 211.253585L236.275200 206.725664L236.721600 210.019992
L237.168000 168.154642L237.614400 208.977178L238.060800 214.235012
L238.953600 322.631864L239.400000 211.680141L239.846400 206.742442
L241.185600 203.333227L242.078400 205.798695L242.524800 203.736553
L243.864000 322.063949L244.310400 203.354560L244.756800 206.912553
L245.203200 202.798564L245.649600 204.713426L246.096000 322.222531
L246.542400 203.504100L246.988800 206.804498L247.435200 205.257741
L248.774400 204.872277L249.220800 202.845284L250.560000 205.584207
L251.006400 323.826080L251.452800 203.315264L251.899200 206.749693
L252.345600 166.757198L252.792000 203.953888L253.238400 322.351963
L253.684800 203.901749L254.577600 210.583902L255.024000 201.568992
L255.470400 168.010076L255.916800 203.333183L256.363200 204.523087
L256.809600 208.985295L257.702400 204.481329L258.148800 321.472402
L258.595200 203.531105L259.488000 206.569047L259.934400 218.059404
L260.380800 356.309241L260.827200 190.948874L261.273600 205.545962
L261.720000 203.101301L262.166400 206.652311L263.059200 203.786394
L263.505600 207.100800L263.952000 205.688888L264.398400 202.263525
L264.844800 204.690629L265.291200 323.054809L265.737600 207.444314
L266.184000 204.777721L266.630400 206.088641L267.523200 321.390928
L267.969600 206.072752L268.416000 196.099880L269.308800 207.795654
L269.755200 203.860072L270.201600 207.171022L271.094400 199.191176
L271.540800 203.302255L272.433600 321.263888L272.880000 205.729259
L273.326400 204.142182L273.772800 206.235111L274.219200 201.046068
L274.665600 321.882199L275.112000 202.384176L275.558400 205.636495
L276.004800 163.786513L276.451200 208.948774L276.897600 326.068972
L277.344000 195.635946L277.790400 192.582049L278.683200 195.944560
L279.129600 169.653198L279.576000 193.084942L280.022400 196.010525
L280.915200 193.735687L281.361600 319.215855L281.808000 197.344577
L282.254400 195.704250L282.700800 197.356337L283.147200 195.190591
L283.593600 319.984855L284.040000 194.703317L284.486400 188.401015
L284.932800 198.404684L285.379200 57.690223L285.825600 288.498889
L286.272000 195.321056L287.164800 193.432882L287.611200 113.760641
L288.057600 246.152038L288.504000 193.249117L288.950400 191.752880
L289.843200 196.210202L290.289600 191.652904L291.182400 190.516068
L291.628800 194.508983L292.075200 187.233260L292.521600 190.130979
L292.968000 150.927047L293.414400 193.016279L294.753600 197.033791
L296.539200 187.134835L297.432000 191.927530L297.878400 186.994859
L298.324800 193.317864L298.771200 189.654902L299.664000 190.900347
L300.110400 189.817380L300.556800 192.194860L301.003200 184.180062
L301.896000 192.859135L302.342400 190.062937L303.235200 188.465822
L304.128000 193.091300L304.574400 188.968747L305.467200 186.235518
L305.913600 190.982319L306.360000 192.101615L306.806400 189.625203
L307.252800 192.318418L307.699200 189.406472L308.145600 192.198456
L308.592000 190.527811L309.038400 184.570359L309.484800 148.982653
L309.931200 194.327614L310.824000 192.856584L312.163200 188.525768
L313.056000 191.126847L313.502400 189.849802L313.948800 190.911890
L314.395200 188.797331L315.288000 190.125687L315.734400 191.467015
L316.180800 176.988894L316.627200 199.902510L317.520000 185.376365
L317.966400 155.033471L318.412800 196.103553L318.859200 191.004776
L319.752000 193.706492L320.644800 191.501580L321.091200 189.251728
L321.984000 191.892206L322.430400 188.781192L322.876800 194.681555
L323.323200 186.653047L323.769600 190.457578L324.216000 189.440123
L324.662400 192.481074L325.108800 187.563081L325.555200 189.243250
L326.448000 147.921835L326.894400 190.529964L327.340800 191.843890
L327.787200 190.116762L328.233600 194.091033L329.572800 183.325319
L330.019200 196.792955L330.465600 189.445021L332.251200 192.391063
L333.144000 190.942262L334.036800 124.310008L334.483200 214.765021
L334.929600 193.529998L335.376000 191.130381L335.822400 193.988341
L337.161600 188.851184L338.054400 190.236606L338.500800 186.011162
L338.947200 177.287469L339.393600 178.934247L339.840000 177.892768
L340.286400 179.532156L341.179200 175.649666L342.072000 179.511979
L342.518400 171.892475L342.964800 143.609971L343.411200 177.234910
L343.857600 182.980040L344.304000 181.079866L345.196800 182.455625
L345.643200 175.268694L346.536000 181.061832L346.982400 177.547979
L348.321600 178.694350L348.768000 180.040392L350.107200 173.404992
L350.553600 180.085767L351.000000 175.258383L351.446400 140.266417
L351.892800 179.665036L352.339200 147.521001L352.785600 180.718425
L353.232000 183.124146L353.678400 182.109271L354.571200 177.504185
L355.017600 183.502865L355.464000 181.354981L356.803200 177.161255
L357.249600 181.155122L357.696000 180.095813L358.588800 181.370830
L359.035200 155.684699L359.481600 182.586183L359.928000 173.990969
L360.374400 181.029839L361.267200 182.268085L362.160000 180.846382
L363.499200 176.169327L364.392000 181.255753L364.838400 179.834353
L365.731200 156.415931L366.177600 177.671664L367.070400 183.990363
L367.516800 180.071564L367.963200 156.283029L368.409600 181.071738
L369.302400 183.069363L369.748800 180.773812L370.641600 185.072300
L371.088000 194.253277L371.534400 248.683639L372.873600 280.412150
L373.320000 351.647661L373.766400 265.728962L374.212800 261.803329
L375.105600 265.808900L376.444800 264.791229L376.891200 265.844850
L377.337600 263.280069L378.230400 265.498711L378.676800 260.812481
L379.569600 264.292332L380.016000 260.775257L380.462400 261.838920
L380.908800 263.972097L381.355200 262.798021L381.801600 259.669569
L382.248000 263.096026L382.694400 262.087380L383.587200 265.753409
L384.480000 261.817098L384.926400 263.983768L385.372800 259.725654
L385.819200 262.959160L386.265600 261.285236L386.712000 265.475811
L387.604800 260.642459L388.051200 266.056157L388.497600 261.861723
L389.390400 265.887398L389.836800 264.142493L390.729600 262.813936
L391.622400 228.515122L392.068800 339.844321L392.961600 245.417778
L393.408000 265.523014L393.854400 259.917294L394.300800 266.976711
L394.747200 262.035672L395.193600 265.608758L395.640000 261.929035
L396.532800 267.215691L396.979200 261.334218L397.425600 266.124264
L397.872000 262.046226L398.318400 264.940627L398.764800 261.925100
L399.211200 266.994678L400.104000 261.213905L400.550400 263.753907
L401.443200 262.247948L401.889600 264.186299L402.782400 266.400872
L403.228800 261.028006L403.675200 264.829895L404.121600 261.283616
L404.568000 265.388715L405.014400 262.732170L405.460800 265.607108
L405.907200 262.677071L406.800000 264.823955L407.692800 261.620890
L408.139200 265.497227L408.585600 262.698424L409.032000 268.263545
L410.371200 256.789033L410.817600 343.590702L411.264000 263.797078
L411.710400 264.853920L412.603200 260.453667L413.049600 265.815970
L413.496000 263.284299L414.835200 263.658691L415.281600 256.902034
L415.728000 265.086216L416.174400 260.469236L417.513600 264.770230
L417.960000 262.743426L418.406400 264.715535L419.745600 264.295770
L420.192000 262.162240L420.638400 265.104499L421.531200 261.039971
L421.977600 263.292453L422.870400 265.983383L423.316800 262.482262
L424.656000 261.422058L425.102400 262.560016L425.548800 260.931071
L425.995200 263.108891L427.334400 262.571746L428.227200 259.953919
L428.673600 264.360213L429.120000 259.565835L429.566400 264.271079
L430.012800 259.350019L430.459200 263.998045L431.352000 262.986377
L431.798400 265.344497L432.244800 260.409002L432.691200 263.805525
L433.584000 259.182020L434.030400 224.837932L434.476800 286.106108
L434.923200 246.171656L435.369600 261.103488L436.708800 267.838762
L437.155200 264.162592L437.601600 267.904263L438.494400 261.053889
L438.940800 259.113784L439.833600 261.613556L441.619200 259.307418
L442.065600 261.284985L443.404800 258.471858L443.851200 260.792621
L444.297600 258.748048L445.190400 262.097380L446.083200 260.628140
L446.529600 264.659833L446.976000 260.383688L447.868800 262.011437
L448.315200 260.284557L448.761600 263.023977L449.208000 261.469375
L449.654400 262.484963L450.100800 260.792453L450.547200 262.279480
L450.993600 260.125087L451.440000 263.395243L452.332800 259.357169
L452.779200 260.563673L453.225600 259.165605L453.672000 263.940454
L454.118400 253.155820L454.564800 266.529132L455.011200 256.639434
L455.457600 261.860714L456.350400 252.812189L457.689600 262.890846
L458.136000 264.071328L458.582400 260.510411L459.921600 263.653001
L460.368000 257.957586L460.814400 354.203077L461.260800 254.790905
L461.707200 245.417117L462.153600 243.322793L462.600000 264.294965
L463.492800 261.529691L463.939200 263.565843L464.832000 260.786446
L465.278400 263.044681L466.171200 258.575092L466.617600 250.347894
L467.510400 262.016960L468.403200 257.958235L468.849600 261.468813
L469.296000 258.756392L469.742400 261.721768L470.188800 260.589057
L470.635200 263.870031L471.081600 259.052858L471.528000 262.338895
L472.867200 257.478273L473.313600 262.960935L473.760000 259.367612
L475.099200 262.478854L475.992000 260.405813L476.884800 262.721745
L477.331200 261.655089L477.777600 263.447743L478.224000 257.819791
L478.670400 262.212629L479.116800 257.983548L479.563200 262.254616
L480.456000 263.437764L482.241600 256.525734L483.134400 260.994095
L484.027200 257.069207L485.366400 255.596963L487.152000 260.891009
L487.598400 256.374780L488.044800 261.146193L488.491200 253.510615
L488.937600 255.582371L490.276800 256.388140L490.723200 258.815656
L491.616000 252.874348L492.062400 258.590330L492.955200 260.514555
L493.848000 258.325677L494.740800 252.887272L495.633600 259.172681
L496.972800 255.470092L497.419200 260.459757L497.865600 255.222801
L498.312000 257.133290L499.204800 259.436402L499.651200 256.164833
L500.097600 258.188991L500.990400 255.040239L501.883200 259.428860
L502.776000 257.406456L503.668800 260.753576L504.115200 253.803437
L504.561600 258.481373L505.008000 257.199109L505.454400 259.599363
L505.900800 255.711501L506.347200 259.981139L506.793600 258.896822
L507.240000 252.575443L507.686400 257.748166L508.579200 256.671559
L509.472000 259.929943L510.364800 253.506077L510.811200 259.470229
L512.150400 255.352790L512.596800 275.871084L513.043200 269.583842
L513.489600 258.293599L514.382400 260.696210L514.828800 257.437582
L516.168000 257.426332L517.060800 255.916111L517.507200 259.262605
L517.953600 257.549269L517.953600 257.549269"/>
</g>
<g id="matplotlib.axis1">
<g id="xtick1">
<g id="line2d2">
<path style="fill: none; stroke: #000000; stroke-width: 0.500000; stroke-linejoin: round; stroke-linecap: butt; stroke-dasharray: 1.000000,3.000000; stroke-dashoffset: 0.000000; opacity: 1.000000" clip-path="url(#p50431ccdcb28178602d99d9270004dde)" d="M72.000000 388.800000L72.000000 43.200000"/>
</g>
<g id="line2d3">
<defs><path id="m30e32995789d870ad79a2e54c91cf9c6" d="M0.000000 0.000000L0.000000 -4.000000"/></defs>
<g ><use style="fill: none; stroke: #000000; stroke-width: 0.500000; stroke-linejoin: round; stroke-linecap: butt;  opacity: 1.000000" xlink:href="#m30e32995789d870ad79a2e54c91cf9c6" x="72.000000" y="388.800000"/>
</g></g>
<g id="line2d4">
<defs><path id="m9281cae24120827b11d5ea8a7ad3e96b" d="M0.000000 0.000000L0.000000 4.000000"/></defs>
<g ><use style="fill: none; stroke: #000000; stroke-width: 0.500000; stroke-linejoin: round; stroke-linecap: butt;  opacity: 1.000000" xlink:href="#m9281cae24120827b11d5ea8a7ad3e96b" x="72.000000" y="43.200000"/>
</g></g>
<g id="text1">
<defs>
<path id="c_7a2040fe3b94fcd41d0a72c84e93b115" d="M31.781250 -66.406250q-7.609375 0.000000 -11.453125 7.500000q-3.828125 7.484375 -3.828125 22.531250q0.000000 14.984375 3.828125 22.484375q3.843750 7.500000 11.453125 7.500000q7.671875 0.000000 11.500000 -7.500000q3.843750 -7.500000 3.843750 -22.484375q0.000000 -15.046875 -3.843750 -22.531250q-3.828125 -7.500000 -11.500000 -7.500000M31.781250 -74.218750q12.265625 0.000000 18.734375 9.703125q6.468750 9.687500 6.468750 28.140625q0.000000 18.406250 -6.468750 28.109375q-6.468750 9.687500 -18.734375 9.687500q-12.250000 0.000000 -18.718750 -9.687500q-6.468750 -9.703125 -6.468750 -28.109375q0.000000 -18.453125 6.468750 -28.140625q6.468750 -9.703125 18.718750 -9.703125"/>
</defs>
<g style="fill: #000000; opacity: 1.000000" transform="translate(68.976562,401.706250)scale(0.120000)">
<use xlink:href="#c_7a2040fe3b94fcd41d0a72c84e93b115"/>
</g>
</g>
</g>
<g id="xtick2">
<g id="line2d5">
<path style="fill: none; stroke: #000000; stroke-width: 0.500000; stroke-linejoin: round; stroke-linecap: butt; stroke-dasharray: 1.000000,3.000000; stroke-dashoffset: 0.000000; opacity: 1.000000" clip-path="url(#p50431ccdcb28178602d99d9270004dde)" d="M161.280000 388.800000L161.280000 43.200000"/>
</g>
<g id="line2d6">
<g ><use style="fill: none; stroke: #000000; stroke-width: 0.500000; stroke-linejoin: round; stroke-linecap: butt;  opacity: 1.000000" xlink:href="#m30e32995789d870ad79a2e54c91cf9c6" x="161.280000" y="388.800000"/>
</g></g>
<g id="line2d7">
<g ><use style="fill: none; stroke: #000000; stroke-width: 0.500000; stroke-linejoin: round; stroke-linecap: butt;  opacity: 1.000000" xlink:href="#m9281cae24120827b11d5ea8a7ad3e96b" x="161.280000" y="43.200000"/>
</g></g>
<g id="text2">
<defs>
<path id="c_ed3f3ed3ebfbd18bcb9c012009a68ad1" d="M19.187500 -8.296875l34.421875 0.000000l0.000000 8.296875l-46.281250 0.000000l0.000000 -8.296875q5.609375 -5.812500 15.296875 -15.593750q9.703125 -9.796875 12.187500 -12.640625q4.734375 -5.312500 6.609375 -9.000000q1.890625 -3.687500 1.890625 -7.250000q0.000000 -5.812500 -4.078125 -9.468750q-4.078125 -3.671875 -10.625000 -3.671875q-4.640625 0.000000 -9.796875 1.609375q-5.140625 1.609375 -11.000000 4.890625l0.000000 -9.968750q5.953125 -2.390625 11.125000 -3.609375q5.187500 -1.218750 9.484375 -1.218750q11.328125 0.000000 18.062500 5.671875q6.734375 5.656250 6.734375 15.125000q0.000000 4.500000 -1.687500 8.531250q-1.671875 4.015625 -6.125000 9.484375q-1.218750 1.421875 -7.765625 8.187500q-6.531250 6.765625 -18.453125 18.921875"/>
</defs>
<g style="fill: #000000; opacity: 1.000000" transform="translate(150.655000,401.706250)scale(0.120000)">
<use xlink:href="#c_ed3f3ed3ebfbd18bcb9c012009a68ad1"/>
<use xlink:href="#c_7a2040fe3b94fcd41d0a72c84e93b115" x="63.623047"/>
<use xlink:href="#c_7a2040fe3b94fcd41d0a72c84e93b115" x="127.246094"/>
</g>
</g>
</g>
<g id="xtick3">
<g id="line2d8">
<path style="fill: none; stroke: #000000; stroke-width: 0.500000; stroke-linejoin: round; stroke-linecap: butt; stroke-dasharray: 1.000000,3.000000; stroke-dashoffset: 0.000000; opacity: 1.000000" clip-path="url(#p50431ccdcb28178602d99d9270004dde)" d="M250.560000 388.800000L250.560000 43.200000"/>
</g>
<g id="line2d9">
<g ><use style="fill: none; stroke: #000000; stroke-width: 0.500000; stroke-linejoin: round; stroke-linecap: butt;  opacity: 1.000000" xlink:href="#m30e32995789d870ad79a2e54c91cf9c6" x="250.560000" y="388.800000"/>
</g></g>
<g id="line2d10">
<g ><use style="fill: none; stroke: #000000; stroke-width: 0.500000; stroke-linejoin: round; stroke-linecap: butt;  opacity: 1.000000" xlink:href="#m9281cae24120827b11d5ea8a7ad3e96b" x="250.560000" y="43.200000"/>
</g></g>
<g id="text3">
<defs>
<path id="c_a0416418d96557a09b8c1332d34883ba" d="M37.796875 -64.312500l-24.906250 38.921875l24.906250 0.000000zM35.203125 -72.906250l12.406250 0.000000l0.000000 47.515625l10.406250 0.000000l0.000000 8.203125l-10.406250 0.000000l0.000000 17.187500l-9.812500 0.000000l0.000000 -17.187500l-32.906250 0.000000l0.000000 -9.515625z"/>
</defs>
<g style="fill: #000000; opacity: 1.000000" transform="translate(239.794375,401.706250)scale(0.120000)">
<use xlink:href="#c_a0416418d96557a09b8c1332d34883ba"/>
<use xlink:href="#c_7a2040fe3b94fcd41d0a72c84e93b115" x="63.623047"/>
<use xlink:href="#c_7a2040fe3b94fcd41d0a72c84e93b115" x="127.246094"/>
</g>
</g>
</g>
<g id="xtick4">
<g id="line2d11">
<path style="fill: none; stroke: #000000; stroke-width: 0.500000; stroke-linejoin: round; stroke-linecap: butt; stroke-dasharray: 1.000000,3.000000; stroke-dashoffset: 0.000000; opacity: 1.000000" clip-path="url(#p50431ccdcb28178602d99d9270004dde)" d="M339.840000 388.800000L339.840000 43.200000"/>
</g>
<g id="line2d12">
<g ><use style="fill: none; stroke: #000000; stroke-width: 0.500000; stroke-linejoin: round; stroke-linecap: butt;  opacity: 1.000000" xlink:href="#m30e32995789d870ad79a2e54c91cf9c6" x="339.840000" y="388.800000"/>
</g></g>
<g id="line2d13">
<g ><use style="fill: none; stroke: #000000; stroke-width: 0.500000; stroke-linejoin: round; stroke-linecap: butt;  opacity: 1.000000" xlink:href="#m9281cae24120827b11d5ea8a7ad3e96b" x="339.840000" y="43.200000"/>
</g></g>
<g id="text4">
<defs>
<path id="c_cc8d6d580d1b10c8632f7a42cd53db8a" d="M33.015625 -40.375000q-6.640625 0.000000 -10.531250 4.546875q-3.875000 4.531250 -3.875000 12.437500q0.000000 7.859375 3.875000 12.437500q3.890625 4.562500 10.531250 4.562500q6.640625 0.000000 10.515625 -4.562500q3.875000 -4.578125 3.875000 -12.437500q0.000000 -7.906250 -3.875000 -12.437500q-3.875000 -4.546875 -10.515625 -4.546875M52.593750 -71.296875l0.000000 8.984375q-3.718750 -1.750000 -7.500000 -2.671875q-3.781250 -0.937500 -7.500000 -0.937500q-9.765625 0.000000 -14.921875 6.593750q-5.140625 6.593750 -5.875000 19.921875q2.875000 -4.250000 7.218750 -6.515625q4.359375 -2.265625 9.578125 -2.265625q10.984375 0.000000 17.359375 6.671875q6.375000 6.656250 6.375000 18.125000q0.000000 11.234375 -6.640625 18.031250q-6.640625 6.781250 -17.671875 6.781250q-12.656250 0.000000 -19.343750 -9.687500q-6.687500 -9.703125 -6.687500 -28.109375q0.000000 -17.281250 8.203125 -27.562500q8.203125 -10.281250 22.015625 -10.281250q3.718750 0.000000 7.500000 0.734375q3.781250 0.734375 7.890625 2.187500"/>
</defs>
<g style="fill: #000000; opacity: 1.000000" transform="translate(329.199375,401.706250)scale(0.120000)">
<use xlink:href="#c_cc8d6d580d1b10c8632f7a42cd53db8a"/>
<use xlink:href="#c_7a2040fe3b94fcd41d0a72c84e93b115" x="63.623047"/>
<use xlink:href="#c_7a2040fe3b94fcd41d0a72c84e93b115" x="127.246094"/>
</g>
</g>
</g>
<g id="xtick5">
<g id="line2d14">
<path style="fill: none; stroke: #000000; stroke-width: 0.500000; stroke-linejoin: round; stroke-linecap: butt; stroke-dasharray: 1.000000,3.000000; stroke-dashoffset: 0.000000; opacity: 1.000000" clip-path="url(#p50431ccdcb28178602d99d9270004dde)" d="M429.120000 388.800000L429.120000 43.200000"/>
</g>
<g id="line2d15">
<g ><use style="fill: none; stroke: #000000; stroke-width: 0.500000; stroke-linejoin: round; stroke-linecap: butt;  opacity: 1.000000" xlink:href="#m30e32995789d870ad79a2e54c91cf9c6" x="429.120000" y="388.800000"/>
</g></g>
<g id="line2d16">
<g ><use style="fill: none; stroke: #000000; stroke-width: 0.500000; stroke-linejoin: round; stroke-linecap: butt;  opacity: 1.000000" xlink:href="#m9281cae24120827b11d5ea8a7ad3e96b" x="429.120000" y="43.200000"/>
</g></g>
<g id="text5">
<defs>
<path id="c_bef35738d52871942e50b9de9b122bab" d="M31.781250 -34.625000q-7.031250 0.000000 -11.062500 3.765625q-4.015625 3.765625 -4.015625 10.343750q0.000000 6.593750 4.015625 10.359375q4.031250 3.765625 11.062500 3.765625q7.031250 0.000000 11.078125 -3.781250q4.062500 -3.796875 4.062500 -10.343750q0.000000 -6.578125 -4.031250 -10.343750q-4.015625 -3.765625 -11.109375 -3.765625M21.921875 -38.812500q-6.343750 -1.562500 -9.890625 -5.906250q-3.531250 -4.359375 -3.531250 -10.609375q0.000000 -8.734375 6.218750 -13.812500q6.234375 -5.078125 17.062500 -5.078125q10.890625 0.000000 17.093750 5.078125q6.203125 5.078125 6.203125 13.812500q0.000000 6.250000 -3.546875 10.609375q-3.531250 4.343750 -9.828125 5.906250q7.125000 1.656250 11.093750 6.500000q3.984375 4.828125 3.984375 11.796875q0.000000 10.609375 -6.468750 16.281250q-6.468750 5.656250 -18.531250 5.656250q-12.046875 0.000000 -18.531250 -5.656250q-6.468750 -5.671875 -6.468750 -16.281250q0.000000 -6.968750 4.000000 -11.796875q4.015625 -4.843750 11.140625 -6.500000M18.312500 -54.390625q0.000000 5.656250 3.531250 8.828125q3.546875 3.171875 9.937500 3.171875q6.359375 0.000000 9.937500 -3.171875q3.593750 -3.171875 3.593750 -8.828125q0.000000 -5.671875 -3.593750 -8.843750q-3.578125 -3.171875 -9.937500 -3.171875q-6.390625 0.000000 -9.937500 3.171875q-3.531250 3.171875 -3.531250 8.843750"/>
</defs>
<g style="fill: #000000; opacity: 1.000000" transform="translate(418.463750,401.706250)scale(0.120000)">
<use xlink:href="#c_bef35738d52871942e50b9de9b122bab"/>
<use xlink:href="#c_7a2040fe3b94fcd41d0a72c84e93b115" x="63.623047"/>
<use xlink:href="#c_7a2040fe3b94fcd41d0a72c84e93b115" x="127.246094"/>
</g>
</g>
</g>
<g id="xtick6">
<g id="line2d17">
<path style="fill: none; stroke: #000000; stroke-width: 0.500000; stroke-linejoin: round; stroke-linecap: butt; stroke-dasharray: 1.000000,3.000000; stroke-dashoffset: 0.000000; opacity: 1.000000" clip-path="url(#p50431ccdcb28178602d99d9270004dde)" d="M518.400000 388.800000L518.400000 43.200000"/>
</g>
<g id="line2d18">
<g ><use style="fill: none; stroke: #000000; stroke-width: 0.500000; stroke-linejoin: round; stroke-linecap: butt;  opacity: 1.000000" xlink:href="#m30e32995789d870ad79a2e54c91cf9c6" x="518.400000" y="388.800000"/>
</g></g>
<g id="line2d19">
<g ><use style="fill: none; stroke: #000000; stroke-width: 0.500000; stroke-linejoin: round; stroke-linecap: butt;  opacity: 1.000000" xlink:href="#m9281cae24120827b11d5ea8a7ad3e96b" x="518.400000" y="43.200000"/>
</g></g>
<g id="text6">
<defs>
<path id="c_42baa63129a918535c52adb20d687ea7" d="M12.406250 -8.296875l16.109375 0.000000l0.000000 -55.625000l-17.531250 3.515625l0.000000 -8.984375l17.437500 -3.515625l9.859375 0.000000l0.000000 64.609375l16.109375 0.000000l0.000000 8.296875l-41.984375 0.000000z"/>
</defs>
<g style="fill: #000000; opacity: 1.000000" transform="translate(504.173437,401.706250)scale(0.120000)">
<use xlink:href="#c_42baa63129a918535c52adb20d687ea7"/>
<use xlink:href="#c_7a2040fe3b94fcd41d0a72c84e93b115" x="63.623047"/>
<use xlink:href="#c_7a2040fe3b94fcd41d0a72c84e93b115" x="127.246094"/>
<use xlink:href="#c_7a2040fe3b94fcd41d0a72c84e93b115" x="190.869141"/>
</g>
</g>
</g>
</g>
<g id="matplotlib.axis2">
<g id="ytick1">
<g id="line2d20">
<path style="fill: none; stroke: #000000; stroke-width: 0.500000; stroke-linejoin: round; stroke-linecap: butt; stroke-dasharray: 1.000000,3.000000; stroke-dashoffset: 0.000000; opacity: 1.000000" clip-path="url(#p50431ccdcb28178602d99d9270004dde)" d="M72.000000 388.800000L518.400000 388.800000"/>
</g>
<g id="line2d21">
<defs><path id="m3400efa6b1638b3fea9e19e898273957" d="M0.000000 0.000000L4.000000 0.000000"/></defs>
<g ><use style="fill: none; stroke: #000000; stroke-width: 0.500000; stroke-linejoin: round; stroke-linecap: butt;  opacity: 1.000000" xlink:href="#m3400efa6b1638b3fea9e19e898273957" x="72.000000" y="388.800000"/>
</g></g>
<g id="line2d22">
<defs><path id="m20b58b2501143cb5e0a5e8f1ef6f1643" d="M0.000000 0.000000L-4.000000 0.000000"/></defs>
<g ><use style="fill: none; stroke: #000000; stroke-width: 0.500000; stroke-linejoin: round; stroke-linecap: butt;  opacity: 1.000000" xlink:href="#m20b58b2501143cb5e0a5e8f1ef6f1643" x="518.400000" y="388.800000"/>
</g></g>
<g id="text7">
<defs>
<path id="c_ed3e21196fb739f392806f09ca0594ef" d="M10.687500 -12.406250l10.312500 0.000000l0.000000 12.406250l-10.312500 0.000000z"/>
</defs>
<g style="fill: #000000; opacity: 1.000000" transform="translate(50.906250,393.167188)scale(0.120000)">
<use xlink:href="#c_7a2040fe3b94fcd41d0a72c84e93b115"/>
<use xlink:href="#c_ed3e21196fb739f392806f09ca0594ef" x="63.623047"/>
<use xlink:href="#c_ed3f3ed3ebfbd18bcb9c012009a68ad1" x="95.410156"/>
</g>
</g>
</g>
<g id="ytick2">
<g id="line2d23">
<path style="fill: none; stroke: #000000; stroke-width: 0.500000; stroke-linejoin: round; stroke-linecap: butt; stroke-dasharray: 1.000000,3.000000; stroke-dashoffset: 0.000000; opacity: 1.000000" clip-path="url(#p50431ccdcb28178602d99d9270004dde)" d="M72.000000 339.428571L518.400000 339.428571"/>
</g>
<g id="line2d24">
<g ><use style="fill: none; stroke: #000000; stroke-width: 0.500000; stroke-linejoin: round; stroke-linecap: butt;  opacity: 1.000000" xlink:href="#m3400efa6b1638b3fea9e19e898273957" x="72.000000" y="339.428571"/>
</g></g>
<g id="line2d25">
<g ><use style="fill: none; stroke: #000000; stroke-width: 0.500000; stroke-linejoin: round; stroke-linecap: butt;  opacity: 1.000000" xlink:href="#m20b58b2501143cb5e0a5e8f1ef6f1643" x="518.400000" y="339.428571"/>
</g></g>
<g id="text8">
<g style="fill: #000000; opacity: 1.000000" transform="translate(50.375000,343.795759)scale(0.120000)">
<use xlink:href="#c_7a2040fe3b94fcd41d0a72c84e93b115"/>
<use xlink:href="#c_ed3e21196fb739f392806f09ca0594ef" x="63.623047"/>
<use xlink:href="#c_a0416418d96557a09b8c1332d34883ba" x="95.410156"/>
</g>
</g>
</g>
<g id="ytick3">
<g id="line2d26">
<path style="fill: none; stroke: #000000; stroke-width: 0.500000; stroke-linejoin: round; stroke-linecap: butt; stroke-dasharray: 1.000000,3.000000; stroke-dashoffset: 0.000000; opacity: 1.000000" clip-path="url(#p50431ccdcb28178602d99d9270004dde)" d="M72.000000 290.057143L518.400000 290.057143"/>
</g>
<g id="line2d27">
<g ><use style="fill: none; stroke: #000000; stroke-width: 0.500000; stroke-linejoin: round; stroke-linecap: butt;  opacity: 1.000000" xlink:href="#m3400efa6b1638b3fea9e19e898273957" x="72.000000" y="290.057143"/>
</g></g>
<g id="line2d28">
<g ><use style="fill: none; stroke: #000000; stroke-width: 0.500000; stroke-linejoin: round; stroke-linecap: butt;  opacity: 1.000000" xlink:href="#m20b58b2501143cb5e0a5e8f1ef6f1643" x="518.400000" y="290.057143"/>
</g></g>
<g id="text9">
<g style="fill: #000000; opacity: 1.000000" transform="translate(50.468750,294.424330)scale(0.120000)">
<use xlink:href="#c_7a2040fe3b94fcd41d0a72c84e93b115"/>
<use xlink:href="#c_ed3e21196fb739f392806f09ca0594ef" x="63.623047"/>
<use xlink:href="#c_cc8d6d580d1b10c8632f7a42cd53db8a" x="95.410156"/>
</g>
</g>
</g>
<g id="ytick4">
<g id="line2d29">
<path style="fill: none; stroke: #000000; stroke-width: 0.500000; stroke-linejoin: round; stroke-linecap: butt; stroke-dasharray: 1.000000,3.000000; stroke-dashoffset: 0.000000; opacity: 1.000000" clip-path="url(#p50431ccdcb28178602d99d9270004dde)" d="M72.000000 240.685714L518.400000 240.685714"/>
</g>
<g id="line2d30">
<g ><use style="fill: none; stroke: #000000; stroke-width: 0.500000; stroke-linejoin: round; stroke-linecap: butt;  opacity: 1.000000" xlink:href="#m3400efa6b1638b3fea9e19e898273957" x="72.000000" y="240.685714"/>
</g></g>
<g id="line2d31">
<g ><use style="fill: none; stroke: #000000; stroke-width: 0.500000; stroke-linejoin: round; stroke-linecap: butt;  opacity: 1.000000" xlink:href="#m20b58b2501143cb5e0a5e8f1ef6f1643" x="518.400000" y="240.685714"/>
</g></g>
<g id="text10">
<g style="fill: #000000; opacity: 1.000000" transform="translate(50.531250,245.052902)scale(0.120000)">
<use xlink:href="#c_7a2040fe3b94fcd41d0a72c84e93b115"/>
<use xlink:href="#c_ed3e21196fb739f392806f09ca0594ef" x="63.623047"/>
<use xlink:href="#c_bef35738d52871942e50b9de9b122bab" x="95.410156"/>
</g>
</g>
</g>
<g id="ytick5">
<g id="line2d32">
<path style="fill: none; stroke: #000000; stroke-width: 0.500000; stroke-linejoin: round; stroke-linecap: butt; stroke-dasharray: 1.000000,3.000000; stroke-dashoffset: 0.000000; opacity: 1.000000" clip-path="url(#p50431ccdcb28178602d99d9270004dde)" d="M72.000000 191.314286L518.400000 191.314286"/>
</g>
<g id="line2d33">
<g ><use style="fill: none; stroke: #000000; stroke-width: 0.500000; stroke-linejoin: round; stroke-linecap: butt;  opacity: 1.000000" xlink:href="#m3400efa6b1638b3fea9e19e898273957" x="72.000000" y="191.314286"/>
</g></g>
<g id="line2d34">
<g ><use style="fill: none; stroke: #000000; stroke-width: 0.500000; stroke-linejoin: round; stroke-linecap: butt;  opacity: 1.000000" xlink:href="#m20b58b2501143cb5e0a5e8f1ef6f1643" x="518.400000" y="191.314286"/>
</g></g>
<g id="text11">
<g style="fill: #000000; opacity: 1.000000" transform="translate(51.015625,195.681473)scale(0.120000)">
<use xlink:href="#c_42baa63129a918535c52adb20d687ea7"/>
<use xlink:href="#c_ed3e21196fb739f392806f09ca0594ef" x="63.623047"/>
<use xlink:href="#c_7a2040fe3b94fcd41d0a72c84e93b115" x="95.410156"/>
</g>
</g>
</g>
<g id="ytick6">
<g id="line2d35">
<path style="fill: none; stroke: #000000; stroke-width: 0.500000; stroke-linejoin: round; stroke-linecap: butt; stroke-dasharray: 1.000000,3.000000; stroke-dashoffset: 0.000000; opacity: 1.000000" clip-path="url(#p50431ccdcb28178602d99d9270004dde)" d="M72.000000 141.942857L518.400000 141.942857"/>
</g>
<g id="line2d36">
<g ><use style="fill: none; stroke: #000000; stroke-width: 0.500000; stroke-linejoin: round; stroke-linecap: butt;  opacity: 1.000000" xlink:href="#m3400efa6b1638b3fea9e19e898273957" x="72.000000" y="141.942857"/>
</g></g>
<g id="line2d37">
<g ><use style="fill: none; stroke: #000000; stroke-width: 0.500000; stroke-linejoin: round; stroke-linecap: butt;  opacity: 1.000000" xlink:href="#m20b58b2501143cb5e0a5e8f1ef6f1643" x="518.400000" y="141.942857"/>
</g></g>
<g id="text12">
<g style="fill: #000000; opacity: 1.000000" transform="translate(51.421875,146.395982)scale(0.120000)">
<use xlink:href="#c_42baa63129a918535c52adb20d687ea7"/>
<use xlink:href="#c_ed3e21196fb739f392806f09ca0594ef" x="63.623047"/>
<use xlink:href="#c_ed3f3ed3ebfbd18bcb9c012009a68ad1" x="95.410156"/>
</g>
</g>
</g>
<g id="ytick7">
<g id="line2d38">
<path style="fill: none; stroke: #000000; stroke-width: 0.500000; stroke-linejoin: round; stroke-linecap: butt; stroke-dasharray: 1.000000,3.000000; stroke-dashoffset: 0.000000; opacity: 1.000000" clip-path="url(#p50431ccdcb28178602d99d9270004dde)" d="M72.000000 92.571429L518.400000 92.571429"/>
</g>
<g id="line2d39">
<g ><use style="fill: none; stroke: #000000; stroke-width: 0.500000; stroke-linejoin: round; stroke-linecap: butt;  opacity: 1.000000" xlink:href="#m3400efa6b1638b3fea9e19e898273957" x="72.000000" y="92.571429"/>
</g></g>
<g id="line2d40">
<g ><use style="fill: none; stroke: #000000; stroke-width: 0.500000; stroke-linejoin: round; stroke-linecap: butt;  opacity: 1.000000" xlink:href="#m20b58b2501143cb5e0a5e8f1ef6f1643" x="518.400000" y="92.571429"/>
</g></g>
<g id="text13">
<g style="fill: #000000; opacity: 1.000000" transform="translate(50.890625,96.946429)scale(0.120000)">
<use xlink:href="#c_42baa63129a918535c52adb20d687ea7"/>
<use xlink:href="#c_ed3e21196fb739f392806f09ca0594ef" x="63.623047"/>
<use xlink:href="#c_a0416418d96557a09b8c1332d34883ba" x="95.410156"/>
</g>
</g>
</g>
<g id="ytick8">
<g id="line2d41">
<path style="fill: none; stroke: #000000; stroke-width: 0.500000; stroke-linejoin: round; stroke-linecap: butt; stroke-dasharray: 1.000000,3.000000; stroke-dashoffset: 0.000000; opacity: 1.000000" clip-path="url(#p50431ccdcb28178602d99d9270004dde)" d="M72.000000 43.200000L518.400000 43.200000"/>
</g>
<g id="line2d42">
<g ><use style="fill: none; stroke: #000000; stroke-width: 0.500000; stroke-linejoin: round; stroke-linecap: butt;  opacity: 1.000000" xlink:href="#m3400efa6b1638b3fea9e19e898273957" x="72.000000" y="43.200000"/>
</g></g>
<g id="line2d43">
<g ><use style="fill: none; stroke: #000000; stroke-width: 0.500000; stroke-linejoin: round; stroke-linecap: butt;  opacity: 1.000000" xlink:href="#m20b58b2501143cb5e0a5e8f1ef6f1643" x="518.400000" y="43.200000"/>
</g></g>
<g id="text14">
<g style="fill: #000000; opacity: 1.000000" transform="translate(50.984375,47.567188)scale(0.120000)">
<use xlink:href="#c_42baa63129a918535c52adb20d687ea7"/>
<use xlink:href="#c_ed3e21196fb739f392806f09ca0594ef" x="63.623047"/>
<use xlink:href="#c_cc8d6d580d1b10c8632f7a42cd53db8a" x="95.410156"/>
</g>
</g>
</g>
</g>
<g id="patch3">
<path style="fill: none; stroke: #000000; stroke-width: 1.000000; stroke-linejoin: round; stroke-linecap: square;  opacity: 1.000000"  d="M72.000000 43.200000L518.400000 43.200000"/>
</g>
<g id="patch4">
<path style="fill: none; stroke: #000000; stroke-width: 1.000000; stroke-linejoin: round; stroke-linecap: square;  opacity: 1.000000"  d="M518.400000 388.800000L518.400000 43.200000"/>
</g>
<g id="patch5">
<path style="fill: none; stroke: #000000; stroke-width: 1.000000; stroke-linejoin: round; stroke-linecap: square;  opacity: 1.000000"  d="M72.000000 388.800000L518.400000 388.800000"/>
</g>
<g id="patch6">
<path style="fill: none; stroke: #000000; stroke-width: 1.000000; stroke-linejoin: round; stroke-linecap: square;  opacity: 1.000000"  d="M72.000000 388.800000L72.000000 43.200000"/>
</g>
</g>
</g>
</svg>
