<?xml version="1.0" standalone="no"?>
<!DOCTYPE svg PUBLIC "-//W3C//DTD SVG 1.1//EN"
  "http://www.w3.org/Graphics/SVG/1.1/DTD/svg11.dtd">
<!-- Created with matplotlib (http://matplotlib.sourceforge.net/) -->
<svg width="576pt" height="432pt" viewBox="0 0 576 432"
   xmlns="http://www.w3.org/2000/svg"
   xmlns:xlink="http://www.w3.org/1999/xlink"
   version="1.1"
   id="svg1">
<g id="figure1">
<g id="patch1">
<path style="fill: #ffffff; stroke: #ffffff; stroke-width: 1.000000; stroke-linejoin: round; stroke-linecap: square;  opacity: 1.000000"  d="M0.000000 432.000000L576.000000 432.000000L576.000000 0.000000
L0.000000 0.000000L0.000000 432.000000"/>
</g>
<g id="axes1">
<g id="patch2">
<path style="fill: #ffffff; opacity: 1.000000"  d="M72.000000 388.800000L518.400000 388.800000L518.400000 43.200000
L72.000000 43.200000L72.000000 388.800000"/>
</g>
<g id="line2d1">
<defs>
  <clipPath id="p50431ccdcb28178602d99d9270004dde">
<rect x="72.000000" y="43.200000" width="446.400000" height="345.600000"/>
  </clipPath>
</defs><path style="fill: none; stroke: #ff0000; stroke-width: 1.000000; stroke-linejoin: round; stroke-linecap: square;  opacity: 1.000000" clip-path="url(#p50431ccdcb28178602d99d9270004dde)" d="M72.000000 346.323940L72.446400 332.906342L72.892800 331.327281
L73.785600 346.242332L74.232000 314.033487L74.678400 339.555848
L75.124800 301.133468L75.571200 334.284849L76.017600 329.584504
L76.464000 334.725158L76.910400 348.481667L77.356800 345.124378
L77.803200 353.418086L78.249600 337.715005L79.142400 339.833119
L79.588800 353.662656L80.035200 303.105185L80.481600 297.513554
L80.928000 349.642852L81.374400 324.489047L81.820800 320.084360
L82.267200 357.541263L82.713600 354.284337L83.160000 336.015060
L83.606400 361.885670L84.499200 354.327199L84.945600 361.996270
L85.392000 356.168325L85.838400 361.814070L86.284800 350.385608
L86.731200 361.738552L87.624000 350.568346L88.070400 361.878121
L89.409600 361.910477L90.302400 354.521702L90.748800 361.187267
L91.641600 348.729508L92.088000 361.989420L92.980800 349.723208
L93.427200 361.470036L94.320000 355.962939L94.766400 361.799493
L97.444800 362.073907L98.784000 361.368714L99.230400 340.064302
L99.676800 361.813978L100.123200 355.845780L100.569600 361.678787
L101.016000 356.416097L101.462400 361.907520L101.908800 348.045780
L102.355200 359.571241L102.801600 361.438833L103.694400 355.638252
L104.140800 361.798387L105.480000 355.323702L105.926400 361.730319
L108.604800 361.999365L109.497600 353.913861L109.944000 342.139684
L110.390400 361.857784L111.729600 362.186803L112.176000 361.151992
L113.515200 361.564431L114.854400 347.822193L115.300800 360.670917
L115.747200 353.838228L116.193600 361.120497L117.532800 361.461120
L118.872000 355.775194L119.318400 361.657774L120.657600 361.872653
L121.996800 361.707418L122.889600 356.147059L123.336000 361.747768
L126.014400 361.721603L126.907200 357.561300L127.353600 361.761523
L128.692800 361.832724L129.139200 356.042788L130.032000 361.811889
L134.049600 361.551360L134.496000 355.718239L134.942400 361.607493
L136.281600 352.649825L137.174400 361.787520L137.620800 358.706220
L138.067200 361.851026L139.406400 356.192840L139.852800 360.570970
L140.299200 354.435011L140.745600 361.632707L142.084800 354.260621
L142.531200 361.770762L142.977600 355.623237L143.870400 357.597028
L144.316800 361.811981L145.209600 348.942766L146.102400 361.985057
L146.548800 355.008998L146.995200 361.825329L147.441600 356.560297
L147.888000 362.020424L149.227200 361.812741L150.120000 356.320950
L150.566400 361.923955L151.012800 360.498470L151.459200 354.284559
L151.905600 360.642770L152.352000 356.098353L153.244800 361.583508
L154.584000 361.937057L157.262400 361.801390L157.708800 353.999301
L158.155200 361.851994L159.048000 347.765330L159.494400 361.752438
L160.833600 356.191004L161.280000 360.731981L162.172800 361.778888
L162.619200 353.724795L163.065600 361.221512L163.958400 353.349420
L164.404800 361.714898L165.744000 354.215209L166.190400 361.920146
L167.529600 361.449861L168.868800 353.323008L169.315200 360.454318
L169.761600 355.892552L170.654400 361.628083L173.332800 361.697426
L173.779200 359.168325L174.225600 361.469437L175.564800 361.391094
L176.457600 352.467748L176.904000 361.711396L178.243200 360.871288
L179.136000 46.234084L179.582400 311.776527L180.028800 280.633129
L180.475200 152.401951L180.921600 133.388820L181.368000 361.691858
L182.260800 356.016591L182.707200 361.650232L183.600000 348.571277
L184.046400 361.595581L184.492800 353.837714L184.939200 361.187820
L185.832000 353.424983L186.278400 356.297226L186.724800 361.829207
L188.064000 362.023043L188.956800 357.606121L189.403200 362.028334
L190.742400 361.968215L191.188800 356.232177L191.635200 361.706703
L192.081600 356.295790L192.528000 361.976732L193.420800 359.008550
L193.867200 361.896207L197.884800 361.859443L198.331200 357.200732
L198.777600 361.649426L199.224000 354.221015L199.670400 361.587840
L201.009600 353.105495L201.456000 361.303043L201.902400 359.764193
L202.348800 361.928333L202.795200 355.988559L203.241600 361.415762
L204.134400 356.064561L204.580800 361.563210L205.027200 353.791503
L205.473600 361.907528L205.920000 354.014477L206.366400 362.068063
L206.812800 357.238602L207.259200 361.597839L209.937600 361.837394
L210.384000 357.976197L210.830400 362.132989L212.169600 355.956534
L212.616000 361.496532L213.955200 353.863688L214.401600 361.433902
L214.848000 353.676111L215.294400 361.827372L215.740800 356.259149
L216.633600 361.437189L217.080000 356.645146L217.526400 361.944461
L218.865600 354.349356L219.312000 361.866478L220.204800 348.681992
L220.651200 361.998497L221.097600 354.594324L221.544000 243.472543
L221.990400 361.915876L222.436800 353.982643L222.883200 362.056596
L223.329600 358.697457L224.668800 335.375739L225.115200 361.447887
L226.454400 347.732145L226.900800 361.623398L227.347200 358.186168
L227.793600 361.543680L229.132800 361.476933L230.025600 355.544563
L230.918400 361.452841L231.364800 359.113029L231.811200 361.572288
L232.257600 356.149939L232.704000 361.789302L234.043200 361.660677
L236.721600 361.842778L237.614400 354.242058L238.060800 361.720113
L238.507200 354.074742L238.953600 361.740365L240.292800 361.584991
L240.739200 359.940357L241.185600 361.888934L242.524800 361.363860
L242.971200 353.405153L243.417600 361.528858L243.864000 355.798318
L244.310400 361.649380L245.203200 353.922685L245.649600 361.396946
L246.542400 358.589990L246.988800 361.679301L247.435200 353.435712
L247.881600 361.666222L248.328000 352.869888L248.774400 361.913656
L250.113600 361.345713L250.560000 356.792264L251.006400 361.629174
L252.345600 361.266202L253.238400 343.144044L253.684800 361.810230
L254.131200 359.262036L254.577600 354.573757L255.024000 360.498808
L255.470400 361.820244L256.809600 361.670070L258.148800 361.889073
L258.595200 358.722893L259.041600 361.756024L260.380800 361.674831
L261.720000 358.273152L262.166400 361.653665L263.505600 361.822625
L264.844800 361.513636L265.737600 356.131945L266.184000 361.852977
L267.523200 356.059530L267.969600 361.818609L268.862400 356.063032
L269.755200 362.118973L270.648000 350.623665L271.094400 361.704138
L272.433600 358.221420L272.880000 355.610212L273.772800 361.617516
L274.665600 355.623828L275.112000 362.030584L276.451200 361.616824
L277.790400 355.963830L278.236800 361.482240L278.683200 357.146289
L279.129600 361.906145L280.468800 355.743690L281.361600 361.794463
L281.808000 359.211686L282.254400 361.139881L282.700800 356.980270
L283.147200 361.925837L284.486400 361.350459L285.825600 361.695875
L287.164800 356.945303L287.611200 361.732915L288.057600 355.588163
L288.504000 361.756485L291.182400 361.915292L291.628800 358.118024
L292.075200 361.919186L293.414400 361.877714L294.307200 356.171743
L294.753600 361.931459L295.200000 356.402442L296.092800 361.948201
L297.432000 361.744282L297.878400 358.229468L298.324800 361.795300
L299.664000 361.809516L300.110400 348.941399L301.003200 361.867116
L301.896000 348.300065L302.342400 361.670661L302.788800 358.631670
L303.235200 361.983890L304.128000 347.937869L304.574400 359.529999
L305.020800 356.440297L305.467200 361.915308L306.806400 361.120451
L307.699200 351.734799L308.592000 361.903388L309.038400 359.476109
L309.484800 361.542482L310.824000 355.730481L311.270400 347.979026
L311.716800 361.427643L312.163200 353.890138L312.609600 361.842478
L313.948800 361.355159L314.841600 358.493514L315.288000 361.387377
L316.627200 353.903163L317.073600 361.306399L317.520000 353.991360
L317.966400 361.837340L319.305600 361.706680L320.198400 357.165996
L320.644800 361.664287L321.984000 361.577856L322.876800 354.902031
L324.216000 361.569009L325.555200 361.848960L326.001600 357.353096
L326.448000 361.717670L327.787200 361.911491L329.126400 361.289641
L329.572800 356.165990L330.465600 361.566520L331.804800 361.567027
L332.697600 354.124539L333.144000 361.190907L335.822400 361.889341
L336.715200 359.964242L337.161600 361.888351L341.179200 361.755164
L342.072000 355.766116L342.964800 361.488922L344.304000 361.714499
L345.643200 355.954499L346.089600 361.458179L347.428800 361.736870
L348.768000 361.619182L349.660800 356.035699L350.107200 359.243904
L350.553600 356.092201L351.446400 361.663150L352.785600 362.032220
L353.232000 356.154048L353.678400 361.810775L355.017600 361.689961
L355.910400 355.931328L356.356800 361.851679L357.696000 356.180559
L358.142400 361.869926L359.035200 356.020324L359.481600 361.860948
L360.820800 362.031107L362.160000 358.242862L362.606400 361.632737
L363.945600 355.942487L364.392000 361.547297L365.284800 356.012828
L365.731200 361.488015L366.177600 354.118218L366.624000 361.573340
L367.963200 355.882698L368.409600 362.039547L369.748800 361.569423
L370.641600 350.079729L371.088000 361.171745L372.427200 361.626586
L373.766400 359.890714L374.212800 361.994911L375.552000 361.819791
L375.998400 355.858322L376.444800 361.607931L376.891200 359.070221
L377.337600 361.465667L377.784000 355.925652L378.230400 361.556014
L379.569600 361.622377L380.908800 355.689085L381.355200 361.442488
L381.801600 347.852060L382.248000 361.345106L383.587200 357.080417
L384.033600 361.853522L385.372800 362.026790L386.265600 353.723105
L386.712000 355.602816L387.158400 361.619804L388.497600 361.613821
L389.390400 356.293632L389.836800 354.127342L390.283200 361.733637
L391.176000 355.973169L391.622400 361.672458L392.961600 361.729559
L394.300800 355.768297L394.747200 361.691420L396.086400 361.426783
L396.979200 349.831611L397.425600 361.512361L398.764800 357.886940
L399.211200 361.455091L400.550400 353.521467L400.996800 361.936358
L401.443200 355.671414L401.889600 361.705398L403.228800 361.626593
L404.568000 361.987530L405.014400 355.780631L405.460800 361.648320
L406.800000 355.677258L407.692800 361.774257L409.032000 361.794824
L410.371200 358.748344L410.817600 361.709898L413.496000 361.701980
L413.942400 358.645240L414.388800 361.821704L415.728000 362.124803
L416.174400 356.997573L416.620800 361.284710L417.960000 360.947405
L418.852800 354.421233L419.299200 361.894986L420.638400 361.599475
L421.977600 361.678648L422.870400 359.238397L423.316800 361.666483
L424.209600 355.967908L424.656000 361.650209L425.995200 361.885847
L427.334400 358.007823L427.780800 361.507338L429.120000 356.162972
L429.566400 361.883743L430.905600 361.535455L432.244800 362.068193
L432.691200 353.054070L433.137600 356.198815L433.584000 353.748534
L434.030400 362.033334L435.369600 355.481403L435.816000 361.721157
L437.155200 361.939507L437.601600 359.750907L438.494400 354.106545
L438.940800 356.103729L439.387200 361.764549L440.280000 349.855450
L440.726400 361.512492L441.172800 348.804572L441.619200 355.907612
L442.065600 357.468303L442.958400 354.250376L443.404800 361.691604
L443.851200 359.089060L444.297600 361.876762L445.636800 361.649779
L446.083200 351.670525L446.529600 361.705190L446.976000 354.414566
L447.422400 361.538273L447.868800 360.073989L448.315200 361.556675
L449.654400 361.751447L450.547200 360.487388L450.993600 354.537953
L451.440000 361.593554L452.779200 361.443901L454.118400 361.927112
L455.011200 357.993623L455.457600 354.520881L455.904000 355.876877
L456.350400 361.533112L456.796800 358.698685L457.243200 361.818524
L458.136000 355.885271L458.582400 361.602747L459.028800 347.876744
L459.475200 358.721418L459.921600 354.124378L460.368000 361.670400
L461.707200 361.615396L462.600000 358.892260L463.046400 361.289487
L464.385600 361.740910L464.832000 357.976366L465.278400 361.859489
L466.617600 361.675461L467.064000 352.433303L467.510400 361.930813
L467.956800 359.972214L468.849600 354.165266L469.742400 361.424440
L471.081600 361.946949L471.528000 352.174049L471.974400 361.666514
L473.313600 356.122860L473.760000 361.823286L475.099200 361.471135
L476.438400 361.672850L477.777600 358.201083L478.224000 362.051919
L479.563200 362.087724L480.009600 357.201723L481.348800 361.790953
L482.688000 361.719383L483.134400 256.241787L483.580800 285.017933
L484.027200 354.016105L484.473600 361.916613L485.366400 357.184543
L485.812800 361.888643L486.705600 353.998349L487.152000 361.606118
L488.044800 353.959442L488.491200 361.178473L489.384000 356.073969
L489.830400 361.939622L490.723200 352.344714L491.169600 361.809108
L491.616000 360.028247L492.062400 361.700897L492.508800 354.083743
L492.955200 361.335506L493.401600 355.605473L493.848000 342.341637
L494.294400 361.765801L495.633600 361.613652L496.080000 357.836352
L496.526400 362.074760L497.865600 356.318569L498.312000 361.855688
L499.651200 361.182052L500.544000 357.708849L500.990400 361.972401
L502.329600 361.505418L502.776000 358.162460L503.222400 362.026744
L504.561600 361.705405L505.900800 358.100221L506.347200 354.397371
L506.793600 362.015954L507.240000 354.224195L507.686400 362.153149
L510.364800 361.685530L511.704000 361.858383L512.150400 360.693542
L512.596800 355.686321L513.489600 361.693878L513.936000 353.745631
L514.382400 361.958922L514.828800 355.758459L515.275200 361.676820
L516.614400 361.764250L517.060800 353.762596L517.953600 361.885332
L517.953600 361.885332"/>
</g>
<g id="matplotlib.axis1">
<g id="xtick1">
<g id="line2d2">
<path style="fill: none; stroke: #000000; stroke-width: 0.500000; stroke-linejoin: round; stroke-linecap: butt; stroke-dasharray: 1.000000,3.000000; stroke-dashoffset: 0.000000; opacity: 1.000000" clip-path="url(#p50431ccdcb28178602d99d9270004dde)" d="M72.000000 388.800000L72.000000 43.200000"/>
</g>
<g id="line2d3">
<defs><path id="m30e32995789d870ad79a2e54c91cf9c6" d="M0.000000 0.000000L0.000000 -4.000000"/></defs>
<g ><use style="fill: none; stroke: #000000; stroke-width: 0.500000; stroke-linejoin: round; stroke-linecap: butt;  opacity: 1.000000" xlink:href="#m30e32995789d870ad79a2e54c91cf9c6" x="72.000000" y="388.800000"/>
</g></g>
<g id="line2d4">
<defs><path id="m9281cae24120827b11d5ea8a7ad3e96b" d="M0.000000 0.000000L0.000000 4.000000"/></defs>
<g ><use style="fill: none; stroke: #000000; stroke-width: 0.500000; stroke-linejoin: round; stroke-linecap: butt;  opacity: 1.000000" xlink:href="#m9281cae24120827b11d5ea8a7ad3e96b" x="72.000000" y="43.200000"/>
</g></g>
<g id="text1">
<defs>
<path id="c_7a2040fe3b94fcd41d0a72c84e93b115" d="M31.781250 -66.406250q-7.609375 0.000000 -11.453125 7.500000q-3.828125 7.484375 -3.828125 22.531250q0.000000 14.984375 3.828125 22.484375q3.843750 7.500000 11.453125 7.500000q7.671875 0.000000 11.500000 -7.500000q3.843750 -7.500000 3.843750 -22.484375q0.000000 -15.046875 -3.843750 -22.531250q-3.828125 -7.500000 -11.500000 -7.500000M31.781250 -74.218750q12.265625 0.000000 18.734375 9.703125q6.468750 9.687500 6.468750 28.140625q0.000000 18.406250 -6.468750 28.109375q-6.468750 9.687500 -18.734375 9.687500q-12.250000 0.000000 -18.718750 -9.687500q-6.468750 -9.703125 -6.468750 -28.109375q0.000000 -18.453125 6.468750 -28.140625q6.468750 -9.703125 18.718750 -9.703125"/>
</defs>
<g style="fill: #000000; opacity: 1.000000" transform="translate(68.976562,401.706250)scale(0.120000)">
<use xlink:href="#c_7a2040fe3b94fcd41d0a72c84e93b115"/>
</g>
</g>
</g>
<g id="xtick2">
<g id="line2d5">
<path style="fill: none; stroke: #000000; stroke-width: 0.500000; stroke-linejoin: round; stroke-linecap: butt; stroke-dasharray: 1.000000,3.000000; stroke-dashoffset: 0.000000; opacity: 1.000000" clip-path="url(#p50431ccdcb28178602d99d9270004dde)" d="M161.280000 388.800000L161.280000 43.200000"/>
</g>
<g id="line2d6">
<g ><use style="fill: none; stroke: #000000; stroke-width: 0.500000; stroke-linejoin: round; stroke-linecap: butt;  opacity: 1.000000" xlink:href="#m30e32995789d870ad79a2e54c91cf9c6" x="161.280000" y="388.800000"/>
</g></g>
<g id="line2d7">
<g ><use style="fill: none; stroke: #000000; stroke-width: 0.500000; stroke-linejoin: round; stroke-linecap: butt;  opacity: 1.000000" xlink:href="#m9281cae24120827b11d5ea8a7ad3e96b" x="161.280000" y="43.200000"/>
</g></g>
<g id="text2">
<defs>
<path id="c_ed3f3ed3ebfbd18bcb9c012009a68ad1" d="M19.187500 -8.296875l34.421875 0.000000l0.000000 8.296875l-46.281250 0.000000l0.000000 -8.296875q5.609375 -5.812500 15.296875 -15.593750q9.703125 -9.796875 12.187500 -12.640625q4.734375 -5.312500 6.609375 -9.000000q1.890625 -3.687500 1.890625 -7.250000q0.000000 -5.812500 -4.078125 -9.468750q-4.078125 -3.671875 -10.625000 -3.671875q-4.640625 0.000000 -9.796875 1.609375q-5.140625 1.609375 -11.000000 4.890625l0.000000 -9.968750q5.953125 -2.390625 11.125000 -3.609375q5.187500 -1.218750 9.484375 -1.218750q11.328125 0.000000 18.062500 5.671875q6.734375 5.656250 6.734375 15.125000q0.000000 4.500000 -1.687500 8.531250q-1.671875 4.015625 -6.125000 9.484375q-1.218750 1.421875 -7.765625 8.187500q-6.531250 6.765625 -18.453125 18.921875"/>
</defs>
<g style="fill: #000000; opacity: 1.000000" transform="translate(150.655000,401.706250)scale(0.120000)">
<use xlink:href="#c_ed3f3ed3ebfbd18bcb9c012009a68ad1"/>
<use xlink:href="#c_7a2040fe3b94fcd41d0a72c84e93b115" x="63.623047"/>
<use xlink:href="#c_7a2040fe3b94fcd41d0a72c84e93b115" x="127.246094"/>
</g>
</g>
</g>
<g id="xtick3">
<g id="line2d8">
<path style="fill: none; stroke: #000000; stroke-width: 0.500000; stroke-linejoin: round; stroke-linecap: butt; stroke-dasharray: 1.000000,3.000000; stroke-dashoffset: 0.000000; opacity: 1.000000" clip-path="url(#p50431ccdcb28178602d99d9270004dde)" d="M250.560000 388.800000L250.560000 43.200000"/>
</g>
<g id="line2d9">
<g ><use style="fill: none; stroke: #000000; stroke-width: 0.500000; stroke-linejoin: round; stroke-linecap: butt;  opacity: 1.000000" xlink:href="#m30e32995789d870ad79a2e54c91cf9c6" x="250.560000" y="388.800000"/>
</g></g>
<g id="line2d10">
<g ><use style="fill: none; stroke: #000000; stroke-width: 0.500000; stroke-linejoin: round; stroke-linecap: butt;  opacity: 1.000000" xlink:href="#m9281cae24120827b11d5ea8a7ad3e96b" x="250.560000" y="43.200000"/>
</g></g>
<g id="text3">
<defs>
<path id="c_a0416418d96557a09b8c1332d34883ba" d="M37.796875 -64.312500l-24.906250 38.921875l24.906250 0.000000zM35.203125 -72.906250l12.406250 0.000000l0.000000 47.515625l10.406250 0.000000l0.000000 8.203125l-10.406250 0.000000l0.000000 17.187500l-9.812500 0.000000l0.000000 -17.187500l-32.906250 0.000000l0.000000 -9.515625z"/>
</defs>
<g style="fill: #000000; opacity: 1.000000" transform="translate(239.794375,401.706250)scale(0.120000)">
<use xlink:href="#c_a0416418d96557a09b8c1332d34883ba"/>
<use xlink:href="#c_7a2040fe3b94fcd41d0a72c84e93b115" x="63.623047"/>
<use xlink:href="#c_7a2040fe3b94fcd41d0a72c84e93b115" x="127.246094"/>
</g>
</g>
</g>
<g id="xtick4">
<g id="line2d11">
<path style="fill: none; stroke: #000000; stroke-width: 0.500000; stroke-linejoin: round; stroke-linecap: butt; stroke-dasharray: 1.000000,3.000000; stroke-dashoffset: 0.000000; opacity: 1.000000" clip-path="url(#p50431ccdcb28178602d99d9270004dde)" d="M339.840000 388.800000L339.840000 43.200000"/>
</g>
<g id="line2d12">
<g ><use style="fill: none; stroke: #000000; stroke-width: 0.500000; stroke-linejoin: round; stroke-linecap: butt;  opacity: 1.000000" xlink:href="#m30e32995789d870ad79a2e54c91cf9c6" x="339.840000" y="388.800000"/>
</g></g>
<g id="line2d13">
<g ><use style="fill: none; stroke: #000000; stroke-width: 0.500000; stroke-linejoin: round; stroke-linecap: butt;  opacity: 1.000000" xlink:href="#m9281cae24120827b11d5ea8a7ad3e96b" x="339.840000" y="43.200000"/>
</g></g>
<g id="text4">
<defs>
<path id="c_cc8d6d580d1b10c8632f7a42cd53db8a" d="M33.015625 -40.375000q-6.640625 0.000000 -10.531250 4.546875q-3.875000 4.531250 -3.875000 12.437500q0.000000 7.859375 3.875000 12.437500q3.890625 4.562500 10.531250 4.562500q6.640625 0.000000 10.515625 -4.562500q3.875000 -4.578125 3.875000 -12.437500q0.000000 -7.906250 -3.875000 -12.437500q-3.875000 -4.546875 -10.515625 -4.546875M52.593750 -71.296875l0.000000 8.984375q-3.718750 -1.750000 -7.500000 -2.671875q-3.781250 -0.937500 -7.500000 -0.937500q-9.765625 0.000000 -14.921875 6.593750q-5.140625 6.593750 -5.875000 19.921875q2.875000 -4.250000 7.218750 -6.515625q4.359375 -2.265625 9.578125 -2.265625q10.984375 0.000000 17.359375 6.671875q6.375000 6.656250 6.375000 18.125000q0.000000 11.234375 -6.640625 18.031250q-6.640625 6.781250 -17.671875 6.781250q-12.656250 0.000000 -19.343750 -9.687500q-6.687500 -9.703125 -6.687500 -28.109375q0.000000 -17.281250 8.203125 -27.562500q8.203125 -10.281250 22.015625 -10.281250q3.718750 0.000000 7.500000 0.734375q3.781250 0.734375 7.890625 2.187500"/>
</defs>
<g style="fill: #000000; opacity: 1.000000" transform="translate(329.199375,401.706250)scale(0.120000)">
<use xlink:href="#c_cc8d6d580d1b10c8632f7a42cd53db8a"/>
<use xlink:href="#c_7a2040fe3b94fcd41d0a72c84e93b115" x="63.623047"/>
<use xlink:href="#c_7a2040fe3b94fcd41d0a72c84e93b115" x="127.246094"/>
</g>
</g>
</g>
<g id="xtick5">
<g id="line2d14">
<path style="fill: none; stroke: #000000; stroke-width: 0.500000; stroke-linejoin: round; stroke-linecap: butt; stroke-dasharray: 1.000000,3.000000; stroke-dashoffset: 0.000000; opacity: 1.000000" clip-path="url(#p50431ccdcb28178602d99d9270004dde)" d="M429.120000 388.800000L429.120000 43.200000"/>
</g>
<g id="line2d15">
<g ><use style="fill: none; stroke: #000000; stroke-width: 0.500000; stroke-linejoin: round; stroke-linecap: butt;  opacity: 1.000000" xlink:href="#m30e32995789d870ad79a2e54c91cf9c6" x="429.120000" y="388.800000"/>
</g></g>
<g id="line2d16">
<g ><use style="fill: none; stroke: #000000; stroke-width: 0.500000; stroke-linejoin: round; stroke-linecap: butt;  opacity: 1.000000" xlink:href="#m9281cae24120827b11d5ea8a7ad3e96b" x="429.120000" y="43.200000"/>
</g></g>
<g id="text5">
<defs>
<path id="c_bef35738d52871942e50b9de9b122bab" d="M31.781250 -34.625000q-7.031250 0.000000 -11.062500 3.765625q-4.015625 3.765625 -4.015625 10.343750q0.000000 6.593750 4.015625 10.359375q4.031250 3.765625 11.062500 3.765625q7.031250 0.000000 11.078125 -3.781250q4.062500 -3.796875 4.062500 -10.343750q0.000000 -6.578125 -4.031250 -10.343750q-4.015625 -3.765625 -11.109375 -3.765625M21.921875 -38.812500q-6.343750 -1.562500 -9.890625 -5.906250q-3.531250 -4.359375 -3.531250 -10.609375q0.000000 -8.734375 6.218750 -13.812500q6.234375 -5.078125 17.062500 -5.078125q10.890625 0.000000 17.093750 5.078125q6.203125 5.078125 6.203125 13.812500q0.000000 6.250000 -3.546875 10.609375q-3.531250 4.343750 -9.828125 5.906250q7.125000 1.656250 11.093750 6.500000q3.984375 4.828125 3.984375 11.796875q0.000000 10.609375 -6.468750 16.281250q-6.468750 5.656250 -18.531250 5.656250q-12.046875 0.000000 -18.531250 -5.656250q-6.468750 -5.671875 -6.468750 -16.281250q0.000000 -6.968750 4.000000 -11.796875q4.015625 -4.843750 11.140625 -6.500000M18.312500 -54.390625q0.000000 5.656250 3.531250 8.828125q3.546875 3.171875 9.937500 3.171875q6.359375 0.000000 9.937500 -3.171875q3.593750 -3.171875 3.593750 -8.828125q0.000000 -5.671875 -3.593750 -8.843750q-3.578125 -3.171875 -9.937500 -3.171875q-6.390625 0.000000 -9.937500 3.171875q-3.531250 3.171875 -3.531250 8.843750"/>
</defs>
<g style="fill: #000000; opacity: 1.000000" transform="translate(418.463750,401.706250)scale(0.120000)">
<use xlink:href="#c_bef35738d52871942e50b9de9b122bab"/>
<use xlink:href="#c_7a2040fe3b94fcd41d0a72c84e93b115" x="63.623047"/>
<use xlink:href="#c_7a2040fe3b94fcd41d0a72c84e93b115" x="127.246094"/>
</g>
</g>
</g>
<g id="xtick6">
<g id="line2d17">
<path style="fill: none; stroke: #000000; stroke-width: 0.500000; stroke-linejoin: round; stroke-linecap: butt; stroke-dasharray: 1.000000,3.000000; stroke-dashoffset: 0.000000; opacity: 1.000000" clip-path="url(#p50431ccdcb28178602d99d9270004dde)" d="M518.400000 388.800000L518.400000 43.200000"/>
</g>
<g id="line2d18">
<g ><use style="fill: none; stroke: #000000; stroke-width: 0.500000; stroke-linejoin: round; stroke-linecap: butt;  opacity: 1.000000" xlink:href="#m30e32995789d870ad79a2e54c91cf9c6" x="518.400000" y="388.800000"/>
</g></g>
<g id="line2d19">
<g ><use style="fill: none; stroke: #000000; stroke-width: 0.500000; stroke-linejoin: round; stroke-linecap: butt;  opacity: 1.000000" xlink:href="#m9281cae24120827b11d5ea8a7ad3e96b" x="518.400000" y="43.200000"/>
</g></g>
<g id="text6">
<defs>
<path id="c_42baa63129a918535c52adb20d687ea7" d="M12.406250 -8.296875l16.109375 0.000000l0.000000 -55.625000l-17.531250 3.515625l0.000000 -8.984375l17.437500 -3.515625l9.859375 0.000000l0.000000 64.609375l16.109375 0.000000l0.000000 8.296875l-41.984375 0.000000z"/>
</defs>
<g style="fill: #000000; opacity: 1.000000" transform="translate(504.173437,401.706250)scale(0.120000)">
<use xlink:href="#c_42baa63129a918535c52adb20d687ea7"/>
<use xlink:href="#c_7a2040fe3b94fcd41d0a72c84e93b115" x="63.623047"/>
<use xlink:href="#c_7a2040fe3b94fcd41d0a72c84e93b115" x="127.246094"/>
<use xlink:href="#c_7a2040fe3b94fcd41d0a72c84e93b115" x="190.869141"/>
</g>
</g>
</g>
</g>
<g id="matplotlib.axis2">
<g id="ytick1">
<g id="line2d20">
<path style="fill: none; stroke: #000000; stroke-width: 0.500000; stroke-linejoin: round; stroke-linecap: butt; stroke-dasharray: 1.000000,3.000000; stroke-dashoffset: 0.000000; opacity: 1.000000" clip-path="url(#p50431ccdcb28178602d99d9270004dde)" d="M72.000000 388.800000L518.400000 388.800000"/>
</g>
<g id="line2d21">
<defs><path id="m3400efa6b1638b3fea9e19e898273957" d="M0.000000 0.000000L4.000000 0.000000"/></defs>
<g ><use style="fill: none; stroke: #000000; stroke-width: 0.500000; stroke-linejoin: round; stroke-linecap: butt;  opacity: 1.000000" xlink:href="#m3400efa6b1638b3fea9e19e898273957" x="72.000000" y="388.800000"/>
</g></g>
<g id="line2d22">
<defs><path id="m20b58b2501143cb5e0a5e8f1ef6f1643" d="M0.000000 0.000000L-4.000000 0.000000"/></defs>
<g ><use style="fill: none; stroke: #000000; stroke-width: 0.500000; stroke-linejoin: round; stroke-linecap: butt;  opacity: 1.000000" xlink:href="#m20b58b2501143cb5e0a5e8f1ef6f1643" x="518.400000" y="388.800000"/>
</g></g>
<g id="text7">
<defs>
<path id="c_ed3e21196fb739f392806f09ca0594ef" d="M10.687500 -12.406250l10.312500 0.000000l0.000000 12.406250l-10.312500 0.000000z"/>
</defs>
<g style="fill: #000000; opacity: 1.000000" transform="translate(35.218750,393.167188)scale(0.120000)">
<use xlink:href="#c_7a2040fe3b94fcd41d0a72c84e93b115"/>
<use xlink:href="#c_ed3e21196fb739f392806f09ca0594ef" x="63.623047"/>
<use xlink:href="#c_7a2040fe3b94fcd41d0a72c84e93b115" x="95.410156"/>
<use xlink:href="#c_7a2040fe3b94fcd41d0a72c84e93b115" x="159.033203"/>
<use xlink:href="#c_7a2040fe3b94fcd41d0a72c84e93b115" x="222.656250"/>
</g>
</g>
</g>
<g id="ytick2">
<g id="line2d23">
<path style="fill: none; stroke: #000000; stroke-width: 0.500000; stroke-linejoin: round; stroke-linecap: butt; stroke-dasharray: 1.000000,3.000000; stroke-dashoffset: 0.000000; opacity: 1.000000" clip-path="url(#p50431ccdcb28178602d99d9270004dde)" d="M72.000000 350.400000L518.400000 350.400000"/>
</g>
<g id="line2d24">
<g ><use style="fill: none; stroke: #000000; stroke-width: 0.500000; stroke-linejoin: round; stroke-linecap: butt;  opacity: 1.000000" xlink:href="#m3400efa6b1638b3fea9e19e898273957" x="72.000000" y="350.400000"/>
</g></g>
<g id="line2d25">
<g ><use style="fill: none; stroke: #000000; stroke-width: 0.500000; stroke-linejoin: round; stroke-linecap: butt;  opacity: 1.000000" xlink:href="#m20b58b2501143cb5e0a5e8f1ef6f1643" x="518.400000" y="350.400000"/>
</g></g>
<g id="text8">
<defs>
<path id="c_1260a2df50f305f3db244e29828f968e" d="M10.796875 -72.906250l38.718750 0.000000l0.000000 8.312500l-29.687500 0.000000l0.000000 17.859375q2.140625 -0.734375 4.281250 -1.093750q2.156250 -0.359375 4.312500 -0.359375q12.203125 0.000000 19.328125 6.687500q7.140625 6.687500 7.140625 18.109375q0.000000 11.765625 -7.328125 18.296875q-7.328125 6.515625 -20.656250 6.515625q-4.593750 0.000000 -9.359375 -0.781250q-4.750000 -0.781250 -9.828125 -2.343750l0.000000 -9.921875q4.390625 2.390625 9.078125 3.562500q4.687500 1.171875 9.906250 1.171875q8.453125 0.000000 13.375000 -4.437500q4.937500 -4.437500 4.937500 -12.062500q0.000000 -7.609375 -4.937500 -12.046875q-4.921875 -4.453125 -13.375000 -4.453125q-3.953125 0.000000 -7.890625 0.875000q-3.921875 0.875000 -8.015625 2.734375z"/>
</defs>
<g style="fill: #000000; opacity: 1.000000" transform="translate(35.468750,354.767187)scale(0.120000)">
<use xlink:href="#c_7a2040fe3b94fcd41d0a72c84e93b115"/>
<use xlink:href="#c_ed3e21196fb739f392806f09ca0594ef" x="63.623047"/>
<use xlink:href="#c_7a2040fe3b94fcd41d0a72c84e93b115" x="95.410156"/>
<use xlink:href="#c_7a2040fe3b94fcd41d0a72c84e93b115" x="159.033203"/>
<use xlink:href="#c_1260a2df50f305f3db244e29828f968e" x="222.656250"/>
</g>
</g>
</g>
<g id="ytick3">
<g id="line2d26">
<path style="fill: none; stroke: #000000; stroke-width: 0.500000; stroke-linejoin: round; stroke-linecap: butt; stroke-dasharray: 1.000000,3.000000; stroke-dashoffset: 0.000000; opacity: 1.000000" clip-path="url(#p50431ccdcb28178602d99d9270004dde)" d="M72.000000 312.000000L518.400000 312.000000"/>
</g>
<g id="line2d27">
<g ><use style="fill: none; stroke: #000000; stroke-width: 0.500000; stroke-linejoin: round; stroke-linecap: butt;  opacity: 1.000000" xlink:href="#m3400efa6b1638b3fea9e19e898273957" x="72.000000" y="312.000000"/>
</g></g>
<g id="line2d28">
<g ><use style="fill: none; stroke: #000000; stroke-width: 0.500000; stroke-linejoin: round; stroke-linecap: butt;  opacity: 1.000000" xlink:href="#m20b58b2501143cb5e0a5e8f1ef6f1643" x="518.400000" y="312.000000"/>
</g></g>
<g id="text9">
<g style="fill: #000000; opacity: 1.000000" transform="translate(35.218750,316.367188)scale(0.120000)">
<use xlink:href="#c_7a2040fe3b94fcd41d0a72c84e93b115"/>
<use xlink:href="#c_ed3e21196fb739f392806f09ca0594ef" x="63.623047"/>
<use xlink:href="#c_7a2040fe3b94fcd41d0a72c84e93b115" x="95.410156"/>
<use xlink:href="#c_42baa63129a918535c52adb20d687ea7" x="159.033203"/>
<use xlink:href="#c_7a2040fe3b94fcd41d0a72c84e93b115" x="222.656250"/>
</g>
</g>
</g>
<g id="ytick4">
<g id="line2d29">
<path style="fill: none; stroke: #000000; stroke-width: 0.500000; stroke-linejoin: round; stroke-linecap: butt; stroke-dasharray: 1.000000,3.000000; stroke-dashoffset: 0.000000; opacity: 1.000000" clip-path="url(#p50431ccdcb28178602d99d9270004dde)" d="M72.000000 273.600000L518.400000 273.600000"/>
</g>
<g id="line2d30">
<g ><use style="fill: none; stroke: #000000; stroke-width: 0.500000; stroke-linejoin: round; stroke-linecap: butt;  opacity: 1.000000" xlink:href="#m3400efa6b1638b3fea9e19e898273957" x="72.000000" y="273.600000"/>
</g></g>
<g id="line2d31">
<g ><use style="fill: none; stroke: #000000; stroke-width: 0.500000; stroke-linejoin: round; stroke-linecap: butt;  opacity: 1.000000" xlink:href="#m20b58b2501143cb5e0a5e8f1ef6f1643" x="518.400000" y="273.600000"/>
</g></g>
<g id="text10">
<g style="fill: #000000; opacity: 1.000000" transform="translate(35.468750,277.967188)scale(0.120000)">
<use xlink:href="#c_7a2040fe3b94fcd41d0a72c84e93b115"/>
<use xlink:href="#c_ed3e21196fb739f392806f09ca0594ef" x="63.623047"/>
<use xlink:href="#c_7a2040fe3b94fcd41d0a72c84e93b115" x="95.410156"/>
<use xlink:href="#c_42baa63129a918535c52adb20d687ea7" x="159.033203"/>
<use xlink:href="#c_1260a2df50f305f3db244e29828f968e" x="222.656250"/>
</g>
</g>
</g>
<g id="ytick5">
<g id="line2d32">
<path style="fill: none; stroke: #000000; stroke-width: 0.500000; stroke-linejoin: round; stroke-linecap: butt; stroke-dasharray: 1.000000,3.000000; stroke-dashoffset: 0.000000; opacity: 1.000000" clip-path="url(#p50431ccdcb28178602d99d9270004dde)" d="M72.000000 235.200000L518.400000 235.200000"/>
</g>
<g id="line2d33">
<g ><use style="fill: none; stroke: #000000; stroke-width: 0.500000; stroke-linejoin: round; stroke-linecap: butt;  opacity: 1.000000" xlink:href="#m3400efa6b1638b3fea9e19e898273957" x="72.000000" y="235.200000"/>
</g></g>
<g id="line2d34">
<g ><use style="fill: none; stroke: #000000; stroke-width: 0.500000; stroke-linejoin: round; stroke-linecap: butt;  opacity: 1.000000" xlink:href="#m20b58b2501143cb5e0a5e8f1ef6f1643" x="518.400000" y="235.200000"/>
</g></g>
<g id="text11">
<g style="fill: #000000; opacity: 1.000000" transform="translate(35.218750,239.567188)scale(0.120000)">
<use xlink:href="#c_7a2040fe3b94fcd41d0a72c84e93b115"/>
<use xlink:href="#c_ed3e21196fb739f392806f09ca0594ef" x="63.623047"/>
<use xlink:href="#c_7a2040fe3b94fcd41d0a72c84e93b115" x="95.410156"/>
<use xlink:href="#c_ed3f3ed3ebfbd18bcb9c012009a68ad1" x="159.033203"/>
<use xlink:href="#c_7a2040fe3b94fcd41d0a72c84e93b115" x="222.656250"/>
</g>
</g>
</g>
<g id="ytick6">
<g id="line2d35">
<path style="fill: none; stroke: #000000; stroke-width: 0.500000; stroke-linejoin: round; stroke-linecap: butt; stroke-dasharray: 1.000000,3.000000; stroke-dashoffset: 0.000000; opacity: 1.000000" clip-path="url(#p50431ccdcb28178602d99d9270004dde)" d="M72.000000 196.800000L518.400000 196.800000"/>
</g>
<g id="line2d36">
<g ><use style="fill: none; stroke: #000000; stroke-width: 0.500000; stroke-linejoin: round; stroke-linecap: butt;  opacity: 1.000000" xlink:href="#m3400efa6b1638b3fea9e19e898273957" x="72.000000" y="196.800000"/>
</g></g>
<g id="line2d37">
<g ><use style="fill: none; stroke: #000000; stroke-width: 0.500000; stroke-linejoin: round; stroke-linecap: butt;  opacity: 1.000000" xlink:href="#m20b58b2501143cb5e0a5e8f1ef6f1643" x="518.400000" y="196.800000"/>
</g></g>
<g id="text12">
<g style="fill: #000000; opacity: 1.000000" transform="translate(35.468750,201.167188)scale(0.120000)">
<use xlink:href="#c_7a2040fe3b94fcd41d0a72c84e93b115"/>
<use xlink:href="#c_ed3e21196fb739f392806f09ca0594ef" x="63.623047"/>
<use xlink:href="#c_7a2040fe3b94fcd41d0a72c84e93b115" x="95.410156"/>
<use xlink:href="#c_ed3f3ed3ebfbd18bcb9c012009a68ad1" x="159.033203"/>
<use xlink:href="#c_1260a2df50f305f3db244e29828f968e" x="222.656250"/>
</g>
</g>
</g>
<g id="ytick7">
<g id="line2d38">
<path style="fill: none; stroke: #000000; stroke-width: 0.500000; stroke-linejoin: round; stroke-linecap: butt; stroke-dasharray: 1.000000,3.000000; stroke-dashoffset: 0.000000; opacity: 1.000000" clip-path="url(#p50431ccdcb28178602d99d9270004dde)" d="M72.000000 158.400000L518.400000 158.400000"/>
</g>
<g id="line2d39">
<g ><use style="fill: none; stroke: #000000; stroke-width: 0.500000; stroke-linejoin: round; stroke-linecap: butt;  opacity: 1.000000" xlink:href="#m3400efa6b1638b3fea9e19e898273957" x="72.000000" y="158.400000"/>
</g></g>
<g id="line2d40">
<g ><use style="fill: none; stroke: #000000; stroke-width: 0.500000; stroke-linejoin: round; stroke-linecap: butt;  opacity: 1.000000" xlink:href="#m20b58b2501143cb5e0a5e8f1ef6f1643" x="518.400000" y="158.400000"/>
</g></g>
<g id="text13">
<defs>
<path id="c_3dcfa38a02242cb63ec6726c6e70be7a" d="M40.578125 -39.312500q7.078125 1.515625 11.046875 6.312500q3.984375 4.781250 3.984375 11.812500q0.000000 10.781250 -7.421875 16.703125q-7.421875 5.906250 -21.093750 5.906250q-4.578125 0.000000 -9.437500 -0.906250q-4.859375 -0.906250 -10.031250 -2.718750l0.000000 -9.515625q4.093750 2.390625 8.968750 3.609375q4.890625 1.218750 10.218750 1.218750q9.265625 0.000000 14.125000 -3.656250q4.859375 -3.656250 4.859375 -10.640625q0.000000 -6.453125 -4.515625 -10.078125q-4.515625 -3.640625 -12.562500 -3.640625l-8.500000 0.000000l0.000000 -8.109375l8.890625 0.000000q7.265625 0.000000 11.125000 -2.906250q3.859375 -2.906250 3.859375 -8.375000q0.000000 -5.609375 -3.984375 -8.609375q-3.968750 -3.015625 -11.390625 -3.015625q-4.062500 0.000000 -8.703125 0.890625q-4.640625 0.875000 -10.203125 2.718750l0.000000 -8.781250q5.625000 -1.562500 10.531250 -2.343750q4.906250 -0.781250 9.250000 -0.781250q11.234375 0.000000 17.765625 5.109375q6.546875 5.093750 6.546875 13.781250q0.000000 6.062500 -3.468750 10.234375q-3.468750 4.171875 -9.859375 5.781250"/>
</defs>
<g style="fill: #000000; opacity: 1.000000" transform="translate(35.218750,162.767188)scale(0.120000)">
<use xlink:href="#c_7a2040fe3b94fcd41d0a72c84e93b115"/>
<use xlink:href="#c_ed3e21196fb739f392806f09ca0594ef" x="63.623047"/>
<use xlink:href="#c_7a2040fe3b94fcd41d0a72c84e93b115" x="95.410156"/>
<use xlink:href="#c_3dcfa38a02242cb63ec6726c6e70be7a" x="159.033203"/>
<use xlink:href="#c_7a2040fe3b94fcd41d0a72c84e93b115" x="222.656250"/>
</g>
</g>
</g>
<g id="ytick8">
<g id="line2d41">
<path style="fill: none; stroke: #000000; stroke-width: 0.500000; stroke-linejoin: round; stroke-linecap: butt; stroke-dasharray: 1.000000,3.000000; stroke-dashoffset: 0.000000; opacity: 1.000000" clip-path="url(#p50431ccdcb28178602d99d9270004dde)" d="M72.000000 120.000000L518.400000 120.000000"/>
</g>
<g id="line2d42">
<g ><use style="fill: none; stroke: #000000; stroke-width: 0.500000; stroke-linejoin: round; stroke-linecap: butt;  opacity: 1.000000" xlink:href="#m3400efa6b1638b3fea9e19e898273957" x="72.000000" y="120.000000"/>
</g></g>
<g id="line2d43">
<g ><use style="fill: none; stroke: #000000; stroke-width: 0.500000; stroke-linejoin: round; stroke-linecap: butt;  opacity: 1.000000" xlink:href="#m20b58b2501143cb5e0a5e8f1ef6f1643" x="518.400000" y="120.000000"/>
</g></g>
<g id="text14">
<g style="fill: #000000; opacity: 1.000000" transform="translate(35.468750,124.367188)scale(0.120000)">
<use xlink:href="#c_7a2040fe3b94fcd41d0a72c84e93b115"/>
<use xlink:href="#c_ed3e21196fb739f392806f09ca0594ef" x="63.623047"/>
<use xlink:href="#c_7a2040fe3b94fcd41d0a72c84e93b115" x="95.410156"/>
<use xlink:href="#c_3dcfa38a02242cb63ec6726c6e70be7a" x="159.033203"/>
<use xlink:href="#c_1260a2df50f305f3db244e29828f968e" x="222.656250"/>
</g>
</g>
</g>
<g id="ytick9">
<g id="line2d44">
<path style="fill: none; stroke: #000000; stroke-width: 0.500000; stroke-linejoin: round; stroke-linecap: butt; stroke-dasharray: 1.000000,3.000000; stroke-dashoffset: 0.000000; opacity: 1.000000" clip-path="url(#p50431ccdcb28178602d99d9270004dde)" d="M72.000000 81.600000L518.400000 81.600000"/>
</g>
<g id="line2d45">
<g ><use style="fill: none; stroke: #000000; stroke-width: 0.500000; stroke-linejoin: round; stroke-linecap: butt;  opacity: 1.000000" xlink:href="#m3400efa6b1638b3fea9e19e898273957" x="72.000000" y="81.600000"/>
</g></g>
<g id="line2d46">
<g ><use style="fill: none; stroke: #000000; stroke-width: 0.500000; stroke-linejoin: round; stroke-linecap: butt;  opacity: 1.000000" xlink:href="#m20b58b2501143cb5e0a5e8f1ef6f1643" x="518.400000" y="81.600000"/>
</g></g>
<g id="text15">
<g style="fill: #000000; opacity: 1.000000" transform="translate(35.218750,85.967188)scale(0.120000)">
<use xlink:href="#c_7a2040fe3b94fcd41d0a72c84e93b115"/>
<use xlink:href="#c_ed3e21196fb739f392806f09ca0594ef" x="63.623047"/>
<use xlink:href="#c_7a2040fe3b94fcd41d0a72c84e93b115" x="95.410156"/>
<use xlink:href="#c_a0416418d96557a09b8c1332d34883ba" x="159.033203"/>
<use xlink:href="#c_7a2040fe3b94fcd41d0a72c84e93b115" x="222.656250"/>
</g>
</g>
</g>
<g id="ytick10">
<g id="line2d47">
<path style="fill: none; stroke: #000000; stroke-width: 0.500000; stroke-linejoin: round; stroke-linecap: butt; stroke-dasharray: 1.000000,3.000000; stroke-dashoffset: 0.000000; opacity: 1.000000" clip-path="url(#p50431ccdcb28178602d99d9270004dde)" d="M72.000000 43.200000L518.400000 43.200000"/>
</g>
<g id="line2d48">
<g ><use style="fill: none; stroke: #000000; stroke-width: 0.500000; stroke-linejoin: round; stroke-linecap: butt;  opacity: 1.000000" xlink:href="#m3400efa6b1638b3fea9e19e898273957" x="72.000000" y="43.200000"/>
</g></g>
<g id="line2d49">
<g ><use style="fill: none; stroke: #000000; stroke-width: 0.500000; stroke-linejoin: round; stroke-linecap: butt;  opacity: 1.000000" xlink:href="#m20b58b2501143cb5e0a5e8f1ef6f1643" x="518.400000" y="43.200000"/>
</g></g>
<g id="text16">
<g style="fill: #000000; opacity: 1.000000" transform="translate(35.468750,47.567188)scale(0.120000)">
<use xlink:href="#c_7a2040fe3b94fcd41d0a72c84e93b115"/>
<use xlink:href="#c_ed3e21196fb739f392806f09ca0594ef" x="63.623047"/>
<use xlink:href="#c_7a2040fe3b94fcd41d0a72c84e93b115" x="95.410156"/>
<use xlink:href="#c_a0416418d96557a09b8c1332d34883ba" x="159.033203"/>
<use xlink:href="#c_1260a2df50f305f3db244e29828f968e" x="222.656250"/>
</g>
</g>
</g>
</g>
<g id="patch3">
<path style="fill: none; stroke: #000000; stroke-width: 1.000000; stroke-linejoin: round; stroke-linecap: square;  opacity: 1.000000"  d="M72.000000 43.200000L518.400000 43.200000"/>
</g>
<g id="patch4">
<path style="fill: none; stroke: #000000; stroke-width: 1.000000; stroke-linejoin: round; stroke-linecap: square;  opacity: 1.000000"  d="M518.400000 388.800000L518.400000 43.200000"/>
</g>
<g id="patch5">
<path style="fill: none; stroke: #000000; stroke-width: 1.000000; stroke-linejoin: round; stroke-linecap: square;  opacity: 1.000000"  d="M72.000000 388.800000L518.400000 388.800000"/>
</g>
<g id="patch6">
<path style="fill: none; stroke: #000000; stroke-width: 1.000000; stroke-linejoin: round; stroke-linecap: square;  opacity: 1.000000"  d="M72.000000 388.800000L72.000000 43.200000"/>
</g>
</g>
</g>
</svg>
