<?xml version="1.0" standalone="no"?>
<!DOCTYPE svg PUBLIC "-//W3C//DTD SVG 1.1//EN"
  "http://www.w3.org/Graphics/SVG/1.1/DTD/svg11.dtd">
<!-- Created with matplotlib (http://matplotlib.sourceforge.net/) -->
<svg width="576pt" height="432pt" viewBox="0 0 576 432"
   xmlns="http://www.w3.org/2000/svg"
   xmlns:xlink="http://www.w3.org/1999/xlink"
   version="1.1"
   id="svg1">
<g id="figure1">
<g id="patch1">
<path style="fill: #ffffff; stroke: #ffffff; stroke-width: 1.000000; stroke-linejoin: round; stroke-linecap: square;  opacity: 1.000000"  d="M0.000000 432.000000L576.000000 432.000000L576.000000 0.000000
L0.000000 0.000000L0.000000 432.000000"/>
</g>
<g id="axes1">
<g id="patch2">
<path style="fill: #ffffff; opacity: 1.000000"  d="M72.000000 388.800000L518.400000 388.800000L518.400000 43.200000
L72.000000 43.200000L72.000000 388.800000"/>
</g>
<g id="line2d1">
<defs>
  <clipPath id="p50431ccdcb28178602d99d9270004dde">
<rect x="72.000000" y="43.200000" width="446.400000" height="345.600000"/>
  </clipPath>
</defs><path style="fill: none; stroke: #ff0000; stroke-width: 1.000000; stroke-linejoin: round; stroke-linecap: square;  opacity: 1.000000" clip-path="url(#p50431ccdcb28178602d99d9270004dde)" d="M72.000000 185.601523L72.446400 223.043953L72.892800 101.612460
L73.339200 74.504747L73.785600 124.441716L74.232000 84.445084
L74.678400 106.449206L75.124800 108.472726L75.571200 93.799131
L76.017600 220.922333L76.464000 98.623631L76.910400 87.616265
L77.356800 208.016861L77.803200 209.800452L78.249600 125.092210
L78.696000 196.381570L79.142400 205.856107L79.588800 98.780128
L80.035200 222.294977L80.481600 209.810429L80.928000 212.689979
L81.374400 83.852337L81.820800 202.064432L82.267200 104.509739
L82.713600 100.752341L83.160000 213.805640L83.606400 108.297927
L84.052800 111.361104L84.499200 101.026335L84.945600 72.528292
L85.392000 199.906901L85.838400 210.887472L87.177600 208.498344
L87.624000 215.839718L88.070400 204.194977L88.516800 230.714323
L88.963200 194.751082L89.409600 227.021520L89.856000 185.802866
L90.302400 211.586519L91.195200 104.170802L91.641600 210.426095
L92.088000 211.874676L92.980800 205.568868L93.427200 215.331992
L93.873600 210.769421L94.766400 209.285609L95.212800 206.982585
L95.659200 214.712598L96.105600 208.495753L96.552000 212.351940
L97.444800 185.694145L97.891200 219.178583L98.337600 208.248242
L98.784000 210.218356L99.676800 205.894913L100.123200 195.159479
L100.569600 212.551448L101.016000 97.363283L101.462400 216.734042
L101.908800 204.998738L102.355200 214.568290L102.801600 205.935026
L103.248000 114.217312L103.694400 199.794767L104.140800 210.455307
L105.033600 207.768745L106.372800 213.141160L106.819200 202.042219
L107.265600 218.248732L107.712000 206.412671L108.158400 203.520918
L108.604800 217.379454L109.051200 206.381946L109.497600 218.403096
L109.944000 205.138682L110.390400 221.891557L110.836800 203.300095
L111.729600 211.880618L112.176000 207.171890L113.068800 213.906891
L113.515200 207.621014L113.961600 234.360788L114.408000 201.943460
L114.854400 212.090204L115.300800 204.159412L115.747200 219.292603
L116.193600 221.087148L116.640000 323.540389L117.532800 182.070565
L117.979200 231.374717L118.872000 189.203162L119.318400 208.971247
L119.764800 206.882430L120.211200 210.089227L120.657600 207.041095
L121.104000 210.728601L121.550400 209.282064L121.996800 181.829383
L122.443200 221.649273L123.336000 207.186714L123.782400 208.310449
L124.228800 211.240343L124.675200 179.870104L125.121600 218.153469
L125.568000 204.425317L126.014400 206.105178L126.460800 210.225447
L126.907200 207.179175L127.800000 210.911061L128.246400 103.215095
L129.139200 219.977348L129.585600 176.924036L130.478400 338.548654
L130.924800 204.013234L131.371200 183.122869L131.817600 221.009742
L132.710400 186.555477L133.156800 212.977903L133.603200 205.440670
L134.049600 210.595013L134.496000 208.000003L134.942400 212.757254
L135.388800 208.193862L136.281600 210.452148L136.728000 206.396609
L137.174400 212.741662L137.620800 181.357619L138.067200 219.649322
L138.513600 210.274610L139.852800 206.759190L140.299200 191.657205
L140.745600 206.986387L141.638400 186.307502L142.084800 227.957440
L142.531200 175.740140L142.977600 240.295918L143.424000 203.482418
L143.870400 195.569852L144.316800 208.988319L144.763200 206.614129
L145.209600 209.567088L145.656000 205.414755L146.102400 212.107631
L146.548800 209.085299L146.995200 181.581564L147.441600 221.614774
L148.334400 187.258034L148.780800 231.447272L149.227200 205.192528
L149.673600 200.595458L151.012800 212.990369L151.459200 204.860221
L151.905600 214.018623L152.352000 205.407024L153.244800 211.097007
L153.691200 209.347405L154.137600 211.202930L155.030400 203.489504
L155.476800 169.413832L155.923200 233.164724L156.369600 193.869797
L156.816000 225.489285L158.155200 192.717476L159.048000 209.652824
L159.494400 211.560884L159.940800 207.770705L160.387200 182.145544
L160.833600 217.950090L161.726400 207.946922L162.172800 205.249737
L162.619200 182.034939L163.065600 211.933418L163.512000 209.965137
L163.958400 213.501437L164.404800 207.961062L164.851200 212.121681
L165.744000 205.291818L166.190400 211.195469L167.083200 209.500341
L167.976000 205.306348L168.422400 211.496300L168.868800 206.864936
L169.315200 211.751193L169.761600 183.400280L170.208000 218.731265
L170.654400 209.607343L171.100800 210.821925L171.993600 189.925132
L172.440000 211.873614L172.886400 205.958993L173.332800 212.392380
L173.779200 207.124089L174.225600 212.407131L175.118400 206.380696
L175.564800 209.612174L176.011200 208.011713L176.457600 209.769828
L176.904000 207.748433L177.350400 209.727051L177.796800 201.889506
L178.243200 219.311957L178.689600 204.995840L179.582400 215.025445
L180.028800 205.468052L180.475200 216.424219L180.921600 203.012379
L181.368000 211.349690L181.814400 208.087062L182.260800 211.514642
L182.707200 181.440028L183.153600 223.617437L183.600000 205.735968
L184.492800 212.477620L185.385600 197.231035L186.278400 208.813236
L186.724800 212.429351L187.171200 209.549204L187.617600 216.544759
L188.064000 202.227968L188.510400 213.155819L188.956800 206.421936
L189.403200 210.035449L189.849600 178.329901L190.296000 224.896472
L190.742400 208.912214L191.188800 168.708547L191.635200 216.681973
L192.081600 192.440845L192.528000 227.615816L193.420800 190.507200
L193.867200 210.977296L194.313600 206.860628L194.760000 191.390815
L195.206400 210.755981L195.652800 194.496575L196.545600 223.521502
L197.438400 191.494799L198.331200 214.161375L198.777600 206.251960
L199.670400 212.584459L200.116800 206.382391L201.009600 212.993900
L201.456000 206.793397L201.902400 211.350370L202.348800 208.429195
L202.795200 210.148258L203.241600 181.345910L203.688000 218.812445
L204.134400 169.159568L204.580800 210.206664L205.027200 192.016059
L205.473600 216.356578L205.920000 195.125397L206.366400 215.281107
L206.812800 184.337599L207.259200 179.011315L207.705600 223.434663
L208.598400 202.260618L209.044800 207.499909L209.491200 203.270018
L209.937600 188.881732L210.384000 211.132314L211.276800 197.389638
L211.723200 215.308616L212.169600 202.405803L212.616000 211.383377
L213.062400 199.616044L213.955200 207.865610L214.401600 206.113079
L215.294400 209.551168L215.740800 203.231975L216.187200 212.443941
L216.633600 198.271925L217.526400 212.829936L217.972800 198.220276
L218.419200 207.442879L218.865600 205.623286L219.758400 211.954655
L220.651200 198.492607L221.097600 210.477853L221.990400 205.612487
L222.436800 208.982557L222.883200 199.721143L223.329600 213.746091
L223.776000 200.783226L224.222400 219.680665L224.668800 199.600591
L225.115200 200.942886L226.900800 211.934481L227.347200 199.519392
L227.793600 224.936453L228.240000 194.813316L229.579200 211.188674
L230.025600 201.733868L230.472000 211.217105L230.918400 199.415598
L231.364800 216.364428L232.257600 198.296436L232.704000 208.725771
L233.596800 200.143878L234.043200 207.073566L234.489600 204.282960
L234.936000 205.502465L235.382400 176.783894L235.828800 217.656698
L236.275200 179.732005L236.721600 230.919060L237.614400 182.661155
L238.060800 201.380994L238.507200 193.180696L238.953600 203.618191
L239.400000 183.783957L239.846400 231.190980L240.292800 204.993749
L240.739200 202.603289L241.185600 182.523561L241.632000 207.986129
L242.078400 205.304182L242.524800 209.821761L242.971200 204.528127
L243.864000 209.235572L244.310400 204.145145L244.756800 206.588828
L245.649600 194.678668L246.096000 211.059339L246.542400 204.333961
L246.988800 209.484697L247.435200 204.028761L247.881600 206.430416
L248.328000 211.615095L248.774400 199.746012L249.220800 208.560894
L249.667200 204.439990L250.113600 209.661143L251.006400 203.640570
L251.899200 207.031102L252.345600 204.782903L253.238400 215.453322
L253.684800 198.248479L254.131200 207.618605L255.024000 204.306569
L255.470400 207.352590L255.916800 204.926806L256.363200 227.644687
L256.809600 190.150516L257.256000 203.063321L257.702400 174.087145
L258.148800 223.745899L258.595200 173.619031L259.041600 228.315599
L259.488000 194.059185L259.934400 216.644818L260.827200 187.482124
L261.273600 208.164941L261.720000 206.578386L262.166400 201.591773
L262.612800 213.743905L263.059200 199.483021L263.505600 219.662875
L263.952000 167.215993L264.398400 209.921716L264.844800 170.180764
L265.291200 240.116287L266.184000 180.456443L267.076800 219.113038
L267.523200 201.799766L268.416000 198.170656L268.862400 215.001299
L269.308800 198.208355L269.755200 208.538190L270.201600 205.225780
L270.648000 197.150918L271.094400 215.176226L271.987200 198.042794
L272.433600 212.718034L272.880000 204.929486L273.326400 210.816840
L273.772800 200.428087L274.219200 220.464473L274.665600 196.745216
L275.112000 200.042610L276.004800 212.972448L276.451200 200.042749
L276.897600 213.505204L277.344000 200.118881L277.790400 205.486470
L278.236800 218.197146L278.683200 197.411987L279.129600 208.728941
L280.022400 202.753944L280.468800 206.551270L281.361600 197.155643
L281.808000 221.489868L282.254400 199.509212L283.147200 214.614310
L283.593600 195.838702L284.040000 205.683163L284.932800 181.065074
L285.379200 217.487388L285.825600 182.036315L286.272000 228.035346
L287.611200 183.075685L288.057600 204.789883L288.504000 195.494317
L288.950400 208.467862L289.843200 205.371925L290.289600 207.086381
L290.736000 201.651919L291.182400 210.198231L291.628800 200.498998
L292.075200 204.643115L293.414400 206.614047L294.307200 200.375410
L294.753600 207.709815L295.200000 202.714613L295.646400 208.835998
L296.092800 177.142302L296.539200 216.146282L296.985600 203.949161
L297.432000 207.325807L297.878400 202.327650L298.324800 150.321029
L298.771200 225.158734L299.217600 185.038345L299.664000 224.949465
L300.110400 205.815019L301.003200 184.587725L301.449600 201.327183
L302.342400 207.461309L302.788800 205.186684L303.235200 206.464218
L304.128000 203.868391L304.574400 205.255501L305.020800 197.931315
L305.467200 177.792159L305.913600 218.062927L306.360000 205.220638
L306.806400 208.362603L307.252800 205.652268L308.145600 187.124183
L308.592000 200.963183L309.038400 187.906005L309.484800 206.875788
L309.931200 203.827530L310.824000 182.908295L311.270400 229.698240
L311.716800 189.060307L312.163200 196.040447L312.609600 187.336481
L313.056000 219.478820L313.502400 218.093554L313.948800 192.101278
L314.395200 206.579237L314.841600 196.047260L315.288000 214.731656
L315.734400 200.191443L316.180800 207.635545L316.627200 205.768783
L317.966400 207.859721L318.412800 203.309850L318.859200 207.616384
L319.305600 201.631513L319.752000 207.177079L320.198400 203.465862
L320.644800 209.938135L321.091200 176.000475L321.537600 218.996263
L321.984000 204.621003L322.430400 207.867707L322.876800 199.961063
L323.323200 181.871576L323.769600 205.751809L324.216000 207.995475
L324.662400 181.035381L325.108800 206.358114L326.448000 204.132484
L326.894400 207.524073L327.340800 202.847484L327.787200 207.913809
L328.233600 202.205446L328.680000 205.827839L329.126400 204.555346
L329.572800 208.730063L330.019200 202.858035L330.912000 205.805932
L331.358400 204.166759L331.804800 207.406484L332.697600 205.132951
L333.144000 208.284430L333.590400 200.582047L334.036800 179.467293
L334.483200 214.962524L335.376000 204.294203L335.822400 207.942341
L336.268800 205.176749L336.715200 187.731707L337.161600 203.578569
L337.608000 201.741367L338.054400 206.169569L338.500800 195.620289
L338.947200 211.753367L339.393600 200.787894L340.286400 206.097117
L340.732800 200.000768L341.179200 204.984890L341.625600 194.218705
L342.072000 217.657763L342.518400 197.390201L342.964800 207.706091
L343.411200 206.202791L343.857600 208.097654L344.304000 199.722228
L344.750400 205.165794L345.643200 196.366593L346.089600 208.994828
L346.536000 204.800237L346.982400 193.509098L347.428800 199.816966
L347.875200 192.167641L348.768000 198.613088L349.214400 183.750215
L349.660800 204.197348L350.107200 196.306788L351.000000 198.624587
L351.446400 191.938331L351.892800 199.071355L352.339200 195.314947
L352.785600 198.245618L353.678400 195.571103L354.124800 199.223696
L354.571200 196.723795L355.017600 212.668106L355.464000 170.046424
L355.910400 199.386266L356.356800 193.319699L356.803200 197.845470
L357.249600 143.591851L357.696000 217.828728L358.588800 178.722083
L359.035200 213.064093L359.481600 167.153606L359.928000 208.133200
L360.374400 192.772558L361.267200 203.640469L361.713600 192.437370
L362.160000 200.858086L362.606400 191.604543L363.052800 208.526373
L363.499200 187.382524L363.945600 197.561471L364.392000 195.412313
L364.838400 199.952213L365.284800 192.752068L365.731200 205.590638
L366.177600 190.553702L366.624000 209.115699L367.516800 187.859603
L368.409600 201.143990L368.856000 196.737197L369.748800 167.910256
L370.195200 213.235447L370.641600 205.017717L371.088000 175.070488
L371.980800 218.599028L372.427200 170.783009L372.873600 203.193421
L373.320000 190.689237L373.766400 217.137389L374.212800 181.246511
L374.659200 200.799502L375.105600 191.792600L375.552000 203.697911
L375.998400 194.899495L376.444800 201.412700L376.891200 192.148750
L377.337600 197.260110L377.784000 195.405516L378.230400 200.452656
L378.676800 194.169541L379.123200 198.826945L379.569600 181.198687
L380.908800 200.679289L381.355200 197.371259L381.801600 177.048473
L382.248000 181.560384L382.694400 197.298605L383.140800 193.165778
L383.587200 198.964960L384.033600 196.782343L384.480000 198.479147
L384.926400 176.863233L385.372800 195.742585L385.819200 199.764562
L386.265600 195.545139L386.712000 181.889986L387.604800 200.274050
L388.051200 196.379933L388.497600 200.323635L388.944000 178.367993
L389.390400 195.030029L389.836800 198.668150L390.283200 190.617257
L391.176000 197.584627L391.622400 190.789784L392.068800 207.330699
L392.515200 191.319326L393.854400 213.419839L394.300800 171.950118
L394.747200 197.002709L395.193600 198.991059L396.086400 162.249114
L396.532800 219.441021L397.425600 169.875633L397.872000 227.797526
L398.318400 190.839321L398.764800 191.992024L399.211200 188.739341
L400.104000 202.436454L400.550400 191.204423L400.996800 208.029001
L401.443200 187.747951L401.889600 214.299098L402.336000 184.433890
L403.228800 197.154723L403.675200 199.799006L404.121600 195.468841
L404.568000 202.993796L405.014400 186.474074L405.460800 214.459596
L405.907200 187.302871L406.353600 193.658268L406.800000 190.724511
L407.246400 202.404283L407.692800 204.573112L408.585600 167.749681
L409.032000 220.574970L409.478400 175.537252L409.924800 195.058083
L410.371200 199.352804L411.264000 336.482865L411.710400 198.090812
L412.156800 194.011628L412.603200 163.464431L413.049600 199.859260
L413.942400 198.307323L414.388800 191.390223L414.835200 156.357632
L415.281600 205.663673L415.728000 178.416436L416.174400 218.568920
L417.067200 176.851090L417.513600 198.562939L417.960000 337.006725
L418.406400 190.689620L418.852800 199.078816L419.299200 162.655262
L419.745600 207.667303L420.192000 197.141964L421.084800 195.859451
L421.531200 159.448857L421.977600 222.092614L422.424000 196.080392
L422.870400 194.465598L423.316800 198.783347L423.763200 195.780038
L424.209600 175.573090L424.656000 318.249888L425.102400 203.945889
L425.548800 196.062864L425.995200 198.682816L426.441600 174.836378
L427.334400 202.385198L427.780800 164.906893L428.227200 196.799806
L428.673600 162.455850L429.120000 212.890700L429.566400 206.869842
L430.012800 173.279035L430.459200 202.887802L430.905600 193.294356
L431.352000 198.603225L432.691200 180.914527L433.137600 160.911529
L433.584000 224.114366L434.030400 177.977126L434.476800 217.095066
L434.923200 148.885932L435.369600 201.482502L435.816000 185.615360
L436.262400 196.880742L436.708800 187.760117L437.155200 199.229035
L437.601600 192.957801L438.048000 199.788700L438.494400 189.577204
L439.387200 199.991298L439.833600 187.820621L440.280000 199.459551
L440.726400 197.465699L441.619200 198.677771L442.065600 215.268931
L442.512000 174.642200L443.404800 200.514034L444.297600 196.082055
L444.744000 178.594825L445.190400 195.009413L446.529600 198.962674
L446.976000 195.928618L447.422400 199.923820L447.868800 191.368042
L448.315200 199.655023L449.208000 193.757502L449.654400 198.655703
L450.100800 195.489604L450.547200 199.527284L451.440000 196.267203
L451.886400 200.733322L453.225600 180.700531L453.672000 198.078353
L454.118400 195.509992L454.564800 177.349844L455.011200 198.917717
L455.457600 196.394606L455.904000 198.506964L456.350400 192.574890
L456.796800 191.152990L457.243200 200.405911L459.028800 193.569605
L459.475200 199.500224L459.921600 212.319534L460.368000 175.224943
L460.814400 195.325042L461.260800 199.976904L461.707200 194.314917
L462.153600 174.762843L462.600000 201.855766L463.046400 196.080168
L463.939200 198.753533L464.385600 196.690932L464.832000 199.918743
L465.724800 194.699976L466.171200 198.878416L467.064000 195.259228
L467.510400 199.250501L467.956800 195.145379L468.403200 198.440532
L468.849600 196.424372L469.296000 198.044512L469.742400 196.341076
L470.188800 192.910029L471.081600 178.332686L471.528000 195.714858
L471.974400 197.137392L472.420800 200.713858L472.867200 172.723994
L473.313600 200.150090L474.206400 195.333748L475.099200 199.235608
L475.545600 194.361844L475.992000 198.836234L476.884800 196.062303
L477.331200 199.511082L477.777600 211.559782L478.224000 174.455253
L478.670400 199.409436L479.116800 195.904430L480.009600 177.323230
L480.456000 200.928387L481.348800 194.193683L481.795200 171.084040
L482.241600 207.813597L483.134400 194.474656L483.580800 199.374373
L484.027200 175.391228L484.473600 196.787762L484.920000 338.095474
L485.366400 190.532660L485.812800 197.888344L486.259200 195.461601
L486.705600 176.528040L487.152000 196.650156L487.598400 199.832472
L488.491200 193.221846L488.937600 201.255004L489.384000 197.007903
L490.276800 198.896800L490.723200 195.246842L491.169600 199.794815
L491.616000 189.012719L492.062400 187.875656L492.955200 200.411719
L493.848000 165.614417L494.294400 219.630984L494.740800 195.883948
L495.187200 197.041336L495.633600 200.151117L496.080000 173.199757
L496.526400 200.523053L496.972800 197.469283L497.865600 198.548699
L498.312000 197.099327L498.758400 219.333562L499.204800 173.075529
L499.651200 200.518042L500.097600 194.236045L500.544000 198.395885
L500.990400 176.446653L501.436800 196.494744L501.883200 200.101243
L502.329600 189.439474L503.222400 198.372292L504.115200 195.961929
L504.561600 197.528543L505.008000 193.207896L505.454400 199.216573
L505.900800 194.686586L506.347200 166.769034L506.793600 213.785740
L507.240000 193.761038L507.686400 198.064253L508.132800 196.383304
L508.579200 198.684594L509.025600 175.870242L509.472000 335.610829
L509.918400 198.862091L510.364800 197.412363L510.811200 198.636087
L511.257600 170.782535L511.704000 200.925653L512.596800 194.619372
L513.043200 197.699775L513.489600 195.618707L513.936000 198.997057
L514.382400 197.787986L515.275200 199.173221L515.721600 195.186356
L516.614400 196.239987L517.507200 200.319407L517.953600 195.871661
L517.953600 195.871661"/>
</g>
<g id="matplotlib.axis1">
<g id="xtick1">
<g id="line2d2">
<path style="fill: none; stroke: #000000; stroke-width: 0.500000; stroke-linejoin: round; stroke-linecap: butt; stroke-dasharray: 1.000000,3.000000; stroke-dashoffset: 0.000000; opacity: 1.000000" clip-path="url(#p50431ccdcb28178602d99d9270004dde)" d="M72.000000 388.800000L72.000000 43.200000"/>
</g>
<g id="line2d3">
<defs><path id="m30e32995789d870ad79a2e54c91cf9c6" d="M0.000000 0.000000L0.000000 -4.000000"/></defs>
<g ><use style="fill: none; stroke: #000000; stroke-width: 0.500000; stroke-linejoin: round; stroke-linecap: butt;  opacity: 1.000000" xlink:href="#m30e32995789d870ad79a2e54c91cf9c6" x="72.000000" y="388.800000"/>
</g></g>
<g id="line2d4">
<defs><path id="m9281cae24120827b11d5ea8a7ad3e96b" d="M0.000000 0.000000L0.000000 4.000000"/></defs>
<g ><use style="fill: none; stroke: #000000; stroke-width: 0.500000; stroke-linejoin: round; stroke-linecap: butt;  opacity: 1.000000" xlink:href="#m9281cae24120827b11d5ea8a7ad3e96b" x="72.000000" y="43.200000"/>
</g></g>
<g id="text1">
<defs>
<path id="c_7a2040fe3b94fcd41d0a72c84e93b115" d="M31.781250 -66.406250q-7.609375 0.000000 -11.453125 7.500000q-3.828125 7.484375 -3.828125 22.531250q0.000000 14.984375 3.828125 22.484375q3.843750 7.500000 11.453125 7.500000q7.671875 0.000000 11.500000 -7.500000q3.843750 -7.500000 3.843750 -22.484375q0.000000 -15.046875 -3.843750 -22.531250q-3.828125 -7.500000 -11.500000 -7.500000M31.781250 -74.218750q12.265625 0.000000 18.734375 9.703125q6.468750 9.687500 6.468750 28.140625q0.000000 18.406250 -6.468750 28.109375q-6.468750 9.687500 -18.734375 9.687500q-12.250000 0.000000 -18.718750 -9.687500q-6.468750 -9.703125 -6.468750 -28.109375q0.000000 -18.453125 6.468750 -28.140625q6.468750 -9.703125 18.718750 -9.703125"/>
</defs>
<g style="fill: #000000; opacity: 1.000000" transform="translate(68.976562,401.706250)scale(0.120000)">
<use xlink:href="#c_7a2040fe3b94fcd41d0a72c84e93b115"/>
</g>
</g>
</g>
<g id="xtick2">
<g id="line2d5">
<path style="fill: none; stroke: #000000; stroke-width: 0.500000; stroke-linejoin: round; stroke-linecap: butt; stroke-dasharray: 1.000000,3.000000; stroke-dashoffset: 0.000000; opacity: 1.000000" clip-path="url(#p50431ccdcb28178602d99d9270004dde)" d="M161.280000 388.800000L161.280000 43.200000"/>
</g>
<g id="line2d6">
<g ><use style="fill: none; stroke: #000000; stroke-width: 0.500000; stroke-linejoin: round; stroke-linecap: butt;  opacity: 1.000000" xlink:href="#m30e32995789d870ad79a2e54c91cf9c6" x="161.280000" y="388.800000"/>
</g></g>
<g id="line2d7">
<g ><use style="fill: none; stroke: #000000; stroke-width: 0.500000; stroke-linejoin: round; stroke-linecap: butt;  opacity: 1.000000" xlink:href="#m9281cae24120827b11d5ea8a7ad3e96b" x="161.280000" y="43.200000"/>
</g></g>
<g id="text2">
<defs>
<path id="c_ed3f3ed3ebfbd18bcb9c012009a68ad1" d="M19.187500 -8.296875l34.421875 0.000000l0.000000 8.296875l-46.281250 0.000000l0.000000 -8.296875q5.609375 -5.812500 15.296875 -15.593750q9.703125 -9.796875 12.187500 -12.640625q4.734375 -5.312500 6.609375 -9.000000q1.890625 -3.687500 1.890625 -7.250000q0.000000 -5.812500 -4.078125 -9.468750q-4.078125 -3.671875 -10.625000 -3.671875q-4.640625 0.000000 -9.796875 1.609375q-5.140625 1.609375 -11.000000 4.890625l0.000000 -9.968750q5.953125 -2.390625 11.125000 -3.609375q5.187500 -1.218750 9.484375 -1.218750q11.328125 0.000000 18.062500 5.671875q6.734375 5.656250 6.734375 15.125000q0.000000 4.500000 -1.687500 8.531250q-1.671875 4.015625 -6.125000 9.484375q-1.218750 1.421875 -7.765625 8.187500q-6.531250 6.765625 -18.453125 18.921875"/>
</defs>
<g style="fill: #000000; opacity: 1.000000" transform="translate(150.655000,401.706250)scale(0.120000)">
<use xlink:href="#c_ed3f3ed3ebfbd18bcb9c012009a68ad1"/>
<use xlink:href="#c_7a2040fe3b94fcd41d0a72c84e93b115" x="63.623047"/>
<use xlink:href="#c_7a2040fe3b94fcd41d0a72c84e93b115" x="127.246094"/>
</g>
</g>
</g>
<g id="xtick3">
<g id="line2d8">
<path style="fill: none; stroke: #000000; stroke-width: 0.500000; stroke-linejoin: round; stroke-linecap: butt; stroke-dasharray: 1.000000,3.000000; stroke-dashoffset: 0.000000; opacity: 1.000000" clip-path="url(#p50431ccdcb28178602d99d9270004dde)" d="M250.560000 388.800000L250.560000 43.200000"/>
</g>
<g id="line2d9">
<g ><use style="fill: none; stroke: #000000; stroke-width: 0.500000; stroke-linejoin: round; stroke-linecap: butt;  opacity: 1.000000" xlink:href="#m30e32995789d870ad79a2e54c91cf9c6" x="250.560000" y="388.800000"/>
</g></g>
<g id="line2d10">
<g ><use style="fill: none; stroke: #000000; stroke-width: 0.500000; stroke-linejoin: round; stroke-linecap: butt;  opacity: 1.000000" xlink:href="#m9281cae24120827b11d5ea8a7ad3e96b" x="250.560000" y="43.200000"/>
</g></g>
<g id="text3">
<defs>
<path id="c_a0416418d96557a09b8c1332d34883ba" d="M37.796875 -64.312500l-24.906250 38.921875l24.906250 0.000000zM35.203125 -72.906250l12.406250 0.000000l0.000000 47.515625l10.406250 0.000000l0.000000 8.203125l-10.406250 0.000000l0.000000 17.187500l-9.812500 0.000000l0.000000 -17.187500l-32.906250 0.000000l0.000000 -9.515625z"/>
</defs>
<g style="fill: #000000; opacity: 1.000000" transform="translate(239.794375,401.706250)scale(0.120000)">
<use xlink:href="#c_a0416418d96557a09b8c1332d34883ba"/>
<use xlink:href="#c_7a2040fe3b94fcd41d0a72c84e93b115" x="63.623047"/>
<use xlink:href="#c_7a2040fe3b94fcd41d0a72c84e93b115" x="127.246094"/>
</g>
</g>
</g>
<g id="xtick4">
<g id="line2d11">
<path style="fill: none; stroke: #000000; stroke-width: 0.500000; stroke-linejoin: round; stroke-linecap: butt; stroke-dasharray: 1.000000,3.000000; stroke-dashoffset: 0.000000; opacity: 1.000000" clip-path="url(#p50431ccdcb28178602d99d9270004dde)" d="M339.840000 388.800000L339.840000 43.200000"/>
</g>
<g id="line2d12">
<g ><use style="fill: none; stroke: #000000; stroke-width: 0.500000; stroke-linejoin: round; stroke-linecap: butt;  opacity: 1.000000" xlink:href="#m30e32995789d870ad79a2e54c91cf9c6" x="339.840000" y="388.800000"/>
</g></g>
<g id="line2d13">
<g ><use style="fill: none; stroke: #000000; stroke-width: 0.500000; stroke-linejoin: round; stroke-linecap: butt;  opacity: 1.000000" xlink:href="#m9281cae24120827b11d5ea8a7ad3e96b" x="339.840000" y="43.200000"/>
</g></g>
<g id="text4">
<defs>
<path id="c_cc8d6d580d1b10c8632f7a42cd53db8a" d="M33.015625 -40.375000q-6.640625 0.000000 -10.531250 4.546875q-3.875000 4.531250 -3.875000 12.437500q0.000000 7.859375 3.875000 12.437500q3.890625 4.562500 10.531250 4.562500q6.640625 0.000000 10.515625 -4.562500q3.875000 -4.578125 3.875000 -12.437500q0.000000 -7.906250 -3.875000 -12.437500q-3.875000 -4.546875 -10.515625 -4.546875M52.593750 -71.296875l0.000000 8.984375q-3.718750 -1.750000 -7.500000 -2.671875q-3.781250 -0.937500 -7.500000 -0.937500q-9.765625 0.000000 -14.921875 6.593750q-5.140625 6.593750 -5.875000 19.921875q2.875000 -4.250000 7.218750 -6.515625q4.359375 -2.265625 9.578125 -2.265625q10.984375 0.000000 17.359375 6.671875q6.375000 6.656250 6.375000 18.125000q0.000000 11.234375 -6.640625 18.031250q-6.640625 6.781250 -17.671875 6.781250q-12.656250 0.000000 -19.343750 -9.687500q-6.687500 -9.703125 -6.687500 -28.109375q0.000000 -17.281250 8.203125 -27.562500q8.203125 -10.281250 22.015625 -10.281250q3.718750 0.000000 7.500000 0.734375q3.781250 0.734375 7.890625 2.187500"/>
</defs>
<g style="fill: #000000; opacity: 1.000000" transform="translate(329.199375,401.706250)scale(0.120000)">
<use xlink:href="#c_cc8d6d580d1b10c8632f7a42cd53db8a"/>
<use xlink:href="#c_7a2040fe3b94fcd41d0a72c84e93b115" x="63.623047"/>
<use xlink:href="#c_7a2040fe3b94fcd41d0a72c84e93b115" x="127.246094"/>
</g>
</g>
</g>
<g id="xtick5">
<g id="line2d14">
<path style="fill: none; stroke: #000000; stroke-width: 0.500000; stroke-linejoin: round; stroke-linecap: butt; stroke-dasharray: 1.000000,3.000000; stroke-dashoffset: 0.000000; opacity: 1.000000" clip-path="url(#p50431ccdcb28178602d99d9270004dde)" d="M429.120000 388.800000L429.120000 43.200000"/>
</g>
<g id="line2d15">
<g ><use style="fill: none; stroke: #000000; stroke-width: 0.500000; stroke-linejoin: round; stroke-linecap: butt;  opacity: 1.000000" xlink:href="#m30e32995789d870ad79a2e54c91cf9c6" x="429.120000" y="388.800000"/>
</g></g>
<g id="line2d16">
<g ><use style="fill: none; stroke: #000000; stroke-width: 0.500000; stroke-linejoin: round; stroke-linecap: butt;  opacity: 1.000000" xlink:href="#m9281cae24120827b11d5ea8a7ad3e96b" x="429.120000" y="43.200000"/>
</g></g>
<g id="text5">
<defs>
<path id="c_bef35738d52871942e50b9de9b122bab" d="M31.781250 -34.625000q-7.031250 0.000000 -11.062500 3.765625q-4.015625 3.765625 -4.015625 10.343750q0.000000 6.593750 4.015625 10.359375q4.031250 3.765625 11.062500 3.765625q7.031250 0.000000 11.078125 -3.781250q4.062500 -3.796875 4.062500 -10.343750q0.000000 -6.578125 -4.031250 -10.343750q-4.015625 -3.765625 -11.109375 -3.765625M21.921875 -38.812500q-6.343750 -1.562500 -9.890625 -5.906250q-3.531250 -4.359375 -3.531250 -10.609375q0.000000 -8.734375 6.218750 -13.812500q6.234375 -5.078125 17.062500 -5.078125q10.890625 0.000000 17.093750 5.078125q6.203125 5.078125 6.203125 13.812500q0.000000 6.250000 -3.546875 10.609375q-3.531250 4.343750 -9.828125 5.906250q7.125000 1.656250 11.093750 6.500000q3.984375 4.828125 3.984375 11.796875q0.000000 10.609375 -6.468750 16.281250q-6.468750 5.656250 -18.531250 5.656250q-12.046875 0.000000 -18.531250 -5.656250q-6.468750 -5.671875 -6.468750 -16.281250q0.000000 -6.968750 4.000000 -11.796875q4.015625 -4.843750 11.140625 -6.500000M18.312500 -54.390625q0.000000 5.656250 3.531250 8.828125q3.546875 3.171875 9.937500 3.171875q6.359375 0.000000 9.937500 -3.171875q3.593750 -3.171875 3.593750 -8.828125q0.000000 -5.671875 -3.593750 -8.843750q-3.578125 -3.171875 -9.937500 -3.171875q-6.390625 0.000000 -9.937500 3.171875q-3.531250 3.171875 -3.531250 8.843750"/>
</defs>
<g style="fill: #000000; opacity: 1.000000" transform="translate(418.463750,401.706250)scale(0.120000)">
<use xlink:href="#c_bef35738d52871942e50b9de9b122bab"/>
<use xlink:href="#c_7a2040fe3b94fcd41d0a72c84e93b115" x="63.623047"/>
<use xlink:href="#c_7a2040fe3b94fcd41d0a72c84e93b115" x="127.246094"/>
</g>
</g>
</g>
<g id="xtick6">
<g id="line2d17">
<path style="fill: none; stroke: #000000; stroke-width: 0.500000; stroke-linejoin: round; stroke-linecap: butt; stroke-dasharray: 1.000000,3.000000; stroke-dashoffset: 0.000000; opacity: 1.000000" clip-path="url(#p50431ccdcb28178602d99d9270004dde)" d="M518.400000 388.800000L518.400000 43.200000"/>
</g>
<g id="line2d18">
<g ><use style="fill: none; stroke: #000000; stroke-width: 0.500000; stroke-linejoin: round; stroke-linecap: butt;  opacity: 1.000000" xlink:href="#m30e32995789d870ad79a2e54c91cf9c6" x="518.400000" y="388.800000"/>
</g></g>
<g id="line2d19">
<g ><use style="fill: none; stroke: #000000; stroke-width: 0.500000; stroke-linejoin: round; stroke-linecap: butt;  opacity: 1.000000" xlink:href="#m9281cae24120827b11d5ea8a7ad3e96b" x="518.400000" y="43.200000"/>
</g></g>
<g id="text6">
<defs>
<path id="c_42baa63129a918535c52adb20d687ea7" d="M12.406250 -8.296875l16.109375 0.000000l0.000000 -55.625000l-17.531250 3.515625l0.000000 -8.984375l17.437500 -3.515625l9.859375 0.000000l0.000000 64.609375l16.109375 0.000000l0.000000 8.296875l-41.984375 0.000000z"/>
</defs>
<g style="fill: #000000; opacity: 1.000000" transform="translate(504.173437,401.706250)scale(0.120000)">
<use xlink:href="#c_42baa63129a918535c52adb20d687ea7"/>
<use xlink:href="#c_7a2040fe3b94fcd41d0a72c84e93b115" x="63.623047"/>
<use xlink:href="#c_7a2040fe3b94fcd41d0a72c84e93b115" x="127.246094"/>
<use xlink:href="#c_7a2040fe3b94fcd41d0a72c84e93b115" x="190.869141"/>
</g>
</g>
</g>
</g>
<g id="matplotlib.axis2">
<g id="ytick1">
<g id="line2d20">
<path style="fill: none; stroke: #000000; stroke-width: 0.500000; stroke-linejoin: round; stroke-linecap: butt; stroke-dasharray: 1.000000,3.000000; stroke-dashoffset: 0.000000; opacity: 1.000000" clip-path="url(#p50431ccdcb28178602d99d9270004dde)" d="M72.000000 388.800000L518.400000 388.800000"/>
</g>
<g id="line2d21">
<defs><path id="m3400efa6b1638b3fea9e19e898273957" d="M0.000000 0.000000L4.000000 0.000000"/></defs>
<g ><use style="fill: none; stroke: #000000; stroke-width: 0.500000; stroke-linejoin: round; stroke-linecap: butt;  opacity: 1.000000" xlink:href="#m3400efa6b1638b3fea9e19e898273957" x="72.000000" y="388.800000"/>
</g></g>
<g id="line2d22">
<defs><path id="m20b58b2501143cb5e0a5e8f1ef6f1643" d="M0.000000 0.000000L-4.000000 0.000000"/></defs>
<g ><use style="fill: none; stroke: #000000; stroke-width: 0.500000; stroke-linejoin: round; stroke-linecap: butt;  opacity: 1.000000" xlink:href="#m20b58b2501143cb5e0a5e8f1ef6f1643" x="518.400000" y="388.800000"/>
</g></g>
<g id="text7">
<defs>
<path id="c_ed3e21196fb739f392806f09ca0594ef" d="M10.687500 -12.406250l10.312500 0.000000l0.000000 12.406250l-10.312500 0.000000z"/>
</defs>
<g style="fill: #000000; opacity: 1.000000" transform="translate(50.500000,393.167188)scale(0.120000)">
<use xlink:href="#c_7a2040fe3b94fcd41d0a72c84e93b115"/>
<use xlink:href="#c_ed3e21196fb739f392806f09ca0594ef" x="63.623047"/>
<use xlink:href="#c_7a2040fe3b94fcd41d0a72c84e93b115" x="95.410156"/>
</g>
</g>
</g>
<g id="ytick2">
<g id="line2d23">
<path style="fill: none; stroke: #000000; stroke-width: 0.500000; stroke-linejoin: round; stroke-linecap: butt; stroke-dasharray: 1.000000,3.000000; stroke-dashoffset: 0.000000; opacity: 1.000000" clip-path="url(#p50431ccdcb28178602d99d9270004dde)" d="M72.000000 331.200000L518.400000 331.200000"/>
</g>
<g id="line2d24">
<g ><use style="fill: none; stroke: #000000; stroke-width: 0.500000; stroke-linejoin: round; stroke-linecap: butt;  opacity: 1.000000" xlink:href="#m3400efa6b1638b3fea9e19e898273957" x="72.000000" y="331.200000"/>
</g></g>
<g id="line2d25">
<g ><use style="fill: none; stroke: #000000; stroke-width: 0.500000; stroke-linejoin: round; stroke-linecap: butt;  opacity: 1.000000" xlink:href="#m20b58b2501143cb5e0a5e8f1ef6f1643" x="518.400000" y="331.200000"/>
</g></g>
<g id="text8">
<g style="fill: #000000; opacity: 1.000000" transform="translate(50.906250,335.567188)scale(0.120000)">
<use xlink:href="#c_7a2040fe3b94fcd41d0a72c84e93b115"/>
<use xlink:href="#c_ed3e21196fb739f392806f09ca0594ef" x="63.623047"/>
<use xlink:href="#c_ed3f3ed3ebfbd18bcb9c012009a68ad1" x="95.410156"/>
</g>
</g>
</g>
<g id="ytick3">
<g id="line2d26">
<path style="fill: none; stroke: #000000; stroke-width: 0.500000; stroke-linejoin: round; stroke-linecap: butt; stroke-dasharray: 1.000000,3.000000; stroke-dashoffset: 0.000000; opacity: 1.000000" clip-path="url(#p50431ccdcb28178602d99d9270004dde)" d="M72.000000 273.600000L518.400000 273.600000"/>
</g>
<g id="line2d27">
<g ><use style="fill: none; stroke: #000000; stroke-width: 0.500000; stroke-linejoin: round; stroke-linecap: butt;  opacity: 1.000000" xlink:href="#m3400efa6b1638b3fea9e19e898273957" x="72.000000" y="273.600000"/>
</g></g>
<g id="line2d28">
<g ><use style="fill: none; stroke: #000000; stroke-width: 0.500000; stroke-linejoin: round; stroke-linecap: butt;  opacity: 1.000000" xlink:href="#m20b58b2501143cb5e0a5e8f1ef6f1643" x="518.400000" y="273.600000"/>
</g></g>
<g id="text9">
<g style="fill: #000000; opacity: 1.000000" transform="translate(50.375000,277.967188)scale(0.120000)">
<use xlink:href="#c_7a2040fe3b94fcd41d0a72c84e93b115"/>
<use xlink:href="#c_ed3e21196fb739f392806f09ca0594ef" x="63.623047"/>
<use xlink:href="#c_a0416418d96557a09b8c1332d34883ba" x="95.410156"/>
</g>
</g>
</g>
<g id="ytick4">
<g id="line2d29">
<path style="fill: none; stroke: #000000; stroke-width: 0.500000; stroke-linejoin: round; stroke-linecap: butt; stroke-dasharray: 1.000000,3.000000; stroke-dashoffset: 0.000000; opacity: 1.000000" clip-path="url(#p50431ccdcb28178602d99d9270004dde)" d="M72.000000 216.000000L518.400000 216.000000"/>
</g>
<g id="line2d30">
<g ><use style="fill: none; stroke: #000000; stroke-width: 0.500000; stroke-linejoin: round; stroke-linecap: butt;  opacity: 1.000000" xlink:href="#m3400efa6b1638b3fea9e19e898273957" x="72.000000" y="216.000000"/>
</g></g>
<g id="line2d31">
<g ><use style="fill: none; stroke: #000000; stroke-width: 0.500000; stroke-linejoin: round; stroke-linecap: butt;  opacity: 1.000000" xlink:href="#m20b58b2501143cb5e0a5e8f1ef6f1643" x="518.400000" y="216.000000"/>
</g></g>
<g id="text10">
<g style="fill: #000000; opacity: 1.000000" transform="translate(50.468750,220.367188)scale(0.120000)">
<use xlink:href="#c_7a2040fe3b94fcd41d0a72c84e93b115"/>
<use xlink:href="#c_ed3e21196fb739f392806f09ca0594ef" x="63.623047"/>
<use xlink:href="#c_cc8d6d580d1b10c8632f7a42cd53db8a" x="95.410156"/>
</g>
</g>
</g>
<g id="ytick5">
<g id="line2d32">
<path style="fill: none; stroke: #000000; stroke-width: 0.500000; stroke-linejoin: round; stroke-linecap: butt; stroke-dasharray: 1.000000,3.000000; stroke-dashoffset: 0.000000; opacity: 1.000000" clip-path="url(#p50431ccdcb28178602d99d9270004dde)" d="M72.000000 158.400000L518.400000 158.400000"/>
</g>
<g id="line2d33">
<g ><use style="fill: none; stroke: #000000; stroke-width: 0.500000; stroke-linejoin: round; stroke-linecap: butt;  opacity: 1.000000" xlink:href="#m3400efa6b1638b3fea9e19e898273957" x="72.000000" y="158.400000"/>
</g></g>
<g id="line2d34">
<g ><use style="fill: none; stroke: #000000; stroke-width: 0.500000; stroke-linejoin: round; stroke-linecap: butt;  opacity: 1.000000" xlink:href="#m20b58b2501143cb5e0a5e8f1ef6f1643" x="518.400000" y="158.400000"/>
</g></g>
<g id="text11">
<g style="fill: #000000; opacity: 1.000000" transform="translate(50.531250,162.767187)scale(0.120000)">
<use xlink:href="#c_7a2040fe3b94fcd41d0a72c84e93b115"/>
<use xlink:href="#c_ed3e21196fb739f392806f09ca0594ef" x="63.623047"/>
<use xlink:href="#c_bef35738d52871942e50b9de9b122bab" x="95.410156"/>
</g>
</g>
</g>
<g id="ytick6">
<g id="line2d35">
<path style="fill: none; stroke: #000000; stroke-width: 0.500000; stroke-linejoin: round; stroke-linecap: butt; stroke-dasharray: 1.000000,3.000000; stroke-dashoffset: 0.000000; opacity: 1.000000" clip-path="url(#p50431ccdcb28178602d99d9270004dde)" d="M72.000000 100.800000L518.400000 100.800000"/>
</g>
<g id="line2d36">
<g ><use style="fill: none; stroke: #000000; stroke-width: 0.500000; stroke-linejoin: round; stroke-linecap: butt;  opacity: 1.000000" xlink:href="#m3400efa6b1638b3fea9e19e898273957" x="72.000000" y="100.800000"/>
</g></g>
<g id="line2d37">
<g ><use style="fill: none; stroke: #000000; stroke-width: 0.500000; stroke-linejoin: round; stroke-linecap: butt;  opacity: 1.000000" xlink:href="#m20b58b2501143cb5e0a5e8f1ef6f1643" x="518.400000" y="100.800000"/>
</g></g>
<g id="text12">
<g style="fill: #000000; opacity: 1.000000" transform="translate(51.015625,105.167188)scale(0.120000)">
<use xlink:href="#c_42baa63129a918535c52adb20d687ea7"/>
<use xlink:href="#c_ed3e21196fb739f392806f09ca0594ef" x="63.623047"/>
<use xlink:href="#c_7a2040fe3b94fcd41d0a72c84e93b115" x="95.410156"/>
</g>
</g>
</g>
<g id="ytick7">
<g id="line2d38">
<path style="fill: none; stroke: #000000; stroke-width: 0.500000; stroke-linejoin: round; stroke-linecap: butt; stroke-dasharray: 1.000000,3.000000; stroke-dashoffset: 0.000000; opacity: 1.000000" clip-path="url(#p50431ccdcb28178602d99d9270004dde)" d="M72.000000 43.200000L518.400000 43.200000"/>
</g>
<g id="line2d39">
<g ><use style="fill: none; stroke: #000000; stroke-width: 0.500000; stroke-linejoin: round; stroke-linecap: butt;  opacity: 1.000000" xlink:href="#m3400efa6b1638b3fea9e19e898273957" x="72.000000" y="43.200000"/>
</g></g>
<g id="line2d40">
<g ><use style="fill: none; stroke: #000000; stroke-width: 0.500000; stroke-linejoin: round; stroke-linecap: butt;  opacity: 1.000000" xlink:href="#m20b58b2501143cb5e0a5e8f1ef6f1643" x="518.400000" y="43.200000"/>
</g></g>
<g id="text13">
<g style="fill: #000000; opacity: 1.000000" transform="translate(51.421875,47.653125)scale(0.120000)">
<use xlink:href="#c_42baa63129a918535c52adb20d687ea7"/>
<use xlink:href="#c_ed3e21196fb739f392806f09ca0594ef" x="63.623047"/>
<use xlink:href="#c_ed3f3ed3ebfbd18bcb9c012009a68ad1" x="95.410156"/>
</g>
</g>
</g>
</g>
<g id="patch3">
<path style="fill: none; stroke: #000000; stroke-width: 1.000000; stroke-linejoin: round; stroke-linecap: square;  opacity: 1.000000"  d="M72.000000 43.200000L518.400000 43.200000"/>
</g>
<g id="patch4">
<path style="fill: none; stroke: #000000; stroke-width: 1.000000; stroke-linejoin: round; stroke-linecap: square;  opacity: 1.000000"  d="M518.400000 388.800000L518.400000 43.200000"/>
</g>
<g id="patch5">
<path style="fill: none; stroke: #000000; stroke-width: 1.000000; stroke-linejoin: round; stroke-linecap: square;  opacity: 1.000000"  d="M72.000000 388.800000L518.400000 388.800000"/>
</g>
<g id="patch6">
<path style="fill: none; stroke: #000000; stroke-width: 1.000000; stroke-linejoin: round; stroke-linecap: square;  opacity: 1.000000"  d="M72.000000 388.800000L72.000000 43.200000"/>
</g>
</g>
</g>
</svg>
