<?xml version="1.0" standalone="no"?>
<!DOCTYPE svg PUBLIC "-//W3C//DTD SVG 1.1//EN"
  "http://www.w3.org/Graphics/SVG/1.1/DTD/svg11.dtd">
<!-- Created with matplotlib (http://matplotlib.sourceforge.net/) -->
<svg width="576pt" height="432pt" viewBox="0 0 576 432"
   xmlns="http://www.w3.org/2000/svg"
   xmlns:xlink="http://www.w3.org/1999/xlink"
   version="1.1"
   id="svg1">
<g id="figure1">
<g id="patch1">
<path style="fill: #ffffff; stroke: #ffffff; stroke-width: 1.000000; stroke-linejoin: round; stroke-linecap: square;  opacity: 1.000000"  d="M0.000000 432.000000L576.000000 432.000000L576.000000 0.000000
L0.000000 0.000000L0.000000 432.000000"/>
</g>
<g id="axes1">
<g id="patch2">
<path style="fill: #ffffff; opacity: 1.000000"  d="M72.000000 388.800000L518.400000 388.800000L518.400000 43.200000
L72.000000 43.200000L72.000000 388.800000"/>
</g>
<g id="line2d1">
<defs>
  <clipPath id="p50431ccdcb28178602d99d9270004dde">
<rect x="72.000000" y="43.200000" width="446.400000" height="345.600000"/>
  </clipPath>
</defs><path style="fill: none; stroke: #ff0000; stroke-width: 1.000000; stroke-linejoin: round; stroke-linecap: square;  opacity: 1.000000" clip-path="url(#p50431ccdcb28178602d99d9270004dde)" d="M72.000000 215.364367L72.446400 143.881377L73.339200 347.128375
L73.785600 128.696110L74.232000 205.075885L74.678400 219.377193
L75.124800 182.753489L76.017600 347.214173L76.464000 134.189803
L76.910400 170.709988L77.356800 131.854184L77.803200 343.983525
L78.249600 161.237367L78.696000 342.698030L79.588800 348.335238
L80.035200 193.115388L80.481600 336.523550L80.928000 125.273622
L81.374400 302.716922L81.820800 177.439973L82.267200 176.059218
L82.713600 340.482484L83.160000 347.912277L83.606400 115.236331
L84.052800 337.959932L84.499200 116.984447L84.945600 126.745647
L86.284800 344.300048L86.731200 346.439654L87.177600 128.719418
L88.963200 341.115752L89.409600 344.998545L89.856000 329.247003
L90.302400 343.694048L90.748800 285.474999L91.195200 123.180557
L91.641600 337.250628L92.088000 341.634677L92.534400 116.354933
L92.980800 126.979744L93.427200 325.629373L94.320000 121.893642
L95.212800 322.915615L95.659200 220.256024L96.105600 320.114062
L96.552000 335.779272L96.998400 111.470316L97.444800 333.999499
L97.891200 125.952490L98.337600 183.053269L98.784000 354.229525
L99.676800 320.141755L100.123200 118.859692L100.569600 330.159794
L101.016000 333.044207L101.462400 114.090913L101.908800 327.333693
L102.355200 99.107275L102.801600 331.064131L103.248000 328.970501
L103.694400 330.882411L104.140800 319.523370L104.587200 334.980358
L105.033600 319.121025L105.480000 334.793356L105.926400 317.638405
L106.372800 327.290462L106.819200 303.926502L107.265600 330.611077
L107.712000 118.151074L108.158400 327.901100L108.604800 314.386898
L109.051200 330.348977L109.497600 318.312486L109.944000 330.949393
L110.390400 315.141930L111.283200 124.132246L111.729600 320.790458
L112.176000 324.797923L112.622400 313.336094L113.068800 328.102053
L113.515200 99.887452L113.961600 322.426552L115.300800 310.336339
L116.193600 325.484567L116.640000 308.480134L117.086400 189.706359
L117.532800 313.093904L118.425600 98.770466L118.872000 333.710437
L119.318400 318.450788L119.764800 324.099207L120.211200 94.557737
L120.657600 317.272700L121.104000 321.542045L121.550400 314.477247
L121.996800 89.353600L122.443200 103.017032L123.336000 324.913426
L123.782400 310.896626L124.675200 100.396251L125.121600 294.123369
L125.568000 315.349607L126.014400 310.643131L126.460800 316.752305
L126.907200 298.997693L127.353600 314.175241L127.800000 118.434602
L128.246400 305.344602L128.692800 300.119385L129.139200 237.317554
L130.032000 307.561229L130.478400 317.032142L130.924800 296.247549
L131.371200 312.974929L131.817600 314.665786L132.264000 300.644101
L132.710400 308.711252L133.156800 101.790635L134.049600 301.912421
L134.496000 300.732939L135.388800 308.611420L135.835200 293.205121
L136.281600 306.374633L136.728000 309.400051L137.174400 180.537749
L137.620800 304.893806L138.067200 301.693235L138.513600 304.390529
L138.960000 278.485972L139.406400 203.987982L139.852800 297.667075
L140.299200 108.431986L141.192000 238.870828L141.638400 291.668732
L142.084800 224.209300L142.531200 295.795843L142.977600 299.850732
L143.424000 294.308438L143.870400 282.459861L144.316800 286.649259
L144.763200 169.195937L145.209600 294.049641L145.656000 305.115412
L146.102400 288.385647L146.548800 323.447567L146.995200 299.054306
L147.441600 125.629559L148.334400 290.276478L148.780800 289.171431
L149.227200 286.482387L149.673600 147.172547L150.120000 295.718611
L151.459200 272.774894L151.905600 276.169639L152.352000 230.310532
L152.798400 223.216561L153.244800 89.975217L153.691200 279.147650
L154.137600 283.533622L154.584000 279.581850L155.030400 185.442839
L155.476800 285.853827L155.923200 268.160682L156.369600 281.138335
L156.816000 199.493166L157.262400 274.603621L157.708800 270.596077
L158.601600 106.250671L159.048000 274.696146L159.494400 276.877369
L159.940800 270.639660L160.387200 256.758442L161.280000 252.611936
L161.726400 266.514368L162.172800 251.539271L162.619200 248.687343
L163.065600 254.485254L163.512000 247.113814L163.958400 51.289332
L164.404800 256.816254L164.851200 136.658285L165.297600 255.620996
L165.744000 243.905043L166.190400 258.476762L166.636800 247.668106
L167.083200 164.297562L167.529600 241.880283L168.422400 237.096767
L168.868800 151.143152L169.761600 313.339502L170.654400 348.414773
L171.100800 122.519711L171.547200 346.458684L171.993600 334.140483
L172.886400 350.935005L173.332800 342.545768L173.779200 344.354120
L174.225600 339.138735L174.672000 348.992622L175.118400 346.551828
L175.564800 352.707976L176.011200 332.821065L176.457600 347.626119
L176.904000 155.617971L177.796800 347.022682L178.243200 344.541314
L178.689600 333.658519L179.136000 214.244435L179.582400 345.226826
L180.028800 344.010349L180.475200 314.715878L180.921600 340.738212
L181.368000 132.977217L181.814400 134.191234L182.260800 339.565825
L182.707200 341.620788L183.153600 263.042253L183.600000 259.629180
L184.046400 345.531253L184.492800 342.204205L185.385600 222.864384
L185.832000 337.704081L186.724800 339.317139L187.171200 129.896108
L187.617600 327.023997L188.064000 344.364569L188.510400 327.133260
L188.956800 339.511078L189.403200 326.808080L189.849600 338.893421
L190.296000 328.497290L190.742400 340.057835L191.188800 253.925997
L191.635200 340.775623L192.081600 342.918666L193.420800 330.268016
L193.867200 338.479478L194.313600 325.898122L194.760000 213.738570
L195.206400 343.798531L195.652800 338.352855L196.545600 192.613924
L196.992000 370.850182L197.438400 332.017831L198.331200 338.034769
L198.777600 323.419988L199.224000 334.393263L199.670400 322.170821
L200.116800 155.139256L200.563200 178.633154L201.009600 335.136211
L201.456000 338.497945L201.902400 328.106982L202.348800 333.782376
L202.795200 290.078809L203.241600 332.142008L203.688000 334.808571
L204.134400 323.367653L204.580800 334.434866L205.027200 321.580565
L205.473600 333.121302L205.920000 315.466886L206.366400 336.820683
L206.812800 317.812905L207.259200 332.309853L207.705600 321.021325
L208.152000 332.179650L208.598400 320.138479L209.044800 331.434468
L209.491200 207.494004L209.937600 350.389929L210.384000 304.914867
L210.830400 224.416217L211.276800 323.383525L211.723200 327.900033
L212.169600 214.847838L212.616000 328.723823L213.062400 319.862460
L213.508800 330.594664L213.955200 318.407477L214.401600 276.149322
L214.848000 336.936232L215.294400 312.014594L215.740800 327.917703
L216.187200 306.870056L216.633600 323.878899L217.080000 327.402971
L217.526400 315.514232L217.972800 326.776550L218.419200 311.183788
L218.865600 322.151238L219.312000 323.249112L219.758400 312.776801
L220.204800 323.205979L220.651200 309.170764L221.544000 326.287880
L221.990400 129.006175L222.436800 320.661243L222.883200 316.199804
L223.329600 327.727525L223.776000 209.224028L224.222400 347.951210
L224.668800 319.927895L225.115200 317.501262L225.561600 299.967028
L226.454400 320.740445L226.900800 297.932059L227.793600 315.325989
L228.240000 307.424789L228.686400 310.822623L229.132800 156.149156
L229.579200 319.771767L230.025600 309.811704L230.472000 313.641732
L230.918400 306.334797L231.364800 315.893239L231.811200 256.485712
L232.257600 302.922816L233.150400 310.600838L233.596800 307.751415
L234.043200 299.417205L234.489600 313.975673L235.382400 196.088691
L235.828800 315.480076L236.275200 304.102704L236.721600 314.860062
L237.168000 317.140619L237.614400 127.047312L238.060800 304.991834
L238.507200 157.445060L238.953600 307.106497L239.400000 304.736322
L240.292800 310.539201L240.739200 299.939502L241.185600 244.605541
L242.078400 345.853453L242.524800 253.190834L242.971200 295.045877
L243.417600 305.028576L243.864000 292.974190L244.310400 99.294255
L244.756800 303.381498L246.096000 291.941278L246.542400 299.281609
L246.988800 201.078681L247.435200 295.068945L247.881600 308.035393
L248.328000 253.881399L248.774400 296.254168L249.220800 183.086839
L249.667200 296.957712L250.560000 295.797106L251.006400 298.409977
L251.452800 282.735010L251.899200 290.510902L252.345600 289.394951
L252.792000 320.474482L253.238400 282.738135L254.577600 308.657264
L255.024000 284.819390L255.470400 289.019867L255.916800 274.679161
L256.363200 283.196546L257.256000 269.182910L258.148800 302.438250
L258.595200 294.763028L259.041600 49.873151L259.488000 272.582444
L259.934400 276.006410L260.380800 217.020293L260.827200 273.346156
L261.273600 274.843364L261.720000 181.903820L262.166400 204.842157
L262.612800 197.663094L263.059200 278.210633L263.505600 271.311050
L264.398400 243.413999L264.844800 251.997983L265.291200 138.997102
L265.737600 261.231640L266.630400 253.237925L267.076800 263.748750
L267.523200 258.614088L267.969600 267.692341L268.862400 233.745020
L269.308800 81.977410L269.755200 272.873312L270.648000 203.078124
L271.094400 245.628260L271.540800 106.737116L271.987200 248.457588
L272.880000 241.726547L273.772800 345.631693L274.665600 351.611837
L275.112000 347.197260L276.004800 345.700311L276.451200 250.047749
L276.897600 354.045384L277.344000 343.668189L277.790400 176.470279
L278.236800 180.643238L278.683200 214.511890L279.129600 345.202109
L279.576000 349.990880L280.022400 336.066564L280.468800 177.737218
L280.915200 383.098057L281.808000 333.744250L282.254400 346.075136
L282.700800 340.736509L283.593600 181.731671L284.040000 342.032059
L284.932800 361.715811L285.379200 330.785533L285.825600 326.528789
L286.272000 334.173298L286.718400 243.682693L287.164800 341.073820
L287.611200 342.554898L288.057600 341.028565L288.504000 237.597039
L288.950400 336.185740L289.843200 344.430832L290.289600 337.872515
L290.736000 346.053917L291.182400 329.428755L291.628800 251.956439
L292.075200 332.282101L292.968000 340.755527L293.414400 327.915474
L293.860800 340.417827L294.307200 214.577817L294.753600 336.653436
L295.200000 337.900710L295.646400 172.702769L296.539200 337.395668
L297.432000 319.711688L297.878400 324.556073L298.324800 341.766516
L299.217600 339.394724L299.664000 335.224095L300.110400 340.414504
L301.003200 327.875413L301.449600 338.240945L301.896000 329.373494
L302.342400 339.645949L302.788800 320.328981L303.235200 336.034690
L303.681600 317.812069L304.128000 348.711609L304.574400 116.776359
L305.020800 331.405328L305.467200 333.885413L306.360000 320.338342
L306.806400 335.625822L307.252800 321.959748L307.699200 338.966872
L308.145600 323.802967L308.592000 295.285310L309.038400 320.070629
L309.484800 324.353325L309.931200 333.481298L310.377600 222.140559
L310.824000 337.175971L311.270400 318.196753L311.716800 333.770565
L312.163200 183.118023L312.609600 335.019441L313.056000 280.742650
L313.502400 325.034473L313.948800 327.240740L314.395200 318.446260
L314.841600 326.995523L315.288000 320.974804L315.734400 334.646397
L316.180800 328.990551L316.627200 332.424771L317.073600 315.395622
L317.520000 330.935832L317.966400 321.398257L318.412800 331.717178
L318.859200 142.282367L319.305600 319.006293L319.752000 329.177820
L320.198400 313.253780L320.644800 323.068670L321.091200 314.620909
L321.537600 160.293025L321.984000 315.953713L322.430400 321.249898
L322.876800 167.941458L323.323200 295.816013L323.769600 202.913112
L324.216000 311.771755L325.108800 326.535888L325.555200 330.271959
L326.001600 126.345871L326.448000 317.071356L326.894400 251.240143
L327.340800 316.877271L327.787200 309.071372L328.233600 321.969772
L328.680000 303.737551L329.126400 309.647230L329.572800 101.302362
L330.465600 315.608624L330.912000 310.858797L331.804800 251.191995
L332.697600 309.560109L333.590400 318.108268L334.036800 131.872570
L334.483200 309.795370L334.929600 315.251546L335.376000 303.470051
L335.822400 170.831433L336.268800 319.343750L337.161600 312.955337
L337.608000 279.570921L338.054400 317.963604L338.500800 301.493366
L338.947200 312.038875L339.393600 314.573529L339.840000 304.962629
L340.286400 205.350040L340.732800 310.201766L342.072000 289.965560
L342.518400 190.098263L342.964800 306.807040L343.411200 305.113040
L344.304000 311.793291L344.750400 295.512455L345.643200 311.595729
L346.089600 294.192733L346.536000 132.988983L346.982400 307.675158
L347.428800 227.453654L347.875200 296.860456L348.321600 99.539445
L348.768000 301.248086L349.214400 295.521578L349.660800 298.043186
L350.107200 307.275291L350.553600 284.562418L351.446400 295.244024
L351.892800 314.011590L352.339200 260.207597L352.785600 298.716919
L353.678400 333.678363L354.124800 289.149198L354.571200 299.394429
L355.017600 175.629182L355.464000 290.206822L356.356800 288.798795
L356.803200 300.195243L358.142400 282.517692L358.588800 171.496726
L359.035200 286.481774L359.481600 282.246936L360.374400 313.467094
L360.820800 221.421822L361.267200 59.666325L361.713600 313.820030
L362.160000 239.763907L363.052800 283.007521L363.499200 284.548126
L363.945600 266.248312L364.392000 269.746994L364.838400 266.067019
L365.284800 271.271482L365.731200 265.505484L366.177600 274.397507
L366.624000 185.182481L367.070400 264.818216L367.516800 111.470408
L367.963200 258.483463L368.409600 252.531711L368.856000 257.191692
L369.302400 207.502494L369.748800 251.308640L370.195200 248.692409
L371.088000 179.929638L371.534400 256.090884L371.980800 252.734870
L372.873600 238.622425L373.766400 232.700151L374.212800 241.236988
L375.105600 233.551098L375.998400 235.099266L376.444800 230.447541
L376.891200 332.184674L377.337600 336.772958L377.784000 348.158180
L378.230400 334.292216L378.676800 349.366730L379.123200 340.360310
L379.569600 309.910500L380.016000 332.820906L380.462400 148.069856
L380.908800 345.070348L381.801600 350.427686L382.248000 349.248768
L382.694400 233.973480L383.140800 332.703409L383.587200 279.130147
L384.033600 349.451428L384.480000 343.883985L384.926400 350.386579
L385.372800 326.534129L385.819200 343.759038L386.265600 336.929433
L386.712000 349.364199L387.158400 211.678996L387.604800 341.349449
L388.051200 192.126170L388.497600 343.687980L388.944000 338.261367
L389.390400 342.189623L389.836800 339.292358L390.283200 340.471347
L390.729600 327.652470L391.176000 346.574889L391.622400 332.546336
L392.068800 346.153931L392.515200 329.140695L392.961600 341.572274
L393.408000 325.973279L393.854400 228.588967L394.747200 340.265033
L395.193600 332.594900L395.640000 345.367163L396.086400 326.295393
L396.532800 337.108465L396.979200 332.851809L397.425600 345.332230
L397.872000 322.039079L398.318400 343.398740L398.764800 323.731698
L399.211200 340.091873L399.657600 328.041859L400.104000 342.969605
L400.550400 325.183514L400.996800 339.047565L401.443200 327.035795
L401.889600 339.146883L402.336000 328.148737L402.782400 335.552937
L403.228800 331.241403L403.675200 336.486382L404.121600 322.663581
L404.568000 178.277802L405.014400 329.629866L405.460800 327.869695
L405.907200 322.244752L406.353600 333.855860L406.800000 269.708680
L407.246400 328.205555L407.692800 334.860434L409.032000 333.930751
L409.478400 328.148976L409.924800 337.482887L410.371200 322.835295
L410.817600 334.585768L411.264000 226.299301L411.710400 327.063740
L412.603200 336.003276L413.049600 318.135834L413.496000 330.255143
L413.942400 317.812698L414.388800 332.306238L414.835200 318.218344
L415.281600 330.438123L415.728000 207.939174L416.174400 339.076943
L416.620800 310.397451L417.067200 331.977283L417.513600 320.298598
L417.960000 329.719546L418.406400 315.101659L418.852800 104.395734
L419.299200 296.978550L419.745600 315.632917L420.192000 217.682895
L420.638400 325.885504L421.084800 338.130047L421.531200 263.232139
L421.977600 316.336736L422.424000 312.657143L422.870400 331.921203
L423.316800 313.139916L423.763200 325.411126L424.209600 313.499201
L424.656000 326.661056L425.102400 313.147025L425.548800 324.070593
L425.995200 315.339160L426.441600 326.108683L426.888000 312.662956
L427.334400 326.319996L427.780800 317.191497L428.227200 315.873735
L428.673600 324.923457L429.120000 307.973211L429.566400 166.319418
L430.012800 328.519734L430.459200 259.574347L430.905600 324.526094
L432.244800 298.579810L432.691200 308.911246L433.137600 297.691637
L433.584000 301.990909L434.030400 297.888114L434.476800 316.356870
L434.923200 301.654264L435.369600 313.367213L435.816000 311.010380
L436.262400 297.260236L436.708800 311.599960L437.155200 246.827502
L437.601600 235.268490L438.048000 304.505685L438.494400 299.731635
L439.387200 315.308041L439.833600 301.495442L440.726400 315.894385
L441.172800 298.264395L442.065600 322.088900L442.512000 293.305024
L442.958400 310.758362L443.404800 314.683705L443.851200 299.238960
L444.744000 313.809232L445.190400 291.462056L446.083200 314.680857
L446.529600 300.351803L446.976000 301.728870L447.422400 319.920841
L447.868800 293.642639L448.315200 306.192208L448.761600 307.192467
L449.208000 292.030141L450.100800 313.630893L450.547200 292.082479
L451.440000 313.517727L452.332800 280.964358L452.779200 305.785989
L453.225600 309.256058L453.672000 289.650302L454.118400 296.875572
L454.564800 311.018418L455.011200 287.463362L455.904000 308.307837
L456.350400 293.670643L456.796800 296.954923L457.243200 291.578228
L458.136000 300.038447L458.582400 296.754055L459.028800 278.559919
L459.475200 287.037705L459.921600 308.844297L460.368000 298.179872
L460.814400 276.867882L461.260800 285.726379L461.707200 312.033663
L462.153600 270.713651L462.600000 292.674883L463.046400 273.911752
L463.492800 287.082492L463.939200 277.830324L464.385600 282.315894
L464.832000 281.037240L465.278400 315.405480L465.724800 271.227811
L466.617600 278.178489L467.064000 272.447930L467.510400 286.417048
L467.956800 259.207140L468.403200 273.997151L468.849600 271.026765
L470.188800 275.142492L471.081600 257.322002L472.420800 268.544465
L472.867200 260.024803L473.313600 263.586801L473.760000 261.952360
L474.206400 257.806354L474.652800 263.196287L475.099200 258.783693
L475.545600 263.098777L476.438400 261.926185L477.331200 242.519747
L477.777600 258.511305L478.224000 235.689622L478.670400 232.679502
L479.116800 238.875327L480.009600 267.621501L480.456000 350.471697
L480.902400 347.923760L481.348800 350.048919L482.688000 346.888372
L483.134400 350.255913L484.027200 348.797197L484.473600 350.364918
L485.366400 349.181299L485.812800 351.271564L486.259200 346.734923
L487.598400 350.081264L488.937600 343.937049L489.384000 350.701805
L489.830400 333.636572L490.276800 347.935183L490.723200 325.866440
L491.169600 343.677682L491.616000 334.289452L492.062400 345.641684
L492.508800 338.443569L492.955200 347.395752L493.401600 334.315992
L493.848000 349.088898L494.294400 330.122421L494.740800 345.875955
L495.187200 324.840152L495.633600 343.727568L496.080000 334.670965
L496.526400 344.054677L496.972800 336.430663L497.419200 346.343810
L497.865600 330.345737L498.312000 342.440003L498.758400 330.899100
L499.204800 342.381023L499.651200 326.112728L500.097600 342.567729
L500.544000 330.600404L500.990400 342.979081L501.436800 331.201174
L501.883200 346.257346L502.329600 325.890923L502.776000 343.990373
L503.222400 331.690588L503.668800 346.858292L504.115200 327.820398
L504.561600 346.025615L505.008000 327.464481L505.454400 340.538712
L505.900800 328.370442L506.347200 345.799001L506.793600 327.781266
L507.240000 338.337262L507.686400 324.072337L508.132800 338.743500
L508.579200 327.354910L509.025600 334.385653L509.472000 325.355971
L509.918400 333.396646L510.364800 327.109758L510.811200 337.836614
L511.257600 328.463305L511.704000 338.511301L512.150400 322.722513
L512.596800 337.604213L513.043200 324.897512L513.489600 340.618616
L513.936000 320.783743L514.382400 337.354505L514.828800 323.859717
L515.275200 332.478076L515.721600 318.388085L516.168000 337.623763
L516.614400 321.409218L517.060800 333.209090L517.507200 322.126358
L517.953600 334.621647L517.953600 334.621647"/>
</g>
<g id="matplotlib.axis1">
<g id="xtick1">
<g id="line2d2">
<path style="fill: none; stroke: #000000; stroke-width: 0.500000; stroke-linejoin: round; stroke-linecap: butt; stroke-dasharray: 1.000000,3.000000; stroke-dashoffset: 0.000000; opacity: 1.000000" clip-path="url(#p50431ccdcb28178602d99d9270004dde)" d="M72.000000 388.800000L72.000000 43.200000"/>
</g>
<g id="line2d3">
<defs><path id="m30e32995789d870ad79a2e54c91cf9c6" d="M0.000000 0.000000L0.000000 -4.000000"/></defs>
<g ><use style="fill: none; stroke: #000000; stroke-width: 0.500000; stroke-linejoin: round; stroke-linecap: butt;  opacity: 1.000000" xlink:href="#m30e32995789d870ad79a2e54c91cf9c6" x="72.000000" y="388.800000"/>
</g></g>
<g id="line2d4">
<defs><path id="m9281cae24120827b11d5ea8a7ad3e96b" d="M0.000000 0.000000L0.000000 4.000000"/></defs>
<g ><use style="fill: none; stroke: #000000; stroke-width: 0.500000; stroke-linejoin: round; stroke-linecap: butt;  opacity: 1.000000" xlink:href="#m9281cae24120827b11d5ea8a7ad3e96b" x="72.000000" y="43.200000"/>
</g></g>
<g id="text1">
<defs>
<path id="c_7a2040fe3b94fcd41d0a72c84e93b115" d="M31.781250 -66.406250q-7.609375 0.000000 -11.453125 7.500000q-3.828125 7.484375 -3.828125 22.531250q0.000000 14.984375 3.828125 22.484375q3.843750 7.500000 11.453125 7.500000q7.671875 0.000000 11.500000 -7.500000q3.843750 -7.500000 3.843750 -22.484375q0.000000 -15.046875 -3.843750 -22.531250q-3.828125 -7.500000 -11.500000 -7.500000M31.781250 -74.218750q12.265625 0.000000 18.734375 9.703125q6.468750 9.687500 6.468750 28.140625q0.000000 18.406250 -6.468750 28.109375q-6.468750 9.687500 -18.734375 9.687500q-12.250000 0.000000 -18.718750 -9.687500q-6.468750 -9.703125 -6.468750 -28.109375q0.000000 -18.453125 6.468750 -28.140625q6.468750 -9.703125 18.718750 -9.703125"/>
</defs>
<g style="fill: #000000; opacity: 1.000000" transform="translate(68.976562,401.706250)scale(0.120000)">
<use xlink:href="#c_7a2040fe3b94fcd41d0a72c84e93b115"/>
</g>
</g>
</g>
<g id="xtick2">
<g id="line2d5">
<path style="fill: none; stroke: #000000; stroke-width: 0.500000; stroke-linejoin: round; stroke-linecap: butt; stroke-dasharray: 1.000000,3.000000; stroke-dashoffset: 0.000000; opacity: 1.000000" clip-path="url(#p50431ccdcb28178602d99d9270004dde)" d="M161.280000 388.800000L161.280000 43.200000"/>
</g>
<g id="line2d6">
<g ><use style="fill: none; stroke: #000000; stroke-width: 0.500000; stroke-linejoin: round; stroke-linecap: butt;  opacity: 1.000000" xlink:href="#m30e32995789d870ad79a2e54c91cf9c6" x="161.280000" y="388.800000"/>
</g></g>
<g id="line2d7">
<g ><use style="fill: none; stroke: #000000; stroke-width: 0.500000; stroke-linejoin: round; stroke-linecap: butt;  opacity: 1.000000" xlink:href="#m9281cae24120827b11d5ea8a7ad3e96b" x="161.280000" y="43.200000"/>
</g></g>
<g id="text2">
<defs>
<path id="c_ed3f3ed3ebfbd18bcb9c012009a68ad1" d="M19.187500 -8.296875l34.421875 0.000000l0.000000 8.296875l-46.281250 0.000000l0.000000 -8.296875q5.609375 -5.812500 15.296875 -15.593750q9.703125 -9.796875 12.187500 -12.640625q4.734375 -5.312500 6.609375 -9.000000q1.890625 -3.687500 1.890625 -7.250000q0.000000 -5.812500 -4.078125 -9.468750q-4.078125 -3.671875 -10.625000 -3.671875q-4.640625 0.000000 -9.796875 1.609375q-5.140625 1.609375 -11.000000 4.890625l0.000000 -9.968750q5.953125 -2.390625 11.125000 -3.609375q5.187500 -1.218750 9.484375 -1.218750q11.328125 0.000000 18.062500 5.671875q6.734375 5.656250 6.734375 15.125000q0.000000 4.500000 -1.687500 8.531250q-1.671875 4.015625 -6.125000 9.484375q-1.218750 1.421875 -7.765625 8.187500q-6.531250 6.765625 -18.453125 18.921875"/>
</defs>
<g style="fill: #000000; opacity: 1.000000" transform="translate(150.655000,401.706250)scale(0.120000)">
<use xlink:href="#c_ed3f3ed3ebfbd18bcb9c012009a68ad1"/>
<use xlink:href="#c_7a2040fe3b94fcd41d0a72c84e93b115" x="63.623047"/>
<use xlink:href="#c_7a2040fe3b94fcd41d0a72c84e93b115" x="127.246094"/>
</g>
</g>
</g>
<g id="xtick3">
<g id="line2d8">
<path style="fill: none; stroke: #000000; stroke-width: 0.500000; stroke-linejoin: round; stroke-linecap: butt; stroke-dasharray: 1.000000,3.000000; stroke-dashoffset: 0.000000; opacity: 1.000000" clip-path="url(#p50431ccdcb28178602d99d9270004dde)" d="M250.560000 388.800000L250.560000 43.200000"/>
</g>
<g id="line2d9">
<g ><use style="fill: none; stroke: #000000; stroke-width: 0.500000; stroke-linejoin: round; stroke-linecap: butt;  opacity: 1.000000" xlink:href="#m30e32995789d870ad79a2e54c91cf9c6" x="250.560000" y="388.800000"/>
</g></g>
<g id="line2d10">
<g ><use style="fill: none; stroke: #000000; stroke-width: 0.500000; stroke-linejoin: round; stroke-linecap: butt;  opacity: 1.000000" xlink:href="#m9281cae24120827b11d5ea8a7ad3e96b" x="250.560000" y="43.200000"/>
</g></g>
<g id="text3">
<defs>
<path id="c_a0416418d96557a09b8c1332d34883ba" d="M37.796875 -64.312500l-24.906250 38.921875l24.906250 0.000000zM35.203125 -72.906250l12.406250 0.000000l0.000000 47.515625l10.406250 0.000000l0.000000 8.203125l-10.406250 0.000000l0.000000 17.187500l-9.812500 0.000000l0.000000 -17.187500l-32.906250 0.000000l0.000000 -9.515625z"/>
</defs>
<g style="fill: #000000; opacity: 1.000000" transform="translate(239.794375,401.706250)scale(0.120000)">
<use xlink:href="#c_a0416418d96557a09b8c1332d34883ba"/>
<use xlink:href="#c_7a2040fe3b94fcd41d0a72c84e93b115" x="63.623047"/>
<use xlink:href="#c_7a2040fe3b94fcd41d0a72c84e93b115" x="127.246094"/>
</g>
</g>
</g>
<g id="xtick4">
<g id="line2d11">
<path style="fill: none; stroke: #000000; stroke-width: 0.500000; stroke-linejoin: round; stroke-linecap: butt; stroke-dasharray: 1.000000,3.000000; stroke-dashoffset: 0.000000; opacity: 1.000000" clip-path="url(#p50431ccdcb28178602d99d9270004dde)" d="M339.840000 388.800000L339.840000 43.200000"/>
</g>
<g id="line2d12">
<g ><use style="fill: none; stroke: #000000; stroke-width: 0.500000; stroke-linejoin: round; stroke-linecap: butt;  opacity: 1.000000" xlink:href="#m30e32995789d870ad79a2e54c91cf9c6" x="339.840000" y="388.800000"/>
</g></g>
<g id="line2d13">
<g ><use style="fill: none; stroke: #000000; stroke-width: 0.500000; stroke-linejoin: round; stroke-linecap: butt;  opacity: 1.000000" xlink:href="#m9281cae24120827b11d5ea8a7ad3e96b" x="339.840000" y="43.200000"/>
</g></g>
<g id="text4">
<defs>
<path id="c_cc8d6d580d1b10c8632f7a42cd53db8a" d="M33.015625 -40.375000q-6.640625 0.000000 -10.531250 4.546875q-3.875000 4.531250 -3.875000 12.437500q0.000000 7.859375 3.875000 12.437500q3.890625 4.562500 10.531250 4.562500q6.640625 0.000000 10.515625 -4.562500q3.875000 -4.578125 3.875000 -12.437500q0.000000 -7.906250 -3.875000 -12.437500q-3.875000 -4.546875 -10.515625 -4.546875M52.593750 -71.296875l0.000000 8.984375q-3.718750 -1.750000 -7.500000 -2.671875q-3.781250 -0.937500 -7.500000 -0.937500q-9.765625 0.000000 -14.921875 6.593750q-5.140625 6.593750 -5.875000 19.921875q2.875000 -4.250000 7.218750 -6.515625q4.359375 -2.265625 9.578125 -2.265625q10.984375 0.000000 17.359375 6.671875q6.375000 6.656250 6.375000 18.125000q0.000000 11.234375 -6.640625 18.031250q-6.640625 6.781250 -17.671875 6.781250q-12.656250 0.000000 -19.343750 -9.687500q-6.687500 -9.703125 -6.687500 -28.109375q0.000000 -17.281250 8.203125 -27.562500q8.203125 -10.281250 22.015625 -10.281250q3.718750 0.000000 7.500000 0.734375q3.781250 0.734375 7.890625 2.187500"/>
</defs>
<g style="fill: #000000; opacity: 1.000000" transform="translate(329.199375,401.706250)scale(0.120000)">
<use xlink:href="#c_cc8d6d580d1b10c8632f7a42cd53db8a"/>
<use xlink:href="#c_7a2040fe3b94fcd41d0a72c84e93b115" x="63.623047"/>
<use xlink:href="#c_7a2040fe3b94fcd41d0a72c84e93b115" x="127.246094"/>
</g>
</g>
</g>
<g id="xtick5">
<g id="line2d14">
<path style="fill: none; stroke: #000000; stroke-width: 0.500000; stroke-linejoin: round; stroke-linecap: butt; stroke-dasharray: 1.000000,3.000000; stroke-dashoffset: 0.000000; opacity: 1.000000" clip-path="url(#p50431ccdcb28178602d99d9270004dde)" d="M429.120000 388.800000L429.120000 43.200000"/>
</g>
<g id="line2d15">
<g ><use style="fill: none; stroke: #000000; stroke-width: 0.500000; stroke-linejoin: round; stroke-linecap: butt;  opacity: 1.000000" xlink:href="#m30e32995789d870ad79a2e54c91cf9c6" x="429.120000" y="388.800000"/>
</g></g>
<g id="line2d16">
<g ><use style="fill: none; stroke: #000000; stroke-width: 0.500000; stroke-linejoin: round; stroke-linecap: butt;  opacity: 1.000000" xlink:href="#m9281cae24120827b11d5ea8a7ad3e96b" x="429.120000" y="43.200000"/>
</g></g>
<g id="text5">
<defs>
<path id="c_bef35738d52871942e50b9de9b122bab" d="M31.781250 -34.625000q-7.031250 0.000000 -11.062500 3.765625q-4.015625 3.765625 -4.015625 10.343750q0.000000 6.593750 4.015625 10.359375q4.031250 3.765625 11.062500 3.765625q7.031250 0.000000 11.078125 -3.781250q4.062500 -3.796875 4.062500 -10.343750q0.000000 -6.578125 -4.031250 -10.343750q-4.015625 -3.765625 -11.109375 -3.765625M21.921875 -38.812500q-6.343750 -1.562500 -9.890625 -5.906250q-3.531250 -4.359375 -3.531250 -10.609375q0.000000 -8.734375 6.218750 -13.812500q6.234375 -5.078125 17.062500 -5.078125q10.890625 0.000000 17.093750 5.078125q6.203125 5.078125 6.203125 13.812500q0.000000 6.250000 -3.546875 10.609375q-3.531250 4.343750 -9.828125 5.906250q7.125000 1.656250 11.093750 6.500000q3.984375 4.828125 3.984375 11.796875q0.000000 10.609375 -6.468750 16.281250q-6.468750 5.656250 -18.531250 5.656250q-12.046875 0.000000 -18.531250 -5.656250q-6.468750 -5.671875 -6.468750 -16.281250q0.000000 -6.968750 4.000000 -11.796875q4.015625 -4.843750 11.140625 -6.500000M18.312500 -54.390625q0.000000 5.656250 3.531250 8.828125q3.546875 3.171875 9.937500 3.171875q6.359375 0.000000 9.937500 -3.171875q3.593750 -3.171875 3.593750 -8.828125q0.000000 -5.671875 -3.593750 -8.843750q-3.578125 -3.171875 -9.937500 -3.171875q-6.390625 0.000000 -9.937500 3.171875q-3.531250 3.171875 -3.531250 8.843750"/>
</defs>
<g style="fill: #000000; opacity: 1.000000" transform="translate(418.463750,401.706250)scale(0.120000)">
<use xlink:href="#c_bef35738d52871942e50b9de9b122bab"/>
<use xlink:href="#c_7a2040fe3b94fcd41d0a72c84e93b115" x="63.623047"/>
<use xlink:href="#c_7a2040fe3b94fcd41d0a72c84e93b115" x="127.246094"/>
</g>
</g>
</g>
<g id="xtick6">
<g id="line2d17">
<path style="fill: none; stroke: #000000; stroke-width: 0.500000; stroke-linejoin: round; stroke-linecap: butt; stroke-dasharray: 1.000000,3.000000; stroke-dashoffset: 0.000000; opacity: 1.000000" clip-path="url(#p50431ccdcb28178602d99d9270004dde)" d="M518.400000 388.800000L518.400000 43.200000"/>
</g>
<g id="line2d18">
<g ><use style="fill: none; stroke: #000000; stroke-width: 0.500000; stroke-linejoin: round; stroke-linecap: butt;  opacity: 1.000000" xlink:href="#m30e32995789d870ad79a2e54c91cf9c6" x="518.400000" y="388.800000"/>
</g></g>
<g id="line2d19">
<g ><use style="fill: none; stroke: #000000; stroke-width: 0.500000; stroke-linejoin: round; stroke-linecap: butt;  opacity: 1.000000" xlink:href="#m9281cae24120827b11d5ea8a7ad3e96b" x="518.400000" y="43.200000"/>
</g></g>
<g id="text6">
<defs>
<path id="c_42baa63129a918535c52adb20d687ea7" d="M12.406250 -8.296875l16.109375 0.000000l0.000000 -55.625000l-17.531250 3.515625l0.000000 -8.984375l17.437500 -3.515625l9.859375 0.000000l0.000000 64.609375l16.109375 0.000000l0.000000 8.296875l-41.984375 0.000000z"/>
</defs>
<g style="fill: #000000; opacity: 1.000000" transform="translate(504.173437,401.706250)scale(0.120000)">
<use xlink:href="#c_42baa63129a918535c52adb20d687ea7"/>
<use xlink:href="#c_7a2040fe3b94fcd41d0a72c84e93b115" x="63.623047"/>
<use xlink:href="#c_7a2040fe3b94fcd41d0a72c84e93b115" x="127.246094"/>
<use xlink:href="#c_7a2040fe3b94fcd41d0a72c84e93b115" x="190.869141"/>
</g>
</g>
</g>
</g>
<g id="matplotlib.axis2">
<g id="ytick1">
<g id="line2d20">
<path style="fill: none; stroke: #000000; stroke-width: 0.500000; stroke-linejoin: round; stroke-linecap: butt; stroke-dasharray: 1.000000,3.000000; stroke-dashoffset: 0.000000; opacity: 1.000000" clip-path="url(#p50431ccdcb28178602d99d9270004dde)" d="M72.000000 388.800000L518.400000 388.800000"/>
</g>
<g id="line2d21">
<defs><path id="m3400efa6b1638b3fea9e19e898273957" d="M0.000000 0.000000L4.000000 0.000000"/></defs>
<g ><use style="fill: none; stroke: #000000; stroke-width: 0.500000; stroke-linejoin: round; stroke-linecap: butt;  opacity: 1.000000" xlink:href="#m3400efa6b1638b3fea9e19e898273957" x="72.000000" y="388.800000"/>
</g></g>
<g id="line2d22">
<defs><path id="m20b58b2501143cb5e0a5e8f1ef6f1643" d="M0.000000 0.000000L-4.000000 0.000000"/></defs>
<g ><use style="fill: none; stroke: #000000; stroke-width: 0.500000; stroke-linejoin: round; stroke-linecap: butt;  opacity: 1.000000" xlink:href="#m20b58b2501143cb5e0a5e8f1ef6f1643" x="518.400000" y="388.800000"/>
</g></g>
<g id="text7">
<g style="fill: #000000; opacity: 1.000000" transform="translate(61.968750,393.167188)scale(0.120000)">
<use xlink:href="#c_cc8d6d580d1b10c8632f7a42cd53db8a"/>
</g>
</g>
</g>
<g id="ytick2">
<g id="line2d23">
<path style="fill: none; stroke: #000000; stroke-width: 0.500000; stroke-linejoin: round; stroke-linecap: butt; stroke-dasharray: 1.000000,3.000000; stroke-dashoffset: 0.000000; opacity: 1.000000" clip-path="url(#p50431ccdcb28178602d99d9270004dde)" d="M72.000000 331.200000L518.400000 331.200000"/>
</g>
<g id="line2d24">
<g ><use style="fill: none; stroke: #000000; stroke-width: 0.500000; stroke-linejoin: round; stroke-linecap: butt;  opacity: 1.000000" xlink:href="#m3400efa6b1638b3fea9e19e898273957" x="72.000000" y="331.200000"/>
</g></g>
<g id="line2d25">
<g ><use style="fill: none; stroke: #000000; stroke-width: 0.500000; stroke-linejoin: round; stroke-linecap: butt;  opacity: 1.000000" xlink:href="#m20b58b2501143cb5e0a5e8f1ef6f1643" x="518.400000" y="331.200000"/>
</g></g>
<g id="text8">
<g style="fill: #000000; opacity: 1.000000" transform="translate(62.000000,335.567188)scale(0.120000)">
<use xlink:href="#c_bef35738d52871942e50b9de9b122bab"/>
</g>
</g>
</g>
<g id="ytick3">
<g id="line2d26">
<path style="fill: none; stroke: #000000; stroke-width: 0.500000; stroke-linejoin: round; stroke-linecap: butt; stroke-dasharray: 1.000000,3.000000; stroke-dashoffset: 0.000000; opacity: 1.000000" clip-path="url(#p50431ccdcb28178602d99d9270004dde)" d="M72.000000 273.600000L518.400000 273.600000"/>
</g>
<g id="line2d27">
<g ><use style="fill: none; stroke: #000000; stroke-width: 0.500000; stroke-linejoin: round; stroke-linecap: butt;  opacity: 1.000000" xlink:href="#m3400efa6b1638b3fea9e19e898273957" x="72.000000" y="273.600000"/>
</g></g>
<g id="line2d28">
<g ><use style="fill: none; stroke: #000000; stroke-width: 0.500000; stroke-linejoin: round; stroke-linecap: butt;  opacity: 1.000000" xlink:href="#m20b58b2501143cb5e0a5e8f1ef6f1643" x="518.400000" y="273.600000"/>
</g></g>
<g id="text9">
<g style="fill: #000000; opacity: 1.000000" transform="translate(54.828125,277.967188)scale(0.120000)">
<use xlink:href="#c_42baa63129a918535c52adb20d687ea7"/>
<use xlink:href="#c_7a2040fe3b94fcd41d0a72c84e93b115" x="63.623047"/>
</g>
</g>
</g>
<g id="ytick4">
<g id="line2d29">
<path style="fill: none; stroke: #000000; stroke-width: 0.500000; stroke-linejoin: round; stroke-linecap: butt; stroke-dasharray: 1.000000,3.000000; stroke-dashoffset: 0.000000; opacity: 1.000000" clip-path="url(#p50431ccdcb28178602d99d9270004dde)" d="M72.000000 216.000000L518.400000 216.000000"/>
</g>
<g id="line2d30">
<g ><use style="fill: none; stroke: #000000; stroke-width: 0.500000; stroke-linejoin: round; stroke-linecap: butt;  opacity: 1.000000" xlink:href="#m3400efa6b1638b3fea9e19e898273957" x="72.000000" y="216.000000"/>
</g></g>
<g id="line2d31">
<g ><use style="fill: none; stroke: #000000; stroke-width: 0.500000; stroke-linejoin: round; stroke-linecap: butt;  opacity: 1.000000" xlink:href="#m20b58b2501143cb5e0a5e8f1ef6f1643" x="518.400000" y="216.000000"/>
</g></g>
<g id="text10">
<g style="fill: #000000; opacity: 1.000000" transform="translate(55.234375,220.453125)scale(0.120000)">
<use xlink:href="#c_42baa63129a918535c52adb20d687ea7"/>
<use xlink:href="#c_ed3f3ed3ebfbd18bcb9c012009a68ad1" x="63.623047"/>
</g>
</g>
</g>
<g id="ytick5">
<g id="line2d32">
<path style="fill: none; stroke: #000000; stroke-width: 0.500000; stroke-linejoin: round; stroke-linecap: butt; stroke-dasharray: 1.000000,3.000000; stroke-dashoffset: 0.000000; opacity: 1.000000" clip-path="url(#p50431ccdcb28178602d99d9270004dde)" d="M72.000000 158.400000L518.400000 158.400000"/>
</g>
<g id="line2d33">
<g ><use style="fill: none; stroke: #000000; stroke-width: 0.500000; stroke-linejoin: round; stroke-linecap: butt;  opacity: 1.000000" xlink:href="#m3400efa6b1638b3fea9e19e898273957" x="72.000000" y="158.400000"/>
</g></g>
<g id="line2d34">
<g ><use style="fill: none; stroke: #000000; stroke-width: 0.500000; stroke-linejoin: round; stroke-linecap: butt;  opacity: 1.000000" xlink:href="#m20b58b2501143cb5e0a5e8f1ef6f1643" x="518.400000" y="158.400000"/>
</g></g>
<g id="text11">
<g style="fill: #000000; opacity: 1.000000" transform="translate(54.703125,162.775000)scale(0.120000)">
<use xlink:href="#c_42baa63129a918535c52adb20d687ea7"/>
<use xlink:href="#c_a0416418d96557a09b8c1332d34883ba" x="63.623047"/>
</g>
</g>
</g>
<g id="ytick6">
<g id="line2d35">
<path style="fill: none; stroke: #000000; stroke-width: 0.500000; stroke-linejoin: round; stroke-linecap: butt; stroke-dasharray: 1.000000,3.000000; stroke-dashoffset: 0.000000; opacity: 1.000000" clip-path="url(#p50431ccdcb28178602d99d9270004dde)" d="M72.000000 100.800000L518.400000 100.800000"/>
</g>
<g id="line2d36">
<g ><use style="fill: none; stroke: #000000; stroke-width: 0.500000; stroke-linejoin: round; stroke-linecap: butt;  opacity: 1.000000" xlink:href="#m3400efa6b1638b3fea9e19e898273957" x="72.000000" y="100.800000"/>
</g></g>
<g id="line2d37">
<g ><use style="fill: none; stroke: #000000; stroke-width: 0.500000; stroke-linejoin: round; stroke-linecap: butt;  opacity: 1.000000" xlink:href="#m20b58b2501143cb5e0a5e8f1ef6f1643" x="518.400000" y="100.800000"/>
</g></g>
<g id="text12">
<g style="fill: #000000; opacity: 1.000000" transform="translate(54.796875,105.167188)scale(0.120000)">
<use xlink:href="#c_42baa63129a918535c52adb20d687ea7"/>
<use xlink:href="#c_cc8d6d580d1b10c8632f7a42cd53db8a" x="63.623047"/>
</g>
</g>
</g>
<g id="ytick7">
<g id="line2d38">
<path style="fill: none; stroke: #000000; stroke-width: 0.500000; stroke-linejoin: round; stroke-linecap: butt; stroke-dasharray: 1.000000,3.000000; stroke-dashoffset: 0.000000; opacity: 1.000000" clip-path="url(#p50431ccdcb28178602d99d9270004dde)" d="M72.000000 43.200000L518.400000 43.200000"/>
</g>
<g id="line2d39">
<g ><use style="fill: none; stroke: #000000; stroke-width: 0.500000; stroke-linejoin: round; stroke-linecap: butt;  opacity: 1.000000" xlink:href="#m3400efa6b1638b3fea9e19e898273957" x="72.000000" y="43.200000"/>
</g></g>
<g id="line2d40">
<g ><use style="fill: none; stroke: #000000; stroke-width: 0.500000; stroke-linejoin: round; stroke-linecap: butt;  opacity: 1.000000" xlink:href="#m20b58b2501143cb5e0a5e8f1ef6f1643" x="518.400000" y="43.200000"/>
</g></g>
<g id="text13">
<g style="fill: #000000; opacity: 1.000000" transform="translate(54.859375,47.567188)scale(0.120000)">
<use xlink:href="#c_42baa63129a918535c52adb20d687ea7"/>
<use xlink:href="#c_bef35738d52871942e50b9de9b122bab" x="63.623047"/>
</g>
</g>
</g>
</g>
<g id="patch3">
<path style="fill: none; stroke: #000000; stroke-width: 1.000000; stroke-linejoin: round; stroke-linecap: square;  opacity: 1.000000"  d="M72.000000 43.200000L518.400000 43.200000"/>
</g>
<g id="patch4">
<path style="fill: none; stroke: #000000; stroke-width: 1.000000; stroke-linejoin: round; stroke-linecap: square;  opacity: 1.000000"  d="M518.400000 388.800000L518.400000 43.200000"/>
</g>
<g id="patch5">
<path style="fill: none; stroke: #000000; stroke-width: 1.000000; stroke-linejoin: round; stroke-linecap: square;  opacity: 1.000000"  d="M72.000000 388.800000L518.400000 388.800000"/>
</g>
<g id="patch6">
<path style="fill: none; stroke: #000000; stroke-width: 1.000000; stroke-linejoin: round; stroke-linecap: square;  opacity: 1.000000"  d="M72.000000 388.800000L72.000000 43.200000"/>
</g>
</g>
</g>
</svg>
