<?xml version="1.0" standalone="no"?>
<!DOCTYPE svg PUBLIC "-//W3C//DTD SVG 1.1//EN"
  "http://www.w3.org/Graphics/SVG/1.1/DTD/svg11.dtd">
<!-- Created with matplotlib (http://matplotlib.sourceforge.net/) -->
<svg width="576pt" height="432pt" viewBox="0 0 576 432"
   xmlns="http://www.w3.org/2000/svg"
   xmlns:xlink="http://www.w3.org/1999/xlink"
   version="1.1"
   id="svg1">
<g id="figure1">
<g id="patch1">
<path style="fill: #ffffff; stroke: #ffffff; stroke-width: 1.000000; stroke-linejoin: round; stroke-linecap: square;  opacity: 1.000000"  d="M0.000000 432.000000L576.000000 432.000000L576.000000 0.000000
L0.000000 0.000000L0.000000 432.000000"/>
</g>
<g id="axes1">
<g id="patch2">
<path style="fill: #ffffff; opacity: 1.000000"  d="M72.000000 388.800000L518.400000 388.800000L518.400000 43.200000
L72.000000 43.200000L72.000000 388.800000"/>
</g>
<g id="line2d1">
<defs>
  <clipPath id="p50431ccdcb28178602d99d9270004dde">
<rect x="72.000000" y="43.200000" width="446.400000" height="345.600000"/>
  </clipPath>
</defs><path style="fill: none; stroke: #ff0000; stroke-width: 1.000000; stroke-linejoin: round; stroke-linecap: square;  opacity: 1.000000" clip-path="url(#p50431ccdcb28178602d99d9270004dde)" d="M72.000000 248.993129L72.446400 119.019338L72.892800 65.430749
L73.339200 183.292169L73.785600 128.687750L74.232000 148.973629
L74.678400 125.906133L75.124800 161.447568L76.017600 146.157807
L76.464000 248.778060L76.910400 240.978235L77.356800 122.922633
L77.803200 271.093753L78.249600 239.768095L78.696000 105.123016
L79.142400 272.967443L79.588800 113.702969L80.035200 239.841151
L80.481600 235.384762L80.928000 237.736224L81.374400 154.982712
L81.820800 145.514723L82.267200 149.383313L82.713600 240.287098
L83.160000 152.235235L83.606400 238.045316L84.052800 148.011724
L84.499200 150.221975L84.945600 237.553218L85.838400 213.763218
L86.284800 258.993882L86.731200 238.131861L87.177600 233.784633
L87.624000 246.662797L88.516800 240.529979L89.409600 242.759863
L89.856000 197.412360L90.302400 287.632000L90.748800 148.841074
L91.195200 242.109622L92.088000 238.864256L92.534400 242.511898
L92.980800 238.365714L93.427200 246.862394L94.320000 236.026537
L94.766400 247.665205L95.659200 238.268471L96.105600 243.454888
L97.444800 238.376947L97.891200 243.715243L98.337600 242.597139
L98.784000 240.443242L99.230400 149.180312L99.676800 237.440279
L100.123200 245.444353L100.569600 154.560259L101.016000 238.026267
L101.462400 239.900771L101.908800 197.458584L102.355200 277.599141
L102.801600 241.403971L103.694400 245.337489L104.140800 241.335576
L104.587200 148.364913L105.033600 238.508364L105.480000 245.592580
L105.926400 239.297370L106.372800 245.176990L106.819200 244.161687
L107.265600 122.429705L107.712000 255.738169L108.604800 237.137980
L109.051200 243.420841L109.944000 233.752615L110.390400 254.602522
L110.836800 240.947205L111.283200 206.727575L111.729600 277.313855
L112.176000 151.431374L112.622400 192.418173L113.068800 344.020919
L113.515200 206.966661L113.961600 239.069480L114.408000 236.725407
L115.300800 242.380582L115.747200 237.109933L116.193600 243.902742
L116.640000 240.627037L117.086400 233.558430L117.532800 250.419477
L117.979200 240.515521L118.425600 220.707853L118.872000 268.596789
L119.764800 201.178709L120.211200 272.260424L120.657600 241.698836
L121.104000 239.856393L121.550400 233.956779L121.996800 246.056383
L122.443200 244.199148L122.889600 229.594726L123.336000 251.815403
L124.228800 234.687494L124.675200 248.682124L125.121600 238.686104
L125.568000 217.264220L126.014400 268.655670L126.460800 239.301598
L126.907200 237.188427L127.353600 244.222760L127.800000 228.239035
L128.692800 241.746189L129.139200 214.341067L129.585600 259.692940
L130.478400 233.947059L130.924800 243.631060L131.371200 241.397235
L131.817600 210.275084L132.264000 274.346707L133.156800 198.212629
L133.603200 284.708792L134.049600 244.432590L134.496000 238.463420
L134.942400 242.651910L136.281600 231.610239L136.728000 247.819498
L137.174400 238.509010L138.067200 240.394182L138.513600 243.649217
L138.960000 209.453924L139.406400 273.465848L140.299200 198.451540
L140.745600 281.091569L141.192000 240.055345L142.084800 245.131194
L142.977600 229.635268L143.424000 239.577981L144.316800 238.121484
L144.763200 247.372966L145.209600 243.991814L145.656000 228.697969
L146.102400 253.380027L146.995200 233.374898L147.441600 245.884121
L147.888000 241.817093L148.334400 193.768983L148.780800 289.951598
L149.227200 239.780192L149.673600 242.222945L150.120000 240.746073
L150.566400 228.166039L151.012800 239.012640L151.459200 237.300398
L151.905600 220.673437L152.352000 261.731048L152.798400 240.859266
L153.691200 242.988184L154.584000 206.597651L155.030400 273.449137
L155.923200 200.655399L156.369600 283.283034L156.816000 236.869285
L157.262400 244.276844L158.155200 228.435674L158.601600 237.697338
L159.048000 239.704151L159.940800 242.108190L160.833600 236.969593
L161.280000 248.384651L161.726400 242.355630L162.172800 205.049237
L162.619200 273.569696L163.065600 244.429870L163.512000 193.287948
L163.958400 284.203368L164.404800 240.493960L164.851200 253.929260
L165.744000 224.565996L166.636800 242.436674L167.083200 238.841706
L167.529600 245.546203L168.422400 236.830058L168.868800 248.979911
L169.315200 239.279033L169.761600 202.738917L170.208000 278.191094
L171.100800 193.078347L171.547200 284.953616L171.993600 243.899302
L172.440000 240.022811L172.886400 241.968988L173.332800 229.667383
L174.225600 244.442094L174.672000 214.566943L175.118400 258.895883
L176.011200 231.453975L176.457600 254.391975L176.904000 242.424757
L177.350400 206.779999L177.796800 276.378216L178.689600 193.473178
L179.136000 286.740972L179.582400 243.861491L180.028800 242.112980
L180.475200 238.954841L180.921600 220.987734L181.368000 242.700271
L181.814400 235.146614L182.260800 244.105770L182.707200 240.826894
L183.153600 243.620078L183.600000 238.761575L184.939200 244.399183
L185.385600 239.232347L186.278400 240.838827L186.724800 246.484845
L187.171200 237.983082L188.510400 235.654250L189.403200 242.463142
L190.296000 237.583201L190.742400 242.018834L191.188800 230.112654
L191.635200 250.852513L192.081600 237.529611L192.974400 241.955960
L193.420800 239.214560L194.313600 244.921572L194.760000 240.072356
L195.206400 241.525240L195.652800 237.640666L196.099200 240.046909
L197.438400 213.253227L197.884800 256.161089L198.331200 244.315616
L198.777600 241.650277L199.224000 244.081060L199.670400 239.176863
L200.116800 211.794123L200.563200 276.707584L201.456000 194.300536
L201.902400 286.023634L202.348800 240.533416L203.688000 234.409506
L204.134400 243.029553L205.027200 235.704411L205.473600 242.762343
L205.920000 243.921659L206.366400 226.531764L206.812800 252.190263
L207.259200 239.471791L207.705600 209.236417L208.152000 273.855668
L209.044800 197.966202L209.491200 283.364104L209.937600 241.527369
L210.384000 236.528540L210.830400 241.538929L211.276800 232.021306
L211.723200 241.910419L212.616000 236.605562L213.062400 246.605131
L213.508800 240.848064L214.401600 239.002745L214.848000 243.938917
L215.294400 211.370815L215.740800 273.118829L216.633600 194.666107
L217.080000 288.382345L217.526400 238.943802L218.419200 245.560601
L218.865600 230.497667L219.758400 241.471787L220.204800 214.445905
L220.651200 262.103130L221.544000 235.147718L222.436800 245.222123
L222.883200 233.646841L223.329600 246.467550L223.776000 236.512333
L224.222400 244.477954L224.668800 239.911282L225.561600 194.739339
L226.008000 291.589505L226.454400 229.207811L226.900800 239.389003
L227.347200 235.606263L227.793600 248.042049L228.686400 235.228116
L229.132800 246.742792L229.579200 243.078918L230.025600 204.935748
L230.472000 272.083003L230.918400 244.595382L231.364800 195.562911
L231.811200 282.063762L232.257600 232.210343L232.704000 240.909629
L233.150400 239.329617L233.596800 230.099272L234.489600 235.950738
L234.936000 233.790182L235.382400 235.527882L235.828800 241.133330
L236.275200 237.878982L236.721600 225.819476L237.168000 254.646882
L237.614400 236.741170L238.060800 203.070680L238.507200 271.961118
L238.953600 242.171078L239.400000 186.151139L239.846400 282.315944
L240.292800 240.409291L240.739200 238.787104L241.185600 223.262281
L242.078400 241.621704L242.524800 232.978927L242.971200 239.886010
L243.417600 240.895112L243.864000 193.116025L244.310400 275.739292
L245.203200 204.348529L245.649600 275.921826L246.542400 188.215705
L246.988800 284.720663L247.435200 240.693181L248.328000 235.429300
L248.774400 343.601673L249.220800 237.515691L249.667200 224.822281
L250.113600 249.362871L250.560000 241.987543L251.006400 211.722268
L251.452800 260.269410L252.345600 209.389094L252.792000 265.550122
L253.684800 198.761308L254.131200 278.988826L254.577600 238.362607
L255.470400 229.966926L255.916800 238.278627L256.363200 232.941957
L257.256000 245.177742L257.702400 237.395852L258.148800 222.108428
L258.595200 253.379170L259.488000 230.499902L260.380800 242.481869
L260.827200 191.983212L261.273600 277.192091L261.720000 237.254008
L262.166400 240.937104L262.612800 237.426254L263.059200 221.409184
L263.952000 237.658251L264.844800 240.663462L265.737600 227.488182
L266.184000 251.132367L266.630400 240.573878L267.076800 167.148915
L267.523200 248.030944L268.416000 235.991064L268.862400 234.242678
L269.308800 239.844526L270.201600 232.971758L270.648000 239.098171
L271.094400 240.418027L271.987200 233.520921L272.433600 240.911470
L272.880000 235.867547L273.772800 233.346544L274.219200 241.215497
L274.665600 237.477933L275.558400 154.842650L276.004800 283.467303
L276.451200 236.891176L277.344000 232.397490L278.236800 239.191009
L278.683200 211.091994L279.129600 258.746782L279.576000 236.884262
L280.468800 238.634283L281.361600 237.348239L281.808000 235.408523
L282.254400 238.805376L283.593600 233.647948L284.040000 242.031111
L284.486400 224.759376L285.379200 240.744427L285.825600 237.127737
L287.164800 196.271532L287.611200 275.534403L288.057600 234.887496
L288.950400 241.386951L289.396800 232.263775L290.289600 239.067146
L291.628800 234.003698L292.075200 237.418257L292.968000 206.601896
L293.414400 257.726689L293.860800 240.368637L294.307200 187.832563
L294.753600 275.694801L295.646400 208.568784L296.092800 271.104310
L296.985600 194.549990L297.432000 285.496113L297.878400 236.639484
L298.324800 234.723629L299.217600 343.248988L299.664000 236.075607
L300.110400 221.486169L300.556800 253.817583L301.449600 216.354760
L301.896000 256.235796L302.342400 239.144557L302.788800 208.395286
L303.235200 264.619054L304.128000 203.537014L304.574400 275.493439
L305.020800 235.628462L305.467200 240.069169L305.913600 233.243120
L306.806400 237.950707L307.252800 215.042806L307.699200 254.302248
L308.592000 223.602549L309.038400 252.401737L309.931200 225.844667
L310.377600 246.201311L310.824000 234.566524L311.270400 190.514367
L311.716800 284.622900L312.163200 241.213806L312.609600 236.883105
L313.056000 235.857550L313.502400 238.801706L314.395200 234.581488
L315.288000 240.939625L315.734400 221.968752L316.180800 249.372530
L317.073600 231.636014L317.520000 243.533329L317.966400 232.408309
L318.412800 151.215571L318.859200 286.299014L319.305600 238.653667
L320.198400 232.764212L321.091200 236.111097L321.537600 212.314796
L321.984000 254.548633L322.876800 225.108116L323.323200 249.840312
L324.216000 237.339189L325.555200 239.498569L326.448000 235.115308
L326.894400 241.178258L327.340800 226.106509L328.233600 241.126368
L329.572800 234.310794L330.019200 196.694513L330.465600 276.308094
L331.358400 203.026025L331.804800 274.877726L332.697600 191.859635
L333.144000 281.606618L333.590400 241.630067L334.036800 236.810031
L334.483200 117.703826L334.929600 301.248088L335.376000 239.574723
L336.268800 234.486859L336.715200 239.539076L337.161600 236.918611
L338.500800 240.300688L339.393600 234.558685L339.840000 154.034096
L340.286400 283.957219L340.732800 237.367499L341.179200 235.615288
L341.625600 230.365875L342.518400 237.042272L342.964800 212.342430
L343.411200 257.389022L343.857600 234.090616L344.304000 189.100216
L344.750400 277.227992L345.643200 210.049618L346.089600 264.207771
L346.982400 204.336912L347.428800 273.330074L347.875200 236.047044
L348.321600 241.405730L349.214400 233.668245L350.107200 240.440628
L350.553600 233.349368L351.000000 234.680866L351.446400 194.531811
L351.892800 279.066624L352.785600 200.962980L353.232000 275.896380
L354.124800 194.627750L354.571200 278.769419L355.017600 243.017249
L356.356800 225.465307L356.803200 241.415840L357.696000 234.875030
L358.142400 239.294307L358.588800 240.331131L359.035200 236.720584
L359.928000 240.767052L360.374400 239.333817L360.820800 233.917012
L361.267200 235.448588L361.713600 241.800887L362.160000 236.997120
L362.606400 235.872209L363.945600 241.088846L364.838400 236.219726
L365.731200 240.451109L366.177600 234.126002L367.070400 238.797284
L367.516800 163.069188L367.963200 245.875917L368.409600 234.651732
L369.302400 241.755693L370.195200 234.312905L371.088000 227.934923
L371.534400 236.388976L371.980800 235.354425L373.320000 240.671276
L373.766400 239.077009L374.659200 234.498759L375.105600 241.715503
L375.552000 235.880813L375.998400 237.384618L376.444800 236.017786
L376.891200 241.413442L377.337600 235.452505L377.784000 237.134595
L379.123200 213.369120L379.569600 255.008716L380.016000 232.350656
L380.462400 240.546685L380.908800 233.137330L381.355200 237.398681
L381.801600 235.994063L382.248000 239.690062L382.694400 235.995424
L383.140800 237.062512L384.033600 240.394706L384.926400 229.491470
L385.819200 241.977525L386.265600 234.002932L386.712000 235.800432
L387.158400 240.722310L388.051200 238.384549L388.497600 234.678686
L388.944000 239.685002L389.390400 237.070489L390.283200 156.641859
L390.729600 273.232021L391.176000 238.246993L391.622400 240.203202
L392.068800 229.112808L392.515200 239.389718L392.961600 237.321343
L393.408000 209.590703L393.854400 257.126658L394.747200 235.329736
L395.640000 242.110865L396.532800 232.154682L396.979200 235.701663
L397.425600 159.103273L397.872000 273.540100L398.318400 236.889194
L399.211200 235.729432L400.104000 237.239911L400.550400 215.836307
L400.996800 253.545263L401.889600 225.684855L402.336000 250.792910
L403.228800 232.476314L404.121600 240.017350L405.014400 234.360404
L405.460800 240.125334L406.353600 234.376252L407.246400 240.581619
L408.139200 234.456968L408.585600 239.347589L409.032000 235.702876
L409.924800 234.267093L410.371200 240.614231L410.817600 234.981480
L411.264000 237.528786L412.156800 239.640917L413.049600 231.346447
L413.496000 239.054754L414.388800 234.546743L415.281600 240.747446
L415.728000 234.965467L416.174400 187.072485L416.620800 273.089126
L417.067200 239.019199L417.513600 240.772412L417.960000 235.246344
L418.852800 193.984249L419.299200 286.566261L419.745600 236.444414
L420.192000 233.527529L420.638400 239.789139L421.084800 340.574926
L421.531200 234.983116L421.977600 236.502616L422.424000 243.292606
L422.870400 236.328327L423.316800 186.860851L423.763200 277.458965
L424.656000 205.765009L425.102400 263.735762L425.548800 241.402934
L426.888000 234.773646L427.334400 240.545945L427.780800 228.862463
L429.120000 239.840401L429.566400 234.674181L430.459200 193.680980
L430.905600 277.008685L431.798400 202.766630L432.244800 271.167990
L432.691200 233.699176L433.137600 235.432805L433.584000 240.601970
L434.476800 236.536063L435.369600 237.735996L436.262400 209.408072
L436.708800 256.620332L437.155200 238.851109L438.048000 234.966490
L438.494400 241.074462L439.387200 236.231810L439.833600 235.043168
L440.280000 159.337484L440.726400 277.956919L441.172800 235.730847
L442.065600 240.031257L442.512000 232.923982L442.958400 238.018912
L443.851200 241.077838L444.744000 233.367224L445.190400 238.976057
L446.083200 237.007640L446.529600 230.377755L446.976000 242.580081
L447.422400 237.262236L448.761600 240.695739L449.654400 230.629225
L450.547200 241.458236L451.440000 235.531941L451.886400 240.417850
L452.779200 235.353867L453.672000 241.085002L454.118400 237.421151
L454.564800 238.786400L455.011200 237.254368L455.457600 242.514000
L455.904000 236.221112L456.796800 232.033301L457.689600 239.727503
L458.136000 238.081785L458.582400 234.874591L459.028800 239.689250
L459.475200 240.818359L460.368000 235.303672L460.814400 240.141618
L462.153600 234.419498L462.600000 243.774662L463.046400 237.309556
L463.939200 233.754061L464.385600 341.458171L464.832000 235.146353
L465.278400 232.417104L465.724800 233.564100L466.171200 239.986574
L466.617600 185.203746L467.064000 271.959111L467.956800 207.428589
L468.403200 265.247227L468.849600 230.210830L469.296000 239.127846
L469.742400 232.580366L470.188800 235.716455L470.635200 232.064262
L471.081600 234.079408L471.528000 233.072923L471.974400 231.118519
L472.420800 236.734743L472.867200 234.280244L473.760000 182.754395
L474.206400 276.844803L474.652800 234.156727L475.099200 228.965709
L475.992000 239.653273L476.438400 233.788919L477.331200 239.741862
L478.224000 227.915420L478.670400 237.294923L479.116800 235.383014
L479.563200 231.741496L480.009600 233.062892L480.456000 239.698350
L480.902400 185.312390L481.348800 272.042261L482.241600 204.724646
L482.688000 266.142685L483.580800 192.622340L484.027200 282.714749
L484.473600 234.966587L484.920000 228.585834L485.366400 232.793551
L486.705600 234.546829L487.152000 240.521184L487.598400 234.698951
L488.044800 221.264648L488.491200 254.568272L488.937600 233.550687
L489.384000 161.539500L489.830400 245.517062L490.276800 239.680871
L490.723200 185.501194L491.169600 272.334447L491.616000 236.387412
L492.508800 227.494026L492.955200 230.625467L493.848000 239.014835
L494.294400 226.102474L495.187200 238.114984L495.633600 232.783522
L496.080000 235.409674L496.526400 232.857929L496.972800 239.864443
L497.419200 233.388876L498.312000 235.977760L499.204800 234.246807
L499.651200 225.144517L500.097600 239.503588L500.544000 231.847350
L501.436800 239.293841L502.329600 183.837446L502.776000 275.048653
L503.668800 198.941994L504.115200 269.671165L505.008000 193.397166
L505.454400 279.219772L505.900800 231.903191L506.347200 237.509380
L506.793600 232.730762L507.686400 235.377699L508.132800 238.582770
L508.579200 231.519698L509.918400 237.577897L510.811200 232.257292
L511.257600 240.265221L511.704000 234.259098L512.150400 147.758010
L512.596800 273.457274L513.043200 239.688668L514.382400 223.029872
L514.828800 213.018465L515.275200 254.281416L515.721600 235.921562
L516.168000 184.024132L516.614400 273.512338L517.507200 208.555041
L517.953600 260.503889L517.953600 260.503889"/>
</g>
<g id="matplotlib.axis1">
<g id="xtick1">
<g id="line2d2">
<path style="fill: none; stroke: #000000; stroke-width: 0.500000; stroke-linejoin: round; stroke-linecap: butt; stroke-dasharray: 1.000000,3.000000; stroke-dashoffset: 0.000000; opacity: 1.000000" clip-path="url(#p50431ccdcb28178602d99d9270004dde)" d="M72.000000 388.800000L72.000000 43.200000"/>
</g>
<g id="line2d3">
<defs><path id="m30e32995789d870ad79a2e54c91cf9c6" d="M0.000000 0.000000L0.000000 -4.000000"/></defs>
<g ><use style="fill: none; stroke: #000000; stroke-width: 0.500000; stroke-linejoin: round; stroke-linecap: butt;  opacity: 1.000000" xlink:href="#m30e32995789d870ad79a2e54c91cf9c6" x="72.000000" y="388.800000"/>
</g></g>
<g id="line2d4">
<defs><path id="m9281cae24120827b11d5ea8a7ad3e96b" d="M0.000000 0.000000L0.000000 4.000000"/></defs>
<g ><use style="fill: none; stroke: #000000; stroke-width: 0.500000; stroke-linejoin: round; stroke-linecap: butt;  opacity: 1.000000" xlink:href="#m9281cae24120827b11d5ea8a7ad3e96b" x="72.000000" y="43.200000"/>
</g></g>
<g id="text1">
<defs>
<path id="c_7a2040fe3b94fcd41d0a72c84e93b115" d="M31.781250 -66.406250q-7.609375 0.000000 -11.453125 7.500000q-3.828125 7.484375 -3.828125 22.531250q0.000000 14.984375 3.828125 22.484375q3.843750 7.500000 11.453125 7.500000q7.671875 0.000000 11.500000 -7.500000q3.843750 -7.500000 3.843750 -22.484375q0.000000 -15.046875 -3.843750 -22.531250q-3.828125 -7.500000 -11.500000 -7.500000M31.781250 -74.218750q12.265625 0.000000 18.734375 9.703125q6.468750 9.687500 6.468750 28.140625q0.000000 18.406250 -6.468750 28.109375q-6.468750 9.687500 -18.734375 9.687500q-12.250000 0.000000 -18.718750 -9.687500q-6.468750 -9.703125 -6.468750 -28.109375q0.000000 -18.453125 6.468750 -28.140625q6.468750 -9.703125 18.718750 -9.703125"/>
</defs>
<g style="fill: #000000; opacity: 1.000000" transform="translate(68.976562,401.706250)scale(0.120000)">
<use xlink:href="#c_7a2040fe3b94fcd41d0a72c84e93b115"/>
</g>
</g>
</g>
<g id="xtick2">
<g id="line2d5">
<path style="fill: none; stroke: #000000; stroke-width: 0.500000; stroke-linejoin: round; stroke-linecap: butt; stroke-dasharray: 1.000000,3.000000; stroke-dashoffset: 0.000000; opacity: 1.000000" clip-path="url(#p50431ccdcb28178602d99d9270004dde)" d="M161.280000 388.800000L161.280000 43.200000"/>
</g>
<g id="line2d6">
<g ><use style="fill: none; stroke: #000000; stroke-width: 0.500000; stroke-linejoin: round; stroke-linecap: butt;  opacity: 1.000000" xlink:href="#m30e32995789d870ad79a2e54c91cf9c6" x="161.280000" y="388.800000"/>
</g></g>
<g id="line2d7">
<g ><use style="fill: none; stroke: #000000; stroke-width: 0.500000; stroke-linejoin: round; stroke-linecap: butt;  opacity: 1.000000" xlink:href="#m9281cae24120827b11d5ea8a7ad3e96b" x="161.280000" y="43.200000"/>
</g></g>
<g id="text2">
<defs>
<path id="c_ed3f3ed3ebfbd18bcb9c012009a68ad1" d="M19.187500 -8.296875l34.421875 0.000000l0.000000 8.296875l-46.281250 0.000000l0.000000 -8.296875q5.609375 -5.812500 15.296875 -15.593750q9.703125 -9.796875 12.187500 -12.640625q4.734375 -5.312500 6.609375 -9.000000q1.890625 -3.687500 1.890625 -7.250000q0.000000 -5.812500 -4.078125 -9.468750q-4.078125 -3.671875 -10.625000 -3.671875q-4.640625 0.000000 -9.796875 1.609375q-5.140625 1.609375 -11.000000 4.890625l0.000000 -9.968750q5.953125 -2.390625 11.125000 -3.609375q5.187500 -1.218750 9.484375 -1.218750q11.328125 0.000000 18.062500 5.671875q6.734375 5.656250 6.734375 15.125000q0.000000 4.500000 -1.687500 8.531250q-1.671875 4.015625 -6.125000 9.484375q-1.218750 1.421875 -7.765625 8.187500q-6.531250 6.765625 -18.453125 18.921875"/>
</defs>
<g style="fill: #000000; opacity: 1.000000" transform="translate(150.655000,401.706250)scale(0.120000)">
<use xlink:href="#c_ed3f3ed3ebfbd18bcb9c012009a68ad1"/>
<use xlink:href="#c_7a2040fe3b94fcd41d0a72c84e93b115" x="63.623047"/>
<use xlink:href="#c_7a2040fe3b94fcd41d0a72c84e93b115" x="127.246094"/>
</g>
</g>
</g>
<g id="xtick3">
<g id="line2d8">
<path style="fill: none; stroke: #000000; stroke-width: 0.500000; stroke-linejoin: round; stroke-linecap: butt; stroke-dasharray: 1.000000,3.000000; stroke-dashoffset: 0.000000; opacity: 1.000000" clip-path="url(#p50431ccdcb28178602d99d9270004dde)" d="M250.560000 388.800000L250.560000 43.200000"/>
</g>
<g id="line2d9">
<g ><use style="fill: none; stroke: #000000; stroke-width: 0.500000; stroke-linejoin: round; stroke-linecap: butt;  opacity: 1.000000" xlink:href="#m30e32995789d870ad79a2e54c91cf9c6" x="250.560000" y="388.800000"/>
</g></g>
<g id="line2d10">
<g ><use style="fill: none; stroke: #000000; stroke-width: 0.500000; stroke-linejoin: round; stroke-linecap: butt;  opacity: 1.000000" xlink:href="#m9281cae24120827b11d5ea8a7ad3e96b" x="250.560000" y="43.200000"/>
</g></g>
<g id="text3">
<defs>
<path id="c_a0416418d96557a09b8c1332d34883ba" d="M37.796875 -64.312500l-24.906250 38.921875l24.906250 0.000000zM35.203125 -72.906250l12.406250 0.000000l0.000000 47.515625l10.406250 0.000000l0.000000 8.203125l-10.406250 0.000000l0.000000 17.187500l-9.812500 0.000000l0.000000 -17.187500l-32.906250 0.000000l0.000000 -9.515625z"/>
</defs>
<g style="fill: #000000; opacity: 1.000000" transform="translate(239.794375,401.706250)scale(0.120000)">
<use xlink:href="#c_a0416418d96557a09b8c1332d34883ba"/>
<use xlink:href="#c_7a2040fe3b94fcd41d0a72c84e93b115" x="63.623047"/>
<use xlink:href="#c_7a2040fe3b94fcd41d0a72c84e93b115" x="127.246094"/>
</g>
</g>
</g>
<g id="xtick4">
<g id="line2d11">
<path style="fill: none; stroke: #000000; stroke-width: 0.500000; stroke-linejoin: round; stroke-linecap: butt; stroke-dasharray: 1.000000,3.000000; stroke-dashoffset: 0.000000; opacity: 1.000000" clip-path="url(#p50431ccdcb28178602d99d9270004dde)" d="M339.840000 388.800000L339.840000 43.200000"/>
</g>
<g id="line2d12">
<g ><use style="fill: none; stroke: #000000; stroke-width: 0.500000; stroke-linejoin: round; stroke-linecap: butt;  opacity: 1.000000" xlink:href="#m30e32995789d870ad79a2e54c91cf9c6" x="339.840000" y="388.800000"/>
</g></g>
<g id="line2d13">
<g ><use style="fill: none; stroke: #000000; stroke-width: 0.500000; stroke-linejoin: round; stroke-linecap: butt;  opacity: 1.000000" xlink:href="#m9281cae24120827b11d5ea8a7ad3e96b" x="339.840000" y="43.200000"/>
</g></g>
<g id="text4">
<defs>
<path id="c_cc8d6d580d1b10c8632f7a42cd53db8a" d="M33.015625 -40.375000q-6.640625 0.000000 -10.531250 4.546875q-3.875000 4.531250 -3.875000 12.437500q0.000000 7.859375 3.875000 12.437500q3.890625 4.562500 10.531250 4.562500q6.640625 0.000000 10.515625 -4.562500q3.875000 -4.578125 3.875000 -12.437500q0.000000 -7.906250 -3.875000 -12.437500q-3.875000 -4.546875 -10.515625 -4.546875M52.593750 -71.296875l0.000000 8.984375q-3.718750 -1.750000 -7.500000 -2.671875q-3.781250 -0.937500 -7.500000 -0.937500q-9.765625 0.000000 -14.921875 6.593750q-5.140625 6.593750 -5.875000 19.921875q2.875000 -4.250000 7.218750 -6.515625q4.359375 -2.265625 9.578125 -2.265625q10.984375 0.000000 17.359375 6.671875q6.375000 6.656250 6.375000 18.125000q0.000000 11.234375 -6.640625 18.031250q-6.640625 6.781250 -17.671875 6.781250q-12.656250 0.000000 -19.343750 -9.687500q-6.687500 -9.703125 -6.687500 -28.109375q0.000000 -17.281250 8.203125 -27.562500q8.203125 -10.281250 22.015625 -10.281250q3.718750 0.000000 7.500000 0.734375q3.781250 0.734375 7.890625 2.187500"/>
</defs>
<g style="fill: #000000; opacity: 1.000000" transform="translate(329.199375,401.706250)scale(0.120000)">
<use xlink:href="#c_cc8d6d580d1b10c8632f7a42cd53db8a"/>
<use xlink:href="#c_7a2040fe3b94fcd41d0a72c84e93b115" x="63.623047"/>
<use xlink:href="#c_7a2040fe3b94fcd41d0a72c84e93b115" x="127.246094"/>
</g>
</g>
</g>
<g id="xtick5">
<g id="line2d14">
<path style="fill: none; stroke: #000000; stroke-width: 0.500000; stroke-linejoin: round; stroke-linecap: butt; stroke-dasharray: 1.000000,3.000000; stroke-dashoffset: 0.000000; opacity: 1.000000" clip-path="url(#p50431ccdcb28178602d99d9270004dde)" d="M429.120000 388.800000L429.120000 43.200000"/>
</g>
<g id="line2d15">
<g ><use style="fill: none; stroke: #000000; stroke-width: 0.500000; stroke-linejoin: round; stroke-linecap: butt;  opacity: 1.000000" xlink:href="#m30e32995789d870ad79a2e54c91cf9c6" x="429.120000" y="388.800000"/>
</g></g>
<g id="line2d16">
<g ><use style="fill: none; stroke: #000000; stroke-width: 0.500000; stroke-linejoin: round; stroke-linecap: butt;  opacity: 1.000000" xlink:href="#m9281cae24120827b11d5ea8a7ad3e96b" x="429.120000" y="43.200000"/>
</g></g>
<g id="text5">
<defs>
<path id="c_bef35738d52871942e50b9de9b122bab" d="M31.781250 -34.625000q-7.031250 0.000000 -11.062500 3.765625q-4.015625 3.765625 -4.015625 10.343750q0.000000 6.593750 4.015625 10.359375q4.031250 3.765625 11.062500 3.765625q7.031250 0.000000 11.078125 -3.781250q4.062500 -3.796875 4.062500 -10.343750q0.000000 -6.578125 -4.031250 -10.343750q-4.015625 -3.765625 -11.109375 -3.765625M21.921875 -38.812500q-6.343750 -1.562500 -9.890625 -5.906250q-3.531250 -4.359375 -3.531250 -10.609375q0.000000 -8.734375 6.218750 -13.812500q6.234375 -5.078125 17.062500 -5.078125q10.890625 0.000000 17.093750 5.078125q6.203125 5.078125 6.203125 13.812500q0.000000 6.250000 -3.546875 10.609375q-3.531250 4.343750 -9.828125 5.906250q7.125000 1.656250 11.093750 6.500000q3.984375 4.828125 3.984375 11.796875q0.000000 10.609375 -6.468750 16.281250q-6.468750 5.656250 -18.531250 5.656250q-12.046875 0.000000 -18.531250 -5.656250q-6.468750 -5.671875 -6.468750 -16.281250q0.000000 -6.968750 4.000000 -11.796875q4.015625 -4.843750 11.140625 -6.500000M18.312500 -54.390625q0.000000 5.656250 3.531250 8.828125q3.546875 3.171875 9.937500 3.171875q6.359375 0.000000 9.937500 -3.171875q3.593750 -3.171875 3.593750 -8.828125q0.000000 -5.671875 -3.593750 -8.843750q-3.578125 -3.171875 -9.937500 -3.171875q-6.390625 0.000000 -9.937500 3.171875q-3.531250 3.171875 -3.531250 8.843750"/>
</defs>
<g style="fill: #000000; opacity: 1.000000" transform="translate(418.463750,401.706250)scale(0.120000)">
<use xlink:href="#c_bef35738d52871942e50b9de9b122bab"/>
<use xlink:href="#c_7a2040fe3b94fcd41d0a72c84e93b115" x="63.623047"/>
<use xlink:href="#c_7a2040fe3b94fcd41d0a72c84e93b115" x="127.246094"/>
</g>
</g>
</g>
<g id="xtick6">
<g id="line2d17">
<path style="fill: none; stroke: #000000; stroke-width: 0.500000; stroke-linejoin: round; stroke-linecap: butt; stroke-dasharray: 1.000000,3.000000; stroke-dashoffset: 0.000000; opacity: 1.000000" clip-path="url(#p50431ccdcb28178602d99d9270004dde)" d="M518.400000 388.800000L518.400000 43.200000"/>
</g>
<g id="line2d18">
<g ><use style="fill: none; stroke: #000000; stroke-width: 0.500000; stroke-linejoin: round; stroke-linecap: butt;  opacity: 1.000000" xlink:href="#m30e32995789d870ad79a2e54c91cf9c6" x="518.400000" y="388.800000"/>
</g></g>
<g id="line2d19">
<g ><use style="fill: none; stroke: #000000; stroke-width: 0.500000; stroke-linejoin: round; stroke-linecap: butt;  opacity: 1.000000" xlink:href="#m9281cae24120827b11d5ea8a7ad3e96b" x="518.400000" y="43.200000"/>
</g></g>
<g id="text6">
<defs>
<path id="c_42baa63129a918535c52adb20d687ea7" d="M12.406250 -8.296875l16.109375 0.000000l0.000000 -55.625000l-17.531250 3.515625l0.000000 -8.984375l17.437500 -3.515625l9.859375 0.000000l0.000000 64.609375l16.109375 0.000000l0.000000 8.296875l-41.984375 0.000000z"/>
</defs>
<g style="fill: #000000; opacity: 1.000000" transform="translate(504.173437,401.706250)scale(0.120000)">
<use xlink:href="#c_42baa63129a918535c52adb20d687ea7"/>
<use xlink:href="#c_7a2040fe3b94fcd41d0a72c84e93b115" x="63.623047"/>
<use xlink:href="#c_7a2040fe3b94fcd41d0a72c84e93b115" x="127.246094"/>
<use xlink:href="#c_7a2040fe3b94fcd41d0a72c84e93b115" x="190.869141"/>
</g>
</g>
</g>
</g>
<g id="matplotlib.axis2">
<g id="ytick1">
<g id="line2d20">
<path style="fill: none; stroke: #000000; stroke-width: 0.500000; stroke-linejoin: round; stroke-linecap: butt; stroke-dasharray: 1.000000,3.000000; stroke-dashoffset: 0.000000; opacity: 1.000000" clip-path="url(#p50431ccdcb28178602d99d9270004dde)" d="M72.000000 388.800000L518.400000 388.800000"/>
</g>
<g id="line2d21">
<defs><path id="m3400efa6b1638b3fea9e19e898273957" d="M0.000000 0.000000L4.000000 0.000000"/></defs>
<g ><use style="fill: none; stroke: #000000; stroke-width: 0.500000; stroke-linejoin: round; stroke-linecap: butt;  opacity: 1.000000" xlink:href="#m3400efa6b1638b3fea9e19e898273957" x="72.000000" y="388.800000"/>
</g></g>
<g id="line2d22">
<defs><path id="m20b58b2501143cb5e0a5e8f1ef6f1643" d="M0.000000 0.000000L-4.000000 0.000000"/></defs>
<g ><use style="fill: none; stroke: #000000; stroke-width: 0.500000; stroke-linejoin: round; stroke-linecap: butt;  opacity: 1.000000" xlink:href="#m20b58b2501143cb5e0a5e8f1ef6f1643" x="518.400000" y="388.800000"/>
</g></g>
<g id="text7">
<defs>
<path id="c_ed3e21196fb739f392806f09ca0594ef" d="M10.687500 -12.406250l10.312500 0.000000l0.000000 12.406250l-10.312500 0.000000z"/>
</defs>
<g style="fill: #000000; opacity: 1.000000" transform="translate(50.500000,393.167188)scale(0.120000)">
<use xlink:href="#c_7a2040fe3b94fcd41d0a72c84e93b115"/>
<use xlink:href="#c_ed3e21196fb739f392806f09ca0594ef" x="63.623047"/>
<use xlink:href="#c_7a2040fe3b94fcd41d0a72c84e93b115" x="95.410156"/>
</g>
</g>
</g>
<g id="ytick2">
<g id="line2d23">
<path style="fill: none; stroke: #000000; stroke-width: 0.500000; stroke-linejoin: round; stroke-linecap: butt; stroke-dasharray: 1.000000,3.000000; stroke-dashoffset: 0.000000; opacity: 1.000000" clip-path="url(#p50431ccdcb28178602d99d9270004dde)" d="M72.000000 339.428571L518.400000 339.428571"/>
</g>
<g id="line2d24">
<g ><use style="fill: none; stroke: #000000; stroke-width: 0.500000; stroke-linejoin: round; stroke-linecap: butt;  opacity: 1.000000" xlink:href="#m3400efa6b1638b3fea9e19e898273957" x="72.000000" y="339.428571"/>
</g></g>
<g id="line2d25">
<g ><use style="fill: none; stroke: #000000; stroke-width: 0.500000; stroke-linejoin: round; stroke-linecap: butt;  opacity: 1.000000" xlink:href="#m20b58b2501143cb5e0a5e8f1ef6f1643" x="518.400000" y="339.428571"/>
</g></g>
<g id="text8">
<g style="fill: #000000; opacity: 1.000000" transform="translate(50.812500,343.795759)scale(0.120000)">
<use xlink:href="#c_7a2040fe3b94fcd41d0a72c84e93b115"/>
<use xlink:href="#c_ed3e21196fb739f392806f09ca0594ef" x="63.623047"/>
<use xlink:href="#c_42baa63129a918535c52adb20d687ea7" x="95.410156"/>
</g>
</g>
</g>
<g id="ytick3">
<g id="line2d26">
<path style="fill: none; stroke: #000000; stroke-width: 0.500000; stroke-linejoin: round; stroke-linecap: butt; stroke-dasharray: 1.000000,3.000000; stroke-dashoffset: 0.000000; opacity: 1.000000" clip-path="url(#p50431ccdcb28178602d99d9270004dde)" d="M72.000000 290.057143L518.400000 290.057143"/>
</g>
<g id="line2d27">
<g ><use style="fill: none; stroke: #000000; stroke-width: 0.500000; stroke-linejoin: round; stroke-linecap: butt;  opacity: 1.000000" xlink:href="#m3400efa6b1638b3fea9e19e898273957" x="72.000000" y="290.057143"/>
</g></g>
<g id="line2d28">
<g ><use style="fill: none; stroke: #000000; stroke-width: 0.500000; stroke-linejoin: round; stroke-linecap: butt;  opacity: 1.000000" xlink:href="#m20b58b2501143cb5e0a5e8f1ef6f1643" x="518.400000" y="290.057143"/>
</g></g>
<g id="text9">
<g style="fill: #000000; opacity: 1.000000" transform="translate(50.906250,294.424330)scale(0.120000)">
<use xlink:href="#c_7a2040fe3b94fcd41d0a72c84e93b115"/>
<use xlink:href="#c_ed3e21196fb739f392806f09ca0594ef" x="63.623047"/>
<use xlink:href="#c_ed3f3ed3ebfbd18bcb9c012009a68ad1" x="95.410156"/>
</g>
</g>
</g>
<g id="ytick4">
<g id="line2d29">
<path style="fill: none; stroke: #000000; stroke-width: 0.500000; stroke-linejoin: round; stroke-linecap: butt; stroke-dasharray: 1.000000,3.000000; stroke-dashoffset: 0.000000; opacity: 1.000000" clip-path="url(#p50431ccdcb28178602d99d9270004dde)" d="M72.000000 240.685714L518.400000 240.685714"/>
</g>
<g id="line2d30">
<g ><use style="fill: none; stroke: #000000; stroke-width: 0.500000; stroke-linejoin: round; stroke-linecap: butt;  opacity: 1.000000" xlink:href="#m3400efa6b1638b3fea9e19e898273957" x="72.000000" y="240.685714"/>
</g></g>
<g id="line2d31">
<g ><use style="fill: none; stroke: #000000; stroke-width: 0.500000; stroke-linejoin: round; stroke-linecap: butt;  opacity: 1.000000" xlink:href="#m20b58b2501143cb5e0a5e8f1ef6f1643" x="518.400000" y="240.685714"/>
</g></g>
<g id="text10">
<defs>
<path id="c_3dcfa38a02242cb63ec6726c6e70be7a" d="M40.578125 -39.312500q7.078125 1.515625 11.046875 6.312500q3.984375 4.781250 3.984375 11.812500q0.000000 10.781250 -7.421875 16.703125q-7.421875 5.906250 -21.093750 5.906250q-4.578125 0.000000 -9.437500 -0.906250q-4.859375 -0.906250 -10.031250 -2.718750l0.000000 -9.515625q4.093750 2.390625 8.968750 3.609375q4.890625 1.218750 10.218750 1.218750q9.265625 0.000000 14.125000 -3.656250q4.859375 -3.656250 4.859375 -10.640625q0.000000 -6.453125 -4.515625 -10.078125q-4.515625 -3.640625 -12.562500 -3.640625l-8.500000 0.000000l0.000000 -8.109375l8.890625 0.000000q7.265625 0.000000 11.125000 -2.906250q3.859375 -2.906250 3.859375 -8.375000q0.000000 -5.609375 -3.984375 -8.609375q-3.968750 -3.015625 -11.390625 -3.015625q-4.062500 0.000000 -8.703125 0.890625q-4.640625 0.875000 -10.203125 2.718750l0.000000 -8.781250q5.625000 -1.562500 10.531250 -2.343750q4.906250 -0.781250 9.250000 -0.781250q11.234375 0.000000 17.765625 5.109375q6.546875 5.093750 6.546875 13.781250q0.000000 6.062500 -3.468750 10.234375q-3.468750 4.171875 -9.859375 5.781250"/>
</defs>
<g style="fill: #000000; opacity: 1.000000" transform="translate(50.671875,245.052902)scale(0.120000)">
<use xlink:href="#c_7a2040fe3b94fcd41d0a72c84e93b115"/>
<use xlink:href="#c_ed3e21196fb739f392806f09ca0594ef" x="63.623047"/>
<use xlink:href="#c_3dcfa38a02242cb63ec6726c6e70be7a" x="95.410156"/>
</g>
</g>
</g>
<g id="ytick5">
<g id="line2d32">
<path style="fill: none; stroke: #000000; stroke-width: 0.500000; stroke-linejoin: round; stroke-linecap: butt; stroke-dasharray: 1.000000,3.000000; stroke-dashoffset: 0.000000; opacity: 1.000000" clip-path="url(#p50431ccdcb28178602d99d9270004dde)" d="M72.000000 191.314286L518.400000 191.314286"/>
</g>
<g id="line2d33">
<g ><use style="fill: none; stroke: #000000; stroke-width: 0.500000; stroke-linejoin: round; stroke-linecap: butt;  opacity: 1.000000" xlink:href="#m3400efa6b1638b3fea9e19e898273957" x="72.000000" y="191.314286"/>
</g></g>
<g id="line2d34">
<g ><use style="fill: none; stroke: #000000; stroke-width: 0.500000; stroke-linejoin: round; stroke-linecap: butt;  opacity: 1.000000" xlink:href="#m20b58b2501143cb5e0a5e8f1ef6f1643" x="518.400000" y="191.314286"/>
</g></g>
<g id="text11">
<g style="fill: #000000; opacity: 1.000000" transform="translate(50.375000,195.681473)scale(0.120000)">
<use xlink:href="#c_7a2040fe3b94fcd41d0a72c84e93b115"/>
<use xlink:href="#c_ed3e21196fb739f392806f09ca0594ef" x="63.623047"/>
<use xlink:href="#c_a0416418d96557a09b8c1332d34883ba" x="95.410156"/>
</g>
</g>
</g>
<g id="ytick6">
<g id="line2d35">
<path style="fill: none; stroke: #000000; stroke-width: 0.500000; stroke-linejoin: round; stroke-linecap: butt; stroke-dasharray: 1.000000,3.000000; stroke-dashoffset: 0.000000; opacity: 1.000000" clip-path="url(#p50431ccdcb28178602d99d9270004dde)" d="M72.000000 141.942857L518.400000 141.942857"/>
</g>
<g id="line2d36">
<g ><use style="fill: none; stroke: #000000; stroke-width: 0.500000; stroke-linejoin: round; stroke-linecap: butt;  opacity: 1.000000" xlink:href="#m3400efa6b1638b3fea9e19e898273957" x="72.000000" y="141.942857"/>
</g></g>
<g id="line2d37">
<g ><use style="fill: none; stroke: #000000; stroke-width: 0.500000; stroke-linejoin: round; stroke-linecap: butt;  opacity: 1.000000" xlink:href="#m20b58b2501143cb5e0a5e8f1ef6f1643" x="518.400000" y="141.942857"/>
</g></g>
<g id="text12">
<defs>
<path id="c_1260a2df50f305f3db244e29828f968e" d="M10.796875 -72.906250l38.718750 0.000000l0.000000 8.312500l-29.687500 0.000000l0.000000 17.859375q2.140625 -0.734375 4.281250 -1.093750q2.156250 -0.359375 4.312500 -0.359375q12.203125 0.000000 19.328125 6.687500q7.140625 6.687500 7.140625 18.109375q0.000000 11.765625 -7.328125 18.296875q-7.328125 6.515625 -20.656250 6.515625q-4.593750 0.000000 -9.359375 -0.781250q-4.750000 -0.781250 -9.828125 -2.343750l0.000000 -9.921875q4.390625 2.390625 9.078125 3.562500q4.687500 1.171875 9.906250 1.171875q8.453125 0.000000 13.375000 -4.437500q4.937500 -4.437500 4.937500 -12.062500q0.000000 -7.609375 -4.937500 -12.046875q-4.921875 -4.453125 -13.375000 -4.453125q-3.953125 0.000000 -7.890625 0.875000q-3.921875 0.875000 -8.015625 2.734375z"/>
</defs>
<g style="fill: #000000; opacity: 1.000000" transform="translate(50.750000,146.310045)scale(0.120000)">
<use xlink:href="#c_7a2040fe3b94fcd41d0a72c84e93b115"/>
<use xlink:href="#c_ed3e21196fb739f392806f09ca0594ef" x="63.623047"/>
<use xlink:href="#c_1260a2df50f305f3db244e29828f968e" x="95.410156"/>
</g>
</g>
</g>
<g id="ytick7">
<g id="line2d38">
<path style="fill: none; stroke: #000000; stroke-width: 0.500000; stroke-linejoin: round; stroke-linecap: butt; stroke-dasharray: 1.000000,3.000000; stroke-dashoffset: 0.000000; opacity: 1.000000" clip-path="url(#p50431ccdcb28178602d99d9270004dde)" d="M72.000000 92.571429L518.400000 92.571429"/>
</g>
<g id="line2d39">
<g ><use style="fill: none; stroke: #000000; stroke-width: 0.500000; stroke-linejoin: round; stroke-linecap: butt;  opacity: 1.000000" xlink:href="#m3400efa6b1638b3fea9e19e898273957" x="72.000000" y="92.571429"/>
</g></g>
<g id="line2d40">
<g ><use style="fill: none; stroke: #000000; stroke-width: 0.500000; stroke-linejoin: round; stroke-linecap: butt;  opacity: 1.000000" xlink:href="#m20b58b2501143cb5e0a5e8f1ef6f1643" x="518.400000" y="92.571429"/>
</g></g>
<g id="text13">
<g style="fill: #000000; opacity: 1.000000" transform="translate(50.468750,96.938616)scale(0.120000)">
<use xlink:href="#c_7a2040fe3b94fcd41d0a72c84e93b115"/>
<use xlink:href="#c_ed3e21196fb739f392806f09ca0594ef" x="63.623047"/>
<use xlink:href="#c_cc8d6d580d1b10c8632f7a42cd53db8a" x="95.410156"/>
</g>
</g>
</g>
<g id="ytick8">
<g id="line2d41">
<path style="fill: none; stroke: #000000; stroke-width: 0.500000; stroke-linejoin: round; stroke-linecap: butt; stroke-dasharray: 1.000000,3.000000; stroke-dashoffset: 0.000000; opacity: 1.000000" clip-path="url(#p50431ccdcb28178602d99d9270004dde)" d="M72.000000 43.200000L518.400000 43.200000"/>
</g>
<g id="line2d42">
<g ><use style="fill: none; stroke: #000000; stroke-width: 0.500000; stroke-linejoin: round; stroke-linecap: butt;  opacity: 1.000000" xlink:href="#m3400efa6b1638b3fea9e19e898273957" x="72.000000" y="43.200000"/>
</g></g>
<g id="line2d43">
<g ><use style="fill: none; stroke: #000000; stroke-width: 0.500000; stroke-linejoin: round; stroke-linecap: butt;  opacity: 1.000000" xlink:href="#m20b58b2501143cb5e0a5e8f1ef6f1643" x="518.400000" y="43.200000"/>
</g></g>
<g id="text14">
<defs>
<path id="c_956f18cfdaf972f35a6c2b4aaac2532b" d="M8.203125 -72.906250l46.875000 0.000000l0.000000 4.203125l-26.468750 68.703125l-10.296875 0.000000l24.906250 -64.593750l-35.015625 0.000000z"/>
</defs>
<g style="fill: #000000; opacity: 1.000000" transform="translate(50.734375,47.567187)scale(0.120000)">
<use xlink:href="#c_7a2040fe3b94fcd41d0a72c84e93b115"/>
<use xlink:href="#c_ed3e21196fb739f392806f09ca0594ef" x="63.623047"/>
<use xlink:href="#c_956f18cfdaf972f35a6c2b4aaac2532b" x="95.410156"/>
</g>
</g>
</g>
</g>
<g id="patch3">
<path style="fill: none; stroke: #000000; stroke-width: 1.000000; stroke-linejoin: round; stroke-linecap: square;  opacity: 1.000000"  d="M72.000000 43.200000L518.400000 43.200000"/>
</g>
<g id="patch4">
<path style="fill: none; stroke: #000000; stroke-width: 1.000000; stroke-linejoin: round; stroke-linecap: square;  opacity: 1.000000"  d="M518.400000 388.800000L518.400000 43.200000"/>
</g>
<g id="patch5">
<path style="fill: none; stroke: #000000; stroke-width: 1.000000; stroke-linejoin: round; stroke-linecap: square;  opacity: 1.000000"  d="M72.000000 388.800000L518.400000 388.800000"/>
</g>
<g id="patch6">
<path style="fill: none; stroke: #000000; stroke-width: 1.000000; stroke-linejoin: round; stroke-linecap: square;  opacity: 1.000000"  d="M72.000000 388.800000L72.000000 43.200000"/>
</g>
</g>
</g>
</svg>
