<?xml version="1.0" standalone="no"?>
<!DOCTYPE svg PUBLIC "-//W3C//DTD SVG 1.1//EN"
  "http://www.w3.org/Graphics/SVG/1.1/DTD/svg11.dtd">
<!-- Created with matplotlib (http://matplotlib.sourceforge.net/) -->
<svg width="576pt" height="432pt" viewBox="0 0 576 432"
   xmlns="http://www.w3.org/2000/svg"
   xmlns:xlink="http://www.w3.org/1999/xlink"
   version="1.1"
   id="svg1">
<g id="figure1">
<g id="patch1">
<path style="fill: #ffffff; stroke: #ffffff; stroke-width: 1.000000; stroke-linejoin: round; stroke-linecap: square;  opacity: 1.000000"  d="M0.000000 432.000000L576.000000 432.000000L576.000000 0.000000
L0.000000 0.000000L0.000000 432.000000"/>
</g>
<g id="axes1">
<g id="patch2">
<path style="fill: #ffffff; opacity: 1.000000"  d="M72.000000 388.800000L518.400000 388.800000L518.400000 43.200000
L72.000000 43.200000L72.000000 388.800000"/>
</g>
<g id="line2d1">
<defs>
  <clipPath id="p50431ccdcb28178602d99d9270004dde">
<rect x="72.000000" y="43.200000" width="446.400000" height="345.600000"/>
  </clipPath>
</defs><path style="fill: none; stroke: #ff0000; stroke-width: 1.000000; stroke-linejoin: round; stroke-linecap: square;  opacity: 1.000000" clip-path="url(#p50431ccdcb28178602d99d9270004dde)" d="M72.000000 301.632034L72.446400 215.197560L72.892800 338.729602
L73.339200 301.731998L73.785600 329.124190L74.232000 300.686645
L75.571200 301.567838L76.464000 348.125558L76.910400 350.825969
L77.356800 301.467528L78.696000 350.799941L79.588800 278.455234
L80.035200 290.894803L80.928000 280.468570L81.374400 341.393832
L81.820800 350.513114L82.713600 295.589844L83.160000 290.324002
L83.606400 339.247051L84.052800 351.526867L84.945600 335.070994
L85.392000 350.650771L85.838400 348.393571L86.284800 295.538609
L86.731200 333.321372L87.177600 301.063997L87.624000 350.608932
L88.516800 333.779702L88.963200 349.647300L89.409600 279.312235
L89.856000 349.884922L90.302400 347.581541L90.748800 349.390627
L91.641600 346.462294L92.088000 350.479980L92.980800 336.375828
L93.427200 350.888803L94.320000 344.697941L94.766400 329.539342
L95.212800 349.722338L95.659200 348.145906L96.105600 350.187667
L97.444800 351.353959L98.337600 338.362877L98.784000 350.724276
L99.676800 291.875551L100.123200 332.619221L100.569600 300.816720
L101.016000 350.192182L101.908800 296.106106L102.801600 351.085622
L103.248000 329.876366L103.694400 351.054000L104.587200 342.901750
L105.033600 350.996868L105.926400 335.026670L106.372800 350.994254
L106.819200 301.181998L107.265600 349.670909L107.712000 332.678059
L108.158400 301.348750L108.604800 349.718753L109.051200 329.898830
L109.497600 350.048002L112.176000 348.527750L112.622400 350.900014
L113.515200 336.764131L113.961600 349.914838L114.854400 343.360814
L115.300800 350.826984L116.193600 335.224138L116.640000 349.813966
L117.532800 300.307586L117.979200 349.350451L118.872000 350.492594
L120.211200 329.725447L120.657600 350.959738L121.104000 327.070872
L121.550400 328.087260L121.996800 332.744177L122.443200 350.373622
L122.889600 349.107473L123.336000 345.905143L123.782400 329.900990
L124.228800 349.917948L124.675200 348.694351L125.121600 350.151206
L125.568000 349.037834L126.014400 350.575322L127.353600 337.791902
L127.800000 349.646371L128.692800 328.764139L129.139200 350.417405
L129.585600 328.126831L130.032000 348.103699L130.478400 349.547206
L130.924800 346.126716L131.371200 348.657372L132.264000 341.450986
L132.710400 349.906349L133.156800 351.103054L133.603200 348.569136
L134.049600 350.161574L134.942400 261.609523L135.388800 351.125518
L136.281600 344.334218L136.728000 329.126069L137.174400 350.940535
L137.620800 348.247706L138.513600 350.271799L139.852800 350.266118
L140.299200 343.150625L140.745600 349.686158L141.638400 346.324378
L142.084800 350.774647L142.977600 343.971058L143.424000 349.995298
L144.316800 326.978726L144.763200 349.862998L145.209600 329.213290
L145.656000 339.842434L146.995200 349.831375L148.334400 350.446867
L148.780800 349.420370L149.673600 328.449859L150.566400 349.996810
L151.012800 329.595026L151.459200 349.871378L151.905600 351.151718
L152.352000 339.755321L153.244800 341.422430L153.691200 350.897206
L154.137600 349.873063L154.584000 306.886601L155.030400 349.737761
L155.476800 339.782321L155.923200 350.702114L156.369600 348.450206
L156.816000 349.549193L157.708800 338.572937L158.155200 340.217539
L158.601600 350.065930L159.048000 339.588569L159.940800 338.358902
L160.387200 350.565019L161.280000 345.578270L161.726400 350.790847
L162.172800 340.100770L163.065600 351.041688L164.404800 339.843708
L164.851200 350.072194L165.297600 347.610031L165.744000 340.340854
L166.190400 351.163015L167.976000 344.451226L168.422400 350.328218
L169.315200 343.700388L169.761600 350.415050L170.208000 339.331486
L170.654400 350.696066L171.993600 345.878424L172.440000 316.644466
L172.886400 328.127911L173.332800 350.822254L173.779200 303.182482
L174.225600 349.887017L175.564800 339.886843L176.011200 349.781371
L177.350400 349.606022L178.689600 350.274931L179.136000 339.659849
L179.582400 350.318693L180.028800 340.383060L180.475200 348.942665
L180.921600 330.030418L181.368000 350.510630L181.814400 331.143854
L182.260800 350.292211L182.707200 351.521359L183.153600 326.069690
L183.600000 349.839086L184.046400 327.069835L184.492800 350.971682
L185.385600 339.299647L185.832000 349.485062L187.171200 350.404769
L187.617600 340.408181L188.064000 350.195357L188.510400 327.106382
L188.956800 348.621667L189.849600 350.622086L190.296000 325.914970
L190.742400 349.837423L191.188800 338.770858L191.635200 349.944538
L192.528000 345.906202L192.974400 349.909243L193.867200 338.666033
L194.313600 349.889566L195.206400 345.296909L195.652800 350.962070
L196.545600 337.370335L196.992000 350.297784L197.438400 341.936770
L197.884800 350.800805L198.777600 317.746498L199.224000 351.674482
L199.670400 337.730472L200.116800 350.266486L200.563200 349.081142
L201.902400 328.484700L202.348800 350.799098L203.688000 348.723101
L204.134400 332.587318L204.580800 347.269118L205.473600 350.661550
L206.366400 341.013715L206.812800 350.111462L207.705600 339.228173
L208.152000 349.554290L209.044800 346.103604L209.491200 350.988228
L209.937600 349.476768L210.830400 328.930891L211.276800 350.093491
L212.169600 339.325956L212.616000 340.727926L213.062400 350.310744
L213.955200 348.640978L214.401600 350.930686L214.848000 349.667798
L215.294400 339.947798L215.740800 350.461966L216.633600 347.477299
L217.080000 350.530870L217.972800 340.100338L218.419200 349.908487
L219.312000 336.401834L219.758400 350.476157L221.097600 328.799542
L221.544000 349.853861L222.883200 335.635790L223.329600 350.496742
L224.668800 351.339703L225.115200 340.453886L225.561600 349.882502
L226.008000 350.962070L226.900800 342.884858L227.793600 349.963546
L228.686400 348.932923L229.132800 328.432190L229.579200 350.952977
L230.025600 339.356261L230.472000 342.348163L230.918400 350.194514
L231.364800 340.565969L231.811200 349.864855L232.704000 342.074254
L233.150400 350.392370L233.596800 339.680866L234.489600 349.889026
L234.936000 309.590899L235.382400 349.094988L235.828800 340.657445
L236.721600 339.182640L237.168000 349.195990L237.614400 350.315539
L238.060800 330.803352L238.953600 349.701408L240.292800 349.952508
L240.739200 350.964014L241.632000 315.493013L242.078400 350.220650
L242.524800 338.355014L242.971200 350.847871L243.864000 348.325790
L244.310400 350.159134L245.203200 346.141015L245.649600 350.668289
L246.096000 339.469510L246.542400 311.588381L247.435200 340.827070
L247.881600 349.836214L248.328000 348.436706L249.220800 339.728256
L249.667200 350.025127L251.006400 340.089084L251.899200 349.070213
L252.345600 340.165829L253.238400 349.831634L254.131200 339.826968
L254.577600 329.174107L255.470400 350.534110L256.363200 347.351371
L256.809600 350.386106L257.702400 328.520059L258.148800 340.538666
L258.595200 338.977656L259.041600 351.051127L259.488000 329.146351
L259.934400 349.881120L260.827200 319.140799L261.273600 349.686914
L261.720000 330.794842L262.166400 350.145850L263.059200 339.878333
L263.505600 350.046446L264.398400 345.868553L264.844800 340.074137
L265.291200 350.234518L265.737600 329.101099L266.184000 350.572903
L266.630400 342.425426L267.076800 351.641974L267.523200 329.340946
L267.969600 349.791329L269.308800 349.817724L270.648000 58.331167
L271.094400 137.281738L271.540800 350.966174L271.987200 349.036171
L272.433600 318.932554L272.880000 351.129038L274.665600 344.461162
L275.112000 350.749721L276.451200 350.016854L276.897600 331.586719
L277.344000 350.728402L277.790400 336.854873L278.236800 350.583876
L279.129600 339.582499L279.576000 350.505446L280.022400 349.315438
L280.915200 351.156254L281.808000 340.033270L282.254400 329.326301
L283.147200 350.582688L284.040000 349.386998L285.379200 349.292174
L285.825600 350.307137L286.272000 307.972627L286.718400 349.132918
L287.611200 339.690953L288.950400 350.548020L289.396800 348.445390
L291.182400 306.043402L291.628800 349.746358L292.075200 348.293498
L292.521600 350.484970L292.968000 329.657083L293.860800 350.415202
L294.307200 346.052326L294.753600 350.175938L295.646400 341.065577
L296.092800 349.736400L296.985600 337.948762L297.432000 350.549035
L297.878400 328.990896L298.771200 351.165802L299.217600 350.096126
L299.664000 337.341823L300.110400 349.668338L301.449600 348.323026
L301.896000 350.137296L302.788800 346.027442L303.235200 350.313941
L304.128000 347.080831L304.574400 350.416908L305.467200 339.564895
L305.913600 350.443562L306.806400 346.846082L307.252800 350.018906
L307.699200 339.132614L308.145600 349.560230L309.038400 326.536034
L309.484800 350.751233L310.377600 349.682897L310.824000 291.386916
L311.270400 337.414118L311.716800 330.641136L312.163200 350.086190
L313.502400 350.432633L314.395200 339.558826L314.841600 350.445182
L315.288000 339.805541L315.734400 349.372786L316.180800 350.475530
L317.073600 290.947162L317.966400 349.540834L318.412800 330.013786
L318.859200 350.013636L319.305600 345.323779L319.752000 328.523990
L320.198400 349.568849L320.644800 319.705553L321.537600 349.777202
L322.430400 330.019056L323.323200 350.462095L323.769600 319.510224
L324.216000 329.337144L324.662400 349.603776L325.108800 331.529846
L325.555200 350.157578L326.001600 330.383707L326.448000 350.407706
L326.894400 340.415676L327.340800 349.471195L328.680000 350.300246
L329.126400 344.327868L329.572800 350.139802L330.912000 349.876433
L331.804800 342.490680L332.251200 350.678225L332.697600 307.344953
L333.144000 349.450049L333.590400 322.694453L334.036800 350.465724
L335.376000 339.699960L335.822400 349.425036L336.715200 350.889732
L337.161600 343.421489L337.608000 350.314762L338.500800 348.601687
L338.947200 350.043530L339.840000 329.926414L340.286400 349.598095
L340.732800 331.168802L341.179200 348.485371L342.518400 350.551973
L343.411200 347.191898L343.857600 350.108309L344.750400 347.068411
L345.196800 328.385578L345.643200 350.041241L346.982400 350.514086
L347.428800 348.239434L347.875200 332.259041L348.321600 350.776570
L348.768000 333.232920L349.214400 349.414603L349.660800 339.229426
L350.107200 350.264866L351.000000 331.365816L351.446400 349.450070
L351.892800 338.864105L352.339200 349.730244L353.232000 347.429887
L353.678400 349.805023L354.571200 340.647790L355.017600 348.822828
L355.910400 329.046322L356.803200 350.624506L357.696000 348.034709
L358.142400 350.288777L358.588800 329.512212L359.035200 349.870946
L359.928000 330.982373L360.374400 350.195854L360.820800 328.743814
L361.267200 349.123781L361.713600 350.274305L362.160000 333.792295
L362.606400 350.005190L363.499200 348.922426L364.392000 309.163262
L364.838400 351.031838L365.284800 349.570555L366.624000 350.524044
L367.070400 344.034842L367.516800 350.187365L368.409600 346.527914
L368.856000 349.856302L369.748800 337.977274L370.195200 339.826190
L370.641600 334.949450L371.088000 349.753291L372.427200 351.199433
L372.873600 329.845457L373.766400 350.226461L375.105600 337.917010
L375.552000 349.351186L375.998400 327.874867L376.891200 328.946033
L377.337600 350.780479L378.230400 325.515456L378.676800 351.016286
L379.569600 345.577882L380.016000 330.244949L380.462400 348.570410
L381.355200 350.044502L381.801600 327.269765L382.248000 350.857980
L382.694400 332.369352L383.140800 348.285247L383.587200 339.375614
L384.033600 349.365182L384.926400 350.801734L385.372800 309.265711
L386.265600 349.696786L386.712000 332.857577L387.158400 351.512654
L388.051200 335.910974L388.497600 310.713041L388.944000 350.183671
L389.836800 319.517287L390.283200 350.348047L391.622400 349.995362
L392.068800 343.792490L392.961600 350.384206L393.408000 349.005154
L394.300800 350.059169L395.193600 330.443474L395.640000 350.155786
L396.532800 329.074553L396.979200 350.388526L397.425600 331.373851
L397.872000 350.716910L398.764800 337.557046L399.211200 350.261129
L400.550400 350.240566L400.996800 328.449686L401.889600 349.673026
L402.336000 340.305473L403.675200 349.690435L404.121600 335.801527
L404.568000 351.129665L405.014400 339.669914L405.460800 349.798198
L406.800000 350.708875L407.692800 339.816946L408.139200 349.313191
L409.478400 349.261394L410.371200 339.719054L410.817600 349.725730
L411.710400 328.751914L412.156800 338.762542L412.603200 324.378000
L413.049600 350.393947L413.942400 326.373797L414.388800 348.544966
L414.835200 344.190838L415.281600 350.605476L416.174400 341.495352
L416.620800 349.147973L417.067200 350.211038L418.406400 350.576381
L418.852800 333.290246L419.299200 349.856086L419.745600 330.937056
L420.192000 351.140702L421.084800 339.794590L421.531200 351.272700
L421.977600 338.925103L422.424000 348.823606L422.870400 350.018474
L423.316800 340.414920L423.763200 349.321486L424.209600 339.561461
L424.656000 341.953294L425.102400 351.530150L425.995200 339.167520
L426.441600 349.485646L427.780800 339.404515L428.227200 331.033889
L428.673600 350.701164L429.120000 349.556105L429.566400 341.626853
L430.459200 349.566689L431.798400 348.925990L432.244800 347.547866
L432.691200 327.346963L433.137600 328.746060L433.584000 349.184002
L434.030400 307.528034L434.476800 350.062042L434.923200 343.062821
L435.369600 349.987154L436.708800 350.615974L437.601600 342.618142
L438.048000 349.356672L439.387200 350.500673L440.726400 350.315410
L441.172800 335.513340L441.619200 348.123204L442.512000 327.731573
L442.958400 350.494258L443.404800 337.339642L443.851200 349.570858
L444.297600 330.277781L444.744000 350.167579L445.636800 342.562846
L446.083200 349.909675L446.976000 339.427368L447.422400 301.580928
L448.315200 345.229668L448.761600 349.699356L450.100800 350.439847
L450.993600 343.426198L451.440000 350.029922L452.779200 350.553290
L453.672000 343.024934L454.118400 349.944106L455.011200 348.060737
L455.457600 350.236418L455.904000 348.547039L456.350400 344.760948
L456.796800 350.410212L457.689600 317.375496L458.136000 349.687692
L459.475200 350.855582L459.921600 339.353150L460.368000 311.814965
L460.814400 350.320291L461.260800 349.044790L461.707200 328.397090
L462.153600 348.485868L462.600000 349.960219L463.046400 317.855232
L463.939200 339.235862L464.385600 349.925875L465.724800 350.319967
L467.064000 339.476962L467.510400 350.468186L467.956800 349.383434
L468.403200 334.075147L468.849600 349.422250L470.188800 349.715491
L470.635200 338.616850L471.081600 347.851541L471.528000 349.588634
L471.974400 339.775106L472.420800 350.723650L473.313600 343.411488
L473.760000 350.025149L474.652800 339.334618L475.099200 350.126258
L476.438400 350.653255L477.331200 339.047554L477.777600 349.890710
L479.116800 339.039691L479.563200 332.111794L480.009600 350.083620
L480.456000 323.733758L480.902400 349.825522L482.241600 350.086190
L483.134400 349.083410L483.580800 339.845112L484.027200 350.532706
L484.473600 340.364743L484.920000 350.197495L485.366400 330.891934
L486.259200 348.463750L487.152000 335.567729L487.598400 349.286731
L488.044800 339.751606L488.491200 350.702114L489.830400 349.061659
L490.723200 350.306770L491.616000 349.219102L492.955200 349.783294
L495.633600 350.154922L496.080000 338.971176L496.526400 348.343049
L497.419200 339.272885L497.865600 351.459324L498.312000 329.576666
L499.204800 350.072626L500.544000 347.318518L500.990400 349.712143
L501.883200 308.117261L502.329600 349.327296L503.668800 324.137376
L504.115200 349.447565L505.454400 349.947670L506.347200 342.504806
L506.793600 350.616168L508.132800 333.079906L508.579200 349.949419
L509.025600 329.081551L509.472000 351.269158L509.918400 338.048359
L510.364800 349.428017L511.704000 337.257778L512.150400 350.777995
L513.043200 349.743139L514.382400 349.903066L515.275200 344.760926
L515.721600 349.622525L516.614400 318.942144L517.060800 350.951962
L517.507200 345.177266L517.953600 348.920784L517.953600 348.920784"/>
</g>
<g id="matplotlib.axis1">
<g id="xtick1">
<g id="line2d2">
<path style="fill: none; stroke: #000000; stroke-width: 0.500000; stroke-linejoin: round; stroke-linecap: butt; stroke-dasharray: 1.000000,3.000000; stroke-dashoffset: 0.000000; opacity: 1.000000" clip-path="url(#p50431ccdcb28178602d99d9270004dde)" d="M72.000000 388.800000L72.000000 43.200000"/>
</g>
<g id="line2d3">
<defs><path id="m30e32995789d870ad79a2e54c91cf9c6" d="M0.000000 0.000000L0.000000 -4.000000"/></defs>
<g ><use style="fill: none; stroke: #000000; stroke-width: 0.500000; stroke-linejoin: round; stroke-linecap: butt;  opacity: 1.000000" xlink:href="#m30e32995789d870ad79a2e54c91cf9c6" x="72.000000" y="388.800000"/>
</g></g>
<g id="line2d4">
<defs><path id="m9281cae24120827b11d5ea8a7ad3e96b" d="M0.000000 0.000000L0.000000 4.000000"/></defs>
<g ><use style="fill: none; stroke: #000000; stroke-width: 0.500000; stroke-linejoin: round; stroke-linecap: butt;  opacity: 1.000000" xlink:href="#m9281cae24120827b11d5ea8a7ad3e96b" x="72.000000" y="43.200000"/>
</g></g>
<g id="text1">
<defs>
<path id="c_7a2040fe3b94fcd41d0a72c84e93b115" d="M31.781250 -66.406250q-7.609375 0.000000 -11.453125 7.500000q-3.828125 7.484375 -3.828125 22.531250q0.000000 14.984375 3.828125 22.484375q3.843750 7.500000 11.453125 7.500000q7.671875 0.000000 11.500000 -7.500000q3.843750 -7.500000 3.843750 -22.484375q0.000000 -15.046875 -3.843750 -22.531250q-3.828125 -7.500000 -11.500000 -7.500000M31.781250 -74.218750q12.265625 0.000000 18.734375 9.703125q6.468750 9.687500 6.468750 28.140625q0.000000 18.406250 -6.468750 28.109375q-6.468750 9.687500 -18.734375 9.687500q-12.250000 0.000000 -18.718750 -9.687500q-6.468750 -9.703125 -6.468750 -28.109375q0.000000 -18.453125 6.468750 -28.140625q6.468750 -9.703125 18.718750 -9.703125"/>
</defs>
<g style="fill: #000000; opacity: 1.000000" transform="translate(68.976562,401.706250)scale(0.120000)">
<use xlink:href="#c_7a2040fe3b94fcd41d0a72c84e93b115"/>
</g>
</g>
</g>
<g id="xtick2">
<g id="line2d5">
<path style="fill: none; stroke: #000000; stroke-width: 0.500000; stroke-linejoin: round; stroke-linecap: butt; stroke-dasharray: 1.000000,3.000000; stroke-dashoffset: 0.000000; opacity: 1.000000" clip-path="url(#p50431ccdcb28178602d99d9270004dde)" d="M161.280000 388.800000L161.280000 43.200000"/>
</g>
<g id="line2d6">
<g ><use style="fill: none; stroke: #000000; stroke-width: 0.500000; stroke-linejoin: round; stroke-linecap: butt;  opacity: 1.000000" xlink:href="#m30e32995789d870ad79a2e54c91cf9c6" x="161.280000" y="388.800000"/>
</g></g>
<g id="line2d7">
<g ><use style="fill: none; stroke: #000000; stroke-width: 0.500000; stroke-linejoin: round; stroke-linecap: butt;  opacity: 1.000000" xlink:href="#m9281cae24120827b11d5ea8a7ad3e96b" x="161.280000" y="43.200000"/>
</g></g>
<g id="text2">
<defs>
<path id="c_ed3f3ed3ebfbd18bcb9c012009a68ad1" d="M19.187500 -8.296875l34.421875 0.000000l0.000000 8.296875l-46.281250 0.000000l0.000000 -8.296875q5.609375 -5.812500 15.296875 -15.593750q9.703125 -9.796875 12.187500 -12.640625q4.734375 -5.312500 6.609375 -9.000000q1.890625 -3.687500 1.890625 -7.250000q0.000000 -5.812500 -4.078125 -9.468750q-4.078125 -3.671875 -10.625000 -3.671875q-4.640625 0.000000 -9.796875 1.609375q-5.140625 1.609375 -11.000000 4.890625l0.000000 -9.968750q5.953125 -2.390625 11.125000 -3.609375q5.187500 -1.218750 9.484375 -1.218750q11.328125 0.000000 18.062500 5.671875q6.734375 5.656250 6.734375 15.125000q0.000000 4.500000 -1.687500 8.531250q-1.671875 4.015625 -6.125000 9.484375q-1.218750 1.421875 -7.765625 8.187500q-6.531250 6.765625 -18.453125 18.921875"/>
</defs>
<g style="fill: #000000; opacity: 1.000000" transform="translate(150.655000,401.706250)scale(0.120000)">
<use xlink:href="#c_ed3f3ed3ebfbd18bcb9c012009a68ad1"/>
<use xlink:href="#c_7a2040fe3b94fcd41d0a72c84e93b115" x="63.623047"/>
<use xlink:href="#c_7a2040fe3b94fcd41d0a72c84e93b115" x="127.246094"/>
</g>
</g>
</g>
<g id="xtick3">
<g id="line2d8">
<path style="fill: none; stroke: #000000; stroke-width: 0.500000; stroke-linejoin: round; stroke-linecap: butt; stroke-dasharray: 1.000000,3.000000; stroke-dashoffset: 0.000000; opacity: 1.000000" clip-path="url(#p50431ccdcb28178602d99d9270004dde)" d="M250.560000 388.800000L250.560000 43.200000"/>
</g>
<g id="line2d9">
<g ><use style="fill: none; stroke: #000000; stroke-width: 0.500000; stroke-linejoin: round; stroke-linecap: butt;  opacity: 1.000000" xlink:href="#m30e32995789d870ad79a2e54c91cf9c6" x="250.560000" y="388.800000"/>
</g></g>
<g id="line2d10">
<g ><use style="fill: none; stroke: #000000; stroke-width: 0.500000; stroke-linejoin: round; stroke-linecap: butt;  opacity: 1.000000" xlink:href="#m9281cae24120827b11d5ea8a7ad3e96b" x="250.560000" y="43.200000"/>
</g></g>
<g id="text3">
<defs>
<path id="c_a0416418d96557a09b8c1332d34883ba" d="M37.796875 -64.312500l-24.906250 38.921875l24.906250 0.000000zM35.203125 -72.906250l12.406250 0.000000l0.000000 47.515625l10.406250 0.000000l0.000000 8.203125l-10.406250 0.000000l0.000000 17.187500l-9.812500 0.000000l0.000000 -17.187500l-32.906250 0.000000l0.000000 -9.515625z"/>
</defs>
<g style="fill: #000000; opacity: 1.000000" transform="translate(239.794375,401.706250)scale(0.120000)">
<use xlink:href="#c_a0416418d96557a09b8c1332d34883ba"/>
<use xlink:href="#c_7a2040fe3b94fcd41d0a72c84e93b115" x="63.623047"/>
<use xlink:href="#c_7a2040fe3b94fcd41d0a72c84e93b115" x="127.246094"/>
</g>
</g>
</g>
<g id="xtick4">
<g id="line2d11">
<path style="fill: none; stroke: #000000; stroke-width: 0.500000; stroke-linejoin: round; stroke-linecap: butt; stroke-dasharray: 1.000000,3.000000; stroke-dashoffset: 0.000000; opacity: 1.000000" clip-path="url(#p50431ccdcb28178602d99d9270004dde)" d="M339.840000 388.800000L339.840000 43.200000"/>
</g>
<g id="line2d12">
<g ><use style="fill: none; stroke: #000000; stroke-width: 0.500000; stroke-linejoin: round; stroke-linecap: butt;  opacity: 1.000000" xlink:href="#m30e32995789d870ad79a2e54c91cf9c6" x="339.840000" y="388.800000"/>
</g></g>
<g id="line2d13">
<g ><use style="fill: none; stroke: #000000; stroke-width: 0.500000; stroke-linejoin: round; stroke-linecap: butt;  opacity: 1.000000" xlink:href="#m9281cae24120827b11d5ea8a7ad3e96b" x="339.840000" y="43.200000"/>
</g></g>
<g id="text4">
<defs>
<path id="c_cc8d6d580d1b10c8632f7a42cd53db8a" d="M33.015625 -40.375000q-6.640625 0.000000 -10.531250 4.546875q-3.875000 4.531250 -3.875000 12.437500q0.000000 7.859375 3.875000 12.437500q3.890625 4.562500 10.531250 4.562500q6.640625 0.000000 10.515625 -4.562500q3.875000 -4.578125 3.875000 -12.437500q0.000000 -7.906250 -3.875000 -12.437500q-3.875000 -4.546875 -10.515625 -4.546875M52.593750 -71.296875l0.000000 8.984375q-3.718750 -1.750000 -7.500000 -2.671875q-3.781250 -0.937500 -7.500000 -0.937500q-9.765625 0.000000 -14.921875 6.593750q-5.140625 6.593750 -5.875000 19.921875q2.875000 -4.250000 7.218750 -6.515625q4.359375 -2.265625 9.578125 -2.265625q10.984375 0.000000 17.359375 6.671875q6.375000 6.656250 6.375000 18.125000q0.000000 11.234375 -6.640625 18.031250q-6.640625 6.781250 -17.671875 6.781250q-12.656250 0.000000 -19.343750 -9.687500q-6.687500 -9.703125 -6.687500 -28.109375q0.000000 -17.281250 8.203125 -27.562500q8.203125 -10.281250 22.015625 -10.281250q3.718750 0.000000 7.500000 0.734375q3.781250 0.734375 7.890625 2.187500"/>
</defs>
<g style="fill: #000000; opacity: 1.000000" transform="translate(329.199375,401.706250)scale(0.120000)">
<use xlink:href="#c_cc8d6d580d1b10c8632f7a42cd53db8a"/>
<use xlink:href="#c_7a2040fe3b94fcd41d0a72c84e93b115" x="63.623047"/>
<use xlink:href="#c_7a2040fe3b94fcd41d0a72c84e93b115" x="127.246094"/>
</g>
</g>
</g>
<g id="xtick5">
<g id="line2d14">
<path style="fill: none; stroke: #000000; stroke-width: 0.500000; stroke-linejoin: round; stroke-linecap: butt; stroke-dasharray: 1.000000,3.000000; stroke-dashoffset: 0.000000; opacity: 1.000000" clip-path="url(#p50431ccdcb28178602d99d9270004dde)" d="M429.120000 388.800000L429.120000 43.200000"/>
</g>
<g id="line2d15">
<g ><use style="fill: none; stroke: #000000; stroke-width: 0.500000; stroke-linejoin: round; stroke-linecap: butt;  opacity: 1.000000" xlink:href="#m30e32995789d870ad79a2e54c91cf9c6" x="429.120000" y="388.800000"/>
</g></g>
<g id="line2d16">
<g ><use style="fill: none; stroke: #000000; stroke-width: 0.500000; stroke-linejoin: round; stroke-linecap: butt;  opacity: 1.000000" xlink:href="#m9281cae24120827b11d5ea8a7ad3e96b" x="429.120000" y="43.200000"/>
</g></g>
<g id="text5">
<defs>
<path id="c_bef35738d52871942e50b9de9b122bab" d="M31.781250 -34.625000q-7.031250 0.000000 -11.062500 3.765625q-4.015625 3.765625 -4.015625 10.343750q0.000000 6.593750 4.015625 10.359375q4.031250 3.765625 11.062500 3.765625q7.031250 0.000000 11.078125 -3.781250q4.062500 -3.796875 4.062500 -10.343750q0.000000 -6.578125 -4.031250 -10.343750q-4.015625 -3.765625 -11.109375 -3.765625M21.921875 -38.812500q-6.343750 -1.562500 -9.890625 -5.906250q-3.531250 -4.359375 -3.531250 -10.609375q0.000000 -8.734375 6.218750 -13.812500q6.234375 -5.078125 17.062500 -5.078125q10.890625 0.000000 17.093750 5.078125q6.203125 5.078125 6.203125 13.812500q0.000000 6.250000 -3.546875 10.609375q-3.531250 4.343750 -9.828125 5.906250q7.125000 1.656250 11.093750 6.500000q3.984375 4.828125 3.984375 11.796875q0.000000 10.609375 -6.468750 16.281250q-6.468750 5.656250 -18.531250 5.656250q-12.046875 0.000000 -18.531250 -5.656250q-6.468750 -5.671875 -6.468750 -16.281250q0.000000 -6.968750 4.000000 -11.796875q4.015625 -4.843750 11.140625 -6.500000M18.312500 -54.390625q0.000000 5.656250 3.531250 8.828125q3.546875 3.171875 9.937500 3.171875q6.359375 0.000000 9.937500 -3.171875q3.593750 -3.171875 3.593750 -8.828125q0.000000 -5.671875 -3.593750 -8.843750q-3.578125 -3.171875 -9.937500 -3.171875q-6.390625 0.000000 -9.937500 3.171875q-3.531250 3.171875 -3.531250 8.843750"/>
</defs>
<g style="fill: #000000; opacity: 1.000000" transform="translate(418.463750,401.706250)scale(0.120000)">
<use xlink:href="#c_bef35738d52871942e50b9de9b122bab"/>
<use xlink:href="#c_7a2040fe3b94fcd41d0a72c84e93b115" x="63.623047"/>
<use xlink:href="#c_7a2040fe3b94fcd41d0a72c84e93b115" x="127.246094"/>
</g>
</g>
</g>
<g id="xtick6">
<g id="line2d17">
<path style="fill: none; stroke: #000000; stroke-width: 0.500000; stroke-linejoin: round; stroke-linecap: butt; stroke-dasharray: 1.000000,3.000000; stroke-dashoffset: 0.000000; opacity: 1.000000" clip-path="url(#p50431ccdcb28178602d99d9270004dde)" d="M518.400000 388.800000L518.400000 43.200000"/>
</g>
<g id="line2d18">
<g ><use style="fill: none; stroke: #000000; stroke-width: 0.500000; stroke-linejoin: round; stroke-linecap: butt;  opacity: 1.000000" xlink:href="#m30e32995789d870ad79a2e54c91cf9c6" x="518.400000" y="388.800000"/>
</g></g>
<g id="line2d19">
<g ><use style="fill: none; stroke: #000000; stroke-width: 0.500000; stroke-linejoin: round; stroke-linecap: butt;  opacity: 1.000000" xlink:href="#m9281cae24120827b11d5ea8a7ad3e96b" x="518.400000" y="43.200000"/>
</g></g>
<g id="text6">
<defs>
<path id="c_42baa63129a918535c52adb20d687ea7" d="M12.406250 -8.296875l16.109375 0.000000l0.000000 -55.625000l-17.531250 3.515625l0.000000 -8.984375l17.437500 -3.515625l9.859375 0.000000l0.000000 64.609375l16.109375 0.000000l0.000000 8.296875l-41.984375 0.000000z"/>
</defs>
<g style="fill: #000000; opacity: 1.000000" transform="translate(504.173437,401.706250)scale(0.120000)">
<use xlink:href="#c_42baa63129a918535c52adb20d687ea7"/>
<use xlink:href="#c_7a2040fe3b94fcd41d0a72c84e93b115" x="63.623047"/>
<use xlink:href="#c_7a2040fe3b94fcd41d0a72c84e93b115" x="127.246094"/>
<use xlink:href="#c_7a2040fe3b94fcd41d0a72c84e93b115" x="190.869141"/>
</g>
</g>
</g>
</g>
<g id="matplotlib.axis2">
<g id="ytick1">
<g id="line2d20">
<path style="fill: none; stroke: #000000; stroke-width: 0.500000; stroke-linejoin: round; stroke-linecap: butt; stroke-dasharray: 1.000000,3.000000; stroke-dashoffset: 0.000000; opacity: 1.000000" clip-path="url(#p50431ccdcb28178602d99d9270004dde)" d="M72.000000 388.800000L518.400000 388.800000"/>
</g>
<g id="line2d21">
<defs><path id="m3400efa6b1638b3fea9e19e898273957" d="M0.000000 0.000000L4.000000 0.000000"/></defs>
<g ><use style="fill: none; stroke: #000000; stroke-width: 0.500000; stroke-linejoin: round; stroke-linecap: butt;  opacity: 1.000000" xlink:href="#m3400efa6b1638b3fea9e19e898273957" x="72.000000" y="388.800000"/>
</g></g>
<g id="line2d22">
<defs><path id="m20b58b2501143cb5e0a5e8f1ef6f1643" d="M0.000000 0.000000L-4.000000 0.000000"/></defs>
<g ><use style="fill: none; stroke: #000000; stroke-width: 0.500000; stroke-linejoin: round; stroke-linecap: butt;  opacity: 1.000000" xlink:href="#m20b58b2501143cb5e0a5e8f1ef6f1643" x="518.400000" y="388.800000"/>
</g></g>
<g id="text7">
<defs>
<path id="c_ed3e21196fb739f392806f09ca0594ef" d="M10.687500 -12.406250l10.312500 0.000000l0.000000 12.406250l-10.312500 0.000000z"/>
</defs>
<g style="fill: #000000; opacity: 1.000000" transform="translate(35.625000,393.167188)scale(0.120000)">
<use xlink:href="#c_7a2040fe3b94fcd41d0a72c84e93b115"/>
<use xlink:href="#c_ed3e21196fb739f392806f09ca0594ef" x="63.623047"/>
<use xlink:href="#c_7a2040fe3b94fcd41d0a72c84e93b115" x="95.410156"/>
<use xlink:href="#c_7a2040fe3b94fcd41d0a72c84e93b115" x="159.033203"/>
<use xlink:href="#c_ed3f3ed3ebfbd18bcb9c012009a68ad1" x="222.656250"/>
</g>
</g>
</g>
<g id="ytick2">
<g id="line2d23">
<path style="fill: none; stroke: #000000; stroke-width: 0.500000; stroke-linejoin: round; stroke-linecap: butt; stroke-dasharray: 1.000000,3.000000; stroke-dashoffset: 0.000000; opacity: 1.000000" clip-path="url(#p50431ccdcb28178602d99d9270004dde)" d="M72.000000 345.600000L518.400000 345.600000"/>
</g>
<g id="line2d24">
<g ><use style="fill: none; stroke: #000000; stroke-width: 0.500000; stroke-linejoin: round; stroke-linecap: butt;  opacity: 1.000000" xlink:href="#m3400efa6b1638b3fea9e19e898273957" x="72.000000" y="345.600000"/>
</g></g>
<g id="line2d25">
<g ><use style="fill: none; stroke: #000000; stroke-width: 0.500000; stroke-linejoin: round; stroke-linecap: butt;  opacity: 1.000000" xlink:href="#m20b58b2501143cb5e0a5e8f1ef6f1643" x="518.400000" y="345.600000"/>
</g></g>
<g id="text8">
<g style="fill: #000000; opacity: 1.000000" transform="translate(35.093750,349.967188)scale(0.120000)">
<use xlink:href="#c_7a2040fe3b94fcd41d0a72c84e93b115"/>
<use xlink:href="#c_ed3e21196fb739f392806f09ca0594ef" x="63.623047"/>
<use xlink:href="#c_7a2040fe3b94fcd41d0a72c84e93b115" x="95.410156"/>
<use xlink:href="#c_7a2040fe3b94fcd41d0a72c84e93b115" x="159.033203"/>
<use xlink:href="#c_a0416418d96557a09b8c1332d34883ba" x="222.656250"/>
</g>
</g>
</g>
<g id="ytick3">
<g id="line2d26">
<path style="fill: none; stroke: #000000; stroke-width: 0.500000; stroke-linejoin: round; stroke-linecap: butt; stroke-dasharray: 1.000000,3.000000; stroke-dashoffset: 0.000000; opacity: 1.000000" clip-path="url(#p50431ccdcb28178602d99d9270004dde)" d="M72.000000 302.400000L518.400000 302.400000"/>
</g>
<g id="line2d27">
<g ><use style="fill: none; stroke: #000000; stroke-width: 0.500000; stroke-linejoin: round; stroke-linecap: butt;  opacity: 1.000000" xlink:href="#m3400efa6b1638b3fea9e19e898273957" x="72.000000" y="302.400000"/>
</g></g>
<g id="line2d28">
<g ><use style="fill: none; stroke: #000000; stroke-width: 0.500000; stroke-linejoin: round; stroke-linecap: butt;  opacity: 1.000000" xlink:href="#m20b58b2501143cb5e0a5e8f1ef6f1643" x="518.400000" y="302.400000"/>
</g></g>
<g id="text9">
<g style="fill: #000000; opacity: 1.000000" transform="translate(35.187500,306.767188)scale(0.120000)">
<use xlink:href="#c_7a2040fe3b94fcd41d0a72c84e93b115"/>
<use xlink:href="#c_ed3e21196fb739f392806f09ca0594ef" x="63.623047"/>
<use xlink:href="#c_7a2040fe3b94fcd41d0a72c84e93b115" x="95.410156"/>
<use xlink:href="#c_7a2040fe3b94fcd41d0a72c84e93b115" x="159.033203"/>
<use xlink:href="#c_cc8d6d580d1b10c8632f7a42cd53db8a" x="222.656250"/>
</g>
</g>
</g>
<g id="ytick4">
<g id="line2d29">
<path style="fill: none; stroke: #000000; stroke-width: 0.500000; stroke-linejoin: round; stroke-linecap: butt; stroke-dasharray: 1.000000,3.000000; stroke-dashoffset: 0.000000; opacity: 1.000000" clip-path="url(#p50431ccdcb28178602d99d9270004dde)" d="M72.000000 259.200000L518.400000 259.200000"/>
</g>
<g id="line2d30">
<g ><use style="fill: none; stroke: #000000; stroke-width: 0.500000; stroke-linejoin: round; stroke-linecap: butt;  opacity: 1.000000" xlink:href="#m3400efa6b1638b3fea9e19e898273957" x="72.000000" y="259.200000"/>
</g></g>
<g id="line2d31">
<g ><use style="fill: none; stroke: #000000; stroke-width: 0.500000; stroke-linejoin: round; stroke-linecap: butt;  opacity: 1.000000" xlink:href="#m20b58b2501143cb5e0a5e8f1ef6f1643" x="518.400000" y="259.200000"/>
</g></g>
<g id="text10">
<g style="fill: #000000; opacity: 1.000000" transform="translate(35.250000,263.567187)scale(0.120000)">
<use xlink:href="#c_7a2040fe3b94fcd41d0a72c84e93b115"/>
<use xlink:href="#c_ed3e21196fb739f392806f09ca0594ef" x="63.623047"/>
<use xlink:href="#c_7a2040fe3b94fcd41d0a72c84e93b115" x="95.410156"/>
<use xlink:href="#c_7a2040fe3b94fcd41d0a72c84e93b115" x="159.033203"/>
<use xlink:href="#c_bef35738d52871942e50b9de9b122bab" x="222.656250"/>
</g>
</g>
</g>
<g id="ytick5">
<g id="line2d32">
<path style="fill: none; stroke: #000000; stroke-width: 0.500000; stroke-linejoin: round; stroke-linecap: butt; stroke-dasharray: 1.000000,3.000000; stroke-dashoffset: 0.000000; opacity: 1.000000" clip-path="url(#p50431ccdcb28178602d99d9270004dde)" d="M72.000000 216.000000L518.400000 216.000000"/>
</g>
<g id="line2d33">
<g ><use style="fill: none; stroke: #000000; stroke-width: 0.500000; stroke-linejoin: round; stroke-linecap: butt;  opacity: 1.000000" xlink:href="#m3400efa6b1638b3fea9e19e898273957" x="72.000000" y="216.000000"/>
</g></g>
<g id="line2d34">
<g ><use style="fill: none; stroke: #000000; stroke-width: 0.500000; stroke-linejoin: round; stroke-linecap: butt;  opacity: 1.000000" xlink:href="#m20b58b2501143cb5e0a5e8f1ef6f1643" x="518.400000" y="216.000000"/>
</g></g>
<g id="text11">
<g style="fill: #000000; opacity: 1.000000" transform="translate(35.218750,220.367188)scale(0.120000)">
<use xlink:href="#c_7a2040fe3b94fcd41d0a72c84e93b115"/>
<use xlink:href="#c_ed3e21196fb739f392806f09ca0594ef" x="63.623047"/>
<use xlink:href="#c_7a2040fe3b94fcd41d0a72c84e93b115" x="95.410156"/>
<use xlink:href="#c_42baa63129a918535c52adb20d687ea7" x="159.033203"/>
<use xlink:href="#c_7a2040fe3b94fcd41d0a72c84e93b115" x="222.656250"/>
</g>
</g>
</g>
<g id="ytick6">
<g id="line2d35">
<path style="fill: none; stroke: #000000; stroke-width: 0.500000; stroke-linejoin: round; stroke-linecap: butt; stroke-dasharray: 1.000000,3.000000; stroke-dashoffset: 0.000000; opacity: 1.000000" clip-path="url(#p50431ccdcb28178602d99d9270004dde)" d="M72.000000 172.800000L518.400000 172.800000"/>
</g>
<g id="line2d36">
<g ><use style="fill: none; stroke: #000000; stroke-width: 0.500000; stroke-linejoin: round; stroke-linecap: butt;  opacity: 1.000000" xlink:href="#m3400efa6b1638b3fea9e19e898273957" x="72.000000" y="172.800000"/>
</g></g>
<g id="line2d37">
<g ><use style="fill: none; stroke: #000000; stroke-width: 0.500000; stroke-linejoin: round; stroke-linecap: butt;  opacity: 1.000000" xlink:href="#m20b58b2501143cb5e0a5e8f1ef6f1643" x="518.400000" y="172.800000"/>
</g></g>
<g id="text12">
<g style="fill: #000000; opacity: 1.000000" transform="translate(35.625000,177.167188)scale(0.120000)">
<use xlink:href="#c_7a2040fe3b94fcd41d0a72c84e93b115"/>
<use xlink:href="#c_ed3e21196fb739f392806f09ca0594ef" x="63.623047"/>
<use xlink:href="#c_7a2040fe3b94fcd41d0a72c84e93b115" x="95.410156"/>
<use xlink:href="#c_42baa63129a918535c52adb20d687ea7" x="159.033203"/>
<use xlink:href="#c_ed3f3ed3ebfbd18bcb9c012009a68ad1" x="222.656250"/>
</g>
</g>
</g>
<g id="ytick7">
<g id="line2d38">
<path style="fill: none; stroke: #000000; stroke-width: 0.500000; stroke-linejoin: round; stroke-linecap: butt; stroke-dasharray: 1.000000,3.000000; stroke-dashoffset: 0.000000; opacity: 1.000000" clip-path="url(#p50431ccdcb28178602d99d9270004dde)" d="M72.000000 129.600000L518.400000 129.600000"/>
</g>
<g id="line2d39">
<g ><use style="fill: none; stroke: #000000; stroke-width: 0.500000; stroke-linejoin: round; stroke-linecap: butt;  opacity: 1.000000" xlink:href="#m3400efa6b1638b3fea9e19e898273957" x="72.000000" y="129.600000"/>
</g></g>
<g id="line2d40">
<g ><use style="fill: none; stroke: #000000; stroke-width: 0.500000; stroke-linejoin: round; stroke-linecap: butt;  opacity: 1.000000" xlink:href="#m20b58b2501143cb5e0a5e8f1ef6f1643" x="518.400000" y="129.600000"/>
</g></g>
<g id="text13">
<g style="fill: #000000; opacity: 1.000000" transform="translate(35.093750,133.967187)scale(0.120000)">
<use xlink:href="#c_7a2040fe3b94fcd41d0a72c84e93b115"/>
<use xlink:href="#c_ed3e21196fb739f392806f09ca0594ef" x="63.623047"/>
<use xlink:href="#c_7a2040fe3b94fcd41d0a72c84e93b115" x="95.410156"/>
<use xlink:href="#c_42baa63129a918535c52adb20d687ea7" x="159.033203"/>
<use xlink:href="#c_a0416418d96557a09b8c1332d34883ba" x="222.656250"/>
</g>
</g>
</g>
<g id="ytick8">
<g id="line2d41">
<path style="fill: none; stroke: #000000; stroke-width: 0.500000; stroke-linejoin: round; stroke-linecap: butt; stroke-dasharray: 1.000000,3.000000; stroke-dashoffset: 0.000000; opacity: 1.000000" clip-path="url(#p50431ccdcb28178602d99d9270004dde)" d="M72.000000 86.400000L518.400000 86.400000"/>
</g>
<g id="line2d42">
<g ><use style="fill: none; stroke: #000000; stroke-width: 0.500000; stroke-linejoin: round; stroke-linecap: butt;  opacity: 1.000000" xlink:href="#m3400efa6b1638b3fea9e19e898273957" x="72.000000" y="86.400000"/>
</g></g>
<g id="line2d43">
<g ><use style="fill: none; stroke: #000000; stroke-width: 0.500000; stroke-linejoin: round; stroke-linecap: butt;  opacity: 1.000000" xlink:href="#m20b58b2501143cb5e0a5e8f1ef6f1643" x="518.400000" y="86.400000"/>
</g></g>
<g id="text14">
<g style="fill: #000000; opacity: 1.000000" transform="translate(35.187500,90.767187)scale(0.120000)">
<use xlink:href="#c_7a2040fe3b94fcd41d0a72c84e93b115"/>
<use xlink:href="#c_ed3e21196fb739f392806f09ca0594ef" x="63.623047"/>
<use xlink:href="#c_7a2040fe3b94fcd41d0a72c84e93b115" x="95.410156"/>
<use xlink:href="#c_42baa63129a918535c52adb20d687ea7" x="159.033203"/>
<use xlink:href="#c_cc8d6d580d1b10c8632f7a42cd53db8a" x="222.656250"/>
</g>
</g>
</g>
<g id="ytick9">
<g id="line2d44">
<path style="fill: none; stroke: #000000; stroke-width: 0.500000; stroke-linejoin: round; stroke-linecap: butt; stroke-dasharray: 1.000000,3.000000; stroke-dashoffset: 0.000000; opacity: 1.000000" clip-path="url(#p50431ccdcb28178602d99d9270004dde)" d="M72.000000 43.200000L518.400000 43.200000"/>
</g>
<g id="line2d45">
<g ><use style="fill: none; stroke: #000000; stroke-width: 0.500000; stroke-linejoin: round; stroke-linecap: butt;  opacity: 1.000000" xlink:href="#m3400efa6b1638b3fea9e19e898273957" x="72.000000" y="43.200000"/>
</g></g>
<g id="line2d46">
<g ><use style="fill: none; stroke: #000000; stroke-width: 0.500000; stroke-linejoin: round; stroke-linecap: butt;  opacity: 1.000000" xlink:href="#m20b58b2501143cb5e0a5e8f1ef6f1643" x="518.400000" y="43.200000"/>
</g></g>
<g id="text15">
<g style="fill: #000000; opacity: 1.000000" transform="translate(35.250000,47.567187)scale(0.120000)">
<use xlink:href="#c_7a2040fe3b94fcd41d0a72c84e93b115"/>
<use xlink:href="#c_ed3e21196fb739f392806f09ca0594ef" x="63.623047"/>
<use xlink:href="#c_7a2040fe3b94fcd41d0a72c84e93b115" x="95.410156"/>
<use xlink:href="#c_42baa63129a918535c52adb20d687ea7" x="159.033203"/>
<use xlink:href="#c_bef35738d52871942e50b9de9b122bab" x="222.656250"/>
</g>
</g>
</g>
</g>
<g id="patch3">
<path style="fill: none; stroke: #000000; stroke-width: 1.000000; stroke-linejoin: round; stroke-linecap: square;  opacity: 1.000000"  d="M72.000000 43.200000L518.400000 43.200000"/>
</g>
<g id="patch4">
<path style="fill: none; stroke: #000000; stroke-width: 1.000000; stroke-linejoin: round; stroke-linecap: square;  opacity: 1.000000"  d="M518.400000 388.800000L518.400000 43.200000"/>
</g>
<g id="patch5">
<path style="fill: none; stroke: #000000; stroke-width: 1.000000; stroke-linejoin: round; stroke-linecap: square;  opacity: 1.000000"  d="M72.000000 388.800000L518.400000 388.800000"/>
</g>
<g id="patch6">
<path style="fill: none; stroke: #000000; stroke-width: 1.000000; stroke-linejoin: round; stroke-linecap: square;  opacity: 1.000000"  d="M72.000000 388.800000L72.000000 43.200000"/>
</g>
</g>
</g>
</svg>
