<?xml version="1.0" standalone="no"?>
<!DOCTYPE svg PUBLIC "-//W3C//DTD SVG 1.1//EN"
  "http://www.w3.org/Graphics/SVG/1.1/DTD/svg11.dtd">
<!-- Created with matplotlib (http://matplotlib.sourceforge.net/) -->
<svg width="576pt" height="432pt" viewBox="0 0 576 432"
   xmlns="http://www.w3.org/2000/svg"
   xmlns:xlink="http://www.w3.org/1999/xlink"
   version="1.1"
   id="svg1">
<g id="figure1">
<g id="patch1">
<path style="fill: #ffffff; stroke: #ffffff; stroke-width: 1.000000; stroke-linejoin: round; stroke-linecap: square;  opacity: 1.000000"  d="M0.000000 432.000000L576.000000 432.000000L576.000000 0.000000
L0.000000 0.000000L0.000000 432.000000"/>
</g>
<g id="axes1">
<g id="patch2">
<path style="fill: #ffffff; opacity: 1.000000"  d="M72.000000 388.800000L518.400000 388.800000L518.400000 43.200000
L72.000000 43.200000L72.000000 388.800000"/>
</g>
<g id="line2d1">
<defs>
  <clipPath id="p50431ccdcb28178602d99d9270004dde">
<rect x="72.000000" y="43.200000" width="446.400000" height="345.600000"/>
  </clipPath>
</defs><path style="fill: none; stroke: #ff0000; stroke-width: 1.000000; stroke-linejoin: round; stroke-linecap: square;  opacity: 1.000000" clip-path="url(#p50431ccdcb28178602d99d9270004dde)" d="M72.000000 249.185367L72.446400 139.068333L72.892800 76.578580
L73.785600 232.509697L74.232000 138.280012L74.678400 148.346834
L75.124800 139.750690L75.571200 141.484402L76.017600 234.359744
L76.464000 145.954513L76.910400 248.925824L77.803200 163.317929
L78.249600 238.891502L78.696000 147.312821L79.142400 145.165274
L79.588800 236.519665L80.035200 238.500795L80.928000 144.858994
L81.374400 141.745348L81.820800 150.056592L82.267200 235.616251
L82.713600 233.057633L83.160000 214.160934L83.606400 254.229869
L84.499200 222.074168L84.945600 256.200621L85.392000 235.118576
L85.838400 237.503509L86.284800 234.669002L86.731200 148.213230
L87.177600 237.383630L87.624000 234.832434L88.070400 148.730931
L88.516800 234.676453L88.963200 145.596151L89.409600 235.690257
L89.856000 233.722337L90.302400 147.014859L90.748800 238.932384
L91.195200 144.482665L91.641600 233.780643L92.088000 172.434900
L92.534400 245.368264L92.980800 141.739227L93.427200 233.536610
L93.873600 239.570635L94.320000 236.411228L94.766400 342.045693
L95.212800 236.219201L95.659200 234.485631L96.105600 238.577601
L96.552000 142.863365L96.998400 188.012255L97.444800 275.280117
L97.891200 240.295800L98.337600 172.406223L98.784000 237.274393
L99.230400 144.377848L100.123200 268.679533L100.569600 130.016206
L101.016000 238.065337L101.462400 235.215222L102.355200 241.565095
L102.801600 238.021623L103.248000 225.150326L103.694400 254.363536
L104.587200 215.273023L105.033600 260.986710L105.926400 212.383497
L106.372800 258.572468L106.819200 240.768594L107.265600 239.429145
L107.712000 233.493607L108.158400 340.409692L108.604800 240.543897
L109.051200 226.826152L109.497600 250.804746L110.390400 222.224335
L110.836800 251.378547L111.729600 223.963761L112.176000 257.736664
L113.068800 217.588170L113.515200 259.226436L113.961600 236.761200
L114.408000 238.975475L114.854400 235.710813L115.747200 240.386276
L116.193600 209.515753L116.640000 259.320622L117.532800 225.195919
L117.979200 249.837062L118.425600 241.948764L118.872000 218.380567
L119.318400 260.715606L120.211200 219.736078L120.657600 262.111589
L121.104000 236.899658L121.550400 239.789182L122.443200 228.988594
L122.889600 237.978521L123.782400 233.505082L124.228800 245.368091
L125.121600 224.256635L125.568000 250.706637L126.014400 241.035619
L126.460800 218.926067L126.907200 256.743255L127.800000 214.293424
L128.246400 263.429648L128.692800 236.407180L129.139200 240.655595
L129.585600 232.529392L130.032000 341.122442L130.478400 234.841046
L130.924800 215.485715L131.371200 254.566101L132.264000 222.530494
L132.710400 258.041176L133.603200 215.696284L134.049600 256.236355
L134.942400 215.165986L135.388800 257.708417L135.835200 240.930854
L136.281600 237.256200L136.728000 227.796618L137.174400 239.418735
L138.067200 204.460526L138.513600 255.517560L139.406400 232.715414
L139.852800 242.810631L140.299200 239.026958L140.745600 222.645728
L141.192000 259.315540L141.638400 236.472348L142.531200 245.305524
L143.424000 235.118572L144.763200 239.459586L145.209600 209.673723
L145.656000 256.556744L146.548800 223.314905L146.995200 246.235708
L147.441600 240.457111L147.888000 216.912971L148.334400 264.458310
L149.227200 200.131628L149.673600 277.737918L150.120000 237.178513
L150.566400 233.217506L151.012800 242.547925L151.459200 226.902636
L151.905600 236.145043L152.798400 234.034274L153.244800 246.742367
L154.137600 222.010041L154.584000 252.614097L155.030400 242.273758
L155.476800 215.290336L155.923200 254.597016L156.369600 241.500806
L156.816000 217.998146L157.262400 259.924129L157.708800 233.075333
L158.155200 242.463971L158.601600 234.227467L159.048000 341.938211
L159.494400 235.216507L159.940800 231.011846L160.387200 251.014312
L161.280000 218.684393L161.726400 258.797806L162.619200 217.769910
L163.065600 254.606026L163.958400 228.120309L164.404800 257.217348
L165.297600 235.453539L166.190400 239.500236L166.636800 238.450409
L167.083200 230.953899L167.529600 241.289220L168.422400 189.050785
L168.868800 277.273977L169.315200 234.544150L169.761600 231.757540
L170.208000 246.280277L170.654400 237.101084L171.100800 212.824192
L171.547200 263.929356L171.993600 236.251767L172.886400 235.025998
L173.332800 240.168895L174.225600 233.599123L174.672000 241.958918
L175.118400 239.463325L175.564800 225.088398L176.011200 248.449765
L176.457600 240.091217L176.904000 242.075331L177.350400 235.703179
L177.796800 234.698381L178.243200 214.181955L178.689600 261.777055
L179.136000 237.567322L180.028800 241.534868L180.475200 234.911931
L180.921600 236.207201L181.814400 240.478021L182.707200 238.855541
L183.153600 231.561675L183.600000 244.735122L184.492800 235.566247
L184.939200 234.400711L185.385600 244.317029L185.832000 214.854160
L186.278400 261.277216L187.171200 218.143651L187.617600 264.126489
L188.064000 232.010627L188.956800 236.836258L189.849600 239.916802
L190.296000 235.290336L190.742400 192.988896L191.188800 278.861570
L191.635200 239.903406L192.081600 233.862684L192.528000 237.972907
L193.420800 210.237030L193.867200 262.464758L194.313600 238.218597
L194.760000 242.220149L195.652800 230.245654L196.099200 238.990930
L196.545600 237.348224L196.992000 242.634410L197.438400 234.805133
L197.884800 236.760105L198.331200 234.943843L198.777600 238.583623
L199.224000 215.814682L199.670400 263.180944L200.116800 223.136143
L200.563200 213.192325L201.009600 262.892722L201.902400 236.227085
L202.348800 232.834249L202.795200 342.085892L203.241600 238.023096
L203.688000 226.219516L204.134400 248.253566L204.580800 242.354860
L205.027200 217.659347L205.473600 256.070511L206.366400 224.975569
L206.812800 251.222222L207.705600 214.313329L208.152000 262.532344
L208.598400 237.170495L209.491200 233.667766L209.937600 236.593203
L210.830400 232.996339L211.276800 244.364664L211.723200 235.741116
L212.169600 220.432253L212.616000 253.703549L213.062400 239.363535
L213.508800 157.894131L213.955200 247.909394L214.401600 238.201154
L214.848000 206.683853L215.294400 270.579862L215.740800 235.245866
L216.187200 240.039814L216.633600 235.601617L217.972800 217.168071
L218.419200 253.643202L219.312000 227.045709L219.758400 252.074225
L220.204800 239.130774L220.651200 212.997111L221.097600 261.744405
L221.990400 213.356719L222.436800 258.146812L222.883200 240.203652
L223.329600 236.904384L224.222400 238.574126L225.115200 234.032090
L226.008000 243.570243L226.454400 226.307325L226.900800 247.792720
L227.347200 239.395273L227.793600 216.793144L228.240000 259.884386
L229.132800 213.908494L229.579200 264.607273L230.025600 235.122795
L230.918400 239.673646L231.364800 226.309477L231.811200 236.274759
L232.257600 237.456597L232.704000 230.202480L233.150400 246.416961
L234.043200 224.178850L234.489600 254.118967L234.936000 240.190824
L235.382400 212.009290L235.828800 257.606460L236.721600 220.682436
L237.168000 260.543363L237.614400 235.747351L238.060800 240.893991
L238.507200 237.548683L238.953600 341.576847L239.400000 235.378140
L239.846400 224.728326L240.292800 252.362550L241.185600 218.519325
L241.632000 257.610785L242.078400 239.884479L242.524800 238.813750
L242.971200 233.935225L243.417600 243.394042L243.864000 212.713090
L244.310400 258.942566L244.756800 237.520915L245.203200 242.867065
L246.096000 233.080403L246.542400 243.113038L246.988800 231.118820
L247.435200 241.577770L247.881600 237.530752L248.328000 228.294051
L248.774400 249.279292L249.220800 237.772125L249.667200 215.332932
L250.113600 263.010722L251.006400 209.434360L251.452800 265.706362
L251.899200 238.570594L252.792000 235.662412L253.238400 229.596105
L253.684800 239.032593L254.131200 238.030240L254.577600 232.087605
L255.024000 240.553136L255.916800 237.858100L257.256000 238.247599
L257.702400 242.234024L258.148800 235.710950L258.595200 214.771725
L259.041600 263.847972L259.488000 237.050387L260.380800 240.231149
L260.827200 342.864408L261.273600 235.825522L261.720000 213.881726
L262.166400 256.643810L263.059200 214.330582L263.505600 250.151505
L264.398400 220.334975L264.844800 252.350354L265.737600 217.890783
L266.184000 254.916349L266.630400 230.681509L267.076800 236.413393
L267.523200 230.613795L268.416000 234.820071L268.862400 233.704774
L269.308800 237.806287L270.201600 226.592069L270.648000 245.875251
L271.094400 236.631437L271.540800 210.301688L271.987200 261.090030
L272.880000 208.645711L273.326400 260.400640L274.219200 233.558423
L274.665600 224.319268L275.112000 238.785775L275.558400 233.492444
L276.004800 235.916446L277.344000 186.302023L277.790400 274.785646
L278.683200 215.425257L279.129600 255.946078L280.022400 214.905340
L280.468800 259.101338L280.915200 235.626394L281.808000 234.142897
L283.147200 235.290154L283.593600 238.003453L284.486400 225.519278
L284.932800 248.083822L285.825600 210.635206L286.272000 261.255270
L286.718400 235.674301L287.164800 155.256273L287.611200 259.336822
L288.057600 239.735183L288.504000 200.481150L288.950400 260.191587
L289.396800 228.976762L289.843200 238.677467L290.289600 234.696658
L291.628800 239.709240L292.521600 230.547273L292.968000 174.893911
L293.414400 239.409656L293.860800 237.925217L294.307200 212.454287
L294.753600 261.125591L295.200000 233.910407L295.646400 236.631471
L296.092800 230.206127L296.539200 235.796709L297.432000 228.015422
L297.878400 243.067527L298.324800 234.669360L298.771200 217.219425
L299.217600 248.691168L299.664000 239.193642L300.110400 170.988214
L300.556800 234.882174L301.003200 240.684270L301.449600 216.933513
L301.896000 255.165537L302.342400 232.952530L302.788800 242.067016
L303.235200 227.751629L303.681600 230.508879L304.128000 240.438704
L304.574400 230.784876L305.020800 239.911055L305.467200 235.341048
L305.913600 223.586537L306.360000 246.395730L307.252800 215.504810
L307.699200 260.076519L308.592000 208.718597L309.038400 261.482345
L309.484800 233.481585L309.931200 235.161473L310.377600 229.467850
L310.824000 235.734569L311.716800 229.934148L312.163200 242.549030
L312.609600 232.577968L313.056000 179.342412L313.502400 274.540733
L314.395200 230.601623L314.841600 240.823566L315.288000 233.455214
L315.734400 217.223364L316.180800 256.689678L316.627200 232.955882
L317.073600 237.126931L317.520000 232.658917L318.859200 236.332203
L319.752000 231.462366L320.198400 234.745374L320.644800 240.523235
L321.537600 232.400323L321.984000 239.233951L322.430400 234.761609
L322.876800 212.920931L323.323200 258.040972L323.769600 240.161766
L324.216000 236.045667L324.662400 221.681141L325.108800 239.462367
L325.555200 232.532525L326.001600 231.249366L326.894400 238.793335
L327.340800 219.802914L327.787200 244.739673L328.680000 237.077629
L329.572800 233.166657L330.019200 216.434736L330.465600 257.395844
L330.912000 234.267200L332.251200 236.761257L332.697600 229.468237
L333.144000 236.714670L334.036800 233.667369L334.483200 222.185411
L334.929600 249.576622L335.376000 234.021769L335.822400 230.440238
L336.268800 239.403712L336.715200 236.992545L337.161600 211.215992
L337.608000 257.912383L338.500800 235.483800L338.947200 228.226246
L339.393600 234.943786L340.286400 207.477950L340.732800 251.987658
L341.625600 233.812183L342.072000 229.688760L342.964800 237.486789
L343.411200 234.654155L344.304000 233.597308L344.750400 242.301460
L345.196800 231.169644L346.089600 228.696457L346.536000 238.635555
L347.428800 232.271779L347.875200 240.342848L348.768000 219.040982
L349.214400 242.427953L349.660800 238.907859L350.107200 217.521649
L350.553600 253.552408L351.446400 215.081147L351.892800 258.577654
L352.339200 233.162650L352.785600 236.252727L353.232000 229.613733
L354.571200 239.717488L355.464000 232.702542L355.910400 188.748974
L356.356800 277.588053L357.249600 211.708246L357.696000 258.364735
L358.588800 209.581111L359.035200 261.798846L359.928000 233.573155
L360.374400 224.276605L360.820800 238.603328L361.267200 232.880672
L361.713600 205.057740L362.160000 254.912633L362.606400 238.580418
L363.052800 182.301535L363.499200 276.111722L363.945600 238.256472
L364.838400 231.194971L365.731200 237.070415L366.177600 235.796768
L366.624000 211.680292L367.070400 261.339056L367.516800 227.432702
L367.963200 236.342662L368.856000 227.205606L369.302400 243.359022
L370.195200 231.205843L371.088000 239.876991L371.534400 213.822767
L371.980800 253.902545L372.873600 212.201486L373.320000 256.426548
L373.766400 231.727970L374.212800 241.118838L374.659200 228.324340
L375.105600 230.875325L375.552000 237.902298L375.998400 226.389967
L376.444800 238.205653L376.891200 234.810990L377.784000 237.360189
L378.230400 233.429023L378.676800 217.058782L379.123200 261.803218
L380.016000 201.028083L380.462400 264.662010L380.908800 233.880954
L381.801600 227.857391L382.248000 236.902147L382.694400 235.506202
L383.140800 203.804336L383.587200 258.885723L384.033600 222.195690
L384.480000 229.541117L384.926400 242.405470L385.372800 240.535753
L386.265600 225.579194L387.158400 239.980925L387.604800 232.834413
L388.497600 236.269097L388.944000 230.144839L389.836800 236.574317
L390.283200 241.331871L390.729600 233.687174L391.622400 186.210802
L392.068800 276.780680L392.961600 211.097049L393.408000 262.467058
L394.300800 213.699883L394.747200 257.119442L395.640000 232.819328
L396.086400 224.669748L396.532800 230.054695L396.979200 211.230172
L397.425600 254.546738L398.318400 222.730092L398.764800 244.941914
L399.211200 239.163682L399.657600 215.292939L400.104000 260.364442
L400.996800 217.460309L401.443200 256.362867L401.889600 236.219011
L402.782400 237.964491L403.228800 223.559118L403.675200 233.550755
L404.121600 230.378391L405.014400 241.443107L405.460800 234.841573
L405.907200 216.697945L406.353600 251.905827L407.246400 211.188079
L407.692800 258.244342L408.585600 211.653618L409.032000 258.619952
L409.478400 237.121657L409.924800 238.607080L410.371200 230.804077
L411.264000 237.337092L411.710400 231.272605L412.603200 239.040710
L413.049600 185.196782L413.496000 277.068397L414.388800 215.882363
L414.835200 259.157720L415.728000 204.569181L416.174400 265.755510
L416.620800 233.272325L417.067200 235.562927L417.513600 233.588636
L418.406400 231.445842L418.852800 228.396801L419.299200 242.154093
L420.192000 227.631609L420.638400 238.210849L421.084800 240.296041
L421.531200 210.939168L421.977600 253.689287L422.870400 212.850045
L423.316800 253.154325L423.763200 232.933089L424.209600 239.366649
L424.656000 231.977367L425.102400 230.961948L425.548800 237.226846
L425.995200 227.832756L426.441600 237.855286L426.888000 234.118683
L427.334400 220.865481L427.780800 246.920137L428.673600 215.860590
L429.120000 258.179330L430.012800 208.168381L430.459200 263.420874
L430.905600 232.766254L431.352000 235.257615L431.798400 229.279586
L432.244800 235.928791L433.137600 228.366871L433.584000 241.713614
L434.030400 233.590671L434.476800 218.209600L434.923200 247.873410
L435.369600 237.553532L435.816000 208.729100L436.262400 255.452182
L437.155200 210.997831L437.601600 257.778901L438.048000 231.919332
L438.494400 235.974476L438.940800 227.044246L439.387200 230.021614
L439.833600 236.529786L440.280000 207.364247L440.726400 252.921358
L441.172800 232.677386L441.619200 231.552342L442.065600 239.270081
L442.512000 235.218012L442.958400 210.093318L443.404800 261.013125
L444.297600 207.170776L444.744000 258.194959L445.190400 236.113490
L445.636800 234.061153L446.083200 227.995817L446.976000 234.753580
L447.868800 236.811078L448.315200 180.688472L448.761600 273.642535
L449.654400 211.836929L450.100800 255.496803L450.993600 216.747734
L451.440000 256.285634L451.886400 230.862429L452.332800 237.890074
L453.225600 221.850152L453.672000 234.332810L454.118400 233.019370
L455.011200 236.535884L455.457600 232.166156L455.904000 221.396374
L456.350400 249.666812L456.796800 234.717244L457.243200 233.052296
L457.689600 236.522197L458.136000 234.042833L458.582400 211.281600
L459.028800 257.675450L459.475200 237.693153L460.368000 225.125268
L460.814400 236.647309L461.260800 231.017686L461.707200 229.823840
L462.153600 237.567414L462.600000 235.093215L463.046400 220.796179
L463.492800 243.508455L463.939200 235.564445L464.385600 156.482413
L464.832000 248.118449L465.278400 231.900024L465.724800 202.142585
L466.171200 268.458648L467.064000 217.407445L467.510400 236.404649
L467.956800 233.446831L468.403200 215.128297L468.849600 252.739831
L469.296000 236.373506L469.742400 234.287896L470.188800 228.335122
L470.635200 233.336148L471.528000 234.741304L472.420800 238.565230
L472.867200 220.624679L473.313600 243.559042L473.760000 235.200484
L474.206400 236.271545L474.652800 232.804370L475.099200 239.250372
L475.545600 231.142191L475.992000 237.379955L476.438400 232.150679
L476.884800 239.157009L477.331200 232.290365L478.224000 238.661538
L479.116800 233.055382L480.009600 238.969016L480.456000 230.461190
L481.795200 230.934252L482.241600 235.328442L482.688000 233.263309
L483.134400 237.969144L483.580800 232.791258L484.027200 182.565246
L484.473600 275.975804L484.920000 237.123866L485.366400 231.781242
L486.259200 238.238323L486.705600 207.434939L487.152000 258.161303
L487.598400 234.314811L488.044800 238.257407L488.491200 228.945176
L488.937600 231.795284L489.384000 239.725164L489.830400 204.190139
L490.276800 254.812158L490.723200 229.748675L491.616000 243.206018
L492.062400 234.101989L492.955200 237.894714L493.401600 233.511159
L493.848000 210.733232L494.294400 259.998864L495.187200 224.042126
L495.633600 226.220914L496.080000 236.584953L496.526400 234.810568
L496.972800 202.745552L497.419200 250.932380L498.312000 220.316692
L498.758400 246.699448L499.204800 237.317741L499.651200 208.463872
L500.097600 256.937804L500.990400 212.516350L501.436800 261.831190
L501.883200 233.049647L502.329600 238.246342L502.776000 230.709286
L503.222400 229.655101L503.668800 237.109556L504.115200 229.486688
L504.561600 237.123183L505.454400 226.775620L505.900800 246.725060
L506.347200 234.909035L506.793600 212.576188L507.240000 261.458526
L508.132800 206.414196L508.579200 263.040137L509.025600 233.419036
L509.472000 235.454978L509.918400 227.479898L510.364800 234.230522
L511.257600 222.724686L511.704000 242.647281L512.596800 221.631363
L513.043200 247.120321L513.936000 230.145924L514.382400 231.554997
L514.828800 237.229084L515.721600 229.707735L516.614400 234.604962
L517.507200 232.744084L517.953600 235.503046L517.953600 235.503046"/>
</g>
<g id="matplotlib.axis1">
<g id="xtick1">
<g id="line2d2">
<path style="fill: none; stroke: #000000; stroke-width: 0.500000; stroke-linejoin: round; stroke-linecap: butt; stroke-dasharray: 1.000000,3.000000; stroke-dashoffset: 0.000000; opacity: 1.000000" clip-path="url(#p50431ccdcb28178602d99d9270004dde)" d="M72.000000 388.800000L72.000000 43.200000"/>
</g>
<g id="line2d3">
<defs><path id="m30e32995789d870ad79a2e54c91cf9c6" d="M0.000000 0.000000L0.000000 -4.000000"/></defs>
<g ><use style="fill: none; stroke: #000000; stroke-width: 0.500000; stroke-linejoin: round; stroke-linecap: butt;  opacity: 1.000000" xlink:href="#m30e32995789d870ad79a2e54c91cf9c6" x="72.000000" y="388.800000"/>
</g></g>
<g id="line2d4">
<defs><path id="m9281cae24120827b11d5ea8a7ad3e96b" d="M0.000000 0.000000L0.000000 4.000000"/></defs>
<g ><use style="fill: none; stroke: #000000; stroke-width: 0.500000; stroke-linejoin: round; stroke-linecap: butt;  opacity: 1.000000" xlink:href="#m9281cae24120827b11d5ea8a7ad3e96b" x="72.000000" y="43.200000"/>
</g></g>
<g id="text1">
<defs>
<path id="c_7a2040fe3b94fcd41d0a72c84e93b115" d="M31.781250 -66.406250q-7.609375 0.000000 -11.453125 7.500000q-3.828125 7.484375 -3.828125 22.531250q0.000000 14.984375 3.828125 22.484375q3.843750 7.500000 11.453125 7.500000q7.671875 0.000000 11.500000 -7.500000q3.843750 -7.500000 3.843750 -22.484375q0.000000 -15.046875 -3.843750 -22.531250q-3.828125 -7.500000 -11.500000 -7.500000M31.781250 -74.218750q12.265625 0.000000 18.734375 9.703125q6.468750 9.687500 6.468750 28.140625q0.000000 18.406250 -6.468750 28.109375q-6.468750 9.687500 -18.734375 9.687500q-12.250000 0.000000 -18.718750 -9.687500q-6.468750 -9.703125 -6.468750 -28.109375q0.000000 -18.453125 6.468750 -28.140625q6.468750 -9.703125 18.718750 -9.703125"/>
</defs>
<g style="fill: #000000; opacity: 1.000000" transform="translate(68.976562,401.706250)scale(0.120000)">
<use xlink:href="#c_7a2040fe3b94fcd41d0a72c84e93b115"/>
</g>
</g>
</g>
<g id="xtick2">
<g id="line2d5">
<path style="fill: none; stroke: #000000; stroke-width: 0.500000; stroke-linejoin: round; stroke-linecap: butt; stroke-dasharray: 1.000000,3.000000; stroke-dashoffset: 0.000000; opacity: 1.000000" clip-path="url(#p50431ccdcb28178602d99d9270004dde)" d="M161.280000 388.800000L161.280000 43.200000"/>
</g>
<g id="line2d6">
<g ><use style="fill: none; stroke: #000000; stroke-width: 0.500000; stroke-linejoin: round; stroke-linecap: butt;  opacity: 1.000000" xlink:href="#m30e32995789d870ad79a2e54c91cf9c6" x="161.280000" y="388.800000"/>
</g></g>
<g id="line2d7">
<g ><use style="fill: none; stroke: #000000; stroke-width: 0.500000; stroke-linejoin: round; stroke-linecap: butt;  opacity: 1.000000" xlink:href="#m9281cae24120827b11d5ea8a7ad3e96b" x="161.280000" y="43.200000"/>
</g></g>
<g id="text2">
<defs>
<path id="c_ed3f3ed3ebfbd18bcb9c012009a68ad1" d="M19.187500 -8.296875l34.421875 0.000000l0.000000 8.296875l-46.281250 0.000000l0.000000 -8.296875q5.609375 -5.812500 15.296875 -15.593750q9.703125 -9.796875 12.187500 -12.640625q4.734375 -5.312500 6.609375 -9.000000q1.890625 -3.687500 1.890625 -7.250000q0.000000 -5.812500 -4.078125 -9.468750q-4.078125 -3.671875 -10.625000 -3.671875q-4.640625 0.000000 -9.796875 1.609375q-5.140625 1.609375 -11.000000 4.890625l0.000000 -9.968750q5.953125 -2.390625 11.125000 -3.609375q5.187500 -1.218750 9.484375 -1.218750q11.328125 0.000000 18.062500 5.671875q6.734375 5.656250 6.734375 15.125000q0.000000 4.500000 -1.687500 8.531250q-1.671875 4.015625 -6.125000 9.484375q-1.218750 1.421875 -7.765625 8.187500q-6.531250 6.765625 -18.453125 18.921875"/>
</defs>
<g style="fill: #000000; opacity: 1.000000" transform="translate(150.655000,401.706250)scale(0.120000)">
<use xlink:href="#c_ed3f3ed3ebfbd18bcb9c012009a68ad1"/>
<use xlink:href="#c_7a2040fe3b94fcd41d0a72c84e93b115" x="63.623047"/>
<use xlink:href="#c_7a2040fe3b94fcd41d0a72c84e93b115" x="127.246094"/>
</g>
</g>
</g>
<g id="xtick3">
<g id="line2d8">
<path style="fill: none; stroke: #000000; stroke-width: 0.500000; stroke-linejoin: round; stroke-linecap: butt; stroke-dasharray: 1.000000,3.000000; stroke-dashoffset: 0.000000; opacity: 1.000000" clip-path="url(#p50431ccdcb28178602d99d9270004dde)" d="M250.560000 388.800000L250.560000 43.200000"/>
</g>
<g id="line2d9">
<g ><use style="fill: none; stroke: #000000; stroke-width: 0.500000; stroke-linejoin: round; stroke-linecap: butt;  opacity: 1.000000" xlink:href="#m30e32995789d870ad79a2e54c91cf9c6" x="250.560000" y="388.800000"/>
</g></g>
<g id="line2d10">
<g ><use style="fill: none; stroke: #000000; stroke-width: 0.500000; stroke-linejoin: round; stroke-linecap: butt;  opacity: 1.000000" xlink:href="#m9281cae24120827b11d5ea8a7ad3e96b" x="250.560000" y="43.200000"/>
</g></g>
<g id="text3">
<defs>
<path id="c_a0416418d96557a09b8c1332d34883ba" d="M37.796875 -64.312500l-24.906250 38.921875l24.906250 0.000000zM35.203125 -72.906250l12.406250 0.000000l0.000000 47.515625l10.406250 0.000000l0.000000 8.203125l-10.406250 0.000000l0.000000 17.187500l-9.812500 0.000000l0.000000 -17.187500l-32.906250 0.000000l0.000000 -9.515625z"/>
</defs>
<g style="fill: #000000; opacity: 1.000000" transform="translate(239.794375,401.706250)scale(0.120000)">
<use xlink:href="#c_a0416418d96557a09b8c1332d34883ba"/>
<use xlink:href="#c_7a2040fe3b94fcd41d0a72c84e93b115" x="63.623047"/>
<use xlink:href="#c_7a2040fe3b94fcd41d0a72c84e93b115" x="127.246094"/>
</g>
</g>
</g>
<g id="xtick4">
<g id="line2d11">
<path style="fill: none; stroke: #000000; stroke-width: 0.500000; stroke-linejoin: round; stroke-linecap: butt; stroke-dasharray: 1.000000,3.000000; stroke-dashoffset: 0.000000; opacity: 1.000000" clip-path="url(#p50431ccdcb28178602d99d9270004dde)" d="M339.840000 388.800000L339.840000 43.200000"/>
</g>
<g id="line2d12">
<g ><use style="fill: none; stroke: #000000; stroke-width: 0.500000; stroke-linejoin: round; stroke-linecap: butt;  opacity: 1.000000" xlink:href="#m30e32995789d870ad79a2e54c91cf9c6" x="339.840000" y="388.800000"/>
</g></g>
<g id="line2d13">
<g ><use style="fill: none; stroke: #000000; stroke-width: 0.500000; stroke-linejoin: round; stroke-linecap: butt;  opacity: 1.000000" xlink:href="#m9281cae24120827b11d5ea8a7ad3e96b" x="339.840000" y="43.200000"/>
</g></g>
<g id="text4">
<defs>
<path id="c_cc8d6d580d1b10c8632f7a42cd53db8a" d="M33.015625 -40.375000q-6.640625 0.000000 -10.531250 4.546875q-3.875000 4.531250 -3.875000 12.437500q0.000000 7.859375 3.875000 12.437500q3.890625 4.562500 10.531250 4.562500q6.640625 0.000000 10.515625 -4.562500q3.875000 -4.578125 3.875000 -12.437500q0.000000 -7.906250 -3.875000 -12.437500q-3.875000 -4.546875 -10.515625 -4.546875M52.593750 -71.296875l0.000000 8.984375q-3.718750 -1.750000 -7.500000 -2.671875q-3.781250 -0.937500 -7.500000 -0.937500q-9.765625 0.000000 -14.921875 6.593750q-5.140625 6.593750 -5.875000 19.921875q2.875000 -4.250000 7.218750 -6.515625q4.359375 -2.265625 9.578125 -2.265625q10.984375 0.000000 17.359375 6.671875q6.375000 6.656250 6.375000 18.125000q0.000000 11.234375 -6.640625 18.031250q-6.640625 6.781250 -17.671875 6.781250q-12.656250 0.000000 -19.343750 -9.687500q-6.687500 -9.703125 -6.687500 -28.109375q0.000000 -17.281250 8.203125 -27.562500q8.203125 -10.281250 22.015625 -10.281250q3.718750 0.000000 7.500000 0.734375q3.781250 0.734375 7.890625 2.187500"/>
</defs>
<g style="fill: #000000; opacity: 1.000000" transform="translate(329.199375,401.706250)scale(0.120000)">
<use xlink:href="#c_cc8d6d580d1b10c8632f7a42cd53db8a"/>
<use xlink:href="#c_7a2040fe3b94fcd41d0a72c84e93b115" x="63.623047"/>
<use xlink:href="#c_7a2040fe3b94fcd41d0a72c84e93b115" x="127.246094"/>
</g>
</g>
</g>
<g id="xtick5">
<g id="line2d14">
<path style="fill: none; stroke: #000000; stroke-width: 0.500000; stroke-linejoin: round; stroke-linecap: butt; stroke-dasharray: 1.000000,3.000000; stroke-dashoffset: 0.000000; opacity: 1.000000" clip-path="url(#p50431ccdcb28178602d99d9270004dde)" d="M429.120000 388.800000L429.120000 43.200000"/>
</g>
<g id="line2d15">
<g ><use style="fill: none; stroke: #000000; stroke-width: 0.500000; stroke-linejoin: round; stroke-linecap: butt;  opacity: 1.000000" xlink:href="#m30e32995789d870ad79a2e54c91cf9c6" x="429.120000" y="388.800000"/>
</g></g>
<g id="line2d16">
<g ><use style="fill: none; stroke: #000000; stroke-width: 0.500000; stroke-linejoin: round; stroke-linecap: butt;  opacity: 1.000000" xlink:href="#m9281cae24120827b11d5ea8a7ad3e96b" x="429.120000" y="43.200000"/>
</g></g>
<g id="text5">
<defs>
<path id="c_bef35738d52871942e50b9de9b122bab" d="M31.781250 -34.625000q-7.031250 0.000000 -11.062500 3.765625q-4.015625 3.765625 -4.015625 10.343750q0.000000 6.593750 4.015625 10.359375q4.031250 3.765625 11.062500 3.765625q7.031250 0.000000 11.078125 -3.781250q4.062500 -3.796875 4.062500 -10.343750q0.000000 -6.578125 -4.031250 -10.343750q-4.015625 -3.765625 -11.109375 -3.765625M21.921875 -38.812500q-6.343750 -1.562500 -9.890625 -5.906250q-3.531250 -4.359375 -3.531250 -10.609375q0.000000 -8.734375 6.218750 -13.812500q6.234375 -5.078125 17.062500 -5.078125q10.890625 0.000000 17.093750 5.078125q6.203125 5.078125 6.203125 13.812500q0.000000 6.250000 -3.546875 10.609375q-3.531250 4.343750 -9.828125 5.906250q7.125000 1.656250 11.093750 6.500000q3.984375 4.828125 3.984375 11.796875q0.000000 10.609375 -6.468750 16.281250q-6.468750 5.656250 -18.531250 5.656250q-12.046875 0.000000 -18.531250 -5.656250q-6.468750 -5.671875 -6.468750 -16.281250q0.000000 -6.968750 4.000000 -11.796875q4.015625 -4.843750 11.140625 -6.500000M18.312500 -54.390625q0.000000 5.656250 3.531250 8.828125q3.546875 3.171875 9.937500 3.171875q6.359375 0.000000 9.937500 -3.171875q3.593750 -3.171875 3.593750 -8.828125q0.000000 -5.671875 -3.593750 -8.843750q-3.578125 -3.171875 -9.937500 -3.171875q-6.390625 0.000000 -9.937500 3.171875q-3.531250 3.171875 -3.531250 8.843750"/>
</defs>
<g style="fill: #000000; opacity: 1.000000" transform="translate(418.463750,401.706250)scale(0.120000)">
<use xlink:href="#c_bef35738d52871942e50b9de9b122bab"/>
<use xlink:href="#c_7a2040fe3b94fcd41d0a72c84e93b115" x="63.623047"/>
<use xlink:href="#c_7a2040fe3b94fcd41d0a72c84e93b115" x="127.246094"/>
</g>
</g>
</g>
<g id="xtick6">
<g id="line2d17">
<path style="fill: none; stroke: #000000; stroke-width: 0.500000; stroke-linejoin: round; stroke-linecap: butt; stroke-dasharray: 1.000000,3.000000; stroke-dashoffset: 0.000000; opacity: 1.000000" clip-path="url(#p50431ccdcb28178602d99d9270004dde)" d="M518.400000 388.800000L518.400000 43.200000"/>
</g>
<g id="line2d18">
<g ><use style="fill: none; stroke: #000000; stroke-width: 0.500000; stroke-linejoin: round; stroke-linecap: butt;  opacity: 1.000000" xlink:href="#m30e32995789d870ad79a2e54c91cf9c6" x="518.400000" y="388.800000"/>
</g></g>
<g id="line2d19">
<g ><use style="fill: none; stroke: #000000; stroke-width: 0.500000; stroke-linejoin: round; stroke-linecap: butt;  opacity: 1.000000" xlink:href="#m9281cae24120827b11d5ea8a7ad3e96b" x="518.400000" y="43.200000"/>
</g></g>
<g id="text6">
<defs>
<path id="c_42baa63129a918535c52adb20d687ea7" d="M12.406250 -8.296875l16.109375 0.000000l0.000000 -55.625000l-17.531250 3.515625l0.000000 -8.984375l17.437500 -3.515625l9.859375 0.000000l0.000000 64.609375l16.109375 0.000000l0.000000 8.296875l-41.984375 0.000000z"/>
</defs>
<g style="fill: #000000; opacity: 1.000000" transform="translate(504.173437,401.706250)scale(0.120000)">
<use xlink:href="#c_42baa63129a918535c52adb20d687ea7"/>
<use xlink:href="#c_7a2040fe3b94fcd41d0a72c84e93b115" x="63.623047"/>
<use xlink:href="#c_7a2040fe3b94fcd41d0a72c84e93b115" x="127.246094"/>
<use xlink:href="#c_7a2040fe3b94fcd41d0a72c84e93b115" x="190.869141"/>
</g>
</g>
</g>
</g>
<g id="matplotlib.axis2">
<g id="ytick1">
<g id="line2d20">
<path style="fill: none; stroke: #000000; stroke-width: 0.500000; stroke-linejoin: round; stroke-linecap: butt; stroke-dasharray: 1.000000,3.000000; stroke-dashoffset: 0.000000; opacity: 1.000000" clip-path="url(#p50431ccdcb28178602d99d9270004dde)" d="M72.000000 388.800000L518.400000 388.800000"/>
</g>
<g id="line2d21">
<defs><path id="m3400efa6b1638b3fea9e19e898273957" d="M0.000000 0.000000L4.000000 0.000000"/></defs>
<g ><use style="fill: none; stroke: #000000; stroke-width: 0.500000; stroke-linejoin: round; stroke-linecap: butt;  opacity: 1.000000" xlink:href="#m3400efa6b1638b3fea9e19e898273957" x="72.000000" y="388.800000"/>
</g></g>
<g id="line2d22">
<defs><path id="m20b58b2501143cb5e0a5e8f1ef6f1643" d="M0.000000 0.000000L-4.000000 0.000000"/></defs>
<g ><use style="fill: none; stroke: #000000; stroke-width: 0.500000; stroke-linejoin: round; stroke-linecap: butt;  opacity: 1.000000" xlink:href="#m20b58b2501143cb5e0a5e8f1ef6f1643" x="518.400000" y="388.800000"/>
</g></g>
<g id="text7">
<defs>
<path id="c_ed3e21196fb739f392806f09ca0594ef" d="M10.687500 -12.406250l10.312500 0.000000l0.000000 12.406250l-10.312500 0.000000z"/>
</defs>
<g style="fill: #000000; opacity: 1.000000" transform="translate(50.500000,393.167188)scale(0.120000)">
<use xlink:href="#c_7a2040fe3b94fcd41d0a72c84e93b115"/>
<use xlink:href="#c_ed3e21196fb739f392806f09ca0594ef" x="63.623047"/>
<use xlink:href="#c_7a2040fe3b94fcd41d0a72c84e93b115" x="95.410156"/>
</g>
</g>
</g>
<g id="ytick2">
<g id="line2d23">
<path style="fill: none; stroke: #000000; stroke-width: 0.500000; stroke-linejoin: round; stroke-linecap: butt; stroke-dasharray: 1.000000,3.000000; stroke-dashoffset: 0.000000; opacity: 1.000000" clip-path="url(#p50431ccdcb28178602d99d9270004dde)" d="M72.000000 339.428571L518.400000 339.428571"/>
</g>
<g id="line2d24">
<g ><use style="fill: none; stroke: #000000; stroke-width: 0.500000; stroke-linejoin: round; stroke-linecap: butt;  opacity: 1.000000" xlink:href="#m3400efa6b1638b3fea9e19e898273957" x="72.000000" y="339.428571"/>
</g></g>
<g id="line2d25">
<g ><use style="fill: none; stroke: #000000; stroke-width: 0.500000; stroke-linejoin: round; stroke-linecap: butt;  opacity: 1.000000" xlink:href="#m20b58b2501143cb5e0a5e8f1ef6f1643" x="518.400000" y="339.428571"/>
</g></g>
<g id="text8">
<g style="fill: #000000; opacity: 1.000000" transform="translate(50.812500,343.795759)scale(0.120000)">
<use xlink:href="#c_7a2040fe3b94fcd41d0a72c84e93b115"/>
<use xlink:href="#c_ed3e21196fb739f392806f09ca0594ef" x="63.623047"/>
<use xlink:href="#c_42baa63129a918535c52adb20d687ea7" x="95.410156"/>
</g>
</g>
</g>
<g id="ytick3">
<g id="line2d26">
<path style="fill: none; stroke: #000000; stroke-width: 0.500000; stroke-linejoin: round; stroke-linecap: butt; stroke-dasharray: 1.000000,3.000000; stroke-dashoffset: 0.000000; opacity: 1.000000" clip-path="url(#p50431ccdcb28178602d99d9270004dde)" d="M72.000000 290.057143L518.400000 290.057143"/>
</g>
<g id="line2d27">
<g ><use style="fill: none; stroke: #000000; stroke-width: 0.500000; stroke-linejoin: round; stroke-linecap: butt;  opacity: 1.000000" xlink:href="#m3400efa6b1638b3fea9e19e898273957" x="72.000000" y="290.057143"/>
</g></g>
<g id="line2d28">
<g ><use style="fill: none; stroke: #000000; stroke-width: 0.500000; stroke-linejoin: round; stroke-linecap: butt;  opacity: 1.000000" xlink:href="#m20b58b2501143cb5e0a5e8f1ef6f1643" x="518.400000" y="290.057143"/>
</g></g>
<g id="text9">
<g style="fill: #000000; opacity: 1.000000" transform="translate(50.906250,294.424330)scale(0.120000)">
<use xlink:href="#c_7a2040fe3b94fcd41d0a72c84e93b115"/>
<use xlink:href="#c_ed3e21196fb739f392806f09ca0594ef" x="63.623047"/>
<use xlink:href="#c_ed3f3ed3ebfbd18bcb9c012009a68ad1" x="95.410156"/>
</g>
</g>
</g>
<g id="ytick4">
<g id="line2d29">
<path style="fill: none; stroke: #000000; stroke-width: 0.500000; stroke-linejoin: round; stroke-linecap: butt; stroke-dasharray: 1.000000,3.000000; stroke-dashoffset: 0.000000; opacity: 1.000000" clip-path="url(#p50431ccdcb28178602d99d9270004dde)" d="M72.000000 240.685714L518.400000 240.685714"/>
</g>
<g id="line2d30">
<g ><use style="fill: none; stroke: #000000; stroke-width: 0.500000; stroke-linejoin: round; stroke-linecap: butt;  opacity: 1.000000" xlink:href="#m3400efa6b1638b3fea9e19e898273957" x="72.000000" y="240.685714"/>
</g></g>
<g id="line2d31">
<g ><use style="fill: none; stroke: #000000; stroke-width: 0.500000; stroke-linejoin: round; stroke-linecap: butt;  opacity: 1.000000" xlink:href="#m20b58b2501143cb5e0a5e8f1ef6f1643" x="518.400000" y="240.685714"/>
</g></g>
<g id="text10">
<defs>
<path id="c_3dcfa38a02242cb63ec6726c6e70be7a" d="M40.578125 -39.312500q7.078125 1.515625 11.046875 6.312500q3.984375 4.781250 3.984375 11.812500q0.000000 10.781250 -7.421875 16.703125q-7.421875 5.906250 -21.093750 5.906250q-4.578125 0.000000 -9.437500 -0.906250q-4.859375 -0.906250 -10.031250 -2.718750l0.000000 -9.515625q4.093750 2.390625 8.968750 3.609375q4.890625 1.218750 10.218750 1.218750q9.265625 0.000000 14.125000 -3.656250q4.859375 -3.656250 4.859375 -10.640625q0.000000 -6.453125 -4.515625 -10.078125q-4.515625 -3.640625 -12.562500 -3.640625l-8.500000 0.000000l0.000000 -8.109375l8.890625 0.000000q7.265625 0.000000 11.125000 -2.906250q3.859375 -2.906250 3.859375 -8.375000q0.000000 -5.609375 -3.984375 -8.609375q-3.968750 -3.015625 -11.390625 -3.015625q-4.062500 0.000000 -8.703125 0.890625q-4.640625 0.875000 -10.203125 2.718750l0.000000 -8.781250q5.625000 -1.562500 10.531250 -2.343750q4.906250 -0.781250 9.250000 -0.781250q11.234375 0.000000 17.765625 5.109375q6.546875 5.093750 6.546875 13.781250q0.000000 6.062500 -3.468750 10.234375q-3.468750 4.171875 -9.859375 5.781250"/>
</defs>
<g style="fill: #000000; opacity: 1.000000" transform="translate(50.671875,245.052902)scale(0.120000)">
<use xlink:href="#c_7a2040fe3b94fcd41d0a72c84e93b115"/>
<use xlink:href="#c_ed3e21196fb739f392806f09ca0594ef" x="63.623047"/>
<use xlink:href="#c_3dcfa38a02242cb63ec6726c6e70be7a" x="95.410156"/>
</g>
</g>
</g>
<g id="ytick5">
<g id="line2d32">
<path style="fill: none; stroke: #000000; stroke-width: 0.500000; stroke-linejoin: round; stroke-linecap: butt; stroke-dasharray: 1.000000,3.000000; stroke-dashoffset: 0.000000; opacity: 1.000000" clip-path="url(#p50431ccdcb28178602d99d9270004dde)" d="M72.000000 191.314286L518.400000 191.314286"/>
</g>
<g id="line2d33">
<g ><use style="fill: none; stroke: #000000; stroke-width: 0.500000; stroke-linejoin: round; stroke-linecap: butt;  opacity: 1.000000" xlink:href="#m3400efa6b1638b3fea9e19e898273957" x="72.000000" y="191.314286"/>
</g></g>
<g id="line2d34">
<g ><use style="fill: none; stroke: #000000; stroke-width: 0.500000; stroke-linejoin: round; stroke-linecap: butt;  opacity: 1.000000" xlink:href="#m20b58b2501143cb5e0a5e8f1ef6f1643" x="518.400000" y="191.314286"/>
</g></g>
<g id="text11">
<g style="fill: #000000; opacity: 1.000000" transform="translate(50.375000,195.681473)scale(0.120000)">
<use xlink:href="#c_7a2040fe3b94fcd41d0a72c84e93b115"/>
<use xlink:href="#c_ed3e21196fb739f392806f09ca0594ef" x="63.623047"/>
<use xlink:href="#c_a0416418d96557a09b8c1332d34883ba" x="95.410156"/>
</g>
</g>
</g>
<g id="ytick6">
<g id="line2d35">
<path style="fill: none; stroke: #000000; stroke-width: 0.500000; stroke-linejoin: round; stroke-linecap: butt; stroke-dasharray: 1.000000,3.000000; stroke-dashoffset: 0.000000; opacity: 1.000000" clip-path="url(#p50431ccdcb28178602d99d9270004dde)" d="M72.000000 141.942857L518.400000 141.942857"/>
</g>
<g id="line2d36">
<g ><use style="fill: none; stroke: #000000; stroke-width: 0.500000; stroke-linejoin: round; stroke-linecap: butt;  opacity: 1.000000" xlink:href="#m3400efa6b1638b3fea9e19e898273957" x="72.000000" y="141.942857"/>
</g></g>
<g id="line2d37">
<g ><use style="fill: none; stroke: #000000; stroke-width: 0.500000; stroke-linejoin: round; stroke-linecap: butt;  opacity: 1.000000" xlink:href="#m20b58b2501143cb5e0a5e8f1ef6f1643" x="518.400000" y="141.942857"/>
</g></g>
<g id="text12">
<defs>
<path id="c_1260a2df50f305f3db244e29828f968e" d="M10.796875 -72.906250l38.718750 0.000000l0.000000 8.312500l-29.687500 0.000000l0.000000 17.859375q2.140625 -0.734375 4.281250 -1.093750q2.156250 -0.359375 4.312500 -0.359375q12.203125 0.000000 19.328125 6.687500q7.140625 6.687500 7.140625 18.109375q0.000000 11.765625 -7.328125 18.296875q-7.328125 6.515625 -20.656250 6.515625q-4.593750 0.000000 -9.359375 -0.781250q-4.750000 -0.781250 -9.828125 -2.343750l0.000000 -9.921875q4.390625 2.390625 9.078125 3.562500q4.687500 1.171875 9.906250 1.171875q8.453125 0.000000 13.375000 -4.437500q4.937500 -4.437500 4.937500 -12.062500q0.000000 -7.609375 -4.937500 -12.046875q-4.921875 -4.453125 -13.375000 -4.453125q-3.953125 0.000000 -7.890625 0.875000q-3.921875 0.875000 -8.015625 2.734375z"/>
</defs>
<g style="fill: #000000; opacity: 1.000000" transform="translate(50.750000,146.310045)scale(0.120000)">
<use xlink:href="#c_7a2040fe3b94fcd41d0a72c84e93b115"/>
<use xlink:href="#c_ed3e21196fb739f392806f09ca0594ef" x="63.623047"/>
<use xlink:href="#c_1260a2df50f305f3db244e29828f968e" x="95.410156"/>
</g>
</g>
</g>
<g id="ytick7">
<g id="line2d38">
<path style="fill: none; stroke: #000000; stroke-width: 0.500000; stroke-linejoin: round; stroke-linecap: butt; stroke-dasharray: 1.000000,3.000000; stroke-dashoffset: 0.000000; opacity: 1.000000" clip-path="url(#p50431ccdcb28178602d99d9270004dde)" d="M72.000000 92.571429L518.400000 92.571429"/>
</g>
<g id="line2d39">
<g ><use style="fill: none; stroke: #000000; stroke-width: 0.500000; stroke-linejoin: round; stroke-linecap: butt;  opacity: 1.000000" xlink:href="#m3400efa6b1638b3fea9e19e898273957" x="72.000000" y="92.571429"/>
</g></g>
<g id="line2d40">
<g ><use style="fill: none; stroke: #000000; stroke-width: 0.500000; stroke-linejoin: round; stroke-linecap: butt;  opacity: 1.000000" xlink:href="#m20b58b2501143cb5e0a5e8f1ef6f1643" x="518.400000" y="92.571429"/>
</g></g>
<g id="text13">
<g style="fill: #000000; opacity: 1.000000" transform="translate(50.468750,96.938616)scale(0.120000)">
<use xlink:href="#c_7a2040fe3b94fcd41d0a72c84e93b115"/>
<use xlink:href="#c_ed3e21196fb739f392806f09ca0594ef" x="63.623047"/>
<use xlink:href="#c_cc8d6d580d1b10c8632f7a42cd53db8a" x="95.410156"/>
</g>
</g>
</g>
<g id="ytick8">
<g id="line2d41">
<path style="fill: none; stroke: #000000; stroke-width: 0.500000; stroke-linejoin: round; stroke-linecap: butt; stroke-dasharray: 1.000000,3.000000; stroke-dashoffset: 0.000000; opacity: 1.000000" clip-path="url(#p50431ccdcb28178602d99d9270004dde)" d="M72.000000 43.200000L518.400000 43.200000"/>
</g>
<g id="line2d42">
<g ><use style="fill: none; stroke: #000000; stroke-width: 0.500000; stroke-linejoin: round; stroke-linecap: butt;  opacity: 1.000000" xlink:href="#m3400efa6b1638b3fea9e19e898273957" x="72.000000" y="43.200000"/>
</g></g>
<g id="line2d43">
<g ><use style="fill: none; stroke: #000000; stroke-width: 0.500000; stroke-linejoin: round; stroke-linecap: butt;  opacity: 1.000000" xlink:href="#m20b58b2501143cb5e0a5e8f1ef6f1643" x="518.400000" y="43.200000"/>
</g></g>
<g id="text14">
<defs>
<path id="c_956f18cfdaf972f35a6c2b4aaac2532b" d="M8.203125 -72.906250l46.875000 0.000000l0.000000 4.203125l-26.468750 68.703125l-10.296875 0.000000l24.906250 -64.593750l-35.015625 0.000000z"/>
</defs>
<g style="fill: #000000; opacity: 1.000000" transform="translate(50.734375,47.567187)scale(0.120000)">
<use xlink:href="#c_7a2040fe3b94fcd41d0a72c84e93b115"/>
<use xlink:href="#c_ed3e21196fb739f392806f09ca0594ef" x="63.623047"/>
<use xlink:href="#c_956f18cfdaf972f35a6c2b4aaac2532b" x="95.410156"/>
</g>
</g>
</g>
</g>
<g id="patch3">
<path style="fill: none; stroke: #000000; stroke-width: 1.000000; stroke-linejoin: round; stroke-linecap: square;  opacity: 1.000000"  d="M72.000000 43.200000L518.400000 43.200000"/>
</g>
<g id="patch4">
<path style="fill: none; stroke: #000000; stroke-width: 1.000000; stroke-linejoin: round; stroke-linecap: square;  opacity: 1.000000"  d="M518.400000 388.800000L518.400000 43.200000"/>
</g>
<g id="patch5">
<path style="fill: none; stroke: #000000; stroke-width: 1.000000; stroke-linejoin: round; stroke-linecap: square;  opacity: 1.000000"  d="M72.000000 388.800000L518.400000 388.800000"/>
</g>
<g id="patch6">
<path style="fill: none; stroke: #000000; stroke-width: 1.000000; stroke-linejoin: round; stroke-linecap: square;  opacity: 1.000000"  d="M72.000000 388.800000L72.000000 43.200000"/>
</g>
</g>
</g>
</svg>
