<?xml version="1.0" standalone="no"?>
<!DOCTYPE svg PUBLIC "-//W3C//DTD SVG 1.1//EN"
  "http://www.w3.org/Graphics/SVG/1.1/DTD/svg11.dtd">
<!-- Created with matplotlib (http://matplotlib.sourceforge.net/) -->
<svg width="576pt" height="432pt" viewBox="0 0 576 432"
   xmlns="http://www.w3.org/2000/svg"
   xmlns:xlink="http://www.w3.org/1999/xlink"
   version="1.1"
   id="svg1">
<g id="figure1">
<g id="patch1">
<path style="fill: #ffffff; stroke: #ffffff; stroke-width: 1.000000; stroke-linejoin: round; stroke-linecap: square;  opacity: 1.000000"  d="M0.000000 432.000000L576.000000 432.000000L576.000000 0.000000
L0.000000 0.000000L0.000000 432.000000"/>
</g>
<g id="axes1">
<g id="patch2">
<path style="fill: #ffffff; opacity: 1.000000"  d="M72.000000 388.800000L518.400000 388.800000L518.400000 43.200000
L72.000000 43.200000L72.000000 388.800000"/>
</g>
<g id="line2d1">
<defs>
  <clipPath id="p50431ccdcb28178602d99d9270004dde">
<rect x="72.000000" y="43.200000" width="446.400000" height="345.600000"/>
  </clipPath>
</defs><path style="fill: none; stroke: #ff0000; stroke-width: 1.000000; stroke-linejoin: round; stroke-linecap: square;  opacity: 1.000000" clip-path="url(#p50431ccdcb28178602d99d9270004dde)" d="M72.000000 288.017556L72.446400 149.283049L73.339200 283.231515
L73.785600 218.945595L74.232000 347.124914L74.678400 239.677206
L75.124800 288.478322L76.017600 266.647772L76.464000 330.362139
L76.910400 310.483365L77.356800 245.793496L77.803200 330.379983
L78.249600 247.436145L78.696000 328.178408L79.142400 241.420596
L79.588800 335.224673L80.481600 310.936884L80.928000 322.036992
L81.374400 315.835546L81.820800 182.415087L82.267200 342.387026
L82.713600 311.023365L83.160000 242.210246L83.606400 272.798243
L84.052800 342.837838L84.499200 235.419310L85.392000 319.385848
L85.838400 311.113060L86.284800 295.452622L86.731200 314.920616
L87.177600 310.719732L87.624000 324.461480L88.070400 311.265181
L88.516800 246.463523L89.409600 324.222348L89.856000 322.339069
L90.748800 311.702665L91.195200 239.239918L91.641600 335.786676
L92.088000 321.092306L92.534400 232.325764L92.980800 345.310318
L94.320000 262.731214L94.766400 260.928910L95.212800 343.286519
L95.659200 325.555626L96.552000 51.128387L96.998400 309.126977
L97.444800 325.356964L97.891200 314.529062L98.337600 316.912873
L98.784000 310.294714L99.230400 249.561562L100.123200 334.477037
L100.569600 243.759007L101.016000 344.157892L102.355200 279.711948
L102.801600 325.811485L103.248000 243.087287L103.694400 330.290127
L104.140800 329.055621L104.587200 304.261955L105.033600 322.663081
L105.480000 310.753774L106.372800 323.534546L107.265600 311.031613
L107.712000 322.487148L108.158400 319.100187L108.604800 303.116060
L109.051200 319.575756L109.497600 278.315171L110.836800 327.249009
L111.283200 305.415521L111.729600 310.926436L112.176000 321.318282
L112.622400 314.512128L113.515200 321.009535L113.961600 305.673235
L114.408000 311.254963L114.854400 334.149615L115.300800 311.149693
L115.747200 241.556129L116.193600 331.442300L117.086400 311.121585
L117.532800 322.240654L117.979200 311.102968L119.318400 322.257162
L119.764800 311.148150L120.211200 322.007800L120.657600 311.050437
L121.996800 299.347592L122.889600 323.608677L123.782400 306.474866
L124.228800 321.639633L125.121600 299.489956L125.568000 322.677942
L126.014400 317.345944L126.460800 304.494451L126.907200 311.425425
L127.353600 331.866996L127.800000 312.302373L128.246400 310.354687
L128.692800 314.090024L129.139200 334.177632L129.585600 317.255858
L130.032000 320.404228L130.478400 295.499612L130.924800 331.114729
L131.371200 308.073796L131.817600 314.565327L132.264000 288.236425
L132.710400 346.709203L133.156800 299.139575L133.603200 327.774010
L134.049600 305.693315L134.942400 319.233807L135.388800 312.238760
L135.835200 298.790519L136.728000 323.193059L137.174400 298.692795
L138.067200 323.124664L138.513600 311.191442L138.960000 322.176948
L139.406400 310.815613L140.745600 320.149452L141.192000 310.580940
L142.084800 322.633071L142.977600 308.094301L143.424000 322.135016
L143.870400 265.196575L144.763200 323.221202L145.209600 299.340530
L145.656000 319.003292L146.102400 311.732548L146.548800 310.710021
L147.888000 322.356257L148.334400 299.539054L148.780800 322.476008
L149.227200 311.209194L150.566400 322.644649L151.012800 311.116631
L151.459200 314.716815L151.905600 307.384232L152.352000 276.800890
L152.798400 315.297262L153.244800 307.101669L153.691200 323.018611
L154.137600 310.634853L154.584000 317.147985L155.476800 300.065126
L155.923200 320.620689L156.816000 310.988333L157.262400 318.521307
L157.708800 316.463236L158.155200 311.282922L159.048000 324.835811
L159.494400 305.924590L159.940800 310.133007L160.387200 320.908965
L160.833600 269.879028L161.726400 329.529612L162.619200 300.026500
L163.065600 331.829545L163.512000 310.824334L163.958400 313.275836
L164.404800 319.947644L164.851200 288.191831L165.297600 334.006307
L165.744000 322.542996L166.636800 311.131434L167.529600 322.517664
L167.976000 311.244192L168.422400 321.830358L168.868800 318.842127
L169.315200 293.324394L169.761600 312.247331L170.208000 309.974619
L170.654400 322.557903L171.100800 311.050633L171.547200 322.299510
L171.993600 310.848699L172.886400 322.367973L173.332800 311.226866
L173.779200 325.877472L174.225600 305.443665L174.672000 322.255826
L175.118400 311.445757L175.564800 322.134371L176.011200 311.989755
L176.904000 319.796502L177.350400 310.961537L178.243200 322.273705
L178.689600 311.540221L180.028800 322.582291L180.475200 310.971180
L181.368000 325.024416L181.814400 306.652620L182.260800 321.087491
L182.707200 316.385868L183.153600 252.846697L183.600000 327.737134
L184.046400 321.951732L184.492800 320.897998L185.385600 307.318072
L185.832000 323.144214L186.278400 299.834312L186.724800 311.135604
L187.617600 322.356396L188.064000 311.079905L189.403200 319.692718
L189.849600 305.258446L190.296000 322.560265L190.742400 311.343402
L192.081600 311.337746L192.528000 319.831062L192.974400 302.627670
L193.420800 322.656987L193.867200 311.251980L194.313600 318.012261
L194.760000 266.001420L195.652800 320.049573L196.099200 311.232660
L197.438400 300.070080L197.884800 340.561233L198.331200 316.047306
L198.777600 311.162538L200.116800 322.468266L200.563200 311.145777
L201.902400 310.926309L202.348800 322.621356L202.795200 311.371615
L203.241600 288.149898L203.688000 320.449501L204.134400 311.100330
L204.580800 322.380783L205.027200 311.197870L205.920000 312.211860
L206.366400 323.107350L206.812800 311.611980L207.705600 324.240941
L208.152000 307.227698L209.044800 321.084058L209.491200 311.353379
L210.384000 323.068343L210.830400 311.028111L211.276800 314.819885
L211.723200 310.804750L212.169600 320.399459L212.616000 269.860677
L213.062400 314.044301L213.508800 315.987610L213.955200 299.755584
L214.401600 320.048248L214.848000 303.269034L215.294400 322.883493
L215.740800 311.204506L217.080000 323.318638L217.526400 311.714266
L218.419200 319.363684L218.865600 303.250810L219.758400 319.863203
L220.204800 310.946008L221.544000 265.295094L221.990400 322.708366
L222.436800 311.743423L223.329600 322.966541L223.776000 311.136411
L224.668800 307.605946L225.115200 325.767168L225.561600 311.208918
L226.454400 322.941381L226.900800 311.527089L227.347200 312.800602
L227.793600 152.339017L228.686400 285.748209L229.132800 264.928355
L229.579200 346.755882L230.025600 292.684389L230.472000 319.130208
L230.918400 322.780931L231.364800 317.673746L231.811200 258.675437
L232.257600 334.203437L233.150400 306.254926L233.596800 309.495606
L234.043200 322.681213L234.489600 311.414953L235.828800 311.465894
L236.721600 322.534725L237.168000 295.831538L237.614400 325.921467
L238.060800 311.701202L238.507200 313.084097L238.953600 310.303976
L239.400000 325.394657L239.846400 298.497208L240.292800 326.454267
L241.185600 304.013169L242.078400 323.018646L242.524800 334.517633
L242.971200 300.213055L243.417600 322.968637L243.864000 311.134395
L244.756800 314.638813L245.649600 308.358075L246.096000 324.749330
L246.542400 310.140023L246.988800 311.624847L247.435200 322.963350
L247.881600 311.064526L248.328000 315.146719L248.774400 307.281093
L250.560000 322.799524L251.006400 313.814419L251.452800 265.075430
L252.345600 323.282638L252.792000 311.616991L254.131200 311.639904
L254.577600 228.198528L255.024000 311.605644L255.916800 322.762003
L256.363200 307.454458L257.256000 322.808417L257.702400 311.657829
L259.041600 310.517050L259.488000 314.505815L259.934400 308.253381
L260.380800 311.391855L261.273600 302.179162L261.720000 321.090843
L262.166400 322.311963L262.612800 320.556741L263.059200 302.484925
L263.505600 323.195743L263.952000 311.606669L264.844800 325.774437
L265.737600 311.949112L266.184000 325.879661L267.076800 320.874232
L267.523200 322.955320L267.969600 311.363758L268.862400 320.421162
L269.308800 268.113635L269.755200 316.322231L270.201600 314.376768
L271.094400 288.832896L271.540800 322.991689L271.987200 311.315720
L272.433600 323.063412L272.880000 311.824431L273.326400 265.420650
L273.772800 320.251323L274.219200 324.055400L274.665600 310.559547
L275.558400 323.097627L276.004800 311.366074L276.897600 322.638428
L277.344000 311.185025L277.790400 322.701592L278.236800 311.407142
L279.129600 329.767096L280.022400 310.350194L280.915200 312.117984
L281.361600 331.784156L281.808000 300.347528L282.254400 323.184453
L283.147200 288.198593L284.040000 322.747845L284.486400 311.779296
L284.932800 309.454514L285.379200 323.790336L286.272000 311.597280
L286.718400 322.974409L287.164800 311.261484L288.057600 320.086979
L288.504000 310.699354L288.950400 323.461590L289.396800 314.163544
L289.843200 319.951469L290.289600 311.800550L290.736000 324.060146
L291.182400 309.652070L291.628800 317.954995L292.075200 308.015724
L292.521600 322.861190L293.414400 300.405450L293.860800 308.759374
L294.307200 323.741964L294.753600 327.399137L295.200000 307.859593
L295.646400 318.972730L296.092800 315.331050L296.539200 300.443374
L296.985600 323.103283L297.432000 320.574332L297.878400 315.894920
L298.324800 307.454676L299.664000 322.999868L300.556800 300.173564
L301.003200 322.693586L301.449600 311.459363L302.342400 320.523333
L303.681600 300.043296L304.128000 322.634949L304.574400 311.714185
L305.467200 323.502843L305.913600 311.953882L306.360000 315.387095
L306.806400 307.975288L308.145600 320.202996L308.592000 253.854858
L309.038400 323.108997L309.931200 311.443188L311.270400 311.525384
L311.716800 322.713308L312.163200 311.336836L313.502400 322.910611
L313.948800 311.132413L314.841600 323.524097L315.288000 312.250337
L315.734400 311.158368L316.627200 297.071021L317.520000 322.984662
L317.966400 311.443730L318.859200 323.170053L319.305600 311.392846
L320.198400 322.955286L321.091200 300.229494L321.537600 323.887438
L321.984000 311.536500L322.876800 322.628970L323.323200 311.894888
L323.769600 322.839072L324.216000 311.561821L324.662400 316.601499
L325.108800 271.952029L326.001600 325.806924L326.448000 283.502707
L326.894400 335.300924L327.340800 311.769158L327.787200 319.993874
L328.233600 315.547753L328.680000 307.594506L329.126400 314.291624
L329.572800 312.471418L330.465600 325.341965L330.912000 308.788451
L331.358400 323.379948L331.804800 311.593064L333.144000 320.273338
L333.590400 265.326566L334.036800 311.799030L334.483200 265.788991
L334.929600 323.493592L335.376000 311.870730L335.822400 322.393006
L336.268800 312.070752L337.161600 323.025039L337.608000 311.394228
L338.500800 321.020790L338.947200 302.457012L339.393600 309.311274
L339.840000 323.029140L340.286400 311.614606L340.732800 322.804178
L341.179200 311.687067L341.625600 265.233911L342.518400 327.212064
L342.964800 322.915807L343.411200 311.542572L343.857600 323.027724
L344.304000 311.326537L345.196800 320.179311L345.643200 311.284904
L346.089600 323.141391L346.536000 312.084415L346.982400 323.276475
L347.428800 311.729507L347.875200 322.644660L348.321600 311.864429
L348.768000 322.921233L349.214400 300.182400L349.660800 323.005179
L350.553600 299.644001L351.446400 319.712498L351.892800 326.130071
L352.339200 300.686400L352.785600 323.251096L353.678400 311.999985
L354.124800 320.655180L354.571200 311.927409L355.017600 323.232319
L355.464000 300.891110L355.910400 335.370839L356.356800 307.889142
L356.803200 325.650540L357.249600 300.844040L357.696000 323.143315
L358.142400 312.053576L358.588800 323.229001L359.035200 288.216645
L359.481600 334.733507L359.928000 312.637720L360.374400 323.941052
L360.820800 312.010318L362.160000 323.137624L362.606400 311.408744
L363.499200 321.987871L363.945600 312.848652L364.392000 320.306342
L364.838400 303.249773L365.284800 323.207574L365.731200 311.290053
L366.624000 309.066117L367.070400 322.989489L367.516800 311.570104
L370.195200 311.922109L371.088000 323.649884L371.534400 311.672045
L372.873600 320.745819L373.320000 311.684970L374.659200 311.346179
L375.552000 265.716311L375.998400 323.320412L376.444800 310.577979
L376.891200 314.993272L377.337600 323.245336L377.784000 312.051398
L378.230400 254.395342L378.676800 331.994765L379.123200 300.971117
L379.569600 324.555080L380.016000 311.638625L380.462400 322.914804
L380.908800 312.071132L382.248000 309.893345L382.694400 323.369338
L383.140800 311.124488L384.033600 300.613939L384.480000 323.324536
L384.926400 300.282278L385.372800 323.022079L385.819200 311.946612
L386.265600 323.115564L386.712000 312.288895L387.604800 273.132323
L388.051200 227.346566L388.497600 309.023228L388.944000 288.824832
L389.390400 334.432927L389.836800 276.935363L390.283200 334.883578
L390.729600 300.169532L391.622400 358.383594L392.068800 312.039348
L393.408000 320.428685L393.854400 312.148063L394.300800 320.573560
L394.747200 303.207057L395.193600 326.566541L395.640000 309.253778
L396.086400 265.479137L396.532800 323.012137L396.979200 310.770881
L397.425600 313.029055L397.872000 311.304084L399.211200 320.712814
L399.657600 311.726580L400.996800 311.959400L401.443200 323.216133
L401.889600 300.475941L402.336000 356.831032L402.782400 302.179162
L403.228800 328.559501L403.675200 315.164932L404.121600 311.959457
L405.460800 323.837591L406.353600 311.837242L406.800000 323.290103
L407.246400 312.173971L408.585600 323.175986L409.032000 311.995953
L409.924800 323.185317L410.371200 288.615560L410.817600 324.347651
L411.264000 311.696018L411.710400 322.860983L412.156800 299.374963
L412.603200 326.574824L413.049600 323.508257L413.496000 312.068333
L414.388800 323.570477L414.835200 309.217398L415.728000 231.913048
L416.174400 323.431027L416.620800 311.663935L417.067200 323.367414
L417.513600 310.637169L417.960000 326.330243L418.406400 312.360157
L419.745600 315.561519L420.192000 319.738038L420.638400 311.964192
L421.531200 323.016042L421.977600 311.855282L423.316800 323.201353
L423.763200 288.714205L424.209600 334.999722L424.656000 312.073932
L425.102400 323.225038L425.548800 311.582074L426.441600 321.250545
L426.888000 314.024244L427.780800 310.795730L428.227200 311.985112
L429.566400 312.110634L430.905600 320.894196L431.352000 311.765633
L432.691200 311.827991L433.137600 325.557873L433.584000 309.313463
L434.030400 312.054255L435.369600 262.979804L435.816000 323.675574
L436.262400 311.995780L436.708800 319.560019L437.155200 304.112229
L437.601600 323.508879L438.048000 312.042378L438.940800 321.210444
L439.833600 311.736108L440.280000 325.145618L440.726400 310.556125
L441.172800 312.213704L442.512000 324.099464L442.958400 312.354743
L443.851200 309.547215L444.297600 314.698671L444.744000 311.902779
L445.190400 346.554271L445.636800 311.797716L446.529600 300.698531
L446.976000 320.462323L447.422400 311.812197L447.868800 322.851295
L448.315200 266.159071L448.761600 312.103319L449.208000 323.435255
L449.654400 311.662875L450.547200 323.600694L450.993600 300.495686
L451.440000 324.162444L451.886400 311.986932L452.332800 323.160756
L453.225600 309.504891L453.672000 312.070314L454.118400 323.104366
L454.564800 312.144952L455.904000 321.468192L456.350400 299.314391
L456.796800 324.820489L457.243200 323.722207L457.689600 266.270204
L458.136000 312.478088L458.582400 319.156289L459.028800 314.761179
L459.475200 323.772595L459.921600 312.382610L460.368000 323.703441
L460.814400 312.281384L461.260800 320.552951L461.707200 312.086062
L462.153600 322.935967L462.600000 321.210950L463.046400 302.634374
L463.492800 329.466781L463.939200 306.548387L464.385600 323.761041
L464.832000 321.181874L465.724800 312.049636L466.171200 324.650949
L466.617600 311.583756L467.064000 323.093238L467.510400 288.943476
L467.956800 312.083148L468.849600 324.127561L469.296000 312.530458
L469.742400 323.428124L470.635200 312.265682L471.528000 320.762523
L471.974400 313.135603L472.867200 323.950591L473.760000 311.662138
L474.652800 328.834794L475.545600 300.490906L476.438400 323.536769
L476.884800 312.164801L477.331200 323.724027L477.777600 312.184961
L478.224000 316.047387L478.670400 328.799336L479.563200 300.852449
L480.009600 323.284401L481.348800 310.942207L481.795200 312.610637
L482.241600 320.407523L482.688000 312.303951L483.134400 311.251761
L483.580800 314.471393L484.027200 312.089000L484.920000 321.689791
L485.812800 300.520247L486.259200 323.370490L486.705600 312.156611
L487.152000 322.327388L487.598400 311.629985L488.044800 316.846426
L489.384000 297.710600L489.830400 334.859017L490.723200 311.694981
L492.062400 312.027955L492.508800 265.851337L492.955200 323.478639
L493.401600 300.999133L493.848000 319.947978L494.740800 311.233559
L495.187200 326.130543L495.633600 312.066950L496.080000 323.452120
L496.526400 311.981196L497.419200 322.420136L497.865600 301.785028
L498.312000 320.722479L498.758400 311.685201L499.204800 314.386284
L499.651200 323.694559L500.544000 300.724992L501.436800 312.803459
L501.883200 288.408453L502.776000 312.280980L503.668800 323.610486
L504.115200 317.494921L504.561600 306.738582L505.008000 312.375237
L505.454400 324.230815L505.900800 300.715880L506.347200 323.205143
L507.240000 312.247907L508.579200 312.095278L509.025600 310.089853
L509.472000 273.296701L509.918400 326.448588L510.364800 300.543299
L510.811200 323.749901L511.257600 312.259357L511.704000 321.603368
L512.150400 302.807889L513.043200 323.410280L513.489600 311.737260
L514.828800 312.059416L515.275200 324.141431L515.721600 312.441143
L517.060800 320.802578L517.507200 268.708884L517.953600 312.124435
L517.953600 312.124435"/>
</g>
<g id="matplotlib.axis1">
<g id="xtick1">
<g id="line2d2">
<path style="fill: none; stroke: #000000; stroke-width: 0.500000; stroke-linejoin: round; stroke-linecap: butt; stroke-dasharray: 1.000000,3.000000; stroke-dashoffset: 0.000000; opacity: 1.000000" clip-path="url(#p50431ccdcb28178602d99d9270004dde)" d="M72.000000 388.800000L72.000000 43.200000"/>
</g>
<g id="line2d3">
<defs><path id="m30e32995789d870ad79a2e54c91cf9c6" d="M0.000000 0.000000L0.000000 -4.000000"/></defs>
<g ><use style="fill: none; stroke: #000000; stroke-width: 0.500000; stroke-linejoin: round; stroke-linecap: butt;  opacity: 1.000000" xlink:href="#m30e32995789d870ad79a2e54c91cf9c6" x="72.000000" y="388.800000"/>
</g></g>
<g id="line2d4">
<defs><path id="m9281cae24120827b11d5ea8a7ad3e96b" d="M0.000000 0.000000L0.000000 4.000000"/></defs>
<g ><use style="fill: none; stroke: #000000; stroke-width: 0.500000; stroke-linejoin: round; stroke-linecap: butt;  opacity: 1.000000" xlink:href="#m9281cae24120827b11d5ea8a7ad3e96b" x="72.000000" y="43.200000"/>
</g></g>
<g id="text1">
<defs>
<path id="c_7a2040fe3b94fcd41d0a72c84e93b115" d="M31.781250 -66.406250q-7.609375 0.000000 -11.453125 7.500000q-3.828125 7.484375 -3.828125 22.531250q0.000000 14.984375 3.828125 22.484375q3.843750 7.500000 11.453125 7.500000q7.671875 0.000000 11.500000 -7.500000q3.843750 -7.500000 3.843750 -22.484375q0.000000 -15.046875 -3.843750 -22.531250q-3.828125 -7.500000 -11.500000 -7.500000M31.781250 -74.218750q12.265625 0.000000 18.734375 9.703125q6.468750 9.687500 6.468750 28.140625q0.000000 18.406250 -6.468750 28.109375q-6.468750 9.687500 -18.734375 9.687500q-12.250000 0.000000 -18.718750 -9.687500q-6.468750 -9.703125 -6.468750 -28.109375q0.000000 -18.453125 6.468750 -28.140625q6.468750 -9.703125 18.718750 -9.703125"/>
</defs>
<g style="fill: #000000; opacity: 1.000000" transform="translate(68.976562,401.706250)scale(0.120000)">
<use xlink:href="#c_7a2040fe3b94fcd41d0a72c84e93b115"/>
</g>
</g>
</g>
<g id="xtick2">
<g id="line2d5">
<path style="fill: none; stroke: #000000; stroke-width: 0.500000; stroke-linejoin: round; stroke-linecap: butt; stroke-dasharray: 1.000000,3.000000; stroke-dashoffset: 0.000000; opacity: 1.000000" clip-path="url(#p50431ccdcb28178602d99d9270004dde)" d="M161.280000 388.800000L161.280000 43.200000"/>
</g>
<g id="line2d6">
<g ><use style="fill: none; stroke: #000000; stroke-width: 0.500000; stroke-linejoin: round; stroke-linecap: butt;  opacity: 1.000000" xlink:href="#m30e32995789d870ad79a2e54c91cf9c6" x="161.280000" y="388.800000"/>
</g></g>
<g id="line2d7">
<g ><use style="fill: none; stroke: #000000; stroke-width: 0.500000; stroke-linejoin: round; stroke-linecap: butt;  opacity: 1.000000" xlink:href="#m9281cae24120827b11d5ea8a7ad3e96b" x="161.280000" y="43.200000"/>
</g></g>
<g id="text2">
<defs>
<path id="c_ed3f3ed3ebfbd18bcb9c012009a68ad1" d="M19.187500 -8.296875l34.421875 0.000000l0.000000 8.296875l-46.281250 0.000000l0.000000 -8.296875q5.609375 -5.812500 15.296875 -15.593750q9.703125 -9.796875 12.187500 -12.640625q4.734375 -5.312500 6.609375 -9.000000q1.890625 -3.687500 1.890625 -7.250000q0.000000 -5.812500 -4.078125 -9.468750q-4.078125 -3.671875 -10.625000 -3.671875q-4.640625 0.000000 -9.796875 1.609375q-5.140625 1.609375 -11.000000 4.890625l0.000000 -9.968750q5.953125 -2.390625 11.125000 -3.609375q5.187500 -1.218750 9.484375 -1.218750q11.328125 0.000000 18.062500 5.671875q6.734375 5.656250 6.734375 15.125000q0.000000 4.500000 -1.687500 8.531250q-1.671875 4.015625 -6.125000 9.484375q-1.218750 1.421875 -7.765625 8.187500q-6.531250 6.765625 -18.453125 18.921875"/>
</defs>
<g style="fill: #000000; opacity: 1.000000" transform="translate(150.655000,401.706250)scale(0.120000)">
<use xlink:href="#c_ed3f3ed3ebfbd18bcb9c012009a68ad1"/>
<use xlink:href="#c_7a2040fe3b94fcd41d0a72c84e93b115" x="63.623047"/>
<use xlink:href="#c_7a2040fe3b94fcd41d0a72c84e93b115" x="127.246094"/>
</g>
</g>
</g>
<g id="xtick3">
<g id="line2d8">
<path style="fill: none; stroke: #000000; stroke-width: 0.500000; stroke-linejoin: round; stroke-linecap: butt; stroke-dasharray: 1.000000,3.000000; stroke-dashoffset: 0.000000; opacity: 1.000000" clip-path="url(#p50431ccdcb28178602d99d9270004dde)" d="M250.560000 388.800000L250.560000 43.200000"/>
</g>
<g id="line2d9">
<g ><use style="fill: none; stroke: #000000; stroke-width: 0.500000; stroke-linejoin: round; stroke-linecap: butt;  opacity: 1.000000" xlink:href="#m30e32995789d870ad79a2e54c91cf9c6" x="250.560000" y="388.800000"/>
</g></g>
<g id="line2d10">
<g ><use style="fill: none; stroke: #000000; stroke-width: 0.500000; stroke-linejoin: round; stroke-linecap: butt;  opacity: 1.000000" xlink:href="#m9281cae24120827b11d5ea8a7ad3e96b" x="250.560000" y="43.200000"/>
</g></g>
<g id="text3">
<defs>
<path id="c_a0416418d96557a09b8c1332d34883ba" d="M37.796875 -64.312500l-24.906250 38.921875l24.906250 0.000000zM35.203125 -72.906250l12.406250 0.000000l0.000000 47.515625l10.406250 0.000000l0.000000 8.203125l-10.406250 0.000000l0.000000 17.187500l-9.812500 0.000000l0.000000 -17.187500l-32.906250 0.000000l0.000000 -9.515625z"/>
</defs>
<g style="fill: #000000; opacity: 1.000000" transform="translate(239.794375,401.706250)scale(0.120000)">
<use xlink:href="#c_a0416418d96557a09b8c1332d34883ba"/>
<use xlink:href="#c_7a2040fe3b94fcd41d0a72c84e93b115" x="63.623047"/>
<use xlink:href="#c_7a2040fe3b94fcd41d0a72c84e93b115" x="127.246094"/>
</g>
</g>
</g>
<g id="xtick4">
<g id="line2d11">
<path style="fill: none; stroke: #000000; stroke-width: 0.500000; stroke-linejoin: round; stroke-linecap: butt; stroke-dasharray: 1.000000,3.000000; stroke-dashoffset: 0.000000; opacity: 1.000000" clip-path="url(#p50431ccdcb28178602d99d9270004dde)" d="M339.840000 388.800000L339.840000 43.200000"/>
</g>
<g id="line2d12">
<g ><use style="fill: none; stroke: #000000; stroke-width: 0.500000; stroke-linejoin: round; stroke-linecap: butt;  opacity: 1.000000" xlink:href="#m30e32995789d870ad79a2e54c91cf9c6" x="339.840000" y="388.800000"/>
</g></g>
<g id="line2d13">
<g ><use style="fill: none; stroke: #000000; stroke-width: 0.500000; stroke-linejoin: round; stroke-linecap: butt;  opacity: 1.000000" xlink:href="#m9281cae24120827b11d5ea8a7ad3e96b" x="339.840000" y="43.200000"/>
</g></g>
<g id="text4">
<defs>
<path id="c_cc8d6d580d1b10c8632f7a42cd53db8a" d="M33.015625 -40.375000q-6.640625 0.000000 -10.531250 4.546875q-3.875000 4.531250 -3.875000 12.437500q0.000000 7.859375 3.875000 12.437500q3.890625 4.562500 10.531250 4.562500q6.640625 0.000000 10.515625 -4.562500q3.875000 -4.578125 3.875000 -12.437500q0.000000 -7.906250 -3.875000 -12.437500q-3.875000 -4.546875 -10.515625 -4.546875M52.593750 -71.296875l0.000000 8.984375q-3.718750 -1.750000 -7.500000 -2.671875q-3.781250 -0.937500 -7.500000 -0.937500q-9.765625 0.000000 -14.921875 6.593750q-5.140625 6.593750 -5.875000 19.921875q2.875000 -4.250000 7.218750 -6.515625q4.359375 -2.265625 9.578125 -2.265625q10.984375 0.000000 17.359375 6.671875q6.375000 6.656250 6.375000 18.125000q0.000000 11.234375 -6.640625 18.031250q-6.640625 6.781250 -17.671875 6.781250q-12.656250 0.000000 -19.343750 -9.687500q-6.687500 -9.703125 -6.687500 -28.109375q0.000000 -17.281250 8.203125 -27.562500q8.203125 -10.281250 22.015625 -10.281250q3.718750 0.000000 7.500000 0.734375q3.781250 0.734375 7.890625 2.187500"/>
</defs>
<g style="fill: #000000; opacity: 1.000000" transform="translate(329.199375,401.706250)scale(0.120000)">
<use xlink:href="#c_cc8d6d580d1b10c8632f7a42cd53db8a"/>
<use xlink:href="#c_7a2040fe3b94fcd41d0a72c84e93b115" x="63.623047"/>
<use xlink:href="#c_7a2040fe3b94fcd41d0a72c84e93b115" x="127.246094"/>
</g>
</g>
</g>
<g id="xtick5">
<g id="line2d14">
<path style="fill: none; stroke: #000000; stroke-width: 0.500000; stroke-linejoin: round; stroke-linecap: butt; stroke-dasharray: 1.000000,3.000000; stroke-dashoffset: 0.000000; opacity: 1.000000" clip-path="url(#p50431ccdcb28178602d99d9270004dde)" d="M429.120000 388.800000L429.120000 43.200000"/>
</g>
<g id="line2d15">
<g ><use style="fill: none; stroke: #000000; stroke-width: 0.500000; stroke-linejoin: round; stroke-linecap: butt;  opacity: 1.000000" xlink:href="#m30e32995789d870ad79a2e54c91cf9c6" x="429.120000" y="388.800000"/>
</g></g>
<g id="line2d16">
<g ><use style="fill: none; stroke: #000000; stroke-width: 0.500000; stroke-linejoin: round; stroke-linecap: butt;  opacity: 1.000000" xlink:href="#m9281cae24120827b11d5ea8a7ad3e96b" x="429.120000" y="43.200000"/>
</g></g>
<g id="text5">
<defs>
<path id="c_bef35738d52871942e50b9de9b122bab" d="M31.781250 -34.625000q-7.031250 0.000000 -11.062500 3.765625q-4.015625 3.765625 -4.015625 10.343750q0.000000 6.593750 4.015625 10.359375q4.031250 3.765625 11.062500 3.765625q7.031250 0.000000 11.078125 -3.781250q4.062500 -3.796875 4.062500 -10.343750q0.000000 -6.578125 -4.031250 -10.343750q-4.015625 -3.765625 -11.109375 -3.765625M21.921875 -38.812500q-6.343750 -1.562500 -9.890625 -5.906250q-3.531250 -4.359375 -3.531250 -10.609375q0.000000 -8.734375 6.218750 -13.812500q6.234375 -5.078125 17.062500 -5.078125q10.890625 0.000000 17.093750 5.078125q6.203125 5.078125 6.203125 13.812500q0.000000 6.250000 -3.546875 10.609375q-3.531250 4.343750 -9.828125 5.906250q7.125000 1.656250 11.093750 6.500000q3.984375 4.828125 3.984375 11.796875q0.000000 10.609375 -6.468750 16.281250q-6.468750 5.656250 -18.531250 5.656250q-12.046875 0.000000 -18.531250 -5.656250q-6.468750 -5.671875 -6.468750 -16.281250q0.000000 -6.968750 4.000000 -11.796875q4.015625 -4.843750 11.140625 -6.500000M18.312500 -54.390625q0.000000 5.656250 3.531250 8.828125q3.546875 3.171875 9.937500 3.171875q6.359375 0.000000 9.937500 -3.171875q3.593750 -3.171875 3.593750 -8.828125q0.000000 -5.671875 -3.593750 -8.843750q-3.578125 -3.171875 -9.937500 -3.171875q-6.390625 0.000000 -9.937500 3.171875q-3.531250 3.171875 -3.531250 8.843750"/>
</defs>
<g style="fill: #000000; opacity: 1.000000" transform="translate(418.463750,401.706250)scale(0.120000)">
<use xlink:href="#c_bef35738d52871942e50b9de9b122bab"/>
<use xlink:href="#c_7a2040fe3b94fcd41d0a72c84e93b115" x="63.623047"/>
<use xlink:href="#c_7a2040fe3b94fcd41d0a72c84e93b115" x="127.246094"/>
</g>
</g>
</g>
<g id="xtick6">
<g id="line2d17">
<path style="fill: none; stroke: #000000; stroke-width: 0.500000; stroke-linejoin: round; stroke-linecap: butt; stroke-dasharray: 1.000000,3.000000; stroke-dashoffset: 0.000000; opacity: 1.000000" clip-path="url(#p50431ccdcb28178602d99d9270004dde)" d="M518.400000 388.800000L518.400000 43.200000"/>
</g>
<g id="line2d18">
<g ><use style="fill: none; stroke: #000000; stroke-width: 0.500000; stroke-linejoin: round; stroke-linecap: butt;  opacity: 1.000000" xlink:href="#m30e32995789d870ad79a2e54c91cf9c6" x="518.400000" y="388.800000"/>
</g></g>
<g id="line2d19">
<g ><use style="fill: none; stroke: #000000; stroke-width: 0.500000; stroke-linejoin: round; stroke-linecap: butt;  opacity: 1.000000" xlink:href="#m9281cae24120827b11d5ea8a7ad3e96b" x="518.400000" y="43.200000"/>
</g></g>
<g id="text6">
<defs>
<path id="c_42baa63129a918535c52adb20d687ea7" d="M12.406250 -8.296875l16.109375 0.000000l0.000000 -55.625000l-17.531250 3.515625l0.000000 -8.984375l17.437500 -3.515625l9.859375 0.000000l0.000000 64.609375l16.109375 0.000000l0.000000 8.296875l-41.984375 0.000000z"/>
</defs>
<g style="fill: #000000; opacity: 1.000000" transform="translate(504.173437,401.706250)scale(0.120000)">
<use xlink:href="#c_42baa63129a918535c52adb20d687ea7"/>
<use xlink:href="#c_7a2040fe3b94fcd41d0a72c84e93b115" x="63.623047"/>
<use xlink:href="#c_7a2040fe3b94fcd41d0a72c84e93b115" x="127.246094"/>
<use xlink:href="#c_7a2040fe3b94fcd41d0a72c84e93b115" x="190.869141"/>
</g>
</g>
</g>
</g>
<g id="matplotlib.axis2">
<g id="ytick1">
<g id="line2d20">
<path style="fill: none; stroke: #000000; stroke-width: 0.500000; stroke-linejoin: round; stroke-linecap: butt; stroke-dasharray: 1.000000,3.000000; stroke-dashoffset: 0.000000; opacity: 1.000000" clip-path="url(#p50431ccdcb28178602d99d9270004dde)" d="M72.000000 388.800000L518.400000 388.800000"/>
</g>
<g id="line2d21">
<defs><path id="m3400efa6b1638b3fea9e19e898273957" d="M0.000000 0.000000L4.000000 0.000000"/></defs>
<g ><use style="fill: none; stroke: #000000; stroke-width: 0.500000; stroke-linejoin: round; stroke-linecap: butt;  opacity: 1.000000" xlink:href="#m3400efa6b1638b3fea9e19e898273957" x="72.000000" y="388.800000"/>
</g></g>
<g id="line2d22">
<defs><path id="m20b58b2501143cb5e0a5e8f1ef6f1643" d="M0.000000 0.000000L-4.000000 0.000000"/></defs>
<g ><use style="fill: none; stroke: #000000; stroke-width: 0.500000; stroke-linejoin: round; stroke-linecap: butt;  opacity: 1.000000" xlink:href="#m20b58b2501143cb5e0a5e8f1ef6f1643" x="518.400000" y="388.800000"/>
</g></g>
<g id="text7">
<defs>
<path id="c_ed3e21196fb739f392806f09ca0594ef" d="M10.687500 -12.406250l10.312500 0.000000l0.000000 12.406250l-10.312500 0.000000z"/>
<path id="c_1260a2df50f305f3db244e29828f968e" d="M10.796875 -72.906250l38.718750 0.000000l0.000000 8.312500l-29.687500 0.000000l0.000000 17.859375q2.140625 -0.734375 4.281250 -1.093750q2.156250 -0.359375 4.312500 -0.359375q12.203125 0.000000 19.328125 6.687500q7.140625 6.687500 7.140625 18.109375q0.000000 11.765625 -7.328125 18.296875q-7.328125 6.515625 -20.656250 6.515625q-4.593750 0.000000 -9.359375 -0.781250q-4.750000 -0.781250 -9.828125 -2.343750l0.000000 -9.921875q4.390625 2.390625 9.078125 3.562500q4.687500 1.171875 9.906250 1.171875q8.453125 0.000000 13.375000 -4.437500q4.937500 -4.437500 4.937500 -12.062500q0.000000 -7.609375 -4.937500 -12.046875q-4.921875 -4.453125 -13.375000 -4.453125q-3.953125 0.000000 -7.890625 0.875000q-3.921875 0.875000 -8.015625 2.734375z"/>
</defs>
<g style="fill: #000000; opacity: 1.000000" transform="translate(35.468750,393.167188)scale(0.120000)">
<use xlink:href="#c_7a2040fe3b94fcd41d0a72c84e93b115"/>
<use xlink:href="#c_ed3e21196fb739f392806f09ca0594ef" x="63.623047"/>
<use xlink:href="#c_7a2040fe3b94fcd41d0a72c84e93b115" x="95.410156"/>
<use xlink:href="#c_7a2040fe3b94fcd41d0a72c84e93b115" x="159.033203"/>
<use xlink:href="#c_1260a2df50f305f3db244e29828f968e" x="222.656250"/>
</g>
</g>
</g>
<g id="ytick2">
<g id="line2d23">
<path style="fill: none; stroke: #000000; stroke-width: 0.500000; stroke-linejoin: round; stroke-linecap: butt; stroke-dasharray: 1.000000,3.000000; stroke-dashoffset: 0.000000; opacity: 1.000000" clip-path="url(#p50431ccdcb28178602d99d9270004dde)" d="M72.000000 331.200000L518.400000 331.200000"/>
</g>
<g id="line2d24">
<g ><use style="fill: none; stroke: #000000; stroke-width: 0.500000; stroke-linejoin: round; stroke-linecap: butt;  opacity: 1.000000" xlink:href="#m3400efa6b1638b3fea9e19e898273957" x="72.000000" y="331.200000"/>
</g></g>
<g id="line2d25">
<g ><use style="fill: none; stroke: #000000; stroke-width: 0.500000; stroke-linejoin: round; stroke-linecap: butt;  opacity: 1.000000" xlink:href="#m20b58b2501143cb5e0a5e8f1ef6f1643" x="518.400000" y="331.200000"/>
</g></g>
<g id="text8">
<g style="fill: #000000; opacity: 1.000000" transform="translate(35.218750,335.567187)scale(0.120000)">
<use xlink:href="#c_7a2040fe3b94fcd41d0a72c84e93b115"/>
<use xlink:href="#c_ed3e21196fb739f392806f09ca0594ef" x="63.623047"/>
<use xlink:href="#c_7a2040fe3b94fcd41d0a72c84e93b115" x="95.410156"/>
<use xlink:href="#c_42baa63129a918535c52adb20d687ea7" x="159.033203"/>
<use xlink:href="#c_7a2040fe3b94fcd41d0a72c84e93b115" x="222.656250"/>
</g>
</g>
</g>
<g id="ytick3">
<g id="line2d26">
<path style="fill: none; stroke: #000000; stroke-width: 0.500000; stroke-linejoin: round; stroke-linecap: butt; stroke-dasharray: 1.000000,3.000000; stroke-dashoffset: 0.000000; opacity: 1.000000" clip-path="url(#p50431ccdcb28178602d99d9270004dde)" d="M72.000000 273.600000L518.400000 273.600000"/>
</g>
<g id="line2d27">
<g ><use style="fill: none; stroke: #000000; stroke-width: 0.500000; stroke-linejoin: round; stroke-linecap: butt;  opacity: 1.000000" xlink:href="#m3400efa6b1638b3fea9e19e898273957" x="72.000000" y="273.600000"/>
</g></g>
<g id="line2d28">
<g ><use style="fill: none; stroke: #000000; stroke-width: 0.500000; stroke-linejoin: round; stroke-linecap: butt;  opacity: 1.000000" xlink:href="#m20b58b2501143cb5e0a5e8f1ef6f1643" x="518.400000" y="273.600000"/>
</g></g>
<g id="text9">
<g style="fill: #000000; opacity: 1.000000" transform="translate(35.468750,277.967188)scale(0.120000)">
<use xlink:href="#c_7a2040fe3b94fcd41d0a72c84e93b115"/>
<use xlink:href="#c_ed3e21196fb739f392806f09ca0594ef" x="63.623047"/>
<use xlink:href="#c_7a2040fe3b94fcd41d0a72c84e93b115" x="95.410156"/>
<use xlink:href="#c_42baa63129a918535c52adb20d687ea7" x="159.033203"/>
<use xlink:href="#c_1260a2df50f305f3db244e29828f968e" x="222.656250"/>
</g>
</g>
</g>
<g id="ytick4">
<g id="line2d29">
<path style="fill: none; stroke: #000000; stroke-width: 0.500000; stroke-linejoin: round; stroke-linecap: butt; stroke-dasharray: 1.000000,3.000000; stroke-dashoffset: 0.000000; opacity: 1.000000" clip-path="url(#p50431ccdcb28178602d99d9270004dde)" d="M72.000000 216.000000L518.400000 216.000000"/>
</g>
<g id="line2d30">
<g ><use style="fill: none; stroke: #000000; stroke-width: 0.500000; stroke-linejoin: round; stroke-linecap: butt;  opacity: 1.000000" xlink:href="#m3400efa6b1638b3fea9e19e898273957" x="72.000000" y="216.000000"/>
</g></g>
<g id="line2d31">
<g ><use style="fill: none; stroke: #000000; stroke-width: 0.500000; stroke-linejoin: round; stroke-linecap: butt;  opacity: 1.000000" xlink:href="#m20b58b2501143cb5e0a5e8f1ef6f1643" x="518.400000" y="216.000000"/>
</g></g>
<g id="text10">
<g style="fill: #000000; opacity: 1.000000" transform="translate(35.218750,220.367188)scale(0.120000)">
<use xlink:href="#c_7a2040fe3b94fcd41d0a72c84e93b115"/>
<use xlink:href="#c_ed3e21196fb739f392806f09ca0594ef" x="63.623047"/>
<use xlink:href="#c_7a2040fe3b94fcd41d0a72c84e93b115" x="95.410156"/>
<use xlink:href="#c_ed3f3ed3ebfbd18bcb9c012009a68ad1" x="159.033203"/>
<use xlink:href="#c_7a2040fe3b94fcd41d0a72c84e93b115" x="222.656250"/>
</g>
</g>
</g>
<g id="ytick5">
<g id="line2d32">
<path style="fill: none; stroke: #000000; stroke-width: 0.500000; stroke-linejoin: round; stroke-linecap: butt; stroke-dasharray: 1.000000,3.000000; stroke-dashoffset: 0.000000; opacity: 1.000000" clip-path="url(#p50431ccdcb28178602d99d9270004dde)" d="M72.000000 158.400000L518.400000 158.400000"/>
</g>
<g id="line2d33">
<g ><use style="fill: none; stroke: #000000; stroke-width: 0.500000; stroke-linejoin: round; stroke-linecap: butt;  opacity: 1.000000" xlink:href="#m3400efa6b1638b3fea9e19e898273957" x="72.000000" y="158.400000"/>
</g></g>
<g id="line2d34">
<g ><use style="fill: none; stroke: #000000; stroke-width: 0.500000; stroke-linejoin: round; stroke-linecap: butt;  opacity: 1.000000" xlink:href="#m20b58b2501143cb5e0a5e8f1ef6f1643" x="518.400000" y="158.400000"/>
</g></g>
<g id="text11">
<g style="fill: #000000; opacity: 1.000000" transform="translate(35.468750,162.767187)scale(0.120000)">
<use xlink:href="#c_7a2040fe3b94fcd41d0a72c84e93b115"/>
<use xlink:href="#c_ed3e21196fb739f392806f09ca0594ef" x="63.623047"/>
<use xlink:href="#c_7a2040fe3b94fcd41d0a72c84e93b115" x="95.410156"/>
<use xlink:href="#c_ed3f3ed3ebfbd18bcb9c012009a68ad1" x="159.033203"/>
<use xlink:href="#c_1260a2df50f305f3db244e29828f968e" x="222.656250"/>
</g>
</g>
</g>
<g id="ytick6">
<g id="line2d35">
<path style="fill: none; stroke: #000000; stroke-width: 0.500000; stroke-linejoin: round; stroke-linecap: butt; stroke-dasharray: 1.000000,3.000000; stroke-dashoffset: 0.000000; opacity: 1.000000" clip-path="url(#p50431ccdcb28178602d99d9270004dde)" d="M72.000000 100.800000L518.400000 100.800000"/>
</g>
<g id="line2d36">
<g ><use style="fill: none; stroke: #000000; stroke-width: 0.500000; stroke-linejoin: round; stroke-linecap: butt;  opacity: 1.000000" xlink:href="#m3400efa6b1638b3fea9e19e898273957" x="72.000000" y="100.800000"/>
</g></g>
<g id="line2d37">
<g ><use style="fill: none; stroke: #000000; stroke-width: 0.500000; stroke-linejoin: round; stroke-linecap: butt;  opacity: 1.000000" xlink:href="#m20b58b2501143cb5e0a5e8f1ef6f1643" x="518.400000" y="100.800000"/>
</g></g>
<g id="text12">
<defs>
<path id="c_3dcfa38a02242cb63ec6726c6e70be7a" d="M40.578125 -39.312500q7.078125 1.515625 11.046875 6.312500q3.984375 4.781250 3.984375 11.812500q0.000000 10.781250 -7.421875 16.703125q-7.421875 5.906250 -21.093750 5.906250q-4.578125 0.000000 -9.437500 -0.906250q-4.859375 -0.906250 -10.031250 -2.718750l0.000000 -9.515625q4.093750 2.390625 8.968750 3.609375q4.890625 1.218750 10.218750 1.218750q9.265625 0.000000 14.125000 -3.656250q4.859375 -3.656250 4.859375 -10.640625q0.000000 -6.453125 -4.515625 -10.078125q-4.515625 -3.640625 -12.562500 -3.640625l-8.500000 0.000000l0.000000 -8.109375l8.890625 0.000000q7.265625 0.000000 11.125000 -2.906250q3.859375 -2.906250 3.859375 -8.375000q0.000000 -5.609375 -3.984375 -8.609375q-3.968750 -3.015625 -11.390625 -3.015625q-4.062500 0.000000 -8.703125 0.890625q-4.640625 0.875000 -10.203125 2.718750l0.000000 -8.781250q5.625000 -1.562500 10.531250 -2.343750q4.906250 -0.781250 9.250000 -0.781250q11.234375 0.000000 17.765625 5.109375q6.546875 5.093750 6.546875 13.781250q0.000000 6.062500 -3.468750 10.234375q-3.468750 4.171875 -9.859375 5.781250"/>
</defs>
<g style="fill: #000000; opacity: 1.000000" transform="translate(35.218750,105.167187)scale(0.120000)">
<use xlink:href="#c_7a2040fe3b94fcd41d0a72c84e93b115"/>
<use xlink:href="#c_ed3e21196fb739f392806f09ca0594ef" x="63.623047"/>
<use xlink:href="#c_7a2040fe3b94fcd41d0a72c84e93b115" x="95.410156"/>
<use xlink:href="#c_3dcfa38a02242cb63ec6726c6e70be7a" x="159.033203"/>
<use xlink:href="#c_7a2040fe3b94fcd41d0a72c84e93b115" x="222.656250"/>
</g>
</g>
</g>
<g id="ytick7">
<g id="line2d38">
<path style="fill: none; stroke: #000000; stroke-width: 0.500000; stroke-linejoin: round; stroke-linecap: butt; stroke-dasharray: 1.000000,3.000000; stroke-dashoffset: 0.000000; opacity: 1.000000" clip-path="url(#p50431ccdcb28178602d99d9270004dde)" d="M72.000000 43.200000L518.400000 43.200000"/>
</g>
<g id="line2d39">
<g ><use style="fill: none; stroke: #000000; stroke-width: 0.500000; stroke-linejoin: round; stroke-linecap: butt;  opacity: 1.000000" xlink:href="#m3400efa6b1638b3fea9e19e898273957" x="72.000000" y="43.200000"/>
</g></g>
<g id="line2d40">
<g ><use style="fill: none; stroke: #000000; stroke-width: 0.500000; stroke-linejoin: round; stroke-linecap: butt;  opacity: 1.000000" xlink:href="#m20b58b2501143cb5e0a5e8f1ef6f1643" x="518.400000" y="43.200000"/>
</g></g>
<g id="text13">
<g style="fill: #000000; opacity: 1.000000" transform="translate(35.468750,47.567187)scale(0.120000)">
<use xlink:href="#c_7a2040fe3b94fcd41d0a72c84e93b115"/>
<use xlink:href="#c_ed3e21196fb739f392806f09ca0594ef" x="63.623047"/>
<use xlink:href="#c_7a2040fe3b94fcd41d0a72c84e93b115" x="95.410156"/>
<use xlink:href="#c_3dcfa38a02242cb63ec6726c6e70be7a" x="159.033203"/>
<use xlink:href="#c_1260a2df50f305f3db244e29828f968e" x="222.656250"/>
</g>
</g>
</g>
</g>
<g id="patch3">
<path style="fill: none; stroke: #000000; stroke-width: 1.000000; stroke-linejoin: round; stroke-linecap: square;  opacity: 1.000000"  d="M72.000000 43.200000L518.400000 43.200000"/>
</g>
<g id="patch4">
<path style="fill: none; stroke: #000000; stroke-width: 1.000000; stroke-linejoin: round; stroke-linecap: square;  opacity: 1.000000"  d="M518.400000 388.800000L518.400000 43.200000"/>
</g>
<g id="patch5">
<path style="fill: none; stroke: #000000; stroke-width: 1.000000; stroke-linejoin: round; stroke-linecap: square;  opacity: 1.000000"  d="M72.000000 388.800000L518.400000 388.800000"/>
</g>
<g id="patch6">
<path style="fill: none; stroke: #000000; stroke-width: 1.000000; stroke-linejoin: round; stroke-linecap: square;  opacity: 1.000000"  d="M72.000000 388.800000L72.000000 43.200000"/>
</g>
</g>
</g>
</svg>
