<?xml version="1.0" standalone="no"?>
<!DOCTYPE svg PUBLIC "-//W3C//DTD SVG 1.1//EN"
  "http://www.w3.org/Graphics/SVG/1.1/DTD/svg11.dtd">
<!-- Created with matplotlib (http://matplotlib.sourceforge.net/) -->
<svg width="576pt" height="432pt" viewBox="0 0 576 432"
   xmlns="http://www.w3.org/2000/svg"
   xmlns:xlink="http://www.w3.org/1999/xlink"
   version="1.1"
   id="svg1">
<g id="figure1">
<g id="patch1">
<path style="fill: #ffffff; stroke: #ffffff; stroke-width: 1.000000; stroke-linejoin: round; stroke-linecap: square;  opacity: 1.000000"  d="M0.000000 432.000000L576.000000 432.000000L576.000000 0.000000
L0.000000 0.000000L0.000000 432.000000"/>
</g>
<g id="axes1">
<g id="patch2">
<path style="fill: #ffffff; opacity: 1.000000"  d="M72.000000 388.800000L518.400000 388.800000L518.400000 43.200000
L72.000000 43.200000L72.000000 388.800000"/>
</g>
<g id="line2d1">
<defs>
  <clipPath id="p50431ccdcb28178602d99d9270004dde">
<rect x="72.000000" y="43.200000" width="446.400000" height="345.600000"/>
  </clipPath>
</defs><path style="fill: none; stroke: #ff0000; stroke-width: 1.000000; stroke-linejoin: round; stroke-linecap: square;  opacity: 1.000000" clip-path="url(#p50431ccdcb28178602d99d9270004dde)" d="M72.000000 231.886220L72.446400 87.451537L72.892800 317.597192
L73.785600 312.628748L74.232000 318.676921L75.571200 318.245044
L76.017600 353.086560L76.464000 318.524783L76.910400 352.846220
L78.249600 318.275309L79.588800 352.238334L80.035200 317.989596
L80.481600 352.794182L80.928000 353.864678L81.374400 313.413013
L81.820800 318.856411L82.267200 353.063997L82.713600 354.253034
L83.160000 325.777396L83.606400 351.957855L84.052800 350.886248
L84.499200 316.851980L84.945600 353.259039L85.392000 317.124584
L85.838400 353.652776L86.284800 292.021904L86.731200 353.724069
L87.177600 317.346830L87.624000 352.807735L88.516800 342.435415
L88.963200 352.805143L89.856000 316.640325L90.748800 352.659300
L91.641600 349.549887L92.088000 353.058344L92.534400 352.021371
L92.980800 354.002252L93.427200 352.862759L94.320000 326.913186
L95.212800 110.661194L95.659200 352.021100L96.998400 352.194443
L97.891200 350.517814L98.784000 315.756773L99.230400 353.315224
L99.676800 339.871557L100.123200 353.133710L100.569600 308.881629
L101.016000 353.703579L101.908800 291.997712L102.355200 351.421755
L102.801600 325.579096L103.248000 353.679363L104.140800 346.867365
L104.587200 352.873596L105.480000 354.768595L106.372800 335.940381
L106.819200 350.349531L107.265600 352.556632L107.712000 347.304080
L108.158400 352.733135L109.051200 349.434284L109.497600 353.023414
L109.944000 343.172432L110.390400 353.549565L110.836800 342.548525
L111.283200 350.858279L111.729600 332.639975L112.176000 353.528558
L113.068800 347.251696L113.961600 353.053876L114.408000 345.177109
L114.854400 350.984991L115.300800 331.483425L115.747200 330.399747
L116.193600 315.196877L116.640000 352.060103L117.532800 353.295352
L118.425600 337.899168L118.872000 353.770453L119.764800 338.762773
L120.211200 353.577929L121.104000 347.396330L121.550400 353.234674
L121.996800 354.639612L122.443200 348.120560L122.889600 353.827329
L123.336000 352.481093L123.782400 348.201874L124.228800 352.822694
L125.121600 348.778557L126.014400 354.017952L126.460800 347.002050
L126.907200 353.380073L127.353600 329.147909L128.692800 352.558360
L129.585600 350.530280L130.032000 308.299688L130.478400 353.124946
L131.817600 327.894023L132.264000 352.133642L132.710400 343.148215
L133.156800 353.159087L134.049600 349.404167L134.496000 351.134167
L134.942400 332.024289L135.388800 328.895424L135.835200 353.701160
L136.728000 352.676629L137.174400 335.435855L137.620800 352.127397
L138.513600 345.235738L138.960000 353.597752L139.406400 328.160925
L139.852800 352.559841L140.299200 353.822219L140.745600 339.876370
L141.192000 352.194245L142.084800 350.788493L142.531200 352.900158
L143.424000 351.582163L143.870400 352.797120L144.316800 342.456941
L144.763200 353.517227L145.656000 349.136327L146.548800 353.801606
L146.995200 348.979573L147.441600 353.446428L147.888000 329.807685
L148.780800 351.889056L149.227200 353.183674L150.566400 352.685318
L151.905600 352.742096L153.244800 354.046291L153.691200 352.513308
L154.137600 331.067248L154.584000 351.742275L155.030400 353.010874
L155.476800 340.918725L155.923200 352.435919L156.816000 341.119099
L157.262400 352.560853L158.601600 329.062003L159.048000 354.430426
L159.494400 350.879163L159.940800 352.305751L160.833600 335.441755
L162.172800 352.813635L163.065600 337.147587L163.512000 353.311348
L163.958400 327.943963L164.851200 345.822961L165.297600 352.708449
L165.744000 319.401940L166.190400 341.964313L167.083200 353.860679
L167.529600 351.366608L167.976000 330.301670L168.422400 353.151360
L168.868800 329.426192L169.315200 352.769941L169.761600 319.644749
L170.208000 352.755426L171.100800 339.903130L171.547200 353.460104
L171.993600 339.205561L172.440000 352.963403L173.332800 351.599122
L173.779200 353.736362L174.225600 340.712130L174.672000 353.581286
L175.564800 342.305321L176.011200 352.173139L176.457600 353.851151
L177.350400 351.326123L177.796800 353.863049L178.243200 331.244862
L179.136000 353.352005L180.475200 351.641137L180.921600 331.716409
L181.368000 352.523454L182.707200 342.495870L183.153600 331.692093
L183.600000 352.378598L184.492800 353.651493L184.939200 352.568555
L185.385600 340.679569L185.832000 352.631726L186.278400 335.475253
L186.724800 352.823114L187.171200 354.083073L187.617600 339.849932
L188.064000 353.597061L188.510400 339.946823L188.956800 352.988237
L189.403200 351.574437L190.296000 353.344501L191.188800 348.871178
L191.635200 353.118602L192.528000 351.438887L192.974400 352.845307
L193.867200 326.646407L194.313600 350.897826L194.760000 353.679659
L195.652800 352.401630L196.099200 315.894989L196.545600 352.662558
L196.992000 346.691849L197.438400 351.956720L198.331200 340.593787
L198.777600 353.711553L199.670400 352.343150L200.116800 354.051080
L201.009600 350.996248L201.456000 353.648481L202.348800 352.533797
L202.795200 353.672920L203.241600 349.825775L204.134400 353.893413
L204.580800 346.844333L205.027200 353.152644L205.473600 341.898846
L205.920000 353.707258L206.812800 352.427205L207.259200 341.554703
L207.705600 353.516165L208.152000 352.087480L209.491200 353.054444
L210.830400 353.482469L211.276800 307.672449L211.723200 352.927066
L212.169600 340.486576L212.616000 352.990779L213.062400 341.723306
L213.508800 353.375136L214.401600 349.577264L214.848000 353.255509
L215.740800 349.719379L216.187200 352.481019L217.080000 350.532996
L217.526400 353.588544L218.419200 350.458667L218.865600 352.902281
L219.758400 348.976956L220.204800 353.137857L221.544000 353.611057
L221.990400 352.579688L223.329600 327.647018L223.776000 351.838080
L225.115200 353.952732L225.561600 352.943210L226.454400 342.390635
L226.900800 352.763819L227.347200 329.264327L227.793600 352.962860
L228.686400 342.447980L229.132800 353.116751L230.025600 349.734758
L230.472000 352.871103L230.918400 345.365387L231.364800 353.038571
L232.257600 351.963261L232.704000 353.046767L233.596800 350.057401
L234.043200 353.300659L234.936000 350.331363L235.382400 353.477434
L236.275200 328.356510L236.721600 352.692650L237.168000 336.368308
L237.614400 352.830199L238.507200 340.736124L238.953600 328.181563
L239.400000 353.286416L239.846400 327.724803L240.292800 328.900090
L240.739200 342.339363L241.185600 328.883846L241.632000 352.729876
L242.524800 343.445653L242.971200 353.295969L243.864000 350.541660
L244.310400 353.576942L245.203200 350.589995L245.649600 316.221680
L246.096000 341.518859L246.988800 352.597215L247.881600 335.860770
L248.328000 342.035482L249.667200 328.958891L250.113600 353.799607
L251.006400 338.716117L251.452800 341.431101L251.899200 353.499206
L253.238400 353.056888L253.684800 341.930641L254.131200 353.241660
L254.577600 337.764162L255.024000 353.302659L255.916800 339.091932
L256.363200 353.255262L257.256000 350.492141L257.702400 353.052321
L258.148800 352.043761L258.595200 338.124993L259.041600 351.653702
L259.488000 340.995423L260.380800 353.419447L260.827200 342.558251
L261.273600 352.761202L262.166400 344.662757L262.612800 352.520122
L263.952000 352.256182L264.398400 328.546590L264.844800 353.922196
L265.737600 339.406157L266.184000 352.446756L267.523200 351.516746
L267.969600 352.966884L269.308800 341.602840L269.755200 351.920086
L270.201600 341.840316L270.648000 352.208662L271.987200 353.296339
L273.326400 352.402223L276.004800 352.976758L276.451200 343.899796
L276.897600 353.090510L277.344000 329.045316L277.790400 351.962990
L278.236800 332.767280L278.683200 352.688083L279.129600 354.503643
L279.576000 351.282281L280.022400 334.806640L280.468800 338.825598
L280.915200 351.463450L281.361600 336.254087L281.808000 353.580817
L282.700800 351.563525L283.593600 353.958213L284.040000 351.306251
L284.486400 336.509831L284.932800 353.547319L285.379200 331.223089
L286.718400 352.410270L288.057600 353.623351L288.504000 341.436532
L288.950400 353.409054L289.396800 351.252337L289.843200 341.425596
L290.289600 352.268327L291.182400 343.713049L291.628800 352.900825
L292.075200 309.584950L292.521600 339.821371L292.968000 255.961456
L293.860800 353.371976L294.307200 329.239790L294.753600 354.154044
L295.200000 352.459617L295.646400 328.689545L296.092800 353.336552
L298.771200 353.193474L300.110400 353.126551L301.449600 353.450403
L301.896000 316.284974L302.342400 352.213994L302.788800 353.259681
L303.235200 352.087677L304.128000 340.485688L305.020800 346.044540
L305.467200 328.168973L306.360000 354.772101L307.252800 349.208928
L307.699200 353.029808L308.592000 351.570512L309.038400 353.055382
L310.377600 352.444707L311.270400 353.553564L311.716800 328.284527
L312.163200 351.983553L313.056000 329.386077L313.502400 353.198189
L314.395200 351.247005L314.841600 352.990656L318.859200 353.522831
L320.198400 351.839561L321.091200 352.881693L323.769600 352.695588
L325.108800 340.959184L326.001600 352.514222L327.340800 340.261936
L327.787200 352.349617L328.233600 324.321581L328.680000 352.346112
L329.572800 341.673490L330.019200 353.253115L331.358400 352.678999
L332.697600 352.566136L333.144000 328.150459L333.590400 352.971574
L334.036800 340.408570L334.929600 352.058647L335.376000 341.270422
L335.822400 353.159531L337.161600 352.127668L338.500800 316.661776
L338.947200 350.432352L339.393600 352.119966L339.840000 341.674675
L340.286400 352.888803L341.625600 340.058674L342.072000 352.044107
L342.518400 346.533120L342.964800 353.618661L345.643200 353.972506
L346.536000 352.202762L346.982400 341.820592L347.428800 353.298586
L350.107200 353.308731L351.446400 341.608912L351.892800 353.706418
L352.339200 352.348679L352.785600 342.587232L353.678400 353.318433
L355.017600 328.532741L355.464000 352.562581L356.356800 346.827472
L356.803200 353.545591L357.696000 340.680285L358.142400 353.106062
L359.481600 353.365435L360.820800 354.561309L361.267200 350.502978
L361.713600 335.953415L362.160000 352.834297L363.052800 327.005214
L363.499200 352.591315L363.945600 354.605373L364.392000 350.654573
L364.838400 321.928079L365.284800 327.938754L365.731200 352.991372
L366.624000 351.335775L367.070400 353.478890L367.516800 352.335472
L368.856000 350.927819L369.302400 352.964390L369.748800 329.011521
L370.195200 351.989181L370.641600 353.708467L371.088000 344.965355
L371.980800 353.601331L372.427200 295.931701L372.873600 352.668656
L373.320000 316.423436L373.766400 352.859501L374.212800 340.536491
L374.659200 353.097989L375.552000 329.390126L375.998400 352.668878
L376.444800 338.180412L376.891200 352.730641L377.337600 294.197851
L377.784000 353.491085L378.230400 354.630256L378.676800 357.185154
L379.123200 322.697631L379.569600 329.842862L380.016000 228.573693
L380.462400 326.441368L380.908800 281.283420L381.355200 324.882070
L382.248000 326.956904L382.694400 329.668309L383.140800 325.902355
L383.587200 352.502175L384.033600 343.441308L384.480000 298.964736
L384.926400 327.006695L385.372800 323.509297L385.819200 325.379290
L386.265600 353.336873L387.158400 328.366187L387.604800 352.392521
L388.051200 353.830464L388.497600 326.461635L388.944000 328.978294
L389.390400 353.152520L390.729600 353.069798L391.622400 327.974054
L392.068800 353.019119L392.515200 354.332374L392.961600 351.076229
L393.408000 327.339804L393.854400 352.314465L394.300800 327.909156
L394.747200 323.585033L395.193600 313.085878L395.640000 334.369432
L396.086400 328.216542L396.532800 352.229373L397.872000 347.656369
L398.318400 351.890192L399.657600 352.088640L400.996800 353.440257
L401.443200 327.060560L401.889600 352.640736L402.336000 351.607269
L402.782400 353.075772L403.675200 351.838747L404.121600 353.111567
L405.014400 325.363417L405.460800 353.303992L405.907200 351.700136
L406.353600 353.122502L407.692800 353.324432L408.139200 327.655140
L408.585600 352.386325L409.478400 350.154662L409.924800 353.881712
L410.371200 352.273314L410.817600 353.300980L411.264000 352.012534
L412.603200 352.898035L413.942400 353.271925L414.388800 323.657140
L414.835200 352.783864L415.728000 322.691213L416.174400 352.756586
L417.067200 351.160482L417.513600 341.835873L417.960000 353.574053
L418.406400 328.997573L418.852800 352.848022L419.299200 329.858858
L419.745600 352.464208L420.192000 325.331449L420.638400 352.943235
L421.084800 328.529409L421.531200 353.322037L422.424000 346.533663
L422.870400 352.384227L424.209600 352.465270L424.656000 349.959522
L425.102400 351.486778L426.441600 353.470522L427.334400 351.889698
L427.780800 353.297450L428.673600 352.295506L430.012800 352.729037
L430.905600 350.197739L431.352000 352.958441L431.798400 344.149023
L432.244800 352.971771L433.584000 335.035971L434.030400 353.232354
L435.369600 342.266219L435.816000 333.797365L436.262400 353.157161
L437.155200 329.477982L437.601600 353.289328L438.494400 351.581521
L438.940800 341.658235L439.387200 352.140036L440.280000 328.133598
L440.726400 352.945432L441.619200 351.718206L442.065600 337.132059
L442.512000 353.363139L442.958400 328.004640L443.404800 352.229324
L443.851200 340.838940L444.297600 351.567426L444.744000 353.499725
L445.636800 337.676602L446.083200 353.400241L447.422400 353.143041
L448.761600 351.947660L449.208000 353.062812L449.654400 328.231650
L450.100800 351.875355L450.547200 352.990977L450.993600 351.765627
L451.440000 353.075698L452.779200 352.669445L453.225600 350.530527
L453.672000 352.248801L455.011200 353.088609L455.457600 315.351582
L455.904000 339.781799L456.350400 341.684994L457.689600 341.395628
L458.136000 337.352676L458.582400 317.082520L459.028800 351.417929
L459.475200 298.615729L460.368000 341.078466L461.707200 342.109860
L462.153600 349.129144L462.600000 342.222599L463.492800 353.308435
L463.939200 341.746140L464.385600 353.739053L464.832000 351.568537
L465.278400 341.826369L465.724800 353.180539L466.171200 342.030569
L466.617600 352.163536L467.064000 341.338357L467.956800 328.719119
L468.403200 352.665200L468.849600 331.086355L469.296000 352.951381
L469.742400 351.888464L470.188800 353.200978L471.528000 315.922513
L471.974400 352.314490L472.420800 343.530078L472.867200 352.129445
L473.313600 353.143535L473.760000 340.934647L474.206400 352.113499
L474.652800 338.824339L475.099200 352.951430L476.438400 353.198633
L477.777600 353.034646L479.116800 353.845670L479.563200 328.944573
L480.009600 352.671149L481.348800 352.847232L482.688000 353.827872
L483.134400 352.665743L484.473600 353.200238L485.812800 352.601239
L487.152000 352.894752L487.598400 354.576442L488.044800 350.904911
L488.491200 352.523109L489.384000 330.570251L489.830400 351.347772
L491.169600 69.375250L491.616000 93.364408L492.062400 328.973085
L492.508800 353.240944L493.848000 348.679024L494.294400 329.345519
L494.740800 351.919691L495.187200 353.214062L496.526400 353.174688
L496.972800 341.363265L497.419200 352.953430L498.312000 354.159673
L499.204800 349.050224L499.651200 328.333750L500.097600 348.327623
L500.990400 353.087918L501.436800 351.724353L502.329600 352.980831
L502.776000 351.919222L503.668800 326.995661L504.115200 352.946246
L505.008000 351.728994L506.347200 353.024426L507.240000 337.239837
L507.686400 352.582280L508.579200 328.855754L509.025600 353.136005
L509.918400 352.081851L510.364800 343.223383L510.811200 352.606546
L511.704000 327.308651L512.150400 351.494652L512.596800 352.830298
L513.489600 338.673633L513.936000 352.909119L514.828800 354.056857
L515.275200 352.866043L516.614400 353.801829L517.060800 352.345766
L517.060800 352.345766"/>
</g>
<g id="matplotlib.axis1">
<g id="xtick1">
<g id="line2d2">
<path style="fill: none; stroke: #000000; stroke-width: 0.500000; stroke-linejoin: round; stroke-linecap: butt; stroke-dasharray: 1.000000,3.000000; stroke-dashoffset: 0.000000; opacity: 1.000000" clip-path="url(#p50431ccdcb28178602d99d9270004dde)" d="M72.000000 388.800000L72.000000 43.200000"/>
</g>
<g id="line2d3">
<defs><path id="m30e32995789d870ad79a2e54c91cf9c6" d="M0.000000 0.000000L0.000000 -4.000000"/></defs>
<g ><use style="fill: none; stroke: #000000; stroke-width: 0.500000; stroke-linejoin: round; stroke-linecap: butt;  opacity: 1.000000" xlink:href="#m30e32995789d870ad79a2e54c91cf9c6" x="72.000000" y="388.800000"/>
</g></g>
<g id="line2d4">
<defs><path id="m9281cae24120827b11d5ea8a7ad3e96b" d="M0.000000 0.000000L0.000000 4.000000"/></defs>
<g ><use style="fill: none; stroke: #000000; stroke-width: 0.500000; stroke-linejoin: round; stroke-linecap: butt;  opacity: 1.000000" xlink:href="#m9281cae24120827b11d5ea8a7ad3e96b" x="72.000000" y="43.200000"/>
</g></g>
<g id="text1">
<defs>
<path id="c_7a2040fe3b94fcd41d0a72c84e93b115" d="M31.781250 -66.406250q-7.609375 0.000000 -11.453125 7.500000q-3.828125 7.484375 -3.828125 22.531250q0.000000 14.984375 3.828125 22.484375q3.843750 7.500000 11.453125 7.500000q7.671875 0.000000 11.500000 -7.500000q3.843750 -7.500000 3.843750 -22.484375q0.000000 -15.046875 -3.843750 -22.531250q-3.828125 -7.500000 -11.500000 -7.500000M31.781250 -74.218750q12.265625 0.000000 18.734375 9.703125q6.468750 9.687500 6.468750 28.140625q0.000000 18.406250 -6.468750 28.109375q-6.468750 9.687500 -18.734375 9.687500q-12.250000 0.000000 -18.718750 -9.687500q-6.468750 -9.703125 -6.468750 -28.109375q0.000000 -18.453125 6.468750 -28.140625q6.468750 -9.703125 18.718750 -9.703125"/>
</defs>
<g style="fill: #000000; opacity: 1.000000" transform="translate(68.976562,401.706250)scale(0.120000)">
<use xlink:href="#c_7a2040fe3b94fcd41d0a72c84e93b115"/>
</g>
</g>
</g>
<g id="xtick2">
<g id="line2d5">
<path style="fill: none; stroke: #000000; stroke-width: 0.500000; stroke-linejoin: round; stroke-linecap: butt; stroke-dasharray: 1.000000,3.000000; stroke-dashoffset: 0.000000; opacity: 1.000000" clip-path="url(#p50431ccdcb28178602d99d9270004dde)" d="M161.280000 388.800000L161.280000 43.200000"/>
</g>
<g id="line2d6">
<g ><use style="fill: none; stroke: #000000; stroke-width: 0.500000; stroke-linejoin: round; stroke-linecap: butt;  opacity: 1.000000" xlink:href="#m30e32995789d870ad79a2e54c91cf9c6" x="161.280000" y="388.800000"/>
</g></g>
<g id="line2d7">
<g ><use style="fill: none; stroke: #000000; stroke-width: 0.500000; stroke-linejoin: round; stroke-linecap: butt;  opacity: 1.000000" xlink:href="#m9281cae24120827b11d5ea8a7ad3e96b" x="161.280000" y="43.200000"/>
</g></g>
<g id="text2">
<defs>
<path id="c_ed3f3ed3ebfbd18bcb9c012009a68ad1" d="M19.187500 -8.296875l34.421875 0.000000l0.000000 8.296875l-46.281250 0.000000l0.000000 -8.296875q5.609375 -5.812500 15.296875 -15.593750q9.703125 -9.796875 12.187500 -12.640625q4.734375 -5.312500 6.609375 -9.000000q1.890625 -3.687500 1.890625 -7.250000q0.000000 -5.812500 -4.078125 -9.468750q-4.078125 -3.671875 -10.625000 -3.671875q-4.640625 0.000000 -9.796875 1.609375q-5.140625 1.609375 -11.000000 4.890625l0.000000 -9.968750q5.953125 -2.390625 11.125000 -3.609375q5.187500 -1.218750 9.484375 -1.218750q11.328125 0.000000 18.062500 5.671875q6.734375 5.656250 6.734375 15.125000q0.000000 4.500000 -1.687500 8.531250q-1.671875 4.015625 -6.125000 9.484375q-1.218750 1.421875 -7.765625 8.187500q-6.531250 6.765625 -18.453125 18.921875"/>
</defs>
<g style="fill: #000000; opacity: 1.000000" transform="translate(150.655000,401.706250)scale(0.120000)">
<use xlink:href="#c_ed3f3ed3ebfbd18bcb9c012009a68ad1"/>
<use xlink:href="#c_7a2040fe3b94fcd41d0a72c84e93b115" x="63.623047"/>
<use xlink:href="#c_7a2040fe3b94fcd41d0a72c84e93b115" x="127.246094"/>
</g>
</g>
</g>
<g id="xtick3">
<g id="line2d8">
<path style="fill: none; stroke: #000000; stroke-width: 0.500000; stroke-linejoin: round; stroke-linecap: butt; stroke-dasharray: 1.000000,3.000000; stroke-dashoffset: 0.000000; opacity: 1.000000" clip-path="url(#p50431ccdcb28178602d99d9270004dde)" d="M250.560000 388.800000L250.560000 43.200000"/>
</g>
<g id="line2d9">
<g ><use style="fill: none; stroke: #000000; stroke-width: 0.500000; stroke-linejoin: round; stroke-linecap: butt;  opacity: 1.000000" xlink:href="#m30e32995789d870ad79a2e54c91cf9c6" x="250.560000" y="388.800000"/>
</g></g>
<g id="line2d10">
<g ><use style="fill: none; stroke: #000000; stroke-width: 0.500000; stroke-linejoin: round; stroke-linecap: butt;  opacity: 1.000000" xlink:href="#m9281cae24120827b11d5ea8a7ad3e96b" x="250.560000" y="43.200000"/>
</g></g>
<g id="text3">
<defs>
<path id="c_a0416418d96557a09b8c1332d34883ba" d="M37.796875 -64.312500l-24.906250 38.921875l24.906250 0.000000zM35.203125 -72.906250l12.406250 0.000000l0.000000 47.515625l10.406250 0.000000l0.000000 8.203125l-10.406250 0.000000l0.000000 17.187500l-9.812500 0.000000l0.000000 -17.187500l-32.906250 0.000000l0.000000 -9.515625z"/>
</defs>
<g style="fill: #000000; opacity: 1.000000" transform="translate(239.794375,401.706250)scale(0.120000)">
<use xlink:href="#c_a0416418d96557a09b8c1332d34883ba"/>
<use xlink:href="#c_7a2040fe3b94fcd41d0a72c84e93b115" x="63.623047"/>
<use xlink:href="#c_7a2040fe3b94fcd41d0a72c84e93b115" x="127.246094"/>
</g>
</g>
</g>
<g id="xtick4">
<g id="line2d11">
<path style="fill: none; stroke: #000000; stroke-width: 0.500000; stroke-linejoin: round; stroke-linecap: butt; stroke-dasharray: 1.000000,3.000000; stroke-dashoffset: 0.000000; opacity: 1.000000" clip-path="url(#p50431ccdcb28178602d99d9270004dde)" d="M339.840000 388.800000L339.840000 43.200000"/>
</g>
<g id="line2d12">
<g ><use style="fill: none; stroke: #000000; stroke-width: 0.500000; stroke-linejoin: round; stroke-linecap: butt;  opacity: 1.000000" xlink:href="#m30e32995789d870ad79a2e54c91cf9c6" x="339.840000" y="388.800000"/>
</g></g>
<g id="line2d13">
<g ><use style="fill: none; stroke: #000000; stroke-width: 0.500000; stroke-linejoin: round; stroke-linecap: butt;  opacity: 1.000000" xlink:href="#m9281cae24120827b11d5ea8a7ad3e96b" x="339.840000" y="43.200000"/>
</g></g>
<g id="text4">
<defs>
<path id="c_cc8d6d580d1b10c8632f7a42cd53db8a" d="M33.015625 -40.375000q-6.640625 0.000000 -10.531250 4.546875q-3.875000 4.531250 -3.875000 12.437500q0.000000 7.859375 3.875000 12.437500q3.890625 4.562500 10.531250 4.562500q6.640625 0.000000 10.515625 -4.562500q3.875000 -4.578125 3.875000 -12.437500q0.000000 -7.906250 -3.875000 -12.437500q-3.875000 -4.546875 -10.515625 -4.546875M52.593750 -71.296875l0.000000 8.984375q-3.718750 -1.750000 -7.500000 -2.671875q-3.781250 -0.937500 -7.500000 -0.937500q-9.765625 0.000000 -14.921875 6.593750q-5.140625 6.593750 -5.875000 19.921875q2.875000 -4.250000 7.218750 -6.515625q4.359375 -2.265625 9.578125 -2.265625q10.984375 0.000000 17.359375 6.671875q6.375000 6.656250 6.375000 18.125000q0.000000 11.234375 -6.640625 18.031250q-6.640625 6.781250 -17.671875 6.781250q-12.656250 0.000000 -19.343750 -9.687500q-6.687500 -9.703125 -6.687500 -28.109375q0.000000 -17.281250 8.203125 -27.562500q8.203125 -10.281250 22.015625 -10.281250q3.718750 0.000000 7.500000 0.734375q3.781250 0.734375 7.890625 2.187500"/>
</defs>
<g style="fill: #000000; opacity: 1.000000" transform="translate(329.199375,401.706250)scale(0.120000)">
<use xlink:href="#c_cc8d6d580d1b10c8632f7a42cd53db8a"/>
<use xlink:href="#c_7a2040fe3b94fcd41d0a72c84e93b115" x="63.623047"/>
<use xlink:href="#c_7a2040fe3b94fcd41d0a72c84e93b115" x="127.246094"/>
</g>
</g>
</g>
<g id="xtick5">
<g id="line2d14">
<path style="fill: none; stroke: #000000; stroke-width: 0.500000; stroke-linejoin: round; stroke-linecap: butt; stroke-dasharray: 1.000000,3.000000; stroke-dashoffset: 0.000000; opacity: 1.000000" clip-path="url(#p50431ccdcb28178602d99d9270004dde)" d="M429.120000 388.800000L429.120000 43.200000"/>
</g>
<g id="line2d15">
<g ><use style="fill: none; stroke: #000000; stroke-width: 0.500000; stroke-linejoin: round; stroke-linecap: butt;  opacity: 1.000000" xlink:href="#m30e32995789d870ad79a2e54c91cf9c6" x="429.120000" y="388.800000"/>
</g></g>
<g id="line2d16">
<g ><use style="fill: none; stroke: #000000; stroke-width: 0.500000; stroke-linejoin: round; stroke-linecap: butt;  opacity: 1.000000" xlink:href="#m9281cae24120827b11d5ea8a7ad3e96b" x="429.120000" y="43.200000"/>
</g></g>
<g id="text5">
<defs>
<path id="c_bef35738d52871942e50b9de9b122bab" d="M31.781250 -34.625000q-7.031250 0.000000 -11.062500 3.765625q-4.015625 3.765625 -4.015625 10.343750q0.000000 6.593750 4.015625 10.359375q4.031250 3.765625 11.062500 3.765625q7.031250 0.000000 11.078125 -3.781250q4.062500 -3.796875 4.062500 -10.343750q0.000000 -6.578125 -4.031250 -10.343750q-4.015625 -3.765625 -11.109375 -3.765625M21.921875 -38.812500q-6.343750 -1.562500 -9.890625 -5.906250q-3.531250 -4.359375 -3.531250 -10.609375q0.000000 -8.734375 6.218750 -13.812500q6.234375 -5.078125 17.062500 -5.078125q10.890625 0.000000 17.093750 5.078125q6.203125 5.078125 6.203125 13.812500q0.000000 6.250000 -3.546875 10.609375q-3.531250 4.343750 -9.828125 5.906250q7.125000 1.656250 11.093750 6.500000q3.984375 4.828125 3.984375 11.796875q0.000000 10.609375 -6.468750 16.281250q-6.468750 5.656250 -18.531250 5.656250q-12.046875 0.000000 -18.531250 -5.656250q-6.468750 -5.671875 -6.468750 -16.281250q0.000000 -6.968750 4.000000 -11.796875q4.015625 -4.843750 11.140625 -6.500000M18.312500 -54.390625q0.000000 5.656250 3.531250 8.828125q3.546875 3.171875 9.937500 3.171875q6.359375 0.000000 9.937500 -3.171875q3.593750 -3.171875 3.593750 -8.828125q0.000000 -5.671875 -3.593750 -8.843750q-3.578125 -3.171875 -9.937500 -3.171875q-6.390625 0.000000 -9.937500 3.171875q-3.531250 3.171875 -3.531250 8.843750"/>
</defs>
<g style="fill: #000000; opacity: 1.000000" transform="translate(418.463750,401.706250)scale(0.120000)">
<use xlink:href="#c_bef35738d52871942e50b9de9b122bab"/>
<use xlink:href="#c_7a2040fe3b94fcd41d0a72c84e93b115" x="63.623047"/>
<use xlink:href="#c_7a2040fe3b94fcd41d0a72c84e93b115" x="127.246094"/>
</g>
</g>
</g>
<g id="xtick6">
<g id="line2d17">
<path style="fill: none; stroke: #000000; stroke-width: 0.500000; stroke-linejoin: round; stroke-linecap: butt; stroke-dasharray: 1.000000,3.000000; stroke-dashoffset: 0.000000; opacity: 1.000000" clip-path="url(#p50431ccdcb28178602d99d9270004dde)" d="M518.400000 388.800000L518.400000 43.200000"/>
</g>
<g id="line2d18">
<g ><use style="fill: none; stroke: #000000; stroke-width: 0.500000; stroke-linejoin: round; stroke-linecap: butt;  opacity: 1.000000" xlink:href="#m30e32995789d870ad79a2e54c91cf9c6" x="518.400000" y="388.800000"/>
</g></g>
<g id="line2d19">
<g ><use style="fill: none; stroke: #000000; stroke-width: 0.500000; stroke-linejoin: round; stroke-linecap: butt;  opacity: 1.000000" xlink:href="#m9281cae24120827b11d5ea8a7ad3e96b" x="518.400000" y="43.200000"/>
</g></g>
<g id="text6">
<defs>
<path id="c_42baa63129a918535c52adb20d687ea7" d="M12.406250 -8.296875l16.109375 0.000000l0.000000 -55.625000l-17.531250 3.515625l0.000000 -8.984375l17.437500 -3.515625l9.859375 0.000000l0.000000 64.609375l16.109375 0.000000l0.000000 8.296875l-41.984375 0.000000z"/>
</defs>
<g style="fill: #000000; opacity: 1.000000" transform="translate(504.173437,401.706250)scale(0.120000)">
<use xlink:href="#c_42baa63129a918535c52adb20d687ea7"/>
<use xlink:href="#c_7a2040fe3b94fcd41d0a72c84e93b115" x="63.623047"/>
<use xlink:href="#c_7a2040fe3b94fcd41d0a72c84e93b115" x="127.246094"/>
<use xlink:href="#c_7a2040fe3b94fcd41d0a72c84e93b115" x="190.869141"/>
</g>
</g>
</g>
</g>
<g id="matplotlib.axis2">
<g id="ytick1">
<g id="line2d20">
<path style="fill: none; stroke: #000000; stroke-width: 0.500000; stroke-linejoin: round; stroke-linecap: butt; stroke-dasharray: 1.000000,3.000000; stroke-dashoffset: 0.000000; opacity: 1.000000" clip-path="url(#p50431ccdcb28178602d99d9270004dde)" d="M72.000000 388.800000L518.400000 388.800000"/>
</g>
<g id="line2d21">
<defs><path id="m3400efa6b1638b3fea9e19e898273957" d="M0.000000 0.000000L4.000000 0.000000"/></defs>
<g ><use style="fill: none; stroke: #000000; stroke-width: 0.500000; stroke-linejoin: round; stroke-linecap: butt;  opacity: 1.000000" xlink:href="#m3400efa6b1638b3fea9e19e898273957" x="72.000000" y="388.800000"/>
</g></g>
<g id="line2d22">
<defs><path id="m20b58b2501143cb5e0a5e8f1ef6f1643" d="M0.000000 0.000000L-4.000000 0.000000"/></defs>
<g ><use style="fill: none; stroke: #000000; stroke-width: 0.500000; stroke-linejoin: round; stroke-linecap: butt;  opacity: 1.000000" xlink:href="#m20b58b2501143cb5e0a5e8f1ef6f1643" x="518.400000" y="388.800000"/>
</g></g>
<g id="text7">
<defs>
<path id="c_ed3e21196fb739f392806f09ca0594ef" d="M10.687500 -12.406250l10.312500 0.000000l0.000000 12.406250l-10.312500 0.000000z"/>
</defs>
<g style="fill: #000000; opacity: 1.000000" transform="translate(35.625000,393.167188)scale(0.120000)">
<use xlink:href="#c_7a2040fe3b94fcd41d0a72c84e93b115"/>
<use xlink:href="#c_ed3e21196fb739f392806f09ca0594ef" x="63.623047"/>
<use xlink:href="#c_7a2040fe3b94fcd41d0a72c84e93b115" x="95.410156"/>
<use xlink:href="#c_7a2040fe3b94fcd41d0a72c84e93b115" x="159.033203"/>
<use xlink:href="#c_ed3f3ed3ebfbd18bcb9c012009a68ad1" x="222.656250"/>
</g>
</g>
</g>
<g id="ytick2">
<g id="line2d23">
<path style="fill: none; stroke: #000000; stroke-width: 0.500000; stroke-linejoin: round; stroke-linecap: butt; stroke-dasharray: 1.000000,3.000000; stroke-dashoffset: 0.000000; opacity: 1.000000" clip-path="url(#p50431ccdcb28178602d99d9270004dde)" d="M72.000000 339.428571L518.400000 339.428571"/>
</g>
<g id="line2d24">
<g ><use style="fill: none; stroke: #000000; stroke-width: 0.500000; stroke-linejoin: round; stroke-linecap: butt;  opacity: 1.000000" xlink:href="#m3400efa6b1638b3fea9e19e898273957" x="72.000000" y="339.428571"/>
</g></g>
<g id="line2d25">
<g ><use style="fill: none; stroke: #000000; stroke-width: 0.500000; stroke-linejoin: round; stroke-linecap: butt;  opacity: 1.000000" xlink:href="#m20b58b2501143cb5e0a5e8f1ef6f1643" x="518.400000" y="339.428571"/>
</g></g>
<g id="text8">
<g style="fill: #000000; opacity: 1.000000" transform="translate(35.093750,343.795759)scale(0.120000)">
<use xlink:href="#c_7a2040fe3b94fcd41d0a72c84e93b115"/>
<use xlink:href="#c_ed3e21196fb739f392806f09ca0594ef" x="63.623047"/>
<use xlink:href="#c_7a2040fe3b94fcd41d0a72c84e93b115" x="95.410156"/>
<use xlink:href="#c_7a2040fe3b94fcd41d0a72c84e93b115" x="159.033203"/>
<use xlink:href="#c_a0416418d96557a09b8c1332d34883ba" x="222.656250"/>
</g>
</g>
</g>
<g id="ytick3">
<g id="line2d26">
<path style="fill: none; stroke: #000000; stroke-width: 0.500000; stroke-linejoin: round; stroke-linecap: butt; stroke-dasharray: 1.000000,3.000000; stroke-dashoffset: 0.000000; opacity: 1.000000" clip-path="url(#p50431ccdcb28178602d99d9270004dde)" d="M72.000000 290.057143L518.400000 290.057143"/>
</g>
<g id="line2d27">
<g ><use style="fill: none; stroke: #000000; stroke-width: 0.500000; stroke-linejoin: round; stroke-linecap: butt;  opacity: 1.000000" xlink:href="#m3400efa6b1638b3fea9e19e898273957" x="72.000000" y="290.057143"/>
</g></g>
<g id="line2d28">
<g ><use style="fill: none; stroke: #000000; stroke-width: 0.500000; stroke-linejoin: round; stroke-linecap: butt;  opacity: 1.000000" xlink:href="#m20b58b2501143cb5e0a5e8f1ef6f1643" x="518.400000" y="290.057143"/>
</g></g>
<g id="text9">
<g style="fill: #000000; opacity: 1.000000" transform="translate(35.187500,294.424330)scale(0.120000)">
<use xlink:href="#c_7a2040fe3b94fcd41d0a72c84e93b115"/>
<use xlink:href="#c_ed3e21196fb739f392806f09ca0594ef" x="63.623047"/>
<use xlink:href="#c_7a2040fe3b94fcd41d0a72c84e93b115" x="95.410156"/>
<use xlink:href="#c_7a2040fe3b94fcd41d0a72c84e93b115" x="159.033203"/>
<use xlink:href="#c_cc8d6d580d1b10c8632f7a42cd53db8a" x="222.656250"/>
</g>
</g>
</g>
<g id="ytick4">
<g id="line2d29">
<path style="fill: none; stroke: #000000; stroke-width: 0.500000; stroke-linejoin: round; stroke-linecap: butt; stroke-dasharray: 1.000000,3.000000; stroke-dashoffset: 0.000000; opacity: 1.000000" clip-path="url(#p50431ccdcb28178602d99d9270004dde)" d="M72.000000 240.685714L518.400000 240.685714"/>
</g>
<g id="line2d30">
<g ><use style="fill: none; stroke: #000000; stroke-width: 0.500000; stroke-linejoin: round; stroke-linecap: butt;  opacity: 1.000000" xlink:href="#m3400efa6b1638b3fea9e19e898273957" x="72.000000" y="240.685714"/>
</g></g>
<g id="line2d31">
<g ><use style="fill: none; stroke: #000000; stroke-width: 0.500000; stroke-linejoin: round; stroke-linecap: butt;  opacity: 1.000000" xlink:href="#m20b58b2501143cb5e0a5e8f1ef6f1643" x="518.400000" y="240.685714"/>
</g></g>
<g id="text10">
<g style="fill: #000000; opacity: 1.000000" transform="translate(35.250000,245.052902)scale(0.120000)">
<use xlink:href="#c_7a2040fe3b94fcd41d0a72c84e93b115"/>
<use xlink:href="#c_ed3e21196fb739f392806f09ca0594ef" x="63.623047"/>
<use xlink:href="#c_7a2040fe3b94fcd41d0a72c84e93b115" x="95.410156"/>
<use xlink:href="#c_7a2040fe3b94fcd41d0a72c84e93b115" x="159.033203"/>
<use xlink:href="#c_bef35738d52871942e50b9de9b122bab" x="222.656250"/>
</g>
</g>
</g>
<g id="ytick5">
<g id="line2d32">
<path style="fill: none; stroke: #000000; stroke-width: 0.500000; stroke-linejoin: round; stroke-linecap: butt; stroke-dasharray: 1.000000,3.000000; stroke-dashoffset: 0.000000; opacity: 1.000000" clip-path="url(#p50431ccdcb28178602d99d9270004dde)" d="M72.000000 191.314286L518.400000 191.314286"/>
</g>
<g id="line2d33">
<g ><use style="fill: none; stroke: #000000; stroke-width: 0.500000; stroke-linejoin: round; stroke-linecap: butt;  opacity: 1.000000" xlink:href="#m3400efa6b1638b3fea9e19e898273957" x="72.000000" y="191.314286"/>
</g></g>
<g id="line2d34">
<g ><use style="fill: none; stroke: #000000; stroke-width: 0.500000; stroke-linejoin: round; stroke-linecap: butt;  opacity: 1.000000" xlink:href="#m20b58b2501143cb5e0a5e8f1ef6f1643" x="518.400000" y="191.314286"/>
</g></g>
<g id="text11">
<g style="fill: #000000; opacity: 1.000000" transform="translate(35.218750,195.681473)scale(0.120000)">
<use xlink:href="#c_7a2040fe3b94fcd41d0a72c84e93b115"/>
<use xlink:href="#c_ed3e21196fb739f392806f09ca0594ef" x="63.623047"/>
<use xlink:href="#c_7a2040fe3b94fcd41d0a72c84e93b115" x="95.410156"/>
<use xlink:href="#c_42baa63129a918535c52adb20d687ea7" x="159.033203"/>
<use xlink:href="#c_7a2040fe3b94fcd41d0a72c84e93b115" x="222.656250"/>
</g>
</g>
</g>
<g id="ytick6">
<g id="line2d35">
<path style="fill: none; stroke: #000000; stroke-width: 0.500000; stroke-linejoin: round; stroke-linecap: butt; stroke-dasharray: 1.000000,3.000000; stroke-dashoffset: 0.000000; opacity: 1.000000" clip-path="url(#p50431ccdcb28178602d99d9270004dde)" d="M72.000000 141.942857L518.400000 141.942857"/>
</g>
<g id="line2d36">
<g ><use style="fill: none; stroke: #000000; stroke-width: 0.500000; stroke-linejoin: round; stroke-linecap: butt;  opacity: 1.000000" xlink:href="#m3400efa6b1638b3fea9e19e898273957" x="72.000000" y="141.942857"/>
</g></g>
<g id="line2d37">
<g ><use style="fill: none; stroke: #000000; stroke-width: 0.500000; stroke-linejoin: round; stroke-linecap: butt;  opacity: 1.000000" xlink:href="#m20b58b2501143cb5e0a5e8f1ef6f1643" x="518.400000" y="141.942857"/>
</g></g>
<g id="text12">
<g style="fill: #000000; opacity: 1.000000" transform="translate(35.625000,146.310045)scale(0.120000)">
<use xlink:href="#c_7a2040fe3b94fcd41d0a72c84e93b115"/>
<use xlink:href="#c_ed3e21196fb739f392806f09ca0594ef" x="63.623047"/>
<use xlink:href="#c_7a2040fe3b94fcd41d0a72c84e93b115" x="95.410156"/>
<use xlink:href="#c_42baa63129a918535c52adb20d687ea7" x="159.033203"/>
<use xlink:href="#c_ed3f3ed3ebfbd18bcb9c012009a68ad1" x="222.656250"/>
</g>
</g>
</g>
<g id="ytick7">
<g id="line2d38">
<path style="fill: none; stroke: #000000; stroke-width: 0.500000; stroke-linejoin: round; stroke-linecap: butt; stroke-dasharray: 1.000000,3.000000; stroke-dashoffset: 0.000000; opacity: 1.000000" clip-path="url(#p50431ccdcb28178602d99d9270004dde)" d="M72.000000 92.571429L518.400000 92.571429"/>
</g>
<g id="line2d39">
<g ><use style="fill: none; stroke: #000000; stroke-width: 0.500000; stroke-linejoin: round; stroke-linecap: butt;  opacity: 1.000000" xlink:href="#m3400efa6b1638b3fea9e19e898273957" x="72.000000" y="92.571429"/>
</g></g>
<g id="line2d40">
<g ><use style="fill: none; stroke: #000000; stroke-width: 0.500000; stroke-linejoin: round; stroke-linecap: butt;  opacity: 1.000000" xlink:href="#m20b58b2501143cb5e0a5e8f1ef6f1643" x="518.400000" y="92.571429"/>
</g></g>
<g id="text13">
<g style="fill: #000000; opacity: 1.000000" transform="translate(35.093750,96.938616)scale(0.120000)">
<use xlink:href="#c_7a2040fe3b94fcd41d0a72c84e93b115"/>
<use xlink:href="#c_ed3e21196fb739f392806f09ca0594ef" x="63.623047"/>
<use xlink:href="#c_7a2040fe3b94fcd41d0a72c84e93b115" x="95.410156"/>
<use xlink:href="#c_42baa63129a918535c52adb20d687ea7" x="159.033203"/>
<use xlink:href="#c_a0416418d96557a09b8c1332d34883ba" x="222.656250"/>
</g>
</g>
</g>
<g id="ytick8">
<g id="line2d41">
<path style="fill: none; stroke: #000000; stroke-width: 0.500000; stroke-linejoin: round; stroke-linecap: butt; stroke-dasharray: 1.000000,3.000000; stroke-dashoffset: 0.000000; opacity: 1.000000" clip-path="url(#p50431ccdcb28178602d99d9270004dde)" d="M72.000000 43.200000L518.400000 43.200000"/>
</g>
<g id="line2d42">
<g ><use style="fill: none; stroke: #000000; stroke-width: 0.500000; stroke-linejoin: round; stroke-linecap: butt;  opacity: 1.000000" xlink:href="#m3400efa6b1638b3fea9e19e898273957" x="72.000000" y="43.200000"/>
</g></g>
<g id="line2d43">
<g ><use style="fill: none; stroke: #000000; stroke-width: 0.500000; stroke-linejoin: round; stroke-linecap: butt;  opacity: 1.000000" xlink:href="#m20b58b2501143cb5e0a5e8f1ef6f1643" x="518.400000" y="43.200000"/>
</g></g>
<g id="text14">
<g style="fill: #000000; opacity: 1.000000" transform="translate(35.187500,47.567187)scale(0.120000)">
<use xlink:href="#c_7a2040fe3b94fcd41d0a72c84e93b115"/>
<use xlink:href="#c_ed3e21196fb739f392806f09ca0594ef" x="63.623047"/>
<use xlink:href="#c_7a2040fe3b94fcd41d0a72c84e93b115" x="95.410156"/>
<use xlink:href="#c_42baa63129a918535c52adb20d687ea7" x="159.033203"/>
<use xlink:href="#c_cc8d6d580d1b10c8632f7a42cd53db8a" x="222.656250"/>
</g>
</g>
</g>
</g>
<g id="patch3">
<path style="fill: none; stroke: #000000; stroke-width: 1.000000; stroke-linejoin: round; stroke-linecap: square;  opacity: 1.000000"  d="M72.000000 43.200000L518.400000 43.200000"/>
</g>
<g id="patch4">
<path style="fill: none; stroke: #000000; stroke-width: 1.000000; stroke-linejoin: round; stroke-linecap: square;  opacity: 1.000000"  d="M518.400000 388.800000L518.400000 43.200000"/>
</g>
<g id="patch5">
<path style="fill: none; stroke: #000000; stroke-width: 1.000000; stroke-linejoin: round; stroke-linecap: square;  opacity: 1.000000"  d="M72.000000 388.800000L518.400000 388.800000"/>
</g>
<g id="patch6">
<path style="fill: none; stroke: #000000; stroke-width: 1.000000; stroke-linejoin: round; stroke-linecap: square;  opacity: 1.000000"  d="M72.000000 388.800000L72.000000 43.200000"/>
</g>
</g>
</g>
</svg>
