<?xml version="1.0" standalone="no"?>
<!DOCTYPE svg PUBLIC "-//W3C//DTD SVG 1.1//EN"
  "http://www.w3.org/Graphics/SVG/1.1/DTD/svg11.dtd">
<!-- Created with matplotlib (http://matplotlib.sourceforge.net/) -->
<svg width="576pt" height="432pt" viewBox="0 0 576 432"
   xmlns="http://www.w3.org/2000/svg"
   xmlns:xlink="http://www.w3.org/1999/xlink"
   version="1.1"
   id="svg1">
<g id="figure1">
<g id="patch1">
<path style="fill: #ffffff; stroke: #ffffff; stroke-width: 1.000000; stroke-linejoin: round; stroke-linecap: square;  opacity: 1.000000"  d="M0.000000 432.000000L576.000000 432.000000L576.000000 0.000000
L0.000000 0.000000L0.000000 432.000000"/>
</g>
<g id="axes1">
<g id="patch2">
<path style="fill: #ffffff; opacity: 1.000000"  d="M72.000000 388.800000L518.400000 388.800000L518.400000 43.200000
L72.000000 43.200000L72.000000 388.800000"/>
</g>
<g id="line2d1">
<defs>
  <clipPath id="p50431ccdcb28178602d99d9270004dde">
<rect x="72.000000" y="43.200000" width="446.400000" height="345.600000"/>
  </clipPath>
</defs><path style="fill: none; stroke: #ff0000; stroke-width: 1.000000; stroke-linejoin: round; stroke-linecap: square;  opacity: 1.000000" clip-path="url(#p50431ccdcb28178602d99d9270004dde)" d="M72.000000 251.015188L72.446400 149.176877L72.892800 249.461956
L73.339200 252.330169L73.785600 155.153195L74.232000 215.135204
L74.678400 136.351316L75.124800 252.813005L75.571200 126.985172
L76.017600 241.555159L76.464000 156.384552L77.356800 157.489290
L77.803200 154.229021L78.249600 254.558015L78.696000 253.337892
L79.142400 156.072586L79.588800 246.976091L80.035200 155.218194
L80.481600 156.297385L80.928000 151.396161L81.374400 216.012925
L81.820800 339.265320L82.267200 253.070873L83.160000 156.276705
L83.606400 154.477936L84.052800 254.540543L84.499200 178.150461
L84.945600 255.713478L85.392000 250.769395L86.284800 245.527558
L86.731200 152.596440L87.177600 248.114501L87.624000 152.655782
L88.070400 248.995672L88.516800 245.415369L89.409600 250.584905
L89.856000 246.708559L90.302400 219.194941L90.748800 248.341404
L91.641600 246.328978L92.088000 253.062567L92.534400 248.763530
L92.980800 251.962109L93.427200 249.057307L93.873600 156.196413
L94.320000 246.262845L94.766400 251.587942L95.212800 153.667914
L95.659200 247.976771L96.105600 245.589316L96.552000 151.978756
L96.998400 248.754007L97.444800 251.267692L97.891200 247.289202
L98.337600 251.727788L98.784000 238.469402L99.676800 250.189160
L100.123200 251.221358L100.569600 250.056955L101.016000 251.713177
L101.908800 253.114364L102.355200 248.053679L103.248000 251.812300
L104.140800 245.798812L104.587200 247.850425L105.033600 150.826540
L105.480000 252.602869L105.926400 250.347275L106.372800 339.251083
L106.819200 249.548765L107.265600 251.915919L107.712000 249.396559
L108.604800 251.485739L109.051200 250.386412L110.390400 252.540856
L111.729600 245.710017L112.176000 248.374078L112.622400 253.258952
L113.068800 249.704377L114.408000 245.762769L114.854400 252.664601
L115.300800 250.995293L115.747200 247.880747L116.193600 251.231596
L116.640000 248.606125L117.086400 242.721227L117.532800 260.399904
L118.425600 247.351394L118.872000 245.656030L119.318400 249.065471
L120.211200 252.723400L121.104000 245.114335L121.996800 244.102782
L122.443200 249.729374L122.889600 244.349686L123.336000 249.050945
L123.782400 250.126865L125.121600 246.886143L125.568000 250.466980
L126.014400 247.743281L126.907200 251.333822L127.353600 245.586535
L127.800000 244.282049L128.246400 211.003250L128.692800 249.000252
L129.139200 246.673243L129.585600 249.654356L130.032000 247.929938
L131.371200 248.751738L131.817600 247.382143L132.710400 234.138590
L133.156800 258.216889L133.603200 245.366859L134.496000 249.496627
L134.942400 247.663521L135.388800 243.469771L135.835200 248.419900
L136.281600 249.475455L136.728000 246.603679L137.174400 197.652375
L137.620800 261.592279L138.067200 239.309873L138.513600 246.907506
L139.406400 252.802236L140.299200 248.435227L140.745600 242.699176
L141.192000 247.258129L141.638400 245.057088L142.084800 249.211393
L142.977600 247.860501L143.424000 245.222098L144.316800 248.519087
L144.763200 245.843832L146.102400 247.274111L146.995200 243.958770
L147.441600 211.276106L148.334400 276.122883L148.780800 243.280102
L149.227200 246.611200L150.120000 248.769135L151.012800 246.324857
L151.459200 243.605917L151.905600 247.600634L152.352000 246.475147
L152.798400 247.928614L153.691200 246.425681L154.137600 247.771805
L154.584000 246.727652L155.476800 241.935735L155.923200 215.993189
L156.369600 249.798785L156.816000 247.535950L157.708800 248.765308
L159.048000 248.468738L159.494400 246.220319L160.387200 247.454302
L160.833600 246.213041L161.726400 240.901273L163.065600 248.190900
L163.958400 265.854751L164.851200 245.905870L165.297600 247.290845
L165.744000 243.282648L166.190400 214.582549L166.636800 247.895449
L167.529600 233.359464L167.976000 246.797476L168.422400 249.758513
L168.868800 247.143703L169.315200 248.175755L169.761600 251.340809
L170.208000 246.965829L170.654400 249.737332L171.100800 247.780730
L171.993600 249.261757L172.886400 246.375043L173.779200 248.386943
L175.118400 242.702366L175.564800 244.059143L176.904000 244.636808
L177.350400 243.340558L178.243200 244.420041L179.136000 243.241734
L180.475200 244.661550L180.921600 228.371712L181.814400 246.144063
L183.153600 248.028175L183.600000 243.041063L184.046400 246.263617
L184.492800 242.381010L184.939200 210.292476L185.385600 245.558813
L185.832000 242.159262L186.278400 246.175891L186.724800 244.250249
L187.171200 247.380873L187.617600 244.563791L188.956800 239.316498
L189.403200 243.834661L189.849600 242.287876L190.742400 246.939817
L191.188800 243.756985L192.081600 242.045093L192.528000 244.623901
L193.420800 194.333319L193.867200 257.377342L194.313600 244.062662
L194.760000 246.139753L195.652800 247.974352L196.099200 244.797167
L196.545600 246.718738L196.992000 243.647973L197.884800 246.241730
L198.331200 243.152721L198.777600 245.365192L199.670400 223.138939
L200.563200 247.917069L201.009600 245.536429L201.456000 246.786250
L202.348800 228.476850L202.795200 247.724583L203.241600 241.014634
L204.134400 247.296421L205.473600 243.906319L205.920000 245.629196
L206.366400 243.317389L207.259200 245.850410L207.705600 239.536489
L208.152000 242.907482L209.491200 246.308908L209.937600 242.863358
L210.384000 226.244696L210.830400 240.209869L211.276800 243.627796
L211.723200 237.109004L212.169600 224.649986L212.616000 245.111405
L213.062400 242.217545L214.401600 247.047206L214.848000 238.551014
L215.294400 253.830859L215.740800 240.780809L216.187200 245.341689
L216.633600 242.153851L217.526400 244.026690L217.972800 242.952492
L218.419200 225.092288L219.312000 245.728548L219.758400 243.088662
L220.204800 248.334077L220.651200 241.762048L221.544000 242.860240
L221.990400 244.457903L222.436800 241.190670L222.883200 244.915181
L223.329600 241.650281L223.776000 244.284703L224.222400 242.445873
L225.561600 241.964498L226.900800 240.521083L227.347200 244.954096
L228.686400 245.984827L229.132800 225.699165L230.025600 245.419145
L230.472000 241.439036L230.918400 246.209870L231.364800 244.684710
L231.811200 241.805664L232.257600 243.576791L233.150400 236.165582
L233.596800 186.103703L234.489600 332.540938L234.936000 237.850339
L235.382400 244.248554L235.828800 237.758628L236.275200 240.227576
L238.507200 237.719811L239.400000 221.137464L239.846400 236.247560
L240.739200 241.228008L241.185600 239.921405L241.632000 237.329547
L242.078400 240.816428L242.971200 238.970318L243.864000 240.168475
L244.310400 235.558415L245.203200 239.033054L245.649600 236.910196
L246.096000 237.970236L246.542400 235.096355L246.988800 238.286306
L247.435200 233.064670L247.881600 348.556396L248.328000 238.200274
L248.774400 240.348773L249.220800 239.137721L250.113600 233.650046
L251.006400 239.267073L251.899200 237.874203L252.792000 234.788808
L253.238400 237.336828L254.577600 238.565756L255.024000 226.046043
L255.470400 242.510028L255.916800 236.563615L256.363200 240.612661
L257.702400 235.086578L258.148800 217.537316L258.595200 235.838404
L259.488000 242.837301L259.934400 239.009623L260.827200 207.290830
L261.273600 238.814283L261.720000 236.560446L262.612800 244.309246
L263.059200 229.229261L263.505600 334.643817L263.952000 236.414854
L264.844800 242.312653L265.737600 238.071869L266.184000 241.757475
L267.076800 236.448877L267.969600 238.938919L268.416000 217.620374
L269.308800 241.766969L270.648000 237.601889L271.094400 234.302272
L271.540800 240.955670L271.987200 238.641687L272.880000 237.321104
L273.326400 240.264856L273.772800 235.937455L275.112000 234.418445
L275.558400 232.182409L276.897600 233.224646L278.236800 231.179113
L278.683200 228.051571L279.129600 335.431676L279.576000 229.571620
L280.022400 232.926600L281.361600 235.338170L281.808000 231.467958
L282.254400 236.139087L282.700800 232.144240L284.040000 184.227097
L284.486400 337.191040L284.932800 234.533897L285.825600 233.115465
L286.272000 236.203599L286.718400 230.461340L287.164800 234.570713
L287.611200 231.366933L288.057600 232.746572L288.950400 331.939335
L289.396800 233.204610L289.843200 235.314598L290.289600 232.204460
L290.736000 234.522449L291.182400 218.853514L292.075200 234.638079
L292.968000 232.371254L293.414400 235.189949L293.860800 331.786796
L294.307200 230.660534L295.200000 237.881360L296.092800 216.887648
L296.985600 236.981747L297.878400 232.693607L298.324800 236.297491
L298.771200 334.582163L299.217600 233.687289L299.664000 232.519114
L300.110400 235.406088L300.556800 231.937878L301.003200 235.214511
L301.449600 232.331754L302.342400 230.971006L302.788800 234.878828
L303.235200 233.706831L303.681600 333.175169L304.128000 230.715902
L305.020800 233.567087L305.913600 230.410604L306.360000 234.647788
L307.252800 229.961052L307.699200 232.640980L308.592000 333.774902
L309.038400 232.324506L309.484800 230.577770L309.931200 237.222453
L310.824000 231.937910L311.270400 233.712843L312.163200 225.143205
L312.609600 200.474302L313.056000 231.715734L313.502400 331.135311
L313.948800 235.385915L314.395200 233.226514L314.841600 234.359719
L315.734400 231.999193L316.180800 235.371715L317.073600 231.797491
L318.412800 333.318550L318.859200 236.201435L319.305600 232.622165
L320.198400 235.604809L320.644800 200.395177L321.091200 238.430096
L321.537600 226.798545L322.430400 236.240414L322.876800 233.903033
L323.323200 331.758468L323.769600 232.220613L324.216000 234.401002
L325.108800 228.482575L326.001600 226.964763L327.340800 227.270139
L328.233600 331.957945L328.680000 226.481461L329.126400 227.715746
L330.019200 224.012587L330.465600 330.588451L330.912000 230.991515
L331.804800 227.003732L332.251200 229.819718L332.697600 188.795146
L333.144000 227.919772L333.590400 229.234156L334.036800 227.957469
L334.929600 226.546109L335.376000 330.204251L335.822400 230.151389
L336.268800 227.807700L336.715200 230.386232L337.161600 238.107065
L337.608000 176.999939L338.054400 231.383033L338.500800 228.260256
L339.393600 230.157994L339.840000 220.269196L340.286400 332.192418
L340.732800 229.522383L341.179200 227.641263L342.072000 83.875789
L342.518400 332.411926L342.964800 229.568148L343.411200 227.377872
L343.857600 229.456309L344.750400 218.472967L345.196800 236.683164
L345.643200 190.783833L346.089600 229.701449L346.982400 225.141969
L347.428800 229.716810L348.321600 228.391507L348.768000 225.330103
L349.214400 226.794804L349.660800 330.855016L350.107200 229.327561
L351.446400 228.415940L351.892800 190.032130L352.339200 228.481608
L353.232000 224.935848L353.678400 227.766254L354.124800 226.694541
L355.464000 224.809347L356.356800 81.351729L356.803200 325.926535
L357.249600 228.247562L358.142400 229.627045L358.588800 221.820461
L359.035200 230.560492L359.928000 226.197022L361.267200 165.814251
L361.713600 230.698891L362.160000 219.237452L362.606400 218.140532
L363.499200 178.748825L363.945600 216.976814L364.392000 218.556722
L365.284800 216.095819L365.731200 228.636999L366.177600 217.170088
L367.516800 215.029942L367.963200 211.664577L368.856000 218.039598
L369.302400 216.021452L369.748800 210.802901L370.195200 212.263516
L370.641600 217.728646L371.088000 216.585357L371.980800 205.911233
L372.427200 224.086585L372.873600 216.463840L374.659200 210.702832
L375.105600 217.013843L376.444800 213.640714L376.891200 216.701934
L378.230400 211.861762L378.676800 215.629249L379.123200 232.349644
L379.569600 215.029474L380.016000 217.721114L380.462400 214.995237
L380.908800 217.799444L381.355200 210.222168L382.248000 218.269516
L382.694400 214.776528L384.033600 212.746055L384.480000 217.243523
L385.372800 210.721868L385.819200 215.693165L386.712000 180.957935
L387.158400 216.178206L387.604800 218.375669L388.051200 216.478187
L388.497600 218.673755L389.836800 215.108094L390.729600 216.485409
L391.176000 214.710801L391.622400 217.675698L392.068800 213.806930
L392.961600 215.499988L393.408000 218.602605L393.854400 214.517654
L394.300800 158.345492L394.747200 231.375998L395.193600 214.237846
L395.640000 218.606690L396.532800 213.393785L397.425600 217.878256
L397.872000 214.862333L398.764800 217.922959L399.211200 211.378172
L400.104000 218.861788L400.550400 215.714462L400.996800 203.952609
L401.443200 227.565057L401.889600 217.293406L402.782400 211.911338
L403.228800 181.977340L403.675200 215.720074L404.121600 220.036468
L405.014400 221.271140L405.460800 217.051669L405.907200 232.211267
L406.353600 215.119099L406.800000 214.032927L407.246400 216.324854
L407.692800 215.137423L408.139200 216.427673L409.478400 216.490457
L410.371200 213.348227L410.817600 216.158221L412.156800 217.244179
L412.603200 206.338522L413.496000 215.599182L414.388800 219.290681
L414.835200 215.047569L416.174400 217.325571L417.067200 212.292522
L417.513600 215.885080L418.852800 213.156235L419.299200 234.036954
L420.192000 179.716551L420.638400 218.645476L421.084800 216.167168
L421.531200 217.285238L422.870400 217.610173L424.209600 205.359005
L424.656000 208.377708L425.995200 202.410966L426.441600 204.463966
L427.334400 205.552533L427.780800 145.839361L428.227200 224.324096
L428.673600 207.309847L429.120000 204.295547L429.566400 208.601878
L430.012800 207.104084L430.459200 208.605290L431.352000 206.533550
L432.244800 202.674261L432.691200 205.650954L433.137600 203.063988
L433.584000 205.482276L434.030400 202.428221L434.923200 206.078233
L435.369600 204.865494L435.816000 206.123874L436.262400 205.084692
L436.708800 202.379914L437.155200 186.783865L437.601600 204.268683
L438.048000 206.894345L438.940800 208.193260L439.387200 206.574581
L439.833600 208.479023L440.280000 205.173189L440.726400 206.420361
L441.619200 203.502534L442.065600 205.927677L442.958400 201.740099
L443.404800 206.179171L444.297600 203.542868L445.636800 203.466480
L446.083200 187.819601L446.529600 204.581646L447.422400 208.987854
L448.315200 205.878307L448.761600 207.659076L449.208000 206.633920
L450.547200 200.351006L451.440000 207.793506L451.886400 205.991130
L452.779200 183.425312L453.672000 209.680559L454.118400 207.953982
L455.457600 208.350532L456.350400 203.863683L456.796800 268.608371
L457.243200 270.048686L457.689600 344.469153L458.136000 279.178074
L458.582400 277.509318L459.028800 282.435831L459.475200 277.778187
L460.368000 281.934842L460.814400 276.302843L461.260800 280.765190
L461.707200 279.571893L462.153600 273.884940L462.600000 280.203561
L463.046400 278.401610L463.492800 280.253762L463.939200 274.342401
L464.385600 279.407016L464.832000 276.544241L465.724800 280.517631
L466.171200 277.791669L466.617600 280.172031L467.956800 276.846918
L468.403200 280.606622L468.849600 277.676632L470.188800 279.311997
L470.635200 278.158082L471.081600 280.439521L471.528000 279.031672
L472.867200 275.999918L473.313600 277.884229L474.206400 279.610294
L474.652800 276.843952L475.099200 278.485852L475.545600 276.392085
L476.884800 278.862008L477.331200 281.023692L477.777600 276.844738
L478.224000 282.384320L478.670400 278.188784L479.563200 275.982180
L480.009600 280.828686L480.456000 278.889366L481.795200 279.261713
L482.688000 275.833774L484.027200 279.792589L484.920000 278.492886
L485.366400 276.855432L485.812800 279.690640L486.259200 277.937911
L487.152000 280.483900L487.598400 277.163409L488.491200 278.899730
L488.937600 281.168197L489.384000 277.315759L490.276800 280.330025
L490.723200 277.731315L492.062400 279.245218L492.508800 272.550563
L492.955200 279.197457L494.294400 280.041091L494.740800 275.140744
L495.187200 280.244908L495.633600 277.701151L496.080000 279.045860
L497.419200 279.570606L497.865600 276.833234L498.758400 280.165124
L499.651200 276.843366L500.097600 279.480022L500.544000 276.773639
L500.990400 278.088211L501.436800 276.092709L501.883200 277.833686
L502.329600 276.031892L502.776000 280.052204L503.668800 276.820752
L504.561600 280.487294L505.454400 278.258050L505.900800 279.607184
L506.347200 277.733477L507.686400 279.224391L508.579200 277.374068
L509.025600 280.995945L509.472000 278.042490L509.918400 279.326456
L510.811200 277.089903L511.704000 280.266242L512.150400 278.587961
L513.489600 276.939592L513.936000 278.521652L515.275200 278.296068
L515.721600 280.839198L516.614400 276.100183L517.507200 279.213383
L517.953600 277.986448L517.953600 277.986448"/>
</g>
<g id="matplotlib.axis1">
<g id="xtick1">
<g id="line2d2">
<path style="fill: none; stroke: #000000; stroke-width: 0.500000; stroke-linejoin: round; stroke-linecap: butt; stroke-dasharray: 1.000000,3.000000; stroke-dashoffset: 0.000000; opacity: 1.000000" clip-path="url(#p50431ccdcb28178602d99d9270004dde)" d="M72.000000 388.800000L72.000000 43.200000"/>
</g>
<g id="line2d3">
<defs><path id="m30e32995789d870ad79a2e54c91cf9c6" d="M0.000000 0.000000L0.000000 -4.000000"/></defs>
<g ><use style="fill: none; stroke: #000000; stroke-width: 0.500000; stroke-linejoin: round; stroke-linecap: butt;  opacity: 1.000000" xlink:href="#m30e32995789d870ad79a2e54c91cf9c6" x="72.000000" y="388.800000"/>
</g></g>
<g id="line2d4">
<defs><path id="m9281cae24120827b11d5ea8a7ad3e96b" d="M0.000000 0.000000L0.000000 4.000000"/></defs>
<g ><use style="fill: none; stroke: #000000; stroke-width: 0.500000; stroke-linejoin: round; stroke-linecap: butt;  opacity: 1.000000" xlink:href="#m9281cae24120827b11d5ea8a7ad3e96b" x="72.000000" y="43.200000"/>
</g></g>
<g id="text1">
<defs>
<path id="c_7a2040fe3b94fcd41d0a72c84e93b115" d="M31.781250 -66.406250q-7.609375 0.000000 -11.453125 7.500000q-3.828125 7.484375 -3.828125 22.531250q0.000000 14.984375 3.828125 22.484375q3.843750 7.500000 11.453125 7.500000q7.671875 0.000000 11.500000 -7.500000q3.843750 -7.500000 3.843750 -22.484375q0.000000 -15.046875 -3.843750 -22.531250q-3.828125 -7.500000 -11.500000 -7.500000M31.781250 -74.218750q12.265625 0.000000 18.734375 9.703125q6.468750 9.687500 6.468750 28.140625q0.000000 18.406250 -6.468750 28.109375q-6.468750 9.687500 -18.734375 9.687500q-12.250000 0.000000 -18.718750 -9.687500q-6.468750 -9.703125 -6.468750 -28.109375q0.000000 -18.453125 6.468750 -28.140625q6.468750 -9.703125 18.718750 -9.703125"/>
</defs>
<g style="fill: #000000; opacity: 1.000000" transform="translate(68.976562,401.706250)scale(0.120000)">
<use xlink:href="#c_7a2040fe3b94fcd41d0a72c84e93b115"/>
</g>
</g>
</g>
<g id="xtick2">
<g id="line2d5">
<path style="fill: none; stroke: #000000; stroke-width: 0.500000; stroke-linejoin: round; stroke-linecap: butt; stroke-dasharray: 1.000000,3.000000; stroke-dashoffset: 0.000000; opacity: 1.000000" clip-path="url(#p50431ccdcb28178602d99d9270004dde)" d="M161.280000 388.800000L161.280000 43.200000"/>
</g>
<g id="line2d6">
<g ><use style="fill: none; stroke: #000000; stroke-width: 0.500000; stroke-linejoin: round; stroke-linecap: butt;  opacity: 1.000000" xlink:href="#m30e32995789d870ad79a2e54c91cf9c6" x="161.280000" y="388.800000"/>
</g></g>
<g id="line2d7">
<g ><use style="fill: none; stroke: #000000; stroke-width: 0.500000; stroke-linejoin: round; stroke-linecap: butt;  opacity: 1.000000" xlink:href="#m9281cae24120827b11d5ea8a7ad3e96b" x="161.280000" y="43.200000"/>
</g></g>
<g id="text2">
<defs>
<path id="c_ed3f3ed3ebfbd18bcb9c012009a68ad1" d="M19.187500 -8.296875l34.421875 0.000000l0.000000 8.296875l-46.281250 0.000000l0.000000 -8.296875q5.609375 -5.812500 15.296875 -15.593750q9.703125 -9.796875 12.187500 -12.640625q4.734375 -5.312500 6.609375 -9.000000q1.890625 -3.687500 1.890625 -7.250000q0.000000 -5.812500 -4.078125 -9.468750q-4.078125 -3.671875 -10.625000 -3.671875q-4.640625 0.000000 -9.796875 1.609375q-5.140625 1.609375 -11.000000 4.890625l0.000000 -9.968750q5.953125 -2.390625 11.125000 -3.609375q5.187500 -1.218750 9.484375 -1.218750q11.328125 0.000000 18.062500 5.671875q6.734375 5.656250 6.734375 15.125000q0.000000 4.500000 -1.687500 8.531250q-1.671875 4.015625 -6.125000 9.484375q-1.218750 1.421875 -7.765625 8.187500q-6.531250 6.765625 -18.453125 18.921875"/>
</defs>
<g style="fill: #000000; opacity: 1.000000" transform="translate(150.655000,401.706250)scale(0.120000)">
<use xlink:href="#c_ed3f3ed3ebfbd18bcb9c012009a68ad1"/>
<use xlink:href="#c_7a2040fe3b94fcd41d0a72c84e93b115" x="63.623047"/>
<use xlink:href="#c_7a2040fe3b94fcd41d0a72c84e93b115" x="127.246094"/>
</g>
</g>
</g>
<g id="xtick3">
<g id="line2d8">
<path style="fill: none; stroke: #000000; stroke-width: 0.500000; stroke-linejoin: round; stroke-linecap: butt; stroke-dasharray: 1.000000,3.000000; stroke-dashoffset: 0.000000; opacity: 1.000000" clip-path="url(#p50431ccdcb28178602d99d9270004dde)" d="M250.560000 388.800000L250.560000 43.200000"/>
</g>
<g id="line2d9">
<g ><use style="fill: none; stroke: #000000; stroke-width: 0.500000; stroke-linejoin: round; stroke-linecap: butt;  opacity: 1.000000" xlink:href="#m30e32995789d870ad79a2e54c91cf9c6" x="250.560000" y="388.800000"/>
</g></g>
<g id="line2d10">
<g ><use style="fill: none; stroke: #000000; stroke-width: 0.500000; stroke-linejoin: round; stroke-linecap: butt;  opacity: 1.000000" xlink:href="#m9281cae24120827b11d5ea8a7ad3e96b" x="250.560000" y="43.200000"/>
</g></g>
<g id="text3">
<defs>
<path id="c_a0416418d96557a09b8c1332d34883ba" d="M37.796875 -64.312500l-24.906250 38.921875l24.906250 0.000000zM35.203125 -72.906250l12.406250 0.000000l0.000000 47.515625l10.406250 0.000000l0.000000 8.203125l-10.406250 0.000000l0.000000 17.187500l-9.812500 0.000000l0.000000 -17.187500l-32.906250 0.000000l0.000000 -9.515625z"/>
</defs>
<g style="fill: #000000; opacity: 1.000000" transform="translate(239.794375,401.706250)scale(0.120000)">
<use xlink:href="#c_a0416418d96557a09b8c1332d34883ba"/>
<use xlink:href="#c_7a2040fe3b94fcd41d0a72c84e93b115" x="63.623047"/>
<use xlink:href="#c_7a2040fe3b94fcd41d0a72c84e93b115" x="127.246094"/>
</g>
</g>
</g>
<g id="xtick4">
<g id="line2d11">
<path style="fill: none; stroke: #000000; stroke-width: 0.500000; stroke-linejoin: round; stroke-linecap: butt; stroke-dasharray: 1.000000,3.000000; stroke-dashoffset: 0.000000; opacity: 1.000000" clip-path="url(#p50431ccdcb28178602d99d9270004dde)" d="M339.840000 388.800000L339.840000 43.200000"/>
</g>
<g id="line2d12">
<g ><use style="fill: none; stroke: #000000; stroke-width: 0.500000; stroke-linejoin: round; stroke-linecap: butt;  opacity: 1.000000" xlink:href="#m30e32995789d870ad79a2e54c91cf9c6" x="339.840000" y="388.800000"/>
</g></g>
<g id="line2d13">
<g ><use style="fill: none; stroke: #000000; stroke-width: 0.500000; stroke-linejoin: round; stroke-linecap: butt;  opacity: 1.000000" xlink:href="#m9281cae24120827b11d5ea8a7ad3e96b" x="339.840000" y="43.200000"/>
</g></g>
<g id="text4">
<defs>
<path id="c_cc8d6d580d1b10c8632f7a42cd53db8a" d="M33.015625 -40.375000q-6.640625 0.000000 -10.531250 4.546875q-3.875000 4.531250 -3.875000 12.437500q0.000000 7.859375 3.875000 12.437500q3.890625 4.562500 10.531250 4.562500q6.640625 0.000000 10.515625 -4.562500q3.875000 -4.578125 3.875000 -12.437500q0.000000 -7.906250 -3.875000 -12.437500q-3.875000 -4.546875 -10.515625 -4.546875M52.593750 -71.296875l0.000000 8.984375q-3.718750 -1.750000 -7.500000 -2.671875q-3.781250 -0.937500 -7.500000 -0.937500q-9.765625 0.000000 -14.921875 6.593750q-5.140625 6.593750 -5.875000 19.921875q2.875000 -4.250000 7.218750 -6.515625q4.359375 -2.265625 9.578125 -2.265625q10.984375 0.000000 17.359375 6.671875q6.375000 6.656250 6.375000 18.125000q0.000000 11.234375 -6.640625 18.031250q-6.640625 6.781250 -17.671875 6.781250q-12.656250 0.000000 -19.343750 -9.687500q-6.687500 -9.703125 -6.687500 -28.109375q0.000000 -17.281250 8.203125 -27.562500q8.203125 -10.281250 22.015625 -10.281250q3.718750 0.000000 7.500000 0.734375q3.781250 0.734375 7.890625 2.187500"/>
</defs>
<g style="fill: #000000; opacity: 1.000000" transform="translate(329.199375,401.706250)scale(0.120000)">
<use xlink:href="#c_cc8d6d580d1b10c8632f7a42cd53db8a"/>
<use xlink:href="#c_7a2040fe3b94fcd41d0a72c84e93b115" x="63.623047"/>
<use xlink:href="#c_7a2040fe3b94fcd41d0a72c84e93b115" x="127.246094"/>
</g>
</g>
</g>
<g id="xtick5">
<g id="line2d14">
<path style="fill: none; stroke: #000000; stroke-width: 0.500000; stroke-linejoin: round; stroke-linecap: butt; stroke-dasharray: 1.000000,3.000000; stroke-dashoffset: 0.000000; opacity: 1.000000" clip-path="url(#p50431ccdcb28178602d99d9270004dde)" d="M429.120000 388.800000L429.120000 43.200000"/>
</g>
<g id="line2d15">
<g ><use style="fill: none; stroke: #000000; stroke-width: 0.500000; stroke-linejoin: round; stroke-linecap: butt;  opacity: 1.000000" xlink:href="#m30e32995789d870ad79a2e54c91cf9c6" x="429.120000" y="388.800000"/>
</g></g>
<g id="line2d16">
<g ><use style="fill: none; stroke: #000000; stroke-width: 0.500000; stroke-linejoin: round; stroke-linecap: butt;  opacity: 1.000000" xlink:href="#m9281cae24120827b11d5ea8a7ad3e96b" x="429.120000" y="43.200000"/>
</g></g>
<g id="text5">
<defs>
<path id="c_bef35738d52871942e50b9de9b122bab" d="M31.781250 -34.625000q-7.031250 0.000000 -11.062500 3.765625q-4.015625 3.765625 -4.015625 10.343750q0.000000 6.593750 4.015625 10.359375q4.031250 3.765625 11.062500 3.765625q7.031250 0.000000 11.078125 -3.781250q4.062500 -3.796875 4.062500 -10.343750q0.000000 -6.578125 -4.031250 -10.343750q-4.015625 -3.765625 -11.109375 -3.765625M21.921875 -38.812500q-6.343750 -1.562500 -9.890625 -5.906250q-3.531250 -4.359375 -3.531250 -10.609375q0.000000 -8.734375 6.218750 -13.812500q6.234375 -5.078125 17.062500 -5.078125q10.890625 0.000000 17.093750 5.078125q6.203125 5.078125 6.203125 13.812500q0.000000 6.250000 -3.546875 10.609375q-3.531250 4.343750 -9.828125 5.906250q7.125000 1.656250 11.093750 6.500000q3.984375 4.828125 3.984375 11.796875q0.000000 10.609375 -6.468750 16.281250q-6.468750 5.656250 -18.531250 5.656250q-12.046875 0.000000 -18.531250 -5.656250q-6.468750 -5.671875 -6.468750 -16.281250q0.000000 -6.968750 4.000000 -11.796875q4.015625 -4.843750 11.140625 -6.500000M18.312500 -54.390625q0.000000 5.656250 3.531250 8.828125q3.546875 3.171875 9.937500 3.171875q6.359375 0.000000 9.937500 -3.171875q3.593750 -3.171875 3.593750 -8.828125q0.000000 -5.671875 -3.593750 -8.843750q-3.578125 -3.171875 -9.937500 -3.171875q-6.390625 0.000000 -9.937500 3.171875q-3.531250 3.171875 -3.531250 8.843750"/>
</defs>
<g style="fill: #000000; opacity: 1.000000" transform="translate(418.463750,401.706250)scale(0.120000)">
<use xlink:href="#c_bef35738d52871942e50b9de9b122bab"/>
<use xlink:href="#c_7a2040fe3b94fcd41d0a72c84e93b115" x="63.623047"/>
<use xlink:href="#c_7a2040fe3b94fcd41d0a72c84e93b115" x="127.246094"/>
</g>
</g>
</g>
<g id="xtick6">
<g id="line2d17">
<path style="fill: none; stroke: #000000; stroke-width: 0.500000; stroke-linejoin: round; stroke-linecap: butt; stroke-dasharray: 1.000000,3.000000; stroke-dashoffset: 0.000000; opacity: 1.000000" clip-path="url(#p50431ccdcb28178602d99d9270004dde)" d="M518.400000 388.800000L518.400000 43.200000"/>
</g>
<g id="line2d18">
<g ><use style="fill: none; stroke: #000000; stroke-width: 0.500000; stroke-linejoin: round; stroke-linecap: butt;  opacity: 1.000000" xlink:href="#m30e32995789d870ad79a2e54c91cf9c6" x="518.400000" y="388.800000"/>
</g></g>
<g id="line2d19">
<g ><use style="fill: none; stroke: #000000; stroke-width: 0.500000; stroke-linejoin: round; stroke-linecap: butt;  opacity: 1.000000" xlink:href="#m9281cae24120827b11d5ea8a7ad3e96b" x="518.400000" y="43.200000"/>
</g></g>
<g id="text6">
<defs>
<path id="c_42baa63129a918535c52adb20d687ea7" d="M12.406250 -8.296875l16.109375 0.000000l0.000000 -55.625000l-17.531250 3.515625l0.000000 -8.984375l17.437500 -3.515625l9.859375 0.000000l0.000000 64.609375l16.109375 0.000000l0.000000 8.296875l-41.984375 0.000000z"/>
</defs>
<g style="fill: #000000; opacity: 1.000000" transform="translate(504.173437,401.706250)scale(0.120000)">
<use xlink:href="#c_42baa63129a918535c52adb20d687ea7"/>
<use xlink:href="#c_7a2040fe3b94fcd41d0a72c84e93b115" x="63.623047"/>
<use xlink:href="#c_7a2040fe3b94fcd41d0a72c84e93b115" x="127.246094"/>
<use xlink:href="#c_7a2040fe3b94fcd41d0a72c84e93b115" x="190.869141"/>
</g>
</g>
</g>
</g>
<g id="matplotlib.axis2">
<g id="ytick1">
<g id="line2d20">
<path style="fill: none; stroke: #000000; stroke-width: 0.500000; stroke-linejoin: round; stroke-linecap: butt; stroke-dasharray: 1.000000,3.000000; stroke-dashoffset: 0.000000; opacity: 1.000000" clip-path="url(#p50431ccdcb28178602d99d9270004dde)" d="M72.000000 388.800000L518.400000 388.800000"/>
</g>
<g id="line2d21">
<defs><path id="m3400efa6b1638b3fea9e19e898273957" d="M0.000000 0.000000L4.000000 0.000000"/></defs>
<g ><use style="fill: none; stroke: #000000; stroke-width: 0.500000; stroke-linejoin: round; stroke-linecap: butt;  opacity: 1.000000" xlink:href="#m3400efa6b1638b3fea9e19e898273957" x="72.000000" y="388.800000"/>
</g></g>
<g id="line2d22">
<defs><path id="m20b58b2501143cb5e0a5e8f1ef6f1643" d="M0.000000 0.000000L-4.000000 0.000000"/></defs>
<g ><use style="fill: none; stroke: #000000; stroke-width: 0.500000; stroke-linejoin: round; stroke-linecap: butt;  opacity: 1.000000" xlink:href="#m20b58b2501143cb5e0a5e8f1ef6f1643" x="518.400000" y="388.800000"/>
</g></g>
<g id="text7">
<defs>
<path id="c_ed3e21196fb739f392806f09ca0594ef" d="M10.687500 -12.406250l10.312500 0.000000l0.000000 12.406250l-10.312500 0.000000z"/>
</defs>
<g style="fill: #000000; opacity: 1.000000" transform="translate(50.906250,393.167188)scale(0.120000)">
<use xlink:href="#c_7a2040fe3b94fcd41d0a72c84e93b115"/>
<use xlink:href="#c_ed3e21196fb739f392806f09ca0594ef" x="63.623047"/>
<use xlink:href="#c_ed3f3ed3ebfbd18bcb9c012009a68ad1" x="95.410156"/>
</g>
</g>
</g>
<g id="ytick2">
<g id="line2d23">
<path style="fill: none; stroke: #000000; stroke-width: 0.500000; stroke-linejoin: round; stroke-linecap: butt; stroke-dasharray: 1.000000,3.000000; stroke-dashoffset: 0.000000; opacity: 1.000000" clip-path="url(#p50431ccdcb28178602d99d9270004dde)" d="M72.000000 345.600000L518.400000 345.600000"/>
</g>
<g id="line2d24">
<g ><use style="fill: none; stroke: #000000; stroke-width: 0.500000; stroke-linejoin: round; stroke-linecap: butt;  opacity: 1.000000" xlink:href="#m3400efa6b1638b3fea9e19e898273957" x="72.000000" y="345.600000"/>
</g></g>
<g id="line2d25">
<g ><use style="fill: none; stroke: #000000; stroke-width: 0.500000; stroke-linejoin: round; stroke-linecap: butt;  opacity: 1.000000" xlink:href="#m20b58b2501143cb5e0a5e8f1ef6f1643" x="518.400000" y="345.600000"/>
</g></g>
<g id="text8">
<g style="fill: #000000; opacity: 1.000000" transform="translate(50.375000,349.967188)scale(0.120000)">
<use xlink:href="#c_7a2040fe3b94fcd41d0a72c84e93b115"/>
<use xlink:href="#c_ed3e21196fb739f392806f09ca0594ef" x="63.623047"/>
<use xlink:href="#c_a0416418d96557a09b8c1332d34883ba" x="95.410156"/>
</g>
</g>
</g>
<g id="ytick3">
<g id="line2d26">
<path style="fill: none; stroke: #000000; stroke-width: 0.500000; stroke-linejoin: round; stroke-linecap: butt; stroke-dasharray: 1.000000,3.000000; stroke-dashoffset: 0.000000; opacity: 1.000000" clip-path="url(#p50431ccdcb28178602d99d9270004dde)" d="M72.000000 302.400000L518.400000 302.400000"/>
</g>
<g id="line2d27">
<g ><use style="fill: none; stroke: #000000; stroke-width: 0.500000; stroke-linejoin: round; stroke-linecap: butt;  opacity: 1.000000" xlink:href="#m3400efa6b1638b3fea9e19e898273957" x="72.000000" y="302.400000"/>
</g></g>
<g id="line2d28">
<g ><use style="fill: none; stroke: #000000; stroke-width: 0.500000; stroke-linejoin: round; stroke-linecap: butt;  opacity: 1.000000" xlink:href="#m20b58b2501143cb5e0a5e8f1ef6f1643" x="518.400000" y="302.400000"/>
</g></g>
<g id="text9">
<g style="fill: #000000; opacity: 1.000000" transform="translate(50.468750,306.767187)scale(0.120000)">
<use xlink:href="#c_7a2040fe3b94fcd41d0a72c84e93b115"/>
<use xlink:href="#c_ed3e21196fb739f392806f09ca0594ef" x="63.623047"/>
<use xlink:href="#c_cc8d6d580d1b10c8632f7a42cd53db8a" x="95.410156"/>
</g>
</g>
</g>
<g id="ytick4">
<g id="line2d29">
<path style="fill: none; stroke: #000000; stroke-width: 0.500000; stroke-linejoin: round; stroke-linecap: butt; stroke-dasharray: 1.000000,3.000000; stroke-dashoffset: 0.000000; opacity: 1.000000" clip-path="url(#p50431ccdcb28178602d99d9270004dde)" d="M72.000000 259.200000L518.400000 259.200000"/>
</g>
<g id="line2d30">
<g ><use style="fill: none; stroke: #000000; stroke-width: 0.500000; stroke-linejoin: round; stroke-linecap: butt;  opacity: 1.000000" xlink:href="#m3400efa6b1638b3fea9e19e898273957" x="72.000000" y="259.200000"/>
</g></g>
<g id="line2d31">
<g ><use style="fill: none; stroke: #000000; stroke-width: 0.500000; stroke-linejoin: round; stroke-linecap: butt;  opacity: 1.000000" xlink:href="#m20b58b2501143cb5e0a5e8f1ef6f1643" x="518.400000" y="259.200000"/>
</g></g>
<g id="text10">
<g style="fill: #000000; opacity: 1.000000" transform="translate(50.531250,263.567187)scale(0.120000)">
<use xlink:href="#c_7a2040fe3b94fcd41d0a72c84e93b115"/>
<use xlink:href="#c_ed3e21196fb739f392806f09ca0594ef" x="63.623047"/>
<use xlink:href="#c_bef35738d52871942e50b9de9b122bab" x="95.410156"/>
</g>
</g>
</g>
<g id="ytick5">
<g id="line2d32">
<path style="fill: none; stroke: #000000; stroke-width: 0.500000; stroke-linejoin: round; stroke-linecap: butt; stroke-dasharray: 1.000000,3.000000; stroke-dashoffset: 0.000000; opacity: 1.000000" clip-path="url(#p50431ccdcb28178602d99d9270004dde)" d="M72.000000 216.000000L518.400000 216.000000"/>
</g>
<g id="line2d33">
<g ><use style="fill: none; stroke: #000000; stroke-width: 0.500000; stroke-linejoin: round; stroke-linecap: butt;  opacity: 1.000000" xlink:href="#m3400efa6b1638b3fea9e19e898273957" x="72.000000" y="216.000000"/>
</g></g>
<g id="line2d34">
<g ><use style="fill: none; stroke: #000000; stroke-width: 0.500000; stroke-linejoin: round; stroke-linecap: butt;  opacity: 1.000000" xlink:href="#m20b58b2501143cb5e0a5e8f1ef6f1643" x="518.400000" y="216.000000"/>
</g></g>
<g id="text11">
<g style="fill: #000000; opacity: 1.000000" transform="translate(51.015625,220.367188)scale(0.120000)">
<use xlink:href="#c_42baa63129a918535c52adb20d687ea7"/>
<use xlink:href="#c_ed3e21196fb739f392806f09ca0594ef" x="63.623047"/>
<use xlink:href="#c_7a2040fe3b94fcd41d0a72c84e93b115" x="95.410156"/>
</g>
</g>
</g>
<g id="ytick6">
<g id="line2d35">
<path style="fill: none; stroke: #000000; stroke-width: 0.500000; stroke-linejoin: round; stroke-linecap: butt; stroke-dasharray: 1.000000,3.000000; stroke-dashoffset: 0.000000; opacity: 1.000000" clip-path="url(#p50431ccdcb28178602d99d9270004dde)" d="M72.000000 172.800000L518.400000 172.800000"/>
</g>
<g id="line2d36">
<g ><use style="fill: none; stroke: #000000; stroke-width: 0.500000; stroke-linejoin: round; stroke-linecap: butt;  opacity: 1.000000" xlink:href="#m3400efa6b1638b3fea9e19e898273957" x="72.000000" y="172.800000"/>
</g></g>
<g id="line2d37">
<g ><use style="fill: none; stroke: #000000; stroke-width: 0.500000; stroke-linejoin: round; stroke-linecap: butt;  opacity: 1.000000" xlink:href="#m20b58b2501143cb5e0a5e8f1ef6f1643" x="518.400000" y="172.800000"/>
</g></g>
<g id="text12">
<g style="fill: #000000; opacity: 1.000000" transform="translate(51.421875,177.253125)scale(0.120000)">
<use xlink:href="#c_42baa63129a918535c52adb20d687ea7"/>
<use xlink:href="#c_ed3e21196fb739f392806f09ca0594ef" x="63.623047"/>
<use xlink:href="#c_ed3f3ed3ebfbd18bcb9c012009a68ad1" x="95.410156"/>
</g>
</g>
</g>
<g id="ytick7">
<g id="line2d38">
<path style="fill: none; stroke: #000000; stroke-width: 0.500000; stroke-linejoin: round; stroke-linecap: butt; stroke-dasharray: 1.000000,3.000000; stroke-dashoffset: 0.000000; opacity: 1.000000" clip-path="url(#p50431ccdcb28178602d99d9270004dde)" d="M72.000000 129.600000L518.400000 129.600000"/>
</g>
<g id="line2d39">
<g ><use style="fill: none; stroke: #000000; stroke-width: 0.500000; stroke-linejoin: round; stroke-linecap: butt;  opacity: 1.000000" xlink:href="#m3400efa6b1638b3fea9e19e898273957" x="72.000000" y="129.600000"/>
</g></g>
<g id="line2d40">
<g ><use style="fill: none; stroke: #000000; stroke-width: 0.500000; stroke-linejoin: round; stroke-linecap: butt;  opacity: 1.000000" xlink:href="#m20b58b2501143cb5e0a5e8f1ef6f1643" x="518.400000" y="129.600000"/>
</g></g>
<g id="text13">
<g style="fill: #000000; opacity: 1.000000" transform="translate(50.890625,133.975000)scale(0.120000)">
<use xlink:href="#c_42baa63129a918535c52adb20d687ea7"/>
<use xlink:href="#c_ed3e21196fb739f392806f09ca0594ef" x="63.623047"/>
<use xlink:href="#c_a0416418d96557a09b8c1332d34883ba" x="95.410156"/>
</g>
</g>
</g>
<g id="ytick8">
<g id="line2d41">
<path style="fill: none; stroke: #000000; stroke-width: 0.500000; stroke-linejoin: round; stroke-linecap: butt; stroke-dasharray: 1.000000,3.000000; stroke-dashoffset: 0.000000; opacity: 1.000000" clip-path="url(#p50431ccdcb28178602d99d9270004dde)" d="M72.000000 86.400000L518.400000 86.400000"/>
</g>
<g id="line2d42">
<g ><use style="fill: none; stroke: #000000; stroke-width: 0.500000; stroke-linejoin: round; stroke-linecap: butt;  opacity: 1.000000" xlink:href="#m3400efa6b1638b3fea9e19e898273957" x="72.000000" y="86.400000"/>
</g></g>
<g id="line2d43">
<g ><use style="fill: none; stroke: #000000; stroke-width: 0.500000; stroke-linejoin: round; stroke-linecap: butt;  opacity: 1.000000" xlink:href="#m20b58b2501143cb5e0a5e8f1ef6f1643" x="518.400000" y="86.400000"/>
</g></g>
<g id="text14">
<g style="fill: #000000; opacity: 1.000000" transform="translate(50.984375,90.767187)scale(0.120000)">
<use xlink:href="#c_42baa63129a918535c52adb20d687ea7"/>
<use xlink:href="#c_ed3e21196fb739f392806f09ca0594ef" x="63.623047"/>
<use xlink:href="#c_cc8d6d580d1b10c8632f7a42cd53db8a" x="95.410156"/>
</g>
</g>
</g>
<g id="ytick9">
<g id="line2d44">
<path style="fill: none; stroke: #000000; stroke-width: 0.500000; stroke-linejoin: round; stroke-linecap: butt; stroke-dasharray: 1.000000,3.000000; stroke-dashoffset: 0.000000; opacity: 1.000000" clip-path="url(#p50431ccdcb28178602d99d9270004dde)" d="M72.000000 43.200000L518.400000 43.200000"/>
</g>
<g id="line2d45">
<g ><use style="fill: none; stroke: #000000; stroke-width: 0.500000; stroke-linejoin: round; stroke-linecap: butt;  opacity: 1.000000" xlink:href="#m3400efa6b1638b3fea9e19e898273957" x="72.000000" y="43.200000"/>
</g></g>
<g id="line2d46">
<g ><use style="fill: none; stroke: #000000; stroke-width: 0.500000; stroke-linejoin: round; stroke-linecap: butt;  opacity: 1.000000" xlink:href="#m20b58b2501143cb5e0a5e8f1ef6f1643" x="518.400000" y="43.200000"/>
</g></g>
<g id="text15">
<g style="fill: #000000; opacity: 1.000000" transform="translate(51.046875,47.567187)scale(0.120000)">
<use xlink:href="#c_42baa63129a918535c52adb20d687ea7"/>
<use xlink:href="#c_ed3e21196fb739f392806f09ca0594ef" x="63.623047"/>
<use xlink:href="#c_bef35738d52871942e50b9de9b122bab" x="95.410156"/>
</g>
</g>
</g>
</g>
<g id="patch3">
<path style="fill: none; stroke: #000000; stroke-width: 1.000000; stroke-linejoin: round; stroke-linecap: square;  opacity: 1.000000"  d="M72.000000 43.200000L518.400000 43.200000"/>
</g>
<g id="patch4">
<path style="fill: none; stroke: #000000; stroke-width: 1.000000; stroke-linejoin: round; stroke-linecap: square;  opacity: 1.000000"  d="M518.400000 388.800000L518.400000 43.200000"/>
</g>
<g id="patch5">
<path style="fill: none; stroke: #000000; stroke-width: 1.000000; stroke-linejoin: round; stroke-linecap: square;  opacity: 1.000000"  d="M72.000000 388.800000L518.400000 388.800000"/>
</g>
<g id="patch6">
<path style="fill: none; stroke: #000000; stroke-width: 1.000000; stroke-linejoin: round; stroke-linecap: square;  opacity: 1.000000"  d="M72.000000 388.800000L72.000000 43.200000"/>
</g>
</g>
</g>
</svg>
