<?xml version="1.0" standalone="no"?>
<!DOCTYPE svg PUBLIC "-//W3C//DTD SVG 1.1//EN"
  "http://www.w3.org/Graphics/SVG/1.1/DTD/svg11.dtd">
<!-- Created with matplotlib (http://matplotlib.sourceforge.net/) -->
<svg width="576pt" height="432pt" viewBox="0 0 576 432"
   xmlns="http://www.w3.org/2000/svg"
   xmlns:xlink="http://www.w3.org/1999/xlink"
   version="1.1"
   id="svg1">
<g id="figure1">
<g id="patch1">
<path style="fill: #ffffff; stroke: #ffffff; stroke-width: 1.000000; stroke-linejoin: round; stroke-linecap: square;  opacity: 1.000000"  d="M0.000000 432.000000L576.000000 432.000000L576.000000 0.000000
L0.000000 0.000000L0.000000 432.000000"/>
</g>
<g id="axes1">
<g id="patch2">
<path style="fill: #ffffff; opacity: 1.000000"  d="M72.000000 388.800000L518.400000 388.800000L518.400000 43.200000
L72.000000 43.200000L72.000000 388.800000"/>
</g>
<g id="line2d1">
<defs>
  <clipPath id="p50431ccdcb28178602d99d9270004dde">
<rect x="72.000000" y="43.200000" width="446.400000" height="345.600000"/>
  </clipPath>
</defs><path style="fill: none; stroke: #ff0000; stroke-width: 1.000000; stroke-linejoin: round; stroke-linecap: square;  opacity: 1.000000" clip-path="url(#p50431ccdcb28178602d99d9270004dde)" d="M72.000000 348.328659L72.446400 159.015156L73.339200 189.836009
L73.785600 182.032756L74.232000 47.044048L74.678400 314.838602
L75.124800 172.929096L75.571200 336.352262L76.017600 185.494343
L76.464000 340.650297L76.910400 354.679439L77.356800 194.035167
L77.803200 343.165717L78.249600 199.173269L79.142400 366.353251
L79.588800 338.539136L80.035200 186.059820L80.481600 308.896042
L80.928000 193.390747L81.374400 197.810847L81.820800 208.037762
L82.267200 314.624350L83.160000 192.075581L83.606400 345.169092
L84.052800 197.151788L84.499200 185.656147L84.945600 326.336564
L85.392000 335.468713L85.838400 333.045138L86.284800 375.630062
L86.731200 343.550900L87.177600 340.602316L87.624000 328.936303
L88.516800 350.630735L88.963200 190.087088L89.856000 351.521686
L90.302400 335.285842L90.748800 356.502496L91.195200 340.296405
L92.088000 334.835542L92.534400 342.079289L92.980800 322.876192
L93.427200 358.290351L94.320000 323.145357L94.766400 177.932555
L95.212800 345.078026L95.659200 343.035648L96.105600 347.494908
L97.444800 336.548436L97.891200 196.329453L98.337600 325.721244
L99.230400 332.166349L100.123200 349.839467L100.569600 347.100175
L101.016000 194.358540L101.462400 337.072208L101.908800 313.635810
L102.801600 335.164594L103.248000 338.752621L103.694400 329.303837
L104.140800 333.117677L104.587200 348.459333L105.033600 345.490341
L105.480000 331.811124L105.926400 338.218223L106.372800 332.765778
L106.819200 192.930261L107.265600 352.266774L107.712000 199.874572
L108.158400 330.856900L109.051200 333.365282L109.497600 350.393780
L109.944000 335.435607L110.390400 337.093724L110.836800 326.352986
L111.283200 332.111218L111.729600 329.114169L112.176000 340.802882
L112.622400 320.062795L113.515200 346.477772L113.961600 334.149754
L114.408000 342.153173L114.854400 339.219109L115.300800 328.454865
L115.747200 338.250465L116.193600 333.628831L116.640000 340.041591
L117.086400 334.730750L117.979200 347.705893L118.425600 339.555681
L118.872000 354.027303L119.764800 332.566857L120.211200 338.253926
L120.657600 303.245009L121.104000 339.359789L121.996800 326.915116
L123.336000 338.835707L123.782400 349.976195L124.228800 346.127639
L124.675200 334.751031L125.121600 349.948498L125.568000 327.065164
L126.014400 341.152865L126.460800 331.750264L126.907200 349.215924
L127.353600 343.840311L127.800000 346.621432L128.246400 331.413350
L129.139200 348.904316L129.585600 347.753917L131.817600 323.814329
L132.264000 327.159518L133.156800 345.723270L134.049600 344.386017
L134.496000 334.738814L134.942400 333.046835L135.388800 327.768762
L135.835200 340.409344L136.281600 342.362370L136.728000 328.135657
L137.620800 352.390317L138.960000 331.567474L139.406400 340.708473
L139.852800 339.505952L140.299200 332.971289L140.745600 338.114298
L141.192000 331.574210L142.084800 343.689051L142.531200 339.369137
L142.977600 346.579240L143.870400 319.332802L144.763200 341.832871
L146.102400 327.878122L146.548800 354.784372L147.441600 332.270110
L147.888000 339.056582L148.780800 323.654815L149.227200 329.239932
L149.673600 350.497273L150.120000 344.927647L150.566400 347.148207
L151.459200 325.175869L151.905600 338.542537L152.352000 337.333435
L152.798400 324.235601L153.244800 346.697804L153.691200 333.047773
L154.584000 348.061864L155.030400 344.190946L155.476800 347.266567
L156.369600 328.516295L156.816000 331.752891L157.262400 341.353034
L157.708800 339.111161L158.155200 340.185473L158.601600 342.373873
L159.048000 350.559714L159.494400 342.588940L159.940800 327.084546
L160.387200 330.351915L160.833600 339.923353L161.280000 327.220626
L161.726400 342.340834L162.619200 348.042920L163.065600 342.117723
L163.512000 328.712365L163.958400 347.908539L164.404800 352.272773
L166.190400 327.506112L166.636800 343.158667L167.083200 330.230088
L167.529600 332.918988L167.976000 344.250504L168.422400 346.842141
L169.315200 332.474668L169.761600 346.250128L170.654400 315.026502
L171.547200 350.577026L171.993600 355.533932L173.332800 329.759289
L173.779200 341.691445L174.225600 338.121438L175.118400 322.262960
L176.011200 350.302352L176.457600 347.916191L176.904000 333.874984
L177.350400 337.309785L178.243200 328.110085L179.136000 349.767127
L179.582400 345.858748L180.475200 343.807687L180.921600 332.630205
L181.368000 348.238840L181.814400 346.135329L182.260800 330.812675
L183.153600 332.736598L183.600000 352.525527L184.046400 353.966481
L184.492800 329.124767L185.385600 350.022986L185.832000 338.685261
L186.278400 343.116778L187.171200 333.444732L188.956800 345.766807
L190.296000 335.723337L190.742400 346.519794L191.635200 319.861633
L192.081600 340.425660L192.528000 335.776591L192.974400 337.066039
L193.420800 347.245030L193.867200 349.576903L194.313600 343.523638
L194.760000 342.317932L195.206400 338.714055L195.652800 339.820088
L196.099200 332.716821L196.545600 351.982377L196.992000 343.375946
L198.331200 348.650436L198.777600 329.565413L199.224000 340.421282
L200.116800 337.656289L201.009600 327.168703L201.902400 348.488868
L202.348800 335.099848L202.795200 349.023295L203.241600 350.193580
L203.688000 338.481458L204.134400 336.140004L204.580800 344.997006
L205.027200 314.233641L205.920000 346.307800L206.812800 340.022952
L208.152000 333.963602L208.598400 328.873582L209.044800 332.054827
L209.491200 350.102022L209.937600 347.053349L210.384000 351.538209
L210.830400 340.101855L211.276800 315.346602L211.723200 344.325122
L212.169600 338.745355L212.616000 322.312222L213.508800 345.536199
L213.955200 349.290611L214.401600 343.075853L214.848000 347.721607
L215.740800 333.047177L216.187200 335.241564L216.633600 340.958033
L217.080000 332.047290L217.526400 330.020084L217.972800 331.274701
L218.419200 352.084185L219.312000 344.303332L219.758400 326.569424
L221.097600 342.486256L221.990400 335.696149L222.436800 320.097059
L222.883200 352.677934L223.329600 354.215606L224.222400 339.862450
L224.668800 338.494323L225.561600 348.349758L226.454400 337.486654
L226.900800 327.012350L227.793600 351.472346L229.132800 330.061850
L230.025600 336.293842L230.472000 326.860122L230.918400 342.380226
L231.364800 335.708505L232.257600 348.039492L232.704000 342.601811
L233.150400 304.551484L233.596800 340.155948L234.043200 337.961163
L234.936000 344.990722L235.382400 350.241388L235.828800 340.407544
L236.275200 338.272862L236.721600 327.915380L237.168000 330.596004
L237.614400 329.469713L238.507200 345.682650L238.953600 337.794693
L239.400000 352.918601L240.739200 330.651395L241.632000 350.178028
L242.078400 330.329566L243.417600 351.320962L244.310400 335.468425
L245.203200 342.201551L246.096000 338.779644L246.988800 330.129706
L247.435200 342.848451L247.881600 338.327965L248.328000 353.896871
L249.667200 331.308418L250.113600 355.150613L251.452800 331.668323
L251.899200 329.338469L253.238400 355.448595L253.684800 357.050241
L254.131200 341.174517L254.577600 338.106635L255.024000 328.534727
L255.470400 338.528690L255.916800 334.050463L256.809600 337.020538
L257.256000 331.678665L257.702400 351.812771L259.041600 335.544794
L259.488000 275.427492L259.934400 338.073180L260.827200 343.152668
L261.273600 279.733326L261.720000 334.187257L262.166400 332.549870
L262.612800 326.337722L263.505600 338.967420L263.952000 335.218409
L264.398400 338.641171L264.844800 319.952995L265.291200 330.468526
L266.184000 327.157557L266.630400 344.039469L267.523200 333.457160
L267.969600 311.486190L268.416000 337.518818L268.862400 329.002528
L269.308800 342.335650L269.755200 340.048780L270.201600 343.296092
L271.094400 333.647675L271.987200 343.593567L272.433600 324.435804
L273.326400 330.411663L273.772800 343.744252L274.219200 345.411553
L275.112000 330.729713L276.451200 339.536192L276.897600 335.231263
L277.344000 325.305089L277.790400 328.948016L278.236800 349.039146
L278.683200 351.831044L279.576000 319.214108L280.468800 340.863255
L280.915200 328.287263L282.254400 346.082521L283.593600 322.307148
L284.040000 320.212829L284.932800 347.668759L285.379200 319.819746
L285.825600 329.922786L286.272000 324.903133L287.164800 340.988515
L287.611200 342.609388L288.057600 336.010519L288.504000 307.798197
L289.843200 345.162061L290.289600 338.923852L290.736000 343.089009
L291.182400 335.693745L291.628800 341.858857L292.521600 321.860647
L293.860800 348.753254L294.307200 337.932688L294.753600 343.323245
L295.200000 326.749735L295.646400 333.900207L296.092800 316.135976
L296.539200 344.968468L296.985600 332.844365L298.324800 344.770883
L298.771200 339.943936L299.217600 345.536444L299.664000 325.458009
L300.110400 336.068292L300.556800 326.834787L301.449600 337.282802
L301.896000 335.484899L302.342400 351.805147L302.788800 334.676727
L303.235200 331.858017L303.681600 342.133695L304.574400 335.920833
L305.020800 324.896311L305.913600 328.646336L306.360000 348.791164
L306.806400 335.568992L307.252800 340.276815L307.699200 337.776224
L308.145600 321.444037L309.038400 340.150032L309.484800 335.852401
L309.931200 313.429297L310.377600 336.179641L310.824000 326.168171
L311.270400 330.817058L311.716800 342.879437L312.609600 331.001692
L313.056000 339.858901L313.502400 337.316835L313.948800 323.036349
L314.395200 319.937472L314.841600 331.190142L315.288000 326.468618
L315.734400 349.498192L316.180800 306.653607L316.627200 329.734935
L317.520000 334.276200L317.966400 329.658284L318.859200 346.764260
L320.198400 321.261215L320.644800 340.728699L321.537600 334.933739
L321.984000 324.901570L322.430400 330.628859L322.876800 345.148877
L323.769600 340.326527L324.662400 327.781639L325.108800 341.518527
L325.555200 338.260867L326.001600 331.053797L326.448000 341.178365
L326.894400 333.832680L327.340800 345.131173L327.787200 340.504986
L329.126400 338.364982L329.572800 345.937573L330.019200 324.389609
L331.358400 347.392025L331.804800 332.412140L332.251200 349.671551
L332.697600 336.133120L333.144000 347.920675L333.590400 337.409027
L334.036800 339.436679L334.929600 324.855282L335.376000 331.482254
L335.822400 343.677905L337.161600 336.096167L337.608000 341.318048
L338.500800 337.203504L338.947200 331.136937L339.393600 341.815729
L339.840000 332.402884L340.732800 353.972871L341.625600 340.352957
L342.072000 322.849604L342.518400 335.137069L342.964800 327.822584
L343.411200 337.623448L343.857600 314.924095L344.304000 334.631059
L344.750400 323.757861L345.196800 335.153313L345.643200 327.201526
L346.536000 341.052417L346.982400 342.921180L347.428800 330.933488
L348.321600 333.671371L348.768000 323.146613L349.660800 340.497147
L350.107200 327.241590L350.553600 337.040666L351.446400 345.013978
L351.892800 340.322342L352.339200 341.724309L352.785600 337.949099
L353.232000 345.792087L353.678400 333.796058L354.124800 350.715050
L355.017600 321.754686L355.464000 337.989459L355.910400 339.027517
L356.356800 346.687240L357.696000 326.086387L358.142400 334.983986
L358.588800 327.873047L359.481600 337.647171L359.928000 333.761388
L360.374400 340.652586L360.820800 338.604304L361.267200 342.984491
L361.713600 324.719991L362.160000 336.240824L363.052800 326.626255
L363.945600 346.853560L365.284800 339.841561L365.731200 324.327384
L366.624000 340.982565L367.516800 338.286459L368.409600 331.285579
L368.856000 317.589460L369.302400 323.197917L369.748800 342.350087
L370.195200 344.109090L370.641600 336.627708L371.088000 345.869983
L371.534400 322.540580L372.427200 337.105040L372.873600 349.435558
L373.320000 341.256983L374.659200 341.749817L375.105600 329.634507
L375.552000 331.468433L376.444800 343.545293L376.891200 340.397605
L377.337600 343.903211L378.230400 331.376774L378.676800 340.598788
L379.123200 325.729935L379.569600 323.911616L380.462400 328.978048
L381.355200 352.402387L382.248000 335.769739L382.694400 338.272603
L383.140800 343.063849L383.587200 339.432800L384.033600 341.087368
L384.480000 330.826061L385.372800 347.666322L385.819200 349.658093
L386.265600 325.992476L387.158400 344.393833L387.604800 336.431183
L388.051200 338.420350L388.497600 337.050084L389.390400 344.970717
L389.836800 326.328771L390.283200 346.972775L390.729600 335.489774
L391.176000 333.123039L392.068800 347.914140L392.515200 324.722307
L392.961600 333.824253L393.408000 330.320768L393.854400 346.951751
L394.300800 335.632239L394.747200 342.973417L395.640000 328.631985
L396.086400 343.170213L396.532800 346.104251L396.979200 290.140995
L397.425600 324.593104L398.764800 346.502647L399.657600 308.978093
L400.104000 338.437518L400.550400 325.904590L400.996800 327.527755
L401.443200 324.905008L402.336000 346.256634L403.228800 330.068779
L403.675200 336.144007L404.121600 334.131108L404.568000 339.328094
L405.014400 329.175513L405.907200 347.688818L406.353600 340.790164
L407.246400 321.337958L407.692800 339.098616L408.139200 328.974759
L409.478400 348.930516L409.924800 341.691293L410.371200 324.528852
L410.817600 338.075620L411.264000 334.228657L411.710400 338.046621
L412.603200 329.166438L413.049600 331.184396L413.496000 344.077713
L413.942400 334.985098L414.388800 339.954532L415.281600 338.014244
L415.728000 333.983166L416.620800 344.206500L417.513600 333.688729
L418.406400 340.897752L418.852800 329.400518L419.299200 341.915864
L419.745600 335.344501L420.192000 346.792216L421.084800 320.990109
L421.531200 342.051768L421.977600 339.613108L422.424000 331.303415
L423.316800 348.160772L424.209600 344.993996L424.656000 320.745444
L425.102400 341.011215L425.548800 327.345149L426.441600 340.235364
L426.888000 309.741034L427.334400 330.811926L427.780800 332.996319
L428.673600 323.779208L429.566400 347.530029L430.012800 351.999348
L430.459200 328.101849L431.352000 339.558287L431.798400 336.048705
L432.244800 344.394524L432.691200 335.543800L433.137600 337.181538
L433.584000 334.930758L434.030400 338.857597L434.476800 332.808322
L435.369600 348.116570L436.262400 337.173468L437.155200 349.031514
L438.048000 322.526252L438.494400 339.195171L439.387200 343.843992
L439.833600 342.400101L440.726400 333.590435L441.172800 338.449631
L441.619200 337.321567L442.065600 317.359149L442.512000 330.381518
L442.958400 317.481584L443.851200 354.519043L444.297600 340.553235
L444.744000 342.272624L445.636800 332.233531L446.083200 338.736324
L446.976000 327.958569L447.422400 330.654836L448.315200 345.371604
L449.654400 324.187926L450.100800 335.174196L450.547200 327.339109
L451.886400 348.083663L452.332800 316.262860L452.779200 341.473522
L453.672000 337.513288L454.118400 342.373579L454.564800 310.129258
L455.011200 337.368663L455.457600 343.199485L455.904000 339.813729
L456.350400 342.299128L456.796800 340.709126L457.243200 344.252978
L457.689600 326.853714L458.582400 341.031082L459.028800 345.304676
L459.475200 337.951642L459.921600 346.408793L460.368000 335.871472
L460.814400 345.528778L461.260800 337.108576L461.707200 346.753045
L462.153600 324.708189L462.600000 336.853575L463.492800 329.550330
L463.939200 345.412529L465.278400 322.262009L466.171200 330.272614
L466.617600 343.632433L467.064000 338.074713L467.510400 320.291493
L468.403200 348.243624L468.849600 338.760588L469.296000 321.901289
L469.742400 338.012467L470.635200 327.443351L471.081600 329.089329
L471.528000 345.253605L472.420800 357.364238L472.867200 315.975332
L473.313600 336.960132L474.206400 335.053187L475.099200 336.809768
L475.545600 327.191052L476.438400 299.885950L476.884800 332.894650
L477.331200 339.468405L477.777600 336.487337L478.224000 323.004427
L479.116800 347.125545L479.563200 301.067182L480.902400 340.142674
L481.348800 343.402597L481.795200 337.126499L482.241600 303.401114
L483.134400 336.665079L483.580800 338.329287L484.027200 347.726261
L484.473600 349.416544L484.920000 344.580440L485.366400 353.349058
L486.259200 319.569258L486.705600 342.268914L487.152000 340.378972
L487.598400 336.492449L488.044800 341.447305L488.491200 338.006580
L488.937600 348.128222L490.723200 327.064251L491.169600 339.627681
L491.616000 341.213806L492.062400 346.262495L492.508800 334.297976
L492.955200 338.338097L493.401600 332.009124L493.848000 340.740268
L494.294400 329.760014L494.740800 342.503542L495.187200 345.365294
L495.633600 341.508087L496.080000 344.296466L496.972800 333.185913
L497.865600 345.237457L498.312000 326.961173L499.651200 343.768576
L500.097600 335.969352L500.544000 341.225176L500.990400 336.902576
L501.883200 346.039764L502.329600 321.869212L503.668800 334.027670
L504.115200 345.729015L504.561600 347.807503L505.900800 331.445030
L506.347200 341.765493L506.793600 335.987749L507.686400 340.568997
L508.132800 330.093348L509.025600 350.112753L509.472000 337.638672
L510.364800 304.765085L510.811200 343.249998L512.150400 323.813938
L513.489600 345.563012L513.936000 329.287340L514.382400 344.356281
L515.275200 338.372090L515.721600 349.756456L516.168000 344.224106
L516.614400 328.422465L517.060800 333.314332L517.507200 321.990085
L517.953600 352.452275L517.953600 352.452275"/>
</g>
<g id="matplotlib.axis1">
<g id="xtick1">
<g id="line2d2">
<path style="fill: none; stroke: #000000; stroke-width: 0.500000; stroke-linejoin: round; stroke-linecap: butt; stroke-dasharray: 1.000000,3.000000; stroke-dashoffset: 0.000000; opacity: 1.000000" clip-path="url(#p50431ccdcb28178602d99d9270004dde)" d="M72.000000 388.800000L72.000000 43.200000"/>
</g>
<g id="line2d3">
<defs><path id="m30e32995789d870ad79a2e54c91cf9c6" d="M0.000000 0.000000L0.000000 -4.000000"/></defs>
<g ><use style="fill: none; stroke: #000000; stroke-width: 0.500000; stroke-linejoin: round; stroke-linecap: butt;  opacity: 1.000000" xlink:href="#m30e32995789d870ad79a2e54c91cf9c6" x="72.000000" y="388.800000"/>
</g></g>
<g id="line2d4">
<defs><path id="m9281cae24120827b11d5ea8a7ad3e96b" d="M0.000000 0.000000L0.000000 4.000000"/></defs>
<g ><use style="fill: none; stroke: #000000; stroke-width: 0.500000; stroke-linejoin: round; stroke-linecap: butt;  opacity: 1.000000" xlink:href="#m9281cae24120827b11d5ea8a7ad3e96b" x="72.000000" y="43.200000"/>
</g></g>
<g id="text1">
<defs>
<path id="c_7a2040fe3b94fcd41d0a72c84e93b115" d="M31.781250 -66.406250q-7.609375 0.000000 -11.453125 7.500000q-3.828125 7.484375 -3.828125 22.531250q0.000000 14.984375 3.828125 22.484375q3.843750 7.500000 11.453125 7.500000q7.671875 0.000000 11.500000 -7.500000q3.843750 -7.500000 3.843750 -22.484375q0.000000 -15.046875 -3.843750 -22.531250q-3.828125 -7.500000 -11.500000 -7.500000M31.781250 -74.218750q12.265625 0.000000 18.734375 9.703125q6.468750 9.687500 6.468750 28.140625q0.000000 18.406250 -6.468750 28.109375q-6.468750 9.687500 -18.734375 9.687500q-12.250000 0.000000 -18.718750 -9.687500q-6.468750 -9.703125 -6.468750 -28.109375q0.000000 -18.453125 6.468750 -28.140625q6.468750 -9.703125 18.718750 -9.703125"/>
</defs>
<g style="fill: #000000; opacity: 1.000000" transform="translate(68.976562,401.706250)scale(0.120000)">
<use xlink:href="#c_7a2040fe3b94fcd41d0a72c84e93b115"/>
</g>
</g>
</g>
<g id="xtick2">
<g id="line2d5">
<path style="fill: none; stroke: #000000; stroke-width: 0.500000; stroke-linejoin: round; stroke-linecap: butt; stroke-dasharray: 1.000000,3.000000; stroke-dashoffset: 0.000000; opacity: 1.000000" clip-path="url(#p50431ccdcb28178602d99d9270004dde)" d="M161.280000 388.800000L161.280000 43.200000"/>
</g>
<g id="line2d6">
<g ><use style="fill: none; stroke: #000000; stroke-width: 0.500000; stroke-linejoin: round; stroke-linecap: butt;  opacity: 1.000000" xlink:href="#m30e32995789d870ad79a2e54c91cf9c6" x="161.280000" y="388.800000"/>
</g></g>
<g id="line2d7">
<g ><use style="fill: none; stroke: #000000; stroke-width: 0.500000; stroke-linejoin: round; stroke-linecap: butt;  opacity: 1.000000" xlink:href="#m9281cae24120827b11d5ea8a7ad3e96b" x="161.280000" y="43.200000"/>
</g></g>
<g id="text2">
<defs>
<path id="c_ed3f3ed3ebfbd18bcb9c012009a68ad1" d="M19.187500 -8.296875l34.421875 0.000000l0.000000 8.296875l-46.281250 0.000000l0.000000 -8.296875q5.609375 -5.812500 15.296875 -15.593750q9.703125 -9.796875 12.187500 -12.640625q4.734375 -5.312500 6.609375 -9.000000q1.890625 -3.687500 1.890625 -7.250000q0.000000 -5.812500 -4.078125 -9.468750q-4.078125 -3.671875 -10.625000 -3.671875q-4.640625 0.000000 -9.796875 1.609375q-5.140625 1.609375 -11.000000 4.890625l0.000000 -9.968750q5.953125 -2.390625 11.125000 -3.609375q5.187500 -1.218750 9.484375 -1.218750q11.328125 0.000000 18.062500 5.671875q6.734375 5.656250 6.734375 15.125000q0.000000 4.500000 -1.687500 8.531250q-1.671875 4.015625 -6.125000 9.484375q-1.218750 1.421875 -7.765625 8.187500q-6.531250 6.765625 -18.453125 18.921875"/>
</defs>
<g style="fill: #000000; opacity: 1.000000" transform="translate(150.655000,401.706250)scale(0.120000)">
<use xlink:href="#c_ed3f3ed3ebfbd18bcb9c012009a68ad1"/>
<use xlink:href="#c_7a2040fe3b94fcd41d0a72c84e93b115" x="63.623047"/>
<use xlink:href="#c_7a2040fe3b94fcd41d0a72c84e93b115" x="127.246094"/>
</g>
</g>
</g>
<g id="xtick3">
<g id="line2d8">
<path style="fill: none; stroke: #000000; stroke-width: 0.500000; stroke-linejoin: round; stroke-linecap: butt; stroke-dasharray: 1.000000,3.000000; stroke-dashoffset: 0.000000; opacity: 1.000000" clip-path="url(#p50431ccdcb28178602d99d9270004dde)" d="M250.560000 388.800000L250.560000 43.200000"/>
</g>
<g id="line2d9">
<g ><use style="fill: none; stroke: #000000; stroke-width: 0.500000; stroke-linejoin: round; stroke-linecap: butt;  opacity: 1.000000" xlink:href="#m30e32995789d870ad79a2e54c91cf9c6" x="250.560000" y="388.800000"/>
</g></g>
<g id="line2d10">
<g ><use style="fill: none; stroke: #000000; stroke-width: 0.500000; stroke-linejoin: round; stroke-linecap: butt;  opacity: 1.000000" xlink:href="#m9281cae24120827b11d5ea8a7ad3e96b" x="250.560000" y="43.200000"/>
</g></g>
<g id="text3">
<defs>
<path id="c_a0416418d96557a09b8c1332d34883ba" d="M37.796875 -64.312500l-24.906250 38.921875l24.906250 0.000000zM35.203125 -72.906250l12.406250 0.000000l0.000000 47.515625l10.406250 0.000000l0.000000 8.203125l-10.406250 0.000000l0.000000 17.187500l-9.812500 0.000000l0.000000 -17.187500l-32.906250 0.000000l0.000000 -9.515625z"/>
</defs>
<g style="fill: #000000; opacity: 1.000000" transform="translate(239.794375,401.706250)scale(0.120000)">
<use xlink:href="#c_a0416418d96557a09b8c1332d34883ba"/>
<use xlink:href="#c_7a2040fe3b94fcd41d0a72c84e93b115" x="63.623047"/>
<use xlink:href="#c_7a2040fe3b94fcd41d0a72c84e93b115" x="127.246094"/>
</g>
</g>
</g>
<g id="xtick4">
<g id="line2d11">
<path style="fill: none; stroke: #000000; stroke-width: 0.500000; stroke-linejoin: round; stroke-linecap: butt; stroke-dasharray: 1.000000,3.000000; stroke-dashoffset: 0.000000; opacity: 1.000000" clip-path="url(#p50431ccdcb28178602d99d9270004dde)" d="M339.840000 388.800000L339.840000 43.200000"/>
</g>
<g id="line2d12">
<g ><use style="fill: none; stroke: #000000; stroke-width: 0.500000; stroke-linejoin: round; stroke-linecap: butt;  opacity: 1.000000" xlink:href="#m30e32995789d870ad79a2e54c91cf9c6" x="339.840000" y="388.800000"/>
</g></g>
<g id="line2d13">
<g ><use style="fill: none; stroke: #000000; stroke-width: 0.500000; stroke-linejoin: round; stroke-linecap: butt;  opacity: 1.000000" xlink:href="#m9281cae24120827b11d5ea8a7ad3e96b" x="339.840000" y="43.200000"/>
</g></g>
<g id="text4">
<defs>
<path id="c_cc8d6d580d1b10c8632f7a42cd53db8a" d="M33.015625 -40.375000q-6.640625 0.000000 -10.531250 4.546875q-3.875000 4.531250 -3.875000 12.437500q0.000000 7.859375 3.875000 12.437500q3.890625 4.562500 10.531250 4.562500q6.640625 0.000000 10.515625 -4.562500q3.875000 -4.578125 3.875000 -12.437500q0.000000 -7.906250 -3.875000 -12.437500q-3.875000 -4.546875 -10.515625 -4.546875M52.593750 -71.296875l0.000000 8.984375q-3.718750 -1.750000 -7.500000 -2.671875q-3.781250 -0.937500 -7.500000 -0.937500q-9.765625 0.000000 -14.921875 6.593750q-5.140625 6.593750 -5.875000 19.921875q2.875000 -4.250000 7.218750 -6.515625q4.359375 -2.265625 9.578125 -2.265625q10.984375 0.000000 17.359375 6.671875q6.375000 6.656250 6.375000 18.125000q0.000000 11.234375 -6.640625 18.031250q-6.640625 6.781250 -17.671875 6.781250q-12.656250 0.000000 -19.343750 -9.687500q-6.687500 -9.703125 -6.687500 -28.109375q0.000000 -17.281250 8.203125 -27.562500q8.203125 -10.281250 22.015625 -10.281250q3.718750 0.000000 7.500000 0.734375q3.781250 0.734375 7.890625 2.187500"/>
</defs>
<g style="fill: #000000; opacity: 1.000000" transform="translate(329.199375,401.706250)scale(0.120000)">
<use xlink:href="#c_cc8d6d580d1b10c8632f7a42cd53db8a"/>
<use xlink:href="#c_7a2040fe3b94fcd41d0a72c84e93b115" x="63.623047"/>
<use xlink:href="#c_7a2040fe3b94fcd41d0a72c84e93b115" x="127.246094"/>
</g>
</g>
</g>
<g id="xtick5">
<g id="line2d14">
<path style="fill: none; stroke: #000000; stroke-width: 0.500000; stroke-linejoin: round; stroke-linecap: butt; stroke-dasharray: 1.000000,3.000000; stroke-dashoffset: 0.000000; opacity: 1.000000" clip-path="url(#p50431ccdcb28178602d99d9270004dde)" d="M429.120000 388.800000L429.120000 43.200000"/>
</g>
<g id="line2d15">
<g ><use style="fill: none; stroke: #000000; stroke-width: 0.500000; stroke-linejoin: round; stroke-linecap: butt;  opacity: 1.000000" xlink:href="#m30e32995789d870ad79a2e54c91cf9c6" x="429.120000" y="388.800000"/>
</g></g>
<g id="line2d16">
<g ><use style="fill: none; stroke: #000000; stroke-width: 0.500000; stroke-linejoin: round; stroke-linecap: butt;  opacity: 1.000000" xlink:href="#m9281cae24120827b11d5ea8a7ad3e96b" x="429.120000" y="43.200000"/>
</g></g>
<g id="text5">
<defs>
<path id="c_bef35738d52871942e50b9de9b122bab" d="M31.781250 -34.625000q-7.031250 0.000000 -11.062500 3.765625q-4.015625 3.765625 -4.015625 10.343750q0.000000 6.593750 4.015625 10.359375q4.031250 3.765625 11.062500 3.765625q7.031250 0.000000 11.078125 -3.781250q4.062500 -3.796875 4.062500 -10.343750q0.000000 -6.578125 -4.031250 -10.343750q-4.015625 -3.765625 -11.109375 -3.765625M21.921875 -38.812500q-6.343750 -1.562500 -9.890625 -5.906250q-3.531250 -4.359375 -3.531250 -10.609375q0.000000 -8.734375 6.218750 -13.812500q6.234375 -5.078125 17.062500 -5.078125q10.890625 0.000000 17.093750 5.078125q6.203125 5.078125 6.203125 13.812500q0.000000 6.250000 -3.546875 10.609375q-3.531250 4.343750 -9.828125 5.906250q7.125000 1.656250 11.093750 6.500000q3.984375 4.828125 3.984375 11.796875q0.000000 10.609375 -6.468750 16.281250q-6.468750 5.656250 -18.531250 5.656250q-12.046875 0.000000 -18.531250 -5.656250q-6.468750 -5.671875 -6.468750 -16.281250q0.000000 -6.968750 4.000000 -11.796875q4.015625 -4.843750 11.140625 -6.500000M18.312500 -54.390625q0.000000 5.656250 3.531250 8.828125q3.546875 3.171875 9.937500 3.171875q6.359375 0.000000 9.937500 -3.171875q3.593750 -3.171875 3.593750 -8.828125q0.000000 -5.671875 -3.593750 -8.843750q-3.578125 -3.171875 -9.937500 -3.171875q-6.390625 0.000000 -9.937500 3.171875q-3.531250 3.171875 -3.531250 8.843750"/>
</defs>
<g style="fill: #000000; opacity: 1.000000" transform="translate(418.463750,401.706250)scale(0.120000)">
<use xlink:href="#c_bef35738d52871942e50b9de9b122bab"/>
<use xlink:href="#c_7a2040fe3b94fcd41d0a72c84e93b115" x="63.623047"/>
<use xlink:href="#c_7a2040fe3b94fcd41d0a72c84e93b115" x="127.246094"/>
</g>
</g>
</g>
<g id="xtick6">
<g id="line2d17">
<path style="fill: none; stroke: #000000; stroke-width: 0.500000; stroke-linejoin: round; stroke-linecap: butt; stroke-dasharray: 1.000000,3.000000; stroke-dashoffset: 0.000000; opacity: 1.000000" clip-path="url(#p50431ccdcb28178602d99d9270004dde)" d="M518.400000 388.800000L518.400000 43.200000"/>
</g>
<g id="line2d18">
<g ><use style="fill: none; stroke: #000000; stroke-width: 0.500000; stroke-linejoin: round; stroke-linecap: butt;  opacity: 1.000000" xlink:href="#m30e32995789d870ad79a2e54c91cf9c6" x="518.400000" y="388.800000"/>
</g></g>
<g id="line2d19">
<g ><use style="fill: none; stroke: #000000; stroke-width: 0.500000; stroke-linejoin: round; stroke-linecap: butt;  opacity: 1.000000" xlink:href="#m9281cae24120827b11d5ea8a7ad3e96b" x="518.400000" y="43.200000"/>
</g></g>
<g id="text6">
<defs>
<path id="c_42baa63129a918535c52adb20d687ea7" d="M12.406250 -8.296875l16.109375 0.000000l0.000000 -55.625000l-17.531250 3.515625l0.000000 -8.984375l17.437500 -3.515625l9.859375 0.000000l0.000000 64.609375l16.109375 0.000000l0.000000 8.296875l-41.984375 0.000000z"/>
</defs>
<g style="fill: #000000; opacity: 1.000000" transform="translate(504.173437,401.706250)scale(0.120000)">
<use xlink:href="#c_42baa63129a918535c52adb20d687ea7"/>
<use xlink:href="#c_7a2040fe3b94fcd41d0a72c84e93b115" x="63.623047"/>
<use xlink:href="#c_7a2040fe3b94fcd41d0a72c84e93b115" x="127.246094"/>
<use xlink:href="#c_7a2040fe3b94fcd41d0a72c84e93b115" x="190.869141"/>
</g>
</g>
</g>
</g>
<g id="matplotlib.axis2">
<g id="ytick1">
<g id="line2d20">
<path style="fill: none; stroke: #000000; stroke-width: 0.500000; stroke-linejoin: round; stroke-linecap: butt; stroke-dasharray: 1.000000,3.000000; stroke-dashoffset: 0.000000; opacity: 1.000000" clip-path="url(#p50431ccdcb28178602d99d9270004dde)" d="M72.000000 388.800000L518.400000 388.800000"/>
</g>
<g id="line2d21">
<defs><path id="m3400efa6b1638b3fea9e19e898273957" d="M0.000000 0.000000L4.000000 0.000000"/></defs>
<g ><use style="fill: none; stroke: #000000; stroke-width: 0.500000; stroke-linejoin: round; stroke-linecap: butt;  opacity: 1.000000" xlink:href="#m3400efa6b1638b3fea9e19e898273957" x="72.000000" y="388.800000"/>
</g></g>
<g id="line2d22">
<defs><path id="m20b58b2501143cb5e0a5e8f1ef6f1643" d="M0.000000 0.000000L-4.000000 0.000000"/></defs>
<g ><use style="fill: none; stroke: #000000; stroke-width: 0.500000; stroke-linejoin: round; stroke-linecap: butt;  opacity: 1.000000" xlink:href="#m20b58b2501143cb5e0a5e8f1ef6f1643" x="518.400000" y="388.800000"/>
</g></g>
<g id="text7">
<defs>
<path id="c_ed3e21196fb739f392806f09ca0594ef" d="M10.687500 -12.406250l10.312500 0.000000l0.000000 12.406250l-10.312500 0.000000z"/>
</defs>
<g style="fill: #000000; opacity: 1.000000" transform="translate(42.828125,393.167188)scale(0.120000)">
<use xlink:href="#c_7a2040fe3b94fcd41d0a72c84e93b115"/>
<use xlink:href="#c_ed3e21196fb739f392806f09ca0594ef" x="63.623047"/>
<use xlink:href="#c_7a2040fe3b94fcd41d0a72c84e93b115" x="95.410156"/>
<use xlink:href="#c_cc8d6d580d1b10c8632f7a42cd53db8a" x="159.033203"/>
</g>
</g>
</g>
<g id="ytick2">
<g id="line2d23">
<path style="fill: none; stroke: #000000; stroke-width: 0.500000; stroke-linejoin: round; stroke-linecap: butt; stroke-dasharray: 1.000000,3.000000; stroke-dashoffset: 0.000000; opacity: 1.000000" clip-path="url(#p50431ccdcb28178602d99d9270004dde)" d="M72.000000 331.200000L518.400000 331.200000"/>
</g>
<g id="line2d24">
<g ><use style="fill: none; stroke: #000000; stroke-width: 0.500000; stroke-linejoin: round; stroke-linecap: butt;  opacity: 1.000000" xlink:href="#m3400efa6b1638b3fea9e19e898273957" x="72.000000" y="331.200000"/>
</g></g>
<g id="line2d25">
<g ><use style="fill: none; stroke: #000000; stroke-width: 0.500000; stroke-linejoin: round; stroke-linecap: butt;  opacity: 1.000000" xlink:href="#m20b58b2501143cb5e0a5e8f1ef6f1643" x="518.400000" y="331.200000"/>
</g></g>
<g id="text8">
<g style="fill: #000000; opacity: 1.000000" transform="translate(42.890625,335.567187)scale(0.120000)">
<use xlink:href="#c_7a2040fe3b94fcd41d0a72c84e93b115"/>
<use xlink:href="#c_ed3e21196fb739f392806f09ca0594ef" x="63.623047"/>
<use xlink:href="#c_7a2040fe3b94fcd41d0a72c84e93b115" x="95.410156"/>
<use xlink:href="#c_bef35738d52871942e50b9de9b122bab" x="159.033203"/>
</g>
</g>
</g>
<g id="ytick3">
<g id="line2d26">
<path style="fill: none; stroke: #000000; stroke-width: 0.500000; stroke-linejoin: round; stroke-linecap: butt; stroke-dasharray: 1.000000,3.000000; stroke-dashoffset: 0.000000; opacity: 1.000000" clip-path="url(#p50431ccdcb28178602d99d9270004dde)" d="M72.000000 273.600000L518.400000 273.600000"/>
</g>
<g id="line2d27">
<g ><use style="fill: none; stroke: #000000; stroke-width: 0.500000; stroke-linejoin: round; stroke-linecap: butt;  opacity: 1.000000" xlink:href="#m3400efa6b1638b3fea9e19e898273957" x="72.000000" y="273.600000"/>
</g></g>
<g id="line2d28">
<g ><use style="fill: none; stroke: #000000; stroke-width: 0.500000; stroke-linejoin: round; stroke-linecap: butt;  opacity: 1.000000" xlink:href="#m20b58b2501143cb5e0a5e8f1ef6f1643" x="518.400000" y="273.600000"/>
</g></g>
<g id="text9">
<g style="fill: #000000; opacity: 1.000000" transform="translate(42.859375,277.967187)scale(0.120000)">
<use xlink:href="#c_7a2040fe3b94fcd41d0a72c84e93b115"/>
<use xlink:href="#c_ed3e21196fb739f392806f09ca0594ef" x="63.623047"/>
<use xlink:href="#c_42baa63129a918535c52adb20d687ea7" x="95.410156"/>
<use xlink:href="#c_7a2040fe3b94fcd41d0a72c84e93b115" x="159.033203"/>
</g>
</g>
</g>
<g id="ytick4">
<g id="line2d29">
<path style="fill: none; stroke: #000000; stroke-width: 0.500000; stroke-linejoin: round; stroke-linecap: butt; stroke-dasharray: 1.000000,3.000000; stroke-dashoffset: 0.000000; opacity: 1.000000" clip-path="url(#p50431ccdcb28178602d99d9270004dde)" d="M72.000000 216.000000L518.400000 216.000000"/>
</g>
<g id="line2d30">
<g ><use style="fill: none; stroke: #000000; stroke-width: 0.500000; stroke-linejoin: round; stroke-linecap: butt;  opacity: 1.000000" xlink:href="#m3400efa6b1638b3fea9e19e898273957" x="72.000000" y="216.000000"/>
</g></g>
<g id="line2d31">
<g ><use style="fill: none; stroke: #000000; stroke-width: 0.500000; stroke-linejoin: round; stroke-linecap: butt;  opacity: 1.000000" xlink:href="#m20b58b2501143cb5e0a5e8f1ef6f1643" x="518.400000" y="216.000000"/>
</g></g>
<g id="text10">
<g style="fill: #000000; opacity: 1.000000" transform="translate(43.265625,220.367188)scale(0.120000)">
<use xlink:href="#c_7a2040fe3b94fcd41d0a72c84e93b115"/>
<use xlink:href="#c_ed3e21196fb739f392806f09ca0594ef" x="63.623047"/>
<use xlink:href="#c_42baa63129a918535c52adb20d687ea7" x="95.410156"/>
<use xlink:href="#c_ed3f3ed3ebfbd18bcb9c012009a68ad1" x="159.033203"/>
</g>
</g>
</g>
<g id="ytick5">
<g id="line2d32">
<path style="fill: none; stroke: #000000; stroke-width: 0.500000; stroke-linejoin: round; stroke-linecap: butt; stroke-dasharray: 1.000000,3.000000; stroke-dashoffset: 0.000000; opacity: 1.000000" clip-path="url(#p50431ccdcb28178602d99d9270004dde)" d="M72.000000 158.400000L518.400000 158.400000"/>
</g>
<g id="line2d33">
<g ><use style="fill: none; stroke: #000000; stroke-width: 0.500000; stroke-linejoin: round; stroke-linecap: butt;  opacity: 1.000000" xlink:href="#m3400efa6b1638b3fea9e19e898273957" x="72.000000" y="158.400000"/>
</g></g>
<g id="line2d34">
<g ><use style="fill: none; stroke: #000000; stroke-width: 0.500000; stroke-linejoin: round; stroke-linecap: butt;  opacity: 1.000000" xlink:href="#m20b58b2501143cb5e0a5e8f1ef6f1643" x="518.400000" y="158.400000"/>
</g></g>
<g id="text11">
<g style="fill: #000000; opacity: 1.000000" transform="translate(42.734375,162.767187)scale(0.120000)">
<use xlink:href="#c_7a2040fe3b94fcd41d0a72c84e93b115"/>
<use xlink:href="#c_ed3e21196fb739f392806f09ca0594ef" x="63.623047"/>
<use xlink:href="#c_42baa63129a918535c52adb20d687ea7" x="95.410156"/>
<use xlink:href="#c_a0416418d96557a09b8c1332d34883ba" x="159.033203"/>
</g>
</g>
</g>
<g id="ytick6">
<g id="line2d35">
<path style="fill: none; stroke: #000000; stroke-width: 0.500000; stroke-linejoin: round; stroke-linecap: butt; stroke-dasharray: 1.000000,3.000000; stroke-dashoffset: 0.000000; opacity: 1.000000" clip-path="url(#p50431ccdcb28178602d99d9270004dde)" d="M72.000000 100.800000L518.400000 100.800000"/>
</g>
<g id="line2d36">
<g ><use style="fill: none; stroke: #000000; stroke-width: 0.500000; stroke-linejoin: round; stroke-linecap: butt;  opacity: 1.000000" xlink:href="#m3400efa6b1638b3fea9e19e898273957" x="72.000000" y="100.800000"/>
</g></g>
<g id="line2d37">
<g ><use style="fill: none; stroke: #000000; stroke-width: 0.500000; stroke-linejoin: round; stroke-linecap: butt;  opacity: 1.000000" xlink:href="#m20b58b2501143cb5e0a5e8f1ef6f1643" x="518.400000" y="100.800000"/>
</g></g>
<g id="text12">
<g style="fill: #000000; opacity: 1.000000" transform="translate(42.828125,105.167187)scale(0.120000)">
<use xlink:href="#c_7a2040fe3b94fcd41d0a72c84e93b115"/>
<use xlink:href="#c_ed3e21196fb739f392806f09ca0594ef" x="63.623047"/>
<use xlink:href="#c_42baa63129a918535c52adb20d687ea7" x="95.410156"/>
<use xlink:href="#c_cc8d6d580d1b10c8632f7a42cd53db8a" x="159.033203"/>
</g>
</g>
</g>
<g id="ytick7">
<g id="line2d38">
<path style="fill: none; stroke: #000000; stroke-width: 0.500000; stroke-linejoin: round; stroke-linecap: butt; stroke-dasharray: 1.000000,3.000000; stroke-dashoffset: 0.000000; opacity: 1.000000" clip-path="url(#p50431ccdcb28178602d99d9270004dde)" d="M72.000000 43.200000L518.400000 43.200000"/>
</g>
<g id="line2d39">
<g ><use style="fill: none; stroke: #000000; stroke-width: 0.500000; stroke-linejoin: round; stroke-linecap: butt;  opacity: 1.000000" xlink:href="#m3400efa6b1638b3fea9e19e898273957" x="72.000000" y="43.200000"/>
</g></g>
<g id="line2d40">
<g ><use style="fill: none; stroke: #000000; stroke-width: 0.500000; stroke-linejoin: round; stroke-linecap: butt;  opacity: 1.000000" xlink:href="#m20b58b2501143cb5e0a5e8f1ef6f1643" x="518.400000" y="43.200000"/>
</g></g>
<g id="text13">
<g style="fill: #000000; opacity: 1.000000" transform="translate(42.890625,47.567187)scale(0.120000)">
<use xlink:href="#c_7a2040fe3b94fcd41d0a72c84e93b115"/>
<use xlink:href="#c_ed3e21196fb739f392806f09ca0594ef" x="63.623047"/>
<use xlink:href="#c_42baa63129a918535c52adb20d687ea7" x="95.410156"/>
<use xlink:href="#c_bef35738d52871942e50b9de9b122bab" x="159.033203"/>
</g>
</g>
</g>
</g>
<g id="patch3">
<path style="fill: none; stroke: #000000; stroke-width: 1.000000; stroke-linejoin: round; stroke-linecap: square;  opacity: 1.000000"  d="M72.000000 43.200000L518.400000 43.200000"/>
</g>
<g id="patch4">
<path style="fill: none; stroke: #000000; stroke-width: 1.000000; stroke-linejoin: round; stroke-linecap: square;  opacity: 1.000000"  d="M518.400000 388.800000L518.400000 43.200000"/>
</g>
<g id="patch5">
<path style="fill: none; stroke: #000000; stroke-width: 1.000000; stroke-linejoin: round; stroke-linecap: square;  opacity: 1.000000"  d="M72.000000 388.800000L518.400000 388.800000"/>
</g>
<g id="patch6">
<path style="fill: none; stroke: #000000; stroke-width: 1.000000; stroke-linejoin: round; stroke-linecap: square;  opacity: 1.000000"  d="M72.000000 388.800000L72.000000 43.200000"/>
</g>
</g>
</g>
</svg>
