<?xml version="1.0" standalone="no"?>
<!DOCTYPE svg PUBLIC "-//W3C//DTD SVG 1.1//EN"
  "http://www.w3.org/Graphics/SVG/1.1/DTD/svg11.dtd">
<!-- Created with matplotlib (http://matplotlib.sourceforge.net/) -->
<svg width="576pt" height="432pt" viewBox="0 0 576 432"
   xmlns="http://www.w3.org/2000/svg"
   xmlns:xlink="http://www.w3.org/1999/xlink"
   version="1.1"
   id="svg1">
<g id="figure1">
<g id="patch1">
<path style="fill: #ffffff; stroke: #ffffff; stroke-width: 1.000000; stroke-linejoin: round; stroke-linecap: square;  opacity: 1.000000"  d="M0.000000 432.000000L576.000000 432.000000L576.000000 0.000000
L0.000000 0.000000L0.000000 432.000000"/>
</g>
<g id="axes1">
<g id="patch2">
<path style="fill: #ffffff; opacity: 1.000000"  d="M72.000000 388.800000L518.400000 388.800000L518.400000 43.200000
L72.000000 43.200000L72.000000 388.800000"/>
</g>
<g id="line2d1">
<defs>
  <clipPath id="p50431ccdcb28178602d99d9270004dde">
<rect x="72.000000" y="43.200000" width="446.400000" height="345.600000"/>
  </clipPath>
</defs><path style="fill: none; stroke: #ff0000; stroke-width: 1.000000; stroke-linejoin: round; stroke-linecap: square;  opacity: 1.000000" clip-path="url(#p50431ccdcb28178602d99d9270004dde)" d="M72.000000 227.225697L72.223200 81.006912L72.357120 78.709154
L72.535680 62.010561L72.580320 67.502240L72.714240 81.065260
L72.848160 66.065401L72.937440 59.144252L73.160640 77.010897
L73.428480 59.246869L73.473120 63.984695L73.740960 77.061469
L74.053440 178.835677L74.098080 176.145525L74.321280 60.537097
L74.410560 62.634192L74.723040 61.074004L74.723040 61.074004
L74.812320 82.900405L74.946240 70.820581L75.124800 224.542470
L75.258720 168.786299L75.571200 174.797471L75.615840 76.995356
L75.794400 59.893614L75.928320 182.338813L76.151520 166.389859
L76.285440 172.741648L76.508640 68.145890L76.553280 61.327681
L76.821120 58.789560L76.865760 64.831864L76.955040 66.713118
L76.955040 66.713118L77.267520 60.318374L77.267520 60.318374
L77.356800 80.429836L77.624640 65.860772L77.669280 73.020964
L77.758560 67.936497L77.803200 71.343921L78.115680 177.313236
L78.160320 172.493956L78.428160 63.708358L78.472800 68.586178
L78.651360 183.264459L78.785280 74.837034L78.874560 64.792637
L78.919200 185.757669L79.187040 76.064838L79.231680 81.526781
L79.410240 68.927836L79.544160 77.373734L79.767360 68.872537
L80.035200 357.724531L80.124480 189.957573L80.169120 63.870157
L80.436960 174.369130L80.526240 185.896668L80.749440 187.427796
L80.838720 183.691318L80.883360 189.267754L81.017280 188.049797
L81.240480 68.989082L81.329760 168.637965L81.374400 185.993047
L81.463680 60.210428L81.686880 83.121399L81.820800 65.600978
L82.044000 178.636437L82.088640 190.822390L82.356480 58.521569
L82.401120 83.752054L82.579680 193.732726L82.713600 182.907046
L82.981440 186.459635L82.981440 186.459635L83.160000 189.383774
L83.160000 189.383774L83.427840 193.802808L83.472480 187.832958
L83.740320 76.381594L83.829600 93.712242L84.142080 190.415018
L84.186720 187.601683L84.409920 189.361489L84.499200 72.371928
L84.722400 59.392308L84.811680 163.336131L85.034880 188.241348
L85.124160 174.394071L85.302720 181.587671L85.392000 174.530108
L85.525920 179.228609L85.704480 173.323098L85.927680 189.235693
L86.016960 171.777713L86.195520 176.743601L86.329440 167.333997
L86.374080 178.674312L86.418720 175.389339L86.552640 184.475925
L86.731200 174.206186L86.865120 181.332253L87.043680 174.207208
L87.132960 175.027159L87.132960 175.027159L87.400800 69.135768
L87.445440 179.144598L87.713280 171.643579L87.891840 185.723047
L88.115040 175.562491L88.338240 60.395512L88.427520 168.893271
L88.561440 181.976168L88.606080 176.589517L88.740000 160.439815
L88.740000 160.439815L88.963200 183.275030L89.097120 73.597419
L89.320320 61.556538L89.454240 167.745220L89.498880 183.830552
L89.811360 179.870598L89.900640 181.519367L89.945280 180.146100
L90.123840 184.273132L90.213120 180.650412L90.525600 183.615530
L90.525600 183.615530L90.927360 78.848361L91.150560 73.322142
L91.284480 164.657820L91.686240 183.154275L91.730880 175.229648
L91.775520 180.054120L91.954080 164.971506L92.088000 181.829232
L92.311200 169.726188L92.400480 183.223298L92.623680 172.599170
L92.668320 176.516909L92.757600 182.463760L92.802240 180.275976
L93.114720 182.358069L93.114720 182.358069L93.337920 162.503731
L93.471840 183.342025L93.650400 153.724727L93.918240 182.390975
L94.230720 182.738428L94.230720 182.738428L94.364640 172.180771
L94.453920 177.446681L94.721760 135.022501L94.766400 169.277640
L94.900320 181.078692L94.944960 58.562363L95.212800 180.506727
L95.302080 179.059585L95.436000 168.829475L95.659200 184.855491
L95.927040 185.051643L96.016320 171.709991L96.194880 182.395595
L96.328800 172.132782L96.552000 189.204416L96.685920 180.015046
L96.819840 188.536963L97.043040 167.531820L97.132320 180.982691
L97.176960 179.049958L97.489440 190.089333L97.489440 190.089333
L97.712640 170.080070L97.846560 177.524015L98.159040 180.894622
L98.159040 180.894622L98.516160 173.032362L98.873280 183.270308
L99.230400 152.631188L99.275040 165.288602L99.364320 166.904090
L99.364320 166.904090L99.453600 170.524969L99.676800 163.649717
L99.900000 158.217125L99.989280 166.359897L100.212480 174.395415
L100.301760 167.768388L100.524960 177.007267L100.614240 159.161000
L100.837440 171.660881L100.971360 164.711623L101.328480 151.897950
L101.417760 216.583209L101.685600 153.362735L101.730240 157.256923
L102.087360 178.079273L102.132000 176.587217L102.176640 171.726156
L102.444480 178.832731L102.444480 178.832731L102.846240 157.120353
L102.890880 159.872832L102.980160 178.674520L103.069440 164.608993
L103.292640 178.683505L103.381920 160.802876L103.471200 158.967444
L103.739040 154.698420L103.783680 161.681391L104.185440 177.327239
L104.319360 141.178689L104.497920 167.933472L104.810400 183.537870
L104.855040 177.520715L105.167520 160.117713L105.301440 155.104379
L105.390720 179.597263L105.658560 174.248202L105.837120 157.672014
L105.926400 164.942034L106.283520 179.748742L106.417440 131.669101
L106.685280 161.391856L106.908480 179.148542L106.953120 171.497933
L107.176320 178.610080L107.265600 160.952676L107.488800 175.700208
L107.622720 173.937696L107.979840 153.169088L108.069120 181.913649
L108.292320 161.661148L108.381600 174.243239L108.381600 174.243239
L108.426240 175.495743L108.560160 127.371828L108.738720 160.289215
L108.917280 158.268203L109.051200 174.536623L109.408320 59.105951
L109.497600 331.106059L109.765440 166.694920L109.988640 151.678632
L110.122560 156.829392L110.211840 179.373660L110.435040 166.947815
L110.747520 181.644515L110.792160 175.989164L111.104640 177.659084
L111.149280 165.410411L111.283200 153.289541L111.327840 162.803490
L111.595680 178.587953L111.818880 151.172387L111.997440 163.503168
L112.220640 177.736179L112.265280 166.352756L112.488480 181.397951
L112.622400 160.229886L112.667040 162.981301L112.890240 179.613949
L112.979520 165.836205L113.292000 157.717124L113.425920 178.604091
L113.559840 163.291261L113.693760 178.462602L113.872320 165.087748
L113.961600 167.046855L113.961600 167.046855L114.229440 153.954067
L114.318720 180.254478L114.809760 118.789468L115.032960 178.795907
L115.166880 162.012912L115.524000 181.844434L115.747200 154.063456
L116.015040 155.173298L116.416800 180.244727L116.907840 121.021674
L117.131040 180.038637L117.264960 160.375937L117.532800 156.160688
L117.532800 156.160688L117.666720 165.645503L117.845280 164.221532
L118.202400 178.220170L118.604160 150.077776L118.782720 179.511031
L118.916640 164.458257L119.095200 178.736723L119.229120 164.859315
L119.541600 155.112278L119.586240 158.554087L119.988000 183.339392
L120.032640 176.858316L120.121920 161.090953L120.166560 169.456823
L120.300480 173.132428L120.434400 157.698744L120.925440 180.715666
L121.059360 105.878772L121.282560 164.833475L121.461120 160.701732
L121.505760 168.266823L121.595040 161.791927L121.818240 178.043953
L122.041440 154.869704L122.086080 177.789298L122.220000 161.109523
L122.264640 166.830231L122.443200 174.298111L122.577120 167.781795
L122.800320 151.036425L122.889600 155.413367L123.023520 181.313145
L123.112800 160.284465L123.336000 178.795767L123.425280 154.381438
L123.603840 178.941794L123.782400 169.217405L123.871680 151.009875
L124.139520 162.715362L124.273440 159.943198L124.362720 165.401270
L124.496640 177.337838L124.675200 153.674269L125.076960 178.810260
L125.166240 153.910778L125.210880 171.691758L125.344800 154.414104
L125.523360 160.067822L125.612640 172.495483L125.612640 172.495483
L125.791200 205.685162L126.103680 160.360083L126.103680 160.360083
L126.326880 178.871723L126.460800 165.044965L126.773280 155.045515
L126.907200 178.168810L127.041120 171.048806L127.398240 138.480252
L127.442880 143.865660L127.576800 175.768471L127.844640 175.653127
L128.112480 181.587139L128.246400 161.903575L128.469600 176.169516
L128.558880 174.629097L128.871360 134.000676L128.916000 159.377617
L129.005280 178.779884L129.362400 178.540682L129.540960 123.220999
L129.674880 167.663060L129.942720 180.038521L129.987360 174.212981
L130.121280 158.697399L130.299840 163.666025L130.523040 179.374457
L130.567680 163.976791L130.701600 152.619442L130.746240 166.755545
L130.969440 158.200921L131.014080 165.063858L131.192640 158.571307
L131.237280 164.383642L131.371200 178.672835L131.505120 163.123360
L131.683680 179.924434L131.772960 163.385642L131.996160 174.470894
L132.085440 162.331398L132.308640 178.432604L132.353280 174.910841
L132.576480 178.766754L132.710400 160.506734L132.888960 175.124162
L133.022880 173.858465L133.201440 178.985348L133.380000 157.779775
L133.513920 178.692212L133.647840 164.564715L133.826400 176.567736
L133.915680 162.947251L134.049600 173.809984L134.049600 173.809984
L134.228160 157.193283L134.317440 164.256418L134.496000 160.562205
L134.540640 164.681599L134.719200 178.226125L134.808480 157.333156
L134.987040 179.583983L135.120960 158.886135L135.210240 159.880265
L135.210240 159.880265L135.612000 178.169680L135.701280 159.482276
L135.745920 164.962129L135.924480 178.715229L136.058400 163.438554
L136.192320 169.022903L136.192320 169.022903L136.415520 153.489023
L136.504800 173.132344L136.549440 153.803115L136.861920 154.660158
L137.040480 177.855523L137.219040 168.346398L137.397600 178.118419
L137.486880 174.144187L137.888640 130.803263L137.933280 154.359296
L138.290400 178.110917L138.558240 179.810392L138.692160 156.559094
L139.004640 152.636443L139.004640 152.636443L139.183200 177.582666
L139.272480 161.714863L139.495680 181.098340L139.584960 158.030866
L139.763520 182.037154L139.942080 174.364343L140.120640 176.580797
L140.299200 153.220898L140.700960 177.938610L140.968800 183.803653
L141.102720 164.424628L141.281280 178.121676L141.415200 165.662801
L141.772320 153.081135L141.906240 178.495687L142.040160 165.777812
L142.218720 176.470959L142.352640 164.763007L142.486560 178.294390
L142.709760 156.145642L143.022240 181.912930L143.066880 177.149218
L143.334720 177.188297L143.424000 159.746541L143.647200 177.039689
L143.781120 163.527070L144.048960 156.539388L144.093600 165.086932
L144.272160 173.779342L144.272160 173.779342L144.406080 166.355599
L144.406080 166.355599L144.584640 173.205883L144.673920 163.529762
L144.852480 178.437386L144.941760 164.776753L145.120320 168.210305
L145.120320 168.210305L145.432800 178.021251L145.968480 147.237270
L146.280960 140.362014L146.280960 140.362014L146.370240 166.800501
L146.638080 155.555059L146.861280 158.961105L146.861280 158.961105
L146.995200 155.627704L147.039840 157.092877L147.307680 146.334771
L147.352320 158.969213L147.575520 149.421212L147.664800 150.267273
L147.888000 147.704865L147.932640 150.965713L148.066560 169.039202
L148.200480 158.662115L148.334400 135.704519L148.512960 149.461582
L148.825440 172.185346L148.870080 161.686768L149.093280 165.973609
L149.271840 145.356021L149.361120 168.142513L149.628960 159.692368
L149.673600 162.904029L149.896800 167.361809L149.986080 157.147834
L150.164640 166.499954L150.253920 157.120242L150.387840 170.080318
L150.566400 155.065469L150.744960 160.082937L150.878880 152.455392
L151.146720 151.669310L151.146720 151.669310L151.280640 160.398751
L151.459200 152.160224L151.637760 145.863772L151.682400 155.432922
L151.860960 170.383191L152.039520 147.428361L152.307360 131.260964
L152.352000 160.495618L152.441280 146.449220L152.709120 152.429731
L152.887680 171.476037L153.021600 158.435678L153.244800 130.307469
L153.378720 149.680626L153.780480 169.519768L153.959040 143.769108
L154.137600 144.172604L154.316160 142.254159L154.539360 167.097151
L154.717920 163.203720L154.851840 172.182588L154.985760 146.303941
L155.208960 164.374503L155.298240 171.804920L155.521440 163.422738
L155.789280 150.605041L155.878560 175.785172L156.057120 155.264131
L156.235680 162.907688L156.369600 162.703259L156.369600 162.703259
L156.503520 177.780360L156.682080 161.358748L156.949920 149.749016
L157.039200 166.604757L157.262400 146.427659L157.351680 161.807140
L157.396320 164.127905L157.440960 140.582319L157.664160 158.001298
L157.753440 156.432509L158.065920 167.293840L158.065920 167.293840
L158.199840 199.381697L158.199840 199.381697L158.423040 146.064667
L158.512320 147.877786L158.914080 166.512774L159.271200 147.798073
L159.449760 161.791843L159.539040 155.104874L159.672960 162.892929
L159.806880 154.903717L159.851520 159.379862L160.074720 162.976346
L160.119360 149.272708L160.565760 165.984625L160.788960 170.231650
L160.922880 153.219434L161.101440 169.072419L161.146080 160.371768
L161.324640 143.705346L161.503200 145.701653L161.681760 145.657943
L161.815680 160.327074L162.038880 160.770627L162.128160 155.357691
L162.396000 167.563130L162.440640 160.500809L162.708480 165.142396
L162.753120 145.797311L162.931680 172.005196L163.065600 151.704991
L163.244160 170.419594L163.378080 156.029010L163.690560 150.139421
L163.824480 161.136054L163.869120 150.565679L164.047680 160.567227
L164.181600 149.146847L164.270880 155.551283L164.270880 155.551283
L164.404800 152.438689L164.583360 159.959178L164.672640 144.242761
L164.806560 148.991063L165.074400 147.299952L165.119040 157.919671
L165.342240 147.914547L165.431520 154.904748L165.654720 154.000295
L165.654720 154.000295L165.744000 148.697785L165.788640 170.473080
L165.967200 158.607485L166.279680 163.370747L166.279680 163.370747
L166.547520 164.729743L166.636800 155.468523L166.860000 168.765662
L166.904640 162.550908L167.172480 163.788476L167.217120 137.483026
L167.484960 115.249407L167.574240 148.574138L167.752800 145.060826
L167.931360 162.693189L167.976000 163.760286L168.199200 164.268445
L168.288480 158.805900L168.556320 145.737760L168.645600 145.851568
L169.002720 170.349286L169.047360 165.339883L169.538400 127.433980
L169.850880 241.162255L170.029440 232.246367L170.297280 234.801796
L170.297280 234.801796L170.431200 232.116447L170.431200 232.116447
L170.699040 237.125502L170.743680 231.387905L171.011520 233.918103
L171.056160 230.405284L171.234720 225.385870L171.234720 225.385870
L171.368640 232.526467L171.457920 230.900941L171.681120 227.443961
L171.770400 232.009367L171.948960 268.082996L171.948960 268.082996
L172.216800 220.196040L172.216800 220.196040L172.573920 240.928506
L172.663200 229.386753L172.797120 232.995718L172.931040 224.715680
L173.109600 191.617177L173.243520 234.384324L173.422080 240.189594
L173.466720 232.981950L173.734560 239.385138L173.779200 235.498692
L174.002400 223.559391L174.091680 231.811349L174.270240 231.430195
L174.270240 231.430195L174.538080 220.778901L174.627360 226.858005
L174.672000 237.446180L174.939840 226.857992L175.207680 237.499852
L175.252320 229.525933L175.341600 232.328127L175.386240 231.264076
L175.654080 239.318340L175.743360 226.064956L175.832640 233.104390
L175.921920 228.801607L175.966560 233.881744L176.145120 236.772044
L176.279040 231.002556L176.502240 221.067032L176.546880 233.559171
L176.725440 230.292964L176.770080 231.579618L177.082560 233.565751
L177.082560 233.565751L177.261120 213.066636L177.395040 229.836718
L177.573600 222.841107L177.707520 226.063107L178.064640 235.539336
L178.243200 221.384586L178.466400 232.189375L178.734240 224.002048
L178.734240 224.002048L178.912800 233.631896L179.046720 238.238222
L179.180640 225.483983L179.448480 238.985001L179.537760 234.841090
L179.805600 219.752836L179.850240 229.535664L179.894880 241.633359
L180.162720 230.664072L180.385920 234.833748L180.475200 231.326552
L180.743040 227.185787L180.743040 227.185787L181.055520 226.033803
L181.100160 234.295044L181.278720 223.804477L181.323360 225.331086
L181.546560 219.959109L181.635840 229.324796L181.859040 170.645048
L181.903680 224.008461L182.171520 223.793336L182.216160 228.977772
L182.394720 238.162170L182.528640 232.881471L182.707200 233.861161
L182.751840 227.517003L182.975040 219.958917L183.064320 228.338015
L183.242880 239.958878L183.466080 233.116706L183.689280 239.871761
L183.733920 235.051837L183.867840 226.741747L183.912480 231.322958
L184.135680 234.410766L184.180320 231.365767L184.314240 220.214583
L184.358880 232.826292L184.448160 222.236104L184.582080 228.191662
L184.760640 207.471927L184.760640 207.471927L184.983840 231.802677
L185.028480 223.003331L185.162400 238.699587L185.385600 229.740687
L185.608800 232.050971L185.608800 232.050971L185.832000 229.622383
L185.921280 231.047657L186.144480 238.996682L186.233760 234.032574
L186.412320 234.440924L186.546240 227.893573L186.635520 234.266738
L186.724800 230.729088L187.037280 233.778275L187.037280 233.778275
L187.126560 236.555742L187.394400 220.611807L187.439040 232.731911
L187.617600 232.589467L187.617600 232.589467L187.930080 233.885191
L187.930080 233.885191L188.287200 223.856978L188.510400 239.993820
L188.599680 229.821643L188.733600 233.264567L188.867520 227.324079
L188.912160 238.784177L189.180000 229.805396L189.358560 240.385908
L189.492480 231.414270L189.626400 221.793342L189.804960 228.856229
L189.894240 239.538401L190.117440 233.170073L190.429920 219.993458
L190.474560 223.766917L190.563840 215.745688L190.563840 215.745688
L190.787040 237.828969L190.787040 237.828969L191.188800 226.015639
L191.233440 227.102823L191.501280 225.714099L191.590560 231.327483
L191.858400 240.429561L191.903040 231.583100L192.215520 226.159316
L192.260160 239.172936L192.528000 228.468822L192.751200 239.414253
L192.840480 223.137005L193.152960 239.161265L193.242240 239.102619
L193.331520 225.030588L193.420800 229.172332L193.733280 239.302540
L193.733280 239.302540L193.867200 223.949480L194.045760 224.903464
L194.135040 238.322416L194.402880 228.990983L194.581440 241.776025
L194.715360 230.353939L194.983200 232.412926L194.983200 232.412926
L195.117120 274.479810L195.295680 228.384714L195.384960 231.993454
L195.652800 239.885757L195.742080 228.282494L196.054560 240.906800
L196.099200 235.874013L196.411680 215.279076L196.634880 239.607040
L196.679520 235.124320L196.902720 225.992212L196.947360 231.024331
L197.125920 240.871223L197.259840 221.832421L197.527680 349.102799
L197.616960 233.356306L197.706240 221.788612L197.929440 223.783158
L198.063360 238.186764L198.331200 233.608028L198.599040 238.692681
L198.688320 227.993625L199.045440 238.734188L199.447200 201.969253
L199.491840 214.409834L199.581120 235.516257L199.848960 233.267731
L199.982880 240.822107L200.161440 223.833089L200.429280 239.986679
L200.518560 239.101379L200.741760 221.135082L200.831040 234.584789
L201.054240 228.486426L201.098880 231.351442L201.366720 232.475195
L201.366720 232.475195L201.634560 228.633667L201.679200 231.411725
L201.813120 239.730203L201.991680 233.042864L202.214880 222.993961
L202.348800 268.715638L202.482720 227.631784L202.616640 232.412717
L202.750560 233.608901L202.884480 230.446385L202.973760 239.640170
L203.107680 231.460487L203.420160 233.023602L203.420160 233.023602
L203.598720 229.221222L203.777280 224.070879L203.955840 232.274192
L204.179040 224.712984L204.223680 220.974558L204.268320 224.533760
L204.312960 241.773459L204.491520 228.048307L204.670080 228.695564
L204.670080 228.695564L204.848640 240.132280L204.937920 230.237973
L205.027200 231.375729L205.339680 189.828058L205.384320 222.227016
L205.473600 347.186537L205.652160 233.233074L205.920000 234.058505
L206.009280 229.070821L206.366400 237.856012L206.455680 222.845012
L206.723520 228.251382L206.812800 239.994816L207.036000 233.721925
L207.348480 203.477562L207.393120 214.246912L207.750240 239.956625
L208.018080 222.293283L208.152000 232.934162L208.330560 211.666427
L208.509120 219.079294L208.776960 240.027175L208.821600 233.900229
L209.089440 222.886629L209.134080 225.885653L209.178720 239.955690
L209.446560 231.327300L209.669760 236.556113L209.759040 225.152803
L210.026880 235.876748L210.160800 232.867328L210.250080 217.460138
L210.517920 227.707144L210.696480 221.531419L210.785760 230.499881
L211.008960 233.482280L211.053600 231.237271L211.187520 210.992943
L211.321440 234.361713L211.366080 229.281732L211.455360 226.895610
L211.500000 229.121037L211.678560 219.645264L211.812480 228.758636
L211.946400 233.445566L212.124960 226.652783L212.392800 236.315666
L212.749920 220.735301L212.794560 225.610972L212.839200 234.883932
L213.151680 233.644528L213.464160 234.426109L213.553440 226.532093
L213.865920 234.672269L213.910560 230.683492L214.133760 189.863056
L214.267680 228.752662L214.490880 223.363500L214.535520 226.417479
L214.624800 224.554144L214.848000 235.147033L214.937280 232.427433
L215.249760 234.142911L215.249760 234.142911L215.383680 222.929747
L215.606880 224.541260L215.830080 220.725400L215.919360 232.437594
L216.008640 235.559869L216.231840 227.410312L216.588960 238.318692
L216.990720 191.907846L217.080000 348.472623L217.303200 232.611454
L217.571040 235.303844L217.660320 227.948405L217.838880 224.195515
L217.838880 224.195515L217.883520 222.439062L217.972800 235.325697
L218.151360 224.911207L218.419200 229.383736L218.419200 229.383736
L218.687040 227.518081L218.731680 229.741641L218.820960 222.071842
L218.910240 229.186318L218.999520 226.507916L219.222720 229.921375
L219.401280 233.310041L219.579840 223.539188L219.847680 234.234441
L219.892320 192.176522L220.160160 228.491511L220.383360 227.706384
L220.383360 227.706384L220.651200 235.442642L220.651200 235.442642
L220.785120 233.655417L220.829760 237.412039L220.963680 242.648639
L221.142240 239.732877L221.410080 227.093220L221.454720 238.080879
L221.767200 227.359278L221.811840 236.297688L221.901120 235.294047
L221.901120 235.294047L222.079680 244.282964L222.213600 239.021297
L222.481440 239.639025L222.481440 239.639025L222.615360 234.807282
L222.883200 199.748445L222.972480 226.199701L223.240320 223.618244
L223.329600 241.028866L223.508160 241.965548L223.686720 233.282933
L224.043840 239.712756L224.177760 240.149450L224.400960 230.720227
L224.758080 244.269175L224.802720 227.811189L225.115200 232.844460
L225.516960 240.853725L225.695520 231.695113L225.829440 233.684125
L226.097280 241.773079L226.141920 238.100898L226.231200 229.588990
L226.454400 236.511518L226.632960 235.023392L226.766880 239.056739
L227.124000 225.958846L227.391840 240.204867L227.436480 239.113441
L227.748960 230.895239L227.882880 229.689333L228.061440 239.375639
L228.463200 227.290333L228.731040 242.714174L228.820320 233.927393
L228.909600 230.731749L228.909600 230.731749L229.132800 241.904530
L229.222080 228.124421L229.356000 243.686200L229.623840 241.218691
L229.891680 243.003715L229.936320 231.660654L230.025600 221.206531
L230.293440 237.727539L230.605920 233.981032L230.784480 230.241394
L230.918400 238.367105L231.186240 239.300147L231.230880 231.212835
L231.454080 228.120268L231.588000 238.503109L231.766560 241.430058
L231.900480 234.956393L231.989760 231.394789L231.989760 231.394789
L232.257600 239.717817L232.302240 232.736723L232.346880 241.836157
L232.614720 235.120026L232.971840 225.000623L233.239680 242.745908
L233.328960 236.034981L233.462880 238.619192L233.686080 238.944671
L233.686080 238.944671L233.864640 233.689398L234.043200 227.319219
L234.132480 241.237034L234.489600 224.968268L234.578880 244.159939
L234.846720 234.751617L235.025280 215.131596L235.159200 238.697768
L235.516320 228.597623L235.828800 242.616535L235.873440 240.661243
L236.185920 230.301300L236.275200 239.851811L236.543040 235.416927
L236.855520 228.213102L237.168000 243.076414L237.212640 237.550625
L237.391200 240.200765L237.525120 228.983047L237.569760 241.062735
L237.792960 236.984430L238.060800 209.463391L238.150080 223.972346
L238.194720 239.037363L238.462560 224.688082L238.685760 263.048910
L238.908960 225.003636L238.998240 235.823283L239.132160 227.842435
L239.355360 234.176145L239.578560 226.446140L239.623200 236.098452
L239.846400 229.568811L239.846400 229.568811L240.024960 237.715487
L240.069600 235.700706L240.203520 236.414035L240.203520 236.414035
L240.292800 239.649032L240.471360 239.867680L240.605280 234.414449
L240.783840 224.789278L240.783840 224.789278L240.917760 238.392869
L241.007040 234.019649L241.051680 235.375595L241.096320 210.997215
L241.364160 225.492690L241.587360 240.185112L241.721280 230.478221
L241.989120 241.173837L242.123040 235.340225L242.167680 227.933125
L242.435520 234.983717L242.614080 231.365527L242.658720 232.407390
L242.926560 238.752539L242.971200 232.089574L243.194400 233.266208
L243.194400 233.266208L243.328320 222.016492L243.372960 239.163449
L243.596160 222.305863L243.685440 236.056300L243.908640 241.074885
L243.953280 217.748913L244.265760 226.972491L244.488960 214.380313
L244.622880 235.709263L244.890720 230.593658L244.935360 233.355719
L245.247840 241.385244L245.381760 224.025722L245.604960 227.093380
L245.738880 224.515096L245.872800 233.288608L246.006720 236.145054
L246.096000 235.215418L246.274560 233.865712L246.274560 233.865712
L246.453120 222.263916L246.542400 235.342966L246.720960 225.070520
L246.765600 229.630293L246.854880 235.543855L246.944160 229.039471
L247.167360 238.107583L247.301280 232.673353L247.524480 221.680655
L247.569120 228.658557L248.015520 358.292862L248.060160 345.592045
L248.328000 224.216061L248.417280 226.556447L248.551200 227.554892
L248.551200 227.554892L248.640480 240.218391L248.908320 232.349597
L249.086880 235.645636L249.176160 233.270068L249.310080 227.443200
L249.310080 227.443200L249.444000 242.662843L249.622560 221.788305
L249.845760 240.763443L249.935040 234.385268L250.202880 235.674444
L250.292160 227.830599L250.426080 238.383810L250.560000 231.585078
L250.649280 233.886599L250.693920 231.704693L250.872480 238.574138
L250.961760 230.744199L251.229600 218.786908L251.318880 240.831449
L251.452800 231.501082L251.452800 231.501082L251.542080 239.185349
L251.765280 238.128427L252.122400 222.131804L252.167040 227.959399
L252.211680 239.430151L252.479520 235.301134L252.792000 237.599968
L252.792000 237.599968L252.881280 231.400262L253.193760 231.985741
L253.193760 231.985741L253.327680 238.413149L253.461600 231.207927
L253.684800 238.073353L253.818720 233.305278L253.997280 219.895184
L254.086560 236.308441L254.488320 221.552569L254.622240 238.775366
L254.845440 238.475012L255.024000 239.731272L255.157920 230.690508
L255.291840 238.722673L255.336480 222.179265L255.604320 233.395916
L255.827520 228.457428L255.872160 230.698234L256.050720 210.249102
L256.140000 234.729950L256.229280 227.482409L256.452480 229.026979
L256.675680 222.993089L256.764960 225.753856L256.988160 242.703298
L257.032800 234.963415L257.211360 224.892256L257.300640 234.051364
L257.479200 231.434781L257.479200 231.434781L257.568480 235.384980
L257.747040 235.172951L257.970240 223.962183L258.014880 240.171415
L258.104160 215.647492L258.327360 236.804291L258.684480 227.809416
L258.952320 222.003199L258.996960 231.647291L259.309440 239.634085
L259.309440 239.634085L259.443360 230.348796L259.443360 230.348796
L259.666560 235.569667L259.711200 228.297768L260.023680 225.492772
L260.068320 233.072582L260.157600 230.056839L260.202240 231.607385
L260.380800 223.955086L260.470080 226.548271L260.604000 239.692934
L260.693280 234.074837L260.916480 226.599831L261.005760 234.662769
L261.228960 229.256657L261.318240 239.039145L261.675360 221.469349
L261.943200 236.207511L262.077120 236.462607L262.255680 229.305622
L262.568160 239.965418L262.612800 233.594978L262.657440 229.116114
L262.746720 358.785392L262.969920 232.413136L263.059200 233.863340
L263.148480 241.499828L263.327040 231.238299L263.639520 241.584314
L263.728800 238.247711L263.907360 221.147150L264.041280 233.839857
L264.264480 231.973211L264.264480 231.973211L264.443040 229.960508
L264.666240 222.931133L264.755520 237.062223L265.112640 205.421214
L265.157280 225.417490L265.559040 243.407411L265.916160 218.605079
L265.960800 231.652351L266.139360 224.410040L266.317920 236.657147
L266.451840 240.403699L266.630400 234.235549L266.853600 234.789468
L266.853600 234.789468L267.032160 231.668491L267.032160 231.668491
L267.300000 234.935677L267.300000 234.935677L267.389280 266.866894
L267.567840 222.041766L267.701760 230.851724L267.924960 229.562577
L267.969600 234.161868L268.103520 225.189022L268.237440 237.989534
L268.416000 235.795534L268.639200 224.100315L268.728480 226.119390
L268.951680 221.749920L268.996320 233.004881L269.174880 227.765475
L269.398080 222.660323L269.442720 231.699848L269.621280 234.347872
L269.710560 226.814379L269.799840 265.526096L270.023040 211.520810
L270.112320 231.673496L270.335520 238.209669L270.380160 233.407196
L270.603360 236.559802L270.692640 228.496194L270.915840 240.242989
L271.005120 231.050874L271.183680 207.333309L271.317600 227.667104
L271.674720 236.293906L271.808640 232.807738L271.808640 232.807738
L272.031840 223.157523L272.076480 226.006798L272.299680 219.406579
L272.388960 232.571574L272.612160 243.221415L272.746080 229.868753
L273.058560 239.090653L273.103200 235.177456L273.371040 223.748436
L273.415680 227.845261L273.638880 224.147172L273.772800 236.882355
L273.862080 235.063905L273.996000 235.300792L274.174560 201.276680
L274.308480 223.927859L274.531680 239.981208L274.620960 230.269530
L274.844160 237.173970L274.844160 237.173970L275.201280 223.621225
L275.379840 237.030814L275.379840 237.030814L275.513760 233.858191
L275.692320 222.264164L275.826240 235.256756L275.960160 239.497271
L276.138720 235.787890L276.228000 238.872722L276.451200 239.062698
L276.540480 232.154815L276.763680 221.875973L276.852960 237.662303
L277.031520 224.169662L277.165440 233.254553L277.433280 242.013688
L277.477920 233.900486L277.701120 241.522180L277.701120 241.522180
L278.102880 226.907464L278.415360 238.629655L278.683200 242.930878
L278.727840 232.433358L278.995680 223.958224L278.995680 223.958224
L279.174240 236.629473L279.308160 225.863854L279.576000 232.915161
L279.620640 227.368650L279.933120 216.970151L279.977760 220.427851
L280.156320 183.644470L280.290240 226.120198L280.513440 232.895758
L280.513440 232.895758L280.647360 221.897487L280.915200 225.587868
L280.959840 224.146183L281.227680 216.787326L281.272320 225.143215
L281.450880 230.533644L281.495520 228.169619L281.718720 233.365644
L281.763360 207.497244L281.941920 227.606833L282.120480 225.544455
L282.120480 225.544455L282.343680 231.689076L282.388320 227.653479
L282.611520 214.403626L282.700800 224.326256L283.013280 195.816504
L283.057920 210.096899L283.191840 231.424258L283.459680 228.330829
L283.682880 233.988108L283.772160 224.479467L283.861440 223.262250
L284.084640 232.409224L284.173920 228.692931L284.263200 215.913211
L284.441760 218.666300L284.709600 215.805935L284.754240 224.672901
L285.022080 232.482241L285.066720 226.691384L285.289920 229.722692
L285.334560 227.472160L285.557760 222.616938L285.602400 225.793904
L285.825600 204.772612L285.914880 224.792418L286.004160 216.835434
L286.182720 229.711982L286.495200 215.830721L286.539840 225.746460
L286.852320 223.960784L286.852320 223.960784L287.120160 231.056863
L287.164800 229.089120L287.477280 212.477846L287.521920 223.406752
L287.745120 211.317805L287.789760 221.388342L288.012960 225.236106
L288.057600 223.293711L288.325440 227.344614L288.637920 188.851902
L288.682560 209.692403L288.816480 229.474464L288.995040 219.346771
L289.173600 228.560311L289.173600 228.560311L289.307520 226.799657
L289.307520 226.799657L289.620000 227.465345L289.620000 227.465345
L289.932480 227.895269L289.977120 225.567124L290.111040 227.981427
L290.289600 228.262998L290.423520 227.254898L290.512800 224.434260
L290.557440 227.255246L290.780640 212.950151L290.914560 223.177663
L291.048480 229.406355L291.093120 220.372447L291.227040 226.609527
L291.316320 217.136748L291.494880 228.456258L291.628800 224.576047
L291.896640 214.605338L291.941280 220.363414L292.119840 220.280273
L292.164480 224.570951L292.298400 230.192677L292.432320 215.298644
L292.476960 232.767631L292.744800 224.273902L293.012640 226.188966
L293.012640 226.188966L293.146560 218.649821L293.235840 220.788415
L293.459040 232.628466L293.548320 220.175261L293.816160 215.733879
L293.905440 227.986762L294.217920 180.442979L294.262560 218.951908
L294.575040 226.845801L294.842880 211.866274L294.932160 224.115379
L295.155360 220.025158L295.244640 228.020450L295.467840 235.137460
L295.557120 222.231250L295.691040 220.944192L295.691040 220.944192
L295.914240 233.254071L296.003520 221.547932L296.137440 214.351989
L296.182080 215.781220L296.271360 267.785985L296.539200 211.118331
L296.539200 211.118331L296.807040 229.896090L296.851680 223.591002
L297.164160 225.202378L297.164160 225.202378L297.432000 210.803623
L297.476640 223.086239L297.610560 222.597834L297.655200 226.684680
L297.789120 213.800898L297.967680 225.894208L298.056960 227.857339
L298.146240 212.003685L298.369440 227.544353L298.548000 206.675425
L298.637280 223.947793L298.815840 109.123980L298.860480 318.777675
L299.128320 228.003286L299.396160 232.961443L299.485440 221.775771
L299.708640 262.449405L299.887200 193.282533L299.976480 212.846743
L300.065760 215.980528L300.155040 235.257160L300.378240 221.859737
L300.556800 229.083234L300.556800 229.083234L300.780000 218.842372
L300.824640 224.952537L300.958560 225.820146L301.137120 220.508022
L301.226400 220.212624L301.226400 220.212624L301.404960 229.544511
L301.583520 216.652817L301.717440 211.599581L301.940640 223.568448
L302.208480 226.928691L302.253120 217.051430L302.342400 348.686232
L302.565600 221.595078L302.699520 228.788824L302.699520 228.788824
L302.744160 174.025316L303.012000 226.666570L303.369120 207.499687
L303.413760 227.942238L303.726240 227.009075L304.038720 227.898470
L304.038720 227.898470L304.128000 220.187549L304.128000 220.187549
L304.395840 228.536614L304.440480 221.282580L304.797600 233.160757
L304.842240 214.184889L305.110080 217.880623L305.422560 228.024143
L305.467200 222.686809L305.645760 227.823088L305.779680 222.605369
L305.868960 214.228212L306.092160 226.855750L306.404640 214.533198
L306.449280 231.108593L306.717120 230.771609L306.940320 232.510597
L307.074240 214.624674L307.386720 228.127828L307.609920 215.351406
L307.699200 221.974674L307.877760 220.937857L308.056320 227.405420
L308.279520 183.776345L308.413440 218.157367L308.502720 227.526844
L308.681280 219.440005L308.815200 224.416986L308.859840 218.394509
L309.172320 216.036618L309.172320 216.036618L309.306240 213.164302
L309.440160 233.391376L309.663360 228.556395L309.797280 211.822795
L309.975840 220.556779L310.154400 218.400395L310.332960 227.102486
L310.600800 228.060101L310.690080 219.439824L311.091840 233.258769
L311.136480 192.659694L311.404320 221.205719L311.582880 228.389548
L311.672160 221.852626L311.850720 204.860869L311.940000 223.382619
L312.252480 228.789122L312.475680 235.710423L312.609600 214.109842
L312.922080 229.496529L312.966720 222.598536L313.189920 227.389814
L313.234560 223.624370L313.457760 218.209032L313.547040 227.527944
L313.948800 183.373772L314.082720 229.569075L314.305920 226.233454
L314.484480 232.380388L314.707680 215.032212L314.930880 231.285907
L315.020160 224.536650L315.288000 228.639918L315.288000 228.639918
L315.377280 218.681059L315.466560 228.039240L315.734400 230.502437
L315.734400 230.502437L315.868320 259.849905L316.002240 215.352108
L316.091520 222.406016L316.359360 223.540970L316.359360 223.540970
L316.493280 219.846971L316.537920 224.399948L316.761120 184.120921
L316.850400 210.848208L317.162880 228.026882L317.207520 223.441323
L317.475360 228.761917L317.520000 225.255084L317.787840 210.937865
L317.832480 219.357705L318.011040 217.230718L318.144960 223.876708
L318.368160 233.582523L318.457440 217.485881L318.725280 231.434576
L318.814560 225.729027L319.082400 211.511568L319.127040 224.129406
L319.216320 228.671793L319.260960 224.641402L319.528800 181.544062
L319.618080 209.938926L319.930560 231.342359L319.975200 227.780746
L320.287680 209.566012L320.332320 233.501622L320.600160 228.922222
L320.868000 211.498480L320.912640 222.988684L321.046560 213.475895
L321.225120 225.600472L321.403680 213.402151L321.582240 217.753907
L321.850080 212.787933L321.894720 221.358306L322.028640 209.806215
L322.296480 185.545488L322.385760 233.709987L322.519680 214.698246
L322.787520 216.357173L323.100000 214.978199L323.144640 229.079498
L323.233920 232.269492L323.457120 219.793355L323.501760 232.946029
L323.814240 228.189809L323.992800 212.293334L324.126720 223.913393
L324.305280 212.584396L324.483840 226.588452L324.885600 209.255210
L324.974880 232.364452L325.064160 227.097117L325.287360 216.247141
L325.376640 223.126127L325.510560 216.400794L325.644480 221.158341
L325.778400 227.236536L325.823040 222.162588L325.867680 210.984560
L326.090880 218.429782L326.135520 233.772355L326.403360 227.140157
L326.626560 231.024426L326.715840 223.018374L326.939040 214.262129
L326.939040 214.262129L327.206880 231.109904L327.251520 216.236460
L327.430080 227.010144L327.608640 226.888914L327.876480 186.907627
L327.921120 225.324616L328.099680 215.338396L328.233600 224.247243
L328.367520 219.691293L328.367520 219.691293L328.635360 228.225250
L328.635360 228.225250L328.769280 220.298098L328.769280 220.298098
L328.947840 216.507781L328.992480 218.786711L329.126400 230.906147
L329.215680 219.320142L329.483520 225.558942L329.528160 223.343041
L329.617440 225.215521L329.706720 223.577308L329.796000 211.780621
L329.885280 225.053359L330.331680 215.687971L330.420960 226.904926
L330.554880 220.947046L330.688800 225.927509L330.822720 219.811020
L330.956640 223.961989L331.045920 216.394379L331.358400 216.171014
L331.403040 220.002839L331.536960 231.166861L331.715520 220.084925
L331.983360 231.746307L332.028000 213.845303L332.295840 222.278766
L332.608320 227.836234L332.652960 210.800636L332.965440 217.672836
L333.188640 217.499299L333.277920 224.825192L333.545760 224.935611
L333.545760 224.935611L333.768960 215.578876L333.858240 221.966168
L334.126080 220.460158L334.170720 222.046348L334.349280 227.837934
L334.483200 218.559138L334.795680 216.349488L334.795680 216.349488
L335.108160 229.198479L335.331360 231.580285L335.465280 216.930776
L335.554560 229.893332L335.822400 221.591208L335.956320 216.422708
L336.090240 222.942732L336.224160 229.022001L336.402720 226.454279
L336.715200 211.979542L336.804480 216.286917L337.027680 228.441328
L337.072320 221.113072L337.206240 230.827046L337.384800 222.366784
L337.518720 217.644186L337.518720 217.644186L337.741920 226.993940
L337.786560 221.127296L338.099040 216.519037L338.277600 215.740722
L338.456160 225.554570L338.545440 215.199660L338.768640 219.475107
L338.857920 208.971604L338.857920 208.971604L339.081120 227.996480
L339.170400 216.798474L339.527520 228.850214L339.572160 211.423789
L339.840000 227.343862L339.973920 216.550245L340.152480 223.415829
L340.331040 230.239407L340.643520 230.624861L340.643520 230.624861
L340.911360 214.409892L341.000640 222.935263L341.223840 219.814104
L341.268480 222.192610L341.447040 224.770391L341.536320 222.541249
L341.670240 215.973972L341.670240 215.973972L341.759520 226.753305
L341.982720 218.721066L342.250560 227.392803L342.295200 223.435076
L342.473760 211.804580L342.652320 220.653824L342.830880 220.486514
L342.830880 220.486514L343.054080 226.276969L343.054080 226.276969
L343.188000 219.569992L343.366560 225.352813L343.545120 226.411682
L343.723680 217.084147L343.902240 226.955987L344.036160 222.540785
L344.125440 229.177737L344.304000 222.070717L344.437920 207.920492
L344.661120 225.551723L344.795040 218.130218L344.884320 227.266357
L345.018240 215.754831L345.196800 223.265663L345.330720 211.709862
L345.553920 228.406224L345.777120 214.271242L345.911040 217.421114
L346.134240 210.229614L346.223520 215.397248L346.446720 225.684038
L346.491360 223.687097L346.669920 230.481882L346.714560 224.581693
L346.937760 223.781406L346.937760 223.781406L347.250240 182.585869
L347.562720 225.886322L347.607360 219.376099L347.830560 212.785862
L347.964480 228.250520L348.276960 211.339258L348.366240 216.374812
L348.500160 230.922861L348.544800 225.024802L348.634080 208.472160
L348.857280 220.603874L349.125120 213.354387L349.169760 219.262972
L349.571520 227.126197L349.973280 198.026372L350.017920 226.807577
L350.330400 225.061705L350.464320 231.424942L350.598240 223.185484
L350.687520 218.243866L350.866080 221.393226L350.955360 224.232633
L351.044640 228.833599L351.267840 222.061040L351.491040 219.895357
L351.491040 219.895357L351.758880 225.384841L351.803520 221.440202
L351.982080 210.456922L352.116000 220.996365L352.294560 220.313012
L352.428480 225.877419L352.785600 173.637438L352.830240 201.392365
L352.964160 226.290296L353.142720 222.562378L353.321280 230.972630
L353.499840 216.173346L353.767680 213.500184L353.812320 225.598859
L354.080160 226.062416L354.124800 224.052372L354.303360 220.412746
L354.660480 232.190148L355.017600 211.648712L355.062240 221.269266
L355.285440 213.732572L355.330080 215.808643L355.508640 201.180577
L355.642560 209.738417L355.776480 228.139455L355.999680 216.348095
L356.222880 226.564571L356.401440 223.570474L356.669280 225.053785
L356.758560 218.121075L356.937120 223.042224L357.026400 219.148012
L357.071040 220.355217L357.338880 219.544525L357.338880 219.544525
L357.562080 222.667415L357.562080 222.667415L357.740640 220.653513
L357.740640 220.653513L358.142400 196.615043L358.320960 180.042305
L358.454880 219.935714L358.678080 227.258421L358.722720 219.611533
L358.856640 223.034640L358.945920 222.905364L359.124480 221.160225
L359.169120 223.192843L359.303040 228.324450L359.481600 219.288209
L359.660160 210.576277L359.749440 214.951722L359.928000 229.471332
L360.017280 219.821990L360.106560 221.582356L360.329760 220.923824
L360.463680 217.863886L360.552960 221.821578L360.820800 212.828634
L360.865440 216.211453L360.999360 215.324741L360.999360 215.324741
L361.311840 225.192865L361.311840 225.192865L361.445760 225.507888
L361.713600 216.600573L362.026080 225.425555L362.160000 226.380053
L362.383200 212.087827L362.606400 228.160562L362.740320 222.952599
L363.052800 225.631585L363.052800 225.631585L363.186720 217.180991
L363.186720 217.180991L363.409920 225.418721L363.409920 225.418721
L363.811680 207.189587L363.900960 219.102382L364.258080 225.085824
L364.570560 225.584209L364.570560 225.584209L364.927680 210.638476
L364.972320 216.269533L365.106240 223.126946L365.418720 225.306042
L365.418720 225.306042L365.597280 217.488832L365.775840 220.789543
L366.043680 215.393476L366.088320 219.934745L366.266880 225.402696
L366.311520 211.616736L366.534720 222.852287L366.624000 207.229113
L366.847200 221.727726L367.070400 215.946307L367.070400 215.946307
L367.248960 209.945254L367.293600 213.837907L367.427520 227.579589
L367.650720 217.666110L367.740000 225.212793L367.829280 222.457283
L368.052480 225.211132L368.141760 214.228223L368.231040 222.825164
L368.231040 222.825164L368.364960 215.019215L368.454240 221.532177
L368.677440 225.667760L368.811360 213.263321L369.034560 211.557897
L369.168480 224.339566L369.347040 224.678809L369.570240 214.385154
L369.793440 225.075508L369.927360 222.036371L370.239840 222.919782
L370.239840 222.919782L370.373760 227.194816L370.418400 221.777421
L370.552320 227.487180L370.775520 212.926175L370.864800 225.114226
L371.132640 224.648882L371.177280 211.240634L371.445120 223.367788
L371.623680 215.979657L371.668320 221.920640L372.025440 172.984993
L372.070080 215.511250L372.159360 228.876708L372.382560 219.818297
L372.561120 228.730319L372.695040 213.770768L372.784320 216.282318
L372.828960 214.010178L373.052160 223.638045L373.096800 212.565410
L373.453920 225.430763L373.677120 213.346660L373.811040 223.451458
L373.944960 215.126289L374.078880 220.095306L374.212800 217.657431
L374.436000 221.390099L374.703840 213.195169L374.748480 329.559205
L375.016320 222.572994L375.194880 226.492405L375.239520 223.359418
L375.418080 209.644086L375.552000 220.003731L375.641280 216.415575
L375.775200 217.506365L376.043040 220.992663L376.043040 220.992663
L376.221600 258.628447L376.400160 213.375179L376.489440 221.005675
L376.712640 225.969093L376.712640 225.969093L376.801920 219.871308
L376.801920 219.871308L377.025120 224.145176L377.114400 222.228960
L377.516160 182.604741L377.828640 225.391905L377.873280 219.368369
L378.185760 224.329131L378.408960 208.787214L378.498240 217.192389
L378.766080 226.396868L378.810720 218.961462L379.033920 223.077434
L379.033920 223.077434L379.123200 219.272255L379.167840 224.241108
L379.301760 212.817951L379.480320 220.324845L379.614240 226.719210
L379.792800 221.239495L380.149920 213.529427L380.462400 229.620267
L380.507040 226.633440L380.640960 212.818288L380.819520 224.919917
L380.953440 221.719600L381.132000 212.206023L381.265920 219.406845
L381.489120 212.742480L381.533760 215.745198L381.801600 217.284053
L381.801600 217.284053L382.203360 229.753357L382.381920 214.196402
L382.560480 225.895841L382.739040 216.460961L382.828320 225.146710
L382.962240 175.666834L383.185440 215.936561L383.364000 225.522701
L383.453280 221.161223L383.676480 223.620562L383.721120 219.047913
L383.899680 225.243037L384.078240 220.709897L384.212160 224.998301
L384.256800 220.213169L384.480000 210.184291L384.613920 223.360857
L384.881760 225.530836L384.971040 219.438655L385.104960 212.218944
L385.194240 217.908762L385.372800 229.004548L385.506720 225.839748
L385.685280 171.244532L385.863840 216.719034L386.042400 228.515414
L386.176320 214.645725L386.265600 225.509748L386.533440 223.482443
L386.667360 224.569476L387.024480 205.043892L387.069120 206.313677
L387.203040 226.904879L387.426240 220.142010L387.694080 209.848104
L387.961920 230.007717L388.051200 217.852055L388.319040 223.254172
L388.586880 225.255349L388.720800 204.906246L389.077920 347.323725
L389.122560 329.999385L389.435040 215.972935L389.479680 220.658971
L389.613600 223.055005L389.792160 217.597910L389.926080 222.498960
L390.193920 226.826717L390.238560 221.321188L390.417120 213.175318
L390.551040 222.213471L390.684960 217.738830L390.729600 219.589734
L390.908160 228.202527L391.042080 217.835248L391.265280 229.470838
L391.309920 196.994601L391.577760 216.529524L391.845600 225.390187
L391.979520 222.096954L392.247360 222.924094L392.292000 217.870644
L392.470560 211.558362L392.604480 210.540699L392.738400 221.455773
L392.961600 215.037668L393.050880 221.561296L393.274080 216.081581
L393.274080 216.081581L393.497280 213.326667L393.541920 218.088923
L393.675840 228.347063L393.720480 221.556265L394.077600 189.333510
L394.256160 230.087012L394.434720 212.644326L394.791840 226.757368
L394.881120 224.663646L395.238240 214.873236L395.327520 218.476827
L395.327520 218.476827L395.550720 212.164905L395.640000 217.959280
L395.907840 226.500153L396.041760 222.788264L396.086400 214.875530
L396.354240 220.938095L396.488160 216.106618L396.488160 216.106618
L396.577440 226.107426L396.800640 207.421566L397.113120 225.599835
L397.202400 223.210205L397.514880 225.085958L397.514880 225.085958
L397.782720 228.296634L397.916640 213.749876L398.005920 223.627904
L398.273760 219.708606L398.363040 224.794360L398.541600 217.802514
L398.809440 260.296770L398.988000 212.553666L399.077280 226.244435
L399.434400 202.918962L399.479040 214.638638L399.568320 221.971791
L399.791520 228.652317L399.880800 222.706848L400.148640 224.907650
L400.237920 218.789230L400.505760 214.964334L400.505760 214.964334
L400.818240 224.624280L400.862880 221.777747L400.996800 223.823712
L401.220000 211.605499L401.264640 227.776748L401.577120 224.740656
L401.844960 226.774052L401.889600 224.419926L401.978880 217.070569
L402.023520 223.214568L402.291360 230.505772L402.291360 230.505772
L402.336000 242.011724L402.469920 213.203092L402.648480 217.331223
L402.827040 225.573524L402.871680 222.368572L403.228800 213.053339
L403.496640 227.732325L403.630560 221.094766L403.853760 215.091871
L403.898400 223.887270L403.987680 207.376178L404.255520 218.813154
L404.478720 210.729384L404.523360 221.359913L404.657280 225.469907
L404.880480 211.758827L405.014400 210.595596L405.103680 219.911296
L405.282240 255.067516L405.282240 255.067516L405.594720 214.754019
L405.594720 214.754019L405.728640 225.972850L405.862560 216.348045
L406.130400 214.219305L406.175040 224.905931L406.442880 159.304920
L406.487520 221.833646L406.755360 229.345234L406.933920 212.602493
L407.067840 214.620384L407.246400 227.576809L407.335680 222.201762
L407.558880 226.067913L407.648160 218.008374L407.871360 224.940180
L407.916000 223.135130L407.960640 213.299518L408.005280 348.350436
L408.273120 221.026810L408.496320 215.473312L408.540960 221.176637
L408.764160 228.359101L408.853440 219.959490L409.076640 225.584475
L409.165920 217.222586L409.433760 215.173295L409.433760 215.173295
L409.612320 223.219018L409.746240 218.473697L409.880160 213.552450
L410.192640 226.869770L410.237280 222.339799L410.505120 225.487692
L410.549760 220.084735L410.683680 215.120074L410.683680 215.120074
L410.951520 226.695804L410.996160 216.313988L411.308640 225.897625
L411.397920 225.687440L411.531840 228.914193L411.844320 207.306652
L412.290720 225.325835L412.558560 225.921733L412.647840 211.525409
L412.915680 203.515654L413.004960 222.449922L413.272800 233.160636
L413.451360 193.886311L413.629920 225.588199L413.853120 230.150527
L413.942400 219.650372L414.210240 235.268753L414.254880 231.405414
L414.567360 232.593308L414.567360 232.593308L414.701280 229.930065
L414.701280 229.930065L414.745920 207.903514L415.013760 223.049879
L415.192320 218.965820L415.281600 225.828104L415.460160 229.911283
L415.594080 221.052858L415.861920 236.109378L415.906560 230.289523
L415.995840 214.436711L416.219040 221.043719L416.308320 209.179791
L416.531520 219.104171L416.665440 230.009218L416.710080 217.779073
L416.977920 236.772824L417.067200 234.778673L417.156480 211.599188
L417.379680 217.635863L417.468960 234.623516L417.692160 218.720049
L417.826080 232.937214L417.826080 232.937214L417.960000 220.154084
L418.004640 227.948478L418.227840 234.799757L418.361760 224.542299
L418.540320 211.122649L418.629600 233.957290L418.852800 221.144805
L418.986720 229.804662L419.076000 226.327329L419.165280 203.004595
L419.299200 223.589901L419.522400 225.750637L419.522400 225.750637
L419.700960 219.205948L419.745600 228.384617L419.968800 236.214462
L420.147360 217.051972L420.370560 237.131837L420.504480 223.103709
L420.727680 231.451080L420.727680 231.451080L421.084800 220.254103
L421.352640 218.691187L421.441920 230.986140L421.754400 220.054953
L421.799040 225.413937L422.022240 198.341611L422.111520 220.036528
L422.424000 236.632504L422.468640 227.928820L422.736480 230.552274
L422.736480 230.552274L422.915040 224.113822L422.915040 224.113822
L423.182880 229.594524L423.227520 226.673491L423.450720 229.650809
L423.807840 211.011843L423.852480 229.881691L424.164960 229.435887
L424.254240 212.850029L424.432800 223.294175L424.745280 220.451393
L424.745280 220.451393L424.879200 196.201207L425.102400 213.452589
L425.191680 235.059369L425.459520 224.495520L425.772000 211.758086
L426.084480 208.738490L426.129120 219.372389L426.486240 234.417352
L426.530880 230.466097L426.843360 237.274622L426.843360 237.274622
L427.155840 215.086257L427.200480 232.083706L427.245120 235.423312
L427.289760 232.340037L427.334400 205.001232L427.602240 229.922328
L427.691520 206.427841L427.959360 218.929567L428.182560 230.151413
L428.271840 222.680493L428.450400 235.222330L428.495040 225.918703
L428.584320 229.282019L428.762880 223.896731L428.986080 218.401592
L429.075360 219.407333L429.477120 246.866981L429.655680 213.268224
L429.789600 235.588066L430.057440 212.885068L430.102080 229.548356
L430.236000 222.333753L430.280640 225.086278L430.593120 200.661127
L430.637760 232.374401L430.950240 222.698084L431.262720 222.286410
L431.262720 222.286410L431.441280 233.040030L431.530560 218.738906
L431.798400 235.478308L431.843040 230.254538L432.110880 212.279838
L432.155520 221.853008L432.378720 215.778896L432.423360 228.531819
L432.780480 212.397569L433.003680 234.725120L433.137600 225.896321
L433.360800 243.715837L433.360800 243.715837L433.494720 196.772032
L433.673280 223.335865L433.851840 227.033496L433.851840 227.033496
L434.208960 234.705509L434.342880 215.680314L434.610720 223.654247
L434.789280 219.774984L434.923200 227.300880L435.280320 212.018208
L435.503520 235.527294L435.637440 221.417170L435.860640 229.086686
L435.860640 229.086686L435.994560 221.512873L436.039200 230.284925
L436.307040 203.701660L436.351680 219.977668L436.753440 234.343178
L437.021280 216.065696L437.065920 223.483311L437.378400 218.425015
L437.378400 218.425015L437.512320 230.232097L437.512320 230.232097
L437.690880 217.467310L437.780160 221.196165L437.914080 235.693835
L438.092640 213.253955L438.360480 234.169775L438.449760 225.999074
L438.583680 230.689629L438.762240 230.584214L438.896160 217.391420
L438.985440 225.589290L439.297920 228.410485L439.297920 228.410485
L439.387200 215.522331L439.521120 225.481368L439.788960 215.964479
L439.788960 215.964479L439.922880 233.805761L440.190720 222.062502
L440.324640 235.358937L440.503200 214.801766L440.726400 235.490023
L440.860320 228.454657L441.038880 231.774674L441.172800 224.185601
L441.351360 218.684798L441.440640 225.794840L441.708480 229.981918
L441.753120 220.185343L441.976320 230.429982L442.110240 230.761844
L442.288800 229.878106L442.378080 225.679681L442.422720 226.760848
L442.690560 230.400573L442.690560 230.400573L442.869120 223.539372
L442.869120 223.539372L443.003040 231.403902L443.181600 225.318143
L443.315520 217.414837L443.404800 224.703044L443.583360 227.096808
L443.583360 227.096808L443.717280 219.141649L443.761920 228.301589
L444.029760 234.262621L444.119040 220.491245L444.297600 213.052069
L444.342240 219.516744L444.386880 229.580622L444.654720 220.104048
L444.744000 223.680226L444.744000 223.680226L444.833280 214.164086
L445.101120 230.252760L445.279680 224.012751L445.279680 224.012751
L445.547520 233.620092L445.547520 233.620092L445.993920 196.234656
L446.172480 359.062334L446.306400 228.161755L446.484960 229.837977
L446.618880 220.648858L446.886720 234.168039L446.976000 224.634211
L447.020640 223.419244L447.154560 228.975213L447.333120 226.240221
L447.511680 218.299564L447.645600 221.269866L447.734880 203.459383
L447.734880 203.459383L447.824160 223.991469L447.913440 217.439636
L448.225920 212.971568L448.270560 223.262907L448.538400 231.101454
L448.850880 209.707395L448.895520 221.218763L449.163360 212.818972
L449.163360 212.818972L449.431200 211.411344L449.431200 211.411344
L449.699040 228.472043L449.743680 221.242817L450.011520 206.193205
L450.056160 211.790657L450.279360 205.528467L450.368640 221.639581
L450.502560 179.567507L450.725760 213.082618L450.904320 204.936029
L450.993600 220.577807L451.082880 221.572029L451.306080 214.239257
L451.618560 213.620064L451.618560 213.620064L451.752480 218.116763
L451.752480 218.116763L451.841760 213.124787L451.841760 213.124787
L452.020320 227.277483L452.109600 212.335333L452.422080 225.606390
L452.466720 219.156481L452.779200 221.422397L452.779200 221.422397
L452.913120 214.940146L453.225600 220.735856L453.225600 220.735856
L453.582720 203.648159L453.850560 225.618627L453.984480 214.806267
L454.073760 223.945748L454.252320 211.814376L454.386240 208.596384
L454.564800 218.974752L454.966560 203.959560L455.011200 209.306065
L455.323680 208.057686L455.323680 208.057686L455.636160 219.571266
L455.680800 216.548210L455.770080 206.659421L455.948640 207.816501
L456.127200 222.574813L456.305760 216.023209L456.484320 224.035427
L456.618240 209.887779L456.886080 229.587033L457.020000 216.834613
L457.287840 225.334453L457.287840 225.334453L457.466400 205.612031
L457.689600 215.092418L457.868160 213.192870L458.046720 219.393919
L458.269920 203.153581L458.448480 208.837205L458.760960 226.844284
L458.805600 217.964200L459.028800 205.363194L459.073440 212.953432
L459.296640 207.281499L459.385920 209.991452L459.519840 224.008680
L459.698400 206.625598L459.921600 224.836409L460.010880 217.605671
L460.278720 219.330247L460.323360 217.156205L460.501920 201.292519
L460.546560 213.493668L460.769760 220.376972L460.859040 217.196040
L461.082240 222.249664L461.126880 216.643961L461.394720 223.679016
L461.528640 202.424588L461.796480 214.638995L462.064320 200.149287
L462.064320 200.149287L462.108960 198.672113L462.287520 222.181052
L462.466080 207.913915L462.555360 215.205744L462.555360 215.205744
L462.778560 211.659126L462.823200 215.671993L463.001760 226.804257
L463.135680 213.809566L463.358880 219.875882L463.671360 207.068927
L463.671360 207.068927L463.939200 226.499082L463.983840 197.532585
L464.251680 205.540580L464.564160 222.597007L464.608800 220.256280
L464.876640 199.509162L464.921280 330.075423L465.189120 218.430289
L465.367680 221.948718L465.501600 210.997090L465.769440 225.168448
L465.858720 222.149930L466.081920 207.179519L466.171200 213.510676
L466.439040 210.508703L466.439040 210.508703L466.572960 223.933980
L466.617600 220.770991L466.885440 204.911091L466.930080 217.756344
L467.242560 210.312174L467.287200 211.928039L467.555040 223.091852
L467.644320 218.915436L467.867520 222.669410L467.956800 221.818643
L468.090720 204.140669L468.313920 214.602489L468.492480 214.474459
L468.537120 217.596920L468.760320 222.087515L468.894240 213.469824
L468.938880 212.019327L469.162080 226.222943L469.206720 221.256453
L469.429920 224.758584L469.608480 205.040858L469.697760 212.585189
L470.010240 207.162079L470.010240 207.162079L470.099520 219.690477
L470.322720 205.768048L470.322720 205.768048L470.501280 250.641765
L470.635200 210.464974L470.813760 218.687176L471.126240 221.252915
L471.126240 221.252915L471.215520 212.639530L471.215520 212.639530
L471.349440 222.862970L471.483360 213.320555L471.572640 190.170120
L471.751200 214.852999L472.019040 185.572918L472.063680 194.282198
L472.197600 224.747093L472.420800 214.423310L472.644000 206.025852
L472.733280 211.963703L472.911840 222.403402L473.001120 209.962707
L473.268960 228.500510L473.358240 222.850971L473.447520 208.985640
L473.670720 218.399058L473.804640 216.143871L473.804640 216.143871
L474.027840 220.005465L474.117120 214.413977L474.474240 225.053331
L474.831360 196.271739L475.143840 225.545917L475.188480 220.800075
L475.500960 221.598852L475.500960 221.598852L475.634880 205.645170
L475.858080 212.234312L476.081280 208.146858L476.125920 211.538399
L476.349120 226.509517L476.393760 222.285380L476.661600 204.668050
L476.750880 219.268415L476.795520 221.656666L477.108000 221.760904
L477.108000 221.760904L477.241920 220.218873L477.241920 220.218873
L477.554400 220.858842L477.643680 213.435512L477.732960 226.073748
L477.866880 214.441731L478.090080 219.442042L478.134720 212.664545
L478.313280 212.523327L478.402560 212.930850L478.625760 223.528982
L478.715040 211.480667L479.027520 222.778359L479.340000 202.808450
L479.429280 226.872157L479.652480 209.497294L479.786400 225.733383
L479.831040 220.467960L479.920320 217.249517L479.920320 217.249517
L480.188160 217.438713L480.277440 205.141058L480.366720 225.245923
L480.589920 213.171478L480.768480 226.700322L480.813120 222.632159
L480.902400 219.316486L480.902400 219.316486L481.170240 221.232092
L481.214880 213.210628L481.348800 207.487451L481.527360 217.905915
L481.750560 206.611595L482.063040 227.170995L482.107680 221.309271
L482.196960 213.479496L482.330880 206.771350L482.420160 213.269417
L482.598720 211.608122L482.688000 216.864171L483.000480 218.156319
L483.000480 218.156319L483.223680 205.592921L483.268320 217.711558
L483.670080 199.706288L484.250400 226.300530L484.428960 205.524689
L484.562880 211.266401L484.741440 210.660253L484.786080 222.311479
L485.098560 205.058267L485.143200 210.678654L485.455680 207.374342
L485.455680 207.374342L485.723520 225.137692L485.723520 225.137692
L485.991360 203.408807L486.080640 208.842013L486.125280 218.879036
L486.393120 212.980700L486.571680 221.074419L486.705600 207.486712
L486.973440 218.477665L487.018080 211.693962L487.152000 213.308117
L487.285920 212.123690L487.509120 203.744274L487.553760 215.954186
L487.732320 219.030482L487.910880 204.764313L488.044800 210.471683
L488.178720 250.593620L488.178720 250.593620L488.312640 207.496143
L488.446560 210.367113L488.669760 202.095147L488.714400 204.247971
L488.937600 198.566683L489.026880 203.862336L489.160800 224.106579
L489.384000 209.141745L489.562560 222.216668L489.741120 202.000742
L489.964320 258.414630L490.187520 202.081720L490.276800 217.550828
L490.455360 222.147976L490.544640 211.457850L490.857120 194.148613
L490.901760 209.574471L491.169600 201.725368L491.214240 207.596909
L491.392800 203.205577L491.616000 212.778533L491.839200 203.401971
L491.928480 211.553513L492.107040 219.380759L492.196320 211.389201
L492.464160 220.650359L492.464160 220.650359L492.732000 203.863407
L492.821280 217.575584L492.955200 209.586846L492.999840 210.919060
L493.267680 222.510305L493.312320 211.793610L493.401600 215.322337
L493.490880 217.670849L493.758720 203.459468L493.892640 215.715876
L494.071200 208.791028L494.249760 223.456553L494.294400 214.282357
L494.383680 205.430137L494.428320 208.110710L494.517600 203.283769
L494.606880 207.050185L494.696160 221.950880L494.919360 208.509833
L495.008640 206.634162L495.097920 222.235929L495.321120 213.371736
L495.544320 195.668222L495.633600 210.052336L495.856800 215.523191
L495.946080 210.220408L496.080000 187.791191L496.124640 207.958419
L496.303200 219.608736L496.437120 211.941114L496.704960 218.976104
L496.704960 218.976104L496.838880 209.858558L496.883520 211.348436
L497.106720 217.928102L497.196000 215.303270L497.285280 201.939918
L497.463840 210.920255L497.776320 204.258840L497.776320 204.258840
L497.999520 223.638004L498.133440 211.281988L498.222720 195.530885
L498.401280 206.716819L498.669120 201.249429L498.669120 201.249429
L498.936960 216.856833L498.981600 208.259238L499.115520 201.713773
L499.249440 202.727325L499.472640 201.930942L499.606560 212.319840
L499.785120 223.626623L499.919040 211.439897L500.052960 203.848590
L500.097600 209.831764L500.276160 203.570630L500.454720 214.244680
L500.811840 203.541792L501.079680 202.705453L501.124320 209.789842
L501.302880 182.999609L501.436800 211.691558L501.570720 202.718387
L501.793920 219.864180L501.927840 210.869978L502.240320 192.251273
L502.597440 219.375387L502.865280 204.606609L503.177760 202.125234
L503.177760 202.125234L503.356320 210.137077L503.400960 207.623526
L503.713440 204.215327L503.713440 204.215327L503.758080 205.931303
L503.892000 165.274644L504.070560 211.652270L504.427680 203.631896
L504.784800 220.308003L504.829440 217.777090L504.963360 205.423320
L505.097280 211.014217L505.320480 202.180251L505.409760 205.629125
L505.543680 218.971331L505.677600 211.307867L505.945440 223.313982
L505.990080 208.510485L506.124000 202.749990L506.213280 204.502056
L506.302560 215.465545L506.302560 215.465545L506.481120 211.034292
L506.481120 211.034292L506.704320 201.326008L506.793600 202.065866
L506.882880 221.792908L507.106080 205.177078L507.195360 201.987348
L507.240000 217.164851L507.507840 203.330477L507.641760 217.942324
L507.909600 215.471636L508.088160 220.729184L508.222080 212.296749
L508.489920 218.480207L508.534560 211.652706L508.847040 217.312407
L508.847040 217.312407L508.936320 208.647451L509.025600 211.606370
L509.204160 217.241164L509.248800 208.278685L509.472000 198.557676
L509.516640 213.909323L509.695200 218.176839L509.829120 205.725610
L510.141600 219.875062L510.230880 214.778911L510.409440 203.293580
L510.498720 203.561169L510.811200 203.188427L510.811200 203.188427
L510.855840 204.562206L510.900480 203.553266L511.212960 203.114701
L511.212960 203.114701L511.525440 202.873462L511.570080 217.066818
L511.882560 221.413362L511.882560 221.413362L512.150400 200.068903
L512.284320 216.181442L512.418240 203.433924L512.507520 208.324176
L512.686080 212.607876L512.686080 212.607876L512.775360 209.635763
L512.953920 213.247112L513.221760 200.011494L513.534240 219.586736
L513.578880 208.250041L513.712800 199.907605L513.757440 209.485010
L514.025280 203.233845L514.069920 210.656536L514.337760 189.163132
L514.382400 213.812970L514.694880 200.469481L514.784160 219.859488
L515.007360 208.223540L515.141280 211.090692L515.141280 211.090692
L515.364480 199.584203L515.409120 204.178478L515.632320 221.402424
L515.766240 209.143590L515.900160 201.617521L515.944800 206.226335
L516.034080 219.483734L516.301920 211.486332L516.480480 222.902662
L516.569760 210.871734L516.703680 203.173026L516.926880 213.020675
L517.060800 219.450170L517.239360 204.866675L517.328640 219.704631
L517.373280 216.677143L517.641120 204.597904L517.685760 210.832384
L517.953600 204.404524L517.998240 207.973842L518.221440 219.421014
L518.310720 211.868173L518.355360 205.287614L518.355360 205.287614"/>
</g>
<g id="matplotlib.axis1">
<g id="xtick1">
<g id="line2d2">
<path style="fill: none; stroke: #000000; stroke-width: 0.500000; stroke-linejoin: round; stroke-linecap: butt; stroke-dasharray: 1.000000,3.000000; stroke-dashoffset: 0.000000; opacity: 1.000000" clip-path="url(#p50431ccdcb28178602d99d9270004dde)" d="M72.000000 388.800000L72.000000 43.200000"/>
</g>
<g id="line2d3">
<defs><path id="m30e32995789d870ad79a2e54c91cf9c6" d="M0.000000 0.000000L0.000000 -4.000000"/></defs>
<g ><use style="fill: none; stroke: #000000; stroke-width: 0.500000; stroke-linejoin: round; stroke-linecap: butt;  opacity: 1.000000" xlink:href="#m30e32995789d870ad79a2e54c91cf9c6" x="72.000000" y="388.800000"/>
</g></g>
<g id="line2d4">
<defs><path id="m9281cae24120827b11d5ea8a7ad3e96b" d="M0.000000 0.000000L0.000000 4.000000"/></defs>
<g ><use style="fill: none; stroke: #000000; stroke-width: 0.500000; stroke-linejoin: round; stroke-linecap: butt;  opacity: 1.000000" xlink:href="#m9281cae24120827b11d5ea8a7ad3e96b" x="72.000000" y="43.200000"/>
</g></g>
<g id="text1">
<defs>
<path id="c_7a2040fe3b94fcd41d0a72c84e93b115" d="M31.781250 -66.406250q-7.609375 0.000000 -11.453125 7.500000q-3.828125 7.484375 -3.828125 22.531250q0.000000 14.984375 3.828125 22.484375q3.843750 7.500000 11.453125 7.500000q7.671875 0.000000 11.500000 -7.500000q3.843750 -7.500000 3.843750 -22.484375q0.000000 -15.046875 -3.843750 -22.531250q-3.828125 -7.500000 -11.500000 -7.500000M31.781250 -74.218750q12.265625 0.000000 18.734375 9.703125q6.468750 9.687500 6.468750 28.140625q0.000000 18.406250 -6.468750 28.109375q-6.468750 9.687500 -18.734375 9.687500q-12.250000 0.000000 -18.718750 -9.687500q-6.468750 -9.703125 -6.468750 -28.109375q0.000000 -18.453125 6.468750 -28.140625q6.468750 -9.703125 18.718750 -9.703125"/>
</defs>
<g style="fill: #000000; opacity: 1.000000" transform="translate(68.976562,401.706250)scale(0.120000)">
<use xlink:href="#c_7a2040fe3b94fcd41d0a72c84e93b115"/>
</g>
</g>
</g>
<g id="xtick2">
<g id="line2d5">
<path style="fill: none; stroke: #000000; stroke-width: 0.500000; stroke-linejoin: round; stroke-linecap: butt; stroke-dasharray: 1.000000,3.000000; stroke-dashoffset: 0.000000; opacity: 1.000000" clip-path="url(#p50431ccdcb28178602d99d9270004dde)" d="M161.280000 388.800000L161.280000 43.200000"/>
</g>
<g id="line2d6">
<g ><use style="fill: none; stroke: #000000; stroke-width: 0.500000; stroke-linejoin: round; stroke-linecap: butt;  opacity: 1.000000" xlink:href="#m30e32995789d870ad79a2e54c91cf9c6" x="161.280000" y="388.800000"/>
</g></g>
<g id="line2d7">
<g ><use style="fill: none; stroke: #000000; stroke-width: 0.500000; stroke-linejoin: round; stroke-linecap: butt;  opacity: 1.000000" xlink:href="#m9281cae24120827b11d5ea8a7ad3e96b" x="161.280000" y="43.200000"/>
</g></g>
<g id="text2">
<defs>
<path id="c_ed3f3ed3ebfbd18bcb9c012009a68ad1" d="M19.187500 -8.296875l34.421875 0.000000l0.000000 8.296875l-46.281250 0.000000l0.000000 -8.296875q5.609375 -5.812500 15.296875 -15.593750q9.703125 -9.796875 12.187500 -12.640625q4.734375 -5.312500 6.609375 -9.000000q1.890625 -3.687500 1.890625 -7.250000q0.000000 -5.812500 -4.078125 -9.468750q-4.078125 -3.671875 -10.625000 -3.671875q-4.640625 0.000000 -9.796875 1.609375q-5.140625 1.609375 -11.000000 4.890625l0.000000 -9.968750q5.953125 -2.390625 11.125000 -3.609375q5.187500 -1.218750 9.484375 -1.218750q11.328125 0.000000 18.062500 5.671875q6.734375 5.656250 6.734375 15.125000q0.000000 4.500000 -1.687500 8.531250q-1.671875 4.015625 -6.125000 9.484375q-1.218750 1.421875 -7.765625 8.187500q-6.531250 6.765625 -18.453125 18.921875"/>
</defs>
<g style="fill: #000000; opacity: 1.000000" transform="translate(146.834688,401.706250)scale(0.120000)">
<use xlink:href="#c_ed3f3ed3ebfbd18bcb9c012009a68ad1"/>
<use xlink:href="#c_7a2040fe3b94fcd41d0a72c84e93b115" x="63.623047"/>
<use xlink:href="#c_7a2040fe3b94fcd41d0a72c84e93b115" x="127.246094"/>
<use xlink:href="#c_7a2040fe3b94fcd41d0a72c84e93b115" x="190.869141"/>
</g>
</g>
</g>
<g id="xtick3">
<g id="line2d8">
<path style="fill: none; stroke: #000000; stroke-width: 0.500000; stroke-linejoin: round; stroke-linecap: butt; stroke-dasharray: 1.000000,3.000000; stroke-dashoffset: 0.000000; opacity: 1.000000" clip-path="url(#p50431ccdcb28178602d99d9270004dde)" d="M250.560000 388.800000L250.560000 43.200000"/>
</g>
<g id="line2d9">
<g ><use style="fill: none; stroke: #000000; stroke-width: 0.500000; stroke-linejoin: round; stroke-linecap: butt;  opacity: 1.000000" xlink:href="#m30e32995789d870ad79a2e54c91cf9c6" x="250.560000" y="388.800000"/>
</g></g>
<g id="line2d10">
<g ><use style="fill: none; stroke: #000000; stroke-width: 0.500000; stroke-linejoin: round; stroke-linecap: butt;  opacity: 1.000000" xlink:href="#m9281cae24120827b11d5ea8a7ad3e96b" x="250.560000" y="43.200000"/>
</g></g>
<g id="text3">
<defs>
<path id="c_a0416418d96557a09b8c1332d34883ba" d="M37.796875 -64.312500l-24.906250 38.921875l24.906250 0.000000zM35.203125 -72.906250l12.406250 0.000000l0.000000 47.515625l10.406250 0.000000l0.000000 8.203125l-10.406250 0.000000l0.000000 17.187500l-9.812500 0.000000l0.000000 -17.187500l-32.906250 0.000000l0.000000 -9.515625z"/>
</defs>
<g style="fill: #000000; opacity: 1.000000" transform="translate(235.974063,401.706250)scale(0.120000)">
<use xlink:href="#c_a0416418d96557a09b8c1332d34883ba"/>
<use xlink:href="#c_7a2040fe3b94fcd41d0a72c84e93b115" x="63.623047"/>
<use xlink:href="#c_7a2040fe3b94fcd41d0a72c84e93b115" x="127.246094"/>
<use xlink:href="#c_7a2040fe3b94fcd41d0a72c84e93b115" x="190.869141"/>
</g>
</g>
</g>
<g id="xtick4">
<g id="line2d11">
<path style="fill: none; stroke: #000000; stroke-width: 0.500000; stroke-linejoin: round; stroke-linecap: butt; stroke-dasharray: 1.000000,3.000000; stroke-dashoffset: 0.000000; opacity: 1.000000" clip-path="url(#p50431ccdcb28178602d99d9270004dde)" d="M339.840000 388.800000L339.840000 43.200000"/>
</g>
<g id="line2d12">
<g ><use style="fill: none; stroke: #000000; stroke-width: 0.500000; stroke-linejoin: round; stroke-linecap: butt;  opacity: 1.000000" xlink:href="#m30e32995789d870ad79a2e54c91cf9c6" x="339.840000" y="388.800000"/>
</g></g>
<g id="line2d13">
<g ><use style="fill: none; stroke: #000000; stroke-width: 0.500000; stroke-linejoin: round; stroke-linecap: butt;  opacity: 1.000000" xlink:href="#m9281cae24120827b11d5ea8a7ad3e96b" x="339.840000" y="43.200000"/>
</g></g>
<g id="text4">
<defs>
<path id="c_cc8d6d580d1b10c8632f7a42cd53db8a" d="M33.015625 -40.375000q-6.640625 0.000000 -10.531250 4.546875q-3.875000 4.531250 -3.875000 12.437500q0.000000 7.859375 3.875000 12.437500q3.890625 4.562500 10.531250 4.562500q6.640625 0.000000 10.515625 -4.562500q3.875000 -4.578125 3.875000 -12.437500q0.000000 -7.906250 -3.875000 -12.437500q-3.875000 -4.546875 -10.515625 -4.546875M52.593750 -71.296875l0.000000 8.984375q-3.718750 -1.750000 -7.500000 -2.671875q-3.781250 -0.937500 -7.500000 -0.937500q-9.765625 0.000000 -14.921875 6.593750q-5.140625 6.593750 -5.875000 19.921875q2.875000 -4.250000 7.218750 -6.515625q4.359375 -2.265625 9.578125 -2.265625q10.984375 0.000000 17.359375 6.671875q6.375000 6.656250 6.375000 18.125000q0.000000 11.234375 -6.640625 18.031250q-6.640625 6.781250 -17.671875 6.781250q-12.656250 0.000000 -19.343750 -9.687500q-6.687500 -9.703125 -6.687500 -28.109375q0.000000 -17.281250 8.203125 -27.562500q8.203125 -10.281250 22.015625 -10.281250q3.718750 0.000000 7.500000 0.734375q3.781250 0.734375 7.890625 2.187500"/>
</defs>
<g style="fill: #000000; opacity: 1.000000" transform="translate(325.379062,401.706250)scale(0.120000)">
<use xlink:href="#c_cc8d6d580d1b10c8632f7a42cd53db8a"/>
<use xlink:href="#c_7a2040fe3b94fcd41d0a72c84e93b115" x="63.623047"/>
<use xlink:href="#c_7a2040fe3b94fcd41d0a72c84e93b115" x="127.246094"/>
<use xlink:href="#c_7a2040fe3b94fcd41d0a72c84e93b115" x="190.869141"/>
</g>
</g>
</g>
<g id="xtick5">
<g id="line2d14">
<path style="fill: none; stroke: #000000; stroke-width: 0.500000; stroke-linejoin: round; stroke-linecap: butt; stroke-dasharray: 1.000000,3.000000; stroke-dashoffset: 0.000000; opacity: 1.000000" clip-path="url(#p50431ccdcb28178602d99d9270004dde)" d="M429.120000 388.800000L429.120000 43.200000"/>
</g>
<g id="line2d15">
<g ><use style="fill: none; stroke: #000000; stroke-width: 0.500000; stroke-linejoin: round; stroke-linecap: butt;  opacity: 1.000000" xlink:href="#m30e32995789d870ad79a2e54c91cf9c6" x="429.120000" y="388.800000"/>
</g></g>
<g id="line2d16">
<g ><use style="fill: none; stroke: #000000; stroke-width: 0.500000; stroke-linejoin: round; stroke-linecap: butt;  opacity: 1.000000" xlink:href="#m9281cae24120827b11d5ea8a7ad3e96b" x="429.120000" y="43.200000"/>
</g></g>
<g id="text5">
<defs>
<path id="c_bef35738d52871942e50b9de9b122bab" d="M31.781250 -34.625000q-7.031250 0.000000 -11.062500 3.765625q-4.015625 3.765625 -4.015625 10.343750q0.000000 6.593750 4.015625 10.359375q4.031250 3.765625 11.062500 3.765625q7.031250 0.000000 11.078125 -3.781250q4.062500 -3.796875 4.062500 -10.343750q0.000000 -6.578125 -4.031250 -10.343750q-4.015625 -3.765625 -11.109375 -3.765625M21.921875 -38.812500q-6.343750 -1.562500 -9.890625 -5.906250q-3.531250 -4.359375 -3.531250 -10.609375q0.000000 -8.734375 6.218750 -13.812500q6.234375 -5.078125 17.062500 -5.078125q10.890625 0.000000 17.093750 5.078125q6.203125 5.078125 6.203125 13.812500q0.000000 6.250000 -3.546875 10.609375q-3.531250 4.343750 -9.828125 5.906250q7.125000 1.656250 11.093750 6.500000q3.984375 4.828125 3.984375 11.796875q0.000000 10.609375 -6.468750 16.281250q-6.468750 5.656250 -18.531250 5.656250q-12.046875 0.000000 -18.531250 -5.656250q-6.468750 -5.671875 -6.468750 -16.281250q0.000000 -6.968750 4.000000 -11.796875q4.015625 -4.843750 11.140625 -6.500000M18.312500 -54.390625q0.000000 5.656250 3.531250 8.828125q3.546875 3.171875 9.937500 3.171875q6.359375 0.000000 9.937500 -3.171875q3.593750 -3.171875 3.593750 -8.828125q0.000000 -5.671875 -3.593750 -8.843750q-3.578125 -3.171875 -9.937500 -3.171875q-6.390625 0.000000 -9.937500 3.171875q-3.531250 3.171875 -3.531250 8.843750"/>
</defs>
<g style="fill: #000000; opacity: 1.000000" transform="translate(414.643438,401.706250)scale(0.120000)">
<use xlink:href="#c_bef35738d52871942e50b9de9b122bab"/>
<use xlink:href="#c_7a2040fe3b94fcd41d0a72c84e93b115" x="63.623047"/>
<use xlink:href="#c_7a2040fe3b94fcd41d0a72c84e93b115" x="127.246094"/>
<use xlink:href="#c_7a2040fe3b94fcd41d0a72c84e93b115" x="190.869141"/>
</g>
</g>
</g>
<g id="xtick6">
<g id="line2d17">
<path style="fill: none; stroke: #000000; stroke-width: 0.500000; stroke-linejoin: round; stroke-linecap: butt; stroke-dasharray: 1.000000,3.000000; stroke-dashoffset: 0.000000; opacity: 1.000000" clip-path="url(#p50431ccdcb28178602d99d9270004dde)" d="M518.400000 388.800000L518.400000 43.200000"/>
</g>
<g id="line2d18">
<g ><use style="fill: none; stroke: #000000; stroke-width: 0.500000; stroke-linejoin: round; stroke-linecap: butt;  opacity: 1.000000" xlink:href="#m30e32995789d870ad79a2e54c91cf9c6" x="518.400000" y="388.800000"/>
</g></g>
<g id="line2d19">
<g ><use style="fill: none; stroke: #000000; stroke-width: 0.500000; stroke-linejoin: round; stroke-linecap: butt;  opacity: 1.000000" xlink:href="#m9281cae24120827b11d5ea8a7ad3e96b" x="518.400000" y="43.200000"/>
</g></g>
<g id="text6">
<defs>
<path id="c_42baa63129a918535c52adb20d687ea7" d="M12.406250 -8.296875l16.109375 0.000000l0.000000 -55.625000l-17.531250 3.515625l0.000000 -8.984375l17.437500 -3.515625l9.859375 0.000000l0.000000 64.609375l16.109375 0.000000l0.000000 8.296875l-41.984375 0.000000z"/>
</defs>
<g style="fill: #000000; opacity: 1.000000" transform="translate(500.353125,401.706250)scale(0.120000)">
<use xlink:href="#c_42baa63129a918535c52adb20d687ea7"/>
<use xlink:href="#c_7a2040fe3b94fcd41d0a72c84e93b115" x="63.623047"/>
<use xlink:href="#c_7a2040fe3b94fcd41d0a72c84e93b115" x="127.246094"/>
<use xlink:href="#c_7a2040fe3b94fcd41d0a72c84e93b115" x="190.869141"/>
<use xlink:href="#c_7a2040fe3b94fcd41d0a72c84e93b115" x="254.492188"/>
</g>
</g>
</g>
</g>
<g id="matplotlib.axis2">
<g id="ytick1">
<g id="line2d20">
<path style="fill: none; stroke: #000000; stroke-width: 0.500000; stroke-linejoin: round; stroke-linecap: butt; stroke-dasharray: 1.000000,3.000000; stroke-dashoffset: 0.000000; opacity: 1.000000" clip-path="url(#p50431ccdcb28178602d99d9270004dde)" d="M72.000000 388.800000L518.400000 388.800000"/>
</g>
<g id="line2d21">
<defs><path id="m3400efa6b1638b3fea9e19e898273957" d="M0.000000 0.000000L4.000000 0.000000"/></defs>
<g ><use style="fill: none; stroke: #000000; stroke-width: 0.500000; stroke-linejoin: round; stroke-linecap: butt;  opacity: 1.000000" xlink:href="#m3400efa6b1638b3fea9e19e898273957" x="72.000000" y="388.800000"/>
</g></g>
<g id="line2d22">
<defs><path id="m20b58b2501143cb5e0a5e8f1ef6f1643" d="M0.000000 0.000000L-4.000000 0.000000"/></defs>
<g ><use style="fill: none; stroke: #000000; stroke-width: 0.500000; stroke-linejoin: round; stroke-linecap: butt;  opacity: 1.000000" xlink:href="#m20b58b2501143cb5e0a5e8f1ef6f1643" x="518.400000" y="388.800000"/>
</g></g>
<g id="text7">
<defs>
<path id="c_ed3e21196fb739f392806f09ca0594ef" d="M10.687500 -12.406250l10.312500 0.000000l0.000000 12.406250l-10.312500 0.000000z"/>
</defs>
<g style="fill: #000000; opacity: 1.000000" transform="translate(42.859375,393.167188)scale(0.120000)">
<use xlink:href="#c_7a2040fe3b94fcd41d0a72c84e93b115"/>
<use xlink:href="#c_ed3e21196fb739f392806f09ca0594ef" x="63.623047"/>
<use xlink:href="#c_7a2040fe3b94fcd41d0a72c84e93b115" x="95.410156"/>
<use xlink:href="#c_7a2040fe3b94fcd41d0a72c84e93b115" x="159.033203"/>
</g>
</g>
</g>
<g id="ytick2">
<g id="line2d23">
<path style="fill: none; stroke: #000000; stroke-width: 0.500000; stroke-linejoin: round; stroke-linecap: butt; stroke-dasharray: 1.000000,3.000000; stroke-dashoffset: 0.000000; opacity: 1.000000" clip-path="url(#p50431ccdcb28178602d99d9270004dde)" d="M72.000000 345.600000L518.400000 345.600000"/>
</g>
<g id="line2d24">
<g ><use style="fill: none; stroke: #000000; stroke-width: 0.500000; stroke-linejoin: round; stroke-linecap: butt;  opacity: 1.000000" xlink:href="#m3400efa6b1638b3fea9e19e898273957" x="72.000000" y="345.600000"/>
</g></g>
<g id="line2d25">
<g ><use style="fill: none; stroke: #000000; stroke-width: 0.500000; stroke-linejoin: round; stroke-linecap: butt;  opacity: 1.000000" xlink:href="#m20b58b2501143cb5e0a5e8f1ef6f1643" x="518.400000" y="345.600000"/>
</g></g>
<g id="text8">
<g style="fill: #000000; opacity: 1.000000" transform="translate(43.265625,349.967188)scale(0.120000)">
<use xlink:href="#c_7a2040fe3b94fcd41d0a72c84e93b115"/>
<use xlink:href="#c_ed3e21196fb739f392806f09ca0594ef" x="63.623047"/>
<use xlink:href="#c_7a2040fe3b94fcd41d0a72c84e93b115" x="95.410156"/>
<use xlink:href="#c_ed3f3ed3ebfbd18bcb9c012009a68ad1" x="159.033203"/>
</g>
</g>
</g>
<g id="ytick3">
<g id="line2d26">
<path style="fill: none; stroke: #000000; stroke-width: 0.500000; stroke-linejoin: round; stroke-linecap: butt; stroke-dasharray: 1.000000,3.000000; stroke-dashoffset: 0.000000; opacity: 1.000000" clip-path="url(#p50431ccdcb28178602d99d9270004dde)" d="M72.000000 302.400000L518.400000 302.400000"/>
</g>
<g id="line2d27">
<g ><use style="fill: none; stroke: #000000; stroke-width: 0.500000; stroke-linejoin: round; stroke-linecap: butt;  opacity: 1.000000" xlink:href="#m3400efa6b1638b3fea9e19e898273957" x="72.000000" y="302.400000"/>
</g></g>
<g id="line2d28">
<g ><use style="fill: none; stroke: #000000; stroke-width: 0.500000; stroke-linejoin: round; stroke-linecap: butt;  opacity: 1.000000" xlink:href="#m20b58b2501143cb5e0a5e8f1ef6f1643" x="518.400000" y="302.400000"/>
</g></g>
<g id="text9">
<g style="fill: #000000; opacity: 1.000000" transform="translate(42.734375,306.767187)scale(0.120000)">
<use xlink:href="#c_7a2040fe3b94fcd41d0a72c84e93b115"/>
<use xlink:href="#c_ed3e21196fb739f392806f09ca0594ef" x="63.623047"/>
<use xlink:href="#c_7a2040fe3b94fcd41d0a72c84e93b115" x="95.410156"/>
<use xlink:href="#c_a0416418d96557a09b8c1332d34883ba" x="159.033203"/>
</g>
</g>
</g>
<g id="ytick4">
<g id="line2d29">
<path style="fill: none; stroke: #000000; stroke-width: 0.500000; stroke-linejoin: round; stroke-linecap: butt; stroke-dasharray: 1.000000,3.000000; stroke-dashoffset: 0.000000; opacity: 1.000000" clip-path="url(#p50431ccdcb28178602d99d9270004dde)" d="M72.000000 259.200000L518.400000 259.200000"/>
</g>
<g id="line2d30">
<g ><use style="fill: none; stroke: #000000; stroke-width: 0.500000; stroke-linejoin: round; stroke-linecap: butt;  opacity: 1.000000" xlink:href="#m3400efa6b1638b3fea9e19e898273957" x="72.000000" y="259.200000"/>
</g></g>
<g id="line2d31">
<g ><use style="fill: none; stroke: #000000; stroke-width: 0.500000; stroke-linejoin: round; stroke-linecap: butt;  opacity: 1.000000" xlink:href="#m20b58b2501143cb5e0a5e8f1ef6f1643" x="518.400000" y="259.200000"/>
</g></g>
<g id="text10">
<g style="fill: #000000; opacity: 1.000000" transform="translate(42.828125,263.567188)scale(0.120000)">
<use xlink:href="#c_7a2040fe3b94fcd41d0a72c84e93b115"/>
<use xlink:href="#c_ed3e21196fb739f392806f09ca0594ef" x="63.623047"/>
<use xlink:href="#c_7a2040fe3b94fcd41d0a72c84e93b115" x="95.410156"/>
<use xlink:href="#c_cc8d6d580d1b10c8632f7a42cd53db8a" x="159.033203"/>
</g>
</g>
</g>
<g id="ytick5">
<g id="line2d32">
<path style="fill: none; stroke: #000000; stroke-width: 0.500000; stroke-linejoin: round; stroke-linecap: butt; stroke-dasharray: 1.000000,3.000000; stroke-dashoffset: 0.000000; opacity: 1.000000" clip-path="url(#p50431ccdcb28178602d99d9270004dde)" d="M72.000000 216.000000L518.400000 216.000000"/>
</g>
<g id="line2d33">
<g ><use style="fill: none; stroke: #000000; stroke-width: 0.500000; stroke-linejoin: round; stroke-linecap: butt;  opacity: 1.000000" xlink:href="#m3400efa6b1638b3fea9e19e898273957" x="72.000000" y="216.000000"/>
</g></g>
<g id="line2d34">
<g ><use style="fill: none; stroke: #000000; stroke-width: 0.500000; stroke-linejoin: round; stroke-linecap: butt;  opacity: 1.000000" xlink:href="#m20b58b2501143cb5e0a5e8f1ef6f1643" x="518.400000" y="216.000000"/>
</g></g>
<g id="text11">
<g style="fill: #000000; opacity: 1.000000" transform="translate(42.890625,220.367188)scale(0.120000)">
<use xlink:href="#c_7a2040fe3b94fcd41d0a72c84e93b115"/>
<use xlink:href="#c_ed3e21196fb739f392806f09ca0594ef" x="63.623047"/>
<use xlink:href="#c_7a2040fe3b94fcd41d0a72c84e93b115" x="95.410156"/>
<use xlink:href="#c_bef35738d52871942e50b9de9b122bab" x="159.033203"/>
</g>
</g>
</g>
<g id="ytick6">
<g id="line2d35">
<path style="fill: none; stroke: #000000; stroke-width: 0.500000; stroke-linejoin: round; stroke-linecap: butt; stroke-dasharray: 1.000000,3.000000; stroke-dashoffset: 0.000000; opacity: 1.000000" clip-path="url(#p50431ccdcb28178602d99d9270004dde)" d="M72.000000 172.800000L518.400000 172.800000"/>
</g>
<g id="line2d36">
<g ><use style="fill: none; stroke: #000000; stroke-width: 0.500000; stroke-linejoin: round; stroke-linecap: butt;  opacity: 1.000000" xlink:href="#m3400efa6b1638b3fea9e19e898273957" x="72.000000" y="172.800000"/>
</g></g>
<g id="line2d37">
<g ><use style="fill: none; stroke: #000000; stroke-width: 0.500000; stroke-linejoin: round; stroke-linecap: butt;  opacity: 1.000000" xlink:href="#m20b58b2501143cb5e0a5e8f1ef6f1643" x="518.400000" y="172.800000"/>
</g></g>
<g id="text12">
<g style="fill: #000000; opacity: 1.000000" transform="translate(42.859375,177.167188)scale(0.120000)">
<use xlink:href="#c_7a2040fe3b94fcd41d0a72c84e93b115"/>
<use xlink:href="#c_ed3e21196fb739f392806f09ca0594ef" x="63.623047"/>
<use xlink:href="#c_42baa63129a918535c52adb20d687ea7" x="95.410156"/>
<use xlink:href="#c_7a2040fe3b94fcd41d0a72c84e93b115" x="159.033203"/>
</g>
</g>
</g>
<g id="ytick7">
<g id="line2d38">
<path style="fill: none; stroke: #000000; stroke-width: 0.500000; stroke-linejoin: round; stroke-linecap: butt; stroke-dasharray: 1.000000,3.000000; stroke-dashoffset: 0.000000; opacity: 1.000000" clip-path="url(#p50431ccdcb28178602d99d9270004dde)" d="M72.000000 129.600000L518.400000 129.600000"/>
</g>
<g id="line2d39">
<g ><use style="fill: none; stroke: #000000; stroke-width: 0.500000; stroke-linejoin: round; stroke-linecap: butt;  opacity: 1.000000" xlink:href="#m3400efa6b1638b3fea9e19e898273957" x="72.000000" y="129.600000"/>
</g></g>
<g id="line2d40">
<g ><use style="fill: none; stroke: #000000; stroke-width: 0.500000; stroke-linejoin: round; stroke-linecap: butt;  opacity: 1.000000" xlink:href="#m20b58b2501143cb5e0a5e8f1ef6f1643" x="518.400000" y="129.600000"/>
</g></g>
<g id="text13">
<g style="fill: #000000; opacity: 1.000000" transform="translate(43.265625,133.967188)scale(0.120000)">
<use xlink:href="#c_7a2040fe3b94fcd41d0a72c84e93b115"/>
<use xlink:href="#c_ed3e21196fb739f392806f09ca0594ef" x="63.623047"/>
<use xlink:href="#c_42baa63129a918535c52adb20d687ea7" x="95.410156"/>
<use xlink:href="#c_ed3f3ed3ebfbd18bcb9c012009a68ad1" x="159.033203"/>
</g>
</g>
</g>
<g id="ytick8">
<g id="line2d41">
<path style="fill: none; stroke: #000000; stroke-width: 0.500000; stroke-linejoin: round; stroke-linecap: butt; stroke-dasharray: 1.000000,3.000000; stroke-dashoffset: 0.000000; opacity: 1.000000" clip-path="url(#p50431ccdcb28178602d99d9270004dde)" d="M72.000000 86.400000L518.400000 86.400000"/>
</g>
<g id="line2d42">
<g ><use style="fill: none; stroke: #000000; stroke-width: 0.500000; stroke-linejoin: round; stroke-linecap: butt;  opacity: 1.000000" xlink:href="#m3400efa6b1638b3fea9e19e898273957" x="72.000000" y="86.400000"/>
</g></g>
<g id="line2d43">
<g ><use style="fill: none; stroke: #000000; stroke-width: 0.500000; stroke-linejoin: round; stroke-linecap: butt;  opacity: 1.000000" xlink:href="#m20b58b2501143cb5e0a5e8f1ef6f1643" x="518.400000" y="86.400000"/>
</g></g>
<g id="text14">
<g style="fill: #000000; opacity: 1.000000" transform="translate(42.734375,90.767187)scale(0.120000)">
<use xlink:href="#c_7a2040fe3b94fcd41d0a72c84e93b115"/>
<use xlink:href="#c_ed3e21196fb739f392806f09ca0594ef" x="63.623047"/>
<use xlink:href="#c_42baa63129a918535c52adb20d687ea7" x="95.410156"/>
<use xlink:href="#c_a0416418d96557a09b8c1332d34883ba" x="159.033203"/>
</g>
</g>
</g>
<g id="ytick9">
<g id="line2d44">
<path style="fill: none; stroke: #000000; stroke-width: 0.500000; stroke-linejoin: round; stroke-linecap: butt; stroke-dasharray: 1.000000,3.000000; stroke-dashoffset: 0.000000; opacity: 1.000000" clip-path="url(#p50431ccdcb28178602d99d9270004dde)" d="M72.000000 43.200000L518.400000 43.200000"/>
</g>
<g id="line2d45">
<g ><use style="fill: none; stroke: #000000; stroke-width: 0.500000; stroke-linejoin: round; stroke-linecap: butt;  opacity: 1.000000" xlink:href="#m3400efa6b1638b3fea9e19e898273957" x="72.000000" y="43.200000"/>
</g></g>
<g id="line2d46">
<g ><use style="fill: none; stroke: #000000; stroke-width: 0.500000; stroke-linejoin: round; stroke-linecap: butt;  opacity: 1.000000" xlink:href="#m20b58b2501143cb5e0a5e8f1ef6f1643" x="518.400000" y="43.200000"/>
</g></g>
<g id="text15">
<g style="fill: #000000; opacity: 1.000000" transform="translate(42.828125,47.567187)scale(0.120000)">
<use xlink:href="#c_7a2040fe3b94fcd41d0a72c84e93b115"/>
<use xlink:href="#c_ed3e21196fb739f392806f09ca0594ef" x="63.623047"/>
<use xlink:href="#c_42baa63129a918535c52adb20d687ea7" x="95.410156"/>
<use xlink:href="#c_cc8d6d580d1b10c8632f7a42cd53db8a" x="159.033203"/>
</g>
</g>
</g>
</g>
<g id="patch3">
<path style="fill: none; stroke: #000000; stroke-width: 1.000000; stroke-linejoin: round; stroke-linecap: square;  opacity: 1.000000"  d="M72.000000 43.200000L518.400000 43.200000"/>
</g>
<g id="patch4">
<path style="fill: none; stroke: #000000; stroke-width: 1.000000; stroke-linejoin: round; stroke-linecap: square;  opacity: 1.000000"  d="M518.400000 388.800000L518.400000 43.200000"/>
</g>
<g id="patch5">
<path style="fill: none; stroke: #000000; stroke-width: 1.000000; stroke-linejoin: round; stroke-linecap: square;  opacity: 1.000000"  d="M72.000000 388.800000L518.400000 388.800000"/>
</g>
<g id="patch6">
<path style="fill: none; stroke: #000000; stroke-width: 1.000000; stroke-linejoin: round; stroke-linecap: square;  opacity: 1.000000"  d="M72.000000 388.800000L72.000000 43.200000"/>
</g>
</g>
</g>
</svg>
