<?xml version="1.0" standalone="no"?>
<!DOCTYPE svg PUBLIC "-//W3C//DTD SVG 1.1//EN"
  "http://www.w3.org/Graphics/SVG/1.1/DTD/svg11.dtd">
<!-- Created with matplotlib (http://matplotlib.sourceforge.net/) -->
<svg width="576pt" height="432pt" viewBox="0 0 576 432"
   xmlns="http://www.w3.org/2000/svg"
   xmlns:xlink="http://www.w3.org/1999/xlink"
   version="1.1"
   id="svg1">
<g id="figure1">
<g id="patch1">
<path style="fill: #ffffff; stroke: #ffffff; stroke-width: 1.000000; stroke-linejoin: round; stroke-linecap: square;  opacity: 1.000000"  d="M0.000000 432.000000L576.000000 432.000000L576.000000 0.000000
L0.000000 0.000000L0.000000 432.000000"/>
</g>
<g id="axes1">
<g id="patch2">
<path style="fill: #ffffff; opacity: 1.000000"  d="M72.000000 388.800000L518.400000 388.800000L518.400000 43.200000
L72.000000 43.200000L72.000000 388.800000"/>
</g>
<g id="line2d1">
<defs>
  <clipPath id="p50431ccdcb28178602d99d9270004dde">
<rect x="72.000000" y="43.200000" width="446.400000" height="345.600000"/>
  </clipPath>
</defs><path style="fill: none; stroke: #ff0000; stroke-width: 1.000000; stroke-linejoin: round; stroke-linecap: square;  opacity: 1.000000" clip-path="url(#p50431ccdcb28178602d99d9270004dde)" d="M72.000000 326.659116L72.133920 328.764257L72.312480 325.729624
L72.580320 324.621492L72.669600 327.979123L72.848160 317.181727
L73.026720 345.102440L73.071360 325.235232L73.294560 328.969786
L73.473120 329.314833L73.607040 325.375373L73.919520 344.725770
L74.232000 314.287615L74.276640 327.648983L74.365920 328.573336
L74.365920 328.573336L74.678400 325.233078L74.678400 325.233078
L74.856960 328.237816L74.856960 328.237816L74.946240 302.788005
L75.169440 324.684495L75.258720 328.091720L75.392640 345.477588
L75.526560 325.379981L75.883680 344.908120L76.151520 324.257576
L76.196160 327.908678L76.419360 345.231855L76.553280 345.014070
L76.642560 324.145371L76.865760 344.896750L77.133600 345.670191
L77.267520 324.874034L77.490720 344.883859L77.580000 324.903064
L77.758560 344.730586L77.892480 325.957755L78.026400 324.806550
L78.249600 344.572278L78.606720 324.862652L78.829920 323.540202
L78.919200 324.666651L79.053120 345.334291L79.142400 324.698964
L79.410240 313.355244L79.410240 313.355244L79.856640 345.398964
L79.945920 323.806464L80.169120 337.067251L80.392320 324.613117
L80.436960 345.113268L80.660160 346.137915L80.794080 334.338117
L81.151200 321.639471L81.195840 345.287082L81.463680 325.573252
L81.910080 345.428548L82.222560 324.466191L82.535040 345.468995
L82.758240 319.314908L82.802880 337.104910L82.981440 345.183805
L83.026080 336.421140L83.115360 344.933637L83.338560 325.659848
L83.695680 345.517724L83.874240 313.786322L84.097440 336.551570
L84.186720 325.101220L84.320640 345.938054L84.588480 345.040047
L84.900960 345.222559L84.945600 336.611428L85.168800 324.883123
L85.213440 336.835699L85.436640 335.309403L85.659840 324.051425
L85.704480 345.167148L85.793760 345.168714L85.927680 336.979676
L86.061600 345.039621L86.106240 336.988074L86.463360 314.426085
L86.597280 345.832128L86.775840 337.231722L86.909760 345.401556
L87.132960 326.662099L87.400800 345.916846L87.490080 324.973094
L87.713280 345.460573L87.802560 344.274359L88.115040 344.995995
L88.115040 344.995995L88.338240 345.529336L88.472160 325.010580
L88.784640 324.475304L88.829280 337.232436L89.007840 325.378045
L89.097120 345.326907L89.409600 325.156965L89.454240 336.847980
L89.632800 345.786520L89.766720 345.452705L90.079200 345.698542
L90.123840 336.266807L90.257760 345.479005L90.436320 324.646214
L90.525600 344.789856L90.838080 345.240668L90.882720 334.647890
L91.016640 345.934552L91.195200 344.601654L91.463040 344.899146
L91.507680 335.902429L91.641600 324.847918L91.775520 345.399114
L91.820160 325.811025L92.088000 345.196616L92.177280 325.434851
L92.221920 336.501700L92.489760 345.075149L92.757600 302.278049
L92.891520 324.718387L92.980800 345.736892L93.248640 336.382733
L93.293280 324.998819L93.516480 333.068383L93.605760 325.347552
L93.828960 333.742188L94.052160 340.705256L94.096800 336.327195
L94.275360 345.113706L94.320000 336.786993L94.632480 336.720015
L94.632480 336.720015L94.677120 334.427766L94.721760 336.103154
L94.811040 345.648326L94.944960 344.693169L95.078880 335.017475
L95.391360 345.406936L95.391360 345.406936L95.614560 334.289929
L95.703840 336.438109L95.748480 345.289018L95.971680 336.494592
L96.060960 337.744005L96.239520 327.274998L96.284160 336.050807
L96.552000 337.274600L96.552000 337.274600L96.864480 335.965536
L96.864480 335.965536L97.132320 345.567318L97.176960 324.608314
L97.400160 337.220329L97.668000 336.566949L97.712640 345.463304
L97.891200 324.330428L98.114400 336.858808L98.292960 328.214488
L98.471520 331.631700L98.784000 345.624088L98.828640 344.340069
L99.007200 345.407121L99.051840 336.434170L99.185760 344.994520
L99.364320 344.557405L99.587520 345.537573L99.721440 335.883525
L99.900000 324.652850L100.033920 336.782200L100.123200 337.326543
L100.123200 337.326543L100.346400 328.326993L100.346400 328.326993
L100.391040 325.423907L100.569600 345.686147L100.703520 336.820055
L100.971360 336.216660L101.016000 345.058986L101.194560 345.158980
L101.328480 336.332068L101.507040 304.701316L101.640960 345.097233
L101.953440 345.836632L101.953440 345.836632L102.310560 324.461226
L102.355200 345.449399L102.623040 345.262798L102.935520 345.782615
L102.935520 345.782615L103.426560 315.679530L103.649760 345.976957
L103.783680 345.320859L104.096160 336.576326L104.364000 334.714948
L104.453280 345.314292L104.542560 328.706611L104.810400 334.253975
L104.899680 344.937381L104.988960 334.567066L105.167520 345.352620
L105.301440 336.971151L105.480000 325.917458L105.792480 345.373759
L106.104960 334.669064L106.149600 336.487553L106.506720 345.344740
L106.640640 325.393367L106.863840 336.245034L107.131680 335.912164
L107.220960 345.106806L107.533440 345.171087L107.533440 345.171087
L107.756640 335.442390L107.935200 345.090182L108.069120 336.918943
L108.426240 345.584563L108.649440 345.818373L108.694080 335.995373
L108.961920 335.905125L109.006560 337.197727L109.229760 345.480296
L109.452960 345.601624L109.631520 337.146336L109.720800 337.242344
L109.720800 337.242344L110.122560 345.547284L110.167200 336.342367
L110.435040 336.790380L110.658240 329.500132L110.702880 336.627913
L110.881440 344.283045L110.970720 334.248100L111.149280 314.569832
L111.283200 344.653701L111.551040 345.393988L111.595680 336.660780
L111.684960 334.140780L111.863520 327.355050L111.997440 344.968243
L112.354560 327.878496L112.533120 344.793669L112.711680 337.231930
L112.979520 345.399206L113.024160 336.491366L113.247360 335.683204
L113.336640 336.114109L113.515200 345.416728L113.604480 336.915625
L113.827680 345.651713L113.827680 345.651713L114.050880 325.387976
L114.140160 334.814481L114.363360 333.536060L114.408000 336.264572
L114.541920 334.038597L114.586560 335.517581L114.809760 345.711421
L114.943680 345.253167L115.166880 345.449837L115.211520 336.606152
L115.479360 345.318255L115.747200 345.558401L115.836480 336.944333
L115.925760 335.651144L116.104320 345.054275L116.372160 326.549318
L116.506080 336.856470L116.640000 336.845894L116.729280 345.073974
L117.131040 325.352460L117.354240 314.634943L117.443520 336.359140
L117.711360 345.043411L117.979200 345.329787L118.023840 335.578925
L118.202400 344.870243L118.291680 336.648568L118.380960 335.610766
L118.693440 345.366294L119.005920 334.581961L119.318400 345.405416
L119.675520 324.885842L119.898720 345.104052L119.943360 336.987418
L120.166560 325.871424L120.255840 326.153434L120.479040 345.269134
L120.568320 345.136009L120.657600 311.229746L120.880800 336.060887
L121.104000 345.376754L121.148640 336.551604L121.416480 336.194749
L121.550400 345.238998L121.639680 325.457038L121.684320 335.985708
L121.907520 344.953981L121.996800 337.141244L122.041440 336.089629
L122.398560 345.770669L122.711040 346.016333L122.711040 346.016333
L122.800320 337.124782L122.889600 337.486510L123.112800 337.647272
L123.157440 336.294835L123.336000 345.901236L123.425280 344.314806
L123.559200 323.149755L123.737760 334.084193L124.005600 328.472041
L124.050240 336.387433L124.228800 325.656115L124.496640 345.462036
L124.541280 337.235420L124.764480 335.641006L124.809120 344.195366
L125.121600 345.208977L125.210880 336.614100L125.568000 345.400773
L125.969760 333.934330L126.059040 334.043482L126.326880 345.262464
L126.416160 345.056198L126.728640 326.401079L127.041120 345.484086
L127.085760 336.629906L127.308960 345.174970L127.398240 344.786757
L127.487520 325.384992L127.576800 336.554093L127.844640 345.490698
L128.246400 333.790721L128.291040 336.976923L128.603520 336.838211
L128.603520 336.838211L128.871360 325.633340L128.916000 337.662881
L129.228480 345.682195L129.407040 326.413140L129.585600 335.815903
L129.764160 346.074382L129.808800 314.162842L130.076640 345.656448
L130.299840 345.787972L130.344480 336.246106L130.478400 345.456703
L130.701600 345.258766L130.835520 322.525567L131.014080 336.075356
L131.192640 344.353386L131.281920 336.576845L131.594400 338.610897
L131.639040 336.575635L131.817600 344.611549L132.219360 292.192163
L132.308640 345.446853L132.576480 345.120330L132.933600 325.414057
L133.201440 345.106138L133.513920 345.383747L133.603200 336.710661
L133.826400 345.719889L133.960320 345.165800L134.272800 345.710604
L134.317440 335.998702L134.585280 326.040952L134.629920 344.921000
L134.808480 345.993512L134.942400 337.345079L135.210240 336.064735
L135.210240 336.064735L135.388800 337.257170L135.656640 345.623581
L136.058400 324.233798L136.326240 345.017664L136.415520 336.522286
L136.772640 345.719946L136.817280 344.665382L137.129760 345.442303
L137.174400 336.690490L137.397600 325.716503L137.486880 345.043803
L137.665440 345.316712L137.799360 345.285896L138.111840 345.548978
L138.156480 336.621669L138.558240 346.168731L138.647520 252.962876
L138.870720 344.300360L139.049280 345.302911L139.093920 336.902723
L139.272480 333.985444L139.406400 336.391764L139.674240 345.406429
L139.718880 337.152637L140.076000 345.493636L140.343840 329.321388
L140.388480 336.867621L140.700960 345.423663L140.924160 326.024905
L141.013440 345.029138L141.147360 324.685935L141.415200 327.876987
L141.683040 346.016667L141.772320 343.887748L142.174080 322.505844
L142.218720 344.556887L142.486560 336.436335L142.665120 325.181468
L142.843680 344.616330L143.156160 345.718276L143.156160 345.718276
L143.334720 325.364256L143.557920 336.712170L143.825760 326.101789
L143.825760 326.101789L144.093600 345.166456L144.227520 345.163968
L144.495360 336.305652L144.807840 346.011944L145.075680 325.376882
L145.164960 336.633281L145.432800 325.914278L145.477440 345.034840
L145.700640 325.402744L145.834560 336.199726L145.879200 345.388516
L146.147040 337.088932L146.325600 336.190095L146.325600 336.190095
L146.548800 345.718967L146.638080 334.379566L146.816640 345.645850
L146.905920 336.947996L147.039840 335.614867L147.084480 336.694844
L147.263040 336.506769L147.396960 344.212070L147.664800 345.829190
L147.754080 335.881958L147.843360 337.136429L148.021920 344.580618
L148.066560 337.631328L148.423680 314.677716L148.468320 346.068449
L148.736160 336.529048L148.870080 345.272026L148.914720 336.830953
L149.137920 322.719656L149.227200 336.659374L149.450400 345.327794
L149.495040 336.350016L149.718240 345.321297L149.762880 336.231130
L149.986080 336.176824L150.120000 344.831075L150.298560 344.855290
L150.477120 334.492911L150.744960 325.231603L150.789600 345.334418
L151.012800 333.419363L151.057440 345.010740L151.280640 346.253380
L151.369920 344.327478L151.414560 345.338277L151.637760 345.976301
L151.771680 337.200238L152.039520 345.580980L152.218080 335.819658
L152.307360 336.755889L152.485920 345.172343L152.709120 345.476966
L152.843040 336.726559L153.066240 336.424654L153.155520 345.323347
L153.512640 335.700023L153.601920 344.971711L153.780480 344.860358
L154.182240 336.259930L154.450080 346.133076L154.494720 344.821882
L154.717920 314.928576L154.807200 337.384570L154.941120 345.268524
L155.119680 334.192689L155.208960 345.335892L155.566080 344.691613
L155.923200 333.956356L156.057120 345.486747L156.235680 336.462071
L156.414240 333.684173L156.458880 336.242822L156.503520 344.871107
L156.592800 336.483199L156.816000 336.816150L156.816000 336.816150
L157.128480 345.721121L157.396320 328.334216L157.485600 335.618346
L157.753440 345.529889L157.798080 336.090655L158.021280 333.843126
L158.065920 337.097123L158.244480 336.516445L158.378400 336.537228
L158.690880 325.412605L158.735520 345.868831L158.958720 336.921754
L159.181920 334.560718L159.271200 344.906888L159.628320 333.957876
L159.851520 345.076462L159.985440 341.474550L160.119360 344.993299
L160.253280 336.543713L160.431840 325.037123L160.565760 344.831247
L160.878240 345.687160L160.922880 336.924173L161.101440 333.065399
L161.235360 337.153847L161.324640 344.824070L161.503200 338.309211
L161.815680 345.047236L162.128160 345.336376L162.217440 336.009277
L162.351360 345.877667L162.529920 336.538322L162.619200 345.547492
L162.753120 344.995327L163.020960 345.263374L163.065600 336.335121
L163.154880 345.536467L163.244160 336.447775L163.422720 333.799626
L163.512000 336.025567L163.735200 345.473119L163.824480 326.548166
L164.047680 335.821893L164.226240 345.612557L164.404800 345.266415
L164.583360 336.642889L164.672640 345.148209L165.074400 334.165778
L165.386880 345.557664L165.788640 325.925868L165.922560 337.229556
L165.967200 336.220370L166.235040 336.971255L166.324320 334.443813
L166.547520 345.226084L166.636800 335.692696L166.770720 345.109766
L166.815360 336.352493L167.083200 344.534469L167.172480 326.032140
L167.529600 345.380152L167.708160 333.535887L167.886720 336.516895
L168.288480 345.358518L168.645600 315.109636L168.824160 345.323197
L169.002720 344.760077L169.181280 335.463114L169.225920 336.778307
L169.359840 336.600622L169.359840 336.600622L169.538400 345.598433
L169.672320 345.580013L169.895520 326.447182L170.029440 336.216407
L170.252640 333.901094L170.297280 335.971745L170.341920 344.994267
L170.654400 344.642124L171.011520 336.066659L171.279360 344.920147
L171.681120 325.499328L171.725760 345.648591L172.038240 337.777505
L172.082880 336.438870L172.261440 326.036218L172.395360 336.968859
L172.707840 345.586072L172.975680 345.728172L173.064960 337.684113
L173.109600 336.150052L173.243520 346.307420L173.422080 337.065270
L173.556000 328.805672L173.645280 345.155190L174.091680 333.724573
L174.136320 336.675894L174.359520 325.077880L174.404160 337.081893
L174.627360 345.107462L174.672000 336.716456L175.118400 345.824709
L175.207680 324.471548L175.386240 335.999278L175.564800 345.760266
L175.654080 345.684488L176.055840 333.508504L176.189760 345.459756
L176.368320 345.251796L176.636160 325.002724L176.680800 336.908114
L176.993280 335.924467L176.993280 335.924467L177.484320 345.744357
L177.752160 336.804975L177.975360 345.187722L178.020000 325.903023
L178.287840 327.599620L178.600320 345.514429L178.644960 337.174537
L178.868160 324.888987L178.912800 344.964972L179.403840 314.683315
L179.716320 345.472381L179.760960 335.970225L179.850240 345.696733
L180.028800 336.427269L180.252000 344.876175L180.341280 333.652159
L180.921600 345.531468L181.055520 324.676754L181.189440 336.160466
L181.457280 345.387744L181.501920 337.140046L181.680480 333.618647
L182.037600 345.287025L182.305440 325.492842L182.350080 344.259176
L182.394720 345.626254L182.617920 325.932710L182.662560 337.087619
L182.975040 335.909906L182.975040 335.909906L183.064320 337.247631
L183.332160 334.462015L183.421440 344.886866L183.689280 325.031201
L183.733920 336.401349L184.001760 334.746697L184.358880 345.203551
L184.716000 327.579944L184.894560 345.226303L185.117760 344.695277
L185.251680 335.780029L185.340960 336.787603L185.564160 344.567140
L185.653440 345.594148L185.876640 336.078190L185.965920 337.409798
L186.323040 345.010729L186.412320 346.125082L186.501600 324.590412
L186.769440 334.095160L186.992640 345.293499L187.126560 336.891087
L187.215840 344.802148L187.305120 336.261600L187.528320 345.133025
L187.617600 345.112819L187.974720 332.589830L188.197920 345.406764
L188.465760 336.097682L188.555040 336.897827L188.733600 345.659224
L188.912160 336.535937L189.135360 336.520673L189.135360 336.520673
L189.224640 333.493367L189.313920 335.100672L189.492480 345.204772
L189.537120 336.620413L189.760320 345.328773L189.760320 345.328773
L190.072800 335.087493L190.162080 335.813956L190.296000 345.688692
L190.474560 337.037587L190.608480 335.553823L190.653120 337.086363
L190.742400 345.310076L190.920960 345.239724L191.144160 325.656138
L191.322720 326.109162L191.501280 325.401546L191.545920 335.972586
L191.679840 331.346580L191.992320 345.685962L192.304800 346.324044
L192.304800 346.324044L192.438720 335.912936L192.572640 337.436444
L192.751200 345.404471L192.840480 334.387849L192.929760 336.108753
L193.286880 345.676942L193.420800 336.251716L193.688640 344.915240
L193.911840 310.512499L194.090400 336.605242L194.224320 345.904969
L194.402880 337.483757L194.536800 321.708580L194.581440 337.552612
L194.893920 345.625597L195.117120 325.754081L195.251040 336.938112
L195.384960 336.353103L195.563520 345.660261L195.652800 336.315986
L195.876000 336.452440L196.099200 345.687011L196.188480 345.081289
L196.545600 325.505076L196.590240 337.236019L196.947360 345.024899
L197.349120 325.705916L197.750880 345.676055L198.108000 314.498362
L198.197280 346.012796L198.465120 345.613041L198.554400 336.057270
L198.777600 337.188902L198.956160 345.598260L199.134720 344.970213
L199.625760 326.268069L199.715040 345.593100L199.982880 337.777332
L200.116800 325.787328L200.161440 335.797759L200.250720 345.466598
L200.563200 346.007140L200.563200 346.007140L200.786400 336.527793
L200.964960 325.831692L201.098880 336.281011L201.232800 337.297720
L201.500640 345.425829L201.545280 336.849765L201.679200 334.047548
L201.813120 345.374150L201.991680 345.730775L202.170240 336.884371
L202.482720 336.519959L202.482720 336.519959L202.661280 346.043750
L202.750560 337.224776L202.884480 335.458276L203.286240 345.210094
L203.598720 346.193706L203.598720 346.193706L203.955840 334.771868
L204.179040 345.460205L204.446880 346.191529L204.491520 336.092475
L204.804000 335.471927L204.804000 335.471927L204.937920 345.588733
L205.205760 345.328036L205.607520 325.089827L205.830720 345.312253
L205.920000 336.213838L206.143200 345.427361L206.187840 336.848590
L206.455680 338.087244L206.678880 334.172010L206.723520 346.346842
L207.036000 345.710339L207.393120 336.370337L207.571680 336.102843
L207.705600 345.390497L207.928800 334.853188L208.107360 337.140576
L208.196640 335.468390L208.419840 345.848878L208.776960 336.424977
L209.089440 336.150743L209.089440 336.150743L209.178720 337.508536
L209.401920 334.334592L209.446560 345.848417L209.848320 326.009376
L209.892960 335.878618L210.071520 345.435529L210.339360 344.684287
L210.607200 314.667014L210.696480 336.496654L210.830400 345.645043
L211.053600 345.563597L211.321440 333.943327L211.366080 337.061249
L211.723200 345.630125L212.035680 334.198045L212.080320 336.277279
L212.392800 333.844808L212.437440 344.811825L212.705280 336.277117
L212.839200 337.305162L213.062400 337.168777L213.107040 345.314431
L213.285600 326.335012L213.419520 336.233583L213.553440 334.016202
L213.732000 336.423502L213.865920 325.545373L213.955200 344.878410
L214.133760 345.667680L214.267680 336.973144L214.446240 345.724980
L214.758720 345.685582L214.937280 325.466012L215.205120 325.563644
L215.249760 345.998200L215.562240 345.059412L215.696160 345.215278
L215.740800 336.966900L215.964000 345.708161L216.142560 337.000908
L216.276480 337.260868L216.678240 345.839962L216.856800 323.398691
L217.035360 335.298804L217.392480 345.730752L217.571040 336.189105
L217.838880 336.055565L217.972800 345.132196L218.285280 345.506135
L218.285280 345.506135L218.731680 325.970853L218.999520 345.750106
L219.133440 345.303740L219.356640 335.892384L219.445920 336.886422
L219.669120 336.854074L219.669120 336.854074L219.936960 345.485169
L220.026240 344.811790L220.338720 335.757105L220.561920 335.694240
L220.606560 345.046833L220.695840 345.489615L220.874400 345.259860
L221.052960 312.444127L221.186880 337.164031L221.454720 336.027525
L221.454720 336.027525L221.544000 337.507338L221.856480 336.319212
L221.856480 336.319212L222.079680 345.992244L222.168960 336.236486
L222.302880 334.502001L222.481440 345.443155L222.615360 336.720349
L222.749280 333.866938L222.793920 336.621876L223.061760 338.557524
L223.195680 345.661805L223.329600 336.355154L223.552800 345.234171
L223.954560 335.380401L224.043840 336.447706L224.267040 345.744311
L224.356320 345.426739L224.445600 336.243675L224.668800 336.598318
L224.758080 334.016375L224.847360 336.247235L225.070560 344.482065
L225.115200 336.307012L225.159840 345.555176L225.204480 336.466241
L225.561600 345.316954L225.829440 336.350189L225.963360 337.685472
L226.231200 334.655032L226.320480 345.292116L226.365120 336.444618
L226.677600 336.567041L226.900800 337.359318L226.900800 337.359318
L227.213280 345.507644L227.481120 325.932388L227.525760 345.153036
L227.704320 336.317023L227.882880 336.872563L228.016800 345.185902
L228.240000 344.452988L228.507840 332.077386L228.552480 336.905004
L228.731040 339.613770L228.909600 346.204927L229.043520 337.216677
L229.266720 337.209535L229.311360 344.609245L229.400640 322.697364
L229.668480 336.851724L229.713120 335.440166L229.936320 345.876883
L230.070240 344.694666L230.382720 345.384276L230.382720 345.384276
L230.739840 327.076842L230.829120 345.200302L231.096960 344.998218
L231.364800 336.341457L231.588000 345.651852L231.588000 345.651852
L231.811200 335.495140L231.855840 336.689856L232.079040 335.316972
L232.123680 344.763948L232.302240 334.497059L232.436160 337.093079
L232.704000 335.943636L232.793280 344.670244L233.016480 324.706982
L233.150400 336.992728L233.239680 345.218953L233.284320 336.675997
L233.596800 336.324177L233.686080 344.947288L234.043200 324.981228
L234.400320 345.760381L234.712800 333.979811L234.846720 336.658429
L234.980640 325.563667L235.159200 337.023821L235.337760 345.087153
L235.382400 336.195372L235.650240 345.465907L235.694880 326.233037
L235.962720 336.797914L236.141280 336.790287L236.230560 344.817596
L236.543040 334.239114L236.587680 345.690812L236.766240 336.735095
L237.034080 345.277970L237.123360 344.710725L237.435840 345.420046
L237.480480 336.928020L237.792960 336.780196L237.837600 345.129362
L238.060800 336.669846L238.150080 336.811611L238.507200 345.815931
L238.775040 325.441751L238.864320 335.524861L239.042880 347.062568
L239.087520 344.910044L239.355360 345.987429L239.444640 334.491114
L239.757120 345.459767L239.891040 345.232846L240.114240 336.518415
L240.292800 333.987126L240.337440 345.244147L240.516000 336.812060
L240.962400 345.325789L241.230240 345.353219L241.274880 336.358506
L241.587360 335.713812L241.587360 335.713812L241.810560 301.338697
L241.855200 336.290412L242.033760 332.196388L242.167680 335.944869
L242.301600 345.281322L242.435520 344.730758L242.748000 345.814157
L242.748000 345.814157L242.792640 344.522961L242.837280 345.555625
L243.015840 325.376617L243.105120 336.721386L243.417600 335.988104
L243.462240 345.182354L243.596160 334.129501L243.819360 336.046153
L244.042560 345.206949L244.265760 345.370775L244.399680 340.170751
L244.622880 333.772612L244.667520 345.059297L244.890720 326.635304
L244.935360 335.906830L245.069280 344.936943L245.247840 344.645176
L245.560320 336.383194L245.649600 337.855622L245.917440 336.153450
L245.962080 345.120077L246.096000 336.000879L246.319200 336.847415
L246.631680 345.508497L246.676320 336.125203L246.810240 344.891566
L247.033440 336.732756L247.345920 336.511964L247.390560 344.901900
L247.569120 345.160685L247.613760 336.778479L247.881600 345.731858
L248.104800 322.139232L248.238720 336.274595L248.506560 321.699640
L248.774400 345.670813L248.819040 336.000845L249.131520 345.042017
L249.310080 336.403123L249.488640 336.486666L249.667200 345.164521
L249.756480 336.671148L249.935040 326.187084L249.979680 344.624809
L250.247520 335.976641L250.426080 324.532397L250.604640 344.309299
L250.827840 345.350868L250.961760 336.678797L251.095680 333.693562
L251.229600 336.025624L251.497440 344.883617L251.497440 344.883617
L251.720640 345.094030L251.765280 336.474685L252.077760 336.203482
L252.077760 336.203482L252.345600 345.554254L252.702720 332.945015
L252.747360 336.516572L252.925920 336.695224L252.925920 336.695224
L253.283040 345.141988L253.416960 345.578216L253.640160 336.387617
L253.818720 346.513006L253.908000 345.143048L254.309760 313.721211
L254.399040 324.671270L254.711520 345.112980L255.068640 334.820241
L255.515040 344.900863L255.693600 345.543425L255.872160 334.316909
L256.095360 344.706002L256.363200 336.146999L256.497120 345.767086
L256.586400 344.661742L256.809600 345.383159L256.854240 336.295457
L257.122080 335.760192L257.122080 335.760192L257.300640 337.196045
L257.300640 337.196045L257.389920 335.836973L257.613120 335.983899
L257.791680 344.854956L258.104160 345.065691L258.104160 345.065691
L258.372000 345.517943L258.416640 336.298625L258.729120 345.291875
L258.863040 344.865911L259.264800 324.481939L259.309440 326.418543
L259.666560 345.080344L259.845120 335.839012L259.979040 336.409344
L260.246880 336.356306L260.336160 345.189243L260.559360 314.495839
L260.604000 337.088402L260.916480 345.099514L261.139680 335.543835
L261.184320 345.421452L261.452160 336.528991L261.764640 336.289640
L261.764640 336.289640L262.032480 335.296765L262.077120 336.553286
L262.389600 262.342172L262.657440 344.609395L262.746720 335.859540
L262.925280 345.178886L262.969920 336.801946L263.103840 324.367304
L263.148480 335.865243L263.327040 345.569184L263.550240 343.692599
L263.818080 325.453398L263.862720 344.518318L264.264480 325.452303
L264.309120 336.160454L264.398400 345.484201L264.621600 345.118614
L264.889440 334.647740L264.934080 336.079642L265.291200 345.583503
L265.335840 325.374981L265.469760 336.393516L265.737600 336.269583
L265.826880 344.659645L265.960800 345.060772L266.050080 337.102295
L266.317920 336.743194L266.317920 336.743194L266.719680 314.859802
L266.764320 345.566638L267.076800 336.713161L267.255360 334.573690
L267.344640 336.608387L267.791040 345.481839L267.880320 335.964372
L268.192800 337.156969L268.282080 335.955663L268.460640 336.967177
L268.728480 335.779764L268.773120 345.488832L268.817760 325.848465
L269.040960 336.654950L269.219520 345.649144L269.353440 344.739421
L269.576640 333.582048L269.665920 335.894308L269.889120 345.511688
L269.978400 344.463564L270.290880 345.209172L270.335520 336.257637
L270.514080 336.041568L270.692640 344.834726L270.960480 334.448813
L271.049760 335.985558L271.183680 337.038670L271.272960 336.016812
L271.317600 344.825510L271.585440 336.442717L271.719360 337.239060
L271.897920 335.950871L271.987200 337.553649L272.031840 336.141366
L272.165760 336.623766L272.165760 336.623766L272.478240 335.033718
L272.478240 335.033718L272.701440 344.197970L272.746080 335.777357
L272.880000 336.808178L273.192480 344.799913L273.371040 344.930273
L273.504960 336.467831L273.772800 344.775802L273.996000 334.273882
L274.085280 336.123256L274.397760 334.550903L274.397760 334.550903
L274.844160 345.773180L274.888800 335.698998L275.201280 336.781037
L275.469120 336.009012L275.558400 345.495099L275.736960 325.496897
L275.870880 336.402893L276.004800 345.061359L276.228000 344.841224
L276.361920 325.978237L276.585120 336.165903L276.897600 345.838706
L277.165440 345.916742L277.165440 345.916742L277.254720 344.499183
L277.477920 335.414396L277.611840 337.246537L277.924320 345.386984
L278.058240 345.485825L278.102880 336.537976L278.460000 345.193920
L278.638560 325.918264L278.683200 337.408704L278.906400 333.415999
L278.951040 335.594799L279.040320 336.995988L279.174240 313.626781
L279.218880 336.313417L279.576000 345.038100L279.888480 324.239881
L280.022400 303.558843L280.200960 336.803962L280.468800 335.152881
L280.513440 344.960202L280.692000 325.537068L280.870560 337.430834
L281.138400 345.269825L281.227680 344.069844L281.316960 335.422230
L281.540160 336.522159L281.852640 335.988242L281.852640 335.988242
L281.986560 336.789792L281.986560 336.789792L282.254400 336.094664
L282.343680 344.879505L282.656160 325.481760L282.700800 337.207104
L282.834720 336.136573L282.879360 345.811392L283.102560 336.242546
L283.370400 345.700869L283.415040 344.665256L283.638240 345.067258
L283.772160 333.497376L283.861440 345.520477L284.129280 345.208239
L284.173920 336.371305L284.352480 336.672657L284.531040 336.254780
L284.575680 345.155927L284.664960 334.270426L284.888160 335.362164
L285.156000 337.326209L285.289920 334.661380L285.334560 345.215912
L285.468480 345.276173L285.602400 336.478349L285.691680 345.207306
L285.825600 337.061076L285.959520 345.318670L286.048800 345.221487
L286.227360 334.071671L286.316640 336.119282L286.584480 335.504943
L286.673760 344.542798L286.852320 276.666209L287.030880 337.134505
L287.298720 345.837208L287.343360 336.585370L287.611200 333.734066
L287.655840 334.810080L287.879040 346.287813L288.057600 345.130445
L288.414720 336.413940L288.548640 335.954868L288.771840 345.034691
L289.039680 345.163715L289.039680 345.163715L289.486080 325.981475
L289.887840 345.271035L290.244960 334.496909L290.378880 345.823546
L290.646720 345.652347L291.003840 335.584604L291.316320 344.788001
L291.494880 345.110400L291.628800 336.737964L291.718080 314.644815
L291.807360 336.421083L292.253760 344.830833L292.521600 325.747192
L292.610880 336.750324L292.968000 345.735014L293.280480 231.448735
L293.325120 237.442395L293.682240 345.759713L293.816160 325.486045
L293.994720 335.817181L294.039360 345.842819L294.307200 345.783306
L294.485760 332.585130L294.664320 338.117046L294.753600 323.945764
L294.976800 345.038642L295.021440 336.613236L295.289280 345.757513
L295.467840 336.461852L295.735680 336.695697L295.824960 345.478245
L295.958880 345.367031L296.271360 345.631807L296.271360 345.631807
L296.449920 336.224644L296.628480 336.443962L296.985600 345.310099
L297.298080 322.100974L297.342720 346.972539L297.610560 345.731985
L297.878400 314.103364L297.967680 336.019703L298.280160 335.630108
L298.280160 335.630108L298.503360 345.749368L298.681920 344.727694
L298.994400 335.949615L299.039040 337.041573L299.306880 345.468384
L299.440800 344.556760L299.664000 333.741715L299.708640 336.684511
L299.976480 345.280942L300.110400 345.718886L300.244320 337.157395
L300.378240 337.027461L300.467520 345.667277L300.601440 337.049303
L300.913920 336.797303L301.137120 345.515305L301.181760 332.966696
L301.449600 336.394103L301.762080 345.823926L301.806720 336.103730
L302.074560 345.232166L302.431680 334.414886L302.476320 335.897130
L302.788800 345.559173L303.012000 325.654353L303.145920 337.196586
L303.458400 335.987124L303.503040 344.676004L303.636960 345.424078
L303.815520 345.239942L303.949440 344.122237L304.261920 345.349705
L304.306560 336.879037L304.574400 336.256451L304.619040 345.439411
L304.797600 325.361526L304.842240 335.867916L305.020800 345.547261
L305.154720 344.923788L305.377920 335.291789L305.511840 336.864442
L305.779680 345.267994L305.868960 345.379311L306.136800 336.426912
L306.270720 337.500518L306.315360 336.448109L306.493920 335.979176
L306.627840 345.589102L306.940320 335.582796L307.029600 336.612568
L307.252800 332.946305L307.431360 345.600392L307.788480 336.206131
L307.877760 345.369220L308.056320 345.284329L308.100960 325.177494
L308.279520 336.811703L308.413440 345.163611L308.681280 345.376466
L308.770560 335.617079L308.815200 345.061878L308.859840 336.775841
L309.306240 345.496550L309.350880 344.460753L309.708000 324.626170
L309.931200 345.197618L310.020480 344.607494L310.466880 314.630888
L310.511520 345.043538L310.824000 336.277647L311.091840 345.451784
L311.582880 325.205165L311.984640 346.001979L312.029280 344.400457
L312.297120 345.210382L312.341760 335.699447L312.654240 344.877673
L312.788160 336.949471L313.056000 346.089888L313.279200 335.754789
L313.368480 336.111955L313.725600 345.777212L313.770240 336.562191
L314.038080 336.906271L314.395200 345.172781L314.663040 345.577985
L314.663040 345.577985L314.886240 333.923674L315.020160 337.053635
L315.288000 336.313267L315.377280 344.961458L315.600480 345.078420
L315.645120 336.343910L315.779040 345.297024L315.823680 336.407005
L316.136160 335.181082L316.404000 345.261197L316.761120 313.976275
L317.162880 337.011310L317.207520 335.784522L317.475360 333.603337
L317.520000 336.512379L317.653920 345.150605L317.832480 336.619423
L318.011040 346.177405L318.100320 337.237517L318.502080 345.799296
L318.769920 334.600174L318.814560 337.008879L319.127040 345.781601
L319.216320 325.152553L319.484160 336.314166L319.573440 335.795639
L319.618080 345.262775L319.885920 345.507494L319.930560 336.884475
L320.153760 344.804060L320.421600 345.214022L320.466240 336.870455
L320.600160 336.881583L320.600160 336.881583L320.912640 345.731558
L320.957280 334.172506L321.225120 335.235318L321.359040 337.022565
L321.537600 345.068859L321.894720 326.044662L321.939360 335.922705
L322.251840 345.141354L322.564320 345.167343L322.653600 336.521203
L322.698240 345.020394L322.742880 336.843821L323.010720 322.605101
L323.323200 346.124621L323.591040 336.643891L323.724960 337.055535
L323.992800 325.805414L324.037440 344.660682L324.216000 345.339060
L324.349920 345.254135L324.662400 345.328059L324.662400 345.328059
L324.930240 345.781509L324.974880 336.443789L325.064160 334.820713
L325.332000 345.656632L325.689120 334.185811L326.001600 345.677530
L326.046240 324.913513L326.314080 345.238744L326.537280 336.414828
L326.671200 336.450632L326.760480 345.427811L326.939040 335.337316
L327.028320 333.894079L327.296160 345.023747L327.608640 345.286990
L327.653280 336.740728L327.831840 324.745597L327.876480 336.266346
L328.144320 325.688083L328.188960 335.759950L328.278240 343.956511
L328.412160 336.176214L328.501440 333.828714L328.546080 335.621019
L328.813920 324.004712L328.858560 336.562053L329.037120 336.451219
L329.037120 336.451219L329.260320 345.555141L329.304960 336.448846
L329.662080 345.530592L329.929920 336.118856L330.019200 337.208532
L330.108480 337.244890L330.108480 337.244890L330.376320 345.669408
L330.465600 324.658587L330.733440 325.563068L331.001280 346.057217
L331.090560 344.834957L331.313760 345.849489L331.403040 325.640678
L331.492320 345.976255L331.760160 344.378546L332.072640 325.098006
L332.295840 345.377249L332.429760 344.276375L332.742240 333.720657
L332.920800 344.508250L333.054720 336.252614L333.411840 325.792685
L333.724320 345.764160L333.768960 336.855110L334.036800 345.768330
L334.170720 344.828436L334.483200 326.895736L334.527840 336.586556
L334.884960 345.074124L335.152800 325.145583L335.242080 336.707148
L335.465280 336.750820L335.465280 336.750820L335.688480 336.031741
L335.777760 344.776504L336.000960 334.099953L336.090240 336.844212
L336.447360 345.939448L336.670560 336.547331L337.072320 345.821138
L337.340160 346.692972L337.384800 335.935158L337.474080 345.569990
L337.563360 336.473234L337.697280 345.505812L337.741920 337.156842
L337.875840 336.766810L337.875840 336.766810L338.054400 345.218619
L338.099040 336.458062L338.366880 334.004452L338.366880 334.004452
L338.500800 344.647976L338.634720 336.056532L338.679360 346.007520
L338.947200 344.772196L339.081120 345.264008L339.170400 336.209841
L339.616800 345.696837L339.929280 322.709299L339.973920 338.322010
L340.152480 336.315548L340.286400 337.377116L340.331040 336.096288
L340.464960 335.856730L340.554240 344.895022L341.000640 325.076026
L341.134560 324.936783L341.357760 337.095107L341.491680 336.250840
L341.625600 337.422263L341.759520 345.721524L341.982720 325.587882
L342.072000 344.879562L342.205920 336.956924L342.473760 337.247148
L342.518400 335.693929L342.652320 344.058843L342.696960 336.648396
L342.964800 337.176138L342.964800 337.176138L343.277280 336.620736
L343.277280 336.620736L343.589760 335.762346L343.634400 344.954788
L343.857600 335.906784L343.902240 344.900494L344.304000 325.851126
L344.661120 345.295423L344.928960 333.720058L344.973600 336.989007
L345.241440 336.633408L345.286080 345.280769L345.553920 321.976374
L345.643200 336.519959L345.732480 345.484132L345.955680 345.188344
L346.312800 335.970732L346.625280 345.785161L346.893120 336.104156
L346.937760 345.032225L347.339520 336.699014L347.518080 334.459434
L347.562720 335.674437L347.741280 333.992010L347.830560 336.607188
L348.009120 345.413434L348.098400 336.789239L348.321600 336.113718
L348.410880 345.258858L348.946560 335.914479L348.991200 345.576108
L349.125120 345.163910L349.303680 336.581891L349.660800 345.395255
L349.750080 345.402674L349.928640 336.732987L350.196480 335.820707
L350.241120 337.172118L350.598240 345.453604L350.776800 325.472521
L350.866080 336.112451L351.178560 345.295135L351.446400 345.648776
L351.491040 336.549612L351.758880 336.268454L351.803520 345.000142
L352.026720 345.127254L352.116000 336.466356L352.339200 326.013638
L352.428480 336.935232L352.651680 345.171848L352.696320 337.437078
L352.740960 335.973462L352.919520 337.255396L353.053440 336.670364
L353.276640 345.678013L353.499840 336.600979L353.589120 336.698450
L353.678400 325.934796L353.901600 333.778395L354.035520 344.829565
L354.169440 335.972010L354.348000 336.265056L354.348000 336.265056
L354.526560 345.331549L354.839040 345.690236L354.883680 334.006525
L354.972960 333.067668L355.062240 345.028942L355.240800 336.354209
L355.419360 345.056682L355.642560 345.531894L355.687200 336.398296
L355.955040 345.661563L356.044320 345.260068L356.267520 334.339027
L356.356800 335.871429L356.713920 345.532078L356.981760 333.628508
L357.026400 336.251197L357.204960 336.528426L357.249600 334.112014
L357.562080 345.292946L357.919200 336.577778L358.008480 344.725574
L358.053120 335.658874L358.187040 345.612061L358.365600 336.542077
L358.588800 345.615529L358.722720 325.362885L358.945920 336.513220
L359.124480 335.343444L359.258400 344.887972L359.570880 333.451987
L359.615520 336.630067L359.928000 344.679656L359.972640 336.087625
L360.195840 336.163277L360.419040 344.880184L360.463680 336.620598
L360.686880 345.495698L360.731520 336.161007L360.865440 336.099341
L360.865440 336.099341L360.954720 333.869437L360.999360 336.053042
L361.133280 345.299708L361.401120 345.182769L361.758240 333.382395
L361.802880 344.438139L362.070720 335.536393L362.338560 344.825810
L362.784960 322.303853L363.052800 345.344982L363.142080 336.604067
L363.320640 335.187210L363.454560 344.269463L363.722400 345.249516
L363.722400 345.249516L363.990240 335.316603L364.124160 336.450954
L364.302720 336.162447L364.392000 344.441123L364.704480 345.418180
L364.793760 336.574057L364.927680 336.349624L365.150880 345.700236
L365.284800 325.643328L365.508000 335.319322L365.775840 325.677588
L365.865120 344.556622L365.954400 344.922002L366.132960 336.234758
L366.266880 337.795707L366.534720 345.133371L366.579360 336.894820
L366.757920 313.523885L366.802560 345.448869L367.070400 336.426647
L367.293600 335.543121L367.382880 344.805051L367.472160 333.326488
L367.650720 335.681879L367.963200 345.022744L368.052480 336.197710
L368.231040 336.506872L368.409600 345.575866L368.498880 345.413917
L368.543520 326.655775L368.632800 344.918938L369.123840 325.200856
L369.168480 335.928730L369.480960 333.951494L369.525600 344.168675
L369.659520 344.510035L369.838080 335.520991L370.195200 344.896589
L370.507680 336.531732L370.820160 345.535972L371.088000 325.853775
L371.132640 336.527885L371.489760 345.300987L371.757600 336.320536
L372.070080 336.676850L372.070080 336.676850L372.159360 336.297565
L372.159360 336.297565L372.248640 345.310595L372.248640 345.310595
L372.471840 344.205262L372.739680 325.377665L372.828960 336.515812
L373.141440 319.674413L373.409280 345.915901L373.409280 345.915901
L373.453920 334.239229L373.498560 336.413710L373.543200 116.949876
L373.587840 336.369635L373.855680 333.952036L373.989600 335.007855
L374.168160 325.202239L374.302080 345.064884L374.436000 336.584644
L374.748480 336.124086L374.793120 345.068018L375.105600 336.057420
L375.284160 325.342806L375.328800 344.860911L375.596640 336.068122
L375.641280 337.495196L375.953760 345.415588L376.087680 325.684120
L376.310880 335.926737L376.578720 324.254304L376.623360 344.174527
L376.891200 344.743476L376.935840 336.719912L377.025120 334.615242
L377.337600 346.203014L377.382240 344.480302L377.694720 345.679200
L377.739360 336.904992L377.873280 345.463453L378.007200 344.745861
L378.275040 336.223607L378.498240 335.937784L378.542880 339.658525
L378.766080 345.575393L378.855360 335.892027L378.989280 344.641789
L379.212480 302.820607L379.257120 336.561615L379.435680 345.611589
L379.569600 345.003391L379.882080 325.439631L379.926720 336.921546
L380.283840 345.472151L380.373120 335.273437L380.462400 336.328785
L380.730240 335.047242L380.998080 345.525201L381.087360 344.786676
L381.399840 332.349535L381.444480 344.998817L381.712320 337.004168
L381.890880 335.573199L382.203360 345.806312L382.605120 326.049316
L382.962240 345.204161L383.319360 336.518381L383.676480 345.178990
L383.944320 335.791619L384.033600 336.598963L384.346080 335.553431
L384.390720 345.119789L384.658560 345.408872L384.703200 336.244470
L384.792480 335.083599L385.015680 336.328370L385.372800 345.534647
L385.596000 345.622913L385.640640 335.914330L385.997760 345.374220
L386.265600 345.429711L386.399520 336.769275L386.667360 345.369542
L386.712000 325.475551L386.890560 344.839910L387.069120 344.446445
L387.292320 344.865761L387.515520 336.259884L387.828000 335.386356
L387.828000 335.386356L387.917280 337.114898L388.140480 325.114664
L388.185120 335.724515L388.319040 345.196224L388.363680 335.954915
L388.542240 337.402783L388.542240 337.402783L388.765440 322.070250
L388.899360 344.343779L388.988640 346.840854L389.077920 336.318152
L389.256480 345.380072L389.301120 336.621324L389.568960 334.944092
L389.613600 336.625862L389.926080 334.536906L389.926080 334.536906
L390.149280 345.247016L390.327840 345.066474L390.595680 321.808954
L390.684960 335.493896L390.863520 344.842341L390.997440 336.448869
L391.042080 334.026536L391.086720 335.648448L391.399200 335.630304
L391.488480 345.322840L391.577760 313.719229L391.800960 336.062557
L392.068800 336.050853L392.113440 344.627908L392.425920 345.285009
L392.470560 336.435725L392.649120 336.158047L392.738400 343.778492
L392.916960 344.737359L392.961600 336.596959L393.274080 345.069366
L393.363360 335.910424L393.631200 336.680133L393.899040 336.616404
L393.899040 336.616404L394.032960 333.090444L394.345440 345.259457
L394.657920 335.739191L394.702560 345.276841L394.970400 336.010476
L395.059680 336.216511L395.059680 336.216511L395.416800 344.808634
L395.550720 325.962858L395.773920 334.565050L396.175680 345.908644
L396.532800 336.181110L396.711360 344.928453L396.756000 335.747267
L396.934560 344.978715L397.023840 336.302266L397.247040 325.071337
L397.291680 345.499903L397.604160 336.548114L397.782720 345.612234
L397.827360 313.707122L398.095200 336.362769L398.184480 334.059782
L398.229120 345.250668L398.452320 344.967425L398.764800 335.822884
L399.032640 345.124454L399.211200 344.893640L399.300480 325.779425
L399.523680 344.405768L399.702240 345.100481L399.836160 335.724849
L400.148640 335.716819L400.148640 335.716819L400.371840 336.345350
L400.371840 336.345350L400.595040 325.216535L400.684320 345.174106
L400.818240 325.844721L401.086080 333.237335L401.175360 345.790621
L401.443200 344.329425L401.577120 345.276760L401.711040 336.287532
L402.112800 345.177608L402.336000 325.140330L402.380640 336.076877
L402.469920 345.561189L402.603840 345.503267L402.693120 325.052686
L402.782400 335.899768L402.960960 344.618565L403.005600 336.782742
L403.094880 344.634371L403.184160 336.105032L403.496640 345.336503
L403.764480 335.816076L403.809120 344.567647L404.121600 314.526920
L404.166240 336.808063L404.434080 344.806399L404.523360 344.717821
L404.791200 345.135329L405.014400 336.622257L405.148320 335.494276
L405.371520 326.292468L405.416160 343.920131L405.594720 344.974694
L405.817920 336.307726L406.130400 335.859771L406.130400 335.859771
L406.308960 334.421418L406.308960 334.421418L406.442880 345.357815
L406.666080 344.787633L407.023200 321.858179L407.067840 338.414124
L407.335680 336.930371L407.603520 337.046723L407.603520 337.046723
L407.916000 345.075195L408.228480 336.274548L408.585600 345.565336
L408.853440 336.157839L409.165920 334.393713L409.165920 334.393713
L409.433760 344.348813L409.612320 343.764069L409.835520 334.418907
L409.880160 344.084602L409.969440 345.292520L410.371200 322.515268
L410.460480 345.270781L410.728320 345.228330L410.862240 335.954949
L411.040800 344.850382L411.174720 336.197652L411.353280 345.667334
L411.397920 336.323866L411.531840 345.249700L411.621120 336.950185
L411.799680 336.785668L411.933600 344.716370L412.112160 345.214184
L412.246080 337.482340L412.513920 334.042641L412.558560 336.628800
L412.871040 335.424810L412.871040 335.424810L412.960320 336.094479
L412.960320 336.094479L413.228160 344.977102L413.317440 344.909157
L413.674560 335.094866L413.763840 336.803512L414.120960 345.200579
L414.165600 336.629284L414.299520 336.645539L414.478080 345.123176
L414.567360 344.861960L414.879840 345.559265L414.924480 336.723875
L415.058400 345.012595L415.192320 336.263420L415.504800 335.373189
L415.549440 345.124616L415.728000 336.363898L415.906560 336.408952
L416.308320 344.402945L416.620800 302.456033L416.665440 336.546616
L416.799360 335.604822L416.977920 336.813304L417.201120 335.042749
L417.201120 335.042749L417.290400 344.678642L417.290400 344.678642
L417.468960 345.339452L417.558240 345.296033L417.915360 336.485526
L418.183200 345.176778L418.227840 336.481056L418.406400 345.801784
L418.540320 336.601279L418.763520 345.447498L418.942080 336.546732
L419.076000 336.879752L419.388480 335.736081L419.388480 335.736081
L419.433120 334.149926L419.477760 345.316228L419.700960 336.323635
L420.102720 345.064205L420.192000 324.944294L420.459840 335.334701
L420.638400 345.782039L420.683040 344.679621L421.040160 325.838684
L421.084800 336.251474L421.263360 335.425064L421.308000 344.670451
L421.620480 321.804841L421.665120 346.727428L421.977600 344.897833
L422.156160 345.098097L422.334720 336.868358L422.557920 335.725044
L422.602560 336.854396L422.781120 345.428801L422.915040 335.699447
L423.048960 344.253128L423.182880 336.125180L423.316800 332.993825
L423.584640 345.318555L423.986400 334.789655L424.298880 344.798784
L424.700640 324.048591L424.968480 321.512175L425.057760 344.406033
L425.236320 345.552549L425.236320 345.552549L425.325600 323.819343
L425.504160 336.232604L425.727360 345.756580L425.861280 335.464255
L425.905920 336.538299L426.263040 344.749029L426.530880 345.088236
L426.575520 336.981001L426.664800 334.992154L426.843360 345.312852
L427.066560 344.414339L427.245120 335.917325L427.379040 336.797695
L427.736160 345.430932L427.870080 333.459878L428.004000 336.577029
L428.316480 334.234737L428.361120 336.287647L428.584320 337.377324
L428.807520 325.421556L428.896800 335.156394L428.986080 344.762277
L429.075360 336.490675L429.387840 335.984037L429.432480 345.030843
L429.834240 335.313757L429.878880 344.199640L429.923520 335.879977
L430.191360 336.899716L430.369920 336.506273L430.459200 344.382854
L430.816320 335.116835L430.860960 336.611370L431.173440 345.383608
L431.441280 333.930148L431.485920 336.443604L431.664480 345.130214
L431.887680 345.380187L431.932320 336.203009L432.200160 335.824013
L432.200160 335.824013L432.468000 337.692488L432.468000 337.692488
L432.780480 345.427373L432.825120 335.558730L433.137600 335.884792
L433.405440 345.745129L433.494720 345.221983L433.807200 345.348392
L433.851840 336.271645L433.941120 336.183345L434.075040 344.692270
L434.387520 325.685019L434.476800 336.444134L434.789280 344.982954
L435.191040 313.314152L435.503520 345.074826L435.949920 325.920315
L436.128480 345.519464L436.307040 336.047178L436.530240 345.405358
L436.619520 336.101057L436.753440 345.255921L436.798080 336.661678
L437.065920 345.172596L437.110560 334.580728L437.378400 335.120256
L437.735520 344.329759L438.003360 333.040504L438.092640 336.518623
L438.181920 335.720897L438.360480 344.542383L438.583680 325.515594
L438.628320 336.182354L438.762240 335.925619L438.896160 344.441295
L439.164000 335.787045L439.253280 337.126199L439.387200 333.933431
L439.610400 344.684125L439.833600 345.067788L439.922880 344.477848
L440.101440 334.672543L440.235360 336.366075L440.324640 344.575688
L440.369280 336.580762L440.547840 325.433779L440.815680 344.978692
L440.904960 336.371570L441.172800 345.139695L441.396000 322.567338
L441.529920 336.299420L441.753120 345.476287L441.797760 335.643875
L441.976320 335.621802L441.976320 335.621802L442.065600 344.892660
L442.110240 336.145467L442.244160 345.616681L442.378080 335.772899
L442.556640 335.855474L442.556640 335.855474L442.779840 325.317312
L442.913760 344.639439L443.047680 324.988358L443.092320 335.931045
L443.360160 345.186582L443.494080 334.321482L443.717280 336.871572
L443.851200 344.361842L444.119040 345.145548L444.208320 332.566226
L444.252960 345.277659L444.565440 344.796284L444.877920 335.600306
L445.413600 344.941044L445.726080 345.294916L445.770720 336.368079
L446.083200 344.958843L446.127840 333.748915L446.440320 335.259003
L446.708160 345.375602L446.797440 344.935665L447.154560 324.600088
L447.467040 344.916023L447.511680 335.650660L447.734880 344.562290
L447.824160 336.638465L448.092000 345.508416L448.136640 170.165111
L448.315200 336.455850L448.493760 333.675233L448.538400 336.377019
L448.895520 344.887592L449.118720 335.925400L449.208000 336.195613
L449.520480 345.271496L449.788320 326.221920L449.832960 335.232196
L449.966880 345.058410L450.145440 336.495986L450.368640 344.973934
L450.413280 336.560579L450.547200 345.322068L450.770400 344.849691
L451.082880 324.508032L451.127520 335.569916L451.484640 345.425253
L451.752480 335.643725L451.841760 336.957627L452.064960 345.514188
L452.109600 324.769386L452.377440 334.980081L452.600640 345.204611
L452.779200 344.503503L452.957760 344.674276L453.180960 335.330588
L453.225600 345.449791L453.538080 345.200509L453.672000 314.473697
L453.895200 324.386554L453.939840 344.991698L454.252320 344.248969
L454.475520 335.836477L454.654080 325.483096L454.788000 344.896854
L454.877280 345.072787L455.100480 336.901571L455.323680 335.745251
L455.457600 345.313567L455.502240 324.979615L455.725440 336.583791
L455.859360 333.267252L455.904000 336.912399L456.171840 344.980858
L456.216480 336.365361L456.350400 335.308401L456.439680 334.603734
L456.662880 344.656938L456.796800 327.718287L456.930720 335.944316
L457.109280 324.625409L457.153920 335.386426L457.421760 336.574322
L457.689600 344.945503L458.091360 326.167880L458.225280 344.779684
L458.359200 335.472330L458.537760 345.095009L458.716320 344.729295
L459.073440 333.108749L459.519840 345.213562L459.787680 322.683299
L459.876960 332.545329L460.100160 325.774783L460.234080 344.321729
L460.591200 325.928344L460.814400 324.979361L460.859040 336.257752
L460.992960 336.773157L461.126880 336.656782L461.439360 345.349452
L461.662560 345.389702L461.796480 336.175476L462.064320 345.177193
L462.153600 345.013125L462.421440 336.291402L462.644640 335.883260
L462.644640 335.883260L462.778560 336.907342L462.823200 334.541537
L462.867840 335.870796L463.046400 344.405111L463.135680 344.929617
L463.314240 335.881094L463.403520 345.179232L463.626720 344.649588
L463.983840 325.114099L464.340960 345.303521L464.564160 345.467796
L464.608800 336.813592L464.921280 345.109755L465.189120 325.874477
L465.233760 336.518830L465.323040 336.241071L465.323040 336.241071
L465.635520 344.224109L466.037280 314.158176L466.215840 345.034115
L466.394400 336.243156L466.751520 344.874447L466.796160 327.539013
L466.974720 336.228918L467.287200 324.722972L467.376480 344.895483
L467.599680 344.773924L467.778240 325.625576L467.912160 335.574029
L468.046080 334.693198L468.224640 336.733805L468.403200 336.491424
L468.447840 345.002561L468.849600 335.447090L468.894240 345.265102
L469.162080 344.855796L469.385280 324.094902L469.474560 340.839809
L469.697760 333.648876L469.742400 335.260316L470.010240 345.493486
L470.099520 345.378436L470.501280 325.399588L470.813760 344.710633
L471.304800 323.246281L471.483360 345.156756L471.617280 336.050772
L471.929760 345.409321L472.286880 295.385149L472.331520 345.172470
L472.644000 344.652399L473.001120 335.734111L473.090400 345.124904
L473.313600 336.683762L473.492160 335.660394L473.536800 344.938740
L473.804640 344.437563L474.161760 324.997862L474.474240 344.901059
L474.518880 336.136781L474.786720 335.204847L474.831360 336.899451
L475.099200 336.815124L475.099200 336.815124L475.277760 325.657578
L475.634880 345.108223L475.858080 326.651259L475.992000 336.998915
L476.036640 335.958555L476.170560 345.160719L476.304480 336.255610
L476.438400 344.639889L476.527680 336.522851L476.795520 344.841811
L476.929440 345.225289L477.152640 336.330190L477.509760 345.054079
L477.777600 325.197919L477.822240 336.042444L477.956160 324.865647
L478.134720 344.620846L478.447200 313.979708L478.491840 336.346180
L478.759680 335.217658L478.759680 335.217658L478.893600 345.285320
L479.072160 344.588682L479.206080 326.313389L479.473920 336.906340
L479.607840 344.247310L479.697120 336.233042L479.831040 334.324166
L480.009600 345.060288L480.098880 335.644554L480.411360 345.322414
L480.723840 334.335882L480.768480 336.446127L480.902400 345.055300
L481.036320 344.864114L481.304160 335.795662L481.572000 345.429988
L481.884480 328.410156L481.929120 344.347200L482.063040 336.058111
L482.375520 344.964684L482.464800 333.346568L482.688000 336.661263
L482.911200 336.105389L482.911200 336.105389L483.089760 345.266968
L483.134400 325.137635L483.357600 335.004019L483.446880 336.122692
L483.580800 344.678319L483.714720 336.198943L484.116480 344.910828
L484.295040 336.277636L484.518240 344.494886L484.741440 345.327990
L484.830720 336.845123L484.920000 336.037075L485.098560 344.835729
L485.455680 325.230912L485.500320 336.011754L485.723520 344.575872
L485.902080 336.206995L486.214560 345.024058L486.348480 326.413313
L486.482400 336.568746L486.616320 336.202387L486.660960 344.568142
L486.884160 345.033746L487.062720 335.920884L487.241280 336.876549
L487.285920 335.439671L487.375200 336.540061L487.509120 334.268006
L487.687680 335.120590L487.821600 344.488044L488.000160 335.556956
L488.178720 345.438513L488.268000 344.167811L488.535840 344.316845
L488.535840 344.316845L488.803680 334.282533L488.937600 336.539255
L489.160800 321.346426L489.205440 337.594326L489.428640 324.806388
L489.517920 336.818523L489.562560 335.717591L489.830400 345.024507
L490.053600 325.183657L490.410720 329.096333L490.500000 328.867373
L490.723200 343.821923L490.991040 344.941644L491.035680 336.106380
L491.303520 345.411418L491.482080 321.329076L491.660640 335.930815
L492.017760 344.955064L492.330240 345.185764L492.374880 334.977362
L492.776640 345.015636L492.910560 335.117537L493.133760 336.013206
L493.490880 345.479432L494.071200 324.805847L494.339040 343.999895
L494.562240 344.579397L494.606880 336.178368L494.874720 345.405761
L494.919360 336.470826L495.187200 345.028827L495.365760 345.416233
L495.499680 344.870024L495.767520 325.238492L495.812160 336.474824
L495.990720 345.253824L496.169280 335.808081L496.660320 345.166687
L496.972800 314.181285L497.329920 345.319050L497.508480 328.052874
L497.597760 336.372123L497.731680 345.434941L498.044160 323.408540
L498.088800 336.009381L498.445920 344.902568L498.713760 325.215924
L498.803040 336.429619L499.204800 345.298545L499.338720 322.055516
L499.472640 344.641144L499.740480 324.647954L499.785120 335.020677
L499.874400 344.612552L499.919040 335.906853L500.052960 325.215003
L500.142240 326.056343L500.499360 344.844000L500.990400 324.595711
L501.258240 345.016178L501.302880 336.471368L501.570720 345.808869
L501.927840 334.348128L502.106400 345.112692L502.374240 344.835556
L502.642080 345.070403L502.731360 336.067096L502.999200 345.188114
L503.043840 289.924070L503.222400 344.795939L503.534880 324.676351
L503.579520 336.128279L503.847360 325.147116L503.892000 336.649432
L503.981280 345.311654L504.070560 336.576995L504.427680 345.393089
L504.561600 324.814591L504.695520 336.148381L504.784800 345.142679
L504.918720 344.783958L504.963360 326.273691L505.008000 336.211764
L505.320480 327.514188L505.632960 344.514712L505.900800 333.186359
L505.945440 336.027364L506.124000 344.624774L506.168640 336.232166
L506.347200 335.418820L506.481120 344.748741L506.748960 325.336020
L506.793600 336.013390L507.150720 345.528357L507.418560 334.304963
L507.463200 344.504033L507.864960 335.276156L507.909600 344.658367
L508.177440 344.596170L508.489920 345.017111L508.579200 336.422465
L508.802400 335.305175L509.025600 344.642066L509.382720 314.816429
L509.650560 344.725667L509.739840 336.036764L509.784480 344.822872
L509.963040 344.385838L510.141600 345.372411L510.275520 336.344878
L510.588000 345.225093L510.721920 335.804106L510.855840 336.065852
L511.123680 344.900333L511.212960 345.119052L511.436160 335.837457
L511.525440 325.251729L511.793280 344.718996L512.016480 344.787598
L512.150400 333.470915L512.552160 345.348818L512.596800 335.678515
L512.864640 335.751333L512.953920 345.261946L513.132480 336.380694
L513.266400 344.182510L513.444960 333.856109L513.668160 345.315007
L513.846720 344.831213L513.980640 324.814314L514.203840 336.266853
L514.427040 344.530322L514.516320 336.513554L514.650240 329.180141
L514.739520 336.392076L514.918080 344.625258L514.962720 336.151319
L515.096640 334.334892L515.141280 335.772415L515.275200 345.578170
L515.409120 345.436497L515.453760 302.967199L515.721600 334.446705
L515.766240 345.625793L515.900160 336.465297L516.257280 344.972367
L516.614400 326.696268L516.659040 333.668506L516.882240 345.231924
L516.971520 327.661033L517.105440 336.279732L517.373280 334.155663
L517.596480 344.772173L517.685760 336.037260L517.819680 336.273915
L517.819680 336.273915L518.132160 335.962161L518.132160 335.962161
L518.266080 336.320421L518.266080 336.320421L518.355360 344.958417
L518.355360 344.958417"/>
</g>
<g id="matplotlib.axis1">
<g id="xtick1">
<g id="line2d2">
<path style="fill: none; stroke: #000000; stroke-width: 0.500000; stroke-linejoin: round; stroke-linecap: butt; stroke-dasharray: 1.000000,3.000000; stroke-dashoffset: 0.000000; opacity: 1.000000" clip-path="url(#p50431ccdcb28178602d99d9270004dde)" d="M72.000000 388.800000L72.000000 43.200000"/>
</g>
<g id="line2d3">
<defs><path id="m30e32995789d870ad79a2e54c91cf9c6" d="M0.000000 0.000000L0.000000 -4.000000"/></defs>
<g ><use style="fill: none; stroke: #000000; stroke-width: 0.500000; stroke-linejoin: round; stroke-linecap: butt;  opacity: 1.000000" xlink:href="#m30e32995789d870ad79a2e54c91cf9c6" x="72.000000" y="388.800000"/>
</g></g>
<g id="line2d4">
<defs><path id="m9281cae24120827b11d5ea8a7ad3e96b" d="M0.000000 0.000000L0.000000 4.000000"/></defs>
<g ><use style="fill: none; stroke: #000000; stroke-width: 0.500000; stroke-linejoin: round; stroke-linecap: butt;  opacity: 1.000000" xlink:href="#m9281cae24120827b11d5ea8a7ad3e96b" x="72.000000" y="43.200000"/>
</g></g>
<g id="text1">
<defs>
<path id="c_7a2040fe3b94fcd41d0a72c84e93b115" d="M31.781250 -66.406250q-7.609375 0.000000 -11.453125 7.500000q-3.828125 7.484375 -3.828125 22.531250q0.000000 14.984375 3.828125 22.484375q3.843750 7.500000 11.453125 7.500000q7.671875 0.000000 11.500000 -7.500000q3.843750 -7.500000 3.843750 -22.484375q0.000000 -15.046875 -3.843750 -22.531250q-3.828125 -7.500000 -11.500000 -7.500000M31.781250 -74.218750q12.265625 0.000000 18.734375 9.703125q6.468750 9.687500 6.468750 28.140625q0.000000 18.406250 -6.468750 28.109375q-6.468750 9.687500 -18.734375 9.687500q-12.250000 0.000000 -18.718750 -9.687500q-6.468750 -9.703125 -6.468750 -28.109375q0.000000 -18.453125 6.468750 -28.140625q6.468750 -9.703125 18.718750 -9.703125"/>
</defs>
<g style="fill: #000000; opacity: 1.000000" transform="translate(68.976562,401.706250)scale(0.120000)">
<use xlink:href="#c_7a2040fe3b94fcd41d0a72c84e93b115"/>
</g>
</g>
</g>
<g id="xtick2">
<g id="line2d5">
<path style="fill: none; stroke: #000000; stroke-width: 0.500000; stroke-linejoin: round; stroke-linecap: butt; stroke-dasharray: 1.000000,3.000000; stroke-dashoffset: 0.000000; opacity: 1.000000" clip-path="url(#p50431ccdcb28178602d99d9270004dde)" d="M161.280000 388.800000L161.280000 43.200000"/>
</g>
<g id="line2d6">
<g ><use style="fill: none; stroke: #000000; stroke-width: 0.500000; stroke-linejoin: round; stroke-linecap: butt;  opacity: 1.000000" xlink:href="#m30e32995789d870ad79a2e54c91cf9c6" x="161.280000" y="388.800000"/>
</g></g>
<g id="line2d7">
<g ><use style="fill: none; stroke: #000000; stroke-width: 0.500000; stroke-linejoin: round; stroke-linecap: butt;  opacity: 1.000000" xlink:href="#m9281cae24120827b11d5ea8a7ad3e96b" x="161.280000" y="43.200000"/>
</g></g>
<g id="text2">
<defs>
<path id="c_ed3f3ed3ebfbd18bcb9c012009a68ad1" d="M19.187500 -8.296875l34.421875 0.000000l0.000000 8.296875l-46.281250 0.000000l0.000000 -8.296875q5.609375 -5.812500 15.296875 -15.593750q9.703125 -9.796875 12.187500 -12.640625q4.734375 -5.312500 6.609375 -9.000000q1.890625 -3.687500 1.890625 -7.250000q0.000000 -5.812500 -4.078125 -9.468750q-4.078125 -3.671875 -10.625000 -3.671875q-4.640625 0.000000 -9.796875 1.609375q-5.140625 1.609375 -11.000000 4.890625l0.000000 -9.968750q5.953125 -2.390625 11.125000 -3.609375q5.187500 -1.218750 9.484375 -1.218750q11.328125 0.000000 18.062500 5.671875q6.734375 5.656250 6.734375 15.125000q0.000000 4.500000 -1.687500 8.531250q-1.671875 4.015625 -6.125000 9.484375q-1.218750 1.421875 -7.765625 8.187500q-6.531250 6.765625 -18.453125 18.921875"/>
</defs>
<g style="fill: #000000; opacity: 1.000000" transform="translate(146.834688,401.706250)scale(0.120000)">
<use xlink:href="#c_ed3f3ed3ebfbd18bcb9c012009a68ad1"/>
<use xlink:href="#c_7a2040fe3b94fcd41d0a72c84e93b115" x="63.623047"/>
<use xlink:href="#c_7a2040fe3b94fcd41d0a72c84e93b115" x="127.246094"/>
<use xlink:href="#c_7a2040fe3b94fcd41d0a72c84e93b115" x="190.869141"/>
</g>
</g>
</g>
<g id="xtick3">
<g id="line2d8">
<path style="fill: none; stroke: #000000; stroke-width: 0.500000; stroke-linejoin: round; stroke-linecap: butt; stroke-dasharray: 1.000000,3.000000; stroke-dashoffset: 0.000000; opacity: 1.000000" clip-path="url(#p50431ccdcb28178602d99d9270004dde)" d="M250.560000 388.800000L250.560000 43.200000"/>
</g>
<g id="line2d9">
<g ><use style="fill: none; stroke: #000000; stroke-width: 0.500000; stroke-linejoin: round; stroke-linecap: butt;  opacity: 1.000000" xlink:href="#m30e32995789d870ad79a2e54c91cf9c6" x="250.560000" y="388.800000"/>
</g></g>
<g id="line2d10">
<g ><use style="fill: none; stroke: #000000; stroke-width: 0.500000; stroke-linejoin: round; stroke-linecap: butt;  opacity: 1.000000" xlink:href="#m9281cae24120827b11d5ea8a7ad3e96b" x="250.560000" y="43.200000"/>
</g></g>
<g id="text3">
<defs>
<path id="c_a0416418d96557a09b8c1332d34883ba" d="M37.796875 -64.312500l-24.906250 38.921875l24.906250 0.000000zM35.203125 -72.906250l12.406250 0.000000l0.000000 47.515625l10.406250 0.000000l0.000000 8.203125l-10.406250 0.000000l0.000000 17.187500l-9.812500 0.000000l0.000000 -17.187500l-32.906250 0.000000l0.000000 -9.515625z"/>
</defs>
<g style="fill: #000000; opacity: 1.000000" transform="translate(235.974063,401.706250)scale(0.120000)">
<use xlink:href="#c_a0416418d96557a09b8c1332d34883ba"/>
<use xlink:href="#c_7a2040fe3b94fcd41d0a72c84e93b115" x="63.623047"/>
<use xlink:href="#c_7a2040fe3b94fcd41d0a72c84e93b115" x="127.246094"/>
<use xlink:href="#c_7a2040fe3b94fcd41d0a72c84e93b115" x="190.869141"/>
</g>
</g>
</g>
<g id="xtick4">
<g id="line2d11">
<path style="fill: none; stroke: #000000; stroke-width: 0.500000; stroke-linejoin: round; stroke-linecap: butt; stroke-dasharray: 1.000000,3.000000; stroke-dashoffset: 0.000000; opacity: 1.000000" clip-path="url(#p50431ccdcb28178602d99d9270004dde)" d="M339.840000 388.800000L339.840000 43.200000"/>
</g>
<g id="line2d12">
<g ><use style="fill: none; stroke: #000000; stroke-width: 0.500000; stroke-linejoin: round; stroke-linecap: butt;  opacity: 1.000000" xlink:href="#m30e32995789d870ad79a2e54c91cf9c6" x="339.840000" y="388.800000"/>
</g></g>
<g id="line2d13">
<g ><use style="fill: none; stroke: #000000; stroke-width: 0.500000; stroke-linejoin: round; stroke-linecap: butt;  opacity: 1.000000" xlink:href="#m9281cae24120827b11d5ea8a7ad3e96b" x="339.840000" y="43.200000"/>
</g></g>
<g id="text4">
<defs>
<path id="c_cc8d6d580d1b10c8632f7a42cd53db8a" d="M33.015625 -40.375000q-6.640625 0.000000 -10.531250 4.546875q-3.875000 4.531250 -3.875000 12.437500q0.000000 7.859375 3.875000 12.437500q3.890625 4.562500 10.531250 4.562500q6.640625 0.000000 10.515625 -4.562500q3.875000 -4.578125 3.875000 -12.437500q0.000000 -7.906250 -3.875000 -12.437500q-3.875000 -4.546875 -10.515625 -4.546875M52.593750 -71.296875l0.000000 8.984375q-3.718750 -1.750000 -7.500000 -2.671875q-3.781250 -0.937500 -7.500000 -0.937500q-9.765625 0.000000 -14.921875 6.593750q-5.140625 6.593750 -5.875000 19.921875q2.875000 -4.250000 7.218750 -6.515625q4.359375 -2.265625 9.578125 -2.265625q10.984375 0.000000 17.359375 6.671875q6.375000 6.656250 6.375000 18.125000q0.000000 11.234375 -6.640625 18.031250q-6.640625 6.781250 -17.671875 6.781250q-12.656250 0.000000 -19.343750 -9.687500q-6.687500 -9.703125 -6.687500 -28.109375q0.000000 -17.281250 8.203125 -27.562500q8.203125 -10.281250 22.015625 -10.281250q3.718750 0.000000 7.500000 0.734375q3.781250 0.734375 7.890625 2.187500"/>
</defs>
<g style="fill: #000000; opacity: 1.000000" transform="translate(325.379062,401.706250)scale(0.120000)">
<use xlink:href="#c_cc8d6d580d1b10c8632f7a42cd53db8a"/>
<use xlink:href="#c_7a2040fe3b94fcd41d0a72c84e93b115" x="63.623047"/>
<use xlink:href="#c_7a2040fe3b94fcd41d0a72c84e93b115" x="127.246094"/>
<use xlink:href="#c_7a2040fe3b94fcd41d0a72c84e93b115" x="190.869141"/>
</g>
</g>
</g>
<g id="xtick5">
<g id="line2d14">
<path style="fill: none; stroke: #000000; stroke-width: 0.500000; stroke-linejoin: round; stroke-linecap: butt; stroke-dasharray: 1.000000,3.000000; stroke-dashoffset: 0.000000; opacity: 1.000000" clip-path="url(#p50431ccdcb28178602d99d9270004dde)" d="M429.120000 388.800000L429.120000 43.200000"/>
</g>
<g id="line2d15">
<g ><use style="fill: none; stroke: #000000; stroke-width: 0.500000; stroke-linejoin: round; stroke-linecap: butt;  opacity: 1.000000" xlink:href="#m30e32995789d870ad79a2e54c91cf9c6" x="429.120000" y="388.800000"/>
</g></g>
<g id="line2d16">
<g ><use style="fill: none; stroke: #000000; stroke-width: 0.500000; stroke-linejoin: round; stroke-linecap: butt;  opacity: 1.000000" xlink:href="#m9281cae24120827b11d5ea8a7ad3e96b" x="429.120000" y="43.200000"/>
</g></g>
<g id="text5">
<defs>
<path id="c_bef35738d52871942e50b9de9b122bab" d="M31.781250 -34.625000q-7.031250 0.000000 -11.062500 3.765625q-4.015625 3.765625 -4.015625 10.343750q0.000000 6.593750 4.015625 10.359375q4.031250 3.765625 11.062500 3.765625q7.031250 0.000000 11.078125 -3.781250q4.062500 -3.796875 4.062500 -10.343750q0.000000 -6.578125 -4.031250 -10.343750q-4.015625 -3.765625 -11.109375 -3.765625M21.921875 -38.812500q-6.343750 -1.562500 -9.890625 -5.906250q-3.531250 -4.359375 -3.531250 -10.609375q0.000000 -8.734375 6.218750 -13.812500q6.234375 -5.078125 17.062500 -5.078125q10.890625 0.000000 17.093750 5.078125q6.203125 5.078125 6.203125 13.812500q0.000000 6.250000 -3.546875 10.609375q-3.531250 4.343750 -9.828125 5.906250q7.125000 1.656250 11.093750 6.500000q3.984375 4.828125 3.984375 11.796875q0.000000 10.609375 -6.468750 16.281250q-6.468750 5.656250 -18.531250 5.656250q-12.046875 0.000000 -18.531250 -5.656250q-6.468750 -5.671875 -6.468750 -16.281250q0.000000 -6.968750 4.000000 -11.796875q4.015625 -4.843750 11.140625 -6.500000M18.312500 -54.390625q0.000000 5.656250 3.531250 8.828125q3.546875 3.171875 9.937500 3.171875q6.359375 0.000000 9.937500 -3.171875q3.593750 -3.171875 3.593750 -8.828125q0.000000 -5.671875 -3.593750 -8.843750q-3.578125 -3.171875 -9.937500 -3.171875q-6.390625 0.000000 -9.937500 3.171875q-3.531250 3.171875 -3.531250 8.843750"/>
</defs>
<g style="fill: #000000; opacity: 1.000000" transform="translate(414.643438,401.706250)scale(0.120000)">
<use xlink:href="#c_bef35738d52871942e50b9de9b122bab"/>
<use xlink:href="#c_7a2040fe3b94fcd41d0a72c84e93b115" x="63.623047"/>
<use xlink:href="#c_7a2040fe3b94fcd41d0a72c84e93b115" x="127.246094"/>
<use xlink:href="#c_7a2040fe3b94fcd41d0a72c84e93b115" x="190.869141"/>
</g>
</g>
</g>
<g id="xtick6">
<g id="line2d17">
<path style="fill: none; stroke: #000000; stroke-width: 0.500000; stroke-linejoin: round; stroke-linecap: butt; stroke-dasharray: 1.000000,3.000000; stroke-dashoffset: 0.000000; opacity: 1.000000" clip-path="url(#p50431ccdcb28178602d99d9270004dde)" d="M518.400000 388.800000L518.400000 43.200000"/>
</g>
<g id="line2d18">
<g ><use style="fill: none; stroke: #000000; stroke-width: 0.500000; stroke-linejoin: round; stroke-linecap: butt;  opacity: 1.000000" xlink:href="#m30e32995789d870ad79a2e54c91cf9c6" x="518.400000" y="388.800000"/>
</g></g>
<g id="line2d19">
<g ><use style="fill: none; stroke: #000000; stroke-width: 0.500000; stroke-linejoin: round; stroke-linecap: butt;  opacity: 1.000000" xlink:href="#m9281cae24120827b11d5ea8a7ad3e96b" x="518.400000" y="43.200000"/>
</g></g>
<g id="text6">
<defs>
<path id="c_42baa63129a918535c52adb20d687ea7" d="M12.406250 -8.296875l16.109375 0.000000l0.000000 -55.625000l-17.531250 3.515625l0.000000 -8.984375l17.437500 -3.515625l9.859375 0.000000l0.000000 64.609375l16.109375 0.000000l0.000000 8.296875l-41.984375 0.000000z"/>
</defs>
<g style="fill: #000000; opacity: 1.000000" transform="translate(500.353125,401.706250)scale(0.120000)">
<use xlink:href="#c_42baa63129a918535c52adb20d687ea7"/>
<use xlink:href="#c_7a2040fe3b94fcd41d0a72c84e93b115" x="63.623047"/>
<use xlink:href="#c_7a2040fe3b94fcd41d0a72c84e93b115" x="127.246094"/>
<use xlink:href="#c_7a2040fe3b94fcd41d0a72c84e93b115" x="190.869141"/>
<use xlink:href="#c_7a2040fe3b94fcd41d0a72c84e93b115" x="254.492188"/>
</g>
</g>
</g>
</g>
<g id="matplotlib.axis2">
<g id="ytick1">
<g id="line2d20">
<path style="fill: none; stroke: #000000; stroke-width: 0.500000; stroke-linejoin: round; stroke-linecap: butt; stroke-dasharray: 1.000000,3.000000; stroke-dashoffset: 0.000000; opacity: 1.000000" clip-path="url(#p50431ccdcb28178602d99d9270004dde)" d="M72.000000 388.800000L518.400000 388.800000"/>
</g>
<g id="line2d21">
<defs><path id="m3400efa6b1638b3fea9e19e898273957" d="M0.000000 0.000000L4.000000 0.000000"/></defs>
<g ><use style="fill: none; stroke: #000000; stroke-width: 0.500000; stroke-linejoin: round; stroke-linecap: butt;  opacity: 1.000000" xlink:href="#m3400efa6b1638b3fea9e19e898273957" x="72.000000" y="388.800000"/>
</g></g>
<g id="line2d22">
<defs><path id="m20b58b2501143cb5e0a5e8f1ef6f1643" d="M0.000000 0.000000L-4.000000 0.000000"/></defs>
<g ><use style="fill: none; stroke: #000000; stroke-width: 0.500000; stroke-linejoin: round; stroke-linecap: butt;  opacity: 1.000000" xlink:href="#m20b58b2501143cb5e0a5e8f1ef6f1643" x="518.400000" y="388.800000"/>
</g></g>
<g id="text7">
<defs>
<path id="c_ed3e21196fb739f392806f09ca0594ef" d="M10.687500 -12.406250l10.312500 0.000000l0.000000 12.406250l-10.312500 0.000000z"/>
</defs>
<g style="fill: #000000; opacity: 1.000000" transform="translate(35.218750,393.167188)scale(0.120000)">
<use xlink:href="#c_7a2040fe3b94fcd41d0a72c84e93b115"/>
<use xlink:href="#c_ed3e21196fb739f392806f09ca0594ef" x="63.623047"/>
<use xlink:href="#c_7a2040fe3b94fcd41d0a72c84e93b115" x="95.410156"/>
<use xlink:href="#c_7a2040fe3b94fcd41d0a72c84e93b115" x="159.033203"/>
<use xlink:href="#c_7a2040fe3b94fcd41d0a72c84e93b115" x="222.656250"/>
</g>
</g>
</g>
<g id="ytick2">
<g id="line2d23">
<path style="fill: none; stroke: #000000; stroke-width: 0.500000; stroke-linejoin: round; stroke-linecap: butt; stroke-dasharray: 1.000000,3.000000; stroke-dashoffset: 0.000000; opacity: 1.000000" clip-path="url(#p50431ccdcb28178602d99d9270004dde)" d="M72.000000 331.200000L518.400000 331.200000"/>
</g>
<g id="line2d24">
<g ><use style="fill: none; stroke: #000000; stroke-width: 0.500000; stroke-linejoin: round; stroke-linecap: butt;  opacity: 1.000000" xlink:href="#m3400efa6b1638b3fea9e19e898273957" x="72.000000" y="331.200000"/>
</g></g>
<g id="line2d25">
<g ><use style="fill: none; stroke: #000000; stroke-width: 0.500000; stroke-linejoin: round; stroke-linecap: butt;  opacity: 1.000000" xlink:href="#m20b58b2501143cb5e0a5e8f1ef6f1643" x="518.400000" y="331.200000"/>
</g></g>
<g id="text8">
<defs>
<path id="c_1260a2df50f305f3db244e29828f968e" d="M10.796875 -72.906250l38.718750 0.000000l0.000000 8.312500l-29.687500 0.000000l0.000000 17.859375q2.140625 -0.734375 4.281250 -1.093750q2.156250 -0.359375 4.312500 -0.359375q12.203125 0.000000 19.328125 6.687500q7.140625 6.687500 7.140625 18.109375q0.000000 11.765625 -7.328125 18.296875q-7.328125 6.515625 -20.656250 6.515625q-4.593750 0.000000 -9.359375 -0.781250q-4.750000 -0.781250 -9.828125 -2.343750l0.000000 -9.921875q4.390625 2.390625 9.078125 3.562500q4.687500 1.171875 9.906250 1.171875q8.453125 0.000000 13.375000 -4.437500q4.937500 -4.437500 4.937500 -12.062500q0.000000 -7.609375 -4.937500 -12.046875q-4.921875 -4.453125 -13.375000 -4.453125q-3.953125 0.000000 -7.890625 0.875000q-3.921875 0.875000 -8.015625 2.734375z"/>
</defs>
<g style="fill: #000000; opacity: 1.000000" transform="translate(35.468750,335.567187)scale(0.120000)">
<use xlink:href="#c_7a2040fe3b94fcd41d0a72c84e93b115"/>
<use xlink:href="#c_ed3e21196fb739f392806f09ca0594ef" x="63.623047"/>
<use xlink:href="#c_7a2040fe3b94fcd41d0a72c84e93b115" x="95.410156"/>
<use xlink:href="#c_7a2040fe3b94fcd41d0a72c84e93b115" x="159.033203"/>
<use xlink:href="#c_1260a2df50f305f3db244e29828f968e" x="222.656250"/>
</g>
</g>
</g>
<g id="ytick3">
<g id="line2d26">
<path style="fill: none; stroke: #000000; stroke-width: 0.500000; stroke-linejoin: round; stroke-linecap: butt; stroke-dasharray: 1.000000,3.000000; stroke-dashoffset: 0.000000; opacity: 1.000000" clip-path="url(#p50431ccdcb28178602d99d9270004dde)" d="M72.000000 273.600000L518.400000 273.600000"/>
</g>
<g id="line2d27">
<g ><use style="fill: none; stroke: #000000; stroke-width: 0.500000; stroke-linejoin: round; stroke-linecap: butt;  opacity: 1.000000" xlink:href="#m3400efa6b1638b3fea9e19e898273957" x="72.000000" y="273.600000"/>
</g></g>
<g id="line2d28">
<g ><use style="fill: none; stroke: #000000; stroke-width: 0.500000; stroke-linejoin: round; stroke-linecap: butt;  opacity: 1.000000" xlink:href="#m20b58b2501143cb5e0a5e8f1ef6f1643" x="518.400000" y="273.600000"/>
</g></g>
<g id="text9">
<g style="fill: #000000; opacity: 1.000000" transform="translate(35.218750,277.967188)scale(0.120000)">
<use xlink:href="#c_7a2040fe3b94fcd41d0a72c84e93b115"/>
<use xlink:href="#c_ed3e21196fb739f392806f09ca0594ef" x="63.623047"/>
<use xlink:href="#c_7a2040fe3b94fcd41d0a72c84e93b115" x="95.410156"/>
<use xlink:href="#c_42baa63129a918535c52adb20d687ea7" x="159.033203"/>
<use xlink:href="#c_7a2040fe3b94fcd41d0a72c84e93b115" x="222.656250"/>
</g>
</g>
</g>
<g id="ytick4">
<g id="line2d29">
<path style="fill: none; stroke: #000000; stroke-width: 0.500000; stroke-linejoin: round; stroke-linecap: butt; stroke-dasharray: 1.000000,3.000000; stroke-dashoffset: 0.000000; opacity: 1.000000" clip-path="url(#p50431ccdcb28178602d99d9270004dde)" d="M72.000000 216.000000L518.400000 216.000000"/>
</g>
<g id="line2d30">
<g ><use style="fill: none; stroke: #000000; stroke-width: 0.500000; stroke-linejoin: round; stroke-linecap: butt;  opacity: 1.000000" xlink:href="#m3400efa6b1638b3fea9e19e898273957" x="72.000000" y="216.000000"/>
</g></g>
<g id="line2d31">
<g ><use style="fill: none; stroke: #000000; stroke-width: 0.500000; stroke-linejoin: round; stroke-linecap: butt;  opacity: 1.000000" xlink:href="#m20b58b2501143cb5e0a5e8f1ef6f1643" x="518.400000" y="216.000000"/>
</g></g>
<g id="text10">
<g style="fill: #000000; opacity: 1.000000" transform="translate(35.468750,220.367188)scale(0.120000)">
<use xlink:href="#c_7a2040fe3b94fcd41d0a72c84e93b115"/>
<use xlink:href="#c_ed3e21196fb739f392806f09ca0594ef" x="63.623047"/>
<use xlink:href="#c_7a2040fe3b94fcd41d0a72c84e93b115" x="95.410156"/>
<use xlink:href="#c_42baa63129a918535c52adb20d687ea7" x="159.033203"/>
<use xlink:href="#c_1260a2df50f305f3db244e29828f968e" x="222.656250"/>
</g>
</g>
</g>
<g id="ytick5">
<g id="line2d32">
<path style="fill: none; stroke: #000000; stroke-width: 0.500000; stroke-linejoin: round; stroke-linecap: butt; stroke-dasharray: 1.000000,3.000000; stroke-dashoffset: 0.000000; opacity: 1.000000" clip-path="url(#p50431ccdcb28178602d99d9270004dde)" d="M72.000000 158.400000L518.400000 158.400000"/>
</g>
<g id="line2d33">
<g ><use style="fill: none; stroke: #000000; stroke-width: 0.500000; stroke-linejoin: round; stroke-linecap: butt;  opacity: 1.000000" xlink:href="#m3400efa6b1638b3fea9e19e898273957" x="72.000000" y="158.400000"/>
</g></g>
<g id="line2d34">
<g ><use style="fill: none; stroke: #000000; stroke-width: 0.500000; stroke-linejoin: round; stroke-linecap: butt;  opacity: 1.000000" xlink:href="#m20b58b2501143cb5e0a5e8f1ef6f1643" x="518.400000" y="158.400000"/>
</g></g>
<g id="text11">
<g style="fill: #000000; opacity: 1.000000" transform="translate(35.218750,162.767187)scale(0.120000)">
<use xlink:href="#c_7a2040fe3b94fcd41d0a72c84e93b115"/>
<use xlink:href="#c_ed3e21196fb739f392806f09ca0594ef" x="63.623047"/>
<use xlink:href="#c_7a2040fe3b94fcd41d0a72c84e93b115" x="95.410156"/>
<use xlink:href="#c_ed3f3ed3ebfbd18bcb9c012009a68ad1" x="159.033203"/>
<use xlink:href="#c_7a2040fe3b94fcd41d0a72c84e93b115" x="222.656250"/>
</g>
</g>
</g>
<g id="ytick6">
<g id="line2d35">
<path style="fill: none; stroke: #000000; stroke-width: 0.500000; stroke-linejoin: round; stroke-linecap: butt; stroke-dasharray: 1.000000,3.000000; stroke-dashoffset: 0.000000; opacity: 1.000000" clip-path="url(#p50431ccdcb28178602d99d9270004dde)" d="M72.000000 100.800000L518.400000 100.800000"/>
</g>
<g id="line2d36">
<g ><use style="fill: none; stroke: #000000; stroke-width: 0.500000; stroke-linejoin: round; stroke-linecap: butt;  opacity: 1.000000" xlink:href="#m3400efa6b1638b3fea9e19e898273957" x="72.000000" y="100.800000"/>
</g></g>
<g id="line2d37">
<g ><use style="fill: none; stroke: #000000; stroke-width: 0.500000; stroke-linejoin: round; stroke-linecap: butt;  opacity: 1.000000" xlink:href="#m20b58b2501143cb5e0a5e8f1ef6f1643" x="518.400000" y="100.800000"/>
</g></g>
<g id="text12">
<g style="fill: #000000; opacity: 1.000000" transform="translate(35.468750,105.167187)scale(0.120000)">
<use xlink:href="#c_7a2040fe3b94fcd41d0a72c84e93b115"/>
<use xlink:href="#c_ed3e21196fb739f392806f09ca0594ef" x="63.623047"/>
<use xlink:href="#c_7a2040fe3b94fcd41d0a72c84e93b115" x="95.410156"/>
<use xlink:href="#c_ed3f3ed3ebfbd18bcb9c012009a68ad1" x="159.033203"/>
<use xlink:href="#c_1260a2df50f305f3db244e29828f968e" x="222.656250"/>
</g>
</g>
</g>
<g id="ytick7">
<g id="line2d38">
<path style="fill: none; stroke: #000000; stroke-width: 0.500000; stroke-linejoin: round; stroke-linecap: butt; stroke-dasharray: 1.000000,3.000000; stroke-dashoffset: 0.000000; opacity: 1.000000" clip-path="url(#p50431ccdcb28178602d99d9270004dde)" d="M72.000000 43.200000L518.400000 43.200000"/>
</g>
<g id="line2d39">
<g ><use style="fill: none; stroke: #000000; stroke-width: 0.500000; stroke-linejoin: round; stroke-linecap: butt;  opacity: 1.000000" xlink:href="#m3400efa6b1638b3fea9e19e898273957" x="72.000000" y="43.200000"/>
</g></g>
<g id="line2d40">
<g ><use style="fill: none; stroke: #000000; stroke-width: 0.500000; stroke-linejoin: round; stroke-linecap: butt;  opacity: 1.000000" xlink:href="#m20b58b2501143cb5e0a5e8f1ef6f1643" x="518.400000" y="43.200000"/>
</g></g>
<g id="text13">
<defs>
<path id="c_3dcfa38a02242cb63ec6726c6e70be7a" d="M40.578125 -39.312500q7.078125 1.515625 11.046875 6.312500q3.984375 4.781250 3.984375 11.812500q0.000000 10.781250 -7.421875 16.703125q-7.421875 5.906250 -21.093750 5.906250q-4.578125 0.000000 -9.437500 -0.906250q-4.859375 -0.906250 -10.031250 -2.718750l0.000000 -9.515625q4.093750 2.390625 8.968750 3.609375q4.890625 1.218750 10.218750 1.218750q9.265625 0.000000 14.125000 -3.656250q4.859375 -3.656250 4.859375 -10.640625q0.000000 -6.453125 -4.515625 -10.078125q-4.515625 -3.640625 -12.562500 -3.640625l-8.500000 0.000000l0.000000 -8.109375l8.890625 0.000000q7.265625 0.000000 11.125000 -2.906250q3.859375 -2.906250 3.859375 -8.375000q0.000000 -5.609375 -3.984375 -8.609375q-3.968750 -3.015625 -11.390625 -3.015625q-4.062500 0.000000 -8.703125 0.890625q-4.640625 0.875000 -10.203125 2.718750l0.000000 -8.781250q5.625000 -1.562500 10.531250 -2.343750q4.906250 -0.781250 9.250000 -0.781250q11.234375 0.000000 17.765625 5.109375q6.546875 5.093750 6.546875 13.781250q0.000000 6.062500 -3.468750 10.234375q-3.468750 4.171875 -9.859375 5.781250"/>
</defs>
<g style="fill: #000000; opacity: 1.000000" transform="translate(35.218750,47.567187)scale(0.120000)">
<use xlink:href="#c_7a2040fe3b94fcd41d0a72c84e93b115"/>
<use xlink:href="#c_ed3e21196fb739f392806f09ca0594ef" x="63.623047"/>
<use xlink:href="#c_7a2040fe3b94fcd41d0a72c84e93b115" x="95.410156"/>
<use xlink:href="#c_3dcfa38a02242cb63ec6726c6e70be7a" x="159.033203"/>
<use xlink:href="#c_7a2040fe3b94fcd41d0a72c84e93b115" x="222.656250"/>
</g>
</g>
</g>
</g>
<g id="patch3">
<path style="fill: none; stroke: #000000; stroke-width: 1.000000; stroke-linejoin: round; stroke-linecap: square;  opacity: 1.000000"  d="M72.000000 43.200000L518.400000 43.200000"/>
</g>
<g id="patch4">
<path style="fill: none; stroke: #000000; stroke-width: 1.000000; stroke-linejoin: round; stroke-linecap: square;  opacity: 1.000000"  d="M518.400000 388.800000L518.400000 43.200000"/>
</g>
<g id="patch5">
<path style="fill: none; stroke: #000000; stroke-width: 1.000000; stroke-linejoin: round; stroke-linecap: square;  opacity: 1.000000"  d="M72.000000 388.800000L518.400000 388.800000"/>
</g>
<g id="patch6">
<path style="fill: none; stroke: #000000; stroke-width: 1.000000; stroke-linejoin: round; stroke-linecap: square;  opacity: 1.000000"  d="M72.000000 388.800000L72.000000 43.200000"/>
</g>
</g>
</g>
</svg>
