<?xml version="1.0" standalone="no"?>
<!DOCTYPE svg PUBLIC "-//W3C//DTD SVG 1.1//EN"
  "http://www.w3.org/Graphics/SVG/1.1/DTD/svg11.dtd">
<!-- Created with matplotlib (http://matplotlib.sourceforge.net/) -->
<svg width="576pt" height="432pt" viewBox="0 0 576 432"
   xmlns="http://www.w3.org/2000/svg"
   xmlns:xlink="http://www.w3.org/1999/xlink"
   version="1.1"
   id="svg1">
<g id="figure1">
<g id="patch1">
<path style="fill: #ffffff; stroke: #ffffff; stroke-width: 1.000000; stroke-linejoin: round; stroke-linecap: square;  opacity: 1.000000"  d="M0.000000 432.000000L576.000000 432.000000L576.000000 0.000000
L0.000000 0.000000L0.000000 432.000000"/>
</g>
<g id="axes1">
<g id="patch2">
<path style="fill: #ffffff; opacity: 1.000000"  d="M72.000000 388.800000L518.400000 388.800000L518.400000 43.200000
L72.000000 43.200000L72.000000 388.800000"/>
</g>
<g id="line2d1">
<defs>
  <clipPath id="p50431ccdcb28178602d99d9270004dde">
<rect x="72.000000" y="43.200000" width="446.400000" height="345.600000"/>
  </clipPath>
</defs><path style="fill: none; stroke: #ff0000; stroke-width: 1.000000; stroke-linejoin: round; stroke-linecap: square;  opacity: 1.000000" clip-path="url(#p50431ccdcb28178602d99d9270004dde)" d="M72.000000 314.703286L72.446400 287.351539L72.892800 316.025255
L74.232000 316.601914L75.124800 327.367082L76.017600 311.455115
L76.464000 315.420011L77.356800 271.399162L78.249600 351.937465
L79.588800 315.658105L80.035200 352.222782L80.928000 301.952645
L82.267200 352.276474L82.713600 299.067922L83.160000 349.950018
L83.606400 351.730055L84.945600 351.089436L85.838400 301.756271
L86.284800 351.378975L87.624000 315.507719L88.070400 351.936428
L88.963200 314.444382L89.409600 352.148256L89.856000 351.009504
L90.302400 352.099773L90.748800 350.502311L91.195200 351.538395
L92.088000 352.606744L92.980800 306.917659L93.427200 350.393793
L93.873600 317.059537L94.320000 327.372957L94.766400 314.968534
L95.212800 351.377321L96.552000 352.305134L97.891200 352.106833
L98.337600 334.876600L98.784000 351.071934L99.230400 247.797125
L99.676800 352.476379L100.569600 350.332844L101.016000 328.390231
L101.462400 352.466109L101.908800 327.782543L102.355200 352.117498
L103.694400 352.794972L104.140800 327.405320L104.587200 351.420151
L105.033600 350.259034L105.480000 314.047485L105.926400 351.976888
L106.372800 343.372954L106.819200 350.127780L107.712000 352.681961
L109.051200 327.769780L109.497600 351.275098L110.836800 324.839240
L111.283200 351.333331L111.729600 341.255018L112.176000 350.468492
L112.622400 352.139517L113.961600 351.594333L114.854400 313.544218
L115.300800 351.875504L116.640000 350.655758L117.979200 351.649901
L119.318400 336.426566L119.764800 352.076865L120.657600 328.538296
L121.104000 351.106025L121.996800 352.158501L122.889600 327.317118
L123.336000 347.805866L123.782400 350.989681L124.675200 352.238853
L126.014400 351.317582L126.460800 352.586971L126.907200 351.385986
L127.800000 344.469049L128.246400 352.428908L129.585600 351.538025
L130.924800 352.229892L131.371200 346.289744L131.817600 351.813271
L133.156800 352.156649L134.496000 351.859137L135.835200 351.122120
L136.281600 349.721354L136.728000 327.034467L137.174400 351.315632
L138.513600 343.082008L138.960000 351.298969L140.299200 351.388380
L141.638400 352.075211L142.084800 336.831511L142.531200 351.226714
L142.977600 346.142691L143.870400 352.584996L144.316800 350.665089
L145.656000 351.833464L146.995200 352.182668L147.888000 336.887375
L148.334400 351.923098L149.673600 327.970648L150.120000 351.873874
L150.566400 342.392042L151.012800 352.652486L152.352000 343.952500
L152.798400 352.681270L153.691200 348.121201L154.137600 352.074372
L154.584000 340.662388L155.030400 307.103517L155.476800 348.404026
L155.923200 352.950320L156.816000 351.207977L157.262400 352.546288
L158.155200 340.747134L158.601600 316.392233L159.494400 352.309676
L159.940800 340.405978L160.387200 352.634984L160.833600 326.641594
L161.280000 341.145932L161.726400 334.320752L162.619200 344.702699
L163.065600 341.077108L163.512000 351.987157L164.851200 338.420135
L165.297600 351.996044L166.190400 327.082826L166.636800 350.530107
L167.529600 339.404231L168.422400 350.426576L168.868800 341.331198
L169.315200 350.831495L169.761600 331.984347L170.208000 351.271814
L171.100800 338.346498L171.547200 351.185982L171.993600 344.106193
L172.440000 351.468831L172.886400 338.730262L173.332800 340.469691
L173.779200 337.161830L174.225600 351.283145L174.672000 338.566694
L175.118400 352.305948L175.564800 350.990422L176.457600 339.057669
L177.350400 350.792640L177.796800 324.681918L178.243200 351.808901
L179.136000 350.284756L180.028800 351.591544L180.475200 327.200626
L180.921600 350.445460L181.814400 352.116880L182.707200 350.751588
L183.153600 352.296444L187.171200 351.697248L187.617600 353.022821
L188.064000 338.983093L188.510400 351.707517L189.403200 327.797700
L189.849600 351.897449L191.188800 352.744021L191.635200 351.118590
L192.974400 352.846072L194.313600 352.164944L195.652800 337.170841
L196.099200 352.318439L196.992000 340.996954L197.438400 352.302838
L197.884800 349.166172L198.777600 328.295462L199.224000 352.120682
L200.563200 327.560717L201.009600 351.288897L202.348800 350.356789
L203.688000 350.921351L204.580800 312.306204L205.027200 350.764103
L205.473600 352.018705L208.152000 352.070422L209.491200 351.420101
L209.937600 329.419107L210.384000 352.051142L210.830400 336.401510
L211.276800 352.108265L211.723200 340.716277L212.169600 349.976481
L213.062400 340.353125L213.508800 351.545480L214.401600 349.778600
L214.848000 352.365219L216.187200 351.065121L216.633600 337.326139
L217.080000 351.749409L217.526400 350.485031L217.972800 352.282818
L218.419200 350.014423L218.865600 351.723440L220.204800 342.988967
L220.651200 350.745663L221.097600 351.822232L221.544000 350.475034
L222.436800 351.610823L223.776000 316.430150L224.222400 350.509569
L225.115200 327.236272L225.561600 351.612996L226.900800 351.943537
L228.240000 351.563131L229.579200 326.264717L230.025600 351.806235
L230.472000 336.693616L230.918400 352.459617L233.596800 351.152879
L234.043200 308.655409L234.489600 351.898634L234.936000 343.078107
L235.382400 351.924332L236.275200 326.944981L236.721600 351.381666
L237.168000 348.841506L237.614400 351.726007L238.060800 350.533440
L238.953600 351.641409L239.400000 339.149499L239.846400 351.338170
L240.739200 339.880246L241.632000 351.987552L242.971200 352.135765
L243.864000 339.793056L244.310400 352.141344L244.756800 342.097221
L245.203200 352.045588L245.649600 316.492432L246.096000 351.341477
L247.435200 351.742694L248.328000 341.141809L248.774400 316.706161
L249.220800 352.440165L249.667200 351.113949L250.113600 341.325866
L250.560000 352.053734L251.899200 350.279350L253.238400 340.514274
L253.684800 351.507835L255.024000 351.860149L255.470400 350.640527
L255.916800 339.178555L256.363200 352.421329L256.809600 351.150805
L257.256000 340.148135L257.702400 351.101113L259.041600 351.308349
L260.380800 325.500200L260.827200 351.429951L261.273600 334.503154
L261.720000 300.319982L262.166400 193.570634L262.612800 339.756398
L263.059200 327.099415L263.505600 338.193817L264.398400 340.659253
L264.844800 351.225850L265.737600 350.018891L266.184000 351.779575
L267.523200 351.062455L268.416000 350.057598L268.862400 340.002909
L269.308800 315.203690L269.755200 351.440097L270.648000 335.545829
L271.094400 350.860797L271.540800 340.075609L271.987200 351.877157
L272.880000 346.183694L273.326400 350.119979L274.219200 314.750855
L274.665600 349.946093L275.112000 329.529797L275.558400 351.861852
L276.451200 340.322589L276.897600 352.147367L278.236800 328.510524
L278.683200 351.978690L279.129600 340.619114L279.576000 352.038800
L280.022400 340.185213L280.468800 352.020754L281.361600 339.061544
L281.808000 351.660047L283.147200 352.314144L284.486400 352.259885
L284.932800 338.015141L285.379200 351.885427L286.718400 350.673062
L287.164800 339.780565L287.611200 352.035763L288.057600 340.153344
L288.504000 351.586384L289.843200 352.524244L290.736000 351.149028
L291.628800 352.720027L292.968000 351.941859L294.307200 352.299160
L295.646400 352.054179L296.985600 352.583416L297.432000 343.779898
L297.878400 350.906293L298.324800 352.011917L299.664000 351.635731
L300.110400 352.674309L301.003200 338.713155L301.449600 352.357270
L302.788800 352.360578L303.235200 351.276258L303.681600 352.361170
L304.574400 337.231123L305.020800 351.746422L306.360000 352.507631
L307.699200 339.371893L308.145600 351.203336L310.824000 351.883354
L311.716800 306.847156L312.163200 344.698873L312.609600 352.000315
L313.056000 349.765467L313.502400 350.865216L314.841600 350.076285
L315.288000 336.738347L315.734400 350.863192L317.073600 351.790165
L317.520000 350.495720L318.859200 351.266235L319.305600 339.335778
L319.752000 352.320587L320.198400 339.143155L320.644800 350.411098
L321.537600 327.521639L321.984000 350.222672L322.876800 352.251492
L323.323200 339.406330L324.216000 327.385399L324.662400 351.954374
L325.555200 314.766506L326.001600 352.640094L326.448000 350.920611
L327.787200 325.995272L328.233600 351.101409L328.680000 338.058169
L329.126400 350.702512L330.465600 350.516827L331.358400 324.938403
L332.251200 351.517462L332.697600 326.808370L333.144000 351.516326
L334.036800 338.947348L334.483200 350.877460L334.929600 347.625241
L335.376000 351.811247L335.822400 339.672293L336.268800 351.730401
L337.161600 326.772971L337.608000 349.954017L338.054400 319.796072
L338.500800 351.157742L339.393600 352.754019L339.840000 351.594037
L340.286400 334.118452L340.732800 352.597585L341.625600 351.003802
L342.072000 352.004486L343.411200 351.461302L343.857600 329.920967
L344.304000 349.072539L344.750400 338.065574L345.196800 349.661392
L345.643200 351.151644L346.089600 316.692782L346.982400 351.033968
L347.428800 337.420685L347.875200 351.541531L349.214400 351.462487
L350.553600 347.764937L351.000000 240.053735L351.892800 339.507837
L352.339200 324.686683L352.785600 327.079123L353.678400 352.060350
L354.571200 340.507707L355.464000 351.824059L356.803200 352.832445
L357.249600 347.573203L357.696000 352.383387L359.481600 334.935920
L359.928000 351.770713L360.374400 327.025925L360.820800 352.159982
L361.267200 350.851984L362.606400 344.367813L363.052800 352.790899
L363.945600 350.735962L364.838400 334.381997L365.284800 351.358708
L365.731200 350.166857L366.177600 351.928603L367.070400 350.687528
L368.409600 351.780562L369.748800 351.055568L371.088000 327.990915
L371.534400 351.222369L371.980800 335.456912L372.427200 351.436419
L373.320000 339.391938L373.766400 351.364213L374.659200 350.363948
L375.552000 337.664851L375.998400 352.683195L376.891200 351.380901
L377.337600 352.416960L378.676800 352.563988L379.123200 342.913725
L379.569600 351.939958L380.462400 327.808784L380.908800 350.629072
L382.248000 351.421114L382.694400 326.708467L383.140800 351.040238
L383.587200 342.266589L384.033600 350.601819L384.926400 351.662342
L385.819200 338.964480L386.265600 351.307214L387.604800 351.332788
L388.051200 338.040543L388.497600 351.729093L388.944000 307.173254
L389.390400 351.813913L389.836800 344.023077L390.283200 325.937014
L390.729600 351.549899L392.068800 326.957200L392.515200 350.076952
L392.961600 348.530836L393.408000 351.133303L394.747200 351.560785
L396.086400 350.707178L396.532800 338.368394L396.979200 350.528676
L397.425600 352.138011L398.318400 350.338522L399.211200 339.212226
L399.657600 351.154977L400.996800 351.666243L401.443200 313.850444
L401.889600 349.644606L402.336000 350.872424L403.228800 338.467655
L403.675200 350.773040L404.121600 351.944994L405.460800 340.110169
L405.907200 351.808704L406.353600 339.271299L406.800000 340.308370
L407.246400 350.243037L408.585600 352.327326L409.032000 339.466168
L409.478400 349.353265L409.924800 351.579547L410.817600 350.577553
L411.710400 337.667270L412.156800 339.260240L413.496000 351.442022
L413.942400 301.934501L414.388800 350.653857L415.281600 351.932700
L415.728000 350.271302L416.174400 342.998842L416.620800 350.181323
L417.067200 351.620278L417.513600 59.508321L417.960000 141.250497
L418.406400 315.287498L418.852800 352.056005L419.299200 350.806143
L419.745600 336.496896L420.192000 350.887853L421.084800 349.237292
L421.531200 351.165962L421.977600 337.472599L422.424000 334.517052
L422.870400 350.882743L423.316800 315.290337L423.763200 352.006807
L424.209600 339.459799L424.656000 350.575529L425.548800 336.670288
L425.995200 351.819220L426.441600 350.492635L427.334400 351.496232
L427.780800 339.242787L428.227200 350.845023L429.120000 339.155942
L429.566400 351.161420L430.905600 349.146374L431.352000 351.280331
L431.798400 327.460641L432.244800 352.349050L432.691200 350.950135
L433.584000 310.105201L434.030400 352.123546L434.476800 338.133756
L434.923200 351.769083L436.262400 351.298154L436.708800 324.871727
L437.155200 350.968575L437.601600 314.973372L438.048000 352.282373
L438.494400 347.661899L438.940800 350.550325L440.726400 327.393743
L441.172800 301.944697L441.619200 352.107747L442.065600 350.748996
L443.404800 340.043344L443.851200 350.409444L444.744000 351.424199
L445.636800 349.873443L446.976000 351.267692L447.422400 343.010345
L447.868800 351.659084L448.315200 338.554771L448.761600 340.706008
L449.208000 349.392935L450.100800 344.576283L450.547200 350.997482
L451.886400 350.776742L453.225600 328.058998L453.672000 351.023254
L455.011200 341.202092L455.457600 350.482810L456.350400 351.877281
L457.243200 340.311431L457.689600 350.872177L459.028800 351.336343
L459.475200 341.776553L459.921600 351.806581L460.368000 338.538750
L460.814400 351.316644L461.260800 350.257133L461.707200 351.805445
L463.046400 351.559749L463.492800 340.303532L463.939200 349.799929
L464.385600 307.293795L464.832000 351.098891L465.724800 346.029235
L466.171200 351.178379L467.064000 326.850830L467.510400 352.170053
L468.403200 339.600730L468.849600 325.965773L469.296000 350.158760
L469.742400 335.169175L470.188800 351.531632L471.081600 350.331881
L471.528000 327.920067L471.974400 350.935644L472.420800 352.648043
L472.867200 313.373565L473.313600 352.185902L473.760000 347.446689
L474.652800 352.242358L475.992000 338.702021L476.438400 327.797922
L477.331200 351.485568L478.670400 352.005893L479.116800 327.103735
L479.563200 351.400896L480.009600 346.365356L480.456000 351.515487
L481.348800 327.386683L481.795200 351.470312L483.134400 349.981196
L483.580800 346.983832L484.027200 350.395891L484.473600 118.448821
L484.920000 351.242315L485.366400 339.428794L485.812800 351.364731
L487.152000 350.522825L487.598400 330.050049L488.044800 350.703845
L488.491200 339.903376L489.830400 339.666739L490.723200 350.751291
L491.616000 352.189358L492.062400 350.588835L492.508800 339.289369
L492.955200 351.642199L493.848000 327.716656L494.294400 351.407413
L495.187200 349.744262L496.080000 322.719280L496.972800 351.116196
L497.419200 326.876379L497.865600 351.042608L498.312000 327.502952
L499.204800 350.919599L500.097600 339.086896L500.544000 351.222221
L500.990400 339.429855L501.436800 351.891130L501.883200 334.183647
L502.329600 351.564241L503.668800 352.450162L504.115200 337.458676
L504.561600 352.448484L505.454400 326.900028L506.347200 350.961515
L506.793600 317.640516L507.240000 351.886267L507.686400 339.396159
L508.132800 350.963712L509.472000 339.771012L509.918400 350.482933
L510.364800 339.816112L510.811200 351.401488L512.150400 340.432120
L512.596800 350.843073L513.489600 352.108315L513.936000 350.534403
L514.382400 351.982393L515.275200 343.548592L515.721600 351.485445
L516.168000 352.611212L516.614400 351.541456L517.060800 327.001215
L517.953600 351.945117L517.953600 351.945117"/>
</g>
<g id="matplotlib.axis1">
<g id="xtick1">
<g id="line2d2">
<path style="fill: none; stroke: #000000; stroke-width: 0.500000; stroke-linejoin: round; stroke-linecap: butt; stroke-dasharray: 1.000000,3.000000; stroke-dashoffset: 0.000000; opacity: 1.000000" clip-path="url(#p50431ccdcb28178602d99d9270004dde)" d="M72.000000 388.800000L72.000000 43.200000"/>
</g>
<g id="line2d3">
<defs><path id="m30e32995789d870ad79a2e54c91cf9c6" d="M0.000000 0.000000L0.000000 -4.000000"/></defs>
<g ><use style="fill: none; stroke: #000000; stroke-width: 0.500000; stroke-linejoin: round; stroke-linecap: butt;  opacity: 1.000000" xlink:href="#m30e32995789d870ad79a2e54c91cf9c6" x="72.000000" y="388.800000"/>
</g></g>
<g id="line2d4">
<defs><path id="m9281cae24120827b11d5ea8a7ad3e96b" d="M0.000000 0.000000L0.000000 4.000000"/></defs>
<g ><use style="fill: none; stroke: #000000; stroke-width: 0.500000; stroke-linejoin: round; stroke-linecap: butt;  opacity: 1.000000" xlink:href="#m9281cae24120827b11d5ea8a7ad3e96b" x="72.000000" y="43.200000"/>
</g></g>
<g id="text1">
<defs>
<path id="c_7a2040fe3b94fcd41d0a72c84e93b115" d="M31.781250 -66.406250q-7.609375 0.000000 -11.453125 7.500000q-3.828125 7.484375 -3.828125 22.531250q0.000000 14.984375 3.828125 22.484375q3.843750 7.500000 11.453125 7.500000q7.671875 0.000000 11.500000 -7.500000q3.843750 -7.500000 3.843750 -22.484375q0.000000 -15.046875 -3.843750 -22.531250q-3.828125 -7.500000 -11.500000 -7.500000M31.781250 -74.218750q12.265625 0.000000 18.734375 9.703125q6.468750 9.687500 6.468750 28.140625q0.000000 18.406250 -6.468750 28.109375q-6.468750 9.687500 -18.734375 9.687500q-12.250000 0.000000 -18.718750 -9.687500q-6.468750 -9.703125 -6.468750 -28.109375q0.000000 -18.453125 6.468750 -28.140625q6.468750 -9.703125 18.718750 -9.703125"/>
</defs>
<g style="fill: #000000; opacity: 1.000000" transform="translate(68.976562,401.706250)scale(0.120000)">
<use xlink:href="#c_7a2040fe3b94fcd41d0a72c84e93b115"/>
</g>
</g>
</g>
<g id="xtick2">
<g id="line2d5">
<path style="fill: none; stroke: #000000; stroke-width: 0.500000; stroke-linejoin: round; stroke-linecap: butt; stroke-dasharray: 1.000000,3.000000; stroke-dashoffset: 0.000000; opacity: 1.000000" clip-path="url(#p50431ccdcb28178602d99d9270004dde)" d="M161.280000 388.800000L161.280000 43.200000"/>
</g>
<g id="line2d6">
<g ><use style="fill: none; stroke: #000000; stroke-width: 0.500000; stroke-linejoin: round; stroke-linecap: butt;  opacity: 1.000000" xlink:href="#m30e32995789d870ad79a2e54c91cf9c6" x="161.280000" y="388.800000"/>
</g></g>
<g id="line2d7">
<g ><use style="fill: none; stroke: #000000; stroke-width: 0.500000; stroke-linejoin: round; stroke-linecap: butt;  opacity: 1.000000" xlink:href="#m9281cae24120827b11d5ea8a7ad3e96b" x="161.280000" y="43.200000"/>
</g></g>
<g id="text2">
<defs>
<path id="c_ed3f3ed3ebfbd18bcb9c012009a68ad1" d="M19.187500 -8.296875l34.421875 0.000000l0.000000 8.296875l-46.281250 0.000000l0.000000 -8.296875q5.609375 -5.812500 15.296875 -15.593750q9.703125 -9.796875 12.187500 -12.640625q4.734375 -5.312500 6.609375 -9.000000q1.890625 -3.687500 1.890625 -7.250000q0.000000 -5.812500 -4.078125 -9.468750q-4.078125 -3.671875 -10.625000 -3.671875q-4.640625 0.000000 -9.796875 1.609375q-5.140625 1.609375 -11.000000 4.890625l0.000000 -9.968750q5.953125 -2.390625 11.125000 -3.609375q5.187500 -1.218750 9.484375 -1.218750q11.328125 0.000000 18.062500 5.671875q6.734375 5.656250 6.734375 15.125000q0.000000 4.500000 -1.687500 8.531250q-1.671875 4.015625 -6.125000 9.484375q-1.218750 1.421875 -7.765625 8.187500q-6.531250 6.765625 -18.453125 18.921875"/>
</defs>
<g style="fill: #000000; opacity: 1.000000" transform="translate(150.655000,401.706250)scale(0.120000)">
<use xlink:href="#c_ed3f3ed3ebfbd18bcb9c012009a68ad1"/>
<use xlink:href="#c_7a2040fe3b94fcd41d0a72c84e93b115" x="63.623047"/>
<use xlink:href="#c_7a2040fe3b94fcd41d0a72c84e93b115" x="127.246094"/>
</g>
</g>
</g>
<g id="xtick3">
<g id="line2d8">
<path style="fill: none; stroke: #000000; stroke-width: 0.500000; stroke-linejoin: round; stroke-linecap: butt; stroke-dasharray: 1.000000,3.000000; stroke-dashoffset: 0.000000; opacity: 1.000000" clip-path="url(#p50431ccdcb28178602d99d9270004dde)" d="M250.560000 388.800000L250.560000 43.200000"/>
</g>
<g id="line2d9">
<g ><use style="fill: none; stroke: #000000; stroke-width: 0.500000; stroke-linejoin: round; stroke-linecap: butt;  opacity: 1.000000" xlink:href="#m30e32995789d870ad79a2e54c91cf9c6" x="250.560000" y="388.800000"/>
</g></g>
<g id="line2d10">
<g ><use style="fill: none; stroke: #000000; stroke-width: 0.500000; stroke-linejoin: round; stroke-linecap: butt;  opacity: 1.000000" xlink:href="#m9281cae24120827b11d5ea8a7ad3e96b" x="250.560000" y="43.200000"/>
</g></g>
<g id="text3">
<defs>
<path id="c_a0416418d96557a09b8c1332d34883ba" d="M37.796875 -64.312500l-24.906250 38.921875l24.906250 0.000000zM35.203125 -72.906250l12.406250 0.000000l0.000000 47.515625l10.406250 0.000000l0.000000 8.203125l-10.406250 0.000000l0.000000 17.187500l-9.812500 0.000000l0.000000 -17.187500l-32.906250 0.000000l0.000000 -9.515625z"/>
</defs>
<g style="fill: #000000; opacity: 1.000000" transform="translate(239.794375,401.706250)scale(0.120000)">
<use xlink:href="#c_a0416418d96557a09b8c1332d34883ba"/>
<use xlink:href="#c_7a2040fe3b94fcd41d0a72c84e93b115" x="63.623047"/>
<use xlink:href="#c_7a2040fe3b94fcd41d0a72c84e93b115" x="127.246094"/>
</g>
</g>
</g>
<g id="xtick4">
<g id="line2d11">
<path style="fill: none; stroke: #000000; stroke-width: 0.500000; stroke-linejoin: round; stroke-linecap: butt; stroke-dasharray: 1.000000,3.000000; stroke-dashoffset: 0.000000; opacity: 1.000000" clip-path="url(#p50431ccdcb28178602d99d9270004dde)" d="M339.840000 388.800000L339.840000 43.200000"/>
</g>
<g id="line2d12">
<g ><use style="fill: none; stroke: #000000; stroke-width: 0.500000; stroke-linejoin: round; stroke-linecap: butt;  opacity: 1.000000" xlink:href="#m30e32995789d870ad79a2e54c91cf9c6" x="339.840000" y="388.800000"/>
</g></g>
<g id="line2d13">
<g ><use style="fill: none; stroke: #000000; stroke-width: 0.500000; stroke-linejoin: round; stroke-linecap: butt;  opacity: 1.000000" xlink:href="#m9281cae24120827b11d5ea8a7ad3e96b" x="339.840000" y="43.200000"/>
</g></g>
<g id="text4">
<defs>
<path id="c_cc8d6d580d1b10c8632f7a42cd53db8a" d="M33.015625 -40.375000q-6.640625 0.000000 -10.531250 4.546875q-3.875000 4.531250 -3.875000 12.437500q0.000000 7.859375 3.875000 12.437500q3.890625 4.562500 10.531250 4.562500q6.640625 0.000000 10.515625 -4.562500q3.875000 -4.578125 3.875000 -12.437500q0.000000 -7.906250 -3.875000 -12.437500q-3.875000 -4.546875 -10.515625 -4.546875M52.593750 -71.296875l0.000000 8.984375q-3.718750 -1.750000 -7.500000 -2.671875q-3.781250 -0.937500 -7.500000 -0.937500q-9.765625 0.000000 -14.921875 6.593750q-5.140625 6.593750 -5.875000 19.921875q2.875000 -4.250000 7.218750 -6.515625q4.359375 -2.265625 9.578125 -2.265625q10.984375 0.000000 17.359375 6.671875q6.375000 6.656250 6.375000 18.125000q0.000000 11.234375 -6.640625 18.031250q-6.640625 6.781250 -17.671875 6.781250q-12.656250 0.000000 -19.343750 -9.687500q-6.687500 -9.703125 -6.687500 -28.109375q0.000000 -17.281250 8.203125 -27.562500q8.203125 -10.281250 22.015625 -10.281250q3.718750 0.000000 7.500000 0.734375q3.781250 0.734375 7.890625 2.187500"/>
</defs>
<g style="fill: #000000; opacity: 1.000000" transform="translate(329.199375,401.706250)scale(0.120000)">
<use xlink:href="#c_cc8d6d580d1b10c8632f7a42cd53db8a"/>
<use xlink:href="#c_7a2040fe3b94fcd41d0a72c84e93b115" x="63.623047"/>
<use xlink:href="#c_7a2040fe3b94fcd41d0a72c84e93b115" x="127.246094"/>
</g>
</g>
</g>
<g id="xtick5">
<g id="line2d14">
<path style="fill: none; stroke: #000000; stroke-width: 0.500000; stroke-linejoin: round; stroke-linecap: butt; stroke-dasharray: 1.000000,3.000000; stroke-dashoffset: 0.000000; opacity: 1.000000" clip-path="url(#p50431ccdcb28178602d99d9270004dde)" d="M429.120000 388.800000L429.120000 43.200000"/>
</g>
<g id="line2d15">
<g ><use style="fill: none; stroke: #000000; stroke-width: 0.500000; stroke-linejoin: round; stroke-linecap: butt;  opacity: 1.000000" xlink:href="#m30e32995789d870ad79a2e54c91cf9c6" x="429.120000" y="388.800000"/>
</g></g>
<g id="line2d16">
<g ><use style="fill: none; stroke: #000000; stroke-width: 0.500000; stroke-linejoin: round; stroke-linecap: butt;  opacity: 1.000000" xlink:href="#m9281cae24120827b11d5ea8a7ad3e96b" x="429.120000" y="43.200000"/>
</g></g>
<g id="text5">
<defs>
<path id="c_bef35738d52871942e50b9de9b122bab" d="M31.781250 -34.625000q-7.031250 0.000000 -11.062500 3.765625q-4.015625 3.765625 -4.015625 10.343750q0.000000 6.593750 4.015625 10.359375q4.031250 3.765625 11.062500 3.765625q7.031250 0.000000 11.078125 -3.781250q4.062500 -3.796875 4.062500 -10.343750q0.000000 -6.578125 -4.031250 -10.343750q-4.015625 -3.765625 -11.109375 -3.765625M21.921875 -38.812500q-6.343750 -1.562500 -9.890625 -5.906250q-3.531250 -4.359375 -3.531250 -10.609375q0.000000 -8.734375 6.218750 -13.812500q6.234375 -5.078125 17.062500 -5.078125q10.890625 0.000000 17.093750 5.078125q6.203125 5.078125 6.203125 13.812500q0.000000 6.250000 -3.546875 10.609375q-3.531250 4.343750 -9.828125 5.906250q7.125000 1.656250 11.093750 6.500000q3.984375 4.828125 3.984375 11.796875q0.000000 10.609375 -6.468750 16.281250q-6.468750 5.656250 -18.531250 5.656250q-12.046875 0.000000 -18.531250 -5.656250q-6.468750 -5.671875 -6.468750 -16.281250q0.000000 -6.968750 4.000000 -11.796875q4.015625 -4.843750 11.140625 -6.500000M18.312500 -54.390625q0.000000 5.656250 3.531250 8.828125q3.546875 3.171875 9.937500 3.171875q6.359375 0.000000 9.937500 -3.171875q3.593750 -3.171875 3.593750 -8.828125q0.000000 -5.671875 -3.593750 -8.843750q-3.578125 -3.171875 -9.937500 -3.171875q-6.390625 0.000000 -9.937500 3.171875q-3.531250 3.171875 -3.531250 8.843750"/>
</defs>
<g style="fill: #000000; opacity: 1.000000" transform="translate(418.463750,401.706250)scale(0.120000)">
<use xlink:href="#c_bef35738d52871942e50b9de9b122bab"/>
<use xlink:href="#c_7a2040fe3b94fcd41d0a72c84e93b115" x="63.623047"/>
<use xlink:href="#c_7a2040fe3b94fcd41d0a72c84e93b115" x="127.246094"/>
</g>
</g>
</g>
<g id="xtick6">
<g id="line2d17">
<path style="fill: none; stroke: #000000; stroke-width: 0.500000; stroke-linejoin: round; stroke-linecap: butt; stroke-dasharray: 1.000000,3.000000; stroke-dashoffset: 0.000000; opacity: 1.000000" clip-path="url(#p50431ccdcb28178602d99d9270004dde)" d="M518.400000 388.800000L518.400000 43.200000"/>
</g>
<g id="line2d18">
<g ><use style="fill: none; stroke: #000000; stroke-width: 0.500000; stroke-linejoin: round; stroke-linecap: butt;  opacity: 1.000000" xlink:href="#m30e32995789d870ad79a2e54c91cf9c6" x="518.400000" y="388.800000"/>
</g></g>
<g id="line2d19">
<g ><use style="fill: none; stroke: #000000; stroke-width: 0.500000; stroke-linejoin: round; stroke-linecap: butt;  opacity: 1.000000" xlink:href="#m9281cae24120827b11d5ea8a7ad3e96b" x="518.400000" y="43.200000"/>
</g></g>
<g id="text6">
<defs>
<path id="c_42baa63129a918535c52adb20d687ea7" d="M12.406250 -8.296875l16.109375 0.000000l0.000000 -55.625000l-17.531250 3.515625l0.000000 -8.984375l17.437500 -3.515625l9.859375 0.000000l0.000000 64.609375l16.109375 0.000000l0.000000 8.296875l-41.984375 0.000000z"/>
</defs>
<g style="fill: #000000; opacity: 1.000000" transform="translate(504.173437,401.706250)scale(0.120000)">
<use xlink:href="#c_42baa63129a918535c52adb20d687ea7"/>
<use xlink:href="#c_7a2040fe3b94fcd41d0a72c84e93b115" x="63.623047"/>
<use xlink:href="#c_7a2040fe3b94fcd41d0a72c84e93b115" x="127.246094"/>
<use xlink:href="#c_7a2040fe3b94fcd41d0a72c84e93b115" x="190.869141"/>
</g>
</g>
</g>
</g>
<g id="matplotlib.axis2">
<g id="ytick1">
<g id="line2d20">
<path style="fill: none; stroke: #000000; stroke-width: 0.500000; stroke-linejoin: round; stroke-linecap: butt; stroke-dasharray: 1.000000,3.000000; stroke-dashoffset: 0.000000; opacity: 1.000000" clip-path="url(#p50431ccdcb28178602d99d9270004dde)" d="M72.000000 388.800000L518.400000 388.800000"/>
</g>
<g id="line2d21">
<defs><path id="m3400efa6b1638b3fea9e19e898273957" d="M0.000000 0.000000L4.000000 0.000000"/></defs>
<g ><use style="fill: none; stroke: #000000; stroke-width: 0.500000; stroke-linejoin: round; stroke-linecap: butt;  opacity: 1.000000" xlink:href="#m3400efa6b1638b3fea9e19e898273957" x="72.000000" y="388.800000"/>
</g></g>
<g id="line2d22">
<defs><path id="m20b58b2501143cb5e0a5e8f1ef6f1643" d="M0.000000 0.000000L-4.000000 0.000000"/></defs>
<g ><use style="fill: none; stroke: #000000; stroke-width: 0.500000; stroke-linejoin: round; stroke-linecap: butt;  opacity: 1.000000" xlink:href="#m20b58b2501143cb5e0a5e8f1ef6f1643" x="518.400000" y="388.800000"/>
</g></g>
<g id="text7">
<defs>
<path id="c_ed3e21196fb739f392806f09ca0594ef" d="M10.687500 -12.406250l10.312500 0.000000l0.000000 12.406250l-10.312500 0.000000z"/>
</defs>
<g style="fill: #000000; opacity: 1.000000" transform="translate(35.625000,393.167188)scale(0.120000)">
<use xlink:href="#c_7a2040fe3b94fcd41d0a72c84e93b115"/>
<use xlink:href="#c_ed3e21196fb739f392806f09ca0594ef" x="63.623047"/>
<use xlink:href="#c_7a2040fe3b94fcd41d0a72c84e93b115" x="95.410156"/>
<use xlink:href="#c_7a2040fe3b94fcd41d0a72c84e93b115" x="159.033203"/>
<use xlink:href="#c_ed3f3ed3ebfbd18bcb9c012009a68ad1" x="222.656250"/>
</g>
</g>
</g>
<g id="ytick2">
<g id="line2d23">
<path style="fill: none; stroke: #000000; stroke-width: 0.500000; stroke-linejoin: round; stroke-linecap: butt; stroke-dasharray: 1.000000,3.000000; stroke-dashoffset: 0.000000; opacity: 1.000000" clip-path="url(#p50431ccdcb28178602d99d9270004dde)" d="M72.000000 339.428571L518.400000 339.428571"/>
</g>
<g id="line2d24">
<g ><use style="fill: none; stroke: #000000; stroke-width: 0.500000; stroke-linejoin: round; stroke-linecap: butt;  opacity: 1.000000" xlink:href="#m3400efa6b1638b3fea9e19e898273957" x="72.000000" y="339.428571"/>
</g></g>
<g id="line2d25">
<g ><use style="fill: none; stroke: #000000; stroke-width: 0.500000; stroke-linejoin: round; stroke-linecap: butt;  opacity: 1.000000" xlink:href="#m20b58b2501143cb5e0a5e8f1ef6f1643" x="518.400000" y="339.428571"/>
</g></g>
<g id="text8">
<g style="fill: #000000; opacity: 1.000000" transform="translate(35.093750,343.795759)scale(0.120000)">
<use xlink:href="#c_7a2040fe3b94fcd41d0a72c84e93b115"/>
<use xlink:href="#c_ed3e21196fb739f392806f09ca0594ef" x="63.623047"/>
<use xlink:href="#c_7a2040fe3b94fcd41d0a72c84e93b115" x="95.410156"/>
<use xlink:href="#c_7a2040fe3b94fcd41d0a72c84e93b115" x="159.033203"/>
<use xlink:href="#c_a0416418d96557a09b8c1332d34883ba" x="222.656250"/>
</g>
</g>
</g>
<g id="ytick3">
<g id="line2d26">
<path style="fill: none; stroke: #000000; stroke-width: 0.500000; stroke-linejoin: round; stroke-linecap: butt; stroke-dasharray: 1.000000,3.000000; stroke-dashoffset: 0.000000; opacity: 1.000000" clip-path="url(#p50431ccdcb28178602d99d9270004dde)" d="M72.000000 290.057143L518.400000 290.057143"/>
</g>
<g id="line2d27">
<g ><use style="fill: none; stroke: #000000; stroke-width: 0.500000; stroke-linejoin: round; stroke-linecap: butt;  opacity: 1.000000" xlink:href="#m3400efa6b1638b3fea9e19e898273957" x="72.000000" y="290.057143"/>
</g></g>
<g id="line2d28">
<g ><use style="fill: none; stroke: #000000; stroke-width: 0.500000; stroke-linejoin: round; stroke-linecap: butt;  opacity: 1.000000" xlink:href="#m20b58b2501143cb5e0a5e8f1ef6f1643" x="518.400000" y="290.057143"/>
</g></g>
<g id="text9">
<g style="fill: #000000; opacity: 1.000000" transform="translate(35.187500,294.424330)scale(0.120000)">
<use xlink:href="#c_7a2040fe3b94fcd41d0a72c84e93b115"/>
<use xlink:href="#c_ed3e21196fb739f392806f09ca0594ef" x="63.623047"/>
<use xlink:href="#c_7a2040fe3b94fcd41d0a72c84e93b115" x="95.410156"/>
<use xlink:href="#c_7a2040fe3b94fcd41d0a72c84e93b115" x="159.033203"/>
<use xlink:href="#c_cc8d6d580d1b10c8632f7a42cd53db8a" x="222.656250"/>
</g>
</g>
</g>
<g id="ytick4">
<g id="line2d29">
<path style="fill: none; stroke: #000000; stroke-width: 0.500000; stroke-linejoin: round; stroke-linecap: butt; stroke-dasharray: 1.000000,3.000000; stroke-dashoffset: 0.000000; opacity: 1.000000" clip-path="url(#p50431ccdcb28178602d99d9270004dde)" d="M72.000000 240.685714L518.400000 240.685714"/>
</g>
<g id="line2d30">
<g ><use style="fill: none; stroke: #000000; stroke-width: 0.500000; stroke-linejoin: round; stroke-linecap: butt;  opacity: 1.000000" xlink:href="#m3400efa6b1638b3fea9e19e898273957" x="72.000000" y="240.685714"/>
</g></g>
<g id="line2d31">
<g ><use style="fill: none; stroke: #000000; stroke-width: 0.500000; stroke-linejoin: round; stroke-linecap: butt;  opacity: 1.000000" xlink:href="#m20b58b2501143cb5e0a5e8f1ef6f1643" x="518.400000" y="240.685714"/>
</g></g>
<g id="text10">
<g style="fill: #000000; opacity: 1.000000" transform="translate(35.250000,245.052902)scale(0.120000)">
<use xlink:href="#c_7a2040fe3b94fcd41d0a72c84e93b115"/>
<use xlink:href="#c_ed3e21196fb739f392806f09ca0594ef" x="63.623047"/>
<use xlink:href="#c_7a2040fe3b94fcd41d0a72c84e93b115" x="95.410156"/>
<use xlink:href="#c_7a2040fe3b94fcd41d0a72c84e93b115" x="159.033203"/>
<use xlink:href="#c_bef35738d52871942e50b9de9b122bab" x="222.656250"/>
</g>
</g>
</g>
<g id="ytick5">
<g id="line2d32">
<path style="fill: none; stroke: #000000; stroke-width: 0.500000; stroke-linejoin: round; stroke-linecap: butt; stroke-dasharray: 1.000000,3.000000; stroke-dashoffset: 0.000000; opacity: 1.000000" clip-path="url(#p50431ccdcb28178602d99d9270004dde)" d="M72.000000 191.314286L518.400000 191.314286"/>
</g>
<g id="line2d33">
<g ><use style="fill: none; stroke: #000000; stroke-width: 0.500000; stroke-linejoin: round; stroke-linecap: butt;  opacity: 1.000000" xlink:href="#m3400efa6b1638b3fea9e19e898273957" x="72.000000" y="191.314286"/>
</g></g>
<g id="line2d34">
<g ><use style="fill: none; stroke: #000000; stroke-width: 0.500000; stroke-linejoin: round; stroke-linecap: butt;  opacity: 1.000000" xlink:href="#m20b58b2501143cb5e0a5e8f1ef6f1643" x="518.400000" y="191.314286"/>
</g></g>
<g id="text11">
<g style="fill: #000000; opacity: 1.000000" transform="translate(35.218750,195.681473)scale(0.120000)">
<use xlink:href="#c_7a2040fe3b94fcd41d0a72c84e93b115"/>
<use xlink:href="#c_ed3e21196fb739f392806f09ca0594ef" x="63.623047"/>
<use xlink:href="#c_7a2040fe3b94fcd41d0a72c84e93b115" x="95.410156"/>
<use xlink:href="#c_42baa63129a918535c52adb20d687ea7" x="159.033203"/>
<use xlink:href="#c_7a2040fe3b94fcd41d0a72c84e93b115" x="222.656250"/>
</g>
</g>
</g>
<g id="ytick6">
<g id="line2d35">
<path style="fill: none; stroke: #000000; stroke-width: 0.500000; stroke-linejoin: round; stroke-linecap: butt; stroke-dasharray: 1.000000,3.000000; stroke-dashoffset: 0.000000; opacity: 1.000000" clip-path="url(#p50431ccdcb28178602d99d9270004dde)" d="M72.000000 141.942857L518.400000 141.942857"/>
</g>
<g id="line2d36">
<g ><use style="fill: none; stroke: #000000; stroke-width: 0.500000; stroke-linejoin: round; stroke-linecap: butt;  opacity: 1.000000" xlink:href="#m3400efa6b1638b3fea9e19e898273957" x="72.000000" y="141.942857"/>
</g></g>
<g id="line2d37">
<g ><use style="fill: none; stroke: #000000; stroke-width: 0.500000; stroke-linejoin: round; stroke-linecap: butt;  opacity: 1.000000" xlink:href="#m20b58b2501143cb5e0a5e8f1ef6f1643" x="518.400000" y="141.942857"/>
</g></g>
<g id="text12">
<g style="fill: #000000; opacity: 1.000000" transform="translate(35.625000,146.310045)scale(0.120000)">
<use xlink:href="#c_7a2040fe3b94fcd41d0a72c84e93b115"/>
<use xlink:href="#c_ed3e21196fb739f392806f09ca0594ef" x="63.623047"/>
<use xlink:href="#c_7a2040fe3b94fcd41d0a72c84e93b115" x="95.410156"/>
<use xlink:href="#c_42baa63129a918535c52adb20d687ea7" x="159.033203"/>
<use xlink:href="#c_ed3f3ed3ebfbd18bcb9c012009a68ad1" x="222.656250"/>
</g>
</g>
</g>
<g id="ytick7">
<g id="line2d38">
<path style="fill: none; stroke: #000000; stroke-width: 0.500000; stroke-linejoin: round; stroke-linecap: butt; stroke-dasharray: 1.000000,3.000000; stroke-dashoffset: 0.000000; opacity: 1.000000" clip-path="url(#p50431ccdcb28178602d99d9270004dde)" d="M72.000000 92.571429L518.400000 92.571429"/>
</g>
<g id="line2d39">
<g ><use style="fill: none; stroke: #000000; stroke-width: 0.500000; stroke-linejoin: round; stroke-linecap: butt;  opacity: 1.000000" xlink:href="#m3400efa6b1638b3fea9e19e898273957" x="72.000000" y="92.571429"/>
</g></g>
<g id="line2d40">
<g ><use style="fill: none; stroke: #000000; stroke-width: 0.500000; stroke-linejoin: round; stroke-linecap: butt;  opacity: 1.000000" xlink:href="#m20b58b2501143cb5e0a5e8f1ef6f1643" x="518.400000" y="92.571429"/>
</g></g>
<g id="text13">
<g style="fill: #000000; opacity: 1.000000" transform="translate(35.093750,96.938616)scale(0.120000)">
<use xlink:href="#c_7a2040fe3b94fcd41d0a72c84e93b115"/>
<use xlink:href="#c_ed3e21196fb739f392806f09ca0594ef" x="63.623047"/>
<use xlink:href="#c_7a2040fe3b94fcd41d0a72c84e93b115" x="95.410156"/>
<use xlink:href="#c_42baa63129a918535c52adb20d687ea7" x="159.033203"/>
<use xlink:href="#c_a0416418d96557a09b8c1332d34883ba" x="222.656250"/>
</g>
</g>
</g>
<g id="ytick8">
<g id="line2d41">
<path style="fill: none; stroke: #000000; stroke-width: 0.500000; stroke-linejoin: round; stroke-linecap: butt; stroke-dasharray: 1.000000,3.000000; stroke-dashoffset: 0.000000; opacity: 1.000000" clip-path="url(#p50431ccdcb28178602d99d9270004dde)" d="M72.000000 43.200000L518.400000 43.200000"/>
</g>
<g id="line2d42">
<g ><use style="fill: none; stroke: #000000; stroke-width: 0.500000; stroke-linejoin: round; stroke-linecap: butt;  opacity: 1.000000" xlink:href="#m3400efa6b1638b3fea9e19e898273957" x="72.000000" y="43.200000"/>
</g></g>
<g id="line2d43">
<g ><use style="fill: none; stroke: #000000; stroke-width: 0.500000; stroke-linejoin: round; stroke-linecap: butt;  opacity: 1.000000" xlink:href="#m20b58b2501143cb5e0a5e8f1ef6f1643" x="518.400000" y="43.200000"/>
</g></g>
<g id="text14">
<g style="fill: #000000; opacity: 1.000000" transform="translate(35.187500,47.567187)scale(0.120000)">
<use xlink:href="#c_7a2040fe3b94fcd41d0a72c84e93b115"/>
<use xlink:href="#c_ed3e21196fb739f392806f09ca0594ef" x="63.623047"/>
<use xlink:href="#c_7a2040fe3b94fcd41d0a72c84e93b115" x="95.410156"/>
<use xlink:href="#c_42baa63129a918535c52adb20d687ea7" x="159.033203"/>
<use xlink:href="#c_cc8d6d580d1b10c8632f7a42cd53db8a" x="222.656250"/>
</g>
</g>
</g>
</g>
<g id="patch3">
<path style="fill: none; stroke: #000000; stroke-width: 1.000000; stroke-linejoin: round; stroke-linecap: square;  opacity: 1.000000"  d="M72.000000 43.200000L518.400000 43.200000"/>
</g>
<g id="patch4">
<path style="fill: none; stroke: #000000; stroke-width: 1.000000; stroke-linejoin: round; stroke-linecap: square;  opacity: 1.000000"  d="M518.400000 388.800000L518.400000 43.200000"/>
</g>
<g id="patch5">
<path style="fill: none; stroke: #000000; stroke-width: 1.000000; stroke-linejoin: round; stroke-linecap: square;  opacity: 1.000000"  d="M72.000000 388.800000L518.400000 388.800000"/>
</g>
<g id="patch6">
<path style="fill: none; stroke: #000000; stroke-width: 1.000000; stroke-linejoin: round; stroke-linecap: square;  opacity: 1.000000"  d="M72.000000 388.800000L72.000000 43.200000"/>
</g>
</g>
</g>
</svg>
