<?xml version="1.0" standalone="no"?>
<!DOCTYPE svg PUBLIC "-//W3C//DTD SVG 1.1//EN"
  "http://www.w3.org/Graphics/SVG/1.1/DTD/svg11.dtd">
<!-- Created with matplotlib (http://matplotlib.sourceforge.net/) -->
<svg width="576pt" height="432pt" viewBox="0 0 576 432"
   xmlns="http://www.w3.org/2000/svg"
   xmlns:xlink="http://www.w3.org/1999/xlink"
   version="1.1"
   id="svg1">
<g id="figure1">
<g id="patch1">
<path style="fill: #ffffff; stroke: #ffffff; stroke-width: 1.000000; stroke-linejoin: round; stroke-linecap: square;  opacity: 1.000000"  d="M0.000000 432.000000L576.000000 432.000000L576.000000 0.000000
L0.000000 0.000000L0.000000 432.000000"/>
</g>
<g id="axes1">
<g id="patch2">
<path style="fill: #ffffff; opacity: 1.000000"  d="M72.000000 388.800000L518.400000 388.800000L518.400000 43.200000
L72.000000 43.200000L72.000000 388.800000"/>
</g>
<g id="line2d1">
<defs>
  <clipPath id="p50431ccdcb28178602d99d9270004dde">
<rect x="72.000000" y="43.200000" width="446.400000" height="345.600000"/>
  </clipPath>
</defs><path style="fill: none; stroke: #ff0000; stroke-width: 1.000000; stroke-linejoin: round; stroke-linecap: square;  opacity: 1.000000" clip-path="url(#p50431ccdcb28178602d99d9270004dde)" d="M72.000000 76.278822L72.133920 144.314930L72.401760 197.840672
L72.491040 117.181622L72.758880 150.308425L73.116000 328.822180
L73.294560 90.311786L73.473120 182.179851L73.696320 202.122154
L73.696320 202.122154L73.964160 127.125973L73.964160 127.125973
L74.276640 259.394905L74.455200 329.500635L74.633760 150.489367
L74.812320 138.085182L74.946240 181.218355L75.124800 259.492147
L75.303360 124.534820L75.571200 108.960242L75.660480 242.200464
L75.749760 191.821499L75.794400 258.407779L76.017600 260.769388
L76.151520 148.790125L76.330080 262.791186L76.508640 260.127123
L76.865760 110.812884L76.999680 256.226230L77.222880 255.595784
L77.267520 248.732050L77.624640 119.506225L77.847840 255.495882
L77.937120 247.869901L78.249600 255.867752L78.249600 255.867752
L78.294240 248.872422L78.562080 101.197347L78.606720 152.934509
L78.919200 255.600196L79.097760 112.760374L79.231680 143.533496
L79.588800 330.959074L79.812000 139.810676L79.945920 152.014113
L79.990560 144.470735L80.213760 106.567151L80.347680 248.548154
L80.526240 128.091942L80.660160 143.745546L80.838720 142.609757
L80.972640 254.119826L81.285120 107.396575L81.329760 154.969251
L81.463680 154.096956L81.552960 227.631544L81.642240 254.908958
L81.865440 250.750037L81.999360 254.798010L82.311840 145.846712
L82.579680 141.343725L82.624320 255.624056L82.758240 256.878961
L82.847520 254.952474L83.204640 142.614081L83.472480 370.858025
L83.517120 235.039296L83.874240 107.750130L84.097440 274.065105
L84.231360 253.962630L84.276000 256.172052L84.320640 151.440544
L84.543840 254.045167L84.677760 255.844223L84.945600 264.537952
L84.990240 253.677137L85.034880 251.271774L85.258080 255.775566
L85.347360 250.747678L85.392000 247.663219L85.481280 307.269663
L85.704480 255.865911L85.793760 226.961070L85.838400 255.316669
L86.016960 184.483386L86.106240 253.766775L86.463360 144.272369
L86.731200 123.797706L86.820480 253.644406L86.954400 252.834983
L86.999040 256.164170L87.222240 145.328942L87.311520 253.650186
L87.356160 250.937739L87.490080 255.525807L87.668640 250.981199
L87.936480 196.385181L88.025760 371.736512L88.248960 256.241845
L88.293600 253.518444L88.338240 255.858022L88.561440 156.955985
L88.650720 170.620665L88.963200 324.191321L89.007840 126.250248
L89.275680 253.038746L89.320320 250.313051L89.543520 257.861965
L89.677440 135.181578L89.811360 256.921815L90.034560 256.276979
L90.257760 139.950891L90.347040 215.735843L90.525600 139.624077
L90.659520 252.884308L90.972000 144.547987L91.239840 256.021117
L91.329120 254.339220L91.463040 280.925584L91.641600 184.046625
L91.686240 252.485968L91.909440 249.819376L92.221920 260.385305
L92.221920 260.385305L92.311200 249.643025L92.579040 253.510857
L92.623680 249.220319L92.757600 252.256157L92.891520 251.495974
L93.204000 257.886691L93.204000 257.886691L93.337920 248.967258
L93.516480 249.694772L93.605760 325.908540L93.828960 254.495320
L93.962880 221.643956L94.052160 252.861123L94.364640 123.434867
L94.409280 147.118944L94.766400 330.851346L95.168160 58.644940
L95.212800 257.782896L95.525280 249.379299L95.659200 326.087997
L95.793120 252.034374L96.060960 245.702579L96.150240 247.499734
L96.507360 179.351205L96.641280 148.602544L96.864480 250.094287
L96.909120 248.435379L97.087680 134.153819L97.221600 247.623571
L97.310880 239.178460L97.310880 239.178460L97.400160 251.077456
L97.534080 249.617957L97.668000 249.585388L97.668000 249.585388
L97.801920 249.707432L97.935840 245.827813L98.025120 258.831580
L98.069760 250.951519L98.203680 323.286805L98.382240 248.735169
L98.426880 249.842177L98.694720 250.093804L98.739360 247.841563
L98.873280 245.853672L98.917920 250.026620L99.185760 241.037765
L99.230400 246.569866L99.453600 342.475726L99.542880 248.595216
L99.676800 248.768153L99.676800 248.768153L99.855360 143.197120
L99.989280 216.522569L100.301760 332.195327L100.346400 246.088924
L100.480320 247.553586L100.480320 247.553586L100.524960 121.652074
L100.703520 245.213253L100.792800 321.836014L100.882080 245.895815
L101.016000 219.466921L101.060640 324.283170L101.328480 246.242543
L101.507040 244.138370L101.596320 245.452589L101.685600 247.130265
L101.774880 246.061258L102.042720 248.977667L102.042720 248.977667
L102.355200 227.306009L102.355200 227.306009L102.533760 249.861429
L102.623040 248.895005L102.980160 138.741109L103.069440 249.018127
L103.337280 244.675432L103.605120 247.141481L103.649760 245.995148
L103.917600 248.843812L103.962240 246.052879L104.096160 248.178166
L104.140800 246.937004L104.274720 243.378114L104.497920 246.271120
L104.587200 244.972852L104.721120 248.297691L104.765760 246.230742
L105.033600 138.458891L105.078240 241.988386L105.212160 239.822055
L105.212160 239.822055L105.256800 321.193559L105.524640 244.295783
L105.747840 320.610830L105.837120 243.099780L105.971040 250.804222
L106.015680 246.182490L106.238880 371.821915L106.328160 239.990427
L106.372800 241.656558L106.640640 244.923914L106.685280 243.855160
L106.997760 237.956098L106.997760 237.956098L107.042400 248.379053
L107.176320 241.404073L107.444160 243.511178L107.444160 243.511178
L107.578080 241.183222L107.622720 242.483591L107.890560 239.852955
L107.935200 240.924200L108.069120 324.856604L108.247680 232.279146
L108.515520 244.378953L108.560160 240.341390L108.649440 242.014426
L108.917280 245.572836L108.961920 133.482493L109.006560 253.113000
L109.319040 240.793036L109.497600 245.942145L109.542240 215.710125
L109.720800 238.655089L109.899360 233.346418L110.122560 240.341790
L110.211840 240.114183L110.301120 234.447949L110.435040 238.329460
L110.747520 247.855340L110.747520 247.855340L111.149280 219.830261
L111.417120 251.640422L111.506400 245.812061L111.551040 207.008234
L111.818880 243.595904L112.131360 217.965707L112.176000 235.734482
L112.354560 249.771560L112.488480 239.745826L112.533120 221.825546
L112.800960 230.020060L113.068800 250.396897L113.113440 236.087875
L113.336640 234.620983L113.336640 234.620983L113.515200 146.225401
L113.649120 229.084274L113.827680 252.060051L114.006240 239.907437
L114.408000 215.178464L114.631200 250.308340L114.765120 233.438405
L115.032960 146.165746L115.077600 229.313093L115.122240 233.822364
L115.211520 231.961250L115.300800 267.529319L115.524000 233.678541
L115.613280 232.222299L115.881120 202.030210L116.015040 205.774564
L116.148960 322.158303L116.372160 231.458789L116.773920 202.671936
L116.907840 328.841956L117.131040 231.442431L117.220320 235.109127
L117.264960 232.971919L117.577440 213.964808L117.666720 327.775338
L117.934560 230.421871L117.979200 232.357891L118.247040 239.759952
L118.291680 223.104119L118.648800 317.284151L118.872000 194.559941
L119.005920 234.675319L119.095200 201.762697L119.139840 332.704653
L119.407680 223.701042L119.586240 236.861361L119.720160 224.950985
L119.898720 239.071206L120.032640 203.048017L120.077280 332.818517
L120.345120 228.089466L120.479040 292.368542L120.479040 292.368542
L120.702240 211.851768L120.746880 217.894159L120.880800 215.308486
L121.059360 223.774632L121.327200 227.383301L121.327200 227.383301
L121.371840 226.142023L121.550400 240.512482L121.684320 213.395307
L121.728960 214.621704L121.907520 197.766621L121.996800 226.030914
L122.175360 232.687738L122.175360 232.687738L122.443200 215.005828
L122.487840 234.915286L122.711040 238.325960L122.800320 195.545530
L123.157440 331.381034L123.514560 194.248489L123.648480 300.028339
L123.871680 215.994758L123.960960 254.378792L124.184160 179.525925
L124.541280 331.705808L124.630560 212.978052L124.898400 238.658916
L125.166240 201.088062L125.255520 206.693705L125.612640 275.936325
L125.835840 204.852475L125.880480 227.805651L126.148320 233.946722
L126.192960 212.056853L126.237600 217.308044L126.282240 213.547002
L126.550080 222.244062L126.594720 215.557407L126.684000 218.324524
L126.817920 206.313475L126.996480 216.817913L127.085760 211.713050
L127.130400 215.484416L127.308960 224.325525L127.398240 219.582399
L127.710720 213.523216L127.755360 214.862802L127.889280 217.024538
L127.978560 242.753134L128.067840 219.138618L128.246400 207.191316
L128.514240 336.350394L128.648160 276.862003L129.005280 246.582594
L129.183840 333.623691L129.362400 276.562656L129.496320 271.722841
L129.719520 272.897446L129.942720 277.729289L130.076640 275.172968
L130.210560 272.507589L130.299840 275.825594L130.478400 272.455005
L130.523040 275.045839L130.656960 278.295801L130.835520 276.900028
L130.969440 272.156284L131.058720 274.760263L131.237280 276.048208
L131.639040 241.011199L131.906880 277.237270L131.996160 271.152660
L132.040800 275.742856L132.174720 274.357580L132.442560 275.804026
L132.755040 267.406842L133.022880 284.383762L133.067520 273.457075
L133.246080 275.147880L133.380000 282.512278L133.558560 272.398498
L133.737120 269.987995L133.826400 273.891187L134.094240 277.247134
L134.272800 255.616603L134.362080 276.654217L134.451360 283.246566
L134.763840 268.628071L134.763840 268.628071L135.120960 278.283900
L135.165600 242.526071L135.433440 274.222227L135.567360 264.394203
L135.612000 271.548005L135.835200 285.558050L135.879840 244.672604
L136.147680 281.098497L136.326240 283.656684L136.504800 272.860329
L136.549440 276.506553L136.638720 285.528963L136.861920 262.725285
L136.951200 329.372650L137.219040 272.811556L137.442240 280.987566
L137.531520 277.056140L137.620800 255.663462L137.844000 269.080702
L137.977920 333.771634L138.156480 281.449027L138.468960 230.355139
L138.647520 343.096276L138.826080 280.274679L139.138560 245.887359
L139.183200 270.691803L139.361760 255.877345L139.406400 280.908857
L139.629600 244.790322L139.718880 263.790503L139.986720 335.200417
L140.076000 269.472220L140.254560 280.447816L140.299200 264.142436
L140.656320 333.942726L140.968800 239.696271L141.013440 271.134007
L141.058080 269.887886L141.325920 336.676814L141.370560 274.788319
L141.683040 262.910058L141.995520 342.339091L142.308000 233.640757
L142.352640 273.435404L142.531200 263.871412L142.575840 273.393342
L142.620480 265.209199L142.665120 337.506249L142.932960 279.870401
L143.066880 283.716111L143.245440 271.360270L143.334720 332.254097
L143.557920 278.224123L143.647200 237.823335L144.004320 337.972536
L144.138240 264.515762L144.361440 273.484354L144.584640 277.697485
L144.673920 271.347191L144.986400 248.090392L145.254240 274.109336
L145.343520 272.928395L145.522080 269.056996L145.566720 272.042932
L145.745280 280.845805L145.789920 272.214078L145.879200 276.285372
L145.968480 269.296983L146.191680 264.980778L146.280960 278.322576
L146.459520 279.132831L146.593440 278.814564L146.816640 268.312622
L146.950560 268.783372L147.084480 261.705790L147.263040 273.545454
L147.575520 260.245073L147.664800 337.389524L147.888000 265.389872
L147.932640 269.894115L148.289760 338.018556L148.468320 256.095325
L148.646880 262.477566L148.914720 331.538682L149.004000 276.294158
L149.048640 262.750318L149.137920 269.196044L149.361120 263.059423
L149.450400 271.363509L149.495040 273.527264L149.852160 339.296553
L149.986080 262.593499L150.209280 272.206798L150.298560 273.022762
L150.432480 266.688967L150.789600 339.645787L150.834240 263.370144
L151.146720 270.531131L151.280640 272.722138L151.325280 270.183081
L151.369920 275.542524L151.548480 264.724679L151.727040 330.401849
L152.039520 331.699288L152.084160 276.905250L152.128800 261.869472
L152.307360 265.957182L152.664480 335.746767L152.976960 340.491013
L153.021600 267.595318L153.200160 273.821931L153.244800 264.360858
L153.289440 330.435509L153.601920 325.798593L153.959040 260.383561
L154.226880 331.379485L154.316160 268.599531L154.405440 277.763886
L154.539360 335.073421L154.717920 268.511388L154.762560 270.528254
L154.985760 265.647404L155.075040 268.285664L155.119680 269.492993
L155.476800 341.476900L155.566080 260.747501L155.833920 264.225689
L156.057120 260.413900L156.146400 263.981133L156.458880 270.784382
L156.503520 268.047422L156.637440 265.110137L156.682080 266.644369
L156.860640 262.026095L156.994560 269.034407L157.173120 242.306750
L157.262400 252.336865L157.307040 274.246036L157.619520 272.789941
L157.798080 278.930768L157.932000 267.825580L158.065920 263.490165
L158.199840 270.479701L158.244480 265.697350L158.512320 268.172210
L158.512320 268.172210L158.646240 260.536384L158.780160 264.426464
L158.869440 274.513009L159.003360 256.021373L159.048000 277.474065
L159.360480 276.605614L159.405120 259.137234L159.717600 262.203242
L159.851520 256.462233L160.208640 276.548096L160.253280 254.343907
L160.565760 257.434650L160.610400 277.054633L160.922880 276.596596
L161.235360 278.956485L161.280000 263.164648L161.458560 276.935216
L161.592480 309.963008L161.592480 309.963008L161.815680 258.439738
L161.860320 271.902738L162.128160 264.790510L162.440640 258.541582
L162.440640 258.541582L162.663840 275.127627L162.797760 265.649201
L162.976320 279.092691L163.065600 258.082293L163.244160 256.494697
L163.422720 268.186278L163.556640 255.085211L163.601280 278.203482
L163.913760 267.912260L164.047680 272.133701L164.315520 258.651832
L164.360160 271.920519L164.672640 267.381819L164.851200 273.796142
L165.029760 255.922992L165.252960 253.893705L165.386880 271.747408
L165.654720 253.293015L165.744000 254.105458L166.101120 276.720547
L166.368960 254.025453L166.458240 260.313921L166.636800 273.830459
L166.770720 264.280014L166.860000 270.140015L167.083200 263.263957
L167.261760 260.037291L167.261760 260.037291L167.440320 216.673940
L167.484960 277.382461L167.797440 264.979237L167.931360 262.635580
L167.976000 263.960390L168.154560 264.964393L168.377760 233.807224
L168.422400 264.341704L168.690240 252.725546L168.734880 272.540909
L168.868800 274.311001L169.047360 273.074586L169.359840 273.679059
L169.404480 260.403299L169.449120 268.205145L169.716960 263.897434
L169.895520 260.498516L170.029440 271.366180L170.208000 252.554683
L170.297280 272.915900L170.475840 264.158622L170.788320 269.755077
L170.788320 269.755077L171.190080 233.615560L171.234720 272.403406
L171.547200 264.337140L171.815040 254.045702L172.038240 239.373904
L172.082880 265.175743L172.306080 253.780207L172.529280 252.306288
L172.618560 260.951985L172.886400 235.126989L172.975680 271.763593
L173.243520 254.253972L173.466720 252.755174L173.556000 262.619400
L173.600640 261.065649L173.868480 269.210410L173.913120 262.885714
L174.047040 272.741060L174.047040 272.741060L174.225600 256.514751
L174.314880 262.193512L174.582720 254.891964L174.716640 240.188430
L174.895200 264.843574L175.029120 259.186297L175.207680 262.973930
L175.386240 265.080882L175.430880 262.796724L175.609440 263.487276
L175.609440 263.487276L175.877280 270.792822L175.921920 258.354559
L175.966560 257.036187L176.145120 254.614604L176.234400 260.551706
L176.412960 258.402802L176.457600 259.450679L176.636160 269.776786
L176.770080 260.881433L176.948640 268.541751L176.993280 260.486506
L177.127200 269.434393L177.305760 251.373058L177.528960 235.026122
L177.618240 260.091067L177.841440 256.412277L177.930720 262.330450
L178.287840 257.431669L178.332480 261.415952L178.555680 269.533167
L178.644960 260.745123L178.734240 255.793407L178.912800 259.236848
L179.002080 269.255425L179.225280 256.347563L179.269920 258.542439
L179.359200 270.775290L179.582400 260.427138L179.850240 251.520415
L179.984160 239.559910L180.162720 266.379630L180.475200 241.080931
L180.519840 258.461149L180.743040 248.505196L180.787680 268.563884
L180.966240 239.928720L181.100160 258.158509L181.457280 262.640187
L181.814400 229.415241L182.082240 263.138562L182.126880 259.802322
L182.305440 259.385223L182.305440 259.385223L182.662560 239.696759
L182.930400 265.004492L183.019680 261.084057L183.242880 262.339029
L183.287520 259.015249L183.376800 261.097160L183.689280 262.180236
L183.689280 262.180236L183.912480 258.394732L184.001760 371.108087
L184.224960 260.229158L184.448160 261.053911L184.537440 258.665636
L184.626720 264.063816L184.849920 258.292570L184.894560 262.186036
L185.117760 259.677911L185.340960 260.954387L185.385600 259.488195
L185.474880 265.001952L185.653440 261.069962L185.921280 257.123403
L186.099840 259.237306L186.144480 260.537221L186.456960 253.690242
L186.456960 253.690242L186.546240 252.018489L186.546240 252.018489
L186.858720 223.965647L186.858720 223.965647L187.171200 325.177540
L187.215840 257.218439L187.483680 252.769745L187.572960 255.576028
L187.706880 252.105875L187.930080 371.023050L188.019360 255.271774
L188.064000 257.293103L188.108640 228.810310L188.331840 253.810471
L188.421120 324.729128L188.644320 256.258553L189.001440 217.869426
L189.046080 256.930128L189.358560 251.429341L189.403200 256.742207
L189.626400 252.895676L189.804960 252.287365L189.804960 252.287365
L190.072800 252.187691L190.117440 255.371306L190.474560 221.459392
L190.697760 262.125276L190.787040 324.391354L191.010240 253.108793
L191.278080 251.833765L191.322720 253.750711L191.545920 259.083185
L191.635200 254.875258L191.858400 251.794896L191.947680 255.002887
L192.126240 252.751376L192.215520 253.265064L192.349440 256.804622
L192.528000 256.706497L192.795840 253.250550L192.795840 253.250550
L192.929760 251.709860L192.929760 251.709860L193.063680 370.790472
L193.242240 326.058430L193.510080 223.971415L193.599360 252.995138
L193.688640 255.870581L193.867200 253.672127L193.956480 253.840787
L194.045760 256.169074L194.135040 254.071135L194.224320 258.287340
L194.313600 255.539999L194.536800 254.723946L194.626080 255.771496
L194.670720 221.837047L194.938560 254.114465L195.251040 251.283289
L195.251040 251.283289L195.384960 256.327429L195.608160 250.255835
L195.697440 254.734585L195.876000 256.789090L196.188480 233.030006
L196.188480 233.030006L196.500960 326.745946L196.545600 255.939047
L196.634880 257.238618L196.813440 255.159306L196.947360 253.357633
L197.215200 255.686193L197.215200 255.686193L197.349120 253.680370
L197.572320 250.445781L197.616960 256.212769L197.840160 245.316970
L197.974080 326.943664L198.197280 255.320290L198.554400 223.313204
L198.866880 325.480834L198.911520 255.647478L199.313280 251.057124
L199.357920 253.599551L199.670400 251.305670L199.670400 251.305670
L199.804320 253.985019L199.938240 252.170455L200.116800 249.763618
L200.250720 251.091402L200.563200 248.752129L200.607840 324.870116
L200.875680 323.774724L201.143520 249.314485L201.232800 251.156898
L201.366720 251.755472L201.366720 251.755472L201.545280 249.812440
L201.723840 325.584700L201.991680 250.389163L202.036320 251.514695
L202.259520 248.435579L202.304160 326.759938L202.572000 320.212742
L202.839840 249.105057L202.929120 249.816063L203.018400 252.031442
L203.063040 250.189210L203.420160 329.140360L203.464800 248.205976
L203.777280 251.499993L203.821920 249.349907L203.911200 250.590316
L204.179040 387.816577L204.268320 329.546925L204.580800 246.953054
L204.893280 327.139060L205.205760 247.946471L205.250400 251.427235
L205.295040 248.708767L205.339680 250.688237L205.696800 324.755063
L205.964640 325.627976L206.009280 249.930236L206.143200 251.032292
L206.187840 249.801390L206.366400 247.999163L206.455680 249.353184
L206.500320 247.600086L206.812800 325.096156L207.080640 327.724882
L207.169920 251.430307L207.214560 250.399866L207.393120 249.421404
L207.437760 250.904165L207.571680 248.791072L207.839520 245.932734
L207.884160 323.800120L208.152000 370.906765L208.241280 245.529626
L208.285920 247.540534L208.509120 247.090959L208.732320 241.500869
L208.776960 250.582808L208.955520 247.616932L209.223360 246.820516
L209.223360 246.820516L209.357280 244.565907L209.580480 247.730087
L209.759040 244.402851L209.803680 246.767407L209.937600 245.024656
L210.116160 248.175218L210.160800 242.934668L210.205440 323.807860
L210.473280 245.851161L210.830400 248.568159L211.232160 225.887008
L211.276800 326.124424L211.544640 246.882531L211.812480 244.179562
L211.946400 244.695025L212.035680 242.800058L212.258880 246.977548
L212.526720 248.501580L212.571360 244.466285L212.660640 246.321604
L212.794560 245.880667L212.973120 244.527884L213.017760 245.589263
L213.285600 248.997080L213.330240 244.521888L213.374880 247.553309
L213.642720 242.900641L213.687360 244.728124L213.910560 239.359978
L213.999840 244.114712L214.312320 240.721528L214.401600 242.906883
L214.714080 242.461930L214.937280 239.403456L215.026560 240.112579
L215.339040 239.054829L215.383680 241.621296L215.651520 244.209887
L215.696160 242.882359L215.830080 243.139567L216.008640 241.526945
L216.187200 241.256815L216.276480 242.318801L216.544320 244.095693
L216.588960 242.650183L216.946080 238.818040L216.990720 242.991692
L217.303200 241.218739L217.481760 244.579399L217.526400 242.827742
L217.749600 243.283834L217.749600 243.283834L217.883520 241.155732
L218.062080 243.297588L218.597760 234.272992L218.642400 237.279802
L218.731680 235.518944L218.954880 237.980761L219.267360 216.504702
L219.445920 241.567437L219.624480 238.126119L219.936960 238.493897
L219.981600 235.499359L220.070880 234.583402L220.294080 237.658377
L220.561920 234.954865L220.651200 236.099974L220.829760 240.047748
L220.963680 239.405360L221.142240 215.449254L221.186880 237.040423
L221.276160 240.984466L221.454720 237.891702L221.722560 234.883653
L221.811840 241.126922L221.856480 236.698244L222.168960 241.643340
L222.168960 241.643340L222.392160 236.348842L222.481440 237.427174
L222.615360 236.013474L222.749280 233.911455L222.838560 237.250171
L223.061760 235.383613L223.329600 234.482836L223.374240 238.950357
L223.820640 208.215057L224.043840 236.390248L224.133120 234.305082
L224.356320 208.838202L224.400960 233.360092L224.624160 232.953507
L224.624160 232.953507L224.758080 233.239525L224.758080 233.239525
L225.025920 236.007576L225.070560 233.900058L225.338400 230.634114
L225.383040 233.445943L225.516960 234.086848L225.695520 230.939963
L225.829440 230.051677L225.918720 231.423773L226.052640 234.477796
L226.141920 233.471171L226.365120 232.063213L226.454400 233.491495
L226.543680 235.771106L226.588320 225.749252L226.856160 230.799343
L226.945440 230.491983L226.945440 230.491983L227.168640 235.432394
L227.257920 233.592667L227.436480 225.321117L227.481120 226.359804
L227.659680 227.927328L227.704320 225.472400L228.016800 206.671466
L228.016800 206.671466L228.284640 316.540095L228.373920 224.055929
L228.418560 228.142388L228.463200 224.099158L228.507840 317.227096
L228.686400 225.174468L228.864960 224.808574L228.864960 224.808574
L228.954240 223.450842L229.222080 194.451256L229.266720 226.373583
L229.356000 224.758930L229.400640 227.005455L229.534560 224.338729
L229.623840 227.036814L229.847040 227.040867L229.936320 224.928046
L230.248800 224.153251L230.248800 224.153251L230.561280 223.218109
L230.561280 223.218109L230.605920 225.003459L230.784480 221.871285
L230.918400 224.675567L231.052320 222.740696L231.141600 222.808687
L231.409440 319.271132L231.454080 225.212230L231.543360 228.245250
L231.588000 225.351132L231.766560 227.158736L231.811200 225.271856
L231.989760 223.978134L232.123680 316.409926L232.168320 222.621692
L232.346880 224.792023L232.614720 219.599803L232.659360 226.190407
L232.793280 223.288954L232.837920 224.668491L232.927200 316.961982
L233.016480 227.027053L233.195040 227.226455L233.239680 226.086095
L233.462880 224.497528L233.552160 224.507698L233.730720 226.868166
L233.775360 225.277953L233.864640 229.481668L234.087840 209.284596
L234.177120 218.254221L234.311040 219.684422L234.534240 215.577430
L234.846720 214.071555L234.846720 214.071555L234.891360 216.215746
L235.203840 216.069061L235.293120 230.628908L235.516320 213.978337
L235.694880 212.810120L235.694880 212.810120L235.739520 232.074298
L235.962720 215.470332L236.185920 213.763736L236.230560 215.249008
L236.409120 214.857547L236.543040 216.952445L236.766240 218.628619
L236.810880 214.590543L237.212640 217.109947L237.391200 275.454434
L237.614400 273.506565L237.882240 278.128692L237.926880 272.864919
L237.971520 276.525886L238.194720 273.252924L238.284000 274.209463
L238.462560 271.013930L238.462560 271.013930L238.507200 333.453326
L238.685760 275.621483L238.998240 269.960930L239.042880 280.805994
L239.310720 275.883159L239.667840 273.322837L239.757120 271.060418
L239.980320 275.589458L240.158880 272.530240L240.248160 273.906267
L240.382080 275.577285L240.426720 270.840232L240.649920 273.020307
L240.828480 276.516299L241.051680 276.210349L241.230240 272.129871
L241.408800 274.311260L241.632000 275.776455L241.632000 275.776455
L241.899840 277.186168L241.944480 273.835937L242.033760 273.469135
L242.167680 274.239337L242.301600 275.445399L242.301600 275.445399
L242.524800 276.764948L242.569440 275.244136L242.748000 273.579090
L242.792640 275.254236L243.105120 271.548369L243.149760 273.316345
L243.328320 275.343024L243.417600 271.698234L243.730080 276.915978
L243.730080 276.915978L244.087200 271.601687L244.131840 274.706978
L244.355040 275.225122L244.399680 273.906274L244.712160 273.663170
L244.712160 273.663170L244.890720 274.449893L244.980000 272.780706
L245.113920 274.123081L245.381760 275.147341L245.426400 271.582959
L245.471040 274.095787L245.515680 272.769797L245.694240 277.192146
L245.783520 274.301238L245.872800 271.060446L246.051360 272.234113
L246.274560 270.304612L246.363840 274.850041L246.810240 246.053351
L246.988800 333.403060L247.167360 274.361761L247.390560 271.853424
L247.435200 273.670065L247.703040 274.004471L247.703040 274.004471
L247.881600 272.558211L247.970880 272.625018L248.283360 267.045442
L248.328000 268.841323L248.685120 371.553312L248.863680 268.815247
L249.042240 274.538451L249.265440 270.917213L249.354720 272.621406
L249.533280 274.414698L249.667200 272.874039L249.711840 270.979892
L249.756480 328.570271L249.979680 271.316391L250.113600 274.459508
L250.292160 271.024330L250.470720 270.450255L250.560000 272.746415
L250.693920 268.269425L251.006400 274.089464L251.006400 274.089464
L251.051040 269.736757L251.095680 332.089805L251.363520 273.050218
L251.542080 269.001168L251.676000 269.453152L251.720640 273.492754
L251.988480 371.543739L252.033120 334.566535L252.300960 269.528008
L252.390240 272.159686L252.434880 271.154574L252.658080 270.922661
L252.747360 271.431856L253.015200 272.104616L253.015200 272.104616
L253.327680 271.382964L253.327680 271.382964L253.595520 268.995305
L253.774080 272.375599L253.952640 269.997212L254.086560 271.219053
L254.265120 273.284407L254.309760 271.687739L254.577600 269.791125
L254.622240 272.234439L254.934720 269.959864L255.113280 272.169165
L255.336480 269.331763L255.425760 270.339380L255.515040 272.495787
L255.738240 272.120459L255.782880 269.307686L256.095360 268.396638
L256.140000 330.622077L256.497120 268.678703L256.541760 272.435475
L256.675680 271.284166L256.988160 269.713591L256.988160 269.713591
L257.434560 330.951209L257.747040 333.540073L257.791680 270.464330
L258.059520 332.107931L258.104160 270.515443L258.193440 272.437570
L258.327360 271.012271L258.505920 268.527639L258.684480 331.727164
L258.996960 236.993472L259.041600 271.990102L259.264800 269.438734
L259.532640 269.051436L259.577280 271.296209L259.621920 238.744098
L259.845120 271.137524L259.979040 267.617537L260.112960 269.307629
L260.246880 268.143731L260.246880 268.143731L260.604000 332.768706
L260.961120 269.154729L261.184320 259.203873L261.541440 333.428281
L261.675360 268.065014L261.898560 270.788333L261.943200 268.802642
L262.121760 270.720937L262.211040 268.920551L262.478880 331.727003
L262.836000 269.459052L263.059200 270.778462L263.059200 270.778462
L263.282400 267.967523L263.416320 331.699295L263.684160 264.893875
L263.773440 269.671897L263.862720 270.318393L263.862720 270.318393
L264.130560 269.880409L264.130560 269.880409L264.264480 271.176025
L264.309120 268.668782L264.487680 268.020222L264.621600 268.094377
L264.666240 271.321187L264.710880 268.919974L264.844800 268.722895
L265.068000 330.269592L265.157280 264.882007L265.335840 267.193787
L265.514400 263.701684L265.692960 263.779974L265.960800 262.519633
L266.005440 266.459670L266.228640 267.113879L266.273280 265.406719
L266.541120 267.360454L266.764320 268.700616L266.808960 266.607757
L267.210720 263.857641L267.478560 267.542798L267.791040 267.611610
L267.835680 262.964575L268.014240 267.021967L268.058880 265.768722
L268.549920 267.906807L268.773120 262.671774L268.817760 266.886365
L268.951680 265.617830L269.040960 266.664294L269.130240 269.151132
L269.398080 259.978922L269.442720 270.648384L269.755200 270.584043
L270.023040 242.414460L270.067680 331.454062L270.335520 263.621191
L270.380160 268.403674L270.648000 267.774360L270.781920 262.289159
L271.005120 265.659940L271.272960 264.245962L271.272960 264.245962
L271.540800 267.594014L271.719360 267.300703L271.853280 264.070802
L272.031840 264.095178L272.076480 268.241379L272.388960 266.541471
L272.656800 267.728534L272.746080 264.224599L273.103200 267.669923
L273.371040 264.599251L273.415680 265.824312L273.594240 263.852681
L273.638880 266.375844L273.817440 262.947474L273.906720 263.081420
L274.085280 260.760205L274.219200 264.343200L274.397760 260.322191
L274.531680 263.835790L274.620960 262.008400L274.754880 264.548238
L275.022720 260.722582L275.112000 264.074203L275.424480 261.746664
L275.424480 261.746664L275.647680 266.144839L275.915520 258.042104
L275.960160 270.973941L276.183360 261.692955L276.540480 265.788726
L276.585120 262.764715L276.763680 262.974386L276.986880 264.459316
L277.344000 261.209724L277.611840 305.692197L277.745760 263.914716
L277.879680 264.140819L278.058240 264.827056L278.102880 263.239292
L278.236800 262.840143L278.326080 264.009066L278.415360 265.514416
L278.638560 261.537847L278.683200 263.045448L278.951040 262.271938
L278.995680 265.274672L279.218880 266.879387L279.308160 265.712638
L279.352800 261.982144L279.397440 264.163679L279.709920 259.162009
L279.709920 259.162009L279.843840 264.747563L279.977760 263.569993
L280.200960 264.260485L280.245600 262.930612L280.468800 259.094982
L280.468800 259.094982L280.647360 264.396892L280.736640 263.672394
L280.915200 266.006764L280.959840 264.809709L281.004480 261.355949
L281.227680 261.442779L281.406240 264.385710L281.584800 262.496093
L281.808000 261.849052L281.897280 263.389801L282.075840 265.274146
L282.209760 262.578399L282.432960 264.544690L282.745440 261.143613
L282.790080 263.790200L283.013280 264.087698L283.102560 262.286020
L283.325760 259.778791L283.370400 263.944996L283.459680 261.370226
L283.593600 262.023206L283.772160 263.033912L283.950720 264.804318
L283.995360 263.572785L284.218560 260.826436L284.263200 263.307985
L284.441760 270.048201L284.620320 260.253151L284.888160 265.078640
L284.977440 262.505241L285.156000 261.242419L285.200640 263.280362
L285.423840 258.858848L285.468480 264.116753L285.691680 258.908207
L285.870240 257.354406L285.914880 260.703385L286.227360 253.164494
L286.495200 370.573347L286.584480 261.345738L286.852320 263.030063
L286.941600 259.553730L287.343360 304.162463L287.521920 258.342656
L287.611200 261.701220L287.879040 262.551347L287.923680 261.535806
L288.012960 258.751160L288.325440 258.732276L288.325440 258.732276
L288.459360 256.940911L288.816480 261.776184L288.995040 257.520400
L289.173600 259.576776L289.262880 258.700841L289.352160 260.734600
L289.620000 258.781893L289.977120 262.908085L290.334240 240.876548
L290.557440 263.278140L290.646720 260.381611L290.825280 262.180474
L290.869920 258.813370L291.003840 260.923494L291.048480 259.720043
L291.271680 257.306561L291.316320 259.497658L291.539520 260.991459
L291.852000 262.169396L291.852000 262.169396L292.209120 257.635247
L292.476960 264.892634L292.566240 259.255515L292.744800 260.303189
L292.968000 261.005529L293.012640 258.343778L293.191200 256.531632
L293.369760 261.055852L293.414400 258.850940L293.682240 259.554762
L293.816160 254.862427L293.994720 258.370617L294.262560 270.970450
L294.307200 258.455270L294.575040 260.301311L294.887520 255.770128
L295.021440 240.264733L295.110720 260.957707L295.289280 262.179160
L295.646400 256.768307L295.869600 253.680587L295.869600 253.680587
L296.182080 257.282720L296.182080 257.282720L296.226720 255.332631
L296.316000 253.360485L296.494560 254.136839L296.628480 250.639731
L296.717760 255.085973L296.762400 252.415858L296.851680 326.840498
L296.896320 254.360366L297.119520 257.175196L297.432000 220.376248
L297.744480 324.780107L297.789120 256.883013L297.923040 251.679894
L298.235520 251.579654L298.235520 251.579654L298.280160 250.144214
L298.592640 229.402848L298.592640 229.402848L298.905120 328.733646
L298.949760 252.583002L299.217600 255.520601L299.306880 254.262145
L299.351520 251.810433L299.440800 252.782595L299.619360 252.613433
L299.753280 253.387834L299.976480 252.082132L300.021120 255.042317
L300.244320 256.067775L300.333600 251.513128L300.422880 255.829363
L300.556800 253.336161L300.869280 256.450317L300.869280 256.450317
L300.913920 249.095073L301.181760 253.118033L301.494240 238.104767
L301.494240 238.104767L301.806720 326.035657L301.851360 254.921130
L301.940640 253.319728L302.163840 253.754198L302.297760 251.584182
L302.342400 253.286957L302.431680 251.113556L302.654880 252.334467
L302.833440 256.022130L302.878080 252.702260L303.145920 251.556434
L303.190560 255.634547L303.503040 252.538286L303.592320 256.200772
L303.815520 253.294375L304.128000 251.488303L304.128000 251.488303
L304.306560 255.548648L304.395840 253.232056L304.440480 326.792580
L304.574400 253.735148L304.797600 256.199686L304.842240 252.942308
L305.110080 251.479134L305.154720 256.863854L305.244000 255.070110
L305.556480 256.612543L305.556480 256.612543L305.868960 251.235446
L305.868960 251.235446L305.913600 257.464783L306.136800 255.344464
L306.315360 256.706281L306.360000 255.257645L306.583200 254.447506
L306.672480 255.500617L306.761760 252.304891L306.984960 253.650227
L307.163520 252.161948L307.386720 220.592847L307.431360 255.735489
L307.565280 253.840867L307.654560 255.151092L307.877760 256.559554
L307.922400 253.969243L308.145600 253.473589L308.234880 257.139619
L308.413440 251.958024L308.547360 252.245093L308.770560 251.811785
L308.770560 251.811785L308.949120 252.117391L309.127680 249.554166
L309.440160 325.202934L309.574080 247.872989L309.797280 251.566147
L309.931200 253.721304L309.975840 250.022494L310.020480 325.979973
L310.243680 251.893221L310.422240 252.431403L310.466880 250.637231
L310.600800 325.635363L310.868640 324.640685L310.957920 248.412405
L311.225760 250.085243L311.270400 254.855003L311.315040 250.407187
L311.716800 326.111299L311.984640 224.951293L312.073920 251.996028
L312.252480 249.492218L312.341760 251.498797L312.520320 249.887682
L312.520320 249.887682L312.609600 248.599139L312.832800 326.080909
L313.056000 249.094171L313.145280 250.107325L313.368480 324.816342
L313.413120 250.870787L313.502400 249.752347L313.904160 325.776518
L314.216640 247.426635L314.261280 250.038909L314.395200 248.829961
L314.484480 247.144327L314.707680 321.836770L315.064800 248.922523
L315.154080 257.676120L315.198720 249.467266L315.421920 247.813289
L315.511200 324.559013L315.823680 249.509608L315.868320 250.818619
L316.002240 251.168677L316.002240 251.168677L316.270080 247.804175
L316.314720 324.846483L316.627200 248.373424L316.671840 251.515449
L316.761120 253.679071L316.805760 249.663518L317.118240 325.326866
L317.430720 243.719416L317.475360 250.168412L317.609280 244.588626
L317.787840 245.889832L318.055680 245.275688L318.055680 245.275688
L318.368160 248.188261L318.502080 260.198181L318.502080 260.198181
L318.680640 225.285709L318.769920 239.366891L319.037760 240.683928
L319.037760 240.683928L319.394880 237.970836L319.707360 240.551444
L320.019840 222.635814L320.064480 237.395616L320.153760 234.191556
L320.376960 236.553788L320.555520 234.399989L320.600160 238.166677
L320.778720 237.149429L321.091200 222.912630L321.269760 241.380204
L321.448320 238.751476L321.626880 226.370487L321.671520 244.095523
L321.939360 238.409905L322.162560 236.346554L322.430400 235.669946
L322.564320 238.995042L322.966080 215.943912L323.100000 237.038824
L323.323200 231.893136L323.501760 228.775974L323.635680 234.424923
L323.724960 232.947480L323.769600 234.101510L323.948160 233.613497
L323.948160 233.613497L324.260640 228.816767L324.394560 237.452045
L324.573120 229.342273L324.662400 245.068186L324.796320 244.407938
L324.840960 217.613021L325.108800 240.508517L325.332000 239.853019
L325.465920 243.664888L325.778400 243.783382L325.823040 241.647916
L325.956960 238.354445L326.046240 242.119336L326.314080 242.700200
L326.448000 238.419875L326.805120 244.774572L327.251520 234.889625
L327.340800 236.702743L327.474720 232.453963L327.564000 236.680698
L327.787200 212.647992L327.921120 229.657817L328.010400 232.344547
L328.322880 227.667551L328.322880 227.667551L328.456800 230.129224
L328.769280 228.646999L328.769280 228.646999L328.992480 231.222254
L329.260320 201.364127L329.304960 229.115698L329.349600 231.591861
L329.394240 230.327239L329.572800 228.181448L329.662080 229.630541
L329.840640 228.013058L329.974560 227.364905L329.974560 227.364905
L330.242400 214.509707L330.287040 229.679273L330.465600 232.436188
L330.554880 228.982173L330.688800 229.620251L330.956640 226.244892
L331.001280 309.286518L331.269120 230.492535L331.447680 231.281289
L331.447680 231.281289L331.536960 228.252520L331.715520 231.183541
L331.804800 228.994929L332.072640 232.126732L332.117280 229.674109
L332.429760 220.354674L332.474400 306.051005L332.742240 225.598179
L332.876160 225.233097L332.876160 225.233097L333.010080 227.131136
L333.144000 226.459860L333.456480 222.951492L333.456480 222.951492
L333.501120 226.510646L333.768960 226.720362L333.813600 225.074603
L333.858240 227.326081L333.947520 225.467031L334.170720 226.268146
L334.260000 226.359194L334.393920 225.136840L334.527840 223.873587
L334.617120 307.540129L334.840320 306.756357L335.063520 192.698379
L335.108160 226.133010L335.331360 383.830070L335.420640 322.581790
L335.643840 214.041788L335.777760 236.136572L336.090240 223.394586
L336.134880 226.030338L336.447360 370.880197L336.492000 316.863691
L336.759840 328.535532L336.849120 226.452384L336.893760 224.018053
L336.983040 317.876475L337.206240 225.901494L337.429440 223.482245
L337.697280 222.554236L337.741920 224.698888L337.875840 223.979708
L337.875840 223.979708L337.920480 222.525814L337.965120 319.772183
L338.232960 223.960453L338.277600 226.573686L338.545440 228.859924
L338.590080 224.574527L338.634720 226.674417L338.947200 224.525673
L338.947200 224.525673L339.125760 223.694186L339.215040 224.786728
L339.348960 226.509370L339.348960 226.509370L339.616800 319.961627
L339.661440 226.361751L339.840000 222.850902L340.018560 224.486909
L340.286400 224.217262L340.331040 315.337742L340.554240 206.154132
L340.688160 227.488969L340.777440 224.208638L341.000640 222.539379
L341.089920 223.795803L341.134560 227.741929L341.357760 225.395679
L341.491680 222.558778L341.759520 195.897843L341.804160 226.078774
L341.893440 223.763145L341.982720 226.812557L342.295200 213.814770
L342.295200 213.814770L342.518400 204.344711L342.563040 207.976073
L343.009440 206.135765L343.277280 209.464576L343.366560 207.738438
L343.634400 197.450899L343.902240 266.050616L343.946880 207.922675
L344.080800 204.205259L344.125440 207.537026L344.393280 206.465881
L344.616480 209.277788L344.750400 194.761046L345.018240 209.642562
L345.107520 205.455368L345.286080 211.027810L345.420000 207.364350
L345.643200 203.933598L345.911040 268.308203L346.089600 265.186599
L346.402080 267.820837L346.580640 263.353437L346.625280 266.139603
L346.803840 267.254468L347.071680 268.071249L347.160960 264.418122
L347.294880 265.890973L347.518080 263.914528L348.009120 277.166291
L348.143040 272.945956L348.187680 333.618753L348.366240 275.594764
L348.634080 276.900178L348.634080 276.900178L348.723360 272.103260
L348.946560 275.391795L349.214400 272.394229L349.437600 276.404898
L349.526880 275.011662L349.750080 274.728347L349.794720 275.804750
L349.973280 272.371552L350.196480 272.597246L350.375040 274.529803
L350.598240 275.666392L350.598240 275.666392L350.642880 241.829830
L350.910720 264.349603L351.267840 321.955653L351.624960 264.885564
L351.848160 264.167036L351.982080 267.177302L352.205280 262.202472
L352.339200 265.755462L352.696320 261.999269L352.785600 262.031811
L353.142720 265.207556L353.187360 263.967249L353.499840 257.157236
L353.499840 257.157236L353.544480 269.433861L353.812320 261.654469
L354.124800 261.489491L354.169440 265.905912L354.481920 260.059468
L354.526560 262.868491L354.794400 267.120471L354.928320 266.586096
L355.062240 261.842944L355.151520 263.982519L355.419360 363.438582
L355.464000 327.444239L355.776480 252.049819L355.821120 261.066894
L356.178240 267.035852L356.535360 262.794947L356.669280 261.341607
L356.758560 262.634621L356.937120 263.692117L357.026400 260.707602
L357.249600 262.968327L357.472800 261.420537L357.517440 263.720449
L357.606720 260.804978L357.829920 261.685308L357.919200 260.605170
L358.097760 263.102138L358.365600 261.400534L358.588800 259.322240
L358.633440 263.860664L358.901280 259.967785L359.124480 259.682424
L359.213760 260.619420L359.303040 263.489265L359.570880 263.515751
L359.615520 262.116422L359.794080 265.301742L359.838720 258.227683
L360.106560 263.347900L360.151200 261.608003L360.240480 363.714014
L360.374400 263.773949L360.552960 247.867524L360.642240 263.359997
L360.776160 264.743529L361.177920 259.423511L361.401120 264.490939
L361.490400 261.541130L361.758240 264.168831L361.802880 259.400432
L362.026080 262.940033L362.204640 248.109528L362.338560 262.886022
L362.606400 264.448441L362.829600 260.860344L362.963520 261.846776
L363.186720 264.170836L363.231360 255.339525L363.499200 262.952622
L363.633120 262.720414L363.722400 263.217868L363.945600 265.281764
L363.990240 263.006389L364.124160 261.888701L364.347360 265.108181
L364.704480 257.064859L364.749120 264.076941L365.016960 259.881545
L365.106240 265.461159L365.329440 258.236662L365.820480 262.680585
L365.954400 250.218051L366.043680 246.601004L366.266880 258.223204
L366.579360 261.434792L366.891840 259.519035L367.115040 262.647851
L367.159680 259.984990L367.427520 261.938346L367.740000 262.358983
L367.740000 262.358983L368.141760 257.772413L368.231040 262.943658
L368.498880 262.062550L368.766720 259.311269L368.900640 259.374935
L368.945280 263.109045L369.034560 261.509052L369.302400 262.532945
L369.570240 258.238352L369.614880 265.423541L369.927360 263.847185
L370.329120 257.411948L370.552320 315.954447L370.686240 259.064910
L370.820160 261.296581L371.043360 258.144920L371.132640 260.581049
L371.266560 263.841590L371.311200 261.369839L371.445120 262.107161
L371.668320 257.577142L371.980800 256.824046L372.025440 260.577188
L372.248640 262.241391L372.427200 262.363646L372.561120 260.677492
L372.605760 257.935518L372.918240 258.980423L372.962880 260.415363
L373.230720 257.801783L373.275360 260.208765L373.453920 258.581212
L373.498560 260.506717L373.811040 362.858802L373.855680 326.201191
L373.900320 259.033261L374.078880 261.213733L374.346720 259.979547
L374.391360 261.862215L374.436000 260.832000L374.703840 259.345424
L374.882400 261.554598L375.016320 260.537136L375.150240 259.164039
L375.194880 260.260574L375.328800 256.646573L375.373440 258.169761
L375.462720 251.199261L375.596640 257.913241L375.864480 258.533878
L376.043040 256.739899L376.176960 261.731263L376.355520 260.724801
L376.400160 254.139345L376.534080 256.896164L376.801920 259.067117
L377.025120 244.336916L377.069760 257.398178L377.426880 260.404629
L377.471520 254.372216L377.739360 258.589301L377.828640 257.337027
L377.873280 258.514519L378.185760 261.153061L378.185760 261.153061
L378.587520 254.905449L378.766080 259.890428L378.810720 258.747523
L378.944640 271.902385L379.123200 258.790098L379.257120 263.077640
L379.435680 259.302004L379.569600 260.417048L379.837440 255.754785
L379.926720 259.778060L380.105280 258.510456L380.462400 243.169810
L380.819520 261.656658L381.087360 255.072791L381.176640 257.861724
L381.444480 256.057544L381.489120 317.912474L381.756960 256.035541
L381.801600 259.629113L381.890880 255.759799L381.980160 362.916815
L382.203360 256.789994L382.337280 260.423657L382.560480 258.701005
L382.783680 259.831562L382.872960 255.076206L383.230080 314.316409
L383.364000 258.058792L383.497920 259.144198L383.899680 255.060057
L384.033600 253.805041L384.212160 256.805994L384.256800 253.343436
L384.301440 255.758535L384.390720 258.371722L384.613920 253.824147
L384.881760 257.036408L385.194240 259.107373L385.194240 259.107373
L385.283520 263.199771L385.506720 252.720089L385.729920 241.240842
L385.774560 256.934655L385.908480 253.459019L385.953120 318.454261
L386.220960 317.818885L386.488800 252.427216L386.533440 257.621276
L386.935200 251.872014L386.979840 257.104688L387.069120 253.341765
L387.113760 317.150244L387.336960 256.420844L387.604800 254.342356
L387.828000 257.206124L387.828000 257.206124L387.961920 255.259332
L388.140480 258.504684L388.274400 247.840272L388.586880 318.006962
L388.854720 255.633056L388.899360 256.651608L389.122560 252.674506
L389.167200 256.315173L389.256480 317.467572L389.435040 256.297126
L389.568960 254.041350L389.747520 254.845765L389.926080 252.782149
L390.060000 255.153408L390.372480 228.929811L390.372480 228.929811
L390.684960 319.662123L390.729600 253.727858L390.818880 257.277116
L391.042080 254.555679L391.220640 256.317547L391.309920 253.984728
L391.533120 256.548192L391.667040 254.118883L391.756320 254.245539
L391.979520 253.784539L392.024160 256.376193L392.202720 258.408841
L392.336640 254.929046L392.470560 253.049866L392.515200 256.345469
L392.693760 254.469606L392.827680 253.388968L392.961600 255.186963
L393.095520 257.744526L393.274080 253.280066L393.408000 251.916240
L393.541920 254.252575L393.854400 252.677534L393.854400 252.677534
L393.899040 256.200332L393.988320 255.532527L394.256160 240.819304
L394.300800 258.458850L394.390080 254.154118L394.613280 257.879121
L394.657920 255.419491L394.881120 252.725167L394.925760 254.658705
L395.015040 246.079240L395.238240 253.326601L395.461440 251.883318
L395.595360 316.349210L395.863200 232.195583L395.907840 253.078718
L396.041760 254.160102L396.086400 253.122456L396.443520 315.495514
L396.711360 250.165098L396.800640 251.298104L396.845280 252.497057
L396.979200 251.325077L397.291680 319.189620L397.559520 243.692870
L397.648800 252.655501L397.782720 251.256745L397.827360 254.673084
L397.916640 253.386292L398.139840 311.527688L398.273760 250.677300
L398.452320 251.616860L398.541600 253.349675L398.630880 251.930089
L398.764800 251.565729L398.988000 315.692885L399.255840 250.744416
L399.345120 254.632274L399.479040 254.806033L399.479040 254.806033
L399.568320 318.423945L399.791520 252.347697L400.059360 250.662012
L400.148640 315.871124L400.327200 253.374603L400.416480 248.841410
L400.505760 251.422168L400.684320 154.928089L400.728960 316.209167
L400.862880 251.779536L401.086080 249.816582L401.130720 252.553387
L401.353920 251.207862L401.577120 317.852906L401.844960 250.245398
L401.934240 250.507753L402.023520 253.089434L402.068160 250.526688
L402.157440 291.803410L402.380640 254.371560L402.693120 249.090938
L402.693120 249.090938L402.871680 248.788839L402.916320 252.202337
L403.184160 253.581326L403.184160 253.581326L403.318080 251.712321
L403.496640 252.675450L403.585920 252.924857L403.764480 250.806785
L404.121600 317.702967L404.434080 244.925472L404.568000 247.825025
L404.835840 362.567729L404.880480 318.165787L404.969760 240.015778
L405.237600 242.150407L405.639360 248.047776L405.907200 243.791408
L405.996480 244.219282L406.085760 247.446767L406.130400 245.310460
L406.308960 251.221923L406.353600 244.702760L406.576800 244.204366
L406.621440 245.220250L406.844640 240.317434L406.889280 246.262734
L407.335680 244.371342L407.648160 243.653608L407.692800 246.651233
L407.916000 242.522801L407.960640 245.535837L408.139200 242.586920
L408.183840 245.395722L408.451680 244.038524L408.496320 246.748161
L408.585600 245.659393L408.808800 242.585692L408.898080 247.069859
L409.344480 240.260828L409.701600 246.701300L409.880160 251.619275
L409.924800 245.949667L410.058720 244.246132L410.192640 245.580065
L410.594400 247.099404L410.862240 247.402751L410.906880 244.859596
L410.996160 246.074243L411.264000 246.442208L411.353280 245.157659
L411.531840 246.929800L411.621120 243.438049L411.844320 244.127105
L412.156800 248.109857L412.201440 245.553476L412.469280 245.020330
L412.469280 245.020330L412.558560 246.724245L412.737120 243.432443
L413.049600 247.199821L413.362080 243.353826L413.406720 244.871268
L413.719200 248.750958L413.853120 243.690829L414.031680 245.572324
L414.299520 243.980717L414.612000 247.741802L414.656640 246.319238
L414.969120 244.544485L415.236960 242.047507L415.281600 246.907780
L415.638720 244.250720L415.906560 247.133246L415.995840 246.101410
L416.308320 246.569928L416.352960 244.722234L416.620800 248.390103
L416.665440 245.397525L416.888640 248.023191L416.933280 244.791884
L417.111840 244.168999L417.245760 246.214390L417.468960 247.340475
L417.558240 244.898186L417.692160 243.550048L417.736800 247.287053
L417.781440 245.774261L417.915360 221.231876L417.960000 314.261793
L418.227840 245.949429L418.451040 241.816847L418.540320 246.007107
L418.629600 242.838498L418.852800 247.431954L419.076000 247.551103
L419.165280 244.617902L419.388480 246.074463L419.433120 244.683625
L419.522400 235.401480L419.745600 243.254736L419.924160 244.174348
L420.058080 239.640751L420.415200 244.235838L420.638400 244.688985
L420.683040 242.199492L420.861600 241.751509L420.950880 243.505895
L421.174080 243.679913L421.397280 239.261867L421.665120 237.752814
L421.754400 243.391324L421.932960 241.238600L422.111520 241.669890
L422.290080 244.485579L422.424000 240.577338L422.781120 243.415159
L422.959680 242.064608L423.182880 245.531727L423.227520 240.879600
L423.540000 245.062271L423.584640 242.495641L423.852480 241.925773
L423.897120 243.934710L424.031040 239.642818L424.209600 241.169496
L424.432800 229.210691L424.522080 240.198846L424.789920 238.625785
L424.789920 238.625785L424.879200 239.926467L425.102400 237.756284
L425.370240 242.197514L425.414880 240.505096L425.548800 241.072305
L425.638080 240.910213L425.772000 239.476625L425.995200 241.922286
L426.129120 237.292932L426.307680 238.920030L426.486240 241.521437
L426.709440 243.604168L426.754080 242.321943L426.888000 243.936464
L427.111200 239.699441L427.512960 242.302674L427.691520 243.267388
L427.825440 240.990305L428.048640 242.479973L428.182560 225.905075
L428.271840 241.927880L428.495040 243.829454L428.539680 242.646229
L428.896800 234.682121L429.164640 239.936439L429.209280 238.745613
L429.521760 224.335715L429.566400 236.776738L429.834240 241.020758
L429.878880 238.764240L430.325280 234.499821L430.503840 239.589948
L430.548480 236.890629L430.727040 241.285183L430.860960 240.979863
L431.084160 236.103668L431.218080 236.901494L431.441280 240.214605
L431.530560 238.174069L431.619840 236.093931L431.798400 242.015374
L431.887680 240.091038L432.289440 234.897826L432.334080 239.696485
L432.601920 239.155631L433.003680 234.548719L433.271520 233.751449
L433.360800 238.831705L433.494720 239.388366L433.494720 239.388366
L433.762560 241.316246L433.807200 239.690862L433.941120 236.331453
L434.075040 236.919186L434.342880 239.527475L434.566080 239.638209
L434.566080 239.638209L434.610720 221.193158L434.878560 233.678673
L435.101760 233.599386L435.101760 233.599386L435.235680 234.118824
L435.369600 234.119253L435.548160 233.583913L435.548160 233.583913
L435.771360 309.567217L435.860640 235.890375L436.262400 217.215616
L436.351680 235.790768L436.619520 234.440439L436.887360 235.252646
L436.932000 232.442692L437.333760 235.644034L437.601600 232.551785
L437.690880 312.824286L437.914080 222.934236L438.048000 234.940427
L438.181920 232.834522L438.360480 235.289280L438.405120 231.667146
L438.717600 232.361524L438.985440 230.425146L439.030080 235.118054
L439.074720 233.099658L439.253280 212.286229L439.387200 231.375366
L439.476480 229.753560L439.565760 228.552771L439.788960 231.999802
L440.012160 198.514537L440.056800 230.445121L440.190720 230.008181
L440.235360 231.011942L440.547840 228.625155L440.547840 228.625155
L440.726400 227.521087L440.726400 227.521087L440.771040 310.960972
L441.038880 232.259127L441.128160 228.626632L441.217440 230.603745
L441.440640 231.840767L441.529920 230.639853L441.663840 229.145404
L441.708480 230.167511L441.976320 229.031750L441.976320 229.031750
L442.154880 228.958353L442.154880 228.958353L442.422720 228.829960
L442.422720 228.829960L442.556640 233.130601L442.601280 231.460992
L442.779840 229.267049L442.869120 229.551757L443.047680 228.309110
L443.226240 310.126847L443.315520 231.036636L443.449440 227.426560
L443.628000 227.485503L443.717280 308.808005L443.895840 229.034101
L444.074400 228.007097L444.119040 229.772429L444.163680 228.147294
L444.431520 216.471589L444.476160 225.068477L444.654720 213.355225
L444.922560 309.937871L444.967200 223.608680L445.011840 227.894277
L445.056480 226.078706L445.368960 220.431288L445.368960 220.431288
L445.413600 226.146708L445.547520 223.782958L445.636800 309.485197
L445.860000 307.317584L446.083200 197.239375L446.217120 222.798679
L446.261760 228.373464L446.306400 224.059774L446.351040 310.184216
L446.618880 226.970910L446.752800 228.110394L446.752800 228.110394
L447.020640 208.205052L447.065280 309.406993L447.333120 225.432614
L447.377760 227.710915L447.467040 227.497954L447.600960 223.897735
L447.734880 224.985816L447.824160 227.007973L447.868800 212.332375
L448.136640 215.809775L448.359840 215.853030L448.449120 214.674523
L448.583040 212.853851L448.716960 216.595026L449.074080 214.038960
L449.118720 215.667603L449.208000 221.755936L449.341920 215.488378
L449.609760 216.089422L449.654400 214.665638L450.100800 229.420924
L450.368640 211.576420L450.457920 215.727744L450.591840 213.557586
L450.725760 214.403804L450.993600 213.179743L451.038240 216.663207
L451.172160 212.235975L451.306080 214.469117L451.484640 217.652353
L451.529280 211.811633L451.797120 217.133613L452.064960 212.519791
L452.154240 214.257302L452.377440 213.714901L452.422080 216.751419
L452.556000 215.054259L452.645280 215.286110L452.779200 216.904393
L452.913120 215.665053L453.091680 216.688087L453.225600 213.215032
L453.582720 218.086855L453.627360 216.896028L453.716640 217.082739
L453.850560 216.397863L454.252320 207.342498L454.430880 209.353524
L454.564800 207.398280L454.698720 207.874741L454.698720 207.874741
L455.011200 211.762088L455.011200 211.762088L455.145120 205.944172
L455.234400 207.733224L455.368320 209.586853L455.412960 203.226963
L455.680800 209.435897L455.859360 204.350182L455.948640 207.777856
L456.082560 206.544421L456.082560 206.544421L456.350400 208.049818
L456.350400 208.049818L456.439680 210.418131L456.662880 207.377907
L456.707520 208.940812L457.020000 201.925350L457.109280 209.220383
L457.287840 208.820573L457.466400 192.228327L457.689600 268.204538
L457.823520 266.643363L458.091360 261.189971L458.136000 266.109004
L458.493120 268.546948L458.716320 262.463977L458.894880 265.190689
L459.252000 267.292306L459.385920 268.296355L459.564480 264.238873
L459.921600 267.611071L460.189440 267.967016L460.234080 266.128910
L460.323360 264.506336L460.368000 265.755690L460.501920 268.965368
L460.546560 266.970546L460.814400 267.747291L460.814400 267.747291
L461.216160 262.133802L461.260800 267.532863L461.528640 267.021038
L461.841120 261.325106L461.885760 265.451956L462.019680 262.956609
L462.108960 265.572729L462.376800 264.286248L462.421440 267.112131
L462.644640 267.335261L462.733920 265.268023L462.912480 265.114657
L462.957120 266.150559L463.180320 262.645779L463.358880 268.083010
L463.537440 267.809149L463.805280 260.340282L463.849920 266.921185
L464.117760 262.766204L464.162400 265.816853L464.385600 264.969397
L464.385600 264.969397L464.519520 266.422121L464.698080 263.854196
L464.965920 266.184567L465.010560 263.187918L465.233760 266.454454
L465.412320 265.597211L465.724800 265.825951L465.814080 263.896067
L465.992640 262.463229L466.126560 265.103773L466.305120 260.882533
L466.483680 262.945966L466.840800 265.881561L466.930080 263.386023
L467.197920 263.631082L467.510400 263.438869L467.510400 263.438869
L467.733600 266.941690L467.778240 265.280950L468.180000 262.039803
L468.358560 271.140720L468.447840 265.311278L468.626400 266.415964
L468.804960 261.080135L468.983520 262.737864L469.162080 264.779235
L469.385280 264.699504L469.429920 261.135949L469.742400 261.780144
L469.876320 263.167663L470.099520 263.641855L470.188800 262.066972
L470.367360 261.848300L470.456640 263.465876L470.590560 261.143324
L470.635200 263.142426L470.813760 262.372208L470.813760 262.372208
L470.992320 259.711287L471.036960 261.896630L471.304800 258.471763
L471.394080 263.794038L471.617280 260.705198L471.661920 263.459229
L471.795840 260.968349L471.840480 263.178868L472.019040 264.474871
L472.108320 260.677454L472.331520 267.317674L472.465440 263.859826
L472.867200 259.890659L473.090400 264.507874L473.224320 263.156397
L473.447520 261.818733L473.670720 264.517946L473.893920 264.270263
L474.251040 261.001074L474.295680 264.285857L474.518880 263.374119
L474.697440 262.103363L474.786720 263.578474L475.009920 260.569572
L475.188480 262.124379L475.500960 264.684205L475.679520 258.212708
L475.813440 263.647502L475.992000 258.809577L476.036640 262.514006
L476.259840 257.542121L476.304480 264.847996L476.572320 263.208704
L476.929440 258.595311L476.974080 262.287650L477.241920 258.097848
L477.286560 260.506164L477.554400 259.017513L477.554400 259.017513
L477.777600 258.903716L478.000800 261.803678L478.179360 255.055159
L478.313280 259.159621L478.447200 256.509900L478.536480 261.295276
L478.715040 260.233036L478.848960 261.945506L478.938240 260.633831
L479.072160 261.792406L479.250720 262.218921L479.429280 257.215548
L479.607840 262.285363L479.741760 259.252813L479.875680 263.559526
L480.009600 262.272082L480.366720 247.031077L480.456000 246.520124
L480.723840 262.302906L480.991680 257.282434L481.080960 260.387204
L481.304160 257.200563L481.393440 260.580847L481.616640 259.552076
L481.705920 261.782128L481.929120 257.865838L481.973760 260.550164
L482.107680 262.627806L482.330880 255.440685L482.420160 260.572540
L482.464800 261.706402L482.643360 254.394954L482.688000 260.944398
L482.911200 259.699888L483.089760 261.938115L483.179040 261.409971
L483.580800 259.162478L483.714720 261.597801L483.848640 260.527508
L484.027200 259.369756L484.161120 261.024841L484.428960 261.627702
L484.428960 261.627702L484.562880 261.927946L484.607520 260.576421
L484.830720 259.788243L484.830720 259.788243L484.964640 261.639709
L485.098560 260.863346L485.187840 259.138643L485.366400 262.857153
L485.500320 261.820836L485.812800 258.870056L485.902080 258.115447
L486.080640 259.182295L486.259200 258.947819L486.348480 261.509174
L486.794880 257.744020L486.839520 263.317117L487.152000 261.922924
L487.419840 256.084577L487.598400 256.269180L487.776960 271.918706
L487.821600 243.193243L488.089440 258.833153L488.401920 259.040497
L488.401920 259.040497L488.491200 254.492319L488.625120 258.894143
L488.803680 260.123460L488.937600 260.109052L489.026880 260.895734
L489.250080 258.905577L489.384000 259.255781L489.517920 258.514997
L489.830400 260.864390L489.830400 260.864390L490.232160 244.925029
L490.276800 252.437339L490.321440 260.046867L490.633920 257.537010
L490.901760 260.889082L491.169600 230.884608L491.214240 273.213402
L491.526720 256.740623L491.705280 259.907479L491.749920 258.770093
L491.839200 259.705826L492.062400 255.184279L492.196320 259.851629
L492.330240 258.446693L492.732000 244.928492L492.999840 260.406754
L493.089120 259.552943L493.312320 255.458462L493.356960 257.281154
L493.624800 258.399253L493.803360 258.412675L493.892640 257.915378
L494.026560 254.315112L494.160480 258.217008L494.383680 259.787826
L494.383680 259.787826L494.517600 258.564229L494.785440 260.111561
L494.830080 258.189959L494.964000 261.199402L495.231840 252.699555
L495.321120 315.959161L495.499680 363.641267L495.633600 256.970733
L495.946080 253.348289L495.946080 253.348289L496.213920 257.877417
L496.571040 219.422851L496.660320 257.995707L496.928160 255.651381
L497.106720 255.388059L497.106720 255.388059L497.374560 257.825479
L497.374560 257.825479L497.597760 255.341525L497.642400 257.165134
L497.820960 258.620069L498.044160 253.970549L498.133440 257.337724
L498.267360 255.476030L498.579840 259.989281L498.579840 259.989281
L498.981600 233.840770L499.294080 258.108067L499.383360 254.174820
L499.428000 256.131848L499.561920 317.592983L499.606560 256.993504
L499.785120 258.088688L500.097600 254.034013L500.410080 261.112720
L500.454720 242.199095L500.722560 254.703062L501.035040 250.074098
L501.035040 250.074098L501.347520 316.809920L501.392160 256.585884
L501.615360 252.462090L501.704640 254.857443L501.793920 253.524853
L501.883200 256.412928L502.017120 241.513566L502.106400 254.923042
L502.284960 256.126412L502.329600 253.370080L502.463520 254.244205
L502.776000 252.698209L502.776000 252.698209L502.954560 256.448216
L502.999200 253.724039L503.222400 253.298908L503.267040 255.278875
L503.400960 256.982136L503.579520 253.988196L503.892000 252.655428
L503.892000 252.655428L504.249120 317.720617L504.516960 254.299375
L504.606240 255.322186L504.784800 253.091139L504.829440 316.873111
L505.097280 253.164735L505.365120 256.033735L505.499040 253.721385
L505.677600 257.857652L505.811520 253.418982L505.900800 255.534723
L506.034720 254.420586L506.168640 254.597439L506.302560 237.157949
L506.481120 254.182651L506.615040 249.546374L506.793600 263.995062
L506.927520 257.790836L507.150720 258.733447L507.463200 262.496712
L507.775680 258.081156L507.909600 257.362325L508.088160 259.189925
L508.222080 260.572620L508.445280 261.303539L508.489920 259.781674
L508.757760 260.189575L508.757760 260.189575L508.891680 262.580712
L508.980960 261.531188L509.248800 245.106464L509.472000 251.280536
L509.561280 251.105076L509.561280 251.105076L509.650560 315.688865
L509.873760 254.078600L510.186240 158.206828L510.230880 317.915654
L510.498720 254.066214L510.632640 252.237460L510.811200 316.122864
L510.945120 254.504102L511.302240 251.069545L511.391520 316.294175
L511.614720 251.985262L511.793280 250.569052L511.837920 253.111620
L511.882560 249.130094L511.971840 315.717076L512.150400 254.193940
L512.507520 154.518553L512.552160 317.576010L512.864640 251.218919
L512.953920 250.507012L513.043200 251.979459L513.355680 250.517941
L513.400320 316.543057L513.668160 247.637363L513.757440 250.444753
L513.936000 249.834220L513.936000 249.834220L514.248480 317.640919
L514.293120 250.799547L514.516320 251.817282L514.739520 252.402940
L514.739520 252.402940L514.873440 251.668280L515.096640 316.097440
L515.364480 249.491017L515.409120 251.737189L515.632320 250.879713
L515.632320 250.879713L515.944800 317.496257L516.123360 244.723224
L516.257280 245.769136L516.435840 248.069803L516.659040 244.139689
L516.748320 246.152497L516.926880 244.577357L517.016160 245.982901
L517.194720 248.481489L517.194720 248.481489L517.284000 313.958032
L517.507200 254.987806L517.596480 253.438719L517.775040 254.323243
L517.908960 255.628281L518.087520 240.467492L518.355360 257.656612
L518.355360 257.656612"/>
</g>
<g id="matplotlib.axis1">
<g id="xtick1">
<g id="line2d2">
<path style="fill: none; stroke: #000000; stroke-width: 0.500000; stroke-linejoin: round; stroke-linecap: butt; stroke-dasharray: 1.000000,3.000000; stroke-dashoffset: 0.000000; opacity: 1.000000" clip-path="url(#p50431ccdcb28178602d99d9270004dde)" d="M72.000000 388.800000L72.000000 43.200000"/>
</g>
<g id="line2d3">
<defs><path id="m30e32995789d870ad79a2e54c91cf9c6" d="M0.000000 0.000000L0.000000 -4.000000"/></defs>
<g ><use style="fill: none; stroke: #000000; stroke-width: 0.500000; stroke-linejoin: round; stroke-linecap: butt;  opacity: 1.000000" xlink:href="#m30e32995789d870ad79a2e54c91cf9c6" x="72.000000" y="388.800000"/>
</g></g>
<g id="line2d4">
<defs><path id="m9281cae24120827b11d5ea8a7ad3e96b" d="M0.000000 0.000000L0.000000 4.000000"/></defs>
<g ><use style="fill: none; stroke: #000000; stroke-width: 0.500000; stroke-linejoin: round; stroke-linecap: butt;  opacity: 1.000000" xlink:href="#m9281cae24120827b11d5ea8a7ad3e96b" x="72.000000" y="43.200000"/>
</g></g>
<g id="text1">
<defs>
<path id="c_7a2040fe3b94fcd41d0a72c84e93b115" d="M31.781250 -66.406250q-7.609375 0.000000 -11.453125 7.500000q-3.828125 7.484375 -3.828125 22.531250q0.000000 14.984375 3.828125 22.484375q3.843750 7.500000 11.453125 7.500000q7.671875 0.000000 11.500000 -7.500000q3.843750 -7.500000 3.843750 -22.484375q0.000000 -15.046875 -3.843750 -22.531250q-3.828125 -7.500000 -11.500000 -7.500000M31.781250 -74.218750q12.265625 0.000000 18.734375 9.703125q6.468750 9.687500 6.468750 28.140625q0.000000 18.406250 -6.468750 28.109375q-6.468750 9.687500 -18.734375 9.687500q-12.250000 0.000000 -18.718750 -9.687500q-6.468750 -9.703125 -6.468750 -28.109375q0.000000 -18.453125 6.468750 -28.140625q6.468750 -9.703125 18.718750 -9.703125"/>
</defs>
<g style="fill: #000000; opacity: 1.000000" transform="translate(68.976562,401.706250)scale(0.120000)">
<use xlink:href="#c_7a2040fe3b94fcd41d0a72c84e93b115"/>
</g>
</g>
</g>
<g id="xtick2">
<g id="line2d5">
<path style="fill: none; stroke: #000000; stroke-width: 0.500000; stroke-linejoin: round; stroke-linecap: butt; stroke-dasharray: 1.000000,3.000000; stroke-dashoffset: 0.000000; opacity: 1.000000" clip-path="url(#p50431ccdcb28178602d99d9270004dde)" d="M161.280000 388.800000L161.280000 43.200000"/>
</g>
<g id="line2d6">
<g ><use style="fill: none; stroke: #000000; stroke-width: 0.500000; stroke-linejoin: round; stroke-linecap: butt;  opacity: 1.000000" xlink:href="#m30e32995789d870ad79a2e54c91cf9c6" x="161.280000" y="388.800000"/>
</g></g>
<g id="line2d7">
<g ><use style="fill: none; stroke: #000000; stroke-width: 0.500000; stroke-linejoin: round; stroke-linecap: butt;  opacity: 1.000000" xlink:href="#m9281cae24120827b11d5ea8a7ad3e96b" x="161.280000" y="43.200000"/>
</g></g>
<g id="text2">
<defs>
<path id="c_ed3f3ed3ebfbd18bcb9c012009a68ad1" d="M19.187500 -8.296875l34.421875 0.000000l0.000000 8.296875l-46.281250 0.000000l0.000000 -8.296875q5.609375 -5.812500 15.296875 -15.593750q9.703125 -9.796875 12.187500 -12.640625q4.734375 -5.312500 6.609375 -9.000000q1.890625 -3.687500 1.890625 -7.250000q0.000000 -5.812500 -4.078125 -9.468750q-4.078125 -3.671875 -10.625000 -3.671875q-4.640625 0.000000 -9.796875 1.609375q-5.140625 1.609375 -11.000000 4.890625l0.000000 -9.968750q5.953125 -2.390625 11.125000 -3.609375q5.187500 -1.218750 9.484375 -1.218750q11.328125 0.000000 18.062500 5.671875q6.734375 5.656250 6.734375 15.125000q0.000000 4.500000 -1.687500 8.531250q-1.671875 4.015625 -6.125000 9.484375q-1.218750 1.421875 -7.765625 8.187500q-6.531250 6.765625 -18.453125 18.921875"/>
</defs>
<g style="fill: #000000; opacity: 1.000000" transform="translate(146.834688,401.706250)scale(0.120000)">
<use xlink:href="#c_ed3f3ed3ebfbd18bcb9c012009a68ad1"/>
<use xlink:href="#c_7a2040fe3b94fcd41d0a72c84e93b115" x="63.623047"/>
<use xlink:href="#c_7a2040fe3b94fcd41d0a72c84e93b115" x="127.246094"/>
<use xlink:href="#c_7a2040fe3b94fcd41d0a72c84e93b115" x="190.869141"/>
</g>
</g>
</g>
<g id="xtick3">
<g id="line2d8">
<path style="fill: none; stroke: #000000; stroke-width: 0.500000; stroke-linejoin: round; stroke-linecap: butt; stroke-dasharray: 1.000000,3.000000; stroke-dashoffset: 0.000000; opacity: 1.000000" clip-path="url(#p50431ccdcb28178602d99d9270004dde)" d="M250.560000 388.800000L250.560000 43.200000"/>
</g>
<g id="line2d9">
<g ><use style="fill: none; stroke: #000000; stroke-width: 0.500000; stroke-linejoin: round; stroke-linecap: butt;  opacity: 1.000000" xlink:href="#m30e32995789d870ad79a2e54c91cf9c6" x="250.560000" y="388.800000"/>
</g></g>
<g id="line2d10">
<g ><use style="fill: none; stroke: #000000; stroke-width: 0.500000; stroke-linejoin: round; stroke-linecap: butt;  opacity: 1.000000" xlink:href="#m9281cae24120827b11d5ea8a7ad3e96b" x="250.560000" y="43.200000"/>
</g></g>
<g id="text3">
<defs>
<path id="c_a0416418d96557a09b8c1332d34883ba" d="M37.796875 -64.312500l-24.906250 38.921875l24.906250 0.000000zM35.203125 -72.906250l12.406250 0.000000l0.000000 47.515625l10.406250 0.000000l0.000000 8.203125l-10.406250 0.000000l0.000000 17.187500l-9.812500 0.000000l0.000000 -17.187500l-32.906250 0.000000l0.000000 -9.515625z"/>
</defs>
<g style="fill: #000000; opacity: 1.000000" transform="translate(235.974063,401.706250)scale(0.120000)">
<use xlink:href="#c_a0416418d96557a09b8c1332d34883ba"/>
<use xlink:href="#c_7a2040fe3b94fcd41d0a72c84e93b115" x="63.623047"/>
<use xlink:href="#c_7a2040fe3b94fcd41d0a72c84e93b115" x="127.246094"/>
<use xlink:href="#c_7a2040fe3b94fcd41d0a72c84e93b115" x="190.869141"/>
</g>
</g>
</g>
<g id="xtick4">
<g id="line2d11">
<path style="fill: none; stroke: #000000; stroke-width: 0.500000; stroke-linejoin: round; stroke-linecap: butt; stroke-dasharray: 1.000000,3.000000; stroke-dashoffset: 0.000000; opacity: 1.000000" clip-path="url(#p50431ccdcb28178602d99d9270004dde)" d="M339.840000 388.800000L339.840000 43.200000"/>
</g>
<g id="line2d12">
<g ><use style="fill: none; stroke: #000000; stroke-width: 0.500000; stroke-linejoin: round; stroke-linecap: butt;  opacity: 1.000000" xlink:href="#m30e32995789d870ad79a2e54c91cf9c6" x="339.840000" y="388.800000"/>
</g></g>
<g id="line2d13">
<g ><use style="fill: none; stroke: #000000; stroke-width: 0.500000; stroke-linejoin: round; stroke-linecap: butt;  opacity: 1.000000" xlink:href="#m9281cae24120827b11d5ea8a7ad3e96b" x="339.840000" y="43.200000"/>
</g></g>
<g id="text4">
<defs>
<path id="c_cc8d6d580d1b10c8632f7a42cd53db8a" d="M33.015625 -40.375000q-6.640625 0.000000 -10.531250 4.546875q-3.875000 4.531250 -3.875000 12.437500q0.000000 7.859375 3.875000 12.437500q3.890625 4.562500 10.531250 4.562500q6.640625 0.000000 10.515625 -4.562500q3.875000 -4.578125 3.875000 -12.437500q0.000000 -7.906250 -3.875000 -12.437500q-3.875000 -4.546875 -10.515625 -4.546875M52.593750 -71.296875l0.000000 8.984375q-3.718750 -1.750000 -7.500000 -2.671875q-3.781250 -0.937500 -7.500000 -0.937500q-9.765625 0.000000 -14.921875 6.593750q-5.140625 6.593750 -5.875000 19.921875q2.875000 -4.250000 7.218750 -6.515625q4.359375 -2.265625 9.578125 -2.265625q10.984375 0.000000 17.359375 6.671875q6.375000 6.656250 6.375000 18.125000q0.000000 11.234375 -6.640625 18.031250q-6.640625 6.781250 -17.671875 6.781250q-12.656250 0.000000 -19.343750 -9.687500q-6.687500 -9.703125 -6.687500 -28.109375q0.000000 -17.281250 8.203125 -27.562500q8.203125 -10.281250 22.015625 -10.281250q3.718750 0.000000 7.500000 0.734375q3.781250 0.734375 7.890625 2.187500"/>
</defs>
<g style="fill: #000000; opacity: 1.000000" transform="translate(325.379062,401.706250)scale(0.120000)">
<use xlink:href="#c_cc8d6d580d1b10c8632f7a42cd53db8a"/>
<use xlink:href="#c_7a2040fe3b94fcd41d0a72c84e93b115" x="63.623047"/>
<use xlink:href="#c_7a2040fe3b94fcd41d0a72c84e93b115" x="127.246094"/>
<use xlink:href="#c_7a2040fe3b94fcd41d0a72c84e93b115" x="190.869141"/>
</g>
</g>
</g>
<g id="xtick5">
<g id="line2d14">
<path style="fill: none; stroke: #000000; stroke-width: 0.500000; stroke-linejoin: round; stroke-linecap: butt; stroke-dasharray: 1.000000,3.000000; stroke-dashoffset: 0.000000; opacity: 1.000000" clip-path="url(#p50431ccdcb28178602d99d9270004dde)" d="M429.120000 388.800000L429.120000 43.200000"/>
</g>
<g id="line2d15">
<g ><use style="fill: none; stroke: #000000; stroke-width: 0.500000; stroke-linejoin: round; stroke-linecap: butt;  opacity: 1.000000" xlink:href="#m30e32995789d870ad79a2e54c91cf9c6" x="429.120000" y="388.800000"/>
</g></g>
<g id="line2d16">
<g ><use style="fill: none; stroke: #000000; stroke-width: 0.500000; stroke-linejoin: round; stroke-linecap: butt;  opacity: 1.000000" xlink:href="#m9281cae24120827b11d5ea8a7ad3e96b" x="429.120000" y="43.200000"/>
</g></g>
<g id="text5">
<defs>
<path id="c_bef35738d52871942e50b9de9b122bab" d="M31.781250 -34.625000q-7.031250 0.000000 -11.062500 3.765625q-4.015625 3.765625 -4.015625 10.343750q0.000000 6.593750 4.015625 10.359375q4.031250 3.765625 11.062500 3.765625q7.031250 0.000000 11.078125 -3.781250q4.062500 -3.796875 4.062500 -10.343750q0.000000 -6.578125 -4.031250 -10.343750q-4.015625 -3.765625 -11.109375 -3.765625M21.921875 -38.812500q-6.343750 -1.562500 -9.890625 -5.906250q-3.531250 -4.359375 -3.531250 -10.609375q0.000000 -8.734375 6.218750 -13.812500q6.234375 -5.078125 17.062500 -5.078125q10.890625 0.000000 17.093750 5.078125q6.203125 5.078125 6.203125 13.812500q0.000000 6.250000 -3.546875 10.609375q-3.531250 4.343750 -9.828125 5.906250q7.125000 1.656250 11.093750 6.500000q3.984375 4.828125 3.984375 11.796875q0.000000 10.609375 -6.468750 16.281250q-6.468750 5.656250 -18.531250 5.656250q-12.046875 0.000000 -18.531250 -5.656250q-6.468750 -5.671875 -6.468750 -16.281250q0.000000 -6.968750 4.000000 -11.796875q4.015625 -4.843750 11.140625 -6.500000M18.312500 -54.390625q0.000000 5.656250 3.531250 8.828125q3.546875 3.171875 9.937500 3.171875q6.359375 0.000000 9.937500 -3.171875q3.593750 -3.171875 3.593750 -8.828125q0.000000 -5.671875 -3.593750 -8.843750q-3.578125 -3.171875 -9.937500 -3.171875q-6.390625 0.000000 -9.937500 3.171875q-3.531250 3.171875 -3.531250 8.843750"/>
</defs>
<g style="fill: #000000; opacity: 1.000000" transform="translate(414.643438,401.706250)scale(0.120000)">
<use xlink:href="#c_bef35738d52871942e50b9de9b122bab"/>
<use xlink:href="#c_7a2040fe3b94fcd41d0a72c84e93b115" x="63.623047"/>
<use xlink:href="#c_7a2040fe3b94fcd41d0a72c84e93b115" x="127.246094"/>
<use xlink:href="#c_7a2040fe3b94fcd41d0a72c84e93b115" x="190.869141"/>
</g>
</g>
</g>
<g id="xtick6">
<g id="line2d17">
<path style="fill: none; stroke: #000000; stroke-width: 0.500000; stroke-linejoin: round; stroke-linecap: butt; stroke-dasharray: 1.000000,3.000000; stroke-dashoffset: 0.000000; opacity: 1.000000" clip-path="url(#p50431ccdcb28178602d99d9270004dde)" d="M518.400000 388.800000L518.400000 43.200000"/>
</g>
<g id="line2d18">
<g ><use style="fill: none; stroke: #000000; stroke-width: 0.500000; stroke-linejoin: round; stroke-linecap: butt;  opacity: 1.000000" xlink:href="#m30e32995789d870ad79a2e54c91cf9c6" x="518.400000" y="388.800000"/>
</g></g>
<g id="line2d19">
<g ><use style="fill: none; stroke: #000000; stroke-width: 0.500000; stroke-linejoin: round; stroke-linecap: butt;  opacity: 1.000000" xlink:href="#m9281cae24120827b11d5ea8a7ad3e96b" x="518.400000" y="43.200000"/>
</g></g>
<g id="text6">
<defs>
<path id="c_42baa63129a918535c52adb20d687ea7" d="M12.406250 -8.296875l16.109375 0.000000l0.000000 -55.625000l-17.531250 3.515625l0.000000 -8.984375l17.437500 -3.515625l9.859375 0.000000l0.000000 64.609375l16.109375 0.000000l0.000000 8.296875l-41.984375 0.000000z"/>
</defs>
<g style="fill: #000000; opacity: 1.000000" transform="translate(500.353125,401.706250)scale(0.120000)">
<use xlink:href="#c_42baa63129a918535c52adb20d687ea7"/>
<use xlink:href="#c_7a2040fe3b94fcd41d0a72c84e93b115" x="63.623047"/>
<use xlink:href="#c_7a2040fe3b94fcd41d0a72c84e93b115" x="127.246094"/>
<use xlink:href="#c_7a2040fe3b94fcd41d0a72c84e93b115" x="190.869141"/>
<use xlink:href="#c_7a2040fe3b94fcd41d0a72c84e93b115" x="254.492188"/>
</g>
</g>
</g>
</g>
<g id="matplotlib.axis2">
<g id="ytick1">
<g id="line2d20">
<path style="fill: none; stroke: #000000; stroke-width: 0.500000; stroke-linejoin: round; stroke-linecap: butt; stroke-dasharray: 1.000000,3.000000; stroke-dashoffset: 0.000000; opacity: 1.000000" clip-path="url(#p50431ccdcb28178602d99d9270004dde)" d="M72.000000 388.800000L518.400000 388.800000"/>
</g>
<g id="line2d21">
<defs><path id="m3400efa6b1638b3fea9e19e898273957" d="M0.000000 0.000000L4.000000 0.000000"/></defs>
<g ><use style="fill: none; stroke: #000000; stroke-width: 0.500000; stroke-linejoin: round; stroke-linecap: butt;  opacity: 1.000000" xlink:href="#m3400efa6b1638b3fea9e19e898273957" x="72.000000" y="388.800000"/>
</g></g>
<g id="line2d22">
<defs><path id="m20b58b2501143cb5e0a5e8f1ef6f1643" d="M0.000000 0.000000L-4.000000 0.000000"/></defs>
<g ><use style="fill: none; stroke: #000000; stroke-width: 0.500000; stroke-linejoin: round; stroke-linecap: butt;  opacity: 1.000000" xlink:href="#m20b58b2501143cb5e0a5e8f1ef6f1643" x="518.400000" y="388.800000"/>
</g></g>
<g id="text7">
<defs>
<path id="c_ed3e21196fb739f392806f09ca0594ef" d="M10.687500 -12.406250l10.312500 0.000000l0.000000 12.406250l-10.312500 0.000000z"/>
</defs>
<g style="fill: #000000; opacity: 1.000000" transform="translate(50.500000,393.167188)scale(0.120000)">
<use xlink:href="#c_7a2040fe3b94fcd41d0a72c84e93b115"/>
<use xlink:href="#c_ed3e21196fb739f392806f09ca0594ef" x="63.623047"/>
<use xlink:href="#c_7a2040fe3b94fcd41d0a72c84e93b115" x="95.410156"/>
</g>
</g>
</g>
<g id="ytick2">
<g id="line2d23">
<path style="fill: none; stroke: #000000; stroke-width: 0.500000; stroke-linejoin: round; stroke-linecap: butt; stroke-dasharray: 1.000000,3.000000; stroke-dashoffset: 0.000000; opacity: 1.000000" clip-path="url(#p50431ccdcb28178602d99d9270004dde)" d="M72.000000 302.400000L518.400000 302.400000"/>
</g>
<g id="line2d24">
<g ><use style="fill: none; stroke: #000000; stroke-width: 0.500000; stroke-linejoin: round; stroke-linecap: butt;  opacity: 1.000000" xlink:href="#m3400efa6b1638b3fea9e19e898273957" x="72.000000" y="302.400000"/>
</g></g>
<g id="line2d25">
<g ><use style="fill: none; stroke: #000000; stroke-width: 0.500000; stroke-linejoin: round; stroke-linecap: butt;  opacity: 1.000000" xlink:href="#m20b58b2501143cb5e0a5e8f1ef6f1643" x="518.400000" y="302.400000"/>
</g></g>
<g id="text8">
<defs>
<path id="c_1260a2df50f305f3db244e29828f968e" d="M10.796875 -72.906250l38.718750 0.000000l0.000000 8.312500l-29.687500 0.000000l0.000000 17.859375q2.140625 -0.734375 4.281250 -1.093750q2.156250 -0.359375 4.312500 -0.359375q12.203125 0.000000 19.328125 6.687500q7.140625 6.687500 7.140625 18.109375q0.000000 11.765625 -7.328125 18.296875q-7.328125 6.515625 -20.656250 6.515625q-4.593750 0.000000 -9.359375 -0.781250q-4.750000 -0.781250 -9.828125 -2.343750l0.000000 -9.921875q4.390625 2.390625 9.078125 3.562500q4.687500 1.171875 9.906250 1.171875q8.453125 0.000000 13.375000 -4.437500q4.937500 -4.437500 4.937500 -12.062500q0.000000 -7.609375 -4.937500 -12.046875q-4.921875 -4.453125 -13.375000 -4.453125q-3.953125 0.000000 -7.890625 0.875000q-3.921875 0.875000 -8.015625 2.734375z"/>
</defs>
<g style="fill: #000000; opacity: 1.000000" transform="translate(50.750000,306.767187)scale(0.120000)">
<use xlink:href="#c_7a2040fe3b94fcd41d0a72c84e93b115"/>
<use xlink:href="#c_ed3e21196fb739f392806f09ca0594ef" x="63.623047"/>
<use xlink:href="#c_1260a2df50f305f3db244e29828f968e" x="95.410156"/>
</g>
</g>
</g>
<g id="ytick3">
<g id="line2d26">
<path style="fill: none; stroke: #000000; stroke-width: 0.500000; stroke-linejoin: round; stroke-linecap: butt; stroke-dasharray: 1.000000,3.000000; stroke-dashoffset: 0.000000; opacity: 1.000000" clip-path="url(#p50431ccdcb28178602d99d9270004dde)" d="M72.000000 216.000000L518.400000 216.000000"/>
</g>
<g id="line2d27">
<g ><use style="fill: none; stroke: #000000; stroke-width: 0.500000; stroke-linejoin: round; stroke-linecap: butt;  opacity: 1.000000" xlink:href="#m3400efa6b1638b3fea9e19e898273957" x="72.000000" y="216.000000"/>
</g></g>
<g id="line2d28">
<g ><use style="fill: none; stroke: #000000; stroke-width: 0.500000; stroke-linejoin: round; stroke-linecap: butt;  opacity: 1.000000" xlink:href="#m20b58b2501143cb5e0a5e8f1ef6f1643" x="518.400000" y="216.000000"/>
</g></g>
<g id="text9">
<g style="fill: #000000; opacity: 1.000000" transform="translate(51.015625,220.367188)scale(0.120000)">
<use xlink:href="#c_42baa63129a918535c52adb20d687ea7"/>
<use xlink:href="#c_ed3e21196fb739f392806f09ca0594ef" x="63.623047"/>
<use xlink:href="#c_7a2040fe3b94fcd41d0a72c84e93b115" x="95.410156"/>
</g>
</g>
</g>
<g id="ytick4">
<g id="line2d29">
<path style="fill: none; stroke: #000000; stroke-width: 0.500000; stroke-linejoin: round; stroke-linecap: butt; stroke-dasharray: 1.000000,3.000000; stroke-dashoffset: 0.000000; opacity: 1.000000" clip-path="url(#p50431ccdcb28178602d99d9270004dde)" d="M72.000000 129.600000L518.400000 129.600000"/>
</g>
<g id="line2d30">
<g ><use style="fill: none; stroke: #000000; stroke-width: 0.500000; stroke-linejoin: round; stroke-linecap: butt;  opacity: 1.000000" xlink:href="#m3400efa6b1638b3fea9e19e898273957" x="72.000000" y="129.600000"/>
</g></g>
<g id="line2d31">
<g ><use style="fill: none; stroke: #000000; stroke-width: 0.500000; stroke-linejoin: round; stroke-linecap: butt;  opacity: 1.000000" xlink:href="#m20b58b2501143cb5e0a5e8f1ef6f1643" x="518.400000" y="129.600000"/>
</g></g>
<g id="text10">
<g style="fill: #000000; opacity: 1.000000" transform="translate(51.265625,133.889062)scale(0.120000)">
<use xlink:href="#c_42baa63129a918535c52adb20d687ea7"/>
<use xlink:href="#c_ed3e21196fb739f392806f09ca0594ef" x="63.623047"/>
<use xlink:href="#c_1260a2df50f305f3db244e29828f968e" x="95.410156"/>
</g>
</g>
</g>
<g id="ytick5">
<g id="line2d32">
<path style="fill: none; stroke: #000000; stroke-width: 0.500000; stroke-linejoin: round; stroke-linecap: butt; stroke-dasharray: 1.000000,3.000000; stroke-dashoffset: 0.000000; opacity: 1.000000" clip-path="url(#p50431ccdcb28178602d99d9270004dde)" d="M72.000000 43.200000L518.400000 43.200000"/>
</g>
<g id="line2d33">
<g ><use style="fill: none; stroke: #000000; stroke-width: 0.500000; stroke-linejoin: round; stroke-linecap: butt;  opacity: 1.000000" xlink:href="#m3400efa6b1638b3fea9e19e898273957" x="72.000000" y="43.200000"/>
</g></g>
<g id="line2d34">
<g ><use style="fill: none; stroke: #000000; stroke-width: 0.500000; stroke-linejoin: round; stroke-linecap: butt;  opacity: 1.000000" xlink:href="#m20b58b2501143cb5e0a5e8f1ef6f1643" x="518.400000" y="43.200000"/>
</g></g>
<g id="text11">
<g style="fill: #000000; opacity: 1.000000" transform="translate(50.578125,47.567187)scale(0.120000)">
<use xlink:href="#c_ed3f3ed3ebfbd18bcb9c012009a68ad1"/>
<use xlink:href="#c_ed3e21196fb739f392806f09ca0594ef" x="63.623047"/>
<use xlink:href="#c_7a2040fe3b94fcd41d0a72c84e93b115" x="95.410156"/>
</g>
</g>
</g>
</g>
<g id="patch3">
<path style="fill: none; stroke: #000000; stroke-width: 1.000000; stroke-linejoin: round; stroke-linecap: square;  opacity: 1.000000"  d="M72.000000 43.200000L518.400000 43.200000"/>
</g>
<g id="patch4">
<path style="fill: none; stroke: #000000; stroke-width: 1.000000; stroke-linejoin: round; stroke-linecap: square;  opacity: 1.000000"  d="M518.400000 388.800000L518.400000 43.200000"/>
</g>
<g id="patch5">
<path style="fill: none; stroke: #000000; stroke-width: 1.000000; stroke-linejoin: round; stroke-linecap: square;  opacity: 1.000000"  d="M72.000000 388.800000L518.400000 388.800000"/>
</g>
<g id="patch6">
<path style="fill: none; stroke: #000000; stroke-width: 1.000000; stroke-linejoin: round; stroke-linecap: square;  opacity: 1.000000"  d="M72.000000 388.800000L72.000000 43.200000"/>
</g>
</g>
</g>
</svg>
