<?xml version="1.0" standalone="no"?>
<!DOCTYPE svg PUBLIC "-//W3C//DTD SVG 1.1//EN"
  "http://www.w3.org/Graphics/SVG/1.1/DTD/svg11.dtd">
<!-- Created with matplotlib (http://matplotlib.sourceforge.net/) -->
<svg width="576pt" height="432pt" viewBox="0 0 576 432"
   xmlns="http://www.w3.org/2000/svg"
   xmlns:xlink="http://www.w3.org/1999/xlink"
   version="1.1"
   id="svg1">
<g id="figure1">
<g id="patch1">
<path style="fill: #ffffff; stroke: #ffffff; stroke-width: 1.000000; stroke-linejoin: round; stroke-linecap: square;  opacity: 1.000000"  d="M0.000000 432.000000L576.000000 432.000000L576.000000 0.000000
L0.000000 0.000000L0.000000 432.000000"/>
</g>
<g id="axes1">
<g id="patch2">
<path style="fill: #ffffff; opacity: 1.000000"  d="M72.000000 388.800000L518.400000 388.800000L518.400000 43.200000
L72.000000 43.200000L72.000000 388.800000"/>
</g>
<g id="line2d1">
<defs>
  <clipPath id="p50431ccdcb28178602d99d9270004dde">
<rect x="72.000000" y="43.200000" width="446.400000" height="345.600000"/>
  </clipPath>
</defs><path style="fill: none; stroke: #ff0000; stroke-width: 1.000000; stroke-linejoin: round; stroke-linecap: square;  opacity: 1.000000" clip-path="url(#p50431ccdcb28178602d99d9270004dde)" d="M72.000000 290.026460L72.223200 261.760550L72.267840 258.668237
L72.580320 192.637129L72.714240 209.060006L72.892800 324.227174
L73.160640 311.986483L73.294560 152.053966L73.517760 248.767131
L73.651680 274.484483L73.696320 258.977076L73.785600 227.801929
L74.008800 243.245053L74.053440 247.863756L74.187360 217.223124
L74.232000 222.274057L74.410560 214.761738L74.544480 247.137028
L74.901600 181.671494L75.080160 323.115402L75.258720 310.130542
L75.437280 333.162305L75.526560 297.202107L75.705120 192.657588
L75.839040 319.130738L76.151520 214.240954L76.196160 234.505693
L76.330080 207.625836L76.508640 293.937362L76.642560 214.478899
L76.821120 292.092445L77.044320 231.678075L77.088960 321.427020
L77.356800 221.745151L77.446080 246.943619L77.580000 267.841809
L77.580000 267.841809L77.758560 331.512722L77.937120 301.881957
L78.160320 223.355416L78.294240 71.016468L78.472800 230.497874
L78.740640 218.704447L78.785280 281.896704L79.008480 321.683351
L79.097760 239.682712L79.231680 222.162382L79.499520 293.113924
L79.767360 242.909914L80.079840 326.219236L80.124480 303.746746
L80.169120 304.981102L80.392320 214.911153L80.481600 258.598656
L80.704800 213.103308L80.749440 297.026196L80.928000 353.239972
L81.106560 217.564577L81.329760 211.974981L81.552960 306.236609
L81.597600 305.193623L81.686880 320.779054L81.910080 295.091044
L82.044000 298.575556L82.222560 319.097100L82.356480 297.891982
L82.490400 320.701732L82.668960 313.219814L82.936800 206.681011
L82.981440 294.751860L83.026080 307.256901L83.070720 294.818769
L83.338560 226.026144L83.472480 168.629633L83.651040 283.286292
L83.874240 386.293213L83.963520 293.463360L84.097440 316.893911
L84.142080 301.107514L84.409920 320.807820L84.454560 234.585089
L84.811680 320.387282L84.990240 321.805786L85.258080 227.781861
L85.347360 215.163821L85.570560 295.213006L85.838400 330.501059
L85.883040 296.801234L86.061600 306.539136L86.374080 330.156311
L86.374080 330.156311L86.597280 330.293123L86.686560 324.157974
L86.865120 326.981952L86.999040 232.700164L87.043680 332.219946
L87.356160 306.846455L87.668640 222.794196L87.802560 320.310156
L87.981120 232.829130L88.025760 237.596256L88.338240 299.034927
L88.382880 296.580269L88.561440 309.198931L88.606080 300.798743
L88.829280 323.343199L88.873920 299.213027L89.097120 302.850351
L89.186400 291.285492L89.364960 312.056364L89.588160 191.199825
L89.722080 225.999245L90.034560 216.376658L90.079200 284.120640
L90.168480 299.611284L90.436320 214.121399L90.480960 296.611039
L90.525600 305.058966L90.748800 301.326843L90.972000 377.850275
L91.061280 325.609252L91.329120 233.020581L91.418400 305.341217
L91.641600 292.624796L91.954080 324.536590L92.221920 247.371702
L92.266560 320.789353L92.400480 220.119621L92.712960 291.052362
L92.936160 285.996914L92.980800 301.137270L93.293280 319.227264
L93.293280 319.227264L93.605760 243.590918L93.784320 224.694063
L93.962880 300.551558L94.186080 308.670036L94.453920 328.028659
L94.498560 294.819137L94.543200 296.189775L94.766400 310.682880
L94.811040 302.896719L94.900320 323.344466L95.123520 286.488380
L95.480640 307.372516L95.793120 226.810956L95.837760 319.401907
L96.150240 315.131950L96.552000 237.409782L96.641280 313.246264
L96.909120 291.258029L97.087680 270.353388L97.266240 303.738348
L97.355520 311.853381L97.534080 299.507028L97.668000 313.728503
L97.846560 304.644419L97.935840 290.714884L98.114400 295.669486
L98.382240 313.537283L98.426880 281.784084L98.650080 295.614939
L98.873280 313.255089L98.917920 296.936559L99.007200 310.991858
L99.185760 306.013455L99.319680 298.964609L99.498240 306.897155
L99.632160 283.573348L100.123200 327.612983L100.435680 247.201332
L100.480320 297.636987L100.658880 288.718975L100.658880 288.718975
L100.837440 330.492004L100.971360 307.172955L101.328480 295.495741
L101.507040 291.673763L101.507040 291.673763L101.596320 323.250013
L101.774880 282.609204L101.819520 323.718232L102.087360 296.289527
L102.444480 260.139836L102.667680 304.768443L102.801600 299.028684
L102.980160 290.549341L103.158720 325.078330L103.248000 311.080746
L103.337280 314.623365L103.560480 299.966204L103.783680 323.223817
L103.828320 306.951517L103.962240 297.520036L104.006880 300.466207
L104.096160 307.041696L104.185440 295.815237L104.408640 315.981942
L104.542560 305.590533L104.676480 330.279794L104.765760 300.677887
L105.033600 283.484886L105.122880 314.013865L105.167520 292.790339
L105.435360 295.476353L105.792480 376.903031L106.060320 284.786335
L106.238880 300.395485L106.328160 306.895323L106.551360 299.200516
L106.640640 307.151873L106.729920 300.216637L106.863840 283.639323
L106.953120 294.993331L107.087040 284.513795L107.176320 295.635963
L107.488800 306.947347L107.712000 257.027247L107.845920 297.429880
L108.113760 286.595885L108.158400 297.076746L108.426240 214.576750
L108.470880 287.929797L108.515520 320.399597L108.783360 305.458053
L109.095840 265.921021L109.140480 298.959057L109.497600 321.970095
L109.586880 322.458785L109.810080 295.487735L109.944000 302.370509
L110.122560 326.602621L110.256480 260.180536L110.435040 327.647163
L110.568960 302.579436L110.702880 296.337761L111.060000 317.146084
L111.193920 276.444714L111.417120 299.667007L111.551040 291.103361
L111.595680 303.672476L111.774240 306.021427L111.863520 300.314592
L111.997440 292.849309L112.220640 310.424936L112.399200 284.908320
L112.443840 301.768980L112.622400 299.245548L112.800960 291.435160
L112.890240 309.554830L113.247360 199.275587L113.604480 317.634947
L113.827680 221.778927L113.872320 297.046771L114.050880 305.023507
L114.095520 296.480874L114.318720 305.083526L114.363360 297.497664
L114.631200 293.156721L114.675840 304.539333L114.899040 312.715826
L114.988320 298.185972L115.256160 308.892200L115.300800 287.908785
L115.613280 297.412923L115.836480 281.007418L116.015040 313.960389
L116.193600 300.507805L116.416800 290.555378L116.506080 300.602028
L116.640000 301.825302L116.863200 254.493642L116.907840 306.804972
L116.952480 307.961960L117.041760 318.688819L117.264960 301.527786
L117.532800 315.109590L117.711360 328.256974L117.845280 295.271447
L118.023840 293.453234L118.202400 302.575680L118.425600 305.873994
L118.648800 294.656993L118.738080 296.825184L118.916640 319.876692
L119.050560 299.497375L119.184480 310.602436L119.318400 296.374959
L119.496960 313.666848L119.675520 305.514202L120.077280 283.424348
L120.345120 387.362246L120.434400 320.481596L120.880800 260.721861
L121.104000 310.902900L121.237920 283.535977L121.282560 307.275425
L121.505760 289.418250L121.684320 311.617751L121.773600 271.186099
L121.818240 322.987611L122.130720 311.899380L122.264640 205.104637
L122.443200 301.090614L122.577120 314.888060L122.666400 304.649349
L122.800320 312.254888L122.934240 299.151176L123.023520 280.791809
L123.202080 303.178706L123.291360 304.746244L123.559200 316.066118
L123.871680 291.932064L124.005600 313.564297L124.184160 313.308691
L124.407360 287.382597L124.541280 299.717833L124.675200 262.820148
L124.719840 329.339658L124.987680 322.464407L125.032320 291.815781
L125.344800 301.902589L125.701920 279.609546L125.746560 312.693132
L126.014400 296.238943L126.192960 266.627727L126.326880 301.169871
L126.639360 286.676559L126.684000 296.904499L126.773280 293.153818
L126.862560 322.687135L127.085760 305.880791L127.442880 258.616155
L127.800000 319.317823L127.978560 276.622237L128.157120 300.885765
L128.246400 291.702378L128.246400 291.702378L128.424960 315.609085
L128.558880 286.421829L128.782080 316.761523L128.871360 305.707991
L129.183840 308.789580L129.228480 300.689833L129.362400 306.513642
L129.496320 296.132440L129.585600 292.454669L129.853440 315.380195
L130.255200 249.670748L130.478400 333.305165L130.612320 293.516237
L130.835520 311.103095L131.014080 305.875688L131.058720 303.688224
L131.281920 289.250508L131.326560 313.475144L131.415840 297.843540
L131.683680 301.005896L132.040800 377.363105L132.085440 355.786456
L132.130080 273.407962L132.308640 295.743951L132.531840 306.152029
L132.844320 312.660472L132.844320 312.660472L133.112160 322.379044
L133.201440 300.973052L133.246080 299.757704L133.335360 323.522542
L133.513920 299.208499L133.603200 289.499927L133.826400 308.866084
L134.094240 257.811921L134.138880 283.704906L134.183520 312.968436
L134.451360 306.514529L134.808480 258.996108L134.853120 277.861248
L134.897760 316.783791L135.165600 292.065754L135.344160 290.775041
L135.478080 300.384772L135.701280 310.656280L135.790560 300.241578
L136.058400 295.825098L136.103040 306.495924L136.236960 290.193085
L136.326240 303.887773L136.549440 322.698931L136.594080 305.563450
L136.951200 288.847261L137.219040 305.734648L137.263680 300.233318
L137.397600 315.009976L137.531520 296.998191L137.754720 283.129252
L137.799360 307.040636L137.888640 310.769856L138.156480 287.248723
L138.290400 314.751882L138.558240 310.200330L138.826080 272.392128
L138.870720 313.143322L139.093920 323.453364L139.272480 296.270381
L139.451040 256.463274L139.584960 300.609481L139.674240 295.758685
L139.718880 298.973249L140.031360 292.875863L140.120640 312.678593
L140.343840 291.635493L140.567040 311.745761L140.656320 292.354410
L140.924160 311.217765L140.968800 295.359656L141.281280 314.207643
L141.593760 318.335604L141.638400 292.128353L141.727680 306.844197
L141.906240 335.641916L142.040160 308.544031L142.263360 269.977640
L142.352640 299.715794L142.531200 319.191748L142.620480 300.690639
L142.932960 311.197513L142.932960 311.197513L142.977600 305.378001
L143.245440 294.601271L143.290080 302.773778L143.379360 292.288101
L143.424000 301.125231L143.557920 279.740379L143.602560 312.132211
L143.647200 255.805448L143.870400 296.757066L144.093600 307.729832
L144.272160 272.522051L144.406080 307.193806L144.763200 283.103378
L144.807840 325.949564L145.075680 301.442492L145.209600 306.149841
L145.254240 302.212950L145.432800 284.097289L145.522080 297.244305
L145.745280 280.962513L145.789920 296.051858L145.923840 294.131370
L145.968480 297.975859L146.236320 308.981987L146.280960 291.584794
L146.548800 311.701755L146.638080 299.307064L146.861280 307.649733
L146.905920 306.289094L146.995200 300.921120L147.084480 309.449987
L147.396960 249.327487L147.664800 321.734557L147.709440 295.814212
L147.798720 294.643837L147.977280 274.703720L148.021920 296.057733
L148.155840 306.555160L148.334400 298.716710L148.379040 296.649089
L148.691520 321.196896L148.780800 258.651613L149.048640 309.994502
L149.182560 284.176201L149.361120 296.391917L149.628960 292.931032
L149.718240 312.644045L149.986080 294.442399L150.120000 300.329914
L150.432480 309.319684L150.700320 270.688539L150.744960 295.271735
L151.012800 286.571347L151.057440 304.493011L151.414560 290.408498
L151.727040 309.079423L152.039520 313.507469L152.084160 299.956009
L152.307360 307.125020L152.441280 291.534083L152.485920 315.747913
L152.709120 300.769690L152.843040 321.796086L153.021600 289.492969
L153.334080 309.100792L153.468000 314.179788L153.691200 280.924819
L153.780480 310.218728L154.048320 310.207876L154.182240 313.593684
L154.360800 307.006088L154.494720 296.575983L154.717920 283.888132
L154.807200 293.494291L155.030400 290.326291L155.164320 303.421202
L155.253600 295.547512L155.476800 307.230854L155.655360 295.503759
L155.833920 299.760998L156.012480 294.311359L156.012480 294.311359
L156.324960 315.266803L156.324960 315.266803L156.414240 278.061281
L156.682080 301.870172L156.816000 323.382689L156.860640 285.361459
L157.128480 296.346240L157.440960 315.052370L157.485600 266.889969
L157.753440 306.712892L158.065920 290.832664L158.289120 320.203215
L158.423040 305.525583L158.512320 302.686214L158.735520 294.440198
L158.735520 294.440198L158.914080 322.235666L159.048000 286.360969
L159.226560 314.037700L159.405120 302.569597L159.717600 299.017221
L159.896160 295.656307L159.896160 295.656307L160.074720 313.399100
L160.208640 299.813783L160.476480 293.085608L160.521120 302.614433
L160.655040 309.992567L160.699680 301.630280L160.788960 305.509617
L161.012160 284.122564L161.280000 307.981912L161.369280 297.313966
L161.547840 310.575180L161.681760 291.607580L161.815680 309.283338
L162.038880 300.889670L162.262080 307.951154L162.351360 305.043679
L162.440640 288.806953L162.619200 306.537327L162.887040 278.358762
L162.931680 303.492534L163.288800 313.182812L163.645920 294.244957
L163.869120 309.394172L163.913760 302.316054L164.003040 304.654890
L164.270880 294.721010L164.538720 288.218523L164.583360 303.253828
L164.985120 240.522163L165.029760 314.996325L165.342240 300.379956
L165.520800 284.135708L165.565440 295.663772L165.654720 284.504625
L165.877920 288.499726L166.145760 262.369071L166.235040 305.425129
L166.279680 277.385057L166.547520 296.389371L166.726080 314.879593
L166.770720 255.411994L167.038560 299.237864L167.261760 308.337396
L167.351040 307.151677L167.663520 318.424262L167.663520 318.424262
L167.708160 316.908058L167.886720 332.975555L168.020640 312.790683
L168.154560 314.679617L168.199200 304.383444L168.288480 326.433116
L168.511680 298.090034L168.600960 307.155041L168.645600 295.697814
L168.779520 310.033509L169.002720 304.846122L169.315200 284.054769
L169.359840 294.471464L169.449120 305.171124L169.716960 310.300808
L169.761600 292.557162L169.895520 281.071676L170.074080 306.603418
L170.208000 295.324888L170.475840 306.904527L170.475840 306.904527
L170.609760 298.745580L170.609760 298.745580L170.922240 309.385083
L170.922240 309.385083L171.190080 275.768444L171.279360 296.195328
L171.368640 288.785503L171.636480 306.393592L171.859680 283.365181
L171.904320 295.519116L172.172160 293.935657L172.216800 303.542162
L172.395360 318.308498L172.440000 306.082771L172.663200 310.675922
L172.752480 291.782316L172.886400 316.142404L173.109600 298.972996
L173.422080 284.486953L173.645280 256.208890L173.779200 300.266127
L173.868480 304.771576L174.091680 295.180934L174.180960 294.137326
L174.180960 294.137326L174.359520 304.830409L174.448800 295.803752
L174.672000 292.177993L174.761280 300.620425L174.895200 250.595378
L175.029120 295.282932L175.163040 322.380945L175.207680 292.046723
L175.386240 306.401092L175.520160 298.201962L175.698720 306.911831
L175.832640 300.017595L176.100480 293.874877L176.145120 313.635375
L176.368320 314.672383L176.457600 307.057018L176.770080 295.529449
L176.904000 306.927141L177.127200 303.159617L177.439680 256.509112
L177.484320 294.216526L177.573600 311.443269L177.707520 301.524515
L177.841440 292.763796L178.020000 306.474785L178.198560 292.565756
L178.466400 289.698670L178.511040 312.016355L178.600320 294.511496
L178.823520 301.637030L178.868160 308.570412L179.046720 242.443377
L179.225280 275.431542L179.269920 323.899914L179.314560 295.198606
L179.582400 260.456244L179.671680 302.153875L179.805600 301.459599
L179.984160 309.596832L180.296640 265.869389L180.341280 294.951537
L180.475200 294.406790L180.653760 316.408113L181.055520 279.356809
L181.368000 318.301851L181.412640 312.082975L181.725120 274.454346
L181.903680 312.570939L182.082240 296.014798L182.171520 326.104301
L182.350080 295.964433L182.439360 286.978717L182.662560 304.338424
L182.975040 254.174700L183.019680 295.663968L183.198240 310.910976
L183.332160 299.746138L183.510720 292.461028L183.555360 300.644778
L183.867840 285.561354L184.046400 310.197116L184.180320 304.572603
L184.492800 304.796575L184.537440 283.926632L184.760640 308.405618
L184.849920 291.195302L184.983840 250.074420L185.117760 295.998163
L185.296320 309.631484L185.385600 300.110446L185.608800 306.918225
L185.653440 295.710636L185.742720 306.654981L185.921280 301.369824
L186.189120 291.132979L186.501600 288.183041L186.501600 288.183041
L186.814080 286.955585L186.858720 300.825043L186.903360 297.192004
L187.037280 306.110580L187.215840 305.157923L187.349760 287.422675
L187.349760 287.422675L187.528320 309.280447L187.617600 307.580613
L187.751520 272.657226L188.019360 260.998572L188.064000 316.494708
L188.108640 287.404324L188.376480 308.842998L188.510400 299.219731
L188.599680 312.711713L188.778240 315.772577L188.912160 307.092211
L189.224640 316.248883L189.269280 281.886278L189.537120 306.617599
L189.715680 306.666996L189.804960 297.460362L189.983520 289.050624
L190.072800 299.877408L190.251360 307.756696L190.385280 296.767169
L190.519200 297.356337L190.519200 297.356337L190.608480 301.974267
L190.697760 322.747845L190.920960 309.505536L191.233440 292.313065
L191.278080 296.592342L191.322720 297.703572L191.412000 245.978358
L191.635200 304.041853L191.947680 252.431205L191.992320 294.884444
L192.126240 298.695433L192.215520 298.003864L192.483360 287.537633
L192.795840 310.736920L193.063680 311.617716L193.152960 292.293377
L193.242240 305.944082L193.286880 300.369750L193.465440 304.312032
L193.510080 279.954778L193.554720 331.005876L193.822560 306.483068
L194.135040 307.121172L194.179680 293.641690L194.492160 292.357002
L194.536800 308.188708L194.760000 289.743529L194.804640 295.706454
L194.849280 314.660540L195.161760 309.704394L195.563520 283.729743
L195.831360 278.076718L195.876000 311.303843L196.009920 252.382257
L196.233120 298.027526L196.456320 327.297427L196.500960 300.173437
L196.679520 283.127132L196.768800 308.288344L197.215200 289.876124
L197.304480 270.840027L197.572320 310.117375L197.929440 265.017093
L198.108000 309.961094L198.241920 301.503030L198.375840 309.832900
L198.599040 319.235996L198.688320 293.589550L198.777600 308.305624
L198.822240 297.133425L199.000800 279.097644L199.090080 301.602263
L199.179360 300.200705L199.313280 322.887548L199.357920 317.408095
L199.402560 259.921740L199.670400 299.826052L200.027520 267.704145
L200.295360 309.003517L200.384640 302.016142L200.473920 309.649398
L200.563200 301.152580L200.786400 310.156865L200.831040 291.612753
L200.875680 292.716449L201.009600 307.706469L201.188160 305.065210
L201.500640 297.392970L201.813120 317.264751L202.125600 272.567785
L202.170240 324.990536L202.438080 302.148829L202.616640 312.818907
L202.750560 301.577184L202.795200 300.564611L203.018400 288.334518
L203.152320 294.627191L203.286240 288.590377L203.509440 303.998354
L203.777280 305.418113L203.821920 297.420215L203.911200 287.654273
L203.911200 287.654273L204.089760 300.536836L204.179040 290.217600
L204.536160 318.875409L204.580800 286.706938L204.848640 300.159072
L205.071840 332.044923L205.116480 301.286903L205.428960 304.876835
L205.473600 286.400805L205.741440 304.262358L205.830720 298.813041
L205.920000 292.920088L206.187840 312.132361L206.232480 288.235135
L206.366400 314.498661L206.589600 310.945167L206.857440 314.664088
L206.902080 304.355244L207.125280 308.710748L207.169920 303.372288
L207.303840 306.714079L207.571680 307.141471L207.616320 303.029061
L207.750240 293.520407L207.794880 303.050200L207.884160 279.265006
L208.062720 311.254076L208.330560 311.981495L208.375200 302.275872
L208.598400 292.854701L208.643040 297.418372L208.955520 307.099941
L209.268000 286.788637L209.401920 315.211323L209.580480 303.045592
L209.892960 304.893055L209.892960 304.893055L209.982240 292.643194
L210.160800 299.736161L210.517920 309.528173L210.785760 310.511301
L210.875040 287.309491L211.053600 314.911043L211.187520 296.858223
L211.500000 313.745668L211.500000 313.745668L211.544640 290.471800
L211.812480 290.925723L211.991040 313.785170L212.169600 310.227932
L212.526720 279.857065L212.749920 197.606097L212.883840 303.971662
L213.151680 321.991914L213.196320 293.652691L213.419520 286.485166
L213.553440 310.935537L213.865920 257.638706L213.910560 314.518591
L214.178400 300.309777L214.490880 296.664998L214.535520 305.465864
L214.714080 303.964462L214.848000 306.312353L215.026560 297.048142
L215.339040 263.334136L215.651520 322.728227L215.696160 295.578132
L215.919360 289.765336L216.008640 301.435960L216.187200 302.104477
L216.231840 299.633184L216.410400 298.986912L216.410400 298.986912
L216.499680 325.198852L216.722880 297.917268L216.856800 288.871753
L216.946080 304.417187L217.213920 314.424887L217.258560 289.997372
L217.437120 309.597212L217.615680 307.566328L217.794240 289.383379
L217.928160 307.348589L218.151360 319.140495L218.285280 292.119978
L218.463840 309.837969L218.508480 244.770094L218.731680 296.287972
L218.865600 295.282287L219.088800 286.358746L219.133440 296.680573
L219.356640 326.973807L219.401280 300.410680L219.758400 310.226412
L220.070880 311.815803L220.070880 311.815803L220.294080 316.416177
L220.383360 303.223761L220.651200 289.154246L220.695840 293.033975
L220.829760 385.562650L221.008320 303.505690L221.276160 301.894560
L221.276160 301.894560L221.454720 290.573925L221.811840 311.534012
L222.124320 288.323113L222.168960 296.590660L222.302880 310.387473
L222.481440 297.061793L222.704640 301.575272L222.704640 301.575272
L222.838560 297.308137L222.883200 303.018912L222.972480 314.704881
L223.151040 304.834752L223.240320 292.559743L223.240320 292.559743
L223.329600 304.567983L223.374240 300.520051L223.552800 291.272786
L223.597440 308.527903L223.909920 258.004547L223.954560 294.496416
L224.043840 291.635320L224.267040 297.307308L224.445600 305.379660
L224.490240 276.648088L224.758080 304.323368L225.070560 313.493288
L225.383040 325.964621L225.383040 325.964621L225.427680 294.065695
L225.740160 308.370298L225.963360 314.826520L226.052640 302.849004
L226.231200 314.683983L226.275840 302.668577L226.409760 313.028225
L226.588320 297.824532L226.856160 291.882401L226.900800 304.836399
L227.079360 308.530345L227.213280 300.456634L227.347200 315.088612
L227.436480 305.728186L227.525760 313.137078L227.615040 308.517880
L227.793600 294.824955L227.882880 302.287265L228.061440 337.841061
L228.195360 296.587515L228.418560 291.807533L228.463200 314.612559
L228.775680 265.259267L229.132800 324.723133L229.400640 258.801535
L229.489920 306.258670L229.757760 298.504362L229.802400 302.548481
L229.980960 294.391722L230.025600 305.221582L230.248800 268.914010
L230.293440 284.781001L230.605920 312.545917L230.918400 318.960495
L230.963040 298.790991L231.096960 305.069818L231.141600 300.035485
L231.275520 312.042079L231.454080 305.068977L231.588000 309.150444
L231.588000 309.150444L231.811200 288.098289L231.900480 304.274373
L231.945120 301.123146L232.123680 307.579357L232.257600 298.007401
L232.346880 300.586775L232.436160 297.334414L232.748640 307.921801
L232.748640 307.921801L232.793280 296.453249L233.105760 301.077343
L233.195040 289.224703L233.373600 309.873992L233.418240 260.977179
L233.596800 304.647990L233.730720 301.766653L233.820000 326.613934
L233.998560 293.604123L234.177120 316.824929L234.355680 307.526193
L234.534240 313.302977L234.802080 292.262515L234.891360 298.114341
L235.069920 290.756609L235.203840 308.950652L235.516320 287.465783
L235.739520 308.964741L235.784160 250.323172L236.052000 296.085047
L236.453760 310.634001L236.721600 313.597244L236.766240 299.633023
L236.989440 291.229390L237.078720 292.428933L237.257280 320.783005
L237.391200 299.343709L237.525120 310.622296L237.703680 304.463347
L238.060800 258.984749L238.373280 314.634851L238.417920 301.014835
L238.685760 261.259050L238.730400 306.364113L238.908960 289.501390
L238.953600 314.281912L239.221440 312.040765L239.444640 323.202044
L239.533920 289.848442L239.578560 322.868436L239.846400 306.910817
L240.069600 310.522084L240.158880 304.527329L240.292800 309.146147
L240.382080 301.326612L240.694560 287.434621L240.739200 290.474196
L240.962400 304.601253L241.007040 301.084266L241.274880 137.470176
L241.319520 249.329768L241.364160 312.213876L241.676640 293.006258
L241.944480 320.047546L242.078400 309.462532L242.346240 281.778094
L242.390880 323.265658L242.614080 296.624333L242.837280 315.913743
L242.926560 304.023306L243.194400 311.795148L243.328320 269.266982
L243.506880 311.349992L243.953280 293.088396L244.087200 312.669942
L244.265760 300.965541L244.399680 291.551892L244.578240 302.225230
L244.667520 303.891702L244.712160 301.680576L244.980000 292.083494
L245.024640 304.138829L245.113920 310.072308L245.113920 310.072308
L245.292480 319.413853L245.426400 291.598353L245.649600 307.941166
L245.738880 295.386912L245.783520 296.956247L246.096000 307.454388
L246.096000 307.454388L246.140640 297.353503L246.363840 300.568838
L246.497760 298.865802L246.497760 298.865802L246.720960 312.458918
L246.810240 302.934770L246.944160 311.248097L247.122720 322.743779
L247.256640 292.432458L247.435200 322.908445L247.569120 313.395264
L247.613760 297.371773L247.926240 300.086634L248.060160 297.241367
L248.194080 322.614248L248.417280 303.465105L248.595840 290.636536
L248.685120 296.690412L248.952960 306.416563L248.997600 304.805860
L249.265440 319.556160L249.310080 294.542588L249.622560 313.801667
L249.845760 280.605980L249.979680 296.360179L250.158240 305.724177
L250.202880 296.545617L250.292160 287.667003L250.426080 309.657070
L250.470720 249.584878L250.738560 297.423994L251.006400 274.547071
L251.095680 248.787037L251.363520 300.099076L251.542080 312.230442
L251.676000 307.883796L251.899200 314.145723L251.988480 310.480681
L252.211680 299.344067L252.345600 301.825002L252.568800 311.757431
L252.658080 310.998804L252.792000 311.734840L252.970560 302.633741
L253.193760 314.400108L253.238400 291.244182L253.506240 299.115406
L253.684800 284.565024L253.774080 295.796529L253.863360 297.391795
L253.952640 327.799953L254.041920 295.750967L254.354400 300.907284
L254.622240 295.296077L254.711520 307.022216L254.934720 283.843181
L255.024000 301.260315L255.157920 297.303805L255.202560 300.901548
L255.515040 323.562194L255.515040 323.562194L255.916800 275.773882
L256.006080 309.043434L256.273920 297.882697L256.363200 242.502048
L256.586400 292.878086L256.720320 323.906907L256.988160 303.992709
L257.122080 292.825452L257.345280 297.664589L257.613120 317.077644
L257.702400 286.591046L257.970240 296.714212L258.104160 295.601484
L258.104160 295.601484L258.461280 263.626583L258.505920 308.764282
L258.818400 308.669507L259.041600 290.099566L259.086240 304.210322
L259.309440 311.821885L259.398720 297.695831L259.577280 322.952221
L259.711200 297.775227L259.800480 302.550935L259.889760 314.740604
L260.112960 293.871226L260.246880 293.679786L260.470080 305.447766
L260.604000 269.771432L260.782560 302.196292L261.005760 292.044442
L261.095040 315.022867L261.362880 254.739732L261.452160 293.316492
L261.630720 290.481523L261.764640 309.167942L262.121760 289.534141
L262.344960 316.875433L262.389600 293.153380L262.568160 239.210346
L262.657440 291.672253L262.791360 312.200306L263.014560 302.496584
L263.237760 284.231174L263.282400 294.408899L263.550240 319.968899
L263.594880 300.977234L263.862720 256.356046L263.952000 286.409457
L263.996640 306.243372L264.085920 300.063951L264.309120 318.479501
L264.398400 297.998381L264.443040 295.279419L264.666240 309.269019
L264.755520 299.376415L264.889440 293.105411L265.023360 300.221626
L265.157280 303.718395L265.291200 281.038257L265.335840 324.267206
L265.603680 303.335320L265.826880 311.522964L265.871520 302.989836
L266.050080 311.193999L266.228640 326.314068L266.362560 320.261990
L266.630400 292.053105L266.675040 301.526876L266.853600 289.915269
L266.987520 297.204791L267.210720 305.331206L267.255360 284.753422
L267.478560 286.540197L267.701760 255.509130L267.791040 305.078872
L268.148160 289.719233L268.639200 325.197988L269.040960 258.161910
L269.219520 308.377970L269.398080 305.745235L269.532000 141.187380
L269.710560 300.852714L269.844480 292.330817L270.067680 301.455936
L270.156960 298.148198L270.246240 314.501852L270.469440 301.582207
L270.648000 298.766477L270.692640 301.919535L270.826560 300.678659
L270.915840 302.499395L271.094400 303.012611L271.228320 297.186278
L271.496160 284.820918L271.540800 306.187131L271.719360 287.144628
L271.853280 303.795176L272.031840 293.062406L272.076480 322.427555
L272.344320 300.128268L272.433600 319.736724L272.656800 298.546525
L272.924640 294.109321L272.969280 309.558609L273.103200 261.533376
L273.281760 312.879306L273.460320 293.584838L273.683520 304.138875
L273.772800 316.920407L273.862080 335.367844L274.085280 305.690066
L274.353120 294.297581L274.531680 291.402328L274.665600 303.512383
L274.888800 298.492163L274.978080 299.752163L275.201280 294.350769
L275.290560 308.224904L275.513760 115.849152L275.603040 304.829107
L275.870880 285.665933L275.915520 297.263002L276.049440 312.279172
L276.272640 302.301020L276.495840 299.462573L276.540480 308.480325
L276.719040 318.870490L276.852960 307.120389L277.254720 251.714673
L277.522560 313.451574L277.611840 297.040804L277.924320 295.786092
L277.924320 295.786092L278.058240 316.104399L278.236800 302.422383
L278.504640 315.822816L278.549280 302.283729L278.772480 320.087946
L278.861760 299.056884L278.995680 293.488957L279.174240 312.801535
L279.576000 279.791459L279.620640 324.297389L279.888480 309.558401
L280.111680 282.844915L280.200960 297.463841L280.379520 305.971119
L280.647360 244.433894L280.692000 288.670879L280.915200 313.715094
L281.004480 302.059849L281.093760 305.201583L281.093760 305.201583
L281.183040 291.923585L281.227680 300.273235L281.316960 309.606497
L281.495520 300.739300L281.629440 303.873350L281.629440 303.873350
L281.852640 291.099398L281.852640 291.099398L281.986560 300.429631
L282.031200 296.446234L282.254400 291.596532L282.343680 297.588637
L282.522240 260.318822L282.611520 300.428064L282.790080 292.018015
L282.879360 303.712001L283.057920 313.598915L283.147200 259.409503
L283.415040 294.428056L283.638240 367.796920L283.682880 188.433919
L283.950720 305.247663L284.129280 311.001892L284.218560 304.032280
L284.352480 287.635634L284.441760 301.145230L284.664960 297.665603
L284.932800 310.767713L285.066720 338.612072L285.245280 275.844557
L285.379200 324.041748L285.602400 304.850742L285.870240 256.955604
L285.914880 296.646636L286.138080 303.259438L286.227360 311.652449
L286.450560 299.330473L286.807680 311.809766L287.075520 292.313952
L287.164800 301.879814L287.432640 310.045352L287.477280 301.141198
L287.566560 304.183734L287.611200 302.822473L287.655840 292.337073
L287.923680 297.097321L288.057600 275.397443L288.102240 308.698595
L288.280800 254.519827L288.414720 291.286460L288.637920 314.505734
L288.771840 300.026673L288.905760 284.421934L289.039680 300.680375
L289.307520 323.839308L289.620000 269.005248L289.664640 291.465170
L289.887840 318.562560L289.932480 308.718006L289.977120 286.162214
L290.244960 292.410236L290.557440 311.986230L290.602080 309.147391
L291.048480 273.098822L291.360960 316.999745L291.405600 291.892965
L291.718080 301.815210L291.941280 315.643484L292.030560 305.067537
L292.075200 303.649321L292.209120 294.252492L292.253760 303.318662
L292.387680 307.422236L292.566240 299.443127L292.834080 308.793473
L292.878720 303.022115L293.235840 285.767539L293.369760 285.280116
L293.592960 299.019076L293.637600 297.738547L293.905440 322.684520
L293.950080 304.963246L294.262560 291.457843L294.619680 310.130692
L294.976800 257.960390L295.066080 305.115414L295.333920 292.683456
L295.423200 286.983084L295.557120 297.302596L295.780320 311.039389
L295.824960 277.196959L295.869600 326.747151L296.137440 299.875369
L296.405280 313.961691L296.449920 300.496527L296.494560 301.756585
L296.762400 282.173990L296.807040 327.107013L296.985600 280.285943
L297.164160 297.225677L297.476640 317.537533L297.789120 162.431412
L297.833760 165.766752L298.190880 310.120831L298.458720 294.381631
L298.637280 291.221510L298.771200 303.727565L298.905120 310.378614
L299.172960 312.332026L299.262240 285.667695L299.440800 320.005394
L299.485440 296.368036L299.797920 245.021069L300.065760 304.990572
L300.110400 300.238525L300.333600 299.717476L300.333600 299.717476
L300.512160 321.887163L300.601440 302.504198L300.824640 295.225125
L300.869280 308.378408L300.913920 289.619528L301.226400 290.175990
L301.538880 306.728951L301.806720 310.297329L301.851360 296.109124
L302.163840 320.874417L302.208480 277.569608L302.476320 312.976489
L302.833440 291.707424L303.012000 327.054056L303.145920 300.960968
L303.369120 292.754327L303.413760 298.351549L303.503040 285.613874
L303.547680 296.554913L303.636960 314.908969L303.860160 300.877943
L303.994080 315.909907L304.172640 303.541885L304.306560 259.845892
L304.440480 301.296442L304.619040 307.156481L304.708320 321.995451
L304.931520 295.011913L305.065440 374.919137L305.288640 303.857810
L305.377920 324.742533L305.601120 304.814028L305.645760 303.250729
L305.824320 286.904655L305.913600 298.832820L306.047520 295.238120
L306.136800 300.664765L306.270720 302.077624L306.538560 285.667442
L306.583200 294.811131L306.895680 322.645548L307.074240 248.979272
L307.252800 301.313526L307.565280 306.670153L307.743840 308.774350
L307.833120 300.793812L307.967040 302.875188L307.967040 302.875188
L308.100960 301.107237L308.145600 306.399698L308.368800 243.885439
L308.458080 278.819827L308.502720 316.062870L308.815200 302.581463
L308.859840 304.971368L309.038400 305.073170L309.172320 300.612810
L309.395520 327.793294L309.440160 305.434126L309.708000 317.226931
L309.752640 284.838877L309.797280 321.155217L310.065120 294.130034
L310.422240 306.981769L310.645440 292.896426L310.779360 302.510926
L310.913280 286.360704L311.002560 303.538856L311.091840 322.541556
L311.315040 310.554685L311.538240 285.007910L311.761440 294.333108
L311.895360 305.393553L311.940000 296.072421L312.252480 306.956137
L312.252480 306.956137L312.386400 282.005568L312.564960 297.876776
L312.788160 302.485121L312.788160 302.485121L313.100640 309.147564
L313.368480 315.478045L313.413120 302.983142L313.502400 312.802295
L313.725600 268.807116L313.814880 290.173962L313.859520 317.225606
L314.082720 309.025302L314.350560 286.309486L314.484480 304.283048
L314.618400 301.424486L314.618400 301.424486L314.752320 293.510339
L314.841600 306.106284L315.064800 298.952986L315.109440 302.965102
L315.288000 304.592256L315.421920 301.501786L315.466560 304.302516
L315.734400 311.181731L315.779040 291.808881L315.957600 377.620992
L316.136160 308.099969L316.314720 263.915021L316.493280 288.979580
L316.671840 304.433868L316.716480 292.484321L316.984320 266.577085
L317.028960 293.263142L317.207520 288.570528L317.386080 306.407347
L317.698560 263.624440L317.743200 303.396975L317.877120 293.469892
L318.144960 293.444778L318.189600 313.489359L318.457440 267.348234
L318.502080 325.176157L318.814560 314.397412L318.948480 316.747181
L319.171680 300.016535L319.350240 290.262920L319.394880 309.999421
L319.707360 315.645834L319.752000 288.344759L320.109120 308.490993
L320.376960 314.063009L320.466240 290.602633L320.555520 310.610961
L320.689440 302.556419L320.868000 316.576800L321.001920 292.859677
L321.314400 291.651057L321.359040 306.728271L321.626880 253.978952
L321.760800 284.412292L321.805440 310.408163L322.073280 301.629750
L322.296480 315.287827L322.341120 299.746656L322.519680 323.431004
L322.564320 300.682483L322.653600 292.923556L322.742880 387.654659
L322.921440 295.916567L323.144640 308.560620L323.233920 301.937691
L323.501760 308.502420L323.680320 311.133784L323.858880 293.705004
L324.126720 281.292929L324.216000 308.242483L324.483840 311.758813
L324.617760 299.366162L324.885600 305.412987L325.287360 287.115610
L325.555200 262.149362L325.644480 307.026317L325.778400 295.988682
L326.001600 301.270141L326.180160 282.024438L326.314080 333.298172
L326.492640 309.716214L326.715840 282.772017L326.805120 302.463372
L326.894400 304.244513L327.028320 301.749316L327.162240 296.086257
L327.251520 296.990196L327.340800 315.640788L327.564000 306.801861
L327.831840 283.175931L327.876480 321.151000L328.188960 313.386647
L328.322880 332.796545L328.590720 292.723649L328.947840 308.778083
L329.215680 311.391729L329.260320 302.093914L329.349600 295.571739
L329.528160 306.269522L329.617440 258.274414L329.840640 297.087598
L330.019200 288.074292L330.153120 295.891304L330.287040 289.723715
L330.554880 309.962961L330.599520 290.451790L330.688800 289.970289
L330.956640 312.666244L331.179840 324.214963L331.269120 305.846819
L331.358400 291.584794L331.536960 307.515329L331.760160 276.840864
L331.894080 290.809532L331.938720 322.268003L332.117280 302.453752
L332.295840 309.732987L332.429760 298.164902L332.563680 312.438816
L332.742240 296.430958L332.920800 311.896858L333.010080 292.822399
L333.054720 291.342470L333.233280 287.281071L333.367200 296.365755
L333.590400 297.050043L333.590400 297.050043L333.768960 309.648534
L333.902880 297.087598L334.036800 330.758381L334.260000 302.938664
L334.393920 307.833627L334.572480 300.165005L334.751040 292.007485
L334.795680 306.151062L334.884960 300.592120L335.018880 386.808710
L335.197440 296.918945L335.242080 295.785400L335.376000 287.287419
L335.465280 296.887173L335.599200 295.276251L335.777760 320.436311
L335.911680 291.429504L336.134880 308.955237L336.268800 308.840164
L336.447360 311.024102L336.581280 301.945974L336.804480 310.922024
L336.983040 280.843569L337.116960 302.664753L337.340160 315.441089
L337.384800 299.868019L337.608000 294.103492L337.697280 301.258345
L337.875840 292.406008L338.009760 313.029469L338.366880 290.158214
L338.634720 309.032029L338.724000 298.655735L338.768640 296.084817
L339.036480 316.828593L339.081120 299.215296L339.215040 304.018687
L339.527520 284.701755L339.840000 330.682694L339.884640 300.827462
L340.241760 256.319366L340.598880 310.360666L341.045280 255.184739
L341.268480 304.573905L341.402400 293.690661L341.580960 290.898363
L341.670240 297.720576L341.804160 312.968932L341.982720 292.962620
L342.072000 292.060385L342.250560 308.313228L342.563040 273.859062
L342.607680 309.722838L342.786240 295.125420L343.054080 311.964952
L343.098720 291.971416L343.321920 313.864393L343.411200 308.534872
L343.500480 256.346116L343.634400 300.168749L343.946880 303.059186
L343.991520 300.595323L344.080800 300.963491L344.080800 300.963491
L344.214720 260.160342L344.393280 296.425244L344.616480 295.086966
L344.705760 306.251320L344.973600 288.380886L345.062880 291.894993
L345.330720 283.279565L345.375360 312.862337L345.553920 284.231497
L345.687840 298.093432L345.821760 291.120595L346.000320 308.526843
L346.268160 287.844699L346.312800 296.330527L346.580640 305.039589
L346.625280 294.837880L346.893120 253.111576L346.937760 291.470504
L347.205600 309.260863L347.294880 301.175101L347.518080 283.411354
L347.607360 300.807314L347.741280 289.870145L347.919840 301.804831
L348.143040 266.863530L348.321600 272.732867L348.366240 327.262418
L348.500160 295.787163L348.678720 286.640052L348.946560 312.182346
L348.991200 297.896394L349.303680 310.732485L349.303680 310.732485
L349.437600 314.122280L349.660800 291.861308L349.705440 326.939754
L349.973280 310.827871L350.151840 313.554148L350.241120 291.121517
L350.285760 317.065202L350.598240 311.782775L350.955360 287.364753
L351.267840 323.146241L351.312480 296.932988L351.624960 304.316836
L351.982080 251.065244L352.026720 320.411889L352.339200 303.082629
L352.607040 284.453038L352.696320 300.457060L352.830240 304.343078
L352.919520 299.115855L353.187360 291.288407L353.232000 311.905083
L353.365920 253.427685L353.589120 300.223676L353.767680 288.937751
L353.946240 294.581699L353.990880 296.437294L354.124800 314.580442
L354.303360 308.444820L354.571200 224.974184L354.571200 224.974184
L354.839040 314.128397L354.839040 314.128397L354.928320 291.559864
L355.017600 309.818039L355.196160 301.037656L355.330080 328.143871
L355.464000 282.929783L355.642560 305.413644L355.776480 305.999032
L355.999680 296.547229L356.044320 295.473542L356.133600 313.537490
L356.356800 305.002241L356.446080 311.424906L356.669280 306.289313
L356.981760 257.294799L357.026400 343.909428L357.338880 310.030088
L357.562080 283.549594L357.651360 290.423232L357.696000 322.888020
L357.963840 304.643428L358.053120 307.169061L358.320960 277.677550
L358.365600 302.895118L358.633440 289.880156L358.722720 307.898024
L358.990560 290.354377L359.213760 311.857563L359.303040 299.103080
L359.615520 283.130208L359.660160 294.631281L359.928000 279.287770
L360.017280 312.721356L360.285120 260.753599L360.329760 287.344616
L360.552960 267.825370L360.642240 302.274570L360.820800 298.683498
L360.865440 305.272858L361.044000 310.516324L361.177920 281.714711
L361.311840 318.720280L361.535040 301.441340L361.758240 312.600269
L361.847520 305.117453L362.204640 248.030692L362.338560 318.459629
L362.561760 311.855259L362.829600 262.662981L362.874240 300.555717
L363.052800 292.715862L363.186720 306.900300L363.276000 294.652063
L363.320640 306.350496L363.633120 315.586230L363.633120 315.586230
L363.900960 320.752927L363.945600 302.647357L364.168800 326.317778
L364.213440 308.573637L364.436640 328.224488L364.525920 305.021883
L364.927680 289.605243L365.061600 285.856151L365.240160 299.179020
L365.508000 254.945676L365.552640 296.465979L365.597280 298.771983
L365.686560 333.758592L365.909760 300.750060L365.999040 291.087153
L365.999040 291.087153L366.132960 275.292634L366.311520 293.709969
L366.534720 310.709307L366.668640 300.734392L366.847200 256.272353
L366.981120 296.456302L367.204320 304.615331L367.516800 261.055596
L367.740000 314.886447L367.829280 301.118273L367.918560 298.958688
L368.052480 294.065833L368.231040 306.836006L368.543520 329.006166
L368.543520 329.006166L368.856000 194.137551L368.900640 203.988626
L368.945280 317.693606L369.257760 307.429286L369.391680 310.507799
L369.525600 306.084361L369.882720 318.015222L370.105920 260.637535
L370.239840 308.020067L370.373760 294.555168L370.507680 309.318497
L370.820160 259.637253L370.864800 285.557299L371.132640 285.263597
L371.177280 309.501838L371.489760 237.925763L371.712960 320.247372
L371.802240 306.939041L371.980800 309.679108L372.159360 289.100436
L372.293280 295.368134L372.605760 291.658038L372.650400 300.602811
L372.828960 283.909559L372.873600 294.782469L373.052160 289.091059
L373.186080 295.701800L373.498560 309.513542L373.498560 309.513542
L373.811040 294.482580L374.078880 286.749711L374.123520 303.830876
L374.257440 323.035845L374.391360 295.113059L374.614560 288.259119
L374.659200 306.749848L374.793120 98.708659L374.927040 294.563082
L375.284160 306.284256L375.418080 310.924547L375.552000 295.219941
L375.953760 313.366326L376.087680 315.913605L376.266240 290.178547
L376.355520 321.774670L376.578720 302.509521L376.801920 318.193678
L376.891200 302.423340L377.069760 328.331451L377.203680 309.589862
L377.471520 242.319560L377.516160 300.105965L377.694720 321.474217
L377.739360 300.659144L377.873280 306.372591L378.051840 301.183004
L378.542880 260.249057L378.900000 319.253449L379.212480 283.435235
L379.257120 304.531615L379.435680 309.901144L379.703520 287.479031
L379.792800 293.663681L380.016000 259.396439L380.105280 292.141832
L380.283840 287.986890L380.283840 287.986890L380.373120 319.848607
L380.551680 298.317946L380.640960 292.178246L380.819520 308.425524
L380.908800 317.854195L381.132000 297.988923L381.310560 309.678912
L381.489120 307.073722L381.623040 323.328154L381.801600 302.300628
L382.114080 317.608934L382.158720 284.020024L382.426560 299.923384
L382.649760 283.818793L382.694400 306.055308L383.051520 172.248319
L383.408640 306.319380L383.721120 295.117885L384.033600 308.858757
L384.122880 311.411854L384.346080 295.579492L384.569280 312.386757
L384.703200 306.951828L384.971040 248.837691L385.238880 320.703437
L385.328160 306.156453L385.462080 317.620547L385.596000 313.648635
L385.685280 327.494811L385.863840 298.987062L385.953120 305.874639
L385.997760 304.650409L386.354880 281.185367L386.399520 320.680097
L386.667360 298.431245L386.890560 287.391364L386.935200 316.184567
L387.203040 300.010913L387.470880 236.878088L387.738720 322.797658
L387.828000 293.278280L388.051200 304.281654L388.363680 310.977239
L388.408320 291.022237L388.542240 323.680573L388.765440 301.776088
L388.854720 303.196090L388.854720 303.196090L389.077920 337.753152
L389.167200 311.216210L389.390400 319.270095L389.524320 305.674721
L389.568960 304.236588L389.747520 312.712013L389.836800 304.371452
L389.970720 298.394726L389.970720 298.394726L390.060000 315.051932
L390.283200 294.440014L390.461760 292.996535L390.640320 308.399697
L390.952800 291.096207L390.997440 296.764992L391.086720 293.544714
L391.354560 308.944143L391.711680 244.351907L391.756320 322.675373
L391.979520 301.309955L392.202720 285.149030L392.515200 320.865846
L392.559840 300.376927L392.827680 245.819105L392.872320 296.166689
L393.095520 299.633265L393.140160 297.686039L393.229440 295.597486
L393.318720 285.276096L393.408000 296.450542L393.586560 311.700707
L393.720480 289.404991L394.032960 308.616618L394.300800 378.367972
L394.300800 378.367972L394.345440 375.046606L394.390080 292.460244
L394.702560 299.927324L395.104320 312.705596L395.416800 286.624178
L395.640000 309.141112L395.773920 299.244292L395.997120 315.235918
L396.131040 284.118912L396.264960 296.724200L396.488160 293.615873
L396.488160 293.615873L396.756000 244.370085L396.979200 319.324078
L397.113120 304.193676L397.202400 293.943087L397.336320 309.640562
L397.514880 307.280367L397.648800 256.830693L397.782720 295.256886
L398.005920 306.784040L398.050560 300.283039L398.139840 307.187965
L398.363040 286.886961L398.452320 285.057204L398.675520 313.796782
L398.943360 288.615963L399.032640 295.622381L399.389760 308.235329
L399.434400 309.526180L399.479040 292.712890L399.746880 293.326502
L400.059360 317.936356L400.104000 306.856788L400.371840 310.538765
L400.371840 310.538765L400.550400 284.282150L400.684320 306.327640
L400.862880 253.161573L401.041440 287.909775L401.086080 307.292072
L401.398560 306.551992L401.711040 308.658804L401.711040 308.658804
L402.023520 291.153496L402.068160 301.660716L402.246720 269.381134
L402.425280 293.921649L402.648480 290.289819L402.737760 302.953778
L402.871680 305.915662L402.960960 327.818868L403.184160 293.289166
L403.496640 292.045190L403.541280 310.030940L403.809120 293.596808
L403.898400 294.226548L404.255520 323.652234L404.300160 283.303688
L404.612640 298.956914L405.014400 311.621449L405.326880 295.963880
L405.684000 309.400358L405.862560 330.727219L405.996480 294.821672
L406.041120 306.401138L406.130400 295.681686L406.308960 309.189473
L406.308960 309.189473L406.621440 284.377478L406.621440 284.377478
L406.978560 306.567395L407.067840 308.624210L407.291040 295.586692
L407.380320 291.806911L407.469600 306.805824L407.558880 262.052986
L407.782080 306.358099L407.960640 297.621089L408.005280 306.671651
L408.183840 293.528667L408.317760 306.667250L408.407040 386.468513
L408.630240 324.182292L408.764160 377.891482L408.942720 306.696038
L409.076640 260.304342L409.210560 294.947032L409.344480 280.940095
L409.523040 295.205080L409.746240 317.606607L409.790880 284.026579
L410.058720 295.351845L410.192640 306.676236L410.281920 301.827456
L410.460480 311.772868L410.594400 290.920585L410.996160 307.738771
L411.085440 309.535718L411.308640 301.371149L411.487200 290.740815
L411.531840 322.535532L411.576480 303.052873L411.755040 331.328851
L411.888960 296.354615L411.978240 297.441239L412.112160 310.801743
L412.290720 293.708932L412.469280 319.704468L412.603200 305.592526
L412.871040 279.714321L413.138880 314.505527L413.228160 303.853455
L413.317440 317.123297L413.585280 295.024573L413.763840 289.200488
L413.897760 298.018184L414.120960 306.997056L414.210240 294.307557
L414.299520 304.273567L414.567360 329.673715L414.612000 295.860868
L414.969120 260.555846L415.192320 321.291717L415.326240 306.679173
L415.683360 258.660507L415.728000 295.138080L415.772640 318.065541
L416.085120 308.170898L416.442240 279.542938L416.486880 312.000445
L416.799360 308.140047L417.111840 312.199004L417.111840 312.199004
L417.468960 271.882057L417.513600 307.398851L417.826080 298.410463
L417.915360 294.777481L418.049280 296.755246L418.227840 308.031817
L418.272480 304.440699L418.406400 308.533686L418.584960 301.125047
L418.629600 299.949512L418.763520 292.308319L418.897440 300.836045
L419.076000 310.268091L419.165280 298.087165L419.477760 296.177023
L419.477760 296.177023L419.522400 295.079086L419.611680 256.852731
L419.834880 296.771927L419.879520 295.708101L419.968800 284.395738
L420.147360 295.617036L420.281280 326.295325L420.459840 295.372835
L420.549120 312.627779L420.772320 295.324612L420.861600 254.314909
L421.129440 313.585563L421.174080 291.279606L421.441920 299.507789
L421.665120 316.080956L421.709760 283.662236L422.022240 295.094811
L422.245440 318.712527L422.379360 305.021284L422.557920 284.249341
L422.691840 300.061728L422.825760 284.246692L422.870400 295.347997
L423.138240 283.670934L423.182880 318.241843L423.495360 314.900617
L423.718560 291.215589L423.852480 305.399451L423.941760 309.007250
L423.941760 309.007250L424.120320 285.037517L424.254240 307.208056
L424.566720 308.332385L424.611360 301.114817L424.656000 299.422956
L424.700640 301.003695L424.789920 296.718820L424.789920 296.718820
L424.968480 315.442863L425.102400 295.075860L425.236320 289.297797
L425.414880 295.111457L425.548800 310.623402L425.772000 99.555944
L425.861280 295.931820L425.905920 297.654290L426.129120 283.895919
L426.263040 288.487642L426.352320 306.316005L426.486240 329.817197
L426.664800 304.689750L426.709440 309.537124L427.021920 316.446543
L427.021920 316.446543L427.334400 283.120980L427.557600 260.850240
L427.646880 299.999520L427.736160 289.642810L427.825440 289.457142
L428.093280 315.600134L428.227200 287.599104L428.450400 302.973097
L428.584320 307.628041L428.584320 307.628041L428.807520 276.597331
L428.852160 328.278205L428.896800 250.481537L429.075360 307.198748
L429.343200 302.145143L429.432480 302.435412L429.611040 287.275254
L429.744960 299.343756L430.057440 311.287553L430.280640 290.450212
L430.414560 301.672961L430.548480 309.395428L430.860960 288.324588
L430.905600 294.655657L431.218080 308.353997L431.352000 309.033228
L431.530560 298.157449L431.619840 293.602775L431.753760 320.197536
L431.976960 310.517580L432.200160 312.766364L432.334080 302.459904
L432.512640 289.665043L432.646560 297.016773L432.780480 307.261889
L432.959040 317.726519L433.092960 292.281604L433.137600 307.553484
L433.360800 294.175250L433.494720 320.884347L433.628640 305.714926
L433.941120 312.295081L434.075040 273.955922L434.253600 306.775826
L434.298240 303.841475L434.476800 305.586616L434.566080 275.295986
L434.610720 331.257658L434.878560 319.490957L435.012480 293.904507
L435.191040 301.805038L435.369600 314.896124L435.458880 307.098743
L435.503520 295.327538L435.771360 306.545679L435.994560 284.546431
L436.083840 291.575094L436.307040 307.885179L436.351680 295.062013
L436.530240 306.760170L436.619520 260.861944L436.798080 295.441240
L436.887360 284.037062L437.110560 308.406113L437.423040 275.147090
L437.467680 318.596970L437.780160 311.050921L438.003360 249.332452
L438.181920 283.995590L438.494400 308.229696L438.583680 305.251880
L438.672960 247.801029L438.896160 297.822655L439.119360 310.354341
L439.208640 307.544256L439.476480 315.840349L439.521120 284.616253
L439.565760 309.718932L439.833600 306.922441L439.967520 329.699174
L440.146080 305.328372L440.190720 306.748178L440.324640 270.662481
L440.503200 307.130803L440.547840 306.003836L440.681760 245.864851
L440.860320 291.314799L441.038880 311.669729L441.172800 309.373068
L441.440640 285.590707L441.485280 300.328255L441.663840 323.700826
L441.753120 297.522029L441.842400 323.795785L442.065600 299.133896
L442.110240 309.787453L442.154880 234.106618L442.422720 288.083197
L442.779840 322.850235L443.092320 273.694879L443.136960 323.988849
L443.449440 303.534248L443.672640 311.649316L443.761920 301.855139
L443.895840 313.245608L443.895840 313.245608L444.074400 290.985500
L444.208320 297.248913L444.342240 301.503997L444.520800 316.206950
L444.654720 294.112201L444.788640 305.098260L444.833280 296.610451
L445.145760 309.361859L445.145760 309.361859L445.502880 276.856531
L445.681440 386.828513L445.860000 308.943901L446.083200 283.089335
L446.217120 258.831948L446.395680 300.812694L446.574240 307.172448
L446.752800 293.928515L446.797440 295.147250L446.886720 310.136901
L447.109920 299.761494L447.288480 289.910039L447.600960 318.903564
L447.645600 308.539884L447.824160 292.031366L447.958080 299.626157
L448.092000 306.844439L448.270560 254.541416L448.404480 306.415296
L448.538400 288.309830L448.538400 288.309830L448.672320 315.491040
L448.806240 295.181153L448.984800 342.522328L449.163360 317.933361
L449.520480 277.225678L449.565120 307.363807L449.788320 295.342353
L450.011520 308.243255L450.056160 249.593633L450.324000 297.841605
L450.636480 294.362554L450.636480 294.362554L450.725760 311.545716
L450.725760 311.545716L450.993600 300.530442L450.993600 300.530442
L451.082880 302.143841L451.350720 312.748842L451.395360 291.689142
L451.752480 310.161531L451.886400 320.921522L452.064960 295.476837
L452.154240 306.904792L452.198880 255.289720L452.466720 306.776748
L452.645280 283.301545L452.779200 302.407396L452.868480 310.161646
L453.002400 313.594721L453.180960 297.842930L453.359520 312.506784
L453.493440 312.122604L453.627360 289.054829L453.850560 298.681079
L453.984480 318.601256L454.118400 302.672955L454.296960 333.919826
L454.430880 302.135190L454.564800 318.381039L454.609440 310.774614
L454.698720 335.704769L454.921920 318.049217L455.100480 322.480904
L455.368320 296.955878L455.546880 317.185044L455.680800 301.731137
L455.993280 287.114331L456.127200 306.241298L456.171840 296.869628
L456.439680 311.734829L456.484320 296.873810L456.796800 319.618679
L456.930720 260.480413L457.109280 318.801139L457.555680 277.656872
L457.600320 318.329165L457.868160 284.977463L458.002080 306.664174
L458.091360 305.804114L458.180640 317.373846L458.403840 282.350707
L458.537760 317.984118L458.760960 300.235956L459.028800 311.442589
L459.073440 296.442708L459.207360 306.206231L459.252000 295.352951
L459.430560 255.760128L459.564480 291.121091L459.787680 308.237921
L459.966240 306.209411L460.055520 250.014205L460.278720 290.703917
L460.457280 327.611209L460.591200 296.813341L460.635840 299.902049
L460.725120 331.769019L460.903680 303.651464L461.037600 311.371615
L461.350080 274.148997L461.394720 306.332317L461.707200 301.973541
L461.930400 294.979150L462.064320 289.581327L462.242880 294.294931
L462.555360 311.638982L462.600000 301.303135L462.778560 248.371004
L462.957120 291.856090L463.135680 309.004404L463.180320 294.586145
L463.314240 322.848576L463.492800 295.179195L463.805280 313.362559
L463.849920 288.917891L464.117760 296.009050L464.251680 288.659359
L464.430240 290.608911L464.564160 304.552259L464.608800 266.631437
L464.876640 297.563547L464.965920 303.814644L464.965920 303.814644
L465.055200 304.248223L465.055200 304.248223L465.323040 293.664972
L465.323040 293.664972L465.456960 308.182038L465.635520 294.771997
L465.903360 310.272791L465.948000 295.814500L466.037280 306.802241
L466.081920 294.848951L466.215840 386.131645L466.349760 294.851946
L466.483680 316.090218L466.662240 303.367680L466.930080 273.946153
L466.974720 293.877873L467.331840 322.164922L467.555040 294.563946
L467.688960 298.877668L467.867520 295.370865L468.001440 291.848959
L468.180000 293.181350L468.358560 306.624960L468.403200 114.398945
L468.626400 298.844963L468.894240 306.215459L468.938880 301.036861
L468.983520 302.922006L469.251360 316.044668L469.296000 287.040925
L469.474560 318.927064L469.653120 306.872778L469.742400 299.735896
L469.787040 301.486245L469.876320 321.286188L470.054880 301.986789
L470.322720 303.933220L470.367360 300.957938L470.769120 311.218145
L470.992320 273.947155L471.081600 307.202976L471.170880 313.619858
L471.304800 282.268731L471.483360 306.929998L471.572640 290.734871
L471.661920 312.202656L471.929760 287.502440L472.108320 275.486872
L472.242240 299.442252L472.420800 311.054676L472.510080 298.010615
L472.733280 294.569338L472.733280 294.569338L472.911840 302.648221
L473.045760 295.920691L473.135040 304.235724L473.358240 259.206497
L473.402880 386.764854L473.670720 293.913539L473.938560 290.247471
L473.983200 306.289117L474.161760 313.505050L474.161760 313.505050
L474.206400 104.143749L474.474240 302.664902L474.742080 275.075320
L474.786720 281.119968L474.920640 386.000052L475.143840 318.120111
L475.367040 296.058516L475.500960 301.041734L475.724160 289.998605
L475.768800 318.667507L476.081280 312.527900L476.393760 287.616119
L476.438400 296.084218L476.706240 287.586374L476.706240 287.586374
L476.974080 204.530803L477.241920 318.315375L477.331200 292.830993
L477.509760 315.640765L477.643680 296.458019L477.732960 342.651663
L477.956160 295.581669L478.000800 294.516253L478.134720 261.598015
L478.313280 295.561740L478.536480 307.016709L478.625760 304.065665
L478.848960 311.884796L478.938240 295.320407L479.250720 312.041699
L479.518560 260.115068L479.607840 295.516524L479.786400 310.195711
L479.920320 307.553806L480.277440 285.072365L480.589920 332.232998
L480.634560 319.939764L480.679200 294.435901L480.991680 295.759112
L481.348800 377.565684L481.438080 341.041110L481.482720 282.498682
L481.795200 306.412808L482.107680 286.824960L482.286240 243.585873
L482.420160 306.050181L482.509440 295.050217L482.777280 306.343642
L482.821920 304.845949L482.955840 306.861454L482.955840 306.861454
L483.268320 311.510166L483.268320 311.510166L483.670080 287.984794
L484.071840 329.733930L484.295040 274.933521L484.473600 299.277032
L484.562880 293.007191L484.830720 311.820941L484.875360 279.777393
L485.143200 291.369128L485.187840 310.590444L485.455680 296.254794
L485.589600 283.068876L485.768160 300.550118L486.036000 272.813080
L486.080640 282.307265L486.303840 319.065362L486.393120 295.436609
L486.527040 278.301577L486.616320 304.417682L486.705600 313.378871
L486.884160 306.409985L487.062720 315.681765L487.196640 304.240838
L487.241280 300.650100L487.464480 315.230147L487.553760 309.695512
L487.687680 310.301798L487.866240 306.734792L487.910880 310.687534
L487.955520 280.348428L488.223360 309.789873L488.268000 304.272991
L488.401920 317.651846L488.580480 299.784465L488.803680 314.675136
L488.892960 304.233062L488.937600 309.083950L489.160800 317.804118
L489.294720 289.231235L489.473280 311.163241L489.517920 295.105617
L489.785760 305.546665L489.830400 296.599208L490.008960 324.878757
L490.187520 306.781263L490.500000 308.926760L490.500000 308.926760
L490.589280 294.786282L490.767840 307.053412L490.812480 312.203866
L490.857120 244.810714L491.124960 251.356481L491.214240 309.466610
L491.437440 308.174319L491.616000 309.947363L491.749920 300.913275
L491.883840 307.740223L492.107040 261.939525L492.151680 295.949756
L492.508800 322.713838L492.776640 284.205312L492.821280 301.678687
L493.133760 318.949644L493.178400 307.959391L493.446240 292.846349
L493.535520 310.467721L493.758720 307.123937L493.981920 307.279158
L494.026560 295.805111L494.249760 303.470047L494.294400 297.214883
L494.472960 293.141422L494.517600 296.244518L494.606880 290.776285
L494.651520 296.330170L494.919360 322.058131L494.964000 301.589533
L495.231840 310.037967L495.365760 310.647087L495.588960 290.939743
L495.722880 309.583227L495.946080 301.478481L495.990720 300.235427
L496.124640 315.830880L496.303200 298.036040L496.571040 288.790698
L496.704960 204.827524L496.704960 204.827524L496.794240 307.345352
L496.838880 295.464407L497.062080 253.699972L497.062080 253.699972
L497.196000 311.021165L497.240640 294.596951L497.463840 329.641747
L497.597760 301.969521L497.687040 272.506844L497.999520 260.718382
L497.999520 260.718382L498.267360 310.610465L498.356640 299.967414
L498.490560 310.321348L498.713760 290.309149L498.981600 319.554778
L499.115520 304.761727L499.428000 291.564242L499.472640 300.318175
L499.606560 318.632440L499.740480 300.270828L499.874400 305.469780
L500.008320 296.392873L500.365440 319.130173L500.588640 330.281626
L500.677920 297.242519L500.945760 313.815341L500.990400 286.595412
L501.258240 292.389201L501.526080 286.001891L501.570720 300.516468
L501.704640 295.588074L501.793920 289.567123L502.017120 306.306662
L502.329600 285.097306L502.463520 295.580125L502.686720 308.727613
L502.731360 296.173371L502.999200 313.651100L503.043840 293.434226
L503.267040 309.611601L503.356320 302.169658L503.490240 340.843150
L503.624160 296.004038L503.892000 294.591502L503.936640 301.096385
L504.070560 249.432618L504.249120 296.276728L504.472320 301.386344
L504.561600 295.826031L504.606240 297.435491L504.784800 310.739743
L504.874080 295.473946L505.097280 315.422761L505.186560 302.073339
L505.275840 304.371395L505.588320 316.482486L505.588320 316.482486
L505.945440 280.005085L506.034720 311.412545L506.257920 295.765321
L506.525760 282.838176L506.570400 316.030337L506.882880 305.110979
L507.106080 318.391695L507.150720 295.783834L507.418560 307.121725
L507.463200 300.032041L507.641760 281.113137L507.686400 295.744078
L507.820320 306.618670L508.088160 307.522414L508.132800 295.158390
L508.266720 313.976483L508.445280 306.839416L508.713120 317.069718
L508.757760 301.094715L508.891680 289.784644L509.070240 300.565924
L509.114880 302.203377L509.159520 301.072458L509.338080 253.982811
L509.427360 297.681051L509.561280 286.225770L509.650560 296.020270
L509.784480 297.314692L509.784480 297.314692L509.918400 290.270120
L509.963040 297.226840L510.096960 307.052467L510.275520 298.742181
L510.543360 321.928716L510.900480 89.959092L511.034400 331.143252
L511.257600 293.770990L511.391520 308.237864L511.525440 296.147197
L511.704000 312.600096L511.793280 287.873948L512.016480 321.460681
L512.150400 319.783450L512.239680 286.576785L512.507520 301.814657
L512.641440 309.168945L512.641440 309.168945L512.864640 318.203009
L512.953920 307.092165L513.177120 316.643224L513.266400 296.272236
L513.400320 254.738304L513.578880 313.198214L513.802080 287.805853
L513.891360 306.855775L514.114560 283.505034L514.203840 306.407416
L514.605600 295.071402L514.739520 283.962447L514.828800 311.735693
L514.918080 331.401623L515.141280 317.205827L515.364480 295.167364
L515.453760 302.592084L515.766240 286.738076L515.989440 284.019921
L516.034080 304.792001L516.168000 312.869491L516.346560 305.447662
L516.748320 277.348044L517.105440 307.827613L517.373280 247.674528
L517.462560 294.909604L517.775040 376.926394L517.819680 344.650510
L518.087520 261.686776L518.132160 302.264329L518.355360 287.218115
L518.355360 287.218115"/>
</g>
<g id="matplotlib.axis1">
<g id="xtick1">
<g id="line2d2">
<path style="fill: none; stroke: #000000; stroke-width: 0.500000; stroke-linejoin: round; stroke-linecap: butt; stroke-dasharray: 1.000000,3.000000; stroke-dashoffset: 0.000000; opacity: 1.000000" clip-path="url(#p50431ccdcb28178602d99d9270004dde)" d="M72.000000 388.800000L72.000000 43.200000"/>
</g>
<g id="line2d3">
<defs><path id="m30e32995789d870ad79a2e54c91cf9c6" d="M0.000000 0.000000L0.000000 -4.000000"/></defs>
<g ><use style="fill: none; stroke: #000000; stroke-width: 0.500000; stroke-linejoin: round; stroke-linecap: butt;  opacity: 1.000000" xlink:href="#m30e32995789d870ad79a2e54c91cf9c6" x="72.000000" y="388.800000"/>
</g></g>
<g id="line2d4">
<defs><path id="m9281cae24120827b11d5ea8a7ad3e96b" d="M0.000000 0.000000L0.000000 4.000000"/></defs>
<g ><use style="fill: none; stroke: #000000; stroke-width: 0.500000; stroke-linejoin: round; stroke-linecap: butt;  opacity: 1.000000" xlink:href="#m9281cae24120827b11d5ea8a7ad3e96b" x="72.000000" y="43.200000"/>
</g></g>
<g id="text1">
<defs>
<path id="c_7a2040fe3b94fcd41d0a72c84e93b115" d="M31.781250 -66.406250q-7.609375 0.000000 -11.453125 7.500000q-3.828125 7.484375 -3.828125 22.531250q0.000000 14.984375 3.828125 22.484375q3.843750 7.500000 11.453125 7.500000q7.671875 0.000000 11.500000 -7.500000q3.843750 -7.500000 3.843750 -22.484375q0.000000 -15.046875 -3.843750 -22.531250q-3.828125 -7.500000 -11.500000 -7.500000M31.781250 -74.218750q12.265625 0.000000 18.734375 9.703125q6.468750 9.687500 6.468750 28.140625q0.000000 18.406250 -6.468750 28.109375q-6.468750 9.687500 -18.734375 9.687500q-12.250000 0.000000 -18.718750 -9.687500q-6.468750 -9.703125 -6.468750 -28.109375q0.000000 -18.453125 6.468750 -28.140625q6.468750 -9.703125 18.718750 -9.703125"/>
</defs>
<g style="fill: #000000; opacity: 1.000000" transform="translate(68.976562,401.706250)scale(0.120000)">
<use xlink:href="#c_7a2040fe3b94fcd41d0a72c84e93b115"/>
</g>
</g>
</g>
<g id="xtick2">
<g id="line2d5">
<path style="fill: none; stroke: #000000; stroke-width: 0.500000; stroke-linejoin: round; stroke-linecap: butt; stroke-dasharray: 1.000000,3.000000; stroke-dashoffset: 0.000000; opacity: 1.000000" clip-path="url(#p50431ccdcb28178602d99d9270004dde)" d="M161.280000 388.800000L161.280000 43.200000"/>
</g>
<g id="line2d6">
<g ><use style="fill: none; stroke: #000000; stroke-width: 0.500000; stroke-linejoin: round; stroke-linecap: butt;  opacity: 1.000000" xlink:href="#m30e32995789d870ad79a2e54c91cf9c6" x="161.280000" y="388.800000"/>
</g></g>
<g id="line2d7">
<g ><use style="fill: none; stroke: #000000; stroke-width: 0.500000; stroke-linejoin: round; stroke-linecap: butt;  opacity: 1.000000" xlink:href="#m9281cae24120827b11d5ea8a7ad3e96b" x="161.280000" y="43.200000"/>
</g></g>
<g id="text2">
<defs>
<path id="c_ed3f3ed3ebfbd18bcb9c012009a68ad1" d="M19.187500 -8.296875l34.421875 0.000000l0.000000 8.296875l-46.281250 0.000000l0.000000 -8.296875q5.609375 -5.812500 15.296875 -15.593750q9.703125 -9.796875 12.187500 -12.640625q4.734375 -5.312500 6.609375 -9.000000q1.890625 -3.687500 1.890625 -7.250000q0.000000 -5.812500 -4.078125 -9.468750q-4.078125 -3.671875 -10.625000 -3.671875q-4.640625 0.000000 -9.796875 1.609375q-5.140625 1.609375 -11.000000 4.890625l0.000000 -9.968750q5.953125 -2.390625 11.125000 -3.609375q5.187500 -1.218750 9.484375 -1.218750q11.328125 0.000000 18.062500 5.671875q6.734375 5.656250 6.734375 15.125000q0.000000 4.500000 -1.687500 8.531250q-1.671875 4.015625 -6.125000 9.484375q-1.218750 1.421875 -7.765625 8.187500q-6.531250 6.765625 -18.453125 18.921875"/>
</defs>
<g style="fill: #000000; opacity: 1.000000" transform="translate(146.834688,401.706250)scale(0.120000)">
<use xlink:href="#c_ed3f3ed3ebfbd18bcb9c012009a68ad1"/>
<use xlink:href="#c_7a2040fe3b94fcd41d0a72c84e93b115" x="63.623047"/>
<use xlink:href="#c_7a2040fe3b94fcd41d0a72c84e93b115" x="127.246094"/>
<use xlink:href="#c_7a2040fe3b94fcd41d0a72c84e93b115" x="190.869141"/>
</g>
</g>
</g>
<g id="xtick3">
<g id="line2d8">
<path style="fill: none; stroke: #000000; stroke-width: 0.500000; stroke-linejoin: round; stroke-linecap: butt; stroke-dasharray: 1.000000,3.000000; stroke-dashoffset: 0.000000; opacity: 1.000000" clip-path="url(#p50431ccdcb28178602d99d9270004dde)" d="M250.560000 388.800000L250.560000 43.200000"/>
</g>
<g id="line2d9">
<g ><use style="fill: none; stroke: #000000; stroke-width: 0.500000; stroke-linejoin: round; stroke-linecap: butt;  opacity: 1.000000" xlink:href="#m30e32995789d870ad79a2e54c91cf9c6" x="250.560000" y="388.800000"/>
</g></g>
<g id="line2d10">
<g ><use style="fill: none; stroke: #000000; stroke-width: 0.500000; stroke-linejoin: round; stroke-linecap: butt;  opacity: 1.000000" xlink:href="#m9281cae24120827b11d5ea8a7ad3e96b" x="250.560000" y="43.200000"/>
</g></g>
<g id="text3">
<defs>
<path id="c_a0416418d96557a09b8c1332d34883ba" d="M37.796875 -64.312500l-24.906250 38.921875l24.906250 0.000000zM35.203125 -72.906250l12.406250 0.000000l0.000000 47.515625l10.406250 0.000000l0.000000 8.203125l-10.406250 0.000000l0.000000 17.187500l-9.812500 0.000000l0.000000 -17.187500l-32.906250 0.000000l0.000000 -9.515625z"/>
</defs>
<g style="fill: #000000; opacity: 1.000000" transform="translate(235.974063,401.706250)scale(0.120000)">
<use xlink:href="#c_a0416418d96557a09b8c1332d34883ba"/>
<use xlink:href="#c_7a2040fe3b94fcd41d0a72c84e93b115" x="63.623047"/>
<use xlink:href="#c_7a2040fe3b94fcd41d0a72c84e93b115" x="127.246094"/>
<use xlink:href="#c_7a2040fe3b94fcd41d0a72c84e93b115" x="190.869141"/>
</g>
</g>
</g>
<g id="xtick4">
<g id="line2d11">
<path style="fill: none; stroke: #000000; stroke-width: 0.500000; stroke-linejoin: round; stroke-linecap: butt; stroke-dasharray: 1.000000,3.000000; stroke-dashoffset: 0.000000; opacity: 1.000000" clip-path="url(#p50431ccdcb28178602d99d9270004dde)" d="M339.840000 388.800000L339.840000 43.200000"/>
</g>
<g id="line2d12">
<g ><use style="fill: none; stroke: #000000; stroke-width: 0.500000; stroke-linejoin: round; stroke-linecap: butt;  opacity: 1.000000" xlink:href="#m30e32995789d870ad79a2e54c91cf9c6" x="339.840000" y="388.800000"/>
</g></g>
<g id="line2d13">
<g ><use style="fill: none; stroke: #000000; stroke-width: 0.500000; stroke-linejoin: round; stroke-linecap: butt;  opacity: 1.000000" xlink:href="#m9281cae24120827b11d5ea8a7ad3e96b" x="339.840000" y="43.200000"/>
</g></g>
<g id="text4">
<defs>
<path id="c_cc8d6d580d1b10c8632f7a42cd53db8a" d="M33.015625 -40.375000q-6.640625 0.000000 -10.531250 4.546875q-3.875000 4.531250 -3.875000 12.437500q0.000000 7.859375 3.875000 12.437500q3.890625 4.562500 10.531250 4.562500q6.640625 0.000000 10.515625 -4.562500q3.875000 -4.578125 3.875000 -12.437500q0.000000 -7.906250 -3.875000 -12.437500q-3.875000 -4.546875 -10.515625 -4.546875M52.593750 -71.296875l0.000000 8.984375q-3.718750 -1.750000 -7.500000 -2.671875q-3.781250 -0.937500 -7.500000 -0.937500q-9.765625 0.000000 -14.921875 6.593750q-5.140625 6.593750 -5.875000 19.921875q2.875000 -4.250000 7.218750 -6.515625q4.359375 -2.265625 9.578125 -2.265625q10.984375 0.000000 17.359375 6.671875q6.375000 6.656250 6.375000 18.125000q0.000000 11.234375 -6.640625 18.031250q-6.640625 6.781250 -17.671875 6.781250q-12.656250 0.000000 -19.343750 -9.687500q-6.687500 -9.703125 -6.687500 -28.109375q0.000000 -17.281250 8.203125 -27.562500q8.203125 -10.281250 22.015625 -10.281250q3.718750 0.000000 7.500000 0.734375q3.781250 0.734375 7.890625 2.187500"/>
</defs>
<g style="fill: #000000; opacity: 1.000000" transform="translate(325.379062,401.706250)scale(0.120000)">
<use xlink:href="#c_cc8d6d580d1b10c8632f7a42cd53db8a"/>
<use xlink:href="#c_7a2040fe3b94fcd41d0a72c84e93b115" x="63.623047"/>
<use xlink:href="#c_7a2040fe3b94fcd41d0a72c84e93b115" x="127.246094"/>
<use xlink:href="#c_7a2040fe3b94fcd41d0a72c84e93b115" x="190.869141"/>
</g>
</g>
</g>
<g id="xtick5">
<g id="line2d14">
<path style="fill: none; stroke: #000000; stroke-width: 0.500000; stroke-linejoin: round; stroke-linecap: butt; stroke-dasharray: 1.000000,3.000000; stroke-dashoffset: 0.000000; opacity: 1.000000" clip-path="url(#p50431ccdcb28178602d99d9270004dde)" d="M429.120000 388.800000L429.120000 43.200000"/>
</g>
<g id="line2d15">
<g ><use style="fill: none; stroke: #000000; stroke-width: 0.500000; stroke-linejoin: round; stroke-linecap: butt;  opacity: 1.000000" xlink:href="#m30e32995789d870ad79a2e54c91cf9c6" x="429.120000" y="388.800000"/>
</g></g>
<g id="line2d16">
<g ><use style="fill: none; stroke: #000000; stroke-width: 0.500000; stroke-linejoin: round; stroke-linecap: butt;  opacity: 1.000000" xlink:href="#m9281cae24120827b11d5ea8a7ad3e96b" x="429.120000" y="43.200000"/>
</g></g>
<g id="text5">
<defs>
<path id="c_bef35738d52871942e50b9de9b122bab" d="M31.781250 -34.625000q-7.031250 0.000000 -11.062500 3.765625q-4.015625 3.765625 -4.015625 10.343750q0.000000 6.593750 4.015625 10.359375q4.031250 3.765625 11.062500 3.765625q7.031250 0.000000 11.078125 -3.781250q4.062500 -3.796875 4.062500 -10.343750q0.000000 -6.578125 -4.031250 -10.343750q-4.015625 -3.765625 -11.109375 -3.765625M21.921875 -38.812500q-6.343750 -1.562500 -9.890625 -5.906250q-3.531250 -4.359375 -3.531250 -10.609375q0.000000 -8.734375 6.218750 -13.812500q6.234375 -5.078125 17.062500 -5.078125q10.890625 0.000000 17.093750 5.078125q6.203125 5.078125 6.203125 13.812500q0.000000 6.250000 -3.546875 10.609375q-3.531250 4.343750 -9.828125 5.906250q7.125000 1.656250 11.093750 6.500000q3.984375 4.828125 3.984375 11.796875q0.000000 10.609375 -6.468750 16.281250q-6.468750 5.656250 -18.531250 5.656250q-12.046875 0.000000 -18.531250 -5.656250q-6.468750 -5.671875 -6.468750 -16.281250q0.000000 -6.968750 4.000000 -11.796875q4.015625 -4.843750 11.140625 -6.500000M18.312500 -54.390625q0.000000 5.656250 3.531250 8.828125q3.546875 3.171875 9.937500 3.171875q6.359375 0.000000 9.937500 -3.171875q3.593750 -3.171875 3.593750 -8.828125q0.000000 -5.671875 -3.593750 -8.843750q-3.578125 -3.171875 -9.937500 -3.171875q-6.390625 0.000000 -9.937500 3.171875q-3.531250 3.171875 -3.531250 8.843750"/>
</defs>
<g style="fill: #000000; opacity: 1.000000" transform="translate(414.643438,401.706250)scale(0.120000)">
<use xlink:href="#c_bef35738d52871942e50b9de9b122bab"/>
<use xlink:href="#c_7a2040fe3b94fcd41d0a72c84e93b115" x="63.623047"/>
<use xlink:href="#c_7a2040fe3b94fcd41d0a72c84e93b115" x="127.246094"/>
<use xlink:href="#c_7a2040fe3b94fcd41d0a72c84e93b115" x="190.869141"/>
</g>
</g>
</g>
<g id="xtick6">
<g id="line2d17">
<path style="fill: none; stroke: #000000; stroke-width: 0.500000; stroke-linejoin: round; stroke-linecap: butt; stroke-dasharray: 1.000000,3.000000; stroke-dashoffset: 0.000000; opacity: 1.000000" clip-path="url(#p50431ccdcb28178602d99d9270004dde)" d="M518.400000 388.800000L518.400000 43.200000"/>
</g>
<g id="line2d18">
<g ><use style="fill: none; stroke: #000000; stroke-width: 0.500000; stroke-linejoin: round; stroke-linecap: butt;  opacity: 1.000000" xlink:href="#m30e32995789d870ad79a2e54c91cf9c6" x="518.400000" y="388.800000"/>
</g></g>
<g id="line2d19">
<g ><use style="fill: none; stroke: #000000; stroke-width: 0.500000; stroke-linejoin: round; stroke-linecap: butt;  opacity: 1.000000" xlink:href="#m9281cae24120827b11d5ea8a7ad3e96b" x="518.400000" y="43.200000"/>
</g></g>
<g id="text6">
<defs>
<path id="c_42baa63129a918535c52adb20d687ea7" d="M12.406250 -8.296875l16.109375 0.000000l0.000000 -55.625000l-17.531250 3.515625l0.000000 -8.984375l17.437500 -3.515625l9.859375 0.000000l0.000000 64.609375l16.109375 0.000000l0.000000 8.296875l-41.984375 0.000000z"/>
</defs>
<g style="fill: #000000; opacity: 1.000000" transform="translate(500.353125,401.706250)scale(0.120000)">
<use xlink:href="#c_42baa63129a918535c52adb20d687ea7"/>
<use xlink:href="#c_7a2040fe3b94fcd41d0a72c84e93b115" x="63.623047"/>
<use xlink:href="#c_7a2040fe3b94fcd41d0a72c84e93b115" x="127.246094"/>
<use xlink:href="#c_7a2040fe3b94fcd41d0a72c84e93b115" x="190.869141"/>
<use xlink:href="#c_7a2040fe3b94fcd41d0a72c84e93b115" x="254.492188"/>
</g>
</g>
</g>
</g>
<g id="matplotlib.axis2">
<g id="ytick1">
<g id="line2d20">
<path style="fill: none; stroke: #000000; stroke-width: 0.500000; stroke-linejoin: round; stroke-linecap: butt; stroke-dasharray: 1.000000,3.000000; stroke-dashoffset: 0.000000; opacity: 1.000000" clip-path="url(#p50431ccdcb28178602d99d9270004dde)" d="M72.000000 388.800000L518.400000 388.800000"/>
</g>
<g id="line2d21">
<defs><path id="m3400efa6b1638b3fea9e19e898273957" d="M0.000000 0.000000L4.000000 0.000000"/></defs>
<g ><use style="fill: none; stroke: #000000; stroke-width: 0.500000; stroke-linejoin: round; stroke-linecap: butt;  opacity: 1.000000" xlink:href="#m3400efa6b1638b3fea9e19e898273957" x="72.000000" y="388.800000"/>
</g></g>
<g id="line2d22">
<defs><path id="m20b58b2501143cb5e0a5e8f1ef6f1643" d="M0.000000 0.000000L-4.000000 0.000000"/></defs>
<g ><use style="fill: none; stroke: #000000; stroke-width: 0.500000; stroke-linejoin: round; stroke-linecap: butt;  opacity: 1.000000" xlink:href="#m20b58b2501143cb5e0a5e8f1ef6f1643" x="518.400000" y="388.800000"/>
</g></g>
<g id="text7">
<defs>
<path id="c_ed3e21196fb739f392806f09ca0594ef" d="M10.687500 -12.406250l10.312500 0.000000l0.000000 12.406250l-10.312500 0.000000z"/>
<path id="c_1260a2df50f305f3db244e29828f968e" d="M10.796875 -72.906250l38.718750 0.000000l0.000000 8.312500l-29.687500 0.000000l0.000000 17.859375q2.140625 -0.734375 4.281250 -1.093750q2.156250 -0.359375 4.312500 -0.359375q12.203125 0.000000 19.328125 6.687500q7.140625 6.687500 7.140625 18.109375q0.000000 11.765625 -7.328125 18.296875q-7.328125 6.515625 -20.656250 6.515625q-4.593750 0.000000 -9.359375 -0.781250q-4.750000 -0.781250 -9.828125 -2.343750l0.000000 -9.921875q4.390625 2.390625 9.078125 3.562500q4.687500 1.171875 9.906250 1.171875q8.453125 0.000000 13.375000 -4.437500q4.937500 -4.437500 4.937500 -12.062500q0.000000 -7.609375 -4.937500 -12.046875q-4.921875 -4.453125 -13.375000 -4.453125q-3.953125 0.000000 -7.890625 0.875000q-3.921875 0.875000 -8.015625 2.734375z"/>
</defs>
<g style="fill: #000000; opacity: 1.000000" transform="translate(35.468750,393.167188)scale(0.120000)">
<use xlink:href="#c_7a2040fe3b94fcd41d0a72c84e93b115"/>
<use xlink:href="#c_ed3e21196fb739f392806f09ca0594ef" x="63.623047"/>
<use xlink:href="#c_7a2040fe3b94fcd41d0a72c84e93b115" x="95.410156"/>
<use xlink:href="#c_7a2040fe3b94fcd41d0a72c84e93b115" x="159.033203"/>
<use xlink:href="#c_1260a2df50f305f3db244e29828f968e" x="222.656250"/>
</g>
</g>
</g>
<g id="ytick2">
<g id="line2d23">
<path style="fill: none; stroke: #000000; stroke-width: 0.500000; stroke-linejoin: round; stroke-linecap: butt; stroke-dasharray: 1.000000,3.000000; stroke-dashoffset: 0.000000; opacity: 1.000000" clip-path="url(#p50431ccdcb28178602d99d9270004dde)" d="M72.000000 331.200000L518.400000 331.200000"/>
</g>
<g id="line2d24">
<g ><use style="fill: none; stroke: #000000; stroke-width: 0.500000; stroke-linejoin: round; stroke-linecap: butt;  opacity: 1.000000" xlink:href="#m3400efa6b1638b3fea9e19e898273957" x="72.000000" y="331.200000"/>
</g></g>
<g id="line2d25">
<g ><use style="fill: none; stroke: #000000; stroke-width: 0.500000; stroke-linejoin: round; stroke-linecap: butt;  opacity: 1.000000" xlink:href="#m20b58b2501143cb5e0a5e8f1ef6f1643" x="518.400000" y="331.200000"/>
</g></g>
<g id="text8">
<g style="fill: #000000; opacity: 1.000000" transform="translate(35.218750,335.567187)scale(0.120000)">
<use xlink:href="#c_7a2040fe3b94fcd41d0a72c84e93b115"/>
<use xlink:href="#c_ed3e21196fb739f392806f09ca0594ef" x="63.623047"/>
<use xlink:href="#c_7a2040fe3b94fcd41d0a72c84e93b115" x="95.410156"/>
<use xlink:href="#c_42baa63129a918535c52adb20d687ea7" x="159.033203"/>
<use xlink:href="#c_7a2040fe3b94fcd41d0a72c84e93b115" x="222.656250"/>
</g>
</g>
</g>
<g id="ytick3">
<g id="line2d26">
<path style="fill: none; stroke: #000000; stroke-width: 0.500000; stroke-linejoin: round; stroke-linecap: butt; stroke-dasharray: 1.000000,3.000000; stroke-dashoffset: 0.000000; opacity: 1.000000" clip-path="url(#p50431ccdcb28178602d99d9270004dde)" d="M72.000000 273.600000L518.400000 273.600000"/>
</g>
<g id="line2d27">
<g ><use style="fill: none; stroke: #000000; stroke-width: 0.500000; stroke-linejoin: round; stroke-linecap: butt;  opacity: 1.000000" xlink:href="#m3400efa6b1638b3fea9e19e898273957" x="72.000000" y="273.600000"/>
</g></g>
<g id="line2d28">
<g ><use style="fill: none; stroke: #000000; stroke-width: 0.500000; stroke-linejoin: round; stroke-linecap: butt;  opacity: 1.000000" xlink:href="#m20b58b2501143cb5e0a5e8f1ef6f1643" x="518.400000" y="273.600000"/>
</g></g>
<g id="text9">
<g style="fill: #000000; opacity: 1.000000" transform="translate(35.468750,277.967188)scale(0.120000)">
<use xlink:href="#c_7a2040fe3b94fcd41d0a72c84e93b115"/>
<use xlink:href="#c_ed3e21196fb739f392806f09ca0594ef" x="63.623047"/>
<use xlink:href="#c_7a2040fe3b94fcd41d0a72c84e93b115" x="95.410156"/>
<use xlink:href="#c_42baa63129a918535c52adb20d687ea7" x="159.033203"/>
<use xlink:href="#c_1260a2df50f305f3db244e29828f968e" x="222.656250"/>
</g>
</g>
</g>
<g id="ytick4">
<g id="line2d29">
<path style="fill: none; stroke: #000000; stroke-width: 0.500000; stroke-linejoin: round; stroke-linecap: butt; stroke-dasharray: 1.000000,3.000000; stroke-dashoffset: 0.000000; opacity: 1.000000" clip-path="url(#p50431ccdcb28178602d99d9270004dde)" d="M72.000000 216.000000L518.400000 216.000000"/>
</g>
<g id="line2d30">
<g ><use style="fill: none; stroke: #000000; stroke-width: 0.500000; stroke-linejoin: round; stroke-linecap: butt;  opacity: 1.000000" xlink:href="#m3400efa6b1638b3fea9e19e898273957" x="72.000000" y="216.000000"/>
</g></g>
<g id="line2d31">
<g ><use style="fill: none; stroke: #000000; stroke-width: 0.500000; stroke-linejoin: round; stroke-linecap: butt;  opacity: 1.000000" xlink:href="#m20b58b2501143cb5e0a5e8f1ef6f1643" x="518.400000" y="216.000000"/>
</g></g>
<g id="text10">
<g style="fill: #000000; opacity: 1.000000" transform="translate(35.218750,220.367188)scale(0.120000)">
<use xlink:href="#c_7a2040fe3b94fcd41d0a72c84e93b115"/>
<use xlink:href="#c_ed3e21196fb739f392806f09ca0594ef" x="63.623047"/>
<use xlink:href="#c_7a2040fe3b94fcd41d0a72c84e93b115" x="95.410156"/>
<use xlink:href="#c_ed3f3ed3ebfbd18bcb9c012009a68ad1" x="159.033203"/>
<use xlink:href="#c_7a2040fe3b94fcd41d0a72c84e93b115" x="222.656250"/>
</g>
</g>
</g>
<g id="ytick5">
<g id="line2d32">
<path style="fill: none; stroke: #000000; stroke-width: 0.500000; stroke-linejoin: round; stroke-linecap: butt; stroke-dasharray: 1.000000,3.000000; stroke-dashoffset: 0.000000; opacity: 1.000000" clip-path="url(#p50431ccdcb28178602d99d9270004dde)" d="M72.000000 158.400000L518.400000 158.400000"/>
</g>
<g id="line2d33">
<g ><use style="fill: none; stroke: #000000; stroke-width: 0.500000; stroke-linejoin: round; stroke-linecap: butt;  opacity: 1.000000" xlink:href="#m3400efa6b1638b3fea9e19e898273957" x="72.000000" y="158.400000"/>
</g></g>
<g id="line2d34">
<g ><use style="fill: none; stroke: #000000; stroke-width: 0.500000; stroke-linejoin: round; stroke-linecap: butt;  opacity: 1.000000" xlink:href="#m20b58b2501143cb5e0a5e8f1ef6f1643" x="518.400000" y="158.400000"/>
</g></g>
<g id="text11">
<g style="fill: #000000; opacity: 1.000000" transform="translate(35.468750,162.767187)scale(0.120000)">
<use xlink:href="#c_7a2040fe3b94fcd41d0a72c84e93b115"/>
<use xlink:href="#c_ed3e21196fb739f392806f09ca0594ef" x="63.623047"/>
<use xlink:href="#c_7a2040fe3b94fcd41d0a72c84e93b115" x="95.410156"/>
<use xlink:href="#c_ed3f3ed3ebfbd18bcb9c012009a68ad1" x="159.033203"/>
<use xlink:href="#c_1260a2df50f305f3db244e29828f968e" x="222.656250"/>
</g>
</g>
</g>
<g id="ytick6">
<g id="line2d35">
<path style="fill: none; stroke: #000000; stroke-width: 0.500000; stroke-linejoin: round; stroke-linecap: butt; stroke-dasharray: 1.000000,3.000000; stroke-dashoffset: 0.000000; opacity: 1.000000" clip-path="url(#p50431ccdcb28178602d99d9270004dde)" d="M72.000000 100.800000L518.400000 100.800000"/>
</g>
<g id="line2d36">
<g ><use style="fill: none; stroke: #000000; stroke-width: 0.500000; stroke-linejoin: round; stroke-linecap: butt;  opacity: 1.000000" xlink:href="#m3400efa6b1638b3fea9e19e898273957" x="72.000000" y="100.800000"/>
</g></g>
<g id="line2d37">
<g ><use style="fill: none; stroke: #000000; stroke-width: 0.500000; stroke-linejoin: round; stroke-linecap: butt;  opacity: 1.000000" xlink:href="#m20b58b2501143cb5e0a5e8f1ef6f1643" x="518.400000" y="100.800000"/>
</g></g>
<g id="text12">
<defs>
<path id="c_3dcfa38a02242cb63ec6726c6e70be7a" d="M40.578125 -39.312500q7.078125 1.515625 11.046875 6.312500q3.984375 4.781250 3.984375 11.812500q0.000000 10.781250 -7.421875 16.703125q-7.421875 5.906250 -21.093750 5.906250q-4.578125 0.000000 -9.437500 -0.906250q-4.859375 -0.906250 -10.031250 -2.718750l0.000000 -9.515625q4.093750 2.390625 8.968750 3.609375q4.890625 1.218750 10.218750 1.218750q9.265625 0.000000 14.125000 -3.656250q4.859375 -3.656250 4.859375 -10.640625q0.000000 -6.453125 -4.515625 -10.078125q-4.515625 -3.640625 -12.562500 -3.640625l-8.500000 0.000000l0.000000 -8.109375l8.890625 0.000000q7.265625 0.000000 11.125000 -2.906250q3.859375 -2.906250 3.859375 -8.375000q0.000000 -5.609375 -3.984375 -8.609375q-3.968750 -3.015625 -11.390625 -3.015625q-4.062500 0.000000 -8.703125 0.890625q-4.640625 0.875000 -10.203125 2.718750l0.000000 -8.781250q5.625000 -1.562500 10.531250 -2.343750q4.906250 -0.781250 9.250000 -0.781250q11.234375 0.000000 17.765625 5.109375q6.546875 5.093750 6.546875 13.781250q0.000000 6.062500 -3.468750 10.234375q-3.468750 4.171875 -9.859375 5.781250"/>
</defs>
<g style="fill: #000000; opacity: 1.000000" transform="translate(35.218750,105.167187)scale(0.120000)">
<use xlink:href="#c_7a2040fe3b94fcd41d0a72c84e93b115"/>
<use xlink:href="#c_ed3e21196fb739f392806f09ca0594ef" x="63.623047"/>
<use xlink:href="#c_7a2040fe3b94fcd41d0a72c84e93b115" x="95.410156"/>
<use xlink:href="#c_3dcfa38a02242cb63ec6726c6e70be7a" x="159.033203"/>
<use xlink:href="#c_7a2040fe3b94fcd41d0a72c84e93b115" x="222.656250"/>
</g>
</g>
</g>
<g id="ytick7">
<g id="line2d38">
<path style="fill: none; stroke: #000000; stroke-width: 0.500000; stroke-linejoin: round; stroke-linecap: butt; stroke-dasharray: 1.000000,3.000000; stroke-dashoffset: 0.000000; opacity: 1.000000" clip-path="url(#p50431ccdcb28178602d99d9270004dde)" d="M72.000000 43.200000L518.400000 43.200000"/>
</g>
<g id="line2d39">
<g ><use style="fill: none; stroke: #000000; stroke-width: 0.500000; stroke-linejoin: round; stroke-linecap: butt;  opacity: 1.000000" xlink:href="#m3400efa6b1638b3fea9e19e898273957" x="72.000000" y="43.200000"/>
</g></g>
<g id="line2d40">
<g ><use style="fill: none; stroke: #000000; stroke-width: 0.500000; stroke-linejoin: round; stroke-linecap: butt;  opacity: 1.000000" xlink:href="#m20b58b2501143cb5e0a5e8f1ef6f1643" x="518.400000" y="43.200000"/>
</g></g>
<g id="text13">
<g style="fill: #000000; opacity: 1.000000" transform="translate(35.468750,47.567187)scale(0.120000)">
<use xlink:href="#c_7a2040fe3b94fcd41d0a72c84e93b115"/>
<use xlink:href="#c_ed3e21196fb739f392806f09ca0594ef" x="63.623047"/>
<use xlink:href="#c_7a2040fe3b94fcd41d0a72c84e93b115" x="95.410156"/>
<use xlink:href="#c_3dcfa38a02242cb63ec6726c6e70be7a" x="159.033203"/>
<use xlink:href="#c_1260a2df50f305f3db244e29828f968e" x="222.656250"/>
</g>
</g>
</g>
</g>
<g id="patch3">
<path style="fill: none; stroke: #000000; stroke-width: 1.000000; stroke-linejoin: round; stroke-linecap: square;  opacity: 1.000000"  d="M72.000000 43.200000L518.400000 43.200000"/>
</g>
<g id="patch4">
<path style="fill: none; stroke: #000000; stroke-width: 1.000000; stroke-linejoin: round; stroke-linecap: square;  opacity: 1.000000"  d="M518.400000 388.800000L518.400000 43.200000"/>
</g>
<g id="patch5">
<path style="fill: none; stroke: #000000; stroke-width: 1.000000; stroke-linejoin: round; stroke-linecap: square;  opacity: 1.000000"  d="M72.000000 388.800000L518.400000 388.800000"/>
</g>
<g id="patch6">
<path style="fill: none; stroke: #000000; stroke-width: 1.000000; stroke-linejoin: round; stroke-linecap: square;  opacity: 1.000000"  d="M72.000000 388.800000L72.000000 43.200000"/>
</g>
</g>
</g>
</svg>
