<?xml version="1.0" standalone="no"?>
<!DOCTYPE svg PUBLIC "-//W3C//DTD SVG 1.1//EN"
  "http://www.w3.org/Graphics/SVG/1.1/DTD/svg11.dtd">
<!-- Created with matplotlib (http://matplotlib.sourceforge.net/) -->
<svg width="576pt" height="432pt" viewBox="0 0 576 432"
   xmlns="http://www.w3.org/2000/svg"
   xmlns:xlink="http://www.w3.org/1999/xlink"
   version="1.1"
   id="svg1">
<g id="figure1">
<g id="patch1">
<path style="fill: #ffffff; stroke: #ffffff; stroke-width: 1.000000; stroke-linejoin: round; stroke-linecap: square;  opacity: 1.000000"  d="M0.000000 432.000000L576.000000 432.000000L576.000000 0.000000
L0.000000 0.000000L0.000000 432.000000"/>
</g>
<g id="axes1">
<g id="patch2">
<path style="fill: #ffffff; opacity: 1.000000"  d="M72.000000 388.800000L518.400000 388.800000L518.400000 43.200000
L72.000000 43.200000L72.000000 388.800000"/>
</g>
<g id="line2d1">
<defs>
  <clipPath id="p50431ccdcb28178602d99d9270004dde">
<rect x="72.000000" y="43.200000" width="446.400000" height="345.600000"/>
  </clipPath>
</defs><path style="fill: none; stroke: #ff0000; stroke-width: 1.000000; stroke-linejoin: round; stroke-linecap: square;  opacity: 1.000000" clip-path="url(#p50431ccdcb28178602d99d9270004dde)" d="M72.000000 200.086831L72.446400 223.145098L72.892800 210.686177
L73.339200 216.842322L73.785600 175.602353L74.232000 220.312213
L74.678400 172.625379L75.124800 222.105192L75.571200 225.053528
L76.017600 169.277537L76.464000 226.591398L76.910400 348.903641
L77.803200 165.931471L78.249600 343.398996L78.696000 352.741019
L79.142400 153.388621L79.588800 230.890133L80.035200 236.036496
L80.481600 171.980078L80.928000 350.742068L81.374400 352.259021
L81.820800 335.969081L82.267200 351.006732L82.713600 339.819110
L83.160000 235.480532L83.606400 345.088951L84.052800 349.851596
L84.499200 157.147914L84.945600 349.257647L85.392000 166.937862
L85.838400 335.912760L86.284800 211.415305L86.731200 205.430065
L87.177600 343.166403L87.624000 159.225821L88.070400 343.525267
L88.516800 338.804249L88.963200 163.795040L89.409600 341.359529
L90.302400 196.769293L90.748800 338.298940L91.195200 220.698252
L92.088000 341.437106L92.534400 164.115686L92.980800 344.541270
L93.873600 157.741013L94.320000 340.429178L95.212800 330.490979
L95.659200 166.388851L96.105600 331.295105L96.552000 147.809924
L96.998400 161.009114L97.444800 332.686411L97.891200 341.153274
L98.337600 305.882067L98.784000 183.889307L99.230400 328.216937
L99.676800 157.469370L100.123200 328.516180L100.569600 260.267492
L101.016000 328.311084L101.462400 330.158419L101.908800 353.492181
L102.355200 244.674706L102.801600 337.324771L103.248000 331.970398
L103.694400 354.300594L104.140800 141.368773L104.587200 329.549025
L105.033600 333.762271L105.480000 166.320486L105.926400 328.993135
L106.372800 331.727945L106.819200 147.444214L107.265600 154.126036
L107.712000 332.665323L108.158400 329.898858L108.604800 335.435993
L109.497600 313.627924L109.944000 139.233172L110.390400 333.510157
L110.836800 319.875676L111.729600 336.964406L112.622400 151.597012
L113.068800 330.798862L113.515200 332.214251L113.961600 312.546742
L114.854400 324.884268L115.300800 311.220451L115.747200 137.190995
L116.193600 145.686283L116.640000 318.758089L117.086400 316.441438
L117.532800 324.968324L118.425600 224.413438L118.872000 325.572855
L119.318400 154.185530L119.764800 323.873834L120.211200 142.546325
L121.104000 315.844920L121.550400 328.941361L121.996800 321.255560
L122.443200 327.921895L122.889600 307.184877L123.336000 322.507419
L123.782400 242.092200L124.228800 311.358342L124.675200 314.849057
L125.121600 321.366979L125.568000 138.306326L126.014400 325.742632
L126.460800 185.334580L126.907200 216.209021L127.353600 316.608181
L127.800000 199.804860L128.246400 298.034601L128.692800 321.632804
L129.139200 306.877239L129.585600 315.656363L130.032000 317.826200
L130.478400 330.909100L130.924800 242.465055L131.371200 313.210931
L131.817600 310.272865L132.264000 320.839626L133.156800 130.042365
L133.603200 319.740371L134.049600 246.756708L134.496000 309.560591
L134.942400 312.401747L135.388800 309.566996L135.835200 317.821705
L136.281600 146.848947L136.728000 309.133509L137.174400 163.905735
L137.620800 230.771269L138.067200 245.806715L138.513600 309.742753
L139.406400 311.082294L140.299200 271.879672L140.745600 294.233725
L141.192000 295.594494L141.638400 304.693971L142.084800 329.855454
L142.977600 325.098815L143.424000 304.312820L143.870400 308.075889
L144.316800 288.190834L144.763200 325.502871L145.209600 299.060986
L145.656000 306.922226L146.102400 284.359293L146.548800 294.778151
L146.995200 297.177219L147.441600 294.268559L147.888000 195.574262
L148.334400 304.599812L148.780800 208.305233L149.227200 288.575529
L149.673600 298.137414L150.120000 296.528741L151.012800 285.611784
L151.459200 290.507277L151.905600 276.774139L152.352000 286.330632
L152.798400 276.263184L153.244800 278.806541L154.137600 277.743753
L154.584000 154.340524L155.476800 277.746885L156.816000 270.967851
L157.262400 282.545011L158.155200 269.507659L159.048000 265.375740
L159.940800 253.716398L160.387200 259.352257L160.833600 183.173041
L161.280000 256.948759L162.172800 292.002002L162.619200 341.973991
L163.512000 356.950133L163.958400 350.918231L164.404800 228.738839
L164.851200 358.733977L165.297600 356.932476L165.744000 348.520510
L166.190400 355.756027L166.636800 346.177488L167.083200 298.859100
L167.529600 345.766911L167.976000 351.159816L168.422400 295.345798
L168.868800 351.179597L169.315200 160.949160L169.761600 342.766021
L170.208000 222.850784L171.100800 348.502310L171.993600 340.834285
L172.440000 351.085112L172.886400 338.995581L173.332800 352.988730
L173.779200 337.334026L174.225600 347.963443L174.672000 336.157149
L175.118400 349.070927L175.564800 334.475074L176.011200 348.006441
L176.457600 339.918693L176.904000 348.469964L177.350400 339.819118
L177.796800 348.320399L178.243200 341.117484L178.689600 347.723470
L179.136000 337.512536L179.582400 350.196221L180.028800 339.528141
L180.475200 347.901499L180.921600 334.696505L181.368000 264.463790
L181.814400 336.250734L183.153600 347.233293L184.046400 340.905469
L184.492800 350.991882L184.939200 334.139747L185.385600 345.776362
L185.832000 334.531266L186.278400 344.207147L186.724800 331.751084
L187.171200 345.261926L187.617600 333.995498L188.064000 345.985797
L188.510400 334.365721L188.956800 347.620508L189.403200 332.357522
L189.849600 346.708400L190.742400 342.920615L191.188800 153.936765
L191.635200 340.246871L192.081600 341.852444L192.528000 328.737905
L192.974400 286.590395L193.420800 332.205572L193.867200 277.383831
L194.313600 363.980430L194.760000 335.781631L195.206400 341.242820
L195.652800 218.680899L196.099200 341.713553L196.545600 372.848757
L196.992000 303.927556L197.884800 343.564600L198.331200 342.223748
L198.777600 322.388147L199.224000 152.951725L199.670400 338.904237
L200.116800 320.638069L200.563200 341.762605L201.009600 161.637562
L201.456000 311.747664L201.902400 168.969869L202.348800 332.465779
L203.241600 341.370909L203.688000 329.206745L204.134400 269.953002
L204.580800 324.847958L205.027200 255.248688L205.473600 308.859828
L205.920000 275.694458L206.366400 332.163121L206.812800 258.228373
L207.259200 323.221973L207.705600 334.643398L208.598400 234.574147
L209.044800 332.989286L209.491200 335.134477L209.937600 319.418873
L210.830400 335.747392L211.276800 323.120417L211.723200 336.487521
L212.169600 273.041989L212.616000 327.065820L213.062400 333.895025
L213.955200 323.520806L214.401600 224.975247L214.848000 330.650958
L215.294400 337.848055L215.740800 320.814700L216.187200 338.455946
L216.633600 196.543286L217.080000 319.662091L217.526400 249.575855
L217.972800 317.867510L218.419200 311.270381L218.865600 137.410356
L219.312000 317.641862L219.758400 321.493115L220.204800 145.151759
L220.651200 159.838788L221.544000 307.517969L222.436800 321.723563
L222.883200 314.274509L223.776000 230.001550L224.668800 310.135543
L225.561600 324.176284L226.900800 318.679679L227.347200 325.962555
L227.793600 313.321009L228.240000 323.981778L228.686400 149.141665
L229.132800 317.434163L229.579200 311.160402L230.025600 319.873486
L230.472000 257.088319L230.918400 316.499148L231.364800 321.153629
L231.811200 307.271714L232.257600 317.751147L232.704000 319.658463
L233.150400 311.241314L234.043200 318.187589L234.489600 306.397433
L234.936000 316.071798L235.382400 243.159629L235.828800 305.026918
L236.721600 311.878359L237.168000 320.156477L237.614400 250.667746
L238.060800 318.709575L238.507200 302.976271L238.953600 313.464562
L239.400000 315.165530L239.846400 303.388037L240.292800 306.617955
L240.739200 319.009643L241.185600 296.871675L242.078400 322.091380
L242.524800 301.605600L243.864000 313.783094L244.310400 301.432984
L244.756800 308.744188L245.203200 296.292737L245.649600 332.376891
L246.096000 329.719387L246.988800 298.737578L247.435200 301.710014
L247.881600 296.246043L248.328000 304.353336L248.774400 287.223397
L249.220800 297.023292L249.667200 294.900774L250.113600 296.644506
L251.006400 304.245144L251.452800 288.223096L251.899200 292.389099
L252.792000 108.491445L253.238400 105.693744L253.684800 283.480079
L254.131200 291.350244L254.577600 109.107177L255.024000 289.068998
L255.470400 285.530542L256.363200 180.847854L256.809600 279.981864
L257.702400 273.712155L258.148800 281.685551L258.595200 268.157896
L259.041600 266.074795L259.488000 270.852315L259.934400 118.033533
L260.380800 270.949801L260.827200 277.519908L261.273600 272.605143
L261.720000 275.197719L262.166400 282.274421L262.612800 262.657275
L263.059200 270.926951L264.398400 84.395151L264.844800 261.997875
L265.291200 257.953557L265.737600 316.465100L266.184000 258.246270
L266.630400 313.694234L267.076800 270.652190L267.523200 347.136716
L267.969600 355.472949L268.416000 352.944814L268.862400 345.428604
L269.308800 172.622617L269.755200 349.659010L270.201600 354.491930
L271.540800 352.985448L271.987200 341.902884L272.433600 352.792727
L272.880000 341.101466L273.326400 356.621744L273.772800 234.100189
L274.219200 347.765553L275.112000 333.046316L275.558400 350.268725
L276.451200 344.671608L276.897600 171.831819L277.344000 343.129674
L277.790400 332.394235L278.236800 221.322597L278.683200 372.149660
L280.022400 308.876349L280.915200 349.361839L281.361600 344.394364
L281.808000 347.826654L282.700800 160.678502L283.147200 337.726883
L283.593600 346.125439L284.040000 335.152226L284.486400 347.031632
L284.932800 336.874796L285.379200 348.069787L285.825600 335.839926
L286.272000 225.454053L286.718400 346.390359L287.164800 350.212523
L287.611200 339.412910L288.057600 347.699026L288.504000 336.444640
L288.950400 346.826273L289.843200 319.318996L290.736000 342.335467
L291.182400 346.949358L291.628800 276.176647L292.075200 341.596195
L292.968000 331.571153L293.414400 341.858597L293.860800 331.335548
L294.307200 308.956347L294.753600 335.597747L295.646400 343.442294
L296.092800 329.890368L296.539200 241.447754L296.985600 345.218431
L297.432000 341.624592L297.878400 346.413143L298.324800 343.232285
L298.771200 329.603469L299.217600 343.576676L299.664000 331.301500
L300.110400 342.265202L300.556800 330.935220L301.003200 341.724076
L301.449600 206.022569L301.896000 371.980873L302.342400 239.174647
L302.788800 331.865626L303.235200 324.475277L303.681600 247.291219
L304.128000 331.847007L304.574400 208.916393L305.020800 334.087542
L305.467200 336.413868L305.913600 260.681650L306.360000 328.427445
L306.806400 290.991723L307.252800 335.301869L307.699200 336.994327
L308.145600 331.289808L308.592000 338.854248L309.038400 296.377520
L309.484800 332.318119L309.931200 338.199548L310.377600 327.437466
L310.824000 243.595136L311.270400 351.147185L312.163200 326.233700
L312.609600 277.605764L313.056000 325.891312L313.502400 326.988156
L313.948800 298.299143L314.395200 142.301229L314.841600 317.815388
L315.288000 334.075126L315.734400 329.374771L316.180800 232.310685
L316.627200 287.929600L317.073600 217.579992L317.520000 322.136356
L317.966400 333.265221L318.412800 328.911505L318.859200 275.129485
L319.305600 323.835810L319.752000 320.777467L320.198400 334.367055
L320.644800 318.023434L321.091200 328.034798L321.537600 310.008314
L321.984000 324.063231L322.430400 326.379989L322.876800 313.240089
L323.323200 321.421138L323.769600 323.233786L324.216000 312.265857
L324.662400 321.735061L325.108800 180.328606L325.555200 321.068377
L326.001600 144.400304L326.448000 318.677677L326.894400 134.963674
L327.340800 247.634642L327.787200 193.876313L328.233600 317.588969
L328.680000 220.581317L329.126400 320.637307L330.019200 142.367637
L330.465600 319.492169L330.912000 324.795340L331.804800 134.314269
L332.251200 132.907983L332.697600 325.287510L333.144000 300.193654
L333.590400 321.632468L334.036800 320.039184L334.483200 182.963293
L334.929600 320.068059L335.376000 318.494526L335.822400 309.652574
L336.268800 319.156221L337.161600 306.832056L337.608000 316.328658
L338.054400 136.656159L338.500800 319.809453L338.947200 313.753755
L339.840000 149.438226L340.732800 265.120257L341.625600 316.307440
L342.518400 122.254118L342.964800 309.904080L343.857600 302.211149
L344.750400 316.388138L345.196800 311.436333L345.643200 289.205148
L346.089600 305.603944L346.536000 173.468356L346.982400 304.674445
L347.428800 179.327918L347.875200 252.701359L348.321600 141.678020
L348.768000 123.176784L349.214400 307.780070L349.660800 304.094616
L350.107200 305.235473L350.553600 117.135875L351.000000 303.962655
L351.446400 291.236711L351.892800 298.628812L352.339200 283.757208
L352.785600 120.858470L353.232000 295.506385L353.678400 130.399138
L354.124800 299.892848L354.571200 292.382117L355.017600 293.589510
L355.464000 285.043027L357.249600 291.830696L357.696000 287.230257
L358.142400 289.549314L358.588800 162.978818L359.035200 282.663980
L359.481600 291.010567L359.928000 274.419296L360.820800 111.905699
L361.267200 93.790178L361.713600 143.991990L362.160000 281.406252
L362.606400 270.096098L363.052800 277.500597L363.499200 127.880402
L363.945600 276.493809L364.838400 88.837525L365.284800 99.223724
L366.177600 264.639305L367.070400 90.052979L367.516800 265.497958
L367.963200 87.669628L368.409600 265.859068L368.856000 282.284354
L369.302400 258.758183L369.748800 323.277885L370.195200 186.239496
L370.641600 347.182169L371.088000 349.889630L371.534400 164.965981
L371.980800 222.088863L372.427200 202.057658L372.873600 206.115677
L373.320000 352.445701L373.766400 349.396721L374.212800 239.611221
L374.659200 349.956455L375.105600 354.261305L375.998400 345.500703
L376.444800 260.843317L377.337600 346.073396L378.230400 354.709102
L378.676800 214.643017L379.123200 347.153905L379.569600 200.091286
L380.016000 341.584179L380.462400 347.936040L380.908800 162.465146
L381.355200 166.762072L381.801600 338.810218L382.248000 345.049544
L382.694400 338.556853L383.140800 346.326245L383.587200 339.293881
L384.033600 255.971369L384.480000 343.163574L384.926400 349.388989
L385.372800 258.130227L385.819200 270.289009L386.712000 349.136406
L387.604800 335.783849L388.051200 132.328511L388.944000 374.284515
L389.390400 162.481242L389.836800 346.989568L390.283200 184.468339
L391.176000 345.243414L391.622400 347.617093L392.068800 185.909822
L392.515200 196.504320L392.961600 343.480099L394.300800 233.078587
L394.747200 334.688484L395.193600 343.413373L395.640000 199.279380
L396.086400 335.047976L396.532800 343.705014L396.979200 340.060541
L398.318400 181.376437L398.764800 338.940763L399.211200 340.469134
L399.657600 339.227635L400.104000 343.646499L400.550400 328.795492
L400.996800 226.767915L401.443200 340.282086L401.889600 116.396462
L402.336000 307.125938L402.782400 342.339538L403.228800 333.079926
L403.675200 341.255317L404.121600 329.983799L404.568000 345.304229
L405.014400 323.821342L405.460800 335.587676L405.907200 139.950698
L406.353600 329.523404L406.800000 160.572096L407.246400 318.626099
L408.139200 217.306767L408.585600 334.072494L409.032000 338.960454
L409.478400 335.251277L409.924800 293.486466L410.371200 333.068828
L410.817600 336.716108L411.264000 139.799453L411.710400 337.076861
L412.156800 335.523989L412.603200 175.441197L413.049600 326.448581
L413.496000 335.041182L413.942400 187.768527L414.388800 332.856952
L414.835200 334.457018L415.281600 338.532873L415.728000 324.677837
L416.174400 269.018815L416.620800 331.311553L417.067200 332.672941
L417.513600 330.930745L417.960000 212.168627L418.406400 331.719364
L418.852800 332.834505L419.299200 330.581311L420.192000 277.184098
L420.638400 322.201500L421.531200 338.296968L421.977600 197.178544
L422.424000 333.110440L422.870400 271.590110L423.316800 329.837059
L424.209600 338.025028L424.656000 186.534526L425.102400 323.028694
L425.548800 152.170378L425.995200 323.435794L426.441600 309.068669
L426.888000 228.377447L427.334400 273.926479L427.780800 153.123606
L428.227200 211.568132L428.673600 335.676927L429.120000 324.669022
L429.566400 240.309226L430.012800 321.213853L430.459200 319.406177
L430.905600 183.918285L431.352000 321.103568L431.798400 302.725650
L432.244800 322.916949L432.691200 325.273585L433.137600 303.834059
L433.584000 194.382492L434.030400 314.028520L434.476800 324.975866
L434.923200 310.003308L435.369600 321.790263L435.816000 139.003672
L436.262400 135.126813L437.155200 321.192248L437.601600 323.773403
L438.048000 187.834580L438.494400 311.952147L438.940800 136.343008
L439.387200 140.966030L439.833600 317.046483L440.280000 252.529017
L440.726400 315.398206L441.172800 316.660772L442.065600 294.147003
L442.512000 335.444268L442.958400 118.589648L443.404800 113.027748
L443.851200 136.717647L444.297600 315.976562L444.744000 309.804647
L445.190400 316.061276L446.083200 304.055585L446.529600 309.534205
L447.422400 125.733980L447.868800 311.267318L448.315200 215.169499
L448.761600 312.291132L449.208000 309.191944L449.654400 310.985418
L450.100800 178.863540L450.547200 214.791046L450.993600 306.276056
L451.440000 308.435353L451.886400 107.132819L452.332800 309.099825
L452.779200 302.751779L453.225600 301.642675L454.118400 101.064659
L455.011200 301.385505L455.457600 120.409901L455.904000 269.274909
L456.350400 295.432712L456.796800 152.998531L457.243200 117.100935
L457.689600 294.560092L458.136000 237.352358L458.582400 293.379984
L459.028800 169.766604L459.475200 292.632201L460.814400 287.242562
L461.260800 288.519709L461.707200 146.449704L462.153600 286.957962
L462.600000 290.780846L463.046400 230.197338L463.492800 290.706404
L463.939200 284.246021L464.385600 98.167286L464.832000 289.417633
L465.278400 90.999994L465.724800 122.685321L466.171200 282.984511
L466.617600 274.868677L467.064000 276.718988L467.956800 63.280724
L468.403200 275.367444L469.296000 105.884038L469.742400 281.096022
L470.188800 269.087463L470.635200 96.828280L471.081600 273.694481
L471.528000 254.717804L472.420800 75.956605L472.867200 263.025801
L473.760000 142.027936L474.206400 309.143268L474.652800 350.552322
L475.099200 270.017446L475.545600 351.559692L475.992000 306.285133
L476.438400 345.424704L476.884800 353.858600L477.331200 172.883568
L477.777600 354.922119L479.116800 346.938763L479.563200 296.171526
L480.009600 342.332295L480.902400 185.655848L481.348800 347.318016
L481.795200 198.495959L482.241600 346.183986L482.688000 180.480102
L483.134400 263.312467L483.580800 225.601974L484.027200 376.128545
L484.473600 330.138805L484.920000 169.555809L485.366400 207.634783
L485.812800 351.735907L486.259200 180.249899L486.705600 197.926375
L487.152000 346.759379L487.598400 348.080825L488.044800 333.130443
L488.491200 347.267592L488.937600 156.503230L489.384000 345.046122
L489.830400 282.491722L490.276800 339.743582L490.723200 233.567474
L491.169600 344.820420L492.062400 350.945446L492.508800 326.103617
L492.955200 348.086684L493.401600 334.520856L493.848000 348.201712
L494.294400 337.867420L494.740800 347.523236L495.633600 174.063546
L496.080000 168.001728L496.526400 335.273859L496.972800 346.178220
L497.419200 345.131673L497.865600 336.031243L498.312000 299.500794
L498.758400 335.791259L499.204800 338.697518L499.651200 345.786732
L500.097600 335.628739L500.544000 345.322798L500.990400 331.821507
L501.436800 193.325574L501.883200 342.559951L502.776000 338.603745
L503.668800 344.230257L504.115200 333.262323L504.561600 127.610653
L505.008000 341.295478L505.454400 169.316567L505.900800 345.042726
L506.347200 338.763372L506.793600 342.505548L507.240000 302.653112
L507.686400 217.574681L508.132800 335.950022L508.579200 201.909413
L509.025600 337.235502L509.472000 330.158445L509.918400 290.407506
L510.364800 332.506274L510.811200 340.867177L511.257600 167.148430
L511.704000 336.363373L512.150400 342.313831L512.596800 327.213597
L513.043200 339.922653L513.489600 113.745130L513.936000 155.424681
L514.382400 337.786989L514.828800 333.609504L515.275200 335.810344
L515.721600 325.226610L516.168000 337.924228L516.614400 279.516326
L517.060800 336.296976L517.507200 332.561176L517.953600 335.727452
L517.953600 335.727452"/>
</g>
<g id="matplotlib.axis1">
<g id="xtick1">
<g id="line2d2">
<path style="fill: none; stroke: #000000; stroke-width: 0.500000; stroke-linejoin: round; stroke-linecap: butt; stroke-dasharray: 1.000000,3.000000; stroke-dashoffset: 0.000000; opacity: 1.000000" clip-path="url(#p50431ccdcb28178602d99d9270004dde)" d="M72.000000 388.800000L72.000000 43.200000"/>
</g>
<g id="line2d3">
<defs><path id="m30e32995789d870ad79a2e54c91cf9c6" d="M0.000000 0.000000L0.000000 -4.000000"/></defs>
<g ><use style="fill: none; stroke: #000000; stroke-width: 0.500000; stroke-linejoin: round; stroke-linecap: butt;  opacity: 1.000000" xlink:href="#m30e32995789d870ad79a2e54c91cf9c6" x="72.000000" y="388.800000"/>
</g></g>
<g id="line2d4">
<defs><path id="m9281cae24120827b11d5ea8a7ad3e96b" d="M0.000000 0.000000L0.000000 4.000000"/></defs>
<g ><use style="fill: none; stroke: #000000; stroke-width: 0.500000; stroke-linejoin: round; stroke-linecap: butt;  opacity: 1.000000" xlink:href="#m9281cae24120827b11d5ea8a7ad3e96b" x="72.000000" y="43.200000"/>
</g></g>
<g id="text1">
<defs>
<path id="c_7a2040fe3b94fcd41d0a72c84e93b115" d="M31.781250 -66.406250q-7.609375 0.000000 -11.453125 7.500000q-3.828125 7.484375 -3.828125 22.531250q0.000000 14.984375 3.828125 22.484375q3.843750 7.500000 11.453125 7.500000q7.671875 0.000000 11.500000 -7.500000q3.843750 -7.500000 3.843750 -22.484375q0.000000 -15.046875 -3.843750 -22.531250q-3.828125 -7.500000 -11.500000 -7.500000M31.781250 -74.218750q12.265625 0.000000 18.734375 9.703125q6.468750 9.687500 6.468750 28.140625q0.000000 18.406250 -6.468750 28.109375q-6.468750 9.687500 -18.734375 9.687500q-12.250000 0.000000 -18.718750 -9.687500q-6.468750 -9.703125 -6.468750 -28.109375q0.000000 -18.453125 6.468750 -28.140625q6.468750 -9.703125 18.718750 -9.703125"/>
</defs>
<g style="fill: #000000; opacity: 1.000000" transform="translate(68.976562,401.706250)scale(0.120000)">
<use xlink:href="#c_7a2040fe3b94fcd41d0a72c84e93b115"/>
</g>
</g>
</g>
<g id="xtick2">
<g id="line2d5">
<path style="fill: none; stroke: #000000; stroke-width: 0.500000; stroke-linejoin: round; stroke-linecap: butt; stroke-dasharray: 1.000000,3.000000; stroke-dashoffset: 0.000000; opacity: 1.000000" clip-path="url(#p50431ccdcb28178602d99d9270004dde)" d="M161.280000 388.800000L161.280000 43.200000"/>
</g>
<g id="line2d6">
<g ><use style="fill: none; stroke: #000000; stroke-width: 0.500000; stroke-linejoin: round; stroke-linecap: butt;  opacity: 1.000000" xlink:href="#m30e32995789d870ad79a2e54c91cf9c6" x="161.280000" y="388.800000"/>
</g></g>
<g id="line2d7">
<g ><use style="fill: none; stroke: #000000; stroke-width: 0.500000; stroke-linejoin: round; stroke-linecap: butt;  opacity: 1.000000" xlink:href="#m9281cae24120827b11d5ea8a7ad3e96b" x="161.280000" y="43.200000"/>
</g></g>
<g id="text2">
<defs>
<path id="c_ed3f3ed3ebfbd18bcb9c012009a68ad1" d="M19.187500 -8.296875l34.421875 0.000000l0.000000 8.296875l-46.281250 0.000000l0.000000 -8.296875q5.609375 -5.812500 15.296875 -15.593750q9.703125 -9.796875 12.187500 -12.640625q4.734375 -5.312500 6.609375 -9.000000q1.890625 -3.687500 1.890625 -7.250000q0.000000 -5.812500 -4.078125 -9.468750q-4.078125 -3.671875 -10.625000 -3.671875q-4.640625 0.000000 -9.796875 1.609375q-5.140625 1.609375 -11.000000 4.890625l0.000000 -9.968750q5.953125 -2.390625 11.125000 -3.609375q5.187500 -1.218750 9.484375 -1.218750q11.328125 0.000000 18.062500 5.671875q6.734375 5.656250 6.734375 15.125000q0.000000 4.500000 -1.687500 8.531250q-1.671875 4.015625 -6.125000 9.484375q-1.218750 1.421875 -7.765625 8.187500q-6.531250 6.765625 -18.453125 18.921875"/>
</defs>
<g style="fill: #000000; opacity: 1.000000" transform="translate(150.655000,401.706250)scale(0.120000)">
<use xlink:href="#c_ed3f3ed3ebfbd18bcb9c012009a68ad1"/>
<use xlink:href="#c_7a2040fe3b94fcd41d0a72c84e93b115" x="63.623047"/>
<use xlink:href="#c_7a2040fe3b94fcd41d0a72c84e93b115" x="127.246094"/>
</g>
</g>
</g>
<g id="xtick3">
<g id="line2d8">
<path style="fill: none; stroke: #000000; stroke-width: 0.500000; stroke-linejoin: round; stroke-linecap: butt; stroke-dasharray: 1.000000,3.000000; stroke-dashoffset: 0.000000; opacity: 1.000000" clip-path="url(#p50431ccdcb28178602d99d9270004dde)" d="M250.560000 388.800000L250.560000 43.200000"/>
</g>
<g id="line2d9">
<g ><use style="fill: none; stroke: #000000; stroke-width: 0.500000; stroke-linejoin: round; stroke-linecap: butt;  opacity: 1.000000" xlink:href="#m30e32995789d870ad79a2e54c91cf9c6" x="250.560000" y="388.800000"/>
</g></g>
<g id="line2d10">
<g ><use style="fill: none; stroke: #000000; stroke-width: 0.500000; stroke-linejoin: round; stroke-linecap: butt;  opacity: 1.000000" xlink:href="#m9281cae24120827b11d5ea8a7ad3e96b" x="250.560000" y="43.200000"/>
</g></g>
<g id="text3">
<defs>
<path id="c_a0416418d96557a09b8c1332d34883ba" d="M37.796875 -64.312500l-24.906250 38.921875l24.906250 0.000000zM35.203125 -72.906250l12.406250 0.000000l0.000000 47.515625l10.406250 0.000000l0.000000 8.203125l-10.406250 0.000000l0.000000 17.187500l-9.812500 0.000000l0.000000 -17.187500l-32.906250 0.000000l0.000000 -9.515625z"/>
</defs>
<g style="fill: #000000; opacity: 1.000000" transform="translate(239.794375,401.706250)scale(0.120000)">
<use xlink:href="#c_a0416418d96557a09b8c1332d34883ba"/>
<use xlink:href="#c_7a2040fe3b94fcd41d0a72c84e93b115" x="63.623047"/>
<use xlink:href="#c_7a2040fe3b94fcd41d0a72c84e93b115" x="127.246094"/>
</g>
</g>
</g>
<g id="xtick4">
<g id="line2d11">
<path style="fill: none; stroke: #000000; stroke-width: 0.500000; stroke-linejoin: round; stroke-linecap: butt; stroke-dasharray: 1.000000,3.000000; stroke-dashoffset: 0.000000; opacity: 1.000000" clip-path="url(#p50431ccdcb28178602d99d9270004dde)" d="M339.840000 388.800000L339.840000 43.200000"/>
</g>
<g id="line2d12">
<g ><use style="fill: none; stroke: #000000; stroke-width: 0.500000; stroke-linejoin: round; stroke-linecap: butt;  opacity: 1.000000" xlink:href="#m30e32995789d870ad79a2e54c91cf9c6" x="339.840000" y="388.800000"/>
</g></g>
<g id="line2d13">
<g ><use style="fill: none; stroke: #000000; stroke-width: 0.500000; stroke-linejoin: round; stroke-linecap: butt;  opacity: 1.000000" xlink:href="#m9281cae24120827b11d5ea8a7ad3e96b" x="339.840000" y="43.200000"/>
</g></g>
<g id="text4">
<defs>
<path id="c_cc8d6d580d1b10c8632f7a42cd53db8a" d="M33.015625 -40.375000q-6.640625 0.000000 -10.531250 4.546875q-3.875000 4.531250 -3.875000 12.437500q0.000000 7.859375 3.875000 12.437500q3.890625 4.562500 10.531250 4.562500q6.640625 0.000000 10.515625 -4.562500q3.875000 -4.578125 3.875000 -12.437500q0.000000 -7.906250 -3.875000 -12.437500q-3.875000 -4.546875 -10.515625 -4.546875M52.593750 -71.296875l0.000000 8.984375q-3.718750 -1.750000 -7.500000 -2.671875q-3.781250 -0.937500 -7.500000 -0.937500q-9.765625 0.000000 -14.921875 6.593750q-5.140625 6.593750 -5.875000 19.921875q2.875000 -4.250000 7.218750 -6.515625q4.359375 -2.265625 9.578125 -2.265625q10.984375 0.000000 17.359375 6.671875q6.375000 6.656250 6.375000 18.125000q0.000000 11.234375 -6.640625 18.031250q-6.640625 6.781250 -17.671875 6.781250q-12.656250 0.000000 -19.343750 -9.687500q-6.687500 -9.703125 -6.687500 -28.109375q0.000000 -17.281250 8.203125 -27.562500q8.203125 -10.281250 22.015625 -10.281250q3.718750 0.000000 7.500000 0.734375q3.781250 0.734375 7.890625 2.187500"/>
</defs>
<g style="fill: #000000; opacity: 1.000000" transform="translate(329.199375,401.706250)scale(0.120000)">
<use xlink:href="#c_cc8d6d580d1b10c8632f7a42cd53db8a"/>
<use xlink:href="#c_7a2040fe3b94fcd41d0a72c84e93b115" x="63.623047"/>
<use xlink:href="#c_7a2040fe3b94fcd41d0a72c84e93b115" x="127.246094"/>
</g>
</g>
</g>
<g id="xtick5">
<g id="line2d14">
<path style="fill: none; stroke: #000000; stroke-width: 0.500000; stroke-linejoin: round; stroke-linecap: butt; stroke-dasharray: 1.000000,3.000000; stroke-dashoffset: 0.000000; opacity: 1.000000" clip-path="url(#p50431ccdcb28178602d99d9270004dde)" d="M429.120000 388.800000L429.120000 43.200000"/>
</g>
<g id="line2d15">
<g ><use style="fill: none; stroke: #000000; stroke-width: 0.500000; stroke-linejoin: round; stroke-linecap: butt;  opacity: 1.000000" xlink:href="#m30e32995789d870ad79a2e54c91cf9c6" x="429.120000" y="388.800000"/>
</g></g>
<g id="line2d16">
<g ><use style="fill: none; stroke: #000000; stroke-width: 0.500000; stroke-linejoin: round; stroke-linecap: butt;  opacity: 1.000000" xlink:href="#m9281cae24120827b11d5ea8a7ad3e96b" x="429.120000" y="43.200000"/>
</g></g>
<g id="text5">
<defs>
<path id="c_bef35738d52871942e50b9de9b122bab" d="M31.781250 -34.625000q-7.031250 0.000000 -11.062500 3.765625q-4.015625 3.765625 -4.015625 10.343750q0.000000 6.593750 4.015625 10.359375q4.031250 3.765625 11.062500 3.765625q7.031250 0.000000 11.078125 -3.781250q4.062500 -3.796875 4.062500 -10.343750q0.000000 -6.578125 -4.031250 -10.343750q-4.015625 -3.765625 -11.109375 -3.765625M21.921875 -38.812500q-6.343750 -1.562500 -9.890625 -5.906250q-3.531250 -4.359375 -3.531250 -10.609375q0.000000 -8.734375 6.218750 -13.812500q6.234375 -5.078125 17.062500 -5.078125q10.890625 0.000000 17.093750 5.078125q6.203125 5.078125 6.203125 13.812500q0.000000 6.250000 -3.546875 10.609375q-3.531250 4.343750 -9.828125 5.906250q7.125000 1.656250 11.093750 6.500000q3.984375 4.828125 3.984375 11.796875q0.000000 10.609375 -6.468750 16.281250q-6.468750 5.656250 -18.531250 5.656250q-12.046875 0.000000 -18.531250 -5.656250q-6.468750 -5.671875 -6.468750 -16.281250q0.000000 -6.968750 4.000000 -11.796875q4.015625 -4.843750 11.140625 -6.500000M18.312500 -54.390625q0.000000 5.656250 3.531250 8.828125q3.546875 3.171875 9.937500 3.171875q6.359375 0.000000 9.937500 -3.171875q3.593750 -3.171875 3.593750 -8.828125q0.000000 -5.671875 -3.593750 -8.843750q-3.578125 -3.171875 -9.937500 -3.171875q-6.390625 0.000000 -9.937500 3.171875q-3.531250 3.171875 -3.531250 8.843750"/>
</defs>
<g style="fill: #000000; opacity: 1.000000" transform="translate(418.463750,401.706250)scale(0.120000)">
<use xlink:href="#c_bef35738d52871942e50b9de9b122bab"/>
<use xlink:href="#c_7a2040fe3b94fcd41d0a72c84e93b115" x="63.623047"/>
<use xlink:href="#c_7a2040fe3b94fcd41d0a72c84e93b115" x="127.246094"/>
</g>
</g>
</g>
<g id="xtick6">
<g id="line2d17">
<path style="fill: none; stroke: #000000; stroke-width: 0.500000; stroke-linejoin: round; stroke-linecap: butt; stroke-dasharray: 1.000000,3.000000; stroke-dashoffset: 0.000000; opacity: 1.000000" clip-path="url(#p50431ccdcb28178602d99d9270004dde)" d="M518.400000 388.800000L518.400000 43.200000"/>
</g>
<g id="line2d18">
<g ><use style="fill: none; stroke: #000000; stroke-width: 0.500000; stroke-linejoin: round; stroke-linecap: butt;  opacity: 1.000000" xlink:href="#m30e32995789d870ad79a2e54c91cf9c6" x="518.400000" y="388.800000"/>
</g></g>
<g id="line2d19">
<g ><use style="fill: none; stroke: #000000; stroke-width: 0.500000; stroke-linejoin: round; stroke-linecap: butt;  opacity: 1.000000" xlink:href="#m9281cae24120827b11d5ea8a7ad3e96b" x="518.400000" y="43.200000"/>
</g></g>
<g id="text6">
<defs>
<path id="c_42baa63129a918535c52adb20d687ea7" d="M12.406250 -8.296875l16.109375 0.000000l0.000000 -55.625000l-17.531250 3.515625l0.000000 -8.984375l17.437500 -3.515625l9.859375 0.000000l0.000000 64.609375l16.109375 0.000000l0.000000 8.296875l-41.984375 0.000000z"/>
</defs>
<g style="fill: #000000; opacity: 1.000000" transform="translate(504.173437,401.706250)scale(0.120000)">
<use xlink:href="#c_42baa63129a918535c52adb20d687ea7"/>
<use xlink:href="#c_7a2040fe3b94fcd41d0a72c84e93b115" x="63.623047"/>
<use xlink:href="#c_7a2040fe3b94fcd41d0a72c84e93b115" x="127.246094"/>
<use xlink:href="#c_7a2040fe3b94fcd41d0a72c84e93b115" x="190.869141"/>
</g>
</g>
</g>
</g>
<g id="matplotlib.axis2">
<g id="ytick1">
<g id="line2d20">
<path style="fill: none; stroke: #000000; stroke-width: 0.500000; stroke-linejoin: round; stroke-linecap: butt; stroke-dasharray: 1.000000,3.000000; stroke-dashoffset: 0.000000; opacity: 1.000000" clip-path="url(#p50431ccdcb28178602d99d9270004dde)" d="M72.000000 388.800000L518.400000 388.800000"/>
</g>
<g id="line2d21">
<defs><path id="m3400efa6b1638b3fea9e19e898273957" d="M0.000000 0.000000L4.000000 0.000000"/></defs>
<g ><use style="fill: none; stroke: #000000; stroke-width: 0.500000; stroke-linejoin: round; stroke-linecap: butt;  opacity: 1.000000" xlink:href="#m3400efa6b1638b3fea9e19e898273957" x="72.000000" y="388.800000"/>
</g></g>
<g id="line2d22">
<defs><path id="m20b58b2501143cb5e0a5e8f1ef6f1643" d="M0.000000 0.000000L-4.000000 0.000000"/></defs>
<g ><use style="fill: none; stroke: #000000; stroke-width: 0.500000; stroke-linejoin: round; stroke-linecap: butt;  opacity: 1.000000" xlink:href="#m20b58b2501143cb5e0a5e8f1ef6f1643" x="518.400000" y="388.800000"/>
</g></g>
<g id="text7">
<g style="fill: #000000; opacity: 1.000000" transform="translate(61.968750,393.167188)scale(0.120000)">
<use xlink:href="#c_cc8d6d580d1b10c8632f7a42cd53db8a"/>
</g>
</g>
</g>
<g id="ytick2">
<g id="line2d23">
<path style="fill: none; stroke: #000000; stroke-width: 0.500000; stroke-linejoin: round; stroke-linecap: butt; stroke-dasharray: 1.000000,3.000000; stroke-dashoffset: 0.000000; opacity: 1.000000" clip-path="url(#p50431ccdcb28178602d99d9270004dde)" d="M72.000000 339.428571L518.400000 339.428571"/>
</g>
<g id="line2d24">
<g ><use style="fill: none; stroke: #000000; stroke-width: 0.500000; stroke-linejoin: round; stroke-linecap: butt;  opacity: 1.000000" xlink:href="#m3400efa6b1638b3fea9e19e898273957" x="72.000000" y="339.428571"/>
</g></g>
<g id="line2d25">
<g ><use style="fill: none; stroke: #000000; stroke-width: 0.500000; stroke-linejoin: round; stroke-linecap: butt;  opacity: 1.000000" xlink:href="#m20b58b2501143cb5e0a5e8f1ef6f1643" x="518.400000" y="339.428571"/>
</g></g>
<g id="text8">
<g style="fill: #000000; opacity: 1.000000" transform="translate(62.000000,343.795759)scale(0.120000)">
<use xlink:href="#c_bef35738d52871942e50b9de9b122bab"/>
</g>
</g>
</g>
<g id="ytick3">
<g id="line2d26">
<path style="fill: none; stroke: #000000; stroke-width: 0.500000; stroke-linejoin: round; stroke-linecap: butt; stroke-dasharray: 1.000000,3.000000; stroke-dashoffset: 0.000000; opacity: 1.000000" clip-path="url(#p50431ccdcb28178602d99d9270004dde)" d="M72.000000 290.057143L518.400000 290.057143"/>
</g>
<g id="line2d27">
<g ><use style="fill: none; stroke: #000000; stroke-width: 0.500000; stroke-linejoin: round; stroke-linecap: butt;  opacity: 1.000000" xlink:href="#m3400efa6b1638b3fea9e19e898273957" x="72.000000" y="290.057143"/>
</g></g>
<g id="line2d28">
<g ><use style="fill: none; stroke: #000000; stroke-width: 0.500000; stroke-linejoin: round; stroke-linecap: butt;  opacity: 1.000000" xlink:href="#m20b58b2501143cb5e0a5e8f1ef6f1643" x="518.400000" y="290.057143"/>
</g></g>
<g id="text9">
<g style="fill: #000000; opacity: 1.000000" transform="translate(54.828125,294.424330)scale(0.120000)">
<use xlink:href="#c_42baa63129a918535c52adb20d687ea7"/>
<use xlink:href="#c_7a2040fe3b94fcd41d0a72c84e93b115" x="63.623047"/>
</g>
</g>
</g>
<g id="ytick4">
<g id="line2d29">
<path style="fill: none; stroke: #000000; stroke-width: 0.500000; stroke-linejoin: round; stroke-linecap: butt; stroke-dasharray: 1.000000,3.000000; stroke-dashoffset: 0.000000; opacity: 1.000000" clip-path="url(#p50431ccdcb28178602d99d9270004dde)" d="M72.000000 240.685714L518.400000 240.685714"/>
</g>
<g id="line2d30">
<g ><use style="fill: none; stroke: #000000; stroke-width: 0.500000; stroke-linejoin: round; stroke-linecap: butt;  opacity: 1.000000" xlink:href="#m3400efa6b1638b3fea9e19e898273957" x="72.000000" y="240.685714"/>
</g></g>
<g id="line2d31">
<g ><use style="fill: none; stroke: #000000; stroke-width: 0.500000; stroke-linejoin: round; stroke-linecap: butt;  opacity: 1.000000" xlink:href="#m20b58b2501143cb5e0a5e8f1ef6f1643" x="518.400000" y="240.685714"/>
</g></g>
<g id="text10">
<g style="fill: #000000; opacity: 1.000000" transform="translate(55.234375,245.138839)scale(0.120000)">
<use xlink:href="#c_42baa63129a918535c52adb20d687ea7"/>
<use xlink:href="#c_ed3f3ed3ebfbd18bcb9c012009a68ad1" x="63.623047"/>
</g>
</g>
</g>
<g id="ytick5">
<g id="line2d32">
<path style="fill: none; stroke: #000000; stroke-width: 0.500000; stroke-linejoin: round; stroke-linecap: butt; stroke-dasharray: 1.000000,3.000000; stroke-dashoffset: 0.000000; opacity: 1.000000" clip-path="url(#p50431ccdcb28178602d99d9270004dde)" d="M72.000000 191.314286L518.400000 191.314286"/>
</g>
<g id="line2d33">
<g ><use style="fill: none; stroke: #000000; stroke-width: 0.500000; stroke-linejoin: round; stroke-linecap: butt;  opacity: 1.000000" xlink:href="#m3400efa6b1638b3fea9e19e898273957" x="72.000000" y="191.314286"/>
</g></g>
<g id="line2d34">
<g ><use style="fill: none; stroke: #000000; stroke-width: 0.500000; stroke-linejoin: round; stroke-linecap: butt;  opacity: 1.000000" xlink:href="#m20b58b2501143cb5e0a5e8f1ef6f1643" x="518.400000" y="191.314286"/>
</g></g>
<g id="text11">
<g style="fill: #000000; opacity: 1.000000" transform="translate(54.703125,195.689286)scale(0.120000)">
<use xlink:href="#c_42baa63129a918535c52adb20d687ea7"/>
<use xlink:href="#c_a0416418d96557a09b8c1332d34883ba" x="63.623047"/>
</g>
</g>
</g>
<g id="ytick6">
<g id="line2d35">
<path style="fill: none; stroke: #000000; stroke-width: 0.500000; stroke-linejoin: round; stroke-linecap: butt; stroke-dasharray: 1.000000,3.000000; stroke-dashoffset: 0.000000; opacity: 1.000000" clip-path="url(#p50431ccdcb28178602d99d9270004dde)" d="M72.000000 141.942857L518.400000 141.942857"/>
</g>
<g id="line2d36">
<g ><use style="fill: none; stroke: #000000; stroke-width: 0.500000; stroke-linejoin: round; stroke-linecap: butt;  opacity: 1.000000" xlink:href="#m3400efa6b1638b3fea9e19e898273957" x="72.000000" y="141.942857"/>
</g></g>
<g id="line2d37">
<g ><use style="fill: none; stroke: #000000; stroke-width: 0.500000; stroke-linejoin: round; stroke-linecap: butt;  opacity: 1.000000" xlink:href="#m20b58b2501143cb5e0a5e8f1ef6f1643" x="518.400000" y="141.942857"/>
</g></g>
<g id="text12">
<g style="fill: #000000; opacity: 1.000000" transform="translate(54.796875,146.310045)scale(0.120000)">
<use xlink:href="#c_42baa63129a918535c52adb20d687ea7"/>
<use xlink:href="#c_cc8d6d580d1b10c8632f7a42cd53db8a" x="63.623047"/>
</g>
</g>
</g>
<g id="ytick7">
<g id="line2d38">
<path style="fill: none; stroke: #000000; stroke-width: 0.500000; stroke-linejoin: round; stroke-linecap: butt; stroke-dasharray: 1.000000,3.000000; stroke-dashoffset: 0.000000; opacity: 1.000000" clip-path="url(#p50431ccdcb28178602d99d9270004dde)" d="M72.000000 92.571429L518.400000 92.571429"/>
</g>
<g id="line2d39">
<g ><use style="fill: none; stroke: #000000; stroke-width: 0.500000; stroke-linejoin: round; stroke-linecap: butt;  opacity: 1.000000" xlink:href="#m3400efa6b1638b3fea9e19e898273957" x="72.000000" y="92.571429"/>
</g></g>
<g id="line2d40">
<g ><use style="fill: none; stroke: #000000; stroke-width: 0.500000; stroke-linejoin: round; stroke-linecap: butt;  opacity: 1.000000" xlink:href="#m20b58b2501143cb5e0a5e8f1ef6f1643" x="518.400000" y="92.571429"/>
</g></g>
<g id="text13">
<g style="fill: #000000; opacity: 1.000000" transform="translate(54.859375,96.938616)scale(0.120000)">
<use xlink:href="#c_42baa63129a918535c52adb20d687ea7"/>
<use xlink:href="#c_bef35738d52871942e50b9de9b122bab" x="63.623047"/>
</g>
</g>
</g>
<g id="ytick8">
<g id="line2d41">
<path style="fill: none; stroke: #000000; stroke-width: 0.500000; stroke-linejoin: round; stroke-linecap: butt; stroke-dasharray: 1.000000,3.000000; stroke-dashoffset: 0.000000; opacity: 1.000000" clip-path="url(#p50431ccdcb28178602d99d9270004dde)" d="M72.000000 43.200000L518.400000 43.200000"/>
</g>
<g id="line2d42">
<g ><use style="fill: none; stroke: #000000; stroke-width: 0.500000; stroke-linejoin: round; stroke-linecap: butt;  opacity: 1.000000" xlink:href="#m3400efa6b1638b3fea9e19e898273957" x="72.000000" y="43.200000"/>
</g></g>
<g id="line2d43">
<g ><use style="fill: none; stroke: #000000; stroke-width: 0.500000; stroke-linejoin: round; stroke-linecap: butt;  opacity: 1.000000" xlink:href="#m20b58b2501143cb5e0a5e8f1ef6f1643" x="518.400000" y="43.200000"/>
</g></g>
<g id="text14">
<g style="fill: #000000; opacity: 1.000000" transform="translate(54.390625,47.567187)scale(0.120000)">
<use xlink:href="#c_ed3f3ed3ebfbd18bcb9c012009a68ad1"/>
<use xlink:href="#c_7a2040fe3b94fcd41d0a72c84e93b115" x="63.623047"/>
</g>
</g>
</g>
</g>
<g id="patch3">
<path style="fill: none; stroke: #000000; stroke-width: 1.000000; stroke-linejoin: round; stroke-linecap: square;  opacity: 1.000000"  d="M72.000000 43.200000L518.400000 43.200000"/>
</g>
<g id="patch4">
<path style="fill: none; stroke: #000000; stroke-width: 1.000000; stroke-linejoin: round; stroke-linecap: square;  opacity: 1.000000"  d="M518.400000 388.800000L518.400000 43.200000"/>
</g>
<g id="patch5">
<path style="fill: none; stroke: #000000; stroke-width: 1.000000; stroke-linejoin: round; stroke-linecap: square;  opacity: 1.000000"  d="M72.000000 388.800000L518.400000 388.800000"/>
</g>
<g id="patch6">
<path style="fill: none; stroke: #000000; stroke-width: 1.000000; stroke-linejoin: round; stroke-linecap: square;  opacity: 1.000000"  d="M72.000000 388.800000L72.000000 43.200000"/>
</g>
</g>
</g>
</svg>
