<?xml version="1.0" standalone="no"?>
<!DOCTYPE svg PUBLIC "-//W3C//DTD SVG 1.1//EN"
  "http://www.w3.org/Graphics/SVG/1.1/DTD/svg11.dtd">
<!-- Created with matplotlib (http://matplotlib.sourceforge.net/) -->
<svg width="576pt" height="432pt" viewBox="0 0 576 432"
   xmlns="http://www.w3.org/2000/svg"
   xmlns:xlink="http://www.w3.org/1999/xlink"
   version="1.1"
   id="svg1">
<g id="figure1">
<g id="patch1">
<path style="fill: #ffffff; stroke: #ffffff; stroke-width: 1.000000; stroke-linejoin: round; stroke-linecap: square;  opacity: 1.000000"  d="M0.000000 432.000000L576.000000 432.000000L576.000000 0.000000
L0.000000 0.000000L0.000000 432.000000"/>
</g>
<g id="axes1">
<g id="patch2">
<path style="fill: #ffffff; opacity: 1.000000"  d="M72.000000 388.800000L518.400000 388.800000L518.400000 43.200000
L72.000000 43.200000L72.000000 388.800000"/>
</g>
<g id="line2d1">
<defs>
  <clipPath id="p50431ccdcb28178602d99d9270004dde">
<rect x="72.000000" y="43.200000" width="446.400000" height="345.600000"/>
  </clipPath>
</defs><path style="fill: none; stroke: #ff0000; stroke-width: 1.000000; stroke-linejoin: round; stroke-linecap: square;  opacity: 1.000000" clip-path="url(#p50431ccdcb28178602d99d9270004dde)" d="M72.000000 295.727487L72.312480 297.029417L72.312480 297.029417
L72.491040 295.744269L72.491040 295.744269L72.535680 292.014167
L72.714240 289.215899L72.892800 318.751801L72.982080 279.887782
L73.249920 296.423664L73.294560 283.081126L73.562400 290.014055
L73.830240 325.941498L73.919520 299.161175L74.008800 295.438510
L74.142720 295.983010L74.232000 300.361734L74.321280 332.464615
L74.365920 296.032126L74.678400 332.862483L74.723040 318.686690
L74.901600 330.550115L74.946240 296.799635L75.214080 294.759862
L75.258720 295.954187L75.481920 331.767166L75.526560 318.101672
L75.705120 319.042437L75.749760 295.895642L76.151520 332.820873
L76.419360 283.174479L76.508640 295.237827L76.865760 332.722571
L77.044320 293.247489L77.178240 331.718865L77.222880 333.435378
L77.580000 272.595069L77.981760 333.239035L78.249600 284.350943
L78.294240 295.425681L78.428160 294.248637L78.472800 295.922945
L78.696000 295.353534L78.696000 295.353534L78.829920 295.342254
L79.008480 331.791220L79.365600 282.645960L79.544160 333.132162
L79.678080 332.196678L79.901280 322.571939L80.213760 333.240266
L80.213760 333.240266L80.392320 294.879412L80.570880 295.294395
L80.928000 332.770388L81.240480 294.684314L81.463680 282.749861
L81.597600 321.970830L81.865440 332.778420L82.222560 317.942213
L82.356480 322.632903L82.535040 295.536882L82.579680 322.603776
L82.802880 332.342452L82.802880 332.342452L83.070720 294.249881
L83.115360 321.764618L83.293920 295.755619L83.472480 332.363147
L83.874240 295.184854L84.052800 332.507898L84.186720 318.914814
L84.499200 290.051836L84.543840 294.644003L84.900960 333.535643
L84.990240 331.892108L85.034880 332.948427L85.079520 294.474051
L85.347360 322.278069L85.525920 332.286258L85.570560 322.252328
L85.704480 308.654531L85.793760 322.198166L86.016960 332.022662
L86.106240 296.244823L86.240160 295.257941L86.463360 321.345322
L86.597280 295.656141L86.775840 322.568082L86.954400 287.239371
L87.043680 321.872016L87.266880 295.321366L87.356160 332.257863
L87.668640 332.739713L87.668640 332.739713L87.936480 333.119582
L87.981120 321.963545L88.204320 321.615761L88.204320 321.615761
L88.338240 333.287682L88.561440 331.910521L88.963200 294.478406
L89.007840 297.951174L89.052480 333.302045L89.320320 331.878588
L89.677440 294.014389L89.722080 320.799882L90.034560 320.759834
L90.079200 332.120757L90.302400 294.947495L90.391680 322.285741
L90.480960 332.662174L90.614880 333.545804L90.838080 308.696445
L90.927360 332.211650L91.150560 322.790137L91.418400 331.791898
L91.463040 322.727045L91.775520 333.846780L92.088000 288.705849
L92.132640 310.025139L92.489760 332.946298L92.802240 296.874672
L92.846880 299.174916L93.025440 332.616209L93.204000 322.122189
L93.382560 333.203217L93.516480 319.166355L93.828960 332.428825
L94.052160 290.972819L94.186080 323.120780L94.320000 311.283247
L94.453920 323.190176L94.632480 310.645698L94.677120 324.038790
L94.900320 333.506281L94.989600 322.825430L95.168160 308.745797
L95.302080 322.484240L95.436000 332.336881L95.614560 319.818019
L95.748480 314.135042L95.837760 322.075575L95.927040 324.221073
L96.105600 311.457457L96.284160 296.206212L96.418080 321.872155
L96.685920 307.209411L96.775200 315.072350L96.953760 332.619333
L97.043040 332.471002L97.310880 333.099454L97.355520 307.746225
L97.578720 332.920821L97.668000 322.711589L97.935840 293.984294
L97.980480 322.334678L98.426880 333.810520L98.784000 310.030157
L98.962560 321.204525L99.051840 318.130260L99.185760 322.533854
L99.364320 316.379437L99.632160 334.833205L99.676800 294.862519
L99.944640 311.872108L100.078560 333.709826L100.301760 323.609071
L100.391040 308.551127L100.480320 321.435123L100.792800 318.971078
L100.792800 318.971078L100.926720 311.949868L101.149920 322.174140
L101.373120 333.111080L101.685600 297.640065L101.998080 292.929869
L102.042720 331.699346L102.399840 291.217614L102.801600 332.241261
L103.114080 308.402160L103.158720 319.903354L103.203360 318.816014
L103.292640 317.404777L103.515840 322.549282L103.694400 333.772504
L103.828320 314.911010L103.872960 317.924518L104.051520 333.214152
L104.140800 321.342364L104.230080 322.667477L104.408640 309.055606
L104.497920 321.474134L104.631840 322.361635L104.631840 322.361635
L104.810400 332.592515L104.899680 297.649963L105.167520 309.796545
L105.346080 322.769263L105.524640 318.500799L105.747840 326.858928
L106.015680 333.403043L106.060320 313.525514L106.372800 322.233044
L106.640640 332.295865L106.908480 333.293640L106.953120 331.959071
L107.042400 333.345411L107.176320 319.822000L107.399520 321.368961
L107.488800 308.301949L107.712000 318.427449L107.890560 332.628360
L107.935200 318.187381L108.203040 333.469564L108.247680 331.840406
L108.381600 333.149428L108.694080 320.914207L108.961920 332.967408
L109.006560 331.621157L109.185120 332.625540L109.274400 322.032872
L109.586880 333.760974L109.631520 331.631871L110.033280 320.222951
L110.256480 312.103688L110.345760 318.967953L110.702880 333.068917
L110.747520 331.308970L111.060000 333.267430L111.060000 333.267430
L111.238560 320.513795L111.551040 321.261728L111.774240 333.078138
L111.863520 317.906768L112.042080 332.700563L112.220640 332.514229
L112.354560 319.243120L112.443840 322.047913L112.622400 321.562096
L112.622400 321.562096L112.711680 331.836632L112.934880 322.907033
L113.202720 319.075490L113.202720 319.075490L113.292000 321.265682
L113.470560 333.453694L113.604480 306.953626L113.738400 295.296952
L113.827680 322.155809L114.140160 333.491337L114.363360 308.508687
L114.497280 318.581448L114.541920 320.004159L114.586560 318.862172
L114.899040 322.351184L114.899040 322.351184L115.166880 332.691716
L115.568640 318.250225L115.747200 315.862392L115.747200 315.862392
L115.881120 332.316214L115.925760 308.188606L116.148960 332.716447
L116.282880 331.339355L116.416800 332.686214L116.595360 322.080510
L116.907840 317.625090L116.907840 317.625090L117.264960 332.268314
L117.443520 308.555551L117.622080 321.599739L117.889920 333.073977
L117.934560 313.754840L118.247040 320.030978L118.291680 332.602067
L118.514880 332.327951L118.738080 333.309925L118.827360 320.704455
L119.095200 317.567748L119.184480 332.281488L119.407680 319.365145
L119.452320 322.055309L119.541600 333.077571L119.586240 294.702230
L119.854080 321.222662L120.077280 333.125029L120.121920 313.164500
L120.389760 332.593593L120.523680 333.128761L120.523680 333.128761
L120.568320 308.389165L120.836160 327.787555L121.193280 317.704910
L121.639680 333.373114L121.996800 311.991575L122.175360 294.700903
L122.309280 322.570737L122.621760 332.548720L122.844960 333.107182
L122.934240 321.639234L123.291360 333.230064L123.380640 319.338644
L123.648480 322.072616L123.871680 321.078671L123.960960 326.720729
L124.184160 310.915003L124.228800 321.628700L124.407360 320.341990
L124.496640 321.739265L124.675200 332.214483L124.898400 307.427498
L125.032320 318.011540L125.210880 321.736997L125.478720 322.948464
L125.523360 313.432340L125.701920 308.714872L125.835840 332.528606
L126.148320 332.803828L126.148320 332.803828L126.326880 316.555693
L126.371520 322.167643L126.594720 332.189946L126.639360 308.257823
L126.907200 331.690609L127.085760 333.063540L127.264320 318.867287
L127.532160 332.917503L127.576800 321.770783L127.666080 332.019454
L127.755360 321.922488L127.978560 331.965873L128.023200 322.411844
L128.201760 328.585711L128.335680 322.634949L128.424960 317.205421
L128.648160 320.396443L129.005280 313.523330L129.139200 331.952132
L129.362400 318.664807L129.496320 314.859488L129.674880 331.814583
L130.076640 308.146734L130.255200 332.531910L130.344480 321.962647
L130.523040 323.192499L130.746240 332.744440L130.790880 322.117337
L131.058720 309.505550L131.103360 321.538664L131.192640 295.045632
L131.371200 308.386428L131.415840 307.066844L131.460480 334.885004
L131.728320 321.621539L131.817600 332.902131L132.085440 331.271853
L132.442560 304.486235L132.487200 319.656845L132.755040 332.931216
L132.888960 332.397126L133.156800 319.873232L133.201440 332.250965
L133.469280 292.354832L133.603200 320.775414L133.692480 332.582506
L133.826400 321.590712L133.960320 332.940078L134.004960 321.708575
L134.317440 320.748415L134.317440 320.748415L134.406720 331.126618
L134.496000 322.224362L134.629920 332.146898L134.897760 332.654100
L134.987040 318.973137L135.076320 315.252366L135.299520 318.797172
L135.388800 332.783728L135.433440 322.100665L135.656640 321.786031
L135.745920 332.595653L135.924480 310.660103L136.103040 321.670048
L136.236960 326.911486L136.236960 326.911486L136.460160 322.010878
L136.460160 322.010878L136.728000 333.084912L136.728000 333.084912
L136.995840 320.487971L137.040480 323.007769L137.129760 290.872388
L137.352960 321.524426L137.442240 322.623641L137.665440 321.413239
L137.754720 332.514492L137.933280 321.203101L138.022560 321.489603
L138.290400 332.594878L138.379680 308.680451L138.647520 319.212030
L138.781440 310.765359L139.093920 332.135313L139.183200 308.252128
L139.451040 308.936941L139.674240 332.677200L139.718880 322.626586
L139.852800 321.090186L140.076000 332.399338L140.343840 308.709329
L140.567040 317.492698L140.656320 321.915756L140.745600 332.984356
L140.968800 319.569187L141.058080 329.077389L141.102720 322.064170
L141.192000 332.913314L141.415200 310.397184L141.593760 300.234553
L141.727680 325.147945L141.995520 333.005479L142.040160 321.846179
L142.397280 333.187154L142.486560 313.309721L142.754400 322.206557
L142.977600 319.354334L143.111520 332.618448L143.245440 320.423634
L143.424000 323.245942L143.513280 320.718901L143.602560 332.796640
L143.870400 329.087467L144.138240 308.161442L144.227520 321.447122
L144.361440 321.655145L144.361440 321.655145L144.495360 332.481923
L144.673920 319.374932L144.718560 320.893291L144.852480 332.281295
L144.897120 321.752549L145.164960 332.603643L145.477440 333.482822
L145.522080 321.856077L145.834560 321.451781L145.879200 332.208470
L146.280960 309.204767L146.504160 332.280742L146.593440 330.666237
L146.638080 312.097840L146.816640 318.411814L146.995200 331.552203
L147.129120 321.305191L147.263040 322.593021L147.352320 322.186029
L147.530880 322.395476L147.530880 322.395476L147.843360 332.381947
L148.021920 313.476342L148.155840 321.269055L148.245120 308.042362
L148.423680 321.349829L148.557600 324.498397L148.646880 318.840358
L148.825440 305.559143L149.004000 332.508893L149.093280 308.653618
L149.316480 322.304321L149.584320 320.881126L149.628960 322.765614
L149.762880 322.885025L149.762880 322.885025L150.030720 332.576271
L150.298560 321.253475L150.387840 321.682171L150.521760 306.374718
L150.611040 318.598507L150.744960 322.335259L150.923520 303.492414
L151.146720 307.735000L151.280640 332.057775L151.503840 321.601011
L151.816320 321.184494L151.860960 332.677726L152.173440 332.810215
L152.218080 322.182545L152.307360 317.963087L152.352000 332.965389
L152.619840 318.572559L152.753760 332.232455L152.932320 322.650183
L153.021600 317.184740L153.155520 321.855939L153.289440 320.925418
L153.289440 320.925418L153.378720 332.720718L153.557280 331.951413
L153.735840 332.120577L153.914400 321.691433L154.137600 332.882929
L154.316160 321.479802L154.450080 330.741094L154.494720 331.897900
L154.762560 281.467575L154.851840 310.348662L155.164320 332.898730
L155.253600 332.121890L155.476800 332.760103L155.566080 332.516635
L155.655360 322.137589L155.878560 322.693494L156.057120 318.683815
L156.101760 332.748961L156.414240 333.428908L156.503520 321.482885
L156.860640 333.359940L157.173120 186.268972L157.217760 200.343684
L157.440960 331.905614L157.574880 319.003619L157.708800 332.179813
L157.887360 332.626757L158.065920 319.082416L158.155200 332.261029
L158.333760 319.573445L158.556960 309.210366L158.601600 319.940292
L158.690880 321.101052L158.914080 333.309082L159.003360 317.347711
L159.360480 333.270015L159.672960 319.848362L159.806880 320.299523
L160.030080 333.414020L160.074720 322.694088L160.164000 321.499750
L160.387200 318.211020L160.521120 333.102261L160.610400 305.237376
L160.878240 321.911774L161.056800 322.417677L161.056800 322.417677
L161.324640 308.344735L161.547840 307.423434L161.681760 331.236588
L162.083520 309.568007L162.351360 332.918816L162.396000 322.345848
L162.619200 317.711573L162.797760 332.705553L162.976320 333.320251
L163.199520 318.888604L163.288800 332.717815L163.422720 321.093380
L163.601280 322.233528L163.645920 307.446354L163.690560 332.199319
L163.913760 322.049987L164.092320 312.379615L164.226240 317.462257
L164.538720 329.225735L164.583360 321.068994L164.717280 332.135313
L164.761920 322.405526L165.029760 332.876446L165.029760 332.876446
L165.386880 307.939374L165.744000 332.585755L166.011840 322.034697
L166.279680 332.759426L166.458240 295.419074L166.681440 308.498651
L167.083200 332.696734L167.172480 320.917787L167.351040 321.729947
L167.574240 333.230133L167.752800 333.546149L167.842080 332.784848
L168.065280 332.983609L168.154560 330.838871L168.199200 332.123134
L168.467040 332.627683L168.467040 332.627683L168.600960 322.362160
L168.779520 322.605725L169.092000 332.962196L169.359840 308.200343
L169.449120 322.437736L169.672320 333.013704L169.761600 332.263697
L170.029440 333.330937L170.074080 321.409106L170.431200 332.718534
L170.609760 278.368524L170.743680 318.721789L171.011520 332.124033
L171.234720 309.660752L171.368640 321.404019L171.502560 308.644218
L171.681120 322.051452L171.815040 320.857390L171.904320 321.758991
L172.172160 333.334435L172.216800 322.332826L172.350720 321.161186
L172.440000 332.014464L172.663200 322.313541L173.064960 332.837877
L173.422080 321.115830L173.466720 322.220312L173.734560 319.538829
L173.779200 332.677878L174.091680 332.911282L174.091680 332.911282
L174.180960 321.358856L174.493440 322.145358L174.850560 332.338208
L175.029120 310.998597L175.207680 322.618084L175.520160 332.542582
L175.788000 318.766980L175.877280 320.898475L176.100480 322.268046
L176.145120 312.623857L176.412960 333.234930L176.502240 319.105599
L176.770080 332.549633L176.814720 322.272926L177.082560 318.492961
L177.127200 321.847036L177.350400 332.743556L177.484320 332.365372
L177.662880 307.136877L177.841440 322.194116L178.064640 331.873570
L178.109280 324.087575L178.332480 305.030790L178.421760 318.168332
L178.600320 332.988282L178.734240 322.540504L178.823520 323.872750
L178.823520 323.872750L179.136000 333.105620L179.448480 314.664805
L179.493120 322.976761L179.627040 317.620722L179.671680 322.747546
L179.760960 332.558673L179.984160 327.097461L180.296640 309.782140
L180.341280 322.337595L180.609120 310.377167L180.653760 332.161662
L180.966240 308.930872L181.010880 321.570294L181.144800 332.305072
L181.189440 317.955857L181.501920 333.140000L181.859040 308.494172
L182.216160 333.520050L182.484000 308.494075L182.528640 322.239610
L182.707200 321.175480L182.975040 332.376902L183.242880 305.583197
L183.376800 322.519574L183.510720 322.917954L183.510720 322.917954
L183.867840 332.890159L184.180320 299.963714L184.269600 308.042597
L184.537440 332.657639L184.671360 321.879039L184.805280 332.569539
L184.894560 322.332273L185.117760 321.055350L185.251680 331.642820
L185.608800 321.664560L185.921280 321.049074L185.921280 321.049074
L186.099840 332.395813L186.412320 262.214876L186.724800 332.716778
L186.769440 321.846732L187.037280 332.692531L187.081920 322.901794
L187.171200 321.875141L187.439040 318.575241L187.483680 320.200487
L187.572960 314.258462L187.617600 322.074856L187.796160 331.703479
L187.930080 331.667164L188.242560 308.621588L188.331840 333.025441
L188.421120 322.175813L188.644320 314.715000L188.688960 318.400976
L189.001440 313.449855L189.046080 331.342189L189.358560 306.230326
L189.403200 333.412679L189.715680 320.835921L189.894240 332.739643
L189.938880 322.483742L190.206720 332.442386L190.251360 321.392669
L190.385280 308.399215L190.563840 321.207276L190.653120 332.884975
L190.876320 321.621830L190.920960 332.859802L191.188800 332.327495
L191.412000 333.252210L191.545920 320.662527L191.635200 321.725206
L191.635200 321.725206L191.903040 332.447238L191.947680 321.303795
L192.170880 332.836605L192.260160 322.095855L192.528000 322.357667
L192.528000 322.357667L192.751200 333.394072L192.929760 307.189477
L193.108320 322.164021L193.420800 332.246845L193.688640 309.564564
L193.733280 322.092855L194.045760 321.273423L194.045760 321.273423
L194.135040 332.040730L194.179680 321.653072L194.358240 322.336945
L194.492160 321.028987L194.536800 322.144225L194.804640 333.025869
L194.849280 316.654687L194.983200 309.363439L195.206400 332.189877
L195.384960 306.159478L195.518880 318.395709L195.786720 315.245703
L195.831360 318.568841L196.099200 333.365014L196.143840 309.117552
L196.411680 308.997131L196.500960 327.503002L196.724160 308.630200
L196.902720 315.836569L197.081280 332.602551L197.304480 332.460219
L197.483040 330.458144L197.527680 331.984535L197.795520 320.919861
L197.840160 322.125949L198.063360 322.171320L198.197280 318.793826
L198.286560 332.275005L198.420480 321.684770L198.554400 332.454565
L198.732960 317.939406L198.822240 332.707129L199.000800 332.713419
L199.134720 323.208327L199.268640 331.439704L199.447200 320.379785
L199.625760 331.964698L199.893600 332.394624L199.893600 332.394624
L200.161440 320.806656L200.429280 332.816242L200.473920 321.490211
L200.652480 332.466771L200.831040 332.416452L201.277440 309.241650
L201.500640 331.837226L201.679200 320.899567L201.947040 332.199526
L201.991680 321.994926L202.304160 331.908973L202.616640 318.303586
L202.661280 321.707027L202.973760 333.065033L203.375520 320.022255
L203.509440 332.310864L203.598720 308.767984L203.777280 321.863805
L204.045120 323.023321L204.045120 323.023321L204.179040 320.701884
L204.223680 321.916502L204.536160 332.611606L204.804000 309.558233
L204.848640 322.224805L204.937920 319.953770L205.205760 332.036389
L205.428960 305.899891L205.562880 321.280501L205.830720 320.105392
L205.875360 321.790690L205.964640 318.938550L206.187840 321.342806
L206.500320 332.124724L206.723520 307.703094L206.812800 322.952030
L206.902080 321.393305L207.125280 320.822415L207.214560 332.901661
L207.527040 309.101640L207.571680 322.509317L207.794880 332.769517
L207.884160 321.790399L208.018080 318.594512L208.062720 331.584980
L208.152000 308.933858L208.419840 321.205948L208.732320 319.040433
L208.732320 319.040433L209.000160 332.768757L209.312640 308.063665
L209.446560 309.392732L209.625120 309.126758L209.759040 322.336475
L209.937600 322.753310L209.982240 321.734855L210.205440 322.772844
L210.294720 321.620019L210.473280 318.426951L210.517920 332.275351
L210.830400 332.415954L210.875040 322.088943L211.142880 332.215078
L211.321440 333.020423L211.366080 321.779548L211.500000 332.182260
L211.589280 331.108923L211.723200 331.883219L211.857120 322.061695
L212.035680 333.240321L212.169600 322.796648L212.258880 331.461587
L212.482080 320.742305L212.660640 332.707848L212.794560 331.976738
L213.062400 319.754484L213.196320 321.479871L213.330240 309.791071
L213.419520 322.166564L213.642720 322.319928L213.732000 310.040331
L214.089120 332.548983L214.446240 308.403431L214.669440 332.751767
L214.803360 322.500525L214.981920 332.087759L215.071200 320.762654
L215.249760 328.109336L215.562240 167.346695L215.606880 215.177417
L215.740800 333.140470L215.874720 321.074703L216.008640 322.649395
L216.142560 332.373542L216.365760 319.601618L216.455040 332.554789
L216.633600 331.472646L216.901440 332.605108L216.990720 322.249564
L217.124640 320.592757L217.169280 321.607826L217.303200 331.991710
L217.437120 322.960228L217.749600 332.653561L217.838880 331.551415
L218.240640 320.831318L218.285280 322.338203L218.508480 318.945849
L218.597760 332.264098L218.776320 332.534924L218.910240 320.952402
L219.133440 332.921166L219.178080 331.566691L219.490560 332.409747
L219.579840 321.763429L219.803040 320.530770L219.892320 320.863915
L220.115520 332.172583L220.204800 310.264930L220.472640 308.909805
L220.517280 321.431957L220.785120 332.716018L220.829760 321.398406
L221.052960 313.890993L221.186880 319.069726L221.276160 333.267402
L221.499360 332.118503L221.767200 320.289721L221.856480 321.269470
L221.901120 333.206245L221.945760 321.810306L222.258240 332.491268
L222.302880 331.279857L222.481440 318.487058L222.660000 321.275995
L222.883200 309.997947L223.017120 331.429571L223.151040 332.435142
L223.374240 321.975019L223.552800 332.956445L223.642080 310.066237
L223.865280 321.288118L223.999200 322.099642L223.999200 322.099642
L224.311680 320.403921L224.356320 332.039900L224.713440 317.876687
L224.892000 308.727397L225.025920 332.036790L225.383040 305.236685
L225.472320 332.736574L225.695520 321.172633L225.874080 331.795105
L226.231200 308.362720L226.275840 321.857487L226.499040 320.711505
L226.811520 318.436517L226.856160 331.791676L227.124000 332.399089
L227.168640 321.307043L227.436480 320.795058L227.481120 332.197936
L227.838240 320.840400L227.927520 321.921506L228.106080 319.356698
L228.150720 321.785326L228.195360 329.424648L228.418560 333.175459
L228.507840 331.448675L228.775680 294.674153L228.820320 321.355220
L229.043520 310.025470L229.177440 331.777963L229.400640 319.656237
L229.534560 322.413807L229.847040 332.982725L230.070240 309.377000
L230.159520 321.194654L230.472000 333.377483L230.829120 309.989169
L231.141600 332.187098L231.186240 321.103623L231.409440 332.423682
L231.454080 322.321794L231.721920 333.452671L231.766560 308.754630
L232.034400 331.902158L232.346880 320.268584L232.704000 331.901923
L232.971840 332.606021L233.016480 322.122106L233.284320 318.925389
L233.462880 332.013787L233.552160 330.208040L233.864640 320.738559
L233.909280 322.355248L234.177120 320.773713L234.177120 320.773713
L234.534240 278.201613L234.712800 332.714055L234.891360 320.008085
L235.203840 333.071295L235.605600 308.603824L235.918080 332.821039
L236.185920 320.644583L236.230560 330.889232L236.275200 332.001981
L236.587680 319.699547L236.632320 321.911608L236.855520 319.065440
L236.944800 331.107637L237.168000 295.109858L237.301920 320.265833
L237.435840 333.892717L237.614400 332.121628L237.882240 333.147396
L237.971520 322.436395L238.105440 308.028359L238.284000 321.576418
L238.462560 333.113859L238.641120 322.953413L238.775040 318.968161
L238.819680 332.657667L239.087520 331.691604L239.355360 332.117674
L239.444640 322.250338L239.757120 322.175246L239.801760 331.237140
L240.203520 320.656472L240.426720 308.587332L240.560640 330.929280
L240.783840 331.675652L240.873120 321.381610L241.007040 331.935252
L241.051680 321.685793L241.319520 319.631699L241.453440 331.740362
L241.765920 294.685157L241.810560 323.658782L241.944480 320.876633
L241.989120 322.319375L242.123040 308.119196L242.301600 331.993203
L242.435520 307.422328L242.614080 321.804085L242.837280 320.640422
L242.926560 308.805820L243.060480 322.064405L243.239040 332.528869
L243.372960 321.087131L243.506880 321.152422L243.506880 321.152422
L243.864000 333.001359L244.131840 320.074813L244.176480 322.230791
L244.265760 321.118595L244.399680 292.232766L244.444320 321.454227
L244.578240 332.769946L244.667520 322.482581L244.801440 321.359118
L244.980000 332.385127L245.069280 322.390015L245.247840 319.084103
L245.471040 308.295908L245.471040 308.295908L245.560320 335.812207
L245.694240 308.310534L245.917440 332.825988L246.051360 333.059296
L246.185280 321.257388L246.274560 332.099095L246.363840 322.518316
L246.676320 322.040835L246.676320 322.040835L246.899520 323.215543
L246.944160 320.722966L247.167360 319.902497L247.256640 322.260650
L247.479840 331.852170L247.747680 332.546854L247.792320 322.610190
L248.015520 321.755812L248.015520 321.755812L248.283360 332.038877
L248.328000 326.584839L248.551200 319.767907L248.640480 321.028199
L248.908320 306.265038L248.952960 321.614572L249.265440 320.719192
L249.265440 320.719192L249.399360 322.316569L249.488640 332.513040
L249.577920 322.558972L249.756480 321.439339L249.801120 322.562000
L250.113600 332.716364L250.158240 320.624290L250.470720 322.644709
L250.560000 332.302432L250.738560 322.720409L251.006400 320.374186
L251.051040 322.184425L251.363520 332.662685L251.631360 333.047338
L251.676000 322.137769L251.854560 332.574032L251.988480 322.655713
L252.077760 320.941882L252.345600 332.046867L252.390240 321.907682
L252.613440 307.770223L252.702720 317.589189L253.015200 332.539804
L253.149120 332.319629L253.193760 309.070039L253.461600 332.006087
L253.863360 320.514278L254.131200 333.372520L254.220480 331.839673
L254.265120 320.871739L254.354400 322.080800L254.622240 332.299155
L254.890080 332.606919L255.024000 321.378997L255.247200 309.109271
L255.336480 321.308509L255.515040 321.092605L255.515040 321.092605
L255.604320 308.041256L255.872160 330.443477L255.961440 321.636801
L256.006080 331.961325L256.050720 307.278213L256.318560 320.243826
L256.363200 332.307878L256.675680 331.811984L256.943520 332.028509
L257.032800 321.321959L257.211360 332.460233L257.389920 308.206163
L257.479200 321.930547L257.702400 318.637629L257.791680 331.833508
L258.014880 331.885016L258.104160 331.374275L258.372000 304.529062
L258.461280 322.224404L258.773760 333.119292L258.818400 331.677518
L258.863040 307.603644L259.041600 321.567764L259.264800 320.274529
L259.621920 332.069525L259.755840 332.257061L259.845120 322.409328
L260.068320 332.639018L260.157600 322.594390L260.246880 320.917359
L260.291520 322.352677L260.559360 320.796012L260.559360 320.796012
L260.693280 304.884200L260.827200 317.874613L261.139680 332.955021
L261.452160 309.004333L261.541440 321.309850L261.809280 332.838001
L261.853920 331.771452L261.943200 317.327100L262.121760 321.013076
L262.300320 319.231466L262.523520 332.549881L262.880640 308.913938
L263.237760 332.900693L263.282400 308.511162L263.550240 332.735565
L263.639520 306.976352L263.907360 309.187183L264.085920 332.320707
L264.264480 322.374422L264.443040 332.522911L264.532320 316.779269
L264.576960 333.078027L264.889440 332.407024L265.201920 308.854315
L265.246560 332.928728L265.425120 320.690009L265.603680 322.064433
L265.603680 322.064433L266.005440 331.944487L266.228640 332.389634
L266.407200 321.910364L266.585760 333.156755L266.675040 294.636442
L266.942880 321.247255L267.166080 318.471077L267.210720 321.705188
L267.523200 308.190099L267.701760 332.145598L267.880320 330.137773
L267.969600 332.689089L268.192800 320.760539L268.416000 333.050421
L268.549920 330.213294L268.862400 321.234854L268.907040 322.514819
L269.219520 320.766898L269.219520 320.766898L269.308800 333.279830
L269.576640 322.603182L269.710560 333.031662L269.889120 321.908691
L270.201600 321.177720L270.201600 321.177720L270.558720 332.819118
L270.871200 308.727134L270.915840 320.828581L271.228320 333.051070
L271.362240 308.578236L271.540800 332.342521L271.764000 319.302840
L271.897920 323.430368L272.210400 333.376349L272.656800 295.456343
L272.880000 332.454496L273.013920 332.248228L273.460320 307.150189
L273.638880 333.360535L273.817440 322.289156L273.906720 308.954249
L273.951360 321.139192L274.040640 333.040882L274.174560 322.381417
L274.353120 332.444307L274.487040 307.953903L274.754880 332.753910
L274.844160 331.535131L275.245920 309.558275L275.513760 332.156201
L275.736960 314.510087L275.781600 322.816306L276.004800 322.433354
L276.004800 322.433354L276.361920 308.953046L276.719040 335.436816
L276.986880 335.538008L277.031520 321.120143L277.254720 321.090089
L277.299360 332.261955L277.433280 332.407356L277.567200 322.582750
L277.745760 319.170558L277.879680 320.867302L277.968960 332.736436
L278.058240 331.568986L278.147520 332.999286L278.281440 332.750440
L278.549280 295.618789L278.683200 322.485304L278.772480 308.219393
L278.995680 321.029762L279.218880 332.250854L279.263520 322.032485
L279.486720 332.188646L279.486720 332.188646L279.620640 330.082836
L279.888480 308.905768L279.977760 320.768294L280.067040 323.326744
L280.111680 322.032250L280.200960 332.099440L280.379520 322.431958
L280.558080 320.871131L280.647360 332.719322L280.959840 187.883629
L281.004480 251.464504L281.093760 332.948289L281.361600 323.253172
L281.674080 320.730099L281.718720 332.452035L282.165120 319.098480
L282.209760 333.452146L282.432960 322.741615L282.656160 332.325628
L282.745440 322.033771L282.879360 322.672177L282.879360 322.672177
L283.102560 322.120544L283.147200 331.548581L283.325760 332.877012
L283.370400 322.065442L283.504320 333.044532L283.682880 323.164339
L283.861440 333.083626L283.950720 332.504470L284.263200 315.233040
L284.486400 305.351908L284.575680 331.095085L285.066720 309.585148
L285.379200 332.475190L285.691680 318.378540L286.004160 333.269780
L286.227360 308.142462L286.316640 331.851908L286.405920 332.895868
L286.763040 318.393290L286.807680 321.993764L287.030880 333.262923
L287.120160 321.859036L287.254080 321.971563L287.254080 321.971563
L287.388000 321.361427L287.432640 322.440777L287.700480 308.772864
L287.745120 335.495983L288.012960 321.707345L288.102240 322.934363
L288.146880 321.707898L288.236160 309.568905L288.504000 332.646027
L288.905760 318.421435L289.084320 332.593703L289.218240 321.486700
L289.307520 322.700129L289.486080 332.664883L289.620000 308.223982
L289.932480 333.299916L289.977120 330.570340L290.334240 320.172231
L290.423520 322.670504L290.646720 333.347457L290.736000 320.905968
L290.825280 318.985786L291.048480 319.810264L291.137760 331.311030
L291.405600 307.456211L291.450240 325.342476L291.584160 321.553622
L291.673440 322.290165L291.941280 332.777203L291.985920 322.013546
L292.164480 308.327441L292.343040 309.501016L292.700160 332.642129
L292.923360 308.809014L293.012640 332.265798L293.101920 332.106739
L293.101920 332.106739L293.369760 332.545181L293.414400 321.355953
L293.682240 333.339605L293.726880 308.478482L294.039360 318.585098
L294.173280 333.451870L294.441120 330.242918L294.664320 319.325954
L294.753600 322.739376L294.932160 309.396700L294.976800 320.643464
L295.021440 332.789133L295.066080 321.082846L295.467840 332.697093
L295.646400 333.363811L295.691040 321.927312L295.824960 332.441639
L295.958880 332.353954L296.182080 332.388044L296.271360 322.572866
L296.539200 333.006087L296.583840 331.426391L296.762400 330.370500
L296.807040 332.320334L297.074880 332.999465L297.119520 322.176601
L297.208800 321.096988L297.387360 332.486332L297.565920 331.979462
L297.878400 321.011804L298.056960 308.390561L298.235520 332.154529
L298.458720 309.356859L298.548000 332.012460L298.592640 333.687279
L298.681920 301.546119L298.905120 321.490612L299.128320 321.104936
L299.172960 322.262641L299.351520 331.919272L299.396160 322.349940
L299.664000 332.784323L299.664000 332.784323L299.753280 320.996349
L300.065760 321.942007L300.467520 332.610126L300.601440 309.048584
L300.824640 322.771834L301.047840 332.078206L301.360320 318.766634
L301.404960 325.840486L301.628160 322.205396L301.672800 331.401978
L301.896000 307.921513L301.985280 331.976089L302.431680 305.077087
L302.476320 331.903651L302.788800 321.938206L302.878080 322.200889
L302.878080 322.200889L303.012000 317.970884L303.235200 332.239173
L303.547680 257.894309L303.592320 322.158795L303.770880 332.627572
L304.083360 333.424263L304.083360 333.424263L304.261920 321.596684
L304.306560 333.268840L304.529760 333.362843L304.619040 332.232040
L304.976160 309.495624L305.244000 332.896822L305.645760 321.022145
L305.735040 322.647418L306.002880 321.375555L306.047520 322.529901
L306.136800 320.823881L306.181440 322.193452L306.404640 307.888294
L306.449280 321.791975L306.717120 307.621256L306.761760 317.939047
L307.118880 332.906223L307.208160 307.857148L307.476000 321.465328
L307.743840 332.660570L307.967040 332.965362L308.100960 321.198041
L308.145600 322.928751L308.413440 333.598335L308.458080 321.004934
L308.547360 332.119761L308.725920 321.704691L308.993760 320.904212
L309.083040 330.280202L309.440160 310.261612L309.752640 333.196789
L309.886560 308.990951L310.109760 322.112941L310.377600 321.932593
L310.377600 321.932593L310.600800 332.809676L310.913280 332.843158
L311.002560 309.699431L311.047200 307.702237L311.270400 332.516192
L311.359680 321.222302L311.627520 333.091036L311.672160 322.056719
L311.761440 320.591762L311.895360 322.281967L312.163200 332.742851
L312.207840 322.620572L312.386400 320.679918L312.431040 332.218271
L312.654240 332.060512L312.832800 332.972564L313.011360 318.320617
L313.056000 332.357313L313.323840 323.598814L313.413120 310.159591
L313.457760 321.613521L313.814880 332.935654L314.261280 295.922765
L314.484480 332.607251L314.618400 320.114986L314.886240 332.814998
L314.930880 322.787704L315.064800 308.684833L315.154080 321.800906
L315.243360 321.653957L315.421920 322.149823L315.600480 331.996949
L315.689760 331.942317L315.957600 332.462680L316.046880 322.113439
L316.359360 319.308024L316.404000 331.852364L316.537920 332.586612
L316.671840 323.131991L316.895040 322.439035L316.895040 322.439035
L317.118240 332.178970L317.207520 321.427519L317.520000 332.617204
L317.877120 308.303124L318.144960 331.261996L318.189600 321.545549
L318.368160 332.406291L318.412800 321.834996L318.680640 333.096938
L318.769920 332.533431L318.859200 332.674270L318.859200 332.674270
L319.037760 332.829693L319.127040 321.922308L319.394880 320.848570
L319.439520 332.628955L319.573440 331.584068L319.930560 308.096110
L320.153760 295.410323L320.198400 322.478420L320.466240 333.309137
L320.644800 320.549626L320.868000 323.364013L321.001920 321.803256
L321.180480 332.819449L321.269760 321.939367L321.448320 320.641321
L321.492960 331.111771L321.760800 332.506806L321.805440 322.350244
L321.894720 332.765992L322.162560 307.839468L322.207200 322.479429
L322.564320 333.832845L322.787520 304.184554L322.832160 332.137594
L323.055360 332.342203L323.144640 321.506385L323.412480 321.340539
L323.546400 332.698241L323.769600 308.474943L323.814240 321.355303
L323.992800 322.424741L324.305280 320.527536L324.305280 320.527536
L324.439200 332.725059L324.483840 321.332728L324.573120 318.315806
L324.617760 321.018924L324.662400 332.229828L324.930240 322.849235
L325.153440 307.976643L325.287360 308.048417L325.555200 332.411849
L325.644480 322.260664L325.689120 321.042839L326.001600 332.891348
L326.046240 331.041876L326.135520 305.478121L326.358720 322.494843
L326.492640 321.177803L326.581920 331.789810L326.849760 308.389981
L326.983680 320.663384L327.028320 332.416825L327.296160 331.100048
L327.608640 331.858958L327.697920 321.601453L327.742560 320.284150
L327.787200 321.482746L328.010400 320.247157L328.055040 332.200756
L328.367520 332.879888L328.456800 323.324642L328.546080 321.457628
L328.680000 315.896703L328.858560 322.495479L329.126400 320.858316
L329.171040 332.704821L329.528160 321.794989L329.706720 323.099159
L329.796000 331.247813L330.019200 323.022298L330.197760 308.501126
L330.331680 332.006294L330.554880 321.461084L330.599520 322.491041
L330.822720 333.411946L330.912000 332.700729L331.001280 318.306503
L331.269120 321.115208L331.313760 332.339936L331.536960 322.036467
L331.670880 332.722668L331.849440 323.640258L332.161920 304.728736
L332.206560 332.797400L332.474400 321.188585L332.563680 323.188711
L332.652960 307.736451L332.831520 320.427671L332.965440 313.327609
L333.188640 331.920198L333.233280 321.220063L333.545760 332.594464
L333.545760 332.594464L333.724320 319.063408L333.902880 321.923608
L334.081440 317.287439L334.215360 320.901240L334.527840 307.981412
L334.795680 307.163280L334.840320 321.819582L335.242080 332.986540
L335.331360 318.779574L335.599200 322.005197L335.822400 332.054692
L335.822400 332.054692L336.134880 321.329991L336.358080 322.622120
L336.670560 321.348087L336.715200 330.774866L336.893760 333.093427
L336.983040 322.072312L337.161600 321.458720L337.429440 332.256785
L337.741920 332.793128L337.741920 332.793128L338.009760 304.529228
L338.054400 321.823439L338.232960 332.974140L338.456160 332.527749
L338.768640 306.688689L338.813280 319.051907L338.991840 307.728488
L339.125760 331.696747L339.482880 307.557555L339.527520 322.596767
L339.661440 307.451912L339.884640 331.914655L340.107840 332.806842
L340.107840 332.806842L340.375680 322.133995L340.643520 332.840531
L341.045280 293.233596L341.089920 331.727492L341.357760 322.784055
L341.536320 320.993197L341.714880 332.166030L341.982720 332.463855
L342.027360 322.316140L342.116640 314.485190L342.295200 322.347299
L342.563040 322.128880L342.563040 322.128880L342.920160 332.650313
L343.098720 333.622624L343.232640 332.376888L343.411200 332.441404
L343.455840 322.690840L343.768320 333.302266L344.036160 295.403992
L344.170080 308.886774L344.482560 332.392537L344.527200 328.990851
L344.616480 320.109235L344.705760 321.569658L344.928960 332.228833
L344.973600 321.371698L345.107520 322.565815L345.509280 332.641576
L345.777120 333.214111L345.777120 333.214111L345.866400 331.528385
L346.134240 274.394055L346.268160 320.492741L346.491360 320.317466
L346.491360 320.317466L346.580640 322.242444L346.580640 322.242444
L346.669920 332.972578L346.893120 322.564184L347.116320 322.825402
L347.116320 322.825402L347.428800 319.260110L347.428800 319.260110
L347.696640 331.177048L348.098400 321.087629L348.276960 321.059165
L348.321600 322.469047L348.723360 308.110280L348.812640 333.099040
L349.035840 320.096019L349.125120 318.986395L349.169760 332.959279
L349.437600 332.792009L349.750080 307.858752L349.973280 305.416742
L350.107200 322.224915L350.285760 320.553663L350.375040 321.833779
L350.508960 322.404337L350.508960 322.404337L350.776800 333.506018
L350.821440 322.617282L351.133920 322.549268L351.133920 322.549268
L351.267840 332.811183L351.357120 309.021475L351.535680 333.476255
L351.714240 332.954095L351.758880 331.656201L351.848160 332.371248
L351.982080 321.760830L352.249920 323.297354L352.249920 323.297354
L352.339200 319.906492L352.339200 319.906492L352.473120 322.969891
L352.607040 321.346663L352.740960 323.015551L352.740960 323.015551
L352.874880 332.753274L353.053440 308.955230L353.276640 332.331932
L353.365920 322.375998L353.544480 321.238380L353.678400 332.588602
L353.901600 320.704524L354.035520 322.398586L354.214080 319.166535
L354.303360 321.437030L354.571200 333.120094L354.615840 321.844548
L354.883680 308.144148L354.928320 322.517348L354.972960 321.189539
L355.285440 333.478412L355.687200 320.333640L355.865760 319.483409
L355.910400 331.787350L356.222880 332.670081L356.267520 310.095683
L356.669280 332.599122L356.713920 307.598045L356.937120 321.887333
L357.115680 321.404461L357.115680 321.404461L357.294240 308.428605
L357.562080 332.312274L357.651360 321.291132L357.874560 332.554236
L357.963840 332.132701L358.187040 332.796916L358.231680 321.663454
L358.410240 332.745809L358.454880 304.423073L358.722720 320.692484
L359.035200 332.853843L359.124480 331.687402L359.213760 332.564880
L359.347680 331.730173L359.481600 330.691327L359.660160 321.514514
L359.794080 332.198130L360.061920 332.477858L360.151200 322.357156
L360.419040 321.084615L360.419040 321.084615L360.686880 308.932462
L361.044000 332.213032L361.177920 317.170350L361.445760 319.945241
L361.490400 321.094568L361.713600 319.837925L361.758240 320.992423
L362.026080 294.927326L362.160000 294.525545L362.204640 321.235435
L362.472480 318.236443L362.517120 332.352793L362.784960 322.665846
L362.829600 321.065621L362.918880 318.819885L362.963520 320.987156
L363.097440 322.489521L363.276000 318.811217L363.588480 318.377185
L363.633120 332.341650L363.900960 275.542913L363.945600 322.728607
L364.168800 318.248442L364.213440 321.009744L364.302720 301.138933
L364.481280 320.998188L364.659840 319.813885L364.659840 319.813885
L364.838400 332.596095L364.883040 321.396194L365.016960 323.129959
L365.106240 329.329055L365.195520 332.601694L365.374080 332.335955
L365.463360 330.751987L365.508000 331.777908L365.641920 318.281799
L365.865120 320.726726L366.132960 332.251435L366.222240 331.521818
L366.356160 331.697673L366.534720 330.168379L366.579360 332.398066
L366.713280 308.800070L366.936480 319.812710L367.382880 332.374731
L367.784640 307.708651L367.873920 305.837932L368.097120 332.838748
L368.186400 320.915382L368.454240 321.589703L368.632800 322.104025
L368.722080 320.308328L369.034560 329.262216L369.079200 322.571082
L369.257760 309.738152L369.302400 321.723823L369.570240 333.319712
L369.659520 332.575069L369.972000 309.563735L370.016640 321.931791
L370.105920 318.057671L370.150560 321.781746L370.418400 331.255844
L370.507680 332.153686L370.775520 322.216137L370.954080 332.097989
L371.088000 322.142317L371.400480 332.436317L371.623680 321.671167
L371.712960 321.703225L371.846880 321.148994L371.980800 331.934921
L372.159360 332.007524L372.293280 322.337042L372.427200 315.943290
L372.516480 332.689117L372.650400 319.970981L372.962880 321.311978
L373.007520 322.400757L373.096800 332.199236L373.320000 321.274972
L373.632480 333.107652L373.855680 305.162630L373.900320 322.399540
L374.034240 321.141266L374.257440 332.497806L374.391360 301.586637
L374.614560 320.644528L374.971680 332.590399L375.328800 307.383801
L375.507360 333.504014L375.596640 319.771667L375.819840 321.968923
L375.819840 321.968923L375.998400 332.231598L376.400160 293.250226
L376.444800 332.887408L376.623360 321.209308L376.935840 332.072608
L377.337600 308.152540L377.516160 332.897748L377.739360 332.116927
L377.962560 308.651683L378.096480 322.896485L378.453600 333.223152
L378.498240 321.342474L378.766080 322.016477L378.989280 332.730285
L379.212480 333.112698L379.346400 321.420538L379.435680 322.718474
L379.703520 321.953315L379.792800 332.246680L379.837440 304.609158
L380.105280 327.730586L380.507040 307.822906L380.596320 332.510649
L380.819520 322.083537L380.998080 322.299427L380.998080 322.299427
L381.221280 331.959541L381.310560 334.791609L381.533760 322.039688
L381.667680 308.641398L381.756960 320.253627L382.024800 332.589764
L382.337280 291.513268L382.381920 317.757800L382.471200 335.214858
L382.649760 320.941855L382.694400 322.116300L382.962240 332.961892
L383.006880 321.911415L383.230080 322.364745L383.230080 322.364745
L383.408640 322.489341L383.587200 309.564288L383.899680 332.406996
L384.167520 307.968998L384.212160 321.298196L384.346080 306.577240
L384.435360 331.904923L384.658560 308.139656L384.747840 321.917566
L385.015680 320.562621L385.060320 331.780272L385.283520 333.444861
L385.372800 332.010317L385.774560 294.604315L386.042400 333.260421
L386.131680 321.419336L386.176320 322.672232L386.444160 332.175431
L386.488800 322.410848L386.756640 333.282733L386.801280 332.269130
L387.158400 308.023188L387.203040 321.911774L387.381600 332.643290
L387.426240 321.908180L387.604800 329.810587L387.649440 322.332231
L387.917280 323.229685L388.006560 321.058889L388.095840 332.343199
L388.319040 331.675569L388.542240 307.972828L388.631520 318.972584
L388.899360 333.170081L388.988640 329.218892L389.077920 321.300795
L389.167200 322.437860L389.435040 332.934562L389.479680 320.569215
L389.658240 333.039832L389.836800 330.713197L389.881440 332.315509
L389.926080 321.759669L390.238560 322.120351L390.372480 318.894548
L390.417120 320.702257L390.640320 333.017381L390.684960 320.798057
L390.863520 315.388643L391.042080 307.391363L391.176000 321.324586
L391.265280 332.016551L391.354560 322.126295L391.533120 331.791331
L391.577760 321.811149L391.711680 321.785423L391.711680 321.785423
L391.979520 332.303441L392.024160 319.731259L392.247360 332.880068
L392.292000 331.211276L392.515200 333.016303L392.515200 333.016303
L392.604480 209.961953L392.783040 330.878228L393.006240 294.888771
L393.140160 321.305481L393.363360 332.804506L393.497280 331.400001
L393.765120 333.039914L393.809760 320.603028L394.032960 332.891749
L394.077600 322.718045L394.300800 332.594671L394.345440 322.359160
L394.568640 307.525524L394.702560 329.942730L394.925760 333.051651
L395.015040 322.243813L395.238240 320.699230L395.372160 332.259633
L395.595360 320.070086L395.729280 320.458485L395.863200 319.761520
L395.952480 322.791907L396.175680 332.675210L396.220320 321.896678
L396.488160 319.443070L396.532800 332.077460L396.845280 308.133684
L396.889920 322.225358L397.068480 334.689919L397.202400 331.242960
L397.648800 304.981591L397.916640 331.752250L397.961280 322.050747
L398.184480 322.546434L398.184480 322.546434L398.541600 319.253695
L398.586240 321.978392L398.764800 321.603734L398.898720 332.773028
L398.988000 333.076493L399.121920 333.029049L399.523680 307.968017
L399.612960 321.775193L399.880800 332.376902L399.925440 316.172395
L400.104000 322.401393L400.282560 321.576266L400.282560 321.576266
L400.416480 332.709590L400.505760 321.656210L400.639680 318.975031
L400.684320 332.727160L400.996800 332.346862L401.264640 309.239880
L401.309280 321.514182L401.621760 332.612946L401.889600 333.045334
L401.889600 333.045334L401.978880 331.417544L402.246720 319.031931
L402.291360 321.869722L402.336000 333.195725L402.603840 332.297759
L402.693120 318.265252L402.916320 331.270913L402.960960 332.330232
L403.184160 319.109470L403.273440 321.326936L403.362720 322.526210
L403.630560 280.776762L403.764480 332.951054L403.987680 321.860999
L404.166240 320.822872L404.344800 331.473462L404.612640 332.305929
L404.701920 321.769940L404.880480 332.472038L405.014400 330.278792
L405.416160 308.689616L405.550080 332.889648L405.773280 331.882445
L406.041120 333.334449L406.130400 309.462239L406.175040 331.766655
L406.487520 328.698750L406.666080 332.246210L406.755360 322.412189
L406.933920 322.057299L407.112480 326.584314L407.335680 294.257222
L407.424960 322.073971L407.692800 332.498733L407.737440 331.026919
L407.960640 332.264291L408.049920 322.074179L408.139200 319.858606
L408.183840 332.030762L408.451680 320.684051L408.496320 322.163164
L408.585600 331.896780L408.764160 322.677817L408.942720 332.656022
L408.987360 306.188744L409.210560 321.987834L409.478400 321.121415
L409.478400 321.121415L409.656960 333.086709L409.790880 321.697336
L409.969440 332.403001L410.103360 321.963379L410.237280 332.886745
L410.415840 321.969959L410.639040 319.784869L410.639040 319.784869
L410.862240 331.513012L410.951520 321.805468L411.264000 320.586536
L411.264000 320.586536L411.531840 332.968956L411.621120 322.799731
L411.888960 332.779871L411.933600 322.004381L412.201440 307.331505
L412.246080 332.283161L412.424640 304.913701L412.647840 322.700268
L412.871040 320.304223L412.915680 321.617807L413.049600 332.653326
L413.138880 321.553318L413.451360 320.742015L413.451360 320.742015
L413.674560 318.982469L413.763840 332.497544L413.808480 316.227152
L414.120960 321.905733L414.210240 319.374559L414.254880 332.730755
L414.478080 331.705387L414.567360 320.337608L414.745920 322.554687
L415.013760 333.019911L415.058400 322.904904L415.326240 308.820695
L415.370880 320.713247L415.638720 332.778212L415.683360 331.764996
L415.906560 332.161150L415.951200 321.902471L416.129760 318.727526
L416.263680 332.613707L416.486880 333.398924L416.620800 319.895903
L416.754720 309.005411L416.977920 329.211302L417.201120 332.271673
L417.245760 321.344935L417.602880 332.576880L417.960000 314.766190
L418.227840 308.798328L418.272480 322.186277L418.451040 321.679324
L418.451040 321.679324L418.629600 332.462638L418.718880 321.628285
L419.031360 332.684430L419.076000 317.462534L419.388480 323.532956
L419.656320 321.282533L419.656320 321.282533L419.790240 322.957878
L419.968800 331.329734L420.013440 322.153971L420.370560 331.985212
L420.593760 332.295547L420.683040 322.622701L420.995520 320.960033
L421.040160 332.180352L421.263360 332.783120L421.308000 322.078160
L421.397280 332.744205L421.486560 277.228625L421.709760 309.147550
L421.888320 332.617038L421.932960 321.489520L422.200800 330.923363
L422.245440 321.183208L422.424000 332.400264L422.602560 332.312565
L422.915040 295.846166L422.959680 321.175909L423.227520 320.676116
L423.272160 321.963725L423.540000 320.740080L423.629280 331.836079
L423.941760 306.925978L423.986400 321.747960L424.164960 332.669072
L424.343520 332.060526L424.656000 332.668837L424.700640 321.161159
L425.057760 332.418484L425.191680 320.038788L425.325600 331.507966
L425.593440 320.233112L425.638080 322.046448L425.861280 321.511763
L425.861280 321.511763L425.950560 319.402787L426.218400 308.585742
L426.263040 331.552590L426.575520 332.680394L426.575520 332.680394
L426.932640 318.730471L426.977280 322.413502L427.200480 320.206266
L427.289760 332.263655L427.468320 322.075036L427.691520 318.451116
L427.691520 318.451116L427.870080 332.852862L428.004000 319.194432
L428.271840 318.376328L428.361120 322.052115L428.405760 320.653265
L428.584320 319.050386L428.628960 331.952284L428.807520 332.380261
L428.941440 322.303726L429.075360 320.169812L429.164640 320.738808
L429.387840 322.692098L429.521760 313.927308L429.834240 307.260076
L429.834240 307.260076L430.191360 332.864073L430.503840 311.747844
L430.548480 332.119969L430.816320 321.473014L431.084160 319.030120
L431.128800 331.500709L431.218080 319.626169L431.307360 321.426137
L431.530560 331.596578L431.619840 312.404042L431.843040 321.778317
L432.110880 331.856691L432.155520 321.141045L432.334080 332.215437
L432.378720 320.593255L432.601920 321.817591L432.914400 320.842847
L432.914400 320.842847L433.048320 331.417806L433.316160 332.222626
L433.360800 321.994580L433.584000 320.953398L433.717920 332.685052
L433.985760 308.530460L434.030400 321.831401L434.119680 320.239167
L434.164320 331.950044L434.387520 321.491179L434.610720 332.245670
L434.610720 332.245670L434.833920 332.711249L434.833920 332.711249
L435.057120 318.980229L435.101760 320.950826L435.191040 333.121697
L435.280320 331.719888L435.369600 333.015266L435.592800 320.019255
L435.637440 321.254816L435.949920 321.203350L435.949920 321.203350
L436.039200 322.674887L436.128480 309.601405L436.396320 332.722502
L436.530240 333.061673L436.574880 322.529292L436.887360 333.075760
L437.244480 308.776997L437.467680 306.881741L437.512320 321.353022
L437.646240 318.130800L437.780160 333.101666L437.958720 320.255700
L438.048000 322.096808L438.271200 307.883290L438.315840 321.216980
L438.449760 322.387513L438.717600 332.453224L438.762240 322.035568
L438.896160 331.365856L438.940800 322.291063L439.074720 332.235883
L439.253280 321.104328L439.387200 318.937997L439.431840 320.881154
L439.610400 322.270963L439.878240 331.992041L440.101440 332.973241
L440.235360 321.017887L440.369280 332.187997L440.592480 331.708954
L440.904960 318.948047L441.083520 305.128747L441.217440 320.927602
L441.306720 322.636774L441.440640 332.654709L441.574560 307.664317
L441.753120 329.473571L441.797760 332.986111L441.976320 333.659257
L442.110240 332.296349L442.244160 333.431396L442.467360 320.636275
L442.556640 322.231482L442.824480 333.293502L442.958400 330.716446
L443.181600 319.818199L443.226240 332.450805L443.583360 318.511153
L443.672640 320.390236L443.851200 332.749445L443.940480 322.322651
L444.163680 331.745781L444.208320 322.168735L444.565440 333.377566
L444.654720 309.402091L444.922560 321.492603L445.190400 332.782028
L445.235040 322.105918L445.413600 332.964477L445.458240 322.549614
L445.770720 321.750310L445.860000 332.066318L446.083200 332.789921
L446.172480 322.615098L446.440320 321.431763L446.484960 332.054512
L446.752800 308.295770L446.797440 322.839378L446.886720 322.388205
L446.886720 322.388205L447.065280 332.907370L447.154560 321.949942
L447.377760 321.607895L447.467040 321.645939L447.824160 331.481659
L448.047360 332.318786L448.181280 320.223338L448.270560 332.250951
L448.404480 321.683153L448.627680 332.454689L448.672320 322.292321
L448.850880 320.290454L448.984800 332.129853L449.297280 332.247689
L449.386560 321.916032L449.520480 308.794734L449.699040 319.703349
L449.832960 316.765403L449.832960 316.765403L450.100800 308.776389
L450.368640 332.065696L450.457920 309.628418L450.636480 321.081173
L450.859680 332.735220L450.904320 321.458693L451.127520 332.170288
L451.261440 308.442443L451.306080 322.621042L451.484640 332.226068
L451.529280 322.075409L451.707840 319.659126L451.752480 321.738048
L451.886400 332.987895L452.020320 332.562544L452.288160 308.138951
L452.377440 308.612533L452.556000 307.502825L452.689920 322.355442
L452.913120 315.867521L452.957760 322.056456L453.180960 309.339579
L453.225600 320.666259L453.448800 333.099911L453.493440 321.798957
L453.716640 307.640623L453.761280 312.231325L453.805920 335.004816
L454.118400 332.254117L454.430880 332.287516L454.475520 321.691530
L454.564800 303.708345L454.609440 321.585224L454.877280 331.968568
L454.921920 321.495561L455.100480 333.561259L455.189760 321.877795
L455.457600 333.050960L455.814720 319.142523L455.859360 322.138363
L455.948640 331.795920L456.171840 319.334386L456.216480 332.606422
L456.439680 321.081809L456.528960 319.621815L456.707520 295.423995
L456.841440 322.462260L457.020000 332.699803L457.109280 332.406568
L457.555680 308.887672L457.600320 320.802288L457.957440 332.417848
L458.046720 321.358399L458.225280 332.147479L458.671680 315.744266
L458.805600 331.484936L459.028800 326.867374L459.252000 332.119927
L459.296640 321.406770L459.519840 331.985807L459.564480 321.358441
L459.787680 332.090537L459.832320 321.554686L459.921600 318.698372
L459.966240 321.511030L460.323360 332.520422L460.680480 318.465161
L460.725120 332.235385L460.992960 332.207198L461.394720 310.662771
L461.484000 321.020375L461.484000 321.020375L461.662560 331.764333
L461.796480 322.721847L462.064320 331.571294L462.108960 321.656556
L462.198240 319.170129L462.466080 333.550241L462.510720 331.666777
L462.644640 332.079036L462.778560 321.253959L462.957120 333.214456
L463.001760 303.554885L463.269600 323.225414L463.582080 331.812799
L463.626720 323.177154L463.849920 332.149787L463.939200 308.858365
L464.162400 333.159368L464.251680 331.782124L464.385600 333.066664
L464.653440 322.093975L464.832000 322.989839L464.876640 321.561889
L465.144480 307.181196L465.233760 331.640013L465.546240 332.561977
L465.590880 321.868132L465.858720 320.391217L465.858720 320.391217
L465.948000 322.881638L466.171200 322.308979L466.528320 332.065903
L466.572960 309.260782L466.840800 320.314840L467.153280 333.482075
L467.287200 331.212243L467.465760 309.826668L467.644320 320.972613
L467.956800 320.911566L468.001440 332.169224L468.224640 332.547559
L468.224640 332.547559L468.358560 331.300164L468.581760 333.615601
L468.715680 322.755674L468.804960 321.405152L469.028160 321.687604
L469.162080 333.357549L469.563840 332.440824L469.831680 308.331146
L469.965600 310.301176L470.010240 332.733865L470.278080 332.104596
L470.545920 274.102853L470.679840 306.029671L470.947680 331.729068
L471.036960 327.585254L471.304800 308.938738L471.394080 313.270737
L471.572640 331.426267L471.706560 322.343774L472.019040 294.886739
L472.331520 332.081179L472.510080 333.585340L472.644000 331.858087
L473.001120 318.837247L473.224320 333.476103L473.402880 332.935073
L473.804640 308.976713L473.983200 331.405351L474.161760 321.572105
L474.340320 291.387553L474.474240 321.898130L474.786720 307.708748
L474.831360 331.957661L475.099200 331.583584L475.456320 312.510390
L475.813440 332.035159L476.081280 300.234484L476.259840 310.802407
L476.527680 332.330356L476.572320 322.741076L476.706240 332.186835
L476.929440 316.165082L476.974080 331.814652L477.241920 318.573002
L477.643680 333.060153L478.000800 317.699712L478.045440 321.257788
L478.224000 331.991419L478.268640 321.755660L478.402560 331.977499
L478.447200 320.983866L478.625760 318.198109L478.715040 328.576297
L478.848960 332.337365L479.072160 319.336404L479.295360 332.857783
L479.384640 321.047788L479.563200 331.792119L479.741760 311.940122
L479.875680 332.317942L480.143520 328.710846L480.456000 160.298528
L480.500640 236.484624L480.679200 332.378353L480.857760 321.051949
L480.991680 331.722750L481.080960 321.243633L481.259520 321.967789
L481.259520 321.967789L481.482720 332.180587L481.616640 320.594264
L481.661280 322.395324L481.884480 318.797559L482.018400 331.749140
L482.286240 332.732925L482.375520 321.708783L482.643360 307.177035
L482.688000 332.190596L482.866560 306.572263L483.000480 331.527486
L483.357600 311.182346L483.402240 321.335493L483.670080 331.864626
L483.848640 332.198213L483.937920 322.346594L484.071840 318.802632
L484.116480 333.590220L484.339680 320.602987L484.518240 331.363519
L484.652160 322.699189L484.696800 321.641750L484.875360 320.751761
L485.009280 330.594712L485.321760 320.657163L485.500320 332.289368
L485.634240 331.813975L485.991360 294.475005L486.036000 331.432349
L486.303840 317.947936L486.437760 322.376261L486.616320 332.034136
L486.705600 320.268861L486.750240 332.265356L486.794880 321.610784
L487.062720 331.062377L487.107360 321.747905L487.375200 308.208057
L487.375200 308.208057L487.419840 310.655596L487.643040 332.744662
L487.732320 331.958518L487.955520 332.133143L488.000160 321.525960
L488.223360 322.798376L488.223360 322.798376L488.357280 321.226201
L488.491200 322.337871L488.580480 322.536343L488.580480 322.536343
L488.892960 321.642123L488.892960 321.642123L489.116160 308.158180
L489.160800 322.672716L489.294720 320.438620L489.473280 318.243396
L489.607200 321.168707L489.875040 332.859580L489.919680 322.500511
L490.053600 331.492304L490.142880 320.006481L490.410720 331.410093
L490.455360 321.622369L490.589280 320.977631L490.589280 320.977631
L490.767840 306.832749L490.812480 311.161942L491.035680 332.269738
L491.124960 328.289698L491.348160 331.507414L491.437440 321.048548
L491.660640 320.531752L491.749920 322.023804L491.839200 332.380302
L492.062400 329.554082L492.196320 333.154198L492.285600 322.033937
L492.508800 332.559600L492.642720 331.707834L492.776640 332.407149
L492.910560 321.241283L493.178400 318.840579L493.178400 318.840579
L493.267680 331.476793L493.312320 318.804913L493.624800 332.912900
L493.669440 283.657117L493.937280 321.655477L494.071200 332.072705
L494.249760 322.838411L494.339040 332.807492L494.383680 321.758646
L494.651520 333.048278L494.919360 300.410132L494.964000 319.951116
L495.187200 331.978093L495.276480 322.676974L495.499680 311.921294
L495.544320 322.620862L495.767520 314.768471L495.812160 321.058225
L495.990720 321.501326L495.990720 321.501326L496.169280 321.129294
L496.169280 321.129294L496.481760 333.214014L496.749600 319.579071
L496.972800 331.832443L497.062080 331.585104L497.196000 332.266420
L497.419200 322.684190L497.463840 321.230445L497.508480 332.834020
L497.687040 331.375049L497.999520 332.601846L497.999520 332.601846
L498.088800 319.125685L498.267360 322.032084L498.535200 320.453550
L498.579840 322.255204L498.713760 320.359201L498.758400 322.036563
L499.115520 333.575788L499.428000 288.137475L499.785120 332.406112
L500.052960 300.187026L500.097600 321.719621L500.276160 319.267049
L500.410080 331.780023L500.722560 332.740556L500.767200 320.759959
L501.079680 320.702713L501.079680 320.702713L501.302880 322.211050
L501.392160 319.148675L501.615360 332.729455L501.704640 322.130124
L501.838560 331.685854L501.883200 321.550249L502.061760 320.252258
L502.418880 307.297525L502.865280 332.543246L502.909920 322.335687
L503.222400 308.784601L503.400960 332.894486L503.534880 327.693137
L503.713440 332.588201L503.892000 321.777211L504.204480 332.245795
L504.516960 321.239250L504.740160 332.319435L504.829440 321.951145
L505.097280 320.995257L505.141920 323.042729L505.186560 321.697129
L505.543680 331.509321L505.856160 321.608586L505.945440 308.354785
L506.168640 321.352856L506.302560 332.738206L506.525760 332.458864
L506.570400 307.827869L506.838240 319.738835L506.882880 321.546862
L507.240000 308.588286L507.597120 332.206991L507.998880 309.333261
L508.311360 332.035103L508.356000 320.873716L508.489920 322.453081
L508.579200 321.980604L508.757760 309.352726L508.891680 328.102300
L509.293440 308.732553L509.427360 308.430651L509.427360 308.430651
L509.650560 322.687093L509.739840 321.504118L509.873760 311.277883
L510.007680 314.692743L510.141600 322.440307L510.230880 318.359297
L510.409440 332.937783L510.498720 307.615920L510.766560 318.867190
L510.855840 330.440436L510.900480 308.534663L511.212960 311.808766
L511.257600 332.771093L511.570080 332.715244L511.748640 317.930448
L511.837920 318.813954L511.971840 321.573570L512.150400 332.111868
L512.284320 318.901557L512.507520 332.528053L512.596800 322.134410
L512.820000 327.388387L512.864640 321.330129L512.953920 318.175769
L513.132480 321.561944L513.355680 309.190556L513.444960 315.163630
L513.534240 331.915913L513.846720 331.035849L514.248480 307.152594
L514.516320 331.535822L514.605600 319.115248L514.694880 331.751338
L514.918080 317.033713L515.052000 321.357404L515.141280 331.569359
L515.319840 314.676915L515.587680 308.469206L515.632320 320.343345
L515.810880 307.627089L515.944800 331.962956L515.989440 322.208299
L516.212640 320.855275L516.301920 319.011997L516.525120 324.777517
L516.748320 315.526496L516.882240 321.229961L516.971520 332.713585
L517.150080 322.579874L517.373280 332.514119L517.462560 322.494414
L517.641120 321.749619L517.641120 321.749619L517.864320 308.651282
L517.908960 320.508528L518.042880 332.644451L518.221440 320.964941
L518.310720 332.235067L518.310720 332.235067"/>
</g>
<g id="matplotlib.axis1">
<g id="xtick1">
<g id="line2d2">
<path style="fill: none; stroke: #000000; stroke-width: 0.500000; stroke-linejoin: round; stroke-linecap: butt; stroke-dasharray: 1.000000,3.000000; stroke-dashoffset: 0.000000; opacity: 1.000000" clip-path="url(#p50431ccdcb28178602d99d9270004dde)" d="M72.000000 388.800000L72.000000 43.200000"/>
</g>
<g id="line2d3">
<defs><path id="m30e32995789d870ad79a2e54c91cf9c6" d="M0.000000 0.000000L0.000000 -4.000000"/></defs>
<g ><use style="fill: none; stroke: #000000; stroke-width: 0.500000; stroke-linejoin: round; stroke-linecap: butt;  opacity: 1.000000" xlink:href="#m30e32995789d870ad79a2e54c91cf9c6" x="72.000000" y="388.800000"/>
</g></g>
<g id="line2d4">
<defs><path id="m9281cae24120827b11d5ea8a7ad3e96b" d="M0.000000 0.000000L0.000000 4.000000"/></defs>
<g ><use style="fill: none; stroke: #000000; stroke-width: 0.500000; stroke-linejoin: round; stroke-linecap: butt;  opacity: 1.000000" xlink:href="#m9281cae24120827b11d5ea8a7ad3e96b" x="72.000000" y="43.200000"/>
</g></g>
<g id="text1">
<defs>
<path id="c_7a2040fe3b94fcd41d0a72c84e93b115" d="M31.781250 -66.406250q-7.609375 0.000000 -11.453125 7.500000q-3.828125 7.484375 -3.828125 22.531250q0.000000 14.984375 3.828125 22.484375q3.843750 7.500000 11.453125 7.500000q7.671875 0.000000 11.500000 -7.500000q3.843750 -7.500000 3.843750 -22.484375q0.000000 -15.046875 -3.843750 -22.531250q-3.828125 -7.500000 -11.500000 -7.500000M31.781250 -74.218750q12.265625 0.000000 18.734375 9.703125q6.468750 9.687500 6.468750 28.140625q0.000000 18.406250 -6.468750 28.109375q-6.468750 9.687500 -18.734375 9.687500q-12.250000 0.000000 -18.718750 -9.687500q-6.468750 -9.703125 -6.468750 -28.109375q0.000000 -18.453125 6.468750 -28.140625q6.468750 -9.703125 18.718750 -9.703125"/>
</defs>
<g style="fill: #000000; opacity: 1.000000" transform="translate(68.976562,401.706250)scale(0.120000)">
<use xlink:href="#c_7a2040fe3b94fcd41d0a72c84e93b115"/>
</g>
</g>
</g>
<g id="xtick2">
<g id="line2d5">
<path style="fill: none; stroke: #000000; stroke-width: 0.500000; stroke-linejoin: round; stroke-linecap: butt; stroke-dasharray: 1.000000,3.000000; stroke-dashoffset: 0.000000; opacity: 1.000000" clip-path="url(#p50431ccdcb28178602d99d9270004dde)" d="M161.280000 388.800000L161.280000 43.200000"/>
</g>
<g id="line2d6">
<g ><use style="fill: none; stroke: #000000; stroke-width: 0.500000; stroke-linejoin: round; stroke-linecap: butt;  opacity: 1.000000" xlink:href="#m30e32995789d870ad79a2e54c91cf9c6" x="161.280000" y="388.800000"/>
</g></g>
<g id="line2d7">
<g ><use style="fill: none; stroke: #000000; stroke-width: 0.500000; stroke-linejoin: round; stroke-linecap: butt;  opacity: 1.000000" xlink:href="#m9281cae24120827b11d5ea8a7ad3e96b" x="161.280000" y="43.200000"/>
</g></g>
<g id="text2">
<defs>
<path id="c_ed3f3ed3ebfbd18bcb9c012009a68ad1" d="M19.187500 -8.296875l34.421875 0.000000l0.000000 8.296875l-46.281250 0.000000l0.000000 -8.296875q5.609375 -5.812500 15.296875 -15.593750q9.703125 -9.796875 12.187500 -12.640625q4.734375 -5.312500 6.609375 -9.000000q1.890625 -3.687500 1.890625 -7.250000q0.000000 -5.812500 -4.078125 -9.468750q-4.078125 -3.671875 -10.625000 -3.671875q-4.640625 0.000000 -9.796875 1.609375q-5.140625 1.609375 -11.000000 4.890625l0.000000 -9.968750q5.953125 -2.390625 11.125000 -3.609375q5.187500 -1.218750 9.484375 -1.218750q11.328125 0.000000 18.062500 5.671875q6.734375 5.656250 6.734375 15.125000q0.000000 4.500000 -1.687500 8.531250q-1.671875 4.015625 -6.125000 9.484375q-1.218750 1.421875 -7.765625 8.187500q-6.531250 6.765625 -18.453125 18.921875"/>
</defs>
<g style="fill: #000000; opacity: 1.000000" transform="translate(146.834688,401.706250)scale(0.120000)">
<use xlink:href="#c_ed3f3ed3ebfbd18bcb9c012009a68ad1"/>
<use xlink:href="#c_7a2040fe3b94fcd41d0a72c84e93b115" x="63.623047"/>
<use xlink:href="#c_7a2040fe3b94fcd41d0a72c84e93b115" x="127.246094"/>
<use xlink:href="#c_7a2040fe3b94fcd41d0a72c84e93b115" x="190.869141"/>
</g>
</g>
</g>
<g id="xtick3">
<g id="line2d8">
<path style="fill: none; stroke: #000000; stroke-width: 0.500000; stroke-linejoin: round; stroke-linecap: butt; stroke-dasharray: 1.000000,3.000000; stroke-dashoffset: 0.000000; opacity: 1.000000" clip-path="url(#p50431ccdcb28178602d99d9270004dde)" d="M250.560000 388.800000L250.560000 43.200000"/>
</g>
<g id="line2d9">
<g ><use style="fill: none; stroke: #000000; stroke-width: 0.500000; stroke-linejoin: round; stroke-linecap: butt;  opacity: 1.000000" xlink:href="#m30e32995789d870ad79a2e54c91cf9c6" x="250.560000" y="388.800000"/>
</g></g>
<g id="line2d10">
<g ><use style="fill: none; stroke: #000000; stroke-width: 0.500000; stroke-linejoin: round; stroke-linecap: butt;  opacity: 1.000000" xlink:href="#m9281cae24120827b11d5ea8a7ad3e96b" x="250.560000" y="43.200000"/>
</g></g>
<g id="text3">
<defs>
<path id="c_a0416418d96557a09b8c1332d34883ba" d="M37.796875 -64.312500l-24.906250 38.921875l24.906250 0.000000zM35.203125 -72.906250l12.406250 0.000000l0.000000 47.515625l10.406250 0.000000l0.000000 8.203125l-10.406250 0.000000l0.000000 17.187500l-9.812500 0.000000l0.000000 -17.187500l-32.906250 0.000000l0.000000 -9.515625z"/>
</defs>
<g style="fill: #000000; opacity: 1.000000" transform="translate(235.974063,401.706250)scale(0.120000)">
<use xlink:href="#c_a0416418d96557a09b8c1332d34883ba"/>
<use xlink:href="#c_7a2040fe3b94fcd41d0a72c84e93b115" x="63.623047"/>
<use xlink:href="#c_7a2040fe3b94fcd41d0a72c84e93b115" x="127.246094"/>
<use xlink:href="#c_7a2040fe3b94fcd41d0a72c84e93b115" x="190.869141"/>
</g>
</g>
</g>
<g id="xtick4">
<g id="line2d11">
<path style="fill: none; stroke: #000000; stroke-width: 0.500000; stroke-linejoin: round; stroke-linecap: butt; stroke-dasharray: 1.000000,3.000000; stroke-dashoffset: 0.000000; opacity: 1.000000" clip-path="url(#p50431ccdcb28178602d99d9270004dde)" d="M339.840000 388.800000L339.840000 43.200000"/>
</g>
<g id="line2d12">
<g ><use style="fill: none; stroke: #000000; stroke-width: 0.500000; stroke-linejoin: round; stroke-linecap: butt;  opacity: 1.000000" xlink:href="#m30e32995789d870ad79a2e54c91cf9c6" x="339.840000" y="388.800000"/>
</g></g>
<g id="line2d13">
<g ><use style="fill: none; stroke: #000000; stroke-width: 0.500000; stroke-linejoin: round; stroke-linecap: butt;  opacity: 1.000000" xlink:href="#m9281cae24120827b11d5ea8a7ad3e96b" x="339.840000" y="43.200000"/>
</g></g>
<g id="text4">
<defs>
<path id="c_cc8d6d580d1b10c8632f7a42cd53db8a" d="M33.015625 -40.375000q-6.640625 0.000000 -10.531250 4.546875q-3.875000 4.531250 -3.875000 12.437500q0.000000 7.859375 3.875000 12.437500q3.890625 4.562500 10.531250 4.562500q6.640625 0.000000 10.515625 -4.562500q3.875000 -4.578125 3.875000 -12.437500q0.000000 -7.906250 -3.875000 -12.437500q-3.875000 -4.546875 -10.515625 -4.546875M52.593750 -71.296875l0.000000 8.984375q-3.718750 -1.750000 -7.500000 -2.671875q-3.781250 -0.937500 -7.500000 -0.937500q-9.765625 0.000000 -14.921875 6.593750q-5.140625 6.593750 -5.875000 19.921875q2.875000 -4.250000 7.218750 -6.515625q4.359375 -2.265625 9.578125 -2.265625q10.984375 0.000000 17.359375 6.671875q6.375000 6.656250 6.375000 18.125000q0.000000 11.234375 -6.640625 18.031250q-6.640625 6.781250 -17.671875 6.781250q-12.656250 0.000000 -19.343750 -9.687500q-6.687500 -9.703125 -6.687500 -28.109375q0.000000 -17.281250 8.203125 -27.562500q8.203125 -10.281250 22.015625 -10.281250q3.718750 0.000000 7.500000 0.734375q3.781250 0.734375 7.890625 2.187500"/>
</defs>
<g style="fill: #000000; opacity: 1.000000" transform="translate(325.379062,401.706250)scale(0.120000)">
<use xlink:href="#c_cc8d6d580d1b10c8632f7a42cd53db8a"/>
<use xlink:href="#c_7a2040fe3b94fcd41d0a72c84e93b115" x="63.623047"/>
<use xlink:href="#c_7a2040fe3b94fcd41d0a72c84e93b115" x="127.246094"/>
<use xlink:href="#c_7a2040fe3b94fcd41d0a72c84e93b115" x="190.869141"/>
</g>
</g>
</g>
<g id="xtick5">
<g id="line2d14">
<path style="fill: none; stroke: #000000; stroke-width: 0.500000; stroke-linejoin: round; stroke-linecap: butt; stroke-dasharray: 1.000000,3.000000; stroke-dashoffset: 0.000000; opacity: 1.000000" clip-path="url(#p50431ccdcb28178602d99d9270004dde)" d="M429.120000 388.800000L429.120000 43.200000"/>
</g>
<g id="line2d15">
<g ><use style="fill: none; stroke: #000000; stroke-width: 0.500000; stroke-linejoin: round; stroke-linecap: butt;  opacity: 1.000000" xlink:href="#m30e32995789d870ad79a2e54c91cf9c6" x="429.120000" y="388.800000"/>
</g></g>
<g id="line2d16">
<g ><use style="fill: none; stroke: #000000; stroke-width: 0.500000; stroke-linejoin: round; stroke-linecap: butt;  opacity: 1.000000" xlink:href="#m9281cae24120827b11d5ea8a7ad3e96b" x="429.120000" y="43.200000"/>
</g></g>
<g id="text5">
<defs>
<path id="c_bef35738d52871942e50b9de9b122bab" d="M31.781250 -34.625000q-7.031250 0.000000 -11.062500 3.765625q-4.015625 3.765625 -4.015625 10.343750q0.000000 6.593750 4.015625 10.359375q4.031250 3.765625 11.062500 3.765625q7.031250 0.000000 11.078125 -3.781250q4.062500 -3.796875 4.062500 -10.343750q0.000000 -6.578125 -4.031250 -10.343750q-4.015625 -3.765625 -11.109375 -3.765625M21.921875 -38.812500q-6.343750 -1.562500 -9.890625 -5.906250q-3.531250 -4.359375 -3.531250 -10.609375q0.000000 -8.734375 6.218750 -13.812500q6.234375 -5.078125 17.062500 -5.078125q10.890625 0.000000 17.093750 5.078125q6.203125 5.078125 6.203125 13.812500q0.000000 6.250000 -3.546875 10.609375q-3.531250 4.343750 -9.828125 5.906250q7.125000 1.656250 11.093750 6.500000q3.984375 4.828125 3.984375 11.796875q0.000000 10.609375 -6.468750 16.281250q-6.468750 5.656250 -18.531250 5.656250q-12.046875 0.000000 -18.531250 -5.656250q-6.468750 -5.671875 -6.468750 -16.281250q0.000000 -6.968750 4.000000 -11.796875q4.015625 -4.843750 11.140625 -6.500000M18.312500 -54.390625q0.000000 5.656250 3.531250 8.828125q3.546875 3.171875 9.937500 3.171875q6.359375 0.000000 9.937500 -3.171875q3.593750 -3.171875 3.593750 -8.828125q0.000000 -5.671875 -3.593750 -8.843750q-3.578125 -3.171875 -9.937500 -3.171875q-6.390625 0.000000 -9.937500 3.171875q-3.531250 3.171875 -3.531250 8.843750"/>
</defs>
<g style="fill: #000000; opacity: 1.000000" transform="translate(414.643438,401.706250)scale(0.120000)">
<use xlink:href="#c_bef35738d52871942e50b9de9b122bab"/>
<use xlink:href="#c_7a2040fe3b94fcd41d0a72c84e93b115" x="63.623047"/>
<use xlink:href="#c_7a2040fe3b94fcd41d0a72c84e93b115" x="127.246094"/>
<use xlink:href="#c_7a2040fe3b94fcd41d0a72c84e93b115" x="190.869141"/>
</g>
</g>
</g>
<g id="xtick6">
<g id="line2d17">
<path style="fill: none; stroke: #000000; stroke-width: 0.500000; stroke-linejoin: round; stroke-linecap: butt; stroke-dasharray: 1.000000,3.000000; stroke-dashoffset: 0.000000; opacity: 1.000000" clip-path="url(#p50431ccdcb28178602d99d9270004dde)" d="M518.400000 388.800000L518.400000 43.200000"/>
</g>
<g id="line2d18">
<g ><use style="fill: none; stroke: #000000; stroke-width: 0.500000; stroke-linejoin: round; stroke-linecap: butt;  opacity: 1.000000" xlink:href="#m30e32995789d870ad79a2e54c91cf9c6" x="518.400000" y="388.800000"/>
</g></g>
<g id="line2d19">
<g ><use style="fill: none; stroke: #000000; stroke-width: 0.500000; stroke-linejoin: round; stroke-linecap: butt;  opacity: 1.000000" xlink:href="#m9281cae24120827b11d5ea8a7ad3e96b" x="518.400000" y="43.200000"/>
</g></g>
<g id="text6">
<defs>
<path id="c_42baa63129a918535c52adb20d687ea7" d="M12.406250 -8.296875l16.109375 0.000000l0.000000 -55.625000l-17.531250 3.515625l0.000000 -8.984375l17.437500 -3.515625l9.859375 0.000000l0.000000 64.609375l16.109375 0.000000l0.000000 8.296875l-41.984375 0.000000z"/>
</defs>
<g style="fill: #000000; opacity: 1.000000" transform="translate(500.353125,401.706250)scale(0.120000)">
<use xlink:href="#c_42baa63129a918535c52adb20d687ea7"/>
<use xlink:href="#c_7a2040fe3b94fcd41d0a72c84e93b115" x="63.623047"/>
<use xlink:href="#c_7a2040fe3b94fcd41d0a72c84e93b115" x="127.246094"/>
<use xlink:href="#c_7a2040fe3b94fcd41d0a72c84e93b115" x="190.869141"/>
<use xlink:href="#c_7a2040fe3b94fcd41d0a72c84e93b115" x="254.492188"/>
</g>
</g>
</g>
</g>
<g id="matplotlib.axis2">
<g id="ytick1">
<g id="line2d20">
<path style="fill: none; stroke: #000000; stroke-width: 0.500000; stroke-linejoin: round; stroke-linecap: butt; stroke-dasharray: 1.000000,3.000000; stroke-dashoffset: 0.000000; opacity: 1.000000" clip-path="url(#p50431ccdcb28178602d99d9270004dde)" d="M72.000000 388.800000L518.400000 388.800000"/>
</g>
<g id="line2d21">
<defs><path id="m3400efa6b1638b3fea9e19e898273957" d="M0.000000 0.000000L4.000000 0.000000"/></defs>
<g ><use style="fill: none; stroke: #000000; stroke-width: 0.500000; stroke-linejoin: round; stroke-linecap: butt;  opacity: 1.000000" xlink:href="#m3400efa6b1638b3fea9e19e898273957" x="72.000000" y="388.800000"/>
</g></g>
<g id="line2d22">
<defs><path id="m20b58b2501143cb5e0a5e8f1ef6f1643" d="M0.000000 0.000000L-4.000000 0.000000"/></defs>
<g ><use style="fill: none; stroke: #000000; stroke-width: 0.500000; stroke-linejoin: round; stroke-linecap: butt;  opacity: 1.000000" xlink:href="#m20b58b2501143cb5e0a5e8f1ef6f1643" x="518.400000" y="388.800000"/>
</g></g>
<g id="text7">
<defs>
<path id="c_ed3e21196fb739f392806f09ca0594ef" d="M10.687500 -12.406250l10.312500 0.000000l0.000000 12.406250l-10.312500 0.000000z"/>
</defs>
<g style="fill: #000000; opacity: 1.000000" transform="translate(35.218750,393.167188)scale(0.120000)">
<use xlink:href="#c_7a2040fe3b94fcd41d0a72c84e93b115"/>
<use xlink:href="#c_ed3e21196fb739f392806f09ca0594ef" x="63.623047"/>
<use xlink:href="#c_7a2040fe3b94fcd41d0a72c84e93b115" x="95.410156"/>
<use xlink:href="#c_7a2040fe3b94fcd41d0a72c84e93b115" x="159.033203"/>
<use xlink:href="#c_7a2040fe3b94fcd41d0a72c84e93b115" x="222.656250"/>
</g>
</g>
</g>
<g id="ytick2">
<g id="line2d23">
<path style="fill: none; stroke: #000000; stroke-width: 0.500000; stroke-linejoin: round; stroke-linecap: butt; stroke-dasharray: 1.000000,3.000000; stroke-dashoffset: 0.000000; opacity: 1.000000" clip-path="url(#p50431ccdcb28178602d99d9270004dde)" d="M72.000000 319.680000L518.400000 319.680000"/>
</g>
<g id="line2d24">
<g ><use style="fill: none; stroke: #000000; stroke-width: 0.500000; stroke-linejoin: round; stroke-linecap: butt;  opacity: 1.000000" xlink:href="#m3400efa6b1638b3fea9e19e898273957" x="72.000000" y="319.680000"/>
</g></g>
<g id="line2d25">
<g ><use style="fill: none; stroke: #000000; stroke-width: 0.500000; stroke-linejoin: round; stroke-linecap: butt;  opacity: 1.000000" xlink:href="#m20b58b2501143cb5e0a5e8f1ef6f1643" x="518.400000" y="319.680000"/>
</g></g>
<g id="text8">
<defs>
<path id="c_1260a2df50f305f3db244e29828f968e" d="M10.796875 -72.906250l38.718750 0.000000l0.000000 8.312500l-29.687500 0.000000l0.000000 17.859375q2.140625 -0.734375 4.281250 -1.093750q2.156250 -0.359375 4.312500 -0.359375q12.203125 0.000000 19.328125 6.687500q7.140625 6.687500 7.140625 18.109375q0.000000 11.765625 -7.328125 18.296875q-7.328125 6.515625 -20.656250 6.515625q-4.593750 0.000000 -9.359375 -0.781250q-4.750000 -0.781250 -9.828125 -2.343750l0.000000 -9.921875q4.390625 2.390625 9.078125 3.562500q4.687500 1.171875 9.906250 1.171875q8.453125 0.000000 13.375000 -4.437500q4.937500 -4.437500 4.937500 -12.062500q0.000000 -7.609375 -4.937500 -12.046875q-4.921875 -4.453125 -13.375000 -4.453125q-3.953125 0.000000 -7.890625 0.875000q-3.921875 0.875000 -8.015625 2.734375z"/>
</defs>
<g style="fill: #000000; opacity: 1.000000" transform="translate(35.468750,324.047188)scale(0.120000)">
<use xlink:href="#c_7a2040fe3b94fcd41d0a72c84e93b115"/>
<use xlink:href="#c_ed3e21196fb739f392806f09ca0594ef" x="63.623047"/>
<use xlink:href="#c_7a2040fe3b94fcd41d0a72c84e93b115" x="95.410156"/>
<use xlink:href="#c_7a2040fe3b94fcd41d0a72c84e93b115" x="159.033203"/>
<use xlink:href="#c_1260a2df50f305f3db244e29828f968e" x="222.656250"/>
</g>
</g>
</g>
<g id="ytick3">
<g id="line2d26">
<path style="fill: none; stroke: #000000; stroke-width: 0.500000; stroke-linejoin: round; stroke-linecap: butt; stroke-dasharray: 1.000000,3.000000; stroke-dashoffset: 0.000000; opacity: 1.000000" clip-path="url(#p50431ccdcb28178602d99d9270004dde)" d="M72.000000 250.560000L518.400000 250.560000"/>
</g>
<g id="line2d27">
<g ><use style="fill: none; stroke: #000000; stroke-width: 0.500000; stroke-linejoin: round; stroke-linecap: butt;  opacity: 1.000000" xlink:href="#m3400efa6b1638b3fea9e19e898273957" x="72.000000" y="250.560000"/>
</g></g>
<g id="line2d28">
<g ><use style="fill: none; stroke: #000000; stroke-width: 0.500000; stroke-linejoin: round; stroke-linecap: butt;  opacity: 1.000000" xlink:href="#m20b58b2501143cb5e0a5e8f1ef6f1643" x="518.400000" y="250.560000"/>
</g></g>
<g id="text9">
<g style="fill: #000000; opacity: 1.000000" transform="translate(35.218750,254.927188)scale(0.120000)">
<use xlink:href="#c_7a2040fe3b94fcd41d0a72c84e93b115"/>
<use xlink:href="#c_ed3e21196fb739f392806f09ca0594ef" x="63.623047"/>
<use xlink:href="#c_7a2040fe3b94fcd41d0a72c84e93b115" x="95.410156"/>
<use xlink:href="#c_42baa63129a918535c52adb20d687ea7" x="159.033203"/>
<use xlink:href="#c_7a2040fe3b94fcd41d0a72c84e93b115" x="222.656250"/>
</g>
</g>
</g>
<g id="ytick4">
<g id="line2d29">
<path style="fill: none; stroke: #000000; stroke-width: 0.500000; stroke-linejoin: round; stroke-linecap: butt; stroke-dasharray: 1.000000,3.000000; stroke-dashoffset: 0.000000; opacity: 1.000000" clip-path="url(#p50431ccdcb28178602d99d9270004dde)" d="M72.000000 181.440000L518.400000 181.440000"/>
</g>
<g id="line2d30">
<g ><use style="fill: none; stroke: #000000; stroke-width: 0.500000; stroke-linejoin: round; stroke-linecap: butt;  opacity: 1.000000" xlink:href="#m3400efa6b1638b3fea9e19e898273957" x="72.000000" y="181.440000"/>
</g></g>
<g id="line2d31">
<g ><use style="fill: none; stroke: #000000; stroke-width: 0.500000; stroke-linejoin: round; stroke-linecap: butt;  opacity: 1.000000" xlink:href="#m20b58b2501143cb5e0a5e8f1ef6f1643" x="518.400000" y="181.440000"/>
</g></g>
<g id="text10">
<g style="fill: #000000; opacity: 1.000000" transform="translate(35.468750,185.807188)scale(0.120000)">
<use xlink:href="#c_7a2040fe3b94fcd41d0a72c84e93b115"/>
<use xlink:href="#c_ed3e21196fb739f392806f09ca0594ef" x="63.623047"/>
<use xlink:href="#c_7a2040fe3b94fcd41d0a72c84e93b115" x="95.410156"/>
<use xlink:href="#c_42baa63129a918535c52adb20d687ea7" x="159.033203"/>
<use xlink:href="#c_1260a2df50f305f3db244e29828f968e" x="222.656250"/>
</g>
</g>
</g>
<g id="ytick5">
<g id="line2d32">
<path style="fill: none; stroke: #000000; stroke-width: 0.500000; stroke-linejoin: round; stroke-linecap: butt; stroke-dasharray: 1.000000,3.000000; stroke-dashoffset: 0.000000; opacity: 1.000000" clip-path="url(#p50431ccdcb28178602d99d9270004dde)" d="M72.000000 112.320000L518.400000 112.320000"/>
</g>
<g id="line2d33">
<g ><use style="fill: none; stroke: #000000; stroke-width: 0.500000; stroke-linejoin: round; stroke-linecap: butt;  opacity: 1.000000" xlink:href="#m3400efa6b1638b3fea9e19e898273957" x="72.000000" y="112.320000"/>
</g></g>
<g id="line2d34">
<g ><use style="fill: none; stroke: #000000; stroke-width: 0.500000; stroke-linejoin: round; stroke-linecap: butt;  opacity: 1.000000" xlink:href="#m20b58b2501143cb5e0a5e8f1ef6f1643" x="518.400000" y="112.320000"/>
</g></g>
<g id="text11">
<g style="fill: #000000; opacity: 1.000000" transform="translate(35.218750,116.687187)scale(0.120000)">
<use xlink:href="#c_7a2040fe3b94fcd41d0a72c84e93b115"/>
<use xlink:href="#c_ed3e21196fb739f392806f09ca0594ef" x="63.623047"/>
<use xlink:href="#c_7a2040fe3b94fcd41d0a72c84e93b115" x="95.410156"/>
<use xlink:href="#c_ed3f3ed3ebfbd18bcb9c012009a68ad1" x="159.033203"/>
<use xlink:href="#c_7a2040fe3b94fcd41d0a72c84e93b115" x="222.656250"/>
</g>
</g>
</g>
<g id="ytick6">
<g id="line2d35">
<path style="fill: none; stroke: #000000; stroke-width: 0.500000; stroke-linejoin: round; stroke-linecap: butt; stroke-dasharray: 1.000000,3.000000; stroke-dashoffset: 0.000000; opacity: 1.000000" clip-path="url(#p50431ccdcb28178602d99d9270004dde)" d="M72.000000 43.200000L518.400000 43.200000"/>
</g>
<g id="line2d36">
<g ><use style="fill: none; stroke: #000000; stroke-width: 0.500000; stroke-linejoin: round; stroke-linecap: butt;  opacity: 1.000000" xlink:href="#m3400efa6b1638b3fea9e19e898273957" x="72.000000" y="43.200000"/>
</g></g>
<g id="line2d37">
<g ><use style="fill: none; stroke: #000000; stroke-width: 0.500000; stroke-linejoin: round; stroke-linecap: butt;  opacity: 1.000000" xlink:href="#m20b58b2501143cb5e0a5e8f1ef6f1643" x="518.400000" y="43.200000"/>
</g></g>
<g id="text12">
<g style="fill: #000000; opacity: 1.000000" transform="translate(35.468750,47.567187)scale(0.120000)">
<use xlink:href="#c_7a2040fe3b94fcd41d0a72c84e93b115"/>
<use xlink:href="#c_ed3e21196fb739f392806f09ca0594ef" x="63.623047"/>
<use xlink:href="#c_7a2040fe3b94fcd41d0a72c84e93b115" x="95.410156"/>
<use xlink:href="#c_ed3f3ed3ebfbd18bcb9c012009a68ad1" x="159.033203"/>
<use xlink:href="#c_1260a2df50f305f3db244e29828f968e" x="222.656250"/>
</g>
</g>
</g>
</g>
<g id="patch3">
<path style="fill: none; stroke: #000000; stroke-width: 1.000000; stroke-linejoin: round; stroke-linecap: square;  opacity: 1.000000"  d="M72.000000 43.200000L518.400000 43.200000"/>
</g>
<g id="patch4">
<path style="fill: none; stroke: #000000; stroke-width: 1.000000; stroke-linejoin: round; stroke-linecap: square;  opacity: 1.000000"  d="M518.400000 388.800000L518.400000 43.200000"/>
</g>
<g id="patch5">
<path style="fill: none; stroke: #000000; stroke-width: 1.000000; stroke-linejoin: round; stroke-linecap: square;  opacity: 1.000000"  d="M72.000000 388.800000L518.400000 388.800000"/>
</g>
<g id="patch6">
<path style="fill: none; stroke: #000000; stroke-width: 1.000000; stroke-linejoin: round; stroke-linecap: square;  opacity: 1.000000"  d="M72.000000 388.800000L72.000000 43.200000"/>
</g>
</g>
</g>
</svg>
