<?xml version="1.0" standalone="no"?>
<!DOCTYPE svg PUBLIC "-//W3C//DTD SVG 1.1//EN"
  "http://www.w3.org/Graphics/SVG/1.1/DTD/svg11.dtd">
<!-- Created with matplotlib (http://matplotlib.sourceforge.net/) -->
<svg width="576pt" height="432pt" viewBox="0 0 576 432"
   xmlns="http://www.w3.org/2000/svg"
   xmlns:xlink="http://www.w3.org/1999/xlink"
   version="1.1"
   id="svg1">
<g id="figure1">
<g id="patch1">
<path style="fill: #ffffff; stroke: #ffffff; stroke-width: 1.000000; stroke-linejoin: round; stroke-linecap: square;  opacity: 1.000000"  d="M0.000000 432.000000L576.000000 432.000000L576.000000 0.000000
L0.000000 0.000000L0.000000 432.000000"/>
</g>
<g id="axes1">
<g id="patch2">
<path style="fill: #ffffff; opacity: 1.000000"  d="M72.000000 388.800000L518.400000 388.800000L518.400000 43.200000
L72.000000 43.200000L72.000000 388.800000"/>
</g>
<g id="line2d1">
<defs>
  <clipPath id="p50431ccdcb28178602d99d9270004dde">
<rect x="72.000000" y="43.200000" width="446.400000" height="345.600000"/>
  </clipPath>
</defs><path style="fill: none; stroke: #ff0000; stroke-width: 1.000000; stroke-linejoin: round; stroke-linecap: square;  opacity: 1.000000" clip-path="url(#p50431ccdcb28178602d99d9270004dde)" d="M72.000000 324.279363L72.089280 334.143074L72.357120 337.778736
L72.669600 337.807312L72.669600 337.807312L72.892800 327.979732
L73.026720 334.860608L73.160640 337.327659L73.339200 336.964710
L73.607040 351.954458L73.651680 336.991529L73.740960 351.056175
L73.964160 338.134734L74.187360 351.532540L74.276640 337.446328
L74.544480 334.795083L74.678400 351.059502L74.901600 351.552190
L75.035520 337.172682L75.080160 334.263668L75.303360 351.996167
L75.392640 334.874195L75.481920 351.693846L75.660480 337.658546
L75.749760 334.807969L75.928320 318.064903L76.062240 335.325194
L76.151520 334.519264L76.151520 334.519264L76.240800 351.401311
L76.374720 336.794230L76.508640 334.436952L76.553280 351.392444
L77.088960 325.114135L77.133600 334.460660L77.401440 352.181429
L77.490720 351.614655L77.847840 334.866345L77.981760 335.020473
L78.338880 351.965695L78.472800 334.864716L78.606720 335.139666
L78.919200 344.454948L79.053120 351.440907L79.231680 334.449423
L79.588800 352.148063L79.722720 334.063862L79.901280 342.064571
L80.213760 351.916255L80.392320 351.922940L80.481600 344.587037
L80.704800 342.087124L80.749440 351.430331L81.061920 351.580361
L81.061920 351.580361L81.374400 351.600248L81.419040 342.106567
L81.508320 333.944818L81.686880 351.021733L81.999360 352.302191
L82.044000 334.500266L82.401120 351.505761L82.624320 333.965159
L82.758240 334.844464L83.026080 351.523159L83.115360 344.930010
L83.249280 334.358323L83.383200 351.158542L83.561760 324.595321
L83.784960 334.468500L83.829600 352.462658L84.142080 352.025780
L84.320640 352.269942L84.409920 344.279887L84.543840 351.831869
L84.811680 351.888034L84.811680 351.888034L85.168800 333.681362
L85.436640 351.251113L85.481280 344.947547L85.615200 351.442783
L85.883040 335.001821L86.284800 351.150287L86.731200 325.053260
L86.775840 334.247860L87.088320 333.873782L87.132960 351.332309
L87.534720 334.786472L87.624000 325.588308L87.891840 344.341167
L88.159680 351.323412L88.159680 351.323412L88.382880 351.429028
L88.561440 345.192389L88.695360 335.109371L88.873920 351.177184
L89.052480 344.147907L89.186400 352.118431L89.275680 351.703572
L89.498880 351.979569L89.588160 344.547668L89.811360 342.502851
L89.945280 351.082016L90.168480 333.009476L90.257760 344.405281
L90.525600 352.210311L90.882720 335.085861L90.927360 343.843641
L91.195200 332.474704L91.239840 345.076515L91.552320 334.134809
L91.775520 352.035240L91.909440 344.658507L92.043360 344.782666
L92.043360 344.782666L92.266560 344.403227L92.355840 351.151807
L92.623680 351.200122L92.668320 344.432899L92.846880 352.163704
L93.070080 334.198577L93.114720 344.714040L93.248640 342.364078
L93.471840 333.851911L93.561120 344.295449L93.828960 343.290000
L94.096800 351.680388L94.409280 351.952770L94.409280 351.952770
L94.498560 334.629046L94.677120 344.264295L94.766400 351.246146
L94.900320 344.444254L95.168160 344.105171L95.212800 351.833291
L95.525280 334.675268L95.614560 352.064014L95.703840 351.496045
L95.882400 338.207991L95.927040 344.335914L96.150240 351.751423
L96.239520 344.983331L96.373440 351.855538L96.552000 333.912489
L96.596640 351.475970L96.909120 344.201544L97.043040 344.092720
L97.266240 351.374393L97.534080 351.787089L97.578720 343.809555
L97.801920 334.490649L97.891200 344.738804L98.025120 351.713546
L98.203680 334.473596L98.471520 351.958981L98.605440 351.792313
L98.828640 341.890971L98.917920 344.587382L99.230400 351.735229
L99.408960 341.661286L99.542880 344.394251L99.721440 342.648497
L99.855360 351.496183L100.123200 351.518272L100.212480 344.117544
L100.301760 334.149857L100.435680 351.731734L100.480320 325.699740
L100.703520 351.477599L101.016000 344.637168L101.328480 351.799965
L101.373120 325.407283L101.640960 344.346311L101.864160 342.592184
L101.998080 351.718226L102.355200 343.873145L102.712320 351.720527
L102.756960 334.909644L103.024800 344.165039L103.158720 351.956789
L103.203360 344.721811L103.471200 334.498183L103.515840 344.474638
L103.649760 343.824959L103.828320 344.635361L103.962240 352.225853
L104.051520 344.328162L104.274720 351.895736L104.364000 345.139493
L104.587200 343.959032L104.631840 351.806384L104.944320 351.970168
L104.988960 344.257561L105.078240 345.376140L105.167520 352.659255
L105.390720 343.774738L105.480000 351.665714L105.703200 350.789727
L106.060320 325.474428L106.149600 352.316637L106.417440 344.149586
L106.506720 345.330462L106.819200 344.273202L106.819200 344.273202
L106.908480 352.318879L107.131680 345.039901L107.354880 333.703115
L107.533440 342.115997L107.845920 351.794130L107.935200 352.188123
L108.158400 351.835750L108.426240 351.913105L108.470880 344.313262
L108.738720 352.023736L108.828000 351.122816L109.051200 344.003693
L109.185120 344.879641L109.363680 345.542630L109.408320 343.838200
L109.586880 352.216008L109.765440 335.125239L109.810080 351.331875
L110.033280 351.950509L110.122560 335.077151L110.435040 351.447394
L110.568960 351.498839L110.613600 344.073574L110.970720 352.341303
L111.104640 342.380845L111.327840 343.724172L111.595680 344.888400
L111.684960 344.379272L111.952800 351.649846L112.265280 343.175833
L112.309920 344.668726L112.488480 334.700280L112.533120 344.709418
L112.711680 344.126115L112.890240 352.035210L113.113440 332.700194
L113.247360 344.733393L113.336640 342.114308L113.470560 341.983701
L113.559840 343.962715L113.738400 351.958201L113.872320 334.051332
L114.050880 344.456222L114.229440 351.962703L114.363360 344.542425
L114.586560 351.803856L114.631200 344.590117L114.809760 343.430471
L115.166880 352.101960L115.211520 344.584943L115.434720 344.661795
L115.568640 344.424190L115.747200 344.870448L116.059680 351.886602
L116.193600 351.931086L116.372160 344.216514L116.640000 334.289430
L116.684640 344.024459L116.773920 351.869539L116.952480 351.822567
L117.264960 351.859201L117.354240 344.606272L117.443520 344.105556
L117.577440 345.095493L117.756000 351.304938L117.800640 344.717397
L118.023840 352.293403L118.247040 334.138610L118.336320 344.979095
L118.470240 334.650879L118.648800 344.122382L118.738080 351.759184
L118.738080 351.759184L119.050560 342.208864L119.095200 343.349561
L119.273760 351.564375L119.318400 344.662367L119.541600 352.120583
L119.586240 344.217254L119.764800 351.768111L119.943360 344.406307
L120.211200 341.899602L120.345120 351.030995L120.479040 343.902205
L120.702240 352.111213L120.746880 344.053549L120.836160 344.463746
L120.836160 344.463746L121.104000 344.399020L121.104000 344.399020
L121.193280 342.073349L121.461120 334.632957L121.505760 343.533569
L121.639680 351.601344L121.862880 344.229864L121.996800 351.856989
L122.175360 344.854531L122.443200 351.597898L122.755680 343.591541
L122.844960 345.088937L123.112800 352.185319L123.336000 334.688707
L123.514560 335.608358L123.737760 352.053823L123.916320 351.851134
L124.184160 352.274642L124.228800 343.811283L124.407360 351.780108
L124.496640 344.694627L124.764480 351.198967L124.764480 351.198967
L124.987680 352.201651L125.076960 344.963188L125.344800 335.398471
L125.389440 351.290561L125.523360 351.552565L125.701920 343.901860
L125.835840 325.851893L126.059040 351.552693L126.371520 352.405289
L126.371520 352.405289L126.505440 343.826499L126.684000 352.060883
L126.907200 352.349864L127.041120 344.813444L127.398240 351.995496
L127.800000 343.906155L128.067840 352.093380L128.157120 335.112156
L128.424960 344.661183L128.648160 351.544359L128.737440 343.855777
L129.094560 352.741706L129.139200 343.926901L129.317760 344.716172
L129.674880 352.115617L129.719520 342.085850L130.032000 344.539551
L130.344480 344.377307L130.478400 352.030757L130.523040 341.603442
L130.835520 344.095514L131.058720 335.063199L131.103360 344.494445
L131.326560 351.868483L131.371200 343.815904L131.415840 352.313349
L131.683680 351.736365L131.817600 352.251111L132.040800 345.095039
L132.174720 342.585272L132.353280 344.819546L132.487200 335.552134
L132.621120 352.185349L132.888960 352.156921L132.933600 334.290141
L133.201440 351.329288L133.246080 352.400302L133.424640 344.131595
L133.692480 351.444738L133.826400 351.759313L133.871040 344.533676
L134.094240 342.606512L134.228160 352.175800L134.540640 334.368968
L134.585280 345.143492L134.629920 344.060925L134.897760 352.259090
L135.165600 342.129791L135.210240 343.514630L135.388800 327.125982
L135.567360 351.232599L135.879840 352.859940L135.879840 352.859940
L135.924480 351.461100L135.969120 332.128660L136.236960 333.162755
L136.504800 352.390359L136.594080 351.586888L136.995840 334.097682
L137.308320 351.867693L137.397600 351.649827L137.576160 334.660654
L137.710080 344.065733L138.111840 351.662357L138.156480 344.521294
L138.468960 351.985918L138.602880 333.549402L138.826080 343.981328
L139.183200 351.820504L139.272480 344.251775L139.406400 344.550393
L139.763520 351.746506L140.031360 334.245411L140.076000 351.783169
L140.254560 334.884405L140.388480 344.617874L140.745600 352.102109
L140.790240 342.157439L141.102720 344.348829L141.192000 345.606132
L141.325920 352.488628L141.370560 343.540382L141.593760 352.114599
L141.593760 352.114599L141.727680 341.930755L141.950880 343.815628
L141.995520 351.927215L142.263360 344.218380L142.441920 343.837697
L142.441920 343.837697L142.531200 351.820435L142.665120 344.875316
L142.799040 351.845446L143.111520 335.130147L143.200800 352.153850
L143.468640 343.774225L143.602560 352.126439L143.647200 344.476741
L143.959680 351.461662L144.361440 335.638554L144.450720 351.806611
L144.629280 344.706071L144.852480 325.267740L144.941760 345.151727
L145.075680 342.045909L145.254240 351.581526L145.477440 334.966234
L145.611360 344.531839L145.700640 344.423133L145.879200 351.778173
L146.280960 337.033297L146.459520 352.100390L146.548800 344.428100
L146.905920 351.836214L147.218400 352.004788L147.263040 344.668736
L147.396960 344.448056L147.575520 344.769642L147.709440 351.621409
L147.843360 343.436870L147.977280 352.022917L148.155840 351.509701
L148.334400 334.585116L148.512960 344.164980L148.825440 351.687240
L149.137920 334.949437L149.182560 344.641187L149.361120 351.543214
L149.673600 351.436908L150.030720 331.601225L150.120000 351.617014
L150.387840 351.317972L150.700320 342.317274L150.878880 351.988495
L150.923520 344.841842L151.191360 344.004325L151.191360 344.004325
L151.280640 351.997066L151.503840 344.543807L151.771680 352.260660
L151.816320 345.013477L151.905600 351.715994L152.039520 335.087322
L152.128800 344.721593L152.262720 351.347328L152.307360 345.046645
L152.530560 352.022255L152.664480 335.794380L152.843040 351.973664
L153.021600 342.140258L153.512640 352.052875L153.735840 333.873693
L153.825120 344.103601L154.048320 351.946687L154.092960 343.696485
L154.182240 345.273270L154.450080 352.424909L154.450080 352.424909
L154.539360 351.161188L154.628640 352.060222L154.851840 351.965429
L155.298240 341.947788L155.655360 352.372733L155.967840 344.138418
L156.235680 333.775227L156.280320 351.703553L156.548160 344.211991
L156.637440 344.626573L156.771360 335.392023L156.949920 344.381098
L157.083840 344.394152L157.083840 344.394152L157.351680 352.046121
L157.619520 333.358078L157.708800 344.039577L157.753440 351.993126
L157.976640 351.915297L158.289120 352.446632L158.378400 344.710534
L158.467680 351.466827L158.556960 345.397192L158.780160 352.133272
L158.869440 343.414307L159.048000 351.724674L159.315840 334.244433
L159.360480 351.479239L159.628320 343.998756L159.896160 343.689563
L159.940800 352.127861L160.164000 344.080061L160.208640 345.230840
L160.387200 352.512879L160.521120 351.969112L160.922880 334.388766
L161.146080 351.709991L161.190720 344.272215L161.369280 335.213723
L161.726400 352.026462L161.949600 336.177631L162.038880 344.943725
L162.306720 351.945325L162.351360 344.062998L162.485280 344.976518
L162.574560 342.474877L162.619200 352.352392L162.842400 351.663118
L162.976320 352.707126L163.110240 342.589133L163.288800 344.042213
L163.467360 351.792609L163.601280 351.477985L164.003040 332.066798
L164.136960 351.886671L164.494080 351.550126L164.761920 351.933545
L164.806560 344.957056L165.074400 343.754990L165.074400 343.754990
L165.163680 351.898777L165.342240 344.708767L165.610080 344.204665
L165.610080 344.204665L165.744000 345.436581L165.922560 341.425527
L165.967200 351.705607L166.279680 352.229665L166.279680 352.229665
L166.502880 334.936996L166.547520 344.221797L166.860000 344.086973
L166.860000 344.086973L167.172480 351.684456L167.172480 351.684456
L167.351040 334.251701L167.395680 344.402684L167.618880 343.953581
L167.708160 349.415148L167.842080 343.882072L167.976000 343.905721
L168.377760 352.050782L168.690240 352.325801L168.824160 345.145299
L168.958080 336.314834L169.270560 352.314455L169.315200 344.072971
L169.583040 343.919683L169.627680 351.299823L169.761600 351.616857
L169.806240 344.278070L169.984800 351.588754L170.163360 351.479051
L170.386560 351.766738L170.475840 344.412202L170.565120 334.835607
L170.699040 351.879621L170.966880 352.446178L171.011520 351.227780
L171.056160 352.241751L171.413280 332.886867L171.502560 352.250963
L171.681120 344.327580L171.993600 351.572590L172.127520 342.088951
L172.172160 344.951625L172.395360 342.203177L172.440000 344.613105
L172.663200 334.990258L172.707840 341.539032L172.931040 281.788771
L173.109600 351.706959L173.154240 344.533903L173.332800 340.561547
L173.377440 344.479930L173.779200 351.911999L174.091680 351.973259
L174.180960 345.019994L174.359520 341.952034L174.538080 351.933900
L174.805920 344.366879L174.895200 344.658191L175.073760 334.497551
L175.118400 351.742754L175.296960 344.153496L175.475520 344.252960
L175.609440 352.033620L175.832640 351.734449L176.145120 335.088615
L176.368320 351.652019L176.412960 344.532442L176.636160 351.582859
L176.680800 344.262439L177.037920 352.139473L177.305760 352.246668
L177.350400 344.168633L177.618240 351.752727L177.886080 351.811913
L177.930720 344.067817L178.198560 352.730034L178.287840 343.782628
L178.466400 344.862845L178.778880 344.020272L178.868160 351.800252
L178.957440 334.784606L179.180640 344.159450L179.537760 351.806640
L179.582400 335.147999L179.805600 343.880818L180.028800 335.279604
L180.073440 343.449618L180.341280 351.688129L180.787680 335.538784
L181.055520 331.071015L181.100160 344.637465L181.278720 343.786212
L181.546560 351.905709L181.591200 335.331079L181.814400 345.293048
L181.948320 334.620693L182.171520 351.372567L182.528640 344.112064
L182.573280 351.945996L182.707200 345.053715L182.930400 351.975846
L182.975040 325.608590L183.242880 344.651990L183.510720 352.072802
L184.046400 343.025477L184.180320 344.636270L184.492800 344.624776
L184.492800 344.624776L184.671360 344.191423L184.805280 351.412044
L184.939200 351.787988L184.983840 345.085550L185.207040 351.985622
L185.519520 344.696809L185.832000 351.989334L185.965920 344.413595
L186.189120 345.519505L186.367680 343.636074L186.412320 352.265795
L186.635520 344.565204L186.858720 352.111331L186.858720 352.111331
L187.081920 344.248329L187.171200 344.284271L187.439040 341.690395
L187.483680 344.720606L187.617600 343.600289L187.930080 352.006832
L188.019360 344.417860L188.287200 344.583916L188.510400 352.012549
L188.599680 344.328429L188.822880 351.326197L189.135360 352.181784
L189.180000 344.927038L189.358560 344.477531L189.358560 344.477531
L189.626400 352.682302L189.671040 344.412884L189.894240 351.627432
L189.938880 344.761387L190.206720 351.539936L190.206720 351.539936
L190.429920 342.859471L190.474560 344.443642L190.653120 351.560277
L190.697760 335.429209L190.965600 344.233735L191.233440 352.320429
L191.278080 345.219445L191.367360 343.616898L191.590560 342.319190
L191.679840 351.822301L191.769120 341.555858L191.903040 351.048522
L191.903040 351.048522L192.170880 334.494016L192.215520 344.877726
L192.528000 351.698783L192.840480 333.908964L192.885120 345.018948
L192.974400 351.507528L193.376160 333.765362L193.644000 351.758335
L193.777920 344.506492L194.090400 352.070560L194.224320 352.276577
L194.358240 345.270367L194.536800 351.743583L194.760000 334.669373
L194.849280 341.894348L195.161760 352.471980L195.563520 325.491116
L195.876000 351.996039L195.920640 344.737491L196.009920 344.553049
L196.009920 344.553049L196.322400 352.089815L196.590240 352.774222
L196.679520 343.712372L196.813440 341.867135L196.858080 343.717902
L196.992000 351.779980L197.036640 344.068913L197.215200 343.856912
L197.215200 343.856912L197.572320 351.870665L197.795520 344.778311
L198.108000 351.788699L198.197280 335.841411L198.465120 351.988613
L198.465120 351.988613L198.688320 343.356157L198.732960 351.972449
L198.822240 350.866954L199.134720 351.873232L199.179360 344.207489
L199.268640 345.278809L199.447200 343.688269L199.581120 352.157503
L199.982880 334.523757L200.250720 351.811024L200.518560 342.783597
L200.607840 345.267306L200.697120 334.208985L200.920320 345.006279
L201.098880 341.948302L201.143520 343.714436L201.500640 351.909214
L201.857760 332.648522L202.125600 351.842533L202.259520 351.359987
L202.438080 351.971590L202.482720 344.856970L202.750560 352.299466
L202.795200 343.799315L203.063040 344.187553L203.286240 352.245157
L203.420160 351.654250L203.643360 334.617306L203.866560 345.012549
L203.911200 343.793499L203.955840 344.951487L204.179040 344.429157
L204.268320 344.483505L204.536160 351.768575L204.580800 343.680419
L204.670080 342.137058L204.714720 343.360008L205.027200 351.981198
L205.428960 335.755327L205.473600 343.416035L205.696800 334.500592
L205.786080 351.375233L205.920000 351.814925L205.964640 344.818549
L206.143200 351.611208L206.277120 343.857988L206.589600 344.342352
L206.678880 344.321211L206.902080 348.579121L206.991360 351.644465
L207.214560 344.456321L207.482400 344.172484L207.527040 351.796401
L207.794880 343.760421L207.839520 349.857042L207.884160 351.720615
L208.107360 352.068595L208.107360 352.068595L208.152000 323.659752
L208.419840 344.908869L208.464480 343.817958L208.598400 351.899449
L208.776960 351.846404L208.866240 352.829597L209.044800 350.644397
L209.178720 351.648513L209.268000 343.945544L209.535840 344.323512
L209.669760 352.290599L209.803680 344.510827L209.892960 343.433493
L209.982240 351.574140L210.116160 343.719511L210.428640 352.056509
L210.607200 334.808679L210.696480 344.440285L211.008960 352.344285
L211.098240 352.280616L211.366080 343.734036L211.455360 344.314733
L211.633920 343.857297L211.678560 351.503154L211.946400 343.182024
L212.035680 345.137627L212.214240 344.334294L212.303520 351.213689
L212.526720 351.653480L212.616000 344.019601L212.839200 350.977803
L212.973120 351.524038L213.196320 344.443869L213.508800 352.238739
L213.553440 343.161812L213.732000 344.422719L213.910560 351.996681
L213.999840 351.534544L214.178400 334.892700L214.401600 342.263508
L214.446240 345.229448L214.758720 351.671708L214.758720 351.671708
L215.071200 351.856663L215.071200 351.856663L215.294400 343.728142
L215.562240 343.476772L215.696160 351.303150L215.964000 342.596598
L216.053280 344.996168L216.365760 342.296025L216.365760 342.296025
L216.499680 351.664194L216.678240 344.119400L216.856800 351.604227
L216.946080 342.526589L216.990720 352.170419L217.258560 351.110296
L217.437120 351.275907L217.571040 344.779328L217.749600 351.819299
L217.972800 344.246156L218.062080 344.704363L218.285280 343.551076
L218.329920 351.638461L218.463840 334.852877L218.642400 344.606825
L218.910240 343.716194L218.999520 351.108578L219.178080 352.303969
L219.267360 343.860022L219.579840 343.454337L219.579840 343.454337
L219.713760 351.876432L219.758400 344.608701L220.070880 352.402948
L220.428000 334.997742L220.606560 352.092540L220.785120 344.142891
L221.097600 344.354961L221.097600 344.354961L221.276160 342.145955
L221.320800 344.189369L221.544000 341.449058L221.633280 351.536312
L221.945760 343.999210L222.035040 352.027706L222.168960 351.977120
L222.615360 341.501006L222.660000 344.174301L222.927840 343.806020
L222.927840 343.806020L223.106400 343.918459L223.106400 343.918459
L223.463520 351.984713L223.642080 343.513445L223.776000 344.166017
L224.133120 351.658881L224.267040 334.660190L224.400960 351.468367
L224.713440 344.407976L224.802720 351.841575L225.025920 344.063038
L225.338400 352.037106L225.606240 341.778059L225.650880 343.542288
L225.918720 351.830911L225.963360 339.609923L226.186560 344.465079
L226.320480 344.208308L226.409760 351.155411L226.766880 335.647856
L227.079360 351.658644L227.302560 352.079131L227.391840 344.079587
L227.481120 342.850851L227.748960 351.661794L228.106080 334.737910
L228.195360 344.901898L228.373920 351.877004L228.552480 351.773710
L228.954240 343.621272L228.998880 351.812940L229.222080 344.221303
L229.445280 342.471510L229.445280 342.471510L229.668480 282.441235
L229.713120 344.102614L229.847040 352.062088L230.070240 351.756252
L230.427360 343.741906L230.650560 352.115459L230.873760 343.959308
L230.963040 351.560287L231.230880 343.672293L231.409440 342.375651
L231.543360 351.491404L231.811200 351.760833L231.855840 344.098230
L232.123680 351.739100L232.659360 342.532079L233.105760 351.677593
L233.552160 325.965704L233.909280 352.110383L233.998560 344.017725
L234.221760 351.859636L234.400320 333.874197L234.623520 341.849914
L234.891360 352.195776L235.337760 331.615563L235.650240 352.246619
L235.739520 343.756629L236.007360 351.338352L236.007360 351.338352
L236.185920 351.581576L236.319840 343.674179L236.543040 341.976266
L236.587680 343.788493L236.810880 352.006674L237.078720 351.351544
L237.435840 335.249438L237.480480 344.609224L237.792960 351.630838
L238.105440 352.027133L238.105440 352.027133L238.507200 334.232920
L238.775040 351.337859L238.819680 344.483653L239.087520 351.541980
L239.444640 334.215808L239.757120 351.660639L239.801760 338.937740
L240.069600 344.334176L240.292800 342.070516L240.382080 351.617182
L240.694560 334.828843L240.739200 344.179466L240.873120 341.503504
L240.917760 343.941811L241.185600 351.901335L241.230240 344.565599
L241.587360 351.576560L241.899840 351.639449L241.989120 344.610458
L242.123040 351.384564L242.346240 341.940116L242.435520 344.566202
L242.792640 351.761683L243.060480 343.991153L243.417600 351.660698
L243.685440 351.956966L243.685440 351.956966L243.864000 341.894299
L244.042560 344.588804L244.399680 351.881981L244.667520 335.253486
L244.756800 344.433126L244.801440 351.845130L245.069280 344.614339
L245.337120 343.868208L245.337120 343.868208L245.471040 351.516761
L245.560320 344.083922L245.694240 334.192317L245.872800 351.240350
L246.096000 332.938826L246.274560 334.741643L246.587040 351.480384
L246.631680 341.991541L246.944160 352.085500L246.988800 342.453579
L247.301280 343.821720L247.479840 351.905107L247.569120 334.232100
L247.792320 344.755018L248.194080 351.478824L248.417280 344.266093
L248.595840 351.722966L248.729760 351.320302L248.908320 351.883897
L248.997600 343.499986L249.399360 351.950489L249.756480 343.504558
L250.113600 351.836944L250.247520 340.360635L250.381440 344.550304
L250.738560 351.767252L250.827840 341.665966L250.872480 344.425997
L251.140320 351.199559L251.229600 351.094003L251.408160 351.823377
L251.497440 344.360807L251.631360 351.729522L251.943840 352.470340
L252.122400 334.986604L252.434880 332.437715L252.479520 351.510441
L252.792000 351.812209L252.792000 351.812209L252.970560 351.827613
L253.104480 351.395287L253.327680 343.724952L253.684800 351.692316
L253.729440 344.069318L253.997280 344.165010L254.175840 351.864780
L254.220480 344.483287L254.354400 342.853388L254.488320 344.388001
L254.845440 352.101467L255.247200 334.805263L255.559680 351.576105
L255.604320 343.953206L255.693600 351.703750L255.916800 350.318803
L256.229280 351.707759L256.273920 344.472041L256.541760 343.964868
L256.586400 351.688633L256.988160 335.271961L257.345280 352.277476
L257.389920 350.994905L257.523840 352.218526L257.568480 343.783665
L257.836320 344.796816L257.925600 343.488789L258.014880 343.566045
L258.059520 351.552407L258.282720 344.697658L258.461280 343.751800
L258.505920 351.925458L258.863040 325.469076L259.220160 351.947072
L259.354080 315.894347L259.577280 344.285328L259.755840 341.883615
L259.934400 351.648800L260.112960 351.472129L260.425440 352.681887
L260.425440 352.681887L260.514720 342.297960L260.782560 344.337237
L260.916480 343.054992L260.961120 351.537072L261.228960 332.794434
L261.318240 343.693058L261.630720 352.087366L261.943200 335.227774
L261.987840 344.165148L262.166400 343.824722L262.300320 351.708638
L262.344960 344.481856L262.612800 351.623048L262.702080 344.244764
L262.880640 344.697500L263.103840 344.295577L263.282400 351.950459
L263.327040 334.664653L263.550240 344.236460L263.907360 352.307770
L263.952000 350.845625L264.219840 351.891381L264.264480 344.659741
L264.353760 344.472910L264.487680 344.559882L264.800160 334.658245
L264.844800 343.565581L265.068000 351.898205L265.380480 352.105189
L265.469760 334.947018L265.603680 351.959247L265.826880 351.336407
L266.228640 341.178779L266.407200 352.167417L266.496480 343.748818
L266.675040 352.198106L266.808960 344.216069L267.076800 341.883566
L267.076800 341.883566L267.389280 352.013200L267.389280 352.013200
L267.567840 344.225608L267.701760 344.515863L267.924960 335.076105
L268.014240 350.927779L268.326720 352.184549L268.371360 343.619880
L268.549920 352.188193L268.728480 351.563229L268.951680 344.353046
L269.219520 344.148085L269.398080 351.976784L269.442720 341.707527
L269.710560 344.073485L269.933760 342.017214L270.023040 351.986945
L270.201600 343.456628L270.246240 344.793992L270.603360 352.063668
L270.648000 344.447868L270.960480 344.470372L271.139040 344.204141
L271.183680 351.666702L271.496160 351.684643L271.496160 351.684643
L271.897920 334.327160L272.210400 351.229212L272.255040 344.222754
L272.567520 343.897140L272.656800 351.136759L272.880000 351.739308
L272.924640 344.015434L273.058560 351.756035L273.237120 347.977748
L273.326400 352.140125L273.460320 344.553740L273.817440 352.297491
L273.996000 334.982921L274.174560 344.098111L274.308480 343.897436
L274.487040 344.093530L274.710240 351.768881L274.933440 351.513799
L275.022720 351.902055L275.201280 351.606735L275.469120 351.999406
L275.469120 351.999406L275.781600 343.392011L275.826240 344.468891
L276.138720 351.814263L276.406560 352.538947L276.451200 343.360117
L276.495840 351.872235L276.585120 344.435269L276.808320 342.363259
L276.852960 344.140166L277.076160 343.857633L277.120800 345.187166
L277.254720 343.860575L277.567200 352.170784L277.835040 325.237712
L277.879680 344.055751L277.968960 351.649876L278.147520 351.239185
L278.326080 334.382436L278.370720 343.965717L278.593920 351.773433
L278.727840 351.203025L278.906400 344.084613L278.995680 344.285189
L279.218880 351.692000L279.263520 343.813613L279.352800 344.855815
L279.665280 344.398527L279.799200 351.844439L279.843840 344.865709
L280.334880 351.628785L280.513440 344.447888L280.825920 352.105199
L280.870560 342.894406L281.138400 343.822964L281.316960 334.906731
L281.450880 344.316856L281.629440 345.041501L281.629440 345.041501
L281.808000 335.212321L281.897280 344.104293L282.209760 351.995920
L282.388320 344.505979L282.611520 351.530674L282.924000 351.655277
L282.968640 343.716924L283.147200 334.744477L283.281120 344.027194
L283.370400 345.122045L283.548960 352.062473L283.682880 344.222517
L283.906080 351.262646L283.950720 345.126015L284.084640 343.705065
L284.129280 344.822242L284.218560 352.640929L284.441760 351.838258
L284.754240 341.471324L285.111360 352.288328L285.200640 343.328193
L285.468480 344.198365L285.647040 342.588037L285.647040 342.588037
L285.736320 352.283292L285.914880 343.808360L286.182720 351.647180
L286.450560 351.867318L286.629120 344.599251L286.718400 352.303840
L286.896960 334.248817L287.075520 344.242542L287.254080 351.729443
L287.298720 344.319868L287.388000 351.390005L287.477280 344.037305
L287.789760 351.450040L287.968320 351.696502L288.102240 344.760547
L288.325440 343.461407L288.370080 351.788748L288.682560 340.988551
L288.905760 351.641374L288.995040 351.431171L289.218240 334.849895
L289.262880 343.939323L289.396800 351.606291L289.575360 351.359513
L289.843200 334.711289L289.887840 344.734124L290.155680 351.724733
L290.512800 325.806935L290.557440 344.657134L290.914560 351.895914
L290.959200 344.036150L291.227040 351.491137L291.539520 343.615249
L291.718080 343.296467L291.852000 352.095493L292.164480 343.505239
L292.253760 351.599211L292.298400 344.246127L292.566240 352.006713
L292.610880 344.907230L292.700160 345.195431L292.700160 345.195431
L292.834080 344.170529L292.968000 351.204625L293.235840 351.882791
L293.280480 344.026098L293.548320 335.785306L293.592960 343.625350
L293.816160 349.442539L293.905440 342.302858L294.173280 351.955031
L294.217920 345.136452L294.351840 343.261769L294.396480 344.643606
L294.530400 344.178439L294.708960 350.813564L295.066080 336.425426
L295.289280 351.426658L295.333920 344.680971L295.691040 335.603500
L295.824960 351.913539L296.092800 351.880727L296.405280 344.113140
L296.628480 351.401696L296.717760 344.252772L296.851680 325.542808
L296.940960 344.291529L297.208800 351.611811L297.253440 344.454297
L297.298080 343.226488L297.655200 351.464348L297.789120 344.045926
L297.923040 344.464112L298.101600 334.573810L298.146240 343.972086
L298.458720 343.829067L298.458720 343.829067L298.548000 344.062623
L298.548000 344.062623L298.726560 351.764665L298.860480 351.638728
L299.217600 342.812460L299.262240 344.119371L299.440800 342.648813
L299.530080 351.526290L299.574720 344.334057L300.021120 351.631875
L300.244320 335.763069L300.333600 343.747623L300.467520 351.572037
L300.646080 331.622336L300.824640 335.198003L301.092480 351.388296
L301.181760 344.987152L301.271040 351.143335L301.404960 344.367166
L301.672800 343.796491L301.717440 351.282405L301.985280 341.459110
L302.029920 344.377030L302.119200 343.888184L302.253120 344.411837
L302.610240 342.066852L302.654880 343.715641L302.922720 351.502196
L303.056640 325.226752L303.145920 343.270231L303.547680 351.296890
L303.904800 338.491571L303.949440 344.314516L304.128000 351.966377
L304.261920 344.846938L304.306560 343.689187L304.485120 352.002368
L304.574400 351.500508L304.797600 343.968225L305.110080 351.545959
L305.467200 335.110951L305.645760 351.340288L305.779680 344.422817
L305.958240 351.986263L306.092160 332.318158L306.270720 344.518884
L306.583200 344.030216L306.583200 344.030216L306.761760 335.199030
L306.806400 343.651221L307.118880 351.876205L307.476000 335.061491
L307.565280 351.524848L307.654560 344.070493L307.922400 351.150297
L307.967040 345.165462L308.056320 351.579709L308.234880 342.000675
L308.368800 335.543079L308.502720 344.181045L308.770560 351.183711
L308.949120 351.611011L308.993760 343.936726L309.172320 343.676963
L309.172320 343.676963L309.440160 351.440986L309.484800 344.498800
L309.708000 342.862394L309.752640 344.501752L309.975840 351.891312
L310.109760 351.750189L310.243680 335.255175L310.422240 343.927592
L310.600800 332.773224L310.779360 351.600268L311.047200 334.569119
L311.091840 343.665706L311.404320 351.740957L311.672160 351.925655
L311.716800 344.037957L312.029280 343.733730L312.029280 343.733730
L312.163200 351.597276L312.475680 351.829835L312.520320 342.261790
L312.877440 351.897138L312.922080 350.882634L313.189920 335.011497
L313.234560 344.107126L313.502400 352.856445L313.547040 351.218241
L313.859520 351.583136L313.904160 344.365053L313.948800 351.897652
L314.038080 344.530891L314.216640 333.447697L314.261280 351.513107
L314.573760 351.188619L314.886240 351.392295L314.930880 344.093520
L315.154080 352.025830L315.198720 334.701603L315.466560 342.258117
L315.689760 351.397963L315.779040 351.485637L316.002240 344.547233
L316.314720 342.417794L316.359360 351.528018L316.671840 343.494289
L316.805760 344.396216L317.118240 343.873313L317.118240 343.873313
L317.386080 351.709981L317.430720 344.350873L317.609280 344.341009
L317.609280 344.341009L318.011040 351.371293L318.368160 343.501379
L318.457440 344.695041L318.680640 341.861773L318.725280 344.055474
L318.903840 342.690354L318.993120 349.493539L319.037760 335.413252
L319.305600 344.625447L319.528800 343.741166L319.528800 343.741166
L319.752000 351.593909L319.841280 344.530911L320.064480 351.548210
L320.109120 342.233866L320.376960 351.794139L320.466240 343.635047
L320.778720 351.552131L320.868000 352.986045L321.091200 344.407927
L321.403680 351.938097L321.716160 344.204339L322.073280 351.897434
L322.162560 351.930918L322.385760 343.907913L322.564320 351.705458
L322.608960 347.626223L322.787520 352.546550L322.921440 352.031813
L323.144640 352.078341L323.278560 343.807896L323.412480 342.137671
L323.591040 351.862845L323.724960 351.500646L323.858880 292.997972
L324.082080 344.351367L324.707040 351.351041L325.019520 343.869136
L325.198080 351.887066L325.465920 351.346805L325.778400 334.327199
L325.823040 351.436039L326.046240 351.095929L326.224800 351.129610
L326.403360 333.668209L326.760480 352.153968L326.939040 342.189906
L327.028320 343.593269L327.117600 351.222705L327.251520 344.557996
L327.430080 351.638136L327.474720 344.114157L327.653280 351.630602
L327.787200 344.930158L327.876480 345.055818L327.876480 345.055818
L327.965760 344.136177L328.188960 351.201860L328.456800 325.430231
L328.501440 344.925932L328.769280 352.110304L328.947840 334.500967
L329.081760 344.167419L329.304960 351.809632L329.349600 344.089333
L329.617440 351.915662L329.662080 344.847421L329.796000 335.102805
L329.840640 344.368203L329.974560 333.954179L330.019200 345.253205
L330.242400 351.879345L330.287040 344.495423L330.554880 352.165037
L330.644160 351.535996L330.822720 352.016340L330.956640 344.734539
L331.179840 344.045462L331.358400 351.787227L331.626240 335.374930
L331.715520 344.133817L331.804800 344.102318L331.938720 351.560099
L332.117280 352.210271L332.251200 344.337010L332.563680 352.258962
L332.831520 334.241817L332.876160 343.948871L333.144000 351.907901
L333.188640 334.407882L333.411840 351.425039L333.724320 351.737599
L333.768960 344.378324L334.036800 334.797581L334.081440 351.234820
L334.304640 343.877934L334.393920 344.273834L334.617120 351.850917
L334.661760 344.447533L334.840320 352.530781L334.974240 343.781473
L335.242080 351.395060L335.465280 351.429660L335.599200 344.226615
L335.777760 342.202634L335.822400 344.467923L335.956320 342.358578
L336.000960 343.882644L336.134880 351.904139L336.313440 351.399326
L336.581280 334.005387L336.625920 344.799482L336.849120 352.556375
L336.938400 350.855470L337.206240 343.534625L337.250880 351.106998
L337.474080 344.783357L337.697280 351.698833L337.965120 342.283790
L338.054400 343.836324L338.322240 352.234187L338.590080 342.074130
L338.634720 344.474983L338.947200 351.688751L339.215040 344.017823
L339.616800 352.018868L339.884640 343.232531L339.929280 344.886583
L340.197120 351.550432L340.554240 339.391928L340.598880 351.903369
L340.822080 343.277489L341.000640 351.475437L341.134560 351.351465
L341.268480 351.956334L341.447040 345.517313L341.536320 343.656030
L341.714880 343.885212L341.893440 352.506293L341.938080 344.388830
L342.027360 344.084613L342.161280 351.261234L342.384480 351.693728
L342.518400 344.052719L342.652320 351.983765L342.786240 351.966643
L343.009440 344.041235L343.188000 351.858441L343.232640 335.217969
L343.411200 344.505119L343.768320 351.689186L343.991520 352.127031
L344.170080 343.554927L344.393280 334.141198L344.437920 344.704965
L344.750400 344.009035L344.750400 344.009035L344.973600 351.711492
L345.018240 334.014826L345.152160 344.039122L345.375360 351.271306
L345.687840 352.026718L345.687840 352.026718L345.911040 352.213777
L345.911040 352.213777L345.955680 334.859246L346.223520 351.926030
L346.402080 335.217317L346.446720 344.395406L346.669920 351.636684
L346.803840 351.900841L346.937760 351.803076L347.116320 344.158522
L347.339520 343.821957L347.339520 343.821957L347.473440 351.844528
L347.652000 344.526705L347.875200 342.964553L347.964480 351.234633
L348.321600 335.711209L348.500160 351.509898L348.634080 344.697313
L348.723360 351.687685L348.946560 344.536016L349.259040 351.790970
L349.526880 342.747013L349.616160 344.605492L349.794720 342.429248
L349.839360 350.754713L350.151840 351.889486L350.241120 343.738075
L350.419680 352.141546L350.553600 352.053448L350.776800 334.106094
L350.910720 342.491219L350.955360 351.736197L351.089280 344.337721
L351.401760 351.845012L351.714240 333.721363L351.758880 344.293563
L351.848160 351.309717L351.892800 344.314605L352.116000 350.906599
L352.205280 343.358192L352.473120 351.674967L352.874880 342.473248
L353.008800 351.890680L353.187360 343.916257L353.321280 351.427636
L353.455200 345.748667L353.723040 342.189935L353.767680 344.353678
L353.990880 351.757466L353.990880 351.757466L354.169440 343.210571
L354.303360 344.253572L354.571200 343.865996L354.660480 351.607150
L354.794400 352.726469L354.928320 344.108805L355.196160 351.522715
L355.419360 351.622396L355.464000 344.186200L355.731840 351.974523
L355.999680 323.891462L356.044320 345.711184L356.133600 343.992871
L356.401440 352.157602L356.401440 352.157602L356.758560 344.120131
L357.160320 351.876748L357.428160 335.139162L357.472800 344.251400
L357.606720 343.851215L357.785280 351.280469L358.053120 334.689754
L358.097760 345.108972L358.410240 343.991459L358.454880 351.249790
L358.678080 335.304606L358.812000 345.104489L358.990560 344.275760
L358.990560 344.275760L359.347680 352.253244L359.794080 335.180436
L359.928000 334.918126L360.106560 342.434057L360.285120 351.795393
L360.285120 351.795393L360.597600 351.967966L360.642240 345.010841
L360.865440 345.377671L360.954720 344.365359L360.999360 351.648484
L361.222560 351.455530L361.356480 344.481174L361.535040 346.239903
L361.624320 344.275888L361.981440 351.863536L362.204640 352.332861
L362.472480 344.884351L362.784960 344.016629L362.829600 351.821590
L363.097440 335.664306L363.231360 344.849209L363.499200 334.636946
L363.677760 352.103333L363.811680 351.632981L364.124160 334.397810
L364.168800 345.077018L364.525920 351.458631L364.749120 343.379727
L364.838400 351.367590L365.195520 334.374626L365.284800 335.567884
L365.329440 351.212751L365.508000 344.497161L365.820480 343.940212
L365.865120 351.989996L366.043680 352.395009L366.088320 351.329772
L366.445440 324.056688L366.490080 335.770929L366.757920 352.178318
L366.802560 343.653601L366.936480 352.424613L367.115040 344.812289
L367.204320 342.165704L367.427520 335.686839L367.472160 351.249968
L367.873920 344.172899L368.231040 351.640782L368.454240 343.919950
L368.543520 344.612878L368.722080 352.113276L368.945280 342.766041
L369.123840 344.158907L369.168480 352.085865L369.480960 351.805801
L369.927360 334.717036L369.972000 351.954547L370.284480 351.185874
L370.596960 334.205765L370.641600 351.930148L370.954080 344.232895
L371.221920 352.045588L371.579040 343.798851L371.623680 344.827900
L371.891520 335.828545L371.980800 350.835652L372.293280 351.159973
L372.293280 351.159973L372.561120 351.879868L372.605760 344.457822
L372.784320 351.949729L372.828960 326.219917L373.007520 351.760508
L373.275360 344.342529L373.498560 351.599024L373.677120 351.547371
L373.989600 343.770512L374.034240 351.997194L374.302080 344.789301
L374.659200 342.238922L374.703840 343.596458L374.927040 351.636615
L375.016320 351.526517L375.239520 352.057210L375.284160 344.264651
L375.596640 351.815399L375.775200 342.636055L375.819840 344.756460
L376.087680 344.170381L376.132320 351.519881L376.400160 351.807361
L376.489440 344.455047L376.623360 351.828709L376.891200 352.170804
L376.935840 344.374680L377.248320 351.955860L377.292960 342.579742
L377.516160 351.706071L377.650080 344.359365L377.962560 351.848655
L378.096480 343.685652L378.185760 344.347161L378.364320 351.377840
L378.453600 351.198838L378.810720 335.029360L379.123200 351.886365
L379.257120 332.634668L379.480320 344.655910L379.658880 342.345663
L379.703520 343.724379L379.792800 342.113419L380.016000 351.336496
L380.328480 351.537171L380.328480 351.537171L380.462400 344.381553
L380.730240 351.740611L380.953440 352.241050L381.132000 344.108163
L381.265920 352.621022L381.489120 351.906242L381.667680 343.326100
L381.756960 344.279660L381.980160 352.053843L382.024800 344.691931
L382.114080 351.656018L382.292640 344.342391L382.560480 342.227961
L382.605120 344.223169L382.739040 335.614273L382.962240 351.330561
L383.185440 333.538856L383.319360 334.621582L383.542560 334.492762
L383.587200 344.129581L383.721120 345.602844L384.078240 335.130354
L384.122880 351.650340L384.390720 344.935026L384.792480 352.101496
L384.837120 343.946353L385.104960 351.308384L385.328160 352.180145
L385.372800 344.651446L385.551360 343.043172L385.551360 343.043172
L385.640640 343.921441L385.819200 334.740320L385.863840 351.869579
L385.997760 351.429591L386.265600 351.525885L386.354880 344.341206
L386.533440 351.915415L386.667360 344.646460L386.801280 351.484166
L387.024480 352.049676L387.113760 344.968569L387.336960 342.263745
L387.426240 334.650365L387.604800 351.429285L387.961920 343.851570
L388.140480 344.535019L388.185120 343.532048L388.274400 351.893899
L388.542240 335.991836L388.676160 351.591154L388.765440 351.571692
L388.988640 332.092352L389.167200 338.675312L389.390400 352.206006
L389.568960 351.065496L389.658240 351.635252L389.792160 344.156024
L390.060000 343.604831L390.149280 351.944554L390.461760 343.615012
L390.506400 344.814540L390.863520 351.497289L391.042080 351.647585
L391.220640 344.528304L391.577760 351.928637L391.934880 332.079733
L392.292000 353.206567L392.649120 342.253012L392.827680 351.521540
L392.916960 343.970624L393.229440 351.450396L393.229440 351.450396
L393.363360 342.787112L393.586560 343.666388L393.854400 351.944782
L393.943680 351.537793L394.211520 344.563141L394.345440 351.902628
L394.390080 344.579710L394.524000 351.599290L394.568640 344.705350
L394.791840 344.443346L394.791840 344.443346L394.970400 335.396219
L395.059680 344.410672L395.282880 332.740106L395.372160 350.997768
L395.595360 351.650014L395.684640 343.728971L395.818560 343.077949
L395.997120 344.463470L396.175680 344.944970L396.264960 344.533627
L396.532800 351.878357L396.622080 342.571794L396.934560 343.688970
L397.291680 351.262952L397.514880 352.299792L397.648800 344.421465
L397.872000 343.949908L397.961280 351.755018L398.139840 326.300383
L398.229120 343.327848L398.407680 351.967344L398.541600 344.213324
L398.675520 352.210291L398.854080 342.065282L398.988000 351.694034
L399.166560 334.273947L399.389760 343.608169L399.657600 351.968964
L399.702240 334.418527L399.880800 351.833933L400.014720 343.925242
L400.148640 344.248358L400.461120 351.345047L400.639680 335.377873
L400.773600 343.403287L401.130720 352.723547L401.398560 342.526293
L401.443200 344.495423L401.711040 344.069288L401.711040 344.069288
L401.800320 345.388226L402.023520 342.376352L402.157440 351.774361
L402.559200 342.643175L402.693120 352.000107L403.050240 341.940037
L403.228800 351.443059L403.318080 351.412321L403.541280 343.913117
L403.764480 342.548678L403.809120 343.754022L403.943040 351.159736
L404.255520 351.384485L404.255520 351.384485L404.568000 351.646598
L404.568000 351.646598L405.014400 335.507690L405.237600 351.700521
L405.371520 344.423578L405.550080 343.821720L405.594720 344.883976
L405.728640 351.778726L405.862560 344.478291L406.041120 344.237526
L406.041120 344.237526L406.308960 351.884667L406.353600 344.593504
L406.576800 343.190003L406.710720 351.533527L407.023200 351.761722
L407.067840 344.516189L407.246400 343.159886L407.424960 350.565324
L407.826720 335.840266L408.005280 351.686075L408.094560 344.339271
L408.317760 351.438626L408.451680 350.910628L408.764160 343.988319
L408.898080 341.937529L409.076640 342.372126L409.612320 351.688415
L409.835520 332.379072L409.969440 343.622319L410.148000 351.290936
L410.281920 344.176711L410.594400 343.822283L410.594400 343.822283
L410.906880 344.385305L410.906880 344.385305L411.219360 351.393954
L411.576480 285.626116L411.665760 351.379597L411.755040 344.280341
L412.067520 351.457012L412.380000 351.954873L412.380000 351.954873
L412.558560 344.067876L412.692480 344.197674L412.826400 343.476150
L413.004960 343.923011L413.317440 351.535581L413.585280 351.730105
L413.629920 344.368173L414.031680 351.969053L414.076320 343.882802
L414.388800 344.367136L414.478080 351.939025L414.567360 351.379844
L414.879840 352.067055L414.879840 352.067055L415.103040 342.320740
L415.147680 343.886318L415.236960 351.989176L415.326240 351.605432
L415.817280 341.733605L415.861920 343.639283L415.906560 351.968598
L415.995840 344.579967L416.442240 351.177421L416.888640 343.455177
L416.977920 332.515041L417.111840 351.468604L417.379680 344.663009
L417.647520 351.779683L417.960000 344.152973L418.227840 350.648890
L418.272480 334.220300L418.361760 351.627165L418.584960 351.061132
L418.942080 334.397080L418.986720 343.572207L419.120640 351.663927
L419.299200 351.565658L419.656320 343.825354L419.834880 335.215885
L419.924160 351.451610L420.281280 342.973104L420.370560 344.118521
L420.593760 351.772307L420.638400 344.354764L420.861600 332.859653
L420.906240 352.442544L421.174080 343.889863L421.620480 351.718354
L421.888320 334.313869L421.932960 344.060293L422.200800 342.567123
L422.245440 351.039448L422.513280 351.957233L422.557920 344.353322
L422.647200 340.718874L422.870400 351.389866L423.227520 325.458679
L423.450720 351.745370L423.540000 344.766156L423.807840 352.053152
L423.941760 343.967405L424.209600 350.911250L424.254240 341.480616
L424.298880 351.809504L424.432800 351.641157L424.611360 344.179485
L424.700640 344.561877L424.968480 351.917479L425.057760 351.502769
L425.280960 344.697787L425.548800 344.362367L425.548800 344.362367
L425.772000 342.366004L426.084480 351.550541L426.352320 335.028639
L426.396960 343.891304L426.575520 351.717505L426.575520 351.717505
L426.888000 335.157963L426.932640 344.120467L427.200480 341.952014
L427.245120 344.132879L427.334400 351.373554L427.512960 351.066029
L427.780800 351.884341L427.780800 351.884341L428.271840 335.427866
L428.584320 351.774411L428.628960 344.862065L428.941440 351.816840
L429.030720 335.045504L429.209280 344.355929L429.387840 344.307831
L429.387840 344.307831L429.477120 351.757703L429.611040 351.125650
L429.834240 343.400414L429.878880 344.878575L429.968160 351.634877
L430.146720 351.917183L430.280640 344.345146L430.414560 334.023773
L430.637760 351.325743L430.905600 344.124219L431.039520 344.105882
L431.173440 344.685631L431.262720 341.881699L431.530560 351.983706
L431.575200 344.168258L431.798400 343.798565L431.932320 351.486072
L432.289440 335.156541L432.512640 351.843570L432.646560 351.534949
L432.869760 335.622755L432.959040 343.564771L433.137600 352.219168
L433.271520 352.160890L433.405440 334.218039L433.628640 334.491656
L433.762560 351.882090L433.896480 343.912109L434.030400 345.160881
L434.075040 344.095978L434.119680 351.847500L434.342880 351.558756
L434.744640 334.696547L434.833920 351.680763L435.101760 344.109032
L435.458880 351.834663L435.771360 332.861312L435.949920 352.124355
L435.994560 344.698616L436.351680 351.179208L436.708800 335.804541
L436.798080 342.100109L437.155200 352.060321L437.512320 343.225718
L437.601600 351.627343L437.869440 350.729849L438.226560 342.996566
L438.405120 352.037363L438.539040 351.413782L438.717600 351.708954
L438.851520 344.217353L438.896160 351.897642L439.074720 351.704560
L439.253280 352.332031L439.476480 344.713714L439.788960 344.204191
L439.788960 344.204191L440.101440 351.735496L440.369280 351.787158
L440.369280 351.787158L440.771040 344.469671L440.949600 342.376934
L441.217440 334.555967L441.262080 344.457111L441.396000 344.499047
L441.396000 344.499047L441.753120 351.994054L442.020960 334.876822
L442.065600 344.500439L442.333440 352.089005L442.378080 344.392049
L442.512000 343.781216L442.690560 344.972005L443.047680 352.350911
L443.092320 351.219673L443.226240 335.073212L443.360160 345.051790
L443.538720 352.032070L443.895840 343.622882L444.163680 351.830368
L444.520800 343.702409L444.565440 344.818115L444.922560 351.637119
L445.190400 344.009193L445.324320 345.109998L445.458240 335.887633
L445.547520 341.783045L445.860000 351.801753L446.261760 335.643294
L446.618880 352.378460L446.797440 343.697867L446.931360 343.971750
L447.199200 352.168246L447.511680 341.149324L447.556320 343.895688
L447.824160 352.021307L447.913440 352.327568L448.092000 344.447858
L448.315200 351.808151L448.538400 325.068417L448.716960 344.072181
L448.761600 351.545495L449.029440 351.429373L449.386560 330.253978
L449.431200 344.100916L449.788320 351.178063L450.100800 344.551499
L450.324000 342.397838L450.413280 348.630823L450.815040 331.914270
L450.993600 352.067628L451.172160 343.937911L451.261440 351.828295
L451.440000 351.540706L451.573920 344.526675L451.797120 344.664945
L452.288160 351.757496L452.556000 343.645889L452.645280 344.837310
L452.868480 352.101872L452.913120 344.192164L453.136320 351.888952
L453.225600 351.832985L453.582720 343.668096L453.716640 342.176477
L453.895200 351.906035L454.073760 351.111886L454.475520 335.111356
L454.520160 344.805288L454.832640 351.706446L455.145120 351.975204
L455.145120 351.975204L455.368320 343.969064L455.502240 344.916453
L455.636160 352.678935L455.770080 344.306004L455.993280 351.881951
L456.171840 351.419776L456.439680 352.145388L456.573600 343.705638
L456.752160 351.587115L457.064640 351.499283L457.332480 351.943982
L457.421760 334.232357L457.511040 351.638955L457.778880 344.567535
L458.091360 351.629525L458.269920 334.484013L458.314560 344.136433
L458.671680 351.629703L459.028800 331.745982L459.073440 344.950647
L459.341280 351.528837L459.385920 344.118650L459.653760 341.785336
L459.698400 343.920976L459.787680 344.060816L459.787680 344.060816
L459.966240 332.828589L460.100160 344.173047L460.189440 344.590265
L460.189440 344.590265L460.501920 352.011443L460.591200 322.195909
L460.769760 345.350842L461.037600 344.618693L461.082240 351.761288
L461.305440 352.236261L461.394720 351.750465L461.528640 343.867260
L461.617920 344.762957L461.841120 343.990017L461.930400 351.679854
L461.975040 344.059947L462.332160 345.265025L462.600000 351.661913
L462.867840 351.884845L462.912480 345.126281L463.135680 351.748718
L463.180320 344.425691L463.492800 351.968124L463.849920 322.950670
L464.117760 351.929407L464.162400 344.651407L464.430240 351.993896
L464.742720 344.067491L464.876640 351.992850L465.099840 351.668854
L465.412320 351.770599L465.546240 344.441796L465.680160 352.286195
L465.724800 334.658047L465.948000 344.421356L466.081920 344.113841
L466.260480 351.399356L466.483680 344.422748L466.796160 352.204969
L466.930080 344.146160L467.108640 344.378482L467.465760 351.773137
L467.510400 324.981129L467.778240 351.529084L468.090720 334.902683
L468.135360 344.352660L468.358560 352.200407L468.537120 351.810965
L468.581760 344.556979L468.894240 351.774174L469.072800 344.384999
L469.385280 351.989127L469.563840 341.351766L469.653120 344.579542
L469.876320 352.051671L469.965600 351.565935L470.188800 351.696680
L470.322720 344.406367L470.590560 343.688783L470.679840 351.996365
L470.947680 344.339686L471.036960 351.956937L471.304800 351.690479
L471.661920 334.025728L471.974400 351.772090L472.242240 343.963288
L472.331520 344.865314L472.644000 351.710494L472.822560 302.696347
L472.867200 344.374799L473.135040 343.390174L473.268960 351.761653
L473.626080 334.269622L473.670720 343.816832L473.893920 351.973417
L473.983200 344.745825L474.161760 323.853495L474.251040 344.175121
L474.474240 343.890307L474.474240 343.890307L474.518880 352.018592
L474.697440 351.735842L474.965280 351.951358L475.009920 344.507183
L475.277760 351.810244L475.456320 344.586247L475.724160 351.922890
L475.902720 351.677060L476.215200 334.556006L476.259840 345.298518
L476.616960 351.462847L476.929440 351.759441L476.929440 351.759441
L477.241920 334.827579L477.331200 344.394221L477.554400 335.481168
L477.643680 351.661360L477.777600 334.674676L477.956160 344.165928
L478.090080 351.080367L478.134720 344.366820L478.313280 351.784107
L478.357920 344.818371L478.581120 351.647714L478.670400 334.816589
L478.759680 344.358615L478.938240 351.771142L479.072160 345.220650
L479.161440 351.345511L479.161440 351.345511L479.473920 344.288083
L479.607840 352.009586L479.786400 351.884469L480.143520 325.681265
L480.188160 351.865856L480.456000 344.817818L480.634560 335.159582
L480.768480 350.905572L481.080960 335.375444L481.348800 334.474761
L481.393440 351.171378L481.661280 351.887037L481.795200 344.586592
L481.929120 334.774584L481.973760 344.763263L482.152320 335.439172
L482.420160 351.441746L482.509440 351.323511L482.821920 352.875709
L482.821920 352.875709L482.911200 343.343449L483.223680 343.657985
L483.357600 344.740838L483.491520 343.095081L483.714720 351.328330
L483.982560 352.161611L484.071840 344.276579L484.205760 352.218368
L484.428960 352.053418L484.562880 352.137370L484.786080 344.462700
L484.964640 352.057427L485.098560 351.779466L485.366400 334.750629
L485.411040 343.792996L485.500320 351.481628L485.723520 344.805258
L485.946720 351.812269L486.214560 334.718735L486.259200 344.135634
L486.303840 351.685384L486.348480 344.387240L486.527040 351.376112
L486.571680 344.484433L486.884160 351.903468L486.928800 219.021640
L487.196640 344.342036L487.375200 351.466886L487.866240 335.015052
L487.910880 343.455384L488.223360 352.440520L488.580480 334.492090
L488.892960 351.703977L488.937600 344.552052L489.250080 351.748056
L489.384000 344.251390L489.607200 344.520592L489.830400 344.236519
L489.830400 344.236519L490.053600 351.922239L490.187520 351.564918
L490.633920 339.156703L490.767840 352.236922L490.946400 351.610616
L491.169600 351.938561L491.303520 334.448880L491.348160 351.542474
L491.616000 351.507914L491.928480 342.030446L491.973120 344.727222
L492.285600 343.108530L492.285600 343.108530L492.464160 345.387495
L492.464160 345.387495L492.598080 351.898412L492.642720 343.915911
L492.732000 351.418097L492.776640 344.326701L493.089120 344.208486
L493.133760 352.060982L493.267680 352.134170L493.490880 344.883117
L493.892640 352.320528L493.981920 343.792887L494.249760 344.307545
L494.294400 351.746496L494.562240 351.418472L494.785440 351.987577
L494.830080 345.751551L495.097920 351.393678L495.142560 344.715935
L495.410400 344.520039L495.499680 351.569559L495.856800 335.151179
L495.901440 352.127150L496.213920 344.420191L496.347840 341.637429
L496.437120 351.591578L496.749600 343.923228L497.151360 352.174823
L497.553120 326.080709L497.642400 351.770086L497.776320 343.560387
L498.133440 344.651555L498.222720 351.645235L498.356640 344.478538
L498.624480 352.524600L498.669120 351.365892L499.026240 325.925387
L499.472640 352.411174L499.740480 344.138418L500.052960 343.598403
L500.052960 343.598403L500.186880 352.272519L500.320800 344.162896
L500.544000 351.379893L500.588640 344.347605L500.811840 352.092264
L500.856480 345.115775L500.990400 351.582938L501.168960 342.344734
L501.347520 340.098808L501.392160 351.351910L501.526080 351.468880
L501.704640 344.102851L502.017120 344.039033L502.017120 344.039033
L502.106400 342.159434L502.284960 352.019194L502.374240 343.619129
L502.508160 345.038400L502.731360 351.699356L502.820640 343.692910
L502.954560 343.117002L503.088480 351.705814L503.311680 342.009670
L503.445600 344.213334L503.668800 342.471836L503.802720 351.687912
L503.936640 351.715372L504.070560 344.662348L504.159840 351.488501
L504.472320 341.338940L504.516960 351.384613L504.784800 344.569302
L505.141920 351.666949L505.365120 324.924549L505.454400 341.537413
L505.632960 335.038879L505.722240 344.170243L505.900800 345.320370
L506.079360 343.219221L506.347200 352.627954L506.481120 351.847747
L506.570400 343.960701L506.793600 344.591608L507.240000 351.392967
L507.686400 334.048794L508.043520 351.809958L508.400640 343.378187
L508.802400 351.953777L509.025600 334.302060L509.159520 344.363167
L509.605920 351.855143L509.829120 342.305474L509.918400 344.173027
L510.096960 342.244194L510.230880 350.866124L510.454080 314.926311
L510.543360 343.421012L510.632640 351.798484L510.945120 351.233764
L511.212960 351.941128L511.346880 344.713990L511.436160 342.257949
L511.480800 344.130074L511.659360 351.398536L511.793280 343.845744
L511.882560 351.946974L511.971840 351.235512L512.150400 352.327282
L512.284320 351.451610L512.507520 352.136866L512.552160 344.419687
L512.820000 351.908859L512.909280 351.486348L513.087840 344.363601
L513.266400 345.036218L513.311040 343.511026L513.489600 335.034623
L513.623520 342.554059L513.846720 342.419354L514.069920 351.764240
L514.248480 335.368305L514.293120 344.398833L514.471680 351.968776
L514.650240 351.573657L514.828800 351.726224L514.918080 344.480197
L515.141280 344.296723L515.141280 344.296723L515.319840 351.382638
L515.364480 344.608039L515.587680 352.314238L515.810880 352.492548
L515.900160 351.279482L516.212640 335.192858L516.301920 352.080039
L516.569760 344.893011L516.703680 334.652429L516.837600 351.905551
L516.882240 334.883290L517.150080 351.494929L517.462560 341.973333
L517.507200 351.524157L517.819680 344.436888L518.132160 266.429113
L518.176800 278.567345L518.221440 351.652888L518.310720 351.472771"/>
</g>
<g id="matplotlib.axis1">
<g id="xtick1">
<g id="line2d2">
<path style="fill: none; stroke: #000000; stroke-width: 0.500000; stroke-linejoin: round; stroke-linecap: butt; stroke-dasharray: 1.000000,3.000000; stroke-dashoffset: 0.000000; opacity: 1.000000" clip-path="url(#p50431ccdcb28178602d99d9270004dde)" d="M72.000000 388.800000L72.000000 43.200000"/>
</g>
<g id="line2d3">
<defs><path id="m30e32995789d870ad79a2e54c91cf9c6" d="M0.000000 0.000000L0.000000 -4.000000"/></defs>
<g ><use style="fill: none; stroke: #000000; stroke-width: 0.500000; stroke-linejoin: round; stroke-linecap: butt;  opacity: 1.000000" xlink:href="#m30e32995789d870ad79a2e54c91cf9c6" x="72.000000" y="388.800000"/>
</g></g>
<g id="line2d4">
<defs><path id="m9281cae24120827b11d5ea8a7ad3e96b" d="M0.000000 0.000000L0.000000 4.000000"/></defs>
<g ><use style="fill: none; stroke: #000000; stroke-width: 0.500000; stroke-linejoin: round; stroke-linecap: butt;  opacity: 1.000000" xlink:href="#m9281cae24120827b11d5ea8a7ad3e96b" x="72.000000" y="43.200000"/>
</g></g>
<g id="text1">
<defs>
<path id="c_7a2040fe3b94fcd41d0a72c84e93b115" d="M31.781250 -66.406250q-7.609375 0.000000 -11.453125 7.500000q-3.828125 7.484375 -3.828125 22.531250q0.000000 14.984375 3.828125 22.484375q3.843750 7.500000 11.453125 7.500000q7.671875 0.000000 11.500000 -7.500000q3.843750 -7.500000 3.843750 -22.484375q0.000000 -15.046875 -3.843750 -22.531250q-3.828125 -7.500000 -11.500000 -7.500000M31.781250 -74.218750q12.265625 0.000000 18.734375 9.703125q6.468750 9.687500 6.468750 28.140625q0.000000 18.406250 -6.468750 28.109375q-6.468750 9.687500 -18.734375 9.687500q-12.250000 0.000000 -18.718750 -9.687500q-6.468750 -9.703125 -6.468750 -28.109375q0.000000 -18.453125 6.468750 -28.140625q6.468750 -9.703125 18.718750 -9.703125"/>
</defs>
<g style="fill: #000000; opacity: 1.000000" transform="translate(68.976562,401.706250)scale(0.120000)">
<use xlink:href="#c_7a2040fe3b94fcd41d0a72c84e93b115"/>
</g>
</g>
</g>
<g id="xtick2">
<g id="line2d5">
<path style="fill: none; stroke: #000000; stroke-width: 0.500000; stroke-linejoin: round; stroke-linecap: butt; stroke-dasharray: 1.000000,3.000000; stroke-dashoffset: 0.000000; opacity: 1.000000" clip-path="url(#p50431ccdcb28178602d99d9270004dde)" d="M161.280000 388.800000L161.280000 43.200000"/>
</g>
<g id="line2d6">
<g ><use style="fill: none; stroke: #000000; stroke-width: 0.500000; stroke-linejoin: round; stroke-linecap: butt;  opacity: 1.000000" xlink:href="#m30e32995789d870ad79a2e54c91cf9c6" x="161.280000" y="388.800000"/>
</g></g>
<g id="line2d7">
<g ><use style="fill: none; stroke: #000000; stroke-width: 0.500000; stroke-linejoin: round; stroke-linecap: butt;  opacity: 1.000000" xlink:href="#m9281cae24120827b11d5ea8a7ad3e96b" x="161.280000" y="43.200000"/>
</g></g>
<g id="text2">
<defs>
<path id="c_ed3f3ed3ebfbd18bcb9c012009a68ad1" d="M19.187500 -8.296875l34.421875 0.000000l0.000000 8.296875l-46.281250 0.000000l0.000000 -8.296875q5.609375 -5.812500 15.296875 -15.593750q9.703125 -9.796875 12.187500 -12.640625q4.734375 -5.312500 6.609375 -9.000000q1.890625 -3.687500 1.890625 -7.250000q0.000000 -5.812500 -4.078125 -9.468750q-4.078125 -3.671875 -10.625000 -3.671875q-4.640625 0.000000 -9.796875 1.609375q-5.140625 1.609375 -11.000000 4.890625l0.000000 -9.968750q5.953125 -2.390625 11.125000 -3.609375q5.187500 -1.218750 9.484375 -1.218750q11.328125 0.000000 18.062500 5.671875q6.734375 5.656250 6.734375 15.125000q0.000000 4.500000 -1.687500 8.531250q-1.671875 4.015625 -6.125000 9.484375q-1.218750 1.421875 -7.765625 8.187500q-6.531250 6.765625 -18.453125 18.921875"/>
</defs>
<g style="fill: #000000; opacity: 1.000000" transform="translate(146.834688,401.706250)scale(0.120000)">
<use xlink:href="#c_ed3f3ed3ebfbd18bcb9c012009a68ad1"/>
<use xlink:href="#c_7a2040fe3b94fcd41d0a72c84e93b115" x="63.623047"/>
<use xlink:href="#c_7a2040fe3b94fcd41d0a72c84e93b115" x="127.246094"/>
<use xlink:href="#c_7a2040fe3b94fcd41d0a72c84e93b115" x="190.869141"/>
</g>
</g>
</g>
<g id="xtick3">
<g id="line2d8">
<path style="fill: none; stroke: #000000; stroke-width: 0.500000; stroke-linejoin: round; stroke-linecap: butt; stroke-dasharray: 1.000000,3.000000; stroke-dashoffset: 0.000000; opacity: 1.000000" clip-path="url(#p50431ccdcb28178602d99d9270004dde)" d="M250.560000 388.800000L250.560000 43.200000"/>
</g>
<g id="line2d9">
<g ><use style="fill: none; stroke: #000000; stroke-width: 0.500000; stroke-linejoin: round; stroke-linecap: butt;  opacity: 1.000000" xlink:href="#m30e32995789d870ad79a2e54c91cf9c6" x="250.560000" y="388.800000"/>
</g></g>
<g id="line2d10">
<g ><use style="fill: none; stroke: #000000; stroke-width: 0.500000; stroke-linejoin: round; stroke-linecap: butt;  opacity: 1.000000" xlink:href="#m9281cae24120827b11d5ea8a7ad3e96b" x="250.560000" y="43.200000"/>
</g></g>
<g id="text3">
<defs>
<path id="c_a0416418d96557a09b8c1332d34883ba" d="M37.796875 -64.312500l-24.906250 38.921875l24.906250 0.000000zM35.203125 -72.906250l12.406250 0.000000l0.000000 47.515625l10.406250 0.000000l0.000000 8.203125l-10.406250 0.000000l0.000000 17.187500l-9.812500 0.000000l0.000000 -17.187500l-32.906250 0.000000l0.000000 -9.515625z"/>
</defs>
<g style="fill: #000000; opacity: 1.000000" transform="translate(235.974063,401.706250)scale(0.120000)">
<use xlink:href="#c_a0416418d96557a09b8c1332d34883ba"/>
<use xlink:href="#c_7a2040fe3b94fcd41d0a72c84e93b115" x="63.623047"/>
<use xlink:href="#c_7a2040fe3b94fcd41d0a72c84e93b115" x="127.246094"/>
<use xlink:href="#c_7a2040fe3b94fcd41d0a72c84e93b115" x="190.869141"/>
</g>
</g>
</g>
<g id="xtick4">
<g id="line2d11">
<path style="fill: none; stroke: #000000; stroke-width: 0.500000; stroke-linejoin: round; stroke-linecap: butt; stroke-dasharray: 1.000000,3.000000; stroke-dashoffset: 0.000000; opacity: 1.000000" clip-path="url(#p50431ccdcb28178602d99d9270004dde)" d="M339.840000 388.800000L339.840000 43.200000"/>
</g>
<g id="line2d12">
<g ><use style="fill: none; stroke: #000000; stroke-width: 0.500000; stroke-linejoin: round; stroke-linecap: butt;  opacity: 1.000000" xlink:href="#m30e32995789d870ad79a2e54c91cf9c6" x="339.840000" y="388.800000"/>
</g></g>
<g id="line2d13">
<g ><use style="fill: none; stroke: #000000; stroke-width: 0.500000; stroke-linejoin: round; stroke-linecap: butt;  opacity: 1.000000" xlink:href="#m9281cae24120827b11d5ea8a7ad3e96b" x="339.840000" y="43.200000"/>
</g></g>
<g id="text4">
<defs>
<path id="c_cc8d6d580d1b10c8632f7a42cd53db8a" d="M33.015625 -40.375000q-6.640625 0.000000 -10.531250 4.546875q-3.875000 4.531250 -3.875000 12.437500q0.000000 7.859375 3.875000 12.437500q3.890625 4.562500 10.531250 4.562500q6.640625 0.000000 10.515625 -4.562500q3.875000 -4.578125 3.875000 -12.437500q0.000000 -7.906250 -3.875000 -12.437500q-3.875000 -4.546875 -10.515625 -4.546875M52.593750 -71.296875l0.000000 8.984375q-3.718750 -1.750000 -7.500000 -2.671875q-3.781250 -0.937500 -7.500000 -0.937500q-9.765625 0.000000 -14.921875 6.593750q-5.140625 6.593750 -5.875000 19.921875q2.875000 -4.250000 7.218750 -6.515625q4.359375 -2.265625 9.578125 -2.265625q10.984375 0.000000 17.359375 6.671875q6.375000 6.656250 6.375000 18.125000q0.000000 11.234375 -6.640625 18.031250q-6.640625 6.781250 -17.671875 6.781250q-12.656250 0.000000 -19.343750 -9.687500q-6.687500 -9.703125 -6.687500 -28.109375q0.000000 -17.281250 8.203125 -27.562500q8.203125 -10.281250 22.015625 -10.281250q3.718750 0.000000 7.500000 0.734375q3.781250 0.734375 7.890625 2.187500"/>
</defs>
<g style="fill: #000000; opacity: 1.000000" transform="translate(325.379062,401.706250)scale(0.120000)">
<use xlink:href="#c_cc8d6d580d1b10c8632f7a42cd53db8a"/>
<use xlink:href="#c_7a2040fe3b94fcd41d0a72c84e93b115" x="63.623047"/>
<use xlink:href="#c_7a2040fe3b94fcd41d0a72c84e93b115" x="127.246094"/>
<use xlink:href="#c_7a2040fe3b94fcd41d0a72c84e93b115" x="190.869141"/>
</g>
</g>
</g>
<g id="xtick5">
<g id="line2d14">
<path style="fill: none; stroke: #000000; stroke-width: 0.500000; stroke-linejoin: round; stroke-linecap: butt; stroke-dasharray: 1.000000,3.000000; stroke-dashoffset: 0.000000; opacity: 1.000000" clip-path="url(#p50431ccdcb28178602d99d9270004dde)" d="M429.120000 388.800000L429.120000 43.200000"/>
</g>
<g id="line2d15">
<g ><use style="fill: none; stroke: #000000; stroke-width: 0.500000; stroke-linejoin: round; stroke-linecap: butt;  opacity: 1.000000" xlink:href="#m30e32995789d870ad79a2e54c91cf9c6" x="429.120000" y="388.800000"/>
</g></g>
<g id="line2d16">
<g ><use style="fill: none; stroke: #000000; stroke-width: 0.500000; stroke-linejoin: round; stroke-linecap: butt;  opacity: 1.000000" xlink:href="#m9281cae24120827b11d5ea8a7ad3e96b" x="429.120000" y="43.200000"/>
</g></g>
<g id="text5">
<defs>
<path id="c_bef35738d52871942e50b9de9b122bab" d="M31.781250 -34.625000q-7.031250 0.000000 -11.062500 3.765625q-4.015625 3.765625 -4.015625 10.343750q0.000000 6.593750 4.015625 10.359375q4.031250 3.765625 11.062500 3.765625q7.031250 0.000000 11.078125 -3.781250q4.062500 -3.796875 4.062500 -10.343750q0.000000 -6.578125 -4.031250 -10.343750q-4.015625 -3.765625 -11.109375 -3.765625M21.921875 -38.812500q-6.343750 -1.562500 -9.890625 -5.906250q-3.531250 -4.359375 -3.531250 -10.609375q0.000000 -8.734375 6.218750 -13.812500q6.234375 -5.078125 17.062500 -5.078125q10.890625 0.000000 17.093750 5.078125q6.203125 5.078125 6.203125 13.812500q0.000000 6.250000 -3.546875 10.609375q-3.531250 4.343750 -9.828125 5.906250q7.125000 1.656250 11.093750 6.500000q3.984375 4.828125 3.984375 11.796875q0.000000 10.609375 -6.468750 16.281250q-6.468750 5.656250 -18.531250 5.656250q-12.046875 0.000000 -18.531250 -5.656250q-6.468750 -5.671875 -6.468750 -16.281250q0.000000 -6.968750 4.000000 -11.796875q4.015625 -4.843750 11.140625 -6.500000M18.312500 -54.390625q0.000000 5.656250 3.531250 8.828125q3.546875 3.171875 9.937500 3.171875q6.359375 0.000000 9.937500 -3.171875q3.593750 -3.171875 3.593750 -8.828125q0.000000 -5.671875 -3.593750 -8.843750q-3.578125 -3.171875 -9.937500 -3.171875q-6.390625 0.000000 -9.937500 3.171875q-3.531250 3.171875 -3.531250 8.843750"/>
</defs>
<g style="fill: #000000; opacity: 1.000000" transform="translate(414.643438,401.706250)scale(0.120000)">
<use xlink:href="#c_bef35738d52871942e50b9de9b122bab"/>
<use xlink:href="#c_7a2040fe3b94fcd41d0a72c84e93b115" x="63.623047"/>
<use xlink:href="#c_7a2040fe3b94fcd41d0a72c84e93b115" x="127.246094"/>
<use xlink:href="#c_7a2040fe3b94fcd41d0a72c84e93b115" x="190.869141"/>
</g>
</g>
</g>
<g id="xtick6">
<g id="line2d17">
<path style="fill: none; stroke: #000000; stroke-width: 0.500000; stroke-linejoin: round; stroke-linecap: butt; stroke-dasharray: 1.000000,3.000000; stroke-dashoffset: 0.000000; opacity: 1.000000" clip-path="url(#p50431ccdcb28178602d99d9270004dde)" d="M518.400000 388.800000L518.400000 43.200000"/>
</g>
<g id="line2d18">
<g ><use style="fill: none; stroke: #000000; stroke-width: 0.500000; stroke-linejoin: round; stroke-linecap: butt;  opacity: 1.000000" xlink:href="#m30e32995789d870ad79a2e54c91cf9c6" x="518.400000" y="388.800000"/>
</g></g>
<g id="line2d19">
<g ><use style="fill: none; stroke: #000000; stroke-width: 0.500000; stroke-linejoin: round; stroke-linecap: butt;  opacity: 1.000000" xlink:href="#m9281cae24120827b11d5ea8a7ad3e96b" x="518.400000" y="43.200000"/>
</g></g>
<g id="text6">
<defs>
<path id="c_42baa63129a918535c52adb20d687ea7" d="M12.406250 -8.296875l16.109375 0.000000l0.000000 -55.625000l-17.531250 3.515625l0.000000 -8.984375l17.437500 -3.515625l9.859375 0.000000l0.000000 64.609375l16.109375 0.000000l0.000000 8.296875l-41.984375 0.000000z"/>
</defs>
<g style="fill: #000000; opacity: 1.000000" transform="translate(500.353125,401.706250)scale(0.120000)">
<use xlink:href="#c_42baa63129a918535c52adb20d687ea7"/>
<use xlink:href="#c_7a2040fe3b94fcd41d0a72c84e93b115" x="63.623047"/>
<use xlink:href="#c_7a2040fe3b94fcd41d0a72c84e93b115" x="127.246094"/>
<use xlink:href="#c_7a2040fe3b94fcd41d0a72c84e93b115" x="190.869141"/>
<use xlink:href="#c_7a2040fe3b94fcd41d0a72c84e93b115" x="254.492188"/>
</g>
</g>
</g>
</g>
<g id="matplotlib.axis2">
<g id="ytick1">
<g id="line2d20">
<path style="fill: none; stroke: #000000; stroke-width: 0.500000; stroke-linejoin: round; stroke-linecap: butt; stroke-dasharray: 1.000000,3.000000; stroke-dashoffset: 0.000000; opacity: 1.000000" clip-path="url(#p50431ccdcb28178602d99d9270004dde)" d="M72.000000 388.800000L518.400000 388.800000"/>
</g>
<g id="line2d21">
<defs><path id="m3400efa6b1638b3fea9e19e898273957" d="M0.000000 0.000000L4.000000 0.000000"/></defs>
<g ><use style="fill: none; stroke: #000000; stroke-width: 0.500000; stroke-linejoin: round; stroke-linecap: butt;  opacity: 1.000000" xlink:href="#m3400efa6b1638b3fea9e19e898273957" x="72.000000" y="388.800000"/>
</g></g>
<g id="line2d22">
<defs><path id="m20b58b2501143cb5e0a5e8f1ef6f1643" d="M0.000000 0.000000L-4.000000 0.000000"/></defs>
<g ><use style="fill: none; stroke: #000000; stroke-width: 0.500000; stroke-linejoin: round; stroke-linecap: butt;  opacity: 1.000000" xlink:href="#m20b58b2501143cb5e0a5e8f1ef6f1643" x="518.400000" y="388.800000"/>
</g></g>
<g id="text7">
<defs>
<path id="c_ed3e21196fb739f392806f09ca0594ef" d="M10.687500 -12.406250l10.312500 0.000000l0.000000 12.406250l-10.312500 0.000000z"/>
</defs>
<g style="fill: #000000; opacity: 1.000000" transform="translate(35.218750,393.167188)scale(0.120000)">
<use xlink:href="#c_7a2040fe3b94fcd41d0a72c84e93b115"/>
<use xlink:href="#c_ed3e21196fb739f392806f09ca0594ef" x="63.623047"/>
<use xlink:href="#c_7a2040fe3b94fcd41d0a72c84e93b115" x="95.410156"/>
<use xlink:href="#c_7a2040fe3b94fcd41d0a72c84e93b115" x="159.033203"/>
<use xlink:href="#c_7a2040fe3b94fcd41d0a72c84e93b115" x="222.656250"/>
</g>
</g>
</g>
<g id="ytick2">
<g id="line2d23">
<path style="fill: none; stroke: #000000; stroke-width: 0.500000; stroke-linejoin: round; stroke-linecap: butt; stroke-dasharray: 1.000000,3.000000; stroke-dashoffset: 0.000000; opacity: 1.000000" clip-path="url(#p50431ccdcb28178602d99d9270004dde)" d="M72.000000 339.428571L518.400000 339.428571"/>
</g>
<g id="line2d24">
<g ><use style="fill: none; stroke: #000000; stroke-width: 0.500000; stroke-linejoin: round; stroke-linecap: butt;  opacity: 1.000000" xlink:href="#m3400efa6b1638b3fea9e19e898273957" x="72.000000" y="339.428571"/>
</g></g>
<g id="line2d25">
<g ><use style="fill: none; stroke: #000000; stroke-width: 0.500000; stroke-linejoin: round; stroke-linecap: butt;  opacity: 1.000000" xlink:href="#m20b58b2501143cb5e0a5e8f1ef6f1643" x="518.400000" y="339.428571"/>
</g></g>
<g id="text8">
<defs>
<path id="c_1260a2df50f305f3db244e29828f968e" d="M10.796875 -72.906250l38.718750 0.000000l0.000000 8.312500l-29.687500 0.000000l0.000000 17.859375q2.140625 -0.734375 4.281250 -1.093750q2.156250 -0.359375 4.312500 -0.359375q12.203125 0.000000 19.328125 6.687500q7.140625 6.687500 7.140625 18.109375q0.000000 11.765625 -7.328125 18.296875q-7.328125 6.515625 -20.656250 6.515625q-4.593750 0.000000 -9.359375 -0.781250q-4.750000 -0.781250 -9.828125 -2.343750l0.000000 -9.921875q4.390625 2.390625 9.078125 3.562500q4.687500 1.171875 9.906250 1.171875q8.453125 0.000000 13.375000 -4.437500q4.937500 -4.437500 4.937500 -12.062500q0.000000 -7.609375 -4.937500 -12.046875q-4.921875 -4.453125 -13.375000 -4.453125q-3.953125 0.000000 -7.890625 0.875000q-3.921875 0.875000 -8.015625 2.734375z"/>
</defs>
<g style="fill: #000000; opacity: 1.000000" transform="translate(35.468750,343.795759)scale(0.120000)">
<use xlink:href="#c_7a2040fe3b94fcd41d0a72c84e93b115"/>
<use xlink:href="#c_ed3e21196fb739f392806f09ca0594ef" x="63.623047"/>
<use xlink:href="#c_7a2040fe3b94fcd41d0a72c84e93b115" x="95.410156"/>
<use xlink:href="#c_7a2040fe3b94fcd41d0a72c84e93b115" x="159.033203"/>
<use xlink:href="#c_1260a2df50f305f3db244e29828f968e" x="222.656250"/>
</g>
</g>
</g>
<g id="ytick3">
<g id="line2d26">
<path style="fill: none; stroke: #000000; stroke-width: 0.500000; stroke-linejoin: round; stroke-linecap: butt; stroke-dasharray: 1.000000,3.000000; stroke-dashoffset: 0.000000; opacity: 1.000000" clip-path="url(#p50431ccdcb28178602d99d9270004dde)" d="M72.000000 290.057143L518.400000 290.057143"/>
</g>
<g id="line2d27">
<g ><use style="fill: none; stroke: #000000; stroke-width: 0.500000; stroke-linejoin: round; stroke-linecap: butt;  opacity: 1.000000" xlink:href="#m3400efa6b1638b3fea9e19e898273957" x="72.000000" y="290.057143"/>
</g></g>
<g id="line2d28">
<g ><use style="fill: none; stroke: #000000; stroke-width: 0.500000; stroke-linejoin: round; stroke-linecap: butt;  opacity: 1.000000" xlink:href="#m20b58b2501143cb5e0a5e8f1ef6f1643" x="518.400000" y="290.057143"/>
</g></g>
<g id="text9">
<g style="fill: #000000; opacity: 1.000000" transform="translate(35.218750,294.424330)scale(0.120000)">
<use xlink:href="#c_7a2040fe3b94fcd41d0a72c84e93b115"/>
<use xlink:href="#c_ed3e21196fb739f392806f09ca0594ef" x="63.623047"/>
<use xlink:href="#c_7a2040fe3b94fcd41d0a72c84e93b115" x="95.410156"/>
<use xlink:href="#c_42baa63129a918535c52adb20d687ea7" x="159.033203"/>
<use xlink:href="#c_7a2040fe3b94fcd41d0a72c84e93b115" x="222.656250"/>
</g>
</g>
</g>
<g id="ytick4">
<g id="line2d29">
<path style="fill: none; stroke: #000000; stroke-width: 0.500000; stroke-linejoin: round; stroke-linecap: butt; stroke-dasharray: 1.000000,3.000000; stroke-dashoffset: 0.000000; opacity: 1.000000" clip-path="url(#p50431ccdcb28178602d99d9270004dde)" d="M72.000000 240.685714L518.400000 240.685714"/>
</g>
<g id="line2d30">
<g ><use style="fill: none; stroke: #000000; stroke-width: 0.500000; stroke-linejoin: round; stroke-linecap: butt;  opacity: 1.000000" xlink:href="#m3400efa6b1638b3fea9e19e898273957" x="72.000000" y="240.685714"/>
</g></g>
<g id="line2d31">
<g ><use style="fill: none; stroke: #000000; stroke-width: 0.500000; stroke-linejoin: round; stroke-linecap: butt;  opacity: 1.000000" xlink:href="#m20b58b2501143cb5e0a5e8f1ef6f1643" x="518.400000" y="240.685714"/>
</g></g>
<g id="text10">
<g style="fill: #000000; opacity: 1.000000" transform="translate(35.468750,245.052902)scale(0.120000)">
<use xlink:href="#c_7a2040fe3b94fcd41d0a72c84e93b115"/>
<use xlink:href="#c_ed3e21196fb739f392806f09ca0594ef" x="63.623047"/>
<use xlink:href="#c_7a2040fe3b94fcd41d0a72c84e93b115" x="95.410156"/>
<use xlink:href="#c_42baa63129a918535c52adb20d687ea7" x="159.033203"/>
<use xlink:href="#c_1260a2df50f305f3db244e29828f968e" x="222.656250"/>
</g>
</g>
</g>
<g id="ytick5">
<g id="line2d32">
<path style="fill: none; stroke: #000000; stroke-width: 0.500000; stroke-linejoin: round; stroke-linecap: butt; stroke-dasharray: 1.000000,3.000000; stroke-dashoffset: 0.000000; opacity: 1.000000" clip-path="url(#p50431ccdcb28178602d99d9270004dde)" d="M72.000000 191.314286L518.400000 191.314286"/>
</g>
<g id="line2d33">
<g ><use style="fill: none; stroke: #000000; stroke-width: 0.500000; stroke-linejoin: round; stroke-linecap: butt;  opacity: 1.000000" xlink:href="#m3400efa6b1638b3fea9e19e898273957" x="72.000000" y="191.314286"/>
</g></g>
<g id="line2d34">
<g ><use style="fill: none; stroke: #000000; stroke-width: 0.500000; stroke-linejoin: round; stroke-linecap: butt;  opacity: 1.000000" xlink:href="#m20b58b2501143cb5e0a5e8f1ef6f1643" x="518.400000" y="191.314286"/>
</g></g>
<g id="text11">
<g style="fill: #000000; opacity: 1.000000" transform="translate(35.218750,195.681473)scale(0.120000)">
<use xlink:href="#c_7a2040fe3b94fcd41d0a72c84e93b115"/>
<use xlink:href="#c_ed3e21196fb739f392806f09ca0594ef" x="63.623047"/>
<use xlink:href="#c_7a2040fe3b94fcd41d0a72c84e93b115" x="95.410156"/>
<use xlink:href="#c_ed3f3ed3ebfbd18bcb9c012009a68ad1" x="159.033203"/>
<use xlink:href="#c_7a2040fe3b94fcd41d0a72c84e93b115" x="222.656250"/>
</g>
</g>
</g>
<g id="ytick6">
<g id="line2d35">
<path style="fill: none; stroke: #000000; stroke-width: 0.500000; stroke-linejoin: round; stroke-linecap: butt; stroke-dasharray: 1.000000,3.000000; stroke-dashoffset: 0.000000; opacity: 1.000000" clip-path="url(#p50431ccdcb28178602d99d9270004dde)" d="M72.000000 141.942857L518.400000 141.942857"/>
</g>
<g id="line2d36">
<g ><use style="fill: none; stroke: #000000; stroke-width: 0.500000; stroke-linejoin: round; stroke-linecap: butt;  opacity: 1.000000" xlink:href="#m3400efa6b1638b3fea9e19e898273957" x="72.000000" y="141.942857"/>
</g></g>
<g id="line2d37">
<g ><use style="fill: none; stroke: #000000; stroke-width: 0.500000; stroke-linejoin: round; stroke-linecap: butt;  opacity: 1.000000" xlink:href="#m20b58b2501143cb5e0a5e8f1ef6f1643" x="518.400000" y="141.942857"/>
</g></g>
<g id="text12">
<g style="fill: #000000; opacity: 1.000000" transform="translate(35.468750,146.310045)scale(0.120000)">
<use xlink:href="#c_7a2040fe3b94fcd41d0a72c84e93b115"/>
<use xlink:href="#c_ed3e21196fb739f392806f09ca0594ef" x="63.623047"/>
<use xlink:href="#c_7a2040fe3b94fcd41d0a72c84e93b115" x="95.410156"/>
<use xlink:href="#c_ed3f3ed3ebfbd18bcb9c012009a68ad1" x="159.033203"/>
<use xlink:href="#c_1260a2df50f305f3db244e29828f968e" x="222.656250"/>
</g>
</g>
</g>
<g id="ytick7">
<g id="line2d38">
<path style="fill: none; stroke: #000000; stroke-width: 0.500000; stroke-linejoin: round; stroke-linecap: butt; stroke-dasharray: 1.000000,3.000000; stroke-dashoffset: 0.000000; opacity: 1.000000" clip-path="url(#p50431ccdcb28178602d99d9270004dde)" d="M72.000000 92.571429L518.400000 92.571429"/>
</g>
<g id="line2d39">
<g ><use style="fill: none; stroke: #000000; stroke-width: 0.500000; stroke-linejoin: round; stroke-linecap: butt;  opacity: 1.000000" xlink:href="#m3400efa6b1638b3fea9e19e898273957" x="72.000000" y="92.571429"/>
</g></g>
<g id="line2d40">
<g ><use style="fill: none; stroke: #000000; stroke-width: 0.500000; stroke-linejoin: round; stroke-linecap: butt;  opacity: 1.000000" xlink:href="#m20b58b2501143cb5e0a5e8f1ef6f1643" x="518.400000" y="92.571429"/>
</g></g>
<g id="text13">
<defs>
<path id="c_3dcfa38a02242cb63ec6726c6e70be7a" d="M40.578125 -39.312500q7.078125 1.515625 11.046875 6.312500q3.984375 4.781250 3.984375 11.812500q0.000000 10.781250 -7.421875 16.703125q-7.421875 5.906250 -21.093750 5.906250q-4.578125 0.000000 -9.437500 -0.906250q-4.859375 -0.906250 -10.031250 -2.718750l0.000000 -9.515625q4.093750 2.390625 8.968750 3.609375q4.890625 1.218750 10.218750 1.218750q9.265625 0.000000 14.125000 -3.656250q4.859375 -3.656250 4.859375 -10.640625q0.000000 -6.453125 -4.515625 -10.078125q-4.515625 -3.640625 -12.562500 -3.640625l-8.500000 0.000000l0.000000 -8.109375l8.890625 0.000000q7.265625 0.000000 11.125000 -2.906250q3.859375 -2.906250 3.859375 -8.375000q0.000000 -5.609375 -3.984375 -8.609375q-3.968750 -3.015625 -11.390625 -3.015625q-4.062500 0.000000 -8.703125 0.890625q-4.640625 0.875000 -10.203125 2.718750l0.000000 -8.781250q5.625000 -1.562500 10.531250 -2.343750q4.906250 -0.781250 9.250000 -0.781250q11.234375 0.000000 17.765625 5.109375q6.546875 5.093750 6.546875 13.781250q0.000000 6.062500 -3.468750 10.234375q-3.468750 4.171875 -9.859375 5.781250"/>
</defs>
<g style="fill: #000000; opacity: 1.000000" transform="translate(35.218750,96.938616)scale(0.120000)">
<use xlink:href="#c_7a2040fe3b94fcd41d0a72c84e93b115"/>
<use xlink:href="#c_ed3e21196fb739f392806f09ca0594ef" x="63.623047"/>
<use xlink:href="#c_7a2040fe3b94fcd41d0a72c84e93b115" x="95.410156"/>
<use xlink:href="#c_3dcfa38a02242cb63ec6726c6e70be7a" x="159.033203"/>
<use xlink:href="#c_7a2040fe3b94fcd41d0a72c84e93b115" x="222.656250"/>
</g>
</g>
</g>
<g id="ytick8">
<g id="line2d41">
<path style="fill: none; stroke: #000000; stroke-width: 0.500000; stroke-linejoin: round; stroke-linecap: butt; stroke-dasharray: 1.000000,3.000000; stroke-dashoffset: 0.000000; opacity: 1.000000" clip-path="url(#p50431ccdcb28178602d99d9270004dde)" d="M72.000000 43.200000L518.400000 43.200000"/>
</g>
<g id="line2d42">
<g ><use style="fill: none; stroke: #000000; stroke-width: 0.500000; stroke-linejoin: round; stroke-linecap: butt;  opacity: 1.000000" xlink:href="#m3400efa6b1638b3fea9e19e898273957" x="72.000000" y="43.200000"/>
</g></g>
<g id="line2d43">
<g ><use style="fill: none; stroke: #000000; stroke-width: 0.500000; stroke-linejoin: round; stroke-linecap: butt;  opacity: 1.000000" xlink:href="#m20b58b2501143cb5e0a5e8f1ef6f1643" x="518.400000" y="43.200000"/>
</g></g>
<g id="text14">
<g style="fill: #000000; opacity: 1.000000" transform="translate(35.468750,47.567187)scale(0.120000)">
<use xlink:href="#c_7a2040fe3b94fcd41d0a72c84e93b115"/>
<use xlink:href="#c_ed3e21196fb739f392806f09ca0594ef" x="63.623047"/>
<use xlink:href="#c_7a2040fe3b94fcd41d0a72c84e93b115" x="95.410156"/>
<use xlink:href="#c_3dcfa38a02242cb63ec6726c6e70be7a" x="159.033203"/>
<use xlink:href="#c_1260a2df50f305f3db244e29828f968e" x="222.656250"/>
</g>
</g>
</g>
</g>
<g id="patch3">
<path style="fill: none; stroke: #000000; stroke-width: 1.000000; stroke-linejoin: round; stroke-linecap: square;  opacity: 1.000000"  d="M72.000000 43.200000L518.400000 43.200000"/>
</g>
<g id="patch4">
<path style="fill: none; stroke: #000000; stroke-width: 1.000000; stroke-linejoin: round; stroke-linecap: square;  opacity: 1.000000"  d="M518.400000 388.800000L518.400000 43.200000"/>
</g>
<g id="patch5">
<path style="fill: none; stroke: #000000; stroke-width: 1.000000; stroke-linejoin: round; stroke-linecap: square;  opacity: 1.000000"  d="M72.000000 388.800000L518.400000 388.800000"/>
</g>
<g id="patch6">
<path style="fill: none; stroke: #000000; stroke-width: 1.000000; stroke-linejoin: round; stroke-linecap: square;  opacity: 1.000000"  d="M72.000000 388.800000L72.000000 43.200000"/>
</g>
</g>
</g>
</svg>
