<?xml version="1.0" standalone="no"?>
<!DOCTYPE svg PUBLIC "-//W3C//DTD SVG 1.1//EN"
  "http://www.w3.org/Graphics/SVG/1.1/DTD/svg11.dtd">
<!-- Created with matplotlib (http://matplotlib.sourceforge.net/) -->
<svg width="576pt" height="432pt" viewBox="0 0 576 432"
   xmlns="http://www.w3.org/2000/svg"
   xmlns:xlink="http://www.w3.org/1999/xlink"
   version="1.1"
   id="svg1">
<g id="figure1">
<g id="patch1">
<path style="fill: #ffffff; stroke: #ffffff; stroke-width: 1.000000; stroke-linejoin: round; stroke-linecap: square;  opacity: 1.000000"  d="M0.000000 432.000000L576.000000 432.000000L576.000000 0.000000
L0.000000 0.000000L0.000000 432.000000"/>
</g>
<g id="axes1">
<g id="patch2">
<path style="fill: #ffffff; opacity: 1.000000"  d="M72.000000 388.800000L518.400000 388.800000L518.400000 43.200000
L72.000000 43.200000L72.000000 388.800000"/>
</g>
<g id="line2d1">
<defs>
  <clipPath id="p50431ccdcb28178602d99d9270004dde">
<rect x="72.000000" y="43.200000" width="446.400000" height="345.600000"/>
  </clipPath>
</defs><path style="fill: none; stroke: #ff0000; stroke-width: 1.000000; stroke-linejoin: round; stroke-linecap: square;  opacity: 1.000000" clip-path="url(#p50431ccdcb28178602d99d9270004dde)" d="M72.000000 324.228292L72.178560 328.426871L72.267840 328.075188
L72.580320 329.027835L72.580320 329.027835L72.714240 305.572735
L72.892800 326.334701L72.982080 328.017623L73.205280 316.346308
L73.249920 325.635875L73.473120 315.258900L73.607040 322.185266
L73.919520 314.216006L73.919520 314.216006L74.321280 345.212571
L74.544480 312.334399L74.589120 327.737030L74.856960 344.633149
L74.901600 323.323684L75.169440 344.436088L75.481920 344.751875
L75.571200 324.587140L75.928320 345.551789L75.972960 344.343652
L76.330080 323.944093L76.597920 313.304198L76.642560 344.464266
L76.865760 322.245815L76.999680 344.883686L77.178240 323.302764
L77.222880 324.593787L77.401440 322.048201L77.580000 335.984809
L77.847840 323.343279L77.892480 345.560221L78.115680 344.216183
L78.383520 296.409450L78.472800 334.394796L78.562080 322.372143
L78.696000 344.591724L79.008480 344.930999L79.008480 344.930999
L79.187040 320.191822L79.365600 336.328508L79.454880 322.615296
L79.633440 344.986364L79.678080 311.833106L79.945920 324.889448
L80.303040 345.332886L80.526240 323.663305L80.838720 345.746892
L80.928000 334.774817L81.106560 345.325478L81.195840 335.400353
L81.419040 345.352378L81.463680 325.435864L81.597600 316.343589
L81.642240 345.479236L81.776160 325.194371L82.088640 345.430472
L82.311840 322.340809L82.401120 336.528288L82.490400 323.445911
L82.668960 344.578164L82.981440 268.255619L83.026080 335.848977
L83.160000 323.361804L83.249280 335.453864L83.427840 345.075529
L83.561760 325.302624L83.784960 345.267084L83.918880 335.226390
L84.008160 345.138659L84.365280 313.006579L84.454560 345.933089
L84.811680 345.843348L85.034880 313.474222L85.124160 335.735977
L85.347360 345.948561L85.436640 337.179145L85.659840 344.808852
L85.704480 334.258180L85.793760 336.016385L86.016960 344.714435
L86.150880 323.051455L86.195520 345.784643L86.463360 344.340783
L86.731200 345.306712L86.775840 335.728305L86.999040 345.663187
L87.043680 322.858011L87.311520 324.854035L87.490080 345.533841
L87.668640 335.301731L87.847200 345.214195L87.981120 325.104526
L88.204320 345.125088L88.606080 333.585919L88.873920 322.728307
L88.918560 336.045370L89.097120 344.614038L89.141760 335.630396
L89.409600 324.452079L89.454240 335.575077L89.632800 344.755434
L89.722080 344.748165L90.034560 314.600394L90.257760 344.615892
L90.302400 332.950706L90.570240 345.258973L90.614880 335.898662
L90.748800 336.593215L90.748800 336.593215L90.882720 345.411291
L90.927360 336.707562L91.016640 344.532361L91.239840 325.450287
L91.418400 345.360764L91.552320 345.285400L91.686240 335.513307
L92.088000 345.693082L92.311200 334.948527L92.445120 335.445938
L92.489760 336.513807L92.802240 324.304116L93.114720 322.911118
L93.204000 344.406851L93.561120 322.764319L93.739680 345.374911
L93.828960 345.048180L93.918240 325.475608L94.186080 336.157494
L94.364640 334.043654L94.498560 344.684506L94.677120 345.393631
L94.811040 332.613734L94.855680 335.222588L95.123520 337.637341
L95.168160 334.878636L95.525280 345.817567L95.614560 345.348265
L95.793120 346.243634L95.927040 336.282624L96.016320 344.798369
L96.150240 336.634825L96.239520 345.888012L96.239520 345.888012
L96.284160 191.679229L96.507360 336.902849L96.864480 322.386912
L97.221600 345.193367L97.266240 325.941961L97.489440 344.849622
L97.846560 328.493595L97.891200 336.877563L97.935840 335.469853
L98.069760 345.474916L98.382240 345.965345L98.426880 335.032428
L98.694720 322.418569L98.739360 337.052517L99.007200 345.060749
L99.230400 346.053381L99.275040 343.436394L99.364320 285.857660
L99.587520 324.643645L99.766080 344.646317L99.944640 336.905303
L100.078560 325.083802L100.123200 344.505565L100.391040 336.720707
L100.658880 337.188568L100.658880 337.188568L100.882080 323.989079
L100.926720 335.502708L101.239200 333.976815L101.239200 333.976815
L101.551680 315.780031L101.730240 344.294761L101.819520 336.644352
L101.998080 344.760019L102.132000 324.831491L102.444480 345.387963
L102.489120 331.248879L102.756960 344.869275L102.980160 345.618570
L103.069440 336.152805L103.248000 335.088012L103.381920 344.913650
L103.515840 335.615581L103.694400 335.643644L103.828320 335.352372
L104.006880 336.477105L104.319360 333.761138L104.364000 334.824042
L104.587200 344.697005L104.676480 335.696959L104.810400 344.328549
L104.988960 336.100942L105.212160 333.255180L105.301440 337.037541
L105.524640 333.810985L105.569280 335.221770L105.703200 336.835434
L105.792480 333.560840L106.015680 334.875951L106.060320 336.127427
L106.372800 345.210405L106.372800 345.210405L106.640640 321.990566
L106.729920 335.533951L106.997760 334.044265L107.042400 344.997723
L107.399520 325.556974L107.444160 336.309869L107.756640 335.171382
L107.756640 335.171382L107.935200 344.972033L108.069120 344.448311
L108.426240 312.661187L108.738720 344.240006L108.783360 335.659242
L108.961920 345.422788L109.140480 344.711520L109.319040 323.953448
L109.497600 335.536623L109.676160 345.743401L109.854720 345.432580
L109.944000 344.390688L110.211840 345.181133L110.256480 335.789948
L110.390400 334.701400L110.390400 334.701400L110.568960 325.804481
L110.702880 337.391171L110.970720 310.919777L111.015360 327.352827
L111.193920 345.744265L111.238560 337.158616L111.595680 345.285009
L111.952800 334.383875L112.086720 344.923281L112.131360 336.505939
L112.354560 345.935048L112.399200 337.066422L112.667040 335.691348
L112.711680 344.935976L112.890240 324.505129L112.934880 337.176127
L113.068800 346.274738L113.158080 322.959387L113.336640 336.355338
L113.425920 345.769298L113.693760 345.611866L114.006240 329.668243
L114.050880 337.457802L114.095520 336.290930L114.318720 346.033302
L114.408000 337.369524L114.541920 345.491724L114.809760 346.669183
L114.854400 324.831836L115.032960 345.528300L115.211520 344.886025
L115.613280 336.253732L115.702560 326.372440L115.881120 337.194927
L116.059680 345.528576L116.193600 336.279352L116.416800 345.201385
L116.506080 326.622586L116.818560 346.331670L116.997120 324.767186
L117.175680 337.027807L117.354240 345.299121L117.666720 345.518703
L117.666720 345.518703L117.979200 345.642647L118.023840 336.319546
L118.113120 336.222858L118.291680 337.362106L118.559520 345.920970
L118.604160 324.972035L118.648800 345.363540L118.961280 345.200486
L119.229120 345.580174L119.273760 336.516307L119.452320 345.895695
L119.541600 344.848262L119.854080 325.534706L119.898720 336.705846
L120.032640 325.717309L120.211200 345.365142L120.479040 335.459474
L120.523680 336.532009L120.657600 344.965824L120.702240 336.944851
L120.791520 345.863151L120.880800 345.572594L121.148640 336.737629
L121.237920 344.359676L121.371840 345.605818L121.505760 315.679795
L121.684320 337.348155L121.773600 323.769980L121.996800 336.449987
L122.175360 345.238491L122.220000 336.595162L122.487840 344.534872
L122.532480 336.217052L122.666400 324.432910L122.844960 345.016846
L123.068160 345.694107L123.068160 345.694107L123.425280 333.397371
L123.559200 345.609009L123.782400 345.607546L124.050240 324.803036
L124.094880 337.443160L124.407360 345.161330L124.452000 336.715361
L124.809120 345.239873L124.987680 333.935954L125.121600 335.327697
L125.210880 345.395290L125.344800 336.909151L125.478720 345.035681
L125.701920 328.197577L126.059040 345.508969L126.282240 345.871457
L126.416160 336.605368L126.594720 334.852266L126.639360 337.176760
L126.728640 333.815558L126.773280 336.778572L126.996480 345.617948
L127.085760 336.610691L127.308960 329.029586L127.621440 325.660159
L127.621440 325.660159L127.710720 345.418422L127.889280 336.678163
L128.112480 345.398504L128.201760 345.275297L128.469600 334.405958
L128.514240 344.924755L128.648160 315.501385L128.782080 336.344394
L128.871360 345.721156L129.094560 336.931292L129.362400 336.457164
L129.451680 345.573792L129.540960 325.940844L129.808800 336.671666
L129.987360 345.346629L130.121280 345.081185L130.433760 322.970043
L130.478400 337.334204L130.790880 336.710016L130.790880 336.710016
L131.014080 315.429949L131.058720 344.653321L131.326560 335.766378
L131.505120 345.381062L131.683680 345.519337L131.817600 337.422770
L131.906880 345.359796L131.951520 336.383804L132.040800 345.421359
L132.264000 336.754852L132.531840 346.191379L132.576480 325.282671
L132.844320 336.994871L133.022880 334.196893L133.067520 344.972114
L133.201440 345.657600L133.380000 336.339037L133.603200 345.545257
L133.737120 345.316078L134.094240 326.301224L134.272800 324.822459
L134.406720 337.086409L134.496000 322.303634L134.674560 336.593687
L134.763840 345.256808L134.987040 344.890403L135.299520 335.553178
L135.433440 345.450643L135.612000 336.570900L135.879840 322.663922
L135.969120 332.853500L136.236960 345.613444L136.326240 325.648017
L136.594080 337.072124L136.683360 336.500790L136.906560 337.013937
L137.219040 345.403077L137.576160 326.825994L137.754720 302.867804
L137.754720 302.867804L137.844000 345.541110L137.977920 321.592631
L138.156480 346.153663L138.335040 345.900142L138.424320 336.968122
L138.736800 337.603484L138.915360 346.155598L139.049280 337.479529
L139.093920 336.121528L139.272480 336.029265L139.317120 345.290285
L139.540320 345.447948L139.629600 336.251866L139.763520 345.417420
L139.942080 337.545619L140.120640 335.587565L140.299200 345.423237
L140.477760 336.143220L140.611680 345.470469L140.790240 345.612108
L140.834880 336.863981L141.013440 336.835365L141.192000 345.203182
L141.504480 345.861366L141.593760 337.346738L141.727680 337.537509
L141.727680 337.537509L141.772320 323.203323L141.995520 327.736305
L142.174080 345.354083L142.308000 345.142944L142.575840 326.267919
L142.620480 344.585514L142.665120 345.925336L142.709760 344.813069
L143.022240 345.749196L143.066880 336.756879L143.245440 336.540972
L143.245440 336.540972L143.379360 333.953718L143.736480 345.864027
L143.781120 333.822067L144.004320 336.927997L144.316800 336.017434
L144.316800 336.017434L144.450720 325.976556L144.495360 335.832388
L144.763200 345.464225L144.852480 342.216357L144.986400 336.325467
L145.075680 344.713202L145.388160 335.953452L145.477440 337.150322
L145.522080 336.060092L145.789920 346.257366L145.834560 344.778981
L146.102400 346.049395L146.147040 337.798230L146.325600 345.243214
L146.459520 336.629123L146.548800 346.779521L146.772000 328.341923
L147.084480 336.829248L147.263040 337.397046L147.263040 337.397046
L147.396960 335.754340L147.486240 336.884855L147.620160 334.227709
L147.664800 335.859852L147.932640 326.526808L147.932640 326.526808
L147.977280 324.638081L148.155840 345.597155L148.379040 345.494292
L148.646880 325.828270L148.691520 336.575197L148.959360 325.846552
L149.004000 336.083224L149.271840 345.932145L149.673600 322.724125
L149.718240 345.796335L149.941440 344.027520L150.253920 344.856154
L150.253920 344.856154L150.566400 345.117635L150.655680 325.928195
L150.744960 345.228123L151.012800 344.523180L151.414560 334.160916
L151.593120 344.718582L151.637760 336.502253L151.860960 345.449618
L151.950240 335.998956L152.218080 335.969280L152.262720 345.424274
L152.396640 336.271715L152.485920 336.723391L152.709120 345.452498
L152.753760 336.863520L152.887680 345.242511L153.110880 328.975200
L153.512640 345.844328L153.691200 334.437062L153.780480 336.531606
L153.959040 325.355743L154.092960 345.390129L154.316160 345.563793
L154.405440 337.213221L154.539360 345.605484L154.584000 337.629623
L154.673280 324.814556L154.807200 336.912895L155.119680 345.437833
L155.387520 336.959654L155.655360 335.169711L155.789280 343.063284
L156.101760 326.332593L156.146400 336.363621L156.369600 334.908541
L156.458880 336.676147L156.726720 345.373574L157.128480 336.506089
L157.396320 345.610011L157.440960 344.464128L157.530240 345.225704
L157.530240 345.225704L157.664160 221.373700L157.842720 336.785599
L157.976640 314.236973L158.199840 343.130066L158.244480 344.882938
L158.423040 345.403526L158.601600 336.610092L158.780160 345.521353
L158.914080 336.791347L159.003360 337.167867L159.226560 336.153485
L159.315840 345.151123L159.360480 336.290964L159.583680 345.250979
L159.628320 337.092561L159.851520 336.962799L159.851520 336.962799
L160.030080 337.846787L160.074720 336.205843L160.297920 336.141423
L160.387200 337.570940L160.610400 335.394305L160.744320 344.578360
L161.012160 333.862514L161.101440 334.327496L161.324640 345.693612
L161.369280 336.423133L161.547840 345.574149L161.637120 336.426175
L161.726400 334.147864L161.771040 345.114282L161.949600 325.140883
L162.038880 336.944045L162.217440 336.826126L162.217440 336.826126
L162.351360 345.224010L162.396000 336.999099L162.529920 336.660549
L162.708480 345.195279L163.020960 326.414062L163.065600 337.439405
L163.422720 328.115255L163.779840 345.713967L164.136960 324.994222
L164.270880 345.691872L164.449440 336.475411L164.717280 345.575820
L165.029760 346.000067L165.029760 346.000067L165.342240 336.078812
L165.520800 337.200676L165.833280 345.724140L166.145760 336.043261
L166.279680 345.404402L166.413600 336.846436L166.636800 345.811116
L166.949280 325.160767L167.083200 345.202790L167.261760 336.656483
L167.395680 325.688026L167.440320 337.816212L167.618880 336.375544
L167.752800 336.524026L168.154560 345.548148L168.377760 336.417684
L168.467040 336.738125L168.779520 329.239077L169.047360 345.640712
L169.092000 336.654248L169.315200 345.369324L169.404480 336.465228
L169.716960 334.140515L169.761600 344.463218L169.850880 345.555302
L170.074080 346.111511L170.163360 344.947438L170.520480 315.618405
L170.565120 345.776175L170.877600 336.409068L170.966880 345.766499
L171.234720 344.709170L171.591840 325.860250L171.815040 345.053722
L171.859680 336.174797L171.993600 339.773380L172.082880 336.947316
L172.216800 329.580553L172.261440 336.906927L172.529280 335.989578
L172.618560 345.413445L172.931040 345.599677L172.975680 337.140910
L173.243520 336.449088L173.288160 345.306228L173.377440 325.240428
L173.600640 325.738253L173.779200 345.396776L174.091680 310.795154
L174.136320 346.206897L174.448800 344.755423L174.716640 345.885258
L174.895200 333.460858L174.939840 345.493601L175.163040 336.287969
L175.296960 345.867080L175.475520 345.296621L175.698720 322.878839
L175.832640 336.287658L175.921920 337.347901L176.189760 345.650423
L176.234400 336.937594L176.368320 336.850917L176.546880 345.002607
L176.859360 345.269169L176.904000 336.534774L177.037920 336.429343
L177.037920 336.429343L177.350400 345.417201L177.618240 333.777254
L177.707520 335.872316L177.841440 333.862629L177.975360 336.796566
L178.198560 345.047881L178.243200 336.396534L178.421760 337.559927
L178.600320 345.823891L178.734240 337.206194L178.912800 345.330708
L178.957440 335.806145L179.136000 333.977311L179.180640 337.225697
L179.403840 345.069147L179.493120 337.157280L179.760960 345.665053
L180.028800 329.502828L180.073440 344.909065L180.252000 336.881353
L180.430560 344.732244L180.475200 337.292905L180.698400 345.405819
L180.743040 336.500536L180.966240 340.901464L181.055520 334.457856
L181.234080 345.673290L181.368000 346.888650L181.546560 336.874982
L181.814400 345.534601L182.305440 286.336719L182.484000 345.071301
L182.662560 335.901681L182.841120 314.557828L182.930400 336.827174
L183.198240 345.559288L183.198240 345.559288L183.376800 334.320756
L183.510720 336.494730L183.689280 334.017228L183.778560 345.750048
L184.091040 345.934760L184.091040 345.934760L184.180320 334.316874
L184.314240 336.077430L184.716000 345.484800L184.983840 345.826230
L185.073120 336.665699L185.207040 345.407132L185.251680 336.858255
L185.519520 345.447429L185.564160 325.830228L185.742720 335.841362
L185.876640 345.715880L186.010560 337.869619L186.099840 336.446104
L186.233760 345.004646L186.367680 337.142281L186.635520 345.097981
L186.724800 344.912337L186.948000 345.117888L187.081920 337.702810
L187.126560 336.582202L187.439040 345.539635L187.751520 336.572940
L187.974720 334.089919L188.153280 344.711889L188.465760 249.169709
L188.510400 336.986899L188.555040 345.379392L188.778240 345.247384
L189.046080 346.247585L189.090720 345.010660L189.269280 336.783110
L189.447840 337.295566L189.671040 328.898028L189.760320 345.103039
L189.938880 345.202007L189.983520 336.095228L190.385280 345.923032
L190.697760 336.374542L190.876320 337.652168L191.144160 346.299633
L191.188800 336.226164L191.322720 345.500628L191.412000 337.016632
L191.724480 345.549969L191.858400 336.353414L191.992320 336.563758
L192.170880 344.748568L192.438720 345.216108L192.483360 335.720010
L192.617280 336.192019L192.617280 336.192019L192.929760 336.005891
L192.974400 345.225001L193.019040 337.060627L193.331520 337.361610
L193.420800 337.890125L193.510080 337.571124L193.599360 334.177908
L193.822560 334.375453L193.956480 345.163104L194.001120 326.674806
L194.224320 336.410427L194.402880 345.357251L194.715360 345.786060
L194.715360 345.786060L194.983200 336.145870L195.072480 337.371345
L195.251040 336.020521L195.251040 336.020521L195.384960 345.557595
L195.563520 336.449733L195.876000 334.424932L195.876000 334.424932
L196.054560 345.859937L196.233120 345.439711L196.367040 345.991726
L196.411680 337.310703L196.724160 345.240115L197.036640 325.755222
L197.081280 337.463090L197.170560 326.366243L197.215200 336.107750
L197.438400 346.568244L197.483040 344.837491L198.152640 311.098499
L198.465120 345.549381L198.688320 325.475447L198.822240 336.814721
L199.045440 345.809745L199.179360 345.245748L199.491840 345.428686
L199.581120 337.166162L199.759680 345.992705L199.893600 336.935094
L200.206080 335.409834L200.206080 335.409834L200.250720 337.181299
L200.429280 345.442095L200.473920 336.570267L200.652480 336.558551
L200.652480 336.558551L200.964960 338.038710L200.964960 338.038710
L201.054240 336.079780L201.322080 345.361743L201.589920 323.098456
L201.679200 338.085850L201.991680 345.854984L202.438080 325.855296
L202.572000 345.604435L202.705920 336.852599L202.929120 345.126540
L203.018400 336.893541L203.063040 345.133336L203.330880 339.805751
L203.554080 336.605023L203.643360 336.522920L203.688000 337.589718
L203.911200 334.171515L203.955840 336.187457L204.089760 345.067822
L204.134400 337.074463L204.312960 325.542378L204.357600 336.530627
L204.580800 335.822584L204.625440 345.114916L204.982560 336.543391
L205.205760 345.395290L205.384320 345.340581L205.696800 335.873629
L205.964640 345.374185L206.098560 345.587524L206.232480 345.010648
L206.500320 326.374721L206.589600 336.954874L206.812800 330.429370
L206.946720 345.786083L207.125280 335.789418L207.259200 337.052701
L207.527040 331.841514L207.571680 336.741569L207.884160 322.113888
L207.928800 345.441151L208.196640 345.056256L208.509120 345.675767
L208.553760 336.869430L208.732320 345.441992L208.776960 337.552485
L209.000160 333.346890L209.268000 345.241083L209.312640 337.147442
L209.401920 334.903116L209.446560 345.140916L209.669760 345.126010
L209.759040 336.485388L210.026880 345.806623L210.160800 344.929571
L210.384000 345.102831L210.473280 338.200646L210.741120 345.316504
L211.053600 335.540195L211.098240 337.193833L211.366080 335.822550
L211.410720 345.356168L211.723200 345.424562L211.767840 336.527332
L212.080320 346.491510L212.214240 333.819556L212.437440 336.531168
L212.526720 337.667731L212.660640 344.998575L212.794560 325.664675
L212.973120 345.659351L213.107040 345.446139L213.151680 334.347414
L213.464160 337.969659L213.687360 333.983716L213.865920 345.825469
L214.223040 315.083704L214.356960 334.320780L214.535520 324.949617
L214.580160 337.382001L214.892640 328.200780L214.937280 345.797407
L215.205120 345.112186L215.562240 336.508474L215.785440 345.716997
L215.874720 337.349964L216.053280 345.125595L216.187200 334.604701
L216.365760 344.887822L216.588960 345.401844L216.633600 336.804388
L216.767520 336.640355L216.946080 345.066866L217.213920 326.211356
L217.258560 336.482415L217.615680 345.778088L217.928160 335.713133
L217.972800 337.224995L218.062080 335.683619L218.151360 335.696314
L218.285280 326.099267L218.463840 337.605132L218.731680 337.247700
L218.731680 337.247700L218.820960 334.838488L218.865600 336.207537
L219.133440 333.648795L219.178080 336.145133L219.312000 345.429124
L219.356640 336.867471L219.490560 345.635654L219.490560 345.635654
L219.535200 216.288726L219.669120 336.409793L219.892320 337.557923
L220.249440 345.508278L220.561920 311.391694L220.606560 347.465987
L220.919040 337.011748L221.142240 336.659397L221.276160 344.440639
L221.410080 345.606094L221.544000 336.609469L221.633280 346.416008
L221.856480 345.626369L222.168960 336.206316L222.392160 346.038566
L222.526080 337.761792L222.660000 335.284566L222.883200 325.669686
L222.927840 337.010711L223.061760 346.075212L223.106400 322.295996
L223.329600 345.600530L223.686720 326.715990L223.731360 336.114858
L223.954560 345.777443L224.133120 345.220554L224.400960 345.270044
L224.445600 336.881157L224.534880 345.736143L224.758080 345.526986
L225.070560 325.392803L225.115200 345.058019L225.249120 336.646437
L225.427680 333.544170L225.695520 346.316820L225.784800 345.525638
L226.097280 327.552964L226.141920 345.367676L226.409760 344.916104
L226.722240 345.276392L226.766880 337.101224L226.945440 334.324800
L226.990080 335.816536L227.079360 345.986116L227.257920 334.780854
L227.436480 345.729842L227.525760 336.423721L227.748960 337.531519
L227.927520 325.781476L228.195360 344.907809L228.240000 336.836886
L228.329280 334.421211L228.641760 345.902031L228.909600 325.511217
L228.954240 337.248922L229.043520 337.057240L229.043520 337.057240
L229.356000 345.438927L229.489920 336.241636L229.579200 344.384329
L229.980960 324.839693L230.114880 325.699361L230.516640 345.381085
L230.918400 325.069724L230.963040 336.835308L231.230880 345.569253
L231.275520 336.914519L231.409440 336.725153L231.677280 344.921691
L231.989760 345.385164L232.034400 324.844508L232.436160 346.174595
L232.837920 322.494820L233.105760 346.007255L233.507520 336.240841
L233.730720 322.560691L233.864640 345.034264L234.043200 345.446335
L234.221760 336.430057L234.534240 345.085551L234.936000 326.713824
L235.293120 345.210751L235.382400 345.501043L235.560960 336.702747
L235.694880 334.563494L235.828800 337.286304L236.141280 336.563009
L236.141280 336.563009L236.453760 345.790368L236.498400 344.521555
L236.543040 336.293119L236.855520 337.128664L237.078720 345.627026
L237.168000 325.986866L237.435840 336.990609L237.614400 345.559473
L237.703680 324.917810L237.792960 337.034868L238.016160 335.780456
L238.060800 336.809215L238.417920 345.027940L238.596480 325.959160
L238.819680 338.232315L239.132160 334.834502L239.132160 334.834502
L239.221440 336.938665L239.221440 336.938665L239.489280 335.078588
L239.533920 336.351779L239.623200 335.528317L239.667840 345.018033
L239.891040 335.298263L239.980320 336.969930L240.292800 334.426717
L240.292800 334.426717L240.426720 345.531997L240.739200 345.130744
L241.051680 345.718852L241.051680 345.718852L241.319520 346.188753
L241.364160 336.770819L241.587360 345.295457L241.721280 337.814116
L241.855200 345.809952L241.899840 336.376374L241.989120 336.095078
L242.212320 336.716997L242.480160 336.057938L242.524800 337.194881
L243.015840 345.842945L243.149760 326.093288L243.328320 336.886836
L243.417600 336.155017L243.551520 345.454652L243.908640 336.817567
L244.221120 334.372965L244.265760 344.124012L244.399680 345.786359
L244.399680 345.786359L244.444320 279.789085L244.667520 336.707389
L244.801440 333.804061L244.846080 336.034276L245.113920 346.235685
L245.158560 344.877408L245.471040 322.158021L245.649600 334.530835
L245.694240 345.490836L245.917440 337.312086L246.051360 337.613276
L246.051360 337.613276L246.408480 345.206004L246.542400 345.804699
L246.587040 337.210790L246.854880 345.343000L246.944160 336.492945
L247.078080 336.689487L247.524480 345.472082L247.569120 336.245633
L247.658400 336.759287L247.926240 345.338243L247.970880 337.346519
L248.015520 335.960179L248.283360 333.748904L248.328000 336.332436
L248.506560 336.551351L248.506560 336.551351L248.640480 345.343784
L248.819040 344.824923L248.997600 345.211776L249.042240 336.630056
L249.265440 345.085183L249.533280 345.138094L249.533280 345.138094
L249.801120 345.228964L249.801120 345.228964L249.979680 346.235685
L250.202880 334.668764L250.247520 336.639721L250.426080 325.402952
L250.604640 345.312069L250.917120 345.393216L250.917120 345.393216
L251.274240 322.600965L251.452800 346.179917L251.542080 336.409655
L251.676000 345.225900L251.809920 336.782143L252.077760 334.596810
L252.122400 345.540499L252.256320 346.098781L252.434880 325.910673
L252.479520 345.633857L252.702720 336.927629L252.970560 335.664979
L252.970560 335.664979L253.059840 336.805079L253.327680 345.350028
L253.461600 325.803398L253.729440 336.585300L253.952640 347.226716
L254.086560 345.765750L254.354400 337.006702L254.399040 345.554289
L254.577600 332.900951L254.711520 336.837024L254.979360 335.775560
L254.979360 335.775560L255.068640 336.864730L255.113280 345.471713
L255.425760 345.338842L255.693600 337.063162L255.961440 345.132276
L256.184640 345.959032L256.273920 336.939218L256.541760 345.552342
L256.586400 334.470390L256.764960 336.985356L257.032800 346.070719
L257.345280 334.542090L257.657760 345.492968L257.880960 314.883245
L257.925600 335.959661L258.327360 345.915982L258.372000 333.720657
L258.550560 336.817521L258.773760 346.354687L258.818400 337.974831
L259.086240 335.427229L259.175520 345.892366L259.398720 344.099497
L259.532640 344.853988L259.711200 336.362216L259.979040 335.730493
L260.023680 345.533322L260.425440 325.440576L260.470080 345.647773
L260.782560 345.215877L260.871840 345.803409L261.050400 336.825642
L261.184320 335.137317L261.452160 345.622199L261.496800 335.256826
L261.586080 346.192739L261.764640 345.546778L261.987840 325.238504
L262.121760 336.697194L262.255680 336.017779L262.389600 336.790460
L262.568160 344.424626L262.612800 336.729105L263.148480 334.974033
L263.327040 345.604332L263.460960 335.498964L263.862720 346.097676
L264.175200 322.597048L264.264480 345.315191L264.532320 337.302651
L264.934080 346.193902L265.112640 323.419300L265.201920 345.068536
L265.469760 346.125876L265.514400 337.126683L265.826880 345.800966
L266.139360 336.114778L266.451840 335.070420L266.451840 335.070420
L266.630400 345.050450L266.898240 345.657842L266.987520 337.482904
L267.166080 336.550257L267.255360 344.796780L267.433920 336.818408
L267.746400 336.538322L267.924960 345.310341L268.058880 336.426463
L268.192800 345.298326L268.594560 322.734148L268.683840 336.778929
L269.040960 345.755773L269.219520 326.024640L269.308800 345.383332
L269.621280 336.269134L269.665920 345.065518L269.710560 336.980955
L270.067680 345.857437L270.380160 345.984411L270.380160 345.984411
L270.424800 344.769638L270.514080 345.690409L270.781920 325.651784
L270.826560 345.179992L271.094400 345.159832L271.317600 336.637267
L271.451520 337.002831L271.585440 335.081491L271.719360 336.789297
L271.987200 345.075287L272.031840 336.998868L272.255040 327.273523
L272.299680 346.632641L272.567520 345.748608L272.746080 346.181207
L272.790720 337.376920L273.103200 335.885576L273.147840 336.925394
L273.371040 336.570601L273.460320 345.546755L273.683520 345.614757
L273.772800 336.641933L274.085280 335.681810L274.085280 335.681810
L274.219200 345.761027L274.263840 325.968342L274.531680 336.709590
L274.620960 337.819046L274.888800 345.990482L274.933440 338.572984
L275.156640 345.743654L275.201280 337.241514L275.379840 345.789239
L275.513760 345.673428L275.603040 336.270436L275.781600 337.372370
L275.915520 345.715096L276.228000 336.873347L276.540480 346.131706
L276.763680 323.516494L276.852960 336.722653L277.076160 336.211131
L277.210080 344.920366L277.433280 345.296840L277.433280 345.296840
L277.701120 345.844800L277.745760 337.683283L277.968960 334.721629
L278.058240 345.164924L278.370720 335.533548L278.415360 345.312035
L278.593920 336.768422L278.817120 345.451116L279.174240 336.773261
L279.531360 345.813535L279.576000 344.692765L279.888480 322.994419
L279.933120 347.093729L280.200960 335.852882L280.379520 345.915971
L280.468800 347.007617L280.692000 336.197249L280.870560 345.676550
L281.049120 344.861741L281.316960 335.285372L281.361600 336.387732
L281.674080 345.610149L281.718720 337.438598L281.852640 345.506780
L282.031200 326.001796L282.209760 345.607488L282.432960 345.433478
L282.656160 336.232800L282.745440 336.964262L282.834720 334.127739
L282.879360 337.036366L283.147200 337.338973L283.147200 337.338973
L283.236480 335.203569L283.370400 345.703841L283.459680 336.744035
L283.682880 345.746292L283.727520 336.617027L284.040000 345.694337
L284.173920 334.543127L284.352480 345.693128L284.441760 336.345869
L284.709600 336.482749L284.754240 345.793363L284.977440 345.189416
L285.245280 345.829766L285.289920 337.399165L285.647040 346.382369
L285.691680 336.032536L286.004160 336.609608L286.182720 334.102118
L286.227360 336.207421L286.539840 346.716265L286.584480 345.209725
L286.718400 346.116925L286.852320 337.040813L287.030880 334.619505
L287.254080 345.500156L287.298720 337.068772L287.611200 326.423232
L287.745120 346.011471L287.968320 345.461219L288.280800 336.468672
L288.370080 325.826139L288.414720 336.895212L288.637920 326.367706
L288.682560 336.853578L288.816480 346.040306L288.995040 344.798623
L289.262880 292.077458L289.396800 323.927090L289.753920 346.234280
L289.843200 333.766287L290.021760 337.155103L290.423520 346.200791
L290.691360 346.332234L290.736000 345.246532L291.048480 336.459272
L291.227040 346.279657L291.360960 336.758066L291.539520 344.612552
L291.673440 336.627337L291.718080 345.592731L292.030560 345.224794
L292.253760 345.641818L292.253760 345.641818L292.610880 336.362538
L293.057280 345.163046L293.369760 325.692622L293.637600 345.970207
L293.726880 336.812049L293.994720 335.842456L294.039360 345.060876
L294.262560 345.325905L294.307200 336.522678L294.575040 336.367987
L294.575040 336.367987L294.932160 345.929841L294.976800 334.407076
L295.289280 336.820700L295.601760 337.112352L295.601760 337.112352
L295.824960 345.901559L295.914240 345.377745L296.226720 345.576419
L296.271360 336.877920L296.316000 345.359324L296.628480 336.579080
L296.940960 335.867927L296.985600 345.489938L297.208800 345.579356
L297.253440 336.938308L297.476640 345.942582L297.878400 334.425036
L297.923040 336.907630L298.235520 335.145796L298.235520 335.145796
L298.592640 326.208868L298.681920 344.566979L298.949760 338.278614
L298.994400 336.687022L299.128320 345.700996L299.217600 336.734231
L299.351520 335.100061L299.485440 345.856735L299.574720 336.022445
L299.753280 345.850260L299.887200 344.947323L300.244320 326.111651
L300.288960 345.668797L300.601440 337.052379L300.869280 335.845693
L300.869280 335.845693L301.003200 345.903091L301.181760 334.622304
L301.449600 346.127109L301.583520 345.868716L301.851360 314.893060
L301.940640 336.858497L302.119200 336.537043L302.253120 337.622538
L302.476320 345.688324L302.565600 336.511284L302.878080 345.924300
L303.012000 336.670491L303.324480 337.194904L303.636960 345.819329
L303.860160 346.020837L303.994080 337.060385L304.217280 346.021206
L304.261920 336.687229L304.395840 337.940329L304.485120 336.813431
L304.485120 336.813431L304.752960 335.710241L304.842240 345.390117
L305.020800 336.658176L305.154720 334.968584L305.333280 345.425921
L305.467200 337.022369L305.868960 325.082742L305.913600 345.777650
L306.136800 337.733476L306.449280 346.390710L306.672480 309.765946
L306.717120 336.528173L306.851040 345.630413L306.895680 336.985644
L307.029600 345.479570L307.029600 345.479570L307.297440 336.453938
L307.431360 337.902140L307.609920 326.174054L307.654560 336.058456
L307.788480 337.088056L307.788480 337.088056L307.922400 325.520237
L308.100960 337.734973L308.279520 345.738125L308.413440 336.937962
L308.502720 337.364767L308.681280 326.544630L308.859840 324.312883
L309.038400 345.396234L309.306240 346.063334L309.350880 335.747186
L309.395520 346.340897L309.708000 345.133371L309.886560 345.468983
L310.020480 345.377998L310.199040 345.689844L310.422240 336.097705
L310.511520 337.286661L310.600800 345.150778L310.913280 345.279894
L310.957920 337.120865L311.047200 335.985650L311.091840 337.129989
L311.270400 325.266359L311.448960 345.015821L311.761440 345.949010
L311.806080 336.898921L311.940000 336.454180L312.118560 345.839144
L312.386400 333.591852L312.475680 336.973294L312.743520 333.669681
L312.788160 345.623455L313.100640 347.215634L313.145280 337.288896
L313.279200 345.512621L313.547040 345.936845L313.547040 345.936845
L313.680960 346.044695L313.814880 336.490249L314.127360 346.200768
L314.439840 346.460106L314.484480 335.710760L314.841600 345.725672
L314.975520 336.916524L315.020160 345.724911L315.377280 325.717620
L315.421920 337.558188L315.645120 337.161393L315.689760 345.327817
L316.091520 326.404719L316.314720 346.388556L316.359360 345.003057
L316.537920 345.594908L316.716480 336.872989L316.850400 336.867045
L316.850400 336.867045L317.073600 325.594172L317.118240 336.561592
L317.162880 345.738954L317.386080 345.733793L317.787840 325.684765
L318.055680 345.440183L318.144960 336.174543L318.278880 346.010665
L318.457440 345.738344L318.591360 325.219369L318.814560 337.251110
L318.948480 336.660365L319.082400 345.309005L319.394880 325.624412
L319.484160 337.272745L319.573440 336.888046L319.841280 345.650538
L320.153760 325.237628L320.466240 345.620771L320.734080 346.351761
L320.823360 337.221919L321.046560 336.586084L321.135840 345.237696
L321.492960 336.545626L321.716160 334.398240L321.850080 344.880841
L322.073280 345.595254L322.207200 336.599620L322.519680 336.402467
L322.519680 336.402467L322.698240 345.888945L322.787520 337.266847
L323.055360 334.432777L323.100000 336.883680L323.323200 324.885439
L323.412480 336.285389L323.680320 337.745583L324.037440 345.936280
L324.171360 337.163351L324.349920 338.025750L324.528480 335.873203
L324.707040 345.630689L324.930240 346.044073L324.974880 336.686630
L325.108800 345.487945L325.153440 337.212484L325.332000 336.056291
L325.644480 345.269111L325.912320 345.804791L325.912320 345.804791
L326.180160 326.552060L326.224800 336.655849L326.492640 335.872927
L326.581920 345.365280L326.983680 315.041772L327.117600 345.206500
L327.206880 337.430580L327.519360 345.602177L328.233600 331.074536
L328.322880 346.061940L328.590720 338.148219L328.635360 336.513036
L328.947840 345.601590L329.349600 326.219201L329.706720 344.881060
L330.019200 345.054528L330.019200 345.054528L330.376320 336.286506
L330.510240 345.188932L330.688800 344.906934L330.956640 345.693439
L331.001280 336.375475L331.179840 333.611758L331.224480 337.109507
L331.447680 346.295716L331.536960 336.803777L331.670880 337.604959
L331.670880 337.604959L332.028000 346.586918L332.117280 335.781458
L332.385120 337.605523L332.697600 336.243410L332.697600 336.243410
L332.920800 346.335103L333.010080 337.504838L333.233280 345.441773
L333.277920 303.985486L333.501120 337.517798L333.724320 345.163369
L333.947520 324.903110L333.992160 345.452913L334.126080 325.217894
L334.304640 336.986035L334.572480 346.120001L334.617120 345.061544
L334.929600 325.763136L334.974240 337.376667L335.108160 335.107400
L335.286720 334.273041L335.420640 336.956175L335.599200 342.680936
L335.599200 342.680936L335.777760 336.356490L335.956320 346.178742
L336.045600 344.882269L336.224160 334.945428L336.402720 336.557987
L336.536640 331.517560L336.581280 334.213908L336.625920 345.443858
L336.804480 337.252746L337.072320 345.771395L337.340160 345.989802
L337.384800 340.297528L337.608000 345.940543L337.652640 336.836344
L337.920480 346.277964L337.965120 336.498854L338.143680 326.510669
L338.188320 336.452210L338.322240 336.433951L338.500800 345.100078
L338.813280 345.468061L338.857920 336.450493L338.947200 345.158542
L339.125760 344.879654L339.438240 345.323647L339.438240 345.323647
L339.706080 345.683889L339.750720 337.750076L340.063200 336.523645
L340.063200 336.523645L340.197120 337.646719L340.197120 337.646719
L340.375680 325.101496L340.420320 336.649916L340.732800 335.104358
L341.000640 334.012988L341.000640 334.012988L341.313120 346.657075
L341.536320 322.819615L341.625600 336.328946L342.072000 345.795517
L342.339840 325.691505L342.384480 337.656603L342.473760 344.177096
L342.607680 345.345085L342.786240 335.955076L343.098720 335.834001
L343.098720 335.834001L343.500480 345.662623L343.768320 345.690225
L343.812960 337.022277L343.946880 345.741592L344.080800 151.129670
L344.259360 344.867432L344.393280 336.838499L344.839680 345.374266
L345.196800 335.834680L345.241440 345.663130L345.553920 345.498774
L345.866400 345.840411L345.911040 337.677788L346.357440 325.751916
L346.446720 346.077746L346.669920 336.797430L347.160960 344.550424
L347.294880 345.308705L347.473440 345.123325L347.518080 346.350724
L347.919840 325.142876L348.187680 345.793133L348.276960 336.802764
L348.410880 325.464019L348.455520 336.657082L348.589440 345.370568
L348.634080 336.862863L348.723360 337.541403L348.901920 336.629065
L349.080480 325.576374L349.169760 344.779661L349.482240 325.502243
L349.526880 336.758538L349.660800 336.188045L349.839360 345.659628
L349.928640 325.821900L350.151840 336.794435L350.330400 345.803720
L350.375040 337.279069L350.508960 336.105631L350.776800 336.044287
L350.866080 344.777000L351.178560 345.545752L351.223200 337.192416
L351.312480 333.872663L351.357120 337.136924L351.446400 326.545425
L351.535680 336.783721L351.758880 344.883963L351.892800 338.076242
L351.937440 336.325018L351.982080 337.567668L352.071360 314.250993
L352.116000 336.956613L352.383840 336.700074L352.473120 345.747859
L352.785600 345.845998L352.830240 337.064567L352.919520 335.932013
L353.142720 337.613530L353.365920 345.255598L353.410560 336.331296
L353.499840 345.832082L353.767680 345.502138L354.124800 325.242662
L354.348000 346.139896L354.526560 345.305526L354.839040 335.549457
L354.883680 336.671988L355.240800 334.391063L355.553280 345.935624
L355.642560 345.171606L355.910400 336.727457L356.222880 336.471529
L356.267520 345.503267L356.446080 336.421187L356.580000 336.673475
L356.624640 345.660791L356.758560 345.625275L357.071040 325.940832
L357.204960 345.819444L357.294240 345.156134L357.562080 345.247718
L357.606720 336.656275L357.963840 346.284979L358.097760 336.721455
L358.454880 323.047791L358.544160 345.584506L358.722720 337.150932
L358.990560 346.080326L358.990560 346.080326L359.169120 336.570140
L359.303040 336.582478L359.570880 325.903116L359.615520 338.077014
L359.704800 335.088922L359.749440 336.358034L359.928000 345.643718
L359.972640 336.674834L360.061920 333.425894L360.240480 323.214509
L360.329760 345.564069L360.731520 324.917821L361.044000 346.155114
L361.088640 336.405704L361.177920 344.589339L361.356480 335.868008
L361.668960 345.201247L361.936800 325.292544L362.026080 336.019761
L362.338560 335.774892L362.338560 335.774892L362.651040 345.528219
L362.784960 333.957220L362.874240 336.831437L363.097440 345.501562
L363.142080 336.709740L363.320640 345.252061L363.409920 337.125036
L363.633120 324.823991L363.677760 336.681435L363.811680 333.740713
L363.856320 345.509914L364.034880 336.749426L364.258080 325.844156
L364.302720 337.311844L364.570560 345.414436L364.615200 335.540148
L364.793760 345.810977L364.883040 336.834778L365.240160 325.091843
L365.374080 346.433103L365.597280 345.774966L365.865120 336.768503
L366.043680 345.768261L366.088320 336.791163L366.222240 345.443651
L366.311520 336.565544L366.668640 346.170136L366.713280 336.163046
L367.025760 336.787292L367.338240 345.927076L367.561440 346.030134
L367.695360 335.989279L367.873920 345.208147L367.963200 336.282670
L368.231040 336.209426L368.275680 337.415455L368.364960 345.397548
L368.543520 336.981957L368.722080 336.438789L368.766720 345.868393
L369.079200 325.144639L369.123840 345.317818L369.347040 345.227535
L369.793440 337.226204L370.061280 346.011725L370.239840 325.914198
L370.329120 336.881007L370.463040 333.877444L370.552320 337.291073
L370.820160 345.096300L370.864800 336.601993L370.954080 345.497000
L371.088000 345.648338L371.266560 336.897066L371.534400 337.982216
L371.579040 336.421912L371.846880 345.438962L372.070080 346.463758
L372.204000 336.668924L372.471840 336.322241L372.561120 345.169981
L372.784320 345.778330L372.828960 337.420431L373.007520 325.895823
L373.364640 345.590796L373.632480 325.316483L373.677120 344.904814
L373.900320 345.946026L373.944960 336.949885L374.078880 325.832129
L374.123520 336.095067L374.212800 337.542751L374.346720 336.843556
L374.614560 345.412270L374.793120 337.383602L375.060960 336.556408
L375.060960 336.556408L375.150240 337.613910L375.418080 345.472773
L375.418080 345.472773L375.596640 346.265510L375.641280 336.582248
L375.953760 345.706491L376.221600 335.464992L376.266240 337.163731
L376.444800 345.506711L376.578720 345.252718L376.668000 344.155841
L376.712640 345.223238L376.980480 345.343461L377.069760 337.501290
L377.248320 314.186296L377.292960 337.080061L377.382240 345.672023
L377.605440 337.381609L377.873280 335.936056L377.873280 335.936056
L377.962560 334.161550L378.141120 345.718898L378.319680 345.592996
L378.498240 326.764904L378.632160 336.821276L378.900000 345.247626
L379.212480 345.902112L379.301760 336.378148L379.435680 334.016006
L379.658880 345.198516L379.748160 334.843857L380.060640 346.108251
L380.105280 335.311419L380.283840 337.180458L380.596320 336.501331
L380.596320 336.501331L380.819520 337.509999L380.953440 334.492612
L381.176640 344.999946L381.444480 345.630839L381.578400 336.249896
L381.890880 345.734669L382.114080 336.328358L382.158720 337.955800
L382.292640 336.374081L382.471200 346.232125L382.515840 345.031580
L382.917600 335.313181L383.185440 346.375480L383.274720 344.870369
L383.587200 314.869789L383.631840 336.649789L383.855040 345.553920
L384.033600 344.995165L384.122880 345.001121L384.301440 336.287197
L384.569280 336.262833L384.569280 336.262833L384.658560 337.316682
L384.926400 345.565152L384.971040 334.207745L385.149600 336.702551
L385.283520 345.538449L385.328160 337.514838L385.596000 345.244308
L385.640640 336.469824L385.774560 336.229171L385.863840 336.764632
L386.087040 345.234205L386.354880 325.477855L386.488800 336.959090
L386.756640 345.799757L386.801280 337.227610L386.979840 325.313499
L387.292320 345.855848L387.649440 334.395821L387.694080 345.391741
L387.961920 336.934184L388.095840 325.481288L388.363680 345.337217
L388.676160 335.318941L388.720800 337.020780L389.033280 345.685444
L389.077920 326.324920L389.167200 336.788893L389.479680 346.111235
L389.658240 326.186830L389.792160 336.057719L390.060000 345.540718
L390.104640 336.372319L390.193920 334.370131L390.461760 324.336822
L390.506400 337.205134L390.640320 325.912827L390.818880 344.950629
L390.997440 345.842081L390.997440 345.842081L391.265280 344.454440
L391.577760 334.454100L391.622400 335.805408L391.667040 345.764782
L391.845600 336.861665L392.113440 337.772540L392.113440 337.772540
L392.336640 336.910925L392.336640 336.910925L392.559840 336.222386
L392.649120 345.172712L392.961600 345.867206L392.961600 345.867206
L393.363360 336.572271L393.541920 334.051476L393.586560 336.567410
L393.899040 345.367457L393.899040 345.367457L394.166880 336.418111
L394.256160 337.338017L394.524000 336.712977L394.524000 336.712977
L394.836480 337.734190L395.104320 336.146861L395.372160 336.003575
L395.372160 336.003575L395.550720 337.037449L395.729280 336.202099
L395.729280 336.202099L396.041760 323.692301L396.354240 346.033763
L396.398880 325.087995L396.666720 336.516434L396.845280 333.942924
L396.889920 337.013038L397.247040 345.515466L397.291680 336.739588
L397.514880 345.302934L397.738080 336.770830L398.095200 345.501009
L398.496960 335.303366L398.586240 345.948998L398.854080 338.270043
L398.988000 336.311747L399.166560 345.896732L399.300480 336.725038
L399.479040 336.740106L399.657600 326.963094L399.746880 345.546801
L400.014720 346.035479L400.014720 346.035479L400.327200 336.427857
L400.371840 345.589897L400.416480 337.187128L400.639680 326.017256
L400.684320 336.826276L400.862880 345.607880L401.041440 345.229517
L401.353920 345.453143L401.353920 345.453143L401.666400 345.696526
L401.711040 337.676993L401.800320 336.045070L402.068160 345.758481
L402.336000 315.741312L402.380640 336.744668L402.693120 346.625614
L402.737760 345.004842L402.871680 345.758077L403.005600 345.565774
L403.362720 336.626104L403.452000 336.342874L403.630560 337.181725
L403.719840 345.175753L403.853760 335.976699L404.210880 345.217536
L404.434080 325.182447L404.568000 336.029207L404.880480 346.184271
L405.237600 326.440385L405.371520 345.554853L405.505440 345.502333
L405.684000 346.125761L405.862560 336.818177L405.996480 336.734980
L406.219680 344.977897L406.264320 336.686135L406.576800 345.692356
L406.576800 345.692356L406.844640 345.930601L406.889280 336.548667
L406.933920 345.671171L407.157120 337.177198L407.335680 336.098500
L407.380320 345.262683L407.558880 325.628732L407.737440 336.587754
L407.916000 345.081692L408.049920 336.211108L408.273120 345.553240
L408.407040 326.018742L408.540960 336.542193L408.898080 345.222985
L408.987360 345.791773L409.210560 344.869056L409.567680 325.527875
L409.612320 345.920026L409.656960 336.676182L410.014080 345.750958
L410.148000 334.099354L410.371200 337.517027L410.549760 345.783652
L410.594400 336.938964L410.817600 345.609435L410.862240 337.365458
L410.951520 336.022963L411.085440 326.388027L411.264000 333.811411
L411.397920 326.925734L411.621120 335.770134L411.933600 345.599539
L412.022880 345.388815L412.290720 345.489627L412.290720 345.489627
L412.603200 326.028292L412.647840 336.402732L412.960320 336.738701
L412.960320 336.738701L413.094240 345.795506L413.272800 345.409332
L413.362080 345.515754L413.629920 337.440983L413.942400 345.940646
L413.987040 325.275103L414.254880 336.279306L414.478080 345.328128
L414.790560 323.683096L414.835200 336.747871L415.013760 336.614423
L415.013760 336.614423L415.192320 344.841454L415.192320 344.841454
L415.415520 345.402213L415.460160 337.166220L415.861920 345.664236
L415.951200 333.855729L416.174400 336.494454L416.263680 326.412127
L416.352960 345.190810L416.620800 334.452718L416.665440 336.498290
L416.754720 345.737987L416.977920 344.912210L417.201120 345.304408
L417.290400 336.639260L417.602880 335.905321L417.647520 345.049217
L417.826080 345.112923L417.870720 336.850813L418.004640 345.812786
L418.183200 337.245581L418.406400 325.625000L418.451040 337.130508
L418.584960 345.005914L418.674240 337.161093L418.852800 325.416119
L418.897440 336.557618L419.031360 345.597892L419.165280 336.815090
L419.254560 337.972493L419.567040 345.508946L419.656320 325.369670
L419.790240 337.239821L420.013440 345.669742L420.192000 344.330081
L420.415200 345.020072L420.415200 345.020072L420.861600 335.204571
L421.174080 345.726225L421.308000 345.907549L421.486560 337.175804
L421.620480 336.748124L421.799040 345.201454L422.022240 345.689257
L422.066880 336.854995L422.290080 345.792914L422.379360 344.908673
L422.647200 336.648142L422.691840 345.238134L422.915040 336.488083
L423.093600 344.992182L423.182880 337.133157L423.495360 345.041902
L423.718560 334.680780L423.763200 337.329896L423.941760 326.148918
L424.031040 337.367532L424.432800 345.565786L424.522080 334.388909
L424.789920 336.952535L424.879200 337.980246L425.102400 334.581650
L425.191680 344.744997L425.325600 346.678353L425.548800 336.662531
L425.727360 345.682391L425.861280 336.883611L426.129120 345.011985
L426.441600 345.569207L426.530880 337.123619L426.709440 336.130618
L426.709440 336.130618L426.932640 345.511515L426.977280 336.819180
L427.111200 345.454606L427.200480 337.082769L427.423680 323.596489
L427.736160 346.001564L427.780800 336.160201L427.825440 337.177855
L427.914720 345.764264L428.093280 336.720764L428.182560 336.704072
L428.361120 344.871740L428.584320 345.384876L428.673600 336.873139
L428.762880 345.176340L429.030720 344.543881L429.343200 325.536572
L429.387840 345.587985L429.700320 345.115572L429.923520 345.724324
L430.057440 336.754702L430.414560 345.833245L430.682400 325.039242
L430.727040 345.395889L431.084160 313.929458L431.128800 345.278926
L431.396640 336.909462L431.530560 344.983404L431.664480 336.567836
L432.021600 345.931592L432.155520 345.964470L432.378720 337.129379
L432.557280 345.803293L432.735840 345.542884L432.959040 325.643904
L433.003680 337.094461L433.137600 336.575082L433.137600 336.575082
L433.405440 336.608271L433.405440 336.608271L433.494720 346.475912
L433.673280 336.650861L433.941120 345.547999L433.985760 335.999428
L434.119680 345.390520L434.298240 337.021494L434.566080 336.100228
L434.610720 345.238053L434.744640 325.871182L434.789280 344.981307
L435.191040 337.121349L435.503520 345.628293L435.682080 336.495076
L435.860640 345.264330L435.949920 336.594194L436.128480 325.265622
L436.173120 345.692828L436.485600 337.532256L436.708800 334.461185
L436.753440 337.556805L436.842720 336.026765L436.887360 345.157551
L437.199840 344.659392L437.512320 265.527821L437.556960 336.439676
L437.914080 345.436174L438.271200 325.367228L438.539040 345.277475
L438.762240 345.747721L438.806880 336.489719L438.985440 336.184554
L439.030080 345.516146L439.208640 345.731086L439.297920 337.664241
L439.476480 335.823483L439.610400 336.089364L439.878240 345.026108
L439.922880 336.947386L440.101440 336.681723L440.101440 336.681723
L440.235360 344.624164L440.413920 336.540614L440.637120 336.135180
L440.637120 336.135180L440.771040 337.359606L440.949600 337.013983
L441.083520 345.112900L441.485280 331.303542L441.529920 345.354601
L441.753120 345.075967L442.154880 326.722648L442.199520 336.514337
L442.422720 334.809251L442.512000 336.659305L442.779840 346.272895
L442.913760 345.480250L443.092320 326.451099L443.226240 336.498866
L443.583360 345.500548L443.761920 345.539566L443.851200 345.477254
L444.208320 334.821139L444.565440 345.722492L444.744000 336.588296
L444.877920 345.385740L445.235040 325.787985L445.279680 336.294639
L445.547520 345.207214L445.636800 344.269452L445.949280 327.124708
L445.993920 336.643119L446.127840 345.844397L446.217120 336.245541
L446.351040 344.761678L446.440320 336.340915L446.618880 326.316822
L446.663520 336.338484L446.976000 336.328704L447.020640 337.590570
L447.243840 344.864148L447.556320 335.773843L447.868800 345.066659
L448.136640 334.745130L448.181280 337.084773L448.315200 344.921414
L448.538400 311.793431L448.627680 337.059095L448.940160 345.616404
L449.252640 326.342868L449.386560 345.190568L449.520480 336.316401
L449.654400 345.637106L449.699040 336.773192L449.966880 325.703002
L450.011520 337.136291L450.324000 346.397633L450.591840 336.165604
L450.636480 346.095049L450.725760 344.805811L451.038240 345.145213
L451.082880 337.230374L451.261440 336.661436L451.261440 336.661436
L451.395360 345.390647L451.529280 336.705765L451.797120 345.392490
L451.841760 337.116269L452.109600 345.365326L452.154240 336.839881
L452.288160 345.673981L452.332800 302.465388L452.600640 336.624918
L452.779200 336.158438L452.913120 345.442107L453.136320 336.347389
L453.270240 336.613962L453.314880 345.722907L453.493440 345.265390
L453.716640 345.467393L453.761280 337.007935L453.895200 335.038257
L454.073760 336.100447L454.163040 337.161231L454.430880 335.772541
L454.430880 335.772541L454.520160 337.243818L454.743360 344.646075
L454.743360 344.646075L455.011200 344.975708L455.100480 336.744380
L455.279040 336.526929L455.412960 344.879608L455.770080 336.148186
L455.948640 335.958474L455.993280 337.427470L456.171840 345.305952
L456.350400 327.358333L456.662880 345.730372L457.020000 336.302807
L457.243200 345.502886L457.287840 336.868612L457.466400 345.461841
L457.778880 345.666079L457.778880 345.666079L458.046720 333.705059
L458.091360 336.705592L458.403840 345.508416L458.582400 345.126286
L458.850240 346.384570L458.894880 335.807539L459.252000 345.961682
L459.564480 335.853458L459.787680 326.275569L459.876960 333.327468
L459.966240 344.489161L460.010880 336.086853L460.278720 337.151301
L460.368000 345.314673L460.546560 335.947772L460.859040 345.030601
L461.216160 333.080352L461.573280 346.140150L461.617920 335.902130
L461.796480 336.632613L461.930400 345.133866L462.108960 345.436059
L462.242880 345.078259L462.510720 336.507955L462.644640 334.953919
L462.689280 336.055058L462.957120 335.534872L463.046400 345.134995
L463.269600 345.784769L463.314240 336.693462L463.492800 345.283580
L463.626720 337.043059L463.939200 336.988984L463.939200 336.988984
L464.385600 345.503739L464.564160 325.625668L464.742720 336.209161
L465.055200 346.253265L465.099840 345.074653L465.278400 345.879406
L465.412320 337.127270L465.635520 345.073190L465.724800 336.314177
L465.814080 345.510317L466.126560 345.960818L466.215840 336.362319
L466.528320 344.669806L466.840800 336.350811L466.974720 326.898973
L467.064000 336.500732L467.197920 345.542964L467.421120 325.995322
L467.555040 345.225324L467.778240 344.838079L468.180000 326.515749
L468.269280 335.322374L468.447840 345.522540L468.537120 336.923516
L468.760320 346.062240L468.804960 325.933759L469.072800 334.324500
L469.429920 346.567599L469.697760 346.819922L469.787040 336.934426
L469.965600 346.314378L470.010240 344.779753L470.322720 345.615022
L470.456640 334.903622L470.724480 344.702569L470.947680 322.059203
L470.992320 336.874280L471.215520 334.314236L471.260160 336.175350
L471.572640 345.059274L471.751200 336.540557L472.063680 335.984141
L472.108320 344.992020L472.420800 345.590519L472.420800 345.590519
L472.777920 335.683849L472.822560 336.919784L472.956480 325.166988
L473.179680 345.936511L473.224320 344.819405L473.581440 334.192343
L473.849280 346.149642L474.206400 323.379095L474.251040 338.898632
L474.474240 325.727412L474.518880 335.799660L474.652800 345.185096
L474.876000 345.083685L475.188480 325.740845L475.277760 334.925418
L475.724160 345.372134L475.992000 336.340696L476.170560 337.067919
L476.170560 337.067919L476.393760 345.138728L476.884800 325.882644
L477.241920 345.178103L477.599040 323.050971L477.643680 345.867483
L477.688320 336.323301L478.090080 325.065876L478.224000 345.637106
L478.402560 337.409176L478.670400 345.624676L478.804320 335.921115
L479.027520 336.830803L479.340000 344.942335L479.697120 325.855446
L480.054240 345.611405L480.143520 326.067494L480.411360 334.203529
L480.679200 345.459675L480.991680 345.584575L480.991680 345.584575
L481.125600 336.589240L481.393440 336.895442L481.572000 333.710508
L481.661280 336.881468L481.884480 344.817665L481.884480 344.817665
L482.196960 322.356522L482.286240 336.300411L482.375520 345.350465
L482.598720 344.984763L482.777280 345.273673L482.866560 336.352527
L483.134400 345.575900L483.179040 336.762570L483.446880 313.948731
L483.804000 345.195763L484.027200 345.579425L484.116480 336.585427
L484.295040 326.986007L484.428960 344.964614L484.607520 345.570693
L484.741440 337.092538L485.009280 344.855082L485.232480 326.519389
L485.321760 336.707309L485.500320 345.157482L485.678880 344.963981
L485.991360 335.608543L486.036000 336.961728L486.080640 335.678239
L486.125280 345.687460L486.348480 336.535430L486.482400 344.660763
L486.750240 344.633795L486.928800 336.226971L487.107360 337.077170
L487.285920 335.349953L487.419840 342.392913L487.643040 336.030739
L488.000160 345.734150L488.357280 335.864275L488.669760 335.104992
L488.669760 335.104992L488.982240 345.457071L489.339360 335.686798
L489.562560 325.151309L489.651840 336.728298L489.919680 337.015549
L489.919680 337.015549L490.008960 335.132375L490.098240 344.716116
L490.410720 324.997782L490.455360 326.360148L490.723200 325.599356
L490.767840 336.135283L490.946400 326.425882L491.080320 336.404517
L491.214240 344.173651L491.348160 336.147229L491.660640 345.664120
L492.062400 325.196237L492.330240 345.446104L492.419520 336.527251
L492.732000 345.501423L492.865920 324.285673L493.044480 344.861522
L493.401600 325.320641L493.535520 327.058917L493.714080 345.196212
L493.892640 336.773411L494.115840 345.211177L494.339040 324.819107
L494.383680 337.114783L494.651520 345.261185L494.696160 336.881399
L494.919360 345.185637L495.008640 336.432695L495.231840 346.091363
L495.321120 337.872833L495.410400 345.732722L495.499680 336.420518
L495.767520 336.399944L495.767520 336.399944L496.035360 322.537052
L496.347840 344.666200L496.481760 345.821092L496.704960 326.396356
L497.062080 346.673606L497.240640 335.817861L497.374560 345.030060
L497.731680 335.137018L497.776320 336.773295L498.133440 346.189271
L498.312000 336.491378L498.624480 345.806070L498.936960 333.771863
L499.026240 345.687564L499.160160 337.274427L499.294080 107.401743
L499.383360 336.612914L499.651200 336.394103L499.651200 336.394103
L499.919040 337.853111L500.008320 333.989211L500.320800 345.510052
L500.410080 345.350039L500.544000 345.597788L500.722560 344.158088
L500.945760 345.566822L500.990400 336.935244L501.258240 335.842180
L501.302880 345.354820L501.660000 328.664056L501.704640 335.470291
L501.927840 328.495092L502.017120 336.288522L502.240320 345.322356
L502.284960 336.949644L502.463520 345.710604L502.552800 336.753147
L502.686720 333.236218L502.820640 345.564795L502.954560 345.414920
L503.267040 325.040072L503.311680 336.223884L503.579520 345.717654
L503.668800 345.271922L503.936640 337.166254L504.159840 336.330743
L504.159840 336.330743L504.338400 337.550676L504.427680 336.843107
L504.606240 345.519510L504.829440 345.974964L504.874080 337.034292
L505.186560 345.003034L505.543680 326.354504L505.588320 336.175983
L505.677600 345.492795L505.856160 345.175177L506.168640 345.290354
L506.168640 345.290354L506.525760 327.204461L506.570400 336.840192
L506.704320 333.929215L506.748960 336.506584L507.016800 345.411337
L507.061440 334.982915L507.240000 322.901580L507.284640 337.329032
L507.418560 344.461260L507.463200 337.522614L507.731040 345.139315
L507.775680 336.452682L507.820320 345.323923L508.043520 344.893179
L508.311360 322.179771L508.356000 336.347355L508.713120 345.470815
L508.936320 334.014854L509.070240 336.848544L509.472000 346.124114
L509.605920 308.462665L509.829120 330.055788L510.230880 345.648211
L510.409440 345.784401L510.543360 336.932145L510.811200 345.207444
L510.945120 336.924956L511.168320 345.514314L511.257600 336.963180
L511.391520 345.322068L511.436160 337.082365L511.748640 336.696008
L511.837920 345.371270L511.882560 336.243617L512.150400 337.124091
L512.418240 345.798708L512.507520 336.338772L512.998560 337.603841
L513.087840 333.720553L513.132480 336.529175L513.221760 344.954661
L513.400320 336.823649L513.623520 337.213751L513.712800 331.859658
L514.025280 329.101978L514.025280 329.101978L514.337760 345.189324
L514.516320 314.917356L514.560960 336.791843L514.828800 334.438191
L514.873440 337.403359L515.052000 345.244700L515.230560 333.530461
L515.543040 345.853740L515.587680 336.345166L515.676960 344.971941
L515.810880 344.666984L516.168000 325.726260L516.435840 345.906559
L516.480480 336.447683L516.614400 345.405231L516.659040 336.854892
L516.837600 337.229176L516.971520 329.595909L517.194720 345.119858
L517.328640 345.106161L517.596480 345.995539L517.641120 337.427758
L517.864320 335.493458L517.998240 345.104340L518.132160 345.433052
L518.310720 338.195946L518.355360 345.545533L518.355360 345.545533"/>
</g>
<g id="matplotlib.axis1">
<g id="xtick1">
<g id="line2d2">
<path style="fill: none; stroke: #000000; stroke-width: 0.500000; stroke-linejoin: round; stroke-linecap: butt; stroke-dasharray: 1.000000,3.000000; stroke-dashoffset: 0.000000; opacity: 1.000000" clip-path="url(#p50431ccdcb28178602d99d9270004dde)" d="M72.000000 388.800000L72.000000 43.200000"/>
</g>
<g id="line2d3">
<defs><path id="m30e32995789d870ad79a2e54c91cf9c6" d="M0.000000 0.000000L0.000000 -4.000000"/></defs>
<g ><use style="fill: none; stroke: #000000; stroke-width: 0.500000; stroke-linejoin: round; stroke-linecap: butt;  opacity: 1.000000" xlink:href="#m30e32995789d870ad79a2e54c91cf9c6" x="72.000000" y="388.800000"/>
</g></g>
<g id="line2d4">
<defs><path id="m9281cae24120827b11d5ea8a7ad3e96b" d="M0.000000 0.000000L0.000000 4.000000"/></defs>
<g ><use style="fill: none; stroke: #000000; stroke-width: 0.500000; stroke-linejoin: round; stroke-linecap: butt;  opacity: 1.000000" xlink:href="#m9281cae24120827b11d5ea8a7ad3e96b" x="72.000000" y="43.200000"/>
</g></g>
<g id="text1">
<defs>
<path id="c_7a2040fe3b94fcd41d0a72c84e93b115" d="M31.781250 -66.406250q-7.609375 0.000000 -11.453125 7.500000q-3.828125 7.484375 -3.828125 22.531250q0.000000 14.984375 3.828125 22.484375q3.843750 7.500000 11.453125 7.500000q7.671875 0.000000 11.500000 -7.500000q3.843750 -7.500000 3.843750 -22.484375q0.000000 -15.046875 -3.843750 -22.531250q-3.828125 -7.500000 -11.500000 -7.500000M31.781250 -74.218750q12.265625 0.000000 18.734375 9.703125q6.468750 9.687500 6.468750 28.140625q0.000000 18.406250 -6.468750 28.109375q-6.468750 9.687500 -18.734375 9.687500q-12.250000 0.000000 -18.718750 -9.687500q-6.468750 -9.703125 -6.468750 -28.109375q0.000000 -18.453125 6.468750 -28.140625q6.468750 -9.703125 18.718750 -9.703125"/>
</defs>
<g style="fill: #000000; opacity: 1.000000" transform="translate(68.976562,401.706250)scale(0.120000)">
<use xlink:href="#c_7a2040fe3b94fcd41d0a72c84e93b115"/>
</g>
</g>
</g>
<g id="xtick2">
<g id="line2d5">
<path style="fill: none; stroke: #000000; stroke-width: 0.500000; stroke-linejoin: round; stroke-linecap: butt; stroke-dasharray: 1.000000,3.000000; stroke-dashoffset: 0.000000; opacity: 1.000000" clip-path="url(#p50431ccdcb28178602d99d9270004dde)" d="M161.280000 388.800000L161.280000 43.200000"/>
</g>
<g id="line2d6">
<g ><use style="fill: none; stroke: #000000; stroke-width: 0.500000; stroke-linejoin: round; stroke-linecap: butt;  opacity: 1.000000" xlink:href="#m30e32995789d870ad79a2e54c91cf9c6" x="161.280000" y="388.800000"/>
</g></g>
<g id="line2d7">
<g ><use style="fill: none; stroke: #000000; stroke-width: 0.500000; stroke-linejoin: round; stroke-linecap: butt;  opacity: 1.000000" xlink:href="#m9281cae24120827b11d5ea8a7ad3e96b" x="161.280000" y="43.200000"/>
</g></g>
<g id="text2">
<defs>
<path id="c_ed3f3ed3ebfbd18bcb9c012009a68ad1" d="M19.187500 -8.296875l34.421875 0.000000l0.000000 8.296875l-46.281250 0.000000l0.000000 -8.296875q5.609375 -5.812500 15.296875 -15.593750q9.703125 -9.796875 12.187500 -12.640625q4.734375 -5.312500 6.609375 -9.000000q1.890625 -3.687500 1.890625 -7.250000q0.000000 -5.812500 -4.078125 -9.468750q-4.078125 -3.671875 -10.625000 -3.671875q-4.640625 0.000000 -9.796875 1.609375q-5.140625 1.609375 -11.000000 4.890625l0.000000 -9.968750q5.953125 -2.390625 11.125000 -3.609375q5.187500 -1.218750 9.484375 -1.218750q11.328125 0.000000 18.062500 5.671875q6.734375 5.656250 6.734375 15.125000q0.000000 4.500000 -1.687500 8.531250q-1.671875 4.015625 -6.125000 9.484375q-1.218750 1.421875 -7.765625 8.187500q-6.531250 6.765625 -18.453125 18.921875"/>
</defs>
<g style="fill: #000000; opacity: 1.000000" transform="translate(146.834688,401.706250)scale(0.120000)">
<use xlink:href="#c_ed3f3ed3ebfbd18bcb9c012009a68ad1"/>
<use xlink:href="#c_7a2040fe3b94fcd41d0a72c84e93b115" x="63.623047"/>
<use xlink:href="#c_7a2040fe3b94fcd41d0a72c84e93b115" x="127.246094"/>
<use xlink:href="#c_7a2040fe3b94fcd41d0a72c84e93b115" x="190.869141"/>
</g>
</g>
</g>
<g id="xtick3">
<g id="line2d8">
<path style="fill: none; stroke: #000000; stroke-width: 0.500000; stroke-linejoin: round; stroke-linecap: butt; stroke-dasharray: 1.000000,3.000000; stroke-dashoffset: 0.000000; opacity: 1.000000" clip-path="url(#p50431ccdcb28178602d99d9270004dde)" d="M250.560000 388.800000L250.560000 43.200000"/>
</g>
<g id="line2d9">
<g ><use style="fill: none; stroke: #000000; stroke-width: 0.500000; stroke-linejoin: round; stroke-linecap: butt;  opacity: 1.000000" xlink:href="#m30e32995789d870ad79a2e54c91cf9c6" x="250.560000" y="388.800000"/>
</g></g>
<g id="line2d10">
<g ><use style="fill: none; stroke: #000000; stroke-width: 0.500000; stroke-linejoin: round; stroke-linecap: butt;  opacity: 1.000000" xlink:href="#m9281cae24120827b11d5ea8a7ad3e96b" x="250.560000" y="43.200000"/>
</g></g>
<g id="text3">
<defs>
<path id="c_a0416418d96557a09b8c1332d34883ba" d="M37.796875 -64.312500l-24.906250 38.921875l24.906250 0.000000zM35.203125 -72.906250l12.406250 0.000000l0.000000 47.515625l10.406250 0.000000l0.000000 8.203125l-10.406250 0.000000l0.000000 17.187500l-9.812500 0.000000l0.000000 -17.187500l-32.906250 0.000000l0.000000 -9.515625z"/>
</defs>
<g style="fill: #000000; opacity: 1.000000" transform="translate(235.974063,401.706250)scale(0.120000)">
<use xlink:href="#c_a0416418d96557a09b8c1332d34883ba"/>
<use xlink:href="#c_7a2040fe3b94fcd41d0a72c84e93b115" x="63.623047"/>
<use xlink:href="#c_7a2040fe3b94fcd41d0a72c84e93b115" x="127.246094"/>
<use xlink:href="#c_7a2040fe3b94fcd41d0a72c84e93b115" x="190.869141"/>
</g>
</g>
</g>
<g id="xtick4">
<g id="line2d11">
<path style="fill: none; stroke: #000000; stroke-width: 0.500000; stroke-linejoin: round; stroke-linecap: butt; stroke-dasharray: 1.000000,3.000000; stroke-dashoffset: 0.000000; opacity: 1.000000" clip-path="url(#p50431ccdcb28178602d99d9270004dde)" d="M339.840000 388.800000L339.840000 43.200000"/>
</g>
<g id="line2d12">
<g ><use style="fill: none; stroke: #000000; stroke-width: 0.500000; stroke-linejoin: round; stroke-linecap: butt;  opacity: 1.000000" xlink:href="#m30e32995789d870ad79a2e54c91cf9c6" x="339.840000" y="388.800000"/>
</g></g>
<g id="line2d13">
<g ><use style="fill: none; stroke: #000000; stroke-width: 0.500000; stroke-linejoin: round; stroke-linecap: butt;  opacity: 1.000000" xlink:href="#m9281cae24120827b11d5ea8a7ad3e96b" x="339.840000" y="43.200000"/>
</g></g>
<g id="text4">
<defs>
<path id="c_cc8d6d580d1b10c8632f7a42cd53db8a" d="M33.015625 -40.375000q-6.640625 0.000000 -10.531250 4.546875q-3.875000 4.531250 -3.875000 12.437500q0.000000 7.859375 3.875000 12.437500q3.890625 4.562500 10.531250 4.562500q6.640625 0.000000 10.515625 -4.562500q3.875000 -4.578125 3.875000 -12.437500q0.000000 -7.906250 -3.875000 -12.437500q-3.875000 -4.546875 -10.515625 -4.546875M52.593750 -71.296875l0.000000 8.984375q-3.718750 -1.750000 -7.500000 -2.671875q-3.781250 -0.937500 -7.500000 -0.937500q-9.765625 0.000000 -14.921875 6.593750q-5.140625 6.593750 -5.875000 19.921875q2.875000 -4.250000 7.218750 -6.515625q4.359375 -2.265625 9.578125 -2.265625q10.984375 0.000000 17.359375 6.671875q6.375000 6.656250 6.375000 18.125000q0.000000 11.234375 -6.640625 18.031250q-6.640625 6.781250 -17.671875 6.781250q-12.656250 0.000000 -19.343750 -9.687500q-6.687500 -9.703125 -6.687500 -28.109375q0.000000 -17.281250 8.203125 -27.562500q8.203125 -10.281250 22.015625 -10.281250q3.718750 0.000000 7.500000 0.734375q3.781250 0.734375 7.890625 2.187500"/>
</defs>
<g style="fill: #000000; opacity: 1.000000" transform="translate(325.379062,401.706250)scale(0.120000)">
<use xlink:href="#c_cc8d6d580d1b10c8632f7a42cd53db8a"/>
<use xlink:href="#c_7a2040fe3b94fcd41d0a72c84e93b115" x="63.623047"/>
<use xlink:href="#c_7a2040fe3b94fcd41d0a72c84e93b115" x="127.246094"/>
<use xlink:href="#c_7a2040fe3b94fcd41d0a72c84e93b115" x="190.869141"/>
</g>
</g>
</g>
<g id="xtick5">
<g id="line2d14">
<path style="fill: none; stroke: #000000; stroke-width: 0.500000; stroke-linejoin: round; stroke-linecap: butt; stroke-dasharray: 1.000000,3.000000; stroke-dashoffset: 0.000000; opacity: 1.000000" clip-path="url(#p50431ccdcb28178602d99d9270004dde)" d="M429.120000 388.800000L429.120000 43.200000"/>
</g>
<g id="line2d15">
<g ><use style="fill: none; stroke: #000000; stroke-width: 0.500000; stroke-linejoin: round; stroke-linecap: butt;  opacity: 1.000000" xlink:href="#m30e32995789d870ad79a2e54c91cf9c6" x="429.120000" y="388.800000"/>
</g></g>
<g id="line2d16">
<g ><use style="fill: none; stroke: #000000; stroke-width: 0.500000; stroke-linejoin: round; stroke-linecap: butt;  opacity: 1.000000" xlink:href="#m9281cae24120827b11d5ea8a7ad3e96b" x="429.120000" y="43.200000"/>
</g></g>
<g id="text5">
<defs>
<path id="c_bef35738d52871942e50b9de9b122bab" d="M31.781250 -34.625000q-7.031250 0.000000 -11.062500 3.765625q-4.015625 3.765625 -4.015625 10.343750q0.000000 6.593750 4.015625 10.359375q4.031250 3.765625 11.062500 3.765625q7.031250 0.000000 11.078125 -3.781250q4.062500 -3.796875 4.062500 -10.343750q0.000000 -6.578125 -4.031250 -10.343750q-4.015625 -3.765625 -11.109375 -3.765625M21.921875 -38.812500q-6.343750 -1.562500 -9.890625 -5.906250q-3.531250 -4.359375 -3.531250 -10.609375q0.000000 -8.734375 6.218750 -13.812500q6.234375 -5.078125 17.062500 -5.078125q10.890625 0.000000 17.093750 5.078125q6.203125 5.078125 6.203125 13.812500q0.000000 6.250000 -3.546875 10.609375q-3.531250 4.343750 -9.828125 5.906250q7.125000 1.656250 11.093750 6.500000q3.984375 4.828125 3.984375 11.796875q0.000000 10.609375 -6.468750 16.281250q-6.468750 5.656250 -18.531250 5.656250q-12.046875 0.000000 -18.531250 -5.656250q-6.468750 -5.671875 -6.468750 -16.281250q0.000000 -6.968750 4.000000 -11.796875q4.015625 -4.843750 11.140625 -6.500000M18.312500 -54.390625q0.000000 5.656250 3.531250 8.828125q3.546875 3.171875 9.937500 3.171875q6.359375 0.000000 9.937500 -3.171875q3.593750 -3.171875 3.593750 -8.828125q0.000000 -5.671875 -3.593750 -8.843750q-3.578125 -3.171875 -9.937500 -3.171875q-6.390625 0.000000 -9.937500 3.171875q-3.531250 3.171875 -3.531250 8.843750"/>
</defs>
<g style="fill: #000000; opacity: 1.000000" transform="translate(414.643438,401.706250)scale(0.120000)">
<use xlink:href="#c_bef35738d52871942e50b9de9b122bab"/>
<use xlink:href="#c_7a2040fe3b94fcd41d0a72c84e93b115" x="63.623047"/>
<use xlink:href="#c_7a2040fe3b94fcd41d0a72c84e93b115" x="127.246094"/>
<use xlink:href="#c_7a2040fe3b94fcd41d0a72c84e93b115" x="190.869141"/>
</g>
</g>
</g>
<g id="xtick6">
<g id="line2d17">
<path style="fill: none; stroke: #000000; stroke-width: 0.500000; stroke-linejoin: round; stroke-linecap: butt; stroke-dasharray: 1.000000,3.000000; stroke-dashoffset: 0.000000; opacity: 1.000000" clip-path="url(#p50431ccdcb28178602d99d9270004dde)" d="M518.400000 388.800000L518.400000 43.200000"/>
</g>
<g id="line2d18">
<g ><use style="fill: none; stroke: #000000; stroke-width: 0.500000; stroke-linejoin: round; stroke-linecap: butt;  opacity: 1.000000" xlink:href="#m30e32995789d870ad79a2e54c91cf9c6" x="518.400000" y="388.800000"/>
</g></g>
<g id="line2d19">
<g ><use style="fill: none; stroke: #000000; stroke-width: 0.500000; stroke-linejoin: round; stroke-linecap: butt;  opacity: 1.000000" xlink:href="#m9281cae24120827b11d5ea8a7ad3e96b" x="518.400000" y="43.200000"/>
</g></g>
<g id="text6">
<defs>
<path id="c_42baa63129a918535c52adb20d687ea7" d="M12.406250 -8.296875l16.109375 0.000000l0.000000 -55.625000l-17.531250 3.515625l0.000000 -8.984375l17.437500 -3.515625l9.859375 0.000000l0.000000 64.609375l16.109375 0.000000l0.000000 8.296875l-41.984375 0.000000z"/>
</defs>
<g style="fill: #000000; opacity: 1.000000" transform="translate(500.353125,401.706250)scale(0.120000)">
<use xlink:href="#c_42baa63129a918535c52adb20d687ea7"/>
<use xlink:href="#c_7a2040fe3b94fcd41d0a72c84e93b115" x="63.623047"/>
<use xlink:href="#c_7a2040fe3b94fcd41d0a72c84e93b115" x="127.246094"/>
<use xlink:href="#c_7a2040fe3b94fcd41d0a72c84e93b115" x="190.869141"/>
<use xlink:href="#c_7a2040fe3b94fcd41d0a72c84e93b115" x="254.492188"/>
</g>
</g>
</g>
</g>
<g id="matplotlib.axis2">
<g id="ytick1">
<g id="line2d20">
<path style="fill: none; stroke: #000000; stroke-width: 0.500000; stroke-linejoin: round; stroke-linecap: butt; stroke-dasharray: 1.000000,3.000000; stroke-dashoffset: 0.000000; opacity: 1.000000" clip-path="url(#p50431ccdcb28178602d99d9270004dde)" d="M72.000000 388.800000L518.400000 388.800000"/>
</g>
<g id="line2d21">
<defs><path id="m3400efa6b1638b3fea9e19e898273957" d="M0.000000 0.000000L4.000000 0.000000"/></defs>
<g ><use style="fill: none; stroke: #000000; stroke-width: 0.500000; stroke-linejoin: round; stroke-linecap: butt;  opacity: 1.000000" xlink:href="#m3400efa6b1638b3fea9e19e898273957" x="72.000000" y="388.800000"/>
</g></g>
<g id="line2d22">
<defs><path id="m20b58b2501143cb5e0a5e8f1ef6f1643" d="M0.000000 0.000000L-4.000000 0.000000"/></defs>
<g ><use style="fill: none; stroke: #000000; stroke-width: 0.500000; stroke-linejoin: round; stroke-linecap: butt;  opacity: 1.000000" xlink:href="#m20b58b2501143cb5e0a5e8f1ef6f1643" x="518.400000" y="388.800000"/>
</g></g>
<g id="text7">
<defs>
<path id="c_ed3e21196fb739f392806f09ca0594ef" d="M10.687500 -12.406250l10.312500 0.000000l0.000000 12.406250l-10.312500 0.000000z"/>
</defs>
<g style="fill: #000000; opacity: 1.000000" transform="translate(35.218750,393.167188)scale(0.120000)">
<use xlink:href="#c_7a2040fe3b94fcd41d0a72c84e93b115"/>
<use xlink:href="#c_ed3e21196fb739f392806f09ca0594ef" x="63.623047"/>
<use xlink:href="#c_7a2040fe3b94fcd41d0a72c84e93b115" x="95.410156"/>
<use xlink:href="#c_7a2040fe3b94fcd41d0a72c84e93b115" x="159.033203"/>
<use xlink:href="#c_7a2040fe3b94fcd41d0a72c84e93b115" x="222.656250"/>
</g>
</g>
</g>
<g id="ytick2">
<g id="line2d23">
<path style="fill: none; stroke: #000000; stroke-width: 0.500000; stroke-linejoin: round; stroke-linecap: butt; stroke-dasharray: 1.000000,3.000000; stroke-dashoffset: 0.000000; opacity: 1.000000" clip-path="url(#p50431ccdcb28178602d99d9270004dde)" d="M72.000000 331.200000L518.400000 331.200000"/>
</g>
<g id="line2d24">
<g ><use style="fill: none; stroke: #000000; stroke-width: 0.500000; stroke-linejoin: round; stroke-linecap: butt;  opacity: 1.000000" xlink:href="#m3400efa6b1638b3fea9e19e898273957" x="72.000000" y="331.200000"/>
</g></g>
<g id="line2d25">
<g ><use style="fill: none; stroke: #000000; stroke-width: 0.500000; stroke-linejoin: round; stroke-linecap: butt;  opacity: 1.000000" xlink:href="#m20b58b2501143cb5e0a5e8f1ef6f1643" x="518.400000" y="331.200000"/>
</g></g>
<g id="text8">
<defs>
<path id="c_1260a2df50f305f3db244e29828f968e" d="M10.796875 -72.906250l38.718750 0.000000l0.000000 8.312500l-29.687500 0.000000l0.000000 17.859375q2.140625 -0.734375 4.281250 -1.093750q2.156250 -0.359375 4.312500 -0.359375q12.203125 0.000000 19.328125 6.687500q7.140625 6.687500 7.140625 18.109375q0.000000 11.765625 -7.328125 18.296875q-7.328125 6.515625 -20.656250 6.515625q-4.593750 0.000000 -9.359375 -0.781250q-4.750000 -0.781250 -9.828125 -2.343750l0.000000 -9.921875q4.390625 2.390625 9.078125 3.562500q4.687500 1.171875 9.906250 1.171875q8.453125 0.000000 13.375000 -4.437500q4.937500 -4.437500 4.937500 -12.062500q0.000000 -7.609375 -4.937500 -12.046875q-4.921875 -4.453125 -13.375000 -4.453125q-3.953125 0.000000 -7.890625 0.875000q-3.921875 0.875000 -8.015625 2.734375z"/>
</defs>
<g style="fill: #000000; opacity: 1.000000" transform="translate(35.468750,335.567187)scale(0.120000)">
<use xlink:href="#c_7a2040fe3b94fcd41d0a72c84e93b115"/>
<use xlink:href="#c_ed3e21196fb739f392806f09ca0594ef" x="63.623047"/>
<use xlink:href="#c_7a2040fe3b94fcd41d0a72c84e93b115" x="95.410156"/>
<use xlink:href="#c_7a2040fe3b94fcd41d0a72c84e93b115" x="159.033203"/>
<use xlink:href="#c_1260a2df50f305f3db244e29828f968e" x="222.656250"/>
</g>
</g>
</g>
<g id="ytick3">
<g id="line2d26">
<path style="fill: none; stroke: #000000; stroke-width: 0.500000; stroke-linejoin: round; stroke-linecap: butt; stroke-dasharray: 1.000000,3.000000; stroke-dashoffset: 0.000000; opacity: 1.000000" clip-path="url(#p50431ccdcb28178602d99d9270004dde)" d="M72.000000 273.600000L518.400000 273.600000"/>
</g>
<g id="line2d27">
<g ><use style="fill: none; stroke: #000000; stroke-width: 0.500000; stroke-linejoin: round; stroke-linecap: butt;  opacity: 1.000000" xlink:href="#m3400efa6b1638b3fea9e19e898273957" x="72.000000" y="273.600000"/>
</g></g>
<g id="line2d28">
<g ><use style="fill: none; stroke: #000000; stroke-width: 0.500000; stroke-linejoin: round; stroke-linecap: butt;  opacity: 1.000000" xlink:href="#m20b58b2501143cb5e0a5e8f1ef6f1643" x="518.400000" y="273.600000"/>
</g></g>
<g id="text9">
<g style="fill: #000000; opacity: 1.000000" transform="translate(35.218750,277.967188)scale(0.120000)">
<use xlink:href="#c_7a2040fe3b94fcd41d0a72c84e93b115"/>
<use xlink:href="#c_ed3e21196fb739f392806f09ca0594ef" x="63.623047"/>
<use xlink:href="#c_7a2040fe3b94fcd41d0a72c84e93b115" x="95.410156"/>
<use xlink:href="#c_42baa63129a918535c52adb20d687ea7" x="159.033203"/>
<use xlink:href="#c_7a2040fe3b94fcd41d0a72c84e93b115" x="222.656250"/>
</g>
</g>
</g>
<g id="ytick4">
<g id="line2d29">
<path style="fill: none; stroke: #000000; stroke-width: 0.500000; stroke-linejoin: round; stroke-linecap: butt; stroke-dasharray: 1.000000,3.000000; stroke-dashoffset: 0.000000; opacity: 1.000000" clip-path="url(#p50431ccdcb28178602d99d9270004dde)" d="M72.000000 216.000000L518.400000 216.000000"/>
</g>
<g id="line2d30">
<g ><use style="fill: none; stroke: #000000; stroke-width: 0.500000; stroke-linejoin: round; stroke-linecap: butt;  opacity: 1.000000" xlink:href="#m3400efa6b1638b3fea9e19e898273957" x="72.000000" y="216.000000"/>
</g></g>
<g id="line2d31">
<g ><use style="fill: none; stroke: #000000; stroke-width: 0.500000; stroke-linejoin: round; stroke-linecap: butt;  opacity: 1.000000" xlink:href="#m20b58b2501143cb5e0a5e8f1ef6f1643" x="518.400000" y="216.000000"/>
</g></g>
<g id="text10">
<g style="fill: #000000; opacity: 1.000000" transform="translate(35.468750,220.367188)scale(0.120000)">
<use xlink:href="#c_7a2040fe3b94fcd41d0a72c84e93b115"/>
<use xlink:href="#c_ed3e21196fb739f392806f09ca0594ef" x="63.623047"/>
<use xlink:href="#c_7a2040fe3b94fcd41d0a72c84e93b115" x="95.410156"/>
<use xlink:href="#c_42baa63129a918535c52adb20d687ea7" x="159.033203"/>
<use xlink:href="#c_1260a2df50f305f3db244e29828f968e" x="222.656250"/>
</g>
</g>
</g>
<g id="ytick5">
<g id="line2d32">
<path style="fill: none; stroke: #000000; stroke-width: 0.500000; stroke-linejoin: round; stroke-linecap: butt; stroke-dasharray: 1.000000,3.000000; stroke-dashoffset: 0.000000; opacity: 1.000000" clip-path="url(#p50431ccdcb28178602d99d9270004dde)" d="M72.000000 158.400000L518.400000 158.400000"/>
</g>
<g id="line2d33">
<g ><use style="fill: none; stroke: #000000; stroke-width: 0.500000; stroke-linejoin: round; stroke-linecap: butt;  opacity: 1.000000" xlink:href="#m3400efa6b1638b3fea9e19e898273957" x="72.000000" y="158.400000"/>
</g></g>
<g id="line2d34">
<g ><use style="fill: none; stroke: #000000; stroke-width: 0.500000; stroke-linejoin: round; stroke-linecap: butt;  opacity: 1.000000" xlink:href="#m20b58b2501143cb5e0a5e8f1ef6f1643" x="518.400000" y="158.400000"/>
</g></g>
<g id="text11">
<g style="fill: #000000; opacity: 1.000000" transform="translate(35.218750,162.767187)scale(0.120000)">
<use xlink:href="#c_7a2040fe3b94fcd41d0a72c84e93b115"/>
<use xlink:href="#c_ed3e21196fb739f392806f09ca0594ef" x="63.623047"/>
<use xlink:href="#c_7a2040fe3b94fcd41d0a72c84e93b115" x="95.410156"/>
<use xlink:href="#c_ed3f3ed3ebfbd18bcb9c012009a68ad1" x="159.033203"/>
<use xlink:href="#c_7a2040fe3b94fcd41d0a72c84e93b115" x="222.656250"/>
</g>
</g>
</g>
<g id="ytick6">
<g id="line2d35">
<path style="fill: none; stroke: #000000; stroke-width: 0.500000; stroke-linejoin: round; stroke-linecap: butt; stroke-dasharray: 1.000000,3.000000; stroke-dashoffset: 0.000000; opacity: 1.000000" clip-path="url(#p50431ccdcb28178602d99d9270004dde)" d="M72.000000 100.800000L518.400000 100.800000"/>
</g>
<g id="line2d36">
<g ><use style="fill: none; stroke: #000000; stroke-width: 0.500000; stroke-linejoin: round; stroke-linecap: butt;  opacity: 1.000000" xlink:href="#m3400efa6b1638b3fea9e19e898273957" x="72.000000" y="100.800000"/>
</g></g>
<g id="line2d37">
<g ><use style="fill: none; stroke: #000000; stroke-width: 0.500000; stroke-linejoin: round; stroke-linecap: butt;  opacity: 1.000000" xlink:href="#m20b58b2501143cb5e0a5e8f1ef6f1643" x="518.400000" y="100.800000"/>
</g></g>
<g id="text12">
<g style="fill: #000000; opacity: 1.000000" transform="translate(35.468750,105.167187)scale(0.120000)">
<use xlink:href="#c_7a2040fe3b94fcd41d0a72c84e93b115"/>
<use xlink:href="#c_ed3e21196fb739f392806f09ca0594ef" x="63.623047"/>
<use xlink:href="#c_7a2040fe3b94fcd41d0a72c84e93b115" x="95.410156"/>
<use xlink:href="#c_ed3f3ed3ebfbd18bcb9c012009a68ad1" x="159.033203"/>
<use xlink:href="#c_1260a2df50f305f3db244e29828f968e" x="222.656250"/>
</g>
</g>
</g>
<g id="ytick7">
<g id="line2d38">
<path style="fill: none; stroke: #000000; stroke-width: 0.500000; stroke-linejoin: round; stroke-linecap: butt; stroke-dasharray: 1.000000,3.000000; stroke-dashoffset: 0.000000; opacity: 1.000000" clip-path="url(#p50431ccdcb28178602d99d9270004dde)" d="M72.000000 43.200000L518.400000 43.200000"/>
</g>
<g id="line2d39">
<g ><use style="fill: none; stroke: #000000; stroke-width: 0.500000; stroke-linejoin: round; stroke-linecap: butt;  opacity: 1.000000" xlink:href="#m3400efa6b1638b3fea9e19e898273957" x="72.000000" y="43.200000"/>
</g></g>
<g id="line2d40">
<g ><use style="fill: none; stroke: #000000; stroke-width: 0.500000; stroke-linejoin: round; stroke-linecap: butt;  opacity: 1.000000" xlink:href="#m20b58b2501143cb5e0a5e8f1ef6f1643" x="518.400000" y="43.200000"/>
</g></g>
<g id="text13">
<defs>
<path id="c_3dcfa38a02242cb63ec6726c6e70be7a" d="M40.578125 -39.312500q7.078125 1.515625 11.046875 6.312500q3.984375 4.781250 3.984375 11.812500q0.000000 10.781250 -7.421875 16.703125q-7.421875 5.906250 -21.093750 5.906250q-4.578125 0.000000 -9.437500 -0.906250q-4.859375 -0.906250 -10.031250 -2.718750l0.000000 -9.515625q4.093750 2.390625 8.968750 3.609375q4.890625 1.218750 10.218750 1.218750q9.265625 0.000000 14.125000 -3.656250q4.859375 -3.656250 4.859375 -10.640625q0.000000 -6.453125 -4.515625 -10.078125q-4.515625 -3.640625 -12.562500 -3.640625l-8.500000 0.000000l0.000000 -8.109375l8.890625 0.000000q7.265625 0.000000 11.125000 -2.906250q3.859375 -2.906250 3.859375 -8.375000q0.000000 -5.609375 -3.984375 -8.609375q-3.968750 -3.015625 -11.390625 -3.015625q-4.062500 0.000000 -8.703125 0.890625q-4.640625 0.875000 -10.203125 2.718750l0.000000 -8.781250q5.625000 -1.562500 10.531250 -2.343750q4.906250 -0.781250 9.250000 -0.781250q11.234375 0.000000 17.765625 5.109375q6.546875 5.093750 6.546875 13.781250q0.000000 6.062500 -3.468750 10.234375q-3.468750 4.171875 -9.859375 5.781250"/>
</defs>
<g style="fill: #000000; opacity: 1.000000" transform="translate(35.218750,47.567187)scale(0.120000)">
<use xlink:href="#c_7a2040fe3b94fcd41d0a72c84e93b115"/>
<use xlink:href="#c_ed3e21196fb739f392806f09ca0594ef" x="63.623047"/>
<use xlink:href="#c_7a2040fe3b94fcd41d0a72c84e93b115" x="95.410156"/>
<use xlink:href="#c_3dcfa38a02242cb63ec6726c6e70be7a" x="159.033203"/>
<use xlink:href="#c_7a2040fe3b94fcd41d0a72c84e93b115" x="222.656250"/>
</g>
</g>
</g>
</g>
<g id="patch3">
<path style="fill: none; stroke: #000000; stroke-width: 1.000000; stroke-linejoin: round; stroke-linecap: square;  opacity: 1.000000"  d="M72.000000 43.200000L518.400000 43.200000"/>
</g>
<g id="patch4">
<path style="fill: none; stroke: #000000; stroke-width: 1.000000; stroke-linejoin: round; stroke-linecap: square;  opacity: 1.000000"  d="M518.400000 388.800000L518.400000 43.200000"/>
</g>
<g id="patch5">
<path style="fill: none; stroke: #000000; stroke-width: 1.000000; stroke-linejoin: round; stroke-linecap: square;  opacity: 1.000000"  d="M72.000000 388.800000L518.400000 388.800000"/>
</g>
<g id="patch6">
<path style="fill: none; stroke: #000000; stroke-width: 1.000000; stroke-linejoin: round; stroke-linecap: square;  opacity: 1.000000"  d="M72.000000 388.800000L72.000000 43.200000"/>
</g>
</g>
</g>
</svg>
