<?xml version="1.0" standalone="no"?>
<!DOCTYPE svg PUBLIC "-//W3C//DTD SVG 1.1//EN"
  "http://www.w3.org/Graphics/SVG/1.1/DTD/svg11.dtd">
<!-- Created with matplotlib (http://matplotlib.sourceforge.net/) -->
<svg width="576pt" height="432pt" viewBox="0 0 576 432"
   xmlns="http://www.w3.org/2000/svg"
   xmlns:xlink="http://www.w3.org/1999/xlink"
   version="1.1"
   id="svg1">
<g id="figure1">
<g id="patch1">
<path style="fill: #ffffff; stroke: #ffffff; stroke-width: 1.000000; stroke-linejoin: round; stroke-linecap: square;  opacity: 1.000000"  d="M0.000000 432.000000L576.000000 432.000000L576.000000 0.000000
L0.000000 0.000000L0.000000 432.000000"/>
</g>
<g id="axes1">
<g id="patch2">
<path style="fill: #ffffff; opacity: 1.000000"  d="M72.000000 388.800000L518.400000 388.800000L518.400000 43.200000
L72.000000 43.200000L72.000000 388.800000"/>
</g>
<g id="line2d1">
<defs>
  <clipPath id="p50431ccdcb28178602d99d9270004dde">
<rect x="72.000000" y="43.200000" width="446.400000" height="345.600000"/>
  </clipPath>
</defs><path style="fill: none; stroke: #ff0000; stroke-width: 1.000000; stroke-linejoin: round; stroke-linecap: square;  opacity: 1.000000" clip-path="url(#p50431ccdcb28178602d99d9270004dde)" d="M72.000000 117.540930L72.312480 191.210943L72.357120 202.564856
L72.491040 198.429031L72.669600 221.239224L72.892800 236.597266
L72.892800 236.597266L73.071360 191.506771L73.116000 205.462245
L73.249920 199.670376L73.294560 202.808225L73.607040 222.488581
L73.785600 198.685303L73.964160 202.298966L74.232000 196.152114
L74.276640 203.357968L74.410560 223.039820L74.589120 198.995690
L74.723040 197.629871L74.901600 198.618462L74.990880 216.031604
L75.214080 199.272895L75.392640 201.603851L75.615840 193.538574
L75.660480 200.007088L75.749760 197.671244L75.883680 194.787423
L76.062240 199.987154L76.106880 198.398447L76.240800 181.579204
L76.419360 192.921269L76.731840 233.189808L76.821120 191.287291
L77.044320 197.671049L77.267520 193.874645L77.356800 199.340366
L77.669280 180.211706L77.713920 185.094110L78.071040 224.088319
L78.383520 180.398037L78.428160 186.528947L78.472800 187.742853
L78.740640 184.791800L78.785280 260.023124L78.963840 177.934567
L79.097760 187.527466L79.187040 186.175067L79.544160 265.874096
L79.722720 178.352965L79.767360 180.393773L79.945920 175.989761
L80.079840 179.354631L80.124480 182.225420L80.169120 180.443797
L80.303040 177.282503L80.481600 179.370588L80.570880 181.104028
L80.570880 181.104028L80.794080 172.591048L80.838720 179.629210
L80.928000 172.543346L81.151200 171.782935L81.240480 172.448872
L81.686880 158.619439L81.820800 244.820810L81.999360 168.451327
L82.222560 155.091684L82.401120 155.582773L82.490400 178.258823
L82.535040 279.808752L82.802880 209.328846L83.070720 202.559524
L83.204640 383.074099L83.383200 203.361893L83.651040 209.647327
L83.695680 203.585226L83.874240 205.799427L84.008160 198.366225
L84.052800 202.721374L84.365280 198.958346L84.365280 198.958346
L84.543840 204.568375L84.588480 193.413649L84.811680 192.429719
L84.856320 201.524150L84.945600 202.707854L85.258080 198.731421
L85.258080 198.731421L85.302720 199.893522L85.525920 192.954477
L85.615200 229.698898L85.793760 241.821160L85.972320 196.075243
L86.195520 278.666404L86.284800 197.642282L86.329440 199.373488
L86.641920 181.132136L86.686560 275.974605L86.731200 190.009855
L86.999040 198.406530L87.311520 382.430180L87.356160 286.000288
L87.624000 191.420115L87.713280 214.781969L88.025760 219.695118
L88.070400 194.976524L88.115040 193.763842L88.427520 175.255339
L88.427520 175.255339L88.606080 267.639666L88.829280 210.332249
L89.052480 248.342742L89.141760 186.374817L89.275680 268.671484
L89.543520 260.768369L89.900640 181.771700L90.168480 172.343769
L90.213120 181.563200L90.302400 183.689652L90.570240 173.967133
L90.614880 181.537788L90.659520 177.831787L90.704160 261.281708
L90.972000 215.116675L91.195200 152.538495L91.329120 172.650054
L91.507680 171.133280L91.552320 172.996323L91.730880 174.295651
L91.775520 173.222584L91.954080 166.739598L92.088000 166.775033
L92.221920 155.496388L92.266560 161.549637L92.534400 158.981147
L92.579040 161.285244L92.623680 156.525298L92.846880 159.364295
L93.204000 262.771835L93.248640 231.671999L93.427200 199.471694
L93.605760 200.590109L93.918240 200.180581L93.918240 200.180581
L93.962880 202.879787L94.007520 201.098430L94.096800 284.409838
L94.364640 242.137549L94.498560 277.767996L94.543200 194.740821
L94.811040 243.414439L94.855680 249.998499L94.900320 198.620607
L95.078880 201.615966L95.257440 180.802231L95.436000 227.155927
L95.659200 192.463870L95.748480 197.794300L96.060960 283.989068
L96.105600 250.999537L96.507360 188.048326L96.819840 183.792784
L96.819840 183.792784L97.132320 246.916302L97.176960 221.726523
L97.400160 231.946292L97.489440 195.994045L97.623360 192.012078
L97.801920 238.104935L98.203680 191.406949L98.560800 270.657585
L98.605440 182.195359L98.917920 193.180900L99.051840 185.742092
L99.319680 231.493510L99.364320 186.553692L99.587520 185.007943
L99.587520 185.007943L99.766080 208.210349L99.810720 188.286080
L100.123200 182.455133L100.123200 182.455133L100.167840 183.489647
L100.301760 171.768088L100.480320 185.637026L100.792800 259.105079
L100.971360 263.699936L101.149920 179.763489L101.328480 171.194431
L101.373120 182.992804L101.730240 255.231142L102.087360 158.387315
L102.176640 249.762943L102.444480 170.125055L102.533760 167.403184
L102.578400 169.023106L102.890880 158.279910L102.890880 158.279910
L103.203360 164.906177L103.292640 166.564991L103.426560 157.159065
L103.917600 252.963905L104.051520 203.756012L104.274720 225.923407
L104.631840 178.276863L104.676480 299.500813L104.944320 242.855611
L105.212160 249.221014L105.256800 239.137813L105.435360 182.967267
L105.569280 197.055778L105.971040 248.825510L106.060320 189.595310
L106.328160 195.019077L106.372800 196.202542L106.640640 235.352845
L106.685280 200.241906L106.729920 197.008547L106.997760 233.179000
L107.042400 198.599136L107.131680 208.209164L107.131680 208.209164
L107.265600 181.700452L107.399520 239.174258L107.801280 186.741119
L107.845920 274.009656L108.158400 234.560394L108.247680 189.513437
L108.426240 225.892271L108.694080 228.193241L108.738720 185.082857
L108.872640 291.067538L109.051200 222.039882L109.185120 263.808460
L109.408320 189.422543L109.452960 192.683103L109.765440 249.530240
L109.988640 186.362101L110.122560 222.618302L110.345760 228.832104
L110.435040 186.375717L110.702880 179.091041L110.747520 258.543802
L110.926080 177.844524L111.060000 185.869545L111.238560 181.354524
L111.506400 172.763806L111.551040 182.552641L111.684960 182.579000
L111.818880 181.210557L112.042080 177.523972L112.131360 220.142846
L112.309920 258.557864L112.309920 258.557864L112.533120 381.232197
L112.577760 285.994513L112.934880 169.262369L113.068800 162.480032
L113.113440 174.873225L113.336640 146.990094L113.515200 159.969102
L113.916960 199.747144L114.274080 158.653640L114.452640 283.300513
L114.631200 226.368510L114.988320 201.191543L115.077600 213.498374
L115.211520 201.671325L115.300800 215.017909L115.479360 203.882808
L115.747200 198.083680L115.791840 202.413974L116.015040 209.113305
L116.104320 201.451128L116.327520 280.599909L116.416800 218.554056
L116.773920 197.133463L117.131040 271.538989L117.354240 195.582393
L117.443520 197.329348L117.488160 264.517026L117.756000 198.087303
L117.845280 197.260876L117.845280 197.260876L118.113120 183.233505
L118.157760 198.291035L118.470240 224.726351L118.514880 200.172489
L118.559520 193.034994L118.604160 279.704322L118.872000 235.933879
L119.139840 171.922982L119.229120 195.042261L119.363040 190.977489
L119.675520 187.891788L119.675520 187.891788L119.988000 186.948928
L119.988000 186.948928L120.077280 203.491712L120.077280 203.491712
L120.389760 382.777277L120.434400 262.665917L120.746880 265.862324
L120.791520 211.112370L121.059360 177.381591L121.148640 187.852832
L121.282560 176.851122L121.371840 184.814418L121.728960 218.466587
L121.773600 180.950141L122.041440 189.483502L122.264640 177.024278
L122.353920 185.065861L122.487840 177.018953L122.666400 179.082006
L122.755680 170.650684L123.068160 164.838405L123.068160 164.838405
L123.291360 253.619691L123.380640 160.991567L123.693120 248.010121
L123.737760 191.695810L124.139520 149.236766L124.362720 211.282313
L124.452000 162.526746L124.585920 164.043638L124.764480 157.426453
L124.898400 153.311471L125.121600 204.961380L125.166240 206.864491
L125.344800 286.225242L125.478720 203.120630L125.568000 201.297274
L125.568000 201.297274L125.925120 281.898855L126.148320 281.981799
L126.192960 201.111629L126.460800 286.667026L126.505440 209.497842
L126.773280 200.258562L126.996480 191.074356L127.130400 231.657935
L127.442880 182.372037L127.487520 194.218213L127.621440 235.659246
L127.800000 197.164876L127.933920 200.126571L128.067840 194.114792
L128.246400 224.288228L128.648160 184.467122L128.871360 236.836622
L129.005280 195.183417L129.228480 192.836390L129.228480 192.836390
L129.540960 186.081514L129.585600 270.000702L129.764160 184.337960
L129.898080 241.930578L130.210560 190.291808L130.344480 190.427911
L130.567680 171.722662L130.656960 225.918722L130.969440 184.593768
L131.014080 192.921724L131.103360 225.088951L131.148000 186.577952
L131.371200 268.791395L131.460480 182.022399L131.728320 208.791058
L131.772960 189.949291L131.951520 191.140627L131.996160 189.309746
L132.308640 263.013380L132.665760 175.771234L132.933600 261.969507
L132.978240 179.453278L133.246080 179.341477L133.246080 179.341477
L133.290720 177.209568L133.513920 258.351316L133.603200 174.671441
L133.915680 167.059467L133.960320 177.870810L134.183520 172.083723
L134.272800 251.235661L134.362080 215.543106L134.406720 222.299038
L134.629920 160.839645L134.808480 164.561637L135.120960 151.174393
L135.120960 151.174393L135.165600 155.295082L135.344160 144.194825
L135.522720 211.174703L135.656640 246.026219L135.656640 246.026219
L135.701280 247.838386L136.013760 200.638105L136.058400 203.737357
L136.236960 198.819740L136.326240 219.038232L136.370880 194.416941
L136.683360 201.352941L136.728000 203.507309L136.951200 199.613263
L137.040480 202.677162L137.174400 202.409284L137.174400 202.409284
L137.219040 188.609981L137.486880 188.522098L137.531520 221.744524
L137.665440 250.590304L137.888640 204.243185L138.156480 194.472199
L138.379680 183.865037L138.468960 201.886327L138.736800 219.507556
L138.781440 194.071278L139.093920 228.866594L139.406400 189.512149
L139.584960 187.424296L139.718880 242.204518L139.986720 193.038251
L140.031360 229.544807L140.254560 193.892075L140.299200 220.950930
L140.567040 224.721721L140.656320 187.686876L140.968800 183.136257
L140.968800 183.136257L141.147360 179.000880L141.281280 188.426610
L141.504480 173.216318L141.593760 190.541048L141.638400 189.262872
L141.861600 181.700613L141.950880 191.726021L142.040160 198.855324
L142.084800 191.311598L142.397280 184.752054L142.441920 222.271879
L142.620480 178.857827L142.754400 181.527727L143.022240 215.746596
L143.066880 185.927031L143.245440 173.363575L143.290080 176.679683
L143.379360 235.472355L143.557920 180.148075L143.691840 184.609864
L143.691840 184.609864L143.870400 176.268771L144.004320 180.648001
L144.182880 167.989300L144.361440 174.150092L144.540000 161.971448
L144.584640 169.697196L144.718560 173.718265L144.763200 168.470721
L144.941760 159.904592L144.941760 159.904592L145.031040 382.336627
L145.254240 163.390858L145.522080 161.163741L145.522080 161.163741
L145.700640 155.233046L145.745280 163.912610L145.789920 154.564353
L145.968480 157.875010L146.147040 225.150478L146.370240 209.308497
L146.593440 221.261979L146.638080 206.890107L146.905920 192.395941
L146.995200 242.106972L147.218400 198.121338L147.307680 203.482113
L147.441600 283.108773L147.486240 202.859342L147.664800 203.566623
L147.664800 203.566623L147.977280 199.630023L147.977280 199.630023
L148.245120 236.849444L148.289760 204.184838L148.468320 218.523436
L148.557600 202.331441L148.825440 190.136752L148.870080 201.354702
L148.959360 194.649981L149.227200 166.960070L149.271840 200.313677
L149.495040 218.467066L149.584320 198.087504L149.941440 279.010721
L150.030720 179.428422L150.298560 198.126868L150.343200 190.952693
L150.387840 284.514797L150.655680 219.288798L150.878880 221.333551
L150.968160 191.099125L151.102080 189.647913L151.280640 222.801886
L151.503840 250.218863L151.637760 189.772359L151.994880 226.151071
L152.173440 188.241103L152.218080 216.068837L152.441280 186.796736
L152.530560 210.788589L152.843040 213.969623L152.887680 191.218879
L153.200160 225.171077L153.512640 153.393375L153.557280 185.490666
L153.691200 185.886890L153.691200 185.886890L154.003680 224.675573
L154.271520 234.997534L154.316160 181.245726L154.539360 171.764354
L154.628640 172.399357L154.673280 173.639031L154.896480 167.151191
L154.985760 180.026188L155.075040 210.357789L155.298240 173.974457
L155.342880 170.947990L155.566080 252.743281L155.655360 189.816155
L155.878560 156.894874L156.012480 158.811677L156.324960 152.196931
L156.324960 152.196931L156.637440 220.244027L156.726720 218.318050
L156.860640 182.762323L157.039200 230.679326L157.262400 197.930447
L157.396320 203.069618L157.485600 197.219275L157.530240 200.430639
L157.753440 191.769099L157.842720 192.285889L158.199840 282.234003
L158.512320 196.974945L158.556960 233.822535L158.601600 191.993652
L158.869440 196.344145L159.003360 202.696975L159.137280 199.047328
L159.315840 234.087038L159.539040 194.753956L159.672960 201.734491
L159.762240 199.076141L159.940800 381.680460L160.030080 200.784678
L160.119360 198.948315L160.297920 196.020727L160.431840 197.780866
L160.565760 186.626664L160.744320 208.669254L160.922880 190.988563
L161.056800 194.347885L161.235360 191.403393L161.369280 196.521844
L161.592480 196.891933L161.637120 191.034111L161.815680 182.543754
L161.949600 226.002488L162.262080 188.161533L162.396000 181.915597
L162.574560 189.947688L162.663840 194.011220L162.708480 188.788646
L162.931680 177.488005L163.020960 187.302553L163.199520 187.942991
L163.244160 186.655924L163.556640 183.218174L163.556640 183.218174
L163.735200 215.461859L163.958400 183.042405L164.003040 185.114779
L164.226240 180.538474L164.270880 186.540730L164.404800 267.233105
L164.583360 179.364354L164.628000 181.515963L164.761920 176.645777
L164.940480 183.076745L165.074400 168.705624L165.119040 228.837697
L165.431520 220.718195L165.565440 172.443732L165.744000 175.641826
L165.922560 167.132406L166.011840 170.472518L166.235040 161.262185
L166.279680 165.068155L166.458240 169.300256L166.502880 163.425842
L166.860000 248.806752L166.993920 147.778146L167.217120 162.929677
L167.351040 235.579899L167.618880 208.464366L167.842080 203.678842
L167.886720 210.394698L168.065280 218.617718L168.422400 199.930188
L168.467040 203.476762L168.600960 192.991824L168.779520 236.839325
L169.136640 200.409398L169.315200 205.804479L169.359840 203.917307
L169.493760 206.114579L169.493760 206.114579L169.850880 278.734170
L170.208000 187.718193L170.341920 262.460458L170.565120 197.700555
L170.788320 193.388767L170.966880 223.864112L171.279360 185.875904
L171.324000 199.361863L171.591840 244.458360L171.636480 213.404345
L171.993600 177.122738L172.261440 296.671638L172.395360 206.347148
L172.618560 186.314745L172.707840 192.615122L173.020320 183.790339
L173.020320 183.790339L173.198880 203.795347L173.243520 186.691576
L173.511360 181.656730L173.556000 217.133473L173.868480 183.380485
L173.913120 188.912202L174.002400 187.870009L174.270240 216.416011
L174.314880 183.691053L174.493440 191.122529L174.538080 182.511603
L174.761280 145.569510L174.850560 177.483885L175.163040 185.546565
L175.564800 171.841077L175.654080 178.236933L175.698720 177.158680
L176.011200 171.795937L176.055840 233.323253L176.412960 158.183223
L176.457600 165.673935L176.770080 145.883591L176.770080 145.883591
L176.904000 166.698676L177.127200 163.980539L177.350400 166.915165
L177.573600 150.114328L177.707520 157.616712L178.064640 283.739558
L178.109280 205.832297L178.243200 210.735722L178.243200 210.735722
L178.555680 202.356968L178.555680 202.356968L178.868160 232.126796
L179.180640 196.782819L179.225280 198.056207L179.359200 197.445422
L179.537760 222.832561L179.671680 195.658965L179.850240 203.646868
L180.118080 197.007938L180.162720 205.746620L180.341280 199.520817
L180.609120 225.821823L180.876960 245.737821L180.966240 192.009571
L181.234080 191.540085L181.323360 205.197525L181.501920 190.469148
L181.546560 198.415803L181.859040 185.626686L181.903680 222.986914
L182.216160 177.711361L182.260800 195.412318L182.394720 219.251830
L182.439360 193.281133L182.617920 210.703571L182.751840 190.210800
L182.796480 188.560322L182.841120 227.275103L183.108960 198.794271
L183.198240 238.301885L183.287520 189.711916L183.600000 187.038706
L183.600000 187.038706L183.733920 190.595903L183.778560 188.475006
L183.957120 278.395482L184.091040 195.718090L184.269600 185.993957
L184.358880 188.670709L184.671360 182.685013L184.671360 182.685013
L184.849920 216.264238L185.073120 203.794377L185.296320 224.777328
L185.296320 224.777328L185.430240 187.058544L185.430240 187.058544
L185.519520 181.863911L185.564160 183.208245L185.653440 176.218157
L185.876640 180.740772L185.965920 184.869734L186.055200 152.839259
L186.278400 188.283360L186.635520 170.096545L186.992640 248.392409
L187.037280 201.726908L187.305120 159.872234L187.349760 163.279597
L187.662240 158.840103L187.662240 158.840103L187.930080 156.764063
L187.930080 156.764063L188.197920 159.837888L188.242560 155.877213
L188.331840 382.597941L188.599680 200.700036L188.822880 235.263208
L188.912160 202.994434L189.090720 206.207970L189.135360 203.486054
L189.269280 206.728891L189.269280 206.728891L189.403200 200.353192
L189.403200 200.353192L189.492480 204.693218L189.492480 204.693218
L189.804960 199.279432L189.804960 199.279432L189.938880 216.448956
L190.162080 202.877974L190.385280 207.484317L190.385280 207.484317
L190.697760 198.988381L190.697760 198.988381L190.831680 183.635983
L191.010240 194.122549L191.367360 232.419662L191.635200 196.453703
L191.724480 214.235253L191.813760 196.427040L191.903040 197.731968
L192.081600 201.142814L192.215520 192.686247L192.260160 197.954003
L192.349440 195.280325L192.572640 277.974479L192.617280 199.515253
L192.706560 198.471736L193.019040 275.897917L193.063680 191.813257
L193.376160 194.823708L193.688640 192.308754L193.733280 263.646959
L194.090400 180.795728L194.179680 208.600008L194.402880 196.417329
L194.536800 180.030012L194.670720 183.478418L194.760000 182.763515
L194.983200 191.879932L195.117120 182.701375L195.518880 381.832886
L195.608160 179.627888L195.876000 182.919882L196.143840 169.080177
L196.188480 217.848833L196.456320 170.627278L196.545600 173.058065
L196.858080 229.094121L197.081280 179.129375L197.081280 179.129375
L197.259840 173.706911L197.393760 224.719169L197.572320 186.844636
L197.616960 168.239393L197.750880 169.290259L198.018720 149.664545
L198.063360 159.093507L198.108000 181.198459L198.375840 159.330035
L198.643680 152.518681L198.688320 158.498038L198.777600 155.778516
L199.045440 217.364094L199.313280 202.841100L199.670400 243.217201
L199.893600 197.167732L199.982880 202.034472L200.072160 208.068589
L200.206080 200.695245L200.563200 283.487615L200.741760 185.265614
L200.920320 216.901572L201.098880 193.186963L201.143520 281.481486
L201.366720 196.049457L201.679200 283.348706L201.723840 204.349059
L201.857760 214.547892L202.036320 199.613489L202.304160 275.714479
L202.348800 201.285211L202.482720 192.929175L202.750560 189.823846
L202.795200 215.814024L203.107680 191.546851L203.152320 200.328750
L203.330880 174.925610L203.464800 218.893850L203.732640 188.431535
L203.821920 202.204794L204.089760 193.254878L204.402240 230.252877
L204.714720 159.505280L204.759360 187.706804L204.893280 191.810602
L204.937920 189.663924L205.161120 186.287617L205.250400 195.842109
L205.518240 159.523911L205.562880 188.053398L205.830720 380.237955
L205.875360 288.147863L206.143200 183.932661L206.232480 184.778604
L206.455680 383.453906L206.544960 186.456899L206.678880 177.774468
L206.723520 179.926875L206.991360 175.698435L207.036000 181.876381
L207.080640 179.859605L207.437760 149.123705L207.482400 207.060454
L207.750240 176.944699L207.884160 183.894360L207.928800 174.465712
L208.107360 177.496365L208.196640 176.113436L208.419840 166.972479
L208.509120 167.984558L208.643040 217.335936L208.776960 169.438695
L208.821600 161.506281L208.955520 164.702546L209.268000 159.800942
L209.268000 159.800942L209.491200 152.471050L209.535840 155.810073
L209.580480 156.924147L209.669760 155.891583L209.848320 214.124005
L210.026880 204.709494L210.384000 255.749411L210.562560 284.839768
L210.741120 205.437890L210.964320 191.240005L211.053600 204.225251
L211.142880 226.560420L211.187520 205.462226L211.321440 197.343835
L211.455360 201.713500L211.633920 233.956347L211.678560 200.227332
L211.946400 200.074421L211.946400 200.074421L212.080320 199.041609
L212.080320 199.041609L212.258880 189.471272L212.348160 196.838548
L212.571360 222.301035L212.705280 209.044935L212.794560 224.856252
L213.062400 197.707443L213.374880 183.997474L213.419520 230.355933
L213.776640 184.722184L213.999840 231.146943L214.133760 219.036408
L214.312320 278.518225L214.446240 195.380533L214.714080 189.910478
L214.758720 200.503311L214.937280 187.323489L215.160480 267.030408
L215.249760 193.372032L215.383680 186.398630L215.517600 183.347500
L215.696160 208.641844L215.785440 145.468432L215.964000 183.903953
L216.276480 174.027528L216.276480 174.027528L216.455040 269.878244
L216.678240 216.010372L216.856800 181.785808L217.035360 188.049868
L217.124640 209.263142L217.258560 184.452479L217.526400 181.543610
L217.526400 181.543610L217.615680 179.621831L217.794240 169.616840
L217.928160 181.645999L217.972800 175.017184L218.017440 178.466340
L218.196000 172.642335L218.329920 177.079050L218.508480 170.147445
L218.731680 173.505014L218.865600 176.981298L218.954880 168.738314
L219.178080 170.438114L219.267360 162.914710L219.401280 155.341259
L219.579840 162.136904L219.847680 168.523980L219.981600 163.753742
L220.070880 153.152923L220.249440 156.086363L220.472640 229.371465
L220.651200 204.299742L220.740480 207.950324L220.963680 216.254769
L221.052960 204.420590L221.276160 199.283392L221.365440 205.166529
L221.454720 207.143386L221.454720 207.143386L221.633280 286.605634
L221.767200 200.785223L221.945760 230.353128L222.079680 210.213802
L222.436800 199.286708L222.660000 198.319456L222.793920 227.591823
L223.151040 161.933330L223.284960 226.197524L223.552800 201.584226
L223.731360 174.347240L223.909920 191.235220L224.177760 279.490892
L224.222400 199.703868L224.445600 178.389741L224.758080 246.584460
L225.025920 272.851979L225.115200 205.149816L225.249120 218.462447
L225.383040 201.245225L225.472320 189.690339L225.695520 196.609967
L225.829440 236.525293L225.963360 182.418565L226.097280 207.409183
L226.320480 213.660501L226.409760 188.041448L226.722240 184.611137
L226.722240 184.611137L226.900800 214.035912L227.034720 191.070487
L227.124000 211.172241L227.257920 196.780328L227.570400 180.822280
L227.570400 180.822280L227.927520 213.102583L228.284640 181.143050
L228.418560 179.617542L228.463200 184.329284L228.775680 173.219653
L228.775680 173.219653L229.043520 256.785071L229.132800 206.715951
L229.445280 158.633214L229.489920 172.838205L229.534560 169.310116
L229.757760 166.885455L229.847040 168.519165L230.159520 156.986680
L230.248800 160.254129L230.516640 155.575253L230.561280 159.504530
L230.650560 150.895915L230.695200 155.599621L231.052320 285.981410
L231.409440 194.694389L231.766560 281.427424L231.945120 182.647261
L232.123680 205.476102L232.302240 199.026809L232.346880 239.597837
L232.614720 220.095222L232.748640 220.555368L232.927200 200.083856
L233.284320 280.168332L233.462880 186.656326L233.596800 194.632669
L233.775360 193.887053L233.864640 196.582430L234.087840 222.488811
L234.132480 196.395873L234.221760 201.971217L234.311040 271.704011
L234.400320 194.485722L234.489600 193.435157L234.712800 195.393271
L234.846720 185.911547L234.891360 195.320161L235.203840 187.755128
L235.203840 187.755128L235.248480 190.877218L235.382400 190.562102
L235.560960 209.307317L235.828800 186.591454L236.052000 182.845875
L236.141280 213.566739L236.230560 168.021178L236.453760 189.662378
L236.766240 182.794253L236.766240 182.794253L236.900160 186.215155
L236.900160 186.215155L237.078720 166.903119L237.212640 182.444316
L237.569760 267.998877L237.703680 170.019671L237.882240 186.431457
L238.060800 171.773922L238.194720 265.447905L238.284000 168.321510
L238.551840 176.108880L238.641120 183.504482L238.730400 180.199013
L238.908960 173.233834L239.042880 180.645974L239.221440 173.093828
L239.400000 173.384058L239.533920 171.492847L239.578560 176.631426
L239.667840 161.999889L239.891040 175.738692L240.203520 159.734480
L240.248160 381.595672L240.516000 168.243227L240.694560 161.408321
L240.694560 161.408321L240.783840 155.562405L241.007040 163.329030
L241.096320 158.825601L241.185600 162.954921L241.453440 153.525783
L241.453440 153.525783L241.542720 167.793836L241.899840 286.597909
L242.167680 288.704365L242.256960 204.894240L242.435520 285.668597
L242.569440 208.158138L242.881920 196.424817L242.926560 283.831016
L243.194400 214.123102L243.283680 194.925658L243.506880 200.819218
L243.685440 198.757001L243.819360 220.815864L243.908640 249.372195
L243.953280 217.643682L244.087200 279.802035L244.265760 239.453073
L244.578240 191.309156L244.622880 199.950709L244.890720 230.814624
L244.935360 201.165357L244.980000 195.356743L245.069280 198.184693
L245.337120 190.147592L245.426400 213.454465L245.783520 194.340495
L246.096000 221.904418L246.319200 230.473968L246.453120 196.092420
L246.720960 188.643445L246.765600 203.223080L246.988800 188.844128
L247.078080 194.622940L247.212000 184.964866L247.435200 264.727668
L247.792320 179.144902L248.060160 210.627670L248.149440 185.808078
L248.194080 187.175040L248.417280 186.832982L248.506560 227.167139
L248.908320 176.923959L249.176160 380.679303L249.220800 286.315576
L249.444000 381.247605L249.577920 185.807962L249.756480 179.644032
L249.890400 175.160325L250.113600 202.873330L250.470720 173.644481
L250.649280 167.499754L250.738560 173.769633L250.961760 169.044050
L251.229600 163.322025L251.318880 170.227406L251.586720 162.398838
L251.586720 162.398838L251.676000 159.502065L251.943840 156.207188
L251.943840 156.207188L252.167040 160.025636L252.211680 155.030883
L252.345600 236.686927L252.524160 203.461743L252.658080 206.989224
L252.970560 199.830131L252.970560 199.830131L253.104480 235.997585
L253.283040 204.679168L253.372320 198.459192L253.416960 199.768049
L253.729440 242.088425L254.086560 196.190187L254.309760 192.081069
L254.399040 212.601364L254.622240 189.146159L254.666880 279.035035
L254.934720 246.383251L255.202560 281.282883L255.247200 191.321485
L255.381120 178.490917L255.559680 195.987977L255.827520 195.027569
L255.961440 220.533457L256.318560 172.150528L256.452480 241.991551
L256.675680 217.211066L256.988160 191.236220L257.300640 188.815227
L257.300640 188.815227L257.479200 220.048863L257.657760 190.167026
L257.747040 213.547762L258.104160 161.011371L258.372000 380.825760
L258.461280 190.310372L258.550560 193.184439L258.639840 187.071441
L258.907680 182.980290L258.952320 187.037827L258.996960 188.104507
L259.130880 182.292898L259.309440 184.048564L259.532640 173.747255
L259.577280 184.567551L259.889760 226.241520L259.934400 203.259703
L260.112960 171.594920L260.157600 180.260980L260.380800 179.582293
L260.470080 181.201796L260.648640 177.922381L260.648640 177.922381
L260.827200 175.187766L261.095040 173.468102L261.184320 204.616013
L261.541440 170.730693L261.586080 166.517045L261.809280 155.571398
L261.898560 172.004804L261.943200 159.542394L262.166400 165.689115
L262.344960 160.932269L262.478880 165.085361L262.746720 154.598044
L262.791360 155.693939L263.193120 285.560070L263.327040 204.219985
L263.550240 233.674822L263.907360 191.504945L264.175200 211.866138
L264.264480 200.364871L264.353760 199.147095L264.353760 199.147095
L264.576960 196.866786L264.666240 203.271440L264.800160 197.746973
L264.978720 216.902337L265.112640 227.058112L265.335840 199.713127
L265.469760 197.714939L265.648320 203.234991L265.692960 196.751286
L265.826880 201.583402L265.960800 181.154148L266.094720 202.767509
L266.317920 226.144252L266.407200 200.966317L266.764320 276.689667
L266.853600 153.102971L267.121440 208.449431L267.344640 225.653277
L267.389280 199.853773L267.523200 233.591840L267.567840 217.513064
L267.791040 223.569769L267.924960 192.895516L268.058880 210.399747
L268.192800 198.952613L268.460640 188.081268L268.505280 191.627996
L268.683840 228.317190L268.817760 190.639600L268.951680 187.994177
L268.951680 187.994177L269.130240 185.061354L269.264160 216.116117
L269.487360 225.634718L269.576640 191.267660L269.799840 180.258882
L269.889120 182.531079L270.067680 211.615485L270.246240 210.655287
L270.246240 210.655287L270.335520 179.392013L270.514080 185.823857
L270.826560 165.785633L270.871200 225.532764L271.049760 175.437540
L271.272960 177.427472L271.540800 159.574226L271.585440 168.209902
L271.897920 166.990840L271.942560 176.100625L271.987200 154.504014
L272.255040 162.413779L272.388960 160.171351L272.567520 168.448162
L272.612160 169.934150L272.701440 156.836034L272.969280 151.781727
L273.013920 156.307532L273.103200 158.893926L273.371040 146.754140
L273.817440 227.720867L273.862080 204.223904L274.040640 175.247770
L274.174560 205.848503L274.263840 199.759534L274.353120 205.497345
L274.620960 280.536752L274.665600 198.153611L274.933440 194.308664
L275.022720 204.330738L275.112000 200.290274L275.424480 198.559535
L275.424480 198.559535L275.692320 194.693967L275.781600 213.637882
L275.915520 221.996428L275.960160 203.128029L276.228000 196.887962
L276.272640 199.367749L276.451200 187.008480L276.585120 202.770993
L276.719040 221.591992L276.719040 221.591992L276.942240 194.988246
L277.031520 200.736140L277.299360 190.250606L277.344000 196.677761
L277.611840 222.035066L277.656480 196.303167L277.835040 203.384527
L277.968960 198.835915L278.013600 196.842518L278.236800 190.426089
L278.326080 220.838403L278.415360 180.839801L278.549280 220.121028
L278.638560 173.855999L278.861760 228.645821L279.084960 184.092925
L279.218880 185.575151L279.442080 154.066032L279.531360 186.017326
L279.754560 238.651500L279.843840 189.184734L280.111680 180.499165
L280.379520 265.716065L280.468800 201.839745L280.781280 209.980139
L280.825920 185.885055L280.870560 178.798901L280.959840 180.314348
L281.316960 231.891593L281.629440 165.721748L281.674080 181.916056
L281.986560 150.388600L282.075840 195.991905L282.343680 177.210554
L282.700800 148.725213L282.745440 172.980058L283.013280 163.979498
L283.236480 167.130895L283.415040 151.538281L283.504320 214.672114
L283.727520 159.380145L283.906080 160.811613L283.906080 160.811613
L284.307840 284.672025L284.531040 200.762117L284.664960 203.993598
L284.754240 227.292580L284.798880 202.783831L285.022080 200.290902
L285.111360 200.690538L285.289920 204.674856L285.647040 255.440139
L285.914880 186.207865L286.004160 200.192413L286.182720 189.250507
L286.361280 214.162957L286.495200 226.468020L286.673760 198.822036
L287.030880 250.872601L287.343360 181.242905L287.388000 240.225573
L287.700480 216.051297L287.745120 192.989338L287.789760 384.007377
L288.057600 229.194976L288.370080 192.045915L288.414720 195.122789
L288.548640 204.681147L288.816480 274.731523L288.861120 215.209221
L288.950400 273.470669L289.039680 193.072948L289.352160 187.623503
L289.352160 187.623503L289.709280 220.625246L290.021760 227.951882
L290.066400 188.388894L290.334240 229.915255L290.378880 205.716844
L290.512800 183.215347L290.646720 187.293799L290.914560 178.908907
L290.959200 180.760308L291.003840 179.659931L291.182400 169.365166
L291.316320 183.903858L291.405600 224.363411L291.539520 181.202989
L291.718080 179.855715L291.852000 210.049844L292.075200 174.561162
L292.253760 178.528731L292.343040 177.056304L292.655520 167.100123
L292.655520 167.100123L292.878720 253.438389L292.968000 172.012596
L293.057280 175.455538L293.280480 163.996089L293.325120 168.584579
L293.548320 149.180219L293.637600 162.763768L293.950080 140.458243
L294.217920 240.110343L294.262560 197.484734L294.530400 151.550140
L294.575040 154.691721L295.021440 247.642012L295.423200 202.118322
L295.735680 281.475166L296.048160 176.655416L296.092800 198.747760
L296.137440 199.909792L296.360640 230.008457L296.405280 200.459334
L296.583840 189.126374L296.762400 227.792632L296.896320 224.982390
L296.940960 193.644507L297.253440 204.515681L297.521280 193.339161
L297.565920 277.824272L297.923040 194.339028L297.967680 196.782390
L298.056960 186.845309L298.280160 199.195975L298.369440 222.316126
L298.592640 197.840346L298.681920 177.130404L298.905120 193.657195
L299.172960 190.883231L299.172960 190.883231L299.351520 224.608755
L299.440800 194.205847L299.664000 183.975311L299.753280 195.034915
L299.797920 191.556893L300.021120 191.246324L300.110400 192.911071
L300.244320 170.754256L300.378240 188.595376L300.690720 270.615049
L300.735360 165.924937L301.047840 181.326628L301.271040 211.337556
L301.404960 184.223039L301.449600 186.321556L301.851360 265.544023
L301.940640 171.065436L302.208480 184.594107L302.476320 231.928217
L302.520960 168.938004L302.744160 184.781339L302.922720 161.673887
L303.056640 180.431101L303.190560 153.411000L303.369120 179.525301
L303.547680 166.325103L303.592320 251.090434L303.860160 167.221979
L304.083360 165.587012L304.083360 165.587012L304.217280 154.650297
L304.351200 162.384091L304.574400 166.233162L304.708320 166.143322
L305.020800 151.681698L305.065440 159.627354L305.244000 282.787100
L305.467200 206.974603L305.556480 205.122738L305.645760 206.335364
L305.913600 192.918309L305.958240 203.337248L306.136800 185.674361
L306.136800 185.674361L306.181440 382.374500L306.449280 219.266307
L306.538560 182.449166L306.761760 204.838448L306.895680 197.812410
L307.074240 197.859989L307.431360 285.277446L307.654560 184.042922
L307.788480 199.208201L308.011680 279.213349L308.100960 199.110416
L308.190240 172.295490L308.458080 196.657454L308.725920 194.880453
L308.770560 219.211692L309.172320 167.258550L309.395520 276.424424
L309.529440 214.972424L309.797280 222.445510L309.886560 195.301235
L310.154400 269.618212L310.199040 194.112591L310.466880 192.340205
L310.466880 192.340205L310.556160 194.836748L310.868640 212.941469
L311.091840 173.553755L311.136480 188.564838L311.493600 268.259015
L311.627520 177.683134L311.850720 183.919116L312.163200 223.677241
L312.207840 215.008047L312.475680 181.725035L312.520320 185.861141
L312.609600 182.828562L312.922080 231.280808L313.279200 179.919576
L313.323840 178.865131L313.547040 169.945520L313.636320 176.993618
L313.859520 166.274665L313.948800 170.243372L314.127360 246.213370
L314.305920 244.524851L314.573760 249.632059L314.663040 168.755376
L314.841600 128.078648L314.975520 160.747615L315.064800 162.995120
L315.109440 140.151682L315.377280 152.479803L315.421920 238.363128
L315.689760 200.211871L315.779040 208.556976L315.823680 202.220491
L316.091520 283.704680L316.136160 205.615100L316.359360 184.615329
L316.404000 285.818952L316.627200 198.994572L316.984320 233.731016
L317.252160 184.886300L317.296800 203.337549L317.520000 197.156302
L317.609280 214.309872L317.921760 185.327921L318.100320 221.612254
L318.278880 200.586718L318.546720 186.086625L318.769920 177.609460
L318.859200 205.173305L318.903840 194.940104L319.216320 276.978434
L319.439520 192.755046L319.573440 193.568306L319.885920 227.239557
L320.109120 232.276397L320.243040 193.455692L320.376960 220.236026
L320.466240 189.439147L320.644800 220.942512L320.957280 222.932474
L321.001920 194.563278L321.135840 198.332589L321.135840 198.332589
L321.359040 187.698015L321.448320 218.188244L321.671520 181.918181
L321.716160 187.357673L321.894720 281.213715L322.028640 187.489810
L322.162560 179.029509L322.430400 267.282616L322.475040 186.718389
L322.608960 184.311042L322.876800 209.270109L322.921440 186.931346
L322.966080 181.103807L323.055360 184.194109L323.367840 180.794208
L323.367840 180.794208L323.501760 182.399817L323.635680 180.064775
L323.903520 172.664734L323.948160 181.103972L324.126720 208.851465
L324.171360 178.770125L324.483840 383.633445L324.528480 281.400925
L324.885600 160.599238L325.108800 142.684916L325.198080 170.790997
L325.465920 163.506584L325.644480 162.428763L325.644480 162.428763
L325.778400 187.473393L325.956960 146.488109L326.090880 130.270853
L326.224800 158.203341L326.269440 264.416776L326.537280 226.784943
L326.715840 196.873065L326.849760 203.211223L327.028320 282.528245
L327.162240 210.786816L327.296160 245.067172L327.385440 225.217151
L327.519360 202.510084L327.608640 215.257949L327.831840 197.214283
L327.876480 203.845179L328.099680 221.089232L328.144320 182.317356
L328.412160 201.058875L328.724640 291.643238L328.769280 244.681569
L329.126400 193.686187L329.215680 226.141648L329.483520 221.803437
L329.796000 190.269843L329.885280 174.085855L330.108480 198.973643
L330.153120 191.496887L330.420960 275.419644L330.465600 228.246387
L330.644160 242.999466L330.778080 228.287420L331.135200 175.054699
L331.224480 182.798717L331.269120 242.117656L331.536960 193.655332
L331.715520 212.808179L331.804800 187.389564L331.894080 185.817977
L332.072640 210.251965L332.117280 171.105869L332.385120 202.228356
L332.519040 178.142815L332.742240 188.415569L333.099360 281.734589
L333.277920 174.868175L333.456480 182.113905L333.635040 183.114157
L333.635040 183.114157L333.902880 172.705060L333.947520 181.359272
L334.081440 183.213363L334.349280 175.942524L334.393920 182.223174
L334.438560 178.728666L334.706400 166.616352L334.751040 171.601018
L334.929600 175.462604L335.152800 153.192241L335.242080 170.385657
L335.509920 171.750938L335.509920 171.750938L335.822400 160.965649
L335.822400 160.965649L335.956320 157.313855L336.134880 163.722226
L336.313440 167.001468L336.492000 148.197713L336.670560 145.726472
L336.849120 205.648950L337.116960 199.986799L337.250880 192.631968
L337.429440 201.192061L337.608000 233.512788L337.741920 201.912696
L338.054400 228.312048L338.322240 228.986772L338.411520 202.419357
L338.679360 221.882426L338.813280 196.253907L338.991840 206.131949
L339.081120 189.908752L339.304320 218.742045L339.438240 223.554245
L339.572160 208.634632L339.750720 194.055303L339.884640 198.742188
L339.929280 197.350870L340.107840 225.179068L340.241760 204.489946
L340.420320 180.716585L340.554240 196.623832L340.822080 379.990499
L340.866720 281.147602L340.956000 178.993623L341.223840 190.701072
L341.357760 179.439047L341.536320 187.901566L341.848800 187.585519
L341.893440 199.221121L342.072000 184.297972L342.116640 273.759733
L342.384480 191.028122L342.741600 213.334165L343.009440 186.240747
L343.188000 185.714858L343.232640 188.444982L343.589760 210.359858
L343.812960 233.757718L343.902240 200.846824L343.991520 176.927628
L344.170080 183.741898L344.571840 264.695395L344.616480 223.817669
L344.661120 158.516207L344.973600 185.897565L345.375360 229.909434
L345.643200 256.619954L345.732480 174.318597L346.223520 155.144317
L346.491360 141.255519L346.536000 152.986137L346.714560 215.639224
L346.893120 161.216676L347.027040 143.320987L347.116320 159.118964
L347.250240 237.612375L347.339520 148.903135L347.384160 227.520479
L347.696640 209.454216L347.964480 202.914662L348.009120 208.610736
L348.053760 197.798557L348.098400 203.675663L348.321600 195.757262
L348.410880 208.262664L348.634080 219.452392L348.634080 219.452392
L348.768000 189.562090L348.946560 201.719916L349.035840 205.389349
L349.080480 202.598357L349.214400 189.369759L349.392960 202.347751
L349.526880 200.832419L349.526880 200.832419L349.705440 383.668403
L349.839360 193.058634L350.062560 230.843137L350.151840 197.469986
L350.196480 196.064082L350.508960 220.480265L350.821440 193.265136
L350.866080 194.542847L350.955360 189.715682L351.000000 234.466158
L351.178560 197.019405L351.446400 191.636732L351.491040 216.706176
L351.580320 175.598143L351.848160 205.616923L352.116000 182.803952
L352.205280 191.442044L352.428480 272.043123L352.562400 235.063734
L352.740960 166.077653L352.874880 194.225200L353.053440 177.472139
L353.187360 189.659630L353.410560 286.939458L353.499840 185.916437
L353.589120 187.784991L353.589120 187.784991L353.678400 178.759016
L353.946240 264.102881L354.258720 184.301854L354.437280 208.433011
L354.526560 182.605241L354.571200 177.196613L354.615840 182.091308
L354.705120 178.302928L354.928320 224.144071L355.106880 224.237547
L355.285440 178.596413L355.374720 179.840834L355.597920 170.902519
L355.687200 179.852149L355.731840 176.046750L355.955040 167.790831
L356.044320 172.853313L356.133600 157.136969L356.267520 174.690788
L356.356800 250.836822L356.624640 165.041540L356.892480 172.127474
L357.115680 143.489211L357.204960 162.854376L357.338880 167.195979
L357.606720 153.047454L357.696000 148.488098L357.963840 200.552229
L358.008480 202.082573L358.276320 188.733076L358.320960 219.101348
L358.454880 224.066689L358.678080 198.258270L358.945920 382.937801
L358.990560 276.586278L359.303040 194.793374L359.347680 201.777867
L359.570880 198.076548L359.660160 228.740881L359.838720 196.483792
L359.928000 218.147397L360.106560 281.563275L360.240480 219.335336
L360.285120 181.972845L360.552960 198.323952L360.820800 195.524293
L360.865440 211.215589L360.954720 173.229847L361.133280 198.605219
L361.267200 192.687062L361.490400 213.884066L361.668960 188.562613
L361.802880 196.629737L361.981440 216.509797L362.070720 193.615281
L362.338560 199.956979L362.338560 199.956979L362.383200 197.593004
L362.695680 247.082638L362.740320 230.137012L362.918880 176.719279
L363.142080 203.317673L363.231360 183.247407L363.454560 192.705042
L363.543840 176.609219L363.633120 188.722340L363.811680 174.022750
L363.856320 188.938339L363.990240 223.059883L364.079520 185.424375
L364.481280 243.855255L364.525920 170.331538L364.793760 181.759830
L365.016960 177.299554L365.150880 221.318890L365.284800 180.007659
L365.597280 171.623282L365.597280 171.623282L365.775840 220.552916
L365.909760 181.305637L365.954400 178.744215L365.999040 180.995251
L366.088320 169.437165L366.311520 178.409994L366.356160 176.544881
L366.400800 178.026959L366.713280 169.850970L366.713280 169.850970
L366.757920 173.604081L366.802560 170.627361L366.891840 153.665442
L367.115040 172.588741L367.338240 156.096511L367.427520 166.546131
L367.472160 164.040663L367.650720 162.002730L367.784640 165.074900
L367.918560 162.036721L368.141760 158.775226L368.186400 163.981293
L368.454240 170.274267L368.454240 170.274267L368.856000 383.338348
L368.900640 338.352176L369.079200 181.379230L369.257760 201.108636
L369.391680 196.232220L369.570240 228.405707L369.748800 187.494788
L369.882720 188.374873L370.105920 187.688335L370.195200 191.004811
L370.507680 256.158534L370.552320 212.021084L370.820160 184.062165
L370.864800 192.944369L371.132640 383.148590L371.177280 345.280456
L371.400480 182.132806L371.534400 185.770286L371.579040 241.170371
L371.846880 221.861287L372.070080 235.574335L372.159360 195.763209
L372.471840 253.919400L372.650400 191.848561L372.784320 196.270256
L373.141440 235.825011L373.453920 192.748983L373.855680 276.199983
L374.212800 186.444393L374.436000 182.581155L374.480640 189.242481
L374.525280 181.701811L374.569920 280.462868L374.793120 187.314022
L374.927040 186.207223L375.239520 182.073956L375.284160 218.045072
L375.507360 162.591484L375.552000 263.634429L375.819840 222.344808
L375.909120 172.762870L376.132320 185.887732L376.444800 264.738055
L376.578720 169.003653L376.757280 183.908775L377.069760 260.304329
L377.292960 166.019583L377.426880 173.410301L377.605440 142.599912
L377.650080 216.851115L377.917920 170.665522L378.230400 151.681194
L378.275040 160.056131L378.453600 167.430763L378.587520 141.081829
L378.766080 160.573039L378.855360 151.826529L378.900000 153.349233
L379.257120 226.387146L379.301760 200.141884L379.346400 202.672742
L379.569600 201.924165L379.658880 226.820255L379.882080 172.403305
L380.016000 179.966008L380.283840 251.762752L380.328480 199.397950
L380.417760 221.926563L380.640960 192.163657L380.685600 216.586678
L380.953440 222.382271L380.998080 198.483496L381.087360 196.213461
L381.310560 221.788856L381.489120 195.023511L381.623040 199.235131
L381.980160 221.252332L382.158720 279.151988L382.292640 187.959011
L382.694400 275.105073L382.962240 275.881697L383.051520 196.587691
L383.230080 220.700527L383.274720 194.740985L383.364000 247.332296
L383.408640 194.960143L383.721120 190.928518L383.721120 190.928518
L383.988960 180.765549L384.033600 193.644796L384.167520 217.519509
L384.346080 191.437244L384.480000 177.407086L384.658560 185.638130
L384.837120 210.394796L384.881760 172.452071L385.104960 188.657274
L385.238880 178.583136L385.417440 229.091602L385.729920 164.412349
L385.908480 183.207621L386.176320 179.578963L386.220960 214.999529
L386.578080 171.205447L386.667360 175.238467L386.667360 175.238467
L386.890560 220.937469L387.024480 183.619211L387.381600 160.348097
L387.694080 259.482454L387.783360 216.204559L387.828000 157.003215
L388.140480 173.334062L388.185120 175.092043L388.497600 164.492679
L388.497600 164.492679L388.542240 170.709968L388.765440 144.054990
L388.854720 154.168799L389.033280 247.862702L389.211840 204.167013
L389.435040 142.562371L389.568960 157.000624L389.658240 152.324231
L389.970720 285.919884L390.060000 203.824781L390.104640 202.107732
L390.238560 194.811629L390.417120 221.024226L390.729600 195.523835
L390.774240 228.841016L391.042080 204.764412L391.086720 200.928444
L391.354560 190.430676L391.399200 229.246942L391.667040 279.725403
L391.711680 198.290937L391.890240 169.801368L392.024160 200.195398
L392.113440 192.670137L392.292000 207.544425L392.381280 196.770399
L392.649120 277.389561L392.693760 198.953089L392.872320 177.986517
L393.050880 194.562817L393.363360 183.448934L393.363360 183.448934
L393.452640 218.308852L393.720480 195.075012L393.988320 217.375160
L394.032960 187.453564L394.300800 275.628127L394.345440 198.377798
L394.568640 236.583950L394.568640 236.583950L394.747200 276.550548
L394.836480 191.020185L394.881120 192.743816L395.104320 181.660665
L395.193600 208.557050L395.506080 179.878077L395.818560 164.643030
L395.818560 164.643030L396.086400 201.677446L396.220320 200.633374
L396.354240 182.893072L396.443520 188.215272L396.622080 184.298884
L396.756000 205.582676L396.845280 181.609922L396.934560 186.912123
L397.023840 180.312563L397.247040 187.029076L397.380960 187.032775
L397.380960 187.032775L397.693440 178.963515L397.693440 178.963515
L398.005920 176.897760L398.050560 191.085697L398.139840 259.520129
L398.229120 178.538606L398.318400 156.764561L398.541600 197.231007
L398.809440 157.940502L398.898720 176.162447L399.077280 157.985358
L399.434400 162.649549L399.702240 185.422598L400.059360 157.973352
L400.282560 162.007833L400.282560 162.007833L400.461120 232.657106
L400.595040 207.838776L400.728960 206.425426L400.773600 202.199873
L400.952160 383.288208L401.086080 207.679305L401.487840 276.902299
L401.755680 197.730985L401.844960 218.582199L402.112800 234.546084
L402.112800 234.546084L402.202080 197.566329L402.380640 232.842275
L402.693120 196.180257L402.827040 189.144721L403.005600 205.475492
L403.094880 208.332013L403.273440 195.798219L403.585920 383.999778
L403.630560 288.777713L403.719840 197.504355L403.987680 199.834170
L404.032320 197.483015L404.344800 192.498503L404.344800 192.498503
L404.434080 189.786771L404.434080 189.786771L404.746560 186.189211
L404.791200 243.109049L405.148320 178.837345L405.192960 190.216584
L405.326880 170.377621L405.505440 224.574037L405.728640 176.537273
L405.817920 181.058588L406.130400 173.441199L406.130400 173.441199
L406.219680 228.120114L406.487520 183.841351L406.666080 225.051629
L406.800000 189.982426L406.844640 185.171425L406.889280 187.394663
L407.157120 178.811938L407.201760 188.050550L407.246400 167.429343
L407.291040 178.278136L407.335680 382.998738L407.603520 184.851647
L407.692800 188.771353L407.737440 183.195285L407.960640 182.691253
L408.049920 184.296565L408.139200 172.281565L408.183840 183.778144
L408.451680 226.862623L408.496320 218.638315L408.764160 262.490425
L408.853440 175.427598L409.121280 166.441539L409.165920 171.116019
L409.344480 160.660653L409.389120 162.691813L409.478400 172.128978
L409.656960 169.351314L409.835520 214.603146L409.880160 169.072602
L410.148000 157.319958L410.237280 164.880419L410.505120 243.461696
L410.594400 228.625314L410.728320 140.644011L410.906880 152.826792
L411.174720 230.915429L411.264000 202.041267L411.442560 213.539935
L411.576480 207.299780L411.710400 192.141658L411.755040 209.316876
L412.022880 199.106827L412.067520 228.120831L412.380000 196.174453
L412.424640 200.326333L412.603200 234.324412L412.737120 204.773644
L412.781760 190.022296L412.826400 202.823497L413.138880 185.304627
L413.138880 185.304627L413.406720 239.923935L413.496000 203.437078
L413.540640 200.427358L413.585280 201.562318L413.897760 194.558507
L413.942400 276.756851L414.254880 276.949581L414.299520 199.506001
L414.522720 216.549024L414.879840 187.471332L415.013760 195.948104
L415.013760 195.948104L415.103040 188.957646L415.326240 195.231856
L415.594080 224.833638L415.638720 193.440930L415.772640 191.215576
L415.772640 191.215576L415.995840 167.026768L416.129760 273.249289
L416.308320 195.603796L416.442240 188.173651L416.486880 193.729736
L416.665440 183.285027L416.799360 203.964769L417.201120 163.087907
L417.379680 267.323580L417.602880 207.003464L417.915360 179.648348
L418.183200 212.048278L418.317120 178.594131L418.406400 181.952351
L418.495680 176.970454L418.718880 177.229977L418.808160 179.387923
L418.808160 179.387923L419.031360 177.652449L419.165280 208.711456
L419.522400 150.294737L419.745600 383.213380L419.879520 218.988732
L420.013440 154.615155L420.281280 175.265179L420.325920 172.849512
L420.459840 158.394311L420.638400 189.960897L420.727680 153.084705
L420.816960 162.120679L421.174080 248.019455L421.441920 156.825492
L421.575840 163.081049L421.888320 285.473555L421.977600 194.581390
L422.245440 204.246734L422.513280 203.531963L422.557920 232.766045
L422.691840 197.765029L422.915040 202.651801L423.004320 199.684542
L423.004320 199.684542L423.093600 196.800658L423.316800 228.972997
L423.629280 189.333129L423.673920 196.017371L423.852480 293.625616
L424.031040 226.975929L424.298880 193.481374L424.343520 216.905072
L424.522080 194.571842L424.611360 197.785469L424.834560 216.678206
L424.879200 194.502284L425.147040 201.651331L425.280960 193.140285
L425.459520 195.242321L425.504160 193.857444L425.638080 176.250948
L425.772000 214.993795L425.950560 275.541376L426.084480 194.084287
L426.441600 222.079095L426.620160 185.289137L426.754080 207.147401
L426.888000 185.173586L426.888000 185.173586L427.021920 191.027635
L427.066560 178.284717L427.334400 165.931274L427.379040 185.536784
L427.602240 181.446158L427.602240 181.446158L427.691520 187.531661
L427.691520 187.531661L427.914720 186.927751L427.914720 186.927751
L428.093280 211.784426L428.227200 187.638312L428.450400 168.016671
L428.539680 184.922123L428.628960 174.057034L428.852160 168.652153
L428.941440 225.239933L429.343200 157.840720L429.387840 225.922226
L429.655680 174.909433L429.744960 182.445118L429.878880 177.800885
L430.012800 180.189928L430.191360 177.793473L430.369920 251.458308
L430.503840 172.297010L430.771680 192.452728L430.816320 167.090569
L430.994880 171.321839L431.084160 169.601676L431.173440 161.033431
L431.396640 207.635600L431.485920 147.475950L431.753760 163.116391
L432.021600 138.144879L432.066240 151.303065L432.334080 277.604903
L432.557280 230.696414L432.869760 184.067243L432.914400 199.454359
L433.092960 195.715389L433.182240 200.412079L433.494720 282.307749
L433.539360 191.131626L433.807200 191.908352L433.985760 184.873856
L434.119680 185.391665L434.432160 247.619486L434.521440 276.683837
L434.789280 211.703074L435.101760 271.553078L435.414240 174.833051
L435.458880 190.814740L435.816000 215.413718L435.905280 233.411426
L436.128480 191.629517L436.396320 222.983003L436.440960 197.149483
L436.485600 195.002560L436.574880 171.336436L436.798080 195.302856
L436.842720 193.235078L436.887360 212.649736L437.155200 212.556546
L437.423040 188.990427L437.467680 198.201746L437.735520 266.445828
L437.869440 267.925242L438.092640 217.022106L438.181920 182.849678
L438.449760 193.509131L438.717600 179.334907L438.762240 191.195338
L438.985440 218.994185L439.074720 180.739958L439.208640 184.525818
L439.297920 162.862772L439.387200 178.016684L439.699680 153.783078
L439.699680 153.783078L439.788960 209.949302L440.056800 184.929219
L440.235360 170.300099L440.458560 258.631238L440.547840 211.656733
L440.860320 159.272860L440.949600 162.663195L441.217440 177.401245
L441.262080 167.834159L441.529920 173.475928L441.574560 168.550666
L441.619200 167.519126L441.753120 158.060348L441.931680 166.563528
L441.976320 143.144836L442.244160 149.237493L442.467360 180.160384
L442.512000 158.477322L442.556640 135.868072L442.601280 383.654386
L442.869120 205.899443L442.913760 208.403650L443.003040 198.674845
L443.226240 229.331234L443.449440 197.379591L443.583360 205.407041
L443.761920 218.270879L443.806560 194.739048L443.895840 202.743482
L443.940480 197.346879L444.252960 289.157599L444.431520 192.820842
L444.610080 223.989010L444.922560 196.916710L444.967200 200.968755
L445.235040 237.543477L445.279680 200.575813L445.502880 217.559195
L445.592160 196.958886L445.726080 168.355836L445.904640 186.677553
L445.949280 187.732130L446.261760 186.141923L446.306400 229.340458
L446.395680 182.649532L446.663520 191.684942L446.752800 380.956359
L446.976000 199.015796L447.020640 196.872057L447.377760 273.011487
L447.467040 192.760538L447.734880 211.347355L447.958080 188.440122
L448.002720 193.419051L448.225920 211.282020L448.315200 193.151325
L448.583040 236.244148L448.627680 189.719357L448.806240 183.553841
L448.850880 185.967310L449.118720 225.545377L449.163360 213.334051
L449.431200 180.485484L449.475840 189.746209L449.788320 179.980269
L449.788320 179.980269L450.056160 225.945571L450.100800 183.584781
L450.324000 156.284882L450.413280 166.880271L450.770400 210.469833
L451.127520 155.609474L451.306080 181.764984L451.484640 173.087624
L451.663200 166.041492L451.752480 167.432690L451.841760 138.193691
L452.064960 172.667937L452.154240 165.794493L452.332800 168.183878
L452.466720 152.024594L452.600640 156.202321L452.689920 168.481455
L452.957760 163.123332L453.180960 149.391339L453.270240 156.422931
L453.404160 287.708493L453.672000 217.842377L454.029120 183.062386
L454.386240 284.278484L454.743360 169.261216L455.011200 239.722307
L455.100480 202.043207L455.323680 222.017492L455.412960 201.593467
L455.725440 217.278695L455.948640 194.920776L455.993280 196.302596
L456.127200 187.724070L456.305760 200.347958L456.618240 172.372281
L456.707520 278.670083L456.975360 212.700212L457.198560 221.488077
L457.287840 188.949220L457.466400 170.743695L457.644960 219.407469
L457.778880 195.592970L457.778880 195.592970L457.823520 196.945706
L458.136000 191.971304L458.136000 191.971304L458.180640 195.569066
L458.314560 172.622271L458.493120 192.570900L458.760960 190.470357
L458.805600 194.453396L459.028800 211.714755L459.118080 189.777709
L459.252000 190.995080L459.296640 186.706050L459.475200 224.270369
L459.609120 218.938116L459.787680 177.147170L460.010880 184.190395
L460.368000 208.482727L460.725120 172.430480L461.037600 169.304818
L461.082240 183.731927L461.126880 179.026416L461.394720 259.566627
L461.439360 256.240906L461.796480 167.523445L461.975040 163.824952
L462.153600 147.578334L462.287520 177.783626L462.466080 156.567154
L462.644640 168.149803L462.689280 169.151698L463.001760 149.200281
L463.091040 168.074530L463.269600 153.362549L463.537440 140.353856
L463.939200 233.319618L463.983840 203.156166L464.207040 229.365335
L464.251680 203.608355L464.385600 182.252214L464.430240 206.798713
L464.698080 252.908053L464.742720 200.655396L464.832000 218.351356
L464.876640 204.155199L465.144480 199.516823L465.233760 227.894158
L465.501600 187.613431L465.546240 200.484348L465.814080 191.645784
L465.858720 207.860905L466.081920 224.585616L466.171200 202.129411
L466.305120 197.222147L466.483680 204.554940L466.706880 219.880190
L466.706880 219.880190L466.885440 191.865310L467.019360 197.659867
L467.108640 219.950499L467.197920 199.284561L467.465760 192.834916
L467.465760 192.834916L467.644320 215.143109L467.644320 215.143109
L467.867520 194.997368L467.956800 223.336396L468.358560 177.885708
L468.447840 175.721770L468.671040 190.645604L468.849600 213.448044
L469.028160 179.983908L469.340640 175.825476L469.340640 175.825476
L469.429920 168.311868L469.563840 270.270964L469.876320 228.179072
L470.233440 183.805821L470.501280 213.802164L470.590560 195.284553
L470.858400 159.026210L470.903040 183.156344L471.126240 177.970219
L471.260160 218.186131L471.304800 180.991022L471.438720 182.610186
L471.661920 178.621509L471.751200 184.309409L472.019040 170.029589
L472.108320 176.538787L472.286880 220.559075L472.420800 177.182709
L472.688640 156.704946L472.777920 158.682501L472.822560 175.060169
L473.090400 166.912634L473.268960 195.220523L473.402880 157.146285
L473.492160 139.903332L473.715360 161.327046L473.760000 157.413213
L474.027840 238.702659L474.072480 233.381459L474.295680 146.070872
L474.340320 202.775878L474.652800 199.080878L474.652800 199.080878
L474.876000 195.768996L474.965280 196.388158L475.143840 283.631007
L475.322400 222.229259L475.545600 189.076157L475.679520 202.245044
L475.902720 188.116960L475.947360 241.626803L476.036640 175.488941
L476.259840 198.068793L476.572320 191.787943L476.572320 191.787943
L476.750880 232.095400L477.063360 293.776514L477.331200 194.095922
L477.375840 209.277218L477.599040 194.569300L477.688320 273.259818
L477.777600 194.084305L478.045440 211.640562L478.268640 219.810064
L478.357920 195.857498L478.625760 190.881712L478.670400 223.150426
L478.848960 180.760193L478.893600 197.164898L479.072160 183.014114
L479.206080 209.746247L479.429280 220.882008L479.518560 192.029966
L479.786400 158.569334L479.831040 195.565705L479.875680 191.861203
L479.964960 185.123426L480.188160 189.508054L480.322080 179.268158
L480.589920 214.889206L480.634560 192.192812L480.723840 268.561862
L480.947040 194.566177L480.991680 186.767187L481.080960 188.569594
L481.214880 173.554097L481.348800 184.321683L481.482720 231.044155
L481.616640 182.732439L481.705920 184.540961L481.750560 171.136280
L482.018400 266.474748L482.063040 201.144591L482.286240 174.075228
L482.330880 175.377735L482.509440 153.988239L482.688000 256.233222
L482.821920 256.195334L483.045120 169.945599L483.179040 170.864374
L483.312960 164.059235L483.357600 171.366669L483.491520 158.911564
L483.491520 158.911564L483.670080 169.086063L483.759360 162.605913
L484.071840 243.886304L484.384320 161.052869L484.428960 165.701989
L484.518240 159.142165L484.607520 163.962998L484.875360 137.121784
L484.920000 161.643303L485.187840 228.777502L485.321760 222.887289
L485.500320 282.989246L485.634240 199.222540L485.902080 184.444034
L485.946720 206.688857L486.036000 235.034428L486.214560 217.004213
L486.348480 193.580385L486.527040 197.599078L486.750240 191.056090
L486.794880 200.271091L487.062720 198.358893L487.062720 198.358893
L487.152000 195.534388L487.375200 281.057408L487.464480 201.682963
L487.553760 213.611997L487.553760 213.611997L487.643040 189.212194
L487.866240 200.377079L487.910880 198.449941L488.044800 196.155538
L488.044800 196.155538L488.223360 182.189716L488.357280 206.971381
L488.401920 173.134784L488.669760 195.839529L489.026880 274.402815
L489.339360 180.205430L489.384000 216.714196L489.741120 188.046771
L490.008960 184.642196L490.053600 188.054245L490.142880 222.567018
L490.276800 220.888773L490.544640 176.423344L490.544640 176.423344
L490.857120 264.217780L490.901760 202.792716L490.991040 186.288933
L491.169600 172.452284L491.348160 210.233209L491.571360 217.913388
L491.705280 191.299257L491.749920 189.307643L492.017760 179.625679
L492.017760 179.625679L492.107040 179.694789L492.107040 179.694789
L492.240960 152.333880L492.464160 225.196261L492.732000 174.373150
L492.910560 180.931033L492.955200 178.746712L493.044480 179.360778
L493.267680 166.081032L493.356960 177.286141L493.446240 196.336091
L493.580160 177.874639L493.758720 168.014193L493.937280 173.599353
L494.115840 178.908666L494.205120 170.125450L494.294400 171.164578
L494.339040 162.176192L494.562240 148.726860L494.651520 164.503919
L494.740800 165.826893L494.785440 164.689716L494.919360 169.614011
L494.964000 162.915552L495.187200 144.354975L495.276480 155.828333
L495.410400 136.342270L495.455040 230.031982L495.767520 199.481060
L495.812160 204.605258L496.124640 194.446299L496.124640 194.446299
L496.615680 243.042956L496.883520 254.938911L497.017440 198.687042
L497.374560 217.154999L497.419200 212.549821L497.731680 183.275349
L497.776320 210.919246L498.088800 203.073360L498.267360 228.149440
L498.356640 203.042093L498.490560 197.291510L498.669120 202.054001
L498.713760 189.124740L498.803040 200.273625L499.115520 187.650609
L499.115520 187.650609L499.338720 170.952548L499.428000 191.106463
L499.517280 220.244395L499.651200 189.128360L499.874400 182.499091
L499.963680 191.916159L500.052960 206.545277L500.365440 191.604939
L500.365440 191.604939L500.499360 181.858587L500.677920 187.517782
L500.767200 199.601718L500.811840 196.229693L501.079680 228.898452
L501.213600 230.992654L501.436800 187.706457L501.660000 175.153937
L501.749280 224.565564L502.195680 184.276728L502.329600 171.893933
L502.552800 206.956636L502.865280 184.780213L502.909920 187.832356
L503.088480 184.373284L503.222400 209.894906L503.311680 182.561600
L503.311680 182.561600L503.400960 168.767108L503.534880 180.532899
L503.758080 262.237160L503.847360 192.928823L504.025920 162.781147
L504.159840 171.098196L504.383040 254.714870L504.472320 171.330490
L504.695520 174.735226L504.784800 169.402513L504.918720 156.212555
L504.963360 169.065597L505.141920 173.176166L505.320480 152.269626
L505.409760 166.520135L505.677600 159.092682L505.766880 154.070879
L505.900800 157.886077L506.124000 137.087335L506.257920 203.996688
L506.525760 181.715162L506.570400 209.948035L506.882880 199.093676
L506.927520 203.619660L507.150720 200.616052L507.195360 205.413141
L507.284640 201.682263L507.507840 280.770582L507.552480 204.270078
L507.641760 205.358099L507.775680 226.646955L507.820320 201.632710
L508.088160 197.569464L508.088160 197.569464L508.222080 261.678636
L508.356000 221.418631L508.534560 280.682408L508.623840 202.318836
L508.757760 220.585894L508.936320 192.805553L509.293440 222.775754
L509.338080 175.738124L509.605920 193.884599L509.784480 288.562690
L509.963040 207.913407L510.186240 224.369227L510.275520 191.566253
L510.543360 171.022481L510.588000 194.427758L510.677280 195.662904
L510.855840 218.966948L510.989760 209.671697L511.212960 232.059943
L511.346880 190.761019L511.614720 222.577277L511.659360 204.664588
L511.882560 245.379334L511.971840 211.954407L512.061120 184.038616
L512.105760 381.657190L512.373600 188.980171L512.641440 277.731205
L512.686080 219.970892L513.043200 166.977037L513.400320 264.243893
L513.444960 215.750030L513.534240 184.668974L513.802080 176.671964
L513.846720 187.281547L513.980640 177.137872L514.025280 185.308451
L514.203840 179.351660L514.248480 181.751846L514.337760 169.772258
L514.382400 180.895909L514.694880 239.329511L514.739520 203.555875
L515.096640 166.727368L515.364480 248.115872L515.453760 193.017800
L515.721600 142.752946L515.766240 163.786575L516.034080 139.670869
L516.078720 151.761850L516.123360 165.481875L516.391200 156.636904
L516.435840 141.266989L516.703680 149.383434L517.060800 216.013659
L517.105440 201.464686L517.194720 229.624896L517.462560 207.649605
L517.551840 199.561657L517.641120 206.594536L517.730400 201.971644
L517.953600 211.594554L518.087520 226.318669L518.176800 200.146676
L518.266080 190.091158L518.355360 208.248519"/>
</g>
<g id="matplotlib.axis1">
<g id="xtick1">
<g id="line2d2">
<path style="fill: none; stroke: #000000; stroke-width: 0.500000; stroke-linejoin: round; stroke-linecap: butt; stroke-dasharray: 1.000000,3.000000; stroke-dashoffset: 0.000000; opacity: 1.000000" clip-path="url(#p50431ccdcb28178602d99d9270004dde)" d="M72.000000 388.800000L72.000000 43.200000"/>
</g>
<g id="line2d3">
<defs><path id="m30e32995789d870ad79a2e54c91cf9c6" d="M0.000000 0.000000L0.000000 -4.000000"/></defs>
<g ><use style="fill: none; stroke: #000000; stroke-width: 0.500000; stroke-linejoin: round; stroke-linecap: butt;  opacity: 1.000000" xlink:href="#m30e32995789d870ad79a2e54c91cf9c6" x="72.000000" y="388.800000"/>
</g></g>
<g id="line2d4">
<defs><path id="m9281cae24120827b11d5ea8a7ad3e96b" d="M0.000000 0.000000L0.000000 4.000000"/></defs>
<g ><use style="fill: none; stroke: #000000; stroke-width: 0.500000; stroke-linejoin: round; stroke-linecap: butt;  opacity: 1.000000" xlink:href="#m9281cae24120827b11d5ea8a7ad3e96b" x="72.000000" y="43.200000"/>
</g></g>
<g id="text1">
<defs>
<path id="c_7a2040fe3b94fcd41d0a72c84e93b115" d="M31.781250 -66.406250q-7.609375 0.000000 -11.453125 7.500000q-3.828125 7.484375 -3.828125 22.531250q0.000000 14.984375 3.828125 22.484375q3.843750 7.500000 11.453125 7.500000q7.671875 0.000000 11.500000 -7.500000q3.843750 -7.500000 3.843750 -22.484375q0.000000 -15.046875 -3.843750 -22.531250q-3.828125 -7.500000 -11.500000 -7.500000M31.781250 -74.218750q12.265625 0.000000 18.734375 9.703125q6.468750 9.687500 6.468750 28.140625q0.000000 18.406250 -6.468750 28.109375q-6.468750 9.687500 -18.734375 9.687500q-12.250000 0.000000 -18.718750 -9.687500q-6.468750 -9.703125 -6.468750 -28.109375q0.000000 -18.453125 6.468750 -28.140625q6.468750 -9.703125 18.718750 -9.703125"/>
</defs>
<g style="fill: #000000; opacity: 1.000000" transform="translate(68.976562,401.706250)scale(0.120000)">
<use xlink:href="#c_7a2040fe3b94fcd41d0a72c84e93b115"/>
</g>
</g>
</g>
<g id="xtick2">
<g id="line2d5">
<path style="fill: none; stroke: #000000; stroke-width: 0.500000; stroke-linejoin: round; stroke-linecap: butt; stroke-dasharray: 1.000000,3.000000; stroke-dashoffset: 0.000000; opacity: 1.000000" clip-path="url(#p50431ccdcb28178602d99d9270004dde)" d="M161.280000 388.800000L161.280000 43.200000"/>
</g>
<g id="line2d6">
<g ><use style="fill: none; stroke: #000000; stroke-width: 0.500000; stroke-linejoin: round; stroke-linecap: butt;  opacity: 1.000000" xlink:href="#m30e32995789d870ad79a2e54c91cf9c6" x="161.280000" y="388.800000"/>
</g></g>
<g id="line2d7">
<g ><use style="fill: none; stroke: #000000; stroke-width: 0.500000; stroke-linejoin: round; stroke-linecap: butt;  opacity: 1.000000" xlink:href="#m9281cae24120827b11d5ea8a7ad3e96b" x="161.280000" y="43.200000"/>
</g></g>
<g id="text2">
<defs>
<path id="c_ed3f3ed3ebfbd18bcb9c012009a68ad1" d="M19.187500 -8.296875l34.421875 0.000000l0.000000 8.296875l-46.281250 0.000000l0.000000 -8.296875q5.609375 -5.812500 15.296875 -15.593750q9.703125 -9.796875 12.187500 -12.640625q4.734375 -5.312500 6.609375 -9.000000q1.890625 -3.687500 1.890625 -7.250000q0.000000 -5.812500 -4.078125 -9.468750q-4.078125 -3.671875 -10.625000 -3.671875q-4.640625 0.000000 -9.796875 1.609375q-5.140625 1.609375 -11.000000 4.890625l0.000000 -9.968750q5.953125 -2.390625 11.125000 -3.609375q5.187500 -1.218750 9.484375 -1.218750q11.328125 0.000000 18.062500 5.671875q6.734375 5.656250 6.734375 15.125000q0.000000 4.500000 -1.687500 8.531250q-1.671875 4.015625 -6.125000 9.484375q-1.218750 1.421875 -7.765625 8.187500q-6.531250 6.765625 -18.453125 18.921875"/>
</defs>
<g style="fill: #000000; opacity: 1.000000" transform="translate(146.834688,401.706250)scale(0.120000)">
<use xlink:href="#c_ed3f3ed3ebfbd18bcb9c012009a68ad1"/>
<use xlink:href="#c_7a2040fe3b94fcd41d0a72c84e93b115" x="63.623047"/>
<use xlink:href="#c_7a2040fe3b94fcd41d0a72c84e93b115" x="127.246094"/>
<use xlink:href="#c_7a2040fe3b94fcd41d0a72c84e93b115" x="190.869141"/>
</g>
</g>
</g>
<g id="xtick3">
<g id="line2d8">
<path style="fill: none; stroke: #000000; stroke-width: 0.500000; stroke-linejoin: round; stroke-linecap: butt; stroke-dasharray: 1.000000,3.000000; stroke-dashoffset: 0.000000; opacity: 1.000000" clip-path="url(#p50431ccdcb28178602d99d9270004dde)" d="M250.560000 388.800000L250.560000 43.200000"/>
</g>
<g id="line2d9">
<g ><use style="fill: none; stroke: #000000; stroke-width: 0.500000; stroke-linejoin: round; stroke-linecap: butt;  opacity: 1.000000" xlink:href="#m30e32995789d870ad79a2e54c91cf9c6" x="250.560000" y="388.800000"/>
</g></g>
<g id="line2d10">
<g ><use style="fill: none; stroke: #000000; stroke-width: 0.500000; stroke-linejoin: round; stroke-linecap: butt;  opacity: 1.000000" xlink:href="#m9281cae24120827b11d5ea8a7ad3e96b" x="250.560000" y="43.200000"/>
</g></g>
<g id="text3">
<defs>
<path id="c_a0416418d96557a09b8c1332d34883ba" d="M37.796875 -64.312500l-24.906250 38.921875l24.906250 0.000000zM35.203125 -72.906250l12.406250 0.000000l0.000000 47.515625l10.406250 0.000000l0.000000 8.203125l-10.406250 0.000000l0.000000 17.187500l-9.812500 0.000000l0.000000 -17.187500l-32.906250 0.000000l0.000000 -9.515625z"/>
</defs>
<g style="fill: #000000; opacity: 1.000000" transform="translate(235.974063,401.706250)scale(0.120000)">
<use xlink:href="#c_a0416418d96557a09b8c1332d34883ba"/>
<use xlink:href="#c_7a2040fe3b94fcd41d0a72c84e93b115" x="63.623047"/>
<use xlink:href="#c_7a2040fe3b94fcd41d0a72c84e93b115" x="127.246094"/>
<use xlink:href="#c_7a2040fe3b94fcd41d0a72c84e93b115" x="190.869141"/>
</g>
</g>
</g>
<g id="xtick4">
<g id="line2d11">
<path style="fill: none; stroke: #000000; stroke-width: 0.500000; stroke-linejoin: round; stroke-linecap: butt; stroke-dasharray: 1.000000,3.000000; stroke-dashoffset: 0.000000; opacity: 1.000000" clip-path="url(#p50431ccdcb28178602d99d9270004dde)" d="M339.840000 388.800000L339.840000 43.200000"/>
</g>
<g id="line2d12">
<g ><use style="fill: none; stroke: #000000; stroke-width: 0.500000; stroke-linejoin: round; stroke-linecap: butt;  opacity: 1.000000" xlink:href="#m30e32995789d870ad79a2e54c91cf9c6" x="339.840000" y="388.800000"/>
</g></g>
<g id="line2d13">
<g ><use style="fill: none; stroke: #000000; stroke-width: 0.500000; stroke-linejoin: round; stroke-linecap: butt;  opacity: 1.000000" xlink:href="#m9281cae24120827b11d5ea8a7ad3e96b" x="339.840000" y="43.200000"/>
</g></g>
<g id="text4">
<defs>
<path id="c_cc8d6d580d1b10c8632f7a42cd53db8a" d="M33.015625 -40.375000q-6.640625 0.000000 -10.531250 4.546875q-3.875000 4.531250 -3.875000 12.437500q0.000000 7.859375 3.875000 12.437500q3.890625 4.562500 10.531250 4.562500q6.640625 0.000000 10.515625 -4.562500q3.875000 -4.578125 3.875000 -12.437500q0.000000 -7.906250 -3.875000 -12.437500q-3.875000 -4.546875 -10.515625 -4.546875M52.593750 -71.296875l0.000000 8.984375q-3.718750 -1.750000 -7.500000 -2.671875q-3.781250 -0.937500 -7.500000 -0.937500q-9.765625 0.000000 -14.921875 6.593750q-5.140625 6.593750 -5.875000 19.921875q2.875000 -4.250000 7.218750 -6.515625q4.359375 -2.265625 9.578125 -2.265625q10.984375 0.000000 17.359375 6.671875q6.375000 6.656250 6.375000 18.125000q0.000000 11.234375 -6.640625 18.031250q-6.640625 6.781250 -17.671875 6.781250q-12.656250 0.000000 -19.343750 -9.687500q-6.687500 -9.703125 -6.687500 -28.109375q0.000000 -17.281250 8.203125 -27.562500q8.203125 -10.281250 22.015625 -10.281250q3.718750 0.000000 7.500000 0.734375q3.781250 0.734375 7.890625 2.187500"/>
</defs>
<g style="fill: #000000; opacity: 1.000000" transform="translate(325.379062,401.706250)scale(0.120000)">
<use xlink:href="#c_cc8d6d580d1b10c8632f7a42cd53db8a"/>
<use xlink:href="#c_7a2040fe3b94fcd41d0a72c84e93b115" x="63.623047"/>
<use xlink:href="#c_7a2040fe3b94fcd41d0a72c84e93b115" x="127.246094"/>
<use xlink:href="#c_7a2040fe3b94fcd41d0a72c84e93b115" x="190.869141"/>
</g>
</g>
</g>
<g id="xtick5">
<g id="line2d14">
<path style="fill: none; stroke: #000000; stroke-width: 0.500000; stroke-linejoin: round; stroke-linecap: butt; stroke-dasharray: 1.000000,3.000000; stroke-dashoffset: 0.000000; opacity: 1.000000" clip-path="url(#p50431ccdcb28178602d99d9270004dde)" d="M429.120000 388.800000L429.120000 43.200000"/>
</g>
<g id="line2d15">
<g ><use style="fill: none; stroke: #000000; stroke-width: 0.500000; stroke-linejoin: round; stroke-linecap: butt;  opacity: 1.000000" xlink:href="#m30e32995789d870ad79a2e54c91cf9c6" x="429.120000" y="388.800000"/>
</g></g>
<g id="line2d16">
<g ><use style="fill: none; stroke: #000000; stroke-width: 0.500000; stroke-linejoin: round; stroke-linecap: butt;  opacity: 1.000000" xlink:href="#m9281cae24120827b11d5ea8a7ad3e96b" x="429.120000" y="43.200000"/>
</g></g>
<g id="text5">
<defs>
<path id="c_bef35738d52871942e50b9de9b122bab" d="M31.781250 -34.625000q-7.031250 0.000000 -11.062500 3.765625q-4.015625 3.765625 -4.015625 10.343750q0.000000 6.593750 4.015625 10.359375q4.031250 3.765625 11.062500 3.765625q7.031250 0.000000 11.078125 -3.781250q4.062500 -3.796875 4.062500 -10.343750q0.000000 -6.578125 -4.031250 -10.343750q-4.015625 -3.765625 -11.109375 -3.765625M21.921875 -38.812500q-6.343750 -1.562500 -9.890625 -5.906250q-3.531250 -4.359375 -3.531250 -10.609375q0.000000 -8.734375 6.218750 -13.812500q6.234375 -5.078125 17.062500 -5.078125q10.890625 0.000000 17.093750 5.078125q6.203125 5.078125 6.203125 13.812500q0.000000 6.250000 -3.546875 10.609375q-3.531250 4.343750 -9.828125 5.906250q7.125000 1.656250 11.093750 6.500000q3.984375 4.828125 3.984375 11.796875q0.000000 10.609375 -6.468750 16.281250q-6.468750 5.656250 -18.531250 5.656250q-12.046875 0.000000 -18.531250 -5.656250q-6.468750 -5.671875 -6.468750 -16.281250q0.000000 -6.968750 4.000000 -11.796875q4.015625 -4.843750 11.140625 -6.500000M18.312500 -54.390625q0.000000 5.656250 3.531250 8.828125q3.546875 3.171875 9.937500 3.171875q6.359375 0.000000 9.937500 -3.171875q3.593750 -3.171875 3.593750 -8.828125q0.000000 -5.671875 -3.593750 -8.843750q-3.578125 -3.171875 -9.937500 -3.171875q-6.390625 0.000000 -9.937500 3.171875q-3.531250 3.171875 -3.531250 8.843750"/>
</defs>
<g style="fill: #000000; opacity: 1.000000" transform="translate(414.643438,401.706250)scale(0.120000)">
<use xlink:href="#c_bef35738d52871942e50b9de9b122bab"/>
<use xlink:href="#c_7a2040fe3b94fcd41d0a72c84e93b115" x="63.623047"/>
<use xlink:href="#c_7a2040fe3b94fcd41d0a72c84e93b115" x="127.246094"/>
<use xlink:href="#c_7a2040fe3b94fcd41d0a72c84e93b115" x="190.869141"/>
</g>
</g>
</g>
<g id="xtick6">
<g id="line2d17">
<path style="fill: none; stroke: #000000; stroke-width: 0.500000; stroke-linejoin: round; stroke-linecap: butt; stroke-dasharray: 1.000000,3.000000; stroke-dashoffset: 0.000000; opacity: 1.000000" clip-path="url(#p50431ccdcb28178602d99d9270004dde)" d="M518.400000 388.800000L518.400000 43.200000"/>
</g>
<g id="line2d18">
<g ><use style="fill: none; stroke: #000000; stroke-width: 0.500000; stroke-linejoin: round; stroke-linecap: butt;  opacity: 1.000000" xlink:href="#m30e32995789d870ad79a2e54c91cf9c6" x="518.400000" y="388.800000"/>
</g></g>
<g id="line2d19">
<g ><use style="fill: none; stroke: #000000; stroke-width: 0.500000; stroke-linejoin: round; stroke-linecap: butt;  opacity: 1.000000" xlink:href="#m9281cae24120827b11d5ea8a7ad3e96b" x="518.400000" y="43.200000"/>
</g></g>
<g id="text6">
<defs>
<path id="c_42baa63129a918535c52adb20d687ea7" d="M12.406250 -8.296875l16.109375 0.000000l0.000000 -55.625000l-17.531250 3.515625l0.000000 -8.984375l17.437500 -3.515625l9.859375 0.000000l0.000000 64.609375l16.109375 0.000000l0.000000 8.296875l-41.984375 0.000000z"/>
</defs>
<g style="fill: #000000; opacity: 1.000000" transform="translate(500.353125,401.706250)scale(0.120000)">
<use xlink:href="#c_42baa63129a918535c52adb20d687ea7"/>
<use xlink:href="#c_7a2040fe3b94fcd41d0a72c84e93b115" x="63.623047"/>
<use xlink:href="#c_7a2040fe3b94fcd41d0a72c84e93b115" x="127.246094"/>
<use xlink:href="#c_7a2040fe3b94fcd41d0a72c84e93b115" x="190.869141"/>
<use xlink:href="#c_7a2040fe3b94fcd41d0a72c84e93b115" x="254.492188"/>
</g>
</g>
</g>
</g>
<g id="matplotlib.axis2">
<g id="ytick1">
<g id="line2d20">
<path style="fill: none; stroke: #000000; stroke-width: 0.500000; stroke-linejoin: round; stroke-linecap: butt; stroke-dasharray: 1.000000,3.000000; stroke-dashoffset: 0.000000; opacity: 1.000000" clip-path="url(#p50431ccdcb28178602d99d9270004dde)" d="M72.000000 388.800000L518.400000 388.800000"/>
</g>
<g id="line2d21">
<defs><path id="m3400efa6b1638b3fea9e19e898273957" d="M0.000000 0.000000L4.000000 0.000000"/></defs>
<g ><use style="fill: none; stroke: #000000; stroke-width: 0.500000; stroke-linejoin: round; stroke-linecap: butt;  opacity: 1.000000" xlink:href="#m3400efa6b1638b3fea9e19e898273957" x="72.000000" y="388.800000"/>
</g></g>
<g id="line2d22">
<defs><path id="m20b58b2501143cb5e0a5e8f1ef6f1643" d="M0.000000 0.000000L-4.000000 0.000000"/></defs>
<g ><use style="fill: none; stroke: #000000; stroke-width: 0.500000; stroke-linejoin: round; stroke-linecap: butt;  opacity: 1.000000" xlink:href="#m20b58b2501143cb5e0a5e8f1ef6f1643" x="518.400000" y="388.800000"/>
</g></g>
<g id="text7">
<g style="fill: #000000; opacity: 1.000000" transform="translate(61.953125,393.167188)scale(0.120000)">
<use xlink:href="#c_7a2040fe3b94fcd41d0a72c84e93b115"/>
</g>
</g>
</g>
<g id="ytick2">
<g id="line2d23">
<path style="fill: none; stroke: #000000; stroke-width: 0.500000; stroke-linejoin: round; stroke-linecap: butt; stroke-dasharray: 1.000000,3.000000; stroke-dashoffset: 0.000000; opacity: 1.000000" clip-path="url(#p50431ccdcb28178602d99d9270004dde)" d="M72.000000 319.680000L518.400000 319.680000"/>
</g>
<g id="line2d24">
<g ><use style="fill: none; stroke: #000000; stroke-width: 0.500000; stroke-linejoin: round; stroke-linecap: butt;  opacity: 1.000000" xlink:href="#m3400efa6b1638b3fea9e19e898273957" x="72.000000" y="319.680000"/>
</g></g>
<g id="line2d25">
<g ><use style="fill: none; stroke: #000000; stroke-width: 0.500000; stroke-linejoin: round; stroke-linecap: butt;  opacity: 1.000000" xlink:href="#m20b58b2501143cb5e0a5e8f1ef6f1643" x="518.400000" y="319.680000"/>
</g></g>
<g id="text8">
<defs>
<path id="c_1260a2df50f305f3db244e29828f968e" d="M10.796875 -72.906250l38.718750 0.000000l0.000000 8.312500l-29.687500 0.000000l0.000000 17.859375q2.140625 -0.734375 4.281250 -1.093750q2.156250 -0.359375 4.312500 -0.359375q12.203125 0.000000 19.328125 6.687500q7.140625 6.687500 7.140625 18.109375q0.000000 11.765625 -7.328125 18.296875q-7.328125 6.515625 -20.656250 6.515625q-4.593750 0.000000 -9.359375 -0.781250q-4.750000 -0.781250 -9.828125 -2.343750l0.000000 -9.921875q4.390625 2.390625 9.078125 3.562500q4.687500 1.171875 9.906250 1.171875q8.453125 0.000000 13.375000 -4.437500q4.937500 -4.437500 4.937500 -12.062500q0.000000 -7.609375 -4.937500 -12.046875q-4.921875 -4.453125 -13.375000 -4.453125q-3.953125 0.000000 -7.890625 0.875000q-3.921875 0.875000 -8.015625 2.734375z"/>
</defs>
<g style="fill: #000000; opacity: 1.000000" transform="translate(62.328125,323.969063)scale(0.120000)">
<use xlink:href="#c_1260a2df50f305f3db244e29828f968e"/>
</g>
</g>
</g>
<g id="ytick3">
<g id="line2d26">
<path style="fill: none; stroke: #000000; stroke-width: 0.500000; stroke-linejoin: round; stroke-linecap: butt; stroke-dasharray: 1.000000,3.000000; stroke-dashoffset: 0.000000; opacity: 1.000000" clip-path="url(#p50431ccdcb28178602d99d9270004dde)" d="M72.000000 250.560000L518.400000 250.560000"/>
</g>
<g id="line2d27">
<g ><use style="fill: none; stroke: #000000; stroke-width: 0.500000; stroke-linejoin: round; stroke-linecap: butt;  opacity: 1.000000" xlink:href="#m3400efa6b1638b3fea9e19e898273957" x="72.000000" y="250.560000"/>
</g></g>
<g id="line2d28">
<g ><use style="fill: none; stroke: #000000; stroke-width: 0.500000; stroke-linejoin: round; stroke-linecap: butt;  opacity: 1.000000" xlink:href="#m20b58b2501143cb5e0a5e8f1ef6f1643" x="518.400000" y="250.560000"/>
</g></g>
<g id="text9">
<g style="fill: #000000; opacity: 1.000000" transform="translate(54.828125,254.927188)scale(0.120000)">
<use xlink:href="#c_42baa63129a918535c52adb20d687ea7"/>
<use xlink:href="#c_7a2040fe3b94fcd41d0a72c84e93b115" x="63.623047"/>
</g>
</g>
</g>
<g id="ytick4">
<g id="line2d29">
<path style="fill: none; stroke: #000000; stroke-width: 0.500000; stroke-linejoin: round; stroke-linecap: butt; stroke-dasharray: 1.000000,3.000000; stroke-dashoffset: 0.000000; opacity: 1.000000" clip-path="url(#p50431ccdcb28178602d99d9270004dde)" d="M72.000000 181.440000L518.400000 181.440000"/>
</g>
<g id="line2d30">
<g ><use style="fill: none; stroke: #000000; stroke-width: 0.500000; stroke-linejoin: round; stroke-linecap: butt;  opacity: 1.000000" xlink:href="#m3400efa6b1638b3fea9e19e898273957" x="72.000000" y="181.440000"/>
</g></g>
<g id="line2d31">
<g ><use style="fill: none; stroke: #000000; stroke-width: 0.500000; stroke-linejoin: round; stroke-linecap: butt;  opacity: 1.000000" xlink:href="#m20b58b2501143cb5e0a5e8f1ef6f1643" x="518.400000" y="181.440000"/>
</g></g>
<g id="text10">
<g style="fill: #000000; opacity: 1.000000" transform="translate(55.078125,185.729062)scale(0.120000)">
<use xlink:href="#c_42baa63129a918535c52adb20d687ea7"/>
<use xlink:href="#c_1260a2df50f305f3db244e29828f968e" x="63.623047"/>
</g>
</g>
</g>
<g id="ytick5">
<g id="line2d32">
<path style="fill: none; stroke: #000000; stroke-width: 0.500000; stroke-linejoin: round; stroke-linecap: butt; stroke-dasharray: 1.000000,3.000000; stroke-dashoffset: 0.000000; opacity: 1.000000" clip-path="url(#p50431ccdcb28178602d99d9270004dde)" d="M72.000000 112.320000L518.400000 112.320000"/>
</g>
<g id="line2d33">
<g ><use style="fill: none; stroke: #000000; stroke-width: 0.500000; stroke-linejoin: round; stroke-linecap: butt;  opacity: 1.000000" xlink:href="#m3400efa6b1638b3fea9e19e898273957" x="72.000000" y="112.320000"/>
</g></g>
<g id="line2d34">
<g ><use style="fill: none; stroke: #000000; stroke-width: 0.500000; stroke-linejoin: round; stroke-linecap: butt;  opacity: 1.000000" xlink:href="#m20b58b2501143cb5e0a5e8f1ef6f1643" x="518.400000" y="112.320000"/>
</g></g>
<g id="text11">
<g style="fill: #000000; opacity: 1.000000" transform="translate(54.390625,116.687187)scale(0.120000)">
<use xlink:href="#c_ed3f3ed3ebfbd18bcb9c012009a68ad1"/>
<use xlink:href="#c_7a2040fe3b94fcd41d0a72c84e93b115" x="63.623047"/>
</g>
</g>
</g>
<g id="ytick6">
<g id="line2d35">
<path style="fill: none; stroke: #000000; stroke-width: 0.500000; stroke-linejoin: round; stroke-linecap: butt; stroke-dasharray: 1.000000,3.000000; stroke-dashoffset: 0.000000; opacity: 1.000000" clip-path="url(#p50431ccdcb28178602d99d9270004dde)" d="M72.000000 43.200000L518.400000 43.200000"/>
</g>
<g id="line2d36">
<g ><use style="fill: none; stroke: #000000; stroke-width: 0.500000; stroke-linejoin: round; stroke-linecap: butt;  opacity: 1.000000" xlink:href="#m3400efa6b1638b3fea9e19e898273957" x="72.000000" y="43.200000"/>
</g></g>
<g id="line2d37">
<g ><use style="fill: none; stroke: #000000; stroke-width: 0.500000; stroke-linejoin: round; stroke-linecap: butt;  opacity: 1.000000" xlink:href="#m20b58b2501143cb5e0a5e8f1ef6f1643" x="518.400000" y="43.200000"/>
</g></g>
<g id="text12">
<g style="fill: #000000; opacity: 1.000000" transform="translate(54.640625,47.567187)scale(0.120000)">
<use xlink:href="#c_ed3f3ed3ebfbd18bcb9c012009a68ad1"/>
<use xlink:href="#c_1260a2df50f305f3db244e29828f968e" x="63.623047"/>
</g>
</g>
</g>
</g>
<g id="patch3">
<path style="fill: none; stroke: #000000; stroke-width: 1.000000; stroke-linejoin: round; stroke-linecap: square;  opacity: 1.000000"  d="M72.000000 43.200000L518.400000 43.200000"/>
</g>
<g id="patch4">
<path style="fill: none; stroke: #000000; stroke-width: 1.000000; stroke-linejoin: round; stroke-linecap: square;  opacity: 1.000000"  d="M518.400000 388.800000L518.400000 43.200000"/>
</g>
<g id="patch5">
<path style="fill: none; stroke: #000000; stroke-width: 1.000000; stroke-linejoin: round; stroke-linecap: square;  opacity: 1.000000"  d="M72.000000 388.800000L518.400000 388.800000"/>
</g>
<g id="patch6">
<path style="fill: none; stroke: #000000; stroke-width: 1.000000; stroke-linejoin: round; stroke-linecap: square;  opacity: 1.000000"  d="M72.000000 388.800000L72.000000 43.200000"/>
</g>
</g>
</g>
</svg>
