<?xml version="1.0" standalone="no"?>
<!DOCTYPE svg PUBLIC "-//W3C//DTD SVG 1.1//EN"
  "http://www.w3.org/Graphics/SVG/1.1/DTD/svg11.dtd">
<!-- Created with matplotlib (http://matplotlib.sourceforge.net/) -->
<svg width="576pt" height="432pt" viewBox="0 0 576 432"
   xmlns="http://www.w3.org/2000/svg"
   xmlns:xlink="http://www.w3.org/1999/xlink"
   version="1.1"
   id="svg1">
<g id="figure1">
<g id="patch1">
<path style="fill: #ffffff; stroke: #ffffff; stroke-width: 1.000000; stroke-linejoin: round; stroke-linecap: square;  opacity: 1.000000"  d="M0.000000 432.000000L576.000000 432.000000L576.000000 0.000000
L0.000000 0.000000L0.000000 432.000000"/>
</g>
<g id="axes1">
<g id="patch2">
<path style="fill: #ffffff; opacity: 1.000000"  d="M72.000000 388.800000L518.400000 388.800000L518.400000 43.200000
L72.000000 43.200000L72.000000 388.800000"/>
</g>
<g id="line2d1">
<defs>
  <clipPath id="p50431ccdcb28178602d99d9270004dde">
<rect x="72.000000" y="43.200000" width="446.400000" height="345.600000"/>
  </clipPath>
</defs><path style="fill: none; stroke: #ff0000; stroke-width: 1.000000; stroke-linejoin: round; stroke-linecap: square;  opacity: 1.000000" clip-path="url(#p50431ccdcb28178602d99d9270004dde)" d="M72.000000 323.656888L72.044640 326.234753L72.357120 327.884049
L72.491040 324.516061L72.580320 324.656179L72.714240 345.378574
L72.937440 345.083328L73.026720 313.780792L73.294560 327.151388
L73.383840 318.810908L73.473120 322.598016L73.562400 315.110615
L73.785600 324.766426L74.098080 326.453956L74.142720 317.090189
L74.276640 344.629601L74.365920 324.066344L74.589120 327.814007
L74.812320 344.537084L74.856960 324.114509L75.169440 345.368333
L75.214080 344.349527L75.258720 312.759982L75.526560 323.937573
L75.615840 320.052096L75.972960 344.944696L76.151520 302.715671
L76.330080 328.372566L76.508640 313.829453L76.597920 324.431965
L76.687200 345.170995L76.955040 344.828125L77.088960 312.805198
L77.267520 336.474063L77.356800 324.011497L77.535360 336.150789
L77.713920 336.724808L77.758560 324.440893L77.937120 345.215336
L78.071040 345.111471L78.115680 323.707438L78.428160 323.780993
L78.651360 345.410461L78.740640 336.081946L79.053120 324.187373
L79.231680 313.306030L79.365600 343.607224L79.410240 322.171407
L79.678080 323.689179L80.035200 345.410646L80.124480 341.098894
L80.303040 345.158231L80.436960 312.547956L80.615520 344.086963
L80.660160 345.278799L80.794080 312.892428L81.061920 323.967709
L81.151200 344.389329L81.419040 335.713939L81.552960 344.741610
L81.686880 323.907967L82.044000 345.075264L82.177920 323.740477
L82.445760 324.090582L82.758240 323.907011L82.802880 336.944966
L82.981440 344.847617L83.249280 344.869713L83.338560 336.413157
L83.427840 345.265920L83.606400 336.442614L83.963520 323.999101
L84.052800 345.170995L84.231360 335.828667L84.320640 345.452890
L84.543840 325.542228L84.811680 323.946904L84.900960 336.098650
L85.079520 319.013683L85.124160 335.804325L85.302720 323.035327
L85.347360 324.890220L85.436640 344.945641L85.436640 344.945641
L85.927680 323.436257L86.284800 345.285550L86.329440 322.967255
L86.597280 335.840913L86.865120 335.362810L86.909760 345.131562
L87.222240 345.198632L87.356160 325.637752L87.624000 345.274007
L87.757920 344.887649L87.936480 313.756381L88.070400 324.018317
L88.338240 323.397953L88.427520 344.825971L88.740000 322.752557
L88.963200 345.327218L89.097120 345.233491L89.320320 324.524125
L89.409600 336.399621L89.632800 334.085460L89.722080 344.431907
L90.034560 345.089894L90.034560 345.089894L90.302400 345.658660
L90.347040 335.548800L90.436320 337.011345L90.570240 335.278760
L90.614880 344.941574L90.882720 345.881699L90.927360 300.941280
L91.150560 344.504402L91.284480 336.002515L91.463040 345.077119
L91.552320 324.129969L91.641600 314.283087L91.909440 335.770595
L92.132640 338.458740L92.132640 338.458740L92.355840 345.034057
L92.400480 343.778849L92.668320 344.772426L92.757600 335.995995
L92.980800 323.385777L93.025440 336.610149L93.114720 325.025361
L93.159360 335.787529L93.337920 324.107954L93.516480 344.868123
L93.650400 344.490071L93.962880 344.954857L94.007520 324.197257
L94.052160 345.178610L94.364640 344.385228L94.453920 345.346894
L94.677120 344.944143L94.855680 345.008748L95.034240 333.675141
L95.346720 345.397133L95.480640 344.481132L95.837760 321.261085
L95.882400 345.682230L96.194880 336.516492L96.284160 324.839658
L96.328800 345.620678L96.596640 345.230358L96.685920 325.238953
L96.909120 344.677271L97.176960 323.624805L97.310880 336.463235
L97.534080 324.465754L97.623360 345.201708L97.712640 345.822348
L97.935840 336.408157L98.159040 344.765503L98.248320 344.532591
L98.337600 334.140526L98.382240 336.311493L98.694720 345.143025
L98.739360 324.287136L99.007200 339.244105L99.185760 336.259596
L99.275040 339.443401L99.498240 345.034541L99.587520 344.773567
L99.632160 326.067587L99.944640 329.614502L100.033920 345.199404
L100.257120 324.165024L100.524960 344.959949L100.569600 332.066961
L100.614240 333.337467L100.926720 345.020613L101.105280 323.838121
L101.194560 335.592714L101.328480 326.297975L101.417760 335.972356
L101.596320 344.951942L101.596320 344.951942L101.908800 335.697016
L102.042720 324.970410L102.221280 335.528836L102.489120 336.864868
L102.533760 335.105603L102.890880 345.115515L103.069440 345.157379
L103.114080 336.112716L103.292640 335.913039L103.292640 335.913039
L103.515840 345.167562L103.605120 336.682022L103.739040 333.457609
L103.828320 337.595098L104.185440 345.082222L104.587200 324.739572
L104.765760 344.985270L104.944320 344.642135L105.256800 344.784822
L105.256800 344.784822L105.569280 313.177202L105.613920 334.975956
L105.747840 344.936713L105.881760 344.525875L106.104960 313.556026
L106.283520 323.993699L106.417440 344.745020L106.640640 336.191213
L106.997760 345.149718L107.131680 330.338269L107.354880 336.256151
L107.444160 335.825050L107.667360 344.903178L107.979840 333.394237
L108.024480 335.950664L108.336960 344.572278L108.336960 344.572278
L108.649440 330.770984L108.694080 336.165558L108.961920 345.014842
L109.095840 345.121194L109.319040 336.494534L109.586880 345.374081
L109.631520 324.049398L109.854720 335.515058L110.122560 345.595162
L110.256480 315.313309L110.435040 335.944431L110.613600 321.713268
L110.702880 321.540307L110.970720 336.546616L111.149280 338.947338
L111.238560 334.463800L111.327840 344.235502L111.551040 344.208787
L111.729600 344.628622L111.863520 332.290668L111.997440 344.989809
L112.042080 335.370724L112.176000 344.930596L112.309920 335.884792
L112.756320 321.506657L112.800960 345.557929L113.068800 345.143151
L113.292000 345.149119L113.381280 344.657537L113.693760 324.606828
L113.738400 336.899301L114.140160 345.435564L114.184800 306.535242
L114.452640 335.116189L114.541920 314.845298L114.541920 314.845298
L114.675840 344.861142L114.809760 330.010237L114.943680 344.840878
L115.166880 335.642964L115.434720 345.077096L115.791840 318.129869
L116.015040 344.759662L116.238240 336.460838L116.372160 336.611912
L116.640000 345.219011L116.729280 323.314860L116.952480 334.831507
L117.086400 344.805350L117.264960 336.362458L117.488160 341.147762
L117.532800 329.449962L117.756000 325.759323L117.800640 334.977903
L118.157760 313.980687L118.425600 344.964799L118.470240 336.013540
L118.648800 344.965605L118.693440 336.300687L119.005920 335.554860
L119.005920 335.554860L119.184480 344.725563L119.273760 336.168242
L119.363040 344.407692L119.630880 329.263246L119.809440 326.402945
L119.943360 336.501377L120.211200 345.081473L120.255840 335.899860
L120.479040 325.246925L120.568320 344.782472L120.702240 337.463885
L120.836160 345.173518L121.014720 344.926771L121.237920 327.717193
L121.327200 336.519832L121.416480 335.497605L121.684320 324.550552
L121.728960 336.203942L121.862880 331.152998L121.996800 344.956435
L122.175360 334.708197L122.353920 344.455603L122.398560 314.999470
L122.666400 336.650412L122.978880 345.254918L123.023520 314.974426
L123.157440 336.417420L123.336000 345.309627L123.469920 345.222305
L123.559200 325.172045L123.782400 333.989222L124.005600 332.507002
L124.050240 341.136553L124.273440 310.512557L124.362720 336.461414
L124.675200 344.450350L124.943040 325.621981L124.987680 328.357740
L125.032320 344.703110L125.255520 335.387739L125.389440 335.780732
L125.389440 335.780732L125.657280 345.199876L125.835840 344.928591
L126.059040 331.904920L126.103680 336.231314L126.326880 344.988369
L126.639360 345.507782L126.639360 345.507782L126.773280 344.313112
L127.041120 324.716417L127.085760 344.074614L127.219680 325.840124
L127.398240 334.572422L127.576800 344.860232L127.621440 335.592910
L127.800000 341.477695L127.800000 341.477695L127.889280 344.741887
L128.157120 321.688040L128.201760 337.177025L128.514240 325.807949
L128.782080 344.749467L128.871360 336.527194L129.094560 326.226851
L129.183840 336.000534L129.407040 324.679162L129.451680 334.807200
L129.630240 325.567619L129.764160 344.591574L130.165920 322.455053
L130.523040 345.266968L130.880160 326.139080L131.103360 344.647031
L131.326560 344.515956L131.683680 327.983593L131.906880 344.345518
L131.996160 336.242108L132.442560 345.099928L132.755040 328.671084
L132.799680 336.109029L133.201440 345.599205L133.335360 325.240785
L133.558560 330.472984L133.826400 324.081481L133.871040 337.107030
L134.094240 341.305137L134.094240 341.305137L134.228160 335.516406
L134.228160 335.516406L134.317440 344.544826L134.496000 336.067730
L134.629920 331.155233L134.853120 345.076681L134.987040 344.728431
L135.165600 326.409546L135.299520 335.824716L135.433440 326.416343
L135.522720 340.949964L135.879840 327.309800L135.969120 325.438226
L136.103040 336.049079L136.370880 336.240887L136.370880 336.240887
L136.638720 345.527804L136.772640 333.228695L136.951200 344.934006
L137.219040 345.264699L137.308320 335.702235L137.665440 345.013574
L137.977920 326.460603L138.156480 344.666615L138.335040 335.855002
L138.647520 345.236844L138.692160 344.047265L138.960000 329.246968
L139.272480 328.406619L139.406400 344.495923L139.495680 345.476529
L139.629600 345.104202L139.808160 335.929501L139.942080 336.584978
L140.343840 344.925331L140.656320 336.129270L140.790240 344.846039
L140.879520 344.676027L141.102720 345.156860L141.236640 325.115493
L141.281280 344.532453L141.593760 336.815205L141.906240 345.126678
L142.129440 345.196028L142.129440 345.196028L142.486560 311.460388
L142.531200 330.161484L142.620480 345.449802L142.843680 336.372768
L143.156160 335.748073L143.200800 345.059378L143.290080 325.267672
L143.424000 335.650568L143.602560 345.120745L143.647200 325.927215
L143.825760 336.115331L144.004320 328.921367L144.138240 344.253370
L144.316800 264.118003L144.406080 336.394518L144.718560 326.818921
L145.031040 344.950548L145.388160 321.556458L145.522080 314.955890
L145.700640 336.394737L145.834560 344.353605L146.013120 329.594665
L146.280960 344.757335L146.414880 340.599640L146.593440 340.864128
L146.638080 336.265148L146.861280 344.830579L146.905920 336.379738
L147.039840 333.887201L147.129120 328.627365L147.307680 344.508872
L147.530880 344.901151L147.575520 336.131562L147.977280 344.805039
L148.245120 324.989891L148.289760 328.435327L148.557600 313.856571
L148.602240 336.416820L148.780800 345.164970L148.914720 328.521531
L149.137920 336.493083L149.405760 336.290584L149.405760 336.290584
L149.584320 335.669829L149.718240 344.554744L149.762880 325.450230
L150.030720 336.229309L150.298560 344.538616L150.432480 328.321590
L150.655680 336.130963L150.700320 334.853499L150.789600 324.985882
L150.968160 337.466362L151.057440 344.779845L151.280640 344.584708
L151.548480 345.045600L151.637760 329.460641L151.994880 345.168035
L152.218080 329.310616L152.352000 335.681591L152.441280 344.942934
L152.485920 322.212534L152.709120 335.809567L153.021600 344.777933
L153.110880 336.020325L153.423360 344.618634L153.601920 321.728878
L153.691200 336.062051L153.959040 335.495670L154.048320 344.953417
L154.271520 345.209299L154.360800 336.313313L154.673280 345.135560
L154.985760 329.611553L155.030400 335.933844L155.253600 332.865746
L155.610720 344.764512L155.789280 329.604180L155.923200 336.390739
L156.191040 328.055167L156.235680 341.200593L156.503520 329.596289
L156.592800 318.364762L156.771360 335.740124L156.905280 343.805645
L157.083840 336.331158L157.262400 328.058634L157.530240 344.969303
L157.619520 344.817158L157.932000 345.009254L157.976640 336.283096
L158.155200 324.499853L158.244480 336.268662L158.467680 336.123510
L158.512320 344.626664L158.780160 345.157137L158.869440 336.347459
L158.914080 334.084804L159.003360 334.950866L159.226560 344.821559
L159.315840 335.705576L159.539040 333.150267L159.583680 336.229298
L159.851520 336.464732L159.896160 335.437955L160.119360 345.098972
L160.164000 324.702824L160.297920 335.754674L160.565760 336.019334
L160.565760 336.019334L160.788960 344.460407L160.878240 327.830446
L161.101440 344.878053L161.190720 344.331268L161.413920 324.489554
L161.547840 327.705108L161.592480 345.153888L161.904960 344.978669
L162.038880 335.970305L162.396000 345.430483L162.663840 336.606348
L162.887040 345.103430L162.931680 324.916255L163.199520 335.981848
L163.422720 335.318769L163.556640 344.872938L163.824480 332.044923
L163.869120 336.478015L164.136960 335.604557L164.136960 335.604557
L164.315520 336.952846L164.628000 344.801100L164.761920 330.041295
L164.985120 335.050364L165.342240 344.523871L165.699360 335.959949
L166.011840 344.431584L166.324320 325.948493L166.547520 344.956067
L166.636800 335.015459L166.904640 345.379530L166.949280 335.501937
L167.038560 345.110561L167.127840 335.417702L167.440320 345.038815
L167.708160 345.091104L167.752800 336.558563L167.976000 336.166376
L167.976000 336.166376L168.199200 345.171744L168.243840 336.267971
L168.422400 327.142253L168.556320 333.846847L168.734880 325.624596
L168.824160 344.140646L169.136640 344.400365L169.181280 337.881370
L169.449120 330.243610L169.493760 335.793946L169.672320 335.939213
L169.672320 335.939213L169.984800 344.539434L170.118720 313.277702
L170.341920 336.066002L170.743680 324.958234L170.788320 328.263137
L171.100800 344.300072L171.234720 334.410774L171.279360 335.742889
L171.636480 344.931540L171.770400 335.635857L172.082880 336.873957
L172.306080 345.819444L172.440000 344.847629L172.797120 325.005327
L172.975680 312.927921L173.109600 335.382025L173.422080 344.380977
L173.422080 344.380977L173.779200 320.190912L174.002400 345.031281
L174.136320 344.106685L174.225600 345.640020L174.582720 261.966897
L174.850560 344.370447L174.939840 335.771251L175.029120 335.643736
L175.029120 335.643736L175.163040 345.375867L175.341600 336.870858
L175.698720 345.556892L175.832640 324.417324L175.921920 336.032997
L176.279040 345.284916L176.323680 326.658378L176.591520 333.840637
L176.814720 338.839730L177.037920 325.520225L177.082560 334.962040
L177.350400 345.089307L177.395040 335.945629L177.573600 325.095840
L177.752160 344.930538L177.796800 327.537734L178.064640 340.704622
L178.153920 329.706513L178.377120 333.440870L178.689600 344.986364
L179.002080 322.697883L179.180640 344.595226L179.269920 330.306348
L179.671680 345.165362L179.805600 344.527165L180.073440 335.251377
L180.162720 336.600645L180.430560 345.218124L180.475200 332.330492
L180.698400 335.812159L180.876960 345.153024L180.921600 336.118856
L181.234080 257.702492L181.323360 345.009704L181.501920 335.814336
L181.814400 345.317702L182.082240 325.224138L182.305440 329.134694
L182.394720 325.825044L182.617920 344.226148L182.885760 324.384146
L182.930400 327.267683L183.198240 324.749618L183.242880 336.378701
L183.466080 327.764310L183.555360 344.573603L183.912480 326.632009
L184.135680 344.962195L184.269600 336.139142L184.358880 345.021846
L184.492800 329.124292L184.716000 345.025820L184.849920 335.582081
L185.117760 336.492138L185.117760 336.492138L185.385600 328.732404
L185.430240 336.680041L185.608800 326.921530L185.832000 345.003967
L185.876640 333.427058L186.189120 335.990362L186.546240 344.918408
L186.590880 325.098282L186.858720 336.824387L186.992640 336.285297
L187.126560 336.689821L187.349760 345.400888L187.439040 335.775191
L187.572960 345.213642L188.064000 344.979510L188.510400 325.128419
L188.912160 344.449405L189.046080 344.720079L189.135360 336.560694
L189.313920 344.612552L189.715680 335.488689L189.804960 325.684189
L189.938880 335.212669L190.162080 331.585597L190.162080 331.585597
L190.296000 328.887729L190.340640 330.546977L190.653120 345.268431
L190.697760 343.987707L191.010240 336.362895L191.144160 332.371630
L191.233440 336.489143L191.233440 336.489143L191.545920 345.280193
L191.903040 325.488188L192.081600 324.826629L192.170880 344.536658
L192.394080 335.642538L192.483360 336.585162L192.661920 333.592370
L192.706560 335.358225L192.840480 345.090540L193.019040 335.573338
L193.331520 345.519832L193.644000 335.417184L193.822560 336.844051
L194.090400 345.179013L194.179680 324.782392L194.447520 328.481211
L194.670720 345.391684L194.760000 335.776781L194.893920 345.234966
L195.027840 336.192849L195.161760 345.191720L195.206400 336.488406
L195.474240 345.272129L195.518880 336.669581L195.608160 343.647809
L195.831360 327.053169L196.099200 345.024219L196.188480 336.269514
L196.322400 333.494542L196.367040 345.291805L196.679520 345.141158
L196.724160 321.822616L196.947360 344.761494L197.125920 335.281098
L197.349120 344.685358L197.616960 345.218365L197.661600 336.351087
L197.884800 333.466330L197.929440 335.236101L198.108000 344.671073
L198.286560 343.969494L198.509760 324.233050L198.554400 344.213188
L198.732960 325.235923L198.956160 335.915159L199.045440 332.924072
L199.402560 344.858504L199.536480 345.012780L199.670400 344.438024
L199.893600 344.530702L199.938240 336.615840L200.206080 336.027928
L200.250720 344.437194L200.429280 324.835373L200.697120 325.294710
L201.054240 346.067251L201.232800 333.509679L201.411360 335.678619
L201.589920 345.026880L201.723840 344.702926L201.902400 345.302738
L202.080960 325.346492L202.438080 344.876394L202.750560 328.868836
L203.063040 345.268270L203.107680 334.715213L203.375520 345.026269
L203.554080 335.680992L203.777280 345.147690L203.866560 325.067259
L204.134400 345.250990L204.179040 336.478326L204.536160 325.022239
L204.848640 344.834634L204.893280 336.027329L205.027200 344.695968
L205.161120 335.825706L205.473600 345.061037L205.652160 335.701382
L205.830720 335.961366L206.098560 344.865277L206.143200 325.141736
L206.411040 335.349435L206.723520 345.220197L206.946720 335.913201
L207.169920 324.253313L207.214560 344.505750L207.482400 335.608704
L207.660960 344.522258L207.750240 336.177009L208.107360 344.536888
L208.419840 311.634213L208.509120 344.810097L208.687680 344.723731
L208.955520 344.874182L209.000160 336.314707L209.178720 322.465893
L209.357280 344.672052L209.714400 314.169650L209.892960 343.962651
L210.026880 336.004796L210.250080 335.876256L210.250080 335.876256
L210.428640 336.713633L210.473280 324.896187L210.607200 344.621514
L210.830400 336.056417L211.053600 333.646456L211.232160 344.923073
L211.544640 330.370330L211.589280 336.297531L211.723200 253.256383
L211.812480 335.824485L212.035680 336.568366L212.035680 336.568366
L212.169600 325.243169L212.303520 344.552659L212.482080 334.760244
L212.616000 335.872996L212.839200 344.729123L213.062400 345.056936
L213.151680 333.536947L213.330240 325.051592L213.464160 336.775634
L213.642720 324.856443L213.687360 335.953164L214.133760 344.384179
L214.490880 321.799415L214.535520 346.887372L214.714080 336.282659
L214.892640 344.536946L215.205120 344.820280L215.249760 326.077471
L215.339040 324.826698L215.428320 336.099306L215.651520 333.564365
L215.785440 344.999958L215.964000 336.434388L216.142560 335.163548
L216.321120 345.216419L216.455040 344.535391L216.812160 335.443127
L216.856800 336.629987L217.169280 344.954442L217.481760 335.417092
L217.526400 344.919502L217.794240 336.169313L217.928160 334.586580
L218.151360 344.236596L218.463840 335.584132L218.553120 344.287665
L218.597760 335.872812L218.731680 324.774467L218.776320 335.429925
L219.088800 333.634141L219.088800 333.634141L219.222720 344.937692
L219.312000 344.728627L219.356640 324.871891L219.624480 335.624049
L219.758400 345.458534L219.892320 344.537084L220.115520 335.744698
L220.294080 345.052719L220.561920 336.303498L220.919040 345.322633
L220.963680 335.442090L221.231520 344.936909L221.544000 345.120353
L221.544000 345.120353L222.035040 322.335855L222.168960 344.261192
L222.347520 336.606002L222.526080 335.201334L222.660000 344.599131
L222.927840 333.095939L222.972480 344.554318L223.195680 320.749217
L223.240320 336.931580L223.418880 335.385285L223.776000 344.614971
L223.999200 334.784736L224.133120 335.619936L224.400960 335.118908
L224.490240 345.070564L224.668800 335.310566L224.758080 336.021604
L225.070560 344.962045L225.338400 324.933915L225.472320 335.323619
L225.606240 332.854733L225.695520 336.168058L226.008000 344.835049
L226.320480 335.552694L226.499040 344.293597L226.588320 324.769651
L226.856160 335.438116L226.945440 344.538063L227.168640 344.381253
L227.525760 335.888191L227.793600 344.917279L228.240000 322.756428
L228.284640 345.253605L228.597120 336.476621L228.731040 335.780663
L228.954240 344.464577L229.177440 345.122888L229.266720 335.564225
L229.534560 344.433347L229.713120 345.014519L229.847040 344.794337
L230.159520 335.958417L230.382720 335.880495L230.650560 344.292814
L230.829120 344.837537L231.007680 336.254135L231.186240 335.840463
L231.364800 344.430467L231.588000 335.356946L231.632640 336.610691
L231.945120 334.931247L231.989760 344.413578L232.034400 335.513272
L232.168320 336.647059L232.391520 344.962852L232.882560 324.831468
L233.105760 344.483113L233.150400 336.834109L233.328960 335.581805
L233.552160 335.324943L233.686080 344.302353L233.775360 344.604707
L233.998560 336.075840L234.043200 344.326948L234.266400 336.294996
L234.400320 336.848947L234.400320 336.848947L234.757440 344.955583
L235.069920 345.110930L235.114560 335.705484L235.337760 344.531117
L235.427040 336.804653L235.516320 334.985656L235.784160 344.651224
L236.096640 334.918518L236.364480 334.615380L236.409120 344.307110
L236.632320 324.617852L236.766240 335.972863L236.989440 333.588246
L237.034080 344.710172L237.078720 333.385943L237.346560 344.332558
L237.525120 324.071412L237.659040 336.109766L237.882240 344.652780
L237.926880 336.172562L238.060800 344.574328L238.194720 336.241302
L238.328640 335.543524L238.507200 336.106310L238.775040 344.781285
L238.775040 344.781285L239.087520 336.042685L239.355360 335.705553
L239.444640 344.422253L239.712480 322.595401L239.801760 335.574939
L239.891040 344.878813L240.024960 344.876751L240.516000 324.815155
L240.560640 336.290239L240.694560 336.155662L240.694560 336.155662
L240.873120 344.134702L241.007040 336.362976L241.319520 335.672064
L241.364160 344.523617L241.632000 335.424856L241.676640 336.526629
L241.989120 332.809194L241.989120 332.809194L242.212320 345.124005
L242.301600 336.316908L242.524800 336.868416L242.524800 336.868416
L242.703360 344.396678L242.837280 335.763521L242.926560 344.689459
L242.971200 336.496308L243.239040 345.101783L243.283680 343.292728
L243.462240 344.953117L243.506880 336.001363L243.819360 333.602254
L243.997920 344.328503L244.042560 336.160961L244.265760 334.195016
L244.355040 335.359584L244.533600 344.006703L244.533600 344.006703
L245.024640 324.921865L245.158560 344.126972L245.381760 343.868394
L245.738880 324.959109L245.962080 344.878145L246.140640 336.406902
L246.363840 336.815297L246.631680 344.756379L246.676320 343.694200
L246.944160 312.864169L246.988800 336.179543L247.167360 335.865934
L247.345920 344.860220L247.435200 334.731928L247.703040 335.758188
L247.881600 344.237887L248.060160 344.021484L248.238720 344.714342
L248.417280 336.510282L248.729760 335.654772L248.774400 344.672652
L248.908320 334.727827L249.086880 335.565112L249.265440 333.356625
L249.310080 335.129518L249.444000 345.029460L249.622560 335.852628
L249.979680 344.448000L250.158240 335.446641L250.292160 335.998068
L250.604640 344.803680L250.693920 344.443346L251.051040 325.164637
L251.274240 345.218204L251.318880 335.709297L251.542080 344.886382
L251.631360 334.942260L251.854560 344.900125L251.943840 335.711220
L252.167040 335.436803L252.256320 336.804157L252.434880 335.919156
L252.613440 344.482134L252.970560 324.834751L253.238400 344.832319
L253.327680 344.513917L253.416960 322.434639L253.640160 336.475296
L253.774080 334.449469L253.908000 336.246520L254.131200 344.384041
L254.488320 324.441907L254.532960 335.907832L254.666880 344.728293
L254.934720 344.557601L255.247200 344.731692L255.291840 334.890835
L255.425760 335.946563L255.425760 335.946563L255.693600 345.046913
L256.095360 334.390291L256.407840 344.510634L256.497120 334.918426
L256.720320 335.503607L256.809600 333.301985L256.854240 344.977332
L257.032800 336.112762L257.434560 344.628945L257.702400 345.106587
L257.747040 343.797949L257.836320 344.861464L258.282720 335.683319
L258.505920 325.978065L258.550560 343.677588L258.818400 325.586408
L258.863040 336.370418L259.086240 334.553023L259.130880 343.799136
L259.488000 321.351863L259.532640 335.905344L259.755840 333.233407
L259.934400 344.177418L260.246880 344.465545L260.246880 344.465545
L260.291520 345.752801L260.470080 325.068307L260.514720 335.853204
L260.782560 344.956239L260.871840 344.861741L260.961120 326.146660
L261.139680 336.328451L261.407520 334.815252L261.452160 335.999313
L261.541440 346.916321L261.720000 336.863186L261.987840 344.964948
L262.032480 336.676412L262.166400 323.901412L262.211040 336.312127
L262.478880 336.070449L262.568160 344.583740L262.746720 331.968614
L262.880640 336.314673L262.969920 335.459013L263.148480 335.660314
L263.460960 345.232454L263.862720 324.644797L264.130560 344.330853
L264.264480 324.596471L264.398400 335.946793L264.576960 345.047512
L264.710880 344.783589L264.755520 335.531958L265.023360 344.648817
L265.335840 332.850102L265.380480 335.557290L265.514400 344.268611
L265.559040 335.924767L265.782240 344.897004L265.871520 336.190625
L266.094720 344.794522L266.228640 335.968174L266.362560 336.501469
L266.585760 345.009012L266.675040 239.596554L266.898240 344.627090
L266.942880 335.785686L267.300000 344.194387L267.612480 345.064781
L267.612480 345.064781L267.880320 335.515058L267.969600 336.564138
L268.014240 345.830757L268.326720 344.607379L268.505280 325.888036
L268.639200 335.377244L268.817760 344.735965L268.951680 335.491373
L269.264160 344.646282L269.532000 336.042478L269.889120 344.535840
L270.246240 324.824982L270.290880 336.903759L270.469440 325.369348
L270.558720 335.322570L270.737280 344.541082L271.049760 334.743276
L271.094400 345.137633L271.317600 344.027635L271.540800 344.834104
L271.719360 336.410127L271.897920 314.130989L271.987200 336.190890
L272.255040 344.788393L272.299680 334.955128L272.388960 336.528012
L272.701440 335.597149L272.701440 335.597149L272.790720 336.603882
L272.969280 334.409288L273.103200 344.412818L273.281760 335.911196
L273.371040 343.891722L273.371040 343.891722L273.683520 343.934703
L273.683520 343.934703L273.772800 345.117036L273.817440 335.729768
L274.129920 336.488867L274.219200 335.427241L274.487040 344.993553
L274.710240 333.551140L274.799520 334.964817L275.067360 345.515916
L275.112000 335.566541L275.290560 324.190092L275.424480 344.394132
L275.603040 336.261185L275.781600 336.601002L275.781600 336.601002
L276.094080 336.417016L276.094080 336.417016L276.183360 336.977084
L276.272640 336.460965L276.451200 336.211672L276.451200 336.211672
L276.674400 336.706652L276.719040 335.600652L277.031520 344.561138
L277.299360 335.316580L277.433280 336.981669L277.567200 333.675141
L277.835040 324.852895L277.879680 335.049696L278.058240 322.563007
L278.102880 335.743972L278.415360 333.857123L278.549280 345.356847
L278.593920 336.372157L278.772480 334.645436L279.040320 344.821916
L279.084960 335.452055L279.352800 334.774967L279.352800 334.774967
L279.531360 336.776233L279.665280 335.382670L279.888480 336.792200
L279.888480 336.792200L280.111680 345.120192L280.245600 325.157864
L280.424160 336.127922L280.647360 344.983369L280.781280 344.456490
L280.825920 323.936905L281.049120 335.564479L281.450880 344.914122
L281.718720 335.742382L281.763360 344.309172L282.120480 333.191912
L282.477600 344.828010L282.745440 345.086508L282.790080 336.580036
L282.924000 335.000379L283.236480 344.729318L283.504320 344.994451
L283.504320 344.994451L283.638240 343.926570L283.906080 344.126580
L283.950720 335.795098L284.084640 321.911090L284.173920 336.379242
L284.263200 344.755999L284.397120 335.870888L284.575680 344.898420
L284.664960 324.742856L284.843520 336.177723L284.977440 332.915973
L285.066720 336.770392L285.289920 325.608111L285.379200 334.760244
L285.513120 344.272850L285.691680 343.905857L286.048800 336.138313
L286.405920 345.099145L286.450560 333.938926L286.495200 336.161514
L286.807680 334.548933L287.209440 345.784504L287.254080 332.897265
L287.521920 335.496856L287.834400 333.322698L287.834400 333.322698
L288.236160 345.777949L288.504000 333.504588L288.548640 335.868607
L288.816480 344.662606L288.995040 345.000684L289.039680 336.262867
L289.218240 344.817953L289.396800 344.776873L289.530720 334.991624
L289.709280 335.850877L289.887840 335.563638L289.887840 335.563638
L290.021760 344.206391L290.111040 336.005960L290.289600 325.767180
L290.334240 344.706981L290.602080 344.868019L290.646720 337.034799
L290.736000 336.437603L290.736000 336.437603L290.914560 325.196963
L291.093120 324.905841L291.227040 344.315946L291.450240 344.696360
L291.450240 344.696360L291.718080 345.591786L291.762720 335.874113
L291.896640 345.663936L292.075200 344.396909L292.253760 345.471679
L292.343040 324.632402L292.610880 336.458327L292.834080 344.979395
L292.968000 344.761344L293.101920 344.904296L293.146560 336.213976
L293.459040 335.559802L293.503680 344.802056L293.592960 325.881999
L293.771520 334.853626L293.994720 345.155777L294.039360 336.690996
L294.262560 343.590060L294.351840 335.615443L294.485760 335.974844
L294.485760 335.974844L294.753600 344.702546L294.887520 344.971365
L295.021440 336.238364L295.378560 345.417281L295.557120 321.518799
L295.646400 334.938240L295.824960 344.572750L295.958880 344.396978
L296.226720 345.011835L296.271360 336.125975L296.539200 345.227570
L296.583840 344.103679L296.762400 314.585061L296.940960 324.793175
L297.164160 344.894815L297.298080 344.417391L297.476640 309.379830
L297.521280 336.188724L297.744480 345.188932L297.833760 344.585940
L297.923040 335.408083L298.146240 335.769523L298.369440 345.162424
L298.503360 344.505473L298.771200 335.515081L298.860480 336.027525
L299.039040 345.401061L299.262240 344.812643L299.619360 322.594307
L299.664000 346.302559L299.976480 344.295521L300.333600 335.617793
L300.646080 345.343576L300.869280 323.643329L300.913920 335.898098
L301.181760 335.870934L301.271040 344.805604L301.404960 332.953332
L301.628160 336.068433L301.851360 334.884073L301.896000 344.556714
L302.253120 335.810696L302.342400 343.906929L302.565600 345.003932
L302.610240 336.690374L302.967360 314.525998L303.056640 345.405070
L303.324480 336.568700L303.458400 325.549659L303.636960 344.493285
L303.770880 335.786435L304.083360 345.190441L304.261920 336.538852
L304.306560 344.872524L304.351200 254.092159L304.574400 336.255345
L304.708320 346.242563L304.842240 336.434077L305.110080 335.742843
L305.199360 345.035589L305.467200 335.691464L305.779680 345.518484
L306.092160 335.682271L306.181440 337.021021L306.493920 344.911369
L306.583200 335.510749L306.851040 336.809215L307.074240 336.973317
L307.074240 336.973317L307.163520 344.787425L307.342080 344.427045
L307.609920 333.866235L307.788480 335.489818L307.877760 336.867598
L308.145600 333.884874L308.145600 333.884874L308.234880 343.621889
L308.324160 336.259492L308.592000 337.912381L308.636640 336.163484
L308.949120 345.331918L309.172320 313.040517L309.350880 324.890104
L309.529440 345.251958L309.708000 335.711048L309.797280 336.718287
L309.931200 345.926961L310.109760 345.670664L310.199040 325.368058
L310.466880 336.161987L310.645440 345.263720L310.824000 344.859759
L310.868640 335.456721L311.136480 336.443397L311.315040 334.789021
L311.359680 344.282446L311.672160 345.041902L311.850720 332.264955
L312.207840 345.136550L312.386400 334.421061L312.564960 336.145052
L312.832800 335.978024L312.832800 335.978024L312.966720 332.307556
L313.011360 344.938188L313.323840 344.242529L313.413120 344.513445
L313.547040 335.946632L313.725600 335.332973L313.770240 344.513745
L313.904160 335.554157L313.993440 335.662952L314.127360 344.884608
L314.216640 344.274693L314.350560 335.845843L314.529120 336.852864
L314.796960 335.033061L314.841600 344.707822L315.109440 345.797130
L315.154080 336.774436L315.377280 344.950664L315.421920 335.909295
L315.689760 344.826732L315.734400 336.326538L315.912960 334.607639
L316.225440 344.511890L316.448640 332.953908L316.493280 335.735942
L316.671840 335.531013L316.671840 335.531013L316.850400 336.027583
L316.850400 336.027583L317.118240 335.896577L317.118240 335.896577
L317.252160 345.021834L317.296800 336.497080L317.386080 344.747497
L317.475360 336.259377L317.921760 345.055323L318.234240 324.947716
L318.278880 336.876422L318.457440 336.290262L318.457440 336.290262
L318.591360 344.929271L318.769920 336.678509L319.037760 345.735706
L319.171680 336.078973L319.528800 344.511395L319.841280 325.090829
L319.885920 344.926080L320.153760 344.673838L320.466240 344.872984
L320.510880 335.805362L320.778720 344.608151L320.912640 344.412553
L321.135840 335.520426L321.225120 336.542688L321.403680 335.881221
L321.537600 336.442061L321.760800 321.832074L321.805440 344.482756
L322.028640 344.323112L322.341120 344.891716L322.341120 344.891716
L322.742880 335.270477L322.966080 345.491977L323.189280 333.103035
L323.367840 336.361536L323.680320 345.201742L323.992800 325.004244
L324.037440 335.654634L324.349920 345.207341L324.394560 335.388303
L324.528480 336.695305L324.796320 336.174693L324.930240 344.403418
L325.153440 333.282044L325.287360 336.197411L325.465920 335.732417
L325.465920 335.732417L325.644480 333.727914L325.689120 344.317605
L325.867680 335.482272L326.001600 325.297348L326.090880 335.447148
L326.224800 333.544769L326.358720 344.842572L326.537280 345.290446
L326.537280 345.290446L326.805120 336.367354L326.983680 344.505496
L327.117600 336.245449L327.251520 344.519620L327.564000 322.497942
L327.831840 321.668559L327.921120 344.449198L328.278240 290.345610
L328.412160 344.685105L328.635360 336.716052L328.903200 345.102290
L328.947840 336.236164L329.215680 344.757704L329.438880 327.214956
L329.528160 336.117635L329.796000 344.800316L329.885280 344.739548
L330.197760 324.892547L330.242400 335.793577L330.331680 343.756212
L330.420960 336.273385L330.733440 344.507697L330.956640 334.502300
L331.090560 336.823834L331.269120 345.254204L331.403040 344.926863
L331.626240 345.306977L331.670880 335.977839L331.938720 345.076888
L332.028000 335.643863L332.295840 336.206811L332.608320 336.110792
L332.608320 336.110792L333.010080 324.700600L333.277920 344.894584
L333.367200 344.478609L333.635040 325.283800L333.679680 336.295077
L333.992160 344.808495L334.304640 345.054228L334.304640 345.054228
L334.661760 324.594547L334.706400 335.729192L335.063520 344.806122
L335.152800 335.609856L335.420640 345.417005L335.420640 345.417005
L335.688480 325.165559L335.733120 336.177274L335.867040 323.829320
L335.956320 335.848044L336.090240 337.109414L336.358080 345.024657
L336.581280 335.702995L336.670560 335.825868L336.759840 335.182499
L336.983040 335.390100L337.250880 345.785772L337.295520 336.536790
L337.340160 335.498458L337.429440 345.428122L337.697280 344.219720
L337.920480 344.650245L338.054400 336.060276L338.143680 334.404334
L338.232960 334.396754L338.322240 335.559871L338.590080 335.409212
L338.590080 335.409212L338.857920 333.487837L338.947200 344.560850
L339.348960 333.951955L339.393600 336.466264L339.616800 325.592283
L339.706080 344.513238L340.018560 345.245910L340.063200 336.009969
L340.197120 335.951113L340.197120 335.951113L340.331040 345.061417
L340.375680 336.300042L340.688160 335.881198L340.688160 335.881198
L340.866720 345.214656L341.000640 345.065795L341.223840 335.792056
L341.313120 336.084330L341.491680 333.202579L341.580960 335.375712
L341.714880 344.387601L341.759520 335.979487L341.982720 325.872829
L342.027360 344.345484L342.072000 336.403515L342.429120 345.140559
L342.741600 345.750601L342.741600 345.750601L342.875520 335.592760
L343.098720 335.652872L343.321920 325.247512L343.366560 335.987724
L343.768320 344.967126L343.902240 345.204553L344.080800 336.500133
L344.393280 344.600628L344.705760 345.464974L344.750400 337.098286
L344.795040 335.889297L345.018240 345.398331L345.330720 344.863020
L345.598560 325.480573L345.732480 333.891199L345.911040 345.311620
L346.044960 344.597725L346.357440 335.344262L346.402080 344.599430
L346.580640 335.573545L346.714560 345.035566L346.848480 344.985742
L347.027040 335.449981L347.205600 336.525431L347.294880 345.102843
L347.339520 336.740532L347.518080 345.122945L347.607360 334.473327
L347.919840 344.727752L348.053760 344.778808L348.143040 336.593779
L348.321600 335.255109L348.455520 344.378350L348.634080 336.453258
L348.812640 345.120457L348.857280 330.013348L349.125120 344.872927
L349.482240 332.628273L349.526880 335.434614L349.884000 345.341146
L350.196480 335.593060L350.419680 345.157839L350.732160 345.363690
L350.732160 345.363690L350.821440 335.942588L351.133920 345.087648
L351.446400 345.631519L351.446400 345.631519L351.669600 335.758164
L351.848160 336.250195L352.116000 334.385729L352.160640 344.377889
L352.473120 323.874950L352.830240 345.088224L352.874880 344.042945
L353.187360 345.253306L353.187360 345.253306L353.455200 335.968232
L353.723040 345.511135L353.856960 344.734376L354.035520 345.601555
L354.080160 336.299155L354.526560 345.210785L354.839040 335.876682
L355.151520 345.351640L355.330080 324.926150L355.553280 325.149788
L355.865760 324.636653L355.910400 344.483758L356.267520 333.505659
L356.535360 345.691526L356.624640 344.926575L356.937120 324.434477
L356.981760 335.798461L357.071040 345.816219L357.204960 336.159026
L357.338880 345.661263L357.517440 335.586551L357.829920 345.104283
L357.874560 343.953804L358.187040 335.287653L358.320960 324.360864
L358.499520 344.276191L358.812000 345.106241L358.856640 335.429695
L358.990560 344.853780L359.079840 335.675313L359.392320 282.742422
L359.570880 344.726104L359.749440 335.749905L359.838720 333.390148
L360.017280 345.165108L360.061920 336.302081L360.195840 344.760019
L360.419040 325.008622L360.463680 344.930147L360.731520 336.254607
L361.044000 335.607057L361.044000 335.607057L361.177920 344.897660
L361.222560 335.532695L361.401120 335.247276L361.401120 335.247276
L361.490400 344.886175L361.579680 335.660406L361.847520 335.272769
L361.847520 335.272769L362.026080 344.736449L362.070720 335.717683
L362.160000 345.490318L362.249280 336.563988L362.472480 335.386380
L362.784960 345.376212L362.829600 336.283258L362.918880 336.554865
L363.142080 344.799176L363.276000 344.567981L363.499200 344.817089
L363.543840 336.096265L363.856320 344.986664L364.258080 320.597971
L364.481280 345.381915L364.615200 345.082856L364.883040 325.263018
L364.972320 336.944506L365.016960 335.652100L365.284800 335.191553
L365.329440 344.485670L365.418720 313.166546L365.508000 336.678785
L365.731200 345.333416L365.820480 335.386610L366.043680 335.775007
L366.311520 345.655112L366.356160 185.263142L366.624000 344.983576
L366.847200 345.113649L366.936480 336.618294L367.204320 345.440828
L367.248960 336.705431L367.338240 335.612701L367.516800 325.156205
L367.829280 344.698341L367.873920 336.140421L368.007840 344.245018
L368.097120 335.274382L368.186400 344.563546L368.231040 336.448339
L368.454240 335.367809L368.722080 344.860428L369.123840 324.563478
L369.347040 344.920608L369.436320 336.075921L369.659520 334.242132
L369.748800 336.110158L370.016640 345.313452L370.061280 334.577480
L370.373760 335.337339L370.686240 344.953855L370.998720 324.687767
L371.043360 344.630246L371.221920 335.566045L371.400480 345.165535
L371.534400 320.945242L371.712960 336.531571L372.025440 344.898017
L372.248640 324.625121L372.293280 344.297768L372.605760 344.541105
L372.650400 335.956412L372.784320 333.192465L372.918240 344.090085
L373.409280 324.932809L373.677120 344.542625L373.721760 336.432522
L373.989600 345.023862L374.302080 345.771579L374.302080 345.771579
L374.346720 335.132329L374.569920 336.826080L374.659200 344.872443
L374.793120 344.830879L375.284160 323.473628L375.418080 345.611578
L375.641280 336.996484L375.909120 344.915931L376.176960 334.073226
L376.489440 345.474801L376.668000 335.995442L376.757280 336.106760
L377.025120 345.579276L377.159040 344.576851L377.292960 344.618600
L377.337600 336.554335L377.560800 335.785144L377.560800 335.785144
L377.828640 314.375973L378.141120 345.277682L378.185760 336.572317
L378.498240 335.846984L378.542880 344.954269L378.721440 335.623703
L378.855360 336.633039L378.989280 333.783959L379.033920 344.683803
L379.346400 344.298263L379.658880 345.468787L379.703520 336.169428
L379.971360 334.195603L380.016000 344.524977L380.149920 333.960250
L380.328480 337.287871L380.507040 335.599465L380.864160 344.867628
L381.176640 345.427453L381.221280 336.236417L381.444480 344.575561
L381.801600 335.054316L382.024800 325.217860L382.069440 343.994354
L382.337280 345.165961L382.381920 335.266813L382.471200 333.535427
L382.694400 336.064746L383.096160 344.954627L383.319360 336.070898
L383.453280 337.162038L383.631840 325.107717L383.676480 336.844858
L384.078240 322.934135L384.435360 344.234085L384.792480 325.231096
L385.060320 345.485560L385.149600 332.028887L385.372800 335.376933
L385.551360 345.038331L385.729920 344.553201L385.953120 345.093327
L386.042400 335.329240L386.220960 344.117664L386.444160 345.123291
L386.578080 333.080582L386.801280 336.996092L386.979840 345.035543
L387.024480 336.450493L387.292320 345.532965L387.649440 336.037260
L387.828000 334.927699L387.872640 344.361577L388.185120 334.384911
L388.319040 346.013937L388.497600 344.418486L388.765440 344.523226
L388.854720 336.625068L388.988640 335.857444L389.167200 345.046752
L389.390400 329.922259L389.479680 335.778935L389.836800 325.036754
L390.015360 344.512846L390.104640 336.485261L390.283200 344.644612
L390.551040 345.240104L390.595680 335.914422L390.863520 335.313158
L390.952800 343.977765L391.176000 324.928385L391.309920 326.018834
L391.488480 345.103661L391.533120 336.687252L391.667040 335.635661
L391.756320 336.207836L391.756320 336.207836L392.113440 335.122387
L392.292000 344.647261L392.336640 335.747347L392.425920 334.034945
L392.649120 344.139736L392.693760 335.930147L392.872320 344.418290
L392.916960 335.925101L393.184800 345.260356L393.497280 335.519585
L393.631200 333.370449L393.809760 344.432344L394.077600 334.784218
L394.122240 336.024760L394.479360 344.104186L394.791840 323.514202
L395.148960 344.833574L395.461440 344.871222L395.506080 336.583837
L395.595360 325.028045L395.773920 333.560932L395.952480 344.793093
L395.997120 335.728788L396.398880 344.789533L396.577440 313.371924
L396.756000 321.937897L397.068480 344.791895L397.113120 335.976814
L397.157760 344.042772L397.380960 344.866141L397.425600 335.844910
L397.693440 344.880979L397.827360 345.299604L398.005920 325.904844
L398.273760 324.723122L398.318400 335.844035L398.452320 345.884705
L398.541600 335.887661L398.854080 345.791002L398.898720 344.700945
L399.211200 334.353012L399.255840 335.419834L399.479040 344.647642
L399.568320 344.267827L399.791520 344.546911L399.880800 336.303337
L400.059360 335.271894L400.148640 344.610605L400.282560 345.261876
L400.505760 336.128867L400.639680 344.853435L401.086080 335.333111
L401.264640 344.895771L401.309280 335.815822L401.666400 345.221188
L401.755680 310.949637L401.978880 334.002551L402.336000 344.827146
L402.693120 313.135419L402.737760 344.960605L403.050240 344.952265
L403.228800 335.515196L403.318080 336.117243L403.585920 335.463690
L403.585920 335.463690L403.764480 336.665203L403.943040 344.932911
L404.121600 344.436192L404.344800 344.974740L404.478720 336.080955
L404.746560 344.820177L405.148320 334.987649L405.371520 321.319100
L405.416160 337.403555L405.505440 345.259446L405.684000 335.945745
L405.951840 344.853631L405.996480 336.760635L406.085760 326.033372
L406.130400 335.372014L406.264320 344.984936L406.398240 344.423117
L406.666080 335.086963L406.710720 336.137368L406.933920 345.186317
L407.067840 344.282780L407.246400 329.427383L407.291040 335.633864
L407.558880 333.174436L407.648160 344.342696L407.737440 344.863031
L407.960640 335.872247L408.228480 345.247868L408.273120 333.929284
L408.451680 336.073812L408.630240 344.587703L408.942720 322.155752
L408.987360 344.542994L409.121280 336.471356L409.612320 344.590664
L409.924800 345.200844L410.058720 334.758102L410.103360 345.053825
L410.371200 344.853953L410.415840 335.946413L410.683680 336.352677
L410.862240 335.660152L410.996160 344.569121L411.308640 345.647013
L411.353280 336.323209L411.487200 335.763291L411.576480 344.221736
L411.710400 324.524920L411.888960 335.746852L412.156800 325.714049
L412.201440 336.329948L412.335360 335.296166L412.647840 345.214748
L412.915680 345.704129L412.960320 336.405496L413.138880 344.804198
L413.272800 344.412265L413.451360 334.325411L413.496000 336.172159
L413.763840 334.897597L413.853120 344.680520L413.942400 344.865635
L413.987040 336.448385L414.254880 345.409920L414.567360 335.347741
L414.790560 334.631578L414.835200 336.117519L414.879840 344.962598
L414.924480 336.293268L415.192320 337.422413L415.192320 337.422413
L415.504800 336.257787L415.504800 336.257787L415.638720 335.652975
L415.638720 335.652975L415.951200 325.192493L416.263680 345.061359
L416.486880 345.216660L416.531520 336.512321L416.888640 345.024852
L416.933280 336.234931L417.156480 336.475584L417.468960 345.077211
L417.826080 323.074956L418.049280 345.050300L418.183200 335.890287
L418.495680 345.145213L418.763520 336.083005L419.120640 345.564680
L419.165280 322.163585L419.433120 344.595859L419.700960 344.756195
L419.700960 344.756195L419.834880 345.104628L419.834880 345.104628
L420.013440 334.144639L420.147360 345.075932L420.325920 335.443231
L420.504480 335.758234L420.727680 344.915182L420.772320 336.588492
L420.995520 337.155610L420.995520 337.155610L421.129440 308.618554
L421.174080 336.109605L421.308000 345.105124L421.352640 313.625860
L421.575840 344.882811L421.843680 344.989544L421.888320 336.222812
L422.200800 344.702845L422.424000 333.023904L422.468640 335.918719
L422.691840 331.651031L422.736480 336.352101L422.959680 337.009524
L422.959680 337.009524L423.227520 345.407466L423.272160 343.679144
L423.406080 344.008443L423.450720 336.477324L423.718560 344.586113
L423.941760 346.863064L423.986400 335.975846L424.120320 345.068168
L424.343520 344.997055L424.656000 335.485751L424.879200 336.609423
L425.191680 345.311182L425.236320 335.896704L425.548800 336.411199
L425.638080 336.456691L425.638080 336.456691L425.772000 336.196316
L425.816640 344.752370L425.905920 325.298627L426.084480 335.257459
L426.307680 344.308020L426.396960 342.972703L426.575520 345.030348
L426.664800 336.132426L426.977280 335.783370L426.977280 335.783370
L427.289760 345.210071L427.602240 313.141133L427.870080 345.782431
L427.914720 337.214604L428.004000 343.688786L428.316480 344.443058
L428.316480 344.443058L428.539680 335.395181L428.673600 335.406655
L428.986080 335.337627L429.030720 344.327075L429.343200 335.036298
L429.477120 345.078386L429.655680 336.652174L429.834240 344.876106
L429.968160 335.503469L430.325280 345.314166L430.682400 324.055204
L430.950240 343.926720L431.039520 336.261139L431.307360 343.995529
L431.352000 336.014369L431.664480 344.633921L431.887680 334.934185
L431.932320 335.968220L432.200160 334.649330L432.334080 343.922239
L432.378720 335.183846L432.601920 335.627021L432.735840 336.632314
L432.825120 336.310836L432.825120 336.310836L433.137600 333.781332
L433.226880 345.379000L433.494720 336.716329L433.717920 344.928787
L433.807200 336.060588L434.075040 345.598422L434.164320 344.461674
L434.476800 344.884942L434.521440 336.008460L434.610720 337.075361
L434.744640 345.180015L434.789280 336.551052L434.923200 325.592410
L435.101760 333.605964L435.458880 345.287658L435.637440 336.023090
L435.816000 336.405900L435.949920 345.164659L436.128480 344.470602
L436.262400 336.452371L436.530240 344.892165L436.664160 334.150295
L436.887360 336.727377L437.021280 334.954748L437.244480 343.726007
L437.423040 344.815419L437.601600 336.144292L437.690880 344.681821
L437.824800 336.309972L437.958720 340.050493L438.092640 334.807741
L438.449760 344.608692L438.539040 327.733978L438.806880 336.506158
L439.119360 336.561800L439.119360 336.561800L439.342560 333.750056
L439.387200 335.369733L439.655040 335.186427L439.655040 335.186427
L439.744320 336.609930L439.967520 344.103252L440.012160 335.982355
L440.146080 344.729468L440.324640 335.990316L440.547840 335.610950
L440.547840 335.610950L440.726400 332.486404L440.771040 335.357879
L441.128160 344.736472L441.440640 344.740044L441.485280 335.847709
L441.753120 332.941052L441.797760 344.766977L442.065600 345.196996
L442.110240 336.151503L442.288800 336.397294L442.288800 336.397294
L442.512000 335.129760L442.645920 344.657722L442.913760 326.043763
L443.047680 328.383533L443.360160 344.726461L443.851200 326.520461
L443.940480 345.062419L444.163680 343.512392L444.342240 325.098351
L444.386880 335.847871L444.520800 345.167758L444.610080 336.314166
L444.699360 344.174089L444.922560 334.457787L445.190400 344.718870
L445.235040 336.316815L445.368960 325.176123L445.592160 330.260129
L445.726080 324.691142L445.860000 344.570838L446.127840 321.342278
L446.172480 336.167908L446.529600 345.337137L446.842080 327.050957
L447.154560 344.628806L447.199200 336.222835L447.467040 344.658943
L447.600960 325.826968L447.824160 337.266593L448.047360 345.300906
L448.136640 344.278679L448.449120 324.486778L448.493760 335.691060
L448.761600 326.271502L448.806240 332.902126L448.984800 344.375816
L449.074080 335.806744L449.208000 344.717061L449.297280 335.933038
L449.341920 345.010625L449.609760 344.895725L449.966880 314.918047
L450.011520 344.677018L450.324000 335.887269L450.591840 334.464710
L450.591840 334.464710L450.948960 344.396540L451.216800 333.376462
L451.261440 335.702753L451.618560 345.992014L451.797120 282.383401
L451.931040 336.338058L452.198880 335.898063L452.198880 335.898063
L452.377440 345.092164L452.422080 336.420910L452.511360 345.309132
L452.734560 344.833528L453.091680 329.915105L453.225600 325.251602
L453.404160 335.220019L453.493440 345.263604L453.582720 336.651621
L453.761280 334.570913L453.984480 344.893352L454.296960 324.711475
L454.386240 324.773556L454.698720 345.337240L454.743360 336.238802
L455.055840 345.459180L455.145120 344.240790L455.368320 344.815430
L455.457600 336.158001L455.725440 344.464923L455.859360 340.866271
L456.216480 323.744348L456.573600 344.749352L456.618240 324.820650
L456.886080 335.377820L457.243200 344.714354L457.555680 324.848828
L457.600320 336.590738L457.689600 336.007008L457.912800 344.118286
L458.002080 345.216084L458.046720 344.134909L458.180640 345.255667
L458.269920 335.824474L458.448480 344.650752L458.805600 288.493298
L458.850240 299.589143L459.118080 345.192653L459.207360 340.697180
L459.385920 344.909468L459.519840 335.421228L459.876960 344.792632
L460.189440 329.274570L460.234080 336.489373L460.412640 334.378426
L460.457280 335.432955L460.635840 344.906231L460.769760 344.737129
L460.992960 345.144545L461.082240 335.994578L461.171520 331.351188
L461.216160 335.415122L461.528640 332.553715L461.528640 332.553715
L461.617920 344.468598L461.796480 329.045910L461.841120 344.521901
L461.975040 335.685496L462.287520 325.994193L462.332160 328.948969
L462.689280 345.128797L462.957120 325.240946L463.046400 344.820637
L463.180320 344.813714L463.269600 317.587818L463.358880 335.273495
L463.760640 344.852214L464.073120 322.051853L464.117760 345.768872
L464.385600 344.500727L464.698080 314.863557L464.787360 335.655567
L464.832000 334.389888L465.099840 345.390566L465.144480 336.658533
L465.323040 325.082868L465.412320 332.776984L465.724800 344.834220
L466.215840 327.651172L466.260480 344.880783L466.528320 344.486316
L466.751520 335.496879L466.840800 339.583910L466.930080 335.811087
L466.930080 335.811087L467.242560 333.852180L467.599680 344.106455
L467.778240 325.512749L467.956800 335.813829L468.224640 335.425271
L468.269280 344.538328L468.581760 344.856787L468.626400 335.639923
L468.715680 344.133481L468.760320 336.265125L468.983520 329.628580
L469.028160 335.822296L469.251360 333.777093L469.296000 344.251204
L469.340640 324.482584L469.608480 335.650395L469.787040 335.492652
L469.920960 336.723252L470.010240 335.295118L470.054880 344.891900
L470.322720 336.203862L470.545920 335.418278L470.635200 336.448132
L470.769120 344.705126L470.947680 326.014963L471.260160 344.905690
L471.304800 327.475872L471.572640 344.775859L471.885120 344.991698
L471.929760 335.671523L472.063680 335.534100L472.242240 344.897107
L472.465440 324.168630L472.510080 336.317219L472.644000 344.801042
L472.911840 336.210198L473.090400 324.688389L473.313600 344.406897
L473.536800 335.697558L473.670720 335.979567L473.760000 335.616480
L473.760000 335.616480L473.983200 325.893542L474.072480 328.907382
L474.429600 344.783393L474.474240 335.180114L474.786720 335.597242
L474.831360 344.884620L475.143840 344.002084L475.322400 344.932980
L475.456320 336.743493L475.679520 344.597069L475.724160 336.538310
L475.813440 344.835302L475.992000 343.889672L476.215200 303.765051
L476.259840 335.628357L476.572320 344.602921L476.929440 313.719252
L476.974080 335.342212L477.063360 334.165709L477.152640 335.876532
L477.375840 333.664980L477.420480 345.356490L477.688320 341.177276
L477.822240 327.570486L478.000800 333.945389L478.313280 344.869551
L478.625760 345.187791L478.670400 336.152575L478.893600 336.139880
L478.982880 344.681234L479.340000 327.905844L479.518560 344.453472
L479.652480 344.419361L479.920320 344.657722L479.964960 336.842415
L480.098880 331.822875L480.143520 341.162139L480.366720 345.091899
L480.679200 325.011329L480.947040 345.120595L481.036320 336.401453
L481.348800 344.787944L481.750560 327.141953L482.063040 344.769327
L482.107680 337.514826L482.286240 324.182546L482.420160 344.530829
L482.643360 344.451007L482.821920 325.675388L482.955840 329.228064
L483.089760 314.724038L483.268320 324.464175L483.536160 344.853101
L483.670080 344.631076L483.982560 344.787944L483.982560 344.787944
L484.161120 325.016052L484.384320 335.387359L484.562880 344.851960
L484.607520 336.259745L484.741440 345.150202L484.875360 335.875150
L485.232480 344.757335L485.634240 326.046056L485.946720 325.333498
L485.991360 335.604223L486.259200 328.298573L486.303840 329.778121
L486.437760 344.498803L486.616320 335.963140L486.705600 336.082879
L486.928800 334.647855L487.196640 327.247407L487.196640 327.247407
L487.687680 345.204945L488.089440 325.104964L488.178720 344.358766
L488.446560 335.351704L488.669760 344.919398L488.759040 336.787292
L489.026880 344.486396L489.071520 328.358373L489.294720 344.063439
L489.384000 336.853244L489.473280 345.483660L489.607200 336.499557
L489.830400 345.366478L490.053600 325.545201L490.098240 335.780076
L490.232160 344.929133L490.321440 344.016703L490.901760 324.444557
L491.258880 345.175730L491.616000 335.055848L491.749920 344.890725
L491.928480 335.291823L492.196320 344.933914L492.464160 332.917632
L492.508800 335.092389L492.776640 344.619994L492.821280 336.918632
L493.044480 325.037710L493.089120 335.954350L493.178400 344.768993
L493.446240 344.706036L493.714080 345.023182L493.758720 337.075695
L493.981920 344.967368L494.026560 336.071877L494.339040 335.311511
L494.383680 344.655429L494.651520 335.551323L494.874720 344.711290
L494.964000 339.531414L495.187200 320.293521L495.231840 336.145651
L495.633600 345.055450L495.946080 333.298310L495.990720 335.918707
L496.258560 344.557578L496.437120 325.534844L496.615680 336.485871
L496.972800 328.344814L497.017440 330.135022L497.196000 325.439297
L497.329920 344.647676L497.374560 326.608347L497.597760 335.520115
L497.910240 344.604902L498.133440 344.865588L498.222720 344.548788
L498.356640 335.532948L498.535200 336.930290L498.758400 335.842318
L498.847680 336.108718L498.981600 344.683365L499.026240 336.335639
L499.204800 344.528513L499.428000 325.149834L499.517280 344.221367
L499.919040 324.030447L499.963680 344.845774L500.231520 335.966734
L500.410080 334.800426L500.588640 344.537372L500.677920 345.143843
L500.901120 329.600183L501.168960 345.013171L501.258240 344.131891
L501.347520 344.602034L501.436800 336.819064L501.660000 335.182084
L501.704640 336.452809L501.972480 345.012342L502.329600 324.836029
L502.686720 344.337719L502.954560 345.066071L502.999200 336.193171
L503.133120 328.547347L503.177760 336.079930L503.400960 344.908189
L503.490240 336.578976L503.758080 344.424177L503.892000 343.940106
L504.204480 333.465627L504.472320 325.833489L504.516960 343.881504
L504.874080 324.567072L505.141920 345.654213L505.231200 336.147564
L505.588320 331.488369L505.856160 344.900183L506.168640 322.415862
L506.213280 345.343000L506.525760 335.159977L506.659680 334.357402
L506.659680 334.357402L506.704320 344.702765L506.927520 335.878226
L507.061440 333.965917L507.106080 335.699412L507.329280 329.596024
L507.373920 335.531347L507.552480 340.118438L507.686400 329.259479
L507.998880 345.080390L508.043520 335.225860L508.222080 335.530045
L508.445280 332.319836L508.445280 332.319836L508.668480 344.769143
L508.713120 335.757024L508.802400 333.866673L508.936320 336.143244
L509.159520 341.519581L509.248800 334.598446L509.472000 326.322444
L509.650560 344.396275L509.873760 334.261037L509.918400 336.693231
L510.141600 345.407259L510.275520 336.064124L510.454080 336.168968
L510.721920 345.075506L510.811200 344.292411L510.945120 344.361162
L511.123680 344.203442L511.480800 325.263375L511.793280 344.544952
L511.837920 331.328840L512.150400 336.068444L512.195040 335.028292
L512.507520 344.602426L512.552160 338.044205L512.596800 335.393084
L512.730720 344.195770L512.909280 338.817508L513.177120 325.007355
L513.221760 335.263116L513.266400 344.679517L513.355680 335.299404
L513.578880 344.722245L513.578880 344.722245L513.757440 345.460009
L513.802080 335.913869L514.069920 344.890771L514.114560 321.788805
L514.337760 335.830913L514.650240 333.342006L514.918080 344.677386
L514.962720 333.990789L515.096640 345.181006L515.185920 344.841281
L515.230560 325.036362L515.409120 334.975772L515.721600 344.130290
L515.766240 314.845390L515.944800 335.457032L516.212640 333.276422
L516.212640 333.276422L516.480480 344.190977L516.525120 332.411812
L516.748320 328.910469L516.792960 340.368618L517.194720 334.260012
L517.462560 345.230427L517.507200 343.305320L517.864320 325.636577
L518.221440 344.570446L518.266080 325.474134L518.310720 344.550240"/>
</g>
<g id="matplotlib.axis1">
<g id="xtick1">
<g id="line2d2">
<path style="fill: none; stroke: #000000; stroke-width: 0.500000; stroke-linejoin: round; stroke-linecap: butt; stroke-dasharray: 1.000000,3.000000; stroke-dashoffset: 0.000000; opacity: 1.000000" clip-path="url(#p50431ccdcb28178602d99d9270004dde)" d="M72.000000 388.800000L72.000000 43.200000"/>
</g>
<g id="line2d3">
<defs><path id="m30e32995789d870ad79a2e54c91cf9c6" d="M0.000000 0.000000L0.000000 -4.000000"/></defs>
<g ><use style="fill: none; stroke: #000000; stroke-width: 0.500000; stroke-linejoin: round; stroke-linecap: butt;  opacity: 1.000000" xlink:href="#m30e32995789d870ad79a2e54c91cf9c6" x="72.000000" y="388.800000"/>
</g></g>
<g id="line2d4">
<defs><path id="m9281cae24120827b11d5ea8a7ad3e96b" d="M0.000000 0.000000L0.000000 4.000000"/></defs>
<g ><use style="fill: none; stroke: #000000; stroke-width: 0.500000; stroke-linejoin: round; stroke-linecap: butt;  opacity: 1.000000" xlink:href="#m9281cae24120827b11d5ea8a7ad3e96b" x="72.000000" y="43.200000"/>
</g></g>
<g id="text1">
<defs>
<path id="c_7a2040fe3b94fcd41d0a72c84e93b115" d="M31.781250 -66.406250q-7.609375 0.000000 -11.453125 7.500000q-3.828125 7.484375 -3.828125 22.531250q0.000000 14.984375 3.828125 22.484375q3.843750 7.500000 11.453125 7.500000q7.671875 0.000000 11.500000 -7.500000q3.843750 -7.500000 3.843750 -22.484375q0.000000 -15.046875 -3.843750 -22.531250q-3.828125 -7.500000 -11.500000 -7.500000M31.781250 -74.218750q12.265625 0.000000 18.734375 9.703125q6.468750 9.687500 6.468750 28.140625q0.000000 18.406250 -6.468750 28.109375q-6.468750 9.687500 -18.734375 9.687500q-12.250000 0.000000 -18.718750 -9.687500q-6.468750 -9.703125 -6.468750 -28.109375q0.000000 -18.453125 6.468750 -28.140625q6.468750 -9.703125 18.718750 -9.703125"/>
</defs>
<g style="fill: #000000; opacity: 1.000000" transform="translate(68.976562,401.706250)scale(0.120000)">
<use xlink:href="#c_7a2040fe3b94fcd41d0a72c84e93b115"/>
</g>
</g>
</g>
<g id="xtick2">
<g id="line2d5">
<path style="fill: none; stroke: #000000; stroke-width: 0.500000; stroke-linejoin: round; stroke-linecap: butt; stroke-dasharray: 1.000000,3.000000; stroke-dashoffset: 0.000000; opacity: 1.000000" clip-path="url(#p50431ccdcb28178602d99d9270004dde)" d="M161.280000 388.800000L161.280000 43.200000"/>
</g>
<g id="line2d6">
<g ><use style="fill: none; stroke: #000000; stroke-width: 0.500000; stroke-linejoin: round; stroke-linecap: butt;  opacity: 1.000000" xlink:href="#m30e32995789d870ad79a2e54c91cf9c6" x="161.280000" y="388.800000"/>
</g></g>
<g id="line2d7">
<g ><use style="fill: none; stroke: #000000; stroke-width: 0.500000; stroke-linejoin: round; stroke-linecap: butt;  opacity: 1.000000" xlink:href="#m9281cae24120827b11d5ea8a7ad3e96b" x="161.280000" y="43.200000"/>
</g></g>
<g id="text2">
<defs>
<path id="c_ed3f3ed3ebfbd18bcb9c012009a68ad1" d="M19.187500 -8.296875l34.421875 0.000000l0.000000 8.296875l-46.281250 0.000000l0.000000 -8.296875q5.609375 -5.812500 15.296875 -15.593750q9.703125 -9.796875 12.187500 -12.640625q4.734375 -5.312500 6.609375 -9.000000q1.890625 -3.687500 1.890625 -7.250000q0.000000 -5.812500 -4.078125 -9.468750q-4.078125 -3.671875 -10.625000 -3.671875q-4.640625 0.000000 -9.796875 1.609375q-5.140625 1.609375 -11.000000 4.890625l0.000000 -9.968750q5.953125 -2.390625 11.125000 -3.609375q5.187500 -1.218750 9.484375 -1.218750q11.328125 0.000000 18.062500 5.671875q6.734375 5.656250 6.734375 15.125000q0.000000 4.500000 -1.687500 8.531250q-1.671875 4.015625 -6.125000 9.484375q-1.218750 1.421875 -7.765625 8.187500q-6.531250 6.765625 -18.453125 18.921875"/>
</defs>
<g style="fill: #000000; opacity: 1.000000" transform="translate(146.834688,401.706250)scale(0.120000)">
<use xlink:href="#c_ed3f3ed3ebfbd18bcb9c012009a68ad1"/>
<use xlink:href="#c_7a2040fe3b94fcd41d0a72c84e93b115" x="63.623047"/>
<use xlink:href="#c_7a2040fe3b94fcd41d0a72c84e93b115" x="127.246094"/>
<use xlink:href="#c_7a2040fe3b94fcd41d0a72c84e93b115" x="190.869141"/>
</g>
</g>
</g>
<g id="xtick3">
<g id="line2d8">
<path style="fill: none; stroke: #000000; stroke-width: 0.500000; stroke-linejoin: round; stroke-linecap: butt; stroke-dasharray: 1.000000,3.000000; stroke-dashoffset: 0.000000; opacity: 1.000000" clip-path="url(#p50431ccdcb28178602d99d9270004dde)" d="M250.560000 388.800000L250.560000 43.200000"/>
</g>
<g id="line2d9">
<g ><use style="fill: none; stroke: #000000; stroke-width: 0.500000; stroke-linejoin: round; stroke-linecap: butt;  opacity: 1.000000" xlink:href="#m30e32995789d870ad79a2e54c91cf9c6" x="250.560000" y="388.800000"/>
</g></g>
<g id="line2d10">
<g ><use style="fill: none; stroke: #000000; stroke-width: 0.500000; stroke-linejoin: round; stroke-linecap: butt;  opacity: 1.000000" xlink:href="#m9281cae24120827b11d5ea8a7ad3e96b" x="250.560000" y="43.200000"/>
</g></g>
<g id="text3">
<defs>
<path id="c_a0416418d96557a09b8c1332d34883ba" d="M37.796875 -64.312500l-24.906250 38.921875l24.906250 0.000000zM35.203125 -72.906250l12.406250 0.000000l0.000000 47.515625l10.406250 0.000000l0.000000 8.203125l-10.406250 0.000000l0.000000 17.187500l-9.812500 0.000000l0.000000 -17.187500l-32.906250 0.000000l0.000000 -9.515625z"/>
</defs>
<g style="fill: #000000; opacity: 1.000000" transform="translate(235.974063,401.706250)scale(0.120000)">
<use xlink:href="#c_a0416418d96557a09b8c1332d34883ba"/>
<use xlink:href="#c_7a2040fe3b94fcd41d0a72c84e93b115" x="63.623047"/>
<use xlink:href="#c_7a2040fe3b94fcd41d0a72c84e93b115" x="127.246094"/>
<use xlink:href="#c_7a2040fe3b94fcd41d0a72c84e93b115" x="190.869141"/>
</g>
</g>
</g>
<g id="xtick4">
<g id="line2d11">
<path style="fill: none; stroke: #000000; stroke-width: 0.500000; stroke-linejoin: round; stroke-linecap: butt; stroke-dasharray: 1.000000,3.000000; stroke-dashoffset: 0.000000; opacity: 1.000000" clip-path="url(#p50431ccdcb28178602d99d9270004dde)" d="M339.840000 388.800000L339.840000 43.200000"/>
</g>
<g id="line2d12">
<g ><use style="fill: none; stroke: #000000; stroke-width: 0.500000; stroke-linejoin: round; stroke-linecap: butt;  opacity: 1.000000" xlink:href="#m30e32995789d870ad79a2e54c91cf9c6" x="339.840000" y="388.800000"/>
</g></g>
<g id="line2d13">
<g ><use style="fill: none; stroke: #000000; stroke-width: 0.500000; stroke-linejoin: round; stroke-linecap: butt;  opacity: 1.000000" xlink:href="#m9281cae24120827b11d5ea8a7ad3e96b" x="339.840000" y="43.200000"/>
</g></g>
<g id="text4">
<defs>
<path id="c_cc8d6d580d1b10c8632f7a42cd53db8a" d="M33.015625 -40.375000q-6.640625 0.000000 -10.531250 4.546875q-3.875000 4.531250 -3.875000 12.437500q0.000000 7.859375 3.875000 12.437500q3.890625 4.562500 10.531250 4.562500q6.640625 0.000000 10.515625 -4.562500q3.875000 -4.578125 3.875000 -12.437500q0.000000 -7.906250 -3.875000 -12.437500q-3.875000 -4.546875 -10.515625 -4.546875M52.593750 -71.296875l0.000000 8.984375q-3.718750 -1.750000 -7.500000 -2.671875q-3.781250 -0.937500 -7.500000 -0.937500q-9.765625 0.000000 -14.921875 6.593750q-5.140625 6.593750 -5.875000 19.921875q2.875000 -4.250000 7.218750 -6.515625q4.359375 -2.265625 9.578125 -2.265625q10.984375 0.000000 17.359375 6.671875q6.375000 6.656250 6.375000 18.125000q0.000000 11.234375 -6.640625 18.031250q-6.640625 6.781250 -17.671875 6.781250q-12.656250 0.000000 -19.343750 -9.687500q-6.687500 -9.703125 -6.687500 -28.109375q0.000000 -17.281250 8.203125 -27.562500q8.203125 -10.281250 22.015625 -10.281250q3.718750 0.000000 7.500000 0.734375q3.781250 0.734375 7.890625 2.187500"/>
</defs>
<g style="fill: #000000; opacity: 1.000000" transform="translate(325.379062,401.706250)scale(0.120000)">
<use xlink:href="#c_cc8d6d580d1b10c8632f7a42cd53db8a"/>
<use xlink:href="#c_7a2040fe3b94fcd41d0a72c84e93b115" x="63.623047"/>
<use xlink:href="#c_7a2040fe3b94fcd41d0a72c84e93b115" x="127.246094"/>
<use xlink:href="#c_7a2040fe3b94fcd41d0a72c84e93b115" x="190.869141"/>
</g>
</g>
</g>
<g id="xtick5">
<g id="line2d14">
<path style="fill: none; stroke: #000000; stroke-width: 0.500000; stroke-linejoin: round; stroke-linecap: butt; stroke-dasharray: 1.000000,3.000000; stroke-dashoffset: 0.000000; opacity: 1.000000" clip-path="url(#p50431ccdcb28178602d99d9270004dde)" d="M429.120000 388.800000L429.120000 43.200000"/>
</g>
<g id="line2d15">
<g ><use style="fill: none; stroke: #000000; stroke-width: 0.500000; stroke-linejoin: round; stroke-linecap: butt;  opacity: 1.000000" xlink:href="#m30e32995789d870ad79a2e54c91cf9c6" x="429.120000" y="388.800000"/>
</g></g>
<g id="line2d16">
<g ><use style="fill: none; stroke: #000000; stroke-width: 0.500000; stroke-linejoin: round; stroke-linecap: butt;  opacity: 1.000000" xlink:href="#m9281cae24120827b11d5ea8a7ad3e96b" x="429.120000" y="43.200000"/>
</g></g>
<g id="text5">
<defs>
<path id="c_bef35738d52871942e50b9de9b122bab" d="M31.781250 -34.625000q-7.031250 0.000000 -11.062500 3.765625q-4.015625 3.765625 -4.015625 10.343750q0.000000 6.593750 4.015625 10.359375q4.031250 3.765625 11.062500 3.765625q7.031250 0.000000 11.078125 -3.781250q4.062500 -3.796875 4.062500 -10.343750q0.000000 -6.578125 -4.031250 -10.343750q-4.015625 -3.765625 -11.109375 -3.765625M21.921875 -38.812500q-6.343750 -1.562500 -9.890625 -5.906250q-3.531250 -4.359375 -3.531250 -10.609375q0.000000 -8.734375 6.218750 -13.812500q6.234375 -5.078125 17.062500 -5.078125q10.890625 0.000000 17.093750 5.078125q6.203125 5.078125 6.203125 13.812500q0.000000 6.250000 -3.546875 10.609375q-3.531250 4.343750 -9.828125 5.906250q7.125000 1.656250 11.093750 6.500000q3.984375 4.828125 3.984375 11.796875q0.000000 10.609375 -6.468750 16.281250q-6.468750 5.656250 -18.531250 5.656250q-12.046875 0.000000 -18.531250 -5.656250q-6.468750 -5.671875 -6.468750 -16.281250q0.000000 -6.968750 4.000000 -11.796875q4.015625 -4.843750 11.140625 -6.500000M18.312500 -54.390625q0.000000 5.656250 3.531250 8.828125q3.546875 3.171875 9.937500 3.171875q6.359375 0.000000 9.937500 -3.171875q3.593750 -3.171875 3.593750 -8.828125q0.000000 -5.671875 -3.593750 -8.843750q-3.578125 -3.171875 -9.937500 -3.171875q-6.390625 0.000000 -9.937500 3.171875q-3.531250 3.171875 -3.531250 8.843750"/>
</defs>
<g style="fill: #000000; opacity: 1.000000" transform="translate(414.643438,401.706250)scale(0.120000)">
<use xlink:href="#c_bef35738d52871942e50b9de9b122bab"/>
<use xlink:href="#c_7a2040fe3b94fcd41d0a72c84e93b115" x="63.623047"/>
<use xlink:href="#c_7a2040fe3b94fcd41d0a72c84e93b115" x="127.246094"/>
<use xlink:href="#c_7a2040fe3b94fcd41d0a72c84e93b115" x="190.869141"/>
</g>
</g>
</g>
<g id="xtick6">
<g id="line2d17">
<path style="fill: none; stroke: #000000; stroke-width: 0.500000; stroke-linejoin: round; stroke-linecap: butt; stroke-dasharray: 1.000000,3.000000; stroke-dashoffset: 0.000000; opacity: 1.000000" clip-path="url(#p50431ccdcb28178602d99d9270004dde)" d="M518.400000 388.800000L518.400000 43.200000"/>
</g>
<g id="line2d18">
<g ><use style="fill: none; stroke: #000000; stroke-width: 0.500000; stroke-linejoin: round; stroke-linecap: butt;  opacity: 1.000000" xlink:href="#m30e32995789d870ad79a2e54c91cf9c6" x="518.400000" y="388.800000"/>
</g></g>
<g id="line2d19">
<g ><use style="fill: none; stroke: #000000; stroke-width: 0.500000; stroke-linejoin: round; stroke-linecap: butt;  opacity: 1.000000" xlink:href="#m9281cae24120827b11d5ea8a7ad3e96b" x="518.400000" y="43.200000"/>
</g></g>
<g id="text6">
<defs>
<path id="c_42baa63129a918535c52adb20d687ea7" d="M12.406250 -8.296875l16.109375 0.000000l0.000000 -55.625000l-17.531250 3.515625l0.000000 -8.984375l17.437500 -3.515625l9.859375 0.000000l0.000000 64.609375l16.109375 0.000000l0.000000 8.296875l-41.984375 0.000000z"/>
</defs>
<g style="fill: #000000; opacity: 1.000000" transform="translate(500.353125,401.706250)scale(0.120000)">
<use xlink:href="#c_42baa63129a918535c52adb20d687ea7"/>
<use xlink:href="#c_7a2040fe3b94fcd41d0a72c84e93b115" x="63.623047"/>
<use xlink:href="#c_7a2040fe3b94fcd41d0a72c84e93b115" x="127.246094"/>
<use xlink:href="#c_7a2040fe3b94fcd41d0a72c84e93b115" x="190.869141"/>
<use xlink:href="#c_7a2040fe3b94fcd41d0a72c84e93b115" x="254.492188"/>
</g>
</g>
</g>
</g>
<g id="matplotlib.axis2">
<g id="ytick1">
<g id="line2d20">
<path style="fill: none; stroke: #000000; stroke-width: 0.500000; stroke-linejoin: round; stroke-linecap: butt; stroke-dasharray: 1.000000,3.000000; stroke-dashoffset: 0.000000; opacity: 1.000000" clip-path="url(#p50431ccdcb28178602d99d9270004dde)" d="M72.000000 388.800000L518.400000 388.800000"/>
</g>
<g id="line2d21">
<defs><path id="m3400efa6b1638b3fea9e19e898273957" d="M0.000000 0.000000L4.000000 0.000000"/></defs>
<g ><use style="fill: none; stroke: #000000; stroke-width: 0.500000; stroke-linejoin: round; stroke-linecap: butt;  opacity: 1.000000" xlink:href="#m3400efa6b1638b3fea9e19e898273957" x="72.000000" y="388.800000"/>
</g></g>
<g id="line2d22">
<defs><path id="m20b58b2501143cb5e0a5e8f1ef6f1643" d="M0.000000 0.000000L-4.000000 0.000000"/></defs>
<g ><use style="fill: none; stroke: #000000; stroke-width: 0.500000; stroke-linejoin: round; stroke-linecap: butt;  opacity: 1.000000" xlink:href="#m20b58b2501143cb5e0a5e8f1ef6f1643" x="518.400000" y="388.800000"/>
</g></g>
<g id="text7">
<defs>
<path id="c_ed3e21196fb739f392806f09ca0594ef" d="M10.687500 -12.406250l10.312500 0.000000l0.000000 12.406250l-10.312500 0.000000z"/>
</defs>
<g style="fill: #000000; opacity: 1.000000" transform="translate(35.218750,393.167188)scale(0.120000)">
<use xlink:href="#c_7a2040fe3b94fcd41d0a72c84e93b115"/>
<use xlink:href="#c_ed3e21196fb739f392806f09ca0594ef" x="63.623047"/>
<use xlink:href="#c_7a2040fe3b94fcd41d0a72c84e93b115" x="95.410156"/>
<use xlink:href="#c_7a2040fe3b94fcd41d0a72c84e93b115" x="159.033203"/>
<use xlink:href="#c_7a2040fe3b94fcd41d0a72c84e93b115" x="222.656250"/>
</g>
</g>
</g>
<g id="ytick2">
<g id="line2d23">
<path style="fill: none; stroke: #000000; stroke-width: 0.500000; stroke-linejoin: round; stroke-linecap: butt; stroke-dasharray: 1.000000,3.000000; stroke-dashoffset: 0.000000; opacity: 1.000000" clip-path="url(#p50431ccdcb28178602d99d9270004dde)" d="M72.000000 331.200000L518.400000 331.200000"/>
</g>
<g id="line2d24">
<g ><use style="fill: none; stroke: #000000; stroke-width: 0.500000; stroke-linejoin: round; stroke-linecap: butt;  opacity: 1.000000" xlink:href="#m3400efa6b1638b3fea9e19e898273957" x="72.000000" y="331.200000"/>
</g></g>
<g id="line2d25">
<g ><use style="fill: none; stroke: #000000; stroke-width: 0.500000; stroke-linejoin: round; stroke-linecap: butt;  opacity: 1.000000" xlink:href="#m20b58b2501143cb5e0a5e8f1ef6f1643" x="518.400000" y="331.200000"/>
</g></g>
<g id="text8">
<defs>
<path id="c_1260a2df50f305f3db244e29828f968e" d="M10.796875 -72.906250l38.718750 0.000000l0.000000 8.312500l-29.687500 0.000000l0.000000 17.859375q2.140625 -0.734375 4.281250 -1.093750q2.156250 -0.359375 4.312500 -0.359375q12.203125 0.000000 19.328125 6.687500q7.140625 6.687500 7.140625 18.109375q0.000000 11.765625 -7.328125 18.296875q-7.328125 6.515625 -20.656250 6.515625q-4.593750 0.000000 -9.359375 -0.781250q-4.750000 -0.781250 -9.828125 -2.343750l0.000000 -9.921875q4.390625 2.390625 9.078125 3.562500q4.687500 1.171875 9.906250 1.171875q8.453125 0.000000 13.375000 -4.437500q4.937500 -4.437500 4.937500 -12.062500q0.000000 -7.609375 -4.937500 -12.046875q-4.921875 -4.453125 -13.375000 -4.453125q-3.953125 0.000000 -7.890625 0.875000q-3.921875 0.875000 -8.015625 2.734375z"/>
</defs>
<g style="fill: #000000; opacity: 1.000000" transform="translate(35.468750,335.567187)scale(0.120000)">
<use xlink:href="#c_7a2040fe3b94fcd41d0a72c84e93b115"/>
<use xlink:href="#c_ed3e21196fb739f392806f09ca0594ef" x="63.623047"/>
<use xlink:href="#c_7a2040fe3b94fcd41d0a72c84e93b115" x="95.410156"/>
<use xlink:href="#c_7a2040fe3b94fcd41d0a72c84e93b115" x="159.033203"/>
<use xlink:href="#c_1260a2df50f305f3db244e29828f968e" x="222.656250"/>
</g>
</g>
</g>
<g id="ytick3">
<g id="line2d26">
<path style="fill: none; stroke: #000000; stroke-width: 0.500000; stroke-linejoin: round; stroke-linecap: butt; stroke-dasharray: 1.000000,3.000000; stroke-dashoffset: 0.000000; opacity: 1.000000" clip-path="url(#p50431ccdcb28178602d99d9270004dde)" d="M72.000000 273.600000L518.400000 273.600000"/>
</g>
<g id="line2d27">
<g ><use style="fill: none; stroke: #000000; stroke-width: 0.500000; stroke-linejoin: round; stroke-linecap: butt;  opacity: 1.000000" xlink:href="#m3400efa6b1638b3fea9e19e898273957" x="72.000000" y="273.600000"/>
</g></g>
<g id="line2d28">
<g ><use style="fill: none; stroke: #000000; stroke-width: 0.500000; stroke-linejoin: round; stroke-linecap: butt;  opacity: 1.000000" xlink:href="#m20b58b2501143cb5e0a5e8f1ef6f1643" x="518.400000" y="273.600000"/>
</g></g>
<g id="text9">
<g style="fill: #000000; opacity: 1.000000" transform="translate(35.218750,277.967188)scale(0.120000)">
<use xlink:href="#c_7a2040fe3b94fcd41d0a72c84e93b115"/>
<use xlink:href="#c_ed3e21196fb739f392806f09ca0594ef" x="63.623047"/>
<use xlink:href="#c_7a2040fe3b94fcd41d0a72c84e93b115" x="95.410156"/>
<use xlink:href="#c_42baa63129a918535c52adb20d687ea7" x="159.033203"/>
<use xlink:href="#c_7a2040fe3b94fcd41d0a72c84e93b115" x="222.656250"/>
</g>
</g>
</g>
<g id="ytick4">
<g id="line2d29">
<path style="fill: none; stroke: #000000; stroke-width: 0.500000; stroke-linejoin: round; stroke-linecap: butt; stroke-dasharray: 1.000000,3.000000; stroke-dashoffset: 0.000000; opacity: 1.000000" clip-path="url(#p50431ccdcb28178602d99d9270004dde)" d="M72.000000 216.000000L518.400000 216.000000"/>
</g>
<g id="line2d30">
<g ><use style="fill: none; stroke: #000000; stroke-width: 0.500000; stroke-linejoin: round; stroke-linecap: butt;  opacity: 1.000000" xlink:href="#m3400efa6b1638b3fea9e19e898273957" x="72.000000" y="216.000000"/>
</g></g>
<g id="line2d31">
<g ><use style="fill: none; stroke: #000000; stroke-width: 0.500000; stroke-linejoin: round; stroke-linecap: butt;  opacity: 1.000000" xlink:href="#m20b58b2501143cb5e0a5e8f1ef6f1643" x="518.400000" y="216.000000"/>
</g></g>
<g id="text10">
<g style="fill: #000000; opacity: 1.000000" transform="translate(35.468750,220.367188)scale(0.120000)">
<use xlink:href="#c_7a2040fe3b94fcd41d0a72c84e93b115"/>
<use xlink:href="#c_ed3e21196fb739f392806f09ca0594ef" x="63.623047"/>
<use xlink:href="#c_7a2040fe3b94fcd41d0a72c84e93b115" x="95.410156"/>
<use xlink:href="#c_42baa63129a918535c52adb20d687ea7" x="159.033203"/>
<use xlink:href="#c_1260a2df50f305f3db244e29828f968e" x="222.656250"/>
</g>
</g>
</g>
<g id="ytick5">
<g id="line2d32">
<path style="fill: none; stroke: #000000; stroke-width: 0.500000; stroke-linejoin: round; stroke-linecap: butt; stroke-dasharray: 1.000000,3.000000; stroke-dashoffset: 0.000000; opacity: 1.000000" clip-path="url(#p50431ccdcb28178602d99d9270004dde)" d="M72.000000 158.400000L518.400000 158.400000"/>
</g>
<g id="line2d33">
<g ><use style="fill: none; stroke: #000000; stroke-width: 0.500000; stroke-linejoin: round; stroke-linecap: butt;  opacity: 1.000000" xlink:href="#m3400efa6b1638b3fea9e19e898273957" x="72.000000" y="158.400000"/>
</g></g>
<g id="line2d34">
<g ><use style="fill: none; stroke: #000000; stroke-width: 0.500000; stroke-linejoin: round; stroke-linecap: butt;  opacity: 1.000000" xlink:href="#m20b58b2501143cb5e0a5e8f1ef6f1643" x="518.400000" y="158.400000"/>
</g></g>
<g id="text11">
<g style="fill: #000000; opacity: 1.000000" transform="translate(35.218750,162.767187)scale(0.120000)">
<use xlink:href="#c_7a2040fe3b94fcd41d0a72c84e93b115"/>
<use xlink:href="#c_ed3e21196fb739f392806f09ca0594ef" x="63.623047"/>
<use xlink:href="#c_7a2040fe3b94fcd41d0a72c84e93b115" x="95.410156"/>
<use xlink:href="#c_ed3f3ed3ebfbd18bcb9c012009a68ad1" x="159.033203"/>
<use xlink:href="#c_7a2040fe3b94fcd41d0a72c84e93b115" x="222.656250"/>
</g>
</g>
</g>
<g id="ytick6">
<g id="line2d35">
<path style="fill: none; stroke: #000000; stroke-width: 0.500000; stroke-linejoin: round; stroke-linecap: butt; stroke-dasharray: 1.000000,3.000000; stroke-dashoffset: 0.000000; opacity: 1.000000" clip-path="url(#p50431ccdcb28178602d99d9270004dde)" d="M72.000000 100.800000L518.400000 100.800000"/>
</g>
<g id="line2d36">
<g ><use style="fill: none; stroke: #000000; stroke-width: 0.500000; stroke-linejoin: round; stroke-linecap: butt;  opacity: 1.000000" xlink:href="#m3400efa6b1638b3fea9e19e898273957" x="72.000000" y="100.800000"/>
</g></g>
<g id="line2d37">
<g ><use style="fill: none; stroke: #000000; stroke-width: 0.500000; stroke-linejoin: round; stroke-linecap: butt;  opacity: 1.000000" xlink:href="#m20b58b2501143cb5e0a5e8f1ef6f1643" x="518.400000" y="100.800000"/>
</g></g>
<g id="text12">
<g style="fill: #000000; opacity: 1.000000" transform="translate(35.468750,105.167187)scale(0.120000)">
<use xlink:href="#c_7a2040fe3b94fcd41d0a72c84e93b115"/>
<use xlink:href="#c_ed3e21196fb739f392806f09ca0594ef" x="63.623047"/>
<use xlink:href="#c_7a2040fe3b94fcd41d0a72c84e93b115" x="95.410156"/>
<use xlink:href="#c_ed3f3ed3ebfbd18bcb9c012009a68ad1" x="159.033203"/>
<use xlink:href="#c_1260a2df50f305f3db244e29828f968e" x="222.656250"/>
</g>
</g>
</g>
<g id="ytick7">
<g id="line2d38">
<path style="fill: none; stroke: #000000; stroke-width: 0.500000; stroke-linejoin: round; stroke-linecap: butt; stroke-dasharray: 1.000000,3.000000; stroke-dashoffset: 0.000000; opacity: 1.000000" clip-path="url(#p50431ccdcb28178602d99d9270004dde)" d="M72.000000 43.200000L518.400000 43.200000"/>
</g>
<g id="line2d39">
<g ><use style="fill: none; stroke: #000000; stroke-width: 0.500000; stroke-linejoin: round; stroke-linecap: butt;  opacity: 1.000000" xlink:href="#m3400efa6b1638b3fea9e19e898273957" x="72.000000" y="43.200000"/>
</g></g>
<g id="line2d40">
<g ><use style="fill: none; stroke: #000000; stroke-width: 0.500000; stroke-linejoin: round; stroke-linecap: butt;  opacity: 1.000000" xlink:href="#m20b58b2501143cb5e0a5e8f1ef6f1643" x="518.400000" y="43.200000"/>
</g></g>
<g id="text13">
<defs>
<path id="c_3dcfa38a02242cb63ec6726c6e70be7a" d="M40.578125 -39.312500q7.078125 1.515625 11.046875 6.312500q3.984375 4.781250 3.984375 11.812500q0.000000 10.781250 -7.421875 16.703125q-7.421875 5.906250 -21.093750 5.906250q-4.578125 0.000000 -9.437500 -0.906250q-4.859375 -0.906250 -10.031250 -2.718750l0.000000 -9.515625q4.093750 2.390625 8.968750 3.609375q4.890625 1.218750 10.218750 1.218750q9.265625 0.000000 14.125000 -3.656250q4.859375 -3.656250 4.859375 -10.640625q0.000000 -6.453125 -4.515625 -10.078125q-4.515625 -3.640625 -12.562500 -3.640625l-8.500000 0.000000l0.000000 -8.109375l8.890625 0.000000q7.265625 0.000000 11.125000 -2.906250q3.859375 -2.906250 3.859375 -8.375000q0.000000 -5.609375 -3.984375 -8.609375q-3.968750 -3.015625 -11.390625 -3.015625q-4.062500 0.000000 -8.703125 0.890625q-4.640625 0.875000 -10.203125 2.718750l0.000000 -8.781250q5.625000 -1.562500 10.531250 -2.343750q4.906250 -0.781250 9.250000 -0.781250q11.234375 0.000000 17.765625 5.109375q6.546875 5.093750 6.546875 13.781250q0.000000 6.062500 -3.468750 10.234375q-3.468750 4.171875 -9.859375 5.781250"/>
</defs>
<g style="fill: #000000; opacity: 1.000000" transform="translate(35.218750,47.567187)scale(0.120000)">
<use xlink:href="#c_7a2040fe3b94fcd41d0a72c84e93b115"/>
<use xlink:href="#c_ed3e21196fb739f392806f09ca0594ef" x="63.623047"/>
<use xlink:href="#c_7a2040fe3b94fcd41d0a72c84e93b115" x="95.410156"/>
<use xlink:href="#c_3dcfa38a02242cb63ec6726c6e70be7a" x="159.033203"/>
<use xlink:href="#c_7a2040fe3b94fcd41d0a72c84e93b115" x="222.656250"/>
</g>
</g>
</g>
</g>
<g id="patch3">
<path style="fill: none; stroke: #000000; stroke-width: 1.000000; stroke-linejoin: round; stroke-linecap: square;  opacity: 1.000000"  d="M72.000000 43.200000L518.400000 43.200000"/>
</g>
<g id="patch4">
<path style="fill: none; stroke: #000000; stroke-width: 1.000000; stroke-linejoin: round; stroke-linecap: square;  opacity: 1.000000"  d="M518.400000 388.800000L518.400000 43.200000"/>
</g>
<g id="patch5">
<path style="fill: none; stroke: #000000; stroke-width: 1.000000; stroke-linejoin: round; stroke-linecap: square;  opacity: 1.000000"  d="M72.000000 388.800000L518.400000 388.800000"/>
</g>
<g id="patch6">
<path style="fill: none; stroke: #000000; stroke-width: 1.000000; stroke-linejoin: round; stroke-linecap: square;  opacity: 1.000000"  d="M72.000000 388.800000L72.000000 43.200000"/>
</g>
</g>
</g>
</svg>
